<?xml version="1.0" encoding="utf-8" standalone="no"?>
<!DOCTYPE svg PUBLIC "-//W3C//DTD SVG 1.1//EN"
  "http://www.w3.org/Graphics/SVG/1.1/DTD/svg11.dtd">
<!-- Created with matplotlib (http://matplotlib.org/) -->
<svg height="432pt" version="1.1" viewBox="0 0 576 432" width="576pt" xmlns="http://www.w3.org/2000/svg" xmlns:xlink="http://www.w3.org/1999/xlink">
 <defs>
  <style type="text/css">
*{stroke-linecap:butt;stroke-linejoin:round;}
  </style>
 </defs>
 <g id="figure_1">
  <g id="patch_1">
   <path d="
M0 432
L576 432
L576 0
L0 0
z
" style="fill:#ffffff;"/>
  </g>
  <g id="axes_1">
   <g id="patch_2">
    <path d="
M72 388.8
L518.4 388.8
L518.4 43.2
L72 43.2
z
" style="fill:#ffffff;"/>
   </g>
   <g id="line2d_1">
    <path clip-path="url(#p7ff5b81e1d)" d="
M72 104.554
L76.464 104.554
L76.6426 112.893
L80.928 112.893
L81.1066 121.208
L89.856 121.208
L90.0346 122.91
L94.32 122.91
L94.4986 124.332
L98.784 124.332
L98.9626 125.48
L103.248 125.48
L103.427 125.661
L112.176 125.767
L112.355 125.984
L116.64 125.984
L116.819 126.652
L121.104 126.652
L121.283 127.12
L125.568 127.12
L125.747 127.353
L130.032 127.353
L130.211 127.465
L420.46 127.565
L420.638 127.641
L447.244 127.659
L447.422 128.485
L451.708 128.485
L451.886 128.641
L456.172 128.641
L456.35 128.936
L518.311 128.968
L518.311 128.968" style="fill:none;stroke:#0000ff;stroke-dasharray:6.000000,2.000000;stroke-dashoffset:0.0;"/>
   </g>
   <g id="line2d_2">
    <path clip-path="url(#p7ff5b81e1d)" d="
M72 106.687
L72.2678 106.687
L72.4464 108.233
L72.5357 108.233
L72.7142 108.751
L72.9821 108.751
L73.1606 109.223
L73.6963 109.223
L73.9642 109.927
L74.0534 109.927
L74.232 110.758
L74.857 110.758
L75.0355 110.979
L75.1248 110.979
L75.3034 111.193
L75.3926 111.193
L75.5712 111.333
L75.839 112.917
L76.1962 112.917
L76.3747 113.039
L76.464 113.039
L76.6426 114.963
L76.9104 114.963
L77.089 115.835
L77.5354 115.858
L77.7139 116.553
L78.071 116.553
L78.2496 117.037
L78.3389 117.037
L78.5174 118.494
L78.7853 118.494
L78.9638 119.049
L79.1424 119.049
L79.321 119.473
L79.6781 119.473
L79.8566 119.697
L80.2138 119.697
L80.3923 120.091
L80.7494 120.091
L81.0173 121.291
L81.1958 121.291
L81.3744 121.505
L81.4637 121.505
L81.8208 121.96
L81.9994 122.648
L82.1779 127.884
L82.4458 127.884
L82.6243 128.018
L83.0707 128.018
L83.2493 128.843
L83.9635 128.931
L84.1421 130.207
L84.4099 130.207
L84.767 134.566
L84.9456 134.74
L85.0349 134.74
L85.392 138.14
L85.5706 138.302
L86.017 138.302
L86.2848 139.067
L86.3741 139.067
L86.5526 140.444
L86.999 140.444
L87.1776 141.047
L87.7133 141.099
L87.9811 142.272
L88.6061 142.272
L88.7846 144.453
L89.1418 144.453
L89.3203 148.445
L89.4989 148.608
L89.856 148.608
L90.0346 150.842
L90.2131 150.842
L90.3917 151.733
L90.7488 151.733
L90.9274 151.872
L91.1952 151.872
L91.463 154.424
L91.6416 154.424
L91.8202 156.231
L92.088 156.231
L92.1773 156.391
L92.3558 157.84
L92.8022 157.84
L92.9808 160.078
L93.5165 160.078
L93.695 162.937
L94.0522 162.937
L94.1414 163.104
L94.32 172.691
L94.7664 172.691
L94.945 172.966
L95.3021 172.966
L95.4806 173.16
L95.7485 173.16
L95.927 173.941
L96.4627 173.941
L96.6413 175.04
L97.0877 175.04
L97.2662 175.5
L98.784 175.544
L98.9626 182.016
L99.1411 182.016
L99.3197 183.397
L99.6768 183.397
L99.8554 190.62
L100.212 190.62
L100.391 191.878
L101.195 191.878
L101.373 193.616
L101.641 193.616
L101.82 198.882
L102.712 198.882
L102.891 199.933
L103.248 199.933
L103.516 201.492
L104.409 201.492
L104.587 202.472
L105.034 202.472
L105.212 202.754
L105.48 202.754
L105.659 208.303
L106.105 208.303
L106.284 209.001
L106.641 209.001
L106.819 209.209
L107.176 209.209
L107.444 210.243
L107.533 210.243
L107.712 210.707
L108.158 210.707
L108.337 211.633
L108.605 211.633
L108.783 214.462
L109.498 214.462
L109.676 215.287
L109.765 215.287
L109.944 215.483
L110.569 215.483
L110.748 216.167
L111.194 216.167
L111.372 216.936
L111.64 216.936
L111.819 217.097
L112.087 220.642
L112.801 220.727
L112.98 221.289
L114.765 221.34
L114.944 221.807
L115.122 221.807
L115.301 221.925
L115.479 221.925
L115.658 229.286
L116.283 229.339
L116.461 231.17
L117.622 231.21
L117.801 235.859
L118.247 235.859
L118.426 236.515
L118.783 236.515
L118.961 237.063
L119.051 237.063
L119.229 240.978
L119.854 240.978
L120.033 241.778
L120.211 241.778
L120.39 242.064
L120.747 242.064
L120.925 248.979
L122.175 248.979
L122.354 249.179
L122.8 249.179
L122.979 256.696
L124.497 256.696
L124.675 257.413
L125.568 257.413
L125.747 260.518
L126.372 260.518
L126.55 260.813
L128.246 260.886
L128.425 273.154
L129.586 273.154
L129.764 273.386
L129.943 274.196
L130.925 274.196
L131.103 274.797
L131.728 274.797
L131.907 275.424
L132.443 275.424
L132.621 277.955
L134.228 277.955
L134.407 279.52
L135.478 279.561
L135.657 279.922
L136.371 279.922
L136.549 280.08
L137.442 280.08
L137.621 280.646
L137.889 280.646
L138.067 281.456
L138.424 281.456
L138.603 282.731
L138.871 282.731
L139.049 283.119
L139.317 283.119
L139.496 284.344
L140.031 284.344
L140.21 290.029
L141.638 290.029
L141.817 290.634
L142.531 290.634
L142.71 290.934
L143.87 290.968
L144.049 292.748
L144.228 292.748
L144.406 292.891
L144.585 295.984
L145.299 295.984
L145.477 298.113
L147.799 298.198
L147.977 298.653
L148.87 298.653
L149.049 300.459
L150.566 300.534
L150.745 301.459
L151.191 301.467
L151.37 302.685
L151.638 302.685
L151.816 303.012
L152.173 303.012
L152.352 304.652
L152.62 304.652
L152.798 306.292
L153.066 306.292
L153.245 307.577
L155.388 307.598
L155.566 307.848
L158.244 307.848
L158.602 308.547
L158.869 308.547
L159.048 309.454
L159.405 309.454
L159.584 309.792
L159.762 317.02
L162.084 317.02
L162.262 317.325
L163.423 317.325
L163.601 318.312
L165.387 318.312
L165.565 318.971
L169.226 319.076
L169.404 320.193
L169.672 320.193
L169.851 323.057
L171.279 323.057
L171.458 324.058
L173.333 324.148
L173.511 325.437
L173.779 325.437
L173.958 326.44
L176.904 326.469
L177.083 327.174
L177.529 327.174
L177.708 328.31
L178.154 328.31
L178.332 328.557
L178.511 329.654
L183.154 329.752
L183.957 329.869
L185.386 329.967
L185.832 329.997
L186.189 329.997
L186.368 330.857
L190.117 330.928
L190.296 331.037
L191.457 331.146
L191.635 331.873
L192.26 331.873
L192.439 332.603
L194.224 332.603
L194.403 333.206
L196.099 333.206
L196.278 333.395
L196.546 333.395
L196.724 333.763
L199.581 333.874
L199.76 333.957
L199.938 335.352
L201.188 335.352
L201.367 335.583
L202.974 335.591
L203.152 336.677
L205.652 336.75
L205.831 338.11
L207.17 338.11
L207.348 339.004
L208.152 339.004
L208.331 340.017
L208.688 340.017
L208.866 340.281
L208.956 340.281
L209.134 342.156
L210.384 342.156
L210.563 342.968
L212.973 342.968
L213.152 344.576
L214.669 344.576
L214.848 346.363
L216.187 346.363
L216.366 346.84
L218.419 346.84
L218.598 347.025
L219.401 347.025
L219.58 347.262
L221.008 347.262
L221.187 347.501
L226.365 347.604
L226.544 347.706
L229.936 347.714
L230.115 347.858
L233.061 347.858
L233.15 347.986
L233.329 348.642
L235.115 348.667
L235.293 348.798
L235.472 348.798
L235.65 349.731
L236.454 349.731
L236.632 350.596
L238.15 350.596
L238.329 351.314
L240.382 351.314
L240.561 351.831
L243.06 351.831
L243.239 352.083
L244.668 352.083
L244.846 352.261
L245.203 352.261
L245.382 353.112
L247.792 353.112
L247.971 354.478
L254.042 354.487
L254.22 355.386
L254.667 355.386
L254.845 356.441
L257.167 356.441
L257.345 356.972
L258.506 356.972
L258.684 357.251
L259.399 357.251
L259.577 357.928
L263.238 357.928
L263.416 358.629
L264.309 358.629
L264.488 360.229
L267.345 360.229
L267.523 361.042
L269.934 361.042
L270.112 361.451
L276.987 361.483
L277.165 361.638
L277.969 361.638
L278.148 362.426
L281.719 362.528
L281.897 363.244
L282.701 363.244
L282.879 363.721
L286.629 363.721
L286.808 364.072
L291.54 364.144
L291.718 364.442
L292.254 364.442
L292.432 365.191
L293.147 365.191
L293.325 365.991
L297.7 365.991
L297.878 366.246
L301.36 366.246
L301.539 366.478
L302.432 366.478
L302.61 366.732
L302.878 366.799
L303.949 366.799
L304.128 367.2
L313.056 367.259
L313.235 367.625
L317.341 367.699
L317.431 367.905
L317.609 369.967
L319.931 369.967
L320.109 371.178
L323.323 371.178
L323.502 371.97
L326.18 371.97
L326.359 372.287
L332.073 372.391
L332.251 372.724
L337.429 372.8
L337.608 373.264
L341.09 373.264
L341.268 373.519
L343.768 373.519
L343.947 376.461
L351.714 376.461
L351.893 377.888
L352.786 377.888
L352.964 378.252
L363.946 378.296
L364.124 378.731
L367.07 378.731
L367.249 379.408
L375.463 379.459
L375.641 379.542
L378.498 379.542
L378.677 379.742
L380.462 379.742
L380.641 380.216
L380.82 380.216
L380.998 380.438
L391.622 380.545
L391.801 380.708
L406.621 380.729
L406.8 380.939
L412.514 381.006
L412.692 381.079
L415.282 381.115
L415.46 381.369
L419.478 381.369
L419.656 382.222
L423.049 382.222
L423.228 382.429
L433.941 382.46
L434.12 382.59
L442.244 382.593
L442.423 382.728
L448.583 382.824
L448.94 382.863
L450.19 382.863
L450.369 383.644
L453.672 383.644
L453.851 383.762
L459.386 383.762
L459.564 383.9
L472.956 383.923
L473.135 384.072
L478.581 384.072
L478.76 384.235
L484.295 384.329
L484.474 384.607
L491.973 384.655
L492.152 384.785
L499.116 384.785
L499.294 384.985
L509.115 384.985
L509.293 385.116
L518.311 385.12
L518.311 385.12" style="fill:none;stroke:#008000;stroke-dasharray:1.000000,1.000000;stroke-dashoffset:0.0;"/>
   </g>
   <g id="line2d_3">
    <path clip-path="url(#p7ff5b81e1d)" d="
M72 108.124
L73.6963 108.124
L73.8749 117.691
L73.9642 117.691
L74.1427 119.234
L74.6784 119.234
L74.857 122.288
L77.8032 122.288
L77.8925 122.635
L78.071 125.827
L79.0531 125.827
L79.2317 136.477
L81.7315 136.477
L81.9101 138.999
L82.4458 138.999
L82.6243 147.087
L91.3738 147.181
L91.5523 148.955
L103.873 148.955
L104.052 149.191
L113.783 149.199
L113.872 150.108
L114.051 159.123
L125.925 159.123
L126.104 160.244
L126.282 166.646
L127.889 166.646
L128.068 168.805
L132.71 168.805
L132.889 181.626
L133.782 181.626
L133.96 188.355
L138.424 188.355
L138.603 188.704
L139.139 188.704
L139.317 191.119
L141.549 191.119
L141.728 199.888
L142.442 199.888
L142.62 200.398
L142.71 200.398
L142.888 203.126
L153.423 203.126
L153.602 206.348
L162.351 206.381
L162.53 207.213
L183.779 207.231
L183.957 207.851
L189.135 207.851
L189.314 210.414
L210.563 210.442
L210.741 210.724
L212.348 210.724
L212.527 211.624
L230.918 211.624
L231.097 213.737
L231.543 213.737
L231.722 216.476
L231.9 217.971
L231.99 217.971
L232.168 221.444
L232.258 221.444
L232.436 227.312
L244.489 227.312
L244.668 232.202
L259.22 232.221
L259.399 233.845
L260.024 233.845
L260.202 236.018
L261.809 236.018
L261.988 236.335
L263.595 236.335
L263.773 237.666
L268.952 237.679
L269.13 238.016
L272.344 238.016
L272.523 241.863
L273.059 241.863
L273.237 254.955
L290.915 255.024
L291.093 255.769
L317.699 255.843
L317.877 256.686
L319.484 256.686
L319.663 258.123
L346.268 258.123
L346.447 258.801
L361.446 258.801
L361.624 261.665
L362.606 261.665
L362.785 263.254
L362.874 263.254
L363.053 264.613
L382.516 264.613
L382.694 268.083
L387.516 268.083
L387.694 276.615
L408.943 276.714
L409.121 278.469
L416.085 278.549
L416.264 278.968
L422.424 278.968
L422.603 280.268
L427.781 280.268
L427.959 280.481
L431.352 280.481
L431.531 280.978
L438.494 280.978
L438.673 285.025
L443.851 285.025
L444.03 285.215
L463.493 285.215
L463.671 287.379
L496.705 287.379
L496.884 287.593
L505.633 287.593
L505.812 288.185
L508.49 288.185
L508.668 290.458
L518.311 290.458
L518.311 290.458" style="fill:none;stroke:#ff0000;stroke-dasharray:3.000000,6.000000;stroke-dashoffset:0.0;"/>
   </g>
   <g id="line2d_4">
    <path clip-path="url(#p7ff5b81e1d)" d="
M72 104.428
L72.4464 107.748
L75.4819 107.75
L75.839 133.396
L80.0352 133.396
L80.2138 134.381
L82.9814 134.381
L83.16 139.202
L83.3386 139.202
L83.5171 148.772
L90.3024 148.772
L90.481 153.197
L94.0522 153.197
L94.2307 157.306
L101.195 157.306
L101.373 157.617
L101.641 157.617
L101.82 160.428
L101.909 160.428
L102.087 173.441
L108.158 173.441
L108.337 193.507
L139.853 193.507
L140.031 211.968
L147.531 211.968
L147.709 222.572
L165.565 222.572
L165.744 254.008
L219.133 254.008
L219.312 257.772
L222.08 257.772
L222.258 267.46
L262.345 267.46
L262.524 297.12
L291.093 297.12
L291.272 337.305
L433.941 337.305
L434.12 337.894
L518.311 337.894
L518.311 337.894" style="fill:none;stroke:#00bfbf;stroke-dasharray:5.000000,1.000000,2.000000,1.000000,5.000000,1.000000;stroke-dashoffset:0.0;"/>
   </g>
   <g id="line2d_5">
    <path clip-path="url(#p7ff5b81e1d)" d="
M72 105.077
L72.3571 105.077
L72.5357 108.389
L72.8928 108.389
L73.0714 110.098
L75.4819 110.098
L75.6605 110.454
L75.7498 110.699
L75.9283 111.688
L76.1069 112.087
L76.1962 112.226
L76.3747 112.728
L76.5533 113.045
L76.8211 113.045
L76.9997 114.722
L77.1782 114.722
L77.3568 114.967
L78.2496 114.967
L78.4282 118.776
L79.2317 118.776
L79.4102 119.089
L80.1245 119.089
L80.303 119.713
L80.3923 119.713
L80.6602 120.021
L80.7494 120.021
L80.928 120.777
L82.8922 120.777
L83.0707 122.461
L83.3386 122.461
L83.5171 122.988
L83.6957 122.988
L83.9635 124.224
L86.1955 124.224
L86.2848 124.602
L86.4634 126.069
L86.9098 126.069
L87.1776 126.904
L87.8026 126.904
L88.1597 127.764
L89.7667 127.764
L89.9453 128.334
L90.0346 128.334
L90.2131 128.487
L90.3917 128.487
L90.6595 133.912
L90.8381 134.266
L90.9274 134.266
L91.1059 134.665
L91.2845 134.665
L91.463 135.401
L93.3379 135.401
L93.5165 136.078
L93.8736 136.078
L94.0522 136.256
L94.2307 136.329
L94.4093 136.627
L94.6771 136.627
L94.8557 137.317
L95.8378 137.317
L96.0163 138.052
L97.0877 138.052
L97.2662 138.966
L97.5341 139.902
L97.7126 139.974
L97.8912 142.518
L98.3376 142.518
L98.784 143.154
L99.2304 143.154
L99.6768 143.832
L100.659 143.832
L100.837 144.313
L101.462 144.419
L101.641 145.084
L101.73 145.186
L101.909 145.907
L102.98 145.907
L103.159 147.119
L104.052 147.119
L104.23 147.463
L104.409 150.66
L106.551 150.66
L106.73 151.212
L108.248 151.212
L108.426 152.341
L108.516 152.341
L108.605 152.99
L108.783 156.986
L108.962 158.657
L109.14 158.838
L110.39 158.838
L110.569 164.172
L111.194 164.172
L111.283 164.386
L111.64 166.486
L111.73 166.486
L111.997 168.576
L112.176 168.576
L112.355 173.454
L112.533 176.436
L112.89 176.436
L113.069 184.053
L114.765 184.053
L114.944 184.464
L115.301 184.464
L115.479 187.161
L115.569 187.363
L115.747 188.219
L116.015 188.219
L116.194 188.823
L118.693 188.823
L118.872 189.18
L119.586 189.18
L119.676 189.959
L119.854 192.202
L122.622 192.202
L122.8 194.526
L123.068 194.526
L123.247 194.819
L125.925 194.876
L126.104 195.024
L126.639 195.134
L126.818 196.703
L129.228 196.703
L129.407 200.179
L129.496 200.179
L129.586 202.672
L129.764 209.284
L132.889 209.304
L133.068 209.915
L133.157 209.915
L133.335 210.142
L136.282 210.142
L136.46 211.863
L137.799 211.863
L137.978 214.678
L139.853 214.678
L140.031 216.462
L140.567 216.462
L140.746 217.508
L140.835 218.226
L141.013 222.644
L141.46 222.648
L141.638 223.184
L143.781 223.184
L143.96 223.677
L144.228 223.677
L144.406 227.293
L144.852 227.293
L145.031 230.4
L146.995 230.4
L147.263 230.749
L147.62 230.749
L147.888 231.875
L148.067 232.068
L148.156 232.068
L148.334 233.939
L148.87 233.939
L149.049 235.466
L150.656 235.466
L150.834 237.756
L151.37 237.756
L151.638 239.769
L151.727 239.769
L151.906 242.774
L154.941 242.774
L155.12 243.515
L155.209 243.515
L155.388 244.725
L155.477 244.725
L155.655 248.702
L157.977 248.702
L158.066 248.828
L158.244 250.083
L161.28 250.083
L161.459 252.829
L164.762 252.829
L165.119 261.31
L165.298 261.31
L165.476 264.644
L165.833 264.644
L166.012 265.19
L166.19 265.19
L166.369 265.696
L169.226 265.696
L169.404 265.862
L169.494 265.862
L169.672 266.932
L169.851 279.238
L170.029 279.238
L170.208 279.54
L175.922 279.54
L176.1 281.178
L176.279 281.511
L176.815 281.511
L176.993 281.931
L177.172 284.174
L179.672 284.174
L179.85 285.695
L180.475 285.695
L180.654 285.89
L182.707 285.89
L182.886 291.468
L184.225 291.468
L184.404 292.379
L187.082 292.379
L187.26 292.723
L187.796 292.723
L187.975 293.086
L189.939 293.176
L190.117 293.974
L190.207 293.974
L190.385 294.274
L191.1 294.274
L191.278 295.327
L193.332 295.327
L193.51 298.734
L194.492 298.734
L194.671 298.904
L197.349 298.904
L197.528 299.975
L200.742 300.033
L200.92 300.343
L201.724 300.351
L201.902 302.08
L202.081 302.744
L204.759 302.744
L204.938 302.98
L208.152 302.98
L208.331 303.694
L208.777 303.694
L208.866 304.002
L209.045 308.085
L211.991 308.085
L212.17 309.93
L214.759 309.93
L214.937 310.936
L215.919 310.997
L216.098 311.585
L216.812 311.6
L219.044 311.6
L219.223 311.73
L219.401 311.73
L219.58 312.688
L223.151 312.688
L223.33 313.076
L226.097 313.076
L226.276 314.015
L226.544 314.015
L226.722 314.234
L229.49 314.234
L229.668 318.235
L229.847 318.495
L230.472 318.495
L230.651 319.019
L236.454 319.019
L236.632 319.182
L236.811 319.182
L236.989 321.703
L241.186 321.737
L241.364 324.237
L241.543 324.316
L243.864 324.409
L244.043 328.287
L258.238 328.304
L258.417 328.629
L259.488 328.629
L259.667 329.184
L262.791 329.184
L262.97 329.739
L268.327 329.739
L268.505 331.273
L269.041 331.273
L269.22 331.5
L269.577 331.5
L269.755 332.274
L273.505 332.291
L273.684 332.526
L275.469 332.526
L275.648 332.838
L276.183 332.838
L276.362 333.411
L276.898 333.411
L277.076 334.719
L277.433 334.719
L277.612 336.978
L284.04 336.978
L284.219 337.506
L286.54 337.506
L286.718 338.549
L294.932 338.566
L295.111 339.106
L300.735 339.106
L300.914 339.281
L301.628 339.309
L301.807 339.91
L304.128 339.91
L304.307 340.363
L305.021 340.466
L305.199 341.297
L305.378 341.847
L309.217 341.847
L309.396 343.527
L320.556 343.527
L320.734 343.924
L323.145 343.924
L323.323 344.431
L323.502 344.431
L323.68 344.711
L330.019 344.711
L330.198 348.762
L340.019 348.834
L340.197 349.198
L350.821 349.289
L351 350.189
L354.75 350.217
L354.928 352.962
L359.124 352.962
L359.303 353.219
L362.339 353.219
L362.517 353.738
L375.731 353.738
L375.909 353.873
L404.032 353.93
L404.211 355.163
L408.496 355.163
L408.675 355.648
L425.549 355.665
L425.727 356.015
L426.799 356.015
L426.977 356.219
L432.78 356.219
L432.959 357.073
L440.369 357.123
L440.548 357.577
L447.155 357.577
L447.333 358.648
L448.315 358.648
L448.672 359.079
L461.172 359.163
L461.35 359.699
L464.921 359.699
L465.1 360.658
L469.921 360.658
L470.1 361.207
L475.992 361.207
L476.171 361.63
L490.277 361.63
L490.455 362.917
L497.062 362.917
L497.241 363.344
L508.49 363.403
L508.668 363.762
L518.311 363.762
L518.311 363.762" style="fill:none;stroke:#bf00bf;stroke-linecap:square;"/>
   </g>
   <g id="matplotlib.axis_1">
    <g id="xtick_1">
     <g id="line2d_6">
      <defs>
       <path d="
M0 0
L0 -4" id="mc7db9fdffb" style="stroke:#000000;stroke-width:0.5;"/>
      </defs>
      <g>
       <use style="stroke:#000000;stroke-width:0.5;" x="72.0" xlink:href="#mc7db9fdffb" y="388.8"/>
      </g>
     </g>
     <g id="line2d_7">
      <defs>
       <path d="
M0 0
L0 4" id="m5a7d422ac3" style="stroke:#000000;stroke-width:0.5;"/>
      </defs>
      <g>
       <use style="stroke:#000000;stroke-width:0.5;" x="72.0" xlink:href="#m5a7d422ac3" y="43.2"/>
      </g>
     </g>
     <g id="text_1">
      <!-- 0 -->
      <defs>
       <path d="
M56.9844 36.375
Q56.9844 16.7969 50.8594 7.64062
Q44.7344 -1.51562 31.8438 -1.51562
Q18.75 -1.51562 12.7188 7.76562
Q6.6875 17.0469 6.6875 36.2812
Q6.6875 55.6719 12.7812 64.9219
Q18.8906 74.1719 31.8438 74.1719
Q44.9219 74.1719 50.9531 64.7656
Q56.9844 55.375 56.9844 36.375
M44.1406 14.2031
Q45.8438 18.1719 46.4531 23.5156
Q47.0781 28.8594 47.0781 36.375
Q47.0781 43.7969 46.4531 49.2656
Q45.8438 54.7344 44.0938 58.5469
Q42.3906 62.3125 39.4219 64.2031
Q36.4688 66.1094 31.8438 66.1094
Q27.25 66.1094 24.2344 64.2031
Q21.2344 62.3125 19.4844 58.4531
Q17.8281 54.8281 17.2188 49.0156
Q16.6094 43.2188 16.6094 36.2812
Q16.6094 28.6562 17.1406 23.5312
Q17.6719 18.4062 19.4375 14.3594
Q21.0469 10.5469 24 8.54688
Q26.9531 6.54688 31.8438 6.54688
Q36.4219 6.54688 39.4531 8.45312
Q42.4844 10.3594 44.1406 14.2031" id="Verdana-30"/>
      </defs>
      <g transform="translate(68.9821875 401.918125)scale(0.12 -0.12)">
       <use xlink:href="#Verdana-30"/>
      </g>
     </g>
    </g>
    <g id="xtick_2">
     <g id="line2d_8">
      <g>
       <use style="stroke:#000000;stroke-width:0.5;" x="161.28" xlink:href="#mc7db9fdffb" y="388.8"/>
      </g>
     </g>
     <g id="line2d_9">
      <g>
       <use style="stroke:#000000;stroke-width:0.5;" x="161.28" xlink:href="#m5a7d422ac3" y="43.2"/>
      </g>
     </g>
     <g id="text_2">
      <!-- 1000 -->
      <defs>
       <path d="
M52.9375 0
L13.5781 0
L13.5781 7.42188
L28.7188 7.42188
L28.7188 56.1562
L13.5781 56.1562
L13.5781 62.7969
Q16.6562 62.7969 20.1719 63.2969
Q23.6875 63.8125 25.4844 64.7969
Q27.7344 66.0156 29.0312 67.8906
Q30.3281 69.7812 30.5156 72.9531
L38.0938 72.9531
L38.0938 7.42188
L52.9375 7.42188
z
" id="Verdana-31"/>
      </defs>
      <g transform="translate(147.2315625 401.918125)scale(0.12 -0.12)">
       <use xlink:href="#Verdana-31"/>
       <use x="63.57421875" xlink:href="#Verdana-30"/>
       <use x="127.1484375" xlink:href="#Verdana-30"/>
       <use x="190.72265625" xlink:href="#Verdana-30"/>
      </g>
     </g>
    </g>
    <g id="xtick_3">
     <g id="line2d_10">
      <g>
       <use style="stroke:#000000;stroke-width:0.5;" x="250.56" xlink:href="#mc7db9fdffb" y="388.8"/>
      </g>
     </g>
     <g id="line2d_11">
      <g>
       <use style="stroke:#000000;stroke-width:0.5;" x="250.56" xlink:href="#m5a7d422ac3" y="43.2"/>
      </g>
     </g>
     <g id="text_3">
      <!-- 2000 -->
      <defs>
       <path d="
M57.0781 0
L7.85938 0
L7.85938 10.2031
Q12.9844 14.5938 18.1406 18.9844
Q23.2969 23.3906 27.7344 27.7344
Q37.1094 36.8125 40.5781 42.1562
Q44.0469 47.5156 44.0469 53.7188
Q44.0469 59.375 40.3125 62.5625
Q36.5781 65.7656 29.8906 65.7656
Q25.4375 65.7656 20.2656 64.2031
Q15.0938 62.6406 10.1562 59.4219
L9.67188 59.4219
L9.67188 69.6719
Q13.1406 71.3906 18.9219 72.7969
Q24.7031 74.2188 30.125 74.2188
Q41.3125 74.2188 47.6562 68.8125
Q54 63.4219 54 54.2031
Q54 50.0469 52.9531 46.4531
Q51.9062 42.875 49.8594 39.6562
Q47.9531 36.625 45.3906 33.6875
Q42.8281 30.7656 39.1562 27.2031
Q33.9375 22.0781 28.3594 17.2656
Q22.7969 12.4531 17.9688 8.34375
L57.0781 8.34375
z
" id="Verdana-32"/>
      </defs>
      <g transform="translate(236.1684375 401.918125)scale(0.12 -0.12)">
       <use xlink:href="#Verdana-32"/>
       <use x="63.57421875" xlink:href="#Verdana-30"/>
       <use x="127.1484375" xlink:href="#Verdana-30"/>
       <use x="190.72265625" xlink:href="#Verdana-30"/>
      </g>
     </g>
    </g>
    <g id="xtick_4">
     <g id="line2d_12">
      <g>
       <use style="stroke:#000000;stroke-width:0.5;" x="339.84" xlink:href="#mc7db9fdffb" y="388.8"/>
      </g>
     </g>
     <g id="line2d_13">
      <g>
       <use style="stroke:#000000;stroke-width:0.5;" x="339.84" xlink:href="#m5a7d422ac3" y="43.2"/>
      </g>
     </g>
     <g id="text_4">
      <!-- 3000 -->
      <defs>
       <path d="
M50.6875 35.0156
Q53.0312 32.9062 54.5469 29.7344
Q56.0625 26.5625 56.0625 21.5312
Q56.0625 16.5469 54.25 12.3906
Q52.4375 8.25 49.1719 5.17188
Q45.5156 1.76562 40.5469 0.125
Q35.5938 -1.51562 29.6875 -1.51562
Q23.6406 -1.51562 17.7812 -0.0625
Q11.9219 1.375 8.15625 3.07812
L8.15625 13.2812
L8.89062 13.2812
Q13.0312 10.5469 18.6406 8.73438
Q24.2656 6.9375 29.5 6.9375
Q32.5625 6.9375 36.0312 7.95312
Q39.5 8.98438 41.6562 10.9844
Q43.8906 13.1406 44.9844 15.7188
Q46.0938 18.3125 46.0938 22.2656
Q46.0938 26.1719 44.8438 28.7344
Q43.6094 31.2969 41.4062 32.7656
Q39.2031 34.2812 36.0781 34.8438
Q32.9531 35.4062 29.3438 35.4062
L24.9531 35.4062
L24.9531 43.5
L28.375 43.5
Q35.7969 43.5 40.2031 46.5938
Q44.625 49.7031 44.625 55.6719
Q44.625 58.2969 43.5 60.2656
Q42.3906 62.25 40.375 63.5312
Q38.2812 64.7969 35.8906 65.2812
Q33.5 65.7656 30.4688 65.7656
Q25.8281 65.7656 20.5938 64.1094
Q15.375 62.4531 10.75 59.4219
L10.25 59.4219
L10.25 69.625
Q13.7188 71.3438 19.5 72.7812
Q25.2969 74.2188 30.7188 74.2188
Q36.0312 74.2188 40.0781 73.2344
Q44.1406 72.2656 47.4062 70.125
Q50.9219 67.7812 52.7344 64.4531
Q54.5469 61.1406 54.5469 56.6875
Q54.5469 50.6406 50.2656 46.125
Q46 41.6094 40.1875 40.4375
L40.1875 39.75
Q42.5312 39.3594 45.5469 38.1094
Q48.5781 36.8594 50.6875 35.0156" id="Verdana-33"/>
      </defs>
      <g transform="translate(325.46625 401.918125)scale(0.12 -0.12)">
       <use xlink:href="#Verdana-33"/>
       <use x="63.57421875" xlink:href="#Verdana-30"/>
       <use x="127.1484375" xlink:href="#Verdana-30"/>
       <use x="190.72265625" xlink:href="#Verdana-30"/>
      </g>
     </g>
    </g>
    <g id="xtick_5">
     <g id="line2d_14">
      <g>
       <use style="stroke:#000000;stroke-width:0.5;" x="429.12" xlink:href="#mc7db9fdffb" y="388.8"/>
      </g>
     </g>
     <g id="line2d_15">
      <g>
       <use style="stroke:#000000;stroke-width:0.5;" x="429.12" xlink:href="#m5a7d422ac3" y="43.2"/>
      </g>
     </g>
     <g id="text_5">
      <!-- 4000 -->
      <defs>
       <path d="
M58.7344 20.4531
L47.9531 20.4531
L47.9531 0
L38.5781 0
L38.5781 20.4531
L3.76562 20.4531
L3.76562 31.6875
L38.9688 72.7031
L47.9531 72.7031
L47.9531 28.2656
L58.7344 28.2656
z

M38.5781 28.2656
L38.5781 61.0781
L10.4062 28.2656
z
" id="Verdana-34"/>
      </defs>
      <g transform="translate(414.4828125 401.918125)scale(0.12 -0.12)">
       <use xlink:href="#Verdana-34"/>
       <use x="63.57421875" xlink:href="#Verdana-30"/>
       <use x="127.1484375" xlink:href="#Verdana-30"/>
       <use x="190.72265625" xlink:href="#Verdana-30"/>
      </g>
     </g>
    </g>
    <g id="xtick_6">
     <g id="line2d_16">
      <g>
       <use style="stroke:#000000;stroke-width:0.5;" x="518.4" xlink:href="#mc7db9fdffb" y="388.8"/>
      </g>
     </g>
     <g id="line2d_17">
      <g>
       <use style="stroke:#000000;stroke-width:0.5;" x="518.4" xlink:href="#m5a7d422ac3" y="43.2"/>
      </g>
     </g>
     <g id="text_6">
      <!-- 5000 -->
      <defs>
       <path d="
M56.5 23.0938
Q56.5 18.0156 54.6406 13.375
Q52.7812 8.73438 49.5625 5.5625
Q46.0469 2.15625 41.1875 0.3125
Q36.3281 -1.51562 29.9375 -1.51562
Q23.9688 -1.51562 18.4531 -0.265625
Q12.9375 0.984375 9.125 2.73438
L9.125 13.0312
L9.8125 13.0312
Q13.8125 10.5 19.1875 8.71875
Q24.5625 6.9375 29.7344 6.9375
Q33.2031 6.9375 36.4531 7.90625
Q39.7031 8.89062 42.2344 11.3281
Q44.3906 13.4219 45.4844 16.3438
Q46.5781 19.2812 46.5781 23.1406
Q46.5781 26.9062 45.2812 29.4844
Q44 32.0781 41.7031 33.6406
Q39.1562 35.5 35.5156 36.25
Q31.8906 37.0156 27.3906 37.0156
Q23.0938 37.0156 19.1094 36.4219
Q15.1406 35.8438 12.25 35.25
L12.25 72.7031
L56 72.7031
L56 64.1562
L21.6875 64.1562
L21.6875 44.8281
Q23.7812 45.0156 25.9688 45.1094
Q28.1719 45.2188 29.7812 45.2188
Q35.6875 45.2188 40.125 44.2188
Q44.5781 43.2188 48.2969 40.6719
Q52.2031 37.9844 54.3438 33.7344
Q56.5 29.5 56.5 23.0938" id="Verdana-35"/>
      </defs>
      <g transform="translate(504.084375 401.918125)scale(0.12 -0.12)">
       <use xlink:href="#Verdana-35"/>
       <use x="63.57421875" xlink:href="#Verdana-30"/>
       <use x="127.1484375" xlink:href="#Verdana-30"/>
       <use x="190.72265625" xlink:href="#Verdana-30"/>
      </g>
     </g>
    </g>
    <g id="text_7">
     <!-- Objective function exectuions -->
     <defs>
      <path d="
M57.0312 27.6875
Q57.0312 20.8438 55.0938 15.375
Q53.1719 9.90625 49.9062 6.20312
Q46.4375 2.34375 42.2812 0.40625
Q38.1406 -1.51562 33.1562 -1.51562
Q28.5156 -1.51562 25.0469 -0.40625
Q21.5781 0.6875 18.2188 2.54688
L17.625 0
L9.03125 0
L9.03125 75.9844
L18.2188 75.9844
L18.2188 48.8281
Q22.0781 52 26.4219 54.0312
Q30.7656 56.0625 36.1875 56.0625
Q45.8438 56.0625 51.4375 48.6406
Q57.0312 41.2188 57.0312 27.6875
M47.5625 27.4375
Q47.5625 37.2031 44.3281 42.25
Q41.1094 47.3125 33.9375 47.3125
Q29.9375 47.3125 25.8281 45.5781
Q21.7344 43.8438 18.2188 41.1094
L18.2188 9.85938
Q22.125 8.10938 24.9219 7.42188
Q27.7344 6.73438 31.2969 6.73438
Q38.9219 6.73438 43.2344 11.7344
Q47.5625 16.75 47.5625 27.4375" id="Verdana-62"/>
      <path d="
M56.2031 54.5469
L34.125 0
L24.9062 0
L2.98438 54.5469
L12.9375 54.5469
L29.8281 11.1406
L46.5781 54.5469
z
" id="Verdana-76"/>
      <path d="
M56.25 0
L44.6719 0
L29.2031 20.9531
L13.625 0
L2.9375 0
L24.2188 27.2031
L3.125 54.5469
L14.7031 54.5469
L30.0781 33.9375
L45.5156 54.5469
L56.25 54.5469
L34.8125 27.6875
z
" id="Verdana-78"/>
      <path d="
M54.6875 26.3125
L14.5 26.3125
Q14.5 21.2969 16.0156 17.5469
Q17.5312 13.8125 20.1719 11.4219
Q22.7031 9.07812 26.1875 7.90625
Q29.6875 6.73438 33.8906 6.73438
Q39.4531 6.73438 45.0938 8.95312
Q50.7344 11.1875 53.125 13.3281
L53.6094 13.3281
L53.6094 3.32812
Q48.9688 1.375 44.1406 0.046875
Q39.3125 -1.26562 33.9844 -1.26562
Q20.4062 -1.26562 12.7812 6.07812
Q5.17188 13.4219 5.17188 26.9531
Q5.17188 40.3281 12.4688 48.1875
Q19.7812 56.0625 31.6875 56.0625
Q42.7188 56.0625 48.7031 49.6094
Q54.6875 43.1719 54.6875 31.2969
z

M45.75 33.3438
Q45.7031 40.5781 42.1094 44.5312
Q38.5312 48.4844 31.2031 48.4844
Q23.8281 48.4844 19.4531 44.1406
Q15.0938 39.7969 14.5 33.3438
z
" id="Verdana-65"/>
      <path d="
M49.3594 3.42188
Q44.7812 1.21875 40.6562 0
Q36.5312 -1.21875 31.8906 -1.21875
Q25.9844 -1.21875 21.0469 0.515625
Q16.1094 2.25 12.5938 5.76562
Q9.03125 9.28125 7.07812 14.6406
Q5.125 20.0156 5.125 27.2031
Q5.125 40.5781 12.4688 48.1875
Q19.8281 55.8125 31.8906 55.8125
Q36.5781 55.8125 41.0938 54.4844
Q45.6094 53.1719 49.3594 51.2656
L49.3594 41.0625
L48.875 41.0625
Q44.6719 44.3438 40.2031 46.0938
Q35.75 47.8594 31.5 47.8594
Q23.6875 47.8594 19.1719 42.6094
Q14.6562 37.3594 14.6562 27.2031
Q14.6562 17.3281 19.0625 12.0312
Q23.4844 6.73438 31.5 6.73438
Q34.2812 6.73438 37.1562 7.46875
Q40.0469 8.20312 42.3281 9.375
Q44.3438 10.4062 46.0938 11.5469
Q47.8594 12.7031 48.875 13.5312
L49.3594 13.5312
z
" id="Verdana-63"/>
      <path d="
M26.0312 63.6719
L15.6719 63.6719
L15.6719 73.1875
L26.0312 73.1875
z

M25.4375 -1.3125
Q25.4375 -10.8906 20.5469 -15.7656
Q15.6719 -20.6562 7.46875 -20.6562
Q5.51562 -20.6562 2.3125 -20.2656
Q-0.875 -19.875 -3.03125 -19.2812
L-3.03125 -10.5469
L-2.54688 -10.5469
Q-1.17188 -11.0781 1.14062 -11.7656
Q3.46875 -12.4531 5.67188 -12.4531
Q9.1875 -12.4531 11.3281 -11.4688
Q13.4844 -10.5 14.5469 -8.54688
Q15.625 -6.59375 15.9375 -3.82812
Q16.2656 -1.07812 16.2656 2.875
L16.2656 46.8281
L4.89062 46.8281
L4.89062 54.5469
L25.4375 54.5469
z
" id="Verdana-6a"/>
      <path d="
M18.8906 63.6719
L8.54688 63.6719
L8.54688 73.1875
L18.8906 73.1875
z

M18.3125 0
L9.125 0
L9.125 54.5469
L18.3125 54.5469
z
" id="Verdana-69"/>
      <path d="
M54.6406 0
L45.4531 0
L45.4531 31.0625
Q45.4531 34.8125 45.0156 38.1094
Q44.5781 41.4062 43.4062 43.2656
Q42.1875 45.3125 39.8906 46.3125
Q37.5938 47.3125 33.9375 47.3125
Q30.1719 47.3125 26.0625 45.4531
Q21.9688 43.6094 18.2188 40.7188
L18.2188 0
L9.03125 0
L9.03125 54.5469
L18.2188 54.5469
L18.2188 48.4844
Q22.5156 52.0469 27.0938 54.0469
Q31.6875 56.0625 36.5312 56.0625
Q45.3594 56.0625 50 50.7344
Q54.6406 45.4062 54.6406 35.4062
z
" id="Verdana-6e"/>
      <path d="
M48 15.7188
Q48 8.25 41.8125 3.46875
Q35.6406 -1.3125 24.9531 -1.3125
Q18.8906 -1.3125 13.8438 0.125
Q8.79688 1.5625 5.375 3.26562
L5.375 13.5781
L5.85938 13.5781
Q10.2031 10.2969 15.5156 8.375
Q20.8438 6.45312 25.7344 6.45312
Q31.7812 6.45312 35.2031 8.40625
Q38.625 10.3594 38.625 14.5469
Q38.625 17.7812 36.7656 19.4375
Q34.9062 21.0938 29.6406 22.2656
Q27.6875 22.7031 24.5312 23.2812
Q21.3906 23.875 18.7969 24.5625
Q11.625 26.4688 8.60938 30.1562
Q5.60938 33.8438 5.60938 39.2031
Q5.60938 42.5781 7 45.5469
Q8.40625 48.5312 11.2344 50.875
Q13.9688 53.1719 18.1875 54.5156
Q22.4062 55.8594 27.6406 55.8594
Q32.5156 55.8594 37.5156 54.6562
Q42.5312 53.4688 45.8438 51.7656
L45.8438 41.9375
L45.3594 41.9375
Q41.8438 44.5312 36.8125 46.3125
Q31.7812 48.0938 26.9531 48.0938
Q21.9219 48.0938 18.4531 46.1562
Q14.9844 44.2344 14.9844 40.4375
Q14.9844 37.0625 17.0938 35.3594
Q19.1406 33.6406 23.7344 32.5625
Q26.2656 31.9844 29.4062 31.3906
Q32.5625 30.8125 34.6719 30.3281
Q41.0625 28.8594 44.5312 25.2969
Q48 21.6875 48 15.7188" id="Verdana-73"/>
      <path d="
M38.375 67.0938
L37.8906 67.0938
Q36.375 67.5312 33.9375 67.9844
Q31.5 68.4531 29.6406 68.4531
Q23.7344 68.4531 21.0625 65.8438
Q18.4062 63.2344 18.4062 56.3906
L18.4062 54.5469
L34.9688 54.5469
L34.9688 46.8281
L18.7031 46.8281
L18.7031 0
L9.51562 0
L9.51562 46.8281
L3.32812 46.8281
L3.32812 54.5469
L9.51562 54.5469
L9.51562 56.3438
Q9.51562 66.0625 14.3438 71.2656
Q19.1875 76.4688 28.3281 76.4688
Q31.3906 76.4688 33.8594 76.1719
Q36.3281 75.875 38.375 75.4844
z
" id="Verdana-66"/>
      <path id="Verdana-20"/>
      <path d="
M63.9688 64.3594
Q68.4062 59.4688 70.7656 52.3906
Q73.1406 45.3125 73.1406 36.3281
Q73.1406 27.3438 70.7188 20.2344
Q68.3125 13.1406 63.9688 8.40625
Q59.4688 3.46875 53.3438 0.96875
Q47.2188 -1.51562 39.3594 -1.51562
Q31.6875 -1.51562 25.4062 1.01562
Q19.1406 3.5625 14.75 8.40625
Q10.3594 13.2344 7.98438 20.2656
Q5.60938 27.2969 5.60938 36.3281
Q5.60938 45.2188 7.95312 52.2656
Q10.2969 59.3281 14.7969 64.3594
Q19.0938 69.1406 25.4688 71.6719
Q31.8438 74.2188 39.3594 74.2188
Q47.1719 74.2188 53.3906 71.6562
Q59.625 69.0938 63.9688 64.3594
M63.0938 36.3281
Q63.0938 50.4844 56.7344 58.1719
Q50.3906 65.875 39.4062 65.875
Q28.3281 65.875 22 58.1719
Q15.6719 50.4844 15.6719 36.3281
Q15.6719 22.0156 22.1094 14.4219
Q28.5625 6.84375 39.4062 6.84375
Q50.25 6.84375 56.6719 14.4219
Q63.0938 22.0156 63.0938 36.3281" id="Verdana-4f"/>
      <path d="
M55.5156 27.25
Q55.5156 13.9219 48.6719 6.20312
Q41.8438 -1.51562 30.375 -1.51562
Q18.7969 -1.51562 11.9844 6.20312
Q5.17188 13.9219 5.17188 27.25
Q5.17188 40.5781 11.9844 48.3125
Q18.7969 56.0625 30.375 56.0625
Q41.8438 56.0625 48.6719 48.3125
Q55.5156 40.5781 55.5156 27.25
M46.0469 27.25
Q46.0469 37.8438 41.8906 42.9844
Q37.75 48.1406 30.375 48.1406
Q22.9062 48.1406 18.7812 42.9844
Q14.6562 37.8438 14.6562 27.25
Q14.6562 17 18.7969 11.6875
Q22.9531 6.39062 30.375 6.39062
Q37.7031 6.39062 41.875 11.6406
Q46.0469 16.8906 46.0469 27.25" id="Verdana-6f"/>
      <path d="
M37.3594 0.484375
Q34.7656 -0.203125 31.7031 -0.640625
Q28.6562 -1.07812 26.2656 -1.07812
Q17.9219 -1.07812 13.5781 3.40625
Q9.23438 7.90625 9.23438 17.8281
L9.23438 46.8281
L3.03125 46.8281
L3.03125 54.5469
L9.23438 54.5469
L9.23438 70.2188
L18.4062 70.2188
L18.4062 54.5469
L37.3594 54.5469
L37.3594 46.8281
L18.4062 46.8281
L18.4062 21.9688
Q18.4062 17.6719 18.5938 15.25
Q18.7969 12.8438 19.9688 10.75
Q21.0469 8.79688 22.9219 7.89062
Q24.8125 6.98438 28.6562 6.98438
Q30.9062 6.98438 33.3438 7.64062
Q35.7969 8.29688 36.8594 8.73438
L37.3594 8.73438
z
" id="Verdana-74"/>
      <path d="
M54.25 0
L45.0625 0
L45.0625 6.0625
Q40.4375 2.39062 36.1875 0.4375
Q31.9375 -1.51562 26.8125 -1.51562
Q18.2188 -1.51562 13.4219 3.73438
Q8.64062 8.98438 8.64062 19.1406
L8.64062 54.5469
L17.8281 54.5469
L17.8281 23.4844
Q17.8281 19.3438 18.2188 16.375
Q18.6094 13.4219 19.875 11.3281
Q21.1875 9.1875 23.2812 8.20312
Q25.3906 7.23438 29.3906 7.23438
Q32.9531 7.23438 37.1719 9.07812
Q41.4062 10.9375 45.0625 13.8125
L45.0625 54.5469
L54.25 54.5469
z
" id="Verdana-75"/>
     </defs>
     <g transform="translate(206.5078125 418.509375)scale(0.12 -0.12)">
      <use xlink:href="#Verdana-4f"/>
      <use x="78.7109375" xlink:href="#Verdana-62"/>
      <use x="141.015625" xlink:href="#Verdana-6a"/>
      <use x="175.439453125" xlink:href="#Verdana-65"/>
      <use x="235.009765625" xlink:href="#Verdana-63"/>
      <use x="287.109375" xlink:href="#Verdana-74"/>
      <use x="326.513671875" xlink:href="#Verdana-69"/>
      <use x="353.955078125" xlink:href="#Verdana-76"/>
      <use x="412.259765625" xlink:href="#Verdana-65"/>
      <use x="471.830078125" xlink:href="#Verdana-20"/>
      <use x="506.986328125" xlink:href="#Verdana-66"/>
      <use x="542.142578125" xlink:href="#Verdana-75"/>
      <use x="605.423828125" xlink:href="#Verdana-6e"/>
      <use x="668.705078125" xlink:href="#Verdana-63"/>
      <use x="720.8046875" xlink:href="#Verdana-74"/>
      <use x="760.208984375" xlink:href="#Verdana-69"/>
      <use x="787.650390625" xlink:href="#Verdana-6f"/>
      <use x="848.34375" xlink:href="#Verdana-6e"/>
      <use x="911.625" xlink:href="#Verdana-20"/>
      <use x="946.78125" xlink:href="#Verdana-65"/>
      <use x="1006.3515625" xlink:href="#Verdana-78"/>
      <use x="1064.40625" xlink:href="#Verdana-65"/>
      <use x="1123.9765625" xlink:href="#Verdana-63"/>
      <use x="1176.076171875" xlink:href="#Verdana-74"/>
      <use x="1215.48046875" xlink:href="#Verdana-75"/>
      <use x="1278.76171875" xlink:href="#Verdana-69"/>
      <use x="1306.203125" xlink:href="#Verdana-6f"/>
      <use x="1366.896484375" xlink:href="#Verdana-6e"/>
      <use x="1430.177734375" xlink:href="#Verdana-73"/>
     </g>
    </g>
   </g>
   <g id="matplotlib.axis_2">
    <g id="ytick_1">
     <g id="line2d_18">
      <defs>
       <path d="
M0 0
L4 0" id="md7965d1ba0" style="stroke:#000000;stroke-width:0.5;"/>
      </defs>
      <g>
       <use style="stroke:#000000;stroke-width:0.5;" x="72.0" xlink:href="#md7965d1ba0" y="388.8"/>
      </g>
     </g>
     <g id="line2d_19">
      <defs>
       <path d="
M0 0
L-4 0" id="md9a1c1a7cd" style="stroke:#000000;stroke-width:0.5;"/>
      </defs>
      <g>
       <use style="stroke:#000000;stroke-width:0.5;" x="518.4" xlink:href="#md9a1c1a7cd" y="388.8"/>
      </g>
     </g>
     <g id="text_8">
      <!-- 0 -->
      <g transform="translate(61.964375 392.1515625)scale(0.12 -0.12)">
       <use xlink:href="#Verdana-30"/>
      </g>
     </g>
    </g>
    <g id="ytick_2">
     <g id="line2d_20">
      <g>
       <use style="stroke:#000000;stroke-width:0.5;" x="72.0" xlink:href="#md7965d1ba0" y="319.68"/>
      </g>
     </g>
     <g id="line2d_21">
      <g>
       <use style="stroke:#000000;stroke-width:0.5;" x="518.4" xlink:href="#md9a1c1a7cd" y="319.68"/>
      </g>
     </g>
     <g id="text_9">
      <!-- 5 -->
      <g transform="translate(62.315 323.0315625)scale(0.12 -0.12)">
       <use xlink:href="#Verdana-35"/>
      </g>
     </g>
    </g>
    <g id="ytick_3">
     <g id="line2d_22">
      <g>
       <use style="stroke:#000000;stroke-width:0.5;" x="72.0" xlink:href="#md7965d1ba0" y="250.56"/>
      </g>
     </g>
     <g id="line2d_23">
      <g>
       <use style="stroke:#000000;stroke-width:0.5;" x="518.4" xlink:href="#md9a1c1a7cd" y="250.56"/>
      </g>
     </g>
     <g id="text_10">
      <!-- 10 -->
      <g transform="translate(55.161875 253.9115625)scale(0.12 -0.12)">
       <use xlink:href="#Verdana-31"/>
       <use x="63.57421875" xlink:href="#Verdana-30"/>
      </g>
     </g>
    </g>
    <g id="ytick_4">
     <g id="line2d_24">
      <g>
       <use style="stroke:#000000;stroke-width:0.5;" x="72.0" xlink:href="#md7965d1ba0" y="181.44"/>
      </g>
     </g>
     <g id="line2d_25">
      <g>
       <use style="stroke:#000000;stroke-width:0.5;" x="518.4" xlink:href="#md9a1c1a7cd" y="181.44"/>
      </g>
     </g>
     <g id="text_11">
      <!-- 15 -->
      <g transform="translate(55.22 184.7915625)scale(0.12 -0.12)">
       <use xlink:href="#Verdana-31"/>
       <use x="63.57421875" xlink:href="#Verdana-35"/>
      </g>
     </g>
    </g>
    <g id="ytick_5">
     <g id="line2d_26">
      <g>
       <use style="stroke:#000000;stroke-width:0.5;" x="72.0" xlink:href="#md7965d1ba0" y="112.32"/>
      </g>
     </g>
     <g id="line2d_27">
      <g>
       <use style="stroke:#000000;stroke-width:0.5;" x="518.4" xlink:href="#md9a1c1a7cd" y="112.32"/>
      </g>
     </g>
     <g id="text_12">
      <!-- 20 -->
      <g transform="translate(54.475625 115.6715625)scale(0.12 -0.12)">
       <use xlink:href="#Verdana-32"/>
       <use x="63.57421875" xlink:href="#Verdana-30"/>
      </g>
     </g>
    </g>
    <g id="ytick_6">
     <g id="line2d_28">
      <g>
       <use style="stroke:#000000;stroke-width:0.5;" x="72.0" xlink:href="#md7965d1ba0" y="43.2"/>
      </g>
     </g>
     <g id="line2d_29">
      <g>
       <use style="stroke:#000000;stroke-width:0.5;" x="518.4" xlink:href="#md9a1c1a7cd" y="43.2"/>
      </g>
     </g>
     <g id="text_13">
      <!-- 25 -->
      <g transform="translate(54.53375 46.5515625)scale(0.12 -0.12)">
       <use xlink:href="#Verdana-32"/>
       <use x="63.57421875" xlink:href="#Verdana-35"/>
      </g>
     </g>
    </g>
    <g id="text_14">
     <!-- Absolute Min -->
     <defs>
      <path d="
M18.3125 0
L9.125 0
L9.125 75.9844
L18.3125 75.9844
z
" id="Verdana-6c"/>
      <path d="
M74.5156 0
L64.8438 0
L64.8438 62.6406
L44.625 20.0156
L38.875 20.0156
L18.7969 62.6406
L18.7969 0
L9.76562 0
L9.76562 72.7031
L22.9531 72.7031
L42.3281 32.2344
L61.0781 72.7031
L74.5156 72.7031
z
" id="Verdana-4d"/>
      <path d="
M67.0938 0
L56.7812 0
L49.6562 20.2656
L18.2188 20.2656
L11.0781 0
L1.26562 0
L27.7344 72.7031
L40.625 72.7031
z

M46.6875 28.5625
L33.9375 64.2656
L21.1406 28.5625
z
" id="Verdana-41"/>
     </defs>
     <g transform="translate(47.060625 254.0803125)rotate(-90.0)scale(0.12 -0.12)">
      <use xlink:href="#Verdana-41"/>
      <use x="68.359375" xlink:href="#Verdana-62"/>
      <use x="130.6640625" xlink:href="#Verdana-73"/>
      <use x="182.763671875" xlink:href="#Verdana-6f"/>
      <use x="243.45703125" xlink:href="#Verdana-6c"/>
      <use x="270.8984375" xlink:href="#Verdana-75"/>
      <use x="334.1796875" xlink:href="#Verdana-74"/>
      <use x="373.583984375" xlink:href="#Verdana-65"/>
      <use x="433.154296875" xlink:href="#Verdana-20"/>
      <use x="468.310546875" xlink:href="#Verdana-4d"/>
      <use x="552.587890625" xlink:href="#Verdana-69"/>
      <use x="580.029296875" xlink:href="#Verdana-6e"/>
     </g>
    </g>
   </g>
   <g id="patch_3">
    <path d="
M72 43.2
L518.4 43.2" style="fill:none;stroke:#000000;"/>
   </g>
   <g id="patch_4">
    <path d="
M72 388.8
L72 43.2" style="fill:none;stroke:#000000;"/>
   </g>
   <g id="patch_5">
    <path d="
M518.4 388.8
L518.4 43.2" style="fill:none;stroke:#000000;"/>
   </g>
   <g id="patch_6">
    <path d="
M72 388.8
L518.4 388.8" style="fill:none;stroke:#000000;"/>
   </g>
   <g id="text_15">
    <!-- Ackley Absolute Min -->
    <defs>
     <path d="
M58.5469 0
L46.4375 0
L24.5625 23.875
L18.6094 18.2188
L18.6094 0
L9.42188 0
L9.42188 75.9844
L18.6094 75.9844
L18.6094 27.25
L45.125 54.5469
L56.6875 54.5469
L31.3438 29.3438
z
" id="Verdana-6b"/>
     <path d="
M56.2031 54.5469
L24.3594 -20.125
L14.5469 -20.125
L24.7031 2.64062
L2.98438 54.5469
L12.9375 54.5469
L29.6875 14.1094
L46.5781 54.5469
z
" id="Verdana-79"/>
    </defs>
    <g transform="translate(223.511625 38.2)scale(0.144 -0.144)">
     <use xlink:href="#Verdana-41"/>
     <use x="68.359375" xlink:href="#Verdana-63"/>
     <use x="120.458984375" xlink:href="#Verdana-6b"/>
     <use x="179.638671875" xlink:href="#Verdana-6c"/>
     <use x="207.080078125" xlink:href="#Verdana-65"/>
     <use x="266.650390625" xlink:href="#Verdana-79"/>
     <use x="325.830078125" xlink:href="#Verdana-20"/>
     <use x="360.986328125" xlink:href="#Verdana-41"/>
     <use x="429.345703125" xlink:href="#Verdana-62"/>
     <use x="491.650390625" xlink:href="#Verdana-73"/>
     <use x="543.75" xlink:href="#Verdana-6f"/>
     <use x="604.443359375" xlink:href="#Verdana-6c"/>
     <use x="631.884765625" xlink:href="#Verdana-75"/>
     <use x="695.166015625" xlink:href="#Verdana-74"/>
     <use x="734.5703125" xlink:href="#Verdana-65"/>
     <use x="794.140625" xlink:href="#Verdana-20"/>
     <use x="829.296875" xlink:href="#Verdana-4d"/>
     <use x="913.57421875" xlink:href="#Verdana-69"/>
     <use x="941.015625" xlink:href="#Verdana-6e"/>
    </g>
   </g>
   <g id="legend_1">
    <g id="patch_7">
     <path d="
M407.18 270.759
L511.2 270.759
L511.2 161.241
L407.18 161.241
L407.18 270.759
z
" style="fill:#ffffff;stroke:#000000;"/>
    </g>
    <g id="line2d_30">
     <path d="
M417.26 172.902
L437.42 172.902" style="fill:none;stroke:#0000ff;stroke-dasharray:6.000000,2.000000;stroke-dashoffset:0.0;"/>
    </g>
    <g id="line2d_31"/>
    <g id="text_16">
     <!-- AMPGO -->
     <defs>
      <path d="
M57.3281 50.7344
Q57.3281 45.9062 55.6406 41.7656
Q53.9531 37.6406 50.9219 34.625
Q47.1719 30.8594 42.0469 28.9688
Q36.9219 27.0938 29.1094 27.0938
L19.4375 27.0938
L19.4375 0
L9.76562 0
L9.76562 72.7031
L29.5 72.7031
Q36.0312 72.7031 40.5781 71.6094
Q45.125 70.5156 48.6406 68.1719
Q52.7812 65.375 55.0469 61.2188
Q57.3281 57.0781 57.3281 50.7344
M47.2656 50.4844
Q47.2656 54.25 45.9375 57.0312
Q44.625 59.8125 41.9375 61.5781
Q39.5938 63.0938 36.5938 63.75
Q33.5938 64.4062 29 64.4062
L19.4375 64.4062
L19.4375 35.3594
L27.5938 35.3594
Q33.4531 35.3594 37.1094 36.4062
Q40.7656 37.4531 43.0625 39.75
Q45.3594 42.0938 46.3125 44.6719
Q47.2656 47.2656 47.2656 50.4844" id="Verdana-50"/>
      <path d="
M70.4062 5.375
Q64.4531 2.64062 57.3906 0.609375
Q50.3438 -1.42188 43.75 -1.42188
Q35.25 -1.42188 28.1719 0.921875
Q21.0938 3.26562 16.1094 7.95312
Q11.0781 12.7031 8.34375 19.7969
Q5.60938 26.9062 5.60938 36.4219
Q5.60938 53.8594 15.7969 63.9375
Q25.9844 74.0312 43.75 74.0312
Q49.9531 74.0312 56.4219 72.5312
Q62.8906 71.0469 70.3594 67.4844
L70.3594 56
L69.4844 56
Q67.9688 57.1719 65.0781 59.0781
Q62.2031 60.9844 59.4219 62.25
Q56.0625 63.7656 51.7812 64.7656
Q47.5156 65.7656 42.0938 65.7656
Q29.8906 65.7656 22.7812 57.9219
Q15.6719 50.0938 15.6719 36.7188
Q15.6719 22.6094 23.0938 14.7656
Q30.5156 6.9375 43.3125 6.9375
Q48 6.9375 52.6562 7.85938
Q57.3281 8.79688 60.8438 10.25
L60.8438 28.0781
L41.3594 28.0781
L41.3594 36.5781
L70.4062 36.5781
z
" id="Verdana-47"/>
     </defs>
     <g transform="translate(453.26025 177.942375)scale(0.144 -0.144)">
      <use xlink:href="#Verdana-41"/>
      <use x="68.359375" xlink:href="#Verdana-4d"/>
      <use x="152.63671875" xlink:href="#Verdana-50"/>
      <use x="212.939453125" xlink:href="#Verdana-47"/>
      <use x="290.478515625" xlink:href="#Verdana-4f"/>
     </g>
    </g>
    <g id="line2d_32">
     <path d="
M417.26 193.942
L437.42 193.942" style="fill:none;stroke:#008000;stroke-dasharray:1.000000,1.000000;stroke-dashoffset:0.0;"/>
    </g>
    <g id="line2d_33"/>
    <g id="text_17">
     <!-- Anneal -->
     <defs>
      <path d="
M51.4219 0
L42.2812 0
L42.2812 5.8125
Q41.0625 4.98438 38.9844 3.48438
Q36.9219 2 34.9688 1.125
Q32.6719 0 29.6875 -0.75
Q26.7031 -1.51562 22.7031 -1.51562
Q15.3281 -1.51562 10.2031 3.35938
Q5.07812 8.25 5.07812 15.8281
Q5.07812 22.0156 7.73438 25.8438
Q10.4062 29.6875 15.3281 31.8906
Q20.3125 34.0781 27.2969 34.8594
Q34.2812 35.6406 42.2812 36.0312
L42.2812 37.4531
Q42.2812 40.5781 41.1875 42.625
Q40.0938 44.6719 38.0312 45.8438
Q36.0781 46.9688 33.3438 47.3594
Q30.6094 47.75 27.6406 47.75
Q24.0312 47.75 19.5781 46.7969
Q15.1406 45.8438 10.4062 44.0469
L9.90625 44.0469
L9.90625 53.375
Q12.5938 54.1094 17.6719 54.9844
Q22.75 55.8594 27.6875 55.8594
Q33.4531 55.8594 37.7188 54.9062
Q42 53.9531 45.125 51.6562
Q48.1875 49.4219 49.7969 45.8438
Q51.4219 42.2812 51.4219 37.0156
z

M42.2812 13.4219
L42.2812 28.6094
Q38.0938 28.375 32.3906 27.875
Q26.7031 27.3906 23.3906 26.4688
Q19.4375 25.3438 16.9844 22.9688
Q14.5469 20.6094 14.5469 16.4531
Q14.5469 11.7656 17.375 9.39062
Q20.2188 7.03125 26.0312 7.03125
Q30.8594 7.03125 34.8594 8.90625
Q38.875 10.7969 42.2812 13.4219" id="Verdana-61"/>
     </defs>
     <g transform="translate(453.26025 198.982125)scale(0.144 -0.144)">
      <use xlink:href="#Verdana-41"/>
      <use x="68.359375" xlink:href="#Verdana-6e"/>
      <use x="131.640625" xlink:href="#Verdana-6e"/>
      <use x="194.921875" xlink:href="#Verdana-65"/>
      <use x="254.4921875" xlink:href="#Verdana-61"/>
      <use x="314.55078125" xlink:href="#Verdana-6c"/>
     </g>
    </g>
    <g id="line2d_34">
     <path d="
M417.26 214.982
L437.42 214.982" style="fill:none;stroke:#ff0000;stroke-dasharray:3.000000,6.000000;stroke-dashoffset:0.0;"/>
    </g>
    <g id="line2d_35"/>
    <g id="text_18">
     <!-- BSA -->
     <defs>
      <path d="
M64.5938 22.3594
Q64.5938 16.9375 62.5469 12.7812
Q60.5 8.64062 57.0312 5.95312
Q52.9375 2.73438 48.0156 1.35938
Q43.1094 0 35.5469 0
L9.76562 0
L9.76562 72.7031
L31.2969 72.7031
Q39.2656 72.7031 43.2188 72.1094
Q47.1719 71.5312 50.7812 69.6719
Q54.7812 67.5781 56.5938 64.2812
Q58.4062 60.9844 58.4062 56.3906
Q58.4062 51.2188 55.7656 47.5781
Q53.125 43.9531 48.7344 41.75
L48.7344 41.3594
Q56.1094 39.8438 60.3438 34.8906
Q64.5938 29.9375 64.5938 22.3594
M48.3438 55.125
Q48.3438 57.7656 47.4531 59.5625
Q46.5781 61.375 44.625 62.5
Q42.3281 63.8125 39.0625 64.125
Q35.7969 64.4531 30.9531 64.4531
L19.4375 64.4531
L19.4375 43.4531
L31.9375 43.4531
Q36.4688 43.4531 39.1562 43.9219
Q41.8438 44.3906 44.1406 45.8438
Q46.4375 47.3125 47.3906 49.625
Q48.3438 51.9531 48.3438 55.125
M54.5469 21.9688
Q54.5469 26.375 53.2188 28.9531
Q51.9062 31.5469 48.4375 33.3438
Q46.0938 34.5781 42.75 34.9375
Q39.4062 35.2969 34.625 35.2969
L19.4375 35.2969
L19.4375 8.25
L32.2344 8.25
Q38.5781 8.25 42.625 8.90625
Q46.6875 9.57812 49.2656 11.3281
Q52 13.2344 53.2656 15.6719
Q54.5469 18.1094 54.5469 21.9688" id="Verdana-42"/>
      <path d="
M62.5938 20.75
Q62.5938 16.5 60.6094 12.3438
Q58.6406 8.20312 55.0781 5.32812
Q51.1719 2.20312 45.9688 0.4375
Q40.7656 -1.3125 33.4531 -1.3125
Q25.5938 -1.3125 19.3125 0.140625
Q13.0312 1.60938 6.54688 4.5
L6.54688 16.6094
L7.23438 16.6094
Q12.75 12.0156 19.9688 9.51562
Q27.2031 7.03125 33.5469 7.03125
Q42.5312 7.03125 47.5312 10.3906
Q52.5469 13.7656 52.5469 19.3906
Q52.5469 24.2188 50.1719 26.5156
Q47.7969 28.8125 42.9688 30.0781
Q39.3125 31.0625 35.0312 31.6875
Q30.7656 32.3281 25.9844 33.2969
Q16.3125 35.3594 11.6406 40.3125
Q6.98438 45.2656 6.98438 53.2188
Q6.98438 62.3594 14.6875 68.1875
Q22.4062 74.0312 34.2812 74.0312
Q41.9375 74.0312 48.3281 72.5625
Q54.7344 71.0938 59.6719 68.9531
L59.6719 57.5156
L58.9844 57.5156
Q54.8281 61.0312 48.0625 63.3438
Q41.3125 65.6719 34.2344 65.6719
Q26.4688 65.6719 21.75 62.4531
Q17.0469 59.2344 17.0469 54.1562
Q17.0469 49.6094 19.3906 47.0156
Q21.7344 44.4375 27.6406 43.0625
Q30.7656 42.3906 36.5156 41.4062
Q42.2812 40.4375 46.2969 39.4062
Q54.3906 37.25 58.4844 32.9062
Q62.5938 28.5625 62.5938 20.75" id="Verdana-53"/>
     </defs>
     <g transform="translate(453.26025 220.021875)scale(0.144 -0.144)">
      <use xlink:href="#Verdana-42"/>
      <use x="68.5546875" xlink:href="#Verdana-53"/>
      <use x="135.9140625" xlink:href="#Verdana-41"/>
     </g>
    </g>
    <g id="line2d_36">
     <path d="
M417.26 236.022
L437.42 236.022" style="fill:none;stroke:#00bfbf;stroke-dasharray:5.000000,1.000000,2.000000,1.000000,5.000000,1.000000;stroke-dashoffset:0.0;"/>
    </g>
    <g id="line2d_37"/>
    <g id="text_19">
     <!-- Cuckoo -->
     <defs>
      <path d="
M65.9219 5.28125
Q63.2344 4.10938 61.0625 3.07812
Q58.8906 2.04688 55.375 0.921875
Q52.3906 0 48.8906 -0.65625
Q45.4062 -1.3125 41.2188 -1.3125
Q33.2969 -1.3125 26.8281 0.90625
Q20.3594 3.125 15.5781 7.85938
Q10.8906 12.5 8.25 19.6562
Q5.60938 26.8125 5.60938 36.2812
Q5.60938 45.2656 8.14062 52.3438
Q10.6875 59.4219 15.4844 64.3125
Q20.125 69.0469 26.6875 71.5312
Q33.25 74.0312 41.2656 74.0312
Q47.125 74.0312 52.9531 72.6094
Q58.7969 71.1875 65.9219 67.625
L65.9219 56.1562
L65.1875 56.1562
Q59.1875 61.1875 53.2656 63.4688
Q47.3594 65.7656 40.625 65.7656
Q35.1094 65.7656 30.6875 63.9844
Q26.2656 62.2031 22.7969 58.4531
Q19.4375 54.7812 17.5469 49.1875
Q15.6719 43.6094 15.6719 36.2812
Q15.6719 28.6094 17.75 23.0938
Q19.8281 17.5781 23.0938 14.1094
Q26.5156 10.5 31.0781 8.76562
Q35.6406 7.03125 40.7188 7.03125
Q47.7031 7.03125 53.7969 9.42188
Q59.9062 11.8125 65.2344 16.6094
L65.9219 16.6094
z
" id="Verdana-43"/>
     </defs>
     <g transform="translate(453.26025 241.061625)scale(0.144 -0.144)">
      <use xlink:href="#Verdana-43"/>
      <use x="69.82421875" xlink:href="#Verdana-75"/>
      <use x="133.10546875" xlink:href="#Verdana-63"/>
      <use x="185.205078125" xlink:href="#Verdana-6b"/>
      <use x="243.384765625" xlink:href="#Verdana-6f"/>
      <use x="304.078125" xlink:href="#Verdana-6f"/>
     </g>
    </g>
    <g id="line2d_38">
     <path d="
M417.26 257.061
L437.42 257.061" style="fill:none;stroke:#bf00bf;stroke-linecap:square;"/>
    </g>
    <g id="line2d_39"/>
    <g id="text_20">
     <!-- qABC -->
     <defs>
      <path d="
M53.2656 -20.125
L44.0938 -20.125
L44.0938 6.15625
Q39.8438 2.48438 35.6406 0.703125
Q31.4531 -1.07812 26.5625 -1.07812
Q16.8438 -1.07812 11.0625 6.42188
Q5.28125 13.9219 5.28125 27.0938
Q5.28125 34.125 7.29688 39.5156
Q9.32812 44.9219 12.6406 48.5781
Q15.875 52.1562 20.2188 54.1094
Q24.5625 56.0625 29.3906 56.0625
Q33.7969 56.0625 37.1875 55.0781
Q40.5781 54.1094 44.0938 52.2031
L44.6719 54.5469
L53.2656 54.5469
z

M44.0938 13.875
L44.0938 44.7344
Q40.2812 46.4375 37.3438 47.1094
Q34.4219 47.7969 31 47.7969
Q23.0469 47.7969 18.8906 42.4062
Q14.75 37.0156 14.75 27.5469
Q14.75 17.9688 18.0938 12.8125
Q21.4375 7.67188 28.6094 7.67188
Q32.625 7.67188 36.625 9.40625
Q40.625 11.1406 44.0938 13.875" id="Verdana-71"/>
     </defs>
     <g transform="translate(453.26025 262.101375)scale(0.144 -0.144)">
      <use xlink:href="#Verdana-71"/>
      <use x="62.3046875" xlink:href="#Verdana-41"/>
      <use x="130.6640625" xlink:href="#Verdana-42"/>
      <use x="199.21875" xlink:href="#Verdana-43"/>
     </g>
    </g>
   </g>
  </g>
 </g>
 <defs>
  <clipPath id="p7ff5b81e1d">
   <rect height="345.6" width="446.4" x="72.0" y="43.2"/>
  </clipPath>
 </defs>
</svg>
