<?xml version="1.0" encoding="utf-8" standalone="no"?>
<!DOCTYPE svg PUBLIC "-//W3C//DTD SVG 1.1//EN"
  "http://www.w3.org/Graphics/SVG/1.1/DTD/svg11.dtd">
<!-- Created with matplotlib (http://matplotlib.org/) -->
<svg height="432pt" version="1.1" viewBox="0 0 576 432" width="576pt" xmlns="http://www.w3.org/2000/svg" xmlns:xlink="http://www.w3.org/1999/xlink">
 <defs>
  <style type="text/css">
*{stroke-linecap:butt;stroke-linejoin:round;}
  </style>
 </defs>
 <g id="figure_1">
  <g id="patch_1">
   <path d="
M0 432
L576 432
L576 0
L0 0
z
" style="fill:#ffffff;"/>
  </g>
  <g id="axes_1">
   <g id="patch_2">
    <path d="
M72 388.8
L518.4 388.8
L518.4 43.2
L72 43.2
z
" style="fill:#ffffff;"/>
   </g>
   <g id="line2d_1">
    <path clip-path="url(#p7ff5b81e1d)" d="
M72 388.8
L518.311 388.8
L518.311 388.8" style="fill:none;stroke:#0000ff;stroke-dasharray:6.000000,2.000000;stroke-dashoffset:0.0;"/>
   </g>
   <g id="line2d_2">
    <path clip-path="url(#p7ff5b81e1d)" d="
M72 388.8
L72.2678 388.8
L72.4464 388.468
L72.8928 388.468
L73.0714 388.8
L88.6061 388.8
L88.7846 388.468
L89.3203 388.468
L89.4989 388.135
L89.5882 388.135
L89.856 387.471
L90.0346 388.135
L91.1059 388.135
L91.463 387.138
L92.1773 387.138
L92.3558 387.471
L92.6237 387.471
L92.8022 386.806
L92.8915 387.803
L93.1594 387.138
L93.2486 387.138
L93.4272 386.806
L93.5165 386.806
L93.695 388.135
L94.1414 388.135
L94.32 388.468
L97.5341 388.468
L97.7126 388.135
L98.3376 388.135
L98.5162 387.138
L98.6054 387.138
L98.784 386.806
L98.9626 388.135
L99.1411 388.135
L99.3197 387.471
L99.5875 386.806
L99.6768 386.806
L99.8554 387.803
L101.552 387.803
L101.641 387.471
L101.82 388.135
L102.355 388.135
L102.534 387.803
L104.676 387.803
L104.855 387.471
L105.301 387.471
L105.48 387.138
L105.659 387.803
L107.087 387.803
L107.266 387.471
L107.712 387.471
L107.891 387.138
L108.158 387.138
L108.337 387.471
L109.408 387.471
L109.587 387.138
L110.658 387.138
L110.837 386.806
L111.105 386.806
L111.194 386.474
L111.372 386.806
L111.73 386.806
L111.997 386.142
L112.176 386.806
L112.355 386.806
L112.533 386.474
L112.622 386.474
L112.801 386.142
L112.98 386.474
L113.069 386.474
L113.247 386.142
L113.872 386.142
L114.051 385.809
L114.319 385.809
L114.587 384.148
L114.676 384.148
L115.033 383.151
L115.301 383.151
L115.479 382.818
L115.658 385.809
L115.747 385.809
L115.926 385.477
L116.283 385.477
L116.461 385.145
L116.729 385.145
L116.908 384.48
L117.086 384.148
L117.622 384.148
L117.801 386.474
L118.158 385.477
L118.247 385.477
L118.426 386.142
L118.515 386.142
L118.783 385.477
L119.051 385.477
L119.229 386.806
L119.676 386.806
L120.122 385.477
L120.211 385.477
L120.39 385.809
L120.747 384.812
L120.925 387.138
L121.461 387.138
L121.64 386.806
L121.997 386.806
L122.175 386.474
L122.622 386.474
L122.8 386.142
L122.979 387.471
L124.407 387.471
L124.497 387.138
L124.675 387.471
L125.479 387.471
L125.657 387.138
L126.282 387.138
L126.55 386.474
L126.818 386.474
L126.996 386.142
L127.264 386.142
L127.532 385.477
L128.068 385.477
L128.246 385.145
L128.425 388.135
L130.746 388.135
L130.925 387.803
L131.55 387.803
L131.728 387.471
L131.907 387.803
L132.175 387.803
L132.353 387.471
L132.443 387.471
L132.621 387.803
L133.068 387.803
L133.246 387.471
L133.603 387.471
L133.782 387.138
L133.96 387.138
L134.228 386.474
L134.407 387.471
L134.585 387.471
L134.764 386.474
L135.032 386.474
L135.21 386.142
L135.567 386.142
L135.835 385.477
L136.282 385.477
L136.639 384.48
L136.728 384.48
L136.907 383.815
L137.085 383.483
L137.442 383.483
L137.621 383.815
L137.889 383.815
L138.067 384.148
L138.424 384.148
L138.514 384.48
L138.871 383.483
L139.049 383.815
L139.139 383.815
L139.317 383.483
L139.496 384.148
L139.674 383.815
L139.853 383.815
L140.031 383.151
L140.21 386.142
L140.388 386.142
L140.567 385.809
L140.835 385.809
L141.281 384.48
L141.728 384.48
L141.906 384.148
L142.263 384.148
L142.62 383.151
L142.978 383.151
L143.513 381.489
L143.87 381.489
L143.96 382.486
L144.138 382.154
L144.406 382.154
L144.585 383.815
L144.763 383.483
L145.299 383.483
L145.477 384.48
L145.656 384.48
L146.013 383.483
L146.281 383.483
L146.638 382.486
L146.995 382.486
L147.352 381.489
L147.531 381.489
L147.709 381.157
L147.799 381.157
L147.977 380.825
L148.245 380.825
L148.513 379.495
L148.87 379.495
L148.959 381.822
L149.049 381.489
L149.138 381.489
L149.316 381.157
L149.495 381.157
L149.674 380.825
L149.763 380.825
L150.477 378.498
L150.566 378.498
L150.745 379.163
L150.924 379.163
L151.102 378.498
L151.191 378.498
L151.37 379.495
L151.459 379.495
L151.727 377.834
L152.084 377.834
L152.173 377.169
L152.263 379.495
L152.352 379.163
L152.531 378.831
L152.62 378.831
L152.709 381.157
L152.798 380.825
L153.066 380.16
L153.245 381.489
L153.513 380.825
L153.959 380.825
L154.227 380.16
L154.316 380.16
L154.584 378.831
L154.763 377.834
L154.852 377.834
L155.209 376.837
L155.298 376.837
L155.388 376.505
L155.566 377.169
L155.834 375.84
L156.37 374.178
L156.548 374.178
L156.905 373.182
L157.084 373.182
L157.441 372.185
L157.709 372.185
L157.887 370.191
L158.155 369.526
L158.244 369.526
L158.423 368.862
L158.602 369.858
L158.691 369.858
L158.869 368.862
L158.959 371.852
L159.048 371.52
L159.405 370.523
L159.584 371.188
L159.762 381.157
L159.852 381.157
L160.03 380.825
L160.566 380.825
L160.834 380.16
L161.012 380.16
L161.548 378.498
L161.816 378.498
L161.994 377.502
L162.084 377.502
L162.262 377.834
L162.441 377.502
L162.798 377.502
L163.066 375.508
L163.155 375.508
L163.423 374.843
L163.601 377.169
L164.316 374.178
L164.494 373.182
L164.583 373.182
L165.208 371.188
L165.298 371.188
L165.387 370.855
L165.476 372.849
L165.565 372.517
L165.923 371.188
L166.19 369.194
L166.28 369.194
L167.53 364.542
L167.708 363.545
L167.797 363.877
L168.155 362.88
L168.244 362.88
L168.512 361.551
L168.69 360.554
L168.958 359.225
L169.137 358.56
L169.226 358.56
L169.404 360.886
L169.672 360.222
L169.762 367.532
L169.851 367.2
L169.94 367.2
L170.208 365.871
L170.654 363.212
L170.833 363.212
L171.279 361.218
L171.369 364.542
L171.458 364.209
L171.815 363.212
L171.994 363.212
L172.261 361.883
L172.529 360.222
L172.619 360.222
L172.708 359.557
L172.797 360.222
L173.065 358.892
L173.333 357.563
L173.422 361.883
L173.511 361.551
L173.779 360.554
L173.868 362.215
L174.047 361.551
L174.315 361.551
L174.583 360.886
L174.761 360.886
L175.386 358.892
L175.476 358.892
L175.654 357.895
L175.922 356.566
L176.011 356.566
L176.368 354.572
L176.904 352.578
L177.083 354.24
L177.35 353.575
L177.44 353.575
L177.529 353.243
L177.708 356.566
L177.797 356.566
L178.154 355.237
L178.243 356.234
L178.332 355.902
L178.511 359.557
L178.779 358.228
L178.957 357.895
L179.047 357.895
L179.404 356.566
L179.761 353.575
L179.85 353.575
L180.029 352.246
L180.386 351.249
L180.475 351.249
L181.1 348.923
L181.279 347.262
L181.457 347.262
L181.636 345.6
L181.904 345.6
L182.35 343.938
L182.529 342.609
L182.886 341.612
L182.975 341.612
L183.421 337.625
L183.6 338.289
L183.868 336.96
L184.225 334.966
L184.314 335.963
L184.671 333.637
L184.85 333.637
L185.386 330.314
L186.189 327.655
L186.278 329.982
L186.457 328.985
L186.636 328.985
L186.814 327.655
L186.903 327.655
L187.082 326.658
L187.26 326.658
L188.421 318.683
L188.51 318.683
L188.868 316.689
L188.957 316.689
L189.046 316.357
L189.314 314.363
L189.76 311.705
L189.85 311.705
L190.028 310.708
L190.117 310.708
L190.296 309.711
L190.653 307.717
L190.742 307.385
L190.832 307.717
L191.278 306.055
L191.457 304.394
L191.546 307.717
L191.635 307.385
L191.992 306.388
L192.171 305.058
L192.26 304.394
L192.439 306.388
L192.885 304.726
L193.153 302.732
L193.599 300.074
L193.778 300.074
L194.135 298.412
L194.224 297.415
L194.314 300.406
L194.403 300.074
L195.921 289.108
L196.01 289.108
L196.099 288.775
L196.188 290.437
L196.456 289.108
L196.546 288.775
L196.635 289.108
L196.903 286.449
L196.992 286.449
L197.171 285.452
L198.063 279.138
L198.153 279.803
L198.51 276.812
L199.76 272.492
L199.849 277.145
L199.938 276.812
L200.117 276.812
L200.563 275.151
L200.831 272.492
L200.92 272.492
L201.099 271.828
L201.188 271.495
L201.367 273.157
L201.456 273.157
L202.438 269.169
L202.617 267.508
L202.795 265.182
L202.884 265.182
L202.974 264.517
L203.063 270.166
L203.152 269.834
L203.867 265.182
L204.045 264.849
L204.313 264.849
L204.759 262.855
L205.027 261.526
L205.206 261.526
L205.563 260.529
L205.652 260.529
L205.831 264.517
L205.92 264.517
L206.545 262.523
L206.634 262.523
L206.813 261.526
L206.902 261.526
L207.17 260.862
L207.348 265.514
L207.795 262.855
L208.152 261.526
L208.241 264.517
L208.331 264.185
L208.688 263.188
L208.866 263.52
L208.956 263.52
L209.134 271.828
L209.313 271.828
L209.491 270.831
L210.205 267.84
L210.384 266.843
L210.473 271.495
L210.563 270.831
L210.92 268.837
L211.009 268.505
L211.277 266.511
L211.723 264.849
L211.991 262.523
L212.437 261.194
L212.527 261.194
L212.795 259.865
L212.973 259.2
L213.062 268.172
L213.152 267.175
L214.044 261.194
L214.312 260.529
L214.402 260.529
L214.669 258.535
L214.759 270.166
L214.848 269.834
L215.027 268.837
L215.116 268.837
L215.919 265.514
L216.187 264.185
L216.366 267.175
L216.455 266.843
L216.634 265.514
L216.723 265.182
L216.901 264.185
L217.616 259.532
L218.33 256.874
L218.419 255.545
L218.508 256.209
L218.687 255.212
L218.866 254.215
L218.955 254.215
L219.401 252.222
L219.491 253.551
L219.848 252.554
L220.116 252.554
L220.473 250.56
L220.83 249.231
L221.008 247.902
L221.098 249.231
L221.455 248.234
L221.633 246.905
L222.08 244.911
L222.437 242.917
L223.33 239.926
L223.419 239.926
L223.597 238.929
L223.687 238.929
L224.222 237.268
L224.312 237.268
L225.383 233.612
L225.651 233.612
L225.829 232.615
L226.097 231.286
L226.276 230.289
L226.365 229.625
L226.544 230.289
L226.99 228.295
L227.169 226.966
L227.258 226.966
L227.436 226.634
L227.526 226.634
L229.044 220.985
L229.222 219.323
L229.311 219.323
L229.49 218.326
L229.579 218.326
L229.668 217.994
L229.847 216.332
L229.936 216.332
L230.026 216.997
L230.204 216
L230.383 216
L230.918 213.674
L231.186 212.345
L231.543 212.345
L231.722 211.348
L231.9 210.683
L231.99 210.683
L232.258 210.018
L232.436 210.018
L232.615 209.022
L232.704 209.022
L233.15 207.692
L233.24 210.018
L233.508 208.689
L233.686 208.689
L233.954 208.025
L234.132 208.025
L235.472 203.04
L235.561 209.022
L235.65 208.689
L235.829 208.357
L235.918 208.357
L236.454 204.702
L236.632 209.354
L236.722 209.354
L237.168 208.025
L237.347 208.025
L237.614 205.366
L237.793 204.369
L237.882 204.369
L238.15 203.705
L238.239 206.363
L238.418 205.366
L238.596 205.366
L238.864 204.037
L239.221 203.04
L239.311 203.04
L239.668 202.043
L239.757 202.043
L239.936 201.046
L240.025 201.046
L240.293 199.717
L240.382 199.717
L240.561 202.043
L240.918 202.043
L241.096 201.711
L241.275 201.711
L242.614 197.058
L242.703 197.058
L243.06 195.729
L243.239 196.726
L243.596 195.729
L243.685 195.729
L244.043 194.732
L244.31 194.732
L244.489 193.735
L244.668 193.735
L244.846 194.068
L245.025 194.068
L245.203 193.735
L245.292 195.065
L246.007 192.738
L246.275 192.738
L246.632 191.742
L247.167 191.742
L247.346 190.745
L247.435 190.745
L247.614 190.08
L247.792 189.083
L247.882 195.065
L247.971 194.732
L248.149 193.735
L248.239 193.735
L248.507 193.071
L248.596 193.071
L248.864 192.406
L249.132 192.406
L249.31 191.742
L249.578 191.077
L249.667 191.077
L249.935 189.748
L250.114 189.748
L250.471 188.751
L251.006 188.751
L251.274 188.086
L251.721 188.086
L252.078 187.089
L252.256 187.089
L252.524 186.425
L252.703 186.425
L252.971 185.095
L253.149 184.763
L253.417 184.763
L253.685 184.098
L253.863 184.098
L254.042 183.766
L254.131 187.089
L254.22 186.757
L254.488 185.428
L254.667 185.095
L254.845 189.415
L255.024 189.415
L255.381 187.422
L255.47 187.422
L255.738 186.757
L255.828 186.757
L256.185 185.76
L256.274 185.76
L256.452 185.428
L256.542 185.428
L256.72 184.763
L256.81 184.763
L257.167 183.102
L257.345 186.757
L257.435 186.757
L257.792 185.76
L257.881 185.76
L258.06 185.428
L258.149 185.428
L258.327 185.095
L258.417 185.095
L258.506 184.763
L258.684 185.428
L258.774 185.428
L259.22 184.098
L259.309 184.098
L259.399 183.766
L259.577 186.425
L259.667 186.425
L259.845 185.428
L259.934 185.428
L260.113 185.095
L260.292 185.095
L260.649 183.102
L260.738 183.102
L260.916 182.769
L261.095 182.769
L261.363 182.105
L261.631 182.105
L261.899 181.44
L261.988 181.44
L262.256 180.775
L262.345 180.775
L262.524 180.443
L262.613 180.443
L262.881 179.778
L262.97 179.778
L263.238 179.114
L263.416 181.44
L263.595 181.44
L263.863 180.775
L264.041 180.775
L264.131 180.443
L264.309 178.782
L264.398 184.098
L264.488 183.766
L264.666 183.102
L264.756 183.102
L265.023 182.437
L265.113 182.437
L265.559 181.108
L265.648 181.108
L265.827 180.775
L265.916 180.775
L266.095 179.446
L266.273 179.114
L266.63 179.114
L267.077 177.785
L267.345 177.785
L267.523 181.44
L267.702 181.108
L267.88 181.108
L268.059 180.775
L268.327 180.775
L268.505 180.443
L268.684 180.443
L269.309 178.449
L269.487 178.449
L269.666 177.785
L269.934 177.785
L270.112 178.782
L270.202 178.782
L270.38 178.449
L271.005 178.449
L271.362 177.452
L271.541 177.452
L272.523 174.129
L272.88 174.129
L273.416 172.468
L273.773 172.468
L273.951 172.135
L274.933 172.135
L275.112 171.803
L275.38 171.803
L275.558 170.806
L276.451 170.806
L276.63 170.142
L276.898 170.142
L277.076 169.809
L277.701 169.809
L277.88 169.477
L277.969 169.477
L278.058 170.142
L278.326 169.477
L278.594 169.477
L278.862 168.812
L279.04 168.812
L279.219 168.48
L280.201 168.48
L280.38 168.148
L280.558 168.148
L280.826 167.483
L281.272 167.483
L281.54 166.818
L281.719 166.818
L281.897 167.151
L282.254 167.151
L282.433 166.818
L282.701 166.818
L282.879 168.148
L283.147 167.483
L283.326 167.483
L283.504 166.818
L283.861 165.822
L284.219 165.822
L284.397 165.489
L284.576 165.489
L284.754 165.157
L285.111 165.157
L285.29 164.825
L285.736 164.825
L285.915 164.492
L286.361 164.492
L286.54 164.16
L286.629 164.16
L286.718 164.492
L286.897 164.16
L287.076 164.16
L287.254 163.828
L288.772 163.828
L288.95 163.495
L289.04 163.495
L289.129 163.163
L289.308 163.495
L289.575 163.495
L289.843 162.831
L290.2 162.831
L290.379 162.498
L290.736 162.498
L291.004 161.834
L291.182 161.834
L291.361 161.502
L291.54 161.502
L291.718 161.834
L291.897 161.834
L292.254 160.505
L292.432 161.834
L292.611 161.834
L292.879 161.169
L293.057 161.169
L293.147 160.837
L293.325 162.831
L294.754 162.831
L295.021 162.166
L295.379 162.166
L295.557 161.502
L295.646 161.502
L295.825 161.169
L296.182 161.169
L296.539 160.172
L296.628 160.172
L296.896 159.508
L297.253 159.508
L297.432 159.175
L297.7 159.175
L297.878 159.508
L298.146 158.843
L298.593 158.843
L299.039 157.514
L299.128 157.514
L299.307 157.182
L299.396 157.182
L299.575 156.849
L299.664 156.849
L300.021 155.852
L300.11 155.852
L300.289 155.52
L300.378 155.52
L300.557 154.523
L300.646 154.523
L301.092 153.194
L301.36 153.194
L301.539 154.523
L301.717 154.523
L302.075 153.526
L302.164 153.526
L302.432 152.862
L302.61 153.858
L302.878 152.529
L303.235 152.529
L303.414 152.197
L303.771 152.197
L303.949 151.865
L304.128 152.862
L304.396 152.862
L304.842 151.532
L305.199 151.532
L305.378 151.2
L306.181 151.2
L306.36 150.868
L306.449 150.868
L306.717 150.203
L307.253 150.203
L307.431 149.871
L307.521 149.871
L307.699 149.538
L307.967 149.538
L308.146 149.206
L308.235 149.206
L308.413 148.874
L308.771 148.874
L308.949 148.542
L309.128 148.542
L309.306 148.209
L309.663 148.209
L309.842 147.877
L310.11 147.877
L310.288 147.545
L310.556 147.545
L310.735 146.88
L310.824 146.88
L311.003 146.215
L311.181 145.883
L311.27 145.883
L311.449 145.551
L311.628 145.551
L311.806 145.218
L312.074 145.218
L312.252 144.886
L312.52 144.886
L312.699 144.554
L313.056 144.554
L313.235 145.883
L313.324 145.883
L313.592 145.218
L313.681 145.218
L313.86 144.886
L313.949 144.886
L314.127 144.554
L314.574 144.554
L314.752 143.557
L315.02 143.557
L315.199 143.225
L315.467 143.225
L315.645 142.892
L316.092 142.892
L316.27 142.56
L316.806 142.56
L317.074 141.895
L317.341 141.895
L317.431 142.228
L317.52 148.542
L317.609 148.209
L317.966 148.209
L318.145 147.877
L318.324 147.877
L318.591 147.212
L319.484 147.212
L319.663 146.88
L319.931 146.88
L320.109 148.542
L320.288 148.542
L320.466 148.209
L320.645 148.209
L320.823 147.545
L321.27 147.545
L321.448 147.212
L323.055 147.212
L323.234 146.88
L323.323 146.88
L323.502 148.874
L323.948 148.874
L324.127 148.209
L324.305 148.209
L324.484 147.877
L324.662 147.877
L325.02 146.88
L325.287 146.88
L325.555 146.215
L326.002 146.215
L326.18 145.883
L326.359 146.548
L327.252 146.548
L327.43 145.883
L327.519 145.883
L327.787 145.218
L328.234 145.218
L328.412 144.554
L328.591 143.557
L328.769 143.557
L329.037 142.892
L329.216 142.892
L329.394 142.56
L329.751 142.56
L330.108 141.563
L330.198 141.563
L330.376 140.898
L330.555 140.898
L330.644 140.566
L330.823 140.898
L331.18 139.902
L331.269 139.902
L331.537 139.237
L331.626 139.237
L331.894 138.572
L331.983 138.572
L332.073 138.24
L332.251 139.902
L332.34 139.902
L332.519 139.569
L333.323 139.569
L333.501 139.237
L334.572 139.237
L334.84 138.572
L335.019 138.572
L335.197 138.24
L335.287 138.24
L335.555 137.575
L335.644 137.575
L335.822 137.243
L336.001 137.243
L336.269 135.914
L336.447 135.914
L336.626 135.582
L336.983 135.582
L337.251 134.917
L337.429 134.917
L337.608 136.578
L337.876 136.578
L338.054 136.246
L338.233 136.246
L338.412 135.914
L338.59 135.914
L338.769 135.582
L339.036 135.582
L339.572 133.92
L339.751 133.92
L340.019 133.255
L340.197 133.255
L340.554 132.258
L340.644 132.258
L340.822 131.926
L340.911 131.926
L341.09 131.262
L341.179 132.591
L341.447 131.926
L341.893 131.926
L342.072 131.594
L342.786 131.594
L343.054 130.929
L343.233 130.929
L343.411 130.265
L343.5 130.265
L343.679 129.932
L343.768 129.932
L343.947 140.566
L344.125 140.234
L344.84 140.234
L345.018 139.902
L345.375 139.902
L345.732 138.905
L346 138.905
L346.357 137.908
L346.536 137.908
L346.715 137.575
L347.072 137.575
L347.34 136.911
L347.518 136.911
L347.697 135.914
L348.679 135.914
L348.857 135.582
L349.125 135.582
L349.304 135.249
L349.393 135.249
L349.572 134.917
L349.929 134.917
L350.196 134.252
L350.911 134.252
L351.089 133.588
L351.446 133.588
L351.625 133.255
L351.714 133.255
L351.804 137.575
L351.893 136.911
L351.982 136.911
L352.161 136.578
L352.786 136.578
L352.964 137.575
L353.053 137.575
L353.232 137.243
L353.411 137.243
L353.589 136.578
L353.678 136.578
L353.857 136.246
L354.214 136.246
L354.393 135.914
L354.482 135.914
L354.66 135.249
L354.75 135.249
L354.928 135.582
L355.107 135.582
L355.285 135.249
L355.91 135.249
L356.089 134.917
L356.178 134.917
L356.446 134.252
L358.5 134.252
L358.767 133.588
L358.857 133.588
L359.035 133.255
L359.66 133.255
L359.839 132.923
L360.374 132.923
L360.642 132.258
L360.999 132.258
L361.178 131.926
L361.356 131.926
L361.714 130.929
L362.339 130.929
L362.606 130.265
L362.964 130.265
L363.231 129.6
L363.321 129.6
L363.499 129.268
L363.946 129.268
L364.124 131.594
L365.106 131.594
L365.285 131.262
L365.374 131.262
L365.553 130.929
L365.642 130.929
L365.91 130.265
L365.999 130.265
L366.178 129.932
L366.267 129.932
L366.624 128.935
L366.803 128.935
L366.981 128.603
L367.07 128.603
L367.249 129.932
L367.517 129.932
L367.695 129.6
L368.32 129.6
L368.499 129.268
L368.677 129.268
L368.856 128.935
L369.302 128.935
L369.481 128.603
L370.463 128.603
L370.642 128.271
L370.731 128.271
L370.909 127.938
L370.999 127.938
L371.177 127.274
L371.267 127.274
L371.624 126.277
L372.338 126.277
L372.516 125.945
L373.409 125.945
L373.677 125.28
L373.766 125.28
L373.945 124.948
L374.034 124.948
L374.213 124.615
L374.302 124.615
L374.481 124.283
L374.748 124.283
L374.927 123.618
L375.195 122.954
L375.552 122.954
L375.731 122.289
L375.909 121.957
L375.998 121.957
L376.177 121.625
L376.623 121.625
L376.891 120.96
L376.98 120.96
L377.159 120.628
L377.516 120.628
L377.784 119.963
L378.23 119.963
L378.409 118.966
L378.498 118.966
L378.677 120.295
L378.945 119.631
L379.391 119.631
L379.659 118.966
L379.927 118.966
L380.105 118.302
L380.284 117.969
L380.373 117.969
L380.462 117.637
L380.641 120.295
L380.82 119.963
L380.909 120.96
L381.087 120.295
L381.355 120.295
L381.534 119.631
L382.069 119.631
L382.337 118.966
L382.516 118.966
L382.694 118.302
L383.23 118.302
L383.498 117.637
L383.676 117.637
L383.855 116.972
L383.944 116.972
L384.212 116.308
L384.659 116.308
L385.016 115.311
L385.194 115.311
L385.373 114.314
L385.462 114.314
L385.908 112.985
L385.998 112.985
L386.176 112.652
L386.266 112.652
L386.444 111.988
L386.533 111.988
L386.712 111.323
L386.891 110.991
L387.337 110.991
L387.873 109.329
L387.962 109.329
L388.14 108.997
L388.855 108.997
L389.123 108.332
L389.39 108.332
L389.658 107.668
L389.837 107.668
L390.015 107.335
L390.372 107.335
L390.551 107.003
L391.176 107.003
L391.265 106.671
L391.444 105.674
L391.622 105.674
L391.801 105.342
L391.89 105.342
L392.158 104.677
L392.247 104.677
L392.426 104.345
L392.515 104.345
L393.229 102.018
L395.283 102.018
L395.372 101.686
L395.551 100.689
L395.64 100.689
L395.908 100.025
L395.997 100.025
L396.176 99.6923
L396.444 99.6923
L396.622 99.36
L396.711 99.36
L396.89 99.0277
L397.426 99.0277
L397.604 98.3631
L398.854 98.3631
L399.122 97.6985
L400.015 97.6985
L400.372 96.7015
L402.068 96.7015
L402.247 96.3692
L402.425 96.3692
L402.693 95.7046
L403.05 95.7046
L403.318 95.04
L404.122 95.04
L404.3 94.7077
L404.747 94.7077
L404.925 94.3754
L405.193 94.3754
L405.372 94.0431
L405.639 94.0431
L405.996 93.0462
L406.532 93.0462
L406.621 92.7138
L406.711 94.0431
L406.889 93.7108
L407.068 93.7108
L407.693 91.7169
L407.961 91.7169
L408.139 91.3846
L409.121 91.3846
L409.389 90.72
L409.746 90.72
L409.925 91.7169
L410.282 91.7169
L410.46 91.0523
L410.728 90.3877
L410.818 90.3877
L410.996 90.0554
L411.175 90.0554
L411.264 89.7231
L411.443 88.7262
L411.621 88.7262
L411.8 88.0615
L412.425 88.0615
L412.514 87.7292
L412.692 88.0615
L412.871 87.7292
L413.675 87.7292
L413.853 87.0646
L414.032 87.0646
L414.21 86.7323
L414.746 86.7323
L415.014 86.0677
L415.282 86.0677
L415.46 86.4
L415.639 86.4
L415.907 85.7354
L415.996 85.7354
L416.353 84.7385
L417.156 84.7385
L417.424 84.0738
L417.514 84.0738
L418.228 81.7477
L418.496 81.7477
L418.674 81.4154
L419.478 81.4154
L419.656 86.0677
L420.013 86.0677
L420.192 85.4031
L420.371 85.0708
L420.906 85.0708
L421.353 83.7415
L422.245 83.7415
L422.424 83.4092
L422.513 83.4092
L422.781 82.7446
L423.049 82.7446
L423.228 83.4092
L423.495 83.4092
L423.852 82.4123
L423.942 82.4123
L424.12 82.08
L425.281 82.08
L425.46 81.7477
L425.817 81.7477
L425.995 81.0831
L426.174 81.0831
L426.352 80.7508
L426.531 80.7508
L426.709 80.4185
L426.888 80.4185
L427.067 80.0862
L427.156 80.0862
L427.334 79.4215
L427.513 79.4215
L427.692 79.0892
L429.031 79.0892
L429.566 77.4277
L429.656 77.4277
L429.745 77.0954
L429.924 77.76
L430.281 77.76
L430.459 77.4277
L431.352 77.4277
L431.531 77.0954
L431.709 77.0954
L431.888 76.7631
L431.977 76.7631
L432.423 75.4338
L433.048 75.4338
L433.227 75.1015
L433.941 75.1015
L434.12 75.4338
L434.834 75.4338
L435.102 74.7692
L435.191 74.7692
L435.37 74.4369
L435.459 74.4369
L435.637 74.1046
L435.995 74.1046
L436.173 73.44
L437.423 73.44
L437.602 73.1077
L437.691 73.1077
L437.869 72.7754
L438.137 72.7754
L438.316 72.4431
L439.298 72.4431
L439.566 71.7785
L439.834 71.7785
L440.101 71.1138
L440.905 71.1138
L441.084 70.7815
L441.976 70.7815
L442.244 70.1169
L442.423 70.4492
L442.512 70.4492
L442.78 69.12
L443.226 69.12
L443.405 68.7877
L443.583 68.7877
L443.762 68.4554
L444.119 68.4554
L444.298 68.1231
L444.476 68.1231
L444.655 67.7908
L445.101 67.7908
L445.28 67.4585
L445.458 68.1231
L446.53 68.1231
L446.708 67.7908
L447.065 67.7908
L447.422 66.7938
L448.137 66.7938
L448.404 66.1292
L448.583 66.1292
L448.851 65.4646
L449.833 65.4646
L450.012 64.4677
L450.101 64.4677
L450.19 64.1354
L450.369 67.7908
L450.636 67.1262
L450.904 67.1262
L451.083 66.7938
L451.529 66.7938
L451.708 66.4615
L452.601 66.4615
L452.958 65.4646
L453.315 65.4646
L453.583 64.8
L453.672 64.8
L453.851 65.1323
L454.922 65.1323
L455.1 64.8
L455.19 64.8
L455.368 64.1354
L455.547 64.1354
L455.815 63.4708
L456.172 63.4708
L456.35 63.1385
L456.618 63.1385
L456.797 62.8062
L458.315 62.8062
L458.493 62.1415
L459.118 62.1415
L459.386 61.4769
L459.564 62.1415
L459.743 61.8092
L460.189 61.8092
L460.368 61.4769
L460.904 61.4769
L461.082 61.1446
L461.618 61.1446
L461.886 60.48
L462.868 60.48
L463.046 60.1477
L463.136 60.1477
L463.404 59.4831
L464.028 59.4831
L464.207 59.1508
L464.296 59.1508
L464.475 58.8185
L464.743 58.8185
L464.921 58.4862
L465.546 58.4862
L465.814 57.8215
L467.243 57.8215
L467.421 57.4892
L468.135 57.4892
L468.314 57.1569
L469.385 57.1569
L469.564 56.8246
L469.742 56.8246
L469.921 56.4923
L471.974 56.4923
L472.153 56.16
L472.421 56.16
L472.599 55.8277
L472.689 55.8277
L472.867 55.4954
L473.403 55.4954
L473.581 55.1631
L476.796 55.1631
L476.974 54.8308
L477.688 54.8308
L477.867 54.4985
L480.01 54.4985
L480.188 54.1662
L480.277 54.1662
L480.456 53.8338
L481.349 53.8338
L481.527 53.5015
L482.242 53.5015
L482.42 53.1692
L482.599 53.1692
L482.777 52.8369
L482.867 52.8369
L483.134 52.1723
L484.027 52.1723
L484.206 53.1692
L484.295 53.1692
L484.474 53.8338
L484.831 53.8338
L485.009 53.5015
L485.277 53.5015
L485.456 53.1692
L486.973 53.1692
L487.152 52.8369
L488.491 52.8369
L488.759 52.1723
L489.027 52.1723
L489.205 51.84
L492.42 51.84
L492.687 51.1754
L492.777 51.1754
L492.955 50.8431
L493.491 50.8431
L493.669 50.5108
L499.026 50.5108
L499.294 49.8462
L505.812 49.8462
L505.99 49.5138
L509.918 49.5138
L510.097 49.1815
L512.775 49.1815
L512.954 48.8492
L515.186 48.8492
L515.364 48.5169
L515.454 48.5169
L515.632 48.1846
L516.972 48.1846
L517.15 47.8523
L518.311 47.8523
L518.311 47.8523" style="fill:none;stroke:#008000;stroke-dasharray:1.000000,1.000000;stroke-dashoffset:0.0;"/>
   </g>
   <g id="line2d_3">
    <path clip-path="url(#p7ff5b81e1d)" d="
M72 388.637
L72.2678 388.637
L72.3571 388.8
L72.5357 388.637
L72.7142 388.8
L73.6963 388.8
L73.9642 388.475
L74.232 388.475
L74.4106 388.312
L74.6784 388.312
L74.857 388.637
L75.4819 388.637
L75.6605 388.475
L75.839 388.8
L79.0531 388.8
L79.2317 388.637
L81.7315 388.637
L81.9101 388.475
L82.4458 388.475
L82.6243 388.637
L90.3024 388.637
L90.481 388.8
L91.3738 388.8
L91.5523 388.637
L91.6416 388.637
L91.8202 388.8
L518.311 388.8
L518.311 388.8" style="fill:none;stroke:#ff0000;stroke-dasharray:3.000000,6.000000;stroke-dashoffset:0.0;"/>
   </g>
   <g id="line2d_4">
    <path clip-path="url(#p7ff5b81e1d)" d="
M72 388.8
L72.0893 388.8
L72.1786 388.8
L72.4464 388.23
L72.8928 388.23
L73.0714 388.8
L75.6605 388.8
L75.839 388.515
L76.8211 388.515
L76.9997 388.23
L77.1782 388.23
L77.3568 387.945
L79.0531 387.945
L79.2317 388.515
L80.0352 388.515
L80.2138 388.23
L80.7494 388.23
L80.928 387.945
L81.7315 387.945
L81.9101 388.8
L83.3386 388.8
L83.5171 388.515
L90.3024 388.515
L90.481 388.23
L91.6416 388.23
L91.8202 388.515
L92.8022 388.515
L92.9808 388.8
L94.0522 388.8
L94.1414 388.515
L94.32 388.8
L291.093 388.8
L291.272 388.515
L291.54 388.515
L291.718 388.8
L518.311 388.8
L518.311 388.8" style="fill:none;stroke:#00bfbf;stroke-dasharray:5.000000,1.000000,2.000000,1.000000,5.000000,1.000000;stroke-dashoffset:0.0;"/>
   </g>
   <g id="line2d_5">
    <path clip-path="url(#p7ff5b81e1d)" d="
M72 388.8
L72.3571 388.8
L72.5357 388.343
L72.8928 388.343
L73.0714 387.887
L73.6963 387.887
L73.8749 388.8
L243.864 388.8
L244.043 388.343
L247.792 388.343
L247.971 388.8
L277.433 388.8
L277.612 388.343
L282.701 388.343
L282.879 388.8
L284.04 388.8
L284.219 388.343
L290.379 388.343
L290.557 387.887
L291.182 387.887
L291.361 387.43
L292.254 387.43
L292.432 388.343
L293.147 388.343
L293.325 388.8
L294.932 388.8
L295.111 388.343
L297.7 388.343
L297.878 388.8
L305.021 388.8
L305.378 387.43
L305.467 387.43
L305.646 386.974
L309.217 386.974
L309.396 386.517
L313.056 386.517
L313.235 386.974
L314.931 386.974
L315.109 386.517
L316.538 386.517
L316.716 386.061
L317.341 386.061
L317.431 386.517
L317.609 387.887
L319.931 387.887
L320.109 388.8
L323.145 388.8
L323.323 388.343
L323.502 388.8
L323.68 388.343
L326.18 388.343
L326.359 388.8
L330.019 388.8
L330.198 388.343
L333.323 388.343
L333.501 387.887
L333.858 387.887
L334.037 387.43
L337.429 387.43
L337.608 386.974
L343.768 386.974
L343.947 387.887
L344.572 387.887
L344.75 387.43
L351.714 387.43
L351.893 388.343
L352.786 388.343
L352.964 388.8
L354.75 388.8
L354.928 388.343
L361.803 388.343
L361.981 387.887
L363.946 387.887
L364.124 388.343
L376.713 388.343
L376.891 387.887
L380.462 387.887
L380.641 388.343
L383.498 388.343
L383.676 387.887
L394.033 387.887
L394.212 387.43
L402.068 387.43
L402.247 386.974
L406.621 386.974
L406.8 387.43
L409.3 387.43
L409.478 386.974
L411.889 386.974
L412.068 386.061
L415.282 386.061
L415.46 386.974
L415.549 386.974
L415.728 386.517
L418.585 386.517
L418.764 386.061
L418.853 386.061
L419.031 384.691
L419.21 384.235
L419.478 384.235
L419.656 386.517
L420.013 386.517
L420.192 386.061
L423.049 386.061
L423.228 386.517
L426.62 386.517
L426.799 386.061
L429.299 386.061
L429.477 385.604
L430.102 385.604
L430.281 385.148
L432.87 385.148
L433.048 384.691
L434.209 384.691
L434.388 384.235
L437.691 384.235
L438.048 382.865
L439.923 382.865
L440.191 381.952
L440.726 381.952
L440.905 381.495
L442.244 381.495
L442.423 381.952
L444.119 381.952
L444.298 381.495
L444.655 381.495
L444.833 381.039
L445.19 381.039
L445.369 380.582
L447.155 380.582
L447.333 380.126
L449.565 380.126
L449.744 379.669
L450.19 379.669
L450.369 382.408
L451.529 382.408
L451.797 381.495
L451.976 381.495
L452.154 381.039
L453.672 381.039
L453.851 381.495
L457.065 381.495
L457.243 381.039
L457.6 381.039
L457.779 380.582
L458.94 380.582
L459.118 380.126
L459.207 380.126
L459.386 379.669
L459.564 380.126
L461.172 380.126
L461.35 379.669
L461.975 379.669
L462.154 379.213
L462.779 379.213
L463.046 378.3
L465.011 378.3
L465.189 377.843
L465.368 377.843
L465.546 377.387
L466.26 377.387
L466.439 376.93
L468.403 376.93
L468.582 376.473
L468.671 376.473
L468.85 376.017
L469.653 376.017
L469.921 375.104
L472.153 375.104
L472.332 374.647
L472.956 374.647
L473.135 375.104
L473.581 375.104
L473.76 374.647
L473.939 374.647
L474.117 374.191
L475.724 374.191
L475.992 373.278
L476.706 373.278
L476.885 372.821
L478.581 372.821
L478.76 374.191
L479.742 374.191
L479.92 373.734
L480.01 373.734
L480.188 373.278
L480.277 373.278
L480.724 371.452
L482.599 371.452
L482.777 370.995
L483.402 370.995
L483.581 370.538
L483.849 370.538
L484.027 370.082
L484.295 370.082
L484.474 371.452
L486.795 371.452
L486.973 370.995
L487.063 370.995
L487.241 370.538
L487.42 370.538
L487.509 370.082
L487.688 370.538
L487.866 370.082
L489.741 370.082
L489.92 369.625
L490.009 369.625
L490.188 369.169
L490.366 369.169
L490.545 367.799
L491.437 367.799
L491.616 367.343
L491.973 367.343
L492.152 368.256
L493.669 368.256
L493.848 367.799
L494.473 367.799
L494.652 367.343
L497.33 367.343
L497.687 365.973
L497.776 365.973
L497.955 365.517
L498.044 365.517
L498.401 364.147
L498.491 364.147
L498.669 363.69
L499.116 363.69
L499.294 364.603
L500.723 364.603
L500.901 364.147
L501.705 364.147
L501.883 363.69
L501.972 363.69
L502.151 362.777
L504.562 362.777
L504.74 362.321
L505.454 362.321
L505.812 360.951
L507.776 360.951
L508.044 360.038
L508.222 360.038
L508.49 359.125
L508.847 359.125
L509.115 358.212
L509.204 360.038
L509.472 359.125
L511.525 359.125
L511.704 358.668
L512.15 358.668
L512.597 356.842
L514.204 356.842
L514.382 357.299
L514.918 357.299
L515.275 355.929
L515.454 355.929
L515.632 355.473
L515.811 355.473
L515.989 354.56
L516.257 354.56
L516.525 351.82
L518.311 351.82
L518.311 351.82" style="fill:none;stroke:#bf00bf;stroke-linecap:square;"/>
   </g>
   <g id="matplotlib.axis_1">
    <g id="xtick_1">
     <g id="line2d_6">
      <defs>
       <path d="
M0 0
L0 -4" id="mc7db9fdffb" style="stroke:#000000;stroke-width:0.5;"/>
      </defs>
      <g>
       <use style="stroke:#000000;stroke-width:0.5;" x="72.0" xlink:href="#mc7db9fdffb" y="388.8"/>
      </g>
     </g>
     <g id="line2d_7">
      <defs>
       <path d="
M0 0
L0 4" id="m5a7d422ac3" style="stroke:#000000;stroke-width:0.5;"/>
      </defs>
      <g>
       <use style="stroke:#000000;stroke-width:0.5;" x="72.0" xlink:href="#m5a7d422ac3" y="43.2"/>
      </g>
     </g>
     <g id="text_1">
      <!-- 0 -->
      <defs>
       <path d="
M56.9844 36.375
Q56.9844 16.7969 50.8594 7.64062
Q44.7344 -1.51562 31.8438 -1.51562
Q18.75 -1.51562 12.7188 7.76562
Q6.6875 17.0469 6.6875 36.2812
Q6.6875 55.6719 12.7812 64.9219
Q18.8906 74.1719 31.8438 74.1719
Q44.9219 74.1719 50.9531 64.7656
Q56.9844 55.375 56.9844 36.375
M44.1406 14.2031
Q45.8438 18.1719 46.4531 23.5156
Q47.0781 28.8594 47.0781 36.375
Q47.0781 43.7969 46.4531 49.2656
Q45.8438 54.7344 44.0938 58.5469
Q42.3906 62.3125 39.4219 64.2031
Q36.4688 66.1094 31.8438 66.1094
Q27.25 66.1094 24.2344 64.2031
Q21.2344 62.3125 19.4844 58.4531
Q17.8281 54.8281 17.2188 49.0156
Q16.6094 43.2188 16.6094 36.2812
Q16.6094 28.6562 17.1406 23.5312
Q17.6719 18.4062 19.4375 14.3594
Q21.0469 10.5469 24 8.54688
Q26.9531 6.54688 31.8438 6.54688
Q36.4219 6.54688 39.4531 8.45312
Q42.4844 10.3594 44.1406 14.2031" id="Verdana-30"/>
      </defs>
      <g transform="translate(68.9821875 401.918125)scale(0.12 -0.12)">
       <use xlink:href="#Verdana-30"/>
      </g>
     </g>
    </g>
    <g id="xtick_2">
     <g id="line2d_8">
      <g>
       <use style="stroke:#000000;stroke-width:0.5;" x="161.28" xlink:href="#mc7db9fdffb" y="388.8"/>
      </g>
     </g>
     <g id="line2d_9">
      <g>
       <use style="stroke:#000000;stroke-width:0.5;" x="161.28" xlink:href="#m5a7d422ac3" y="43.2"/>
      </g>
     </g>
     <g id="text_2">
      <!-- 1000 -->
      <defs>
       <path d="
M52.9375 0
L13.5781 0
L13.5781 7.42188
L28.7188 7.42188
L28.7188 56.1562
L13.5781 56.1562
L13.5781 62.7969
Q16.6562 62.7969 20.1719 63.2969
Q23.6875 63.8125 25.4844 64.7969
Q27.7344 66.0156 29.0312 67.8906
Q30.3281 69.7812 30.5156 72.9531
L38.0938 72.9531
L38.0938 7.42188
L52.9375 7.42188
z
" id="Verdana-31"/>
      </defs>
      <g transform="translate(147.2315625 401.918125)scale(0.12 -0.12)">
       <use xlink:href="#Verdana-31"/>
       <use x="63.57421875" xlink:href="#Verdana-30"/>
       <use x="127.1484375" xlink:href="#Verdana-30"/>
       <use x="190.72265625" xlink:href="#Verdana-30"/>
      </g>
     </g>
    </g>
    <g id="xtick_3">
     <g id="line2d_10">
      <g>
       <use style="stroke:#000000;stroke-width:0.5;" x="250.56" xlink:href="#mc7db9fdffb" y="388.8"/>
      </g>
     </g>
     <g id="line2d_11">
      <g>
       <use style="stroke:#000000;stroke-width:0.5;" x="250.56" xlink:href="#m5a7d422ac3" y="43.2"/>
      </g>
     </g>
     <g id="text_3">
      <!-- 2000 -->
      <defs>
       <path d="
M57.0781 0
L7.85938 0
L7.85938 10.2031
Q12.9844 14.5938 18.1406 18.9844
Q23.2969 23.3906 27.7344 27.7344
Q37.1094 36.8125 40.5781 42.1562
Q44.0469 47.5156 44.0469 53.7188
Q44.0469 59.375 40.3125 62.5625
Q36.5781 65.7656 29.8906 65.7656
Q25.4375 65.7656 20.2656 64.2031
Q15.0938 62.6406 10.1562 59.4219
L9.67188 59.4219
L9.67188 69.6719
Q13.1406 71.3906 18.9219 72.7969
Q24.7031 74.2188 30.125 74.2188
Q41.3125 74.2188 47.6562 68.8125
Q54 63.4219 54 54.2031
Q54 50.0469 52.9531 46.4531
Q51.9062 42.875 49.8594 39.6562
Q47.9531 36.625 45.3906 33.6875
Q42.8281 30.7656 39.1562 27.2031
Q33.9375 22.0781 28.3594 17.2656
Q22.7969 12.4531 17.9688 8.34375
L57.0781 8.34375
z
" id="Verdana-32"/>
      </defs>
      <g transform="translate(236.1684375 401.918125)scale(0.12 -0.12)">
       <use xlink:href="#Verdana-32"/>
       <use x="63.57421875" xlink:href="#Verdana-30"/>
       <use x="127.1484375" xlink:href="#Verdana-30"/>
       <use x="190.72265625" xlink:href="#Verdana-30"/>
      </g>
     </g>
    </g>
    <g id="xtick_4">
     <g id="line2d_12">
      <g>
       <use style="stroke:#000000;stroke-width:0.5;" x="339.84" xlink:href="#mc7db9fdffb" y="388.8"/>
      </g>
     </g>
     <g id="line2d_13">
      <g>
       <use style="stroke:#000000;stroke-width:0.5;" x="339.84" xlink:href="#m5a7d422ac3" y="43.2"/>
      </g>
     </g>
     <g id="text_4">
      <!-- 3000 -->
      <defs>
       <path d="
M50.6875 35.0156
Q53.0312 32.9062 54.5469 29.7344
Q56.0625 26.5625 56.0625 21.5312
Q56.0625 16.5469 54.25 12.3906
Q52.4375 8.25 49.1719 5.17188
Q45.5156 1.76562 40.5469 0.125
Q35.5938 -1.51562 29.6875 -1.51562
Q23.6406 -1.51562 17.7812 -0.0625
Q11.9219 1.375 8.15625 3.07812
L8.15625 13.2812
L8.89062 13.2812
Q13.0312 10.5469 18.6406 8.73438
Q24.2656 6.9375 29.5 6.9375
Q32.5625 6.9375 36.0312 7.95312
Q39.5 8.98438 41.6562 10.9844
Q43.8906 13.1406 44.9844 15.7188
Q46.0938 18.3125 46.0938 22.2656
Q46.0938 26.1719 44.8438 28.7344
Q43.6094 31.2969 41.4062 32.7656
Q39.2031 34.2812 36.0781 34.8438
Q32.9531 35.4062 29.3438 35.4062
L24.9531 35.4062
L24.9531 43.5
L28.375 43.5
Q35.7969 43.5 40.2031 46.5938
Q44.625 49.7031 44.625 55.6719
Q44.625 58.2969 43.5 60.2656
Q42.3906 62.25 40.375 63.5312
Q38.2812 64.7969 35.8906 65.2812
Q33.5 65.7656 30.4688 65.7656
Q25.8281 65.7656 20.5938 64.1094
Q15.375 62.4531 10.75 59.4219
L10.25 59.4219
L10.25 69.625
Q13.7188 71.3438 19.5 72.7812
Q25.2969 74.2188 30.7188 74.2188
Q36.0312 74.2188 40.0781 73.2344
Q44.1406 72.2656 47.4062 70.125
Q50.9219 67.7812 52.7344 64.4531
Q54.5469 61.1406 54.5469 56.6875
Q54.5469 50.6406 50.2656 46.125
Q46 41.6094 40.1875 40.4375
L40.1875 39.75
Q42.5312 39.3594 45.5469 38.1094
Q48.5781 36.8594 50.6875 35.0156" id="Verdana-33"/>
      </defs>
      <g transform="translate(325.46625 401.918125)scale(0.12 -0.12)">
       <use xlink:href="#Verdana-33"/>
       <use x="63.57421875" xlink:href="#Verdana-30"/>
       <use x="127.1484375" xlink:href="#Verdana-30"/>
       <use x="190.72265625" xlink:href="#Verdana-30"/>
      </g>
     </g>
    </g>
    <g id="xtick_5">
     <g id="line2d_14">
      <g>
       <use style="stroke:#000000;stroke-width:0.5;" x="429.12" xlink:href="#mc7db9fdffb" y="388.8"/>
      </g>
     </g>
     <g id="line2d_15">
      <g>
       <use style="stroke:#000000;stroke-width:0.5;" x="429.12" xlink:href="#m5a7d422ac3" y="43.2"/>
      </g>
     </g>
     <g id="text_5">
      <!-- 4000 -->
      <defs>
       <path d="
M58.7344 20.4531
L47.9531 20.4531
L47.9531 0
L38.5781 0
L38.5781 20.4531
L3.76562 20.4531
L3.76562 31.6875
L38.9688 72.7031
L47.9531 72.7031
L47.9531 28.2656
L58.7344 28.2656
z

M38.5781 28.2656
L38.5781 61.0781
L10.4062 28.2656
z
" id="Verdana-34"/>
      </defs>
      <g transform="translate(414.4828125 401.918125)scale(0.12 -0.12)">
       <use xlink:href="#Verdana-34"/>
       <use x="63.57421875" xlink:href="#Verdana-30"/>
       <use x="127.1484375" xlink:href="#Verdana-30"/>
       <use x="190.72265625" xlink:href="#Verdana-30"/>
      </g>
     </g>
    </g>
    <g id="xtick_6">
     <g id="line2d_16">
      <g>
       <use style="stroke:#000000;stroke-width:0.5;" x="518.4" xlink:href="#mc7db9fdffb" y="388.8"/>
      </g>
     </g>
     <g id="line2d_17">
      <g>
       <use style="stroke:#000000;stroke-width:0.5;" x="518.4" xlink:href="#m5a7d422ac3" y="43.2"/>
      </g>
     </g>
     <g id="text_6">
      <!-- 5000 -->
      <defs>
       <path d="
M56.5 23.0938
Q56.5 18.0156 54.6406 13.375
Q52.7812 8.73438 49.5625 5.5625
Q46.0469 2.15625 41.1875 0.3125
Q36.3281 -1.51562 29.9375 -1.51562
Q23.9688 -1.51562 18.4531 -0.265625
Q12.9375 0.984375 9.125 2.73438
L9.125 13.0312
L9.8125 13.0312
Q13.8125 10.5 19.1875 8.71875
Q24.5625 6.9375 29.7344 6.9375
Q33.2031 6.9375 36.4531 7.90625
Q39.7031 8.89062 42.2344 11.3281
Q44.3906 13.4219 45.4844 16.3438
Q46.5781 19.2812 46.5781 23.1406
Q46.5781 26.9062 45.2812 29.4844
Q44 32.0781 41.7031 33.6406
Q39.1562 35.5 35.5156 36.25
Q31.8906 37.0156 27.3906 37.0156
Q23.0938 37.0156 19.1094 36.4219
Q15.1406 35.8438 12.25 35.25
L12.25 72.7031
L56 72.7031
L56 64.1562
L21.6875 64.1562
L21.6875 44.8281
Q23.7812 45.0156 25.9688 45.1094
Q28.1719 45.2188 29.7812 45.2188
Q35.6875 45.2188 40.125 44.2188
Q44.5781 43.2188 48.2969 40.6719
Q52.2031 37.9844 54.3438 33.7344
Q56.5 29.5 56.5 23.0938" id="Verdana-35"/>
      </defs>
      <g transform="translate(504.084375 401.918125)scale(0.12 -0.12)">
       <use xlink:href="#Verdana-35"/>
       <use x="63.57421875" xlink:href="#Verdana-30"/>
       <use x="127.1484375" xlink:href="#Verdana-30"/>
       <use x="190.72265625" xlink:href="#Verdana-30"/>
      </g>
     </g>
    </g>
    <g id="text_7">
     <!-- Objective function exectuions -->
     <defs>
      <path d="
M63.9688 64.3594
Q68.4062 59.4688 70.7656 52.3906
Q73.1406 45.3125 73.1406 36.3281
Q73.1406 27.3438 70.7188 20.2344
Q68.3125 13.1406 63.9688 8.40625
Q59.4688 3.46875 53.3438 0.96875
Q47.2188 -1.51562 39.3594 -1.51562
Q31.6875 -1.51562 25.4062 1.01562
Q19.1406 3.5625 14.75 8.40625
Q10.3594 13.2344 7.98438 20.2656
Q5.60938 27.2969 5.60938 36.3281
Q5.60938 45.2188 7.95312 52.2656
Q10.2969 59.3281 14.7969 64.3594
Q19.0938 69.1406 25.4688 71.6719
Q31.8438 74.2188 39.3594 74.2188
Q47.1719 74.2188 53.3906 71.6562
Q59.625 69.0938 63.9688 64.3594
M63.0938 36.3281
Q63.0938 50.4844 56.7344 58.1719
Q50.3906 65.875 39.4062 65.875
Q28.3281 65.875 22 58.1719
Q15.6719 50.4844 15.6719 36.3281
Q15.6719 22.0156 22.1094 14.4219
Q28.5625 6.84375 39.4062 6.84375
Q50.25 6.84375 56.6719 14.4219
Q63.0938 22.0156 63.0938 36.3281" id="Verdana-4f"/>
      <path d="
M38.375 67.0938
L37.8906 67.0938
Q36.375 67.5312 33.9375 67.9844
Q31.5 68.4531 29.6406 68.4531
Q23.7344 68.4531 21.0625 65.8438
Q18.4062 63.2344 18.4062 56.3906
L18.4062 54.5469
L34.9688 54.5469
L34.9688 46.8281
L18.7031 46.8281
L18.7031 0
L9.51562 0
L9.51562 46.8281
L3.32812 46.8281
L3.32812 54.5469
L9.51562 54.5469
L9.51562 56.3438
Q9.51562 66.0625 14.3438 71.2656
Q19.1875 76.4688 28.3281 76.4688
Q31.3906 76.4688 33.8594 76.1719
Q36.3281 75.875 38.375 75.4844
z
" id="Verdana-66"/>
      <path d="
M56.25 0
L44.6719 0
L29.2031 20.9531
L13.625 0
L2.9375 0
L24.2188 27.2031
L3.125 54.5469
L14.7031 54.5469
L30.0781 33.9375
L45.5156 54.5469
L56.25 54.5469
L34.8125 27.6875
z
" id="Verdana-78"/>
      <path d="
M54.6406 0
L45.4531 0
L45.4531 31.0625
Q45.4531 34.8125 45.0156 38.1094
Q44.5781 41.4062 43.4062 43.2656
Q42.1875 45.3125 39.8906 46.3125
Q37.5938 47.3125 33.9375 47.3125
Q30.1719 47.3125 26.0625 45.4531
Q21.9688 43.6094 18.2188 40.7188
L18.2188 0
L9.03125 0
L9.03125 54.5469
L18.2188 54.5469
L18.2188 48.4844
Q22.5156 52.0469 27.0938 54.0469
Q31.6875 56.0625 36.5312 56.0625
Q45.3594 56.0625 50 50.7344
Q54.6406 45.4062 54.6406 35.4062
z
" id="Verdana-6e"/>
      <path d="
M18.8906 63.6719
L8.54688 63.6719
L8.54688 73.1875
L18.8906 73.1875
z

M18.3125 0
L9.125 0
L9.125 54.5469
L18.3125 54.5469
z
" id="Verdana-69"/>
      <path d="
M56.2031 54.5469
L34.125 0
L24.9062 0
L2.98438 54.5469
L12.9375 54.5469
L29.8281 11.1406
L46.5781 54.5469
z
" id="Verdana-76"/>
      <path d="
M37.3594 0.484375
Q34.7656 -0.203125 31.7031 -0.640625
Q28.6562 -1.07812 26.2656 -1.07812
Q17.9219 -1.07812 13.5781 3.40625
Q9.23438 7.90625 9.23438 17.8281
L9.23438 46.8281
L3.03125 46.8281
L3.03125 54.5469
L9.23438 54.5469
L9.23438 70.2188
L18.4062 70.2188
L18.4062 54.5469
L37.3594 54.5469
L37.3594 46.8281
L18.4062 46.8281
L18.4062 21.9688
Q18.4062 17.6719 18.5938 15.25
Q18.7969 12.8438 19.9688 10.75
Q21.0469 8.79688 22.9219 7.89062
Q24.8125 6.98438 28.6562 6.98438
Q30.9062 6.98438 33.3438 7.64062
Q35.7969 8.29688 36.8594 8.73438
L37.3594 8.73438
z
" id="Verdana-74"/>
      <path d="
M54.6875 26.3125
L14.5 26.3125
Q14.5 21.2969 16.0156 17.5469
Q17.5312 13.8125 20.1719 11.4219
Q22.7031 9.07812 26.1875 7.90625
Q29.6875 6.73438 33.8906 6.73438
Q39.4531 6.73438 45.0938 8.95312
Q50.7344 11.1875 53.125 13.3281
L53.6094 13.3281
L53.6094 3.32812
Q48.9688 1.375 44.1406 0.046875
Q39.3125 -1.26562 33.9844 -1.26562
Q20.4062 -1.26562 12.7812 6.07812
Q5.17188 13.4219 5.17188 26.9531
Q5.17188 40.3281 12.4688 48.1875
Q19.7812 56.0625 31.6875 56.0625
Q42.7188 56.0625 48.7031 49.6094
Q54.6875 43.1719 54.6875 31.2969
z

M45.75 33.3438
Q45.7031 40.5781 42.1094 44.5312
Q38.5312 48.4844 31.2031 48.4844
Q23.8281 48.4844 19.4531 44.1406
Q15.0938 39.7969 14.5 33.3438
z
" id="Verdana-65"/>
      <path d="
M26.0312 63.6719
L15.6719 63.6719
L15.6719 73.1875
L26.0312 73.1875
z

M25.4375 -1.3125
Q25.4375 -10.8906 20.5469 -15.7656
Q15.6719 -20.6562 7.46875 -20.6562
Q5.51562 -20.6562 2.3125 -20.2656
Q-0.875 -19.875 -3.03125 -19.2812
L-3.03125 -10.5469
L-2.54688 -10.5469
Q-1.17188 -11.0781 1.14062 -11.7656
Q3.46875 -12.4531 5.67188 -12.4531
Q9.1875 -12.4531 11.3281 -11.4688
Q13.4844 -10.5 14.5469 -8.54688
Q15.625 -6.59375 15.9375 -3.82812
Q16.2656 -1.07812 16.2656 2.875
L16.2656 46.8281
L4.89062 46.8281
L4.89062 54.5469
L25.4375 54.5469
z
" id="Verdana-6a"/>
      <path d="
M55.5156 27.25
Q55.5156 13.9219 48.6719 6.20312
Q41.8438 -1.51562 30.375 -1.51562
Q18.7969 -1.51562 11.9844 6.20312
Q5.17188 13.9219 5.17188 27.25
Q5.17188 40.5781 11.9844 48.3125
Q18.7969 56.0625 30.375 56.0625
Q41.8438 56.0625 48.6719 48.3125
Q55.5156 40.5781 55.5156 27.25
M46.0469 27.25
Q46.0469 37.8438 41.8906 42.9844
Q37.75 48.1406 30.375 48.1406
Q22.9062 48.1406 18.7812 42.9844
Q14.6562 37.8438 14.6562 27.25
Q14.6562 17 18.7969 11.6875
Q22.9531 6.39062 30.375 6.39062
Q37.7031 6.39062 41.875 11.6406
Q46.0469 16.8906 46.0469 27.25" id="Verdana-6f"/>
      <path d="
M49.3594 3.42188
Q44.7812 1.21875 40.6562 0
Q36.5312 -1.21875 31.8906 -1.21875
Q25.9844 -1.21875 21.0469 0.515625
Q16.1094 2.25 12.5938 5.76562
Q9.03125 9.28125 7.07812 14.6406
Q5.125 20.0156 5.125 27.2031
Q5.125 40.5781 12.4688 48.1875
Q19.8281 55.8125 31.8906 55.8125
Q36.5781 55.8125 41.0938 54.4844
Q45.6094 53.1719 49.3594 51.2656
L49.3594 41.0625
L48.875 41.0625
Q44.6719 44.3438 40.2031 46.0938
Q35.75 47.8594 31.5 47.8594
Q23.6875 47.8594 19.1719 42.6094
Q14.6562 37.3594 14.6562 27.2031
Q14.6562 17.3281 19.0625 12.0312
Q23.4844 6.73438 31.5 6.73438
Q34.2812 6.73438 37.1562 7.46875
Q40.0469 8.20312 42.3281 9.375
Q44.3438 10.4062 46.0938 11.5469
Q47.8594 12.7031 48.875 13.5312
L49.3594 13.5312
z
" id="Verdana-63"/>
      <path d="
M48 15.7188
Q48 8.25 41.8125 3.46875
Q35.6406 -1.3125 24.9531 -1.3125
Q18.8906 -1.3125 13.8438 0.125
Q8.79688 1.5625 5.375 3.26562
L5.375 13.5781
L5.85938 13.5781
Q10.2031 10.2969 15.5156 8.375
Q20.8438 6.45312 25.7344 6.45312
Q31.7812 6.45312 35.2031 8.40625
Q38.625 10.3594 38.625 14.5469
Q38.625 17.7812 36.7656 19.4375
Q34.9062 21.0938 29.6406 22.2656
Q27.6875 22.7031 24.5312 23.2812
Q21.3906 23.875 18.7969 24.5625
Q11.625 26.4688 8.60938 30.1562
Q5.60938 33.8438 5.60938 39.2031
Q5.60938 42.5781 7 45.5469
Q8.40625 48.5312 11.2344 50.875
Q13.9688 53.1719 18.1875 54.5156
Q22.4062 55.8594 27.6406 55.8594
Q32.5156 55.8594 37.5156 54.6562
Q42.5312 53.4688 45.8438 51.7656
L45.8438 41.9375
L45.3594 41.9375
Q41.8438 44.5312 36.8125 46.3125
Q31.7812 48.0938 26.9531 48.0938
Q21.9219 48.0938 18.4531 46.1562
Q14.9844 44.2344 14.9844 40.4375
Q14.9844 37.0625 17.0938 35.3594
Q19.1406 33.6406 23.7344 32.5625
Q26.2656 31.9844 29.4062 31.3906
Q32.5625 30.8125 34.6719 30.3281
Q41.0625 28.8594 44.5312 25.2969
Q48 21.6875 48 15.7188" id="Verdana-73"/>
      <path id="Verdana-20"/>
      <path d="
M57.0312 27.6875
Q57.0312 20.8438 55.0938 15.375
Q53.1719 9.90625 49.9062 6.20312
Q46.4375 2.34375 42.2812 0.40625
Q38.1406 -1.51562 33.1562 -1.51562
Q28.5156 -1.51562 25.0469 -0.40625
Q21.5781 0.6875 18.2188 2.54688
L17.625 0
L9.03125 0
L9.03125 75.9844
L18.2188 75.9844
L18.2188 48.8281
Q22.0781 52 26.4219 54.0312
Q30.7656 56.0625 36.1875 56.0625
Q45.8438 56.0625 51.4375 48.6406
Q57.0312 41.2188 57.0312 27.6875
M47.5625 27.4375
Q47.5625 37.2031 44.3281 42.25
Q41.1094 47.3125 33.9375 47.3125
Q29.9375 47.3125 25.8281 45.5781
Q21.7344 43.8438 18.2188 41.1094
L18.2188 9.85938
Q22.125 8.10938 24.9219 7.42188
Q27.7344 6.73438 31.2969 6.73438
Q38.9219 6.73438 43.2344 11.7344
Q47.5625 16.75 47.5625 27.4375" id="Verdana-62"/>
      <path d="
M54.25 0
L45.0625 0
L45.0625 6.0625
Q40.4375 2.39062 36.1875 0.4375
Q31.9375 -1.51562 26.8125 -1.51562
Q18.2188 -1.51562 13.4219 3.73438
Q8.64062 8.98438 8.64062 19.1406
L8.64062 54.5469
L17.8281 54.5469
L17.8281 23.4844
Q17.8281 19.3438 18.2188 16.375
Q18.6094 13.4219 19.875 11.3281
Q21.1875 9.1875 23.2812 8.20312
Q25.3906 7.23438 29.3906 7.23438
Q32.9531 7.23438 37.1719 9.07812
Q41.4062 10.9375 45.0625 13.8125
L45.0625 54.5469
L54.25 54.5469
z
" id="Verdana-75"/>
     </defs>
     <g transform="translate(206.5078125 418.509375)scale(0.12 -0.12)">
      <use xlink:href="#Verdana-4f"/>
      <use x="78.7109375" xlink:href="#Verdana-62"/>
      <use x="141.015625" xlink:href="#Verdana-6a"/>
      <use x="175.439453125" xlink:href="#Verdana-65"/>
      <use x="235.009765625" xlink:href="#Verdana-63"/>
      <use x="287.109375" xlink:href="#Verdana-74"/>
      <use x="326.513671875" xlink:href="#Verdana-69"/>
      <use x="353.955078125" xlink:href="#Verdana-76"/>
      <use x="412.259765625" xlink:href="#Verdana-65"/>
      <use x="471.830078125" xlink:href="#Verdana-20"/>
      <use x="506.986328125" xlink:href="#Verdana-66"/>
      <use x="542.142578125" xlink:href="#Verdana-75"/>
      <use x="605.423828125" xlink:href="#Verdana-6e"/>
      <use x="668.705078125" xlink:href="#Verdana-63"/>
      <use x="720.8046875" xlink:href="#Verdana-74"/>
      <use x="760.208984375" xlink:href="#Verdana-69"/>
      <use x="787.650390625" xlink:href="#Verdana-6f"/>
      <use x="848.34375" xlink:href="#Verdana-6e"/>
      <use x="911.625" xlink:href="#Verdana-20"/>
      <use x="946.78125" xlink:href="#Verdana-65"/>
      <use x="1006.3515625" xlink:href="#Verdana-78"/>
      <use x="1064.40625" xlink:href="#Verdana-65"/>
      <use x="1123.9765625" xlink:href="#Verdana-63"/>
      <use x="1176.076171875" xlink:href="#Verdana-74"/>
      <use x="1215.48046875" xlink:href="#Verdana-75"/>
      <use x="1278.76171875" xlink:href="#Verdana-69"/>
      <use x="1306.203125" xlink:href="#Verdana-6f"/>
      <use x="1366.896484375" xlink:href="#Verdana-6e"/>
      <use x="1430.177734375" xlink:href="#Verdana-73"/>
     </g>
    </g>
   </g>
   <g id="matplotlib.axis_2">
    <g id="ytick_1">
     <g id="line2d_18">
      <defs>
       <path d="
M0 0
L4 0" id="md7965d1ba0" style="stroke:#000000;stroke-width:0.5;"/>
      </defs>
      <g>
       <use style="stroke:#000000;stroke-width:0.5;" x="72.0" xlink:href="#md7965d1ba0" y="388.8"/>
      </g>
     </g>
     <g id="line2d_19">
      <defs>
       <path d="
M0 0
L-4 0" id="md9a1c1a7cd" style="stroke:#000000;stroke-width:0.5;"/>
      </defs>
      <g>
       <use style="stroke:#000000;stroke-width:0.5;" x="518.4" xlink:href="#md9a1c1a7cd" y="388.8"/>
      </g>
     </g>
     <g id="text_8">
      <!-- 0.0 -->
      <defs>
       <path d="
M24.0312 0
L12.3594 0
L12.3594 13.9219
L24.0312 13.9219
z
" id="Verdana-2e"/>
      </defs>
      <g transform="translate(49.97 392.1515625)scale(0.12 -0.12)">
       <use xlink:href="#Verdana-30"/>
       <use x="63.57421875" xlink:href="#Verdana-2e"/>
       <use x="99.951171875" xlink:href="#Verdana-30"/>
      </g>
     </g>
    </g>
    <g id="ytick_2">
     <g id="line2d_20">
      <g>
       <use style="stroke:#000000;stroke-width:0.5;" x="72.0" xlink:href="#md7965d1ba0" y="319.68"/>
      </g>
     </g>
     <g id="line2d_21">
      <g>
       <use style="stroke:#000000;stroke-width:0.5;" x="518.4" xlink:href="#md9a1c1a7cd" y="319.68"/>
      </g>
     </g>
     <g id="text_9">
      <!-- 0.2 -->
      <g transform="translate(49.95875 323.0315625)scale(0.12 -0.12)">
       <use xlink:href="#Verdana-30"/>
       <use x="63.57421875" xlink:href="#Verdana-2e"/>
       <use x="99.951171875" xlink:href="#Verdana-32"/>
      </g>
     </g>
    </g>
    <g id="ytick_3">
     <g id="line2d_22">
      <g>
       <use style="stroke:#000000;stroke-width:0.5;" x="72.0" xlink:href="#md7965d1ba0" y="250.56"/>
      </g>
     </g>
     <g id="line2d_23">
      <g>
       <use style="stroke:#000000;stroke-width:0.5;" x="518.4" xlink:href="#md9a1c1a7cd" y="250.56"/>
      </g>
     </g>
     <g id="text_10">
      <!-- 0.4 -->
      <g transform="translate(49.76 253.9115625)scale(0.12 -0.12)">
       <use xlink:href="#Verdana-30"/>
       <use x="63.57421875" xlink:href="#Verdana-2e"/>
       <use x="99.951171875" xlink:href="#Verdana-34"/>
      </g>
     </g>
    </g>
    <g id="ytick_4">
     <g id="line2d_24">
      <g>
       <use style="stroke:#000000;stroke-width:0.5;" x="72.0" xlink:href="#md7965d1ba0" y="181.44"/>
      </g>
     </g>
     <g id="line2d_25">
      <g>
       <use style="stroke:#000000;stroke-width:0.5;" x="518.4" xlink:href="#md9a1c1a7cd" y="181.44"/>
      </g>
     </g>
     <g id="text_11">
      <!-- 0.6 -->
      <defs>
       <path d="
M58.1562 23.5781
Q58.1562 12.5 50.8594 5.48438
Q43.5625 -1.51562 32.9531 -1.51562
Q27.5938 -1.51562 23.1875 0.140625
Q18.7969 1.8125 15.4375 5.07812
Q11.2344 9.125 8.95312 15.8125
Q6.6875 22.5156 6.6875 31.9375
Q6.6875 41.6094 8.76562 49.0781
Q10.8438 56.5469 15.375 62.3594
Q19.6719 67.875 26.4531 70.9688
Q33.25 74.0781 42.2812 74.0781
Q45.1719 74.0781 47.125 73.8281
Q49.0781 73.5781 51.0781 72.9531
L51.0781 63.625
L50.5938 63.625
Q49.2188 64.3594 46.4531 65.0156
Q43.7031 65.6719 40.8281 65.6719
Q30.3281 65.6719 24.0781 59.1094
Q17.8281 52.5469 16.7969 41.3594
Q20.9062 43.8438 24.875 45.1406
Q28.8594 46.4375 34.0781 46.4375
Q38.7188 46.4375 42.25 45.5781
Q45.7969 44.7344 49.5156 42.1406
Q53.8125 39.1562 55.9844 34.6094
Q58.1562 30.0781 58.1562 23.5781
M48.25 23.1875
Q48.25 27.7344 46.9062 30.7031
Q45.5625 33.6875 42.4844 35.8906
Q40.2344 37.4531 37.5 37.9375
Q34.7656 38.4219 31.7812 38.4219
Q27.6406 38.4219 24.0781 37.4375
Q20.5156 36.4688 16.75 34.4219
Q16.6562 33.3438 16.5938 32.3438
Q16.5469 31.3438 16.5469 29.8281
Q16.5469 22.125 18.1406 17.6562
Q19.7344 13.1875 22.5156 10.5938
Q24.75 8.45312 27.3594 7.45312
Q29.9844 6.45312 33.0625 6.45312
Q40.1406 6.45312 44.1875 10.7656
Q48.25 15.0938 48.25 23.1875" id="Verdana-36"/>
      </defs>
      <g transform="translate(49.829375 184.7915625)scale(0.12 -0.12)">
       <use xlink:href="#Verdana-30"/>
       <use x="63.57421875" xlink:href="#Verdana-2e"/>
       <use x="99.951171875" xlink:href="#Verdana-36"/>
      </g>
     </g>
    </g>
    <g id="ytick_5">
     <g id="line2d_26">
      <g>
       <use style="stroke:#000000;stroke-width:0.5;" x="72.0" xlink:href="#md7965d1ba0" y="112.32"/>
      </g>
     </g>
     <g id="line2d_27">
      <g>
       <use style="stroke:#000000;stroke-width:0.5;" x="518.4" xlink:href="#md9a1c1a7cd" y="112.32"/>
      </g>
     </g>
     <g id="text_12">
      <!-- 0.8 -->
      <defs>
       <path d="
M57.625 20.2656
Q57.625 10.8438 50.2656 4.59375
Q42.9219 -1.65625 31.7812 -1.65625
Q19.9688 -1.65625 12.9531 4.4375
Q5.95312 10.5469 5.95312 20.0625
Q5.95312 26.125 9.46875 31.0312
Q12.9844 35.9375 19.3906 38.8125
L19.3906 39.1094
Q13.5312 42.2344 10.7188 45.9375
Q7.90625 49.6562 7.90625 55.2188
Q7.90625 63.4219 14.6406 68.8906
Q21.3906 74.3594 31.7812 74.3594
Q42.6719 74.3594 49.1719 69.1406
Q55.6719 63.9219 55.6719 55.8594
Q55.6719 50.9219 52.5938 46.1562
Q49.5156 41.4062 43.5625 38.7188
L43.5625 38.4219
Q50.3906 35.5 54 31.2031
Q57.625 26.9062 57.625 20.2656
M46.0469 55.7656
Q46.0469 60.9844 42.0156 64.0781
Q37.9844 67.1875 31.7344 67.1875
Q25.5938 67.1875 21.6562 64.25
Q17.7188 61.3281 17.7188 56.3438
Q17.7188 52.8281 19.7031 50.2656
Q21.6875 47.7031 25.6875 45.7031
Q27.4844 44.8281 30.875 43.4062
Q34.2812 42 37.5 41.0625
Q42.3281 44.2812 44.1875 47.75
Q46.0469 51.2188 46.0469 55.7656
M47.5625 19.3438
Q47.5625 23.8281 45.5781 26.5312
Q43.6094 29.25 37.8438 31.9844
Q35.5469 33.0625 32.8125 33.9844
Q30.0781 34.9062 25.5312 36.5781
Q21.1406 34.1875 18.4844 30.0781
Q15.8281 25.9844 15.8281 20.7969
Q15.8281 14.2031 20.3594 9.90625
Q24.9062 5.60938 31.8906 5.60938
Q39.0156 5.60938 43.2812 9.26562
Q47.5625 12.9375 47.5625 19.3438" id="Verdana-38"/>
      </defs>
      <g transform="translate(49.893125 115.6715625)scale(0.12 -0.12)">
       <use xlink:href="#Verdana-30"/>
       <use x="63.57421875" xlink:href="#Verdana-2e"/>
       <use x="99.951171875" xlink:href="#Verdana-38"/>
      </g>
     </g>
    </g>
    <g id="ytick_6">
     <g id="line2d_28">
      <g>
       <use style="stroke:#000000;stroke-width:0.5;" x="72.0" xlink:href="#md7965d1ba0" y="43.2"/>
      </g>
     </g>
     <g id="line2d_29">
      <g>
       <use style="stroke:#000000;stroke-width:0.5;" x="518.4" xlink:href="#md9a1c1a7cd" y="43.2"/>
      </g>
     </g>
     <g id="text_13">
      <!-- 1.0 -->
      <g transform="translate(50.796875 46.5515625)scale(0.12 -0.12)">
       <use xlink:href="#Verdana-31"/>
       <use x="63.57421875" xlink:href="#Verdana-2e"/>
       <use x="99.951171875" xlink:href="#Verdana-30"/>
      </g>
     </g>
    </g>
    <g id="text_14">
     <!-- Data Profile T-0.1000000 -->
     <defs>
      <path d="
M18.3125 0
L9.125 0
L9.125 75.9844
L18.3125 75.9844
z
" id="Verdana-6c"/>
      <path d="
M57.3281 50.7344
Q57.3281 45.9062 55.6406 41.7656
Q53.9531 37.6406 50.9219 34.625
Q47.1719 30.8594 42.0469 28.9688
Q36.9219 27.0938 29.1094 27.0938
L19.4375 27.0938
L19.4375 0
L9.76562 0
L9.76562 72.7031
L29.5 72.7031
Q36.0312 72.7031 40.5781 71.6094
Q45.125 70.5156 48.6406 68.1719
Q52.7812 65.375 55.0469 61.2188
Q57.3281 57.0781 57.3281 50.7344
M47.2656 50.4844
Q47.2656 54.25 45.9375 57.0312
Q44.625 59.8125 41.9375 61.5781
Q39.5938 63.0938 36.5938 63.75
Q33.5938 64.4062 29 64.4062
L19.4375 64.4062
L19.4375 35.3594
L27.5938 35.3594
Q33.4531 35.3594 37.1094 36.4062
Q40.7656 37.4531 43.0625 39.75
Q45.3594 42.0938 46.3125 44.6719
Q47.2656 47.2656 47.2656 50.4844" id="Verdana-50"/>
      <path d="
M71.1875 36.2812
Q71.1875 26.375 66.8594 18.3125
Q62.5469 10.25 55.375 5.8125
Q50.3906 2.73438 44.2656 1.35938
Q38.1406 0 28.125 0
L9.76562 0
L9.76562 72.7031
L27.9375 72.7031
Q38.5781 72.7031 44.8438 71.1562
Q51.125 69.625 55.4688 66.9375
Q62.8906 62.3125 67.0312 54.5938
Q71.1875 46.875 71.1875 36.2812
M61.0781 36.4219
Q61.0781 44.9688 58.0938 50.8281
Q55.125 56.6875 49.2188 60.0625
Q44.9219 62.5 40.0781 63.4531
Q35.25 64.4062 28.5156 64.4062
L19.4375 64.4062
L19.4375 8.29688
L28.5156 8.29688
Q35.5 8.29688 40.7031 9.32812
Q45.9062 10.3594 50.25 13.1406
Q55.6719 16.6094 58.375 22.2656
Q61.0781 27.9375 61.0781 36.4219" id="Verdana-44"/>
      <path d="
M61.625 64.1094
L35.6406 64.1094
L35.6406 0
L25.9844 0
L25.9844 64.1094
L0 64.1094
L0 72.7031
L61.625 72.7031
z
" id="Verdana-54"/>
      <path d="
M37.9375 27.3906
L7.46875 27.3906
L7.46875 36.2344
L37.9375 36.2344
z
" id="Verdana-2d"/>
      <path d="
M51.4219 0
L42.2812 0
L42.2812 5.8125
Q41.0625 4.98438 38.9844 3.48438
Q36.9219 2 34.9688 1.125
Q32.6719 0 29.6875 -0.75
Q26.7031 -1.51562 22.7031 -1.51562
Q15.3281 -1.51562 10.2031 3.35938
Q5.07812 8.25 5.07812 15.8281
Q5.07812 22.0156 7.73438 25.8438
Q10.4062 29.6875 15.3281 31.8906
Q20.3125 34.0781 27.2969 34.8594
Q34.2812 35.6406 42.2812 36.0312
L42.2812 37.4531
Q42.2812 40.5781 41.1875 42.625
Q40.0938 44.6719 38.0312 45.8438
Q36.0781 46.9688 33.3438 47.3594
Q30.6094 47.75 27.6406 47.75
Q24.0312 47.75 19.5781 46.7969
Q15.1406 45.8438 10.4062 44.0469
L9.90625 44.0469
L9.90625 53.375
Q12.5938 54.1094 17.6719 54.9844
Q22.75 55.8594 27.6875 55.8594
Q33.4531 55.8594 37.7188 54.9062
Q42 53.9531 45.125 51.6562
Q48.1875 49.4219 49.7969 45.8438
Q51.4219 42.2812 51.4219 37.0156
z

M42.2812 13.4219
L42.2812 28.6094
Q38.0938 28.375 32.3906 27.875
Q26.7031 27.3906 23.3906 26.4688
Q19.4375 25.3438 16.9844 22.9688
Q14.5469 20.6094 14.5469 16.4531
Q14.5469 11.7656 17.375 9.39062
Q20.2188 7.03125 26.0312 7.03125
Q30.8594 7.03125 34.8594 8.90625
Q38.875 10.7969 42.2812 13.4219" id="Verdana-61"/>
      <path d="
M43.0625 44.5312
L42.5781 44.5312
Q40.5312 45.0156 38.5938 45.2344
Q36.6719 45.4531 34.0312 45.4531
Q29.7812 45.4531 25.8281 43.5781
Q21.875 41.7031 18.2188 38.7188
L18.2188 0
L9.03125 0
L9.03125 54.5469
L18.2188 54.5469
L18.2188 46.4844
Q23.6875 50.875 27.8594 52.7031
Q32.0312 54.5469 36.375 54.5469
Q38.7656 54.5469 39.8438 54.4219
Q40.9219 54.2969 43.0625 53.9531
z
" id="Verdana-72"/>
     </defs>
     <g transform="translate(42.345 291.493125)rotate(-90.0)scale(0.12 -0.12)">
      <use xlink:href="#Verdana-44"/>
      <use x="77.05078125" xlink:href="#Verdana-61"/>
      <use x="137.109375" xlink:href="#Verdana-74"/>
      <use x="176.513671875" xlink:href="#Verdana-61"/>
      <use x="236.572265625" xlink:href="#Verdana-20"/>
      <use x="271.728515625" xlink:href="#Verdana-50"/>
      <use x="332.03125" xlink:href="#Verdana-72"/>
      <use x="374.70703125" xlink:href="#Verdana-6f"/>
      <use x="435.400390625" xlink:href="#Verdana-66"/>
      <use x="470.556640625" xlink:href="#Verdana-69"/>
      <use x="497.998046875" xlink:href="#Verdana-6c"/>
      <use x="525.439453125" xlink:href="#Verdana-65"/>
      <use x="585.009765625" xlink:href="#Verdana-20"/>
      <use x="620.166015625" xlink:href="#Verdana-54"/>
      <use x="674.412109375" xlink:href="#Verdana-2d"/>
      <use x="719.822265625" xlink:href="#Verdana-30"/>
      <use x="783.396484375" xlink:href="#Verdana-2e"/>
      <use x="819.7734375" xlink:href="#Verdana-31"/>
      <use x="883.34765625" xlink:href="#Verdana-30"/>
      <use x="946.921875" xlink:href="#Verdana-30"/>
      <use x="1010.49609375" xlink:href="#Verdana-30"/>
      <use x="1074.0703125" xlink:href="#Verdana-30"/>
      <use x="1137.64453125" xlink:href="#Verdana-30"/>
      <use x="1201.21875" xlink:href="#Verdana-30"/>
     </g>
    </g>
   </g>
   <g id="patch_3">
    <path d="
M72 43.2
L518.4 43.2" style="fill:none;stroke:#000000;"/>
   </g>
   <g id="patch_4">
    <path d="
M72 388.8
L72 43.2" style="fill:none;stroke:#000000;"/>
   </g>
   <g id="patch_5">
    <path d="
M72 388.8
L518.4 388.8" style="fill:none;stroke:#000000;"/>
   </g>
   <g id="patch_6">
    <path d="
M518.4 388.8
L518.4 43.2" style="fill:none;stroke:#000000;"/>
   </g>
   <g id="text_15">
    <!-- Ackley Data Profile T-0.1000000 -->
    <defs>
     <path d="
M67.0938 0
L56.7812 0
L49.6562 20.2656
L18.2188 20.2656
L11.0781 0
L1.26562 0
L27.7344 72.7031
L40.625 72.7031
z

M46.6875 28.5625
L33.9375 64.2656
L21.1406 28.5625
z
" id="Verdana-41"/>
     <path d="
M58.5469 0
L46.4375 0
L24.5625 23.875
L18.6094 18.2188
L18.6094 0
L9.42188 0
L9.42188 75.9844
L18.6094 75.9844
L18.6094 27.25
L45.125 54.5469
L56.6875 54.5469
L31.3438 29.3438
z
" id="Verdana-6b"/>
     <path d="
M56.2031 54.5469
L24.3594 -20.125
L14.5469 -20.125
L24.7031 2.64062
L2.98438 54.5469
L12.9375 54.5469
L29.6875 14.1094
L46.5781 54.5469
z
" id="Verdana-79"/>
    </defs>
    <g transform="translate(178.61625 38.2)scale(0.144 -0.144)">
     <use xlink:href="#Verdana-41"/>
     <use x="68.359375" xlink:href="#Verdana-63"/>
     <use x="120.458984375" xlink:href="#Verdana-6b"/>
     <use x="179.638671875" xlink:href="#Verdana-6c"/>
     <use x="207.080078125" xlink:href="#Verdana-65"/>
     <use x="266.650390625" xlink:href="#Verdana-79"/>
     <use x="325.830078125" xlink:href="#Verdana-20"/>
     <use x="360.986328125" xlink:href="#Verdana-44"/>
     <use x="438.037109375" xlink:href="#Verdana-61"/>
     <use x="498.095703125" xlink:href="#Verdana-74"/>
     <use x="537.5" xlink:href="#Verdana-61"/>
     <use x="597.55859375" xlink:href="#Verdana-20"/>
     <use x="632.71484375" xlink:href="#Verdana-50"/>
     <use x="693.017578125" xlink:href="#Verdana-72"/>
     <use x="735.693359375" xlink:href="#Verdana-6f"/>
     <use x="796.38671875" xlink:href="#Verdana-66"/>
     <use x="831.54296875" xlink:href="#Verdana-69"/>
     <use x="858.984375" xlink:href="#Verdana-6c"/>
     <use x="886.42578125" xlink:href="#Verdana-65"/>
     <use x="945.99609375" xlink:href="#Verdana-20"/>
     <use x="981.15234375" xlink:href="#Verdana-54"/>
     <use x="1035.3984375" xlink:href="#Verdana-2d"/>
     <use x="1080.80859375" xlink:href="#Verdana-30"/>
     <use x="1144.3828125" xlink:href="#Verdana-2e"/>
     <use x="1180.759765625" xlink:href="#Verdana-31"/>
     <use x="1244.333984375" xlink:href="#Verdana-30"/>
     <use x="1307.908203125" xlink:href="#Verdana-30"/>
     <use x="1371.482421875" xlink:href="#Verdana-30"/>
     <use x="1435.056640625" xlink:href="#Verdana-30"/>
     <use x="1498.630859375" xlink:href="#Verdana-30"/>
     <use x="1562.205078125" xlink:href="#Verdana-30"/>
    </g>
   </g>
   <g id="legend_1">
    <g id="patch_7">
     <path d="
M79.2 159.919
L183.22 159.919
L183.22 50.4
L79.2 50.4
L79.2 159.919
z
" style="fill:#ffffff;stroke:#000000;"/>
    </g>
    <g id="line2d_30">
     <path d="
M89.28 62.0617
L109.44 62.0617" style="fill:none;stroke:#0000ff;stroke-dasharray:6.000000,2.000000;stroke-dashoffset:0.0;"/>
    </g>
    <g id="line2d_31"/>
    <g id="text_16">
     <!-- AMPGO -->
     <defs>
      <path d="
M74.5156 0
L64.8438 0
L64.8438 62.6406
L44.625 20.0156
L38.875 20.0156
L18.7969 62.6406
L18.7969 0
L9.76562 0
L9.76562 72.7031
L22.9531 72.7031
L42.3281 32.2344
L61.0781 72.7031
L74.5156 72.7031
z
" id="Verdana-4d"/>
      <path d="
M70.4062 5.375
Q64.4531 2.64062 57.3906 0.609375
Q50.3438 -1.42188 43.75 -1.42188
Q35.25 -1.42188 28.1719 0.921875
Q21.0938 3.26562 16.1094 7.95312
Q11.0781 12.7031 8.34375 19.7969
Q5.60938 26.9062 5.60938 36.4219
Q5.60938 53.8594 15.7969 63.9375
Q25.9844 74.0312 43.75 74.0312
Q49.9531 74.0312 56.4219 72.5312
Q62.8906 71.0469 70.3594 67.4844
L70.3594 56
L69.4844 56
Q67.9688 57.1719 65.0781 59.0781
Q62.2031 60.9844 59.4219 62.25
Q56.0625 63.7656 51.7812 64.7656
Q47.5156 65.7656 42.0938 65.7656
Q29.8906 65.7656 22.7812 57.9219
Q15.6719 50.0938 15.6719 36.7188
Q15.6719 22.6094 23.0938 14.7656
Q30.5156 6.9375 43.3125 6.9375
Q48 6.9375 52.6562 7.85938
Q57.3281 8.79688 60.8438 10.25
L60.8438 28.0781
L41.3594 28.0781
L41.3594 36.5781
L70.4062 36.5781
z
" id="Verdana-47"/>
     </defs>
     <g transform="translate(125.28 67.10175)scale(0.144 -0.144)">
      <use xlink:href="#Verdana-41"/>
      <use x="68.359375" xlink:href="#Verdana-4d"/>
      <use x="152.63671875" xlink:href="#Verdana-50"/>
      <use x="212.939453125" xlink:href="#Verdana-47"/>
      <use x="290.478515625" xlink:href="#Verdana-4f"/>
     </g>
    </g>
    <g id="line2d_32">
     <path d="
M89.28 83.1015
L109.44 83.1015" style="fill:none;stroke:#008000;stroke-dasharray:1.000000,1.000000;stroke-dashoffset:0.0;"/>
    </g>
    <g id="line2d_33"/>
    <g id="text_17">
     <!-- Anneal -->
     <g transform="translate(125.28 88.1415)scale(0.144 -0.144)">
      <use xlink:href="#Verdana-41"/>
      <use x="68.359375" xlink:href="#Verdana-6e"/>
      <use x="131.640625" xlink:href="#Verdana-6e"/>
      <use x="194.921875" xlink:href="#Verdana-65"/>
      <use x="254.4921875" xlink:href="#Verdana-61"/>
      <use x="314.55078125" xlink:href="#Verdana-6c"/>
     </g>
    </g>
    <g id="line2d_34">
     <path d="
M89.28 104.141
L109.44 104.141" style="fill:none;stroke:#ff0000;stroke-dasharray:3.000000,6.000000;stroke-dashoffset:0.0;"/>
    </g>
    <g id="line2d_35"/>
    <g id="text_18">
     <!-- BSA -->
     <defs>
      <path d="
M64.5938 22.3594
Q64.5938 16.9375 62.5469 12.7812
Q60.5 8.64062 57.0312 5.95312
Q52.9375 2.73438 48.0156 1.35938
Q43.1094 0 35.5469 0
L9.76562 0
L9.76562 72.7031
L31.2969 72.7031
Q39.2656 72.7031 43.2188 72.1094
Q47.1719 71.5312 50.7812 69.6719
Q54.7812 67.5781 56.5938 64.2812
Q58.4062 60.9844 58.4062 56.3906
Q58.4062 51.2188 55.7656 47.5781
Q53.125 43.9531 48.7344 41.75
L48.7344 41.3594
Q56.1094 39.8438 60.3438 34.8906
Q64.5938 29.9375 64.5938 22.3594
M48.3438 55.125
Q48.3438 57.7656 47.4531 59.5625
Q46.5781 61.375 44.625 62.5
Q42.3281 63.8125 39.0625 64.125
Q35.7969 64.4531 30.9531 64.4531
L19.4375 64.4531
L19.4375 43.4531
L31.9375 43.4531
Q36.4688 43.4531 39.1562 43.9219
Q41.8438 44.3906 44.1406 45.8438
Q46.4375 47.3125 47.3906 49.625
Q48.3438 51.9531 48.3438 55.125
M54.5469 21.9688
Q54.5469 26.375 53.2188 28.9531
Q51.9062 31.5469 48.4375 33.3438
Q46.0938 34.5781 42.75 34.9375
Q39.4062 35.2969 34.625 35.2969
L19.4375 35.2969
L19.4375 8.25
L32.2344 8.25
Q38.5781 8.25 42.625 8.90625
Q46.6875 9.57812 49.2656 11.3281
Q52 13.2344 53.2656 15.6719
Q54.5469 18.1094 54.5469 21.9688" id="Verdana-42"/>
      <path d="
M62.5938 20.75
Q62.5938 16.5 60.6094 12.3438
Q58.6406 8.20312 55.0781 5.32812
Q51.1719 2.20312 45.9688 0.4375
Q40.7656 -1.3125 33.4531 -1.3125
Q25.5938 -1.3125 19.3125 0.140625
Q13.0312 1.60938 6.54688 4.5
L6.54688 16.6094
L7.23438 16.6094
Q12.75 12.0156 19.9688 9.51562
Q27.2031 7.03125 33.5469 7.03125
Q42.5312 7.03125 47.5312 10.3906
Q52.5469 13.7656 52.5469 19.3906
Q52.5469 24.2188 50.1719 26.5156
Q47.7969 28.8125 42.9688 30.0781
Q39.3125 31.0625 35.0312 31.6875
Q30.7656 32.3281 25.9844 33.2969
Q16.3125 35.3594 11.6406 40.3125
Q6.98438 45.2656 6.98438 53.2188
Q6.98438 62.3594 14.6875 68.1875
Q22.4062 74.0312 34.2812 74.0312
Q41.9375 74.0312 48.3281 72.5625
Q54.7344 71.0938 59.6719 68.9531
L59.6719 57.5156
L58.9844 57.5156
Q54.8281 61.0312 48.0625 63.3438
Q41.3125 65.6719 34.2344 65.6719
Q26.4688 65.6719 21.75 62.4531
Q17.0469 59.2344 17.0469 54.1562
Q17.0469 49.6094 19.3906 47.0156
Q21.7344 44.4375 27.6406 43.0625
Q30.7656 42.3906 36.5156 41.4062
Q42.2812 40.4375 46.2969 39.4062
Q54.3906 37.25 58.4844 32.9062
Q62.5938 28.5625 62.5938 20.75" id="Verdana-53"/>
     </defs>
     <g transform="translate(125.28 109.18125)scale(0.144 -0.144)">
      <use xlink:href="#Verdana-42"/>
      <use x="68.5546875" xlink:href="#Verdana-53"/>
      <use x="135.9140625" xlink:href="#Verdana-41"/>
     </g>
    </g>
    <g id="line2d_36">
     <path d="
M89.28 125.181
L109.44 125.181" style="fill:none;stroke:#00bfbf;stroke-dasharray:5.000000,1.000000,2.000000,1.000000,5.000000,1.000000;stroke-dashoffset:0.0;"/>
    </g>
    <g id="line2d_37"/>
    <g id="text_19">
     <!-- Cuckoo -->
     <defs>
      <path d="
M65.9219 5.28125
Q63.2344 4.10938 61.0625 3.07812
Q58.8906 2.04688 55.375 0.921875
Q52.3906 0 48.8906 -0.65625
Q45.4062 -1.3125 41.2188 -1.3125
Q33.2969 -1.3125 26.8281 0.90625
Q20.3594 3.125 15.5781 7.85938
Q10.8906 12.5 8.25 19.6562
Q5.60938 26.8125 5.60938 36.2812
Q5.60938 45.2656 8.14062 52.3438
Q10.6875 59.4219 15.4844 64.3125
Q20.125 69.0469 26.6875 71.5312
Q33.25 74.0312 41.2656 74.0312
Q47.125 74.0312 52.9531 72.6094
Q58.7969 71.1875 65.9219 67.625
L65.9219 56.1562
L65.1875 56.1562
Q59.1875 61.1875 53.2656 63.4688
Q47.3594 65.7656 40.625 65.7656
Q35.1094 65.7656 30.6875 63.9844
Q26.2656 62.2031 22.7969 58.4531
Q19.4375 54.7812 17.5469 49.1875
Q15.6719 43.6094 15.6719 36.2812
Q15.6719 28.6094 17.75 23.0938
Q19.8281 17.5781 23.0938 14.1094
Q26.5156 10.5 31.0781 8.76562
Q35.6406 7.03125 40.7188 7.03125
Q47.7031 7.03125 53.7969 9.42188
Q59.9062 11.8125 65.2344 16.6094
L65.9219 16.6094
z
" id="Verdana-43"/>
     </defs>
     <g transform="translate(125.28 130.221)scale(0.144 -0.144)">
      <use xlink:href="#Verdana-43"/>
      <use x="69.82421875" xlink:href="#Verdana-75"/>
      <use x="133.10546875" xlink:href="#Verdana-63"/>
      <use x="185.205078125" xlink:href="#Verdana-6b"/>
      <use x="243.384765625" xlink:href="#Verdana-6f"/>
      <use x="304.078125" xlink:href="#Verdana-6f"/>
     </g>
    </g>
    <g id="line2d_38">
     <path d="
M89.28 146.221
L109.44 146.221" style="fill:none;stroke:#bf00bf;stroke-linecap:square;"/>
    </g>
    <g id="line2d_39"/>
    <g id="text_20">
     <!-- qABC -->
     <defs>
      <path d="
M53.2656 -20.125
L44.0938 -20.125
L44.0938 6.15625
Q39.8438 2.48438 35.6406 0.703125
Q31.4531 -1.07812 26.5625 -1.07812
Q16.8438 -1.07812 11.0625 6.42188
Q5.28125 13.9219 5.28125 27.0938
Q5.28125 34.125 7.29688 39.5156
Q9.32812 44.9219 12.6406 48.5781
Q15.875 52.1562 20.2188 54.1094
Q24.5625 56.0625 29.3906 56.0625
Q33.7969 56.0625 37.1875 55.0781
Q40.5781 54.1094 44.0938 52.2031
L44.6719 54.5469
L53.2656 54.5469
z

M44.0938 13.875
L44.0938 44.7344
Q40.2812 46.4375 37.3438 47.1094
Q34.4219 47.7969 31 47.7969
Q23.0469 47.7969 18.8906 42.4062
Q14.75 37.0156 14.75 27.5469
Q14.75 17.9688 18.0938 12.8125
Q21.4375 7.67188 28.6094 7.67188
Q32.625 7.67188 36.625 9.40625
Q40.625 11.1406 44.0938 13.875" id="Verdana-71"/>
     </defs>
     <g transform="translate(125.28 151.26075)scale(0.144 -0.144)">
      <use xlink:href="#Verdana-71"/>
      <use x="62.3046875" xlink:href="#Verdana-41"/>
      <use x="130.6640625" xlink:href="#Verdana-42"/>
      <use x="199.21875" xlink:href="#Verdana-43"/>
     </g>
    </g>
   </g>
  </g>
 </g>
 <defs>
  <clipPath id="p7ff5b81e1d">
   <rect height="345.6" width="446.4" x="72.0" y="43.2"/>
  </clipPath>
 </defs>
</svg>
