<?xml version="1.0" encoding="utf-8" standalone="no"?>
<!DOCTYPE svg PUBLIC "-//W3C//DTD SVG 1.1//EN"
  "http://www.w3.org/Graphics/SVG/1.1/DTD/svg11.dtd">
<!-- Created with matplotlib (http://matplotlib.org/) -->
<svg height="432pt" version="1.1" viewBox="0 0 576 432" width="576pt" xmlns="http://www.w3.org/2000/svg" xmlns:xlink="http://www.w3.org/1999/xlink">
 <defs>
  <style type="text/css">
*{stroke-linecap:butt;stroke-linejoin:round;}
  </style>
 </defs>
 <g id="figure_1">
  <g id="patch_1">
   <path d="
M0 432
L576 432
L576 0
L0 0
z
" style="fill:#ffffff;"/>
  </g>
  <g id="axes_1">
   <g id="patch_2">
    <path d="
M72 388.8
L518.4 388.8
L518.4 43.2
L72 43.2
z
" style="fill:#ffffff;"/>
   </g>
   <g id="line2d_1">
    <path clip-path="url(#p7ff5b81e1d)" d="
M72 314.328
L72.0893 342.505
L72.1786 355.606
L72.4464 370.676
L72.8035 377.457
L73.1606 380.662
L73.607 382.872
L73.8749 383.471
L74.5891 384.272
L75.5712 385.416
L76.1962 386.906
L76.464 387.275
L76.5533 285.501
L76.6426 288.339
L77.2675 310.68
L78.6067 328.847
L79.0531 334.016
L79.4995 344.759
L80.303 358.111
L80.928 365.311
L81.0173 231.395
L81.1066 232.788
L81.7315 242.488
L82.7136 258.394
L83.3386 274.269
L84.3206 296.525
L84.6778 301.42
L85.392 309.563
L85.4813 307.339
L86.2848 316.581
L86.7312 324.241
L87.624 338.147
L88.249 344.745
L88.9632 348.883
L89.6774 352.576
L89.7667 352.906
L89.856 353.798
L89.9453 326.877
L90.0346 328.13
L90.8381 338.008
L91.8202 346.714
L93.4272 352.536
L94.32 359.465
L94.4093 338.318
L94.4986 339.188
L95.1235 345.083
L95.8378 347.085
L96.4627 348.39
L96.9091 349.31
L97.5341 353.854
L98.6947 361.246
L98.784 361.335
L98.8733 350.817
L98.9626 350.954
L99.8554 352.137
L100.302 352.719
L100.48 352.959
L101.998 362.578
L102.355 363.975
L103.248 364.697
L103.337 356.649
L103.427 356.726
L104.052 357.308
L104.498 360.442
L105.212 364.237
L105.748 366.79
L105.926 367.239
L107.623 368.391
L107.712 368.842
L107.801 363.934
L107.891 364.404
L108.694 367.717
L109.408 370.62
L111.105 371.546
L111.194 371.585
L112.087 374.715
L112.176 374.962
L112.265 372.984
L112.355 373.233
L113.158 375.116
L114.765 375.694
L115.301 377.096
L116.372 379.314
L116.64 379.683
L116.729 378.802
L116.819 378.83
L117.622 379.064
L118.336 379.285
L119.051 380.607
L119.676 381.577
L120.211 382.107
L121.104 382.265
L121.193 381.859
L121.283 381.881
L121.908 382.006
L123.693 384.191
L125.479 384.437
L125.568 384.539
L125.657 384.456
L127.443 385.839
L129.139 386.031
L129.496 386.239
L130.478 386.612
L131.996 386.814
L132.978 386.988
L134.675 387.38
L136.907 387.553
L138.781 387.767
L141.013 387.982
L142.353 388.073
L144.495 388.223
L145.388 388.314
L148.067 388.457
L161.28 388.72
L191.367 388.795
L364.213 388.8
L518.311 388.8
L518.311 388.8" style="fill:none;stroke:#0000ff;stroke-dasharray:6.000000,2.000000;stroke-dashoffset:0.0;"/>
   </g>
   <g id="line2d_2">
    <path clip-path="url(#p7ff5b81e1d)" d="
M72 319.854
L72.0893 343.283
L72.1786 353.853
L72.4464 363.574
L72.8035 365.668
L72.8928 365.586
L73.6963 361.051
L74.5891 339.2
L75.3034 312.982
L75.5712 304.173
L75.6605 303.916
L75.7498 304.741
L75.839 304.614
L76.0176 302.519
L76.1069 303.426
L76.3747 300.096
L76.464 299.092
L76.5533 328.244
L76.6426 327.197
L77.089 321.103
L77.2675 319.631
L78.8746 268.469
L79.0531 262.2
L79.1424 263.348
L79.4995 261.436
L79.7674 260.116
L79.8566 260.536
L80.2138 257.663
L80.303 257.479
L80.5709 255.932
L80.6602 255.992
L80.8387 255.527
L80.928 253.105
L81.0173 319.917
L81.1066 318.142
L81.553 309.179
L82.4458 289.517
L82.8029 283.502
L83.0707 280.334
L83.6064 275.143
L84.4992 265.832
L85.2134 251.052
L86.2848 233.475
L86.5526 232.344
L86.6419 231.961
L86.7312 232.166
L87.0883 230.493
L87.1776 230.338
L87.2669 230.479
L87.3562 229.998
L87.4454 230.28
L87.8026 229.074
L87.9811 230.383
L89.3203 210.493
L89.7667 204.446
L89.856 204.733
L90.0346 221.576
L90.2131 220.944
L90.3917 221.14
L90.481 221.105
L90.5702 221.283
L90.6595 221.094
L90.7488 221.323
L90.9274 221.216
L91.2845 221.807
L91.463 221.709
L91.5523 221.642
L92.3558 212.703
L93.3379 203.24
L94.32 206.57
L94.4986 216.963
L94.7664 216.424
L94.945 216.65
L95.1235 216.638
L96.2842 207.568
L96.9091 203.622
L96.9984 203.954
L97.2662 204.843
L97.4448 204.898
L97.5341 204.775
L97.9805 205.687
L98.0698 205.565
L98.2483 205.758
L98.5162 206.312
L98.6054 206.334
L98.6947 206.485
L98.784 206.183
L98.8733 209.559
L98.9626 209.122
L99.6768 205.561
L100.48 201.903
L100.748 202.271
L101.016 202.949
L101.195 203.302
L101.552 204.101
L101.909 204.948
L102.177 205.618
L102.266 205.744
L102.534 204.62
L103.248 201.917
L103.337 204.224
L103.427 203.841
L104.052 201.456
L104.319 202.005
L104.587 202.057
L105.837 203.65
L106.462 201.519
L107.266 199.15
L107.444 198.36
L107.623 197.856
L107.712 198.012
L107.891 199.65
L108.069 199.639
L108.694 200.764
L109.408 201.747
L109.587 201.279
L110.837 197.96
L111.372 197.026
L111.908 197.947
L112.087 198.257
L112.176 198.284
L112.355 199.006
L112.712 199.419
L112.89 199.381
L112.98 199.583
L113.962 197.105
L114.319 196.308
L114.765 195.417
L114.854 195.466
L115.122 195.707
L115.39 196.001
L115.836 196.536
L116.194 196.587
L116.283 196.665
L117.176 195.467
L118.336 193.119
L118.515 193.378
L119.051 193.579
L119.229 193.627
L119.408 193.746
L119.676 193.885
L120.211 194.026
L121.908 191.036
L121.997 191.11
L122.265 191.348
L122.354 191.486
L122.443 191.393
L122.532 191.496
L122.622 191.4
L122.8 191.532
L122.89 191.528
L123.247 192.001
L123.425 191.917
L123.604 192.149
L123.782 192.037
L124.229 190.952
L124.586 190.352
L124.943 189.639
L125.568 188.716
L125.925 189.015
L126.372 189.63
L126.461 189.56
L126.907 190.109
L127.264 190.111
L127.8 189.122
L127.979 188.921
L128.693 187.67
L128.782 187.607
L129.05 187.129
L129.853 187.786
L130.032 188.024
L130.211 188.079
L130.478 188.404
L130.568 188.374
L130.836 188.712
L131.103 188.386
L131.371 187.885
L131.55 187.646
L132.443 186.002
L132.621 185.753
L133.514 186.169
L133.692 185.991
L134.05 186.211
L134.317 186.223
L134.407 186.31
L134.764 185.724
L136.192 183.961
L136.46 184.29
L136.639 184.293
L136.817 184.273
L136.996 184.375
L137.353 184.565
L137.71 184.741
L137.978 185.002
L138.514 184.119
L139.317 182.937
L139.674 182.237
L139.853 182.22
L140.031 182.468
L140.299 182.504
L141.192 182.667
L141.638 182.573
L141.817 182.293
L141.996 182.02
L142.888 180.603
L143.424 179.868
L143.692 180.079
L143.87 180.131
L144.138 180.374
L144.317 180.42
L144.495 180.361
L144.674 180.547
L145.031 180.636
L145.12 180.668
L146.906 178.223
L146.995 178.321
L147.352 178.506
L147.977 178.939
L148.513 179.225
L148.692 179.304
L149.049 178.734
L149.584 177.964
L149.852 177.508
L150.12 177.099
L150.477 176.421
L150.834 176.589
L151.727 176.529
L152.173 176.623
L152.263 176.687
L152.709 176.139
L154.048 174.062
L154.495 174.207
L154.763 174.143
L155.03 174.346
L155.745 174.417
L155.923 174.345
L156.37 173.869
L156.816 173.283
L157.798 172.389
L158.334 172.627
L158.602 172.83
L159.316 173.123
L159.405 173.187
L159.673 172.827
L161.191 170.718
L161.369 170.743
L163.155 171.003
L163.333 170.744
L163.78 170.358
L164.316 169.627
L164.494 169.504
L164.851 169.213
L165.476 169.507
L165.565 169.405
L165.744 169.494
L166.369 169.358
L166.548 169.483
L167.619 168.247
L167.797 168.061
L168.065 167.625
L168.333 167.359
L168.69 167.497
L169.404 167.556
L169.762 167.892
L169.94 167.975
L170.029 168.035
L171.904 165.875
L172.172 165.929
L172.619 165.982
L172.886 165.776
L173.154 165.956
L173.244 165.945
L173.422 165.731
L173.779 165.644
L174.047 165.42
L174.315 165.064
L174.583 164.665
L174.851 164.471
L175.654 163.786
L176.1 164.029
L176.636 163.99
L176.815 164.129
L177.35 164.248
L177.618 163.977
L178.154 163.333
L178.69 162.642
L178.868 162.454
L179.047 162.245
L179.225 162.315
L179.493 162.225
L179.672 162.283
L180.029 162.366
L180.475 162.634
L180.922 162.52
L181.279 162.123
L181.547 161.861
L181.993 161.265
L182.172 161.027
L182.439 160.655
L182.618 160.347
L182.886 160.47
L183.154 160.515
L183.6 160.438
L184.046 160.513
L184.314 160.568
L184.404 160.647
L185.028 159.996
L185.296 159.627
L185.653 159.18
L186.189 158.427
L186.546 158.556
L186.636 158.451
L186.903 158.631
L187.796 158.902
L187.975 159.087
L188.332 158.771
L189.76 157.377
L190.028 157.592
L190.207 157.499
L190.385 157.512
L190.564 157.457
L190.742 157.412
L191.724 157.452
L192.082 156.948
L192.439 156.502
L192.796 156.116
L193.153 155.938
L193.332 155.693
L193.421 155.782
L193.599 155.67
L193.689 155.64
L193.778 155.744
L193.867 155.674
L194.135 155.775
L194.224 155.585
L194.314 155.637
L194.492 155.538
L194.76 155.695
L195.028 155.817
L195.385 155.44
L195.564 155.285
L195.921 154.887
L196.01 154.853
L196.278 154.555
L196.903 153.998
L196.992 154.087
L197.171 153.945
L197.26 153.951
L197.438 153.81
L197.796 153.77
L197.885 153.844
L198.063 153.798
L198.599 153.735
L198.867 153.362
L199.403 152.871
L199.938 152.236
L200.652 151.5
L200.831 151.565
L201.01 151.422
L201.456 151.56
L201.635 151.508
L202.17 151.673
L202.617 151.312
L202.706 151.283
L202.884 150.742
L203.777 150.006
L204.045 149.518
L204.402 149.539
L204.581 149.484
L205.027 149.569
L205.474 149.738
L205.831 149.857
L206.099 149.602
L206.456 149.282
L206.724 148.934
L207.795 148.03
L208.241 148.013
L208.866 148.123
L209.045 148.166
L209.67 147.973
L209.938 147.735
L211.366 146.783
L211.634 146.867
L211.991 146.798
L212.527 147.078
L212.705 147.002
L212.973 147.154
L214.491 145.665
L214.759 145.371
L215.027 145.416
L215.384 145.321
L215.919 145.391
L216.009 144.983
L216.098 145.04
L216.276 145.07
L216.455 144.665
L216.634 144.606
L218.33 143.239
L219.044 143.225
L219.491 143.443
L219.758 143.535
L220.205 143.392
L220.473 143.092
L221.901 141.769
L222.794 141.968
L223.062 142.121
L223.33 142.113
L223.865 142.108
L224.312 141.749
L225.562 140.788
L225.919 140.964
L226.276 141.035
L226.544 141.081
L226.722 141.116
L227.258 141.2
L227.436 140.981
L228.061 140.358
L229.044 139.418
L229.222 139.488
L229.579 139.581
L230.026 139.383
L230.204 139.327
L230.383 139.323
L230.74 139.234
L230.918 139.274
L231.633 138.424
L232.079 138.014
L232.347 137.837
L232.793 137.608
L233.061 137.708
L233.24 137.609
L233.418 137.585
L233.686 137.403
L234.49 137.206
L234.757 136.824
L235.293 136.405
L235.472 136.085
L235.74 135.733
L236.007 135.259
L236.275 134.904
L236.364 134.994
L237.793 135.457
L238.15 135.303
L238.686 134.787
L239.311 134.201
L239.4 134.151
L239.668 133.732
L240.114 133.603
L240.293 133.604
L240.471 133.64
L241.096 133.656
L241.275 133.556
L241.453 133.403
L241.543 133.389
L241.9 133.025
L242.078 132.846
L242.614 132.347
L242.793 132.157
L243.15 131.584
L243.507 131.337
L244.578 131.35
L244.757 131.431
L244.935 131.293
L245.471 130.904
L246.721 129.758
L247.346 129.548
L247.614 129.626
L248.596 129.484
L248.685 129.588
L249.578 128.719
L250.471 127.777
L250.649 127.933
L250.917 127.854
L251.364 127.946
L251.899 128.106
L252.078 128.106
L252.435 127.819
L252.971 127.322
L253.328 126.732
L253.685 126.217
L254.131 125.938
L254.22 125.995
L254.31 125.899
L254.578 126.042
L255.292 126.112
L255.828 126.175
L256.095 125.784
L256.363 125.566
L256.72 125.344
L256.988 125.011
L257.702 124.221
L257.881 124.286
L258.06 124.273
L258.238 124.303
L258.506 124.086
L258.774 124.152
L258.952 124.186
L259.22 124.321
L259.934 123.745
L260.202 123.275
L260.292 123.199
L260.559 122.793
L261.274 121.975
L261.363 122.082
L263.059 122.151
L263.238 122.06
L263.506 121.726
L264.488 120.655
L264.756 120.31
L265.827 120.633
L266.005 120.576
L266.273 120.621
L266.452 120.565
L266.63 120.591
L268.416 119.021
L269.309 119.279
L269.844 119.31
L270.112 119.434
L270.38 119.143
L270.559 118.946
L271.898 117.101
L272.166 117.36
L272.434 117.25
L272.88 117.401
L273.237 117.439
L273.505 117.184
L273.773 117.277
L274.041 117.128
L274.844 116.414
L275.112 116.1
L275.291 115.847
L276.63 115.664
L277.255 115.808
L279.219 114.175
L279.397 114.303
L279.665 114.402
L279.933 114.375
L280.201 114.515
L280.29 114.576
L280.558 114.374
L280.737 114.378
L280.915 114.328
L281.272 114.006
L281.808 113.547
L282.165 113.167
L282.612 112.575
L282.969 112.818
L283.236 112.786
L283.415 112.69
L283.683 112.739
L283.861 112.699
L284.04 112.674
L284.486 112.799
L285.379 111.815
L285.826 111.441
L286.183 110.916
L286.361 110.946
L286.629 110.948
L287.522 111.351
L287.7 111.456
L288.058 111.295
L289.129 110.462
L289.486 110.152
L289.754 109.777
L290.29 109.784
L290.379 109.596
L290.557 109.605
L290.825 109.659
L291.004 109.639
L291.45 109.713
L293.414 107.471
L293.504 107.488
L293.682 107.275
L293.861 107.3
L294.039 107.136
L294.218 107.07
L294.486 107.11
L294.575 106.998
L294.932 107.175
L295.289 107.097
L295.557 106.795
L295.646 106.771
L296.004 106.241
L296.986 105.354
L297.343 105.473
L297.789 105.207
L298.146 105.072
L298.682 105.234
L299.307 104.636
L299.575 104.396
L299.932 103.965
L300.11 103.753
L300.378 103.559
L300.557 103.513
L300.646 103.542
L300.914 103.374
L301.271 103.358
L302.253 103.143
L302.7 102.705
L303.592 101.898
L304.128 101.561
L304.664 101.372
L304.842 101.255
L305.914 100.881
L306.181 100.692
L306.449 100.441
L306.806 100.137
L307.074 99.8525
L307.788 99.3444
L307.967 99.333
L308.592 99.434
L308.771 99.2979
L309.485 99.4197
L310.02 98.6552
L310.824 98.1376
L311.181 97.7841
L312.074 97.8611
L312.252 97.8502
L312.431 97.8454
L312.788 97.933
L313.056 97.7785
L314.752 95.9374
L315.199 95.9891
L315.556 95.8016
L315.734 95.7641
L315.913 95.7285
L317.966 94.2938
L318.502 93.9415
L318.77 93.9146
L318.948 93.7798
L319.484 93.8898
L319.663 93.837
L320.198 93.9111
L320.645 93.3523
L322.341 92.2931
L322.698 92.3546
L323.234 92.5023
L323.502 92.2781
L323.77 92.3076
L323.948 92.1083
L324.93 91.3504
L325.198 90.6514
L325.466 90.2375
L325.555 90.2966
L326.002 90.2932
L326.18 90.31
L326.448 90.3069
L327.341 90.4227
L328.144 89.9821
L328.591 89.7582
L328.769 89.4394
L329.216 89.2007
L329.394 89.2158
L329.662 89.1952
L329.841 89.0637
L330.108 89.187
L330.912 88.9514
L331.358 88.2516
L331.626 87.9467
L332.965 86.7231
L333.323 86.8442
L333.501 86.7726
L333.59 86.8336
L333.769 86.795
L333.948 86.7628
L334.126 86.7299
L334.215 86.7386
L334.572 86.405
L334.662 86.34
L334.93 85.9589
L335.108 85.7257
L335.376 85.5284
L335.555 85.4511
L336.18 85.0991
L336.358 85.1546
L336.537 85.144
L337.787 85.1364
L337.965 85.1939
L338.054 85.1553
L338.233 84.8958
L338.322 84.8778
L338.501 84.4734
L338.858 84.2863
L339.661 83.8674
L339.751 83.5462
L339.84 83.597
L340.197 83.4243
L340.644 83.3928
L340.911 83.3235
L341.001 83.3927
L341.179 83.3251
L341.536 83.3576
L342.34 82.8455
L342.608 82.642
L343.054 82.2961
L343.679 82.0084
L343.858 82.0268
L344.483 81.9183
L344.84 81.9516
L345.643 81.4928
L346 81.1042
L346.625 80.561
L346.893 80.1688
L347.161 80.1749
L348.143 80.2254
L348.679 80.2787
L348.947 80.0727
L349.661 79.4786
L350.107 79.241
L350.375 78.9199
L350.911 78.9006
L351.268 78.9401
L351.536 78.9005
L351.893 78.9483
L352.071 78.8276
L352.25 78.9069
L353.053 78.6061
L353.321 78.4134
L353.946 78.1535
L354.125 77.9348
L355.285 77.9718
L355.553 77.9138
L355.821 77.8066
L357.25 76.875
L357.607 76.6589
L357.964 76.6843
L358.053 76.6965
L358.232 76.5783
L358.321 76.595
L358.589 76.3574
L359.035 76.3104
L359.482 76.2656
L359.839 75.9527
L360.107 75.7965
L360.285 75.5614
L360.464 75.3124
L360.999 75.0905
L361.267 74.8931
L361.981 74.7028
L364.66 72.9386
L364.838 72.8061
L365.285 72.9074
L365.463 72.7087
L365.642 72.7133
L366.713 72.5864
L366.892 72.4649
L367.249 72.2201
L367.517 72.0106
L367.695 71.8601
L368.052 71.7649
L368.41 71.528
L368.588 71.5662
L369.838 71.0027
L370.017 70.904
L370.284 70.8585
L371.981 69.909
L372.695 69.9152
L373.141 69.9674
L373.588 69.7628
L374.034 69.6904
L374.302 69.4075
L374.927 69.2852
L376.088 68.6221
L376.356 68.5817
L376.623 68.5273
L376.802 68.3823
L377.427 68.2565
L377.695 68.1147
L377.963 67.9269
L378.32 67.7411
L379.391 67.3381
L379.659 67.3811
L380.016 67.2964
L380.284 67.3149
L380.552 67.2813
L380.82 67.2857
L380.998 67.1185
L381.266 67.0004
L381.534 66.7984
L381.98 66.556
L382.337 66.438
L382.605 66.2511
L382.784 66.3428
L382.962 66.2959
L383.141 66.237
L383.676 66.1908
L384.123 66.2586
L384.391 66.2516
L385.641 65.528
L386.176 65.073
L387.783 65.1721
L388.23 65.0982
L388.408 64.8465
L388.855 64.6356
L389.212 64.269
L389.569 64.0961
L389.837 64.0395
L390.194 64.0132
L390.462 63.9374
L390.819 63.9409
L391.265 63.8413
L391.622 63.8404
L391.712 63.7944
L391.89 63.5951
L393.408 63.0573
L393.765 63.0674
L394.212 62.9005
L394.658 62.8759
L394.926 62.8399
L395.372 62.5672
L397.336 61.6925
L397.783 61.7566
L398.051 61.7575
L398.318 61.7465
L398.586 61.7162
L398.765 61.7288
L398.943 61.4961
L399.479 61.3346
L399.747 61.1941
L400.104 61.0967
L400.461 60.8683
L400.818 60.9373
L400.997 60.8977
L401.175 60.9052
L401.354 60.8467
L402.336 60.7812
L402.604 60.7185
L402.782 60.5844
L403.854 60.1988
L404.032 60.0803
L404.568 60.0328
L404.836 60.0037
L405.55 59.9457
L408.139 59.1072
L408.318 59.1234
L408.586 59.072
L409.121 59.1071
L409.478 59.1554
L410.014 58.9483
L410.282 58.7314
L411.621 58.2132
L412.157 58.2228
L412.335 58.2188
L412.514 57.9598
L412.96 57.9145
L413.228 57.7595
L414.657 57.3197
L414.835 57.1431
L415.282 57.1234
L415.907 57.0578
L416.71 56.9547
L417.156 56.8141
L417.335 56.4932
L417.871 56.2913
L418.406 56.1448
L419.031 56.2628
L419.299 56.2404
L419.746 56.2513
L420.281 56.0893
L422.424 55.3118
L422.96 55.2815
L423.228 55.3763
L424.299 55.2284
L425.013 54.9909
L425.46 54.8605
L425.727 54.7275
L427.513 54.6616
L427.87 54.4609
L428.138 54.4113
L428.406 54.2449
L428.941 54.0851
L429.12 54.0394
L429.745 53.938
L430.013 53.7172
L430.459 53.7198
L430.638 53.6171
L430.995 53.6294
L431.352 53.5381
L432.959 53.1602
L433.316 53.1501
L434.12 53.0855
L434.923 53.0469
L435.28 52.8933
L435.727 52.7216
L435.905 52.5245
L437.78 52.3766
L438.137 52.331
L438.316 52.2313
L439.298 51.9324
L439.566 51.8099
L440.012 51.823
L440.816 51.8169
L441.351 51.8138
L441.708 51.7414
L442.066 51.6496
L442.691 51.6062
L442.958 51.5228
L443.851 51.4248
L445.101 51.4525
L447.244 51.0644
L448.494 51.0894
L451.083 50.7931
L453.851 50.5736
L454.208 50.4841
L455.1 50.427
L456.172 50.3475
L457.332 50.2202
L459.743 50.1158
L460.011 50.0429
L460.814 49.9617
L461.35 49.8427
L463.314 49.8094
L465.636 49.6122
L466.528 49.6465
L468.046 49.3585
L469.475 49.2979
L469.653 49.204
L470.367 49.114
L470.814 49.0196
L472.421 48.8752
L472.689 48.7913
L472.956 48.7492
L473.314 48.7601
L473.492 48.6925
L474.028 48.6908
L476.974 48.4735
L478.492 48.3778
L478.849 48.3229
L480.01 48.2233
L480.367 48.1943
L480.992 48.2088
L483.224 48.067
L484.741 48.0507
L485.634 47.9081
L489.205 47.7347
L489.384 47.4761
L493.669 47.3813
L494.116 47.373
L499.205 47.142
L500.276 47.0744
L503.669 46.8304
L504.026 46.7593
L508.044 46.6596
L508.311 46.6223
L510.543 46.5665
L511.168 46.4805
L512.24 46.4414
L512.865 46.4046
L513.579 46.3931
L513.757 46.272
L515.722 46.2852
L516.972 46.2421
L517.686 46.2022
L518.311 46.1728
L518.311 46.1728" style="fill:none;stroke:#008000;stroke-dasharray:1.000000,1.000000;stroke-dashoffset:0.0;"/>
   </g>
   <g id="line2d_3">
    <path clip-path="url(#p7ff5b81e1d)" d="
M72 321.895
L72.0893 305.553
L72.1786 297.436
L72.5357 284.311
L72.625 284.108
L72.7142 283.316
L72.8928 283.665
L72.9821 281.48
L73.0714 281.49
L73.2499 279.999
L73.4285 282.546
L73.5178 282.268
L73.607 282.959
L73.6963 282.498
L73.9642 278.704
L74.1427 277.585
L74.232 277.25
L74.7677 280.643
L75.4819 289.45
L75.6605 294.389
L76.3747 319.928
L76.464 322.395
L76.6426 344.311
L77.2675 351.32
L77.7139 348.735
L78.071 348.083
L78.2496 348.182
L78.3389 348.096
L78.6067 348.683
L78.9638 349.823
L79.0531 350.11
L79.1424 349.31
L79.2317 349.632
L79.321 349.573
L79.6781 350.933
L80.0352 352.676
L80.1245 352.757
L80.3923 354.034
L80.8387 356.326
L80.928 356.01
L81.0173 365.514
L81.1066 365.17
L81.553 363.952
L81.6422 363.901
L81.9101 363.364
L81.9994 363.341
L82.0886 362.99
L82.1779 363.082
L82.4458 363.134
L82.535 362.994
L82.6243 363.109
L82.7136 362.987
L82.8029 363.259
L82.8922 363.181
L83.6064 363.759
L83.8742 364.521
L83.9635 364.468
L84.2314 364.895
L84.3206 364.791
L84.4099 365.068
L84.5885 364.727
L84.6778 364.673
L84.9456 364.259
L85.0349 364.207
L85.2134 364.363
L85.3027 364.366
L85.4813 364.267
L85.7491 364.57
L86.017 364.581
L86.1955 364.709
L86.2848 364.328
L86.4634 364.537
L86.6419 364.536
L86.7312 364.59
L86.999 365.099
L87.0883 365.257
L87.1776 365.034
L87.5347 366
L87.9811 367.048
L88.0704 366.825
L88.1597 366.891
L88.5168 366.734
L88.7846 366.944
L89.4096 367.271
L89.7667 367.464
L89.856 367.675
L89.9453 369.265
L90.0346 369.255
L90.481 369.211
L91.5523 370.603
L91.7309 370.374
L91.9094 370.497
L91.9987 370.211
L92.088 370.31
L92.3558 369.963
L92.713 370.2
L92.8915 370.269
L93.0701 370.347
L93.2486 370.306
L94.32 371.378
L94.4986 372.946
L95.1235 373.73
L95.3021 373.556
L95.5699 373.546
L95.927 373.418
L96.0163 373.238
L96.1056 373.285
L96.2842 373.369
L96.4627 373.349
L96.7306 373.404
L97.4448 373.057
L97.6234 373.282
L97.8912 373.665
L98.6947 374.606
L98.784 374.47
L98.9626 375.222
L99.2304 375.123
L99.4982 374.889
L99.6768 374.9
L100.034 374.832
L101.016 375.211
L101.73 375.918
L102.266 376.335
L102.444 376.298
L102.623 376.293
L103.069 375.967
L103.248 375.893
L103.427 376.444
L103.784 376.356
L104.052 376.311
L104.409 376.49
L104.944 377.102
L105.48 377.561
L105.837 378.03
L106.016 377.901
L106.551 377.62
L106.641 377.62
L106.819 377.481
L107.355 377.421
L107.533 377.397
L107.712 377.193
L107.891 377.657
L108.962 378.59
L109.587 378.859
L109.855 378.608
L110.48 378.238
L111.194 378.216
L111.551 378.44
L111.64 378.353
L112.622 379.653
L113.069 379.855
L113.515 379.635
L113.694 379.604
L114.14 379.509
L114.587 379.431
L114.854 379.338
L115.033 379.471
L115.658 379.984
L115.926 380.162
L116.729 380.76
L118.336 380.256
L119.229 380.893
L120.3 381.325
L120.747 381.172
L122.175 381.075
L122.89 381.582
L123.782 381.992
L123.961 381.968
L124.14 381.856
L124.675 381.83
L124.943 381.794
L125.389 381.729
L125.747 381.833
L126.104 382.023
L127.532 382.766
L127.889 382.69
L129.139 382.59
L129.943 383.001
L130.3 383.193
L130.836 383.524
L132.621 383.294
L134.317 384.104
L134.585 384.15
L135.746 384.055
L136.192 384.04
L136.639 384.206
L137.264 384.464
L137.621 384.624
L138.246 384.755
L139.139 384.585
L140.031 384.659
L141.906 385.123
L143.424 385.065
L145.567 385.596
L146.549 385.505
L147.263 385.616
L148.334 385.893
L148.87 385.991
L150.209 385.887
L150.924 385.978
L152.441 386.344
L153.513 386.259
L154.763 386.336
L156.012 386.563
L157.798 386.539
L159.584 386.817
L161.905 386.869
L163.423 387.043
L165.387 387.098
L167.351 387.254
L169.137 387.36
L171.458 387.466
L172.886 387.581
L174.136 387.677
L175.654 387.69
L178.243 387.853
L180.386 387.971
L181.725 388.003
L183.957 388.092
L185.386 388.125
L187.885 388.214
L192.796 388.287
L198.331 388.43
L202.617 388.506
L223.33 388.697
L239.489 388.741
L439.387 388.8
L518.311 388.8
L518.311 388.8" style="fill:none;stroke:#ff0000;stroke-dasharray:3.000000,6.000000;stroke-dashoffset:0.0;"/>
   </g>
   <g id="line2d_4">
    <path clip-path="url(#p7ff5b81e1d)" d="
M72 320.823
L72.0893 305.657
L72.2678 291.618
L72.625 284.295
L72.7142 285.735
L72.8928 283.384
L72.9821 283.943
L73.0714 283.002
L73.1606 283.276
L73.2499 283.978
L73.4285 281.389
L73.5178 279.212
L75.4819 302.726
L75.5712 301.515
L76.464 271.356
L76.5533 296.099
L76.6426 294.213
L77.2675 276.57
L78.5174 290.669
L78.9638 294.91
L79.0531 295.813
L79.2317 291.214
L79.4102 289.416
L79.9459 281.488
L80.1245 280.497
L80.2138 280.318
L80.3923 278.068
L80.4816 277.704
L80.8387 273.721
L80.928 274.955
L81.1066 310.919
L81.6422 313.874
L82.4458 318.158
L82.6243 319.276
L83.2493 313.164
L83.3386 313.208
L83.6957 309.473
L83.785 309.074
L83.8742 307.879
L83.9635 307.99
L84.0528 307.968
L84.4099 306.723
L85.392 312.784
L85.6598 314.987
L86.1955 317.984
L86.2848 317.791
L86.5526 316.439
L86.6419 316.758
L86.8205 315.138
L87.0883 314.417
L87.1776 314.598
L87.4454 312.304
L87.5347 312.671
L87.624 312.624
L87.9811 309.922
L89.1418 316.516
L89.7667 319.749
L89.856 319.119
L89.9453 324.001
L90.0346 323.525
L90.2131 323.847
L90.3917 323.23
L90.5702 323.287
L90.7488 322.659
L90.9274 322.585
L91.3738 321.07
L91.463 321.021
L91.5523 321.133
L92.8022 326.186
L93.4272 328.469
L93.6058 328.013
L93.7843 327.25
L93.8736 327.496
L93.9629 327.388
L94.2307 326.198
L94.32 326.539
L94.4093 330.947
L94.4986 330.495
L94.8557 330.033
L95.0342 329.74
L95.1235 329.701
L96.0163 332.598
L96.2842 333.317
L96.9091 335.023
L97.2662 333.625
L97.5341 334.297
L97.8912 333.06
L98.2483 333.829
L98.3376 333.658
L98.5162 334.006
L98.6947 333.699
L98.784 333.902
L98.9626 336.807
L100.391 339.783
L100.57 339.961
L100.659 339.896
L100.837 339.373
L100.927 339.618
L101.284 338.31
L101.373 338.292
L101.552 337.979
L101.73 337.697
L101.82 337.792
L101.998 337.905
L102.177 337.956
L102.802 339.098
L103.248 339.82
L103.427 342.001
L103.694 342.382
L104.052 342.99
L104.23 342.52
L104.319 342.697
L104.498 342.424
L104.676 342.855
L104.766 342.75
L104.855 342.849
L104.944 342.539
L105.034 342.683
L105.123 342.601
L105.212 342.89
L105.301 342.843
L105.391 342.883
L105.48 343.095
L105.569 342.869
L105.748 342.983
L106.016 343.338
L107.176 344.785
L107.623 345.396
L107.712 345.531
L107.891 346.835
L108.069 347.268
L108.158 347.312
L108.426 346.585
L108.694 347.019
L108.783 346.914
L109.051 346.805
L109.408 347.046
L109.765 347.501
L110.48 348.232
L111.372 348.904
L111.64 348.977
L111.908 348.184
L112.087 347.963
L112.176 348.131
L112.265 348.634
L112.355 348.617
L112.444 348.563
L112.801 348.869
L112.89 348.791
L113.069 349.145
L113.694 349.762
L114.229 350.178
L114.587 350.515
L114.944 350.835
L115.301 351.563
L115.39 351.898
L115.479 351.831
L115.747 352.227
L115.926 351.78
L116.104 351.988
L116.64 352.539
L116.819 352.958
L117.711 353.523
L118.247 353.913
L118.336 353.995
L118.426 354.25
L118.515 354.091
L118.693 354.263
L118.783 354.246
L119.051 354.603
L119.229 354.705
L119.497 355.158
L119.586 355.019
L120.033 356.003
L120.211 356.044
L120.747 356.356
L121.104 356.604
L121.372 356.893
L122.086 357.318
L122.354 357.648
L122.532 357.612
L122.622 357.598
L123.068 358.108
L123.247 358.185
L123.515 358.715
L124.497 359.443
L125.3 359.822
L125.568 359.952
L125.925 360.434
L126.014 360.442
L126.193 360.667
L126.461 360.68
L126.639 360.844
L126.729 360.814
L126.907 361.018
L126.996 360.907
L127.264 361.271
L128.068 361.6
L128.514 361.801
L130.3 363.039
L130.746 364.018
L131.014 364.065
L131.55 364.292
L132.532 364.667
L132.621 364.693
L132.978 365.114
L133.246 365.261
L133.514 365.297
L133.96 365.776
L134.139 366.051
L134.585 366.684
L136.282 367.295
L136.639 367.645
L136.728 367.595
L137.085 367.99
L137.889 369.031
L138.067 369.242
L138.96 369.526
L139.585 369.724
L140.031 369.896
L140.746 370.642
L140.835 370.664
L141.103 370.884
L141.46 371.177
L141.728 371.374
L142.531 371.581
L143.692 372.087
L144.049 372.351
L144.317 372.701
L144.406 372.625
L144.852 372.682
L145.835 373.051
L147.084 373.381
L147.977 374.048
L149.941 374.711
L150.745 375.046
L151.37 375.621
L152.173 376.13
L152.352 376.268
L154.495 376.843
L155.477 377.432
L155.923 377.627
L156.995 377.784
L157.798 377.98
L158.155 378.302
L158.334 378.363
L158.869 378.66
L159.048 378.714
L159.494 378.961
L161.994 379.403
L162.441 379.64
L162.619 379.715
L162.976 379.856
L164.851 380.162
L165.387 380.413
L165.565 380.487
L165.744 380.39
L167.083 380.829
L168.512 381.082
L168.958 381.301
L170.208 381.783
L170.922 381.881
L172.261 382.079
L172.797 382.263
L173.065 382.22
L174.404 382.605
L175.565 382.775
L175.922 382.988
L176.725 383.345
L177.083 383.554
L177.797 383.668
L179.85 383.915
L186.1 384.999
L186.814 385.141
L188.6 385.408
L191.1 385.695
L191.635 385.792
L193.689 385.977
L194.849 386.194
L197.171 386.354
L198.063 386.477
L199.224 386.596
L200.92 386.741
L201.367 386.837
L201.635 386.818
L205.831 387.171
L209.313 387.403
L212.616 387.588
L212.884 387.564
L213.42 387.608
L222.08 387.913
L222.348 387.874
L223.955 387.945
L230.115 388.143
L231.543 388.183
L243.775 388.403
L245.828 388.442
L276.451 388.655
L298.146 388.64
L298.503 388.611
L388.765 388.79
L518.311 388.8
L518.311 388.8" style="fill:none;stroke:#00bfbf;stroke-dasharray:5.000000,1.000000,2.000000,1.000000,5.000000,1.000000;stroke-dashoffset:0.0;"/>
   </g>
   <g id="line2d_5">
    <path clip-path="url(#p7ff5b81e1d)" d="
M72 321.498
L72.0893 301.402
L72.1786 296.696
L72.3571 290.138
L72.4464 291.313
L72.625 290.233
L72.7142 287.488
L72.8035 287.967
L72.8928 287.225
L73.1606 290.387
L73.3392 288.502
L73.4285 289.473
L73.5178 291.748
L73.607 290.4
L73.6963 290.832
L74.1427 298.038
L74.7677 306.05
L75.4819 315.922
L75.5712 315.806
L75.9283 317.105
L76.0176 317.224
L76.2854 318.606
L76.464 318.282
L76.5533 345.214
L76.6426 344.34
L76.9104 342.444
L77.089 340.668
L77.2675 340.199
L78.4282 350.879
L79.0531 356.261
L79.1424 356.285
L79.4102 354.333
L79.6781 353.397
L79.9459 352.174
L80.8387 348.146
L80.928 349.019
L81.1066 371.381
L81.553 372.494
L82.6243 374.861
L83.8742 365.854
L84.4099 360.957
L85.3027 363.894
L85.392 364.015
L85.6598 365.396
L86.1955 366.912
L86.5526 363.496
L86.8205 360.924
L87.9811 347.824
L88.7846 350.527
L89.7667 353.835
L89.856 353.075
L89.9453 356.915
L91.5523 339.639
L91.9987 341.164
L93.3379 344.672
L93.9629 337.925
L94.1414 336.521
L94.32 334.447
L94.4093 339.424
L94.4986 338.808
L95.1235 333.249
L95.2128 333.538
L95.3021 333.595
L96.552 336.547
L96.9091 337.11
L97.3555 333.945
L97.7126 331.17
L97.8912 329.731
L98.6947 322.365
L98.784 322.51
L98.9626 326.295
L99.5875 327.45
L100.034 328.096
L100.48 328.704
L102.266 314.266
L103.248 316.072
L103.427 319.388
L104.052 320.335
L105.748 307.156
L105.837 306.485
L106.105 307.029
L107.176 308.772
L107.355 308.979
L107.533 309.325
L107.623 309.421
L107.712 308.822
L107.801 310.423
L109.408 300.037
L109.498 300.117
L110.39 301.613
L110.569 301.766
L110.837 302.231
L111.194 302.727
L111.551 300.81
L112.176 297.981
L112.265 298.518
L112.622 296.707
L112.98 294.845
L113.426 295.477
L114.051 296.553
L114.765 297.364
L115.212 294.714
L115.658 292.142
L116.551 289.019
L116.64 289.149
L116.819 289.753
L117.176 290.197
L118.068 291.439
L118.158 291.484
L118.336 291.746
L118.604 290.377
L119.765 286.141
L120.122 284.818
L121.104 285.872
L121.372 286.463
L121.908 287.169
L122.265 285.775
L122.532 285.08
L122.622 285.036
L123.068 283.217
L123.157 283.049
L123.604 281.353
L123.693 281.05
L124.05 281.652
L125.032 283.066
L125.479 283.651
L126.014 282.036
L126.372 280.889
L126.729 279.895
L127.175 278.662
L127.264 278.414
L128.068 279.481
L129.05 280.653
L130.3 277.391
L130.657 275.893
L130.836 275.413
L131.103 275.672
L131.371 276.076
L131.46 276.099
L132.621 277.806
L133.068 276.711
L133.514 276.04
L133.603 276.043
L134.407 274.001
L134.496 274.114
L135.567 275.204
L136.192 275.783
L136.639 274.749
L136.817 274.556
L137.085 273.969
L137.978 271.668
L138.514 272.477
L139.228 273.347
L139.764 274.134
L140.388 272.806
L140.567 272.559
L141.013 271.879
L141.46 271.377
L141.549 271.086
L142.085 271.897
L142.62 272.654
L143.335 273.609
L143.87 272.703
L144.317 271.721
L144.495 271.788
L144.763 271.428
L145.031 271.076
L145.12 270.903
L146.37 272.327
L146.638 272.768
L146.906 273.065
L147.799 271.45
L148.245 270.788
L148.513 270.44
L148.692 270.169
L148.781 270.347
L149.316 270.951
L149.584 271.348
L149.852 271.759
L150.12 272.132
L150.477 272.739
L151.013 272.007
L151.191 271.891
L151.459 271.586
L151.727 271.282
L151.906 271.17
L152.263 270.507
L152.352 270.571
L153.245 271.754
L153.423 271.984
L153.691 272.431
L153.959 272.801
L154.048 272.952
L155.477 271.424
L155.566 271.436
L155.834 271.096
L155.923 271.194
L156.637 271.923
L157.084 272.405
L157.53 272.83
L157.62 272.983
L158.244 272.191
L159.405 270.723
L159.494 270.907
L161.28 272.936
L162.084 272.41
L162.441 272.071
L162.53 272.079
L162.798 271.73
L162.887 271.8
L163.066 271.691
L163.423 271.993
L163.691 272.256
L163.78 272.284
L164.226 272.878
L164.762 273.398
L165.119 272.99
L165.565 272.628
L165.744 272.609
L166.19 272.476
L166.548 272.121
L168.333 274.071
L168.69 273.643
L169.315 273.223
L169.404 273.199
L169.851 272.625
L170.119 272.437
L170.297 272.755
L170.922 273.241
L171.101 273.442
L171.636 274.069
L171.994 274.275
L172.351 274.078
L172.529 273.97
L172.797 273.946
L172.886 274.044
L173.244 273.718
L173.422 273.849
L173.69 273.636
L173.958 273.949
L174.226 274.151
L174.761 274.81
L175.386 275.255
L175.476 275.412
L175.922 275.02
L176.279 274.651
L176.458 274.621
L176.636 274.518
L176.904 274.151
L176.993 274.117
L177.261 273.792
L178.243 274.879
L178.957 275.689
L179.136 275.677
L179.315 275.666
L179.582 275.655
L179.94 275.394
L180.297 275.131
L180.564 274.868
L180.832 274.748
L181.368 275.294
L181.547 275.487
L181.993 276.063
L182.261 276.364
L182.618 276.944
L183.511 276.536
L183.6 276.567
L183.957 276.282
L184.314 276.103
L184.404 275.967
L185.028 276.573
L185.296 276.919
L185.564 277.216
L186.278 278.005
L186.457 277.932
L186.546 277.795
L186.636 277.895
L186.903 277.66
L187.528 277.371
L187.975 276.93
L188.332 277.223
L189.76 278.552
L190.028 278.268
L190.207 278.307
L190.475 278.235
L191.01 278.199
L191.724 278.06
L192.082 278.538
L192.349 278.858
L192.885 279.384
L193.153 279.518
L193.332 279.75
L193.421 279.635
L193.51 279.764
L193.778 279.544
L193.867 279.602
L194.135 279.437
L194.224 279.611
L194.403 279.61
L194.581 279.497
L195.028 279.206
L195.385 279.554
L195.564 279.7
L195.921 280.081
L196.01 280.113
L196.278 280.395
L196.903 280.924
L196.992 280.809
L197.171 280.927
L197.26 280.892
L197.438 281.028
L197.796 280.995
L197.974 280.967
L198.42 280.791
L198.599 280.851
L198.867 281.218
L199.403 281.692
L199.938 282.304
L200.652 282.995
L200.831 282.864
L200.92 283.013
L201.01 282.953
L201.456 282.768
L201.635 282.792
L202.26 282.584
L202.438 282.633
L202.617 282.839
L202.706 282.866
L202.884 283.396
L203.777 284.107
L204.045 284.585
L204.402 284.517
L204.581 284.531
L205.027 284.408
L205.474 284.163
L205.831 284.018
L206.099 284.268
L206.456 284.579
L206.724 284.917
L207.706 285.809
L208.063 285.755
L208.331 285.717
L208.956 285.442
L209.134 285.483
L209.313 285.415
L209.67 285.608
L209.938 285.838
L211.366 286.734
L211.812 286.604
L211.991 286.655
L212.527 286.318
L212.705 286.424
L213.062 286.301
L214.491 287.658
L214.759 287.944
L215.027 287.891
L215.205 287.88
L215.473 287.927
L215.919 287.876
L216.009 288.278
L216.098 288.215
L216.276 288.168
L216.455 288.558
L216.634 288.609
L218.241 289.878
L218.598 290.053
L218.866 289.997
L218.955 290.06
L219.223 289.844
L219.848 289.558
L219.937 289.541
L220.116 289.61
L220.383 289.782
L220.651 290.142
L221.99 291.222
L222.169 291.144
L222.437 291.18
L223.24 290.866
L223.597 290.778
L223.776 290.743
L224.222 291.153
L224.669 291.508
L225.562 292.128
L225.919 291.927
L226.276 291.841
L226.544 291.79
L226.722 291.749
L227.258 291.619
L227.436 291.835
L228.061 292.445
L229.044 293.37
L229.222 293.282
L229.579 293.182
L230.026 293.364
L230.204 293.398
L230.383 293.394
L230.74 293.472
L230.918 293.427
L231.633 294.268
L231.99 294.592
L232.525 294.932
L232.615 294.967
L232.704 295.174
L232.972 294.946
L233.418 295.058
L233.686 295.236
L234.49 295.418
L234.757 295.797
L235.293 296.21
L235.472 296.527
L235.74 296.877
L236.007 297.346
L236.275 297.691
L236.543 297.55
L236.811 297.403
L237.079 297.245
L237.525 297.181
L237.793 297.088
L238.15 297.237
L238.686 297.748
L239.311 298.329
L239.4 298.378
L239.668 298.794
L240.114 298.919
L240.293 298.911
L240.471 298.87
L241.096 298.827
L241.275 298.924
L241.453 299.074
L241.543 299.087
L241.9 299.447
L242.078 299.625
L242.614 300.118
L242.793 300.307
L243.15 300.877
L243.507 301.119
L243.864 301.061
L244.043 301.078
L244.578 301.071
L244.757 300.986
L244.935 301.12
L245.382 301.448
L245.56 301.598
L245.917 302.083
L246.275 302.304
L247.078 302.885
L247.257 302.832
L247.435 302.769
L247.614 302.754
L248.596 302.884
L248.685 302.776
L249.489 303.535
L250.203 304.214
L250.381 304.363
L250.471 304.575
L250.649 304.417
L250.917 304.488
L251.364 304.388
L251.899 304.223
L252.078 304.222
L252.435 304.507
L252.971 305
L253.328 305.588
L253.685 306.1
L254.131 306.375
L254.22 306.316
L254.31 306.41
L254.578 306.266
L255.292 306.174
L255.828 306.103
L256.095 306.493
L256.363 306.709
L256.72 306.93
L256.988 307.26
L257.702 308.043
L257.881 307.975
L258.06 307.987
L258.238 307.956
L258.506 308.17
L258.774 308.104
L258.952 308.068
L259.22 307.93
L259.934 308.501
L260.202 308.971
L260.292 309.046
L260.559 309.45
L261.274 310.265
L261.363 310.158
L262.97 310.035
L263.773 310.882
L264.934 311.904
L265.291 311.691
L265.38 311.644
L265.559 311.724
L265.827 311.609
L266.005 311.665
L266.273 311.617
L266.452 311.671
L266.63 311.645
L268.416 313.2
L269.309 312.933
L269.844 312.898
L270.112 312.771
L270.38 313.061
L270.559 313.257
L271.898 315.094
L272.166 314.833
L272.434 314.941
L272.88 314.783
L273.237 314.743
L273.505 314.996
L273.773 314.901
L274.041 315.048
L274.844 315.759
L275.112 316.073
L275.291 316.325
L275.737 316.367
L275.916 316.388
L276.273 316.519
L276.451 316.528
L276.719 316.465
L277.255 316.355
L279.219 317.98
L279.397 317.851
L279.665 317.75
L279.933 317.777
L280.201 317.635
L280.29 317.572
L280.558 317.773
L280.737 317.769
L280.915 317.816
L281.272 318.137
L281.808 318.593
L282.165 318.972
L282.612 319.563
L282.969 319.316
L283.236 319.347
L283.415 319.442
L283.683 319.393
L283.861 319.431
L284.04 319.456
L284.486 319.329
L285.379 320.311
L285.826 320.683
L286.183 321.206
L286.361 321.177
L286.629 321.171
L287.522 320.763
L287.7 320.659
L288.058 320.818
L289.129 321.649
L289.486 321.958
L289.754 322.333
L290.29 322.323
L290.379 322.511
L290.557 322.497
L290.825 322.442
L291.004 322.462
L291.272 322.456
L291.45 322.483
L292.164 323.205
L292.432 323.579
L292.879 324.258
L293.682 324.916
L293.861 324.89
L294.039 325.053
L294.218 325.119
L294.486 325.077
L294.575 325.19
L294.932 325.008
L295.289 325.084
L295.557 325.385
L295.646 325.409
L296.004 325.938
L296.986 326.822
L297.343 326.702
L297.789 326.966
L298.236 327.094
L298.503 327.028
L298.86 327.092
L299.128 327.471
L299.396 327.619
L300.557 328.678
L300.646 328.649
L300.914 328.815
L301.271 328.826
L302.253 329.031
L302.7 329.468
L303.682 330.343
L304.485 330.727
L305.11 330.985
L305.378 331.088
L305.646 331.033
L305.824 331.1
L306.003 331.316
L306.628 331.81
L307.699 332.821
L308.592 332.719
L308.771 332.855
L309.485 332.73
L310.02 333.493
L310.824 334.009
L311.181 334.362
L312.074 334.282
L312.252 334.292
L312.431 334.295
L312.788 334.205
L313.056 334.359
L314.752 336.196
L315.199 336.142
L315.556 336.329
L315.734 336.366
L315.913 336.401
L317.966 337.829
L318.502 338.179
L318.77 338.206
L318.948 338.34
L319.484 338.226
L319.663 338.278
L320.198 338.201
L320.645 338.759
L322.341 339.811
L322.698 339.746
L323.234 339.599
L323.502 339.822
L323.77 339.792
L323.948 339.991
L324.93 340.747
L325.198 341.446
L325.466 341.859
L325.555 341.8
L326.002 341.801
L326.18 341.784
L326.448 341.786
L327.341 341.668
L328.144 342.108
L328.591 342.332
L328.769 342.65
L329.216 342.888
L329.394 342.873
L329.662 342.892
L329.841 343.024
L330.108 342.899
L330.912 343.131
L331.358 343.83
L331.626 344.135
L332.965 345.356
L333.323 345.235
L333.501 345.306
L333.59 345.245
L333.769 345.283
L333.948 345.314
L334.126 345.346
L334.215 345.337
L334.572 345.671
L334.662 345.735
L334.93 346.116
L335.108 346.349
L335.376 346.546
L335.555 346.623
L336.18 346.974
L336.358 346.918
L336.537 346.928
L337.787 346.931
L337.965 346.873
L338.054 346.912
L338.233 347.171
L338.322 347.189
L338.501 347.593
L338.858 347.779
L339.661 348.197
L339.751 348.519
L339.84 348.468
L340.197 348.64
L340.644 348.67
L340.911 348.739
L341.001 348.669
L341.179 348.736
L341.536 348.703
L342.34 349.215
L342.608 349.418
L343.054 349.763
L343.679 350.049
L343.858 350.031
L344.483 350.136
L344.84 350.102
L345.643 350.559
L346 350.947
L346.625 351.489
L346.893 351.881
L347.161 351.874
L348.143 351.822
L348.679 351.767
L348.947 351.973
L349.661 352.566
L350.107 352.803
L350.375 353.124
L350.911 353.142
L351.268 353.103
L351.536 353.142
L351.893 353.094
L352.071 353.214
L352.25 353.134
L353.053 353.435
L353.321 353.627
L353.946 353.887
L354.125 354.105
L355.285 354.067
L355.553 354.125
L355.821 354.231
L357.25 355.162
L357.607 355.378
L357.964 355.352
L358.053 355.34
L358.232 355.458
L358.321 355.441
L358.589 355.678
L359.035 355.724
L359.482 355.768
L359.839 356.081
L360.107 356.237
L360.285 356.472
L360.464 356.72
L360.999 356.942
L361.267 357.139
L361.981 357.329
L364.66 359.089
L364.838 359.221
L365.285 359.119
L365.463 359.318
L365.642 359.313
L366.713 359.439
L366.892 359.56
L367.249 359.805
L367.517 360.014
L367.695 360.165
L368.052 360.26
L368.41 360.496
L368.588 360.458
L369.838 361.02
L370.017 361.119
L370.284 361.164
L371.981 362.111
L372.695 362.105
L373.141 362.052
L373.588 362.256
L374.034 362.328
L374.302 362.611
L374.927 362.733
L376.088 363.394
L376.356 363.434
L376.623 363.489
L376.802 363.633
L377.427 363.759
L377.695 363.9
L377.963 364.088
L378.32 364.274
L379.391 364.676
L379.659 364.633
L380.016 364.718
L380.284 364.699
L380.552 364.733
L380.82 364.728
L380.998 364.895
L381.266 365.013
L381.534 365.215
L381.98 365.457
L382.337 365.575
L382.605 365.762
L382.784 365.67
L382.962 365.717
L383.141 365.776
L383.676 365.822
L384.123 365.753
L384.391 365.76
L385.641 366.484
L386.176 366.938
L387.783 366.839
L388.23 366.912
L388.408 367.164
L388.855 367.374
L389.212 367.741
L389.569 367.914
L389.837 367.97
L390.194 367.997
L390.462 368.072
L390.819 368.068
L391.265 368.168
L391.622 368.169
L391.712 368.215
L391.89 368.414
L393.408 368.951
L393.765 368.941
L394.212 369.108
L394.658 369.132
L394.926 369.168
L395.372 369.441
L397.336 370.315
L397.783 370.25
L398.051 370.249
L398.318 370.26
L398.586 370.291
L398.765 370.278
L398.943 370.51
L399.479 370.672
L399.747 370.812
L400.104 370.91
L400.461 371.138
L400.818 371.069
L400.997 371.108
L401.175 371.101
L401.354 371.159
L402.336 371.224
L402.604 371.287
L402.782 371.421
L403.854 371.806
L404.032 371.925
L404.568 371.972
L404.836 372.001
L405.55 372.059
L408.139 372.897
L408.318 372.881
L408.586 372.932
L409.121 372.897
L409.478 372.848
L410.014 373.056
L410.282 373.272
L411.621 373.79
L412.157 373.78
L412.335 373.784
L412.514 374.043
L412.96 374.089
L413.228 374.244
L414.657 374.683
L414.835 374.86
L415.282 374.879
L415.907 374.945
L416.71 375.048
L417.156 375.188
L417.335 375.509
L417.871 375.711
L418.406 375.858
L419.031 375.739
L419.299 375.762
L419.746 375.751
L420.281 375.913
L422.424 376.69
L422.96 376.72
L423.228 376.625
L424.299 376.773
L425.013 377.011
L425.46 377.141
L425.727 377.274
L427.513 377.34
L427.87 377.54
L428.138 377.59
L428.406 377.756
L428.941 377.916
L429.12 377.962
L429.745 378.063
L430.013 378.284
L430.459 378.281
L430.638 378.384
L430.995 378.372
L431.352 378.463
L432.959 378.841
L433.316 378.851
L434.12 378.916
L434.923 378.954
L435.28 379.108
L435.727 379.279
L435.905 379.476
L437.78 379.624
L438.137 379.67
L438.316 379.77
L439.298 380.069
L439.566 380.191
L440.012 380.178
L440.816 380.184
L441.351 380.187
L441.708 380.259
L442.066 380.351
L442.691 380.395
L442.958 380.478
L443.851 380.576
L445.101 380.548
L447.244 380.936
L448.494 380.911
L451.083 381.207
L453.851 381.427
L454.208 381.516
L455.1 381.573
L456.172 381.653
L457.332 381.78
L459.743 381.885
L460.011 381.957
L460.814 382.039
L461.35 382.158
L463.314 382.191
L465.636 382.388
L466.528 382.354
L468.046 382.642
L469.475 382.702
L469.653 382.796
L470.367 382.886
L470.814 382.981
L472.421 383.125
L472.689 383.209
L472.956 383.251
L473.314 383.24
L473.492 383.308
L474.028 383.309
L476.974 383.527
L478.492 383.622
L478.849 383.677
L480.01 383.777
L480.367 383.806
L480.992 383.791
L483.224 383.933
L484.741 383.949
L485.634 384.092
L489.205 384.265
L489.384 384.524
L493.669 384.619
L494.116 384.627
L499.205 384.858
L500.276 384.926
L503.669 385.17
L504.026 385.241
L508.044 385.34
L508.311 385.378
L510.543 385.433
L511.168 385.52
L512.24 385.559
L512.865 385.595
L513.579 385.607
L513.757 385.728
L515.722 385.715
L516.972 385.758
L517.686 385.798
L518.311 385.827
L518.311 385.827" style="fill:none;stroke:#bf00bf;stroke-linecap:square;"/>
   </g>
   <g id="matplotlib.axis_1">
    <g id="xtick_1">
     <g id="line2d_6">
      <defs>
       <path d="
M0 0
L0 -4" id="mc7db9fdffb" style="stroke:#000000;stroke-width:0.5;"/>
      </defs>
      <g>
       <use style="stroke:#000000;stroke-width:0.5;" x="72.0" xlink:href="#mc7db9fdffb" y="388.8"/>
      </g>
     </g>
     <g id="line2d_7">
      <defs>
       <path d="
M0 0
L0 4" id="m5a7d422ac3" style="stroke:#000000;stroke-width:0.5;"/>
      </defs>
      <g>
       <use style="stroke:#000000;stroke-width:0.5;" x="72.0" xlink:href="#m5a7d422ac3" y="43.2"/>
      </g>
     </g>
     <g id="text_1">
      <!-- 0 -->
      <defs>
       <path d="
M56.9844 36.375
Q56.9844 16.7969 50.8594 7.64062
Q44.7344 -1.51562 31.8438 -1.51562
Q18.75 -1.51562 12.7188 7.76562
Q6.6875 17.0469 6.6875 36.2812
Q6.6875 55.6719 12.7812 64.9219
Q18.8906 74.1719 31.8438 74.1719
Q44.9219 74.1719 50.9531 64.7656
Q56.9844 55.375 56.9844 36.375
M44.1406 14.2031
Q45.8438 18.1719 46.4531 23.5156
Q47.0781 28.8594 47.0781 36.375
Q47.0781 43.7969 46.4531 49.2656
Q45.8438 54.7344 44.0938 58.5469
Q42.3906 62.3125 39.4219 64.2031
Q36.4688 66.1094 31.8438 66.1094
Q27.25 66.1094 24.2344 64.2031
Q21.2344 62.3125 19.4844 58.4531
Q17.8281 54.8281 17.2188 49.0156
Q16.6094 43.2188 16.6094 36.2812
Q16.6094 28.6562 17.1406 23.5312
Q17.6719 18.4062 19.4375 14.3594
Q21.0469 10.5469 24 8.54688
Q26.9531 6.54688 31.8438 6.54688
Q36.4219 6.54688 39.4531 8.45312
Q42.4844 10.3594 44.1406 14.2031" id="Verdana-30"/>
      </defs>
      <g transform="translate(68.9821875 401.918125)scale(0.12 -0.12)">
       <use xlink:href="#Verdana-30"/>
      </g>
     </g>
    </g>
    <g id="xtick_2">
     <g id="line2d_8">
      <g>
       <use style="stroke:#000000;stroke-width:0.5;" x="161.28" xlink:href="#mc7db9fdffb" y="388.8"/>
      </g>
     </g>
     <g id="line2d_9">
      <g>
       <use style="stroke:#000000;stroke-width:0.5;" x="161.28" xlink:href="#m5a7d422ac3" y="43.2"/>
      </g>
     </g>
     <g id="text_2">
      <!-- 1000 -->
      <defs>
       <path d="
M52.9375 0
L13.5781 0
L13.5781 7.42188
L28.7188 7.42188
L28.7188 56.1562
L13.5781 56.1562
L13.5781 62.7969
Q16.6562 62.7969 20.1719 63.2969
Q23.6875 63.8125 25.4844 64.7969
Q27.7344 66.0156 29.0312 67.8906
Q30.3281 69.7812 30.5156 72.9531
L38.0938 72.9531
L38.0938 7.42188
L52.9375 7.42188
z
" id="Verdana-31"/>
      </defs>
      <g transform="translate(147.2315625 401.918125)scale(0.12 -0.12)">
       <use xlink:href="#Verdana-31"/>
       <use x="63.57421875" xlink:href="#Verdana-30"/>
       <use x="127.1484375" xlink:href="#Verdana-30"/>
       <use x="190.72265625" xlink:href="#Verdana-30"/>
      </g>
     </g>
    </g>
    <g id="xtick_3">
     <g id="line2d_10">
      <g>
       <use style="stroke:#000000;stroke-width:0.5;" x="250.56" xlink:href="#mc7db9fdffb" y="388.8"/>
      </g>
     </g>
     <g id="line2d_11">
      <g>
       <use style="stroke:#000000;stroke-width:0.5;" x="250.56" xlink:href="#m5a7d422ac3" y="43.2"/>
      </g>
     </g>
     <g id="text_3">
      <!-- 2000 -->
      <defs>
       <path d="
M57.0781 0
L7.85938 0
L7.85938 10.2031
Q12.9844 14.5938 18.1406 18.9844
Q23.2969 23.3906 27.7344 27.7344
Q37.1094 36.8125 40.5781 42.1562
Q44.0469 47.5156 44.0469 53.7188
Q44.0469 59.375 40.3125 62.5625
Q36.5781 65.7656 29.8906 65.7656
Q25.4375 65.7656 20.2656 64.2031
Q15.0938 62.6406 10.1562 59.4219
L9.67188 59.4219
L9.67188 69.6719
Q13.1406 71.3906 18.9219 72.7969
Q24.7031 74.2188 30.125 74.2188
Q41.3125 74.2188 47.6562 68.8125
Q54 63.4219 54 54.2031
Q54 50.0469 52.9531 46.4531
Q51.9062 42.875 49.8594 39.6562
Q47.9531 36.625 45.3906 33.6875
Q42.8281 30.7656 39.1562 27.2031
Q33.9375 22.0781 28.3594 17.2656
Q22.7969 12.4531 17.9688 8.34375
L57.0781 8.34375
z
" id="Verdana-32"/>
      </defs>
      <g transform="translate(236.1684375 401.918125)scale(0.12 -0.12)">
       <use xlink:href="#Verdana-32"/>
       <use x="63.57421875" xlink:href="#Verdana-30"/>
       <use x="127.1484375" xlink:href="#Verdana-30"/>
       <use x="190.72265625" xlink:href="#Verdana-30"/>
      </g>
     </g>
    </g>
    <g id="xtick_4">
     <g id="line2d_12">
      <g>
       <use style="stroke:#000000;stroke-width:0.5;" x="339.84" xlink:href="#mc7db9fdffb" y="388.8"/>
      </g>
     </g>
     <g id="line2d_13">
      <g>
       <use style="stroke:#000000;stroke-width:0.5;" x="339.84" xlink:href="#m5a7d422ac3" y="43.2"/>
      </g>
     </g>
     <g id="text_4">
      <!-- 3000 -->
      <defs>
       <path d="
M50.6875 35.0156
Q53.0312 32.9062 54.5469 29.7344
Q56.0625 26.5625 56.0625 21.5312
Q56.0625 16.5469 54.25 12.3906
Q52.4375 8.25 49.1719 5.17188
Q45.5156 1.76562 40.5469 0.125
Q35.5938 -1.51562 29.6875 -1.51562
Q23.6406 -1.51562 17.7812 -0.0625
Q11.9219 1.375 8.15625 3.07812
L8.15625 13.2812
L8.89062 13.2812
Q13.0312 10.5469 18.6406 8.73438
Q24.2656 6.9375 29.5 6.9375
Q32.5625 6.9375 36.0312 7.95312
Q39.5 8.98438 41.6562 10.9844
Q43.8906 13.1406 44.9844 15.7188
Q46.0938 18.3125 46.0938 22.2656
Q46.0938 26.1719 44.8438 28.7344
Q43.6094 31.2969 41.4062 32.7656
Q39.2031 34.2812 36.0781 34.8438
Q32.9531 35.4062 29.3438 35.4062
L24.9531 35.4062
L24.9531 43.5
L28.375 43.5
Q35.7969 43.5 40.2031 46.5938
Q44.625 49.7031 44.625 55.6719
Q44.625 58.2969 43.5 60.2656
Q42.3906 62.25 40.375 63.5312
Q38.2812 64.7969 35.8906 65.2812
Q33.5 65.7656 30.4688 65.7656
Q25.8281 65.7656 20.5938 64.1094
Q15.375 62.4531 10.75 59.4219
L10.25 59.4219
L10.25 69.625
Q13.7188 71.3438 19.5 72.7812
Q25.2969 74.2188 30.7188 74.2188
Q36.0312 74.2188 40.0781 73.2344
Q44.1406 72.2656 47.4062 70.125
Q50.9219 67.7812 52.7344 64.4531
Q54.5469 61.1406 54.5469 56.6875
Q54.5469 50.6406 50.2656 46.125
Q46 41.6094 40.1875 40.4375
L40.1875 39.75
Q42.5312 39.3594 45.5469 38.1094
Q48.5781 36.8594 50.6875 35.0156" id="Verdana-33"/>
      </defs>
      <g transform="translate(325.46625 401.918125)scale(0.12 -0.12)">
       <use xlink:href="#Verdana-33"/>
       <use x="63.57421875" xlink:href="#Verdana-30"/>
       <use x="127.1484375" xlink:href="#Verdana-30"/>
       <use x="190.72265625" xlink:href="#Verdana-30"/>
      </g>
     </g>
    </g>
    <g id="xtick_5">
     <g id="line2d_14">
      <g>
       <use style="stroke:#000000;stroke-width:0.5;" x="429.12" xlink:href="#mc7db9fdffb" y="388.8"/>
      </g>
     </g>
     <g id="line2d_15">
      <g>
       <use style="stroke:#000000;stroke-width:0.5;" x="429.12" xlink:href="#m5a7d422ac3" y="43.2"/>
      </g>
     </g>
     <g id="text_5">
      <!-- 4000 -->
      <defs>
       <path d="
M58.7344 20.4531
L47.9531 20.4531
L47.9531 0
L38.5781 0
L38.5781 20.4531
L3.76562 20.4531
L3.76562 31.6875
L38.9688 72.7031
L47.9531 72.7031
L47.9531 28.2656
L58.7344 28.2656
z

M38.5781 28.2656
L38.5781 61.0781
L10.4062 28.2656
z
" id="Verdana-34"/>
      </defs>
      <g transform="translate(414.4828125 401.918125)scale(0.12 -0.12)">
       <use xlink:href="#Verdana-34"/>
       <use x="63.57421875" xlink:href="#Verdana-30"/>
       <use x="127.1484375" xlink:href="#Verdana-30"/>
       <use x="190.72265625" xlink:href="#Verdana-30"/>
      </g>
     </g>
    </g>
    <g id="xtick_6">
     <g id="line2d_16">
      <g>
       <use style="stroke:#000000;stroke-width:0.5;" x="518.4" xlink:href="#mc7db9fdffb" y="388.8"/>
      </g>
     </g>
     <g id="line2d_17">
      <g>
       <use style="stroke:#000000;stroke-width:0.5;" x="518.4" xlink:href="#m5a7d422ac3" y="43.2"/>
      </g>
     </g>
     <g id="text_6">
      <!-- 5000 -->
      <defs>
       <path d="
M56.5 23.0938
Q56.5 18.0156 54.6406 13.375
Q52.7812 8.73438 49.5625 5.5625
Q46.0469 2.15625 41.1875 0.3125
Q36.3281 -1.51562 29.9375 -1.51562
Q23.9688 -1.51562 18.4531 -0.265625
Q12.9375 0.984375 9.125 2.73438
L9.125 13.0312
L9.8125 13.0312
Q13.8125 10.5 19.1875 8.71875
Q24.5625 6.9375 29.7344 6.9375
Q33.2031 6.9375 36.4531 7.90625
Q39.7031 8.89062 42.2344 11.3281
Q44.3906 13.4219 45.4844 16.3438
Q46.5781 19.2812 46.5781 23.1406
Q46.5781 26.9062 45.2812 29.4844
Q44 32.0781 41.7031 33.6406
Q39.1562 35.5 35.5156 36.25
Q31.8906 37.0156 27.3906 37.0156
Q23.0938 37.0156 19.1094 36.4219
Q15.1406 35.8438 12.25 35.25
L12.25 72.7031
L56 72.7031
L56 64.1562
L21.6875 64.1562
L21.6875 44.8281
Q23.7812 45.0156 25.9688 45.1094
Q28.1719 45.2188 29.7812 45.2188
Q35.6875 45.2188 40.125 44.2188
Q44.5781 43.2188 48.2969 40.6719
Q52.2031 37.9844 54.3438 33.7344
Q56.5 29.5 56.5 23.0938" id="Verdana-35"/>
      </defs>
      <g transform="translate(504.084375 401.918125)scale(0.12 -0.12)">
       <use xlink:href="#Verdana-35"/>
       <use x="63.57421875" xlink:href="#Verdana-30"/>
       <use x="127.1484375" xlink:href="#Verdana-30"/>
       <use x="190.72265625" xlink:href="#Verdana-30"/>
      </g>
     </g>
    </g>
    <g id="text_7">
     <!-- Objective function exectuions -->
     <defs>
      <path d="
M63.9688 64.3594
Q68.4062 59.4688 70.7656 52.3906
Q73.1406 45.3125 73.1406 36.3281
Q73.1406 27.3438 70.7188 20.2344
Q68.3125 13.1406 63.9688 8.40625
Q59.4688 3.46875 53.3438 0.96875
Q47.2188 -1.51562 39.3594 -1.51562
Q31.6875 -1.51562 25.4062 1.01562
Q19.1406 3.5625 14.75 8.40625
Q10.3594 13.2344 7.98438 20.2656
Q5.60938 27.2969 5.60938 36.3281
Q5.60938 45.2188 7.95312 52.2656
Q10.2969 59.3281 14.7969 64.3594
Q19.0938 69.1406 25.4688 71.6719
Q31.8438 74.2188 39.3594 74.2188
Q47.1719 74.2188 53.3906 71.6562
Q59.625 69.0938 63.9688 64.3594
M63.0938 36.3281
Q63.0938 50.4844 56.7344 58.1719
Q50.3906 65.875 39.4062 65.875
Q28.3281 65.875 22 58.1719
Q15.6719 50.4844 15.6719 36.3281
Q15.6719 22.0156 22.1094 14.4219
Q28.5625 6.84375 39.4062 6.84375
Q50.25 6.84375 56.6719 14.4219
Q63.0938 22.0156 63.0938 36.3281" id="Verdana-4f"/>
      <path d="
M38.375 67.0938
L37.8906 67.0938
Q36.375 67.5312 33.9375 67.9844
Q31.5 68.4531 29.6406 68.4531
Q23.7344 68.4531 21.0625 65.8438
Q18.4062 63.2344 18.4062 56.3906
L18.4062 54.5469
L34.9688 54.5469
L34.9688 46.8281
L18.7031 46.8281
L18.7031 0
L9.51562 0
L9.51562 46.8281
L3.32812 46.8281
L3.32812 54.5469
L9.51562 54.5469
L9.51562 56.3438
Q9.51562 66.0625 14.3438 71.2656
Q19.1875 76.4688 28.3281 76.4688
Q31.3906 76.4688 33.8594 76.1719
Q36.3281 75.875 38.375 75.4844
z
" id="Verdana-66"/>
      <path d="
M57.0312 27.6875
Q57.0312 20.8438 55.0938 15.375
Q53.1719 9.90625 49.9062 6.20312
Q46.4375 2.34375 42.2812 0.40625
Q38.1406 -1.51562 33.1562 -1.51562
Q28.5156 -1.51562 25.0469 -0.40625
Q21.5781 0.6875 18.2188 2.54688
L17.625 0
L9.03125 0
L9.03125 75.9844
L18.2188 75.9844
L18.2188 48.8281
Q22.0781 52 26.4219 54.0312
Q30.7656 56.0625 36.1875 56.0625
Q45.8438 56.0625 51.4375 48.6406
Q57.0312 41.2188 57.0312 27.6875
M47.5625 27.4375
Q47.5625 37.2031 44.3281 42.25
Q41.1094 47.3125 33.9375 47.3125
Q29.9375 47.3125 25.8281 45.5781
Q21.7344 43.8438 18.2188 41.1094
L18.2188 9.85938
Q22.125 8.10938 24.9219 7.42188
Q27.7344 6.73438 31.2969 6.73438
Q38.9219 6.73438 43.2344 11.7344
Q47.5625 16.75 47.5625 27.4375" id="Verdana-62"/>
      <path id="Verdana-20"/>
      <path d="
M18.8906 63.6719
L8.54688 63.6719
L8.54688 73.1875
L18.8906 73.1875
z

M18.3125 0
L9.125 0
L9.125 54.5469
L18.3125 54.5469
z
" id="Verdana-69"/>
      <path d="
M26.0312 63.6719
L15.6719 63.6719
L15.6719 73.1875
L26.0312 73.1875
z

M25.4375 -1.3125
Q25.4375 -10.8906 20.5469 -15.7656
Q15.6719 -20.6562 7.46875 -20.6562
Q5.51562 -20.6562 2.3125 -20.2656
Q-0.875 -19.875 -3.03125 -19.2812
L-3.03125 -10.5469
L-2.54688 -10.5469
Q-1.17188 -11.0781 1.14062 -11.7656
Q3.46875 -12.4531 5.67188 -12.4531
Q9.1875 -12.4531 11.3281 -11.4688
Q13.4844 -10.5 14.5469 -8.54688
Q15.625 -6.59375 15.9375 -3.82812
Q16.2656 -1.07812 16.2656 2.875
L16.2656 46.8281
L4.89062 46.8281
L4.89062 54.5469
L25.4375 54.5469
z
" id="Verdana-6a"/>
      <path d="
M48 15.7188
Q48 8.25 41.8125 3.46875
Q35.6406 -1.3125 24.9531 -1.3125
Q18.8906 -1.3125 13.8438 0.125
Q8.79688 1.5625 5.375 3.26562
L5.375 13.5781
L5.85938 13.5781
Q10.2031 10.2969 15.5156 8.375
Q20.8438 6.45312 25.7344 6.45312
Q31.7812 6.45312 35.2031 8.40625
Q38.625 10.3594 38.625 14.5469
Q38.625 17.7812 36.7656 19.4375
Q34.9062 21.0938 29.6406 22.2656
Q27.6875 22.7031 24.5312 23.2812
Q21.3906 23.875 18.7969 24.5625
Q11.625 26.4688 8.60938 30.1562
Q5.60938 33.8438 5.60938 39.2031
Q5.60938 42.5781 7 45.5469
Q8.40625 48.5312 11.2344 50.875
Q13.9688 53.1719 18.1875 54.5156
Q22.4062 55.8594 27.6406 55.8594
Q32.5156 55.8594 37.5156 54.6562
Q42.5312 53.4688 45.8438 51.7656
L45.8438 41.9375
L45.3594 41.9375
Q41.8438 44.5312 36.8125 46.3125
Q31.7812 48.0938 26.9531 48.0938
Q21.9219 48.0938 18.4531 46.1562
Q14.9844 44.2344 14.9844 40.4375
Q14.9844 37.0625 17.0938 35.3594
Q19.1406 33.6406 23.7344 32.5625
Q26.2656 31.9844 29.4062 31.3906
Q32.5625 30.8125 34.6719 30.3281
Q41.0625 28.8594 44.5312 25.2969
Q48 21.6875 48 15.7188" id="Verdana-73"/>
      <path d="
M55.5156 27.25
Q55.5156 13.9219 48.6719 6.20312
Q41.8438 -1.51562 30.375 -1.51562
Q18.7969 -1.51562 11.9844 6.20312
Q5.17188 13.9219 5.17188 27.25
Q5.17188 40.5781 11.9844 48.3125
Q18.7969 56.0625 30.375 56.0625
Q41.8438 56.0625 48.6719 48.3125
Q55.5156 40.5781 55.5156 27.25
M46.0469 27.25
Q46.0469 37.8438 41.8906 42.9844
Q37.75 48.1406 30.375 48.1406
Q22.9062 48.1406 18.7812 42.9844
Q14.6562 37.8438 14.6562 27.25
Q14.6562 17 18.7969 11.6875
Q22.9531 6.39062 30.375 6.39062
Q37.7031 6.39062 41.875 11.6406
Q46.0469 16.8906 46.0469 27.25" id="Verdana-6f"/>
      <path d="
M54.6875 26.3125
L14.5 26.3125
Q14.5 21.2969 16.0156 17.5469
Q17.5312 13.8125 20.1719 11.4219
Q22.7031 9.07812 26.1875 7.90625
Q29.6875 6.73438 33.8906 6.73438
Q39.4531 6.73438 45.0938 8.95312
Q50.7344 11.1875 53.125 13.3281
L53.6094 13.3281
L53.6094 3.32812
Q48.9688 1.375 44.1406 0.046875
Q39.3125 -1.26562 33.9844 -1.26562
Q20.4062 -1.26562 12.7812 6.07812
Q5.17188 13.4219 5.17188 26.9531
Q5.17188 40.3281 12.4688 48.1875
Q19.7812 56.0625 31.6875 56.0625
Q42.7188 56.0625 48.7031 49.6094
Q54.6875 43.1719 54.6875 31.2969
z

M45.75 33.3438
Q45.7031 40.5781 42.1094 44.5312
Q38.5312 48.4844 31.2031 48.4844
Q23.8281 48.4844 19.4531 44.1406
Q15.0938 39.7969 14.5 33.3438
z
" id="Verdana-65"/>
      <path d="
M54.25 0
L45.0625 0
L45.0625 6.0625
Q40.4375 2.39062 36.1875 0.4375
Q31.9375 -1.51562 26.8125 -1.51562
Q18.2188 -1.51562 13.4219 3.73438
Q8.64062 8.98438 8.64062 19.1406
L8.64062 54.5469
L17.8281 54.5469
L17.8281 23.4844
Q17.8281 19.3438 18.2188 16.375
Q18.6094 13.4219 19.875 11.3281
Q21.1875 9.1875 23.2812 8.20312
Q25.3906 7.23438 29.3906 7.23438
Q32.9531 7.23438 37.1719 9.07812
Q41.4062 10.9375 45.0625 13.8125
L45.0625 54.5469
L54.25 54.5469
z
" id="Verdana-75"/>
      <path d="
M49.3594 3.42188
Q44.7812 1.21875 40.6562 0
Q36.5312 -1.21875 31.8906 -1.21875
Q25.9844 -1.21875 21.0469 0.515625
Q16.1094 2.25 12.5938 5.76562
Q9.03125 9.28125 7.07812 14.6406
Q5.125 20.0156 5.125 27.2031
Q5.125 40.5781 12.4688 48.1875
Q19.8281 55.8125 31.8906 55.8125
Q36.5781 55.8125 41.0938 54.4844
Q45.6094 53.1719 49.3594 51.2656
L49.3594 41.0625
L48.875 41.0625
Q44.6719 44.3438 40.2031 46.0938
Q35.75 47.8594 31.5 47.8594
Q23.6875 47.8594 19.1719 42.6094
Q14.6562 37.3594 14.6562 27.2031
Q14.6562 17.3281 19.0625 12.0312
Q23.4844 6.73438 31.5 6.73438
Q34.2812 6.73438 37.1562 7.46875
Q40.0469 8.20312 42.3281 9.375
Q44.3438 10.4062 46.0938 11.5469
Q47.8594 12.7031 48.875 13.5312
L49.3594 13.5312
z
" id="Verdana-63"/>
      <path d="
M54.6406 0
L45.4531 0
L45.4531 31.0625
Q45.4531 34.8125 45.0156 38.1094
Q44.5781 41.4062 43.4062 43.2656
Q42.1875 45.3125 39.8906 46.3125
Q37.5938 47.3125 33.9375 47.3125
Q30.1719 47.3125 26.0625 45.4531
Q21.9688 43.6094 18.2188 40.7188
L18.2188 0
L9.03125 0
L9.03125 54.5469
L18.2188 54.5469
L18.2188 48.4844
Q22.5156 52.0469 27.0938 54.0469
Q31.6875 56.0625 36.5312 56.0625
Q45.3594 56.0625 50 50.7344
Q54.6406 45.4062 54.6406 35.4062
z
" id="Verdana-6e"/>
      <path d="
M37.3594 0.484375
Q34.7656 -0.203125 31.7031 -0.640625
Q28.6562 -1.07812 26.2656 -1.07812
Q17.9219 -1.07812 13.5781 3.40625
Q9.23438 7.90625 9.23438 17.8281
L9.23438 46.8281
L3.03125 46.8281
L3.03125 54.5469
L9.23438 54.5469
L9.23438 70.2188
L18.4062 70.2188
L18.4062 54.5469
L37.3594 54.5469
L37.3594 46.8281
L18.4062 46.8281
L18.4062 21.9688
Q18.4062 17.6719 18.5938 15.25
Q18.7969 12.8438 19.9688 10.75
Q21.0469 8.79688 22.9219 7.89062
Q24.8125 6.98438 28.6562 6.98438
Q30.9062 6.98438 33.3438 7.64062
Q35.7969 8.29688 36.8594 8.73438
L37.3594 8.73438
z
" id="Verdana-74"/>
      <path d="
M56.2031 54.5469
L34.125 0
L24.9062 0
L2.98438 54.5469
L12.9375 54.5469
L29.8281 11.1406
L46.5781 54.5469
z
" id="Verdana-76"/>
      <path d="
M56.25 0
L44.6719 0
L29.2031 20.9531
L13.625 0
L2.9375 0
L24.2188 27.2031
L3.125 54.5469
L14.7031 54.5469
L30.0781 33.9375
L45.5156 54.5469
L56.25 54.5469
L34.8125 27.6875
z
" id="Verdana-78"/>
     </defs>
     <g transform="translate(206.5078125 418.509375)scale(0.12 -0.12)">
      <use xlink:href="#Verdana-4f"/>
      <use x="78.7109375" xlink:href="#Verdana-62"/>
      <use x="141.015625" xlink:href="#Verdana-6a"/>
      <use x="175.439453125" xlink:href="#Verdana-65"/>
      <use x="235.009765625" xlink:href="#Verdana-63"/>
      <use x="287.109375" xlink:href="#Verdana-74"/>
      <use x="326.513671875" xlink:href="#Verdana-69"/>
      <use x="353.955078125" xlink:href="#Verdana-76"/>
      <use x="412.259765625" xlink:href="#Verdana-65"/>
      <use x="471.830078125" xlink:href="#Verdana-20"/>
      <use x="506.986328125" xlink:href="#Verdana-66"/>
      <use x="542.142578125" xlink:href="#Verdana-75"/>
      <use x="605.423828125" xlink:href="#Verdana-6e"/>
      <use x="668.705078125" xlink:href="#Verdana-63"/>
      <use x="720.8046875" xlink:href="#Verdana-74"/>
      <use x="760.208984375" xlink:href="#Verdana-69"/>
      <use x="787.650390625" xlink:href="#Verdana-6f"/>
      <use x="848.34375" xlink:href="#Verdana-6e"/>
      <use x="911.625" xlink:href="#Verdana-20"/>
      <use x="946.78125" xlink:href="#Verdana-65"/>
      <use x="1006.3515625" xlink:href="#Verdana-78"/>
      <use x="1064.40625" xlink:href="#Verdana-65"/>
      <use x="1123.9765625" xlink:href="#Verdana-63"/>
      <use x="1176.076171875" xlink:href="#Verdana-74"/>
      <use x="1215.48046875" xlink:href="#Verdana-75"/>
      <use x="1278.76171875" xlink:href="#Verdana-69"/>
      <use x="1306.203125" xlink:href="#Verdana-6f"/>
      <use x="1366.896484375" xlink:href="#Verdana-6e"/>
      <use x="1430.177734375" xlink:href="#Verdana-73"/>
     </g>
    </g>
   </g>
   <g id="matplotlib.axis_2">
    <g id="ytick_1">
     <g id="line2d_18">
      <defs>
       <path d="
M0 0
L4 0" id="md7965d1ba0" style="stroke:#000000;stroke-width:0.5;"/>
      </defs>
      <g>
       <use style="stroke:#000000;stroke-width:0.5;" x="72.0" xlink:href="#md7965d1ba0" y="388.8"/>
      </g>
     </g>
     <g id="line2d_19">
      <defs>
       <path d="
M0 0
L-4 0" id="md9a1c1a7cd" style="stroke:#000000;stroke-width:0.5;"/>
      </defs>
      <g>
       <use style="stroke:#000000;stroke-width:0.5;" x="518.4" xlink:href="#md9a1c1a7cd" y="388.8"/>
      </g>
     </g>
     <g id="text_8">
      <!-- 0.0 -->
      <defs>
       <path d="
M24.0312 0
L12.3594 0
L12.3594 13.9219
L24.0312 13.9219
z
" id="Verdana-2e"/>
      </defs>
      <g transform="translate(49.97 392.1515625)scale(0.12 -0.12)">
       <use xlink:href="#Verdana-30"/>
       <use x="63.57421875" xlink:href="#Verdana-2e"/>
       <use x="99.951171875" xlink:href="#Verdana-30"/>
      </g>
     </g>
    </g>
    <g id="ytick_2">
     <g id="line2d_20">
      <g>
       <use style="stroke:#000000;stroke-width:0.5;" x="72.0" xlink:href="#md7965d1ba0" y="319.68"/>
      </g>
     </g>
     <g id="line2d_21">
      <g>
       <use style="stroke:#000000;stroke-width:0.5;" x="518.4" xlink:href="#md9a1c1a7cd" y="319.68"/>
      </g>
     </g>
     <g id="text_9">
      <!-- 0.2 -->
      <g transform="translate(49.95875 323.0315625)scale(0.12 -0.12)">
       <use xlink:href="#Verdana-30"/>
       <use x="63.57421875" xlink:href="#Verdana-2e"/>
       <use x="99.951171875" xlink:href="#Verdana-32"/>
      </g>
     </g>
    </g>
    <g id="ytick_3">
     <g id="line2d_22">
      <g>
       <use style="stroke:#000000;stroke-width:0.5;" x="72.0" xlink:href="#md7965d1ba0" y="250.56"/>
      </g>
     </g>
     <g id="line2d_23">
      <g>
       <use style="stroke:#000000;stroke-width:0.5;" x="518.4" xlink:href="#md9a1c1a7cd" y="250.56"/>
      </g>
     </g>
     <g id="text_10">
      <!-- 0.4 -->
      <g transform="translate(49.76 253.9115625)scale(0.12 -0.12)">
       <use xlink:href="#Verdana-30"/>
       <use x="63.57421875" xlink:href="#Verdana-2e"/>
       <use x="99.951171875" xlink:href="#Verdana-34"/>
      </g>
     </g>
    </g>
    <g id="ytick_4">
     <g id="line2d_24">
      <g>
       <use style="stroke:#000000;stroke-width:0.5;" x="72.0" xlink:href="#md7965d1ba0" y="181.44"/>
      </g>
     </g>
     <g id="line2d_25">
      <g>
       <use style="stroke:#000000;stroke-width:0.5;" x="518.4" xlink:href="#md9a1c1a7cd" y="181.44"/>
      </g>
     </g>
     <g id="text_11">
      <!-- 0.6 -->
      <defs>
       <path d="
M58.1562 23.5781
Q58.1562 12.5 50.8594 5.48438
Q43.5625 -1.51562 32.9531 -1.51562
Q27.5938 -1.51562 23.1875 0.140625
Q18.7969 1.8125 15.4375 5.07812
Q11.2344 9.125 8.95312 15.8125
Q6.6875 22.5156 6.6875 31.9375
Q6.6875 41.6094 8.76562 49.0781
Q10.8438 56.5469 15.375 62.3594
Q19.6719 67.875 26.4531 70.9688
Q33.25 74.0781 42.2812 74.0781
Q45.1719 74.0781 47.125 73.8281
Q49.0781 73.5781 51.0781 72.9531
L51.0781 63.625
L50.5938 63.625
Q49.2188 64.3594 46.4531 65.0156
Q43.7031 65.6719 40.8281 65.6719
Q30.3281 65.6719 24.0781 59.1094
Q17.8281 52.5469 16.7969 41.3594
Q20.9062 43.8438 24.875 45.1406
Q28.8594 46.4375 34.0781 46.4375
Q38.7188 46.4375 42.25 45.5781
Q45.7969 44.7344 49.5156 42.1406
Q53.8125 39.1562 55.9844 34.6094
Q58.1562 30.0781 58.1562 23.5781
M48.25 23.1875
Q48.25 27.7344 46.9062 30.7031
Q45.5625 33.6875 42.4844 35.8906
Q40.2344 37.4531 37.5 37.9375
Q34.7656 38.4219 31.7812 38.4219
Q27.6406 38.4219 24.0781 37.4375
Q20.5156 36.4688 16.75 34.4219
Q16.6562 33.3438 16.5938 32.3438
Q16.5469 31.3438 16.5469 29.8281
Q16.5469 22.125 18.1406 17.6562
Q19.7344 13.1875 22.5156 10.5938
Q24.75 8.45312 27.3594 7.45312
Q29.9844 6.45312 33.0625 6.45312
Q40.1406 6.45312 44.1875 10.7656
Q48.25 15.0938 48.25 23.1875" id="Verdana-36"/>
      </defs>
      <g transform="translate(49.829375 184.7915625)scale(0.12 -0.12)">
       <use xlink:href="#Verdana-30"/>
       <use x="63.57421875" xlink:href="#Verdana-2e"/>
       <use x="99.951171875" xlink:href="#Verdana-36"/>
      </g>
     </g>
    </g>
    <g id="ytick_5">
     <g id="line2d_26">
      <g>
       <use style="stroke:#000000;stroke-width:0.5;" x="72.0" xlink:href="#md7965d1ba0" y="112.32"/>
      </g>
     </g>
     <g id="line2d_27">
      <g>
       <use style="stroke:#000000;stroke-width:0.5;" x="518.4" xlink:href="#md9a1c1a7cd" y="112.32"/>
      </g>
     </g>
     <g id="text_12">
      <!-- 0.8 -->
      <defs>
       <path d="
M57.625 20.2656
Q57.625 10.8438 50.2656 4.59375
Q42.9219 -1.65625 31.7812 -1.65625
Q19.9688 -1.65625 12.9531 4.4375
Q5.95312 10.5469 5.95312 20.0625
Q5.95312 26.125 9.46875 31.0312
Q12.9844 35.9375 19.3906 38.8125
L19.3906 39.1094
Q13.5312 42.2344 10.7188 45.9375
Q7.90625 49.6562 7.90625 55.2188
Q7.90625 63.4219 14.6406 68.8906
Q21.3906 74.3594 31.7812 74.3594
Q42.6719 74.3594 49.1719 69.1406
Q55.6719 63.9219 55.6719 55.8594
Q55.6719 50.9219 52.5938 46.1562
Q49.5156 41.4062 43.5625 38.7188
L43.5625 38.4219
Q50.3906 35.5 54 31.2031
Q57.625 26.9062 57.625 20.2656
M46.0469 55.7656
Q46.0469 60.9844 42.0156 64.0781
Q37.9844 67.1875 31.7344 67.1875
Q25.5938 67.1875 21.6562 64.25
Q17.7188 61.3281 17.7188 56.3438
Q17.7188 52.8281 19.7031 50.2656
Q21.6875 47.7031 25.6875 45.7031
Q27.4844 44.8281 30.875 43.4062
Q34.2812 42 37.5 41.0625
Q42.3281 44.2812 44.1875 47.75
Q46.0469 51.2188 46.0469 55.7656
M47.5625 19.3438
Q47.5625 23.8281 45.5781 26.5312
Q43.6094 29.25 37.8438 31.9844
Q35.5469 33.0625 32.8125 33.9844
Q30.0781 34.9062 25.5312 36.5781
Q21.1406 34.1875 18.4844 30.0781
Q15.8281 25.9844 15.8281 20.7969
Q15.8281 14.2031 20.3594 9.90625
Q24.9062 5.60938 31.8906 5.60938
Q39.0156 5.60938 43.2812 9.26562
Q47.5625 12.9375 47.5625 19.3438" id="Verdana-38"/>
      </defs>
      <g transform="translate(49.893125 115.6715625)scale(0.12 -0.12)">
       <use xlink:href="#Verdana-30"/>
       <use x="63.57421875" xlink:href="#Verdana-2e"/>
       <use x="99.951171875" xlink:href="#Verdana-38"/>
      </g>
     </g>
    </g>
    <g id="ytick_6">
     <g id="line2d_28">
      <g>
       <use style="stroke:#000000;stroke-width:0.5;" x="72.0" xlink:href="#md7965d1ba0" y="43.2"/>
      </g>
     </g>
     <g id="line2d_29">
      <g>
       <use style="stroke:#000000;stroke-width:0.5;" x="518.4" xlink:href="#md9a1c1a7cd" y="43.2"/>
      </g>
     </g>
     <g id="text_13">
      <!-- 1.0 -->
      <g transform="translate(50.796875 46.5515625)scale(0.12 -0.12)">
       <use xlink:href="#Verdana-31"/>
       <use x="63.57421875" xlink:href="#Verdana-2e"/>
       <use x="99.951171875" xlink:href="#Verdana-30"/>
      </g>
     </g>
    </g>
    <g id="text_14">
     <!-- Rank 0 Probability -->
     <defs>
      <path d="
M56.2031 54.5469
L24.3594 -20.125
L14.5469 -20.125
L24.7031 2.64062
L2.98438 54.5469
L12.9375 54.5469
L29.6875 14.1094
L46.5781 54.5469
z
" id="Verdana-79"/>
      <path d="
M69.9219 0
L57.375 0
L33.0625 28.9062
L19.4375 28.9062
L19.4375 0
L9.76562 0
L9.76562 72.7031
L30.125 72.7031
Q36.7188 72.7031 41.1094 71.8438
Q45.5156 71 49.0312 68.7969
Q52.9844 66.3125 55.2031 62.5156
Q57.4219 58.7344 57.4219 52.9375
Q57.4219 45.0625 53.4688 39.7656
Q49.5156 34.4688 42.5781 31.7812
z

M47.3125 52.25
Q47.3125 55.375 46.2188 57.7812
Q45.125 60.2031 42.5781 61.8594
Q40.4844 63.2812 37.5938 63.8438
Q34.7188 64.4062 30.8125 64.4062
L19.4375 64.4062
L19.4375 36.9688
L29.2031 36.9688
Q33.7969 36.9688 37.2031 37.7656
Q40.625 38.5781 43.0156 40.7656
Q45.2188 42.8281 46.2656 45.4844
Q47.3125 48.1406 47.3125 52.25" id="Verdana-52"/>
      <path d="
M51.4219 0
L42.2812 0
L42.2812 5.8125
Q41.0625 4.98438 38.9844 3.48438
Q36.9219 2 34.9688 1.125
Q32.6719 0 29.6875 -0.75
Q26.7031 -1.51562 22.7031 -1.51562
Q15.3281 -1.51562 10.2031 3.35938
Q5.07812 8.25 5.07812 15.8281
Q5.07812 22.0156 7.73438 25.8438
Q10.4062 29.6875 15.3281 31.8906
Q20.3125 34.0781 27.2969 34.8594
Q34.2812 35.6406 42.2812 36.0312
L42.2812 37.4531
Q42.2812 40.5781 41.1875 42.625
Q40.0938 44.6719 38.0312 45.8438
Q36.0781 46.9688 33.3438 47.3594
Q30.6094 47.75 27.6406 47.75
Q24.0312 47.75 19.5781 46.7969
Q15.1406 45.8438 10.4062 44.0469
L9.90625 44.0469
L9.90625 53.375
Q12.5938 54.1094 17.6719 54.9844
Q22.75 55.8594 27.6875 55.8594
Q33.4531 55.8594 37.7188 54.9062
Q42 53.9531 45.125 51.6562
Q48.1875 49.4219 49.7969 45.8438
Q51.4219 42.2812 51.4219 37.0156
z

M42.2812 13.4219
L42.2812 28.6094
Q38.0938 28.375 32.3906 27.875
Q26.7031 27.3906 23.3906 26.4688
Q19.4375 25.3438 16.9844 22.9688
Q14.5469 20.6094 14.5469 16.4531
Q14.5469 11.7656 17.375 9.39062
Q20.2188 7.03125 26.0312 7.03125
Q30.8594 7.03125 34.8594 8.90625
Q38.875 10.7969 42.2812 13.4219" id="Verdana-61"/>
      <path d="
M57.3281 50.7344
Q57.3281 45.9062 55.6406 41.7656
Q53.9531 37.6406 50.9219 34.625
Q47.1719 30.8594 42.0469 28.9688
Q36.9219 27.0938 29.1094 27.0938
L19.4375 27.0938
L19.4375 0
L9.76562 0
L9.76562 72.7031
L29.5 72.7031
Q36.0312 72.7031 40.5781 71.6094
Q45.125 70.5156 48.6406 68.1719
Q52.7812 65.375 55.0469 61.2188
Q57.3281 57.0781 57.3281 50.7344
M47.2656 50.4844
Q47.2656 54.25 45.9375 57.0312
Q44.625 59.8125 41.9375 61.5781
Q39.5938 63.0938 36.5938 63.75
Q33.5938 64.4062 29 64.4062
L19.4375 64.4062
L19.4375 35.3594
L27.5938 35.3594
Q33.4531 35.3594 37.1094 36.4062
Q40.7656 37.4531 43.0625 39.75
Q45.3594 42.0938 46.3125 44.6719
Q47.2656 47.2656 47.2656 50.4844" id="Verdana-50"/>
      <path d="
M18.3125 0
L9.125 0
L9.125 75.9844
L18.3125 75.9844
z
" id="Verdana-6c"/>
      <path d="
M58.5469 0
L46.4375 0
L24.5625 23.875
L18.6094 18.2188
L18.6094 0
L9.42188 0
L9.42188 75.9844
L18.6094 75.9844
L18.6094 27.25
L45.125 54.5469
L56.6875 54.5469
L31.3438 29.3438
z
" id="Verdana-6b"/>
      <path d="
M43.0625 44.5312
L42.5781 44.5312
Q40.5312 45.0156 38.5938 45.2344
Q36.6719 45.4531 34.0312 45.4531
Q29.7812 45.4531 25.8281 43.5781
Q21.875 41.7031 18.2188 38.7188
L18.2188 0
L9.03125 0
L9.03125 54.5469
L18.2188 54.5469
L18.2188 46.4844
Q23.6875 50.875 27.8594 52.7031
Q32.0312 54.5469 36.375 54.5469
Q38.7656 54.5469 39.8438 54.4219
Q40.9219 54.2969 43.0625 53.9531
z
" id="Verdana-72"/>
     </defs>
     <g transform="translate(42.345 270.583125)rotate(-90.0)scale(0.12 -0.12)">
      <use xlink:href="#Verdana-52"/>
      <use x="67.53125" xlink:href="#Verdana-61"/>
      <use x="127.58984375" xlink:href="#Verdana-6e"/>
      <use x="190.87109375" xlink:href="#Verdana-6b"/>
      <use x="250.05078125" xlink:href="#Verdana-20"/>
      <use x="285.20703125" xlink:href="#Verdana-30"/>
      <use x="348.78125" xlink:href="#Verdana-20"/>
      <use x="383.9375" xlink:href="#Verdana-50"/>
      <use x="444.240234375" xlink:href="#Verdana-72"/>
      <use x="486.916015625" xlink:href="#Verdana-6f"/>
      <use x="547.609375" xlink:href="#Verdana-62"/>
      <use x="609.9140625" xlink:href="#Verdana-61"/>
      <use x="669.97265625" xlink:href="#Verdana-62"/>
      <use x="732.27734375" xlink:href="#Verdana-69"/>
      <use x="759.71875" xlink:href="#Verdana-6c"/>
      <use x="787.16015625" xlink:href="#Verdana-69"/>
      <use x="814.6015625" xlink:href="#Verdana-74"/>
      <use x="853.505859375" xlink:href="#Verdana-79"/>
     </g>
    </g>
   </g>
   <g id="patch_3">
    <path d="
M518.4 388.8
L518.4 43.2" style="fill:none;stroke:#000000;"/>
   </g>
   <g id="patch_4">
    <path d="
M72 43.2
L518.4 43.2" style="fill:none;stroke:#000000;"/>
   </g>
   <g id="patch_5">
    <path d="
M72 388.8
L518.4 388.8" style="fill:none;stroke:#000000;"/>
   </g>
   <g id="patch_6">
    <path d="
M72 388.8
L72 43.2" style="fill:none;stroke:#000000;"/>
   </g>
   <g id="text_15">
    <!-- Ackley Rank 0 Probability -->
    <defs>
     <path d="
M67.0938 0
L56.7812 0
L49.6562 20.2656
L18.2188 20.2656
L11.0781 0
L1.26562 0
L27.7344 72.7031
L40.625 72.7031
z

M46.6875 28.5625
L33.9375 64.2656
L21.1406 28.5625
z
" id="Verdana-41"/>
    </defs>
    <g transform="translate(203.70825 38.2)scale(0.144 -0.144)">
     <use xlink:href="#Verdana-41"/>
     <use x="68.359375" xlink:href="#Verdana-63"/>
     <use x="120.458984375" xlink:href="#Verdana-6b"/>
     <use x="179.638671875" xlink:href="#Verdana-6c"/>
     <use x="207.080078125" xlink:href="#Verdana-65"/>
     <use x="266.650390625" xlink:href="#Verdana-79"/>
     <use x="325.830078125" xlink:href="#Verdana-20"/>
     <use x="360.986328125" xlink:href="#Verdana-52"/>
     <use x="428.517578125" xlink:href="#Verdana-61"/>
     <use x="488.576171875" xlink:href="#Verdana-6e"/>
     <use x="551.857421875" xlink:href="#Verdana-6b"/>
     <use x="611.037109375" xlink:href="#Verdana-20"/>
     <use x="646.193359375" xlink:href="#Verdana-30"/>
     <use x="709.767578125" xlink:href="#Verdana-20"/>
     <use x="744.923828125" xlink:href="#Verdana-50"/>
     <use x="805.2265625" xlink:href="#Verdana-72"/>
     <use x="847.90234375" xlink:href="#Verdana-6f"/>
     <use x="908.595703125" xlink:href="#Verdana-62"/>
     <use x="970.900390625" xlink:href="#Verdana-61"/>
     <use x="1030.958984375" xlink:href="#Verdana-62"/>
     <use x="1093.263671875" xlink:href="#Verdana-69"/>
     <use x="1120.705078125" xlink:href="#Verdana-6c"/>
     <use x="1148.146484375" xlink:href="#Verdana-69"/>
     <use x="1175.587890625" xlink:href="#Verdana-74"/>
     <use x="1214.4921875" xlink:href="#Verdana-79"/>
    </g>
   </g>
   <g id="legend_1">
    <g id="patch_7">
     <path d="
M79.2 159.919
L183.22 159.919
L183.22 50.4
L79.2 50.4
L79.2 159.919
z
" style="fill:#ffffff;stroke:#000000;"/>
    </g>
    <g id="line2d_30">
     <path d="
M89.28 62.0617
L109.44 62.0617" style="fill:none;stroke:#0000ff;stroke-dasharray:6.000000,2.000000;stroke-dashoffset:0.0;"/>
    </g>
    <g id="line2d_31"/>
    <g id="text_16">
     <!-- AMPGO -->
     <defs>
      <path d="
M74.5156 0
L64.8438 0
L64.8438 62.6406
L44.625 20.0156
L38.875 20.0156
L18.7969 62.6406
L18.7969 0
L9.76562 0
L9.76562 72.7031
L22.9531 72.7031
L42.3281 32.2344
L61.0781 72.7031
L74.5156 72.7031
z
" id="Verdana-4d"/>
      <path d="
M70.4062 5.375
Q64.4531 2.64062 57.3906 0.609375
Q50.3438 -1.42188 43.75 -1.42188
Q35.25 -1.42188 28.1719 0.921875
Q21.0938 3.26562 16.1094 7.95312
Q11.0781 12.7031 8.34375 19.7969
Q5.60938 26.9062 5.60938 36.4219
Q5.60938 53.8594 15.7969 63.9375
Q25.9844 74.0312 43.75 74.0312
Q49.9531 74.0312 56.4219 72.5312
Q62.8906 71.0469 70.3594 67.4844
L70.3594 56
L69.4844 56
Q67.9688 57.1719 65.0781 59.0781
Q62.2031 60.9844 59.4219 62.25
Q56.0625 63.7656 51.7812 64.7656
Q47.5156 65.7656 42.0938 65.7656
Q29.8906 65.7656 22.7812 57.9219
Q15.6719 50.0938 15.6719 36.7188
Q15.6719 22.6094 23.0938 14.7656
Q30.5156 6.9375 43.3125 6.9375
Q48 6.9375 52.6562 7.85938
Q57.3281 8.79688 60.8438 10.25
L60.8438 28.0781
L41.3594 28.0781
L41.3594 36.5781
L70.4062 36.5781
z
" id="Verdana-47"/>
     </defs>
     <g transform="translate(125.28 67.10175)scale(0.144 -0.144)">
      <use xlink:href="#Verdana-41"/>
      <use x="68.359375" xlink:href="#Verdana-4d"/>
      <use x="152.63671875" xlink:href="#Verdana-50"/>
      <use x="212.939453125" xlink:href="#Verdana-47"/>
      <use x="290.478515625" xlink:href="#Verdana-4f"/>
     </g>
    </g>
    <g id="line2d_32">
     <path d="
M89.28 83.1015
L109.44 83.1015" style="fill:none;stroke:#008000;stroke-dasharray:1.000000,1.000000;stroke-dashoffset:0.0;"/>
    </g>
    <g id="line2d_33"/>
    <g id="text_17">
     <!-- Anneal -->
     <g transform="translate(125.28 88.1415)scale(0.144 -0.144)">
      <use xlink:href="#Verdana-41"/>
      <use x="68.359375" xlink:href="#Verdana-6e"/>
      <use x="131.640625" xlink:href="#Verdana-6e"/>
      <use x="194.921875" xlink:href="#Verdana-65"/>
      <use x="254.4921875" xlink:href="#Verdana-61"/>
      <use x="314.55078125" xlink:href="#Verdana-6c"/>
     </g>
    </g>
    <g id="line2d_34">
     <path d="
M89.28 104.141
L109.44 104.141" style="fill:none;stroke:#ff0000;stroke-dasharray:3.000000,6.000000;stroke-dashoffset:0.0;"/>
    </g>
    <g id="line2d_35"/>
    <g id="text_18">
     <!-- BSA -->
     <defs>
      <path d="
M62.5938 20.75
Q62.5938 16.5 60.6094 12.3438
Q58.6406 8.20312 55.0781 5.32812
Q51.1719 2.20312 45.9688 0.4375
Q40.7656 -1.3125 33.4531 -1.3125
Q25.5938 -1.3125 19.3125 0.140625
Q13.0312 1.60938 6.54688 4.5
L6.54688 16.6094
L7.23438 16.6094
Q12.75 12.0156 19.9688 9.51562
Q27.2031 7.03125 33.5469 7.03125
Q42.5312 7.03125 47.5312 10.3906
Q52.5469 13.7656 52.5469 19.3906
Q52.5469 24.2188 50.1719 26.5156
Q47.7969 28.8125 42.9688 30.0781
Q39.3125 31.0625 35.0312 31.6875
Q30.7656 32.3281 25.9844 33.2969
Q16.3125 35.3594 11.6406 40.3125
Q6.98438 45.2656 6.98438 53.2188
Q6.98438 62.3594 14.6875 68.1875
Q22.4062 74.0312 34.2812 74.0312
Q41.9375 74.0312 48.3281 72.5625
Q54.7344 71.0938 59.6719 68.9531
L59.6719 57.5156
L58.9844 57.5156
Q54.8281 61.0312 48.0625 63.3438
Q41.3125 65.6719 34.2344 65.6719
Q26.4688 65.6719 21.75 62.4531
Q17.0469 59.2344 17.0469 54.1562
Q17.0469 49.6094 19.3906 47.0156
Q21.7344 44.4375 27.6406 43.0625
Q30.7656 42.3906 36.5156 41.4062
Q42.2812 40.4375 46.2969 39.4062
Q54.3906 37.25 58.4844 32.9062
Q62.5938 28.5625 62.5938 20.75" id="Verdana-53"/>
      <path d="
M64.5938 22.3594
Q64.5938 16.9375 62.5469 12.7812
Q60.5 8.64062 57.0312 5.95312
Q52.9375 2.73438 48.0156 1.35938
Q43.1094 0 35.5469 0
L9.76562 0
L9.76562 72.7031
L31.2969 72.7031
Q39.2656 72.7031 43.2188 72.1094
Q47.1719 71.5312 50.7812 69.6719
Q54.7812 67.5781 56.5938 64.2812
Q58.4062 60.9844 58.4062 56.3906
Q58.4062 51.2188 55.7656 47.5781
Q53.125 43.9531 48.7344 41.75
L48.7344 41.3594
Q56.1094 39.8438 60.3438 34.8906
Q64.5938 29.9375 64.5938 22.3594
M48.3438 55.125
Q48.3438 57.7656 47.4531 59.5625
Q46.5781 61.375 44.625 62.5
Q42.3281 63.8125 39.0625 64.125
Q35.7969 64.4531 30.9531 64.4531
L19.4375 64.4531
L19.4375 43.4531
L31.9375 43.4531
Q36.4688 43.4531 39.1562 43.9219
Q41.8438 44.3906 44.1406 45.8438
Q46.4375 47.3125 47.3906 49.625
Q48.3438 51.9531 48.3438 55.125
M54.5469 21.9688
Q54.5469 26.375 53.2188 28.9531
Q51.9062 31.5469 48.4375 33.3438
Q46.0938 34.5781 42.75 34.9375
Q39.4062 35.2969 34.625 35.2969
L19.4375 35.2969
L19.4375 8.25
L32.2344 8.25
Q38.5781 8.25 42.625 8.90625
Q46.6875 9.57812 49.2656 11.3281
Q52 13.2344 53.2656 15.6719
Q54.5469 18.1094 54.5469 21.9688" id="Verdana-42"/>
     </defs>
     <g transform="translate(125.28 109.18125)scale(0.144 -0.144)">
      <use xlink:href="#Verdana-42"/>
      <use x="68.5546875" xlink:href="#Verdana-53"/>
      <use x="135.9140625" xlink:href="#Verdana-41"/>
     </g>
    </g>
    <g id="line2d_36">
     <path d="
M89.28 125.181
L109.44 125.181" style="fill:none;stroke:#00bfbf;stroke-dasharray:5.000000,1.000000,2.000000,1.000000,5.000000,1.000000;stroke-dashoffset:0.0;"/>
    </g>
    <g id="line2d_37"/>
    <g id="text_19">
     <!-- Cuckoo -->
     <defs>
      <path d="
M65.9219 5.28125
Q63.2344 4.10938 61.0625 3.07812
Q58.8906 2.04688 55.375 0.921875
Q52.3906 0 48.8906 -0.65625
Q45.4062 -1.3125 41.2188 -1.3125
Q33.2969 -1.3125 26.8281 0.90625
Q20.3594 3.125 15.5781 7.85938
Q10.8906 12.5 8.25 19.6562
Q5.60938 26.8125 5.60938 36.2812
Q5.60938 45.2656 8.14062 52.3438
Q10.6875 59.4219 15.4844 64.3125
Q20.125 69.0469 26.6875 71.5312
Q33.25 74.0312 41.2656 74.0312
Q47.125 74.0312 52.9531 72.6094
Q58.7969 71.1875 65.9219 67.625
L65.9219 56.1562
L65.1875 56.1562
Q59.1875 61.1875 53.2656 63.4688
Q47.3594 65.7656 40.625 65.7656
Q35.1094 65.7656 30.6875 63.9844
Q26.2656 62.2031 22.7969 58.4531
Q19.4375 54.7812 17.5469 49.1875
Q15.6719 43.6094 15.6719 36.2812
Q15.6719 28.6094 17.75 23.0938
Q19.8281 17.5781 23.0938 14.1094
Q26.5156 10.5 31.0781 8.76562
Q35.6406 7.03125 40.7188 7.03125
Q47.7031 7.03125 53.7969 9.42188
Q59.9062 11.8125 65.2344 16.6094
L65.9219 16.6094
z
" id="Verdana-43"/>
     </defs>
     <g transform="translate(125.28 130.221)scale(0.144 -0.144)">
      <use xlink:href="#Verdana-43"/>
      <use x="69.82421875" xlink:href="#Verdana-75"/>
      <use x="133.10546875" xlink:href="#Verdana-63"/>
      <use x="185.205078125" xlink:href="#Verdana-6b"/>
      <use x="243.384765625" xlink:href="#Verdana-6f"/>
      <use x="304.078125" xlink:href="#Verdana-6f"/>
     </g>
    </g>
    <g id="line2d_38">
     <path d="
M89.28 146.221
L109.44 146.221" style="fill:none;stroke:#bf00bf;stroke-linecap:square;"/>
    </g>
    <g id="line2d_39"/>
    <g id="text_20">
     <!-- qABC -->
     <defs>
      <path d="
M53.2656 -20.125
L44.0938 -20.125
L44.0938 6.15625
Q39.8438 2.48438 35.6406 0.703125
Q31.4531 -1.07812 26.5625 -1.07812
Q16.8438 -1.07812 11.0625 6.42188
Q5.28125 13.9219 5.28125 27.0938
Q5.28125 34.125 7.29688 39.5156
Q9.32812 44.9219 12.6406 48.5781
Q15.875 52.1562 20.2188 54.1094
Q24.5625 56.0625 29.3906 56.0625
Q33.7969 56.0625 37.1875 55.0781
Q40.5781 54.1094 44.0938 52.2031
L44.6719 54.5469
L53.2656 54.5469
z

M44.0938 13.875
L44.0938 44.7344
Q40.2812 46.4375 37.3438 47.1094
Q34.4219 47.7969 31 47.7969
Q23.0469 47.7969 18.8906 42.4062
Q14.75 37.0156 14.75 27.5469
Q14.75 17.9688 18.0938 12.8125
Q21.4375 7.67188 28.6094 7.67188
Q32.625 7.67188 36.625 9.40625
Q40.625 11.1406 44.0938 13.875" id="Verdana-71"/>
     </defs>
     <g transform="translate(125.28 151.26075)scale(0.144 -0.144)">
      <use xlink:href="#Verdana-71"/>
      <use x="62.3046875" xlink:href="#Verdana-41"/>
      <use x="130.6640625" xlink:href="#Verdana-42"/>
      <use x="199.21875" xlink:href="#Verdana-43"/>
     </g>
    </g>
   </g>
  </g>
 </g>
 <defs>
  <clipPath id="p7ff5b81e1d">
   <rect height="345.6" width="446.4" x="72.0" y="43.2"/>
  </clipPath>
 </defs>
</svg>
