<?xml version="1.0" encoding="utf-8" standalone="no"?>
<!DOCTYPE svg PUBLIC "-//W3C//DTD SVG 1.1//EN"
  "http://www.w3.org/Graphics/SVG/1.1/DTD/svg11.dtd">
<!-- Created with matplotlib (http://matplotlib.org/) -->
<svg height="432pt" version="1.1" viewBox="0 0 576 432" width="576pt" xmlns="http://www.w3.org/2000/svg" xmlns:xlink="http://www.w3.org/1999/xlink">
 <defs>
  <style type="text/css">
*{stroke-linecap:butt;stroke-linejoin:round;}
  </style>
 </defs>
 <g id="figure_1">
  <g id="patch_1">
   <path d="
M0 432
L576 432
L576 0
L0 0
z
" style="fill:#ffffff;"/>
  </g>
  <g id="axes_1">
   <g id="patch_2">
    <path d="
M72 388.8
L518.4 388.8
L518.4 43.2
L72 43.2
z
" style="fill:#ffffff;"/>
   </g>
   <g id="line2d_1">
    <path clip-path="url(#p7ff5b81e1d)" d="
M72 50.1597
L76.464 50.1597
L76.6426 54.5632
L80.928 54.5632
L81.1066 60.9677
L89.856 60.9677
L90.0346 63.2117
L98.784 63.2117
L98.9626 66.8089
L107.712 66.8089
L107.891 67.1695
L116.64 67.1695
L116.819 67.5273
L130.032 67.611
L130.211 68.0105
L134.496 68.0105
L134.675 68.244
L152.352 68.311
L152.531 68.7696
L170.208 68.7696
L170.387 68.881
L174.672 68.881
L174.851 70.6744
L179.136 70.6744
L179.315 71.9527
L188.064 72.0047
L188.243 73.7591
L192.528 73.7591
L192.707 74.6449
L196.992 74.6449
L197.171 77.4727
L201.456 77.4727
L201.635 78.9844
L205.92 78.9844
L206.099 79.598
L210.384 79.598
L210.563 81.8257
L228.24 81.8257
L228.419 82.3212
L263.952 82.3576
L264.131 82.4325
L518.311 82.4367
L518.311 82.4367" style="fill:none;stroke:#0000ff;stroke-dasharray:6.000000,2.000000;stroke-dashoffset:0.0;"/>
   </g>
   <g id="line2d_2">
    <path clip-path="url(#p7ff5b81e1d)" d="
M72 50.7679
L72.5357 50.8381
L72.7142 51.563
L72.8928 51.563
L73.0714 52.8648
L73.3392 52.9449
L73.5178 53.3872
L73.7856 53.3872
L73.9642 53.6265
L74.0534 53.6265
L74.232 54.0712
L74.4998 54.0987
L74.6784 55.0446
L74.857 55.0446
L75.0355 56.2583
L75.2141 56.2583
L75.3926 56.7181
L75.7498 56.8045
L75.9283 57.3061
L76.0176 57.3061
L76.1962 57.4667
L76.3747 58.3495
L76.464 58.3495
L76.7318 58.6785
L77.2675 58.6785
L77.4461 59.6148
L77.6246 59.6148
L77.8032 59.8154
L78.071 59.8801
L78.2496 59.8801
L78.4282 60.4683
L78.7853 60.4683
L79.1424 61.327
L79.321 61.3521
L79.4995 62.294
L79.6781 62.33
L79.8566 62.8763
L80.0352 62.8763
L80.2138 62.9894
L80.7494 62.9894
L80.928 63.216
L81.1958 63.216
L81.3744 63.5278
L81.6422 63.5278
L81.8208 63.7111
L82.3565 63.7111
L82.535 64.4497
L82.6243 64.4497
L82.8029 65.4843
L82.9814 65.4843
L83.2493 65.89
L83.4278 65.89
L83.6064 66.8335
L83.785 66.8335
L83.9635 67.253
L84.4099 67.253
L84.5885 68.1781
L84.767 68.445
L84.8563 68.445
L85.0349 68.8902
L85.2134 68.9811
L86.017 69.0626
L86.2848 69.1317
L87.1776 69.1332
L87.3562 69.6594
L87.624 70.2355
L87.7133 70.2355
L87.8918 70.474
L87.9811 70.474
L88.1597 70.8318
L88.4275 70.8318
L88.6061 71.0099
L88.6954 71.0099
L88.8739 71.2518
L89.1418 71.3131
L90.1238 71.3962
L90.3024 72.2579
L90.481 72.2579
L90.6595 72.5627
L91.1059 72.5627
L91.2845 73.1289
L91.463 73.1289
L91.6416 73.4323
L91.8202 73.4323
L91.9987 74.5313
L92.088 74.5313
L92.2666 74.7416
L93.695 74.7416
L93.9629 75.8576
L94.1414 76.147
L94.4093 76.2017
L95.3914 76.2956
L95.7485 76.8296
L96.2842 76.9886
L96.4627 77.308
L97.3555 77.3235
L97.5341 77.4919
L98.4269 77.5582
L98.6054 77.6635
L99.0518 77.6635
L99.2304 77.9033
L100.659 77.9761
L100.837 78.3231
L101.998 78.4279
L102.177 78.6631
L103.694 78.6947
L103.873 78.7793
L105.212 78.8066
L105.391 78.8944
L105.659 78.8944
L105.837 79.6016
L108.248 79.6567
L108.426 79.8722
L110.033 79.8722
L110.212 80.2958
L110.301 80.2958
L110.48 80.8097
L111.462 80.9127
L111.908 80.9944
L115.212 81.0749
L115.658 81.1311
L117.086 81.1311
L117.265 81.4477
L123.157 81.5563
L125.925 81.7249
L129.764 81.7926
L129.943 82.2786
L133.335 82.3869
L133.603 82.4323
L141.371 82.4576
L141.549 82.6229
L167.708 82.7339
L169.94 82.7719
L204.581 82.8611
L204.849 82.9214
L228.151 83.0324
L235.74 83.2151
L247.524 83.2866
L247.882 83.4291
L256.185 83.4848
L256.363 83.567
L257.613 83.6046
L257.792 83.7808
L269.13 83.8521
L269.309 83.9707
L290.29 84.0771
L290.468 84.2661
L315.645 84.3328
L315.824 84.5689
L326.894 84.6216
L327.073 84.7146
L329.93 84.7924
L330.108 84.8839
L337.608 84.8874
L337.965 85.4305
L339.036 85.4305
L339.215 85.573
L343.411 85.634
L343.679 85.6884
L349.929 85.6926
L350.107 86.0151
L351.714 86.0294
L351.893 86.3124
L352.428 86.3349
L357.25 86.4424
L359.482 86.447
L362.071 86.4717
L362.249 86.5718
L366.624 86.6134
L366.892 86.7517
L378.677 86.8525
L378.855 87.0544
L379.034 87.0544
L379.212 87.3878
L379.48 87.3878
L379.659 87.6546
L380.105 87.6546
L380.373 88.0691
L383.498 88.1604
L383.676 88.2956
L384.748 88.3369
L384.926 89.0113
L386.444 89.0113
L386.623 89.271
L386.891 89.271
L387.069 89.8941
L389.39 89.937
L389.569 90.469
L390.105 90.469
L390.283 90.9506
L391.98 90.963
L392.158 91.0937
L392.247 91.0937
L392.426 91.3226
L392.515 91.3226
L392.694 92.0446
L393.765 92.0446
L393.944 92.3051
L394.122 92.3051
L394.301 92.4645
L396.265 92.5224
L396.444 92.9513
L397.783 92.9513
L397.961 93.0701
L398.14 93.0701
L398.318 93.258
L399.033 93.258
L399.211 93.504
L401.265 93.5717
L401.443 95.1256
L403.14 95.1256
L403.318 95.4374
L403.497 95.4374
L403.675 95.5631
L405.639 95.6198
L405.818 95.7054
L405.907 95.7054
L406.086 96.1297
L408.139 96.2344
L408.318 96.9617
L409.121 96.9617
L409.3 97.1602
L409.925 97.1602
L410.103 97.4975
L410.46 97.4975
L410.639 99.2923
L412.425 99.3686
L412.603 99.6368
L412.96 99.6368
L413.139 99.8671
L413.317 99.8671
L413.496 100.956
L415.103 100.956
L415.282 102.661
L417.156 102.661
L417.335 102.943
L418.049 102.943
L418.228 103.167
L419.924 103.167
L420.103 103.522
L421.263 103.537
L421.442 104.225
L423.317 104.28
L423.495 104.594
L424.567 104.594
L424.745 104.753
L424.924 104.753
L425.102 104.947
L426.442 104.947
L426.62 105.068
L427.424 105.068
L427.602 106.357
L428.941 106.357
L429.12 106.547
L429.656 106.547
L429.834 107.155
L430.816 107.158
L430.995 108.217
L431.798 108.254
L431.977 109.78
L433.584 109.78
L433.763 110.099
L434.12 110.099
L434.298 112.808
L434.388 112.808
L434.566 120.3
L435.637 120.362
L435.816 120.59
L435.905 120.59
L436.084 124.005
L436.709 124.096
L436.887 124.84
L438.316 124.84
L438.494 125.385
L439.209 125.385
L439.387 126.462
L439.923 126.462
L440.101 126.839
L441.262 126.839
L441.441 128.297
L441.619 128.297
L441.798 130.573
L443.048 130.573
L443.226 132.282
L443.316 132.282
L443.494 133.06
L443.762 133.06
L443.94 140.108
L444.208 140.108
L444.387 143.067
L444.565 143.067
L444.744 146.728
L445.19 146.728
L445.369 147.776
L445.637 147.776
L445.815 151.992
L446.172 151.992
L446.351 154.19
L446.53 170.519
L446.976 170.519
L447.155 171.784
L447.601 171.784
L447.78 173.909
L448.226 173.909
L448.404 185.692
L448.494 185.692
L448.672 192.325
L449.476 192.325
L449.654 192.845
L449.744 192.845
L449.922 197.359
L450.369 197.359
L450.547 197.593
L450.636 197.593
L450.815 203.161
L451.261 203.161
L451.44 208.724
L453.136 208.724
L453.315 212.499
L453.493 212.499
L453.672 218.363
L454.118 218.363
L454.297 219.709
L455.1 219.709
L455.279 221.808
L456.172 221.808
L456.35 222.989
L457.69 222.989
L457.868 223.94
L458.136 223.94
L458.315 225.174
L459.207 225.174
L459.386 226.533
L460.725 226.533
L460.904 227.74
L461.439 227.74
L461.618 231.471
L462.6 231.471
L462.779 231.944
L463.404 231.944
L463.582 233.499
L464.207 233.499
L464.386 234.626
L465.903 234.719
L466.082 243.159
L466.171 243.159
L466.35 261.707
L467.332 261.707
L467.51 262.603
L468.314 262.603
L468.492 263.291
L470.367 263.291
L470.546 265.514
L472.242 265.586
L472.421 266.243
L472.599 266.243
L472.778 267.224
L473.492 267.224
L473.671 268.2
L474.385 268.2
L474.564 268.727
L475.099 268.827
L475.278 270.242
L476.171 270.242
L476.349 270.408
L477.42 270.408
L477.599 272.276
L478.492 272.276
L478.67 273.06
L479.742 273.06
L479.92 275.107
L480.635 275.107
L480.813 285.531
L482.063 285.531
L482.242 286.564
L483.849 286.564
L484.027 287.393
L485.009 287.393
L485.188 289.119
L485.366 289.119
L485.545 304.536
L486.706 304.536
L486.884 304.843
L487.866 304.843
L488.045 306.226
L489.027 306.226
L489.205 308.266
L490.545 308.266
L490.723 309.685
L490.991 309.685
L491.17 318.998
L491.616 318.998
L491.795 324.483
L493.312 324.541
L493.491 325.366
L494.384 325.366
L494.562 326.097
L495.455 326.097
L495.634 326.386
L496.705 326.386
L496.884 330.342
L497.866 330.342
L498.044 334.009
L498.937 334.009
L499.205 336.049
L499.294 336.049
L499.473 336.877
L499.74 336.877
L499.919 337.911
L502.687 337.945
L502.865 338.488
L503.312 338.488
L503.49 340.241
L504.651 340.241
L504.829 340.708
L505.722 340.708
L505.901 345.269
L506.526 345.269
L506.704 347.566
L510.276 347.638
L510.454 348.905
L511.258 348.905
L511.436 349.515
L511.972 349.515
L512.15 350.569
L512.775 350.569
L512.954 354.025
L515.454 354.025
L515.632 355.087
L516.614 355.087
L516.793 355.412
L518.221 355.412
L518.311 355.621
L518.311 355.621" style="fill:none;stroke:#008000;stroke-dasharray:1.000000,1.000000;stroke-dashoffset:0.0;"/>
   </g>
   <g id="line2d_3">
    <path clip-path="url(#p7ff5b81e1d)" d="
M72 50.3168
L72.4464 57.1726
L72.5357 57.1902
L72.7142 58.0025
L72.8928 58.0025
L73.0714 58.9854
L73.1606 58.9854
L73.3392 59.3284
L73.4285 59.3284
L73.607 59.8639
L74.3213 59.8639
L74.4998 60.7527
L77.1782 60.8469
L77.5354 60.8767
L77.6246 60.8767
L77.8032 61.073
L78.1603 61.073
L78.3389 61.2144
L83.2493 61.245
L83.4278 62.0253
L84.4099 62.119
L84.5885 62.2054
L85.7491 62.2054
L85.9277 62.3885
L88.6061 62.3994
L88.7846 63.288
L92.1773 63.288
L92.3558 63.5164
L94.4986 63.5164
L94.6771 63.6445
L96.3734 63.6445
L96.552 64.2004
L97.8019 64.2649
L97.9805 64.4851
L99.1411 64.4851
L99.3197 64.5983
L102.891 64.7023
L103.069 64.7985
L103.962 64.7985
L104.141 65.3584
L106.462 65.3584
L106.641 65.5059
L108.873 65.5283
L109.051 65.7977
L112.89 65.7977
L113.069 66.148
L114.676 66.148
L114.854 66.4816
L122.265 66.4816
L122.443 66.9675
L122.711 66.9675
L122.89 67.8304
L123.693 67.8304
L123.872 68.1465
L128.068 68.1465
L128.246 68.3922
L133.246 68.4036
L133.425 68.8257
L138.781 68.8257
L138.96 69.1546
L153.602 69.1546
L153.78 69.2859
L155.655 69.2859
L155.834 69.5297
L157.798 69.5297
L157.977 69.9552
L161.994 69.9552
L162.173 70.1107
L163.512 70.1107
L163.691 70.9604
L167.619 70.9604
L167.797 71.2705
L169.137 71.2705
L169.315 71.5384
L174.047 71.5722
L174.226 71.6693
L186.189 71.7179
L186.368 72.3002
L206.188 72.3002
L206.366 72.6841
L210.741 72.6841
L210.92 72.9087
L218.241 73.0167
L218.508 73.0622
L224.49 73.0622
L224.669 73.2253
L225.472 73.2253
L225.651 74.0703
L232.615 74.0703
L232.793 74.661
L238.507 74.661
L238.686 75.4712
L239.489 75.4712
L239.668 75.6194
L243.685 75.7246
L243.864 75.8701
L257.167 75.9513
L257.345 76.0501
L264.22 76.088
L264.398 76.3784
L264.577 76.3784
L264.756 76.4931
L277.344 76.5762
L277.523 76.7184
L294.575 76.77
L294.754 77.1615
L302.075 77.1807
L302.253 77.3371
L315.288 77.3371
L315.467 77.5189
L324.93 77.5189
L325.109 78.2684
L332.34 78.2684
L332.519 78.385
L351.982 78.4845
L352.161 78.567
L362.785 78.567
L362.964 79.2824
L374.034 79.3201
L374.213 79.4565
L382.427 79.4565
L382.605 79.5784
L416.353 79.652
L416.532 79.9767
L437.423 80.0872
L437.602 80.504
L473.581 80.5676
L473.76 80.655
L502.151 80.6808
L502.33 80.9385
L518.311 80.9385
L518.311 80.9385" style="fill:none;stroke:#ff0000;stroke-dasharray:3.000000,6.000000;stroke-dashoffset:0.0;"/>
   </g>
   <g id="line2d_4">
    <path clip-path="url(#p7ff5b81e1d)" d="
M72 50.4553
L72.0893 53.8427
L72.1786 54.7006
L72.4464 57.1875
L72.7142 58.0572
L72.8928 58.8271
L72.9821 58.8681
L73.1606 59.2291
L73.3392 59.2291
L73.5178 59.8653
L73.6963 60.3944
L73.9642 60.4405
L75.2141 60.4856
L75.6605 60.4856
L75.839 61.2293
L76.0176 61.2293
L76.1962 61.344
L78.4282 61.3531
L78.6067 62.6518
L79.2317 62.6518
L79.4995 62.938
L82.7136 62.938
L82.8922 63.757
L83.5171 63.7748
L85.4813 63.7748
L85.6598 64.0027
L86.4634 64.0027
L86.6419 64.1589
L90.7488 64.1589
L90.9274 65.0277
L93.6058 65.1175
L93.7843 65.883
L95.0342 65.883
L95.2128 66.4847
L95.3914 66.4847
L95.5699 66.9103
L100.927 66.9782
L101.105 67.1927
L108.783 67.1927
L108.962 67.5658
L109.14 67.5658
L109.319 68.2723
L112.444 68.3072
L112.622 69.0699
L114.944 69.0699
L115.122 69.6462
L116.461 69.6462
L116.64 69.889
L122.265 69.889
L122.443 70.0844
L134.05 70.1304
L134.228 70.3802
L136.728 70.3802
L136.907 70.5088
L138.335 70.5088
L138.514 71.6112
L141.728 71.6112
L141.906 71.9363
L143.603 71.9363
L143.781 72.7799
L159.137 72.7799
L159.316 73.7462
L163.958 73.7462
L164.137 74.4721
L184.046 74.4721
L184.225 76.5092
L186.457 76.5092
L186.636 76.9074
L193.421 76.9074
L193.599 78.4444
L218.419 78.4444
L218.598 82.5778
L238.061 82.5778
L238.239 83.1544
L243.418 83.1544
L243.596 83.3078
L257.702 83.3078
L257.881 83.8457
L280.201 83.8457
L280.38 93.5596
L283.772 93.5596
L283.951 94.2463
L296.986 94.2463
L297.164 95.5003
L299.843 95.5003
L300.021 95.8692
L302.342 95.8692
L302.521 96.6638
L312.342 96.6638
L312.52 106.577
L321.27 106.577
L321.448 107.07
L327.341 107.07
L327.519 107.479
L347.429 107.479
L347.607 115.592
L355.643 115.592
L355.821 117.225
L390.997 117.225
L391.176 135.877
L397.247 135.877
L397.426 140.338
L404.389 140.338
L404.568 141.472
L438.405 141.472
L438.584 145.58
L440.191 145.58
L440.369 149.335
L469.564 149.335
L469.742 150.937
L494.562 150.937
L494.741 159.603
L518.311 159.603
L518.311 159.603" style="fill:none;stroke:#00bfbf;stroke-dasharray:5.000000,1.000000,2.000000,1.000000,5.000000,1.000000;stroke-dashoffset:0.0;"/>
   </g>
   <g id="line2d_5">
    <path clip-path="url(#p7ff5b81e1d)" d="
M72 50.6459
L72.4464 56.9633
L72.5357 56.9633
L72.7142 57.8498
L73.5178 59.7059
L73.607 59.7059
L73.7856 60.2452
L76.464 60.3474
L76.6426 60.366
L76.9997 60.7788
L77.1782 61.2994
L79.6781 61.3775
L80.303 61.5129
L80.6602 61.5129
L80.8387 62.0274
L81.8208 62.0274
L81.9994 62.367
L83.6064 62.367
L83.785 62.5829
L84.1421 62.5829
L84.3206 62.802
L86.8205 62.802
L86.999 63.3078
L87.2669 63.3479
L87.4454 63.4513
L87.8026 63.5383
L87.9811 63.6259
L90.0346 63.6259
L90.2131 63.8974
L91.463 63.8974
L91.6416 64.838
L94.6771 64.914
L94.8557 65.1785
L98.6054 65.1912
L98.784 65.8984
L99.4982 65.8984
L99.6768 66.0594
L103.069 66.0774
L103.248 66.8297
L104.141 66.8297
L104.319 67.1165
L105.659 67.1165
L105.837 67.4164
L107.712 67.4164
L107.891 68.2974
L108.337 68.2974
L108.516 68.6098
L108.694 68.6979
L111.462 68.6979
L111.64 69.0356
L115.301 69.0356
L115.479 69.1622
L117.176 69.1622
L117.354 69.6457
L119.586 69.6796
L119.765 69.9021
L120.747 69.9021
L120.925 70.0494
L122.175 70.0494
L122.354 71.0438
L122.532 71.0438
L122.711 71.6366
L123.247 71.6366
L123.425 72.6454
L126.104 72.6454
L126.282 73.0175
L126.996 73.0768
L127.264 73.1394
L128.157 73.1394
L128.336 73.4174
L128.425 73.4174
L128.604 73.8864
L135.032 73.9771
L135.21 74.2184
L138.96 74.3258
L139.228 74.3877
L144.228 74.4825
L144.406 75.1142
L146.102 75.2167
L146.281 75.4394
L151.995 75.4394
L152.173 75.8544
L155.566 75.9375
L155.834 75.9873
L157.709 75.9873
L157.887 76.1748
L162.084 76.1749
L162.262 76.8825
L173.333 76.8825
L173.511 77.7155
L178.243 77.7155
L178.422 77.9116
L183.957 77.9116
L184.136 78.4803
L188.957 78.4803
L189.135 79.3468
L196.099 79.3468
L196.278 79.996
L201.992 79.996
L202.17 80.8942
L209.045 80.8942
L209.223 81.9477
L215.562 81.9862
L215.741 82.6058
L219.223 82.6058
L219.491 82.7963
L219.758 82.7963
L219.937 83.2078
L233.865 83.2078
L234.043 83.5128
L240.65 83.5128
L241.007 83.9127
L251.453 83.9949
L251.631 84.5409
L255.024 84.6183
L255.203 85.7478
L257.702 85.7478
L257.881 85.8844
L261.809 85.9653
L261.988 86.2679
L265.648 86.2679
L265.827 86.7234
L269.13 86.7234
L269.309 87.2537
L271.094 87.2537
L271.273 87.5871
L272.88 87.6777
L273.148 87.7241
L275.558 87.7261
L275.737 89.044
L282.969 89.044
L283.147 90.3191
L283.772 90.3191
L283.951 91.3879
L286.54 91.3879
L286.718 91.7403
L286.808 91.7403
L286.986 91.8799
L287.076 93.006
L287.254 95.7632
L287.343 95.8181
L287.522 96.3234
L287.611 96.3234
L287.79 98.7617
L288.95 98.7617
L289.129 99.582
L290.111 99.582
L290.29 99.9712
L290.557 99.9712
L290.736 100.242
L293.861 100.242
L293.95 100.359
L294.129 104.149
L294.754 104.149
L294.932 105.008
L296.896 105.008
L296.986 105.165
L297.164 106.044
L297.343 111.06
L297.878 111.06
L298.057 112.194
L298.503 112.223
L301.003 112.223
L301.182 112.944
L301.36 117.041
L301.717 117.041
L301.896 118.129
L304.128 118.129
L304.307 118.245
L304.753 118.287
L304.932 118.553
L305.735 118.594
L305.914 120.331
L308.324 120.331
L308.503 122.318
L309.038 122.318
L309.217 124.504
L311.36 124.504
L311.449 125.707
L311.628 128.756
L312.074 128.756
L312.252 130.432
L312.699 130.432
L312.877 130.794
L314.931 130.864
L315.109 131.568
L315.288 131.796
L316.002 131.796
L316.181 132.027
L317.52 132.027
L317.699 132.821
L318.324 132.821
L318.502 133.259
L322.163 133.365
L322.341 133.672
L323.591 133.704
L323.77 135.161
L325.823 135.161
L326.002 136.092
L326.984 136.162
L327.162 136.936
L329.394 136.95
L329.573 137.537
L330.466 137.619
L330.912 138.018
L333.055 138.018
L333.233 139.375
L333.323 139.375
L333.59 146.191
L336.269 146.237
L336.537 146.833
L336.983 146.833
L337.072 148.304
L337.34 156.222
L339.84 156.222
L340.019 157.173
L340.286 157.173
L340.465 157.402
L340.644 157.402
L340.822 158.311
L343.59 158.322
L343.768 163.287
L343.947 163.287
L344.125 164.05
L346.09 164.05
L346.268 167.317
L347.161 167.317
L347.34 167.914
L347.429 167.914
L347.607 171.823
L347.697 171.823
L347.875 173.236
L348.322 173.236
L348.5 174.185
L350.821 174.185
L351 175.486
L354.303 175.541
L354.482 176.095
L357.875 176.11
L358.053 176.595
L358.232 176.616
L358.41 176.725
L358.767 176.725
L358.946 178.302
L361.981 178.302
L362.16 179.107
L362.339 228.163
L364.749 228.163
L364.928 235.015
L365.106 235.234
L365.731 235.234
L365.91 246.986
L366.088 247.593
L366.267 247.593
L366.445 247.885
L368.677 247.885
L368.856 249.862
L369.302 249.862
L369.481 251.389
L372.516 251.389
L372.695 252.072
L372.874 252.072
L373.052 253.883
L373.499 253.883
L373.677 254.044
L377.605 254.044
L377.784 254.469
L383.587 254.469
L383.766 258.257
L384.034 258.257
L384.212 259.082
L387.069 259.183
L387.248 291.96
L390.908 292.041
L391.087 292.433
L394.39 292.521
L394.569 298.303
L399.033 298.318
L399.211 321.426
L400.64 321.426
L400.818 322.24
L404.389 322.24
L404.568 323.106
L404.925 323.106
L405.104 323.299
L407.693 323.299
L407.871 323.593
L412.603 323.593
L412.782 327.179
L422.781 327.179
L422.96 327.442
L423.138 330.042
L423.317 330.13
L423.495 330.13
L423.674 330.5
L426.352 330.5
L426.531 337.783
L433.316 337.85
L433.495 340.043
L441.262 340.043
L441.351 340.407
L441.53 341.279
L447.333 341.279
L447.512 348.299
L447.958 348.299
L448.137 349.937
L449.029 349.937
L449.208 351.662
L452.154 351.662
L452.333 352.166
L454.654 352.166
L454.833 354.399
L455.636 354.399
L455.815 356.371
L458.136 356.371
L458.315 357.401
L459.207 357.401
L459.386 358.1
L465.993 358.1
L466.171 358.422
L468.492 358.422
L468.671 360.23
L469.475 360.23
L469.653 363.844
L479.563 363.844
L479.742 365.035
L486.706 365.13
L486.884 366.564
L490.455 366.661
L490.634 367.112
L493.669 367.112
L493.848 367.86
L494.027 367.86
L494.205 369.212
L500.99 369.319
L501.169 369.797
L504.651 369.797
L504.829 376.357
L507.954 376.357
L508.133 378.565
L508.311 378.565
L508.49 380.024
L512.686 380.024
L512.865 382.906
L518.311 382.906
L518.311 382.906" style="fill:none;stroke:#bf00bf;stroke-linecap:square;"/>
   </g>
   <g id="matplotlib.axis_1">
    <g id="xtick_1">
     <g id="line2d_6">
      <defs>
       <path d="
M0 0
L0 -4" id="mc7db9fdffb" style="stroke:#000000;stroke-width:0.5;"/>
      </defs>
      <g>
       <use style="stroke:#000000;stroke-width:0.5;" x="72.0" xlink:href="#mc7db9fdffb" y="388.8"/>
      </g>
     </g>
     <g id="line2d_7">
      <defs>
       <path d="
M0 0
L0 4" id="m5a7d422ac3" style="stroke:#000000;stroke-width:0.5;"/>
      </defs>
      <g>
       <use style="stroke:#000000;stroke-width:0.5;" x="72.0" xlink:href="#m5a7d422ac3" y="43.2"/>
      </g>
     </g>
     <g id="text_1">
      <!-- 0 -->
      <defs>
       <path d="
M56.9844 36.375
Q56.9844 16.7969 50.8594 7.64062
Q44.7344 -1.51562 31.8438 -1.51562
Q18.75 -1.51562 12.7188 7.76562
Q6.6875 17.0469 6.6875 36.2812
Q6.6875 55.6719 12.7812 64.9219
Q18.8906 74.1719 31.8438 74.1719
Q44.9219 74.1719 50.9531 64.7656
Q56.9844 55.375 56.9844 36.375
M44.1406 14.2031
Q45.8438 18.1719 46.4531 23.5156
Q47.0781 28.8594 47.0781 36.375
Q47.0781 43.7969 46.4531 49.2656
Q45.8438 54.7344 44.0938 58.5469
Q42.3906 62.3125 39.4219 64.2031
Q36.4688 66.1094 31.8438 66.1094
Q27.25 66.1094 24.2344 64.2031
Q21.2344 62.3125 19.4844 58.4531
Q17.8281 54.8281 17.2188 49.0156
Q16.6094 43.2188 16.6094 36.2812
Q16.6094 28.6562 17.1406 23.5312
Q17.6719 18.4062 19.4375 14.3594
Q21.0469 10.5469 24 8.54688
Q26.9531 6.54688 31.8438 6.54688
Q36.4219 6.54688 39.4531 8.45312
Q42.4844 10.3594 44.1406 14.2031" id="Verdana-30"/>
      </defs>
      <g transform="translate(68.9821875 401.918125)scale(0.12 -0.12)">
       <use xlink:href="#Verdana-30"/>
      </g>
     </g>
    </g>
    <g id="xtick_2">
     <g id="line2d_8">
      <g>
       <use style="stroke:#000000;stroke-width:0.5;" x="161.28" xlink:href="#mc7db9fdffb" y="388.8"/>
      </g>
     </g>
     <g id="line2d_9">
      <g>
       <use style="stroke:#000000;stroke-width:0.5;" x="161.28" xlink:href="#m5a7d422ac3" y="43.2"/>
      </g>
     </g>
     <g id="text_2">
      <!-- 1000 -->
      <defs>
       <path d="
M52.9375 0
L13.5781 0
L13.5781 7.42188
L28.7188 7.42188
L28.7188 56.1562
L13.5781 56.1562
L13.5781 62.7969
Q16.6562 62.7969 20.1719 63.2969
Q23.6875 63.8125 25.4844 64.7969
Q27.7344 66.0156 29.0312 67.8906
Q30.3281 69.7812 30.5156 72.9531
L38.0938 72.9531
L38.0938 7.42188
L52.9375 7.42188
z
" id="Verdana-31"/>
      </defs>
      <g transform="translate(147.2315625 401.918125)scale(0.12 -0.12)">
       <use xlink:href="#Verdana-31"/>
       <use x="63.57421875" xlink:href="#Verdana-30"/>
       <use x="127.1484375" xlink:href="#Verdana-30"/>
       <use x="190.72265625" xlink:href="#Verdana-30"/>
      </g>
     </g>
    </g>
    <g id="xtick_3">
     <g id="line2d_10">
      <g>
       <use style="stroke:#000000;stroke-width:0.5;" x="250.56" xlink:href="#mc7db9fdffb" y="388.8"/>
      </g>
     </g>
     <g id="line2d_11">
      <g>
       <use style="stroke:#000000;stroke-width:0.5;" x="250.56" xlink:href="#m5a7d422ac3" y="43.2"/>
      </g>
     </g>
     <g id="text_3">
      <!-- 2000 -->
      <defs>
       <path d="
M57.0781 0
L7.85938 0
L7.85938 10.2031
Q12.9844 14.5938 18.1406 18.9844
Q23.2969 23.3906 27.7344 27.7344
Q37.1094 36.8125 40.5781 42.1562
Q44.0469 47.5156 44.0469 53.7188
Q44.0469 59.375 40.3125 62.5625
Q36.5781 65.7656 29.8906 65.7656
Q25.4375 65.7656 20.2656 64.2031
Q15.0938 62.6406 10.1562 59.4219
L9.67188 59.4219
L9.67188 69.6719
Q13.1406 71.3906 18.9219 72.7969
Q24.7031 74.2188 30.125 74.2188
Q41.3125 74.2188 47.6562 68.8125
Q54 63.4219 54 54.2031
Q54 50.0469 52.9531 46.4531
Q51.9062 42.875 49.8594 39.6562
Q47.9531 36.625 45.3906 33.6875
Q42.8281 30.7656 39.1562 27.2031
Q33.9375 22.0781 28.3594 17.2656
Q22.7969 12.4531 17.9688 8.34375
L57.0781 8.34375
z
" id="Verdana-32"/>
      </defs>
      <g transform="translate(236.1684375 401.918125)scale(0.12 -0.12)">
       <use xlink:href="#Verdana-32"/>
       <use x="63.57421875" xlink:href="#Verdana-30"/>
       <use x="127.1484375" xlink:href="#Verdana-30"/>
       <use x="190.72265625" xlink:href="#Verdana-30"/>
      </g>
     </g>
    </g>
    <g id="xtick_4">
     <g id="line2d_12">
      <g>
       <use style="stroke:#000000;stroke-width:0.5;" x="339.84" xlink:href="#mc7db9fdffb" y="388.8"/>
      </g>
     </g>
     <g id="line2d_13">
      <g>
       <use style="stroke:#000000;stroke-width:0.5;" x="339.84" xlink:href="#m5a7d422ac3" y="43.2"/>
      </g>
     </g>
     <g id="text_4">
      <!-- 3000 -->
      <defs>
       <path d="
M50.6875 35.0156
Q53.0312 32.9062 54.5469 29.7344
Q56.0625 26.5625 56.0625 21.5312
Q56.0625 16.5469 54.25 12.3906
Q52.4375 8.25 49.1719 5.17188
Q45.5156 1.76562 40.5469 0.125
Q35.5938 -1.51562 29.6875 -1.51562
Q23.6406 -1.51562 17.7812 -0.0625
Q11.9219 1.375 8.15625 3.07812
L8.15625 13.2812
L8.89062 13.2812
Q13.0312 10.5469 18.6406 8.73438
Q24.2656 6.9375 29.5 6.9375
Q32.5625 6.9375 36.0312 7.95312
Q39.5 8.98438 41.6562 10.9844
Q43.8906 13.1406 44.9844 15.7188
Q46.0938 18.3125 46.0938 22.2656
Q46.0938 26.1719 44.8438 28.7344
Q43.6094 31.2969 41.4062 32.7656
Q39.2031 34.2812 36.0781 34.8438
Q32.9531 35.4062 29.3438 35.4062
L24.9531 35.4062
L24.9531 43.5
L28.375 43.5
Q35.7969 43.5 40.2031 46.5938
Q44.625 49.7031 44.625 55.6719
Q44.625 58.2969 43.5 60.2656
Q42.3906 62.25 40.375 63.5312
Q38.2812 64.7969 35.8906 65.2812
Q33.5 65.7656 30.4688 65.7656
Q25.8281 65.7656 20.5938 64.1094
Q15.375 62.4531 10.75 59.4219
L10.25 59.4219
L10.25 69.625
Q13.7188 71.3438 19.5 72.7812
Q25.2969 74.2188 30.7188 74.2188
Q36.0312 74.2188 40.0781 73.2344
Q44.1406 72.2656 47.4062 70.125
Q50.9219 67.7812 52.7344 64.4531
Q54.5469 61.1406 54.5469 56.6875
Q54.5469 50.6406 50.2656 46.125
Q46 41.6094 40.1875 40.4375
L40.1875 39.75
Q42.5312 39.3594 45.5469 38.1094
Q48.5781 36.8594 50.6875 35.0156" id="Verdana-33"/>
      </defs>
      <g transform="translate(325.46625 401.918125)scale(0.12 -0.12)">
       <use xlink:href="#Verdana-33"/>
       <use x="63.57421875" xlink:href="#Verdana-30"/>
       <use x="127.1484375" xlink:href="#Verdana-30"/>
       <use x="190.72265625" xlink:href="#Verdana-30"/>
      </g>
     </g>
    </g>
    <g id="xtick_5">
     <g id="line2d_14">
      <g>
       <use style="stroke:#000000;stroke-width:0.5;" x="429.12" xlink:href="#mc7db9fdffb" y="388.8"/>
      </g>
     </g>
     <g id="line2d_15">
      <g>
       <use style="stroke:#000000;stroke-width:0.5;" x="429.12" xlink:href="#m5a7d422ac3" y="43.2"/>
      </g>
     </g>
     <g id="text_5">
      <!-- 4000 -->
      <defs>
       <path d="
M58.7344 20.4531
L47.9531 20.4531
L47.9531 0
L38.5781 0
L38.5781 20.4531
L3.76562 20.4531
L3.76562 31.6875
L38.9688 72.7031
L47.9531 72.7031
L47.9531 28.2656
L58.7344 28.2656
z

M38.5781 28.2656
L38.5781 61.0781
L10.4062 28.2656
z
" id="Verdana-34"/>
      </defs>
      <g transform="translate(414.4828125 401.918125)scale(0.12 -0.12)">
       <use xlink:href="#Verdana-34"/>
       <use x="63.57421875" xlink:href="#Verdana-30"/>
       <use x="127.1484375" xlink:href="#Verdana-30"/>
       <use x="190.72265625" xlink:href="#Verdana-30"/>
      </g>
     </g>
    </g>
    <g id="xtick_6">
     <g id="line2d_16">
      <g>
       <use style="stroke:#000000;stroke-width:0.5;" x="518.4" xlink:href="#mc7db9fdffb" y="388.8"/>
      </g>
     </g>
     <g id="line2d_17">
      <g>
       <use style="stroke:#000000;stroke-width:0.5;" x="518.4" xlink:href="#m5a7d422ac3" y="43.2"/>
      </g>
     </g>
     <g id="text_6">
      <!-- 5000 -->
      <defs>
       <path d="
M56.5 23.0938
Q56.5 18.0156 54.6406 13.375
Q52.7812 8.73438 49.5625 5.5625
Q46.0469 2.15625 41.1875 0.3125
Q36.3281 -1.51562 29.9375 -1.51562
Q23.9688 -1.51562 18.4531 -0.265625
Q12.9375 0.984375 9.125 2.73438
L9.125 13.0312
L9.8125 13.0312
Q13.8125 10.5 19.1875 8.71875
Q24.5625 6.9375 29.7344 6.9375
Q33.2031 6.9375 36.4531 7.90625
Q39.7031 8.89062 42.2344 11.3281
Q44.3906 13.4219 45.4844 16.3438
Q46.5781 19.2812 46.5781 23.1406
Q46.5781 26.9062 45.2812 29.4844
Q44 32.0781 41.7031 33.6406
Q39.1562 35.5 35.5156 36.25
Q31.8906 37.0156 27.3906 37.0156
Q23.0938 37.0156 19.1094 36.4219
Q15.1406 35.8438 12.25 35.25
L12.25 72.7031
L56 72.7031
L56 64.1562
L21.6875 64.1562
L21.6875 44.8281
Q23.7812 45.0156 25.9688 45.1094
Q28.1719 45.2188 29.7812 45.2188
Q35.6875 45.2188 40.125 44.2188
Q44.5781 43.2188 48.2969 40.6719
Q52.2031 37.9844 54.3438 33.7344
Q56.5 29.5 56.5 23.0938" id="Verdana-35"/>
      </defs>
      <g transform="translate(504.084375 401.918125)scale(0.12 -0.12)">
       <use xlink:href="#Verdana-35"/>
       <use x="63.57421875" xlink:href="#Verdana-30"/>
       <use x="127.1484375" xlink:href="#Verdana-30"/>
       <use x="190.72265625" xlink:href="#Verdana-30"/>
      </g>
     </g>
    </g>
    <g id="text_7">
     <!-- Objective function exectuions -->
     <defs>
      <path d="
M57.0312 27.6875
Q57.0312 20.8438 55.0938 15.375
Q53.1719 9.90625 49.9062 6.20312
Q46.4375 2.34375 42.2812 0.40625
Q38.1406 -1.51562 33.1562 -1.51562
Q28.5156 -1.51562 25.0469 -0.40625
Q21.5781 0.6875 18.2188 2.54688
L17.625 0
L9.03125 0
L9.03125 75.9844
L18.2188 75.9844
L18.2188 48.8281
Q22.0781 52 26.4219 54.0312
Q30.7656 56.0625 36.1875 56.0625
Q45.8438 56.0625 51.4375 48.6406
Q57.0312 41.2188 57.0312 27.6875
M47.5625 27.4375
Q47.5625 37.2031 44.3281 42.25
Q41.1094 47.3125 33.9375 47.3125
Q29.9375 47.3125 25.8281 45.5781
Q21.7344 43.8438 18.2188 41.1094
L18.2188 9.85938
Q22.125 8.10938 24.9219 7.42188
Q27.7344 6.73438 31.2969 6.73438
Q38.9219 6.73438 43.2344 11.7344
Q47.5625 16.75 47.5625 27.4375" id="Verdana-62"/>
      <path d="
M56.2031 54.5469
L34.125 0
L24.9062 0
L2.98438 54.5469
L12.9375 54.5469
L29.8281 11.1406
L46.5781 54.5469
z
" id="Verdana-76"/>
      <path d="
M56.25 0
L44.6719 0
L29.2031 20.9531
L13.625 0
L2.9375 0
L24.2188 27.2031
L3.125 54.5469
L14.7031 54.5469
L30.0781 33.9375
L45.5156 54.5469
L56.25 54.5469
L34.8125 27.6875
z
" id="Verdana-78"/>
      <path d="
M54.6875 26.3125
L14.5 26.3125
Q14.5 21.2969 16.0156 17.5469
Q17.5312 13.8125 20.1719 11.4219
Q22.7031 9.07812 26.1875 7.90625
Q29.6875 6.73438 33.8906 6.73438
Q39.4531 6.73438 45.0938 8.95312
Q50.7344 11.1875 53.125 13.3281
L53.6094 13.3281
L53.6094 3.32812
Q48.9688 1.375 44.1406 0.046875
Q39.3125 -1.26562 33.9844 -1.26562
Q20.4062 -1.26562 12.7812 6.07812
Q5.17188 13.4219 5.17188 26.9531
Q5.17188 40.3281 12.4688 48.1875
Q19.7812 56.0625 31.6875 56.0625
Q42.7188 56.0625 48.7031 49.6094
Q54.6875 43.1719 54.6875 31.2969
z

M45.75 33.3438
Q45.7031 40.5781 42.1094 44.5312
Q38.5312 48.4844 31.2031 48.4844
Q23.8281 48.4844 19.4531 44.1406
Q15.0938 39.7969 14.5 33.3438
z
" id="Verdana-65"/>
      <path d="
M49.3594 3.42188
Q44.7812 1.21875 40.6562 0
Q36.5312 -1.21875 31.8906 -1.21875
Q25.9844 -1.21875 21.0469 0.515625
Q16.1094 2.25 12.5938 5.76562
Q9.03125 9.28125 7.07812 14.6406
Q5.125 20.0156 5.125 27.2031
Q5.125 40.5781 12.4688 48.1875
Q19.8281 55.8125 31.8906 55.8125
Q36.5781 55.8125 41.0938 54.4844
Q45.6094 53.1719 49.3594 51.2656
L49.3594 41.0625
L48.875 41.0625
Q44.6719 44.3438 40.2031 46.0938
Q35.75 47.8594 31.5 47.8594
Q23.6875 47.8594 19.1719 42.6094
Q14.6562 37.3594 14.6562 27.2031
Q14.6562 17.3281 19.0625 12.0312
Q23.4844 6.73438 31.5 6.73438
Q34.2812 6.73438 37.1562 7.46875
Q40.0469 8.20312 42.3281 9.375
Q44.3438 10.4062 46.0938 11.5469
Q47.8594 12.7031 48.875 13.5312
L49.3594 13.5312
z
" id="Verdana-63"/>
      <path d="
M26.0312 63.6719
L15.6719 63.6719
L15.6719 73.1875
L26.0312 73.1875
z

M25.4375 -1.3125
Q25.4375 -10.8906 20.5469 -15.7656
Q15.6719 -20.6562 7.46875 -20.6562
Q5.51562 -20.6562 2.3125 -20.2656
Q-0.875 -19.875 -3.03125 -19.2812
L-3.03125 -10.5469
L-2.54688 -10.5469
Q-1.17188 -11.0781 1.14062 -11.7656
Q3.46875 -12.4531 5.67188 -12.4531
Q9.1875 -12.4531 11.3281 -11.4688
Q13.4844 -10.5 14.5469 -8.54688
Q15.625 -6.59375 15.9375 -3.82812
Q16.2656 -1.07812 16.2656 2.875
L16.2656 46.8281
L4.89062 46.8281
L4.89062 54.5469
L25.4375 54.5469
z
" id="Verdana-6a"/>
      <path d="
M18.8906 63.6719
L8.54688 63.6719
L8.54688 73.1875
L18.8906 73.1875
z

M18.3125 0
L9.125 0
L9.125 54.5469
L18.3125 54.5469
z
" id="Verdana-69"/>
      <path d="
M54.6406 0
L45.4531 0
L45.4531 31.0625
Q45.4531 34.8125 45.0156 38.1094
Q44.5781 41.4062 43.4062 43.2656
Q42.1875 45.3125 39.8906 46.3125
Q37.5938 47.3125 33.9375 47.3125
Q30.1719 47.3125 26.0625 45.4531
Q21.9688 43.6094 18.2188 40.7188
L18.2188 0
L9.03125 0
L9.03125 54.5469
L18.2188 54.5469
L18.2188 48.4844
Q22.5156 52.0469 27.0938 54.0469
Q31.6875 56.0625 36.5312 56.0625
Q45.3594 56.0625 50 50.7344
Q54.6406 45.4062 54.6406 35.4062
z
" id="Verdana-6e"/>
      <path d="
M48 15.7188
Q48 8.25 41.8125 3.46875
Q35.6406 -1.3125 24.9531 -1.3125
Q18.8906 -1.3125 13.8438 0.125
Q8.79688 1.5625 5.375 3.26562
L5.375 13.5781
L5.85938 13.5781
Q10.2031 10.2969 15.5156 8.375
Q20.8438 6.45312 25.7344 6.45312
Q31.7812 6.45312 35.2031 8.40625
Q38.625 10.3594 38.625 14.5469
Q38.625 17.7812 36.7656 19.4375
Q34.9062 21.0938 29.6406 22.2656
Q27.6875 22.7031 24.5312 23.2812
Q21.3906 23.875 18.7969 24.5625
Q11.625 26.4688 8.60938 30.1562
Q5.60938 33.8438 5.60938 39.2031
Q5.60938 42.5781 7 45.5469
Q8.40625 48.5312 11.2344 50.875
Q13.9688 53.1719 18.1875 54.5156
Q22.4062 55.8594 27.6406 55.8594
Q32.5156 55.8594 37.5156 54.6562
Q42.5312 53.4688 45.8438 51.7656
L45.8438 41.9375
L45.3594 41.9375
Q41.8438 44.5312 36.8125 46.3125
Q31.7812 48.0938 26.9531 48.0938
Q21.9219 48.0938 18.4531 46.1562
Q14.9844 44.2344 14.9844 40.4375
Q14.9844 37.0625 17.0938 35.3594
Q19.1406 33.6406 23.7344 32.5625
Q26.2656 31.9844 29.4062 31.3906
Q32.5625 30.8125 34.6719 30.3281
Q41.0625 28.8594 44.5312 25.2969
Q48 21.6875 48 15.7188" id="Verdana-73"/>
      <path d="
M38.375 67.0938
L37.8906 67.0938
Q36.375 67.5312 33.9375 67.9844
Q31.5 68.4531 29.6406 68.4531
Q23.7344 68.4531 21.0625 65.8438
Q18.4062 63.2344 18.4062 56.3906
L18.4062 54.5469
L34.9688 54.5469
L34.9688 46.8281
L18.7031 46.8281
L18.7031 0
L9.51562 0
L9.51562 46.8281
L3.32812 46.8281
L3.32812 54.5469
L9.51562 54.5469
L9.51562 56.3438
Q9.51562 66.0625 14.3438 71.2656
Q19.1875 76.4688 28.3281 76.4688
Q31.3906 76.4688 33.8594 76.1719
Q36.3281 75.875 38.375 75.4844
z
" id="Verdana-66"/>
      <path id="Verdana-20"/>
      <path d="
M63.9688 64.3594
Q68.4062 59.4688 70.7656 52.3906
Q73.1406 45.3125 73.1406 36.3281
Q73.1406 27.3438 70.7188 20.2344
Q68.3125 13.1406 63.9688 8.40625
Q59.4688 3.46875 53.3438 0.96875
Q47.2188 -1.51562 39.3594 -1.51562
Q31.6875 -1.51562 25.4062 1.01562
Q19.1406 3.5625 14.75 8.40625
Q10.3594 13.2344 7.98438 20.2656
Q5.60938 27.2969 5.60938 36.3281
Q5.60938 45.2188 7.95312 52.2656
Q10.2969 59.3281 14.7969 64.3594
Q19.0938 69.1406 25.4688 71.6719
Q31.8438 74.2188 39.3594 74.2188
Q47.1719 74.2188 53.3906 71.6562
Q59.625 69.0938 63.9688 64.3594
M63.0938 36.3281
Q63.0938 50.4844 56.7344 58.1719
Q50.3906 65.875 39.4062 65.875
Q28.3281 65.875 22 58.1719
Q15.6719 50.4844 15.6719 36.3281
Q15.6719 22.0156 22.1094 14.4219
Q28.5625 6.84375 39.4062 6.84375
Q50.25 6.84375 56.6719 14.4219
Q63.0938 22.0156 63.0938 36.3281" id="Verdana-4f"/>
      <path d="
M55.5156 27.25
Q55.5156 13.9219 48.6719 6.20312
Q41.8438 -1.51562 30.375 -1.51562
Q18.7969 -1.51562 11.9844 6.20312
Q5.17188 13.9219 5.17188 27.25
Q5.17188 40.5781 11.9844 48.3125
Q18.7969 56.0625 30.375 56.0625
Q41.8438 56.0625 48.6719 48.3125
Q55.5156 40.5781 55.5156 27.25
M46.0469 27.25
Q46.0469 37.8438 41.8906 42.9844
Q37.75 48.1406 30.375 48.1406
Q22.9062 48.1406 18.7812 42.9844
Q14.6562 37.8438 14.6562 27.25
Q14.6562 17 18.7969 11.6875
Q22.9531 6.39062 30.375 6.39062
Q37.7031 6.39062 41.875 11.6406
Q46.0469 16.8906 46.0469 27.25" id="Verdana-6f"/>
      <path d="
M37.3594 0.484375
Q34.7656 -0.203125 31.7031 -0.640625
Q28.6562 -1.07812 26.2656 -1.07812
Q17.9219 -1.07812 13.5781 3.40625
Q9.23438 7.90625 9.23438 17.8281
L9.23438 46.8281
L3.03125 46.8281
L3.03125 54.5469
L9.23438 54.5469
L9.23438 70.2188
L18.4062 70.2188
L18.4062 54.5469
L37.3594 54.5469
L37.3594 46.8281
L18.4062 46.8281
L18.4062 21.9688
Q18.4062 17.6719 18.5938 15.25
Q18.7969 12.8438 19.9688 10.75
Q21.0469 8.79688 22.9219 7.89062
Q24.8125 6.98438 28.6562 6.98438
Q30.9062 6.98438 33.3438 7.64062
Q35.7969 8.29688 36.8594 8.73438
L37.3594 8.73438
z
" id="Verdana-74"/>
      <path d="
M54.25 0
L45.0625 0
L45.0625 6.0625
Q40.4375 2.39062 36.1875 0.4375
Q31.9375 -1.51562 26.8125 -1.51562
Q18.2188 -1.51562 13.4219 3.73438
Q8.64062 8.98438 8.64062 19.1406
L8.64062 54.5469
L17.8281 54.5469
L17.8281 23.4844
Q17.8281 19.3438 18.2188 16.375
Q18.6094 13.4219 19.875 11.3281
Q21.1875 9.1875 23.2812 8.20312
Q25.3906 7.23438 29.3906 7.23438
Q32.9531 7.23438 37.1719 9.07812
Q41.4062 10.9375 45.0625 13.8125
L45.0625 54.5469
L54.25 54.5469
z
" id="Verdana-75"/>
     </defs>
     <g transform="translate(206.5078125 418.509375)scale(0.12 -0.12)">
      <use xlink:href="#Verdana-4f"/>
      <use x="78.7109375" xlink:href="#Verdana-62"/>
      <use x="141.015625" xlink:href="#Verdana-6a"/>
      <use x="175.439453125" xlink:href="#Verdana-65"/>
      <use x="235.009765625" xlink:href="#Verdana-63"/>
      <use x="287.109375" xlink:href="#Verdana-74"/>
      <use x="326.513671875" xlink:href="#Verdana-69"/>
      <use x="353.955078125" xlink:href="#Verdana-76"/>
      <use x="412.259765625" xlink:href="#Verdana-65"/>
      <use x="471.830078125" xlink:href="#Verdana-20"/>
      <use x="506.986328125" xlink:href="#Verdana-66"/>
      <use x="542.142578125" xlink:href="#Verdana-75"/>
      <use x="605.423828125" xlink:href="#Verdana-6e"/>
      <use x="668.705078125" xlink:href="#Verdana-63"/>
      <use x="720.8046875" xlink:href="#Verdana-74"/>
      <use x="760.208984375" xlink:href="#Verdana-69"/>
      <use x="787.650390625" xlink:href="#Verdana-6f"/>
      <use x="848.34375" xlink:href="#Verdana-6e"/>
      <use x="911.625" xlink:href="#Verdana-20"/>
      <use x="946.78125" xlink:href="#Verdana-65"/>
      <use x="1006.3515625" xlink:href="#Verdana-78"/>
      <use x="1064.40625" xlink:href="#Verdana-65"/>
      <use x="1123.9765625" xlink:href="#Verdana-63"/>
      <use x="1176.076171875" xlink:href="#Verdana-74"/>
      <use x="1215.48046875" xlink:href="#Verdana-75"/>
      <use x="1278.76171875" xlink:href="#Verdana-69"/>
      <use x="1306.203125" xlink:href="#Verdana-6f"/>
      <use x="1366.896484375" xlink:href="#Verdana-6e"/>
      <use x="1430.177734375" xlink:href="#Verdana-73"/>
     </g>
    </g>
   </g>
   <g id="matplotlib.axis_2">
    <g id="ytick_1">
     <g id="line2d_18">
      <defs>
       <path d="
M0 0
L4 0" id="md7965d1ba0" style="stroke:#000000;stroke-width:0.5;"/>
      </defs>
      <g>
       <use style="stroke:#000000;stroke-width:0.5;" x="72.0" xlink:href="#md7965d1ba0" y="388.8"/>
      </g>
     </g>
     <g id="line2d_19">
      <defs>
       <path d="
M0 0
L-4 0" id="md9a1c1a7cd" style="stroke:#000000;stroke-width:0.5;"/>
      </defs>
      <g>
       <use style="stroke:#000000;stroke-width:0.5;" x="518.4" xlink:href="#md9a1c1a7cd" y="388.8"/>
      </g>
     </g>
     <g id="text_8">
      <!-- 4 -->
      <g transform="translate(61.40375 392.1515625)scale(0.12 -0.12)">
       <use xlink:href="#Verdana-34"/>
      </g>
     </g>
    </g>
    <g id="ytick_2">
     <g id="line2d_20">
      <g>
       <use style="stroke:#000000;stroke-width:0.5;" x="72.0" xlink:href="#md7965d1ba0" y="350.4"/>
      </g>
     </g>
     <g id="line2d_21">
      <g>
       <use style="stroke:#000000;stroke-width:0.5;" x="518.4" xlink:href="#md9a1c1a7cd" y="350.4"/>
      </g>
     </g>
     <g id="text_9">
      <!-- 6 -->
      <defs>
       <path d="
M58.1562 23.5781
Q58.1562 12.5 50.8594 5.48438
Q43.5625 -1.51562 32.9531 -1.51562
Q27.5938 -1.51562 23.1875 0.140625
Q18.7969 1.8125 15.4375 5.07812
Q11.2344 9.125 8.95312 15.8125
Q6.6875 22.5156 6.6875 31.9375
Q6.6875 41.6094 8.76562 49.0781
Q10.8438 56.5469 15.375 62.3594
Q19.6719 67.875 26.4531 70.9688
Q33.25 74.0781 42.2812 74.0781
Q45.1719 74.0781 47.125 73.8281
Q49.0781 73.5781 51.0781 72.9531
L51.0781 63.625
L50.5938 63.625
Q49.2188 64.3594 46.4531 65.0156
Q43.7031 65.6719 40.8281 65.6719
Q30.3281 65.6719 24.0781 59.1094
Q17.8281 52.5469 16.7969 41.3594
Q20.9062 43.8438 24.875 45.1406
Q28.8594 46.4375 34.0781 46.4375
Q38.7188 46.4375 42.25 45.5781
Q45.7969 44.7344 49.5156 42.1406
Q53.8125 39.1562 55.9844 34.6094
Q58.1562 30.0781 58.1562 23.5781
M48.25 23.1875
Q48.25 27.7344 46.9062 30.7031
Q45.5625 33.6875 42.4844 35.8906
Q40.2344 37.4531 37.5 37.9375
Q34.7656 38.4219 31.7812 38.4219
Q27.6406 38.4219 24.0781 37.4375
Q20.5156 36.4688 16.75 34.4219
Q16.6562 33.3438 16.5938 32.3438
Q16.5469 31.3438 16.5469 29.8281
Q16.5469 22.125 18.1406 17.6562
Q19.7344 13.1875 22.5156 10.5938
Q24.75 8.45312 27.3594 7.45312
Q29.9844 6.45312 33.0625 6.45312
Q40.1406 6.45312 44.1875 10.7656
Q48.25 15.0938 48.25 23.1875" id="Verdana-36"/>
      </defs>
      <g transform="translate(61.82375 353.7515625)scale(0.12 -0.12)">
       <use xlink:href="#Verdana-36"/>
      </g>
     </g>
    </g>
    <g id="ytick_3">
     <g id="line2d_22">
      <g>
       <use style="stroke:#000000;stroke-width:0.5;" x="72.0" xlink:href="#md7965d1ba0" y="312.0"/>
      </g>
     </g>
     <g id="line2d_23">
      <g>
       <use style="stroke:#000000;stroke-width:0.5;" x="518.4" xlink:href="#md9a1c1a7cd" y="312.0"/>
      </g>
     </g>
     <g id="text_10">
      <!-- 8 -->
      <defs>
       <path d="
M57.625 20.2656
Q57.625 10.8438 50.2656 4.59375
Q42.9219 -1.65625 31.7812 -1.65625
Q19.9688 -1.65625 12.9531 4.4375
Q5.95312 10.5469 5.95312 20.0625
Q5.95312 26.125 9.46875 31.0312
Q12.9844 35.9375 19.3906 38.8125
L19.3906 39.1094
Q13.5312 42.2344 10.7188 45.9375
Q7.90625 49.6562 7.90625 55.2188
Q7.90625 63.4219 14.6406 68.8906
Q21.3906 74.3594 31.7812 74.3594
Q42.6719 74.3594 49.1719 69.1406
Q55.6719 63.9219 55.6719 55.8594
Q55.6719 50.9219 52.5938 46.1562
Q49.5156 41.4062 43.5625 38.7188
L43.5625 38.4219
Q50.3906 35.5 54 31.2031
Q57.625 26.9062 57.625 20.2656
M46.0469 55.7656
Q46.0469 60.9844 42.0156 64.0781
Q37.9844 67.1875 31.7344 67.1875
Q25.5938 67.1875 21.6562 64.25
Q17.7188 61.3281 17.7188 56.3438
Q17.7188 52.8281 19.7031 50.2656
Q21.6875 47.7031 25.6875 45.7031
Q27.4844 44.8281 30.875 43.4062
Q34.2812 42 37.5 41.0625
Q42.3281 44.2812 44.1875 47.75
Q46.0469 51.2188 46.0469 55.7656
M47.5625 19.3438
Q47.5625 23.8281 45.5781 26.5312
Q43.6094 29.25 37.8438 31.9844
Q35.5469 33.0625 32.8125 33.9844
Q30.0781 34.9062 25.5312 36.5781
Q21.1406 34.1875 18.4844 30.0781
Q15.8281 25.9844 15.8281 20.7969
Q15.8281 14.2031 20.3594 9.90625
Q24.9062 5.60938 31.8906 5.60938
Q39.0156 5.60938 43.2812 9.26562
Q47.5625 12.9375 47.5625 19.3438" id="Verdana-38"/>
      </defs>
      <g transform="translate(61.799375 315.3515625)scale(0.12 -0.12)">
       <use xlink:href="#Verdana-38"/>
      </g>
     </g>
    </g>
    <g id="ytick_4">
     <g id="line2d_24">
      <g>
       <use style="stroke:#000000;stroke-width:0.5;" x="72.0" xlink:href="#md7965d1ba0" y="273.6"/>
      </g>
     </g>
     <g id="line2d_25">
      <g>
       <use style="stroke:#000000;stroke-width:0.5;" x="518.4" xlink:href="#md9a1c1a7cd" y="273.6"/>
      </g>
     </g>
     <g id="text_11">
      <!-- 10 -->
      <g transform="translate(55.161875 276.9515625)scale(0.12 -0.12)">
       <use xlink:href="#Verdana-31"/>
       <use x="63.57421875" xlink:href="#Verdana-30"/>
      </g>
     </g>
    </g>
    <g id="ytick_5">
     <g id="line2d_26">
      <g>
       <use style="stroke:#000000;stroke-width:0.5;" x="72.0" xlink:href="#md7965d1ba0" y="235.2"/>
      </g>
     </g>
     <g id="line2d_27">
      <g>
       <use style="stroke:#000000;stroke-width:0.5;" x="518.4" xlink:href="#md9a1c1a7cd" y="235.2"/>
      </g>
     </g>
     <g id="text_12">
      <!-- 12 -->
      <g transform="translate(55.150625 238.5515625)scale(0.12 -0.12)">
       <use xlink:href="#Verdana-31"/>
       <use x="63.57421875" xlink:href="#Verdana-32"/>
      </g>
     </g>
    </g>
    <g id="ytick_6">
     <g id="line2d_28">
      <g>
       <use style="stroke:#000000;stroke-width:0.5;" x="72.0" xlink:href="#md7965d1ba0" y="196.8"/>
      </g>
     </g>
     <g id="line2d_29">
      <g>
       <use style="stroke:#000000;stroke-width:0.5;" x="518.4" xlink:href="#md9a1c1a7cd" y="196.8"/>
      </g>
     </g>
     <g id="text_13">
      <!-- 14 -->
      <g transform="translate(54.951875 200.1515625)scale(0.12 -0.12)">
       <use xlink:href="#Verdana-31"/>
       <use x="63.57421875" xlink:href="#Verdana-34"/>
      </g>
     </g>
    </g>
    <g id="ytick_7">
     <g id="line2d_30">
      <g>
       <use style="stroke:#000000;stroke-width:0.5;" x="72.0" xlink:href="#md7965d1ba0" y="158.4"/>
      </g>
     </g>
     <g id="line2d_31">
      <g>
       <use style="stroke:#000000;stroke-width:0.5;" x="518.4" xlink:href="#md9a1c1a7cd" y="158.4"/>
      </g>
     </g>
     <g id="text_14">
      <!-- 16 -->
      <g transform="translate(55.02125 161.7515625)scale(0.12 -0.12)">
       <use xlink:href="#Verdana-31"/>
       <use x="63.57421875" xlink:href="#Verdana-36"/>
      </g>
     </g>
    </g>
    <g id="ytick_8">
     <g id="line2d_32">
      <g>
       <use style="stroke:#000000;stroke-width:0.5;" x="72.0" xlink:href="#md7965d1ba0" y="120.0"/>
      </g>
     </g>
     <g id="line2d_33">
      <g>
       <use style="stroke:#000000;stroke-width:0.5;" x="518.4" xlink:href="#md9a1c1a7cd" y="120.0"/>
      </g>
     </g>
     <g id="text_15">
      <!-- 18 -->
      <g transform="translate(55.085 123.3515625)scale(0.12 -0.12)">
       <use xlink:href="#Verdana-31"/>
       <use x="63.57421875" xlink:href="#Verdana-38"/>
      </g>
     </g>
    </g>
    <g id="ytick_9">
     <g id="line2d_34">
      <g>
       <use style="stroke:#000000;stroke-width:0.5;" x="72.0" xlink:href="#md7965d1ba0" y="81.6"/>
      </g>
     </g>
     <g id="line2d_35">
      <g>
       <use style="stroke:#000000;stroke-width:0.5;" x="518.4" xlink:href="#md9a1c1a7cd" y="81.6"/>
      </g>
     </g>
     <g id="text_16">
      <!-- 20 -->
      <g transform="translate(54.475625 84.9515625)scale(0.12 -0.12)">
       <use xlink:href="#Verdana-32"/>
       <use x="63.57421875" xlink:href="#Verdana-30"/>
      </g>
     </g>
    </g>
    <g id="ytick_10">
     <g id="line2d_36">
      <g>
       <use style="stroke:#000000;stroke-width:0.5;" x="72.0" xlink:href="#md7965d1ba0" y="43.2"/>
      </g>
     </g>
     <g id="line2d_37">
      <g>
       <use style="stroke:#000000;stroke-width:0.5;" x="518.4" xlink:href="#md9a1c1a7cd" y="43.2"/>
      </g>
     </g>
     <g id="text_17">
      <!-- 22 -->
      <g transform="translate(54.464375 46.5515625)scale(0.12 -0.12)">
       <use xlink:href="#Verdana-32"/>
       <use x="63.57421875" xlink:href="#Verdana-32"/>
      </g>
     </g>
    </g>
    <g id="text_18">
     <!-- Absolute Max -->
     <defs>
      <path d="
M18.3125 0
L9.125 0
L9.125 75.9844
L18.3125 75.9844
z
" id="Verdana-6c"/>
      <path d="
M74.5156 0
L64.8438 0
L64.8438 62.6406
L44.625 20.0156
L38.875 20.0156
L18.7969 62.6406
L18.7969 0
L9.76562 0
L9.76562 72.7031
L22.9531 72.7031
L42.3281 32.2344
L61.0781 72.7031
L74.5156 72.7031
z
" id="Verdana-4d"/>
      <path d="
M51.4219 0
L42.2812 0
L42.2812 5.8125
Q41.0625 4.98438 38.9844 3.48438
Q36.9219 2 34.9688 1.125
Q32.6719 0 29.6875 -0.75
Q26.7031 -1.51562 22.7031 -1.51562
Q15.3281 -1.51562 10.2031 3.35938
Q5.07812 8.25 5.07812 15.8281
Q5.07812 22.0156 7.73438 25.8438
Q10.4062 29.6875 15.3281 31.8906
Q20.3125 34.0781 27.2969 34.8594
Q34.2812 35.6406 42.2812 36.0312
L42.2812 37.4531
Q42.2812 40.5781 41.1875 42.625
Q40.0938 44.6719 38.0312 45.8438
Q36.0781 46.9688 33.3438 47.3594
Q30.6094 47.75 27.6406 47.75
Q24.0312 47.75 19.5781 46.7969
Q15.1406 45.8438 10.4062 44.0469
L9.90625 44.0469
L9.90625 53.375
Q12.5938 54.1094 17.6719 54.9844
Q22.75 55.8594 27.6875 55.8594
Q33.4531 55.8594 37.7188 54.9062
Q42 53.9531 45.125 51.6562
Q48.1875 49.4219 49.7969 45.8438
Q51.4219 42.2812 51.4219 37.0156
z

M42.2812 13.4219
L42.2812 28.6094
Q38.0938 28.375 32.3906 27.875
Q26.7031 27.3906 23.3906 26.4688
Q19.4375 25.3438 16.9844 22.9688
Q14.5469 20.6094 14.5469 16.4531
Q14.5469 11.7656 17.375 9.39062
Q20.2188 7.03125 26.0312 7.03125
Q30.8594 7.03125 34.8594 8.90625
Q38.875 10.7969 42.2812 13.4219" id="Verdana-61"/>
      <path d="
M67.0938 0
L56.7812 0
L49.6562 20.2656
L18.2188 20.2656
L11.0781 0
L1.26562 0
L27.7344 72.7031
L40.625 72.7031
z

M46.6875 28.5625
L33.9375 64.2656
L21.1406 28.5625
z
" id="Verdana-41"/>
     </defs>
     <g transform="translate(47.049375 256.134375)rotate(-90.0)scale(0.12 -0.12)">
      <use xlink:href="#Verdana-41"/>
      <use x="68.359375" xlink:href="#Verdana-62"/>
      <use x="130.6640625" xlink:href="#Verdana-73"/>
      <use x="182.763671875" xlink:href="#Verdana-6f"/>
      <use x="243.45703125" xlink:href="#Verdana-6c"/>
      <use x="270.8984375" xlink:href="#Verdana-75"/>
      <use x="334.1796875" xlink:href="#Verdana-74"/>
      <use x="373.583984375" xlink:href="#Verdana-65"/>
      <use x="433.154296875" xlink:href="#Verdana-20"/>
      <use x="468.310546875" xlink:href="#Verdana-4d"/>
      <use x="552.587890625" xlink:href="#Verdana-61"/>
      <use x="612.646484375" xlink:href="#Verdana-78"/>
     </g>
    </g>
   </g>
   <g id="patch_3">
    <path d="
M72 43.2
L518.4 43.2" style="fill:none;stroke:#000000;"/>
   </g>
   <g id="patch_4">
    <path d="
M72 388.8
L72 43.2" style="fill:none;stroke:#000000;"/>
   </g>
   <g id="patch_5">
    <path d="
M518.4 388.8
L518.4 43.2" style="fill:none;stroke:#000000;"/>
   </g>
   <g id="patch_6">
    <path d="
M72 388.8
L518.4 388.8" style="fill:none;stroke:#000000;"/>
   </g>
   <g id="text_19">
    <!-- Ackley Absolute Max -->
    <defs>
     <path d="
M58.5469 0
L46.4375 0
L24.5625 23.875
L18.6094 18.2188
L18.6094 0
L9.42188 0
L9.42188 75.9844
L18.6094 75.9844
L18.6094 27.25
L45.125 54.5469
L56.6875 54.5469
L31.3438 29.3438
z
" id="Verdana-6b"/>
     <path d="
M56.2031 54.5469
L24.3594 -20.125
L14.5469 -20.125
L24.7031 2.64062
L2.98438 54.5469
L12.9375 54.5469
L29.6875 14.1094
L46.5781 54.5469
z
" id="Verdana-79"/>
    </defs>
    <g transform="translate(221.04675 38.2)scale(0.144 -0.144)">
     <use xlink:href="#Verdana-41"/>
     <use x="68.359375" xlink:href="#Verdana-63"/>
     <use x="120.458984375" xlink:href="#Verdana-6b"/>
     <use x="179.638671875" xlink:href="#Verdana-6c"/>
     <use x="207.080078125" xlink:href="#Verdana-65"/>
     <use x="266.650390625" xlink:href="#Verdana-79"/>
     <use x="325.830078125" xlink:href="#Verdana-20"/>
     <use x="360.986328125" xlink:href="#Verdana-41"/>
     <use x="429.345703125" xlink:href="#Verdana-62"/>
     <use x="491.650390625" xlink:href="#Verdana-73"/>
     <use x="543.75" xlink:href="#Verdana-6f"/>
     <use x="604.443359375" xlink:href="#Verdana-6c"/>
     <use x="631.884765625" xlink:href="#Verdana-75"/>
     <use x="695.166015625" xlink:href="#Verdana-74"/>
     <use x="734.5703125" xlink:href="#Verdana-65"/>
     <use x="794.140625" xlink:href="#Verdana-20"/>
     <use x="829.296875" xlink:href="#Verdana-4d"/>
     <use x="913.57421875" xlink:href="#Verdana-61"/>
     <use x="973.6328125" xlink:href="#Verdana-78"/>
    </g>
   </g>
   <g id="legend_1">
    <g id="patch_7">
     <path d="
M79.2 381.6
L183.22 381.6
L183.22 272.081
L79.2 272.081
L79.2 381.6
z
" style="fill:#ffffff;stroke:#000000;"/>
    </g>
    <g id="line2d_38">
     <path d="
M89.28 283.743
L109.44 283.743" style="fill:none;stroke:#0000ff;stroke-dasharray:6.000000,2.000000;stroke-dashoffset:0.0;"/>
    </g>
    <g id="line2d_39"/>
    <g id="text_20">
     <!-- AMPGO -->
     <defs>
      <path d="
M57.3281 50.7344
Q57.3281 45.9062 55.6406 41.7656
Q53.9531 37.6406 50.9219 34.625
Q47.1719 30.8594 42.0469 28.9688
Q36.9219 27.0938 29.1094 27.0938
L19.4375 27.0938
L19.4375 0
L9.76562 0
L9.76562 72.7031
L29.5 72.7031
Q36.0312 72.7031 40.5781 71.6094
Q45.125 70.5156 48.6406 68.1719
Q52.7812 65.375 55.0469 61.2188
Q57.3281 57.0781 57.3281 50.7344
M47.2656 50.4844
Q47.2656 54.25 45.9375 57.0312
Q44.625 59.8125 41.9375 61.5781
Q39.5938 63.0938 36.5938 63.75
Q33.5938 64.4062 29 64.4062
L19.4375 64.4062
L19.4375 35.3594
L27.5938 35.3594
Q33.4531 35.3594 37.1094 36.4062
Q40.7656 37.4531 43.0625 39.75
Q45.3594 42.0938 46.3125 44.6719
Q47.2656 47.2656 47.2656 50.4844" id="Verdana-50"/>
      <path d="
M70.4062 5.375
Q64.4531 2.64062 57.3906 0.609375
Q50.3438 -1.42188 43.75 -1.42188
Q35.25 -1.42188 28.1719 0.921875
Q21.0938 3.26562 16.1094 7.95312
Q11.0781 12.7031 8.34375 19.7969
Q5.60938 26.9062 5.60938 36.4219
Q5.60938 53.8594 15.7969 63.9375
Q25.9844 74.0312 43.75 74.0312
Q49.9531 74.0312 56.4219 72.5312
Q62.8906 71.0469 70.3594 67.4844
L70.3594 56
L69.4844 56
Q67.9688 57.1719 65.0781 59.0781
Q62.2031 60.9844 59.4219 62.25
Q56.0625 63.7656 51.7812 64.7656
Q47.5156 65.7656 42.0938 65.7656
Q29.8906 65.7656 22.7812 57.9219
Q15.6719 50.0938 15.6719 36.7188
Q15.6719 22.6094 23.0938 14.7656
Q30.5156 6.9375 43.3125 6.9375
Q48 6.9375 52.6562 7.85938
Q57.3281 8.79688 60.8438 10.25
L60.8438 28.0781
L41.3594 28.0781
L41.3594 36.5781
L70.4062 36.5781
z
" id="Verdana-47"/>
     </defs>
     <g transform="translate(125.28 288.783)scale(0.144 -0.144)">
      <use xlink:href="#Verdana-41"/>
      <use x="68.359375" xlink:href="#Verdana-4d"/>
      <use x="152.63671875" xlink:href="#Verdana-50"/>
      <use x="212.939453125" xlink:href="#Verdana-47"/>
      <use x="290.478515625" xlink:href="#Verdana-4f"/>
     </g>
    </g>
    <g id="line2d_40">
     <path d="
M89.28 304.783
L109.44 304.783" style="fill:none;stroke:#008000;stroke-dasharray:1.000000,1.000000;stroke-dashoffset:0.0;"/>
    </g>
    <g id="line2d_41"/>
    <g id="text_21">
     <!-- Anneal -->
     <g transform="translate(125.28 309.82275)scale(0.144 -0.144)">
      <use xlink:href="#Verdana-41"/>
      <use x="68.359375" xlink:href="#Verdana-6e"/>
      <use x="131.640625" xlink:href="#Verdana-6e"/>
      <use x="194.921875" xlink:href="#Verdana-65"/>
      <use x="254.4921875" xlink:href="#Verdana-61"/>
      <use x="314.55078125" xlink:href="#Verdana-6c"/>
     </g>
    </g>
    <g id="line2d_42">
     <path d="
M89.28 325.822
L109.44 325.822" style="fill:none;stroke:#ff0000;stroke-dasharray:3.000000,6.000000;stroke-dashoffset:0.0;"/>
    </g>
    <g id="line2d_43"/>
    <g id="text_22">
     <!-- BSA -->
     <defs>
      <path d="
M64.5938 22.3594
Q64.5938 16.9375 62.5469 12.7812
Q60.5 8.64062 57.0312 5.95312
Q52.9375 2.73438 48.0156 1.35938
Q43.1094 0 35.5469 0
L9.76562 0
L9.76562 72.7031
L31.2969 72.7031
Q39.2656 72.7031 43.2188 72.1094
Q47.1719 71.5312 50.7812 69.6719
Q54.7812 67.5781 56.5938 64.2812
Q58.4062 60.9844 58.4062 56.3906
Q58.4062 51.2188 55.7656 47.5781
Q53.125 43.9531 48.7344 41.75
L48.7344 41.3594
Q56.1094 39.8438 60.3438 34.8906
Q64.5938 29.9375 64.5938 22.3594
M48.3438 55.125
Q48.3438 57.7656 47.4531 59.5625
Q46.5781 61.375 44.625 62.5
Q42.3281 63.8125 39.0625 64.125
Q35.7969 64.4531 30.9531 64.4531
L19.4375 64.4531
L19.4375 43.4531
L31.9375 43.4531
Q36.4688 43.4531 39.1562 43.9219
Q41.8438 44.3906 44.1406 45.8438
Q46.4375 47.3125 47.3906 49.625
Q48.3438 51.9531 48.3438 55.125
M54.5469 21.9688
Q54.5469 26.375 53.2188 28.9531
Q51.9062 31.5469 48.4375 33.3438
Q46.0938 34.5781 42.75 34.9375
Q39.4062 35.2969 34.625 35.2969
L19.4375 35.2969
L19.4375 8.25
L32.2344 8.25
Q38.5781 8.25 42.625 8.90625
Q46.6875 9.57812 49.2656 11.3281
Q52 13.2344 53.2656 15.6719
Q54.5469 18.1094 54.5469 21.9688" id="Verdana-42"/>
      <path d="
M62.5938 20.75
Q62.5938 16.5 60.6094 12.3438
Q58.6406 8.20312 55.0781 5.32812
Q51.1719 2.20312 45.9688 0.4375
Q40.7656 -1.3125 33.4531 -1.3125
Q25.5938 -1.3125 19.3125 0.140625
Q13.0312 1.60938 6.54688 4.5
L6.54688 16.6094
L7.23438 16.6094
Q12.75 12.0156 19.9688 9.51562
Q27.2031 7.03125 33.5469 7.03125
Q42.5312 7.03125 47.5312 10.3906
Q52.5469 13.7656 52.5469 19.3906
Q52.5469 24.2188 50.1719 26.5156
Q47.7969 28.8125 42.9688 30.0781
Q39.3125 31.0625 35.0312 31.6875
Q30.7656 32.3281 25.9844 33.2969
Q16.3125 35.3594 11.6406 40.3125
Q6.98438 45.2656 6.98438 53.2188
Q6.98438 62.3594 14.6875 68.1875
Q22.4062 74.0312 34.2812 74.0312
Q41.9375 74.0312 48.3281 72.5625
Q54.7344 71.0938 59.6719 68.9531
L59.6719 57.5156
L58.9844 57.5156
Q54.8281 61.0312 48.0625 63.3438
Q41.3125 65.6719 34.2344 65.6719
Q26.4688 65.6719 21.75 62.4531
Q17.0469 59.2344 17.0469 54.1562
Q17.0469 49.6094 19.3906 47.0156
Q21.7344 44.4375 27.6406 43.0625
Q30.7656 42.3906 36.5156 41.4062
Q42.2812 40.4375 46.2969 39.4062
Q54.3906 37.25 58.4844 32.9062
Q62.5938 28.5625 62.5938 20.75" id="Verdana-53"/>
     </defs>
     <g transform="translate(125.28 330.8625)scale(0.144 -0.144)">
      <use xlink:href="#Verdana-42"/>
      <use x="68.5546875" xlink:href="#Verdana-53"/>
      <use x="135.9140625" xlink:href="#Verdana-41"/>
     </g>
    </g>
    <g id="line2d_44">
     <path d="
M89.28 346.862
L109.44 346.862" style="fill:none;stroke:#00bfbf;stroke-dasharray:5.000000,1.000000,2.000000,1.000000,5.000000,1.000000;stroke-dashoffset:0.0;"/>
    </g>
    <g id="line2d_45"/>
    <g id="text_23">
     <!-- Cuckoo -->
     <defs>
      <path d="
M65.9219 5.28125
Q63.2344 4.10938 61.0625 3.07812
Q58.8906 2.04688 55.375 0.921875
Q52.3906 0 48.8906 -0.65625
Q45.4062 -1.3125 41.2188 -1.3125
Q33.2969 -1.3125 26.8281 0.90625
Q20.3594 3.125 15.5781 7.85938
Q10.8906 12.5 8.25 19.6562
Q5.60938 26.8125 5.60938 36.2812
Q5.60938 45.2656 8.14062 52.3438
Q10.6875 59.4219 15.4844 64.3125
Q20.125 69.0469 26.6875 71.5312
Q33.25 74.0312 41.2656 74.0312
Q47.125 74.0312 52.9531 72.6094
Q58.7969 71.1875 65.9219 67.625
L65.9219 56.1562
L65.1875 56.1562
Q59.1875 61.1875 53.2656 63.4688
Q47.3594 65.7656 40.625 65.7656
Q35.1094 65.7656 30.6875 63.9844
Q26.2656 62.2031 22.7969 58.4531
Q19.4375 54.7812 17.5469 49.1875
Q15.6719 43.6094 15.6719 36.2812
Q15.6719 28.6094 17.75 23.0938
Q19.8281 17.5781 23.0938 14.1094
Q26.5156 10.5 31.0781 8.76562
Q35.6406 7.03125 40.7188 7.03125
Q47.7031 7.03125 53.7969 9.42188
Q59.9062 11.8125 65.2344 16.6094
L65.9219 16.6094
z
" id="Verdana-43"/>
     </defs>
     <g transform="translate(125.28 351.90225)scale(0.144 -0.144)">
      <use xlink:href="#Verdana-43"/>
      <use x="69.82421875" xlink:href="#Verdana-75"/>
      <use x="133.10546875" xlink:href="#Verdana-63"/>
      <use x="185.205078125" xlink:href="#Verdana-6b"/>
      <use x="243.384765625" xlink:href="#Verdana-6f"/>
      <use x="304.078125" xlink:href="#Verdana-6f"/>
     </g>
    </g>
    <g id="line2d_46">
     <path d="
M89.28 367.902
L109.44 367.902" style="fill:none;stroke:#bf00bf;stroke-linecap:square;"/>
    </g>
    <g id="line2d_47"/>
    <g id="text_24">
     <!-- qABC -->
     <defs>
      <path d="
M53.2656 -20.125
L44.0938 -20.125
L44.0938 6.15625
Q39.8438 2.48438 35.6406 0.703125
Q31.4531 -1.07812 26.5625 -1.07812
Q16.8438 -1.07812 11.0625 6.42188
Q5.28125 13.9219 5.28125 27.0938
Q5.28125 34.125 7.29688 39.5156
Q9.32812 44.9219 12.6406 48.5781
Q15.875 52.1562 20.2188 54.1094
Q24.5625 56.0625 29.3906 56.0625
Q33.7969 56.0625 37.1875 55.0781
Q40.5781 54.1094 44.0938 52.2031
L44.6719 54.5469
L53.2656 54.5469
z

M44.0938 13.875
L44.0938 44.7344
Q40.2812 46.4375 37.3438 47.1094
Q34.4219 47.7969 31 47.7969
Q23.0469 47.7969 18.8906 42.4062
Q14.75 37.0156 14.75 27.5469
Q14.75 17.9688 18.0938 12.8125
Q21.4375 7.67188 28.6094 7.67188
Q32.625 7.67188 36.625 9.40625
Q40.625 11.1406 44.0938 13.875" id="Verdana-71"/>
     </defs>
     <g transform="translate(125.28 372.942)scale(0.144 -0.144)">
      <use xlink:href="#Verdana-71"/>
      <use x="62.3046875" xlink:href="#Verdana-41"/>
      <use x="130.6640625" xlink:href="#Verdana-42"/>
      <use x="199.21875" xlink:href="#Verdana-43"/>
     </g>
    </g>
   </g>
  </g>
 </g>
 <defs>
  <clipPath id="p7ff5b81e1d">
   <rect height="345.6" width="446.4" x="72.0" y="43.2"/>
  </clipPath>
 </defs>
</svg>
