<?xml version="1.0" encoding="utf-8" standalone="no"?>
<!DOCTYPE svg PUBLIC "-//W3C//DTD SVG 1.1//EN"
  "http://www.w3.org/Graphics/SVG/1.1/DTD/svg11.dtd">
<!-- Created with matplotlib (http://matplotlib.org/) -->
<svg height="432pt" version="1.1" viewBox="0 0 576 432" width="576pt" xmlns="http://www.w3.org/2000/svg" xmlns:xlink="http://www.w3.org/1999/xlink">
 <defs>
  <style type="text/css">
*{stroke-linecap:butt;stroke-linejoin:round;}
  </style>
 </defs>
 <g id="figure_1">
  <g id="patch_1">
   <path d="
M0 432
L576 432
L576 0
L0 0
z
" style="fill:#ffffff;"/>
  </g>
  <g id="axes_1">
   <g id="patch_2">
    <path d="
M72 388.8
L518.4 388.8
L518.4 43.2
L72 43.2
z
" style="fill:#ffffff;"/>
   </g>
   <g id="line2d_1">
    <path clip-path="url(#p7ff5b81e1d)" d="
M72 95.8946
L76.464 95.8946
L76.6426 102.387
L80.928 102.387
L81.1066 108.701
L85.392 108.701
L85.5706 108.901
L89.856 108.901
L90.0346 110.676
L94.32 110.676
L94.4986 112.897
L98.784 112.897
L98.9626 114.487
L103.248 114.487
L103.427 115.868
L107.712 115.868
L107.891 117.014
L112.176 117.014
L112.355 117.81
L116.64 117.81
L116.819 118.301
L121.104 118.301
L121.283 118.603
L125.568 118.603
L125.747 118.763
L134.496 118.87
L134.764 118.934
L143.424 119.006
L143.692 119.062
L156.816 119.155
L157.084 119.197
L174.672 119.292
L175.118 119.319
L192.528 119.404
L192.885 119.435
L228.24 119.542
L229.401 119.551
L335.465 119.661
L343.411 119.668
L518.311 119.74
L518.311 119.74" style="fill:none;stroke:#0000ff;stroke-dasharray:6.000000,2.000000;stroke-dashoffset:0.0;"/>
   </g>
   <g id="line2d_2">
    <path clip-path="url(#p7ff5b81e1d)" d="
M72 95.7895
L72.9821 97.0573
L77.8032 103.197
L79.0531 104.647
L81.1066 106.929
L81.7315 107.568
L95.7485 121.633
L96.7306 122.7
L100.212 126.562
L101.998 128.543
L102.98 129.56
L104.319 131.156
L111.997 140.657
L112.622 141.517
L115.747 145.68
L116.283 146.37
L116.908 147.282
L118.158 148.947
L118.693 149.735
L124.05 157.285
L124.675 158.243
L125.032 158.705
L125.657 159.72
L126.639 161.083
L127.621 162.552
L128.336 163.578
L128.693 164.076
L129.318 165.054
L131.818 168.743
L132.443 169.628
L132.889 170.316
L134.139 172.056
L134.675 172.915
L135.924 174.583
L139.764 180.099
L140.567 181.164
L141.46 182.362
L142.442 183.633
L143.067 184.592
L143.603 185.356
L144.138 186.074
L144.763 187.073
L145.388 188.006
L146.102 189.01
L146.46 189.531
L147.442 190.769
L148.334 192.081
L149.227 193.444
L149.763 194.105
L150.477 195.261
L151.013 195.99
L153.245 199.256
L153.959 200.235
L154.584 201.198
L155.12 201.867
L157.62 205.277
L157.798 205.477
L158.423 206.357
L159.405 207.517
L159.941 208.332
L160.119 208.552
L160.387 208.976
L161.28 210.039
L161.816 210.712
L162.708 211.737
L166.101 216.205
L166.548 216.803
L175.476 227.695
L175.654 227.908
L176.19 228.585
L177.44 230.017
L178.422 231.225
L180.475 233.61
L181.1 234.321
L181.636 234.968
L188.778 243.151
L189.225 243.612
L189.671 244.138
L190.296 244.828
L190.832 245.46
L191.367 246.017
L200.295 255.57
L200.92 256.283
L201.545 256.929
L201.902 257.283
L204.849 260.312
L205.206 260.594
L205.652 260.988
L206.277 261.566
L207.259 262.568
L209.223 264.678
L209.938 265.344
L212.527 267.806
L213.777 269.052
L214.312 269.487
L214.669 269.88
L215.473 270.711
L215.919 271.061
L216.187 271.384
L217.526 272.767
L217.794 273.001
L219.044 274.141
L222.705 277.444
L223.24 277.891
L225.026 279.395
L225.472 279.798
L237.793 290.71
L238.596 291.321
L241.007 293.209
L242.525 294.515
L243.15 295.004
L255.649 304.336
L256.899 305.076
L257.345 305.381
L257.881 305.775
L258.595 306.284
L259.934 307.146
L260.202 307.385
L261.184 308.126
L261.541 308.388
L261.72 308.521
L262.613 309.15
L264.488 310.437
L264.934 310.811
L265.291 311.025
L266.095 311.54
L266.541 311.82
L266.898 312.074
L271.005 314.889
L272.612 315.946
L273.326 316.328
L273.773 316.64
L274.844 317.198
L287.254 324.241
L289.486 325.29
L292.075 326.783
L295.111 328.422
L295.736 328.726
L301.896 331.887
L302.789 332.265
L303.324 332.526
L304.664 333.128
L306.271 333.918
L309.574 335.247
L309.842 335.441
L310.913 335.888
L319.573 339.638
L319.931 339.783
L320.556 340.034
L321.359 340.352
L323.234 341.069
L326.359 342.346
L326.627 342.519
L327.609 342.827
L327.966 342.983
L328.859 343.284
L329.305 343.483
L329.841 343.695
L330.823 344.028
L331.358 344.303
L334.215 345.35
L347.518 349.725
L348.143 349.904
L349.125 350.169
L349.839 350.379
L350.732 350.673
L352.071 351.053
L353.946 351.542
L354.482 351.708
L356.089 352.103
L358.053 352.614
L359.214 352.975
L361.178 353.528
L362.606 353.952
L363.767 354.297
L366.267 354.969
L370.909 356.085
L371.713 356.275
L376.266 357.353
L378.766 357.909
L379.748 358.114
L380.82 358.351
L382.069 358.639
L395.64 361.536
L397.426 361.9
L398.318 362.083
L400.997 362.596
L402.872 362.917
L404.3 363.194
L405.014 363.365
L406.8 363.687
L410.55 364.349
L413.05 364.826
L416.532 365.384
L420.013 365.962
L422.245 366.337
L427.156 367.114
L430.548 367.672
L432.334 367.925
L445.19 369.75
L448.137 370.135
L452.69 370.778
L454.386 371.004
L463.046 372.095
L465.368 372.393
L471.707 373.122
L476.885 373.705
L477.867 373.814
L479.385 373.98
L486.973 374.763
L488.223 374.9
L518.311 377.5
L518.311 377.5" style="fill:none;stroke:#008000;stroke-dasharray:1.000000,1.000000;stroke-dashoffset:0.0;"/>
   </g>
   <g id="line2d_3">
    <path clip-path="url(#p7ff5b81e1d)" d="
M72 95.7446
L72.0893 97.0022
L72.2678 98.1402
L72.625 99.2036
L73.1606 100.008
L73.8749 100.605
L74.6784 100.957
L75.7498 101.33
L76.464 101.551
L79.1424 102.361
L80.0352 102.636
L80.5709 102.752
L81.1066 102.91
L82.0886 103.225
L82.9814 103.47
L85.9277 104.286
L86.3741 104.418
L87.3562 104.708
L88.4275 104.965
L97.2662 107.185
L97.8912 107.341
L99.409 107.713
L102.891 108.498
L105.569 109.049
L106.373 109.248
L112.622 110.679
L116.729 111.52
L121.729 112.627
L137.71 115.802
L138.514 115.974
L139.406 116.152
L140.656 116.412
L141.46 116.548
L142.799 116.787
L143.87 117.033
L152.62 118.839
L153.334 119.031
L154.941 119.391
L157.262 119.888
L158.155 120.106
L159.316 120.31
L177.886 124.009
L178.6 124.148
L179.761 124.381
L189.135 126.396
L189.939 126.555
L190.475 126.704
L192.171 127.042
L192.885 127.193
L194.314 127.483
L195.028 127.609
L200.385 128.664
L202.438 129.06
L204.849 129.546
L208.509 130.331
L211.366 130.947
L213.509 131.415
L214.223 131.581
L215.741 131.909
L216.276 132.015
L217.08 132.191
L218.866 132.574
L220.562 132.928
L221.187 133.043
L222.705 133.335
L223.419 133.501
L225.204 133.913
L226.454 134.26
L228.061 134.62
L228.865 134.812
L229.936 135.1
L232.079 135.563
L233.508 135.899
L236.989 136.589
L238.15 136.828
L238.775 136.977
L239.489 137.107
L244.489 138.212
L245.292 138.367
L246.007 138.549
L247.971 138.985
L249.221 139.308
L266.988 143.32
L269.13 143.878
L271.005 144.31
L271.63 144.452
L284.397 147.21
L285.29 147.396
L304.396 151.595
L305.199 151.776
L321.716 155.569
L322.52 155.753
L323.412 155.936
L324.841 156.264
L325.912 156.485
L326.359 156.601
L327.519 156.836
L328.144 156.974
L330.644 157.482
L332.608 157.86
L333.323 158.026
L334.84 158.33
L335.287 158.438
L338.679 159.213
L339.929 159.494
L343.411 160.197
L344.125 160.365
L344.929 160.543
L346.982 160.985
L348.322 161.269
L377.605 167.659
L380.641 168.339
L381.355 168.513
L382.784 168.842
L383.587 169.015
L385.641 169.485
L388.051 169.906
L389.123 170.185
L389.837 170.362
L391.533 170.747
L391.89 170.857
L393.229 171.125
L393.944 171.334
L395.908 171.798
L396.89 172.004
L397.515 172.172
L399.3 172.476
L401.711 172.941
L402.693 173.124
L407.514 174.108
L409.657 174.532
L410.728 174.76
L413.675 175.377
L414.21 175.514
L415.639 175.796
L416.621 176.013
L417.96 176.291
L425.549 178.051
L426.442 178.23
L431.709 179.294
L433.138 179.593
L434.923 179.935
L436.084 180.148
L436.62 180.298
L438.316 180.634
L444.655 182.004
L449.208 182.891
L488.045 190.998
L494.027 192.187
L494.562 192.295
L495.723 192.552
L518.311 197.284
L518.311 197.284" style="fill:none;stroke:#ff0000;stroke-dasharray:3.000000,6.000000;stroke-dashoffset:0.0;"/>
   </g>
   <g id="line2d_4">
    <path clip-path="url(#p7ff5b81e1d)" d="
M72 95.7605
L72.0893 97.0156
L72.2678 98.1941
L72.625 99.2296
L73.5178 100.359
L73.8749 100.515
L75.1248 100.719
L75.4819 100.767
L75.7498 101.398
L76.1962 102.358
L77.3568 104.031
L79.0531 104.169
L79.4102 104.638
L80.303 105.678
L81.0173 106.306
L82.7136 106.478
L83.2493 107.1
L83.785 107.697
L84.0528 107.925
L84.4992 108.2
L86.2848 108.336
L87.5347 109.474
L87.8918 109.799
L88.0704 109.912
L89.9453 110.147
L90.3917 110.494
L90.9274 110.876
L91.5523 111.448
L93.5165 111.624
L95.3021 112.953
L96.9091 113.003
L97.3555 113.422
L97.6234 113.592
L97.9805 113.895
L98.784 114.376
L100.57 114.498
L101.016 114.899
L101.998 115.792
L102.444 115.952
L104.141 116.115
L105.123 116.816
L105.48 116.998
L105.837 117.27
L107.712 117.37
L108.337 117.881
L108.962 118.358
L109.676 118.663
L111.283 118.778
L111.73 119.186
L112.444 119.934
L113.158 120.303
L114.854 120.414
L115.747 120.912
L116.015 121.186
L116.551 121.621
L118.426 121.696
L118.783 122.012
L120.39 122.824
L121.997 122.91
L123.961 124.097
L125.657 124.266
L126.104 124.551
L127.354 125.588
L129.139 125.685
L130.3 126.561
L131.55 126.863
L132.8 126.97
L133.335 127.462
L133.603 127.671
L134.942 128.137
L136.46 128.285
L138.156 129.186
L139.853 129.271
L140.567 129.812
L141.192 130.258
L141.549 130.433
L143.424 130.538
L144.228 131.061
L144.406 131.169
L145.031 131.79
L145.299 131.846
L146.995 131.953
L147.352 132.178
L147.709 132.443
L148.692 133.199
L150.477 133.246
L150.834 133.507
L152.441 134.481
L154.405 134.649
L154.941 135.084
L155.477 135.48
L156.102 135.857
L157.709 135.934
L158.334 136.383
L158.869 136.754
L159.227 136.987
L159.941 137.096
L161.28 137.214
L161.459 137.315
L161.816 137.663
L163.333 138.421
L164.851 138.519
L166.726 139.765
L168.422 139.851
L169.672 140.708
L170.119 141.029
L171.904 141.076
L172.172 141.312
L172.708 141.612
L172.886 141.83
L173.154 142.097
L173.422 142.227
L174.136 142.374
L175.654 142.471
L176.636 143.047
L176.904 143.267
L177.886 143.497
L179.225 143.6
L179.493 143.855
L179.761 144.067
L180.118 144.313
L180.564 144.684
L181.189 144.825
L182.796 144.956
L184.493 146.099
L186.189 146.134
L186.457 146.388
L187.439 147.115
L187.975 147.528
L189.85 147.638
L190.207 147.873
L191.01 148.413
L191.546 148.818
L193.689 149.003
L194.314 149.422
L195.474 149.992
L196.992 150.059
L197.26 150.317
L197.617 150.691
L198.063 150.968
L198.51 151.222
L198.867 151.362
L200.652 151.487
L200.831 151.654
L201.01 151.74
L201.635 152.292
L201.992 152.494
L202.26 152.648
L204.134 152.74
L206.099 153.958
L207.795 154.121
L208.42 154.467
L208.598 154.623
L209.223 155.154
L209.67 155.255
L211.277 155.361
L211.723 155.713
L212.08 156.007
L213.062 156.664
L214.848 156.795
L215.384 157.25
L216.098 157.748
L216.991 158.113
L218.33 158.141
L218.598 158.373
L218.955 158.52
L220.383 159.291
L221.99 159.397
L222.705 160.091
L223.776 160.878
L225.562 160.957
L226.454 161.493
L227.079 161.714
L227.347 161.865
L229.133 161.986
L229.847 162.459
L231.097 162.948
L232.704 163.097
L233.061 163.367
L233.329 163.484
L233.954 163.895
L234.311 164.197
L234.579 164.263
L236.364 164.425
L236.811 164.767
L237.436 165.085
L238.418 165.493
L239.936 165.667
L240.382 166.031
L240.65 166.158
L240.918 166.329
L241.186 166.422
L241.632 166.702
L243.507 166.873
L244.757 167.682
L245.917 167.802
L247.078 167.915
L247.435 168.125
L249.31 168.744
L250.56 168.832
L251.542 169.365
L251.81 169.573
L252.435 169.811
L254.042 169.853
L254.31 170.026
L254.578 170.163
L254.935 170.451
L255.292 170.728
L255.56 170.898
L256.542 171.071
L257.792 171.236
L258.238 171.568
L258.863 172.073
L259.22 172.288
L259.577 172.404
L261.274 172.531
L263.148 173.577
L264.756 173.61
L265.291 174.057
L266.72 174.846
L268.327 174.895
L269.041 175.342
L269.398 175.49
L269.934 175.824
L270.38 175.966
L271.898 176.032
L272.076 176.248
L273.416 177.086
L275.023 177.254
L275.558 177.351
L275.826 177.47
L276.094 177.628
L277.165 178.228
L277.701 178.257
L279.13 178.371
L279.487 178.556
L280.38 179.103
L280.737 179.416
L281.004 179.484
L282.701 179.591
L283.326 179.975
L284.129 180.409
L284.576 180.543
L286.183 180.594
L286.54 180.847
L286.897 181.074
L287.165 181.3
L288.504 181.827
L289.843 181.957
L291.807 183.216
L293.504 183.331
L294.486 183.852
L294.754 184.075
L295.289 184.244
L297.075 184.335
L299.128 185.288
L300.557 185.378
L301.092 185.803
L301.807 186.099
L302.432 186.355
L304.128 186.495
L304.753 186.902
L305.199 187.134
L306.092 187.47
L307.878 187.645
L308.681 188.187
L309.217 188.396
L309.485 188.554
L311.36 188.649
L312.877 189.523
L313.145 189.573
L314.842 189.691
L316.092 190.345
L316.538 190.584
L318.502 190.767
L319.573 191.416
L319.841 191.559
L320.823 191.701
L321.984 191.8
L323.145 192.583
L323.591 192.804
L323.77 192.895
L325.644 193.062
L327.519 194.16
L329.216 194.315
L329.573 194.536
L330.466 195.1
L330.733 195.24
L331.001 195.288
L332.787 195.432
L333.68 195.955
L333.948 196.144
L334.394 196.409
L336.269 196.565
L337.965 197.516
L339.751 197.594
L340.286 197.93
L341.358 198.467
L341.626 198.564
L343.5 198.688
L343.947 198.919
L345.286 199.431
L347.161 199.586
L348.679 200.346
L350.554 200.447
L350.911 200.699
L352.875 201.322
L354.125 201.423
L354.303 201.621
L355.018 201.934
L355.375 202.093
L355.732 202.346
L356.357 202.379
L357.696 202.498
L359.66 203.291
L361.356 203.424
L361.803 203.69
L362.696 204.123
L363.41 204.264
L364.838 204.353
L365.463 204.652
L366.713 205.026
L368.588 205.173
L369.302 205.46
L369.66 205.695
L370.017 205.831
L370.284 205.895
L372.07 206.024
L372.606 206.314
L372.963 206.496
L373.499 206.736
L373.856 206.808
L375.731 206.911
L376.356 207.32
L377.248 207.784
L379.212 207.956
L380.195 208.338
L381.623 208.61
L382.694 208.694
L382.962 208.835
L383.409 209.001
L384.48 209.424
L386.176 209.477
L387.248 210.085
L388.408 210.422
L389.837 210.505
L390.462 210.845
L390.819 210.998
L391.176 211.209
L391.444 211.357
L391.712 211.406
L393.408 211.495
L395.015 212.305
L395.372 212.346
L397.158 212.504
L399.122 213.188
L400.55 213.302
L401.265 213.666
L401.622 213.878
L402.961 214.225
L404.211 214.328
L405.996 215.018
L407.782 215.161
L408.407 215.409
L409.746 215.837
L411.353 215.954
L412.246 216.403
L412.782 216.542
L413.139 216.639
L414.924 216.764
L415.46 216.98
L417.156 217.403
L418.585 217.547
L418.853 217.679
L420.192 218.16
L422.156 218.32
L423.942 218.963
L425.727 219.083
L426.888 219.522
L427.245 219.634
L429.656 219.861
L431.798 220.303
L432.78 220.389
L434.209 220.997
L434.745 221.065
L436.53 221.246
L438.762 221.772
L439.923 221.885
L441.887 222.466
L443.494 222.577
L445.369 223.236
L447.422 223.486
L448.315 223.854
L448.762 223.957
L450.815 224.168
L452.69 224.796
L454.386 224.954
L455.011 225.211
L456.172 225.494
L457.779 225.642
L459.029 226.116
L459.654 226.256
L461.35 226.406
L462.154 226.728
L463.85 227.078
L465.278 227.355
L465.814 227.518
L466.082 227.635
L466.975 227.794
L469.296 228.141
L469.832 228.33
L470.546 228.393
L472.153 228.536
L472.778 228.772
L474.028 229.055
L475.635 229.218
L477.599 229.673
L479.563 229.911
L479.831 230.054
L480.367 230.238
L481.438 230.389
L482.777 230.517
L485.188 231.054
L486.527 231.23
L487.688 231.655
L489.384 231.786
L490.009 231.901
L492.062 232.376
L493.58 232.499
L495.812 232.971
L497.241 233.135
L499.74 233.619
L500.723 233.735
L502.687 234.161
L504.204 234.268
L505.901 234.793
L507.686 234.887
L509.383 235.351
L511.258 235.475
L512.418 235.889
L513.4 236.094
L514.918 236.235
L515.811 236.519
L516.525 236.694
L518.311 236.764
L518.311 236.764" style="fill:none;stroke:#00bfbf;stroke-dasharray:5.000000,1.000000,2.000000,1.000000,5.000000,1.000000;stroke-dashoffset:0.0;"/>
   </g>
   <g id="line2d_5">
    <path clip-path="url(#p7ff5b81e1d)" d="
M72 95.7494
L72.0893 97.0396
L72.2678 98.1234
L72.625 99.1224
L72.9821 99.6861
L73.7856 100.364
L74.857 100.482
L75.5712 100.62
L77.4461 102.207
L79.1424 102.417
L80.4816 103.691
L80.928 104.041
L82.7136 104.285
L84.4992 106.167
L86.3741 106.502
L88.1597 108.42
L89.7667 108.537
L91.5523 110.747
L93.3379 110.886
L95.2128 113.135
L96.1056 113.206
L96.9091 113.273
L98.3376 115.144
L98.784 115.634
L100.123 115.768
L100.48 115.796
L102.444 118.333
L104.052 118.464
L105.837 121.262
L107.623 121.41
L109.498 124.269
L111.194 124.439
L112.355 126.36
L112.98 127.507
L114.765 127.686
L115.836 129.611
L116.194 130.223
L116.64 130.847
L118.336 131.019
L118.783 131.868
L120.39 134.293
L121.908 134.449
L122.8 136.042
L123.782 137.881
L125.568 138.186
L127.443 141.712
L128.961 141.863
L129.05 141.872
L129.586 142.908
L130.925 145.648
L132.621 145.822
L133.514 147.599
L134.05 148.646
L134.585 149.492
L136.192 149.654
L137.621 152.717
L138.067 153.526
L139.764 153.702
L141.728 157.664
L143.335 157.847
L144.049 159.505
L145.12 161.982
L146.906 162.177
L147.62 163.949
L148.245 165.389
L148.692 166.399
L150.477 166.64
L152.263 170.975
L153.066 171.048
L154.048 171.12
L154.852 172.939
L156.012 175.296
L156.548 175.398
L157.62 175.516
L159.405 179.793
L161.191 180.011
L162.887 183.698
L163.066 183.95
L163.512 184.064
L164.762 184.233
L166.548 188.503
L167.708 188.641
L168.333 188.728
L170.119 192.925
L171.904 193.136
L172.708 195.117
L173.511 196.944
L173.779 197.332
L174.851 197.511
L175.476 197.613
L175.922 198.683
L177.261 202.269
L179.047 202.515
L180.475 206.076
L181.011 206.866
L182.529 206.98
L182.618 206.993
L184.493 211.287
L185.475 211.426
L186.189 211.539
L186.636 212.631
L187.171 213.952
L187.528 214.819
L187.975 216.125
L189.76 216.302
L190.653 218.379
L191.457 220.071
L191.635 220.429
L193.421 220.787
L194.314 222.935
L194.849 224.18
L195.296 224.831
L195.742 224.88
L196.903 225.002
L197.617 226.759
L198.51 228.416
L198.778 228.786
L200.563 229.133
L202.438 232.889
L204.134 233.25
L205.831 236.656
L207.616 236.84
L208.331 238.448
L209.491 240.812
L211.188 240.96
L211.634 241.871
L211.991 242.608
L213.062 244.803
L213.866 244.928
L214.759 244.976
L215.294 245.909
L215.919 247.184
L216.634 248.406
L218.33 248.683
L218.598 249.213
L219.223 250.403
L220.205 252.034
L220.74 252.129
L221.901 252.173
L222.526 253.468
L223.062 254.758
L223.597 255.723
L223.776 255.939
L225.472 256.043
L226.187 257.574
L226.812 258.644
L227.347 259.439
L228.151 259.571
L229.044 259.679
L230.918 262.844
L231.722 262.922
L232.436 263.037
L232.704 263.187
L233.061 263.993
L234.043 265.598
L234.222 265.884
L234.49 266.169
L235.561 266.256
L236.186 266.301
L236.9 267.665
L237.347 268.441
L237.972 269.394
L239.757 269.492
L241.453 272.029
L241.632 272.217
L241.9 272.274
L243.418 272.426
L243.775 272.952
L244.4 273.883
L245.114 274.951
L245.65 275.024
L246.9 275.084
L247.792 276.311
L248.864 277.705
L250.471 277.795
L250.739 278.272
L251.185 278.964
L251.453 279.374
L251.81 279.951
L252.256 280.58
L253.863 280.693
L254.131 280.849
L255.828 283.206
L257.613 283.352
L259.577 285.789
L261.184 285.875
L261.274 285.969
L261.541 286.458
L262.166 287.186
L262.345 287.437
L263.059 288.258
L264.756 288.374
L265.648 289.662
L266.63 290.738
L268.327 290.854
L268.684 291.394
L269.577 292.559
L270.202 293.281
L270.827 293.328
L271.898 293.386
L272.166 293.869
L272.434 294.146
L272.969 294.796
L273.951 295.735
L275.469 295.83
L277.344 297.483
L279.04 297.56
L281.004 299.642
L282.612 299.739
L282.969 300.205
L284.576 301.605
L286.183 301.676
L288.236 303.554
L289.843 303.705
L290.29 304.186
L291.807 305.453
L293.325 305.496
L293.95 306.103
L294.218 306.32
L294.664 306.77
L295.2 307.175
L296.986 307.304
L297.253 307.593
L297.878 308.077
L298.593 308.657
L298.771 308.779
L300.557 308.923
L301.003 309.3
L301.271 309.617
L302.521 310.43
L304.217 310.593
L304.574 310.897
L305.11 311.296
L305.824 311.858
L307.699 311.978
L309.574 313.187
L311.27 313.313
L311.717 313.677
L311.985 313.903
L312.342 314.138
L312.967 314.612
L314.842 314.735
L315.377 315.03
L316.806 315.755
L318.502 315.951
L319.395 316.55
L320.466 317.123
L321.984 317.261
L324.037 318.355
L325.466 318.412
L325.912 318.773
L326.805 319.354
L327.341 319.626
L329.126 319.758
L329.573 320.088
L330.555 320.671
L331.18 320.839
L332.698 320.918
L334.126 321.832
L334.483 322.016
L335.376 322.049
L336.358 322.187
L337.787 322.979
L338.054 323.145
L339.84 323.289
L340.911 323.806
L341.179 324.007
L341.715 324.177
L343.411 324.259
L344.393 324.792
L344.84 325.038
L345.465 325.162
L347.072 325.307
L347.786 325.653
L349.214 326.184
L350.732 326.317
L352.071 326.889
L352.339 326.998
L354.303 327.201
L356.178 327.877
L357.785 327.981
L359.571 328.747
L361.356 328.854
L362.16 329.236
L362.696 329.555
L363.231 329.659
L365.017 329.803
L366.535 330.465
L368.41 330.566
L369.213 330.846
L370.463 331.195
L370.999 331.227
L372.338 331.419
L372.695 331.655
L374.213 332.1
L375.641 332.199
L377.159 332.764
L377.516 332.802
L379.212 332.893
L381.177 333.607
L382.962 333.771
L384.659 334.326
L386.355 334.429
L388.587 334.94
L390.194 335.101
L390.73 335.281
L391.622 335.503
L393.854 335.752
L395.372 336.212
L397.247 336.338
L398.051 336.622
L401.175 337.124
L402.157 337.427
L402.604 337.461
L405.014 337.738
L406.175 337.985
L407.961 338.11
L408.586 338.285
L409.568 338.543
L411.443 338.647
L412.068 338.827
L413.585 339.043
L415.014 339.15
L416.353 339.474
L416.889 339.513
L418.585 339.628
L420.638 340.138
L422.513 340.275
L424.477 340.572
L425.995 340.688
L426.977 340.955
L427.334 341.042
L430.013 341.334
L431.798 341.579
L433.048 341.687
L433.941 341.9
L435.37 342.042
L436.62 342.16
L438.584 342.492
L440.012 342.579
L440.726 342.764
L441.976 342.957
L443.762 343.064
L444.923 343.344
L445.458 343.387
L447.333 343.484
L448.583 343.761
L449.476 343.781
L450.815 343.877
L451.619 344.065
L452.601 344.199
L454.565 344.339
L455.904 344.583
L457.957 344.673
L459.475 344.964
L462.154 345.207
L463.671 345.393
L465.368 345.576
L467.064 345.83
L468.76 345.928
L470.546 346.173
L472.51 346.302
L473.939 346.545
L476.26 346.694
L477.956 346.93
L479.385 347.037
L481.706 347.296
L483.224 347.389
L484.027 347.542
L484.831 347.607
L486.706 347.719
L489.116 347.913
L490.277 348.018
L492.241 348.249
L494.027 348.382
L495.187 348.55
L497.419 348.669
L500.187 348.901
L501.08 349.006
L503.044 349.211
L504.651 349.309
L505.901 349.539
L508.311 349.679
L510.454 349.844
L511.883 349.948
L514.115 350.137
L515.364 350.244
L516.793 350.427
L518.311 350.435
L518.311 350.435" style="fill:none;stroke:#bf00bf;stroke-linecap:square;"/>
   </g>
   <g id="matplotlib.axis_1">
    <g id="xtick_1">
     <g id="line2d_6">
      <defs>
       <path d="
M0 0
L0 -4" id="mc7db9fdffb" style="stroke:#000000;stroke-width:0.5;"/>
      </defs>
      <g>
       <use style="stroke:#000000;stroke-width:0.5;" x="72.0" xlink:href="#mc7db9fdffb" y="388.8"/>
      </g>
     </g>
     <g id="line2d_7">
      <defs>
       <path d="
M0 0
L0 4" id="m5a7d422ac3" style="stroke:#000000;stroke-width:0.5;"/>
      </defs>
      <g>
       <use style="stroke:#000000;stroke-width:0.5;" x="72.0" xlink:href="#m5a7d422ac3" y="43.2"/>
      </g>
     </g>
     <g id="text_1">
      <!-- 0 -->
      <defs>
       <path d="
M56.9844 36.375
Q56.9844 16.7969 50.8594 7.64062
Q44.7344 -1.51562 31.8438 -1.51562
Q18.75 -1.51562 12.7188 7.76562
Q6.6875 17.0469 6.6875 36.2812
Q6.6875 55.6719 12.7812 64.9219
Q18.8906 74.1719 31.8438 74.1719
Q44.9219 74.1719 50.9531 64.7656
Q56.9844 55.375 56.9844 36.375
M44.1406 14.2031
Q45.8438 18.1719 46.4531 23.5156
Q47.0781 28.8594 47.0781 36.375
Q47.0781 43.7969 46.4531 49.2656
Q45.8438 54.7344 44.0938 58.5469
Q42.3906 62.3125 39.4219 64.2031
Q36.4688 66.1094 31.8438 66.1094
Q27.25 66.1094 24.2344 64.2031
Q21.2344 62.3125 19.4844 58.4531
Q17.8281 54.8281 17.2188 49.0156
Q16.6094 43.2188 16.6094 36.2812
Q16.6094 28.6562 17.1406 23.5312
Q17.6719 18.4062 19.4375 14.3594
Q21.0469 10.5469 24 8.54688
Q26.9531 6.54688 31.8438 6.54688
Q36.4219 6.54688 39.4531 8.45312
Q42.4844 10.3594 44.1406 14.2031" id="Verdana-30"/>
      </defs>
      <g transform="translate(68.9821875 401.918125)scale(0.12 -0.12)">
       <use xlink:href="#Verdana-30"/>
      </g>
     </g>
    </g>
    <g id="xtick_2">
     <g id="line2d_8">
      <g>
       <use style="stroke:#000000;stroke-width:0.5;" x="161.28" xlink:href="#mc7db9fdffb" y="388.8"/>
      </g>
     </g>
     <g id="line2d_9">
      <g>
       <use style="stroke:#000000;stroke-width:0.5;" x="161.28" xlink:href="#m5a7d422ac3" y="43.2"/>
      </g>
     </g>
     <g id="text_2">
      <!-- 1000 -->
      <defs>
       <path d="
M52.9375 0
L13.5781 0
L13.5781 7.42188
L28.7188 7.42188
L28.7188 56.1562
L13.5781 56.1562
L13.5781 62.7969
Q16.6562 62.7969 20.1719 63.2969
Q23.6875 63.8125 25.4844 64.7969
Q27.7344 66.0156 29.0312 67.8906
Q30.3281 69.7812 30.5156 72.9531
L38.0938 72.9531
L38.0938 7.42188
L52.9375 7.42188
z
" id="Verdana-31"/>
      </defs>
      <g transform="translate(147.2315625 401.918125)scale(0.12 -0.12)">
       <use xlink:href="#Verdana-31"/>
       <use x="63.57421875" xlink:href="#Verdana-30"/>
       <use x="127.1484375" xlink:href="#Verdana-30"/>
       <use x="190.72265625" xlink:href="#Verdana-30"/>
      </g>
     </g>
    </g>
    <g id="xtick_3">
     <g id="line2d_10">
      <g>
       <use style="stroke:#000000;stroke-width:0.5;" x="250.56" xlink:href="#mc7db9fdffb" y="388.8"/>
      </g>
     </g>
     <g id="line2d_11">
      <g>
       <use style="stroke:#000000;stroke-width:0.5;" x="250.56" xlink:href="#m5a7d422ac3" y="43.2"/>
      </g>
     </g>
     <g id="text_3">
      <!-- 2000 -->
      <defs>
       <path d="
M57.0781 0
L7.85938 0
L7.85938 10.2031
Q12.9844 14.5938 18.1406 18.9844
Q23.2969 23.3906 27.7344 27.7344
Q37.1094 36.8125 40.5781 42.1562
Q44.0469 47.5156 44.0469 53.7188
Q44.0469 59.375 40.3125 62.5625
Q36.5781 65.7656 29.8906 65.7656
Q25.4375 65.7656 20.2656 64.2031
Q15.0938 62.6406 10.1562 59.4219
L9.67188 59.4219
L9.67188 69.6719
Q13.1406 71.3906 18.9219 72.7969
Q24.7031 74.2188 30.125 74.2188
Q41.3125 74.2188 47.6562 68.8125
Q54 63.4219 54 54.2031
Q54 50.0469 52.9531 46.4531
Q51.9062 42.875 49.8594 39.6562
Q47.9531 36.625 45.3906 33.6875
Q42.8281 30.7656 39.1562 27.2031
Q33.9375 22.0781 28.3594 17.2656
Q22.7969 12.4531 17.9688 8.34375
L57.0781 8.34375
z
" id="Verdana-32"/>
      </defs>
      <g transform="translate(236.1684375 401.918125)scale(0.12 -0.12)">
       <use xlink:href="#Verdana-32"/>
       <use x="63.57421875" xlink:href="#Verdana-30"/>
       <use x="127.1484375" xlink:href="#Verdana-30"/>
       <use x="190.72265625" xlink:href="#Verdana-30"/>
      </g>
     </g>
    </g>
    <g id="xtick_4">
     <g id="line2d_12">
      <g>
       <use style="stroke:#000000;stroke-width:0.5;" x="339.84" xlink:href="#mc7db9fdffb" y="388.8"/>
      </g>
     </g>
     <g id="line2d_13">
      <g>
       <use style="stroke:#000000;stroke-width:0.5;" x="339.84" xlink:href="#m5a7d422ac3" y="43.2"/>
      </g>
     </g>
     <g id="text_4">
      <!-- 3000 -->
      <defs>
       <path d="
M50.6875 35.0156
Q53.0312 32.9062 54.5469 29.7344
Q56.0625 26.5625 56.0625 21.5312
Q56.0625 16.5469 54.25 12.3906
Q52.4375 8.25 49.1719 5.17188
Q45.5156 1.76562 40.5469 0.125
Q35.5938 -1.51562 29.6875 -1.51562
Q23.6406 -1.51562 17.7812 -0.0625
Q11.9219 1.375 8.15625 3.07812
L8.15625 13.2812
L8.89062 13.2812
Q13.0312 10.5469 18.6406 8.73438
Q24.2656 6.9375 29.5 6.9375
Q32.5625 6.9375 36.0312 7.95312
Q39.5 8.98438 41.6562 10.9844
Q43.8906 13.1406 44.9844 15.7188
Q46.0938 18.3125 46.0938 22.2656
Q46.0938 26.1719 44.8438 28.7344
Q43.6094 31.2969 41.4062 32.7656
Q39.2031 34.2812 36.0781 34.8438
Q32.9531 35.4062 29.3438 35.4062
L24.9531 35.4062
L24.9531 43.5
L28.375 43.5
Q35.7969 43.5 40.2031 46.5938
Q44.625 49.7031 44.625 55.6719
Q44.625 58.2969 43.5 60.2656
Q42.3906 62.25 40.375 63.5312
Q38.2812 64.7969 35.8906 65.2812
Q33.5 65.7656 30.4688 65.7656
Q25.8281 65.7656 20.5938 64.1094
Q15.375 62.4531 10.75 59.4219
L10.25 59.4219
L10.25 69.625
Q13.7188 71.3438 19.5 72.7812
Q25.2969 74.2188 30.7188 74.2188
Q36.0312 74.2188 40.0781 73.2344
Q44.1406 72.2656 47.4062 70.125
Q50.9219 67.7812 52.7344 64.4531
Q54.5469 61.1406 54.5469 56.6875
Q54.5469 50.6406 50.2656 46.125
Q46 41.6094 40.1875 40.4375
L40.1875 39.75
Q42.5312 39.3594 45.5469 38.1094
Q48.5781 36.8594 50.6875 35.0156" id="Verdana-33"/>
      </defs>
      <g transform="translate(325.46625 401.918125)scale(0.12 -0.12)">
       <use xlink:href="#Verdana-33"/>
       <use x="63.57421875" xlink:href="#Verdana-30"/>
       <use x="127.1484375" xlink:href="#Verdana-30"/>
       <use x="190.72265625" xlink:href="#Verdana-30"/>
      </g>
     </g>
    </g>
    <g id="xtick_5">
     <g id="line2d_14">
      <g>
       <use style="stroke:#000000;stroke-width:0.5;" x="429.12" xlink:href="#mc7db9fdffb" y="388.8"/>
      </g>
     </g>
     <g id="line2d_15">
      <g>
       <use style="stroke:#000000;stroke-width:0.5;" x="429.12" xlink:href="#m5a7d422ac3" y="43.2"/>
      </g>
     </g>
     <g id="text_5">
      <!-- 4000 -->
      <defs>
       <path d="
M58.7344 20.4531
L47.9531 20.4531
L47.9531 0
L38.5781 0
L38.5781 20.4531
L3.76562 20.4531
L3.76562 31.6875
L38.9688 72.7031
L47.9531 72.7031
L47.9531 28.2656
L58.7344 28.2656
z

M38.5781 28.2656
L38.5781 61.0781
L10.4062 28.2656
z
" id="Verdana-34"/>
      </defs>
      <g transform="translate(414.4828125 401.918125)scale(0.12 -0.12)">
       <use xlink:href="#Verdana-34"/>
       <use x="63.57421875" xlink:href="#Verdana-30"/>
       <use x="127.1484375" xlink:href="#Verdana-30"/>
       <use x="190.72265625" xlink:href="#Verdana-30"/>
      </g>
     </g>
    </g>
    <g id="xtick_6">
     <g id="line2d_16">
      <g>
       <use style="stroke:#000000;stroke-width:0.5;" x="518.4" xlink:href="#mc7db9fdffb" y="388.8"/>
      </g>
     </g>
     <g id="line2d_17">
      <g>
       <use style="stroke:#000000;stroke-width:0.5;" x="518.4" xlink:href="#m5a7d422ac3" y="43.2"/>
      </g>
     </g>
     <g id="text_6">
      <!-- 5000 -->
      <defs>
       <path d="
M56.5 23.0938
Q56.5 18.0156 54.6406 13.375
Q52.7812 8.73438 49.5625 5.5625
Q46.0469 2.15625 41.1875 0.3125
Q36.3281 -1.51562 29.9375 -1.51562
Q23.9688 -1.51562 18.4531 -0.265625
Q12.9375 0.984375 9.125 2.73438
L9.125 13.0312
L9.8125 13.0312
Q13.8125 10.5 19.1875 8.71875
Q24.5625 6.9375 29.7344 6.9375
Q33.2031 6.9375 36.4531 7.90625
Q39.7031 8.89062 42.2344 11.3281
Q44.3906 13.4219 45.4844 16.3438
Q46.5781 19.2812 46.5781 23.1406
Q46.5781 26.9062 45.2812 29.4844
Q44 32.0781 41.7031 33.6406
Q39.1562 35.5 35.5156 36.25
Q31.8906 37.0156 27.3906 37.0156
Q23.0938 37.0156 19.1094 36.4219
Q15.1406 35.8438 12.25 35.25
L12.25 72.7031
L56 72.7031
L56 64.1562
L21.6875 64.1562
L21.6875 44.8281
Q23.7812 45.0156 25.9688 45.1094
Q28.1719 45.2188 29.7812 45.2188
Q35.6875 45.2188 40.125 44.2188
Q44.5781 43.2188 48.2969 40.6719
Q52.2031 37.9844 54.3438 33.7344
Q56.5 29.5 56.5 23.0938" id="Verdana-35"/>
      </defs>
      <g transform="translate(504.084375 401.918125)scale(0.12 -0.12)">
       <use xlink:href="#Verdana-35"/>
       <use x="63.57421875" xlink:href="#Verdana-30"/>
       <use x="127.1484375" xlink:href="#Verdana-30"/>
       <use x="190.72265625" xlink:href="#Verdana-30"/>
      </g>
     </g>
    </g>
    <g id="text_7">
     <!-- Objective function exectuions -->
     <defs>
      <path d="
M57.0312 27.6875
Q57.0312 20.8438 55.0938 15.375
Q53.1719 9.90625 49.9062 6.20312
Q46.4375 2.34375 42.2812 0.40625
Q38.1406 -1.51562 33.1562 -1.51562
Q28.5156 -1.51562 25.0469 -0.40625
Q21.5781 0.6875 18.2188 2.54688
L17.625 0
L9.03125 0
L9.03125 75.9844
L18.2188 75.9844
L18.2188 48.8281
Q22.0781 52 26.4219 54.0312
Q30.7656 56.0625 36.1875 56.0625
Q45.8438 56.0625 51.4375 48.6406
Q57.0312 41.2188 57.0312 27.6875
M47.5625 27.4375
Q47.5625 37.2031 44.3281 42.25
Q41.1094 47.3125 33.9375 47.3125
Q29.9375 47.3125 25.8281 45.5781
Q21.7344 43.8438 18.2188 41.1094
L18.2188 9.85938
Q22.125 8.10938 24.9219 7.42188
Q27.7344 6.73438 31.2969 6.73438
Q38.9219 6.73438 43.2344 11.7344
Q47.5625 16.75 47.5625 27.4375" id="Verdana-62"/>
      <path d="
M56.2031 54.5469
L34.125 0
L24.9062 0
L2.98438 54.5469
L12.9375 54.5469
L29.8281 11.1406
L46.5781 54.5469
z
" id="Verdana-76"/>
      <path d="
M56.25 0
L44.6719 0
L29.2031 20.9531
L13.625 0
L2.9375 0
L24.2188 27.2031
L3.125 54.5469
L14.7031 54.5469
L30.0781 33.9375
L45.5156 54.5469
L56.25 54.5469
L34.8125 27.6875
z
" id="Verdana-78"/>
      <path d="
M54.6875 26.3125
L14.5 26.3125
Q14.5 21.2969 16.0156 17.5469
Q17.5312 13.8125 20.1719 11.4219
Q22.7031 9.07812 26.1875 7.90625
Q29.6875 6.73438 33.8906 6.73438
Q39.4531 6.73438 45.0938 8.95312
Q50.7344 11.1875 53.125 13.3281
L53.6094 13.3281
L53.6094 3.32812
Q48.9688 1.375 44.1406 0.046875
Q39.3125 -1.26562 33.9844 -1.26562
Q20.4062 -1.26562 12.7812 6.07812
Q5.17188 13.4219 5.17188 26.9531
Q5.17188 40.3281 12.4688 48.1875
Q19.7812 56.0625 31.6875 56.0625
Q42.7188 56.0625 48.7031 49.6094
Q54.6875 43.1719 54.6875 31.2969
z

M45.75 33.3438
Q45.7031 40.5781 42.1094 44.5312
Q38.5312 48.4844 31.2031 48.4844
Q23.8281 48.4844 19.4531 44.1406
Q15.0938 39.7969 14.5 33.3438
z
" id="Verdana-65"/>
      <path d="
M49.3594 3.42188
Q44.7812 1.21875 40.6562 0
Q36.5312 -1.21875 31.8906 -1.21875
Q25.9844 -1.21875 21.0469 0.515625
Q16.1094 2.25 12.5938 5.76562
Q9.03125 9.28125 7.07812 14.6406
Q5.125 20.0156 5.125 27.2031
Q5.125 40.5781 12.4688 48.1875
Q19.8281 55.8125 31.8906 55.8125
Q36.5781 55.8125 41.0938 54.4844
Q45.6094 53.1719 49.3594 51.2656
L49.3594 41.0625
L48.875 41.0625
Q44.6719 44.3438 40.2031 46.0938
Q35.75 47.8594 31.5 47.8594
Q23.6875 47.8594 19.1719 42.6094
Q14.6562 37.3594 14.6562 27.2031
Q14.6562 17.3281 19.0625 12.0312
Q23.4844 6.73438 31.5 6.73438
Q34.2812 6.73438 37.1562 7.46875
Q40.0469 8.20312 42.3281 9.375
Q44.3438 10.4062 46.0938 11.5469
Q47.8594 12.7031 48.875 13.5312
L49.3594 13.5312
z
" id="Verdana-63"/>
      <path d="
M26.0312 63.6719
L15.6719 63.6719
L15.6719 73.1875
L26.0312 73.1875
z

M25.4375 -1.3125
Q25.4375 -10.8906 20.5469 -15.7656
Q15.6719 -20.6562 7.46875 -20.6562
Q5.51562 -20.6562 2.3125 -20.2656
Q-0.875 -19.875 -3.03125 -19.2812
L-3.03125 -10.5469
L-2.54688 -10.5469
Q-1.17188 -11.0781 1.14062 -11.7656
Q3.46875 -12.4531 5.67188 -12.4531
Q9.1875 -12.4531 11.3281 -11.4688
Q13.4844 -10.5 14.5469 -8.54688
Q15.625 -6.59375 15.9375 -3.82812
Q16.2656 -1.07812 16.2656 2.875
L16.2656 46.8281
L4.89062 46.8281
L4.89062 54.5469
L25.4375 54.5469
z
" id="Verdana-6a"/>
      <path d="
M18.8906 63.6719
L8.54688 63.6719
L8.54688 73.1875
L18.8906 73.1875
z

M18.3125 0
L9.125 0
L9.125 54.5469
L18.3125 54.5469
z
" id="Verdana-69"/>
      <path d="
M54.6406 0
L45.4531 0
L45.4531 31.0625
Q45.4531 34.8125 45.0156 38.1094
Q44.5781 41.4062 43.4062 43.2656
Q42.1875 45.3125 39.8906 46.3125
Q37.5938 47.3125 33.9375 47.3125
Q30.1719 47.3125 26.0625 45.4531
Q21.9688 43.6094 18.2188 40.7188
L18.2188 0
L9.03125 0
L9.03125 54.5469
L18.2188 54.5469
L18.2188 48.4844
Q22.5156 52.0469 27.0938 54.0469
Q31.6875 56.0625 36.5312 56.0625
Q45.3594 56.0625 50 50.7344
Q54.6406 45.4062 54.6406 35.4062
z
" id="Verdana-6e"/>
      <path d="
M48 15.7188
Q48 8.25 41.8125 3.46875
Q35.6406 -1.3125 24.9531 -1.3125
Q18.8906 -1.3125 13.8438 0.125
Q8.79688 1.5625 5.375 3.26562
L5.375 13.5781
L5.85938 13.5781
Q10.2031 10.2969 15.5156 8.375
Q20.8438 6.45312 25.7344 6.45312
Q31.7812 6.45312 35.2031 8.40625
Q38.625 10.3594 38.625 14.5469
Q38.625 17.7812 36.7656 19.4375
Q34.9062 21.0938 29.6406 22.2656
Q27.6875 22.7031 24.5312 23.2812
Q21.3906 23.875 18.7969 24.5625
Q11.625 26.4688 8.60938 30.1562
Q5.60938 33.8438 5.60938 39.2031
Q5.60938 42.5781 7 45.5469
Q8.40625 48.5312 11.2344 50.875
Q13.9688 53.1719 18.1875 54.5156
Q22.4062 55.8594 27.6406 55.8594
Q32.5156 55.8594 37.5156 54.6562
Q42.5312 53.4688 45.8438 51.7656
L45.8438 41.9375
L45.3594 41.9375
Q41.8438 44.5312 36.8125 46.3125
Q31.7812 48.0938 26.9531 48.0938
Q21.9219 48.0938 18.4531 46.1562
Q14.9844 44.2344 14.9844 40.4375
Q14.9844 37.0625 17.0938 35.3594
Q19.1406 33.6406 23.7344 32.5625
Q26.2656 31.9844 29.4062 31.3906
Q32.5625 30.8125 34.6719 30.3281
Q41.0625 28.8594 44.5312 25.2969
Q48 21.6875 48 15.7188" id="Verdana-73"/>
      <path d="
M38.375 67.0938
L37.8906 67.0938
Q36.375 67.5312 33.9375 67.9844
Q31.5 68.4531 29.6406 68.4531
Q23.7344 68.4531 21.0625 65.8438
Q18.4062 63.2344 18.4062 56.3906
L18.4062 54.5469
L34.9688 54.5469
L34.9688 46.8281
L18.7031 46.8281
L18.7031 0
L9.51562 0
L9.51562 46.8281
L3.32812 46.8281
L3.32812 54.5469
L9.51562 54.5469
L9.51562 56.3438
Q9.51562 66.0625 14.3438 71.2656
Q19.1875 76.4688 28.3281 76.4688
Q31.3906 76.4688 33.8594 76.1719
Q36.3281 75.875 38.375 75.4844
z
" id="Verdana-66"/>
      <path id="Verdana-20"/>
      <path d="
M63.9688 64.3594
Q68.4062 59.4688 70.7656 52.3906
Q73.1406 45.3125 73.1406 36.3281
Q73.1406 27.3438 70.7188 20.2344
Q68.3125 13.1406 63.9688 8.40625
Q59.4688 3.46875 53.3438 0.96875
Q47.2188 -1.51562 39.3594 -1.51562
Q31.6875 -1.51562 25.4062 1.01562
Q19.1406 3.5625 14.75 8.40625
Q10.3594 13.2344 7.98438 20.2656
Q5.60938 27.2969 5.60938 36.3281
Q5.60938 45.2188 7.95312 52.2656
Q10.2969 59.3281 14.7969 64.3594
Q19.0938 69.1406 25.4688 71.6719
Q31.8438 74.2188 39.3594 74.2188
Q47.1719 74.2188 53.3906 71.6562
Q59.625 69.0938 63.9688 64.3594
M63.0938 36.3281
Q63.0938 50.4844 56.7344 58.1719
Q50.3906 65.875 39.4062 65.875
Q28.3281 65.875 22 58.1719
Q15.6719 50.4844 15.6719 36.3281
Q15.6719 22.0156 22.1094 14.4219
Q28.5625 6.84375 39.4062 6.84375
Q50.25 6.84375 56.6719 14.4219
Q63.0938 22.0156 63.0938 36.3281" id="Verdana-4f"/>
      <path d="
M55.5156 27.25
Q55.5156 13.9219 48.6719 6.20312
Q41.8438 -1.51562 30.375 -1.51562
Q18.7969 -1.51562 11.9844 6.20312
Q5.17188 13.9219 5.17188 27.25
Q5.17188 40.5781 11.9844 48.3125
Q18.7969 56.0625 30.375 56.0625
Q41.8438 56.0625 48.6719 48.3125
Q55.5156 40.5781 55.5156 27.25
M46.0469 27.25
Q46.0469 37.8438 41.8906 42.9844
Q37.75 48.1406 30.375 48.1406
Q22.9062 48.1406 18.7812 42.9844
Q14.6562 37.8438 14.6562 27.25
Q14.6562 17 18.7969 11.6875
Q22.9531 6.39062 30.375 6.39062
Q37.7031 6.39062 41.875 11.6406
Q46.0469 16.8906 46.0469 27.25" id="Verdana-6f"/>
      <path d="
M37.3594 0.484375
Q34.7656 -0.203125 31.7031 -0.640625
Q28.6562 -1.07812 26.2656 -1.07812
Q17.9219 -1.07812 13.5781 3.40625
Q9.23438 7.90625 9.23438 17.8281
L9.23438 46.8281
L3.03125 46.8281
L3.03125 54.5469
L9.23438 54.5469
L9.23438 70.2188
L18.4062 70.2188
L18.4062 54.5469
L37.3594 54.5469
L37.3594 46.8281
L18.4062 46.8281
L18.4062 21.9688
Q18.4062 17.6719 18.5938 15.25
Q18.7969 12.8438 19.9688 10.75
Q21.0469 8.79688 22.9219 7.89062
Q24.8125 6.98438 28.6562 6.98438
Q30.9062 6.98438 33.3438 7.64062
Q35.7969 8.29688 36.8594 8.73438
L37.3594 8.73438
z
" id="Verdana-74"/>
      <path d="
M54.25 0
L45.0625 0
L45.0625 6.0625
Q40.4375 2.39062 36.1875 0.4375
Q31.9375 -1.51562 26.8125 -1.51562
Q18.2188 -1.51562 13.4219 3.73438
Q8.64062 8.98438 8.64062 19.1406
L8.64062 54.5469
L17.8281 54.5469
L17.8281 23.4844
Q17.8281 19.3438 18.2188 16.375
Q18.6094 13.4219 19.875 11.3281
Q21.1875 9.1875 23.2812 8.20312
Q25.3906 7.23438 29.3906 7.23438
Q32.9531 7.23438 37.1719 9.07812
Q41.4062 10.9375 45.0625 13.8125
L45.0625 54.5469
L54.25 54.5469
z
" id="Verdana-75"/>
     </defs>
     <g transform="translate(206.5078125 418.509375)scale(0.12 -0.12)">
      <use xlink:href="#Verdana-4f"/>
      <use x="78.7109375" xlink:href="#Verdana-62"/>
      <use x="141.015625" xlink:href="#Verdana-6a"/>
      <use x="175.439453125" xlink:href="#Verdana-65"/>
      <use x="235.009765625" xlink:href="#Verdana-63"/>
      <use x="287.109375" xlink:href="#Verdana-74"/>
      <use x="326.513671875" xlink:href="#Verdana-69"/>
      <use x="353.955078125" xlink:href="#Verdana-76"/>
      <use x="412.259765625" xlink:href="#Verdana-65"/>
      <use x="471.830078125" xlink:href="#Verdana-20"/>
      <use x="506.986328125" xlink:href="#Verdana-66"/>
      <use x="542.142578125" xlink:href="#Verdana-75"/>
      <use x="605.423828125" xlink:href="#Verdana-6e"/>
      <use x="668.705078125" xlink:href="#Verdana-63"/>
      <use x="720.8046875" xlink:href="#Verdana-74"/>
      <use x="760.208984375" xlink:href="#Verdana-69"/>
      <use x="787.650390625" xlink:href="#Verdana-6f"/>
      <use x="848.34375" xlink:href="#Verdana-6e"/>
      <use x="911.625" xlink:href="#Verdana-20"/>
      <use x="946.78125" xlink:href="#Verdana-65"/>
      <use x="1006.3515625" xlink:href="#Verdana-78"/>
      <use x="1064.40625" xlink:href="#Verdana-65"/>
      <use x="1123.9765625" xlink:href="#Verdana-63"/>
      <use x="1176.076171875" xlink:href="#Verdana-74"/>
      <use x="1215.48046875" xlink:href="#Verdana-75"/>
      <use x="1278.76171875" xlink:href="#Verdana-69"/>
      <use x="1306.203125" xlink:href="#Verdana-6f"/>
      <use x="1366.896484375" xlink:href="#Verdana-6e"/>
      <use x="1430.177734375" xlink:href="#Verdana-73"/>
     </g>
    </g>
   </g>
   <g id="matplotlib.axis_2">
    <g id="ytick_1">
     <g id="line2d_18">
      <defs>
       <path d="
M0 0
L4 0" id="md7965d1ba0" style="stroke:#000000;stroke-width:0.5;"/>
      </defs>
      <g>
       <use style="stroke:#000000;stroke-width:0.5;" x="72.0" xlink:href="#md7965d1ba0" y="388.8"/>
      </g>
     </g>
     <g id="line2d_19">
      <defs>
       <path d="
M0 0
L-4 0" id="md9a1c1a7cd" style="stroke:#000000;stroke-width:0.5;"/>
      </defs>
      <g>
       <use style="stroke:#000000;stroke-width:0.5;" x="518.4" xlink:href="#md9a1c1a7cd" y="388.8"/>
      </g>
     </g>
     <g id="text_8">
      <!-- 0 -->
      <g transform="translate(61.964375 392.1515625)scale(0.12 -0.12)">
       <use xlink:href="#Verdana-30"/>
      </g>
     </g>
    </g>
    <g id="ytick_2">
     <g id="line2d_20">
      <g>
       <use style="stroke:#000000;stroke-width:0.5;" x="72.0" xlink:href="#md7965d1ba0" y="319.68"/>
      </g>
     </g>
     <g id="line2d_21">
      <g>
       <use style="stroke:#000000;stroke-width:0.5;" x="518.4" xlink:href="#md9a1c1a7cd" y="319.68"/>
      </g>
     </g>
     <g id="text_9">
      <!-- 5 -->
      <g transform="translate(62.315 323.0315625)scale(0.12 -0.12)">
       <use xlink:href="#Verdana-35"/>
      </g>
     </g>
    </g>
    <g id="ytick_3">
     <g id="line2d_22">
      <g>
       <use style="stroke:#000000;stroke-width:0.5;" x="72.0" xlink:href="#md7965d1ba0" y="250.56"/>
      </g>
     </g>
     <g id="line2d_23">
      <g>
       <use style="stroke:#000000;stroke-width:0.5;" x="518.4" xlink:href="#md9a1c1a7cd" y="250.56"/>
      </g>
     </g>
     <g id="text_10">
      <!-- 10 -->
      <g transform="translate(55.161875 253.9115625)scale(0.12 -0.12)">
       <use xlink:href="#Verdana-31"/>
       <use x="63.57421875" xlink:href="#Verdana-30"/>
      </g>
     </g>
    </g>
    <g id="ytick_4">
     <g id="line2d_24">
      <g>
       <use style="stroke:#000000;stroke-width:0.5;" x="72.0" xlink:href="#md7965d1ba0" y="181.44"/>
      </g>
     </g>
     <g id="line2d_25">
      <g>
       <use style="stroke:#000000;stroke-width:0.5;" x="518.4" xlink:href="#md9a1c1a7cd" y="181.44"/>
      </g>
     </g>
     <g id="text_11">
      <!-- 15 -->
      <g transform="translate(55.22 184.7915625)scale(0.12 -0.12)">
       <use xlink:href="#Verdana-31"/>
       <use x="63.57421875" xlink:href="#Verdana-35"/>
      </g>
     </g>
    </g>
    <g id="ytick_5">
     <g id="line2d_26">
      <g>
       <use style="stroke:#000000;stroke-width:0.5;" x="72.0" xlink:href="#md7965d1ba0" y="112.32"/>
      </g>
     </g>
     <g id="line2d_27">
      <g>
       <use style="stroke:#000000;stroke-width:0.5;" x="518.4" xlink:href="#md9a1c1a7cd" y="112.32"/>
      </g>
     </g>
     <g id="text_12">
      <!-- 20 -->
      <g transform="translate(54.475625 115.6715625)scale(0.12 -0.12)">
       <use xlink:href="#Verdana-32"/>
       <use x="63.57421875" xlink:href="#Verdana-30"/>
      </g>
     </g>
    </g>
    <g id="ytick_6">
     <g id="line2d_28">
      <g>
       <use style="stroke:#000000;stroke-width:0.5;" x="72.0" xlink:href="#md7965d1ba0" y="43.2"/>
      </g>
     </g>
     <g id="line2d_29">
      <g>
       <use style="stroke:#000000;stroke-width:0.5;" x="518.4" xlink:href="#md9a1c1a7cd" y="43.2"/>
      </g>
     </g>
     <g id="text_13">
      <!-- 25 -->
      <g transform="translate(54.53375 46.5515625)scale(0.12 -0.12)">
       <use xlink:href="#Verdana-32"/>
       <use x="63.57421875" xlink:href="#Verdana-35"/>
      </g>
     </g>
    </g>
    <g id="text_14">
     <!-- Mean -->
     <defs>
      <path d="
M51.4219 0
L42.2812 0
L42.2812 5.8125
Q41.0625 4.98438 38.9844 3.48438
Q36.9219 2 34.9688 1.125
Q32.6719 0 29.6875 -0.75
Q26.7031 -1.51562 22.7031 -1.51562
Q15.3281 -1.51562 10.2031 3.35938
Q5.07812 8.25 5.07812 15.8281
Q5.07812 22.0156 7.73438 25.8438
Q10.4062 29.6875 15.3281 31.8906
Q20.3125 34.0781 27.2969 34.8594
Q34.2812 35.6406 42.2812 36.0312
L42.2812 37.4531
Q42.2812 40.5781 41.1875 42.625
Q40.0938 44.6719 38.0312 45.8438
Q36.0781 46.9688 33.3438 47.3594
Q30.6094 47.75 27.6406 47.75
Q24.0312 47.75 19.5781 46.7969
Q15.1406 45.8438 10.4062 44.0469
L9.90625 44.0469
L9.90625 53.375
Q12.5938 54.1094 17.6719 54.9844
Q22.75 55.8594 27.6875 55.8594
Q33.4531 55.8594 37.7188 54.9062
Q42 53.9531 45.125 51.6562
Q48.1875 49.4219 49.7969 45.8438
Q51.4219 42.2812 51.4219 37.0156
z

M42.2812 13.4219
L42.2812 28.6094
Q38.0938 28.375 32.3906 27.875
Q26.7031 27.3906 23.3906 26.4688
Q19.4375 25.3438 16.9844 22.9688
Q14.5469 20.6094 14.5469 16.4531
Q14.5469 11.7656 17.375 9.39062
Q20.2188 7.03125 26.0312 7.03125
Q30.8594 7.03125 34.8594 8.90625
Q38.875 10.7969 42.2812 13.4219" id="Verdana-61"/>
      <path d="
M74.5156 0
L64.8438 0
L64.8438 62.6406
L44.625 20.0156
L38.875 20.0156
L18.7969 62.6406
L18.7969 0
L9.76562 0
L9.76562 72.7031
L22.9531 72.7031
L42.3281 32.2344
L61.0781 72.7031
L74.5156 72.7031
z
" id="Verdana-4d"/>
     </defs>
     <g transform="translate(47.060625 230.9278125)rotate(-90.0)scale(0.12 -0.12)">
      <use xlink:href="#Verdana-4d"/>
      <use x="84.27734375" xlink:href="#Verdana-65"/>
      <use x="143.84765625" xlink:href="#Verdana-61"/>
      <use x="203.90625" xlink:href="#Verdana-6e"/>
     </g>
    </g>
   </g>
   <g id="patch_3">
    <path d="
M72 43.2
L518.4 43.2" style="fill:none;stroke:#000000;"/>
   </g>
   <g id="patch_4">
    <path d="
M72 388.8
L72 43.2" style="fill:none;stroke:#000000;"/>
   </g>
   <g id="patch_5">
    <path d="
M518.4 388.8
L518.4 43.2" style="fill:none;stroke:#000000;"/>
   </g>
   <g id="patch_6">
    <path d="
M72 388.8
L518.4 388.8" style="fill:none;stroke:#000000;"/>
   </g>
   <g id="text_15">
    <!-- Ackley Mean -->
    <defs>
     <path d="
M58.5469 0
L46.4375 0
L24.5625 23.875
L18.6094 18.2188
L18.6094 0
L9.42188 0
L9.42188 75.9844
L18.6094 75.9844
L18.6094 27.25
L45.125 54.5469
L56.6875 54.5469
L31.3438 29.3438
z
" id="Verdana-6b"/>
     <path d="
M18.3125 0
L9.125 0
L9.125 75.9844
L18.3125 75.9844
z
" id="Verdana-6c"/>
     <path d="
M56.2031 54.5469
L24.3594 -20.125
L14.5469 -20.125
L24.7031 2.64062
L2.98438 54.5469
L12.9375 54.5469
L29.6875 14.1094
L46.5781 54.5469
z
" id="Verdana-79"/>
     <path d="
M67.0938 0
L56.7812 0
L49.6562 20.2656
L18.2188 20.2656
L11.0781 0
L1.26562 0
L27.7344 72.7031
L40.625 72.7031
z

M46.6875 28.5625
L33.9375 64.2656
L21.1406 28.5625
z
" id="Verdana-41"/>
    </defs>
    <g transform="translate(250.5915 38.2)scale(0.144 -0.144)">
     <use xlink:href="#Verdana-41"/>
     <use x="68.359375" xlink:href="#Verdana-63"/>
     <use x="120.458984375" xlink:href="#Verdana-6b"/>
     <use x="179.638671875" xlink:href="#Verdana-6c"/>
     <use x="207.080078125" xlink:href="#Verdana-65"/>
     <use x="266.650390625" xlink:href="#Verdana-79"/>
     <use x="325.830078125" xlink:href="#Verdana-20"/>
     <use x="360.986328125" xlink:href="#Verdana-4d"/>
     <use x="445.263671875" xlink:href="#Verdana-65"/>
     <use x="504.833984375" xlink:href="#Verdana-61"/>
     <use x="564.892578125" xlink:href="#Verdana-6e"/>
    </g>
   </g>
   <g id="legend_1">
    <g id="patch_7">
     <path d="
M79.2 381.6
L183.22 381.6
L183.22 272.081
L79.2 272.081
L79.2 381.6
z
" style="fill:#ffffff;stroke:#000000;"/>
    </g>
    <g id="line2d_30">
     <path d="
M89.28 283.743
L109.44 283.743" style="fill:none;stroke:#0000ff;stroke-dasharray:6.000000,2.000000;stroke-dashoffset:0.0;"/>
    </g>
    <g id="line2d_31"/>
    <g id="text_16">
     <!-- AMPGO -->
     <defs>
      <path d="
M57.3281 50.7344
Q57.3281 45.9062 55.6406 41.7656
Q53.9531 37.6406 50.9219 34.625
Q47.1719 30.8594 42.0469 28.9688
Q36.9219 27.0938 29.1094 27.0938
L19.4375 27.0938
L19.4375 0
L9.76562 0
L9.76562 72.7031
L29.5 72.7031
Q36.0312 72.7031 40.5781 71.6094
Q45.125 70.5156 48.6406 68.1719
Q52.7812 65.375 55.0469 61.2188
Q57.3281 57.0781 57.3281 50.7344
M47.2656 50.4844
Q47.2656 54.25 45.9375 57.0312
Q44.625 59.8125 41.9375 61.5781
Q39.5938 63.0938 36.5938 63.75
Q33.5938 64.4062 29 64.4062
L19.4375 64.4062
L19.4375 35.3594
L27.5938 35.3594
Q33.4531 35.3594 37.1094 36.4062
Q40.7656 37.4531 43.0625 39.75
Q45.3594 42.0938 46.3125 44.6719
Q47.2656 47.2656 47.2656 50.4844" id="Verdana-50"/>
      <path d="
M70.4062 5.375
Q64.4531 2.64062 57.3906 0.609375
Q50.3438 -1.42188 43.75 -1.42188
Q35.25 -1.42188 28.1719 0.921875
Q21.0938 3.26562 16.1094 7.95312
Q11.0781 12.7031 8.34375 19.7969
Q5.60938 26.9062 5.60938 36.4219
Q5.60938 53.8594 15.7969 63.9375
Q25.9844 74.0312 43.75 74.0312
Q49.9531 74.0312 56.4219 72.5312
Q62.8906 71.0469 70.3594 67.4844
L70.3594 56
L69.4844 56
Q67.9688 57.1719 65.0781 59.0781
Q62.2031 60.9844 59.4219 62.25
Q56.0625 63.7656 51.7812 64.7656
Q47.5156 65.7656 42.0938 65.7656
Q29.8906 65.7656 22.7812 57.9219
Q15.6719 50.0938 15.6719 36.7188
Q15.6719 22.6094 23.0938 14.7656
Q30.5156 6.9375 43.3125 6.9375
Q48 6.9375 52.6562 7.85938
Q57.3281 8.79688 60.8438 10.25
L60.8438 28.0781
L41.3594 28.0781
L41.3594 36.5781
L70.4062 36.5781
z
" id="Verdana-47"/>
     </defs>
     <g transform="translate(125.28 288.783)scale(0.144 -0.144)">
      <use xlink:href="#Verdana-41"/>
      <use x="68.359375" xlink:href="#Verdana-4d"/>
      <use x="152.63671875" xlink:href="#Verdana-50"/>
      <use x="212.939453125" xlink:href="#Verdana-47"/>
      <use x="290.478515625" xlink:href="#Verdana-4f"/>
     </g>
    </g>
    <g id="line2d_32">
     <path d="
M89.28 304.783
L109.44 304.783" style="fill:none;stroke:#008000;stroke-dasharray:1.000000,1.000000;stroke-dashoffset:0.0;"/>
    </g>
    <g id="line2d_33"/>
    <g id="text_17">
     <!-- Anneal -->
     <g transform="translate(125.28 309.82275)scale(0.144 -0.144)">
      <use xlink:href="#Verdana-41"/>
      <use x="68.359375" xlink:href="#Verdana-6e"/>
      <use x="131.640625" xlink:href="#Verdana-6e"/>
      <use x="194.921875" xlink:href="#Verdana-65"/>
      <use x="254.4921875" xlink:href="#Verdana-61"/>
      <use x="314.55078125" xlink:href="#Verdana-6c"/>
     </g>
    </g>
    <g id="line2d_34">
     <path d="
M89.28 325.822
L109.44 325.822" style="fill:none;stroke:#ff0000;stroke-dasharray:3.000000,6.000000;stroke-dashoffset:0.0;"/>
    </g>
    <g id="line2d_35"/>
    <g id="text_18">
     <!-- BSA -->
     <defs>
      <path d="
M64.5938 22.3594
Q64.5938 16.9375 62.5469 12.7812
Q60.5 8.64062 57.0312 5.95312
Q52.9375 2.73438 48.0156 1.35938
Q43.1094 0 35.5469 0
L9.76562 0
L9.76562 72.7031
L31.2969 72.7031
Q39.2656 72.7031 43.2188 72.1094
Q47.1719 71.5312 50.7812 69.6719
Q54.7812 67.5781 56.5938 64.2812
Q58.4062 60.9844 58.4062 56.3906
Q58.4062 51.2188 55.7656 47.5781
Q53.125 43.9531 48.7344 41.75
L48.7344 41.3594
Q56.1094 39.8438 60.3438 34.8906
Q64.5938 29.9375 64.5938 22.3594
M48.3438 55.125
Q48.3438 57.7656 47.4531 59.5625
Q46.5781 61.375 44.625 62.5
Q42.3281 63.8125 39.0625 64.125
Q35.7969 64.4531 30.9531 64.4531
L19.4375 64.4531
L19.4375 43.4531
L31.9375 43.4531
Q36.4688 43.4531 39.1562 43.9219
Q41.8438 44.3906 44.1406 45.8438
Q46.4375 47.3125 47.3906 49.625
Q48.3438 51.9531 48.3438 55.125
M54.5469 21.9688
Q54.5469 26.375 53.2188 28.9531
Q51.9062 31.5469 48.4375 33.3438
Q46.0938 34.5781 42.75 34.9375
Q39.4062 35.2969 34.625 35.2969
L19.4375 35.2969
L19.4375 8.25
L32.2344 8.25
Q38.5781 8.25 42.625 8.90625
Q46.6875 9.57812 49.2656 11.3281
Q52 13.2344 53.2656 15.6719
Q54.5469 18.1094 54.5469 21.9688" id="Verdana-42"/>
      <path d="
M62.5938 20.75
Q62.5938 16.5 60.6094 12.3438
Q58.6406 8.20312 55.0781 5.32812
Q51.1719 2.20312 45.9688 0.4375
Q40.7656 -1.3125 33.4531 -1.3125
Q25.5938 -1.3125 19.3125 0.140625
Q13.0312 1.60938 6.54688 4.5
L6.54688 16.6094
L7.23438 16.6094
Q12.75 12.0156 19.9688 9.51562
Q27.2031 7.03125 33.5469 7.03125
Q42.5312 7.03125 47.5312 10.3906
Q52.5469 13.7656 52.5469 19.3906
Q52.5469 24.2188 50.1719 26.5156
Q47.7969 28.8125 42.9688 30.0781
Q39.3125 31.0625 35.0312 31.6875
Q30.7656 32.3281 25.9844 33.2969
Q16.3125 35.3594 11.6406 40.3125
Q6.98438 45.2656 6.98438 53.2188
Q6.98438 62.3594 14.6875 68.1875
Q22.4062 74.0312 34.2812 74.0312
Q41.9375 74.0312 48.3281 72.5625
Q54.7344 71.0938 59.6719 68.9531
L59.6719 57.5156
L58.9844 57.5156
Q54.8281 61.0312 48.0625 63.3438
Q41.3125 65.6719 34.2344 65.6719
Q26.4688 65.6719 21.75 62.4531
Q17.0469 59.2344 17.0469 54.1562
Q17.0469 49.6094 19.3906 47.0156
Q21.7344 44.4375 27.6406 43.0625
Q30.7656 42.3906 36.5156 41.4062
Q42.2812 40.4375 46.2969 39.4062
Q54.3906 37.25 58.4844 32.9062
Q62.5938 28.5625 62.5938 20.75" id="Verdana-53"/>
     </defs>
     <g transform="translate(125.28 330.8625)scale(0.144 -0.144)">
      <use xlink:href="#Verdana-42"/>
      <use x="68.5546875" xlink:href="#Verdana-53"/>
      <use x="135.9140625" xlink:href="#Verdana-41"/>
     </g>
    </g>
    <g id="line2d_36">
     <path d="
M89.28 346.862
L109.44 346.862" style="fill:none;stroke:#00bfbf;stroke-dasharray:5.000000,1.000000,2.000000,1.000000,5.000000,1.000000;stroke-dashoffset:0.0;"/>
    </g>
    <g id="line2d_37"/>
    <g id="text_19">
     <!-- Cuckoo -->
     <defs>
      <path d="
M65.9219 5.28125
Q63.2344 4.10938 61.0625 3.07812
Q58.8906 2.04688 55.375 0.921875
Q52.3906 0 48.8906 -0.65625
Q45.4062 -1.3125 41.2188 -1.3125
Q33.2969 -1.3125 26.8281 0.90625
Q20.3594 3.125 15.5781 7.85938
Q10.8906 12.5 8.25 19.6562
Q5.60938 26.8125 5.60938 36.2812
Q5.60938 45.2656 8.14062 52.3438
Q10.6875 59.4219 15.4844 64.3125
Q20.125 69.0469 26.6875 71.5312
Q33.25 74.0312 41.2656 74.0312
Q47.125 74.0312 52.9531 72.6094
Q58.7969 71.1875 65.9219 67.625
L65.9219 56.1562
L65.1875 56.1562
Q59.1875 61.1875 53.2656 63.4688
Q47.3594 65.7656 40.625 65.7656
Q35.1094 65.7656 30.6875 63.9844
Q26.2656 62.2031 22.7969 58.4531
Q19.4375 54.7812 17.5469 49.1875
Q15.6719 43.6094 15.6719 36.2812
Q15.6719 28.6094 17.75 23.0938
Q19.8281 17.5781 23.0938 14.1094
Q26.5156 10.5 31.0781 8.76562
Q35.6406 7.03125 40.7188 7.03125
Q47.7031 7.03125 53.7969 9.42188
Q59.9062 11.8125 65.2344 16.6094
L65.9219 16.6094
z
" id="Verdana-43"/>
     </defs>
     <g transform="translate(125.28 351.90225)scale(0.144 -0.144)">
      <use xlink:href="#Verdana-43"/>
      <use x="69.82421875" xlink:href="#Verdana-75"/>
      <use x="133.10546875" xlink:href="#Verdana-63"/>
      <use x="185.205078125" xlink:href="#Verdana-6b"/>
      <use x="243.384765625" xlink:href="#Verdana-6f"/>
      <use x="304.078125" xlink:href="#Verdana-6f"/>
     </g>
    </g>
    <g id="line2d_38">
     <path d="
M89.28 367.902
L109.44 367.902" style="fill:none;stroke:#bf00bf;stroke-linecap:square;"/>
    </g>
    <g id="line2d_39"/>
    <g id="text_20">
     <!-- qABC -->
     <defs>
      <path d="
M53.2656 -20.125
L44.0938 -20.125
L44.0938 6.15625
Q39.8438 2.48438 35.6406 0.703125
Q31.4531 -1.07812 26.5625 -1.07812
Q16.8438 -1.07812 11.0625 6.42188
Q5.28125 13.9219 5.28125 27.0938
Q5.28125 34.125 7.29688 39.5156
Q9.32812 44.9219 12.6406 48.5781
Q15.875 52.1562 20.2188 54.1094
Q24.5625 56.0625 29.3906 56.0625
Q33.7969 56.0625 37.1875 55.0781
Q40.5781 54.1094 44.0938 52.2031
L44.6719 54.5469
L53.2656 54.5469
z

M44.0938 13.875
L44.0938 44.7344
Q40.2812 46.4375 37.3438 47.1094
Q34.4219 47.7969 31 47.7969
Q23.0469 47.7969 18.8906 42.4062
Q14.75 37.0156 14.75 27.5469
Q14.75 17.9688 18.0938 12.8125
Q21.4375 7.67188 28.6094 7.67188
Q32.625 7.67188 36.625 9.40625
Q40.625 11.1406 44.0938 13.875" id="Verdana-71"/>
     </defs>
     <g transform="translate(125.28 372.942)scale(0.144 -0.144)">
      <use xlink:href="#Verdana-71"/>
      <use x="62.3046875" xlink:href="#Verdana-41"/>
      <use x="130.6640625" xlink:href="#Verdana-42"/>
      <use x="199.21875" xlink:href="#Verdana-43"/>
     </g>
    </g>
   </g>
  </g>
 </g>
 <defs>
  <clipPath id="p7ff5b81e1d">
   <rect height="345.6" width="446.4" x="72.0" y="43.2"/>
  </clipPath>
 </defs>
</svg>
