<?xml version="1.0" encoding="utf-8" standalone="no"?>
<!DOCTYPE svg PUBLIC "-//W3C//DTD SVG 1.1//EN"
  "http://www.w3.org/Graphics/SVG/1.1/DTD/svg11.dtd">
<!-- Created with matplotlib (http://matplotlib.org/) -->
<svg height="432pt" version="1.1" viewBox="0 0 576 432" width="576pt" xmlns="http://www.w3.org/2000/svg" xmlns:xlink="http://www.w3.org/1999/xlink">
 <defs>
  <style type="text/css">
*{stroke-linecap:butt;stroke-linejoin:round;}
  </style>
 </defs>
 <g id="figure_1">
  <g id="patch_1">
   <path d="
M0 432
L576 432
L576 0
L0 0
z
" style="fill:#ffffff;"/>
  </g>
  <g id="axes_1">
   <g id="patch_2">
    <path d="
M72 388.8
L518.4 388.8
L518.4 43.2
L72 43.2
z
" style="fill:#ffffff;"/>
   </g>
   <g id="line2d_1">
    <path clip-path="url(#p7ff5b81e1d)" d="
M72 388.11
L72.0893 388.8
L72.1786 388.8
L73.0714 388.8
L73.2499 383.971
L73.4285 383.971
L73.607 367.416
L73.7856 366.036
L73.9642 316.369
L74.1427 313.61
L74.3213 260.493
L74.4998 259.804
L74.6784 231.521
L74.857 230.141
L75.0355 211.516
L75.2141 211.516
L75.3926 194.96
L75.5712 194.96
L75.7498 181.854
L75.9283 181.854
L76.1069 164.608
L76.2854 164.608
L76.464 149.432
L76.6426 149.432
L76.8211 134.256
L76.9997 134.256
L77.1782 128.048
L77.3568 128.048
L77.5354 124.599
L77.7139 124.599
L77.8925 119.08
L78.071 119.08
L78.2496 118.39
L78.4282 118.39
L78.6067 117.011
L79.1424 117.011
L79.321 115.631
L261.184 115.631
L261.363 114.941
L291.004 114.941
L291.182 114.251
L306.896 114.251
L307.074 113.562
L319.752 113.562
L319.931 112.872
L321.895 112.872
L322.073 112.182
L325.198 112.182
L325.377 111.492
L334.394 111.492
L334.572 110.802
L340.733 110.802
L340.911 110.113
L348.411 110.113
L348.589 109.423
L350.375 109.423
L350.554 108.733
L358.053 108.733
L358.232 108.043
L360.642 108.043
L360.821 106.663
L364.124 106.663
L364.303 105.974
L367.07 105.974
L367.249 105.284
L368.142 105.284
L368.32 104.594
L379.212 104.594
L379.391 103.904
L382.069 103.904
L382.248 103.214
L390.551 103.214
L390.73 102.525
L407.336 102.525
L407.514 101.835
L412.335 101.835
L412.514 101.145
L426.263 101.145
L426.442 100.455
L431.084 100.455
L431.263 99.7653
L438.048 99.7653
L438.227 99.0754
L450.458 99.0754
L450.636 98.3856
L454.565 98.3856
L454.743 97.6958
L464.832 97.6958
L465.011 97.006
L473.492 97.006
L473.671 96.3162
L490.723 96.3162
L490.902 95.6263
L518.311 95.6263
L518.311 95.6263" style="fill:none;stroke:#0000ff;stroke-dasharray:6.000000,2.000000;stroke-dashoffset:0.0;"/>
   </g>
   <g id="line2d_2">
    <path clip-path="url(#p7ff5b81e1d)" d="
M72 388.8
L72.0893 388.702
L72.1786 388.702
L72.5357 388.604
L72.7142 388.507
L73.0714 388.409
L73.2499 388.311
L73.607 388.213
L74.232 387.626
L74.7677 387.529
L74.857 387.431
L75.2141 386.551
L75.3926 386.551
L75.7498 385.964
L76.1069 385.866
L76.3747 385.182
L76.5533 385.084
L76.9104 384.497
L76.9997 384.399
L77.3568 383.519
L77.6246 383.128
L77.8032 383.128
L78.4282 381.954
L78.6067 381.857
L78.7853 381.074
L79.7674 378.141
L80.0352 377.358
L80.303 376.478
L80.4816 376.185
L80.8387 374.816
L81.1066 373.935
L81.4637 372.664
L81.7315 371.197
L81.8208 371.197
L82.0886 370.415
L82.2672 369.633
L82.535 368.655
L82.8922 367.286
L83.3386 365.232
L83.6957 364.254
L83.9635 363.08
L84.0528 362.983
L84.8563 358.973
L84.9456 358.778
L85.3027 357.017
L85.6598 355.061
L85.9277 353.888
L86.2848 352.421
L86.4634 351.639
L86.6419 351.15
L87.8026 344.5
L88.1597 342.055
L88.5168 340.099
L88.7846 337.752
L89.231 334.721
L90.0346 330.026
L90.1238 329.831
L90.3917 328.168
L91.8202 321.421
L92.088 320.052
L92.3558 318.194
L92.8022 314.869
L93.0701 313.988
L93.2486 313.402
L93.4272 312.522
L93.695 310.859
L93.7843 310.663
L94.945 302.449
L95.6592 298.928
L95.927 296.679
L96.3734 292.963
L96.7306 291.105
L97.4448 286.117
L97.5341 285.824
L98.9626 275.654
L100.212 266.754
L100.48 265.385
L100.748 263.723
L101.016 262.452
L101.552 259.518
L101.82 258.247
L102.177 254.726
L102.266 254.726
L102.444 253.455
L102.623 252.575
L102.891 251.499
L104.676 241.328
L105.123 238.199
L107.444 225.388
L107.712 223.041
L107.98 221.868
L109.23 214.338
L109.944 212.088
L110.212 210.132
L110.748 208.177
L111.015 207.394
L111.194 206.807
L111.462 205.047
L112.087 201.527
L112.533 200.06
L112.622 199.864
L112.801 198.984
L113.158 197.615
L113.426 196.344
L113.872 194.094
L114.14 193.312
L114.229 193.312
L114.319 193.116
L114.497 192.432
L114.765 191.747
L115.033 190.769
L115.479 189.596
L116.194 186.76
L116.283 186.662
L116.551 186.075
L116.997 184.902
L117.176 184.217
L117.444 183.044
L117.979 181.479
L118.247 181.186
L118.783 179.23
L118.872 179.132
L119.318 177.665
L119.765 176.492
L119.943 176.003
L120.122 175.514
L120.211 175.416
L120.658 174.242
L121.015 173.753
L121.461 172.58
L121.729 171.993
L122.265 170.722
L122.532 170.037
L122.8 169.94
L122.979 169.255
L123.247 168.864
L123.515 168.081
L123.604 167.984
L124.05 166.419
L124.229 165.832
L124.675 165.343
L124.854 164.854
L124.943 164.854
L125.3 163.779
L125.568 163.192
L125.747 162.898
L125.836 162.898
L126.193 162.018
L126.907 160.454
L127.175 159.574
L127.711 158.889
L128.157 157.422
L128.336 157.129
L128.425 157.129
L128.693 156.444
L128.871 156.249
L128.961 156.249
L130.032 154.097
L130.121 153.999
L130.389 153.217
L130.657 153.119
L130.746 153.021
L131.282 151.554
L131.55 151.163
L131.728 151.163
L131.907 150.87
L132.175 150.772
L132.353 150.185
L132.532 150.088
L132.71 149.696
L133.157 149.305
L133.246 149.305
L133.603 148.719
L133.692 148.719
L134.05 148.034
L134.228 147.936
L134.407 147.741
L134.496 147.643
L134.764 146.958
L134.942 146.665
L135.121 146.567
L135.657 145.883
L135.835 145.687
L136.371 145.198
L136.46 145.198
L136.728 144.807
L136.996 144.709
L137.621 144.122
L138.067 144.024
L138.156 143.927
L138.335 143.438
L138.514 143.438
L138.692 143.144
L138.96 143.047
L139.228 142.655
L139.406 142.558
L139.674 142.362
L140.299 142.264
L140.924 141.677
L141.281 141.58
L141.549 140.993
L142.174 140.895
L142.531 140.602
L142.71 140.504
L143.335 139.722
L143.513 139.428
L144.228 139.33
L144.495 139.135
L144.585 139.135
L144.763 138.744
L145.299 138.646
L145.567 138.45
L146.281 138.45
L146.46 138.255
L146.727 138.059
L147.174 137.961
L147.799 137.375
L148.067 137.277
L148.602 136.788
L149.049 136.69
L149.674 136.103
L150.299 136.005
L150.477 135.908
L150.566 135.908
L150.745 135.712
L150.924 135.614
L151.281 135.614
L151.459 135.419
L151.906 135.321
L152.798 134.441
L153.959 134.343
L154.138 134.245
L154.316 134.245
L154.495 134.05
L155.388 133.169
L155.745 133.072
L155.923 132.974
L157.352 132.876
L157.709 132.583
L158.334 132.485
L158.512 132.387
L159.673 132.289
L159.852 132.192
L160.387 132.094
L160.566 131.996
L160.744 131.898
L161.012 131.703
L163.333 131.605
L163.512 131.507
L163.869 131.409
L164.048 131.311
L165.298 131.214
L165.655 130.92
L166.548 130.822
L166.905 130.529
L167.797 130.431
L167.976 130.333
L168.78 130.333
L168.958 130.138
L170.029 130.04
L170.208 129.942
L171.904 129.844
L172.083 129.747
L175.565 129.649
L175.743 129.551
L178.065 129.551
L178.243 129.356
L179.582 129.258
L179.761 129.16
L181.725 129.062
L181.904 128.964
L182.35 128.867
L182.529 128.769
L186.011 128.671
L186.189 128.573
L187.26 128.475
L187.528 128.28
L188.868 128.182
L189.046 128.084
L192.082 127.986
L192.26 127.889
L194.671 127.791
L194.849 127.693
L198.331 127.595
L198.51 127.497
L215.294 127.4
L215.473 127.302
L309.485 127.204
L309.663 127.106
L518.311 127.106
L518.311 127.106" style="fill:none;stroke:#008000;stroke-dasharray:1.000000,1.000000;stroke-dashoffset:0.0;"/>
   </g>
   <g id="line2d_3">
    <path clip-path="url(#p7ff5b81e1d)" d="
M72 388.8
L73.9642 388.8
L74.1427 388.11
L76.9104 388.11
L77.089 387.42
L78.7853 387.42
L78.9638 386.731
L81.3744 386.731
L81.553 386.041
L82.6243 386.041
L82.8029 385.351
L84.0528 385.351
L84.2314 384.661
L87.2669 384.661
L87.4454 383.971
L91.5523 383.971
L91.7309 383.281
L94.0522 383.281
L94.2307 382.592
L95.1235 382.592
L95.3021 381.902
L95.8378 381.902
L96.0163 381.212
L96.3734 381.212
L96.552 380.522
L96.9091 380.522
L97.0877 379.832
L97.177 379.832
L97.3555 379.143
L99.1411 379.143
L99.3197 378.453
L99.7661 378.453
L99.9446 377.763
L100.212 377.763
L100.391 377.073
L101.82 377.073
L101.998 375.693
L102.087 375.693
L102.266 375.004
L102.802 375.004
L102.98 374.314
L103.784 374.314
L103.962 373.624
L105.301 373.624
L105.48 372.934
L105.837 372.934
L106.016 372.244
L107.266 372.244
L107.444 371.554
L109.676 371.554
L109.855 370.865
L110.123 370.865
L110.48 368.795
L110.748 368.795
L110.926 368.105
L113.872 368.105
L114.051 367.416
L114.408 367.416
L114.587 366.726
L116.015 366.726
L116.194 366.036
L117.444 366.036
L117.622 365.346
L118.158 365.346
L118.336 364.656
L119.943 364.656
L120.211 363.277
L121.372 363.277
L121.55 362.587
L122.265 362.587
L122.443 361.897
L122.89 361.897
L123.068 361.207
L124.05 361.207
L124.318 359.828
L124.943 359.828
L125.3 357.758
L125.479 357.758
L125.657 357.068
L126.104 357.068
L126.282 356.378
L126.461 356.378
L126.729 354.999
L127.354 354.999
L127.532 354.309
L128.425 354.309
L128.604 353.619
L129.139 353.619
L129.318 352.929
L129.943 352.929
L130.121 352.24
L130.389 352.24
L130.657 350.86
L130.925 350.86
L131.282 348.79
L131.55 348.79
L131.728 348.101
L132.085 348.101
L132.353 346.721
L132.71 346.721
L132.889 345.341
L133.068 344.651
L133.157 344.651
L133.514 342.582
L134.139 342.582
L134.496 340.513
L134.942 340.513
L135.121 339.823
L136.549 339.823
L136.996 337.063
L137.264 337.063
L137.442 334.994
L137.532 334.994
L137.799 333.614
L137.889 333.614
L138.067 332.235
L138.156 332.235
L138.335 331.545
L139.228 331.545
L139.406 330.855
L139.674 330.855
L139.942 329.475
L140.656 329.475
L140.835 328.786
L140.924 328.786
L141.281 326.716
L141.638 326.716
L142.085 323.957
L142.531 323.957
L142.71 323.267
L142.978 323.267
L143.335 321.198
L143.87 321.198
L144.138 319.818
L144.228 319.818
L144.495 318.438
L144.585 318.438
L144.763 317.059
L144.852 317.059
L145.031 316.369
L145.299 316.369
L145.567 314.989
L145.656 314.989
L145.924 313.61
L146.281 313.61
L146.46 312.92
L146.638 312.92
L146.817 312.23
L146.906 312.23
L147.084 310.85
L147.888 310.85
L148.334 308.091
L148.424 308.091
L148.781 306.022
L149.495 306.022
L149.852 301.883
L150.834 301.883
L151.013 301.193
L151.191 301.193
L151.37 300.503
L151.459 300.503
L151.727 299.123
L151.906 299.123
L152.173 297.744
L152.62 297.744
L152.888 296.364
L153.066 296.364
L153.245 295.674
L153.423 295.674
L153.602 294.984
L153.691 294.984
L153.87 292.915
L154.316 290.156
L154.584 290.156
L154.763 289.466
L155.03 289.466
L155.209 288.776
L155.477 288.776
L155.655 286.707
L156.459 286.707
L156.727 285.327
L157.084 285.327
L157.441 283.257
L157.53 283.257
L157.709 281.878
L158.244 281.878
L158.423 281.188
L159.137 281.188
L159.494 279.119
L159.673 279.119
L159.941 277.739
L160.119 277.739
L160.298 277.049
L160.476 277.049
L160.744 275.669
L160.834 275.669
L161.191 273.6
L161.816 273.6
L161.994 272.91
L162.351 272.91
L162.619 271.531
L162.887 271.531
L163.155 270.151
L163.423 270.151
L163.601 269.461
L163.691 269.461
L163.869 268.771
L164.048 268.771
L164.316 267.392
L164.583 267.392
L164.762 266.702
L164.94 266.702
L165.744 261.183
L165.923 261.183
L166.19 259.804
L166.548 259.804
L166.726 259.114
L166.994 259.114
L167.262 257.734
L167.619 257.734
L167.887 256.354
L168.512 256.354
L168.69 254.285
L168.78 254.285
L168.958 253.595
L169.583 253.595
L169.94 251.526
L170.476 251.526
L170.744 250.146
L170.922 250.146
L171.101 249.456
L171.279 249.456
L171.547 248.077
L171.815 248.077
L171.994 247.387
L172.172 247.387
L172.351 246.007
L172.529 246.007
L172.708 245.317
L173.154 245.317
L173.333 244.628
L173.422 244.628
L174.047 240.489
L174.226 240.489
L174.493 239.109
L174.761 239.109
L175.118 234.97
L175.386 234.97
L175.654 233.59
L175.743 233.59
L175.922 232.211
L176.19 232.211
L176.368 231.521
L176.636 231.521
L176.815 230.141
L177.172 230.141
L177.44 228.762
L178.065 228.762
L178.69 224.623
L178.779 224.623
L178.957 223.933
L179.225 223.933
L179.404 222.553
L179.672 221.174
L180.475 221.174
L180.654 220.484
L180.832 220.484
L181.011 219.104
L181.189 217.035
L181.279 217.035
L181.457 215.655
L181.725 214.275
L181.814 214.275
L182.082 212.896
L182.172 212.896
L182.529 210.826
L183.421 210.826
L183.6 209.447
L183.689 209.447
L183.957 208.067
L184.671 208.067
L184.761 207.377
L184.939 203.928
L185.207 203.928
L185.386 203.238
L185.921 203.238
L186.636 198.41
L186.725 198.41
L186.903 197.72
L186.993 197.72
L187.26 196.34
L187.439 196.34
L187.796 194.271
L188.153 194.271
L188.332 192.891
L188.421 192.891
L188.6 192.201
L188.689 192.201
L188.957 190.822
L189.046 190.822
L189.225 190.132
L189.314 190.132
L189.492 189.442
L189.582 189.442
L189.76 188.752
L190.207 188.752
L190.475 187.372
L191.1 187.372
L191.278 186.683
L191.457 186.683
L191.635 185.993
L191.992 185.993
L192.528 182.544
L192.617 182.544
L192.796 181.854
L193.242 181.854
L193.599 179.784
L193.689 179.784
L193.956 178.405
L194.046 178.405
L194.224 177.715
L194.581 177.715
L194.939 175.646
L195.564 175.646
L195.742 174.956
L195.921 174.956
L196.099 174.266
L196.278 174.266
L196.456 173.576
L196.635 173.576
L196.813 172.886
L196.992 172.886
L197.26 171.507
L197.974 171.507
L198.242 170.127
L198.331 170.127
L198.51 169.437
L198.867 169.437
L199.135 168.057
L199.224 168.057
L199.492 166.678
L199.849 166.678
L200.117 165.298
L200.742 165.298
L201.01 162.539
L201.902 162.539
L202.706 157.02
L202.884 157.02
L203.242 154.951
L203.42 154.951
L203.599 153.571
L203.777 153.571
L203.956 152.881
L204.224 152.881
L204.402 152.192
L204.492 152.192
L204.67 150.812
L205.027 148.743
L205.116 148.743
L205.295 148.053
L205.474 148.053
L205.652 146.673
L206.277 146.673
L206.634 144.604
L206.724 144.604
L207.17 141.844
L207.259 141.844
L207.438 141.154
L208.063 141.154
L208.42 139.085
L208.509 139.085
L208.688 138.395
L208.866 138.395
L209.045 137.705
L209.134 137.705
L209.313 137.016
L209.58 137.016
L209.759 136.326
L210.205 136.326
L210.384 135.636
L210.652 135.636
L211.098 132.877
L211.455 132.877
L211.634 132.187
L211.723 132.187
L211.902 130.117
L212.08 130.117
L212.259 128.738
L212.437 128.048
L212.884 128.048
L213.062 127.358
L213.42 127.358
L213.598 126.668
L213.777 126.668
L213.955 125.978
L214.402 125.978
L214.58 125.289
L214.759 125.289
L215.027 123.909
L215.205 123.909
L215.384 122.529
L215.562 121.84
L215.919 121.84
L216.098 121.15
L216.366 121.15
L216.634 119.77
L217.259 119.77
L217.437 119.08
L217.794 119.08
L217.973 118.39
L218.241 118.39
L218.419 117.701
L218.508 117.701
L218.687 116.321
L218.866 116.321
L219.044 115.631
L219.133 115.631
L219.58 112.872
L219.758 112.872
L220.026 111.492
L220.116 111.492
L220.562 108.733
L220.74 108.733
L220.919 108.043
L221.187 108.043
L221.365 107.353
L222.258 107.353
L222.526 105.974
L222.705 105.974
L222.972 104.594
L223.687 104.594
L223.865 103.904
L224.49 103.904
L224.669 103.214
L225.026 103.214
L225.204 102.525
L225.383 102.525
L225.74 100.455
L225.829 100.455
L226.633 94.9365
L227.079 94.9365
L227.347 93.5569
L227.615 93.5569
L227.794 92.8671
L228.419 92.8671
L228.776 90.7976
L228.954 90.7976
L229.133 90.1078
L229.222 90.1078
L229.401 89.418
L229.49 89.418
L229.758 88.0383
L229.936 88.0383
L230.115 87.3485
L230.204 87.3485
L230.651 84.5892
L231.097 84.5892
L231.276 83.8994
L231.365 83.8994
L231.722 81.8299
L232.168 81.8299
L232.347 81.1401
L232.704 81.1401
L232.883 80.4503
L233.329 80.4503
L233.508 79.7605
L233.686 79.7605
L233.865 79.0707
L234.936 79.0707
L235.115 77.691
L236.632 77.691
L236.811 77.0012
L236.989 77.0012
L237.168 76.3114
L237.257 76.3114
L237.525 74.9317
L237.614 74.9317
L237.882 73.5521
L238.418 73.5521
L238.596 72.8623
L238.864 72.8623
L239.132 71.4826
L239.489 71.4826
L239.757 70.103
L239.846 70.103
L240.025 69.4132
L240.561 69.4132
L240.739 68.7234
L241.007 68.7234
L241.186 67.3437
L241.721 67.3437
L241.9 65.9641
L243.239 65.9641
L243.418 65.2743
L245.114 65.2743
L245.292 64.5844
L245.471 64.5844
L245.65 63.8946
L247.614 63.8946
L247.792 63.2048
L248.507 63.2048
L248.685 61.8251
L249.132 61.8251
L249.31 61.1353
L250.917 61.1353
L251.096 60.4455
L251.274 60.4455
L251.453 59.7557
L254.399 59.7557
L254.578 59.0659
L255.47 59.0659
L255.649 58.376
L255.917 58.376
L256.095 57.6862
L258.06 57.6862
L258.238 56.9964
L259.845 56.9964
L260.024 56.3066
L265.38 56.3066
L265.559 55.6168
L266.72 55.6168
L266.898 54.9269
L267.166 54.9269
L267.434 53.5473
L267.523 53.5473
L267.702 52.8575
L268.505 52.8575
L268.684 52.1677
L268.862 52.1677
L269.041 51.4778
L270.916 51.4778
L271.094 50.788
L274.308 50.788
L274.487 49.4084
L276.183 49.4084
L276.362 48.7186
L282.165 48.7186
L282.344 48.0287
L282.879 48.0287
L283.058 47.3389
L294.575 47.3389
L294.754 46.6491
L295.825 46.6491
L296.004 45.9593
L305.556 45.9593
L305.735 45.2695
L518.311 45.2695
L518.311 45.2695" style="fill:none;stroke:#ff0000;stroke-dasharray:3.000000,6.000000;stroke-dashoffset:0.0;"/>
   </g>
   <g id="line2d_4">
    <path clip-path="url(#p7ff5b81e1d)" d="
M72 388.8
L87.8026 388.8
L87.9811 388.11
L90.1238 388.11
L90.3024 387.42
L91.3738 387.42
L91.5523 386.731
L97.4448 386.731
L97.6234 386.041
L101.82 386.041
L101.998 385.351
L102.177 385.351
L102.355 384.661
L104.766 384.661
L104.944 383.971
L108.248 383.971
L108.426 383.281
L109.14 383.281
L109.319 382.592
L111.462 382.592
L111.64 381.212
L112.355 381.212
L112.533 380.522
L115.212 380.522
L115.39 379.832
L115.479 379.832
L115.658 379.143
L115.747 379.143
L115.926 378.453
L116.461 378.453
L116.64 377.763
L122.622 377.763
L122.89 376.383
L123.247 376.383
L123.425 375.693
L124.764 375.693
L124.943 375.004
L125.479 375.004
L125.836 372.934
L129.05 372.934
L129.407 370.865
L129.943 370.865
L130.3 368.795
L132.978 368.795
L133.157 368.105
L133.871 368.105
L134.228 366.036
L137.085 366.036
L137.264 365.346
L140.031 365.346
L140.388 363.277
L140.478 363.277
L140.656 361.897
L141.371 361.897
L141.638 360.517
L143.692 360.517
L144.049 358.448
L145.031 358.448
L145.21 357.758
L145.299 357.758
L145.477 357.068
L147.084 357.068
L147.62 353.619
L147.888 353.619
L148.156 352.24
L150.477 352.24
L150.656 350.17
L150.924 350.17
L151.102 348.101
L151.191 348.101
L151.37 347.411
L151.459 347.411
L151.816 345.341
L154.405 345.341
L154.584 344.651
L154.941 344.651
L155.12 343.962
L155.209 343.962
L155.388 343.272
L157.53 343.272
L157.709 342.582
L157.798 342.582
L158.155 340.513
L158.244 340.513
L158.512 339.133
L158.691 339.133
L159.048 337.063
L159.137 337.063
L159.405 335.684
L161.101 335.684
L162.351 326.716
L162.53 326.716
L162.798 325.337
L163.512 325.337
L163.691 324.647
L164.137 324.647
L164.316 323.957
L164.762 323.957
L165.298 320.508
L165.387 320.508
L165.565 319.818
L165.655 319.818
L165.923 317.059
L166.101 317.059
L166.726 312.92
L168.244 312.92
L168.422 312.23
L168.69 312.23
L168.958 310.85
L169.137 310.85
L169.851 306.022
L170.029 306.022
L170.208 305.332
L170.476 305.332
L170.654 304.642
L171.904 304.642
L172.083 303.952
L172.261 303.952
L172.529 300.503
L172.708 300.503
L172.797 299.813
L172.976 297.744
L173.154 295.674
L173.333 295.674
L173.511 294.295
L173.601 294.295
L173.779 293.605
L175.476 293.605
L175.654 291.535
L175.833 288.776
L176.011 286.707
L176.19 285.327
L176.368 285.327
L176.547 283.257
L176.636 283.257
L176.993 279.119
L179.047 279.119
L179.493 273.6
L180.029 269.461
L180.207 266.702
L180.654 263.943
L181.547 263.943
L181.814 262.563
L182.618 262.563
L183.511 256.354
L183.689 256.354
L183.957 252.216
L184.136 251.526
L184.225 251.526
L184.404 249.456
L184.761 249.456
L184.939 248.766
L185.028 248.766
L185.296 247.387
L186.189 247.387
L186.368 245.317
L186.546 243.938
L186.814 243.938
L187.082 239.799
L187.171 239.109
L187.618 230.141
L188.153 226.692
L189.046 226.692
L189.225 226.002
L189.492 226.002
L189.671 225.313
L189.76 225.313
L189.939 223.933
L191.724 210.826
L193.064 210.826
L193.242 210.137
L193.332 210.137
L193.778 206.687
L193.956 203.928
L194.046 203.928
L194.671 199.789
L194.76 199.789
L195.117 197.72
L196.367 197.72
L196.546 197.03
L196.992 197.03
L197.26 190.822
L197.349 190.822
L198.153 185.303
L198.242 185.303
L198.42 184.613
L199.224 184.613
L199.403 183.923
L200.028 183.923
L200.206 183.234
L200.474 183.234
L200.742 181.164
L201.01 176.335
L201.099 176.335
L201.456 174.266
L201.724 174.266
L201.813 173.576
L201.992 171.507
L202.17 170.127
L202.349 169.437
L204.045 169.437
L204.224 168.057
L204.581 165.298
L204.759 163.229
L205.206 160.469
L205.295 160.469
L205.563 157.02
L206.545 157.02
L206.724 156.331
L207.616 156.331
L207.706 155.641
L207.884 152.192
L208.063 151.502
L208.42 151.502
L208.866 148.743
L209.045 148.743
L209.402 146.673
L211.188 146.673
L212.08 139.085
L212.259 137.016
L212.973 132.187
L214.937 132.187
L215.562 128.048
L215.741 128.048
L215.919 126.668
L216.009 126.668
L216.276 123.909
L216.544 122.529
L216.991 122.529
L217.169 121.84
L217.794 121.84
L217.973 121.15
L218.419 121.15
L218.598 120.46
L218.866 120.46
L219.044 118.39
L219.133 118.39
L219.401 114.941
L219.491 114.941
L219.848 110.802
L220.116 109.423
L221.901 109.423
L222.348 106.663
L222.526 106.663
L222.705 104.594
L222.972 101.835
L223.24 101.835
L223.508 100.455
L225.472 100.455
L225.74 99.0754
L225.829 99.0754
L226.633 93.5569
L226.722 93.5569
L226.99 92.1772
L227.079 92.1772
L227.258 91.4874
L227.615 91.4874
L227.794 90.7976
L229.222 90.7976
L229.668 88.0383
L230.026 88.0383
L230.293 85.279
L230.561 85.279
L230.74 84.5892
L232.079 84.5892
L232.258 83.8994
L232.615 83.8994
L232.793 83.2096
L233.329 83.2096
L233.508 82.5198
L233.775 82.5198
L233.954 81.1401
L234.132 80.4503
L234.311 80.4503
L234.49 79.0707
L236.275 79.0707
L236.543 76.3114
L236.722 76.3114
L236.9 73.5521
L237.079 73.5521
L237.257 72.8623
L237.436 72.8623
L237.614 71.4826
L238.864 71.4826
L239.043 70.7928
L239.846 70.7928
L240.025 70.103
L240.561 70.103
L240.739 69.4132
L240.828 69.4132
L241.096 68.0335
L241.186 68.0335
L241.543 65.9641
L243.775 65.9641
L243.953 65.2743
L244.043 65.2743
L244.221 64.5844
L244.4 64.5844
L244.757 62.515
L245.025 62.515
L245.203 61.8251
L246.9 61.8251
L247.078 59.7557
L247.703 59.7557
L247.882 59.0659
L248.06 59.0659
L248.239 58.376
L248.328 58.376
L248.685 56.3066
L251.096 56.3066
L251.274 55.6168
L251.542 55.6168
L251.721 54.9269
L252.167 54.9269
L252.346 54.2371
L254.042 54.2371
L254.22 53.5473
L254.488 53.5473
L254.845 51.4778
L255.649 51.4778
L255.828 50.788
L257.881 50.788
L258.149 49.4084
L261.184 49.4084
L261.363 48.7186
L262.345 48.7186
L262.524 48.0287
L268.773 48.0287
L269.041 46.6491
L272.701 46.6491
L272.88 45.9593
L276.005 45.9593
L276.183 45.2695
L300.646 45.2695
L300.825 44.5796
L518.311 44.5796
L518.311 44.5796" style="fill:none;stroke:#00bfbf;stroke-dasharray:5.000000,1.000000,2.000000,1.000000,5.000000,1.000000;stroke-dashoffset:0.0;"/>
   </g>
   <g id="line2d_5">
    <path clip-path="url(#p7ff5b81e1d)" d="
M72 388.8
L77.1782 388.8
L77.4461 387.626
L78.8746 387.626
L79.0531 387.04
L79.4102 387.04
L79.5888 386.453
L80.2138 386.453
L80.4816 385.279
L86.999 385.279
L87.1776 384.693
L87.624 384.693
L87.8026 384.106
L90.1238 384.106
L90.5702 381.759
L90.8381 381.759
L91.0166 381.172
L93.5165 381.172
L93.695 380.585
L93.8736 380.585
L94.0522 379.999
L94.5878 379.999
L94.7664 379.412
L96.7306 379.412
L96.9091 378.825
L97.177 378.825
L97.4448 377.652
L100.212 377.652
L100.391 377.065
L108.426 377.065
L108.694 375.891
L108.783 375.891
L109.051 374.718
L115.033 374.718
L115.212 374.131
L115.301 374.131
L115.479 373.544
L122.265 373.544
L122.443 372.958
L123.782 372.958
L123.961 372.371
L130.211 372.371
L130.389 371.784
L136.907 371.784
L137.085 371.197
L137.621 371.197
L137.799 370.611
L138.692 370.611
L138.871 370.024
L142.888 370.024
L143.067 369.437
L155.209 369.437
L155.388 368.85
L231.99 368.85
L232.168 368.263
L245.292 368.263
L245.471 367.677
L264.398 367.677
L264.577 367.09
L268.416 367.09
L268.595 366.503
L331.716 366.503
L331.894 365.916
L337.072 365.916
L337.251 365.33
L417.335 365.33
L417.514 364.743
L445.369 364.743
L445.548 364.156
L512.061 364.156
L512.24 363.569
L518.311 363.569
L518.311 363.569" style="fill:none;stroke:#bf00bf;stroke-linecap:square;"/>
   </g>
   <g id="matplotlib.axis_1">
    <g id="xtick_1">
     <g id="line2d_6">
      <defs>
       <path d="
M0 0
L0 -4" id="mc7db9fdffb" style="stroke:#000000;stroke-width:0.5;"/>
      </defs>
      <g>
       <use style="stroke:#000000;stroke-width:0.5;" x="72.0" xlink:href="#mc7db9fdffb" y="388.8"/>
      </g>
     </g>
     <g id="line2d_7">
      <defs>
       <path d="
M0 0
L0 4" id="m5a7d422ac3" style="stroke:#000000;stroke-width:0.5;"/>
      </defs>
      <g>
       <use style="stroke:#000000;stroke-width:0.5;" x="72.0" xlink:href="#m5a7d422ac3" y="43.2"/>
      </g>
     </g>
     <g id="text_1">
      <!-- 0 -->
      <defs>
       <path d="
M56.9844 36.375
Q56.9844 16.7969 50.8594 7.64062
Q44.7344 -1.51562 31.8438 -1.51562
Q18.75 -1.51562 12.7188 7.76562
Q6.6875 17.0469 6.6875 36.2812
Q6.6875 55.6719 12.7812 64.9219
Q18.8906 74.1719 31.8438 74.1719
Q44.9219 74.1719 50.9531 64.7656
Q56.9844 55.375 56.9844 36.375
M44.1406 14.2031
Q45.8438 18.1719 46.4531 23.5156
Q47.0781 28.8594 47.0781 36.375
Q47.0781 43.7969 46.4531 49.2656
Q45.8438 54.7344 44.0938 58.5469
Q42.3906 62.3125 39.4219 64.2031
Q36.4688 66.1094 31.8438 66.1094
Q27.25 66.1094 24.2344 64.2031
Q21.2344 62.3125 19.4844 58.4531
Q17.8281 54.8281 17.2188 49.0156
Q16.6094 43.2188 16.6094 36.2812
Q16.6094 28.6562 17.1406 23.5312
Q17.6719 18.4062 19.4375 14.3594
Q21.0469 10.5469 24 8.54688
Q26.9531 6.54688 31.8438 6.54688
Q36.4219 6.54688 39.4531 8.45312
Q42.4844 10.3594 44.1406 14.2031" id="Verdana-30"/>
      </defs>
      <g transform="translate(68.9821875 401.918125)scale(0.12 -0.12)">
       <use xlink:href="#Verdana-30"/>
      </g>
     </g>
    </g>
    <g id="xtick_2">
     <g id="line2d_8">
      <g>
       <use style="stroke:#000000;stroke-width:0.5;" x="161.28" xlink:href="#mc7db9fdffb" y="388.8"/>
      </g>
     </g>
     <g id="line2d_9">
      <g>
       <use style="stroke:#000000;stroke-width:0.5;" x="161.28" xlink:href="#m5a7d422ac3" y="43.2"/>
      </g>
     </g>
     <g id="text_2">
      <!-- 1000 -->
      <defs>
       <path d="
M52.9375 0
L13.5781 0
L13.5781 7.42188
L28.7188 7.42188
L28.7188 56.1562
L13.5781 56.1562
L13.5781 62.7969
Q16.6562 62.7969 20.1719 63.2969
Q23.6875 63.8125 25.4844 64.7969
Q27.7344 66.0156 29.0312 67.8906
Q30.3281 69.7812 30.5156 72.9531
L38.0938 72.9531
L38.0938 7.42188
L52.9375 7.42188
z
" id="Verdana-31"/>
      </defs>
      <g transform="translate(147.2315625 401.918125)scale(0.12 -0.12)">
       <use xlink:href="#Verdana-31"/>
       <use x="63.57421875" xlink:href="#Verdana-30"/>
       <use x="127.1484375" xlink:href="#Verdana-30"/>
       <use x="190.72265625" xlink:href="#Verdana-30"/>
      </g>
     </g>
    </g>
    <g id="xtick_3">
     <g id="line2d_10">
      <g>
       <use style="stroke:#000000;stroke-width:0.5;" x="250.56" xlink:href="#mc7db9fdffb" y="388.8"/>
      </g>
     </g>
     <g id="line2d_11">
      <g>
       <use style="stroke:#000000;stroke-width:0.5;" x="250.56" xlink:href="#m5a7d422ac3" y="43.2"/>
      </g>
     </g>
     <g id="text_3">
      <!-- 2000 -->
      <defs>
       <path d="
M57.0781 0
L7.85938 0
L7.85938 10.2031
Q12.9844 14.5938 18.1406 18.9844
Q23.2969 23.3906 27.7344 27.7344
Q37.1094 36.8125 40.5781 42.1562
Q44.0469 47.5156 44.0469 53.7188
Q44.0469 59.375 40.3125 62.5625
Q36.5781 65.7656 29.8906 65.7656
Q25.4375 65.7656 20.2656 64.2031
Q15.0938 62.6406 10.1562 59.4219
L9.67188 59.4219
L9.67188 69.6719
Q13.1406 71.3906 18.9219 72.7969
Q24.7031 74.2188 30.125 74.2188
Q41.3125 74.2188 47.6562 68.8125
Q54 63.4219 54 54.2031
Q54 50.0469 52.9531 46.4531
Q51.9062 42.875 49.8594 39.6562
Q47.9531 36.625 45.3906 33.6875
Q42.8281 30.7656 39.1562 27.2031
Q33.9375 22.0781 28.3594 17.2656
Q22.7969 12.4531 17.9688 8.34375
L57.0781 8.34375
z
" id="Verdana-32"/>
      </defs>
      <g transform="translate(236.1684375 401.918125)scale(0.12 -0.12)">
       <use xlink:href="#Verdana-32"/>
       <use x="63.57421875" xlink:href="#Verdana-30"/>
       <use x="127.1484375" xlink:href="#Verdana-30"/>
       <use x="190.72265625" xlink:href="#Verdana-30"/>
      </g>
     </g>
    </g>
    <g id="xtick_4">
     <g id="line2d_12">
      <g>
       <use style="stroke:#000000;stroke-width:0.5;" x="339.84" xlink:href="#mc7db9fdffb" y="388.8"/>
      </g>
     </g>
     <g id="line2d_13">
      <g>
       <use style="stroke:#000000;stroke-width:0.5;" x="339.84" xlink:href="#m5a7d422ac3" y="43.2"/>
      </g>
     </g>
     <g id="text_4">
      <!-- 3000 -->
      <defs>
       <path d="
M50.6875 35.0156
Q53.0312 32.9062 54.5469 29.7344
Q56.0625 26.5625 56.0625 21.5312
Q56.0625 16.5469 54.25 12.3906
Q52.4375 8.25 49.1719 5.17188
Q45.5156 1.76562 40.5469 0.125
Q35.5938 -1.51562 29.6875 -1.51562
Q23.6406 -1.51562 17.7812 -0.0625
Q11.9219 1.375 8.15625 3.07812
L8.15625 13.2812
L8.89062 13.2812
Q13.0312 10.5469 18.6406 8.73438
Q24.2656 6.9375 29.5 6.9375
Q32.5625 6.9375 36.0312 7.95312
Q39.5 8.98438 41.6562 10.9844
Q43.8906 13.1406 44.9844 15.7188
Q46.0938 18.3125 46.0938 22.2656
Q46.0938 26.1719 44.8438 28.7344
Q43.6094 31.2969 41.4062 32.7656
Q39.2031 34.2812 36.0781 34.8438
Q32.9531 35.4062 29.3438 35.4062
L24.9531 35.4062
L24.9531 43.5
L28.375 43.5
Q35.7969 43.5 40.2031 46.5938
Q44.625 49.7031 44.625 55.6719
Q44.625 58.2969 43.5 60.2656
Q42.3906 62.25 40.375 63.5312
Q38.2812 64.7969 35.8906 65.2812
Q33.5 65.7656 30.4688 65.7656
Q25.8281 65.7656 20.5938 64.1094
Q15.375 62.4531 10.75 59.4219
L10.25 59.4219
L10.25 69.625
Q13.7188 71.3438 19.5 72.7812
Q25.2969 74.2188 30.7188 74.2188
Q36.0312 74.2188 40.0781 73.2344
Q44.1406 72.2656 47.4062 70.125
Q50.9219 67.7812 52.7344 64.4531
Q54.5469 61.1406 54.5469 56.6875
Q54.5469 50.6406 50.2656 46.125
Q46 41.6094 40.1875 40.4375
L40.1875 39.75
Q42.5312 39.3594 45.5469 38.1094
Q48.5781 36.8594 50.6875 35.0156" id="Verdana-33"/>
      </defs>
      <g transform="translate(325.46625 401.918125)scale(0.12 -0.12)">
       <use xlink:href="#Verdana-33"/>
       <use x="63.57421875" xlink:href="#Verdana-30"/>
       <use x="127.1484375" xlink:href="#Verdana-30"/>
       <use x="190.72265625" xlink:href="#Verdana-30"/>
      </g>
     </g>
    </g>
    <g id="xtick_5">
     <g id="line2d_14">
      <g>
       <use style="stroke:#000000;stroke-width:0.5;" x="429.12" xlink:href="#mc7db9fdffb" y="388.8"/>
      </g>
     </g>
     <g id="line2d_15">
      <g>
       <use style="stroke:#000000;stroke-width:0.5;" x="429.12" xlink:href="#m5a7d422ac3" y="43.2"/>
      </g>
     </g>
     <g id="text_5">
      <!-- 4000 -->
      <defs>
       <path d="
M58.7344 20.4531
L47.9531 20.4531
L47.9531 0
L38.5781 0
L38.5781 20.4531
L3.76562 20.4531
L3.76562 31.6875
L38.9688 72.7031
L47.9531 72.7031
L47.9531 28.2656
L58.7344 28.2656
z

M38.5781 28.2656
L38.5781 61.0781
L10.4062 28.2656
z
" id="Verdana-34"/>
      </defs>
      <g transform="translate(414.4828125 401.918125)scale(0.12 -0.12)">
       <use xlink:href="#Verdana-34"/>
       <use x="63.57421875" xlink:href="#Verdana-30"/>
       <use x="127.1484375" xlink:href="#Verdana-30"/>
       <use x="190.72265625" xlink:href="#Verdana-30"/>
      </g>
     </g>
    </g>
    <g id="xtick_6">
     <g id="line2d_16">
      <g>
       <use style="stroke:#000000;stroke-width:0.5;" x="518.4" xlink:href="#mc7db9fdffb" y="388.8"/>
      </g>
     </g>
     <g id="line2d_17">
      <g>
       <use style="stroke:#000000;stroke-width:0.5;" x="518.4" xlink:href="#m5a7d422ac3" y="43.2"/>
      </g>
     </g>
     <g id="text_6">
      <!-- 5000 -->
      <defs>
       <path d="
M56.5 23.0938
Q56.5 18.0156 54.6406 13.375
Q52.7812 8.73438 49.5625 5.5625
Q46.0469 2.15625 41.1875 0.3125
Q36.3281 -1.51562 29.9375 -1.51562
Q23.9688 -1.51562 18.4531 -0.265625
Q12.9375 0.984375 9.125 2.73438
L9.125 13.0312
L9.8125 13.0312
Q13.8125 10.5 19.1875 8.71875
Q24.5625 6.9375 29.7344 6.9375
Q33.2031 6.9375 36.4531 7.90625
Q39.7031 8.89062 42.2344 11.3281
Q44.3906 13.4219 45.4844 16.3438
Q46.5781 19.2812 46.5781 23.1406
Q46.5781 26.9062 45.2812 29.4844
Q44 32.0781 41.7031 33.6406
Q39.1562 35.5 35.5156 36.25
Q31.8906 37.0156 27.3906 37.0156
Q23.0938 37.0156 19.1094 36.4219
Q15.1406 35.8438 12.25 35.25
L12.25 72.7031
L56 72.7031
L56 64.1562
L21.6875 64.1562
L21.6875 44.8281
Q23.7812 45.0156 25.9688 45.1094
Q28.1719 45.2188 29.7812 45.2188
Q35.6875 45.2188 40.125 44.2188
Q44.5781 43.2188 48.2969 40.6719
Q52.2031 37.9844 54.3438 33.7344
Q56.5 29.5 56.5 23.0938" id="Verdana-35"/>
      </defs>
      <g transform="translate(504.084375 401.918125)scale(0.12 -0.12)">
       <use xlink:href="#Verdana-35"/>
       <use x="63.57421875" xlink:href="#Verdana-30"/>
       <use x="127.1484375" xlink:href="#Verdana-30"/>
       <use x="190.72265625" xlink:href="#Verdana-30"/>
      </g>
     </g>
    </g>
    <g id="text_7">
     <!-- Objective function exectuions -->
     <defs>
      <path d="
M54.6406 0
L45.4531 0
L45.4531 31.0625
Q45.4531 34.8125 45.0156 38.1094
Q44.5781 41.4062 43.4062 43.2656
Q42.1875 45.3125 39.8906 46.3125
Q37.5938 47.3125 33.9375 47.3125
Q30.1719 47.3125 26.0625 45.4531
Q21.9688 43.6094 18.2188 40.7188
L18.2188 0
L9.03125 0
L9.03125 54.5469
L18.2188 54.5469
L18.2188 48.4844
Q22.5156 52.0469 27.0938 54.0469
Q31.6875 56.0625 36.5312 56.0625
Q45.3594 56.0625 50 50.7344
Q54.6406 45.4062 54.6406 35.4062
z
" id="Verdana-6e"/>
      <path d="
M18.8906 63.6719
L8.54688 63.6719
L8.54688 73.1875
L18.8906 73.1875
z

M18.3125 0
L9.125 0
L9.125 54.5469
L18.3125 54.5469
z
" id="Verdana-69"/>
      <path d="
M56.25 0
L44.6719 0
L29.2031 20.9531
L13.625 0
L2.9375 0
L24.2188 27.2031
L3.125 54.5469
L14.7031 54.5469
L30.0781 33.9375
L45.5156 54.5469
L56.25 54.5469
L34.8125 27.6875
z
" id="Verdana-78"/>
      <path d="
M57.0312 27.6875
Q57.0312 20.8438 55.0938 15.375
Q53.1719 9.90625 49.9062 6.20312
Q46.4375 2.34375 42.2812 0.40625
Q38.1406 -1.51562 33.1562 -1.51562
Q28.5156 -1.51562 25.0469 -0.40625
Q21.5781 0.6875 18.2188 2.54688
L17.625 0
L9.03125 0
L9.03125 75.9844
L18.2188 75.9844
L18.2188 48.8281
Q22.0781 52 26.4219 54.0312
Q30.7656 56.0625 36.1875 56.0625
Q45.8438 56.0625 51.4375 48.6406
Q57.0312 41.2188 57.0312 27.6875
M47.5625 27.4375
Q47.5625 37.2031 44.3281 42.25
Q41.1094 47.3125 33.9375 47.3125
Q29.9375 47.3125 25.8281 45.5781
Q21.7344 43.8438 18.2188 41.1094
L18.2188 9.85938
Q22.125 8.10938 24.9219 7.42188
Q27.7344 6.73438 31.2969 6.73438
Q38.9219 6.73438 43.2344 11.7344
Q47.5625 16.75 47.5625 27.4375" id="Verdana-62"/>
      <path d="
M37.3594 0.484375
Q34.7656 -0.203125 31.7031 -0.640625
Q28.6562 -1.07812 26.2656 -1.07812
Q17.9219 -1.07812 13.5781 3.40625
Q9.23438 7.90625 9.23438 17.8281
L9.23438 46.8281
L3.03125 46.8281
L3.03125 54.5469
L9.23438 54.5469
L9.23438 70.2188
L18.4062 70.2188
L18.4062 54.5469
L37.3594 54.5469
L37.3594 46.8281
L18.4062 46.8281
L18.4062 21.9688
Q18.4062 17.6719 18.5938 15.25
Q18.7969 12.8438 19.9688 10.75
Q21.0469 8.79688 22.9219 7.89062
Q24.8125 6.98438 28.6562 6.98438
Q30.9062 6.98438 33.3438 7.64062
Q35.7969 8.29688 36.8594 8.73438
L37.3594 8.73438
z
" id="Verdana-74"/>
      <path d="
M26.0312 63.6719
L15.6719 63.6719
L15.6719 73.1875
L26.0312 73.1875
z

M25.4375 -1.3125
Q25.4375 -10.8906 20.5469 -15.7656
Q15.6719 -20.6562 7.46875 -20.6562
Q5.51562 -20.6562 2.3125 -20.2656
Q-0.875 -19.875 -3.03125 -19.2812
L-3.03125 -10.5469
L-2.54688 -10.5469
Q-1.17188 -11.0781 1.14062 -11.7656
Q3.46875 -12.4531 5.67188 -12.4531
Q9.1875 -12.4531 11.3281 -11.4688
Q13.4844 -10.5 14.5469 -8.54688
Q15.625 -6.59375 15.9375 -3.82812
Q16.2656 -1.07812 16.2656 2.875
L16.2656 46.8281
L4.89062 46.8281
L4.89062 54.5469
L25.4375 54.5469
z
" id="Verdana-6a"/>
      <path d="
M49.3594 3.42188
Q44.7812 1.21875 40.6562 0
Q36.5312 -1.21875 31.8906 -1.21875
Q25.9844 -1.21875 21.0469 0.515625
Q16.1094 2.25 12.5938 5.76562
Q9.03125 9.28125 7.07812 14.6406
Q5.125 20.0156 5.125 27.2031
Q5.125 40.5781 12.4688 48.1875
Q19.8281 55.8125 31.8906 55.8125
Q36.5781 55.8125 41.0938 54.4844
Q45.6094 53.1719 49.3594 51.2656
L49.3594 41.0625
L48.875 41.0625
Q44.6719 44.3438 40.2031 46.0938
Q35.75 47.8594 31.5 47.8594
Q23.6875 47.8594 19.1719 42.6094
Q14.6562 37.3594 14.6562 27.2031
Q14.6562 17.3281 19.0625 12.0312
Q23.4844 6.73438 31.5 6.73438
Q34.2812 6.73438 37.1562 7.46875
Q40.0469 8.20312 42.3281 9.375
Q44.3438 10.4062 46.0938 11.5469
Q47.8594 12.7031 48.875 13.5312
L49.3594 13.5312
z
" id="Verdana-63"/>
      <path d="
M55.5156 27.25
Q55.5156 13.9219 48.6719 6.20312
Q41.8438 -1.51562 30.375 -1.51562
Q18.7969 -1.51562 11.9844 6.20312
Q5.17188 13.9219 5.17188 27.25
Q5.17188 40.5781 11.9844 48.3125
Q18.7969 56.0625 30.375 56.0625
Q41.8438 56.0625 48.6719 48.3125
Q55.5156 40.5781 55.5156 27.25
M46.0469 27.25
Q46.0469 37.8438 41.8906 42.9844
Q37.75 48.1406 30.375 48.1406
Q22.9062 48.1406 18.7812 42.9844
Q14.6562 37.8438 14.6562 27.25
Q14.6562 17 18.7969 11.6875
Q22.9531 6.39062 30.375 6.39062
Q37.7031 6.39062 41.875 11.6406
Q46.0469 16.8906 46.0469 27.25" id="Verdana-6f"/>
      <path d="
M56.2031 54.5469
L34.125 0
L24.9062 0
L2.98438 54.5469
L12.9375 54.5469
L29.8281 11.1406
L46.5781 54.5469
z
" id="Verdana-76"/>
      <path d="
M63.9688 64.3594
Q68.4062 59.4688 70.7656 52.3906
Q73.1406 45.3125 73.1406 36.3281
Q73.1406 27.3438 70.7188 20.2344
Q68.3125 13.1406 63.9688 8.40625
Q59.4688 3.46875 53.3438 0.96875
Q47.2188 -1.51562 39.3594 -1.51562
Q31.6875 -1.51562 25.4062 1.01562
Q19.1406 3.5625 14.75 8.40625
Q10.3594 13.2344 7.98438 20.2656
Q5.60938 27.2969 5.60938 36.3281
Q5.60938 45.2188 7.95312 52.2656
Q10.2969 59.3281 14.7969 64.3594
Q19.0938 69.1406 25.4688 71.6719
Q31.8438 74.2188 39.3594 74.2188
Q47.1719 74.2188 53.3906 71.6562
Q59.625 69.0938 63.9688 64.3594
M63.0938 36.3281
Q63.0938 50.4844 56.7344 58.1719
Q50.3906 65.875 39.4062 65.875
Q28.3281 65.875 22 58.1719
Q15.6719 50.4844 15.6719 36.3281
Q15.6719 22.0156 22.1094 14.4219
Q28.5625 6.84375 39.4062 6.84375
Q50.25 6.84375 56.6719 14.4219
Q63.0938 22.0156 63.0938 36.3281" id="Verdana-4f"/>
      <path d="
M38.375 67.0938
L37.8906 67.0938
Q36.375 67.5312 33.9375 67.9844
Q31.5 68.4531 29.6406 68.4531
Q23.7344 68.4531 21.0625 65.8438
Q18.4062 63.2344 18.4062 56.3906
L18.4062 54.5469
L34.9688 54.5469
L34.9688 46.8281
L18.7031 46.8281
L18.7031 0
L9.51562 0
L9.51562 46.8281
L3.32812 46.8281
L3.32812 54.5469
L9.51562 54.5469
L9.51562 56.3438
Q9.51562 66.0625 14.3438 71.2656
Q19.1875 76.4688 28.3281 76.4688
Q31.3906 76.4688 33.8594 76.1719
Q36.3281 75.875 38.375 75.4844
z
" id="Verdana-66"/>
      <path d="
M48 15.7188
Q48 8.25 41.8125 3.46875
Q35.6406 -1.3125 24.9531 -1.3125
Q18.8906 -1.3125 13.8438 0.125
Q8.79688 1.5625 5.375 3.26562
L5.375 13.5781
L5.85938 13.5781
Q10.2031 10.2969 15.5156 8.375
Q20.8438 6.45312 25.7344 6.45312
Q31.7812 6.45312 35.2031 8.40625
Q38.625 10.3594 38.625 14.5469
Q38.625 17.7812 36.7656 19.4375
Q34.9062 21.0938 29.6406 22.2656
Q27.6875 22.7031 24.5312 23.2812
Q21.3906 23.875 18.7969 24.5625
Q11.625 26.4688 8.60938 30.1562
Q5.60938 33.8438 5.60938 39.2031
Q5.60938 42.5781 7 45.5469
Q8.40625 48.5312 11.2344 50.875
Q13.9688 53.1719 18.1875 54.5156
Q22.4062 55.8594 27.6406 55.8594
Q32.5156 55.8594 37.5156 54.6562
Q42.5312 53.4688 45.8438 51.7656
L45.8438 41.9375
L45.3594 41.9375
Q41.8438 44.5312 36.8125 46.3125
Q31.7812 48.0938 26.9531 48.0938
Q21.9219 48.0938 18.4531 46.1562
Q14.9844 44.2344 14.9844 40.4375
Q14.9844 37.0625 17.0938 35.3594
Q19.1406 33.6406 23.7344 32.5625
Q26.2656 31.9844 29.4062 31.3906
Q32.5625 30.8125 34.6719 30.3281
Q41.0625 28.8594 44.5312 25.2969
Q48 21.6875 48 15.7188" id="Verdana-73"/>
      <path d="
M54.6875 26.3125
L14.5 26.3125
Q14.5 21.2969 16.0156 17.5469
Q17.5312 13.8125 20.1719 11.4219
Q22.7031 9.07812 26.1875 7.90625
Q29.6875 6.73438 33.8906 6.73438
Q39.4531 6.73438 45.0938 8.95312
Q50.7344 11.1875 53.125 13.3281
L53.6094 13.3281
L53.6094 3.32812
Q48.9688 1.375 44.1406 0.046875
Q39.3125 -1.26562 33.9844 -1.26562
Q20.4062 -1.26562 12.7812 6.07812
Q5.17188 13.4219 5.17188 26.9531
Q5.17188 40.3281 12.4688 48.1875
Q19.7812 56.0625 31.6875 56.0625
Q42.7188 56.0625 48.7031 49.6094
Q54.6875 43.1719 54.6875 31.2969
z

M45.75 33.3438
Q45.7031 40.5781 42.1094 44.5312
Q38.5312 48.4844 31.2031 48.4844
Q23.8281 48.4844 19.4531 44.1406
Q15.0938 39.7969 14.5 33.3438
z
" id="Verdana-65"/>
      <path d="
M54.25 0
L45.0625 0
L45.0625 6.0625
Q40.4375 2.39062 36.1875 0.4375
Q31.9375 -1.51562 26.8125 -1.51562
Q18.2188 -1.51562 13.4219 3.73438
Q8.64062 8.98438 8.64062 19.1406
L8.64062 54.5469
L17.8281 54.5469
L17.8281 23.4844
Q17.8281 19.3438 18.2188 16.375
Q18.6094 13.4219 19.875 11.3281
Q21.1875 9.1875 23.2812 8.20312
Q25.3906 7.23438 29.3906 7.23438
Q32.9531 7.23438 37.1719 9.07812
Q41.4062 10.9375 45.0625 13.8125
L45.0625 54.5469
L54.25 54.5469
z
" id="Verdana-75"/>
      <path id="Verdana-20"/>
     </defs>
     <g transform="translate(206.5078125 418.509375)scale(0.12 -0.12)">
      <use xlink:href="#Verdana-4f"/>
      <use x="78.7109375" xlink:href="#Verdana-62"/>
      <use x="141.015625" xlink:href="#Verdana-6a"/>
      <use x="175.439453125" xlink:href="#Verdana-65"/>
      <use x="235.009765625" xlink:href="#Verdana-63"/>
      <use x="287.109375" xlink:href="#Verdana-74"/>
      <use x="326.513671875" xlink:href="#Verdana-69"/>
      <use x="353.955078125" xlink:href="#Verdana-76"/>
      <use x="412.259765625" xlink:href="#Verdana-65"/>
      <use x="471.830078125" xlink:href="#Verdana-20"/>
      <use x="506.986328125" xlink:href="#Verdana-66"/>
      <use x="542.142578125" xlink:href="#Verdana-75"/>
      <use x="605.423828125" xlink:href="#Verdana-6e"/>
      <use x="668.705078125" xlink:href="#Verdana-63"/>
      <use x="720.8046875" xlink:href="#Verdana-74"/>
      <use x="760.208984375" xlink:href="#Verdana-69"/>
      <use x="787.650390625" xlink:href="#Verdana-6f"/>
      <use x="848.34375" xlink:href="#Verdana-6e"/>
      <use x="911.625" xlink:href="#Verdana-20"/>
      <use x="946.78125" xlink:href="#Verdana-65"/>
      <use x="1006.3515625" xlink:href="#Verdana-78"/>
      <use x="1064.40625" xlink:href="#Verdana-65"/>
      <use x="1123.9765625" xlink:href="#Verdana-63"/>
      <use x="1176.076171875" xlink:href="#Verdana-74"/>
      <use x="1215.48046875" xlink:href="#Verdana-75"/>
      <use x="1278.76171875" xlink:href="#Verdana-69"/>
      <use x="1306.203125" xlink:href="#Verdana-6f"/>
      <use x="1366.896484375" xlink:href="#Verdana-6e"/>
      <use x="1430.177734375" xlink:href="#Verdana-73"/>
     </g>
    </g>
   </g>
   <g id="matplotlib.axis_2">
    <g id="ytick_1">
     <g id="line2d_18">
      <defs>
       <path d="
M0 0
L4 0" id="md7965d1ba0" style="stroke:#000000;stroke-width:0.5;"/>
      </defs>
      <g>
       <use style="stroke:#000000;stroke-width:0.5;" x="72.0" xlink:href="#md7965d1ba0" y="388.8"/>
      </g>
     </g>
     <g id="line2d_19">
      <defs>
       <path d="
M0 0
L-4 0" id="md9a1c1a7cd" style="stroke:#000000;stroke-width:0.5;"/>
      </defs>
      <g>
       <use style="stroke:#000000;stroke-width:0.5;" x="518.4" xlink:href="#md9a1c1a7cd" y="388.8"/>
      </g>
     </g>
     <g id="text_8">
      <!-- 0.0 -->
      <defs>
       <path d="
M24.0312 0
L12.3594 0
L12.3594 13.9219
L24.0312 13.9219
z
" id="Verdana-2e"/>
      </defs>
      <g transform="translate(49.97 392.1515625)scale(0.12 -0.12)">
       <use xlink:href="#Verdana-30"/>
       <use x="63.57421875" xlink:href="#Verdana-2e"/>
       <use x="99.951171875" xlink:href="#Verdana-30"/>
      </g>
     </g>
    </g>
    <g id="ytick_2">
     <g id="line2d_20">
      <g>
       <use style="stroke:#000000;stroke-width:0.5;" x="72.0" xlink:href="#md7965d1ba0" y="319.68"/>
      </g>
     </g>
     <g id="line2d_21">
      <g>
       <use style="stroke:#000000;stroke-width:0.5;" x="518.4" xlink:href="#md9a1c1a7cd" y="319.68"/>
      </g>
     </g>
     <g id="text_9">
      <!-- 0.2 -->
      <g transform="translate(49.95875 323.0315625)scale(0.12 -0.12)">
       <use xlink:href="#Verdana-30"/>
       <use x="63.57421875" xlink:href="#Verdana-2e"/>
       <use x="99.951171875" xlink:href="#Verdana-32"/>
      </g>
     </g>
    </g>
    <g id="ytick_3">
     <g id="line2d_22">
      <g>
       <use style="stroke:#000000;stroke-width:0.5;" x="72.0" xlink:href="#md7965d1ba0" y="250.56"/>
      </g>
     </g>
     <g id="line2d_23">
      <g>
       <use style="stroke:#000000;stroke-width:0.5;" x="518.4" xlink:href="#md9a1c1a7cd" y="250.56"/>
      </g>
     </g>
     <g id="text_10">
      <!-- 0.4 -->
      <g transform="translate(49.76 253.9115625)scale(0.12 -0.12)">
       <use xlink:href="#Verdana-30"/>
       <use x="63.57421875" xlink:href="#Verdana-2e"/>
       <use x="99.951171875" xlink:href="#Verdana-34"/>
      </g>
     </g>
    </g>
    <g id="ytick_4">
     <g id="line2d_24">
      <g>
       <use style="stroke:#000000;stroke-width:0.5;" x="72.0" xlink:href="#md7965d1ba0" y="181.44"/>
      </g>
     </g>
     <g id="line2d_25">
      <g>
       <use style="stroke:#000000;stroke-width:0.5;" x="518.4" xlink:href="#md9a1c1a7cd" y="181.44"/>
      </g>
     </g>
     <g id="text_11">
      <!-- 0.6 -->
      <defs>
       <path d="
M58.1562 23.5781
Q58.1562 12.5 50.8594 5.48438
Q43.5625 -1.51562 32.9531 -1.51562
Q27.5938 -1.51562 23.1875 0.140625
Q18.7969 1.8125 15.4375 5.07812
Q11.2344 9.125 8.95312 15.8125
Q6.6875 22.5156 6.6875 31.9375
Q6.6875 41.6094 8.76562 49.0781
Q10.8438 56.5469 15.375 62.3594
Q19.6719 67.875 26.4531 70.9688
Q33.25 74.0781 42.2812 74.0781
Q45.1719 74.0781 47.125 73.8281
Q49.0781 73.5781 51.0781 72.9531
L51.0781 63.625
L50.5938 63.625
Q49.2188 64.3594 46.4531 65.0156
Q43.7031 65.6719 40.8281 65.6719
Q30.3281 65.6719 24.0781 59.1094
Q17.8281 52.5469 16.7969 41.3594
Q20.9062 43.8438 24.875 45.1406
Q28.8594 46.4375 34.0781 46.4375
Q38.7188 46.4375 42.25 45.5781
Q45.7969 44.7344 49.5156 42.1406
Q53.8125 39.1562 55.9844 34.6094
Q58.1562 30.0781 58.1562 23.5781
M48.25 23.1875
Q48.25 27.7344 46.9062 30.7031
Q45.5625 33.6875 42.4844 35.8906
Q40.2344 37.4531 37.5 37.9375
Q34.7656 38.4219 31.7812 38.4219
Q27.6406 38.4219 24.0781 37.4375
Q20.5156 36.4688 16.75 34.4219
Q16.6562 33.3438 16.5938 32.3438
Q16.5469 31.3438 16.5469 29.8281
Q16.5469 22.125 18.1406 17.6562
Q19.7344 13.1875 22.5156 10.5938
Q24.75 8.45312 27.3594 7.45312
Q29.9844 6.45312 33.0625 6.45312
Q40.1406 6.45312 44.1875 10.7656
Q48.25 15.0938 48.25 23.1875" id="Verdana-36"/>
      </defs>
      <g transform="translate(49.829375 184.7915625)scale(0.12 -0.12)">
       <use xlink:href="#Verdana-30"/>
       <use x="63.57421875" xlink:href="#Verdana-2e"/>
       <use x="99.951171875" xlink:href="#Verdana-36"/>
      </g>
     </g>
    </g>
    <g id="ytick_5">
     <g id="line2d_26">
      <g>
       <use style="stroke:#000000;stroke-width:0.5;" x="72.0" xlink:href="#md7965d1ba0" y="112.32"/>
      </g>
     </g>
     <g id="line2d_27">
      <g>
       <use style="stroke:#000000;stroke-width:0.5;" x="518.4" xlink:href="#md9a1c1a7cd" y="112.32"/>
      </g>
     </g>
     <g id="text_12">
      <!-- 0.8 -->
      <defs>
       <path d="
M57.625 20.2656
Q57.625 10.8438 50.2656 4.59375
Q42.9219 -1.65625 31.7812 -1.65625
Q19.9688 -1.65625 12.9531 4.4375
Q5.95312 10.5469 5.95312 20.0625
Q5.95312 26.125 9.46875 31.0312
Q12.9844 35.9375 19.3906 38.8125
L19.3906 39.1094
Q13.5312 42.2344 10.7188 45.9375
Q7.90625 49.6562 7.90625 55.2188
Q7.90625 63.4219 14.6406 68.8906
Q21.3906 74.3594 31.7812 74.3594
Q42.6719 74.3594 49.1719 69.1406
Q55.6719 63.9219 55.6719 55.8594
Q55.6719 50.9219 52.5938 46.1562
Q49.5156 41.4062 43.5625 38.7188
L43.5625 38.4219
Q50.3906 35.5 54 31.2031
Q57.625 26.9062 57.625 20.2656
M46.0469 55.7656
Q46.0469 60.9844 42.0156 64.0781
Q37.9844 67.1875 31.7344 67.1875
Q25.5938 67.1875 21.6562 64.25
Q17.7188 61.3281 17.7188 56.3438
Q17.7188 52.8281 19.7031 50.2656
Q21.6875 47.7031 25.6875 45.7031
Q27.4844 44.8281 30.875 43.4062
Q34.2812 42 37.5 41.0625
Q42.3281 44.2812 44.1875 47.75
Q46.0469 51.2188 46.0469 55.7656
M47.5625 19.3438
Q47.5625 23.8281 45.5781 26.5312
Q43.6094 29.25 37.8438 31.9844
Q35.5469 33.0625 32.8125 33.9844
Q30.0781 34.9062 25.5312 36.5781
Q21.1406 34.1875 18.4844 30.0781
Q15.8281 25.9844 15.8281 20.7969
Q15.8281 14.2031 20.3594 9.90625
Q24.9062 5.60938 31.8906 5.60938
Q39.0156 5.60938 43.2812 9.26562
Q47.5625 12.9375 47.5625 19.3438" id="Verdana-38"/>
      </defs>
      <g transform="translate(49.893125 115.6715625)scale(0.12 -0.12)">
       <use xlink:href="#Verdana-30"/>
       <use x="63.57421875" xlink:href="#Verdana-2e"/>
       <use x="99.951171875" xlink:href="#Verdana-38"/>
      </g>
     </g>
    </g>
    <g id="ytick_6">
     <g id="line2d_28">
      <g>
       <use style="stroke:#000000;stroke-width:0.5;" x="72.0" xlink:href="#md7965d1ba0" y="43.2"/>
      </g>
     </g>
     <g id="line2d_29">
      <g>
       <use style="stroke:#000000;stroke-width:0.5;" x="518.4" xlink:href="#md9a1c1a7cd" y="43.2"/>
      </g>
     </g>
     <g id="text_13">
      <!-- 1.0 -->
      <g transform="translate(50.796875 46.5515625)scale(0.12 -0.12)">
       <use xlink:href="#Verdana-31"/>
       <use x="63.57421875" xlink:href="#Verdana-2e"/>
       <use x="99.951171875" xlink:href="#Verdana-30"/>
      </g>
     </g>
    </g>
    <g id="text_14">
     <!-- Data Profile T-0.0000001 -->
     <defs>
      <path d="
M57.3281 50.7344
Q57.3281 45.9062 55.6406 41.7656
Q53.9531 37.6406 50.9219 34.625
Q47.1719 30.8594 42.0469 28.9688
Q36.9219 27.0938 29.1094 27.0938
L19.4375 27.0938
L19.4375 0
L9.76562 0
L9.76562 72.7031
L29.5 72.7031
Q36.0312 72.7031 40.5781 71.6094
Q45.125 70.5156 48.6406 68.1719
Q52.7812 65.375 55.0469 61.2188
Q57.3281 57.0781 57.3281 50.7344
M47.2656 50.4844
Q47.2656 54.25 45.9375 57.0312
Q44.625 59.8125 41.9375 61.5781
Q39.5938 63.0938 36.5938 63.75
Q33.5938 64.4062 29 64.4062
L19.4375 64.4062
L19.4375 35.3594
L27.5938 35.3594
Q33.4531 35.3594 37.1094 36.4062
Q40.7656 37.4531 43.0625 39.75
Q45.3594 42.0938 46.3125 44.6719
Q47.2656 47.2656 47.2656 50.4844" id="Verdana-50"/>
      <path d="
M37.9375 27.3906
L7.46875 27.3906
L7.46875 36.2344
L37.9375 36.2344
z
" id="Verdana-2d"/>
      <path d="
M18.3125 0
L9.125 0
L9.125 75.9844
L18.3125 75.9844
z
" id="Verdana-6c"/>
      <path d="
M43.0625 44.5312
L42.5781 44.5312
Q40.5312 45.0156 38.5938 45.2344
Q36.6719 45.4531 34.0312 45.4531
Q29.7812 45.4531 25.8281 43.5781
Q21.875 41.7031 18.2188 38.7188
L18.2188 0
L9.03125 0
L9.03125 54.5469
L18.2188 54.5469
L18.2188 46.4844
Q23.6875 50.875 27.8594 52.7031
Q32.0312 54.5469 36.375 54.5469
Q38.7656 54.5469 39.8438 54.4219
Q40.9219 54.2969 43.0625 53.9531
z
" id="Verdana-72"/>
      <path d="
M71.1875 36.2812
Q71.1875 26.375 66.8594 18.3125
Q62.5469 10.25 55.375 5.8125
Q50.3906 2.73438 44.2656 1.35938
Q38.1406 0 28.125 0
L9.76562 0
L9.76562 72.7031
L27.9375 72.7031
Q38.5781 72.7031 44.8438 71.1562
Q51.125 69.625 55.4688 66.9375
Q62.8906 62.3125 67.0312 54.5938
Q71.1875 46.875 71.1875 36.2812
M61.0781 36.4219
Q61.0781 44.9688 58.0938 50.8281
Q55.125 56.6875 49.2188 60.0625
Q44.9219 62.5 40.0781 63.4531
Q35.25 64.4062 28.5156 64.4062
L19.4375 64.4062
L19.4375 8.29688
L28.5156 8.29688
Q35.5 8.29688 40.7031 9.32812
Q45.9062 10.3594 50.25 13.1406
Q55.6719 16.6094 58.375 22.2656
Q61.0781 27.9375 61.0781 36.4219" id="Verdana-44"/>
      <path d="
M51.4219 0
L42.2812 0
L42.2812 5.8125
Q41.0625 4.98438 38.9844 3.48438
Q36.9219 2 34.9688 1.125
Q32.6719 0 29.6875 -0.75
Q26.7031 -1.51562 22.7031 -1.51562
Q15.3281 -1.51562 10.2031 3.35938
Q5.07812 8.25 5.07812 15.8281
Q5.07812 22.0156 7.73438 25.8438
Q10.4062 29.6875 15.3281 31.8906
Q20.3125 34.0781 27.2969 34.8594
Q34.2812 35.6406 42.2812 36.0312
L42.2812 37.4531
Q42.2812 40.5781 41.1875 42.625
Q40.0938 44.6719 38.0312 45.8438
Q36.0781 46.9688 33.3438 47.3594
Q30.6094 47.75 27.6406 47.75
Q24.0312 47.75 19.5781 46.7969
Q15.1406 45.8438 10.4062 44.0469
L9.90625 44.0469
L9.90625 53.375
Q12.5938 54.1094 17.6719 54.9844
Q22.75 55.8594 27.6875 55.8594
Q33.4531 55.8594 37.7188 54.9062
Q42 53.9531 45.125 51.6562
Q48.1875 49.4219 49.7969 45.8438
Q51.4219 42.2812 51.4219 37.0156
z

M42.2812 13.4219
L42.2812 28.6094
Q38.0938 28.375 32.3906 27.875
Q26.7031 27.3906 23.3906 26.4688
Q19.4375 25.3438 16.9844 22.9688
Q14.5469 20.6094 14.5469 16.4531
Q14.5469 11.7656 17.375 9.39062
Q20.2188 7.03125 26.0312 7.03125
Q30.8594 7.03125 34.8594 8.90625
Q38.875 10.7969 42.2812 13.4219" id="Verdana-61"/>
      <path d="
M61.625 64.1094
L35.6406 64.1094
L35.6406 0
L25.9844 0
L25.9844 64.1094
L0 64.1094
L0 72.7031
L61.625 72.7031
z
" id="Verdana-54"/>
     </defs>
     <g transform="translate(42.345 291.2503125)rotate(-90.0)scale(0.12 -0.12)">
      <use xlink:href="#Verdana-44"/>
      <use x="77.05078125" xlink:href="#Verdana-61"/>
      <use x="137.109375" xlink:href="#Verdana-74"/>
      <use x="176.513671875" xlink:href="#Verdana-61"/>
      <use x="236.572265625" xlink:href="#Verdana-20"/>
      <use x="271.728515625" xlink:href="#Verdana-50"/>
      <use x="332.03125" xlink:href="#Verdana-72"/>
      <use x="374.70703125" xlink:href="#Verdana-6f"/>
      <use x="435.400390625" xlink:href="#Verdana-66"/>
      <use x="470.556640625" xlink:href="#Verdana-69"/>
      <use x="497.998046875" xlink:href="#Verdana-6c"/>
      <use x="525.439453125" xlink:href="#Verdana-65"/>
      <use x="585.009765625" xlink:href="#Verdana-20"/>
      <use x="620.166015625" xlink:href="#Verdana-54"/>
      <use x="674.412109375" xlink:href="#Verdana-2d"/>
      <use x="719.822265625" xlink:href="#Verdana-30"/>
      <use x="783.396484375" xlink:href="#Verdana-2e"/>
      <use x="819.7734375" xlink:href="#Verdana-30"/>
      <use x="883.34765625" xlink:href="#Verdana-30"/>
      <use x="946.921875" xlink:href="#Verdana-30"/>
      <use x="1010.49609375" xlink:href="#Verdana-30"/>
      <use x="1074.0703125" xlink:href="#Verdana-30"/>
      <use x="1137.64453125" xlink:href="#Verdana-30"/>
      <use x="1201.21875" xlink:href="#Verdana-31"/>
     </g>
    </g>
   </g>
   <g id="patch_3">
    <path d="
M72 388.8
L518.4 388.8" style="fill:none;stroke:#000000;"/>
   </g>
   <g id="patch_4">
    <path d="
M518.4 388.8
L518.4 43.2" style="fill:none;stroke:#000000;"/>
   </g>
   <g id="patch_5">
    <path d="
M72 388.8
L72 43.2" style="fill:none;stroke:#000000;"/>
   </g>
   <g id="patch_6">
    <path d="
M72 43.2
L518.4 43.2" style="fill:none;stroke:#000000;"/>
   </g>
   <g id="text_15">
    <!-- Adjiman Data Profile T-0.0000001 -->
    <defs>
     <path d="
M67.0938 0
L56.7812 0
L49.6562 20.2656
L18.2188 20.2656
L11.0781 0
L1.26562 0
L27.7344 72.7031
L40.625 72.7031
z

M46.6875 28.5625
L33.9375 64.2656
L21.1406 28.5625
z
" id="Verdana-41"/>
     <path d="
M53.2656 0
L44.0938 0
L44.0938 5.71875
Q40.1406 2.29688 35.8438 0.390625
Q31.5469 -1.51562 26.5156 -1.51562
Q16.75 -1.51562 11.0156 6
Q5.28125 13.5312 5.28125 26.8594
Q5.28125 33.7969 7.25 39.2031
Q9.23438 44.625 12.5938 48.4375
Q15.9219 52.1562 20.3281 54.1094
Q24.75 56.0625 29.5 56.0625
Q33.7969 56.0625 37.1094 55.1562
Q40.4375 54.25 44.0938 52.3438
L44.0938 75.9844
L53.2656 75.9844
z

M44.0938 13.4219
L44.0938 44.7344
Q40.375 46.3906 37.4375 47.0156
Q34.5156 47.6562 31.0625 47.6562
Q23.3438 47.6562 19.0469 42.2812
Q14.75 36.9219 14.75 27.0469
Q14.75 17.3281 18.0625 12.2812
Q21.3906 7.23438 28.7188 7.23438
Q32.625 7.23438 36.625 8.95312
Q40.625 10.6875 44.0938 13.4219" id="Verdana-64"/>
     <path d="
M88.625 0
L79.4375 0
L79.4375 31.0625
Q79.4375 34.5781 79.125 37.8438
Q78.8125 41.1094 77.7812 43.0625
Q76.6562 45.1719 74.5625 46.2344
Q72.4688 47.3125 68.5 47.3125
Q64.6562 47.3125 60.7969 45.375
Q56.9375 43.4531 53.0781 40.4844
Q53.2188 39.3594 53.3125 37.8594
Q53.4219 36.375 53.4219 34.9062
L53.4219 0
L44.2344 0
L44.2344 31.0625
Q44.2344 34.6719 43.9219 37.9062
Q43.6094 41.1562 42.5781 43.1094
Q41.4531 45.2188 39.3438 46.2656
Q37.25 47.3125 33.2969 47.3125
Q29.5469 47.3125 25.75 45.4531
Q21.9688 43.6094 18.2188 40.7188
L18.2188 0
L9.03125 0
L9.03125 54.5469
L18.2188 54.5469
L18.2188 48.4844
Q22.5156 52.0469 26.7812 54.0469
Q31.0625 56.0625 35.8906 56.0625
Q41.4531 56.0625 45.3281 53.7188
Q49.2188 51.375 51.125 47.2188
Q56.6875 51.9062 61.2812 53.9844
Q65.875 56.0625 71.0938 56.0625
Q80.0781 56.0625 84.3438 50.6094
Q88.625 45.1719 88.625 35.4062
z
" id="Verdana-6d"/>
    </defs>
    <g transform="translate(172.62225 38.2)scale(0.144 -0.144)">
     <use xlink:href="#Verdana-41"/>
     <use x="68.359375" xlink:href="#Verdana-64"/>
     <use x="130.6640625" xlink:href="#Verdana-6a"/>
     <use x="165.087890625" xlink:href="#Verdana-69"/>
     <use x="192.529296875" xlink:href="#Verdana-6d"/>
     <use x="289.794921875" xlink:href="#Verdana-61"/>
     <use x="349.853515625" xlink:href="#Verdana-6e"/>
     <use x="413.134765625" xlink:href="#Verdana-20"/>
     <use x="448.291015625" xlink:href="#Verdana-44"/>
     <use x="525.341796875" xlink:href="#Verdana-61"/>
     <use x="585.400390625" xlink:href="#Verdana-74"/>
     <use x="624.8046875" xlink:href="#Verdana-61"/>
     <use x="684.86328125" xlink:href="#Verdana-20"/>
     <use x="720.01953125" xlink:href="#Verdana-50"/>
     <use x="780.322265625" xlink:href="#Verdana-72"/>
     <use x="822.998046875" xlink:href="#Verdana-6f"/>
     <use x="883.69140625" xlink:href="#Verdana-66"/>
     <use x="918.84765625" xlink:href="#Verdana-69"/>
     <use x="946.2890625" xlink:href="#Verdana-6c"/>
     <use x="973.73046875" xlink:href="#Verdana-65"/>
     <use x="1033.30078125" xlink:href="#Verdana-20"/>
     <use x="1068.45703125" xlink:href="#Verdana-54"/>
     <use x="1122.703125" xlink:href="#Verdana-2d"/>
     <use x="1168.11328125" xlink:href="#Verdana-30"/>
     <use x="1231.6875" xlink:href="#Verdana-2e"/>
     <use x="1268.064453125" xlink:href="#Verdana-30"/>
     <use x="1331.638671875" xlink:href="#Verdana-30"/>
     <use x="1395.212890625" xlink:href="#Verdana-30"/>
     <use x="1458.787109375" xlink:href="#Verdana-30"/>
     <use x="1522.361328125" xlink:href="#Verdana-30"/>
     <use x="1585.935546875" xlink:href="#Verdana-30"/>
     <use x="1649.509765625" xlink:href="#Verdana-31"/>
    </g>
   </g>
   <g id="legend_1">
    <g id="patch_7">
     <path d="
M407.18 270.759
L511.2 270.759
L511.2 161.241
L407.18 161.241
L407.18 270.759
z
" style="fill:#ffffff;stroke:#000000;"/>
    </g>
    <g id="line2d_30">
     <path d="
M417.26 172.902
L437.42 172.902" style="fill:none;stroke:#0000ff;stroke-dasharray:6.000000,2.000000;stroke-dashoffset:0.0;"/>
    </g>
    <g id="line2d_31"/>
    <g id="text_16">
     <!-- AMPGO -->
     <defs>
      <path d="
M74.5156 0
L64.8438 0
L64.8438 62.6406
L44.625 20.0156
L38.875 20.0156
L18.7969 62.6406
L18.7969 0
L9.76562 0
L9.76562 72.7031
L22.9531 72.7031
L42.3281 32.2344
L61.0781 72.7031
L74.5156 72.7031
z
" id="Verdana-4d"/>
      <path d="
M70.4062 5.375
Q64.4531 2.64062 57.3906 0.609375
Q50.3438 -1.42188 43.75 -1.42188
Q35.25 -1.42188 28.1719 0.921875
Q21.0938 3.26562 16.1094 7.95312
Q11.0781 12.7031 8.34375 19.7969
Q5.60938 26.9062 5.60938 36.4219
Q5.60938 53.8594 15.7969 63.9375
Q25.9844 74.0312 43.75 74.0312
Q49.9531 74.0312 56.4219 72.5312
Q62.8906 71.0469 70.3594 67.4844
L70.3594 56
L69.4844 56
Q67.9688 57.1719 65.0781 59.0781
Q62.2031 60.9844 59.4219 62.25
Q56.0625 63.7656 51.7812 64.7656
Q47.5156 65.7656 42.0938 65.7656
Q29.8906 65.7656 22.7812 57.9219
Q15.6719 50.0938 15.6719 36.7188
Q15.6719 22.6094 23.0938 14.7656
Q30.5156 6.9375 43.3125 6.9375
Q48 6.9375 52.6562 7.85938
Q57.3281 8.79688 60.8438 10.25
L60.8438 28.0781
L41.3594 28.0781
L41.3594 36.5781
L70.4062 36.5781
z
" id="Verdana-47"/>
     </defs>
     <g transform="translate(453.26025 177.942375)scale(0.144 -0.144)">
      <use xlink:href="#Verdana-41"/>
      <use x="68.359375" xlink:href="#Verdana-4d"/>
      <use x="152.63671875" xlink:href="#Verdana-50"/>
      <use x="212.939453125" xlink:href="#Verdana-47"/>
      <use x="290.478515625" xlink:href="#Verdana-4f"/>
     </g>
    </g>
    <g id="line2d_32">
     <path d="
M417.26 193.942
L437.42 193.942" style="fill:none;stroke:#008000;stroke-dasharray:1.000000,1.000000;stroke-dashoffset:0.0;"/>
    </g>
    <g id="line2d_33"/>
    <g id="text_17">
     <!-- Anneal -->
     <g transform="translate(453.26025 198.982125)scale(0.144 -0.144)">
      <use xlink:href="#Verdana-41"/>
      <use x="68.359375" xlink:href="#Verdana-6e"/>
      <use x="131.640625" xlink:href="#Verdana-6e"/>
      <use x="194.921875" xlink:href="#Verdana-65"/>
      <use x="254.4921875" xlink:href="#Verdana-61"/>
      <use x="314.55078125" xlink:href="#Verdana-6c"/>
     </g>
    </g>
    <g id="line2d_34">
     <path d="
M417.26 214.982
L437.42 214.982" style="fill:none;stroke:#ff0000;stroke-dasharray:3.000000,6.000000;stroke-dashoffset:0.0;"/>
    </g>
    <g id="line2d_35"/>
    <g id="text_18">
     <!-- BSA -->
     <defs>
      <path d="
M62.5938 20.75
Q62.5938 16.5 60.6094 12.3438
Q58.6406 8.20312 55.0781 5.32812
Q51.1719 2.20312 45.9688 0.4375
Q40.7656 -1.3125 33.4531 -1.3125
Q25.5938 -1.3125 19.3125 0.140625
Q13.0312 1.60938 6.54688 4.5
L6.54688 16.6094
L7.23438 16.6094
Q12.75 12.0156 19.9688 9.51562
Q27.2031 7.03125 33.5469 7.03125
Q42.5312 7.03125 47.5312 10.3906
Q52.5469 13.7656 52.5469 19.3906
Q52.5469 24.2188 50.1719 26.5156
Q47.7969 28.8125 42.9688 30.0781
Q39.3125 31.0625 35.0312 31.6875
Q30.7656 32.3281 25.9844 33.2969
Q16.3125 35.3594 11.6406 40.3125
Q6.98438 45.2656 6.98438 53.2188
Q6.98438 62.3594 14.6875 68.1875
Q22.4062 74.0312 34.2812 74.0312
Q41.9375 74.0312 48.3281 72.5625
Q54.7344 71.0938 59.6719 68.9531
L59.6719 57.5156
L58.9844 57.5156
Q54.8281 61.0312 48.0625 63.3438
Q41.3125 65.6719 34.2344 65.6719
Q26.4688 65.6719 21.75 62.4531
Q17.0469 59.2344 17.0469 54.1562
Q17.0469 49.6094 19.3906 47.0156
Q21.7344 44.4375 27.6406 43.0625
Q30.7656 42.3906 36.5156 41.4062
Q42.2812 40.4375 46.2969 39.4062
Q54.3906 37.25 58.4844 32.9062
Q62.5938 28.5625 62.5938 20.75" id="Verdana-53"/>
      <path d="
M64.5938 22.3594
Q64.5938 16.9375 62.5469 12.7812
Q60.5 8.64062 57.0312 5.95312
Q52.9375 2.73438 48.0156 1.35938
Q43.1094 0 35.5469 0
L9.76562 0
L9.76562 72.7031
L31.2969 72.7031
Q39.2656 72.7031 43.2188 72.1094
Q47.1719 71.5312 50.7812 69.6719
Q54.7812 67.5781 56.5938 64.2812
Q58.4062 60.9844 58.4062 56.3906
Q58.4062 51.2188 55.7656 47.5781
Q53.125 43.9531 48.7344 41.75
L48.7344 41.3594
Q56.1094 39.8438 60.3438 34.8906
Q64.5938 29.9375 64.5938 22.3594
M48.3438 55.125
Q48.3438 57.7656 47.4531 59.5625
Q46.5781 61.375 44.625 62.5
Q42.3281 63.8125 39.0625 64.125
Q35.7969 64.4531 30.9531 64.4531
L19.4375 64.4531
L19.4375 43.4531
L31.9375 43.4531
Q36.4688 43.4531 39.1562 43.9219
Q41.8438 44.3906 44.1406 45.8438
Q46.4375 47.3125 47.3906 49.625
Q48.3438 51.9531 48.3438 55.125
M54.5469 21.9688
Q54.5469 26.375 53.2188 28.9531
Q51.9062 31.5469 48.4375 33.3438
Q46.0938 34.5781 42.75 34.9375
Q39.4062 35.2969 34.625 35.2969
L19.4375 35.2969
L19.4375 8.25
L32.2344 8.25
Q38.5781 8.25 42.625 8.90625
Q46.6875 9.57812 49.2656 11.3281
Q52 13.2344 53.2656 15.6719
Q54.5469 18.1094 54.5469 21.9688" id="Verdana-42"/>
     </defs>
     <g transform="translate(453.26025 220.021875)scale(0.144 -0.144)">
      <use xlink:href="#Verdana-42"/>
      <use x="68.5546875" xlink:href="#Verdana-53"/>
      <use x="135.9140625" xlink:href="#Verdana-41"/>
     </g>
    </g>
    <g id="line2d_36">
     <path d="
M417.26 236.022
L437.42 236.022" style="fill:none;stroke:#00bfbf;stroke-dasharray:5.000000,1.000000,2.000000,1.000000,5.000000,1.000000;stroke-dashoffset:0.0;"/>
    </g>
    <g id="line2d_37"/>
    <g id="text_19">
     <!-- Cuckoo -->
     <defs>
      <path d="
M58.5469 0
L46.4375 0
L24.5625 23.875
L18.6094 18.2188
L18.6094 0
L9.42188 0
L9.42188 75.9844
L18.6094 75.9844
L18.6094 27.25
L45.125 54.5469
L56.6875 54.5469
L31.3438 29.3438
z
" id="Verdana-6b"/>
      <path d="
M65.9219 5.28125
Q63.2344 4.10938 61.0625 3.07812
Q58.8906 2.04688 55.375 0.921875
Q52.3906 0 48.8906 -0.65625
Q45.4062 -1.3125 41.2188 -1.3125
Q33.2969 -1.3125 26.8281 0.90625
Q20.3594 3.125 15.5781 7.85938
Q10.8906 12.5 8.25 19.6562
Q5.60938 26.8125 5.60938 36.2812
Q5.60938 45.2656 8.14062 52.3438
Q10.6875 59.4219 15.4844 64.3125
Q20.125 69.0469 26.6875 71.5312
Q33.25 74.0312 41.2656 74.0312
Q47.125 74.0312 52.9531 72.6094
Q58.7969 71.1875 65.9219 67.625
L65.9219 56.1562
L65.1875 56.1562
Q59.1875 61.1875 53.2656 63.4688
Q47.3594 65.7656 40.625 65.7656
Q35.1094 65.7656 30.6875 63.9844
Q26.2656 62.2031 22.7969 58.4531
Q19.4375 54.7812 17.5469 49.1875
Q15.6719 43.6094 15.6719 36.2812
Q15.6719 28.6094 17.75 23.0938
Q19.8281 17.5781 23.0938 14.1094
Q26.5156 10.5 31.0781 8.76562
Q35.6406 7.03125 40.7188 7.03125
Q47.7031 7.03125 53.7969 9.42188
Q59.9062 11.8125 65.2344 16.6094
L65.9219 16.6094
z
" id="Verdana-43"/>
     </defs>
     <g transform="translate(453.26025 241.061625)scale(0.144 -0.144)">
      <use xlink:href="#Verdana-43"/>
      <use x="69.82421875" xlink:href="#Verdana-75"/>
      <use x="133.10546875" xlink:href="#Verdana-63"/>
      <use x="185.205078125" xlink:href="#Verdana-6b"/>
      <use x="243.384765625" xlink:href="#Verdana-6f"/>
      <use x="304.078125" xlink:href="#Verdana-6f"/>
     </g>
    </g>
    <g id="line2d_38">
     <path d="
M417.26 257.061
L437.42 257.061" style="fill:none;stroke:#bf00bf;stroke-linecap:square;"/>
    </g>
    <g id="line2d_39"/>
    <g id="text_20">
     <!-- qABC -->
     <defs>
      <path d="
M53.2656 -20.125
L44.0938 -20.125
L44.0938 6.15625
Q39.8438 2.48438 35.6406 0.703125
Q31.4531 -1.07812 26.5625 -1.07812
Q16.8438 -1.07812 11.0625 6.42188
Q5.28125 13.9219 5.28125 27.0938
Q5.28125 34.125 7.29688 39.5156
Q9.32812 44.9219 12.6406 48.5781
Q15.875 52.1562 20.2188 54.1094
Q24.5625 56.0625 29.3906 56.0625
Q33.7969 56.0625 37.1875 55.0781
Q40.5781 54.1094 44.0938 52.2031
L44.6719 54.5469
L53.2656 54.5469
z

M44.0938 13.875
L44.0938 44.7344
Q40.2812 46.4375 37.3438 47.1094
Q34.4219 47.7969 31 47.7969
Q23.0469 47.7969 18.8906 42.4062
Q14.75 37.0156 14.75 27.5469
Q14.75 17.9688 18.0938 12.8125
Q21.4375 7.67188 28.6094 7.67188
Q32.625 7.67188 36.625 9.40625
Q40.625 11.1406 44.0938 13.875" id="Verdana-71"/>
     </defs>
     <g transform="translate(453.26025 262.101375)scale(0.144 -0.144)">
      <use xlink:href="#Verdana-71"/>
      <use x="62.3046875" xlink:href="#Verdana-41"/>
      <use x="130.6640625" xlink:href="#Verdana-42"/>
      <use x="199.21875" xlink:href="#Verdana-43"/>
     </g>
    </g>
   </g>
  </g>
 </g>
 <defs>
  <clipPath id="p7ff5b81e1d">
   <rect height="345.6" width="446.4" x="72.0" y="43.2"/>
  </clipPath>
 </defs>
</svg>
