<?xml version="1.0" encoding="utf-8" standalone="no"?>
<!DOCTYPE svg PUBLIC "-//W3C//DTD SVG 1.1//EN"
  "http://www.w3.org/Graphics/SVG/1.1/DTD/svg11.dtd">
<!-- Created with matplotlib (http://matplotlib.org/) -->
<svg height="432pt" version="1.1" viewBox="0 0 576 432" width="576pt" xmlns="http://www.w3.org/2000/svg" xmlns:xlink="http://www.w3.org/1999/xlink">
 <defs>
  <style type="text/css">
*{stroke-linecap:butt;stroke-linejoin:round;}
  </style>
 </defs>
 <g id="figure_1">
  <g id="patch_1">
   <path d="
M0 432
L576 432
L576 0
L0 0
z
" style="fill:#ffffff;"/>
  </g>
  <g id="axes_1">
   <g id="patch_2">
    <path d="
M72 388.8
L518.4 388.8
L518.4 43.2
L72 43.2
z
" style="fill:#ffffff;"/>
   </g>
   <g id="line2d_1">
    <path clip-path="url(#p7ff5b81e1d)" d="
M72 57.0672
L73.607 57.0672
L73.7856 146.808
L75.2141 146.808
L75.3926 168.722
L76.8211 168.722
L76.9997 234.424
L78.4282 234.424
L78.6067 245.859
L80.0352 245.859
L80.2138 258.761
L81.6422 258.761
L81.8208 268.03
L83.2493 268.03
L83.4278 276.173
L84.8563 276.173
L85.0349 282.808
L86.4634 282.808
L86.6419 288.722
L88.0704 288.722
L88.249 293.819
L89.6774 293.819
L89.856 298.724
L91.2845 298.724
L91.463 303.436
L92.8915 303.436
L93.0701 307.024
L94.4986 307.024
L94.6771 310.51
L96.1056 310.51
L96.2842 313.491
L97.7126 313.491
L97.8912 316.376
L99.3197 316.376
L99.4982 318.8
L100.927 318.8
L101.105 321.263
L102.534 321.263
L102.712 323.369
L104.141 323.369
L104.319 325.621
L105.748 325.621
L105.926 327.268
L107.355 327.268
L107.533 329.031
L108.962 329.031
L109.14 330.581
L110.569 330.581
L110.748 332.047
L112.176 332.047
L112.355 333.37
L113.783 333.37
L113.962 334.625
L115.39 334.625
L115.569 335.802
L116.997 335.802
L117.176 336.855
L118.604 336.855
L118.783 337.97
L120.211 337.97
L120.39 338.997
L121.818 338.997
L121.997 339.971
L123.425 339.971
L123.604 340.836
L125.032 340.836
L125.211 341.817
L126.639 341.817
L126.818 342.595
L128.246 342.595
L128.425 343.44
L129.853 343.44
L130.032 344.196
L131.46 344.196
L131.639 344.88
L133.068 344.88
L133.246 345.55
L134.675 345.55
L134.853 346.223
L136.282 346.223
L136.46 346.781
L137.889 346.781
L138.067 347.389
L139.496 347.389
L139.674 348.025
L141.103 348.025
L141.281 348.636
L142.71 348.636
L142.888 349.14
L144.317 349.14
L144.495 349.624
L145.924 349.624
L146.102 350.116
L147.531 350.116
L147.709 350.587
L149.138 350.587
L149.316 351.075
L150.745 351.075
L150.924 351.494
L152.352 351.494
L152.531 352.032
L153.959 352.032
L154.138 352.511
L155.566 352.511
L155.745 352.945
L157.173 352.945
L157.352 353.309
L158.78 353.309
L158.959 353.711
L160.387 353.711
L160.566 354.112
L161.994 354.112
L162.173 354.483
L163.601 354.483
L163.78 354.877
L165.208 354.877
L165.387 355.227
L166.815 355.227
L166.994 355.572
L168.422 355.572
L168.601 355.91
L170.029 355.91
L170.208 356.275
L171.636 356.275
L171.815 356.653
L173.244 356.653
L173.422 356.988
L174.851 356.988
L175.029 357.377
L176.458 357.377
L176.636 357.789
L178.065 357.789
L178.243 358.148
L179.672 358.148
L179.85 358.49
L181.279 358.49
L181.457 358.814
L182.886 358.814
L183.064 359.13
L184.493 359.13
L184.671 359.378
L186.1 359.382
L186.278 359.649
L187.707 359.649
L187.885 359.902
L189.314 359.902
L189.492 360.135
L190.921 360.14
L191.1 360.436
L192.528 360.436
L192.707 360.691
L194.135 360.691
L194.314 360.939
L195.742 360.942
L195.921 361.195
L197.349 361.197
L197.528 361.387
L198.956 361.387
L199.135 361.663
L200.563 361.663
L200.742 361.846
L202.17 361.846
L202.349 362.04
L203.777 362.04
L203.956 362.274
L205.384 362.275
L205.563 362.515
L206.991 362.515
L207.17 362.74
L208.598 362.74
L208.777 362.956
L210.205 362.959
L210.384 363.154
L211.812 363.154
L211.991 363.322
L213.241 363.336
L213.42 363.336
L213.598 363.521
L215.027 363.521
L215.205 363.716
L216.634 363.721
L216.812 363.916
L218.241 363.916
L218.419 364.119
L219.848 364.119
L220.026 364.279
L221.455 364.293
L221.633 364.468
L222.348 364.483
L223.062 364.483
L223.24 364.669
L224.669 364.671
L224.847 364.848
L226.276 364.848
L226.454 365.068
L227.883 365.068
L228.061 365.222
L229.49 365.222
L229.668 365.41
L231.097 365.411
L231.276 365.566
L232.704 365.566
L232.883 365.753
L234.311 365.761
L234.49 365.902
L235.918 365.903
L236.097 366.03
L239.132 366.212
L239.311 366.38
L240.739 366.386
L240.918 366.523
L241.632 366.538
L242.346 366.538
L242.525 366.654
L243.953 366.654
L244.132 366.769
L245.471 366.777
L245.56 366.777
L245.739 366.891
L247.167 366.894
L247.346 367.024
L248.774 367.025
L248.953 367.149
L251.988 367.248
L252.167 367.345
L255.203 367.452
L255.381 367.585
L256.81 367.589
L256.988 367.724
L260.024 367.824
L260.202 367.934
L263.238 368.056
L263.416 368.164
L266.452 368.279
L266.63 368.381
L268.237 368.492
L269.666 368.499
L269.844 368.619
L272.88 368.729
L273.059 368.834
L274.576 368.945
L277.701 369.063
L277.88 369.152
L280.737 369.241
L280.915 369.241
L281.094 369.352
L284.129 369.434
L284.308 369.529
L287.343 369.611
L287.522 369.704
L290.557 369.783
L290.736 369.867
L293.772 369.938
L293.95 370.013
L296.986 370.114
L297.164 370.198
L300.2 370.27
L300.378 370.362
L303.414 370.438
L303.592 370.534
L308.235 370.658
L308.503 370.72
L314.663 370.951
L314.931 371.023
L346.625 372.216
L348.5 372.326
L351.179 372.389
L354.125 372.497
L356 372.569
L359.66 372.675
L359.928 372.72
L364.481 372.81
L364.749 372.873
L365.731 372.887
L367.695 372.946
L367.874 373.019
L371.713 373.122
L372.249 373.141
L374.748 373.243
L375.641 373.255
L378.945 373.357
L379.302 373.401
L383.766 373.494
L384.123 373.53
L388.587 373.64
L388.944 373.679
L403.05 373.982
L403.407 374.015
L411.085 374.14
L411.621 374.162
L417.603 374.274
L430.37 374.465
L430.906 374.488
L436.798 374.581
L437.155 374.611
L446.44 374.753
L446.976 374.78
L453.136 374.891
L491.17 375.38
L507.686 375.541
L518.311 375.63
L518.311 375.63" style="fill:none;stroke:#0000ff;stroke-dasharray:6.000000,2.000000;stroke-dashoffset:0.0;"/>
   </g>
   <g id="line2d_2">
    <path clip-path="url(#p7ff5b81e1d)" d="
M72 55.4089
L73.5178 130.34
L74.4106 163.589
L75.3034 189.517
L76.9104 227.531
L79.0531 263.532
L81.2851 291.342
L82.0886 298.522
L84.0528 314.355
L85.5706 324.554
L86.4634 329.464
L86.9098 331.965
L87.8918 336.462
L88.3382 338.538
L90.7488 347.56
L93.0701 354.09
L93.9629 356.166
L94.5878 357.381
L95.0342 358.452
L96.3734 360.989
L96.6413 361.423
L100.927 367.368
L101.552 368.128
L103.605 370.565
L104.052 370.968
L106.73 373.421
L111.105 376.252
L111.73 376.601
L112.176 376.833
L112.801 377.162
L114.497 378.031
L116.015 378.62
L119.318 379.794
L120.122 380.032
L120.568 380.188
L123.068 380.891
L124.407 381.23
L124.764 381.334
L125.657 381.569
L128.693 382.252
L130.032 382.459
L134.942 383.296
L135.924 383.447
L136.996 383.609
L139.942 384.014
L141.46 384.215
L143.96 384.43
L147.977 384.842
L161.637 385.816
L169.226 386.192
L172.172 386.323
L175.743 386.468
L184.314 386.741
L201.367 387.159
L211.188 387.346
L216.455 387.441
L228.419 387.604
L237.972 387.744
L254.845 387.917
L405.282 388.506
L518.311 388.63
L518.311 388.63" style="fill:none;stroke:#008000;stroke-dasharray:1.000000,1.000000;stroke-dashoffset:0.0;"/>
   </g>
   <g id="line2d_3">
    <path clip-path="url(#p7ff5b81e1d)" d="
M72 56.1407
L72.0893 93.3989
L72.2678 123.248
L72.625 148.363
L73.0714 162.468
L73.6963 174.825
L74.0534 176.123
L76.1069 182.421
L76.1962 182.537
L76.5533 183.465
L76.8211 184.032
L77.4461 185.82
L78.1603 188.09
L78.5174 189.125
L79.0531 190.486
L80.0352 193.137
L80.1245 193.231
L80.5709 194.52
L80.7494 194.796
L82.1779 198.863
L82.4458 199.421
L83.16 201.557
L83.5171 202.31
L83.785 202.955
L83.8742 203.086
L84.1421 203.803
L84.3206 204.118
L84.9456 205.742
L85.2134 206.509
L85.5706 207.477
L85.8384 208.242
L86.3741 209.29
L88.9632 213.874
L89.231 214.399
L89.5882 215.024
L89.7667 215.269
L90.0346 215.933
L90.7488 217.812
L91.1952 218.568
L91.463 218.963
L92.088 220.402
L92.3558 220.895
L93.8736 224.167
L96.1949 228.358
L96.4627 228.849
L97.0877 229.965
L97.177 230.011
L97.7126 231.013
L97.9805 231.501
L98.6054 232.502
L100.837 236.207
L101.373 237.096
L102.802 239.214
L104.052 240.88
L104.676 241.947
L104.944 242.272
L105.301 242.77
L106.284 244.136
L106.551 244.619
L112.712 253.308
L112.89 253.495
L113.604 254.772
L113.872 255.078
L114.408 255.731
L116.819 258.85
L117.533 259.576
L119.318 261.712
L119.586 262.052
L120.211 262.781
L120.479 263.078
L120.747 263.465
L123.604 266.304
L123.872 266.564
L126.639 269.519
L129.407 272.679
L129.853 273.148
L130.389 273.667
L130.746 274.087
L131.907 275.238
L132.621 275.879
L133.068 276.49
L133.871 277.26
L135.746 278.878
L136.192 279.133
L136.639 279.683
L137.532 280.493
L137.889 280.726
L138.424 281.228
L139.585 282.015
L141.281 283.606
L142.353 284.22
L143.781 285.325
L144.138 285.601
L145.388 286.647
L145.924 287.094
L146.281 287.323
L149.227 289.459
L149.674 289.764
L150.299 290.248
L152.084 291.489
L152.531 291.881
L153.245 292.482
L153.691 292.745
L156.459 294.288
L156.905 294.636
L157.62 294.998
L158.244 295.361
L158.512 295.485
L159.494 296.145
L160.119 296.551
L161.28 297.268
L161.905 297.666
L162.441 297.98
L162.798 298.21
L163.244 298.497
L163.691 298.801
L165.565 299.902
L166.19 300.31
L166.637 300.5
L168.155 301.479
L168.69 301.807
L170.029 302.644
L170.387 302.806
L171.012 303.203
L171.636 303.516
L174.315 305.204
L174.94 305.548
L175.565 305.87
L176.011 306.066
L176.458 306.25
L177.529 306.77
L177.797 306.956
L179.404 307.759
L180.118 308.228
L181.279 308.693
L182.618 309.338
L183.243 309.616
L183.779 309.823
L184.404 310.13
L185.475 310.632
L185.743 310.78
L186.189 310.964
L188.332 312.052
L188.778 312.399
L189.403 312.737
L190.564 313.288
L191.278 313.62
L193.867 314.888
L194.849 315.313
L195.117 315.445
L195.474 315.626
L195.831 315.787
L196.546 316.079
L197.706 316.644
L198.599 317.018
L199.224 317.24
L199.581 317.376
L199.938 317.557
L200.474 317.79
L200.92 318.008
L202.706 318.781
L203.242 318.992
L205.474 319.889
L208.152 320.894
L208.598 321.074
L209.402 321.4
L210.027 321.629
L211.991 322.398
L213.062 322.694
L223.151 326.117
L223.597 326.25
L224.401 326.501
L224.937 326.654
L226.008 327.007
L227.526 327.468
L227.794 327.639
L228.954 328.069
L229.758 328.356
L236.275 330.554
L236.989 330.728
L237.525 330.925
L243.953 332.869
L244.846 333.08
L246.364 333.581
L248.239 334.158
L249.846 334.594
L251.006 334.935
L260.916 337.389
L262.881 337.859
L265.291 338.351
L266.809 338.724
L267.97 339.019
L269.041 339.286
L269.844 339.461
L275.648 340.744
L276.362 340.955
L278.058 341.298
L278.505 341.432
L279.665 341.615
L280.737 341.856
L288.325 343.307
L289.04 343.43
L289.665 343.625
L290.557 343.818
L292.164 344.175
L293.504 344.456
L294.218 344.654
L295.914 344.991
L297.432 345.357
L303.324 346.487
L304.396 346.635
L305.646 346.885
L320.198 349.697
L325.287 350.632
L330.287 351.366
L331.091 351.495
L332.34 351.687
L332.876 351.77
L333.769 351.885
L334.305 352.002
L335.733 352.241
L337.162 352.418
L340.822 352.94
L341.983 353.13
L343.5 353.383
L344.75 353.54
L345.554 353.669
L346.536 353.793
L348.947 354.166
L350.018 354.34
L351.268 354.506
L383.052 358.643
L386.801 359.064
L412.692 362.085
L415.014 362.364
L416.621 362.536
L423.763 363.31
L425.817 363.479
L427.334 363.641
L435.637 364.403
L440.994 364.918
L443.583 365.206
L445.012 365.346
L446.172 365.441
L453.493 366.075
L454.743 366.207
L458.404 366.498
L460.1 366.647
L464.386 366.912
L465.1 366.985
L467.064 367.174
L480.277 368.193
L484.206 368.472
L486.527 368.649
L488.759 368.808
L492.866 369.078
L518.311 370.823
L518.311 370.823" style="fill:none;stroke:#ff0000;stroke-dasharray:3.000000,6.000000;stroke-dashoffset:0.0;"/>
   </g>
   <g id="line2d_4">
    <path clip-path="url(#p7ff5b81e1d)" d="
M72 55.1182
L72.0893 93.3697
L72.1786 111.684
L72.5357 141.956
L72.9821 159.502
L73.5178 170.914
L73.7856 173.736
L75.1248 175.401
L75.4819 175.913
L75.839 178.406
L77.4461 185.376
L77.8925 186.111
L78.1603 186.541
L78.5174 187.096
L79.1424 188.466
L80.928 195.844
L82.0886 197.438
L82.3565 198.001
L82.7136 198.457
L84.4992 204.448
L85.0349 205.246
L86.2848 207.22
L86.6419 208.125
L87.3562 209.716
L87.8026 210.952
L88.7846 212.573
L89.9453 214.254
L90.3917 215.304
L90.6595 215.769
L91.9987 218.561
L93.0701 220.021
L94.4986 222.421
L95.2128 223.876
L96.4627 225.441
L96.9984 226.282
L97.9805 228.263
L98.8733 229.52
L99.409 230.145
L99.7661 230.528
L100.123 230.934
L100.57 231.4
L102.891 234.578
L103.248 235.02
L103.784 235.723
L103.962 235.881
L104.587 236.839
L105.212 237.562
L105.569 237.985
L107.444 240.306
L108.605 241.469
L108.873 241.741
L110.48 243.489
L111.015 244.222
L114.051 247.321
L114.676 248.029
L115.212 248.55
L116.015 249.359
L116.283 249.518
L117.176 250.503
L117.89 251.339
L118.336 251.873
L120.122 253.157
L121.015 254.311
L121.55 254.754
L121.997 255.212
L123.604 256.48
L123.782 256.652
L124.229 257.202
L125.925 258.91
L126.729 259.442
L127.354 259.866
L127.532 260.052
L129.586 261.792
L131.371 263.007
L132.621 264.236
L134.407 265.099
L135.389 266.12
L137.532 267.541
L137.978 267.683
L139.496 269.088
L139.942 269.346
L140.478 269.649
L140.835 269.767
L141.103 269.927
L141.281 269.98
L141.817 270.393
L143.335 271.671
L143.96 271.861
L145.21 272.339
L145.745 272.781
L146.102 273
L146.727 273.469
L147.531 273.87
L148.781 274.304
L150.031 275.354
L150.299 275.557
L150.656 275.707
L151.191 275.911
L151.816 276.114
L152.263 276.201
L152.709 276.682
L154.316 277.961
L155.834 278.431
L156.28 278.787
L156.727 279.166
L156.995 279.307
L157.53 279.729
L157.887 279.857
L158.691 280.097
L159.316 280.232
L159.494 280.31
L161.459 281.798
L162.084 281.973
L162.441 282.117
L163.066 282.293
L163.691 282.791
L164.316 283.238
L164.583 283.452
L165.119 283.687
L166.369 283.977
L167.619 284.77
L168.244 285.196
L168.601 285.359
L169.137 285.533
L170.387 285.943
L171.101 286.334
L172.44 287.068
L173.958 287.508
L175.476 288.473
L176.458 288.708
L177.083 288.822
L177.529 289.044
L178.065 289.414
L178.422 289.705
L178.6 289.839
L179.225 290.176
L179.761 290.289
L181.279 290.664
L182.082 291.254
L182.439 291.53
L182.886 291.71
L184.404 291.916
L186.278 293.14
L187.171 293.331
L188.153 293.524
L188.957 294.004
L189.85 294.442
L190.832 294.641
L192.082 295.022
L192.707 295.408
L193.242 295.66
L193.778 295.762
L195.206 295.921
L195.653 296.279
L196.188 296.564
L196.456 296.72
L197.528 297.028
L198.331 297.138
L198.867 297.294
L200.385 298.304
L200.742 298.349
L201.188 298.4
L202.26 298.584
L204.313 299.676
L205.831 299.858
L206.545 300.276
L207.616 300.825
L209.491 301.085
L211.188 302.046
L213.152 302.361
L213.777 302.679
L214.848 303.16
L216.544 303.329
L217.169 303.699
L218.866 304.446
L220.383 304.724
L220.919 304.978
L222.08 305.499
L224.222 305.923
L224.847 306.25
L225.383 306.438
L225.829 306.509
L227.347 306.622
L228.151 307
L228.776 307.304
L229.847 307.538
L230.829 307.632
L231.633 308.043
L233.15 308.528
L234.668 308.735
L236.097 309.421
L236.543 309.491
L238.061 309.639
L239.489 310.291
L239.846 310.429
L240.65 310.5
L241.721 310.62
L242.257 310.923
L242.703 311.091
L243.507 311.36
L245.382 311.579
L245.828 311.776
L247.346 312.3
L248.774 312.465
L250.024 313.072
L251.988 313.355
L252.435 313.439
L253.238 313.831
L255.738 314.189
L256.095 314.304
L257.792 314.881
L259.488 315.022
L260.47 315.382
L262.077 315.721
L263.059 315.811
L263.773 316.145
L265.202 316.482
L266.63 316.603
L267.791 317.092
L268.684 317.41
L270.023 317.477
L270.38 317.569
L271.63 318.113
L274.755 318.664
L276.183 318.912
L277.433 319.002
L279.933 319.59
L281.094 319.695
L282.522 320.119
L282.879 320.165
L284.844 320.395
L285.647 320.669
L287.254 320.888
L288.325 321.062
L288.683 321.209
L289.932 321.542
L291.629 321.647
L292.254 321.914
L293.772 322.288
L295.2 322.386
L296.361 322.787
L296.896 322.975
L297.7 323.022
L298.86 323.139
L299.218 323.281
L301.628 323.674
L302.521 323.777
L304.574 324.286
L306.539 324.592
L307.61 324.968
L309.842 325.181
L311.36 325.556
L313.145 325.667
L314.127 325.961
L315.645 326.159
L316.716 326.264
L318.056 326.708
L318.502 326.814
L321.091 327.164
L322.163 327.381
L323.948 327.523
L324.752 327.783
L326.18 327.993
L327.609 328.12
L329.305 328.543
L331.358 328.764
L332.519 329.07
L333.769 329.114
L334.662 329.217
L335.912 329.495
L336.626 329.55
L338.412 329.751
L340.197 330.134
L341.804 330.223
L343.858 330.626
L345.554 330.762
L347.161 331.197
L348.947 331.289
L349.482 331.453
L353.143 331.916
L354.393 332.116
L356.535 332.288
L357.25 332.478
L358.589 332.599
L360.285 332.833
L361.178 333.001
L363.321 333.15
L364.303 333.354
L365.017 333.482
L366.803 333.576
L368.499 333.915
L369.749 333.964
L370.642 334.079
L372.07 334.342
L374.124 334.472
L374.927 334.641
L375.909 334.766
L377.427 334.862
L379.212 335.261
L381.444 335.393
L382.962 335.641
L385.105 335.774
L386.087 335.986
L386.712 336.028
L388.408 336.144
L390.194 336.459
L392.962 336.821
L393.497 336.901
L395.551 337.019
L397.515 337.329
L398.943 337.428
L400.908 337.711
L402.693 337.818
L404.925 338.138
L406.532 338.262
L407.514 338.435
L408.407 338.467
L410.371 338.667
L414.657 339.123
L415.103 339.163
L416.889 339.253
L418.139 339.551
L419.031 339.61
L420.549 339.721
L421.085 339.839
L421.71 339.955
L422.424 340.005
L424.21 340.142
L426.084 340.378
L428.316 340.596
L429.656 340.724
L431.441 340.855
L432.423 341.034
L433.316 341.082
L434.923 341.186
L436.977 341.407
L466.171 343.949
L467.153 344.05
L469.117 344.271
L471.082 344.454
L471.617 344.567
L473.314 344.621
L474.296 344.726
L475.724 344.902
L477.956 345.048
L479.652 345.208
L481.349 345.309
L483.402 345.481
L485.009 345.591
L486.259 345.778
L488.402 345.88
L490.723 346.085
L492.33 346.236
L493.491 346.388
L495.901 346.517
L518.311 348.287
L518.311 348.287" style="fill:none;stroke:#00bfbf;stroke-dasharray:5.000000,1.000000,2.000000,1.000000,5.000000,1.000000;stroke-dashoffset:0.0;"/>
   </g>
   <g id="line2d_5">
    <path clip-path="url(#p7ff5b81e1d)" d="
M72 60.474
L72.0893 91.8447
L72.2678 121.93
L72.625 144.139
L73.2499 162.448
L73.8749 171.901
L74.0534 172.351
L74.4106 173.063
L74.5891 173.469
L75.3034 175.571
L75.4819 175.962
L75.9283 186.837
L76.9104 208.509
L77.3568 215.873
L77.6246 216.256
L77.8925 216.494
L78.5174 217.342
L78.696 217.537
L78.8746 218.093
L79.0531 218.274
L80.4816 242.754
L80.928 247.939
L81.0173 247.969
L81.4637 248.747
L81.6422 248.825
L82.4458 249.797
L82.6243 250.006
L83.0707 256.302
L84.4992 272.543
L85.2134 273.045
L85.4813 273.369
L85.7491 273.625
L86.017 274.045
L86.1955 274.178
L86.9098 281.558
L87.1776 284.421
L88.1597 291.58
L89.1418 292.025
L89.4989 292.326
L89.7667 292.551
L90.481 298.979
L90.6595 300.254
L91.5523 307.76
L91.8202 307.836
L92.6237 308.148
L93.3379 308.348
L94.4093 316.075
L95.3021 320.289
L95.5699 320.406
L96.1949 320.561
L96.6413 320.843
L96.9091 320.929
L97.5341 324.715
L98.6947 330.927
L99.7661 331.145
L100.212 331.335
L100.48 331.395
L102.266 339.164
L102.444 339.26
L104.052 339.617
L105.48 344.917
L105.748 345.931
L105.926 346.283
L107.623 346.716
L108.873 350.687
L109.498 352.193
L111.194 352.555
L111.462 353.322
L112.265 355.201
L112.98 357.129
L114.051 357.275
L114.676 357.384
L114.765 357.395
L116.551 361.257
L118.426 361.517
L120.122 364.761
L121.908 364.933
L123.693 367.682
L125.3 367.794
L125.479 367.814
L126.104 368.675
L126.372 368.972
L127.175 370.017
L127.354 370.097
L129.05 370.179
L131.014 371.892
L132.621 371.952
L134.585 373.619
L136.192 373.709
L137.621 374.69
L138.067 375.041
L138.692 375.09
L139.853 375.17
L140.478 375.572
L141.906 376.377
L143.335 376.422
L144.138 377.018
L145.299 377.572
L146.995 377.656
L147.263 377.811
L147.62 378.045
L148.513 378.455
L148.692 378.608
L150.566 378.696
L151.995 379.365
L152.441 379.493
L154.138 379.581
L156.37 380.203
L157.709 380.283
L159.048 380.798
L160.209 380.928
L161.459 380.998
L162.084 381.233
L163.958 381.56
L165.03 381.661
L165.565 381.839
L168.065 382.087
L168.78 382.199
L170.744 382.467
L172.351 382.599
L173.065 382.813
L174.583 382.96
L175.833 383.053
L177.261 383.444
L180.029 383.593
L182.439 383.709
L183.064 383.796
L183.6 383.87
L195.921 384.841
L197.885 384.943
L199.67 385.052
L201.724 385.185
L203.152 385.227
L204.849 385.333
L207.795 385.437
L220.383 386.022
L223.508 386.133
L224.133 386.168
L229.222 386.302
L232.525 386.394
L236.186 386.492
L237.168 386.553
L244.489 386.742
L245.739 386.778
L250.739 386.887
L251.453 386.921
L264.666 387.156
L271.005 387.264
L282.165 387.439
L290.379 387.548
L292.789 387.578
L301.36 387.688
L349.75 388.064
L374.034 388.173
L378.141 388.19
L401.086 388.301
L407.336 388.317
L461.529 388.426
L465.011 388.434
L518.311 388.497
L518.311 388.497" style="fill:none;stroke:#bf00bf;stroke-linecap:square;"/>
   </g>
   <g id="matplotlib.axis_1">
    <g id="xtick_1">
     <g id="line2d_6">
      <defs>
       <path d="
M0 0
L0 -4" id="mc7db9fdffb" style="stroke:#000000;stroke-width:0.5;"/>
      </defs>
      <g>
       <use style="stroke:#000000;stroke-width:0.5;" x="72.0" xlink:href="#mc7db9fdffb" y="388.8"/>
      </g>
     </g>
     <g id="line2d_7">
      <defs>
       <path d="
M0 0
L0 4" id="m5a7d422ac3" style="stroke:#000000;stroke-width:0.5;"/>
      </defs>
      <g>
       <use style="stroke:#000000;stroke-width:0.5;" x="72.0" xlink:href="#m5a7d422ac3" y="43.2"/>
      </g>
     </g>
     <g id="text_1">
      <!-- 0 -->
      <defs>
       <path d="
M56.9844 36.375
Q56.9844 16.7969 50.8594 7.64062
Q44.7344 -1.51562 31.8438 -1.51562
Q18.75 -1.51562 12.7188 7.76562
Q6.6875 17.0469 6.6875 36.2812
Q6.6875 55.6719 12.7812 64.9219
Q18.8906 74.1719 31.8438 74.1719
Q44.9219 74.1719 50.9531 64.7656
Q56.9844 55.375 56.9844 36.375
M44.1406 14.2031
Q45.8438 18.1719 46.4531 23.5156
Q47.0781 28.8594 47.0781 36.375
Q47.0781 43.7969 46.4531 49.2656
Q45.8438 54.7344 44.0938 58.5469
Q42.3906 62.3125 39.4219 64.2031
Q36.4688 66.1094 31.8438 66.1094
Q27.25 66.1094 24.2344 64.2031
Q21.2344 62.3125 19.4844 58.4531
Q17.8281 54.8281 17.2188 49.0156
Q16.6094 43.2188 16.6094 36.2812
Q16.6094 28.6562 17.1406 23.5312
Q17.6719 18.4062 19.4375 14.3594
Q21.0469 10.5469 24 8.54688
Q26.9531 6.54688 31.8438 6.54688
Q36.4219 6.54688 39.4531 8.45312
Q42.4844 10.3594 44.1406 14.2031" id="Verdana-30"/>
      </defs>
      <g transform="translate(68.9821875 401.918125)scale(0.12 -0.12)">
       <use xlink:href="#Verdana-30"/>
      </g>
     </g>
    </g>
    <g id="xtick_2">
     <g id="line2d_8">
      <g>
       <use style="stroke:#000000;stroke-width:0.5;" x="161.28" xlink:href="#mc7db9fdffb" y="388.8"/>
      </g>
     </g>
     <g id="line2d_9">
      <g>
       <use style="stroke:#000000;stroke-width:0.5;" x="161.28" xlink:href="#m5a7d422ac3" y="43.2"/>
      </g>
     </g>
     <g id="text_2">
      <!-- 1000 -->
      <defs>
       <path d="
M52.9375 0
L13.5781 0
L13.5781 7.42188
L28.7188 7.42188
L28.7188 56.1562
L13.5781 56.1562
L13.5781 62.7969
Q16.6562 62.7969 20.1719 63.2969
Q23.6875 63.8125 25.4844 64.7969
Q27.7344 66.0156 29.0312 67.8906
Q30.3281 69.7812 30.5156 72.9531
L38.0938 72.9531
L38.0938 7.42188
L52.9375 7.42188
z
" id="Verdana-31"/>
      </defs>
      <g transform="translate(147.2315625 401.918125)scale(0.12 -0.12)">
       <use xlink:href="#Verdana-31"/>
       <use x="63.57421875" xlink:href="#Verdana-30"/>
       <use x="127.1484375" xlink:href="#Verdana-30"/>
       <use x="190.72265625" xlink:href="#Verdana-30"/>
      </g>
     </g>
    </g>
    <g id="xtick_3">
     <g id="line2d_10">
      <g>
       <use style="stroke:#000000;stroke-width:0.5;" x="250.56" xlink:href="#mc7db9fdffb" y="388.8"/>
      </g>
     </g>
     <g id="line2d_11">
      <g>
       <use style="stroke:#000000;stroke-width:0.5;" x="250.56" xlink:href="#m5a7d422ac3" y="43.2"/>
      </g>
     </g>
     <g id="text_3">
      <!-- 2000 -->
      <defs>
       <path d="
M57.0781 0
L7.85938 0
L7.85938 10.2031
Q12.9844 14.5938 18.1406 18.9844
Q23.2969 23.3906 27.7344 27.7344
Q37.1094 36.8125 40.5781 42.1562
Q44.0469 47.5156 44.0469 53.7188
Q44.0469 59.375 40.3125 62.5625
Q36.5781 65.7656 29.8906 65.7656
Q25.4375 65.7656 20.2656 64.2031
Q15.0938 62.6406 10.1562 59.4219
L9.67188 59.4219
L9.67188 69.6719
Q13.1406 71.3906 18.9219 72.7969
Q24.7031 74.2188 30.125 74.2188
Q41.3125 74.2188 47.6562 68.8125
Q54 63.4219 54 54.2031
Q54 50.0469 52.9531 46.4531
Q51.9062 42.875 49.8594 39.6562
Q47.9531 36.625 45.3906 33.6875
Q42.8281 30.7656 39.1562 27.2031
Q33.9375 22.0781 28.3594 17.2656
Q22.7969 12.4531 17.9688 8.34375
L57.0781 8.34375
z
" id="Verdana-32"/>
      </defs>
      <g transform="translate(236.1684375 401.918125)scale(0.12 -0.12)">
       <use xlink:href="#Verdana-32"/>
       <use x="63.57421875" xlink:href="#Verdana-30"/>
       <use x="127.1484375" xlink:href="#Verdana-30"/>
       <use x="190.72265625" xlink:href="#Verdana-30"/>
      </g>
     </g>
    </g>
    <g id="xtick_4">
     <g id="line2d_12">
      <g>
       <use style="stroke:#000000;stroke-width:0.5;" x="339.84" xlink:href="#mc7db9fdffb" y="388.8"/>
      </g>
     </g>
     <g id="line2d_13">
      <g>
       <use style="stroke:#000000;stroke-width:0.5;" x="339.84" xlink:href="#m5a7d422ac3" y="43.2"/>
      </g>
     </g>
     <g id="text_4">
      <!-- 3000 -->
      <defs>
       <path d="
M50.6875 35.0156
Q53.0312 32.9062 54.5469 29.7344
Q56.0625 26.5625 56.0625 21.5312
Q56.0625 16.5469 54.25 12.3906
Q52.4375 8.25 49.1719 5.17188
Q45.5156 1.76562 40.5469 0.125
Q35.5938 -1.51562 29.6875 -1.51562
Q23.6406 -1.51562 17.7812 -0.0625
Q11.9219 1.375 8.15625 3.07812
L8.15625 13.2812
L8.89062 13.2812
Q13.0312 10.5469 18.6406 8.73438
Q24.2656 6.9375 29.5 6.9375
Q32.5625 6.9375 36.0312 7.95312
Q39.5 8.98438 41.6562 10.9844
Q43.8906 13.1406 44.9844 15.7188
Q46.0938 18.3125 46.0938 22.2656
Q46.0938 26.1719 44.8438 28.7344
Q43.6094 31.2969 41.4062 32.7656
Q39.2031 34.2812 36.0781 34.8438
Q32.9531 35.4062 29.3438 35.4062
L24.9531 35.4062
L24.9531 43.5
L28.375 43.5
Q35.7969 43.5 40.2031 46.5938
Q44.625 49.7031 44.625 55.6719
Q44.625 58.2969 43.5 60.2656
Q42.3906 62.25 40.375 63.5312
Q38.2812 64.7969 35.8906 65.2812
Q33.5 65.7656 30.4688 65.7656
Q25.8281 65.7656 20.5938 64.1094
Q15.375 62.4531 10.75 59.4219
L10.25 59.4219
L10.25 69.625
Q13.7188 71.3438 19.5 72.7812
Q25.2969 74.2188 30.7188 74.2188
Q36.0312 74.2188 40.0781 73.2344
Q44.1406 72.2656 47.4062 70.125
Q50.9219 67.7812 52.7344 64.4531
Q54.5469 61.1406 54.5469 56.6875
Q54.5469 50.6406 50.2656 46.125
Q46 41.6094 40.1875 40.4375
L40.1875 39.75
Q42.5312 39.3594 45.5469 38.1094
Q48.5781 36.8594 50.6875 35.0156" id="Verdana-33"/>
      </defs>
      <g transform="translate(325.46625 401.918125)scale(0.12 -0.12)">
       <use xlink:href="#Verdana-33"/>
       <use x="63.57421875" xlink:href="#Verdana-30"/>
       <use x="127.1484375" xlink:href="#Verdana-30"/>
       <use x="190.72265625" xlink:href="#Verdana-30"/>
      </g>
     </g>
    </g>
    <g id="xtick_5">
     <g id="line2d_14">
      <g>
       <use style="stroke:#000000;stroke-width:0.5;" x="429.12" xlink:href="#mc7db9fdffb" y="388.8"/>
      </g>
     </g>
     <g id="line2d_15">
      <g>
       <use style="stroke:#000000;stroke-width:0.5;" x="429.12" xlink:href="#m5a7d422ac3" y="43.2"/>
      </g>
     </g>
     <g id="text_5">
      <!-- 4000 -->
      <defs>
       <path d="
M58.7344 20.4531
L47.9531 20.4531
L47.9531 0
L38.5781 0
L38.5781 20.4531
L3.76562 20.4531
L3.76562 31.6875
L38.9688 72.7031
L47.9531 72.7031
L47.9531 28.2656
L58.7344 28.2656
z

M38.5781 28.2656
L38.5781 61.0781
L10.4062 28.2656
z
" id="Verdana-34"/>
      </defs>
      <g transform="translate(414.4828125 401.918125)scale(0.12 -0.12)">
       <use xlink:href="#Verdana-34"/>
       <use x="63.57421875" xlink:href="#Verdana-30"/>
       <use x="127.1484375" xlink:href="#Verdana-30"/>
       <use x="190.72265625" xlink:href="#Verdana-30"/>
      </g>
     </g>
    </g>
    <g id="xtick_6">
     <g id="line2d_16">
      <g>
       <use style="stroke:#000000;stroke-width:0.5;" x="518.4" xlink:href="#mc7db9fdffb" y="388.8"/>
      </g>
     </g>
     <g id="line2d_17">
      <g>
       <use style="stroke:#000000;stroke-width:0.5;" x="518.4" xlink:href="#m5a7d422ac3" y="43.2"/>
      </g>
     </g>
     <g id="text_6">
      <!-- 5000 -->
      <defs>
       <path d="
M56.5 23.0938
Q56.5 18.0156 54.6406 13.375
Q52.7812 8.73438 49.5625 5.5625
Q46.0469 2.15625 41.1875 0.3125
Q36.3281 -1.51562 29.9375 -1.51562
Q23.9688 -1.51562 18.4531 -0.265625
Q12.9375 0.984375 9.125 2.73438
L9.125 13.0312
L9.8125 13.0312
Q13.8125 10.5 19.1875 8.71875
Q24.5625 6.9375 29.7344 6.9375
Q33.2031 6.9375 36.4531 7.90625
Q39.7031 8.89062 42.2344 11.3281
Q44.3906 13.4219 45.4844 16.3438
Q46.5781 19.2812 46.5781 23.1406
Q46.5781 26.9062 45.2812 29.4844
Q44 32.0781 41.7031 33.6406
Q39.1562 35.5 35.5156 36.25
Q31.8906 37.0156 27.3906 37.0156
Q23.0938 37.0156 19.1094 36.4219
Q15.1406 35.8438 12.25 35.25
L12.25 72.7031
L56 72.7031
L56 64.1562
L21.6875 64.1562
L21.6875 44.8281
Q23.7812 45.0156 25.9688 45.1094
Q28.1719 45.2188 29.7812 45.2188
Q35.6875 45.2188 40.125 44.2188
Q44.5781 43.2188 48.2969 40.6719
Q52.2031 37.9844 54.3438 33.7344
Q56.5 29.5 56.5 23.0938" id="Verdana-35"/>
      </defs>
      <g transform="translate(504.084375 401.918125)scale(0.12 -0.12)">
       <use xlink:href="#Verdana-35"/>
       <use x="63.57421875" xlink:href="#Verdana-30"/>
       <use x="127.1484375" xlink:href="#Verdana-30"/>
       <use x="190.72265625" xlink:href="#Verdana-30"/>
      </g>
     </g>
    </g>
    <g id="text_7">
     <!-- Objective function exectuions -->
     <defs>
      <path d="
M57.0312 27.6875
Q57.0312 20.8438 55.0938 15.375
Q53.1719 9.90625 49.9062 6.20312
Q46.4375 2.34375 42.2812 0.40625
Q38.1406 -1.51562 33.1562 -1.51562
Q28.5156 -1.51562 25.0469 -0.40625
Q21.5781 0.6875 18.2188 2.54688
L17.625 0
L9.03125 0
L9.03125 75.9844
L18.2188 75.9844
L18.2188 48.8281
Q22.0781 52 26.4219 54.0312
Q30.7656 56.0625 36.1875 56.0625
Q45.8438 56.0625 51.4375 48.6406
Q57.0312 41.2188 57.0312 27.6875
M47.5625 27.4375
Q47.5625 37.2031 44.3281 42.25
Q41.1094 47.3125 33.9375 47.3125
Q29.9375 47.3125 25.8281 45.5781
Q21.7344 43.8438 18.2188 41.1094
L18.2188 9.85938
Q22.125 8.10938 24.9219 7.42188
Q27.7344 6.73438 31.2969 6.73438
Q38.9219 6.73438 43.2344 11.7344
Q47.5625 16.75 47.5625 27.4375" id="Verdana-62"/>
      <path d="
M56.2031 54.5469
L34.125 0
L24.9062 0
L2.98438 54.5469
L12.9375 54.5469
L29.8281 11.1406
L46.5781 54.5469
z
" id="Verdana-76"/>
      <path d="
M56.25 0
L44.6719 0
L29.2031 20.9531
L13.625 0
L2.9375 0
L24.2188 27.2031
L3.125 54.5469
L14.7031 54.5469
L30.0781 33.9375
L45.5156 54.5469
L56.25 54.5469
L34.8125 27.6875
z
" id="Verdana-78"/>
      <path d="
M54.6875 26.3125
L14.5 26.3125
Q14.5 21.2969 16.0156 17.5469
Q17.5312 13.8125 20.1719 11.4219
Q22.7031 9.07812 26.1875 7.90625
Q29.6875 6.73438 33.8906 6.73438
Q39.4531 6.73438 45.0938 8.95312
Q50.7344 11.1875 53.125 13.3281
L53.6094 13.3281
L53.6094 3.32812
Q48.9688 1.375 44.1406 0.046875
Q39.3125 -1.26562 33.9844 -1.26562
Q20.4062 -1.26562 12.7812 6.07812
Q5.17188 13.4219 5.17188 26.9531
Q5.17188 40.3281 12.4688 48.1875
Q19.7812 56.0625 31.6875 56.0625
Q42.7188 56.0625 48.7031 49.6094
Q54.6875 43.1719 54.6875 31.2969
z

M45.75 33.3438
Q45.7031 40.5781 42.1094 44.5312
Q38.5312 48.4844 31.2031 48.4844
Q23.8281 48.4844 19.4531 44.1406
Q15.0938 39.7969 14.5 33.3438
z
" id="Verdana-65"/>
      <path d="
M49.3594 3.42188
Q44.7812 1.21875 40.6562 0
Q36.5312 -1.21875 31.8906 -1.21875
Q25.9844 -1.21875 21.0469 0.515625
Q16.1094 2.25 12.5938 5.76562
Q9.03125 9.28125 7.07812 14.6406
Q5.125 20.0156 5.125 27.2031
Q5.125 40.5781 12.4688 48.1875
Q19.8281 55.8125 31.8906 55.8125
Q36.5781 55.8125 41.0938 54.4844
Q45.6094 53.1719 49.3594 51.2656
L49.3594 41.0625
L48.875 41.0625
Q44.6719 44.3438 40.2031 46.0938
Q35.75 47.8594 31.5 47.8594
Q23.6875 47.8594 19.1719 42.6094
Q14.6562 37.3594 14.6562 27.2031
Q14.6562 17.3281 19.0625 12.0312
Q23.4844 6.73438 31.5 6.73438
Q34.2812 6.73438 37.1562 7.46875
Q40.0469 8.20312 42.3281 9.375
Q44.3438 10.4062 46.0938 11.5469
Q47.8594 12.7031 48.875 13.5312
L49.3594 13.5312
z
" id="Verdana-63"/>
      <path d="
M26.0312 63.6719
L15.6719 63.6719
L15.6719 73.1875
L26.0312 73.1875
z

M25.4375 -1.3125
Q25.4375 -10.8906 20.5469 -15.7656
Q15.6719 -20.6562 7.46875 -20.6562
Q5.51562 -20.6562 2.3125 -20.2656
Q-0.875 -19.875 -3.03125 -19.2812
L-3.03125 -10.5469
L-2.54688 -10.5469
Q-1.17188 -11.0781 1.14062 -11.7656
Q3.46875 -12.4531 5.67188 -12.4531
Q9.1875 -12.4531 11.3281 -11.4688
Q13.4844 -10.5 14.5469 -8.54688
Q15.625 -6.59375 15.9375 -3.82812
Q16.2656 -1.07812 16.2656 2.875
L16.2656 46.8281
L4.89062 46.8281
L4.89062 54.5469
L25.4375 54.5469
z
" id="Verdana-6a"/>
      <path d="
M18.8906 63.6719
L8.54688 63.6719
L8.54688 73.1875
L18.8906 73.1875
z

M18.3125 0
L9.125 0
L9.125 54.5469
L18.3125 54.5469
z
" id="Verdana-69"/>
      <path d="
M54.6406 0
L45.4531 0
L45.4531 31.0625
Q45.4531 34.8125 45.0156 38.1094
Q44.5781 41.4062 43.4062 43.2656
Q42.1875 45.3125 39.8906 46.3125
Q37.5938 47.3125 33.9375 47.3125
Q30.1719 47.3125 26.0625 45.4531
Q21.9688 43.6094 18.2188 40.7188
L18.2188 0
L9.03125 0
L9.03125 54.5469
L18.2188 54.5469
L18.2188 48.4844
Q22.5156 52.0469 27.0938 54.0469
Q31.6875 56.0625 36.5312 56.0625
Q45.3594 56.0625 50 50.7344
Q54.6406 45.4062 54.6406 35.4062
z
" id="Verdana-6e"/>
      <path d="
M48 15.7188
Q48 8.25 41.8125 3.46875
Q35.6406 -1.3125 24.9531 -1.3125
Q18.8906 -1.3125 13.8438 0.125
Q8.79688 1.5625 5.375 3.26562
L5.375 13.5781
L5.85938 13.5781
Q10.2031 10.2969 15.5156 8.375
Q20.8438 6.45312 25.7344 6.45312
Q31.7812 6.45312 35.2031 8.40625
Q38.625 10.3594 38.625 14.5469
Q38.625 17.7812 36.7656 19.4375
Q34.9062 21.0938 29.6406 22.2656
Q27.6875 22.7031 24.5312 23.2812
Q21.3906 23.875 18.7969 24.5625
Q11.625 26.4688 8.60938 30.1562
Q5.60938 33.8438 5.60938 39.2031
Q5.60938 42.5781 7 45.5469
Q8.40625 48.5312 11.2344 50.875
Q13.9688 53.1719 18.1875 54.5156
Q22.4062 55.8594 27.6406 55.8594
Q32.5156 55.8594 37.5156 54.6562
Q42.5312 53.4688 45.8438 51.7656
L45.8438 41.9375
L45.3594 41.9375
Q41.8438 44.5312 36.8125 46.3125
Q31.7812 48.0938 26.9531 48.0938
Q21.9219 48.0938 18.4531 46.1562
Q14.9844 44.2344 14.9844 40.4375
Q14.9844 37.0625 17.0938 35.3594
Q19.1406 33.6406 23.7344 32.5625
Q26.2656 31.9844 29.4062 31.3906
Q32.5625 30.8125 34.6719 30.3281
Q41.0625 28.8594 44.5312 25.2969
Q48 21.6875 48 15.7188" id="Verdana-73"/>
      <path d="
M38.375 67.0938
L37.8906 67.0938
Q36.375 67.5312 33.9375 67.9844
Q31.5 68.4531 29.6406 68.4531
Q23.7344 68.4531 21.0625 65.8438
Q18.4062 63.2344 18.4062 56.3906
L18.4062 54.5469
L34.9688 54.5469
L34.9688 46.8281
L18.7031 46.8281
L18.7031 0
L9.51562 0
L9.51562 46.8281
L3.32812 46.8281
L3.32812 54.5469
L9.51562 54.5469
L9.51562 56.3438
Q9.51562 66.0625 14.3438 71.2656
Q19.1875 76.4688 28.3281 76.4688
Q31.3906 76.4688 33.8594 76.1719
Q36.3281 75.875 38.375 75.4844
z
" id="Verdana-66"/>
      <path id="Verdana-20"/>
      <path d="
M63.9688 64.3594
Q68.4062 59.4688 70.7656 52.3906
Q73.1406 45.3125 73.1406 36.3281
Q73.1406 27.3438 70.7188 20.2344
Q68.3125 13.1406 63.9688 8.40625
Q59.4688 3.46875 53.3438 0.96875
Q47.2188 -1.51562 39.3594 -1.51562
Q31.6875 -1.51562 25.4062 1.01562
Q19.1406 3.5625 14.75 8.40625
Q10.3594 13.2344 7.98438 20.2656
Q5.60938 27.2969 5.60938 36.3281
Q5.60938 45.2188 7.95312 52.2656
Q10.2969 59.3281 14.7969 64.3594
Q19.0938 69.1406 25.4688 71.6719
Q31.8438 74.2188 39.3594 74.2188
Q47.1719 74.2188 53.3906 71.6562
Q59.625 69.0938 63.9688 64.3594
M63.0938 36.3281
Q63.0938 50.4844 56.7344 58.1719
Q50.3906 65.875 39.4062 65.875
Q28.3281 65.875 22 58.1719
Q15.6719 50.4844 15.6719 36.3281
Q15.6719 22.0156 22.1094 14.4219
Q28.5625 6.84375 39.4062 6.84375
Q50.25 6.84375 56.6719 14.4219
Q63.0938 22.0156 63.0938 36.3281" id="Verdana-4f"/>
      <path d="
M55.5156 27.25
Q55.5156 13.9219 48.6719 6.20312
Q41.8438 -1.51562 30.375 -1.51562
Q18.7969 -1.51562 11.9844 6.20312
Q5.17188 13.9219 5.17188 27.25
Q5.17188 40.5781 11.9844 48.3125
Q18.7969 56.0625 30.375 56.0625
Q41.8438 56.0625 48.6719 48.3125
Q55.5156 40.5781 55.5156 27.25
M46.0469 27.25
Q46.0469 37.8438 41.8906 42.9844
Q37.75 48.1406 30.375 48.1406
Q22.9062 48.1406 18.7812 42.9844
Q14.6562 37.8438 14.6562 27.25
Q14.6562 17 18.7969 11.6875
Q22.9531 6.39062 30.375 6.39062
Q37.7031 6.39062 41.875 11.6406
Q46.0469 16.8906 46.0469 27.25" id="Verdana-6f"/>
      <path d="
M37.3594 0.484375
Q34.7656 -0.203125 31.7031 -0.640625
Q28.6562 -1.07812 26.2656 -1.07812
Q17.9219 -1.07812 13.5781 3.40625
Q9.23438 7.90625 9.23438 17.8281
L9.23438 46.8281
L3.03125 46.8281
L3.03125 54.5469
L9.23438 54.5469
L9.23438 70.2188
L18.4062 70.2188
L18.4062 54.5469
L37.3594 54.5469
L37.3594 46.8281
L18.4062 46.8281
L18.4062 21.9688
Q18.4062 17.6719 18.5938 15.25
Q18.7969 12.8438 19.9688 10.75
Q21.0469 8.79688 22.9219 7.89062
Q24.8125 6.98438 28.6562 6.98438
Q30.9062 6.98438 33.3438 7.64062
Q35.7969 8.29688 36.8594 8.73438
L37.3594 8.73438
z
" id="Verdana-74"/>
      <path d="
M54.25 0
L45.0625 0
L45.0625 6.0625
Q40.4375 2.39062 36.1875 0.4375
Q31.9375 -1.51562 26.8125 -1.51562
Q18.2188 -1.51562 13.4219 3.73438
Q8.64062 8.98438 8.64062 19.1406
L8.64062 54.5469
L17.8281 54.5469
L17.8281 23.4844
Q17.8281 19.3438 18.2188 16.375
Q18.6094 13.4219 19.875 11.3281
Q21.1875 9.1875 23.2812 8.20312
Q25.3906 7.23438 29.3906 7.23438
Q32.9531 7.23438 37.1719 9.07812
Q41.4062 10.9375 45.0625 13.8125
L45.0625 54.5469
L54.25 54.5469
z
" id="Verdana-75"/>
     </defs>
     <g transform="translate(206.5078125 418.509375)scale(0.12 -0.12)">
      <use xlink:href="#Verdana-4f"/>
      <use x="78.7109375" xlink:href="#Verdana-62"/>
      <use x="141.015625" xlink:href="#Verdana-6a"/>
      <use x="175.439453125" xlink:href="#Verdana-65"/>
      <use x="235.009765625" xlink:href="#Verdana-63"/>
      <use x="287.109375" xlink:href="#Verdana-74"/>
      <use x="326.513671875" xlink:href="#Verdana-69"/>
      <use x="353.955078125" xlink:href="#Verdana-76"/>
      <use x="412.259765625" xlink:href="#Verdana-65"/>
      <use x="471.830078125" xlink:href="#Verdana-20"/>
      <use x="506.986328125" xlink:href="#Verdana-66"/>
      <use x="542.142578125" xlink:href="#Verdana-75"/>
      <use x="605.423828125" xlink:href="#Verdana-6e"/>
      <use x="668.705078125" xlink:href="#Verdana-63"/>
      <use x="720.8046875" xlink:href="#Verdana-74"/>
      <use x="760.208984375" xlink:href="#Verdana-69"/>
      <use x="787.650390625" xlink:href="#Verdana-6f"/>
      <use x="848.34375" xlink:href="#Verdana-6e"/>
      <use x="911.625" xlink:href="#Verdana-20"/>
      <use x="946.78125" xlink:href="#Verdana-65"/>
      <use x="1006.3515625" xlink:href="#Verdana-78"/>
      <use x="1064.40625" xlink:href="#Verdana-65"/>
      <use x="1123.9765625" xlink:href="#Verdana-63"/>
      <use x="1176.076171875" xlink:href="#Verdana-74"/>
      <use x="1215.48046875" xlink:href="#Verdana-75"/>
      <use x="1278.76171875" xlink:href="#Verdana-69"/>
      <use x="1306.203125" xlink:href="#Verdana-6f"/>
      <use x="1366.896484375" xlink:href="#Verdana-6e"/>
      <use x="1430.177734375" xlink:href="#Verdana-73"/>
     </g>
    </g>
   </g>
   <g id="matplotlib.axis_2">
    <g id="ytick_1">
     <g id="line2d_18">
      <defs>
       <path d="
M0 0
L4 0" id="md7965d1ba0" style="stroke:#000000;stroke-width:0.5;"/>
      </defs>
      <g>
       <use style="stroke:#000000;stroke-width:0.5;" x="72.0" xlink:href="#md7965d1ba0" y="388.8"/>
      </g>
     </g>
     <g id="line2d_19">
      <defs>
       <path d="
M0 0
L-4 0" id="md9a1c1a7cd" style="stroke:#000000;stroke-width:0.5;"/>
      </defs>
      <g>
       <use style="stroke:#000000;stroke-width:0.5;" x="518.4" xlink:href="#md9a1c1a7cd" y="388.8"/>
      </g>
     </g>
     <g id="text_8">
      <!-- 0 -->
      <g transform="translate(61.964375 392.1515625)scale(0.12 -0.12)">
       <use xlink:href="#Verdana-30"/>
      </g>
     </g>
    </g>
    <g id="ytick_2">
     <g id="line2d_20">
      <g>
       <use style="stroke:#000000;stroke-width:0.5;" x="72.0" xlink:href="#md7965d1ba0" y="319.68"/>
      </g>
     </g>
     <g id="line2d_21">
      <g>
       <use style="stroke:#000000;stroke-width:0.5;" x="518.4" xlink:href="#md9a1c1a7cd" y="319.68"/>
      </g>
     </g>
     <g id="text_9">
      <!-- 10 -->
      <g transform="translate(55.161875 323.0315625)scale(0.12 -0.12)">
       <use xlink:href="#Verdana-31"/>
       <use x="63.57421875" xlink:href="#Verdana-30"/>
      </g>
     </g>
    </g>
    <g id="ytick_3">
     <g id="line2d_22">
      <g>
       <use style="stroke:#000000;stroke-width:0.5;" x="72.0" xlink:href="#md7965d1ba0" y="250.56"/>
      </g>
     </g>
     <g id="line2d_23">
      <g>
       <use style="stroke:#000000;stroke-width:0.5;" x="518.4" xlink:href="#md9a1c1a7cd" y="250.56"/>
      </g>
     </g>
     <g id="text_10">
      <!-- 20 -->
      <g transform="translate(54.475625 253.9115625)scale(0.12 -0.12)">
       <use xlink:href="#Verdana-32"/>
       <use x="63.57421875" xlink:href="#Verdana-30"/>
      </g>
     </g>
    </g>
    <g id="ytick_4">
     <g id="line2d_24">
      <g>
       <use style="stroke:#000000;stroke-width:0.5;" x="72.0" xlink:href="#md7965d1ba0" y="181.44"/>
      </g>
     </g>
     <g id="line2d_25">
      <g>
       <use style="stroke:#000000;stroke-width:0.5;" x="518.4" xlink:href="#md9a1c1a7cd" y="181.44"/>
      </g>
     </g>
     <g id="text_11">
      <!-- 30 -->
      <g transform="translate(54.51125 184.7915625)scale(0.12 -0.12)">
       <use xlink:href="#Verdana-33"/>
       <use x="63.57421875" xlink:href="#Verdana-30"/>
      </g>
     </g>
    </g>
    <g id="ytick_5">
     <g id="line2d_26">
      <g>
       <use style="stroke:#000000;stroke-width:0.5;" x="72.0" xlink:href="#md7965d1ba0" y="112.32"/>
      </g>
     </g>
     <g id="line2d_27">
      <g>
       <use style="stroke:#000000;stroke-width:0.5;" x="518.4" xlink:href="#md9a1c1a7cd" y="112.32"/>
      </g>
     </g>
     <g id="text_12">
      <!-- 40 -->
      <g transform="translate(53.984375 115.6715625)scale(0.12 -0.12)">
       <use xlink:href="#Verdana-34"/>
       <use x="63.57421875" xlink:href="#Verdana-30"/>
      </g>
     </g>
    </g>
    <g id="ytick_6">
     <g id="line2d_28">
      <g>
       <use style="stroke:#000000;stroke-width:0.5;" x="72.0" xlink:href="#md7965d1ba0" y="43.2"/>
      </g>
     </g>
     <g id="line2d_29">
      <g>
       <use style="stroke:#000000;stroke-width:0.5;" x="518.4" xlink:href="#md9a1c1a7cd" y="43.2"/>
      </g>
     </g>
     <g id="text_13">
      <!-- 50 -->
      <g transform="translate(54.6275 46.5515625)scale(0.12 -0.12)">
       <use xlink:href="#Verdana-35"/>
       <use x="63.57421875" xlink:href="#Verdana-30"/>
      </g>
     </g>
    </g>
    <g id="text_14">
     <!-- Mean -->
     <defs>
      <path d="
M51.4219 0
L42.2812 0
L42.2812 5.8125
Q41.0625 4.98438 38.9844 3.48438
Q36.9219 2 34.9688 1.125
Q32.6719 0 29.6875 -0.75
Q26.7031 -1.51562 22.7031 -1.51562
Q15.3281 -1.51562 10.2031 3.35938
Q5.07812 8.25 5.07812 15.8281
Q5.07812 22.0156 7.73438 25.8438
Q10.4062 29.6875 15.3281 31.8906
Q20.3125 34.0781 27.2969 34.8594
Q34.2812 35.6406 42.2812 36.0312
L42.2812 37.4531
Q42.2812 40.5781 41.1875 42.625
Q40.0938 44.6719 38.0312 45.8438
Q36.0781 46.9688 33.3438 47.3594
Q30.6094 47.75 27.6406 47.75
Q24.0312 47.75 19.5781 46.7969
Q15.1406 45.8438 10.4062 44.0469
L9.90625 44.0469
L9.90625 53.375
Q12.5938 54.1094 17.6719 54.9844
Q22.75 55.8594 27.6875 55.8594
Q33.4531 55.8594 37.7188 54.9062
Q42 53.9531 45.125 51.6562
Q48.1875 49.4219 49.7969 45.8438
Q51.4219 42.2812 51.4219 37.0156
z

M42.2812 13.4219
L42.2812 28.6094
Q38.0938 28.375 32.3906 27.875
Q26.7031 27.3906 23.3906 26.4688
Q19.4375 25.3438 16.9844 22.9688
Q14.5469 20.6094 14.5469 16.4531
Q14.5469 11.7656 17.375 9.39062
Q20.2188 7.03125 26.0312 7.03125
Q30.8594 7.03125 34.8594 8.90625
Q38.875 10.7969 42.2812 13.4219" id="Verdana-61"/>
      <path d="
M74.5156 0
L64.8438 0
L64.8438 62.6406
L44.625 20.0156
L38.875 20.0156
L18.7969 62.6406
L18.7969 0
L9.76562 0
L9.76562 72.7031
L22.9531 72.7031
L42.3281 32.2344
L61.0781 72.7031
L74.5156 72.7031
z
" id="Verdana-4d"/>
     </defs>
     <g transform="translate(46.569375 230.9278125)rotate(-90.0)scale(0.12 -0.12)">
      <use xlink:href="#Verdana-4d"/>
      <use x="84.27734375" xlink:href="#Verdana-65"/>
      <use x="143.84765625" xlink:href="#Verdana-61"/>
      <use x="203.90625" xlink:href="#Verdana-6e"/>
     </g>
    </g>
   </g>
   <g id="patch_3">
    <path d="
M72 43.2
L518.4 43.2" style="fill:none;stroke:#000000;"/>
   </g>
   <g id="patch_4">
    <path d="
M72 388.8
L72 43.2" style="fill:none;stroke:#000000;"/>
   </g>
   <g id="patch_5">
    <path d="
M518.4 388.8
L518.4 43.2" style="fill:none;stroke:#000000;"/>
   </g>
   <g id="patch_6">
    <path d="
M72 388.8
L518.4 388.8" style="fill:none;stroke:#000000;"/>
   </g>
   <g id="text_15">
    <!-- Alpine01 Mean -->
    <defs>
     <path d="
M18.3125 0
L9.125 0
L9.125 75.9844
L18.3125 75.9844
z
" id="Verdana-6c"/>
     <path d="
M57.0312 27.9375
Q57.0312 21.2969 55.125 15.7969
Q53.2188 10.2969 49.75 6.5
Q46.5312 2.875 42.1562 0.890625
Q37.7969 -1.07812 32.9062 -1.07812
Q28.6562 -1.07812 25.2188 -0.140625
Q21.7812 0.78125 18.2188 2.73438
L18.2188 -20.125
L9.03125 -20.125
L9.03125 54.5469
L18.2188 54.5469
L18.2188 48.8281
Q21.875 51.9062 26.4375 53.9844
Q31 56.0625 36.1875 56.0625
Q46.0469 56.0625 51.5312 48.6094
Q57.0312 41.1562 57.0312 27.9375
M47.5625 27.6875
Q47.5625 37.5469 44.1875 42.4219
Q40.8281 47.3125 33.8438 47.3125
Q29.8906 47.3125 25.875 45.5938
Q21.875 43.8906 18.2188 41.1094
L18.2188 10.2031
Q22.125 8.45312 24.9219 7.8125
Q27.7344 7.17188 31.2969 7.17188
Q38.9688 7.17188 43.2656 12.3438
Q47.5625 17.5312 47.5625 27.6875" id="Verdana-70"/>
     <path d="
M67.0938 0
L56.7812 0
L49.6562 20.2656
L18.2188 20.2656
L11.0781 0
L1.26562 0
L27.7344 72.7031
L40.625 72.7031
z

M46.6875 28.5625
L33.9375 64.2656
L21.1406 28.5625
z
" id="Verdana-41"/>
    </defs>
    <g transform="translate(242.69175 38.2)scale(0.144 -0.144)">
     <use xlink:href="#Verdana-41"/>
     <use x="68.359375" xlink:href="#Verdana-6c"/>
     <use x="95.80078125" xlink:href="#Verdana-70"/>
     <use x="158.10546875" xlink:href="#Verdana-69"/>
     <use x="185.546875" xlink:href="#Verdana-6e"/>
     <use x="248.828125" xlink:href="#Verdana-65"/>
     <use x="308.3984375" xlink:href="#Verdana-30"/>
     <use x="371.97265625" xlink:href="#Verdana-31"/>
     <use x="435.546875" xlink:href="#Verdana-20"/>
     <use x="470.703125" xlink:href="#Verdana-4d"/>
     <use x="554.98046875" xlink:href="#Verdana-65"/>
     <use x="614.55078125" xlink:href="#Verdana-61"/>
     <use x="674.609375" xlink:href="#Verdana-6e"/>
    </g>
   </g>
   <g id="legend_1">
    <g id="patch_7">
     <path d="
M407.18 159.919
L511.2 159.919
L511.2 50.4
L407.18 50.4
L407.18 159.919
z
" style="fill:#ffffff;stroke:#000000;"/>
    </g>
    <g id="line2d_30">
     <path d="
M417.26 62.0617
L437.42 62.0617" style="fill:none;stroke:#0000ff;stroke-dasharray:6.000000,2.000000;stroke-dashoffset:0.0;"/>
    </g>
    <g id="line2d_31"/>
    <g id="text_16">
     <!-- AMPGO -->
     <defs>
      <path d="
M57.3281 50.7344
Q57.3281 45.9062 55.6406 41.7656
Q53.9531 37.6406 50.9219 34.625
Q47.1719 30.8594 42.0469 28.9688
Q36.9219 27.0938 29.1094 27.0938
L19.4375 27.0938
L19.4375 0
L9.76562 0
L9.76562 72.7031
L29.5 72.7031
Q36.0312 72.7031 40.5781 71.6094
Q45.125 70.5156 48.6406 68.1719
Q52.7812 65.375 55.0469 61.2188
Q57.3281 57.0781 57.3281 50.7344
M47.2656 50.4844
Q47.2656 54.25 45.9375 57.0312
Q44.625 59.8125 41.9375 61.5781
Q39.5938 63.0938 36.5938 63.75
Q33.5938 64.4062 29 64.4062
L19.4375 64.4062
L19.4375 35.3594
L27.5938 35.3594
Q33.4531 35.3594 37.1094 36.4062
Q40.7656 37.4531 43.0625 39.75
Q45.3594 42.0938 46.3125 44.6719
Q47.2656 47.2656 47.2656 50.4844" id="Verdana-50"/>
      <path d="
M70.4062 5.375
Q64.4531 2.64062 57.3906 0.609375
Q50.3438 -1.42188 43.75 -1.42188
Q35.25 -1.42188 28.1719 0.921875
Q21.0938 3.26562 16.1094 7.95312
Q11.0781 12.7031 8.34375 19.7969
Q5.60938 26.9062 5.60938 36.4219
Q5.60938 53.8594 15.7969 63.9375
Q25.9844 74.0312 43.75 74.0312
Q49.9531 74.0312 56.4219 72.5312
Q62.8906 71.0469 70.3594 67.4844
L70.3594 56
L69.4844 56
Q67.9688 57.1719 65.0781 59.0781
Q62.2031 60.9844 59.4219 62.25
Q56.0625 63.7656 51.7812 64.7656
Q47.5156 65.7656 42.0938 65.7656
Q29.8906 65.7656 22.7812 57.9219
Q15.6719 50.0938 15.6719 36.7188
Q15.6719 22.6094 23.0938 14.7656
Q30.5156 6.9375 43.3125 6.9375
Q48 6.9375 52.6562 7.85938
Q57.3281 8.79688 60.8438 10.25
L60.8438 28.0781
L41.3594 28.0781
L41.3594 36.5781
L70.4062 36.5781
z
" id="Verdana-47"/>
     </defs>
     <g transform="translate(453.26025 67.10175)scale(0.144 -0.144)">
      <use xlink:href="#Verdana-41"/>
      <use x="68.359375" xlink:href="#Verdana-4d"/>
      <use x="152.63671875" xlink:href="#Verdana-50"/>
      <use x="212.939453125" xlink:href="#Verdana-47"/>
      <use x="290.478515625" xlink:href="#Verdana-4f"/>
     </g>
    </g>
    <g id="line2d_32">
     <path d="
M417.26 83.1015
L437.42 83.1015" style="fill:none;stroke:#008000;stroke-dasharray:1.000000,1.000000;stroke-dashoffset:0.0;"/>
    </g>
    <g id="line2d_33"/>
    <g id="text_17">
     <!-- Anneal -->
     <g transform="translate(453.26025 88.1415)scale(0.144 -0.144)">
      <use xlink:href="#Verdana-41"/>
      <use x="68.359375" xlink:href="#Verdana-6e"/>
      <use x="131.640625" xlink:href="#Verdana-6e"/>
      <use x="194.921875" xlink:href="#Verdana-65"/>
      <use x="254.4921875" xlink:href="#Verdana-61"/>
      <use x="314.55078125" xlink:href="#Verdana-6c"/>
     </g>
    </g>
    <g id="line2d_34">
     <path d="
M417.26 104.141
L437.42 104.141" style="fill:none;stroke:#ff0000;stroke-dasharray:3.000000,6.000000;stroke-dashoffset:0.0;"/>
    </g>
    <g id="line2d_35"/>
    <g id="text_18">
     <!-- BSA -->
     <defs>
      <path d="
M64.5938 22.3594
Q64.5938 16.9375 62.5469 12.7812
Q60.5 8.64062 57.0312 5.95312
Q52.9375 2.73438 48.0156 1.35938
Q43.1094 0 35.5469 0
L9.76562 0
L9.76562 72.7031
L31.2969 72.7031
Q39.2656 72.7031 43.2188 72.1094
Q47.1719 71.5312 50.7812 69.6719
Q54.7812 67.5781 56.5938 64.2812
Q58.4062 60.9844 58.4062 56.3906
Q58.4062 51.2188 55.7656 47.5781
Q53.125 43.9531 48.7344 41.75
L48.7344 41.3594
Q56.1094 39.8438 60.3438 34.8906
Q64.5938 29.9375 64.5938 22.3594
M48.3438 55.125
Q48.3438 57.7656 47.4531 59.5625
Q46.5781 61.375 44.625 62.5
Q42.3281 63.8125 39.0625 64.125
Q35.7969 64.4531 30.9531 64.4531
L19.4375 64.4531
L19.4375 43.4531
L31.9375 43.4531
Q36.4688 43.4531 39.1562 43.9219
Q41.8438 44.3906 44.1406 45.8438
Q46.4375 47.3125 47.3906 49.625
Q48.3438 51.9531 48.3438 55.125
M54.5469 21.9688
Q54.5469 26.375 53.2188 28.9531
Q51.9062 31.5469 48.4375 33.3438
Q46.0938 34.5781 42.75 34.9375
Q39.4062 35.2969 34.625 35.2969
L19.4375 35.2969
L19.4375 8.25
L32.2344 8.25
Q38.5781 8.25 42.625 8.90625
Q46.6875 9.57812 49.2656 11.3281
Q52 13.2344 53.2656 15.6719
Q54.5469 18.1094 54.5469 21.9688" id="Verdana-42"/>
      <path d="
M62.5938 20.75
Q62.5938 16.5 60.6094 12.3438
Q58.6406 8.20312 55.0781 5.32812
Q51.1719 2.20312 45.9688 0.4375
Q40.7656 -1.3125 33.4531 -1.3125
Q25.5938 -1.3125 19.3125 0.140625
Q13.0312 1.60938 6.54688 4.5
L6.54688 16.6094
L7.23438 16.6094
Q12.75 12.0156 19.9688 9.51562
Q27.2031 7.03125 33.5469 7.03125
Q42.5312 7.03125 47.5312 10.3906
Q52.5469 13.7656 52.5469 19.3906
Q52.5469 24.2188 50.1719 26.5156
Q47.7969 28.8125 42.9688 30.0781
Q39.3125 31.0625 35.0312 31.6875
Q30.7656 32.3281 25.9844 33.2969
Q16.3125 35.3594 11.6406 40.3125
Q6.98438 45.2656 6.98438 53.2188
Q6.98438 62.3594 14.6875 68.1875
Q22.4062 74.0312 34.2812 74.0312
Q41.9375 74.0312 48.3281 72.5625
Q54.7344 71.0938 59.6719 68.9531
L59.6719 57.5156
L58.9844 57.5156
Q54.8281 61.0312 48.0625 63.3438
Q41.3125 65.6719 34.2344 65.6719
Q26.4688 65.6719 21.75 62.4531
Q17.0469 59.2344 17.0469 54.1562
Q17.0469 49.6094 19.3906 47.0156
Q21.7344 44.4375 27.6406 43.0625
Q30.7656 42.3906 36.5156 41.4062
Q42.2812 40.4375 46.2969 39.4062
Q54.3906 37.25 58.4844 32.9062
Q62.5938 28.5625 62.5938 20.75" id="Verdana-53"/>
     </defs>
     <g transform="translate(453.26025 109.18125)scale(0.144 -0.144)">
      <use xlink:href="#Verdana-42"/>
      <use x="68.5546875" xlink:href="#Verdana-53"/>
      <use x="135.9140625" xlink:href="#Verdana-41"/>
     </g>
    </g>
    <g id="line2d_36">
     <path d="
M417.26 125.181
L437.42 125.181" style="fill:none;stroke:#00bfbf;stroke-dasharray:5.000000,1.000000,2.000000,1.000000,5.000000,1.000000;stroke-dashoffset:0.0;"/>
    </g>
    <g id="line2d_37"/>
    <g id="text_19">
     <!-- Cuckoo -->
     <defs>
      <path d="
M58.5469 0
L46.4375 0
L24.5625 23.875
L18.6094 18.2188
L18.6094 0
L9.42188 0
L9.42188 75.9844
L18.6094 75.9844
L18.6094 27.25
L45.125 54.5469
L56.6875 54.5469
L31.3438 29.3438
z
" id="Verdana-6b"/>
      <path d="
M65.9219 5.28125
Q63.2344 4.10938 61.0625 3.07812
Q58.8906 2.04688 55.375 0.921875
Q52.3906 0 48.8906 -0.65625
Q45.4062 -1.3125 41.2188 -1.3125
Q33.2969 -1.3125 26.8281 0.90625
Q20.3594 3.125 15.5781 7.85938
Q10.8906 12.5 8.25 19.6562
Q5.60938 26.8125 5.60938 36.2812
Q5.60938 45.2656 8.14062 52.3438
Q10.6875 59.4219 15.4844 64.3125
Q20.125 69.0469 26.6875 71.5312
Q33.25 74.0312 41.2656 74.0312
Q47.125 74.0312 52.9531 72.6094
Q58.7969 71.1875 65.9219 67.625
L65.9219 56.1562
L65.1875 56.1562
Q59.1875 61.1875 53.2656 63.4688
Q47.3594 65.7656 40.625 65.7656
Q35.1094 65.7656 30.6875 63.9844
Q26.2656 62.2031 22.7969 58.4531
Q19.4375 54.7812 17.5469 49.1875
Q15.6719 43.6094 15.6719 36.2812
Q15.6719 28.6094 17.75 23.0938
Q19.8281 17.5781 23.0938 14.1094
Q26.5156 10.5 31.0781 8.76562
Q35.6406 7.03125 40.7188 7.03125
Q47.7031 7.03125 53.7969 9.42188
Q59.9062 11.8125 65.2344 16.6094
L65.9219 16.6094
z
" id="Verdana-43"/>
     </defs>
     <g transform="translate(453.26025 130.221)scale(0.144 -0.144)">
      <use xlink:href="#Verdana-43"/>
      <use x="69.82421875" xlink:href="#Verdana-75"/>
      <use x="133.10546875" xlink:href="#Verdana-63"/>
      <use x="185.205078125" xlink:href="#Verdana-6b"/>
      <use x="243.384765625" xlink:href="#Verdana-6f"/>
      <use x="304.078125" xlink:href="#Verdana-6f"/>
     </g>
    </g>
    <g id="line2d_38">
     <path d="
M417.26 146.221
L437.42 146.221" style="fill:none;stroke:#bf00bf;stroke-linecap:square;"/>
    </g>
    <g id="line2d_39"/>
    <g id="text_20">
     <!-- qABC -->
     <defs>
      <path d="
M53.2656 -20.125
L44.0938 -20.125
L44.0938 6.15625
Q39.8438 2.48438 35.6406 0.703125
Q31.4531 -1.07812 26.5625 -1.07812
Q16.8438 -1.07812 11.0625 6.42188
Q5.28125 13.9219 5.28125 27.0938
Q5.28125 34.125 7.29688 39.5156
Q9.32812 44.9219 12.6406 48.5781
Q15.875 52.1562 20.2188 54.1094
Q24.5625 56.0625 29.3906 56.0625
Q33.7969 56.0625 37.1875 55.0781
Q40.5781 54.1094 44.0938 52.2031
L44.6719 54.5469
L53.2656 54.5469
z

M44.0938 13.875
L44.0938 44.7344
Q40.2812 46.4375 37.3438 47.1094
Q34.4219 47.7969 31 47.7969
Q23.0469 47.7969 18.8906 42.4062
Q14.75 37.0156 14.75 27.5469
Q14.75 17.9688 18.0938 12.8125
Q21.4375 7.67188 28.6094 7.67188
Q32.625 7.67188 36.625 9.40625
Q40.625 11.1406 44.0938 13.875" id="Verdana-71"/>
     </defs>
     <g transform="translate(453.26025 151.26075)scale(0.144 -0.144)">
      <use xlink:href="#Verdana-71"/>
      <use x="62.3046875" xlink:href="#Verdana-41"/>
      <use x="130.6640625" xlink:href="#Verdana-42"/>
      <use x="199.21875" xlink:href="#Verdana-43"/>
     </g>
    </g>
   </g>
  </g>
 </g>
 <defs>
  <clipPath id="p7ff5b81e1d">
   <rect height="345.6" width="446.4" x="72.0" y="43.2"/>
  </clipPath>
 </defs>
</svg>
