<?xml version="1.0" encoding="utf-8" standalone="no"?>
<!DOCTYPE svg PUBLIC "-//W3C//DTD SVG 1.1//EN"
  "http://www.w3.org/Graphics/SVG/1.1/DTD/svg11.dtd">
<!-- Created with matplotlib (http://matplotlib.org/) -->
<svg height="432pt" version="1.1" viewBox="0 0 576 432" width="576pt" xmlns="http://www.w3.org/2000/svg" xmlns:xlink="http://www.w3.org/1999/xlink">
 <defs>
  <style type="text/css">
*{stroke-linecap:butt;stroke-linejoin:round;}
  </style>
 </defs>
 <g id="figure_1">
  <g id="patch_1">
   <path d="
M0 432
L576 432
L576 0
L0 0
z
" style="fill:#ffffff;"/>
  </g>
  <g id="axes_1">
   <g id="patch_2">
    <path d="
M72 388.8
L518.4 388.8
L518.4 43.2
L72 43.2
z
" style="fill:#ffffff;"/>
   </g>
   <g id="line2d_1">
    <path clip-path="url(#p7ff5b81e1d)" d="
M72 388.8
L73.607 388.8
L73.7856 388.57
L75.2141 388.57
L75.3926 388.111
L76.8211 388.111
L76.9997 378
L78.4282 378
L78.6067 385.123
L80.0352 385.123
L80.2138 379.838
L81.6422 379.838
L81.8208 381.906
L83.2493 381.906
L83.4278 381.217
L84.8563 381.217
L85.0349 383.515
L86.4634 383.515
L86.6419 380.528
L88.0704 380.528
L88.249 376.391
L89.6774 376.391
L89.856 370.417
L91.2845 370.417
L91.463 367.2
L92.8915 367.2
L93.0701 360.536
L94.4986 360.536
L94.6771 355.711
L96.1056 355.711
L96.2842 351.345
L97.7126 351.345
L97.8912 344.681
L99.3197 344.681
L99.4982 337.328
L100.927 337.328
L101.105 330.664
L102.534 330.664
L102.712 323.081
L104.141 323.081
L104.319 317.106
L105.748 317.106
L105.926 310.902
L107.355 310.902
L107.533 304.009
L108.962 304.009
L109.14 297.804
L110.569 297.804
L110.748 289.991
L112.176 289.991
L112.355 283.328
L113.783 283.328
L113.962 276.894
L115.39 276.894
L115.569 271.609
L116.997 271.609
L117.176 266.553
L118.604 266.553
L118.783 262.187
L120.211 262.187
L120.39 256.213
L121.818 256.213
L121.997 251.387
L123.425 251.387
L123.604 246.791
L125.032 246.791
L125.211 242.426
L126.639 242.426
L126.818 239.209
L128.246 239.209
L128.425 234.843
L129.853 234.843
L130.032 231.166
L131.46 231.166
L131.639 228.638
L133.068 228.638
L133.246 225.421
L134.675 225.421
L134.853 223.123
L136.282 223.123
L136.46 219.906
L137.889 219.906
L138.067 216.23
L139.496 216.23
L139.674 213.013
L141.103 213.013
L141.281 210.715
L142.71 210.715
L142.888 207.957
L144.317 207.957
L144.495 205.43
L145.924 205.43
L146.102 202.902
L147.531 202.902
L147.709 201.064
L149.138 201.064
L149.316 197.847
L150.745 197.847
L150.924 194.86
L152.352 194.86
L152.531 191.643
L153.959 191.643
L154.138 189.804
L155.566 189.804
L155.745 187.047
L157.173 187.047
L157.352 186.128
L158.78 186.128
L158.959 183.83
L160.387 183.83
L160.566 182.681
L161.994 182.681
L162.173 181.532
L163.601 181.532
L163.78 179.464
L165.208 179.464
L165.387 177.626
L166.815 177.626
L166.994 176.247
L168.422 176.247
L168.601 175.098
L170.029 175.098
L170.208 173.03
L171.636 173.03
L171.815 171.191
L173.244 171.191
L173.422 169.583
L174.851 169.583
L175.029 168.664
L176.458 168.664
L176.636 165.677
L178.065 165.677
L178.243 163.838
L179.672 163.838
L179.85 162.46
L181.279 162.46
L181.457 160.851
L182.886 160.851
L183.064 159.472
L184.493 159.472
L184.671 157.864
L186.1 157.864
L186.278 156.485
L187.707 156.485
L187.885 154.647
L189.314 154.647
L189.492 153.038
L190.921 153.038
L191.1 151.66
L192.528 151.66
L192.707 150.511
L194.135 150.511
L194.314 148.902
L195.742 148.902
L195.921 147.294
L197.349 147.294
L197.528 146.834
L198.956 146.834
L199.135 144.766
L200.563 144.766
L200.742 144.077
L202.17 144.077
L202.349 142.009
L203.777 142.009
L203.956 139.711
L205.384 139.711
L205.563 137.872
L206.991 137.872
L207.17 137.413
L208.598 137.413
L208.777 135.804
L210.205 135.804
L210.384 133.966
L211.812 133.966
L211.991 133.277
L213.42 133.277
L213.598 132.817
L215.027 132.817
L215.205 131.898
L216.634 131.898
L216.812 131.209
L218.241 131.209
L218.419 130.06
L219.848 130.06
L220.026 127.762
L221.455 127.762
L221.633 126.383
L223.062 126.383
L223.24 126.153
L224.669 126.153
L224.847 125.694
L226.276 125.694
L226.454 124.774
L227.883 124.774
L228.061 123.855
L229.49 123.855
L229.668 123.396
L231.097 123.396
L231.276 122.247
L232.704 122.247
L232.883 121.557
L234.311 121.557
L234.49 121.328
L235.918 121.328
L236.097 120.638
L237.525 120.638
L237.704 119.489
L239.132 119.489
L239.311 118.57
L240.739 118.57
L240.918 117.881
L242.346 117.881
L242.525 117.421
L245.56 117.421
L245.739 116.962
L248.774 116.962
L248.953 115.583
L250.381 115.583
L250.56 115.353
L251.988 115.353
L252.167 114.894
L253.596 114.894
L253.774 114.664
L255.203 114.664
L255.381 114.434
L256.81 114.434
L256.988 113.745
L258.417 113.745
L258.595 113.285
L260.024 113.285
L260.202 112.366
L263.238 112.366
L263.416 112.136
L266.452 112.136
L266.63 111.906
L268.059 111.906
L268.237 111.217
L269.666 111.217
L269.844 110.528
L272.88 110.528
L273.059 108.919
L274.487 108.919
L274.666 108.23
L276.094 108.23
L276.273 107.311
L279.308 107.311
L279.487 106.851
L280.915 106.851
L281.094 106.391
L282.522 106.391
L282.701 106.162
L284.129 106.162
L284.308 105.932
L285.736 105.932
L285.915 105.702
L287.343 105.702
L287.522 104.783
L288.95 104.783
L289.129 104.323
L290.557 104.323
L290.736 104.094
L292.164 104.094
L292.343 103.634
L296.986 103.634
L297.164 103.404
L300.2 103.404
L300.378 103.174
L301.807 103.174
L301.985 102.715
L303.414 102.715
L303.592 102.026
L305.021 102.026
L305.199 101.566
L306.628 101.566
L306.806 101.106
L308.235 101.106
L308.413 100.877
L309.842 100.877
L310.02 100.647
L311.449 100.647
L311.717 100.187
L313.056 100.187
L313.235 99.7277
L314.663 99.7277
L314.842 99.4979
L316.27 99.4979
L316.449 99.0383
L319.484 99.0383
L319.663 98.1191
L321.091 98.1191
L321.27 97.6596
L322.698 97.6596
L322.877 97.2
L327.519 97.2
L327.698 96.7404
L329.126 96.7404
L329.305 96.5106
L330.733 96.5106
L330.912 96.2809
L333.948 96.2809
L334.126 95.5915
L335.555 95.5915
L335.733 95.3617
L340.376 95.3617
L340.554 95.1319
L343.59 95.1319
L343.858 94.6723
L350.018 94.6723
L350.196 94.4426
L351.625 94.4426
L351.804 93.983
L353.232 93.983
L353.411 93.7532
L354.125 93.7532
L354.303 93.5234
L354.928 93.5234
L355.107 93.2936
L359.66 93.2936
L359.839 93.0638
L364.749 93.0638
L364.928 92.834
L366.088 92.834
L366.267 92.6043
L367.695 92.6043
L367.874 91.6851
L369.302 91.6851
L369.481 91.4553
L374.124 91.4553
L374.302 90.766
L374.57 90.766
L374.748 90.5362
L376.98 90.5362
L377.159 90.3064
L379.034 90.3064
L379.212 90.0766
L380.552 90.0766
L380.73 89.617
L383.766 89.617
L383.944 89.3872
L385.373 89.3872
L385.551 89.1574
L386.98 89.1574
L387.158 88.9277
L393.408 88.9277
L393.676 88.4681
L395.015 88.4681
L395.194 87.7787
L399.836 87.7787
L400.015 87.3191
L403.05 87.3191
L403.229 87.0894
L409.478 87.0894
L409.657 86.8596
L411.085 86.8596
L411.264 86.6298
L411.353 86.6298
L411.532 86.4
L415.907 86.4
L416.085 86.1702
L431.977 86.1702
L432.156 85.9404
L433.584 85.9404
L433.763 85.4809
L444.833 85.4809
L445.012 85.2511
L446.44 85.2511
L446.619 85.0213
L451.261 85.0213
L451.44 84.7915
L459.297 84.7915
L459.475 84.5617
L460.904 84.5617
L461.082 84.3319
L491.437 84.3319
L491.616 84.1021
L507.508 84.1021
L507.686 83.8723
L509.115 83.8723
L509.293 83.6426
L518.311 83.6426
L518.311 83.6426" style="fill:none;stroke:#0000ff;stroke-dasharray:6.000000,2.000000;stroke-dashoffset:0.0;"/>
   </g>
   <g id="line2d_2">
    <path clip-path="url(#p7ff5b81e1d)" d="
M72 388.8
L73.0714 388.8
L73.2499 388.244
L73.607 388.244
L73.7856 388.8
L76.2854 388.8
L76.5533 387.689
L76.6426 387.689
L76.8211 386.577
L76.9997 388.244
L77.4461 388.244
L77.6246 387.689
L77.7139 387.689
L77.8925 386.577
L78.071 386.022
L78.2496 386.022
L78.4282 385.466
L78.6067 388.8
L79.321 388.8
L79.4995 386.577
L79.5888 386.577
L79.7674 386.022
L79.8566 386.022
L80.2138 384.355
L80.303 384.355
L81.0173 380.466
L81.1066 380.466
L81.3744 379.354
L81.4637 379.354
L81.6422 378.799
L81.8208 384.911
L82.0886 384.911
L82.535 381.577
L82.7136 379.354
L82.8029 379.354
L83.0707 378.243
L83.2493 378.243
L83.3386 381.577
L83.4278 381.021
L83.6957 381.021
L84.4099 372.687
L84.4992 372.687
L84.6778 369.909
L84.767 369.909
L84.8563 368.797
L84.9456 374.909
L85.0349 373.798
L85.1242 373.798
L85.3027 372.131
L85.392 372.131
L85.5706 368.797
L85.7491 367.131
L86.1955 362.13
L86.2848 362.13
L86.3741 361.574
L86.8205 349.906
L86.999 349.35
L87.2669 344.905
L87.3562 344.905
L87.5347 339.905
L88.1597 328.792
L88.249 328.792
L89.4989 299.9
L89.6774 297.677
L89.7667 298.233
L90.1238 291.565
L90.481 280.453
L90.9274 267.673
L91.2845 256.561
L91.3738 258.783
L93.8736 195.997
L94.1414 187.107
L95.1235 167.105
L95.8378 151.547
L95.927 150.992
L96.1949 143.768
L96.2842 143.768
L96.7306 136.545
L97.177 133.212
L97.5341 125.433
L98.2483 117.654
L98.4269 116.543
L98.6054 113.765
L98.6947 113.765
L98.784 113.209
L99.2304 105.986
L99.3197 105.986
L100.212 100.43
L100.391 98.7627
L100.48 98.7627
L100.659 98.2071
L100.837 95.4289
L101.016 93.7621
L101.82 84.872
L101.909 84.872
L101.998 84.3164
L102.266 79.3158
L102.802 76.5376
L102.891 76.5376
L103.248 74.8707
L103.337 74.8707
L103.516 72.6482
L103.605 72.6482
L103.873 71.537
L104.141 71.537
L104.587 69.3145
L104.676 69.3145
L105.212 63.7582
L105.391 63.7582
L105.748 62.0913
L105.837 62.0913
L106.373 59.3132
L106.551 59.3132
L106.998 57.0907
L107.266 57.0907
L107.623 55.4238
L107.891 55.4238
L108.516 52.09
L108.605 52.09
L108.962 50.4232
L109.051 50.4232
L109.23 49.8675
L110.123 49.8675
L110.39 48.7563
L110.48 48.7563
L110.658 48.2006
L110.926 48.2006
L111.194 47.0894
L111.372 47.0894
L111.551 46.5338
L112.533 46.5338
L112.712 45.9781
L113.783 45.9781
L113.962 45.4225
L117.176 45.4225
L117.444 44.3113
L120.39 44.3113
L120.568 43.7556
L120.658 43.7556
L120.836 43.2
L518.311 43.2
L518.311 43.2" style="fill:none;stroke:#008000;stroke-dasharray:1.000000,1.000000;stroke-dashoffset:0.0;"/>
   </g>
   <g id="line2d_3">
    <path clip-path="url(#p7ff5b81e1d)" d="
M72 388.8
L72.0893 388.569
L72.1786 388.339
L72.3571 388.569
L72.625 388.569
L72.9821 387.877
L73.607 387.877
L73.7856 388.8
L160.476 388.8
L160.655 388.569
L165.833 388.569
L166.012 388.339
L176.725 388.339
L176.904 388.108
L187.885 388.108
L188.064 387.877
L190.653 387.877
L190.832 387.646
L195.117 387.646
L195.296 387.416
L196.456 387.416
L196.635 387.185
L199.581 387.185
L199.76 386.954
L204.581 386.954
L204.759 386.724
L204.938 386.724
L205.116 386.493
L208.331 386.493
L208.509 386.262
L210.295 386.262
L210.473 386.032
L211.366 386.032
L211.545 385.801
L213.687 385.801
L213.866 385.57
L214.491 385.57
L214.669 385.339
L215.205 385.339
L215.384 385.109
L216.009 385.109
L216.187 384.878
L217.973 384.878
L218.151 384.647
L219.044 384.647
L219.223 384.417
L221.901 384.417
L222.08 384.186
L222.258 384.186
L222.437 383.955
L224.044 383.955
L224.222 383.724
L224.669 383.724
L224.847 383.494
L226.097 383.494
L226.276 383.263
L226.633 383.263
L226.901 382.802
L227.079 382.802
L227.436 382.109
L229.49 382.109
L229.668 381.879
L229.936 381.879
L230.115 381.648
L230.383 381.648
L230.561 381.417
L230.829 381.417
L231.008 381.187
L231.186 381.187
L231.365 380.956
L231.722 380.956
L231.9 380.725
L232.079 380.725
L232.258 380.264
L232.793 380.264
L232.972 380.033
L233.24 380.033
L233.418 379.802
L234.132 379.802
L234.311 379.572
L234.757 379.572
L234.936 379.341
L235.472 379.341
L235.65 379.11
L235.829 379.11
L236.007 378.88
L236.275 378.88
L236.454 378.649
L237.436 378.649
L237.614 378.187
L238.061 378.187
L238.239 377.957
L238.864 377.957
L239.132 377.495
L240.025 377.495
L240.293 377.034
L241.096 377.034
L241.275 376.803
L241.543 376.803
L242.078 375.65
L242.168 375.65
L242.346 375.419
L242.436 375.419
L242.614 375.188
L243.06 375.188
L243.239 374.958
L244.757 374.958
L244.935 374.727
L245.025 374.727
L245.203 374.496
L245.382 374.496
L245.56 374.265
L245.739 374.265
L246.007 373.804
L246.632 373.804
L246.81 373.573
L246.989 373.573
L247.167 373.343
L247.257 373.343
L247.524 372.881
L247.882 372.881
L248.06 372.65
L248.239 372.65
L248.507 371.728
L248.685 371.497
L248.864 371.497
L249.042 371.036
L249.221 370.805
L250.381 370.805
L250.56 370.574
L251.631 370.574
L251.81 370.113
L252.703 370.113
L253.06 369.421
L254.31 369.421
L254.488 369.19
L254.667 369.19
L254.845 368.728
L254.935 368.728
L255.113 368.036
L256.006 368.036
L256.363 367.344
L257.256 367.344
L257.613 366.652
L257.702 366.652
L257.881 366.421
L258.149 366.421
L258.327 366.191
L259.042 366.191
L259.22 365.96
L259.488 365.96
L259.934 365.037
L260.738 365.037
L261.274 363.884
L261.363 363.884
L261.541 363.653
L262.256 363.653
L262.881 362.269
L262.97 362.269
L263.148 362.038
L263.863 362.038
L264.041 361.577
L264.309 361.115
L264.666 361.115
L264.845 360.884
L265.38 360.884
L265.738 360.192
L266.005 360.192
L266.184 359.962
L266.273 359.962
L266.452 359.269
L266.541 359.269
L266.72 358.808
L267.166 358.808
L267.434 358.347
L267.97 358.347
L268.148 358.116
L268.862 358.116
L269.041 357.885
L269.13 357.885
L269.309 357.654
L269.487 357.654
L269.666 357.424
L269.844 357.424
L270.112 356.962
L270.38 356.962
L270.648 356.501
L270.737 356.501
L271.005 356.04
L271.273 356.04
L271.452 355.809
L271.719 355.809
L272.166 354.886
L272.255 354.886
L272.523 354.425
L272.791 354.425
L273.059 353.963
L273.148 353.963
L273.416 353.502
L273.505 353.502
L273.684 353.271
L273.951 353.271
L274.219 352.81
L274.398 352.81
L274.666 352.348
L274.755 352.348
L275.112 351.656
L275.38 351.656
L275.558 351.425
L275.916 351.425
L276.183 350.964
L276.63 350.964
L276.808 350.733
L276.898 350.733
L277.076 350.503
L277.701 350.503
L277.88 350.272
L277.969 350.272
L278.237 349.81
L278.326 349.81
L278.505 349.349
L279.308 349.349
L279.576 348.426
L279.755 348.426
L279.933 348.195
L280.112 348.195
L280.29 347.273
L280.737 347.273
L281.004 346.811
L281.362 346.811
L281.54 346.581
L281.897 346.581
L282.344 345.658
L282.612 345.658
L282.79 345.427
L282.969 345.427
L283.147 345.196
L283.415 345.196
L283.772 344.504
L283.861 344.504
L284.129 344.043
L284.219 344.043
L284.665 343.12
L284.933 343.12
L285.201 342.658
L285.379 342.658
L285.826 341.736
L285.915 341.736
L286.272 341.044
L286.361 341.044
L286.897 339.89
L286.986 339.89
L287.254 339.429
L287.343 339.429
L287.522 338.967
L287.7 338.967
L287.879 338.275
L288.058 338.275
L288.325 337.352
L288.504 337.121
L288.95 337.121
L289.218 336.66
L289.397 336.66
L289.932 335.507
L290.379 335.507
L291.004 334.122
L291.182 334.122
L291.361 333.892
L291.45 333.892
L291.629 333.661
L291.807 333.661
L292.343 332.507
L292.522 332.507
L292.7 332.277
L292.879 332.277
L293.236 331.585
L293.325 331.585
L293.593 331.123
L293.861 331.123
L294.039 330.662
L294.486 329.739
L294.575 329.739
L294.843 329.277
L294.932 329.277
L295.379 328.355
L295.557 328.355
L295.736 328.124
L295.825 328.124
L296.361 325.586
L296.718 325.586
L297.164 324.663
L297.343 324.663
L297.521 324.433
L297.611 324.433
L297.789 323.51
L297.968 323.279
L298.325 323.279
L298.771 322.356
L299.396 322.356
L299.575 321.895
L299.664 321.895
L299.843 320.972
L299.932 320.972
L300.289 320.28
L300.378 320.28
L300.646 319.818
L300.914 319.818
L301.092 319.588
L301.182 319.588
L301.45 319.126
L301.539 319.126
L301.807 318.665
L301.896 318.665
L302.075 318.434
L302.164 318.434
L302.61 317.511
L302.878 317.511
L303.057 317.281
L303.146 317.281
L303.414 316.819
L303.592 316.819
L303.771 316.358
L304.396 316.358
L304.574 315.896
L305.11 315.896
L305.914 314.051
L306.003 314.051
L306.36 313.128
L306.539 312.205
L306.806 312.205
L307.074 311.282
L307.342 310.821
L307.521 310.821
L307.699 310.59
L307.788 310.59
L307.967 310.129
L308.056 310.129
L308.235 309.667
L308.592 309.667
L308.86 309.206
L309.038 309.206
L309.663 307.822
L310.11 307.822
L310.378 307.36
L310.556 307.36
L310.824 306.437
L311.092 306.437
L311.36 305.976
L311.895 305.976
L313.235 302.746
L313.502 302.746
L313.681 302.515
L313.949 302.515
L314.217 301.593
L314.931 299.978
L315.02 299.978
L315.377 299.285
L315.467 299.285
L316.538 296.748
L316.716 296.748
L316.895 296.286
L317.074 295.133
L317.341 294.671
L317.431 294.671
L317.699 293.748
L317.877 293.056
L317.966 293.056
L318.234 292.134
L318.413 291.903
L318.681 291.903
L318.948 290.98
L319.216 290.057
L319.306 290.057
L319.484 289.365
L319.663 289.365
L319.931 288.211
L320.02 288.211
L320.466 287.289
L320.556 287.289
L320.734 286.827
L321.27 286.827
L322.252 284.289
L322.43 283.597
L322.609 283.367
L322.698 283.367
L322.966 282.905
L323.145 282.905
L324.037 280.829
L324.216 280.829
L324.841 279.214
L325.109 277.599
L325.555 277.599
L326.091 276.445
L326.359 276.445
L326.716 275.753
L326.805 275.753
L326.984 275.523
L327.073 275.523
L327.519 274.6
L327.698 274.6
L327.966 274.138
L328.234 274.138
L328.501 273.677
L328.591 273.677
L329.305 272.062
L329.751 272.062
L329.93 271.831
L330.019 271.831
L330.555 270.678
L330.823 270.678
L331.001 269.986
L331.894 269.986
L332.162 269.524
L332.251 269.524
L332.43 269.293
L332.519 269.293
L332.787 268.832
L332.965 268.832
L333.144 268.14
L333.233 268.14
L333.412 267.909
L333.501 267.909
L333.948 266.986
L334.126 266.986
L334.394 266.525
L334.572 266.525
L334.751 266.064
L335.197 265.141
L335.376 265.141
L335.555 264.91
L335.733 264.91
L336.447 263.295
L336.715 263.295
L336.894 263.064
L336.983 263.064
L337.429 261.68
L337.697 260.757
L337.965 260.296
L338.054 260.296
L338.412 259.604
L338.501 259.604
L339.483 257.297
L339.751 257.297
L339.929 257.066
L340.019 257.066
L340.197 256.374
L340.376 255.912
L340.644 255.912
L341.001 255.22
L341.179 255.22
L341.626 254.297
L341.893 254.297
L342.251 252.913
L342.34 252.913
L342.786 251.068
L342.876 251.068
L343.322 250.145
L343.411 250.145
L343.59 249.914
L343.679 249.914
L344.304 248.53
L344.393 248.53
L344.75 247.607
L344.929 246.915
L345.375 245.992
L345.732 245.992
L345.911 245.3
L346 245.3
L346.447 244.377
L346.536 244.377
L346.715 243.685
L346.804 243.685
L346.982 243.223
L347.161 242.531
L347.25 242.531
L348.054 240.686
L348.143 240.686
L348.322 239.994
L348.5 239.994
L348.768 238.84
L348.857 238.84
L349.214 238.148
L349.304 238.148
L350.018 236.533
L350.107 236.533
L350.286 236.302
L350.464 236.302
L350.732 235.379
L351 235.379
L352.607 231.457
L352.964 231.457
L353.143 231.227
L353.232 231.227
L353.411 230.535
L353.768 230.535
L353.946 230.304
L354.214 228.689
L354.571 228.689
L354.75 228.458
L355.018 228.458
L355.375 227.766
L355.464 227.766
L355.732 226.843
L355.821 226.843
L356 226.613
L356.089 226.613
L356.625 225.459
L356.714 225.459
L356.892 225.228
L357.25 225.228
L357.428 224.998
L357.696 224.998
L357.875 224.075
L357.964 224.075
L358.946 221.306
L359.214 220.383
L359.392 220.153
L359.482 220.153
L359.928 219.23
L360.196 219.23
L360.553 218.538
L360.821 218.538
L360.999 218.307
L361.089 218.307
L361.267 217.615
L361.535 216.692
L361.803 214.616
L362.964 211.847
L363.231 211.847
L363.767 210.694
L364.035 210.694
L364.392 210.002
L364.481 210.002
L364.749 209.54
L364.928 209.54
L365.285 208.848
L365.463 208.848
L365.731 208.387
L365.82 208.387
L366.267 207.464
L366.356 207.464
L366.892 206.31
L367.16 206.31
L367.517 205.618
L367.785 205.618
L368.588 203.542
L368.767 202.619
L368.856 202.619
L369.035 201.465
L369.481 201.465
L369.66 201.004
L370.731 198.466
L370.82 198.466
L370.999 197.543
L371.088 197.543
L371.267 197.082
L371.534 197.082
L371.892 196.39
L371.981 196.39
L372.159 195.698
L372.516 194.313
L372.606 194.313
L372.784 194.083
L372.963 194.083
L373.409 192.929
L373.588 192.006
L373.766 192.006
L373.945 191.776
L374.034 191.776
L374.659 190.391
L374.838 190.391
L375.016 189.93
L375.373 189.238
L375.463 189.238
L375.731 188.315
L375.82 188.315
L376.266 187.392
L376.356 187.392
L377.07 185.777
L377.248 185.777
L377.516 184.393
L377.695 184.393
L377.963 183.932
L378.23 183.932
L378.677 183.009
L378.855 183.009
L379.034 182.778
L379.123 182.778
L379.391 182.317
L379.48 182.317
L380.373 180.24
L380.462 180.24
L380.641 179.548
L380.82 179.548
L380.998 178.856
L381.087 178.856
L381.444 178.164
L381.712 178.164
L381.891 177.472
L381.98 177.472
L382.248 176.549
L382.516 176.549
L382.605 176.318
L382.784 175.395
L383.319 175.395
L383.766 174.473
L383.855 174.473
L384.034 174.242
L384.123 174.242
L384.391 173.781
L384.837 173.781
L385.105 172.858
L385.284 172.627
L385.373 172.627
L385.641 171.704
L385.819 171.704
L386.98 168.936
L387.158 168.936
L387.516 168.244
L387.873 168.244
L388.408 167.09
L388.676 167.09
L389.123 166.167
L389.212 166.167
L389.569 165.475
L389.658 165.475
L389.926 164.552
L390.105 163.86
L390.283 163.86
L390.462 163.629
L390.908 163.629
L391.176 162.476
L391.355 162.476
L391.89 161.322
L392.158 161.322
L393.765 157.4
L393.854 157.4
L394.122 156.477
L395.283 153.709
L395.461 153.709
L395.997 152.555
L396.086 152.555
L396.622 151.402
L396.711 151.402
L396.89 150.71
L397.068 150.018
L397.247 150.018
L397.426 149.787
L397.515 149.787
L397.783 149.326
L397.961 149.326
L398.14 149.095
L398.229 149.095
L398.497 148.172
L398.943 148.172
L399.479 147.018
L399.658 147.018
L399.836 146.557
L400.015 146.557
L400.193 146.096
L400.372 146.096
L400.64 145.634
L400.908 145.634
L401.175 145.173
L401.443 145.173
L402.157 143.558
L402.693 143.558
L402.782 143.327
L402.961 142.174
L403.14 141.943
L403.229 141.943
L403.407 141.251
L404.122 141.251
L404.389 140.559
L404.568 139.636
L404.747 139.405
L404.836 139.405
L405.014 139.174
L405.104 139.174
L405.282 138.713
L405.372 138.713
L405.461 138.482
L405.729 137.098
L405.818 137.098
L406.086 136.637
L406.443 136.637
L406.621 135.944
L407.068 135.944
L407.514 135.022
L407.604 135.022
L407.871 134.099
L408.139 133.176
L408.318 133.176
L408.496 132.945
L408.586 132.945
L408.943 132.253
L409.032 132.253
L409.3 131.792
L409.568 131.792
L409.746 131.33
L410.193 131.33
L410.46 130.869
L410.728 130.869
L410.996 130.407
L411.175 130.407
L411.443 129.946
L411.532 129.946
L411.71 129.023
L411.978 129.023
L412.157 128.793
L412.603 128.793
L412.782 128.331
L413.317 127.178
L413.407 127.178
L413.585 126.947
L413.853 126.947
L414.121 126.485
L414.389 126.485
L414.835 125.563
L415.371 125.563
L415.639 125.101
L416.621 125.101
L416.799 124.87
L417.156 124.87
L419.21 119.795
L419.478 119.795
L419.835 119.103
L420.013 119.103
L420.281 118.641
L420.817 118.641
L420.996 118.411
L421.085 118.411
L421.71 117.026
L421.799 117.026
L422.335 115.873
L422.424 115.873
L422.603 114.95
L422.781 114.95
L422.96 114.719
L423.049 114.719
L423.228 114.489
L423.495 114.489
L423.674 114.258
L424.21 114.258
L424.388 113.566
L425.281 111.489
L425.46 111.489
L425.727 111.028
L426.977 111.028
L427.245 110.105
L427.424 110.105
L427.602 109.874
L427.692 109.874
L427.87 109.644
L428.227 109.644
L428.763 108.49
L428.852 108.49
L429.031 107.567
L429.299 107.567
L429.566 107.106
L430.281 107.106
L430.638 106.414
L430.727 106.414
L430.906 105.722
L431.084 105.722
L431.263 105.491
L431.352 105.491
L431.531 105.26
L431.888 105.26
L432.066 105.03
L433.227 105.03
L433.495 104.568
L433.584 104.568
L433.852 104.107
L433.941 104.107
L434.12 103.876
L434.209 103.876
L434.477 103.415
L434.566 103.415
L434.745 103.184
L435.012 103.184
L435.191 102.953
L435.459 102.953
L435.637 102.723
L435.816 102.723
L436.084 102.261
L436.173 102.261
L436.441 101.8
L436.887 101.8
L437.066 101.569
L437.334 101.569
L437.512 101.338
L437.691 101.338
L437.869 101.108
L437.959 101.108
L438.137 100.877
L438.494 100.877
L438.673 100.646
L439.03 100.646
L439.209 100.185
L439.387 100.185
L439.566 99.4927
L439.744 99.4927
L440.012 99.0312
L440.191 99.0312
L440.369 98.8005
L440.548 98.8005
L440.816 98.3391
L440.994 98.3391
L441.53 97.1856
L441.708 97.1856
L441.976 96.7242
L442.066 96.7242
L442.423 96.032
L442.601 96.032
L442.869 95.5706
L442.958 95.5706
L443.316 94.8785
L443.405 94.8785
L443.494 94.6478
L443.673 93.9557
L443.762 93.9557
L444.298 92.8021
L444.387 92.8021
L444.565 92.5714
L444.744 92.5714
L444.923 92.3407
L445.012 92.3407
L445.19 92.11
L445.458 92.11
L445.637 91.8793
L445.726 91.8793
L445.994 91.4179
L446.172 91.4179
L446.44 90.9565
L446.708 90.9565
L446.887 90.2644
L446.976 90.2644
L447.155 90.0336
L447.869 90.0336
L448.047 89.8029
L448.404 89.8029
L448.583 89.3415
L448.762 89.3415
L449.029 88.8801
L449.119 88.8801
L449.297 88.6494
L449.744 88.6494
L449.922 88.4187
L451.529 88.4187
L451.797 87.9573
L452.244 87.9573
L452.511 87.4959
L452.601 87.4959
L452.779 87.2652
L452.958 87.2652
L453.136 87.0344
L453.315 87.0344
L453.583 86.573
L453.672 86.573
L453.851 86.3423
L454.029 86.3423
L454.208 86.1116
L454.297 86.1116
L454.476 85.8809
L454.654 85.8809
L454.922 85.4195
L455.1 85.4195
L455.279 85.1888
L455.368 85.1888
L455.636 84.7274
L455.904 84.7274
L456.083 84.266
L456.261 84.0352
L456.35 84.0352
L456.529 83.8045
L456.708 83.8045
L456.886 83.5738
L456.975 83.5738
L457.154 83.1124
L457.69 83.1124
L457.868 82.8817
L458.136 82.8817
L458.315 82.651
L458.493 82.651
L458.672 82.4203
L459.029 82.4203
L459.207 82.1896
L459.297 82.1896
L459.475 81.9589
L460.457 81.9589
L460.636 81.7282
L460.725 81.7282
L460.993 81.2668
L461.35 81.2668
L461.618 80.3439
L461.975 80.3439
L462.154 80.1132
L462.779 80.1132
L462.957 79.8825
L463.136 79.8825
L463.314 79.6518
L463.582 79.6518
L463.85 79.1904
L464.028 79.1904
L464.207 78.9597
L464.296 78.9597
L464.564 78.4983
L465.011 78.4983
L465.189 78.2676
L465.278 78.2676
L465.457 78.0368
L465.546 78.0368
L465.725 77.8061
L466.26 77.8061
L466.528 77.3447
L466.975 77.3447
L467.153 76.8833
L468.314 76.8833
L468.582 76.4219
L468.76 76.4219
L468.939 75.9605
L469.207 75.9605
L469.564 75.2684
L469.921 75.2684
L470.278 74.5762
L470.546 74.5762
L471.082 73.4227
L471.349 73.4227
L471.528 72.7306
L471.885 72.7306
L472.064 72.4999
L472.242 72.4999
L472.421 72.2692
L472.778 72.2692
L472.956 72.0385
L473.224 72.0385
L473.492 71.577
L473.671 71.577
L473.939 71.1156
L474.385 71.1156
L474.564 70.8849
L475.188 70.8849
L475.546 70.1928
L475.635 70.1928
L475.813 69.9621
L475.903 69.9621
L476.171 69.5007
L477.063 69.5007
L477.242 69.27
L478.135 69.27
L478.313 69.0393
L478.849 69.0393
L479.028 68.8085
L479.92 68.8085
L480.188 68.3471
L480.813 68.3471
L480.992 68.1164
L481.26 68.1164
L481.438 67.8857
L483.492 67.8857
L483.759 67.4243
L483.938 67.4243
L484.384 66.5015
L484.652 66.5015
L485.009 65.8093
L485.188 65.8093
L485.366 65.5786
L486.17 65.5786
L486.438 65.1172
L486.616 65.1172
L486.795 64.6558
L486.973 64.4251
L487.063 64.4251
L487.42 63.733
L488.045 63.733
L488.223 63.2716
L488.938 63.2716
L489.116 63.0409
L489.563 63.0409
L489.741 62.8101
L490.098 62.8101
L490.277 62.5794
L491.348 62.5794
L491.527 62.3487
L491.705 62.3487
L491.884 62.118
L494.562 62.118
L494.741 61.8873
L495.098 61.8873
L495.276 61.6566
L495.723 61.6566
L495.901 61.4259
L497.241 61.4259
L497.419 61.1952
L497.598 61.1952
L497.776 60.9645
L498.044 60.9645
L498.223 60.7338
L498.669 60.7338
L499.026 60.0417
L499.83 60.0417
L500.008 59.8109
L501.615 59.8109
L501.794 59.5802
L502.062 59.5802
L502.33 59.1188
L503.133 59.1188
L503.312 58.8881
L503.58 58.8881
L503.937 58.196
L504.204 58.196
L504.383 57.9653
L505.544 57.9653
L505.722 57.7346
L505.99 57.7346
L506.169 57.5039
L506.436 57.5039
L506.615 57.2732
L508.847 57.2732
L509.115 56.8117
L510.811 56.8117
L510.99 56.581
L511.258 56.581
L511.436 56.3503
L511.793 56.3503
L511.972 56.1196
L512.508 56.1196
L512.686 55.8889
L513.579 55.8889
L513.847 55.4275
L514.204 55.4275
L514.382 55.1968
L515.543 55.1968
L515.722 54.9661
L518.311 54.9661
L518.311 54.9661" style="fill:none;stroke:#ff0000;stroke-dasharray:3.000000,6.000000;stroke-dashoffset:0.0;"/>
   </g>
   <g id="line2d_4">
    <path clip-path="url(#p7ff5b81e1d)" d="
M72 388.623
L72.0893 388.623
L72.1786 388.623
L72.3571 388.8
L72.5357 388.8
L72.7142 388.623
L73.1606 388.623
L73.607 387.736
L73.7856 388.623
L75.2141 388.623
L75.3926 388.8
L245.65 388.8
L245.828 388.623
L257.435 388.623
L257.613 388.445
L259.399 388.445
L259.577 388.268
L281.183 388.268
L281.362 388.09
L289.843 388.09
L290.022 387.913
L296.45 387.913
L296.628 387.736
L297.7 387.736
L297.878 387.558
L299.039 387.558
L299.218 387.381
L299.396 387.381
L299.575 387.203
L303.057 387.203
L303.235 387.026
L306.092 387.026
L306.271 386.848
L309.842 386.848
L310.02 386.671
L314.663 386.671
L314.842 386.494
L314.931 386.494
L315.109 386.316
L318.502 386.316
L318.681 386.139
L318.948 386.139
L319.127 385.961
L322.43 385.961
L322.609 385.784
L327.787 385.784
L327.966 385.607
L328.591 385.607
L328.769 385.429
L331.269 385.429
L331.448 385.252
L335.376 385.252
L335.555 385.074
L338.59 385.074
L338.769 384.897
L338.858 384.897
L339.036 384.542
L344.483 384.542
L344.661 384.365
L346.268 384.365
L346.536 384.01
L346.625 384.01
L346.893 383.655
L348.679 383.655
L348.857 383.478
L350.464 383.478
L350.643 383.3
L351.179 383.3
L351.357 383.123
L352.339 383.123
L352.518 382.945
L355.821 382.945
L356 382.768
L359.303 382.768
L359.571 382.413
L360.374 382.413
L360.553 382.236
L364.213 382.236
L364.392 382.058
L366.624 382.058
L366.803 381.881
L366.981 381.881
L367.16 381.703
L367.517 381.703
L367.695 381.526
L367.785 381.526
L367.963 381.349
L370.463 381.349
L370.642 380.994
L371.177 380.994
L371.356 380.816
L372.606 380.816
L372.784 380.639
L373.856 380.639
L374.034 380.462
L375.016 380.462
L375.195 380.284
L377.338 380.284
L377.516 380.107
L377.605 380.107
L377.784 379.929
L377.873 379.929
L378.052 379.752
L378.766 379.752
L378.945 379.575
L381.355 379.575
L381.534 379.397
L381.712 379.397
L381.891 379.22
L382.427 379.22
L382.605 379.042
L384.569 379.042
L384.748 378.865
L384.926 378.865
L385.284 378.333
L385.908 378.333
L386.087 378.155
L388.498 378.155
L388.676 377.978
L391.712 377.978
L391.89 377.8
L392.515 377.8
L392.694 377.623
L393.229 377.623
L393.408 377.446
L395.015 377.446
L395.372 376.913
L395.551 376.913
L395.729 376.736
L395.908 376.736
L396.176 376.381
L396.711 376.381
L396.89 376.026
L397.068 376.026
L397.247 375.849
L397.426 375.849
L397.604 375.671
L399.033 375.671
L399.211 375.494
L399.836 375.494
L400.104 375.139
L400.372 375.139
L400.55 374.962
L402.336 374.962
L402.604 374.607
L405.461 374.607
L405.639 374.43
L405.996 374.43
L406.175 373.897
L406.711 373.897
L406.889 373.72
L407.068 373.72
L407.246 373.543
L407.782 373.543
L407.961 373.188
L408.318 373.188
L408.496 373.01
L409.211 373.01
L409.389 372.833
L409.836 372.833
L410.193 372.301
L410.282 372.301
L410.46 372.123
L411.889 372.123
L412.068 371.946
L412.96 371.946
L413.139 371.768
L413.317 371.768
L413.496 371.591
L413.853 371.591
L414.032 371.414
L414.121 371.414
L414.3 371.236
L414.389 371.236
L414.657 370.881
L416.799 370.881
L417.424 369.817
L417.514 369.817
L417.692 369.639
L417.871 369.639
L418.049 369.462
L419.21 369.462
L419.388 369.285
L419.478 369.285
L419.656 369.107
L420.46 369.107
L420.906 368.398
L421.442 368.398
L421.71 368.043
L423.138 368.043
L423.317 367.865
L423.852 367.865
L424.12 367.51
L424.388 367.51
L424.567 367.333
L425.013 367.333
L425.192 366.978
L426.799 366.978
L426.977 366.801
L427.334 366.801
L427.513 366.623
L427.781 366.623
L428.495 365.382
L428.674 365.382
L429.031 364.849
L430.816 364.849
L430.995 364.672
L431.084 364.672
L431.352 364.317
L431.441 364.317
L431.709 363.962
L432.334 363.962
L432.602 363.607
L434.388 363.607
L434.566 363.253
L434.745 363.075
L434.834 363.075
L435.37 362.188
L435.637 362.188
L435.816 362.011
L435.905 362.011
L436.173 361.656
L436.352 361.656
L436.53 361.478
L437.959 361.478
L438.137 361.301
L438.227 361.301
L438.405 361.124
L438.494 361.124
L439.119 360.059
L439.387 360.059
L439.566 359.882
L440.101 359.882
L440.28 359.704
L441.976 359.704
L442.512 358.817
L442.601 358.817
L442.958 358.285
L443.494 358.285
L443.673 358.108
L445.19 358.108
L445.458 357.753
L445.548 357.753
L445.815 357.398
L445.905 357.398
L446.083 357.221
L446.262 357.221
L446.44 357.043
L447.601 357.043
L447.869 356.688
L448.762 356.688
L449.208 355.979
L449.476 355.979
L449.654 355.801
L449.744 355.801
L450.012 355.446
L450.279 355.446
L450.547 355.092
L451.529 355.092
L451.708 354.914
L452.333 354.914
L452.511 354.737
L452.69 354.737
L452.958 354.382
L453.136 354.382
L453.672 353.495
L455.547 353.495
L455.725 353.317
L455.904 353.317
L456.261 352.785
L456.618 352.785
L457.065 352.076
L457.243 352.076
L457.6 351.543
L457.779 351.543
L457.957 351.366
L460.814 351.366
L460.993 351.011
L461.172 350.834
L462.421 350.834
L462.6 350.656
L463.046 350.656
L463.314 350.301
L463.404 350.301
L463.582 349.769
L463.761 349.769
L464.118 349.237
L464.921 349.237
L465.1 349.06
L465.189 349.06
L465.368 348.705
L465.457 348.705
L465.636 348.527
L465.814 348.527
L465.993 348.35
L466.707 348.35
L467.243 347.108
L467.421 346.753
L467.51 346.753
L468.314 345.334
L468.403 345.334
L468.582 345.156
L469.117 345.156
L469.296 344.979
L470.189 344.979
L470.457 344.624
L470.635 344.624
L470.814 344.447
L470.992 344.447
L471.349 343.382
L471.439 343.382
L471.707 342.673
L473.135 342.673
L473.314 342.495
L473.671 342.495
L473.849 341.963
L474.117 341.963
L474.653 341.076
L474.831 341.076
L475.099 340.721
L475.278 340.721
L475.456 340.544
L475.724 340.544
L475.903 340.366
L476.617 340.366
L476.796 340.189
L477.242 340.189
L477.42 340.011
L477.688 340.011
L478.313 338.947
L478.492 338.947
L478.76 338.592
L478.849 338.592
L479.028 338.237
L479.117 338.237
L479.295 338.06
L480.992 338.06
L481.795 336.641
L482.063 336.641
L482.331 336.286
L482.509 336.286
L482.688 335.931
L482.777 335.931
L482.956 335.754
L484.206 335.754
L484.563 335.221
L484.741 335.221
L485.277 334.334
L485.456 333.625
L485.545 333.625
L485.902 333.092
L486.081 333.092
L486.259 332.915
L486.973 332.915
L487.152 332.738
L488.223 332.738
L488.491 332.028
L488.938 332.028
L489.116 331.851
L489.205 331.851
L489.384 330.786
L489.473 330.786
L489.652 330.609
L490.812 330.609
L491.08 330.254
L491.527 330.254
L491.705 329.899
L491.884 329.189
L492.33 328.48
L492.42 328.48
L492.598 327.947
L492.777 327.947
L492.955 327.415
L493.044 327.415
L493.312 326.706
L493.58 326.706
L493.759 326.528
L494.741 326.528
L494.919 326.351
L495.276 326.351
L495.634 325.818
L496.08 325.818
L496.973 324.222
L497.419 324.222
L497.776 323.69
L498.491 323.69
L498.669 323.512
L498.848 323.512
L499.205 322.98
L499.383 322.98
L500.187 321.561
L500.365 321.561
L500.544 321.206
L501.615 321.206
L501.972 320.674
L502.508 320.674
L502.776 320.319
L502.865 320.319
L503.133 319.964
L503.222 319.964
L503.401 319.609
L503.669 319.254
L503.847 319.254
L504.115 318.899
L505.812 318.899
L506.347 318.012
L506.436 318.012
L506.704 317.125
L506.794 317.125
L507.24 316.416
L507.865 316.416
L508.044 316.238
L509.293 316.238
L509.74 315.529
L509.829 315.529
L510.008 315.174
L510.186 315.174
L510.722 314.287
L510.99 314.287
L511.168 314.109
L511.347 314.109
L511.525 313.932
L511.883 313.932
L512.061 313.754
L512.418 313.754
L512.686 313.4
L512.865 313.4
L513.132 313.045
L513.311 313.045
L513.579 312.69
L513.668 312.69
L513.936 311.625
L514.025 311.625
L514.204 311.093
L514.561 309.319
L514.74 309.142
L515.454 309.142
L515.632 308.964
L516.614 308.964
L517.329 307.545
L517.507 306.835
L517.686 306.835
L518.221 305.948
L518.311 305.948
L518.311 305.948" style="fill:none;stroke:#00bfbf;stroke-dasharray:5.000000,1.000000,2.000000,1.000000,5.000000,1.000000;stroke-dashoffset:0.0;"/>
   </g>
   <g id="line2d_5">
    <path clip-path="url(#p7ff5b81e1d)" d="
M72 388.8
L72.2678 388.8
L72.4464 388.11
L73.607 388.11
L73.7856 388.8
L83.6957 388.8
L83.8742 388.11
L84.8563 388.11
L85.0349 388.8
L86.2848 388.8
L86.4634 388.11
L86.7312 388.11
L86.9098 387.42
L87.0883 387.42
L87.2669 386.731
L87.3562 386.731
L87.624 385.351
L87.7133 385.351
L87.9811 383.971
L88.0704 383.971
L88.249 383.281
L89.856 383.281
L90.1238 381.902
L90.3917 381.902
L91.3738 375.004
L91.463 375.004
L91.6416 374.314
L92.5344 374.314
L92.713 373.624
L92.8915 373.624
L93.0701 374.314
L93.3379 374.314
L93.5165 372.244
L93.695 370.865
L94.0522 367.416
L94.6771 359.138
L95.3021 354.999
L95.3914 354.999
L95.5699 354.309
L96.9091 354.309
L97.5341 346.031
L97.6234 345.341
L97.8019 343.272
L97.9805 341.892
L98.3376 333.614
L98.4269 333.614
L98.5162 332.235
L98.6947 328.786
L99.2304 328.786
L99.409 328.096
L99.9446 328.096
L100.212 326.716
L100.48 326.716
L100.837 319.128
L100.927 319.128
L101.105 316.369
L101.195 316.369
L101.462 312.23
L101.552 311.54
L101.73 307.401
L101.998 304.642
L102.087 303.952
L102.266 301.193
L103.962 301.193
L104.052 300.503
L104.766 277.049
L105.391 263.253
L105.48 263.253
L105.837 253.595
L106.73 253.595
L106.908 252.905
L107.623 252.905
L107.712 251.526
L107.891 244.628
L108.069 242.558
L108.248 235.66
L108.426 234.97
L108.516 234.97
L108.783 228.072
L109.051 222.553
L109.408 212.896
L111.194 212.896
L111.819 200.479
L111.908 199.789
L112.265 190.132
L112.533 184.613
L112.801 179.784
L113.069 173.576
L113.604 173.576
L113.783 172.886
L114.319 172.886
L114.587 171.507
L114.765 171.507
L115.033 162.539
L115.301 157.71
L115.747 153.571
L115.926 150.812
L116.64 145.983
L116.908 145.983
L117.354 143.224
L118.336 143.224
L118.515 141.844
L118.783 137.016
L118.961 134.946
L119.14 130.807
L119.408 129.428
L119.497 129.428
L119.676 126.668
L119.854 123.219
L119.943 123.219
L120.033 122.529
L120.211 120.46
L120.658 120.46
L120.836 119.77
L121.193 119.77
L121.372 119.08
L121.908 119.08
L122.086 114.251
L122.175 114.251
L122.354 110.802
L122.622 108.043
L123.336 103.214
L123.425 103.214
L123.693 97.006
L125.122 97.006
L125.3 96.3162
L125.568 96.3162
L125.925 94.2467
L126.014 94.2467
L126.461 90.1078
L126.639 88.7281
L127.264 84.5892
L127.889 84.5892
L128.068 83.8994
L129.139 83.8994
L129.407 81.8299
L129.586 79.7605
L129.764 79.7605
L130.211 77.0012
L130.568 77.0012
L130.746 75.6216
L131.371 75.6216
L131.55 74.9317
L132.71 74.9317
L132.889 74.2419
L133.157 74.2419
L133.335 72.1725
L133.425 72.1725
L133.603 70.7928
L133.96 68.7234
L134.139 68.7234
L134.407 67.3437
L136.192 67.3437
L136.371 66.6539
L136.549 66.6539
L136.728 65.2743
L136.817 65.2743
L137.174 63.2048
L137.353 63.2048
L137.621 61.8251
L137.71 61.8251
L137.978 60.4455
L139.942 60.4455
L140.21 59.0659
L141.103 59.0659
L141.281 58.376
L141.46 58.376
L141.638 57.6862
L142.263 57.6862
L142.442 56.9964
L143.692 56.9964
L144.049 54.9269
L147.084 54.9269
L147.352 53.5473
L147.709 53.5473
L148.156 50.788
L148.513 50.788
L148.692 49.4084
L151.013 49.4084
L151.191 48.7186
L151.548 48.7186
L151.727 48.0287
L151.816 48.0287
L151.995 47.3389
L154.852 47.3389
L155.03 46.6491
L157.887 46.6491
L158.066 45.9593
L158.869 45.9593
L159.137 44.5796
L165.923 44.5796
L166.101 43.8898
L166.28 43.8898
L166.458 43.2
L518.311 43.2
L518.311 43.2" style="fill:none;stroke:#bf00bf;stroke-linecap:square;"/>
   </g>
   <g id="matplotlib.axis_1">
    <g id="xtick_1">
     <g id="line2d_6">
      <defs>
       <path d="
M0 0
L0 -4" id="mc7db9fdffb" style="stroke:#000000;stroke-width:0.5;"/>
      </defs>
      <g>
       <use style="stroke:#000000;stroke-width:0.5;" x="72.0" xlink:href="#mc7db9fdffb" y="388.8"/>
      </g>
     </g>
     <g id="line2d_7">
      <defs>
       <path d="
M0 0
L0 4" id="m5a7d422ac3" style="stroke:#000000;stroke-width:0.5;"/>
      </defs>
      <g>
       <use style="stroke:#000000;stroke-width:0.5;" x="72.0" xlink:href="#m5a7d422ac3" y="43.2"/>
      </g>
     </g>
     <g id="text_1">
      <!-- 0 -->
      <defs>
       <path d="
M56.9844 36.375
Q56.9844 16.7969 50.8594 7.64062
Q44.7344 -1.51562 31.8438 -1.51562
Q18.75 -1.51562 12.7188 7.76562
Q6.6875 17.0469 6.6875 36.2812
Q6.6875 55.6719 12.7812 64.9219
Q18.8906 74.1719 31.8438 74.1719
Q44.9219 74.1719 50.9531 64.7656
Q56.9844 55.375 56.9844 36.375
M44.1406 14.2031
Q45.8438 18.1719 46.4531 23.5156
Q47.0781 28.8594 47.0781 36.375
Q47.0781 43.7969 46.4531 49.2656
Q45.8438 54.7344 44.0938 58.5469
Q42.3906 62.3125 39.4219 64.2031
Q36.4688 66.1094 31.8438 66.1094
Q27.25 66.1094 24.2344 64.2031
Q21.2344 62.3125 19.4844 58.4531
Q17.8281 54.8281 17.2188 49.0156
Q16.6094 43.2188 16.6094 36.2812
Q16.6094 28.6562 17.1406 23.5312
Q17.6719 18.4062 19.4375 14.3594
Q21.0469 10.5469 24 8.54688
Q26.9531 6.54688 31.8438 6.54688
Q36.4219 6.54688 39.4531 8.45312
Q42.4844 10.3594 44.1406 14.2031" id="Verdana-30"/>
      </defs>
      <g transform="translate(68.9821875 401.918125)scale(0.12 -0.12)">
       <use xlink:href="#Verdana-30"/>
      </g>
     </g>
    </g>
    <g id="xtick_2">
     <g id="line2d_8">
      <g>
       <use style="stroke:#000000;stroke-width:0.5;" x="161.28" xlink:href="#mc7db9fdffb" y="388.8"/>
      </g>
     </g>
     <g id="line2d_9">
      <g>
       <use style="stroke:#000000;stroke-width:0.5;" x="161.28" xlink:href="#m5a7d422ac3" y="43.2"/>
      </g>
     </g>
     <g id="text_2">
      <!-- 1000 -->
      <defs>
       <path d="
M52.9375 0
L13.5781 0
L13.5781 7.42188
L28.7188 7.42188
L28.7188 56.1562
L13.5781 56.1562
L13.5781 62.7969
Q16.6562 62.7969 20.1719 63.2969
Q23.6875 63.8125 25.4844 64.7969
Q27.7344 66.0156 29.0312 67.8906
Q30.3281 69.7812 30.5156 72.9531
L38.0938 72.9531
L38.0938 7.42188
L52.9375 7.42188
z
" id="Verdana-31"/>
      </defs>
      <g transform="translate(147.2315625 401.918125)scale(0.12 -0.12)">
       <use xlink:href="#Verdana-31"/>
       <use x="63.57421875" xlink:href="#Verdana-30"/>
       <use x="127.1484375" xlink:href="#Verdana-30"/>
       <use x="190.72265625" xlink:href="#Verdana-30"/>
      </g>
     </g>
    </g>
    <g id="xtick_3">
     <g id="line2d_10">
      <g>
       <use style="stroke:#000000;stroke-width:0.5;" x="250.56" xlink:href="#mc7db9fdffb" y="388.8"/>
      </g>
     </g>
     <g id="line2d_11">
      <g>
       <use style="stroke:#000000;stroke-width:0.5;" x="250.56" xlink:href="#m5a7d422ac3" y="43.2"/>
      </g>
     </g>
     <g id="text_3">
      <!-- 2000 -->
      <defs>
       <path d="
M57.0781 0
L7.85938 0
L7.85938 10.2031
Q12.9844 14.5938 18.1406 18.9844
Q23.2969 23.3906 27.7344 27.7344
Q37.1094 36.8125 40.5781 42.1562
Q44.0469 47.5156 44.0469 53.7188
Q44.0469 59.375 40.3125 62.5625
Q36.5781 65.7656 29.8906 65.7656
Q25.4375 65.7656 20.2656 64.2031
Q15.0938 62.6406 10.1562 59.4219
L9.67188 59.4219
L9.67188 69.6719
Q13.1406 71.3906 18.9219 72.7969
Q24.7031 74.2188 30.125 74.2188
Q41.3125 74.2188 47.6562 68.8125
Q54 63.4219 54 54.2031
Q54 50.0469 52.9531 46.4531
Q51.9062 42.875 49.8594 39.6562
Q47.9531 36.625 45.3906 33.6875
Q42.8281 30.7656 39.1562 27.2031
Q33.9375 22.0781 28.3594 17.2656
Q22.7969 12.4531 17.9688 8.34375
L57.0781 8.34375
z
" id="Verdana-32"/>
      </defs>
      <g transform="translate(236.1684375 401.918125)scale(0.12 -0.12)">
       <use xlink:href="#Verdana-32"/>
       <use x="63.57421875" xlink:href="#Verdana-30"/>
       <use x="127.1484375" xlink:href="#Verdana-30"/>
       <use x="190.72265625" xlink:href="#Verdana-30"/>
      </g>
     </g>
    </g>
    <g id="xtick_4">
     <g id="line2d_12">
      <g>
       <use style="stroke:#000000;stroke-width:0.5;" x="339.84" xlink:href="#mc7db9fdffb" y="388.8"/>
      </g>
     </g>
     <g id="line2d_13">
      <g>
       <use style="stroke:#000000;stroke-width:0.5;" x="339.84" xlink:href="#m5a7d422ac3" y="43.2"/>
      </g>
     </g>
     <g id="text_4">
      <!-- 3000 -->
      <defs>
       <path d="
M50.6875 35.0156
Q53.0312 32.9062 54.5469 29.7344
Q56.0625 26.5625 56.0625 21.5312
Q56.0625 16.5469 54.25 12.3906
Q52.4375 8.25 49.1719 5.17188
Q45.5156 1.76562 40.5469 0.125
Q35.5938 -1.51562 29.6875 -1.51562
Q23.6406 -1.51562 17.7812 -0.0625
Q11.9219 1.375 8.15625 3.07812
L8.15625 13.2812
L8.89062 13.2812
Q13.0312 10.5469 18.6406 8.73438
Q24.2656 6.9375 29.5 6.9375
Q32.5625 6.9375 36.0312 7.95312
Q39.5 8.98438 41.6562 10.9844
Q43.8906 13.1406 44.9844 15.7188
Q46.0938 18.3125 46.0938 22.2656
Q46.0938 26.1719 44.8438 28.7344
Q43.6094 31.2969 41.4062 32.7656
Q39.2031 34.2812 36.0781 34.8438
Q32.9531 35.4062 29.3438 35.4062
L24.9531 35.4062
L24.9531 43.5
L28.375 43.5
Q35.7969 43.5 40.2031 46.5938
Q44.625 49.7031 44.625 55.6719
Q44.625 58.2969 43.5 60.2656
Q42.3906 62.25 40.375 63.5312
Q38.2812 64.7969 35.8906 65.2812
Q33.5 65.7656 30.4688 65.7656
Q25.8281 65.7656 20.5938 64.1094
Q15.375 62.4531 10.75 59.4219
L10.25 59.4219
L10.25 69.625
Q13.7188 71.3438 19.5 72.7812
Q25.2969 74.2188 30.7188 74.2188
Q36.0312 74.2188 40.0781 73.2344
Q44.1406 72.2656 47.4062 70.125
Q50.9219 67.7812 52.7344 64.4531
Q54.5469 61.1406 54.5469 56.6875
Q54.5469 50.6406 50.2656 46.125
Q46 41.6094 40.1875 40.4375
L40.1875 39.75
Q42.5312 39.3594 45.5469 38.1094
Q48.5781 36.8594 50.6875 35.0156" id="Verdana-33"/>
      </defs>
      <g transform="translate(325.46625 401.918125)scale(0.12 -0.12)">
       <use xlink:href="#Verdana-33"/>
       <use x="63.57421875" xlink:href="#Verdana-30"/>
       <use x="127.1484375" xlink:href="#Verdana-30"/>
       <use x="190.72265625" xlink:href="#Verdana-30"/>
      </g>
     </g>
    </g>
    <g id="xtick_5">
     <g id="line2d_14">
      <g>
       <use style="stroke:#000000;stroke-width:0.5;" x="429.12" xlink:href="#mc7db9fdffb" y="388.8"/>
      </g>
     </g>
     <g id="line2d_15">
      <g>
       <use style="stroke:#000000;stroke-width:0.5;" x="429.12" xlink:href="#m5a7d422ac3" y="43.2"/>
      </g>
     </g>
     <g id="text_5">
      <!-- 4000 -->
      <defs>
       <path d="
M58.7344 20.4531
L47.9531 20.4531
L47.9531 0
L38.5781 0
L38.5781 20.4531
L3.76562 20.4531
L3.76562 31.6875
L38.9688 72.7031
L47.9531 72.7031
L47.9531 28.2656
L58.7344 28.2656
z

M38.5781 28.2656
L38.5781 61.0781
L10.4062 28.2656
z
" id="Verdana-34"/>
      </defs>
      <g transform="translate(414.4828125 401.918125)scale(0.12 -0.12)">
       <use xlink:href="#Verdana-34"/>
       <use x="63.57421875" xlink:href="#Verdana-30"/>
       <use x="127.1484375" xlink:href="#Verdana-30"/>
       <use x="190.72265625" xlink:href="#Verdana-30"/>
      </g>
     </g>
    </g>
    <g id="xtick_6">
     <g id="line2d_16">
      <g>
       <use style="stroke:#000000;stroke-width:0.5;" x="518.4" xlink:href="#mc7db9fdffb" y="388.8"/>
      </g>
     </g>
     <g id="line2d_17">
      <g>
       <use style="stroke:#000000;stroke-width:0.5;" x="518.4" xlink:href="#m5a7d422ac3" y="43.2"/>
      </g>
     </g>
     <g id="text_6">
      <!-- 5000 -->
      <defs>
       <path d="
M56.5 23.0938
Q56.5 18.0156 54.6406 13.375
Q52.7812 8.73438 49.5625 5.5625
Q46.0469 2.15625 41.1875 0.3125
Q36.3281 -1.51562 29.9375 -1.51562
Q23.9688 -1.51562 18.4531 -0.265625
Q12.9375 0.984375 9.125 2.73438
L9.125 13.0312
L9.8125 13.0312
Q13.8125 10.5 19.1875 8.71875
Q24.5625 6.9375 29.7344 6.9375
Q33.2031 6.9375 36.4531 7.90625
Q39.7031 8.89062 42.2344 11.3281
Q44.3906 13.4219 45.4844 16.3438
Q46.5781 19.2812 46.5781 23.1406
Q46.5781 26.9062 45.2812 29.4844
Q44 32.0781 41.7031 33.6406
Q39.1562 35.5 35.5156 36.25
Q31.8906 37.0156 27.3906 37.0156
Q23.0938 37.0156 19.1094 36.4219
Q15.1406 35.8438 12.25 35.25
L12.25 72.7031
L56 72.7031
L56 64.1562
L21.6875 64.1562
L21.6875 44.8281
Q23.7812 45.0156 25.9688 45.1094
Q28.1719 45.2188 29.7812 45.2188
Q35.6875 45.2188 40.125 44.2188
Q44.5781 43.2188 48.2969 40.6719
Q52.2031 37.9844 54.3438 33.7344
Q56.5 29.5 56.5 23.0938" id="Verdana-35"/>
      </defs>
      <g transform="translate(504.084375 401.918125)scale(0.12 -0.12)">
       <use xlink:href="#Verdana-35"/>
       <use x="63.57421875" xlink:href="#Verdana-30"/>
       <use x="127.1484375" xlink:href="#Verdana-30"/>
       <use x="190.72265625" xlink:href="#Verdana-30"/>
      </g>
     </g>
    </g>
    <g id="text_7">
     <!-- Objective function exectuions -->
     <defs>
      <path d="
M63.9688 64.3594
Q68.4062 59.4688 70.7656 52.3906
Q73.1406 45.3125 73.1406 36.3281
Q73.1406 27.3438 70.7188 20.2344
Q68.3125 13.1406 63.9688 8.40625
Q59.4688 3.46875 53.3438 0.96875
Q47.2188 -1.51562 39.3594 -1.51562
Q31.6875 -1.51562 25.4062 1.01562
Q19.1406 3.5625 14.75 8.40625
Q10.3594 13.2344 7.98438 20.2656
Q5.60938 27.2969 5.60938 36.3281
Q5.60938 45.2188 7.95312 52.2656
Q10.2969 59.3281 14.7969 64.3594
Q19.0938 69.1406 25.4688 71.6719
Q31.8438 74.2188 39.3594 74.2188
Q47.1719 74.2188 53.3906 71.6562
Q59.625 69.0938 63.9688 64.3594
M63.0938 36.3281
Q63.0938 50.4844 56.7344 58.1719
Q50.3906 65.875 39.4062 65.875
Q28.3281 65.875 22 58.1719
Q15.6719 50.4844 15.6719 36.3281
Q15.6719 22.0156 22.1094 14.4219
Q28.5625 6.84375 39.4062 6.84375
Q50.25 6.84375 56.6719 14.4219
Q63.0938 22.0156 63.0938 36.3281" id="Verdana-4f"/>
      <path d="
M38.375 67.0938
L37.8906 67.0938
Q36.375 67.5312 33.9375 67.9844
Q31.5 68.4531 29.6406 68.4531
Q23.7344 68.4531 21.0625 65.8438
Q18.4062 63.2344 18.4062 56.3906
L18.4062 54.5469
L34.9688 54.5469
L34.9688 46.8281
L18.7031 46.8281
L18.7031 0
L9.51562 0
L9.51562 46.8281
L3.32812 46.8281
L3.32812 54.5469
L9.51562 54.5469
L9.51562 56.3438
Q9.51562 66.0625 14.3438 71.2656
Q19.1875 76.4688 28.3281 76.4688
Q31.3906 76.4688 33.8594 76.1719
Q36.3281 75.875 38.375 75.4844
z
" id="Verdana-66"/>
      <path d="
M56.25 0
L44.6719 0
L29.2031 20.9531
L13.625 0
L2.9375 0
L24.2188 27.2031
L3.125 54.5469
L14.7031 54.5469
L30.0781 33.9375
L45.5156 54.5469
L56.25 54.5469
L34.8125 27.6875
z
" id="Verdana-78"/>
      <path d="
M54.6406 0
L45.4531 0
L45.4531 31.0625
Q45.4531 34.8125 45.0156 38.1094
Q44.5781 41.4062 43.4062 43.2656
Q42.1875 45.3125 39.8906 46.3125
Q37.5938 47.3125 33.9375 47.3125
Q30.1719 47.3125 26.0625 45.4531
Q21.9688 43.6094 18.2188 40.7188
L18.2188 0
L9.03125 0
L9.03125 54.5469
L18.2188 54.5469
L18.2188 48.4844
Q22.5156 52.0469 27.0938 54.0469
Q31.6875 56.0625 36.5312 56.0625
Q45.3594 56.0625 50 50.7344
Q54.6406 45.4062 54.6406 35.4062
z
" id="Verdana-6e"/>
      <path d="
M18.8906 63.6719
L8.54688 63.6719
L8.54688 73.1875
L18.8906 73.1875
z

M18.3125 0
L9.125 0
L9.125 54.5469
L18.3125 54.5469
z
" id="Verdana-69"/>
      <path d="
M56.2031 54.5469
L34.125 0
L24.9062 0
L2.98438 54.5469
L12.9375 54.5469
L29.8281 11.1406
L46.5781 54.5469
z
" id="Verdana-76"/>
      <path d="
M37.3594 0.484375
Q34.7656 -0.203125 31.7031 -0.640625
Q28.6562 -1.07812 26.2656 -1.07812
Q17.9219 -1.07812 13.5781 3.40625
Q9.23438 7.90625 9.23438 17.8281
L9.23438 46.8281
L3.03125 46.8281
L3.03125 54.5469
L9.23438 54.5469
L9.23438 70.2188
L18.4062 70.2188
L18.4062 54.5469
L37.3594 54.5469
L37.3594 46.8281
L18.4062 46.8281
L18.4062 21.9688
Q18.4062 17.6719 18.5938 15.25
Q18.7969 12.8438 19.9688 10.75
Q21.0469 8.79688 22.9219 7.89062
Q24.8125 6.98438 28.6562 6.98438
Q30.9062 6.98438 33.3438 7.64062
Q35.7969 8.29688 36.8594 8.73438
L37.3594 8.73438
z
" id="Verdana-74"/>
      <path d="
M54.6875 26.3125
L14.5 26.3125
Q14.5 21.2969 16.0156 17.5469
Q17.5312 13.8125 20.1719 11.4219
Q22.7031 9.07812 26.1875 7.90625
Q29.6875 6.73438 33.8906 6.73438
Q39.4531 6.73438 45.0938 8.95312
Q50.7344 11.1875 53.125 13.3281
L53.6094 13.3281
L53.6094 3.32812
Q48.9688 1.375 44.1406 0.046875
Q39.3125 -1.26562 33.9844 -1.26562
Q20.4062 -1.26562 12.7812 6.07812
Q5.17188 13.4219 5.17188 26.9531
Q5.17188 40.3281 12.4688 48.1875
Q19.7812 56.0625 31.6875 56.0625
Q42.7188 56.0625 48.7031 49.6094
Q54.6875 43.1719 54.6875 31.2969
z

M45.75 33.3438
Q45.7031 40.5781 42.1094 44.5312
Q38.5312 48.4844 31.2031 48.4844
Q23.8281 48.4844 19.4531 44.1406
Q15.0938 39.7969 14.5 33.3438
z
" id="Verdana-65"/>
      <path d="
M26.0312 63.6719
L15.6719 63.6719
L15.6719 73.1875
L26.0312 73.1875
z

M25.4375 -1.3125
Q25.4375 -10.8906 20.5469 -15.7656
Q15.6719 -20.6562 7.46875 -20.6562
Q5.51562 -20.6562 2.3125 -20.2656
Q-0.875 -19.875 -3.03125 -19.2812
L-3.03125 -10.5469
L-2.54688 -10.5469
Q-1.17188 -11.0781 1.14062 -11.7656
Q3.46875 -12.4531 5.67188 -12.4531
Q9.1875 -12.4531 11.3281 -11.4688
Q13.4844 -10.5 14.5469 -8.54688
Q15.625 -6.59375 15.9375 -3.82812
Q16.2656 -1.07812 16.2656 2.875
L16.2656 46.8281
L4.89062 46.8281
L4.89062 54.5469
L25.4375 54.5469
z
" id="Verdana-6a"/>
      <path d="
M55.5156 27.25
Q55.5156 13.9219 48.6719 6.20312
Q41.8438 -1.51562 30.375 -1.51562
Q18.7969 -1.51562 11.9844 6.20312
Q5.17188 13.9219 5.17188 27.25
Q5.17188 40.5781 11.9844 48.3125
Q18.7969 56.0625 30.375 56.0625
Q41.8438 56.0625 48.6719 48.3125
Q55.5156 40.5781 55.5156 27.25
M46.0469 27.25
Q46.0469 37.8438 41.8906 42.9844
Q37.75 48.1406 30.375 48.1406
Q22.9062 48.1406 18.7812 42.9844
Q14.6562 37.8438 14.6562 27.25
Q14.6562 17 18.7969 11.6875
Q22.9531 6.39062 30.375 6.39062
Q37.7031 6.39062 41.875 11.6406
Q46.0469 16.8906 46.0469 27.25" id="Verdana-6f"/>
      <path d="
M49.3594 3.42188
Q44.7812 1.21875 40.6562 0
Q36.5312 -1.21875 31.8906 -1.21875
Q25.9844 -1.21875 21.0469 0.515625
Q16.1094 2.25 12.5938 5.76562
Q9.03125 9.28125 7.07812 14.6406
Q5.125 20.0156 5.125 27.2031
Q5.125 40.5781 12.4688 48.1875
Q19.8281 55.8125 31.8906 55.8125
Q36.5781 55.8125 41.0938 54.4844
Q45.6094 53.1719 49.3594 51.2656
L49.3594 41.0625
L48.875 41.0625
Q44.6719 44.3438 40.2031 46.0938
Q35.75 47.8594 31.5 47.8594
Q23.6875 47.8594 19.1719 42.6094
Q14.6562 37.3594 14.6562 27.2031
Q14.6562 17.3281 19.0625 12.0312
Q23.4844 6.73438 31.5 6.73438
Q34.2812 6.73438 37.1562 7.46875
Q40.0469 8.20312 42.3281 9.375
Q44.3438 10.4062 46.0938 11.5469
Q47.8594 12.7031 48.875 13.5312
L49.3594 13.5312
z
" id="Verdana-63"/>
      <path d="
M48 15.7188
Q48 8.25 41.8125 3.46875
Q35.6406 -1.3125 24.9531 -1.3125
Q18.8906 -1.3125 13.8438 0.125
Q8.79688 1.5625 5.375 3.26562
L5.375 13.5781
L5.85938 13.5781
Q10.2031 10.2969 15.5156 8.375
Q20.8438 6.45312 25.7344 6.45312
Q31.7812 6.45312 35.2031 8.40625
Q38.625 10.3594 38.625 14.5469
Q38.625 17.7812 36.7656 19.4375
Q34.9062 21.0938 29.6406 22.2656
Q27.6875 22.7031 24.5312 23.2812
Q21.3906 23.875 18.7969 24.5625
Q11.625 26.4688 8.60938 30.1562
Q5.60938 33.8438 5.60938 39.2031
Q5.60938 42.5781 7 45.5469
Q8.40625 48.5312 11.2344 50.875
Q13.9688 53.1719 18.1875 54.5156
Q22.4062 55.8594 27.6406 55.8594
Q32.5156 55.8594 37.5156 54.6562
Q42.5312 53.4688 45.8438 51.7656
L45.8438 41.9375
L45.3594 41.9375
Q41.8438 44.5312 36.8125 46.3125
Q31.7812 48.0938 26.9531 48.0938
Q21.9219 48.0938 18.4531 46.1562
Q14.9844 44.2344 14.9844 40.4375
Q14.9844 37.0625 17.0938 35.3594
Q19.1406 33.6406 23.7344 32.5625
Q26.2656 31.9844 29.4062 31.3906
Q32.5625 30.8125 34.6719 30.3281
Q41.0625 28.8594 44.5312 25.2969
Q48 21.6875 48 15.7188" id="Verdana-73"/>
      <path id="Verdana-20"/>
      <path d="
M57.0312 27.6875
Q57.0312 20.8438 55.0938 15.375
Q53.1719 9.90625 49.9062 6.20312
Q46.4375 2.34375 42.2812 0.40625
Q38.1406 -1.51562 33.1562 -1.51562
Q28.5156 -1.51562 25.0469 -0.40625
Q21.5781 0.6875 18.2188 2.54688
L17.625 0
L9.03125 0
L9.03125 75.9844
L18.2188 75.9844
L18.2188 48.8281
Q22.0781 52 26.4219 54.0312
Q30.7656 56.0625 36.1875 56.0625
Q45.8438 56.0625 51.4375 48.6406
Q57.0312 41.2188 57.0312 27.6875
M47.5625 27.4375
Q47.5625 37.2031 44.3281 42.25
Q41.1094 47.3125 33.9375 47.3125
Q29.9375 47.3125 25.8281 45.5781
Q21.7344 43.8438 18.2188 41.1094
L18.2188 9.85938
Q22.125 8.10938 24.9219 7.42188
Q27.7344 6.73438 31.2969 6.73438
Q38.9219 6.73438 43.2344 11.7344
Q47.5625 16.75 47.5625 27.4375" id="Verdana-62"/>
      <path d="
M54.25 0
L45.0625 0
L45.0625 6.0625
Q40.4375 2.39062 36.1875 0.4375
Q31.9375 -1.51562 26.8125 -1.51562
Q18.2188 -1.51562 13.4219 3.73438
Q8.64062 8.98438 8.64062 19.1406
L8.64062 54.5469
L17.8281 54.5469
L17.8281 23.4844
Q17.8281 19.3438 18.2188 16.375
Q18.6094 13.4219 19.875 11.3281
Q21.1875 9.1875 23.2812 8.20312
Q25.3906 7.23438 29.3906 7.23438
Q32.9531 7.23438 37.1719 9.07812
Q41.4062 10.9375 45.0625 13.8125
L45.0625 54.5469
L54.25 54.5469
z
" id="Verdana-75"/>
     </defs>
     <g transform="translate(206.5078125 418.509375)scale(0.12 -0.12)">
      <use xlink:href="#Verdana-4f"/>
      <use x="78.7109375" xlink:href="#Verdana-62"/>
      <use x="141.015625" xlink:href="#Verdana-6a"/>
      <use x="175.439453125" xlink:href="#Verdana-65"/>
      <use x="235.009765625" xlink:href="#Verdana-63"/>
      <use x="287.109375" xlink:href="#Verdana-74"/>
      <use x="326.513671875" xlink:href="#Verdana-69"/>
      <use x="353.955078125" xlink:href="#Verdana-76"/>
      <use x="412.259765625" xlink:href="#Verdana-65"/>
      <use x="471.830078125" xlink:href="#Verdana-20"/>
      <use x="506.986328125" xlink:href="#Verdana-66"/>
      <use x="542.142578125" xlink:href="#Verdana-75"/>
      <use x="605.423828125" xlink:href="#Verdana-6e"/>
      <use x="668.705078125" xlink:href="#Verdana-63"/>
      <use x="720.8046875" xlink:href="#Verdana-74"/>
      <use x="760.208984375" xlink:href="#Verdana-69"/>
      <use x="787.650390625" xlink:href="#Verdana-6f"/>
      <use x="848.34375" xlink:href="#Verdana-6e"/>
      <use x="911.625" xlink:href="#Verdana-20"/>
      <use x="946.78125" xlink:href="#Verdana-65"/>
      <use x="1006.3515625" xlink:href="#Verdana-78"/>
      <use x="1064.40625" xlink:href="#Verdana-65"/>
      <use x="1123.9765625" xlink:href="#Verdana-63"/>
      <use x="1176.076171875" xlink:href="#Verdana-74"/>
      <use x="1215.48046875" xlink:href="#Verdana-75"/>
      <use x="1278.76171875" xlink:href="#Verdana-69"/>
      <use x="1306.203125" xlink:href="#Verdana-6f"/>
      <use x="1366.896484375" xlink:href="#Verdana-6e"/>
      <use x="1430.177734375" xlink:href="#Verdana-73"/>
     </g>
    </g>
   </g>
   <g id="matplotlib.axis_2">
    <g id="ytick_1">
     <g id="line2d_18">
      <defs>
       <path d="
M0 0
L4 0" id="md7965d1ba0" style="stroke:#000000;stroke-width:0.5;"/>
      </defs>
      <g>
       <use style="stroke:#000000;stroke-width:0.5;" x="72.0" xlink:href="#md7965d1ba0" y="388.8"/>
      </g>
     </g>
     <g id="line2d_19">
      <defs>
       <path d="
M0 0
L-4 0" id="md9a1c1a7cd" style="stroke:#000000;stroke-width:0.5;"/>
      </defs>
      <g>
       <use style="stroke:#000000;stroke-width:0.5;" x="518.4" xlink:href="#md9a1c1a7cd" y="388.8"/>
      </g>
     </g>
     <g id="text_8">
      <!-- 0.0 -->
      <defs>
       <path d="
M24.0312 0
L12.3594 0
L12.3594 13.9219
L24.0312 13.9219
z
" id="Verdana-2e"/>
      </defs>
      <g transform="translate(49.97 392.1515625)scale(0.12 -0.12)">
       <use xlink:href="#Verdana-30"/>
       <use x="63.57421875" xlink:href="#Verdana-2e"/>
       <use x="99.951171875" xlink:href="#Verdana-30"/>
      </g>
     </g>
    </g>
    <g id="ytick_2">
     <g id="line2d_20">
      <g>
       <use style="stroke:#000000;stroke-width:0.5;" x="72.0" xlink:href="#md7965d1ba0" y="319.68"/>
      </g>
     </g>
     <g id="line2d_21">
      <g>
       <use style="stroke:#000000;stroke-width:0.5;" x="518.4" xlink:href="#md9a1c1a7cd" y="319.68"/>
      </g>
     </g>
     <g id="text_9">
      <!-- 0.2 -->
      <g transform="translate(49.95875 323.0315625)scale(0.12 -0.12)">
       <use xlink:href="#Verdana-30"/>
       <use x="63.57421875" xlink:href="#Verdana-2e"/>
       <use x="99.951171875" xlink:href="#Verdana-32"/>
      </g>
     </g>
    </g>
    <g id="ytick_3">
     <g id="line2d_22">
      <g>
       <use style="stroke:#000000;stroke-width:0.5;" x="72.0" xlink:href="#md7965d1ba0" y="250.56"/>
      </g>
     </g>
     <g id="line2d_23">
      <g>
       <use style="stroke:#000000;stroke-width:0.5;" x="518.4" xlink:href="#md9a1c1a7cd" y="250.56"/>
      </g>
     </g>
     <g id="text_10">
      <!-- 0.4 -->
      <g transform="translate(49.76 253.9115625)scale(0.12 -0.12)">
       <use xlink:href="#Verdana-30"/>
       <use x="63.57421875" xlink:href="#Verdana-2e"/>
       <use x="99.951171875" xlink:href="#Verdana-34"/>
      </g>
     </g>
    </g>
    <g id="ytick_4">
     <g id="line2d_24">
      <g>
       <use style="stroke:#000000;stroke-width:0.5;" x="72.0" xlink:href="#md7965d1ba0" y="181.44"/>
      </g>
     </g>
     <g id="line2d_25">
      <g>
       <use style="stroke:#000000;stroke-width:0.5;" x="518.4" xlink:href="#md9a1c1a7cd" y="181.44"/>
      </g>
     </g>
     <g id="text_11">
      <!-- 0.6 -->
      <defs>
       <path d="
M58.1562 23.5781
Q58.1562 12.5 50.8594 5.48438
Q43.5625 -1.51562 32.9531 -1.51562
Q27.5938 -1.51562 23.1875 0.140625
Q18.7969 1.8125 15.4375 5.07812
Q11.2344 9.125 8.95312 15.8125
Q6.6875 22.5156 6.6875 31.9375
Q6.6875 41.6094 8.76562 49.0781
Q10.8438 56.5469 15.375 62.3594
Q19.6719 67.875 26.4531 70.9688
Q33.25 74.0781 42.2812 74.0781
Q45.1719 74.0781 47.125 73.8281
Q49.0781 73.5781 51.0781 72.9531
L51.0781 63.625
L50.5938 63.625
Q49.2188 64.3594 46.4531 65.0156
Q43.7031 65.6719 40.8281 65.6719
Q30.3281 65.6719 24.0781 59.1094
Q17.8281 52.5469 16.7969 41.3594
Q20.9062 43.8438 24.875 45.1406
Q28.8594 46.4375 34.0781 46.4375
Q38.7188 46.4375 42.25 45.5781
Q45.7969 44.7344 49.5156 42.1406
Q53.8125 39.1562 55.9844 34.6094
Q58.1562 30.0781 58.1562 23.5781
M48.25 23.1875
Q48.25 27.7344 46.9062 30.7031
Q45.5625 33.6875 42.4844 35.8906
Q40.2344 37.4531 37.5 37.9375
Q34.7656 38.4219 31.7812 38.4219
Q27.6406 38.4219 24.0781 37.4375
Q20.5156 36.4688 16.75 34.4219
Q16.6562 33.3438 16.5938 32.3438
Q16.5469 31.3438 16.5469 29.8281
Q16.5469 22.125 18.1406 17.6562
Q19.7344 13.1875 22.5156 10.5938
Q24.75 8.45312 27.3594 7.45312
Q29.9844 6.45312 33.0625 6.45312
Q40.1406 6.45312 44.1875 10.7656
Q48.25 15.0938 48.25 23.1875" id="Verdana-36"/>
      </defs>
      <g transform="translate(49.829375 184.7915625)scale(0.12 -0.12)">
       <use xlink:href="#Verdana-30"/>
       <use x="63.57421875" xlink:href="#Verdana-2e"/>
       <use x="99.951171875" xlink:href="#Verdana-36"/>
      </g>
     </g>
    </g>
    <g id="ytick_5">
     <g id="line2d_26">
      <g>
       <use style="stroke:#000000;stroke-width:0.5;" x="72.0" xlink:href="#md7965d1ba0" y="112.32"/>
      </g>
     </g>
     <g id="line2d_27">
      <g>
       <use style="stroke:#000000;stroke-width:0.5;" x="518.4" xlink:href="#md9a1c1a7cd" y="112.32"/>
      </g>
     </g>
     <g id="text_12">
      <!-- 0.8 -->
      <defs>
       <path d="
M57.625 20.2656
Q57.625 10.8438 50.2656 4.59375
Q42.9219 -1.65625 31.7812 -1.65625
Q19.9688 -1.65625 12.9531 4.4375
Q5.95312 10.5469 5.95312 20.0625
Q5.95312 26.125 9.46875 31.0312
Q12.9844 35.9375 19.3906 38.8125
L19.3906 39.1094
Q13.5312 42.2344 10.7188 45.9375
Q7.90625 49.6562 7.90625 55.2188
Q7.90625 63.4219 14.6406 68.8906
Q21.3906 74.3594 31.7812 74.3594
Q42.6719 74.3594 49.1719 69.1406
Q55.6719 63.9219 55.6719 55.8594
Q55.6719 50.9219 52.5938 46.1562
Q49.5156 41.4062 43.5625 38.7188
L43.5625 38.4219
Q50.3906 35.5 54 31.2031
Q57.625 26.9062 57.625 20.2656
M46.0469 55.7656
Q46.0469 60.9844 42.0156 64.0781
Q37.9844 67.1875 31.7344 67.1875
Q25.5938 67.1875 21.6562 64.25
Q17.7188 61.3281 17.7188 56.3438
Q17.7188 52.8281 19.7031 50.2656
Q21.6875 47.7031 25.6875 45.7031
Q27.4844 44.8281 30.875 43.4062
Q34.2812 42 37.5 41.0625
Q42.3281 44.2812 44.1875 47.75
Q46.0469 51.2188 46.0469 55.7656
M47.5625 19.3438
Q47.5625 23.8281 45.5781 26.5312
Q43.6094 29.25 37.8438 31.9844
Q35.5469 33.0625 32.8125 33.9844
Q30.0781 34.9062 25.5312 36.5781
Q21.1406 34.1875 18.4844 30.0781
Q15.8281 25.9844 15.8281 20.7969
Q15.8281 14.2031 20.3594 9.90625
Q24.9062 5.60938 31.8906 5.60938
Q39.0156 5.60938 43.2812 9.26562
Q47.5625 12.9375 47.5625 19.3438" id="Verdana-38"/>
      </defs>
      <g transform="translate(49.893125 115.6715625)scale(0.12 -0.12)">
       <use xlink:href="#Verdana-30"/>
       <use x="63.57421875" xlink:href="#Verdana-2e"/>
       <use x="99.951171875" xlink:href="#Verdana-38"/>
      </g>
     </g>
    </g>
    <g id="ytick_6">
     <g id="line2d_28">
      <g>
       <use style="stroke:#000000;stroke-width:0.5;" x="72.0" xlink:href="#md7965d1ba0" y="43.2"/>
      </g>
     </g>
     <g id="line2d_29">
      <g>
       <use style="stroke:#000000;stroke-width:0.5;" x="518.4" xlink:href="#md9a1c1a7cd" y="43.2"/>
      </g>
     </g>
     <g id="text_13">
      <!-- 1.0 -->
      <g transform="translate(50.796875 46.5515625)scale(0.12 -0.12)">
       <use xlink:href="#Verdana-31"/>
       <use x="63.57421875" xlink:href="#Verdana-2e"/>
       <use x="99.951171875" xlink:href="#Verdana-30"/>
      </g>
     </g>
    </g>
    <g id="text_14">
     <!-- Data Profile T-0.1000000 -->
     <defs>
      <path d="
M18.3125 0
L9.125 0
L9.125 75.9844
L18.3125 75.9844
z
" id="Verdana-6c"/>
      <path d="
M57.3281 50.7344
Q57.3281 45.9062 55.6406 41.7656
Q53.9531 37.6406 50.9219 34.625
Q47.1719 30.8594 42.0469 28.9688
Q36.9219 27.0938 29.1094 27.0938
L19.4375 27.0938
L19.4375 0
L9.76562 0
L9.76562 72.7031
L29.5 72.7031
Q36.0312 72.7031 40.5781 71.6094
Q45.125 70.5156 48.6406 68.1719
Q52.7812 65.375 55.0469 61.2188
Q57.3281 57.0781 57.3281 50.7344
M47.2656 50.4844
Q47.2656 54.25 45.9375 57.0312
Q44.625 59.8125 41.9375 61.5781
Q39.5938 63.0938 36.5938 63.75
Q33.5938 64.4062 29 64.4062
L19.4375 64.4062
L19.4375 35.3594
L27.5938 35.3594
Q33.4531 35.3594 37.1094 36.4062
Q40.7656 37.4531 43.0625 39.75
Q45.3594 42.0938 46.3125 44.6719
Q47.2656 47.2656 47.2656 50.4844" id="Verdana-50"/>
      <path d="
M71.1875 36.2812
Q71.1875 26.375 66.8594 18.3125
Q62.5469 10.25 55.375 5.8125
Q50.3906 2.73438 44.2656 1.35938
Q38.1406 0 28.125 0
L9.76562 0
L9.76562 72.7031
L27.9375 72.7031
Q38.5781 72.7031 44.8438 71.1562
Q51.125 69.625 55.4688 66.9375
Q62.8906 62.3125 67.0312 54.5938
Q71.1875 46.875 71.1875 36.2812
M61.0781 36.4219
Q61.0781 44.9688 58.0938 50.8281
Q55.125 56.6875 49.2188 60.0625
Q44.9219 62.5 40.0781 63.4531
Q35.25 64.4062 28.5156 64.4062
L19.4375 64.4062
L19.4375 8.29688
L28.5156 8.29688
Q35.5 8.29688 40.7031 9.32812
Q45.9062 10.3594 50.25 13.1406
Q55.6719 16.6094 58.375 22.2656
Q61.0781 27.9375 61.0781 36.4219" id="Verdana-44"/>
      <path d="
M61.625 64.1094
L35.6406 64.1094
L35.6406 0
L25.9844 0
L25.9844 64.1094
L0 64.1094
L0 72.7031
L61.625 72.7031
z
" id="Verdana-54"/>
      <path d="
M37.9375 27.3906
L7.46875 27.3906
L7.46875 36.2344
L37.9375 36.2344
z
" id="Verdana-2d"/>
      <path d="
M51.4219 0
L42.2812 0
L42.2812 5.8125
Q41.0625 4.98438 38.9844 3.48438
Q36.9219 2 34.9688 1.125
Q32.6719 0 29.6875 -0.75
Q26.7031 -1.51562 22.7031 -1.51562
Q15.3281 -1.51562 10.2031 3.35938
Q5.07812 8.25 5.07812 15.8281
Q5.07812 22.0156 7.73438 25.8438
Q10.4062 29.6875 15.3281 31.8906
Q20.3125 34.0781 27.2969 34.8594
Q34.2812 35.6406 42.2812 36.0312
L42.2812 37.4531
Q42.2812 40.5781 41.1875 42.625
Q40.0938 44.6719 38.0312 45.8438
Q36.0781 46.9688 33.3438 47.3594
Q30.6094 47.75 27.6406 47.75
Q24.0312 47.75 19.5781 46.7969
Q15.1406 45.8438 10.4062 44.0469
L9.90625 44.0469
L9.90625 53.375
Q12.5938 54.1094 17.6719 54.9844
Q22.75 55.8594 27.6875 55.8594
Q33.4531 55.8594 37.7188 54.9062
Q42 53.9531 45.125 51.6562
Q48.1875 49.4219 49.7969 45.8438
Q51.4219 42.2812 51.4219 37.0156
z

M42.2812 13.4219
L42.2812 28.6094
Q38.0938 28.375 32.3906 27.875
Q26.7031 27.3906 23.3906 26.4688
Q19.4375 25.3438 16.9844 22.9688
Q14.5469 20.6094 14.5469 16.4531
Q14.5469 11.7656 17.375 9.39062
Q20.2188 7.03125 26.0312 7.03125
Q30.8594 7.03125 34.8594 8.90625
Q38.875 10.7969 42.2812 13.4219" id="Verdana-61"/>
      <path d="
M43.0625 44.5312
L42.5781 44.5312
Q40.5312 45.0156 38.5938 45.2344
Q36.6719 45.4531 34.0312 45.4531
Q29.7812 45.4531 25.8281 43.5781
Q21.875 41.7031 18.2188 38.7188
L18.2188 0
L9.03125 0
L9.03125 54.5469
L18.2188 54.5469
L18.2188 46.4844
Q23.6875 50.875 27.8594 52.7031
Q32.0312 54.5469 36.375 54.5469
Q38.7656 54.5469 39.8438 54.4219
Q40.9219 54.2969 43.0625 53.9531
z
" id="Verdana-72"/>
     </defs>
     <g transform="translate(42.345 291.493125)rotate(-90.0)scale(0.12 -0.12)">
      <use xlink:href="#Verdana-44"/>
      <use x="77.05078125" xlink:href="#Verdana-61"/>
      <use x="137.109375" xlink:href="#Verdana-74"/>
      <use x="176.513671875" xlink:href="#Verdana-61"/>
      <use x="236.572265625" xlink:href="#Verdana-20"/>
      <use x="271.728515625" xlink:href="#Verdana-50"/>
      <use x="332.03125" xlink:href="#Verdana-72"/>
      <use x="374.70703125" xlink:href="#Verdana-6f"/>
      <use x="435.400390625" xlink:href="#Verdana-66"/>
      <use x="470.556640625" xlink:href="#Verdana-69"/>
      <use x="497.998046875" xlink:href="#Verdana-6c"/>
      <use x="525.439453125" xlink:href="#Verdana-65"/>
      <use x="585.009765625" xlink:href="#Verdana-20"/>
      <use x="620.166015625" xlink:href="#Verdana-54"/>
      <use x="674.412109375" xlink:href="#Verdana-2d"/>
      <use x="719.822265625" xlink:href="#Verdana-30"/>
      <use x="783.396484375" xlink:href="#Verdana-2e"/>
      <use x="819.7734375" xlink:href="#Verdana-31"/>
      <use x="883.34765625" xlink:href="#Verdana-30"/>
      <use x="946.921875" xlink:href="#Verdana-30"/>
      <use x="1010.49609375" xlink:href="#Verdana-30"/>
      <use x="1074.0703125" xlink:href="#Verdana-30"/>
      <use x="1137.64453125" xlink:href="#Verdana-30"/>
      <use x="1201.21875" xlink:href="#Verdana-30"/>
     </g>
    </g>
   </g>
   <g id="patch_3">
    <path d="
M72 43.2
L518.4 43.2" style="fill:none;stroke:#000000;"/>
   </g>
   <g id="patch_4">
    <path d="
M72 388.8
L72 43.2" style="fill:none;stroke:#000000;"/>
   </g>
   <g id="patch_5">
    <path d="
M72 388.8
L518.4 388.8" style="fill:none;stroke:#000000;"/>
   </g>
   <g id="patch_6">
    <path d="
M518.4 388.8
L518.4 43.2" style="fill:none;stroke:#000000;"/>
   </g>
   <g id="text_15">
    <!-- Alpine01 Data Profile T-0.1000000 -->
    <defs>
     <path d="
M57.0312 27.9375
Q57.0312 21.2969 55.125 15.7969
Q53.2188 10.2969 49.75 6.5
Q46.5312 2.875 42.1562 0.890625
Q37.7969 -1.07812 32.9062 -1.07812
Q28.6562 -1.07812 25.2188 -0.140625
Q21.7812 0.78125 18.2188 2.73438
L18.2188 -20.125
L9.03125 -20.125
L9.03125 54.5469
L18.2188 54.5469
L18.2188 48.8281
Q21.875 51.9062 26.4375 53.9844
Q31 56.0625 36.1875 56.0625
Q46.0469 56.0625 51.5312 48.6094
Q57.0312 41.1562 57.0312 27.9375
M47.5625 27.6875
Q47.5625 37.5469 44.1875 42.4219
Q40.8281 47.3125 33.8438 47.3125
Q29.8906 47.3125 25.875 45.5938
Q21.875 43.8906 18.2188 41.1094
L18.2188 10.2031
Q22.125 8.45312 24.9219 7.8125
Q27.7344 7.17188 31.2969 7.17188
Q38.9688 7.17188 43.2656 12.3438
Q47.5625 17.5312 47.5625 27.6875" id="Verdana-70"/>
     <path d="
M67.0938 0
L56.7812 0
L49.6562 20.2656
L18.2188 20.2656
L11.0781 0
L1.26562 0
L27.7344 72.7031
L40.625 72.7031
z

M46.6875 28.5625
L33.9375 64.2656
L21.1406 28.5625
z
" id="Verdana-41"/>
    </defs>
    <g transform="translate(170.7165 38.2)scale(0.144 -0.144)">
     <use xlink:href="#Verdana-41"/>
     <use x="68.359375" xlink:href="#Verdana-6c"/>
     <use x="95.80078125" xlink:href="#Verdana-70"/>
     <use x="158.10546875" xlink:href="#Verdana-69"/>
     <use x="185.546875" xlink:href="#Verdana-6e"/>
     <use x="248.828125" xlink:href="#Verdana-65"/>
     <use x="308.3984375" xlink:href="#Verdana-30"/>
     <use x="371.97265625" xlink:href="#Verdana-31"/>
     <use x="435.546875" xlink:href="#Verdana-20"/>
     <use x="470.703125" xlink:href="#Verdana-44"/>
     <use x="547.75390625" xlink:href="#Verdana-61"/>
     <use x="607.8125" xlink:href="#Verdana-74"/>
     <use x="647.216796875" xlink:href="#Verdana-61"/>
     <use x="707.275390625" xlink:href="#Verdana-20"/>
     <use x="742.431640625" xlink:href="#Verdana-50"/>
     <use x="802.734375" xlink:href="#Verdana-72"/>
     <use x="845.41015625" xlink:href="#Verdana-6f"/>
     <use x="906.103515625" xlink:href="#Verdana-66"/>
     <use x="941.259765625" xlink:href="#Verdana-69"/>
     <use x="968.701171875" xlink:href="#Verdana-6c"/>
     <use x="996.142578125" xlink:href="#Verdana-65"/>
     <use x="1055.712890625" xlink:href="#Verdana-20"/>
     <use x="1090.869140625" xlink:href="#Verdana-54"/>
     <use x="1145.115234375" xlink:href="#Verdana-2d"/>
     <use x="1190.525390625" xlink:href="#Verdana-30"/>
     <use x="1254.099609375" xlink:href="#Verdana-2e"/>
     <use x="1290.4765625" xlink:href="#Verdana-31"/>
     <use x="1354.05078125" xlink:href="#Verdana-30"/>
     <use x="1417.625" xlink:href="#Verdana-30"/>
     <use x="1481.19921875" xlink:href="#Verdana-30"/>
     <use x="1544.7734375" xlink:href="#Verdana-30"/>
     <use x="1608.34765625" xlink:href="#Verdana-30"/>
     <use x="1671.921875" xlink:href="#Verdana-30"/>
    </g>
   </g>
   <g id="legend_1">
    <g id="patch_7">
     <path d="
M407.18 270.759
L511.2 270.759
L511.2 161.241
L407.18 161.241
L407.18 270.759
z
" style="fill:#ffffff;stroke:#000000;"/>
    </g>
    <g id="line2d_30">
     <path d="
M417.26 172.902
L437.42 172.902" style="fill:none;stroke:#0000ff;stroke-dasharray:6.000000,2.000000;stroke-dashoffset:0.0;"/>
    </g>
    <g id="line2d_31"/>
    <g id="text_16">
     <!-- AMPGO -->
     <defs>
      <path d="
M74.5156 0
L64.8438 0
L64.8438 62.6406
L44.625 20.0156
L38.875 20.0156
L18.7969 62.6406
L18.7969 0
L9.76562 0
L9.76562 72.7031
L22.9531 72.7031
L42.3281 32.2344
L61.0781 72.7031
L74.5156 72.7031
z
" id="Verdana-4d"/>
      <path d="
M70.4062 5.375
Q64.4531 2.64062 57.3906 0.609375
Q50.3438 -1.42188 43.75 -1.42188
Q35.25 -1.42188 28.1719 0.921875
Q21.0938 3.26562 16.1094 7.95312
Q11.0781 12.7031 8.34375 19.7969
Q5.60938 26.9062 5.60938 36.4219
Q5.60938 53.8594 15.7969 63.9375
Q25.9844 74.0312 43.75 74.0312
Q49.9531 74.0312 56.4219 72.5312
Q62.8906 71.0469 70.3594 67.4844
L70.3594 56
L69.4844 56
Q67.9688 57.1719 65.0781 59.0781
Q62.2031 60.9844 59.4219 62.25
Q56.0625 63.7656 51.7812 64.7656
Q47.5156 65.7656 42.0938 65.7656
Q29.8906 65.7656 22.7812 57.9219
Q15.6719 50.0938 15.6719 36.7188
Q15.6719 22.6094 23.0938 14.7656
Q30.5156 6.9375 43.3125 6.9375
Q48 6.9375 52.6562 7.85938
Q57.3281 8.79688 60.8438 10.25
L60.8438 28.0781
L41.3594 28.0781
L41.3594 36.5781
L70.4062 36.5781
z
" id="Verdana-47"/>
     </defs>
     <g transform="translate(453.26025 177.942375)scale(0.144 -0.144)">
      <use xlink:href="#Verdana-41"/>
      <use x="68.359375" xlink:href="#Verdana-4d"/>
      <use x="152.63671875" xlink:href="#Verdana-50"/>
      <use x="212.939453125" xlink:href="#Verdana-47"/>
      <use x="290.478515625" xlink:href="#Verdana-4f"/>
     </g>
    </g>
    <g id="line2d_32">
     <path d="
M417.26 193.942
L437.42 193.942" style="fill:none;stroke:#008000;stroke-dasharray:1.000000,1.000000;stroke-dashoffset:0.0;"/>
    </g>
    <g id="line2d_33"/>
    <g id="text_17">
     <!-- Anneal -->
     <g transform="translate(453.26025 198.982125)scale(0.144 -0.144)">
      <use xlink:href="#Verdana-41"/>
      <use x="68.359375" xlink:href="#Verdana-6e"/>
      <use x="131.640625" xlink:href="#Verdana-6e"/>
      <use x="194.921875" xlink:href="#Verdana-65"/>
      <use x="254.4921875" xlink:href="#Verdana-61"/>
      <use x="314.55078125" xlink:href="#Verdana-6c"/>
     </g>
    </g>
    <g id="line2d_34">
     <path d="
M417.26 214.982
L437.42 214.982" style="fill:none;stroke:#ff0000;stroke-dasharray:3.000000,6.000000;stroke-dashoffset:0.0;"/>
    </g>
    <g id="line2d_35"/>
    <g id="text_18">
     <!-- BSA -->
     <defs>
      <path d="
M64.5938 22.3594
Q64.5938 16.9375 62.5469 12.7812
Q60.5 8.64062 57.0312 5.95312
Q52.9375 2.73438 48.0156 1.35938
Q43.1094 0 35.5469 0
L9.76562 0
L9.76562 72.7031
L31.2969 72.7031
Q39.2656 72.7031 43.2188 72.1094
Q47.1719 71.5312 50.7812 69.6719
Q54.7812 67.5781 56.5938 64.2812
Q58.4062 60.9844 58.4062 56.3906
Q58.4062 51.2188 55.7656 47.5781
Q53.125 43.9531 48.7344 41.75
L48.7344 41.3594
Q56.1094 39.8438 60.3438 34.8906
Q64.5938 29.9375 64.5938 22.3594
M48.3438 55.125
Q48.3438 57.7656 47.4531 59.5625
Q46.5781 61.375 44.625 62.5
Q42.3281 63.8125 39.0625 64.125
Q35.7969 64.4531 30.9531 64.4531
L19.4375 64.4531
L19.4375 43.4531
L31.9375 43.4531
Q36.4688 43.4531 39.1562 43.9219
Q41.8438 44.3906 44.1406 45.8438
Q46.4375 47.3125 47.3906 49.625
Q48.3438 51.9531 48.3438 55.125
M54.5469 21.9688
Q54.5469 26.375 53.2188 28.9531
Q51.9062 31.5469 48.4375 33.3438
Q46.0938 34.5781 42.75 34.9375
Q39.4062 35.2969 34.625 35.2969
L19.4375 35.2969
L19.4375 8.25
L32.2344 8.25
Q38.5781 8.25 42.625 8.90625
Q46.6875 9.57812 49.2656 11.3281
Q52 13.2344 53.2656 15.6719
Q54.5469 18.1094 54.5469 21.9688" id="Verdana-42"/>
      <path d="
M62.5938 20.75
Q62.5938 16.5 60.6094 12.3438
Q58.6406 8.20312 55.0781 5.32812
Q51.1719 2.20312 45.9688 0.4375
Q40.7656 -1.3125 33.4531 -1.3125
Q25.5938 -1.3125 19.3125 0.140625
Q13.0312 1.60938 6.54688 4.5
L6.54688 16.6094
L7.23438 16.6094
Q12.75 12.0156 19.9688 9.51562
Q27.2031 7.03125 33.5469 7.03125
Q42.5312 7.03125 47.5312 10.3906
Q52.5469 13.7656 52.5469 19.3906
Q52.5469 24.2188 50.1719 26.5156
Q47.7969 28.8125 42.9688 30.0781
Q39.3125 31.0625 35.0312 31.6875
Q30.7656 32.3281 25.9844 33.2969
Q16.3125 35.3594 11.6406 40.3125
Q6.98438 45.2656 6.98438 53.2188
Q6.98438 62.3594 14.6875 68.1875
Q22.4062 74.0312 34.2812 74.0312
Q41.9375 74.0312 48.3281 72.5625
Q54.7344 71.0938 59.6719 68.9531
L59.6719 57.5156
L58.9844 57.5156
Q54.8281 61.0312 48.0625 63.3438
Q41.3125 65.6719 34.2344 65.6719
Q26.4688 65.6719 21.75 62.4531
Q17.0469 59.2344 17.0469 54.1562
Q17.0469 49.6094 19.3906 47.0156
Q21.7344 44.4375 27.6406 43.0625
Q30.7656 42.3906 36.5156 41.4062
Q42.2812 40.4375 46.2969 39.4062
Q54.3906 37.25 58.4844 32.9062
Q62.5938 28.5625 62.5938 20.75" id="Verdana-53"/>
     </defs>
     <g transform="translate(453.26025 220.021875)scale(0.144 -0.144)">
      <use xlink:href="#Verdana-42"/>
      <use x="68.5546875" xlink:href="#Verdana-53"/>
      <use x="135.9140625" xlink:href="#Verdana-41"/>
     </g>
    </g>
    <g id="line2d_36">
     <path d="
M417.26 236.022
L437.42 236.022" style="fill:none;stroke:#00bfbf;stroke-dasharray:5.000000,1.000000,2.000000,1.000000,5.000000,1.000000;stroke-dashoffset:0.0;"/>
    </g>
    <g id="line2d_37"/>
    <g id="text_19">
     <!-- Cuckoo -->
     <defs>
      <path d="
M65.9219 5.28125
Q63.2344 4.10938 61.0625 3.07812
Q58.8906 2.04688 55.375 0.921875
Q52.3906 0 48.8906 -0.65625
Q45.4062 -1.3125 41.2188 -1.3125
Q33.2969 -1.3125 26.8281 0.90625
Q20.3594 3.125 15.5781 7.85938
Q10.8906 12.5 8.25 19.6562
Q5.60938 26.8125 5.60938 36.2812
Q5.60938 45.2656 8.14062 52.3438
Q10.6875 59.4219 15.4844 64.3125
Q20.125 69.0469 26.6875 71.5312
Q33.25 74.0312 41.2656 74.0312
Q47.125 74.0312 52.9531 72.6094
Q58.7969 71.1875 65.9219 67.625
L65.9219 56.1562
L65.1875 56.1562
Q59.1875 61.1875 53.2656 63.4688
Q47.3594 65.7656 40.625 65.7656
Q35.1094 65.7656 30.6875 63.9844
Q26.2656 62.2031 22.7969 58.4531
Q19.4375 54.7812 17.5469 49.1875
Q15.6719 43.6094 15.6719 36.2812
Q15.6719 28.6094 17.75 23.0938
Q19.8281 17.5781 23.0938 14.1094
Q26.5156 10.5 31.0781 8.76562
Q35.6406 7.03125 40.7188 7.03125
Q47.7031 7.03125 53.7969 9.42188
Q59.9062 11.8125 65.2344 16.6094
L65.9219 16.6094
z
" id="Verdana-43"/>
      <path d="
M58.5469 0
L46.4375 0
L24.5625 23.875
L18.6094 18.2188
L18.6094 0
L9.42188 0
L9.42188 75.9844
L18.6094 75.9844
L18.6094 27.25
L45.125 54.5469
L56.6875 54.5469
L31.3438 29.3438
z
" id="Verdana-6b"/>
     </defs>
     <g transform="translate(453.26025 241.061625)scale(0.144 -0.144)">
      <use xlink:href="#Verdana-43"/>
      <use x="69.82421875" xlink:href="#Verdana-75"/>
      <use x="133.10546875" xlink:href="#Verdana-63"/>
      <use x="185.205078125" xlink:href="#Verdana-6b"/>
      <use x="243.384765625" xlink:href="#Verdana-6f"/>
      <use x="304.078125" xlink:href="#Verdana-6f"/>
     </g>
    </g>
    <g id="line2d_38">
     <path d="
M417.26 257.061
L437.42 257.061" style="fill:none;stroke:#bf00bf;stroke-linecap:square;"/>
    </g>
    <g id="line2d_39"/>
    <g id="text_20">
     <!-- qABC -->
     <defs>
      <path d="
M53.2656 -20.125
L44.0938 -20.125
L44.0938 6.15625
Q39.8438 2.48438 35.6406 0.703125
Q31.4531 -1.07812 26.5625 -1.07812
Q16.8438 -1.07812 11.0625 6.42188
Q5.28125 13.9219 5.28125 27.0938
Q5.28125 34.125 7.29688 39.5156
Q9.32812 44.9219 12.6406 48.5781
Q15.875 52.1562 20.2188 54.1094
Q24.5625 56.0625 29.3906 56.0625
Q33.7969 56.0625 37.1875 55.0781
Q40.5781 54.1094 44.0938 52.2031
L44.6719 54.5469
L53.2656 54.5469
z

M44.0938 13.875
L44.0938 44.7344
Q40.2812 46.4375 37.3438 47.1094
Q34.4219 47.7969 31 47.7969
Q23.0469 47.7969 18.8906 42.4062
Q14.75 37.0156 14.75 27.5469
Q14.75 17.9688 18.0938 12.8125
Q21.4375 7.67188 28.6094 7.67188
Q32.625 7.67188 36.625 9.40625
Q40.625 11.1406 44.0938 13.875" id="Verdana-71"/>
     </defs>
     <g transform="translate(453.26025 262.101375)scale(0.144 -0.144)">
      <use xlink:href="#Verdana-71"/>
      <use x="62.3046875" xlink:href="#Verdana-41"/>
      <use x="130.6640625" xlink:href="#Verdana-42"/>
      <use x="199.21875" xlink:href="#Verdana-43"/>
     </g>
    </g>
   </g>
  </g>
 </g>
 <defs>
  <clipPath id="p7ff5b81e1d">
   <rect height="345.6" width="446.4" x="72.0" y="43.2"/>
  </clipPath>
 </defs>
</svg>
