<?xml version="1.0" encoding="utf-8" standalone="no"?>
<!DOCTYPE svg PUBLIC "-//W3C//DTD SVG 1.1//EN"
  "http://www.w3.org/Graphics/SVG/1.1/DTD/svg11.dtd">
<!-- Created with matplotlib (http://matplotlib.org/) -->
<svg height="432pt" version="1.1" viewBox="0 0 576 432" width="576pt" xmlns="http://www.w3.org/2000/svg" xmlns:xlink="http://www.w3.org/1999/xlink">
 <defs>
  <style type="text/css">
*{stroke-linecap:butt;stroke-linejoin:round;}
  </style>
 </defs>
 <g id="figure_1">
  <g id="patch_1">
   <path d="
M0 432
L576 432
L576 0
L0 0
z
" style="fill:#ffffff;"/>
  </g>
  <g id="axes_1">
   <g id="patch_2">
    <path d="
M72 388.8
L518.4 388.8
L518.4 43.2
L72 43.2
z
" style="fill:#ffffff;"/>
   </g>
   <g id="line2d_1">
    <path clip-path="url(#p7ff5b81e1d)" d="
M72 388.8
L76.6426 388.8
L76.8211 388.567
L78.9638 388.567
L79.1424 387.4
L81.2851 387.4
L81.4637 384.833
L83.6064 384.833
L83.785 381.099
L85.9277 381.099
L86.1062 370.365
L88.249 370.365
L88.4275 372.465
L90.5702 372.465
L90.7488 364.764
L92.8915 364.764
L93.0701 356.83
L95.2128 356.83
L95.3914 333.728
L97.5341 333.728
L97.7126 375.032
L99.8554 375.032
L100.034 362.431
L102.177 362.431
L102.355 366.631
L104.498 366.631
L104.676 350.53
L106.819 350.53
L106.998 347.029
L109.14 347.029
L109.319 339.562
L111.462 339.562
L111.64 328.594
L113.783 328.594
L113.962 319.96
L116.104 319.96
L116.283 336.762
L118.426 336.762
L118.604 335.362
L120.747 335.362
L120.925 343.062
L123.068 343.062
L123.247 351.23
L125.389 351.23
L125.568 348.663
L127.711 348.663
L127.889 362.197
L130.032 362.197
L130.211 361.497
L132.353 361.497
L132.532 364.531
L134.675 364.531
L134.853 366.631
L136.996 366.631
L137.174 367.331
L143.96 367.331
L144.138 367.098
L164.851 367.098
L165.03 366.865
L167.172 366.865
L167.351 366.631
L174.136 366.631
L174.315 366.398
L178.779 366.398
L178.957 365.931
L185.832 365.931
L186.011 365.698
L196.724 365.698
L196.903 368.965
L197.438 368.965
L197.617 368.731
L202.081 368.731
L202.26 368.498
L203.152 368.498
L203.331 371.765
L207.17 371.765
L207.348 373.632
L209.313 373.632
L209.491 375.499
L215.205 375.499
L215.384 377.132
L218.151 377.132
L218.33 378.532
L222.169 378.532
L222.348 378.766
L223.419 378.766
L223.597 379.932
L226.901 379.932
L227.079 381.099
L230.651 381.099
L230.829 382.033
L249.578 382.033
L249.756 382.733
L254.578 382.733
L254.756 382.966
L258.238 382.966
L258.417 383.199
L261.274 383.199
L261.452 383.666
L267.97 383.666
L268.148 383.9
L269.487 383.9
L269.666 384.133
L286.183 384.133
L286.361 385.3
L302.253 385.3
L302.432 385.066
L316.181 385.066
L316.359 384.833
L326.448 384.833
L326.627 385.066
L330.198 385.066
L330.376 384.833
L337.162 384.833
L337.34 384.6
L339.483 384.6
L339.661 384.366
L341.268 384.366
L341.447 384.6
L368.677 384.6
L368.856 384.833
L423.049 384.833
L423.228 385.066
L518.311 385.066
L518.311 385.066" style="fill:none;stroke:#0000ff;stroke-dasharray:6.000000,2.000000;stroke-dashoffset:0.0;"/>
   </g>
   <g id="line2d_2">
    <path clip-path="url(#p7ff5b81e1d)" d="
M72 388.8
L153.691 388.8
L153.87 388.14
L155.03 388.14
L155.209 387.481
L156.995 387.481
L157.173 386.821
L157.352 386.821
L157.798 384.183
L159.048 384.183
L159.227 383.524
L159.762 383.524
L159.941 382.864
L160.03 382.864
L160.209 382.205
L160.566 382.205
L160.744 380.226
L161.369 380.226
L161.548 379.566
L162.351 379.566
L162.53 378.247
L162.976 378.247
L163.333 376.269
L163.423 376.269
L163.601 375.609
L163.869 375.609
L164.048 374.95
L164.226 374.95
L164.405 372.971
L164.673 372.971
L164.851 372.311
L165.119 372.311
L165.387 370.992
L165.744 370.992
L165.923 370.333
L166.012 370.333
L166.369 368.354
L166.458 368.354
L166.637 367.695
L167.172 367.695
L167.351 365.716
L167.53 365.716
L168.333 360.44
L168.512 360.44
L168.69 359.78
L169.047 359.78
L169.672 354.504
L169.851 352.525
L170.029 352.525
L170.297 351.206
L170.476 351.206
L170.744 349.887
L171.012 349.887
L171.279 348.568
L171.458 348.568
L171.636 347.908
L171.815 347.908
L172.083 346.589
L172.351 346.589
L173.244 340.653
L173.333 340.653
L173.868 336.696
L174.047 334.058
L174.493 331.42
L174.583 331.42
L174.851 328.782
L175.118 328.782
L175.386 327.463
L175.654 327.463
L176.993 318.229
L177.083 318.229
L177.261 316.25
L177.618 312.293
L177.708 312.293
L178.065 309.655
L178.332 305.698
L178.422 305.698
L178.6 303.719
L178.868 301.081
L179.136 299.762
L179.315 299.762
L179.493 297.124
L179.582 297.124
L179.85 295.805
L179.94 295.805
L180.118 295.145
L180.654 295.145
L180.922 293.826
L181.011 293.826
L181.636 289.869
L181.725 289.869
L181.904 288.55
L181.993 288.55
L182.439 283.273
L182.618 283.273
L182.796 281.954
L182.975 279.976
L183.421 276.018
L183.6 274.699
L184.046 272.061
L184.136 272.061
L184.85 266.125
L185.028 263.487
L185.207 262.827
L185.475 262.827
L185.653 261.508
L185.832 261.508
L186.011 259.53
L186.278 259.53
L186.636 254.913
L186.903 254.913
L187.35 252.275
L187.439 252.275
L187.796 248.977
L188.153 245.02
L188.243 245.02
L188.421 240.403
L188.51 240.403
L188.778 237.765
L188.957 235.786
L189.135 234.467
L189.403 231.829
L189.671 228.531
L189.76 228.531
L189.939 226.553
L190.028 226.553
L190.564 219.957
L190.653 219.957
L191.01 216
L191.635 211.383
L191.903 205.447
L192.26 203.469
L192.439 203.469
L193.153 197.533
L193.599 191.597
L193.689 191.597
L194.046 187.64
L194.671 182.363
L194.939 179.725
L195.385 176.427
L195.564 172.47
L195.831 171.151
L196.099 171.151
L196.188 170.492
L196.456 166.534
L196.546 166.534
L196.724 164.556
L196.813 176.427
L196.903 175.108
L197.349 169.173
L197.438 169.173
L197.706 167.853
L197.796 167.853
L198.331 164.556
L198.42 164.556
L198.599 162.577
L198.867 158.62
L199.045 157.96
L199.313 157.96
L199.67 154.003
L200.028 154.003
L200.295 152.684
L200.474 152.684
L200.742 150.046
L201.099 148.067
L201.188 148.067
L201.902 138.834
L202.349 136.195
L202.527 136.195
L202.884 132.898
L203.063 131.579
L203.152 130.919
L203.331 149.386
L203.777 145.429
L204.224 140.153
L205.116 134.217
L205.295 134.217
L205.474 132.898
L205.563 132.898
L205.741 132.238
L206.009 132.238
L206.188 130.919
L206.277 130.919
L206.456 129.6
L207.17 124.324
L207.348 132.238
L207.438 132.238
L207.795 130.26
L207.884 130.26
L208.152 128.94
L208.241 128.94
L208.42 128.281
L208.598 128.281
L209.313 122.345
L209.491 128.94
L209.848 124.983
L209.938 124.983
L210.205 123.664
L210.473 123.664
L211.098 118.388
L211.277 117.069
L211.455 116.409
L211.723 116.409
L212.348 112.452
L212.437 112.452
L212.705 108.495
L213.062 108.495
L213.241 107.835
L213.42 107.835
L213.598 106.516
L213.777 106.516
L213.955 104.537
L214.134 103.878
L214.491 103.878
L214.937 101.24
L215.205 101.24
L215.294 105.197
L215.652 101.24
L215.83 101.24
L216.544 96.6229
L216.634 96.6229
L216.812 95.9634
L216.901 95.9634
L217.08 95.3038
L217.169 95.3038
L217.348 94.6443
L217.437 94.6443
L218.151 90.0275
L218.33 98.6015
L218.598 95.9634
L218.687 95.9634
L219.044 92.0061
L219.401 92.0061
L219.669 90.687
L219.937 90.687
L220.294 86.7298
L220.651 86.7298
L220.83 86.0702
L220.919 86.0702
L221.276 82.113
L221.812 82.113
L222.348 78.8153
L222.794 78.8153
L223.062 76.1771
L223.33 76.1771
L223.419 75.5176
L223.597 80.7939
L223.865 79.4748
L223.955 79.4748
L224.133 78.8153
L224.312 78.8153
L224.58 77.4962
L224.758 77.4962
L225.115 75.5176
L226.008 75.5176
L226.454 72.8794
L226.901 72.8794
L227.079 76.8366
L227.347 76.8366
L227.526 76.1771
L227.615 76.1771
L227.794 75.5176
L227.972 75.5176
L228.419 72.8794
L228.686 72.8794
L229.044 70.9008
L229.311 70.9008
L229.49 70.2412
L229.579 70.2412
L229.847 68.9221
L229.936 68.9221
L230.115 68.2626
L230.383 68.2626
L230.651 66.9435
L230.74 71.5603
L230.829 70.9008
L231.186 70.9008
L231.543 68.9221
L232.615 68.9221
L232.793 67.6031
L233.15 67.6031
L233.329 66.284
L233.418 66.284
L233.686 62.9863
L233.954 62.9863
L234.132 61.6672
L234.311 61.0076
L234.757 61.0076
L234.936 59.6885
L236.186 59.6885
L236.454 58.3695
L236.722 58.3695
L237.168 55.7313
L237.436 55.7313
L237.614 55.0718
L237.793 55.0718
L238.15 53.0931
L238.686 53.0931
L238.864 52.4336
L239.668 52.4336
L239.846 51.774
L240.739 51.774
L240.918 51.1145
L242.168 51.1145
L242.346 50.455
L243.596 50.455
L243.864 49.1359
L244.489 49.1359
L244.668 48.4763
L248.417 48.4763
L248.596 47.8168
L249.489 47.8168
L249.667 47.1573
L249.846 47.1573
L250.024 46.4977
L251.988 46.4977
L252.167 45.8382
L254.578 45.8382
L254.756 46.4977
L255.113 46.4977
L255.292 45.8382
L256.274 45.8382
L256.452 45.1786
L259.042 45.1786
L259.22 44.5191
L261.274 44.5191
L261.452 43.8595
L262.434 43.8595
L262.613 43.2
L518.311 43.2
L518.311 43.2" style="fill:none;stroke:#008000;stroke-dasharray:1.000000,1.000000;stroke-dashoffset:0.0;"/>
   </g>
   <g id="line2d_3">
    <path clip-path="url(#p7ff5b81e1d)" d="
M72 388.8
L74.0534 388.8
L74.232 388.401
L75.7498 388.401
L75.9283 388.8
L518.311 388.8
L518.311 388.8" style="fill:none;stroke:#ff0000;stroke-dasharray:3.000000,6.000000;stroke-dashoffset:0.0;"/>
   </g>
   <g id="line2d_4">
    <path clip-path="url(#p7ff5b81e1d)" d="
M72 388.8
L72.625 388.8
L72.8035 388.597
L74.0534 388.597
L74.232 388.8
L75.7498 388.8
L75.9283 388.597
L76.6426 388.597
L76.8211 388.8
L518.311 388.8
L518.311 388.8" style="fill:none;stroke:#00bfbf;stroke-dasharray:5.000000,1.000000,2.000000,1.000000,5.000000,1.000000;stroke-dashoffset:0.0;"/>
   </g>
   <g id="line2d_5">
    <path clip-path="url(#p7ff5b81e1d)" d="
M72 388.603
L72.625 388.603
L72.8035 388.8
L193.956 388.8
L194.135 388.603
L195.028 388.603
L195.206 388.405
L196.724 388.405
L196.903 388.603
L201.456 388.603
L201.635 388.405
L202.17 388.405
L202.349 388.208
L203.152 388.208
L203.331 388.405
L205.206 388.405
L205.384 388.208
L207.17 388.208
L207.348 388.405
L208.956 388.405
L209.223 388.011
L211.545 388.011
L211.812 387.616
L215.205 387.616
L215.384 388.011
L215.562 388.011
L215.741 387.813
L216.009 387.813
L216.187 387.616
L218.866 387.616
L219.044 387.418
L219.58 387.418
L219.848 387.024
L221.187 387.024
L221.365 386.826
L221.99 386.826
L222.169 386.629
L222.972 386.629
L223.151 386.432
L226.365 386.432
L226.633 386.037
L229.044 386.037
L229.222 385.839
L229.311 385.839
L229.49 385.642
L230.472 385.642
L230.651 385.247
L230.74 385.445
L230.918 385.247
L232.704 385.247
L232.883 384.853
L233.15 384.853
L233.597 384.063
L236.454 384.063
L236.632 383.471
L237.168 383.471
L237.525 382.879
L237.704 382.879
L237.882 382.681
L238.864 382.681
L239.043 382.484
L240.204 382.484
L240.561 381.892
L240.739 381.892
L241.186 381.102
L241.453 381.102
L241.721 380.708
L241.811 380.708
L242.078 380.313
L243.953 380.313
L244.221 379.918
L244.846 379.918
L245.025 379.721
L246.9 379.721
L247.435 378.734
L247.971 378.734
L248.149 378.537
L248.328 378.537
L248.507 378.142
L248.596 378.142
L248.774 377.944
L249.578 377.944
L249.756 378.734
L250.649 378.734
L250.828 378.339
L250.917 378.339
L251.096 378.142
L251.542 378.142
L251.721 378.339
L251.81 378.339
L252.256 377.55
L254.488 377.55
L254.578 376.958
L254.756 377.352
L254.935 377.155
L255.113 377.155
L255.292 376.958
L255.47 376.958
L255.649 376.76
L257.792 376.76
L258.06 376.366
L258.149 376.76
L258.327 376.168
L258.506 376.168
L258.684 375.971
L259.042 375.971
L259.399 374.589
L260.202 374.589
L260.381 374.392
L261.184 374.392
L261.274 374.194
L261.363 374.589
L261.631 373.405
L261.809 373.208
L261.988 373.208
L262.345 372.615
L262.434 372.615
L262.97 371.629
L263.595 371.629
L263.773 371.431
L264.041 371.431
L264.22 371.234
L264.756 371.234
L265.023 370.839
L265.202 370.839
L265.38 370.642
L265.47 370.642
L265.648 370.444
L265.738 370.444
L265.916 370.247
L266.273 370.247
L266.452 369.852
L267.88 369.852
L268.059 369.655
L268.327 369.655
L268.505 369.26
L268.684 369.26
L268.952 368.865
L269.041 368.865
L269.487 368.076
L269.666 368.076
L269.844 367.484
L269.934 367.484
L270.112 367.089
L271.541 367.089
L271.719 367.878
L271.898 367.878
L272.076 367.681
L272.344 367.681
L272.612 367.286
L272.701 367.286
L272.969 366.892
L273.059 366.892
L273.505 366.102
L273.594 366.102
L273.773 365.905
L273.862 365.905
L274.041 365.707
L275.201 365.707
L275.469 365.313
L275.648 365.313
L275.916 364.918
L276.183 364.918
L276.362 364.721
L276.54 364.721
L276.719 364.326
L276.808 364.326
L276.987 363.734
L277.165 363.734
L277.344 363.142
L278.148 363.142
L278.326 362.944
L279.13 362.944
L279.487 361.76
L279.576 361.76
L279.755 361.957
L279.844 361.957
L280.112 361.563
L280.29 361.563
L281.004 360.181
L281.629 360.181
L281.808 361.76
L282.701 361.76
L282.969 360.97
L283.415 359.391
L283.594 359.391
L284.129 357.418
L284.308 356.826
L284.486 356.431
L286.093 356.431
L286.183 356.233
L286.361 357.22
L286.451 357.22
L286.718 356.826
L286.808 356.826
L287.076 355.444
L287.611 354.457
L287.7 354.457
L287.879 353.47
L288.058 353.273
L288.236 353.865
L290.111 353.865
L290.379 353.075
L290.468 353.075
L290.647 352.483
L290.825 351.891
L291.093 351.102
L291.45 350.51
L291.986 350.51
L292.164 350.312
L292.254 350.312
L292.432 350.115
L292.789 350.115
L292.879 351.497
L292.968 351.299
L293.325 351.299
L293.593 350.115
L293.772 349.72
L293.95 349.72
L294.129 349.523
L294.218 349.523
L294.396 349.325
L294.575 349.325
L295.111 348.339
L296.896 348.339
L297.253 346.562
L297.343 346.562
L297.878 344.588
L298.057 344.391
L298.146 344.391
L298.414 343.602
L298.503 343.602
L298.771 342.812
L300.468 342.812
L300.735 342.023
L301.003 341.233
L301.092 341.233
L301.896 338.075
L302.432 337.088
L304.128 337.088
L304.307 336.496
L304.485 335.904
L304.574 335.707
L304.842 334.325
L304.932 334.128
L305.199 332.943
L305.289 332.746
L305.556 331.167
L305.646 331.167
L305.824 330.772
L307.074 330.772
L307.253 331.759
L307.61 331.759
L308.056 330.18
L308.324 329.785
L308.413 329.785
L308.681 328.601
L308.86 328.207
L308.949 327.417
L309.038 327.614
L309.217 326.825
L309.306 326.628
L309.485 326.035
L310.288 326.035
L310.467 325.641
L311.27 325.641
L311.628 324.456
L311.717 324.456
L311.985 323.667
L312.431 322.483
L312.61 321.891
L312.699 321.891
L312.877 320.114
L313.502 320.114
L313.681 320.509
L314.752 320.509
L315.199 319.325
L315.377 318.535
L315.467 318.338
L315.645 317.154
L316.092 315.575
L316.181 315.575
L316.449 314.785
L316.627 314.785
L316.806 314.588
L317.52 314.588
L317.699 314.193
L317.788 314.193
L317.966 313.996
L318.324 313.996
L318.502 313.009
L318.591 313.009
L318.948 312.219
L319.127 311.232
L319.216 311.232
L319.663 310.048
L320.198 307.877
L321.895 307.877
L322.163 307.088
L322.341 306.89
L322.43 306.89
L322.609 306.693
L322.698 306.693
L322.877 305.903
L323.055 305.311
L323.412 303.338
L323.591 302.745
L323.77 302.351
L324.127 302.351
L324.305 302.745
L324.841 302.745
L325.02 302.548
L325.466 302.548
L325.734 301.759
L326.002 300.772
L326.18 300.772
L326.448 298.995
L326.537 299.193
L326.805 297.811
L326.984 297.219
L327.252 296.035
L327.609 296.035
L327.787 295.837
L329.037 295.837
L329.216 295.245
L329.484 294.258
L329.573 294.258
L329.662 293.666
L329.841 292.087
L330.287 290.508
L330.376 290.311
L330.733 288.535
L330.912 288.14
L331.18 288.14
L331.358 287.942
L331.716 287.942
L331.894 287.745
L332.34 287.745
L332.519 287.548
L332.608 287.548
L332.876 286.166
L332.965 285.969
L333.323 283.798
L333.501 283.205
L333.59 283.205
L334.394 280.048
L335.465 280.048
L335.733 279.653
L336.18 279.653
L336.983 277.679
L337.162 276.89
L337.251 276.89
L337.429 276.1
L337.519 276.1
L337.608 275.903
L337.787 275.113
L337.965 274.916
L338.233 274.916
L338.412 274.718
L339.036 274.718
L339.215 274.521
L339.751 274.521
L340.019 272.942
L340.197 272.35
L340.465 271.166
L340.822 268.403
L341.001 268.008
L341.179 267.218
L341.268 267.021
L341.447 267.81
L342.34 267.81
L342.518 267.613
L342.876 267.613
L343.143 267.218
L343.59 267.218
L343.947 265.837
L344.036 265.837
L344.304 264.455
L344.393 264.06
L344.661 261.889
L344.75 261.889
L345.018 260.31
L345.197 260.113
L345.732 260.113
L345.911 259.915
L346.893 259.915
L347.072 258.731
L347.34 258.139
L347.697 256.363
L348.322 253.797
L348.411 253.797
L348.768 252.613
L350.464 252.613
L350.554 252.415
L350.911 250.442
L351 250.244
L351.357 248.468
L351.446 248.468
L351.625 248.073
L351.804 247.678
L352.161 245.902
L352.696 245.902
L352.875 245.705
L353.768 245.705
L353.946 245.507
L354.036 245.507
L354.125 245.31
L354.393 243.928
L354.571 243.731
L354.75 243.731
L355.018 241.955
L355.375 240.968
L355.91 238.797
L356.446 238.797
L356.625 238.599
L357.16 238.599
L357.339 238.402
L357.607 238.402
L358.142 237.02
L358.5 235.046
L358.678 234.454
L358.946 232.875
L359.035 232.875
L359.214 232.283
L359.392 231.889
L359.839 231.889
L360.107 231.494
L361.178 231.494
L361.446 228.928
L361.624 228.928
L361.803 228.731
L361.892 228.731
L362.606 226.954
L362.874 225.178
L364.035 225.178
L364.213 224.98
L364.749 224.98
L364.838 224.783
L365.017 223.796
L365.106 223.796
L365.553 221.823
L365.82 220.046
L366.445 216.888
L366.624 216.296
L367.249 216.296
L367.428 216.493
L368.32 216.493
L368.677 215.507
L368.767 215.901
L368.945 214.52
L369.035 214.52
L370.195 209.585
L370.999 209.585
L371.177 209.388
L371.445 209.388
L371.624 209.191
L371.892 209.191
L372.338 208.006
L372.516 207.414
L372.606 207.414
L373.052 205.638
L373.141 205.638
L373.32 205.046
L373.588 203.664
L373.766 203.467
L374.927 203.467
L375.106 203.269
L375.463 203.269
L375.731 201.888
L375.998 200.704
L376.177 200.704
L376.623 199.519
L376.891 198.335
L377.07 197.743
L377.159 198.532
L377.338 197.94
L378.141 197.94
L378.32 197.743
L379.034 197.743
L379.391 196.756
L379.659 195.572
L379.837 194.98
L379.927 194.98
L380.195 193.598
L380.284 193.598
L380.552 192.414
L380.641 192.414
L380.82 192.217
L382.069 192.217
L382.248 192.019
L382.605 192.019
L382.962 191.032
L383.676 188.269
L383.855 187.874
L384.212 185.901
L384.48 185.506
L384.569 185.506
L384.748 185.309
L385.194 185.309
L385.373 185.111
L385.462 185.111
L385.641 184.914
L386.176 184.914
L386.444 183.73
L386.623 183.335
L386.98 181.558
L387.248 180.769
L387.783 178.795
L388.051 178.4
L388.408 178.4
L388.587 178.203
L388.765 178.203
L388.944 178.4
L389.212 178.4
L389.39 178.203
L389.748 178.203
L390.462 176.821
L390.551 176.821
L390.64 176.624
L390.908 175.242
L390.997 175.242
L391.087 175.045
L391.444 173.269
L391.622 173.071
L391.98 173.071
L392.158 172.874
L392.426 172.874
L392.604 172.677
L392.872 172.677
L393.051 172.479
L393.319 172.479
L393.587 171.295
L393.765 170.703
L393.944 170.703
L394.033 170.506
L394.212 169.913
L394.39 169.321
L394.569 169.321
L394.658 169.124
L394.836 168.137
L394.926 168.137
L395.194 167.348
L396.89 167.348
L397.336 165.571
L397.426 165.571
L397.872 163.992
L397.961 163.992
L398.408 163.203
L398.586 161.624
L398.943 161.032
L399.568 161.032
L399.747 160.834
L399.925 160.834
L400.104 160.637
L400.55 160.637
L400.818 160.242
L400.997 159.058
L401.175 159.058
L401.711 157.874
L401.89 157.084
L401.979 156.887
L402.247 155.505
L402.425 155.505
L402.604 155.308
L404.122 155.308
L404.389 154.124
L404.747 152.742
L404.836 152.742
L405.014 152.15
L405.282 152.15
L405.729 151.163
L405.907 150.374
L407.336 150.374
L407.514 150.176
L407.693 150.176
L407.961 149.584
L408.139 148.795
L408.228 148.795
L408.407 148.005
L408.586 146.623
L408.675 146.623
L408.853 146.426
L409.121 144.452
L409.3 143.86
L410.103 143.86
L410.282 143.663
L411.175 143.663
L411.621 142.084
L411.71 142.084
L411.8 141.886
L412.068 140.702
L412.157 140.702
L412.425 140.11
L412.871 137.742
L413.05 137.544
L413.407 137.544
L413.585 137.347
L414.567 137.347
L414.746 137.15
L414.835 137.15
L415.014 136.952
L415.282 136.952
L415.817 134.978
L415.996 134.978
L416.353 133.794
L416.442 133.794
L416.71 133.399
L418.317 133.399
L418.496 133.005
L419.121 131.426
L419.388 130.044
L419.478 130.241
L419.656 130.241
L419.924 129.255
L420.013 129.255
L420.192 129.057
L420.46 129.057
L420.638 128.86
L421.888 128.86
L422.067 128.465
L422.781 127.083
L422.87 127.083
L423.049 126.689
L423.138 126.886
L423.585 126.097
L425.46 126.097
L426.442 123.728
L426.62 122.939
L426.709 122.939
L427.334 121.754
L427.959 121.754
L428.138 121.557
L428.495 121.557
L428.763 121.162
L429.031 121.162
L429.209 120.768
L429.477 119.978
L429.656 119.386
L430.013 118.004
L430.102 118.004
L430.281 117.215
L430.459 117.215
L430.638 117.017
L430.727 117.017
L430.906 116.82
L431.977 116.82
L432.156 116.623
L432.513 116.623
L432.959 115.438
L433.138 114.846
L433.405 114.057
L433.584 113.86
L433.852 113.86
L434.388 111.688
L435.102 111.688
L435.28 111.491
L436.173 111.491
L437.869 107.938
L438.227 107.938
L438.405 107.741
L439.119 107.741
L439.298 107.544
L439.923 107.544
L440.191 107.149
L440.369 107.149
L440.548 106.359
L440.726 106.359
L440.905 105.767
L441.173 105.372
L441.351 105.372
L441.619 104.583
L441.887 104.583
L442.066 104.386
L443.405 104.386
L443.583 104.188
L443.762 104.188
L444.208 103.399
L444.387 103.399
L444.655 102.609
L444.833 102.215
L445.012 102.017
L445.458 102.017
L445.637 101.82
L446.887 101.82
L447.601 98.8592
L447.69 98.8592
L448.137 97.0828
L448.226 97.0828
L448.494 96.6881
L448.583 96.6881
L448.762 96.4907
L449.297 96.4907
L449.476 96.2933
L450.458 96.2933
L450.636 95.7012
L450.726 95.7012
L450.904 95.5038
L450.994 95.5038
L451.261 95.1091
L451.351 95.1091
L451.529 94.9117
L451.619 95.1091
L451.886 94.3196
L452.065 93.9248
L452.154 93.9248
L452.333 93.5301
L454.029 93.5301
L454.476 92.5432
L454.743 91.1616
L455.725 89.1879
L457.6 89.1879
L457.868 88.7931
L457.957 88.7931
L458.225 88.3984
L458.315 88.3984
L459.207 86.622
L459.654 86.622
L459.832 86.4247
L460.814 86.4247
L460.993 86.2273
L461.35 86.2273
L461.707 85.6352
L461.886 85.6352
L462.064 85.2404
L462.154 85.2404
L462.957 83.6615
L464.743 83.6615
L464.921 83.0693
L465.368 83.0693
L465.546 82.6746
L465.636 82.6746
L465.993 82.0825
L466.082 82.0825
L466.618 81.0956
L468.492 81.0956
L468.76 80.7009
L468.85 80.7009
L469.028 80.5035
L469.385 80.5035
L470.01 79.3192
L471.885 79.3192
L472.064 78.7271
L472.242 78.5298
L472.332 78.5298
L472.51 78.3324
L472.689 77.5429
L472.867 77.3455
L473.135 77.3455
L473.314 77.1481
L473.403 77.1481
L473.581 76.9508
L473.76 76.9508
L473.939 76.7534
L474.653 76.7534
L474.831 76.556
L475.546 76.556
L475.813 75.7665
L475.992 75.5692
L476.26 75.5692
L476.438 75.3718
L476.528 75.3718
L476.885 74.7797
L476.974 74.7797
L477.153 74.5823
L479.028 74.5823
L479.742 73.2007
L479.92 73.2007
L480.188 72.8059
L480.367 72.8059
L480.724 72.2138
L482.867 72.2138
L483.045 71.8191
L483.224 71.6217
L483.313 71.6217
L483.492 71.4243
L483.759 71.4243
L484.027 71.0296
L484.206 71.0296
L484.474 70.6348
L486.17 70.6348
L486.438 69.8453
L486.706 69.0559
L486.973 68.6611
L487.331 68.6611
L487.509 68.4637
L487.777 68.4637
L487.956 68.2664
L489.741 68.2664
L489.92 67.8716
L490.098 67.6742
L490.277 67.6742
L490.545 66.8848
L490.723 66.8848
L490.902 66.6874
L491.08 66.6874
L491.259 66.2926
L491.437 66.0953
L492.33 66.0953
L492.509 65.8979
L492.598 65.8979
L492.777 66.0953
L493.58 66.0953
L493.759 65.8979
L494.652 65.8979
L494.83 65.3058
L495.009 65.3058
L495.187 65.1084
L496.884 65.1084
L497.062 64.5163
L497.241 64.5163
L497.419 64.1215
L497.508 64.1215
L497.955 63.332
L498.223 63.332
L498.401 63.1347
L498.491 63.1347
L498.669 62.9373
L500.723 62.9373
L501.08 62.3452
L501.258 62.3452
L501.526 61.9504
L502.062 61.9504
L502.24 61.7531
L504.115 61.7531
L504.562 60.9636
L505.187 60.9636
L505.365 60.3714
L505.901 60.3714
L506.079 60.1741
L507.686 60.1741
L507.865 59.582
L511.258 59.582
L511.436 59.3846
L511.704 59.3846
L511.883 59.1872
L512.24 59.1872
L512.418 58.9898
L512.954 58.9898
L513.132 58.7925
L514.918 58.7925
L515.097 58.5951
L515.543 58.5951
L515.811 58.2003
L515.989 58.2003
L516.257 57.8056
L518.311 57.8056
L518.311 57.8056" style="fill:none;stroke:#bf00bf;stroke-linecap:square;"/>
   </g>
   <g id="matplotlib.axis_1">
    <g id="xtick_1">
     <g id="line2d_6">
      <defs>
       <path d="
M0 0
L0 -4" id="mc7db9fdffb" style="stroke:#000000;stroke-width:0.5;"/>
      </defs>
      <g>
       <use style="stroke:#000000;stroke-width:0.5;" x="72.0" xlink:href="#mc7db9fdffb" y="388.8"/>
      </g>
     </g>
     <g id="line2d_7">
      <defs>
       <path d="
M0 0
L0 4" id="m5a7d422ac3" style="stroke:#000000;stroke-width:0.5;"/>
      </defs>
      <g>
       <use style="stroke:#000000;stroke-width:0.5;" x="72.0" xlink:href="#m5a7d422ac3" y="43.2"/>
      </g>
     </g>
     <g id="text_1">
      <!-- 0 -->
      <defs>
       <path d="
M56.9844 36.375
Q56.9844 16.7969 50.8594 7.64062
Q44.7344 -1.51562 31.8438 -1.51562
Q18.75 -1.51562 12.7188 7.76562
Q6.6875 17.0469 6.6875 36.2812
Q6.6875 55.6719 12.7812 64.9219
Q18.8906 74.1719 31.8438 74.1719
Q44.9219 74.1719 50.9531 64.7656
Q56.9844 55.375 56.9844 36.375
M44.1406 14.2031
Q45.8438 18.1719 46.4531 23.5156
Q47.0781 28.8594 47.0781 36.375
Q47.0781 43.7969 46.4531 49.2656
Q45.8438 54.7344 44.0938 58.5469
Q42.3906 62.3125 39.4219 64.2031
Q36.4688 66.1094 31.8438 66.1094
Q27.25 66.1094 24.2344 64.2031
Q21.2344 62.3125 19.4844 58.4531
Q17.8281 54.8281 17.2188 49.0156
Q16.6094 43.2188 16.6094 36.2812
Q16.6094 28.6562 17.1406 23.5312
Q17.6719 18.4062 19.4375 14.3594
Q21.0469 10.5469 24 8.54688
Q26.9531 6.54688 31.8438 6.54688
Q36.4219 6.54688 39.4531 8.45312
Q42.4844 10.3594 44.1406 14.2031" id="Verdana-30"/>
      </defs>
      <g transform="translate(68.9821875 401.918125)scale(0.12 -0.12)">
       <use xlink:href="#Verdana-30"/>
      </g>
     </g>
    </g>
    <g id="xtick_2">
     <g id="line2d_8">
      <g>
       <use style="stroke:#000000;stroke-width:0.5;" x="161.28" xlink:href="#mc7db9fdffb" y="388.8"/>
      </g>
     </g>
     <g id="line2d_9">
      <g>
       <use style="stroke:#000000;stroke-width:0.5;" x="161.28" xlink:href="#m5a7d422ac3" y="43.2"/>
      </g>
     </g>
     <g id="text_2">
      <!-- 1000 -->
      <defs>
       <path d="
M52.9375 0
L13.5781 0
L13.5781 7.42188
L28.7188 7.42188
L28.7188 56.1562
L13.5781 56.1562
L13.5781 62.7969
Q16.6562 62.7969 20.1719 63.2969
Q23.6875 63.8125 25.4844 64.7969
Q27.7344 66.0156 29.0312 67.8906
Q30.3281 69.7812 30.5156 72.9531
L38.0938 72.9531
L38.0938 7.42188
L52.9375 7.42188
z
" id="Verdana-31"/>
      </defs>
      <g transform="translate(147.2315625 401.918125)scale(0.12 -0.12)">
       <use xlink:href="#Verdana-31"/>
       <use x="63.57421875" xlink:href="#Verdana-30"/>
       <use x="127.1484375" xlink:href="#Verdana-30"/>
       <use x="190.72265625" xlink:href="#Verdana-30"/>
      </g>
     </g>
    </g>
    <g id="xtick_3">
     <g id="line2d_10">
      <g>
       <use style="stroke:#000000;stroke-width:0.5;" x="250.56" xlink:href="#mc7db9fdffb" y="388.8"/>
      </g>
     </g>
     <g id="line2d_11">
      <g>
       <use style="stroke:#000000;stroke-width:0.5;" x="250.56" xlink:href="#m5a7d422ac3" y="43.2"/>
      </g>
     </g>
     <g id="text_3">
      <!-- 2000 -->
      <defs>
       <path d="
M57.0781 0
L7.85938 0
L7.85938 10.2031
Q12.9844 14.5938 18.1406 18.9844
Q23.2969 23.3906 27.7344 27.7344
Q37.1094 36.8125 40.5781 42.1562
Q44.0469 47.5156 44.0469 53.7188
Q44.0469 59.375 40.3125 62.5625
Q36.5781 65.7656 29.8906 65.7656
Q25.4375 65.7656 20.2656 64.2031
Q15.0938 62.6406 10.1562 59.4219
L9.67188 59.4219
L9.67188 69.6719
Q13.1406 71.3906 18.9219 72.7969
Q24.7031 74.2188 30.125 74.2188
Q41.3125 74.2188 47.6562 68.8125
Q54 63.4219 54 54.2031
Q54 50.0469 52.9531 46.4531
Q51.9062 42.875 49.8594 39.6562
Q47.9531 36.625 45.3906 33.6875
Q42.8281 30.7656 39.1562 27.2031
Q33.9375 22.0781 28.3594 17.2656
Q22.7969 12.4531 17.9688 8.34375
L57.0781 8.34375
z
" id="Verdana-32"/>
      </defs>
      <g transform="translate(236.1684375 401.918125)scale(0.12 -0.12)">
       <use xlink:href="#Verdana-32"/>
       <use x="63.57421875" xlink:href="#Verdana-30"/>
       <use x="127.1484375" xlink:href="#Verdana-30"/>
       <use x="190.72265625" xlink:href="#Verdana-30"/>
      </g>
     </g>
    </g>
    <g id="xtick_4">
     <g id="line2d_12">
      <g>
       <use style="stroke:#000000;stroke-width:0.5;" x="339.84" xlink:href="#mc7db9fdffb" y="388.8"/>
      </g>
     </g>
     <g id="line2d_13">
      <g>
       <use style="stroke:#000000;stroke-width:0.5;" x="339.84" xlink:href="#m5a7d422ac3" y="43.2"/>
      </g>
     </g>
     <g id="text_4">
      <!-- 3000 -->
      <defs>
       <path d="
M50.6875 35.0156
Q53.0312 32.9062 54.5469 29.7344
Q56.0625 26.5625 56.0625 21.5312
Q56.0625 16.5469 54.25 12.3906
Q52.4375 8.25 49.1719 5.17188
Q45.5156 1.76562 40.5469 0.125
Q35.5938 -1.51562 29.6875 -1.51562
Q23.6406 -1.51562 17.7812 -0.0625
Q11.9219 1.375 8.15625 3.07812
L8.15625 13.2812
L8.89062 13.2812
Q13.0312 10.5469 18.6406 8.73438
Q24.2656 6.9375 29.5 6.9375
Q32.5625 6.9375 36.0312 7.95312
Q39.5 8.98438 41.6562 10.9844
Q43.8906 13.1406 44.9844 15.7188
Q46.0938 18.3125 46.0938 22.2656
Q46.0938 26.1719 44.8438 28.7344
Q43.6094 31.2969 41.4062 32.7656
Q39.2031 34.2812 36.0781 34.8438
Q32.9531 35.4062 29.3438 35.4062
L24.9531 35.4062
L24.9531 43.5
L28.375 43.5
Q35.7969 43.5 40.2031 46.5938
Q44.625 49.7031 44.625 55.6719
Q44.625 58.2969 43.5 60.2656
Q42.3906 62.25 40.375 63.5312
Q38.2812 64.7969 35.8906 65.2812
Q33.5 65.7656 30.4688 65.7656
Q25.8281 65.7656 20.5938 64.1094
Q15.375 62.4531 10.75 59.4219
L10.25 59.4219
L10.25 69.625
Q13.7188 71.3438 19.5 72.7812
Q25.2969 74.2188 30.7188 74.2188
Q36.0312 74.2188 40.0781 73.2344
Q44.1406 72.2656 47.4062 70.125
Q50.9219 67.7812 52.7344 64.4531
Q54.5469 61.1406 54.5469 56.6875
Q54.5469 50.6406 50.2656 46.125
Q46 41.6094 40.1875 40.4375
L40.1875 39.75
Q42.5312 39.3594 45.5469 38.1094
Q48.5781 36.8594 50.6875 35.0156" id="Verdana-33"/>
      </defs>
      <g transform="translate(325.46625 401.918125)scale(0.12 -0.12)">
       <use xlink:href="#Verdana-33"/>
       <use x="63.57421875" xlink:href="#Verdana-30"/>
       <use x="127.1484375" xlink:href="#Verdana-30"/>
       <use x="190.72265625" xlink:href="#Verdana-30"/>
      </g>
     </g>
    </g>
    <g id="xtick_5">
     <g id="line2d_14">
      <g>
       <use style="stroke:#000000;stroke-width:0.5;" x="429.12" xlink:href="#mc7db9fdffb" y="388.8"/>
      </g>
     </g>
     <g id="line2d_15">
      <g>
       <use style="stroke:#000000;stroke-width:0.5;" x="429.12" xlink:href="#m5a7d422ac3" y="43.2"/>
      </g>
     </g>
     <g id="text_5">
      <!-- 4000 -->
      <defs>
       <path d="
M58.7344 20.4531
L47.9531 20.4531
L47.9531 0
L38.5781 0
L38.5781 20.4531
L3.76562 20.4531
L3.76562 31.6875
L38.9688 72.7031
L47.9531 72.7031
L47.9531 28.2656
L58.7344 28.2656
z

M38.5781 28.2656
L38.5781 61.0781
L10.4062 28.2656
z
" id="Verdana-34"/>
      </defs>
      <g transform="translate(414.4828125 401.918125)scale(0.12 -0.12)">
       <use xlink:href="#Verdana-34"/>
       <use x="63.57421875" xlink:href="#Verdana-30"/>
       <use x="127.1484375" xlink:href="#Verdana-30"/>
       <use x="190.72265625" xlink:href="#Verdana-30"/>
      </g>
     </g>
    </g>
    <g id="xtick_6">
     <g id="line2d_16">
      <g>
       <use style="stroke:#000000;stroke-width:0.5;" x="518.4" xlink:href="#mc7db9fdffb" y="388.8"/>
      </g>
     </g>
     <g id="line2d_17">
      <g>
       <use style="stroke:#000000;stroke-width:0.5;" x="518.4" xlink:href="#m5a7d422ac3" y="43.2"/>
      </g>
     </g>
     <g id="text_6">
      <!-- 5000 -->
      <defs>
       <path d="
M56.5 23.0938
Q56.5 18.0156 54.6406 13.375
Q52.7812 8.73438 49.5625 5.5625
Q46.0469 2.15625 41.1875 0.3125
Q36.3281 -1.51562 29.9375 -1.51562
Q23.9688 -1.51562 18.4531 -0.265625
Q12.9375 0.984375 9.125 2.73438
L9.125 13.0312
L9.8125 13.0312
Q13.8125 10.5 19.1875 8.71875
Q24.5625 6.9375 29.7344 6.9375
Q33.2031 6.9375 36.4531 7.90625
Q39.7031 8.89062 42.2344 11.3281
Q44.3906 13.4219 45.4844 16.3438
Q46.5781 19.2812 46.5781 23.1406
Q46.5781 26.9062 45.2812 29.4844
Q44 32.0781 41.7031 33.6406
Q39.1562 35.5 35.5156 36.25
Q31.8906 37.0156 27.3906 37.0156
Q23.0938 37.0156 19.1094 36.4219
Q15.1406 35.8438 12.25 35.25
L12.25 72.7031
L56 72.7031
L56 64.1562
L21.6875 64.1562
L21.6875 44.8281
Q23.7812 45.0156 25.9688 45.1094
Q28.1719 45.2188 29.7812 45.2188
Q35.6875 45.2188 40.125 44.2188
Q44.5781 43.2188 48.2969 40.6719
Q52.2031 37.9844 54.3438 33.7344
Q56.5 29.5 56.5 23.0938" id="Verdana-35"/>
      </defs>
      <g transform="translate(504.084375 401.918125)scale(0.12 -0.12)">
       <use xlink:href="#Verdana-35"/>
       <use x="63.57421875" xlink:href="#Verdana-30"/>
       <use x="127.1484375" xlink:href="#Verdana-30"/>
       <use x="190.72265625" xlink:href="#Verdana-30"/>
      </g>
     </g>
    </g>
    <g id="text_7">
     <!-- Objective function exectuions -->
     <defs>
      <path d="
M37.3594 0.484375
Q34.7656 -0.203125 31.7031 -0.640625
Q28.6562 -1.07812 26.2656 -1.07812
Q17.9219 -1.07812 13.5781 3.40625
Q9.23438 7.90625 9.23438 17.8281
L9.23438 46.8281
L3.03125 46.8281
L3.03125 54.5469
L9.23438 54.5469
L9.23438 70.2188
L18.4062 70.2188
L18.4062 54.5469
L37.3594 54.5469
L37.3594 46.8281
L18.4062 46.8281
L18.4062 21.9688
Q18.4062 17.6719 18.5938 15.25
Q18.7969 12.8438 19.9688 10.75
Q21.0469 8.79688 22.9219 7.89062
Q24.8125 6.98438 28.6562 6.98438
Q30.9062 6.98438 33.3438 7.64062
Q35.7969 8.29688 36.8594 8.73438
L37.3594 8.73438
z
" id="Verdana-74"/>
      <path d="
M56.2031 54.5469
L34.125 0
L24.9062 0
L2.98438 54.5469
L12.9375 54.5469
L29.8281 11.1406
L46.5781 54.5469
z
" id="Verdana-76"/>
      <path d="
M26.0312 63.6719
L15.6719 63.6719
L15.6719 73.1875
L26.0312 73.1875
z

M25.4375 -1.3125
Q25.4375 -10.8906 20.5469 -15.7656
Q15.6719 -20.6562 7.46875 -20.6562
Q5.51562 -20.6562 2.3125 -20.2656
Q-0.875 -19.875 -3.03125 -19.2812
L-3.03125 -10.5469
L-2.54688 -10.5469
Q-1.17188 -11.0781 1.14062 -11.7656
Q3.46875 -12.4531 5.67188 -12.4531
Q9.1875 -12.4531 11.3281 -11.4688
Q13.4844 -10.5 14.5469 -8.54688
Q15.625 -6.59375 15.9375 -3.82812
Q16.2656 -1.07812 16.2656 2.875
L16.2656 46.8281
L4.89062 46.8281
L4.89062 54.5469
L25.4375 54.5469
z
" id="Verdana-6a"/>
      <path d="
M63.9688 64.3594
Q68.4062 59.4688 70.7656 52.3906
Q73.1406 45.3125 73.1406 36.3281
Q73.1406 27.3438 70.7188 20.2344
Q68.3125 13.1406 63.9688 8.40625
Q59.4688 3.46875 53.3438 0.96875
Q47.2188 -1.51562 39.3594 -1.51562
Q31.6875 -1.51562 25.4062 1.01562
Q19.1406 3.5625 14.75 8.40625
Q10.3594 13.2344 7.98438 20.2656
Q5.60938 27.2969 5.60938 36.3281
Q5.60938 45.2188 7.95312 52.2656
Q10.2969 59.3281 14.7969 64.3594
Q19.0938 69.1406 25.4688 71.6719
Q31.8438 74.2188 39.3594 74.2188
Q47.1719 74.2188 53.3906 71.6562
Q59.625 69.0938 63.9688 64.3594
M63.0938 36.3281
Q63.0938 50.4844 56.7344 58.1719
Q50.3906 65.875 39.4062 65.875
Q28.3281 65.875 22 58.1719
Q15.6719 50.4844 15.6719 36.3281
Q15.6719 22.0156 22.1094 14.4219
Q28.5625 6.84375 39.4062 6.84375
Q50.25 6.84375 56.6719 14.4219
Q63.0938 22.0156 63.0938 36.3281" id="Verdana-4f"/>
      <path d="
M54.25 0
L45.0625 0
L45.0625 6.0625
Q40.4375 2.39062 36.1875 0.4375
Q31.9375 -1.51562 26.8125 -1.51562
Q18.2188 -1.51562 13.4219 3.73438
Q8.64062 8.98438 8.64062 19.1406
L8.64062 54.5469
L17.8281 54.5469
L17.8281 23.4844
Q17.8281 19.3438 18.2188 16.375
Q18.6094 13.4219 19.875 11.3281
Q21.1875 9.1875 23.2812 8.20312
Q25.3906 7.23438 29.3906 7.23438
Q32.9531 7.23438 37.1719 9.07812
Q41.4062 10.9375 45.0625 13.8125
L45.0625 54.5469
L54.25 54.5469
z
" id="Verdana-75"/>
      <path d="
M48 15.7188
Q48 8.25 41.8125 3.46875
Q35.6406 -1.3125 24.9531 -1.3125
Q18.8906 -1.3125 13.8438 0.125
Q8.79688 1.5625 5.375 3.26562
L5.375 13.5781
L5.85938 13.5781
Q10.2031 10.2969 15.5156 8.375
Q20.8438 6.45312 25.7344 6.45312
Q31.7812 6.45312 35.2031 8.40625
Q38.625 10.3594 38.625 14.5469
Q38.625 17.7812 36.7656 19.4375
Q34.9062 21.0938 29.6406 22.2656
Q27.6875 22.7031 24.5312 23.2812
Q21.3906 23.875 18.7969 24.5625
Q11.625 26.4688 8.60938 30.1562
Q5.60938 33.8438 5.60938 39.2031
Q5.60938 42.5781 7 45.5469
Q8.40625 48.5312 11.2344 50.875
Q13.9688 53.1719 18.1875 54.5156
Q22.4062 55.8594 27.6406 55.8594
Q32.5156 55.8594 37.5156 54.6562
Q42.5312 53.4688 45.8438 51.7656
L45.8438 41.9375
L45.3594 41.9375
Q41.8438 44.5312 36.8125 46.3125
Q31.7812 48.0938 26.9531 48.0938
Q21.9219 48.0938 18.4531 46.1562
Q14.9844 44.2344 14.9844 40.4375
Q14.9844 37.0625 17.0938 35.3594
Q19.1406 33.6406 23.7344 32.5625
Q26.2656 31.9844 29.4062 31.3906
Q32.5625 30.8125 34.6719 30.3281
Q41.0625 28.8594 44.5312 25.2969
Q48 21.6875 48 15.7188" id="Verdana-73"/>
      <path d="
M56.25 0
L44.6719 0
L29.2031 20.9531
L13.625 0
L2.9375 0
L24.2188 27.2031
L3.125 54.5469
L14.7031 54.5469
L30.0781 33.9375
L45.5156 54.5469
L56.25 54.5469
L34.8125 27.6875
z
" id="Verdana-78"/>
      <path id="Verdana-20"/>
      <path d="
M38.375 67.0938
L37.8906 67.0938
Q36.375 67.5312 33.9375 67.9844
Q31.5 68.4531 29.6406 68.4531
Q23.7344 68.4531 21.0625 65.8438
Q18.4062 63.2344 18.4062 56.3906
L18.4062 54.5469
L34.9688 54.5469
L34.9688 46.8281
L18.7031 46.8281
L18.7031 0
L9.51562 0
L9.51562 46.8281
L3.32812 46.8281
L3.32812 54.5469
L9.51562 54.5469
L9.51562 56.3438
Q9.51562 66.0625 14.3438 71.2656
Q19.1875 76.4688 28.3281 76.4688
Q31.3906 76.4688 33.8594 76.1719
Q36.3281 75.875 38.375 75.4844
z
" id="Verdana-66"/>
      <path d="
M55.5156 27.25
Q55.5156 13.9219 48.6719 6.20312
Q41.8438 -1.51562 30.375 -1.51562
Q18.7969 -1.51562 11.9844 6.20312
Q5.17188 13.9219 5.17188 27.25
Q5.17188 40.5781 11.9844 48.3125
Q18.7969 56.0625 30.375 56.0625
Q41.8438 56.0625 48.6719 48.3125
Q55.5156 40.5781 55.5156 27.25
M46.0469 27.25
Q46.0469 37.8438 41.8906 42.9844
Q37.75 48.1406 30.375 48.1406
Q22.9062 48.1406 18.7812 42.9844
Q14.6562 37.8438 14.6562 27.25
Q14.6562 17 18.7969 11.6875
Q22.9531 6.39062 30.375 6.39062
Q37.7031 6.39062 41.875 11.6406
Q46.0469 16.8906 46.0469 27.25" id="Verdana-6f"/>
      <path d="
M57.0312 27.6875
Q57.0312 20.8438 55.0938 15.375
Q53.1719 9.90625 49.9062 6.20312
Q46.4375 2.34375 42.2812 0.40625
Q38.1406 -1.51562 33.1562 -1.51562
Q28.5156 -1.51562 25.0469 -0.40625
Q21.5781 0.6875 18.2188 2.54688
L17.625 0
L9.03125 0
L9.03125 75.9844
L18.2188 75.9844
L18.2188 48.8281
Q22.0781 52 26.4219 54.0312
Q30.7656 56.0625 36.1875 56.0625
Q45.8438 56.0625 51.4375 48.6406
Q57.0312 41.2188 57.0312 27.6875
M47.5625 27.4375
Q47.5625 37.2031 44.3281 42.25
Q41.1094 47.3125 33.9375 47.3125
Q29.9375 47.3125 25.8281 45.5781
Q21.7344 43.8438 18.2188 41.1094
L18.2188 9.85938
Q22.125 8.10938 24.9219 7.42188
Q27.7344 6.73438 31.2969 6.73438
Q38.9219 6.73438 43.2344 11.7344
Q47.5625 16.75 47.5625 27.4375" id="Verdana-62"/>
      <path d="
M49.3594 3.42188
Q44.7812 1.21875 40.6562 0
Q36.5312 -1.21875 31.8906 -1.21875
Q25.9844 -1.21875 21.0469 0.515625
Q16.1094 2.25 12.5938 5.76562
Q9.03125 9.28125 7.07812 14.6406
Q5.125 20.0156 5.125 27.2031
Q5.125 40.5781 12.4688 48.1875
Q19.8281 55.8125 31.8906 55.8125
Q36.5781 55.8125 41.0938 54.4844
Q45.6094 53.1719 49.3594 51.2656
L49.3594 41.0625
L48.875 41.0625
Q44.6719 44.3438 40.2031 46.0938
Q35.75 47.8594 31.5 47.8594
Q23.6875 47.8594 19.1719 42.6094
Q14.6562 37.3594 14.6562 27.2031
Q14.6562 17.3281 19.0625 12.0312
Q23.4844 6.73438 31.5 6.73438
Q34.2812 6.73438 37.1562 7.46875
Q40.0469 8.20312 42.3281 9.375
Q44.3438 10.4062 46.0938 11.5469
Q47.8594 12.7031 48.875 13.5312
L49.3594 13.5312
z
" id="Verdana-63"/>
      <path d="
M54.6406 0
L45.4531 0
L45.4531 31.0625
Q45.4531 34.8125 45.0156 38.1094
Q44.5781 41.4062 43.4062 43.2656
Q42.1875 45.3125 39.8906 46.3125
Q37.5938 47.3125 33.9375 47.3125
Q30.1719 47.3125 26.0625 45.4531
Q21.9688 43.6094 18.2188 40.7188
L18.2188 0
L9.03125 0
L9.03125 54.5469
L18.2188 54.5469
L18.2188 48.4844
Q22.5156 52.0469 27.0938 54.0469
Q31.6875 56.0625 36.5312 56.0625
Q45.3594 56.0625 50 50.7344
Q54.6406 45.4062 54.6406 35.4062
z
" id="Verdana-6e"/>
      <path d="
M54.6875 26.3125
L14.5 26.3125
Q14.5 21.2969 16.0156 17.5469
Q17.5312 13.8125 20.1719 11.4219
Q22.7031 9.07812 26.1875 7.90625
Q29.6875 6.73438 33.8906 6.73438
Q39.4531 6.73438 45.0938 8.95312
Q50.7344 11.1875 53.125 13.3281
L53.6094 13.3281
L53.6094 3.32812
Q48.9688 1.375 44.1406 0.046875
Q39.3125 -1.26562 33.9844 -1.26562
Q20.4062 -1.26562 12.7812 6.07812
Q5.17188 13.4219 5.17188 26.9531
Q5.17188 40.3281 12.4688 48.1875
Q19.7812 56.0625 31.6875 56.0625
Q42.7188 56.0625 48.7031 49.6094
Q54.6875 43.1719 54.6875 31.2969
z

M45.75 33.3438
Q45.7031 40.5781 42.1094 44.5312
Q38.5312 48.4844 31.2031 48.4844
Q23.8281 48.4844 19.4531 44.1406
Q15.0938 39.7969 14.5 33.3438
z
" id="Verdana-65"/>
      <path d="
M18.8906 63.6719
L8.54688 63.6719
L8.54688 73.1875
L18.8906 73.1875
z

M18.3125 0
L9.125 0
L9.125 54.5469
L18.3125 54.5469
z
" id="Verdana-69"/>
     </defs>
     <g transform="translate(206.5078125 418.509375)scale(0.12 -0.12)">
      <use xlink:href="#Verdana-4f"/>
      <use x="78.7109375" xlink:href="#Verdana-62"/>
      <use x="141.015625" xlink:href="#Verdana-6a"/>
      <use x="175.439453125" xlink:href="#Verdana-65"/>
      <use x="235.009765625" xlink:href="#Verdana-63"/>
      <use x="287.109375" xlink:href="#Verdana-74"/>
      <use x="326.513671875" xlink:href="#Verdana-69"/>
      <use x="353.955078125" xlink:href="#Verdana-76"/>
      <use x="412.259765625" xlink:href="#Verdana-65"/>
      <use x="471.830078125" xlink:href="#Verdana-20"/>
      <use x="506.986328125" xlink:href="#Verdana-66"/>
      <use x="542.142578125" xlink:href="#Verdana-75"/>
      <use x="605.423828125" xlink:href="#Verdana-6e"/>
      <use x="668.705078125" xlink:href="#Verdana-63"/>
      <use x="720.8046875" xlink:href="#Verdana-74"/>
      <use x="760.208984375" xlink:href="#Verdana-69"/>
      <use x="787.650390625" xlink:href="#Verdana-6f"/>
      <use x="848.34375" xlink:href="#Verdana-6e"/>
      <use x="911.625" xlink:href="#Verdana-20"/>
      <use x="946.78125" xlink:href="#Verdana-65"/>
      <use x="1006.3515625" xlink:href="#Verdana-78"/>
      <use x="1064.40625" xlink:href="#Verdana-65"/>
      <use x="1123.9765625" xlink:href="#Verdana-63"/>
      <use x="1176.076171875" xlink:href="#Verdana-74"/>
      <use x="1215.48046875" xlink:href="#Verdana-75"/>
      <use x="1278.76171875" xlink:href="#Verdana-69"/>
      <use x="1306.203125" xlink:href="#Verdana-6f"/>
      <use x="1366.896484375" xlink:href="#Verdana-6e"/>
      <use x="1430.177734375" xlink:href="#Verdana-73"/>
     </g>
    </g>
   </g>
   <g id="matplotlib.axis_2">
    <g id="ytick_1">
     <g id="line2d_18">
      <defs>
       <path d="
M0 0
L4 0" id="md7965d1ba0" style="stroke:#000000;stroke-width:0.5;"/>
      </defs>
      <g>
       <use style="stroke:#000000;stroke-width:0.5;" x="72.0" xlink:href="#md7965d1ba0" y="388.8"/>
      </g>
     </g>
     <g id="line2d_19">
      <defs>
       <path d="
M0 0
L-4 0" id="md9a1c1a7cd" style="stroke:#000000;stroke-width:0.5;"/>
      </defs>
      <g>
       <use style="stroke:#000000;stroke-width:0.5;" x="518.4" xlink:href="#md9a1c1a7cd" y="388.8"/>
      </g>
     </g>
     <g id="text_8">
      <!-- 0.0 -->
      <defs>
       <path d="
M24.0312 0
L12.3594 0
L12.3594 13.9219
L24.0312 13.9219
z
" id="Verdana-2e"/>
      </defs>
      <g transform="translate(49.97 392.1515625)scale(0.12 -0.12)">
       <use xlink:href="#Verdana-30"/>
       <use x="63.57421875" xlink:href="#Verdana-2e"/>
       <use x="99.951171875" xlink:href="#Verdana-30"/>
      </g>
     </g>
    </g>
    <g id="ytick_2">
     <g id="line2d_20">
      <g>
       <use style="stroke:#000000;stroke-width:0.5;" x="72.0" xlink:href="#md7965d1ba0" y="319.68"/>
      </g>
     </g>
     <g id="line2d_21">
      <g>
       <use style="stroke:#000000;stroke-width:0.5;" x="518.4" xlink:href="#md9a1c1a7cd" y="319.68"/>
      </g>
     </g>
     <g id="text_9">
      <!-- 0.2 -->
      <g transform="translate(49.95875 323.0315625)scale(0.12 -0.12)">
       <use xlink:href="#Verdana-30"/>
       <use x="63.57421875" xlink:href="#Verdana-2e"/>
       <use x="99.951171875" xlink:href="#Verdana-32"/>
      </g>
     </g>
    </g>
    <g id="ytick_3">
     <g id="line2d_22">
      <g>
       <use style="stroke:#000000;stroke-width:0.5;" x="72.0" xlink:href="#md7965d1ba0" y="250.56"/>
      </g>
     </g>
     <g id="line2d_23">
      <g>
       <use style="stroke:#000000;stroke-width:0.5;" x="518.4" xlink:href="#md9a1c1a7cd" y="250.56"/>
      </g>
     </g>
     <g id="text_10">
      <!-- 0.4 -->
      <g transform="translate(49.76 253.9115625)scale(0.12 -0.12)">
       <use xlink:href="#Verdana-30"/>
       <use x="63.57421875" xlink:href="#Verdana-2e"/>
       <use x="99.951171875" xlink:href="#Verdana-34"/>
      </g>
     </g>
    </g>
    <g id="ytick_4">
     <g id="line2d_24">
      <g>
       <use style="stroke:#000000;stroke-width:0.5;" x="72.0" xlink:href="#md7965d1ba0" y="181.44"/>
      </g>
     </g>
     <g id="line2d_25">
      <g>
       <use style="stroke:#000000;stroke-width:0.5;" x="518.4" xlink:href="#md9a1c1a7cd" y="181.44"/>
      </g>
     </g>
     <g id="text_11">
      <!-- 0.6 -->
      <defs>
       <path d="
M58.1562 23.5781
Q58.1562 12.5 50.8594 5.48438
Q43.5625 -1.51562 32.9531 -1.51562
Q27.5938 -1.51562 23.1875 0.140625
Q18.7969 1.8125 15.4375 5.07812
Q11.2344 9.125 8.95312 15.8125
Q6.6875 22.5156 6.6875 31.9375
Q6.6875 41.6094 8.76562 49.0781
Q10.8438 56.5469 15.375 62.3594
Q19.6719 67.875 26.4531 70.9688
Q33.25 74.0781 42.2812 74.0781
Q45.1719 74.0781 47.125 73.8281
Q49.0781 73.5781 51.0781 72.9531
L51.0781 63.625
L50.5938 63.625
Q49.2188 64.3594 46.4531 65.0156
Q43.7031 65.6719 40.8281 65.6719
Q30.3281 65.6719 24.0781 59.1094
Q17.8281 52.5469 16.7969 41.3594
Q20.9062 43.8438 24.875 45.1406
Q28.8594 46.4375 34.0781 46.4375
Q38.7188 46.4375 42.25 45.5781
Q45.7969 44.7344 49.5156 42.1406
Q53.8125 39.1562 55.9844 34.6094
Q58.1562 30.0781 58.1562 23.5781
M48.25 23.1875
Q48.25 27.7344 46.9062 30.7031
Q45.5625 33.6875 42.4844 35.8906
Q40.2344 37.4531 37.5 37.9375
Q34.7656 38.4219 31.7812 38.4219
Q27.6406 38.4219 24.0781 37.4375
Q20.5156 36.4688 16.75 34.4219
Q16.6562 33.3438 16.5938 32.3438
Q16.5469 31.3438 16.5469 29.8281
Q16.5469 22.125 18.1406 17.6562
Q19.7344 13.1875 22.5156 10.5938
Q24.75 8.45312 27.3594 7.45312
Q29.9844 6.45312 33.0625 6.45312
Q40.1406 6.45312 44.1875 10.7656
Q48.25 15.0938 48.25 23.1875" id="Verdana-36"/>
      </defs>
      <g transform="translate(49.829375 184.7915625)scale(0.12 -0.12)">
       <use xlink:href="#Verdana-30"/>
       <use x="63.57421875" xlink:href="#Verdana-2e"/>
       <use x="99.951171875" xlink:href="#Verdana-36"/>
      </g>
     </g>
    </g>
    <g id="ytick_5">
     <g id="line2d_26">
      <g>
       <use style="stroke:#000000;stroke-width:0.5;" x="72.0" xlink:href="#md7965d1ba0" y="112.32"/>
      </g>
     </g>
     <g id="line2d_27">
      <g>
       <use style="stroke:#000000;stroke-width:0.5;" x="518.4" xlink:href="#md9a1c1a7cd" y="112.32"/>
      </g>
     </g>
     <g id="text_12">
      <!-- 0.8 -->
      <defs>
       <path d="
M57.625 20.2656
Q57.625 10.8438 50.2656 4.59375
Q42.9219 -1.65625 31.7812 -1.65625
Q19.9688 -1.65625 12.9531 4.4375
Q5.95312 10.5469 5.95312 20.0625
Q5.95312 26.125 9.46875 31.0312
Q12.9844 35.9375 19.3906 38.8125
L19.3906 39.1094
Q13.5312 42.2344 10.7188 45.9375
Q7.90625 49.6562 7.90625 55.2188
Q7.90625 63.4219 14.6406 68.8906
Q21.3906 74.3594 31.7812 74.3594
Q42.6719 74.3594 49.1719 69.1406
Q55.6719 63.9219 55.6719 55.8594
Q55.6719 50.9219 52.5938 46.1562
Q49.5156 41.4062 43.5625 38.7188
L43.5625 38.4219
Q50.3906 35.5 54 31.2031
Q57.625 26.9062 57.625 20.2656
M46.0469 55.7656
Q46.0469 60.9844 42.0156 64.0781
Q37.9844 67.1875 31.7344 67.1875
Q25.5938 67.1875 21.6562 64.25
Q17.7188 61.3281 17.7188 56.3438
Q17.7188 52.8281 19.7031 50.2656
Q21.6875 47.7031 25.6875 45.7031
Q27.4844 44.8281 30.875 43.4062
Q34.2812 42 37.5 41.0625
Q42.3281 44.2812 44.1875 47.75
Q46.0469 51.2188 46.0469 55.7656
M47.5625 19.3438
Q47.5625 23.8281 45.5781 26.5312
Q43.6094 29.25 37.8438 31.9844
Q35.5469 33.0625 32.8125 33.9844
Q30.0781 34.9062 25.5312 36.5781
Q21.1406 34.1875 18.4844 30.0781
Q15.8281 25.9844 15.8281 20.7969
Q15.8281 14.2031 20.3594 9.90625
Q24.9062 5.60938 31.8906 5.60938
Q39.0156 5.60938 43.2812 9.26562
Q47.5625 12.9375 47.5625 19.3438" id="Verdana-38"/>
      </defs>
      <g transform="translate(49.893125 115.6715625)scale(0.12 -0.12)">
       <use xlink:href="#Verdana-30"/>
       <use x="63.57421875" xlink:href="#Verdana-2e"/>
       <use x="99.951171875" xlink:href="#Verdana-38"/>
      </g>
     </g>
    </g>
    <g id="ytick_6">
     <g id="line2d_28">
      <g>
       <use style="stroke:#000000;stroke-width:0.5;" x="72.0" xlink:href="#md7965d1ba0" y="43.2"/>
      </g>
     </g>
     <g id="line2d_29">
      <g>
       <use style="stroke:#000000;stroke-width:0.5;" x="518.4" xlink:href="#md9a1c1a7cd" y="43.2"/>
      </g>
     </g>
     <g id="text_13">
      <!-- 1.0 -->
      <g transform="translate(50.796875 46.5515625)scale(0.12 -0.12)">
       <use xlink:href="#Verdana-31"/>
       <use x="63.57421875" xlink:href="#Verdana-2e"/>
       <use x="99.951171875" xlink:href="#Verdana-30"/>
      </g>
     </g>
    </g>
    <g id="text_14">
     <!-- Data Profile T-0.0010000 -->
     <defs>
      <path d="
M43.0625 44.5312
L42.5781 44.5312
Q40.5312 45.0156 38.5938 45.2344
Q36.6719 45.4531 34.0312 45.4531
Q29.7812 45.4531 25.8281 43.5781
Q21.875 41.7031 18.2188 38.7188
L18.2188 0
L9.03125 0
L9.03125 54.5469
L18.2188 54.5469
L18.2188 46.4844
Q23.6875 50.875 27.8594 52.7031
Q32.0312 54.5469 36.375 54.5469
Q38.7656 54.5469 39.8438 54.4219
Q40.9219 54.2969 43.0625 53.9531
z
" id="Verdana-72"/>
      <path d="
M37.9375 27.3906
L7.46875 27.3906
L7.46875 36.2344
L37.9375 36.2344
z
" id="Verdana-2d"/>
      <path d="
M18.3125 0
L9.125 0
L9.125 75.9844
L18.3125 75.9844
z
" id="Verdana-6c"/>
      <path d="
M57.3281 50.7344
Q57.3281 45.9062 55.6406 41.7656
Q53.9531 37.6406 50.9219 34.625
Q47.1719 30.8594 42.0469 28.9688
Q36.9219 27.0938 29.1094 27.0938
L19.4375 27.0938
L19.4375 0
L9.76562 0
L9.76562 72.7031
L29.5 72.7031
Q36.0312 72.7031 40.5781 71.6094
Q45.125 70.5156 48.6406 68.1719
Q52.7812 65.375 55.0469 61.2188
Q57.3281 57.0781 57.3281 50.7344
M47.2656 50.4844
Q47.2656 54.25 45.9375 57.0312
Q44.625 59.8125 41.9375 61.5781
Q39.5938 63.0938 36.5938 63.75
Q33.5938 64.4062 29 64.4062
L19.4375 64.4062
L19.4375 35.3594
L27.5938 35.3594
Q33.4531 35.3594 37.1094 36.4062
Q40.7656 37.4531 43.0625 39.75
Q45.3594 42.0938 46.3125 44.6719
Q47.2656 47.2656 47.2656 50.4844" id="Verdana-50"/>
      <path d="
M61.625 64.1094
L35.6406 64.1094
L35.6406 0
L25.9844 0
L25.9844 64.1094
L0 64.1094
L0 72.7031
L61.625 72.7031
z
" id="Verdana-54"/>
      <path d="
M51.4219 0
L42.2812 0
L42.2812 5.8125
Q41.0625 4.98438 38.9844 3.48438
Q36.9219 2 34.9688 1.125
Q32.6719 0 29.6875 -0.75
Q26.7031 -1.51562 22.7031 -1.51562
Q15.3281 -1.51562 10.2031 3.35938
Q5.07812 8.25 5.07812 15.8281
Q5.07812 22.0156 7.73438 25.8438
Q10.4062 29.6875 15.3281 31.8906
Q20.3125 34.0781 27.2969 34.8594
Q34.2812 35.6406 42.2812 36.0312
L42.2812 37.4531
Q42.2812 40.5781 41.1875 42.625
Q40.0938 44.6719 38.0312 45.8438
Q36.0781 46.9688 33.3438 47.3594
Q30.6094 47.75 27.6406 47.75
Q24.0312 47.75 19.5781 46.7969
Q15.1406 45.8438 10.4062 44.0469
L9.90625 44.0469
L9.90625 53.375
Q12.5938 54.1094 17.6719 54.9844
Q22.75 55.8594 27.6875 55.8594
Q33.4531 55.8594 37.7188 54.9062
Q42 53.9531 45.125 51.6562
Q48.1875 49.4219 49.7969 45.8438
Q51.4219 42.2812 51.4219 37.0156
z

M42.2812 13.4219
L42.2812 28.6094
Q38.0938 28.375 32.3906 27.875
Q26.7031 27.3906 23.3906 26.4688
Q19.4375 25.3438 16.9844 22.9688
Q14.5469 20.6094 14.5469 16.4531
Q14.5469 11.7656 17.375 9.39062
Q20.2188 7.03125 26.0312 7.03125
Q30.8594 7.03125 34.8594 8.90625
Q38.875 10.7969 42.2812 13.4219" id="Verdana-61"/>
      <path d="
M71.1875 36.2812
Q71.1875 26.375 66.8594 18.3125
Q62.5469 10.25 55.375 5.8125
Q50.3906 2.73438 44.2656 1.35938
Q38.1406 0 28.125 0
L9.76562 0
L9.76562 72.7031
L27.9375 72.7031
Q38.5781 72.7031 44.8438 71.1562
Q51.125 69.625 55.4688 66.9375
Q62.8906 62.3125 67.0312 54.5938
Q71.1875 46.875 71.1875 36.2812
M61.0781 36.4219
Q61.0781 44.9688 58.0938 50.8281
Q55.125 56.6875 49.2188 60.0625
Q44.9219 62.5 40.0781 63.4531
Q35.25 64.4062 28.5156 64.4062
L19.4375 64.4062
L19.4375 8.29688
L28.5156 8.29688
Q35.5 8.29688 40.7031 9.32812
Q45.9062 10.3594 50.25 13.1406
Q55.6719 16.6094 58.375 22.2656
Q61.0781 27.9375 61.0781 36.4219" id="Verdana-44"/>
     </defs>
     <g transform="translate(42.345 291.493125)rotate(-90.0)scale(0.12 -0.12)">
      <use xlink:href="#Verdana-44"/>
      <use x="77.05078125" xlink:href="#Verdana-61"/>
      <use x="137.109375" xlink:href="#Verdana-74"/>
      <use x="176.513671875" xlink:href="#Verdana-61"/>
      <use x="236.572265625" xlink:href="#Verdana-20"/>
      <use x="271.728515625" xlink:href="#Verdana-50"/>
      <use x="332.03125" xlink:href="#Verdana-72"/>
      <use x="374.70703125" xlink:href="#Verdana-6f"/>
      <use x="435.400390625" xlink:href="#Verdana-66"/>
      <use x="470.556640625" xlink:href="#Verdana-69"/>
      <use x="497.998046875" xlink:href="#Verdana-6c"/>
      <use x="525.439453125" xlink:href="#Verdana-65"/>
      <use x="585.009765625" xlink:href="#Verdana-20"/>
      <use x="620.166015625" xlink:href="#Verdana-54"/>
      <use x="674.412109375" xlink:href="#Verdana-2d"/>
      <use x="719.822265625" xlink:href="#Verdana-30"/>
      <use x="783.396484375" xlink:href="#Verdana-2e"/>
      <use x="819.7734375" xlink:href="#Verdana-30"/>
      <use x="883.34765625" xlink:href="#Verdana-30"/>
      <use x="946.921875" xlink:href="#Verdana-31"/>
      <use x="1010.49609375" xlink:href="#Verdana-30"/>
      <use x="1074.0703125" xlink:href="#Verdana-30"/>
      <use x="1137.64453125" xlink:href="#Verdana-30"/>
      <use x="1201.21875" xlink:href="#Verdana-30"/>
     </g>
    </g>
   </g>
   <g id="patch_3">
    <path d="
M72 388.8
L518.4 388.8" style="fill:none;stroke:#000000;"/>
   </g>
   <g id="patch_4">
    <path d="
M518.4 388.8
L518.4 43.2" style="fill:none;stroke:#000000;"/>
   </g>
   <g id="patch_5">
    <path d="
M72 388.8
L72 43.2" style="fill:none;stroke:#000000;"/>
   </g>
   <g id="patch_6">
    <path d="
M72 43.2
L518.4 43.2" style="fill:none;stroke:#000000;"/>
   </g>
   <g id="text_15">
    <!-- Bohachevsky Data Profile T-0.0010000 -->
    <defs>
     <path d="
M64.5938 22.3594
Q64.5938 16.9375 62.5469 12.7812
Q60.5 8.64062 57.0312 5.95312
Q52.9375 2.73438 48.0156 1.35938
Q43.1094 0 35.5469 0
L9.76562 0
L9.76562 72.7031
L31.2969 72.7031
Q39.2656 72.7031 43.2188 72.1094
Q47.1719 71.5312 50.7812 69.6719
Q54.7812 67.5781 56.5938 64.2812
Q58.4062 60.9844 58.4062 56.3906
Q58.4062 51.2188 55.7656 47.5781
Q53.125 43.9531 48.7344 41.75
L48.7344 41.3594
Q56.1094 39.8438 60.3438 34.8906
Q64.5938 29.9375 64.5938 22.3594
M48.3438 55.125
Q48.3438 57.7656 47.4531 59.5625
Q46.5781 61.375 44.625 62.5
Q42.3281 63.8125 39.0625 64.125
Q35.7969 64.4531 30.9531 64.4531
L19.4375 64.4531
L19.4375 43.4531
L31.9375 43.4531
Q36.4688 43.4531 39.1562 43.9219
Q41.8438 44.3906 44.1406 45.8438
Q46.4375 47.3125 47.3906 49.625
Q48.3438 51.9531 48.3438 55.125
M54.5469 21.9688
Q54.5469 26.375 53.2188 28.9531
Q51.9062 31.5469 48.4375 33.3438
Q46.0938 34.5781 42.75 34.9375
Q39.4062 35.2969 34.625 35.2969
L19.4375 35.2969
L19.4375 8.25
L32.2344 8.25
Q38.5781 8.25 42.625 8.90625
Q46.6875 9.57812 49.2656 11.3281
Q52 13.2344 53.2656 15.6719
Q54.5469 18.1094 54.5469 21.9688" id="Verdana-42"/>
     <path d="
M54.6406 0
L45.4531 0
L45.4531 31.0625
Q45.4531 34.8125 45.0156 38.1094
Q44.5781 41.4062 43.4062 43.2656
Q42.1875 45.3125 39.8906 46.3125
Q37.5938 47.3125 33.9375 47.3125
Q30.1719 47.3125 26.0625 45.4531
Q21.9688 43.6094 18.2188 40.7188
L18.2188 0
L9.03125 0
L9.03125 75.9844
L18.2188 75.9844
L18.2188 48.4844
Q22.5156 52.0469 27.0938 54.0469
Q31.6875 56.0625 36.5312 56.0625
Q45.3594 56.0625 50 50.7344
Q54.6406 45.4062 54.6406 35.4062
z
" id="Verdana-68"/>
     <path d="
M58.5469 0
L46.4375 0
L24.5625 23.875
L18.6094 18.2188
L18.6094 0
L9.42188 0
L9.42188 75.9844
L18.6094 75.9844
L18.6094 27.25
L45.125 54.5469
L56.6875 54.5469
L31.3438 29.3438
z
" id="Verdana-6b"/>
     <path d="
M56.2031 54.5469
L24.3594 -20.125
L14.5469 -20.125
L24.7031 2.64062
L2.98438 54.5469
L12.9375 54.5469
L29.6875 14.1094
L46.5781 54.5469
z
" id="Verdana-79"/>
    </defs>
    <g transform="translate(154.758375 38.2)scale(0.144 -0.144)">
     <use xlink:href="#Verdana-42"/>
     <use x="68.5546875" xlink:href="#Verdana-6f"/>
     <use x="129.248046875" xlink:href="#Verdana-68"/>
     <use x="192.529296875" xlink:href="#Verdana-61"/>
     <use x="252.587890625" xlink:href="#Verdana-63"/>
     <use x="304.6875" xlink:href="#Verdana-68"/>
     <use x="367.96875" xlink:href="#Verdana-65"/>
     <use x="427.5390625" xlink:href="#Verdana-76"/>
     <use x="486.71875" xlink:href="#Verdana-73"/>
     <use x="538.818359375" xlink:href="#Verdana-6b"/>
     <use x="597.998046875" xlink:href="#Verdana-79"/>
     <use x="657.177734375" xlink:href="#Verdana-20"/>
     <use x="692.333984375" xlink:href="#Verdana-44"/>
     <use x="769.384765625" xlink:href="#Verdana-61"/>
     <use x="829.443359375" xlink:href="#Verdana-74"/>
     <use x="868.84765625" xlink:href="#Verdana-61"/>
     <use x="928.90625" xlink:href="#Verdana-20"/>
     <use x="964.0625" xlink:href="#Verdana-50"/>
     <use x="1024.365234375" xlink:href="#Verdana-72"/>
     <use x="1067.041015625" xlink:href="#Verdana-6f"/>
     <use x="1127.734375" xlink:href="#Verdana-66"/>
     <use x="1162.890625" xlink:href="#Verdana-69"/>
     <use x="1190.33203125" xlink:href="#Verdana-6c"/>
     <use x="1217.7734375" xlink:href="#Verdana-65"/>
     <use x="1277.34375" xlink:href="#Verdana-20"/>
     <use x="1312.5" xlink:href="#Verdana-54"/>
     <use x="1366.74609375" xlink:href="#Verdana-2d"/>
     <use x="1412.15625" xlink:href="#Verdana-30"/>
     <use x="1475.73046875" xlink:href="#Verdana-2e"/>
     <use x="1512.107421875" xlink:href="#Verdana-30"/>
     <use x="1575.681640625" xlink:href="#Verdana-30"/>
     <use x="1639.255859375" xlink:href="#Verdana-31"/>
     <use x="1702.830078125" xlink:href="#Verdana-30"/>
     <use x="1766.404296875" xlink:href="#Verdana-30"/>
     <use x="1829.978515625" xlink:href="#Verdana-30"/>
     <use x="1893.552734375" xlink:href="#Verdana-30"/>
    </g>
   </g>
   <g id="legend_1">
    <g id="patch_7">
     <path d="
M79.2 159.919
L183.22 159.919
L183.22 50.4
L79.2 50.4
L79.2 159.919
z
" style="fill:#ffffff;stroke:#000000;"/>
    </g>
    <g id="line2d_30">
     <path d="
M89.28 62.0617
L109.44 62.0617" style="fill:none;stroke:#0000ff;stroke-dasharray:6.000000,2.000000;stroke-dashoffset:0.0;"/>
    </g>
    <g id="line2d_31"/>
    <g id="text_16">
     <!-- AMPGO -->
     <defs>
      <path d="
M67.0938 0
L56.7812 0
L49.6562 20.2656
L18.2188 20.2656
L11.0781 0
L1.26562 0
L27.7344 72.7031
L40.625 72.7031
z

M46.6875 28.5625
L33.9375 64.2656
L21.1406 28.5625
z
" id="Verdana-41"/>
      <path d="
M74.5156 0
L64.8438 0
L64.8438 62.6406
L44.625 20.0156
L38.875 20.0156
L18.7969 62.6406
L18.7969 0
L9.76562 0
L9.76562 72.7031
L22.9531 72.7031
L42.3281 32.2344
L61.0781 72.7031
L74.5156 72.7031
z
" id="Verdana-4d"/>
      <path d="
M70.4062 5.375
Q64.4531 2.64062 57.3906 0.609375
Q50.3438 -1.42188 43.75 -1.42188
Q35.25 -1.42188 28.1719 0.921875
Q21.0938 3.26562 16.1094 7.95312
Q11.0781 12.7031 8.34375 19.7969
Q5.60938 26.9062 5.60938 36.4219
Q5.60938 53.8594 15.7969 63.9375
Q25.9844 74.0312 43.75 74.0312
Q49.9531 74.0312 56.4219 72.5312
Q62.8906 71.0469 70.3594 67.4844
L70.3594 56
L69.4844 56
Q67.9688 57.1719 65.0781 59.0781
Q62.2031 60.9844 59.4219 62.25
Q56.0625 63.7656 51.7812 64.7656
Q47.5156 65.7656 42.0938 65.7656
Q29.8906 65.7656 22.7812 57.9219
Q15.6719 50.0938 15.6719 36.7188
Q15.6719 22.6094 23.0938 14.7656
Q30.5156 6.9375 43.3125 6.9375
Q48 6.9375 52.6562 7.85938
Q57.3281 8.79688 60.8438 10.25
L60.8438 28.0781
L41.3594 28.0781
L41.3594 36.5781
L70.4062 36.5781
z
" id="Verdana-47"/>
     </defs>
     <g transform="translate(125.28 67.10175)scale(0.144 -0.144)">
      <use xlink:href="#Verdana-41"/>
      <use x="68.359375" xlink:href="#Verdana-4d"/>
      <use x="152.63671875" xlink:href="#Verdana-50"/>
      <use x="212.939453125" xlink:href="#Verdana-47"/>
      <use x="290.478515625" xlink:href="#Verdana-4f"/>
     </g>
    </g>
    <g id="line2d_32">
     <path d="
M89.28 83.1015
L109.44 83.1015" style="fill:none;stroke:#008000;stroke-dasharray:1.000000,1.000000;stroke-dashoffset:0.0;"/>
    </g>
    <g id="line2d_33"/>
    <g id="text_17">
     <!-- Anneal -->
     <g transform="translate(125.28 88.1415)scale(0.144 -0.144)">
      <use xlink:href="#Verdana-41"/>
      <use x="68.359375" xlink:href="#Verdana-6e"/>
      <use x="131.640625" xlink:href="#Verdana-6e"/>
      <use x="194.921875" xlink:href="#Verdana-65"/>
      <use x="254.4921875" xlink:href="#Verdana-61"/>
      <use x="314.55078125" xlink:href="#Verdana-6c"/>
     </g>
    </g>
    <g id="line2d_34">
     <path d="
M89.28 104.141
L109.44 104.141" style="fill:none;stroke:#ff0000;stroke-dasharray:3.000000,6.000000;stroke-dashoffset:0.0;"/>
    </g>
    <g id="line2d_35"/>
    <g id="text_18">
     <!-- BSA -->
     <defs>
      <path d="
M62.5938 20.75
Q62.5938 16.5 60.6094 12.3438
Q58.6406 8.20312 55.0781 5.32812
Q51.1719 2.20312 45.9688 0.4375
Q40.7656 -1.3125 33.4531 -1.3125
Q25.5938 -1.3125 19.3125 0.140625
Q13.0312 1.60938 6.54688 4.5
L6.54688 16.6094
L7.23438 16.6094
Q12.75 12.0156 19.9688 9.51562
Q27.2031 7.03125 33.5469 7.03125
Q42.5312 7.03125 47.5312 10.3906
Q52.5469 13.7656 52.5469 19.3906
Q52.5469 24.2188 50.1719 26.5156
Q47.7969 28.8125 42.9688 30.0781
Q39.3125 31.0625 35.0312 31.6875
Q30.7656 32.3281 25.9844 33.2969
Q16.3125 35.3594 11.6406 40.3125
Q6.98438 45.2656 6.98438 53.2188
Q6.98438 62.3594 14.6875 68.1875
Q22.4062 74.0312 34.2812 74.0312
Q41.9375 74.0312 48.3281 72.5625
Q54.7344 71.0938 59.6719 68.9531
L59.6719 57.5156
L58.9844 57.5156
Q54.8281 61.0312 48.0625 63.3438
Q41.3125 65.6719 34.2344 65.6719
Q26.4688 65.6719 21.75 62.4531
Q17.0469 59.2344 17.0469 54.1562
Q17.0469 49.6094 19.3906 47.0156
Q21.7344 44.4375 27.6406 43.0625
Q30.7656 42.3906 36.5156 41.4062
Q42.2812 40.4375 46.2969 39.4062
Q54.3906 37.25 58.4844 32.9062
Q62.5938 28.5625 62.5938 20.75" id="Verdana-53"/>
     </defs>
     <g transform="translate(125.28 109.18125)scale(0.144 -0.144)">
      <use xlink:href="#Verdana-42"/>
      <use x="68.5546875" xlink:href="#Verdana-53"/>
      <use x="135.9140625" xlink:href="#Verdana-41"/>
     </g>
    </g>
    <g id="line2d_36">
     <path d="
M89.28 125.181
L109.44 125.181" style="fill:none;stroke:#00bfbf;stroke-dasharray:5.000000,1.000000,2.000000,1.000000,5.000000,1.000000;stroke-dashoffset:0.0;"/>
    </g>
    <g id="line2d_37"/>
    <g id="text_19">
     <!-- Cuckoo -->
     <defs>
      <path d="
M65.9219 5.28125
Q63.2344 4.10938 61.0625 3.07812
Q58.8906 2.04688 55.375 0.921875
Q52.3906 0 48.8906 -0.65625
Q45.4062 -1.3125 41.2188 -1.3125
Q33.2969 -1.3125 26.8281 0.90625
Q20.3594 3.125 15.5781 7.85938
Q10.8906 12.5 8.25 19.6562
Q5.60938 26.8125 5.60938 36.2812
Q5.60938 45.2656 8.14062 52.3438
Q10.6875 59.4219 15.4844 64.3125
Q20.125 69.0469 26.6875 71.5312
Q33.25 74.0312 41.2656 74.0312
Q47.125 74.0312 52.9531 72.6094
Q58.7969 71.1875 65.9219 67.625
L65.9219 56.1562
L65.1875 56.1562
Q59.1875 61.1875 53.2656 63.4688
Q47.3594 65.7656 40.625 65.7656
Q35.1094 65.7656 30.6875 63.9844
Q26.2656 62.2031 22.7969 58.4531
Q19.4375 54.7812 17.5469 49.1875
Q15.6719 43.6094 15.6719 36.2812
Q15.6719 28.6094 17.75 23.0938
Q19.8281 17.5781 23.0938 14.1094
Q26.5156 10.5 31.0781 8.76562
Q35.6406 7.03125 40.7188 7.03125
Q47.7031 7.03125 53.7969 9.42188
Q59.9062 11.8125 65.2344 16.6094
L65.9219 16.6094
z
" id="Verdana-43"/>
     </defs>
     <g transform="translate(125.28 130.221)scale(0.144 -0.144)">
      <use xlink:href="#Verdana-43"/>
      <use x="69.82421875" xlink:href="#Verdana-75"/>
      <use x="133.10546875" xlink:href="#Verdana-63"/>
      <use x="185.205078125" xlink:href="#Verdana-6b"/>
      <use x="243.384765625" xlink:href="#Verdana-6f"/>
      <use x="304.078125" xlink:href="#Verdana-6f"/>
     </g>
    </g>
    <g id="line2d_38">
     <path d="
M89.28 146.221
L109.44 146.221" style="fill:none;stroke:#bf00bf;stroke-linecap:square;"/>
    </g>
    <g id="line2d_39"/>
    <g id="text_20">
     <!-- qABC -->
     <defs>
      <path d="
M53.2656 -20.125
L44.0938 -20.125
L44.0938 6.15625
Q39.8438 2.48438 35.6406 0.703125
Q31.4531 -1.07812 26.5625 -1.07812
Q16.8438 -1.07812 11.0625 6.42188
Q5.28125 13.9219 5.28125 27.0938
Q5.28125 34.125 7.29688 39.5156
Q9.32812 44.9219 12.6406 48.5781
Q15.875 52.1562 20.2188 54.1094
Q24.5625 56.0625 29.3906 56.0625
Q33.7969 56.0625 37.1875 55.0781
Q40.5781 54.1094 44.0938 52.2031
L44.6719 54.5469
L53.2656 54.5469
z

M44.0938 13.875
L44.0938 44.7344
Q40.2812 46.4375 37.3438 47.1094
Q34.4219 47.7969 31 47.7969
Q23.0469 47.7969 18.8906 42.4062
Q14.75 37.0156 14.75 27.5469
Q14.75 17.9688 18.0938 12.8125
Q21.4375 7.67188 28.6094 7.67188
Q32.625 7.67188 36.625 9.40625
Q40.625 11.1406 44.0938 13.875" id="Verdana-71"/>
     </defs>
     <g transform="translate(125.28 151.26075)scale(0.144 -0.144)">
      <use xlink:href="#Verdana-71"/>
      <use x="62.3046875" xlink:href="#Verdana-41"/>
      <use x="130.6640625" xlink:href="#Verdana-42"/>
      <use x="199.21875" xlink:href="#Verdana-43"/>
     </g>
    </g>
   </g>
  </g>
 </g>
 <defs>
  <clipPath id="p7ff5b81e1d">
   <rect height="345.6" width="446.4" x="72.0" y="43.2"/>
  </clipPath>
 </defs>
</svg>
