<?xml version="1.0" encoding="utf-8" standalone="no"?>
<!DOCTYPE svg PUBLIC "-//W3C//DTD SVG 1.1//EN"
  "http://www.w3.org/Graphics/SVG/1.1/DTD/svg11.dtd">
<!-- Created with matplotlib (http://matplotlib.org/) -->
<svg height="432pt" version="1.1" viewBox="0 0 576 432" width="576pt" xmlns="http://www.w3.org/2000/svg" xmlns:xlink="http://www.w3.org/1999/xlink">
 <defs>
  <style type="text/css">
*{stroke-linecap:butt;stroke-linejoin:round;}
  </style>
 </defs>
 <g id="figure_1">
  <g id="patch_1">
   <path d="
M0 432
L576 432
L576 0
L0 0
z
" style="fill:#ffffff;"/>
  </g>
  <g id="axes_1">
   <g id="patch_2">
    <path d="
M72 388.8
L518.4 388.8
L518.4 43.2
L72 43.2
z
" style="fill:#ffffff;"/>
   </g>
   <g id="line2d_1">
    <path clip-path="url(#p7ff5b81e1d)" d="
M72 388.8
L76.6426 388.8
L76.8211 43.2
L518.311 43.2
L518.311 43.2" style="fill:none;stroke:#0000ff;stroke-dasharray:6.000000,2.000000;stroke-dashoffset:0.0;"/>
   </g>
   <g id="line2d_2">
    <path clip-path="url(#p7ff5b81e1d)" d="
M72 388.8
L75.3034 388.8
L75.4819 388.14
L75.7498 388.14
L75.9283 388.8
L76.5533 388.8
L76.6426 388.14
L76.8211 388.8
L82.3565 388.8
L82.535 388.14
L82.9814 388.14
L83.2493 386.821
L84.1421 386.821
L84.4099 385.502
L84.5885 385.502
L85.0349 382.205
L85.2134 380.226
L85.4813 376.928
L85.5706 376.928
L85.7491 376.269
L85.8384 376.269
L86.1062 373.631
L86.4634 370.333
L86.6419 366.376
L86.7312 366.376
L86.9098 363.737
L87.4454 359.78
L88.249 343.292
L88.3382 343.292
L88.6061 340.653
L88.9632 334.718
L89.0525 334.058
L89.4989 319.548
L89.6774 318.229
L90.0346 303.06
L90.2131 299.102
L91.3738 266.125
L91.5523 264.806
L92.8022 221.936
L93.7843 198.192
L94.1414 184.342
L94.4093 175.768
L94.6771 164.556
L94.7664 163.896
L95.1235 157.301
L95.2128 156.641
L95.3914 152.024
L96.9091 119.047
L96.9984 119.047
L97.2662 112.452
L97.4448 110.473
L97.5341 110.473
L97.8912 107.176
L98.2483 100.58
L98.5162 97.942
L98.784 93.3252
L98.8733 93.3252
L99.409 86.0702
L99.4982 86.0702
L99.7661 83.4321
L100.748 75.5176
L100.927 73.5389
L101.016 73.5389
L101.373 71.5603
L101.462 71.5603
L102.177 66.9435
L102.266 66.9435
L102.444 64.9649
L102.712 62.3267
L103.516 62.3267
L103.694 61.6672
L103.962 61.6672
L104.141 60.3481
L104.587 57.7099
L104.676 57.7099
L104.944 56.3908
L105.391 56.3908
L105.659 55.0718
L106.641 55.0718
L106.998 53.0931
L107.355 53.0931
L107.623 51.774
L107.98 51.774
L108.158 51.1145
L108.516 51.1145
L108.694 50.455
L108.873 50.455
L109.051 49.7954
L109.587 49.7954
L109.765 49.1359
L110.301 49.1359
L110.569 47.8168
L110.926 47.8168
L111.105 47.1573
L111.283 47.1573
L111.462 46.4977
L112.176 46.4977
L112.355 45.8382
L114.319 45.8382
L114.497 45.1786
L114.587 45.1786
L114.765 44.5191
L115.39 44.5191
L115.569 43.8595
L120.747 43.8595
L120.925 43.2
L518.311 43.2
L518.311 43.2" style="fill:none;stroke:#008000;stroke-dasharray:1.000000,1.000000;stroke-dashoffset:0.0;"/>
   </g>
   <g id="line2d_3">
    <path clip-path="url(#p7ff5b81e1d)" d="
M72 388.8
L72.0893 388.401
L72.2678 388.8
L72.3571 388.8
L72.625 387.604
L72.8035 388.8
L73.9642 388.8
L74.232 388.003
L74.4106 388.003
L74.6784 387.206
L74.7677 387.206
L74.9462 386.807
L75.7498 386.807
L75.839 387.206
L76.0176 388.401
L76.6426 388.401
L76.8211 388.8
L101.462 388.8
L101.641 388.401
L114.319 388.401
L114.497 388.003
L114.587 388.003
L114.765 387.604
L114.944 387.604
L115.122 387.206
L120.122 387.206
L120.3 386.807
L120.479 386.807
L120.658 386.408
L128.336 386.408
L128.514 386.01
L129.675 386.01
L129.853 385.611
L130.657 385.611
L130.836 385.212
L131.014 385.212
L131.193 384.814
L131.907 384.814
L132.085 384.415
L133.871 384.415
L134.05 384.017
L134.139 384.017
L134.407 383.219
L134.496 383.219
L134.764 382.422
L135.121 382.422
L135.389 381.625
L136.103 381.625
L136.371 380.828
L136.907 380.828
L137.085 380.03
L138.335 380.03
L138.514 379.632
L139.406 379.632
L139.674 378.835
L139.853 378.835
L140.031 378.436
L140.299 378.436
L140.478 378.037
L141.192 378.037
L141.371 377.639
L141.817 377.639
L141.996 377.24
L142.263 377.24
L142.442 376.842
L142.799 376.842
L142.978 376.443
L143.513 376.443
L143.781 375.646
L144.317 375.646
L144.495 375.247
L144.674 375.247
L144.852 374.848
L145.21 374.848
L145.477 374.051
L146.727 374.051
L146.906 373.653
L147.084 373.653
L147.263 373.254
L147.352 373.254
L147.62 372.457
L148.245 372.457
L148.424 372.058
L148.513 372.058
L148.959 370.464
L149.852 370.464
L150.12 369.666
L150.656 369.666
L150.834 369.268
L150.924 369.268
L151.102 368.072
L151.638 368.072
L151.816 367.673
L152.084 367.673
L152.352 366.876
L152.62 366.876
L152.888 366.079
L153.066 366.079
L153.245 365.68
L153.602 365.68
L153.78 365.282
L154.048 365.282
L154.495 363.687
L154.584 363.687
L154.763 363.289
L154.852 363.289
L155.03 362.89
L155.209 362.89
L155.388 362.491
L155.834 362.491
L156.012 362.093
L156.102 362.093
L156.28 361.694
L156.37 361.694
L156.637 360.897
L157.173 360.897
L157.352 360.1
L157.53 359.701
L157.887 359.701
L158.155 358.904
L158.244 358.904
L158.512 358.107
L159.494 358.107
L159.762 357.309
L160.476 357.309
L160.655 356.512
L160.834 356.113
L161.012 356.113
L161.459 354.519
L161.637 354.519
L161.816 354.12
L161.905 354.12
L162.173 352.127
L162.262 352.127
L162.619 350.931
L162.887 350.931
L163.066 350.134
L163.244 350.134
L163.512 349.337
L163.869 349.337
L164.048 348.54
L164.137 348.54
L164.405 347.743
L164.762 347.743
L165.119 346.547
L165.208 346.547
L165.387 346.148
L165.476 346.148
L165.744 345.351
L166.101 345.351
L166.28 344.952
L166.369 344.952
L166.548 344.554
L166.637 344.554
L166.815 342.959
L166.994 342.561
L167.083 342.561
L167.262 342.162
L167.351 342.162
L167.53 341.365
L167.619 341.365
L167.887 340.567
L168.244 340.567
L168.78 338.574
L168.958 338.574
L169.137 337.379
L169.226 337.379
L169.583 336.183
L169.672 336.183
L169.851 335.784
L170.119 335.784
L170.297 335.385
L170.476 335.385
L170.654 334.588
L170.922 334.588
L171.101 334.19
L171.19 334.19
L171.458 333.392
L171.547 333.392
L171.726 332.994
L171.904 332.994
L172.351 331.399
L172.44 331.399
L172.797 330.203
L172.976 330.203
L173.154 329.008
L173.511 329.008
L173.779 328.21
L174.94 328.21
L175.208 327.413
L175.297 327.413
L175.565 325.819
L175.922 324.623
L176.19 324.623
L176.725 322.63
L176.815 322.63
L177.261 321.035
L177.44 321.035
L177.618 320.637
L177.797 320.637
L177.975 320.238
L178.065 320.238
L178.422 319.042
L178.6 319.042
L178.779 318.644
L178.957 318.644
L179.225 317.049
L179.493 315.455
L180.207 312.664
L180.654 312.664
L181.011 311.07
L181.279 308.678
L181.457 308.28
L181.725 308.28
L182.261 306.287
L182.707 306.287
L182.975 305.091
L183.154 303.098
L183.332 303.098
L183.511 302.3
L183.6 302.3
L183.957 301.104
L184.136 301.104
L184.314 300.706
L184.404 300.706
L184.582 299.111
L184.939 299.111
L185.475 297.118
L185.653 297.118
L186.011 295.922
L186.1 295.922
L186.278 295.524
L186.457 295.524
L186.814 293.132
L187.26 293.132
L187.528 291.538
L187.618 291.538
L187.885 290.74
L188.153 290.74
L188.332 289.943
L188.421 289.943
L188.6 289.545
L188.689 289.545
L188.957 288.747
L189.046 288.747
L189.225 288.349
L189.314 288.349
L190.028 285.558
L190.117 285.558
L190.296 284.761
L190.475 284.761
L190.832 283.565
L190.921 283.565
L191.189 282.768
L191.367 282.768
L191.546 282.37
L191.635 282.37
L192.26 279.978
L192.349 279.978
L192.528 279.181
L192.707 279.181
L193.153 277.586
L193.332 277.586
L193.599 275.992
L194.403 272.803
L194.76 272.803
L194.939 272.404
L195.206 272.404
L195.385 271.607
L195.653 268.817
L195.921 268.817
L196.099 268.418
L196.278 268.418
L196.546 267.621
L196.635 267.621
L196.903 266.824
L197.171 266.824
L197.528 265.628
L197.706 265.628
L197.885 265.229
L197.974 265.229
L198.153 264.033
L198.42 264.033
L198.956 261.243
L199.403 258.054
L199.67 258.054
L199.849 256.46
L199.938 256.46
L200.206 255.662
L200.385 255.662
L200.742 254.466
L200.92 252.473
L201.01 252.473
L201.188 251.278
L201.277 251.278
L201.635 250.082
L201.813 250.082
L201.992 249.284
L202.706 246.494
L202.795 246.494
L203.063 244.9
L203.42 244.9
L203.599 244.501
L204.134 244.501
L204.402 243.704
L204.492 243.704
L204.67 243.305
L204.759 243.305
L204.938 242.907
L205.116 242.907
L205.474 241.711
L205.563 241.711
L205.741 241.312
L205.831 241.312
L206.009 240.913
L206.099 240.913
L206.545 239.319
L206.724 239.319
L207.438 236.529
L207.706 236.529
L207.884 234.934
L208.063 234.934
L208.509 232.941
L208.688 231.745
L208.866 230.948
L209.402 230.948
L209.58 230.549
L209.938 230.549
L210.205 229.752
L210.473 229.752
L210.652 227.759
L210.741 227.759
L211.098 226.563
L211.277 226.563
L211.455 225.367
L211.634 225.367
L211.902 224.57
L212.259 224.57
L212.527 223.773
L212.973 223.773
L213.509 221.78
L213.598 221.78
L214.134 219.787
L214.223 219.787
L214.759 217.794
L214.848 217.794
L214.937 217.395
L215.116 216.199
L215.473 215.003
L215.741 215.003
L216.098 213.808
L216.366 213.808
L216.544 213.409
L216.723 213.409
L216.901 213.01
L216.991 213.01
L217.437 211.416
L217.526 211.416
L217.705 210.22
L217.884 210.22
L218.241 209.024
L218.33 209.024
L218.687 206.633
L219.044 204.639
L219.312 202.646
L219.491 202.646
L219.669 202.248
L219.758 202.248
L220.026 201.451
L220.116 201.451
L220.383 199.856
L220.919 197.863
L221.098 197.863
L221.276 197.464
L221.365 197.464
L221.544 197.066
L221.812 197.066
L221.99 195.87
L222.08 195.87
L222.258 195.073
L222.437 193.877
L222.615 192.681
L222.883 191.884
L222.972 191.884
L223.151 191.485
L223.24 191.485
L223.508 190.688
L223.687 190.688
L223.865 190.289
L223.955 190.289
L224.133 189.891
L224.222 189.891
L224.401 188.695
L224.669 188.695
L224.847 187.898
L224.937 187.898
L225.115 187.1
L225.383 187.1
L225.562 185.904
L225.74 185.107
L226.454 182.317
L226.722 182.317
L227.169 180.722
L227.258 180.722
L227.347 180.324
L227.526 178.729
L227.883 177.534
L227.972 177.534
L228.151 176.736
L228.329 176.338
L228.776 176.338
L228.954 175.142
L229.044 175.142
L229.401 172.75
L229.758 172.75
L229.936 172.352
L230.204 172.352
L230.472 171.554
L230.74 171.554
L231.276 169.561
L231.365 169.561
L231.99 167.17
L232.079 167.17
L232.258 166.771
L232.436 166.771
L233.24 163.582
L233.597 163.582
L234.222 161.19
L234.4 161.19
L234.579 159.994
L234.668 159.994
L235.293 157.603
L235.382 157.603
L236.186 154.414
L236.364 154.414
L236.632 153.617
L236.722 153.617
L236.9 153.218
L236.989 153.218
L237.168 152.819
L237.257 152.819
L237.436 152.421
L237.525 152.421
L237.704 152.022
L237.793 152.022
L238.061 151.225
L238.15 151.225
L238.686 149.232
L238.775 149.232
L238.954 148.833
L239.132 148.833
L239.4 148.036
L239.936 148.036
L240.114 147.239
L240.293 146.84
L240.471 146.84
L241.007 144.847
L241.186 144.847
L241.364 144.448
L241.543 144.448
L241.721 143.651
L241.9 143.651
L242.703 140.462
L243.328 140.462
L243.775 138.868
L244.221 138.868
L244.4 138.071
L244.578 138.071
L244.757 137.273
L245.114 137.273
L245.382 136.476
L245.471 136.476
L246.185 133.686
L246.453 133.686
L246.632 132.889
L246.81 132.49
L246.989 132.49
L247.614 130.098
L248.06 130.098
L248.239 129.7
L248.417 129.7
L248.596 129.301
L248.685 129.301
L249.042 128.105
L249.132 128.105
L249.31 127.707
L249.578 127.707
L249.756 127.308
L250.024 127.308
L250.203 126.909
L250.471 126.909
L250.917 123.322
L251.006 123.322
L251.542 121.329
L251.631 121.329
L251.81 120.93
L251.899 120.93
L252.078 120.531
L252.435 120.531
L252.613 120.133
L252.971 120.133
L253.149 119.734
L253.238 119.734
L253.417 119.336
L253.774 119.336
L253.953 118.937
L254.22 118.937
L255.024 115.748
L255.113 115.748
L255.381 114.951
L255.47 114.951
L255.649 114.552
L255.738 114.552
L255.917 114.154
L256.006 114.154
L256.185 113.755
L256.631 113.755
L256.988 112.559
L257.345 112.559
L257.524 112.161
L257.613 112.161
L257.792 111.363
L257.97 109.37
L258.149 109.37
L258.327 108.174
L259.399 108.174
L259.845 106.58
L260.649 106.58
L260.827 106.181
L261.184 106.181
L261.363 104.985
L261.631 104.188
L261.72 104.188
L262.166 102.594
L262.345 102.594
L262.434 102.195
L262.524 102.594
L262.613 102.195
L262.791 100.601
L263.506 97.8104
L263.595 97.8104
L263.863 96.2159
L263.952 96.2159
L264.22 95.4187
L264.577 95.4187
L265.202 93.027
L265.47 93.027
L265.648 92.6284
L266.005 92.6284
L266.184 92.2298
L266.452 92.2298
L266.72 91.4325
L266.898 91.4325
L267.345 89.8381
L267.434 89.8381
L267.612 88.6422
L267.88 88.6422
L268.059 88.2436
L268.327 88.2436
L268.505 87.845
L269.398 87.845
L269.577 87.4464
L270.023 87.4464
L270.291 86.6491
L270.648 86.6491
L270.916 85.8519
L271.184 85.8519
L271.452 85.0547
L271.719 85.0547
L271.898 84.2574
L272.076 83.8588
L272.255 83.8588
L272.791 81.8657
L273.059 81.8657
L273.237 81.4671
L273.684 81.4671
L273.862 80.6699
L274.13 79.8727
L274.666 79.8727
L274.844 79.474
L275.737 79.474
L275.916 78.2782
L276.362 78.2782
L276.54 77.8796
L277.076 77.8796
L277.255 77.481
L277.433 77.481
L277.88 75.8865
L277.969 75.8865
L278.148 75.4879
L279.13 75.4879
L279.308 74.6907
L279.487 74.6907
L279.755 73.8934
L279.844 73.8934
L280.022 73.4948
L280.737 73.4948
L280.915 73.0962
L282.701 73.0962
L282.879 72.6976
L282.969 72.6976
L283.594 70.3059
L284.933 70.3059
L285.111 69.5087
L285.29 69.11
L286.54 69.11
L286.718 68.7114
L287.343 68.7114
L287.522 68.3128
L287.879 68.3128
L288.147 67.5156
L288.504 67.5156
L288.683 67.117
L289.754 67.117
L290.022 66.3197
L290.736 66.3197
L291.093 65.1239
L291.361 65.1239
L291.54 64.7253
L291.629 64.7253
L291.807 64.3266
L292.164 64.3266
L292.343 63.928
L292.789 63.928
L292.968 63.5294
L293.325 63.5294
L293.504 62.3336
L294.486 62.3336
L294.664 61.9349
L295.379 61.9349
L295.557 61.5363
L297.343 61.5363
L297.521 61.1377
L297.611 61.1377
L297.789 60.7391
L298.057 60.7391
L298.236 59.9419
L298.682 59.9419
L298.86 59.5433
L299.843 59.5433
L300.021 59.1446
L300.378 59.1446
L300.557 58.746
L300.646 58.746
L300.914 57.9488
L302.075 57.9488
L302.342 57.1516
L303.592 57.1516
L303.771 56.7529
L304.307 56.7529
L304.664 55.5571
L304.932 55.5571
L305.11 55.1585
L306.806 55.1585
L307.074 54.3612
L307.878 54.3612
L308.056 53.9626
L308.86 53.9626
L309.038 53.564
L310.02 53.564
L310.199 53.1654
L310.467 53.1654
L310.645 52.7668
L314.842 52.7668
L315.109 51.9696
L315.199 51.9696
L315.467 51.1723
L315.824 51.1723
L316.002 49.9765
L317.341 49.9765
L317.52 49.5779
L318.413 49.5779
L318.591 49.1792
L323.234 49.1792
L323.412 48.7806
L326.18 48.7806
L326.359 48.382
L332.608 48.382
L332.876 47.5848
L338.858 47.5848
L339.036 47.1862
L340.019 47.1862
L340.197 46.7875
L347.25 46.7875
L347.429 46.3889
L350.286 46.3889
L350.464 45.9903
L354.303 45.9903
L354.482 45.5917
L359.749 45.5917
L359.928 45.1931
L360.285 45.1931
L360.464 44.7945
L361.446 44.7945
L361.624 44.3958
L362.249 44.3958
L362.428 43.9972
L369.035 43.9972
L369.213 43.5986
L376.98 43.5986
L377.159 43.2
L518.311 43.2
L518.311 43.2" style="fill:none;stroke:#ff0000;stroke-dasharray:3.000000,6.000000;stroke-dashoffset:0.0;"/>
   </g>
   <g id="line2d_4">
    <path clip-path="url(#p7ff5b81e1d)" d="
M72 388.8
L72.0893 388.393
L72.2678 388.597
L75.5712 388.597
L75.6605 388.393
L75.839 387.58
L76.0176 388.19
L76.1962 388.19
L76.6426 387.174
L76.8211 388.8
L93.6058 388.8
L93.7843 388.597
L97.5341 388.597
L97.7126 388.393
L98.159 388.393
L98.3376 388.19
L101.373 388.19
L101.552 387.987
L108.158 387.987
L108.337 387.784
L111.194 387.784
L111.372 387.58
L112.265 387.58
L112.444 387.377
L115.836 387.377
L116.104 386.97
L116.372 386.97
L116.551 386.767
L118.336 386.767
L118.515 386.564
L119.854 386.564
L120.122 386.157
L122.265 386.157
L122.443 385.954
L125.568 385.954
L125.747 385.751
L125.836 385.751
L126.014 385.547
L126.55 385.547
L126.729 385.141
L129.05 385.141
L129.228 384.937
L129.764 384.937
L130.211 384.124
L130.3 384.124
L130.568 383.718
L130.746 383.718
L130.925 383.514
L132.085 383.514
L132.264 383.311
L132.889 383.311
L133.068 383.108
L133.335 383.108
L133.96 381.888
L134.05 381.888
L134.228 381.685
L134.317 381.685
L134.496 381.278
L136.282 381.278
L136.639 380.058
L136.728 379.855
L136.996 378.635
L137.174 378.635
L137.889 377.212
L139.853 377.212
L140.388 375.789
L140.746 374.569
L141.638 372.74
L143.335 372.74
L143.603 371.52
L143.781 370.097
L143.87 369.894
L144.138 368.674
L144.228 368.674
L144.406 368.064
L144.852 366.844
L145.031 366.234
L146.638 366.234
L146.817 366.031
L146.995 366.031
L147.174 365.015
L147.263 365.015
L147.531 364.201
L147.888 363.388
L148.067 362.575
L148.424 361.559
L148.602 360.745
L148.781 360.339
L150.566 360.339
L150.745 359.322
L150.924 358.916
L151.191 357.289
L151.281 357.289
L151.459 356.883
L151.638 356.273
L151.906 354.85
L152.263 352.614
L153.066 352.614
L153.245 352.207
L153.423 352.004
L154.048 352.004
L154.227 351.394
L154.405 349.971
L154.673 349.361
L155.209 346.312
L155.655 345.092
L155.923 344.075
L156.459 344.075
L156.637 343.872
L157.62 343.872
L157.977 341.839
L158.155 341.229
L158.512 340.009
L158.691 339.603
L158.869 337.976
L158.959 337.976
L159.137 337.163
L159.316 336.553
L159.494 336.147
L161.191 336.147
L161.459 335.13
L161.548 335.13
L161.905 333.301
L162.53 330.048
L163.066 326.795
L163.869 326.795
L164.048 326.592
L164.762 326.592
L164.851 326.389
L165.387 322.526
L165.565 321.51
L165.923 319.273
L166.101 318.867
L166.637 315.614
L167.083 315.614
L167.351 315.208
L168.333 315.208
L168.958 311.955
L169.315 309.922
L169.583 309.109
L170.119 305.246
L170.387 304.84
L170.654 304.84
L170.833 304.636
L171.279 304.636
L171.458 304.433
L171.904 304.433
L172.529 298.537
L172.619 298.334
L173.779 291.016
L175.476 291.016
L175.654 288.779
L175.743 288.779
L176.011 284.51
L176.1 284.104
L176.368 280.851
L176.725 278.818
L176.993 277.598
L177.172 277.192
L177.35 276.378
L177.886 276.378
L178.065 276.175
L179.047 276.175
L179.136 275.972
L179.672 271.906
L179.94 268.653
L180.207 267.23
L180.475 265.4
L180.564 265.197
L180.832 262.961
L181.011 262.758
L181.189 262.758
L181.368 262.351
L182.618 262.351
L182.886 260.318
L183.064 259.708
L183.6 255.642
L183.689 255.439
L184.493 247.511
L184.85 247.511
L185.028 247.307
L185.564 247.307
L185.832 246.901
L186.189 246.901
L186.546 243.851
L186.993 239.176
L187.975 229.214
L188.778 229.214
L188.957 229.011
L189.314 229.011
L189.492 228.808
L189.76 228.808
L190.385 224.132
L190.921 219.253
L191.1 218.643
L191.457 215.187
L191.635 214.984
L191.903 214.984
L192.082 214.78
L192.26 214.78
L192.439 214.577
L192.796 214.577
L192.974 214.17
L193.332 214.17
L193.421 213.764
L193.778 210.308
L193.867 210.308
L194.314 205.225
L194.671 202.176
L195.117 198.11
L195.921 198.11
L196.099 197.907
L196.546 197.907
L196.724 197.704
L196.903 197.907
L197.081 195.874
L197.438 194.451
L197.528 194.451
L198.153 190.588
L198.599 189.572
L198.778 188.555
L199.224 188.555
L199.403 188.352
L200.117 188.352
L200.385 187.945
L200.474 187.945
L200.831 184.489
L201.456 179.407
L201.545 179.407
L201.992 175.951
L202.081 175.748
L202.26 174.731
L202.349 174.731
L202.527 174.528
L204.045 174.528
L204.938 167.209
L205.027 166.803
L205.206 164.973
L205.384 164.567
L205.831 161.924
L207.17 161.924
L207.348 162.33
L207.527 162.33
L207.706 161.72
L208.063 158.671
L208.331 156.638
L208.777 153.792
L208.866 153.792
L209.045 152.776
L209.134 152.572
L209.402 149.929
L210.652 149.929
L210.83 149.726
L211.098 149.726
L211.188 149.523
L211.455 147.49
L212.08 143.831
L212.259 143.424
L212.348 143.221
L212.527 142.001
L212.884 140.984
L213.062 139.968
L213.241 139.765
L214.402 139.765
L214.58 139.561
L214.669 139.561
L214.759 139.358
L214.937 138.342
L215.027 138.138
L215.294 135.902
L215.384 135.496
L215.741 132.243
L215.83 132.04
L216.098 130.616
L216.276 129.397
L216.544 126.347
L217.08 126.347
L217.259 126.144
L217.616 126.144
L217.884 125.737
L218.241 125.737
L218.419 125.128
L218.776 123.095
L219.044 121.468
L219.669 119.029
L220.026 118.012
L220.205 117.199
L221.633 117.199
L221.812 116.996
L221.99 116.996
L222.348 114.556
L222.437 114.15
L222.705 112.117
L222.883 112.117
L223.33 108.457
L223.508 107.644
L223.597 107.238
L223.776 105.815
L225.472 105.815
L225.651 105.408
L225.829 104.798
L226.097 102.968
L226.454 102.155
L226.722 100.732
L226.99 100.122
L227.258 98.496
L227.615 98.496
L227.883 98.0894
L228.151 98.0894
L228.419 97.6828
L229.044 97.6828
L229.133 97.4795
L229.401 96.0565
L229.49 96.0565
L229.579 95.8532
L229.758 94.6334
L230.115 93.6169
L230.383 92.3972
L230.561 91.9906
L230.74 91.3807
L231.186 91.3807
L231.365 91.1774
L232.615 91.1774
L232.883 89.7544
L232.972 89.5511
L233.24 87.9247
L233.508 87.9247
L233.686 87.5181
L233.775 87.3148
L234.132 85.4852
L234.311 84.8753
L234.49 84.2654
L236.186 84.2654
L236.722 82.2325
L236.811 82.2325
L237.525 79.3864
L238.239 77.9633
L239.668 77.9633
L240.65 75.7271
L240.828 74.9139
L241.186 74.304
L241.275 74.304
L241.632 73.6941
L243.418 73.6941
L243.953 72.2711
L244.31 70.4414
L244.4 70.4414
L244.668 70.0348
L244.757 70.0348
L244.935 69.8315
L245.292 69.8315
L245.471 69.6282
L246.096 69.6282
L246.275 69.4249
L246.9 69.4249
L247.257 68.6118
L247.435 68.0019
L247.971 66.9854
L248.06 66.9854
L248.864 65.3591
L249.399 65.3591
L249.578 65.1558
L250.114 65.1558
L250.292 64.9525
L250.739 64.9525
L251.096 63.936
L251.274 62.5129
L251.631 62.5129
L251.81 62.3096
L252.078 62.3096
L252.256 61.4965
L252.435 61.4965
L252.613 61.2932
L252.971 61.2932
L253.149 61.0899
L254.042 61.0899
L254.22 60.8866
L254.488 59.4635
L254.578 59.2602
L254.667 59.6668
L254.845 59.4635
L255.113 59.4635
L255.381 59.0569
L255.649 59.0569
L255.738 58.8536
L255.917 58.2438
L256.452 58.2438
L256.631 58.0405
L257.345 58.0405
L257.524 57.8372
L257.613 57.8372
L257.792 57.6339
L257.881 57.6339
L258.06 57.2273
L258.327 56.8207
L258.506 56.8207
L258.774 56.4141
L259.042 56.4141
L259.309 56.0075
L261.363 56.0075
L261.631 55.6009
L261.809 55.6009
L262.345 54.5845
L262.702 54.5845
L262.881 54.3812
L264.756 54.3812
L265.023 53.568
L265.113 53.568
L265.291 52.9581
L265.738 52.9581
L266.095 52.3482
L266.273 52.3482
L266.452 51.9416
L267.255 51.9416
L267.434 51.7384
L268.416 51.7384
L268.595 51.5351
L269.041 51.5351
L269.22 51.1285
L269.487 51.1285
L269.666 50.9252
L270.023 50.9252
L270.202 50.5186
L271.63 50.5186
L271.809 50.3153
L271.898 50.3153
L272.076 50.112
L272.255 50.112
L272.434 49.5021
L272.701 49.5021
L272.969 49.0955
L273.416 49.0955
L273.594 48.8922
L275.201 48.8922
L275.38 48.6889
L275.469 48.6889
L275.737 48.2824
L275.826 48.2824
L276.094 47.8758
L279.308 47.8758
L279.487 47.6725
L280.022 47.6725
L280.201 47.2659
L282.612 47.2659
L282.79 47.0626
L283.326 47.0626
L283.504 46.8593
L283.594 46.8593
L283.772 46.656
L284.308 46.656
L284.486 46.4527
L286.451 46.4527
L286.629 46.2494
L287.254 46.2494
L287.522 45.8428
L290.379 45.8428
L290.557 45.4362
L294.664 45.4362
L294.843 45.2329
L297.075 45.2329
L297.253 45.0296
L298.414 45.0296
L298.593 44.8264
L301.003 44.8264
L301.182 44.6231
L304.039 44.6231
L304.217 44.4198
L304.574 44.4198
L304.753 44.2165
L304.932 44.2165
L305.11 44.0132
L305.556 44.0132
L305.735 43.8099
L315.824 43.8099
L316.002 43.6066
L318.681 43.6066
L318.859 43.4033
L323.591 43.4033
L323.77 43.2
L518.311 43.2
L518.311 43.2" style="fill:none;stroke:#00bfbf;stroke-dasharray:5.000000,1.000000,2.000000,1.000000,5.000000,1.000000;stroke-dashoffset:0.0;"/>
   </g>
   <g id="line2d_5">
    <path clip-path="url(#p7ff5b81e1d)" d="
M72 388.603
L72.0893 388.011
L72.2678 388.405
L72.5357 388.405
L72.625 388.208
L72.8035 388.603
L75.6605 388.603
L75.839 388.405
L76.0176 388.8
L76.1962 388.603
L76.5533 388.603
L76.6426 388.208
L76.8211 388.8
L83.16 388.8
L83.3386 388.603
L86.1955 388.603
L86.6419 387.813
L87.0883 387.813
L87.2669 387.418
L87.8026 386.234
L87.9811 385.445
L88.6954 385.445
L88.8739 385.247
L89.7667 385.247
L90.0346 383.866
L90.1238 383.866
L90.3917 382.681
L90.6595 382.089
L91.0166 380.116
L91.1952 378.339
L91.5523 376.168
L92.088 376.168
L92.3558 375.773
L92.4451 375.773
L92.6237 375.576
L92.713 375.576
L92.8915 375.379
L92.9808 375.379
L93.2486 374.984
L93.3379 374.984
L93.4272 374.787
L93.695 371.826
L93.7843 371.826
L93.8736 371.431
L94.6771 361.563
L95.1235 354.26
L95.6592 353.273
L95.8378 353.273
L96.0163 353.075
L96.1056 353.075
L96.3734 352.681
L96.4627 352.681
L96.7306 352.286
L96.8198 352.286
L96.9091 352.089
L97.0877 349.325
L97.4448 342.615
L97.8019 336.496
L98.2483 326.035
L98.6054 318.93
L98.784 316.759
L98.8733 316.759
L99.2304 316.167
L99.3197 316.167
L99.4982 315.969
L99.6768 315.969
L99.8554 315.575
L100.034 315.377
L100.212 315.377
L100.48 314.785
L101.641 290.903
L102.177 272.942
L102.355 271.758
L102.623 271.363
L102.712 271.363
L102.98 270.968
L103.873 270.968
L104.052 270.574
L104.498 256.758
L105.48 230.704
L105.837 217.678
L106.373 216.691
L106.551 216.691
L106.73 216.296
L106.819 216.099
L106.908 216.691
L107.087 216.296
L107.444 215.704
L107.533 215.704
L107.623 215.507
L108.158 198.138
L108.426 192.019
L109.14 174.256
L109.498 168.334
L109.587 168.334
L109.855 167.94
L110.123 167.94
L110.39 167.545
L110.569 167.545
L110.837 166.755
L111.194 166.755
L111.908 148.795
L112.355 139.123
L113.158 125.307
L113.247 125.307
L113.426 125.11
L113.604 125.11
L113.783 124.912
L114.765 124.912
L115.747 106.951
L115.836 106.557
L116.372 101.82
L116.461 101.425
L116.64 99.846
L116.819 99.6487
L117.086 99.6487
L117.265 99.4513
L117.354 99.4513
L117.622 99.0565
L118.068 99.0565
L118.336 98.4644
L119.14 87.4115
L119.229 86.8194
L119.586 82.6746
L120.122 77.5429
L120.3 77.3455
L120.747 77.3455
L120.925 77.5429
L121.104 77.3455
L121.193 77.3455
L121.461 76.9508
L121.908 76.9508
L123.068 67.0821
L123.157 67.2795
L123.336 66.0953
L123.872 62.9373
L123.961 62.9373
L124.14 62.7399
L124.586 62.7399
L124.764 62.5425
L125.568 62.5425
L126.104 58.3977
L126.55 57.2135
L126.729 56.6214
L126.818 56.6214
L126.996 55.6345
L127.086 55.6345
L127.264 55.2397
L127.979 55.2397
L128.157 55.0424
L128.246 55.0424
L128.514 54.6476
L128.693 54.6476
L128.871 54.4503
L129.05 54.4503
L129.139 54.2529
L129.496 52.4765
L129.586 52.4765
L130.032 51.687
L130.121 51.687
L130.657 50.7002
L130.746 50.7002
L130.925 50.5028
L132.621 50.5028
L132.978 49.9107
L133.246 49.9107
L133.603 48.7264
L134.139 48.7264
L134.317 48.5291
L134.407 48.5291
L134.585 48.3317
L135.3 48.3317
L135.567 47.937
L136.192 47.937
L136.46 47.5422
L136.817 47.5422
L137.174 46.9501
L137.799 46.9501
L137.978 46.7527
L140.031 46.7527
L140.21 46.5553
L140.299 46.5553
L140.478 46.358
L140.656 46.358
L140.835 46.1606
L140.924 46.1606
L141.103 45.7658
L141.281 45.1737
L141.549 44.779
L143.424 44.779
L143.603 44.5816
L143.96 44.5816
L144.138 44.3842
L147.799 44.3842
L148.067 43.9895
L148.959 43.9895
L149.138 43.7921
L151.638 43.7921
L151.816 43.5947
L161.369 43.5947
L161.548 43.3974
L161.637 43.3974
L161.816 43.2
L518.311 43.2
L518.311 43.2" style="fill:none;stroke:#bf00bf;stroke-linecap:square;"/>
   </g>
   <g id="matplotlib.axis_1">
    <g id="xtick_1">
     <g id="line2d_6">
      <defs>
       <path d="
M0 0
L0 -4" id="mc7db9fdffb" style="stroke:#000000;stroke-width:0.5;"/>
      </defs>
      <g>
       <use style="stroke:#000000;stroke-width:0.5;" x="72.0" xlink:href="#mc7db9fdffb" y="388.8"/>
      </g>
     </g>
     <g id="line2d_7">
      <defs>
       <path d="
M0 0
L0 4" id="m5a7d422ac3" style="stroke:#000000;stroke-width:0.5;"/>
      </defs>
      <g>
       <use style="stroke:#000000;stroke-width:0.5;" x="72.0" xlink:href="#m5a7d422ac3" y="43.2"/>
      </g>
     </g>
     <g id="text_1">
      <!-- 0 -->
      <defs>
       <path d="
M56.9844 36.375
Q56.9844 16.7969 50.8594 7.64062
Q44.7344 -1.51562 31.8438 -1.51562
Q18.75 -1.51562 12.7188 7.76562
Q6.6875 17.0469 6.6875 36.2812
Q6.6875 55.6719 12.7812 64.9219
Q18.8906 74.1719 31.8438 74.1719
Q44.9219 74.1719 50.9531 64.7656
Q56.9844 55.375 56.9844 36.375
M44.1406 14.2031
Q45.8438 18.1719 46.4531 23.5156
Q47.0781 28.8594 47.0781 36.375
Q47.0781 43.7969 46.4531 49.2656
Q45.8438 54.7344 44.0938 58.5469
Q42.3906 62.3125 39.4219 64.2031
Q36.4688 66.1094 31.8438 66.1094
Q27.25 66.1094 24.2344 64.2031
Q21.2344 62.3125 19.4844 58.4531
Q17.8281 54.8281 17.2188 49.0156
Q16.6094 43.2188 16.6094 36.2812
Q16.6094 28.6562 17.1406 23.5312
Q17.6719 18.4062 19.4375 14.3594
Q21.0469 10.5469 24 8.54688
Q26.9531 6.54688 31.8438 6.54688
Q36.4219 6.54688 39.4531 8.45312
Q42.4844 10.3594 44.1406 14.2031" id="Verdana-30"/>
      </defs>
      <g transform="translate(68.9821875 401.918125)scale(0.12 -0.12)">
       <use xlink:href="#Verdana-30"/>
      </g>
     </g>
    </g>
    <g id="xtick_2">
     <g id="line2d_8">
      <g>
       <use style="stroke:#000000;stroke-width:0.5;" x="161.28" xlink:href="#mc7db9fdffb" y="388.8"/>
      </g>
     </g>
     <g id="line2d_9">
      <g>
       <use style="stroke:#000000;stroke-width:0.5;" x="161.28" xlink:href="#m5a7d422ac3" y="43.2"/>
      </g>
     </g>
     <g id="text_2">
      <!-- 1000 -->
      <defs>
       <path d="
M52.9375 0
L13.5781 0
L13.5781 7.42188
L28.7188 7.42188
L28.7188 56.1562
L13.5781 56.1562
L13.5781 62.7969
Q16.6562 62.7969 20.1719 63.2969
Q23.6875 63.8125 25.4844 64.7969
Q27.7344 66.0156 29.0312 67.8906
Q30.3281 69.7812 30.5156 72.9531
L38.0938 72.9531
L38.0938 7.42188
L52.9375 7.42188
z
" id="Verdana-31"/>
      </defs>
      <g transform="translate(147.2315625 401.918125)scale(0.12 -0.12)">
       <use xlink:href="#Verdana-31"/>
       <use x="63.57421875" xlink:href="#Verdana-30"/>
       <use x="127.1484375" xlink:href="#Verdana-30"/>
       <use x="190.72265625" xlink:href="#Verdana-30"/>
      </g>
     </g>
    </g>
    <g id="xtick_3">
     <g id="line2d_10">
      <g>
       <use style="stroke:#000000;stroke-width:0.5;" x="250.56" xlink:href="#mc7db9fdffb" y="388.8"/>
      </g>
     </g>
     <g id="line2d_11">
      <g>
       <use style="stroke:#000000;stroke-width:0.5;" x="250.56" xlink:href="#m5a7d422ac3" y="43.2"/>
      </g>
     </g>
     <g id="text_3">
      <!-- 2000 -->
      <defs>
       <path d="
M57.0781 0
L7.85938 0
L7.85938 10.2031
Q12.9844 14.5938 18.1406 18.9844
Q23.2969 23.3906 27.7344 27.7344
Q37.1094 36.8125 40.5781 42.1562
Q44.0469 47.5156 44.0469 53.7188
Q44.0469 59.375 40.3125 62.5625
Q36.5781 65.7656 29.8906 65.7656
Q25.4375 65.7656 20.2656 64.2031
Q15.0938 62.6406 10.1562 59.4219
L9.67188 59.4219
L9.67188 69.6719
Q13.1406 71.3906 18.9219 72.7969
Q24.7031 74.2188 30.125 74.2188
Q41.3125 74.2188 47.6562 68.8125
Q54 63.4219 54 54.2031
Q54 50.0469 52.9531 46.4531
Q51.9062 42.875 49.8594 39.6562
Q47.9531 36.625 45.3906 33.6875
Q42.8281 30.7656 39.1562 27.2031
Q33.9375 22.0781 28.3594 17.2656
Q22.7969 12.4531 17.9688 8.34375
L57.0781 8.34375
z
" id="Verdana-32"/>
      </defs>
      <g transform="translate(236.1684375 401.918125)scale(0.12 -0.12)">
       <use xlink:href="#Verdana-32"/>
       <use x="63.57421875" xlink:href="#Verdana-30"/>
       <use x="127.1484375" xlink:href="#Verdana-30"/>
       <use x="190.72265625" xlink:href="#Verdana-30"/>
      </g>
     </g>
    </g>
    <g id="xtick_4">
     <g id="line2d_12">
      <g>
       <use style="stroke:#000000;stroke-width:0.5;" x="339.84" xlink:href="#mc7db9fdffb" y="388.8"/>
      </g>
     </g>
     <g id="line2d_13">
      <g>
       <use style="stroke:#000000;stroke-width:0.5;" x="339.84" xlink:href="#m5a7d422ac3" y="43.2"/>
      </g>
     </g>
     <g id="text_4">
      <!-- 3000 -->
      <defs>
       <path d="
M50.6875 35.0156
Q53.0312 32.9062 54.5469 29.7344
Q56.0625 26.5625 56.0625 21.5312
Q56.0625 16.5469 54.25 12.3906
Q52.4375 8.25 49.1719 5.17188
Q45.5156 1.76562 40.5469 0.125
Q35.5938 -1.51562 29.6875 -1.51562
Q23.6406 -1.51562 17.7812 -0.0625
Q11.9219 1.375 8.15625 3.07812
L8.15625 13.2812
L8.89062 13.2812
Q13.0312 10.5469 18.6406 8.73438
Q24.2656 6.9375 29.5 6.9375
Q32.5625 6.9375 36.0312 7.95312
Q39.5 8.98438 41.6562 10.9844
Q43.8906 13.1406 44.9844 15.7188
Q46.0938 18.3125 46.0938 22.2656
Q46.0938 26.1719 44.8438 28.7344
Q43.6094 31.2969 41.4062 32.7656
Q39.2031 34.2812 36.0781 34.8438
Q32.9531 35.4062 29.3438 35.4062
L24.9531 35.4062
L24.9531 43.5
L28.375 43.5
Q35.7969 43.5 40.2031 46.5938
Q44.625 49.7031 44.625 55.6719
Q44.625 58.2969 43.5 60.2656
Q42.3906 62.25 40.375 63.5312
Q38.2812 64.7969 35.8906 65.2812
Q33.5 65.7656 30.4688 65.7656
Q25.8281 65.7656 20.5938 64.1094
Q15.375 62.4531 10.75 59.4219
L10.25 59.4219
L10.25 69.625
Q13.7188 71.3438 19.5 72.7812
Q25.2969 74.2188 30.7188 74.2188
Q36.0312 74.2188 40.0781 73.2344
Q44.1406 72.2656 47.4062 70.125
Q50.9219 67.7812 52.7344 64.4531
Q54.5469 61.1406 54.5469 56.6875
Q54.5469 50.6406 50.2656 46.125
Q46 41.6094 40.1875 40.4375
L40.1875 39.75
Q42.5312 39.3594 45.5469 38.1094
Q48.5781 36.8594 50.6875 35.0156" id="Verdana-33"/>
      </defs>
      <g transform="translate(325.46625 401.918125)scale(0.12 -0.12)">
       <use xlink:href="#Verdana-33"/>
       <use x="63.57421875" xlink:href="#Verdana-30"/>
       <use x="127.1484375" xlink:href="#Verdana-30"/>
       <use x="190.72265625" xlink:href="#Verdana-30"/>
      </g>
     </g>
    </g>
    <g id="xtick_5">
     <g id="line2d_14">
      <g>
       <use style="stroke:#000000;stroke-width:0.5;" x="429.12" xlink:href="#mc7db9fdffb" y="388.8"/>
      </g>
     </g>
     <g id="line2d_15">
      <g>
       <use style="stroke:#000000;stroke-width:0.5;" x="429.12" xlink:href="#m5a7d422ac3" y="43.2"/>
      </g>
     </g>
     <g id="text_5">
      <!-- 4000 -->
      <defs>
       <path d="
M58.7344 20.4531
L47.9531 20.4531
L47.9531 0
L38.5781 0
L38.5781 20.4531
L3.76562 20.4531
L3.76562 31.6875
L38.9688 72.7031
L47.9531 72.7031
L47.9531 28.2656
L58.7344 28.2656
z

M38.5781 28.2656
L38.5781 61.0781
L10.4062 28.2656
z
" id="Verdana-34"/>
      </defs>
      <g transform="translate(414.4828125 401.918125)scale(0.12 -0.12)">
       <use xlink:href="#Verdana-34"/>
       <use x="63.57421875" xlink:href="#Verdana-30"/>
       <use x="127.1484375" xlink:href="#Verdana-30"/>
       <use x="190.72265625" xlink:href="#Verdana-30"/>
      </g>
     </g>
    </g>
    <g id="xtick_6">
     <g id="line2d_16">
      <g>
       <use style="stroke:#000000;stroke-width:0.5;" x="518.4" xlink:href="#mc7db9fdffb" y="388.8"/>
      </g>
     </g>
     <g id="line2d_17">
      <g>
       <use style="stroke:#000000;stroke-width:0.5;" x="518.4" xlink:href="#m5a7d422ac3" y="43.2"/>
      </g>
     </g>
     <g id="text_6">
      <!-- 5000 -->
      <defs>
       <path d="
M56.5 23.0938
Q56.5 18.0156 54.6406 13.375
Q52.7812 8.73438 49.5625 5.5625
Q46.0469 2.15625 41.1875 0.3125
Q36.3281 -1.51562 29.9375 -1.51562
Q23.9688 -1.51562 18.4531 -0.265625
Q12.9375 0.984375 9.125 2.73438
L9.125 13.0312
L9.8125 13.0312
Q13.8125 10.5 19.1875 8.71875
Q24.5625 6.9375 29.7344 6.9375
Q33.2031 6.9375 36.4531 7.90625
Q39.7031 8.89062 42.2344 11.3281
Q44.3906 13.4219 45.4844 16.3438
Q46.5781 19.2812 46.5781 23.1406
Q46.5781 26.9062 45.2812 29.4844
Q44 32.0781 41.7031 33.6406
Q39.1562 35.5 35.5156 36.25
Q31.8906 37.0156 27.3906 37.0156
Q23.0938 37.0156 19.1094 36.4219
Q15.1406 35.8438 12.25 35.25
L12.25 72.7031
L56 72.7031
L56 64.1562
L21.6875 64.1562
L21.6875 44.8281
Q23.7812 45.0156 25.9688 45.1094
Q28.1719 45.2188 29.7812 45.2188
Q35.6875 45.2188 40.125 44.2188
Q44.5781 43.2188 48.2969 40.6719
Q52.2031 37.9844 54.3438 33.7344
Q56.5 29.5 56.5 23.0938" id="Verdana-35"/>
      </defs>
      <g transform="translate(504.084375 401.918125)scale(0.12 -0.12)">
       <use xlink:href="#Verdana-35"/>
       <use x="63.57421875" xlink:href="#Verdana-30"/>
       <use x="127.1484375" xlink:href="#Verdana-30"/>
       <use x="190.72265625" xlink:href="#Verdana-30"/>
      </g>
     </g>
    </g>
    <g id="text_7">
     <!-- Objective function exectuions -->
     <defs>
      <path d="
M63.9688 64.3594
Q68.4062 59.4688 70.7656 52.3906
Q73.1406 45.3125 73.1406 36.3281
Q73.1406 27.3438 70.7188 20.2344
Q68.3125 13.1406 63.9688 8.40625
Q59.4688 3.46875 53.3438 0.96875
Q47.2188 -1.51562 39.3594 -1.51562
Q31.6875 -1.51562 25.4062 1.01562
Q19.1406 3.5625 14.75 8.40625
Q10.3594 13.2344 7.98438 20.2656
Q5.60938 27.2969 5.60938 36.3281
Q5.60938 45.2188 7.95312 52.2656
Q10.2969 59.3281 14.7969 64.3594
Q19.0938 69.1406 25.4688 71.6719
Q31.8438 74.2188 39.3594 74.2188
Q47.1719 74.2188 53.3906 71.6562
Q59.625 69.0938 63.9688 64.3594
M63.0938 36.3281
Q63.0938 50.4844 56.7344 58.1719
Q50.3906 65.875 39.4062 65.875
Q28.3281 65.875 22 58.1719
Q15.6719 50.4844 15.6719 36.3281
Q15.6719 22.0156 22.1094 14.4219
Q28.5625 6.84375 39.4062 6.84375
Q50.25 6.84375 56.6719 14.4219
Q63.0938 22.0156 63.0938 36.3281" id="Verdana-4f"/>
      <path d="
M38.375 67.0938
L37.8906 67.0938
Q36.375 67.5312 33.9375 67.9844
Q31.5 68.4531 29.6406 68.4531
Q23.7344 68.4531 21.0625 65.8438
Q18.4062 63.2344 18.4062 56.3906
L18.4062 54.5469
L34.9688 54.5469
L34.9688 46.8281
L18.7031 46.8281
L18.7031 0
L9.51562 0
L9.51562 46.8281
L3.32812 46.8281
L3.32812 54.5469
L9.51562 54.5469
L9.51562 56.3438
Q9.51562 66.0625 14.3438 71.2656
Q19.1875 76.4688 28.3281 76.4688
Q31.3906 76.4688 33.8594 76.1719
Q36.3281 75.875 38.375 75.4844
z
" id="Verdana-66"/>
      <path d="
M56.25 0
L44.6719 0
L29.2031 20.9531
L13.625 0
L2.9375 0
L24.2188 27.2031
L3.125 54.5469
L14.7031 54.5469
L30.0781 33.9375
L45.5156 54.5469
L56.25 54.5469
L34.8125 27.6875
z
" id="Verdana-78"/>
      <path d="
M54.6406 0
L45.4531 0
L45.4531 31.0625
Q45.4531 34.8125 45.0156 38.1094
Q44.5781 41.4062 43.4062 43.2656
Q42.1875 45.3125 39.8906 46.3125
Q37.5938 47.3125 33.9375 47.3125
Q30.1719 47.3125 26.0625 45.4531
Q21.9688 43.6094 18.2188 40.7188
L18.2188 0
L9.03125 0
L9.03125 54.5469
L18.2188 54.5469
L18.2188 48.4844
Q22.5156 52.0469 27.0938 54.0469
Q31.6875 56.0625 36.5312 56.0625
Q45.3594 56.0625 50 50.7344
Q54.6406 45.4062 54.6406 35.4062
z
" id="Verdana-6e"/>
      <path d="
M18.8906 63.6719
L8.54688 63.6719
L8.54688 73.1875
L18.8906 73.1875
z

M18.3125 0
L9.125 0
L9.125 54.5469
L18.3125 54.5469
z
" id="Verdana-69"/>
      <path d="
M56.2031 54.5469
L34.125 0
L24.9062 0
L2.98438 54.5469
L12.9375 54.5469
L29.8281 11.1406
L46.5781 54.5469
z
" id="Verdana-76"/>
      <path d="
M37.3594 0.484375
Q34.7656 -0.203125 31.7031 -0.640625
Q28.6562 -1.07812 26.2656 -1.07812
Q17.9219 -1.07812 13.5781 3.40625
Q9.23438 7.90625 9.23438 17.8281
L9.23438 46.8281
L3.03125 46.8281
L3.03125 54.5469
L9.23438 54.5469
L9.23438 70.2188
L18.4062 70.2188
L18.4062 54.5469
L37.3594 54.5469
L37.3594 46.8281
L18.4062 46.8281
L18.4062 21.9688
Q18.4062 17.6719 18.5938 15.25
Q18.7969 12.8438 19.9688 10.75
Q21.0469 8.79688 22.9219 7.89062
Q24.8125 6.98438 28.6562 6.98438
Q30.9062 6.98438 33.3438 7.64062
Q35.7969 8.29688 36.8594 8.73438
L37.3594 8.73438
z
" id="Verdana-74"/>
      <path d="
M54.6875 26.3125
L14.5 26.3125
Q14.5 21.2969 16.0156 17.5469
Q17.5312 13.8125 20.1719 11.4219
Q22.7031 9.07812 26.1875 7.90625
Q29.6875 6.73438 33.8906 6.73438
Q39.4531 6.73438 45.0938 8.95312
Q50.7344 11.1875 53.125 13.3281
L53.6094 13.3281
L53.6094 3.32812
Q48.9688 1.375 44.1406 0.046875
Q39.3125 -1.26562 33.9844 -1.26562
Q20.4062 -1.26562 12.7812 6.07812
Q5.17188 13.4219 5.17188 26.9531
Q5.17188 40.3281 12.4688 48.1875
Q19.7812 56.0625 31.6875 56.0625
Q42.7188 56.0625 48.7031 49.6094
Q54.6875 43.1719 54.6875 31.2969
z

M45.75 33.3438
Q45.7031 40.5781 42.1094 44.5312
Q38.5312 48.4844 31.2031 48.4844
Q23.8281 48.4844 19.4531 44.1406
Q15.0938 39.7969 14.5 33.3438
z
" id="Verdana-65"/>
      <path d="
M26.0312 63.6719
L15.6719 63.6719
L15.6719 73.1875
L26.0312 73.1875
z

M25.4375 -1.3125
Q25.4375 -10.8906 20.5469 -15.7656
Q15.6719 -20.6562 7.46875 -20.6562
Q5.51562 -20.6562 2.3125 -20.2656
Q-0.875 -19.875 -3.03125 -19.2812
L-3.03125 -10.5469
L-2.54688 -10.5469
Q-1.17188 -11.0781 1.14062 -11.7656
Q3.46875 -12.4531 5.67188 -12.4531
Q9.1875 -12.4531 11.3281 -11.4688
Q13.4844 -10.5 14.5469 -8.54688
Q15.625 -6.59375 15.9375 -3.82812
Q16.2656 -1.07812 16.2656 2.875
L16.2656 46.8281
L4.89062 46.8281
L4.89062 54.5469
L25.4375 54.5469
z
" id="Verdana-6a"/>
      <path d="
M55.5156 27.25
Q55.5156 13.9219 48.6719 6.20312
Q41.8438 -1.51562 30.375 -1.51562
Q18.7969 -1.51562 11.9844 6.20312
Q5.17188 13.9219 5.17188 27.25
Q5.17188 40.5781 11.9844 48.3125
Q18.7969 56.0625 30.375 56.0625
Q41.8438 56.0625 48.6719 48.3125
Q55.5156 40.5781 55.5156 27.25
M46.0469 27.25
Q46.0469 37.8438 41.8906 42.9844
Q37.75 48.1406 30.375 48.1406
Q22.9062 48.1406 18.7812 42.9844
Q14.6562 37.8438 14.6562 27.25
Q14.6562 17 18.7969 11.6875
Q22.9531 6.39062 30.375 6.39062
Q37.7031 6.39062 41.875 11.6406
Q46.0469 16.8906 46.0469 27.25" id="Verdana-6f"/>
      <path d="
M49.3594 3.42188
Q44.7812 1.21875 40.6562 0
Q36.5312 -1.21875 31.8906 -1.21875
Q25.9844 -1.21875 21.0469 0.515625
Q16.1094 2.25 12.5938 5.76562
Q9.03125 9.28125 7.07812 14.6406
Q5.125 20.0156 5.125 27.2031
Q5.125 40.5781 12.4688 48.1875
Q19.8281 55.8125 31.8906 55.8125
Q36.5781 55.8125 41.0938 54.4844
Q45.6094 53.1719 49.3594 51.2656
L49.3594 41.0625
L48.875 41.0625
Q44.6719 44.3438 40.2031 46.0938
Q35.75 47.8594 31.5 47.8594
Q23.6875 47.8594 19.1719 42.6094
Q14.6562 37.3594 14.6562 27.2031
Q14.6562 17.3281 19.0625 12.0312
Q23.4844 6.73438 31.5 6.73438
Q34.2812 6.73438 37.1562 7.46875
Q40.0469 8.20312 42.3281 9.375
Q44.3438 10.4062 46.0938 11.5469
Q47.8594 12.7031 48.875 13.5312
L49.3594 13.5312
z
" id="Verdana-63"/>
      <path d="
M48 15.7188
Q48 8.25 41.8125 3.46875
Q35.6406 -1.3125 24.9531 -1.3125
Q18.8906 -1.3125 13.8438 0.125
Q8.79688 1.5625 5.375 3.26562
L5.375 13.5781
L5.85938 13.5781
Q10.2031 10.2969 15.5156 8.375
Q20.8438 6.45312 25.7344 6.45312
Q31.7812 6.45312 35.2031 8.40625
Q38.625 10.3594 38.625 14.5469
Q38.625 17.7812 36.7656 19.4375
Q34.9062 21.0938 29.6406 22.2656
Q27.6875 22.7031 24.5312 23.2812
Q21.3906 23.875 18.7969 24.5625
Q11.625 26.4688 8.60938 30.1562
Q5.60938 33.8438 5.60938 39.2031
Q5.60938 42.5781 7 45.5469
Q8.40625 48.5312 11.2344 50.875
Q13.9688 53.1719 18.1875 54.5156
Q22.4062 55.8594 27.6406 55.8594
Q32.5156 55.8594 37.5156 54.6562
Q42.5312 53.4688 45.8438 51.7656
L45.8438 41.9375
L45.3594 41.9375
Q41.8438 44.5312 36.8125 46.3125
Q31.7812 48.0938 26.9531 48.0938
Q21.9219 48.0938 18.4531 46.1562
Q14.9844 44.2344 14.9844 40.4375
Q14.9844 37.0625 17.0938 35.3594
Q19.1406 33.6406 23.7344 32.5625
Q26.2656 31.9844 29.4062 31.3906
Q32.5625 30.8125 34.6719 30.3281
Q41.0625 28.8594 44.5312 25.2969
Q48 21.6875 48 15.7188" id="Verdana-73"/>
      <path id="Verdana-20"/>
      <path d="
M57.0312 27.6875
Q57.0312 20.8438 55.0938 15.375
Q53.1719 9.90625 49.9062 6.20312
Q46.4375 2.34375 42.2812 0.40625
Q38.1406 -1.51562 33.1562 -1.51562
Q28.5156 -1.51562 25.0469 -0.40625
Q21.5781 0.6875 18.2188 2.54688
L17.625 0
L9.03125 0
L9.03125 75.9844
L18.2188 75.9844
L18.2188 48.8281
Q22.0781 52 26.4219 54.0312
Q30.7656 56.0625 36.1875 56.0625
Q45.8438 56.0625 51.4375 48.6406
Q57.0312 41.2188 57.0312 27.6875
M47.5625 27.4375
Q47.5625 37.2031 44.3281 42.25
Q41.1094 47.3125 33.9375 47.3125
Q29.9375 47.3125 25.8281 45.5781
Q21.7344 43.8438 18.2188 41.1094
L18.2188 9.85938
Q22.125 8.10938 24.9219 7.42188
Q27.7344 6.73438 31.2969 6.73438
Q38.9219 6.73438 43.2344 11.7344
Q47.5625 16.75 47.5625 27.4375" id="Verdana-62"/>
      <path d="
M54.25 0
L45.0625 0
L45.0625 6.0625
Q40.4375 2.39062 36.1875 0.4375
Q31.9375 -1.51562 26.8125 -1.51562
Q18.2188 -1.51562 13.4219 3.73438
Q8.64062 8.98438 8.64062 19.1406
L8.64062 54.5469
L17.8281 54.5469
L17.8281 23.4844
Q17.8281 19.3438 18.2188 16.375
Q18.6094 13.4219 19.875 11.3281
Q21.1875 9.1875 23.2812 8.20312
Q25.3906 7.23438 29.3906 7.23438
Q32.9531 7.23438 37.1719 9.07812
Q41.4062 10.9375 45.0625 13.8125
L45.0625 54.5469
L54.25 54.5469
z
" id="Verdana-75"/>
     </defs>
     <g transform="translate(206.5078125 418.509375)scale(0.12 -0.12)">
      <use xlink:href="#Verdana-4f"/>
      <use x="78.7109375" xlink:href="#Verdana-62"/>
      <use x="141.015625" xlink:href="#Verdana-6a"/>
      <use x="175.439453125" xlink:href="#Verdana-65"/>
      <use x="235.009765625" xlink:href="#Verdana-63"/>
      <use x="287.109375" xlink:href="#Verdana-74"/>
      <use x="326.513671875" xlink:href="#Verdana-69"/>
      <use x="353.955078125" xlink:href="#Verdana-76"/>
      <use x="412.259765625" xlink:href="#Verdana-65"/>
      <use x="471.830078125" xlink:href="#Verdana-20"/>
      <use x="506.986328125" xlink:href="#Verdana-66"/>
      <use x="542.142578125" xlink:href="#Verdana-75"/>
      <use x="605.423828125" xlink:href="#Verdana-6e"/>
      <use x="668.705078125" xlink:href="#Verdana-63"/>
      <use x="720.8046875" xlink:href="#Verdana-74"/>
      <use x="760.208984375" xlink:href="#Verdana-69"/>
      <use x="787.650390625" xlink:href="#Verdana-6f"/>
      <use x="848.34375" xlink:href="#Verdana-6e"/>
      <use x="911.625" xlink:href="#Verdana-20"/>
      <use x="946.78125" xlink:href="#Verdana-65"/>
      <use x="1006.3515625" xlink:href="#Verdana-78"/>
      <use x="1064.40625" xlink:href="#Verdana-65"/>
      <use x="1123.9765625" xlink:href="#Verdana-63"/>
      <use x="1176.076171875" xlink:href="#Verdana-74"/>
      <use x="1215.48046875" xlink:href="#Verdana-75"/>
      <use x="1278.76171875" xlink:href="#Verdana-69"/>
      <use x="1306.203125" xlink:href="#Verdana-6f"/>
      <use x="1366.896484375" xlink:href="#Verdana-6e"/>
      <use x="1430.177734375" xlink:href="#Verdana-73"/>
     </g>
    </g>
   </g>
   <g id="matplotlib.axis_2">
    <g id="ytick_1">
     <g id="line2d_18">
      <defs>
       <path d="
M0 0
L4 0" id="md7965d1ba0" style="stroke:#000000;stroke-width:0.5;"/>
      </defs>
      <g>
       <use style="stroke:#000000;stroke-width:0.5;" x="72.0" xlink:href="#md7965d1ba0" y="388.8"/>
      </g>
     </g>
     <g id="line2d_19">
      <defs>
       <path d="
M0 0
L-4 0" id="md9a1c1a7cd" style="stroke:#000000;stroke-width:0.5;"/>
      </defs>
      <g>
       <use style="stroke:#000000;stroke-width:0.5;" x="518.4" xlink:href="#md9a1c1a7cd" y="388.8"/>
      </g>
     </g>
     <g id="text_8">
      <!-- 0.0 -->
      <defs>
       <path d="
M24.0312 0
L12.3594 0
L12.3594 13.9219
L24.0312 13.9219
z
" id="Verdana-2e"/>
      </defs>
      <g transform="translate(49.97 392.1515625)scale(0.12 -0.12)">
       <use xlink:href="#Verdana-30"/>
       <use x="63.57421875" xlink:href="#Verdana-2e"/>
       <use x="99.951171875" xlink:href="#Verdana-30"/>
      </g>
     </g>
    </g>
    <g id="ytick_2">
     <g id="line2d_20">
      <g>
       <use style="stroke:#000000;stroke-width:0.5;" x="72.0" xlink:href="#md7965d1ba0" y="319.68"/>
      </g>
     </g>
     <g id="line2d_21">
      <g>
       <use style="stroke:#000000;stroke-width:0.5;" x="518.4" xlink:href="#md9a1c1a7cd" y="319.68"/>
      </g>
     </g>
     <g id="text_9">
      <!-- 0.2 -->
      <g transform="translate(49.95875 323.0315625)scale(0.12 -0.12)">
       <use xlink:href="#Verdana-30"/>
       <use x="63.57421875" xlink:href="#Verdana-2e"/>
       <use x="99.951171875" xlink:href="#Verdana-32"/>
      </g>
     </g>
    </g>
    <g id="ytick_3">
     <g id="line2d_22">
      <g>
       <use style="stroke:#000000;stroke-width:0.5;" x="72.0" xlink:href="#md7965d1ba0" y="250.56"/>
      </g>
     </g>
     <g id="line2d_23">
      <g>
       <use style="stroke:#000000;stroke-width:0.5;" x="518.4" xlink:href="#md9a1c1a7cd" y="250.56"/>
      </g>
     </g>
     <g id="text_10">
      <!-- 0.4 -->
      <g transform="translate(49.76 253.9115625)scale(0.12 -0.12)">
       <use xlink:href="#Verdana-30"/>
       <use x="63.57421875" xlink:href="#Verdana-2e"/>
       <use x="99.951171875" xlink:href="#Verdana-34"/>
      </g>
     </g>
    </g>
    <g id="ytick_4">
     <g id="line2d_24">
      <g>
       <use style="stroke:#000000;stroke-width:0.5;" x="72.0" xlink:href="#md7965d1ba0" y="181.44"/>
      </g>
     </g>
     <g id="line2d_25">
      <g>
       <use style="stroke:#000000;stroke-width:0.5;" x="518.4" xlink:href="#md9a1c1a7cd" y="181.44"/>
      </g>
     </g>
     <g id="text_11">
      <!-- 0.6 -->
      <defs>
       <path d="
M58.1562 23.5781
Q58.1562 12.5 50.8594 5.48438
Q43.5625 -1.51562 32.9531 -1.51562
Q27.5938 -1.51562 23.1875 0.140625
Q18.7969 1.8125 15.4375 5.07812
Q11.2344 9.125 8.95312 15.8125
Q6.6875 22.5156 6.6875 31.9375
Q6.6875 41.6094 8.76562 49.0781
Q10.8438 56.5469 15.375 62.3594
Q19.6719 67.875 26.4531 70.9688
Q33.25 74.0781 42.2812 74.0781
Q45.1719 74.0781 47.125 73.8281
Q49.0781 73.5781 51.0781 72.9531
L51.0781 63.625
L50.5938 63.625
Q49.2188 64.3594 46.4531 65.0156
Q43.7031 65.6719 40.8281 65.6719
Q30.3281 65.6719 24.0781 59.1094
Q17.8281 52.5469 16.7969 41.3594
Q20.9062 43.8438 24.875 45.1406
Q28.8594 46.4375 34.0781 46.4375
Q38.7188 46.4375 42.25 45.5781
Q45.7969 44.7344 49.5156 42.1406
Q53.8125 39.1562 55.9844 34.6094
Q58.1562 30.0781 58.1562 23.5781
M48.25 23.1875
Q48.25 27.7344 46.9062 30.7031
Q45.5625 33.6875 42.4844 35.8906
Q40.2344 37.4531 37.5 37.9375
Q34.7656 38.4219 31.7812 38.4219
Q27.6406 38.4219 24.0781 37.4375
Q20.5156 36.4688 16.75 34.4219
Q16.6562 33.3438 16.5938 32.3438
Q16.5469 31.3438 16.5469 29.8281
Q16.5469 22.125 18.1406 17.6562
Q19.7344 13.1875 22.5156 10.5938
Q24.75 8.45312 27.3594 7.45312
Q29.9844 6.45312 33.0625 6.45312
Q40.1406 6.45312 44.1875 10.7656
Q48.25 15.0938 48.25 23.1875" id="Verdana-36"/>
      </defs>
      <g transform="translate(49.829375 184.7915625)scale(0.12 -0.12)">
       <use xlink:href="#Verdana-30"/>
       <use x="63.57421875" xlink:href="#Verdana-2e"/>
       <use x="99.951171875" xlink:href="#Verdana-36"/>
      </g>
     </g>
    </g>
    <g id="ytick_5">
     <g id="line2d_26">
      <g>
       <use style="stroke:#000000;stroke-width:0.5;" x="72.0" xlink:href="#md7965d1ba0" y="112.32"/>
      </g>
     </g>
     <g id="line2d_27">
      <g>
       <use style="stroke:#000000;stroke-width:0.5;" x="518.4" xlink:href="#md9a1c1a7cd" y="112.32"/>
      </g>
     </g>
     <g id="text_12">
      <!-- 0.8 -->
      <defs>
       <path d="
M57.625 20.2656
Q57.625 10.8438 50.2656 4.59375
Q42.9219 -1.65625 31.7812 -1.65625
Q19.9688 -1.65625 12.9531 4.4375
Q5.95312 10.5469 5.95312 20.0625
Q5.95312 26.125 9.46875 31.0312
Q12.9844 35.9375 19.3906 38.8125
L19.3906 39.1094
Q13.5312 42.2344 10.7188 45.9375
Q7.90625 49.6562 7.90625 55.2188
Q7.90625 63.4219 14.6406 68.8906
Q21.3906 74.3594 31.7812 74.3594
Q42.6719 74.3594 49.1719 69.1406
Q55.6719 63.9219 55.6719 55.8594
Q55.6719 50.9219 52.5938 46.1562
Q49.5156 41.4062 43.5625 38.7188
L43.5625 38.4219
Q50.3906 35.5 54 31.2031
Q57.625 26.9062 57.625 20.2656
M46.0469 55.7656
Q46.0469 60.9844 42.0156 64.0781
Q37.9844 67.1875 31.7344 67.1875
Q25.5938 67.1875 21.6562 64.25
Q17.7188 61.3281 17.7188 56.3438
Q17.7188 52.8281 19.7031 50.2656
Q21.6875 47.7031 25.6875 45.7031
Q27.4844 44.8281 30.875 43.4062
Q34.2812 42 37.5 41.0625
Q42.3281 44.2812 44.1875 47.75
Q46.0469 51.2188 46.0469 55.7656
M47.5625 19.3438
Q47.5625 23.8281 45.5781 26.5312
Q43.6094 29.25 37.8438 31.9844
Q35.5469 33.0625 32.8125 33.9844
Q30.0781 34.9062 25.5312 36.5781
Q21.1406 34.1875 18.4844 30.0781
Q15.8281 25.9844 15.8281 20.7969
Q15.8281 14.2031 20.3594 9.90625
Q24.9062 5.60938 31.8906 5.60938
Q39.0156 5.60938 43.2812 9.26562
Q47.5625 12.9375 47.5625 19.3438" id="Verdana-38"/>
      </defs>
      <g transform="translate(49.893125 115.6715625)scale(0.12 -0.12)">
       <use xlink:href="#Verdana-30"/>
       <use x="63.57421875" xlink:href="#Verdana-2e"/>
       <use x="99.951171875" xlink:href="#Verdana-38"/>
      </g>
     </g>
    </g>
    <g id="ytick_6">
     <g id="line2d_28">
      <g>
       <use style="stroke:#000000;stroke-width:0.5;" x="72.0" xlink:href="#md7965d1ba0" y="43.2"/>
      </g>
     </g>
     <g id="line2d_29">
      <g>
       <use style="stroke:#000000;stroke-width:0.5;" x="518.4" xlink:href="#md9a1c1a7cd" y="43.2"/>
      </g>
     </g>
     <g id="text_13">
      <!-- 1.0 -->
      <g transform="translate(50.796875 46.5515625)scale(0.12 -0.12)">
       <use xlink:href="#Verdana-31"/>
       <use x="63.57421875" xlink:href="#Verdana-2e"/>
       <use x="99.951171875" xlink:href="#Verdana-30"/>
      </g>
     </g>
    </g>
    <g id="text_14">
     <!-- Data Profile T-0.1000000 -->
     <defs>
      <path d="
M18.3125 0
L9.125 0
L9.125 75.9844
L18.3125 75.9844
z
" id="Verdana-6c"/>
      <path d="
M57.3281 50.7344
Q57.3281 45.9062 55.6406 41.7656
Q53.9531 37.6406 50.9219 34.625
Q47.1719 30.8594 42.0469 28.9688
Q36.9219 27.0938 29.1094 27.0938
L19.4375 27.0938
L19.4375 0
L9.76562 0
L9.76562 72.7031
L29.5 72.7031
Q36.0312 72.7031 40.5781 71.6094
Q45.125 70.5156 48.6406 68.1719
Q52.7812 65.375 55.0469 61.2188
Q57.3281 57.0781 57.3281 50.7344
M47.2656 50.4844
Q47.2656 54.25 45.9375 57.0312
Q44.625 59.8125 41.9375 61.5781
Q39.5938 63.0938 36.5938 63.75
Q33.5938 64.4062 29 64.4062
L19.4375 64.4062
L19.4375 35.3594
L27.5938 35.3594
Q33.4531 35.3594 37.1094 36.4062
Q40.7656 37.4531 43.0625 39.75
Q45.3594 42.0938 46.3125 44.6719
Q47.2656 47.2656 47.2656 50.4844" id="Verdana-50"/>
      <path d="
M71.1875 36.2812
Q71.1875 26.375 66.8594 18.3125
Q62.5469 10.25 55.375 5.8125
Q50.3906 2.73438 44.2656 1.35938
Q38.1406 0 28.125 0
L9.76562 0
L9.76562 72.7031
L27.9375 72.7031
Q38.5781 72.7031 44.8438 71.1562
Q51.125 69.625 55.4688 66.9375
Q62.8906 62.3125 67.0312 54.5938
Q71.1875 46.875 71.1875 36.2812
M61.0781 36.4219
Q61.0781 44.9688 58.0938 50.8281
Q55.125 56.6875 49.2188 60.0625
Q44.9219 62.5 40.0781 63.4531
Q35.25 64.4062 28.5156 64.4062
L19.4375 64.4062
L19.4375 8.29688
L28.5156 8.29688
Q35.5 8.29688 40.7031 9.32812
Q45.9062 10.3594 50.25 13.1406
Q55.6719 16.6094 58.375 22.2656
Q61.0781 27.9375 61.0781 36.4219" id="Verdana-44"/>
      <path d="
M61.625 64.1094
L35.6406 64.1094
L35.6406 0
L25.9844 0
L25.9844 64.1094
L0 64.1094
L0 72.7031
L61.625 72.7031
z
" id="Verdana-54"/>
      <path d="
M37.9375 27.3906
L7.46875 27.3906
L7.46875 36.2344
L37.9375 36.2344
z
" id="Verdana-2d"/>
      <path d="
M51.4219 0
L42.2812 0
L42.2812 5.8125
Q41.0625 4.98438 38.9844 3.48438
Q36.9219 2 34.9688 1.125
Q32.6719 0 29.6875 -0.75
Q26.7031 -1.51562 22.7031 -1.51562
Q15.3281 -1.51562 10.2031 3.35938
Q5.07812 8.25 5.07812 15.8281
Q5.07812 22.0156 7.73438 25.8438
Q10.4062 29.6875 15.3281 31.8906
Q20.3125 34.0781 27.2969 34.8594
Q34.2812 35.6406 42.2812 36.0312
L42.2812 37.4531
Q42.2812 40.5781 41.1875 42.625
Q40.0938 44.6719 38.0312 45.8438
Q36.0781 46.9688 33.3438 47.3594
Q30.6094 47.75 27.6406 47.75
Q24.0312 47.75 19.5781 46.7969
Q15.1406 45.8438 10.4062 44.0469
L9.90625 44.0469
L9.90625 53.375
Q12.5938 54.1094 17.6719 54.9844
Q22.75 55.8594 27.6875 55.8594
Q33.4531 55.8594 37.7188 54.9062
Q42 53.9531 45.125 51.6562
Q48.1875 49.4219 49.7969 45.8438
Q51.4219 42.2812 51.4219 37.0156
z

M42.2812 13.4219
L42.2812 28.6094
Q38.0938 28.375 32.3906 27.875
Q26.7031 27.3906 23.3906 26.4688
Q19.4375 25.3438 16.9844 22.9688
Q14.5469 20.6094 14.5469 16.4531
Q14.5469 11.7656 17.375 9.39062
Q20.2188 7.03125 26.0312 7.03125
Q30.8594 7.03125 34.8594 8.90625
Q38.875 10.7969 42.2812 13.4219" id="Verdana-61"/>
      <path d="
M43.0625 44.5312
L42.5781 44.5312
Q40.5312 45.0156 38.5938 45.2344
Q36.6719 45.4531 34.0312 45.4531
Q29.7812 45.4531 25.8281 43.5781
Q21.875 41.7031 18.2188 38.7188
L18.2188 0
L9.03125 0
L9.03125 54.5469
L18.2188 54.5469
L18.2188 46.4844
Q23.6875 50.875 27.8594 52.7031
Q32.0312 54.5469 36.375 54.5469
Q38.7656 54.5469 39.8438 54.4219
Q40.9219 54.2969 43.0625 53.9531
z
" id="Verdana-72"/>
     </defs>
     <g transform="translate(42.345 291.493125)rotate(-90.0)scale(0.12 -0.12)">
      <use xlink:href="#Verdana-44"/>
      <use x="77.05078125" xlink:href="#Verdana-61"/>
      <use x="137.109375" xlink:href="#Verdana-74"/>
      <use x="176.513671875" xlink:href="#Verdana-61"/>
      <use x="236.572265625" xlink:href="#Verdana-20"/>
      <use x="271.728515625" xlink:href="#Verdana-50"/>
      <use x="332.03125" xlink:href="#Verdana-72"/>
      <use x="374.70703125" xlink:href="#Verdana-6f"/>
      <use x="435.400390625" xlink:href="#Verdana-66"/>
      <use x="470.556640625" xlink:href="#Verdana-69"/>
      <use x="497.998046875" xlink:href="#Verdana-6c"/>
      <use x="525.439453125" xlink:href="#Verdana-65"/>
      <use x="585.009765625" xlink:href="#Verdana-20"/>
      <use x="620.166015625" xlink:href="#Verdana-54"/>
      <use x="674.412109375" xlink:href="#Verdana-2d"/>
      <use x="719.822265625" xlink:href="#Verdana-30"/>
      <use x="783.396484375" xlink:href="#Verdana-2e"/>
      <use x="819.7734375" xlink:href="#Verdana-31"/>
      <use x="883.34765625" xlink:href="#Verdana-30"/>
      <use x="946.921875" xlink:href="#Verdana-30"/>
      <use x="1010.49609375" xlink:href="#Verdana-30"/>
      <use x="1074.0703125" xlink:href="#Verdana-30"/>
      <use x="1137.64453125" xlink:href="#Verdana-30"/>
      <use x="1201.21875" xlink:href="#Verdana-30"/>
     </g>
    </g>
   </g>
   <g id="patch_3">
    <path d="
M72 43.2
L518.4 43.2" style="fill:none;stroke:#000000;"/>
   </g>
   <g id="patch_4">
    <path d="
M72 388.8
L72 43.2" style="fill:none;stroke:#000000;"/>
   </g>
   <g id="patch_5">
    <path d="
M72 388.8
L518.4 388.8" style="fill:none;stroke:#000000;"/>
   </g>
   <g id="patch_6">
    <path d="
M518.4 388.8
L518.4 43.2" style="fill:none;stroke:#000000;"/>
   </g>
   <g id="text_15">
    <!-- Bohachevsky Data Profile T-0.1000000 -->
    <defs>
     <path d="
M64.5938 22.3594
Q64.5938 16.9375 62.5469 12.7812
Q60.5 8.64062 57.0312 5.95312
Q52.9375 2.73438 48.0156 1.35938
Q43.1094 0 35.5469 0
L9.76562 0
L9.76562 72.7031
L31.2969 72.7031
Q39.2656 72.7031 43.2188 72.1094
Q47.1719 71.5312 50.7812 69.6719
Q54.7812 67.5781 56.5938 64.2812
Q58.4062 60.9844 58.4062 56.3906
Q58.4062 51.2188 55.7656 47.5781
Q53.125 43.9531 48.7344 41.75
L48.7344 41.3594
Q56.1094 39.8438 60.3438 34.8906
Q64.5938 29.9375 64.5938 22.3594
M48.3438 55.125
Q48.3438 57.7656 47.4531 59.5625
Q46.5781 61.375 44.625 62.5
Q42.3281 63.8125 39.0625 64.125
Q35.7969 64.4531 30.9531 64.4531
L19.4375 64.4531
L19.4375 43.4531
L31.9375 43.4531
Q36.4688 43.4531 39.1562 43.9219
Q41.8438 44.3906 44.1406 45.8438
Q46.4375 47.3125 47.3906 49.625
Q48.3438 51.9531 48.3438 55.125
M54.5469 21.9688
Q54.5469 26.375 53.2188 28.9531
Q51.9062 31.5469 48.4375 33.3438
Q46.0938 34.5781 42.75 34.9375
Q39.4062 35.2969 34.625 35.2969
L19.4375 35.2969
L19.4375 8.25
L32.2344 8.25
Q38.5781 8.25 42.625 8.90625
Q46.6875 9.57812 49.2656 11.3281
Q52 13.2344 53.2656 15.6719
Q54.5469 18.1094 54.5469 21.9688" id="Verdana-42"/>
     <path d="
M54.6406 0
L45.4531 0
L45.4531 31.0625
Q45.4531 34.8125 45.0156 38.1094
Q44.5781 41.4062 43.4062 43.2656
Q42.1875 45.3125 39.8906 46.3125
Q37.5938 47.3125 33.9375 47.3125
Q30.1719 47.3125 26.0625 45.4531
Q21.9688 43.6094 18.2188 40.7188
L18.2188 0
L9.03125 0
L9.03125 75.9844
L18.2188 75.9844
L18.2188 48.4844
Q22.5156 52.0469 27.0938 54.0469
Q31.6875 56.0625 36.5312 56.0625
Q45.3594 56.0625 50 50.7344
Q54.6406 45.4062 54.6406 35.4062
z
" id="Verdana-68"/>
     <path d="
M58.5469 0
L46.4375 0
L24.5625 23.875
L18.6094 18.2188
L18.6094 0
L9.42188 0
L9.42188 75.9844
L18.6094 75.9844
L18.6094 27.25
L45.125 54.5469
L56.6875 54.5469
L31.3438 29.3438
z
" id="Verdana-6b"/>
     <path d="
M56.2031 54.5469
L24.3594 -20.125
L14.5469 -20.125
L24.7031 2.64062
L2.98438 54.5469
L12.9375 54.5469
L29.6875 14.1094
L46.5781 54.5469
z
" id="Verdana-79"/>
    </defs>
    <g transform="translate(154.758375 38.2)scale(0.144 -0.144)">
     <use xlink:href="#Verdana-42"/>
     <use x="68.5546875" xlink:href="#Verdana-6f"/>
     <use x="129.248046875" xlink:href="#Verdana-68"/>
     <use x="192.529296875" xlink:href="#Verdana-61"/>
     <use x="252.587890625" xlink:href="#Verdana-63"/>
     <use x="304.6875" xlink:href="#Verdana-68"/>
     <use x="367.96875" xlink:href="#Verdana-65"/>
     <use x="427.5390625" xlink:href="#Verdana-76"/>
     <use x="486.71875" xlink:href="#Verdana-73"/>
     <use x="538.818359375" xlink:href="#Verdana-6b"/>
     <use x="597.998046875" xlink:href="#Verdana-79"/>
     <use x="657.177734375" xlink:href="#Verdana-20"/>
     <use x="692.333984375" xlink:href="#Verdana-44"/>
     <use x="769.384765625" xlink:href="#Verdana-61"/>
     <use x="829.443359375" xlink:href="#Verdana-74"/>
     <use x="868.84765625" xlink:href="#Verdana-61"/>
     <use x="928.90625" xlink:href="#Verdana-20"/>
     <use x="964.0625" xlink:href="#Verdana-50"/>
     <use x="1024.365234375" xlink:href="#Verdana-72"/>
     <use x="1067.041015625" xlink:href="#Verdana-6f"/>
     <use x="1127.734375" xlink:href="#Verdana-66"/>
     <use x="1162.890625" xlink:href="#Verdana-69"/>
     <use x="1190.33203125" xlink:href="#Verdana-6c"/>
     <use x="1217.7734375" xlink:href="#Verdana-65"/>
     <use x="1277.34375" xlink:href="#Verdana-20"/>
     <use x="1312.5" xlink:href="#Verdana-54"/>
     <use x="1366.74609375" xlink:href="#Verdana-2d"/>
     <use x="1412.15625" xlink:href="#Verdana-30"/>
     <use x="1475.73046875" xlink:href="#Verdana-2e"/>
     <use x="1512.107421875" xlink:href="#Verdana-31"/>
     <use x="1575.681640625" xlink:href="#Verdana-30"/>
     <use x="1639.255859375" xlink:href="#Verdana-30"/>
     <use x="1702.830078125" xlink:href="#Verdana-30"/>
     <use x="1766.404296875" xlink:href="#Verdana-30"/>
     <use x="1829.978515625" xlink:href="#Verdana-30"/>
     <use x="1893.552734375" xlink:href="#Verdana-30"/>
    </g>
   </g>
   <g id="legend_1">
    <g id="patch_7">
     <path d="
M407.18 159.919
L511.2 159.919
L511.2 50.4
L407.18 50.4
L407.18 159.919
z
" style="fill:#ffffff;stroke:#000000;"/>
    </g>
    <g id="line2d_30">
     <path d="
M417.26 62.0617
L437.42 62.0617" style="fill:none;stroke:#0000ff;stroke-dasharray:6.000000,2.000000;stroke-dashoffset:0.0;"/>
    </g>
    <g id="line2d_31"/>
    <g id="text_16">
     <!-- AMPGO -->
     <defs>
      <path d="
M74.5156 0
L64.8438 0
L64.8438 62.6406
L44.625 20.0156
L38.875 20.0156
L18.7969 62.6406
L18.7969 0
L9.76562 0
L9.76562 72.7031
L22.9531 72.7031
L42.3281 32.2344
L61.0781 72.7031
L74.5156 72.7031
z
" id="Verdana-4d"/>
      <path d="
M70.4062 5.375
Q64.4531 2.64062 57.3906 0.609375
Q50.3438 -1.42188 43.75 -1.42188
Q35.25 -1.42188 28.1719 0.921875
Q21.0938 3.26562 16.1094 7.95312
Q11.0781 12.7031 8.34375 19.7969
Q5.60938 26.9062 5.60938 36.4219
Q5.60938 53.8594 15.7969 63.9375
Q25.9844 74.0312 43.75 74.0312
Q49.9531 74.0312 56.4219 72.5312
Q62.8906 71.0469 70.3594 67.4844
L70.3594 56
L69.4844 56
Q67.9688 57.1719 65.0781 59.0781
Q62.2031 60.9844 59.4219 62.25
Q56.0625 63.7656 51.7812 64.7656
Q47.5156 65.7656 42.0938 65.7656
Q29.8906 65.7656 22.7812 57.9219
Q15.6719 50.0938 15.6719 36.7188
Q15.6719 22.6094 23.0938 14.7656
Q30.5156 6.9375 43.3125 6.9375
Q48 6.9375 52.6562 7.85938
Q57.3281 8.79688 60.8438 10.25
L60.8438 28.0781
L41.3594 28.0781
L41.3594 36.5781
L70.4062 36.5781
z
" id="Verdana-47"/>
      <path d="
M67.0938 0
L56.7812 0
L49.6562 20.2656
L18.2188 20.2656
L11.0781 0
L1.26562 0
L27.7344 72.7031
L40.625 72.7031
z

M46.6875 28.5625
L33.9375 64.2656
L21.1406 28.5625
z
" id="Verdana-41"/>
     </defs>
     <g transform="translate(453.26025 67.10175)scale(0.144 -0.144)">
      <use xlink:href="#Verdana-41"/>
      <use x="68.359375" xlink:href="#Verdana-4d"/>
      <use x="152.63671875" xlink:href="#Verdana-50"/>
      <use x="212.939453125" xlink:href="#Verdana-47"/>
      <use x="290.478515625" xlink:href="#Verdana-4f"/>
     </g>
    </g>
    <g id="line2d_32">
     <path d="
M417.26 83.1015
L437.42 83.1015" style="fill:none;stroke:#008000;stroke-dasharray:1.000000,1.000000;stroke-dashoffset:0.0;"/>
    </g>
    <g id="line2d_33"/>
    <g id="text_17">
     <!-- Anneal -->
     <g transform="translate(453.26025 88.1415)scale(0.144 -0.144)">
      <use xlink:href="#Verdana-41"/>
      <use x="68.359375" xlink:href="#Verdana-6e"/>
      <use x="131.640625" xlink:href="#Verdana-6e"/>
      <use x="194.921875" xlink:href="#Verdana-65"/>
      <use x="254.4921875" xlink:href="#Verdana-61"/>
      <use x="314.55078125" xlink:href="#Verdana-6c"/>
     </g>
    </g>
    <g id="line2d_34">
     <path d="
M417.26 104.141
L437.42 104.141" style="fill:none;stroke:#ff0000;stroke-dasharray:3.000000,6.000000;stroke-dashoffset:0.0;"/>
    </g>
    <g id="line2d_35"/>
    <g id="text_18">
     <!-- BSA -->
     <defs>
      <path d="
M62.5938 20.75
Q62.5938 16.5 60.6094 12.3438
Q58.6406 8.20312 55.0781 5.32812
Q51.1719 2.20312 45.9688 0.4375
Q40.7656 -1.3125 33.4531 -1.3125
Q25.5938 -1.3125 19.3125 0.140625
Q13.0312 1.60938 6.54688 4.5
L6.54688 16.6094
L7.23438 16.6094
Q12.75 12.0156 19.9688 9.51562
Q27.2031 7.03125 33.5469 7.03125
Q42.5312 7.03125 47.5312 10.3906
Q52.5469 13.7656 52.5469 19.3906
Q52.5469 24.2188 50.1719 26.5156
Q47.7969 28.8125 42.9688 30.0781
Q39.3125 31.0625 35.0312 31.6875
Q30.7656 32.3281 25.9844 33.2969
Q16.3125 35.3594 11.6406 40.3125
Q6.98438 45.2656 6.98438 53.2188
Q6.98438 62.3594 14.6875 68.1875
Q22.4062 74.0312 34.2812 74.0312
Q41.9375 74.0312 48.3281 72.5625
Q54.7344 71.0938 59.6719 68.9531
L59.6719 57.5156
L58.9844 57.5156
Q54.8281 61.0312 48.0625 63.3438
Q41.3125 65.6719 34.2344 65.6719
Q26.4688 65.6719 21.75 62.4531
Q17.0469 59.2344 17.0469 54.1562
Q17.0469 49.6094 19.3906 47.0156
Q21.7344 44.4375 27.6406 43.0625
Q30.7656 42.3906 36.5156 41.4062
Q42.2812 40.4375 46.2969 39.4062
Q54.3906 37.25 58.4844 32.9062
Q62.5938 28.5625 62.5938 20.75" id="Verdana-53"/>
     </defs>
     <g transform="translate(453.26025 109.18125)scale(0.144 -0.144)">
      <use xlink:href="#Verdana-42"/>
      <use x="68.5546875" xlink:href="#Verdana-53"/>
      <use x="135.9140625" xlink:href="#Verdana-41"/>
     </g>
    </g>
    <g id="line2d_36">
     <path d="
M417.26 125.181
L437.42 125.181" style="fill:none;stroke:#00bfbf;stroke-dasharray:5.000000,1.000000,2.000000,1.000000,5.000000,1.000000;stroke-dashoffset:0.0;"/>
    </g>
    <g id="line2d_37"/>
    <g id="text_19">
     <!-- Cuckoo -->
     <defs>
      <path d="
M65.9219 5.28125
Q63.2344 4.10938 61.0625 3.07812
Q58.8906 2.04688 55.375 0.921875
Q52.3906 0 48.8906 -0.65625
Q45.4062 -1.3125 41.2188 -1.3125
Q33.2969 -1.3125 26.8281 0.90625
Q20.3594 3.125 15.5781 7.85938
Q10.8906 12.5 8.25 19.6562
Q5.60938 26.8125 5.60938 36.2812
Q5.60938 45.2656 8.14062 52.3438
Q10.6875 59.4219 15.4844 64.3125
Q20.125 69.0469 26.6875 71.5312
Q33.25 74.0312 41.2656 74.0312
Q47.125 74.0312 52.9531 72.6094
Q58.7969 71.1875 65.9219 67.625
L65.9219 56.1562
L65.1875 56.1562
Q59.1875 61.1875 53.2656 63.4688
Q47.3594 65.7656 40.625 65.7656
Q35.1094 65.7656 30.6875 63.9844
Q26.2656 62.2031 22.7969 58.4531
Q19.4375 54.7812 17.5469 49.1875
Q15.6719 43.6094 15.6719 36.2812
Q15.6719 28.6094 17.75 23.0938
Q19.8281 17.5781 23.0938 14.1094
Q26.5156 10.5 31.0781 8.76562
Q35.6406 7.03125 40.7188 7.03125
Q47.7031 7.03125 53.7969 9.42188
Q59.9062 11.8125 65.2344 16.6094
L65.9219 16.6094
z
" id="Verdana-43"/>
     </defs>
     <g transform="translate(453.26025 130.221)scale(0.144 -0.144)">
      <use xlink:href="#Verdana-43"/>
      <use x="69.82421875" xlink:href="#Verdana-75"/>
      <use x="133.10546875" xlink:href="#Verdana-63"/>
      <use x="185.205078125" xlink:href="#Verdana-6b"/>
      <use x="243.384765625" xlink:href="#Verdana-6f"/>
      <use x="304.078125" xlink:href="#Verdana-6f"/>
     </g>
    </g>
    <g id="line2d_38">
     <path d="
M417.26 146.221
L437.42 146.221" style="fill:none;stroke:#bf00bf;stroke-linecap:square;"/>
    </g>
    <g id="line2d_39"/>
    <g id="text_20">
     <!-- qABC -->
     <defs>
      <path d="
M53.2656 -20.125
L44.0938 -20.125
L44.0938 6.15625
Q39.8438 2.48438 35.6406 0.703125
Q31.4531 -1.07812 26.5625 -1.07812
Q16.8438 -1.07812 11.0625 6.42188
Q5.28125 13.9219 5.28125 27.0938
Q5.28125 34.125 7.29688 39.5156
Q9.32812 44.9219 12.6406 48.5781
Q15.875 52.1562 20.2188 54.1094
Q24.5625 56.0625 29.3906 56.0625
Q33.7969 56.0625 37.1875 55.0781
Q40.5781 54.1094 44.0938 52.2031
L44.6719 54.5469
L53.2656 54.5469
z

M44.0938 13.875
L44.0938 44.7344
Q40.2812 46.4375 37.3438 47.1094
Q34.4219 47.7969 31 47.7969
Q23.0469 47.7969 18.8906 42.4062
Q14.75 37.0156 14.75 27.5469
Q14.75 17.9688 18.0938 12.8125
Q21.4375 7.67188 28.6094 7.67188
Q32.625 7.67188 36.625 9.40625
Q40.625 11.1406 44.0938 13.875" id="Verdana-71"/>
     </defs>
     <g transform="translate(453.26025 151.26075)scale(0.144 -0.144)">
      <use xlink:href="#Verdana-71"/>
      <use x="62.3046875" xlink:href="#Verdana-41"/>
      <use x="130.6640625" xlink:href="#Verdana-42"/>
      <use x="199.21875" xlink:href="#Verdana-43"/>
     </g>
    </g>
   </g>
  </g>
 </g>
 <defs>
  <clipPath id="p7ff5b81e1d">
   <rect height="345.6" width="446.4" x="72.0" y="43.2"/>
  </clipPath>
 </defs>
</svg>
