<?xml version="1.0" encoding="utf-8" standalone="no"?>
<!DOCTYPE svg PUBLIC "-//W3C//DTD SVG 1.1//EN"
  "http://www.w3.org/Graphics/SVG/1.1/DTD/svg11.dtd">
<!-- Created with matplotlib (http://matplotlib.org/) -->
<svg height="432pt" version="1.1" viewBox="0 0 576 432" width="576pt" xmlns="http://www.w3.org/2000/svg" xmlns:xlink="http://www.w3.org/1999/xlink">
 <defs>
  <style type="text/css">
*{stroke-linecap:butt;stroke-linejoin:round;}
  </style>
 </defs>
 <g id="figure_1">
  <g id="patch_1">
   <path d="
M0 432
L576 432
L576 0
L0 0
z
" style="fill:#ffffff;"/>
  </g>
  <g id="axes_1">
   <g id="patch_2">
    <path d="
M72 388.8
L518.4 388.8
L518.4 43.2
L72 43.2
z
" style="fill:#ffffff;"/>
   </g>
   <g id="line2d_1">
    <path clip-path="url(#p7ff5b81e1d)" d="
M72 320.111
L72.0893 347.082
L72.1786 359.226
L72.4464 373.727
L72.8035 380.586
L72.8928 381.628
L72.9821 359.595
L73.0714 362.266
L73.4285 341.991
L73.5178 342.17
L73.7856 346.717
L73.8749 346.065
L74.4106 360.486
L74.6784 365.442
L74.7677 362.999
L75.2141 369.656
L75.4819 372.685
L75.5712 373.534
L75.6605 369.81
L76.2854 376.418
L76.464 377.783
L76.5533 373.891
L76.6426 374.774
L77.089 378.318
L77.3568 379.909
L77.4461 378.03
L77.7139 380.054
L78.2496 382.517
L78.3389 381.001
L78.6067 381.742
L78.7853 382.054
L79.1424 383.301
L79.2317 380.543
L79.321 380.944
L79.4995 381.473
L79.8566 382.891
L80.0352 383.364
L80.1245 379.198
L80.2138 379.417
L80.5709 381.076
L80.928 382.202
L81.0173 379.161
L81.1066 379.421
L81.8208 381.085
L81.9101 380.15
L82.7136 382.168
L82.8029 381.152
L83.16 382.091
L83.4278 382.502
L83.6064 383.032
L83.6957 381.18
L83.785 381.459
L84.4992 382.807
L84.5885 380.608
L84.6778 380.835
L85.392 382.345
L85.4813 380.897
L85.5706 380.949
L85.8384 381.613
L86.1062 382.289
L86.2848 382.901
L86.3741 382.379
L86.4634 382.411
L87.1776 383.171
L87.2669 382.828
L87.5347 383.232
L87.7133 383.318
L87.9811 383.856
L88.0704 384.001
L88.1597 383.297
L88.249 383.426
L88.4275 383.48
L88.6061 383.668
L88.8739 383.7
L88.9632 383.808
L89.0525 382.737
L89.1418 382.808
L89.4096 383.024
L89.5882 383.288
L89.856 383.445
L89.9453 382.501
L90.0346 382.513
L90.6595 382.633
L90.7488 382.905
L90.8381 382.348
L90.9274 382.397
L91.2845 382.493
L91.463 382.884
L91.6416 382.912
L91.8202 382.495
L92.3558 382.559
L92.5344 382.727
L92.6237 382.195
L92.713 382.244
L93.2486 382.429
L93.4272 382.599
L93.5165 381.97
L93.6058 382
L94.32 382.176
L94.4093 381.567
L94.4986 381.608
L95.2128 381.772
L95.3021 381.18
L95.3914 381.206
L95.6592 381.63
L95.7485 381.637
L95.927 381.77
L96.1056 381.795
L96.1949 381.428
L96.3734 381.613
L96.552 381.621
L96.7306 381.765
L96.8198 381.784
L96.9984 382.144
L97.177 382.023
L97.8912 382.199
L97.9805 381.96
L98.2483 382.313
L98.8733 382.357
L99.5875 382.487
L99.6768 382.581
L99.7661 382.343
L99.9446 382.506
L100.57 382.542
L100.748 382.336
L101.462 382.516
L101.641 382.429
L101.82 382.466
L103.516 382.642
L103.694 382.78
L104.23 382.834
L104.409 383.017
L105.926 383.409
L106.105 383.356
L106.641 383.42
L108.516 383.846
L109.944 384.152
L110.212 384.184
L110.39 384.319
L110.926 384.388
L111.551 384.597
L111.73 384.738
L112.176 384.941
L113.069 385.138
L114.765 385.326
L114.944 385.466
L116.104 385.758
L116.283 385.872
L117.086 385.954
L117.265 385.871
L119.229 386.128
L120.033 386.23
L120.658 386.344
L121.372 386.4
L122.443 386.56
L122.8 386.641
L126.014 386.856
L128.246 387.06
L128.425 386.991
L130.389 387.248
L131.371 387.346
L138.335 387.729
L138.514 387.666
L141.638 387.802
L160.387 388.306
L160.834 388.283
L175.476 388.443
L238.061 388.66
L244.935 388.673
L245.114 388.516
L293.504 388.609
L468.403 388.737
L518.311 388.763
L518.311 388.763" style="fill:none;stroke:#0000ff;stroke-dasharray:6.000000,2.000000;stroke-dashoffset:0.0;"/>
   </g>
   <g id="line2d_2">
    <path clip-path="url(#p7ff5b81e1d)" d="
M72 321.634
L72.0893 331.989
L72.2678 324.319
L72.5357 299.31
L73.2499 216.996
L73.5178 193.989
L74.1427 137.968
L74.5891 109.089
L74.9462 92.8953
L75.5712 75.494
L75.6605 77.4545
L76.1962 68.3754
L76.2854 67.9225
L76.464 65.4498
L76.5533 68.4192
L77.3568 60.7598
L77.4461 61.9684
L77.6246 59.5689
L77.8925 57.2995
L78.2496 54.7762
L78.3389 55.9848
L78.6067 54.8549
L78.9638 53.3812
L79.1424 52.2898
L79.2317 55.1856
L79.321 54.7351
L79.4102 54.576
L79.7674 53.0147
L79.9459 52.4179
L80.0352 52.4743
L80.1245 56.5691
L80.2138 56.3211
L80.6602 54.2183
L80.928 53.4514
L81.0173 56.516
L81.1066 56.3004
L81.4637 55.3558
L81.553 55.4418
L81.6422 55.3114
L81.8208 54.7838
L81.9101 55.595
L82.7136 53.285
L82.8029 54.2462
L82.8922 54.1521
L82.9814 54.0425
L83.16 53.4982
L83.3386 53.581
L83.6064 52.9355
L83.6957 54.9252
L83.785 54.6279
L84.1421 54.1149
L84.3206 54.1994
L84.4992 53.6932
L84.5885 55.9361
L84.6778 55.6399
L84.9456 54.9448
L85.392 53.8534
L85.4813 55.2236
L85.5706 55.1505
L85.8384 54.3639
L86.017 53.8073
L86.1062 53.9124
L86.2848 53.4554
L86.4634 53.9936
L86.9098 53.8883
L87.0883 54.2052
L87.1776 54.3057
L87.3562 54.9313
L87.5347 54.9861
L87.624 55.0155
L87.7133 55.4362
L87.8026 55.23
L87.8918 55.3546
L88.0704 55.0438
L88.1597 55.7113
L88.249 55.6293
L88.9632 55.1633
L89.0525 56.1817
L89.1418 56.0794
L89.4096 55.7857
L89.5882 55.4724
L89.7667 55.2654
L89.856 55.3075
L90.0346 56.7027
L90.2131 56.8221
L90.481 57.162
L90.6595 57.4626
L90.7488 57.4416
L90.9274 58.7089
L91.1059 58.7953
L91.2845 59.2551
L91.463 59.04
L91.6416 58.9775
L91.8202 59.3852
L91.9987 59.3221
L92.5344 59.0968
L92.713 59.598
L93.2486 59.6608
L93.3379 59.5494
L93.4272 59.7801
L93.6058 60.8408
L93.7843 60.8899
L93.9629 61.3334
L94.1414 61.3384
L94.8557 63.1277
L95.2128 63.881
L95.3914 64.6231
L95.5699 64.2118
L95.7485 64.3414
L95.927 64.2785
L96.1056 64.3232
L96.1949 64.7652
L96.3734 64.6354
L96.552 64.6489
L96.7306 64.4274
L96.8198 64.4146
L96.9091 64.0998
L97.4448 65.683
L97.5341 65.7127
L97.8912 66.3435
L97.9805 66.7479
L98.0698 66.6402
L98.3376 67.0557
L98.4269 67.1183
L98.784 68.0252
L98.9626 68.2767
L99.3197 68.2562
L99.5875 68.4301
L99.6768 68.3377
L99.7661 68.6027
L99.9446 68.4249
L100.57 68.5766
L100.837 69.1301
L100.927 69.1618
L101.82 70.9673
L102.087 71.4155
L102.266 71.8382
L102.534 71.9779
L102.712 72.1905
L102.98 72.2585
L103.069 72.25
L103.248 72.5309
L103.516 72.5705
L103.694 72.3735
L104.052 72.2951
L104.409 73.0942
L104.498 73.1224
L105.034 74.0822
L105.123 74.0475
L105.391 74.7349
L105.48 74.7699
L106.016 75.9306
L106.373 76.083
L106.551 76.0305
L106.73 76.0995
L106.908 76.1223
L107.266 76.2284
L107.444 75.9789
L107.712 76.1444
L107.98 76.8157
L108.873 79.0975
L109.408 80.2102
L109.587 80.2793
L109.765 80.3874
L110.033 80.4877
L110.212 80.6763
L110.39 80.4391
L111.015 80.3556
L111.194 80.9136
L111.73 81.537
L112.087 82.1617
L112.355 83.0621
L113.247 84.9291
L113.962 84.9645
L114.854 85.4888
L115.301 86.4454
L116.104 88.3887
L116.194 88.4138
L116.461 88.7404
L116.729 89.081
L116.908 89.0841
L117.176 89.5986
L117.354 89.6311
L117.711 89.8153
L117.89 89.8195
L118.068 89.9349
L118.426 90.1826
L118.783 91.4122
L119.229 92.2702
L119.586 93.0261
L120.211 93.8032
L120.39 93.7058
L120.479 93.6486
L120.836 94.1027
L121.015 94.1683
L121.283 94.1872
L121.55 94.3977
L121.729 94.7169
L121.908 94.7859
L122.443 96.0213
L122.532 95.9792
L123.693 98.5732
L124.229 98.8612
L124.586 99.1256
L124.675 99.155
L124.854 99.3342
L124.943 99.3328
L125.389 99.8983
L125.479 99.8868
L125.925 100.95
L126.193 101.154
L126.461 101.236
L127.264 103.127
L127.354 103.17
L127.711 103.755
L128.068 103.818
L128.425 104.225
L129.05 104.677
L129.675 106.221
L130.925 109.08
L131.103 109.03
L131.728 109.443
L132.353 109.827
L132.621 109.908
L132.889 110.337
L133.068 110.652
L133.335 110.802
L133.782 111.202
L134.317 112.488
L134.496 112.536
L134.764 112.521
L135.032 112.525
L135.3 112.88
L135.478 112.928
L135.924 113.14
L136.192 113.238
L136.46 113.767
L136.639 113.944
L136.817 114.437
L137.174 115.253
L137.532 116.118
L137.799 116.67
L138.067 116.954
L138.335 117.061
L138.603 117.231
L138.871 117.156
L139.317 117.031
L139.764 117.258
L139.942 117.701
L140.121 117.843
L140.388 118.646
L140.924 119.878
L141.192 120.208
L141.46 120.804
L141.728 121.162
L142.531 121.876
L142.71 121.889
L142.888 122.257
L143.067 122.25
L143.156 122.247
L144.585 124.304
L144.852 125.126
L144.942 125.178
L145.21 125.792
L145.299 125.847
L145.477 125.648
L145.567 125.886
L145.745 125.778
L146.013 126.055
L146.37 126.09
L146.638 126.27
L146.906 126.262
L148.156 128.863
L148.513 129.187
L148.692 129.721
L149.049 129.827
L149.227 129.862
L149.406 130.154
L149.584 130.255
L150.477 130.621
L150.834 131.126
L151.013 131.062
L152.263 133.147
L152.709 133.28
L152.888 133.578
L154.138 134.572
L154.405 134.837
L155.12 135.348
L155.298 135.289
L155.566 136.183
L155.834 136.618
L156.102 136.767
L156.28 136.859
L156.459 136.947
L156.995 136.697
L157.62 137.018
L158.155 137.779
L158.244 137.782
L158.512 138.257
L159.316 139.034
L159.405 139.009
L159.584 139.157
L161.191 139.852
L161.994 141.156
L162.173 141.331
L162.53 141.882
L162.708 141.937
L163.066 142.592
L163.155 142.646
L163.333 142.584
L163.512 142.83
L163.869 142.838
L164.494 143.098
L165.119 144.097
L165.387 144.75
L165.923 145.989
L166.369 146.583
L166.726 147.019
L166.994 147.013
L167.262 147.3
L167.351 147.305
L167.619 147.134
L167.708 147.149
L167.887 147.347
L168.155 147.382
L168.601 147.899
L169.047 148.502
L169.494 148.864
L169.672 149.192
L170.387 149.932
L170.565 150.149
L171.012 150.691
L171.19 150.661
L171.369 150.735
L171.815 150.687
L171.904 150.693
L172.172 150.948
L172.261 150.851
L172.529 151.214
L172.619 151.207
L172.886 151.401
L173.511 152.036
L173.69 152.465
L173.868 152.568
L174.047 152.617
L174.493 152.695
L174.672 152.872
L175.654 153.269
L175.922 153.75
L176.19 154.214
L176.547 154.807
L176.904 155.309
L176.993 155.292
L177.172 155.715
L177.261 155.764
L177.44 156.02
L177.975 156.122
L178.243 156.346
L178.6 156.545
L178.868 156.548
L179.225 157.084
L179.404 157.387
L179.672 157.927
L179.94 158.517
L180.118 158.604
L180.207 158.568
L180.297 158.725
L180.475 159.313
L180.564 159.268
L180.922 159.745
L181.636 159.656
L181.814 159.522
L182.172 159.555
L182.618 159.691
L182.886 160.198
L182.975 160.209
L183.243 160.582
L183.421 160.59
L183.6 160.788
L183.868 161.248
L184.046 161.305
L184.582 161.762
L184.939 161.951
L185.028 161.968
L185.207 162.091
L186.457 161.933
L186.636 162.226
L186.725 162.19
L187.082 162.599
L187.439 162.852
L188.153 163.597
L188.332 163.534
L189.582 163.879
L189.76 163.851
L190.207 164.299
L190.385 164.448
L190.475 164.45
L190.564 164.3
L191.189 164.722
L191.278 164.703
L191.724 165.132
L192.26 165.282
L192.528 165.266
L192.707 165.296
L192.974 165.402
L193.332 165.48
L193.778 165.686
L194.135 166.036
L194.581 166.305
L194.76 166.58
L194.849 166.578
L195.117 167.236
L195.385 167.294
L196.724 167.286
L196.903 167.317
L197.171 167.81
L197.528 168.089
L197.706 168.079
L198.063 168.62
L198.51 168.869
L198.867 169.739
L198.956 169.781
L199.224 170.13
L199.492 170.207
L200.295 170.513
L200.563 170.545
L201.456 171.468
L201.635 171.531
L201.902 171.94
L202.438 172.13
L202.527 171.921
L202.617 171.966
L202.974 172.009
L203.242 172.037
L204.134 172.274
L204.402 172.822
L204.581 172.941
L205.206 173.812
L205.295 173.894
L205.474 174.294
L205.652 174.245
L206.009 174.747
L206.366 175.022
L206.634 175.04
L206.902 175.128
L207.259 175.149
L207.438 175.209
L207.706 175.344
L208.598 175.941
L209.402 176.614
L209.58 176.874
L209.759 176.911
L210.116 177.109
L210.473 177.08
L210.83 177.079
L211.009 177.205
L211.277 177.317
L211.545 177.74
L212.437 178.747
L212.527 178.636
L212.884 179.272
L213.777 180.002
L213.866 179.936
L214.044 180.02
L214.759 180.329
L214.937 180.267
L215.205 180.526
L215.562 181.172
L216.009 181.521
L216.187 181.743
L216.812 182.228
L217.526 182.288
L217.705 182.379
L218.241 182.442
L218.776 182.755
L219.848 184.366
L219.937 184.315
L220.205 184.825
L220.919 184.974
L221.187 185.017
L221.544 184.972
L221.723 185.054
L222.08 185.408
L222.348 185.658
L222.615 186.189
L222.794 186.248
L222.972 186.428
L223.062 186.314
L223.33 186.496
L223.419 186.382
L223.508 186.474
L223.687 186.763
L223.865 186.774
L224.312 186.592
L224.669 186.678
L225.562 186.853
L226.097 187.365
L226.812 188.18
L226.99 188.217
L227.883 188.598
L227.972 188.505
L228.061 188.716
L228.151 188.672
L228.419 188.815
L228.865 188.81
L229.133 188.846
L229.668 189.466
L229.847 189.708
L230.026 189.67
L230.115 189.649
L230.383 189.875
L230.561 190.003
L231.097 190.463
L231.9 190.522
L232.079 190.436
L232.704 190.568
L232.883 190.887
L233.061 191.082
L233.508 191.593
L233.775 191.603
L233.954 191.805
L234.043 191.763
L234.579 192.119
L234.757 192.178
L235.293 192.484
L235.65 192.558
L236.275 192.715
L236.454 192.919
L236.632 193.026
L236.9 193.346
L237.882 194.205
L238.061 194.381
L238.775 194.573
L239.043 194.542
L239.846 194.82
L240.025 194.795
L240.739 195.392
L240.828 195.39
L241.007 195.547
L241.721 195.821
L242.168 195.921
L242.346 196.063
L242.614 196.141
L243.239 196.231
L243.418 196.093
L244.935 197.57
L245.203 198.068
L245.65 198.205
L246.364 198.256
L246.632 198.363
L246.81 198.351
L247.167 198.656
L247.346 198.882
L247.614 199.139
L247.882 199.486
L249.132 199.755
L249.399 199.691
L249.578 199.764
L249.935 199.693
L250.024 199.743
L250.203 199.654
L250.292 199.655
L250.471 199.87
L250.739 199.974
L250.917 200.193
L251.096 200.198
L251.364 200.478
L251.542 200.719
L251.899 200.851
L252.167 201.192
L252.703 201.129
L252.881 200.997
L253.06 201.101
L253.774 201.168
L254.131 201.242
L254.399 201.266
L254.488 201.184
L255.113 201.752
L255.292 201.847
L255.381 201.953
L255.47 201.883
L255.738 202.268
L256.006 202.557
L256.899 202.858
L258.06 203.508
L258.238 203.712
L258.327 203.725
L258.952 204.463
L259.399 204.444
L259.577 204.791
L260.559 205.139
L260.738 205.32
L261.095 205.225
L261.452 205.298
L262.524 206.426
L262.613 206.427
L262.881 206.702
L263.327 206.832
L263.506 206.732
L263.863 206.802
L264.934 206.943
L265.202 207.197
L265.38 207.386
L265.827 207.891
L265.916 207.892
L266.273 208.324
L266.72 208.413
L266.809 208.382
L266.988 208.21
L267.166 208.346
L267.434 208.426
L267.791 208.383
L268.059 208.551
L268.148 208.618
L268.327 208.521
L268.416 208.519
L268.684 208.788
L268.862 208.878
L269.22 209.327
L269.487 209.346
L269.755 209.609
L270.112 209.68
L270.291 209.894
L270.559 209.804
L270.737 209.84
L270.827 209.811
L271.005 209.917
L271.094 209.916
L271.273 210.05
L271.362 210.056
L271.541 210.178
L271.809 210.124
L272.076 210.181
L272.344 210.259
L272.434 210.21
L272.791 210.585
L273.326 210.796
L273.773 211.108
L273.951 211.308
L274.219 211.347
L274.398 211.204
L274.666 211.35
L274.844 211.216
L275.291 211.277
L275.916 211.355
L277.612 212.424
L277.79 212.329
L277.969 212.419
L278.326 212.422
L278.951 212.635
L279.219 212.708
L279.487 212.798
L279.576 212.736
L279.933 213.079
L280.112 213.122
L280.558 213.495
L281.183 213.582
L281.451 213.366
L281.629 213.364
L281.897 213.63
L282.879 213.646
L283.236 213.86
L283.594 213.911
L283.772 214.18
L283.951 214.226
L284.219 214.277
L284.486 214.47
L285.29 214.491
L285.736 214.526
L286.004 214.42
L286.54 214.495
L286.897 214.582
L287.254 214.617
L287.968 215.301
L288.593 215.252
L288.772 215.07
L288.95 215.161
L289.308 215.235
L289.486 215.354
L289.754 215.417
L290.379 215.417
L290.915 215.694
L291.45 215.785
L292.968 216.236
L293.325 216.232
L293.772 216.279
L294.396 216.644
L294.664 216.925
L294.843 217.074
L295.2 217.324
L295.468 217.494
L295.736 217.516
L295.914 217.483
L296.182 217.559
L296.361 217.655
L296.807 217.718
L297.075 217.786
L297.432 217.971
L297.878 218.327
L298.414 218.666
L298.593 218.999
L298.95 219.212
L299.307 219.222
L299.664 219.305
L299.932 219.237
L300.378 219.361
L300.557 219.484
L300.825 219.683
L301.092 219.736
L302.878 220.663
L304.039 221.014
L304.307 221.12
L304.664 221.175
L304.842 221.327
L305.289 221.483
L305.378 221.48
L305.646 221.84
L305.914 221.917
L306.092 221.945
L306.449 221.917
L306.628 221.827
L308.056 222.044
L309.128 222.379
L309.306 222.368
L309.485 222.555
L310.02 222.823
L311.36 222.892
L311.628 223.007
L311.985 223.11
L312.342 223.322
L313.056 223.836
L315.288 224.304
L316.716 225.007
L318.413 225.336
L318.591 225.351
L318.859 225.486
L319.216 225.786
L319.306 225.788
L319.752 226.33
L320.288 226.48
L320.823 226.559
L321.18 226.648
L321.984 226.733
L323.323 227.355
L323.591 227.46
L324.216 227.706
L325.912 227.813
L326.269 228.032
L326.716 228.124
L326.984 228.389
L327.341 228.633
L328.412 228.696
L328.591 228.846
L329.216 228.891
L329.394 228.913
L329.841 228.978
L330.019 229.201
L330.287 229.299
L330.466 229.429
L330.555 229.377
L331.001 229.732
L331.269 229.774
L331.448 229.881
L331.805 229.924
L332.073 229.977
L332.251 230.117
L332.608 230.164
L332.965 230.259
L333.233 230.377
L333.501 230.477
L333.769 230.676
L334.215 230.806
L334.572 231.01
L334.84 231.147
L336.001 231.226
L336.269 231.367
L336.447 231.411
L336.715 231.579
L336.894 231.682
L337.072 231.923
L337.429 232.156
L337.965 232.694
L340.286 232.775
L340.465 233.026
L340.822 233.279
L341.179 233.271
L341.447 233.402
L341.715 233.487
L341.983 233.621
L343.322 233.69
L343.768 233.915
L344.036 234.272
L344.215 234.31
L344.483 234.357
L345.375 234.755
L345.643 234.721
L346.357 234.815
L346.625 234.86
L347.161 234.949
L347.34 235.063
L347.607 235.159
L348.411 235.67
L348.589 235.735
L349.214 236.088
L349.661 236.035
L350.018 236.12
L351.625 236.178
L351.893 236.362
L352.161 236.357
L352.339 236.58
L352.428 236.56
L352.607 236.763
L352.964 236.815
L354.482 236.872
L354.839 237.227
L355.375 237.335
L355.553 237.324
L356.178 237.82
L357.696 237.913
L358.946 238.535
L359.124 238.643
L360.017 239.007
L360.196 238.943
L361.981 238.991
L362.339 239.202
L362.696 239.464
L362.964 239.56
L363.231 239.623
L363.41 239.72
L364.303 239.826
L364.749 239.949
L365.196 240.01
L366.178 240.612
L366.535 240.583
L366.713 240.732
L366.892 240.968
L367.249 240.832
L368.052 240.956
L368.41 240.793
L368.767 240.941
L368.945 240.951
L369.213 241.217
L369.57 241.26
L369.749 241.348
L369.927 241.373
L370.106 241.56
L370.463 241.586
L370.731 241.714
L370.909 241.642
L371.177 241.693
L371.445 241.754
L371.892 241.868
L372.07 241.84
L372.338 241.878
L373.766 242.466
L376.623 242.809
L376.891 243.029
L377.248 243.096
L377.427 243.21
L377.516 243.129
L377.695 243.281
L380.016 243.389
L381.177 244.046
L381.444 244.197
L382.694 244.315
L383.319 244.533
L383.766 244.893
L384.123 244.989
L385.373 245.306
L385.819 245.305
L386.087 245.375
L386.444 245.448
L386.623 245.565
L387.069 245.363
L387.516 245.733
L387.783 245.747
L387.962 245.908
L388.408 245.985
L388.587 246.117
L390.105 246.232
L390.64 246.702
L390.819 246.764
L392.962 247.283
L393.497 247.191
L393.765 247.27
L394.836 247.679
L395.104 247.753
L395.551 248.02
L395.997 248.185
L397.515 248.109
L397.693 248.035
L397.961 248.215
L398.14 248.364
L399.658 248.918
L400.015 248.96
L400.461 249.085
L400.64 248.987
L400.997 249.006
L401.175 249.255
L402.157 249.357
L402.604 249.541
L403.05 249.465
L403.318 249.614
L403.497 249.535
L404.657 249.646
L405.729 250.491
L406.086 250.6
L406.621 250.651
L406.8 250.63
L407.068 250.614
L407.246 250.675
L407.425 250.688
L407.693 250.741
L408.05 250.738
L408.228 250.884
L409.3 251.098
L409.746 251.374
L409.836 251.263
L410.014 251.325
L410.46 251.384
L410.728 251.512
L410.996 251.47
L411.264 251.639
L411.71 251.777
L412.514 252.073
L412.871 252.327
L413.05 252.421
L414.121 252.782
L414.478 252.751
L415.014 252.81
L415.371 252.828
L415.907 253.272
L415.996 253.313
L416.174 253.273
L416.621 253.492
L416.889 253.689
L417.156 253.79
L417.424 253.836
L419.478 253.853
L419.746 254.093
L419.924 254.15
L420.281 254.344
L420.371 254.328
L420.638 254.515
L420.906 254.543
L421.353 254.607
L421.531 254.501
L422.603 254.571
L423.495 254.856
L423.674 254.808
L424.745 255.047
L425.102 255.016
L425.37 255.05
L425.727 254.906
L426.709 254.992
L427.245 255.31
L427.424 255.393
L427.513 255.513
L427.692 255.465
L428.227 255.485
L428.406 255.53
L428.763 255.481
L429.031 255.525
L432.066 256.267
L433.227 256.345
L433.495 256.434
L433.763 256.526
L434.209 256.903
L434.923 256.98
L435.191 257.028
L435.905 257.124
L436.352 257.286
L436.977 257.384
L437.334 257.631
L437.602 257.62
L437.869 257.828
L438.584 258
L439.298 257.961
L439.923 257.862
L440.459 257.874
L440.637 257.973
L440.994 257.993
L441.351 258.099
L441.53 258.17
L441.887 258.324
L442.066 258.317
L442.244 258.449
L443.226 258.535
L443.762 258.707
L444.03 258.682
L444.208 258.64
L444.387 258.737
L444.476 258.649
L444.833 258.928
L445.101 258.941
L445.28 259.083
L446.53 259.313
L447.422 259.34
L448.137 259.399
L448.404 259.492
L449.119 259.576
L449.387 259.633
L451.261 259.708
L452.511 260.318
L452.69 260.394
L453.315 260.613
L453.851 260.66
L454.386 260.692
L456.172 261.343
L456.35 261.442
L458.85 261.558
L459.564 261.843
L459.832 261.992
L462.064 262.079
L462.332 262.117
L462.6 262.048
L463.582 262.389
L463.939 262.392
L464.386 262.541
L464.743 262.578
L468.492 263.01
L468.671 263.005
L469.653 263.41
L470.189 263.482
L470.367 263.52
L470.546 263.565
L470.724 263.745
L470.903 263.728
L471.528 263.76
L471.796 263.917
L472.242 264.02
L473.046 264.078
L473.492 264.273
L474.028 264.343
L474.206 264.273
L474.653 264.371
L475.188 264.537
L475.903 264.557
L476.081 264.692
L476.617 264.702
L476.796 264.814
L477.153 264.914
L477.599 264.974
L477.867 264.933
L478.313 265.051
L478.581 265.136
L479.117 265.18
L480.188 265.263
L481.527 265.78
L482.152 265.799
L483.045 265.838
L483.313 265.943
L483.492 266.03
L485.277 266.502
L486.17 266.563
L486.438 266.705
L486.884 266.744
L487.063 266.84
L487.241 266.85
L489.473 266.973
L489.92 267.001
L490.455 267.075
L490.634 267.157
L491.259 267.227
L491.437 267.327
L491.616 267.369
L492.062 267.638
L492.955 267.737
L494.562 268.137
L494.83 268.336
L495.009 268.385
L495.276 268.304
L495.634 268.592
L496.259 268.812
L496.526 268.793
L497.598 268.858
L497.776 268.909
L498.133 268.871
L499.026 269.063
L499.205 269.065
L499.473 269.134
L499.83 269.156
L500.633 269.215
L501.08 269.331
L502.597 269.59
L502.955 269.649
L504.383 269.54
L504.919 269.566
L505.454 269.75
L505.722 269.809
L507.151 269.917
L507.865 269.945
L508.758 270.127
L509.026 270.276
L509.383 270.371
L510.186 270.634
L511.079 270.814
L512.686 271.013
L513.222 271.305
L514.561 271.371
L514.829 271.412
L515.9 271.503
L516.436 271.656
L516.614 271.6
L516.793 271.652
L517.061 271.798
L517.329 271.81
L517.864 271.852
L518.311 271.874
L518.311 271.874" style="fill:none;stroke:#008000;stroke-dasharray:1.000000,1.000000;stroke-dashoffset:0.0;"/>
   </g>
   <g id="line2d_3">
    <path clip-path="url(#p7ff5b81e1d)" d="
M72 324.623
L72.0893 312.167
L72.2678 300.737
L72.8035 318.025
L72.8928 320.63
L73.1606 336.546
L73.607 355.404
L74.4998 370.55
L74.5891 371.073
L75.0355 376.873
L75.5712 380.577
L75.7498 382.042
L75.839 382.183
L76.6426 385.381
L77.089 386.568
L77.4461 387.049
L77.5354 387.252
L77.6246 387.17
L78.4282 387.727
L78.6067 387.674
L79.321 388.055
L79.5888 388.156
L80.8387 388.46
L81.4637 388.491
L81.6422 388.038
L84.1421 388.328
L84.4992 388.299
L84.6778 388.179
L84.9456 388.163
L86.017 388.271
L86.1955 387.986
L87.3562 388.067
L88.6954 388.158
L89.856 388.161
L90.0346 388.018
L93.1594 387.97
L93.3379 387.857
L94.945 387.901
L95.1235 387.654
L95.4806 387.556
L96.1056 387.546
L96.2842 387.447
L97.3555 387.432
L97.5341 387.154
L99.3197 387.088
L99.4982 386.942
L101.105 386.928
L101.552 386.876
L102.534 386.712
L102.98 386.613
L103.069 386.58
L103.248 386.231
L104.052 386.19
L104.319 386.003
L105.48 386.044
L106.105 385.887
L106.284 385.665
L107.176 385.624
L107.444 385.613
L107.891 385.592
L108.069 385.449
L108.426 385.464
L108.605 385.247
L109.051 385.202
L110.033 384.886
L110.212 384.756
L110.569 384.75
L111.015 384.692
L111.194 384.107
L111.372 384.13
L111.551 384.031
L111.997 384.011
L112.355 383.514
L112.712 383.508
L112.98 383.334
L113.158 383.298
L113.426 383.288
L113.604 383.206
L113.962 383.186
L114.497 382.826
L114.765 382.81
L114.944 382.722
L115.479 382.701
L115.569 382.655
L115.747 382.328
L116.64 382.218
L116.819 382.041
L116.908 382.049
L117.086 381.913
L118.247 381.681
L118.426 381.643
L118.872 381.718
L119.318 381.512
L119.765 381.418
L119.943 381.325
L120.479 381.331
L120.658 381.094
L121.372 380.971
L122.086 380.381
L122.265 380.427
L122.443 380.258
L122.532 380.277
L122.8 380.034
L123.425 380.077
L123.782 379.923
L124.407 379.823
L124.764 379.568
L124.943 379.493
L125.122 379.236
L125.479 379.194
L126.193 379.158
L126.639 378.964
L126.818 378.856
L126.996 378.831
L127.175 378.567
L127.354 378.432
L127.621 378.436
L127.8 378.217
L129.139 378.006
L129.318 377.691
L129.407 377.695
L129.853 377.283
L130.389 377.236
L130.657 376.928
L130.925 376.862
L133.425 376.334
L133.692 376.354
L133.96 376.291
L134.139 376.076
L134.853 376.062
L135.3 375.882
L135.478 375.776
L135.835 375.493
L136.282 375.513
L136.549 375.451
L137.085 374.783
L137.71 374.598
L137.978 374.465
L138.692 374.371
L138.96 374.309
L139.228 374.398
L139.674 374.094
L140.031 374.085
L140.121 374.044
L140.388 373.398
L140.567 373.388
L140.835 373.351
L141.103 373.326
L141.46 373.303
L141.728 373.129
L141.906 372.986
L141.996 372.987
L142.174 372.552
L142.353 372.363
L142.71 372.389
L142.978 372.153
L143.156 372.152
L143.335 372.046
L143.513 372.118
L143.781 372.016
L144.763 371.889
L145.031 371.656
L145.299 371.555
L145.477 371.627
L145.567 371.311
L145.656 371.354
L145.835 371.261
L146.013 371.083
L146.281 371.056
L146.46 370.949
L146.906 370.871
L147.352 370.67
L147.531 370.482
L147.799 370.459
L147.977 370.37
L148.156 370.369
L148.334 370.339
L148.692 370.42
L149.138 370.161
L149.227 370.163
L149.495 369.732
L150.477 369.527
L150.656 369.446
L150.745 369.495
L150.924 369.341
L151.102 369.328
L151.995 368.89
L152.263 368.887
L152.531 368.835
L152.709 368.8
L152.888 368.504
L153.066 368.533
L153.513 368.169
L153.691 367.99
L154.138 367.851
L155.388 368.306
L155.655 368.018
L155.834 368.057
L156.012 368.027
L157.262 367.599
L157.441 367.452
L157.62 367.347
L158.155 367.214
L158.334 367.125
L158.512 367.052
L159.941 366.755
L160.119 366.553
L160.387 366.544
L161.012 366.5
L161.369 366.13
L162.173 366.108
L162.351 365.886
L162.887 365.933
L163.155 365.759
L163.333 365.759
L163.512 365.453
L163.869 365.383
L165.119 364.796
L165.208 364.45
L165.298 364.491
L165.387 364.488
L165.565 364.315
L165.744 364.363
L165.923 364.261
L166.369 364.192
L166.726 363.79
L167.172 363.67
L167.44 363.538
L167.708 363.501
L167.887 363.265
L168.155 363.236
L168.422 363.223
L168.601 363.155
L168.78 363.088
L169.047 363.191
L169.226 363.126
L169.404 363.234
L169.494 363.219
L169.672 363.044
L169.762 363.055
L169.94 362.948
L170.387 362.785
L170.476 362.825
L171.101 362.166
L171.458 362.208
L172.172 362.095
L172.261 362.147
L172.44 362.089
L172.708 362.133
L173.065 361.977
L173.601 362.148
L174.047 362.104
L174.493 362.075
L174.672 361.956
L175.654 361.718
L176.279 361.468
L176.458 361.495
L176.636 361.357
L176.993 361.441
L177.172 361.178
L177.35 361.184
L178.154 360.566
L178.422 360.48
L179.136 360.124
L179.315 359.939
L180.297 359.747
L180.564 359.912
L181.1 359.967
L181.279 359.87
L181.814 360.01
L182.172 359.952
L182.707 359.84
L183.6 360.01
L183.957 359.872
L184.314 359.873
L184.582 359.939
L184.761 359.832
L185.028 359.824
L185.207 359.689
L186.278 359.739
L186.725 359.724
L186.993 359.457
L188.421 359.428
L188.6 359.273
L188.868 359.249
L189.939 358.979
L190.117 358.952
L190.475 358.914
L190.832 358.999
L191.01 358.888
L191.903 358.98
L192.26 358.834
L192.707 358.844
L192.885 358.721
L193.242 358.736
L193.421 358.589
L194.403 358.439
L194.581 358.53
L195.206 358.617
L195.474 358.503
L196.099 358.586
L196.456 358.574
L196.724 358.395
L196.903 358.35
L197.081 358.208
L197.349 358.162
L197.528 358.291
L197.706 358.215
L198.51 358.379
L199.403 357.938
L201.545 357.828
L201.724 357.884
L201.902 357.876
L202.527 358.084
L202.884 357.804
L203.242 357.775
L203.42 357.649
L204.581 357.465
L204.938 357.108
L205.116 357.167
L205.652 356.967
L205.92 357.098
L206.099 356.977
L207.259 356.712
L207.616 356.657
L208.331 356.688
L208.509 356.704
L208.688 356.825
L209.045 356.735
L209.134 356.794
L209.58 356.509
L209.759 356.445
L210.205 356.12
L211.009 355.966
L211.366 355.836
L211.455 355.858
L211.545 355.632
L211.634 355.684
L211.812 355.594
L212.17 355.761
L212.527 355.881
L212.705 355.725
L213.687 355.507
L213.955 355.113
L214.223 355.079
L214.669 354.854
L214.848 354.822
L215.294 354.894
L215.473 354.761
L215.83 354.708
L215.919 354.764
L216.098 354.668
L216.634 354.789
L216.901 354.63
L217.259 354.516
L217.973 354.437
L218.151 354.357
L218.776 354.507
L219.044 354.49
L219.133 354.519
L219.223 354.384
L219.312 354.444
L219.937 354.594
L220.294 354.541
L220.562 354.439
L221.723 354.195
L221.901 353.923
L221.99 353.959
L222.08 353.788
L222.258 353.882
L222.705 353.659
L223.062 353.829
L223.419 353.843
L223.508 353.883
L223.597 353.752
L223.865 353.838
L224.222 353.867
L224.847 353.74
L225.115 353.629
L225.472 353.485
L225.651 353.42
L226.008 353.229
L226.454 353.329
L226.722 353.364
L226.812 353.254
L226.901 353.34
L227.079 353.3
L227.169 353.336
L227.347 353.091
L227.615 353.056
L227.883 353.013
L227.972 353.057
L228.151 352.88
L228.24 352.866
L228.419 352.67
L228.865 352.695
L229.133 352.652
L229.311 352.58
L229.579 352.506
L230.74 352.739
L231.008 352.596
L232.704 352.5
L232.793 352.198
L232.883 352.229
L233.24 352.295
L233.418 352.357
L233.597 352.255
L233.775 352.271
L233.865 352.293
L234.043 352.233
L234.222 352.22
L234.4 352.243
L234.847 352.395
L235.025 352.151
L235.472 352.177
L235.65 352.007
L236.186 352.042
L236.632 352.041
L236.9 351.966
L237.079 352.029
L237.257 351.847
L238.061 351.697
L238.329 351.76
L239.221 351.701
L239.311 351.734
L239.489 351.644
L242.168 351.413
L242.346 351.345
L242.793 351.291
L243.06 351.243
L243.775 351.238
L244.043 351
L244.489 350.981
L244.757 350.634
L245.56 350.542
L246.81 350.393
L246.989 350.299
L247.167 350.332
L247.346 350.122
L247.703 350.167
L248.417 350.054
L248.596 350.091
L249.042 350.098
L249.221 350.063
L250.024 350.081
L250.203 350.123
L250.739 350.13
L250.917 349.894
L251.006 349.97
L251.274 349.8
L251.988 349.961
L252.167 349.847
L252.435 349.849
L252.703 349.801
L252.971 349.826
L254.399 349.752
L254.578 349.846
L254.845 349.789
L255.292 349.77
L256.81 349.718
L257.256 349.544
L257.613 349.546
L257.792 349.547
L258.238 349.557
L259.131 349.674
L259.488 349.746
L259.667 349.781
L259.845 349.648
L259.934 349.677
L260.113 349.544
L260.559 349.51
L260.738 349.369
L260.916 349.332
L261.184 349.392
L261.274 349.434
L261.452 349.359
L262.256 349.514
L262.434 349.562
L262.791 349.774
L262.97 349.742
L263.148 349.805
L263.506 349.902
L263.595 349.922
L263.773 349.823
L264.041 349.862
L264.756 349.817
L266.541 349.841
L266.72 349.948
L267.166 349.93
L267.434 349.92
L267.791 349.904
L268.059 349.736
L268.237 349.663
L268.952 349.708
L269.13 349.726
L269.398 349.726
L269.487 349.764
L269.755 349.58
L270.559 349.83
L270.827 349.861
L271.184 349.703
L271.362 349.632
L271.541 349.467
L272.701 349.676
L273.416 349.899
L274.308 349.766
L274.844 349.684
L276.808 349.564
L277.523 349.749
L278.415 349.659
L278.594 349.543
L280.29 349.664
L281.094 349.824
L281.719 349.907
L281.987 349.752
L282.344 349.792
L282.433 349.814
L282.79 349.528
L283.058 349.531
L283.236 349.456
L283.415 349.43
L284.397 349.698
L285.201 349.661
L287.165 349.68
L287.7 349.882
L287.879 349.669
L288.325 349.706
L288.593 349.666
L288.95 349.73
L289.129 349.745
L289.397 349.487
L289.665 349.533
L289.932 349.493
L290.29 349.625
L290.915 349.627
L291.897 349.663
L292.254 349.665
L292.432 349.68
L292.611 349.537
L293.593 349.482
L294.218 349.645
L294.664 349.628
L295.111 349.684
L295.289 349.533
L295.646 349.535
L296.807 349.393
L296.986 349.286
L297.253 349.254
L297.789 349.358
L299.128 349.59
L299.753 349.666
L300.468 349.627
L301.092 349.499
L302.61 349.581
L302.967 349.338
L303.324 349.278
L304.396 349.035
L304.664 349.097
L305.289 349.064
L306.003 349.104
L306.271 349.066
L306.628 349.148
L306.985 349.104
L307.253 348.948
L307.431 349.02
L307.61 348.939
L309.574 348.972
L309.931 348.841
L310.11 348.744
L310.467 348.775
L310.735 348.669
L311.449 348.57
L311.806 348.575
L312.342 348.672
L312.61 348.728
L312.788 348.693
L313.235 348.731
L313.77 348.746
L313.949 348.659
L314.395 348.689
L315.288 348.413
L316.181 348.515
L316.449 348.464
L316.716 348.444
L317.163 348.432
L317.341 348.373
L318.056 348.379
L318.502 348.431
L319.038 348.551
L319.306 348.591
L319.484 348.699
L319.663 348.656
L320.734 348.829
L321.359 348.788
L323.055 348.816
L323.323 348.857
L327.073 349.071
L327.787 349.264
L328.412 349.195
L328.591 349.091
L330.376 349.267
L330.555 349.209
L332.073 349.399
L332.251 349.161
L332.698 349.109
L334.305 349.155
L334.483 349.097
L334.751 349.022
L335.555 349.094
L336.626 348.842
L338.769 349.134
L339.036 349.063
L339.304 349.069
L339.572 348.984
L340.911 349.138
L342.072 349.182
L342.876 349.053
L343.233 348.986
L343.411 348.903
L343.679 348.841
L343.858 348.804
L344.215 348.906
L344.572 348.964
L344.75 348.953
L347.607 348.906
L348.589 349.062
L348.768 348.992
L349.482 349.08
L349.75 348.875
L350.018 348.897
L351.625 348.984
L351.982 349.163
L352.428 349.237
L352.607 349.219
L352.786 349.17
L353.053 349.284
L353.5 349.215
L355.732 349.197
L355.91 349.132
L356.982 349.169
L357.16 349.029
L357.785 349.099
L357.964 349.023
L359.482 349.098
L359.66 349.068
L359.839 349.033
L360.821 348.921
L361.178 349.005
L361.892 349.011
L362.16 349.093
L363.41 349.024
L363.946 349.037
L364.303 348.947
L364.571 348.892
L365.017 348.925
L365.285 348.825
L365.999 348.891
L366.267 348.88
L367.428 349.16
L367.874 349.157
L368.41 349.216
L368.588 349.002
L368.856 349.014
L369.213 349.059
L370.909 349.233
L371.445 349.189
L371.713 349.076
L371.981 349.062
L372.159 348.968
L372.516 349.053
L372.963 349.194
L373.141 349.098
L373.409 349.114
L373.588 348.98
L374.034 349.067
L374.927 348.961
L375.463 348.918
L375.731 348.688
L376.891 348.815
L377.338 349.039
L377.516 349.033
L377.695 349.137
L379.48 349.105
L379.659 349.039
L381.087 349.189
L381.266 349.044
L381.802 348.952
L381.98 348.959
L382.248 348.968
L383.498 348.969
L383.676 348.831
L384.391 348.786
L384.659 348.966
L384.926 348.971
L385.105 348.901
L385.73 348.948
L387.069 348.895
L387.605 348.926
L389.39 348.877
L389.748 348.888
L389.837 348.895
L390.015 348.785
L390.194 348.812
L390.372 348.634
L390.462 348.683
L390.64 348.604
L391.89 348.786
L392.515 348.503
L393.319 348.505
L393.765 348.417
L394.301 348.574
L394.479 348.451
L395.997 348.597
L396.89 348.593
L397.068 348.476
L397.336 348.499
L397.961 348.637
L398.051 348.676
L398.318 348.535
L398.586 348.527
L398.765 348.441
L398.854 348.478
L399.033 348.281
L399.39 348.331
L399.568 348.252
L400.015 348.156
L400.372 348.066
L402.961 348.174
L403.407 348.246
L403.675 348.184
L403.943 348.217
L404.3 347.99
L405.461 347.949
L405.818 348.003
L407.068 348.071
L407.246 347.979
L407.336 348.013
L407.604 347.812
L408.943 347.903
L409.3 348.02
L409.478 347.967
L409.836 348.022
L410.193 348.039
L410.728 347.831
L411.175 347.778
L411.353 347.685
L412.157 347.71
L412.514 347.736
L412.782 347.655
L417.603 348.095
L417.871 348.183
L418.139 348.125
L418.317 348.09
L419.478 348.044
L419.656 347.996
L420.728 348.159
L421.263 348.026
L422.692 348.211
L424.567 348.354
L425.102 348.303
L425.37 348.281
L426.084 348.29
L427.067 348.265
L427.959 348.467
L430.281 348.454
L430.459 348.404
L431.709 348.563
L432.156 348.548
L432.334 348.427
L432.691 348.328
L432.959 348.176
L433.673 348.272
L433.852 348.227
L434.834 348.331
L434.923 348.367
L435.102 348.28
L436.173 348.155
L436.441 348.11
L436.977 348.156
L437.244 348.181
L438.673 348.291
L439.387 348.245
L440.459 348.298
L440.816 348.482
L441.173 348.606
L441.441 348.644
L441.619 348.679
L442.066 348.787
L442.333 348.719
L442.869 348.699
L443.137 348.497
L443.494 348.416
L443.762 348.225
L444.476 348.381
L444.744 348.449
L445.012 348.473
L445.726 348.459
L446.083 348.411
L446.708 348.437
L446.976 348.457
L447.155 348.451
L447.78 348.563
L448.226 348.522
L449.029 348.649
L449.208 348.595
L449.654 348.613
L449.922 348.568
L451.083 348.566
L451.351 348.453
L453.047 348.627
L453.226 348.558
L454.833 348.218
L455.1 348.299
L457.243 348.394
L457.511 348.41
L463.939 348.505
L464.921 348.16
L466.26 348.25
L466.618 348.336
L467.153 348.388
L468.582 348.334
L468.939 348.25
L469.475 348.108
L470.903 348.072
L471.528 348.017
L471.796 347.798
L473.492 347.971
L474.742 348.121
L474.921 347.949
L475.456 347.95
L476.706 347.892
L477.42 347.971
L477.688 348.035
L478.135 348.139
L478.403 348.208
L480.277 348.182
L480.456 347.925
L481.974 347.888
L482.42 347.89
L484.474 347.576
L484.652 347.502
L486.348 347.504
L489.473 347.441
L492.33 347.166
L492.509 347.075
L493.58 346.981
L493.759 346.915
L494.384 346.9
L495.009 346.871
L495.544 346.994
L495.812 347.064
L496.08 346.987
L496.616 347.006
L497.508 346.945
L497.776 346.792
L498.044 346.917
L499.294 346.77
L499.473 346.64
L505.454 346.754
L505.722 346.573
L506.169 346.62
L506.347 346.614
L509.829 346.807
L510.097 346.804
L510.811 346.709
L511.079 346.664
L511.704 346.58
L511.972 346.493
L512.418 346.42
L512.686 346.353
L513.757 346.319
L514.025 346.372
L514.561 346.264
L514.829 346.194
L515.989 346.119
L516.257 346.081
L517.418 346.073
L517.686 346.036
L518.311 345.998
L518.311 345.998" style="fill:none;stroke:#ff0000;stroke-dasharray:3.000000,6.000000;stroke-dashoffset:0.0;"/>
   </g>
   <g id="line2d_4">
    <path clip-path="url(#p7ff5b81e1d)" d="
M72 312.993
L72.0893 301.765
L72.0893 301.765
L72.0893 301.765
L72.2678 306.802
L72.3571 304.944
L72.7142 316.624
L72.8928 324.179
L73.1606 341.456
L73.7856 362.996
L74.1427 371.778
L74.4998 377.48
L75.1248 383.216
L75.7498 385.851
L76.0176 385.964
L76.1962 386.283
L77.089 387.538
L77.2675 387.291
L77.6246 387.683
L77.7139 387.517
L77.8032 387.574
L78.1603 387.803
L78.8746 388.17
L81.0173 388.569
L81.1958 388.486
L84.4099 388.669
L86.017 388.727
L86.3741 388.712
L90.8381 388.718
L97.9805 388.494
L99.409 388.423
L99.7661 388.397
L101.195 388.353
L101.373 388.255
L105.748 388.243
L106.194 388.191
L107.444 388.186
L107.623 388.073
L108.873 388.01
L111.015 387.987
L111.194 387.864
L113.604 387.857
L114.14 387.845
L118.336 387.886
L119.14 387.875
L121.015 387.849
L125.211 387.822
L125.389 387.72
L130.032 387.709
L130.211 387.504
L132.353 387.488
L133.514 387.53
L142.71 387.738
L142.978 387.678
L143.603 387.548
L150.209 387.682
L152.709 387.75
L156.995 387.891
L162.887 387.934
L166.905 387.968
L172.351 387.963
L175.029 387.986
L175.208 387.866
L179.404 387.998
L179.94 387.992
L180.832 388.001
L181.011 387.746
L188.51 387.669
L188.868 387.619
L198.956 387.708
L199.135 387.473
L199.938 387.416
L200.206 387.285
L202.17 387.311
L202.349 387.228
L205.831 387.28
L207.348 387.239
L213.152 387.363
L219.133 387.39
L219.401 387.347
L235.829 387.49
L236.007 387.406
L263.863 387.347
L264.131 387.282
L265.559 387.291
L270.469 387.344
L271.273 387.263
L277.433 387.337
L277.79 387.307
L283.058 387.364
L283.326 387.306
L289.575 387.333
L289.932 387.304
L295.111 387.383
L300.021 387.327
L300.2 387.172
L303.235 387.188
L306.896 387.178
L307.074 387.057
L307.253 387.066
L307.431 386.876
L318.234 386.88
L318.591 386.852
L321.359 386.863
L348.857 386.948
L352.964 386.953
L353.411 386.932
L355.732 386.946
L356.268 386.856
L358.946 386.854
L363.946 386.931
L370.017 387.043
L371.713 387.035
L372.338 387.037
L378.498 387.024
L387.337 386.91
L389.48 386.933
L399.3 386.98
L399.568 386.925
L424.745 386.803
L425.995 386.777
L429.12 386.778
L486.348 386.702
L492.509 386.671
L506.169 386.567
L506.526 386.532
L513.757 386.407
L514.025 386.375
L518.311 386.314
L518.311 386.314" style="fill:none;stroke:#00bfbf;stroke-dasharray:5.000000,1.000000,2.000000,1.000000,5.000000,1.000000;stroke-dashoffset:0.0;"/>
   </g>
   <g id="line2d_5">
    <path clip-path="url(#p7ff5b81e1d)" d="
M72 319.039
L72.0893 305.397
L72.1786 301.857
L72.2678 300.552
L72.3571 300.793
L72.5357 304.18
L73.7856 361.174
L74.0534 367.819
L74.857 379.839
L75.2141 381.998
L75.3926 382.985
L75.5712 383.644
L75.6605 383.897
L75.7498 383.835
L75.839 383.804
L75.9283 383.637
L76.1962 384.031
L76.2854 383.497
L76.3747 383.583
L76.464 383.563
L76.5533 383.873
L76.7318 383.598
L76.8211 383.639
L77.2675 383.193
L78.071 385.32
L79.0531 386.625
L79.4102 386.393
L79.4995 386.495
L80.303 385.811
L80.7494 385.774
L81.0173 385.681
L81.1958 385.769
L81.2851 385.678
L81.9994 386.167
L82.535 386.411
L82.6243 386.446
L82.8922 386.038
L83.2493 385.75
L83.785 385.381
L83.9635 385.342
L84.4099 384.86
L85.1242 385.232
L86.1955 385.57
L86.3741 385.299
L86.6419 385.132
L87.0883 384.376
L87.9811 382.552
L88.5168 382.488
L89.856 382.774
L90.1238 382.414
L90.6595 381.658
L91.2845 379.96
L91.6416 379.85
L91.8202 379.848
L91.9987 379.884
L92.4451 379.932
L92.8915 379.945
L93.0701 379.812
L93.3379 379.834
L93.695 379.031
L93.7843 379.005
L93.9629 378.53
L94.1414 378.497
L94.32 378.182
L94.6771 377.591
L94.945 376.92
L95.3021 376.481
L96.2842 376.225
L96.6413 376.205
L96.9091 376.292
L97.3555 375.04
L97.6234 374.777
L97.8019 374.283
L98.0698 373.987
L98.6054 372.817
L98.9626 372.267
L99.4982 372.302
L99.6768 372.136
L100.123 372.097
L100.48 372.087
L101.373 370.654
L102.266 368.962
L102.534 368.906
L102.712 368.705
L102.891 368.666
L104.052 368.877
L104.587 367.823
L104.676 367.787
L104.855 367.28
L105.659 365.657
L105.926 365.008
L107.444 365.065
L107.623 365.097
L107.712 365.02
L108.069 364.108
L109.408 361.014
L109.855 361
L110.212 360.799
L110.48 360.919
L111.015 360.985
L111.194 361.077
L111.819 360.118
L112.712 358.315
L113.158 357.26
L113.337 357.185
L113.962 357.215
L114.587 357.263
L114.854 356.898
L115.39 355.657
L115.569 355.147
L116.015 354.362
L116.283 353.746
L116.551 353.501
L116.908 353.483
L117.176 353.169
L117.354 353.131
L117.622 352.973
L118.068 352.963
L118.336 352.949
L118.604 352.109
L118.872 351.275
L119.14 350.869
L119.586 349.979
L120.033 349.406
L120.3 349.24
L120.836 349.094
L121.104 349.062
L121.461 348.992
L121.64 349.021
L121.818 348.918
L121.908 348.964
L122.443 347.771
L122.711 347.571
L123.693 345.473
L124.943 345.079
L125.032 345.149
L125.389 344.832
L125.479 344.841
L125.925 343.714
L126.372 343.416
L126.461 343.428
L126.639 343.189
L126.818 342.913
L127.086 342.321
L127.532 341.737
L127.889 341.672
L128.157 341.591
L128.425 341.46
L128.782 341.231
L128.871 341.192
L129.139 340.731
L129.318 340.393
L129.496 340.142
L129.675 340.004
L130.836 337.625
L131.46 337.574
L132.175 337.22
L132.532 337.319
L132.71 337.119
L133.157 336.4
L133.425 336.237
L133.692 336.076
L134.407 334.631
L134.675 334.711
L135.121 334.681
L135.3 334.51
L135.746 334.497
L136.192 334.471
L136.46 333.991
L136.728 333.719
L137.621 332.069
L137.889 331.653
L138.424 331.558
L138.603 331.472
L139.049 331.685
L139.764 331.707
L139.942 331.325
L140.388 330.995
L141.103 329.458
L141.192 329.419
L141.549 328.662
L141.728 328.615
L141.906 328.663
L142.174 328.58
L142.442 328.645
L142.978 328.452
L143.245 328.516
L143.335 328.484
L143.513 328.107
L143.87 327.869
L144.317 327.14
L144.585 326.718
L144.763 326.281
L145.031 325.796
L145.299 325.476
L145.656 325.706
L146.37 325.768
L146.638 325.603
L146.906 325.671
L147.352 324.917
L147.442 324.901
L148.781 322.517
L149.138 322.643
L150.031 322.604
L150.209 322.587
L150.299 322.479
L150.388 322.55
L150.656 322.404
L150.834 322.101
L151.013 322.161
L151.548 321.407
L151.638 321.461
L151.816 321.184
L152.173 320.532
L152.441 320.421
L152.709 320.416
L153.066 320.262
L153.245 320.192
L153.423 320.271
L153.513 320.207
L153.691 320.386
L153.87 320.271
L154.048 320.231
L154.405 319.587
L155.209 318.769
L155.298 318.757
L155.477 318.25
L155.923 317.512
L156.102 317.536
L156.548 317.611
L157.62 317.903
L158.066 317.311
L158.155 317.256
L158.244 317.384
L158.423 317.117
L158.691 316.846
L158.869 316.655
L159.048 316.534
L159.584 316.232
L160.119 316.357
L160.387 316.191
L160.834 316.066
L161.28 315.985
L161.905 315.038
L162.262 314.737
L162.53 314.382
L162.708 314.35
L162.976 313.709
L163.869 313.954
L164.137 313.978
L164.316 313.874
L164.851 313.67
L166.458 311.278
L166.905 311.303
L166.994 311.319
L167.172 311.166
L167.619 311.478
L167.887 311.481
L168.244 311.421
L168.601 311.064
L170.119 309.402
L170.297 309.307
L170.476 309.24
L170.744 309.253
L170.833 309.263
L170.922 309.11
L171.101 309.224
L171.547 309.108
L171.904 309.196
L172.083 309.041
L173.154 308.309
L173.601 307.532
L173.868 307.313
L174.047 307.263
L175.029 307.015
L175.208 307.033
L175.476 307.149
L175.654 307.09
L175.833 306.735
L175.922 306.734
L177.172 305.116
L177.44 304.88
L177.975 305.128
L178.154 305.052
L179.136 305.075
L179.94 303.683
L180.297 303.46
L180.475 302.728
L180.564 302.746
L180.832 302.326
L181.011 302.494
L181.279 302.551
L181.457 302.578
L181.725 302.698
L182.618 302.664
L182.886 302.168
L182.975 302.116
L183.243 301.701
L183.421 301.664
L183.957 301.062
L184.225 300.817
L184.582 300.458
L184.85 300.375
L185.207 300.368
L185.921 300.412
L186.1 300.473
L186.189 300.564
L186.725 300.2
L187.26 300.013
L187.618 299.564
L187.885 299.398
L188.064 299.173
L188.51 299.263
L188.778 299.387
L189.492 299.292
L189.76 299.389
L190.832 298.819
L190.921 298.842
L191.546 298.23
L191.814 298.09
L191.992 298.087
L193.599 298.138
L194.849 297.046
L195.206 296.258
L196.278 296.336
L196.546 296.496
L196.903 296.524
L197.528 295.788
L197.706 295.867
L198.063 295.252
L198.242 295.126
L198.42 294.88
L198.51 294.893
L198.867 294.224
L198.956 294.166
L199.135 294.243
L199.403 294.269
L199.938 294.153
L200.206 294.231
L200.563 294.183
L201.01 293.727
L201.635 293.122
L201.902 292.706
L202.349 292.373
L202.884 292.781
L203.867 292.694
L204.045 292.831
L204.134 292.821
L204.313 292.413
L204.938 291.848
L205.116 291.631
L205.295 291.536
L205.741 291.062
L205.92 290.725
L206.099 290.708
L206.277 290.701
L206.545 290.674
L206.813 290.644
L207.616 290.656
L208.241 289.95
L208.42 289.995
L208.598 289.821
L208.866 289.573
L209.045 289.536
L209.313 289.296
L209.402 289.353
L209.58 289.13
L209.848 289.163
L210.027 289.268
L211.277 289.366
L211.455 289.032
L211.545 289.112
L212.17 288.171
L212.259 288.156
L212.437 287.887
L212.616 287.908
L213.42 287.071
L213.598 287.126
L213.777 287.113
L214.312 287.365
L214.491 287.297
L214.937 287.299
L215.205 286.942
L215.562 286.49
L216.544 285.65
L216.723 285.513
L217.348 285.595
L218.419 285.478
L218.687 285.226
L218.955 284.838
L219.223 284.385
L219.58 283.843
L219.848 283.495
L219.937 283.498
L220.294 283.022
L220.651 283.052
L220.83 283.1
L221.008 283.115
L222.08 283.185
L222.526 282.612
L222.794 282.41
L222.972 282.189
L223.062 282.223
L223.33 282.092
L223.419 282.136
L223.776 281.701
L224.847 281.92
L225.919 281.957
L226.633 281.079
L226.99 280.839
L227.169 280.715
L227.347 280.695
L228.24 280.747
L228.508 280.753
L229.222 280.816
L229.668 280.271
L230.026 279.933
L230.472 279.543
L230.74 279.228
L231.008 279.179
L231.811 279.152
L232.079 279.202
L232.525 279.237
L232.972 279.084
L233.329 278.415
L233.508 278.406
L233.775 278.359
L233.954 278.229
L234.043 278.231
L234.222 278.124
L234.4 277.91
L234.847 277.563
L235.115 277.597
L236.275 277.571
L236.454 277.413
L236.989 276.996
L237.168 276.892
L237.614 276.594
L238.329 276.126
L238.686 276.105
L238.864 276.14
L239.4 276.091
L239.579 276.026
L239.846 276.05
L240.382 275.736
L240.739 275.407
L240.828 275.398
L241.007 275.26
L241.543 275.073
L242.436 274.991
L242.614 274.898
L243.06 274.905
L243.239 275
L243.418 275.112
L244.132 274.488
L244.4 274.444
L244.578 274.31
L244.668 274.368
L245.025 274.049
L245.114 274.069
L245.292 273.82
L246.542 273.776
L246.721 273.716
L246.989 273.737
L247.257 273.504
L247.435 273.387
L247.703 273.006
L247.882 272.962
L248.417 272.65
L249.042 272.626
L249.578 272.669
L250.292 272.673
L250.471 272.443
L250.649 272.502
L250.828 272.328
L251.096 272.394
L251.81 271.655
L251.899 271.634
L252.167 271.404
L252.435 271.374
L253.774 271.528
L253.953 271.451
L254.22 271.435
L254.488 271.458
L254.845 271.155
L255.828 270.29
L256.095 270.024
L256.631 270.054
L256.988 269.872
L257.256 269.794
L257.613 269.718
L257.792 269.641
L258.149 269.297
L259.042 268.359
L259.399 268.333
L259.577 267.839
L260.113 267.959
L260.292 267.808
L261.095 267.852
L261.452 267.839
L261.899 267.252
L262.256 266.7
L262.613 266.42
L262.791 266.118
L263.327 265.836
L263.506 265.844
L263.595 265.781
L263.773 265.855
L264.041 265.865
L264.398 265.928
L264.577 265.813
L264.934 265.804
L265.113 265.508
L265.291 265.413
L265.738 264.865
L266.005 264.725
L266.184 264.454
L266.363 264.321
L266.541 264.346
L266.72 264.162
L267.88 264.274
L268.059 264.264
L268.416 264.367
L269.309 263.486
L270.112 263.097
L270.291 262.829
L270.559 262.877
L270.737 262.834
L270.827 262.88
L271.005 262.788
L271.541 262.917
L271.809 262.945
L272.076 262.876
L272.255 262.75
L272.434 262.756
L272.791 262.244
L274.219 261.424
L274.398 261.542
L274.666 261.468
L274.844 261.598
L275.291 261.57
L275.648 261.612
L276.183 261.345
L276.451 261.265
L277.433 260.331
L277.701 260.399
L279.308 260.297
L279.487 260.147
L279.576 260.217
L280.022 259.839
L280.201 259.635
L280.558 259.265
L281.362 259.124
L282.612 259.194
L282.79 259.264
L283.415 259.25
L283.683 258.923
L284.486 258.313
L285.826 258.419
L286.183 258.49
L286.451 258.542
L286.629 258.282
L286.808 258.271
L287.076 258.176
L287.254 258.089
L287.79 257.44
L288.683 257.617
L288.772 257.661
L288.95 257.542
L289.932 257.596
L290.2 257.61
L290.557 257.379
L290.647 257.396
L291.004 257.133
L291.182 257.08
L291.45 256.926
L291.897 256.849
L292.164 256.758
L292.879 256.782
L293.147 256.737
L293.682 256.734
L294.307 256.201
L294.664 255.855
L294.843 255.661
L295.736 255.412
L296.004 255.408
L296.361 255.272
L297.343 255.313
L298.414 254.273
L298.593 253.856
L298.95 253.582
L300.021 253.561
L300.2 253.622
L300.914 253.432
L301.092 253.355
L302.61 252.428
L303.86 252.577
L304.485 252.485
L304.842 252.216
L305.199 252.07
L305.378 252.051
L305.646 251.705
L306.449 251.565
L306.806 251.65
L306.896 251.625
L307.074 251.783
L307.61 251.938
L308.681 251.623
L309.038 251.363
L309.306 251.4
L309.663 251.22
L310.199 251.269
L310.645 251.312
L311.092 251.36
L311.806 251.307
L312.788 250.472
L312.877 250.437
L313.056 250.32
L313.324 250.259
L313.502 250.221
L314.038 250.116
L314.306 250.081
L315.02 250.145
L315.645 249.873
L316.002 249.538
L317.252 249.254
L317.788 249.237
L317.966 249.306
L318.413 249.153
L318.681 249.074
L318.859 248.895
L319.216 248.536
L319.306 248.508
L319.573 248.079
L319.931 247.777
L320.109 247.716
L320.377 247.55
L321.627 247.497
L321.984 247.434
L322.252 247.387
L322.877 247
L323.055 246.863
L323.234 246.697
L323.502 246.668
L323.77 246.404
L324.037 246.257
L325.823 246.266
L326.537 245.805
L326.716 245.804
L326.984 245.507
L327.519 245.103
L327.876 245.012
L329.573 244.858
L330.376 244.271
L330.555 244.328
L331.091 243.871
L331.716 243.697
L331.894 243.643
L332.073 243.566
L332.251 243.66
L332.519 243.618
L332.876 243.639
L333.412 243.395
L333.501 243.388
L333.769 243.114
L335.287 242.709
L336.537 242.502
L336.715 242.413
L336.894 242.291
L337.697 241.304
L338.233 240.995
L338.679 240.973
L339.84 241.065
L341.626 240.095
L341.715 240.116
L341.893 240.008
L342.251 240.041
L342.965 240.116
L343.322 240.21
L343.768 240.125
L343.947 239.866
L344.215 239.569
L344.393 239.489
L344.572 239.416
L345.286 239.131
L345.643 239.156
L346.715 239.084
L346.893 239.049
L347.072 239.059
L347.697 238.645
L347.875 238.35
L348.232 238.18
L348.411 238.101
L348.679 238.005
L349.036 237.629
L349.572 237.698
L349.839 237.774
L350.286 237.804
L351.625 237.615
L351.893 237.262
L352.161 237.269
L352.339 236.966
L352.428 236.974
L352.607 236.785
L352.875 236.698
L353.589 236.663
L354.036 236.778
L354.303 236.743
L354.571 236.472
L355.553 236.171
L355.732 236.113
L356 236.087
L356.268 235.811
L356.982 235.923
L357.16 236.002
L357.607 235.86
L358.053 235.778
L358.232 235.756
L358.589 235.412
L359.035 235.209
L359.303 234.908
L360.017 234.795
L360.285 234.889
L361.446 234.849
L361.714 234.789
L361.892 234.869
L362.16 234.57
L362.517 234.43
L362.696 234.213
L362.785 234.268
L362.964 234.174
L363.231 234.132
L363.41 234.027
L363.946 233.992
L365.196 233.979
L365.553 233.689
L366.713 232.976
L366.981 232.692
L367.249 232.738
L367.695 232.636
L368.41 232.709
L368.588 232.808
L368.767 232.746
L368.945 232.74
L369.302 232.355
L369.57 232.305
L369.749 232.179
L370.552 231.763
L371.088 231.804
L371.356 231.749
L371.981 231.828
L372.159 231.833
L372.784 231.439
L373.231 231.235
L373.856 231.174
L374.034 231.091
L374.838 231.181
L375.195 231.249
L375.552 231.32
L375.909 231.405
L376.088 231.321
L376.266 231.33
L377.07 230.687
L377.427 230.514
L377.516 230.543
L377.695 230.285
L380.195 230.247
L380.373 230.06
L380.641 229.901
L380.909 229.769
L381.266 229.513
L381.802 229.483
L381.98 229.43
L382.337 229.501
L382.605 229.478
L383.141 229.497
L383.319 229.271
L383.855 229.031
L384.034 229.066
L384.301 228.896
L385.105 228.538
L385.641 228.543
L386.176 228.492
L386.444 228.523
L386.623 228.399
L387.069 228.548
L387.516 228.11
L387.783 228.066
L388.319 227.859
L388.408 227.861
L388.587 227.73
L388.944 227.79
L389.212 227.747
L390.105 227.76
L390.283 227.65
L390.462 227.59
L391.89 226.906
L392.515 227.009
L392.783 226.951
L393.765 227.038
L394.301 226.6
L394.479 226.627
L395.64 225.968
L395.819 225.937
L396.354 226.008
L396.622 226.067
L396.89 226.005
L397.693 226.139
L397.961 225.898
L398.229 225.809
L398.408 225.709
L398.676 225.691
L399.033 225.645
L399.3 225.538
L400.997 225.678
L401.265 225.495
L401.443 225.483
L402.247 225.241
L402.604 225.054
L403.675 225.147
L404.925 225.231
L405.193 224.889
L405.907 224.246
L406.175 224.255
L406.443 224.196
L408.05 224.326
L408.228 224.138
L408.943 223.971
L409.3 223.716
L409.568 223.566
L409.746 223.452
L409.836 223.542
L410.014 223.451
L411.71 223.344
L412.157 223.135
L412.335 223.043
L412.692 222.935
L413.228 222.524
L414.121 222.221
L414.389 222.256
L414.657 222.175
L415.46 222.103
L415.728 221.831
L415.996 221.625
L416.174 221.633
L417.514 220.873
L417.692 220.867
L417.871 220.802
L418.496 220.926
L419.567 220.853
L419.835 220.671
L420.281 220.347
L420.549 220.243
L420.817 220.171
L422.603 220.102
L422.96 219.855
L423.228 219.754
L423.495 219.634
L423.674 219.644
L424.21 219.4
L424.388 219.512
L425.549 219.621
L425.906 219.694
L426.442 219.618
L426.888 219.516
L426.977 219.536
L427.245 219.27
L427.424 219.14
L427.513 218.941
L427.602 218.982
L427.87 218.951
L429.12 218.969
L429.745 218.695
L430.281 218.502
L430.459 218.494
L431.173 218.352
L431.352 218.081
L431.531 218.008
L431.888 218.011
L432.602 218.119
L433.138 218.291
L433.316 218.199
L433.584 218.135
L433.763 218.137
L434.12 217.727
L434.566 217.536
L435.191 217.535
L436.709 217.493
L438.227 216.625
L440.369 216.846
L441.708 215.938
L441.976 215.852
L443.048 215.906
L444.298 215.916
L444.923 215.543
L445.369 215.221
L445.548 215.071
L445.815 215.163
L446.083 215.139
L447.244 215.146
L448.137 215.044
L448.494 214.867
L448.851 214.799
L449.119 214.789
L449.387 214.68
L449.654 214.694
L450.012 214.753
L450.369 214.736
L451.44 214.713
L451.708 214.478
L452.511 214.022
L452.779 213.948
L452.958 213.723
L453.851 213.835
L454.208 213.954
L454.476 213.946
L454.654 213.922
L455.011 213.801
L455.19 213.748
L455.547 213.553
L455.725 213.446
L455.904 213.291
L456.083 213.197
L456.44 213.044
L456.618 213.057
L456.797 212.958
L457.868 213.041
L458.047 213.074
L458.225 213.077
L458.404 212.941
L459.564 212.56
L459.743 212.416
L460.1 212.417
L460.279 212.462
L460.547 212.396
L461.172 212.449
L461.439 212.492
L461.886 212.395
L462.689 212.28
L462.868 212.014
L463.046 212.047
L463.404 212
L465.457 212.265
L466.707 211.898
L466.975 211.836
L467.332 211.739
L469.207 211.709
L469.385 211.581
L469.921 211.436
L470.278 211.384
L470.546 211.286
L470.724 211.13
L471.082 211.236
L471.885 211.283
L472.064 211.235
L472.599 211.135
L472.867 211.015
L473.135 210.964
L473.314 210.811
L473.671 210.728
L473.939 210.558
L474.385 210.653
L474.564 210.527
L477.063 210.252
L477.599 209.95
L477.867 209.935
L478.313 209.719
L478.492 209.701
L478.67 209.618
L480.01 209.627
L480.367 209.642
L480.545 209.647
L480.813 209.441
L481.081 209.382
L481.349 209.27
L482.242 209.325
L482.599 209.251
L482.777 209.215
L483.759 209.197
L484.206 209.077
L485.009 208.928
L485.188 208.861
L485.991 208.848
L486.259 208.808
L487.063 208.668
L487.331 208.634
L488.045 208.535
L491.616 208.341
L491.884 208.208
L492.241 208.116
L492.955 208.184
L493.223 208.178
L493.937 208.125
L494.294 207.957
L494.473 207.957
L494.562 207.958
L494.741 207.781
L495.276 207.782
L495.544 207.403
L495.991 207.196
L498.312 207.188
L498.491 207.135
L498.758 207.161
L499.026 206.999
L499.74 207.184
L500.901 207.106
L501.169 206.952
L501.705 206.9
L502.508 206.692
L502.955 206.666
L504.026 206.652
L504.562 206.717
L505.097 206.679
L505.276 206.611
L506.079 206.71
L508.044 206.54
L508.311 206.583
L508.579 206.375
L508.758 206.374
L508.936 206.213
L509.829 205.901
L510.008 205.762
L510.543 205.806
L510.722 205.74
L512.329 205.855
L512.775 205.801
L513.043 205.587
L515.007 205.651
L515.9 205.62
L516.436 205.487
L516.704 205.629
L517.15 205.314
L517.418 205.364
L517.686 205.412
L518.311 205.452
L518.311 205.452" style="fill:none;stroke:#bf00bf;stroke-linecap:square;"/>
   </g>
   <g id="matplotlib.axis_1">
    <g id="xtick_1">
     <g id="line2d_6">
      <defs>
       <path d="
M0 0
L0 -4" id="mc7db9fdffb" style="stroke:#000000;stroke-width:0.5;"/>
      </defs>
      <g>
       <use style="stroke:#000000;stroke-width:0.5;" x="72.0" xlink:href="#mc7db9fdffb" y="388.8"/>
      </g>
     </g>
     <g id="line2d_7">
      <defs>
       <path d="
M0 0
L0 4" id="m5a7d422ac3" style="stroke:#000000;stroke-width:0.5;"/>
      </defs>
      <g>
       <use style="stroke:#000000;stroke-width:0.5;" x="72.0" xlink:href="#m5a7d422ac3" y="43.2"/>
      </g>
     </g>
     <g id="text_1">
      <!-- 0 -->
      <defs>
       <path d="
M56.9844 36.375
Q56.9844 16.7969 50.8594 7.64062
Q44.7344 -1.51562 31.8438 -1.51562
Q18.75 -1.51562 12.7188 7.76562
Q6.6875 17.0469 6.6875 36.2812
Q6.6875 55.6719 12.7812 64.9219
Q18.8906 74.1719 31.8438 74.1719
Q44.9219 74.1719 50.9531 64.7656
Q56.9844 55.375 56.9844 36.375
M44.1406 14.2031
Q45.8438 18.1719 46.4531 23.5156
Q47.0781 28.8594 47.0781 36.375
Q47.0781 43.7969 46.4531 49.2656
Q45.8438 54.7344 44.0938 58.5469
Q42.3906 62.3125 39.4219 64.2031
Q36.4688 66.1094 31.8438 66.1094
Q27.25 66.1094 24.2344 64.2031
Q21.2344 62.3125 19.4844 58.4531
Q17.8281 54.8281 17.2188 49.0156
Q16.6094 43.2188 16.6094 36.2812
Q16.6094 28.6562 17.1406 23.5312
Q17.6719 18.4062 19.4375 14.3594
Q21.0469 10.5469 24 8.54688
Q26.9531 6.54688 31.8438 6.54688
Q36.4219 6.54688 39.4531 8.45312
Q42.4844 10.3594 44.1406 14.2031" id="Verdana-30"/>
      </defs>
      <g transform="translate(68.9821875 401.918125)scale(0.12 -0.12)">
       <use xlink:href="#Verdana-30"/>
      </g>
     </g>
    </g>
    <g id="xtick_2">
     <g id="line2d_8">
      <g>
       <use style="stroke:#000000;stroke-width:0.5;" x="161.28" xlink:href="#mc7db9fdffb" y="388.8"/>
      </g>
     </g>
     <g id="line2d_9">
      <g>
       <use style="stroke:#000000;stroke-width:0.5;" x="161.28" xlink:href="#m5a7d422ac3" y="43.2"/>
      </g>
     </g>
     <g id="text_2">
      <!-- 1000 -->
      <defs>
       <path d="
M52.9375 0
L13.5781 0
L13.5781 7.42188
L28.7188 7.42188
L28.7188 56.1562
L13.5781 56.1562
L13.5781 62.7969
Q16.6562 62.7969 20.1719 63.2969
Q23.6875 63.8125 25.4844 64.7969
Q27.7344 66.0156 29.0312 67.8906
Q30.3281 69.7812 30.5156 72.9531
L38.0938 72.9531
L38.0938 7.42188
L52.9375 7.42188
z
" id="Verdana-31"/>
      </defs>
      <g transform="translate(147.2315625 401.918125)scale(0.12 -0.12)">
       <use xlink:href="#Verdana-31"/>
       <use x="63.57421875" xlink:href="#Verdana-30"/>
       <use x="127.1484375" xlink:href="#Verdana-30"/>
       <use x="190.72265625" xlink:href="#Verdana-30"/>
      </g>
     </g>
    </g>
    <g id="xtick_3">
     <g id="line2d_10">
      <g>
       <use style="stroke:#000000;stroke-width:0.5;" x="250.56" xlink:href="#mc7db9fdffb" y="388.8"/>
      </g>
     </g>
     <g id="line2d_11">
      <g>
       <use style="stroke:#000000;stroke-width:0.5;" x="250.56" xlink:href="#m5a7d422ac3" y="43.2"/>
      </g>
     </g>
     <g id="text_3">
      <!-- 2000 -->
      <defs>
       <path d="
M57.0781 0
L7.85938 0
L7.85938 10.2031
Q12.9844 14.5938 18.1406 18.9844
Q23.2969 23.3906 27.7344 27.7344
Q37.1094 36.8125 40.5781 42.1562
Q44.0469 47.5156 44.0469 53.7188
Q44.0469 59.375 40.3125 62.5625
Q36.5781 65.7656 29.8906 65.7656
Q25.4375 65.7656 20.2656 64.2031
Q15.0938 62.6406 10.1562 59.4219
L9.67188 59.4219
L9.67188 69.6719
Q13.1406 71.3906 18.9219 72.7969
Q24.7031 74.2188 30.125 74.2188
Q41.3125 74.2188 47.6562 68.8125
Q54 63.4219 54 54.2031
Q54 50.0469 52.9531 46.4531
Q51.9062 42.875 49.8594 39.6562
Q47.9531 36.625 45.3906 33.6875
Q42.8281 30.7656 39.1562 27.2031
Q33.9375 22.0781 28.3594 17.2656
Q22.7969 12.4531 17.9688 8.34375
L57.0781 8.34375
z
" id="Verdana-32"/>
      </defs>
      <g transform="translate(236.1684375 401.918125)scale(0.12 -0.12)">
       <use xlink:href="#Verdana-32"/>
       <use x="63.57421875" xlink:href="#Verdana-30"/>
       <use x="127.1484375" xlink:href="#Verdana-30"/>
       <use x="190.72265625" xlink:href="#Verdana-30"/>
      </g>
     </g>
    </g>
    <g id="xtick_4">
     <g id="line2d_12">
      <g>
       <use style="stroke:#000000;stroke-width:0.5;" x="339.84" xlink:href="#mc7db9fdffb" y="388.8"/>
      </g>
     </g>
     <g id="line2d_13">
      <g>
       <use style="stroke:#000000;stroke-width:0.5;" x="339.84" xlink:href="#m5a7d422ac3" y="43.2"/>
      </g>
     </g>
     <g id="text_4">
      <!-- 3000 -->
      <defs>
       <path d="
M50.6875 35.0156
Q53.0312 32.9062 54.5469 29.7344
Q56.0625 26.5625 56.0625 21.5312
Q56.0625 16.5469 54.25 12.3906
Q52.4375 8.25 49.1719 5.17188
Q45.5156 1.76562 40.5469 0.125
Q35.5938 -1.51562 29.6875 -1.51562
Q23.6406 -1.51562 17.7812 -0.0625
Q11.9219 1.375 8.15625 3.07812
L8.15625 13.2812
L8.89062 13.2812
Q13.0312 10.5469 18.6406 8.73438
Q24.2656 6.9375 29.5 6.9375
Q32.5625 6.9375 36.0312 7.95312
Q39.5 8.98438 41.6562 10.9844
Q43.8906 13.1406 44.9844 15.7188
Q46.0938 18.3125 46.0938 22.2656
Q46.0938 26.1719 44.8438 28.7344
Q43.6094 31.2969 41.4062 32.7656
Q39.2031 34.2812 36.0781 34.8438
Q32.9531 35.4062 29.3438 35.4062
L24.9531 35.4062
L24.9531 43.5
L28.375 43.5
Q35.7969 43.5 40.2031 46.5938
Q44.625 49.7031 44.625 55.6719
Q44.625 58.2969 43.5 60.2656
Q42.3906 62.25 40.375 63.5312
Q38.2812 64.7969 35.8906 65.2812
Q33.5 65.7656 30.4688 65.7656
Q25.8281 65.7656 20.5938 64.1094
Q15.375 62.4531 10.75 59.4219
L10.25 59.4219
L10.25 69.625
Q13.7188 71.3438 19.5 72.7812
Q25.2969 74.2188 30.7188 74.2188
Q36.0312 74.2188 40.0781 73.2344
Q44.1406 72.2656 47.4062 70.125
Q50.9219 67.7812 52.7344 64.4531
Q54.5469 61.1406 54.5469 56.6875
Q54.5469 50.6406 50.2656 46.125
Q46 41.6094 40.1875 40.4375
L40.1875 39.75
Q42.5312 39.3594 45.5469 38.1094
Q48.5781 36.8594 50.6875 35.0156" id="Verdana-33"/>
      </defs>
      <g transform="translate(325.46625 401.918125)scale(0.12 -0.12)">
       <use xlink:href="#Verdana-33"/>
       <use x="63.57421875" xlink:href="#Verdana-30"/>
       <use x="127.1484375" xlink:href="#Verdana-30"/>
       <use x="190.72265625" xlink:href="#Verdana-30"/>
      </g>
     </g>
    </g>
    <g id="xtick_5">
     <g id="line2d_14">
      <g>
       <use style="stroke:#000000;stroke-width:0.5;" x="429.12" xlink:href="#mc7db9fdffb" y="388.8"/>
      </g>
     </g>
     <g id="line2d_15">
      <g>
       <use style="stroke:#000000;stroke-width:0.5;" x="429.12" xlink:href="#m5a7d422ac3" y="43.2"/>
      </g>
     </g>
     <g id="text_5">
      <!-- 4000 -->
      <defs>
       <path d="
M58.7344 20.4531
L47.9531 20.4531
L47.9531 0
L38.5781 0
L38.5781 20.4531
L3.76562 20.4531
L3.76562 31.6875
L38.9688 72.7031
L47.9531 72.7031
L47.9531 28.2656
L58.7344 28.2656
z

M38.5781 28.2656
L38.5781 61.0781
L10.4062 28.2656
z
" id="Verdana-34"/>
      </defs>
      <g transform="translate(414.4828125 401.918125)scale(0.12 -0.12)">
       <use xlink:href="#Verdana-34"/>
       <use x="63.57421875" xlink:href="#Verdana-30"/>
       <use x="127.1484375" xlink:href="#Verdana-30"/>
       <use x="190.72265625" xlink:href="#Verdana-30"/>
      </g>
     </g>
    </g>
    <g id="xtick_6">
     <g id="line2d_16">
      <g>
       <use style="stroke:#000000;stroke-width:0.5;" x="518.4" xlink:href="#mc7db9fdffb" y="388.8"/>
      </g>
     </g>
     <g id="line2d_17">
      <g>
       <use style="stroke:#000000;stroke-width:0.5;" x="518.4" xlink:href="#m5a7d422ac3" y="43.2"/>
      </g>
     </g>
     <g id="text_6">
      <!-- 5000 -->
      <defs>
       <path d="
M56.5 23.0938
Q56.5 18.0156 54.6406 13.375
Q52.7812 8.73438 49.5625 5.5625
Q46.0469 2.15625 41.1875 0.3125
Q36.3281 -1.51562 29.9375 -1.51562
Q23.9688 -1.51562 18.4531 -0.265625
Q12.9375 0.984375 9.125 2.73438
L9.125 13.0312
L9.8125 13.0312
Q13.8125 10.5 19.1875 8.71875
Q24.5625 6.9375 29.7344 6.9375
Q33.2031 6.9375 36.4531 7.90625
Q39.7031 8.89062 42.2344 11.3281
Q44.3906 13.4219 45.4844 16.3438
Q46.5781 19.2812 46.5781 23.1406
Q46.5781 26.9062 45.2812 29.4844
Q44 32.0781 41.7031 33.6406
Q39.1562 35.5 35.5156 36.25
Q31.8906 37.0156 27.3906 37.0156
Q23.0938 37.0156 19.1094 36.4219
Q15.1406 35.8438 12.25 35.25
L12.25 72.7031
L56 72.7031
L56 64.1562
L21.6875 64.1562
L21.6875 44.8281
Q23.7812 45.0156 25.9688 45.1094
Q28.1719 45.2188 29.7812 45.2188
Q35.6875 45.2188 40.125 44.2188
Q44.5781 43.2188 48.2969 40.6719
Q52.2031 37.9844 54.3438 33.7344
Q56.5 29.5 56.5 23.0938" id="Verdana-35"/>
      </defs>
      <g transform="translate(504.084375 401.918125)scale(0.12 -0.12)">
       <use xlink:href="#Verdana-35"/>
       <use x="63.57421875" xlink:href="#Verdana-30"/>
       <use x="127.1484375" xlink:href="#Verdana-30"/>
       <use x="190.72265625" xlink:href="#Verdana-30"/>
      </g>
     </g>
    </g>
    <g id="text_7">
     <!-- Objective function exectuions -->
     <defs>
      <path d="
M63.9688 64.3594
Q68.4062 59.4688 70.7656 52.3906
Q73.1406 45.3125 73.1406 36.3281
Q73.1406 27.3438 70.7188 20.2344
Q68.3125 13.1406 63.9688 8.40625
Q59.4688 3.46875 53.3438 0.96875
Q47.2188 -1.51562 39.3594 -1.51562
Q31.6875 -1.51562 25.4062 1.01562
Q19.1406 3.5625 14.75 8.40625
Q10.3594 13.2344 7.98438 20.2656
Q5.60938 27.2969 5.60938 36.3281
Q5.60938 45.2188 7.95312 52.2656
Q10.2969 59.3281 14.7969 64.3594
Q19.0938 69.1406 25.4688 71.6719
Q31.8438 74.2188 39.3594 74.2188
Q47.1719 74.2188 53.3906 71.6562
Q59.625 69.0938 63.9688 64.3594
M63.0938 36.3281
Q63.0938 50.4844 56.7344 58.1719
Q50.3906 65.875 39.4062 65.875
Q28.3281 65.875 22 58.1719
Q15.6719 50.4844 15.6719 36.3281
Q15.6719 22.0156 22.1094 14.4219
Q28.5625 6.84375 39.4062 6.84375
Q50.25 6.84375 56.6719 14.4219
Q63.0938 22.0156 63.0938 36.3281" id="Verdana-4f"/>
      <path d="
M38.375 67.0938
L37.8906 67.0938
Q36.375 67.5312 33.9375 67.9844
Q31.5 68.4531 29.6406 68.4531
Q23.7344 68.4531 21.0625 65.8438
Q18.4062 63.2344 18.4062 56.3906
L18.4062 54.5469
L34.9688 54.5469
L34.9688 46.8281
L18.7031 46.8281
L18.7031 0
L9.51562 0
L9.51562 46.8281
L3.32812 46.8281
L3.32812 54.5469
L9.51562 54.5469
L9.51562 56.3438
Q9.51562 66.0625 14.3438 71.2656
Q19.1875 76.4688 28.3281 76.4688
Q31.3906 76.4688 33.8594 76.1719
Q36.3281 75.875 38.375 75.4844
z
" id="Verdana-66"/>
      <path d="
M57.0312 27.6875
Q57.0312 20.8438 55.0938 15.375
Q53.1719 9.90625 49.9062 6.20312
Q46.4375 2.34375 42.2812 0.40625
Q38.1406 -1.51562 33.1562 -1.51562
Q28.5156 -1.51562 25.0469 -0.40625
Q21.5781 0.6875 18.2188 2.54688
L17.625 0
L9.03125 0
L9.03125 75.9844
L18.2188 75.9844
L18.2188 48.8281
Q22.0781 52 26.4219 54.0312
Q30.7656 56.0625 36.1875 56.0625
Q45.8438 56.0625 51.4375 48.6406
Q57.0312 41.2188 57.0312 27.6875
M47.5625 27.4375
Q47.5625 37.2031 44.3281 42.25
Q41.1094 47.3125 33.9375 47.3125
Q29.9375 47.3125 25.8281 45.5781
Q21.7344 43.8438 18.2188 41.1094
L18.2188 9.85938
Q22.125 8.10938 24.9219 7.42188
Q27.7344 6.73438 31.2969 6.73438
Q38.9219 6.73438 43.2344 11.7344
Q47.5625 16.75 47.5625 27.4375" id="Verdana-62"/>
      <path id="Verdana-20"/>
      <path d="
M18.8906 63.6719
L8.54688 63.6719
L8.54688 73.1875
L18.8906 73.1875
z

M18.3125 0
L9.125 0
L9.125 54.5469
L18.3125 54.5469
z
" id="Verdana-69"/>
      <path d="
M26.0312 63.6719
L15.6719 63.6719
L15.6719 73.1875
L26.0312 73.1875
z

M25.4375 -1.3125
Q25.4375 -10.8906 20.5469 -15.7656
Q15.6719 -20.6562 7.46875 -20.6562
Q5.51562 -20.6562 2.3125 -20.2656
Q-0.875 -19.875 -3.03125 -19.2812
L-3.03125 -10.5469
L-2.54688 -10.5469
Q-1.17188 -11.0781 1.14062 -11.7656
Q3.46875 -12.4531 5.67188 -12.4531
Q9.1875 -12.4531 11.3281 -11.4688
Q13.4844 -10.5 14.5469 -8.54688
Q15.625 -6.59375 15.9375 -3.82812
Q16.2656 -1.07812 16.2656 2.875
L16.2656 46.8281
L4.89062 46.8281
L4.89062 54.5469
L25.4375 54.5469
z
" id="Verdana-6a"/>
      <path d="
M48 15.7188
Q48 8.25 41.8125 3.46875
Q35.6406 -1.3125 24.9531 -1.3125
Q18.8906 -1.3125 13.8438 0.125
Q8.79688 1.5625 5.375 3.26562
L5.375 13.5781
L5.85938 13.5781
Q10.2031 10.2969 15.5156 8.375
Q20.8438 6.45312 25.7344 6.45312
Q31.7812 6.45312 35.2031 8.40625
Q38.625 10.3594 38.625 14.5469
Q38.625 17.7812 36.7656 19.4375
Q34.9062 21.0938 29.6406 22.2656
Q27.6875 22.7031 24.5312 23.2812
Q21.3906 23.875 18.7969 24.5625
Q11.625 26.4688 8.60938 30.1562
Q5.60938 33.8438 5.60938 39.2031
Q5.60938 42.5781 7 45.5469
Q8.40625 48.5312 11.2344 50.875
Q13.9688 53.1719 18.1875 54.5156
Q22.4062 55.8594 27.6406 55.8594
Q32.5156 55.8594 37.5156 54.6562
Q42.5312 53.4688 45.8438 51.7656
L45.8438 41.9375
L45.3594 41.9375
Q41.8438 44.5312 36.8125 46.3125
Q31.7812 48.0938 26.9531 48.0938
Q21.9219 48.0938 18.4531 46.1562
Q14.9844 44.2344 14.9844 40.4375
Q14.9844 37.0625 17.0938 35.3594
Q19.1406 33.6406 23.7344 32.5625
Q26.2656 31.9844 29.4062 31.3906
Q32.5625 30.8125 34.6719 30.3281
Q41.0625 28.8594 44.5312 25.2969
Q48 21.6875 48 15.7188" id="Verdana-73"/>
      <path d="
M55.5156 27.25
Q55.5156 13.9219 48.6719 6.20312
Q41.8438 -1.51562 30.375 -1.51562
Q18.7969 -1.51562 11.9844 6.20312
Q5.17188 13.9219 5.17188 27.25
Q5.17188 40.5781 11.9844 48.3125
Q18.7969 56.0625 30.375 56.0625
Q41.8438 56.0625 48.6719 48.3125
Q55.5156 40.5781 55.5156 27.25
M46.0469 27.25
Q46.0469 37.8438 41.8906 42.9844
Q37.75 48.1406 30.375 48.1406
Q22.9062 48.1406 18.7812 42.9844
Q14.6562 37.8438 14.6562 27.25
Q14.6562 17 18.7969 11.6875
Q22.9531 6.39062 30.375 6.39062
Q37.7031 6.39062 41.875 11.6406
Q46.0469 16.8906 46.0469 27.25" id="Verdana-6f"/>
      <path d="
M54.6875 26.3125
L14.5 26.3125
Q14.5 21.2969 16.0156 17.5469
Q17.5312 13.8125 20.1719 11.4219
Q22.7031 9.07812 26.1875 7.90625
Q29.6875 6.73438 33.8906 6.73438
Q39.4531 6.73438 45.0938 8.95312
Q50.7344 11.1875 53.125 13.3281
L53.6094 13.3281
L53.6094 3.32812
Q48.9688 1.375 44.1406 0.046875
Q39.3125 -1.26562 33.9844 -1.26562
Q20.4062 -1.26562 12.7812 6.07812
Q5.17188 13.4219 5.17188 26.9531
Q5.17188 40.3281 12.4688 48.1875
Q19.7812 56.0625 31.6875 56.0625
Q42.7188 56.0625 48.7031 49.6094
Q54.6875 43.1719 54.6875 31.2969
z

M45.75 33.3438
Q45.7031 40.5781 42.1094 44.5312
Q38.5312 48.4844 31.2031 48.4844
Q23.8281 48.4844 19.4531 44.1406
Q15.0938 39.7969 14.5 33.3438
z
" id="Verdana-65"/>
      <path d="
M54.25 0
L45.0625 0
L45.0625 6.0625
Q40.4375 2.39062 36.1875 0.4375
Q31.9375 -1.51562 26.8125 -1.51562
Q18.2188 -1.51562 13.4219 3.73438
Q8.64062 8.98438 8.64062 19.1406
L8.64062 54.5469
L17.8281 54.5469
L17.8281 23.4844
Q17.8281 19.3438 18.2188 16.375
Q18.6094 13.4219 19.875 11.3281
Q21.1875 9.1875 23.2812 8.20312
Q25.3906 7.23438 29.3906 7.23438
Q32.9531 7.23438 37.1719 9.07812
Q41.4062 10.9375 45.0625 13.8125
L45.0625 54.5469
L54.25 54.5469
z
" id="Verdana-75"/>
      <path d="
M49.3594 3.42188
Q44.7812 1.21875 40.6562 0
Q36.5312 -1.21875 31.8906 -1.21875
Q25.9844 -1.21875 21.0469 0.515625
Q16.1094 2.25 12.5938 5.76562
Q9.03125 9.28125 7.07812 14.6406
Q5.125 20.0156 5.125 27.2031
Q5.125 40.5781 12.4688 48.1875
Q19.8281 55.8125 31.8906 55.8125
Q36.5781 55.8125 41.0938 54.4844
Q45.6094 53.1719 49.3594 51.2656
L49.3594 41.0625
L48.875 41.0625
Q44.6719 44.3438 40.2031 46.0938
Q35.75 47.8594 31.5 47.8594
Q23.6875 47.8594 19.1719 42.6094
Q14.6562 37.3594 14.6562 27.2031
Q14.6562 17.3281 19.0625 12.0312
Q23.4844 6.73438 31.5 6.73438
Q34.2812 6.73438 37.1562 7.46875
Q40.0469 8.20312 42.3281 9.375
Q44.3438 10.4062 46.0938 11.5469
Q47.8594 12.7031 48.875 13.5312
L49.3594 13.5312
z
" id="Verdana-63"/>
      <path d="
M54.6406 0
L45.4531 0
L45.4531 31.0625
Q45.4531 34.8125 45.0156 38.1094
Q44.5781 41.4062 43.4062 43.2656
Q42.1875 45.3125 39.8906 46.3125
Q37.5938 47.3125 33.9375 47.3125
Q30.1719 47.3125 26.0625 45.4531
Q21.9688 43.6094 18.2188 40.7188
L18.2188 0
L9.03125 0
L9.03125 54.5469
L18.2188 54.5469
L18.2188 48.4844
Q22.5156 52.0469 27.0938 54.0469
Q31.6875 56.0625 36.5312 56.0625
Q45.3594 56.0625 50 50.7344
Q54.6406 45.4062 54.6406 35.4062
z
" id="Verdana-6e"/>
      <path d="
M37.3594 0.484375
Q34.7656 -0.203125 31.7031 -0.640625
Q28.6562 -1.07812 26.2656 -1.07812
Q17.9219 -1.07812 13.5781 3.40625
Q9.23438 7.90625 9.23438 17.8281
L9.23438 46.8281
L3.03125 46.8281
L3.03125 54.5469
L9.23438 54.5469
L9.23438 70.2188
L18.4062 70.2188
L18.4062 54.5469
L37.3594 54.5469
L37.3594 46.8281
L18.4062 46.8281
L18.4062 21.9688
Q18.4062 17.6719 18.5938 15.25
Q18.7969 12.8438 19.9688 10.75
Q21.0469 8.79688 22.9219 7.89062
Q24.8125 6.98438 28.6562 6.98438
Q30.9062 6.98438 33.3438 7.64062
Q35.7969 8.29688 36.8594 8.73438
L37.3594 8.73438
z
" id="Verdana-74"/>
      <path d="
M56.2031 54.5469
L34.125 0
L24.9062 0
L2.98438 54.5469
L12.9375 54.5469
L29.8281 11.1406
L46.5781 54.5469
z
" id="Verdana-76"/>
      <path d="
M56.25 0
L44.6719 0
L29.2031 20.9531
L13.625 0
L2.9375 0
L24.2188 27.2031
L3.125 54.5469
L14.7031 54.5469
L30.0781 33.9375
L45.5156 54.5469
L56.25 54.5469
L34.8125 27.6875
z
" id="Verdana-78"/>
     </defs>
     <g transform="translate(206.5078125 418.509375)scale(0.12 -0.12)">
      <use xlink:href="#Verdana-4f"/>
      <use x="78.7109375" xlink:href="#Verdana-62"/>
      <use x="141.015625" xlink:href="#Verdana-6a"/>
      <use x="175.439453125" xlink:href="#Verdana-65"/>
      <use x="235.009765625" xlink:href="#Verdana-63"/>
      <use x="287.109375" xlink:href="#Verdana-74"/>
      <use x="326.513671875" xlink:href="#Verdana-69"/>
      <use x="353.955078125" xlink:href="#Verdana-76"/>
      <use x="412.259765625" xlink:href="#Verdana-65"/>
      <use x="471.830078125" xlink:href="#Verdana-20"/>
      <use x="506.986328125" xlink:href="#Verdana-66"/>
      <use x="542.142578125" xlink:href="#Verdana-75"/>
      <use x="605.423828125" xlink:href="#Verdana-6e"/>
      <use x="668.705078125" xlink:href="#Verdana-63"/>
      <use x="720.8046875" xlink:href="#Verdana-74"/>
      <use x="760.208984375" xlink:href="#Verdana-69"/>
      <use x="787.650390625" xlink:href="#Verdana-6f"/>
      <use x="848.34375" xlink:href="#Verdana-6e"/>
      <use x="911.625" xlink:href="#Verdana-20"/>
      <use x="946.78125" xlink:href="#Verdana-65"/>
      <use x="1006.3515625" xlink:href="#Verdana-78"/>
      <use x="1064.40625" xlink:href="#Verdana-65"/>
      <use x="1123.9765625" xlink:href="#Verdana-63"/>
      <use x="1176.076171875" xlink:href="#Verdana-74"/>
      <use x="1215.48046875" xlink:href="#Verdana-75"/>
      <use x="1278.76171875" xlink:href="#Verdana-69"/>
      <use x="1306.203125" xlink:href="#Verdana-6f"/>
      <use x="1366.896484375" xlink:href="#Verdana-6e"/>
      <use x="1430.177734375" xlink:href="#Verdana-73"/>
     </g>
    </g>
   </g>
   <g id="matplotlib.axis_2">
    <g id="ytick_1">
     <g id="line2d_18">
      <defs>
       <path d="
M0 0
L4 0" id="md7965d1ba0" style="stroke:#000000;stroke-width:0.5;"/>
      </defs>
      <g>
       <use style="stroke:#000000;stroke-width:0.5;" x="72.0" xlink:href="#md7965d1ba0" y="388.8"/>
      </g>
     </g>
     <g id="line2d_19">
      <defs>
       <path d="
M0 0
L-4 0" id="md9a1c1a7cd" style="stroke:#000000;stroke-width:0.5;"/>
      </defs>
      <g>
       <use style="stroke:#000000;stroke-width:0.5;" x="518.4" xlink:href="#md9a1c1a7cd" y="388.8"/>
      </g>
     </g>
     <g id="text_8">
      <!-- 0.0 -->
      <defs>
       <path d="
M24.0312 0
L12.3594 0
L12.3594 13.9219
L24.0312 13.9219
z
" id="Verdana-2e"/>
      </defs>
      <g transform="translate(49.97 392.1515625)scale(0.12 -0.12)">
       <use xlink:href="#Verdana-30"/>
       <use x="63.57421875" xlink:href="#Verdana-2e"/>
       <use x="99.951171875" xlink:href="#Verdana-30"/>
      </g>
     </g>
    </g>
    <g id="ytick_2">
     <g id="line2d_20">
      <g>
       <use style="stroke:#000000;stroke-width:0.5;" x="72.0" xlink:href="#md7965d1ba0" y="319.68"/>
      </g>
     </g>
     <g id="line2d_21">
      <g>
       <use style="stroke:#000000;stroke-width:0.5;" x="518.4" xlink:href="#md9a1c1a7cd" y="319.68"/>
      </g>
     </g>
     <g id="text_9">
      <!-- 0.2 -->
      <g transform="translate(49.95875 323.0315625)scale(0.12 -0.12)">
       <use xlink:href="#Verdana-30"/>
       <use x="63.57421875" xlink:href="#Verdana-2e"/>
       <use x="99.951171875" xlink:href="#Verdana-32"/>
      </g>
     </g>
    </g>
    <g id="ytick_3">
     <g id="line2d_22">
      <g>
       <use style="stroke:#000000;stroke-width:0.5;" x="72.0" xlink:href="#md7965d1ba0" y="250.56"/>
      </g>
     </g>
     <g id="line2d_23">
      <g>
       <use style="stroke:#000000;stroke-width:0.5;" x="518.4" xlink:href="#md9a1c1a7cd" y="250.56"/>
      </g>
     </g>
     <g id="text_10">
      <!-- 0.4 -->
      <g transform="translate(49.76 253.9115625)scale(0.12 -0.12)">
       <use xlink:href="#Verdana-30"/>
       <use x="63.57421875" xlink:href="#Verdana-2e"/>
       <use x="99.951171875" xlink:href="#Verdana-34"/>
      </g>
     </g>
    </g>
    <g id="ytick_4">
     <g id="line2d_24">
      <g>
       <use style="stroke:#000000;stroke-width:0.5;" x="72.0" xlink:href="#md7965d1ba0" y="181.44"/>
      </g>
     </g>
     <g id="line2d_25">
      <g>
       <use style="stroke:#000000;stroke-width:0.5;" x="518.4" xlink:href="#md9a1c1a7cd" y="181.44"/>
      </g>
     </g>
     <g id="text_11">
      <!-- 0.6 -->
      <defs>
       <path d="
M58.1562 23.5781
Q58.1562 12.5 50.8594 5.48438
Q43.5625 -1.51562 32.9531 -1.51562
Q27.5938 -1.51562 23.1875 0.140625
Q18.7969 1.8125 15.4375 5.07812
Q11.2344 9.125 8.95312 15.8125
Q6.6875 22.5156 6.6875 31.9375
Q6.6875 41.6094 8.76562 49.0781
Q10.8438 56.5469 15.375 62.3594
Q19.6719 67.875 26.4531 70.9688
Q33.25 74.0781 42.2812 74.0781
Q45.1719 74.0781 47.125 73.8281
Q49.0781 73.5781 51.0781 72.9531
L51.0781 63.625
L50.5938 63.625
Q49.2188 64.3594 46.4531 65.0156
Q43.7031 65.6719 40.8281 65.6719
Q30.3281 65.6719 24.0781 59.1094
Q17.8281 52.5469 16.7969 41.3594
Q20.9062 43.8438 24.875 45.1406
Q28.8594 46.4375 34.0781 46.4375
Q38.7188 46.4375 42.25 45.5781
Q45.7969 44.7344 49.5156 42.1406
Q53.8125 39.1562 55.9844 34.6094
Q58.1562 30.0781 58.1562 23.5781
M48.25 23.1875
Q48.25 27.7344 46.9062 30.7031
Q45.5625 33.6875 42.4844 35.8906
Q40.2344 37.4531 37.5 37.9375
Q34.7656 38.4219 31.7812 38.4219
Q27.6406 38.4219 24.0781 37.4375
Q20.5156 36.4688 16.75 34.4219
Q16.6562 33.3438 16.5938 32.3438
Q16.5469 31.3438 16.5469 29.8281
Q16.5469 22.125 18.1406 17.6562
Q19.7344 13.1875 22.5156 10.5938
Q24.75 8.45312 27.3594 7.45312
Q29.9844 6.45312 33.0625 6.45312
Q40.1406 6.45312 44.1875 10.7656
Q48.25 15.0938 48.25 23.1875" id="Verdana-36"/>
      </defs>
      <g transform="translate(49.829375 184.7915625)scale(0.12 -0.12)">
       <use xlink:href="#Verdana-30"/>
       <use x="63.57421875" xlink:href="#Verdana-2e"/>
       <use x="99.951171875" xlink:href="#Verdana-36"/>
      </g>
     </g>
    </g>
    <g id="ytick_5">
     <g id="line2d_26">
      <g>
       <use style="stroke:#000000;stroke-width:0.5;" x="72.0" xlink:href="#md7965d1ba0" y="112.32"/>
      </g>
     </g>
     <g id="line2d_27">
      <g>
       <use style="stroke:#000000;stroke-width:0.5;" x="518.4" xlink:href="#md9a1c1a7cd" y="112.32"/>
      </g>
     </g>
     <g id="text_12">
      <!-- 0.8 -->
      <defs>
       <path d="
M57.625 20.2656
Q57.625 10.8438 50.2656 4.59375
Q42.9219 -1.65625 31.7812 -1.65625
Q19.9688 -1.65625 12.9531 4.4375
Q5.95312 10.5469 5.95312 20.0625
Q5.95312 26.125 9.46875 31.0312
Q12.9844 35.9375 19.3906 38.8125
L19.3906 39.1094
Q13.5312 42.2344 10.7188 45.9375
Q7.90625 49.6562 7.90625 55.2188
Q7.90625 63.4219 14.6406 68.8906
Q21.3906 74.3594 31.7812 74.3594
Q42.6719 74.3594 49.1719 69.1406
Q55.6719 63.9219 55.6719 55.8594
Q55.6719 50.9219 52.5938 46.1562
Q49.5156 41.4062 43.5625 38.7188
L43.5625 38.4219
Q50.3906 35.5 54 31.2031
Q57.625 26.9062 57.625 20.2656
M46.0469 55.7656
Q46.0469 60.9844 42.0156 64.0781
Q37.9844 67.1875 31.7344 67.1875
Q25.5938 67.1875 21.6562 64.25
Q17.7188 61.3281 17.7188 56.3438
Q17.7188 52.8281 19.7031 50.2656
Q21.6875 47.7031 25.6875 45.7031
Q27.4844 44.8281 30.875 43.4062
Q34.2812 42 37.5 41.0625
Q42.3281 44.2812 44.1875 47.75
Q46.0469 51.2188 46.0469 55.7656
M47.5625 19.3438
Q47.5625 23.8281 45.5781 26.5312
Q43.6094 29.25 37.8438 31.9844
Q35.5469 33.0625 32.8125 33.9844
Q30.0781 34.9062 25.5312 36.5781
Q21.1406 34.1875 18.4844 30.0781
Q15.8281 25.9844 15.8281 20.7969
Q15.8281 14.2031 20.3594 9.90625
Q24.9062 5.60938 31.8906 5.60938
Q39.0156 5.60938 43.2812 9.26562
Q47.5625 12.9375 47.5625 19.3438" id="Verdana-38"/>
      </defs>
      <g transform="translate(49.893125 115.6715625)scale(0.12 -0.12)">
       <use xlink:href="#Verdana-30"/>
       <use x="63.57421875" xlink:href="#Verdana-2e"/>
       <use x="99.951171875" xlink:href="#Verdana-38"/>
      </g>
     </g>
    </g>
    <g id="ytick_6">
     <g id="line2d_28">
      <g>
       <use style="stroke:#000000;stroke-width:0.5;" x="72.0" xlink:href="#md7965d1ba0" y="43.2"/>
      </g>
     </g>
     <g id="line2d_29">
      <g>
       <use style="stroke:#000000;stroke-width:0.5;" x="518.4" xlink:href="#md9a1c1a7cd" y="43.2"/>
      </g>
     </g>
     <g id="text_13">
      <!-- 1.0 -->
      <g transform="translate(50.796875 46.5515625)scale(0.12 -0.12)">
       <use xlink:href="#Verdana-31"/>
       <use x="63.57421875" xlink:href="#Verdana-2e"/>
       <use x="99.951171875" xlink:href="#Verdana-30"/>
      </g>
     </g>
    </g>
    <g id="text_14">
     <!-- Rank 0 Probability -->
     <defs>
      <path d="
M56.2031 54.5469
L24.3594 -20.125
L14.5469 -20.125
L24.7031 2.64062
L2.98438 54.5469
L12.9375 54.5469
L29.6875 14.1094
L46.5781 54.5469
z
" id="Verdana-79"/>
      <path d="
M69.9219 0
L57.375 0
L33.0625 28.9062
L19.4375 28.9062
L19.4375 0
L9.76562 0
L9.76562 72.7031
L30.125 72.7031
Q36.7188 72.7031 41.1094 71.8438
Q45.5156 71 49.0312 68.7969
Q52.9844 66.3125 55.2031 62.5156
Q57.4219 58.7344 57.4219 52.9375
Q57.4219 45.0625 53.4688 39.7656
Q49.5156 34.4688 42.5781 31.7812
z

M47.3125 52.25
Q47.3125 55.375 46.2188 57.7812
Q45.125 60.2031 42.5781 61.8594
Q40.4844 63.2812 37.5938 63.8438
Q34.7188 64.4062 30.8125 64.4062
L19.4375 64.4062
L19.4375 36.9688
L29.2031 36.9688
Q33.7969 36.9688 37.2031 37.7656
Q40.625 38.5781 43.0156 40.7656
Q45.2188 42.8281 46.2656 45.4844
Q47.3125 48.1406 47.3125 52.25" id="Verdana-52"/>
      <path d="
M51.4219 0
L42.2812 0
L42.2812 5.8125
Q41.0625 4.98438 38.9844 3.48438
Q36.9219 2 34.9688 1.125
Q32.6719 0 29.6875 -0.75
Q26.7031 -1.51562 22.7031 -1.51562
Q15.3281 -1.51562 10.2031 3.35938
Q5.07812 8.25 5.07812 15.8281
Q5.07812 22.0156 7.73438 25.8438
Q10.4062 29.6875 15.3281 31.8906
Q20.3125 34.0781 27.2969 34.8594
Q34.2812 35.6406 42.2812 36.0312
L42.2812 37.4531
Q42.2812 40.5781 41.1875 42.625
Q40.0938 44.6719 38.0312 45.8438
Q36.0781 46.9688 33.3438 47.3594
Q30.6094 47.75 27.6406 47.75
Q24.0312 47.75 19.5781 46.7969
Q15.1406 45.8438 10.4062 44.0469
L9.90625 44.0469
L9.90625 53.375
Q12.5938 54.1094 17.6719 54.9844
Q22.75 55.8594 27.6875 55.8594
Q33.4531 55.8594 37.7188 54.9062
Q42 53.9531 45.125 51.6562
Q48.1875 49.4219 49.7969 45.8438
Q51.4219 42.2812 51.4219 37.0156
z

M42.2812 13.4219
L42.2812 28.6094
Q38.0938 28.375 32.3906 27.875
Q26.7031 27.3906 23.3906 26.4688
Q19.4375 25.3438 16.9844 22.9688
Q14.5469 20.6094 14.5469 16.4531
Q14.5469 11.7656 17.375 9.39062
Q20.2188 7.03125 26.0312 7.03125
Q30.8594 7.03125 34.8594 8.90625
Q38.875 10.7969 42.2812 13.4219" id="Verdana-61"/>
      <path d="
M57.3281 50.7344
Q57.3281 45.9062 55.6406 41.7656
Q53.9531 37.6406 50.9219 34.625
Q47.1719 30.8594 42.0469 28.9688
Q36.9219 27.0938 29.1094 27.0938
L19.4375 27.0938
L19.4375 0
L9.76562 0
L9.76562 72.7031
L29.5 72.7031
Q36.0312 72.7031 40.5781 71.6094
Q45.125 70.5156 48.6406 68.1719
Q52.7812 65.375 55.0469 61.2188
Q57.3281 57.0781 57.3281 50.7344
M47.2656 50.4844
Q47.2656 54.25 45.9375 57.0312
Q44.625 59.8125 41.9375 61.5781
Q39.5938 63.0938 36.5938 63.75
Q33.5938 64.4062 29 64.4062
L19.4375 64.4062
L19.4375 35.3594
L27.5938 35.3594
Q33.4531 35.3594 37.1094 36.4062
Q40.7656 37.4531 43.0625 39.75
Q45.3594 42.0938 46.3125 44.6719
Q47.2656 47.2656 47.2656 50.4844" id="Verdana-50"/>
      <path d="
M18.3125 0
L9.125 0
L9.125 75.9844
L18.3125 75.9844
z
" id="Verdana-6c"/>
      <path d="
M58.5469 0
L46.4375 0
L24.5625 23.875
L18.6094 18.2188
L18.6094 0
L9.42188 0
L9.42188 75.9844
L18.6094 75.9844
L18.6094 27.25
L45.125 54.5469
L56.6875 54.5469
L31.3438 29.3438
z
" id="Verdana-6b"/>
      <path d="
M43.0625 44.5312
L42.5781 44.5312
Q40.5312 45.0156 38.5938 45.2344
Q36.6719 45.4531 34.0312 45.4531
Q29.7812 45.4531 25.8281 43.5781
Q21.875 41.7031 18.2188 38.7188
L18.2188 0
L9.03125 0
L9.03125 54.5469
L18.2188 54.5469
L18.2188 46.4844
Q23.6875 50.875 27.8594 52.7031
Q32.0312 54.5469 36.375 54.5469
Q38.7656 54.5469 39.8438 54.4219
Q40.9219 54.2969 43.0625 53.9531
z
" id="Verdana-72"/>
     </defs>
     <g transform="translate(42.345 270.583125)rotate(-90.0)scale(0.12 -0.12)">
      <use xlink:href="#Verdana-52"/>
      <use x="67.53125" xlink:href="#Verdana-61"/>
      <use x="127.58984375" xlink:href="#Verdana-6e"/>
      <use x="190.87109375" xlink:href="#Verdana-6b"/>
      <use x="250.05078125" xlink:href="#Verdana-20"/>
      <use x="285.20703125" xlink:href="#Verdana-30"/>
      <use x="348.78125" xlink:href="#Verdana-20"/>
      <use x="383.9375" xlink:href="#Verdana-50"/>
      <use x="444.240234375" xlink:href="#Verdana-72"/>
      <use x="486.916015625" xlink:href="#Verdana-6f"/>
      <use x="547.609375" xlink:href="#Verdana-62"/>
      <use x="609.9140625" xlink:href="#Verdana-61"/>
      <use x="669.97265625" xlink:href="#Verdana-62"/>
      <use x="732.27734375" xlink:href="#Verdana-69"/>
      <use x="759.71875" xlink:href="#Verdana-6c"/>
      <use x="787.16015625" xlink:href="#Verdana-69"/>
      <use x="814.6015625" xlink:href="#Verdana-74"/>
      <use x="853.505859375" xlink:href="#Verdana-79"/>
     </g>
    </g>
   </g>
   <g id="patch_3">
    <path d="
M518.4 388.8
L518.4 43.2" style="fill:none;stroke:#000000;"/>
   </g>
   <g id="patch_4">
    <path d="
M72 43.2
L518.4 43.2" style="fill:none;stroke:#000000;"/>
   </g>
   <g id="patch_5">
    <path d="
M72 388.8
L518.4 388.8" style="fill:none;stroke:#000000;"/>
   </g>
   <g id="patch_6">
    <path d="
M72 388.8
L72 43.2" style="fill:none;stroke:#000000;"/>
   </g>
   <g id="text_15">
    <!-- Deceptive Rank 0 Probability -->
    <defs>
     <path d="
M57.0312 27.9375
Q57.0312 21.2969 55.125 15.7969
Q53.2188 10.2969 49.75 6.5
Q46.5312 2.875 42.1562 0.890625
Q37.7969 -1.07812 32.9062 -1.07812
Q28.6562 -1.07812 25.2188 -0.140625
Q21.7812 0.78125 18.2188 2.73438
L18.2188 -20.125
L9.03125 -20.125
L9.03125 54.5469
L18.2188 54.5469
L18.2188 48.8281
Q21.875 51.9062 26.4375 53.9844
Q31 56.0625 36.1875 56.0625
Q46.0469 56.0625 51.5312 48.6094
Q57.0312 41.1562 57.0312 27.9375
M47.5625 27.6875
Q47.5625 37.5469 44.1875 42.4219
Q40.8281 47.3125 33.8438 47.3125
Q29.8906 47.3125 25.875 45.5938
Q21.875 43.8906 18.2188 41.1094
L18.2188 10.2031
Q22.125 8.45312 24.9219 7.8125
Q27.7344 7.17188 31.2969 7.17188
Q38.9688 7.17188 43.2656 12.3438
Q47.5625 17.5312 47.5625 27.6875" id="Verdana-70"/>
     <path d="
M71.1875 36.2812
Q71.1875 26.375 66.8594 18.3125
Q62.5469 10.25 55.375 5.8125
Q50.3906 2.73438 44.2656 1.35938
Q38.1406 0 28.125 0
L9.76562 0
L9.76562 72.7031
L27.9375 72.7031
Q38.5781 72.7031 44.8438 71.1562
Q51.125 69.625 55.4688 66.9375
Q62.8906 62.3125 67.0312 54.5938
Q71.1875 46.875 71.1875 36.2812
M61.0781 36.4219
Q61.0781 44.9688 58.0938 50.8281
Q55.125 56.6875 49.2188 60.0625
Q44.9219 62.5 40.0781 63.4531
Q35.25 64.4062 28.5156 64.4062
L19.4375 64.4062
L19.4375 8.29688
L28.5156 8.29688
Q35.5 8.29688 40.7031 9.32812
Q45.9062 10.3594 50.25 13.1406
Q55.6719 16.6094 58.375 22.2656
Q61.0781 27.9375 61.0781 36.4219" id="Verdana-44"/>
    </defs>
    <g transform="translate(191.50425 38.2)scale(0.144 -0.144)">
     <use xlink:href="#Verdana-44"/>
     <use x="77.05078125" xlink:href="#Verdana-65"/>
     <use x="136.62109375" xlink:href="#Verdana-63"/>
     <use x="188.720703125" xlink:href="#Verdana-65"/>
     <use x="248.291015625" xlink:href="#Verdana-70"/>
     <use x="310.595703125" xlink:href="#Verdana-74"/>
     <use x="350.0" xlink:href="#Verdana-69"/>
     <use x="377.44140625" xlink:href="#Verdana-76"/>
     <use x="435.74609375" xlink:href="#Verdana-65"/>
     <use x="495.31640625" xlink:href="#Verdana-20"/>
     <use x="530.47265625" xlink:href="#Verdana-52"/>
     <use x="598.00390625" xlink:href="#Verdana-61"/>
     <use x="658.0625" xlink:href="#Verdana-6e"/>
     <use x="721.34375" xlink:href="#Verdana-6b"/>
     <use x="780.5234375" xlink:href="#Verdana-20"/>
     <use x="815.6796875" xlink:href="#Verdana-30"/>
     <use x="879.25390625" xlink:href="#Verdana-20"/>
     <use x="914.41015625" xlink:href="#Verdana-50"/>
     <use x="974.712890625" xlink:href="#Verdana-72"/>
     <use x="1017.388671875" xlink:href="#Verdana-6f"/>
     <use x="1078.08203125" xlink:href="#Verdana-62"/>
     <use x="1140.38671875" xlink:href="#Verdana-61"/>
     <use x="1200.4453125" xlink:href="#Verdana-62"/>
     <use x="1262.75" xlink:href="#Verdana-69"/>
     <use x="1290.19140625" xlink:href="#Verdana-6c"/>
     <use x="1317.6328125" xlink:href="#Verdana-69"/>
     <use x="1345.07421875" xlink:href="#Verdana-74"/>
     <use x="1383.978515625" xlink:href="#Verdana-79"/>
    </g>
   </g>
   <g id="legend_1">
    <g id="patch_7">
     <path d="
M407.18 159.919
L511.2 159.919
L511.2 50.4
L407.18 50.4
L407.18 159.919
z
" style="fill:#ffffff;stroke:#000000;"/>
    </g>
    <g id="line2d_30">
     <path d="
M417.26 62.0617
L437.42 62.0617" style="fill:none;stroke:#0000ff;stroke-dasharray:6.000000,2.000000;stroke-dashoffset:0.0;"/>
    </g>
    <g id="line2d_31"/>
    <g id="text_16">
     <!-- AMPGO -->
     <defs>
      <path d="
M74.5156 0
L64.8438 0
L64.8438 62.6406
L44.625 20.0156
L38.875 20.0156
L18.7969 62.6406
L18.7969 0
L9.76562 0
L9.76562 72.7031
L22.9531 72.7031
L42.3281 32.2344
L61.0781 72.7031
L74.5156 72.7031
z
" id="Verdana-4d"/>
      <path d="
M67.0938 0
L56.7812 0
L49.6562 20.2656
L18.2188 20.2656
L11.0781 0
L1.26562 0
L27.7344 72.7031
L40.625 72.7031
z

M46.6875 28.5625
L33.9375 64.2656
L21.1406 28.5625
z
" id="Verdana-41"/>
      <path d="
M70.4062 5.375
Q64.4531 2.64062 57.3906 0.609375
Q50.3438 -1.42188 43.75 -1.42188
Q35.25 -1.42188 28.1719 0.921875
Q21.0938 3.26562 16.1094 7.95312
Q11.0781 12.7031 8.34375 19.7969
Q5.60938 26.9062 5.60938 36.4219
Q5.60938 53.8594 15.7969 63.9375
Q25.9844 74.0312 43.75 74.0312
Q49.9531 74.0312 56.4219 72.5312
Q62.8906 71.0469 70.3594 67.4844
L70.3594 56
L69.4844 56
Q67.9688 57.1719 65.0781 59.0781
Q62.2031 60.9844 59.4219 62.25
Q56.0625 63.7656 51.7812 64.7656
Q47.5156 65.7656 42.0938 65.7656
Q29.8906 65.7656 22.7812 57.9219
Q15.6719 50.0938 15.6719 36.7188
Q15.6719 22.6094 23.0938 14.7656
Q30.5156 6.9375 43.3125 6.9375
Q48 6.9375 52.6562 7.85938
Q57.3281 8.79688 60.8438 10.25
L60.8438 28.0781
L41.3594 28.0781
L41.3594 36.5781
L70.4062 36.5781
z
" id="Verdana-47"/>
     </defs>
     <g transform="translate(453.26025 67.10175)scale(0.144 -0.144)">
      <use xlink:href="#Verdana-41"/>
      <use x="68.359375" xlink:href="#Verdana-4d"/>
      <use x="152.63671875" xlink:href="#Verdana-50"/>
      <use x="212.939453125" xlink:href="#Verdana-47"/>
      <use x="290.478515625" xlink:href="#Verdana-4f"/>
     </g>
    </g>
    <g id="line2d_32">
     <path d="
M417.26 83.1015
L437.42 83.1015" style="fill:none;stroke:#008000;stroke-dasharray:1.000000,1.000000;stroke-dashoffset:0.0;"/>
    </g>
    <g id="line2d_33"/>
    <g id="text_17">
     <!-- Anneal -->
     <g transform="translate(453.26025 88.1415)scale(0.144 -0.144)">
      <use xlink:href="#Verdana-41"/>
      <use x="68.359375" xlink:href="#Verdana-6e"/>
      <use x="131.640625" xlink:href="#Verdana-6e"/>
      <use x="194.921875" xlink:href="#Verdana-65"/>
      <use x="254.4921875" xlink:href="#Verdana-61"/>
      <use x="314.55078125" xlink:href="#Verdana-6c"/>
     </g>
    </g>
    <g id="line2d_34">
     <path d="
M417.26 104.141
L437.42 104.141" style="fill:none;stroke:#ff0000;stroke-dasharray:3.000000,6.000000;stroke-dashoffset:0.0;"/>
    </g>
    <g id="line2d_35"/>
    <g id="text_18">
     <!-- BSA -->
     <defs>
      <path d="
M62.5938 20.75
Q62.5938 16.5 60.6094 12.3438
Q58.6406 8.20312 55.0781 5.32812
Q51.1719 2.20312 45.9688 0.4375
Q40.7656 -1.3125 33.4531 -1.3125
Q25.5938 -1.3125 19.3125 0.140625
Q13.0312 1.60938 6.54688 4.5
L6.54688 16.6094
L7.23438 16.6094
Q12.75 12.0156 19.9688 9.51562
Q27.2031 7.03125 33.5469 7.03125
Q42.5312 7.03125 47.5312 10.3906
Q52.5469 13.7656 52.5469 19.3906
Q52.5469 24.2188 50.1719 26.5156
Q47.7969 28.8125 42.9688 30.0781
Q39.3125 31.0625 35.0312 31.6875
Q30.7656 32.3281 25.9844 33.2969
Q16.3125 35.3594 11.6406 40.3125
Q6.98438 45.2656 6.98438 53.2188
Q6.98438 62.3594 14.6875 68.1875
Q22.4062 74.0312 34.2812 74.0312
Q41.9375 74.0312 48.3281 72.5625
Q54.7344 71.0938 59.6719 68.9531
L59.6719 57.5156
L58.9844 57.5156
Q54.8281 61.0312 48.0625 63.3438
Q41.3125 65.6719 34.2344 65.6719
Q26.4688 65.6719 21.75 62.4531
Q17.0469 59.2344 17.0469 54.1562
Q17.0469 49.6094 19.3906 47.0156
Q21.7344 44.4375 27.6406 43.0625
Q30.7656 42.3906 36.5156 41.4062
Q42.2812 40.4375 46.2969 39.4062
Q54.3906 37.25 58.4844 32.9062
Q62.5938 28.5625 62.5938 20.75" id="Verdana-53"/>
      <path d="
M64.5938 22.3594
Q64.5938 16.9375 62.5469 12.7812
Q60.5 8.64062 57.0312 5.95312
Q52.9375 2.73438 48.0156 1.35938
Q43.1094 0 35.5469 0
L9.76562 0
L9.76562 72.7031
L31.2969 72.7031
Q39.2656 72.7031 43.2188 72.1094
Q47.1719 71.5312 50.7812 69.6719
Q54.7812 67.5781 56.5938 64.2812
Q58.4062 60.9844 58.4062 56.3906
Q58.4062 51.2188 55.7656 47.5781
Q53.125 43.9531 48.7344 41.75
L48.7344 41.3594
Q56.1094 39.8438 60.3438 34.8906
Q64.5938 29.9375 64.5938 22.3594
M48.3438 55.125
Q48.3438 57.7656 47.4531 59.5625
Q46.5781 61.375 44.625 62.5
Q42.3281 63.8125 39.0625 64.125
Q35.7969 64.4531 30.9531 64.4531
L19.4375 64.4531
L19.4375 43.4531
L31.9375 43.4531
Q36.4688 43.4531 39.1562 43.9219
Q41.8438 44.3906 44.1406 45.8438
Q46.4375 47.3125 47.3906 49.625
Q48.3438 51.9531 48.3438 55.125
M54.5469 21.9688
Q54.5469 26.375 53.2188 28.9531
Q51.9062 31.5469 48.4375 33.3438
Q46.0938 34.5781 42.75 34.9375
Q39.4062 35.2969 34.625 35.2969
L19.4375 35.2969
L19.4375 8.25
L32.2344 8.25
Q38.5781 8.25 42.625 8.90625
Q46.6875 9.57812 49.2656 11.3281
Q52 13.2344 53.2656 15.6719
Q54.5469 18.1094 54.5469 21.9688" id="Verdana-42"/>
     </defs>
     <g transform="translate(453.26025 109.18125)scale(0.144 -0.144)">
      <use xlink:href="#Verdana-42"/>
      <use x="68.5546875" xlink:href="#Verdana-53"/>
      <use x="135.9140625" xlink:href="#Verdana-41"/>
     </g>
    </g>
    <g id="line2d_36">
     <path d="
M417.26 125.181
L437.42 125.181" style="fill:none;stroke:#00bfbf;stroke-dasharray:5.000000,1.000000,2.000000,1.000000,5.000000,1.000000;stroke-dashoffset:0.0;"/>
    </g>
    <g id="line2d_37"/>
    <g id="text_19">
     <!-- Cuckoo -->
     <defs>
      <path d="
M65.9219 5.28125
Q63.2344 4.10938 61.0625 3.07812
Q58.8906 2.04688 55.375 0.921875
Q52.3906 0 48.8906 -0.65625
Q45.4062 -1.3125 41.2188 -1.3125
Q33.2969 -1.3125 26.8281 0.90625
Q20.3594 3.125 15.5781 7.85938
Q10.8906 12.5 8.25 19.6562
Q5.60938 26.8125 5.60938 36.2812
Q5.60938 45.2656 8.14062 52.3438
Q10.6875 59.4219 15.4844 64.3125
Q20.125 69.0469 26.6875 71.5312
Q33.25 74.0312 41.2656 74.0312
Q47.125 74.0312 52.9531 72.6094
Q58.7969 71.1875 65.9219 67.625
L65.9219 56.1562
L65.1875 56.1562
Q59.1875 61.1875 53.2656 63.4688
Q47.3594 65.7656 40.625 65.7656
Q35.1094 65.7656 30.6875 63.9844
Q26.2656 62.2031 22.7969 58.4531
Q19.4375 54.7812 17.5469 49.1875
Q15.6719 43.6094 15.6719 36.2812
Q15.6719 28.6094 17.75 23.0938
Q19.8281 17.5781 23.0938 14.1094
Q26.5156 10.5 31.0781 8.76562
Q35.6406 7.03125 40.7188 7.03125
Q47.7031 7.03125 53.7969 9.42188
Q59.9062 11.8125 65.2344 16.6094
L65.9219 16.6094
z
" id="Verdana-43"/>
     </defs>
     <g transform="translate(453.26025 130.221)scale(0.144 -0.144)">
      <use xlink:href="#Verdana-43"/>
      <use x="69.82421875" xlink:href="#Verdana-75"/>
      <use x="133.10546875" xlink:href="#Verdana-63"/>
      <use x="185.205078125" xlink:href="#Verdana-6b"/>
      <use x="243.384765625" xlink:href="#Verdana-6f"/>
      <use x="304.078125" xlink:href="#Verdana-6f"/>
     </g>
    </g>
    <g id="line2d_38">
     <path d="
M417.26 146.221
L437.42 146.221" style="fill:none;stroke:#bf00bf;stroke-linecap:square;"/>
    </g>
    <g id="line2d_39"/>
    <g id="text_20">
     <!-- qABC -->
     <defs>
      <path d="
M53.2656 -20.125
L44.0938 -20.125
L44.0938 6.15625
Q39.8438 2.48438 35.6406 0.703125
Q31.4531 -1.07812 26.5625 -1.07812
Q16.8438 -1.07812 11.0625 6.42188
Q5.28125 13.9219 5.28125 27.0938
Q5.28125 34.125 7.29688 39.5156
Q9.32812 44.9219 12.6406 48.5781
Q15.875 52.1562 20.2188 54.1094
Q24.5625 56.0625 29.3906 56.0625
Q33.7969 56.0625 37.1875 55.0781
Q40.5781 54.1094 44.0938 52.2031
L44.6719 54.5469
L53.2656 54.5469
z

M44.0938 13.875
L44.0938 44.7344
Q40.2812 46.4375 37.3438 47.1094
Q34.4219 47.7969 31 47.7969
Q23.0469 47.7969 18.8906 42.4062
Q14.75 37.0156 14.75 27.5469
Q14.75 17.9688 18.0938 12.8125
Q21.4375 7.67188 28.6094 7.67188
Q32.625 7.67188 36.625 9.40625
Q40.625 11.1406 44.0938 13.875" id="Verdana-71"/>
     </defs>
     <g transform="translate(453.26025 151.26075)scale(0.144 -0.144)">
      <use xlink:href="#Verdana-71"/>
      <use x="62.3046875" xlink:href="#Verdana-41"/>
      <use x="130.6640625" xlink:href="#Verdana-42"/>
      <use x="199.21875" xlink:href="#Verdana-43"/>
     </g>
    </g>
   </g>
  </g>
 </g>
 <defs>
  <clipPath id="p7ff5b81e1d">
   <rect height="345.6" width="446.4" x="72.0" y="43.2"/>
  </clipPath>
 </defs>
</svg>
