<?xml version="1.0" encoding="utf-8" standalone="no"?>
<!DOCTYPE svg PUBLIC "-//W3C//DTD SVG 1.1//EN"
  "http://www.w3.org/Graphics/SVG/1.1/DTD/svg11.dtd">
<!-- Created with matplotlib (http://matplotlib.org/) -->
<svg height="432pt" version="1.1" viewBox="0 0 576 432" width="576pt" xmlns="http://www.w3.org/2000/svg" xmlns:xlink="http://www.w3.org/1999/xlink">
 <defs>
  <style type="text/css">
*{stroke-linecap:butt;stroke-linejoin:round;}
  </style>
 </defs>
 <g id="figure_1">
  <g id="patch_1">
   <path d="
M0 432
L576 432
L576 0
L0 0
z
" style="fill:#ffffff;"/>
  </g>
  <g id="axes_1">
   <g id="patch_2">
    <path d="
M72 388.8
L518.4 388.8
L518.4 43.2
L72 43.2
z
" style="fill:#ffffff;"/>
   </g>
   <g id="line2d_1">
    <path clip-path="url(#p7ff5b81e1d)" d="
M72 80.5307
L72.8928 80.5308
L73.0714 107.53
L73.5178 133.285
L73.7856 135.662
L73.9642 142.156
L74.6784 142.262
L74.857 147.486
L75.0355 148.329
L75.2141 149.427
L75.5712 149.785
L75.7498 159.856
L76.3747 162.392
L76.464 162.476
L76.6426 170.924
L76.8211 171.499
L77.089 172.061
L77.3568 172.287
L77.5354 177.432
L78.2496 177.736
L78.4282 183.111
L79.0531 184.914
L79.1424 184.914
L79.321 192.312
L79.5888 192.517
L80.0352 192.574
L80.2138 200.055
L80.4816 200.067
L80.6602 200.187
L80.928 200.263
L81.1066 205.64
L81.4637 206.736
L81.7315 207.203
L81.8208 207.252
L81.9994 210.982
L82.7136 211.167
L82.8922 214.452
L83.2493 214.56
L83.6064 214.586
L83.785 218.307
L83.9635 218.399
L84.4099 218.425
L84.4992 218.425
L84.6778 222.276
L84.8563 222.374
L85.3027 222.481
L85.392 222.481
L85.5706 225.465
L85.9277 225.793
L86.1062 225.976
L86.2848 226.05
L86.4634 228.572
L86.5526 228.612
L86.7312 228.826
L87.1776 228.841
L87.3562 230.807
L88.0704 230.858
L88.249 232.494
L88.9632 232.542
L89.1418 234.146
L89.5882 234.241
L89.856 234.277
L90.0346 235.926
L90.6595 236.249
L90.7488 236.253
L90.9274 237.853
L91.1059 237.995
L91.3738 238.105
L91.6416 238.12
L91.8202 239.194
L92.5344 239.289
L92.713 239.826
L93.4272 239.859
L93.6058 240.479
L94.0522 240.567
L94.32 240.602
L94.4986 241.482
L95.2128 241.757
L95.3914 242.652
L96.1056 242.753
L96.2842 243.424
L96.8198 243.592
L96.9984 243.655
L97.177 243.998
L97.4448 244.07
L97.8912 244.077
L98.0698 244.333
L98.784 244.382
L98.9626 244.867
L99.4982 245.191
L99.6768 245.202
L99.8554 245.801
L100.57 245.864
L100.748 246.288
L101.462 246.293
L101.641 246.554
L101.909 246.62
L102.355 246.62
L102.534 246.854
L103.248 246.867
L103.427 247.138
L104.141 247.209
L104.319 247.531
L105.034 247.576
L105.212 247.808
L105.926 247.844
L106.105 248.046
L106.819 248.058
L106.998 248.368
L107.712 248.398
L107.891 248.657
L108.605 248.662
L108.783 248.812
L111.283 248.947
L111.551 249.022
L113.962 249.155
L114.14 249.278
L114.497 249.339
L114.765 249.415
L114.854 249.415
L115.033 249.536
L115.569 249.73
L116.015 249.99
L116.64 250.081
L116.819 250.199
L117.086 250.211
L117.265 250.383
L117.533 250.383
L117.711 250.515
L118.426 250.913
L118.604 251.08
L119.765 251.231
L123.782 251.911
L123.961 252.013
L125.568 252.069
L125.747 252.19
L126.461 252.19
L126.639 252.372
L128.693 252.473
L129.05 252.503
L130.032 252.581
L130.3 252.627
L132.8 252.732
L134.228 252.994
L134.764 253.109
L136.907 253.203
L137.442 253.284
L138.156 253.319
L138.424 253.468
L138.871 253.529
L140.031 253.639
L142.531 253.757
L142.71 253.84
L150.299 254.521
L152.352 254.623
L152.531 254.643
L152.709 254.802
L153.156 254.836
L153.334 254.984
L165.655 255.87
L165.923 255.943
L166.726 256.022
L166.994 256.125
L169.315 256.224
L170.029 256.265
L171.279 256.327
L171.904 256.365
L172.351 256.648
L174.583 256.827
L174.851 256.966
L177.35 257.068
L177.618 257.123
L178.6 257.234
L178.957 257.281
L180.832 257.376
L181.1 257.452
L184.761 257.553
L185.475 257.593
L186.725 257.682
L187.082 257.72
L189.85 257.827
L207.348 258.874
L208.777 258.977
L211.634 259.203
L213.062 259.278
L213.33 259.368
L218.508 259.434
L218.776 259.535
L221.365 259.634
L221.812 259.668
L224.222 259.748
L224.58 259.836
L226.99 259.946
L239.579 260.443
L239.757 260.528
L243.06 260.638
L259.131 261.233
L263.327 261.338
L263.506 261.418
L269.041 261.526
L271.809 261.757
L274.933 261.867
L276.273 261.896
L281.094 261.989
L281.272 262.074
L284.933 262.185
L287.343 262.324
L289.575 262.506
L289.932 262.543
L295.289 262.656
L299.664 262.878
L301.985 262.987
L302.253 263.037
L305.289 263.148
L316.538 263.342
L317.699 263.364
L322.163 263.468
L322.43 263.512
L329.841 263.757
L335.822 263.85
L336.358 263.872
L337.519 263.964
L337.787 264.097
L338.144 264.133
L341.715 264.241
L342.161 264.289
L345.197 264.423
L345.554 264.458
L347.875 264.568
L348.322 264.645
L352.518 264.756
L357.25 264.894
L364.481 265.004
L365.999 265.027
L370.463 265.137
L387.426 265.527
L387.873 265.553
L388.855 265.586
L392.872 265.682
L393.587 265.714
L405.461 266.009
L409.032 266.119
L412.335 266.189
L431.352 266.692
L433.316 266.765
L441.976 266.883
L443.048 266.905
L447.512 267.014
L453.493 267.152
L456.172 267.256
L457.6 267.323
L475.188 267.886
L478.581 267.989
L480.01 268.011
L483.134 268.122
L495.544 268.454
L511.972 268.703
L512.24 268.805
L518.311 268.941
L518.311 268.941" style="fill:none;stroke:#0000ff;stroke-dasharray:6.000000,2.000000;stroke-dashoffset:0.0;"/>
   </g>
   <g id="line2d_2">
    <path clip-path="url(#p7ff5b81e1d)" d="
M72 79.8667
L73.0714 157.646
L73.6963 189.062
L74.6784 221.294
L75.4819 237.784
L76.7318 255.991
L77.6246 266.235
L78.2496 271.588
L79.4995 279.082
L80.303 283.012
L80.6602 284.48
L81.3744 286.982
L81.553 287.603
L82.8029 291.481
L83.5171 293.424
L84.0528 294.715
L87.4454 301.231
L90.1238 304.894
L90.5702 305.248
L91.7309 306.661
L92.2666 307.215
L96.3734 310.881
L96.8198 311.195
L97.0877 311.464
L97.3555 311.637
L98.784 312.702
L99.1411 312.869
L100.302 313.727
L101.016 314.124
L101.641 314.51
L104.141 315.859
L104.319 315.987
L105.034 316.446
L105.926 316.717
L106.373 316.891
L107.266 317.31
L107.623 317.534
L108.516 317.937
L108.962 318.142
L109.855 318.666
L112.176 319.551
L113.069 319.946
L116.283 320.986
L116.908 321.195
L117.89 321.501
L118.515 321.697
L119.408 321.942
L121.64 322.504
L122.443 322.691
L123.961 323.214
L126.55 323.835
L126.996 323.94
L127.8 324.071
L128.246 324.149
L129.139 324.327
L129.853 324.519
L130.836 324.731
L138.246 326.135
L145.388 327.242
L145.745 327.345
L147.888 327.67
L148.513 327.794
L150.299 328.016
L168.422 330.695
L171.369 331.02
L171.815 331.152
L172.351 331.252
L175.386 331.631
L175.833 331.711
L176.904 331.823
L177.708 331.951
L180.475 332.208
L207.527 334.835
L209.313 334.99
L209.848 335.027
L211.098 335.097
L214.759 335.281
L215.294 335.316
L217.616 335.432
L219.223 335.514
L222.258 335.692
L223.062 335.757
L225.829 335.956
L226.633 336.002
L229.044 336.201
L229.847 336.241
L231.9 336.351
L232.436 336.382
L234.49 336.501
L235.204 336.577
L260.916 337.832
L261.72 337.895
L266.809 338.193
L267.255 338.225
L268.684 338.344
L272.076 338.561
L274.219 338.647
L274.576 338.685
L276.898 338.797
L279.13 338.916
L281.183 339.035
L282.076 339.097
L285.379 339.299
L286.808 339.414
L287.79 339.492
L290.647 339.693
L293.504 339.811
L294.843 339.893
L298.593 340.034
L302.789 340.21
L303.86 340.225
L306.717 340.341
L308.592 340.403
L325.198 340.823
L329.751 341.036
L330.555 341.108
L337.072 341.233
L346.357 341.602
L349.482 341.713
L350.554 341.764
L353.589 341.871
L354.125 341.922
L357.25 342.028
L358.142 342.076
L360.821 342.187
L361.535 342.222
L365.642 342.332
L366.624 342.381
L369.302 342.563
L370.731 342.66
L371.088 342.697
L373.766 342.803
L374.659 342.838
L383.676 343.122
L386.623 343.228
L387.337 343.288
L389.658 343.354
L393.408 343.459
L394.122 343.477
L397.068 343.574
L397.693 343.63
L402.604 343.739
L404.122 343.838
L406.621 343.912
L409.836 344.027
L410.996 344.062
L416.532 344.171
L419.656 344.263
L422.87 344.366
L424.388 344.441
L459.654 345.555
L463.225 345.668
L464.118 345.698
L470.278 345.817
L470.992 345.861
L477.242 345.981
L485.724 346.109
L486.527 346.128
L494.294 346.254
L494.83 346.279
L500.008 346.389
L501.705 346.443
L505.99 346.554
L506.794 346.58
L513.579 346.691
L518.311 346.832
L518.311 346.832" style="fill:none;stroke:#008000;stroke-dasharray:1.000000,1.000000;stroke-dashoffset:0.0;"/>
   </g>
   <g id="line2d_3">
    <path clip-path="url(#p7ff5b81e1d)" d="
M72 78.6318
L72.2678 114.616
L72.625 129.122
L73.1606 140.979
L73.607 148.05
L74.0534 151.838
L75.2141 157.932
L76.9104 166.768
L77.2675 168.244
L77.9818 172.086
L78.5174 174.497
L79.1424 177.433
L79.4102 179.11
L80.4816 183.214
L80.5709 183.437
L80.7494 184.117
L80.8387 184.263
L81.2851 187.232
L82.2672 191.401
L82.8922 193.626
L83.3386 195.673
L84.4099 200.561
L84.8563 202.482
L86.3741 207.327
L86.6419 208.182
L86.999 209.178
L87.2669 209.832
L87.3562 209.922
L87.8918 211.113
L88.0704 211.405
L88.4275 212.23
L88.6954 213.406
L88.8739 214.002
L89.0525 214.61
L89.3203 215.137
L91.0166 220.547
L91.2845 221.181
L91.463 221.461
L92.1773 222.863
L92.3558 223.517
L92.713 224.651
L92.8915 224.945
L93.7843 227.204
L94.0522 227.95
L94.32 228.586
L94.4986 228.853
L94.8557 229.559
L95.0342 229.721
L98.6054 238.426
L98.6947 238.493
L99.1411 239.879
L100.034 240.91
L100.659 242.55
L100.927 243.036
L101.552 244.404
L102.177 245.423
L102.444 246.009
L102.712 246.501
L103.784 247.978
L103.873 248.019
L104.587 249.375
L104.766 249.527
L104.944 249.822
L105.123 250.032
L105.926 251.163
L106.105 251.353
L106.373 251.712
L106.641 251.868
L106.908 252.243
L107.176 252.615
L107.355 252.965
L107.98 253.706
L109.051 255.41
L109.14 255.452
L109.408 255.812
L109.587 255.993
L109.765 256.315
L110.658 257.531
L111.015 257.785
L111.283 258.264
L111.64 258.654
L112.087 259.169
L112.444 259.602
L113.158 260.551
L113.247 260.565
L113.694 261.18
L113.962 261.317
L114.319 261.833
L115.212 262.904
L115.926 263.644
L116.372 264.34
L116.64 264.548
L117.086 265.191
L118.247 266.322
L118.426 266.51
L118.693 266.636
L119.943 267.968
L120.3 268.079
L120.39 268.127
L120.747 268.707
L121.015 268.941
L121.372 269.111
L123.157 270.878
L123.604 271.099
L124.05 271.505
L124.586 272.034
L124.675 272.057
L125.032 272.581
L125.657 273.088
L125.925 273.303
L126.729 274.204
L126.907 274.278
L127.532 274.768
L127.889 275.166
L128.157 275.4
L128.604 275.678
L129.228 276.197
L129.586 276.541
L130.211 277.011
L130.389 277.106
L131.014 277.781
L131.907 278.268
L132.085 278.384
L132.353 278.56
L132.8 278.763
L133.246 279.201
L134.05 279.669
L134.407 280.004
L135.478 280.68
L135.924 281.027
L136.282 281.161
L136.907 281.568
L137.174 281.793
L137.532 281.981
L137.799 282.175
L138.871 282.608
L139.139 282.786
L139.406 282.916
L139.674 283.189
L140.121 283.361
L140.478 283.902
L141.46 284.28
L141.906 284.59
L141.996 284.611
L142.263 284.978
L142.888 285.183
L144.942 286.185
L145.299 286.409
L145.477 286.419
L145.656 286.558
L146.817 286.971
L147.263 287.27
L150.209 288.623
L150.745 288.772
L151.013 288.952
L152.173 289.606
L152.709 289.708
L152.977 289.873
L153.245 290.019
L153.602 290.255
L154.048 290.407
L155.477 290.807
L155.655 290.961
L155.923 291.043
L156.37 291.241
L156.816 291.359
L157.084 291.498
L157.709 291.86
L158.244 292.149
L158.691 292.303
L159.137 292.496
L159.494 292.56
L160.03 292.757
L161.012 293.043
L161.369 293.349
L164.494 294.426
L164.851 294.641
L166.726 295.449
L167.262 295.628
L168.512 296.04
L168.69 296.099
L169.137 296.285
L169.583 296.417
L170.119 296.638
L170.565 296.814
L170.833 296.971
L171.994 297.239
L172.44 297.385
L172.976 297.535
L173.244 297.606
L173.779 297.757
L174.047 297.912
L174.583 298.032
L175.118 298.196
L175.565 298.342
L176.011 298.57
L176.19 298.636
L176.458 298.772
L178.154 299.568
L178.868 299.737
L180.386 300.233
L181.1 300.349
L181.368 300.413
L182.082 300.52
L185.475 301.17
L186.457 301.316
L186.993 301.559
L187.796 301.773
L188.064 301.887
L188.6 302.003
L190.832 302.514
L191.1 302.628
L191.635 302.718
L193.064 303.022
L193.51 303.114
L194.849 303.469
L196.278 303.719
L196.992 303.99
L198.599 304.282
L200.474 304.652
L201.01 304.737
L201.367 304.855
L205.295 305.641
L205.563 305.749
L206.813 306.107
L207.259 306.216
L207.706 306.31
L208.956 306.487
L209.402 306.672
L211.188 307.092
L211.634 307.203
L213.062 307.498
L213.866 307.631
L214.134 307.702
L214.58 307.805
L216.187 308.069
L216.544 308.137
L217.526 308.256
L218.33 308.379
L219.133 308.484
L219.401 308.565
L220.026 308.674
L222.348 309.271
L222.705 309.386
L223.687 309.495
L224.847 309.633
L225.562 309.785
L226.097 309.892
L227.169 310.07
L227.436 310.145
L227.704 310.211
L228.061 310.328
L228.597 310.444
L232.168 311.071
L232.704 311.12
L232.972 311.224
L234.222 311.439
L234.668 311.485
L235.472 311.571
L235.918 311.658
L237.525 311.981
L238.686 312.135
L239.311 312.201
L239.668 312.279
L240.561 312.399
L241.543 312.513
L242.525 312.637
L243.239 312.737
L247.078 313.452
L247.792 313.619
L248.149 313.739
L249.042 313.83
L249.399 313.885
L250.024 313.94
L253.238 314.432
L254.845 314.568
L257.792 314.922
L258.952 315.096
L259.756 315.213
L260.292 315.291
L260.738 315.379
L261.095 315.412
L262.256 315.536
L262.881 315.601
L267.255 316.169
L268.148 316.319
L270.023 316.556
L271.094 316.649
L271.541 316.776
L273.594 316.885
L277.076 317.322
L278.772 317.431
L305.914 320.55
L306.985 320.66
L308.503 320.866
L309.485 320.977
L311.36 321.221
L311.806 321.323
L315.199 321.74
L315.734 321.775
L316.27 321.866
L316.984 321.977
L318.324 322.086
L329.751 322.955
L330.108 323.024
L332.073 323.116
L332.34 323.184
L336.001 323.538
L336.447 323.623
L349.839 324.703
L350.643 324.786
L352.161 324.872
L354.571 324.99
L356 325.252
L356.982 325.343
L357.339 325.391
L359.124 325.497
L359.66 325.608
L361.178 325.711
L361.803 325.741
L364.124 325.966
L368.41 326.327
L368.677 326.433
L369.481 326.503
L371.445 326.613
L372.695 326.728
L374.659 326.825
L375.373 326.908
L392.783 328.539
L393.497 328.605
L394.301 328.667
L394.569 328.733
L395.997 328.848
L397.426 328.948
L397.961 328.973
L398.586 329.066
L399.211 329.218
L412.335 330.211
L417.067 330.512
L417.781 330.549
L419.746 330.7
L420.996 330.809
L421.442 330.838
L424.031 330.937
L425.46 331.041
L427.87 331.183
L428.495 331.243
L432.156 331.55
L432.513 331.594
L433.316 331.697
L437.512 332.022
L438.584 332.126
L440.816 332.239
L442.869 332.334
L443.762 332.533
L445.905 332.657
L446.619 332.702
L449.654 332.866
L450.904 332.924
L452.69 333.019
L453.404 333.124
L454.297 333.214
L456.44 333.313
L457.779 333.396
L459.832 333.505
L460.636 333.559
L462.6 333.675
L464.296 333.882
L465.1 333.938
L466.975 334.046
L471.171 334.382
L472.332 334.486
L474.742 334.587
L475.01 334.649
L476.438 334.742
L477.331 334.828
L478.76 334.85
L479.92 334.956
L480.992 335.071
L481.974 335.171
L484.92 335.477
L486.884 335.605
L487.509 335.653
L490.098 335.759
L494.027 336.098
L495.187 336.2
L497.33 336.356
L498.491 336.451
L498.848 336.486
L499.562 336.584
L500.098 336.62
L505.454 336.939
L505.901 336.998
L507.865 337.104
L510.097 337.227
L511.883 337.372
L516.079 337.725
L516.882 337.8
L518.311 337.886
L518.311 337.886" style="fill:none;stroke:#ff0000;stroke-dasharray:3.000000,6.000000;stroke-dashoffset:0.0;"/>
   </g>
   <g id="line2d_4">
    <path clip-path="url(#p7ff5b81e1d)" d="
M72 81.8609
L72.0893 98.9569
L72.2678 113.745
L72.625 129.401
L73.1606 140.191
L73.607 146.515
L73.7856 147.23
L74.0534 147.485
L74.3213 147.602
L74.857 147.909
L75.1248 148.231
L75.3926 148.437
L75.4819 148.506
L75.9283 152.078
L76.3747 155.536
L77.7139 163.011
L77.8032 163.159
L78.2496 165.128
L78.7853 166.262
L79.9459 171.297
L80.303 173.345
L81.0173 175.433
L81.2851 177.372
L81.7315 179.261
L82.6243 182.546
L83.0707 183.922
L84.4992 189.108
L84.8563 190.824
L85.2134 192.314
L85.9277 193.828
L86.1955 195.031
L86.5526 195.892
L86.8205 196.719
L87.1776 197.49
L87.2669 197.605
L87.5347 198.288
L87.8918 198.69
L88.9632 201.475
L89.231 202.502
L90.0346 204.542
L90.3024 204.722
L90.481 204.965
L90.6595 205.171
L91.1952 205.876
L92.4451 208.549
L92.713 209.07
L92.9808 209.739
L93.1594 210.131
L93.6058 210.726
L94.945 212.177
L96.9984 217.437
L97.177 217.573
L97.3555 217.703
L97.6234 218.085
L98.6054 219.198
L99.4982 220.92
L99.5875 220.987
L100.123 222.217
L100.212 222.288
L100.48 222.655
L101.195 223.319
L101.373 223.41
L101.552 223.614
L102.534 224.401
L102.891 225.212
L103.337 225.872
L103.605 226.098
L103.694 226.134
L103.962 226.653
L104.23 226.811
L104.498 226.865
L104.676 227.105
L104.944 227.233
L105.123 227.355
L105.659 227.752
L105.748 227.784
L106.105 228.425
L106.641 229.041
L107.266 230.472
L107.355 230.535
L107.623 231.243
L107.801 231.513
L107.98 231.729
L108.248 231.817
L108.426 232.072
L108.605 232.083
L108.962 232.507
L109.23 232.579
L109.498 232.839
L110.033 233.589
L110.301 233.888
L110.658 234.543
L110.837 234.738
L111.64 235.677
L112.176 235.853
L112.444 236.232
L112.801 236.463
L112.89 236.469
L113.426 237.267
L113.604 237.391
L114.14 238.094
L114.587 238.61
L115.479 239.359
L116.64 239.635
L118.068 241.327
L118.783 241.676
L119.676 242.293
L119.943 242.383
L120.747 243.47
L120.925 243.711
L121.283 243.87
L121.461 243.99
L121.818 244.122
L122.086 244.339
L123.693 245.093
L124.407 245.735
L124.586 245.872
L124.854 246.152
L125.211 246.317
L125.568 246.649
L125.836 246.716
L126.104 246.925
L126.818 247.123
L126.996 247.166
L127.443 247.666
L127.8 247.944
L128.157 247.969
L128.604 248.537
L129.139 248.833
L130.121 249.213
L130.389 249.365
L130.925 249.539
L131.55 250.194
L131.728 250.235
L131.907 250.482
L132.175 250.576
L132.889 251.016
L133.246 251.078
L133.603 251.261
L133.871 251.311
L134.05 251.392
L134.317 251.47
L135.032 251.94
L135.21 252.08
L135.567 252.269
L135.924 252.487
L136.103 252.508
L136.282 252.637
L136.817 252.745
L137.889 252.952
L138.781 253.51
L138.871 253.535
L139.139 253.789
L139.496 254.054
L139.674 254.193
L139.853 254.386
L140.835 254.59
L141.281 254.834
L141.638 254.872
L142.085 255.272
L142.62 255.513
L142.888 255.712
L143.156 255.97
L143.335 256.08
L143.513 256.179
L144.049 256.245
L144.317 256.421
L145.12 256.684
L145.299 256.91
L145.567 256.94
L145.835 257.153
L147.709 258.038
L148.067 258.123
L148.334 258.244
L148.959 258.399
L149.406 258.662
L150.12 258.899
L150.388 259.007
L150.656 259.072
L151.191 259.208
L151.459 259.297
L152.62 259.587
L152.977 259.776
L153.156 259.857
L153.513 260.073
L156.102 260.683
L156.459 261.001
L156.905 261.102
L157.084 261.168
L157.798 261.586
L160.566 262.358
L162.351 262.898
L163.333 263.082
L163.512 263.285
L164.316 263.583
L164.494 263.674
L164.851 263.78
L165.119 263.858
L165.565 263.968
L166.905 264.265
L167.44 264.52
L167.887 264.69
L168.155 264.919
L169.137 265.13
L169.583 265.239
L170.297 265.365
L170.654 265.577
L170.922 265.71
L171.279 265.82
L172.172 266.123
L172.976 266.224
L174.047 266.525
L174.226 266.668
L174.583 266.827
L175.476 267.168
L177.708 267.597
L179.761 268.276
L180.832 268.499
L181.1 268.779
L181.457 268.978
L181.814 269.247
L183.243 269.6
L184.582 269.759
L184.85 269.927
L185.028 270.035
L186.011 270.452
L186.636 270.52
L187.707 270.694
L187.975 270.811
L188.421 270.922
L188.957 271.419
L190.028 271.75
L191.635 271.981
L192.171 272.126
L192.796 272.332
L193.51 272.573
L195.564 273.026
L196.188 273.374
L196.635 273.485
L198.063 273.558
L198.331 273.611
L198.956 273.695
L199.135 273.812
L199.492 273.876
L199.849 274.071
L200.117 274.192
L200.295 274.314
L201.099 274.511
L201.992 274.603
L203.152 275.031
L203.509 275.186
L203.867 275.336
L204.492 275.441
L205.652 275.636
L208.598 276.531
L209.491 276.593
L209.67 276.715
L210.116 276.845
L210.652 277.039
L211.634 277.151
L213.42 277.419
L214.223 277.637
L214.58 277.727
L215.473 277.878
L216.009 278.009
L216.366 278.101
L216.991 278.3
L217.348 278.403
L218.687 278.949
L220.026 279.072
L220.383 279.212
L221.633 279.694
L225.115 280.343
L225.383 280.435
L226.365 280.581
L227.258 280.646
L227.972 280.92
L228.954 281.277
L229.579 281.383
L231.097 281.494
L231.365 281.578
L232.258 281.773
L232.525 281.944
L234.936 282.371
L235.561 282.621
L236.275 282.84
L236.543 282.901
L237.614 282.985
L238.061 283.037
L238.686 283.18
L239.4 283.286
L241.007 283.396
L241.275 283.451
L242.257 283.745
L242.703 283.848
L243.15 283.923
L243.418 283.995
L245.56 284.198
L246.185 284.287
L246.542 284.379
L246.81 284.56
L248.06 284.697
L248.507 284.75
L249.221 284.892
L250.56 285.303
L251.988 285.405
L252.792 285.516
L253.149 285.626
L254.042 285.939
L255.828 286.032
L256.095 286.185
L257.881 286.558
L258.149 286.642
L259.756 286.745
L260.559 286.971
L261.631 287.233
L263.148 287.338
L263.863 287.525
L264.041 287.671
L265.648 287.923
L266.63 288.021
L268.862 288.499
L270.469 288.601
L271.184 288.771
L272.791 289.056
L273.862 289.158
L275.38 289.475
L277.433 289.581
L277.701 289.687
L278.237 289.884
L278.683 290.008
L279.04 290.149
L279.397 290.187
L281.004 290.296
L282.522 290.485
L284.04 290.59
L285.022 290.668
L285.468 290.785
L286.272 290.907
L288.236 291.094
L288.593 291.246
L289.129 291.367
L289.397 291.473
L290.29 291.57
L291.718 291.682
L292.164 291.769
L292.7 291.885
L293.772 292.039
L295.2 292.1
L295.646 292.313
L296.182 292.42
L297.521 292.69
L300.021 293.046
L300.378 293.166
L300.825 293.222
L302.253 293.365
L302.878 293.467
L303.771 293.687
L304.307 293.813
L305.735 293.911
L306.271 294.01
L307.253 294.28
L307.521 294.447
L308.324 294.473
L309.753 294.54
L310.11 294.617
L310.556 294.683
L312.163 294.947
L313.145 295.051
L315.645 295.482
L316.984 295.585
L318.056 295.879
L318.859 296.005
L321.805 296.401
L322.163 296.51
L323.859 296.599
L324.305 296.661
L325.109 296.848
L325.644 296.934
L327.162 297.045
L328.055 297.16
L328.769 297.274
L329.841 297.411
L330.287 297.502
L331.448 297.594
L332.251 297.948
L335.733 298.284
L336.983 298.347
L338.679 298.557
L339.751 298.73
L341.09 298.838
L343.233 299.181
L343.59 299.257
L344.929 299.332
L345.375 299.388
L345.643 299.533
L346.625 299.691
L347.072 299.729
L349.482 300.01
L350.018 300.212
L350.911 300.29
L352.607 300.374
L353.232 300.542
L353.946 300.64
L354.303 300.702
L355.821 300.793
L356.178 300.922
L358.5 301.283
L359.66 301.39
L360.196 301.489
L363.231 301.751
L363.588 301.828
L365.999 302.092
L368.052 302.287
L368.767 302.378
L370.195 302.467
L370.463 302.531
L370.909 302.684
L371.267 302.755
L373.945 302.977
L374.927 303.183
L377.784 303.449
L378.23 303.506
L378.677 303.606
L380.105 303.757
L382.337 304.038
L383.052 304.132
L388.408 304.593
L389.033 304.67
L389.569 304.754
L389.837 304.857
L391.801 304.923
L392.158 305.051
L394.212 305.288
L395.729 305.395
L397.604 305.613
L399.033 305.697
L399.836 305.847
L403.675 306.231
L404.211 306.315
L405.372 306.401
L405.818 306.449
L406.532 306.542
L407.514 306.651
L409.032 306.681
L410.014 306.785
L414.121 307.242
L414.478 307.295
L421.263 307.815
L421.978 307.913
L424.21 307.998
L424.567 308.088
L425.281 308.248
L425.727 308.286
L427.87 308.389
L428.763 308.561
L429.12 308.666
L431.977 308.84
L432.334 308.915
L433.316 308.985
L435.28 309.156
L435.995 309.379
L442.78 309.994
L443.583 310.127
L445.726 310.261
L446.351 310.351
L447.065 310.444
L447.422 310.507
L449.119 310.612
L459.297 311.444
L460.279 311.548
L460.725 311.625
L463.314 311.782
L463.582 311.837
L471.528 312.497
L472.153 312.571
L474.028 312.651
L474.474 312.704
L476.974 312.815
L478.492 312.949
L479.563 313.102
L481.706 313.247
L482.599 313.294
L485.456 313.429
L486.259 313.481
L488.759 313.587
L489.384 313.685
L491.527 313.796
L493.044 313.933
L494.384 313.986
L495.812 314.096
L498.848 314.24
L500.008 314.463
L503.58 314.756
L504.651 314.842
L506.347 314.947
L509.115 315.105
L510.008 315.216
L511.525 315.361
L513.757 315.49
L513.936 315.582
L515.989 315.662
L517.15 315.765
L518.311 315.931
L518.311 315.931" style="fill:none;stroke:#00bfbf;stroke-dasharray:5.000000,1.000000,2.000000,1.000000,5.000000,1.000000;stroke-dashoffset:0.0;"/>
   </g>
   <g id="line2d_5">
    <path clip-path="url(#p7ff5b81e1d)" d="
M72 80.0782
L72.0893 98.2264
L72.2678 114.604
L72.625 130.089
L72.9821 137.707
L73.6963 147.965
L73.9642 148.946
L74.6784 151.365
L74.9462 151.962
L75.2141 152.772
L75.4819 153.423
L77.089 174.04
L77.3568 176.068
L77.8925 177.405
L78.4282 178.339
L79.0531 179.567
L80.0352 189.418
L80.5709 193.375
L80.928 195.821
L81.8208 197.2
L81.9994 197.393
L82.6243 198.31
L83.785 206.32
L84.2314 208.827
L84.4992 209.808
L85.5706 211.17
L85.7491 211.316
L86.017 211.625
L86.1062 211.694
L86.1955 211.918
L86.5526 213.797
L87.1776 217.053
L87.624 219.489
L88.0704 221.66
L89.7667 223.466
L90.3024 225.994
L90.7488 227.778
L91.6416 231.141
L93.1594 232.742
L93.3379 232.947
L94.4986 237.136
L94.945 238.892
L95.3021 239.742
L96.2842 240.633
L96.7306 241.011
L96.9091 241.124
L97.8019 243.791
L98.0698 244.502
L98.6947 246.189
L99.0518 246.573
L100.48 247.371
L102.355 252.207
L104.141 253.279
L105.212 255.851
L105.48 256.248
L105.837 257.216
L106.105 257.325
L106.908 257.765
L107.444 257.991
L107.712 258.287
L109.319 261.611
L109.676 261.942
L110.658 262.425
L111.105 262.62
L111.283 262.779
L111.908 263.861
L113.069 266.099
L113.426 266.275
L114.765 266.869
L115.122 267.496
L116.372 269.547
L116.819 269.817
L118.068 270.454
L118.336 270.568
L118.961 271.638
L120.211 273.394
L121.283 273.804
L121.908 274.006
L123.782 276.81
L125.747 277.725
L126.193 278.3
L127.621 279.603
L129.139 280.399
L131.193 282.498
L132.443 283.05
L132.71 283.204
L134.05 284.45
L134.407 284.919
L135.121 285.068
L135.478 285.185
L135.924 285.34
L136.282 285.558
L137.085 286.331
L137.353 286.602
L137.978 287.163
L139.942 287.81
L140.835 288.649
L141.549 289.222
L142.085 289.322
L142.353 289.442
L143.603 289.934
L144.228 290.456
L144.406 290.581
L144.942 291.077
L145.567 291.327
L146.727 291.639
L146.995 291.725
L148.156 292.843
L148.513 293.063
L148.781 293.245
L149.495 293.419
L150.656 293.671
L150.924 293.849
L151.102 293.99
L151.37 294.242
L152.263 294.917
L153.066 295.154
L153.602 295.249
L154.048 295.321
L154.405 295.585
L155.12 296.031
L155.923 296.747
L157.798 297.157
L158.334 297.537
L159.762 298.287
L160.566 298.488
L161.28 298.77
L161.637 299.032
L163.066 299.955
L164.137 300.114
L165.208 300.594
L166.369 301.379
L167.53 301.615
L168.244 301.721
L168.601 301.888
L170.654 302.905
L173.065 303.678
L173.511 303.917
L174.315 304.21
L175.386 304.413
L176.011 304.689
L176.368 304.913
L176.725 305.093
L177.083 305.355
L177.886 305.562
L179.225 305.916
L181.279 306.91
L182.796 307.3
L184.761 308.227
L186.814 308.694
L187.707 309.156
L188.421 309.335
L189.403 309.478
L192.528 310.465
L193.778 310.734
L194.135 310.897
L194.403 311.035
L195.028 311.361
L195.296 311.506
L197.438 311.955
L198.42 312.402
L201.635 313.218
L202.438 313.533
L204.402 313.819
L205.563 314.305
L207.348 314.709
L207.795 314.799
L209.58 315.536
L210.741 315.645
L211.366 315.769
L213.687 316.61
L215.027 316.796
L215.652 317.054
L216.009 317.189
L216.723 317.484
L218.241 317.585
L220.562 318.518
L221.901 318.638
L223.419 319.183
L223.865 319.358
L225.919 319.559
L226.544 319.845
L229.579 320.415
L229.936 320.609
L231.276 320.978
L232.704 321.16
L233.597 321.476
L233.954 321.569
L234.311 321.661
L234.757 321.796
L235.382 321.855
L236.454 321.988
L237.257 322.244
L238.329 322.539
L239.757 322.665
L241.811 323.136
L243.239 323.249
L243.775 323.366
L244.668 323.604
L245.292 323.795
L246.453 323.896
L247.078 324
L248.953 324.641
L250.203 324.751
L250.739 324.889
L252.524 325.446
L254.399 325.607
L255.292 325.87
L256.542 326.155
L257.613 326.296
L258.327 326.537
L259.309 326.829
L260.113 326.975
L260.738 327.072
L261.541 327.17
L262.524 327.591
L262.97 327.749
L263.416 327.836
L265.291 328.115
L266.72 328.582
L267.88 328.691
L268.952 328.875
L269.22 328.986
L270.023 329.176
L270.469 329.306
L271.63 329.413
L274.13 329.913
L276.273 330.147
L279.04 330.578
L279.576 330.688
L281.719 331.144
L287.433 332.112
L288.058 332.295
L288.95 332.375
L290.2 332.482
L290.825 332.659
L297.7 333.773
L298.86 334.168
L302.164 334.597
L302.521 334.699
L304.664 334.889
L305.378 335.052
L306.271 335.224
L309.306 335.637
L309.663 335.716
L310.378 335.785
L311.895 335.918
L312.699 336.126
L319.573 337.226
L320.02 337.343
L321.091 337.456
L322.43 337.543
L322.877 337.644
L323.502 337.79
L330.644 338.952
L331.626 339.103
L333.59 339.339
L334.572 339.557
L335.912 339.673
L336.537 339.773
L337.429 340.027
L338.59 340.253
L340.376 340.429
L341.715 340.7
L342.161 340.771
L343.768 340.861
L344.215 340.974
L345.108 341.138
L346 341.212
L347.25 341.319
L348.054 341.516
L350.554 341.848
L351.268 341.944
L353.411 342.277
L354.839 342.446
L355.643 342.592
L358.232 342.803
L358.857 342.965
L363.946 343.666
L365.196 343.762
L365.91 343.933
L367.428 344.234
L369.124 344.375
L369.838 344.496
L372.606 344.793
L373.409 344.907
L375.106 345.024
L376.266 345.12
L379.302 345.579
L380.195 345.704
L380.552 345.796
L382.069 345.987
L383.409 346.104
L384.034 346.214
L385.551 346.435
L387.337 346.612
L388.498 346.817
L395.194 347.563
L395.908 347.656
L397.604 347.755
L403.14 348.434
L405.639 348.771
L406.443 348.842
L408.496 348.951
L409.925 349.185
L410.907 349.242
L411.889 349.33
L413.139 349.585
L416.621 350.004
L417.067 350.099
L418.228 350.175
L419.656 350.282
L420.728 350.496
L423.228 350.72
L424.835 350.927
L426.531 351.029
L428.495 351.269
L429.656 351.372
L431.977 351.678
L433.495 351.781
L436.352 352.018
L437.244 352.131
L437.602 352.196
L439.298 352.418
L440.816 352.52
L441.798 352.705
L450.994 353.533
L452.154 353.663
L453.583 353.82
L455.368 353.932
L456.35 354.12
L459.297 354.349
L459.922 354.477
L461.975 354.574
L463.404 354.801
L470.724 355.416
L471.439 355.449
L473.403 355.674
L474.206 355.772
L475.635 355.857
L476.617 355.953
L477.51 356.089
L483.759 356.667
L484.831 356.799
L487.241 356.974
L488.223 357.087
L489.384 357.165
L491.259 357.264
L491.884 357.345
L506.258 358.388
L507.061 358.43
L509.293 358.604
L510.454 358.763
L512.775 358.87
L513.222 358.95
L514.74 358.996
L518.311 359.241
L518.311 359.241" style="fill:none;stroke:#bf00bf;stroke-linecap:square;"/>
   </g>
   <g id="matplotlib.axis_1">
    <g id="xtick_1">
     <g id="line2d_6">
      <defs>
       <path d="
M0 0
L0 -4" id="mc7db9fdffb" style="stroke:#000000;stroke-width:0.5;"/>
      </defs>
      <g>
       <use style="stroke:#000000;stroke-width:0.5;" x="72.0" xlink:href="#mc7db9fdffb" y="388.8"/>
      </g>
     </g>
     <g id="line2d_7">
      <defs>
       <path d="
M0 0
L0 4" id="m5a7d422ac3" style="stroke:#000000;stroke-width:0.5;"/>
      </defs>
      <g>
       <use style="stroke:#000000;stroke-width:0.5;" x="72.0" xlink:href="#m5a7d422ac3" y="43.2"/>
      </g>
     </g>
     <g id="text_1">
      <!-- 0 -->
      <defs>
       <path d="
M56.9844 36.375
Q56.9844 16.7969 50.8594 7.64062
Q44.7344 -1.51562 31.8438 -1.51562
Q18.75 -1.51562 12.7188 7.76562
Q6.6875 17.0469 6.6875 36.2812
Q6.6875 55.6719 12.7812 64.9219
Q18.8906 74.1719 31.8438 74.1719
Q44.9219 74.1719 50.9531 64.7656
Q56.9844 55.375 56.9844 36.375
M44.1406 14.2031
Q45.8438 18.1719 46.4531 23.5156
Q47.0781 28.8594 47.0781 36.375
Q47.0781 43.7969 46.4531 49.2656
Q45.8438 54.7344 44.0938 58.5469
Q42.3906 62.3125 39.4219 64.2031
Q36.4688 66.1094 31.8438 66.1094
Q27.25 66.1094 24.2344 64.2031
Q21.2344 62.3125 19.4844 58.4531
Q17.8281 54.8281 17.2188 49.0156
Q16.6094 43.2188 16.6094 36.2812
Q16.6094 28.6562 17.1406 23.5312
Q17.6719 18.4062 19.4375 14.3594
Q21.0469 10.5469 24 8.54688
Q26.9531 6.54688 31.8438 6.54688
Q36.4219 6.54688 39.4531 8.45312
Q42.4844 10.3594 44.1406 14.2031" id="Verdana-30"/>
      </defs>
      <g transform="translate(68.9821875 401.918125)scale(0.12 -0.12)">
       <use xlink:href="#Verdana-30"/>
      </g>
     </g>
    </g>
    <g id="xtick_2">
     <g id="line2d_8">
      <g>
       <use style="stroke:#000000;stroke-width:0.5;" x="161.28" xlink:href="#mc7db9fdffb" y="388.8"/>
      </g>
     </g>
     <g id="line2d_9">
      <g>
       <use style="stroke:#000000;stroke-width:0.5;" x="161.28" xlink:href="#m5a7d422ac3" y="43.2"/>
      </g>
     </g>
     <g id="text_2">
      <!-- 1000 -->
      <defs>
       <path d="
M52.9375 0
L13.5781 0
L13.5781 7.42188
L28.7188 7.42188
L28.7188 56.1562
L13.5781 56.1562
L13.5781 62.7969
Q16.6562 62.7969 20.1719 63.2969
Q23.6875 63.8125 25.4844 64.7969
Q27.7344 66.0156 29.0312 67.8906
Q30.3281 69.7812 30.5156 72.9531
L38.0938 72.9531
L38.0938 7.42188
L52.9375 7.42188
z
" id="Verdana-31"/>
      </defs>
      <g transform="translate(147.2315625 401.918125)scale(0.12 -0.12)">
       <use xlink:href="#Verdana-31"/>
       <use x="63.57421875" xlink:href="#Verdana-30"/>
       <use x="127.1484375" xlink:href="#Verdana-30"/>
       <use x="190.72265625" xlink:href="#Verdana-30"/>
      </g>
     </g>
    </g>
    <g id="xtick_3">
     <g id="line2d_10">
      <g>
       <use style="stroke:#000000;stroke-width:0.5;" x="250.56" xlink:href="#mc7db9fdffb" y="388.8"/>
      </g>
     </g>
     <g id="line2d_11">
      <g>
       <use style="stroke:#000000;stroke-width:0.5;" x="250.56" xlink:href="#m5a7d422ac3" y="43.2"/>
      </g>
     </g>
     <g id="text_3">
      <!-- 2000 -->
      <defs>
       <path d="
M57.0781 0
L7.85938 0
L7.85938 10.2031
Q12.9844 14.5938 18.1406 18.9844
Q23.2969 23.3906 27.7344 27.7344
Q37.1094 36.8125 40.5781 42.1562
Q44.0469 47.5156 44.0469 53.7188
Q44.0469 59.375 40.3125 62.5625
Q36.5781 65.7656 29.8906 65.7656
Q25.4375 65.7656 20.2656 64.2031
Q15.0938 62.6406 10.1562 59.4219
L9.67188 59.4219
L9.67188 69.6719
Q13.1406 71.3906 18.9219 72.7969
Q24.7031 74.2188 30.125 74.2188
Q41.3125 74.2188 47.6562 68.8125
Q54 63.4219 54 54.2031
Q54 50.0469 52.9531 46.4531
Q51.9062 42.875 49.8594 39.6562
Q47.9531 36.625 45.3906 33.6875
Q42.8281 30.7656 39.1562 27.2031
Q33.9375 22.0781 28.3594 17.2656
Q22.7969 12.4531 17.9688 8.34375
L57.0781 8.34375
z
" id="Verdana-32"/>
      </defs>
      <g transform="translate(236.1684375 401.918125)scale(0.12 -0.12)">
       <use xlink:href="#Verdana-32"/>
       <use x="63.57421875" xlink:href="#Verdana-30"/>
       <use x="127.1484375" xlink:href="#Verdana-30"/>
       <use x="190.72265625" xlink:href="#Verdana-30"/>
      </g>
     </g>
    </g>
    <g id="xtick_4">
     <g id="line2d_12">
      <g>
       <use style="stroke:#000000;stroke-width:0.5;" x="339.84" xlink:href="#mc7db9fdffb" y="388.8"/>
      </g>
     </g>
     <g id="line2d_13">
      <g>
       <use style="stroke:#000000;stroke-width:0.5;" x="339.84" xlink:href="#m5a7d422ac3" y="43.2"/>
      </g>
     </g>
     <g id="text_4">
      <!-- 3000 -->
      <defs>
       <path d="
M50.6875 35.0156
Q53.0312 32.9062 54.5469 29.7344
Q56.0625 26.5625 56.0625 21.5312
Q56.0625 16.5469 54.25 12.3906
Q52.4375 8.25 49.1719 5.17188
Q45.5156 1.76562 40.5469 0.125
Q35.5938 -1.51562 29.6875 -1.51562
Q23.6406 -1.51562 17.7812 -0.0625
Q11.9219 1.375 8.15625 3.07812
L8.15625 13.2812
L8.89062 13.2812
Q13.0312 10.5469 18.6406 8.73438
Q24.2656 6.9375 29.5 6.9375
Q32.5625 6.9375 36.0312 7.95312
Q39.5 8.98438 41.6562 10.9844
Q43.8906 13.1406 44.9844 15.7188
Q46.0938 18.3125 46.0938 22.2656
Q46.0938 26.1719 44.8438 28.7344
Q43.6094 31.2969 41.4062 32.7656
Q39.2031 34.2812 36.0781 34.8438
Q32.9531 35.4062 29.3438 35.4062
L24.9531 35.4062
L24.9531 43.5
L28.375 43.5
Q35.7969 43.5 40.2031 46.5938
Q44.625 49.7031 44.625 55.6719
Q44.625 58.2969 43.5 60.2656
Q42.3906 62.25 40.375 63.5312
Q38.2812 64.7969 35.8906 65.2812
Q33.5 65.7656 30.4688 65.7656
Q25.8281 65.7656 20.5938 64.1094
Q15.375 62.4531 10.75 59.4219
L10.25 59.4219
L10.25 69.625
Q13.7188 71.3438 19.5 72.7812
Q25.2969 74.2188 30.7188 74.2188
Q36.0312 74.2188 40.0781 73.2344
Q44.1406 72.2656 47.4062 70.125
Q50.9219 67.7812 52.7344 64.4531
Q54.5469 61.1406 54.5469 56.6875
Q54.5469 50.6406 50.2656 46.125
Q46 41.6094 40.1875 40.4375
L40.1875 39.75
Q42.5312 39.3594 45.5469 38.1094
Q48.5781 36.8594 50.6875 35.0156" id="Verdana-33"/>
      </defs>
      <g transform="translate(325.46625 401.918125)scale(0.12 -0.12)">
       <use xlink:href="#Verdana-33"/>
       <use x="63.57421875" xlink:href="#Verdana-30"/>
       <use x="127.1484375" xlink:href="#Verdana-30"/>
       <use x="190.72265625" xlink:href="#Verdana-30"/>
      </g>
     </g>
    </g>
    <g id="xtick_5">
     <g id="line2d_14">
      <g>
       <use style="stroke:#000000;stroke-width:0.5;" x="429.12" xlink:href="#mc7db9fdffb" y="388.8"/>
      </g>
     </g>
     <g id="line2d_15">
      <g>
       <use style="stroke:#000000;stroke-width:0.5;" x="429.12" xlink:href="#m5a7d422ac3" y="43.2"/>
      </g>
     </g>
     <g id="text_5">
      <!-- 4000 -->
      <defs>
       <path d="
M58.7344 20.4531
L47.9531 20.4531
L47.9531 0
L38.5781 0
L38.5781 20.4531
L3.76562 20.4531
L3.76562 31.6875
L38.9688 72.7031
L47.9531 72.7031
L47.9531 28.2656
L58.7344 28.2656
z

M38.5781 28.2656
L38.5781 61.0781
L10.4062 28.2656
z
" id="Verdana-34"/>
      </defs>
      <g transform="translate(414.4828125 401.918125)scale(0.12 -0.12)">
       <use xlink:href="#Verdana-34"/>
       <use x="63.57421875" xlink:href="#Verdana-30"/>
       <use x="127.1484375" xlink:href="#Verdana-30"/>
       <use x="190.72265625" xlink:href="#Verdana-30"/>
      </g>
     </g>
    </g>
    <g id="xtick_6">
     <g id="line2d_16">
      <g>
       <use style="stroke:#000000;stroke-width:0.5;" x="518.4" xlink:href="#mc7db9fdffb" y="388.8"/>
      </g>
     </g>
     <g id="line2d_17">
      <g>
       <use style="stroke:#000000;stroke-width:0.5;" x="518.4" xlink:href="#m5a7d422ac3" y="43.2"/>
      </g>
     </g>
     <g id="text_6">
      <!-- 5000 -->
      <defs>
       <path d="
M56.5 23.0938
Q56.5 18.0156 54.6406 13.375
Q52.7812 8.73438 49.5625 5.5625
Q46.0469 2.15625 41.1875 0.3125
Q36.3281 -1.51562 29.9375 -1.51562
Q23.9688 -1.51562 18.4531 -0.265625
Q12.9375 0.984375 9.125 2.73438
L9.125 13.0312
L9.8125 13.0312
Q13.8125 10.5 19.1875 8.71875
Q24.5625 6.9375 29.7344 6.9375
Q33.2031 6.9375 36.4531 7.90625
Q39.7031 8.89062 42.2344 11.3281
Q44.3906 13.4219 45.4844 16.3438
Q46.5781 19.2812 46.5781 23.1406
Q46.5781 26.9062 45.2812 29.4844
Q44 32.0781 41.7031 33.6406
Q39.1562 35.5 35.5156 36.25
Q31.8906 37.0156 27.3906 37.0156
Q23.0938 37.0156 19.1094 36.4219
Q15.1406 35.8438 12.25 35.25
L12.25 72.7031
L56 72.7031
L56 64.1562
L21.6875 64.1562
L21.6875 44.8281
Q23.7812 45.0156 25.9688 45.1094
Q28.1719 45.2188 29.7812 45.2188
Q35.6875 45.2188 40.125 44.2188
Q44.5781 43.2188 48.2969 40.6719
Q52.2031 37.9844 54.3438 33.7344
Q56.5 29.5 56.5 23.0938" id="Verdana-35"/>
      </defs>
      <g transform="translate(504.084375 401.918125)scale(0.12 -0.12)">
       <use xlink:href="#Verdana-35"/>
       <use x="63.57421875" xlink:href="#Verdana-30"/>
       <use x="127.1484375" xlink:href="#Verdana-30"/>
       <use x="190.72265625" xlink:href="#Verdana-30"/>
      </g>
     </g>
    </g>
    <g id="text_7">
     <!-- Objective function exectuions -->
     <defs>
      <path d="
M57.0312 27.6875
Q57.0312 20.8438 55.0938 15.375
Q53.1719 9.90625 49.9062 6.20312
Q46.4375 2.34375 42.2812 0.40625
Q38.1406 -1.51562 33.1562 -1.51562
Q28.5156 -1.51562 25.0469 -0.40625
Q21.5781 0.6875 18.2188 2.54688
L17.625 0
L9.03125 0
L9.03125 75.9844
L18.2188 75.9844
L18.2188 48.8281
Q22.0781 52 26.4219 54.0312
Q30.7656 56.0625 36.1875 56.0625
Q45.8438 56.0625 51.4375 48.6406
Q57.0312 41.2188 57.0312 27.6875
M47.5625 27.4375
Q47.5625 37.2031 44.3281 42.25
Q41.1094 47.3125 33.9375 47.3125
Q29.9375 47.3125 25.8281 45.5781
Q21.7344 43.8438 18.2188 41.1094
L18.2188 9.85938
Q22.125 8.10938 24.9219 7.42188
Q27.7344 6.73438 31.2969 6.73438
Q38.9219 6.73438 43.2344 11.7344
Q47.5625 16.75 47.5625 27.4375" id="Verdana-62"/>
      <path d="
M56.2031 54.5469
L34.125 0
L24.9062 0
L2.98438 54.5469
L12.9375 54.5469
L29.8281 11.1406
L46.5781 54.5469
z
" id="Verdana-76"/>
      <path d="
M56.25 0
L44.6719 0
L29.2031 20.9531
L13.625 0
L2.9375 0
L24.2188 27.2031
L3.125 54.5469
L14.7031 54.5469
L30.0781 33.9375
L45.5156 54.5469
L56.25 54.5469
L34.8125 27.6875
z
" id="Verdana-78"/>
      <path d="
M54.6875 26.3125
L14.5 26.3125
Q14.5 21.2969 16.0156 17.5469
Q17.5312 13.8125 20.1719 11.4219
Q22.7031 9.07812 26.1875 7.90625
Q29.6875 6.73438 33.8906 6.73438
Q39.4531 6.73438 45.0938 8.95312
Q50.7344 11.1875 53.125 13.3281
L53.6094 13.3281
L53.6094 3.32812
Q48.9688 1.375 44.1406 0.046875
Q39.3125 -1.26562 33.9844 -1.26562
Q20.4062 -1.26562 12.7812 6.07812
Q5.17188 13.4219 5.17188 26.9531
Q5.17188 40.3281 12.4688 48.1875
Q19.7812 56.0625 31.6875 56.0625
Q42.7188 56.0625 48.7031 49.6094
Q54.6875 43.1719 54.6875 31.2969
z

M45.75 33.3438
Q45.7031 40.5781 42.1094 44.5312
Q38.5312 48.4844 31.2031 48.4844
Q23.8281 48.4844 19.4531 44.1406
Q15.0938 39.7969 14.5 33.3438
z
" id="Verdana-65"/>
      <path d="
M49.3594 3.42188
Q44.7812 1.21875 40.6562 0
Q36.5312 -1.21875 31.8906 -1.21875
Q25.9844 -1.21875 21.0469 0.515625
Q16.1094 2.25 12.5938 5.76562
Q9.03125 9.28125 7.07812 14.6406
Q5.125 20.0156 5.125 27.2031
Q5.125 40.5781 12.4688 48.1875
Q19.8281 55.8125 31.8906 55.8125
Q36.5781 55.8125 41.0938 54.4844
Q45.6094 53.1719 49.3594 51.2656
L49.3594 41.0625
L48.875 41.0625
Q44.6719 44.3438 40.2031 46.0938
Q35.75 47.8594 31.5 47.8594
Q23.6875 47.8594 19.1719 42.6094
Q14.6562 37.3594 14.6562 27.2031
Q14.6562 17.3281 19.0625 12.0312
Q23.4844 6.73438 31.5 6.73438
Q34.2812 6.73438 37.1562 7.46875
Q40.0469 8.20312 42.3281 9.375
Q44.3438 10.4062 46.0938 11.5469
Q47.8594 12.7031 48.875 13.5312
L49.3594 13.5312
z
" id="Verdana-63"/>
      <path d="
M26.0312 63.6719
L15.6719 63.6719
L15.6719 73.1875
L26.0312 73.1875
z

M25.4375 -1.3125
Q25.4375 -10.8906 20.5469 -15.7656
Q15.6719 -20.6562 7.46875 -20.6562
Q5.51562 -20.6562 2.3125 -20.2656
Q-0.875 -19.875 -3.03125 -19.2812
L-3.03125 -10.5469
L-2.54688 -10.5469
Q-1.17188 -11.0781 1.14062 -11.7656
Q3.46875 -12.4531 5.67188 -12.4531
Q9.1875 -12.4531 11.3281 -11.4688
Q13.4844 -10.5 14.5469 -8.54688
Q15.625 -6.59375 15.9375 -3.82812
Q16.2656 -1.07812 16.2656 2.875
L16.2656 46.8281
L4.89062 46.8281
L4.89062 54.5469
L25.4375 54.5469
z
" id="Verdana-6a"/>
      <path d="
M18.8906 63.6719
L8.54688 63.6719
L8.54688 73.1875
L18.8906 73.1875
z

M18.3125 0
L9.125 0
L9.125 54.5469
L18.3125 54.5469
z
" id="Verdana-69"/>
      <path d="
M54.6406 0
L45.4531 0
L45.4531 31.0625
Q45.4531 34.8125 45.0156 38.1094
Q44.5781 41.4062 43.4062 43.2656
Q42.1875 45.3125 39.8906 46.3125
Q37.5938 47.3125 33.9375 47.3125
Q30.1719 47.3125 26.0625 45.4531
Q21.9688 43.6094 18.2188 40.7188
L18.2188 0
L9.03125 0
L9.03125 54.5469
L18.2188 54.5469
L18.2188 48.4844
Q22.5156 52.0469 27.0938 54.0469
Q31.6875 56.0625 36.5312 56.0625
Q45.3594 56.0625 50 50.7344
Q54.6406 45.4062 54.6406 35.4062
z
" id="Verdana-6e"/>
      <path d="
M48 15.7188
Q48 8.25 41.8125 3.46875
Q35.6406 -1.3125 24.9531 -1.3125
Q18.8906 -1.3125 13.8438 0.125
Q8.79688 1.5625 5.375 3.26562
L5.375 13.5781
L5.85938 13.5781
Q10.2031 10.2969 15.5156 8.375
Q20.8438 6.45312 25.7344 6.45312
Q31.7812 6.45312 35.2031 8.40625
Q38.625 10.3594 38.625 14.5469
Q38.625 17.7812 36.7656 19.4375
Q34.9062 21.0938 29.6406 22.2656
Q27.6875 22.7031 24.5312 23.2812
Q21.3906 23.875 18.7969 24.5625
Q11.625 26.4688 8.60938 30.1562
Q5.60938 33.8438 5.60938 39.2031
Q5.60938 42.5781 7 45.5469
Q8.40625 48.5312 11.2344 50.875
Q13.9688 53.1719 18.1875 54.5156
Q22.4062 55.8594 27.6406 55.8594
Q32.5156 55.8594 37.5156 54.6562
Q42.5312 53.4688 45.8438 51.7656
L45.8438 41.9375
L45.3594 41.9375
Q41.8438 44.5312 36.8125 46.3125
Q31.7812 48.0938 26.9531 48.0938
Q21.9219 48.0938 18.4531 46.1562
Q14.9844 44.2344 14.9844 40.4375
Q14.9844 37.0625 17.0938 35.3594
Q19.1406 33.6406 23.7344 32.5625
Q26.2656 31.9844 29.4062 31.3906
Q32.5625 30.8125 34.6719 30.3281
Q41.0625 28.8594 44.5312 25.2969
Q48 21.6875 48 15.7188" id="Verdana-73"/>
      <path d="
M38.375 67.0938
L37.8906 67.0938
Q36.375 67.5312 33.9375 67.9844
Q31.5 68.4531 29.6406 68.4531
Q23.7344 68.4531 21.0625 65.8438
Q18.4062 63.2344 18.4062 56.3906
L18.4062 54.5469
L34.9688 54.5469
L34.9688 46.8281
L18.7031 46.8281
L18.7031 0
L9.51562 0
L9.51562 46.8281
L3.32812 46.8281
L3.32812 54.5469
L9.51562 54.5469
L9.51562 56.3438
Q9.51562 66.0625 14.3438 71.2656
Q19.1875 76.4688 28.3281 76.4688
Q31.3906 76.4688 33.8594 76.1719
Q36.3281 75.875 38.375 75.4844
z
" id="Verdana-66"/>
      <path id="Verdana-20"/>
      <path d="
M63.9688 64.3594
Q68.4062 59.4688 70.7656 52.3906
Q73.1406 45.3125 73.1406 36.3281
Q73.1406 27.3438 70.7188 20.2344
Q68.3125 13.1406 63.9688 8.40625
Q59.4688 3.46875 53.3438 0.96875
Q47.2188 -1.51562 39.3594 -1.51562
Q31.6875 -1.51562 25.4062 1.01562
Q19.1406 3.5625 14.75 8.40625
Q10.3594 13.2344 7.98438 20.2656
Q5.60938 27.2969 5.60938 36.3281
Q5.60938 45.2188 7.95312 52.2656
Q10.2969 59.3281 14.7969 64.3594
Q19.0938 69.1406 25.4688 71.6719
Q31.8438 74.2188 39.3594 74.2188
Q47.1719 74.2188 53.3906 71.6562
Q59.625 69.0938 63.9688 64.3594
M63.0938 36.3281
Q63.0938 50.4844 56.7344 58.1719
Q50.3906 65.875 39.4062 65.875
Q28.3281 65.875 22 58.1719
Q15.6719 50.4844 15.6719 36.3281
Q15.6719 22.0156 22.1094 14.4219
Q28.5625 6.84375 39.4062 6.84375
Q50.25 6.84375 56.6719 14.4219
Q63.0938 22.0156 63.0938 36.3281" id="Verdana-4f"/>
      <path d="
M55.5156 27.25
Q55.5156 13.9219 48.6719 6.20312
Q41.8438 -1.51562 30.375 -1.51562
Q18.7969 -1.51562 11.9844 6.20312
Q5.17188 13.9219 5.17188 27.25
Q5.17188 40.5781 11.9844 48.3125
Q18.7969 56.0625 30.375 56.0625
Q41.8438 56.0625 48.6719 48.3125
Q55.5156 40.5781 55.5156 27.25
M46.0469 27.25
Q46.0469 37.8438 41.8906 42.9844
Q37.75 48.1406 30.375 48.1406
Q22.9062 48.1406 18.7812 42.9844
Q14.6562 37.8438 14.6562 27.25
Q14.6562 17 18.7969 11.6875
Q22.9531 6.39062 30.375 6.39062
Q37.7031 6.39062 41.875 11.6406
Q46.0469 16.8906 46.0469 27.25" id="Verdana-6f"/>
      <path d="
M37.3594 0.484375
Q34.7656 -0.203125 31.7031 -0.640625
Q28.6562 -1.07812 26.2656 -1.07812
Q17.9219 -1.07812 13.5781 3.40625
Q9.23438 7.90625 9.23438 17.8281
L9.23438 46.8281
L3.03125 46.8281
L3.03125 54.5469
L9.23438 54.5469
L9.23438 70.2188
L18.4062 70.2188
L18.4062 54.5469
L37.3594 54.5469
L37.3594 46.8281
L18.4062 46.8281
L18.4062 21.9688
Q18.4062 17.6719 18.5938 15.25
Q18.7969 12.8438 19.9688 10.75
Q21.0469 8.79688 22.9219 7.89062
Q24.8125 6.98438 28.6562 6.98438
Q30.9062 6.98438 33.3438 7.64062
Q35.7969 8.29688 36.8594 8.73438
L37.3594 8.73438
z
" id="Verdana-74"/>
      <path d="
M54.25 0
L45.0625 0
L45.0625 6.0625
Q40.4375 2.39062 36.1875 0.4375
Q31.9375 -1.51562 26.8125 -1.51562
Q18.2188 -1.51562 13.4219 3.73438
Q8.64062 8.98438 8.64062 19.1406
L8.64062 54.5469
L17.8281 54.5469
L17.8281 23.4844
Q17.8281 19.3438 18.2188 16.375
Q18.6094 13.4219 19.875 11.3281
Q21.1875 9.1875 23.2812 8.20312
Q25.3906 7.23438 29.3906 7.23438
Q32.9531 7.23438 37.1719 9.07812
Q41.4062 10.9375 45.0625 13.8125
L45.0625 54.5469
L54.25 54.5469
z
" id="Verdana-75"/>
     </defs>
     <g transform="translate(206.5078125 418.509375)scale(0.12 -0.12)">
      <use xlink:href="#Verdana-4f"/>
      <use x="78.7109375" xlink:href="#Verdana-62"/>
      <use x="141.015625" xlink:href="#Verdana-6a"/>
      <use x="175.439453125" xlink:href="#Verdana-65"/>
      <use x="235.009765625" xlink:href="#Verdana-63"/>
      <use x="287.109375" xlink:href="#Verdana-74"/>
      <use x="326.513671875" xlink:href="#Verdana-69"/>
      <use x="353.955078125" xlink:href="#Verdana-76"/>
      <use x="412.259765625" xlink:href="#Verdana-65"/>
      <use x="471.830078125" xlink:href="#Verdana-20"/>
      <use x="506.986328125" xlink:href="#Verdana-66"/>
      <use x="542.142578125" xlink:href="#Verdana-75"/>
      <use x="605.423828125" xlink:href="#Verdana-6e"/>
      <use x="668.705078125" xlink:href="#Verdana-63"/>
      <use x="720.8046875" xlink:href="#Verdana-74"/>
      <use x="760.208984375" xlink:href="#Verdana-69"/>
      <use x="787.650390625" xlink:href="#Verdana-6f"/>
      <use x="848.34375" xlink:href="#Verdana-6e"/>
      <use x="911.625" xlink:href="#Verdana-20"/>
      <use x="946.78125" xlink:href="#Verdana-65"/>
      <use x="1006.3515625" xlink:href="#Verdana-78"/>
      <use x="1064.40625" xlink:href="#Verdana-65"/>
      <use x="1123.9765625" xlink:href="#Verdana-63"/>
      <use x="1176.076171875" xlink:href="#Verdana-74"/>
      <use x="1215.48046875" xlink:href="#Verdana-75"/>
      <use x="1278.76171875" xlink:href="#Verdana-69"/>
      <use x="1306.203125" xlink:href="#Verdana-6f"/>
      <use x="1366.896484375" xlink:href="#Verdana-6e"/>
      <use x="1430.177734375" xlink:href="#Verdana-73"/>
     </g>
    </g>
   </g>
   <g id="matplotlib.axis_2">
    <g id="ytick_1">
     <g id="line2d_18">
      <defs>
       <path d="
M0 0
L4 0" id="md7965d1ba0" style="stroke:#000000;stroke-width:0.5;"/>
      </defs>
      <g>
       <use style="stroke:#000000;stroke-width:0.5;" x="72.0" xlink:href="#md7965d1ba0" y="388.8"/>
      </g>
     </g>
     <g id="line2d_19">
      <defs>
       <path d="
M0 0
L-4 0" id="md9a1c1a7cd" style="stroke:#000000;stroke-width:0.5;"/>
      </defs>
      <g>
       <use style="stroke:#000000;stroke-width:0.5;" x="518.4" xlink:href="#md9a1c1a7cd" y="388.8"/>
      </g>
     </g>
     <g id="text_8">
      <!-- −0.9 -->
      <defs>
       <path d="
M56.9844 40.7188
Q56.9844 31.2031 54.8125 23.4375
Q52.6406 15.6719 48.25 10.2031
Q43.7969 4.64062 37.1094 1.60938
Q30.4219 -1.42188 21.3906 -1.42188
Q18.8438 -1.42188 16.5938 -1.14062
Q14.3594 -0.875 12.5938 -0.296875
L12.5938 9.03125
L13.0938 9.03125
Q14.5 8.29688 17.0781 7.64062
Q19.6719 6.98438 22.8594 6.98438
Q33.6406 6.98438 39.7656 13.4531
Q45.9062 19.9219 46.875 31.2969
Q42.3281 28.5625 38.3281 27.3906
Q34.3281 26.2188 29.5938 26.2188
Q25.0938 26.2188 21.4531 27.0938
Q17.8281 27.9844 14.1562 30.5156
Q9.85938 33.5 7.6875 38.0781
Q5.51562 42.6719 5.51562 49.0781
Q5.51562 60.2031 12.8438 67.1875
Q20.1719 74.1719 30.7188 74.1719
Q35.9844 74.1719 40.4688 72.5312
Q44.9688 70.9062 48.3438 67.625
Q52.4844 63.5781 54.7344 57.2031
Q56.9844 50.8281 56.9844 40.7188
M47.125 42.8281
Q47.125 50.3906 45.5625 54.9844
Q44 59.5781 41.2656 62.1094
Q38.9688 64.3125 36.3281 65.2656
Q33.6875 66.2188 30.6094 66.2188
Q23.5781 66.2188 19.5 61.8125
Q15.4375 57.4219 15.4375 49.4688
Q15.4375 44.8281 16.75 41.8906
Q18.0625 38.9688 21.1875 36.7656
Q23.3906 35.25 26.0156 34.7344
Q28.6562 34.2344 31.8906 34.2344
Q35.6875 34.2344 39.5938 35.25
Q43.5 36.2812 46.9219 38.2344
Q46.9688 39.2656 47.0469 40.2656
Q47.125 41.2656 47.125 42.8281" id="Verdana-39"/>
       <path d="
M71.0938 27.9375
L10.75 27.9375
L10.75 35.75
L71.0938 35.75
z
" id="Verdana-2212"/>
       <path d="
M24.0312 0
L12.3594 0
L12.3594 13.9219
L24.0312 13.9219
z
" id="Verdana-2e"/>
      </defs>
      <g transform="translate(40.63625 392.1515625)scale(0.12 -0.12)">
       <use xlink:href="#Verdana-2212"/>
       <use x="81.8359375" xlink:href="#Verdana-30"/>
       <use x="145.41015625" xlink:href="#Verdana-2e"/>
       <use x="181.787109375" xlink:href="#Verdana-39"/>
      </g>
     </g>
    </g>
    <g id="ytick_2">
     <g id="line2d_20">
      <g>
       <use style="stroke:#000000;stroke-width:0.5;" x="72.0" xlink:href="#md7965d1ba0" y="345.6"/>
      </g>
     </g>
     <g id="line2d_21">
      <g>
       <use style="stroke:#000000;stroke-width:0.5;" x="518.4" xlink:href="#md9a1c1a7cd" y="345.6"/>
      </g>
     </g>
     <g id="text_9">
      <!-- −0.8 -->
      <defs>
       <path d="
M57.625 20.2656
Q57.625 10.8438 50.2656 4.59375
Q42.9219 -1.65625 31.7812 -1.65625
Q19.9688 -1.65625 12.9531 4.4375
Q5.95312 10.5469 5.95312 20.0625
Q5.95312 26.125 9.46875 31.0312
Q12.9844 35.9375 19.3906 38.8125
L19.3906 39.1094
Q13.5312 42.2344 10.7188 45.9375
Q7.90625 49.6562 7.90625 55.2188
Q7.90625 63.4219 14.6406 68.8906
Q21.3906 74.3594 31.7812 74.3594
Q42.6719 74.3594 49.1719 69.1406
Q55.6719 63.9219 55.6719 55.8594
Q55.6719 50.9219 52.5938 46.1562
Q49.5156 41.4062 43.5625 38.7188
L43.5625 38.4219
Q50.3906 35.5 54 31.2031
Q57.625 26.9062 57.625 20.2656
M46.0469 55.7656
Q46.0469 60.9844 42.0156 64.0781
Q37.9844 67.1875 31.7344 67.1875
Q25.5938 67.1875 21.6562 64.25
Q17.7188 61.3281 17.7188 56.3438
Q17.7188 52.8281 19.7031 50.2656
Q21.6875 47.7031 25.6875 45.7031
Q27.4844 44.8281 30.875 43.4062
Q34.2812 42 37.5 41.0625
Q42.3281 44.2812 44.1875 47.75
Q46.0469 51.2188 46.0469 55.7656
M47.5625 19.3438
Q47.5625 23.8281 45.5781 26.5312
Q43.6094 29.25 37.8438 31.9844
Q35.5469 33.0625 32.8125 33.9844
Q30.0781 34.9062 25.5312 36.5781
Q21.1406 34.1875 18.4844 30.0781
Q15.8281 25.9844 15.8281 20.7969
Q15.8281 14.2031 20.3594 9.90625
Q24.9062 5.60938 31.8906 5.60938
Q39.0156 5.60938 43.2812 9.26562
Q47.5625 12.9375 47.5625 19.3438" id="Verdana-38"/>
      </defs>
      <g transform="translate(40.559375 348.9515625)scale(0.12 -0.12)">
       <use xlink:href="#Verdana-2212"/>
       <use x="81.8359375" xlink:href="#Verdana-30"/>
       <use x="145.41015625" xlink:href="#Verdana-2e"/>
       <use x="181.787109375" xlink:href="#Verdana-38"/>
      </g>
     </g>
    </g>
    <g id="ytick_3">
     <g id="line2d_22">
      <g>
       <use style="stroke:#000000;stroke-width:0.5;" x="72.0" xlink:href="#md7965d1ba0" y="302.4"/>
      </g>
     </g>
     <g id="line2d_23">
      <g>
       <use style="stroke:#000000;stroke-width:0.5;" x="518.4" xlink:href="#md9a1c1a7cd" y="302.4"/>
      </g>
     </g>
     <g id="text_10">
      <!-- −0.7 -->
      <defs>
       <path d="
M57.2812 61.8125
L24.3594 0
L13.9219 0
L48.9219 64.1562
L7.51562 64.1562
L7.51562 72.7031
L57.2812 72.7031
z
" id="Verdana-37"/>
      </defs>
      <g transform="translate(40.600625 305.7515625)scale(0.12 -0.12)">
       <use xlink:href="#Verdana-2212"/>
       <use x="81.8359375" xlink:href="#Verdana-30"/>
       <use x="145.41015625" xlink:href="#Verdana-2e"/>
       <use x="181.787109375" xlink:href="#Verdana-37"/>
      </g>
     </g>
    </g>
    <g id="ytick_4">
     <g id="line2d_24">
      <g>
       <use style="stroke:#000000;stroke-width:0.5;" x="72.0" xlink:href="#md7965d1ba0" y="259.2"/>
      </g>
     </g>
     <g id="line2d_25">
      <g>
       <use style="stroke:#000000;stroke-width:0.5;" x="518.4" xlink:href="#md9a1c1a7cd" y="259.2"/>
      </g>
     </g>
     <g id="text_11">
      <!-- −0.6 -->
      <defs>
       <path d="
M58.1562 23.5781
Q58.1562 12.5 50.8594 5.48438
Q43.5625 -1.51562 32.9531 -1.51562
Q27.5938 -1.51562 23.1875 0.140625
Q18.7969 1.8125 15.4375 5.07812
Q11.2344 9.125 8.95312 15.8125
Q6.6875 22.5156 6.6875 31.9375
Q6.6875 41.6094 8.76562 49.0781
Q10.8438 56.5469 15.375 62.3594
Q19.6719 67.875 26.4531 70.9688
Q33.25 74.0781 42.2812 74.0781
Q45.1719 74.0781 47.125 73.8281
Q49.0781 73.5781 51.0781 72.9531
L51.0781 63.625
L50.5938 63.625
Q49.2188 64.3594 46.4531 65.0156
Q43.7031 65.6719 40.8281 65.6719
Q30.3281 65.6719 24.0781 59.1094
Q17.8281 52.5469 16.7969 41.3594
Q20.9062 43.8438 24.875 45.1406
Q28.8594 46.4375 34.0781 46.4375
Q38.7188 46.4375 42.25 45.5781
Q45.7969 44.7344 49.5156 42.1406
Q53.8125 39.1562 55.9844 34.6094
Q58.1562 30.0781 58.1562 23.5781
M48.25 23.1875
Q48.25 27.7344 46.9062 30.7031
Q45.5625 33.6875 42.4844 35.8906
Q40.2344 37.4531 37.5 37.9375
Q34.7656 38.4219 31.7812 38.4219
Q27.6406 38.4219 24.0781 37.4375
Q20.5156 36.4688 16.75 34.4219
Q16.6562 33.3438 16.5938 32.3438
Q16.5469 31.3438 16.5469 29.8281
Q16.5469 22.125 18.1406 17.6562
Q19.7344 13.1875 22.5156 10.5938
Q24.75 8.45312 27.3594 7.45312
Q29.9844 6.45312 33.0625 6.45312
Q40.1406 6.45312 44.1875 10.7656
Q48.25 15.0938 48.25 23.1875" id="Verdana-36"/>
      </defs>
      <g transform="translate(40.495625 262.5515625)scale(0.12 -0.12)">
       <use xlink:href="#Verdana-2212"/>
       <use x="81.8359375" xlink:href="#Verdana-30"/>
       <use x="145.41015625" xlink:href="#Verdana-2e"/>
       <use x="181.787109375" xlink:href="#Verdana-36"/>
      </g>
     </g>
    </g>
    <g id="ytick_5">
     <g id="line2d_26">
      <g>
       <use style="stroke:#000000;stroke-width:0.5;" x="72.0" xlink:href="#md7965d1ba0" y="216.0"/>
      </g>
     </g>
     <g id="line2d_27">
      <g>
       <use style="stroke:#000000;stroke-width:0.5;" x="518.4" xlink:href="#md9a1c1a7cd" y="216.0"/>
      </g>
     </g>
     <g id="text_12">
      <!-- −0.5 -->
      <g transform="translate(40.694375 219.3515625)scale(0.12 -0.12)">
       <use xlink:href="#Verdana-2212"/>
       <use x="81.8359375" xlink:href="#Verdana-30"/>
       <use x="145.41015625" xlink:href="#Verdana-2e"/>
       <use x="181.787109375" xlink:href="#Verdana-35"/>
      </g>
     </g>
    </g>
    <g id="ytick_6">
     <g id="line2d_28">
      <g>
       <use style="stroke:#000000;stroke-width:0.5;" x="72.0" xlink:href="#md7965d1ba0" y="172.8"/>
      </g>
     </g>
     <g id="line2d_29">
      <g>
       <use style="stroke:#000000;stroke-width:0.5;" x="518.4" xlink:href="#md9a1c1a7cd" y="172.8"/>
      </g>
     </g>
     <g id="text_13">
      <!-- −0.4 -->
      <g transform="translate(40.42625 176.1515625)scale(0.12 -0.12)">
       <use xlink:href="#Verdana-2212"/>
       <use x="81.8359375" xlink:href="#Verdana-30"/>
       <use x="145.41015625" xlink:href="#Verdana-2e"/>
       <use x="181.787109375" xlink:href="#Verdana-34"/>
      </g>
     </g>
    </g>
    <g id="ytick_7">
     <g id="line2d_30">
      <g>
       <use style="stroke:#000000;stroke-width:0.5;" x="72.0" xlink:href="#md7965d1ba0" y="129.6"/>
      </g>
     </g>
     <g id="line2d_31">
      <g>
       <use style="stroke:#000000;stroke-width:0.5;" x="518.4" xlink:href="#md9a1c1a7cd" y="129.6"/>
      </g>
     </g>
     <g id="text_14">
      <!-- −0.3 -->
      <g transform="translate(40.746875 132.9515625)scale(0.12 -0.12)">
       <use xlink:href="#Verdana-2212"/>
       <use x="81.8359375" xlink:href="#Verdana-30"/>
       <use x="145.41015625" xlink:href="#Verdana-2e"/>
       <use x="181.787109375" xlink:href="#Verdana-33"/>
      </g>
     </g>
    </g>
    <g id="ytick_8">
     <g id="line2d_32">
      <g>
       <use style="stroke:#000000;stroke-width:0.5;" x="72.0" xlink:href="#md7965d1ba0" y="86.4"/>
      </g>
     </g>
     <g id="line2d_33">
      <g>
       <use style="stroke:#000000;stroke-width:0.5;" x="518.4" xlink:href="#md9a1c1a7cd" y="86.4"/>
      </g>
     </g>
     <g id="text_15">
      <!-- −0.2 -->
      <g transform="translate(40.625 89.7515625)scale(0.12 -0.12)">
       <use xlink:href="#Verdana-2212"/>
       <use x="81.8359375" xlink:href="#Verdana-30"/>
       <use x="145.41015625" xlink:href="#Verdana-2e"/>
       <use x="181.787109375" xlink:href="#Verdana-32"/>
      </g>
     </g>
    </g>
    <g id="ytick_9">
     <g id="line2d_34">
      <g>
       <use style="stroke:#000000;stroke-width:0.5;" x="72.0" xlink:href="#md7965d1ba0" y="43.2"/>
      </g>
     </g>
     <g id="line2d_35">
      <g>
       <use style="stroke:#000000;stroke-width:0.5;" x="518.4" xlink:href="#md9a1c1a7cd" y="43.2"/>
      </g>
     </g>
     <g id="text_16">
      <!-- −0.1 -->
      <g transform="translate(41.121875 46.5515625)scale(0.12 -0.12)">
       <use xlink:href="#Verdana-2212"/>
       <use x="81.8359375" xlink:href="#Verdana-30"/>
       <use x="145.41015625" xlink:href="#Verdana-2e"/>
       <use x="181.787109375" xlink:href="#Verdana-31"/>
      </g>
     </g>
    </g>
    <g id="text_17">
     <!-- Mean -->
     <defs>
      <path d="
M51.4219 0
L42.2812 0
L42.2812 5.8125
Q41.0625 4.98438 38.9844 3.48438
Q36.9219 2 34.9688 1.125
Q32.6719 0 29.6875 -0.75
Q26.7031 -1.51562 22.7031 -1.51562
Q15.3281 -1.51562 10.2031 3.35938
Q5.07812 8.25 5.07812 15.8281
Q5.07812 22.0156 7.73438 25.8438
Q10.4062 29.6875 15.3281 31.8906
Q20.3125 34.0781 27.2969 34.8594
Q34.2812 35.6406 42.2812 36.0312
L42.2812 37.4531
Q42.2812 40.5781 41.1875 42.625
Q40.0938 44.6719 38.0312 45.8438
Q36.0781 46.9688 33.3438 47.3594
Q30.6094 47.75 27.6406 47.75
Q24.0312 47.75 19.5781 46.7969
Q15.1406 45.8438 10.4062 44.0469
L9.90625 44.0469
L9.90625 53.375
Q12.5938 54.1094 17.6719 54.9844
Q22.75 55.8594 27.6875 55.8594
Q33.4531 55.8594 37.7188 54.9062
Q42 53.9531 45.125 51.6562
Q48.1875 49.4219 49.7969 45.8438
Q51.4219 42.2812 51.4219 37.0156
z

M42.2812 13.4219
L42.2812 28.6094
Q38.0938 28.375 32.3906 27.875
Q26.7031 27.3906 23.3906 26.4688
Q19.4375 25.3438 16.9844 22.9688
Q14.5469 20.6094 14.5469 16.4531
Q14.5469 11.7656 17.375 9.39062
Q20.2188 7.03125 26.0312 7.03125
Q30.8594 7.03125 34.8594 8.90625
Q38.875 10.7969 42.2812 13.4219" id="Verdana-61"/>
      <path d="
M74.5156 0
L64.8438 0
L64.8438 62.6406
L44.625 20.0156
L38.875 20.0156
L18.7969 62.6406
L18.7969 0
L9.76562 0
L9.76562 72.7031
L22.9531 72.7031
L42.3281 32.2344
L61.0781 72.7031
L74.5156 72.7031
z
" id="Verdana-4d"/>
     </defs>
     <g transform="translate(33.01125 230.9278125)rotate(-90.0)scale(0.12 -0.12)">
      <use xlink:href="#Verdana-4d"/>
      <use x="84.27734375" xlink:href="#Verdana-65"/>
      <use x="143.84765625" xlink:href="#Verdana-61"/>
      <use x="203.90625" xlink:href="#Verdana-6e"/>
     </g>
    </g>
   </g>
   <g id="patch_3">
    <path d="
M72 43.2
L518.4 43.2" style="fill:none;stroke:#000000;"/>
   </g>
   <g id="patch_4">
    <path d="
M72 388.8
L72 43.2" style="fill:none;stroke:#000000;"/>
   </g>
   <g id="patch_5">
    <path d="
M518.4 388.8
L518.4 43.2" style="fill:none;stroke:#000000;"/>
   </g>
   <g id="patch_6">
    <path d="
M72 388.8
L518.4 388.8" style="fill:none;stroke:#000000;"/>
   </g>
   <g id="text_18">
    <!-- Deceptive Mean -->
    <defs>
     <path d="
M57.0312 27.9375
Q57.0312 21.2969 55.125 15.7969
Q53.2188 10.2969 49.75 6.5
Q46.5312 2.875 42.1562 0.890625
Q37.7969 -1.07812 32.9062 -1.07812
Q28.6562 -1.07812 25.2188 -0.140625
Q21.7812 0.78125 18.2188 2.73438
L18.2188 -20.125
L9.03125 -20.125
L9.03125 54.5469
L18.2188 54.5469
L18.2188 48.8281
Q21.875 51.9062 26.4375 53.9844
Q31 56.0625 36.1875 56.0625
Q46.0469 56.0625 51.5312 48.6094
Q57.0312 41.1562 57.0312 27.9375
M47.5625 27.6875
Q47.5625 37.5469 44.1875 42.4219
Q40.8281 47.3125 33.8438 47.3125
Q29.8906 47.3125 25.875 45.5938
Q21.875 43.8906 18.2188 41.1094
L18.2188 10.2031
Q22.125 8.45312 24.9219 7.8125
Q27.7344 7.17188 31.2969 7.17188
Q38.9688 7.17188 43.2656 12.3438
Q47.5625 17.5312 47.5625 27.6875" id="Verdana-70"/>
     <path d="
M71.1875 36.2812
Q71.1875 26.375 66.8594 18.3125
Q62.5469 10.25 55.375 5.8125
Q50.3906 2.73438 44.2656 1.35938
Q38.1406 0 28.125 0
L9.76562 0
L9.76562 72.7031
L27.9375 72.7031
Q38.5781 72.7031 44.8438 71.1562
Q51.125 69.625 55.4688 66.9375
Q62.8906 62.3125 67.0312 54.5938
Q71.1875 46.875 71.1875 36.2812
M61.0781 36.4219
Q61.0781 44.9688 58.0938 50.8281
Q55.125 56.6875 49.2188 60.0625
Q44.9219 62.5 40.0781 63.4531
Q35.25 64.4062 28.5156 64.4062
L19.4375 64.4062
L19.4375 8.29688
L28.5156 8.29688
Q35.5 8.29688 40.7031 9.32812
Q45.9062 10.3594 50.25 13.1406
Q55.6719 16.6094 58.375 22.2656
Q61.0781 27.9375 61.0781 36.4219" id="Verdana-44"/>
    </defs>
    <g transform="translate(238.3875 38.2)scale(0.144 -0.144)">
     <use xlink:href="#Verdana-44"/>
     <use x="77.05078125" xlink:href="#Verdana-65"/>
     <use x="136.62109375" xlink:href="#Verdana-63"/>
     <use x="188.720703125" xlink:href="#Verdana-65"/>
     <use x="248.291015625" xlink:href="#Verdana-70"/>
     <use x="310.595703125" xlink:href="#Verdana-74"/>
     <use x="350.0" xlink:href="#Verdana-69"/>
     <use x="377.44140625" xlink:href="#Verdana-76"/>
     <use x="435.74609375" xlink:href="#Verdana-65"/>
     <use x="495.31640625" xlink:href="#Verdana-20"/>
     <use x="530.47265625" xlink:href="#Verdana-4d"/>
     <use x="614.75" xlink:href="#Verdana-65"/>
     <use x="674.3203125" xlink:href="#Verdana-61"/>
     <use x="734.37890625" xlink:href="#Verdana-6e"/>
    </g>
   </g>
   <g id="legend_1">
    <g id="patch_7">
     <path d="
M407.18 159.919
L511.2 159.919
L511.2 50.4
L407.18 50.4
L407.18 159.919
z
" style="fill:#ffffff;stroke:#000000;"/>
    </g>
    <g id="line2d_36">
     <path d="
M417.26 62.0617
L437.42 62.0617" style="fill:none;stroke:#0000ff;stroke-dasharray:6.000000,2.000000;stroke-dashoffset:0.0;"/>
    </g>
    <g id="line2d_37"/>
    <g id="text_19">
     <!-- AMPGO -->
     <defs>
      <path d="
M57.3281 50.7344
Q57.3281 45.9062 55.6406 41.7656
Q53.9531 37.6406 50.9219 34.625
Q47.1719 30.8594 42.0469 28.9688
Q36.9219 27.0938 29.1094 27.0938
L19.4375 27.0938
L19.4375 0
L9.76562 0
L9.76562 72.7031
L29.5 72.7031
Q36.0312 72.7031 40.5781 71.6094
Q45.125 70.5156 48.6406 68.1719
Q52.7812 65.375 55.0469 61.2188
Q57.3281 57.0781 57.3281 50.7344
M47.2656 50.4844
Q47.2656 54.25 45.9375 57.0312
Q44.625 59.8125 41.9375 61.5781
Q39.5938 63.0938 36.5938 63.75
Q33.5938 64.4062 29 64.4062
L19.4375 64.4062
L19.4375 35.3594
L27.5938 35.3594
Q33.4531 35.3594 37.1094 36.4062
Q40.7656 37.4531 43.0625 39.75
Q45.3594 42.0938 46.3125 44.6719
Q47.2656 47.2656 47.2656 50.4844" id="Verdana-50"/>
      <path d="
M70.4062 5.375
Q64.4531 2.64062 57.3906 0.609375
Q50.3438 -1.42188 43.75 -1.42188
Q35.25 -1.42188 28.1719 0.921875
Q21.0938 3.26562 16.1094 7.95312
Q11.0781 12.7031 8.34375 19.7969
Q5.60938 26.9062 5.60938 36.4219
Q5.60938 53.8594 15.7969 63.9375
Q25.9844 74.0312 43.75 74.0312
Q49.9531 74.0312 56.4219 72.5312
Q62.8906 71.0469 70.3594 67.4844
L70.3594 56
L69.4844 56
Q67.9688 57.1719 65.0781 59.0781
Q62.2031 60.9844 59.4219 62.25
Q56.0625 63.7656 51.7812 64.7656
Q47.5156 65.7656 42.0938 65.7656
Q29.8906 65.7656 22.7812 57.9219
Q15.6719 50.0938 15.6719 36.7188
Q15.6719 22.6094 23.0938 14.7656
Q30.5156 6.9375 43.3125 6.9375
Q48 6.9375 52.6562 7.85938
Q57.3281 8.79688 60.8438 10.25
L60.8438 28.0781
L41.3594 28.0781
L41.3594 36.5781
L70.4062 36.5781
z
" id="Verdana-47"/>
      <path d="
M67.0938 0
L56.7812 0
L49.6562 20.2656
L18.2188 20.2656
L11.0781 0
L1.26562 0
L27.7344 72.7031
L40.625 72.7031
z

M46.6875 28.5625
L33.9375 64.2656
L21.1406 28.5625
z
" id="Verdana-41"/>
     </defs>
     <g transform="translate(453.26025 67.10175)scale(0.144 -0.144)">
      <use xlink:href="#Verdana-41"/>
      <use x="68.359375" xlink:href="#Verdana-4d"/>
      <use x="152.63671875" xlink:href="#Verdana-50"/>
      <use x="212.939453125" xlink:href="#Verdana-47"/>
      <use x="290.478515625" xlink:href="#Verdana-4f"/>
     </g>
    </g>
    <g id="line2d_38">
     <path d="
M417.26 83.1015
L437.42 83.1015" style="fill:none;stroke:#008000;stroke-dasharray:1.000000,1.000000;stroke-dashoffset:0.0;"/>
    </g>
    <g id="line2d_39"/>
    <g id="text_20">
     <!-- Anneal -->
     <defs>
      <path d="
M18.3125 0
L9.125 0
L9.125 75.9844
L18.3125 75.9844
z
" id="Verdana-6c"/>
     </defs>
     <g transform="translate(453.26025 88.1415)scale(0.144 -0.144)">
      <use xlink:href="#Verdana-41"/>
      <use x="68.359375" xlink:href="#Verdana-6e"/>
      <use x="131.640625" xlink:href="#Verdana-6e"/>
      <use x="194.921875" xlink:href="#Verdana-65"/>
      <use x="254.4921875" xlink:href="#Verdana-61"/>
      <use x="314.55078125" xlink:href="#Verdana-6c"/>
     </g>
    </g>
    <g id="line2d_40">
     <path d="
M417.26 104.141
L437.42 104.141" style="fill:none;stroke:#ff0000;stroke-dasharray:3.000000,6.000000;stroke-dashoffset:0.0;"/>
    </g>
    <g id="line2d_41"/>
    <g id="text_21">
     <!-- BSA -->
     <defs>
      <path d="
M64.5938 22.3594
Q64.5938 16.9375 62.5469 12.7812
Q60.5 8.64062 57.0312 5.95312
Q52.9375 2.73438 48.0156 1.35938
Q43.1094 0 35.5469 0
L9.76562 0
L9.76562 72.7031
L31.2969 72.7031
Q39.2656 72.7031 43.2188 72.1094
Q47.1719 71.5312 50.7812 69.6719
Q54.7812 67.5781 56.5938 64.2812
Q58.4062 60.9844 58.4062 56.3906
Q58.4062 51.2188 55.7656 47.5781
Q53.125 43.9531 48.7344 41.75
L48.7344 41.3594
Q56.1094 39.8438 60.3438 34.8906
Q64.5938 29.9375 64.5938 22.3594
M48.3438 55.125
Q48.3438 57.7656 47.4531 59.5625
Q46.5781 61.375 44.625 62.5
Q42.3281 63.8125 39.0625 64.125
Q35.7969 64.4531 30.9531 64.4531
L19.4375 64.4531
L19.4375 43.4531
L31.9375 43.4531
Q36.4688 43.4531 39.1562 43.9219
Q41.8438 44.3906 44.1406 45.8438
Q46.4375 47.3125 47.3906 49.625
Q48.3438 51.9531 48.3438 55.125
M54.5469 21.9688
Q54.5469 26.375 53.2188 28.9531
Q51.9062 31.5469 48.4375 33.3438
Q46.0938 34.5781 42.75 34.9375
Q39.4062 35.2969 34.625 35.2969
L19.4375 35.2969
L19.4375 8.25
L32.2344 8.25
Q38.5781 8.25 42.625 8.90625
Q46.6875 9.57812 49.2656 11.3281
Q52 13.2344 53.2656 15.6719
Q54.5469 18.1094 54.5469 21.9688" id="Verdana-42"/>
      <path d="
M62.5938 20.75
Q62.5938 16.5 60.6094 12.3438
Q58.6406 8.20312 55.0781 5.32812
Q51.1719 2.20312 45.9688 0.4375
Q40.7656 -1.3125 33.4531 -1.3125
Q25.5938 -1.3125 19.3125 0.140625
Q13.0312 1.60938 6.54688 4.5
L6.54688 16.6094
L7.23438 16.6094
Q12.75 12.0156 19.9688 9.51562
Q27.2031 7.03125 33.5469 7.03125
Q42.5312 7.03125 47.5312 10.3906
Q52.5469 13.7656 52.5469 19.3906
Q52.5469 24.2188 50.1719 26.5156
Q47.7969 28.8125 42.9688 30.0781
Q39.3125 31.0625 35.0312 31.6875
Q30.7656 32.3281 25.9844 33.2969
Q16.3125 35.3594 11.6406 40.3125
Q6.98438 45.2656 6.98438 53.2188
Q6.98438 62.3594 14.6875 68.1875
Q22.4062 74.0312 34.2812 74.0312
Q41.9375 74.0312 48.3281 72.5625
Q54.7344 71.0938 59.6719 68.9531
L59.6719 57.5156
L58.9844 57.5156
Q54.8281 61.0312 48.0625 63.3438
Q41.3125 65.6719 34.2344 65.6719
Q26.4688 65.6719 21.75 62.4531
Q17.0469 59.2344 17.0469 54.1562
Q17.0469 49.6094 19.3906 47.0156
Q21.7344 44.4375 27.6406 43.0625
Q30.7656 42.3906 36.5156 41.4062
Q42.2812 40.4375 46.2969 39.4062
Q54.3906 37.25 58.4844 32.9062
Q62.5938 28.5625 62.5938 20.75" id="Verdana-53"/>
     </defs>
     <g transform="translate(453.26025 109.18125)scale(0.144 -0.144)">
      <use xlink:href="#Verdana-42"/>
      <use x="68.5546875" xlink:href="#Verdana-53"/>
      <use x="135.9140625" xlink:href="#Verdana-41"/>
     </g>
    </g>
    <g id="line2d_42">
     <path d="
M417.26 125.181
L437.42 125.181" style="fill:none;stroke:#00bfbf;stroke-dasharray:5.000000,1.000000,2.000000,1.000000,5.000000,1.000000;stroke-dashoffset:0.0;"/>
    </g>
    <g id="line2d_43"/>
    <g id="text_22">
     <!-- Cuckoo -->
     <defs>
      <path d="
M58.5469 0
L46.4375 0
L24.5625 23.875
L18.6094 18.2188
L18.6094 0
L9.42188 0
L9.42188 75.9844
L18.6094 75.9844
L18.6094 27.25
L45.125 54.5469
L56.6875 54.5469
L31.3438 29.3438
z
" id="Verdana-6b"/>
      <path d="
M65.9219 5.28125
Q63.2344 4.10938 61.0625 3.07812
Q58.8906 2.04688 55.375 0.921875
Q52.3906 0 48.8906 -0.65625
Q45.4062 -1.3125 41.2188 -1.3125
Q33.2969 -1.3125 26.8281 0.90625
Q20.3594 3.125 15.5781 7.85938
Q10.8906 12.5 8.25 19.6562
Q5.60938 26.8125 5.60938 36.2812
Q5.60938 45.2656 8.14062 52.3438
Q10.6875 59.4219 15.4844 64.3125
Q20.125 69.0469 26.6875 71.5312
Q33.25 74.0312 41.2656 74.0312
Q47.125 74.0312 52.9531 72.6094
Q58.7969 71.1875 65.9219 67.625
L65.9219 56.1562
L65.1875 56.1562
Q59.1875 61.1875 53.2656 63.4688
Q47.3594 65.7656 40.625 65.7656
Q35.1094 65.7656 30.6875 63.9844
Q26.2656 62.2031 22.7969 58.4531
Q19.4375 54.7812 17.5469 49.1875
Q15.6719 43.6094 15.6719 36.2812
Q15.6719 28.6094 17.75 23.0938
Q19.8281 17.5781 23.0938 14.1094
Q26.5156 10.5 31.0781 8.76562
Q35.6406 7.03125 40.7188 7.03125
Q47.7031 7.03125 53.7969 9.42188
Q59.9062 11.8125 65.2344 16.6094
L65.9219 16.6094
z
" id="Verdana-43"/>
     </defs>
     <g transform="translate(453.26025 130.221)scale(0.144 -0.144)">
      <use xlink:href="#Verdana-43"/>
      <use x="69.82421875" xlink:href="#Verdana-75"/>
      <use x="133.10546875" xlink:href="#Verdana-63"/>
      <use x="185.205078125" xlink:href="#Verdana-6b"/>
      <use x="243.384765625" xlink:href="#Verdana-6f"/>
      <use x="304.078125" xlink:href="#Verdana-6f"/>
     </g>
    </g>
    <g id="line2d_44">
     <path d="
M417.26 146.221
L437.42 146.221" style="fill:none;stroke:#bf00bf;stroke-linecap:square;"/>
    </g>
    <g id="line2d_45"/>
    <g id="text_23">
     <!-- qABC -->
     <defs>
      <path d="
M53.2656 -20.125
L44.0938 -20.125
L44.0938 6.15625
Q39.8438 2.48438 35.6406 0.703125
Q31.4531 -1.07812 26.5625 -1.07812
Q16.8438 -1.07812 11.0625 6.42188
Q5.28125 13.9219 5.28125 27.0938
Q5.28125 34.125 7.29688 39.5156
Q9.32812 44.9219 12.6406 48.5781
Q15.875 52.1562 20.2188 54.1094
Q24.5625 56.0625 29.3906 56.0625
Q33.7969 56.0625 37.1875 55.0781
Q40.5781 54.1094 44.0938 52.2031
L44.6719 54.5469
L53.2656 54.5469
z

M44.0938 13.875
L44.0938 44.7344
Q40.2812 46.4375 37.3438 47.1094
Q34.4219 47.7969 31 47.7969
Q23.0469 47.7969 18.8906 42.4062
Q14.75 37.0156 14.75 27.5469
Q14.75 17.9688 18.0938 12.8125
Q21.4375 7.67188 28.6094 7.67188
Q32.625 7.67188 36.625 9.40625
Q40.625 11.1406 44.0938 13.875" id="Verdana-71"/>
     </defs>
     <g transform="translate(453.26025 151.26075)scale(0.144 -0.144)">
      <use xlink:href="#Verdana-71"/>
      <use x="62.3046875" xlink:href="#Verdana-41"/>
      <use x="130.6640625" xlink:href="#Verdana-42"/>
      <use x="199.21875" xlink:href="#Verdana-43"/>
     </g>
    </g>
   </g>
  </g>
 </g>
 <defs>
  <clipPath id="p7ff5b81e1d">
   <rect height="345.6" width="446.4" x="72.0" y="43.2"/>
  </clipPath>
 </defs>
</svg>
