<?xml version="1.0" encoding="utf-8" standalone="no"?>
<!DOCTYPE svg PUBLIC "-//W3C//DTD SVG 1.1//EN"
  "http://www.w3.org/Graphics/SVG/1.1/DTD/svg11.dtd">
<!-- Created with matplotlib (http://matplotlib.org/) -->
<svg height="432pt" version="1.1" viewBox="0 0 576 432" width="576pt" xmlns="http://www.w3.org/2000/svg" xmlns:xlink="http://www.w3.org/1999/xlink">
 <defs>
  <style type="text/css">
*{stroke-linecap:butt;stroke-linejoin:round;}
  </style>
 </defs>
 <g id="figure_1">
  <g id="patch_1">
   <path d="
M0 432
L576 432
L576 0
L0 0
z
" style="fill:#ffffff;"/>
  </g>
  <g id="axes_1">
   <g id="patch_2">
    <path d="
M72 388.8
L518.4 388.8
L518.4 43.2
L72 43.2
z
" style="fill:#ffffff;"/>
   </g>
   <g id="line2d_1">
    <path clip-path="url(#p7ff5b81e1d)" d="
M72 64.9141
L72.5357 64.9141
L72.7142 75.8702
L73.0714 75.8702
L73.2499 84.5558
L73.607 84.5558
L73.7856 90.5382
L74.1427 90.5382
L74.3213 93.5361
L74.6784 93.5361
L74.857 95.5484
L75.2141 95.5484
L75.3926 96.5769
L75.7498 96.5769
L75.9283 97.4337
L76.2854 97.4337
L76.464 98.5484
L76.8211 98.5484
L76.9997 99.4907
L77.3568 99.4907
L77.5354 100.282
L77.8925 100.282
L78.071 101.44
L78.4282 101.44
L78.6067 102.043
L78.9638 102.043
L79.1424 102.4
L79.4995 102.4
L79.7674 102.719
L80.1245 102.751
L80.303 102.954
L80.6602 102.988
L80.8387 103.137
L81.1958 103.152
L81.3744 103.359
L81.7315 103.361
L81.9101 103.586
L82.2672 103.665
L82.4458 103.898
L82.8922 103.978
L83.16 104.034
L83.4278 104.137
L83.6064 104.258
L83.785 104.258
L84.0528 104.612
L85.0349 104.714
L85.3027 104.778
L86.1062 104.868
L86.3741 105.009
L86.7312 105.117
L87.2669 105.326
L87.7133 105.413
L87.9811 105.484
L88.3382 105.502
L88.5168 105.6
L88.7846 105.655
L89.0525 105.713
L89.4096 105.798
L89.5882 105.925
L89.9453 105.977
L90.1238 106.06
L91.0166 106.156
L91.1952 106.261
L92.9808 106.371
L94.8557 106.551
L95.7485 106.73
L96.4627 106.847
L96.9984 106.886
L97.6234 107.001
L97.8019 107.113
L99.2304 107.292
L99.6768 107.338
L100.302 107.438
L101.016 107.48
L105.569 107.801
L107.533 107.906
L115.747 108.621
L116.819 108.673
L117.086 108.739
L120.122 108.962
L120.3 109.091
L124.14 109.486
L124.407 109.564
L131.55 110.034
L131.728 110.183
L135.567 110.605
L135.746 110.729
L137.621 110.969
L137.799 111.072
L138.514 111.131
L138.781 111.202
L141.817 111.607
L141.996 111.782
L143.335 111.922
L143.513 112.108
L144.228 112.181
L144.942 112.323
L145.388 112.411
L146.638 112.547
L151.906 113.282
L152.352 113.487
L152.888 113.571
L153.245 113.707
L154.048 113.793
L154.227 113.969
L155.12 114.358
L155.298 114.497
L157.173 114.793
L158.423 114.98
L158.602 115.248
L158.959 115.279
L159.137 115.467
L159.762 115.588
L160.655 115.71
L163.512 116.308
L163.691 116.433
L164.583 116.882
L164.762 117.001
L165.655 117.163
L165.923 117.238
L167.887 117.563
L169.047 117.686
L169.672 117.825
L170.208 117.999
L170.654 118.105
L170.922 118.186
L178.69 119.405
L179.225 119.484
L179.582 119.532
L181.725 119.838
L182.082 119.956
L183.154 120.085
L183.332 120.204
L185.564 120.647
L185.743 120.814
L187.618 121.054
L188.332 121.126
L190.117 121.322
L190.921 121.372
L191.814 121.49
L192.617 121.898
L193.689 122.12
L194.135 122.235
L194.849 122.303
L195.028 122.408
L196.635 122.677
L197.26 122.768
L199.045 123.012
L199.67 123.086
L200.028 123.179
L201.099 123.297
L202.527 123.439
L206.902 124.384
L211.455 125.163
L211.812 125.224
L214.937 125.602
L215.741 125.697
L216.276 125.739
L225.472 127.236
L225.919 127.371
L226.812 127.44
L226.99 127.614
L227.883 127.728
L228.508 127.901
L229.936 128.034
L230.383 128.08
L231.276 128.164
L231.543 128.36
L233.15 128.491
L234.4 128.624
L235.115 128.765
L235.561 128.89
L237.079 129.09
L237.972 129.345
L239.132 129.469
L240.025 129.582
L240.204 129.728
L244.578 130.279
L245.114 130.393
L245.828 130.492
L246.007 130.632
L247.971 131.127
L248.149 131.234
L248.507 131.283
L248.685 131.443
L249.489 131.567
L250.203 131.732
L251.542 131.892
L251.899 132.05
L252.792 132.159
L253.149 132.218
L254.22 132.328
L256.988 132.584
L257.256 132.731
L258.595 132.923
L260.381 133.173
L260.649 133.267
L261.363 133.376
L263.952 133.829
L264.845 133.937
L266.095 134.11
L266.363 134.212
L267.612 134.291
L267.791 134.4
L268.327 134.453
L268.505 134.574
L269.577 134.68
L270.023 134.783
L270.38 134.9
L271.273 135.067
L272.166 135.175
L275.826 135.545
L276.094 135.642
L276.987 135.701
L279.04 135.982
L279.844 136.066
L282.165 136.224
L283.683 136.446
L284.933 136.587
L285.558 136.667
L286.54 136.829
L286.718 136.927
L287.522 136.994
L287.79 137.072
L288.504 137.139
L288.683 137.251
L289.397 137.311
L289.575 137.442
L289.754 137.447
L289.932 137.605
L290.915 137.718
L292.789 138.088
L293.593 138.178
L293.772 138.315
L294.664 138.42
L295.825 138.606
L297.343 138.728
L297.611 138.784
L298.325 138.858
L298.593 138.96
L299.575 139.006
L299.753 139.103
L300.468 139.222
L300.914 139.294
L302.075 139.395
L302.342 139.507
L303.057 139.598
L303.503 139.647
L306.003 139.883
L306.717 139.999
L309.038 140.239
L310.288 140.432
L311.003 140.619
L313.145 140.727
L313.86 140.799
L314.395 140.908
L316.806 141.206
L316.984 141.308
L320.288 141.673
L320.556 141.757
L321.538 141.829
L321.805 141.887
L323.859 142.218
L324.484 142.283
L324.841 142.397
L325.377 142.455
L325.555 142.594
L326.805 142.842
L327.43 142.92
L327.876 143.052
L336.447 144.295
L336.626 144.401
L337.965 144.511
L338.858 144.594
L339.126 144.69
L340.019 144.783
L340.376 144.847
L341.09 144.941
L342.251 145.049
L342.518 145.192
L347.607 145.99
L348.054 146.027
L349.036 146.139
L349.839 146.261
L350.554 146.44
L351.089 146.539
L351.268 146.737
L351.536 146.851
L354.393 147.19
L354.571 147.357
L361.267 148.105
L361.446 148.264
L361.981 148.3
L362.16 148.401
L362.249 148.412
L362.428 148.551
L362.964 148.642
L364.928 149.054
L365.642 149.165
L366.356 149.2
L366.624 149.296
L367.07 149.386
L367.963 149.471
L368.588 149.705
L369.302 149.796
L369.57 149.857
L373.052 150.178
L373.409 150.216
L375.106 150.333
L375.463 150.375
L376.177 150.456
L376.356 150.599
L377.605 150.703
L380.552 151.045
L381.534 151.171
L385.641 151.554
L386.444 151.667
L386.98 151.724
L387.516 151.826
L387.694 151.945
L388.319 151.999
L389.658 152.093
L389.926 152.15
L390.819 152.26
L391.176 152.388
L395.551 152.957
L395.819 153.02
L397.158 153.13
L399.568 153.576
L400.908 153.663
L401.086 153.789
L403.229 153.878
L403.497 153.949
L406.264 154.185
L406.711 154.282
L407.961 154.333
L408.139 154.431
L408.675 154.513
L408.943 154.629
L409.836 154.678
L410.014 154.811
L412.157 154.928
L412.425 155.011
L413.139 155.077
L414.478 155.167
L414.746 155.231
L416.532 155.324
L416.978 155.381
L418.139 155.45
L418.317 155.546
L419.835 155.656
L420.013 155.801
L421.799 155.922
L422.067 155.98
L424.031 156.142
L424.745 156.165
L426.531 156.302
L426.709 156.399
L426.888 156.399
L427.067 156.552
L428.316 156.667
L428.674 156.717
L429.566 156.793
L429.745 156.879
L432.066 156.984
L432.691 157.012
L435.548 157.123
L438.316 157.374
L438.762 157.383
L438.941 157.529
L441.708 157.68
L442.78 157.873
L450.101 158.455
L451.261 158.574
L451.529 158.697
L453.94 158.807
L455.19 158.877
L456.35 158.964
L456.618 159.006
L457.6 159.104
L459.118 159.251
L459.297 159.297
L459.564 159.37
L460.904 159.409
L463.582 159.513
L464.296 159.585
L464.475 159.586
L464.653 159.699
L466.796 159.808
L467.243 159.934
L468.939 160.041
L472.153 160.149
L473.492 160.247
L475.188 160.307
L475.367 160.411
L478.224 160.632
L478.403 160.764
L480.01 160.826
L480.188 160.93
L480.902 161.037
L481.17 161.149
L485.545 161.496
L485.724 161.582
L489.473 161.863
L489.652 162.046
L490.009 162.073
L490.188 162.218
L491.884 162.265
L492.062 162.383
L494.741 162.478
L495.366 162.519
L495.812 162.534
L495.991 162.666
L503.222 163.173
L503.401 163.267
L504.562 163.361
L504.829 163.435
L507.329 163.575
L507.597 163.648
L508.222 163.761
L508.847 163.928
L512.061 164.035
L518.311 164.671
L518.311 164.671" style="fill:none;stroke:#0000ff;stroke-dasharray:6.000000,2.000000;stroke-dashoffset:0.0;"/>
   </g>
   <g id="line2d_2">
    <path clip-path="url(#p7ff5b81e1d)" d="
M72 65.0634
L72.0893 71.5336
L72.2678 76.6737
L72.7142 85.6837
L73.7856 100.723
L74.3213 108.18
L76.7318 143.052
L77.1782 149.24
L79.5888 179.405
L79.8566 182.38
L80.3923 188.57
L80.928 194.405
L83.9635 221.843
L85.392 231.826
L86.017 235.98
L86.8205 241.021
L87.2669 244.007
L89.6774 256.992
L90.0346 258.579
L90.3917 259.901
L90.6595 261.348
L91.3738 264.314
L92.5344 268.17
L92.8915 269.08
L93.2486 270.103
L93.4272 270.566
L94.7664 274.353
L95.1235 275.221
L95.4806 276.267
L95.7485 276.824
L96.3734 278.826
L96.9091 280.136
L97.3555 280.847
L97.7126 281.63
L97.8912 281.978
L100.034 286.025
L101.016 287.696
L101.284 288.208
L102.534 290.119
L102.802 290.421
L103.694 291.474
L104.141 291.992
L104.319 292.12
L104.766 292.75
L105.212 293.207
L105.926 294.113
L106.284 294.47
L106.551 294.909
L109.051 296.967
L109.408 297.261
L111.372 298.745
L111.908 299.087
L112.533 299.615
L112.712 299.716
L113.158 300.076
L114.14 300.622
L114.765 301.077
L115.39 301.528
L115.747 301.712
L116.64 302.291
L116.997 302.502
L117.622 302.882
L118.068 303.072
L119.14 303.598
L119.765 303.887
L121.015 304.542
L121.283 304.73
L121.64 304.805
L122.175 305.088
L122.622 305.295
L122.89 305.488
L123.247 305.602
L123.693 305.714
L124.854 305.986
L127.086 306.861
L128.068 307.015
L128.693 307.184
L129.407 307.457
L129.764 307.606
L129.943 307.696
L130.3 307.802
L130.925 307.904
L132.532 308.276
L134.764 308.604
L135.21 308.752
L135.746 308.823
L136.014 308.915
L137.442 309.135
L138.067 309.223
L138.424 309.385
L139.139 309.505
L139.674 309.648
L140.21 309.828
L141.192 309.937
L145.477 310.364
L146.192 310.468
L147.174 310.636
L147.977 310.716
L148.245 310.805
L149.674 311.122
L150.299 311.227
L156.816 312.172
L157.352 312.279
L158.691 312.409
L160.298 312.517
L161.191 312.541
L162.441 312.643
L163.066 312.752
L164.048 312.858
L168.422 313.618
L170.565 313.853
L170.833 313.919
L172.351 314.028
L172.886 314.085
L175.208 314.219
L178.065 314.566
L178.69 314.667
L179.225 314.705
L180.654 314.779
L180.922 314.833
L184.225 314.988
L184.939 315.05
L186.636 315.153
L187.707 315.172
L191.1 315.277
L192.439 315.308
L197.26 315.408
L198.242 315.438
L201.099 315.544
L201.724 315.606
L206.099 315.69
L206.456 315.73
L210.83 315.841
L215.205 316.064
L219.401 316.162
L219.669 316.221
L227.347 316.328
L227.883 316.35
L234.4 316.444
L234.847 316.471
L240.293 316.566
L240.561 316.635
L257.167 316.739
L257.702 316.769
L264.845 316.854
L265.202 316.905
L276.273 317.006
L277.076 317.019
L295.021 317.131
L295.557 317.152
L304.842 317.2
L317.252 317.281
L317.52 317.341
L328.859 317.426
L329.216 317.456
L347.786 317.547
L348.232 317.572
L375.641 317.683
L376.891 317.7
L393.497 317.791
L393.944 317.824
L422.067 317.934
L423.138 317.995
L431.173 318.09
L431.62 318.119
L443.851 318.178
L478.403 318.289
L479.028 318.306
L502.419 318.408
L502.955 318.43
L518.311 318.476
L518.311 318.476" style="fill:none;stroke:#008000;stroke-dasharray:1.000000,1.000000;stroke-dashoffset:0.0;"/>
   </g>
   <g id="line2d_3">
    <path clip-path="url(#p7ff5b81e1d)" d="
M72 64.2693
L72.2678 88.3652
L72.8928 109.288
L73.7856 125.188
L75.7498 139.078
L75.9283 140.184
L76.1962 140.687
L76.6426 144.447
L76.9104 145.94
L76.9997 146.248
L77.3568 148.391
L77.5354 148.977
L77.6246 149.149
L78.6067 154.254
L78.696 154.284
L78.8746 155.002
L80.3923 162.39
L80.4816 162.639
L80.7494 163.85
L80.928 164.517
L81.1958 166.641
L82.3565 169.427
L82.535 170.568
L83.9635 176.898
L84.0528 176.899
L84.2314 177.301
L84.4099 177.811
L84.9456 179.531
L85.2134 180.947
L85.392 181.053
L85.7491 182.263
L85.8384 182.3
L86.017 182.98
L86.1062 183.018
L86.3741 183.907
L86.5526 184.215
L86.7312 185.01
L86.8205 185.088
L87.1776 186.083
L87.2669 186.086
L87.624 186.822
L87.7133 186.909
L87.9811 187.428
L88.0704 187.504
L88.3382 188.503
L88.4275 188.734
L88.8739 190.984
L88.9632 191.208
L89.1418 192.235
L89.4989 193.237
L89.6774 193.624
L89.9453 194.45
L90.3917 195.58
L90.5702 195.729
L90.8381 195.894
L91.1059 197.414
L91.1952 197.543
L91.3738 198.221
L91.5523 198.528
L91.9987 200.904
L92.5344 201.769
L92.713 201.868
L92.8915 201.902
L93.0701 202.062
L93.7843 204.817
L93.9629 205.562
L94.0522 205.635
L94.4986 207.421
L94.6771 207.888
L94.7664 207.922
L94.945 208.52
L95.4806 209.227
L95.927 210.105
L96.9091 212.588
L97.0877 212.62
L97.3555 213.653
L97.5341 213.798
L97.9805 215.441
L98.6054 216.401
L98.784 216.907
L98.9626 216.974
L99.3197 218.391
L99.409 218.446
L99.4982 218.658
L99.7661 219.708
L99.8554 219.708
L100.302 220.799
L100.57 221.386
L100.837 222.142
L101.373 224.034
L101.641 224.175
L101.82 224.317
L102.087 225.242
L102.534 225.873
L103.159 228.255
L103.427 228.917
L103.516 228.917
L103.873 229.654
L104.141 230.135
L104.498 231.222
L104.587 231.222
L105.212 232.233
L105.391 232.882
L105.659 233.145
L106.105 233.939
L106.373 234.135
L106.551 234.346
L106.73 234.546
L107.266 235.686
L107.355 235.687
L107.623 236.216
L107.801 236.271
L108.248 237.484
L108.426 237.68
L108.605 237.925
L108.694 237.94
L109.319 239.275
L109.855 240.061
L110.212 240.789
L110.301 240.899
L110.748 242.477
L110.837 242.491
L111.283 243.153
L111.462 243.255
L111.73 243.627
L112.087 243.899
L112.801 245.378
L112.89 245.38
L113.337 245.998
L113.515 246.498
L113.694 246.537
L113.872 247.225
L114.497 247.79
L114.765 248.293
L115.033 248.744
L115.569 249.38
L115.658 249.403
L115.926 249.967
L116.194 250.316
L116.551 251.192
L116.64 251.193
L116.819 251.328
L116.908 251.328
L117.354 252.155
L117.444 252.155
L117.711 253.209
L117.89 253.429
L117.979 253.48
L118.783 255.369
L118.872 255.372
L119.497 256.491
L119.676 256.587
L119.854 257.239
L119.943 257.289
L120.211 257.776
L120.3 258.007
L120.479 258.71
L120.747 258.97
L120.925 259.264
L121.908 260.596
L122.175 261.054
L122.354 261.28
L122.443 261.28
L122.711 261.9
L122.89 261.922
L123.336 262.667
L123.515 262.667
L123.693 262.979
L123.782 262.984
L123.961 263.45
L124.407 263.831
L124.854 264.762
L125.122 264.834
L125.479 265.701
L125.568 265.735
L126.193 266.895
L126.282 266.897
L126.461 267.358
L126.55 267.405
L126.729 268.21
L126.996 268.357
L127.354 268.726
L127.532 269.326
L127.8 269.501
L128.782 270.133
L129.139 270.622
L129.228 270.632
L129.675 271.514
L129.764 271.514
L130.032 271.982
L130.389 272.564
L130.568 272.767
L130.657 272.779
L130.925 273.376
L131.728 274.895
L132.443 275.569
L133.068 276.673
L133.246 277.051
L133.335 277.051
L133.692 277.478
L133.871 277.576
L134.139 278.037
L134.228 278.146
L134.407 278.622
L135.21 279.289
L135.3 279.311
L136.014 280.276
L136.103 280.277
L136.282 280.485
L136.371 280.485
L136.907 281.256
L136.996 281.256
L137.174 281.566
L137.353 282.155
L137.621 282.395
L137.71 282.395
L137.889 282.734
L138.067 282.783
L138.335 283.088
L139.139 284.158
L139.317 284.281
L139.674 284.863
L139.942 285.181
L140.299 286.202
L140.388 286.215
L140.478 286.39
L140.656 287.184
L141.013 287.488
L141.103 287.488
L141.281 287.699
L141.371 287.712
L141.638 288.192
L141.906 288.795
L142.174 288.944
L142.353 289.415
L142.888 289.72
L142.978 289.775
L143.245 290.26
L143.335 290.266
L143.603 290.467
L143.87 290.513
L144.049 291.134
L144.942 292.421
L145.031 292.421
L145.21 292.71
L145.567 293.029
L145.745 293.3
L145.924 293.523
L146.013 293.526
L146.281 293.986
L146.906 294.492
L147.263 295.295
L147.977 296.142
L148.156 296.358
L148.781 296.748
L149.138 297.162
L149.674 297.628
L150.12 298.094
L150.299 298.129
L150.566 298.38
L150.745 298.52
L151.281 299.164
L151.638 299.393
L152.263 299.965
L152.352 299.965
L153.602 301.456
L153.691 301.461
L153.87 301.793
L154.138 301.819
L154.316 302.362
L154.584 302.449
L155.477 303.657
L155.655 304.02
L156.28 304.432
L156.459 304.467
L157.62 305.774
L158.602 306.793
L158.869 306.892
L159.673 307.781
L159.852 307.789
L160.03 308.045
L160.298 308.142
L160.744 308.285
L161.012 308.328
L161.101 308.416
L161.28 308.748
L161.548 309.061
L161.816 309.193
L162.084 309.386
L162.798 309.519
L162.976 309.748
L163.066 309.816
L163.333 310.334
L163.512 310.404
L163.869 310.767
L164.851 311.458
L165.298 312.067
L165.387 312.095
L165.565 312.316
L165.655 312.337
L165.833 312.793
L166.905 313.642
L167.172 314.197
L167.44 314.265
L167.619 314.387
L167.976 314.563
L168.244 314.826
L168.333 314.831
L168.601 315.038
L168.869 315.152
L169.047 315.42
L169.315 315.471
L169.672 316.005
L169.94 316.154
L170.297 316.209
L170.387 316.21
L170.744 316.775
L170.922 316.84
L171.369 317.113
L171.547 317.182
L171.904 317.52
L172.351 317.608
L172.529 317.881
L172.708 317.889
L172.886 318.042
L174.761 319.098
L175.029 319.297
L175.297 319.398
L175.654 319.573
L176.279 319.779
L176.547 320.131
L176.815 320.326
L177.172 320.389
L177.35 320.508
L177.708 320.552
L177.886 320.648
L178.154 320.7
L178.332 320.815
L178.6 320.895
L178.779 321.12
L179.136 321.35
L179.582 321.446
L179.85 321.633
L180.118 321.834
L180.743 321.91
L181.011 322.212
L181.457 322.51
L181.725 322.543
L181.993 322.832
L182.172 322.931
L182.618 323.031
L183.243 323.478
L183.332 323.479
L183.6 323.708
L183.868 323.834
L184.493 324.486
L184.761 324.5
L184.939 324.826
L185.118 325.052
L185.653 325.274
L185.743 325.274
L185.921 325.529
L186.814 325.715
L187.171 326.013
L187.707 326.248
L188.064 326.615
L188.868 327.409
L189.135 327.55
L189.314 327.745
L189.76 327.789
L190.028 327.896
L190.207 328.208
L190.475 328.248
L190.653 328.665
L190.832 328.681
L191.01 328.864
L191.367 328.965
L192.439 329.18
L192.707 329.558
L193.064 329.833
L193.153 329.849
L193.332 330.119
L193.51 330.213
L193.778 330.321
L194.046 330.344
L194.314 330.53
L194.849 330.62
L195.028 330.779
L195.742 330.992
L196.01 331.212
L196.903 331.321
L197.171 331.52
L197.706 331.629
L197.885 331.762
L198.599 331.899
L199.135 331.967
L199.581 332.49
L200.385 332.908
L200.742 332.921
L200.92 333.133
L201.099 333.391
L201.367 333.797
L201.545 333.977
L201.902 333.997
L202.081 334.391
L202.527 334.443
L202.795 334.548
L202.974 334.673
L203.152 334.709
L203.331 334.914
L203.599 334.961
L203.956 334.997
L204.224 335.204
L204.581 335.4
L204.759 335.692
L204.938 335.792
L205.206 335.951
L205.384 336.088
L205.831 336.347
L206.099 336.723
L206.724 337.377
L206.902 337.495
L206.991 337.496
L207.438 338.04
L208.152 338.117
L208.509 338.409
L208.777 338.84
L209.134 338.875
L209.848 339.462
L210.116 339.577
L210.384 339.726
L210.92 339.842
L211.188 339.856
L211.366 339.985
L211.902 340.091
L212.348 340.387
L212.616 340.528
L212.795 340.605
L212.973 340.728
L213.33 340.872
L213.598 341.104
L214.044 341.183
L214.223 341.26
L214.937 341.38
L215.384 341.644
L215.652 341.739
L215.83 341.9
L216.634 342.002
L217.348 342.187
L217.705 342.291
L218.151 342.65
L218.419 342.72
L222.258 343.539
L222.437 343.835
L222.615 343.929
L222.794 344.096
L223.508 344.197
L223.776 344.384
L225.204 344.709
L225.383 344.813
L226.008 344.968
L226.812 345.658
L227.347 345.774
L227.794 345.956
L228.508 346.28
L228.865 346.324
L229.311 346.556
L229.758 346.665
L229.936 346.747
L230.383 346.798
L230.651 346.964
L231.097 347.065
L231.633 347.616
L232.436 347.707
L232.704 347.893
L232.883 347.893
L233.061 348.013
L233.329 348.113
L233.775 348.189
L239.132 349.796
L239.846 349.9
L241.543 350.233
L241.9 350.33
L242.078 350.39
L242.257 350.5
L244.4 350.676
L244.578 350.76
L244.846 350.761
L245.025 350.914
L245.56 350.948
L245.828 351.282
L246.989 351.433
L247.167 351.518
L247.346 351.606
L248.328 351.798
L248.953 351.906
L249.399 352.075
L250.739 352.264
L250.917 352.344
L251.364 352.486
L251.542 352.633
L252.881 353.238
L253.06 353.345
L253.774 353.473
L254.131 353.518
L254.31 353.621
L254.845 353.707
L255.024 353.815
L257.077 353.883
L257.256 354.03
L257.524 354.096
L258.417 354.208
L258.595 354.313
L260.292 354.406
L261.006 354.552
L263.148 354.663
L263.327 354.709
L263.506 354.807
L263.863 354.889
L264.041 355.005
L264.934 355.114
L265.559 355.261
L266.005 355.357
L266.184 355.573
L267.434 355.676
L270.827 356.238
L271.094 356.307
L272.612 356.397
L272.969 356.464
L274.398 356.595
L274.844 356.708
L275.023 356.81
L276.005 356.882
L276.273 356.949
L276.808 357.013
L276.987 357.088
L278.237 357.145
L278.415 357.231
L279.665 357.299
L280.022 357.535
L280.558 357.539
L280.737 357.726
L282.969 357.822
L283.147 357.925
L284.397 357.949
L284.576 358.052
L284.933 358.124
L285.201 358.281
L287.076 358.365
L287.254 358.493
L288.504 358.587
L288.772 358.673
L290.111 358.91
L290.29 358.982
L291.897 359.062
L292.075 359.169
L292.968 359.275
L293.236 359.462
L295.2 359.533
L295.468 359.604
L296.628 359.693
L296.807 359.798
L297.075 359.902
L297.253 360.008
L298.95 360.095
L299.218 360.146
L300.2 360.259
L300.468 360.469
L301.092 360.574
L301.717 360.684
L303.057 360.796
L303.503 360.857
L303.771 360.929
L304.128 361.001
L304.396 361.099
L304.753 361.21
L305.378 361.274
L305.824 361.376
L306.449 361.51
L309.038 361.567
L309.306 361.634
L310.11 361.736
L310.467 361.783
L311.181 361.88
L311.449 362.129
L312.61 362.206
L312.877 362.305
L314.842 362.41
L315.199 362.443
L315.734 362.542
L315.913 362.634
L317.788 362.79
L318.145 362.825
L319.395 362.922
L319.663 363.001
L322.073 363.113
L322.698 363.25
L324.305 363.44
L325.555 363.453
L325.823 363.628
L327.876 363.714
L328.144 363.782
L329.662 363.812
L331.805 363.926
L332.608 363.945
L333.59 364.052
L335.465 364.134
L338.679 364.188
L338.858 364.267
L342.876 364.377
L343.322 364.408
L345.108 364.508
L345.375 364.635
L347.072 364.723
L347.34 364.786
L350.732 364.871
L351.179 364.935
L353.411 365.025
L353.678 365.097
L358.589 365.154
L359.035 365.332
L366.088 365.439
L366.267 365.528
L368.142 365.584
L368.32 365.672
L369.035 365.691
L379.391 365.726
L379.57 365.82
L392.604 365.905
L392.783 366.01
L398.854 366.116
L399.39 366.139
L415.014 366.222
L415.282 366.404
L451.619 366.489
L451.797 366.585
L469.385 366.673
L469.653 366.722
L494.205 366.832
L497.419 366.836
L518.311 366.862
L518.311 366.862" style="fill:none;stroke:#ff0000;stroke-dasharray:3.000000,6.000000;stroke-dashoffset:0.0;"/>
   </g>
   <g id="line2d_4">
    <path clip-path="url(#p7ff5b81e1d)" d="
M72 64.7496
L72.0893 76.5177
L72.2678 87.8505
L72.625 103.428
L73.5178 124.087
L73.7856 126.545
L73.9642 126.737
L74.3213 127.822
L74.4106 127.844
L74.6784 128.162
L75.0355 128.636
L75.5712 129.936
L76.1962 134.988
L76.9104 139.968
L77.2675 142.637
L79.0531 145.148
L79.5888 148.637
L80.303 153.706
L80.3923 153.88
L80.7494 155.826
L81.0173 156.312
L81.7315 157.081
L81.9101 157.619
L82.0886 157.893
L82.2672 157.985
L82.4458 158.167
L82.535 158.167
L82.6243 158.341
L82.8029 159.871
L83.16 161.351
L83.3386 162.696
L83.8742 164.461
L84.4992 167.009
L84.767 167.238
L85.1242 167.327
L85.3027 167.46
L85.4813 168.117
L85.6598 168.262
L85.9277 168.443
L86.4634 170.1
L87.5347 175.194
L87.624 175.243
L87.9811 177.087
L88.1597 177.174
L88.9632 177.866
L89.3203 178.433
L89.856 178.995
L90.0346 180.219
L90.2131 180.417
L90.3917 181.326
L90.5702 182.903
L90.6595 183.183
L90.8381 184.12
L91.0166 184.336
L91.3738 185.708
L91.6416 186.383
L92.3558 186.847
L92.5344 187.084
L92.713 187.176
L93.1594 188.015
L93.2486 188.018
L93.695 189.29
L93.9629 190.012
L94.4093 191.688
L94.7664 193.65
L95.3021 194.99
L95.8378 195.258
L96.6413 195.687
L96.8198 195.829
L96.9091 195.845
L97.2662 197.146
L97.3555 197.266
L97.5341 199.187
L97.8019 199.957
L97.9805 200.53
L98.159 200.778
L98.5162 202.442
L98.784 202.99
L98.9626 203.035
L99.5875 203.591
L99.9446 203.67
L100.302 203.957
L100.48 203.971
L100.748 204.701
L101.284 206.263
L101.552 206.989
L101.909 207.541
L102.087 207.981
L102.177 208.121
L102.355 208.576
L102.534 208.765
L104.052 209.328
L104.944 211.957
L105.212 213.029
L105.301 213.056
L105.569 213.993
L105.837 214.894
L106.194 214.978
L106.551 215.162
L107.712 215.515
L107.891 216.14
L108.069 217.034
L108.248 217.588
L108.426 217.801
L108.783 218.765
L108.873 218.765
L109.23 220.196
L109.498 220.607
L109.676 220.616
L109.855 220.731
L109.944 220.731
L110.123 220.932
L110.301 220.949
L110.48 221.128
L110.569 221.128
L110.837 221.378
L111.105 221.484
L111.283 221.826
L111.997 223.472
L112.176 224.019
L112.265 224.019
L112.533 224.655
L112.712 224.887
L112.98 225.605
L113.247 225.702
L113.872 226.113
L114.229 226.21
L114.587 226.48
L114.676 226.48
L114.765 226.673
L115.033 228.091
L115.301 228.39
L116.104 230.589
L116.194 230.614
L116.372 230.941
L116.551 231.407
L117.533 231.616
L117.711 231.748
L117.89 231.818
L118.515 232.353
L118.693 233.353
L119.497 234.929
L119.676 235.795
L119.765 235.798
L120.568 236.786
L120.836 236.828
L121.015 237.259
L121.193 237.4
L121.997 237.47
L122.89 239.624
L123.157 240.392
L123.425 240.949
L123.515 240.958
L123.604 241.232
L123.782 241.991
L124.407 242.097
L125.568 242.326
L126.104 243.365
L126.461 244.878
L126.55 244.948
L127.443 246.941
L127.889 247.036
L128.157 247.279
L128.693 247.383
L128.871 247.498
L129.05 247.549
L129.318 247.973
L129.586 248.319
L129.943 249.654
L130.121 249.886
L130.746 250.541
L131.014 250.677
L131.282 250.761
L131.55 250.994
L131.996 251.045
L132.175 251.213
L132.71 251.347
L134.228 256.038
L134.675 256.235
L135.21 256.364
L135.478 256.471
L136.192 256.802
L136.549 257.508
L136.728 257.66
L136.907 258.296
L137.085 258.514
L137.264 258.612
L137.799 258.914
L138.067 259.274
L138.514 259.366
L138.692 259.573
L138.96 259.68
L139.496 259.882
L140.121 260.593
L140.388 261.422
L140.924 262.109
L141.371 262.514
L141.46 262.634
L141.638 263.102
L143.067 263.209
L143.245 263.311
L143.335 263.319
L143.603 263.858
L143.96 264.689
L144.495 266.033
L144.585 266.095
L144.942 267.122
L145.031 267.244
L145.21 267.652
L145.388 267.754
L145.656 267.801
L145.835 267.947
L145.924 267.958
L146.102 268.161
L146.549 268.207
L146.906 268.349
L146.995 268.349
L147.352 268.837
L147.442 268.867
L147.888 270.157
L148.156 270.472
L148.602 271.894
L148.781 272.048
L148.959 272.154
L150.566 272.916
L150.924 273.669
L151.013 273.679
L151.191 274.325
L151.459 274.903
L151.816 275.177
L152.263 276.271
L152.441 276.337
L152.709 276.417
L152.888 276.5
L153.066 276.587
L153.156 276.59
L153.334 276.87
L154.048 276.985
L154.495 278.014
L155.03 280.353
L155.477 280.821
L155.923 281.19
L156.191 281.192
L156.459 281.459
L157.62 281.673
L157.798 281.958
L158.155 282.124
L158.334 282.339
L158.423 282.339
L158.602 282.882
L158.691 282.936
L158.869 283.178
L159.316 283.608
L159.494 284.009
L160.834 284.239
L161.191 284.453
L161.459 284.864
L161.637 285.619
L161.816 285.72
L161.994 286.012
L162.173 286.091
L162.351 286.212
L163.066 287.27
L163.869 287.395
L164.583 287.469
L164.94 287.597
L165.119 287.885
L165.208 287.991
L165.476 288.762
L165.565 288.762
L165.833 289.056
L165.923 289.081
L166.19 289.428
L166.369 289.505
L166.815 290.108
L167.53 290.21
L167.797 290.293
L168.333 290.377
L168.69 290.832
L168.869 291.223
L169.404 292.094
L169.583 292.121
L169.762 292.679
L170.297 293.067
L171.012 293.232
L171.904 293.349
L172.172 293.711
L172.529 293.967
L173.511 294.991
L173.69 295.199
L175.029 295.585
L175.476 295.611
L175.922 296.27
L177.083 297.382
L177.261 297.647
L177.797 297.678
L178.065 297.924
L179.225 298.236
L179.493 298.473
L179.672 298.54
L180.207 299.141
L180.297 299.141
L180.475 299.427
L180.654 299.548
L180.743 299.613
L180.922 299.855
L181.457 299.986
L181.725 300.089
L182.529 300.308
L182.796 300.744
L182.886 300.744
L183.064 300.909
L183.154 301.004
L183.332 301.431
L184.046 302.089
L184.582 302.325
L184.761 302.434
L185.118 302.53
L185.564 302.67
L185.921 302.931
L186.1 302.937
L186.636 303.456
L186.814 303.59
L186.993 304.178
L187.082 304.203
L187.26 304.559
L187.439 304.618
L187.618 305.593
L187.796 305.649
L188.064 305.866
L188.778 305.917
L189.046 306.078
L189.403 306.224
L189.76 306.335
L190.296 307.447
L190.385 307.447
L191.546 308.906
L192.26 309.005
L193.153 309.241
L193.332 309.387
L193.51 309.412
L193.867 309.897
L194.581 310.468
L194.76 310.773
L194.849 310.775
L195.028 311.016
L195.206 311.441
L196.278 311.517
L196.724 311.635
L197.081 311.747
L197.617 312.818
L199.045 313.886
L200.474 314.106
L200.742 314.394
L201.635 315.669
L201.813 315.771
L201.992 315.92
L202.17 316.169
L202.884 316.234
L203.956 316.34
L204.224 316.388
L204.581 316.771
L205.116 316.817
L205.295 316.99
L205.652 317.038
L205.831 317.239
L206.545 317.339
L206.813 317.4
L207.616 317.482
L208.241 318.292
L208.42 318.58
L208.866 319.065
L209.134 319.325
L209.313 319.455
L211.188 319.746
L211.366 320.023
L212.08 320.571
L212.259 320.905
L212.437 321.002
L212.616 321.315
L212.705 321.315
L212.884 321.589
L213.598 321.69
L214.044 321.725
L214.58 321.828
L215.027 321.942
L215.384 322.138
L215.562 322.415
L216.276 323.016
L217.348 323.363
L218.687 323.627
L218.866 324.147
L219.758 324.752
L220.383 324.882
L221.901 324.975
L222.258 325.259
L222.526 325.365
L222.794 325.827
L223.062 325.93
L223.24 326.261
L223.508 326.307
L223.687 326.423
L224.401 326.496
L224.58 326.601
L225.294 326.666
L225.651 326.882
L226.097 327.136
L226.454 327.687
L226.544 327.693
L226.722 328.076
L226.901 328.076
L227.258 328.372
L227.615 328.467
L228.061 328.613
L229.044 328.635
L229.311 328.914
L229.49 329.022
L229.847 329.191
L230.115 329.412
L230.383 329.882
L230.472 329.909
L230.651 330.101
L231.008 330.192
L231.186 330.294
L232.347 330.407
L233.061 330.462
L233.24 330.71
L233.508 331
L233.597 331.005
L233.775 331.198
L233.954 331.29
L234.222 331.497
L235.65 331.625
L236.007 331.662
L236.186 331.67
L236.364 332.057
L236.454 332.066
L236.632 332.378
L237.436 333.234
L237.972 333.375
L238.775 333.485
L239.043 333.579
L239.846 333.674
L240.293 334.339
L240.382 334.367
L240.561 334.618
L241.632 335.415
L243.418 335.651
L243.775 335.853
L243.953 336.187
L244.489 336.39
L244.846 336.474
L245.025 336.645
L245.203 336.761
L246.9 336.845
L247.167 337.156
L247.882 337.296
L248.06 337.53
L248.417 337.617
L248.596 337.948
L248.864 338.091
L250.56 338.202
L251.096 338.419
L251.542 338.945
L251.81 339.011
L251.988 339.263
L252.167 339.359
L253.238 339.465
L253.417 339.572
L254.042 339.686
L254.399 339.87
L254.935 340.098
L255.203 340.135
L255.47 340.434
L255.917 340.478
L257.792 340.588
L257.97 340.66
L258.238 340.923
L258.327 340.928
L258.774 341.662
L259.042 341.735
L259.309 341.94
L259.934 342.008
L261.899 342.228
L262.077 342.449
L262.256 342.711
L262.613 342.96
L262.791 343.021
L263.059 343.082
L264.666 343.167
L264.934 343.309
L265.113 343.379
L265.47 343.744
L265.738 343.812
L266.184 343.891
L266.452 344.115
L268.059 344.213
L268.862 344.629
L269.309 344.981
L269.755 345.098
L270.202 345.369
L271.898 345.429
L272.523 345.808
L272.969 345.932
L273.326 346.216
L273.594 346.585
L274.041 346.614
L275.558 346.724
L276.005 346.843
L276.183 347.098
L276.987 347.592
L277.165 347.592
L277.344 347.753
L279.397 347.823
L279.933 348.217
L280.112 348.52
L280.38 348.59
L280.826 348.863
L281.719 348.907
L281.987 349.065
L282.969 349.143
L283.147 349.462
L284.219 350.285
L284.486 350.337
L286.272 350.376
L286.451 350.55
L287.165 350.607
L287.343 350.798
L287.879 350.9
L290.022 351.012
L290.468 351.445
L290.736 351.547
L291.004 351.681
L291.361 351.893
L291.54 352.017
L292.432 352.066
L292.7 352.18
L293.504 352.284
L293.682 352.462
L293.861 352.565
L294.754 352.761
L295.021 352.827
L295.2 352.927
L296.718 353
L297.164 353.146
L297.432 353.222
L297.878 353.521
L297.968 353.548
L298.146 353.742
L298.503 353.86
L298.771 353.943
L299.753 354.048
L301.36 354.402
L301.628 354.473
L303.503 354.685
L304.485 354.842
L304.842 355.236
L306.628 355.344
L308.056 355.543
L308.324 355.667
L308.86 355.717
L309.128 355.998
L309.306 356.101
L309.663 356.172
L311.806 356.523
L311.985 356.696
L312.788 356.803
L313.056 356.869
L314.752 356.973
L315.02 357.056
L316.181 357.162
L317.52 357.229
L318.591 357.331
L318.77 357.514
L318.948 357.589
L319.395 357.665
L319.663 357.793
L320.02 357.818
L320.198 357.928
L321.895 357.973
L322.163 358.106
L322.52 358.189
L322.788 358.308
L323.591 358.423
L323.948 358.457
L325.823 358.53
L326.002 358.634
L326.091 358.634
L326.269 358.753
L326.537 358.823
L326.984 359.179
L329.126 359.246
L329.305 359.323
L329.662 359.404
L330.108 359.483
L332.608 359.587
L332.876 359.797
L333.233 359.802
L333.501 360.079
L334.215 360.104
L334.394 360.21
L337.072 360.421
L337.429 360.589
L338.769 360.711
L340.644 360.852
L341.001 360.887
L342.34 360.993
L343.679 361.108
L346.536 361.281
L346.893 361.331
L347.786 361.437
L348.054 361.496
L348.768 361.605
L354.214 361.821
L355.643 361.857
L355.821 361.955
L358.5 361.999
L358.678 362.087
L361.178 362.144
L361.356 362.242
L362.071 362.291
L362.339 362.437
L365.106 362.49
L365.285 362.625
L366.267 362.643
L366.445 362.754
L368.588 362.838
L369.035 362.878
L369.66 362.907
L369.838 363.003
L372.695 363.101
L372.874 363.229
L375.463 363.325
L375.641 363.412
L377.159 363.499
L377.427 363.55
L379.034 363.565
L379.212 363.668
L379.837 363.746
L380.105 363.905
L386.355 364.029
L386.533 364.118
L388.498 364.238
L388.676 364.344
L393.497 364.43
L393.854 364.466
L398.14 364.58
L398.318 364.666
L400.104 364.777
L407.246 364.847
L407.425 364.952
L407.604 365.017
L407.782 365.117
L410.103 365.217
L410.639 365.24
L414.924 365.338
L415.103 365.432
L418.406 365.51
L418.764 365.688
L422.424 365.773
L422.692 365.835
L431.62 365.928
L431.888 365.98
L436.53 366.039
L436.798 366.098
L443.048 366.181
L443.316 366.228
L462.868 366.483
L476.26 366.542
L476.438 366.643
L518.311 366.732
L518.311 366.732" style="fill:none;stroke:#00bfbf;stroke-dasharray:5.000000,1.000000,2.000000,1.000000,5.000000,1.000000;stroke-dashoffset:0.0;"/>
   </g>
   <g id="line2d_5">
    <path clip-path="url(#p7ff5b81e1d)" d="
M72 65.7877
L72.2678 88.85
L72.625 102.882
L73.0714 113.68
L73.7856 126.071
L74.5891 133.053
L75.4819 139.988
L75.9283 155.106
L76.5533 171.417
L77.2675 185.529
L79.0531 189.858
L80.1245 207.692
L80.928 218.27
L81.7315 219.122
L82.6243 220.329
L84.4099 240.493
L84.5885 240.544
L85.0349 240.972
L85.2134 241.087
L86.1955 241.96
L87.0883 250.896
L87.2669 252.168
L88.0704 258.582
L88.4275 258.682
L89.0525 259.194
L89.7667 259.595
L90.0346 261.6
L90.3917 264.446
L91.2845 270.729
L91.6416 272.198
L93.3379 272.984
L93.8736 276.358
L95.2128 283.405
L96.1949 283.738
L96.9091 283.857
L98.6947 290.745
L99.0518 290.827
L99.3197 290.927
L100.302 291.121
L100.48 291.19
L101.016 293.16
L101.284 293.96
L101.552 294.84
L101.82 295.693
L102.087 296.484
L102.355 297.026
L103.427 297.142
L104.052 297.192
L105.034 299.404
L105.837 301.149
L106.284 301.326
L107.623 301.518
L108.158 302.402
L108.516 303.126
L109.14 304.362
L109.587 304.589
L110.837 304.691
L111.462 305.15
L112.98 307.332
L114.765 307.47
L115.122 307.951
L115.212 308
L115.479 308.381
L116.283 309.041
L116.461 309.162
L116.64 309.278
L118.336 309.384
L119.051 310.01
L119.497 310.335
L119.943 310.773
L120.211 311.061
L121.908 311.123
L122.711 311.703
L123.247 311.919
L123.604 312.055
L124.05 312.177
L125.747 312.272
L126.193 312.469
L126.55 312.589
L127.086 312.745
L127.532 312.804
L129.228 312.873
L129.586 313.015
L129.943 313.106
L130.211 313.239
L130.836 313.457
L132.978 313.599
L133.335 313.74
L134.05 313.844
L134.675 313.972
L136.371 314.041
L136.817 314.158
L137.799 314.262
L138.603 314.37
L141.013 314.48
L147.977 315.174
L148.781 315.372
L151.281 315.482
L151.995 315.541
L153.423 315.602
L155.12 315.703
L156.28 315.735
L160.119 315.836
L161.369 315.888
L162.441 315.98
L162.976 316.058
L165.655 316.146
L166.19 316.197
L169.315 316.306
L171.19 316.418
L173.422 316.528
L174.493 316.574
L176.19 316.657
L176.547 316.697
L180.922 316.821
L181.279 316.854
L186.546 316.93
L186.814 316.971
L191.457 317.092
L192.082 317.146
L194.492 317.242
L194.849 317.313
L196.188 317.38
L196.456 317.424
L198.778 317.53
L200.028 317.541
L201.545 317.633
L202.081 317.657
L208.509 317.778
L208.956 317.816
L223.508 318.048
L223.865 318.077
L229.668 318.165
L230.115 318.227
L231.811 318.323
L232.436 318.342
L233.418 318.431
L233.775 318.493
L238.15 318.595
L245.828 318.7
L246.185 318.734
L248.417 318.841
L248.774 318.876
L252.256 318.974
L252.792 319.013
L258.327 319.119
L259.22 319.19
L262.434 319.29
L263.773 319.372
L270.023 319.483
L271.719 319.546
L273.684 319.621
L274.041 319.699
L277.523 319.776
L277.79 319.837
L290.557 319.951
L290.825 320.013
L297.789 320.1
L298.325 320.144
L305.11 320.244
L305.556 320.347
L308.681 320.455
L310.824 320.508
L323.502 320.616
L325.02 320.687
L334.483 320.779
L335.019 320.85
L339.751 320.955
L340.376 320.972
L348.054 321.082
L350.018 321.152
L356.535 321.257
L356.892 321.29
L362.249 321.401
L362.874 321.447
L367.785 321.528
L368.052 321.59
L373.677 321.695
L374.481 321.732
L376.802 321.737
L380.998 321.833
L381.712 321.882
L385.016 322.013
L386.087 322.15
L398.676 322.245
L399.033 322.36
L409.032 322.696
L413.942 322.767
L414.21 322.83
L443.405 323.564
L443.673 323.621
L446.083 323.655
L446.262 323.758
L447.155 323.77
L460.457 323.929
L461.439 323.987
L471.082 324.09
L471.528 324.117
L481.974 324.227
L482.42 324.253
L489.384 324.36
L490.545 324.405
L492.42 324.508
L493.223 324.529
L496.348 324.623
L497.151 324.766
L503.49 324.87
L504.919 324.909
L510.454 325.015
L510.9 325.039
L518.311 325.16
L518.311 325.16" style="fill:none;stroke:#bf00bf;stroke-linecap:square;"/>
   </g>
   <g id="matplotlib.axis_1">
    <g id="xtick_1">
     <g id="line2d_6">
      <defs>
       <path d="
M0 0
L0 -4" id="mc7db9fdffb" style="stroke:#000000;stroke-width:0.5;"/>
      </defs>
      <g>
       <use style="stroke:#000000;stroke-width:0.5;" x="72.0" xlink:href="#mc7db9fdffb" y="388.8"/>
      </g>
     </g>
     <g id="line2d_7">
      <defs>
       <path d="
M0 0
L0 4" id="m5a7d422ac3" style="stroke:#000000;stroke-width:0.5;"/>
      </defs>
      <g>
       <use style="stroke:#000000;stroke-width:0.5;" x="72.0" xlink:href="#m5a7d422ac3" y="43.2"/>
      </g>
     </g>
     <g id="text_1">
      <!-- 0 -->
      <defs>
       <path d="
M56.9844 36.375
Q56.9844 16.7969 50.8594 7.64062
Q44.7344 -1.51562 31.8438 -1.51562
Q18.75 -1.51562 12.7188 7.76562
Q6.6875 17.0469 6.6875 36.2812
Q6.6875 55.6719 12.7812 64.9219
Q18.8906 74.1719 31.8438 74.1719
Q44.9219 74.1719 50.9531 64.7656
Q56.9844 55.375 56.9844 36.375
M44.1406 14.2031
Q45.8438 18.1719 46.4531 23.5156
Q47.0781 28.8594 47.0781 36.375
Q47.0781 43.7969 46.4531 49.2656
Q45.8438 54.7344 44.0938 58.5469
Q42.3906 62.3125 39.4219 64.2031
Q36.4688 66.1094 31.8438 66.1094
Q27.25 66.1094 24.2344 64.2031
Q21.2344 62.3125 19.4844 58.4531
Q17.8281 54.8281 17.2188 49.0156
Q16.6094 43.2188 16.6094 36.2812
Q16.6094 28.6562 17.1406 23.5312
Q17.6719 18.4062 19.4375 14.3594
Q21.0469 10.5469 24 8.54688
Q26.9531 6.54688 31.8438 6.54688
Q36.4219 6.54688 39.4531 8.45312
Q42.4844 10.3594 44.1406 14.2031" id="Verdana-30"/>
      </defs>
      <g transform="translate(68.9821875 401.918125)scale(0.12 -0.12)">
       <use xlink:href="#Verdana-30"/>
      </g>
     </g>
    </g>
    <g id="xtick_2">
     <g id="line2d_8">
      <g>
       <use style="stroke:#000000;stroke-width:0.5;" x="161.28" xlink:href="#mc7db9fdffb" y="388.8"/>
      </g>
     </g>
     <g id="line2d_9">
      <g>
       <use style="stroke:#000000;stroke-width:0.5;" x="161.28" xlink:href="#m5a7d422ac3" y="43.2"/>
      </g>
     </g>
     <g id="text_2">
      <!-- 1000 -->
      <defs>
       <path d="
M52.9375 0
L13.5781 0
L13.5781 7.42188
L28.7188 7.42188
L28.7188 56.1562
L13.5781 56.1562
L13.5781 62.7969
Q16.6562 62.7969 20.1719 63.2969
Q23.6875 63.8125 25.4844 64.7969
Q27.7344 66.0156 29.0312 67.8906
Q30.3281 69.7812 30.5156 72.9531
L38.0938 72.9531
L38.0938 7.42188
L52.9375 7.42188
z
" id="Verdana-31"/>
      </defs>
      <g transform="translate(147.2315625 401.918125)scale(0.12 -0.12)">
       <use xlink:href="#Verdana-31"/>
       <use x="63.57421875" xlink:href="#Verdana-30"/>
       <use x="127.1484375" xlink:href="#Verdana-30"/>
       <use x="190.72265625" xlink:href="#Verdana-30"/>
      </g>
     </g>
    </g>
    <g id="xtick_3">
     <g id="line2d_10">
      <g>
       <use style="stroke:#000000;stroke-width:0.5;" x="250.56" xlink:href="#mc7db9fdffb" y="388.8"/>
      </g>
     </g>
     <g id="line2d_11">
      <g>
       <use style="stroke:#000000;stroke-width:0.5;" x="250.56" xlink:href="#m5a7d422ac3" y="43.2"/>
      </g>
     </g>
     <g id="text_3">
      <!-- 2000 -->
      <defs>
       <path d="
M57.0781 0
L7.85938 0
L7.85938 10.2031
Q12.9844 14.5938 18.1406 18.9844
Q23.2969 23.3906 27.7344 27.7344
Q37.1094 36.8125 40.5781 42.1562
Q44.0469 47.5156 44.0469 53.7188
Q44.0469 59.375 40.3125 62.5625
Q36.5781 65.7656 29.8906 65.7656
Q25.4375 65.7656 20.2656 64.2031
Q15.0938 62.6406 10.1562 59.4219
L9.67188 59.4219
L9.67188 69.6719
Q13.1406 71.3906 18.9219 72.7969
Q24.7031 74.2188 30.125 74.2188
Q41.3125 74.2188 47.6562 68.8125
Q54 63.4219 54 54.2031
Q54 50.0469 52.9531 46.4531
Q51.9062 42.875 49.8594 39.6562
Q47.9531 36.625 45.3906 33.6875
Q42.8281 30.7656 39.1562 27.2031
Q33.9375 22.0781 28.3594 17.2656
Q22.7969 12.4531 17.9688 8.34375
L57.0781 8.34375
z
" id="Verdana-32"/>
      </defs>
      <g transform="translate(236.1684375 401.918125)scale(0.12 -0.12)">
       <use xlink:href="#Verdana-32"/>
       <use x="63.57421875" xlink:href="#Verdana-30"/>
       <use x="127.1484375" xlink:href="#Verdana-30"/>
       <use x="190.72265625" xlink:href="#Verdana-30"/>
      </g>
     </g>
    </g>
    <g id="xtick_4">
     <g id="line2d_12">
      <g>
       <use style="stroke:#000000;stroke-width:0.5;" x="339.84" xlink:href="#mc7db9fdffb" y="388.8"/>
      </g>
     </g>
     <g id="line2d_13">
      <g>
       <use style="stroke:#000000;stroke-width:0.5;" x="339.84" xlink:href="#m5a7d422ac3" y="43.2"/>
      </g>
     </g>
     <g id="text_4">
      <!-- 3000 -->
      <defs>
       <path d="
M50.6875 35.0156
Q53.0312 32.9062 54.5469 29.7344
Q56.0625 26.5625 56.0625 21.5312
Q56.0625 16.5469 54.25 12.3906
Q52.4375 8.25 49.1719 5.17188
Q45.5156 1.76562 40.5469 0.125
Q35.5938 -1.51562 29.6875 -1.51562
Q23.6406 -1.51562 17.7812 -0.0625
Q11.9219 1.375 8.15625 3.07812
L8.15625 13.2812
L8.89062 13.2812
Q13.0312 10.5469 18.6406 8.73438
Q24.2656 6.9375 29.5 6.9375
Q32.5625 6.9375 36.0312 7.95312
Q39.5 8.98438 41.6562 10.9844
Q43.8906 13.1406 44.9844 15.7188
Q46.0938 18.3125 46.0938 22.2656
Q46.0938 26.1719 44.8438 28.7344
Q43.6094 31.2969 41.4062 32.7656
Q39.2031 34.2812 36.0781 34.8438
Q32.9531 35.4062 29.3438 35.4062
L24.9531 35.4062
L24.9531 43.5
L28.375 43.5
Q35.7969 43.5 40.2031 46.5938
Q44.625 49.7031 44.625 55.6719
Q44.625 58.2969 43.5 60.2656
Q42.3906 62.25 40.375 63.5312
Q38.2812 64.7969 35.8906 65.2812
Q33.5 65.7656 30.4688 65.7656
Q25.8281 65.7656 20.5938 64.1094
Q15.375 62.4531 10.75 59.4219
L10.25 59.4219
L10.25 69.625
Q13.7188 71.3438 19.5 72.7812
Q25.2969 74.2188 30.7188 74.2188
Q36.0312 74.2188 40.0781 73.2344
Q44.1406 72.2656 47.4062 70.125
Q50.9219 67.7812 52.7344 64.4531
Q54.5469 61.1406 54.5469 56.6875
Q54.5469 50.6406 50.2656 46.125
Q46 41.6094 40.1875 40.4375
L40.1875 39.75
Q42.5312 39.3594 45.5469 38.1094
Q48.5781 36.8594 50.6875 35.0156" id="Verdana-33"/>
      </defs>
      <g transform="translate(325.46625 401.918125)scale(0.12 -0.12)">
       <use xlink:href="#Verdana-33"/>
       <use x="63.57421875" xlink:href="#Verdana-30"/>
       <use x="127.1484375" xlink:href="#Verdana-30"/>
       <use x="190.72265625" xlink:href="#Verdana-30"/>
      </g>
     </g>
    </g>
    <g id="xtick_5">
     <g id="line2d_14">
      <g>
       <use style="stroke:#000000;stroke-width:0.5;" x="429.12" xlink:href="#mc7db9fdffb" y="388.8"/>
      </g>
     </g>
     <g id="line2d_15">
      <g>
       <use style="stroke:#000000;stroke-width:0.5;" x="429.12" xlink:href="#m5a7d422ac3" y="43.2"/>
      </g>
     </g>
     <g id="text_5">
      <!-- 4000 -->
      <defs>
       <path d="
M58.7344 20.4531
L47.9531 20.4531
L47.9531 0
L38.5781 0
L38.5781 20.4531
L3.76562 20.4531
L3.76562 31.6875
L38.9688 72.7031
L47.9531 72.7031
L47.9531 28.2656
L58.7344 28.2656
z

M38.5781 28.2656
L38.5781 61.0781
L10.4062 28.2656
z
" id="Verdana-34"/>
      </defs>
      <g transform="translate(414.4828125 401.918125)scale(0.12 -0.12)">
       <use xlink:href="#Verdana-34"/>
       <use x="63.57421875" xlink:href="#Verdana-30"/>
       <use x="127.1484375" xlink:href="#Verdana-30"/>
       <use x="190.72265625" xlink:href="#Verdana-30"/>
      </g>
     </g>
    </g>
    <g id="xtick_6">
     <g id="line2d_16">
      <g>
       <use style="stroke:#000000;stroke-width:0.5;" x="518.4" xlink:href="#mc7db9fdffb" y="388.8"/>
      </g>
     </g>
     <g id="line2d_17">
      <g>
       <use style="stroke:#000000;stroke-width:0.5;" x="518.4" xlink:href="#m5a7d422ac3" y="43.2"/>
      </g>
     </g>
     <g id="text_6">
      <!-- 5000 -->
      <defs>
       <path d="
M56.5 23.0938
Q56.5 18.0156 54.6406 13.375
Q52.7812 8.73438 49.5625 5.5625
Q46.0469 2.15625 41.1875 0.3125
Q36.3281 -1.51562 29.9375 -1.51562
Q23.9688 -1.51562 18.4531 -0.265625
Q12.9375 0.984375 9.125 2.73438
L9.125 13.0312
L9.8125 13.0312
Q13.8125 10.5 19.1875 8.71875
Q24.5625 6.9375 29.7344 6.9375
Q33.2031 6.9375 36.4531 7.90625
Q39.7031 8.89062 42.2344 11.3281
Q44.3906 13.4219 45.4844 16.3438
Q46.5781 19.2812 46.5781 23.1406
Q46.5781 26.9062 45.2812 29.4844
Q44 32.0781 41.7031 33.6406
Q39.1562 35.5 35.5156 36.25
Q31.8906 37.0156 27.3906 37.0156
Q23.0938 37.0156 19.1094 36.4219
Q15.1406 35.8438 12.25 35.25
L12.25 72.7031
L56 72.7031
L56 64.1562
L21.6875 64.1562
L21.6875 44.8281
Q23.7812 45.0156 25.9688 45.1094
Q28.1719 45.2188 29.7812 45.2188
Q35.6875 45.2188 40.125 44.2188
Q44.5781 43.2188 48.2969 40.6719
Q52.2031 37.9844 54.3438 33.7344
Q56.5 29.5 56.5 23.0938" id="Verdana-35"/>
      </defs>
      <g transform="translate(504.084375 401.918125)scale(0.12 -0.12)">
       <use xlink:href="#Verdana-35"/>
       <use x="63.57421875" xlink:href="#Verdana-30"/>
       <use x="127.1484375" xlink:href="#Verdana-30"/>
       <use x="190.72265625" xlink:href="#Verdana-30"/>
      </g>
     </g>
    </g>
    <g id="text_7">
     <!-- Objective function exectuions -->
     <defs>
      <path d="
M57.0312 27.6875
Q57.0312 20.8438 55.0938 15.375
Q53.1719 9.90625 49.9062 6.20312
Q46.4375 2.34375 42.2812 0.40625
Q38.1406 -1.51562 33.1562 -1.51562
Q28.5156 -1.51562 25.0469 -0.40625
Q21.5781 0.6875 18.2188 2.54688
L17.625 0
L9.03125 0
L9.03125 75.9844
L18.2188 75.9844
L18.2188 48.8281
Q22.0781 52 26.4219 54.0312
Q30.7656 56.0625 36.1875 56.0625
Q45.8438 56.0625 51.4375 48.6406
Q57.0312 41.2188 57.0312 27.6875
M47.5625 27.4375
Q47.5625 37.2031 44.3281 42.25
Q41.1094 47.3125 33.9375 47.3125
Q29.9375 47.3125 25.8281 45.5781
Q21.7344 43.8438 18.2188 41.1094
L18.2188 9.85938
Q22.125 8.10938 24.9219 7.42188
Q27.7344 6.73438 31.2969 6.73438
Q38.9219 6.73438 43.2344 11.7344
Q47.5625 16.75 47.5625 27.4375" id="Verdana-62"/>
      <path d="
M56.2031 54.5469
L34.125 0
L24.9062 0
L2.98438 54.5469
L12.9375 54.5469
L29.8281 11.1406
L46.5781 54.5469
z
" id="Verdana-76"/>
      <path d="
M56.25 0
L44.6719 0
L29.2031 20.9531
L13.625 0
L2.9375 0
L24.2188 27.2031
L3.125 54.5469
L14.7031 54.5469
L30.0781 33.9375
L45.5156 54.5469
L56.25 54.5469
L34.8125 27.6875
z
" id="Verdana-78"/>
      <path d="
M54.6875 26.3125
L14.5 26.3125
Q14.5 21.2969 16.0156 17.5469
Q17.5312 13.8125 20.1719 11.4219
Q22.7031 9.07812 26.1875 7.90625
Q29.6875 6.73438 33.8906 6.73438
Q39.4531 6.73438 45.0938 8.95312
Q50.7344 11.1875 53.125 13.3281
L53.6094 13.3281
L53.6094 3.32812
Q48.9688 1.375 44.1406 0.046875
Q39.3125 -1.26562 33.9844 -1.26562
Q20.4062 -1.26562 12.7812 6.07812
Q5.17188 13.4219 5.17188 26.9531
Q5.17188 40.3281 12.4688 48.1875
Q19.7812 56.0625 31.6875 56.0625
Q42.7188 56.0625 48.7031 49.6094
Q54.6875 43.1719 54.6875 31.2969
z

M45.75 33.3438
Q45.7031 40.5781 42.1094 44.5312
Q38.5312 48.4844 31.2031 48.4844
Q23.8281 48.4844 19.4531 44.1406
Q15.0938 39.7969 14.5 33.3438
z
" id="Verdana-65"/>
      <path d="
M49.3594 3.42188
Q44.7812 1.21875 40.6562 0
Q36.5312 -1.21875 31.8906 -1.21875
Q25.9844 -1.21875 21.0469 0.515625
Q16.1094 2.25 12.5938 5.76562
Q9.03125 9.28125 7.07812 14.6406
Q5.125 20.0156 5.125 27.2031
Q5.125 40.5781 12.4688 48.1875
Q19.8281 55.8125 31.8906 55.8125
Q36.5781 55.8125 41.0938 54.4844
Q45.6094 53.1719 49.3594 51.2656
L49.3594 41.0625
L48.875 41.0625
Q44.6719 44.3438 40.2031 46.0938
Q35.75 47.8594 31.5 47.8594
Q23.6875 47.8594 19.1719 42.6094
Q14.6562 37.3594 14.6562 27.2031
Q14.6562 17.3281 19.0625 12.0312
Q23.4844 6.73438 31.5 6.73438
Q34.2812 6.73438 37.1562 7.46875
Q40.0469 8.20312 42.3281 9.375
Q44.3438 10.4062 46.0938 11.5469
Q47.8594 12.7031 48.875 13.5312
L49.3594 13.5312
z
" id="Verdana-63"/>
      <path d="
M26.0312 63.6719
L15.6719 63.6719
L15.6719 73.1875
L26.0312 73.1875
z

M25.4375 -1.3125
Q25.4375 -10.8906 20.5469 -15.7656
Q15.6719 -20.6562 7.46875 -20.6562
Q5.51562 -20.6562 2.3125 -20.2656
Q-0.875 -19.875 -3.03125 -19.2812
L-3.03125 -10.5469
L-2.54688 -10.5469
Q-1.17188 -11.0781 1.14062 -11.7656
Q3.46875 -12.4531 5.67188 -12.4531
Q9.1875 -12.4531 11.3281 -11.4688
Q13.4844 -10.5 14.5469 -8.54688
Q15.625 -6.59375 15.9375 -3.82812
Q16.2656 -1.07812 16.2656 2.875
L16.2656 46.8281
L4.89062 46.8281
L4.89062 54.5469
L25.4375 54.5469
z
" id="Verdana-6a"/>
      <path d="
M18.8906 63.6719
L8.54688 63.6719
L8.54688 73.1875
L18.8906 73.1875
z

M18.3125 0
L9.125 0
L9.125 54.5469
L18.3125 54.5469
z
" id="Verdana-69"/>
      <path d="
M54.6406 0
L45.4531 0
L45.4531 31.0625
Q45.4531 34.8125 45.0156 38.1094
Q44.5781 41.4062 43.4062 43.2656
Q42.1875 45.3125 39.8906 46.3125
Q37.5938 47.3125 33.9375 47.3125
Q30.1719 47.3125 26.0625 45.4531
Q21.9688 43.6094 18.2188 40.7188
L18.2188 0
L9.03125 0
L9.03125 54.5469
L18.2188 54.5469
L18.2188 48.4844
Q22.5156 52.0469 27.0938 54.0469
Q31.6875 56.0625 36.5312 56.0625
Q45.3594 56.0625 50 50.7344
Q54.6406 45.4062 54.6406 35.4062
z
" id="Verdana-6e"/>
      <path d="
M48 15.7188
Q48 8.25 41.8125 3.46875
Q35.6406 -1.3125 24.9531 -1.3125
Q18.8906 -1.3125 13.8438 0.125
Q8.79688 1.5625 5.375 3.26562
L5.375 13.5781
L5.85938 13.5781
Q10.2031 10.2969 15.5156 8.375
Q20.8438 6.45312 25.7344 6.45312
Q31.7812 6.45312 35.2031 8.40625
Q38.625 10.3594 38.625 14.5469
Q38.625 17.7812 36.7656 19.4375
Q34.9062 21.0938 29.6406 22.2656
Q27.6875 22.7031 24.5312 23.2812
Q21.3906 23.875 18.7969 24.5625
Q11.625 26.4688 8.60938 30.1562
Q5.60938 33.8438 5.60938 39.2031
Q5.60938 42.5781 7 45.5469
Q8.40625 48.5312 11.2344 50.875
Q13.9688 53.1719 18.1875 54.5156
Q22.4062 55.8594 27.6406 55.8594
Q32.5156 55.8594 37.5156 54.6562
Q42.5312 53.4688 45.8438 51.7656
L45.8438 41.9375
L45.3594 41.9375
Q41.8438 44.5312 36.8125 46.3125
Q31.7812 48.0938 26.9531 48.0938
Q21.9219 48.0938 18.4531 46.1562
Q14.9844 44.2344 14.9844 40.4375
Q14.9844 37.0625 17.0938 35.3594
Q19.1406 33.6406 23.7344 32.5625
Q26.2656 31.9844 29.4062 31.3906
Q32.5625 30.8125 34.6719 30.3281
Q41.0625 28.8594 44.5312 25.2969
Q48 21.6875 48 15.7188" id="Verdana-73"/>
      <path d="
M38.375 67.0938
L37.8906 67.0938
Q36.375 67.5312 33.9375 67.9844
Q31.5 68.4531 29.6406 68.4531
Q23.7344 68.4531 21.0625 65.8438
Q18.4062 63.2344 18.4062 56.3906
L18.4062 54.5469
L34.9688 54.5469
L34.9688 46.8281
L18.7031 46.8281
L18.7031 0
L9.51562 0
L9.51562 46.8281
L3.32812 46.8281
L3.32812 54.5469
L9.51562 54.5469
L9.51562 56.3438
Q9.51562 66.0625 14.3438 71.2656
Q19.1875 76.4688 28.3281 76.4688
Q31.3906 76.4688 33.8594 76.1719
Q36.3281 75.875 38.375 75.4844
z
" id="Verdana-66"/>
      <path id="Verdana-20"/>
      <path d="
M63.9688 64.3594
Q68.4062 59.4688 70.7656 52.3906
Q73.1406 45.3125 73.1406 36.3281
Q73.1406 27.3438 70.7188 20.2344
Q68.3125 13.1406 63.9688 8.40625
Q59.4688 3.46875 53.3438 0.96875
Q47.2188 -1.51562 39.3594 -1.51562
Q31.6875 -1.51562 25.4062 1.01562
Q19.1406 3.5625 14.75 8.40625
Q10.3594 13.2344 7.98438 20.2656
Q5.60938 27.2969 5.60938 36.3281
Q5.60938 45.2188 7.95312 52.2656
Q10.2969 59.3281 14.7969 64.3594
Q19.0938 69.1406 25.4688 71.6719
Q31.8438 74.2188 39.3594 74.2188
Q47.1719 74.2188 53.3906 71.6562
Q59.625 69.0938 63.9688 64.3594
M63.0938 36.3281
Q63.0938 50.4844 56.7344 58.1719
Q50.3906 65.875 39.4062 65.875
Q28.3281 65.875 22 58.1719
Q15.6719 50.4844 15.6719 36.3281
Q15.6719 22.0156 22.1094 14.4219
Q28.5625 6.84375 39.4062 6.84375
Q50.25 6.84375 56.6719 14.4219
Q63.0938 22.0156 63.0938 36.3281" id="Verdana-4f"/>
      <path d="
M55.5156 27.25
Q55.5156 13.9219 48.6719 6.20312
Q41.8438 -1.51562 30.375 -1.51562
Q18.7969 -1.51562 11.9844 6.20312
Q5.17188 13.9219 5.17188 27.25
Q5.17188 40.5781 11.9844 48.3125
Q18.7969 56.0625 30.375 56.0625
Q41.8438 56.0625 48.6719 48.3125
Q55.5156 40.5781 55.5156 27.25
M46.0469 27.25
Q46.0469 37.8438 41.8906 42.9844
Q37.75 48.1406 30.375 48.1406
Q22.9062 48.1406 18.7812 42.9844
Q14.6562 37.8438 14.6562 27.25
Q14.6562 17 18.7969 11.6875
Q22.9531 6.39062 30.375 6.39062
Q37.7031 6.39062 41.875 11.6406
Q46.0469 16.8906 46.0469 27.25" id="Verdana-6f"/>
      <path d="
M37.3594 0.484375
Q34.7656 -0.203125 31.7031 -0.640625
Q28.6562 -1.07812 26.2656 -1.07812
Q17.9219 -1.07812 13.5781 3.40625
Q9.23438 7.90625 9.23438 17.8281
L9.23438 46.8281
L3.03125 46.8281
L3.03125 54.5469
L9.23438 54.5469
L9.23438 70.2188
L18.4062 70.2188
L18.4062 54.5469
L37.3594 54.5469
L37.3594 46.8281
L18.4062 46.8281
L18.4062 21.9688
Q18.4062 17.6719 18.5938 15.25
Q18.7969 12.8438 19.9688 10.75
Q21.0469 8.79688 22.9219 7.89062
Q24.8125 6.98438 28.6562 6.98438
Q30.9062 6.98438 33.3438 7.64062
Q35.7969 8.29688 36.8594 8.73438
L37.3594 8.73438
z
" id="Verdana-74"/>
      <path d="
M54.25 0
L45.0625 0
L45.0625 6.0625
Q40.4375 2.39062 36.1875 0.4375
Q31.9375 -1.51562 26.8125 -1.51562
Q18.2188 -1.51562 13.4219 3.73438
Q8.64062 8.98438 8.64062 19.1406
L8.64062 54.5469
L17.8281 54.5469
L17.8281 23.4844
Q17.8281 19.3438 18.2188 16.375
Q18.6094 13.4219 19.875 11.3281
Q21.1875 9.1875 23.2812 8.20312
Q25.3906 7.23438 29.3906 7.23438
Q32.9531 7.23438 37.1719 9.07812
Q41.4062 10.9375 45.0625 13.8125
L45.0625 54.5469
L54.25 54.5469
z
" id="Verdana-75"/>
     </defs>
     <g transform="translate(206.5078125 418.509375)scale(0.12 -0.12)">
      <use xlink:href="#Verdana-4f"/>
      <use x="78.7109375" xlink:href="#Verdana-62"/>
      <use x="141.015625" xlink:href="#Verdana-6a"/>
      <use x="175.439453125" xlink:href="#Verdana-65"/>
      <use x="235.009765625" xlink:href="#Verdana-63"/>
      <use x="287.109375" xlink:href="#Verdana-74"/>
      <use x="326.513671875" xlink:href="#Verdana-69"/>
      <use x="353.955078125" xlink:href="#Verdana-76"/>
      <use x="412.259765625" xlink:href="#Verdana-65"/>
      <use x="471.830078125" xlink:href="#Verdana-20"/>
      <use x="506.986328125" xlink:href="#Verdana-66"/>
      <use x="542.142578125" xlink:href="#Verdana-75"/>
      <use x="605.423828125" xlink:href="#Verdana-6e"/>
      <use x="668.705078125" xlink:href="#Verdana-63"/>
      <use x="720.8046875" xlink:href="#Verdana-74"/>
      <use x="760.208984375" xlink:href="#Verdana-69"/>
      <use x="787.650390625" xlink:href="#Verdana-6f"/>
      <use x="848.34375" xlink:href="#Verdana-6e"/>
      <use x="911.625" xlink:href="#Verdana-20"/>
      <use x="946.78125" xlink:href="#Verdana-65"/>
      <use x="1006.3515625" xlink:href="#Verdana-78"/>
      <use x="1064.40625" xlink:href="#Verdana-65"/>
      <use x="1123.9765625" xlink:href="#Verdana-63"/>
      <use x="1176.076171875" xlink:href="#Verdana-74"/>
      <use x="1215.48046875" xlink:href="#Verdana-75"/>
      <use x="1278.76171875" xlink:href="#Verdana-69"/>
      <use x="1306.203125" xlink:href="#Verdana-6f"/>
      <use x="1366.896484375" xlink:href="#Verdana-6e"/>
      <use x="1430.177734375" xlink:href="#Verdana-73"/>
     </g>
    </g>
   </g>
   <g id="matplotlib.axis_2">
    <g id="ytick_1">
     <g id="line2d_18">
      <defs>
       <path d="
M0 0
L4 0" id="md7965d1ba0" style="stroke:#000000;stroke-width:0.5;"/>
      </defs>
      <g>
       <use style="stroke:#000000;stroke-width:0.5;" x="72.0" xlink:href="#md7965d1ba0" y="388.8"/>
      </g>
     </g>
     <g id="line2d_19">
      <defs>
       <path d="
M0 0
L-4 0" id="md9a1c1a7cd" style="stroke:#000000;stroke-width:0.5;"/>
      </defs>
      <g>
       <use style="stroke:#000000;stroke-width:0.5;" x="518.4" xlink:href="#md9a1c1a7cd" y="388.8"/>
      </g>
     </g>
     <g id="text_8">
      <!-- 1.0 -->
      <defs>
       <path d="
M71.0938 27.9375
L10.75 27.9375
L10.75 35.75
L71.0938 35.75
z
" id="Verdana-2212"/>
       <path d="
M24.0312 0
L12.3594 0
L12.3594 13.9219
L24.0312 13.9219
z
" id="Verdana-2e"/>
      </defs>
      <g transform="translate(40.63625 392.1515625)scale(0.12 -0.12)">
       <use xlink:href="#Verdana-2212"/>
       <use x="81.8359375" xlink:href="#Verdana-31"/>
       <use x="145.41015625" xlink:href="#Verdana-2e"/>
       <use x="181.787109375" xlink:href="#Verdana-30"/>
      </g>
     </g>
    </g>
    <g id="ytick_2">
     <g id="line2d_20">
      <g>
       <use style="stroke:#000000;stroke-width:0.5;" x="72.0" xlink:href="#md7965d1ba0" y="319.68"/>
      </g>
     </g>
     <g id="line2d_21">
      <g>
       <use style="stroke:#000000;stroke-width:0.5;" x="518.4" xlink:href="#md9a1c1a7cd" y="319.68"/>
      </g>
     </g>
     <g id="text_9">
      <!-- 0.8 -->
      <defs>
       <path d="
M57.625 20.2656
Q57.625 10.8438 50.2656 4.59375
Q42.9219 -1.65625 31.7812 -1.65625
Q19.9688 -1.65625 12.9531 4.4375
Q5.95312 10.5469 5.95312 20.0625
Q5.95312 26.125 9.46875 31.0312
Q12.9844 35.9375 19.3906 38.8125
L19.3906 39.1094
Q13.5312 42.2344 10.7188 45.9375
Q7.90625 49.6562 7.90625 55.2188
Q7.90625 63.4219 14.6406 68.8906
Q21.3906 74.3594 31.7812 74.3594
Q42.6719 74.3594 49.1719 69.1406
Q55.6719 63.9219 55.6719 55.8594
Q55.6719 50.9219 52.5938 46.1562
Q49.5156 41.4062 43.5625 38.7188
L43.5625 38.4219
Q50.3906 35.5 54 31.2031
Q57.625 26.9062 57.625 20.2656
M46.0469 55.7656
Q46.0469 60.9844 42.0156 64.0781
Q37.9844 67.1875 31.7344 67.1875
Q25.5938 67.1875 21.6562 64.25
Q17.7188 61.3281 17.7188 56.3438
Q17.7188 52.8281 19.7031 50.2656
Q21.6875 47.7031 25.6875 45.7031
Q27.4844 44.8281 30.875 43.4062
Q34.2812 42 37.5 41.0625
Q42.3281 44.2812 44.1875 47.75
Q46.0469 51.2188 46.0469 55.7656
M47.5625 19.3438
Q47.5625 23.8281 45.5781 26.5312
Q43.6094 29.25 37.8438 31.9844
Q35.5469 33.0625 32.8125 33.9844
Q30.0781 34.9062 25.5312 36.5781
Q21.1406 34.1875 18.4844 30.0781
Q15.8281 25.9844 15.8281 20.7969
Q15.8281 14.2031 20.3594 9.90625
Q24.9062 5.60938 31.8906 5.60938
Q39.0156 5.60938 43.2812 9.26562
Q47.5625 12.9375 47.5625 19.3438" id="Verdana-38"/>
      </defs>
      <g transform="translate(40.559375 323.0315625)scale(0.12 -0.12)">
       <use xlink:href="#Verdana-2212"/>
       <use x="81.8359375" xlink:href="#Verdana-30"/>
       <use x="145.41015625" xlink:href="#Verdana-2e"/>
       <use x="181.787109375" xlink:href="#Verdana-38"/>
      </g>
     </g>
    </g>
    <g id="ytick_3">
     <g id="line2d_22">
      <g>
       <use style="stroke:#000000;stroke-width:0.5;" x="72.0" xlink:href="#md7965d1ba0" y="250.56"/>
      </g>
     </g>
     <g id="line2d_23">
      <g>
       <use style="stroke:#000000;stroke-width:0.5;" x="518.4" xlink:href="#md9a1c1a7cd" y="250.56"/>
      </g>
     </g>
     <g id="text_10">
      <!-- 0.6 -->
      <defs>
       <path d="
M58.1562 23.5781
Q58.1562 12.5 50.8594 5.48438
Q43.5625 -1.51562 32.9531 -1.51562
Q27.5938 -1.51562 23.1875 0.140625
Q18.7969 1.8125 15.4375 5.07812
Q11.2344 9.125 8.95312 15.8125
Q6.6875 22.5156 6.6875 31.9375
Q6.6875 41.6094 8.76562 49.0781
Q10.8438 56.5469 15.375 62.3594
Q19.6719 67.875 26.4531 70.9688
Q33.25 74.0781 42.2812 74.0781
Q45.1719 74.0781 47.125 73.8281
Q49.0781 73.5781 51.0781 72.9531
L51.0781 63.625
L50.5938 63.625
Q49.2188 64.3594 46.4531 65.0156
Q43.7031 65.6719 40.8281 65.6719
Q30.3281 65.6719 24.0781 59.1094
Q17.8281 52.5469 16.7969 41.3594
Q20.9062 43.8438 24.875 45.1406
Q28.8594 46.4375 34.0781 46.4375
Q38.7188 46.4375 42.25 45.5781
Q45.7969 44.7344 49.5156 42.1406
Q53.8125 39.1562 55.9844 34.6094
Q58.1562 30.0781 58.1562 23.5781
M48.25 23.1875
Q48.25 27.7344 46.9062 30.7031
Q45.5625 33.6875 42.4844 35.8906
Q40.2344 37.4531 37.5 37.9375
Q34.7656 38.4219 31.7812 38.4219
Q27.6406 38.4219 24.0781 37.4375
Q20.5156 36.4688 16.75 34.4219
Q16.6562 33.3438 16.5938 32.3438
Q16.5469 31.3438 16.5469 29.8281
Q16.5469 22.125 18.1406 17.6562
Q19.7344 13.1875 22.5156 10.5938
Q24.75 8.45312 27.3594 7.45312
Q29.9844 6.45312 33.0625 6.45312
Q40.1406 6.45312 44.1875 10.7656
Q48.25 15.0938 48.25 23.1875" id="Verdana-36"/>
      </defs>
      <g transform="translate(40.495625 253.9115625)scale(0.12 -0.12)">
       <use xlink:href="#Verdana-2212"/>
       <use x="81.8359375" xlink:href="#Verdana-30"/>
       <use x="145.41015625" xlink:href="#Verdana-2e"/>
       <use x="181.787109375" xlink:href="#Verdana-36"/>
      </g>
     </g>
    </g>
    <g id="ytick_4">
     <g id="line2d_24">
      <g>
       <use style="stroke:#000000;stroke-width:0.5;" x="72.0" xlink:href="#md7965d1ba0" y="181.44"/>
      </g>
     </g>
     <g id="line2d_25">
      <g>
       <use style="stroke:#000000;stroke-width:0.5;" x="518.4" xlink:href="#md9a1c1a7cd" y="181.44"/>
      </g>
     </g>
     <g id="text_11">
      <!-- 0.4 -->
      <g transform="translate(40.42625 184.7915625)scale(0.12 -0.12)">
       <use xlink:href="#Verdana-2212"/>
       <use x="81.8359375" xlink:href="#Verdana-30"/>
       <use x="145.41015625" xlink:href="#Verdana-2e"/>
       <use x="181.787109375" xlink:href="#Verdana-34"/>
      </g>
     </g>
    </g>
    <g id="ytick_5">
     <g id="line2d_26">
      <g>
       <use style="stroke:#000000;stroke-width:0.5;" x="72.0" xlink:href="#md7965d1ba0" y="112.32"/>
      </g>
     </g>
     <g id="line2d_27">
      <g>
       <use style="stroke:#000000;stroke-width:0.5;" x="518.4" xlink:href="#md9a1c1a7cd" y="112.32"/>
      </g>
     </g>
     <g id="text_12">
      <!-- 0.2 -->
      <g transform="translate(40.625 115.6715625)scale(0.12 -0.12)">
       <use xlink:href="#Verdana-2212"/>
       <use x="81.8359375" xlink:href="#Verdana-30"/>
       <use x="145.41015625" xlink:href="#Verdana-2e"/>
       <use x="181.787109375" xlink:href="#Verdana-32"/>
      </g>
     </g>
    </g>
    <g id="ytick_6">
     <g id="line2d_28">
      <g>
       <use style="stroke:#000000;stroke-width:0.5;" x="72.0" xlink:href="#md7965d1ba0" y="43.2"/>
      </g>
     </g>
     <g id="line2d_29">
      <g>
       <use style="stroke:#000000;stroke-width:0.5;" x="518.4" xlink:href="#md9a1c1a7cd" y="43.2"/>
      </g>
     </g>
     <g id="text_13">
      <!-- 0.0 -->
      <g transform="translate(49.97 46.5515625)scale(0.12 -0.12)">
       <use xlink:href="#Verdana-30"/>
       <use x="63.57421875" xlink:href="#Verdana-2e"/>
       <use x="99.951171875" xlink:href="#Verdana-30"/>
      </g>
     </g>
    </g>
    <g id="text_14">
     <!-- Mean -->
     <defs>
      <path d="
M51.4219 0
L42.2812 0
L42.2812 5.8125
Q41.0625 4.98438 38.9844 3.48438
Q36.9219 2 34.9688 1.125
Q32.6719 0 29.6875 -0.75
Q26.7031 -1.51562 22.7031 -1.51562
Q15.3281 -1.51562 10.2031 3.35938
Q5.07812 8.25 5.07812 15.8281
Q5.07812 22.0156 7.73438 25.8438
Q10.4062 29.6875 15.3281 31.8906
Q20.3125 34.0781 27.2969 34.8594
Q34.2812 35.6406 42.2812 36.0312
L42.2812 37.4531
Q42.2812 40.5781 41.1875 42.625
Q40.0938 44.6719 38.0312 45.8438
Q36.0781 46.9688 33.3438 47.3594
Q30.6094 47.75 27.6406 47.75
Q24.0312 47.75 19.5781 46.7969
Q15.1406 45.8438 10.4062 44.0469
L9.90625 44.0469
L9.90625 53.375
Q12.5938 54.1094 17.6719 54.9844
Q22.75 55.8594 27.6875 55.8594
Q33.4531 55.8594 37.7188 54.9062
Q42 53.9531 45.125 51.6562
Q48.1875 49.4219 49.7969 45.8438
Q51.4219 42.2812 51.4219 37.0156
z

M42.2812 13.4219
L42.2812 28.6094
Q38.0938 28.375 32.3906 27.875
Q26.7031 27.3906 23.3906 26.4688
Q19.4375 25.3438 16.9844 22.9688
Q14.5469 20.6094 14.5469 16.4531
Q14.5469 11.7656 17.375 9.39062
Q20.2188 7.03125 26.0312 7.03125
Q30.8594 7.03125 34.8594 8.90625
Q38.875 10.7969 42.2812 13.4219" id="Verdana-61"/>
      <path d="
M74.5156 0
L64.8438 0
L64.8438 62.6406
L44.625 20.0156
L38.875 20.0156
L18.7969 62.6406
L18.7969 0
L9.76562 0
L9.76562 72.7031
L22.9531 72.7031
L42.3281 32.2344
L61.0781 72.7031
L74.5156 72.7031
z
" id="Verdana-4d"/>
     </defs>
     <g transform="translate(33.01125 230.9278125)rotate(-90.0)scale(0.12 -0.12)">
      <use xlink:href="#Verdana-4d"/>
      <use x="84.27734375" xlink:href="#Verdana-65"/>
      <use x="143.84765625" xlink:href="#Verdana-61"/>
      <use x="203.90625" xlink:href="#Verdana-6e"/>
     </g>
    </g>
   </g>
   <g id="patch_3">
    <path d="
M72 43.2
L518.4 43.2" style="fill:none;stroke:#000000;"/>
   </g>
   <g id="patch_4">
    <path d="
M72 388.8
L72 43.2" style="fill:none;stroke:#000000;"/>
   </g>
   <g id="patch_5">
    <path d="
M518.4 388.8
L518.4 43.2" style="fill:none;stroke:#000000;"/>
   </g>
   <g id="patch_6">
    <path d="
M72 388.8
L518.4 388.8" style="fill:none;stroke:#000000;"/>
   </g>
   <g id="text_15">
    <!-- DropWave Mean -->
    <defs>
     <path d="
M57.0312 27.9375
Q57.0312 21.2969 55.125 15.7969
Q53.2188 10.2969 49.75 6.5
Q46.5312 2.875 42.1562 0.890625
Q37.7969 -1.07812 32.9062 -1.07812
Q28.6562 -1.07812 25.2188 -0.140625
Q21.7812 0.78125 18.2188 2.73438
L18.2188 -20.125
L9.03125 -20.125
L9.03125 54.5469
L18.2188 54.5469
L18.2188 48.8281
Q21.875 51.9062 26.4375 53.9844
Q31 56.0625 36.1875 56.0625
Q46.0469 56.0625 51.5312 48.6094
Q57.0312 41.1562 57.0312 27.9375
M47.5625 27.6875
Q47.5625 37.5469 44.1875 42.4219
Q40.8281 47.3125 33.8438 47.3125
Q29.8906 47.3125 25.875 45.5938
Q21.875 43.8906 18.2188 41.1094
L18.2188 10.2031
Q22.125 8.45312 24.9219 7.8125
Q27.7344 7.17188 31.2969 7.17188
Q38.9688 7.17188 43.2656 12.3438
Q47.5625 17.5312 47.5625 27.6875" id="Verdana-70"/>
     <path d="
M43.0625 44.5312
L42.5781 44.5312
Q40.5312 45.0156 38.5938 45.2344
Q36.6719 45.4531 34.0312 45.4531
Q29.7812 45.4531 25.8281 43.5781
Q21.875 41.7031 18.2188 38.7188
L18.2188 0
L9.03125 0
L9.03125 54.5469
L18.2188 54.5469
L18.2188 46.4844
Q23.6875 50.875 27.8594 52.7031
Q32.0312 54.5469 36.375 54.5469
Q38.7656 54.5469 39.8438 54.4219
Q40.9219 54.2969 43.0625 53.9531
z
" id="Verdana-72"/>
     <path d="
M94.3906 72.7031
L75.4844 0
L64.5938 0
L49.3125 60.3594
L34.375 0
L23.7344 0
L4.5 72.7031
L14.4062 72.7031
L29.6875 12.25
L44.7344 72.7031
L54.5469 72.7031
L69.7344 11.6719
L84.9062 72.7031
z
" id="Verdana-57"/>
     <path d="
M71.1875 36.2812
Q71.1875 26.375 66.8594 18.3125
Q62.5469 10.25 55.375 5.8125
Q50.3906 2.73438 44.2656 1.35938
Q38.1406 0 28.125 0
L9.76562 0
L9.76562 72.7031
L27.9375 72.7031
Q38.5781 72.7031 44.8438 71.1562
Q51.125 69.625 55.4688 66.9375
Q62.8906 62.3125 67.0312 54.5938
Q71.1875 46.875 71.1875 36.2812
M61.0781 36.4219
Q61.0781 44.9688 58.0938 50.8281
Q55.125 56.6875 49.2188 60.0625
Q44.9219 62.5 40.0781 63.4531
Q35.25 64.4062 28.5156 64.4062
L19.4375 64.4062
L19.4375 8.29688
L28.5156 8.29688
Q35.5 8.29688 40.7031 9.32812
Q45.9062 10.3594 50.25 13.1406
Q55.6719 16.6094 58.375 22.2656
Q61.0781 27.9375 61.0781 36.4219" id="Verdana-44"/>
    </defs>
    <g transform="translate(237.049875 38.2)scale(0.144 -0.144)">
     <use xlink:href="#Verdana-44"/>
     <use x="77.05078125" xlink:href="#Verdana-72"/>
     <use x="119.7265625" xlink:href="#Verdana-6f"/>
     <use x="180.419921875" xlink:href="#Verdana-70"/>
     <use x="242.724609375" xlink:href="#Verdana-57"/>
     <use x="336.7265625" xlink:href="#Verdana-61"/>
     <use x="396.03515625" xlink:href="#Verdana-76"/>
     <use x="454.33984375" xlink:href="#Verdana-65"/>
     <use x="513.91015625" xlink:href="#Verdana-20"/>
     <use x="549.06640625" xlink:href="#Verdana-4d"/>
     <use x="633.34375" xlink:href="#Verdana-65"/>
     <use x="692.9140625" xlink:href="#Verdana-61"/>
     <use x="752.97265625" xlink:href="#Verdana-6e"/>
    </g>
   </g>
   <g id="legend_1">
    <g id="patch_7">
     <path d="
M243.19 270.759
L347.21 270.759
L347.21 161.241
L243.19 161.241
L243.19 270.759
z
" style="fill:#ffffff;stroke:#000000;"/>
    </g>
    <g id="line2d_30">
     <path d="
M253.27 172.902
L273.43 172.902" style="fill:none;stroke:#0000ff;stroke-dasharray:6.000000,2.000000;stroke-dashoffset:0.0;"/>
    </g>
    <g id="line2d_31"/>
    <g id="text_16">
     <!-- AMPGO -->
     <defs>
      <path d="
M57.3281 50.7344
Q57.3281 45.9062 55.6406 41.7656
Q53.9531 37.6406 50.9219 34.625
Q47.1719 30.8594 42.0469 28.9688
Q36.9219 27.0938 29.1094 27.0938
L19.4375 27.0938
L19.4375 0
L9.76562 0
L9.76562 72.7031
L29.5 72.7031
Q36.0312 72.7031 40.5781 71.6094
Q45.125 70.5156 48.6406 68.1719
Q52.7812 65.375 55.0469 61.2188
Q57.3281 57.0781 57.3281 50.7344
M47.2656 50.4844
Q47.2656 54.25 45.9375 57.0312
Q44.625 59.8125 41.9375 61.5781
Q39.5938 63.0938 36.5938 63.75
Q33.5938 64.4062 29 64.4062
L19.4375 64.4062
L19.4375 35.3594
L27.5938 35.3594
Q33.4531 35.3594 37.1094 36.4062
Q40.7656 37.4531 43.0625 39.75
Q45.3594 42.0938 46.3125 44.6719
Q47.2656 47.2656 47.2656 50.4844" id="Verdana-50"/>
      <path d="
M70.4062 5.375
Q64.4531 2.64062 57.3906 0.609375
Q50.3438 -1.42188 43.75 -1.42188
Q35.25 -1.42188 28.1719 0.921875
Q21.0938 3.26562 16.1094 7.95312
Q11.0781 12.7031 8.34375 19.7969
Q5.60938 26.9062 5.60938 36.4219
Q5.60938 53.8594 15.7969 63.9375
Q25.9844 74.0312 43.75 74.0312
Q49.9531 74.0312 56.4219 72.5312
Q62.8906 71.0469 70.3594 67.4844
L70.3594 56
L69.4844 56
Q67.9688 57.1719 65.0781 59.0781
Q62.2031 60.9844 59.4219 62.25
Q56.0625 63.7656 51.7812 64.7656
Q47.5156 65.7656 42.0938 65.7656
Q29.8906 65.7656 22.7812 57.9219
Q15.6719 50.0938 15.6719 36.7188
Q15.6719 22.6094 23.0938 14.7656
Q30.5156 6.9375 43.3125 6.9375
Q48 6.9375 52.6562 7.85938
Q57.3281 8.79688 60.8438 10.25
L60.8438 28.0781
L41.3594 28.0781
L41.3594 36.5781
L70.4062 36.5781
z
" id="Verdana-47"/>
      <path d="
M67.0938 0
L56.7812 0
L49.6562 20.2656
L18.2188 20.2656
L11.0781 0
L1.26562 0
L27.7344 72.7031
L40.625 72.7031
z

M46.6875 28.5625
L33.9375 64.2656
L21.1406 28.5625
z
" id="Verdana-41"/>
     </defs>
     <g transform="translate(289.270125 177.942375)scale(0.144 -0.144)">
      <use xlink:href="#Verdana-41"/>
      <use x="68.359375" xlink:href="#Verdana-4d"/>
      <use x="152.63671875" xlink:href="#Verdana-50"/>
      <use x="212.939453125" xlink:href="#Verdana-47"/>
      <use x="290.478515625" xlink:href="#Verdana-4f"/>
     </g>
    </g>
    <g id="line2d_32">
     <path d="
M253.27 193.942
L273.43 193.942" style="fill:none;stroke:#008000;stroke-dasharray:1.000000,1.000000;stroke-dashoffset:0.0;"/>
    </g>
    <g id="line2d_33"/>
    <g id="text_17">
     <!-- Anneal -->
     <defs>
      <path d="
M18.3125 0
L9.125 0
L9.125 75.9844
L18.3125 75.9844
z
" id="Verdana-6c"/>
     </defs>
     <g transform="translate(289.270125 198.982125)scale(0.144 -0.144)">
      <use xlink:href="#Verdana-41"/>
      <use x="68.359375" xlink:href="#Verdana-6e"/>
      <use x="131.640625" xlink:href="#Verdana-6e"/>
      <use x="194.921875" xlink:href="#Verdana-65"/>
      <use x="254.4921875" xlink:href="#Verdana-61"/>
      <use x="314.55078125" xlink:href="#Verdana-6c"/>
     </g>
    </g>
    <g id="line2d_34">
     <path d="
M253.27 214.982
L273.43 214.982" style="fill:none;stroke:#ff0000;stroke-dasharray:3.000000,6.000000;stroke-dashoffset:0.0;"/>
    </g>
    <g id="line2d_35"/>
    <g id="text_18">
     <!-- BSA -->
     <defs>
      <path d="
M64.5938 22.3594
Q64.5938 16.9375 62.5469 12.7812
Q60.5 8.64062 57.0312 5.95312
Q52.9375 2.73438 48.0156 1.35938
Q43.1094 0 35.5469 0
L9.76562 0
L9.76562 72.7031
L31.2969 72.7031
Q39.2656 72.7031 43.2188 72.1094
Q47.1719 71.5312 50.7812 69.6719
Q54.7812 67.5781 56.5938 64.2812
Q58.4062 60.9844 58.4062 56.3906
Q58.4062 51.2188 55.7656 47.5781
Q53.125 43.9531 48.7344 41.75
L48.7344 41.3594
Q56.1094 39.8438 60.3438 34.8906
Q64.5938 29.9375 64.5938 22.3594
M48.3438 55.125
Q48.3438 57.7656 47.4531 59.5625
Q46.5781 61.375 44.625 62.5
Q42.3281 63.8125 39.0625 64.125
Q35.7969 64.4531 30.9531 64.4531
L19.4375 64.4531
L19.4375 43.4531
L31.9375 43.4531
Q36.4688 43.4531 39.1562 43.9219
Q41.8438 44.3906 44.1406 45.8438
Q46.4375 47.3125 47.3906 49.625
Q48.3438 51.9531 48.3438 55.125
M54.5469 21.9688
Q54.5469 26.375 53.2188 28.9531
Q51.9062 31.5469 48.4375 33.3438
Q46.0938 34.5781 42.75 34.9375
Q39.4062 35.2969 34.625 35.2969
L19.4375 35.2969
L19.4375 8.25
L32.2344 8.25
Q38.5781 8.25 42.625 8.90625
Q46.6875 9.57812 49.2656 11.3281
Q52 13.2344 53.2656 15.6719
Q54.5469 18.1094 54.5469 21.9688" id="Verdana-42"/>
      <path d="
M62.5938 20.75
Q62.5938 16.5 60.6094 12.3438
Q58.6406 8.20312 55.0781 5.32812
Q51.1719 2.20312 45.9688 0.4375
Q40.7656 -1.3125 33.4531 -1.3125
Q25.5938 -1.3125 19.3125 0.140625
Q13.0312 1.60938 6.54688 4.5
L6.54688 16.6094
L7.23438 16.6094
Q12.75 12.0156 19.9688 9.51562
Q27.2031 7.03125 33.5469 7.03125
Q42.5312 7.03125 47.5312 10.3906
Q52.5469 13.7656 52.5469 19.3906
Q52.5469 24.2188 50.1719 26.5156
Q47.7969 28.8125 42.9688 30.0781
Q39.3125 31.0625 35.0312 31.6875
Q30.7656 32.3281 25.9844 33.2969
Q16.3125 35.3594 11.6406 40.3125
Q6.98438 45.2656 6.98438 53.2188
Q6.98438 62.3594 14.6875 68.1875
Q22.4062 74.0312 34.2812 74.0312
Q41.9375 74.0312 48.3281 72.5625
Q54.7344 71.0938 59.6719 68.9531
L59.6719 57.5156
L58.9844 57.5156
Q54.8281 61.0312 48.0625 63.3438
Q41.3125 65.6719 34.2344 65.6719
Q26.4688 65.6719 21.75 62.4531
Q17.0469 59.2344 17.0469 54.1562
Q17.0469 49.6094 19.3906 47.0156
Q21.7344 44.4375 27.6406 43.0625
Q30.7656 42.3906 36.5156 41.4062
Q42.2812 40.4375 46.2969 39.4062
Q54.3906 37.25 58.4844 32.9062
Q62.5938 28.5625 62.5938 20.75" id="Verdana-53"/>
     </defs>
     <g transform="translate(289.270125 220.021875)scale(0.144 -0.144)">
      <use xlink:href="#Verdana-42"/>
      <use x="68.5546875" xlink:href="#Verdana-53"/>
      <use x="135.9140625" xlink:href="#Verdana-41"/>
     </g>
    </g>
    <g id="line2d_36">
     <path d="
M253.27 236.022
L273.43 236.022" style="fill:none;stroke:#00bfbf;stroke-dasharray:5.000000,1.000000,2.000000,1.000000,5.000000,1.000000;stroke-dashoffset:0.0;"/>
    </g>
    <g id="line2d_37"/>
    <g id="text_19">
     <!-- Cuckoo -->
     <defs>
      <path d="
M58.5469 0
L46.4375 0
L24.5625 23.875
L18.6094 18.2188
L18.6094 0
L9.42188 0
L9.42188 75.9844
L18.6094 75.9844
L18.6094 27.25
L45.125 54.5469
L56.6875 54.5469
L31.3438 29.3438
z
" id="Verdana-6b"/>
      <path d="
M65.9219 5.28125
Q63.2344 4.10938 61.0625 3.07812
Q58.8906 2.04688 55.375 0.921875
Q52.3906 0 48.8906 -0.65625
Q45.4062 -1.3125 41.2188 -1.3125
Q33.2969 -1.3125 26.8281 0.90625
Q20.3594 3.125 15.5781 7.85938
Q10.8906 12.5 8.25 19.6562
Q5.60938 26.8125 5.60938 36.2812
Q5.60938 45.2656 8.14062 52.3438
Q10.6875 59.4219 15.4844 64.3125
Q20.125 69.0469 26.6875 71.5312
Q33.25 74.0312 41.2656 74.0312
Q47.125 74.0312 52.9531 72.6094
Q58.7969 71.1875 65.9219 67.625
L65.9219 56.1562
L65.1875 56.1562
Q59.1875 61.1875 53.2656 63.4688
Q47.3594 65.7656 40.625 65.7656
Q35.1094 65.7656 30.6875 63.9844
Q26.2656 62.2031 22.7969 58.4531
Q19.4375 54.7812 17.5469 49.1875
Q15.6719 43.6094 15.6719 36.2812
Q15.6719 28.6094 17.75 23.0938
Q19.8281 17.5781 23.0938 14.1094
Q26.5156 10.5 31.0781 8.76562
Q35.6406 7.03125 40.7188 7.03125
Q47.7031 7.03125 53.7969 9.42188
Q59.9062 11.8125 65.2344 16.6094
L65.9219 16.6094
z
" id="Verdana-43"/>
     </defs>
     <g transform="translate(289.270125 241.061625)scale(0.144 -0.144)">
      <use xlink:href="#Verdana-43"/>
      <use x="69.82421875" xlink:href="#Verdana-75"/>
      <use x="133.10546875" xlink:href="#Verdana-63"/>
      <use x="185.205078125" xlink:href="#Verdana-6b"/>
      <use x="243.384765625" xlink:href="#Verdana-6f"/>
      <use x="304.078125" xlink:href="#Verdana-6f"/>
     </g>
    </g>
    <g id="line2d_38">
     <path d="
M253.27 257.061
L273.43 257.061" style="fill:none;stroke:#bf00bf;stroke-linecap:square;"/>
    </g>
    <g id="line2d_39"/>
    <g id="text_20">
     <!-- qABC -->
     <defs>
      <path d="
M53.2656 -20.125
L44.0938 -20.125
L44.0938 6.15625
Q39.8438 2.48438 35.6406 0.703125
Q31.4531 -1.07812 26.5625 -1.07812
Q16.8438 -1.07812 11.0625 6.42188
Q5.28125 13.9219 5.28125 27.0938
Q5.28125 34.125 7.29688 39.5156
Q9.32812 44.9219 12.6406 48.5781
Q15.875 52.1562 20.2188 54.1094
Q24.5625 56.0625 29.3906 56.0625
Q33.7969 56.0625 37.1875 55.0781
Q40.5781 54.1094 44.0938 52.2031
L44.6719 54.5469
L53.2656 54.5469
z

M44.0938 13.875
L44.0938 44.7344
Q40.2812 46.4375 37.3438 47.1094
Q34.4219 47.7969 31 47.7969
Q23.0469 47.7969 18.8906 42.4062
Q14.75 37.0156 14.75 27.5469
Q14.75 17.9688 18.0938 12.8125
Q21.4375 7.67188 28.6094 7.67188
Q32.625 7.67188 36.625 9.40625
Q40.625 11.1406 44.0938 13.875" id="Verdana-71"/>
     </defs>
     <g transform="translate(289.270125 262.101375)scale(0.144 -0.144)">
      <use xlink:href="#Verdana-71"/>
      <use x="62.3046875" xlink:href="#Verdana-41"/>
      <use x="130.6640625" xlink:href="#Verdana-42"/>
      <use x="199.21875" xlink:href="#Verdana-43"/>
     </g>
    </g>
   </g>
  </g>
 </g>
 <defs>
  <clipPath id="p7ff5b81e1d">
   <rect height="345.6" width="446.4" x="72.0" y="43.2"/>
  </clipPath>
 </defs>
</svg>
