<?xml version="1.0" encoding="utf-8" standalone="no"?>
<!DOCTYPE svg PUBLIC "-//W3C//DTD SVG 1.1//EN"
  "http://www.w3.org/Graphics/SVG/1.1/DTD/svg11.dtd">
<!-- Created with matplotlib (http://matplotlib.org/) -->
<svg height="432pt" version="1.1" viewBox="0 0 576 432" width="576pt" xmlns="http://www.w3.org/2000/svg" xmlns:xlink="http://www.w3.org/1999/xlink">
 <defs>
  <style type="text/css">
*{stroke-linecap:butt;stroke-linejoin:round;}
  </style>
 </defs>
 <g id="figure_1">
  <g id="patch_1">
   <path d="
M0 432
L576 432
L576 0
L0 0
z
" style="fill:#ffffff;"/>
  </g>
  <g id="axes_1">
   <g id="patch_2">
    <path d="
M72 388.8
L518.4 388.8
L518.4 43.2
L72 43.2
z
" style="fill:#ffffff;"/>
   </g>
   <g id="line2d_1">
    <path clip-path="url(#p7ff5b81e1d)" d="
M72 381.199
L74.3213 381.199
L74.4998 376.219
L76.6426 376.219
L76.8211 373.012
L78.9638 373.012
L79.1424 371.931
L83.6064 371.877
L83.785 372.816
L85.9277 372.816
L86.1062 374.05
L88.249 374.05
L88.4275 375.79
L90.5702 375.79
L90.7488 377.668
L92.8915 377.668
L93.0701 380.074
L95.2128 380.074
L95.3914 381.42
L97.5341 381.42
L97.7126 382.77
L99.8554 382.77
L100.034 383.701
L102.177 383.701
L102.355 384.165
L104.498 384.165
L104.676 384.695
L106.819 384.695
L106.998 385.103
L109.14 385.103
L109.319 385.291
L111.462 385.291
L111.64 386.387
L113.783 386.387
L113.962 387.213
L116.104 387.213
L116.283 388.161
L118.426 388.161
L118.604 388.322
L120.747 388.322
L120.925 388.657
L130.032 388.726
L130.3 388.78
L518.311 388.777
L518.311 388.777" style="fill:none;stroke:#0000ff;stroke-dasharray:6.000000,2.000000;stroke-dashoffset:0.0;"/>
   </g>
   <g id="line2d_2">
    <path clip-path="url(#p7ff5b81e1d)" d="
M72 381.651
L72.3571 381.376
L73.2499 380.015
L73.4285 379.978
L73.6963 379.698
L73.7856 379.727
L74.0534 379.456
L74.1427 379.412
L74.4998 378.621
L74.6784 378.692
L74.9462 378.685
L75.4819 378.58
L75.839 378.837
L76.0176 378.872
L76.8211 379.292
L76.9997 379.089
L77.9818 379.564
L79.1424 380.868
L79.321 381.009
L79.7674 381.237
L80.0352 381.482
L80.303 381.599
L81.3744 382.31
L81.7315 382.516
L81.9101 382.679
L82.3565 383.06
L82.7136 383.203
L82.8922 383.335
L84.6778 384.296
L86.1955 384.943
L88.0704 385.699
L88.4275 385.804
L89.0525 385.909
L89.4096 386.014
L89.6774 386.084
L89.856 386.163
L90.2131 386.242
L91.8202 386.56
L92.4451 386.664
L93.0701 386.788
L95.0342 387.064
L95.3914 387.177
L96.552 387.28
L97.177 387.414
L98.3376 387.528
L107.98 388.032
L112.533 388.163
L116.908 388.318
L117.533 388.347
L121.193 388.438
L122.175 388.489
L141.728 388.611
L152.441 388.667
L228.776 388.764
L229.936 388.774
L518.311 388.798
L518.311 388.798" style="fill:none;stroke:#008000;stroke-dasharray:1.000000,1.000000;stroke-dashoffset:0.0;"/>
   </g>
   <g id="line2d_3">
    <path clip-path="url(#p7ff5b81e1d)" d="
M72 381.69
L72.0893 382.584
L72.1786 382.941
L72.4464 383.171
L72.625 383.491
L72.8928 383.669
L73.0714 383.813
L73.6963 383.883
L73.9642 382.182
L74.4106 380.986
L74.7677 380.389
L75.2141 379.673
L75.3926 379.565
L75.4819 379.424
L75.5712 379.035
L75.6605 379.112
L76.464 378.853
L76.5533 378.87
L76.7318 378.566
L77.089 378.263
L77.3568 378.05
L77.5354 378.11
L79.0531 377.889
L79.2317 377.973
L79.4102 378.033
L79.9459 378.113
L80.1245 378.032
L80.5709 378.17
L80.8387 378.167
L82.7136 378.79
L82.8922 378.761
L83.2493 378.843
L83.6957 378.987
L84.0528 378.999
L84.4099 379.025
L84.5885 379.086
L84.8563 379.039
L85.0349 379.079
L85.2134 379.026
L85.5706 379.139
L86.1062 379.168
L86.2848 379.158
L86.4634 379.258
L86.7312 379.341
L87.5347 379.453
L88.0704 379.491
L88.3382 379.687
L88.5168 379.682
L88.9632 379.73
L89.3203 379.735
L90.3917 379.991
L90.6595 380.124
L90.8381 380.108
L91.9094 380.434
L92.088 380.416
L92.4451 380.647
L92.8022 380.605
L93.0701 380.635
L93.695 380.755
L94.32 380.93
L94.5878 380.981
L95.7485 381.05
L96.3734 380.95
L96.6413 380.97
L97.2662 381.064
L97.8019 381.149
L98.0698 381.119
L98.6947 381.237
L100.302 381.522
L101.909 381.655
L102.534 381.763
L103.427 381.766
L104.498 381.953
L104.944 381.967
L105.926 382.143
L106.284 382.281
L106.551 382.246
L106.908 382.178
L107.266 382.193
L107.623 382.241
L108.605 382.394
L114.14 382.883
L114.319 382.932
L116.997 383.065
L117.354 383.143
L121.015 383.281
L121.55 383.386
L122.086 383.371
L122.622 383.366
L127.621 383.744
L128.336 383.77
L128.604 383.798
L129.318 383.804
L133.514 383.859
L135.567 383.944
L135.924 383.986
L136.907 383.986
L138.335 384.095
L138.96 384.095
L139.942 384.051
L145.745 384.322
L146.638 384.422
L149.852 384.599
L151.102 384.718
L152.62 384.773
L153.245 384.764
L156.459 384.942
L158.244 385.038
L159.316 385.064
L171.279 385.513
L176.19 385.622
L179.136 385.715
L183.511 385.85
L184.136 385.902
L188.868 386.013
L190.117 386.061
L192.528 386.099
L194.939 386.168
L198.153 386.301
L200.117 386.337
L210.741 386.789
L213.152 386.826
L214.044 386.869
L263.506 387.859
L272.523 387.969
L353.143 388.606
L386.801 388.716
L398.229 388.738
L518.311 388.798
L518.311 388.798" style="fill:none;stroke:#ff0000;stroke-dasharray:3.000000,6.000000;stroke-dashoffset:0.0;"/>
   </g>
   <g id="line2d_4">
    <path clip-path="url(#p7ff5b81e1d)" d="
M72 381.578
L72.2678 382.958
L72.625 383.315
L73.1606 383.634
L74.1427 383.887
L75.2141 384.088
L75.4819 384.108
L75.7498 381.576
L76.1069 380.344
L76.5533 379.762
L77.2675 379.369
L78.1603 379.629
L79.0531 379.83
L79.4995 379.345
L80.0352 379.081
L80.7494 378.756
L80.928 378.688
L83.4278 378.887
L84.4992 378.628
L86.9098 378.713
L87.4454 378.528
L88.0704 378.4
L90.3024 378.494
L91.6416 378.305
L93.7843 378.576
L94.1414 378.628
L94.4093 378.643
L95.0342 378.574
L96.9091 378.664
L97.177 378.725
L97.6234 378.705
L98.3376 378.701
L99.0518 378.694
L101.462 378.812
L102.266 378.867
L105.748 379.115
L106.194 379.157
L107.891 379.246
L108.248 379.295
L108.873 379.429
L110.748 379.561
L112.801 379.673
L113.337 379.706
L115.836 379.808
L116.194 379.852
L116.908 379.884
L118.783 379.999
L119.318 380.09
L121.193 380.247
L122.89 380.358
L125.3 380.536
L125.925 380.625
L126.282 380.684
L128.336 380.844
L129.586 380.933
L130.925 381.209
L133.425 381.346
L144.495 382.336
L145.567 382.441
L147.442 382.536
L148.334 382.696
L148.513 382.605
L149.941 382.631
L151.102 382.709
L153.245 382.93
L154.405 383.047
L155.298 383.154
L155.388 382.863
L155.477 382.891
L156.995 382.951
L158.602 383.058
L159.852 383.159
L161.816 383.269
L163.066 383.463
L165.565 383.569
L165.744 383.59
L165.923 383.448
L167.53 383.54
L168.422 383.569
L168.601 383.402
L170.744 383.545
L172.261 383.588
L172.351 379.484
L172.44 379.489
L172.886 379.519
L173.244 378.863
L173.601 378.882
L173.779 376.616
L175.476 376.624
L175.654 376.089
L179.136 376.02
L179.315 374.405
L182.082 374.39
L184.136 374.329
L184.314 373.785
L186.368 373.8
L186.546 373.701
L188.153 373.685
L189.939 373.633
L190.117 372.395
L191.189 372.386
L191.367 371.769
L193.51 371.736
L193.599 366.17
L193.689 366.174
L193.956 366.135
L194.224 364.299
L194.403 364.117
L194.849 364.101
L195.028 363.683
L196.992 363.655
L197.171 361.235
L198.063 361.19
L198.242 360.881
L198.51 360.675
L198.688 358.813
L200.652 358.819
L200.831 358.435
L201.01 358.423
L201.188 355.975
L201.724 355.974
L201.902 353.355
L204.045 353.291
L204.224 353.192
L204.492 353.16
L204.67 352.903
L205.563 352.828
L205.831 352.766
L207.616 352.766
L207.795 351.832
L208.152 350.91
L209.045 350.833
L209.313 350.759
L211.188 350.756
L211.366 350.08
L211.545 349.985
L211.634 349.986
L211.991 349.604
L212.17 349.605
L212.348 349.443
L212.616 349.444
L212.795 348.886
L212.884 348.886
L213.062 348.305
L214.848 348.305
L215.027 347.171
L215.116 347.172
L215.473 342.485
L215.741 342.479
L216.098 341.188
L216.276 341.185
L216.455 340.701
L216.634 340.577
L218.419 340.48
L218.598 339.337
L218.776 339.332
L219.044 338.208
L219.223 337.917
L219.401 337.831
L219.58 336.988
L219.669 336.989
L219.848 336.725
L221.901 336.725
L222.258 335.841
L222.437 335.843
L222.526 335.713
L222.705 335.185
L222.883 335.187
L223.062 335.031
L223.33 334.932
L225.472 334.893
L225.651 334.257
L225.74 333.842
L225.919 332.108
L226.276 332.088
L226.544 331.647
L226.812 331.592
L226.99 331.223
L227.079 331.224
L227.258 330.161
L229.044 330.161
L229.222 329.463
L229.311 329.464
L229.49 328.781
L229.668 328.783
L229.847 327.03
L230.115 326.99
L230.293 326.776
L230.472 326.768
L230.651 324.3
L230.829 324.093
L232.704 324.091
L232.972 321.878
L233.24 317.774
L233.508 317.31
L233.686 316.322
L233.954 316.313
L234.043 316.207
L234.222 315.662
L236.275 315.545
L236.364 315.454
L236.543 313.787
L236.989 313.641
L237.079 313.642
L237.347 312.398
L237.793 312.166
L238.15 311.075
L239.846 311.069
L240.025 310.271
L240.561 310.145
L240.918 309.964
L241.096 308.997
L243.328 308.894
L243.418 308.868
L243.596 308.473
L243.775 308.47
L243.953 306.726
L244.132 306.692
L244.31 306.051
L244.4 306.047
L244.578 305.839
L244.935 305.823
L245.114 304.354
L246.9 304.354
L247.078 303.177
L247.257 302.922
L247.346 302.922
L247.703 302.335
L247.971 302.246
L248.149 301.742
L248.328 299.803
L248.417 299.798
L248.596 298.669
L248.774 297.948
L250.739 297.948
L250.917 297.363
L251.006 297.363
L251.185 297.094
L251.364 296.183
L251.453 296.128
L251.631 295.157
L251.81 294.807
L251.899 294.773
L252.078 293.696
L252.346 293.632
L254.131 293.603
L254.31 292.672
L254.578 292.54
L254.756 292.415
L255.113 290.27
L255.292 290.269
L255.47 289.106
L255.649 288.872
L255.828 288.786
L257.345 288.74
L257.613 288.74
L257.792 287.562
L258.06 287.452
L258.238 287.415
L258.595 285.237
L258.684 285.238
L258.863 284.138
L259.042 283.762
L259.309 283.764
L259.488 283.486
L261.184 283.442
L261.274 283.341
L261.541 282.439
L261.72 279.612
L261.809 279.613
L261.988 278.867
L262.613 278.614
L262.702 278.599
L262.97 278.309
L264.756 278.304
L265.023 277.243
L265.113 277.241
L265.291 276.291
L265.38 276.292
L265.648 274.963
L265.916 274.613
L266.005 274.615
L266.541 273.766
L268.327 273.756
L268.505 273.324
L268.684 273.253
L269.041 271.69
L269.22 271.484
L269.487 271.201
L269.844 269.045
L270.112 268.157
L271.898 268.109
L272.076 267.697
L272.344 267.68
L272.612 264.13
L272.791 263.323
L272.969 263.184
L273.326 260.939
L273.416 260.882
L273.594 259.985
L275.469 259.937
L275.737 258.941
L276.005 257.565
L276.094 257.565
L276.273 256.985
L276.54 256.968
L276.719 256.501
L276.808 256.447
L277.255 253.687
L279.04 253.66
L279.397 251.238
L279.576 250.975
L279.665 250.974
L279.844 250.697
L279.933 250.699
L280.201 249.414
L280.737 249.024
L280.915 248.48
L282.612 248.463
L282.79 247.663
L283.058 247.349
L283.236 246.794
L283.415 246.661
L283.504 246.645
L283.861 245.509
L284.04 245.512
L284.308 244.348
L284.576 244.252
L286.183 244.241
L286.361 243.081
L286.629 242.037
L287.076 241.903
L287.165 241.595
L287.343 240.591
L287.522 240.222
L287.7 238.297
L287.879 237.635
L288.058 237.27
L289.754 237.254
L290.379 234.883
L290.468 234.883
L290.647 234.637
L290.825 234.608
L291.004 234.041
L291.093 234.037
L291.272 233.28
L293.325 233.159
L293.504 232.414
L293.682 232.044
L293.861 231.848
L294.039 230.89
L294.307 230.799
L294.486 229.768
L294.664 228.796
L294.932 228.743
L295.111 227.562
L296.896 227.53
L297.164 226.416
L297.253 226.343
L297.521 225.485
L297.968 225.07
L298.146 224.407
L298.325 224.41
L298.593 223.83
L300.735 223.752
L300.914 223.264
L301.003 223.045
L301.182 222.104
L301.628 221.999
L301.717 221.888
L301.985 220.531
L302.164 220.351
L302.342 220.262
L304.039 220.21
L304.217 219.752
L304.396 219.516
L304.574 219.519
L304.753 219.247
L304.932 219.093
L305.11 218.067
L305.378 218.062
L305.914 216.95
L307.788 216.873
L307.878 216.81
L308.056 216.266
L308.235 214.819
L308.324 214.681
L308.503 214.038
L308.681 213.614
L308.86 212.197
L309.038 212.185
L309.217 210.384
L309.485 210.313
L311.181 210.304
L311.449 209.789
L311.717 209.331
L311.895 207.78
L312.342 207.325
L312.61 206.569
L312.788 206.433
L312.967 206.303
L314.574 206.287
L314.752 206.287
L314.931 205.709
L315.02 205.666
L315.288 205.316
L315.467 203.969
L315.734 203.826
L315.913 203.197
L316.449 201.509
L316.806 201.471
L318.413 201.467
L318.502 201.186
L318.681 200.234
L318.77 200.229
L318.948 199.986
L319.127 199.857
L319.306 198.987
L319.395 198.942
L319.573 198.055
L319.663 198.045
L319.752 197.911
L319.931 197.362
L321.895 197.34
L322.163 197.085
L322.43 195.906
L322.698 195.839
L322.877 195.558
L323.145 195.391
L323.412 194.613
L323.502 194.619
L323.77 193.729
L325.466 193.64
L325.734 192.171
L325.823 192.169
L326.18 191.003
L326.448 190.946
L326.627 190.649
L326.805 189.574
L327.073 188.44
L327.252 188.241
L329.216 188.092
L329.662 187.445
L329.841 187.018
L330.108 186.604
L330.466 186.497
L330.555 186.277
L330.733 185.634
L330.912 185.329
L332.608 185.305
L332.787 184.747
L332.965 184.34
L333.144 184.264
L333.59 183.775
L333.769 183.329
L334.037 183.086
L334.394 181.293
L336.269 181.214
L336.447 180.361
L336.715 179.65
L336.804 179.653
L337.34 178.558
L337.697 177.271
L337.787 177.268
L337.965 176.759
L339.751 176.683
L340.019 176.049
L340.197 176.063
L340.465 174.74
L341.001 172.982
L341.179 172.473
L341.447 172.235
L341.626 171.802
L343.322 171.762
L343.411 171.642
L343.59 171.101
L344.215 170.54
L344.84 170.36
L345.018 169.906
L345.375 169.865
L346.893 169.727
L347.072 169.542
L347.25 169.471
L347.607 168.167
L347.697 168.185
L347.875 167.582
L348.322 165.917
L348.947 165.447
L350.464 165.441
L350.732 164.162
L350.911 163.866
L351 163.809
L351.268 163.008
L351.357 163.007
L351.625 162.272
L352.339 159.928
L354.036 159.913
L354.482 158.804
L355.196 157.466
L355.375 157.141
L355.464 157.128
L355.732 156.544
L355.91 156.209
L357.607 156.124
L357.696 156.049
L358.142 154.925
L358.321 154.704
L358.946 151.022
L359.035 150.837
L359.214 150.121
L359.303 150.117
L359.482 149.79
L361.446 149.687
L361.624 148.93
L362.339 148.177
L362.428 148.166
L362.606 147.847
L362.696 147.852
L362.964 147.151
L364.838 147.132
L365.285 145.618
L365.463 145.586
L365.642 144.965
L366.178 144.505
L366.356 143.802
L366.624 143.691
L368.32 143.599
L368.499 143.264
L368.677 143.25
L368.856 143.13
L369.392 142.975
L369.66 141.892
L369.838 141.704
L369.927 141.705
L370.284 141.103
L371.892 141.09
L372.07 140.562
L372.249 140.431
L372.516 139.926
L373.052 139.674
L373.231 139.265
L373.32 139.217
L373.499 139.041
L373.766 138.866
L375.463 138.819
L375.731 138.468
L375.82 138.491
L375.998 138.238
L376.266 138.157
L377.07 137.746
L377.338 137.231
L379.034 137.223
L379.302 136.354
L379.659 136.148
L380.016 135.856
L380.284 135.218
L380.552 134.712
L380.73 133.826
L380.909 133.716
L382.605 133.685
L383.319 132.807
L383.409 132.808
L384.123 131.9
L384.212 131.871
L384.391 131.258
L386.355 131.246
L386.533 130.805
L386.801 130.731
L386.98 130.012
L387.248 128.78
L387.516 128.681
L387.605 128.683
L388.051 127.591
L389.748 127.586
L389.837 126.676
L389.926 126.694
L390.015 126.626
L390.64 123.606
L390.819 123.437
L391.087 122.791
L391.176 122.481
L391.265 122.509
L391.533 122.274
L392.962 122.232
L393.14 122.101
L393.854 122.106
L394.033 121.625
L394.301 121.285
L394.479 120.701
L394.747 120.212
L394.836 120.056
L395.015 119.554
L395.194 119.456
L397.158 119.434
L397.783 118.573
L397.961 118.519
L398.408 117.448
L398.586 117.45
L398.765 117.33
L400.461 117.318
L400.729 116.88
L400.818 116.889
L401.265 116.213
L401.443 115.909
L401.979 115.494
L402.336 114.973
L404.032 114.928
L404.211 114.757
L404.479 114.724
L404.747 114.185
L404.925 113.948
L405.372 113.74
L405.55 113.675
L405.729 113.212
L405.907 113.046
L407.604 113.018
L407.782 112.742
L408.318 112.655
L409.121 111.572
L409.211 111.556
L409.389 111.385
L411.264 111.331
L411.353 111.234
L411.532 110.735
L412.157 109.923
L412.335 109.593
L412.425 109.532
L412.871 108.659
L413.05 108.576
L414.746 108.456
L414.924 108.119
L415.014 108.025
L415.282 107.326
L415.639 107.215
L415.817 106.924
L416.264 106.665
L416.71 106.304
L417.692 106.288
L418.317 106.26
L418.764 105.629
L418.942 105.369
L419.299 105.377
L419.746 105.288
L419.924 105.348
L420.371 105.143
L422.067 105.132
L422.603 104.225
L422.692 104.185
L422.781 103.973
L422.96 102.939
L423.138 102.813
L423.317 102.646
L423.406 102.644
L423.585 102.274
L423.852 102.22
L425.46 102.203
L425.638 102.068
L425.727 102.089
L426.084 101.78
L426.263 101.797
L426.442 101.623
L426.888 101.467
L427.245 101.002
L429.209 100.913
L429.299 100.88
L429.656 100.433
L429.834 100.396
L430.102 100.303
L430.281 100.262
L430.548 99.993
L430.727 99.6576
L431.084 99.6294
L432.87 99.5714
L433.048 99.1229
L433.227 98.5313
L433.316 98.5694
L433.405 98.5878
L433.584 97.9668
L433.852 97.9746
L434.03 97.784
L434.12 97.8201
L434.298 97.7167
L435.995 97.7062
L436.173 97.7108
L436.441 97.0581
L436.53 97.0556
L436.709 96.881
L436.887 96.8572
L437.334 96.0243
L437.423 96.0553
L437.602 95.968
L437.869 95.7948
L438.048 95.552
L438.941 95.5213
L439.744 95.459
L439.923 95.1255
L440.101 95.0713
L440.369 94.8902
L440.637 94.3644
L440.905 94.2378
L441.084 93.6939
L441.262 93.7027
L441.441 93.3537
L441.619 92.9351
L443.316 92.9187
L443.583 92.717
L444.208 92.172
L444.565 91.6596
L444.744 91.6835
L445.012 91.3082
L445.19 91.144
L446.976 91.0756
L447.333 90.195
L447.422 90.2239
L447.601 90.017
L447.958 89.8535
L448.315 89.7504
L448.404 89.756
L448.672 89.3213
L450.636 89.2668
L450.904 88.7607
L451.172 88.7411
L452.244 87.3635
L454.118 87.3449
L454.297 86.891
L454.565 86.8272
L455.011 86.5871
L455.19 86.2954
L455.368 86.2093
L455.636 86.1573
L455.904 85.8792
L457.6 85.8617
L457.779 85.6557
L458.136 85.5599
L458.404 85.236
L458.493 85.224
L458.761 84.9277
L459.029 84.8212
L459.207 84.582
L459.297 84.5634
L459.475 84.3123
L461.172 84.3079
L461.261 84.0485
L461.35 84.1296
L461.529 84.0616
L461.707 84.1997
L461.886 84.1632
L462.243 83.3965
L462.421 83.3443
L462.689 82.9028
L463.404 82.788
L464.832 82.8285
L465.011 82.5351
L465.546 82.085
L465.725 81.9014
L466.171 81.8406
L466.35 81.7779
L466.618 81.6354
L468.671 81.5626
L468.85 81.7646
L469.564 80.7436
L469.832 80.7449
L470.278 80.6463
L472.064 80.5547
L472.242 80.4544
L472.599 80.4206
L472.778 80.177
L472.867 80.1781
L473.046 79.9783
L473.135 80.0312
L473.314 79.8395
L475.813 79.6822
L475.992 79.4679
L476.26 79.3978
L476.528 79.1357
L476.796 79.0343
L477.331 78.6544
L479.831 78.4818
L479.92 78.3931
L480.099 78.0406
L480.277 77.9638
L480.456 77.6392
L480.635 77.6553
L480.813 77.512
L482.688 77.4003
L482.867 77.3931
L483.313 77.1906
L483.581 77.2288
L483.67 77.1811
L483.849 76.7406
L484.027 76.8255
L484.295 76.5966
L484.563 76.6426
L486.348 76.4971
L486.973 76.1646
L487.152 75.899
L487.688 75.8383
L488.045 75.3449
L489.92 75.3031
L490.455 75.0648
L490.634 74.8823
L491.17 75.0277
L491.259 75.0955
L491.527 74.8766
L493.223 74.8159
L493.402 74.7486
L493.58 74.5633
L495.187 73.9978
L497.33 73.9453
L497.687 73.72
L497.955 73.6112
L498.491 73.4529
L498.669 73.5317
L500.723 73.4661
L500.99 73.1426
L501.169 73.1617
L501.437 73.0745
L501.615 73.0995
L501.794 72.98
L504.383 72.9137
L504.562 72.7979
L504.74 72.8313
L504.919 72.7095
L505.187 72.6749
L505.633 72.5646
L505.812 72.4606
L507.776 72.4701
L507.954 72.1593
L508.222 72.028
L508.401 71.8513
L508.668 71.681
L508.758 71.6182
L508.936 71.342
L509.115 71.3549
L509.293 71.1754
L509.472 71.2614
L511.347 71.1571
L511.615 71.0173
L511.883 70.9004
L512.061 70.578
L512.24 70.7095
L512.418 70.5616
L512.508 70.5483
L512.865 70.1718
L513.132 70.2264
L514.74 70.2166
L514.918 70.1232
L515.097 70.1729
L515.186 70.1573
L515.364 69.8986
L515.722 69.9718
L515.9 69.706
L516.257 69.4835
L516.972 69.2943
L518.311 69.2856
L518.311 69.2856" style="fill:none;stroke:#00bfbf;stroke-dasharray:5.000000,1.000000,2.000000,1.000000,5.000000,1.000000;stroke-dashoffset:0.0;"/>
   </g>
   <g id="line2d_5">
    <path clip-path="url(#p7ff5b81e1d)" d="
M72 381.72
L72.2678 383.109
L72.625 383.469
L72.8035 383.567
L73.2499 383.874
L74.6784 383.937
L75.4819 383.927
L75.7498 383.719
L76.2854 383.354
L76.8211 382.915
L77.3568 382.553
L78.5174 382.566
L79.0531 382.516
L79.321 382.261
L79.5888 382.136
L80.1245 381.742
L80.6602 381.388
L81.9101 381.305
L82.6243 381.269
L83.5171 380.7
L84.3206 380.419
L84.767 380.357
L85.9277 380.362
L86.4634 380.318
L86.7312 380.191
L86.9098 380.187
L87.1776 380.038
L87.3562 379.999
L88.4275 379.74
L90.1238 379.666
L91.463 379.343
L92.4451 379.409
L93.2486 379.401
L93.6058 379.344
L95.5699 379.08
L98.159 379.096
L98.5162 379.031
L100.302 379.108
L100.748 379.129
L102.891 378.977
L107.176 378.849
L107.891 378.886
L108.248 378.871
L108.605 378.879
L109.498 378.841
L110.658 378.927
L111.819 378.916
L112.801 378.923
L118.604 379.069
L119.051 379.054
L121.64 379.107
L124.14 379.192
L126.461 379.31
L133.157 379.62
L134.407 379.679
L135.21 379.721
L137.353 379.773
L138.603 379.788
L140.746 379.847
L141.638 379.885
L142.799 379.927
L147.442 380.184
L148.959 380.22
L150.12 380.265
L152.888 380.399
L156.37 380.501
L157.887 380.572
L167.976 381.053
L168.958 381.09
L174.672 381.321
L175.208 381.367
L177.797 381.489
L179.672 381.567
L180.922 381.622
L183.689 381.777
L184.404 381.789
L220.919 383.157
L224.758 383.287
L228.597 383.446
L232.347 383.568
L234.847 383.673
L237.614 383.768
L238.329 383.791
L263.148 384.504
L269.755 384.629
L271.452 384.666
L276.808 384.749
L277.344 384.767
L331.626 385.956
L339.929 386.066
L347.786 386.17
L351 386.236
L376.088 386.529
L394.569 386.701
L397.336 386.719
L409.746 386.824
L416.889 386.898
L439.209 386.985
L440.28 387.009
L460.547 387.116
L461.618 387.128
L480.367 387.233
L482.688 387.248
L496.259 387.339
L500.455 387.371
L518.311 387.447
L518.311 387.447" style="fill:none;stroke:#bf00bf;stroke-linecap:square;"/>
   </g>
   <g id="matplotlib.axis_1">
    <g id="xtick_1">
     <g id="line2d_6">
      <defs>
       <path d="
M0 0
L0 -4" id="mc7db9fdffb" style="stroke:#000000;stroke-width:0.5;"/>
      </defs>
      <g>
       <use style="stroke:#000000;stroke-width:0.5;" x="72.0" xlink:href="#mc7db9fdffb" y="388.8"/>
      </g>
     </g>
     <g id="line2d_7">
      <defs>
       <path d="
M0 0
L0 4" id="m5a7d422ac3" style="stroke:#000000;stroke-width:0.5;"/>
      </defs>
      <g>
       <use style="stroke:#000000;stroke-width:0.5;" x="72.0" xlink:href="#m5a7d422ac3" y="43.2"/>
      </g>
     </g>
     <g id="text_1">
      <!-- 0 -->
      <defs>
       <path d="
M56.9844 36.375
Q56.9844 16.7969 50.8594 7.64062
Q44.7344 -1.51562 31.8438 -1.51562
Q18.75 -1.51562 12.7188 7.76562
Q6.6875 17.0469 6.6875 36.2812
Q6.6875 55.6719 12.7812 64.9219
Q18.8906 74.1719 31.8438 74.1719
Q44.9219 74.1719 50.9531 64.7656
Q56.9844 55.375 56.9844 36.375
M44.1406 14.2031
Q45.8438 18.1719 46.4531 23.5156
Q47.0781 28.8594 47.0781 36.375
Q47.0781 43.7969 46.4531 49.2656
Q45.8438 54.7344 44.0938 58.5469
Q42.3906 62.3125 39.4219 64.2031
Q36.4688 66.1094 31.8438 66.1094
Q27.25 66.1094 24.2344 64.2031
Q21.2344 62.3125 19.4844 58.4531
Q17.8281 54.8281 17.2188 49.0156
Q16.6094 43.2188 16.6094 36.2812
Q16.6094 28.6562 17.1406 23.5312
Q17.6719 18.4062 19.4375 14.3594
Q21.0469 10.5469 24 8.54688
Q26.9531 6.54688 31.8438 6.54688
Q36.4219 6.54688 39.4531 8.45312
Q42.4844 10.3594 44.1406 14.2031" id="Verdana-30"/>
      </defs>
      <g transform="translate(68.9821875 401.918125)scale(0.12 -0.12)">
       <use xlink:href="#Verdana-30"/>
      </g>
     </g>
    </g>
    <g id="xtick_2">
     <g id="line2d_8">
      <g>
       <use style="stroke:#000000;stroke-width:0.5;" x="161.28" xlink:href="#mc7db9fdffb" y="388.8"/>
      </g>
     </g>
     <g id="line2d_9">
      <g>
       <use style="stroke:#000000;stroke-width:0.5;" x="161.28" xlink:href="#m5a7d422ac3" y="43.2"/>
      </g>
     </g>
     <g id="text_2">
      <!-- 1000 -->
      <defs>
       <path d="
M52.9375 0
L13.5781 0
L13.5781 7.42188
L28.7188 7.42188
L28.7188 56.1562
L13.5781 56.1562
L13.5781 62.7969
Q16.6562 62.7969 20.1719 63.2969
Q23.6875 63.8125 25.4844 64.7969
Q27.7344 66.0156 29.0312 67.8906
Q30.3281 69.7812 30.5156 72.9531
L38.0938 72.9531
L38.0938 7.42188
L52.9375 7.42188
z
" id="Verdana-31"/>
      </defs>
      <g transform="translate(147.2315625 401.918125)scale(0.12 -0.12)">
       <use xlink:href="#Verdana-31"/>
       <use x="63.57421875" xlink:href="#Verdana-30"/>
       <use x="127.1484375" xlink:href="#Verdana-30"/>
       <use x="190.72265625" xlink:href="#Verdana-30"/>
      </g>
     </g>
    </g>
    <g id="xtick_3">
     <g id="line2d_10">
      <g>
       <use style="stroke:#000000;stroke-width:0.5;" x="250.56" xlink:href="#mc7db9fdffb" y="388.8"/>
      </g>
     </g>
     <g id="line2d_11">
      <g>
       <use style="stroke:#000000;stroke-width:0.5;" x="250.56" xlink:href="#m5a7d422ac3" y="43.2"/>
      </g>
     </g>
     <g id="text_3">
      <!-- 2000 -->
      <defs>
       <path d="
M57.0781 0
L7.85938 0
L7.85938 10.2031
Q12.9844 14.5938 18.1406 18.9844
Q23.2969 23.3906 27.7344 27.7344
Q37.1094 36.8125 40.5781 42.1562
Q44.0469 47.5156 44.0469 53.7188
Q44.0469 59.375 40.3125 62.5625
Q36.5781 65.7656 29.8906 65.7656
Q25.4375 65.7656 20.2656 64.2031
Q15.0938 62.6406 10.1562 59.4219
L9.67188 59.4219
L9.67188 69.6719
Q13.1406 71.3906 18.9219 72.7969
Q24.7031 74.2188 30.125 74.2188
Q41.3125 74.2188 47.6562 68.8125
Q54 63.4219 54 54.2031
Q54 50.0469 52.9531 46.4531
Q51.9062 42.875 49.8594 39.6562
Q47.9531 36.625 45.3906 33.6875
Q42.8281 30.7656 39.1562 27.2031
Q33.9375 22.0781 28.3594 17.2656
Q22.7969 12.4531 17.9688 8.34375
L57.0781 8.34375
z
" id="Verdana-32"/>
      </defs>
      <g transform="translate(236.1684375 401.918125)scale(0.12 -0.12)">
       <use xlink:href="#Verdana-32"/>
       <use x="63.57421875" xlink:href="#Verdana-30"/>
       <use x="127.1484375" xlink:href="#Verdana-30"/>
       <use x="190.72265625" xlink:href="#Verdana-30"/>
      </g>
     </g>
    </g>
    <g id="xtick_4">
     <g id="line2d_12">
      <g>
       <use style="stroke:#000000;stroke-width:0.5;" x="339.84" xlink:href="#mc7db9fdffb" y="388.8"/>
      </g>
     </g>
     <g id="line2d_13">
      <g>
       <use style="stroke:#000000;stroke-width:0.5;" x="339.84" xlink:href="#m5a7d422ac3" y="43.2"/>
      </g>
     </g>
     <g id="text_4">
      <!-- 3000 -->
      <defs>
       <path d="
M50.6875 35.0156
Q53.0312 32.9062 54.5469 29.7344
Q56.0625 26.5625 56.0625 21.5312
Q56.0625 16.5469 54.25 12.3906
Q52.4375 8.25 49.1719 5.17188
Q45.5156 1.76562 40.5469 0.125
Q35.5938 -1.51562 29.6875 -1.51562
Q23.6406 -1.51562 17.7812 -0.0625
Q11.9219 1.375 8.15625 3.07812
L8.15625 13.2812
L8.89062 13.2812
Q13.0312 10.5469 18.6406 8.73438
Q24.2656 6.9375 29.5 6.9375
Q32.5625 6.9375 36.0312 7.95312
Q39.5 8.98438 41.6562 10.9844
Q43.8906 13.1406 44.9844 15.7188
Q46.0938 18.3125 46.0938 22.2656
Q46.0938 26.1719 44.8438 28.7344
Q43.6094 31.2969 41.4062 32.7656
Q39.2031 34.2812 36.0781 34.8438
Q32.9531 35.4062 29.3438 35.4062
L24.9531 35.4062
L24.9531 43.5
L28.375 43.5
Q35.7969 43.5 40.2031 46.5938
Q44.625 49.7031 44.625 55.6719
Q44.625 58.2969 43.5 60.2656
Q42.3906 62.25 40.375 63.5312
Q38.2812 64.7969 35.8906 65.2812
Q33.5 65.7656 30.4688 65.7656
Q25.8281 65.7656 20.5938 64.1094
Q15.375 62.4531 10.75 59.4219
L10.25 59.4219
L10.25 69.625
Q13.7188 71.3438 19.5 72.7812
Q25.2969 74.2188 30.7188 74.2188
Q36.0312 74.2188 40.0781 73.2344
Q44.1406 72.2656 47.4062 70.125
Q50.9219 67.7812 52.7344 64.4531
Q54.5469 61.1406 54.5469 56.6875
Q54.5469 50.6406 50.2656 46.125
Q46 41.6094 40.1875 40.4375
L40.1875 39.75
Q42.5312 39.3594 45.5469 38.1094
Q48.5781 36.8594 50.6875 35.0156" id="Verdana-33"/>
      </defs>
      <g transform="translate(325.46625 401.918125)scale(0.12 -0.12)">
       <use xlink:href="#Verdana-33"/>
       <use x="63.57421875" xlink:href="#Verdana-30"/>
       <use x="127.1484375" xlink:href="#Verdana-30"/>
       <use x="190.72265625" xlink:href="#Verdana-30"/>
      </g>
     </g>
    </g>
    <g id="xtick_5">
     <g id="line2d_14">
      <g>
       <use style="stroke:#000000;stroke-width:0.5;" x="429.12" xlink:href="#mc7db9fdffb" y="388.8"/>
      </g>
     </g>
     <g id="line2d_15">
      <g>
       <use style="stroke:#000000;stroke-width:0.5;" x="429.12" xlink:href="#m5a7d422ac3" y="43.2"/>
      </g>
     </g>
     <g id="text_5">
      <!-- 4000 -->
      <defs>
       <path d="
M58.7344 20.4531
L47.9531 20.4531
L47.9531 0
L38.5781 0
L38.5781 20.4531
L3.76562 20.4531
L3.76562 31.6875
L38.9688 72.7031
L47.9531 72.7031
L47.9531 28.2656
L58.7344 28.2656
z

M38.5781 28.2656
L38.5781 61.0781
L10.4062 28.2656
z
" id="Verdana-34"/>
      </defs>
      <g transform="translate(414.4828125 401.918125)scale(0.12 -0.12)">
       <use xlink:href="#Verdana-34"/>
       <use x="63.57421875" xlink:href="#Verdana-30"/>
       <use x="127.1484375" xlink:href="#Verdana-30"/>
       <use x="190.72265625" xlink:href="#Verdana-30"/>
      </g>
     </g>
    </g>
    <g id="xtick_6">
     <g id="line2d_16">
      <g>
       <use style="stroke:#000000;stroke-width:0.5;" x="518.4" xlink:href="#mc7db9fdffb" y="388.8"/>
      </g>
     </g>
     <g id="line2d_17">
      <g>
       <use style="stroke:#000000;stroke-width:0.5;" x="518.4" xlink:href="#m5a7d422ac3" y="43.2"/>
      </g>
     </g>
     <g id="text_6">
      <!-- 5000 -->
      <defs>
       <path d="
M56.5 23.0938
Q56.5 18.0156 54.6406 13.375
Q52.7812 8.73438 49.5625 5.5625
Q46.0469 2.15625 41.1875 0.3125
Q36.3281 -1.51562 29.9375 -1.51562
Q23.9688 -1.51562 18.4531 -0.265625
Q12.9375 0.984375 9.125 2.73438
L9.125 13.0312
L9.8125 13.0312
Q13.8125 10.5 19.1875 8.71875
Q24.5625 6.9375 29.7344 6.9375
Q33.2031 6.9375 36.4531 7.90625
Q39.7031 8.89062 42.2344 11.3281
Q44.3906 13.4219 45.4844 16.3438
Q46.5781 19.2812 46.5781 23.1406
Q46.5781 26.9062 45.2812 29.4844
Q44 32.0781 41.7031 33.6406
Q39.1562 35.5 35.5156 36.25
Q31.8906 37.0156 27.3906 37.0156
Q23.0938 37.0156 19.1094 36.4219
Q15.1406 35.8438 12.25 35.25
L12.25 72.7031
L56 72.7031
L56 64.1562
L21.6875 64.1562
L21.6875 44.8281
Q23.7812 45.0156 25.9688 45.1094
Q28.1719 45.2188 29.7812 45.2188
Q35.6875 45.2188 40.125 44.2188
Q44.5781 43.2188 48.2969 40.6719
Q52.2031 37.9844 54.3438 33.7344
Q56.5 29.5 56.5 23.0938" id="Verdana-35"/>
      </defs>
      <g transform="translate(504.084375 401.918125)scale(0.12 -0.12)">
       <use xlink:href="#Verdana-35"/>
       <use x="63.57421875" xlink:href="#Verdana-30"/>
       <use x="127.1484375" xlink:href="#Verdana-30"/>
       <use x="190.72265625" xlink:href="#Verdana-30"/>
      </g>
     </g>
    </g>
    <g id="text_7">
     <!-- Objective function exectuions -->
     <defs>
      <path d="
M57.0312 27.6875
Q57.0312 20.8438 55.0938 15.375
Q53.1719 9.90625 49.9062 6.20312
Q46.4375 2.34375 42.2812 0.40625
Q38.1406 -1.51562 33.1562 -1.51562
Q28.5156 -1.51562 25.0469 -0.40625
Q21.5781 0.6875 18.2188 2.54688
L17.625 0
L9.03125 0
L9.03125 75.9844
L18.2188 75.9844
L18.2188 48.8281
Q22.0781 52 26.4219 54.0312
Q30.7656 56.0625 36.1875 56.0625
Q45.8438 56.0625 51.4375 48.6406
Q57.0312 41.2188 57.0312 27.6875
M47.5625 27.4375
Q47.5625 37.2031 44.3281 42.25
Q41.1094 47.3125 33.9375 47.3125
Q29.9375 47.3125 25.8281 45.5781
Q21.7344 43.8438 18.2188 41.1094
L18.2188 9.85938
Q22.125 8.10938 24.9219 7.42188
Q27.7344 6.73438 31.2969 6.73438
Q38.9219 6.73438 43.2344 11.7344
Q47.5625 16.75 47.5625 27.4375" id="Verdana-62"/>
      <path d="
M56.2031 54.5469
L34.125 0
L24.9062 0
L2.98438 54.5469
L12.9375 54.5469
L29.8281 11.1406
L46.5781 54.5469
z
" id="Verdana-76"/>
      <path d="
M56.25 0
L44.6719 0
L29.2031 20.9531
L13.625 0
L2.9375 0
L24.2188 27.2031
L3.125 54.5469
L14.7031 54.5469
L30.0781 33.9375
L45.5156 54.5469
L56.25 54.5469
L34.8125 27.6875
z
" id="Verdana-78"/>
      <path d="
M54.6875 26.3125
L14.5 26.3125
Q14.5 21.2969 16.0156 17.5469
Q17.5312 13.8125 20.1719 11.4219
Q22.7031 9.07812 26.1875 7.90625
Q29.6875 6.73438 33.8906 6.73438
Q39.4531 6.73438 45.0938 8.95312
Q50.7344 11.1875 53.125 13.3281
L53.6094 13.3281
L53.6094 3.32812
Q48.9688 1.375 44.1406 0.046875
Q39.3125 -1.26562 33.9844 -1.26562
Q20.4062 -1.26562 12.7812 6.07812
Q5.17188 13.4219 5.17188 26.9531
Q5.17188 40.3281 12.4688 48.1875
Q19.7812 56.0625 31.6875 56.0625
Q42.7188 56.0625 48.7031 49.6094
Q54.6875 43.1719 54.6875 31.2969
z

M45.75 33.3438
Q45.7031 40.5781 42.1094 44.5312
Q38.5312 48.4844 31.2031 48.4844
Q23.8281 48.4844 19.4531 44.1406
Q15.0938 39.7969 14.5 33.3438
z
" id="Verdana-65"/>
      <path d="
M49.3594 3.42188
Q44.7812 1.21875 40.6562 0
Q36.5312 -1.21875 31.8906 -1.21875
Q25.9844 -1.21875 21.0469 0.515625
Q16.1094 2.25 12.5938 5.76562
Q9.03125 9.28125 7.07812 14.6406
Q5.125 20.0156 5.125 27.2031
Q5.125 40.5781 12.4688 48.1875
Q19.8281 55.8125 31.8906 55.8125
Q36.5781 55.8125 41.0938 54.4844
Q45.6094 53.1719 49.3594 51.2656
L49.3594 41.0625
L48.875 41.0625
Q44.6719 44.3438 40.2031 46.0938
Q35.75 47.8594 31.5 47.8594
Q23.6875 47.8594 19.1719 42.6094
Q14.6562 37.3594 14.6562 27.2031
Q14.6562 17.3281 19.0625 12.0312
Q23.4844 6.73438 31.5 6.73438
Q34.2812 6.73438 37.1562 7.46875
Q40.0469 8.20312 42.3281 9.375
Q44.3438 10.4062 46.0938 11.5469
Q47.8594 12.7031 48.875 13.5312
L49.3594 13.5312
z
" id="Verdana-63"/>
      <path d="
M26.0312 63.6719
L15.6719 63.6719
L15.6719 73.1875
L26.0312 73.1875
z

M25.4375 -1.3125
Q25.4375 -10.8906 20.5469 -15.7656
Q15.6719 -20.6562 7.46875 -20.6562
Q5.51562 -20.6562 2.3125 -20.2656
Q-0.875 -19.875 -3.03125 -19.2812
L-3.03125 -10.5469
L-2.54688 -10.5469
Q-1.17188 -11.0781 1.14062 -11.7656
Q3.46875 -12.4531 5.67188 -12.4531
Q9.1875 -12.4531 11.3281 -11.4688
Q13.4844 -10.5 14.5469 -8.54688
Q15.625 -6.59375 15.9375 -3.82812
Q16.2656 -1.07812 16.2656 2.875
L16.2656 46.8281
L4.89062 46.8281
L4.89062 54.5469
L25.4375 54.5469
z
" id="Verdana-6a"/>
      <path d="
M18.8906 63.6719
L8.54688 63.6719
L8.54688 73.1875
L18.8906 73.1875
z

M18.3125 0
L9.125 0
L9.125 54.5469
L18.3125 54.5469
z
" id="Verdana-69"/>
      <path d="
M54.6406 0
L45.4531 0
L45.4531 31.0625
Q45.4531 34.8125 45.0156 38.1094
Q44.5781 41.4062 43.4062 43.2656
Q42.1875 45.3125 39.8906 46.3125
Q37.5938 47.3125 33.9375 47.3125
Q30.1719 47.3125 26.0625 45.4531
Q21.9688 43.6094 18.2188 40.7188
L18.2188 0
L9.03125 0
L9.03125 54.5469
L18.2188 54.5469
L18.2188 48.4844
Q22.5156 52.0469 27.0938 54.0469
Q31.6875 56.0625 36.5312 56.0625
Q45.3594 56.0625 50 50.7344
Q54.6406 45.4062 54.6406 35.4062
z
" id="Verdana-6e"/>
      <path d="
M48 15.7188
Q48 8.25 41.8125 3.46875
Q35.6406 -1.3125 24.9531 -1.3125
Q18.8906 -1.3125 13.8438 0.125
Q8.79688 1.5625 5.375 3.26562
L5.375 13.5781
L5.85938 13.5781
Q10.2031 10.2969 15.5156 8.375
Q20.8438 6.45312 25.7344 6.45312
Q31.7812 6.45312 35.2031 8.40625
Q38.625 10.3594 38.625 14.5469
Q38.625 17.7812 36.7656 19.4375
Q34.9062 21.0938 29.6406 22.2656
Q27.6875 22.7031 24.5312 23.2812
Q21.3906 23.875 18.7969 24.5625
Q11.625 26.4688 8.60938 30.1562
Q5.60938 33.8438 5.60938 39.2031
Q5.60938 42.5781 7 45.5469
Q8.40625 48.5312 11.2344 50.875
Q13.9688 53.1719 18.1875 54.5156
Q22.4062 55.8594 27.6406 55.8594
Q32.5156 55.8594 37.5156 54.6562
Q42.5312 53.4688 45.8438 51.7656
L45.8438 41.9375
L45.3594 41.9375
Q41.8438 44.5312 36.8125 46.3125
Q31.7812 48.0938 26.9531 48.0938
Q21.9219 48.0938 18.4531 46.1562
Q14.9844 44.2344 14.9844 40.4375
Q14.9844 37.0625 17.0938 35.3594
Q19.1406 33.6406 23.7344 32.5625
Q26.2656 31.9844 29.4062 31.3906
Q32.5625 30.8125 34.6719 30.3281
Q41.0625 28.8594 44.5312 25.2969
Q48 21.6875 48 15.7188" id="Verdana-73"/>
      <path d="
M38.375 67.0938
L37.8906 67.0938
Q36.375 67.5312 33.9375 67.9844
Q31.5 68.4531 29.6406 68.4531
Q23.7344 68.4531 21.0625 65.8438
Q18.4062 63.2344 18.4062 56.3906
L18.4062 54.5469
L34.9688 54.5469
L34.9688 46.8281
L18.7031 46.8281
L18.7031 0
L9.51562 0
L9.51562 46.8281
L3.32812 46.8281
L3.32812 54.5469
L9.51562 54.5469
L9.51562 56.3438
Q9.51562 66.0625 14.3438 71.2656
Q19.1875 76.4688 28.3281 76.4688
Q31.3906 76.4688 33.8594 76.1719
Q36.3281 75.875 38.375 75.4844
z
" id="Verdana-66"/>
      <path id="Verdana-20"/>
      <path d="
M63.9688 64.3594
Q68.4062 59.4688 70.7656 52.3906
Q73.1406 45.3125 73.1406 36.3281
Q73.1406 27.3438 70.7188 20.2344
Q68.3125 13.1406 63.9688 8.40625
Q59.4688 3.46875 53.3438 0.96875
Q47.2188 -1.51562 39.3594 -1.51562
Q31.6875 -1.51562 25.4062 1.01562
Q19.1406 3.5625 14.75 8.40625
Q10.3594 13.2344 7.98438 20.2656
Q5.60938 27.2969 5.60938 36.3281
Q5.60938 45.2188 7.95312 52.2656
Q10.2969 59.3281 14.7969 64.3594
Q19.0938 69.1406 25.4688 71.6719
Q31.8438 74.2188 39.3594 74.2188
Q47.1719 74.2188 53.3906 71.6562
Q59.625 69.0938 63.9688 64.3594
M63.0938 36.3281
Q63.0938 50.4844 56.7344 58.1719
Q50.3906 65.875 39.4062 65.875
Q28.3281 65.875 22 58.1719
Q15.6719 50.4844 15.6719 36.3281
Q15.6719 22.0156 22.1094 14.4219
Q28.5625 6.84375 39.4062 6.84375
Q50.25 6.84375 56.6719 14.4219
Q63.0938 22.0156 63.0938 36.3281" id="Verdana-4f"/>
      <path d="
M55.5156 27.25
Q55.5156 13.9219 48.6719 6.20312
Q41.8438 -1.51562 30.375 -1.51562
Q18.7969 -1.51562 11.9844 6.20312
Q5.17188 13.9219 5.17188 27.25
Q5.17188 40.5781 11.9844 48.3125
Q18.7969 56.0625 30.375 56.0625
Q41.8438 56.0625 48.6719 48.3125
Q55.5156 40.5781 55.5156 27.25
M46.0469 27.25
Q46.0469 37.8438 41.8906 42.9844
Q37.75 48.1406 30.375 48.1406
Q22.9062 48.1406 18.7812 42.9844
Q14.6562 37.8438 14.6562 27.25
Q14.6562 17 18.7969 11.6875
Q22.9531 6.39062 30.375 6.39062
Q37.7031 6.39062 41.875 11.6406
Q46.0469 16.8906 46.0469 27.25" id="Verdana-6f"/>
      <path d="
M37.3594 0.484375
Q34.7656 -0.203125 31.7031 -0.640625
Q28.6562 -1.07812 26.2656 -1.07812
Q17.9219 -1.07812 13.5781 3.40625
Q9.23438 7.90625 9.23438 17.8281
L9.23438 46.8281
L3.03125 46.8281
L3.03125 54.5469
L9.23438 54.5469
L9.23438 70.2188
L18.4062 70.2188
L18.4062 54.5469
L37.3594 54.5469
L37.3594 46.8281
L18.4062 46.8281
L18.4062 21.9688
Q18.4062 17.6719 18.5938 15.25
Q18.7969 12.8438 19.9688 10.75
Q21.0469 8.79688 22.9219 7.89062
Q24.8125 6.98438 28.6562 6.98438
Q30.9062 6.98438 33.3438 7.64062
Q35.7969 8.29688 36.8594 8.73438
L37.3594 8.73438
z
" id="Verdana-74"/>
      <path d="
M54.25 0
L45.0625 0
L45.0625 6.0625
Q40.4375 2.39062 36.1875 0.4375
Q31.9375 -1.51562 26.8125 -1.51562
Q18.2188 -1.51562 13.4219 3.73438
Q8.64062 8.98438 8.64062 19.1406
L8.64062 54.5469
L17.8281 54.5469
L17.8281 23.4844
Q17.8281 19.3438 18.2188 16.375
Q18.6094 13.4219 19.875 11.3281
Q21.1875 9.1875 23.2812 8.20312
Q25.3906 7.23438 29.3906 7.23438
Q32.9531 7.23438 37.1719 9.07812
Q41.4062 10.9375 45.0625 13.8125
L45.0625 54.5469
L54.25 54.5469
z
" id="Verdana-75"/>
     </defs>
     <g transform="translate(206.5078125 418.509375)scale(0.12 -0.12)">
      <use xlink:href="#Verdana-4f"/>
      <use x="78.7109375" xlink:href="#Verdana-62"/>
      <use x="141.015625" xlink:href="#Verdana-6a"/>
      <use x="175.439453125" xlink:href="#Verdana-65"/>
      <use x="235.009765625" xlink:href="#Verdana-63"/>
      <use x="287.109375" xlink:href="#Verdana-74"/>
      <use x="326.513671875" xlink:href="#Verdana-69"/>
      <use x="353.955078125" xlink:href="#Verdana-76"/>
      <use x="412.259765625" xlink:href="#Verdana-65"/>
      <use x="471.830078125" xlink:href="#Verdana-20"/>
      <use x="506.986328125" xlink:href="#Verdana-66"/>
      <use x="542.142578125" xlink:href="#Verdana-75"/>
      <use x="605.423828125" xlink:href="#Verdana-6e"/>
      <use x="668.705078125" xlink:href="#Verdana-63"/>
      <use x="720.8046875" xlink:href="#Verdana-74"/>
      <use x="760.208984375" xlink:href="#Verdana-69"/>
      <use x="787.650390625" xlink:href="#Verdana-6f"/>
      <use x="848.34375" xlink:href="#Verdana-6e"/>
      <use x="911.625" xlink:href="#Verdana-20"/>
      <use x="946.78125" xlink:href="#Verdana-65"/>
      <use x="1006.3515625" xlink:href="#Verdana-78"/>
      <use x="1064.40625" xlink:href="#Verdana-65"/>
      <use x="1123.9765625" xlink:href="#Verdana-63"/>
      <use x="1176.076171875" xlink:href="#Verdana-74"/>
      <use x="1215.48046875" xlink:href="#Verdana-75"/>
      <use x="1278.76171875" xlink:href="#Verdana-69"/>
      <use x="1306.203125" xlink:href="#Verdana-6f"/>
      <use x="1366.896484375" xlink:href="#Verdana-6e"/>
      <use x="1430.177734375" xlink:href="#Verdana-73"/>
     </g>
    </g>
   </g>
   <g id="matplotlib.axis_2">
    <g id="ytick_1">
     <g id="line2d_18">
      <defs>
       <path d="
M0 0
L4 0" id="md7965d1ba0" style="stroke:#000000;stroke-width:0.5;"/>
      </defs>
      <g>
       <use style="stroke:#000000;stroke-width:0.5;" x="72.0" xlink:href="#md7965d1ba0" y="388.8"/>
      </g>
     </g>
     <g id="line2d_19">
      <defs>
       <path d="
M0 0
L-4 0" id="md9a1c1a7cd" style="stroke:#000000;stroke-width:0.5;"/>
      </defs>
      <g>
       <use style="stroke:#000000;stroke-width:0.5;" x="518.4" xlink:href="#md9a1c1a7cd" y="388.8"/>
      </g>
     </g>
     <g id="text_8">
      <!-- 0 -->
      <g transform="translate(61.964375 392.1515625)scale(0.12 -0.12)">
       <use xlink:href="#Verdana-30"/>
      </g>
     </g>
    </g>
    <g id="ytick_2">
     <g id="line2d_20">
      <g>
       <use style="stroke:#000000;stroke-width:0.5;" x="72.0" xlink:href="#md7965d1ba0" y="339.428571429"/>
      </g>
     </g>
     <g id="line2d_21">
      <g>
       <use style="stroke:#000000;stroke-width:0.5;" x="518.4" xlink:href="#md9a1c1a7cd" y="339.428571429"/>
      </g>
     </g>
     <g id="text_9">
      <!-- 1 -->
      <g transform="translate(63.276875 342.780133929)scale(0.12 -0.12)">
       <use xlink:href="#Verdana-31"/>
      </g>
     </g>
    </g>
    <g id="ytick_3">
     <g id="line2d_22">
      <g>
       <use style="stroke:#000000;stroke-width:0.5;" x="72.0" xlink:href="#md7965d1ba0" y="290.057142857"/>
      </g>
     </g>
     <g id="line2d_23">
      <g>
       <use style="stroke:#000000;stroke-width:0.5;" x="518.4" xlink:href="#md9a1c1a7cd" y="290.057142857"/>
      </g>
     </g>
     <g id="text_10">
      <!-- 2 -->
      <g transform="translate(62.09375 293.408705357)scale(0.12 -0.12)">
       <use xlink:href="#Verdana-32"/>
      </g>
     </g>
    </g>
    <g id="ytick_4">
     <g id="line2d_24">
      <g>
       <use style="stroke:#000000;stroke-width:0.5;" x="72.0" xlink:href="#md7965d1ba0" y="240.685714286"/>
      </g>
     </g>
     <g id="line2d_25">
      <g>
       <use style="stroke:#000000;stroke-width:0.5;" x="518.4" xlink:href="#md9a1c1a7cd" y="240.685714286"/>
      </g>
     </g>
     <g id="text_11">
      <!-- 3 -->
      <g transform="translate(62.25125 244.037276786)scale(0.12 -0.12)">
       <use xlink:href="#Verdana-33"/>
      </g>
     </g>
    </g>
    <g id="ytick_5">
     <g id="line2d_26">
      <g>
       <use style="stroke:#000000;stroke-width:0.5;" x="72.0" xlink:href="#md7965d1ba0" y="191.314285714"/>
      </g>
     </g>
     <g id="line2d_27">
      <g>
       <use style="stroke:#000000;stroke-width:0.5;" x="518.4" xlink:href="#md9a1c1a7cd" y="191.314285714"/>
      </g>
     </g>
     <g id="text_12">
      <!-- 4 -->
      <g transform="translate(61.40375 194.665848214)scale(0.12 -0.12)">
       <use xlink:href="#Verdana-34"/>
      </g>
     </g>
    </g>
    <g id="ytick_6">
     <g id="line2d_28">
      <g>
       <use style="stroke:#000000;stroke-width:0.5;" x="72.0" xlink:href="#md7965d1ba0" y="141.942857143"/>
      </g>
     </g>
     <g id="line2d_29">
      <g>
       <use style="stroke:#000000;stroke-width:0.5;" x="518.4" xlink:href="#md9a1c1a7cd" y="141.942857143"/>
      </g>
     </g>
     <g id="text_13">
      <!-- 5 -->
      <g transform="translate(62.315 145.294419643)scale(0.12 -0.12)">
       <use xlink:href="#Verdana-35"/>
      </g>
     </g>
    </g>
    <g id="ytick_7">
     <g id="line2d_30">
      <g>
       <use style="stroke:#000000;stroke-width:0.5;" x="72.0" xlink:href="#md7965d1ba0" y="92.5714285714"/>
      </g>
     </g>
     <g id="line2d_31">
      <g>
       <use style="stroke:#000000;stroke-width:0.5;" x="518.4" xlink:href="#md9a1c1a7cd" y="92.5714285714"/>
      </g>
     </g>
     <g id="text_14">
      <!-- 6 -->
      <defs>
       <path d="
M58.1562 23.5781
Q58.1562 12.5 50.8594 5.48438
Q43.5625 -1.51562 32.9531 -1.51562
Q27.5938 -1.51562 23.1875 0.140625
Q18.7969 1.8125 15.4375 5.07812
Q11.2344 9.125 8.95312 15.8125
Q6.6875 22.5156 6.6875 31.9375
Q6.6875 41.6094 8.76562 49.0781
Q10.8438 56.5469 15.375 62.3594
Q19.6719 67.875 26.4531 70.9688
Q33.25 74.0781 42.2812 74.0781
Q45.1719 74.0781 47.125 73.8281
Q49.0781 73.5781 51.0781 72.9531
L51.0781 63.625
L50.5938 63.625
Q49.2188 64.3594 46.4531 65.0156
Q43.7031 65.6719 40.8281 65.6719
Q30.3281 65.6719 24.0781 59.1094
Q17.8281 52.5469 16.7969 41.3594
Q20.9062 43.8438 24.875 45.1406
Q28.8594 46.4375 34.0781 46.4375
Q38.7188 46.4375 42.25 45.5781
Q45.7969 44.7344 49.5156 42.1406
Q53.8125 39.1562 55.9844 34.6094
Q58.1562 30.0781 58.1562 23.5781
M48.25 23.1875
Q48.25 27.7344 46.9062 30.7031
Q45.5625 33.6875 42.4844 35.8906
Q40.2344 37.4531 37.5 37.9375
Q34.7656 38.4219 31.7812 38.4219
Q27.6406 38.4219 24.0781 37.4375
Q20.5156 36.4688 16.75 34.4219
Q16.6562 33.3438 16.5938 32.3438
Q16.5469 31.3438 16.5469 29.8281
Q16.5469 22.125 18.1406 17.6562
Q19.7344 13.1875 22.5156 10.5938
Q24.75 8.45312 27.3594 7.45312
Q29.9844 6.45312 33.0625 6.45312
Q40.1406 6.45312 44.1875 10.7656
Q48.25 15.0938 48.25 23.1875" id="Verdana-36"/>
      </defs>
      <g transform="translate(61.82375 95.9229910714)scale(0.12 -0.12)">
       <use xlink:href="#Verdana-36"/>
      </g>
     </g>
    </g>
    <g id="ytick_8">
     <g id="line2d_32">
      <g>
       <use style="stroke:#000000;stroke-width:0.5;" x="72.0" xlink:href="#md7965d1ba0" y="43.2"/>
      </g>
     </g>
     <g id="line2d_33">
      <g>
       <use style="stroke:#000000;stroke-width:0.5;" x="518.4" xlink:href="#md9a1c1a7cd" y="43.2"/>
      </g>
     </g>
     <g id="text_15">
      <!-- 7 -->
      <defs>
       <path d="
M57.2812 61.8125
L24.3594 0
L13.9219 0
L48.9219 64.1562
L7.51562 64.1562
L7.51562 72.7031
L57.2812 72.7031
z
" id="Verdana-37"/>
      </defs>
      <g transform="translate(62.028125 46.5515625)scale(0.12 -0.12)">
       <use xlink:href="#Verdana-37"/>
      </g>
     </g>
    </g>
    <g id="text_16">
     <!-- Standard Deviation -->
     <defs>
      <path d="
M51.4219 0
L42.2812 0
L42.2812 5.8125
Q41.0625 4.98438 38.9844 3.48438
Q36.9219 2 34.9688 1.125
Q32.6719 0 29.6875 -0.75
Q26.7031 -1.51562 22.7031 -1.51562
Q15.3281 -1.51562 10.2031 3.35938
Q5.07812 8.25 5.07812 15.8281
Q5.07812 22.0156 7.73438 25.8438
Q10.4062 29.6875 15.3281 31.8906
Q20.3125 34.0781 27.2969 34.8594
Q34.2812 35.6406 42.2812 36.0312
L42.2812 37.4531
Q42.2812 40.5781 41.1875 42.625
Q40.0938 44.6719 38.0312 45.8438
Q36.0781 46.9688 33.3438 47.3594
Q30.6094 47.75 27.6406 47.75
Q24.0312 47.75 19.5781 46.7969
Q15.1406 45.8438 10.4062 44.0469
L9.90625 44.0469
L9.90625 53.375
Q12.5938 54.1094 17.6719 54.9844
Q22.75 55.8594 27.6875 55.8594
Q33.4531 55.8594 37.7188 54.9062
Q42 53.9531 45.125 51.6562
Q48.1875 49.4219 49.7969 45.8438
Q51.4219 42.2812 51.4219 37.0156
z

M42.2812 13.4219
L42.2812 28.6094
Q38.0938 28.375 32.3906 27.875
Q26.7031 27.3906 23.3906 26.4688
Q19.4375 25.3438 16.9844 22.9688
Q14.5469 20.6094 14.5469 16.4531
Q14.5469 11.7656 17.375 9.39062
Q20.2188 7.03125 26.0312 7.03125
Q30.8594 7.03125 34.8594 8.90625
Q38.875 10.7969 42.2812 13.4219" id="Verdana-61"/>
      <path d="
M71.1875 36.2812
Q71.1875 26.375 66.8594 18.3125
Q62.5469 10.25 55.375 5.8125
Q50.3906 2.73438 44.2656 1.35938
Q38.1406 0 28.125 0
L9.76562 0
L9.76562 72.7031
L27.9375 72.7031
Q38.5781 72.7031 44.8438 71.1562
Q51.125 69.625 55.4688 66.9375
Q62.8906 62.3125 67.0312 54.5938
Q71.1875 46.875 71.1875 36.2812
M61.0781 36.4219
Q61.0781 44.9688 58.0938 50.8281
Q55.125 56.6875 49.2188 60.0625
Q44.9219 62.5 40.0781 63.4531
Q35.25 64.4062 28.5156 64.4062
L19.4375 64.4062
L19.4375 8.29688
L28.5156 8.29688
Q35.5 8.29688 40.7031 9.32812
Q45.9062 10.3594 50.25 13.1406
Q55.6719 16.6094 58.375 22.2656
Q61.0781 27.9375 61.0781 36.4219" id="Verdana-44"/>
      <path d="
M43.0625 44.5312
L42.5781 44.5312
Q40.5312 45.0156 38.5938 45.2344
Q36.6719 45.4531 34.0312 45.4531
Q29.7812 45.4531 25.8281 43.5781
Q21.875 41.7031 18.2188 38.7188
L18.2188 0
L9.03125 0
L9.03125 54.5469
L18.2188 54.5469
L18.2188 46.4844
Q23.6875 50.875 27.8594 52.7031
Q32.0312 54.5469 36.375 54.5469
Q38.7656 54.5469 39.8438 54.4219
Q40.9219 54.2969 43.0625 53.9531
z
" id="Verdana-72"/>
      <path d="
M62.5938 20.75
Q62.5938 16.5 60.6094 12.3438
Q58.6406 8.20312 55.0781 5.32812
Q51.1719 2.20312 45.9688 0.4375
Q40.7656 -1.3125 33.4531 -1.3125
Q25.5938 -1.3125 19.3125 0.140625
Q13.0312 1.60938 6.54688 4.5
L6.54688 16.6094
L7.23438 16.6094
Q12.75 12.0156 19.9688 9.51562
Q27.2031 7.03125 33.5469 7.03125
Q42.5312 7.03125 47.5312 10.3906
Q52.5469 13.7656 52.5469 19.3906
Q52.5469 24.2188 50.1719 26.5156
Q47.7969 28.8125 42.9688 30.0781
Q39.3125 31.0625 35.0312 31.6875
Q30.7656 32.3281 25.9844 33.2969
Q16.3125 35.3594 11.6406 40.3125
Q6.98438 45.2656 6.98438 53.2188
Q6.98438 62.3594 14.6875 68.1875
Q22.4062 74.0312 34.2812 74.0312
Q41.9375 74.0312 48.3281 72.5625
Q54.7344 71.0938 59.6719 68.9531
L59.6719 57.5156
L58.9844 57.5156
Q54.8281 61.0312 48.0625 63.3438
Q41.3125 65.6719 34.2344 65.6719
Q26.4688 65.6719 21.75 62.4531
Q17.0469 59.2344 17.0469 54.1562
Q17.0469 49.6094 19.3906 47.0156
Q21.7344 44.4375 27.6406 43.0625
Q30.7656 42.3906 36.5156 41.4062
Q42.2812 40.4375 46.2969 39.4062
Q54.3906 37.25 58.4844 32.9062
Q62.5938 28.5625 62.5938 20.75" id="Verdana-53"/>
      <path d="
M53.2656 0
L44.0938 0
L44.0938 5.71875
Q40.1406 2.29688 35.8438 0.390625
Q31.5469 -1.51562 26.5156 -1.51562
Q16.75 -1.51562 11.0156 6
Q5.28125 13.5312 5.28125 26.8594
Q5.28125 33.7969 7.25 39.2031
Q9.23438 44.625 12.5938 48.4375
Q15.9219 52.1562 20.3281 54.1094
Q24.75 56.0625 29.5 56.0625
Q33.7969 56.0625 37.1094 55.1562
Q40.4375 54.25 44.0938 52.3438
L44.0938 75.9844
L53.2656 75.9844
z

M44.0938 13.4219
L44.0938 44.7344
Q40.375 46.3906 37.4375 47.0156
Q34.5156 47.6562 31.0625 47.6562
Q23.3438 47.6562 19.0469 42.2812
Q14.75 36.9219 14.75 27.0469
Q14.75 17.3281 18.0625 12.2812
Q21.3906 7.23438 28.7188 7.23438
Q32.625 7.23438 36.625 8.95312
Q40.625 10.6875 44.0938 13.4219" id="Verdana-64"/>
     </defs>
     <g transform="translate(53.98875 273.5465625)rotate(-90.0)scale(0.12 -0.12)">
      <use xlink:href="#Verdana-53"/>
      <use x="68.359375" xlink:href="#Verdana-74"/>
      <use x="107.763671875" xlink:href="#Verdana-61"/>
      <use x="167.822265625" xlink:href="#Verdana-6e"/>
      <use x="231.103515625" xlink:href="#Verdana-64"/>
      <use x="293.408203125" xlink:href="#Verdana-61"/>
      <use x="353.466796875" xlink:href="#Verdana-72"/>
      <use x="396.142578125" xlink:href="#Verdana-64"/>
      <use x="458.447265625" xlink:href="#Verdana-20"/>
      <use x="493.603515625" xlink:href="#Verdana-44"/>
      <use x="570.654296875" xlink:href="#Verdana-65"/>
      <use x="630.224609375" xlink:href="#Verdana-76"/>
      <use x="689.404296875" xlink:href="#Verdana-69"/>
      <use x="716.845703125" xlink:href="#Verdana-61"/>
      <use x="776.904296875" xlink:href="#Verdana-74"/>
      <use x="816.30859375" xlink:href="#Verdana-69"/>
      <use x="843.75" xlink:href="#Verdana-6f"/>
      <use x="904.443359375" xlink:href="#Verdana-6e"/>
     </g>
    </g>
   </g>
   <g id="patch_3">
    <path d="
M72 43.2
L518.4 43.2" style="fill:none;stroke:#000000;"/>
   </g>
   <g id="patch_4">
    <path d="
M72 388.8
L72 43.2" style="fill:none;stroke:#000000;"/>
   </g>
   <g id="patch_5">
    <path d="
M518.4 388.8
L518.4 43.2" style="fill:none;stroke:#000000;"/>
   </g>
   <g id="patch_6">
    <path d="
M72 388.8
L518.4 388.8" style="fill:none;stroke:#000000;"/>
   </g>
   <g id="text_17">
    <!-- Easom Standard Deviation -->
    <defs>
     <path d="
M88.625 0
L79.4375 0
L79.4375 31.0625
Q79.4375 34.5781 79.125 37.8438
Q78.8125 41.1094 77.7812 43.0625
Q76.6562 45.1719 74.5625 46.2344
Q72.4688 47.3125 68.5 47.3125
Q64.6562 47.3125 60.7969 45.375
Q56.9375 43.4531 53.0781 40.4844
Q53.2188 39.3594 53.3125 37.8594
Q53.4219 36.375 53.4219 34.9062
L53.4219 0
L44.2344 0
L44.2344 31.0625
Q44.2344 34.6719 43.9219 37.9062
Q43.6094 41.1562 42.5781 43.1094
Q41.4531 45.2188 39.3438 46.2656
Q37.25 47.3125 33.2969 47.3125
Q29.5469 47.3125 25.75 45.4531
Q21.9688 43.6094 18.2188 40.7188
L18.2188 0
L9.03125 0
L9.03125 54.5469
L18.2188 54.5469
L18.2188 48.4844
Q22.5156 52.0469 26.7812 54.0469
Q31.0625 56.0625 35.8906 56.0625
Q41.4531 56.0625 45.3281 53.7188
Q49.2188 51.375 51.125 47.2188
Q56.6875 51.9062 61.2812 53.9844
Q65.875 56.0625 71.0938 56.0625
Q80.0781 56.0625 84.3438 50.6094
Q88.625 45.1719 88.625 35.4062
z
" id="Verdana-6d"/>
     <path d="
M57.6719 0
L9.76562 0
L9.76562 72.7031
L57.6719 72.7031
L57.6719 64.1094
L19.4375 64.1094
L19.4375 44.1875
L57.6719 44.1875
L57.6719 35.5938
L19.4375 35.5938
L19.4375 8.59375
L57.6719 8.59375
z
" id="Verdana-45"/>
    </defs>
    <g transform="translate(199.612125 38.2)scale(0.144 -0.144)">
     <use xlink:href="#Verdana-45"/>
     <use x="63.232421875" xlink:href="#Verdana-61"/>
     <use x="123.291015625" xlink:href="#Verdana-73"/>
     <use x="175.390625" xlink:href="#Verdana-6f"/>
     <use x="236.083984375" xlink:href="#Verdana-6d"/>
     <use x="333.349609375" xlink:href="#Verdana-20"/>
     <use x="368.505859375" xlink:href="#Verdana-53"/>
     <use x="436.865234375" xlink:href="#Verdana-74"/>
     <use x="476.26953125" xlink:href="#Verdana-61"/>
     <use x="536.328125" xlink:href="#Verdana-6e"/>
     <use x="599.609375" xlink:href="#Verdana-64"/>
     <use x="661.9140625" xlink:href="#Verdana-61"/>
     <use x="721.97265625" xlink:href="#Verdana-72"/>
     <use x="764.6484375" xlink:href="#Verdana-64"/>
     <use x="826.953125" xlink:href="#Verdana-20"/>
     <use x="862.109375" xlink:href="#Verdana-44"/>
     <use x="939.16015625" xlink:href="#Verdana-65"/>
     <use x="998.73046875" xlink:href="#Verdana-76"/>
     <use x="1057.91015625" xlink:href="#Verdana-69"/>
     <use x="1085.3515625" xlink:href="#Verdana-61"/>
     <use x="1145.41015625" xlink:href="#Verdana-74"/>
     <use x="1184.814453125" xlink:href="#Verdana-69"/>
     <use x="1212.255859375" xlink:href="#Verdana-6f"/>
     <use x="1272.94921875" xlink:href="#Verdana-6e"/>
    </g>
   </g>
   <g id="legend_1">
    <g id="patch_7">
     <path d="
M79.2 159.919
L183.22 159.919
L183.22 50.4
L79.2 50.4
L79.2 159.919
z
" style="fill:#ffffff;stroke:#000000;"/>
    </g>
    <g id="line2d_34">
     <path d="
M89.28 62.0617
L109.44 62.0617" style="fill:none;stroke:#0000ff;stroke-dasharray:6.000000,2.000000;stroke-dashoffset:0.0;"/>
    </g>
    <g id="line2d_35"/>
    <g id="text_18">
     <!-- AMPGO -->
     <defs>
      <path d="
M74.5156 0
L64.8438 0
L64.8438 62.6406
L44.625 20.0156
L38.875 20.0156
L18.7969 62.6406
L18.7969 0
L9.76562 0
L9.76562 72.7031
L22.9531 72.7031
L42.3281 32.2344
L61.0781 72.7031
L74.5156 72.7031
z
" id="Verdana-4d"/>
      <path d="
M57.3281 50.7344
Q57.3281 45.9062 55.6406 41.7656
Q53.9531 37.6406 50.9219 34.625
Q47.1719 30.8594 42.0469 28.9688
Q36.9219 27.0938 29.1094 27.0938
L19.4375 27.0938
L19.4375 0
L9.76562 0
L9.76562 72.7031
L29.5 72.7031
Q36.0312 72.7031 40.5781 71.6094
Q45.125 70.5156 48.6406 68.1719
Q52.7812 65.375 55.0469 61.2188
Q57.3281 57.0781 57.3281 50.7344
M47.2656 50.4844
Q47.2656 54.25 45.9375 57.0312
Q44.625 59.8125 41.9375 61.5781
Q39.5938 63.0938 36.5938 63.75
Q33.5938 64.4062 29 64.4062
L19.4375 64.4062
L19.4375 35.3594
L27.5938 35.3594
Q33.4531 35.3594 37.1094 36.4062
Q40.7656 37.4531 43.0625 39.75
Q45.3594 42.0938 46.3125 44.6719
Q47.2656 47.2656 47.2656 50.4844" id="Verdana-50"/>
      <path d="
M70.4062 5.375
Q64.4531 2.64062 57.3906 0.609375
Q50.3438 -1.42188 43.75 -1.42188
Q35.25 -1.42188 28.1719 0.921875
Q21.0938 3.26562 16.1094 7.95312
Q11.0781 12.7031 8.34375 19.7969
Q5.60938 26.9062 5.60938 36.4219
Q5.60938 53.8594 15.7969 63.9375
Q25.9844 74.0312 43.75 74.0312
Q49.9531 74.0312 56.4219 72.5312
Q62.8906 71.0469 70.3594 67.4844
L70.3594 56
L69.4844 56
Q67.9688 57.1719 65.0781 59.0781
Q62.2031 60.9844 59.4219 62.25
Q56.0625 63.7656 51.7812 64.7656
Q47.5156 65.7656 42.0938 65.7656
Q29.8906 65.7656 22.7812 57.9219
Q15.6719 50.0938 15.6719 36.7188
Q15.6719 22.6094 23.0938 14.7656
Q30.5156 6.9375 43.3125 6.9375
Q48 6.9375 52.6562 7.85938
Q57.3281 8.79688 60.8438 10.25
L60.8438 28.0781
L41.3594 28.0781
L41.3594 36.5781
L70.4062 36.5781
z
" id="Verdana-47"/>
      <path d="
M67.0938 0
L56.7812 0
L49.6562 20.2656
L18.2188 20.2656
L11.0781 0
L1.26562 0
L27.7344 72.7031
L40.625 72.7031
z

M46.6875 28.5625
L33.9375 64.2656
L21.1406 28.5625
z
" id="Verdana-41"/>
     </defs>
     <g transform="translate(125.28 67.10175)scale(0.144 -0.144)">
      <use xlink:href="#Verdana-41"/>
      <use x="68.359375" xlink:href="#Verdana-4d"/>
      <use x="152.63671875" xlink:href="#Verdana-50"/>
      <use x="212.939453125" xlink:href="#Verdana-47"/>
      <use x="290.478515625" xlink:href="#Verdana-4f"/>
     </g>
    </g>
    <g id="line2d_36">
     <path d="
M89.28 83.1015
L109.44 83.1015" style="fill:none;stroke:#008000;stroke-dasharray:1.000000,1.000000;stroke-dashoffset:0.0;"/>
    </g>
    <g id="line2d_37"/>
    <g id="text_19">
     <!-- Anneal -->
     <defs>
      <path d="
M18.3125 0
L9.125 0
L9.125 75.9844
L18.3125 75.9844
z
" id="Verdana-6c"/>
     </defs>
     <g transform="translate(125.28 88.1415)scale(0.144 -0.144)">
      <use xlink:href="#Verdana-41"/>
      <use x="68.359375" xlink:href="#Verdana-6e"/>
      <use x="131.640625" xlink:href="#Verdana-6e"/>
      <use x="194.921875" xlink:href="#Verdana-65"/>
      <use x="254.4921875" xlink:href="#Verdana-61"/>
      <use x="314.55078125" xlink:href="#Verdana-6c"/>
     </g>
    </g>
    <g id="line2d_38">
     <path d="
M89.28 104.141
L109.44 104.141" style="fill:none;stroke:#ff0000;stroke-dasharray:3.000000,6.000000;stroke-dashoffset:0.0;"/>
    </g>
    <g id="line2d_39"/>
    <g id="text_20">
     <!-- BSA -->
     <defs>
      <path d="
M64.5938 22.3594
Q64.5938 16.9375 62.5469 12.7812
Q60.5 8.64062 57.0312 5.95312
Q52.9375 2.73438 48.0156 1.35938
Q43.1094 0 35.5469 0
L9.76562 0
L9.76562 72.7031
L31.2969 72.7031
Q39.2656 72.7031 43.2188 72.1094
Q47.1719 71.5312 50.7812 69.6719
Q54.7812 67.5781 56.5938 64.2812
Q58.4062 60.9844 58.4062 56.3906
Q58.4062 51.2188 55.7656 47.5781
Q53.125 43.9531 48.7344 41.75
L48.7344 41.3594
Q56.1094 39.8438 60.3438 34.8906
Q64.5938 29.9375 64.5938 22.3594
M48.3438 55.125
Q48.3438 57.7656 47.4531 59.5625
Q46.5781 61.375 44.625 62.5
Q42.3281 63.8125 39.0625 64.125
Q35.7969 64.4531 30.9531 64.4531
L19.4375 64.4531
L19.4375 43.4531
L31.9375 43.4531
Q36.4688 43.4531 39.1562 43.9219
Q41.8438 44.3906 44.1406 45.8438
Q46.4375 47.3125 47.3906 49.625
Q48.3438 51.9531 48.3438 55.125
M54.5469 21.9688
Q54.5469 26.375 53.2188 28.9531
Q51.9062 31.5469 48.4375 33.3438
Q46.0938 34.5781 42.75 34.9375
Q39.4062 35.2969 34.625 35.2969
L19.4375 35.2969
L19.4375 8.25
L32.2344 8.25
Q38.5781 8.25 42.625 8.90625
Q46.6875 9.57812 49.2656 11.3281
Q52 13.2344 53.2656 15.6719
Q54.5469 18.1094 54.5469 21.9688" id="Verdana-42"/>
     </defs>
     <g transform="translate(125.28 109.18125)scale(0.144 -0.144)">
      <use xlink:href="#Verdana-42"/>
      <use x="68.5546875" xlink:href="#Verdana-53"/>
      <use x="135.9140625" xlink:href="#Verdana-41"/>
     </g>
    </g>
    <g id="line2d_40">
     <path d="
M89.28 125.181
L109.44 125.181" style="fill:none;stroke:#00bfbf;stroke-dasharray:5.000000,1.000000,2.000000,1.000000,5.000000,1.000000;stroke-dashoffset:0.0;"/>
    </g>
    <g id="line2d_41"/>
    <g id="text_21">
     <!-- Cuckoo -->
     <defs>
      <path d="
M58.5469 0
L46.4375 0
L24.5625 23.875
L18.6094 18.2188
L18.6094 0
L9.42188 0
L9.42188 75.9844
L18.6094 75.9844
L18.6094 27.25
L45.125 54.5469
L56.6875 54.5469
L31.3438 29.3438
z
" id="Verdana-6b"/>
      <path d="
M65.9219 5.28125
Q63.2344 4.10938 61.0625 3.07812
Q58.8906 2.04688 55.375 0.921875
Q52.3906 0 48.8906 -0.65625
Q45.4062 -1.3125 41.2188 -1.3125
Q33.2969 -1.3125 26.8281 0.90625
Q20.3594 3.125 15.5781 7.85938
Q10.8906 12.5 8.25 19.6562
Q5.60938 26.8125 5.60938 36.2812
Q5.60938 45.2656 8.14062 52.3438
Q10.6875 59.4219 15.4844 64.3125
Q20.125 69.0469 26.6875 71.5312
Q33.25 74.0312 41.2656 74.0312
Q47.125 74.0312 52.9531 72.6094
Q58.7969 71.1875 65.9219 67.625
L65.9219 56.1562
L65.1875 56.1562
Q59.1875 61.1875 53.2656 63.4688
Q47.3594 65.7656 40.625 65.7656
Q35.1094 65.7656 30.6875 63.9844
Q26.2656 62.2031 22.7969 58.4531
Q19.4375 54.7812 17.5469 49.1875
Q15.6719 43.6094 15.6719 36.2812
Q15.6719 28.6094 17.75 23.0938
Q19.8281 17.5781 23.0938 14.1094
Q26.5156 10.5 31.0781 8.76562
Q35.6406 7.03125 40.7188 7.03125
Q47.7031 7.03125 53.7969 9.42188
Q59.9062 11.8125 65.2344 16.6094
L65.9219 16.6094
z
" id="Verdana-43"/>
     </defs>
     <g transform="translate(125.28 130.221)scale(0.144 -0.144)">
      <use xlink:href="#Verdana-43"/>
      <use x="69.82421875" xlink:href="#Verdana-75"/>
      <use x="133.10546875" xlink:href="#Verdana-63"/>
      <use x="185.205078125" xlink:href="#Verdana-6b"/>
      <use x="243.384765625" xlink:href="#Verdana-6f"/>
      <use x="304.078125" xlink:href="#Verdana-6f"/>
     </g>
    </g>
    <g id="line2d_42">
     <path d="
M89.28 146.221
L109.44 146.221" style="fill:none;stroke:#bf00bf;stroke-linecap:square;"/>
    </g>
    <g id="line2d_43"/>
    <g id="text_22">
     <!-- qABC -->
     <defs>
      <path d="
M53.2656 -20.125
L44.0938 -20.125
L44.0938 6.15625
Q39.8438 2.48438 35.6406 0.703125
Q31.4531 -1.07812 26.5625 -1.07812
Q16.8438 -1.07812 11.0625 6.42188
Q5.28125 13.9219 5.28125 27.0938
Q5.28125 34.125 7.29688 39.5156
Q9.32812 44.9219 12.6406 48.5781
Q15.875 52.1562 20.2188 54.1094
Q24.5625 56.0625 29.3906 56.0625
Q33.7969 56.0625 37.1875 55.0781
Q40.5781 54.1094 44.0938 52.2031
L44.6719 54.5469
L53.2656 54.5469
z

M44.0938 13.875
L44.0938 44.7344
Q40.2812 46.4375 37.3438 47.1094
Q34.4219 47.7969 31 47.7969
Q23.0469 47.7969 18.8906 42.4062
Q14.75 37.0156 14.75 27.5469
Q14.75 17.9688 18.0938 12.8125
Q21.4375 7.67188 28.6094 7.67188
Q32.625 7.67188 36.625 9.40625
Q40.625 11.1406 44.0938 13.875" id="Verdana-71"/>
     </defs>
     <g transform="translate(125.28 151.26075)scale(0.144 -0.144)">
      <use xlink:href="#Verdana-71"/>
      <use x="62.3046875" xlink:href="#Verdana-41"/>
      <use x="130.6640625" xlink:href="#Verdana-42"/>
      <use x="199.21875" xlink:href="#Verdana-43"/>
     </g>
    </g>
   </g>
  </g>
 </g>
 <defs>
  <clipPath id="p7ff5b81e1d">
   <rect height="345.6" width="446.4" x="72.0" y="43.2"/>
  </clipPath>
 </defs>
</svg>
