<?xml version="1.0" encoding="utf-8" standalone="no"?>
<!DOCTYPE svg PUBLIC "-//W3C//DTD SVG 1.1//EN"
  "http://www.w3.org/Graphics/SVG/1.1/DTD/svg11.dtd">
<!-- Created with matplotlib (http://matplotlib.org/) -->
<svg height="432pt" version="1.1" viewBox="0 0 576 432" width="576pt" xmlns="http://www.w3.org/2000/svg" xmlns:xlink="http://www.w3.org/1999/xlink">
 <defs>
  <style type="text/css">
*{stroke-linecap:butt;stroke-linejoin:round;}
  </style>
 </defs>
 <g id="figure_1">
  <g id="patch_1">
   <path d="
M0 432
L576 432
L576 0
L0 0
z
" style="fill:#ffffff;"/>
  </g>
  <g id="axes_1">
   <g id="patch_2">
    <path d="
M72 388.8
L518.4 388.8
L518.4 43.2
L72 43.2
z
" style="fill:#ffffff;"/>
   </g>
   <g id="line2d_1">
    <path clip-path="url(#p7ff5b81e1d)" d="
M72 98.0767
L72.3571 98.0767
L72.5357 93.2146
L72.7142 93.2146
L72.8928 96.2584
L73.0714 96.2584
L73.2499 126.28
L73.4285 126.28
L73.607 145.957
L73.7856 145.957
L73.9642 155.175
L74.1427 155.175
L74.3213 162.86
L74.4998 162.86
L74.6784 167.265
L74.857 167.265
L75.0355 169.617
L75.2141 169.617
L75.3926 171.421
L75.5712 171.421
L75.7498 173.002
L75.9283 173.002
L76.1069 174.4
L76.2854 174.4
L76.464 175.071
L76.9997 175.161
L77.1782 175.644
L77.7139 175.621
L77.8032 175.815
L77.9818 175.736
L78.2496 175.75
L78.5174 176.794
L78.696 176.699
L78.7853 176.699
L78.8746 176.279
L78.9638 176.308
L79.8566 176.38
L80.1245 176.629
L80.3923 176.717
L80.5709 176.801
L80.6602 176.793
L80.8387 176.59
L81.0173 176.621
L81.1958 176.677
L82.4458 176.568
L83.8742 176.601
L84.1421 176.586
L84.5885 176.494
L85.2134 176.253
L85.392 176.217
L85.4813 176.429
L85.5706 176.382
L85.9277 176.468
L86.4634 176.559
L86.6419 176.485
L86.9098 176.563
L87.0883 176.592
L87.8918 176.393
L88.0704 176.553
L88.249 176.494
L89.0525 176.212
L89.231 176.304
L91.5523 176.657
L91.7309 176.766
L91.9987 176.376
L92.1773 176.307
L92.5344 176.33
L93.0701 176.343
L94.0522 176.728
L94.1414 176.696
L94.32 176.779
L94.4986 176.745
L94.6771 176.875
L94.7664 176.878
L94.8557 176.698
L94.945 176.743
L95.3021 176.728
L95.4806 176.947
L97.0877 177.011
L97.2662 177.123
L97.6234 177.02
L97.8912 177.098
L98.3376 177.087
L98.5162 177.139
L98.784 177.229
L98.8733 177.193
L99.0518 177.327
L101.195 177.179
L101.462 177.04
L101.73 177.063
L101.909 177.24
L102.087 177.331
L102.355 177.714
L102.623 177.714
L102.891 177.858
L103.069 177.804
L103.248 177.918
L103.337 177.757
L103.427 177.814
L103.516 177.817
L103.694 178.177
L103.873 178.224
L104.319 178.326
L104.409 178.397
L104.676 178.235
L104.944 178.6
L105.123 178.563
L105.391 178.674
L105.569 178.779
L105.837 178.718
L106.016 178.612
L106.194 178.615
L106.373 178.636
L106.462 178.467
L106.551 178.522
L106.641 178.527
L106.908 178.24
L107.266 178.517
L107.355 178.473
L107.444 178.594
L107.623 178.322
L107.801 178.504
L108.158 178.525
L108.337 178.668
L108.694 178.772
L108.783 178.999
L108.873 178.964
L109.14 178.854
L109.319 178.736
L109.498 178.76
L109.587 178.634
L109.765 178.785
L110.033 178.758
L110.301 178.543
L110.569 178.646
L110.837 178.735
L111.015 178.644
L111.105 178.645
L111.194 178.784
L111.372 178.687
L111.462 178.691
L111.64 178.607
L111.819 178.497
L111.997 178.829
L112.176 178.769
L112.355 178.754
L112.533 178.789
L112.712 178.619
L113.694 178.756
L113.962 178.909
L114.14 178.897
L114.408 178.95
L114.587 178.974
L114.944 178.993
L115.301 179.132
L116.104 179.609
L116.283 179.654
L116.551 179.552
L116.819 179.534
L117.086 179.52
L117.354 179.47
L117.622 179.117
L117.979 179.276
L118.158 179.235
L118.515 179.31
L118.693 179.328
L118.961 179.285
L119.14 179.882
L120.122 180.105
L120.3 179.986
L120.747 180.152
L121.193 180.26
L121.461 180.49
L121.729 180.379
L121.908 180.412
L122.086 180.516
L122.175 180.44
L122.354 180.592
L122.622 180.761
L122.8 180.764
L123.068 180.837
L123.247 180.854
L123.693 180.894
L124.229 181.162
L124.407 181.186
L124.497 181.473
L124.586 181.409
L125.122 181.783
L125.389 181.8
L125.568 181.951
L125.747 181.915
L125.925 182.047
L126.104 181.977
L126.372 182.353
L126.55 182.409
L126.729 182.564
L127.354 182.8
L127.621 183.087
L127.711 183.111
L128.068 182.86
L128.604 183.057
L128.871 183.282
L129.05 183.595
L129.139 183.6
L129.318 183.796
L129.407 183.834
L129.586 184.06
L129.764 184.131
L129.853 184.304
L129.943 184.24
L130.568 184.373
L130.746 184.502
L131.014 184.537
L131.193 184.626
L131.371 184.695
L131.55 184.683
L132.264 185.187
L132.532 185.286
L132.71 185.267
L133.068 185.484
L133.514 185.794
L133.782 186.135
L134.496 186.209
L134.942 186.48
L135.121 186.515
L135.3 186.591
L135.567 186.618
L135.835 186.823
L136.014 186.893
L136.192 186.812
L136.639 186.523
L136.907 186.515
L137.085 186.627
L137.353 186.682
L138.246 186.663
L138.871 186.786
L138.96 186.886
L139.139 186.827
L139.317 186.903
L139.496 186.997
L139.853 187.222
L140.567 187.558
L140.656 187.563
L140.835 188.084
L141.013 188.111
L141.192 188.244
L141.549 188.288
L141.996 188.277
L142.263 188.522
L142.442 188.456
L142.531 188.431
L142.71 188.538
L142.978 188.52
L143.156 188.697
L143.335 188.431
L143.603 188.43
L143.781 188.714
L144.049 188.717
L144.674 188.518
L144.852 188.736
L146.102 188.813
L146.37 188.709
L146.638 188.722
L146.995 188.731
L147.174 188.88
L148.334 188.93
L148.513 189.075
L148.692 189.095
L148.959 189.19
L149.138 189.347
L149.852 189.56
L150.031 189.782
L150.209 189.803
L150.299 189.97
L150.388 189.905
L150.656 189.936
L150.834 189.941
L151.013 190.108
L151.727 190.132
L151.995 190.156
L152.173 189.97
L152.709 190.336
L154.138 191.057
L154.316 191.071
L156.102 191.107
L156.191 191.028
L156.37 191.11
L158.244 191.197
L158.423 191.433
L159.137 191.848
L159.316 192.011
L159.584 192.083
L159.941 192.152
L160.119 192.37
L162.619 193.055
L162.798 193.212
L163.333 193.35
L164.851 193.594
L164.94 193.754
L165.03 193.693
L165.744 193.83
L165.923 193.887
L166.101 193.886
L166.369 194.002
L166.548 193.845
L166.637 193.859
L166.905 194.217
L167.262 194.326
L167.619 194.352
L167.797 194.37
L167.976 194.496
L168.155 194.501
L168.333 194.742
L168.512 194.856
L168.69 194.827
L168.869 194.936
L169.404 195.034
L169.583 195.228
L170.119 195.231
L170.297 195.193
L170.476 195.256
L170.833 195.312
L170.922 195.412
L171.101 195.352
L171.458 195.487
L172.261 195.755
L172.708 195.783
L173.422 196.136
L173.868 196.249
L174.226 196.399
L174.94 196.75
L175.118 196.723
L175.386 196.822
L176.19 197.218
L176.904 197.33
L177.261 197.495
L177.529 197.713
L177.886 197.857
L178.065 197.96
L178.422 197.822
L178.6 198.011
L178.69 198.011
L178.868 198.076
L179.404 198.087
L179.672 198.242
L179.94 198.446
L180.654 198.56
L180.832 198.614
L180.922 198.623
L181.1 198.853
L181.904 199.059
L181.993 199.074
L182.172 199.225
L182.886 199.32
L183.064 199.43
L183.868 199.575
L183.957 199.516
L184.136 199.656
L185.743 199.977
L185.921 199.975
L186.1 199.943
L186.189 199.94
L186.368 200.102
L187.35 200.206
L187.618 200.382
L187.796 200.313
L187.975 200.469
L188.243 200.535
L188.421 200.473
L188.6 200.437
L189.135 200.719
L189.403 200.707
L190.921 201.391
L191.457 201.523
L191.635 201.487
L191.903 201.475
L193.153 201.826
L193.51 201.971
L194.135 201.897
L195.206 201.937
L195.385 202.019
L195.831 202.064
L196.01 202.198
L196.188 202.219
L196.546 202.67
L196.992 202.642
L197.171 202.782
L197.528 202.877
L198.331 203.428
L198.51 203.479
L198.688 203.714
L198.778 203.723
L198.956 203.604
L199.403 203.888
L199.849 204.113
L200.028 204.214
L200.206 204.216
L200.385 204.478
L200.742 204.447
L200.92 204.613
L201.277 204.717
L201.545 204.807
L201.902 204.799
L202.17 204.944
L202.617 205.029
L203.599 205.174
L203.777 205.275
L203.956 205.2
L204.134 205.193
L204.67 205.398
L205.027 205.313
L205.206 205.505
L205.741 205.607
L206.188 205.936
L206.545 205.999
L206.724 206.065
L206.991 206.04
L207.17 205.956
L207.438 206.059
L207.795 206.19
L207.884 206.198
L208.063 206.493
L208.598 206.621
L208.777 206.829
L208.956 206.839
L209.67 207.235
L210.384 207.392
L210.563 207.404
L210.83 207.484
L211.277 207.759
L211.634 207.827
L213.598 208.526
L213.777 208.738
L214.402 208.806
L214.937 209.065
L216.544 209.831
L216.812 210.001
L217.348 210.128
L217.526 210.189
L217.705 210.329
L217.794 210.343
L217.973 210.46
L218.598 210.947
L219.223 210.976
L219.401 211.196
L220.383 211.269
L220.74 211.459
L221.187 211.442
L221.723 211.404
L221.99 211.762
L223.776 212.273
L225.115 212.393
L225.472 212.499
L225.74 212.519
L226.008 212.754
L226.276 212.799
L226.365 212.74
L226.544 212.885
L227.169 213.038
L227.436 213.056
L227.615 213.238
L228.508 213.261
L228.954 213.611
L229.222 214.096
L229.49 214.161
L230.472 214.198
L230.829 214.355
L231.722 214.415
L231.9 214.516
L232.079 214.525
L232.347 214.762
L232.972 214.897
L233.24 214.887
L233.865 214.96
L234.311 215.049
L234.936 214.96
L235.204 214.827
L235.561 214.874
L235.829 214.947
L235.918 214.925
L236.186 215.251
L236.543 215.352
L236.9 215.436
L237.079 215.518
L237.525 215.512
L238.507 215.747
L239.043 216.207
L239.311 216.313
L240.204 216.431
L240.382 216.548
L240.739 216.592
L241.007 216.721
L241.453 216.69
L241.632 216.772
L241.811 216.899
L241.9 216.86
L242.078 216.995
L242.525 217.236
L242.703 217.4
L243.239 217.513
L244.757 217.645
L245.025 217.663
L245.917 217.83
L246.632 217.934
L247.614 218.078
L247.703 218.192
L247.971 218.759
L248.685 219.007
L249.756 219.157
L250.739 219.447
L251.274 219.886
L251.542 219.912
L251.721 219.825
L251.899 219.862
L252.078 220.154
L252.613 220.133
L252.792 220.069
L253.149 220.032
L253.238 220.036
L253.417 220.178
L254.667 220.277
L255.381 220.744
L255.917 220.832
L256.274 220.818
L258.06 220.982
L258.238 221.048
L258.952 221.235
L259.488 221.31
L260.381 221.418
L260.559 221.574
L260.649 221.576
L260.916 221.889
L261.363 221.982
L262.256 222.431
L262.524 222.435
L262.702 222.592
L262.97 222.713
L263.148 222.731
L264.131 222.861
L264.577 222.979
L264.666 223
L264.845 223.364
L265.291 223.374
L265.648 223.759
L266.005 223.793
L266.184 224.022
L267.077 224.215
L267.255 224.243
L267.791 224.252
L268.059 224.635
L268.237 224.721
L268.952 224.816
L269.309 225.098
L269.577 225.191
L270.648 225.21
L271.184 225.677
L271.452 225.729
L271.719 225.917
L271.809 225.866
L272.076 226.072
L272.166 226.07
L272.434 226.702
L272.701 226.833
L273.059 226.892
L273.505 227.049
L273.684 226.976
L273.773 227.015
L273.951 227.29
L274.576 227.299
L275.291 227.287
L275.469 227.502
L275.648 227.499
L275.826 227.652
L276.273 227.733
L276.808 227.996
L278.505 228.095
L278.772 228.281
L279.04 228.289
L279.219 228.412
L279.487 228.456
L280.558 228.51
L280.737 228.651
L280.915 228.688
L281.272 229.127
L285.29 229.787
L285.468 229.906
L286.272 230.087
L286.361 230.085
L286.54 230.289
L286.718 230.368
L287.343 230.562
L288.147 230.671
L288.325 230.861
L289.04 230.938
L289.218 230.958
L289.843 230.881
L290.111 230.825
L290.29 230.903
L290.647 230.981
L290.825 231.184
L292.522 231.304
L292.879 231.46
L293.325 231.461
L293.861 231.548
L294.486 231.614
L294.754 231.848
L295.2 231.874
L295.379 232.024
L295.557 232.035
L295.736 232.257
L296.004 232.337
L297.343 232.386
L297.611 232.724
L297.878 232.768
L298.057 232.867
L298.236 232.904
L298.414 232.847
L298.771 232.982
L299.128 233.051
L299.307 233.321
L299.753 233.443
L299.932 233.735
L300.11 233.809
L300.378 233.947
L300.735 234.058
L307.253 235.099
L307.521 235.157
L307.788 235.23
L308.146 235.268
L308.949 235.353
L309.306 235.484
L309.396 235.484
L309.663 235.716
L310.02 235.745
L310.288 235.806
L311.003 235.806
L311.181 236.082
L311.717 236.053
L311.895 236.169
L312.163 236.231
L312.431 236.349
L312.61 236.503
L312.967 236.548
L313.502 236.996
L313.77 236.971
L314.127 237.115
L314.484 237.167
L315.288 237.612
L316.538 237.709
L316.806 237.653
L318.234 237.72
L318.413 238.003
L319.127 238.131
L319.484 238.121
L319.663 238.288
L320.198 238.348
L320.556 238.388
L321.805 238.507
L322.163 238.569
L322.788 238.663
L323.234 238.762
L323.859 238.849
L324.127 238.91
L325.02 239.265
L325.823 239.257
L326.091 239.345
L326.448 239.4
L326.716 239.399
L326.894 239.554
L327.341 239.537
L327.609 239.537
L328.055 239.543
L328.591 239.62
L328.769 239.734
L329.126 239.762
L329.484 239.765
L329.93 239.837
L330.376 239.942
L330.555 240.028
L331.091 240.084
L331.269 240.165
L331.626 240.136
L332.519 240.196
L333.055 240.692
L333.233 241.093
L333.501 241.08
L333.68 241.183
L334.126 241.25
L334.572 241.497
L334.751 241.748
L335.197 241.858
L335.465 241.868
L335.555 241.799
L335.733 241.877
L336.18 241.869
L336.358 242.048
L336.894 242.045
L337.072 242.129
L338.501 242.228
L338.947 242.219
L339.483 242.285
L339.929 242.488
L340.554 242.521
L341.09 242.893
L341.268 243.059
L343.858 243.215
L345.018 243.334
L345.822 243.131
L346.268 243.144
L346.447 243.247
L346.715 243.301
L347.25 243.491
L347.964 243.561
L348.143 243.693
L348.5 243.631
L349.75 243.804
L349.929 243.948
L350.821 243.93
L351.089 243.931
L351.268 244.066
L351.446 244.081
L351.625 244.281
L354.125 244.374
L354.303 244.476
L355.018 244.642
L355.375 244.986
L356 245.067
L357.16 245.546
L357.607 245.64
L357.785 245.837
L358.5 245.909
L358.678 246.182
L359.303 246.246
L359.66 246.278
L360.999 246.396
L361.178 246.494
L362.16 246.601
L362.339 246.672
L363.231 246.762
L363.588 246.881
L363.856 246.797
L364.035 246.916
L364.303 247.025
L364.571 247.09
L364.749 247.128
L365.196 247.212
L365.374 247.291
L366.178 247.407
L367.16 247.445
L367.428 247.538
L368.856 247.612
L369.124 247.679
L371.267 247.773
L371.624 247.917
L372.874 247.955
L373.052 248.234
L373.231 248.234
L373.409 248.356
L376.891 248.864
L377.248 249.013
L379.212 249.098
L379.391 249.192
L381.177 249.259
L381.355 249.373
L382.605 249.862
L386.266 249.921
L386.444 250.163
L388.23 250.244
L388.676 250.272
L388.855 250.239
L389.033 250.328
L389.301 250.276
L389.837 250.252
L392.247 250.4
L392.783 250.717
L394.122 250.783
L394.301 250.908
L395.104 250.959
L395.729 251.019
L399.479 251.098
L399.925 251.229
L400.283 251.326
L400.64 251.566
L401.622 251.673
L401.8 251.82
L403.14 251.964
L403.675 252.077
L403.854 252.289
L404.032 252.324
L404.389 252.583
L404.657 252.778
L405.014 252.78
L405.996 252.689
L406.175 252.893
L406.711 252.962
L406.979 253.159
L407.336 253.242
L407.604 253.328
L408.496 253.395
L408.675 253.516
L409.211 253.501
L412.157 253.55
L412.425 253.524
L412.96 253.578
L413.139 253.725
L413.317 253.72
L413.585 254.268
L413.764 254.374
L413.942 254.382
L414.121 254.538
L416.174 254.552
L416.532 254.922
L416.71 254.884
L416.889 254.969
L418.139 255.063
L418.496 255.302
L419.924 255.378
L420.281 255.433
L420.638 255.399
L420.906 255.547
L421.71 255.578
L421.888 255.703
L422.245 255.727
L422.424 255.897
L422.692 255.896
L422.87 256.047
L423.674 256.009
L423.852 256.314
L424.031 256.291
L424.388 256.644
L426.442 256.619
L426.62 256.594
L426.977 256.821
L427.781 256.862
L429.12 256.964
L429.299 257.15
L429.745 257.151
L429.924 257.485
L430.281 257.588
L430.727 257.724
L430.995 257.67
L433.138 257.779
L433.227 257.838
L433.405 258.087
L434.745 258.135
L434.923 258.238
L435.995 258.275
L436.262 258.345
L436.977 258.352
L437.155 258.534
L437.423 258.547
L437.602 258.664
L438.673 258.76
L438.941 258.787
L439.209 258.781
L439.387 258.882
L439.923 258.898
L440.101 259.102
L440.369 259.194
L440.726 259.347
L440.905 259.572
L441.173 259.555
L441.351 259.668
L444.298 259.755
L444.476 260.006
L445.101 260.066
L445.28 260.237
L445.994 260.329
L446.172 260.493
L446.53 260.582
L446.887 260.564
L447.155 260.741
L447.869 260.713
L448.047 261.072
L449.744 261.154
L450.012 261.283
L450.458 261.308
L450.636 261.308
L450.815 261.441
L451.172 261.48
L452.868 261.524
L453.047 261.617
L453.404 261.596
L453.94 261.611
L454.118 261.901
L455.904 261.985
L456.172 262.061
L456.44 262.155
L456.708 262.273
L458.493 262.404
L459.743 262.579
L460.189 262.717
L460.547 262.705
L460.725 262.807
L461.529 262.863
L462.779 262.949
L462.957 263.085
L464.832 263.179
L465.546 263.324
L465.814 263.252
L466.439 263.35
L467.332 263.363
L467.6 263.36
L467.957 263.376
L468.135 263.487
L468.671 263.509
L469.475 263.537
L469.832 264.043
L470.814 264.134
L471.082 264.211
L471.528 264.378
L471.796 264.44
L473.849 264.495
L474.117 264.623
L475.456 264.674
L475.635 264.813
L475.903 264.845
L476.081 264.975
L477.063 264.962
L477.242 265.126
L477.956 265.205
L478.135 265.305
L478.492 265.265
L479.028 265.406
L479.206 265.562
L480.099 265.589
L480.277 265.811
L480.902 265.888
L481.17 265.953
L481.617 266.047
L482.688 266.036
L483.938 266.058
L484.116 266.143
L485.724 266.152
L485.991 266.258
L486.17 266.258
L486.348 266.509
L486.706 266.609
L486.973 266.645
L487.241 266.63
L487.42 266.746
L487.777 266.735
L487.956 266.94
L488.491 266.986
L488.848 267.047
L489.027 267.041
L489.205 267.146
L489.384 267.171
L489.652 267.596
L490.812 267.798
L490.991 267.894
L491.17 267.893
L491.348 268.055
L491.437 268.055
L491.616 268.18
L491.884 268.262
L492.152 268.303
L492.687 268.364
L492.955 268.42
L494.205 268.452
L494.652 268.485
L495.098 268.476
L495.276 268.59
L495.901 268.599
L496.08 268.716
L497.151 269.061
L497.508 269.021
L498.223 269.085
L498.401 269.375
L499.205 269.419
L499.383 269.516
L500.098 269.564
L500.365 269.715
L500.901 269.698
L501.258 269.72
L501.437 269.938
L501.883 269.906
L505.097 269.977
L505.276 270.064
L507.954 270.212
L508.579 270.375
L508.936 270.359
L509.293 270.393
L509.383 270.391
L509.561 270.569
L510.008 270.616
L510.276 270.68
L510.722 270.789
L510.99 270.829
L511.258 270.919
L511.793 270.941
L511.972 271.072
L512.15 271.066
L512.329 271.262
L512.508 271.264
L512.686 271.407
L513.311 271.404
L513.49 271.591
L514.025 271.614
L514.204 271.704
L514.65 271.753
L514.829 271.85
L515.454 271.918
L515.632 272.054
L516.525 272.107
L516.882 272.153
L517.954 272.199
L518.311 272.301
L518.311 272.301" style="fill:none;stroke:#0000ff;stroke-dasharray:6.000000,2.000000;stroke-dashoffset:0.0;"/>
   </g>
   <g id="line2d_2">
    <path clip-path="url(#p7ff5b81e1d)" d="
M72 88.3322
L72.5357 172.797
L73.2499 200.17
L73.3392 200.772
L73.7856 209.327
L74.857 222.071
L74.9462 222.269
L76.1069 231.5
L76.3747 232.925
L76.5533 233.552
L76.9104 234.311
L77.4461 236.362
L77.6246 237.56
L77.8925 238.307
L78.1603 239.308
L78.7853 240.059
L78.8746 239.972
L78.9638 240.389
L79.1424 240.268
L79.321 240.489
L79.4995 240.423
L79.5888 240.543
L79.6781 240.456
L79.8566 240.841
L79.9459 240.726
L80.0352 240.959
L80.1245 240.905
L80.6602 241.42
L80.8387 241.487
L80.928 241.543
L81.553 242.669
L81.7315 242.665
L81.8208 242.677
L82.1779 243.453
L82.4458 243.7
L82.6243 243.862
L83.0707 244.62
L83.6957 244.956
L83.9635 245.26
L84.1421 245.248
L84.767 245.568
L84.8563 245.48
L85.0349 245.764
L85.2134 245.801
L85.392 245.773
L85.5706 246.055
L85.9277 246.044
L86.4634 246.127
L86.5526 246.495
L86.6419 246.44
L86.9098 246.682
L87.5347 246.658
L88.1597 246.559
L88.249 246.668
L88.3382 246.571
L88.5168 246.637
L88.9632 246.589
L89.4989 246.775
L89.6774 246.846
L90.0346 246.906
L90.3024 247.077
L90.5702 246.944
L90.9274 247.442
L91.1059 247.452
L91.3738 247.746
L91.463 247.71
L91.5523 247.814
L91.7309 248.257
L91.9987 248.321
L92.3558 248.261
L92.5344 248.359
L92.6237 248.342
L92.8022 248.656
L92.8915 248.675
L93.0701 249.115
L93.2486 249.15
L93.4272 249.54
L93.7843 249.679
L94.1414 249.677
L94.32 249.626
L94.6771 249.639
L94.8557 249.841
L95.3021 250.048
L96.1056 250.298
L96.8198 250.388
L97.0877 250.83
L97.5341 250.902
L97.8912 251.023
L98.0698 251.349
L98.4269 251.319
L98.784 251.369
L98.9626 251.315
L99.1411 251.556
L99.409 251.55
L99.6768 251.524
L99.9446 251.503
L100.123 251.716
L101.016 251.728
L101.373 252.021
L101.998 251.995
L102.087 252.038
L102.266 252.226
L102.444 252.31
L102.891 252.431
L103.069 252.413
L103.248 252.59
L103.605 252.676
L103.784 252.783
L103.962 252.821
L104.141 253.014
L104.944 253.37
L105.123 253.419
L105.48 253.489
L106.016 253.564
L106.194 253.586
L106.551 253.56
L107.98 253.631
L108.337 253.748
L108.873 253.773
L109.587 253.7
L109.765 253.862
L110.569 253.805
L110.658 253.784
L110.837 254.025
L111.462 253.975
L111.64 254.138
L112.801 254.17
L112.98 254.252
L113.426 254.266
L113.872 254.33
L114.051 254.428
L114.229 254.456
L114.944 254.463
L115.122 254.621
L117.711 254.789
L117.801 254.759
L118.068 254.928
L122.265 255.013
L122.443 254.997
L122.622 255.123
L124.14 255.195
L124.318 255.256
L124.675 255.324
L125.122 255.57
L125.568 255.608
L125.836 255.65
L126.907 255.753
L127.175 255.839
L127.621 255.89
L127.979 255.94
L129.764 255.968
L129.943 256.068
L133.782 256.078
L134.05 256.122
L134.585 256.184
L134.764 256.256
L135.657 256.366
L136.996 256.319
L138.067 256.397
L139.853 256.455
L140.031 256.58
L140.478 256.664
L140.835 256.742
L141.103 256.816
L141.281 256.927
L141.728 256.892
L143.245 256.92
L143.513 256.979
L144.942 257.058
L145.21 257.101
L145.656 257.174
L146.46 257.177
L149.138 257.262
L149.406 257.327
L149.495 257.324
L149.674 257.448
L152.352 257.518
L152.62 257.662
L154.138 257.664
L154.316 257.753
L158.423 257.785
L158.602 257.908
L159.941 257.969
L166.905 258.009
L167.083 258.08
L168.065 258.142
L168.333 258.368
L170.119 258.452
L170.833 258.639
L170.922 258.621
L171.101 258.734
L171.458 258.676
L171.904 258.687
L175.118 258.783
L175.386 258.948
L179.493 258.916
L179.672 259.149
L179.85 259.231
L180.207 259.267
L181.725 259.35
L182.439 259.36
L183.064 259.357
L183.689 259.353
L183.868 259.475
L185.743 259.545
L186.278 259.67
L190.296 259.761
L190.564 259.812
L192.349 259.88
L192.617 259.914
L193.778 259.877
L205.295 259.913
L205.474 260.014
L206.277 259.999
L209.402 260.056
L209.848 260.231
L210.116 260.295
L210.473 260.333
L211.098 260.346
L217.794 260.416
L217.973 260.552
L221.187 260.533
L224.312 260.584
L226.276 260.647
L227.079 260.594
L231.811 260.598
L231.99 260.759
L232.793 260.681
L232.972 260.761
L233.865 260.86
L236.364 260.978
L237.257 261.047
L237.525 261.091
L245.382 261.15
L245.56 261.233
L251.364 261.343
L251.721 261.407
L252.524 261.397
L253.685 261.476
L253.953 261.593
L255.381 261.697
L255.738 261.746
L257.256 261.842
L257.524 261.905
L258.238 261.988
L258.417 262.115
L259.488 262.1
L259.756 262.26
L265.916 262.348
L266.273 262.383
L267.166 262.474
L267.702 262.495
L276.63 262.461
L276.808 262.543
L278.148 262.599
L280.201 262.643
L300.557 262.676
L300.735 262.784
L312.699 262.872
L312.967 262.937
L347.34 263.026
L347.518 263.112
L350.375 263.214
L350.643 263.331
L353.232 263.419
L353.411 263.514
L361.803 263.535
L361.981 263.686
L363.41 263.783
L365.374 263.876
L375.731 263.823
L387.962 263.934
L388.23 263.976
L392.872 264.028
L393.051 264.153
L414.032 264.172
L414.21 264.245
L428.763 264.298
L428.941 264.372
L432.245 264.44
L432.423 264.511
L437.512 264.552
L437.691 264.689
L457.154 264.665
L457.332 264.823
L478.849 264.842
L479.028 264.936
L487.42 264.95
L487.598 265.065
L494.919 265.166
L495.187 265.207
L499.473 265.271
L518.311 265.206
L518.311 265.206" style="fill:none;stroke:#008000;stroke-dasharray:1.000000,1.000000;stroke-dashoffset:0.0;"/>
   </g>
   <g id="line2d_3">
    <path clip-path="url(#p7ff5b81e1d)" d="
M72 84.2936
L72.0893 143.109
L72.1786 166.398
L72.5357 202.79
L72.8928 221.374
L73.0714 223.974
L73.1606 222.653
L73.5178 229.885
L73.7856 234.639
L73.8749 236.154
L73.9642 235.922
L74.0534 236.198
L74.1427 237.787
L74.3213 236.271
L74.4998 239.142
L74.6784 243.557
L74.857 242.351
L75.2141 246.207
L75.3034 246.219
L75.7498 254.817
L76.0176 257.744
L76.9997 264.672
L77.1782 265.35
L77.4461 267.037
L77.8032 268.399
L77.8925 268.147
L78.071 269.483
L78.4282 272.377
L78.7853 274.055
L78.9638 274.735
L79.321 275.612
L79.9459 277.528
L80.1245 278.87
L80.2138 278.751
L80.5709 281.745
L80.928 283.609
L81.3744 285.389
L81.9994 288.408
L82.535 289.62
L82.8922 292.141
L82.9814 291.889
L83.0707 291.971
L83.4278 293.116
L83.5171 293.227
L83.9635 295.885
L84.3206 297.982
L84.4099 297.986
L84.5885 298.372
L84.767 299.799
L84.9456 299.841
L85.2134 301.097
L85.3027 301.489
L85.392 301.453
L85.5706 302.432
L85.9277 303.766
L86.4634 305.038
L86.6419 305.037
L86.8205 305.399
L86.999 305.953
L87.0883 306.004
L87.1776 306.241
L87.3562 307.093
L87.4454 307.052
L88.4275 309.813
L88.5168 309.802
L88.6954 310.579
L88.7846 310.567
L89.1418 311.138
L89.4096 311.944
L89.4989 312.007
L90.0346 314.265
L90.1238 314.364
L90.3024 314.188
L90.481 314.91
L90.7488 315.14
L91.0166 316.046
L91.1952 316.203
L91.463 317.136
L91.6416 317.82
L91.7309 317.71
L91.8202 317.723
L91.9987 317.575
L92.088 317.5
L92.3558 317.859
L92.4451 317.812
L92.5344 318.205
L92.713 319.236
L92.8915 319.598
L92.9808 319.563
L93.6058 321.494
L93.8736 323.628
L93.9629 323.671
L94.32 324.688
L94.4093 324.707
L94.5878 325.202
L95.0342 326.933
L95.2128 327.015
L95.4806 327.296
L95.5699 327.248
L95.7485 327.573
L95.927 327.741
L96.0163 327.761
L96.2842 328.062
L96.3734 328.06
L96.552 328.265
L96.9091 328.142
L97.0877 328.236
L97.4448 328.324
L97.8912 328.797
L97.9805 328.664
L98.159 329.008
L98.5162 329.247
L98.8733 329.206
L99.409 330.172
L99.4982 330.198
L99.6768 331.198
L99.8554 331.577
L100.034 331.744
L100.123 331.659
L100.302 332.426
L100.48 332.787
L100.748 332.892
L100.927 333.151
L101.195 333.358
L101.462 333.391
L101.641 333.392
L101.82 333.671
L101.909 333.701
L102.087 333.632
L102.444 333.591
L102.712 333.782
L103.069 333.798
L103.159 333.708
L103.337 334.114
L103.605 334.272
L103.962 334.657
L104.052 334.565
L104.319 334.817
L104.498 334.922
L104.944 335.023
L105.034 335.175
L105.212 335.563
L105.391 335.781
L105.569 335.959
L106.016 336.066
L106.284 336.465
L106.373 336.371
L106.641 336.494
L106.908 336.551
L107.087 337.026
L107.266 337.1
L107.712 337.197
L108.516 337.513
L108.694 338.083
L109.14 338.045
L109.408 339.035
L109.676 339.139
L110.39 339.168
L110.569 339.208
L110.837 339.187
L111.015 339.696
L111.105 339.693
L111.283 340.103
L111.551 340.19
L111.64 340.827
L111.73 340.805
L113.515 342.058
L113.962 342.159
L114.229 342.33
L114.676 342.325
L114.854 342.418
L115.39 342.481
L116.015 342.588
L116.104 342.714
L116.283 343.204
L116.461 343.286
L116.64 343.49
L116.819 343.431
L117.176 343.789
L117.533 343.879
L117.711 344.128
L117.801 344.162
L118.068 344.998
L118.247 345.033
L118.426 345.143
L118.515 345.135
L118.693 345.265
L118.783 345.265
L118.961 345.557
L119.497 345.865
L119.765 345.821
L120.39 345.855
L120.658 345.931
L120.747 345.931
L120.925 346.152
L121.104 346.229
L121.283 346.383
L121.461 346.455
L121.64 346.42
L121.997 346.5
L122.443 346.579
L122.979 346.858
L123.068 346.858
L123.247 347.028
L123.515 347.031
L123.693 347.139
L124.229 347.182
L124.407 347.293
L124.943 347.413
L125.122 347.526
L125.389 347.676
L127.086 348.311
L127.8 348.382
L128.068 348.565
L128.693 348.629
L128.871 348.922
L129.675 349.106
L130.032 349.481
L130.3 349.538
L132.353 350.075
L132.621 350.181
L133.157 350.305
L133.782 350.664
L133.96 350.818
L134.228 350.812
L134.407 351.095
L134.585 351.164
L134.764 351.35
L135.835 351.403
L136.282 351.472
L136.46 351.501
L136.728 351.599
L137.085 351.611
L137.621 351.713
L137.799 351.839
L138.067 351.884
L138.246 352.06
L138.514 352.122
L139.049 352.271
L139.228 352.409
L139.496 352.451
L139.853 352.411
L140.746 352.725
L141.103 352.782
L141.281 352.903
L141.728 352.926
L143.335 353.166
L143.513 353.827
L143.96 353.921
L144.852 354.188
L145.12 354.301
L146.46 354.341
L146.817 354.656
L147.174 354.725
L147.442 354.789
L147.531 354.764
L147.799 354.917
L148.067 354.981
L148.781 355.07
L149.049 355.288
L149.316 355.39
L150.12 355.488
L151.281 355.709
L151.459 355.753
L151.638 355.883
L151.906 356.048
L152.263 356.292
L152.531 356.323
L154.227 356.641
L154.495 356.869
L155.298 356.936
L155.655 357.095
L155.745 357.082
L155.923 357.218
L156.459 357.255
L157.084 357.491
L158.244 357.597
L159.227 357.806
L159.405 357.878
L159.762 357.861
L160.03 357.901
L160.209 357.9
L160.387 358.061
L161.548 358.076
L161.726 358.211
L162.351 358.241
L162.619 358.223
L162.798 358.418
L163.869 358.492
L164.137 358.673
L164.494 358.712
L164.673 358.8
L165.565 358.897
L165.923 358.932
L167.351 359.015
L167.53 359.106
L168.155 359.186
L169.315 359.534
L169.851 359.589
L170.029 359.645
L170.565 359.668
L170.744 359.772
L171.279 359.815
L171.636 359.818
L171.815 359.945
L172.083 359.99
L172.529 360.085
L172.886 360.168
L173.333 360.16
L173.511 360.289
L174.851 360.349
L175.654 360.743
L175.922 360.769
L176.1 360.921
L176.993 360.999
L177.172 361.074
L177.886 361.068
L178.154 361.298
L178.422 361.338
L179.315 361.407
L179.493 361.511
L179.85 361.729
L180.297 361.907
L182.082 362.118
L182.35 362.381
L183.064 362.46
L183.421 362.506
L184.939 362.582
L185.386 362.597
L185.653 362.655
L185.832 362.668
L186.011 362.85
L187.171 362.904
L187.35 363.119
L187.439 363.118
L187.618 363.245
L188.064 363.24
L188.243 363.395
L189.85 363.401
L190.028 363.511
L191.635 363.869
L191.814 364.031
L192.171 364.08
L192.439 364.087
L192.617 364.235
L193.51 364.26
L193.689 364.395
L194.403 364.403
L194.581 364.541
L195.117 364.54
L195.385 364.739
L196.456 364.8
L197.706 364.914
L197.885 365.081
L199.403 365.128
L199.581 365.341
L200.117 365.415
L200.295 365.494
L200.831 365.508
L201.099 365.856
L201.456 366.008
L202.26 366.059
L202.706 366.259
L203.152 366.257
L203.42 366.472
L205.295 366.567
L205.563 366.64
L206.456 366.7
L207.438 366.76
L207.616 366.943
L210.384 367.03
L210.652 367.171
L214.223 367.238
L214.402 367.317
L214.759 367.411
L214.937 367.621
L219.401 367.727
L219.669 367.77
L220.026 367.769
L220.205 367.99
L220.383 368.061
L220.562 368.154
L221.455 368.355
L221.633 368.464
L222.437 368.547
L222.615 368.653
L223.419 368.852
L223.597 368.958
L226.722 369.007
L227.169 369.172
L228.597 369.185
L228.776 369.312
L229.401 369.534
L229.579 369.663
L230.74 369.649
L230.918 369.809
L231.722 369.91
L231.99 369.972
L232.258 370.007
L235.382 370.113
L238.864 370.426
L239.132 370.69
L239.221 370.743
L239.4 371.042
L241.721 371.127
L242.168 371.148
L243.685 371.314
L244.757 371.385
L249.489 371.488
L249.667 371.58
L252.881 371.678
L253.596 371.687
L254.042 371.738
L254.22 371.863
L256.095 371.957
L256.274 372.347
L257.97 372.358
L258.149 372.5
L264.845 372.565
L265.023 372.65
L266.184 372.663
L266.363 372.777
L270.827 372.887
L271.184 373.178
L271.987 373.177
L272.166 373.303
L274.398 373.401
L275.023 373.409
L275.201 373.624
L277.344 373.69
L277.523 373.937
L280.38 374.043
L280.826 374.055
L281.004 374.301
L281.897 374.345
L282.076 374.489
L287.879 374.544
L288.058 374.629
L289.218 374.704
L289.486 374.905
L293.147 375.004
L293.95 375.023
L297.789 375.12
L298.95 375.198
L301.003 375.251
L301.182 375.358
L302.075 375.421
L302.342 375.508
L304.396 375.557
L304.574 375.696
L306.092 375.792
L306.271 375.944
L307.788 375.971
L307.967 376.132
L312.788 376.211
L313.324 376.324
L314.574 376.335
L314.752 376.46
L315.645 376.517
L320.377 376.627
L320.556 376.709
L326.091 376.763
L326.269 376.913
L333.68 376.994
L334.037 377.029
L337.697 377.082
L337.876 377.405
L341.268 377.483
L341.447 377.662
L341.893 377.662
L342.072 377.833
L343.947 377.911
L344.215 377.967
L346 378.034
L346.357 378.157
L347.429 378.264
L347.875 378.29
L354.303 378.382
L354.571 378.434
L359.66 378.467
L359.839 378.585
L361.714 378.589
L361.892 378.784
L367.785 378.886
L368.588 378.903
L379.391 378.991
L379.837 379.016
L381.623 379.07
L381.802 379.168
L383.23 379.266
L383.409 379.409
L389.033 379.512
L389.48 379.538
L393.587 379.589
L393.765 379.736
L395.64 379.772
L395.819 379.973
L400.461 380.067
L400.64 380.288
L404.568 380.373
L404.836 380.427
L407.068 380.522
L407.336 380.592
L411.353 380.702
L414.478 380.908
L419.031 381.011
L419.299 381.083
L420.46 381.092
L420.638 381.207
L430.727 381.276
L431.084 381.311
L433.941 381.418
L435.548 381.555
L439.834 381.657
L440.28 381.776
L441.887 381.806
L442.066 382.072
L446.708 382.131
L446.976 382.2
L449.208 382.291
L449.387 382.372
L451.797 382.472
L452.244 382.496
L453.136 382.505
L453.315 382.675
L474.564 382.781
L475.903 382.856
L488.491 382.955
L488.67 383.031
L492.687 383.098
L492.866 383.202
L518.311 383.242
L518.311 383.242" style="fill:none;stroke:#ff0000;stroke-dasharray:3.000000,6.000000;stroke-dashoffset:0.0;"/>
   </g>
   <g id="line2d_4">
    <path clip-path="url(#p7ff5b81e1d)" d="
M72 102.46
L72.0893 141.922
L72.2678 178.733
L72.5357 204.003
L72.8928 215.058
L73.8749 233.07
L74.0534 233.814
L74.1427 233.742
L74.6784 235.74
L74.7677 235.883
L75.0355 235.608
L75.1248 235.656
L75.3034 236.189
L75.5712 237.802
L76.2854 248.06
L76.3747 248.265
L76.9104 254.257
L77.1782 256.011
L77.3568 257.54
L77.4461 257.5
L77.7139 258.334
L77.8032 258.427
L77.8925 258.289
L78.2496 258.776
L78.5174 259.748
L79.0531 260.706
L79.6781 265.629
L79.7674 265.735
L79.8566 265.541
L80.3923 268.008
L81.2851 270.222
L81.6422 270.738
L82.1779 271.865
L82.2672 271.81
L82.6243 272.509
L82.8922 274.705
L83.0707 274.943
L83.16 275.619
L83.2493 275.546
L83.5171 276.489
L83.8742 278.802
L83.9635 278.732
L84.2314 279.649
L84.4099 280.758
L84.4992 280.736
L84.767 281.471
L85.1242 281.987
L85.3027 282.541
L86.2848 284.379
L86.5526 286.421
L86.7312 286.649
L87.0883 287.826
L87.2669 288.981
L87.5347 290.003
L87.624 290.08
L88.1597 291.895
L88.4275 292.272
L88.5168 292.308
L88.8739 293.039
L88.9632 292.979
L89.1418 293.027
L89.5882 294.12
L89.6774 294.085
L89.856 294.727
L90.3917 296.842
L91.0166 297.985
L91.463 300.278
L91.6416 300.877
L92.4451 302.393
L92.713 302.739
L92.8915 303.446
L92.9808 303.463
L93.2486 303.933
L93.3379 304.053
L93.695 305.465
L93.8736 306.336
L94.6771 309.213
L94.7664 309.327
L94.945 310.654
L95.0342 310.7
L95.3914 311.585
L95.5699 311.617
L95.927 312.326
L96.1056 312.478
L96.3734 313.121
L97.0877 313.924
L97.7126 315.541
L98.0698 316.871
L98.159 316.926
L98.4269 317.78
L98.5162 317.77
L98.784 318.263
L99.0518 318.929
L99.3197 319.168
L100.48 320.609
L100.57 320.542
L100.927 321.293
L101.552 322.423
L101.641 322.336
L102.177 323.136
L102.98 323.784
L103.248 324.364
L103.516 324.698
L103.784 324.833
L103.962 325.041
L105.034 326.476
L105.123 326.432
L105.391 326.681
L105.569 326.65
L105.748 326.821
L106.105 327.143
L106.373 327.273
L106.819 327.513
L106.998 327.564
L107.266 327.776
L107.801 328.015
L108.158 328.822
L108.248 328.816
L108.426 329.325
L108.605 329.345
L108.694 329.356
L109.051 330.288
L109.408 330.225
L109.587 330.679
L109.765 330.71
L110.033 331.308
L110.48 331.428
L110.569 331.547
L110.748 331.91
L111.372 332.21
L111.551 332.446
L111.819 332.426
L112.176 332.741
L112.355 332.636
L112.533 332.855
L112.801 333.444
L112.98 333.554
L113.247 333.908
L113.426 334.391
L113.783 334.583
L113.962 334.755
L114.765 335.108
L115.122 335.54
L115.39 335.577
L115.569 335.788
L116.194 336.087
L116.283 336.013
L116.819 336.472
L117.622 336.733
L117.801 336.752
L117.979 336.93
L118.604 337.101
L118.783 337.373
L118.961 337.315
L119.765 338.403
L119.943 338.344
L120.033 338.334
L120.211 338.516
L120.568 338.653
L121.015 338.713
L122.532 339.25
L122.711 339.369
L122.8 339.347
L123.157 339.61
L123.515 339.708
L123.782 339.981
L124.14 340.054
L124.497 340.148
L124.675 340.53
L124.854 340.57
L125.211 340.831
L125.479 340.905
L126.55 341.455
L126.639 341.468
L126.818 341.91
L127.889 342.346
L128.425 342.444
L128.782 342.607
L129.05 342.666
L129.318 342.939
L129.853 343.036
L130.032 343.251
L130.746 343.347
L131.014 343.575
L131.371 343.665
L131.639 343.782
L132.443 344.006
L133.246 344.462
L133.425 344.652
L133.871 344.75
L134.139 344.894
L134.228 344.888
L134.496 345.128
L134.853 345.183
L135.121 345.312
L135.567 345.414
L136.103 345.612
L136.371 345.826
L137.085 346.32
L137.978 346.399
L138.335 346.557
L139.585 346.934
L140.388 346.998
L140.746 347.177
L141.281 347.267
L141.46 347.368
L142.353 347.682
L143.692 348.064
L144.049 348.227
L146.995 348.994
L147.799 349.323
L148.334 349.344
L150.388 349.746
L150.566 349.735
L150.745 349.759
L151.727 349.93
L151.995 349.939
L152.352 350.015
L153.602 350.358
L154.048 350.489
L154.941 350.75
L155.12 350.829
L155.745 350.899
L156.191 350.96
L156.459 351.024
L157.441 351.223
L158.155 351.264
L159.048 351.488
L159.941 351.651
L160.655 351.737
L161.726 351.936
L162.351 352.058
L164.048 352.319
L164.851 352.42
L166.905 353.142
L167.619 353.25
L168.155 353.422
L169.047 353.557
L169.672 353.747
L170.029 353.826
L170.208 353.938
L170.833 354.032
L172.44 354.39
L173.065 354.463
L176.1 354.888
L176.636 354.932
L176.815 355.025
L177.35 355.128
L177.618 355.245
L178.511 355.363
L179.404 355.467
L179.582 355.647
L180.832 355.721
L181.368 355.85
L181.814 355.894
L181.993 355.997
L182.886 356.055
L183.154 356.118
L183.421 356.16
L184.404 356.313
L185.653 356.482
L186.368 356.575
L187.707 356.854
L188.064 356.943
L189.225 357.047
L192.26 357.39
L193.064 357.504
L201.367 358.539
L201.724 358.616
L203.152 358.68
L204.045 358.777
L205.474 358.922
L206.277 359.088
L206.902 359.163
L208.688 359.345
L209.402 359.391
L210.384 359.464
L218.33 360.129
L218.687 360.158
L219.312 360.218
L219.491 360.348
L221.812 360.512
L222.437 360.578
L222.794 360.745
L223.597 360.832
L225.472 360.919
L226.365 360.95
L226.722 360.996
L229.044 361.125
L236.275 361.87
L236.811 361.944
L237.525 362.093
L238.596 362.154
L240.204 362.26
L241.275 362.325
L241.632 362.358
L242.703 362.462
L244.221 362.606
L244.489 362.646
L245.471 362.702
L247.435 362.774
L248.06 362.885
L248.507 362.959
L248.864 362.991
L250.739 363.099
L251.006 363.143
L263.773 363.768
L266.184 363.856
L266.541 363.934
L269.041 364.029
L269.22 364.23
L274.576 364.56
L276.719 364.65
L277.523 364.775
L280.022 364.961
L280.558 365.022
L292.789 365.611
L294.307 365.696
L294.664 365.746
L296.539 365.832
L297.7 365.927
L298.146 365.977
L300.468 366.067
L301.003 366.131
L303.949 366.274
L304.485 366.348
L304.842 366.411
L307.164 366.53
L318.056 366.943
L319.127 367.035
L319.395 367.11
L322.788 367.232
L324.037 367.314
L326.716 367.415
L327.073 367.453
L329.751 367.511
L336.001 367.859
L337.162 367.923
L337.519 368.012
L338.412 368.093
L338.59 368.201
L340.822 368.3
L341.179 368.354
L344.84 368.454
L345.465 368.55
L347.786 368.64
L348.411 368.71
L354.393 368.798
L354.66 368.892
L357.607 368.934
L357.785 369.024
L359.303 369.1
L359.66 369.147
L363.053 369.25
L363.588 369.279
L364.303 369.285
L364.481 369.407
L366.178 369.504
L367.963 369.662
L368.945 369.718
L369.213 369.792
L372.695 369.866
L372.963 369.962
L373.409 369.989
L375.998 370.071
L376.802 370.106
L380.373 370.197
L380.641 370.283
L383.855 370.336
L384.123 370.401
L389.926 370.478
L390.194 370.523
L397.604 370.961
L397.961 370.997
L401.354 371.083
L402.157 371.104
L405.461 371.212
L405.729 371.282
L407.693 371.293
L407.871 371.391
L408.496 371.492
L409.032 371.549
L423.852 371.823
L424.299 371.848
L426.709 371.975
L427.067 372.039
L430.191 372.118
L430.459 372.175
L433.316 372.285
L439.119 372.41
L440.548 372.48
L440.816 372.537
L448.047 372.655
L448.762 372.779
L451.529 372.842
L451.797 372.9
L461.796 373.04
L468.225 373.151
L475.992 373.305
L476.26 373.368
L479.474 373.471
L480.099 373.495
L487.063 373.593
L487.42 373.661
L500.098 373.768
L506.436 373.819
L506.615 373.892
L512.508 373.971
L512.686 374.05
L518.311 374.135
L518.311 374.135" style="fill:none;stroke:#00bfbf;stroke-dasharray:5.000000,1.000000,2.000000,1.000000,5.000000,1.000000;stroke-dashoffset:0.0;"/>
   </g>
   <g id="line2d_5">
    <path clip-path="url(#p7ff5b81e1d)" d="
M72 95.0931
L72.0893 143.104
L72.1786 164.47
L72.5357 204.673
L73.0714 225.43
L73.1606 226.577
L73.607 238.446
L73.7856 239.353
L73.8749 239.655
L74.0534 241.542
L74.3213 244.56
L75.1248 250.425
L75.2141 252.281
L75.3034 252.204
L75.6605 256.214
L75.839 255.976
L76.1069 258.243
L76.1962 258.241
L76.9997 263.569
L77.089 263.529
L78.071 267.766
L78.1603 267.92
L78.696 270.825
L79.2317 272.581
L79.5888 273.435
L79.8566 274.465
L80.8387 278.021
L80.928 278.084
L81.1958 279.063
L82.4458 283.122
L82.6243 283.773
L83.4278 285.901
L83.6957 287.418
L83.785 287.349
L84.0528 288.115
L84.1421 288.455
L84.2314 288.404
L84.4099 288.728
L84.6778 289.953
L84.767 290.03
L85.1242 291.117
L85.2134 291.107
L85.4813 291.827
L85.7491 292.439
L85.8384 292.558
L86.1955 293.661
L86.4634 294.384
L86.7312 294.943
L86.9098 295.484
L87.1776 296.187
L87.4454 296.537
L87.5347 297.066
L87.624 296.963
L88.1597 297.987
L88.6954 298.701
L88.8739 299.218
L89.3203 299.665
L89.4989 300.325
L89.7667 300.597
L89.9453 301.137
L90.0346 301.192
L90.3917 301.858
L90.6595 302.309
L91.3738 303.765
L91.463 303.762
L91.9094 304.485
L91.9987 304.475
L92.4451 305.348
L92.8915 305.54
L93.0701 305.906
L93.3379 306.429
L93.4272 306.515
L93.6058 306.811
L95.4806 309.281
L95.6592 309.927
L95.927 310.055
L96.0163 310.101
L96.2842 310.654
L96.552 310.823
L96.6413 310.816
L96.8198 310.96
L97.177 311.043
L97.4448 311.515
L97.7126 311.818
L97.8912 312.02
L98.159 312.211
L98.5162 312.278
L98.8733 313.361
L99.3197 314.08
L100.659 315.56
L100.837 315.623
L101.016 315.701
L101.284 316.581
L101.73 316.882
L101.998 317.048
L102.98 318.105
L103.159 318.247
L103.337 318.334
L103.516 318.866
L103.694 319.113
L103.784 319.199
L103.962 319.48
L104.587 319.915
L105.034 320.813
L105.301 320.888
L105.569 321.199
L105.748 321.398
L106.105 321.335
L106.462 321.427
L106.73 321.908
L106.908 321.914
L107.266 322.493
L107.623 322.554
L108.069 323.111
L108.248 323.445
L108.426 323.475
L108.605 323.866
L108.783 323.877
L109.408 324.329
L109.676 324.555
L109.944 324.586
L110.301 324.585
L110.48 324.844
L110.837 324.902
L111.015 325.042
L111.372 325.355
L111.908 325.415
L112.087 325.598
L112.533 325.648
L113.337 326.277
L114.051 326.342
L114.229 326.506
L114.408 326.635
L114.587 326.749
L116.104 327.031
L116.908 327.609
L117.086 327.975
L117.354 328.073
L117.533 328.172
L117.711 328.306
L118.158 328.67
L118.515 328.597
L118.693 328.708
L119.229 328.935
L119.497 329.627
L119.765 329.899
L119.943 329.914
L120.122 330.081
L120.39 330.168
L121.104 330.424
L121.283 330.438
L121.64 330.734
L121.818 330.737
L121.997 330.855
L122.354 330.918
L122.8 331.326
L124.407 331.789
L124.675 331.816
L124.943 332.175
L125.389 332.223
L125.836 332.332
L126.193 332.488
L126.55 332.848
L126.907 332.857
L127.711 333.193
L128.068 333.207
L128.157 333.277
L128.336 333.633
L128.514 333.632
L128.693 333.816
L128.782 333.816
L129.05 334
L129.943 334.127
L131.103 334.627
L133.246 335.361
L133.603 335.595
L134.228 335.738
L134.496 335.98
L136.549 336.534
L136.996 336.523
L137.532 336.629
L138.335 336.756
L138.514 336.85
L139.496 336.848
L140.121 337.118
L140.299 337.107
L140.567 337.332
L141.013 337.588
L143.156 337.99
L143.335 338.082
L145.031 338.371
L145.299 338.529
L145.567 338.597
L145.835 338.598
L146.102 338.847
L147.442 339.294
L147.709 339.387
L148.245 339.498
L150.299 340.22
L151.995 340.479
L152.173 340.639
L152.977 340.734
L153.423 340.829
L153.78 340.865
L153.959 340.865
L154.138 341.021
L154.405 341.153
L154.584 341.29
L155.12 341.369
L155.477 341.551
L158.334 341.548
L158.691 341.731
L159.137 341.762
L159.316 341.95
L159.941 342.106
L160.209 342.294
L161.28 342.393
L163.423 342.715
L163.869 342.764
L165.298 342.743
L165.476 342.894
L167.083 343.049
L167.44 343.01
L168.512 343.074
L168.869 343.257
L169.672 343.281
L169.851 343.396
L170.565 343.513
L171.101 343.551
L171.279 343.772
L171.904 343.84
L172.083 343.96
L173.601 344.064
L174.226 344.142
L176.19 344.233
L176.368 344.402
L178.868 344.535
L179.047 344.753
L179.761 344.811
L179.94 344.89
L180.029 344.892
L180.207 345.028
L180.654 345.104
L180.922 345.146
L181.993 345.283
L182.35 345.403
L183.421 345.495
L184.046 345.628
L184.582 345.663
L184.761 345.844
L185.564 346.015
L185.921 346.136
L186.368 346.164
L186.993 346.264
L187.618 346.302
L188.332 346.374
L188.689 346.481
L190.742 346.601
L193.242 346.858
L194.76 346.91
L194.939 347.099
L195.385 347.198
L195.653 347.276
L196.01 347.389
L196.813 347.47
L196.992 347.538
L197.796 347.584
L198.42 347.679
L198.51 347.692
L198.688 347.868
L199.938 347.855
L200.117 348.007
L200.474 348.028
L201.01 348.044
L201.456 348.07
L202.349 348.171
L202.884 348.195
L203.063 348.216
L203.331 348.262
L204.759 348.303
L206.188 348.39
L206.456 348.459
L210.295 348.567
L210.384 348.582
L210.563 348.895
L210.652 348.882
L210.83 348.997
L216.187 349.09
L216.901 349.16
L218.598 349.237
L218.955 349.328
L220.116 349.392
L220.294 349.543
L220.562 349.619
L220.919 349.857
L221.276 349.931
L222.615 350.018
L222.883 350.061
L224.222 350.187
L224.49 350.257
L225.919 350.366
L227.347 350.429
L227.615 350.835
L227.972 350.989
L230.293 351.06
L230.561 351.108
L232.168 351.199
L232.436 351.433
L234.579 351.549
L235.025 351.59
L238.061 351.754
L238.239 351.935
L239.4 352.017
L240.204 352.159
L241.721 352.254
L241.9 352.329
L242.168 352.423
L244.668 352.661
L246.275 352.77
L247.882 352.773
L248.239 352.764
L248.417 352.905
L250.203 353.029
L250.381 353.106
L251.274 353.207
L264.845 354.082
L268.059 354.188
L268.416 354.251
L269.755 354.341
L269.934 354.496
L270.469 354.528
L270.648 354.808
L271.005 354.819
L271.184 354.942
L273.951 355.042
L274.398 355.102
L276.63 355.135
L278.326 355.18
L278.594 355.286
L280.558 355.35
L280.826 355.389
L282.165 355.483
L282.522 355.515
L284.129 355.624
L284.486 355.647
L287.79 355.742
L288.058 355.79
L291.54 355.887
L291.986 355.927
L294.039 355.999
L294.307 356.096
L302.7 356.194
L303.414 356.268
L308.056 356.56
L308.235 356.689
L311.985 356.782
L312.163 356.859
L320.02 356.962
L320.466 357.006
L321.627 357.102
L322.163 357.123
L327.519 357.271
L327.698 357.342
L329.841 357.443
L330.466 357.474
L333.769 357.595
L334.215 357.676
L337.519 357.782
L339.483 357.956
L340.465 358.03
L340.733 358.11
L342.429 358.199
L343.143 358.212
L343.322 358.382
L347.697 358.471
L349.75 358.55
L350.018 358.611
L351.893 358.717
L352.786 358.72
L355.107 358.795
L355.375 358.855
L358.142 358.894
L361.624 359.008
L362.339 359.058
L362.606 359.144
L362.785 359.218
L363.588 359.287
L368.588 359.419
L368.856 359.474
L372.784 359.593
L373.32 359.656
L374.838 359.772
L375.016 359.849
L382.694 359.952
L383.23 360.005
L385.462 360.094
L385.819 360.162
L388.23 360.249
L388.498 360.299
L392.337 360.423
L394.212 360.459
L398.318 360.467
L398.586 360.532
L402.604 360.614
L403.14 360.663
L409.211 360.77
L410.014 360.785
L415.907 360.804
L420.638 360.934
L424.388 360.988
L424.745 361.021
L436.798 361.13
L439.834 361.311
L453.226 361.414
L453.493 361.483
L457.422 361.571
L457.6 361.657
L459.386 361.685
L463.582 361.776
L464.296 361.859
L466.885 361.967
L467.689 362.016
L468.76 362.044
L469.296 362.057
L479.028 362.163
L479.742 362.186
L486.884 362.289
L487.509 362.305
L488.759 362.323
L489.027 362.357
L506.258 362.72
L506.615 362.759
L510.722 362.862
L511.525 362.895
L515.9 363.003
L516.793 363.018
L518.311 363.021
L518.311 363.021" style="fill:none;stroke:#bf00bf;stroke-linecap:square;"/>
   </g>
   <g id="matplotlib.axis_1">
    <g id="xtick_1">
     <g id="line2d_6">
      <defs>
       <path d="
M0 0
L0 -4" id="mc7db9fdffb" style="stroke:#000000;stroke-width:0.5;"/>
      </defs>
      <g>
       <use style="stroke:#000000;stroke-width:0.5;" x="72.0" xlink:href="#mc7db9fdffb" y="388.8"/>
      </g>
     </g>
     <g id="line2d_7">
      <defs>
       <path d="
M0 0
L0 4" id="m5a7d422ac3" style="stroke:#000000;stroke-width:0.5;"/>
      </defs>
      <g>
       <use style="stroke:#000000;stroke-width:0.5;" x="72.0" xlink:href="#m5a7d422ac3" y="43.2"/>
      </g>
     </g>
     <g id="text_1">
      <!-- 0 -->
      <defs>
       <path d="
M56.9844 36.375
Q56.9844 16.7969 50.8594 7.64062
Q44.7344 -1.51562 31.8438 -1.51562
Q18.75 -1.51562 12.7188 7.76562
Q6.6875 17.0469 6.6875 36.2812
Q6.6875 55.6719 12.7812 64.9219
Q18.8906 74.1719 31.8438 74.1719
Q44.9219 74.1719 50.9531 64.7656
Q56.9844 55.375 56.9844 36.375
M44.1406 14.2031
Q45.8438 18.1719 46.4531 23.5156
Q47.0781 28.8594 47.0781 36.375
Q47.0781 43.7969 46.4531 49.2656
Q45.8438 54.7344 44.0938 58.5469
Q42.3906 62.3125 39.4219 64.2031
Q36.4688 66.1094 31.8438 66.1094
Q27.25 66.1094 24.2344 64.2031
Q21.2344 62.3125 19.4844 58.4531
Q17.8281 54.8281 17.2188 49.0156
Q16.6094 43.2188 16.6094 36.2812
Q16.6094 28.6562 17.1406 23.5312
Q17.6719 18.4062 19.4375 14.3594
Q21.0469 10.5469 24 8.54688
Q26.9531 6.54688 31.8438 6.54688
Q36.4219 6.54688 39.4531 8.45312
Q42.4844 10.3594 44.1406 14.2031" id="Verdana-30"/>
      </defs>
      <g transform="translate(68.9821875 401.918125)scale(0.12 -0.12)">
       <use xlink:href="#Verdana-30"/>
      </g>
     </g>
    </g>
    <g id="xtick_2">
     <g id="line2d_8">
      <g>
       <use style="stroke:#000000;stroke-width:0.5;" x="161.28" xlink:href="#mc7db9fdffb" y="388.8"/>
      </g>
     </g>
     <g id="line2d_9">
      <g>
       <use style="stroke:#000000;stroke-width:0.5;" x="161.28" xlink:href="#m5a7d422ac3" y="43.2"/>
      </g>
     </g>
     <g id="text_2">
      <!-- 1000 -->
      <defs>
       <path d="
M52.9375 0
L13.5781 0
L13.5781 7.42188
L28.7188 7.42188
L28.7188 56.1562
L13.5781 56.1562
L13.5781 62.7969
Q16.6562 62.7969 20.1719 63.2969
Q23.6875 63.8125 25.4844 64.7969
Q27.7344 66.0156 29.0312 67.8906
Q30.3281 69.7812 30.5156 72.9531
L38.0938 72.9531
L38.0938 7.42188
L52.9375 7.42188
z
" id="Verdana-31"/>
      </defs>
      <g transform="translate(147.2315625 401.918125)scale(0.12 -0.12)">
       <use xlink:href="#Verdana-31"/>
       <use x="63.57421875" xlink:href="#Verdana-30"/>
       <use x="127.1484375" xlink:href="#Verdana-30"/>
       <use x="190.72265625" xlink:href="#Verdana-30"/>
      </g>
     </g>
    </g>
    <g id="xtick_3">
     <g id="line2d_10">
      <g>
       <use style="stroke:#000000;stroke-width:0.5;" x="250.56" xlink:href="#mc7db9fdffb" y="388.8"/>
      </g>
     </g>
     <g id="line2d_11">
      <g>
       <use style="stroke:#000000;stroke-width:0.5;" x="250.56" xlink:href="#m5a7d422ac3" y="43.2"/>
      </g>
     </g>
     <g id="text_3">
      <!-- 2000 -->
      <defs>
       <path d="
M57.0781 0
L7.85938 0
L7.85938 10.2031
Q12.9844 14.5938 18.1406 18.9844
Q23.2969 23.3906 27.7344 27.7344
Q37.1094 36.8125 40.5781 42.1562
Q44.0469 47.5156 44.0469 53.7188
Q44.0469 59.375 40.3125 62.5625
Q36.5781 65.7656 29.8906 65.7656
Q25.4375 65.7656 20.2656 64.2031
Q15.0938 62.6406 10.1562 59.4219
L9.67188 59.4219
L9.67188 69.6719
Q13.1406 71.3906 18.9219 72.7969
Q24.7031 74.2188 30.125 74.2188
Q41.3125 74.2188 47.6562 68.8125
Q54 63.4219 54 54.2031
Q54 50.0469 52.9531 46.4531
Q51.9062 42.875 49.8594 39.6562
Q47.9531 36.625 45.3906 33.6875
Q42.8281 30.7656 39.1562 27.2031
Q33.9375 22.0781 28.3594 17.2656
Q22.7969 12.4531 17.9688 8.34375
L57.0781 8.34375
z
" id="Verdana-32"/>
      </defs>
      <g transform="translate(236.1684375 401.918125)scale(0.12 -0.12)">
       <use xlink:href="#Verdana-32"/>
       <use x="63.57421875" xlink:href="#Verdana-30"/>
       <use x="127.1484375" xlink:href="#Verdana-30"/>
       <use x="190.72265625" xlink:href="#Verdana-30"/>
      </g>
     </g>
    </g>
    <g id="xtick_4">
     <g id="line2d_12">
      <g>
       <use style="stroke:#000000;stroke-width:0.5;" x="339.84" xlink:href="#mc7db9fdffb" y="388.8"/>
      </g>
     </g>
     <g id="line2d_13">
      <g>
       <use style="stroke:#000000;stroke-width:0.5;" x="339.84" xlink:href="#m5a7d422ac3" y="43.2"/>
      </g>
     </g>
     <g id="text_4">
      <!-- 3000 -->
      <defs>
       <path d="
M50.6875 35.0156
Q53.0312 32.9062 54.5469 29.7344
Q56.0625 26.5625 56.0625 21.5312
Q56.0625 16.5469 54.25 12.3906
Q52.4375 8.25 49.1719 5.17188
Q45.5156 1.76562 40.5469 0.125
Q35.5938 -1.51562 29.6875 -1.51562
Q23.6406 -1.51562 17.7812 -0.0625
Q11.9219 1.375 8.15625 3.07812
L8.15625 13.2812
L8.89062 13.2812
Q13.0312 10.5469 18.6406 8.73438
Q24.2656 6.9375 29.5 6.9375
Q32.5625 6.9375 36.0312 7.95312
Q39.5 8.98438 41.6562 10.9844
Q43.8906 13.1406 44.9844 15.7188
Q46.0938 18.3125 46.0938 22.2656
Q46.0938 26.1719 44.8438 28.7344
Q43.6094 31.2969 41.4062 32.7656
Q39.2031 34.2812 36.0781 34.8438
Q32.9531 35.4062 29.3438 35.4062
L24.9531 35.4062
L24.9531 43.5
L28.375 43.5
Q35.7969 43.5 40.2031 46.5938
Q44.625 49.7031 44.625 55.6719
Q44.625 58.2969 43.5 60.2656
Q42.3906 62.25 40.375 63.5312
Q38.2812 64.7969 35.8906 65.2812
Q33.5 65.7656 30.4688 65.7656
Q25.8281 65.7656 20.5938 64.1094
Q15.375 62.4531 10.75 59.4219
L10.25 59.4219
L10.25 69.625
Q13.7188 71.3438 19.5 72.7812
Q25.2969 74.2188 30.7188 74.2188
Q36.0312 74.2188 40.0781 73.2344
Q44.1406 72.2656 47.4062 70.125
Q50.9219 67.7812 52.7344 64.4531
Q54.5469 61.1406 54.5469 56.6875
Q54.5469 50.6406 50.2656 46.125
Q46 41.6094 40.1875 40.4375
L40.1875 39.75
Q42.5312 39.3594 45.5469 38.1094
Q48.5781 36.8594 50.6875 35.0156" id="Verdana-33"/>
      </defs>
      <g transform="translate(325.46625 401.918125)scale(0.12 -0.12)">
       <use xlink:href="#Verdana-33"/>
       <use x="63.57421875" xlink:href="#Verdana-30"/>
       <use x="127.1484375" xlink:href="#Verdana-30"/>
       <use x="190.72265625" xlink:href="#Verdana-30"/>
      </g>
     </g>
    </g>
    <g id="xtick_5">
     <g id="line2d_14">
      <g>
       <use style="stroke:#000000;stroke-width:0.5;" x="429.12" xlink:href="#mc7db9fdffb" y="388.8"/>
      </g>
     </g>
     <g id="line2d_15">
      <g>
       <use style="stroke:#000000;stroke-width:0.5;" x="429.12" xlink:href="#m5a7d422ac3" y="43.2"/>
      </g>
     </g>
     <g id="text_5">
      <!-- 4000 -->
      <defs>
       <path d="
M58.7344 20.4531
L47.9531 20.4531
L47.9531 0
L38.5781 0
L38.5781 20.4531
L3.76562 20.4531
L3.76562 31.6875
L38.9688 72.7031
L47.9531 72.7031
L47.9531 28.2656
L58.7344 28.2656
z

M38.5781 28.2656
L38.5781 61.0781
L10.4062 28.2656
z
" id="Verdana-34"/>
      </defs>
      <g transform="translate(414.4828125 401.918125)scale(0.12 -0.12)">
       <use xlink:href="#Verdana-34"/>
       <use x="63.57421875" xlink:href="#Verdana-30"/>
       <use x="127.1484375" xlink:href="#Verdana-30"/>
       <use x="190.72265625" xlink:href="#Verdana-30"/>
      </g>
     </g>
    </g>
    <g id="xtick_6">
     <g id="line2d_16">
      <g>
       <use style="stroke:#000000;stroke-width:0.5;" x="518.4" xlink:href="#mc7db9fdffb" y="388.8"/>
      </g>
     </g>
     <g id="line2d_17">
      <g>
       <use style="stroke:#000000;stroke-width:0.5;" x="518.4" xlink:href="#m5a7d422ac3" y="43.2"/>
      </g>
     </g>
     <g id="text_6">
      <!-- 5000 -->
      <defs>
       <path d="
M56.5 23.0938
Q56.5 18.0156 54.6406 13.375
Q52.7812 8.73438 49.5625 5.5625
Q46.0469 2.15625 41.1875 0.3125
Q36.3281 -1.51562 29.9375 -1.51562
Q23.9688 -1.51562 18.4531 -0.265625
Q12.9375 0.984375 9.125 2.73438
L9.125 13.0312
L9.8125 13.0312
Q13.8125 10.5 19.1875 8.71875
Q24.5625 6.9375 29.7344 6.9375
Q33.2031 6.9375 36.4531 7.90625
Q39.7031 8.89062 42.2344 11.3281
Q44.3906 13.4219 45.4844 16.3438
Q46.5781 19.2812 46.5781 23.1406
Q46.5781 26.9062 45.2812 29.4844
Q44 32.0781 41.7031 33.6406
Q39.1562 35.5 35.5156 36.25
Q31.8906 37.0156 27.3906 37.0156
Q23.0938 37.0156 19.1094 36.4219
Q15.1406 35.8438 12.25 35.25
L12.25 72.7031
L56 72.7031
L56 64.1562
L21.6875 64.1562
L21.6875 44.8281
Q23.7812 45.0156 25.9688 45.1094
Q28.1719 45.2188 29.7812 45.2188
Q35.6875 45.2188 40.125 44.2188
Q44.5781 43.2188 48.2969 40.6719
Q52.2031 37.9844 54.3438 33.7344
Q56.5 29.5 56.5 23.0938" id="Verdana-35"/>
      </defs>
      <g transform="translate(504.084375 401.918125)scale(0.12 -0.12)">
       <use xlink:href="#Verdana-35"/>
       <use x="63.57421875" xlink:href="#Verdana-30"/>
       <use x="127.1484375" xlink:href="#Verdana-30"/>
       <use x="190.72265625" xlink:href="#Verdana-30"/>
      </g>
     </g>
    </g>
    <g id="text_7">
     <!-- Objective function exectuions -->
     <defs>
      <path d="
M57.0312 27.6875
Q57.0312 20.8438 55.0938 15.375
Q53.1719 9.90625 49.9062 6.20312
Q46.4375 2.34375 42.2812 0.40625
Q38.1406 -1.51562 33.1562 -1.51562
Q28.5156 -1.51562 25.0469 -0.40625
Q21.5781 0.6875 18.2188 2.54688
L17.625 0
L9.03125 0
L9.03125 75.9844
L18.2188 75.9844
L18.2188 48.8281
Q22.0781 52 26.4219 54.0312
Q30.7656 56.0625 36.1875 56.0625
Q45.8438 56.0625 51.4375 48.6406
Q57.0312 41.2188 57.0312 27.6875
M47.5625 27.4375
Q47.5625 37.2031 44.3281 42.25
Q41.1094 47.3125 33.9375 47.3125
Q29.9375 47.3125 25.8281 45.5781
Q21.7344 43.8438 18.2188 41.1094
L18.2188 9.85938
Q22.125 8.10938 24.9219 7.42188
Q27.7344 6.73438 31.2969 6.73438
Q38.9219 6.73438 43.2344 11.7344
Q47.5625 16.75 47.5625 27.4375" id="Verdana-62"/>
      <path d="
M56.2031 54.5469
L34.125 0
L24.9062 0
L2.98438 54.5469
L12.9375 54.5469
L29.8281 11.1406
L46.5781 54.5469
z
" id="Verdana-76"/>
      <path d="
M56.25 0
L44.6719 0
L29.2031 20.9531
L13.625 0
L2.9375 0
L24.2188 27.2031
L3.125 54.5469
L14.7031 54.5469
L30.0781 33.9375
L45.5156 54.5469
L56.25 54.5469
L34.8125 27.6875
z
" id="Verdana-78"/>
      <path d="
M54.6875 26.3125
L14.5 26.3125
Q14.5 21.2969 16.0156 17.5469
Q17.5312 13.8125 20.1719 11.4219
Q22.7031 9.07812 26.1875 7.90625
Q29.6875 6.73438 33.8906 6.73438
Q39.4531 6.73438 45.0938 8.95312
Q50.7344 11.1875 53.125 13.3281
L53.6094 13.3281
L53.6094 3.32812
Q48.9688 1.375 44.1406 0.046875
Q39.3125 -1.26562 33.9844 -1.26562
Q20.4062 -1.26562 12.7812 6.07812
Q5.17188 13.4219 5.17188 26.9531
Q5.17188 40.3281 12.4688 48.1875
Q19.7812 56.0625 31.6875 56.0625
Q42.7188 56.0625 48.7031 49.6094
Q54.6875 43.1719 54.6875 31.2969
z

M45.75 33.3438
Q45.7031 40.5781 42.1094 44.5312
Q38.5312 48.4844 31.2031 48.4844
Q23.8281 48.4844 19.4531 44.1406
Q15.0938 39.7969 14.5 33.3438
z
" id="Verdana-65"/>
      <path d="
M49.3594 3.42188
Q44.7812 1.21875 40.6562 0
Q36.5312 -1.21875 31.8906 -1.21875
Q25.9844 -1.21875 21.0469 0.515625
Q16.1094 2.25 12.5938 5.76562
Q9.03125 9.28125 7.07812 14.6406
Q5.125 20.0156 5.125 27.2031
Q5.125 40.5781 12.4688 48.1875
Q19.8281 55.8125 31.8906 55.8125
Q36.5781 55.8125 41.0938 54.4844
Q45.6094 53.1719 49.3594 51.2656
L49.3594 41.0625
L48.875 41.0625
Q44.6719 44.3438 40.2031 46.0938
Q35.75 47.8594 31.5 47.8594
Q23.6875 47.8594 19.1719 42.6094
Q14.6562 37.3594 14.6562 27.2031
Q14.6562 17.3281 19.0625 12.0312
Q23.4844 6.73438 31.5 6.73438
Q34.2812 6.73438 37.1562 7.46875
Q40.0469 8.20312 42.3281 9.375
Q44.3438 10.4062 46.0938 11.5469
Q47.8594 12.7031 48.875 13.5312
L49.3594 13.5312
z
" id="Verdana-63"/>
      <path d="
M26.0312 63.6719
L15.6719 63.6719
L15.6719 73.1875
L26.0312 73.1875
z

M25.4375 -1.3125
Q25.4375 -10.8906 20.5469 -15.7656
Q15.6719 -20.6562 7.46875 -20.6562
Q5.51562 -20.6562 2.3125 -20.2656
Q-0.875 -19.875 -3.03125 -19.2812
L-3.03125 -10.5469
L-2.54688 -10.5469
Q-1.17188 -11.0781 1.14062 -11.7656
Q3.46875 -12.4531 5.67188 -12.4531
Q9.1875 -12.4531 11.3281 -11.4688
Q13.4844 -10.5 14.5469 -8.54688
Q15.625 -6.59375 15.9375 -3.82812
Q16.2656 -1.07812 16.2656 2.875
L16.2656 46.8281
L4.89062 46.8281
L4.89062 54.5469
L25.4375 54.5469
z
" id="Verdana-6a"/>
      <path d="
M18.8906 63.6719
L8.54688 63.6719
L8.54688 73.1875
L18.8906 73.1875
z

M18.3125 0
L9.125 0
L9.125 54.5469
L18.3125 54.5469
z
" id="Verdana-69"/>
      <path d="
M54.6406 0
L45.4531 0
L45.4531 31.0625
Q45.4531 34.8125 45.0156 38.1094
Q44.5781 41.4062 43.4062 43.2656
Q42.1875 45.3125 39.8906 46.3125
Q37.5938 47.3125 33.9375 47.3125
Q30.1719 47.3125 26.0625 45.4531
Q21.9688 43.6094 18.2188 40.7188
L18.2188 0
L9.03125 0
L9.03125 54.5469
L18.2188 54.5469
L18.2188 48.4844
Q22.5156 52.0469 27.0938 54.0469
Q31.6875 56.0625 36.5312 56.0625
Q45.3594 56.0625 50 50.7344
Q54.6406 45.4062 54.6406 35.4062
z
" id="Verdana-6e"/>
      <path d="
M48 15.7188
Q48 8.25 41.8125 3.46875
Q35.6406 -1.3125 24.9531 -1.3125
Q18.8906 -1.3125 13.8438 0.125
Q8.79688 1.5625 5.375 3.26562
L5.375 13.5781
L5.85938 13.5781
Q10.2031 10.2969 15.5156 8.375
Q20.8438 6.45312 25.7344 6.45312
Q31.7812 6.45312 35.2031 8.40625
Q38.625 10.3594 38.625 14.5469
Q38.625 17.7812 36.7656 19.4375
Q34.9062 21.0938 29.6406 22.2656
Q27.6875 22.7031 24.5312 23.2812
Q21.3906 23.875 18.7969 24.5625
Q11.625 26.4688 8.60938 30.1562
Q5.60938 33.8438 5.60938 39.2031
Q5.60938 42.5781 7 45.5469
Q8.40625 48.5312 11.2344 50.875
Q13.9688 53.1719 18.1875 54.5156
Q22.4062 55.8594 27.6406 55.8594
Q32.5156 55.8594 37.5156 54.6562
Q42.5312 53.4688 45.8438 51.7656
L45.8438 41.9375
L45.3594 41.9375
Q41.8438 44.5312 36.8125 46.3125
Q31.7812 48.0938 26.9531 48.0938
Q21.9219 48.0938 18.4531 46.1562
Q14.9844 44.2344 14.9844 40.4375
Q14.9844 37.0625 17.0938 35.3594
Q19.1406 33.6406 23.7344 32.5625
Q26.2656 31.9844 29.4062 31.3906
Q32.5625 30.8125 34.6719 30.3281
Q41.0625 28.8594 44.5312 25.2969
Q48 21.6875 48 15.7188" id="Verdana-73"/>
      <path d="
M38.375 67.0938
L37.8906 67.0938
Q36.375 67.5312 33.9375 67.9844
Q31.5 68.4531 29.6406 68.4531
Q23.7344 68.4531 21.0625 65.8438
Q18.4062 63.2344 18.4062 56.3906
L18.4062 54.5469
L34.9688 54.5469
L34.9688 46.8281
L18.7031 46.8281
L18.7031 0
L9.51562 0
L9.51562 46.8281
L3.32812 46.8281
L3.32812 54.5469
L9.51562 54.5469
L9.51562 56.3438
Q9.51562 66.0625 14.3438 71.2656
Q19.1875 76.4688 28.3281 76.4688
Q31.3906 76.4688 33.8594 76.1719
Q36.3281 75.875 38.375 75.4844
z
" id="Verdana-66"/>
      <path id="Verdana-20"/>
      <path d="
M63.9688 64.3594
Q68.4062 59.4688 70.7656 52.3906
Q73.1406 45.3125 73.1406 36.3281
Q73.1406 27.3438 70.7188 20.2344
Q68.3125 13.1406 63.9688 8.40625
Q59.4688 3.46875 53.3438 0.96875
Q47.2188 -1.51562 39.3594 -1.51562
Q31.6875 -1.51562 25.4062 1.01562
Q19.1406 3.5625 14.75 8.40625
Q10.3594 13.2344 7.98438 20.2656
Q5.60938 27.2969 5.60938 36.3281
Q5.60938 45.2188 7.95312 52.2656
Q10.2969 59.3281 14.7969 64.3594
Q19.0938 69.1406 25.4688 71.6719
Q31.8438 74.2188 39.3594 74.2188
Q47.1719 74.2188 53.3906 71.6562
Q59.625 69.0938 63.9688 64.3594
M63.0938 36.3281
Q63.0938 50.4844 56.7344 58.1719
Q50.3906 65.875 39.4062 65.875
Q28.3281 65.875 22 58.1719
Q15.6719 50.4844 15.6719 36.3281
Q15.6719 22.0156 22.1094 14.4219
Q28.5625 6.84375 39.4062 6.84375
Q50.25 6.84375 56.6719 14.4219
Q63.0938 22.0156 63.0938 36.3281" id="Verdana-4f"/>
      <path d="
M55.5156 27.25
Q55.5156 13.9219 48.6719 6.20312
Q41.8438 -1.51562 30.375 -1.51562
Q18.7969 -1.51562 11.9844 6.20312
Q5.17188 13.9219 5.17188 27.25
Q5.17188 40.5781 11.9844 48.3125
Q18.7969 56.0625 30.375 56.0625
Q41.8438 56.0625 48.6719 48.3125
Q55.5156 40.5781 55.5156 27.25
M46.0469 27.25
Q46.0469 37.8438 41.8906 42.9844
Q37.75 48.1406 30.375 48.1406
Q22.9062 48.1406 18.7812 42.9844
Q14.6562 37.8438 14.6562 27.25
Q14.6562 17 18.7969 11.6875
Q22.9531 6.39062 30.375 6.39062
Q37.7031 6.39062 41.875 11.6406
Q46.0469 16.8906 46.0469 27.25" id="Verdana-6f"/>
      <path d="
M37.3594 0.484375
Q34.7656 -0.203125 31.7031 -0.640625
Q28.6562 -1.07812 26.2656 -1.07812
Q17.9219 -1.07812 13.5781 3.40625
Q9.23438 7.90625 9.23438 17.8281
L9.23438 46.8281
L3.03125 46.8281
L3.03125 54.5469
L9.23438 54.5469
L9.23438 70.2188
L18.4062 70.2188
L18.4062 54.5469
L37.3594 54.5469
L37.3594 46.8281
L18.4062 46.8281
L18.4062 21.9688
Q18.4062 17.6719 18.5938 15.25
Q18.7969 12.8438 19.9688 10.75
Q21.0469 8.79688 22.9219 7.89062
Q24.8125 6.98438 28.6562 6.98438
Q30.9062 6.98438 33.3438 7.64062
Q35.7969 8.29688 36.8594 8.73438
L37.3594 8.73438
z
" id="Verdana-74"/>
      <path d="
M54.25 0
L45.0625 0
L45.0625 6.0625
Q40.4375 2.39062 36.1875 0.4375
Q31.9375 -1.51562 26.8125 -1.51562
Q18.2188 -1.51562 13.4219 3.73438
Q8.64062 8.98438 8.64062 19.1406
L8.64062 54.5469
L17.8281 54.5469
L17.8281 23.4844
Q17.8281 19.3438 18.2188 16.375
Q18.6094 13.4219 19.875 11.3281
Q21.1875 9.1875 23.2812 8.20312
Q25.3906 7.23438 29.3906 7.23438
Q32.9531 7.23438 37.1719 9.07812
Q41.4062 10.9375 45.0625 13.8125
L45.0625 54.5469
L54.25 54.5469
z
" id="Verdana-75"/>
     </defs>
     <g transform="translate(206.5078125 418.509375)scale(0.12 -0.12)">
      <use xlink:href="#Verdana-4f"/>
      <use x="78.7109375" xlink:href="#Verdana-62"/>
      <use x="141.015625" xlink:href="#Verdana-6a"/>
      <use x="175.439453125" xlink:href="#Verdana-65"/>
      <use x="235.009765625" xlink:href="#Verdana-63"/>
      <use x="287.109375" xlink:href="#Verdana-74"/>
      <use x="326.513671875" xlink:href="#Verdana-69"/>
      <use x="353.955078125" xlink:href="#Verdana-76"/>
      <use x="412.259765625" xlink:href="#Verdana-65"/>
      <use x="471.830078125" xlink:href="#Verdana-20"/>
      <use x="506.986328125" xlink:href="#Verdana-66"/>
      <use x="542.142578125" xlink:href="#Verdana-75"/>
      <use x="605.423828125" xlink:href="#Verdana-6e"/>
      <use x="668.705078125" xlink:href="#Verdana-63"/>
      <use x="720.8046875" xlink:href="#Verdana-74"/>
      <use x="760.208984375" xlink:href="#Verdana-69"/>
      <use x="787.650390625" xlink:href="#Verdana-6f"/>
      <use x="848.34375" xlink:href="#Verdana-6e"/>
      <use x="911.625" xlink:href="#Verdana-20"/>
      <use x="946.78125" xlink:href="#Verdana-65"/>
      <use x="1006.3515625" xlink:href="#Verdana-78"/>
      <use x="1064.40625" xlink:href="#Verdana-65"/>
      <use x="1123.9765625" xlink:href="#Verdana-63"/>
      <use x="1176.076171875" xlink:href="#Verdana-74"/>
      <use x="1215.48046875" xlink:href="#Verdana-75"/>
      <use x="1278.76171875" xlink:href="#Verdana-69"/>
      <use x="1306.203125" xlink:href="#Verdana-6f"/>
      <use x="1366.896484375" xlink:href="#Verdana-6e"/>
      <use x="1430.177734375" xlink:href="#Verdana-73"/>
     </g>
    </g>
   </g>
   <g id="matplotlib.axis_2">
    <g id="ytick_1">
     <g id="line2d_18">
      <defs>
       <path d="
M0 0
L4 0" id="md7965d1ba0" style="stroke:#000000;stroke-width:0.5;"/>
      </defs>
      <g>
       <use style="stroke:#000000;stroke-width:0.5;" x="72.0" xlink:href="#md7965d1ba0" y="388.8"/>
      </g>
     </g>
     <g id="line2d_19">
      <defs>
       <path d="
M0 0
L-4 0" id="md9a1c1a7cd" style="stroke:#000000;stroke-width:0.5;"/>
      </defs>
      <g>
       <use style="stroke:#000000;stroke-width:0.5;" x="518.4" xlink:href="#md9a1c1a7cd" y="388.8"/>
      </g>
     </g>
     <g id="text_8">
      <!-- 0 -->
      <g transform="translate(61.964375 392.1515625)scale(0.12 -0.12)">
       <use xlink:href="#Verdana-30"/>
      </g>
     </g>
    </g>
    <g id="ytick_2">
     <g id="line2d_20">
      <g>
       <use style="stroke:#000000;stroke-width:0.5;" x="72.0" xlink:href="#md7965d1ba0" y="339.428571429"/>
      </g>
     </g>
     <g id="line2d_21">
      <g>
       <use style="stroke:#000000;stroke-width:0.5;" x="518.4" xlink:href="#md9a1c1a7cd" y="339.428571429"/>
      </g>
     </g>
     <g id="text_9">
      <!-- 50 -->
      <g transform="translate(54.6275 342.780133929)scale(0.12 -0.12)">
       <use xlink:href="#Verdana-35"/>
       <use x="63.57421875" xlink:href="#Verdana-30"/>
      </g>
     </g>
    </g>
    <g id="ytick_3">
     <g id="line2d_22">
      <g>
       <use style="stroke:#000000;stroke-width:0.5;" x="72.0" xlink:href="#md7965d1ba0" y="290.057142857"/>
      </g>
     </g>
     <g id="line2d_23">
      <g>
       <use style="stroke:#000000;stroke-width:0.5;" x="518.4" xlink:href="#md9a1c1a7cd" y="290.057142857"/>
      </g>
     </g>
     <g id="text_10">
      <!-- 100 -->
      <g transform="translate(47.5325 293.408705357)scale(0.12 -0.12)">
       <use xlink:href="#Verdana-31"/>
       <use x="63.57421875" xlink:href="#Verdana-30"/>
       <use x="127.1484375" xlink:href="#Verdana-30"/>
      </g>
     </g>
    </g>
    <g id="ytick_4">
     <g id="line2d_24">
      <g>
       <use style="stroke:#000000;stroke-width:0.5;" x="72.0" xlink:href="#md7965d1ba0" y="240.685714286"/>
      </g>
     </g>
     <g id="line2d_25">
      <g>
       <use style="stroke:#000000;stroke-width:0.5;" x="518.4" xlink:href="#md9a1c1a7cd" y="240.685714286"/>
      </g>
     </g>
     <g id="text_11">
      <!-- 150 -->
      <g transform="translate(47.5325 244.037276786)scale(0.12 -0.12)">
       <use xlink:href="#Verdana-31"/>
       <use x="63.57421875" xlink:href="#Verdana-35"/>
       <use x="127.1484375" xlink:href="#Verdana-30"/>
      </g>
     </g>
    </g>
    <g id="ytick_5">
     <g id="line2d_26">
      <g>
       <use style="stroke:#000000;stroke-width:0.5;" x="72.0" xlink:href="#md7965d1ba0" y="191.314285714"/>
      </g>
     </g>
     <g id="line2d_27">
      <g>
       <use style="stroke:#000000;stroke-width:0.5;" x="518.4" xlink:href="#md9a1c1a7cd" y="191.314285714"/>
      </g>
     </g>
     <g id="text_12">
      <!-- 200 -->
      <g transform="translate(46.84625 194.665848214)scale(0.12 -0.12)">
       <use xlink:href="#Verdana-32"/>
       <use x="63.57421875" xlink:href="#Verdana-30"/>
       <use x="127.1484375" xlink:href="#Verdana-30"/>
      </g>
     </g>
    </g>
    <g id="ytick_6">
     <g id="line2d_28">
      <g>
       <use style="stroke:#000000;stroke-width:0.5;" x="72.0" xlink:href="#md7965d1ba0" y="141.942857143"/>
      </g>
     </g>
     <g id="line2d_29">
      <g>
       <use style="stroke:#000000;stroke-width:0.5;" x="518.4" xlink:href="#md9a1c1a7cd" y="141.942857143"/>
      </g>
     </g>
     <g id="text_13">
      <!-- 250 -->
      <g transform="translate(46.84625 145.294419643)scale(0.12 -0.12)">
       <use xlink:href="#Verdana-32"/>
       <use x="63.57421875" xlink:href="#Verdana-35"/>
       <use x="127.1484375" xlink:href="#Verdana-30"/>
      </g>
     </g>
    </g>
    <g id="ytick_7">
     <g id="line2d_30">
      <g>
       <use style="stroke:#000000;stroke-width:0.5;" x="72.0" xlink:href="#md7965d1ba0" y="92.5714285714"/>
      </g>
     </g>
     <g id="line2d_31">
      <g>
       <use style="stroke:#000000;stroke-width:0.5;" x="518.4" xlink:href="#md9a1c1a7cd" y="92.5714285714"/>
      </g>
     </g>
     <g id="text_14">
      <!-- 300 -->
      <g transform="translate(46.881875 95.9229910714)scale(0.12 -0.12)">
       <use xlink:href="#Verdana-33"/>
       <use x="63.57421875" xlink:href="#Verdana-30"/>
       <use x="127.1484375" xlink:href="#Verdana-30"/>
      </g>
     </g>
    </g>
    <g id="ytick_8">
     <g id="line2d_32">
      <g>
       <use style="stroke:#000000;stroke-width:0.5;" x="72.0" xlink:href="#md7965d1ba0" y="43.2"/>
      </g>
     </g>
     <g id="line2d_33">
      <g>
       <use style="stroke:#000000;stroke-width:0.5;" x="518.4" xlink:href="#md9a1c1a7cd" y="43.2"/>
      </g>
     </g>
     <g id="text_15">
      <!-- 350 -->
      <g transform="translate(46.881875 46.5515625)scale(0.12 -0.12)">
       <use xlink:href="#Verdana-33"/>
       <use x="63.57421875" xlink:href="#Verdana-35"/>
       <use x="127.1484375" xlink:href="#Verdana-30"/>
      </g>
     </g>
    </g>
    <g id="text_16">
     <!-- Standard Deviation -->
     <defs>
      <path d="
M51.4219 0
L42.2812 0
L42.2812 5.8125
Q41.0625 4.98438 38.9844 3.48438
Q36.9219 2 34.9688 1.125
Q32.6719 0 29.6875 -0.75
Q26.7031 -1.51562 22.7031 -1.51562
Q15.3281 -1.51562 10.2031 3.35938
Q5.07812 8.25 5.07812 15.8281
Q5.07812 22.0156 7.73438 25.8438
Q10.4062 29.6875 15.3281 31.8906
Q20.3125 34.0781 27.2969 34.8594
Q34.2812 35.6406 42.2812 36.0312
L42.2812 37.4531
Q42.2812 40.5781 41.1875 42.625
Q40.0938 44.6719 38.0312 45.8438
Q36.0781 46.9688 33.3438 47.3594
Q30.6094 47.75 27.6406 47.75
Q24.0312 47.75 19.5781 46.7969
Q15.1406 45.8438 10.4062 44.0469
L9.90625 44.0469
L9.90625 53.375
Q12.5938 54.1094 17.6719 54.9844
Q22.75 55.8594 27.6875 55.8594
Q33.4531 55.8594 37.7188 54.9062
Q42 53.9531 45.125 51.6562
Q48.1875 49.4219 49.7969 45.8438
Q51.4219 42.2812 51.4219 37.0156
z

M42.2812 13.4219
L42.2812 28.6094
Q38.0938 28.375 32.3906 27.875
Q26.7031 27.3906 23.3906 26.4688
Q19.4375 25.3438 16.9844 22.9688
Q14.5469 20.6094 14.5469 16.4531
Q14.5469 11.7656 17.375 9.39062
Q20.2188 7.03125 26.0312 7.03125
Q30.8594 7.03125 34.8594 8.90625
Q38.875 10.7969 42.2812 13.4219" id="Verdana-61"/>
      <path d="
M71.1875 36.2812
Q71.1875 26.375 66.8594 18.3125
Q62.5469 10.25 55.375 5.8125
Q50.3906 2.73438 44.2656 1.35938
Q38.1406 0 28.125 0
L9.76562 0
L9.76562 72.7031
L27.9375 72.7031
Q38.5781 72.7031 44.8438 71.1562
Q51.125 69.625 55.4688 66.9375
Q62.8906 62.3125 67.0312 54.5938
Q71.1875 46.875 71.1875 36.2812
M61.0781 36.4219
Q61.0781 44.9688 58.0938 50.8281
Q55.125 56.6875 49.2188 60.0625
Q44.9219 62.5 40.0781 63.4531
Q35.25 64.4062 28.5156 64.4062
L19.4375 64.4062
L19.4375 8.29688
L28.5156 8.29688
Q35.5 8.29688 40.7031 9.32812
Q45.9062 10.3594 50.25 13.1406
Q55.6719 16.6094 58.375 22.2656
Q61.0781 27.9375 61.0781 36.4219" id="Verdana-44"/>
      <path d="
M43.0625 44.5312
L42.5781 44.5312
Q40.5312 45.0156 38.5938 45.2344
Q36.6719 45.4531 34.0312 45.4531
Q29.7812 45.4531 25.8281 43.5781
Q21.875 41.7031 18.2188 38.7188
L18.2188 0
L9.03125 0
L9.03125 54.5469
L18.2188 54.5469
L18.2188 46.4844
Q23.6875 50.875 27.8594 52.7031
Q32.0312 54.5469 36.375 54.5469
Q38.7656 54.5469 39.8438 54.4219
Q40.9219 54.2969 43.0625 53.9531
z
" id="Verdana-72"/>
      <path d="
M62.5938 20.75
Q62.5938 16.5 60.6094 12.3438
Q58.6406 8.20312 55.0781 5.32812
Q51.1719 2.20312 45.9688 0.4375
Q40.7656 -1.3125 33.4531 -1.3125
Q25.5938 -1.3125 19.3125 0.140625
Q13.0312 1.60938 6.54688 4.5
L6.54688 16.6094
L7.23438 16.6094
Q12.75 12.0156 19.9688 9.51562
Q27.2031 7.03125 33.5469 7.03125
Q42.5312 7.03125 47.5312 10.3906
Q52.5469 13.7656 52.5469 19.3906
Q52.5469 24.2188 50.1719 26.5156
Q47.7969 28.8125 42.9688 30.0781
Q39.3125 31.0625 35.0312 31.6875
Q30.7656 32.3281 25.9844 33.2969
Q16.3125 35.3594 11.6406 40.3125
Q6.98438 45.2656 6.98438 53.2188
Q6.98438 62.3594 14.6875 68.1875
Q22.4062 74.0312 34.2812 74.0312
Q41.9375 74.0312 48.3281 72.5625
Q54.7344 71.0938 59.6719 68.9531
L59.6719 57.5156
L58.9844 57.5156
Q54.8281 61.0312 48.0625 63.3438
Q41.3125 65.6719 34.2344 65.6719
Q26.4688 65.6719 21.75 62.4531
Q17.0469 59.2344 17.0469 54.1562
Q17.0469 49.6094 19.3906 47.0156
Q21.7344 44.4375 27.6406 43.0625
Q30.7656 42.3906 36.5156 41.4062
Q42.2812 40.4375 46.2969 39.4062
Q54.3906 37.25 58.4844 32.9062
Q62.5938 28.5625 62.5938 20.75" id="Verdana-53"/>
      <path d="
M53.2656 0
L44.0938 0
L44.0938 5.71875
Q40.1406 2.29688 35.8438 0.390625
Q31.5469 -1.51562 26.5156 -1.51562
Q16.75 -1.51562 11.0156 6
Q5.28125 13.5312 5.28125 26.8594
Q5.28125 33.7969 7.25 39.2031
Q9.23438 44.625 12.5938 48.4375
Q15.9219 52.1562 20.3281 54.1094
Q24.75 56.0625 29.5 56.0625
Q33.7969 56.0625 37.1094 55.1562
Q40.4375 54.25 44.0938 52.3438
L44.0938 75.9844
L53.2656 75.9844
z

M44.0938 13.4219
L44.0938 44.7344
Q40.375 46.3906 37.4375 47.0156
Q34.5156 47.6562 31.0625 47.6562
Q23.3438 47.6562 19.0469 42.2812
Q14.75 36.9219 14.75 27.0469
Q14.75 17.3281 18.0625 12.2812
Q21.3906 7.23438 28.7188 7.23438
Q32.625 7.23438 36.625 8.95312
Q40.625 10.6875 44.0938 13.4219" id="Verdana-64"/>
     </defs>
     <g transform="translate(39.43125 273.5465625)rotate(-90.0)scale(0.12 -0.12)">
      <use xlink:href="#Verdana-53"/>
      <use x="68.359375" xlink:href="#Verdana-74"/>
      <use x="107.763671875" xlink:href="#Verdana-61"/>
      <use x="167.822265625" xlink:href="#Verdana-6e"/>
      <use x="231.103515625" xlink:href="#Verdana-64"/>
      <use x="293.408203125" xlink:href="#Verdana-61"/>
      <use x="353.466796875" xlink:href="#Verdana-72"/>
      <use x="396.142578125" xlink:href="#Verdana-64"/>
      <use x="458.447265625" xlink:href="#Verdana-20"/>
      <use x="493.603515625" xlink:href="#Verdana-44"/>
      <use x="570.654296875" xlink:href="#Verdana-65"/>
      <use x="630.224609375" xlink:href="#Verdana-76"/>
      <use x="689.404296875" xlink:href="#Verdana-69"/>
      <use x="716.845703125" xlink:href="#Verdana-61"/>
      <use x="776.904296875" xlink:href="#Verdana-74"/>
      <use x="816.30859375" xlink:href="#Verdana-69"/>
      <use x="843.75" xlink:href="#Verdana-6f"/>
      <use x="904.443359375" xlink:href="#Verdana-6e"/>
     </g>
    </g>
   </g>
   <g id="patch_3">
    <path d="
M72 43.2
L518.4 43.2" style="fill:none;stroke:#000000;"/>
   </g>
   <g id="patch_4">
    <path d="
M72 388.8
L72 43.2" style="fill:none;stroke:#000000;"/>
   </g>
   <g id="patch_5">
    <path d="
M518.4 388.8
L518.4 43.2" style="fill:none;stroke:#000000;"/>
   </g>
   <g id="patch_6">
    <path d="
M72 388.8
L518.4 388.8" style="fill:none;stroke:#000000;"/>
   </g>
   <g id="text_17">
    <!-- EggHolder Standard Deviation -->
    <defs>
     <path d="
M18.3125 0
L9.125 0
L9.125 75.9844
L18.3125 75.9844
z
" id="Verdana-6c"/>
     <path d="
M57.6719 0
L9.76562 0
L9.76562 72.7031
L57.6719 72.7031
L57.6719 64.1094
L19.4375 64.1094
L19.4375 44.1875
L57.6719 44.1875
L57.6719 35.5938
L19.4375 35.5938
L19.4375 8.59375
L57.6719 8.59375
z
" id="Verdana-45"/>
     <path d="
M65.375 0
L55.7188 0
L55.7188 35.5938
L19.4375 35.5938
L19.4375 0
L9.76562 0
L9.76562 72.7031
L19.4375 72.7031
L19.4375 44.1875
L55.7188 44.1875
L55.7188 72.7031
L65.375 72.7031
z
" id="Verdana-48"/>
     <path d="
M53.2656 6.20312
Q53.2656 -7.67188 46.9688 -14.1562
Q40.6719 -20.6562 27.5938 -20.6562
Q23.25 -20.6562 19.1094 -20.0469
Q14.9844 -19.4375 10.9844 -18.3125
L10.9844 -8.9375
L11.4688 -8.9375
Q13.7188 -9.8125 18.5938 -11.1094
Q23.4844 -12.4062 28.375 -12.4062
Q33.0625 -12.4062 36.125 -11.2812
Q39.2031 -10.1562 40.9219 -8.15625
Q42.625 -6.25 43.3594 -3.5625
Q44.0938 -0.875 44.0938 2.4375
L44.0938 7.42188
Q39.9375 4.10938 36.1562 2.46875
Q32.375 0.828125 26.5156 0.828125
Q16.75 0.828125 11.0156 7.875
Q5.28125 14.9375 5.28125 27.7812
Q5.28125 34.8125 7.25 39.9062
Q9.23438 45.0156 12.6406 48.7344
Q15.8281 52.2031 20.3594 54.125
Q24.9062 56.0625 29.3906 56.0625
Q34.125 56.0625 37.3281 55.1094
Q40.5312 54.1562 44.0938 52.2031
L44.6719 54.5469
L53.2656 54.5469
z

M44.0938 14.9844
L44.0938 44.7344
Q40.4375 46.3906 37.2812 47.0938
Q34.125 47.7969 31 47.7969
Q23.4375 47.7969 19.0938 42.7188
Q14.75 37.6406 14.75 27.9844
Q14.75 18.7969 17.9688 14.0625
Q21.1875 9.32812 28.6562 9.32812
Q32.6719 9.32812 36.6875 10.8594
Q40.7188 12.4062 44.0938 14.9844" id="Verdana-67"/>
    </defs>
    <g transform="translate(186.483375 38.2)scale(0.144 -0.144)">
     <use xlink:href="#Verdana-45"/>
     <use x="63.232421875" xlink:href="#Verdana-67"/>
     <use x="125.537109375" xlink:href="#Verdana-67"/>
     <use x="187.841796875" xlink:href="#Verdana-48"/>
     <use x="262.98828125" xlink:href="#Verdana-6f"/>
     <use x="323.681640625" xlink:href="#Verdana-6c"/>
     <use x="351.123046875" xlink:href="#Verdana-64"/>
     <use x="413.427734375" xlink:href="#Verdana-65"/>
     <use x="472.998046875" xlink:href="#Verdana-72"/>
     <use x="515.673828125" xlink:href="#Verdana-20"/>
     <use x="550.830078125" xlink:href="#Verdana-53"/>
     <use x="619.189453125" xlink:href="#Verdana-74"/>
     <use x="658.59375" xlink:href="#Verdana-61"/>
     <use x="718.65234375" xlink:href="#Verdana-6e"/>
     <use x="781.93359375" xlink:href="#Verdana-64"/>
     <use x="844.23828125" xlink:href="#Verdana-61"/>
     <use x="904.296875" xlink:href="#Verdana-72"/>
     <use x="946.97265625" xlink:href="#Verdana-64"/>
     <use x="1009.27734375" xlink:href="#Verdana-20"/>
     <use x="1044.43359375" xlink:href="#Verdana-44"/>
     <use x="1121.484375" xlink:href="#Verdana-65"/>
     <use x="1181.0546875" xlink:href="#Verdana-76"/>
     <use x="1240.234375" xlink:href="#Verdana-69"/>
     <use x="1267.67578125" xlink:href="#Verdana-61"/>
     <use x="1327.734375" xlink:href="#Verdana-74"/>
     <use x="1367.138671875" xlink:href="#Verdana-69"/>
     <use x="1394.580078125" xlink:href="#Verdana-6f"/>
     <use x="1455.2734375" xlink:href="#Verdana-6e"/>
    </g>
   </g>
   <g id="legend_1">
    <g id="patch_7">
     <path d="
M407.18 159.919
L511.2 159.919
L511.2 50.4
L407.18 50.4
L407.18 159.919
z
" style="fill:#ffffff;stroke:#000000;"/>
    </g>
    <g id="line2d_34">
     <path d="
M417.26 62.0617
L437.42 62.0617" style="fill:none;stroke:#0000ff;stroke-dasharray:6.000000,2.000000;stroke-dashoffset:0.0;"/>
    </g>
    <g id="line2d_35"/>
    <g id="text_18">
     <!-- AMPGO -->
     <defs>
      <path d="
M74.5156 0
L64.8438 0
L64.8438 62.6406
L44.625 20.0156
L38.875 20.0156
L18.7969 62.6406
L18.7969 0
L9.76562 0
L9.76562 72.7031
L22.9531 72.7031
L42.3281 32.2344
L61.0781 72.7031
L74.5156 72.7031
z
" id="Verdana-4d"/>
      <path d="
M57.3281 50.7344
Q57.3281 45.9062 55.6406 41.7656
Q53.9531 37.6406 50.9219 34.625
Q47.1719 30.8594 42.0469 28.9688
Q36.9219 27.0938 29.1094 27.0938
L19.4375 27.0938
L19.4375 0
L9.76562 0
L9.76562 72.7031
L29.5 72.7031
Q36.0312 72.7031 40.5781 71.6094
Q45.125 70.5156 48.6406 68.1719
Q52.7812 65.375 55.0469 61.2188
Q57.3281 57.0781 57.3281 50.7344
M47.2656 50.4844
Q47.2656 54.25 45.9375 57.0312
Q44.625 59.8125 41.9375 61.5781
Q39.5938 63.0938 36.5938 63.75
Q33.5938 64.4062 29 64.4062
L19.4375 64.4062
L19.4375 35.3594
L27.5938 35.3594
Q33.4531 35.3594 37.1094 36.4062
Q40.7656 37.4531 43.0625 39.75
Q45.3594 42.0938 46.3125 44.6719
Q47.2656 47.2656 47.2656 50.4844" id="Verdana-50"/>
      <path d="
M70.4062 5.375
Q64.4531 2.64062 57.3906 0.609375
Q50.3438 -1.42188 43.75 -1.42188
Q35.25 -1.42188 28.1719 0.921875
Q21.0938 3.26562 16.1094 7.95312
Q11.0781 12.7031 8.34375 19.7969
Q5.60938 26.9062 5.60938 36.4219
Q5.60938 53.8594 15.7969 63.9375
Q25.9844 74.0312 43.75 74.0312
Q49.9531 74.0312 56.4219 72.5312
Q62.8906 71.0469 70.3594 67.4844
L70.3594 56
L69.4844 56
Q67.9688 57.1719 65.0781 59.0781
Q62.2031 60.9844 59.4219 62.25
Q56.0625 63.7656 51.7812 64.7656
Q47.5156 65.7656 42.0938 65.7656
Q29.8906 65.7656 22.7812 57.9219
Q15.6719 50.0938 15.6719 36.7188
Q15.6719 22.6094 23.0938 14.7656
Q30.5156 6.9375 43.3125 6.9375
Q48 6.9375 52.6562 7.85938
Q57.3281 8.79688 60.8438 10.25
L60.8438 28.0781
L41.3594 28.0781
L41.3594 36.5781
L70.4062 36.5781
z
" id="Verdana-47"/>
      <path d="
M67.0938 0
L56.7812 0
L49.6562 20.2656
L18.2188 20.2656
L11.0781 0
L1.26562 0
L27.7344 72.7031
L40.625 72.7031
z

M46.6875 28.5625
L33.9375 64.2656
L21.1406 28.5625
z
" id="Verdana-41"/>
     </defs>
     <g transform="translate(453.26025 67.10175)scale(0.144 -0.144)">
      <use xlink:href="#Verdana-41"/>
      <use x="68.359375" xlink:href="#Verdana-4d"/>
      <use x="152.63671875" xlink:href="#Verdana-50"/>
      <use x="212.939453125" xlink:href="#Verdana-47"/>
      <use x="290.478515625" xlink:href="#Verdana-4f"/>
     </g>
    </g>
    <g id="line2d_36">
     <path d="
M417.26 83.1015
L437.42 83.1015" style="fill:none;stroke:#008000;stroke-dasharray:1.000000,1.000000;stroke-dashoffset:0.0;"/>
    </g>
    <g id="line2d_37"/>
    <g id="text_19">
     <!-- Anneal -->
     <g transform="translate(453.26025 88.1415)scale(0.144 -0.144)">
      <use xlink:href="#Verdana-41"/>
      <use x="68.359375" xlink:href="#Verdana-6e"/>
      <use x="131.640625" xlink:href="#Verdana-6e"/>
      <use x="194.921875" xlink:href="#Verdana-65"/>
      <use x="254.4921875" xlink:href="#Verdana-61"/>
      <use x="314.55078125" xlink:href="#Verdana-6c"/>
     </g>
    </g>
    <g id="line2d_38">
     <path d="
M417.26 104.141
L437.42 104.141" style="fill:none;stroke:#ff0000;stroke-dasharray:3.000000,6.000000;stroke-dashoffset:0.0;"/>
    </g>
    <g id="line2d_39"/>
    <g id="text_20">
     <!-- BSA -->
     <defs>
      <path d="
M64.5938 22.3594
Q64.5938 16.9375 62.5469 12.7812
Q60.5 8.64062 57.0312 5.95312
Q52.9375 2.73438 48.0156 1.35938
Q43.1094 0 35.5469 0
L9.76562 0
L9.76562 72.7031
L31.2969 72.7031
Q39.2656 72.7031 43.2188 72.1094
Q47.1719 71.5312 50.7812 69.6719
Q54.7812 67.5781 56.5938 64.2812
Q58.4062 60.9844 58.4062 56.3906
Q58.4062 51.2188 55.7656 47.5781
Q53.125 43.9531 48.7344 41.75
L48.7344 41.3594
Q56.1094 39.8438 60.3438 34.8906
Q64.5938 29.9375 64.5938 22.3594
M48.3438 55.125
Q48.3438 57.7656 47.4531 59.5625
Q46.5781 61.375 44.625 62.5
Q42.3281 63.8125 39.0625 64.125
Q35.7969 64.4531 30.9531 64.4531
L19.4375 64.4531
L19.4375 43.4531
L31.9375 43.4531
Q36.4688 43.4531 39.1562 43.9219
Q41.8438 44.3906 44.1406 45.8438
Q46.4375 47.3125 47.3906 49.625
Q48.3438 51.9531 48.3438 55.125
M54.5469 21.9688
Q54.5469 26.375 53.2188 28.9531
Q51.9062 31.5469 48.4375 33.3438
Q46.0938 34.5781 42.75 34.9375
Q39.4062 35.2969 34.625 35.2969
L19.4375 35.2969
L19.4375 8.25
L32.2344 8.25
Q38.5781 8.25 42.625 8.90625
Q46.6875 9.57812 49.2656 11.3281
Q52 13.2344 53.2656 15.6719
Q54.5469 18.1094 54.5469 21.9688" id="Verdana-42"/>
     </defs>
     <g transform="translate(453.26025 109.18125)scale(0.144 -0.144)">
      <use xlink:href="#Verdana-42"/>
      <use x="68.5546875" xlink:href="#Verdana-53"/>
      <use x="135.9140625" xlink:href="#Verdana-41"/>
     </g>
    </g>
    <g id="line2d_40">
     <path d="
M417.26 125.181
L437.42 125.181" style="fill:none;stroke:#00bfbf;stroke-dasharray:5.000000,1.000000,2.000000,1.000000,5.000000,1.000000;stroke-dashoffset:0.0;"/>
    </g>
    <g id="line2d_41"/>
    <g id="text_21">
     <!-- Cuckoo -->
     <defs>
      <path d="
M58.5469 0
L46.4375 0
L24.5625 23.875
L18.6094 18.2188
L18.6094 0
L9.42188 0
L9.42188 75.9844
L18.6094 75.9844
L18.6094 27.25
L45.125 54.5469
L56.6875 54.5469
L31.3438 29.3438
z
" id="Verdana-6b"/>
      <path d="
M65.9219 5.28125
Q63.2344 4.10938 61.0625 3.07812
Q58.8906 2.04688 55.375 0.921875
Q52.3906 0 48.8906 -0.65625
Q45.4062 -1.3125 41.2188 -1.3125
Q33.2969 -1.3125 26.8281 0.90625
Q20.3594 3.125 15.5781 7.85938
Q10.8906 12.5 8.25 19.6562
Q5.60938 26.8125 5.60938 36.2812
Q5.60938 45.2656 8.14062 52.3438
Q10.6875 59.4219 15.4844 64.3125
Q20.125 69.0469 26.6875 71.5312
Q33.25 74.0312 41.2656 74.0312
Q47.125 74.0312 52.9531 72.6094
Q58.7969 71.1875 65.9219 67.625
L65.9219 56.1562
L65.1875 56.1562
Q59.1875 61.1875 53.2656 63.4688
Q47.3594 65.7656 40.625 65.7656
Q35.1094 65.7656 30.6875 63.9844
Q26.2656 62.2031 22.7969 58.4531
Q19.4375 54.7812 17.5469 49.1875
Q15.6719 43.6094 15.6719 36.2812
Q15.6719 28.6094 17.75 23.0938
Q19.8281 17.5781 23.0938 14.1094
Q26.5156 10.5 31.0781 8.76562
Q35.6406 7.03125 40.7188 7.03125
Q47.7031 7.03125 53.7969 9.42188
Q59.9062 11.8125 65.2344 16.6094
L65.9219 16.6094
z
" id="Verdana-43"/>
     </defs>
     <g transform="translate(453.26025 130.221)scale(0.144 -0.144)">
      <use xlink:href="#Verdana-43"/>
      <use x="69.82421875" xlink:href="#Verdana-75"/>
      <use x="133.10546875" xlink:href="#Verdana-63"/>
      <use x="185.205078125" xlink:href="#Verdana-6b"/>
      <use x="243.384765625" xlink:href="#Verdana-6f"/>
      <use x="304.078125" xlink:href="#Verdana-6f"/>
     </g>
    </g>
    <g id="line2d_42">
     <path d="
M417.26 146.221
L437.42 146.221" style="fill:none;stroke:#bf00bf;stroke-linecap:square;"/>
    </g>
    <g id="line2d_43"/>
    <g id="text_22">
     <!-- qABC -->
     <defs>
      <path d="
M53.2656 -20.125
L44.0938 -20.125
L44.0938 6.15625
Q39.8438 2.48438 35.6406 0.703125
Q31.4531 -1.07812 26.5625 -1.07812
Q16.8438 -1.07812 11.0625 6.42188
Q5.28125 13.9219 5.28125 27.0938
Q5.28125 34.125 7.29688 39.5156
Q9.32812 44.9219 12.6406 48.5781
Q15.875 52.1562 20.2188 54.1094
Q24.5625 56.0625 29.3906 56.0625
Q33.7969 56.0625 37.1875 55.0781
Q40.5781 54.1094 44.0938 52.2031
L44.6719 54.5469
L53.2656 54.5469
z

M44.0938 13.875
L44.0938 44.7344
Q40.2812 46.4375 37.3438 47.1094
Q34.4219 47.7969 31 47.7969
Q23.0469 47.7969 18.8906 42.4062
Q14.75 37.0156 14.75 27.5469
Q14.75 17.9688 18.0938 12.8125
Q21.4375 7.67188 28.6094 7.67188
Q32.625 7.67188 36.625 9.40625
Q40.625 11.1406 44.0938 13.875" id="Verdana-71"/>
     </defs>
     <g transform="translate(453.26025 151.26075)scale(0.144 -0.144)">
      <use xlink:href="#Verdana-71"/>
      <use x="62.3046875" xlink:href="#Verdana-41"/>
      <use x="130.6640625" xlink:href="#Verdana-42"/>
      <use x="199.21875" xlink:href="#Verdana-43"/>
     </g>
    </g>
   </g>
  </g>
 </g>
 <defs>
  <clipPath id="p7ff5b81e1d">
   <rect height="345.6" width="446.4" x="72.0" y="43.2"/>
  </clipPath>
 </defs>
</svg>
