<?xml version="1.0" encoding="utf-8" standalone="no"?>
<!DOCTYPE svg PUBLIC "-//W3C//DTD SVG 1.1//EN"
  "http://www.w3.org/Graphics/SVG/1.1/DTD/svg11.dtd">
<!-- Created with matplotlib (http://matplotlib.org/) -->
<svg height="432pt" version="1.1" viewBox="0 0 576 432" width="576pt" xmlns="http://www.w3.org/2000/svg" xmlns:xlink="http://www.w3.org/1999/xlink">
 <defs>
  <style type="text/css">
*{stroke-linecap:butt;stroke-linejoin:round;}
  </style>
 </defs>
 <g id="figure_1">
  <g id="patch_1">
   <path d="
M0 432
L576 432
L576 0
L0 0
z
" style="fill:#ffffff;"/>
  </g>
  <g id="axes_1">
   <g id="patch_2">
    <path d="
M72 388.8
L518.4 388.8
L518.4 43.2
L72 43.2
z
" style="fill:#ffffff;"/>
   </g>
   <g id="line2d_1">
    <path clip-path="url(#p7ff5b81e1d)" d="
M72 388.606
L72.0893 388.8
L72.1786 388.8
L74.1427 388.8
L74.3213 388.218
L74.4998 388.218
L74.6784 387.635
L74.857 387.635
L75.0355 386.859
L75.2141 386.859
L75.3926 386.47
L75.9283 386.47
L76.1069 386.082
L76.2854 386.082
L76.464 385.888
L76.9997 385.888
L77.1782 385.694
L77.3568 385.694
L77.5354 385.5
L78.071 385.5
L78.2496 385.111
L78.4282 385.111
L78.6067 384.917
L79.4995 384.917
L79.6781 384.529
L81.6422 384.529
L81.8208 384.141
L83.0707 384.141
L83.2493 383.947
L83.4278 383.947
L83.6064 383.752
L86.3741 383.752
L86.5526 383.558
L87.0883 383.558
L87.2669 383.364
L87.4454 383.364
L87.624 383.17
L89.0525 383.17
L89.231 382.976
L89.9453 382.976
L90.1238 382.782
L92.088 382.782
L92.2666 382.588
L97.4448 382.588
L97.6234 382.394
L101.284 382.394
L101.462 382.199
L103.248 382.199
L103.427 382.005
L105.926 382.005
L106.105 381.811
L109.498 381.811
L109.676 381.617
L111.64 381.617
L111.819 381.423
L113.158 381.423
L113.337 381.229
L114.408 381.229
L114.587 381.035
L118.515 381.035
L118.693 380.84
L122.711 380.84
L122.89 380.646
L128.961 380.646
L129.139 380.452
L131.014 380.452
L131.193 380.258
L131.55 380.258
L131.728 380.064
L133.425 380.064
L133.603 379.87
L141.906 379.87
L142.085 379.676
L145.567 379.676
L145.745 379.481
L153.066 379.481
L153.245 379.287
L161.101 379.287
L161.28 379.093
L163.78 379.093
L163.958 378.899
L173.244 378.899
L173.422 378.705
L174.404 378.705
L174.583 378.511
L193.689 378.511
L193.867 378.317
L196.546 378.317
L196.724 378.123
L206.813 378.123
L206.991 377.928
L208.241 377.928
L208.42 377.734
L218.241 377.734
L218.419 377.54
L220.026 377.54
L220.205 377.346
L221.008 377.346
L221.187 377.152
L223.419 377.152
L223.597 376.958
L224.044 376.958
L224.222 376.764
L225.651 376.764
L225.829 376.569
L234.579 376.569
L234.757 376.375
L251.006 376.375
L251.185 376.181
L267.166 376.181
L267.345 375.987
L268.684 375.987
L268.862 375.793
L272.434 375.793
L272.612 375.599
L273.862 375.599
L274.041 375.405
L282.165 375.405
L282.344 375.211
L287.076 375.211
L287.254 375.016
L306.806 375.016
L306.985 374.822
L311.181 374.822
L311.36 374.628
L311.895 374.628
L312.074 374.434
L319.752 374.434
L319.931 374.24
L328.144 374.24
L328.323 374.046
L332.608 374.046
L332.787 373.852
L348.679 373.852
L348.857 373.657
L360.017 373.657
L360.196 373.463
L369.213 373.463
L369.392 373.269
L369.57 373.269
L369.749 373.075
L373.32 373.075
L373.499 372.881
L401.711 372.881
L401.89 372.687
L412.068 372.687
L412.246 372.493
L415.639 372.493
L415.817 372.298
L422.335 372.298
L422.513 372.104
L426.531 372.104
L426.709 371.91
L433.227 371.91
L433.405 371.716
L440.637 371.716
L440.816 371.522
L441.887 371.522
L442.066 371.328
L454.386 371.328
L454.565 371.134
L460.1 371.134
L460.279 370.94
L460.993 370.94
L461.172 370.745
L466.35 370.745
L466.528 370.551
L468.135 370.551
L468.314 370.357
L469.207 370.357
L469.385 370.163
L470.278 370.163
L470.457 369.969
L481.795 369.969
L481.974 369.775
L492.42 369.775
L492.598 369.581
L503.758 369.581
L503.937 369.386
L504.829 369.386
L505.008 369.192
L509.472 369.192
L509.651 368.998
L510.722 368.998
L510.9 368.804
L513.668 368.804
L513.847 368.61
L515.811 368.61
L515.989 368.416
L517.954 368.416
L518.132 368.222
L518.311 368.222
L518.311 368.222" style="fill:none;stroke:#0000ff;stroke-dasharray:6.000000,2.000000;stroke-dashoffset:0.0;"/>
   </g>
   <g id="line2d_2">
    <path clip-path="url(#p7ff5b81e1d)" d="
M72 388.8
L72.3571 388.137
L72.5357 388.634
L72.7142 388.634
L72.8928 388.468
L73.5178 388.468
L73.6963 388.302
L73.8749 388.302
L74.9462 386.146
L75.1248 385.648
L75.3034 385.648
L75.6605 385.151
L75.839 385.151
L76.1069 384.819
L76.2854 384.819
L76.7318 384.156
L76.8211 384.156
L77.9818 382.165
L78.071 382.165
L78.5174 381.336
L78.696 380.672
L78.9638 380.34
L79.2317 380.34
L79.4102 379.511
L79.7674 379.013
L79.8566 379.013
L80.928 377.189
L81.0173 377.189
L81.1958 377.023
L81.2851 377.023
L81.9994 375.862
L82.1779 375.862
L82.4458 375.032
L82.535 375.032
L83.0707 374.203
L83.16 374.203
L83.6957 373.374
L83.8742 372.213
L83.9635 372.213
L84.8563 370.72
L84.9456 370.72
L85.1242 370.222
L85.392 369.393
L85.5706 369.393
L85.7491 369.227
L85.8384 369.227
L86.3741 367.402
L86.4634 367.402
L86.9098 366.573
L87.0883 366.075
L87.2669 366.075
L87.4454 365.743
L87.5347 365.743
L87.8026 365.412
L87.9811 365.412
L88.1597 365.08
L88.249 365.08
L88.5168 364.416
L88.6954 364.251
L88.7846 364.251
L88.9632 363.919
L89.1418 363.919
L89.3203 363.753
L89.4096 363.753
L89.856 363.089
L90.1238 363.089
L91.1059 361.431
L91.5523 361.431
L91.8202 360.435
L92.088 360.435
L92.2666 360.27
L92.4451 360.27
L92.713 359.606
L92.8915 359.108
L92.9808 359.108
L93.3379 358.113
L93.6058 358.113
L93.7843 357.616
L94.2307 357.616
L94.4986 357.284
L94.5878 357.284
L94.7664 356.786
L95.0342 356.786
L95.3914 356.289
L95.8378 356.289
L96.2842 355.625
L96.7306 355.625
L96.9091 355.459
L98.3376 355.459
L98.6054 355.127
L98.6947 355.127
L98.8733 354.63
L99.409 354.63
L99.6768 354.298
L100.927 354.298
L101.73 352.971
L101.909 352.971
L102.355 352.308
L102.444 352.308
L102.623 352.142
L102.98 352.142
L103.159 351.976
L104.052 351.976
L104.23 351.81
L104.409 351.81
L104.676 351.478
L104.944 351.478
L105.123 351.312
L105.212 351.312
L105.391 351.146
L105.748 351.146
L106.016 350.815
L106.284 350.815
L106.462 350.649
L106.641 350.649
L106.819 350.483
L107.444 350.483
L107.623 350.317
L107.712 350.317
L107.891 349.985
L108.158 349.985
L108.337 349.819
L108.694 349.819
L108.873 349.654
L109.051 349.654
L109.23 349.156
L109.408 349.156
L109.676 348.824
L109.855 348.824
L110.033 348.658
L110.123 348.658
L110.301 348.492
L110.569 348.492
L110.748 348.327
L110.837 348.327
L111.015 348.161
L111.194 348.161
L111.372 347.995
L112.712 347.995
L112.89 347.829
L113.962 347.829
L114.408 347.165
L115.926 347.165
L116.104 347
L116.729 347
L116.908 346.834
L117.265 346.834
L117.444 346.668
L117.622 346.668
L117.801 346.502
L120.122 346.502
L120.3 346.336
L120.658 346.336
L120.836 346.17
L122.086 346.17
L122.265 346.004
L122.8 346.004
L122.979 345.838
L124.318 345.838
L124.497 345.673
L124.586 345.673
L124.764 345.507
L125.122 345.507
L125.3 345.341
L125.747 345.341
L125.925 345.175
L126.014 345.175
L126.193 345.009
L126.282 345.009
L126.55 344.677
L127.443 344.677
L127.621 344.511
L127.711 344.511
L127.889 344.346
L128.871 344.346
L129.05 344.18
L129.407 344.18
L129.586 344.014
L130.389 344.014
L130.568 343.848
L130.925 343.848
L131.103 343.682
L131.193 343.682
L131.371 343.516
L131.55 343.516
L131.728 343.35
L134.139 343.35
L134.317 343.184
L134.496 343.184
L134.675 343.019
L139.317 343.019
L139.496 342.853
L139.853 342.853
L140.031 342.687
L140.388 342.687
L140.567 342.521
L141.192 342.521
L141.371 342.355
L142.263 342.355
L142.442 342.189
L142.888 342.189
L143.067 342.023
L145.745 342.023
L146.102 341.526
L149.495 341.526
L149.674 341.36
L149.763 341.36
L149.941 341.194
L150.477 341.194
L150.924 340.53
L153.602 340.53
L153.87 340.199
L154.405 340.199
L154.584 340.033
L157.441 340.033
L157.62 339.867
L157.887 339.867
L158.066 339.701
L161.191 339.701
L161.369 339.535
L164.137 339.535
L164.405 339.203
L166.101 339.203
L166.28 339.038
L166.458 339.038
L166.637 338.872
L166.815 338.872
L166.994 338.706
L167.708 338.706
L167.887 338.54
L171.101 338.54
L171.279 338.374
L171.547 338.374
L171.726 338.208
L176.547 338.208
L176.725 338.042
L177.172 338.042
L177.35 337.876
L179.136 337.876
L179.315 337.711
L182.529 337.711
L182.707 337.545
L188.778 337.545
L188.957 337.379
L193.064 337.379
L193.242 337.213
L196.278 337.213
L196.456 337.047
L205.295 337.047
L205.474 336.881
L206.545 336.881
L206.724 336.715
L206.813 336.715
L206.991 336.549
L209.848 336.549
L210.027 336.384
L221.098 336.384
L221.365 336.052
L228.419 336.052
L228.597 335.886
L235.025 335.886
L235.204 335.72
L236.543 335.72
L236.722 335.554
L241.989 335.554
L242.168 335.388
L242.882 335.388
L243.06 335.222
L244.668 335.222
L244.846 335.057
L247.882 335.057
L248.06 334.891
L261.274 334.891
L261.452 334.725
L267.97 334.725
L268.148 334.559
L273.326 334.559
L273.505 334.393
L304.574 334.393
L304.753 334.227
L318.234 334.227
L318.413 334.061
L321.27 334.061
L321.448 333.895
L330.644 333.895
L330.823 333.73
L331.448 333.73
L331.626 333.564
L332.073 333.564
L332.251 333.398
L349.125 333.398
L349.304 333.232
L364.571 333.232
L364.749 333.066
L384.569 333.066
L384.748 332.9
L389.212 332.9
L389.39 332.734
L395.64 332.734
L395.819 332.568
L400.104 332.568
L400.283 332.403
L421.531 332.403
L421.71 332.237
L452.511 332.237
L452.69 332.071
L467.6 332.071
L467.778 331.905
L490.902 331.905
L491.08 331.739
L518.311 331.739
L518.311 331.739" style="fill:none;stroke:#008000;stroke-dasharray:1.000000,1.000000;stroke-dashoffset:0.0;"/>
   </g>
   <g id="line2d_3">
    <path clip-path="url(#p7ff5b81e1d)" d="
M72 388.8
L73.6963 388.8
L73.8749 388.276
L73.9642 388.276
L74.1427 387.752
L74.3213 387.752
L74.5891 386.705
L74.7677 386.705
L75.1248 385.133
L75.7498 385.133
L75.9283 384.609
L76.464 384.609
L76.6426 384.085
L76.9997 384.085
L77.1782 383.561
L77.8032 383.561
L77.9818 383.037
L79.0531 383.037
L79.4995 380.942
L79.6781 380.942
L79.8566 380.418
L82.8029 380.418
L82.9814 379.894
L83.0707 379.894
L83.2493 379.37
L83.5171 379.37
L83.6957 378.846
L84.3206 378.846
L84.4992 378.323
L84.8563 378.323
L85.0349 377.799
L85.1242 377.799
L85.3027 377.275
L85.5706 377.275
L85.7491 376.751
L86.017 376.751
L86.1955 376.227
L86.6419 376.227
L86.8205 375.703
L86.9098 375.703
L87.0883 375.179
L87.3562 375.179
L87.624 374.132
L87.7133 374.132
L87.8918 373.608
L88.6954 373.608
L88.8739 373.084
L89.5882 373.084
L89.856 372.036
L90.2131 372.036
L90.481 370.988
L90.5702 370.988
L90.7488 370.464
L91.8202 370.464
L92.088 369.417
L92.6237 369.417
L92.8022 368.893
L93.1594 368.893
L93.3379 368.369
L96.6413 368.369
L96.8198 367.845
L96.9091 367.845
L97.0877 367.321
L97.6234 367.321
L97.8019 366.797
L97.9805 366.797
L98.159 366.273
L101.82 366.273
L101.998 364.702
L102.802 364.702
L102.98 364.178
L103.069 364.178
L103.248 363.654
L103.962 363.654
L104.23 362.606
L104.498 362.606
L104.766 361.559
L105.034 361.559
L105.212 361.035
L105.569 361.035
L105.748 360.511
L106.284 360.511
L106.551 359.463
L107.712 359.463
L107.891 358.939
L108.158 358.939
L108.337 358.415
L108.605 358.415
L108.783 357.891
L109.14 357.891
L109.319 357.368
L109.408 357.368
L109.587 356.844
L109.765 356.844
L109.944 356.32
L110.033 356.32
L110.301 355.272
L110.926 355.272
L111.105 354.748
L113.247 354.748
L113.426 354.224
L113.604 354.224
L113.783 353.7
L114.408 353.7
L114.587 353.177
L116.64 353.177
L116.819 352.653
L119.497 352.653
L119.676 352.129
L120.479 352.129
L120.658 351.605
L120.747 351.605
L120.925 351.081
L121.64 351.081
L121.818 350.557
L122.086 350.557
L122.265 350.033
L122.354 350.033
L122.532 348.986
L123.336 348.986
L123.515 348.462
L124.586 348.462
L124.764 347.938
L124.854 347.938
L125.122 346.89
L125.211 346.89
L125.389 346.366
L125.836 346.366
L126.014 345.842
L126.282 345.842
L126.461 345.318
L128.157 345.318
L128.425 344.271
L129.05 344.271
L129.228 343.747
L129.764 343.747
L129.943 343.223
L132.71 343.223
L132.889 342.699
L133.96 342.699
L134.139 342.175
L135.567 342.175
L135.746 341.127
L136.103 341.127
L136.282 340.08
L136.46 339.556
L137.174 339.556
L137.353 339.032
L137.442 339.032
L137.621 337.984
L138.603 337.984
L138.781 337.46
L139.585 337.46
L139.764 336.936
L140.21 336.936
L140.388 335.365
L141.549 335.365
L141.728 334.841
L141.996 334.841
L142.174 334.317
L142.263 334.317
L142.442 333.793
L143.424 333.793
L143.603 333.269
L144.674 333.269
L144.852 332.745
L145.21 332.745
L145.388 332.222
L147.263 332.222
L147.442 331.698
L148.602 331.698
L148.781 331.174
L150.031 331.174
L150.209 330.65
L150.566 330.65
L150.745 330.126
L151.548 330.126
L151.727 329.602
L152.084 329.602
L152.263 327.507
L152.977 327.507
L153.156 326.459
L153.691 326.459
L153.959 325.411
L154.405 325.411
L154.584 324.887
L155.566 324.887
L155.745 324.363
L158.423 324.363
L158.602 323.84
L159.227 323.84
L159.494 322.792
L159.762 322.792
L160.03 321.744
L160.119 321.744
L160.298 321.22
L160.744 321.22
L161.012 320.172
L161.191 320.172
L161.459 319.125
L162.441 319.125
L162.708 318.077
L162.976 318.077
L163.155 317.553
L164.673 317.553
L164.94 316.505
L165.744 316.505
L165.923 315.981
L166.548 315.981
L166.905 314.41
L167.172 314.41
L167.351 313.886
L167.53 313.886
L167.708 312.838
L168.155 312.838
L168.333 312.314
L168.422 312.314
L169.047 309.171
L169.137 309.171
L169.315 308.647
L169.762 308.647
L170.208 306.552
L172.708 306.552
L172.886 305.504
L173.065 304.98
L173.333 304.98
L173.511 304.456
L173.779 304.456
L173.958 303.932
L174.136 303.932
L174.315 303.408
L175.208 303.408
L175.386 302.885
L177.35 302.885
L177.529 302.361
L178.243 302.361
L178.422 301.837
L178.511 301.837
L178.868 300.265
L179.136 300.265
L179.315 299.741
L179.404 299.741
L179.672 298.694
L180.297 298.694
L180.475 298.17
L181.636 298.17
L181.814 297.646
L182.529 297.646
L182.707 297.122
L183.064 297.122
L183.243 296.074
L183.779 296.074
L184.136 294.503
L184.404 294.503
L184.582 293.979
L185.207 293.979
L185.475 292.931
L185.743 292.931
L185.921 292.407
L186.993 292.407
L187.171 291.883
L187.796 291.883
L187.975 291.359
L188.778 291.359
L188.957 290.835
L190.475 290.835
L190.653 290.312
L193.778 290.312
L193.956 289.788
L194.224 289.788
L194.403 289.264
L194.849 289.264
L195.028 288.74
L195.385 288.74
L195.653 287.692
L195.831 287.692
L196.01 286.644
L196.456 286.644
L196.724 285.597
L196.903 285.597
L197.081 285.073
L197.171 285.073
L197.349 284.549
L197.617 284.549
L197.885 283.501
L198.063 283.501
L198.242 282.977
L198.331 282.977
L198.867 280.358
L199.135 280.358
L199.581 278.262
L200.474 278.262
L200.652 277.215
L201.099 277.215
L201.277 276.167
L201.367 276.167
L201.545 275.643
L202.081 275.643
L202.26 275.119
L202.884 275.119
L203.152 274.071
L203.331 274.071
L203.509 273.548
L203.599 273.548
L203.867 272.5
L203.956 272.5
L204.134 271.976
L204.224 271.976
L204.402 271.452
L205.206 271.452
L205.474 270.404
L206.277 270.404
L206.456 269.88
L206.545 269.88
L206.724 268.833
L207.081 268.833
L207.438 267.261
L207.527 267.261
L207.706 266.737
L207.884 266.737
L208.152 265.689
L208.331 265.689
L208.509 265.166
L209.313 265.166
L209.491 264.642
L209.759 264.642
L209.938 264.118
L211.009 264.118
L211.277 263.07
L211.812 263.07
L211.991 262.546
L212.437 262.546
L212.795 260.975
L213.241 260.975
L213.42 260.451
L213.777 260.451
L213.955 259.927
L214.134 259.927
L214.402 258.879
L214.58 258.879
L214.759 257.831
L214.937 257.308
L215.027 257.308
L215.384 255.736
L215.562 255.736
L215.741 255.212
L216.366 255.212
L216.544 254.688
L216.634 254.688
L216.812 254.164
L217.884 254.164
L218.241 252.593
L219.848 252.593
L220.116 251.545
L220.383 251.545
L220.562 251.021
L221.008 251.021
L221.187 250.497
L222.794 250.497
L222.972 249.973
L223.33 249.973
L223.508 249.449
L223.865 249.449
L224.133 248.402
L224.222 248.402
L224.669 246.306
L225.115 246.306
L225.383 245.258
L226.008 245.258
L226.187 244.735
L226.276 244.735
L226.454 244.211
L228.24 244.211
L228.419 243.163
L228.508 243.163
L228.865 241.591
L229.044 241.591
L229.222 241.067
L229.311 241.067
L229.49 240.544
L229.579 240.544
L229.847 239.496
L230.026 239.496
L230.293 238.448
L231.9 238.448
L232.079 237.4
L232.168 237.4
L232.347 236.876
L233.597 236.876
L233.775 236.353
L233.954 236.353
L234.132 235.829
L234.222 235.829
L234.4 235.305
L234.936 235.305
L235.293 233.733
L236.454 233.733
L236.989 231.114
L237.079 231.114
L237.436 229.542
L238.061 229.542
L238.239 229.018
L238.329 229.018
L238.507 228.494
L239.132 228.494
L239.4 227.447
L239.579 227.447
L239.846 226.399
L239.936 226.399
L240.114 225.875
L241.096 225.875
L241.275 225.351
L241.721 225.351
L242.168 223.256
L242.525 223.256
L242.703 222.732
L243.06 222.732
L243.418 221.16
L243.507 221.16
L243.685 220.636
L244.4 220.636
L244.578 220.112
L245.025 220.112
L245.292 219.065
L246.453 219.065
L246.721 218.017
L247.257 218.017
L247.435 217.493
L248.06 217.493
L248.239 216.445
L248.328 216.445
L248.596 215.398
L248.774 215.398
L249.221 213.302
L249.756 213.302
L249.935 212.778
L250.381 212.778
L250.739 211.207
L251.542 211.207
L251.721 210.683
L252.435 210.683
L252.613 209.635
L253.596 209.635
L253.774 209.111
L254.042 209.111
L254.22 208.587
L254.488 208.587
L254.756 207.539
L255.203 207.539
L255.381 206.492
L255.828 206.492
L256.095 205.444
L256.185 205.444
L256.363 204.92
L257.792 204.92
L257.97 204.396
L258.238 204.396
L258.417 203.872
L258.506 203.872
L258.684 203.348
L259.22 203.348
L259.488 202.301
L260.649 202.301
L260.827 201.253
L263.327 201.253
L263.506 200.729
L264.131 200.729
L264.309 200.205
L264.934 200.205
L265.113 199.681
L265.827 199.681
L266.184 198.11
L266.273 198.11
L266.452 197.586
L267.345 197.586
L267.523 197.062
L267.612 197.062
L267.97 195.49
L268.059 195.49
L268.327 194.443
L268.595 194.443
L268.862 193.395
L269.309 193.395
L269.487 192.871
L269.755 192.871
L269.934 192.347
L271.452 192.347
L271.719 191.299
L272.701 191.299
L272.88 190.775
L273.505 190.775
L273.684 190.252
L274.219 190.252
L274.398 189.728
L274.487 189.728
L274.666 189.204
L274.844 189.204
L275.023 188.156
L275.737 188.156
L275.916 187.632
L276.094 187.632
L276.451 186.061
L276.63 186.061
L276.808 185.537
L276.898 185.537
L277.076 185.013
L277.344 185.013
L277.523 184.489
L281.629 184.489
L281.808 183.965
L283.504 183.965
L283.683 182.917
L283.861 182.393
L283.951 182.393
L284.129 181.87
L284.308 181.87
L284.486 181.346
L284.576 181.346
L284.754 180.822
L285.201 180.822
L285.468 179.774
L285.915 179.774
L286.272 178.202
L286.361 178.202
L286.629 177.155
L287.076 177.155
L287.254 176.631
L287.433 176.631
L287.611 176.107
L287.7 176.107
L287.879 175.583
L288.325 175.583
L288.504 175.059
L288.683 175.059
L288.861 174.535
L288.95 174.535
L289.218 173.488
L289.665 173.488
L289.843 172.964
L290.736 172.964
L291.004 171.916
L292.343 171.916
L292.522 171.392
L292.7 171.392
L293.057 169.82
L294.039 169.82
L294.307 168.773
L295.379 168.773
L295.557 168.249
L296.182 168.249
L296.45 167.201
L296.628 167.201
L296.807 166.677
L297.253 166.677
L297.432 166.153
L297.789 166.153
L297.968 165.629
L298.414 165.629
L298.593 165.106
L298.682 165.106
L298.86 164.582
L299.307 164.582
L299.485 164.058
L301.45 164.058
L301.628 163.534
L301.807 163.534
L302.253 161.438
L302.521 161.438
L302.7 159.867
L302.789 159.867
L302.967 159.343
L303.592 159.343
L303.86 158.295
L304.217 158.295
L304.396 157.771
L305.646 157.771
L305.914 156.724
L306.806 156.724
L306.985 156.2
L307.878 156.2
L308.056 155.676
L308.86 155.676
L309.038 155.152
L309.485 155.152
L309.663 154.628
L309.753 154.628
L309.931 153.58
L310.11 153.58
L310.378 152.533
L311.181 152.533
L311.36 152.009
L312.074 152.009
L312.342 150.961
L314.127 150.961
L314.395 149.913
L316.449 149.913
L316.627 149.389
L316.716 149.389
L316.895 148.865
L319.484 148.865
L319.663 148.342
L319.841 148.342
L320.02 147.818
L320.734 147.818
L320.913 147.294
L321.984 147.294
L322.163 146.77
L322.877 146.77
L323.055 146.246
L323.145 146.246
L323.412 145.198
L323.859 145.198
L324.037 144.151
L325.198 144.151
L325.377 143.627
L325.644 143.627
L325.823 143.103
L326.18 143.103
L326.359 142.579
L326.894 142.579
L327.073 142.055
L327.162 142.055
L327.341 141.531
L327.787 141.531
L328.234 139.436
L328.591 139.436
L328.769 138.912
L329.841 138.912
L330.019 138.388
L330.287 138.388
L330.466 137.864
L330.823 137.864
L331.001 137.34
L331.18 137.34
L331.358 136.816
L331.537 136.816
L331.716 136.292
L331.983 136.292
L332.162 135.769
L332.43 135.769
L332.608 135.245
L332.965 135.245
L333.144 134.721
L335.822 134.721
L336.09 133.673
L336.358 133.673
L336.537 133.149
L337.251 133.149
L337.429 132.625
L337.697 132.625
L337.876 132.102
L339.215 132.102
L339.394 131.578
L341.358 131.578
L341.536 131.054
L342.429 131.054
L342.608 130.53
L343.143 130.53
L343.322 130.006
L343.411 130.006
L343.59 129.482
L344.036 129.482
L344.215 128.958
L344.75 128.958
L344.929 128.434
L346 128.434
L346.179 127.911
L346.268 127.911
L346.447 127.387
L347.161 127.387
L347.34 126.863
L348.679 126.863
L348.857 126.339
L349.214 126.339
L349.393 125.815
L349.75 125.815
L350.018 124.767
L350.732 124.767
L350.911 124.243
L351.714 124.243
L351.893 123.72
L352.964 123.72
L353.232 121.624
L355.643 121.624
L355.91 120.576
L357.16 120.576
L357.428 119.529
L359.124 119.529
L359.303 119.005
L360.196 119.005
L360.374 118.481
L360.999 118.481
L361.356 116.909
L361.981 116.909
L362.16 116.385
L362.517 116.385
L362.696 115.861
L363.053 115.861
L363.231 115.338
L365.642 115.338
L365.82 114.814
L365.91 114.814
L366.088 114.29
L367.16 114.29
L367.606 112.194
L368.767 112.194
L368.945 111.67
L369.66 111.67
L369.838 111.147
L370.999 111.147
L371.356 109.575
L375.998 109.575
L376.177 108.527
L376.445 108.527
L376.623 108.003
L377.963 108.003
L378.23 106.956
L379.212 106.956
L379.391 106.432
L380.82 106.432
L380.998 105.908
L381.087 105.908
L381.266 105.384
L381.534 105.384
L381.802 104.336
L382.694 104.336
L382.873 103.812
L383.676 103.812
L383.855 103.288
L384.659 103.288
L384.837 102.765
L385.462 102.765
L385.641 102.241
L385.908 102.241
L386.176 101.193
L386.801 101.193
L386.98 100.669
L387.069 100.669
L387.248 100.145
L388.23 100.145
L388.408 99.6213
L388.498 99.6213
L388.676 99.0974
L389.301 99.0974
L389.48 98.5735
L390.372 98.5735
L390.551 98.0497
L390.64 98.0497
L390.819 97.5258
L391.444 97.5258
L391.622 97.0019
L392.337 97.0019
L392.515 96.478
L392.694 96.478
L392.872 95.9542
L393.676 95.9542
L393.854 95.4303
L394.926 95.4303
L395.194 94.3825
L395.551 94.3825
L395.729 93.8587
L396.533 93.8587
L396.711 93.3348
L398.676 93.3348
L398.854 92.8109
L399.747 92.8109
L399.925 92.287
L401.086 92.287
L401.265 91.7632
L402.157 91.7632
L402.336 91.2393
L402.782 91.2393
L402.961 90.7154
L403.318 90.7154
L403.497 90.1915
L408.318 90.1915
L408.496 89.6677
L408.586 89.6677
L408.764 89.1438
L411.8 89.1438
L411.978 88.6199
L412.692 88.6199
L412.871 88.096
L413.407 88.096
L413.585 87.5722
L414.121 87.5722
L414.389 86.5244
L414.924 86.5244
L415.103 86.0005
L418.585 86.0005
L418.764 84.9528
L419.031 84.9528
L419.299 82.8573
L420.549 82.8573
L420.728 82.3334
L421.174 82.3334
L421.353 81.8095
L422.513 81.8095
L422.692 81.2857
L423.942 81.2857
L424.12 80.7618
L424.924 80.7618
L425.102 80.2379
L425.549 80.2379
L425.727 79.7141
L426.799 79.7141
L426.977 79.1902
L427.334 79.1902
L427.513 78.6663
L427.87 78.6663
L428.049 78.1424
L430.727 78.1424
L430.995 77.0947
L432.423 77.0947
L432.602 76.5708
L432.959 76.5708
L433.138 76.0469
L433.584 76.0469
L433.763 75.5231
L434.745 75.5231
L434.923 74.9992
L435.995 74.9992
L436.173 73.9514
L436.262 73.9514
L436.441 73.4276
L437.066 73.4276
L437.334 72.3798
L437.869 72.3798
L438.048 71.8559
L438.762 71.8559
L439.03 70.8082
L440.369 70.8082
L440.548 70.2843
L440.637 70.2843
L440.905 69.2366
L441.084 69.2366
L441.262 68.7127
L441.708 68.7127
L441.887 68.1888
L442.066 68.1888
L442.244 67.6649
L444.387 67.6649
L444.565 67.1411
L445.369 67.1411
L445.548 66.6172
L446.797 66.6172
L446.976 66.0933
L448.494 66.0933
L448.672 65.5694
L455.636 65.5694
L455.815 65.0456
L459.832 65.0456
L460.1 63.9978
L465.903 63.9978
L466.082 63.4739
L468.939 63.4739
L469.117 62.9501
L469.475 62.9501
L469.653 62.4262
L472.332 62.4262
L472.599 61.3784
L472.867 61.3784
L473.046 60.8546
L476.796 60.8546
L476.974 60.3307
L477.331 60.3307
L477.51 59.8068
L481.795 59.8068
L482.063 58.7591
L482.509 58.7591
L482.777 57.7113
L486.706 57.7113
L486.884 57.1874
L488.313 57.1874
L488.58 56.1397
L489.92 56.1397
L490.098 55.6158
L490.634 55.6158
L490.812 55.092
L492.687 55.092
L493.044 53.5203
L495.812 53.5203
L495.991 52.9965
L496.973 52.9965
L497.241 51.9487
L497.955 51.9487
L498.133 51.4248
L500.008 51.4248
L500.276 50.3771
L500.365 50.3771
L500.544 49.3293
L500.633 49.3293
L500.812 48.8055
L505.276 48.8055
L505.454 48.2816
L506.883 48.2816
L507.061 47.7577
L510.811 47.7577
L510.99 47.2338
L511.704 47.2338
L511.883 46.71
L512.15 46.71
L512.418 45.6622
L516.436 45.6622
L516.614 45.1383
L516.972 45.1383
L517.15 44.6145
L517.239 44.6145
L517.418 44.0906
L517.596 44.0906
L517.775 43.5667
L518.311 43.5667
L518.311 43.5667" style="fill:none;stroke:#ff0000;stroke-dasharray:3.000000,6.000000;stroke-dashoffset:0.0;"/>
   </g>
   <g id="line2d_4">
    <path clip-path="url(#p7ff5b81e1d)" d="
M72 388.8
L76.2854 388.8
L76.464 388.587
L76.9997 388.587
L77.1782 388.162
L79.321 388.162
L79.4995 387.949
L79.6781 387.949
L79.9459 387.098
L81.8208 387.098
L81.9994 386.885
L82.9814 386.885
L83.2493 386.46
L83.4278 386.46
L83.6064 386.247
L83.8742 386.247
L84.1421 385.822
L84.2314 385.822
L84.4992 385.396
L86.5526 385.396
L86.999 384.545
L87.4454 384.545
L87.8026 383.907
L90.1238 383.907
L90.5702 383.056
L90.8381 383.056
L91.0166 382.843
L91.1059 382.843
L91.3738 382.418
L94.945 382.418
L95.1235 381.78
L97.2662 381.78
L97.7126 380.929
L98.0698 380.929
L98.2483 380.716
L98.5162 380.716
L98.6947 380.503
L101.195 380.503
L101.462 380.078
L101.641 380.078
L102.087 379.227
L104.052 379.227
L104.23 378.801
L104.319 378.801
L104.498 378.588
L104.587 378.588
L105.391 376.886
L105.48 376.886
L105.748 376.461
L107.623 376.461
L107.801 376.248
L108.516 376.248
L108.694 375.823
L108.783 375.823
L108.962 375.61
L109.14 375.61
L109.319 375.397
L111.194 375.397
L111.372 375.184
L111.64 375.184
L111.997 374.546
L112.176 374.546
L112.355 374.334
L112.533 374.334
L112.801 373.908
L112.89 373.908
L113.069 373.483
L114.854 373.483
L115.033 373.27
L115.479 373.27
L115.747 372.844
L116.015 372.844
L116.283 372.419
L118.426 372.419
L118.604 372.206
L118.693 372.206
L118.872 371.993
L119.229 371.993
L119.497 371.568
L119.765 371.568
L119.943 370.717
L121.015 370.717
L121.193 370.504
L121.908 370.504
L122.354 369.653
L122.532 369.653
L122.89 369.015
L122.979 369.015
L123.157 368.802
L123.515 368.802
L123.693 368.589
L125.479 368.589
L125.747 368.164
L126.104 368.164
L126.282 367.313
L126.729 367.313
L126.907 367.1
L126.996 367.1
L127.264 366.675
L129.139 366.675
L129.318 366.462
L130.3 366.462
L130.478 366.037
L130.925 365.186
L133.068 365.186
L133.335 363.696
L133.96 363.696
L134.139 363.484
L136.371 363.484
L136.549 363.271
L136.817 363.271
L137.085 362.42
L137.264 362.207
L137.442 362.207
L137.71 361.782
L138.514 361.782
L138.692 361.569
L139.764 361.569
L140.478 360.08
L140.835 360.08
L141.103 359.654
L141.192 359.654
L141.371 359.016
L141.817 359.016
L141.996 358.803
L143.424 358.803
L143.603 358.591
L143.87 358.591
L144.049 358.165
L144.138 358.165
L144.317 357.74
L144.585 357.314
L144.763 357.314
L144.942 357.101
L146.638 357.101
L146.817 356.889
L146.906 356.889
L147.174 356.463
L147.263 356.463
L147.531 356.038
L147.709 356.038
L147.888 355.825
L147.977 355.825
L148.334 355.187
L148.424 355.187
L148.602 354.974
L149.584 354.974
L149.763 354.761
L150.477 354.761
L150.745 353.272
L150.924 353.272
L151.37 352.421
L151.459 352.421
L151.638 351.996
L151.727 351.996
L152.173 351.145
L154.138 351.145
L154.405 350.719
L154.495 350.719
L154.763 350.294
L155.03 350.294
L155.209 350.081
L155.566 350.081
L155.745 349.868
L157.798 349.868
L158.155 349.23
L158.244 349.23
L158.512 348.804
L158.691 348.804
L158.869 348.592
L159.048 348.592
L159.227 347.528
L159.316 347.528
L159.584 347.102
L160.476 347.102
L160.655 346.89
L161.191 346.89
L162.084 344.975
L162.173 344.975
L162.441 344.55
L162.53 344.55
L162.976 343.699
L163.066 343.699
L163.244 343.486
L164.851 343.486
L165.119 343.06
L165.208 343.06
L165.387 342.422
L165.476 342.422
L165.744 341.358
L165.833 341.358
L166.012 341.146
L166.101 341.146
L166.28 340.72
L166.548 340.295
L167.708 340.295
L167.887 340.082
L168.422 340.082
L168.869 339.231
L168.958 339.231
L169.137 338.806
L169.315 338.167
L169.494 338.167
L169.672 337.955
L169.851 337.955
L170.029 337.529
L171.279 337.529
L171.458 337.316
L171.904 337.316
L172.083 337.104
L172.172 337.104
L172.44 336.678
L172.529 336.678
L172.708 336.465
L172.797 336.465
L173.511 334.976
L174.851 334.976
L175.029 334.763
L175.743 334.763
L176.1 334.125
L176.19 334.125
L176.815 332.849
L177.083 332.849
L177.35 332.423
L179.136 332.423
L179.315 332.211
L179.404 332.211
L179.582 331.572
L180.029 331.572
L180.297 330.721
L180.386 330.721
L180.654 329.87
L182.618 329.87
L183.064 329.019
L183.154 329.019
L183.421 328.594
L183.689 328.594
L183.868 328.381
L184.314 328.381
L184.493 328.168
L186.278 328.168
L186.636 326.679
L186.725 326.679
L186.903 326.466
L186.993 326.466
L187.171 326.041
L187.35 325.828
L187.439 325.828
L187.618 325.616
L187.885 325.616
L188.064 325.19
L188.957 325.19
L189.225 324.765
L189.85 324.765
L190.028 324.339
L190.207 324.126
L190.475 324.126
L190.742 323.701
L190.832 323.701
L191.01 323.275
L191.1 323.275
L191.635 322.212
L192.082 322.212
L192.349 321.786
L192.707 321.786
L192.885 321.573
L193.153 321.573
L194.314 319.02
L194.492 319.02
L194.671 318.808
L194.76 318.808
L194.939 318.595
L195.028 318.595
L195.206 318.382
L196.188 318.382
L196.456 317.957
L197.171 317.957
L197.528 316.68
L197.974 316.68
L198.153 316.468
L198.331 316.468
L198.688 315.829
L200.295 315.829
L200.652 315.191
L200.92 315.191
L201.188 314.766
L201.277 314.766
L201.724 313.915
L201.813 313.915
L201.992 313.489
L202.17 312.851
L202.349 312.638
L202.795 312.638
L203.063 312.213
L203.152 312.213
L203.331 312
L203.867 312
L204.045 311.787
L204.313 311.787
L204.849 310.724
L205.027 310.724
L205.116 310.511
L205.295 309.873
L205.474 309.873
L205.652 309.66
L207.348 309.66
L207.527 309.447
L207.973 309.447
L208.152 308.809
L208.241 308.809
L208.42 308.383
L208.598 307.745
L208.866 307.32
L209.313 307.32
L209.491 306.043
L210.652 306.043
L210.83 305.83
L211.009 305.83
L211.277 305.405
L211.366 305.405
L211.812 303.703
L211.902 303.703
L213.062 301.15
L214.759 301.15
L215.027 300.725
L215.205 300.725
L215.384 300.299
L215.473 300.299
L215.652 299.874
L216.187 298.81
L216.366 298.81
L216.544 298.384
L216.723 298.384
L216.901 298.172
L218.419 298.172
L218.598 297.746
L218.776 297.534
L219.133 297.534
L219.401 297.108
L220.026 297.108
L220.205 296.683
L220.383 296.47
L221.901 296.47
L222.258 294.555
L222.348 294.555
L222.615 294.13
L222.705 294.13
L222.883 293.704
L223.776 291.789
L224.222 291.789
L224.401 291.577
L225.472 291.577
L225.829 290.939
L225.919 290.939
L226.097 290.726
L226.187 290.726
L226.365 290.088
L226.722 289.449
L226.812 289.449
L227.258 288.598
L229.044 288.598
L229.668 287.322
L229.758 287.322
L229.936 286.684
L230.204 285.833
L230.561 284.556
L230.74 283.918
L230.918 283.28
L231.9 283.28
L232.079 283.067
L232.704 283.067
L233.597 280.727
L233.865 279.876
L234.311 279.876
L234.49 279.663
L234.757 279.663
L234.936 279.45
L235.204 279.45
L235.382 279.238
L235.829 279.238
L236.007 279.025
L236.186 279.025
L236.632 277.961
L236.9 276.685
L236.989 276.685
L237.168 276.259
L237.436 274.983
L238.15 273.494
L240.293 273.494
L240.471 273.068
L240.918 272.217
L241.096 272.217
L241.364 271.366
L241.453 271.366
L241.721 270.941
L243.418 270.941
L243.507 270.728
L243.685 270.09
L243.775 269.877
L243.953 269.239
L244.043 269.239
L244.221 269.026
L244.31 269.026
L244.489 268.388
L244.668 267.962
L244.757 267.962
L244.935 267.75
L246.81 267.75
L247.346 266.686
L247.435 266.686
L247.614 266.473
L247.703 266.473
L248.149 265.622
L248.328 265.622
L248.507 265.409
L248.596 265.409
L248.774 265.197
L248.953 265.197
L249.132 264.984
L249.578 264.984
L249.846 264.558
L250.292 264.558
L251.185 262.644
L251.274 262.644
L251.542 261.793
L251.81 260.729
L251.899 260.729
L252.256 259.24
L253.238 259.24
L253.417 259.027
L254.042 259.027
L254.22 258.814
L254.31 258.814
L254.488 258.602
L254.667 258.602
L255.203 256.474
L255.381 256.474
L255.738 255.198
L256.72 255.198
L256.899 254.985
L257.524 254.985
L257.97 254.134
L258.238 254.134
L258.506 253.496
L258.774 252.219
L259.131 252.219
L259.488 251.581
L261.274 251.581
L261.452 251.368
L261.541 251.368
L261.809 250.943
L262.077 250.943
L262.256 250.73
L262.345 250.73
L262.524 250.305
L262.791 250.305
L262.97 250.092
L263.327 250.092
L263.595 249.666
L264.756 249.666
L265.559 247.965
L265.648 247.965
L265.827 247.752
L265.916 247.752
L266.095 247.539
L266.273 247.539
L266.452 246.901
L266.63 246.475
L268.327 246.475
L268.595 246.05
L268.684 246.05
L268.952 245.199
L269.487 245.199
L269.844 243.922
L270.023 243.71
L271.273 243.71
L271.452 243.497
L271.987 243.497
L272.255 243.071
L272.434 243.071
L272.612 242.859
L272.701 242.859
L273.148 241.795
L273.326 240.944
L273.594 240.944
L273.773 240.093
L275.112 240.093
L275.291 239.88
L275.469 239.88
L275.648 239.455
L275.737 239.455
L275.916 239.029
L276.094 238.817
L276.273 238.817
L276.63 238.178
L276.719 238.178
L277.344 235.625
L278.148 235.625
L278.326 235.413
L279.219 235.413
L279.487 234.987
L279.576 234.987
L279.844 234.136
L280.022 233.711
L280.201 233.498
L280.29 233.498
L280.647 232.86
L280.737 232.86
L281.183 232.009
L282.612 232.009
L282.79 231.796
L282.969 231.796
L283.058 231.583
L283.236 230.945
L283.415 230.945
L283.594 230.732
L283.772 230.732
L284.486 229.243
L285.29 229.243
L285.468 229.03
L285.647 229.03
L285.826 228.818
L286.093 228.818
L286.272 228.605
L286.361 228.605
L286.54 227.967
L286.986 227.967
L287.165 227.754
L287.522 227.754
L287.879 227.116
L289.754 227.116
L291.004 224.35
L291.182 223.074
L291.272 223.074
L291.45 222.435
L291.629 222.223
L293.325 222.223
L293.593 221.797
L293.772 221.797
L294.486 220.308
L294.575 220.308
L294.754 220.095
L294.932 220.095
L295.2 219.67
L296.896 219.67
L297.075 219.457
L297.253 219.457
L297.432 219.244
L297.521 219.244
L298.593 216.904
L299.932 216.904
L300.11 216.691
L300.557 216.691
L300.735 216.479
L301.092 216.479
L301.271 216.266
L301.36 216.266
L301.539 216.053
L301.717 216.053
L302.342 214.777
L302.521 214.777
L302.7 214.564
L303.414 214.564
L303.592 214.351
L303.771 214.351
L303.949 214.139
L304.039 214.139
L304.217 213.713
L304.396 213.713
L305.467 211.373
L305.735 211.373
L305.914 210.522
L306.628 210.522
L306.806 210.309
L306.985 210.309
L307.164 210.096
L307.699 210.096
L307.878 209.458
L307.967 209.458
L308.592 208.182
L308.771 208.182
L308.949 207.969
L309.038 207.969
L309.485 207.118
L309.753 207.118
L309.931 206.905
L310.02 206.905
L310.199 206.693
L311.36 206.693
L311.628 205.842
L311.717 205.842
L311.895 205.629
L311.985 205.629
L312.252 204.778
L312.699 203.501
L312.877 203.076
L314.752 203.076
L315.109 202.438
L315.377 202.438
L315.556 202.225
L315.824 202.225
L315.913 202.012
L316.181 200.736
L316.627 199.885
L317.699 199.885
L317.877 199.672
L318.324 199.672
L318.502 199.034
L318.77 197.97
L318.948 197.97
L319.573 196.694
L319.841 196.694
L320.02 196.268
L320.198 196.055
L320.377 196.055
L320.556 195.843
L321.716 195.843
L321.895 195.63
L321.984 195.63
L322.341 194.992
L322.609 194.992
L322.788 194.779
L322.966 194.779
L323.68 193.29
L324.752 193.29
L324.93 193.077
L325.734 193.077
L325.912 192.864
L326.269 192.864
L326.716 192.013
L326.894 192.013
L327.073 191.588
L327.252 191.375
L327.787 191.375
L327.966 191.162
L328.323 191.162
L328.501 190.95
L328.769 190.95
L328.948 190.737
L329.305 190.737
L329.484 190.311
L330.019 189.248
L330.108 189.248
L330.644 188.184
L331.716 188.184
L331.894 187.971
L332.519 187.971
L332.698 187.758
L332.965 187.758
L333.233 187.333
L333.59 187.333
L333.858 186.907
L334.037 186.907
L334.394 186.269
L336.18 186.269
L336.358 185.844
L336.537 185.844
L336.715 185.631
L336.894 185.631
L337.162 185.206
L337.429 185.206
L337.608 184.993
L337.787 184.993
L337.965 184.142
L340.465 184.142
L340.644 183.504
L341.09 183.504
L341.268 183.291
L341.715 183.291
L341.893 183.078
L342.161 183.078
L342.34 182.865
L343.411 182.865
L343.947 181.802
L344.036 181.802
L344.215 181.163
L344.304 181.163
L344.661 180.525
L344.929 180.525
L345.108 179.887
L345.465 179.887
L345.643 179.674
L346.982 179.674
L347.25 179.249
L347.429 179.249
L347.518 179.036
L347.697 178.185
L347.964 178.185
L348.143 177.76
L348.232 177.76
L348.411 177.547
L348.5 177.547
L348.768 177.121
L350.554 177.121
L350.732 176.909
L350.821 176.909
L351 176.27
L351.357 176.27
L351.536 176.058
L351.804 176.058
L352.161 175.419
L353.411 175.419
L353.589 175.207
L354.303 175.207
L354.75 174.356
L354.839 174.356
L355.285 173.505
L355.464 173.505
L355.643 173.292
L356 173.292
L356.178 173.079
L357.607 173.079
L357.875 172.654
L358.053 171.803
L358.232 171.803
L358.41 171.59
L358.678 171.59
L359.124 170.739
L359.66 170.739
L359.928 170.314
L361.178 170.314
L361.356 170.101
L361.535 170.101
L361.803 169.25
L362.071 168.399
L362.249 168.399
L362.428 167.548
L362.696 167.122
L362.785 167.122
L362.964 166.697
L364.035 166.697
L364.213 166.484
L364.303 166.484
L364.481 166.271
L364.838 166.271
L365.374 165.208
L365.642 165.208
L365.82 164.57
L366.088 164.57
L366.267 164.144
L366.356 164.144
L366.624 163.719
L368.32 163.719
L368.677 163.08
L369.838 163.08
L370.284 162.229
L370.374 162.229
L370.552 162.017
L370.999 162.017
L371.177 161.804
L371.534 161.804
L371.713 161.591
L372.07 161.591
L372.249 161.378
L372.338 161.378
L372.695 160.74
L372.784 160.74
L373.052 160.315
L373.141 160.315
L373.32 159.889
L373.409 159.889
L373.766 159.251
L374.748 159.251
L374.927 159.038
L375.463 159.038
L375.641 158.825
L375.909 158.825
L376.266 158.187
L376.445 158.187
L377.248 156.485
L378.141 156.485
L378.32 156.273
L379.034 156.273
L379.48 155.422
L379.659 155.422
L380.016 154.783
L380.105 154.783
L380.462 154.145
L380.641 154.145
L380.82 153.932
L382.516 153.932
L382.694 153.294
L382.962 153.294
L383.141 153.081
L383.23 153.081
L383.409 152.656
L383.676 152.656
L383.944 152.23
L384.034 152.23
L384.391 151.592
L386.176 151.592
L386.444 151.167
L386.801 151.167
L387.605 149.465
L387.694 149.465
L387.962 149.039
L389.837 149.039
L390.73 147.125
L390.819 147.125
L391.622 145.423
L392.872 145.423
L393.051 145.21
L393.14 145.21
L393.408 144.784
L393.497 144.784
L393.676 144.572
L393.765 144.572
L394.033 144.146
L394.39 144.146
L394.569 143.934
L394.658 143.934
L394.926 143.508
L396.89 143.508
L397.247 142.87
L397.515 142.87
L397.693 142.232
L397.783 142.232
L398.051 141.806
L398.14 141.806
L398.408 141.381
L399.568 141.381
L399.747 141.168
L400.461 141.168
L400.818 140.53
L401.265 140.53
L401.443 139.679
L401.532 139.679
L401.89 139.04
L404.389 139.04
L404.568 138.828
L404.657 138.828
L405.104 137.977
L405.282 137.977
L405.818 136.913
L407.871 136.913
L409.3 133.722
L411.353 133.722
L411.532 133.509
L411.621 133.509
L411.8 133.296
L411.889 133.296
L412.335 132.445
L412.425 132.445
L412.603 132.233
L413.853 132.233
L414.032 132.02
L414.924 132.02
L415.192 131.594
L415.46 131.594
L415.907 130.743
L415.996 130.743
L416.174 130.531
L416.353 130.531
L416.621 130.105
L417.603 130.105
L417.781 129.893
L418.496 129.893
L418.674 129.254
L418.942 129.254
L419.21 128.829
L419.478 128.829
L419.835 128.191
L420.638 128.191
L420.817 127.978
L421.888 127.978
L422.245 127.34
L422.513 127.34
L422.781 126.914
L422.87 126.914
L422.96 126.701
L423.138 126.063
L425.638 126.063
L425.995 125.425
L426.531 125.425
L426.977 124.574
L427.156 124.574
L427.334 124.361
L428.584 124.361
L428.763 124.148
L429.299 124.148
L429.656 123.51
L429.745 123.51
L430.102 122.872
L430.191 122.872
L430.37 122.659
L432.066 122.659
L432.245 122.447
L432.78 122.447
L432.959 122.234
L433.138 122.234
L433.316 122.021
L433.495 122.021
L433.852 121.383
L433.941 121.383
L434.12 121.17
L434.298 121.17
L434.477 120.745
L435.995 120.745
L436.173 120.532
L436.262 120.532
L436.441 120.319
L439.744 120.319
L440.012 119.894
L440.101 119.894
L440.369 119.043
L440.459 119.043
L440.637 118.83
L440.726 118.83
L440.994 118.404
L441.084 118.404
L441.441 117.766
L441.798 117.766
L441.976 117.553
L443.583 117.553
L443.762 117.341
L444.744 117.341
L444.923 117.128
L446.976 117.128
L447.155 116.277
L447.244 116.277
L447.422 115.639
L447.512 115.639
L447.69 115.213
L447.78 115.213
L447.958 115.001
L448.226 115.001
L448.494 114.575
L449.297 114.575
L449.476 114.362
L450.101 114.362
L450.279 114.15
L450.369 114.15
L450.547 113.937
L450.726 113.937
L450.994 113.511
L451.083 113.511
L451.261 113.086
L451.529 112.66
L451.797 112.66
L451.976 112.235
L454.297 112.235
L454.476 112.022
L454.565 112.022
L454.654 111.809
L454.833 111.171
L455.011 111.171
L455.279 110.746
L457.6 110.746
L457.779 110.533
L457.868 110.533
L458.047 110.32
L458.136 110.32
L458.315 109.682
L458.404 109.682
L458.582 109.469
L458.761 109.469
L458.94 109.257
L459.207 109.257
L459.386 109.044
L460.368 109.044
L460.547 108.831
L460.993 108.831
L461.172 108.618
L461.261 108.618
L461.618 107.98
L461.886 107.98
L462.154 107.342
L462.332 106.704
L462.511 106.704
L462.689 106.065
L464.564 106.065
L464.832 105.64
L465.457 105.64
L465.725 105.214
L465.993 105.214
L466.171 105.002
L466.26 105.002
L466.439 104.789
L467.778 104.789
L467.957 104.576
L468.582 104.576
L468.76 104.363
L468.85 104.363
L469.028 104.151
L469.117 104.151
L469.564 103.3
L469.653 103.3
L469.832 102.874
L471.171 102.874
L471.349 102.661
L471.974 102.661
L472.153 102.449
L472.51 102.449
L472.689 102.236
L472.867 102.236
L473.135 101.811
L473.224 101.811
L473.581 101.172
L475.099 101.172
L475.278 100.96
L476.438 100.96
L476.617 100.534
L478.135 100.534
L478.403 100.109
L479.474 100.109
L479.652 99.8958
L480.01 99.8958
L480.188 99.6831
L481.17 99.6831
L481.349 99.4704
L482.331 99.4704
L482.509 99.0449
L482.956 99.0449
L483.134 98.4066
L483.313 98.4066
L483.492 98.1939
L483.759 98.1939
L483.938 97.9812
L484.295 97.9812
L484.474 97.5557
L486.17 97.5557
L486.616 96.7047
L486.973 96.7047
L487.241 96.2792
L487.42 96.2792
L487.598 95.8537
L488.045 95.8537
L488.223 95.641
L489.92 95.641
L490.098 95.2155
L490.277 95.2155
L490.545 94.79
L490.634 94.79
L490.902 94.3645
L493.848 94.3645
L494.027 93.9391
L494.205 93.7263
L494.919 93.7263
L495.098 93.3008
L495.901 93.3008
L496.08 93.0881
L497.151 93.0881
L497.33 92.8753
L497.776 92.8753
L497.955 92.6626
L498.133 92.6626
L498.401 92.2371
L500.544 92.2371
L500.723 92.0244
L500.901 92.0244
L501.08 91.3861
L501.258 90.7479
L501.348 90.7479
L501.883 89.6842
L502.865 89.6842
L503.044 89.4715
L504.026 89.4715
L504.204 89.2587
L504.383 89.2587
L504.562 89.046
L504.74 89.046
L504.919 88.4078
L505.008 88.4078
L505.276 87.9823
L505.365 87.9823
L505.544 87.7695
L506.794 87.7695
L506.972 87.5568
L508.579 87.5568
L508.758 87.344
L508.847 87.344
L509.026 87.1313
L509.115 87.1313
L509.293 86.9186
L509.651 86.9186
L509.829 86.7058
L511.347 86.7058
L511.883 85.6421
L512.329 85.6421
L512.775 84.7911
L513.668 84.7911
L513.847 84.5784
L514.472 84.5784
L514.65 84.3657
L514.829 84.3657
L515.007 83.9402
L515.097 83.9402
L515.543 83.0892
L516.436 83.0892
L516.614 82.8765
L518.311 82.8765
L518.311 82.8765" style="fill:none;stroke:#00bfbf;stroke-dasharray:5.000000,1.000000,2.000000,1.000000,5.000000,1.000000;stroke-dashoffset:0.0;"/>
   </g>
   <g id="line2d_5">
    <path clip-path="url(#p7ff5b81e1d)" d="
M72 388.8
L74.857 388.8
L75.0355 388.615
L75.5712 388.615
L75.7498 388.431
L75.9283 388.431
L76.1962 388.061
L76.464 388.061
L76.9997 387.138
L77.2675 387.138
L77.4461 386.953
L77.9818 386.953
L78.1603 386.768
L78.6067 386.768
L78.7853 386.584
L79.4102 386.584
L79.5888 386.399
L79.6781 386.399
L79.9459 386.029
L81.4637 386.029
L81.6422 385.845
L82.4458 385.845
L82.6243 385.66
L83.0707 385.66
L83.4278 385.106
L83.9635 385.106
L84.4099 384.367
L84.5885 384.367
L84.767 384.182
L86.2848 384.182
L86.4634 383.998
L86.999 383.998
L87.1776 383.444
L87.5347 383.444
L87.7133 383.259
L88.6061 383.259
L88.7846 383.074
L89.856 383.074
L90.1238 382.705
L90.3917 382.705
L90.5702 382.52
L90.6595 382.52
L91.1952 381.597
L92.8022 381.597
L92.9808 381.412
L93.3379 381.412
L93.6058 381.042
L93.695 381.042
L93.8736 380.858
L96.3734 380.858
L96.552 380.673
L96.9091 380.673
L97.3555 379.934
L98.0698 379.934
L98.2483 379.749
L100.034 379.749
L100.302 379.38
L100.57 379.38
L100.748 379.195
L101.195 379.195
L101.373 379.011
L104.587 379.011
L104.766 378.826
L107.891 378.826
L108.069 378.641
L108.248 378.641
L108.426 378.457
L108.783 378.457
L108.962 378.087
L109.408 378.087
L109.587 377.902
L110.033 377.902
L110.212 377.718
L111.372 377.718
L111.551 377.348
L112.355 377.348
L112.533 377.164
L112.712 377.164
L112.89 376.979
L113.694 376.979
L113.872 376.794
L114.854 376.794
L115.033 376.61
L115.301 376.61
L115.479 376.425
L116.461 376.425
L116.64 376.24
L118.158 376.24
L118.426 375.871
L120.033 375.871
L120.211 375.501
L121.283 375.501
L121.461 375.317
L126.104 375.317
L126.282 375.132
L126.55 375.132
L126.729 374.947
L127.711 374.947
L127.889 374.762
L135.478 374.762
L135.657 374.578
L135.924 374.578
L136.103 374.393
L136.996 374.393
L137.174 374.208
L137.799 374.208
L137.978 374.024
L139.853 374.024
L140.031 373.839
L140.567 373.839
L140.746 373.654
L143.96 373.654
L144.138 373.47
L144.317 373.47
L144.495 373.285
L149.316 373.285
L149.495 373.1
L151.816 373.1
L151.995 372.915
L154.048 372.915
L154.227 372.546
L158.066 372.546
L158.423 371.992
L158.78 371.992
L158.959 371.807
L159.405 371.807
L159.584 371.623
L160.387 371.623
L160.566 371.438
L162.887 371.438
L163.066 371.253
L163.244 371.253
L163.423 371.068
L169.494 371.068
L169.762 370.699
L170.565 370.699
L170.744 370.514
L173.511 370.514
L173.779 370.145
L173.868 370.145
L174.047 369.775
L174.315 369.775
L174.493 369.591
L176.904 369.591
L177.083 369.406
L177.797 369.406
L178.065 369.037
L183.6 369.037
L183.779 368.852
L183.868 368.852
L184.046 368.667
L184.85 368.667
L185.028 368.483
L190.475 368.483
L190.653 368.298
L192.528 368.298
L192.707 368.113
L193.242 368.113
L193.421 367.928
L194.671 367.928
L194.849 367.744
L199.313 367.744
L199.492 367.559
L204.134 367.559
L204.313 367.374
L206.277 367.374
L206.456 367.19
L209.848 367.19
L210.027 367.005
L212.17 367.005
L212.348 366.82
L216.812 366.82
L216.991 366.635
L217.705 366.635
L217.884 366.451
L221.098 366.451
L221.276 366.266
L226.633 366.266
L226.812 366.081
L227.258 366.081
L227.436 365.897
L227.972 365.897
L228.151 365.712
L229.401 365.712
L229.579 365.527
L230.651 365.527
L231.097 364.788
L240.382 364.788
L240.561 364.604
L241.811 364.604
L241.989 364.419
L246.542 364.419
L246.721 364.234
L249.221 364.234
L249.489 363.865
L252.256 363.865
L252.435 363.68
L252.792 363.68
L252.971 363.496
L253.238 363.496
L253.417 363.311
L256.095 363.311
L256.274 363.126
L257.077 363.126
L257.256 362.941
L259.131 362.941
L259.309 362.757
L261.452 362.757
L261.631 362.572
L262.791 362.572
L262.97 362.387
L264.398 362.387
L264.577 362.203
L266.005 362.203
L266.184 362.018
L269.22 362.018
L269.398 361.833
L270.38 361.833
L270.559 361.648
L271.452 361.648
L271.63 361.464
L271.809 361.464
L272.076 361.094
L274.308 361.094
L274.487 360.91
L274.576 360.91
L274.755 360.725
L277.701 360.725
L277.88 360.54
L277.969 360.54
L278.148 360.356
L280.469 360.356
L280.737 359.986
L280.915 359.986
L281.094 359.801
L284.844 359.801
L285.022 359.617
L285.915 359.617
L286.093 359.432
L291.718 359.432
L291.897 359.247
L294.396 359.247
L294.575 359.063
L300.914 359.063
L301.092 358.878
L303.146 358.878
L303.324 358.693
L303.503 358.693
L303.682 358.509
L304.485 358.509
L304.664 358.324
L305.824 358.324
L306.092 357.954
L314.484 357.954
L314.663 357.77
L314.752 357.77
L314.931 357.585
L315.645 357.585
L315.824 357.4
L318.859 357.4
L319.038 357.216
L321.895 357.216
L322.073 357.031
L325.644 357.031
L325.823 356.846
L325.912 356.846
L326.091 356.661
L326.716 356.661
L326.894 356.477
L328.769 356.477
L328.948 356.292
L334.394 356.292
L334.572 356.107
L336.626 356.107
L336.804 355.923
L337.876 355.923
L338.054 355.738
L342.518 355.738
L342.697 355.553
L343.858 355.553
L344.036 355.369
L345.108 355.369
L345.286 355.184
L346.804 355.184
L346.982 354.999
L347.161 354.999
L347.34 354.814
L350.375 354.814
L350.554 354.63
L358.5 354.63
L358.857 354.076
L363.499 354.076
L363.678 353.891
L364.928 353.891
L365.106 353.706
L378.855 353.706
L379.034 353.522
L379.57 353.522
L379.748 353.337
L387.158 353.337
L387.337 353.152
L387.694 353.152
L387.873 352.967
L393.408 352.967
L393.676 352.598
L401.89 352.598
L402.068 352.413
L405.729 352.413
L405.996 352.044
L406.354 352.044
L406.532 351.859
L407.514 351.859
L407.693 351.674
L408.318 351.674
L408.496 351.49
L409.836 351.49
L410.014 351.305
L411.621 351.305
L411.8 351.12
L413.317 351.12
L413.496 350.936
L413.585 350.936
L413.764 350.751
L415.371 350.751
L415.549 350.566
L418.406 350.566
L418.585 350.382
L426.174 350.382
L426.531 349.827
L426.799 349.827
L426.977 349.643
L427.156 349.643
L427.334 349.458
L430.906 349.458
L431.084 349.273
L431.173 349.273
L431.352 349.089
L434.566 349.089
L434.745 348.904
L438.584 348.904
L438.762 348.719
L439.209 348.719
L439.387 348.534
L440.28 348.534
L440.459 348.35
L445.726 348.35
L445.905 348.165
L448.137 348.165
L448.315 347.98
L453.047 347.98
L453.226 347.796
L462.154 347.796
L462.332 347.611
L463.582 347.611
L463.761 347.426
L466.618 347.426
L466.796 347.242
L467.332 347.242
L467.51 347.057
L476.617 347.057
L476.796 346.872
L479.474 346.872
L479.652 346.687
L480.456 346.687
L480.635 346.503
L481.706 346.503
L481.884 346.318
L482.152 346.318
L482.331 346.133
L484.741 346.133
L484.92 345.949
L486.348 345.949
L486.527 345.764
L487.598 345.764
L487.777 345.579
L488.67 345.579
L488.848 345.395
L492.241 345.395
L492.509 345.025
L495.901 345.025
L496.08 344.84
L496.616 344.84
L496.794 344.656
L502.24 344.656
L502.419 344.471
L502.597 344.471
L502.776 344.286
L510.008 344.286
L510.186 344.102
L514.293 344.102
L514.561 343.732
L517.061 343.732
L517.239 343.547
L518.311 343.547
L518.311 343.547" style="fill:none;stroke:#bf00bf;stroke-linecap:square;"/>
   </g>
   <g id="matplotlib.axis_1">
    <g id="xtick_1">
     <g id="line2d_6">
      <defs>
       <path d="
M0 0
L0 -4" id="mc7db9fdffb" style="stroke:#000000;stroke-width:0.5;"/>
      </defs>
      <g>
       <use style="stroke:#000000;stroke-width:0.5;" x="72.0" xlink:href="#mc7db9fdffb" y="388.8"/>
      </g>
     </g>
     <g id="line2d_7">
      <defs>
       <path d="
M0 0
L0 4" id="m5a7d422ac3" style="stroke:#000000;stroke-width:0.5;"/>
      </defs>
      <g>
       <use style="stroke:#000000;stroke-width:0.5;" x="72.0" xlink:href="#m5a7d422ac3" y="43.2"/>
      </g>
     </g>
     <g id="text_1">
      <!-- 0 -->
      <defs>
       <path d="
M56.9844 36.375
Q56.9844 16.7969 50.8594 7.64062
Q44.7344 -1.51562 31.8438 -1.51562
Q18.75 -1.51562 12.7188 7.76562
Q6.6875 17.0469 6.6875 36.2812
Q6.6875 55.6719 12.7812 64.9219
Q18.8906 74.1719 31.8438 74.1719
Q44.9219 74.1719 50.9531 64.7656
Q56.9844 55.375 56.9844 36.375
M44.1406 14.2031
Q45.8438 18.1719 46.4531 23.5156
Q47.0781 28.8594 47.0781 36.375
Q47.0781 43.7969 46.4531 49.2656
Q45.8438 54.7344 44.0938 58.5469
Q42.3906 62.3125 39.4219 64.2031
Q36.4688 66.1094 31.8438 66.1094
Q27.25 66.1094 24.2344 64.2031
Q21.2344 62.3125 19.4844 58.4531
Q17.8281 54.8281 17.2188 49.0156
Q16.6094 43.2188 16.6094 36.2812
Q16.6094 28.6562 17.1406 23.5312
Q17.6719 18.4062 19.4375 14.3594
Q21.0469 10.5469 24 8.54688
Q26.9531 6.54688 31.8438 6.54688
Q36.4219 6.54688 39.4531 8.45312
Q42.4844 10.3594 44.1406 14.2031" id="Verdana-30"/>
      </defs>
      <g transform="translate(68.9821875 401.918125)scale(0.12 -0.12)">
       <use xlink:href="#Verdana-30"/>
      </g>
     </g>
    </g>
    <g id="xtick_2">
     <g id="line2d_8">
      <g>
       <use style="stroke:#000000;stroke-width:0.5;" x="161.28" xlink:href="#mc7db9fdffb" y="388.8"/>
      </g>
     </g>
     <g id="line2d_9">
      <g>
       <use style="stroke:#000000;stroke-width:0.5;" x="161.28" xlink:href="#m5a7d422ac3" y="43.2"/>
      </g>
     </g>
     <g id="text_2">
      <!-- 1000 -->
      <defs>
       <path d="
M52.9375 0
L13.5781 0
L13.5781 7.42188
L28.7188 7.42188
L28.7188 56.1562
L13.5781 56.1562
L13.5781 62.7969
Q16.6562 62.7969 20.1719 63.2969
Q23.6875 63.8125 25.4844 64.7969
Q27.7344 66.0156 29.0312 67.8906
Q30.3281 69.7812 30.5156 72.9531
L38.0938 72.9531
L38.0938 7.42188
L52.9375 7.42188
z
" id="Verdana-31"/>
      </defs>
      <g transform="translate(147.2315625 401.918125)scale(0.12 -0.12)">
       <use xlink:href="#Verdana-31"/>
       <use x="63.57421875" xlink:href="#Verdana-30"/>
       <use x="127.1484375" xlink:href="#Verdana-30"/>
       <use x="190.72265625" xlink:href="#Verdana-30"/>
      </g>
     </g>
    </g>
    <g id="xtick_3">
     <g id="line2d_10">
      <g>
       <use style="stroke:#000000;stroke-width:0.5;" x="250.56" xlink:href="#mc7db9fdffb" y="388.8"/>
      </g>
     </g>
     <g id="line2d_11">
      <g>
       <use style="stroke:#000000;stroke-width:0.5;" x="250.56" xlink:href="#m5a7d422ac3" y="43.2"/>
      </g>
     </g>
     <g id="text_3">
      <!-- 2000 -->
      <defs>
       <path d="
M57.0781 0
L7.85938 0
L7.85938 10.2031
Q12.9844 14.5938 18.1406 18.9844
Q23.2969 23.3906 27.7344 27.7344
Q37.1094 36.8125 40.5781 42.1562
Q44.0469 47.5156 44.0469 53.7188
Q44.0469 59.375 40.3125 62.5625
Q36.5781 65.7656 29.8906 65.7656
Q25.4375 65.7656 20.2656 64.2031
Q15.0938 62.6406 10.1562 59.4219
L9.67188 59.4219
L9.67188 69.6719
Q13.1406 71.3906 18.9219 72.7969
Q24.7031 74.2188 30.125 74.2188
Q41.3125 74.2188 47.6562 68.8125
Q54 63.4219 54 54.2031
Q54 50.0469 52.9531 46.4531
Q51.9062 42.875 49.8594 39.6562
Q47.9531 36.625 45.3906 33.6875
Q42.8281 30.7656 39.1562 27.2031
Q33.9375 22.0781 28.3594 17.2656
Q22.7969 12.4531 17.9688 8.34375
L57.0781 8.34375
z
" id="Verdana-32"/>
      </defs>
      <g transform="translate(236.1684375 401.918125)scale(0.12 -0.12)">
       <use xlink:href="#Verdana-32"/>
       <use x="63.57421875" xlink:href="#Verdana-30"/>
       <use x="127.1484375" xlink:href="#Verdana-30"/>
       <use x="190.72265625" xlink:href="#Verdana-30"/>
      </g>
     </g>
    </g>
    <g id="xtick_4">
     <g id="line2d_12">
      <g>
       <use style="stroke:#000000;stroke-width:0.5;" x="339.84" xlink:href="#mc7db9fdffb" y="388.8"/>
      </g>
     </g>
     <g id="line2d_13">
      <g>
       <use style="stroke:#000000;stroke-width:0.5;" x="339.84" xlink:href="#m5a7d422ac3" y="43.2"/>
      </g>
     </g>
     <g id="text_4">
      <!-- 3000 -->
      <defs>
       <path d="
M50.6875 35.0156
Q53.0312 32.9062 54.5469 29.7344
Q56.0625 26.5625 56.0625 21.5312
Q56.0625 16.5469 54.25 12.3906
Q52.4375 8.25 49.1719 5.17188
Q45.5156 1.76562 40.5469 0.125
Q35.5938 -1.51562 29.6875 -1.51562
Q23.6406 -1.51562 17.7812 -0.0625
Q11.9219 1.375 8.15625 3.07812
L8.15625 13.2812
L8.89062 13.2812
Q13.0312 10.5469 18.6406 8.73438
Q24.2656 6.9375 29.5 6.9375
Q32.5625 6.9375 36.0312 7.95312
Q39.5 8.98438 41.6562 10.9844
Q43.8906 13.1406 44.9844 15.7188
Q46.0938 18.3125 46.0938 22.2656
Q46.0938 26.1719 44.8438 28.7344
Q43.6094 31.2969 41.4062 32.7656
Q39.2031 34.2812 36.0781 34.8438
Q32.9531 35.4062 29.3438 35.4062
L24.9531 35.4062
L24.9531 43.5
L28.375 43.5
Q35.7969 43.5 40.2031 46.5938
Q44.625 49.7031 44.625 55.6719
Q44.625 58.2969 43.5 60.2656
Q42.3906 62.25 40.375 63.5312
Q38.2812 64.7969 35.8906 65.2812
Q33.5 65.7656 30.4688 65.7656
Q25.8281 65.7656 20.5938 64.1094
Q15.375 62.4531 10.75 59.4219
L10.25 59.4219
L10.25 69.625
Q13.7188 71.3438 19.5 72.7812
Q25.2969 74.2188 30.7188 74.2188
Q36.0312 74.2188 40.0781 73.2344
Q44.1406 72.2656 47.4062 70.125
Q50.9219 67.7812 52.7344 64.4531
Q54.5469 61.1406 54.5469 56.6875
Q54.5469 50.6406 50.2656 46.125
Q46 41.6094 40.1875 40.4375
L40.1875 39.75
Q42.5312 39.3594 45.5469 38.1094
Q48.5781 36.8594 50.6875 35.0156" id="Verdana-33"/>
      </defs>
      <g transform="translate(325.46625 401.918125)scale(0.12 -0.12)">
       <use xlink:href="#Verdana-33"/>
       <use x="63.57421875" xlink:href="#Verdana-30"/>
       <use x="127.1484375" xlink:href="#Verdana-30"/>
       <use x="190.72265625" xlink:href="#Verdana-30"/>
      </g>
     </g>
    </g>
    <g id="xtick_5">
     <g id="line2d_14">
      <g>
       <use style="stroke:#000000;stroke-width:0.5;" x="429.12" xlink:href="#mc7db9fdffb" y="388.8"/>
      </g>
     </g>
     <g id="line2d_15">
      <g>
       <use style="stroke:#000000;stroke-width:0.5;" x="429.12" xlink:href="#m5a7d422ac3" y="43.2"/>
      </g>
     </g>
     <g id="text_5">
      <!-- 4000 -->
      <defs>
       <path d="
M58.7344 20.4531
L47.9531 20.4531
L47.9531 0
L38.5781 0
L38.5781 20.4531
L3.76562 20.4531
L3.76562 31.6875
L38.9688 72.7031
L47.9531 72.7031
L47.9531 28.2656
L58.7344 28.2656
z

M38.5781 28.2656
L38.5781 61.0781
L10.4062 28.2656
z
" id="Verdana-34"/>
      </defs>
      <g transform="translate(414.4828125 401.918125)scale(0.12 -0.12)">
       <use xlink:href="#Verdana-34"/>
       <use x="63.57421875" xlink:href="#Verdana-30"/>
       <use x="127.1484375" xlink:href="#Verdana-30"/>
       <use x="190.72265625" xlink:href="#Verdana-30"/>
      </g>
     </g>
    </g>
    <g id="xtick_6">
     <g id="line2d_16">
      <g>
       <use style="stroke:#000000;stroke-width:0.5;" x="518.4" xlink:href="#mc7db9fdffb" y="388.8"/>
      </g>
     </g>
     <g id="line2d_17">
      <g>
       <use style="stroke:#000000;stroke-width:0.5;" x="518.4" xlink:href="#m5a7d422ac3" y="43.2"/>
      </g>
     </g>
     <g id="text_6">
      <!-- 5000 -->
      <defs>
       <path d="
M56.5 23.0938
Q56.5 18.0156 54.6406 13.375
Q52.7812 8.73438 49.5625 5.5625
Q46.0469 2.15625 41.1875 0.3125
Q36.3281 -1.51562 29.9375 -1.51562
Q23.9688 -1.51562 18.4531 -0.265625
Q12.9375 0.984375 9.125 2.73438
L9.125 13.0312
L9.8125 13.0312
Q13.8125 10.5 19.1875 8.71875
Q24.5625 6.9375 29.7344 6.9375
Q33.2031 6.9375 36.4531 7.90625
Q39.7031 8.89062 42.2344 11.3281
Q44.3906 13.4219 45.4844 16.3438
Q46.5781 19.2812 46.5781 23.1406
Q46.5781 26.9062 45.2812 29.4844
Q44 32.0781 41.7031 33.6406
Q39.1562 35.5 35.5156 36.25
Q31.8906 37.0156 27.3906 37.0156
Q23.0938 37.0156 19.1094 36.4219
Q15.1406 35.8438 12.25 35.25
L12.25 72.7031
L56 72.7031
L56 64.1562
L21.6875 64.1562
L21.6875 44.8281
Q23.7812 45.0156 25.9688 45.1094
Q28.1719 45.2188 29.7812 45.2188
Q35.6875 45.2188 40.125 44.2188
Q44.5781 43.2188 48.2969 40.6719
Q52.2031 37.9844 54.3438 33.7344
Q56.5 29.5 56.5 23.0938" id="Verdana-35"/>
      </defs>
      <g transform="translate(504.084375 401.918125)scale(0.12 -0.12)">
       <use xlink:href="#Verdana-35"/>
       <use x="63.57421875" xlink:href="#Verdana-30"/>
       <use x="127.1484375" xlink:href="#Verdana-30"/>
       <use x="190.72265625" xlink:href="#Verdana-30"/>
      </g>
     </g>
    </g>
    <g id="text_7">
     <!-- Objective function exectuions -->
     <defs>
      <path d="
M37.3594 0.484375
Q34.7656 -0.203125 31.7031 -0.640625
Q28.6562 -1.07812 26.2656 -1.07812
Q17.9219 -1.07812 13.5781 3.40625
Q9.23438 7.90625 9.23438 17.8281
L9.23438 46.8281
L3.03125 46.8281
L3.03125 54.5469
L9.23438 54.5469
L9.23438 70.2188
L18.4062 70.2188
L18.4062 54.5469
L37.3594 54.5469
L37.3594 46.8281
L18.4062 46.8281
L18.4062 21.9688
Q18.4062 17.6719 18.5938 15.25
Q18.7969 12.8438 19.9688 10.75
Q21.0469 8.79688 22.9219 7.89062
Q24.8125 6.98438 28.6562 6.98438
Q30.9062 6.98438 33.3438 7.64062
Q35.7969 8.29688 36.8594 8.73438
L37.3594 8.73438
z
" id="Verdana-74"/>
      <path d="
M56.2031 54.5469
L34.125 0
L24.9062 0
L2.98438 54.5469
L12.9375 54.5469
L29.8281 11.1406
L46.5781 54.5469
z
" id="Verdana-76"/>
      <path d="
M26.0312 63.6719
L15.6719 63.6719
L15.6719 73.1875
L26.0312 73.1875
z

M25.4375 -1.3125
Q25.4375 -10.8906 20.5469 -15.7656
Q15.6719 -20.6562 7.46875 -20.6562
Q5.51562 -20.6562 2.3125 -20.2656
Q-0.875 -19.875 -3.03125 -19.2812
L-3.03125 -10.5469
L-2.54688 -10.5469
Q-1.17188 -11.0781 1.14062 -11.7656
Q3.46875 -12.4531 5.67188 -12.4531
Q9.1875 -12.4531 11.3281 -11.4688
Q13.4844 -10.5 14.5469 -8.54688
Q15.625 -6.59375 15.9375 -3.82812
Q16.2656 -1.07812 16.2656 2.875
L16.2656 46.8281
L4.89062 46.8281
L4.89062 54.5469
L25.4375 54.5469
z
" id="Verdana-6a"/>
      <path d="
M63.9688 64.3594
Q68.4062 59.4688 70.7656 52.3906
Q73.1406 45.3125 73.1406 36.3281
Q73.1406 27.3438 70.7188 20.2344
Q68.3125 13.1406 63.9688 8.40625
Q59.4688 3.46875 53.3438 0.96875
Q47.2188 -1.51562 39.3594 -1.51562
Q31.6875 -1.51562 25.4062 1.01562
Q19.1406 3.5625 14.75 8.40625
Q10.3594 13.2344 7.98438 20.2656
Q5.60938 27.2969 5.60938 36.3281
Q5.60938 45.2188 7.95312 52.2656
Q10.2969 59.3281 14.7969 64.3594
Q19.0938 69.1406 25.4688 71.6719
Q31.8438 74.2188 39.3594 74.2188
Q47.1719 74.2188 53.3906 71.6562
Q59.625 69.0938 63.9688 64.3594
M63.0938 36.3281
Q63.0938 50.4844 56.7344 58.1719
Q50.3906 65.875 39.4062 65.875
Q28.3281 65.875 22 58.1719
Q15.6719 50.4844 15.6719 36.3281
Q15.6719 22.0156 22.1094 14.4219
Q28.5625 6.84375 39.4062 6.84375
Q50.25 6.84375 56.6719 14.4219
Q63.0938 22.0156 63.0938 36.3281" id="Verdana-4f"/>
      <path d="
M54.25 0
L45.0625 0
L45.0625 6.0625
Q40.4375 2.39062 36.1875 0.4375
Q31.9375 -1.51562 26.8125 -1.51562
Q18.2188 -1.51562 13.4219 3.73438
Q8.64062 8.98438 8.64062 19.1406
L8.64062 54.5469
L17.8281 54.5469
L17.8281 23.4844
Q17.8281 19.3438 18.2188 16.375
Q18.6094 13.4219 19.875 11.3281
Q21.1875 9.1875 23.2812 8.20312
Q25.3906 7.23438 29.3906 7.23438
Q32.9531 7.23438 37.1719 9.07812
Q41.4062 10.9375 45.0625 13.8125
L45.0625 54.5469
L54.25 54.5469
z
" id="Verdana-75"/>
      <path d="
M48 15.7188
Q48 8.25 41.8125 3.46875
Q35.6406 -1.3125 24.9531 -1.3125
Q18.8906 -1.3125 13.8438 0.125
Q8.79688 1.5625 5.375 3.26562
L5.375 13.5781
L5.85938 13.5781
Q10.2031 10.2969 15.5156 8.375
Q20.8438 6.45312 25.7344 6.45312
Q31.7812 6.45312 35.2031 8.40625
Q38.625 10.3594 38.625 14.5469
Q38.625 17.7812 36.7656 19.4375
Q34.9062 21.0938 29.6406 22.2656
Q27.6875 22.7031 24.5312 23.2812
Q21.3906 23.875 18.7969 24.5625
Q11.625 26.4688 8.60938 30.1562
Q5.60938 33.8438 5.60938 39.2031
Q5.60938 42.5781 7 45.5469
Q8.40625 48.5312 11.2344 50.875
Q13.9688 53.1719 18.1875 54.5156
Q22.4062 55.8594 27.6406 55.8594
Q32.5156 55.8594 37.5156 54.6562
Q42.5312 53.4688 45.8438 51.7656
L45.8438 41.9375
L45.3594 41.9375
Q41.8438 44.5312 36.8125 46.3125
Q31.7812 48.0938 26.9531 48.0938
Q21.9219 48.0938 18.4531 46.1562
Q14.9844 44.2344 14.9844 40.4375
Q14.9844 37.0625 17.0938 35.3594
Q19.1406 33.6406 23.7344 32.5625
Q26.2656 31.9844 29.4062 31.3906
Q32.5625 30.8125 34.6719 30.3281
Q41.0625 28.8594 44.5312 25.2969
Q48 21.6875 48 15.7188" id="Verdana-73"/>
      <path d="
M56.25 0
L44.6719 0
L29.2031 20.9531
L13.625 0
L2.9375 0
L24.2188 27.2031
L3.125 54.5469
L14.7031 54.5469
L30.0781 33.9375
L45.5156 54.5469
L56.25 54.5469
L34.8125 27.6875
z
" id="Verdana-78"/>
      <path id="Verdana-20"/>
      <path d="
M38.375 67.0938
L37.8906 67.0938
Q36.375 67.5312 33.9375 67.9844
Q31.5 68.4531 29.6406 68.4531
Q23.7344 68.4531 21.0625 65.8438
Q18.4062 63.2344 18.4062 56.3906
L18.4062 54.5469
L34.9688 54.5469
L34.9688 46.8281
L18.7031 46.8281
L18.7031 0
L9.51562 0
L9.51562 46.8281
L3.32812 46.8281
L3.32812 54.5469
L9.51562 54.5469
L9.51562 56.3438
Q9.51562 66.0625 14.3438 71.2656
Q19.1875 76.4688 28.3281 76.4688
Q31.3906 76.4688 33.8594 76.1719
Q36.3281 75.875 38.375 75.4844
z
" id="Verdana-66"/>
      <path d="
M55.5156 27.25
Q55.5156 13.9219 48.6719 6.20312
Q41.8438 -1.51562 30.375 -1.51562
Q18.7969 -1.51562 11.9844 6.20312
Q5.17188 13.9219 5.17188 27.25
Q5.17188 40.5781 11.9844 48.3125
Q18.7969 56.0625 30.375 56.0625
Q41.8438 56.0625 48.6719 48.3125
Q55.5156 40.5781 55.5156 27.25
M46.0469 27.25
Q46.0469 37.8438 41.8906 42.9844
Q37.75 48.1406 30.375 48.1406
Q22.9062 48.1406 18.7812 42.9844
Q14.6562 37.8438 14.6562 27.25
Q14.6562 17 18.7969 11.6875
Q22.9531 6.39062 30.375 6.39062
Q37.7031 6.39062 41.875 11.6406
Q46.0469 16.8906 46.0469 27.25" id="Verdana-6f"/>
      <path d="
M57.0312 27.6875
Q57.0312 20.8438 55.0938 15.375
Q53.1719 9.90625 49.9062 6.20312
Q46.4375 2.34375 42.2812 0.40625
Q38.1406 -1.51562 33.1562 -1.51562
Q28.5156 -1.51562 25.0469 -0.40625
Q21.5781 0.6875 18.2188 2.54688
L17.625 0
L9.03125 0
L9.03125 75.9844
L18.2188 75.9844
L18.2188 48.8281
Q22.0781 52 26.4219 54.0312
Q30.7656 56.0625 36.1875 56.0625
Q45.8438 56.0625 51.4375 48.6406
Q57.0312 41.2188 57.0312 27.6875
M47.5625 27.4375
Q47.5625 37.2031 44.3281 42.25
Q41.1094 47.3125 33.9375 47.3125
Q29.9375 47.3125 25.8281 45.5781
Q21.7344 43.8438 18.2188 41.1094
L18.2188 9.85938
Q22.125 8.10938 24.9219 7.42188
Q27.7344 6.73438 31.2969 6.73438
Q38.9219 6.73438 43.2344 11.7344
Q47.5625 16.75 47.5625 27.4375" id="Verdana-62"/>
      <path d="
M49.3594 3.42188
Q44.7812 1.21875 40.6562 0
Q36.5312 -1.21875 31.8906 -1.21875
Q25.9844 -1.21875 21.0469 0.515625
Q16.1094 2.25 12.5938 5.76562
Q9.03125 9.28125 7.07812 14.6406
Q5.125 20.0156 5.125 27.2031
Q5.125 40.5781 12.4688 48.1875
Q19.8281 55.8125 31.8906 55.8125
Q36.5781 55.8125 41.0938 54.4844
Q45.6094 53.1719 49.3594 51.2656
L49.3594 41.0625
L48.875 41.0625
Q44.6719 44.3438 40.2031 46.0938
Q35.75 47.8594 31.5 47.8594
Q23.6875 47.8594 19.1719 42.6094
Q14.6562 37.3594 14.6562 27.2031
Q14.6562 17.3281 19.0625 12.0312
Q23.4844 6.73438 31.5 6.73438
Q34.2812 6.73438 37.1562 7.46875
Q40.0469 8.20312 42.3281 9.375
Q44.3438 10.4062 46.0938 11.5469
Q47.8594 12.7031 48.875 13.5312
L49.3594 13.5312
z
" id="Verdana-63"/>
      <path d="
M54.6406 0
L45.4531 0
L45.4531 31.0625
Q45.4531 34.8125 45.0156 38.1094
Q44.5781 41.4062 43.4062 43.2656
Q42.1875 45.3125 39.8906 46.3125
Q37.5938 47.3125 33.9375 47.3125
Q30.1719 47.3125 26.0625 45.4531
Q21.9688 43.6094 18.2188 40.7188
L18.2188 0
L9.03125 0
L9.03125 54.5469
L18.2188 54.5469
L18.2188 48.4844
Q22.5156 52.0469 27.0938 54.0469
Q31.6875 56.0625 36.5312 56.0625
Q45.3594 56.0625 50 50.7344
Q54.6406 45.4062 54.6406 35.4062
z
" id="Verdana-6e"/>
      <path d="
M54.6875 26.3125
L14.5 26.3125
Q14.5 21.2969 16.0156 17.5469
Q17.5312 13.8125 20.1719 11.4219
Q22.7031 9.07812 26.1875 7.90625
Q29.6875 6.73438 33.8906 6.73438
Q39.4531 6.73438 45.0938 8.95312
Q50.7344 11.1875 53.125 13.3281
L53.6094 13.3281
L53.6094 3.32812
Q48.9688 1.375 44.1406 0.046875
Q39.3125 -1.26562 33.9844 -1.26562
Q20.4062 -1.26562 12.7812 6.07812
Q5.17188 13.4219 5.17188 26.9531
Q5.17188 40.3281 12.4688 48.1875
Q19.7812 56.0625 31.6875 56.0625
Q42.7188 56.0625 48.7031 49.6094
Q54.6875 43.1719 54.6875 31.2969
z

M45.75 33.3438
Q45.7031 40.5781 42.1094 44.5312
Q38.5312 48.4844 31.2031 48.4844
Q23.8281 48.4844 19.4531 44.1406
Q15.0938 39.7969 14.5 33.3438
z
" id="Verdana-65"/>
      <path d="
M18.8906 63.6719
L8.54688 63.6719
L8.54688 73.1875
L18.8906 73.1875
z

M18.3125 0
L9.125 0
L9.125 54.5469
L18.3125 54.5469
z
" id="Verdana-69"/>
     </defs>
     <g transform="translate(206.5078125 418.509375)scale(0.12 -0.12)">
      <use xlink:href="#Verdana-4f"/>
      <use x="78.7109375" xlink:href="#Verdana-62"/>
      <use x="141.015625" xlink:href="#Verdana-6a"/>
      <use x="175.439453125" xlink:href="#Verdana-65"/>
      <use x="235.009765625" xlink:href="#Verdana-63"/>
      <use x="287.109375" xlink:href="#Verdana-74"/>
      <use x="326.513671875" xlink:href="#Verdana-69"/>
      <use x="353.955078125" xlink:href="#Verdana-76"/>
      <use x="412.259765625" xlink:href="#Verdana-65"/>
      <use x="471.830078125" xlink:href="#Verdana-20"/>
      <use x="506.986328125" xlink:href="#Verdana-66"/>
      <use x="542.142578125" xlink:href="#Verdana-75"/>
      <use x="605.423828125" xlink:href="#Verdana-6e"/>
      <use x="668.705078125" xlink:href="#Verdana-63"/>
      <use x="720.8046875" xlink:href="#Verdana-74"/>
      <use x="760.208984375" xlink:href="#Verdana-69"/>
      <use x="787.650390625" xlink:href="#Verdana-6f"/>
      <use x="848.34375" xlink:href="#Verdana-6e"/>
      <use x="911.625" xlink:href="#Verdana-20"/>
      <use x="946.78125" xlink:href="#Verdana-65"/>
      <use x="1006.3515625" xlink:href="#Verdana-78"/>
      <use x="1064.40625" xlink:href="#Verdana-65"/>
      <use x="1123.9765625" xlink:href="#Verdana-63"/>
      <use x="1176.076171875" xlink:href="#Verdana-74"/>
      <use x="1215.48046875" xlink:href="#Verdana-75"/>
      <use x="1278.76171875" xlink:href="#Verdana-69"/>
      <use x="1306.203125" xlink:href="#Verdana-6f"/>
      <use x="1366.896484375" xlink:href="#Verdana-6e"/>
      <use x="1430.177734375" xlink:href="#Verdana-73"/>
     </g>
    </g>
   </g>
   <g id="matplotlib.axis_2">
    <g id="ytick_1">
     <g id="line2d_18">
      <defs>
       <path d="
M0 0
L4 0" id="md7965d1ba0" style="stroke:#000000;stroke-width:0.5;"/>
      </defs>
      <g>
       <use style="stroke:#000000;stroke-width:0.5;" x="72.0" xlink:href="#md7965d1ba0" y="388.8"/>
      </g>
     </g>
     <g id="line2d_19">
      <defs>
       <path d="
M0 0
L-4 0" id="md9a1c1a7cd" style="stroke:#000000;stroke-width:0.5;"/>
      </defs>
      <g>
       <use style="stroke:#000000;stroke-width:0.5;" x="518.4" xlink:href="#md9a1c1a7cd" y="388.8"/>
      </g>
     </g>
     <g id="text_8">
      <!-- 0.0 -->
      <defs>
       <path d="
M24.0312 0
L12.3594 0
L12.3594 13.9219
L24.0312 13.9219
z
" id="Verdana-2e"/>
      </defs>
      <g transform="translate(49.97 392.1515625)scale(0.12 -0.12)">
       <use xlink:href="#Verdana-30"/>
       <use x="63.57421875" xlink:href="#Verdana-2e"/>
       <use x="99.951171875" xlink:href="#Verdana-30"/>
      </g>
     </g>
    </g>
    <g id="ytick_2">
     <g id="line2d_20">
      <g>
       <use style="stroke:#000000;stroke-width:0.5;" x="72.0" xlink:href="#md7965d1ba0" y="350.4"/>
      </g>
     </g>
     <g id="line2d_21">
      <g>
       <use style="stroke:#000000;stroke-width:0.5;" x="518.4" xlink:href="#md9a1c1a7cd" y="350.4"/>
      </g>
     </g>
     <g id="text_9">
      <!-- 0.1 -->
      <g transform="translate(50.455625 353.7515625)scale(0.12 -0.12)">
       <use xlink:href="#Verdana-30"/>
       <use x="63.57421875" xlink:href="#Verdana-2e"/>
       <use x="99.951171875" xlink:href="#Verdana-31"/>
      </g>
     </g>
    </g>
    <g id="ytick_3">
     <g id="line2d_22">
      <g>
       <use style="stroke:#000000;stroke-width:0.5;" x="72.0" xlink:href="#md7965d1ba0" y="312.0"/>
      </g>
     </g>
     <g id="line2d_23">
      <g>
       <use style="stroke:#000000;stroke-width:0.5;" x="518.4" xlink:href="#md9a1c1a7cd" y="312.0"/>
      </g>
     </g>
     <g id="text_10">
      <!-- 0.2 -->
      <g transform="translate(49.95875 315.3515625)scale(0.12 -0.12)">
       <use xlink:href="#Verdana-30"/>
       <use x="63.57421875" xlink:href="#Verdana-2e"/>
       <use x="99.951171875" xlink:href="#Verdana-32"/>
      </g>
     </g>
    </g>
    <g id="ytick_4">
     <g id="line2d_24">
      <g>
       <use style="stroke:#000000;stroke-width:0.5;" x="72.0" xlink:href="#md7965d1ba0" y="273.6"/>
      </g>
     </g>
     <g id="line2d_25">
      <g>
       <use style="stroke:#000000;stroke-width:0.5;" x="518.4" xlink:href="#md9a1c1a7cd" y="273.6"/>
      </g>
     </g>
     <g id="text_11">
      <!-- 0.3 -->
      <g transform="translate(50.080625 276.9515625)scale(0.12 -0.12)">
       <use xlink:href="#Verdana-30"/>
       <use x="63.57421875" xlink:href="#Verdana-2e"/>
       <use x="99.951171875" xlink:href="#Verdana-33"/>
      </g>
     </g>
    </g>
    <g id="ytick_5">
     <g id="line2d_26">
      <g>
       <use style="stroke:#000000;stroke-width:0.5;" x="72.0" xlink:href="#md7965d1ba0" y="235.2"/>
      </g>
     </g>
     <g id="line2d_27">
      <g>
       <use style="stroke:#000000;stroke-width:0.5;" x="518.4" xlink:href="#md9a1c1a7cd" y="235.2"/>
      </g>
     </g>
     <g id="text_12">
      <!-- 0.4 -->
      <g transform="translate(49.76 238.5515625)scale(0.12 -0.12)">
       <use xlink:href="#Verdana-30"/>
       <use x="63.57421875" xlink:href="#Verdana-2e"/>
       <use x="99.951171875" xlink:href="#Verdana-34"/>
      </g>
     </g>
    </g>
    <g id="ytick_6">
     <g id="line2d_28">
      <g>
       <use style="stroke:#000000;stroke-width:0.5;" x="72.0" xlink:href="#md7965d1ba0" y="196.8"/>
      </g>
     </g>
     <g id="line2d_29">
      <g>
       <use style="stroke:#000000;stroke-width:0.5;" x="518.4" xlink:href="#md9a1c1a7cd" y="196.8"/>
      </g>
     </g>
     <g id="text_13">
      <!-- 0.5 -->
      <g transform="translate(50.028125 200.1515625)scale(0.12 -0.12)">
       <use xlink:href="#Verdana-30"/>
       <use x="63.57421875" xlink:href="#Verdana-2e"/>
       <use x="99.951171875" xlink:href="#Verdana-35"/>
      </g>
     </g>
    </g>
    <g id="ytick_7">
     <g id="line2d_30">
      <g>
       <use style="stroke:#000000;stroke-width:0.5;" x="72.0" xlink:href="#md7965d1ba0" y="158.4"/>
      </g>
     </g>
     <g id="line2d_31">
      <g>
       <use style="stroke:#000000;stroke-width:0.5;" x="518.4" xlink:href="#md9a1c1a7cd" y="158.4"/>
      </g>
     </g>
     <g id="text_14">
      <!-- 0.6 -->
      <defs>
       <path d="
M58.1562 23.5781
Q58.1562 12.5 50.8594 5.48438
Q43.5625 -1.51562 32.9531 -1.51562
Q27.5938 -1.51562 23.1875 0.140625
Q18.7969 1.8125 15.4375 5.07812
Q11.2344 9.125 8.95312 15.8125
Q6.6875 22.5156 6.6875 31.9375
Q6.6875 41.6094 8.76562 49.0781
Q10.8438 56.5469 15.375 62.3594
Q19.6719 67.875 26.4531 70.9688
Q33.25 74.0781 42.2812 74.0781
Q45.1719 74.0781 47.125 73.8281
Q49.0781 73.5781 51.0781 72.9531
L51.0781 63.625
L50.5938 63.625
Q49.2188 64.3594 46.4531 65.0156
Q43.7031 65.6719 40.8281 65.6719
Q30.3281 65.6719 24.0781 59.1094
Q17.8281 52.5469 16.7969 41.3594
Q20.9062 43.8438 24.875 45.1406
Q28.8594 46.4375 34.0781 46.4375
Q38.7188 46.4375 42.25 45.5781
Q45.7969 44.7344 49.5156 42.1406
Q53.8125 39.1562 55.9844 34.6094
Q58.1562 30.0781 58.1562 23.5781
M48.25 23.1875
Q48.25 27.7344 46.9062 30.7031
Q45.5625 33.6875 42.4844 35.8906
Q40.2344 37.4531 37.5 37.9375
Q34.7656 38.4219 31.7812 38.4219
Q27.6406 38.4219 24.0781 37.4375
Q20.5156 36.4688 16.75 34.4219
Q16.6562 33.3438 16.5938 32.3438
Q16.5469 31.3438 16.5469 29.8281
Q16.5469 22.125 18.1406 17.6562
Q19.7344 13.1875 22.5156 10.5938
Q24.75 8.45312 27.3594 7.45312
Q29.9844 6.45312 33.0625 6.45312
Q40.1406 6.45312 44.1875 10.7656
Q48.25 15.0938 48.25 23.1875" id="Verdana-36"/>
      </defs>
      <g transform="translate(49.829375 161.7515625)scale(0.12 -0.12)">
       <use xlink:href="#Verdana-30"/>
       <use x="63.57421875" xlink:href="#Verdana-2e"/>
       <use x="99.951171875" xlink:href="#Verdana-36"/>
      </g>
     </g>
    </g>
    <g id="ytick_8">
     <g id="line2d_32">
      <g>
       <use style="stroke:#000000;stroke-width:0.5;" x="72.0" xlink:href="#md7965d1ba0" y="120.0"/>
      </g>
     </g>
     <g id="line2d_33">
      <g>
       <use style="stroke:#000000;stroke-width:0.5;" x="518.4" xlink:href="#md9a1c1a7cd" y="120.0"/>
      </g>
     </g>
     <g id="text_15">
      <!-- 0.7 -->
      <defs>
       <path d="
M57.2812 61.8125
L24.3594 0
L13.9219 0
L48.9219 64.1562
L7.51562 64.1562
L7.51562 72.7031
L57.2812 72.7031
z
" id="Verdana-37"/>
      </defs>
      <g transform="translate(49.934375 123.3515625)scale(0.12 -0.12)">
       <use xlink:href="#Verdana-30"/>
       <use x="63.57421875" xlink:href="#Verdana-2e"/>
       <use x="99.951171875" xlink:href="#Verdana-37"/>
      </g>
     </g>
    </g>
    <g id="ytick_9">
     <g id="line2d_34">
      <g>
       <use style="stroke:#000000;stroke-width:0.5;" x="72.0" xlink:href="#md7965d1ba0" y="81.6"/>
      </g>
     </g>
     <g id="line2d_35">
      <g>
       <use style="stroke:#000000;stroke-width:0.5;" x="518.4" xlink:href="#md9a1c1a7cd" y="81.6"/>
      </g>
     </g>
     <g id="text_16">
      <!-- 0.8 -->
      <defs>
       <path d="
M57.625 20.2656
Q57.625 10.8438 50.2656 4.59375
Q42.9219 -1.65625 31.7812 -1.65625
Q19.9688 -1.65625 12.9531 4.4375
Q5.95312 10.5469 5.95312 20.0625
Q5.95312 26.125 9.46875 31.0312
Q12.9844 35.9375 19.3906 38.8125
L19.3906 39.1094
Q13.5312 42.2344 10.7188 45.9375
Q7.90625 49.6562 7.90625 55.2188
Q7.90625 63.4219 14.6406 68.8906
Q21.3906 74.3594 31.7812 74.3594
Q42.6719 74.3594 49.1719 69.1406
Q55.6719 63.9219 55.6719 55.8594
Q55.6719 50.9219 52.5938 46.1562
Q49.5156 41.4062 43.5625 38.7188
L43.5625 38.4219
Q50.3906 35.5 54 31.2031
Q57.625 26.9062 57.625 20.2656
M46.0469 55.7656
Q46.0469 60.9844 42.0156 64.0781
Q37.9844 67.1875 31.7344 67.1875
Q25.5938 67.1875 21.6562 64.25
Q17.7188 61.3281 17.7188 56.3438
Q17.7188 52.8281 19.7031 50.2656
Q21.6875 47.7031 25.6875 45.7031
Q27.4844 44.8281 30.875 43.4062
Q34.2812 42 37.5 41.0625
Q42.3281 44.2812 44.1875 47.75
Q46.0469 51.2188 46.0469 55.7656
M47.5625 19.3438
Q47.5625 23.8281 45.5781 26.5312
Q43.6094 29.25 37.8438 31.9844
Q35.5469 33.0625 32.8125 33.9844
Q30.0781 34.9062 25.5312 36.5781
Q21.1406 34.1875 18.4844 30.0781
Q15.8281 25.9844 15.8281 20.7969
Q15.8281 14.2031 20.3594 9.90625
Q24.9062 5.60938 31.8906 5.60938
Q39.0156 5.60938 43.2812 9.26562
Q47.5625 12.9375 47.5625 19.3438" id="Verdana-38"/>
      </defs>
      <g transform="translate(49.893125 84.9515625)scale(0.12 -0.12)">
       <use xlink:href="#Verdana-30"/>
       <use x="63.57421875" xlink:href="#Verdana-2e"/>
       <use x="99.951171875" xlink:href="#Verdana-38"/>
      </g>
     </g>
    </g>
    <g id="ytick_10">
     <g id="line2d_36">
      <g>
       <use style="stroke:#000000;stroke-width:0.5;" x="72.0" xlink:href="#md7965d1ba0" y="43.2"/>
      </g>
     </g>
     <g id="line2d_37">
      <g>
       <use style="stroke:#000000;stroke-width:0.5;" x="518.4" xlink:href="#md9a1c1a7cd" y="43.2"/>
      </g>
     </g>
     <g id="text_17">
      <!-- 0.9 -->
      <defs>
       <path d="
M56.9844 40.7188
Q56.9844 31.2031 54.8125 23.4375
Q52.6406 15.6719 48.25 10.2031
Q43.7969 4.64062 37.1094 1.60938
Q30.4219 -1.42188 21.3906 -1.42188
Q18.8438 -1.42188 16.5938 -1.14062
Q14.3594 -0.875 12.5938 -0.296875
L12.5938 9.03125
L13.0938 9.03125
Q14.5 8.29688 17.0781 7.64062
Q19.6719 6.98438 22.8594 6.98438
Q33.6406 6.98438 39.7656 13.4531
Q45.9062 19.9219 46.875 31.2969
Q42.3281 28.5625 38.3281 27.3906
Q34.3281 26.2188 29.5938 26.2188
Q25.0938 26.2188 21.4531 27.0938
Q17.8281 27.9844 14.1562 30.5156
Q9.85938 33.5 7.6875 38.0781
Q5.51562 42.6719 5.51562 49.0781
Q5.51562 60.2031 12.8438 67.1875
Q20.1719 74.1719 30.7188 74.1719
Q35.9844 74.1719 40.4688 72.5312
Q44.9688 70.9062 48.3438 67.625
Q52.4844 63.5781 54.7344 57.2031
Q56.9844 50.8281 56.9844 40.7188
M47.125 42.8281
Q47.125 50.3906 45.5625 54.9844
Q44 59.5781 41.2656 62.1094
Q38.9688 64.3125 36.3281 65.2656
Q33.6875 66.2188 30.6094 66.2188
Q23.5781 66.2188 19.5 61.8125
Q15.4375 57.4219 15.4375 49.4688
Q15.4375 44.8281 16.75 41.8906
Q18.0625 38.9688 21.1875 36.7656
Q23.3906 35.25 26.0156 34.7344
Q28.6562 34.2344 31.8906 34.2344
Q35.6875 34.2344 39.5938 35.25
Q43.5 36.2812 46.9219 38.2344
Q46.9688 39.2656 47.0469 40.2656
Q47.125 41.2656 47.125 42.8281" id="Verdana-39"/>
      </defs>
      <g transform="translate(49.97 46.5515625)scale(0.12 -0.12)">
       <use xlink:href="#Verdana-30"/>
       <use x="63.57421875" xlink:href="#Verdana-2e"/>
       <use x="99.951171875" xlink:href="#Verdana-39"/>
      </g>
     </g>
    </g>
    <g id="text_18">
     <!-- Data Profile T-0.0010000 -->
     <defs>
      <path d="
M43.0625 44.5312
L42.5781 44.5312
Q40.5312 45.0156 38.5938 45.2344
Q36.6719 45.4531 34.0312 45.4531
Q29.7812 45.4531 25.8281 43.5781
Q21.875 41.7031 18.2188 38.7188
L18.2188 0
L9.03125 0
L9.03125 54.5469
L18.2188 54.5469
L18.2188 46.4844
Q23.6875 50.875 27.8594 52.7031
Q32.0312 54.5469 36.375 54.5469
Q38.7656 54.5469 39.8438 54.4219
Q40.9219 54.2969 43.0625 53.9531
z
" id="Verdana-72"/>
      <path d="
M37.9375 27.3906
L7.46875 27.3906
L7.46875 36.2344
L37.9375 36.2344
z
" id="Verdana-2d"/>
      <path d="
M18.3125 0
L9.125 0
L9.125 75.9844
L18.3125 75.9844
z
" id="Verdana-6c"/>
      <path d="
M57.3281 50.7344
Q57.3281 45.9062 55.6406 41.7656
Q53.9531 37.6406 50.9219 34.625
Q47.1719 30.8594 42.0469 28.9688
Q36.9219 27.0938 29.1094 27.0938
L19.4375 27.0938
L19.4375 0
L9.76562 0
L9.76562 72.7031
L29.5 72.7031
Q36.0312 72.7031 40.5781 71.6094
Q45.125 70.5156 48.6406 68.1719
Q52.7812 65.375 55.0469 61.2188
Q57.3281 57.0781 57.3281 50.7344
M47.2656 50.4844
Q47.2656 54.25 45.9375 57.0312
Q44.625 59.8125 41.9375 61.5781
Q39.5938 63.0938 36.5938 63.75
Q33.5938 64.4062 29 64.4062
L19.4375 64.4062
L19.4375 35.3594
L27.5938 35.3594
Q33.4531 35.3594 37.1094 36.4062
Q40.7656 37.4531 43.0625 39.75
Q45.3594 42.0938 46.3125 44.6719
Q47.2656 47.2656 47.2656 50.4844" id="Verdana-50"/>
      <path d="
M61.625 64.1094
L35.6406 64.1094
L35.6406 0
L25.9844 0
L25.9844 64.1094
L0 64.1094
L0 72.7031
L61.625 72.7031
z
" id="Verdana-54"/>
      <path d="
M51.4219 0
L42.2812 0
L42.2812 5.8125
Q41.0625 4.98438 38.9844 3.48438
Q36.9219 2 34.9688 1.125
Q32.6719 0 29.6875 -0.75
Q26.7031 -1.51562 22.7031 -1.51562
Q15.3281 -1.51562 10.2031 3.35938
Q5.07812 8.25 5.07812 15.8281
Q5.07812 22.0156 7.73438 25.8438
Q10.4062 29.6875 15.3281 31.8906
Q20.3125 34.0781 27.2969 34.8594
Q34.2812 35.6406 42.2812 36.0312
L42.2812 37.4531
Q42.2812 40.5781 41.1875 42.625
Q40.0938 44.6719 38.0312 45.8438
Q36.0781 46.9688 33.3438 47.3594
Q30.6094 47.75 27.6406 47.75
Q24.0312 47.75 19.5781 46.7969
Q15.1406 45.8438 10.4062 44.0469
L9.90625 44.0469
L9.90625 53.375
Q12.5938 54.1094 17.6719 54.9844
Q22.75 55.8594 27.6875 55.8594
Q33.4531 55.8594 37.7188 54.9062
Q42 53.9531 45.125 51.6562
Q48.1875 49.4219 49.7969 45.8438
Q51.4219 42.2812 51.4219 37.0156
z

M42.2812 13.4219
L42.2812 28.6094
Q38.0938 28.375 32.3906 27.875
Q26.7031 27.3906 23.3906 26.4688
Q19.4375 25.3438 16.9844 22.9688
Q14.5469 20.6094 14.5469 16.4531
Q14.5469 11.7656 17.375 9.39062
Q20.2188 7.03125 26.0312 7.03125
Q30.8594 7.03125 34.8594 8.90625
Q38.875 10.7969 42.2812 13.4219" id="Verdana-61"/>
      <path d="
M71.1875 36.2812
Q71.1875 26.375 66.8594 18.3125
Q62.5469 10.25 55.375 5.8125
Q50.3906 2.73438 44.2656 1.35938
Q38.1406 0 28.125 0
L9.76562 0
L9.76562 72.7031
L27.9375 72.7031
Q38.5781 72.7031 44.8438 71.1562
Q51.125 69.625 55.4688 66.9375
Q62.8906 62.3125 67.0312 54.5938
Q71.1875 46.875 71.1875 36.2812
M61.0781 36.4219
Q61.0781 44.9688 58.0938 50.8281
Q55.125 56.6875 49.2188 60.0625
Q44.9219 62.5 40.0781 63.4531
Q35.25 64.4062 28.5156 64.4062
L19.4375 64.4062
L19.4375 8.29688
L28.5156 8.29688
Q35.5 8.29688 40.7031 9.32812
Q45.9062 10.3594 50.25 13.1406
Q55.6719 16.6094 58.375 22.2656
Q61.0781 27.9375 61.0781 36.4219" id="Verdana-44"/>
     </defs>
     <g transform="translate(42.345 291.493125)rotate(-90.0)scale(0.12 -0.12)">
      <use xlink:href="#Verdana-44"/>
      <use x="77.05078125" xlink:href="#Verdana-61"/>
      <use x="137.109375" xlink:href="#Verdana-74"/>
      <use x="176.513671875" xlink:href="#Verdana-61"/>
      <use x="236.572265625" xlink:href="#Verdana-20"/>
      <use x="271.728515625" xlink:href="#Verdana-50"/>
      <use x="332.03125" xlink:href="#Verdana-72"/>
      <use x="374.70703125" xlink:href="#Verdana-6f"/>
      <use x="435.400390625" xlink:href="#Verdana-66"/>
      <use x="470.556640625" xlink:href="#Verdana-69"/>
      <use x="497.998046875" xlink:href="#Verdana-6c"/>
      <use x="525.439453125" xlink:href="#Verdana-65"/>
      <use x="585.009765625" xlink:href="#Verdana-20"/>
      <use x="620.166015625" xlink:href="#Verdana-54"/>
      <use x="674.412109375" xlink:href="#Verdana-2d"/>
      <use x="719.822265625" xlink:href="#Verdana-30"/>
      <use x="783.396484375" xlink:href="#Verdana-2e"/>
      <use x="819.7734375" xlink:href="#Verdana-30"/>
      <use x="883.34765625" xlink:href="#Verdana-30"/>
      <use x="946.921875" xlink:href="#Verdana-31"/>
      <use x="1010.49609375" xlink:href="#Verdana-30"/>
      <use x="1074.0703125" xlink:href="#Verdana-30"/>
      <use x="1137.64453125" xlink:href="#Verdana-30"/>
      <use x="1201.21875" xlink:href="#Verdana-30"/>
     </g>
    </g>
   </g>
   <g id="patch_3">
    <path d="
M72 388.8
L518.4 388.8" style="fill:none;stroke:#000000;"/>
   </g>
   <g id="patch_4">
    <path d="
M518.4 388.8
L518.4 43.2" style="fill:none;stroke:#000000;"/>
   </g>
   <g id="patch_5">
    <path d="
M72 388.8
L72 43.2" style="fill:none;stroke:#000000;"/>
   </g>
   <g id="patch_6">
    <path d="
M72 43.2
L518.4 43.2" style="fill:none;stroke:#000000;"/>
   </g>
   <g id="text_19">
    <!-- EggHolder Data Profile T-0.0010000 -->
    <defs>
     <path d="
M65.375 0
L55.7188 0
L55.7188 35.5938
L19.4375 35.5938
L19.4375 0
L9.76562 0
L9.76562 72.7031
L19.4375 72.7031
L19.4375 44.1875
L55.7188 44.1875
L55.7188 72.7031
L65.375 72.7031
z
" id="Verdana-48"/>
     <path d="
M53.2656 0
L44.0938 0
L44.0938 5.71875
Q40.1406 2.29688 35.8438 0.390625
Q31.5469 -1.51562 26.5156 -1.51562
Q16.75 -1.51562 11.0156 6
Q5.28125 13.5312 5.28125 26.8594
Q5.28125 33.7969 7.25 39.2031
Q9.23438 44.625 12.5938 48.4375
Q15.9219 52.1562 20.3281 54.1094
Q24.75 56.0625 29.5 56.0625
Q33.7969 56.0625 37.1094 55.1562
Q40.4375 54.25 44.0938 52.3438
L44.0938 75.9844
L53.2656 75.9844
z

M44.0938 13.4219
L44.0938 44.7344
Q40.375 46.3906 37.4375 47.0156
Q34.5156 47.6562 31.0625 47.6562
Q23.3438 47.6562 19.0469 42.2812
Q14.75 36.9219 14.75 27.0469
Q14.75 17.3281 18.0625 12.2812
Q21.3906 7.23438 28.7188 7.23438
Q32.625 7.23438 36.625 8.95312
Q40.625 10.6875 44.0938 13.4219" id="Verdana-64"/>
     <path d="
M53.2656 6.20312
Q53.2656 -7.67188 46.9688 -14.1562
Q40.6719 -20.6562 27.5938 -20.6562
Q23.25 -20.6562 19.1094 -20.0469
Q14.9844 -19.4375 10.9844 -18.3125
L10.9844 -8.9375
L11.4688 -8.9375
Q13.7188 -9.8125 18.5938 -11.1094
Q23.4844 -12.4062 28.375 -12.4062
Q33.0625 -12.4062 36.125 -11.2812
Q39.2031 -10.1562 40.9219 -8.15625
Q42.625 -6.25 43.3594 -3.5625
Q44.0938 -0.875 44.0938 2.4375
L44.0938 7.42188
Q39.9375 4.10938 36.1562 2.46875
Q32.375 0.828125 26.5156 0.828125
Q16.75 0.828125 11.0156 7.875
Q5.28125 14.9375 5.28125 27.7812
Q5.28125 34.8125 7.25 39.9062
Q9.23438 45.0156 12.6406 48.7344
Q15.8281 52.2031 20.3594 54.125
Q24.9062 56.0625 29.3906 56.0625
Q34.125 56.0625 37.3281 55.1094
Q40.5312 54.1562 44.0938 52.2031
L44.6719 54.5469
L53.2656 54.5469
z

M44.0938 14.9844
L44.0938 44.7344
Q40.4375 46.3906 37.2812 47.0938
Q34.125 47.7969 31 47.7969
Q23.4375 47.7969 19.0938 42.7188
Q14.75 37.6406 14.75 27.9844
Q14.75 18.7969 17.9688 14.0625
Q21.1875 9.32812 28.6562 9.32812
Q32.6719 9.32812 36.6875 10.8594
Q40.7188 12.4062 44.0938 14.9844" id="Verdana-67"/>
     <path d="
M57.6719 0
L9.76562 0
L9.76562 72.7031
L57.6719 72.7031
L57.6719 64.1094
L19.4375 64.1094
L19.4375 44.1875
L57.6719 44.1875
L57.6719 35.5938
L19.4375 35.5938
L19.4375 8.59375
L57.6719 8.59375
z
" id="Verdana-45"/>
    </defs>
    <g transform="translate(164.9475 38.2)scale(0.144 -0.144)">
     <use xlink:href="#Verdana-45"/>
     <use x="63.232421875" xlink:href="#Verdana-67"/>
     <use x="125.537109375" xlink:href="#Verdana-67"/>
     <use x="187.841796875" xlink:href="#Verdana-48"/>
     <use x="262.98828125" xlink:href="#Verdana-6f"/>
     <use x="323.681640625" xlink:href="#Verdana-6c"/>
     <use x="351.123046875" xlink:href="#Verdana-64"/>
     <use x="413.427734375" xlink:href="#Verdana-65"/>
     <use x="472.998046875" xlink:href="#Verdana-72"/>
     <use x="515.673828125" xlink:href="#Verdana-20"/>
     <use x="550.830078125" xlink:href="#Verdana-44"/>
     <use x="627.880859375" xlink:href="#Verdana-61"/>
     <use x="687.939453125" xlink:href="#Verdana-74"/>
     <use x="727.34375" xlink:href="#Verdana-61"/>
     <use x="787.40234375" xlink:href="#Verdana-20"/>
     <use x="822.55859375" xlink:href="#Verdana-50"/>
     <use x="882.861328125" xlink:href="#Verdana-72"/>
     <use x="925.537109375" xlink:href="#Verdana-6f"/>
     <use x="986.23046875" xlink:href="#Verdana-66"/>
     <use x="1021.38671875" xlink:href="#Verdana-69"/>
     <use x="1048.828125" xlink:href="#Verdana-6c"/>
     <use x="1076.26953125" xlink:href="#Verdana-65"/>
     <use x="1135.83984375" xlink:href="#Verdana-20"/>
     <use x="1170.99609375" xlink:href="#Verdana-54"/>
     <use x="1225.2421875" xlink:href="#Verdana-2d"/>
     <use x="1270.65234375" xlink:href="#Verdana-30"/>
     <use x="1334.2265625" xlink:href="#Verdana-2e"/>
     <use x="1370.603515625" xlink:href="#Verdana-30"/>
     <use x="1434.177734375" xlink:href="#Verdana-30"/>
     <use x="1497.751953125" xlink:href="#Verdana-31"/>
     <use x="1561.326171875" xlink:href="#Verdana-30"/>
     <use x="1624.900390625" xlink:href="#Verdana-30"/>
     <use x="1688.474609375" xlink:href="#Verdana-30"/>
     <use x="1752.048828125" xlink:href="#Verdana-30"/>
    </g>
   </g>
   <g id="legend_1">
    <g id="patch_7">
     <path d="
M79.2 159.919
L183.22 159.919
L183.22 50.4
L79.2 50.4
L79.2 159.919
z
" style="fill:#ffffff;stroke:#000000;"/>
    </g>
    <g id="line2d_38">
     <path d="
M89.28 62.0617
L109.44 62.0617" style="fill:none;stroke:#0000ff;stroke-dasharray:6.000000,2.000000;stroke-dashoffset:0.0;"/>
    </g>
    <g id="line2d_39"/>
    <g id="text_20">
     <!-- AMPGO -->
     <defs>
      <path d="
M67.0938 0
L56.7812 0
L49.6562 20.2656
L18.2188 20.2656
L11.0781 0
L1.26562 0
L27.7344 72.7031
L40.625 72.7031
z

M46.6875 28.5625
L33.9375 64.2656
L21.1406 28.5625
z
" id="Verdana-41"/>
      <path d="
M74.5156 0
L64.8438 0
L64.8438 62.6406
L44.625 20.0156
L38.875 20.0156
L18.7969 62.6406
L18.7969 0
L9.76562 0
L9.76562 72.7031
L22.9531 72.7031
L42.3281 32.2344
L61.0781 72.7031
L74.5156 72.7031
z
" id="Verdana-4d"/>
      <path d="
M70.4062 5.375
Q64.4531 2.64062 57.3906 0.609375
Q50.3438 -1.42188 43.75 -1.42188
Q35.25 -1.42188 28.1719 0.921875
Q21.0938 3.26562 16.1094 7.95312
Q11.0781 12.7031 8.34375 19.7969
Q5.60938 26.9062 5.60938 36.4219
Q5.60938 53.8594 15.7969 63.9375
Q25.9844 74.0312 43.75 74.0312
Q49.9531 74.0312 56.4219 72.5312
Q62.8906 71.0469 70.3594 67.4844
L70.3594 56
L69.4844 56
Q67.9688 57.1719 65.0781 59.0781
Q62.2031 60.9844 59.4219 62.25
Q56.0625 63.7656 51.7812 64.7656
Q47.5156 65.7656 42.0938 65.7656
Q29.8906 65.7656 22.7812 57.9219
Q15.6719 50.0938 15.6719 36.7188
Q15.6719 22.6094 23.0938 14.7656
Q30.5156 6.9375 43.3125 6.9375
Q48 6.9375 52.6562 7.85938
Q57.3281 8.79688 60.8438 10.25
L60.8438 28.0781
L41.3594 28.0781
L41.3594 36.5781
L70.4062 36.5781
z
" id="Verdana-47"/>
     </defs>
     <g transform="translate(125.28 67.10175)scale(0.144 -0.144)">
      <use xlink:href="#Verdana-41"/>
      <use x="68.359375" xlink:href="#Verdana-4d"/>
      <use x="152.63671875" xlink:href="#Verdana-50"/>
      <use x="212.939453125" xlink:href="#Verdana-47"/>
      <use x="290.478515625" xlink:href="#Verdana-4f"/>
     </g>
    </g>
    <g id="line2d_40">
     <path d="
M89.28 83.1015
L109.44 83.1015" style="fill:none;stroke:#008000;stroke-dasharray:1.000000,1.000000;stroke-dashoffset:0.0;"/>
    </g>
    <g id="line2d_41"/>
    <g id="text_21">
     <!-- Anneal -->
     <g transform="translate(125.28 88.1415)scale(0.144 -0.144)">
      <use xlink:href="#Verdana-41"/>
      <use x="68.359375" xlink:href="#Verdana-6e"/>
      <use x="131.640625" xlink:href="#Verdana-6e"/>
      <use x="194.921875" xlink:href="#Verdana-65"/>
      <use x="254.4921875" xlink:href="#Verdana-61"/>
      <use x="314.55078125" xlink:href="#Verdana-6c"/>
     </g>
    </g>
    <g id="line2d_42">
     <path d="
M89.28 104.141
L109.44 104.141" style="fill:none;stroke:#ff0000;stroke-dasharray:3.000000,6.000000;stroke-dashoffset:0.0;"/>
    </g>
    <g id="line2d_43"/>
    <g id="text_22">
     <!-- BSA -->
     <defs>
      <path d="
M64.5938 22.3594
Q64.5938 16.9375 62.5469 12.7812
Q60.5 8.64062 57.0312 5.95312
Q52.9375 2.73438 48.0156 1.35938
Q43.1094 0 35.5469 0
L9.76562 0
L9.76562 72.7031
L31.2969 72.7031
Q39.2656 72.7031 43.2188 72.1094
Q47.1719 71.5312 50.7812 69.6719
Q54.7812 67.5781 56.5938 64.2812
Q58.4062 60.9844 58.4062 56.3906
Q58.4062 51.2188 55.7656 47.5781
Q53.125 43.9531 48.7344 41.75
L48.7344 41.3594
Q56.1094 39.8438 60.3438 34.8906
Q64.5938 29.9375 64.5938 22.3594
M48.3438 55.125
Q48.3438 57.7656 47.4531 59.5625
Q46.5781 61.375 44.625 62.5
Q42.3281 63.8125 39.0625 64.125
Q35.7969 64.4531 30.9531 64.4531
L19.4375 64.4531
L19.4375 43.4531
L31.9375 43.4531
Q36.4688 43.4531 39.1562 43.9219
Q41.8438 44.3906 44.1406 45.8438
Q46.4375 47.3125 47.3906 49.625
Q48.3438 51.9531 48.3438 55.125
M54.5469 21.9688
Q54.5469 26.375 53.2188 28.9531
Q51.9062 31.5469 48.4375 33.3438
Q46.0938 34.5781 42.75 34.9375
Q39.4062 35.2969 34.625 35.2969
L19.4375 35.2969
L19.4375 8.25
L32.2344 8.25
Q38.5781 8.25 42.625 8.90625
Q46.6875 9.57812 49.2656 11.3281
Q52 13.2344 53.2656 15.6719
Q54.5469 18.1094 54.5469 21.9688" id="Verdana-42"/>
      <path d="
M62.5938 20.75
Q62.5938 16.5 60.6094 12.3438
Q58.6406 8.20312 55.0781 5.32812
Q51.1719 2.20312 45.9688 0.4375
Q40.7656 -1.3125 33.4531 -1.3125
Q25.5938 -1.3125 19.3125 0.140625
Q13.0312 1.60938 6.54688 4.5
L6.54688 16.6094
L7.23438 16.6094
Q12.75 12.0156 19.9688 9.51562
Q27.2031 7.03125 33.5469 7.03125
Q42.5312 7.03125 47.5312 10.3906
Q52.5469 13.7656 52.5469 19.3906
Q52.5469 24.2188 50.1719 26.5156
Q47.7969 28.8125 42.9688 30.0781
Q39.3125 31.0625 35.0312 31.6875
Q30.7656 32.3281 25.9844 33.2969
Q16.3125 35.3594 11.6406 40.3125
Q6.98438 45.2656 6.98438 53.2188
Q6.98438 62.3594 14.6875 68.1875
Q22.4062 74.0312 34.2812 74.0312
Q41.9375 74.0312 48.3281 72.5625
Q54.7344 71.0938 59.6719 68.9531
L59.6719 57.5156
L58.9844 57.5156
Q54.8281 61.0312 48.0625 63.3438
Q41.3125 65.6719 34.2344 65.6719
Q26.4688 65.6719 21.75 62.4531
Q17.0469 59.2344 17.0469 54.1562
Q17.0469 49.6094 19.3906 47.0156
Q21.7344 44.4375 27.6406 43.0625
Q30.7656 42.3906 36.5156 41.4062
Q42.2812 40.4375 46.2969 39.4062
Q54.3906 37.25 58.4844 32.9062
Q62.5938 28.5625 62.5938 20.75" id="Verdana-53"/>
     </defs>
     <g transform="translate(125.28 109.18125)scale(0.144 -0.144)">
      <use xlink:href="#Verdana-42"/>
      <use x="68.5546875" xlink:href="#Verdana-53"/>
      <use x="135.9140625" xlink:href="#Verdana-41"/>
     </g>
    </g>
    <g id="line2d_44">
     <path d="
M89.28 125.181
L109.44 125.181" style="fill:none;stroke:#00bfbf;stroke-dasharray:5.000000,1.000000,2.000000,1.000000,5.000000,1.000000;stroke-dashoffset:0.0;"/>
    </g>
    <g id="line2d_45"/>
    <g id="text_23">
     <!-- Cuckoo -->
     <defs>
      <path d="
M58.5469 0
L46.4375 0
L24.5625 23.875
L18.6094 18.2188
L18.6094 0
L9.42188 0
L9.42188 75.9844
L18.6094 75.9844
L18.6094 27.25
L45.125 54.5469
L56.6875 54.5469
L31.3438 29.3438
z
" id="Verdana-6b"/>
      <path d="
M65.9219 5.28125
Q63.2344 4.10938 61.0625 3.07812
Q58.8906 2.04688 55.375 0.921875
Q52.3906 0 48.8906 -0.65625
Q45.4062 -1.3125 41.2188 -1.3125
Q33.2969 -1.3125 26.8281 0.90625
Q20.3594 3.125 15.5781 7.85938
Q10.8906 12.5 8.25 19.6562
Q5.60938 26.8125 5.60938 36.2812
Q5.60938 45.2656 8.14062 52.3438
Q10.6875 59.4219 15.4844 64.3125
Q20.125 69.0469 26.6875 71.5312
Q33.25 74.0312 41.2656 74.0312
Q47.125 74.0312 52.9531 72.6094
Q58.7969 71.1875 65.9219 67.625
L65.9219 56.1562
L65.1875 56.1562
Q59.1875 61.1875 53.2656 63.4688
Q47.3594 65.7656 40.625 65.7656
Q35.1094 65.7656 30.6875 63.9844
Q26.2656 62.2031 22.7969 58.4531
Q19.4375 54.7812 17.5469 49.1875
Q15.6719 43.6094 15.6719 36.2812
Q15.6719 28.6094 17.75 23.0938
Q19.8281 17.5781 23.0938 14.1094
Q26.5156 10.5 31.0781 8.76562
Q35.6406 7.03125 40.7188 7.03125
Q47.7031 7.03125 53.7969 9.42188
Q59.9062 11.8125 65.2344 16.6094
L65.9219 16.6094
z
" id="Verdana-43"/>
     </defs>
     <g transform="translate(125.28 130.221)scale(0.144 -0.144)">
      <use xlink:href="#Verdana-43"/>
      <use x="69.82421875" xlink:href="#Verdana-75"/>
      <use x="133.10546875" xlink:href="#Verdana-63"/>
      <use x="185.205078125" xlink:href="#Verdana-6b"/>
      <use x="243.384765625" xlink:href="#Verdana-6f"/>
      <use x="304.078125" xlink:href="#Verdana-6f"/>
     </g>
    </g>
    <g id="line2d_46">
     <path d="
M89.28 146.221
L109.44 146.221" style="fill:none;stroke:#bf00bf;stroke-linecap:square;"/>
    </g>
    <g id="line2d_47"/>
    <g id="text_24">
     <!-- qABC -->
     <defs>
      <path d="
M53.2656 -20.125
L44.0938 -20.125
L44.0938 6.15625
Q39.8438 2.48438 35.6406 0.703125
Q31.4531 -1.07812 26.5625 -1.07812
Q16.8438 -1.07812 11.0625 6.42188
Q5.28125 13.9219 5.28125 27.0938
Q5.28125 34.125 7.29688 39.5156
Q9.32812 44.9219 12.6406 48.5781
Q15.875 52.1562 20.2188 54.1094
Q24.5625 56.0625 29.3906 56.0625
Q33.7969 56.0625 37.1875 55.0781
Q40.5781 54.1094 44.0938 52.2031
L44.6719 54.5469
L53.2656 54.5469
z

M44.0938 13.875
L44.0938 44.7344
Q40.2812 46.4375 37.3438 47.1094
Q34.4219 47.7969 31 47.7969
Q23.0469 47.7969 18.8906 42.4062
Q14.75 37.0156 14.75 27.5469
Q14.75 17.9688 18.0938 12.8125
Q21.4375 7.67188 28.6094 7.67188
Q32.625 7.67188 36.625 9.40625
Q40.625 11.1406 44.0938 13.875" id="Verdana-71"/>
     </defs>
     <g transform="translate(125.28 151.26075)scale(0.144 -0.144)">
      <use xlink:href="#Verdana-71"/>
      <use x="62.3046875" xlink:href="#Verdana-41"/>
      <use x="130.6640625" xlink:href="#Verdana-42"/>
      <use x="199.21875" xlink:href="#Verdana-43"/>
     </g>
    </g>
   </g>
  </g>
 </g>
 <defs>
  <clipPath id="p7ff5b81e1d">
   <rect height="345.6" width="446.4" x="72.0" y="43.2"/>
  </clipPath>
 </defs>
</svg>
