<?xml version="1.0" encoding="utf-8" standalone="no"?>
<!DOCTYPE svg PUBLIC "-//W3C//DTD SVG 1.1//EN"
  "http://www.w3.org/Graphics/SVG/1.1/DTD/svg11.dtd">
<!-- Created with matplotlib (http://matplotlib.org/) -->
<svg height="432pt" version="1.1" viewBox="0 0 576 432" width="576pt" xmlns="http://www.w3.org/2000/svg" xmlns:xlink="http://www.w3.org/1999/xlink">
 <defs>
  <style type="text/css">
*{stroke-linecap:butt;stroke-linejoin:round;}
  </style>
 </defs>
 <g id="figure_1">
  <g id="patch_1">
   <path d="
M0 432
L576 432
L576 0
L0 0
z
" style="fill:#ffffff;"/>
  </g>
  <g id="axes_1">
   <g id="patch_2">
    <path d="
M72 388.8
L518.4 388.8
L518.4 43.2
L72 43.2
z
" style="fill:#ffffff;"/>
   </g>
   <g id="line2d_1">
    <path clip-path="url(#p7ff5b81e1d)" d="
M72 388.8
L518.311 388.8
L518.311 388.8" style="fill:none;stroke:#0000ff;stroke-dasharray:6.000000,2.000000;stroke-dashoffset:0.0;"/>
   </g>
   <g id="line2d_2">
    <path clip-path="url(#p7ff5b81e1d)" d="
M72 388.8
L129.943 388.8
L130.121 388.11
L130.3 388.11
L130.478 387.42
L132.71 387.42
L132.889 388.11
L134.139 388.11
L134.317 387.42
L135.3 387.42
L135.478 388.11
L135.657 387.42
L135.835 388.11
L149.941 388.11
L150.12 387.42
L150.566 387.42
L150.745 386.731
L153.156 386.731
L153.334 386.041
L153.691 386.041
L153.87 385.351
L154.316 385.351
L154.673 383.281
L154.852 383.281
L155.03 386.041
L156.191 386.041
L156.37 385.351
L156.637 385.351
L157.084 382.592
L157.62 382.592
L157.798 383.971
L157.887 383.971
L158.155 382.592
L158.334 382.592
L158.512 386.041
L158.78 386.041
L158.959 385.351
L160.834 385.351
L161.012 384.661
L162.619 384.661
L162.798 385.351
L162.976 385.351
L163.155 384.661
L163.78 384.661
L163.958 383.971
L164.137 383.971
L164.316 383.281
L164.673 383.281
L164.762 382.592
L164.94 385.351
L165.119 385.351
L165.298 384.661
L165.476 384.661
L165.655 383.971
L165.744 383.971
L165.833 384.661
L166.012 383.971
L166.19 383.971
L166.458 382.592
L166.815 382.592
L167.083 381.212
L167.172 381.212
L167.351 381.902
L167.44 381.902
L167.619 381.212
L167.708 381.212
L167.887 382.592
L168.69 382.592
L168.869 381.212
L169.137 381.212
L169.315 380.522
L169.851 380.522
L170.029 379.832
L170.119 379.832
L170.297 379.143
L170.387 379.832
L170.654 378.453
L170.744 378.453
L170.922 388.11
L172.172 388.11
L172.351 387.42
L172.708 387.42
L172.886 386.041
L173.065 386.731
L173.154 386.731
L173.333 386.041
L174.047 386.041
L174.136 386.731
L174.315 386.041
L174.404 386.041
L174.672 384.661
L175.118 384.661
L175.297 385.351
L175.476 385.351
L175.565 384.661
L175.743 385.351
L176.1 385.351
L176.279 383.971
L176.458 386.731
L176.725 386.731
L176.904 386.041
L177.172 386.041
L177.35 385.351
L177.44 385.351
L177.529 387.42
L177.797 386.041
L178.243 386.041
L178.422 386.731
L178.957 386.731
L179.136 386.041
L179.225 386.041
L179.404 386.731
L179.94 386.731
L180.118 386.041
L180.386 386.041
L180.564 385.351
L181.725 385.351
L181.993 383.971
L182.439 383.971
L182.618 383.281
L184.225 383.281
L184.404 382.592
L186.278 382.592
L186.636 380.522
L187.618 380.522
L187.796 379.832
L188.689 379.832
L188.868 379.143
L189.046 379.143
L189.225 377.073
L189.403 377.073
L189.582 376.383
L189.76 377.763
L189.939 377.763
L190.296 375.693
L190.475 377.073
L190.564 377.073
L190.832 375.693
L190.921 375.693
L191.1 375.004
L191.189 375.004
L191.367 375.693
L191.635 374.314
L191.724 374.314
L191.814 373.624
L191.903 377.763
L191.992 377.073
L192.171 379.143
L192.439 377.763
L192.617 377.763
L193.153 374.314
L194.403 374.314
L194.581 373.624
L194.76 373.624
L194.939 380.522
L195.385 380.522
L195.564 379.832
L195.742 379.832
L195.921 380.522
L196.278 378.453
L197.349 378.453
L197.438 379.143
L197.617 378.453
L198.063 378.453
L198.331 377.073
L199.938 377.073
L200.385 374.314
L200.474 374.314
L200.831 372.244
L201.01 372.244
L201.367 370.175
L201.545 370.175
L201.724 369.485
L201.813 369.485
L201.992 370.865
L202.081 370.865
L202.26 370.175
L202.349 372.934
L202.706 370.865
L203.152 370.865
L203.509 368.795
L203.599 368.795
L203.688 368.105
L203.867 372.934
L203.956 372.934
L204.134 370.865
L204.492 370.865
L204.759 369.485
L204.938 369.485
L205.116 368.105
L205.295 368.105
L205.474 370.865
L205.563 370.865
L206.277 366.036
L206.366 366.036
L206.545 364.656
L206.813 363.277
L207.17 363.277
L207.438 361.897
L207.616 361.897
L207.884 360.517
L207.973 360.517
L208.063 370.865
L208.152 370.175
L208.331 370.175
L208.509 369.485
L208.688 369.485
L208.866 368.795
L209.045 368.795
L209.223 367.416
L209.491 366.036
L209.58 366.036
L209.67 365.346
L209.848 367.416
L210.027 367.416
L210.205 368.795
L210.384 366.726
L210.741 366.726
L211.009 364.656
L211.188 365.346
L211.545 365.346
L211.991 362.587
L212.08 369.485
L212.17 368.105
L212.259 368.105
L212.973 362.587
L213.152 363.966
L213.241 363.966
L213.42 361.207
L213.866 358.448
L214.044 358.448
L214.402 356.378
L214.491 356.378
L214.58 357.068
L214.759 356.378
L214.848 356.378
L215.027 355.689
L215.205 355.689
L215.562 353.619
L216.187 353.619
L216.455 352.24
L216.544 352.24
L216.723 350.86
L216.812 352.24
L216.991 351.55
L217.08 351.55
L217.259 350.86
L217.526 350.86
L217.705 351.55
L217.884 351.55
L218.062 355.689
L218.419 353.619
L218.776 353.619
L219.401 349.48
L219.937 349.48
L220.294 345.341
L220.383 345.341
L220.74 343.272
L220.919 343.272
L221.098 341.892
L221.187 344.651
L221.723 341.202
L221.812 341.202
L222.08 339.823
L222.169 339.823
L222.258 339.133
L222.437 339.823
L222.615 337.753
L223.24 333.614
L223.419 334.994
L223.597 332.235
L223.955 330.165
L224.044 330.165
L224.312 328.786
L224.49 328.786
L225.204 322.577
L225.472 319.818
L225.562 319.128
L225.74 316.369
L226.187 316.369
L226.633 312.92
L226.722 320.508
L226.812 319.818
L227.079 318.438
L227.258 325.337
L227.526 321.198
L227.704 321.198
L228.24 317.749
L228.329 318.438
L228.508 316.369
L228.597 316.369
L228.954 314.299
L229.044 314.299
L229.311 311.54
L229.49 312.92
L229.668 312.92
L229.847 310.85
L230.115 308.091
L230.293 306.022
L230.472 307.401
L230.74 303.262
L230.829 303.262
L231.008 302.572
L231.097 302.572
L231.811 297.744
L231.9 297.744
L232.079 297.054
L232.168 297.054
L232.258 299.813
L232.793 296.364
L232.972 299.123
L233.508 295.674
L233.775 295.674
L233.954 293.605
L234.132 293.605
L234.311 291.535
L234.668 291.535
L235.472 284.637
L235.65 289.466
L235.829 288.086
L236.186 284.637
L236.364 283.257
L236.454 283.257
L236.543 282.568
L236.632 286.017
L236.722 285.327
L237.079 285.327
L237.257 283.947
L237.347 283.947
L237.436 288.086
L237.525 287.396
L237.614 286.707
L237.793 284.637
L237.972 283.257
L238.596 277.739
L238.686 281.188
L238.864 279.808
L239.043 279.808
L239.221 279.119
L239.311 279.119
L239.579 276.359
L239.757 276.359
L240.114 272.91
L240.293 274.29
L240.382 273.6
L240.471 274.98
L241.275 269.461
L241.453 269.461
L241.543 270.151
L241.721 269.461
L241.811 271.531
L242.882 263.943
L242.971 263.943
L243.15 263.253
L243.328 263.253
L243.507 261.873
L243.685 261.873
L243.864 261.183
L244.043 261.183
L244.221 259.804
L244.489 259.804
L244.846 257.734
L244.935 257.734
L245.203 253.595
L245.292 259.804
L245.382 258.424
L245.56 257.734
L245.65 257.734
L245.739 257.044
L245.917 254.285
L246.096 253.595
L246.275 254.975
L246.9 249.456
L247.257 245.317
L247.524 242.558
L247.703 256.354
L247.882 254.975
L248.06 254.975
L248.328 250.836
L248.417 252.216
L248.507 251.526
L248.685 248.766
L248.953 245.317
L249.042 245.317
L249.221 244.628
L249.31 244.628
L249.489 243.938
L249.667 243.938
L249.846 243.248
L250.114 243.248
L250.471 239.799
L250.56 247.387
L250.649 246.697
L250.917 246.697
L251.006 246.007
L251.185 243.248
L251.453 240.489
L251.81 236.35
L251.899 236.35
L252.256 232.211
L252.435 231.521
L252.524 231.521
L252.881 229.451
L252.971 229.451
L253.149 228.762
L253.238 228.762
L253.417 226.692
L253.506 226.692
L253.863 224.623
L254.131 224.623
L254.31 223.933
L254.399 223.933
L254.488 223.243
L254.667 219.794
L254.756 219.794
L254.935 218.414
L255.292 218.414
L255.738 214.275
L255.917 211.516
L256.363 211.516
L256.542 210.137
L256.988 206.687
L257.167 204.618
L257.256 204.618
L257.345 203.928
L257.613 199.789
L257.702 201.169
L258.952 190.822
L259.042 194.96
L259.131 194.271
L259.399 194.271
L260.202 188.752
L260.292 188.752
L260.649 185.303
L260.827 183.234
L261.006 183.234
L261.184 181.164
L261.541 181.164
L261.988 178.405
L262.077 179.784
L262.345 177.025
L262.613 177.025
L262.97 174.956
L263.148 174.956
L263.327 170.127
L263.416 170.127
L263.595 169.437
L263.773 169.437
L265.023 160.469
L265.113 160.469
L265.291 159.78
L265.38 159.78
L265.47 161.159
L265.648 159.09
L265.827 163.229
L265.916 163.229
L266.363 160.469
L266.452 160.469
L266.63 159.09
L266.809 157.02
L266.988 157.02
L267.255 155.641
L267.345 155.641
L267.523 153.571
L267.612 153.571
L267.88 152.192
L268.059 152.192
L268.416 150.122
L268.595 161.849
L268.684 161.849
L268.862 161.159
L268.952 161.159
L269.22 157.71
L269.309 157.71
L269.487 155.641
L269.577 155.641
L269.934 153.571
L270.023 153.571
L270.202 152.192
L270.291 151.502
L270.469 152.192
L271.094 148.053
L271.184 148.053
L271.452 146.673
L271.809 146.673
L271.898 148.053
L272.076 147.363
L272.166 147.363
L272.523 145.293
L272.612 145.293
L272.701 144.604
L272.88 142.534
L272.969 142.534
L273.148 141.844
L273.416 141.844
L274.487 134.256
L274.576 134.256
L274.755 133.566
L274.844 133.566
L275.112 129.428
L275.38 128.048
L275.737 128.048
L275.916 125.978
L276.005 125.978
L276.183 125.289
L276.362 125.978
L276.719 125.978
L276.898 124.599
L277.076 124.599
L277.344 123.219
L277.79 123.219
L277.969 121.84
L278.148 121.84
L278.326 120.46
L278.505 120.46
L278.683 119.77
L278.862 119.77
L279.04 119.08
L279.13 119.08
L279.397 117.701
L279.665 117.701
L279.933 116.321
L280.38 116.321
L280.558 113.562
L280.826 112.182
L281.004 112.182
L281.183 111.492
L281.987 111.492
L282.433 108.733
L282.701 108.733
L282.879 108.043
L283.504 108.043
L283.683 106.663
L283.861 104.594
L284.04 103.904
L284.219 104.594
L284.754 104.594
L285.111 102.525
L285.201 105.974
L285.29 105.284
L285.379 105.284
L285.915 101.835
L286.183 101.835
L286.54 99.7653
L286.629 99.7653
L286.897 98.3856
L287.165 98.3856
L287.343 97.006
L287.522 97.6958
L287.7 96.3162
L287.879 95.6263
L288.504 95.6263
L288.593 96.3162
L288.861 94.9365
L289.218 94.9365
L289.397 94.2467
L289.575 94.2467
L290.111 90.7976
L290.29 90.7976
L290.468 90.1078
L290.736 90.1078
L290.915 89.418
L291.54 89.418
L291.718 88.7281
L291.897 88.7281
L292.164 87.3485
L292.7 87.3485
L292.879 86.6587
L292.968 86.6587
L293.147 85.9689
L293.236 86.6587
L293.414 85.9689
L294.218 85.9689
L294.396 85.279
L294.575 85.279
L294.664 86.6587
L294.843 85.9689
L295.021 85.9689
L295.289 84.5892
L296.182 84.5892
L296.271 85.279
L296.45 84.5892
L296.628 84.5892
L296.896 83.2096
L297.075 83.2096
L297.253 81.8299
L297.521 80.4503
L298.236 80.4503
L298.503 79.0707
L299.218 79.0707
L299.485 77.691
L299.664 77.691
L299.932 76.3114
L300.2 76.3114
L300.378 75.6216
L300.735 75.6216
L300.914 74.9317
L301.271 74.9317
L301.717 72.1725
L301.985 72.1725
L302.164 71.4826
L302.253 71.4826
L302.432 70.103
L302.789 68.0335
L303.146 68.0335
L303.503 65.9641
L303.592 65.9641
L303.771 65.2743
L304.039 65.2743
L304.217 64.5844
L304.842 64.5844
L305.021 63.8946
L305.824 63.8946
L306.092 62.515
L306.628 62.515
L306.806 61.8251
L307.164 61.8251
L307.342 61.1353
L308.771 61.1353
L308.949 60.4455
L310.467 60.4455
L310.645 59.7557
L310.913 59.7557
L311.092 59.0659
L311.36 59.0659
L311.538 58.376
L311.895 58.376
L312.074 57.6862
L312.788 57.6862
L312.967 56.9964
L313.413 56.9964
L313.592 56.3066
L315.02 56.3066
L315.199 55.6168
L315.556 55.6168
L315.734 54.9269
L315.824 54.9269
L316.002 54.2371
L317.074 54.2371
L317.252 53.5473
L317.966 53.5473
L318.145 54.2371
L318.681 54.2371
L318.859 53.5473
L319.127 53.5473
L319.306 52.8575
L319.841 52.8575
L320.02 52.1677
L320.198 52.1677
L320.377 51.4778
L325.555 51.4778
L325.734 50.788
L337.34 50.788
L337.519 50.0982
L341.268 50.0982
L341.447 49.4084
L341.715 49.4084
L341.893 48.7186
L344.393 48.7186
L344.572 48.0287
L345.018 48.0287
L345.197 47.3389
L346.447 47.3389
L346.625 46.6491
L357.607 46.6491
L357.785 45.9593
L357.875 45.9593
L358.053 45.2695
L371.177 45.2695
L371.356 44.5796
L383.587 44.5796
L383.766 43.8898
L402.515 43.8898
L402.693 43.2
L518.311 43.2
L518.311 43.2" style="fill:none;stroke:#008000;stroke-dasharray:1.000000,1.000000;stroke-dashoffset:0.0;"/>
   </g>
   <g id="line2d_3">
    <path clip-path="url(#p7ff5b81e1d)" d="
M72 388.8
L72.0893 388.8
L72.2678 388.11
L72.625 388.11
L72.8035 388.8
L72.9821 388.8
L73.1606 388.11
L73.6963 388.11
L73.8749 387.42
L74.0534 388.11
L74.4998 388.11
L74.5891 387.42
L74.7677 388.11
L75.4819 388.11
L75.6605 388.8
L84.9456 388.8
L85.1242 388.11
L86.6419 388.11
L86.8205 388.8
L92.088 388.8
L92.2666 388.11
L135.3 388.11
L135.478 388.8
L518.311 388.8
L518.311 388.8" style="fill:none;stroke:#ff0000;stroke-dasharray:3.000000,6.000000;stroke-dashoffset:0.0;"/>
   </g>
   <g id="line2d_4">
    <path clip-path="url(#p7ff5b81e1d)" d="
M72 388.43
L72.0893 388.8
L72.1786 388.8
L72.625 388.8
L72.8035 388.43
L73.6963 388.43
L73.8749 388.8
L75.4819 388.8
L75.6605 388.43
L82.8029 388.43
L82.9814 388.059
L84.1421 388.059
L84.3206 388.43
L84.9456 388.43
L85.1242 388.8
L86.6419 388.8
L86.8205 388.43
L92.088 388.43
L92.2666 388.8
L97.9805 388.8
L98.159 388.43
L101.552 388.43
L101.73 388.8
L518.311 388.8
L518.311 388.8" style="fill:none;stroke:#00bfbf;stroke-dasharray:5.000000,1.000000,2.000000,1.000000,5.000000,1.000000;stroke-dashoffset:0.0;"/>
   </g>
   <g id="line2d_5">
    <path clip-path="url(#p7ff5b81e1d)" d="
M72 388.8
L72.0893 388.325
L72.2678 388.8
L72.4464 388.325
L72.625 388.325
L72.8035 388.8
L301.092 388.8
L301.271 388.325
L308.771 388.325
L308.949 387.851
L312.877 387.851
L313.056 387.376
L319.306 387.376
L319.484 386.901
L322.966 386.901
L323.145 386.426
L325.823 386.426
L326.002 385.952
L326.627 385.952
L326.805 385.477
L330.287 385.477
L330.466 385.002
L332.787 385.002
L333.144 383.578
L333.68 383.578
L333.858 383.103
L334.037 383.103
L334.305 382.154
L336.269 382.154
L336.537 381.204
L336.715 381.204
L336.894 380.73
L337.162 380.73
L337.519 379.305
L337.608 379.305
L337.787 377.881
L339.84 377.881
L340.019 377.407
L340.108 377.407
L340.286 376.457
L340.554 376.457
L340.733 375.982
L340.911 375.982
L341.09 375.508
L341.179 375.982
L341.358 375.508
L343.411 375.508
L343.59 375.033
L343.768 375.033
L344.036 374.084
L344.393 374.084
L344.572 372.659
L344.75 372.659
L345.018 371.71
L346.893 371.71
L347.161 370.76
L347.34 370.76
L347.518 369.811
L348.054 367.437
L348.232 367.437
L348.589 366.013
L350.554 366.013
L351.357 362.215
L351.536 362.215
L351.982 360.316
L352.161 360.316
L352.339 359.842
L354.125 359.842
L354.303 357.943
L354.571 356.993
L354.75 356.993
L354.928 356.519
L355.018 356.519
L355.553 354.145
L357.964 354.145
L358.142 353.196
L358.946 349.398
L359.035 349.398
L359.124 348.923
L359.303 347.499
L359.482 347.974
L359.749 347.974
L359.928 347.499
L361.178 347.499
L361.446 345.6
L361.535 345.6
L362.16 342.752
L362.428 342.752
L363.053 339.903
L364.749 339.903
L364.928 338.954
L365.106 339.429
L365.374 337.53
L365.553 336.105
L365.731 336.105
L365.999 334.207
L366.267 333.257
L366.445 333.732
L366.803 333.732
L366.981 333.257
L368.32 333.257
L368.588 332.308
L368.677 332.308
L368.856 331.833
L369.124 331.833
L369.392 328.51
L369.749 327.086
L370.017 327.086
L370.195 325.662
L370.374 325.187
L370.999 325.187
L371.177 324.712
L371.892 324.712
L372.606 321.389
L372.695 321.389
L373.856 315.692
L374.124 315.692
L374.302 314.743
L375.463 314.743
L376.088 309.046
L376.266 307.622
L376.445 306.198
L376.534 306.198
L376.802 304.299
L376.891 304.299
L377.159 303.349
L379.034 303.349
L379.123 302.875
L379.302 300.976
L379.48 300.976
L379.57 300.501
L379.748 298.602
L379.927 298.127
L380.016 298.127
L380.284 296.229
L380.373 295.754
L380.552 293.855
L380.82 292.905
L382.159 292.905
L382.337 292.431
L382.516 292.431
L382.605 293.38
L383.052 290.532
L383.23 288.633
L383.409 288.633
L383.587 286.259
L383.676 286.259
L383.766 285.785
L383.944 284.36
L384.034 284.36
L384.391 281.512
L385.641 281.512
L385.819 282.936
L386.176 282.936
L386.266 282.462
L386.444 279.613
L386.801 277.24
L386.98 276.29
L387.069 276.765
L387.337 274.866
L387.426 274.866
L387.516 274.391
L387.694 272.967
L387.962 270.593
L388.944 270.593
L389.123 270.119
L389.212 270.119
L389.39 269.644
L389.569 269.644
L389.748 270.119
L390.194 265.846
L390.283 265.846
L390.908 259.675
L390.997 259.675
L391.265 257.776
L391.533 255.877
L392.426 255.877
L392.604 255.402
L393.319 255.402
L393.676 253.029
L394.033 250.18
L394.479 247.332
L394.747 245.433
L394.836 244.958
L395.015 243.059
L395.194 243.059
L395.372 242.585
L396.622 242.585
L396.801 242.11
L396.89 242.11
L397.336 240.211
L397.426 240.211
L397.604 240.686
L397.872 239.262
L398.051 237.837
L398.229 237.837
L398.676 235.938
L400.104 235.938
L400.193 237.363
L400.372 236.888
L400.55 236.888
L401.443 231.666
L401.711 229.767
L402.247 227.393
L402.693 227.393
L402.872 226.919
L403.586 226.919
L403.764 226.444
L404.211 226.444
L404.657 224.07
L404.836 222.171
L405.193 220.273
L405.372 218.374
L405.55 219.798
L405.818 217.424
L407.604 217.424
L407.961 214.576
L408.318 213.152
L408.407 213.152
L408.586 210.778
L408.764 210.778
L409.121 208.879
L409.3 207.455
L409.478 206.98
L409.568 206.98
L409.746 206.505
L410.014 206.505
L410.193 207.93
L411.175 207.93
L411.621 205.081
L411.8 203.657
L411.889 203.657
L412.335 201.758
L412.425 201.758
L412.514 201.284
L412.692 199.859
L412.782 199.859
L412.96 198.91
L413.139 198.435
L414.478 198.435
L414.657 197.96
L414.835 197.96
L415.371 193.213
L415.639 192.264
L415.817 190.365
L415.996 188.941
L416.085 188.941
L416.442 185.618
L417.424 185.618
L417.603 186.092
L418.317 186.092
L418.764 184.193
L418.853 184.193
L419.031 183.719
L419.121 183.719
L419.478 181.345
L419.656 179.446
L419.746 179.446
L419.924 178.971
L420.103 176.598
L421.531 176.598
L421.71 176.123
L421.888 177.073
L422.067 177.073
L422.335 175.174
L422.513 175.174
L422.781 173.275
L423.049 171.376
L423.138 171.376
L423.317 169.952
L423.585 169.952
L423.763 169.477
L425.192 169.477
L425.37 169.002
L425.817 169.002
L426.084 167.103
L426.352 166.154
L426.62 166.154
L426.799 164.255
L426.888 164.255
L427.334 162.356
L428.584 162.356
L428.763 161.881
L429.031 161.881
L429.12 161.407
L429.299 161.881
L429.388 161.407
L429.566 159.508
L430.013 156.659
L430.191 155.71
L430.638 155.71
L430.816 153.811
L431.352 153.811
L431.531 153.336
L432.156 153.336
L432.334 152.862
L432.959 152.862
L433.227 151.912
L433.495 151.912
L433.763 150.013
L433.852 150.013
L434.209 146.69
L434.298 146.69
L434.477 146.215
L435.102 146.215
L435.28 145.741
L436.173 145.741
L436.441 144.791
L436.53 144.791
L436.887 142.418
L437.244 139.569
L437.602 139.569
L437.78 138.145
L437.869 138.145
L438.048 137.67
L439.744 137.67
L440.101 134.822
L440.28 134.347
L440.637 134.347
L440.994 132.923
L441.173 132.923
L441.53 131.499
L442.244 131.499
L442.423 131.024
L442.512 131.024
L442.691 131.499
L443.316 131.499
L443.583 130.549
L443.762 130.549
L443.851 130.075
L444.03 128.176
L444.119 128.176
L444.387 127.226
L444.565 127.226
L445.012 125.327
L445.548 125.327
L445.726 124.853
L446.887 124.853
L447.065 122.479
L447.601 122.479
L447.78 121.055
L448.226 119.156
L448.315 119.156
L448.583 117.257
L448.762 116.782
L449.119 116.782
L449.387 115.833
L450.369 115.833
L450.815 113.934
L451.351 113.934
L451.619 112.985
L451.976 112.985
L452.154 112.51
L454.118 112.51
L454.297 112.035
L454.386 112.035
L454.654 108.712
L454.743 108.712
L454.922 108.237
L455.011 108.237
L455.19 107.288
L455.368 106.813
L455.547 106.813
L455.904 105.389
L457.779 105.389
L458.047 104.44
L458.136 104.44
L458.493 103.015
L458.761 103.015
L458.94 102.066
L459.207 102.066
L459.386 101.591
L461.886 101.591
L462.154 100.642
L462.421 100.642
L462.868 98.7429
L464.118 98.7429
L464.296 98.2681
L464.743 98.2681
L465.1 95.4198
L465.636 95.4198
L465.903 94.4703
L465.993 94.4703
L466.171 93.5209
L468.76 93.5209
L468.939 93.0462
L469.028 93.0462
L469.475 91.1473
L469.564 91.1473
L469.921 89.7231
L471.885 89.7231
L472.153 88.7736
L472.332 88.7736
L472.51 88.2989
L472.778 88.2989
L472.956 87.8242
L473.403 87.8242
L473.671 86.8747
L475.724 86.8747
L476.081 85.4505
L476.26 85.4505
L476.528 83.5516
L476.796 83.5516
L477.153 82.1275
L479.206 82.1275
L479.563 80.7033
L479.652 80.7033
L480.277 77.8549
L480.456 77.8549
L480.724 76.9055
L482.063 76.9055
L482.242 76.4308
L482.777 76.4308
L482.956 75.0066
L483.134 74.5319
L483.402 74.5319
L483.581 73.1077
L484.206 73.1077
L484.295 72.1582
L484.474 72.633
L486.17 72.633
L486.348 72.1582
L486.795 72.1582
L487.063 71.2088
L487.152 71.2088
L487.331 69.7846
L487.509 69.7846
L487.956 67.8857
L488.134 67.8857
L488.313 68.3604
L490.366 68.3604
L490.634 67.411
L490.723 67.411
L491.08 65.9868
L491.437 65.9868
L491.616 65.5121
L493.402 65.5121
L493.669 64.5626
L494.741 64.5626
L494.919 64.0879
L496.884 64.0879
L497.062 63.6132
L497.598 63.6132
L497.776 63.1385
L497.955 63.1385
L498.133 62.6637
L498.401 62.6637
L498.758 61.2396
L500.633 61.2396
L500.812 60.7648
L502.062 60.7648
L502.24 60.2901
L504.562 60.2901
L504.74 59.8154
L504.919 59.8154
L505.097 59.3407
L505.633 59.3407
L505.812 58.8659
L507.597 58.8659
L507.865 57.9165
L508.758 57.9165
L508.936 57.4418
L509.204 57.4418
L509.383 56.967
L511.525 56.967
L511.704 56.0176
L511.883 56.0176
L512.061 55.5429
L515.097 55.5429
L515.275 55.0681
L516.079 55.0681
L516.257 54.5934
L517.061 54.5934
L517.239 54.1187
L518.311 54.1187
L518.311 54.1187" style="fill:none;stroke:#bf00bf;stroke-linecap:square;"/>
   </g>
   <g id="matplotlib.axis_1">
    <g id="xtick_1">
     <g id="line2d_6">
      <defs>
       <path d="
M0 0
L0 -4" id="mc7db9fdffb" style="stroke:#000000;stroke-width:0.5;"/>
      </defs>
      <g>
       <use style="stroke:#000000;stroke-width:0.5;" x="72.0" xlink:href="#mc7db9fdffb" y="388.8"/>
      </g>
     </g>
     <g id="line2d_7">
      <defs>
       <path d="
M0 0
L0 4" id="m5a7d422ac3" style="stroke:#000000;stroke-width:0.5;"/>
      </defs>
      <g>
       <use style="stroke:#000000;stroke-width:0.5;" x="72.0" xlink:href="#m5a7d422ac3" y="43.2"/>
      </g>
     </g>
     <g id="text_1">
      <!-- 0 -->
      <defs>
       <path d="
M56.9844 36.375
Q56.9844 16.7969 50.8594 7.64062
Q44.7344 -1.51562 31.8438 -1.51562
Q18.75 -1.51562 12.7188 7.76562
Q6.6875 17.0469 6.6875 36.2812
Q6.6875 55.6719 12.7812 64.9219
Q18.8906 74.1719 31.8438 74.1719
Q44.9219 74.1719 50.9531 64.7656
Q56.9844 55.375 56.9844 36.375
M44.1406 14.2031
Q45.8438 18.1719 46.4531 23.5156
Q47.0781 28.8594 47.0781 36.375
Q47.0781 43.7969 46.4531 49.2656
Q45.8438 54.7344 44.0938 58.5469
Q42.3906 62.3125 39.4219 64.2031
Q36.4688 66.1094 31.8438 66.1094
Q27.25 66.1094 24.2344 64.2031
Q21.2344 62.3125 19.4844 58.4531
Q17.8281 54.8281 17.2188 49.0156
Q16.6094 43.2188 16.6094 36.2812
Q16.6094 28.6562 17.1406 23.5312
Q17.6719 18.4062 19.4375 14.3594
Q21.0469 10.5469 24 8.54688
Q26.9531 6.54688 31.8438 6.54688
Q36.4219 6.54688 39.4531 8.45312
Q42.4844 10.3594 44.1406 14.2031" id="Verdana-30"/>
      </defs>
      <g transform="translate(68.9821875 401.918125)scale(0.12 -0.12)">
       <use xlink:href="#Verdana-30"/>
      </g>
     </g>
    </g>
    <g id="xtick_2">
     <g id="line2d_8">
      <g>
       <use style="stroke:#000000;stroke-width:0.5;" x="161.28" xlink:href="#mc7db9fdffb" y="388.8"/>
      </g>
     </g>
     <g id="line2d_9">
      <g>
       <use style="stroke:#000000;stroke-width:0.5;" x="161.28" xlink:href="#m5a7d422ac3" y="43.2"/>
      </g>
     </g>
     <g id="text_2">
      <!-- 1000 -->
      <defs>
       <path d="
M52.9375 0
L13.5781 0
L13.5781 7.42188
L28.7188 7.42188
L28.7188 56.1562
L13.5781 56.1562
L13.5781 62.7969
Q16.6562 62.7969 20.1719 63.2969
Q23.6875 63.8125 25.4844 64.7969
Q27.7344 66.0156 29.0312 67.8906
Q30.3281 69.7812 30.5156 72.9531
L38.0938 72.9531
L38.0938 7.42188
L52.9375 7.42188
z
" id="Verdana-31"/>
      </defs>
      <g transform="translate(147.2315625 401.918125)scale(0.12 -0.12)">
       <use xlink:href="#Verdana-31"/>
       <use x="63.57421875" xlink:href="#Verdana-30"/>
       <use x="127.1484375" xlink:href="#Verdana-30"/>
       <use x="190.72265625" xlink:href="#Verdana-30"/>
      </g>
     </g>
    </g>
    <g id="xtick_3">
     <g id="line2d_10">
      <g>
       <use style="stroke:#000000;stroke-width:0.5;" x="250.56" xlink:href="#mc7db9fdffb" y="388.8"/>
      </g>
     </g>
     <g id="line2d_11">
      <g>
       <use style="stroke:#000000;stroke-width:0.5;" x="250.56" xlink:href="#m5a7d422ac3" y="43.2"/>
      </g>
     </g>
     <g id="text_3">
      <!-- 2000 -->
      <defs>
       <path d="
M57.0781 0
L7.85938 0
L7.85938 10.2031
Q12.9844 14.5938 18.1406 18.9844
Q23.2969 23.3906 27.7344 27.7344
Q37.1094 36.8125 40.5781 42.1562
Q44.0469 47.5156 44.0469 53.7188
Q44.0469 59.375 40.3125 62.5625
Q36.5781 65.7656 29.8906 65.7656
Q25.4375 65.7656 20.2656 64.2031
Q15.0938 62.6406 10.1562 59.4219
L9.67188 59.4219
L9.67188 69.6719
Q13.1406 71.3906 18.9219 72.7969
Q24.7031 74.2188 30.125 74.2188
Q41.3125 74.2188 47.6562 68.8125
Q54 63.4219 54 54.2031
Q54 50.0469 52.9531 46.4531
Q51.9062 42.875 49.8594 39.6562
Q47.9531 36.625 45.3906 33.6875
Q42.8281 30.7656 39.1562 27.2031
Q33.9375 22.0781 28.3594 17.2656
Q22.7969 12.4531 17.9688 8.34375
L57.0781 8.34375
z
" id="Verdana-32"/>
      </defs>
      <g transform="translate(236.1684375 401.918125)scale(0.12 -0.12)">
       <use xlink:href="#Verdana-32"/>
       <use x="63.57421875" xlink:href="#Verdana-30"/>
       <use x="127.1484375" xlink:href="#Verdana-30"/>
       <use x="190.72265625" xlink:href="#Verdana-30"/>
      </g>
     </g>
    </g>
    <g id="xtick_4">
     <g id="line2d_12">
      <g>
       <use style="stroke:#000000;stroke-width:0.5;" x="339.84" xlink:href="#mc7db9fdffb" y="388.8"/>
      </g>
     </g>
     <g id="line2d_13">
      <g>
       <use style="stroke:#000000;stroke-width:0.5;" x="339.84" xlink:href="#m5a7d422ac3" y="43.2"/>
      </g>
     </g>
     <g id="text_4">
      <!-- 3000 -->
      <defs>
       <path d="
M50.6875 35.0156
Q53.0312 32.9062 54.5469 29.7344
Q56.0625 26.5625 56.0625 21.5312
Q56.0625 16.5469 54.25 12.3906
Q52.4375 8.25 49.1719 5.17188
Q45.5156 1.76562 40.5469 0.125
Q35.5938 -1.51562 29.6875 -1.51562
Q23.6406 -1.51562 17.7812 -0.0625
Q11.9219 1.375 8.15625 3.07812
L8.15625 13.2812
L8.89062 13.2812
Q13.0312 10.5469 18.6406 8.73438
Q24.2656 6.9375 29.5 6.9375
Q32.5625 6.9375 36.0312 7.95312
Q39.5 8.98438 41.6562 10.9844
Q43.8906 13.1406 44.9844 15.7188
Q46.0938 18.3125 46.0938 22.2656
Q46.0938 26.1719 44.8438 28.7344
Q43.6094 31.2969 41.4062 32.7656
Q39.2031 34.2812 36.0781 34.8438
Q32.9531 35.4062 29.3438 35.4062
L24.9531 35.4062
L24.9531 43.5
L28.375 43.5
Q35.7969 43.5 40.2031 46.5938
Q44.625 49.7031 44.625 55.6719
Q44.625 58.2969 43.5 60.2656
Q42.3906 62.25 40.375 63.5312
Q38.2812 64.7969 35.8906 65.2812
Q33.5 65.7656 30.4688 65.7656
Q25.8281 65.7656 20.5938 64.1094
Q15.375 62.4531 10.75 59.4219
L10.25 59.4219
L10.25 69.625
Q13.7188 71.3438 19.5 72.7812
Q25.2969 74.2188 30.7188 74.2188
Q36.0312 74.2188 40.0781 73.2344
Q44.1406 72.2656 47.4062 70.125
Q50.9219 67.7812 52.7344 64.4531
Q54.5469 61.1406 54.5469 56.6875
Q54.5469 50.6406 50.2656 46.125
Q46 41.6094 40.1875 40.4375
L40.1875 39.75
Q42.5312 39.3594 45.5469 38.1094
Q48.5781 36.8594 50.6875 35.0156" id="Verdana-33"/>
      </defs>
      <g transform="translate(325.46625 401.918125)scale(0.12 -0.12)">
       <use xlink:href="#Verdana-33"/>
       <use x="63.57421875" xlink:href="#Verdana-30"/>
       <use x="127.1484375" xlink:href="#Verdana-30"/>
       <use x="190.72265625" xlink:href="#Verdana-30"/>
      </g>
     </g>
    </g>
    <g id="xtick_5">
     <g id="line2d_14">
      <g>
       <use style="stroke:#000000;stroke-width:0.5;" x="429.12" xlink:href="#mc7db9fdffb" y="388.8"/>
      </g>
     </g>
     <g id="line2d_15">
      <g>
       <use style="stroke:#000000;stroke-width:0.5;" x="429.12" xlink:href="#m5a7d422ac3" y="43.2"/>
      </g>
     </g>
     <g id="text_5">
      <!-- 4000 -->
      <defs>
       <path d="
M58.7344 20.4531
L47.9531 20.4531
L47.9531 0
L38.5781 0
L38.5781 20.4531
L3.76562 20.4531
L3.76562 31.6875
L38.9688 72.7031
L47.9531 72.7031
L47.9531 28.2656
L58.7344 28.2656
z

M38.5781 28.2656
L38.5781 61.0781
L10.4062 28.2656
z
" id="Verdana-34"/>
      </defs>
      <g transform="translate(414.4828125 401.918125)scale(0.12 -0.12)">
       <use xlink:href="#Verdana-34"/>
       <use x="63.57421875" xlink:href="#Verdana-30"/>
       <use x="127.1484375" xlink:href="#Verdana-30"/>
       <use x="190.72265625" xlink:href="#Verdana-30"/>
      </g>
     </g>
    </g>
    <g id="xtick_6">
     <g id="line2d_16">
      <g>
       <use style="stroke:#000000;stroke-width:0.5;" x="518.4" xlink:href="#mc7db9fdffb" y="388.8"/>
      </g>
     </g>
     <g id="line2d_17">
      <g>
       <use style="stroke:#000000;stroke-width:0.5;" x="518.4" xlink:href="#m5a7d422ac3" y="43.2"/>
      </g>
     </g>
     <g id="text_6">
      <!-- 5000 -->
      <defs>
       <path d="
M56.5 23.0938
Q56.5 18.0156 54.6406 13.375
Q52.7812 8.73438 49.5625 5.5625
Q46.0469 2.15625 41.1875 0.3125
Q36.3281 -1.51562 29.9375 -1.51562
Q23.9688 -1.51562 18.4531 -0.265625
Q12.9375 0.984375 9.125 2.73438
L9.125 13.0312
L9.8125 13.0312
Q13.8125 10.5 19.1875 8.71875
Q24.5625 6.9375 29.7344 6.9375
Q33.2031 6.9375 36.4531 7.90625
Q39.7031 8.89062 42.2344 11.3281
Q44.3906 13.4219 45.4844 16.3438
Q46.5781 19.2812 46.5781 23.1406
Q46.5781 26.9062 45.2812 29.4844
Q44 32.0781 41.7031 33.6406
Q39.1562 35.5 35.5156 36.25
Q31.8906 37.0156 27.3906 37.0156
Q23.0938 37.0156 19.1094 36.4219
Q15.1406 35.8438 12.25 35.25
L12.25 72.7031
L56 72.7031
L56 64.1562
L21.6875 64.1562
L21.6875 44.8281
Q23.7812 45.0156 25.9688 45.1094
Q28.1719 45.2188 29.7812 45.2188
Q35.6875 45.2188 40.125 44.2188
Q44.5781 43.2188 48.2969 40.6719
Q52.2031 37.9844 54.3438 33.7344
Q56.5 29.5 56.5 23.0938" id="Verdana-35"/>
      </defs>
      <g transform="translate(504.084375 401.918125)scale(0.12 -0.12)">
       <use xlink:href="#Verdana-35"/>
       <use x="63.57421875" xlink:href="#Verdana-30"/>
       <use x="127.1484375" xlink:href="#Verdana-30"/>
       <use x="190.72265625" xlink:href="#Verdana-30"/>
      </g>
     </g>
    </g>
    <g id="text_7">
     <!-- Objective function exectuions -->
     <defs>
      <path d="
M63.9688 64.3594
Q68.4062 59.4688 70.7656 52.3906
Q73.1406 45.3125 73.1406 36.3281
Q73.1406 27.3438 70.7188 20.2344
Q68.3125 13.1406 63.9688 8.40625
Q59.4688 3.46875 53.3438 0.96875
Q47.2188 -1.51562 39.3594 -1.51562
Q31.6875 -1.51562 25.4062 1.01562
Q19.1406 3.5625 14.75 8.40625
Q10.3594 13.2344 7.98438 20.2656
Q5.60938 27.2969 5.60938 36.3281
Q5.60938 45.2188 7.95312 52.2656
Q10.2969 59.3281 14.7969 64.3594
Q19.0938 69.1406 25.4688 71.6719
Q31.8438 74.2188 39.3594 74.2188
Q47.1719 74.2188 53.3906 71.6562
Q59.625 69.0938 63.9688 64.3594
M63.0938 36.3281
Q63.0938 50.4844 56.7344 58.1719
Q50.3906 65.875 39.4062 65.875
Q28.3281 65.875 22 58.1719
Q15.6719 50.4844 15.6719 36.3281
Q15.6719 22.0156 22.1094 14.4219
Q28.5625 6.84375 39.4062 6.84375
Q50.25 6.84375 56.6719 14.4219
Q63.0938 22.0156 63.0938 36.3281" id="Verdana-4f"/>
      <path d="
M38.375 67.0938
L37.8906 67.0938
Q36.375 67.5312 33.9375 67.9844
Q31.5 68.4531 29.6406 68.4531
Q23.7344 68.4531 21.0625 65.8438
Q18.4062 63.2344 18.4062 56.3906
L18.4062 54.5469
L34.9688 54.5469
L34.9688 46.8281
L18.7031 46.8281
L18.7031 0
L9.51562 0
L9.51562 46.8281
L3.32812 46.8281
L3.32812 54.5469
L9.51562 54.5469
L9.51562 56.3438
Q9.51562 66.0625 14.3438 71.2656
Q19.1875 76.4688 28.3281 76.4688
Q31.3906 76.4688 33.8594 76.1719
Q36.3281 75.875 38.375 75.4844
z
" id="Verdana-66"/>
      <path d="
M56.25 0
L44.6719 0
L29.2031 20.9531
L13.625 0
L2.9375 0
L24.2188 27.2031
L3.125 54.5469
L14.7031 54.5469
L30.0781 33.9375
L45.5156 54.5469
L56.25 54.5469
L34.8125 27.6875
z
" id="Verdana-78"/>
      <path d="
M54.6406 0
L45.4531 0
L45.4531 31.0625
Q45.4531 34.8125 45.0156 38.1094
Q44.5781 41.4062 43.4062 43.2656
Q42.1875 45.3125 39.8906 46.3125
Q37.5938 47.3125 33.9375 47.3125
Q30.1719 47.3125 26.0625 45.4531
Q21.9688 43.6094 18.2188 40.7188
L18.2188 0
L9.03125 0
L9.03125 54.5469
L18.2188 54.5469
L18.2188 48.4844
Q22.5156 52.0469 27.0938 54.0469
Q31.6875 56.0625 36.5312 56.0625
Q45.3594 56.0625 50 50.7344
Q54.6406 45.4062 54.6406 35.4062
z
" id="Verdana-6e"/>
      <path d="
M18.8906 63.6719
L8.54688 63.6719
L8.54688 73.1875
L18.8906 73.1875
z

M18.3125 0
L9.125 0
L9.125 54.5469
L18.3125 54.5469
z
" id="Verdana-69"/>
      <path d="
M56.2031 54.5469
L34.125 0
L24.9062 0
L2.98438 54.5469
L12.9375 54.5469
L29.8281 11.1406
L46.5781 54.5469
z
" id="Verdana-76"/>
      <path d="
M37.3594 0.484375
Q34.7656 -0.203125 31.7031 -0.640625
Q28.6562 -1.07812 26.2656 -1.07812
Q17.9219 -1.07812 13.5781 3.40625
Q9.23438 7.90625 9.23438 17.8281
L9.23438 46.8281
L3.03125 46.8281
L3.03125 54.5469
L9.23438 54.5469
L9.23438 70.2188
L18.4062 70.2188
L18.4062 54.5469
L37.3594 54.5469
L37.3594 46.8281
L18.4062 46.8281
L18.4062 21.9688
Q18.4062 17.6719 18.5938 15.25
Q18.7969 12.8438 19.9688 10.75
Q21.0469 8.79688 22.9219 7.89062
Q24.8125 6.98438 28.6562 6.98438
Q30.9062 6.98438 33.3438 7.64062
Q35.7969 8.29688 36.8594 8.73438
L37.3594 8.73438
z
" id="Verdana-74"/>
      <path d="
M54.6875 26.3125
L14.5 26.3125
Q14.5 21.2969 16.0156 17.5469
Q17.5312 13.8125 20.1719 11.4219
Q22.7031 9.07812 26.1875 7.90625
Q29.6875 6.73438 33.8906 6.73438
Q39.4531 6.73438 45.0938 8.95312
Q50.7344 11.1875 53.125 13.3281
L53.6094 13.3281
L53.6094 3.32812
Q48.9688 1.375 44.1406 0.046875
Q39.3125 -1.26562 33.9844 -1.26562
Q20.4062 -1.26562 12.7812 6.07812
Q5.17188 13.4219 5.17188 26.9531
Q5.17188 40.3281 12.4688 48.1875
Q19.7812 56.0625 31.6875 56.0625
Q42.7188 56.0625 48.7031 49.6094
Q54.6875 43.1719 54.6875 31.2969
z

M45.75 33.3438
Q45.7031 40.5781 42.1094 44.5312
Q38.5312 48.4844 31.2031 48.4844
Q23.8281 48.4844 19.4531 44.1406
Q15.0938 39.7969 14.5 33.3438
z
" id="Verdana-65"/>
      <path d="
M26.0312 63.6719
L15.6719 63.6719
L15.6719 73.1875
L26.0312 73.1875
z

M25.4375 -1.3125
Q25.4375 -10.8906 20.5469 -15.7656
Q15.6719 -20.6562 7.46875 -20.6562
Q5.51562 -20.6562 2.3125 -20.2656
Q-0.875 -19.875 -3.03125 -19.2812
L-3.03125 -10.5469
L-2.54688 -10.5469
Q-1.17188 -11.0781 1.14062 -11.7656
Q3.46875 -12.4531 5.67188 -12.4531
Q9.1875 -12.4531 11.3281 -11.4688
Q13.4844 -10.5 14.5469 -8.54688
Q15.625 -6.59375 15.9375 -3.82812
Q16.2656 -1.07812 16.2656 2.875
L16.2656 46.8281
L4.89062 46.8281
L4.89062 54.5469
L25.4375 54.5469
z
" id="Verdana-6a"/>
      <path d="
M55.5156 27.25
Q55.5156 13.9219 48.6719 6.20312
Q41.8438 -1.51562 30.375 -1.51562
Q18.7969 -1.51562 11.9844 6.20312
Q5.17188 13.9219 5.17188 27.25
Q5.17188 40.5781 11.9844 48.3125
Q18.7969 56.0625 30.375 56.0625
Q41.8438 56.0625 48.6719 48.3125
Q55.5156 40.5781 55.5156 27.25
M46.0469 27.25
Q46.0469 37.8438 41.8906 42.9844
Q37.75 48.1406 30.375 48.1406
Q22.9062 48.1406 18.7812 42.9844
Q14.6562 37.8438 14.6562 27.25
Q14.6562 17 18.7969 11.6875
Q22.9531 6.39062 30.375 6.39062
Q37.7031 6.39062 41.875 11.6406
Q46.0469 16.8906 46.0469 27.25" id="Verdana-6f"/>
      <path d="
M49.3594 3.42188
Q44.7812 1.21875 40.6562 0
Q36.5312 -1.21875 31.8906 -1.21875
Q25.9844 -1.21875 21.0469 0.515625
Q16.1094 2.25 12.5938 5.76562
Q9.03125 9.28125 7.07812 14.6406
Q5.125 20.0156 5.125 27.2031
Q5.125 40.5781 12.4688 48.1875
Q19.8281 55.8125 31.8906 55.8125
Q36.5781 55.8125 41.0938 54.4844
Q45.6094 53.1719 49.3594 51.2656
L49.3594 41.0625
L48.875 41.0625
Q44.6719 44.3438 40.2031 46.0938
Q35.75 47.8594 31.5 47.8594
Q23.6875 47.8594 19.1719 42.6094
Q14.6562 37.3594 14.6562 27.2031
Q14.6562 17.3281 19.0625 12.0312
Q23.4844 6.73438 31.5 6.73438
Q34.2812 6.73438 37.1562 7.46875
Q40.0469 8.20312 42.3281 9.375
Q44.3438 10.4062 46.0938 11.5469
Q47.8594 12.7031 48.875 13.5312
L49.3594 13.5312
z
" id="Verdana-63"/>
      <path d="
M48 15.7188
Q48 8.25 41.8125 3.46875
Q35.6406 -1.3125 24.9531 -1.3125
Q18.8906 -1.3125 13.8438 0.125
Q8.79688 1.5625 5.375 3.26562
L5.375 13.5781
L5.85938 13.5781
Q10.2031 10.2969 15.5156 8.375
Q20.8438 6.45312 25.7344 6.45312
Q31.7812 6.45312 35.2031 8.40625
Q38.625 10.3594 38.625 14.5469
Q38.625 17.7812 36.7656 19.4375
Q34.9062 21.0938 29.6406 22.2656
Q27.6875 22.7031 24.5312 23.2812
Q21.3906 23.875 18.7969 24.5625
Q11.625 26.4688 8.60938 30.1562
Q5.60938 33.8438 5.60938 39.2031
Q5.60938 42.5781 7 45.5469
Q8.40625 48.5312 11.2344 50.875
Q13.9688 53.1719 18.1875 54.5156
Q22.4062 55.8594 27.6406 55.8594
Q32.5156 55.8594 37.5156 54.6562
Q42.5312 53.4688 45.8438 51.7656
L45.8438 41.9375
L45.3594 41.9375
Q41.8438 44.5312 36.8125 46.3125
Q31.7812 48.0938 26.9531 48.0938
Q21.9219 48.0938 18.4531 46.1562
Q14.9844 44.2344 14.9844 40.4375
Q14.9844 37.0625 17.0938 35.3594
Q19.1406 33.6406 23.7344 32.5625
Q26.2656 31.9844 29.4062 31.3906
Q32.5625 30.8125 34.6719 30.3281
Q41.0625 28.8594 44.5312 25.2969
Q48 21.6875 48 15.7188" id="Verdana-73"/>
      <path id="Verdana-20"/>
      <path d="
M57.0312 27.6875
Q57.0312 20.8438 55.0938 15.375
Q53.1719 9.90625 49.9062 6.20312
Q46.4375 2.34375 42.2812 0.40625
Q38.1406 -1.51562 33.1562 -1.51562
Q28.5156 -1.51562 25.0469 -0.40625
Q21.5781 0.6875 18.2188 2.54688
L17.625 0
L9.03125 0
L9.03125 75.9844
L18.2188 75.9844
L18.2188 48.8281
Q22.0781 52 26.4219 54.0312
Q30.7656 56.0625 36.1875 56.0625
Q45.8438 56.0625 51.4375 48.6406
Q57.0312 41.2188 57.0312 27.6875
M47.5625 27.4375
Q47.5625 37.2031 44.3281 42.25
Q41.1094 47.3125 33.9375 47.3125
Q29.9375 47.3125 25.8281 45.5781
Q21.7344 43.8438 18.2188 41.1094
L18.2188 9.85938
Q22.125 8.10938 24.9219 7.42188
Q27.7344 6.73438 31.2969 6.73438
Q38.9219 6.73438 43.2344 11.7344
Q47.5625 16.75 47.5625 27.4375" id="Verdana-62"/>
      <path d="
M54.25 0
L45.0625 0
L45.0625 6.0625
Q40.4375 2.39062 36.1875 0.4375
Q31.9375 -1.51562 26.8125 -1.51562
Q18.2188 -1.51562 13.4219 3.73438
Q8.64062 8.98438 8.64062 19.1406
L8.64062 54.5469
L17.8281 54.5469
L17.8281 23.4844
Q17.8281 19.3438 18.2188 16.375
Q18.6094 13.4219 19.875 11.3281
Q21.1875 9.1875 23.2812 8.20312
Q25.3906 7.23438 29.3906 7.23438
Q32.9531 7.23438 37.1719 9.07812
Q41.4062 10.9375 45.0625 13.8125
L45.0625 54.5469
L54.25 54.5469
z
" id="Verdana-75"/>
     </defs>
     <g transform="translate(206.5078125 418.509375)scale(0.12 -0.12)">
      <use xlink:href="#Verdana-4f"/>
      <use x="78.7109375" xlink:href="#Verdana-62"/>
      <use x="141.015625" xlink:href="#Verdana-6a"/>
      <use x="175.439453125" xlink:href="#Verdana-65"/>
      <use x="235.009765625" xlink:href="#Verdana-63"/>
      <use x="287.109375" xlink:href="#Verdana-74"/>
      <use x="326.513671875" xlink:href="#Verdana-69"/>
      <use x="353.955078125" xlink:href="#Verdana-76"/>
      <use x="412.259765625" xlink:href="#Verdana-65"/>
      <use x="471.830078125" xlink:href="#Verdana-20"/>
      <use x="506.986328125" xlink:href="#Verdana-66"/>
      <use x="542.142578125" xlink:href="#Verdana-75"/>
      <use x="605.423828125" xlink:href="#Verdana-6e"/>
      <use x="668.705078125" xlink:href="#Verdana-63"/>
      <use x="720.8046875" xlink:href="#Verdana-74"/>
      <use x="760.208984375" xlink:href="#Verdana-69"/>
      <use x="787.650390625" xlink:href="#Verdana-6f"/>
      <use x="848.34375" xlink:href="#Verdana-6e"/>
      <use x="911.625" xlink:href="#Verdana-20"/>
      <use x="946.78125" xlink:href="#Verdana-65"/>
      <use x="1006.3515625" xlink:href="#Verdana-78"/>
      <use x="1064.40625" xlink:href="#Verdana-65"/>
      <use x="1123.9765625" xlink:href="#Verdana-63"/>
      <use x="1176.076171875" xlink:href="#Verdana-74"/>
      <use x="1215.48046875" xlink:href="#Verdana-75"/>
      <use x="1278.76171875" xlink:href="#Verdana-69"/>
      <use x="1306.203125" xlink:href="#Verdana-6f"/>
      <use x="1366.896484375" xlink:href="#Verdana-6e"/>
      <use x="1430.177734375" xlink:href="#Verdana-73"/>
     </g>
    </g>
   </g>
   <g id="matplotlib.axis_2">
    <g id="ytick_1">
     <g id="line2d_18">
      <defs>
       <path d="
M0 0
L4 0" id="md7965d1ba0" style="stroke:#000000;stroke-width:0.5;"/>
      </defs>
      <g>
       <use style="stroke:#000000;stroke-width:0.5;" x="72.0" xlink:href="#md7965d1ba0" y="388.8"/>
      </g>
     </g>
     <g id="line2d_19">
      <defs>
       <path d="
M0 0
L-4 0" id="md9a1c1a7cd" style="stroke:#000000;stroke-width:0.5;"/>
      </defs>
      <g>
       <use style="stroke:#000000;stroke-width:0.5;" x="518.4" xlink:href="#md9a1c1a7cd" y="388.8"/>
      </g>
     </g>
     <g id="text_8">
      <!-- 0.0 -->
      <defs>
       <path d="
M24.0312 0
L12.3594 0
L12.3594 13.9219
L24.0312 13.9219
z
" id="Verdana-2e"/>
      </defs>
      <g transform="translate(49.97 392.1515625)scale(0.12 -0.12)">
       <use xlink:href="#Verdana-30"/>
       <use x="63.57421875" xlink:href="#Verdana-2e"/>
       <use x="99.951171875" xlink:href="#Verdana-30"/>
      </g>
     </g>
    </g>
    <g id="ytick_2">
     <g id="line2d_20">
      <g>
       <use style="stroke:#000000;stroke-width:0.5;" x="72.0" xlink:href="#md7965d1ba0" y="319.68"/>
      </g>
     </g>
     <g id="line2d_21">
      <g>
       <use style="stroke:#000000;stroke-width:0.5;" x="518.4" xlink:href="#md9a1c1a7cd" y="319.68"/>
      </g>
     </g>
     <g id="text_9">
      <!-- 0.2 -->
      <g transform="translate(49.95875 323.0315625)scale(0.12 -0.12)">
       <use xlink:href="#Verdana-30"/>
       <use x="63.57421875" xlink:href="#Verdana-2e"/>
       <use x="99.951171875" xlink:href="#Verdana-32"/>
      </g>
     </g>
    </g>
    <g id="ytick_3">
     <g id="line2d_22">
      <g>
       <use style="stroke:#000000;stroke-width:0.5;" x="72.0" xlink:href="#md7965d1ba0" y="250.56"/>
      </g>
     </g>
     <g id="line2d_23">
      <g>
       <use style="stroke:#000000;stroke-width:0.5;" x="518.4" xlink:href="#md9a1c1a7cd" y="250.56"/>
      </g>
     </g>
     <g id="text_10">
      <!-- 0.4 -->
      <g transform="translate(49.76 253.9115625)scale(0.12 -0.12)">
       <use xlink:href="#Verdana-30"/>
       <use x="63.57421875" xlink:href="#Verdana-2e"/>
       <use x="99.951171875" xlink:href="#Verdana-34"/>
      </g>
     </g>
    </g>
    <g id="ytick_4">
     <g id="line2d_24">
      <g>
       <use style="stroke:#000000;stroke-width:0.5;" x="72.0" xlink:href="#md7965d1ba0" y="181.44"/>
      </g>
     </g>
     <g id="line2d_25">
      <g>
       <use style="stroke:#000000;stroke-width:0.5;" x="518.4" xlink:href="#md9a1c1a7cd" y="181.44"/>
      </g>
     </g>
     <g id="text_11">
      <!-- 0.6 -->
      <defs>
       <path d="
M58.1562 23.5781
Q58.1562 12.5 50.8594 5.48438
Q43.5625 -1.51562 32.9531 -1.51562
Q27.5938 -1.51562 23.1875 0.140625
Q18.7969 1.8125 15.4375 5.07812
Q11.2344 9.125 8.95312 15.8125
Q6.6875 22.5156 6.6875 31.9375
Q6.6875 41.6094 8.76562 49.0781
Q10.8438 56.5469 15.375 62.3594
Q19.6719 67.875 26.4531 70.9688
Q33.25 74.0781 42.2812 74.0781
Q45.1719 74.0781 47.125 73.8281
Q49.0781 73.5781 51.0781 72.9531
L51.0781 63.625
L50.5938 63.625
Q49.2188 64.3594 46.4531 65.0156
Q43.7031 65.6719 40.8281 65.6719
Q30.3281 65.6719 24.0781 59.1094
Q17.8281 52.5469 16.7969 41.3594
Q20.9062 43.8438 24.875 45.1406
Q28.8594 46.4375 34.0781 46.4375
Q38.7188 46.4375 42.25 45.5781
Q45.7969 44.7344 49.5156 42.1406
Q53.8125 39.1562 55.9844 34.6094
Q58.1562 30.0781 58.1562 23.5781
M48.25 23.1875
Q48.25 27.7344 46.9062 30.7031
Q45.5625 33.6875 42.4844 35.8906
Q40.2344 37.4531 37.5 37.9375
Q34.7656 38.4219 31.7812 38.4219
Q27.6406 38.4219 24.0781 37.4375
Q20.5156 36.4688 16.75 34.4219
Q16.6562 33.3438 16.5938 32.3438
Q16.5469 31.3438 16.5469 29.8281
Q16.5469 22.125 18.1406 17.6562
Q19.7344 13.1875 22.5156 10.5938
Q24.75 8.45312 27.3594 7.45312
Q29.9844 6.45312 33.0625 6.45312
Q40.1406 6.45312 44.1875 10.7656
Q48.25 15.0938 48.25 23.1875" id="Verdana-36"/>
      </defs>
      <g transform="translate(49.829375 184.7915625)scale(0.12 -0.12)">
       <use xlink:href="#Verdana-30"/>
       <use x="63.57421875" xlink:href="#Verdana-2e"/>
       <use x="99.951171875" xlink:href="#Verdana-36"/>
      </g>
     </g>
    </g>
    <g id="ytick_5">
     <g id="line2d_26">
      <g>
       <use style="stroke:#000000;stroke-width:0.5;" x="72.0" xlink:href="#md7965d1ba0" y="112.32"/>
      </g>
     </g>
     <g id="line2d_27">
      <g>
       <use style="stroke:#000000;stroke-width:0.5;" x="518.4" xlink:href="#md9a1c1a7cd" y="112.32"/>
      </g>
     </g>
     <g id="text_12">
      <!-- 0.8 -->
      <defs>
       <path d="
M57.625 20.2656
Q57.625 10.8438 50.2656 4.59375
Q42.9219 -1.65625 31.7812 -1.65625
Q19.9688 -1.65625 12.9531 4.4375
Q5.95312 10.5469 5.95312 20.0625
Q5.95312 26.125 9.46875 31.0312
Q12.9844 35.9375 19.3906 38.8125
L19.3906 39.1094
Q13.5312 42.2344 10.7188 45.9375
Q7.90625 49.6562 7.90625 55.2188
Q7.90625 63.4219 14.6406 68.8906
Q21.3906 74.3594 31.7812 74.3594
Q42.6719 74.3594 49.1719 69.1406
Q55.6719 63.9219 55.6719 55.8594
Q55.6719 50.9219 52.5938 46.1562
Q49.5156 41.4062 43.5625 38.7188
L43.5625 38.4219
Q50.3906 35.5 54 31.2031
Q57.625 26.9062 57.625 20.2656
M46.0469 55.7656
Q46.0469 60.9844 42.0156 64.0781
Q37.9844 67.1875 31.7344 67.1875
Q25.5938 67.1875 21.6562 64.25
Q17.7188 61.3281 17.7188 56.3438
Q17.7188 52.8281 19.7031 50.2656
Q21.6875 47.7031 25.6875 45.7031
Q27.4844 44.8281 30.875 43.4062
Q34.2812 42 37.5 41.0625
Q42.3281 44.2812 44.1875 47.75
Q46.0469 51.2188 46.0469 55.7656
M47.5625 19.3438
Q47.5625 23.8281 45.5781 26.5312
Q43.6094 29.25 37.8438 31.9844
Q35.5469 33.0625 32.8125 33.9844
Q30.0781 34.9062 25.5312 36.5781
Q21.1406 34.1875 18.4844 30.0781
Q15.8281 25.9844 15.8281 20.7969
Q15.8281 14.2031 20.3594 9.90625
Q24.9062 5.60938 31.8906 5.60938
Q39.0156 5.60938 43.2812 9.26562
Q47.5625 12.9375 47.5625 19.3438" id="Verdana-38"/>
      </defs>
      <g transform="translate(49.893125 115.6715625)scale(0.12 -0.12)">
       <use xlink:href="#Verdana-30"/>
       <use x="63.57421875" xlink:href="#Verdana-2e"/>
       <use x="99.951171875" xlink:href="#Verdana-38"/>
      </g>
     </g>
    </g>
    <g id="ytick_6">
     <g id="line2d_28">
      <g>
       <use style="stroke:#000000;stroke-width:0.5;" x="72.0" xlink:href="#md7965d1ba0" y="43.2"/>
      </g>
     </g>
     <g id="line2d_29">
      <g>
       <use style="stroke:#000000;stroke-width:0.5;" x="518.4" xlink:href="#md9a1c1a7cd" y="43.2"/>
      </g>
     </g>
     <g id="text_13">
      <!-- 1.0 -->
      <g transform="translate(50.796875 46.5515625)scale(0.12 -0.12)">
       <use xlink:href="#Verdana-31"/>
       <use x="63.57421875" xlink:href="#Verdana-2e"/>
       <use x="99.951171875" xlink:href="#Verdana-30"/>
      </g>
     </g>
    </g>
    <g id="text_14">
     <!-- Data Profile T-0.1000000 -->
     <defs>
      <path d="
M18.3125 0
L9.125 0
L9.125 75.9844
L18.3125 75.9844
z
" id="Verdana-6c"/>
      <path d="
M57.3281 50.7344
Q57.3281 45.9062 55.6406 41.7656
Q53.9531 37.6406 50.9219 34.625
Q47.1719 30.8594 42.0469 28.9688
Q36.9219 27.0938 29.1094 27.0938
L19.4375 27.0938
L19.4375 0
L9.76562 0
L9.76562 72.7031
L29.5 72.7031
Q36.0312 72.7031 40.5781 71.6094
Q45.125 70.5156 48.6406 68.1719
Q52.7812 65.375 55.0469 61.2188
Q57.3281 57.0781 57.3281 50.7344
M47.2656 50.4844
Q47.2656 54.25 45.9375 57.0312
Q44.625 59.8125 41.9375 61.5781
Q39.5938 63.0938 36.5938 63.75
Q33.5938 64.4062 29 64.4062
L19.4375 64.4062
L19.4375 35.3594
L27.5938 35.3594
Q33.4531 35.3594 37.1094 36.4062
Q40.7656 37.4531 43.0625 39.75
Q45.3594 42.0938 46.3125 44.6719
Q47.2656 47.2656 47.2656 50.4844" id="Verdana-50"/>
      <path d="
M71.1875 36.2812
Q71.1875 26.375 66.8594 18.3125
Q62.5469 10.25 55.375 5.8125
Q50.3906 2.73438 44.2656 1.35938
Q38.1406 0 28.125 0
L9.76562 0
L9.76562 72.7031
L27.9375 72.7031
Q38.5781 72.7031 44.8438 71.1562
Q51.125 69.625 55.4688 66.9375
Q62.8906 62.3125 67.0312 54.5938
Q71.1875 46.875 71.1875 36.2812
M61.0781 36.4219
Q61.0781 44.9688 58.0938 50.8281
Q55.125 56.6875 49.2188 60.0625
Q44.9219 62.5 40.0781 63.4531
Q35.25 64.4062 28.5156 64.4062
L19.4375 64.4062
L19.4375 8.29688
L28.5156 8.29688
Q35.5 8.29688 40.7031 9.32812
Q45.9062 10.3594 50.25 13.1406
Q55.6719 16.6094 58.375 22.2656
Q61.0781 27.9375 61.0781 36.4219" id="Verdana-44"/>
      <path d="
M61.625 64.1094
L35.6406 64.1094
L35.6406 0
L25.9844 0
L25.9844 64.1094
L0 64.1094
L0 72.7031
L61.625 72.7031
z
" id="Verdana-54"/>
      <path d="
M37.9375 27.3906
L7.46875 27.3906
L7.46875 36.2344
L37.9375 36.2344
z
" id="Verdana-2d"/>
      <path d="
M51.4219 0
L42.2812 0
L42.2812 5.8125
Q41.0625 4.98438 38.9844 3.48438
Q36.9219 2 34.9688 1.125
Q32.6719 0 29.6875 -0.75
Q26.7031 -1.51562 22.7031 -1.51562
Q15.3281 -1.51562 10.2031 3.35938
Q5.07812 8.25 5.07812 15.8281
Q5.07812 22.0156 7.73438 25.8438
Q10.4062 29.6875 15.3281 31.8906
Q20.3125 34.0781 27.2969 34.8594
Q34.2812 35.6406 42.2812 36.0312
L42.2812 37.4531
Q42.2812 40.5781 41.1875 42.625
Q40.0938 44.6719 38.0312 45.8438
Q36.0781 46.9688 33.3438 47.3594
Q30.6094 47.75 27.6406 47.75
Q24.0312 47.75 19.5781 46.7969
Q15.1406 45.8438 10.4062 44.0469
L9.90625 44.0469
L9.90625 53.375
Q12.5938 54.1094 17.6719 54.9844
Q22.75 55.8594 27.6875 55.8594
Q33.4531 55.8594 37.7188 54.9062
Q42 53.9531 45.125 51.6562
Q48.1875 49.4219 49.7969 45.8438
Q51.4219 42.2812 51.4219 37.0156
z

M42.2812 13.4219
L42.2812 28.6094
Q38.0938 28.375 32.3906 27.875
Q26.7031 27.3906 23.3906 26.4688
Q19.4375 25.3438 16.9844 22.9688
Q14.5469 20.6094 14.5469 16.4531
Q14.5469 11.7656 17.375 9.39062
Q20.2188 7.03125 26.0312 7.03125
Q30.8594 7.03125 34.8594 8.90625
Q38.875 10.7969 42.2812 13.4219" id="Verdana-61"/>
      <path d="
M43.0625 44.5312
L42.5781 44.5312
Q40.5312 45.0156 38.5938 45.2344
Q36.6719 45.4531 34.0312 45.4531
Q29.7812 45.4531 25.8281 43.5781
Q21.875 41.7031 18.2188 38.7188
L18.2188 0
L9.03125 0
L9.03125 54.5469
L18.2188 54.5469
L18.2188 46.4844
Q23.6875 50.875 27.8594 52.7031
Q32.0312 54.5469 36.375 54.5469
Q38.7656 54.5469 39.8438 54.4219
Q40.9219 54.2969 43.0625 53.9531
z
" id="Verdana-72"/>
     </defs>
     <g transform="translate(42.345 291.493125)rotate(-90.0)scale(0.12 -0.12)">
      <use xlink:href="#Verdana-44"/>
      <use x="77.05078125" xlink:href="#Verdana-61"/>
      <use x="137.109375" xlink:href="#Verdana-74"/>
      <use x="176.513671875" xlink:href="#Verdana-61"/>
      <use x="236.572265625" xlink:href="#Verdana-20"/>
      <use x="271.728515625" xlink:href="#Verdana-50"/>
      <use x="332.03125" xlink:href="#Verdana-72"/>
      <use x="374.70703125" xlink:href="#Verdana-6f"/>
      <use x="435.400390625" xlink:href="#Verdana-66"/>
      <use x="470.556640625" xlink:href="#Verdana-69"/>
      <use x="497.998046875" xlink:href="#Verdana-6c"/>
      <use x="525.439453125" xlink:href="#Verdana-65"/>
      <use x="585.009765625" xlink:href="#Verdana-20"/>
      <use x="620.166015625" xlink:href="#Verdana-54"/>
      <use x="674.412109375" xlink:href="#Verdana-2d"/>
      <use x="719.822265625" xlink:href="#Verdana-30"/>
      <use x="783.396484375" xlink:href="#Verdana-2e"/>
      <use x="819.7734375" xlink:href="#Verdana-31"/>
      <use x="883.34765625" xlink:href="#Verdana-30"/>
      <use x="946.921875" xlink:href="#Verdana-30"/>
      <use x="1010.49609375" xlink:href="#Verdana-30"/>
      <use x="1074.0703125" xlink:href="#Verdana-30"/>
      <use x="1137.64453125" xlink:href="#Verdana-30"/>
      <use x="1201.21875" xlink:href="#Verdana-30"/>
     </g>
    </g>
   </g>
   <g id="patch_3">
    <path d="
M72 43.2
L518.4 43.2" style="fill:none;stroke:#000000;"/>
   </g>
   <g id="patch_4">
    <path d="
M72 388.8
L72 43.2" style="fill:none;stroke:#000000;"/>
   </g>
   <g id="patch_5">
    <path d="
M72 388.8
L518.4 388.8" style="fill:none;stroke:#000000;"/>
   </g>
   <g id="patch_6">
    <path d="
M518.4 388.8
L518.4 43.2" style="fill:none;stroke:#000000;"/>
   </g>
   <g id="text_15">
    <!-- Exponential Data Profile T-0.1000000 -->
    <defs>
     <path d="
M57.6719 0
L9.76562 0
L9.76562 72.7031
L57.6719 72.7031
L57.6719 64.1094
L19.4375 64.1094
L19.4375 44.1875
L57.6719 44.1875
L57.6719 35.5938
L19.4375 35.5938
L19.4375 8.59375
L57.6719 8.59375
z
" id="Verdana-45"/>
     <path d="
M57.0312 27.9375
Q57.0312 21.2969 55.125 15.7969
Q53.2188 10.2969 49.75 6.5
Q46.5312 2.875 42.1562 0.890625
Q37.7969 -1.07812 32.9062 -1.07812
Q28.6562 -1.07812 25.2188 -0.140625
Q21.7812 0.78125 18.2188 2.73438
L18.2188 -20.125
L9.03125 -20.125
L9.03125 54.5469
L18.2188 54.5469
L18.2188 48.8281
Q21.875 51.9062 26.4375 53.9844
Q31 56.0625 36.1875 56.0625
Q46.0469 56.0625 51.5312 48.6094
Q57.0312 41.1562 57.0312 27.9375
M47.5625 27.6875
Q47.5625 37.5469 44.1875 42.4219
Q40.8281 47.3125 33.8438 47.3125
Q29.8906 47.3125 25.875 45.5938
Q21.875 43.8906 18.2188 41.1094
L18.2188 10.2031
Q22.125 8.45312 24.9219 7.8125
Q27.7344 7.17188 31.2969 7.17188
Q38.9688 7.17188 43.2656 12.3438
Q47.5625 17.5312 47.5625 27.6875" id="Verdana-70"/>
    </defs>
    <g transform="translate(159.89175 38.2)scale(0.144 -0.144)">
     <use xlink:href="#Verdana-45"/>
     <use x="63.232421875" xlink:href="#Verdana-78"/>
     <use x="122.412109375" xlink:href="#Verdana-70"/>
     <use x="184.716796875" xlink:href="#Verdana-6f"/>
     <use x="245.41015625" xlink:href="#Verdana-6e"/>
     <use x="308.69140625" xlink:href="#Verdana-65"/>
     <use x="368.26171875" xlink:href="#Verdana-6e"/>
     <use x="431.54296875" xlink:href="#Verdana-74"/>
     <use x="470.947265625" xlink:href="#Verdana-69"/>
     <use x="498.388671875" xlink:href="#Verdana-61"/>
     <use x="558.447265625" xlink:href="#Verdana-6c"/>
     <use x="585.888671875" xlink:href="#Verdana-20"/>
     <use x="621.044921875" xlink:href="#Verdana-44"/>
     <use x="698.095703125" xlink:href="#Verdana-61"/>
     <use x="758.154296875" xlink:href="#Verdana-74"/>
     <use x="797.55859375" xlink:href="#Verdana-61"/>
     <use x="857.6171875" xlink:href="#Verdana-20"/>
     <use x="892.7734375" xlink:href="#Verdana-50"/>
     <use x="953.076171875" xlink:href="#Verdana-72"/>
     <use x="995.751953125" xlink:href="#Verdana-6f"/>
     <use x="1056.4453125" xlink:href="#Verdana-66"/>
     <use x="1091.6015625" xlink:href="#Verdana-69"/>
     <use x="1119.04296875" xlink:href="#Verdana-6c"/>
     <use x="1146.484375" xlink:href="#Verdana-65"/>
     <use x="1206.0546875" xlink:href="#Verdana-20"/>
     <use x="1241.2109375" xlink:href="#Verdana-54"/>
     <use x="1295.45703125" xlink:href="#Verdana-2d"/>
     <use x="1340.8671875" xlink:href="#Verdana-30"/>
     <use x="1404.44140625" xlink:href="#Verdana-2e"/>
     <use x="1440.818359375" xlink:href="#Verdana-31"/>
     <use x="1504.392578125" xlink:href="#Verdana-30"/>
     <use x="1567.966796875" xlink:href="#Verdana-30"/>
     <use x="1631.541015625" xlink:href="#Verdana-30"/>
     <use x="1695.115234375" xlink:href="#Verdana-30"/>
     <use x="1758.689453125" xlink:href="#Verdana-30"/>
     <use x="1822.263671875" xlink:href="#Verdana-30"/>
    </g>
   </g>
   <g id="legend_1">
    <g id="patch_7">
     <path d="
M79.2 159.919
L183.22 159.919
L183.22 50.4
L79.2 50.4
L79.2 159.919
z
" style="fill:#ffffff;stroke:#000000;"/>
    </g>
    <g id="line2d_30">
     <path d="
M89.28 62.0617
L109.44 62.0617" style="fill:none;stroke:#0000ff;stroke-dasharray:6.000000,2.000000;stroke-dashoffset:0.0;"/>
    </g>
    <g id="line2d_31"/>
    <g id="text_16">
     <!-- AMPGO -->
     <defs>
      <path d="
M74.5156 0
L64.8438 0
L64.8438 62.6406
L44.625 20.0156
L38.875 20.0156
L18.7969 62.6406
L18.7969 0
L9.76562 0
L9.76562 72.7031
L22.9531 72.7031
L42.3281 32.2344
L61.0781 72.7031
L74.5156 72.7031
z
" id="Verdana-4d"/>
      <path d="
M70.4062 5.375
Q64.4531 2.64062 57.3906 0.609375
Q50.3438 -1.42188 43.75 -1.42188
Q35.25 -1.42188 28.1719 0.921875
Q21.0938 3.26562 16.1094 7.95312
Q11.0781 12.7031 8.34375 19.7969
Q5.60938 26.9062 5.60938 36.4219
Q5.60938 53.8594 15.7969 63.9375
Q25.9844 74.0312 43.75 74.0312
Q49.9531 74.0312 56.4219 72.5312
Q62.8906 71.0469 70.3594 67.4844
L70.3594 56
L69.4844 56
Q67.9688 57.1719 65.0781 59.0781
Q62.2031 60.9844 59.4219 62.25
Q56.0625 63.7656 51.7812 64.7656
Q47.5156 65.7656 42.0938 65.7656
Q29.8906 65.7656 22.7812 57.9219
Q15.6719 50.0938 15.6719 36.7188
Q15.6719 22.6094 23.0938 14.7656
Q30.5156 6.9375 43.3125 6.9375
Q48 6.9375 52.6562 7.85938
Q57.3281 8.79688 60.8438 10.25
L60.8438 28.0781
L41.3594 28.0781
L41.3594 36.5781
L70.4062 36.5781
z
" id="Verdana-47"/>
      <path d="
M67.0938 0
L56.7812 0
L49.6562 20.2656
L18.2188 20.2656
L11.0781 0
L1.26562 0
L27.7344 72.7031
L40.625 72.7031
z

M46.6875 28.5625
L33.9375 64.2656
L21.1406 28.5625
z
" id="Verdana-41"/>
     </defs>
     <g transform="translate(125.28 67.10175)scale(0.144 -0.144)">
      <use xlink:href="#Verdana-41"/>
      <use x="68.359375" xlink:href="#Verdana-4d"/>
      <use x="152.63671875" xlink:href="#Verdana-50"/>
      <use x="212.939453125" xlink:href="#Verdana-47"/>
      <use x="290.478515625" xlink:href="#Verdana-4f"/>
     </g>
    </g>
    <g id="line2d_32">
     <path d="
M89.28 83.1015
L109.44 83.1015" style="fill:none;stroke:#008000;stroke-dasharray:1.000000,1.000000;stroke-dashoffset:0.0;"/>
    </g>
    <g id="line2d_33"/>
    <g id="text_17">
     <!-- Anneal -->
     <g transform="translate(125.28 88.1415)scale(0.144 -0.144)">
      <use xlink:href="#Verdana-41"/>
      <use x="68.359375" xlink:href="#Verdana-6e"/>
      <use x="131.640625" xlink:href="#Verdana-6e"/>
      <use x="194.921875" xlink:href="#Verdana-65"/>
      <use x="254.4921875" xlink:href="#Verdana-61"/>
      <use x="314.55078125" xlink:href="#Verdana-6c"/>
     </g>
    </g>
    <g id="line2d_34">
     <path d="
M89.28 104.141
L109.44 104.141" style="fill:none;stroke:#ff0000;stroke-dasharray:3.000000,6.000000;stroke-dashoffset:0.0;"/>
    </g>
    <g id="line2d_35"/>
    <g id="text_18">
     <!-- BSA -->
     <defs>
      <path d="
M64.5938 22.3594
Q64.5938 16.9375 62.5469 12.7812
Q60.5 8.64062 57.0312 5.95312
Q52.9375 2.73438 48.0156 1.35938
Q43.1094 0 35.5469 0
L9.76562 0
L9.76562 72.7031
L31.2969 72.7031
Q39.2656 72.7031 43.2188 72.1094
Q47.1719 71.5312 50.7812 69.6719
Q54.7812 67.5781 56.5938 64.2812
Q58.4062 60.9844 58.4062 56.3906
Q58.4062 51.2188 55.7656 47.5781
Q53.125 43.9531 48.7344 41.75
L48.7344 41.3594
Q56.1094 39.8438 60.3438 34.8906
Q64.5938 29.9375 64.5938 22.3594
M48.3438 55.125
Q48.3438 57.7656 47.4531 59.5625
Q46.5781 61.375 44.625 62.5
Q42.3281 63.8125 39.0625 64.125
Q35.7969 64.4531 30.9531 64.4531
L19.4375 64.4531
L19.4375 43.4531
L31.9375 43.4531
Q36.4688 43.4531 39.1562 43.9219
Q41.8438 44.3906 44.1406 45.8438
Q46.4375 47.3125 47.3906 49.625
Q48.3438 51.9531 48.3438 55.125
M54.5469 21.9688
Q54.5469 26.375 53.2188 28.9531
Q51.9062 31.5469 48.4375 33.3438
Q46.0938 34.5781 42.75 34.9375
Q39.4062 35.2969 34.625 35.2969
L19.4375 35.2969
L19.4375 8.25
L32.2344 8.25
Q38.5781 8.25 42.625 8.90625
Q46.6875 9.57812 49.2656 11.3281
Q52 13.2344 53.2656 15.6719
Q54.5469 18.1094 54.5469 21.9688" id="Verdana-42"/>
      <path d="
M62.5938 20.75
Q62.5938 16.5 60.6094 12.3438
Q58.6406 8.20312 55.0781 5.32812
Q51.1719 2.20312 45.9688 0.4375
Q40.7656 -1.3125 33.4531 -1.3125
Q25.5938 -1.3125 19.3125 0.140625
Q13.0312 1.60938 6.54688 4.5
L6.54688 16.6094
L7.23438 16.6094
Q12.75 12.0156 19.9688 9.51562
Q27.2031 7.03125 33.5469 7.03125
Q42.5312 7.03125 47.5312 10.3906
Q52.5469 13.7656 52.5469 19.3906
Q52.5469 24.2188 50.1719 26.5156
Q47.7969 28.8125 42.9688 30.0781
Q39.3125 31.0625 35.0312 31.6875
Q30.7656 32.3281 25.9844 33.2969
Q16.3125 35.3594 11.6406 40.3125
Q6.98438 45.2656 6.98438 53.2188
Q6.98438 62.3594 14.6875 68.1875
Q22.4062 74.0312 34.2812 74.0312
Q41.9375 74.0312 48.3281 72.5625
Q54.7344 71.0938 59.6719 68.9531
L59.6719 57.5156
L58.9844 57.5156
Q54.8281 61.0312 48.0625 63.3438
Q41.3125 65.6719 34.2344 65.6719
Q26.4688 65.6719 21.75 62.4531
Q17.0469 59.2344 17.0469 54.1562
Q17.0469 49.6094 19.3906 47.0156
Q21.7344 44.4375 27.6406 43.0625
Q30.7656 42.3906 36.5156 41.4062
Q42.2812 40.4375 46.2969 39.4062
Q54.3906 37.25 58.4844 32.9062
Q62.5938 28.5625 62.5938 20.75" id="Verdana-53"/>
     </defs>
     <g transform="translate(125.28 109.18125)scale(0.144 -0.144)">
      <use xlink:href="#Verdana-42"/>
      <use x="68.5546875" xlink:href="#Verdana-53"/>
      <use x="135.9140625" xlink:href="#Verdana-41"/>
     </g>
    </g>
    <g id="line2d_36">
     <path d="
M89.28 125.181
L109.44 125.181" style="fill:none;stroke:#00bfbf;stroke-dasharray:5.000000,1.000000,2.000000,1.000000,5.000000,1.000000;stroke-dashoffset:0.0;"/>
    </g>
    <g id="line2d_37"/>
    <g id="text_19">
     <!-- Cuckoo -->
     <defs>
      <path d="
M65.9219 5.28125
Q63.2344 4.10938 61.0625 3.07812
Q58.8906 2.04688 55.375 0.921875
Q52.3906 0 48.8906 -0.65625
Q45.4062 -1.3125 41.2188 -1.3125
Q33.2969 -1.3125 26.8281 0.90625
Q20.3594 3.125 15.5781 7.85938
Q10.8906 12.5 8.25 19.6562
Q5.60938 26.8125 5.60938 36.2812
Q5.60938 45.2656 8.14062 52.3438
Q10.6875 59.4219 15.4844 64.3125
Q20.125 69.0469 26.6875 71.5312
Q33.25 74.0312 41.2656 74.0312
Q47.125 74.0312 52.9531 72.6094
Q58.7969 71.1875 65.9219 67.625
L65.9219 56.1562
L65.1875 56.1562
Q59.1875 61.1875 53.2656 63.4688
Q47.3594 65.7656 40.625 65.7656
Q35.1094 65.7656 30.6875 63.9844
Q26.2656 62.2031 22.7969 58.4531
Q19.4375 54.7812 17.5469 49.1875
Q15.6719 43.6094 15.6719 36.2812
Q15.6719 28.6094 17.75 23.0938
Q19.8281 17.5781 23.0938 14.1094
Q26.5156 10.5 31.0781 8.76562
Q35.6406 7.03125 40.7188 7.03125
Q47.7031 7.03125 53.7969 9.42188
Q59.9062 11.8125 65.2344 16.6094
L65.9219 16.6094
z
" id="Verdana-43"/>
      <path d="
M58.5469 0
L46.4375 0
L24.5625 23.875
L18.6094 18.2188
L18.6094 0
L9.42188 0
L9.42188 75.9844
L18.6094 75.9844
L18.6094 27.25
L45.125 54.5469
L56.6875 54.5469
L31.3438 29.3438
z
" id="Verdana-6b"/>
     </defs>
     <g transform="translate(125.28 130.221)scale(0.144 -0.144)">
      <use xlink:href="#Verdana-43"/>
      <use x="69.82421875" xlink:href="#Verdana-75"/>
      <use x="133.10546875" xlink:href="#Verdana-63"/>
      <use x="185.205078125" xlink:href="#Verdana-6b"/>
      <use x="243.384765625" xlink:href="#Verdana-6f"/>
      <use x="304.078125" xlink:href="#Verdana-6f"/>
     </g>
    </g>
    <g id="line2d_38">
     <path d="
M89.28 146.221
L109.44 146.221" style="fill:none;stroke:#bf00bf;stroke-linecap:square;"/>
    </g>
    <g id="line2d_39"/>
    <g id="text_20">
     <!-- qABC -->
     <defs>
      <path d="
M53.2656 -20.125
L44.0938 -20.125
L44.0938 6.15625
Q39.8438 2.48438 35.6406 0.703125
Q31.4531 -1.07812 26.5625 -1.07812
Q16.8438 -1.07812 11.0625 6.42188
Q5.28125 13.9219 5.28125 27.0938
Q5.28125 34.125 7.29688 39.5156
Q9.32812 44.9219 12.6406 48.5781
Q15.875 52.1562 20.2188 54.1094
Q24.5625 56.0625 29.3906 56.0625
Q33.7969 56.0625 37.1875 55.0781
Q40.5781 54.1094 44.0938 52.2031
L44.6719 54.5469
L53.2656 54.5469
z

M44.0938 13.875
L44.0938 44.7344
Q40.2812 46.4375 37.3438 47.1094
Q34.4219 47.7969 31 47.7969
Q23.0469 47.7969 18.8906 42.4062
Q14.75 37.0156 14.75 27.5469
Q14.75 17.9688 18.0938 12.8125
Q21.4375 7.67188 28.6094 7.67188
Q32.625 7.67188 36.625 9.40625
Q40.625 11.1406 44.0938 13.875" id="Verdana-71"/>
     </defs>
     <g transform="translate(125.28 151.26075)scale(0.144 -0.144)">
      <use xlink:href="#Verdana-71"/>
      <use x="62.3046875" xlink:href="#Verdana-41"/>
      <use x="130.6640625" xlink:href="#Verdana-42"/>
      <use x="199.21875" xlink:href="#Verdana-43"/>
     </g>
    </g>
   </g>
  </g>
 </g>
 <defs>
  <clipPath id="p7ff5b81e1d">
   <rect height="345.6" width="446.4" x="72.0" y="43.2"/>
  </clipPath>
 </defs>
</svg>
