<?xml version="1.0" encoding="utf-8" standalone="no"?>
<!DOCTYPE svg PUBLIC "-//W3C//DTD SVG 1.1//EN"
  "http://www.w3.org/Graphics/SVG/1.1/DTD/svg11.dtd">
<!-- Created with matplotlib (http://matplotlib.org/) -->
<svg height="432pt" version="1.1" viewBox="0 0 576 432" width="576pt" xmlns="http://www.w3.org/2000/svg" xmlns:xlink="http://www.w3.org/1999/xlink">
 <defs>
  <style type="text/css">
*{stroke-linecap:butt;stroke-linejoin:round;}
  </style>
 </defs>
 <g id="figure_1">
  <g id="patch_1">
   <path d="
M0 432
L576 432
L576 0
L0 0
z
" style="fill:#ffffff;"/>
  </g>
  <g id="axes_1">
   <g id="patch_2">
    <path d="
M72 388.8
L518.4 388.8
L518.4 43.2
L72 43.2
z
" style="fill:#ffffff;"/>
   </g>
   <g id="line2d_1">
    <path clip-path="url(#p7ff5b81e1d)" d="
M72 43.2001
L518.311 43.2001
L518.311 43.2001" style="fill:none;stroke:#0000ff;stroke-dasharray:6.000000,2.000000;stroke-dashoffset:0.0;"/>
   </g>
   <g id="line2d_2">
    <path clip-path="url(#p7ff5b81e1d)" d="
M72 43.2001
L94.945 43.3106
L100.659 43.5358
L103.427 43.7664
L107.891 44.4021
L111.908 45.3322
L117.444 47.385
L118.336 47.8312
L120.211 48.8019
L121.461 49.6483
L122.89 50.5517
L127.711 54.6402
L129.586 56.6602
L131.282 58.6957
L131.907 59.437
L132.264 59.8002
L132.978 60.7216
L133.335 61.2979
L133.782 61.9095
L136.728 66.3468
L137.174 67.0604
L138.246 68.7123
L138.692 69.4777
L139.942 71.5769
L140.388 72.2906
L140.924 73.1318
L141.371 73.9912
L141.817 74.8114
L142.085 75.2257
L147.084 85.3863
L147.531 86.3769
L148.156 87.8445
L148.424 88.4873
L150.031 92.4296
L153.066 99.8236
L153.602 101.502
L153.959 102.336
L154.227 102.826
L155.923 107.31
L156.548 109.191
L159.762 117.991
L160.476 119.841
L161.191 121.988
L162.976 126.772
L163.333 127.638
L163.601 128.253
L165.833 134.934
L166.28 136.12
L167.262 138.899
L167.53 139.848
L170.476 148.474
L171.012 150.538
L171.369 151.455
L171.815 152.743
L172.44 154.554
L173.422 157.453
L173.958 159.087
L176.815 167.516
L177.618 169.713
L177.975 170.66
L179.404 174.87
L180.297 177.756
L182.082 182.981
L182.618 184.759
L183.064 185.903
L183.421 186.882
L183.868 188.088
L184.136 188.556
L184.404 189.306
L184.671 189.987
L185.475 193.022
L185.653 193.468
L186.011 194.663
L186.903 197.212
L187.171 198.041
L187.35 198.461
L187.618 199.33
L193.421 216.09
L193.599 216.426
L193.956 217.574
L194.135 218.289
L194.581 219.602
L196.01 222.875
L196.367 224.084
L196.546 224.383
L199.045 230.982
L199.224 231.325
L200.385 234.23
L200.831 235.287
L201.456 236.876
L202.974 240.411
L203.152 240.693
L203.867 242.819
L204.045 243.148
L204.402 244.239
L205.206 246.215
L205.563 247.24
L205.92 248.247
L206.634 250.405
L206.991 251.222
L207.527 252.767
L207.795 253.441
L208.331 254.434
L208.688 255.105
L209.402 257.052
L209.759 257.742
L210.027 258.403
L210.473 259.499
L211.902 263.058
L212.17 263.781
L213.33 266.025
L213.598 266.644
L213.955 267.199
L214.491 268.369
L214.759 268.756
L215.205 269.739
L215.919 271.027
L216.455 271.969
L216.901 272.873
L217.169 273.81
L217.884 275.071
L218.241 276.213
L218.33 276.296
L218.687 277.144
L218.866 277.452
L219.312 278.323
L219.58 278.901
L219.758 279.309
L220.026 279.797
L220.383 280.707
L221.544 282.925
L221.812 283.628
L221.901 283.789
L222.169 284.532
L222.437 284.889
L222.972 285.802
L223.33 286.393
L224.312 288.502
L225.026 290.067
L225.383 290.653
L226.097 291.732
L226.454 292.43
L226.722 292.788
L227.615 294.638
L229.133 297.368
L229.579 298.139
L230.204 299.194
L230.74 300.137
L230.829 300.212
L231.097 300.655
L232.525 303.298
L232.883 303.958
L233.686 305.016
L234.757 306.945
L235.115 307.928
L235.74 309.09
L236.007 309.357
L237.972 312.609
L238.239 312.901
L238.596 313.512
L239.132 314.116
L239.489 314.617
L240.025 315.296
L240.561 315.866
L240.739 316.059
L241.364 316.923
L241.543 317.123
L241.811 317.384
L242.168 317.944
L242.614 318.564
L242.882 318.801
L243.418 319.384
L243.596 319.583
L244.043 320.192
L244.935 321.171
L245.203 321.686
L247.971 325.313
L249.756 327.474
L249.935 327.718
L250.649 328.604
L250.828 328.896
L251.006 329.041
L251.185 329.317
L251.364 329.461
L251.542 329.781
L251.631 329.858
L251.81 330.285
L251.988 330.444
L252.346 330.961
L252.792 331.31
L253.149 331.8
L253.863 332.519
L254.488 332.935
L255.203 333.833
L255.649 334.419
L256.274 335.176
L256.452 335.371
L257.167 336.067
L257.256 336.105
L257.613 336.532
L260.47 339.446
L260.827 339.797
L261.631 340.601
L261.809 340.937
L261.899 340.97
L262.166 341.322
L262.702 341.604
L263.148 341.94
L263.416 342.216
L263.773 342.443
L264.22 342.839
L264.666 343.356
L265.291 343.969
L265.648 344.302
L266.184 344.884
L266.541 345.155
L266.898 345.532
L267.523 346.004
L268.416 346.835
L268.684 347.105
L269.487 347.675
L270.469 348.58
L271.184 349.117
L271.452 349.504
L271.719 349.685
L272.255 349.971
L272.523 350.131
L272.701 350.233
L272.88 350.47
L273.326 350.703
L274.308 351.39
L275.558 352.411
L275.737 352.483
L276.005 352.729
L277.076 353.28
L277.344 353.516
L278.505 354.051
L278.772 354.289
L279.13 354.521
L280.38 355.226
L280.647 355.469
L282.076 356.19
L282.79 356.695
L283.236 356.883
L284.219 357.469
L284.754 357.641
L285.915 358.393
L286.272 358.569
L286.629 358.737
L287.254 359.02
L287.522 359.259
L288.147 359.605
L290.736 360.965
L291.004 361.131
L291.629 361.402
L291.897 361.617
L292.343 361.927
L293.414 362.417
L294.843 362.982
L296.271 363.55
L296.539 363.71
L296.986 363.875
L297.432 364.168
L297.611 364.419
L300.289 365.491
L301.182 365.775
L301.628 366.006
L302.075 366.148
L302.432 366.312
L303.682 367.024
L304.307 367.233
L304.664 367.365
L305.556 367.632
L311.36 369.812
L311.717 370.066
L313.86 370.683
L315.377 371.147
L317.074 371.591
L317.252 371.761
L318.056 371.976
L318.413 372.127
L322.073 373.307
L325.466 374.033
L327.876 374.57
L328.68 374.727
L329.751 374.946
L339.394 376.837
L341.179 377.214
L341.447 377.306
L341.983 377.423
L344.393 377.73
L344.661 377.825
L345.911 378.001
L346.893 378.196
L349.304 378.486
L350.286 378.633
L357.875 379.746
L358.053 379.897
L359.392 380.088
L359.749 380.166
L361.446 380.42
L361.803 380.493
L363.856 380.753
L364.392 380.818
L367.249 381.157
L367.695 381.213
L368.588 381.353
L371.177 381.651
L371.534 381.732
L378.23 382.371
L383.587 382.802
L384.034 382.865
L386.087 383.018
L388.319 383.173
L392.337 383.452
L395.64 383.687
L398.854 383.881
L402.782 384.119
L408.318 384.437
L415.103 384.807
L416.442 384.911
L422.87 385.195
L424.477 385.276
L430.548 385.519
L437.423 385.81
L438.048 385.841
L450.726 386.261
L451.529 386.325
L494.741 387.272
L508.311 387.458
L518.311 387.591
L518.311 387.591" style="fill:none;stroke:#008000;stroke-dasharray:1.000000,1.000000;stroke-dashoffset:0.0;"/>
   </g>
   <g id="line2d_3">
    <path clip-path="url(#p7ff5b81e1d)" d="
M72 43.2001
L90.481 43.3259
L102.534 43.6077
L103.069 43.6926
L106.194 43.8056
L107.087 43.8325
L110.658 43.9885
L114.229 44.1489
L116.64 44.244
L117.086 44.3493
L118.068 44.4195
L120.122 44.5315
L120.747 44.5711
L125.836 44.9056
L133.96 45.4729
L135.121 45.5847
L136.371 45.6693
L138.781 45.8041
L140.656 45.9526
L142.62 46.1028
L143.335 46.1368
L145.567 46.3491
L146.638 46.5722
L147.888 46.6658
L148.334 46.8169
L149.406 46.9268
L150.834 47.1344
L151.102 47.2182
L160.387 48.1496
L160.923 48.2248
L161.816 48.369
L162.441 48.4797
L163.601 48.6102
L164.762 48.8412
L165.744 49.0934
L166.994 49.2244
L167.172 49.3553
L168.512 49.4974
L168.869 49.6152
L170.297 49.7712
L170.654 49.9251
L171.815 50.1029
L172.44 50.2111
L174.047 50.645
L174.315 50.7535
L175.208 50.9253
L175.565 51.0983
L179.315 51.826
L179.761 51.9343
L180.832 52.0265
L181.725 52.3008
L182.618 52.4435
L182.975 52.5962
L183.868 52.7897
L184.761 52.964
L185.832 53.09
L186.457 53.1985
L186.993 53.3439
L187.439 53.4322
L187.796 53.5209
L188.332 53.632
L189.225 53.9868
L190.742 54.2478
L191.278 54.3225
L191.635 54.3544
L191.903 54.5506
L193.064 54.8303
L193.599 54.9417
L194.314 55.052
L195.474 55.1821
L195.742 55.244
L197.081 55.5459
L197.617 55.7303
L198.063 55.8769
L198.51 55.974
L198.867 56.0666
L200.385 56.5577
L201.01 56.7617
L201.902 56.9795
L203.063 57.1536
L203.331 57.2055
L204.224 57.2902
L205.563 57.6804
L206.188 57.7629
L206.634 57.8803
L208.063 58.3283
L208.331 58.457
L209.223 58.7346
L209.58 58.8579
L212.259 59.6219
L213.152 59.6945
L213.955 60.0397
L214.402 60.1929
L215.205 60.3717
L218.419 61.0228
L219.758 61.4349
L220.383 61.5577
L220.919 61.6689
L221.544 61.9564
L222.615 62.1975
L223.151 62.313
L223.776 62.4318
L224.669 62.8429
L225.74 63.101
L227.169 63.6264
L227.615 63.7543
L228.597 64.0412
L230.918 64.6485
L231.722 65.0658
L232.079 65.1913
L232.704 65.3044
L233.061 65.4809
L233.954 65.648
L235.115 66.0429
L236.543 66.275
L236.811 66.4016
L238.15 66.7439
L238.507 66.91
L238.954 67.0283
L239.311 67.1807
L240.025 67.2834
L241.275 67.7227
L241.632 67.841
L241.989 68.0405
L242.436 68.2956
L243.328 68.5174
L243.507 68.7311
L243.864 68.9682
L244.132 69.1874
L245.471 69.6743
L246.453 69.9949
L246.989 70.1034
L247.346 70.4599
L247.524 70.5251
L247.792 70.6824
L248.417 70.8513
L249.31 71.3514
L249.578 71.5129
L250.024 71.6935
L250.739 71.9228
L251.006 72.083
L251.453 72.1886
L252.078 72.3351
L254.042 72.8907
L254.399 73.0953
L254.756 73.1528
L255.024 73.2601
L255.738 73.4838
L255.917 73.5738
L256.363 73.8936
L256.81 74.0096
L257.077 74.0758
L257.702 74.1988
L258.06 74.4189
L259.488 75.0326
L259.845 75.3125
L262.434 76.1689
L262.97 76.312
L263.238 76.4422
L263.327 76.4603
L263.506 76.6948
L263.773 76.7832
L264.041 76.9323
L264.756 77.1085
L265.023 77.3916
L267.523 78.4577
L267.791 78.519
L268.148 78.7008
L268.505 78.948
L268.952 79.1655
L269.934 79.48
L270.291 79.6289
L270.469 79.7892
L271.094 79.9212
L271.273 80.0283
L271.362 80.0317
L271.541 80.1709
L272.166 80.2862
L272.434 80.5533
L272.791 80.7751
L273.059 80.8902
L273.505 81.0577
L274.13 81.2399
L274.398 81.4141
L274.844 81.705
L275.112 81.8939
L275.558 81.9784
L275.826 82.1651
L276.451 82.4678
L277.255 82.7092
L277.79 83.306
L279.13 83.8223
L279.487 83.9776
L279.665 84.0787
L279.844 84.1655
L280.112 84.2977
L280.915 84.4368
L281.183 84.5676
L281.451 84.6628
L281.719 84.8113
L282.433 84.9566
L282.879 85.1085
L283.058 85.1844
L283.236 85.4483
L283.683 85.6221
L284.04 85.7705
L284.397 85.8818
L284.844 86.2036
L285.201 86.2936
L285.379 86.3823
L286.183 86.5532
L286.54 86.8599
L288.95 88.0704
L289.308 88.1696
L290.022 88.3583
L290.647 88.8584
L291.986 89.3002
L292.343 89.5728
L293.504 89.9993
L293.772 90.4122
L294.664 90.7217
L295.646 91.3466
L295.825 91.5416
L296.271 91.6414
L296.807 91.7541
L296.896 91.7725
L297.164 92.0937
L299.039 92.8975
L299.396 93.2847
L300.646 93.7329
L301.539 94.2375
L301.896 94.3307
L302.7 94.7826
L302.878 94.9498
L303.057 95.0645
L303.324 95.3106
L303.592 95.4129
L304.217 95.6068
L304.485 95.7506
L304.842 95.8956
L305.199 96.0326
L305.824 96.1772
L306.092 96.356
L307.61 96.8226
L307.878 97.0522
L308.146 97.1882
L308.503 97.452
L309.663 97.9948
L311.806 99.089
L312.074 99.3584
L312.342 99.4363
L312.699 99.6136
L313.681 99.9953
L313.949 100.115
L314.127 100.172
L314.484 100.37
L315.645 100.871
L316.449 101.205
L316.627 101.291
L316.806 101.444
L317.252 101.773
L318.056 101.931
L318.502 102.091
L319.752 102.907
L320.198 103.032
L320.377 103.122
L320.734 103.302
L320.913 103.376
L321.18 103.635
L322.073 103.957
L322.43 104.145
L322.609 104.197
L322.788 104.347
L323.323 104.453
L324.484 105.008
L324.752 105.208
L325.644 105.581
L325.912 105.896
L326.448 106.184
L326.894 106.492
L327.341 106.618
L327.609 106.817
L328.859 107.357
L329.305 107.498
L330.376 108.094
L331.358 108.484
L331.626 108.639
L331.805 108.669
L332.073 108.834
L334.662 110.232
L334.84 110.427
L335.733 110.772
L336.18 110.839
L336.715 111.014
L337.697 111.286
L338.501 111.871
L339.036 112.166
L339.394 112.393
L339.84 112.548
L340.286 112.875
L340.465 112.962
L340.733 113.082
L341.09 113.272
L341.804 113.608
L342.072 113.871
L342.786 114.179
L343.054 114.314
L343.322 114.386
L343.679 114.797
L344.036 115.009
L344.304 115.111
L345.286 115.48
L345.732 115.745
L346.893 115.992
L347.607 116.609
L348.5 116.958
L349.304 117.729
L349.839 117.989
L350.464 118.163
L350.643 118.394
L351.089 118.708
L351.714 118.947
L351.982 119.015
L352.339 119.093
L352.607 119.345
L352.964 119.472
L353.321 119.624
L353.768 119.826
L354.036 119.876
L354.393 120.303
L356.357 121.153
L356.625 121.385
L357.964 122.223
L358.589 122.623
L358.857 122.745
L359.124 122.904
L359.392 123.026
L359.66 123.341
L361.535 124.075
L362.071 124.347
L363.053 124.775
L363.41 124.968
L364.124 125.15
L364.481 125.276
L364.749 125.366
L365.106 125.724
L365.999 126.002
L366.356 126.114
L366.624 126.236
L367.338 126.649
L369.66 127.79
L370.106 127.94
L370.463 128.215
L370.82 128.661
L371.177 128.915
L372.249 129.373
L372.784 129.534
L373.052 129.654
L373.499 129.878
L373.766 130
L374.034 130.17
L374.481 130.378
L374.748 130.534
L375.195 130.629
L376.445 131.214
L376.713 131.332
L378.677 132.061
L379.391 132.592
L379.748 132.705
L380.195 132.973
L380.462 133.106
L381.98 133.755
L382.605 133.915
L383.587 134.459
L383.855 134.491
L384.123 134.621
L384.569 134.728
L384.926 135.038
L385.73 135.33
L387.873 136.332
L388.051 136.368
L388.319 136.566
L388.765 136.788
L389.569 137.052
L390.015 137.295
L390.64 137.674
L390.997 137.847
L391.801 138.13
L391.98 138.47
L393.319 139.035
L393.676 139.346
L393.854 139.523
L394.301 139.66
L394.836 139.827
L395.104 139.861
L395.372 140.04
L395.997 140.301
L396.265 140.475
L397.336 140.829
L397.961 141.023
L398.765 141.396
L400.015 142.046
L400.729 142.314
L401.443 142.717
L402.068 142.969
L402.336 143.047
L402.604 143.372
L403.05 143.529
L403.675 143.72
L404.122 143.89
L404.389 144.054
L404.747 144.232
L405.372 144.545
L405.818 144.638
L406.264 145.017
L406.621 145.164
L406.889 145.407
L411.085 146.894
L411.264 146.958
L411.621 147.177
L412.157 147.354
L413.05 147.696
L413.407 147.888
L414.924 148.555
L415.907 149.055
L416.174 149.116
L416.799 149.431
L419.21 150.615
L419.567 150.875
L420.192 151.151
L420.549 151.45
L421.888 152.024
L422.067 152.064
L422.335 152.342
L423.228 152.627
L423.942 152.813
L424.21 152.911
L424.745 153.046
L425.37 153.202
L425.549 153.32
L426.62 153.808
L427.156 153.971
L428.495 154.763
L429.12 154.956
L430.459 155.375
L430.906 155.538
L432.066 156.071
L433.138 156.431
L433.405 156.547
L433.763 156.71
L434.03 156.833
L434.655 157.088
L434.834 157.294
L435.102 157.415
L435.459 157.569
L435.816 157.642
L435.995 157.762
L436.173 157.779
L436.441 158.067
L438.137 158.741
L438.494 159.061
L439.119 159.317
L440.459 159.704
L440.816 159.771
L441.619 159.991
L441.976 160.233
L442.512 160.399
L442.958 160.567
L443.762 160.828
L444.119 160.988
L444.565 161.117
L444.833 161.256
L445.28 161.371
L446.262 161.914
L446.619 161.976
L446.797 162.057
L446.887 162.059
L447.244 162.459
L447.869 162.772
L448.762 163.226
L449.029 163.535
L449.833 163.929
L450.726 164.365
L451.708 164.917
L452.422 165.057
L453.315 165.489
L454.476 165.837
L454.654 165.962
L454.833 166.045
L455.19 166.163
L455.904 166.41
L457.332 167.11
L457.779 167.29
L458.136 167.518
L458.582 167.698
L458.94 167.76
L459.297 167.935
L459.654 168.164
L459.922 168.284
L461.529 168.724
L465.1 170.326
L465.546 170.75
L466.975 171.359
L467.243 171.543
L467.689 171.666
L468.314 171.888
L470.278 172.755
L470.724 173.048
L471.974 173.399
L472.242 173.49
L473.403 173.899
L473.939 174.045
L474.296 174.213
L475.188 174.482
L475.456 174.659
L475.635 174.744
L475.813 174.934
L477.331 175.413
L477.688 175.565
L478.045 175.707
L479.474 176.364
L479.742 176.605
L481.26 177.148
L482.152 177.526
L482.688 177.693
L482.956 177.915
L483.938 178.354
L484.831 178.618
L485.099 178.738
L488.045 179.798
L488.491 180.154
L489.116 180.488
L489.295 180.592
L490.277 180.958
L490.634 181.117
L491.17 181.291
L491.795 181.542
L492.241 181.779
L492.598 181.882
L494.473 182.529
L497.687 183.95
L498.937 184.414
L499.116 184.544
L500.812 185.218
L501.169 185.373
L501.615 185.479
L501.883 185.653
L505.097 187.084
L505.454 187.24
L506.169 187.573
L506.615 187.806
L507.597 187.981
L507.865 188.23
L509.115 188.598
L509.472 188.775
L510.008 188.979
L511.436 189.642
L511.972 189.927
L512.865 190.099
L513.222 190.318
L514.293 190.769
L514.829 190.936
L515.989 191.765
L516.168 191.818
L516.882 192.227
L517.061 192.317
L517.329 192.447
L518.311 192.656
L518.311 192.656" style="fill:none;stroke:#ff0000;stroke-dasharray:3.000000,6.000000;stroke-dashoffset:0.0;"/>
   </g>
   <g id="line2d_4">
    <path clip-path="url(#p7ff5b81e1d)" d="
M72 43.2001
L80.7494 43.3165
L91.2845 43.7844
L92.713 43.8038
L94.0522 43.9011
L95.5699 44.0662
L97.3555 44.1535
L97.7126 44.2413
L100.212 44.3928
L100.837 44.4994
L101.82 44.6636
L102.712 44.8102
L104.319 44.9041
L106.373 45.3165
L107.801 45.3613
L108.158 45.5336
L110.48 45.8318
L111.372 45.9344
L112.533 46.2347
L113.247 46.3946
L115.122 46.4831
L116.283 46.9157
L117.176 47.0757
L118.515 47.1577
L119.318 47.5232
L120.658 47.9039
L122.086 47.97
L123.068 48.4177
L124.229 48.6327
L125.568 48.7081
L126.639 49.2318
L127.979 49.4847
L129.228 49.5473
L129.853 49.9904
L130.121 50.1251
L130.568 50.3277
L130.836 50.4757
L132.71 50.5738
L133.425 50.9719
L133.782 51.128
L134.675 51.3195
L136.371 51.3959
L136.817 51.6969
L138.246 52.3101
L139.764 52.311
L140.031 52.5836
L141.281 53.2263
L141.549 53.3908
L143.424 53.4669
L143.96 53.7957
L145.21 54.6783
L146.995 54.7679
L147.263 55.0603
L148.067 55.664
L148.334 55.9855
L148.87 56.3134
L150.566 56.4118
L152.441 57.7137
L154.227 57.8319
L155.298 58.7797
L155.923 59.1123
L157.709 59.1998
L158.423 59.911
L158.691 60.2556
L159.048 60.4432
L159.316 60.7456
L159.584 60.8062
L161.28 60.8503
L162.084 61.6936
L162.976 62.5288
L164.851 62.6082
L165.923 63.6241
L166.28 63.8391
L166.548 64.06
L168.333 64.0687
L168.869 64.6239
L169.315 65.0344
L170.029 65.8584
L170.208 65.9356
L171.904 65.9507
L172.44 66.6125
L173.779 67.7527
L175.476 67.761
L175.833 68.2292
L176.815 69.2448
L176.993 69.4782
L177.35 69.6662
L179.136 69.7519
L179.493 70.229
L180.029 70.7505
L180.297 70.9687
L181.011 71.5304
L182.618 71.5505
L183.332 72.4858
L183.6 72.9176
L184.046 73.3501
L184.493 73.738
L186.278 73.8159
L187.528 75.0244
L187.707 75.1681
L187.975 75.4093
L189.76 75.4242
L191.367 77.2358
L191.635 77.4322
L193.421 77.5376
L193.867 78.0543
L194.581 78.9402
L195.117 79.5831
L196.992 79.7194
L197.438 80.12
L197.706 80.5674
L198.331 81.3193
L198.688 81.7176
L200.474 81.746
L201.01 82.4323
L201.367 82.7955
L201.635 83.0989
L202.26 83.7789
L204.134 83.8953
L204.581 84.5537
L205.92 85.9545
L207.616 85.9768
L208.152 86.6659
L209.58 87.9872
L211.188 88.0058
L211.634 88.5301
L211.723 88.584
L212.08 89.1556
L212.973 90.0513
L214.848 90.1352
L215.83 91.2115
L216.009 91.3368
L216.544 91.9946
L218.419 92.0509
L218.776 92.4776
L218.955 92.7043
L219.223 92.9865
L219.312 93.0056
L220.116 94.0871
L221.901 94.1159
L222.437 95.1615
L223.597 96.3826
L223.776 96.6434
L225.472 96.6693
L225.829 97.1321
L226.276 97.5888
L227.436 98.8927
L229.133 98.9941
L229.311 99.1384
L229.758 99.9281
L230.918 101.299
L232.704 101.409
L234.222 103.23
L234.579 103.437
L236.364 103.661
L236.543 103.83
L236.9 104.293
L237.079 104.534
L237.972 105.754
L239.846 105.847
L240.382 106.609
L240.561 106.772
L240.828 107.129
L241.721 108.148
L243.418 108.207
L245.203 110.865
L246.989 111.061
L248.328 112.886
L248.596 113.181
L248.774 113.385
L250.471 113.403
L251.274 114.555
L252.256 115.589
L254.042 115.63
L254.667 116.494
L255.917 117.748
L257.613 117.78
L257.881 118.185
L258.595 119.196
L258.952 119.826
L259.399 120.239
L261.274 120.302
L261.541 120.744
L261.809 121.03
L262.256 121.57
L263.059 122.397
L264.845 122.493
L265.113 122.758
L265.559 123.597
L266.809 124.758
L268.505 124.898
L268.862 125.216
L269.398 125.951
L269.577 126.144
L270.291 126.933
L271.898 126.975
L273.059 128.354
L273.951 128.948
L275.558 129.007
L276.808 130.591
L277.255 131.25
L279.04 131.29
L279.844 132.436
L280.558 133.219
L280.915 133.645
L282.701 133.739
L283.147 134.211
L283.415 134.504
L283.772 135.072
L284.665 135.477
L286.183 135.522
L286.629 136.235
L288.147 137.842
L289.754 137.873
L290.557 138.861
L291.629 139.92
L293.325 139.977
L295.2 141.818
L296.896 141.88
L297.164 142.165
L298.325 143.617
L299.218 143.883
L300.646 144.042
L300.914 144.446
L301.182 144.711
L301.539 145.245
L302.075 145.791
L302.432 145.932
L304.217 146.09
L305.021 146.792
L305.556 147.257
L305.824 147.595
L307.61 147.667
L307.878 148.016
L308.681 148.795
L309.128 149.182
L309.485 149.452
L311.27 149.557
L311.985 150.404
L312.342 150.755
L312.52 150.862
L313.056 151.513
L314.931 151.629
L315.824 152.679
L316.092 152.932
L316.716 153.365
L318.413 153.493
L319.573 154.652
L320.198 155.015
L321.895 155.064
L322.788 155.882
L323.68 156.813
L325.555 156.88
L326.18 157.538
L326.627 158
L327.162 158.443
L327.43 158.507
L329.305 158.774
L329.751 159.182
L330.823 160.036
L332.698 160.136
L333.68 161.166
L334.037 161.427
L334.84 161.75
L336.269 161.861
L336.894 162.7
L337.162 162.888
L337.787 163.549
L338.144 163.723
L339.84 163.838
L340.197 164.209
L340.911 164.902
L341.09 165.098
L341.536 165.59
L343.411 165.66
L345.286 167.39
L346.982 167.457
L348.857 168.842
L350.464 168.9
L351.625 170.105
L352.339 170.589
L354.036 170.628
L355.91 172.315
L357.696 172.425
L358.053 172.661
L358.41 173.027
L359.303 173.814
L359.749 173.848
L361.267 173.956
L361.535 174.226
L361.892 174.51
L362.339 174.908
L363.053 175.312
L364.66 175.381
L364.749 175.382
L365.106 175.75
L366.713 177.028
L368.499 177.193
L370.106 178.453
L371.892 178.503
L372.07 178.648
L372.249 178.799
L373.052 179.49
L374.034 179.924
L375.552 180.047
L376.177 180.575
L376.534 180.745
L377.338 181.134
L379.123 181.235
L379.57 181.595
L379.927 181.827
L380.462 182.134
L382.069 182.36
L382.694 182.428
L383.319 182.898
L384.034 183.292
L384.48 183.6
L386.444 183.794
L388.051 184.911
L389.926 185.053
L391.265 186.123
L393.497 186.397
L394.033 186.787
L394.39 187.04
L394.836 187.406
L395.64 187.607
L396.979 187.74
L397.247 187.962
L398.854 188.971
L400.55 189.075
L401.711 189.868
L402.604 190.245
L404.3 190.414
L404.836 190.871
L405.639 191.343
L405.907 191.512
L407.871 191.722
L408.407 192.073
L408.675 192.278
L409.389 192.734
L411.443 192.992
L411.978 193.359
L412.96 193.93
L414.3 193.966
L414.924 194.081
L416.532 195.099
L418.585 195.277
L420.281 196.381
L421.978 196.492
L422.87 197.067
L423.317 197.278
L424.12 197.46
L425.638 197.592
L426.263 197.988
L426.799 198.256
L427.245 198.42
L429.209 198.572
L429.477 198.703
L430.191 199.019
L431.263 199.403
L432.78 199.531
L433.138 199.73
L434.477 200.422
L436.352 200.59
L437.066 201.091
L437.691 201.472
L438.673 201.581
L439.834 201.663
L441.441 202.547
L441.798 202.598
L443.405 202.732
L443.94 203.075
L445.101 203.675
L447.065 203.869
L448.94 204.729
L450.636 204.813
L451.172 205.078
L452.422 205.763
L453.672 205.812
L454.208 205.888
L455.1 206.402
L456.172 206.847
L457.957 207.07
L459.297 207.794
L459.743 207.848
L461.35 208.027
L463.046 208.778
L464.832 208.929
L465.457 209.248
L465.903 209.506
L466.439 209.694
L466.707 209.756
L468.403 209.874
L469.564 210.594
L470.903 210.833
L472.153 210.938
L472.689 211.22
L474.206 211.627
L475.546 211.749
L475.903 211.958
L477.42 212.581
L479.028 212.659
L479.474 212.931
L480.188 213.265
L481.081 213.552
L482.599 213.636
L484.295 214.4
L485.009 214.462
L486.259 214.577
L487.063 214.971
L488.491 215.341
L489.83 215.455
L490.545 215.829
L491.348 216.128
L492.152 216.215
L493.491 216.354
L495.634 217.069
L497.062 217.205
L498.669 217.818
L500.633 218.022
L502.33 218.677
L504.026 218.766
L504.562 218.986
L506.436 219.538
L507.776 219.666
L509.561 220.405
L511.347 220.568
L511.793 220.747
L512.597 221.087
L512.954 221.277
L513.936 221.323
L514.918 221.46
L515.811 221.772
L516.257 221.915
L516.704 222.046
L517.864 222.103
L518.311 222.14
L518.311 222.14" style="fill:none;stroke:#00bfbf;stroke-dasharray:5.000000,1.000000,2.000000,1.000000,5.000000,1.000000;stroke-dashoffset:0.0;"/>
   </g>
   <g id="line2d_5">
    <path clip-path="url(#p7ff5b81e1d)" d="
M72 43.2001
L112.89 43.3493
L121.283 43.5355
L123.425 43.651
L124.764 43.6846
L126.55 43.7985
L128.514 43.8854
L129.853 43.9893
L131.639 44.1504
L133.335 44.2725
L135.21 44.4827
L136.728 44.5976
L138.603 44.9395
L140.21 45.0832
L141.371 45.435
L141.817 45.5013
L143.692 45.652
L145.388 46.2732
L147.084 46.4011
L147.888 46.7588
L148.959 47.1407
L150.656 47.2635
L152.62 48.1679
L154.138 48.279
L156.012 49.4341
L157.709 49.5594
L159.673 50.7923
L161.28 50.8966
L161.637 51.2093
L162.084 51.6289
L163.244 52.4493
L164.851 52.5724
L166.19 53.9085
L166.815 54.2363
L168.333 54.3334
L168.78 54.8944
L169.137 55.3226
L170.208 56.4757
L171.904 56.5506
L172.351 57.1315
L173.779 59.0199
L175.565 59.2462
L176.368 60.4167
L177.261 61.7381
L179.047 61.9013
L180.922 64.8121
L182.707 65.1066
L183.154 65.7685
L183.957 67.2329
L184.493 68.0803
L186.278 68.3225
L187.618 70.6762
L188.064 71.4189
L189.582 71.5878
L189.76 71.6164
L191.724 75.4311
L192.885 75.5952
L193.421 75.7875
L194.046 77.3092
L194.403 78.0544
L195.117 79.6626
L196.01 79.7731
L196.903 79.9034
L197.617 81.7473
L197.974 82.5937
L198.778 84.2832
L200.474 84.5136
L200.742 85.195
L201.724 87.8735
L202.438 89.2047
L203.063 89.3509
L204.045 89.4462
L204.759 91.2297
L205.652 93.6747
L205.831 94.1871
L207.616 94.4441
L209.223 98.4724
L209.491 99.0698
L209.938 99.1847
L211.188 99.3497
L213.062 104.205
L213.598 104.322
L214.759 104.569
L215.294 106.3
L215.83 107.87
L216.544 110.247
L217.705 110.396
L218.419 110.729
L220.116 116.057
L220.919 116.178
L221.901 116.364
L223.687 122.064
L224.401 122.186
L225.383 122.293
L225.472 122.299
L226.276 124.888
L227.258 128.439
L227.615 128.53
L228.954 128.716
L229.044 128.736
L229.847 131.576
L230.829 135.099
L231.811 135.282
L232.615 135.437
L233.15 137.153
L233.597 138.611
L234.579 141.356
L236.186 141.639
L236.811 143.788
L237.882 147.337
L238.061 147.589
L238.507 147.629
L239.489 147.777
L239.757 147.829
L241.364 152.942
L241.632 153.687
L241.989 153.784
L243.328 154.116
L244.043 156.306
L245.203 159.857
L245.739 159.934
L246.007 160.004
L246.542 160.109
L246.9 160.196
L247.882 163.55
L248.507 165.256
L248.774 165.855
L249.042 165.993
L249.756 166.106
L250.114 166.206
L250.471 166.227
L251.453 169.909
L251.81 171.094
L252.256 172.646
L252.703 172.757
L253.238 172.866
L254.042 172.996
L254.756 175.343
L255.828 179.262
L256.631 179.382
L257.613 179.506
L258.774 183.422
L258.952 184.024
L259.399 185.688
L261.184 185.968
L261.988 188.609
L262.613 190.592
L263.059 191.901
L263.952 192.023
L264.22 192.101
L264.756 192.221
L265.113 193.277
L266.363 197.685
L266.63 198.22
L267.255 198.33
L268.059 198.42
L268.416 198.714
L268.862 200.26
L270.112 204.734
L271.005 204.833
L271.362 204.893
L271.898 204.949
L272.255 205.977
L272.88 207.983
L273.862 210.386
L274.844 210.554
L275.38 210.669
L275.469 210.715
L276.005 212.59
L277.255 216.726
L278.237 216.894
L279.04 216.956
L279.755 219.406
L280.201 220.984
L280.826 222.898
L281.808 223.042
L282.254 223.127
L282.522 223.216
L282.612 223.242
L283.236 225.184
L283.951 227.032
L284.308 227.896
L284.486 228.141
L286.183 228.513
L286.361 229.154
L287.165 231.902
L287.433 232.863
L287.879 234.298
L288.058 234.561
L289.129 234.709
L289.397 234.791
L289.754 234.85
L290.022 235.514
L291.45 240.137
L291.629 240.342
L293.236 240.595
L293.414 240.955
L294.218 243.353
L294.575 244.306
L295.111 245.937
L296.628 246.078
L296.896 246.128
L297.253 247.403
L297.611 248.671
L297.789 249.13
L298.86 251.674
L300.2 251.788
L300.468 251.822
L301.182 253.686
L301.36 254.134
L301.628 254.98
L302.075 256.142
L302.253 256.724
L303.324 256.832
L304.039 256.943
L305.378 261.316
L305.467 261.449
L305.824 262.672
L307.61 262.874
L309.485 267.133
L311.181 267.295
L311.36 267.817
L311.628 268.487
L311.895 269.059
L312.163 269.83
L312.252 269.922
L312.52 270.589
L312.967 271.468
L314.395 271.572
L314.842 271.901
L316.627 276.2
L317.788 276.306
L318.234 276.347
L318.324 276.348
L319.841 279.826
L320.198 280.305
L321.805 280.44
L321.895 280.446
L322.341 281.43
L323.68 284.272
L325.466 284.418
L325.823 285.45
L326.805 287.3
L327.252 288.329
L329.037 288.552
L329.305 289.057
L329.573 289.687
L329.841 290.161
L330.376 291.517
L330.823 292.212
L332.162 292.322
L332.698 292.468
L334.394 295.823
L336.18 295.981
L336.537 296.69
L336.626 296.829
L337.072 298.192
L338.233 299.823
L339.572 299.94
L339.751 300.022
L340.644 301.727
L341.268 303.091
L341.626 303.328
L343.143 303.441
L343.322 303.471
L343.679 304.035
L343.858 304.318
L344.215 304.922
L344.929 306.248
L345.197 306.444
L346.893 306.584
L347.875 308.569
L348.5 309.529
L348.768 309.806
L349.839 309.936
L350.464 309.963
L351.179 311.053
L351.446 311.44
L352.339 312.673
L354.036 312.775
L355.91 315.798
L357.607 315.913
L357.964 316.544
L358.142 316.873
L358.5 317.368
L358.767 317.862
L359.035 318.405
L359.303 318.836
L359.571 318.895
L360.553 319.003
L360.821 319.066
L361.178 319.097
L362.071 320.337
L362.249 320.656
L362.517 320.976
L362.785 321.296
L363.053 321.644
L364.749 321.734
L365.196 322.431
L365.463 322.944
L365.731 323.332
L366.178 323.898
L366.624 324.261
L367.695 324.324
L368.41 324.441
L368.856 324.941
L369.749 325.954
L369.927 326.334
L370.195 326.512
L371.802 326.688
L371.892 326.688
L372.159 327.053
L372.963 327.934
L373.499 328.636
L373.856 328.83
L375.463 328.896
L375.82 329.561
L376.534 330.335
L376.802 330.653
L377.338 330.971
L378.855 331.108
L379.123 331.191
L379.57 331.696
L380.016 332.342
L380.552 332.94
L380.82 333.346
L382.784 333.546
L383.319 334.101
L383.676 334.471
L384.659 335.209
L386.176 335.246
L386.891 336.352
L387.337 336.713
L387.694 337.102
L388.051 337.352
L389.748 337.422
L390.462 338.419
L390.819 338.799
L391.622 339.604
L393.319 339.651
L395.015 341.507
L395.461 341.635
L396.89 341.673
L397.515 342.318
L397.961 342.672
L398.765 343.359
L400.729 343.565
L401.354 344.174
L402.247 345.009
L404.032 345.067
L405.907 346.421
L407.871 346.621
L408.943 347.422
L409.657 347.686
L411.175 347.721
L411.8 348.408
L412.157 348.799
L412.514 349.043
L412.782 349.365
L413.139 349.477
L414.746 349.549
L415.371 350.172
L415.907 350.553
L416.264 350.75
L416.621 350.931
L418.496 351.023
L420.192 352.126
L421.353 352.146
L421.978 352.244
L422.245 352.411
L422.424 352.533
L422.87 353.021
L423.228 353.284
L423.406 353.465
L423.942 353.628
L425.46 353.693
L427.334 354.833
L429.12 354.98
L429.566 355.203
L430.013 355.555
L431.084 356.079
L432.959 356.314
L433.763 356.701
L434.03 356.846
L434.209 356.994
L435.191 357.167
L436.352 357.272
L436.709 357.452
L436.887 357.621
L437.334 357.924
L438.316 358.192
L439.744 358.262
L440.012 358.442
L441.619 359.128
L443.405 359.196
L443.673 359.37
L443.851 359.468
L444.208 359.749
L445.101 360.19
L446.887 360.237
L447.065 360.42
L447.78 360.703
L448.762 361.272
L450.547 361.393
L450.904 361.579
L452.69 362.251
L454.476 362.431
L454.743 362.591
L455.19 362.787
L455.904 363.077
L457.69 363.151
L459.475 363.83
L461.707 364.041
L463.404 364.65
L464.832 364.754
L465.368 365.024
L465.725 365.16
L466.528 365.593
L468.492 365.702
L469.832 366.267
L470.546 366.37
L472.064 366.483
L472.421 366.589
L473.939 367.009
L475.635 367.061
L476.528 367.561
L477.42 367.779
L479.295 367.876
L480.01 368.194
L480.992 368.787
L482.777 368.842
L483.045 368.965
L484.563 369.63
L486.527 369.736
L487.598 370.116
L488.045 370.311
L490.188 370.458
L490.902 370.677
L491.973 370.864
L493.402 370.89
L493.669 371.092
L496.08 371.427
L497.062 371.543
L498.758 372.02
L500.901 372.127
L501.972 372.402
L502.508 372.6
L504.562 372.717
L505.008 372.893
L505.187 372.912
L505.365 373.055
L507.419 373.228
L507.776 373.329
L510.097 373.718
L511.793 373.892
L513.4 374.277
L514.829 374.35
L515.454 374.529
L516.347 374.766
L518.043 374.821
L518.311 374.822
L518.311 374.822" style="fill:none;stroke:#bf00bf;stroke-linecap:square;"/>
   </g>
   <g id="matplotlib.axis_1">
    <g id="xtick_1">
     <g id="line2d_6">
      <defs>
       <path d="
M0 0
L0 -4" id="mc7db9fdffb" style="stroke:#000000;stroke-width:0.5;"/>
      </defs>
      <g>
       <use style="stroke:#000000;stroke-width:0.5;" x="72.0" xlink:href="#mc7db9fdffb" y="388.8"/>
      </g>
     </g>
     <g id="line2d_7">
      <defs>
       <path d="
M0 0
L0 4" id="m5a7d422ac3" style="stroke:#000000;stroke-width:0.5;"/>
      </defs>
      <g>
       <use style="stroke:#000000;stroke-width:0.5;" x="72.0" xlink:href="#m5a7d422ac3" y="43.2"/>
      </g>
     </g>
     <g id="text_1">
      <!-- 0 -->
      <defs>
       <path d="
M56.9844 36.375
Q56.9844 16.7969 50.8594 7.64062
Q44.7344 -1.51562 31.8438 -1.51562
Q18.75 -1.51562 12.7188 7.76562
Q6.6875 17.0469 6.6875 36.2812
Q6.6875 55.6719 12.7812 64.9219
Q18.8906 74.1719 31.8438 74.1719
Q44.9219 74.1719 50.9531 64.7656
Q56.9844 55.375 56.9844 36.375
M44.1406 14.2031
Q45.8438 18.1719 46.4531 23.5156
Q47.0781 28.8594 47.0781 36.375
Q47.0781 43.7969 46.4531 49.2656
Q45.8438 54.7344 44.0938 58.5469
Q42.3906 62.3125 39.4219 64.2031
Q36.4688 66.1094 31.8438 66.1094
Q27.25 66.1094 24.2344 64.2031
Q21.2344 62.3125 19.4844 58.4531
Q17.8281 54.8281 17.2188 49.0156
Q16.6094 43.2188 16.6094 36.2812
Q16.6094 28.6562 17.1406 23.5312
Q17.6719 18.4062 19.4375 14.3594
Q21.0469 10.5469 24 8.54688
Q26.9531 6.54688 31.8438 6.54688
Q36.4219 6.54688 39.4531 8.45312
Q42.4844 10.3594 44.1406 14.2031" id="Verdana-30"/>
      </defs>
      <g transform="translate(68.9821875 401.918125)scale(0.12 -0.12)">
       <use xlink:href="#Verdana-30"/>
      </g>
     </g>
    </g>
    <g id="xtick_2">
     <g id="line2d_8">
      <g>
       <use style="stroke:#000000;stroke-width:0.5;" x="161.28" xlink:href="#mc7db9fdffb" y="388.8"/>
      </g>
     </g>
     <g id="line2d_9">
      <g>
       <use style="stroke:#000000;stroke-width:0.5;" x="161.28" xlink:href="#m5a7d422ac3" y="43.2"/>
      </g>
     </g>
     <g id="text_2">
      <!-- 1000 -->
      <defs>
       <path d="
M52.9375 0
L13.5781 0
L13.5781 7.42188
L28.7188 7.42188
L28.7188 56.1562
L13.5781 56.1562
L13.5781 62.7969
Q16.6562 62.7969 20.1719 63.2969
Q23.6875 63.8125 25.4844 64.7969
Q27.7344 66.0156 29.0312 67.8906
Q30.3281 69.7812 30.5156 72.9531
L38.0938 72.9531
L38.0938 7.42188
L52.9375 7.42188
z
" id="Verdana-31"/>
      </defs>
      <g transform="translate(147.2315625 401.918125)scale(0.12 -0.12)">
       <use xlink:href="#Verdana-31"/>
       <use x="63.57421875" xlink:href="#Verdana-30"/>
       <use x="127.1484375" xlink:href="#Verdana-30"/>
       <use x="190.72265625" xlink:href="#Verdana-30"/>
      </g>
     </g>
    </g>
    <g id="xtick_3">
     <g id="line2d_10">
      <g>
       <use style="stroke:#000000;stroke-width:0.5;" x="250.56" xlink:href="#mc7db9fdffb" y="388.8"/>
      </g>
     </g>
     <g id="line2d_11">
      <g>
       <use style="stroke:#000000;stroke-width:0.5;" x="250.56" xlink:href="#m5a7d422ac3" y="43.2"/>
      </g>
     </g>
     <g id="text_3">
      <!-- 2000 -->
      <defs>
       <path d="
M57.0781 0
L7.85938 0
L7.85938 10.2031
Q12.9844 14.5938 18.1406 18.9844
Q23.2969 23.3906 27.7344 27.7344
Q37.1094 36.8125 40.5781 42.1562
Q44.0469 47.5156 44.0469 53.7188
Q44.0469 59.375 40.3125 62.5625
Q36.5781 65.7656 29.8906 65.7656
Q25.4375 65.7656 20.2656 64.2031
Q15.0938 62.6406 10.1562 59.4219
L9.67188 59.4219
L9.67188 69.6719
Q13.1406 71.3906 18.9219 72.7969
Q24.7031 74.2188 30.125 74.2188
Q41.3125 74.2188 47.6562 68.8125
Q54 63.4219 54 54.2031
Q54 50.0469 52.9531 46.4531
Q51.9062 42.875 49.8594 39.6562
Q47.9531 36.625 45.3906 33.6875
Q42.8281 30.7656 39.1562 27.2031
Q33.9375 22.0781 28.3594 17.2656
Q22.7969 12.4531 17.9688 8.34375
L57.0781 8.34375
z
" id="Verdana-32"/>
      </defs>
      <g transform="translate(236.1684375 401.918125)scale(0.12 -0.12)">
       <use xlink:href="#Verdana-32"/>
       <use x="63.57421875" xlink:href="#Verdana-30"/>
       <use x="127.1484375" xlink:href="#Verdana-30"/>
       <use x="190.72265625" xlink:href="#Verdana-30"/>
      </g>
     </g>
    </g>
    <g id="xtick_4">
     <g id="line2d_12">
      <g>
       <use style="stroke:#000000;stroke-width:0.5;" x="339.84" xlink:href="#mc7db9fdffb" y="388.8"/>
      </g>
     </g>
     <g id="line2d_13">
      <g>
       <use style="stroke:#000000;stroke-width:0.5;" x="339.84" xlink:href="#m5a7d422ac3" y="43.2"/>
      </g>
     </g>
     <g id="text_4">
      <!-- 3000 -->
      <defs>
       <path d="
M50.6875 35.0156
Q53.0312 32.9062 54.5469 29.7344
Q56.0625 26.5625 56.0625 21.5312
Q56.0625 16.5469 54.25 12.3906
Q52.4375 8.25 49.1719 5.17188
Q45.5156 1.76562 40.5469 0.125
Q35.5938 -1.51562 29.6875 -1.51562
Q23.6406 -1.51562 17.7812 -0.0625
Q11.9219 1.375 8.15625 3.07812
L8.15625 13.2812
L8.89062 13.2812
Q13.0312 10.5469 18.6406 8.73438
Q24.2656 6.9375 29.5 6.9375
Q32.5625 6.9375 36.0312 7.95312
Q39.5 8.98438 41.6562 10.9844
Q43.8906 13.1406 44.9844 15.7188
Q46.0938 18.3125 46.0938 22.2656
Q46.0938 26.1719 44.8438 28.7344
Q43.6094 31.2969 41.4062 32.7656
Q39.2031 34.2812 36.0781 34.8438
Q32.9531 35.4062 29.3438 35.4062
L24.9531 35.4062
L24.9531 43.5
L28.375 43.5
Q35.7969 43.5 40.2031 46.5938
Q44.625 49.7031 44.625 55.6719
Q44.625 58.2969 43.5 60.2656
Q42.3906 62.25 40.375 63.5312
Q38.2812 64.7969 35.8906 65.2812
Q33.5 65.7656 30.4688 65.7656
Q25.8281 65.7656 20.5938 64.1094
Q15.375 62.4531 10.75 59.4219
L10.25 59.4219
L10.25 69.625
Q13.7188 71.3438 19.5 72.7812
Q25.2969 74.2188 30.7188 74.2188
Q36.0312 74.2188 40.0781 73.2344
Q44.1406 72.2656 47.4062 70.125
Q50.9219 67.7812 52.7344 64.4531
Q54.5469 61.1406 54.5469 56.6875
Q54.5469 50.6406 50.2656 46.125
Q46 41.6094 40.1875 40.4375
L40.1875 39.75
Q42.5312 39.3594 45.5469 38.1094
Q48.5781 36.8594 50.6875 35.0156" id="Verdana-33"/>
      </defs>
      <g transform="translate(325.46625 401.918125)scale(0.12 -0.12)">
       <use xlink:href="#Verdana-33"/>
       <use x="63.57421875" xlink:href="#Verdana-30"/>
       <use x="127.1484375" xlink:href="#Verdana-30"/>
       <use x="190.72265625" xlink:href="#Verdana-30"/>
      </g>
     </g>
    </g>
    <g id="xtick_5">
     <g id="line2d_14">
      <g>
       <use style="stroke:#000000;stroke-width:0.5;" x="429.12" xlink:href="#mc7db9fdffb" y="388.8"/>
      </g>
     </g>
     <g id="line2d_15">
      <g>
       <use style="stroke:#000000;stroke-width:0.5;" x="429.12" xlink:href="#m5a7d422ac3" y="43.2"/>
      </g>
     </g>
     <g id="text_5">
      <!-- 4000 -->
      <defs>
       <path d="
M58.7344 20.4531
L47.9531 20.4531
L47.9531 0
L38.5781 0
L38.5781 20.4531
L3.76562 20.4531
L3.76562 31.6875
L38.9688 72.7031
L47.9531 72.7031
L47.9531 28.2656
L58.7344 28.2656
z

M38.5781 28.2656
L38.5781 61.0781
L10.4062 28.2656
z
" id="Verdana-34"/>
      </defs>
      <g transform="translate(414.4828125 401.918125)scale(0.12 -0.12)">
       <use xlink:href="#Verdana-34"/>
       <use x="63.57421875" xlink:href="#Verdana-30"/>
       <use x="127.1484375" xlink:href="#Verdana-30"/>
       <use x="190.72265625" xlink:href="#Verdana-30"/>
      </g>
     </g>
    </g>
    <g id="xtick_6">
     <g id="line2d_16">
      <g>
       <use style="stroke:#000000;stroke-width:0.5;" x="518.4" xlink:href="#mc7db9fdffb" y="388.8"/>
      </g>
     </g>
     <g id="line2d_17">
      <g>
       <use style="stroke:#000000;stroke-width:0.5;" x="518.4" xlink:href="#m5a7d422ac3" y="43.2"/>
      </g>
     </g>
     <g id="text_6">
      <!-- 5000 -->
      <defs>
       <path d="
M56.5 23.0938
Q56.5 18.0156 54.6406 13.375
Q52.7812 8.73438 49.5625 5.5625
Q46.0469 2.15625 41.1875 0.3125
Q36.3281 -1.51562 29.9375 -1.51562
Q23.9688 -1.51562 18.4531 -0.265625
Q12.9375 0.984375 9.125 2.73438
L9.125 13.0312
L9.8125 13.0312
Q13.8125 10.5 19.1875 8.71875
Q24.5625 6.9375 29.7344 6.9375
Q33.2031 6.9375 36.4531 7.90625
Q39.7031 8.89062 42.2344 11.3281
Q44.3906 13.4219 45.4844 16.3438
Q46.5781 19.2812 46.5781 23.1406
Q46.5781 26.9062 45.2812 29.4844
Q44 32.0781 41.7031 33.6406
Q39.1562 35.5 35.5156 36.25
Q31.8906 37.0156 27.3906 37.0156
Q23.0938 37.0156 19.1094 36.4219
Q15.1406 35.8438 12.25 35.25
L12.25 72.7031
L56 72.7031
L56 64.1562
L21.6875 64.1562
L21.6875 44.8281
Q23.7812 45.0156 25.9688 45.1094
Q28.1719 45.2188 29.7812 45.2188
Q35.6875 45.2188 40.125 44.2188
Q44.5781 43.2188 48.2969 40.6719
Q52.2031 37.9844 54.3438 33.7344
Q56.5 29.5 56.5 23.0938" id="Verdana-35"/>
      </defs>
      <g transform="translate(504.084375 401.918125)scale(0.12 -0.12)">
       <use xlink:href="#Verdana-35"/>
       <use x="63.57421875" xlink:href="#Verdana-30"/>
       <use x="127.1484375" xlink:href="#Verdana-30"/>
       <use x="190.72265625" xlink:href="#Verdana-30"/>
      </g>
     </g>
    </g>
    <g id="text_7">
     <!-- Objective function exectuions -->
     <defs>
      <path d="
M57.0312 27.6875
Q57.0312 20.8438 55.0938 15.375
Q53.1719 9.90625 49.9062 6.20312
Q46.4375 2.34375 42.2812 0.40625
Q38.1406 -1.51562 33.1562 -1.51562
Q28.5156 -1.51562 25.0469 -0.40625
Q21.5781 0.6875 18.2188 2.54688
L17.625 0
L9.03125 0
L9.03125 75.9844
L18.2188 75.9844
L18.2188 48.8281
Q22.0781 52 26.4219 54.0312
Q30.7656 56.0625 36.1875 56.0625
Q45.8438 56.0625 51.4375 48.6406
Q57.0312 41.2188 57.0312 27.6875
M47.5625 27.4375
Q47.5625 37.2031 44.3281 42.25
Q41.1094 47.3125 33.9375 47.3125
Q29.9375 47.3125 25.8281 45.5781
Q21.7344 43.8438 18.2188 41.1094
L18.2188 9.85938
Q22.125 8.10938 24.9219 7.42188
Q27.7344 6.73438 31.2969 6.73438
Q38.9219 6.73438 43.2344 11.7344
Q47.5625 16.75 47.5625 27.4375" id="Verdana-62"/>
      <path d="
M56.2031 54.5469
L34.125 0
L24.9062 0
L2.98438 54.5469
L12.9375 54.5469
L29.8281 11.1406
L46.5781 54.5469
z
" id="Verdana-76"/>
      <path d="
M56.25 0
L44.6719 0
L29.2031 20.9531
L13.625 0
L2.9375 0
L24.2188 27.2031
L3.125 54.5469
L14.7031 54.5469
L30.0781 33.9375
L45.5156 54.5469
L56.25 54.5469
L34.8125 27.6875
z
" id="Verdana-78"/>
      <path d="
M54.6875 26.3125
L14.5 26.3125
Q14.5 21.2969 16.0156 17.5469
Q17.5312 13.8125 20.1719 11.4219
Q22.7031 9.07812 26.1875 7.90625
Q29.6875 6.73438 33.8906 6.73438
Q39.4531 6.73438 45.0938 8.95312
Q50.7344 11.1875 53.125 13.3281
L53.6094 13.3281
L53.6094 3.32812
Q48.9688 1.375 44.1406 0.046875
Q39.3125 -1.26562 33.9844 -1.26562
Q20.4062 -1.26562 12.7812 6.07812
Q5.17188 13.4219 5.17188 26.9531
Q5.17188 40.3281 12.4688 48.1875
Q19.7812 56.0625 31.6875 56.0625
Q42.7188 56.0625 48.7031 49.6094
Q54.6875 43.1719 54.6875 31.2969
z

M45.75 33.3438
Q45.7031 40.5781 42.1094 44.5312
Q38.5312 48.4844 31.2031 48.4844
Q23.8281 48.4844 19.4531 44.1406
Q15.0938 39.7969 14.5 33.3438
z
" id="Verdana-65"/>
      <path d="
M49.3594 3.42188
Q44.7812 1.21875 40.6562 0
Q36.5312 -1.21875 31.8906 -1.21875
Q25.9844 -1.21875 21.0469 0.515625
Q16.1094 2.25 12.5938 5.76562
Q9.03125 9.28125 7.07812 14.6406
Q5.125 20.0156 5.125 27.2031
Q5.125 40.5781 12.4688 48.1875
Q19.8281 55.8125 31.8906 55.8125
Q36.5781 55.8125 41.0938 54.4844
Q45.6094 53.1719 49.3594 51.2656
L49.3594 41.0625
L48.875 41.0625
Q44.6719 44.3438 40.2031 46.0938
Q35.75 47.8594 31.5 47.8594
Q23.6875 47.8594 19.1719 42.6094
Q14.6562 37.3594 14.6562 27.2031
Q14.6562 17.3281 19.0625 12.0312
Q23.4844 6.73438 31.5 6.73438
Q34.2812 6.73438 37.1562 7.46875
Q40.0469 8.20312 42.3281 9.375
Q44.3438 10.4062 46.0938 11.5469
Q47.8594 12.7031 48.875 13.5312
L49.3594 13.5312
z
" id="Verdana-63"/>
      <path d="
M26.0312 63.6719
L15.6719 63.6719
L15.6719 73.1875
L26.0312 73.1875
z

M25.4375 -1.3125
Q25.4375 -10.8906 20.5469 -15.7656
Q15.6719 -20.6562 7.46875 -20.6562
Q5.51562 -20.6562 2.3125 -20.2656
Q-0.875 -19.875 -3.03125 -19.2812
L-3.03125 -10.5469
L-2.54688 -10.5469
Q-1.17188 -11.0781 1.14062 -11.7656
Q3.46875 -12.4531 5.67188 -12.4531
Q9.1875 -12.4531 11.3281 -11.4688
Q13.4844 -10.5 14.5469 -8.54688
Q15.625 -6.59375 15.9375 -3.82812
Q16.2656 -1.07812 16.2656 2.875
L16.2656 46.8281
L4.89062 46.8281
L4.89062 54.5469
L25.4375 54.5469
z
" id="Verdana-6a"/>
      <path d="
M18.8906 63.6719
L8.54688 63.6719
L8.54688 73.1875
L18.8906 73.1875
z

M18.3125 0
L9.125 0
L9.125 54.5469
L18.3125 54.5469
z
" id="Verdana-69"/>
      <path d="
M54.6406 0
L45.4531 0
L45.4531 31.0625
Q45.4531 34.8125 45.0156 38.1094
Q44.5781 41.4062 43.4062 43.2656
Q42.1875 45.3125 39.8906 46.3125
Q37.5938 47.3125 33.9375 47.3125
Q30.1719 47.3125 26.0625 45.4531
Q21.9688 43.6094 18.2188 40.7188
L18.2188 0
L9.03125 0
L9.03125 54.5469
L18.2188 54.5469
L18.2188 48.4844
Q22.5156 52.0469 27.0938 54.0469
Q31.6875 56.0625 36.5312 56.0625
Q45.3594 56.0625 50 50.7344
Q54.6406 45.4062 54.6406 35.4062
z
" id="Verdana-6e"/>
      <path d="
M48 15.7188
Q48 8.25 41.8125 3.46875
Q35.6406 -1.3125 24.9531 -1.3125
Q18.8906 -1.3125 13.8438 0.125
Q8.79688 1.5625 5.375 3.26562
L5.375 13.5781
L5.85938 13.5781
Q10.2031 10.2969 15.5156 8.375
Q20.8438 6.45312 25.7344 6.45312
Q31.7812 6.45312 35.2031 8.40625
Q38.625 10.3594 38.625 14.5469
Q38.625 17.7812 36.7656 19.4375
Q34.9062 21.0938 29.6406 22.2656
Q27.6875 22.7031 24.5312 23.2812
Q21.3906 23.875 18.7969 24.5625
Q11.625 26.4688 8.60938 30.1562
Q5.60938 33.8438 5.60938 39.2031
Q5.60938 42.5781 7 45.5469
Q8.40625 48.5312 11.2344 50.875
Q13.9688 53.1719 18.1875 54.5156
Q22.4062 55.8594 27.6406 55.8594
Q32.5156 55.8594 37.5156 54.6562
Q42.5312 53.4688 45.8438 51.7656
L45.8438 41.9375
L45.3594 41.9375
Q41.8438 44.5312 36.8125 46.3125
Q31.7812 48.0938 26.9531 48.0938
Q21.9219 48.0938 18.4531 46.1562
Q14.9844 44.2344 14.9844 40.4375
Q14.9844 37.0625 17.0938 35.3594
Q19.1406 33.6406 23.7344 32.5625
Q26.2656 31.9844 29.4062 31.3906
Q32.5625 30.8125 34.6719 30.3281
Q41.0625 28.8594 44.5312 25.2969
Q48 21.6875 48 15.7188" id="Verdana-73"/>
      <path d="
M38.375 67.0938
L37.8906 67.0938
Q36.375 67.5312 33.9375 67.9844
Q31.5 68.4531 29.6406 68.4531
Q23.7344 68.4531 21.0625 65.8438
Q18.4062 63.2344 18.4062 56.3906
L18.4062 54.5469
L34.9688 54.5469
L34.9688 46.8281
L18.7031 46.8281
L18.7031 0
L9.51562 0
L9.51562 46.8281
L3.32812 46.8281
L3.32812 54.5469
L9.51562 54.5469
L9.51562 56.3438
Q9.51562 66.0625 14.3438 71.2656
Q19.1875 76.4688 28.3281 76.4688
Q31.3906 76.4688 33.8594 76.1719
Q36.3281 75.875 38.375 75.4844
z
" id="Verdana-66"/>
      <path id="Verdana-20"/>
      <path d="
M63.9688 64.3594
Q68.4062 59.4688 70.7656 52.3906
Q73.1406 45.3125 73.1406 36.3281
Q73.1406 27.3438 70.7188 20.2344
Q68.3125 13.1406 63.9688 8.40625
Q59.4688 3.46875 53.3438 0.96875
Q47.2188 -1.51562 39.3594 -1.51562
Q31.6875 -1.51562 25.4062 1.01562
Q19.1406 3.5625 14.75 8.40625
Q10.3594 13.2344 7.98438 20.2656
Q5.60938 27.2969 5.60938 36.3281
Q5.60938 45.2188 7.95312 52.2656
Q10.2969 59.3281 14.7969 64.3594
Q19.0938 69.1406 25.4688 71.6719
Q31.8438 74.2188 39.3594 74.2188
Q47.1719 74.2188 53.3906 71.6562
Q59.625 69.0938 63.9688 64.3594
M63.0938 36.3281
Q63.0938 50.4844 56.7344 58.1719
Q50.3906 65.875 39.4062 65.875
Q28.3281 65.875 22 58.1719
Q15.6719 50.4844 15.6719 36.3281
Q15.6719 22.0156 22.1094 14.4219
Q28.5625 6.84375 39.4062 6.84375
Q50.25 6.84375 56.6719 14.4219
Q63.0938 22.0156 63.0938 36.3281" id="Verdana-4f"/>
      <path d="
M55.5156 27.25
Q55.5156 13.9219 48.6719 6.20312
Q41.8438 -1.51562 30.375 -1.51562
Q18.7969 -1.51562 11.9844 6.20312
Q5.17188 13.9219 5.17188 27.25
Q5.17188 40.5781 11.9844 48.3125
Q18.7969 56.0625 30.375 56.0625
Q41.8438 56.0625 48.6719 48.3125
Q55.5156 40.5781 55.5156 27.25
M46.0469 27.25
Q46.0469 37.8438 41.8906 42.9844
Q37.75 48.1406 30.375 48.1406
Q22.9062 48.1406 18.7812 42.9844
Q14.6562 37.8438 14.6562 27.25
Q14.6562 17 18.7969 11.6875
Q22.9531 6.39062 30.375 6.39062
Q37.7031 6.39062 41.875 11.6406
Q46.0469 16.8906 46.0469 27.25" id="Verdana-6f"/>
      <path d="
M37.3594 0.484375
Q34.7656 -0.203125 31.7031 -0.640625
Q28.6562 -1.07812 26.2656 -1.07812
Q17.9219 -1.07812 13.5781 3.40625
Q9.23438 7.90625 9.23438 17.8281
L9.23438 46.8281
L3.03125 46.8281
L3.03125 54.5469
L9.23438 54.5469
L9.23438 70.2188
L18.4062 70.2188
L18.4062 54.5469
L37.3594 54.5469
L37.3594 46.8281
L18.4062 46.8281
L18.4062 21.9688
Q18.4062 17.6719 18.5938 15.25
Q18.7969 12.8438 19.9688 10.75
Q21.0469 8.79688 22.9219 7.89062
Q24.8125 6.98438 28.6562 6.98438
Q30.9062 6.98438 33.3438 7.64062
Q35.7969 8.29688 36.8594 8.73438
L37.3594 8.73438
z
" id="Verdana-74"/>
      <path d="
M54.25 0
L45.0625 0
L45.0625 6.0625
Q40.4375 2.39062 36.1875 0.4375
Q31.9375 -1.51562 26.8125 -1.51562
Q18.2188 -1.51562 13.4219 3.73438
Q8.64062 8.98438 8.64062 19.1406
L8.64062 54.5469
L17.8281 54.5469
L17.8281 23.4844
Q17.8281 19.3438 18.2188 16.375
Q18.6094 13.4219 19.875 11.3281
Q21.1875 9.1875 23.2812 8.20312
Q25.3906 7.23438 29.3906 7.23438
Q32.9531 7.23438 37.1719 9.07812
Q41.4062 10.9375 45.0625 13.8125
L45.0625 54.5469
L54.25 54.5469
z
" id="Verdana-75"/>
     </defs>
     <g transform="translate(206.5078125 418.509375)scale(0.12 -0.12)">
      <use xlink:href="#Verdana-4f"/>
      <use x="78.7109375" xlink:href="#Verdana-62"/>
      <use x="141.015625" xlink:href="#Verdana-6a"/>
      <use x="175.439453125" xlink:href="#Verdana-65"/>
      <use x="235.009765625" xlink:href="#Verdana-63"/>
      <use x="287.109375" xlink:href="#Verdana-74"/>
      <use x="326.513671875" xlink:href="#Verdana-69"/>
      <use x="353.955078125" xlink:href="#Verdana-76"/>
      <use x="412.259765625" xlink:href="#Verdana-65"/>
      <use x="471.830078125" xlink:href="#Verdana-20"/>
      <use x="506.986328125" xlink:href="#Verdana-66"/>
      <use x="542.142578125" xlink:href="#Verdana-75"/>
      <use x="605.423828125" xlink:href="#Verdana-6e"/>
      <use x="668.705078125" xlink:href="#Verdana-63"/>
      <use x="720.8046875" xlink:href="#Verdana-74"/>
      <use x="760.208984375" xlink:href="#Verdana-69"/>
      <use x="787.650390625" xlink:href="#Verdana-6f"/>
      <use x="848.34375" xlink:href="#Verdana-6e"/>
      <use x="911.625" xlink:href="#Verdana-20"/>
      <use x="946.78125" xlink:href="#Verdana-65"/>
      <use x="1006.3515625" xlink:href="#Verdana-78"/>
      <use x="1064.40625" xlink:href="#Verdana-65"/>
      <use x="1123.9765625" xlink:href="#Verdana-63"/>
      <use x="1176.076171875" xlink:href="#Verdana-74"/>
      <use x="1215.48046875" xlink:href="#Verdana-75"/>
      <use x="1278.76171875" xlink:href="#Verdana-69"/>
      <use x="1306.203125" xlink:href="#Verdana-6f"/>
      <use x="1366.896484375" xlink:href="#Verdana-6e"/>
      <use x="1430.177734375" xlink:href="#Verdana-73"/>
     </g>
    </g>
   </g>
   <g id="matplotlib.axis_2">
    <g id="ytick_1">
     <g id="line2d_18">
      <defs>
       <path d="
M0 0
L4 0" id="md7965d1ba0" style="stroke:#000000;stroke-width:0.5;"/>
      </defs>
      <g>
       <use style="stroke:#000000;stroke-width:0.5;" x="72.0" xlink:href="#md7965d1ba0" y="388.8"/>
      </g>
     </g>
     <g id="line2d_19">
      <defs>
       <path d="
M0 0
L-4 0" id="md9a1c1a7cd" style="stroke:#000000;stroke-width:0.5;"/>
      </defs>
      <g>
       <use style="stroke:#000000;stroke-width:0.5;" x="518.4" xlink:href="#md9a1c1a7cd" y="388.8"/>
      </g>
     </g>
     <g id="text_8">
      <!-- 1.0 -->
      <defs>
       <path d="
M71.0938 27.9375
L10.75 27.9375
L10.75 35.75
L71.0938 35.75
z
" id="Verdana-2212"/>
       <path d="
M24.0312 0
L12.3594 0
L12.3594 13.9219
L24.0312 13.9219
z
" id="Verdana-2e"/>
      </defs>
      <g transform="translate(40.63625 392.1515625)scale(0.12 -0.12)">
       <use xlink:href="#Verdana-2212"/>
       <use x="81.8359375" xlink:href="#Verdana-31"/>
       <use x="145.41015625" xlink:href="#Verdana-2e"/>
       <use x="181.787109375" xlink:href="#Verdana-30"/>
      </g>
     </g>
    </g>
    <g id="ytick_2">
     <g id="line2d_20">
      <g>
       <use style="stroke:#000000;stroke-width:0.5;" x="72.0" xlink:href="#md7965d1ba0" y="319.68"/>
      </g>
     </g>
     <g id="line2d_21">
      <g>
       <use style="stroke:#000000;stroke-width:0.5;" x="518.4" xlink:href="#md9a1c1a7cd" y="319.68"/>
      </g>
     </g>
     <g id="text_9">
      <!-- 0.8 -->
      <defs>
       <path d="
M57.625 20.2656
Q57.625 10.8438 50.2656 4.59375
Q42.9219 -1.65625 31.7812 -1.65625
Q19.9688 -1.65625 12.9531 4.4375
Q5.95312 10.5469 5.95312 20.0625
Q5.95312 26.125 9.46875 31.0312
Q12.9844 35.9375 19.3906 38.8125
L19.3906 39.1094
Q13.5312 42.2344 10.7188 45.9375
Q7.90625 49.6562 7.90625 55.2188
Q7.90625 63.4219 14.6406 68.8906
Q21.3906 74.3594 31.7812 74.3594
Q42.6719 74.3594 49.1719 69.1406
Q55.6719 63.9219 55.6719 55.8594
Q55.6719 50.9219 52.5938 46.1562
Q49.5156 41.4062 43.5625 38.7188
L43.5625 38.4219
Q50.3906 35.5 54 31.2031
Q57.625 26.9062 57.625 20.2656
M46.0469 55.7656
Q46.0469 60.9844 42.0156 64.0781
Q37.9844 67.1875 31.7344 67.1875
Q25.5938 67.1875 21.6562 64.25
Q17.7188 61.3281 17.7188 56.3438
Q17.7188 52.8281 19.7031 50.2656
Q21.6875 47.7031 25.6875 45.7031
Q27.4844 44.8281 30.875 43.4062
Q34.2812 42 37.5 41.0625
Q42.3281 44.2812 44.1875 47.75
Q46.0469 51.2188 46.0469 55.7656
M47.5625 19.3438
Q47.5625 23.8281 45.5781 26.5312
Q43.6094 29.25 37.8438 31.9844
Q35.5469 33.0625 32.8125 33.9844
Q30.0781 34.9062 25.5312 36.5781
Q21.1406 34.1875 18.4844 30.0781
Q15.8281 25.9844 15.8281 20.7969
Q15.8281 14.2031 20.3594 9.90625
Q24.9062 5.60938 31.8906 5.60938
Q39.0156 5.60938 43.2812 9.26562
Q47.5625 12.9375 47.5625 19.3438" id="Verdana-38"/>
      </defs>
      <g transform="translate(40.559375 323.0315625)scale(0.12 -0.12)">
       <use xlink:href="#Verdana-2212"/>
       <use x="81.8359375" xlink:href="#Verdana-30"/>
       <use x="145.41015625" xlink:href="#Verdana-2e"/>
       <use x="181.787109375" xlink:href="#Verdana-38"/>
      </g>
     </g>
    </g>
    <g id="ytick_3">
     <g id="line2d_22">
      <g>
       <use style="stroke:#000000;stroke-width:0.5;" x="72.0" xlink:href="#md7965d1ba0" y="250.56"/>
      </g>
     </g>
     <g id="line2d_23">
      <g>
       <use style="stroke:#000000;stroke-width:0.5;" x="518.4" xlink:href="#md9a1c1a7cd" y="250.56"/>
      </g>
     </g>
     <g id="text_10">
      <!-- 0.6 -->
      <defs>
       <path d="
M58.1562 23.5781
Q58.1562 12.5 50.8594 5.48438
Q43.5625 -1.51562 32.9531 -1.51562
Q27.5938 -1.51562 23.1875 0.140625
Q18.7969 1.8125 15.4375 5.07812
Q11.2344 9.125 8.95312 15.8125
Q6.6875 22.5156 6.6875 31.9375
Q6.6875 41.6094 8.76562 49.0781
Q10.8438 56.5469 15.375 62.3594
Q19.6719 67.875 26.4531 70.9688
Q33.25 74.0781 42.2812 74.0781
Q45.1719 74.0781 47.125 73.8281
Q49.0781 73.5781 51.0781 72.9531
L51.0781 63.625
L50.5938 63.625
Q49.2188 64.3594 46.4531 65.0156
Q43.7031 65.6719 40.8281 65.6719
Q30.3281 65.6719 24.0781 59.1094
Q17.8281 52.5469 16.7969 41.3594
Q20.9062 43.8438 24.875 45.1406
Q28.8594 46.4375 34.0781 46.4375
Q38.7188 46.4375 42.25 45.5781
Q45.7969 44.7344 49.5156 42.1406
Q53.8125 39.1562 55.9844 34.6094
Q58.1562 30.0781 58.1562 23.5781
M48.25 23.1875
Q48.25 27.7344 46.9062 30.7031
Q45.5625 33.6875 42.4844 35.8906
Q40.2344 37.4531 37.5 37.9375
Q34.7656 38.4219 31.7812 38.4219
Q27.6406 38.4219 24.0781 37.4375
Q20.5156 36.4688 16.75 34.4219
Q16.6562 33.3438 16.5938 32.3438
Q16.5469 31.3438 16.5469 29.8281
Q16.5469 22.125 18.1406 17.6562
Q19.7344 13.1875 22.5156 10.5938
Q24.75 8.45312 27.3594 7.45312
Q29.9844 6.45312 33.0625 6.45312
Q40.1406 6.45312 44.1875 10.7656
Q48.25 15.0938 48.25 23.1875" id="Verdana-36"/>
      </defs>
      <g transform="translate(40.495625 253.9115625)scale(0.12 -0.12)">
       <use xlink:href="#Verdana-2212"/>
       <use x="81.8359375" xlink:href="#Verdana-30"/>
       <use x="145.41015625" xlink:href="#Verdana-2e"/>
       <use x="181.787109375" xlink:href="#Verdana-36"/>
      </g>
     </g>
    </g>
    <g id="ytick_4">
     <g id="line2d_24">
      <g>
       <use style="stroke:#000000;stroke-width:0.5;" x="72.0" xlink:href="#md7965d1ba0" y="181.44"/>
      </g>
     </g>
     <g id="line2d_25">
      <g>
       <use style="stroke:#000000;stroke-width:0.5;" x="518.4" xlink:href="#md9a1c1a7cd" y="181.44"/>
      </g>
     </g>
     <g id="text_11">
      <!-- 0.4 -->
      <g transform="translate(40.42625 184.7915625)scale(0.12 -0.12)">
       <use xlink:href="#Verdana-2212"/>
       <use x="81.8359375" xlink:href="#Verdana-30"/>
       <use x="145.41015625" xlink:href="#Verdana-2e"/>
       <use x="181.787109375" xlink:href="#Verdana-34"/>
      </g>
     </g>
    </g>
    <g id="ytick_5">
     <g id="line2d_26">
      <g>
       <use style="stroke:#000000;stroke-width:0.5;" x="72.0" xlink:href="#md7965d1ba0" y="112.32"/>
      </g>
     </g>
     <g id="line2d_27">
      <g>
       <use style="stroke:#000000;stroke-width:0.5;" x="518.4" xlink:href="#md9a1c1a7cd" y="112.32"/>
      </g>
     </g>
     <g id="text_12">
      <!-- 0.2 -->
      <g transform="translate(40.625 115.6715625)scale(0.12 -0.12)">
       <use xlink:href="#Verdana-2212"/>
       <use x="81.8359375" xlink:href="#Verdana-30"/>
       <use x="145.41015625" xlink:href="#Verdana-2e"/>
       <use x="181.787109375" xlink:href="#Verdana-32"/>
      </g>
     </g>
    </g>
    <g id="ytick_6">
     <g id="line2d_28">
      <g>
       <use style="stroke:#000000;stroke-width:0.5;" x="72.0" xlink:href="#md7965d1ba0" y="43.2"/>
      </g>
     </g>
     <g id="line2d_29">
      <g>
       <use style="stroke:#000000;stroke-width:0.5;" x="518.4" xlink:href="#md9a1c1a7cd" y="43.2"/>
      </g>
     </g>
     <g id="text_13">
      <!-- 0.0 -->
      <g transform="translate(49.97 46.5515625)scale(0.12 -0.12)">
       <use xlink:href="#Verdana-30"/>
       <use x="63.57421875" xlink:href="#Verdana-2e"/>
       <use x="99.951171875" xlink:href="#Verdana-30"/>
      </g>
     </g>
    </g>
    <g id="text_14">
     <!-- Mean -->
     <defs>
      <path d="
M51.4219 0
L42.2812 0
L42.2812 5.8125
Q41.0625 4.98438 38.9844 3.48438
Q36.9219 2 34.9688 1.125
Q32.6719 0 29.6875 -0.75
Q26.7031 -1.51562 22.7031 -1.51562
Q15.3281 -1.51562 10.2031 3.35938
Q5.07812 8.25 5.07812 15.8281
Q5.07812 22.0156 7.73438 25.8438
Q10.4062 29.6875 15.3281 31.8906
Q20.3125 34.0781 27.2969 34.8594
Q34.2812 35.6406 42.2812 36.0312
L42.2812 37.4531
Q42.2812 40.5781 41.1875 42.625
Q40.0938 44.6719 38.0312 45.8438
Q36.0781 46.9688 33.3438 47.3594
Q30.6094 47.75 27.6406 47.75
Q24.0312 47.75 19.5781 46.7969
Q15.1406 45.8438 10.4062 44.0469
L9.90625 44.0469
L9.90625 53.375
Q12.5938 54.1094 17.6719 54.9844
Q22.75 55.8594 27.6875 55.8594
Q33.4531 55.8594 37.7188 54.9062
Q42 53.9531 45.125 51.6562
Q48.1875 49.4219 49.7969 45.8438
Q51.4219 42.2812 51.4219 37.0156
z

M42.2812 13.4219
L42.2812 28.6094
Q38.0938 28.375 32.3906 27.875
Q26.7031 27.3906 23.3906 26.4688
Q19.4375 25.3438 16.9844 22.9688
Q14.5469 20.6094 14.5469 16.4531
Q14.5469 11.7656 17.375 9.39062
Q20.2188 7.03125 26.0312 7.03125
Q30.8594 7.03125 34.8594 8.90625
Q38.875 10.7969 42.2812 13.4219" id="Verdana-61"/>
      <path d="
M74.5156 0
L64.8438 0
L64.8438 62.6406
L44.625 20.0156
L38.875 20.0156
L18.7969 62.6406
L18.7969 0
L9.76562 0
L9.76562 72.7031
L22.9531 72.7031
L42.3281 32.2344
L61.0781 72.7031
L74.5156 72.7031
z
" id="Verdana-4d"/>
     </defs>
     <g transform="translate(33.01125 230.9278125)rotate(-90.0)scale(0.12 -0.12)">
      <use xlink:href="#Verdana-4d"/>
      <use x="84.27734375" xlink:href="#Verdana-65"/>
      <use x="143.84765625" xlink:href="#Verdana-61"/>
      <use x="203.90625" xlink:href="#Verdana-6e"/>
     </g>
    </g>
   </g>
   <g id="patch_3">
    <path d="
M72 43.2
L518.4 43.2" style="fill:none;stroke:#000000;"/>
   </g>
   <g id="patch_4">
    <path d="
M72 388.8
L72 43.2" style="fill:none;stroke:#000000;"/>
   </g>
   <g id="patch_5">
    <path d="
M518.4 388.8
L518.4 43.2" style="fill:none;stroke:#000000;"/>
   </g>
   <g id="patch_6">
    <path d="
M72 388.8
L518.4 388.8" style="fill:none;stroke:#000000;"/>
   </g>
   <g id="text_15">
    <!-- Exponential Mean -->
    <defs>
     <path d="
M57.0312 27.9375
Q57.0312 21.2969 55.125 15.7969
Q53.2188 10.2969 49.75 6.5
Q46.5312 2.875 42.1562 0.890625
Q37.7969 -1.07812 32.9062 -1.07812
Q28.6562 -1.07812 25.2188 -0.140625
Q21.7812 0.78125 18.2188 2.73438
L18.2188 -20.125
L9.03125 -20.125
L9.03125 54.5469
L18.2188 54.5469
L18.2188 48.8281
Q21.875 51.9062 26.4375 53.9844
Q31 56.0625 36.1875 56.0625
Q46.0469 56.0625 51.5312 48.6094
Q57.0312 41.1562 57.0312 27.9375
M47.5625 27.6875
Q47.5625 37.5469 44.1875 42.4219
Q40.8281 47.3125 33.8438 47.3125
Q29.8906 47.3125 25.875 45.5938
Q21.875 43.8906 18.2188 41.1094
L18.2188 10.2031
Q22.125 8.45312 24.9219 7.8125
Q27.7344 7.17188 31.2969 7.17188
Q38.9688 7.17188 43.2656 12.3438
Q47.5625 17.5312 47.5625 27.6875" id="Verdana-70"/>
     <path d="
M57.6719 0
L9.76562 0
L9.76562 72.7031
L57.6719 72.7031
L57.6719 64.1094
L19.4375 64.1094
L19.4375 44.1875
L57.6719 44.1875
L57.6719 35.5938
L19.4375 35.5938
L19.4375 8.59375
L57.6719 8.59375
z
" id="Verdana-45"/>
     <path d="
M18.3125 0
L9.125 0
L9.125 75.9844
L18.3125 75.9844
z
" id="Verdana-6c"/>
    </defs>
    <g transform="translate(231.867 38.2)scale(0.144 -0.144)">
     <use xlink:href="#Verdana-45"/>
     <use x="63.232421875" xlink:href="#Verdana-78"/>
     <use x="122.412109375" xlink:href="#Verdana-70"/>
     <use x="184.716796875" xlink:href="#Verdana-6f"/>
     <use x="245.41015625" xlink:href="#Verdana-6e"/>
     <use x="308.69140625" xlink:href="#Verdana-65"/>
     <use x="368.26171875" xlink:href="#Verdana-6e"/>
     <use x="431.54296875" xlink:href="#Verdana-74"/>
     <use x="470.947265625" xlink:href="#Verdana-69"/>
     <use x="498.388671875" xlink:href="#Verdana-61"/>
     <use x="558.447265625" xlink:href="#Verdana-6c"/>
     <use x="585.888671875" xlink:href="#Verdana-20"/>
     <use x="621.044921875" xlink:href="#Verdana-4d"/>
     <use x="705.322265625" xlink:href="#Verdana-65"/>
     <use x="764.892578125" xlink:href="#Verdana-61"/>
     <use x="824.951171875" xlink:href="#Verdana-6e"/>
    </g>
   </g>
   <g id="legend_1">
    <g id="patch_7">
     <path d="
M79.2 381.6
L183.22 381.6
L183.22 272.081
L79.2 272.081
L79.2 381.6
z
" style="fill:#ffffff;stroke:#000000;"/>
    </g>
    <g id="line2d_30">
     <path d="
M89.28 283.743
L109.44 283.743" style="fill:none;stroke:#0000ff;stroke-dasharray:6.000000,2.000000;stroke-dashoffset:0.0;"/>
    </g>
    <g id="line2d_31"/>
    <g id="text_16">
     <!-- AMPGO -->
     <defs>
      <path d="
M57.3281 50.7344
Q57.3281 45.9062 55.6406 41.7656
Q53.9531 37.6406 50.9219 34.625
Q47.1719 30.8594 42.0469 28.9688
Q36.9219 27.0938 29.1094 27.0938
L19.4375 27.0938
L19.4375 0
L9.76562 0
L9.76562 72.7031
L29.5 72.7031
Q36.0312 72.7031 40.5781 71.6094
Q45.125 70.5156 48.6406 68.1719
Q52.7812 65.375 55.0469 61.2188
Q57.3281 57.0781 57.3281 50.7344
M47.2656 50.4844
Q47.2656 54.25 45.9375 57.0312
Q44.625 59.8125 41.9375 61.5781
Q39.5938 63.0938 36.5938 63.75
Q33.5938 64.4062 29 64.4062
L19.4375 64.4062
L19.4375 35.3594
L27.5938 35.3594
Q33.4531 35.3594 37.1094 36.4062
Q40.7656 37.4531 43.0625 39.75
Q45.3594 42.0938 46.3125 44.6719
Q47.2656 47.2656 47.2656 50.4844" id="Verdana-50"/>
      <path d="
M70.4062 5.375
Q64.4531 2.64062 57.3906 0.609375
Q50.3438 -1.42188 43.75 -1.42188
Q35.25 -1.42188 28.1719 0.921875
Q21.0938 3.26562 16.1094 7.95312
Q11.0781 12.7031 8.34375 19.7969
Q5.60938 26.9062 5.60938 36.4219
Q5.60938 53.8594 15.7969 63.9375
Q25.9844 74.0312 43.75 74.0312
Q49.9531 74.0312 56.4219 72.5312
Q62.8906 71.0469 70.3594 67.4844
L70.3594 56
L69.4844 56
Q67.9688 57.1719 65.0781 59.0781
Q62.2031 60.9844 59.4219 62.25
Q56.0625 63.7656 51.7812 64.7656
Q47.5156 65.7656 42.0938 65.7656
Q29.8906 65.7656 22.7812 57.9219
Q15.6719 50.0938 15.6719 36.7188
Q15.6719 22.6094 23.0938 14.7656
Q30.5156 6.9375 43.3125 6.9375
Q48 6.9375 52.6562 7.85938
Q57.3281 8.79688 60.8438 10.25
L60.8438 28.0781
L41.3594 28.0781
L41.3594 36.5781
L70.4062 36.5781
z
" id="Verdana-47"/>
      <path d="
M67.0938 0
L56.7812 0
L49.6562 20.2656
L18.2188 20.2656
L11.0781 0
L1.26562 0
L27.7344 72.7031
L40.625 72.7031
z

M46.6875 28.5625
L33.9375 64.2656
L21.1406 28.5625
z
" id="Verdana-41"/>
     </defs>
     <g transform="translate(125.28 288.783)scale(0.144 -0.144)">
      <use xlink:href="#Verdana-41"/>
      <use x="68.359375" xlink:href="#Verdana-4d"/>
      <use x="152.63671875" xlink:href="#Verdana-50"/>
      <use x="212.939453125" xlink:href="#Verdana-47"/>
      <use x="290.478515625" xlink:href="#Verdana-4f"/>
     </g>
    </g>
    <g id="line2d_32">
     <path d="
M89.28 304.783
L109.44 304.783" style="fill:none;stroke:#008000;stroke-dasharray:1.000000,1.000000;stroke-dashoffset:0.0;"/>
    </g>
    <g id="line2d_33"/>
    <g id="text_17">
     <!-- Anneal -->
     <g transform="translate(125.28 309.82275)scale(0.144 -0.144)">
      <use xlink:href="#Verdana-41"/>
      <use x="68.359375" xlink:href="#Verdana-6e"/>
      <use x="131.640625" xlink:href="#Verdana-6e"/>
      <use x="194.921875" xlink:href="#Verdana-65"/>
      <use x="254.4921875" xlink:href="#Verdana-61"/>
      <use x="314.55078125" xlink:href="#Verdana-6c"/>
     </g>
    </g>
    <g id="line2d_34">
     <path d="
M89.28 325.822
L109.44 325.822" style="fill:none;stroke:#ff0000;stroke-dasharray:3.000000,6.000000;stroke-dashoffset:0.0;"/>
    </g>
    <g id="line2d_35"/>
    <g id="text_18">
     <!-- BSA -->
     <defs>
      <path d="
M64.5938 22.3594
Q64.5938 16.9375 62.5469 12.7812
Q60.5 8.64062 57.0312 5.95312
Q52.9375 2.73438 48.0156 1.35938
Q43.1094 0 35.5469 0
L9.76562 0
L9.76562 72.7031
L31.2969 72.7031
Q39.2656 72.7031 43.2188 72.1094
Q47.1719 71.5312 50.7812 69.6719
Q54.7812 67.5781 56.5938 64.2812
Q58.4062 60.9844 58.4062 56.3906
Q58.4062 51.2188 55.7656 47.5781
Q53.125 43.9531 48.7344 41.75
L48.7344 41.3594
Q56.1094 39.8438 60.3438 34.8906
Q64.5938 29.9375 64.5938 22.3594
M48.3438 55.125
Q48.3438 57.7656 47.4531 59.5625
Q46.5781 61.375 44.625 62.5
Q42.3281 63.8125 39.0625 64.125
Q35.7969 64.4531 30.9531 64.4531
L19.4375 64.4531
L19.4375 43.4531
L31.9375 43.4531
Q36.4688 43.4531 39.1562 43.9219
Q41.8438 44.3906 44.1406 45.8438
Q46.4375 47.3125 47.3906 49.625
Q48.3438 51.9531 48.3438 55.125
M54.5469 21.9688
Q54.5469 26.375 53.2188 28.9531
Q51.9062 31.5469 48.4375 33.3438
Q46.0938 34.5781 42.75 34.9375
Q39.4062 35.2969 34.625 35.2969
L19.4375 35.2969
L19.4375 8.25
L32.2344 8.25
Q38.5781 8.25 42.625 8.90625
Q46.6875 9.57812 49.2656 11.3281
Q52 13.2344 53.2656 15.6719
Q54.5469 18.1094 54.5469 21.9688" id="Verdana-42"/>
      <path d="
M62.5938 20.75
Q62.5938 16.5 60.6094 12.3438
Q58.6406 8.20312 55.0781 5.32812
Q51.1719 2.20312 45.9688 0.4375
Q40.7656 -1.3125 33.4531 -1.3125
Q25.5938 -1.3125 19.3125 0.140625
Q13.0312 1.60938 6.54688 4.5
L6.54688 16.6094
L7.23438 16.6094
Q12.75 12.0156 19.9688 9.51562
Q27.2031 7.03125 33.5469 7.03125
Q42.5312 7.03125 47.5312 10.3906
Q52.5469 13.7656 52.5469 19.3906
Q52.5469 24.2188 50.1719 26.5156
Q47.7969 28.8125 42.9688 30.0781
Q39.3125 31.0625 35.0312 31.6875
Q30.7656 32.3281 25.9844 33.2969
Q16.3125 35.3594 11.6406 40.3125
Q6.98438 45.2656 6.98438 53.2188
Q6.98438 62.3594 14.6875 68.1875
Q22.4062 74.0312 34.2812 74.0312
Q41.9375 74.0312 48.3281 72.5625
Q54.7344 71.0938 59.6719 68.9531
L59.6719 57.5156
L58.9844 57.5156
Q54.8281 61.0312 48.0625 63.3438
Q41.3125 65.6719 34.2344 65.6719
Q26.4688 65.6719 21.75 62.4531
Q17.0469 59.2344 17.0469 54.1562
Q17.0469 49.6094 19.3906 47.0156
Q21.7344 44.4375 27.6406 43.0625
Q30.7656 42.3906 36.5156 41.4062
Q42.2812 40.4375 46.2969 39.4062
Q54.3906 37.25 58.4844 32.9062
Q62.5938 28.5625 62.5938 20.75" id="Verdana-53"/>
     </defs>
     <g transform="translate(125.28 330.8625)scale(0.144 -0.144)">
      <use xlink:href="#Verdana-42"/>
      <use x="68.5546875" xlink:href="#Verdana-53"/>
      <use x="135.9140625" xlink:href="#Verdana-41"/>
     </g>
    </g>
    <g id="line2d_36">
     <path d="
M89.28 346.862
L109.44 346.862" style="fill:none;stroke:#00bfbf;stroke-dasharray:5.000000,1.000000,2.000000,1.000000,5.000000,1.000000;stroke-dashoffset:0.0;"/>
    </g>
    <g id="line2d_37"/>
    <g id="text_19">
     <!-- Cuckoo -->
     <defs>
      <path d="
M58.5469 0
L46.4375 0
L24.5625 23.875
L18.6094 18.2188
L18.6094 0
L9.42188 0
L9.42188 75.9844
L18.6094 75.9844
L18.6094 27.25
L45.125 54.5469
L56.6875 54.5469
L31.3438 29.3438
z
" id="Verdana-6b"/>
      <path d="
M65.9219 5.28125
Q63.2344 4.10938 61.0625 3.07812
Q58.8906 2.04688 55.375 0.921875
Q52.3906 0 48.8906 -0.65625
Q45.4062 -1.3125 41.2188 -1.3125
Q33.2969 -1.3125 26.8281 0.90625
Q20.3594 3.125 15.5781 7.85938
Q10.8906 12.5 8.25 19.6562
Q5.60938 26.8125 5.60938 36.2812
Q5.60938 45.2656 8.14062 52.3438
Q10.6875 59.4219 15.4844 64.3125
Q20.125 69.0469 26.6875 71.5312
Q33.25 74.0312 41.2656 74.0312
Q47.125 74.0312 52.9531 72.6094
Q58.7969 71.1875 65.9219 67.625
L65.9219 56.1562
L65.1875 56.1562
Q59.1875 61.1875 53.2656 63.4688
Q47.3594 65.7656 40.625 65.7656
Q35.1094 65.7656 30.6875 63.9844
Q26.2656 62.2031 22.7969 58.4531
Q19.4375 54.7812 17.5469 49.1875
Q15.6719 43.6094 15.6719 36.2812
Q15.6719 28.6094 17.75 23.0938
Q19.8281 17.5781 23.0938 14.1094
Q26.5156 10.5 31.0781 8.76562
Q35.6406 7.03125 40.7188 7.03125
Q47.7031 7.03125 53.7969 9.42188
Q59.9062 11.8125 65.2344 16.6094
L65.9219 16.6094
z
" id="Verdana-43"/>
     </defs>
     <g transform="translate(125.28 351.90225)scale(0.144 -0.144)">
      <use xlink:href="#Verdana-43"/>
      <use x="69.82421875" xlink:href="#Verdana-75"/>
      <use x="133.10546875" xlink:href="#Verdana-63"/>
      <use x="185.205078125" xlink:href="#Verdana-6b"/>
      <use x="243.384765625" xlink:href="#Verdana-6f"/>
      <use x="304.078125" xlink:href="#Verdana-6f"/>
     </g>
    </g>
    <g id="line2d_38">
     <path d="
M89.28 367.902
L109.44 367.902" style="fill:none;stroke:#bf00bf;stroke-linecap:square;"/>
    </g>
    <g id="line2d_39"/>
    <g id="text_20">
     <!-- qABC -->
     <defs>
      <path d="
M53.2656 -20.125
L44.0938 -20.125
L44.0938 6.15625
Q39.8438 2.48438 35.6406 0.703125
Q31.4531 -1.07812 26.5625 -1.07812
Q16.8438 -1.07812 11.0625 6.42188
Q5.28125 13.9219 5.28125 27.0938
Q5.28125 34.125 7.29688 39.5156
Q9.32812 44.9219 12.6406 48.5781
Q15.875 52.1562 20.2188 54.1094
Q24.5625 56.0625 29.3906 56.0625
Q33.7969 56.0625 37.1875 55.0781
Q40.5781 54.1094 44.0938 52.2031
L44.6719 54.5469
L53.2656 54.5469
z

M44.0938 13.875
L44.0938 44.7344
Q40.2812 46.4375 37.3438 47.1094
Q34.4219 47.7969 31 47.7969
Q23.0469 47.7969 18.8906 42.4062
Q14.75 37.0156 14.75 27.5469
Q14.75 17.9688 18.0938 12.8125
Q21.4375 7.67188 28.6094 7.67188
Q32.625 7.67188 36.625 9.40625
Q40.625 11.1406 44.0938 13.875" id="Verdana-71"/>
     </defs>
     <g transform="translate(125.28 372.942)scale(0.144 -0.144)">
      <use xlink:href="#Verdana-71"/>
      <use x="62.3046875" xlink:href="#Verdana-41"/>
      <use x="130.6640625" xlink:href="#Verdana-42"/>
      <use x="199.21875" xlink:href="#Verdana-43"/>
     </g>
    </g>
   </g>
  </g>
 </g>
 <defs>
  <clipPath id="p7ff5b81e1d">
   <rect height="345.6" width="446.4" x="72.0" y="43.2"/>
  </clipPath>
 </defs>
</svg>
