<?xml version="1.0" encoding="utf-8" standalone="no"?>
<!DOCTYPE svg PUBLIC "-//W3C//DTD SVG 1.1//EN"
  "http://www.w3.org/Graphics/SVG/1.1/DTD/svg11.dtd">
<!-- Created with matplotlib (http://matplotlib.org/) -->
<svg height="432pt" version="1.1" viewBox="0 0 576 432" width="576pt" xmlns="http://www.w3.org/2000/svg" xmlns:xlink="http://www.w3.org/1999/xlink">
 <defs>
  <style type="text/css">
*{stroke-linecap:butt;stroke-linejoin:round;}
  </style>
 </defs>
 <g id="figure_1">
  <g id="patch_1">
   <path d="
M0 432
L576 432
L576 0
L0 0
z
" style="fill:#ffffff;"/>
  </g>
  <g id="axes_1">
   <g id="patch_2">
    <path d="
M72 388.8
L518.4 388.8
L518.4 43.2
L72 43.2
z
" style="fill:#ffffff;"/>
   </g>
   <g id="line2d_1">
    <path clip-path="url(#p7ff5b81e1d)" d="
M72 388.617
L72.0893 388.8
L72.1786 388.8
L73.7856 388.8
L73.9642 387.52
L74.6784 387.52
L74.857 386.057
L75.5712 386.057
L75.7498 378.194
L76.464 378.194
L76.6426 375.269
L77.3568 375.269
L77.5354 369.417
L78.2496 369.417
L78.4282 362.834
L79.1424 362.834
L79.321 359.36
L80.0352 359.36
L80.2138 356.251
L80.928 356.251
L81.1066 354.606
L81.8208 354.606
L81.9994 353.691
L82.7136 353.691
L82.8922 352.594
L83.6064 352.594
L83.785 352.046
L84.4992 352.046
L84.6778 351.497
L85.392 351.497
L85.5706 351.131
L86.2848 351.131
L86.4634 350.949
L87.1776 350.949
L87.3562 350.766
L88.9632 350.766
L89.1418 350.4
L159.048 350.4
L159.227 350.217
L169.047 350.217
L169.226 350.034
L218.419 350.034
L218.598 349.851
L297.164 349.851
L297.343 349.669
L300.735 349.669
L300.914 349.486
L518.311 349.486
L518.311 349.486" style="fill:none;stroke:#0000ff;stroke-dasharray:6.000000,2.000000;stroke-dashoffset:0.0;"/>
   </g>
   <g id="line2d_2">
    <path clip-path="url(#p7ff5b81e1d)" d="
M72 388.8
L72.0893 388.525
L72.1786 388.525
L72.625 388.525
L72.8035 388.8
L74.5891 388.8
L74.7677 388.525
L75.1248 388.525
L75.3034 387.976
L75.4819 387.976
L75.6605 387.701
L75.7498 387.701
L76.0176 387.152
L76.1069 387.152
L76.464 385.778
L76.8211 384.13
L77.089 384.13
L77.2675 382.756
L77.3568 382.756
L77.4461 382.207
L77.6246 380.284
L77.7139 380.009
L77.9818 376.987
L78.2496 375.064
L78.4282 374.24
L78.6067 372.591
L78.7853 371.218
L79.0531 369.295
L79.4995 363.8
L79.7674 359.405
L80.2138 352.811
L80.4816 350.064
L80.6602 347.592
L80.7494 346.493
L80.928 344.02
L81.1958 340.998
L81.6422 335.229
L81.7315 334.68
L81.9994 332.207
L82.2672 330.284
L83.16 318.197
L83.4278 314.076
L83.8742 307.482
L84.1421 305.01
L84.5885 297.592
L84.9456 294.021
L85.1242 291.274
L85.2134 290.999
L85.6598 284.955
L85.9277 283.856
L86.3741 279.186
L86.4634 279.186
L86.5526 278.911
L86.8205 275.889
L86.9098 275.34
L87.2669 271.494
L88.6061 256.109
L88.8739 254.186
L89.0525 251.989
L89.1418 251.714
L89.3203 249.791
L89.6774 247.318
L89.9453 244.022
L90.0346 243.747
L90.3024 241.549
L90.481 240.45
L90.9274 239.351
L91.0166 239.351
L91.7309 235.231
L91.8202 235.231
L91.9987 234.681
L92.1773 234.132
L92.4451 232.483
L93.0701 228.088
L93.4272 224.791
L93.5165 224.516
L93.695 223.417
L93.8736 222.593
L93.9629 222.593
L94.4093 220.396
L94.4986 220.121
L94.6771 218.472
L94.7664 218.472
L94.945 217.099
L95.3021 214.901
L95.4806 213.528
L95.7485 212.703
L96.1056 210.231
L96.4627 208.857
L96.7306 205.835
L97.3555 203.912
L97.5341 202.813
L97.6234 202.813
L98.0698 200.616
L98.159 200.341
L98.5162 197.868
L98.6947 197.044
L98.9626 195.396
L99.0518 195.121
L99.2304 193.473
L99.6768 192.099
L99.8554 191.275
L100.48 189.077
L100.927 186.605
L101.016 186.605
L101.284 185.506
L101.373 185.506
L101.552 184.407
L101.909 183.583
L102.087 182.209
L102.177 182.209
L102.355 181.934
L102.444 181.934
L102.623 181.385
L102.712 181.11
L102.98 179.462
L103.159 178.638
L103.337 177.814
L103.605 177.814
L103.962 176.99
L104.141 176.99
L104.319 176.44
L104.409 176.44
L104.944 175.066
L105.123 175.066
L105.837 173.143
L105.926 173.143
L106.462 170.396
L106.551 170.396
L106.908 169.572
L107.087 169.572
L107.266 168.748
L107.533 168.748
L107.98 166.55
L108.158 166.55
L108.248 166.275
L108.516 164.627
L108.694 164.352
L108.873 163.253
L109.14 163.253
L109.855 161.33
L110.033 161.33
L110.39 159.682
L110.926 159.682
L111.105 159.133
L111.372 159.133
L111.551 158.583
L111.819 158.034
L112.355 158.034
L112.622 157.484
L112.98 157.484
L113.694 155.561
L113.872 155.561
L114.051 155.286
L114.229 155.286
L114.408 153.913
L114.765 153.913
L115.39 152.265
L115.836 152.265
L116.104 151.715
L116.194 151.715
L116.372 150.341
L116.461 150.341
L116.729 149.792
L116.908 149.792
L117.086 149.243
L117.265 149.243
L117.444 148.968
L117.89 148.968
L118.158 148.418
L118.336 148.418
L118.872 147.045
L119.765 147.045
L119.943 146.77
L120.658 146.77
L120.836 146.495
L120.925 146.495
L121.372 145.397
L121.64 145.397
L121.818 145.122
L122.175 145.122
L122.443 144.572
L122.711 144.572
L123.068 143.748
L123.336 143.748
L123.515 143.473
L123.782 143.473
L124.229 142.375
L124.407 142.375
L124.586 141.825
L124.675 141.825
L125.211 140.452
L125.3 140.452
L125.568 139.902
L125.657 139.902
L125.925 139.353
L126.55 139.353
L126.729 138.803
L126.818 138.803
L127.175 137.979
L127.354 137.979
L127.8 136.88
L127.889 136.88
L128.068 136.331
L128.246 135.507
L128.425 135.232
L128.961 135.232
L129.228 134.682
L129.318 134.682
L129.586 134.133
L129.675 134.133
L130.032 133.309
L130.568 133.309
L130.746 132.759
L131.014 132.759
L131.55 131.386
L131.639 131.386
L131.907 130.836
L132.085 130.836
L132.264 130.287
L132.8 130.287
L132.978 130.012
L133.157 130.012
L133.425 129.463
L133.514 129.463
L134.05 128.089
L134.228 128.089
L134.585 127.265
L134.942 127.265
L135.121 126.99
L135.746 126.99
L135.924 126.715
L136.103 126.715
L136.639 125.342
L136.728 125.342
L136.907 125.067
L136.996 125.067
L137.174 124.792
L137.264 124.792
L137.532 124.243
L137.978 124.243
L138.156 123.968
L138.335 123.968
L138.514 123.693
L139.317 123.693
L139.496 123.419
L139.942 123.419
L140.121 123.144
L140.388 123.144
L140.567 122.869
L140.835 122.869
L141.013 122.32
L141.103 122.32
L141.371 121.77
L141.906 121.77
L142.085 121.496
L142.263 121.496
L142.442 121.221
L142.62 121.221
L142.888 120.672
L143.245 120.672
L143.424 120.397
L144.317 120.397
L144.585 119.847
L145.567 119.847
L145.745 119.573
L146.013 119.573
L146.281 119.023
L146.46 119.023
L146.638 118.748
L147.084 118.748
L147.263 118.474
L147.352 118.474
L147.531 118.199
L148.334 118.199
L148.602 117.65
L149.227 117.65
L149.406 117.375
L149.495 117.375
L149.674 116.825
L149.941 116.276
L150.566 116.276
L150.745 116.001
L150.834 116.001
L151.013 115.727
L151.102 115.727
L151.281 115.177
L151.37 115.177
L151.638 114.628
L151.906 114.628
L152.173 114.078
L152.263 114.078
L152.441 113.803
L152.798 113.803
L152.977 112.979
L153.423 112.979
L153.602 112.705
L154.048 112.705
L154.227 112.43
L154.316 112.43
L154.584 111.88
L154.763 111.88
L154.941 111.331
L155.388 111.331
L155.655 110.782
L156.102 110.782
L156.37 110.232
L157.173 110.232
L157.352 109.957
L158.423 109.957
L158.602 109.683
L158.691 109.683
L158.959 109.133
L159.673 109.133
L159.852 108.859
L160.209 108.859
L160.387 108.584
L160.655 108.584
L160.834 108.309
L161.994 108.309
L162.173 108.034
L162.53 108.034
L162.708 107.76
L162.798 107.76
L162.976 107.21
L163.512 107.21
L163.691 106.935
L164.226 106.935
L164.405 106.661
L164.762 106.661
L164.94 106.386
L165.833 106.386
L166.012 106.111
L166.905 106.111
L167.083 105.837
L167.797 105.837
L167.976 105.562
L168.333 105.562
L168.512 105.287
L168.601 105.287
L168.78 105.012
L168.869 105.012
L169.047 104.188
L170.833 104.188
L171.101 103.639
L171.726 103.639
L171.904 103.364
L172.261 103.364
L172.44 102.815
L172.797 102.815
L172.976 102.54
L173.511 102.54
L173.69 102.265
L174.136 102.265
L174.404 101.716
L174.851 101.716
L175.029 101.441
L175.654 101.441
L175.833 101.166
L176.368 101.166
L176.547 100.892
L176.636 100.892
L176.815 100.617
L177.529 100.617
L177.708 100.342
L177.975 100.342
L178.154 100.067
L178.243 100.067
L178.422 99.7927
L179.94 99.7927
L180.118 99.518
L180.207 99.518
L180.386 99.2432
L180.654 99.2432
L180.832 98.9685
L181.011 98.9685
L181.189 98.6938
L182.082 98.6938
L182.261 98.4191
L184.939 98.4191
L185.118 98.1444
L185.653 98.1444
L185.832 97.8696
L186.814 97.8696
L186.993 97.5949
L187.618 97.5949
L187.796 97.3202
L188.957 97.3202
L189.135 96.7707
L189.492 96.7707
L189.671 96.496
L190.742 96.496
L190.921 96.2213
L194.76 96.2213
L194.939 95.9466
L195.117 95.9466
L195.296 95.6719
L195.742 95.6719
L195.921 95.3971
L196.01 95.3971
L196.188 94.8477
L197.26 94.8477
L197.438 94.573
L197.528 94.573
L197.706 94.2983
L198.51 94.2983
L198.688 94.0235
L199.403 94.0235
L199.581 93.7488
L200.117 93.7488
L200.295 93.1994
L200.652 93.1994
L200.831 92.9246
L201.456 92.9246
L201.635 92.6499
L203.242 92.6499
L203.42 92.3752
L204.045 92.3752
L204.224 92.1005
L204.402 92.1005
L204.581 91.8258
L205.295 91.8258
L205.474 91.551
L205.92 91.551
L206.099 91.2763
L207.438 91.2763
L207.616 91.0016
L210.116 91.0016
L210.295 90.7269
L211.009 90.7269
L211.188 90.4521
L211.634 90.4521
L211.812 90.1774
L211.902 90.1774
L212.08 89.9027
L212.884 89.9027
L213.062 89.628
L213.955 89.628
L214.223 89.0785
L214.491 89.0785
L214.669 88.8038
L214.848 88.8038
L215.027 88.5291
L216.901 88.5291
L217.169 87.9797
L217.437 87.9797
L217.616 87.7049
L219.848 87.7049
L220.026 87.4302
L221.99 87.4302
L222.169 87.1555
L223.151 87.1555
L223.33 86.8808
L226.187 86.8808
L226.365 86.606
L229.133 86.606
L229.311 86.3313
L229.758 86.3313
L229.936 86.0566
L230.383 86.0566
L230.561 85.7819
L230.918 85.7819
L231.097 85.5072
L231.722 85.5072
L231.9 85.2324
L234.222 85.2324
L234.4 84.9577
L235.74 84.9577
L235.918 84.683
L236.097 84.683
L236.364 84.1335
L239.936 84.1335
L240.114 83.8588
L240.293 83.8588
L240.561 83.3094
L241.453 83.3094
L241.632 83.0347
L244.221 83.0347
L244.4 82.7599
L246.9 82.7599
L247.078 82.4852
L248.328 82.4852
L248.507 82.2105
L248.596 82.2105
L248.774 81.9358
L249.489 81.9358
L249.667 81.3863
L249.846 81.3863
L250.024 81.1116
L251.185 81.1116
L251.364 80.8369
L251.542 80.8369
L251.988 79.738
L252.881 79.738
L253.06 79.4633
L255.292 79.4633
L255.47 79.1886
L256.542 79.1886
L256.72 78.9138
L257.881 78.9138
L258.06 78.6391
L258.327 78.6391
L258.506 78.3644
L258.774 78.3644
L258.952 78.0897
L262.881 78.0897
L263.059 77.8149
L264.22 77.8149
L264.398 77.5402
L267.077 77.5402
L267.255 77.2655
L269.934 77.2655
L270.112 76.9908
L271.809 76.9908
L271.987 76.7161
L275.826 76.7161
L276.005 76.4413
L280.201 76.4413
L280.38 76.1666
L280.469 76.1666
L280.647 75.8919
L281.54 75.8919
L281.719 75.6172
L281.808 75.6172
L281.987 75.3424
L283.236 75.3424
L283.415 75.0677
L286.451 75.0677
L286.629 74.793
L288.504 74.793
L288.683 74.5183
L290.022 74.5183
L290.2 74.2436
L290.647 74.2436
L290.825 73.9688
L292.432 73.9688
L292.611 73.6941
L295.021 73.6941
L295.2 73.4194
L298.682 73.4194
L298.86 73.1447
L303.146 73.1447
L303.324 72.87
L304.753 72.87
L304.932 72.5952
L305.378 72.5952
L305.556 72.3205
L306.449 72.3205
L306.628 72.0458
L317.341 72.0458
L317.52 71.7711
L317.966 71.7711
L318.145 71.4963
L322.966 71.4963
L323.145 71.2216
L324.037 71.2216
L324.305 70.6722
L324.395 70.6722
L324.573 70.3975
L325.377 70.3975
L325.555 70.1227
L329.037 70.1227
L329.216 69.848
L330.823 69.848
L331.001 69.5733
L335.108 69.5733
L335.287 69.2986
L335.376 69.2986
L335.555 69.0238
L337.34 69.0238
L337.519 68.7491
L340.733 68.7491
L340.911 68.4744
L345.643 68.4744
L345.822 68.1997
L347.34 68.1997
L347.518 67.925
L348.322 67.925
L348.5 67.6502
L353.053 67.6502
L353.232 67.3755
L363.678 67.3755
L363.856 67.1008
L365.553 67.1008
L365.731 66.5514
L372.338 66.5514
L372.516 66.2766
L373.945 66.2766
L374.124 66.0019
L375.016 66.0019
L375.195 65.7272
L376.98 65.7272
L377.159 65.4525
L377.873 65.4525
L378.052 65.1777
L378.766 65.1777
L378.945 64.903
L384.391 64.903
L384.569 64.6283
L389.658 64.6283
L389.837 64.3536
L394.479 64.3536
L394.747 63.8041
L396.801 63.8041
L396.979 63.5294
L420.192 63.5294
L420.371 63.2547
L421.531 63.2547
L421.71 62.98
L429.477 62.98
L429.656 62.7052
L430.459 62.7052
L430.638 62.4305
L438.227 62.4305
L438.405 62.1558
L443.048 62.1558
L443.226 61.8811
L444.655 61.8811
L444.833 61.6064
L450.101 61.6064
L450.279 61.3316
L453.583 61.3316
L453.761 61.0569
L465.903 61.0569
L466.082 60.7822
L467.51 60.7822
L467.689 60.5075
L477.867 60.5075
L478.045 60.2328
L484.741 60.2328
L484.92 59.958
L490.991 59.958
L491.17 59.6833
L493.669 59.6833
L493.848 59.4086
L506.079 59.4086
L506.258 59.1339
L509.918 59.1339
L510.097 58.8591
L512.597 58.8591
L512.775 58.5844
L516.882 58.5844
L517.061 58.3097
L518.311 58.3097
L518.311 58.3097" style="fill:none;stroke:#008000;stroke-dasharray:1.000000,1.000000;stroke-dashoffset:0.0;"/>
   </g>
   <g id="line2d_3">
    <path clip-path="url(#p7ff5b81e1d)" d="
M72 388.8
L72.2678 388.8
L72.4464 388.11
L72.5357 388.11
L72.7142 388.8
L85.1242 388.8
L85.3027 388.11
L90.3917 388.11
L90.5702 387.42
L95.927 387.42
L96.1056 386.731
L96.2842 386.731
L96.4627 386.041
L104.855 386.041
L105.034 385.351
L105.212 385.351
L105.391 384.661
L105.569 384.661
L105.748 383.971
L106.373 383.971
L106.551 383.281
L109.051 383.281
L109.23 382.592
L109.587 382.592
L109.765 381.902
L110.212 381.902
L110.39 381.212
L110.48 381.212
L110.658 380.522
L111.73 380.522
L111.908 379.832
L112.265 379.832
L112.444 378.453
L112.712 378.453
L112.89 377.763
L112.98 377.763
L113.247 376.383
L113.604 376.383
L113.962 374.314
L114.14 374.314
L114.319 373.624
L115.122 373.624
L115.301 372.934
L115.658 372.934
L115.926 371.554
L116.194 371.554
L116.372 370.865
L116.908 370.865
L117.086 370.175
L117.265 370.175
L117.533 368.795
L117.622 368.795
L117.801 367.416
L118.068 366.036
L119.14 366.036
L119.318 365.346
L119.408 365.346
L119.765 363.277
L119.943 363.277
L120.211 361.897
L120.568 361.897
L120.925 359.828
L122.532 359.828
L122.711 359.138
L123.157 359.138
L123.515 357.068
L123.604 357.068
L123.782 356.378
L124.586 356.378
L124.764 355.689
L125.032 355.689
L125.3 354.309
L125.479 354.309
L125.657 352.24
L125.747 352.24
L125.925 351.55
L126.014 351.55
L126.372 349.48
L126.461 349.48
L126.729 348.101
L126.907 348.101
L127.086 346.721
L127.264 346.721
L127.8 343.272
L127.889 343.272
L128.336 340.513
L128.871 340.513
L129.05 339.823
L129.139 339.823
L129.496 337.753
L129.764 337.753
L129.943 337.063
L130.121 337.063
L130.657 330.165
L130.836 329.475
L131.014 329.475
L131.193 328.786
L131.818 328.786
L131.996 326.026
L132.085 326.026
L132.264 325.337
L132.443 325.337
L132.621 324.647
L133.068 324.647
L133.246 323.957
L133.425 323.957
L133.603 323.267
L133.692 323.267
L133.871 321.198
L134.139 321.198
L134.317 319.818
L134.407 319.818
L135.121 314.989
L135.389 314.989
L136.014 310.85
L136.192 310.85
L136.46 309.471
L136.549 309.471
L136.728 308.781
L136.996 308.781
L137.174 306.022
L137.264 306.022
L137.532 302.572
L137.71 302.572
L138.335 298.434
L138.781 298.434
L139.139 296.364
L139.228 296.364
L139.674 290.156
L140.121 290.156
L140.299 289.466
L140.478 289.466
L140.656 288.776
L140.746 288.776
L140.924 288.086
L141.192 288.086
L141.371 286.707
L141.728 286.707
L141.906 284.637
L141.996 284.637
L142.799 279.119
L142.888 279.119
L143.156 275.669
L143.603 275.669
L143.692 274.98
L143.87 272.91
L144.049 272.91
L144.317 270.151
L144.406 270.151
L144.852 267.392
L144.942 267.392
L145.299 265.322
L145.656 265.322
L146.906 256.354
L146.995 256.354
L147.531 252.905
L147.888 252.905
L148.067 251.526
L148.245 249.456
L148.513 249.456
L148.959 246.697
L149.049 246.697
L149.316 245.317
L149.406 245.317
L149.584 243.938
L149.763 243.938
L149.941 241.868
L150.031 241.868
L150.477 239.109
L150.656 239.109
L150.834 237.729
L150.924 237.729
L151.102 235.66
L151.37 231.521
L151.548 231.521
L151.727 229.451
L151.816 229.451
L151.995 228.072
L152.084 228.072
L152.263 227.382
L152.352 227.382
L152.888 223.933
L153.245 223.933
L153.513 219.104
L153.78 217.725
L153.959 217.725
L154.138 216.345
L154.227 216.345
L154.405 214.965
L154.495 214.965
L154.673 212.896
L154.852 212.896
L155.298 210.137
L155.388 210.137
L155.745 208.067
L155.834 208.067
L156.28 204.618
L156.637 197.72
L157.262 193.581
L157.352 193.581
L157.887 188.752
L158.066 185.993
L158.244 185.993
L158.423 185.303
L158.602 185.303
L158.959 181.164
L159.227 181.164
L159.762 177.715
L159.852 177.715
L160.03 176.335
L160.119 176.335
L160.387 173.576
L160.476 173.576
L160.655 171.507
L160.834 171.507
L161.012 170.127
L161.191 170.127
L161.459 166.678
L161.726 166.678
L161.994 165.298
L162.53 165.298
L162.708 164.608
L162.798 164.608
L163.333 161.159
L163.423 161.159
L163.691 159.78
L164.494 159.78
L164.762 157.02
L165.565 151.502
L165.655 151.502
L166.101 148.743
L166.28 148.743
L166.726 145.983
L166.994 145.983
L167.083 145.293
L167.262 143.224
L167.351 143.224
L167.708 140.465
L167.887 137.016
L168.065 137.016
L168.244 136.326
L168.333 136.326
L168.869 132.877
L168.958 132.877
L169.315 130.117
L169.494 127.358
L169.583 127.358
L170.208 123.219
L170.565 123.219
L170.744 121.84
L170.833 121.84
L171.012 121.15
L171.279 121.15
L171.547 117.701
L171.904 117.701
L172.083 117.011
L172.172 117.011
L172.619 114.251
L173.065 114.251
L173.511 111.492
L173.601 111.492
L173.779 110.802
L173.958 110.802
L174.226 109.423
L174.672 109.423
L174.851 108.043
L175.565 108.043
L175.833 106.663
L176.1 106.663
L176.368 105.284
L176.458 105.284
L176.904 102.525
L177.35 102.525
L177.529 101.835
L177.708 101.835
L177.975 100.455
L178.154 100.455
L178.779 96.3162
L178.868 96.3162
L179.85 89.418
L180.029 89.418
L180.386 87.3485
L181.189 87.3485
L181.368 86.6587
L181.547 86.6587
L181.725 85.9689
L181.814 85.9689
L181.993 85.279
L182.35 85.279
L182.529 83.2096
L182.707 82.5198
L183.064 82.5198
L183.243 81.8299
L183.332 81.8299
L183.511 80.4503
L183.957 80.4503
L184.136 79.7605
L184.314 79.7605
L184.493 79.0707
L184.671 79.0707
L184.85 78.3808
L184.939 78.3808
L185.118 77.691
L185.386 77.691
L185.653 76.3114
L186.1 76.3114
L186.278 75.6216
L186.457 75.6216
L186.725 74.2419
L187.796 74.2419
L187.975 73.5521
L188.332 73.5521
L188.6 72.1725
L188.778 72.1725
L188.957 71.4826
L189.85 71.4826
L190.207 69.4132
L190.385 69.4132
L190.564 68.0335
L191.367 68.0335
L191.546 67.3437
L192.349 67.3437
L192.528 65.2743
L192.617 65.2743
L192.796 64.5844
L192.885 64.5844
L193.064 63.8946
L193.332 63.8946
L193.867 60.4455
L194.314 60.4455
L194.581 59.0659
L198.51 59.0659
L198.688 58.376
L198.956 58.376
L199.224 56.9964
L199.492 56.9964
L199.67 56.3066
L201.099 56.3066
L201.367 54.9269
L201.635 54.9269
L201.813 54.2371
L201.902 54.2371
L202.17 52.8575
L204.67 52.8575
L204.849 52.1677
L208.688 52.1677
L208.866 51.4778
L209.848 51.4778
L210.027 50.788
L213.777 50.788
L213.955 50.0982
L214.044 50.0982
L214.223 49.4084
L215.205 49.4084
L215.384 48.7186
L217.169 48.7186
L217.348 48.0287
L219.312 48.0287
L219.491 47.3389
L219.937 47.3389
L220.116 46.6491
L220.294 46.6491
L220.473 45.9593
L222.526 45.9593
L222.794 44.5796
L232.615 44.5796
L232.793 43.8898
L235.65 43.8898
L235.829 43.2
L518.311 43.2
L518.311 43.2" style="fill:none;stroke:#ff0000;stroke-dasharray:3.000000,6.000000;stroke-dashoffset:0.0;"/>
   </g>
   <g id="line2d_4">
    <path clip-path="url(#p7ff5b81e1d)" d="
M72 388.8
L72.0893 388.8
L72.2678 388.613
L72.5357 388.613
L72.625 388.8
L72.8035 388.613
L73.0714 388.613
L73.2499 388.427
L73.7856 388.427
L73.9642 388.613
L82.6243 388.613
L82.8029 388.427
L97.8912 388.427
L98.159 388.054
L111.194 388.054
L111.372 387.867
L112.801 387.867
L113.069 387.494
L115.122 387.494
L115.301 387.307
L115.569 387.307
L115.747 387.121
L119.408 387.121
L119.586 386.934
L122.711 386.934
L122.979 386.561
L123.068 386.561
L123.247 386.374
L129.139 386.374
L129.318 386.187
L132.71 386.187
L132.889 386.001
L133.246 386.001
L133.425 385.814
L136.192 385.814
L136.371 385.628
L137.889 385.628
L138.067 385.254
L139.942 385.254
L140.121 385.068
L140.299 385.068
L140.478 384.881
L140.567 384.881
L140.746 384.695
L141.281 384.695
L141.46 384.508
L143.603 384.508
L143.781 384.321
L144.406 384.321
L144.585 384.135
L146.638 384.135
L146.817 383.948
L146.995 383.948
L147.352 383.388
L147.62 383.388
L147.799 383.202
L149.227 383.202
L149.406 383.015
L150.031 383.015
L150.209 382.829
L151.37 382.829
L151.638 382.455
L151.727 382.455
L151.995 382.082
L152.084 382.082
L152.263 381.895
L154.316 381.895
L154.495 381.522
L154.673 381.522
L154.852 381.336
L155.209 381.336
L155.388 381.149
L155.477 381.149
L155.745 380.776
L157.887 380.776
L158.155 380.403
L158.869 380.403
L159.137 380.029
L160.119 380.029
L160.298 379.843
L161.459 379.843
L161.637 379.656
L161.994 379.656
L162.262 379.283
L162.441 379.283
L162.708 378.91
L163.155 378.91
L163.333 378.723
L164.94 378.723
L165.119 378.537
L165.208 378.537
L165.387 378.35
L165.565 378.35
L165.923 377.79
L166.19 377.79
L166.369 377.603
L167.619 377.603
L167.797 377.417
L168.512 377.417
L168.69 377.23
L168.869 377.23
L169.137 376.857
L169.404 376.857
L169.583 376.484
L169.762 376.484
L169.94 376.297
L170.833 376.297
L171.012 376.111
L171.994 376.111
L172.172 375.924
L172.708 375.924
L172.886 375.737
L173.422 375.737
L173.69 375.364
L173.958 375.364
L174.136 375.178
L175.476 375.178
L175.654 374.991
L176.368 374.991
L176.547 374.804
L176.725 374.804
L176.993 374.431
L177.083 374.431
L177.44 373.871
L177.975 373.871
L178.154 373.685
L179.493 373.685
L179.761 373.311
L180.029 373.311
L180.475 372.565
L180.743 372.565
L180.922 372.378
L182.707 372.378
L182.975 372.005
L183.064 372.005
L183.332 371.632
L183.421 371.632
L183.779 371.072
L184.046 371.072
L184.493 370.326
L185.475 370.326
L185.653 370.139
L186.546 370.139
L186.725 369.952
L186.993 369.952
L187.171 369.579
L187.796 368.46
L189.76 368.46
L190.385 367.34
L190.475 367.34
L190.653 366.967
L190.921 366.967
L191.1 366.78
L191.278 366.78
L191.546 366.407
L191.635 366.407
L191.814 366.22
L192.528 366.22
L192.707 366.034
L193.064 366.034
L193.242 365.847
L193.599 365.847
L193.778 365.474
L193.867 365.474
L194.046 365.287
L194.135 365.287
L194.581 364.541
L194.849 364.541
L195.117 364.168
L195.206 364.168
L195.474 363.794
L195.742 363.794
L195.921 363.608
L196.546 363.608
L196.813 363.235
L196.903 363.235
L197.081 363.048
L197.528 363.048
L197.885 362.488
L198.063 362.488
L198.42 361.928
L198.688 361.928
L198.867 361.742
L198.956 361.742
L199.135 361.555
L200.831 361.555
L201.099 361.182
L201.277 361.182
L201.902 360.062
L202.081 360.062
L202.349 359.689
L202.884 359.689
L203.063 359.502
L203.331 359.502
L203.509 359.316
L204.313 359.316
L204.581 358.383
L204.849 358.383
L205.206 357.823
L205.295 357.823
L205.652 357.263
L205.741 357.263
L205.92 357.076
L206.188 357.076
L206.456 356.703
L206.724 356.703
L206.902 356.33
L207.527 356.33
L207.706 356.143
L207.795 356.143
L207.973 355.77
L208.241 355.397
L208.331 355.397
L208.598 355.024
L208.777 355.024
L209.134 354.464
L209.67 354.464
L209.848 354.277
L211.188 354.277
L212.884 350.918
L215.027 350.918
L216.098 348.866
L216.276 348.866
L216.455 348.492
L216.723 348.119
L216.901 348.119
L217.08 347.933
L218.241 347.933
L219.133 346.253
L219.312 346.253
L219.669 345.693
L219.848 345.693
L220.116 345.32
L220.919 345.32
L221.098 345.133
L222.08 345.133
L222.437 344.014
L222.615 344.014
L222.883 343.641
L222.972 343.641
L223.24 343.267
L223.955 343.267
L224.133 342.894
L225.204 342.894
L225.829 341.775
L225.919 341.775
L226.008 341.588
L226.187 340.841
L226.276 340.841
L226.99 339.535
L227.079 339.535
L227.258 339.349
L227.526 339.349
L227.704 339.162
L228.597 339.162
L228.865 338.789
L229.044 338.789
L229.222 338.229
L229.401 337.669
L229.579 337.669
L230.115 336.736
L230.383 336.736
L231.097 335.43
L231.365 335.43
L231.543 335.243
L231.99 335.243
L232.436 334.497
L232.793 334.497
L234.49 331.138
L235.382 331.138
L235.65 330.765
L235.74 330.765
L235.918 330.578
L236.097 330.578
L236.275 330.391
L236.364 330.391
L236.543 329.645
L236.811 329.085
L237.168 327.406
L237.436 326.473
L237.525 326.473
L237.793 325.726
L238.329 324.793
L238.418 324.793
L238.596 324.606
L239.043 324.606
L239.221 324.42
L239.311 324.42
L239.489 324.233
L239.579 324.233
L239.757 324.047
L239.846 324.047
L240.025 323.86
L240.114 323.86
L240.293 323.673
L240.382 323.673
L241.186 321.994
L241.453 320.874
L242.882 320.874
L243.15 320.128
L243.507 320.128
L243.685 319.755
L244.935 317.329
L245.203 317.329
L245.471 316.956
L245.828 316.956
L246.275 316.209
L246.632 316.209
L246.81 316.022
L246.9 316.022
L247.078 315.276
L247.167 315.089
L247.435 313.97
L247.614 313.783
L247.703 313.783
L247.882 313.223
L248.06 312.663
L248.149 312.663
L248.239 312.477
L248.417 311.73
L248.596 311.544
L248.774 310.611
L248.953 310.424
L249.042 310.424
L249.221 310.238
L249.399 310.238
L249.578 309.864
L249.756 309.864
L250.024 309.491
L250.203 309.491
L250.381 309.305
L250.471 309.305
L250.739 308.931
L251.006 308.931
L251.274 307.625
L251.453 307.252
L251.542 307.065
L251.721 306.505
L251.899 306.132
L252.346 305.386
L252.435 305.386
L252.703 305.013
L253.417 305.013
L253.596 304.826
L253.863 304.826
L254.042 304.639
L254.22 304.639
L254.399 304.079
L254.845 303.333
L255.024 303.333
L255.113 303.146
L255.292 302.587
L255.381 302.587
L256.095 301.28
L256.631 301.28
L257.077 300.534
L257.345 300.534
L257.524 300.347
L257.613 300.347
L258.06 299.601
L258.684 299.601
L258.952 298.668
L259.042 298.668
L259.399 297.362
L260.113 297.362
L260.292 296.802
L260.559 296.429
L260.738 296.429
L260.916 296.242
L261.006 296.242
L261.72 294.562
L261.988 293.629
L262.077 293.629
L262.345 292.883
L263.148 291.39
L263.238 291.39
L263.506 291.017
L263.773 291.017
L263.952 290.83
L264.22 290.83
L264.488 290.457
L264.666 290.457
L265.291 289.337
L265.38 289.337
L265.559 288.778
L265.648 288.778
L266.005 288.218
L266.184 286.911
L266.72 285.978
L266.988 285.978
L267.612 284.859
L267.97 284.859
L268.148 284.672
L268.237 284.672
L268.595 284.112
L268.773 284.112
L269.041 283.366
L269.22 282.619
L269.398 282.619
L269.844 281.873
L269.934 281.873
L270.112 281.5
L270.559 281.5
L270.737 281.127
L271.273 281.127
L271.809 280.194
L271.898 280.194
L272.166 279.447
L273.505 276.648
L273.684 276.088
L273.951 276.088
L274.219 275.715
L275.38 275.715
L275.558 275.155
L275.737 274.409
L275.826 274.409
L276.005 274.222
L276.094 274.222
L276.273 273.849
L276.451 273.849
L276.719 273.102
L276.898 272.729
L277.344 271.983
L277.612 271.983
L277.79 271.796
L278.326 271.796
L278.594 271.423
L278.683 271.423
L278.951 271.05
L279.04 271.05
L279.219 270.49
L279.397 269.557
L279.755 268.997
L279.844 268.997
L280.112 268.251
L280.201 268.251
L280.38 267.504
L280.469 267.504
L280.915 266.758
L281.094 266.758
L281.272 266.011
L281.451 266.011
L281.629 265.825
L282.344 265.825
L282.522 265.638
L282.612 265.638
L282.879 264.332
L283.504 263.212
L283.594 263.212
L283.861 262.466
L284.04 262.092
L284.129 262.092
L284.486 261.533
L284.576 261.533
L284.754 261.346
L284.933 261.346
L285.201 260.973
L285.29 260.973
L285.826 260.04
L286.183 260.04
L286.718 259.107
L286.808 259.107
L287.611 257.614
L287.7 257.614
L287.968 256.867
L288.415 256.867
L288.683 256.494
L289.308 256.494
L289.486 256.308
L289.754 256.308
L290.111 255.375
L290.29 254.815
L290.379 254.815
L291.361 252.575
L291.54 251.642
L291.807 251.269
L291.897 251.269
L292.075 251.083
L292.343 251.083
L292.522 250.709
L292.7 250.523
L292.789 250.523
L292.968 250.149
L293.147 249.963
L293.236 249.963
L293.414 249.403
L293.861 247.164
L294.218 246.044
L294.486 246.044
L294.664 245.857
L294.843 245.857
L295.379 244.924
L295.468 244.924
L295.825 244.365
L296.45 244.365
L296.628 244.178
L296.896 244.178
L297.432 243.245
L297.521 243.245
L297.7 242.685
L297.878 242.312
L298.057 242.125
L298.146 242.125
L298.325 241.752
L298.503 241.006
L298.771 240.632
L298.86 240.632
L299.039 240.259
L299.307 239.886
L299.396 239.886
L299.575 239.699
L299.843 239.699
L300.021 239.513
L300.468 239.513
L300.825 238.953
L301.182 238.953
L301.45 238.02
L301.539 238.02
L301.896 236.9
L301.985 236.9
L302.164 236.714
L302.432 236.714
L302.789 236.154
L303.146 236.154
L303.414 235.781
L303.503 235.781
L303.682 235.594
L303.771 235.594
L304.217 234.848
L304.307 234.848
L304.485 234.474
L304.574 234.474
L305.021 233.728
L305.199 233.728
L305.735 231.862
L305.914 231.862
L306.181 231.489
L306.628 231.489
L306.985 230.929
L307.074 230.929
L307.342 230.556
L307.431 230.556
L307.699 229.809
L307.878 229.436
L307.967 229.436
L308.146 229.063
L308.413 228.689
L308.503 228.689
L308.681 228.316
L308.949 227.197
L309.485 226.263
L309.842 226.263
L310.02 226.077
L310.199 226.077
L310.378 225.704
L310.556 225.144
L310.824 224.771
L311.181 224.771
L311.449 224.397
L311.538 224.397
L311.717 224.211
L311.806 224.211
L312.342 222.905
L312.52 222.531
L312.61 222.345
L312.877 221.038
L313.145 220.665
L313.502 220.665
L314.127 219.546
L314.484 219.546
L314.663 219.359
L314.752 219.359
L315.02 218.986
L315.199 218.986
L315.645 217.493
L315.913 216.746
L316.181 215.813
L316.27 215.813
L316.449 215.627
L316.806 215.627
L316.984 215.44
L317.341 215.44
L317.52 214.88
L318.324 214.88
L318.591 214.507
L318.859 214.507
L319.127 213.761
L319.484 213.201
L319.573 213.201
L319.931 212.081
L320.109 211.895
L320.288 211.895
L320.645 211.335
L320.823 211.335
L321.091 210.962
L321.359 210.962
L321.716 210.402
L321.895 210.402
L322.163 209.282
L322.252 209.282
L322.43 208.722
L322.52 208.722
L322.609 208.349
L322.788 207.416
L323.412 206.296
L323.502 206.296
L323.68 205.737
L323.948 205.737
L324.395 204.99
L324.484 204.99
L324.662 204.43
L324.93 204.43
L325.109 204.244
L325.287 204.244
L325.555 203.87
L325.644 203.87
L325.823 203.311
L326.448 201.071
L326.537 201.071
L327.162 199.952
L327.252 199.952
L327.43 199.765
L327.876 199.765
L328.144 199.392
L328.412 199.392
L328.591 199.019
L329.037 199.019
L329.394 197.899
L329.93 196.966
L330.019 196.966
L330.376 195.846
L330.733 195.286
L330.823 195.286
L331.001 195.1
L331.091 195.1
L331.269 194.913
L331.448 194.913
L331.626 194.54
L331.894 194.54
L332.073 194.167
L332.162 194.167
L332.34 193.98
L332.608 193.98
L332.876 192.86
L333.055 192.487
L333.144 192.487
L333.412 192.114
L333.59 192.114
L333.769 191.927
L333.858 191.927
L334.751 190.248
L335.644 190.248
L335.912 189.875
L336.001 189.875
L336.269 189.502
L336.447 189.502
L336.804 188.382
L336.894 188.382
L337.251 187.635
L337.429 186.889
L337.787 186.329
L337.876 186.329
L338.769 184.65
L339.483 184.65
L339.661 184.276
L339.751 184.276
L340.108 183.157
L340.286 183.157
L340.554 182.41
L340.733 182.41
L341.179 181.664
L341.268 181.664
L341.358 181.477
L341.536 180.917
L341.893 180.917
L342.608 179.611
L342.965 179.611
L343.233 179.238
L343.322 179.238
L343.5 179.051
L343.947 179.051
L344.215 178.678
L344.393 178.678
L345.286 176.999
L345.554 176.999
L346.179 175.879
L346.447 175.879
L346.625 175.692
L346.715 175.692
L347.072 174.386
L347.25 174.386
L347.518 173.08
L347.786 173.08
L348.054 171.96
L348.411 171.96
L348.857 171.214
L349.036 171.214
L349.214 171.027
L349.929 171.027
L350.107 170.841
L350.464 170.841
L350.732 170.094
L351.179 169.348
L351.268 169.348
L351.446 168.788
L351.893 168.041
L351.982 168.041
L352.428 167.295
L352.607 167.295
L352.786 167.108
L353.321 167.108
L353.768 166.362
L354.036 166.362
L354.214 166.175
L354.75 166.175
L355.107 165.616
L355.196 165.616
L355.375 165.056
L355.553 164.123
L355.732 164.123
L356.268 163.19
L356.535 163.19
L356.803 162.816
L356.892 162.816
L357.071 162.443
L357.16 162.443
L357.339 162.257
L357.607 162.257
L358.142 160.39
L358.41 159.831
L358.589 159.271
L358.767 158.711
L358.857 158.711
L359.035 158.524
L359.124 158.524
L359.392 158.151
L359.66 158.151
L359.839 157.965
L360.107 157.965
L360.285 157.778
L360.374 157.778
L360.553 157.591
L360.821 157.591
L360.91 157.405
L361.089 156.845
L361.267 156.845
L361.624 155.725
L361.892 155.352
L362.071 155.352
L362.249 154.792
L362.428 154.232
L362.874 154.232
L363.142 153.859
L363.231 153.859
L363.41 153.673
L363.678 153.673
L364.035 153.113
L365.106 153.113
L365.285 152.553
L365.463 151.993
L365.82 151.993
L366.267 151.247
L366.356 151.247
L366.535 150.687
L366.803 150.687
L367.07 150.314
L367.785 150.314
L367.963 150.127
L368.499 150.127
L369.035 149.194
L369.392 149.194
L369.57 148.261
L369.927 147.141
L370.017 147.141
L370.195 146.768
L370.374 146.581
L370.463 146.581
L370.999 145.648
L371.267 145.648
L371.445 145.462
L371.713 145.462
L371.892 145.089
L371.981 145.089
L372.249 144.156
L372.338 144.156
L372.963 143.036
L373.052 143.036
L373.856 141.543
L375.016 141.543
L375.195 141.356
L375.463 141.356
L375.82 140.237
L375.998 140.05
L376.177 140.05
L376.356 139.677
L376.713 139.677
L377.07 139.117
L377.516 139.117
L377.695 138.93
L377.963 138.93
L378.141 138.744
L378.677 138.744
L378.945 138.371
L379.123 138.371
L379.48 137.811
L379.57 137.811
L379.748 137.064
L379.927 137.064
L380.195 136.691
L380.373 136.691
L380.82 135.945
L381.355 135.945
L381.623 135.571
L382.248 135.571
L382.427 135.385
L382.605 135.385
L382.873 134.638
L382.962 134.638
L383.319 133.519
L383.498 132.959
L383.676 132.586
L383.766 132.586
L383.944 132.399
L384.123 132.399
L384.301 132.026
L384.48 131.839
L385.73 131.839
L385.908 131.653
L386.176 131.653
L386.355 131.466
L386.444 131.466
L386.712 130.72
L386.801 130.533
L386.98 129.787
L387.069 129.787
L387.248 129.413
L387.605 129.413
L387.783 129.227
L388.676 129.227
L388.855 129.04
L389.123 129.04
L389.301 128.854
L390.105 128.854
L390.64 127.921
L390.73 127.921
L391.176 127.174
L391.265 127.174
L391.444 126.987
L391.533 126.987
L391.712 126.614
L391.98 126.614
L392.337 126.054
L392.962 126.054
L393.14 125.495
L393.408 125.495
L393.587 125.308
L394.033 125.308
L394.212 124.562
L394.39 124.375
L394.569 124.375
L394.836 124.002
L395.372 124.002
L395.729 123.442
L396.801 123.442
L396.979 123.255
L397.068 123.255
L397.426 122.695
L397.515 122.695
L397.693 122.509
L397.872 122.509
L398.051 121.949
L398.229 121.949
L398.408 121.389
L399.3 121.389
L399.568 121.016
L400.55 121.016
L400.729 120.456
L400.908 120.083
L400.997 120.083
L401.175 119.71
L401.354 119.71
L401.89 118.777
L401.979 118.777
L402.157 118.403
L402.247 118.403
L402.515 118.03
L402.782 118.03
L403.05 117.657
L403.764 117.657
L403.943 117.47
L404.122 117.47
L404.3 117.284
L404.389 117.284
L404.568 116.911
L404.925 116.911
L405.104 116.537
L405.372 116.164
L405.461 116.164
L405.907 115.418
L405.996 115.418
L406.354 114.858
L406.711 114.858
L407.068 114.298
L407.782 114.298
L408.05 113.925
L408.139 113.925
L408.675 112.992
L408.764 112.992
L408.943 112.619
L409.211 112.619
L409.478 112.245
L409.657 112.245
L410.014 111.686
L410.46 111.686
L410.639 111.499
L410.907 111.499
L411.085 111.312
L411.175 111.312
L411.621 109.819
L411.71 109.819
L412.157 109.073
L412.335 109.073
L413.139 107.58
L413.228 107.58
L413.407 107.394
L413.764 107.394
L414.121 106.834
L414.657 106.834
L415.282 105.714
L415.371 105.714
L415.549 105.527
L415.639 105.527
L415.817 104.968
L416.174 104.968
L416.621 104.221
L417.335 104.221
L417.603 103.848
L418.585 103.848
L418.853 103.475
L419.299 103.475
L419.478 103.102
L419.567 103.102
L419.746 102.915
L420.192 102.915
L420.549 102.355
L420.817 102.355
L420.996 102.168
L421.62 102.168
L421.799 101.795
L421.888 101.795
L422.067 101.422
L422.424 101.422
L422.692 101.049
L422.87 101.049
L423.049 100.862
L423.138 100.862
L423.317 100.302
L423.406 100.302
L423.674 99.9292
L425.192 99.9292
L425.37 99.7425
L425.549 99.7425
L425.727 99.5559
L426.263 99.5559
L426.442 99.3693
L426.531 99.3693
L426.799 98.9961
L426.888 98.9961
L427.156 98.6229
L427.245 98.6229
L427.424 98.4363
L427.513 98.4363
L427.692 98.2497
L428.852 98.2497
L429.12 97.8765
L429.299 97.8765
L429.477 97.6898
L429.656 97.6898
L429.834 97.5032
L430.102 97.5032
L430.638 96.5702
L430.906 96.5702
L431.173 96.197
L432.156 96.197
L432.334 96.0104
L432.602 96.0104
L432.78 95.8238
L433.048 95.8238
L433.227 95.6371
L434.03 95.6371
L434.209 95.2639
L434.834 95.2639
L435.012 94.8907
L435.459 94.8907
L435.727 94.5175
L436.262 94.5175
L436.53 94.1443
L436.62 94.1443
L436.887 93.7711
L437.066 93.7711
L437.244 93.5844
L437.691 93.5844
L437.869 93.2112
L438.852 93.2112
L439.03 93.0246
L439.119 93.0246
L439.298 92.838
L440.012 92.838
L440.191 92.6514
L440.459 92.6514
L441.084 91.5317
L441.351 91.5317
L441.53 90.9719
L442.155 90.9719
L442.333 90.4121
L442.512 90.4121
L442.869 89.8523
L443.226 89.8523
L443.494 89.479
L444.208 89.479
L444.387 89.2924
L444.565 89.2924
L444.744 88.7326
L445.28 88.7326
L445.548 88.3594
L447.065 88.3594
L447.422 87.7996
L448.226 87.7996
L448.494 87.4263
L448.583 87.4263
L448.851 87.0531
L450.815 87.0531
L450.994 86.8665
L451.261 86.8665
L451.44 86.6799
L451.619 86.6799
L451.797 86.1201
L451.976 86.1201
L452.154 85.9335
L454.029 85.9335
L454.208 85.3737
L454.654 85.3737
L454.833 85.0004
L455.011 85.0004
L455.547 84.0674
L455.904 84.0674
L456.261 83.5076
L456.44 83.5076
L456.618 83.321
L457.6 83.321
L457.868 82.9477
L458.582 82.9477
L458.761 82.7611
L458.85 82.7611
L459.207 82.2013
L459.832 82.2013
L460.011 82.0147
L460.547 82.0147
L460.725 81.8281
L461.172 81.8281
L461.439 81.0816
L461.529 81.0816
L461.707 80.5218
L463.404 80.5218
L463.582 80.3352
L464.028 80.3352
L464.207 80.1486
L464.386 80.1486
L464.564 79.962
L466.082 79.962
L466.26 79.7754
L467.064 79.7754
L467.243 79.5888
L467.332 79.5888
L467.51 79.4022
L468.046 79.4022
L468.225 79.2156
L468.314 79.2156
L468.492 79.0289
L468.671 79.0289
L468.85 78.8423
L468.939 78.8423
L469.117 78.6557
L469.475 78.6557
L469.653 78.4691
L470.189 78.4691
L470.367 78.2825
L470.457 78.2825
L470.635 78.0959
L471.439 78.0959
L471.707 77.7227
L472.242 77.7227
L472.421 77.5361
L472.51 77.5361
L472.689 77.1629
L473.046 76.603
L473.224 76.603
L473.403 76.4164
L473.492 76.4164
L473.76 76.0432
L474.117 76.0432
L474.296 75.8566
L475.546 75.8566
L475.813 75.4834
L476.26 75.4834
L476.438 75.2968
L476.885 75.2968
L477.063 75.1102
L477.153 75.1102
L477.331 74.7369
L479.206 74.7369
L479.385 74.5503
L479.742 74.5503
L480.01 74.1771
L480.099 74.1771
L480.367 73.8039
L481.974 73.8039
L482.152 73.6173
L483.224 73.6173
L483.402 73.4307
L483.759 73.4307
L483.938 73.2441
L484.116 73.2441
L484.384 72.8708
L487.241 72.8708
L487.42 72.6842
L489.384 72.6842
L489.563 72.4976
L490.812 72.4976
L490.991 72.311
L491.437 72.311
L491.616 72.1244
L492.509 72.1244
L492.687 71.9378
L493.223 71.9378
L493.402 71.7512
L494.116 71.7512
L494.294 71.5646
L494.652 71.5646
L494.919 71.1914
L495.009 71.1914
L495.276 70.8181
L496.616 70.8181
L496.794 70.6315
L497.776 70.6315
L498.223 69.8851
L498.491 69.8851
L498.669 69.6985
L500.008 69.6985
L500.187 69.5119
L500.455 69.5119
L500.633 69.3253
L501.08 69.3253
L501.258 69.1387
L501.883 69.1387
L502.24 68.5788
L504.026 68.5788
L504.204 68.3922
L504.294 68.3922
L504.472 68.2056
L504.74 68.2056
L505.097 67.6458
L505.722 67.6458
L505.901 67.086
L507.061 67.086
L507.24 66.8994
L511.258 66.8994
L511.436 66.7127
L511.883 66.7127
L512.15 66.3395
L513.936 66.3395
L514.115 66.1529
L514.829 66.1529
L515.275 65.4065
L516.436 65.4065
L516.614 65.2199
L516.972 65.2199
L517.239 64.8467
L518.311 64.8467
L518.311 64.8467" style="fill:none;stroke:#00bfbf;stroke-dasharray:5.000000,1.000000,2.000000,1.000000,5.000000,1.000000;stroke-dashoffset:0.0;"/>
   </g>
   <g id="line2d_5">
    <path clip-path="url(#p7ff5b81e1d)" d="
M72 388.8
L76.8211 388.8
L77.089 387.42
L77.9818 387.42
L78.1603 386.731
L79.1424 386.731
L79.4102 384.661
L79.5888 381.902
L79.6781 381.902
L80.0352 379.832
L80.303 379.832
L80.4816 378.453
L80.928 375.693
L82.0886 375.693
L82.2672 375.004
L82.3565 375.004
L82.7136 372.934
L82.8029 372.934
L83.0707 367.416
L83.16 367.416
L83.8742 354.999
L84.4992 341.892
L84.767 341.892
L84.9456 341.202
L85.6598 341.202
L85.8384 340.513
L86.1955 340.513
L86.2848 339.823
L86.5526 334.304
L86.999 326.026
L87.0883 326.026
L87.5347 321.887
L87.8918 317.749
L88.1597 317.749
L88.3382 317.059
L88.8739 317.059
L89.231 314.989
L89.6774 314.989
L89.7667 314.299
L91.1952 281.878
L91.2845 281.878
L91.5523 274.98
L91.9094 274.98
L92.088 274.29
L93.4272 274.29
L94.4093 259.114
L94.6771 250.146
L95.0342 245.317
L95.2128 240.489
L95.8378 240.489
L96.0163 239.109
L96.9091 239.109
L97.8019 220.484
L97.8912 220.484
L97.9805 219.794
L98.159 217.725
L98.3376 216.345
L98.4269 216.345
L98.6054 213.586
L98.6947 213.586
L98.8733 212.896
L99.8554 212.896
L100.034 212.206
L100.48 212.206
L101.373 204.618
L101.73 197.72
L101.909 195.65
L102.355 192.891
L102.712 192.891
L102.891 192.201
L104.052 192.201
L104.319 189.442
L104.409 189.442
L104.676 185.993
L104.855 185.993
L105.034 183.923
L105.212 181.854
L105.301 181.854
L106.016 177.025
L106.998 177.025
L107.176 176.335
L107.623 176.335
L108.605 169.437
L108.694 169.437
L109.319 165.298
L110.033 165.298
L110.212 164.608
L111.283 164.608
L111.64 160.469
L111.819 160.469
L112.087 159.09
L112.176 159.09
L112.355 158.4
L112.444 158.4
L112.622 156.331
L112.801 156.331
L113.069 154.951
L113.872 154.951
L114.051 154.261
L114.229 154.261
L114.408 153.571
L114.765 153.571
L114.944 152.881
L115.122 152.881
L115.479 148.743
L115.569 148.743
L115.747 148.053
L117.086 148.053
L117.354 146.673
L118.336 146.673
L118.961 142.534
L119.051 142.534
L119.318 141.154
L119.497 141.154
L119.854 139.085
L120.033 139.085
L120.211 137.705
L121.64 137.705
L121.818 136.326
L121.908 135.636
L122.086 132.877
L122.265 132.877
L123.157 126.668
L123.336 126.668
L123.604 125.289
L123.782 125.289
L123.961 124.599
L125.657 124.599
L125.925 123.219
L126.014 123.219
L126.461 120.46
L126.639 120.46
L126.996 118.39
L127.621 118.39
L127.8 117.701
L129.318 117.701
L129.496 117.011
L129.586 117.011
L129.853 115.631
L130.032 115.631
L130.211 113.562
L130.3 113.562
L130.478 111.492
L132.621 111.492
L132.8 110.802
L133.068 110.802
L133.246 110.113
L133.603 110.113
L133.871 108.733
L133.96 108.733
L134.139 108.043
L134.228 108.043
L134.407 107.353
L136.192 107.353
L136.549 105.284
L136.728 105.284
L136.996 103.904
L137.085 103.904
L137.353 102.525
L137.532 102.525
L137.71 101.835
L137.889 101.835
L138.067 101.145
L139.764 101.145
L139.942 100.455
L140.388 100.455
L140.567 99.7653
L140.835 99.7653
L141.013 99.0754
L141.103 99.0754
L141.46 97.006
L143.603 97.006
L143.87 95.6263
L144.049 95.6263
L144.228 93.5569
L144.406 93.5569
L144.674 92.1772
L144.852 92.1772
L145.031 91.4874
L145.299 91.4874
L145.477 90.7976
L146.906 90.7976
L147.084 90.1078
L147.709 90.1078
L147.888 89.418
L148.067 89.418
L148.334 88.0383
L148.424 88.0383
L148.692 86.6587
L150.656 86.6587
L150.834 85.9689
L151.102 85.9689
L151.281 84.5892
L151.906 84.5892
L152.084 83.8994
L152.173 83.8994
L152.352 83.2096
L155.03 83.2096
L155.209 82.5198
L156.905 82.5198
L157.084 81.8299
L161.191 81.8299
L161.369 81.1401
L162.887 81.1401
L163.066 79.7605
L164.94 79.7605
L165.119 79.0707
L166.101 79.0707
L166.369 77.691
L168.958 77.691
L169.226 76.3114
L169.494 76.3114
L169.672 75.6216
L172.351 75.6216
L172.529 74.9317
L172.976 74.9317
L173.154 73.5521
L174.583 73.5521
L174.761 72.8623
L175.476 72.8623
L175.654 72.1725
L179.582 72.1725
L179.761 71.4826
L180.029 71.4826
L180.297 70.103
L180.922 70.103
L181.1 69.4132
L182.618 69.4132
L182.886 68.0335
L183.779 68.0335
L183.957 67.3437
L187.439 67.3437
L187.618 66.6539
L190.207 66.6539
L190.475 65.2743
L197.171 65.2743
L197.349 64.5844
L201.902 64.5844
L202.081 63.8946
L207.795 63.8946
L207.973 63.2048
L208.688 63.2048
L208.956 61.8251
L212.17 61.8251
L212.348 61.1353
L212.437 61.1353
L212.616 60.4455
L219.044 60.4455
L219.223 59.7557
L219.758 59.7557
L219.937 59.0659
L221.901 59.0659
L222.169 57.6862
L222.615 57.6862
L222.794 56.9964
L225.651 56.9964
L225.829 56.3066
L226.901 56.3066
L227.079 55.6168
L237.347 55.6168
L237.525 54.9269
L240.114 54.9269
L240.293 54.2371
L240.65 54.2371
L240.828 53.5473
L246.096 53.5473
L246.275 52.8575
L251.899 52.8575
L252.078 51.4778
L254.756 51.4778
L254.935 50.788
L259.309 50.788
L259.488 50.0982
L265.023 50.0982
L265.202 49.4084
L265.738 49.4084
L265.916 48.7186
L269.666 48.7186
L269.844 48.0287
L270.112 48.0287
L270.291 47.3389
L273.148 47.3389
L273.326 46.6491
L284.219 46.6491
L284.397 45.9593
L309.485 45.9593
L309.663 45.2695
L343.59 45.2695
L343.768 44.5796
L456.083 44.5796
L456.261 43.8898
L518.311 43.8898
L518.311 43.8898" style="fill:none;stroke:#bf00bf;stroke-linecap:square;"/>
   </g>
   <g id="matplotlib.axis_1">
    <g id="xtick_1">
     <g id="line2d_6">
      <defs>
       <path d="
M0 0
L0 -4" id="mc7db9fdffb" style="stroke:#000000;stroke-width:0.5;"/>
      </defs>
      <g>
       <use style="stroke:#000000;stroke-width:0.5;" x="72.0" xlink:href="#mc7db9fdffb" y="388.8"/>
      </g>
     </g>
     <g id="line2d_7">
      <defs>
       <path d="
M0 0
L0 4" id="m5a7d422ac3" style="stroke:#000000;stroke-width:0.5;"/>
      </defs>
      <g>
       <use style="stroke:#000000;stroke-width:0.5;" x="72.0" xlink:href="#m5a7d422ac3" y="43.2"/>
      </g>
     </g>
     <g id="text_1">
      <!-- 0 -->
      <defs>
       <path d="
M56.9844 36.375
Q56.9844 16.7969 50.8594 7.64062
Q44.7344 -1.51562 31.8438 -1.51562
Q18.75 -1.51562 12.7188 7.76562
Q6.6875 17.0469 6.6875 36.2812
Q6.6875 55.6719 12.7812 64.9219
Q18.8906 74.1719 31.8438 74.1719
Q44.9219 74.1719 50.9531 64.7656
Q56.9844 55.375 56.9844 36.375
M44.1406 14.2031
Q45.8438 18.1719 46.4531 23.5156
Q47.0781 28.8594 47.0781 36.375
Q47.0781 43.7969 46.4531 49.2656
Q45.8438 54.7344 44.0938 58.5469
Q42.3906 62.3125 39.4219 64.2031
Q36.4688 66.1094 31.8438 66.1094
Q27.25 66.1094 24.2344 64.2031
Q21.2344 62.3125 19.4844 58.4531
Q17.8281 54.8281 17.2188 49.0156
Q16.6094 43.2188 16.6094 36.2812
Q16.6094 28.6562 17.1406 23.5312
Q17.6719 18.4062 19.4375 14.3594
Q21.0469 10.5469 24 8.54688
Q26.9531 6.54688 31.8438 6.54688
Q36.4219 6.54688 39.4531 8.45312
Q42.4844 10.3594 44.1406 14.2031" id="Verdana-30"/>
      </defs>
      <g transform="translate(68.9821875 401.918125)scale(0.12 -0.12)">
       <use xlink:href="#Verdana-30"/>
      </g>
     </g>
    </g>
    <g id="xtick_2">
     <g id="line2d_8">
      <g>
       <use style="stroke:#000000;stroke-width:0.5;" x="161.28" xlink:href="#mc7db9fdffb" y="388.8"/>
      </g>
     </g>
     <g id="line2d_9">
      <g>
       <use style="stroke:#000000;stroke-width:0.5;" x="161.28" xlink:href="#m5a7d422ac3" y="43.2"/>
      </g>
     </g>
     <g id="text_2">
      <!-- 1000 -->
      <defs>
       <path d="
M52.9375 0
L13.5781 0
L13.5781 7.42188
L28.7188 7.42188
L28.7188 56.1562
L13.5781 56.1562
L13.5781 62.7969
Q16.6562 62.7969 20.1719 63.2969
Q23.6875 63.8125 25.4844 64.7969
Q27.7344 66.0156 29.0312 67.8906
Q30.3281 69.7812 30.5156 72.9531
L38.0938 72.9531
L38.0938 7.42188
L52.9375 7.42188
z
" id="Verdana-31"/>
      </defs>
      <g transform="translate(147.2315625 401.918125)scale(0.12 -0.12)">
       <use xlink:href="#Verdana-31"/>
       <use x="63.57421875" xlink:href="#Verdana-30"/>
       <use x="127.1484375" xlink:href="#Verdana-30"/>
       <use x="190.72265625" xlink:href="#Verdana-30"/>
      </g>
     </g>
    </g>
    <g id="xtick_3">
     <g id="line2d_10">
      <g>
       <use style="stroke:#000000;stroke-width:0.5;" x="250.56" xlink:href="#mc7db9fdffb" y="388.8"/>
      </g>
     </g>
     <g id="line2d_11">
      <g>
       <use style="stroke:#000000;stroke-width:0.5;" x="250.56" xlink:href="#m5a7d422ac3" y="43.2"/>
      </g>
     </g>
     <g id="text_3">
      <!-- 2000 -->
      <defs>
       <path d="
M57.0781 0
L7.85938 0
L7.85938 10.2031
Q12.9844 14.5938 18.1406 18.9844
Q23.2969 23.3906 27.7344 27.7344
Q37.1094 36.8125 40.5781 42.1562
Q44.0469 47.5156 44.0469 53.7188
Q44.0469 59.375 40.3125 62.5625
Q36.5781 65.7656 29.8906 65.7656
Q25.4375 65.7656 20.2656 64.2031
Q15.0938 62.6406 10.1562 59.4219
L9.67188 59.4219
L9.67188 69.6719
Q13.1406 71.3906 18.9219 72.7969
Q24.7031 74.2188 30.125 74.2188
Q41.3125 74.2188 47.6562 68.8125
Q54 63.4219 54 54.2031
Q54 50.0469 52.9531 46.4531
Q51.9062 42.875 49.8594 39.6562
Q47.9531 36.625 45.3906 33.6875
Q42.8281 30.7656 39.1562 27.2031
Q33.9375 22.0781 28.3594 17.2656
Q22.7969 12.4531 17.9688 8.34375
L57.0781 8.34375
z
" id="Verdana-32"/>
      </defs>
      <g transform="translate(236.1684375 401.918125)scale(0.12 -0.12)">
       <use xlink:href="#Verdana-32"/>
       <use x="63.57421875" xlink:href="#Verdana-30"/>
       <use x="127.1484375" xlink:href="#Verdana-30"/>
       <use x="190.72265625" xlink:href="#Verdana-30"/>
      </g>
     </g>
    </g>
    <g id="xtick_4">
     <g id="line2d_12">
      <g>
       <use style="stroke:#000000;stroke-width:0.5;" x="339.84" xlink:href="#mc7db9fdffb" y="388.8"/>
      </g>
     </g>
     <g id="line2d_13">
      <g>
       <use style="stroke:#000000;stroke-width:0.5;" x="339.84" xlink:href="#m5a7d422ac3" y="43.2"/>
      </g>
     </g>
     <g id="text_4">
      <!-- 3000 -->
      <defs>
       <path d="
M50.6875 35.0156
Q53.0312 32.9062 54.5469 29.7344
Q56.0625 26.5625 56.0625 21.5312
Q56.0625 16.5469 54.25 12.3906
Q52.4375 8.25 49.1719 5.17188
Q45.5156 1.76562 40.5469 0.125
Q35.5938 -1.51562 29.6875 -1.51562
Q23.6406 -1.51562 17.7812 -0.0625
Q11.9219 1.375 8.15625 3.07812
L8.15625 13.2812
L8.89062 13.2812
Q13.0312 10.5469 18.6406 8.73438
Q24.2656 6.9375 29.5 6.9375
Q32.5625 6.9375 36.0312 7.95312
Q39.5 8.98438 41.6562 10.9844
Q43.8906 13.1406 44.9844 15.7188
Q46.0938 18.3125 46.0938 22.2656
Q46.0938 26.1719 44.8438 28.7344
Q43.6094 31.2969 41.4062 32.7656
Q39.2031 34.2812 36.0781 34.8438
Q32.9531 35.4062 29.3438 35.4062
L24.9531 35.4062
L24.9531 43.5
L28.375 43.5
Q35.7969 43.5 40.2031 46.5938
Q44.625 49.7031 44.625 55.6719
Q44.625 58.2969 43.5 60.2656
Q42.3906 62.25 40.375 63.5312
Q38.2812 64.7969 35.8906 65.2812
Q33.5 65.7656 30.4688 65.7656
Q25.8281 65.7656 20.5938 64.1094
Q15.375 62.4531 10.75 59.4219
L10.25 59.4219
L10.25 69.625
Q13.7188 71.3438 19.5 72.7812
Q25.2969 74.2188 30.7188 74.2188
Q36.0312 74.2188 40.0781 73.2344
Q44.1406 72.2656 47.4062 70.125
Q50.9219 67.7812 52.7344 64.4531
Q54.5469 61.1406 54.5469 56.6875
Q54.5469 50.6406 50.2656 46.125
Q46 41.6094 40.1875 40.4375
L40.1875 39.75
Q42.5312 39.3594 45.5469 38.1094
Q48.5781 36.8594 50.6875 35.0156" id="Verdana-33"/>
      </defs>
      <g transform="translate(325.46625 401.918125)scale(0.12 -0.12)">
       <use xlink:href="#Verdana-33"/>
       <use x="63.57421875" xlink:href="#Verdana-30"/>
       <use x="127.1484375" xlink:href="#Verdana-30"/>
       <use x="190.72265625" xlink:href="#Verdana-30"/>
      </g>
     </g>
    </g>
    <g id="xtick_5">
     <g id="line2d_14">
      <g>
       <use style="stroke:#000000;stroke-width:0.5;" x="429.12" xlink:href="#mc7db9fdffb" y="388.8"/>
      </g>
     </g>
     <g id="line2d_15">
      <g>
       <use style="stroke:#000000;stroke-width:0.5;" x="429.12" xlink:href="#m5a7d422ac3" y="43.2"/>
      </g>
     </g>
     <g id="text_5">
      <!-- 4000 -->
      <defs>
       <path d="
M58.7344 20.4531
L47.9531 20.4531
L47.9531 0
L38.5781 0
L38.5781 20.4531
L3.76562 20.4531
L3.76562 31.6875
L38.9688 72.7031
L47.9531 72.7031
L47.9531 28.2656
L58.7344 28.2656
z

M38.5781 28.2656
L38.5781 61.0781
L10.4062 28.2656
z
" id="Verdana-34"/>
      </defs>
      <g transform="translate(414.4828125 401.918125)scale(0.12 -0.12)">
       <use xlink:href="#Verdana-34"/>
       <use x="63.57421875" xlink:href="#Verdana-30"/>
       <use x="127.1484375" xlink:href="#Verdana-30"/>
       <use x="190.72265625" xlink:href="#Verdana-30"/>
      </g>
     </g>
    </g>
    <g id="xtick_6">
     <g id="line2d_16">
      <g>
       <use style="stroke:#000000;stroke-width:0.5;" x="518.4" xlink:href="#mc7db9fdffb" y="388.8"/>
      </g>
     </g>
     <g id="line2d_17">
      <g>
       <use style="stroke:#000000;stroke-width:0.5;" x="518.4" xlink:href="#m5a7d422ac3" y="43.2"/>
      </g>
     </g>
     <g id="text_6">
      <!-- 5000 -->
      <defs>
       <path d="
M56.5 23.0938
Q56.5 18.0156 54.6406 13.375
Q52.7812 8.73438 49.5625 5.5625
Q46.0469 2.15625 41.1875 0.3125
Q36.3281 -1.51562 29.9375 -1.51562
Q23.9688 -1.51562 18.4531 -0.265625
Q12.9375 0.984375 9.125 2.73438
L9.125 13.0312
L9.8125 13.0312
Q13.8125 10.5 19.1875 8.71875
Q24.5625 6.9375 29.7344 6.9375
Q33.2031 6.9375 36.4531 7.90625
Q39.7031 8.89062 42.2344 11.3281
Q44.3906 13.4219 45.4844 16.3438
Q46.5781 19.2812 46.5781 23.1406
Q46.5781 26.9062 45.2812 29.4844
Q44 32.0781 41.7031 33.6406
Q39.1562 35.5 35.5156 36.25
Q31.8906 37.0156 27.3906 37.0156
Q23.0938 37.0156 19.1094 36.4219
Q15.1406 35.8438 12.25 35.25
L12.25 72.7031
L56 72.7031
L56 64.1562
L21.6875 64.1562
L21.6875 44.8281
Q23.7812 45.0156 25.9688 45.1094
Q28.1719 45.2188 29.7812 45.2188
Q35.6875 45.2188 40.125 44.2188
Q44.5781 43.2188 48.2969 40.6719
Q52.2031 37.9844 54.3438 33.7344
Q56.5 29.5 56.5 23.0938" id="Verdana-35"/>
      </defs>
      <g transform="translate(504.084375 401.918125)scale(0.12 -0.12)">
       <use xlink:href="#Verdana-35"/>
       <use x="63.57421875" xlink:href="#Verdana-30"/>
       <use x="127.1484375" xlink:href="#Verdana-30"/>
       <use x="190.72265625" xlink:href="#Verdana-30"/>
      </g>
     </g>
    </g>
    <g id="text_7">
     <!-- Objective function exectuions -->
     <defs>
      <path d="
M63.9688 64.3594
Q68.4062 59.4688 70.7656 52.3906
Q73.1406 45.3125 73.1406 36.3281
Q73.1406 27.3438 70.7188 20.2344
Q68.3125 13.1406 63.9688 8.40625
Q59.4688 3.46875 53.3438 0.96875
Q47.2188 -1.51562 39.3594 -1.51562
Q31.6875 -1.51562 25.4062 1.01562
Q19.1406 3.5625 14.75 8.40625
Q10.3594 13.2344 7.98438 20.2656
Q5.60938 27.2969 5.60938 36.3281
Q5.60938 45.2188 7.95312 52.2656
Q10.2969 59.3281 14.7969 64.3594
Q19.0938 69.1406 25.4688 71.6719
Q31.8438 74.2188 39.3594 74.2188
Q47.1719 74.2188 53.3906 71.6562
Q59.625 69.0938 63.9688 64.3594
M63.0938 36.3281
Q63.0938 50.4844 56.7344 58.1719
Q50.3906 65.875 39.4062 65.875
Q28.3281 65.875 22 58.1719
Q15.6719 50.4844 15.6719 36.3281
Q15.6719 22.0156 22.1094 14.4219
Q28.5625 6.84375 39.4062 6.84375
Q50.25 6.84375 56.6719 14.4219
Q63.0938 22.0156 63.0938 36.3281" id="Verdana-4f"/>
      <path d="
M38.375 67.0938
L37.8906 67.0938
Q36.375 67.5312 33.9375 67.9844
Q31.5 68.4531 29.6406 68.4531
Q23.7344 68.4531 21.0625 65.8438
Q18.4062 63.2344 18.4062 56.3906
L18.4062 54.5469
L34.9688 54.5469
L34.9688 46.8281
L18.7031 46.8281
L18.7031 0
L9.51562 0
L9.51562 46.8281
L3.32812 46.8281
L3.32812 54.5469
L9.51562 54.5469
L9.51562 56.3438
Q9.51562 66.0625 14.3438 71.2656
Q19.1875 76.4688 28.3281 76.4688
Q31.3906 76.4688 33.8594 76.1719
Q36.3281 75.875 38.375 75.4844
z
" id="Verdana-66"/>
      <path d="
M56.25 0
L44.6719 0
L29.2031 20.9531
L13.625 0
L2.9375 0
L24.2188 27.2031
L3.125 54.5469
L14.7031 54.5469
L30.0781 33.9375
L45.5156 54.5469
L56.25 54.5469
L34.8125 27.6875
z
" id="Verdana-78"/>
      <path d="
M54.6406 0
L45.4531 0
L45.4531 31.0625
Q45.4531 34.8125 45.0156 38.1094
Q44.5781 41.4062 43.4062 43.2656
Q42.1875 45.3125 39.8906 46.3125
Q37.5938 47.3125 33.9375 47.3125
Q30.1719 47.3125 26.0625 45.4531
Q21.9688 43.6094 18.2188 40.7188
L18.2188 0
L9.03125 0
L9.03125 54.5469
L18.2188 54.5469
L18.2188 48.4844
Q22.5156 52.0469 27.0938 54.0469
Q31.6875 56.0625 36.5312 56.0625
Q45.3594 56.0625 50 50.7344
Q54.6406 45.4062 54.6406 35.4062
z
" id="Verdana-6e"/>
      <path d="
M18.8906 63.6719
L8.54688 63.6719
L8.54688 73.1875
L18.8906 73.1875
z

M18.3125 0
L9.125 0
L9.125 54.5469
L18.3125 54.5469
z
" id="Verdana-69"/>
      <path d="
M56.2031 54.5469
L34.125 0
L24.9062 0
L2.98438 54.5469
L12.9375 54.5469
L29.8281 11.1406
L46.5781 54.5469
z
" id="Verdana-76"/>
      <path d="
M37.3594 0.484375
Q34.7656 -0.203125 31.7031 -0.640625
Q28.6562 -1.07812 26.2656 -1.07812
Q17.9219 -1.07812 13.5781 3.40625
Q9.23438 7.90625 9.23438 17.8281
L9.23438 46.8281
L3.03125 46.8281
L3.03125 54.5469
L9.23438 54.5469
L9.23438 70.2188
L18.4062 70.2188
L18.4062 54.5469
L37.3594 54.5469
L37.3594 46.8281
L18.4062 46.8281
L18.4062 21.9688
Q18.4062 17.6719 18.5938 15.25
Q18.7969 12.8438 19.9688 10.75
Q21.0469 8.79688 22.9219 7.89062
Q24.8125 6.98438 28.6562 6.98438
Q30.9062 6.98438 33.3438 7.64062
Q35.7969 8.29688 36.8594 8.73438
L37.3594 8.73438
z
" id="Verdana-74"/>
      <path d="
M54.6875 26.3125
L14.5 26.3125
Q14.5 21.2969 16.0156 17.5469
Q17.5312 13.8125 20.1719 11.4219
Q22.7031 9.07812 26.1875 7.90625
Q29.6875 6.73438 33.8906 6.73438
Q39.4531 6.73438 45.0938 8.95312
Q50.7344 11.1875 53.125 13.3281
L53.6094 13.3281
L53.6094 3.32812
Q48.9688 1.375 44.1406 0.046875
Q39.3125 -1.26562 33.9844 -1.26562
Q20.4062 -1.26562 12.7812 6.07812
Q5.17188 13.4219 5.17188 26.9531
Q5.17188 40.3281 12.4688 48.1875
Q19.7812 56.0625 31.6875 56.0625
Q42.7188 56.0625 48.7031 49.6094
Q54.6875 43.1719 54.6875 31.2969
z

M45.75 33.3438
Q45.7031 40.5781 42.1094 44.5312
Q38.5312 48.4844 31.2031 48.4844
Q23.8281 48.4844 19.4531 44.1406
Q15.0938 39.7969 14.5 33.3438
z
" id="Verdana-65"/>
      <path d="
M26.0312 63.6719
L15.6719 63.6719
L15.6719 73.1875
L26.0312 73.1875
z

M25.4375 -1.3125
Q25.4375 -10.8906 20.5469 -15.7656
Q15.6719 -20.6562 7.46875 -20.6562
Q5.51562 -20.6562 2.3125 -20.2656
Q-0.875 -19.875 -3.03125 -19.2812
L-3.03125 -10.5469
L-2.54688 -10.5469
Q-1.17188 -11.0781 1.14062 -11.7656
Q3.46875 -12.4531 5.67188 -12.4531
Q9.1875 -12.4531 11.3281 -11.4688
Q13.4844 -10.5 14.5469 -8.54688
Q15.625 -6.59375 15.9375 -3.82812
Q16.2656 -1.07812 16.2656 2.875
L16.2656 46.8281
L4.89062 46.8281
L4.89062 54.5469
L25.4375 54.5469
z
" id="Verdana-6a"/>
      <path d="
M55.5156 27.25
Q55.5156 13.9219 48.6719 6.20312
Q41.8438 -1.51562 30.375 -1.51562
Q18.7969 -1.51562 11.9844 6.20312
Q5.17188 13.9219 5.17188 27.25
Q5.17188 40.5781 11.9844 48.3125
Q18.7969 56.0625 30.375 56.0625
Q41.8438 56.0625 48.6719 48.3125
Q55.5156 40.5781 55.5156 27.25
M46.0469 27.25
Q46.0469 37.8438 41.8906 42.9844
Q37.75 48.1406 30.375 48.1406
Q22.9062 48.1406 18.7812 42.9844
Q14.6562 37.8438 14.6562 27.25
Q14.6562 17 18.7969 11.6875
Q22.9531 6.39062 30.375 6.39062
Q37.7031 6.39062 41.875 11.6406
Q46.0469 16.8906 46.0469 27.25" id="Verdana-6f"/>
      <path d="
M49.3594 3.42188
Q44.7812 1.21875 40.6562 0
Q36.5312 -1.21875 31.8906 -1.21875
Q25.9844 -1.21875 21.0469 0.515625
Q16.1094 2.25 12.5938 5.76562
Q9.03125 9.28125 7.07812 14.6406
Q5.125 20.0156 5.125 27.2031
Q5.125 40.5781 12.4688 48.1875
Q19.8281 55.8125 31.8906 55.8125
Q36.5781 55.8125 41.0938 54.4844
Q45.6094 53.1719 49.3594 51.2656
L49.3594 41.0625
L48.875 41.0625
Q44.6719 44.3438 40.2031 46.0938
Q35.75 47.8594 31.5 47.8594
Q23.6875 47.8594 19.1719 42.6094
Q14.6562 37.3594 14.6562 27.2031
Q14.6562 17.3281 19.0625 12.0312
Q23.4844 6.73438 31.5 6.73438
Q34.2812 6.73438 37.1562 7.46875
Q40.0469 8.20312 42.3281 9.375
Q44.3438 10.4062 46.0938 11.5469
Q47.8594 12.7031 48.875 13.5312
L49.3594 13.5312
z
" id="Verdana-63"/>
      <path d="
M48 15.7188
Q48 8.25 41.8125 3.46875
Q35.6406 -1.3125 24.9531 -1.3125
Q18.8906 -1.3125 13.8438 0.125
Q8.79688 1.5625 5.375 3.26562
L5.375 13.5781
L5.85938 13.5781
Q10.2031 10.2969 15.5156 8.375
Q20.8438 6.45312 25.7344 6.45312
Q31.7812 6.45312 35.2031 8.40625
Q38.625 10.3594 38.625 14.5469
Q38.625 17.7812 36.7656 19.4375
Q34.9062 21.0938 29.6406 22.2656
Q27.6875 22.7031 24.5312 23.2812
Q21.3906 23.875 18.7969 24.5625
Q11.625 26.4688 8.60938 30.1562
Q5.60938 33.8438 5.60938 39.2031
Q5.60938 42.5781 7 45.5469
Q8.40625 48.5312 11.2344 50.875
Q13.9688 53.1719 18.1875 54.5156
Q22.4062 55.8594 27.6406 55.8594
Q32.5156 55.8594 37.5156 54.6562
Q42.5312 53.4688 45.8438 51.7656
L45.8438 41.9375
L45.3594 41.9375
Q41.8438 44.5312 36.8125 46.3125
Q31.7812 48.0938 26.9531 48.0938
Q21.9219 48.0938 18.4531 46.1562
Q14.9844 44.2344 14.9844 40.4375
Q14.9844 37.0625 17.0938 35.3594
Q19.1406 33.6406 23.7344 32.5625
Q26.2656 31.9844 29.4062 31.3906
Q32.5625 30.8125 34.6719 30.3281
Q41.0625 28.8594 44.5312 25.2969
Q48 21.6875 48 15.7188" id="Verdana-73"/>
      <path id="Verdana-20"/>
      <path d="
M57.0312 27.6875
Q57.0312 20.8438 55.0938 15.375
Q53.1719 9.90625 49.9062 6.20312
Q46.4375 2.34375 42.2812 0.40625
Q38.1406 -1.51562 33.1562 -1.51562
Q28.5156 -1.51562 25.0469 -0.40625
Q21.5781 0.6875 18.2188 2.54688
L17.625 0
L9.03125 0
L9.03125 75.9844
L18.2188 75.9844
L18.2188 48.8281
Q22.0781 52 26.4219 54.0312
Q30.7656 56.0625 36.1875 56.0625
Q45.8438 56.0625 51.4375 48.6406
Q57.0312 41.2188 57.0312 27.6875
M47.5625 27.4375
Q47.5625 37.2031 44.3281 42.25
Q41.1094 47.3125 33.9375 47.3125
Q29.9375 47.3125 25.8281 45.5781
Q21.7344 43.8438 18.2188 41.1094
L18.2188 9.85938
Q22.125 8.10938 24.9219 7.42188
Q27.7344 6.73438 31.2969 6.73438
Q38.9219 6.73438 43.2344 11.7344
Q47.5625 16.75 47.5625 27.4375" id="Verdana-62"/>
      <path d="
M54.25 0
L45.0625 0
L45.0625 6.0625
Q40.4375 2.39062 36.1875 0.4375
Q31.9375 -1.51562 26.8125 -1.51562
Q18.2188 -1.51562 13.4219 3.73438
Q8.64062 8.98438 8.64062 19.1406
L8.64062 54.5469
L17.8281 54.5469
L17.8281 23.4844
Q17.8281 19.3438 18.2188 16.375
Q18.6094 13.4219 19.875 11.3281
Q21.1875 9.1875 23.2812 8.20312
Q25.3906 7.23438 29.3906 7.23438
Q32.9531 7.23438 37.1719 9.07812
Q41.4062 10.9375 45.0625 13.8125
L45.0625 54.5469
L54.25 54.5469
z
" id="Verdana-75"/>
     </defs>
     <g transform="translate(206.5078125 418.509375)scale(0.12 -0.12)">
      <use xlink:href="#Verdana-4f"/>
      <use x="78.7109375" xlink:href="#Verdana-62"/>
      <use x="141.015625" xlink:href="#Verdana-6a"/>
      <use x="175.439453125" xlink:href="#Verdana-65"/>
      <use x="235.009765625" xlink:href="#Verdana-63"/>
      <use x="287.109375" xlink:href="#Verdana-74"/>
      <use x="326.513671875" xlink:href="#Verdana-69"/>
      <use x="353.955078125" xlink:href="#Verdana-76"/>
      <use x="412.259765625" xlink:href="#Verdana-65"/>
      <use x="471.830078125" xlink:href="#Verdana-20"/>
      <use x="506.986328125" xlink:href="#Verdana-66"/>
      <use x="542.142578125" xlink:href="#Verdana-75"/>
      <use x="605.423828125" xlink:href="#Verdana-6e"/>
      <use x="668.705078125" xlink:href="#Verdana-63"/>
      <use x="720.8046875" xlink:href="#Verdana-74"/>
      <use x="760.208984375" xlink:href="#Verdana-69"/>
      <use x="787.650390625" xlink:href="#Verdana-6f"/>
      <use x="848.34375" xlink:href="#Verdana-6e"/>
      <use x="911.625" xlink:href="#Verdana-20"/>
      <use x="946.78125" xlink:href="#Verdana-65"/>
      <use x="1006.3515625" xlink:href="#Verdana-78"/>
      <use x="1064.40625" xlink:href="#Verdana-65"/>
      <use x="1123.9765625" xlink:href="#Verdana-63"/>
      <use x="1176.076171875" xlink:href="#Verdana-74"/>
      <use x="1215.48046875" xlink:href="#Verdana-75"/>
      <use x="1278.76171875" xlink:href="#Verdana-69"/>
      <use x="1306.203125" xlink:href="#Verdana-6f"/>
      <use x="1366.896484375" xlink:href="#Verdana-6e"/>
      <use x="1430.177734375" xlink:href="#Verdana-73"/>
     </g>
    </g>
   </g>
   <g id="matplotlib.axis_2">
    <g id="ytick_1">
     <g id="line2d_18">
      <defs>
       <path d="
M0 0
L4 0" id="md7965d1ba0" style="stroke:#000000;stroke-width:0.5;"/>
      </defs>
      <g>
       <use style="stroke:#000000;stroke-width:0.5;" x="72.0" xlink:href="#md7965d1ba0" y="388.8"/>
      </g>
     </g>
     <g id="line2d_19">
      <defs>
       <path d="
M0 0
L-4 0" id="md9a1c1a7cd" style="stroke:#000000;stroke-width:0.5;"/>
      </defs>
      <g>
       <use style="stroke:#000000;stroke-width:0.5;" x="518.4" xlink:href="#md9a1c1a7cd" y="388.8"/>
      </g>
     </g>
     <g id="text_8">
      <!-- 0.0 -->
      <defs>
       <path d="
M24.0312 0
L12.3594 0
L12.3594 13.9219
L24.0312 13.9219
z
" id="Verdana-2e"/>
      </defs>
      <g transform="translate(49.97 392.1515625)scale(0.12 -0.12)">
       <use xlink:href="#Verdana-30"/>
       <use x="63.57421875" xlink:href="#Verdana-2e"/>
       <use x="99.951171875" xlink:href="#Verdana-30"/>
      </g>
     </g>
    </g>
    <g id="ytick_2">
     <g id="line2d_20">
      <g>
       <use style="stroke:#000000;stroke-width:0.5;" x="72.0" xlink:href="#md7965d1ba0" y="319.68"/>
      </g>
     </g>
     <g id="line2d_21">
      <g>
       <use style="stroke:#000000;stroke-width:0.5;" x="518.4" xlink:href="#md9a1c1a7cd" y="319.68"/>
      </g>
     </g>
     <g id="text_9">
      <!-- 0.2 -->
      <g transform="translate(49.95875 323.0315625)scale(0.12 -0.12)">
       <use xlink:href="#Verdana-30"/>
       <use x="63.57421875" xlink:href="#Verdana-2e"/>
       <use x="99.951171875" xlink:href="#Verdana-32"/>
      </g>
     </g>
    </g>
    <g id="ytick_3">
     <g id="line2d_22">
      <g>
       <use style="stroke:#000000;stroke-width:0.5;" x="72.0" xlink:href="#md7965d1ba0" y="250.56"/>
      </g>
     </g>
     <g id="line2d_23">
      <g>
       <use style="stroke:#000000;stroke-width:0.5;" x="518.4" xlink:href="#md9a1c1a7cd" y="250.56"/>
      </g>
     </g>
     <g id="text_10">
      <!-- 0.4 -->
      <g transform="translate(49.76 253.9115625)scale(0.12 -0.12)">
       <use xlink:href="#Verdana-30"/>
       <use x="63.57421875" xlink:href="#Verdana-2e"/>
       <use x="99.951171875" xlink:href="#Verdana-34"/>
      </g>
     </g>
    </g>
    <g id="ytick_4">
     <g id="line2d_24">
      <g>
       <use style="stroke:#000000;stroke-width:0.5;" x="72.0" xlink:href="#md7965d1ba0" y="181.44"/>
      </g>
     </g>
     <g id="line2d_25">
      <g>
       <use style="stroke:#000000;stroke-width:0.5;" x="518.4" xlink:href="#md9a1c1a7cd" y="181.44"/>
      </g>
     </g>
     <g id="text_11">
      <!-- 0.6 -->
      <defs>
       <path d="
M58.1562 23.5781
Q58.1562 12.5 50.8594 5.48438
Q43.5625 -1.51562 32.9531 -1.51562
Q27.5938 -1.51562 23.1875 0.140625
Q18.7969 1.8125 15.4375 5.07812
Q11.2344 9.125 8.95312 15.8125
Q6.6875 22.5156 6.6875 31.9375
Q6.6875 41.6094 8.76562 49.0781
Q10.8438 56.5469 15.375 62.3594
Q19.6719 67.875 26.4531 70.9688
Q33.25 74.0781 42.2812 74.0781
Q45.1719 74.0781 47.125 73.8281
Q49.0781 73.5781 51.0781 72.9531
L51.0781 63.625
L50.5938 63.625
Q49.2188 64.3594 46.4531 65.0156
Q43.7031 65.6719 40.8281 65.6719
Q30.3281 65.6719 24.0781 59.1094
Q17.8281 52.5469 16.7969 41.3594
Q20.9062 43.8438 24.875 45.1406
Q28.8594 46.4375 34.0781 46.4375
Q38.7188 46.4375 42.25 45.5781
Q45.7969 44.7344 49.5156 42.1406
Q53.8125 39.1562 55.9844 34.6094
Q58.1562 30.0781 58.1562 23.5781
M48.25 23.1875
Q48.25 27.7344 46.9062 30.7031
Q45.5625 33.6875 42.4844 35.8906
Q40.2344 37.4531 37.5 37.9375
Q34.7656 38.4219 31.7812 38.4219
Q27.6406 38.4219 24.0781 37.4375
Q20.5156 36.4688 16.75 34.4219
Q16.6562 33.3438 16.5938 32.3438
Q16.5469 31.3438 16.5469 29.8281
Q16.5469 22.125 18.1406 17.6562
Q19.7344 13.1875 22.5156 10.5938
Q24.75 8.45312 27.3594 7.45312
Q29.9844 6.45312 33.0625 6.45312
Q40.1406 6.45312 44.1875 10.7656
Q48.25 15.0938 48.25 23.1875" id="Verdana-36"/>
      </defs>
      <g transform="translate(49.829375 184.7915625)scale(0.12 -0.12)">
       <use xlink:href="#Verdana-30"/>
       <use x="63.57421875" xlink:href="#Verdana-2e"/>
       <use x="99.951171875" xlink:href="#Verdana-36"/>
      </g>
     </g>
    </g>
    <g id="ytick_5">
     <g id="line2d_26">
      <g>
       <use style="stroke:#000000;stroke-width:0.5;" x="72.0" xlink:href="#md7965d1ba0" y="112.32"/>
      </g>
     </g>
     <g id="line2d_27">
      <g>
       <use style="stroke:#000000;stroke-width:0.5;" x="518.4" xlink:href="#md9a1c1a7cd" y="112.32"/>
      </g>
     </g>
     <g id="text_12">
      <!-- 0.8 -->
      <defs>
       <path d="
M57.625 20.2656
Q57.625 10.8438 50.2656 4.59375
Q42.9219 -1.65625 31.7812 -1.65625
Q19.9688 -1.65625 12.9531 4.4375
Q5.95312 10.5469 5.95312 20.0625
Q5.95312 26.125 9.46875 31.0312
Q12.9844 35.9375 19.3906 38.8125
L19.3906 39.1094
Q13.5312 42.2344 10.7188 45.9375
Q7.90625 49.6562 7.90625 55.2188
Q7.90625 63.4219 14.6406 68.8906
Q21.3906 74.3594 31.7812 74.3594
Q42.6719 74.3594 49.1719 69.1406
Q55.6719 63.9219 55.6719 55.8594
Q55.6719 50.9219 52.5938 46.1562
Q49.5156 41.4062 43.5625 38.7188
L43.5625 38.4219
Q50.3906 35.5 54 31.2031
Q57.625 26.9062 57.625 20.2656
M46.0469 55.7656
Q46.0469 60.9844 42.0156 64.0781
Q37.9844 67.1875 31.7344 67.1875
Q25.5938 67.1875 21.6562 64.25
Q17.7188 61.3281 17.7188 56.3438
Q17.7188 52.8281 19.7031 50.2656
Q21.6875 47.7031 25.6875 45.7031
Q27.4844 44.8281 30.875 43.4062
Q34.2812 42 37.5 41.0625
Q42.3281 44.2812 44.1875 47.75
Q46.0469 51.2188 46.0469 55.7656
M47.5625 19.3438
Q47.5625 23.8281 45.5781 26.5312
Q43.6094 29.25 37.8438 31.9844
Q35.5469 33.0625 32.8125 33.9844
Q30.0781 34.9062 25.5312 36.5781
Q21.1406 34.1875 18.4844 30.0781
Q15.8281 25.9844 15.8281 20.7969
Q15.8281 14.2031 20.3594 9.90625
Q24.9062 5.60938 31.8906 5.60938
Q39.0156 5.60938 43.2812 9.26562
Q47.5625 12.9375 47.5625 19.3438" id="Verdana-38"/>
      </defs>
      <g transform="translate(49.893125 115.6715625)scale(0.12 -0.12)">
       <use xlink:href="#Verdana-30"/>
       <use x="63.57421875" xlink:href="#Verdana-2e"/>
       <use x="99.951171875" xlink:href="#Verdana-38"/>
      </g>
     </g>
    </g>
    <g id="ytick_6">
     <g id="line2d_28">
      <g>
       <use style="stroke:#000000;stroke-width:0.5;" x="72.0" xlink:href="#md7965d1ba0" y="43.2"/>
      </g>
     </g>
     <g id="line2d_29">
      <g>
       <use style="stroke:#000000;stroke-width:0.5;" x="518.4" xlink:href="#md9a1c1a7cd" y="43.2"/>
      </g>
     </g>
     <g id="text_13">
      <!-- 1.0 -->
      <g transform="translate(50.796875 46.5515625)scale(0.12 -0.12)">
       <use xlink:href="#Verdana-31"/>
       <use x="63.57421875" xlink:href="#Verdana-2e"/>
       <use x="99.951171875" xlink:href="#Verdana-30"/>
      </g>
     </g>
    </g>
    <g id="text_14">
     <!-- Data Profile T-0.1000000 -->
     <defs>
      <path d="
M18.3125 0
L9.125 0
L9.125 75.9844
L18.3125 75.9844
z
" id="Verdana-6c"/>
      <path d="
M57.3281 50.7344
Q57.3281 45.9062 55.6406 41.7656
Q53.9531 37.6406 50.9219 34.625
Q47.1719 30.8594 42.0469 28.9688
Q36.9219 27.0938 29.1094 27.0938
L19.4375 27.0938
L19.4375 0
L9.76562 0
L9.76562 72.7031
L29.5 72.7031
Q36.0312 72.7031 40.5781 71.6094
Q45.125 70.5156 48.6406 68.1719
Q52.7812 65.375 55.0469 61.2188
Q57.3281 57.0781 57.3281 50.7344
M47.2656 50.4844
Q47.2656 54.25 45.9375 57.0312
Q44.625 59.8125 41.9375 61.5781
Q39.5938 63.0938 36.5938 63.75
Q33.5938 64.4062 29 64.4062
L19.4375 64.4062
L19.4375 35.3594
L27.5938 35.3594
Q33.4531 35.3594 37.1094 36.4062
Q40.7656 37.4531 43.0625 39.75
Q45.3594 42.0938 46.3125 44.6719
Q47.2656 47.2656 47.2656 50.4844" id="Verdana-50"/>
      <path d="
M71.1875 36.2812
Q71.1875 26.375 66.8594 18.3125
Q62.5469 10.25 55.375 5.8125
Q50.3906 2.73438 44.2656 1.35938
Q38.1406 0 28.125 0
L9.76562 0
L9.76562 72.7031
L27.9375 72.7031
Q38.5781 72.7031 44.8438 71.1562
Q51.125 69.625 55.4688 66.9375
Q62.8906 62.3125 67.0312 54.5938
Q71.1875 46.875 71.1875 36.2812
M61.0781 36.4219
Q61.0781 44.9688 58.0938 50.8281
Q55.125 56.6875 49.2188 60.0625
Q44.9219 62.5 40.0781 63.4531
Q35.25 64.4062 28.5156 64.4062
L19.4375 64.4062
L19.4375 8.29688
L28.5156 8.29688
Q35.5 8.29688 40.7031 9.32812
Q45.9062 10.3594 50.25 13.1406
Q55.6719 16.6094 58.375 22.2656
Q61.0781 27.9375 61.0781 36.4219" id="Verdana-44"/>
      <path d="
M61.625 64.1094
L35.6406 64.1094
L35.6406 0
L25.9844 0
L25.9844 64.1094
L0 64.1094
L0 72.7031
L61.625 72.7031
z
" id="Verdana-54"/>
      <path d="
M37.9375 27.3906
L7.46875 27.3906
L7.46875 36.2344
L37.9375 36.2344
z
" id="Verdana-2d"/>
      <path d="
M51.4219 0
L42.2812 0
L42.2812 5.8125
Q41.0625 4.98438 38.9844 3.48438
Q36.9219 2 34.9688 1.125
Q32.6719 0 29.6875 -0.75
Q26.7031 -1.51562 22.7031 -1.51562
Q15.3281 -1.51562 10.2031 3.35938
Q5.07812 8.25 5.07812 15.8281
Q5.07812 22.0156 7.73438 25.8438
Q10.4062 29.6875 15.3281 31.8906
Q20.3125 34.0781 27.2969 34.8594
Q34.2812 35.6406 42.2812 36.0312
L42.2812 37.4531
Q42.2812 40.5781 41.1875 42.625
Q40.0938 44.6719 38.0312 45.8438
Q36.0781 46.9688 33.3438 47.3594
Q30.6094 47.75 27.6406 47.75
Q24.0312 47.75 19.5781 46.7969
Q15.1406 45.8438 10.4062 44.0469
L9.90625 44.0469
L9.90625 53.375
Q12.5938 54.1094 17.6719 54.9844
Q22.75 55.8594 27.6875 55.8594
Q33.4531 55.8594 37.7188 54.9062
Q42 53.9531 45.125 51.6562
Q48.1875 49.4219 49.7969 45.8438
Q51.4219 42.2812 51.4219 37.0156
z

M42.2812 13.4219
L42.2812 28.6094
Q38.0938 28.375 32.3906 27.875
Q26.7031 27.3906 23.3906 26.4688
Q19.4375 25.3438 16.9844 22.9688
Q14.5469 20.6094 14.5469 16.4531
Q14.5469 11.7656 17.375 9.39062
Q20.2188 7.03125 26.0312 7.03125
Q30.8594 7.03125 34.8594 8.90625
Q38.875 10.7969 42.2812 13.4219" id="Verdana-61"/>
      <path d="
M43.0625 44.5312
L42.5781 44.5312
Q40.5312 45.0156 38.5938 45.2344
Q36.6719 45.4531 34.0312 45.4531
Q29.7812 45.4531 25.8281 43.5781
Q21.875 41.7031 18.2188 38.7188
L18.2188 0
L9.03125 0
L9.03125 54.5469
L18.2188 54.5469
L18.2188 46.4844
Q23.6875 50.875 27.8594 52.7031
Q32.0312 54.5469 36.375 54.5469
Q38.7656 54.5469 39.8438 54.4219
Q40.9219 54.2969 43.0625 53.9531
z
" id="Verdana-72"/>
     </defs>
     <g transform="translate(42.345 291.493125)rotate(-90.0)scale(0.12 -0.12)">
      <use xlink:href="#Verdana-44"/>
      <use x="77.05078125" xlink:href="#Verdana-61"/>
      <use x="137.109375" xlink:href="#Verdana-74"/>
      <use x="176.513671875" xlink:href="#Verdana-61"/>
      <use x="236.572265625" xlink:href="#Verdana-20"/>
      <use x="271.728515625" xlink:href="#Verdana-50"/>
      <use x="332.03125" xlink:href="#Verdana-72"/>
      <use x="374.70703125" xlink:href="#Verdana-6f"/>
      <use x="435.400390625" xlink:href="#Verdana-66"/>
      <use x="470.556640625" xlink:href="#Verdana-69"/>
      <use x="497.998046875" xlink:href="#Verdana-6c"/>
      <use x="525.439453125" xlink:href="#Verdana-65"/>
      <use x="585.009765625" xlink:href="#Verdana-20"/>
      <use x="620.166015625" xlink:href="#Verdana-54"/>
      <use x="674.412109375" xlink:href="#Verdana-2d"/>
      <use x="719.822265625" xlink:href="#Verdana-30"/>
      <use x="783.396484375" xlink:href="#Verdana-2e"/>
      <use x="819.7734375" xlink:href="#Verdana-31"/>
      <use x="883.34765625" xlink:href="#Verdana-30"/>
      <use x="946.921875" xlink:href="#Verdana-30"/>
      <use x="1010.49609375" xlink:href="#Verdana-30"/>
      <use x="1074.0703125" xlink:href="#Verdana-30"/>
      <use x="1137.64453125" xlink:href="#Verdana-30"/>
      <use x="1201.21875" xlink:href="#Verdana-30"/>
     </g>
    </g>
   </g>
   <g id="patch_3">
    <path d="
M72 43.2
L518.4 43.2" style="fill:none;stroke:#000000;"/>
   </g>
   <g id="patch_4">
    <path d="
M72 388.8
L72 43.2" style="fill:none;stroke:#000000;"/>
   </g>
   <g id="patch_5">
    <path d="
M72 388.8
L518.4 388.8" style="fill:none;stroke:#000000;"/>
   </g>
   <g id="patch_6">
    <path d="
M518.4 388.8
L518.4 43.2" style="fill:none;stroke:#000000;"/>
   </g>
   <g id="text_15">
    <!-- Giunta Data Profile T-0.1000000 -->
    <defs>
     <path d="
M70.4062 5.375
Q64.4531 2.64062 57.3906 0.609375
Q50.3438 -1.42188 43.75 -1.42188
Q35.25 -1.42188 28.1719 0.921875
Q21.0938 3.26562 16.1094 7.95312
Q11.0781 12.7031 8.34375 19.7969
Q5.60938 26.9062 5.60938 36.4219
Q5.60938 53.8594 15.7969 63.9375
Q25.9844 74.0312 43.75 74.0312
Q49.9531 74.0312 56.4219 72.5312
Q62.8906 71.0469 70.3594 67.4844
L70.3594 56
L69.4844 56
Q67.9688 57.1719 65.0781 59.0781
Q62.2031 60.9844 59.4219 62.25
Q56.0625 63.7656 51.7812 64.7656
Q47.5156 65.7656 42.0938 65.7656
Q29.8906 65.7656 22.7812 57.9219
Q15.6719 50.0938 15.6719 36.7188
Q15.6719 22.6094 23.0938 14.7656
Q30.5156 6.9375 43.3125 6.9375
Q48 6.9375 52.6562 7.85938
Q57.3281 8.79688 60.8438 10.25
L60.8438 28.0781
L41.3594 28.0781
L41.3594 36.5781
L70.4062 36.5781
z
" id="Verdana-47"/>
    </defs>
    <g transform="translate(178.243875 38.2)scale(0.144 -0.144)">
     <use xlink:href="#Verdana-47"/>
     <use x="77.5390625" xlink:href="#Verdana-69"/>
     <use x="104.98046875" xlink:href="#Verdana-75"/>
     <use x="168.26171875" xlink:href="#Verdana-6e"/>
     <use x="231.54296875" xlink:href="#Verdana-74"/>
     <use x="270.947265625" xlink:href="#Verdana-61"/>
     <use x="331.005859375" xlink:href="#Verdana-20"/>
     <use x="366.162109375" xlink:href="#Verdana-44"/>
     <use x="443.212890625" xlink:href="#Verdana-61"/>
     <use x="503.271484375" xlink:href="#Verdana-74"/>
     <use x="542.67578125" xlink:href="#Verdana-61"/>
     <use x="602.734375" xlink:href="#Verdana-20"/>
     <use x="637.890625" xlink:href="#Verdana-50"/>
     <use x="698.193359375" xlink:href="#Verdana-72"/>
     <use x="740.869140625" xlink:href="#Verdana-6f"/>
     <use x="801.5625" xlink:href="#Verdana-66"/>
     <use x="836.71875" xlink:href="#Verdana-69"/>
     <use x="864.16015625" xlink:href="#Verdana-6c"/>
     <use x="891.6015625" xlink:href="#Verdana-65"/>
     <use x="951.171875" xlink:href="#Verdana-20"/>
     <use x="986.328125" xlink:href="#Verdana-54"/>
     <use x="1040.57421875" xlink:href="#Verdana-2d"/>
     <use x="1085.984375" xlink:href="#Verdana-30"/>
     <use x="1149.55859375" xlink:href="#Verdana-2e"/>
     <use x="1185.935546875" xlink:href="#Verdana-31"/>
     <use x="1249.509765625" xlink:href="#Verdana-30"/>
     <use x="1313.083984375" xlink:href="#Verdana-30"/>
     <use x="1376.658203125" xlink:href="#Verdana-30"/>
     <use x="1440.232421875" xlink:href="#Verdana-30"/>
     <use x="1503.806640625" xlink:href="#Verdana-30"/>
     <use x="1567.380859375" xlink:href="#Verdana-30"/>
    </g>
   </g>
   <g id="legend_1">
    <g id="patch_7">
     <path d="
M407.18 270.759
L511.2 270.759
L511.2 161.241
L407.18 161.241
L407.18 270.759
z
" style="fill:#ffffff;stroke:#000000;"/>
    </g>
    <g id="line2d_30">
     <path d="
M417.26 172.902
L437.42 172.902" style="fill:none;stroke:#0000ff;stroke-dasharray:6.000000,2.000000;stroke-dashoffset:0.0;"/>
    </g>
    <g id="line2d_31"/>
    <g id="text_16">
     <!-- AMPGO -->
     <defs>
      <path d="
M74.5156 0
L64.8438 0
L64.8438 62.6406
L44.625 20.0156
L38.875 20.0156
L18.7969 62.6406
L18.7969 0
L9.76562 0
L9.76562 72.7031
L22.9531 72.7031
L42.3281 32.2344
L61.0781 72.7031
L74.5156 72.7031
z
" id="Verdana-4d"/>
      <path d="
M67.0938 0
L56.7812 0
L49.6562 20.2656
L18.2188 20.2656
L11.0781 0
L1.26562 0
L27.7344 72.7031
L40.625 72.7031
z

M46.6875 28.5625
L33.9375 64.2656
L21.1406 28.5625
z
" id="Verdana-41"/>
     </defs>
     <g transform="translate(453.26025 177.942375)scale(0.144 -0.144)">
      <use xlink:href="#Verdana-41"/>
      <use x="68.359375" xlink:href="#Verdana-4d"/>
      <use x="152.63671875" xlink:href="#Verdana-50"/>
      <use x="212.939453125" xlink:href="#Verdana-47"/>
      <use x="290.478515625" xlink:href="#Verdana-4f"/>
     </g>
    </g>
    <g id="line2d_32">
     <path d="
M417.26 193.942
L437.42 193.942" style="fill:none;stroke:#008000;stroke-dasharray:1.000000,1.000000;stroke-dashoffset:0.0;"/>
    </g>
    <g id="line2d_33"/>
    <g id="text_17">
     <!-- Anneal -->
     <g transform="translate(453.26025 198.982125)scale(0.144 -0.144)">
      <use xlink:href="#Verdana-41"/>
      <use x="68.359375" xlink:href="#Verdana-6e"/>
      <use x="131.640625" xlink:href="#Verdana-6e"/>
      <use x="194.921875" xlink:href="#Verdana-65"/>
      <use x="254.4921875" xlink:href="#Verdana-61"/>
      <use x="314.55078125" xlink:href="#Verdana-6c"/>
     </g>
    </g>
    <g id="line2d_34">
     <path d="
M417.26 214.982
L437.42 214.982" style="fill:none;stroke:#ff0000;stroke-dasharray:3.000000,6.000000;stroke-dashoffset:0.0;"/>
    </g>
    <g id="line2d_35"/>
    <g id="text_18">
     <!-- BSA -->
     <defs>
      <path d="
M64.5938 22.3594
Q64.5938 16.9375 62.5469 12.7812
Q60.5 8.64062 57.0312 5.95312
Q52.9375 2.73438 48.0156 1.35938
Q43.1094 0 35.5469 0
L9.76562 0
L9.76562 72.7031
L31.2969 72.7031
Q39.2656 72.7031 43.2188 72.1094
Q47.1719 71.5312 50.7812 69.6719
Q54.7812 67.5781 56.5938 64.2812
Q58.4062 60.9844 58.4062 56.3906
Q58.4062 51.2188 55.7656 47.5781
Q53.125 43.9531 48.7344 41.75
L48.7344 41.3594
Q56.1094 39.8438 60.3438 34.8906
Q64.5938 29.9375 64.5938 22.3594
M48.3438 55.125
Q48.3438 57.7656 47.4531 59.5625
Q46.5781 61.375 44.625 62.5
Q42.3281 63.8125 39.0625 64.125
Q35.7969 64.4531 30.9531 64.4531
L19.4375 64.4531
L19.4375 43.4531
L31.9375 43.4531
Q36.4688 43.4531 39.1562 43.9219
Q41.8438 44.3906 44.1406 45.8438
Q46.4375 47.3125 47.3906 49.625
Q48.3438 51.9531 48.3438 55.125
M54.5469 21.9688
Q54.5469 26.375 53.2188 28.9531
Q51.9062 31.5469 48.4375 33.3438
Q46.0938 34.5781 42.75 34.9375
Q39.4062 35.2969 34.625 35.2969
L19.4375 35.2969
L19.4375 8.25
L32.2344 8.25
Q38.5781 8.25 42.625 8.90625
Q46.6875 9.57812 49.2656 11.3281
Q52 13.2344 53.2656 15.6719
Q54.5469 18.1094 54.5469 21.9688" id="Verdana-42"/>
      <path d="
M62.5938 20.75
Q62.5938 16.5 60.6094 12.3438
Q58.6406 8.20312 55.0781 5.32812
Q51.1719 2.20312 45.9688 0.4375
Q40.7656 -1.3125 33.4531 -1.3125
Q25.5938 -1.3125 19.3125 0.140625
Q13.0312 1.60938 6.54688 4.5
L6.54688 16.6094
L7.23438 16.6094
Q12.75 12.0156 19.9688 9.51562
Q27.2031 7.03125 33.5469 7.03125
Q42.5312 7.03125 47.5312 10.3906
Q52.5469 13.7656 52.5469 19.3906
Q52.5469 24.2188 50.1719 26.5156
Q47.7969 28.8125 42.9688 30.0781
Q39.3125 31.0625 35.0312 31.6875
Q30.7656 32.3281 25.9844 33.2969
Q16.3125 35.3594 11.6406 40.3125
Q6.98438 45.2656 6.98438 53.2188
Q6.98438 62.3594 14.6875 68.1875
Q22.4062 74.0312 34.2812 74.0312
Q41.9375 74.0312 48.3281 72.5625
Q54.7344 71.0938 59.6719 68.9531
L59.6719 57.5156
L58.9844 57.5156
Q54.8281 61.0312 48.0625 63.3438
Q41.3125 65.6719 34.2344 65.6719
Q26.4688 65.6719 21.75 62.4531
Q17.0469 59.2344 17.0469 54.1562
Q17.0469 49.6094 19.3906 47.0156
Q21.7344 44.4375 27.6406 43.0625
Q30.7656 42.3906 36.5156 41.4062
Q42.2812 40.4375 46.2969 39.4062
Q54.3906 37.25 58.4844 32.9062
Q62.5938 28.5625 62.5938 20.75" id="Verdana-53"/>
     </defs>
     <g transform="translate(453.26025 220.021875)scale(0.144 -0.144)">
      <use xlink:href="#Verdana-42"/>
      <use x="68.5546875" xlink:href="#Verdana-53"/>
      <use x="135.9140625" xlink:href="#Verdana-41"/>
     </g>
    </g>
    <g id="line2d_36">
     <path d="
M417.26 236.022
L437.42 236.022" style="fill:none;stroke:#00bfbf;stroke-dasharray:5.000000,1.000000,2.000000,1.000000,5.000000,1.000000;stroke-dashoffset:0.0;"/>
    </g>
    <g id="line2d_37"/>
    <g id="text_19">
     <!-- Cuckoo -->
     <defs>
      <path d="
M65.9219 5.28125
Q63.2344 4.10938 61.0625 3.07812
Q58.8906 2.04688 55.375 0.921875
Q52.3906 0 48.8906 -0.65625
Q45.4062 -1.3125 41.2188 -1.3125
Q33.2969 -1.3125 26.8281 0.90625
Q20.3594 3.125 15.5781 7.85938
Q10.8906 12.5 8.25 19.6562
Q5.60938 26.8125 5.60938 36.2812
Q5.60938 45.2656 8.14062 52.3438
Q10.6875 59.4219 15.4844 64.3125
Q20.125 69.0469 26.6875 71.5312
Q33.25 74.0312 41.2656 74.0312
Q47.125 74.0312 52.9531 72.6094
Q58.7969 71.1875 65.9219 67.625
L65.9219 56.1562
L65.1875 56.1562
Q59.1875 61.1875 53.2656 63.4688
Q47.3594 65.7656 40.625 65.7656
Q35.1094 65.7656 30.6875 63.9844
Q26.2656 62.2031 22.7969 58.4531
Q19.4375 54.7812 17.5469 49.1875
Q15.6719 43.6094 15.6719 36.2812
Q15.6719 28.6094 17.75 23.0938
Q19.8281 17.5781 23.0938 14.1094
Q26.5156 10.5 31.0781 8.76562
Q35.6406 7.03125 40.7188 7.03125
Q47.7031 7.03125 53.7969 9.42188
Q59.9062 11.8125 65.2344 16.6094
L65.9219 16.6094
z
" id="Verdana-43"/>
      <path d="
M58.5469 0
L46.4375 0
L24.5625 23.875
L18.6094 18.2188
L18.6094 0
L9.42188 0
L9.42188 75.9844
L18.6094 75.9844
L18.6094 27.25
L45.125 54.5469
L56.6875 54.5469
L31.3438 29.3438
z
" id="Verdana-6b"/>
     </defs>
     <g transform="translate(453.26025 241.061625)scale(0.144 -0.144)">
      <use xlink:href="#Verdana-43"/>
      <use x="69.82421875" xlink:href="#Verdana-75"/>
      <use x="133.10546875" xlink:href="#Verdana-63"/>
      <use x="185.205078125" xlink:href="#Verdana-6b"/>
      <use x="243.384765625" xlink:href="#Verdana-6f"/>
      <use x="304.078125" xlink:href="#Verdana-6f"/>
     </g>
    </g>
    <g id="line2d_38">
     <path d="
M417.26 257.061
L437.42 257.061" style="fill:none;stroke:#bf00bf;stroke-linecap:square;"/>
    </g>
    <g id="line2d_39"/>
    <g id="text_20">
     <!-- qABC -->
     <defs>
      <path d="
M53.2656 -20.125
L44.0938 -20.125
L44.0938 6.15625
Q39.8438 2.48438 35.6406 0.703125
Q31.4531 -1.07812 26.5625 -1.07812
Q16.8438 -1.07812 11.0625 6.42188
Q5.28125 13.9219 5.28125 27.0938
Q5.28125 34.125 7.29688 39.5156
Q9.32812 44.9219 12.6406 48.5781
Q15.875 52.1562 20.2188 54.1094
Q24.5625 56.0625 29.3906 56.0625
Q33.7969 56.0625 37.1875 55.0781
Q40.5781 54.1094 44.0938 52.2031
L44.6719 54.5469
L53.2656 54.5469
z

M44.0938 13.875
L44.0938 44.7344
Q40.2812 46.4375 37.3438 47.1094
Q34.4219 47.7969 31 47.7969
Q23.0469 47.7969 18.8906 42.4062
Q14.75 37.0156 14.75 27.5469
Q14.75 17.9688 18.0938 12.8125
Q21.4375 7.67188 28.6094 7.67188
Q32.625 7.67188 36.625 9.40625
Q40.625 11.1406 44.0938 13.875" id="Verdana-71"/>
     </defs>
     <g transform="translate(453.26025 262.101375)scale(0.144 -0.144)">
      <use xlink:href="#Verdana-71"/>
      <use x="62.3046875" xlink:href="#Verdana-41"/>
      <use x="130.6640625" xlink:href="#Verdana-42"/>
      <use x="199.21875" xlink:href="#Verdana-43"/>
     </g>
    </g>
   </g>
  </g>
 </g>
 <defs>
  <clipPath id="p7ff5b81e1d">
   <rect height="345.6" width="446.4" x="72.0" y="43.2"/>
  </clipPath>
 </defs>
</svg>
