<?xml version="1.0" encoding="utf-8" standalone="no"?>
<!DOCTYPE svg PUBLIC "-//W3C//DTD SVG 1.1//EN"
  "http://www.w3.org/Graphics/SVG/1.1/DTD/svg11.dtd">
<!-- Created with matplotlib (http://matplotlib.org/) -->
<svg height="432pt" version="1.1" viewBox="0 0 576 432" width="576pt" xmlns="http://www.w3.org/2000/svg" xmlns:xlink="http://www.w3.org/1999/xlink">
 <defs>
  <style type="text/css">
*{stroke-linecap:butt;stroke-linejoin:round;}
  </style>
 </defs>
 <g id="figure_1">
  <g id="patch_1">
   <path d="
M0 432
L576 432
L576 0
L0 0
z
" style="fill:#ffffff;"/>
  </g>
  <g id="axes_1">
   <g id="patch_2">
    <path d="
M72 388.8
L518.4 388.8
L518.4 43.2
L72 43.2
z
" style="fill:#ffffff;"/>
   </g>
   <g id="line2d_1">
    <path clip-path="url(#p7ff5b81e1d)" d="
M72 388.617
L72.0893 388.8
L72.1786 388.8
L73.7856 388.8
L73.9642 388.617
L76.464 388.617
L76.6426 388.251
L77.3568 388.251
L77.5354 386.971
L78.2496 386.971
L78.4282 384.046
L79.1424 384.046
L79.321 379.84
L80.0352 379.84
L80.2138 375.269
L80.928 375.269
L81.1066 369.6
L81.8208 369.6
L81.9994 367.04
L82.7136 367.04
L82.8922 365.76
L83.6064 365.76
L83.785 363.931
L84.4992 363.931
L84.6778 363.017
L85.392 363.017
L85.5706 362.651
L86.2848 362.651
L86.4634 362.469
L87.1776 362.469
L87.3562 362.286
L88.0704 362.286
L88.249 362.103
L88.9632 362.103
L89.1418 361.92
L91.6416 361.92
L91.8202 361.554
L92.5344 361.554
L92.713 361.371
L518.311 361.371
L518.311 361.371" style="fill:none;stroke:#0000ff;stroke-dasharray:6.000000,2.000000;stroke-dashoffset:0.0;"/>
   </g>
   <g id="line2d_2">
    <path clip-path="url(#p7ff5b81e1d)" d="
M72 388.8
L72.0893 388.525
L72.1786 388.525
L72.2678 388.525
L72.4464 388.8
L72.5357 388.8
L72.625 388.525
L72.8035 388.8
L109.765 388.8
L109.944 388.525
L114.14 388.525
L114.319 388.251
L121.104 388.251
L121.283 387.976
L122.89 387.976
L123.157 387.426
L124.318 387.426
L124.497 387.152
L127.443 387.152
L127.621 386.877
L128.336 386.877
L128.514 386.602
L129.228 386.602
L129.407 386.328
L129.943 386.328
L130.121 386.053
L130.478 386.053
L130.657 385.778
L131.371 385.778
L131.55 385.503
L131.996 385.503
L132.175 385.229
L132.264 385.229
L132.443 384.679
L132.8 384.679
L132.978 384.404
L133.246 384.404
L133.425 384.13
L133.514 384.13
L133.692 383.855
L133.782 383.855
L133.96 383.306
L134.05 383.306
L134.317 382.756
L134.496 382.756
L134.675 382.207
L135.032 382.207
L135.21 381.932
L135.389 381.932
L135.567 381.383
L135.924 380.558
L136.549 380.558
L136.728 380.284
L136.817 380.284
L136.996 379.459
L137.085 379.459
L137.264 379.185
L137.353 379.185
L137.532 378.361
L137.621 378.361
L138.871 374.24
L139.049 373.69
L139.406 372.866
L139.496 372.866
L139.674 372.317
L139.942 371.767
L140.031 371.767
L140.299 370.668
L140.746 369.569
L140.835 369.569
L141.013 369.295
L141.281 369.295
L141.638 368.471
L141.906 368.471
L142.62 366.548
L142.71 366.548
L142.978 365.449
L143.156 365.449
L143.692 364.075
L143.781 364.075
L144.228 362.976
L144.406 362.976
L144.852 361.877
L144.942 361.877
L145.388 360.778
L145.477 360.778
L145.835 359.405
L146.013 358.581
L146.192 358.581
L146.37 358.031
L146.549 357.756
L146.817 357.756
L147.442 355.559
L147.62 355.009
L147.709 355.009
L148.334 352.811
L148.513 351.438
L148.692 350.614
L149.138 350.614
L149.763 347.042
L149.852 347.042
L150.031 346.218
L150.566 344.845
L150.656 344.845
L150.924 344.02
L151.102 343.196
L151.459 341.548
L152.173 339.625
L152.352 339.625
L152.531 339.35
L152.62 339.35
L153.066 336.053
L153.334 334.955
L153.78 332.757
L153.87 332.757
L153.959 332.482
L154.138 331.658
L154.852 329.735
L155.03 328.361
L155.12 328.361
L155.388 326.163
L155.566 325.339
L155.655 325.339
L156.012 323.966
L156.28 321.218
L157.53 314.076
L157.62 313.801
L157.798 312.702
L157.887 312.427
L158.155 310.504
L158.244 310.504
L158.423 309.131
L158.512 309.131
L159.137 305.834
L159.227 305.834
L159.405 304.46
L159.494 304.46
L159.673 303.636
L159.941 301.164
L160.119 300.614
L160.209 300.34
L160.387 299.241
L160.476 298.966
L160.744 296.219
L161.012 295.395
L161.191 294.021
L161.548 292.373
L161.994 290.724
L162.173 289.9
L162.262 289.9
L162.708 287.428
L162.798 287.428
L163.066 285.779
L163.244 283.582
L163.78 281.659
L163.958 281.109
L164.048 281.109
L164.405 279.186
L164.494 279.186
L165.119 276.988
L165.298 276.164
L166.012 273.966
L166.815 267.098
L166.905 267.098
L167.083 266.549
L167.351 264.9
L167.44 264.9
L168.065 261.604
L168.333 260.78
L168.512 259.681
L168.601 259.406
L169.137 255.01
L169.315 254.186
L169.583 252.538
L170.029 250.34
L170.119 250.34
L170.565 248.142
L170.922 246.769
L171.101 245.945
L171.994 241
L172.083 241
L172.44 239.626
L172.708 238.527
L172.976 238.527
L173.154 237.154
L173.244 237.154
L173.511 235.505
L173.601 235.231
L173.779 233.857
L174.226 232.209
L174.493 230.56
L175.208 226.714
L175.297 226.714
L175.654 225.066
L175.743 224.791
L175.922 223.692
L176.19 221.769
L176.458 221.22
L176.547 221.22
L176.725 220.67
L176.904 219.571
L177.172 218.472
L177.35 217.099
L177.529 217.099
L178.243 214.901
L178.422 214.077
L178.511 214.077
L178.69 213.802
L178.779 213.802
L179.047 211.879
L179.136 211.879
L179.404 210.231
L179.85 208.033
L179.94 208.033
L180.118 206.934
L180.475 205.561
L180.654 204.736
L180.743 204.736
L181.547 201.989
L181.904 200.066
L181.993 200.066
L182.172 199.517
L182.35 199.517
L182.618 198.143
L182.796 198.143
L182.975 197.594
L183.064 197.594
L183.332 196.22
L183.421 196.22
L183.6 195.396
L183.779 194.572
L183.957 193.198
L184.136 192.374
L184.314 191.55
L184.404 191.55
L184.671 190.451
L184.85 188.803
L185.028 187.978
L185.118 187.978
L185.386 186.879
L185.475 186.605
L185.653 185.781
L186.189 184.132
L186.368 182.759
L186.546 182.759
L186.725 182.484
L186.814 182.484
L187.082 181.385
L187.171 181.385
L187.35 180.561
L187.439 180.561
L187.618 179.737
L187.796 179.187
L188.064 178.363
L188.332 176.165
L188.421 176.165
L188.957 174.517
L189.135 173.693
L189.403 172.594
L189.582 172.594
L189.85 170.671
L190.117 170.121
L190.207 170.121
L190.385 169.023
L190.653 168.473
L190.742 168.473
L191.189 166.825
L191.546 165.176
L191.635 164.902
L191.903 162.704
L192.082 162.429
L192.171 162.429
L192.26 162.155
L192.439 160.781
L192.617 160.231
L192.796 159.407
L193.332 158.034
L193.421 158.034
L193.867 156.935
L194.046 156.935
L194.224 156.66
L194.403 156.66
L194.581 156.385
L194.671 156.385
L195.385 154.462
L195.564 154.462
L195.831 153.363
L196.01 151.99
L196.099 151.99
L196.367 151.44
L196.456 151.44
L196.903 149.243
L197.081 148.968
L197.26 148.968
L197.438 148.144
L197.617 148.144
L197.796 147.869
L197.974 147.869
L198.153 147.32
L198.242 147.32
L198.42 147.045
L198.51 147.045
L198.778 146.495
L199.045 146.495
L199.224 145.397
L199.67 145.397
L199.938 144.847
L200.028 144.847
L200.206 144.298
L200.474 144.298
L200.742 143.748
L200.831 143.748
L201.367 142.375
L201.635 142.375
L202.17 141.001
L202.349 141.001
L202.527 140.452
L203.599 137.43
L203.867 137.43
L204.313 136.331
L204.402 136.331
L204.849 135.232
L205.027 135.232
L205.831 133.034
L206.009 133.034
L206.188 131.935
L206.277 131.935
L206.456 131.66
L206.545 131.66
L206.724 131.386
L206.902 131.386
L207.17 130.012
L207.348 130.012
L208.241 127.54
L208.331 127.54
L208.509 127.265
L208.598 127.265
L208.777 126.715
L209.223 126.715
L209.67 125.617
L210.027 125.617
L210.205 125.342
L210.295 125.342
L210.473 124.792
L210.563 124.792
L210.741 124.518
L210.92 124.518
L211.098 124.243
L211.188 124.243
L211.634 123.144
L211.902 123.144
L212.616 121.221
L212.705 121.221
L212.884 120.946
L212.973 120.946
L213.152 120.672
L213.955 120.672
L214.134 120.397
L214.223 120.397
L214.491 119.847
L214.669 119.847
L215.027 119.023
L215.562 119.023
L215.741 118.748
L216.276 118.748
L216.544 118.199
L217.08 118.199
L217.348 117.65
L217.705 117.65
L217.884 117.375
L218.508 117.375
L218.776 116.825
L218.866 116.825
L219.223 116.001
L220.026 116.001
L220.294 115.452
L220.473 115.452
L220.651 115.177
L220.74 115.177
L221.098 114.353
L221.455 114.353
L221.633 114.078
L221.901 114.078
L222.08 113.803
L222.437 113.803
L222.615 113.529
L222.794 113.529
L222.972 113.254
L223.24 113.254
L223.419 112.979
L223.508 112.979
L223.687 112.705
L224.847 112.705
L225.026 112.155
L225.562 112.155
L225.74 111.88
L226.722 111.88
L226.901 111.606
L227.258 111.606
L227.704 110.507
L228.24 110.507
L228.419 110.232
L228.865 110.232
L229.044 109.957
L230.472 109.957
L230.829 109.133
L231.008 109.133
L231.186 108.859
L233.15 108.859
L233.329 108.584
L234.222 108.584
L234.579 107.76
L234.668 107.76
L234.847 107.485
L235.472 107.485
L235.65 107.21
L236.007 107.21
L236.186 106.935
L238.15 106.935
L238.329 106.661
L239.221 106.661
L239.4 106.386
L240.293 106.386
L240.561 105.837
L240.65 105.837
L240.828 105.562
L241.007 105.562
L241.186 105.287
L241.721 105.287
L241.9 105.012
L242.078 105.012
L242.257 104.738
L243.06 104.738
L243.239 104.188
L244.4 104.188
L244.578 103.914
L244.757 103.914
L244.935 103.639
L247.971 103.639
L248.149 103.089
L248.239 103.089
L248.596 102.265
L248.864 102.265
L249.042 101.99
L250.024 101.99
L250.292 101.441
L250.381 101.441
L250.56 101.166
L250.739 101.166
L250.917 100.892
L252.792 100.892
L252.971 100.617
L255.47 100.617
L255.649 100.342
L255.738 100.342
L255.917 100.067
L257.167 100.067
L257.345 99.518
L257.524 99.518
L257.702 99.2432
L258.238 99.2432
L258.417 98.9685
L258.774 98.9685
L258.952 98.6938
L259.22 98.6938
L259.399 98.4191
L259.667 98.4191
L259.845 98.1444
L261.095 98.1444
L261.274 97.8696
L261.72 97.8696
L261.899 97.5949
L262.345 97.5949
L262.524 97.3202
L263.506 97.3202
L263.684 97.0455
L264.041 97.0455
L264.22 96.7707
L265.47 96.7707
L265.648 96.496
L266.541 96.496
L266.72 96.2213
L267.345 96.2213
L267.612 95.6719
L271.452 95.6719
L271.63 95.3971
L272.434 95.3971
L272.612 94.8477
L273.773 94.8477
L273.951 94.573
L274.041 94.573
L274.219 94.2983
L274.308 94.2983
L274.487 93.7488
L274.666 93.4741
L277.79 93.4741
L277.969 93.1994
L280.915 93.1994
L281.094 92.9246
L281.629 92.9246
L281.808 92.3752
L281.897 92.3752
L282.076 92.1005
L284.397 92.1005
L284.576 91.8258
L287.433 91.8258
L287.611 91.551
L288.058 91.551
L288.236 91.2763
L290.647 91.2763
L290.915 90.7269
L291.54 90.7269
L291.718 90.4521
L292.164 90.4521
L292.343 90.1774
L292.611 90.1774
L292.789 89.9027
L293.504 89.9027
L293.682 89.628
L295.021 89.628
L295.2 89.3533
L295.557 89.3533
L295.825 88.8038
L298.86 88.8038
L299.039 88.5291
L300.021 88.5291
L300.2 88.2544
L300.646 88.2544
L300.825 87.9797
L307.164 87.9797
L307.342 87.7049
L308.771 87.7049
L308.949 87.4302
L310.378 87.4302
L310.556 87.1555
L314.395 87.1555
L314.574 86.8808
L315.02 86.8808
L315.199 86.606
L316.359 86.606
L316.538 86.3313
L317.52 86.3313
L317.699 86.0566
L317.877 86.0566
L318.056 85.7819
L319.216 85.7819
L319.395 85.5072
L319.663 85.5072
L319.841 85.2324
L320.288 85.2324
L320.466 84.9577
L320.645 84.9577
L320.823 84.683
L323.948 84.683
L324.127 84.4083
L325.734 84.4083
L325.912 84.1335
L327.698 84.1335
L327.876 83.8588
L328.144 83.8588
L328.323 83.5841
L330.644 83.5841
L330.823 83.3094
L331.983 83.3094
L332.162 83.0347
L332.787 83.0347
L332.965 82.7599
L335.465 82.7599
L335.644 82.4852
L335.912 82.4852
L336.09 82.2105
L339.483 82.2105
L339.661 81.9358
L342.965 81.9358
L343.143 81.661
L344.215 81.661
L344.393 81.3863
L347.429 81.3863
L347.607 81.1116
L351.536 81.1116
L351.714 80.8369
L352.161 80.8369
L352.339 80.5622
L356.268 80.5622
L356.446 80.2874
L361.535 80.2874
L361.714 80.0127
L364.213 80.0127
L364.392 79.738
L365.017 79.738
L365.196 79.4633
L366.356 79.4633
L366.535 79.1886
L366.892 79.1886
L367.07 78.9138
L367.517 78.9138
L367.695 78.6391
L373.052 78.6391
L373.32 78.0897
L373.945 78.0897
L374.124 77.8149
L380.552 77.8149
L380.82 77.2655
L383.23 77.2655
L383.409 76.9908
L385.73 76.9908
L385.908 76.7161
L387.873 76.7161
L388.051 76.4413
L388.408 76.4413
L388.587 76.1666
L389.212 76.1666
L389.39 75.8919
L390.462 75.8919
L390.64 75.6172
L390.819 75.6172
L391.087 75.0677
L391.622 75.0677
L391.801 74.793
L394.301 74.793
L394.479 74.5183
L407.514 74.5183
L407.693 74.2436
L409.568 74.2436
L409.746 73.9688
L417.246 73.9688
L417.424 73.6941
L419.031 73.6941
L419.21 73.4194
L422.603 73.4194
L422.87 72.87
L430.727 72.87
L430.906 72.5952
L431.977 72.5952
L432.156 72.3205
L439.566 72.3205
L439.744 72.0458
L445.101 72.0458
L445.28 71.7711
L454.118 71.7711
L454.297 71.4963
L456.708 71.4963
L456.886 71.2216
L469.028 71.2216
L469.207 70.9469
L473.581 70.9469
L473.76 70.6722
L473.849 70.6722
L474.028 70.3975
L480.367 70.3975
L480.545 70.1227
L481.17 70.1227
L481.349 69.848
L482.152 69.848
L482.331 69.5733
L492.866 69.5733
L493.044 69.2986
L495.009 69.2986
L495.187 69.0238
L497.419 69.0238
L497.598 68.7491
L505.633 68.7491
L505.812 68.4744
L507.776 68.4744
L507.954 68.1997
L509.204 68.1997
L509.383 67.925
L518.311 67.925
L518.311 67.925" style="fill:none;stroke:#008000;stroke-dasharray:1.000000,1.000000;stroke-dashoffset:0.0;"/>
   </g>
   <g id="line2d_3">
    <path clip-path="url(#p7ff5b81e1d)" d="
M72 388.8
L72.2678 388.8
L72.4464 388.11
L72.5357 388.11
L72.7142 388.8
L407.514 388.8
L407.693 388.11
L421.62 388.11
L421.799 387.42
L432.78 387.42
L432.959 386.731
L434.12 386.731
L434.298 386.041
L437.869 386.041
L438.048 385.351
L445.19 385.351
L445.369 384.661
L451.708 384.661
L451.886 383.971
L455.279 383.971
L455.458 383.281
L455.815 383.281
L456.083 381.902
L457.868 381.902
L458.047 381.212
L462.332 381.212
L462.511 380.522
L466.35 380.522
L466.528 379.832
L467.689 379.832
L467.868 379.143
L470.814 379.143
L470.992 378.453
L472.778 378.453
L472.956 377.763
L473.671 377.763
L473.849 377.073
L474.028 377.073
L474.206 376.383
L475.456 376.383
L475.635 375.693
L477.51 375.693
L477.688 375.004
L477.778 375.004
L477.956 372.934
L478.135 372.934
L478.313 372.244
L480.367 372.244
L480.545 371.554
L481.527 371.554
L481.706 370.865
L482.152 370.865
L482.331 370.175
L482.867 370.175
L483.045 369.485
L483.224 369.485
L483.402 368.795
L484.206 368.795
L484.384 368.105
L484.652 368.105
L484.831 367.416
L486.973 367.416
L487.152 366.726
L487.956 366.726
L488.223 365.346
L489.92 365.346
L490.098 364.656
L493.044 364.656
L493.402 362.587
L495.723 362.587
L495.901 361.207
L496.08 361.207
L496.348 359.828
L496.884 359.828
L497.062 359.138
L497.508 359.138
L497.776 357.758
L498.133 357.758
L498.312 357.068
L499.116 357.068
L499.294 356.378
L499.473 356.378
L499.651 354.999
L500.455 354.999
L500.633 354.309
L501.169 354.309
L501.348 353.619
L501.705 353.619
L501.883 352.929
L502.24 352.929
L502.419 351.55
L504.026 351.55
L504.204 350.86
L504.74 350.86
L505.008 349.48
L505.365 349.48
L505.544 348.79
L507.865 348.79
L508.044 348.101
L509.204 348.101
L509.383 347.411
L509.472 347.411
L509.829 345.341
L510.811 345.341
L510.99 344.651
L511.168 344.651
L511.347 343.962
L511.525 343.962
L511.704 343.272
L511.793 343.272
L511.972 342.582
L512.15 342.582
L512.508 340.513
L512.865 340.513
L513.132 339.133
L513.579 339.133
L513.757 338.443
L513.936 338.443
L514.115 337.753
L514.472 337.753
L514.65 337.063
L514.74 337.063
L514.918 336.374
L515.9 336.374
L516.257 334.304
L516.347 334.304
L516.525 333.614
L516.614 333.614
L516.882 332.235
L517.15 332.235
L517.329 331.545
L517.507 331.545
L517.686 330.855
L518.311 330.855
L518.311 330.855" style="fill:none;stroke:#ff0000;stroke-dasharray:3.000000,6.000000;stroke-dashoffset:0.0;"/>
   </g>
   <g id="line2d_4">
    <path clip-path="url(#p7ff5b81e1d)" d="
M72 388.8
L72.625 388.8
L72.8035 388.613
L73.7856 388.613
L73.9642 388.8
L518.311 388.8
L518.311 388.8" style="fill:none;stroke:#00bfbf;stroke-dasharray:5.000000,1.000000,2.000000,1.000000,5.000000,1.000000;stroke-dashoffset:0.0;"/>
   </g>
   <g id="line2d_5">
    <path clip-path="url(#p7ff5b81e1d)" d="
M72 388.8
L258.327 388.8
L258.506 388.11
L282.79 388.11
L282.969 387.42
L294.575 387.42
L294.754 386.731
L305.378 386.731
L305.556 386.041
L307.878 386.041
L308.056 385.351
L311.538 385.351
L311.717 384.661
L316.716 384.661
L316.895 383.971
L319.306 383.971
L319.484 383.281
L326.448 383.281
L326.627 382.592
L333.144 382.592
L333.323 381.902
L343.59 381.902
L343.768 381.212
L347.875 381.212
L348.143 379.832
L372.695 379.832
L372.874 379.143
L384.391 379.143
L384.569 378.453
L390.64 378.453
L390.819 377.763
L391.265 377.763
L391.444 377.073
L392.604 377.073
L392.783 376.383
L395.104 376.383
L395.283 375.693
L412.068 375.693
L412.246 375.004
L433.673 375.004
L433.852 374.314
L452.154 374.314
L452.333 373.624
L509.651 373.624
L509.829 372.934
L515.9 372.934
L516.079 372.244
L518.311 372.244
L518.311 372.244" style="fill:none;stroke:#bf00bf;stroke-linecap:square;"/>
   </g>
   <g id="matplotlib.axis_1">
    <g id="xtick_1">
     <g id="line2d_6">
      <defs>
       <path d="
M0 0
L0 -4" id="mc7db9fdffb" style="stroke:#000000;stroke-width:0.5;"/>
      </defs>
      <g>
       <use style="stroke:#000000;stroke-width:0.5;" x="72.0" xlink:href="#mc7db9fdffb" y="388.8"/>
      </g>
     </g>
     <g id="line2d_7">
      <defs>
       <path d="
M0 0
L0 4" id="m5a7d422ac3" style="stroke:#000000;stroke-width:0.5;"/>
      </defs>
      <g>
       <use style="stroke:#000000;stroke-width:0.5;" x="72.0" xlink:href="#m5a7d422ac3" y="43.2"/>
      </g>
     </g>
     <g id="text_1">
      <!-- 0 -->
      <defs>
       <path d="
M56.9844 36.375
Q56.9844 16.7969 50.8594 7.64062
Q44.7344 -1.51562 31.8438 -1.51562
Q18.75 -1.51562 12.7188 7.76562
Q6.6875 17.0469 6.6875 36.2812
Q6.6875 55.6719 12.7812 64.9219
Q18.8906 74.1719 31.8438 74.1719
Q44.9219 74.1719 50.9531 64.7656
Q56.9844 55.375 56.9844 36.375
M44.1406 14.2031
Q45.8438 18.1719 46.4531 23.5156
Q47.0781 28.8594 47.0781 36.375
Q47.0781 43.7969 46.4531 49.2656
Q45.8438 54.7344 44.0938 58.5469
Q42.3906 62.3125 39.4219 64.2031
Q36.4688 66.1094 31.8438 66.1094
Q27.25 66.1094 24.2344 64.2031
Q21.2344 62.3125 19.4844 58.4531
Q17.8281 54.8281 17.2188 49.0156
Q16.6094 43.2188 16.6094 36.2812
Q16.6094 28.6562 17.1406 23.5312
Q17.6719 18.4062 19.4375 14.3594
Q21.0469 10.5469 24 8.54688
Q26.9531 6.54688 31.8438 6.54688
Q36.4219 6.54688 39.4531 8.45312
Q42.4844 10.3594 44.1406 14.2031" id="Verdana-30"/>
      </defs>
      <g transform="translate(68.9821875 401.918125)scale(0.12 -0.12)">
       <use xlink:href="#Verdana-30"/>
      </g>
     </g>
    </g>
    <g id="xtick_2">
     <g id="line2d_8">
      <g>
       <use style="stroke:#000000;stroke-width:0.5;" x="161.28" xlink:href="#mc7db9fdffb" y="388.8"/>
      </g>
     </g>
     <g id="line2d_9">
      <g>
       <use style="stroke:#000000;stroke-width:0.5;" x="161.28" xlink:href="#m5a7d422ac3" y="43.2"/>
      </g>
     </g>
     <g id="text_2">
      <!-- 1000 -->
      <defs>
       <path d="
M52.9375 0
L13.5781 0
L13.5781 7.42188
L28.7188 7.42188
L28.7188 56.1562
L13.5781 56.1562
L13.5781 62.7969
Q16.6562 62.7969 20.1719 63.2969
Q23.6875 63.8125 25.4844 64.7969
Q27.7344 66.0156 29.0312 67.8906
Q30.3281 69.7812 30.5156 72.9531
L38.0938 72.9531
L38.0938 7.42188
L52.9375 7.42188
z
" id="Verdana-31"/>
      </defs>
      <g transform="translate(147.2315625 401.918125)scale(0.12 -0.12)">
       <use xlink:href="#Verdana-31"/>
       <use x="63.57421875" xlink:href="#Verdana-30"/>
       <use x="127.1484375" xlink:href="#Verdana-30"/>
       <use x="190.72265625" xlink:href="#Verdana-30"/>
      </g>
     </g>
    </g>
    <g id="xtick_3">
     <g id="line2d_10">
      <g>
       <use style="stroke:#000000;stroke-width:0.5;" x="250.56" xlink:href="#mc7db9fdffb" y="388.8"/>
      </g>
     </g>
     <g id="line2d_11">
      <g>
       <use style="stroke:#000000;stroke-width:0.5;" x="250.56" xlink:href="#m5a7d422ac3" y="43.2"/>
      </g>
     </g>
     <g id="text_3">
      <!-- 2000 -->
      <defs>
       <path d="
M57.0781 0
L7.85938 0
L7.85938 10.2031
Q12.9844 14.5938 18.1406 18.9844
Q23.2969 23.3906 27.7344 27.7344
Q37.1094 36.8125 40.5781 42.1562
Q44.0469 47.5156 44.0469 53.7188
Q44.0469 59.375 40.3125 62.5625
Q36.5781 65.7656 29.8906 65.7656
Q25.4375 65.7656 20.2656 64.2031
Q15.0938 62.6406 10.1562 59.4219
L9.67188 59.4219
L9.67188 69.6719
Q13.1406 71.3906 18.9219 72.7969
Q24.7031 74.2188 30.125 74.2188
Q41.3125 74.2188 47.6562 68.8125
Q54 63.4219 54 54.2031
Q54 50.0469 52.9531 46.4531
Q51.9062 42.875 49.8594 39.6562
Q47.9531 36.625 45.3906 33.6875
Q42.8281 30.7656 39.1562 27.2031
Q33.9375 22.0781 28.3594 17.2656
Q22.7969 12.4531 17.9688 8.34375
L57.0781 8.34375
z
" id="Verdana-32"/>
      </defs>
      <g transform="translate(236.1684375 401.918125)scale(0.12 -0.12)">
       <use xlink:href="#Verdana-32"/>
       <use x="63.57421875" xlink:href="#Verdana-30"/>
       <use x="127.1484375" xlink:href="#Verdana-30"/>
       <use x="190.72265625" xlink:href="#Verdana-30"/>
      </g>
     </g>
    </g>
    <g id="xtick_4">
     <g id="line2d_12">
      <g>
       <use style="stroke:#000000;stroke-width:0.5;" x="339.84" xlink:href="#mc7db9fdffb" y="388.8"/>
      </g>
     </g>
     <g id="line2d_13">
      <g>
       <use style="stroke:#000000;stroke-width:0.5;" x="339.84" xlink:href="#m5a7d422ac3" y="43.2"/>
      </g>
     </g>
     <g id="text_4">
      <!-- 3000 -->
      <defs>
       <path d="
M50.6875 35.0156
Q53.0312 32.9062 54.5469 29.7344
Q56.0625 26.5625 56.0625 21.5312
Q56.0625 16.5469 54.25 12.3906
Q52.4375 8.25 49.1719 5.17188
Q45.5156 1.76562 40.5469 0.125
Q35.5938 -1.51562 29.6875 -1.51562
Q23.6406 -1.51562 17.7812 -0.0625
Q11.9219 1.375 8.15625 3.07812
L8.15625 13.2812
L8.89062 13.2812
Q13.0312 10.5469 18.6406 8.73438
Q24.2656 6.9375 29.5 6.9375
Q32.5625 6.9375 36.0312 7.95312
Q39.5 8.98438 41.6562 10.9844
Q43.8906 13.1406 44.9844 15.7188
Q46.0938 18.3125 46.0938 22.2656
Q46.0938 26.1719 44.8438 28.7344
Q43.6094 31.2969 41.4062 32.7656
Q39.2031 34.2812 36.0781 34.8438
Q32.9531 35.4062 29.3438 35.4062
L24.9531 35.4062
L24.9531 43.5
L28.375 43.5
Q35.7969 43.5 40.2031 46.5938
Q44.625 49.7031 44.625 55.6719
Q44.625 58.2969 43.5 60.2656
Q42.3906 62.25 40.375 63.5312
Q38.2812 64.7969 35.8906 65.2812
Q33.5 65.7656 30.4688 65.7656
Q25.8281 65.7656 20.5938 64.1094
Q15.375 62.4531 10.75 59.4219
L10.25 59.4219
L10.25 69.625
Q13.7188 71.3438 19.5 72.7812
Q25.2969 74.2188 30.7188 74.2188
Q36.0312 74.2188 40.0781 73.2344
Q44.1406 72.2656 47.4062 70.125
Q50.9219 67.7812 52.7344 64.4531
Q54.5469 61.1406 54.5469 56.6875
Q54.5469 50.6406 50.2656 46.125
Q46 41.6094 40.1875 40.4375
L40.1875 39.75
Q42.5312 39.3594 45.5469 38.1094
Q48.5781 36.8594 50.6875 35.0156" id="Verdana-33"/>
      </defs>
      <g transform="translate(325.46625 401.918125)scale(0.12 -0.12)">
       <use xlink:href="#Verdana-33"/>
       <use x="63.57421875" xlink:href="#Verdana-30"/>
       <use x="127.1484375" xlink:href="#Verdana-30"/>
       <use x="190.72265625" xlink:href="#Verdana-30"/>
      </g>
     </g>
    </g>
    <g id="xtick_5">
     <g id="line2d_14">
      <g>
       <use style="stroke:#000000;stroke-width:0.5;" x="429.12" xlink:href="#mc7db9fdffb" y="388.8"/>
      </g>
     </g>
     <g id="line2d_15">
      <g>
       <use style="stroke:#000000;stroke-width:0.5;" x="429.12" xlink:href="#m5a7d422ac3" y="43.2"/>
      </g>
     </g>
     <g id="text_5">
      <!-- 4000 -->
      <defs>
       <path d="
M58.7344 20.4531
L47.9531 20.4531
L47.9531 0
L38.5781 0
L38.5781 20.4531
L3.76562 20.4531
L3.76562 31.6875
L38.9688 72.7031
L47.9531 72.7031
L47.9531 28.2656
L58.7344 28.2656
z

M38.5781 28.2656
L38.5781 61.0781
L10.4062 28.2656
z
" id="Verdana-34"/>
      </defs>
      <g transform="translate(414.4828125 401.918125)scale(0.12 -0.12)">
       <use xlink:href="#Verdana-34"/>
       <use x="63.57421875" xlink:href="#Verdana-30"/>
       <use x="127.1484375" xlink:href="#Verdana-30"/>
       <use x="190.72265625" xlink:href="#Verdana-30"/>
      </g>
     </g>
    </g>
    <g id="xtick_6">
     <g id="line2d_16">
      <g>
       <use style="stroke:#000000;stroke-width:0.5;" x="518.4" xlink:href="#mc7db9fdffb" y="388.8"/>
      </g>
     </g>
     <g id="line2d_17">
      <g>
       <use style="stroke:#000000;stroke-width:0.5;" x="518.4" xlink:href="#m5a7d422ac3" y="43.2"/>
      </g>
     </g>
     <g id="text_6">
      <!-- 5000 -->
      <defs>
       <path d="
M56.5 23.0938
Q56.5 18.0156 54.6406 13.375
Q52.7812 8.73438 49.5625 5.5625
Q46.0469 2.15625 41.1875 0.3125
Q36.3281 -1.51562 29.9375 -1.51562
Q23.9688 -1.51562 18.4531 -0.265625
Q12.9375 0.984375 9.125 2.73438
L9.125 13.0312
L9.8125 13.0312
Q13.8125 10.5 19.1875 8.71875
Q24.5625 6.9375 29.7344 6.9375
Q33.2031 6.9375 36.4531 7.90625
Q39.7031 8.89062 42.2344 11.3281
Q44.3906 13.4219 45.4844 16.3438
Q46.5781 19.2812 46.5781 23.1406
Q46.5781 26.9062 45.2812 29.4844
Q44 32.0781 41.7031 33.6406
Q39.1562 35.5 35.5156 36.25
Q31.8906 37.0156 27.3906 37.0156
Q23.0938 37.0156 19.1094 36.4219
Q15.1406 35.8438 12.25 35.25
L12.25 72.7031
L56 72.7031
L56 64.1562
L21.6875 64.1562
L21.6875 44.8281
Q23.7812 45.0156 25.9688 45.1094
Q28.1719 45.2188 29.7812 45.2188
Q35.6875 45.2188 40.125 44.2188
Q44.5781 43.2188 48.2969 40.6719
Q52.2031 37.9844 54.3438 33.7344
Q56.5 29.5 56.5 23.0938" id="Verdana-35"/>
      </defs>
      <g transform="translate(504.084375 401.918125)scale(0.12 -0.12)">
       <use xlink:href="#Verdana-35"/>
       <use x="63.57421875" xlink:href="#Verdana-30"/>
       <use x="127.1484375" xlink:href="#Verdana-30"/>
       <use x="190.72265625" xlink:href="#Verdana-30"/>
      </g>
     </g>
    </g>
    <g id="text_7">
     <!-- Objective function exectuions -->
     <defs>
      <path d="
M63.9688 64.3594
Q68.4062 59.4688 70.7656 52.3906
Q73.1406 45.3125 73.1406 36.3281
Q73.1406 27.3438 70.7188 20.2344
Q68.3125 13.1406 63.9688 8.40625
Q59.4688 3.46875 53.3438 0.96875
Q47.2188 -1.51562 39.3594 -1.51562
Q31.6875 -1.51562 25.4062 1.01562
Q19.1406 3.5625 14.75 8.40625
Q10.3594 13.2344 7.98438 20.2656
Q5.60938 27.2969 5.60938 36.3281
Q5.60938 45.2188 7.95312 52.2656
Q10.2969 59.3281 14.7969 64.3594
Q19.0938 69.1406 25.4688 71.6719
Q31.8438 74.2188 39.3594 74.2188
Q47.1719 74.2188 53.3906 71.6562
Q59.625 69.0938 63.9688 64.3594
M63.0938 36.3281
Q63.0938 50.4844 56.7344 58.1719
Q50.3906 65.875 39.4062 65.875
Q28.3281 65.875 22 58.1719
Q15.6719 50.4844 15.6719 36.3281
Q15.6719 22.0156 22.1094 14.4219
Q28.5625 6.84375 39.4062 6.84375
Q50.25 6.84375 56.6719 14.4219
Q63.0938 22.0156 63.0938 36.3281" id="Verdana-4f"/>
      <path d="
M48 15.7188
Q48 8.25 41.8125 3.46875
Q35.6406 -1.3125 24.9531 -1.3125
Q18.8906 -1.3125 13.8438 0.125
Q8.79688 1.5625 5.375 3.26562
L5.375 13.5781
L5.85938 13.5781
Q10.2031 10.2969 15.5156 8.375
Q20.8438 6.45312 25.7344 6.45312
Q31.7812 6.45312 35.2031 8.40625
Q38.625 10.3594 38.625 14.5469
Q38.625 17.7812 36.7656 19.4375
Q34.9062 21.0938 29.6406 22.2656
Q27.6875 22.7031 24.5312 23.2812
Q21.3906 23.875 18.7969 24.5625
Q11.625 26.4688 8.60938 30.1562
Q5.60938 33.8438 5.60938 39.2031
Q5.60938 42.5781 7 45.5469
Q8.40625 48.5312 11.2344 50.875
Q13.9688 53.1719 18.1875 54.5156
Q22.4062 55.8594 27.6406 55.8594
Q32.5156 55.8594 37.5156 54.6562
Q42.5312 53.4688 45.8438 51.7656
L45.8438 41.9375
L45.3594 41.9375
Q41.8438 44.5312 36.8125 46.3125
Q31.7812 48.0938 26.9531 48.0938
Q21.9219 48.0938 18.4531 46.1562
Q14.9844 44.2344 14.9844 40.4375
Q14.9844 37.0625 17.0938 35.3594
Q19.1406 33.6406 23.7344 32.5625
Q26.2656 31.9844 29.4062 31.3906
Q32.5625 30.8125 34.6719 30.3281
Q41.0625 28.8594 44.5312 25.2969
Q48 21.6875 48 15.7188" id="Verdana-73"/>
      <path d="
M54.6875 26.3125
L14.5 26.3125
Q14.5 21.2969 16.0156 17.5469
Q17.5312 13.8125 20.1719 11.4219
Q22.7031 9.07812 26.1875 7.90625
Q29.6875 6.73438 33.8906 6.73438
Q39.4531 6.73438 45.0938 8.95312
Q50.7344 11.1875 53.125 13.3281
L53.6094 13.3281
L53.6094 3.32812
Q48.9688 1.375 44.1406 0.046875
Q39.3125 -1.26562 33.9844 -1.26562
Q20.4062 -1.26562 12.7812 6.07812
Q5.17188 13.4219 5.17188 26.9531
Q5.17188 40.3281 12.4688 48.1875
Q19.7812 56.0625 31.6875 56.0625
Q42.7188 56.0625 48.7031 49.6094
Q54.6875 43.1719 54.6875 31.2969
z

M45.75 33.3438
Q45.7031 40.5781 42.1094 44.5312
Q38.5312 48.4844 31.2031 48.4844
Q23.8281 48.4844 19.4531 44.1406
Q15.0938 39.7969 14.5 33.3438
z
" id="Verdana-65"/>
      <path d="
M56.2031 54.5469
L34.125 0
L24.9062 0
L2.98438 54.5469
L12.9375 54.5469
L29.8281 11.1406
L46.5781 54.5469
z
" id="Verdana-76"/>
      <path d="
M49.3594 3.42188
Q44.7812 1.21875 40.6562 0
Q36.5312 -1.21875 31.8906 -1.21875
Q25.9844 -1.21875 21.0469 0.515625
Q16.1094 2.25 12.5938 5.76562
Q9.03125 9.28125 7.07812 14.6406
Q5.125 20.0156 5.125 27.2031
Q5.125 40.5781 12.4688 48.1875
Q19.8281 55.8125 31.8906 55.8125
Q36.5781 55.8125 41.0938 54.4844
Q45.6094 53.1719 49.3594 51.2656
L49.3594 41.0625
L48.875 41.0625
Q44.6719 44.3438 40.2031 46.0938
Q35.75 47.8594 31.5 47.8594
Q23.6875 47.8594 19.1719 42.6094
Q14.6562 37.3594 14.6562 27.2031
Q14.6562 17.3281 19.0625 12.0312
Q23.4844 6.73438 31.5 6.73438
Q34.2812 6.73438 37.1562 7.46875
Q40.0469 8.20312 42.3281 9.375
Q44.3438 10.4062 46.0938 11.5469
Q47.8594 12.7031 48.875 13.5312
L49.3594 13.5312
z
" id="Verdana-63"/>
      <path d="
M57.0312 27.6875
Q57.0312 20.8438 55.0938 15.375
Q53.1719 9.90625 49.9062 6.20312
Q46.4375 2.34375 42.2812 0.40625
Q38.1406 -1.51562 33.1562 -1.51562
Q28.5156 -1.51562 25.0469 -0.40625
Q21.5781 0.6875 18.2188 2.54688
L17.625 0
L9.03125 0
L9.03125 75.9844
L18.2188 75.9844
L18.2188 48.8281
Q22.0781 52 26.4219 54.0312
Q30.7656 56.0625 36.1875 56.0625
Q45.8438 56.0625 51.4375 48.6406
Q57.0312 41.2188 57.0312 27.6875
M47.5625 27.4375
Q47.5625 37.2031 44.3281 42.25
Q41.1094 47.3125 33.9375 47.3125
Q29.9375 47.3125 25.8281 45.5781
Q21.7344 43.8438 18.2188 41.1094
L18.2188 9.85938
Q22.125 8.10938 24.9219 7.42188
Q27.7344 6.73438 31.2969 6.73438
Q38.9219 6.73438 43.2344 11.7344
Q47.5625 16.75 47.5625 27.4375" id="Verdana-62"/>
      <path d="
M26.0312 63.6719
L15.6719 63.6719
L15.6719 73.1875
L26.0312 73.1875
z

M25.4375 -1.3125
Q25.4375 -10.8906 20.5469 -15.7656
Q15.6719 -20.6562 7.46875 -20.6562
Q5.51562 -20.6562 2.3125 -20.2656
Q-0.875 -19.875 -3.03125 -19.2812
L-3.03125 -10.5469
L-2.54688 -10.5469
Q-1.17188 -11.0781 1.14062 -11.7656
Q3.46875 -12.4531 5.67188 -12.4531
Q9.1875 -12.4531 11.3281 -11.4688
Q13.4844 -10.5 14.5469 -8.54688
Q15.625 -6.59375 15.9375 -3.82812
Q16.2656 -1.07812 16.2656 2.875
L16.2656 46.8281
L4.89062 46.8281
L4.89062 54.5469
L25.4375 54.5469
z
" id="Verdana-6a"/>
      <path d="
M37.3594 0.484375
Q34.7656 -0.203125 31.7031 -0.640625
Q28.6562 -1.07812 26.2656 -1.07812
Q17.9219 -1.07812 13.5781 3.40625
Q9.23438 7.90625 9.23438 17.8281
L9.23438 46.8281
L3.03125 46.8281
L3.03125 54.5469
L9.23438 54.5469
L9.23438 70.2188
L18.4062 70.2188
L18.4062 54.5469
L37.3594 54.5469
L37.3594 46.8281
L18.4062 46.8281
L18.4062 21.9688
Q18.4062 17.6719 18.5938 15.25
Q18.7969 12.8438 19.9688 10.75
Q21.0469 8.79688 22.9219 7.89062
Q24.8125 6.98438 28.6562 6.98438
Q30.9062 6.98438 33.3438 7.64062
Q35.7969 8.29688 36.8594 8.73438
L37.3594 8.73438
z
" id="Verdana-74"/>
      <path d="
M18.8906 63.6719
L8.54688 63.6719
L8.54688 73.1875
L18.8906 73.1875
z

M18.3125 0
L9.125 0
L9.125 54.5469
L18.3125 54.5469
z
" id="Verdana-69"/>
      <path d="
M54.25 0
L45.0625 0
L45.0625 6.0625
Q40.4375 2.39062 36.1875 0.4375
Q31.9375 -1.51562 26.8125 -1.51562
Q18.2188 -1.51562 13.4219 3.73438
Q8.64062 8.98438 8.64062 19.1406
L8.64062 54.5469
L17.8281 54.5469
L17.8281 23.4844
Q17.8281 19.3438 18.2188 16.375
Q18.6094 13.4219 19.875 11.3281
Q21.1875 9.1875 23.2812 8.20312
Q25.3906 7.23438 29.3906 7.23438
Q32.9531 7.23438 37.1719 9.07812
Q41.4062 10.9375 45.0625 13.8125
L45.0625 54.5469
L54.25 54.5469
z
" id="Verdana-75"/>
      <path d="
M38.375 67.0938
L37.8906 67.0938
Q36.375 67.5312 33.9375 67.9844
Q31.5 68.4531 29.6406 68.4531
Q23.7344 68.4531 21.0625 65.8438
Q18.4062 63.2344 18.4062 56.3906
L18.4062 54.5469
L34.9688 54.5469
L34.9688 46.8281
L18.7031 46.8281
L18.7031 0
L9.51562 0
L9.51562 46.8281
L3.32812 46.8281
L3.32812 54.5469
L9.51562 54.5469
L9.51562 56.3438
Q9.51562 66.0625 14.3438 71.2656
Q19.1875 76.4688 28.3281 76.4688
Q31.3906 76.4688 33.8594 76.1719
Q36.3281 75.875 38.375 75.4844
z
" id="Verdana-66"/>
      <path id="Verdana-20"/>
      <path d="
M56.25 0
L44.6719 0
L29.2031 20.9531
L13.625 0
L2.9375 0
L24.2188 27.2031
L3.125 54.5469
L14.7031 54.5469
L30.0781 33.9375
L45.5156 54.5469
L56.25 54.5469
L34.8125 27.6875
z
" id="Verdana-78"/>
      <path d="
M54.6406 0
L45.4531 0
L45.4531 31.0625
Q45.4531 34.8125 45.0156 38.1094
Q44.5781 41.4062 43.4062 43.2656
Q42.1875 45.3125 39.8906 46.3125
Q37.5938 47.3125 33.9375 47.3125
Q30.1719 47.3125 26.0625 45.4531
Q21.9688 43.6094 18.2188 40.7188
L18.2188 0
L9.03125 0
L9.03125 54.5469
L18.2188 54.5469
L18.2188 48.4844
Q22.5156 52.0469 27.0938 54.0469
Q31.6875 56.0625 36.5312 56.0625
Q45.3594 56.0625 50 50.7344
Q54.6406 45.4062 54.6406 35.4062
z
" id="Verdana-6e"/>
      <path d="
M55.5156 27.25
Q55.5156 13.9219 48.6719 6.20312
Q41.8438 -1.51562 30.375 -1.51562
Q18.7969 -1.51562 11.9844 6.20312
Q5.17188 13.9219 5.17188 27.25
Q5.17188 40.5781 11.9844 48.3125
Q18.7969 56.0625 30.375 56.0625
Q41.8438 56.0625 48.6719 48.3125
Q55.5156 40.5781 55.5156 27.25
M46.0469 27.25
Q46.0469 37.8438 41.8906 42.9844
Q37.75 48.1406 30.375 48.1406
Q22.9062 48.1406 18.7812 42.9844
Q14.6562 37.8438 14.6562 27.25
Q14.6562 17 18.7969 11.6875
Q22.9531 6.39062 30.375 6.39062
Q37.7031 6.39062 41.875 11.6406
Q46.0469 16.8906 46.0469 27.25" id="Verdana-6f"/>
     </defs>
     <g transform="translate(206.5078125 418.509375)scale(0.12 -0.12)">
      <use xlink:href="#Verdana-4f"/>
      <use x="78.7109375" xlink:href="#Verdana-62"/>
      <use x="141.015625" xlink:href="#Verdana-6a"/>
      <use x="175.439453125" xlink:href="#Verdana-65"/>
      <use x="235.009765625" xlink:href="#Verdana-63"/>
      <use x="287.109375" xlink:href="#Verdana-74"/>
      <use x="326.513671875" xlink:href="#Verdana-69"/>
      <use x="353.955078125" xlink:href="#Verdana-76"/>
      <use x="412.259765625" xlink:href="#Verdana-65"/>
      <use x="471.830078125" xlink:href="#Verdana-20"/>
      <use x="506.986328125" xlink:href="#Verdana-66"/>
      <use x="542.142578125" xlink:href="#Verdana-75"/>
      <use x="605.423828125" xlink:href="#Verdana-6e"/>
      <use x="668.705078125" xlink:href="#Verdana-63"/>
      <use x="720.8046875" xlink:href="#Verdana-74"/>
      <use x="760.208984375" xlink:href="#Verdana-69"/>
      <use x="787.650390625" xlink:href="#Verdana-6f"/>
      <use x="848.34375" xlink:href="#Verdana-6e"/>
      <use x="911.625" xlink:href="#Verdana-20"/>
      <use x="946.78125" xlink:href="#Verdana-65"/>
      <use x="1006.3515625" xlink:href="#Verdana-78"/>
      <use x="1064.40625" xlink:href="#Verdana-65"/>
      <use x="1123.9765625" xlink:href="#Verdana-63"/>
      <use x="1176.076171875" xlink:href="#Verdana-74"/>
      <use x="1215.48046875" xlink:href="#Verdana-75"/>
      <use x="1278.76171875" xlink:href="#Verdana-69"/>
      <use x="1306.203125" xlink:href="#Verdana-6f"/>
      <use x="1366.896484375" xlink:href="#Verdana-6e"/>
      <use x="1430.177734375" xlink:href="#Verdana-73"/>
     </g>
    </g>
   </g>
   <g id="matplotlib.axis_2">
    <g id="ytick_1">
     <g id="line2d_18">
      <defs>
       <path d="
M0 0
L4 0" id="md7965d1ba0" style="stroke:#000000;stroke-width:0.5;"/>
      </defs>
      <g>
       <use style="stroke:#000000;stroke-width:0.5;" x="72.0" xlink:href="#md7965d1ba0" y="388.8"/>
      </g>
     </g>
     <g id="line2d_19">
      <defs>
       <path d="
M0 0
L-4 0" id="md9a1c1a7cd" style="stroke:#000000;stroke-width:0.5;"/>
      </defs>
      <g>
       <use style="stroke:#000000;stroke-width:0.5;" x="518.4" xlink:href="#md9a1c1a7cd" y="388.8"/>
      </g>
     </g>
     <g id="text_8">
      <!-- 0.0 -->
      <defs>
       <path d="
M24.0312 0
L12.3594 0
L12.3594 13.9219
L24.0312 13.9219
z
" id="Verdana-2e"/>
      </defs>
      <g transform="translate(49.97 392.1515625)scale(0.12 -0.12)">
       <use xlink:href="#Verdana-30"/>
       <use x="63.57421875" xlink:href="#Verdana-2e"/>
       <use x="99.951171875" xlink:href="#Verdana-30"/>
      </g>
     </g>
    </g>
    <g id="ytick_2">
     <g id="line2d_20">
      <g>
       <use style="stroke:#000000;stroke-width:0.5;" x="72.0" xlink:href="#md7965d1ba0" y="319.68"/>
      </g>
     </g>
     <g id="line2d_21">
      <g>
       <use style="stroke:#000000;stroke-width:0.5;" x="518.4" xlink:href="#md9a1c1a7cd" y="319.68"/>
      </g>
     </g>
     <g id="text_9">
      <!-- 0.2 -->
      <g transform="translate(49.95875 323.0315625)scale(0.12 -0.12)">
       <use xlink:href="#Verdana-30"/>
       <use x="63.57421875" xlink:href="#Verdana-2e"/>
       <use x="99.951171875" xlink:href="#Verdana-32"/>
      </g>
     </g>
    </g>
    <g id="ytick_3">
     <g id="line2d_22">
      <g>
       <use style="stroke:#000000;stroke-width:0.5;" x="72.0" xlink:href="#md7965d1ba0" y="250.56"/>
      </g>
     </g>
     <g id="line2d_23">
      <g>
       <use style="stroke:#000000;stroke-width:0.5;" x="518.4" xlink:href="#md9a1c1a7cd" y="250.56"/>
      </g>
     </g>
     <g id="text_10">
      <!-- 0.4 -->
      <g transform="translate(49.76 253.9115625)scale(0.12 -0.12)">
       <use xlink:href="#Verdana-30"/>
       <use x="63.57421875" xlink:href="#Verdana-2e"/>
       <use x="99.951171875" xlink:href="#Verdana-34"/>
      </g>
     </g>
    </g>
    <g id="ytick_4">
     <g id="line2d_24">
      <g>
       <use style="stroke:#000000;stroke-width:0.5;" x="72.0" xlink:href="#md7965d1ba0" y="181.44"/>
      </g>
     </g>
     <g id="line2d_25">
      <g>
       <use style="stroke:#000000;stroke-width:0.5;" x="518.4" xlink:href="#md9a1c1a7cd" y="181.44"/>
      </g>
     </g>
     <g id="text_11">
      <!-- 0.6 -->
      <defs>
       <path d="
M58.1562 23.5781
Q58.1562 12.5 50.8594 5.48438
Q43.5625 -1.51562 32.9531 -1.51562
Q27.5938 -1.51562 23.1875 0.140625
Q18.7969 1.8125 15.4375 5.07812
Q11.2344 9.125 8.95312 15.8125
Q6.6875 22.5156 6.6875 31.9375
Q6.6875 41.6094 8.76562 49.0781
Q10.8438 56.5469 15.375 62.3594
Q19.6719 67.875 26.4531 70.9688
Q33.25 74.0781 42.2812 74.0781
Q45.1719 74.0781 47.125 73.8281
Q49.0781 73.5781 51.0781 72.9531
L51.0781 63.625
L50.5938 63.625
Q49.2188 64.3594 46.4531 65.0156
Q43.7031 65.6719 40.8281 65.6719
Q30.3281 65.6719 24.0781 59.1094
Q17.8281 52.5469 16.7969 41.3594
Q20.9062 43.8438 24.875 45.1406
Q28.8594 46.4375 34.0781 46.4375
Q38.7188 46.4375 42.25 45.5781
Q45.7969 44.7344 49.5156 42.1406
Q53.8125 39.1562 55.9844 34.6094
Q58.1562 30.0781 58.1562 23.5781
M48.25 23.1875
Q48.25 27.7344 46.9062 30.7031
Q45.5625 33.6875 42.4844 35.8906
Q40.2344 37.4531 37.5 37.9375
Q34.7656 38.4219 31.7812 38.4219
Q27.6406 38.4219 24.0781 37.4375
Q20.5156 36.4688 16.75 34.4219
Q16.6562 33.3438 16.5938 32.3438
Q16.5469 31.3438 16.5469 29.8281
Q16.5469 22.125 18.1406 17.6562
Q19.7344 13.1875 22.5156 10.5938
Q24.75 8.45312 27.3594 7.45312
Q29.9844 6.45312 33.0625 6.45312
Q40.1406 6.45312 44.1875 10.7656
Q48.25 15.0938 48.25 23.1875" id="Verdana-36"/>
      </defs>
      <g transform="translate(49.829375 184.7915625)scale(0.12 -0.12)">
       <use xlink:href="#Verdana-30"/>
       <use x="63.57421875" xlink:href="#Verdana-2e"/>
       <use x="99.951171875" xlink:href="#Verdana-36"/>
      </g>
     </g>
    </g>
    <g id="ytick_5">
     <g id="line2d_26">
      <g>
       <use style="stroke:#000000;stroke-width:0.5;" x="72.0" xlink:href="#md7965d1ba0" y="112.32"/>
      </g>
     </g>
     <g id="line2d_27">
      <g>
       <use style="stroke:#000000;stroke-width:0.5;" x="518.4" xlink:href="#md9a1c1a7cd" y="112.32"/>
      </g>
     </g>
     <g id="text_12">
      <!-- 0.8 -->
      <defs>
       <path d="
M57.625 20.2656
Q57.625 10.8438 50.2656 4.59375
Q42.9219 -1.65625 31.7812 -1.65625
Q19.9688 -1.65625 12.9531 4.4375
Q5.95312 10.5469 5.95312 20.0625
Q5.95312 26.125 9.46875 31.0312
Q12.9844 35.9375 19.3906 38.8125
L19.3906 39.1094
Q13.5312 42.2344 10.7188 45.9375
Q7.90625 49.6562 7.90625 55.2188
Q7.90625 63.4219 14.6406 68.8906
Q21.3906 74.3594 31.7812 74.3594
Q42.6719 74.3594 49.1719 69.1406
Q55.6719 63.9219 55.6719 55.8594
Q55.6719 50.9219 52.5938 46.1562
Q49.5156 41.4062 43.5625 38.7188
L43.5625 38.4219
Q50.3906 35.5 54 31.2031
Q57.625 26.9062 57.625 20.2656
M46.0469 55.7656
Q46.0469 60.9844 42.0156 64.0781
Q37.9844 67.1875 31.7344 67.1875
Q25.5938 67.1875 21.6562 64.25
Q17.7188 61.3281 17.7188 56.3438
Q17.7188 52.8281 19.7031 50.2656
Q21.6875 47.7031 25.6875 45.7031
Q27.4844 44.8281 30.875 43.4062
Q34.2812 42 37.5 41.0625
Q42.3281 44.2812 44.1875 47.75
Q46.0469 51.2188 46.0469 55.7656
M47.5625 19.3438
Q47.5625 23.8281 45.5781 26.5312
Q43.6094 29.25 37.8438 31.9844
Q35.5469 33.0625 32.8125 33.9844
Q30.0781 34.9062 25.5312 36.5781
Q21.1406 34.1875 18.4844 30.0781
Q15.8281 25.9844 15.8281 20.7969
Q15.8281 14.2031 20.3594 9.90625
Q24.9062 5.60938 31.8906 5.60938
Q39.0156 5.60938 43.2812 9.26562
Q47.5625 12.9375 47.5625 19.3438" id="Verdana-38"/>
      </defs>
      <g transform="translate(49.893125 115.6715625)scale(0.12 -0.12)">
       <use xlink:href="#Verdana-30"/>
       <use x="63.57421875" xlink:href="#Verdana-2e"/>
       <use x="99.951171875" xlink:href="#Verdana-38"/>
      </g>
     </g>
    </g>
    <g id="ytick_6">
     <g id="line2d_28">
      <g>
       <use style="stroke:#000000;stroke-width:0.5;" x="72.0" xlink:href="#md7965d1ba0" y="43.2"/>
      </g>
     </g>
     <g id="line2d_29">
      <g>
       <use style="stroke:#000000;stroke-width:0.5;" x="518.4" xlink:href="#md9a1c1a7cd" y="43.2"/>
      </g>
     </g>
     <g id="text_13">
      <!-- 1.0 -->
      <g transform="translate(50.796875 46.5515625)scale(0.12 -0.12)">
       <use xlink:href="#Verdana-31"/>
       <use x="63.57421875" xlink:href="#Verdana-2e"/>
       <use x="99.951171875" xlink:href="#Verdana-30"/>
      </g>
     </g>
    </g>
    <g id="text_14">
     <!-- Data Profile T-0.0000100 -->
     <defs>
      <path d="
M18.3125 0
L9.125 0
L9.125 75.9844
L18.3125 75.9844
z
" id="Verdana-6c"/>
      <path d="
M43.0625 44.5312
L42.5781 44.5312
Q40.5312 45.0156 38.5938 45.2344
Q36.6719 45.4531 34.0312 45.4531
Q29.7812 45.4531 25.8281 43.5781
Q21.875 41.7031 18.2188 38.7188
L18.2188 0
L9.03125 0
L9.03125 54.5469
L18.2188 54.5469
L18.2188 46.4844
Q23.6875 50.875 27.8594 52.7031
Q32.0312 54.5469 36.375 54.5469
Q38.7656 54.5469 39.8438 54.4219
Q40.9219 54.2969 43.0625 53.9531
z
" id="Verdana-72"/>
      <path d="
M71.1875 36.2812
Q71.1875 26.375 66.8594 18.3125
Q62.5469 10.25 55.375 5.8125
Q50.3906 2.73438 44.2656 1.35938
Q38.1406 0 28.125 0
L9.76562 0
L9.76562 72.7031
L27.9375 72.7031
Q38.5781 72.7031 44.8438 71.1562
Q51.125 69.625 55.4688 66.9375
Q62.8906 62.3125 67.0312 54.5938
Q71.1875 46.875 71.1875 36.2812
M61.0781 36.4219
Q61.0781 44.9688 58.0938 50.8281
Q55.125 56.6875 49.2188 60.0625
Q44.9219 62.5 40.0781 63.4531
Q35.25 64.4062 28.5156 64.4062
L19.4375 64.4062
L19.4375 8.29688
L28.5156 8.29688
Q35.5 8.29688 40.7031 9.32812
Q45.9062 10.3594 50.25 13.1406
Q55.6719 16.6094 58.375 22.2656
Q61.0781 27.9375 61.0781 36.4219" id="Verdana-44"/>
      <path d="
M37.9375 27.3906
L7.46875 27.3906
L7.46875 36.2344
L37.9375 36.2344
z
" id="Verdana-2d"/>
      <path d="
M51.4219 0
L42.2812 0
L42.2812 5.8125
Q41.0625 4.98438 38.9844 3.48438
Q36.9219 2 34.9688 1.125
Q32.6719 0 29.6875 -0.75
Q26.7031 -1.51562 22.7031 -1.51562
Q15.3281 -1.51562 10.2031 3.35938
Q5.07812 8.25 5.07812 15.8281
Q5.07812 22.0156 7.73438 25.8438
Q10.4062 29.6875 15.3281 31.8906
Q20.3125 34.0781 27.2969 34.8594
Q34.2812 35.6406 42.2812 36.0312
L42.2812 37.4531
Q42.2812 40.5781 41.1875 42.625
Q40.0938 44.6719 38.0312 45.8438
Q36.0781 46.9688 33.3438 47.3594
Q30.6094 47.75 27.6406 47.75
Q24.0312 47.75 19.5781 46.7969
Q15.1406 45.8438 10.4062 44.0469
L9.90625 44.0469
L9.90625 53.375
Q12.5938 54.1094 17.6719 54.9844
Q22.75 55.8594 27.6875 55.8594
Q33.4531 55.8594 37.7188 54.9062
Q42 53.9531 45.125 51.6562
Q48.1875 49.4219 49.7969 45.8438
Q51.4219 42.2812 51.4219 37.0156
z

M42.2812 13.4219
L42.2812 28.6094
Q38.0938 28.375 32.3906 27.875
Q26.7031 27.3906 23.3906 26.4688
Q19.4375 25.3438 16.9844 22.9688
Q14.5469 20.6094 14.5469 16.4531
Q14.5469 11.7656 17.375 9.39062
Q20.2188 7.03125 26.0312 7.03125
Q30.8594 7.03125 34.8594 8.90625
Q38.875 10.7969 42.2812 13.4219" id="Verdana-61"/>
      <path d="
M57.3281 50.7344
Q57.3281 45.9062 55.6406 41.7656
Q53.9531 37.6406 50.9219 34.625
Q47.1719 30.8594 42.0469 28.9688
Q36.9219 27.0938 29.1094 27.0938
L19.4375 27.0938
L19.4375 0
L9.76562 0
L9.76562 72.7031
L29.5 72.7031
Q36.0312 72.7031 40.5781 71.6094
Q45.125 70.5156 48.6406 68.1719
Q52.7812 65.375 55.0469 61.2188
Q57.3281 57.0781 57.3281 50.7344
M47.2656 50.4844
Q47.2656 54.25 45.9375 57.0312
Q44.625 59.8125 41.9375 61.5781
Q39.5938 63.0938 36.5938 63.75
Q33.5938 64.4062 29 64.4062
L19.4375 64.4062
L19.4375 35.3594
L27.5938 35.3594
Q33.4531 35.3594 37.1094 36.4062
Q40.7656 37.4531 43.0625 39.75
Q45.3594 42.0938 46.3125 44.6719
Q47.2656 47.2656 47.2656 50.4844" id="Verdana-50"/>
      <path d="
M61.625 64.1094
L35.6406 64.1094
L35.6406 0
L25.9844 0
L25.9844 64.1094
L0 64.1094
L0 72.7031
L61.625 72.7031
z
" id="Verdana-54"/>
     </defs>
     <g transform="translate(42.345 291.493125)rotate(-90.0)scale(0.12 -0.12)">
      <use xlink:href="#Verdana-44"/>
      <use x="77.05078125" xlink:href="#Verdana-61"/>
      <use x="137.109375" xlink:href="#Verdana-74"/>
      <use x="176.513671875" xlink:href="#Verdana-61"/>
      <use x="236.572265625" xlink:href="#Verdana-20"/>
      <use x="271.728515625" xlink:href="#Verdana-50"/>
      <use x="332.03125" xlink:href="#Verdana-72"/>
      <use x="374.70703125" xlink:href="#Verdana-6f"/>
      <use x="435.400390625" xlink:href="#Verdana-66"/>
      <use x="470.556640625" xlink:href="#Verdana-69"/>
      <use x="497.998046875" xlink:href="#Verdana-6c"/>
      <use x="525.439453125" xlink:href="#Verdana-65"/>
      <use x="585.009765625" xlink:href="#Verdana-20"/>
      <use x="620.166015625" xlink:href="#Verdana-54"/>
      <use x="674.412109375" xlink:href="#Verdana-2d"/>
      <use x="719.822265625" xlink:href="#Verdana-30"/>
      <use x="783.396484375" xlink:href="#Verdana-2e"/>
      <use x="819.7734375" xlink:href="#Verdana-30"/>
      <use x="883.34765625" xlink:href="#Verdana-30"/>
      <use x="946.921875" xlink:href="#Verdana-30"/>
      <use x="1010.49609375" xlink:href="#Verdana-30"/>
      <use x="1074.0703125" xlink:href="#Verdana-31"/>
      <use x="1137.64453125" xlink:href="#Verdana-30"/>
      <use x="1201.21875" xlink:href="#Verdana-30"/>
     </g>
    </g>
   </g>
   <g id="patch_3">
    <path d="
M72 388.8
L72 43.2" style="fill:none;stroke:#000000;"/>
   </g>
   <g id="patch_4">
    <path d="
M518.4 388.8
L518.4 43.2" style="fill:none;stroke:#000000;"/>
   </g>
   <g id="patch_5">
    <path d="
M72 388.8
L518.4 388.8" style="fill:none;stroke:#000000;"/>
   </g>
   <g id="patch_6">
    <path d="
M72 43.2
L518.4 43.2" style="fill:none;stroke:#000000;"/>
   </g>
   <g id="text_15">
    <!-- Giunta Data Profile T-0.0000100 -->
    <defs>
     <path d="
M70.4062 5.375
Q64.4531 2.64062 57.3906 0.609375
Q50.3438 -1.42188 43.75 -1.42188
Q35.25 -1.42188 28.1719 0.921875
Q21.0938 3.26562 16.1094 7.95312
Q11.0781 12.7031 8.34375 19.7969
Q5.60938 26.9062 5.60938 36.4219
Q5.60938 53.8594 15.7969 63.9375
Q25.9844 74.0312 43.75 74.0312
Q49.9531 74.0312 56.4219 72.5312
Q62.8906 71.0469 70.3594 67.4844
L70.3594 56
L69.4844 56
Q67.9688 57.1719 65.0781 59.0781
Q62.2031 60.9844 59.4219 62.25
Q56.0625 63.7656 51.7812 64.7656
Q47.5156 65.7656 42.0938 65.7656
Q29.8906 65.7656 22.7812 57.9219
Q15.6719 50.0938 15.6719 36.7188
Q15.6719 22.6094 23.0938 14.7656
Q30.5156 6.9375 43.3125 6.9375
Q48 6.9375 52.6562 7.85938
Q57.3281 8.79688 60.8438 10.25
L60.8438 28.0781
L41.3594 28.0781
L41.3594 36.5781
L70.4062 36.5781
z
" id="Verdana-47"/>
    </defs>
    <g transform="translate(178.243875 38.2)scale(0.144 -0.144)">
     <use xlink:href="#Verdana-47"/>
     <use x="77.5390625" xlink:href="#Verdana-69"/>
     <use x="104.98046875" xlink:href="#Verdana-75"/>
     <use x="168.26171875" xlink:href="#Verdana-6e"/>
     <use x="231.54296875" xlink:href="#Verdana-74"/>
     <use x="270.947265625" xlink:href="#Verdana-61"/>
     <use x="331.005859375" xlink:href="#Verdana-20"/>
     <use x="366.162109375" xlink:href="#Verdana-44"/>
     <use x="443.212890625" xlink:href="#Verdana-61"/>
     <use x="503.271484375" xlink:href="#Verdana-74"/>
     <use x="542.67578125" xlink:href="#Verdana-61"/>
     <use x="602.734375" xlink:href="#Verdana-20"/>
     <use x="637.890625" xlink:href="#Verdana-50"/>
     <use x="698.193359375" xlink:href="#Verdana-72"/>
     <use x="740.869140625" xlink:href="#Verdana-6f"/>
     <use x="801.5625" xlink:href="#Verdana-66"/>
     <use x="836.71875" xlink:href="#Verdana-69"/>
     <use x="864.16015625" xlink:href="#Verdana-6c"/>
     <use x="891.6015625" xlink:href="#Verdana-65"/>
     <use x="951.171875" xlink:href="#Verdana-20"/>
     <use x="986.328125" xlink:href="#Verdana-54"/>
     <use x="1040.57421875" xlink:href="#Verdana-2d"/>
     <use x="1085.984375" xlink:href="#Verdana-30"/>
     <use x="1149.55859375" xlink:href="#Verdana-2e"/>
     <use x="1185.935546875" xlink:href="#Verdana-30"/>
     <use x="1249.509765625" xlink:href="#Verdana-30"/>
     <use x="1313.083984375" xlink:href="#Verdana-30"/>
     <use x="1376.658203125" xlink:href="#Verdana-30"/>
     <use x="1440.232421875" xlink:href="#Verdana-31"/>
     <use x="1503.806640625" xlink:href="#Verdana-30"/>
     <use x="1567.380859375" xlink:href="#Verdana-30"/>
    </g>
   </g>
   <g id="legend_1">
    <g id="patch_7">
     <path d="
M79.2 159.919
L183.22 159.919
L183.22 50.4
L79.2 50.4
L79.2 159.919
z
" style="fill:#ffffff;stroke:#000000;"/>
    </g>
    <g id="line2d_30">
     <path d="
M89.28 62.0617
L109.44 62.0617" style="fill:none;stroke:#0000ff;stroke-dasharray:6.000000,2.000000;stroke-dashoffset:0.0;"/>
    </g>
    <g id="line2d_31"/>
    <g id="text_16">
     <!-- AMPGO -->
     <defs>
      <path d="
M67.0938 0
L56.7812 0
L49.6562 20.2656
L18.2188 20.2656
L11.0781 0
L1.26562 0
L27.7344 72.7031
L40.625 72.7031
z

M46.6875 28.5625
L33.9375 64.2656
L21.1406 28.5625
z
" id="Verdana-41"/>
      <path d="
M74.5156 0
L64.8438 0
L64.8438 62.6406
L44.625 20.0156
L38.875 20.0156
L18.7969 62.6406
L18.7969 0
L9.76562 0
L9.76562 72.7031
L22.9531 72.7031
L42.3281 32.2344
L61.0781 72.7031
L74.5156 72.7031
z
" id="Verdana-4d"/>
     </defs>
     <g transform="translate(125.28 67.10175)scale(0.144 -0.144)">
      <use xlink:href="#Verdana-41"/>
      <use x="68.359375" xlink:href="#Verdana-4d"/>
      <use x="152.63671875" xlink:href="#Verdana-50"/>
      <use x="212.939453125" xlink:href="#Verdana-47"/>
      <use x="290.478515625" xlink:href="#Verdana-4f"/>
     </g>
    </g>
    <g id="line2d_32">
     <path d="
M89.28 83.1015
L109.44 83.1015" style="fill:none;stroke:#008000;stroke-dasharray:1.000000,1.000000;stroke-dashoffset:0.0;"/>
    </g>
    <g id="line2d_33"/>
    <g id="text_17">
     <!-- Anneal -->
     <g transform="translate(125.28 88.1415)scale(0.144 -0.144)">
      <use xlink:href="#Verdana-41"/>
      <use x="68.359375" xlink:href="#Verdana-6e"/>
      <use x="131.640625" xlink:href="#Verdana-6e"/>
      <use x="194.921875" xlink:href="#Verdana-65"/>
      <use x="254.4921875" xlink:href="#Verdana-61"/>
      <use x="314.55078125" xlink:href="#Verdana-6c"/>
     </g>
    </g>
    <g id="line2d_34">
     <path d="
M89.28 104.141
L109.44 104.141" style="fill:none;stroke:#ff0000;stroke-dasharray:3.000000,6.000000;stroke-dashoffset:0.0;"/>
    </g>
    <g id="line2d_35"/>
    <g id="text_18">
     <!-- BSA -->
     <defs>
      <path d="
M62.5938 20.75
Q62.5938 16.5 60.6094 12.3438
Q58.6406 8.20312 55.0781 5.32812
Q51.1719 2.20312 45.9688 0.4375
Q40.7656 -1.3125 33.4531 -1.3125
Q25.5938 -1.3125 19.3125 0.140625
Q13.0312 1.60938 6.54688 4.5
L6.54688 16.6094
L7.23438 16.6094
Q12.75 12.0156 19.9688 9.51562
Q27.2031 7.03125 33.5469 7.03125
Q42.5312 7.03125 47.5312 10.3906
Q52.5469 13.7656 52.5469 19.3906
Q52.5469 24.2188 50.1719 26.5156
Q47.7969 28.8125 42.9688 30.0781
Q39.3125 31.0625 35.0312 31.6875
Q30.7656 32.3281 25.9844 33.2969
Q16.3125 35.3594 11.6406 40.3125
Q6.98438 45.2656 6.98438 53.2188
Q6.98438 62.3594 14.6875 68.1875
Q22.4062 74.0312 34.2812 74.0312
Q41.9375 74.0312 48.3281 72.5625
Q54.7344 71.0938 59.6719 68.9531
L59.6719 57.5156
L58.9844 57.5156
Q54.8281 61.0312 48.0625 63.3438
Q41.3125 65.6719 34.2344 65.6719
Q26.4688 65.6719 21.75 62.4531
Q17.0469 59.2344 17.0469 54.1562
Q17.0469 49.6094 19.3906 47.0156
Q21.7344 44.4375 27.6406 43.0625
Q30.7656 42.3906 36.5156 41.4062
Q42.2812 40.4375 46.2969 39.4062
Q54.3906 37.25 58.4844 32.9062
Q62.5938 28.5625 62.5938 20.75" id="Verdana-53"/>
      <path d="
M64.5938 22.3594
Q64.5938 16.9375 62.5469 12.7812
Q60.5 8.64062 57.0312 5.95312
Q52.9375 2.73438 48.0156 1.35938
Q43.1094 0 35.5469 0
L9.76562 0
L9.76562 72.7031
L31.2969 72.7031
Q39.2656 72.7031 43.2188 72.1094
Q47.1719 71.5312 50.7812 69.6719
Q54.7812 67.5781 56.5938 64.2812
Q58.4062 60.9844 58.4062 56.3906
Q58.4062 51.2188 55.7656 47.5781
Q53.125 43.9531 48.7344 41.75
L48.7344 41.3594
Q56.1094 39.8438 60.3438 34.8906
Q64.5938 29.9375 64.5938 22.3594
M48.3438 55.125
Q48.3438 57.7656 47.4531 59.5625
Q46.5781 61.375 44.625 62.5
Q42.3281 63.8125 39.0625 64.125
Q35.7969 64.4531 30.9531 64.4531
L19.4375 64.4531
L19.4375 43.4531
L31.9375 43.4531
Q36.4688 43.4531 39.1562 43.9219
Q41.8438 44.3906 44.1406 45.8438
Q46.4375 47.3125 47.3906 49.625
Q48.3438 51.9531 48.3438 55.125
M54.5469 21.9688
Q54.5469 26.375 53.2188 28.9531
Q51.9062 31.5469 48.4375 33.3438
Q46.0938 34.5781 42.75 34.9375
Q39.4062 35.2969 34.625 35.2969
L19.4375 35.2969
L19.4375 8.25
L32.2344 8.25
Q38.5781 8.25 42.625 8.90625
Q46.6875 9.57812 49.2656 11.3281
Q52 13.2344 53.2656 15.6719
Q54.5469 18.1094 54.5469 21.9688" id="Verdana-42"/>
     </defs>
     <g transform="translate(125.28 109.18125)scale(0.144 -0.144)">
      <use xlink:href="#Verdana-42"/>
      <use x="68.5546875" xlink:href="#Verdana-53"/>
      <use x="135.9140625" xlink:href="#Verdana-41"/>
     </g>
    </g>
    <g id="line2d_36">
     <path d="
M89.28 125.181
L109.44 125.181" style="fill:none;stroke:#00bfbf;stroke-dasharray:5.000000,1.000000,2.000000,1.000000,5.000000,1.000000;stroke-dashoffset:0.0;"/>
    </g>
    <g id="line2d_37"/>
    <g id="text_19">
     <!-- Cuckoo -->
     <defs>
      <path d="
M58.5469 0
L46.4375 0
L24.5625 23.875
L18.6094 18.2188
L18.6094 0
L9.42188 0
L9.42188 75.9844
L18.6094 75.9844
L18.6094 27.25
L45.125 54.5469
L56.6875 54.5469
L31.3438 29.3438
z
" id="Verdana-6b"/>
      <path d="
M65.9219 5.28125
Q63.2344 4.10938 61.0625 3.07812
Q58.8906 2.04688 55.375 0.921875
Q52.3906 0 48.8906 -0.65625
Q45.4062 -1.3125 41.2188 -1.3125
Q33.2969 -1.3125 26.8281 0.90625
Q20.3594 3.125 15.5781 7.85938
Q10.8906 12.5 8.25 19.6562
Q5.60938 26.8125 5.60938 36.2812
Q5.60938 45.2656 8.14062 52.3438
Q10.6875 59.4219 15.4844 64.3125
Q20.125 69.0469 26.6875 71.5312
Q33.25 74.0312 41.2656 74.0312
Q47.125 74.0312 52.9531 72.6094
Q58.7969 71.1875 65.9219 67.625
L65.9219 56.1562
L65.1875 56.1562
Q59.1875 61.1875 53.2656 63.4688
Q47.3594 65.7656 40.625 65.7656
Q35.1094 65.7656 30.6875 63.9844
Q26.2656 62.2031 22.7969 58.4531
Q19.4375 54.7812 17.5469 49.1875
Q15.6719 43.6094 15.6719 36.2812
Q15.6719 28.6094 17.75 23.0938
Q19.8281 17.5781 23.0938 14.1094
Q26.5156 10.5 31.0781 8.76562
Q35.6406 7.03125 40.7188 7.03125
Q47.7031 7.03125 53.7969 9.42188
Q59.9062 11.8125 65.2344 16.6094
L65.9219 16.6094
z
" id="Verdana-43"/>
     </defs>
     <g transform="translate(125.28 130.221)scale(0.144 -0.144)">
      <use xlink:href="#Verdana-43"/>
      <use x="69.82421875" xlink:href="#Verdana-75"/>
      <use x="133.10546875" xlink:href="#Verdana-63"/>
      <use x="185.205078125" xlink:href="#Verdana-6b"/>
      <use x="243.384765625" xlink:href="#Verdana-6f"/>
      <use x="304.078125" xlink:href="#Verdana-6f"/>
     </g>
    </g>
    <g id="line2d_38">
     <path d="
M89.28 146.221
L109.44 146.221" style="fill:none;stroke:#bf00bf;stroke-linecap:square;"/>
    </g>
    <g id="line2d_39"/>
    <g id="text_20">
     <!-- qABC -->
     <defs>
      <path d="
M53.2656 -20.125
L44.0938 -20.125
L44.0938 6.15625
Q39.8438 2.48438 35.6406 0.703125
Q31.4531 -1.07812 26.5625 -1.07812
Q16.8438 -1.07812 11.0625 6.42188
Q5.28125 13.9219 5.28125 27.0938
Q5.28125 34.125 7.29688 39.5156
Q9.32812 44.9219 12.6406 48.5781
Q15.875 52.1562 20.2188 54.1094
Q24.5625 56.0625 29.3906 56.0625
Q33.7969 56.0625 37.1875 55.0781
Q40.5781 54.1094 44.0938 52.2031
L44.6719 54.5469
L53.2656 54.5469
z

M44.0938 13.875
L44.0938 44.7344
Q40.2812 46.4375 37.3438 47.1094
Q34.4219 47.7969 31 47.7969
Q23.0469 47.7969 18.8906 42.4062
Q14.75 37.0156 14.75 27.5469
Q14.75 17.9688 18.0938 12.8125
Q21.4375 7.67188 28.6094 7.67188
Q32.625 7.67188 36.625 9.40625
Q40.625 11.1406 44.0938 13.875" id="Verdana-71"/>
     </defs>
     <g transform="translate(125.28 151.26075)scale(0.144 -0.144)">
      <use xlink:href="#Verdana-71"/>
      <use x="62.3046875" xlink:href="#Verdana-41"/>
      <use x="130.6640625" xlink:href="#Verdana-42"/>
      <use x="199.21875" xlink:href="#Verdana-43"/>
     </g>
    </g>
   </g>
  </g>
 </g>
 <defs>
  <clipPath id="p7ff5b81e1d">
   <rect height="345.6" width="446.4" x="72.0" y="43.2"/>
  </clipPath>
 </defs>
</svg>
