<?xml version="1.0" encoding="utf-8" standalone="no"?>
<!DOCTYPE svg PUBLIC "-//W3C//DTD SVG 1.1//EN"
  "http://www.w3.org/Graphics/SVG/1.1/DTD/svg11.dtd">
<!-- Created with matplotlib (http://matplotlib.org/) -->
<svg height="432pt" version="1.1" viewBox="0 0 576 432" width="576pt" xmlns="http://www.w3.org/2000/svg" xmlns:xlink="http://www.w3.org/1999/xlink">
 <defs>
  <style type="text/css">
*{stroke-linecap:butt;stroke-linejoin:round;}
  </style>
 </defs>
 <g id="figure_1">
  <g id="patch_1">
   <path d="
M0 432
L576 432
L576 0
L0 0
z
" style="fill:#ffffff;"/>
  </g>
  <g id="axes_1">
   <g id="patch_2">
    <path d="
M72 388.8
L518.4 388.8
L518.4 43.2
L72 43.2
z
" style="fill:#ffffff;"/>
   </g>
   <g id="line2d_1">
    <path clip-path="url(#p7ff5b81e1d)" d="
M72 388.617
L72.0893 388.8
L72.1786 388.8
L73.7856 388.8
L73.9642 388.617
L75.5712 388.617
L75.7498 387.52
L76.464 387.52
L76.6426 386.24
L77.3568 386.24
L77.5354 381.851
L78.2496 381.851
L78.4282 377.646
L79.1424 377.646
L79.321 372.891
L80.0352 372.891
L80.2138 368.686
L80.928 368.686
L81.1066 366.674
L81.8208 366.674
L81.9994 364.846
L82.7136 364.846
L82.8922 363.383
L83.6064 363.383
L83.785 363.2
L84.4992 363.2
L84.6778 362.469
L85.392 362.469
L85.5706 362.286
L86.2848 362.286
L86.4634 362.103
L88.0704 362.103
L88.249 361.92
L89.856 361.92
L90.0346 361.737
L90.7488 361.737
L90.9274 361.371
L175.297 361.371
L175.476 361.189
L233.775 361.189
L233.954 361.006
L518.311 361.006
L518.311 361.006" style="fill:none;stroke:#0000ff;stroke-dasharray:6.000000,2.000000;stroke-dashoffset:0.0;"/>
   </g>
   <g id="line2d_2">
    <path clip-path="url(#p7ff5b81e1d)" d="
M72 388.8
L72.0893 388.525
L72.1786 388.525
L72.2678 388.525
L72.4464 388.8
L72.5357 388.8
L72.625 388.525
L72.8035 388.8
L86.017 388.8
L86.1955 388.525
L86.8205 388.525
L86.999 388.251
L88.6954 388.251
L89.0525 387.426
L89.231 387.426
L89.4989 386.877
L89.856 386.877
L90.0346 386.328
L90.3917 385.503
L90.481 385.503
L90.7488 384.954
L90.8381 384.954
L91.1059 384.13
L91.2845 383.306
L91.3738 383.306
L92.088 380.833
L92.2666 380.009
L92.6237 380.009
L93.8736 375.888
L94.5878 372.042
L94.6771 372.042
L95.3021 368.471
L95.3914 368.471
L95.5699 367.646
L95.7485 367.097
L95.8378 366.822
L96.0163 365.449
L96.1056 365.449
L96.3734 364.35
L96.7306 361.603
L96.9984 359.405
L97.3555 358.581
L97.9805 351.987
L98.159 351.163
L98.5162 345.669
L98.9626 342.372
L99.4982 337.702
L99.6768 334.68
L100.57 327.262
L100.927 324.515
L101.462 318.746
L101.998 312.153
L102.444 307.757
L102.98 303.911
L103.694 294.296
L103.784 293.746
L103.962 291.274
L104.052 291.274
L104.944 283.307
L105.034 283.307
L105.48 280.01
L105.569 279.461
L106.016 273.142
L106.462 267.922
L107.891 255.56
L108.248 254.461
L108.605 248.967
L108.694 248.692
L108.962 245.945
L110.569 231.659
L110.658 231.384
L111.372 225.341
L111.462 225.341
L111.64 224.791
L111.73 224.516
L111.997 222.044
L112.176 221.22
L112.355 220.396
L112.444 220.396
L112.622 218.472
L112.89 217.374
L112.98 217.374
L113.426 215.176
L113.515 214.901
L113.783 212.703
L113.872 212.703
L114.14 211.33
L114.229 211.33
L114.319 211.055
L114.676 207.758
L114.854 207.758
L115.658 205.561
L115.747 205.561
L115.926 204.736
L116.194 203.363
L116.283 203.363
L116.551 201.989
L116.908 201.989
L117.176 199.517
L117.265 199.517
L117.711 197.319
L118.426 194.846
L118.604 194.297
L119.14 192.923
L119.229 192.923
L120.836 187.704
L121.015 186.605
L121.193 186.33
L121.283 186.33
L121.55 185.231
L121.818 183.583
L121.908 183.583
L122.086 183.308
L122.175 183.308
L122.8 181.66
L122.89 181.66
L123.068 180.836
L123.157 180.836
L123.425 180.286
L123.693 180.286
L123.782 180.011
L123.961 178.913
L124.05 178.913
L124.318 178.363
L124.497 178.363
L124.675 178.088
L124.854 178.088
L125.211 177.264
L125.3 177.264
L125.479 176.99
L125.568 176.99
L125.747 176.715
L125.836 176.715
L126.193 175.891
L126.372 175.891
L126.818 174.242
L127.086 173.143
L127.264 173.143
L127.443 172.869
L127.532 172.869
L127.889 172.045
L127.979 172.045
L128.157 171.22
L128.336 171.22
L128.604 170.671
L128.693 170.671
L128.961 170.121
L129.139 170.121
L129.407 169.023
L129.496 169.023
L129.853 168.198
L130.121 168.198
L130.389 167.649
L130.478 167.649
L130.657 166.825
L130.925 166.825
L131.371 165.726
L131.46 165.726
L132.175 163.803
L132.264 163.803
L132.532 163.253
L132.8 163.253
L133.068 161.88
L133.603 161.88
L133.782 161.605
L134.764 161.605
L134.942 161.33
L135.21 161.33
L135.657 159.133
L135.746 159.133
L136.014 158.583
L136.103 158.583
L136.549 157.484
L136.639 157.484
L136.817 157.21
L136.907 157.21
L137.085 156.935
L137.174 156.935
L137.532 156.111
L137.799 156.111
L138.067 155.561
L138.156 155.561
L138.603 154.462
L138.871 154.462
L139.049 154.188
L139.228 154.188
L139.406 153.913
L139.942 153.913
L140.299 153.089
L140.478 153.089
L140.835 151.166
L140.924 151.166
L141.192 150.616
L141.728 150.616
L142.263 149.243
L142.353 149.243
L143.156 147.045
L143.603 147.045
L143.87 146.495
L144.138 146.495
L144.317 146.221
L144.406 146.221
L144.585 145.946
L144.763 145.946
L145.031 145.397
L145.12 145.397
L145.299 145.122
L146.281 145.122
L146.46 144.847
L146.638 144.847
L146.817 144.572
L147.442 144.572
L147.62 144.298
L147.977 144.298
L148.156 144.023
L148.424 144.023
L148.602 143.748
L149.138 143.748
L149.406 143.199
L149.674 143.199
L149.852 142.649
L150.031 142.649
L150.209 142.375
L150.924 142.375
L151.102 142.1
L151.638 142.1
L151.906 141.55
L152.888 141.55
L153.066 141.276
L153.513 141.276
L153.78 140.177
L153.959 139.902
L154.048 139.902
L154.227 139.627
L154.316 139.627
L154.673 138.803
L154.763 138.803
L154.941 138.528
L155.298 138.528
L155.477 138.254
L155.655 138.254
L155.834 137.979
L156.28 137.979
L156.459 137.704
L156.548 137.704
L156.727 137.43
L157.173 137.43
L157.352 137.155
L157.62 137.155
L157.798 136.88
L157.977 136.88
L158.155 136.605
L158.512 136.605
L158.691 136.331
L159.494 136.331
L159.673 136.056
L159.762 136.056
L159.941 135.507
L160.566 133.858
L160.744 133.858
L161.101 133.034
L161.191 133.034
L161.369 132.759
L161.637 132.759
L161.994 131.935
L162.262 131.935
L162.441 131.111
L162.708 131.111
L162.887 130.836
L162.976 130.836
L163.155 130.562
L163.244 130.562
L163.512 130.012
L164.494 130.012
L164.673 129.737
L164.94 129.737
L165.208 129.188
L165.387 129.188
L165.655 128.638
L166.19 128.638
L166.369 128.364
L166.815 128.364
L166.994 128.089
L167.44 128.089
L167.619 127.814
L167.708 127.814
L167.976 127.265
L168.422 127.265
L168.601 126.99
L168.869 126.99
L169.047 126.441
L170.476 126.441
L170.654 126.166
L172.083 126.166
L172.261 125.891
L172.351 125.891
L172.708 125.067
L173.601 125.067
L173.779 124.792
L173.958 124.792
L174.136 124.518
L175.029 124.518
L175.208 124.243
L175.386 124.243
L175.565 123.968
L176.279 123.968
L176.458 123.693
L176.725 123.693
L176.904 123.419
L177.261 123.419
L177.44 123.144
L178.422 123.144
L178.779 122.32
L178.868 122.32
L179.136 121.77
L179.225 121.77
L179.404 121.496
L179.582 121.496
L179.85 120.946
L180.832 120.946
L181.011 120.672
L181.189 120.672
L181.368 120.122
L181.547 120.122
L181.725 119.847
L181.814 119.847
L181.993 119.573
L182.35 119.573
L182.529 119.298
L182.707 119.298
L182.975 118.748
L183.154 118.748
L183.332 118.474
L183.868 118.474
L184.046 118.199
L184.939 118.199
L185.118 117.924
L185.564 117.924
L185.832 117.375
L186.278 117.375
L186.457 117.1
L187.082 117.1
L187.26 116.825
L187.618 116.825
L187.796 116.551
L188.064 116.551
L188.243 116.001
L188.51 116.001
L188.689 115.727
L189.76 115.727
L190.028 115.177
L194.403 115.177
L194.581 114.628
L194.849 114.628
L195.028 114.353
L196.01 114.353
L196.188 113.803
L197.796 113.803
L197.974 113.529
L198.153 113.529
L198.51 112.705
L199.313 112.705
L199.492 112.43
L200.028 112.43
L200.206 112.155
L201.813 112.155
L201.992 111.606
L202.617 111.606
L202.884 111.056
L203.152 111.056
L203.331 110.782
L204.402 110.782
L204.581 110.507
L205.295 110.507
L205.474 109.957
L205.92 109.957
L206.099 109.408
L207.795 109.408
L207.973 109.133
L208.063 109.133
L208.241 108.859
L209.491 108.859
L209.759 108.309
L209.848 108.309
L210.027 108.034
L210.741 108.034
L210.92 107.76
L211.009 107.76
L211.277 107.21
L211.723 107.21
L211.902 106.935
L212.08 106.935
L212.259 106.661
L213.062 106.661
L213.241 106.386
L214.223 106.386
L214.402 106.111
L215.294 106.111
L215.473 105.837
L217.705 105.837
L217.884 105.562
L218.419 105.562
L218.598 105.287
L219.044 105.287
L219.223 105.012
L220.74 105.012
L220.919 104.738
L221.187 104.738
L221.365 104.463
L221.99 104.463
L222.169 104.188
L224.312 104.188
L224.58 103.639
L225.115 103.639
L225.294 103.364
L225.829 103.364
L226.008 103.089
L226.187 103.089
L226.365 102.815
L227.436 102.815
L227.615 102.54
L227.972 102.54
L228.151 102.265
L228.419 102.265
L228.597 101.99
L230.472 101.99
L230.651 101.716
L232.704 101.716
L232.883 101.441
L233.418 101.441
L233.597 101.166
L234.043 101.166
L234.222 100.892
L235.115 100.892
L235.293 100.342
L237.257 100.342
L237.525 99.7927
L239.132 99.7927
L239.311 99.2432
L241.096 99.2432
L241.275 98.9685
L241.989 98.9685
L242.168 98.6938
L244.578 98.6938
L244.757 98.4191
L244.846 98.4191
L245.025 98.1444
L246.9 98.1444
L247.078 97.8696
L248.328 97.8696
L248.507 97.5949
L249.489 97.5949
L249.667 97.3202
L250.471 97.3202
L250.828 96.496
L251.631 96.496
L251.81 96.2213
L252.256 96.2213
L252.435 95.9466
L253.506 95.9466
L253.774 95.3971
L254.22 95.3971
L254.399 95.1224
L255.56 95.1224
L255.828 94.573
L258.506 94.573
L258.684 94.2983
L263.148 94.2983
L263.327 93.7488
L263.684 93.7488
L263.863 93.4741
L264.934 93.4741
L265.113 93.1994
L265.738 93.1994
L265.916 92.9246
L266.541 92.9246
L266.72 92.6499
L269.309 92.6499
L269.577 92.1005
L272.255 92.1005
L272.434 91.8258
L272.612 91.8258
L272.791 91.2763
L273.326 91.2763
L273.505 91.0016
L276.63 91.0016
L276.808 90.7269
L277.88 90.7269
L278.058 90.4521
L278.237 90.4521
L278.415 90.1774
L280.38 90.1774
L280.558 89.9027
L281.54 89.9027
L281.719 89.628
L283.415 89.628
L283.594 89.3533
L284.308 89.3533
L284.486 89.0785
L285.111 89.0785
L285.29 88.8038
L285.826 88.8038
L286.004 88.2544
L287.076 88.2544
L287.254 87.9797
L287.79 87.9797
L287.968 87.7049
L291.272 87.7049
L291.45 87.4302
L294.754 87.4302
L294.932 87.1555
L295.021 87.1555
L295.2 86.606
L296.004 86.606
L296.182 86.3313
L301.271 86.3313
L301.45 86.0566
L304.039 86.0566
L304.217 85.5072
L305.289 85.5072
L305.467 85.2324
L306.449 85.2324
L306.628 84.9577
L308.681 84.9577
L308.86 84.683
L309.485 84.683
L309.663 84.4083
L311.181 84.4083
L311.36 84.1335
L314.127 84.1335
L314.306 83.8588
L315.02 83.8588
L315.199 83.5841
L318.502 83.5841
L318.681 83.3094
L319.216 83.3094
L319.395 83.0347
L321.538 83.0347
L321.716 82.7599
L323.412 82.7599
L323.591 82.4852
L324.037 82.4852
L324.216 82.2105
L326.627 82.2105
L326.805 81.9358
L328.144 81.9358
L328.323 81.661
L330.019 81.661
L330.198 81.3863
L331.716 81.3863
L331.894 81.1116
L334.215 81.1116
L334.394 80.8369
L337.429 80.8369
L337.608 80.5622
L338.322 80.5622
L338.501 80.2874
L344.215 80.2874
L344.393 80.0127
L344.929 80.0127
L345.108 79.738
L346.268 79.738
L346.536 79.1886
L349.839 79.1886
L350.018 78.9138
L350.196 78.9138
L350.375 78.6391
L353.232 78.6391
L353.411 78.3644
L354.393 78.3644
L354.571 78.0897
L355.196 78.0897
L355.375 77.8149
L361.267 77.8149
L361.446 77.5402
L365.285 77.5402
L365.463 77.2655
L369.124 77.2655
L369.302 76.9908
L372.07 76.9908
L372.249 76.7161
L375.016 76.7161
L375.195 76.4413
L376.98 76.4413
L377.159 76.1666
L378.23 76.1666
L378.409 75.8919
L378.945 75.8919
L379.123 75.6172
L381.177 75.6172
L381.355 75.3424
L381.534 75.3424
L381.712 75.0677
L381.802 75.0677
L381.98 74.793
L382.427 74.793
L382.605 74.5183
L383.766 74.5183
L383.944 74.2436
L390.462 74.2436
L390.64 73.9688
L397.872 73.9688
L398.051 73.6941
L403.05 73.6941
L403.229 73.4194
L404.3 73.4194
L404.479 73.1447
L406.532 73.1447
L406.711 72.87
L408.407 72.87
L408.586 72.5952
L423.049 72.5952
L423.228 72.3205
L424.745 72.3205
L424.924 72.0458
L435.459 72.0458
L435.637 71.7711
L436.084 71.7711
L436.262 71.4963
L444.03 71.4963
L444.208 71.2216
L444.387 71.2216
L444.565 70.9469
L450.279 70.9469
L450.458 70.6722
L455.19 70.6722
L455.368 70.3975
L465.903 70.3975
L466.082 70.1227
L467.064 70.1227
L467.243 69.848
L471.974 69.848
L472.153 69.5733
L483.759 69.5733
L483.938 69.2986
L492.777 69.2986
L493.044 68.7491
L497.419 68.7491
L497.598 68.4744
L502.33 68.4744
L502.597 67.925
L502.687 67.925
L502.865 67.6502
L508.758 67.6502
L508.936 67.3755
L516.257 67.3755
L516.436 67.1008
L518.311 67.1008
L518.311 67.1008" style="fill:none;stroke:#008000;stroke-dasharray:1.000000,1.000000;stroke-dashoffset:0.0;"/>
   </g>
   <g id="line2d_3">
    <path clip-path="url(#p7ff5b81e1d)" d="
M72 388.8
L72.2678 388.8
L72.4464 388.11
L72.5357 388.11
L72.7142 388.8
L245.203 388.8
L245.382 388.11
L246.185 388.11
L246.364 387.42
L260.292 387.42
L260.47 386.731
L263.416 386.731
L263.595 386.041
L264.488 386.041
L264.666 385.351
L266.184 385.351
L266.363 384.661
L266.988 384.661
L267.166 383.281
L268.862 383.281
L269.041 382.592
L270.112 382.592
L270.291 381.902
L270.559 381.902
L270.737 381.212
L274.755 381.212
L274.933 380.522
L276.898 380.522
L277.076 379.832
L280.469 379.832
L280.647 379.143
L281.272 379.143
L281.451 378.453
L282.076 378.453
L282.254 377.763
L282.79 377.763
L282.969 377.073
L285.111 377.073
L285.29 376.383
L285.915 376.383
L286.093 375.693
L286.183 375.693
L286.361 375.004
L287.254 375.004
L287.522 373.624
L288.236 373.624
L288.415 372.934
L288.95 372.934
L289.129 372.244
L289.486 372.244
L289.665 371.554
L290.379 371.554
L290.557 370.865
L291.45 370.865
L291.629 370.175
L293.772 370.175
L293.95 369.485
L294.129 369.485
L294.307 368.795
L296.182 368.795
L296.361 368.105
L296.896 368.105
L297.075 367.416
L297.253 367.416
L297.521 366.036
L297.7 366.036
L297.878 365.346
L298.593 365.346
L298.771 363.966
L298.95 363.966
L299.128 363.277
L301.003 363.277
L301.271 361.897
L302.075 361.897
L302.342 360.517
L302.61 360.517
L302.878 356.378
L302.967 356.378
L303.146 355.689
L303.86 355.689
L304.039 354.999
L304.485 354.999
L304.932 352.24
L305.556 352.24
L305.735 351.55
L306.806 351.55
L306.985 350.86
L307.164 350.86
L307.342 350.17
L307.431 350.17
L307.61 349.48
L307.699 349.48
L308.056 347.411
L308.146 347.411
L308.324 346.721
L308.771 346.721
L309.128 344.651
L309.753 344.651
L309.931 343.962
L310.02 343.962
L310.199 343.272
L311.181 343.272
L311.36 342.582
L311.538 342.582
L311.717 341.892
L311.895 341.892
L312.074 341.202
L312.163 341.202
L312.431 339.823
L313.056 339.823
L313.235 338.443
L313.502 337.063
L313.77 337.063
L314.038 335.684
L314.306 335.684
L314.484 333.614
L314.752 333.614
L314.931 332.925
L315.109 332.925
L315.377 331.545
L316.181 331.545
L316.538 329.475
L318.145 329.475
L318.324 328.786
L318.591 328.786
L318.77 328.096
L318.948 328.096
L319.395 325.337
L320.198 325.337
L320.556 323.267
L321.091 323.267
L321.27 322.577
L321.448 322.577
L321.627 321.198
L321.805 320.508
L322.073 320.508
L322.252 319.818
L322.609 319.818
L322.788 319.128
L322.966 319.128
L323.145 318.438
L323.859 318.438
L324.127 317.059
L324.216 317.059
L324.395 316.369
L324.484 316.369
L324.752 314.989
L325.377 314.989
L325.555 314.299
L325.644 314.299
L325.912 312.92
L326.537 312.92
L326.716 312.23
L327.073 312.23
L327.252 311.54
L327.698 311.54
L327.876 310.85
L328.144 310.85
L328.68 307.401
L328.948 307.401
L329.126 306.711
L329.484 306.711
L329.662 306.022
L329.751 306.022
L330.108 303.952
L330.198 303.952
L330.376 303.262
L331.091 303.262
L331.269 302.572
L331.983 302.572
L332.162 301.883
L332.34 301.883
L332.519 301.193
L332.698 301.193
L332.876 299.813
L333.144 298.434
L333.323 298.434
L333.501 297.744
L333.59 297.744
L333.858 296.364
L334.305 296.364
L334.572 294.984
L334.751 294.984
L334.93 294.295
L335.108 294.295
L335.376 292.915
L336.715 292.915
L337.072 290.846
L337.162 290.846
L337.429 289.466
L337.608 289.466
L337.787 288.776
L337.965 288.776
L338.679 283.947
L339.751 283.947
L339.929 281.878
L340.108 281.188
L340.644 281.188
L340.822 280.498
L341.09 280.498
L341.358 279.119
L341.893 279.119
L342.161 277.739
L342.34 277.739
L342.518 277.049
L342.697 277.049
L342.876 275.669
L342.965 275.669
L343.143 274.98
L343.411 274.98
L343.679 273.6
L343.858 273.6
L344.036 272.91
L344.215 272.91
L344.661 270.151
L345.465 270.151
L345.732 268.771
L345.911 268.771
L346.09 268.081
L346.447 268.081
L346.893 265.322
L346.982 265.322
L347.34 263.253
L347.429 263.253
L348.054 259.114
L348.5 259.114
L348.768 257.734
L348.857 257.734
L349.036 257.044
L349.393 257.044
L349.482 256.354
L349.661 253.595
L349.75 253.595
L349.929 252.216
L350.018 252.216
L350.464 249.456
L350.554 249.456
L350.821 248.077
L352.25 248.077
L352.428 246.697
L352.607 246.697
L352.786 245.317
L353.053 245.317
L353.232 243.938
L353.321 243.938
L353.589 242.558
L353.946 242.558
L354.125 241.868
L354.839 241.868
L355.018 240.489
L355.464 240.489
L355.821 238.419
L356 238.419
L356.178 237.729
L356.268 237.729
L356.446 237.04
L356.625 237.04
L357.16 233.59
L357.785 233.59
L358.053 232.211
L358.232 232.211
L358.41 231.521
L358.5 231.521
L358.767 230.141
L359.124 230.141
L359.303 228.762
L359.392 228.762
L359.66 227.382
L359.839 227.382
L360.017 226.692
L360.374 226.692
L360.553 226.002
L360.642 226.002
L360.821 225.313
L361.089 225.313
L361.714 221.174
L361.803 221.174
L361.981 220.484
L362.071 220.484
L362.517 217.725
L363.053 217.725
L363.231 217.035
L363.321 217.035
L363.499 216.345
L363.767 216.345
L363.946 215.655
L364.392 215.655
L364.571 214.965
L364.838 214.965
L365.017 214.275
L365.196 214.275
L365.553 212.206
L365.91 212.206
L366.088 210.826
L366.178 210.826
L366.356 210.137
L366.535 210.137
L366.803 208.757
L366.892 208.757
L367.16 205.998
L367.428 203.238
L367.695 201.859
L367.785 201.859
L368.142 199.789
L368.231 199.789
L368.677 197.03
L368.945 197.03
L369.124 195.65
L369.213 195.65
L369.749 192.201
L369.838 192.201
L370.017 191.511
L370.106 191.511
L370.284 189.442
L370.642 189.442
L371.088 186.683
L371.445 186.683
L371.624 185.993
L372.07 185.993
L372.338 184.613
L372.516 184.613
L372.695 183.234
L372.784 183.234
L372.963 181.854
L373.052 181.854
L373.231 181.164
L373.409 181.164
L373.945 177.715
L374.034 177.715
L374.213 177.025
L374.748 177.025
L374.927 176.335
L375.016 176.335
L375.195 174.956
L375.463 174.956
L375.641 173.576
L375.998 173.576
L376.177 171.507
L376.266 171.507
L376.98 166.678
L377.338 166.678
L377.873 163.229
L378.141 163.229
L378.32 161.159
L378.588 161.159
L378.766 160.469
L379.212 160.469
L379.48 157.71
L379.659 155.641
L379.927 155.641
L380.195 154.261
L380.73 154.261
L380.909 152.881
L381.177 152.881
L381.444 151.502
L382.159 151.502
L382.337 150.812
L382.605 150.812
L382.873 149.432
L382.962 149.432
L383.141 148.743
L383.23 148.743
L383.409 145.983
L383.587 145.293
L383.766 145.293
L383.944 144.604
L384.123 144.604
L384.391 143.224
L384.48 143.224
L384.659 142.534
L385.194 142.534
L385.373 141.844
L385.462 141.844
L385.641 141.154
L385.819 141.154
L386.176 139.085
L386.266 139.085
L386.444 138.395
L387.069 138.395
L387.248 137.016
L387.426 136.326
L388.319 136.326
L388.498 135.636
L389.123 135.636
L389.301 134.256
L389.48 134.256
L389.658 133.566
L389.926 133.566
L390.105 132.877
L391.176 132.877
L391.444 131.497
L392.247 131.497
L392.426 130.807
L392.515 130.807
L392.872 128.738
L393.408 128.738
L393.676 127.358
L393.944 127.358
L394.122 126.668
L394.301 126.668
L394.569 125.289
L394.658 125.289
L395.015 123.219
L395.729 123.219
L396.086 121.15
L396.265 121.15
L396.622 119.08
L396.801 119.08
L397.158 117.011
L397.693 117.011
L398.14 114.251
L398.586 114.251
L398.765 113.562
L399.122 113.562
L399.39 110.802
L399.747 110.802
L399.925 110.113
L400.461 110.113
L400.729 108.733
L400.908 108.733
L401.086 108.043
L401.532 108.043
L402.068 104.594
L403.14 104.594
L403.318 103.904
L403.407 103.904
L403.675 102.525
L404.032 102.525
L404.211 101.145
L404.836 101.145
L405.193 99.0754
L405.639 99.0754
L405.818 98.3856
L405.907 98.3856
L406.086 97.6958
L406.354 97.6958
L406.621 96.3162
L406.8 96.3162
L406.979 95.6263
L407.782 95.6263
L407.961 94.9365
L408.407 94.9365
L408.586 94.2467
L409.121 94.2467
L409.3 92.8671
L409.389 92.8671
L409.568 92.1772
L410.103 92.1772
L410.282 91.4874
L410.46 91.4874
L410.639 90.7976
L411.443 90.7976
L411.621 88.7281
L411.978 88.7281
L412.157 88.0383
L412.425 88.0383
L412.603 87.3485
L413.764 87.3485
L413.942 86.6587
L414.567 86.6587
L414.746 85.9689
L415.103 85.9689
L415.282 85.279
L415.46 85.279
L415.728 83.8994
L415.996 83.8994
L416.174 83.2096
L416.799 83.2096
L417.067 81.8299
L417.156 81.8299
L417.424 80.4503
L418.139 80.4503
L418.317 79.7605
L418.496 79.7605
L418.942 77.0012
L419.478 77.0012
L419.656 76.3114
L421.174 76.3114
L421.442 74.9317
L422.424 74.9317
L422.603 74.2419
L423.585 74.2419
L423.763 73.5521
L423.942 73.5521
L424.12 72.8623
L425.192 72.8623
L425.37 71.4826
L425.549 70.7928
L425.727 70.7928
L425.906 68.7234
L427.245 68.7234
L427.424 68.0335
L427.602 68.0335
L427.87 66.6539
L428.495 66.6539
L428.674 65.9641
L429.031 65.9641
L429.209 65.2743
L429.566 65.2743
L429.834 63.8946
L430.995 63.8946
L431.173 63.2048
L431.709 63.2048
L431.888 62.515
L433.048 62.515
L433.227 61.8251
L433.763 61.8251
L433.941 61.1353
L434.655 61.1353
L434.834 59.7557
L436.173 59.7557
L436.352 59.0659
L436.709 59.0659
L436.887 58.376
L437.155 58.376
L437.334 57.6862
L438.048 57.6862
L438.227 56.9964
L441.619 56.9964
L441.887 55.6168
L443.316 55.6168
L443.494 54.9269
L444.744 54.9269
L444.923 54.2371
L447.244 54.2371
L447.422 53.5473
L450.012 53.5473
L450.19 52.8575
L450.547 52.8575
L450.726 52.1677
L458.493 52.1677
L458.672 51.4778
L458.85 51.4778
L459.029 50.0982
L461.618 50.0982
L461.796 49.4084
L464.118 49.4084
L464.296 48.7186
L464.921 48.7186
L465.1 48.0287
L465.457 48.0287
L465.636 47.3389
L471.082 47.3389
L471.26 46.6491
L471.617 46.6491
L471.796 45.9593
L472.421 45.9593
L472.599 45.2695
L472.956 45.2695
L473.135 44.5796
L475.099 44.5796
L475.278 43.8898
L487.241 43.8898
L487.42 43.2
L518.311 43.2
L518.311 43.2" style="fill:none;stroke:#ff0000;stroke-dasharray:3.000000,6.000000;stroke-dashoffset:0.0;"/>
   </g>
   <g id="line2d_4">
    <path clip-path="url(#p7ff5b81e1d)" d="
M72 388.8
L72.625 388.8
L72.8035 388.613
L73.7856 388.613
L73.9642 388.8
L443.94 388.8
L444.119 388.613
L459.118 388.613
L459.297 388.427
L461.707 388.427
L461.886 388.24
L469.921 388.24
L470.1 388.054
L479.295 388.054
L479.474 387.867
L482.509 387.867
L482.688 387.68
L486.259 387.68
L486.438 387.494
L487.331 387.494
L487.509 387.307
L490.545 387.307
L490.723 387.121
L491.348 387.121
L491.527 386.934
L492.777 386.934
L492.955 386.747
L493.937 386.747
L494.116 386.561
L496.884 386.561
L497.062 386.374
L504.294 386.374
L504.472 386.187
L505.722 386.187
L505.901 385.814
L508.758 385.814
L508.936 385.628
L515.007 385.628
L515.275 385.254
L515.454 385.254
L515.632 385.068
L515.811 385.068
L515.989 384.881
L518.311 384.881
L518.311 384.881" style="fill:none;stroke:#00bfbf;stroke-dasharray:5.000000,1.000000,2.000000,1.000000,5.000000,1.000000;stroke-dashoffset:0.0;"/>
   </g>
   <g id="line2d_5">
    <path clip-path="url(#p7ff5b81e1d)" d="
M72 388.8
L100.57 388.8
L100.748 388.11
L104.587 388.11
L104.766 387.42
L105.48 387.42
L105.659 386.731
L105.926 386.731
L106.105 386.041
L107.623 386.041
L107.801 385.351
L108.516 385.351
L108.694 384.661
L109.23 384.661
L109.408 383.971
L111.194 383.971
L111.462 382.592
L111.73 382.592
L111.908 381.902
L112.087 381.902
L112.444 379.832
L114.051 379.832
L114.229 379.143
L115.301 379.143
L115.479 378.453
L116.194 378.453
L116.461 375.693
L116.64 375.004
L118.426 375.004
L118.604 374.314
L119.318 374.314
L119.497 372.934
L119.586 372.934
L119.854 371.554
L121.104 371.554
L121.283 370.865
L121.997 370.865
L122.532 367.416
L122.711 367.416
L122.979 364.656
L123.157 363.966
L123.336 363.966
L123.604 361.207
L125.3 361.207
L125.925 357.068
L126.014 357.068
L126.282 355.689
L126.372 355.689
L126.55 354.999
L126.639 354.999
L126.818 352.929
L126.996 352.929
L127.086 352.24
L127.264 350.17
L128.871 350.17
L129.05 349.48
L129.407 349.48
L130.211 343.962
L130.389 343.962
L130.568 342.582
L130.657 342.582
L130.925 341.202
L132.621 341.202
L132.8 340.513
L133.157 340.513
L133.514 338.443
L133.603 338.443
L133.871 335.684
L134.139 335.684
L134.317 333.614
L134.496 332.925
L135.21 332.925
L135.478 331.545
L136.282 331.545
L136.46 330.855
L136.817 330.855
L137.442 326.716
L137.532 326.716
L137.889 324.647
L138.335 324.647
L138.514 323.957
L139.764 323.957
L140.031 322.577
L140.121 322.577
L140.299 321.198
L140.567 319.818
L140.835 319.818
L141.103 318.438
L141.192 318.438
L141.46 315.679
L141.817 315.679
L141.996 314.989
L142.62 314.989
L142.799 314.299
L143.335 314.299
L143.513 312.23
L143.692 312.23
L144.138 309.471
L144.228 309.471
L144.495 306.711
L144.674 306.022
L144.852 306.022
L144.942 305.332
L145.12 303.262
L146.549 303.262
L146.727 302.572
L146.906 302.572
L147.531 298.434
L147.709 298.434
L147.888 297.054
L148.067 296.364
L148.156 296.364
L148.87 291.535
L148.959 291.535
L149.138 290.846
L149.852 290.846
L150.031 290.156
L150.566 290.156
L150.745 289.466
L151.013 289.466
L151.281 288.086
L151.37 288.086
L151.548 286.707
L151.638 286.707
L151.906 285.327
L152.084 285.327
L152.441 283.257
L154.138 283.257
L154.316 280.498
L154.584 277.739
L154.852 274.98
L154.941 274.98
L155.12 274.29
L155.388 274.29
L155.745 270.841
L155.923 269.461
L157.62 269.461
L157.977 264.632
L158.155 264.632
L158.334 263.253
L158.602 261.873
L158.691 261.873
L158.869 260.493
L158.959 260.493
L159.316 255.665
L161.191 255.665
L161.548 253.595
L161.726 253.595
L162.173 250.836
L162.441 250.836
L163.244 245.317
L164.762 245.317
L165.476 240.489
L165.744 240.489
L165.923 238.419
L166.012 238.419
L166.369 234.97
L166.548 232.901
L166.726 232.901
L166.994 231.521
L167.083 231.521
L167.262 230.831
L168.512 230.831
L168.869 227.382
L169.047 224.623
L169.226 223.933
L169.494 223.933
L170.208 219.104
L171.012 219.104
L171.19 218.414
L172.172 218.414
L172.351 217.035
L172.529 217.035
L172.797 214.275
L173.333 209.447
L173.779 203.238
L174.404 203.238
L174.583 201.859
L175.476 201.859
L176.19 197.03
L176.458 197.03
L176.725 194.271
L177.261 190.822
L178.243 190.822
L178.511 189.442
L178.868 189.442
L179.047 188.752
L179.225 188.752
L179.315 188.062
L179.582 183.923
L180.386 178.405
L180.564 178.405
L180.743 177.025
L181.189 177.025
L181.368 176.335
L182.618 176.335
L182.796 175.646
L182.886 175.646
L183.243 173.576
L183.421 173.576
L183.868 170.817
L183.957 170.817
L184.225 169.437
L184.314 169.437
L184.493 168.747
L186.457 168.747
L186.636 167.368
L186.903 167.368
L187.35 164.608
L187.618 164.608
L187.975 162.539
L189.85 162.539
L190.475 158.4
L190.564 158.4
L190.742 157.71
L190.921 157.71
L191.1 157.02
L191.278 157.02
L191.635 154.951
L192.707 154.951
L192.885 154.261
L193.332 154.261
L193.51 153.571
L193.599 153.571
L193.778 152.881
L194.224 152.881
L194.939 148.053
L195.921 148.053
L196.099 147.363
L196.903 147.363
L197.081 146.673
L197.171 146.673
L197.438 145.293
L197.706 145.293
L197.885 144.604
L198.153 144.604
L198.331 143.914
L200.652 143.914
L200.831 143.224
L200.92 143.224
L201.01 142.534
L201.188 140.465
L201.635 137.705
L201.813 137.705
L202.081 136.326
L202.17 136.326
L202.349 134.256
L204.045 134.256
L204.402 132.187
L204.849 132.187
L205.027 130.807
L205.384 130.807
L205.831 128.048
L207.081 128.048
L207.259 127.358
L207.884 127.358
L208.063 125.978
L208.331 125.978
L209.045 121.15
L212.348 121.15
L212.616 119.77
L212.884 119.77
L213.062 118.39
L214.848 118.39
L215.027 117.011
L215.205 117.011
L215.473 115.631
L215.562 115.631
L215.741 114.941
L216.009 114.941
L216.187 114.251
L216.276 114.251
L216.455 113.562
L217.437 113.562
L217.616 112.872
L217.973 112.872
L218.151 112.182
L218.598 112.182
L218.776 111.492
L218.955 111.492
L219.133 110.802
L219.401 110.802
L219.58 109.423
L219.758 109.423
L219.937 108.043
L220.026 108.043
L220.205 107.353
L222.169 107.353
L222.348 106.663
L223.062 106.663
L223.24 105.974
L224.312 105.974
L224.49 105.284
L224.847 105.284
L225.026 104.594
L225.562 104.594
L225.74 103.904
L225.829 103.904
L226.097 102.525
L226.276 102.525
L226.544 101.145
L226.633 101.145
L226.812 100.455
L226.99 100.455
L227.258 99.0754
L229.311 99.0754
L229.49 98.3856
L229.579 98.3856
L229.847 97.006
L230.651 97.006
L230.918 95.6263
L232.883 95.6263
L233.061 94.9365
L235.74 94.9365
L235.918 94.2467
L236.9 94.2467
L237.079 93.5569
L237.793 93.5569
L237.972 92.8671
L238.329 92.8671
L238.507 92.1772
L240.65 92.1772
L240.918 90.7976
L241.453 90.7976
L241.632 90.1078
L243.864 90.1078
L244.043 89.418
L244.578 89.418
L244.757 88.7281
L245.114 88.7281
L245.292 88.0383
L250.828 88.0383
L251.006 87.3485
L251.274 87.3485
L251.453 85.9689
L251.542 85.9689
L251.721 85.279
L253.328 85.279
L253.506 84.5892
L254.488 84.5892
L254.667 83.8994
L254.935 83.8994
L255.113 83.2096
L255.381 83.2096
L255.649 81.8299
L257.702 81.8299
L257.881 81.1401
L257.97 81.1401
L258.149 80.4503
L258.238 80.4503
L258.417 78.3808
L258.506 78.3808
L258.684 77.691
L258.863 77.691
L259.042 76.3114
L260.827 76.3114
L261.006 75.6216
L261.452 75.6216
L261.631 74.9317
L261.72 74.9317
L261.988 73.5521
L262.345 73.5521
L262.613 72.1725
L262.881 72.1725
L263.059 71.4826
L265.648 71.4826
L265.827 70.7928
L269.487 70.7928
L269.666 70.103
L269.755 70.103
L269.934 69.4132
L272.523 69.4132
L272.701 68.7234
L275.737 68.7234
L275.916 68.0335
L276.54 68.0335
L276.719 67.3437
L276.808 67.3437
L276.987 66.6539
L283.236 66.6539
L283.415 65.9641
L283.772 65.9641
L283.951 65.2743
L294.754 65.2743
L294.932 64.5844
L295.021 64.5844
L295.2 63.8946
L297.253 63.8946
L297.432 63.2048
L298.771 63.2048
L298.95 62.515
L301.36 62.515
L301.539 61.8251
L301.807 61.8251
L301.985 61.1353
L304.664 61.1353
L304.842 60.4455
L315.109 60.4455
L315.288 59.7557
L316.359 59.7557
L316.538 59.0659
L317.788 59.0659
L317.966 58.376
L318.77 58.376
L318.948 56.9964
L319.484 56.9964
L319.663 56.3066
L319.841 56.3066
L320.02 55.6168
L325.823 55.6168
L326.091 54.2371
L330.019 54.2371
L330.198 53.5473
L340.376 53.5473
L340.554 52.8575
L365.106 52.8575
L365.285 52.1677
L372.784 52.1677
L372.963 51.4778
L420.013 51.4778
L420.192 50.788
L434.655 50.788
L434.834 50.0982
L456.35 50.0982
L456.529 49.4084
L518.311 49.4084
L518.311 49.4084" style="fill:none;stroke:#bf00bf;stroke-linecap:square;"/>
   </g>
   <g id="matplotlib.axis_1">
    <g id="xtick_1">
     <g id="line2d_6">
      <defs>
       <path d="
M0 0
L0 -4" id="mc7db9fdffb" style="stroke:#000000;stroke-width:0.5;"/>
      </defs>
      <g>
       <use style="stroke:#000000;stroke-width:0.5;" x="72.0" xlink:href="#mc7db9fdffb" y="388.8"/>
      </g>
     </g>
     <g id="line2d_7">
      <defs>
       <path d="
M0 0
L0 4" id="m5a7d422ac3" style="stroke:#000000;stroke-width:0.5;"/>
      </defs>
      <g>
       <use style="stroke:#000000;stroke-width:0.5;" x="72.0" xlink:href="#m5a7d422ac3" y="43.2"/>
      </g>
     </g>
     <g id="text_1">
      <!-- 0 -->
      <defs>
       <path d="
M56.9844 36.375
Q56.9844 16.7969 50.8594 7.64062
Q44.7344 -1.51562 31.8438 -1.51562
Q18.75 -1.51562 12.7188 7.76562
Q6.6875 17.0469 6.6875 36.2812
Q6.6875 55.6719 12.7812 64.9219
Q18.8906 74.1719 31.8438 74.1719
Q44.9219 74.1719 50.9531 64.7656
Q56.9844 55.375 56.9844 36.375
M44.1406 14.2031
Q45.8438 18.1719 46.4531 23.5156
Q47.0781 28.8594 47.0781 36.375
Q47.0781 43.7969 46.4531 49.2656
Q45.8438 54.7344 44.0938 58.5469
Q42.3906 62.3125 39.4219 64.2031
Q36.4688 66.1094 31.8438 66.1094
Q27.25 66.1094 24.2344 64.2031
Q21.2344 62.3125 19.4844 58.4531
Q17.8281 54.8281 17.2188 49.0156
Q16.6094 43.2188 16.6094 36.2812
Q16.6094 28.6562 17.1406 23.5312
Q17.6719 18.4062 19.4375 14.3594
Q21.0469 10.5469 24 8.54688
Q26.9531 6.54688 31.8438 6.54688
Q36.4219 6.54688 39.4531 8.45312
Q42.4844 10.3594 44.1406 14.2031" id="Verdana-30"/>
      </defs>
      <g transform="translate(68.9821875 401.918125)scale(0.12 -0.12)">
       <use xlink:href="#Verdana-30"/>
      </g>
     </g>
    </g>
    <g id="xtick_2">
     <g id="line2d_8">
      <g>
       <use style="stroke:#000000;stroke-width:0.5;" x="161.28" xlink:href="#mc7db9fdffb" y="388.8"/>
      </g>
     </g>
     <g id="line2d_9">
      <g>
       <use style="stroke:#000000;stroke-width:0.5;" x="161.28" xlink:href="#m5a7d422ac3" y="43.2"/>
      </g>
     </g>
     <g id="text_2">
      <!-- 1000 -->
      <defs>
       <path d="
M52.9375 0
L13.5781 0
L13.5781 7.42188
L28.7188 7.42188
L28.7188 56.1562
L13.5781 56.1562
L13.5781 62.7969
Q16.6562 62.7969 20.1719 63.2969
Q23.6875 63.8125 25.4844 64.7969
Q27.7344 66.0156 29.0312 67.8906
Q30.3281 69.7812 30.5156 72.9531
L38.0938 72.9531
L38.0938 7.42188
L52.9375 7.42188
z
" id="Verdana-31"/>
      </defs>
      <g transform="translate(147.2315625 401.918125)scale(0.12 -0.12)">
       <use xlink:href="#Verdana-31"/>
       <use x="63.57421875" xlink:href="#Verdana-30"/>
       <use x="127.1484375" xlink:href="#Verdana-30"/>
       <use x="190.72265625" xlink:href="#Verdana-30"/>
      </g>
     </g>
    </g>
    <g id="xtick_3">
     <g id="line2d_10">
      <g>
       <use style="stroke:#000000;stroke-width:0.5;" x="250.56" xlink:href="#mc7db9fdffb" y="388.8"/>
      </g>
     </g>
     <g id="line2d_11">
      <g>
       <use style="stroke:#000000;stroke-width:0.5;" x="250.56" xlink:href="#m5a7d422ac3" y="43.2"/>
      </g>
     </g>
     <g id="text_3">
      <!-- 2000 -->
      <defs>
       <path d="
M57.0781 0
L7.85938 0
L7.85938 10.2031
Q12.9844 14.5938 18.1406 18.9844
Q23.2969 23.3906 27.7344 27.7344
Q37.1094 36.8125 40.5781 42.1562
Q44.0469 47.5156 44.0469 53.7188
Q44.0469 59.375 40.3125 62.5625
Q36.5781 65.7656 29.8906 65.7656
Q25.4375 65.7656 20.2656 64.2031
Q15.0938 62.6406 10.1562 59.4219
L9.67188 59.4219
L9.67188 69.6719
Q13.1406 71.3906 18.9219 72.7969
Q24.7031 74.2188 30.125 74.2188
Q41.3125 74.2188 47.6562 68.8125
Q54 63.4219 54 54.2031
Q54 50.0469 52.9531 46.4531
Q51.9062 42.875 49.8594 39.6562
Q47.9531 36.625 45.3906 33.6875
Q42.8281 30.7656 39.1562 27.2031
Q33.9375 22.0781 28.3594 17.2656
Q22.7969 12.4531 17.9688 8.34375
L57.0781 8.34375
z
" id="Verdana-32"/>
      </defs>
      <g transform="translate(236.1684375 401.918125)scale(0.12 -0.12)">
       <use xlink:href="#Verdana-32"/>
       <use x="63.57421875" xlink:href="#Verdana-30"/>
       <use x="127.1484375" xlink:href="#Verdana-30"/>
       <use x="190.72265625" xlink:href="#Verdana-30"/>
      </g>
     </g>
    </g>
    <g id="xtick_4">
     <g id="line2d_12">
      <g>
       <use style="stroke:#000000;stroke-width:0.5;" x="339.84" xlink:href="#mc7db9fdffb" y="388.8"/>
      </g>
     </g>
     <g id="line2d_13">
      <g>
       <use style="stroke:#000000;stroke-width:0.5;" x="339.84" xlink:href="#m5a7d422ac3" y="43.2"/>
      </g>
     </g>
     <g id="text_4">
      <!-- 3000 -->
      <defs>
       <path d="
M50.6875 35.0156
Q53.0312 32.9062 54.5469 29.7344
Q56.0625 26.5625 56.0625 21.5312
Q56.0625 16.5469 54.25 12.3906
Q52.4375 8.25 49.1719 5.17188
Q45.5156 1.76562 40.5469 0.125
Q35.5938 -1.51562 29.6875 -1.51562
Q23.6406 -1.51562 17.7812 -0.0625
Q11.9219 1.375 8.15625 3.07812
L8.15625 13.2812
L8.89062 13.2812
Q13.0312 10.5469 18.6406 8.73438
Q24.2656 6.9375 29.5 6.9375
Q32.5625 6.9375 36.0312 7.95312
Q39.5 8.98438 41.6562 10.9844
Q43.8906 13.1406 44.9844 15.7188
Q46.0938 18.3125 46.0938 22.2656
Q46.0938 26.1719 44.8438 28.7344
Q43.6094 31.2969 41.4062 32.7656
Q39.2031 34.2812 36.0781 34.8438
Q32.9531 35.4062 29.3438 35.4062
L24.9531 35.4062
L24.9531 43.5
L28.375 43.5
Q35.7969 43.5 40.2031 46.5938
Q44.625 49.7031 44.625 55.6719
Q44.625 58.2969 43.5 60.2656
Q42.3906 62.25 40.375 63.5312
Q38.2812 64.7969 35.8906 65.2812
Q33.5 65.7656 30.4688 65.7656
Q25.8281 65.7656 20.5938 64.1094
Q15.375 62.4531 10.75 59.4219
L10.25 59.4219
L10.25 69.625
Q13.7188 71.3438 19.5 72.7812
Q25.2969 74.2188 30.7188 74.2188
Q36.0312 74.2188 40.0781 73.2344
Q44.1406 72.2656 47.4062 70.125
Q50.9219 67.7812 52.7344 64.4531
Q54.5469 61.1406 54.5469 56.6875
Q54.5469 50.6406 50.2656 46.125
Q46 41.6094 40.1875 40.4375
L40.1875 39.75
Q42.5312 39.3594 45.5469 38.1094
Q48.5781 36.8594 50.6875 35.0156" id="Verdana-33"/>
      </defs>
      <g transform="translate(325.46625 401.918125)scale(0.12 -0.12)">
       <use xlink:href="#Verdana-33"/>
       <use x="63.57421875" xlink:href="#Verdana-30"/>
       <use x="127.1484375" xlink:href="#Verdana-30"/>
       <use x="190.72265625" xlink:href="#Verdana-30"/>
      </g>
     </g>
    </g>
    <g id="xtick_5">
     <g id="line2d_14">
      <g>
       <use style="stroke:#000000;stroke-width:0.5;" x="429.12" xlink:href="#mc7db9fdffb" y="388.8"/>
      </g>
     </g>
     <g id="line2d_15">
      <g>
       <use style="stroke:#000000;stroke-width:0.5;" x="429.12" xlink:href="#m5a7d422ac3" y="43.2"/>
      </g>
     </g>
     <g id="text_5">
      <!-- 4000 -->
      <defs>
       <path d="
M58.7344 20.4531
L47.9531 20.4531
L47.9531 0
L38.5781 0
L38.5781 20.4531
L3.76562 20.4531
L3.76562 31.6875
L38.9688 72.7031
L47.9531 72.7031
L47.9531 28.2656
L58.7344 28.2656
z

M38.5781 28.2656
L38.5781 61.0781
L10.4062 28.2656
z
" id="Verdana-34"/>
      </defs>
      <g transform="translate(414.4828125 401.918125)scale(0.12 -0.12)">
       <use xlink:href="#Verdana-34"/>
       <use x="63.57421875" xlink:href="#Verdana-30"/>
       <use x="127.1484375" xlink:href="#Verdana-30"/>
       <use x="190.72265625" xlink:href="#Verdana-30"/>
      </g>
     </g>
    </g>
    <g id="xtick_6">
     <g id="line2d_16">
      <g>
       <use style="stroke:#000000;stroke-width:0.5;" x="518.4" xlink:href="#mc7db9fdffb" y="388.8"/>
      </g>
     </g>
     <g id="line2d_17">
      <g>
       <use style="stroke:#000000;stroke-width:0.5;" x="518.4" xlink:href="#m5a7d422ac3" y="43.2"/>
      </g>
     </g>
     <g id="text_6">
      <!-- 5000 -->
      <defs>
       <path d="
M56.5 23.0938
Q56.5 18.0156 54.6406 13.375
Q52.7812 8.73438 49.5625 5.5625
Q46.0469 2.15625 41.1875 0.3125
Q36.3281 -1.51562 29.9375 -1.51562
Q23.9688 -1.51562 18.4531 -0.265625
Q12.9375 0.984375 9.125 2.73438
L9.125 13.0312
L9.8125 13.0312
Q13.8125 10.5 19.1875 8.71875
Q24.5625 6.9375 29.7344 6.9375
Q33.2031 6.9375 36.4531 7.90625
Q39.7031 8.89062 42.2344 11.3281
Q44.3906 13.4219 45.4844 16.3438
Q46.5781 19.2812 46.5781 23.1406
Q46.5781 26.9062 45.2812 29.4844
Q44 32.0781 41.7031 33.6406
Q39.1562 35.5 35.5156 36.25
Q31.8906 37.0156 27.3906 37.0156
Q23.0938 37.0156 19.1094 36.4219
Q15.1406 35.8438 12.25 35.25
L12.25 72.7031
L56 72.7031
L56 64.1562
L21.6875 64.1562
L21.6875 44.8281
Q23.7812 45.0156 25.9688 45.1094
Q28.1719 45.2188 29.7812 45.2188
Q35.6875 45.2188 40.125 44.2188
Q44.5781 43.2188 48.2969 40.6719
Q52.2031 37.9844 54.3438 33.7344
Q56.5 29.5 56.5 23.0938" id="Verdana-35"/>
      </defs>
      <g transform="translate(504.084375 401.918125)scale(0.12 -0.12)">
       <use xlink:href="#Verdana-35"/>
       <use x="63.57421875" xlink:href="#Verdana-30"/>
       <use x="127.1484375" xlink:href="#Verdana-30"/>
       <use x="190.72265625" xlink:href="#Verdana-30"/>
      </g>
     </g>
    </g>
    <g id="text_7">
     <!-- Objective function exectuions -->
     <defs>
      <path d="
M37.3594 0.484375
Q34.7656 -0.203125 31.7031 -0.640625
Q28.6562 -1.07812 26.2656 -1.07812
Q17.9219 -1.07812 13.5781 3.40625
Q9.23438 7.90625 9.23438 17.8281
L9.23438 46.8281
L3.03125 46.8281
L3.03125 54.5469
L9.23438 54.5469
L9.23438 70.2188
L18.4062 70.2188
L18.4062 54.5469
L37.3594 54.5469
L37.3594 46.8281
L18.4062 46.8281
L18.4062 21.9688
Q18.4062 17.6719 18.5938 15.25
Q18.7969 12.8438 19.9688 10.75
Q21.0469 8.79688 22.9219 7.89062
Q24.8125 6.98438 28.6562 6.98438
Q30.9062 6.98438 33.3438 7.64062
Q35.7969 8.29688 36.8594 8.73438
L37.3594 8.73438
z
" id="Verdana-74"/>
      <path d="
M56.2031 54.5469
L34.125 0
L24.9062 0
L2.98438 54.5469
L12.9375 54.5469
L29.8281 11.1406
L46.5781 54.5469
z
" id="Verdana-76"/>
      <path d="
M26.0312 63.6719
L15.6719 63.6719
L15.6719 73.1875
L26.0312 73.1875
z

M25.4375 -1.3125
Q25.4375 -10.8906 20.5469 -15.7656
Q15.6719 -20.6562 7.46875 -20.6562
Q5.51562 -20.6562 2.3125 -20.2656
Q-0.875 -19.875 -3.03125 -19.2812
L-3.03125 -10.5469
L-2.54688 -10.5469
Q-1.17188 -11.0781 1.14062 -11.7656
Q3.46875 -12.4531 5.67188 -12.4531
Q9.1875 -12.4531 11.3281 -11.4688
Q13.4844 -10.5 14.5469 -8.54688
Q15.625 -6.59375 15.9375 -3.82812
Q16.2656 -1.07812 16.2656 2.875
L16.2656 46.8281
L4.89062 46.8281
L4.89062 54.5469
L25.4375 54.5469
z
" id="Verdana-6a"/>
      <path d="
M63.9688 64.3594
Q68.4062 59.4688 70.7656 52.3906
Q73.1406 45.3125 73.1406 36.3281
Q73.1406 27.3438 70.7188 20.2344
Q68.3125 13.1406 63.9688 8.40625
Q59.4688 3.46875 53.3438 0.96875
Q47.2188 -1.51562 39.3594 -1.51562
Q31.6875 -1.51562 25.4062 1.01562
Q19.1406 3.5625 14.75 8.40625
Q10.3594 13.2344 7.98438 20.2656
Q5.60938 27.2969 5.60938 36.3281
Q5.60938 45.2188 7.95312 52.2656
Q10.2969 59.3281 14.7969 64.3594
Q19.0938 69.1406 25.4688 71.6719
Q31.8438 74.2188 39.3594 74.2188
Q47.1719 74.2188 53.3906 71.6562
Q59.625 69.0938 63.9688 64.3594
M63.0938 36.3281
Q63.0938 50.4844 56.7344 58.1719
Q50.3906 65.875 39.4062 65.875
Q28.3281 65.875 22 58.1719
Q15.6719 50.4844 15.6719 36.3281
Q15.6719 22.0156 22.1094 14.4219
Q28.5625 6.84375 39.4062 6.84375
Q50.25 6.84375 56.6719 14.4219
Q63.0938 22.0156 63.0938 36.3281" id="Verdana-4f"/>
      <path d="
M54.25 0
L45.0625 0
L45.0625 6.0625
Q40.4375 2.39062 36.1875 0.4375
Q31.9375 -1.51562 26.8125 -1.51562
Q18.2188 -1.51562 13.4219 3.73438
Q8.64062 8.98438 8.64062 19.1406
L8.64062 54.5469
L17.8281 54.5469
L17.8281 23.4844
Q17.8281 19.3438 18.2188 16.375
Q18.6094 13.4219 19.875 11.3281
Q21.1875 9.1875 23.2812 8.20312
Q25.3906 7.23438 29.3906 7.23438
Q32.9531 7.23438 37.1719 9.07812
Q41.4062 10.9375 45.0625 13.8125
L45.0625 54.5469
L54.25 54.5469
z
" id="Verdana-75"/>
      <path d="
M48 15.7188
Q48 8.25 41.8125 3.46875
Q35.6406 -1.3125 24.9531 -1.3125
Q18.8906 -1.3125 13.8438 0.125
Q8.79688 1.5625 5.375 3.26562
L5.375 13.5781
L5.85938 13.5781
Q10.2031 10.2969 15.5156 8.375
Q20.8438 6.45312 25.7344 6.45312
Q31.7812 6.45312 35.2031 8.40625
Q38.625 10.3594 38.625 14.5469
Q38.625 17.7812 36.7656 19.4375
Q34.9062 21.0938 29.6406 22.2656
Q27.6875 22.7031 24.5312 23.2812
Q21.3906 23.875 18.7969 24.5625
Q11.625 26.4688 8.60938 30.1562
Q5.60938 33.8438 5.60938 39.2031
Q5.60938 42.5781 7 45.5469
Q8.40625 48.5312 11.2344 50.875
Q13.9688 53.1719 18.1875 54.5156
Q22.4062 55.8594 27.6406 55.8594
Q32.5156 55.8594 37.5156 54.6562
Q42.5312 53.4688 45.8438 51.7656
L45.8438 41.9375
L45.3594 41.9375
Q41.8438 44.5312 36.8125 46.3125
Q31.7812 48.0938 26.9531 48.0938
Q21.9219 48.0938 18.4531 46.1562
Q14.9844 44.2344 14.9844 40.4375
Q14.9844 37.0625 17.0938 35.3594
Q19.1406 33.6406 23.7344 32.5625
Q26.2656 31.9844 29.4062 31.3906
Q32.5625 30.8125 34.6719 30.3281
Q41.0625 28.8594 44.5312 25.2969
Q48 21.6875 48 15.7188" id="Verdana-73"/>
      <path d="
M56.25 0
L44.6719 0
L29.2031 20.9531
L13.625 0
L2.9375 0
L24.2188 27.2031
L3.125 54.5469
L14.7031 54.5469
L30.0781 33.9375
L45.5156 54.5469
L56.25 54.5469
L34.8125 27.6875
z
" id="Verdana-78"/>
      <path id="Verdana-20"/>
      <path d="
M38.375 67.0938
L37.8906 67.0938
Q36.375 67.5312 33.9375 67.9844
Q31.5 68.4531 29.6406 68.4531
Q23.7344 68.4531 21.0625 65.8438
Q18.4062 63.2344 18.4062 56.3906
L18.4062 54.5469
L34.9688 54.5469
L34.9688 46.8281
L18.7031 46.8281
L18.7031 0
L9.51562 0
L9.51562 46.8281
L3.32812 46.8281
L3.32812 54.5469
L9.51562 54.5469
L9.51562 56.3438
Q9.51562 66.0625 14.3438 71.2656
Q19.1875 76.4688 28.3281 76.4688
Q31.3906 76.4688 33.8594 76.1719
Q36.3281 75.875 38.375 75.4844
z
" id="Verdana-66"/>
      <path d="
M55.5156 27.25
Q55.5156 13.9219 48.6719 6.20312
Q41.8438 -1.51562 30.375 -1.51562
Q18.7969 -1.51562 11.9844 6.20312
Q5.17188 13.9219 5.17188 27.25
Q5.17188 40.5781 11.9844 48.3125
Q18.7969 56.0625 30.375 56.0625
Q41.8438 56.0625 48.6719 48.3125
Q55.5156 40.5781 55.5156 27.25
M46.0469 27.25
Q46.0469 37.8438 41.8906 42.9844
Q37.75 48.1406 30.375 48.1406
Q22.9062 48.1406 18.7812 42.9844
Q14.6562 37.8438 14.6562 27.25
Q14.6562 17 18.7969 11.6875
Q22.9531 6.39062 30.375 6.39062
Q37.7031 6.39062 41.875 11.6406
Q46.0469 16.8906 46.0469 27.25" id="Verdana-6f"/>
      <path d="
M57.0312 27.6875
Q57.0312 20.8438 55.0938 15.375
Q53.1719 9.90625 49.9062 6.20312
Q46.4375 2.34375 42.2812 0.40625
Q38.1406 -1.51562 33.1562 -1.51562
Q28.5156 -1.51562 25.0469 -0.40625
Q21.5781 0.6875 18.2188 2.54688
L17.625 0
L9.03125 0
L9.03125 75.9844
L18.2188 75.9844
L18.2188 48.8281
Q22.0781 52 26.4219 54.0312
Q30.7656 56.0625 36.1875 56.0625
Q45.8438 56.0625 51.4375 48.6406
Q57.0312 41.2188 57.0312 27.6875
M47.5625 27.4375
Q47.5625 37.2031 44.3281 42.25
Q41.1094 47.3125 33.9375 47.3125
Q29.9375 47.3125 25.8281 45.5781
Q21.7344 43.8438 18.2188 41.1094
L18.2188 9.85938
Q22.125 8.10938 24.9219 7.42188
Q27.7344 6.73438 31.2969 6.73438
Q38.9219 6.73438 43.2344 11.7344
Q47.5625 16.75 47.5625 27.4375" id="Verdana-62"/>
      <path d="
M49.3594 3.42188
Q44.7812 1.21875 40.6562 0
Q36.5312 -1.21875 31.8906 -1.21875
Q25.9844 -1.21875 21.0469 0.515625
Q16.1094 2.25 12.5938 5.76562
Q9.03125 9.28125 7.07812 14.6406
Q5.125 20.0156 5.125 27.2031
Q5.125 40.5781 12.4688 48.1875
Q19.8281 55.8125 31.8906 55.8125
Q36.5781 55.8125 41.0938 54.4844
Q45.6094 53.1719 49.3594 51.2656
L49.3594 41.0625
L48.875 41.0625
Q44.6719 44.3438 40.2031 46.0938
Q35.75 47.8594 31.5 47.8594
Q23.6875 47.8594 19.1719 42.6094
Q14.6562 37.3594 14.6562 27.2031
Q14.6562 17.3281 19.0625 12.0312
Q23.4844 6.73438 31.5 6.73438
Q34.2812 6.73438 37.1562 7.46875
Q40.0469 8.20312 42.3281 9.375
Q44.3438 10.4062 46.0938 11.5469
Q47.8594 12.7031 48.875 13.5312
L49.3594 13.5312
z
" id="Verdana-63"/>
      <path d="
M54.6406 0
L45.4531 0
L45.4531 31.0625
Q45.4531 34.8125 45.0156 38.1094
Q44.5781 41.4062 43.4062 43.2656
Q42.1875 45.3125 39.8906 46.3125
Q37.5938 47.3125 33.9375 47.3125
Q30.1719 47.3125 26.0625 45.4531
Q21.9688 43.6094 18.2188 40.7188
L18.2188 0
L9.03125 0
L9.03125 54.5469
L18.2188 54.5469
L18.2188 48.4844
Q22.5156 52.0469 27.0938 54.0469
Q31.6875 56.0625 36.5312 56.0625
Q45.3594 56.0625 50 50.7344
Q54.6406 45.4062 54.6406 35.4062
z
" id="Verdana-6e"/>
      <path d="
M54.6875 26.3125
L14.5 26.3125
Q14.5 21.2969 16.0156 17.5469
Q17.5312 13.8125 20.1719 11.4219
Q22.7031 9.07812 26.1875 7.90625
Q29.6875 6.73438 33.8906 6.73438
Q39.4531 6.73438 45.0938 8.95312
Q50.7344 11.1875 53.125 13.3281
L53.6094 13.3281
L53.6094 3.32812
Q48.9688 1.375 44.1406 0.046875
Q39.3125 -1.26562 33.9844 -1.26562
Q20.4062 -1.26562 12.7812 6.07812
Q5.17188 13.4219 5.17188 26.9531
Q5.17188 40.3281 12.4688 48.1875
Q19.7812 56.0625 31.6875 56.0625
Q42.7188 56.0625 48.7031 49.6094
Q54.6875 43.1719 54.6875 31.2969
z

M45.75 33.3438
Q45.7031 40.5781 42.1094 44.5312
Q38.5312 48.4844 31.2031 48.4844
Q23.8281 48.4844 19.4531 44.1406
Q15.0938 39.7969 14.5 33.3438
z
" id="Verdana-65"/>
      <path d="
M18.8906 63.6719
L8.54688 63.6719
L8.54688 73.1875
L18.8906 73.1875
z

M18.3125 0
L9.125 0
L9.125 54.5469
L18.3125 54.5469
z
" id="Verdana-69"/>
     </defs>
     <g transform="translate(206.5078125 418.509375)scale(0.12 -0.12)">
      <use xlink:href="#Verdana-4f"/>
      <use x="78.7109375" xlink:href="#Verdana-62"/>
      <use x="141.015625" xlink:href="#Verdana-6a"/>
      <use x="175.439453125" xlink:href="#Verdana-65"/>
      <use x="235.009765625" xlink:href="#Verdana-63"/>
      <use x="287.109375" xlink:href="#Verdana-74"/>
      <use x="326.513671875" xlink:href="#Verdana-69"/>
      <use x="353.955078125" xlink:href="#Verdana-76"/>
      <use x="412.259765625" xlink:href="#Verdana-65"/>
      <use x="471.830078125" xlink:href="#Verdana-20"/>
      <use x="506.986328125" xlink:href="#Verdana-66"/>
      <use x="542.142578125" xlink:href="#Verdana-75"/>
      <use x="605.423828125" xlink:href="#Verdana-6e"/>
      <use x="668.705078125" xlink:href="#Verdana-63"/>
      <use x="720.8046875" xlink:href="#Verdana-74"/>
      <use x="760.208984375" xlink:href="#Verdana-69"/>
      <use x="787.650390625" xlink:href="#Verdana-6f"/>
      <use x="848.34375" xlink:href="#Verdana-6e"/>
      <use x="911.625" xlink:href="#Verdana-20"/>
      <use x="946.78125" xlink:href="#Verdana-65"/>
      <use x="1006.3515625" xlink:href="#Verdana-78"/>
      <use x="1064.40625" xlink:href="#Verdana-65"/>
      <use x="1123.9765625" xlink:href="#Verdana-63"/>
      <use x="1176.076171875" xlink:href="#Verdana-74"/>
      <use x="1215.48046875" xlink:href="#Verdana-75"/>
      <use x="1278.76171875" xlink:href="#Verdana-69"/>
      <use x="1306.203125" xlink:href="#Verdana-6f"/>
      <use x="1366.896484375" xlink:href="#Verdana-6e"/>
      <use x="1430.177734375" xlink:href="#Verdana-73"/>
     </g>
    </g>
   </g>
   <g id="matplotlib.axis_2">
    <g id="ytick_1">
     <g id="line2d_18">
      <defs>
       <path d="
M0 0
L4 0" id="md7965d1ba0" style="stroke:#000000;stroke-width:0.5;"/>
      </defs>
      <g>
       <use style="stroke:#000000;stroke-width:0.5;" x="72.0" xlink:href="#md7965d1ba0" y="388.8"/>
      </g>
     </g>
     <g id="line2d_19">
      <defs>
       <path d="
M0 0
L-4 0" id="md9a1c1a7cd" style="stroke:#000000;stroke-width:0.5;"/>
      </defs>
      <g>
       <use style="stroke:#000000;stroke-width:0.5;" x="518.4" xlink:href="#md9a1c1a7cd" y="388.8"/>
      </g>
     </g>
     <g id="text_8">
      <!-- 0.0 -->
      <defs>
       <path d="
M24.0312 0
L12.3594 0
L12.3594 13.9219
L24.0312 13.9219
z
" id="Verdana-2e"/>
      </defs>
      <g transform="translate(49.97 392.1515625)scale(0.12 -0.12)">
       <use xlink:href="#Verdana-30"/>
       <use x="63.57421875" xlink:href="#Verdana-2e"/>
       <use x="99.951171875" xlink:href="#Verdana-30"/>
      </g>
     </g>
    </g>
    <g id="ytick_2">
     <g id="line2d_20">
      <g>
       <use style="stroke:#000000;stroke-width:0.5;" x="72.0" xlink:href="#md7965d1ba0" y="319.68"/>
      </g>
     </g>
     <g id="line2d_21">
      <g>
       <use style="stroke:#000000;stroke-width:0.5;" x="518.4" xlink:href="#md9a1c1a7cd" y="319.68"/>
      </g>
     </g>
     <g id="text_9">
      <!-- 0.2 -->
      <g transform="translate(49.95875 323.0315625)scale(0.12 -0.12)">
       <use xlink:href="#Verdana-30"/>
       <use x="63.57421875" xlink:href="#Verdana-2e"/>
       <use x="99.951171875" xlink:href="#Verdana-32"/>
      </g>
     </g>
    </g>
    <g id="ytick_3">
     <g id="line2d_22">
      <g>
       <use style="stroke:#000000;stroke-width:0.5;" x="72.0" xlink:href="#md7965d1ba0" y="250.56"/>
      </g>
     </g>
     <g id="line2d_23">
      <g>
       <use style="stroke:#000000;stroke-width:0.5;" x="518.4" xlink:href="#md9a1c1a7cd" y="250.56"/>
      </g>
     </g>
     <g id="text_10">
      <!-- 0.4 -->
      <g transform="translate(49.76 253.9115625)scale(0.12 -0.12)">
       <use xlink:href="#Verdana-30"/>
       <use x="63.57421875" xlink:href="#Verdana-2e"/>
       <use x="99.951171875" xlink:href="#Verdana-34"/>
      </g>
     </g>
    </g>
    <g id="ytick_4">
     <g id="line2d_24">
      <g>
       <use style="stroke:#000000;stroke-width:0.5;" x="72.0" xlink:href="#md7965d1ba0" y="181.44"/>
      </g>
     </g>
     <g id="line2d_25">
      <g>
       <use style="stroke:#000000;stroke-width:0.5;" x="518.4" xlink:href="#md9a1c1a7cd" y="181.44"/>
      </g>
     </g>
     <g id="text_11">
      <!-- 0.6 -->
      <defs>
       <path d="
M58.1562 23.5781
Q58.1562 12.5 50.8594 5.48438
Q43.5625 -1.51562 32.9531 -1.51562
Q27.5938 -1.51562 23.1875 0.140625
Q18.7969 1.8125 15.4375 5.07812
Q11.2344 9.125 8.95312 15.8125
Q6.6875 22.5156 6.6875 31.9375
Q6.6875 41.6094 8.76562 49.0781
Q10.8438 56.5469 15.375 62.3594
Q19.6719 67.875 26.4531 70.9688
Q33.25 74.0781 42.2812 74.0781
Q45.1719 74.0781 47.125 73.8281
Q49.0781 73.5781 51.0781 72.9531
L51.0781 63.625
L50.5938 63.625
Q49.2188 64.3594 46.4531 65.0156
Q43.7031 65.6719 40.8281 65.6719
Q30.3281 65.6719 24.0781 59.1094
Q17.8281 52.5469 16.7969 41.3594
Q20.9062 43.8438 24.875 45.1406
Q28.8594 46.4375 34.0781 46.4375
Q38.7188 46.4375 42.25 45.5781
Q45.7969 44.7344 49.5156 42.1406
Q53.8125 39.1562 55.9844 34.6094
Q58.1562 30.0781 58.1562 23.5781
M48.25 23.1875
Q48.25 27.7344 46.9062 30.7031
Q45.5625 33.6875 42.4844 35.8906
Q40.2344 37.4531 37.5 37.9375
Q34.7656 38.4219 31.7812 38.4219
Q27.6406 38.4219 24.0781 37.4375
Q20.5156 36.4688 16.75 34.4219
Q16.6562 33.3438 16.5938 32.3438
Q16.5469 31.3438 16.5469 29.8281
Q16.5469 22.125 18.1406 17.6562
Q19.7344 13.1875 22.5156 10.5938
Q24.75 8.45312 27.3594 7.45312
Q29.9844 6.45312 33.0625 6.45312
Q40.1406 6.45312 44.1875 10.7656
Q48.25 15.0938 48.25 23.1875" id="Verdana-36"/>
      </defs>
      <g transform="translate(49.829375 184.7915625)scale(0.12 -0.12)">
       <use xlink:href="#Verdana-30"/>
       <use x="63.57421875" xlink:href="#Verdana-2e"/>
       <use x="99.951171875" xlink:href="#Verdana-36"/>
      </g>
     </g>
    </g>
    <g id="ytick_5">
     <g id="line2d_26">
      <g>
       <use style="stroke:#000000;stroke-width:0.5;" x="72.0" xlink:href="#md7965d1ba0" y="112.32"/>
      </g>
     </g>
     <g id="line2d_27">
      <g>
       <use style="stroke:#000000;stroke-width:0.5;" x="518.4" xlink:href="#md9a1c1a7cd" y="112.32"/>
      </g>
     </g>
     <g id="text_12">
      <!-- 0.8 -->
      <defs>
       <path d="
M57.625 20.2656
Q57.625 10.8438 50.2656 4.59375
Q42.9219 -1.65625 31.7812 -1.65625
Q19.9688 -1.65625 12.9531 4.4375
Q5.95312 10.5469 5.95312 20.0625
Q5.95312 26.125 9.46875 31.0312
Q12.9844 35.9375 19.3906 38.8125
L19.3906 39.1094
Q13.5312 42.2344 10.7188 45.9375
Q7.90625 49.6562 7.90625 55.2188
Q7.90625 63.4219 14.6406 68.8906
Q21.3906 74.3594 31.7812 74.3594
Q42.6719 74.3594 49.1719 69.1406
Q55.6719 63.9219 55.6719 55.8594
Q55.6719 50.9219 52.5938 46.1562
Q49.5156 41.4062 43.5625 38.7188
L43.5625 38.4219
Q50.3906 35.5 54 31.2031
Q57.625 26.9062 57.625 20.2656
M46.0469 55.7656
Q46.0469 60.9844 42.0156 64.0781
Q37.9844 67.1875 31.7344 67.1875
Q25.5938 67.1875 21.6562 64.25
Q17.7188 61.3281 17.7188 56.3438
Q17.7188 52.8281 19.7031 50.2656
Q21.6875 47.7031 25.6875 45.7031
Q27.4844 44.8281 30.875 43.4062
Q34.2812 42 37.5 41.0625
Q42.3281 44.2812 44.1875 47.75
Q46.0469 51.2188 46.0469 55.7656
M47.5625 19.3438
Q47.5625 23.8281 45.5781 26.5312
Q43.6094 29.25 37.8438 31.9844
Q35.5469 33.0625 32.8125 33.9844
Q30.0781 34.9062 25.5312 36.5781
Q21.1406 34.1875 18.4844 30.0781
Q15.8281 25.9844 15.8281 20.7969
Q15.8281 14.2031 20.3594 9.90625
Q24.9062 5.60938 31.8906 5.60938
Q39.0156 5.60938 43.2812 9.26562
Q47.5625 12.9375 47.5625 19.3438" id="Verdana-38"/>
      </defs>
      <g transform="translate(49.893125 115.6715625)scale(0.12 -0.12)">
       <use xlink:href="#Verdana-30"/>
       <use x="63.57421875" xlink:href="#Verdana-2e"/>
       <use x="99.951171875" xlink:href="#Verdana-38"/>
      </g>
     </g>
    </g>
    <g id="ytick_6">
     <g id="line2d_28">
      <g>
       <use style="stroke:#000000;stroke-width:0.5;" x="72.0" xlink:href="#md7965d1ba0" y="43.2"/>
      </g>
     </g>
     <g id="line2d_29">
      <g>
       <use style="stroke:#000000;stroke-width:0.5;" x="518.4" xlink:href="#md9a1c1a7cd" y="43.2"/>
      </g>
     </g>
     <g id="text_13">
      <!-- 1.0 -->
      <g transform="translate(50.796875 46.5515625)scale(0.12 -0.12)">
       <use xlink:href="#Verdana-31"/>
       <use x="63.57421875" xlink:href="#Verdana-2e"/>
       <use x="99.951171875" xlink:href="#Verdana-30"/>
      </g>
     </g>
    </g>
    <g id="text_14">
     <!-- Data Profile T-0.0010000 -->
     <defs>
      <path d="
M43.0625 44.5312
L42.5781 44.5312
Q40.5312 45.0156 38.5938 45.2344
Q36.6719 45.4531 34.0312 45.4531
Q29.7812 45.4531 25.8281 43.5781
Q21.875 41.7031 18.2188 38.7188
L18.2188 0
L9.03125 0
L9.03125 54.5469
L18.2188 54.5469
L18.2188 46.4844
Q23.6875 50.875 27.8594 52.7031
Q32.0312 54.5469 36.375 54.5469
Q38.7656 54.5469 39.8438 54.4219
Q40.9219 54.2969 43.0625 53.9531
z
" id="Verdana-72"/>
      <path d="
M37.9375 27.3906
L7.46875 27.3906
L7.46875 36.2344
L37.9375 36.2344
z
" id="Verdana-2d"/>
      <path d="
M18.3125 0
L9.125 0
L9.125 75.9844
L18.3125 75.9844
z
" id="Verdana-6c"/>
      <path d="
M57.3281 50.7344
Q57.3281 45.9062 55.6406 41.7656
Q53.9531 37.6406 50.9219 34.625
Q47.1719 30.8594 42.0469 28.9688
Q36.9219 27.0938 29.1094 27.0938
L19.4375 27.0938
L19.4375 0
L9.76562 0
L9.76562 72.7031
L29.5 72.7031
Q36.0312 72.7031 40.5781 71.6094
Q45.125 70.5156 48.6406 68.1719
Q52.7812 65.375 55.0469 61.2188
Q57.3281 57.0781 57.3281 50.7344
M47.2656 50.4844
Q47.2656 54.25 45.9375 57.0312
Q44.625 59.8125 41.9375 61.5781
Q39.5938 63.0938 36.5938 63.75
Q33.5938 64.4062 29 64.4062
L19.4375 64.4062
L19.4375 35.3594
L27.5938 35.3594
Q33.4531 35.3594 37.1094 36.4062
Q40.7656 37.4531 43.0625 39.75
Q45.3594 42.0938 46.3125 44.6719
Q47.2656 47.2656 47.2656 50.4844" id="Verdana-50"/>
      <path d="
M61.625 64.1094
L35.6406 64.1094
L35.6406 0
L25.9844 0
L25.9844 64.1094
L0 64.1094
L0 72.7031
L61.625 72.7031
z
" id="Verdana-54"/>
      <path d="
M51.4219 0
L42.2812 0
L42.2812 5.8125
Q41.0625 4.98438 38.9844 3.48438
Q36.9219 2 34.9688 1.125
Q32.6719 0 29.6875 -0.75
Q26.7031 -1.51562 22.7031 -1.51562
Q15.3281 -1.51562 10.2031 3.35938
Q5.07812 8.25 5.07812 15.8281
Q5.07812 22.0156 7.73438 25.8438
Q10.4062 29.6875 15.3281 31.8906
Q20.3125 34.0781 27.2969 34.8594
Q34.2812 35.6406 42.2812 36.0312
L42.2812 37.4531
Q42.2812 40.5781 41.1875 42.625
Q40.0938 44.6719 38.0312 45.8438
Q36.0781 46.9688 33.3438 47.3594
Q30.6094 47.75 27.6406 47.75
Q24.0312 47.75 19.5781 46.7969
Q15.1406 45.8438 10.4062 44.0469
L9.90625 44.0469
L9.90625 53.375
Q12.5938 54.1094 17.6719 54.9844
Q22.75 55.8594 27.6875 55.8594
Q33.4531 55.8594 37.7188 54.9062
Q42 53.9531 45.125 51.6562
Q48.1875 49.4219 49.7969 45.8438
Q51.4219 42.2812 51.4219 37.0156
z

M42.2812 13.4219
L42.2812 28.6094
Q38.0938 28.375 32.3906 27.875
Q26.7031 27.3906 23.3906 26.4688
Q19.4375 25.3438 16.9844 22.9688
Q14.5469 20.6094 14.5469 16.4531
Q14.5469 11.7656 17.375 9.39062
Q20.2188 7.03125 26.0312 7.03125
Q30.8594 7.03125 34.8594 8.90625
Q38.875 10.7969 42.2812 13.4219" id="Verdana-61"/>
      <path d="
M71.1875 36.2812
Q71.1875 26.375 66.8594 18.3125
Q62.5469 10.25 55.375 5.8125
Q50.3906 2.73438 44.2656 1.35938
Q38.1406 0 28.125 0
L9.76562 0
L9.76562 72.7031
L27.9375 72.7031
Q38.5781 72.7031 44.8438 71.1562
Q51.125 69.625 55.4688 66.9375
Q62.8906 62.3125 67.0312 54.5938
Q71.1875 46.875 71.1875 36.2812
M61.0781 36.4219
Q61.0781 44.9688 58.0938 50.8281
Q55.125 56.6875 49.2188 60.0625
Q44.9219 62.5 40.0781 63.4531
Q35.25 64.4062 28.5156 64.4062
L19.4375 64.4062
L19.4375 8.29688
L28.5156 8.29688
Q35.5 8.29688 40.7031 9.32812
Q45.9062 10.3594 50.25 13.1406
Q55.6719 16.6094 58.375 22.2656
Q61.0781 27.9375 61.0781 36.4219" id="Verdana-44"/>
     </defs>
     <g transform="translate(42.345 291.493125)rotate(-90.0)scale(0.12 -0.12)">
      <use xlink:href="#Verdana-44"/>
      <use x="77.05078125" xlink:href="#Verdana-61"/>
      <use x="137.109375" xlink:href="#Verdana-74"/>
      <use x="176.513671875" xlink:href="#Verdana-61"/>
      <use x="236.572265625" xlink:href="#Verdana-20"/>
      <use x="271.728515625" xlink:href="#Verdana-50"/>
      <use x="332.03125" xlink:href="#Verdana-72"/>
      <use x="374.70703125" xlink:href="#Verdana-6f"/>
      <use x="435.400390625" xlink:href="#Verdana-66"/>
      <use x="470.556640625" xlink:href="#Verdana-69"/>
      <use x="497.998046875" xlink:href="#Verdana-6c"/>
      <use x="525.439453125" xlink:href="#Verdana-65"/>
      <use x="585.009765625" xlink:href="#Verdana-20"/>
      <use x="620.166015625" xlink:href="#Verdana-54"/>
      <use x="674.412109375" xlink:href="#Verdana-2d"/>
      <use x="719.822265625" xlink:href="#Verdana-30"/>
      <use x="783.396484375" xlink:href="#Verdana-2e"/>
      <use x="819.7734375" xlink:href="#Verdana-30"/>
      <use x="883.34765625" xlink:href="#Verdana-30"/>
      <use x="946.921875" xlink:href="#Verdana-31"/>
      <use x="1010.49609375" xlink:href="#Verdana-30"/>
      <use x="1074.0703125" xlink:href="#Verdana-30"/>
      <use x="1137.64453125" xlink:href="#Verdana-30"/>
      <use x="1201.21875" xlink:href="#Verdana-30"/>
     </g>
    </g>
   </g>
   <g id="patch_3">
    <path d="
M72 388.8
L518.4 388.8" style="fill:none;stroke:#000000;"/>
   </g>
   <g id="patch_4">
    <path d="
M518.4 388.8
L518.4 43.2" style="fill:none;stroke:#000000;"/>
   </g>
   <g id="patch_5">
    <path d="
M72 388.8
L72 43.2" style="fill:none;stroke:#000000;"/>
   </g>
   <g id="patch_6">
    <path d="
M72 43.2
L518.4 43.2" style="fill:none;stroke:#000000;"/>
   </g>
   <g id="text_15">
    <!-- Giunta Data Profile T-0.0010000 -->
    <defs>
     <path d="
M70.4062 5.375
Q64.4531 2.64062 57.3906 0.609375
Q50.3438 -1.42188 43.75 -1.42188
Q35.25 -1.42188 28.1719 0.921875
Q21.0938 3.26562 16.1094 7.95312
Q11.0781 12.7031 8.34375 19.7969
Q5.60938 26.9062 5.60938 36.4219
Q5.60938 53.8594 15.7969 63.9375
Q25.9844 74.0312 43.75 74.0312
Q49.9531 74.0312 56.4219 72.5312
Q62.8906 71.0469 70.3594 67.4844
L70.3594 56
L69.4844 56
Q67.9688 57.1719 65.0781 59.0781
Q62.2031 60.9844 59.4219 62.25
Q56.0625 63.7656 51.7812 64.7656
Q47.5156 65.7656 42.0938 65.7656
Q29.8906 65.7656 22.7812 57.9219
Q15.6719 50.0938 15.6719 36.7188
Q15.6719 22.6094 23.0938 14.7656
Q30.5156 6.9375 43.3125 6.9375
Q48 6.9375 52.6562 7.85938
Q57.3281 8.79688 60.8438 10.25
L60.8438 28.0781
L41.3594 28.0781
L41.3594 36.5781
L70.4062 36.5781
z
" id="Verdana-47"/>
    </defs>
    <g transform="translate(178.243875 38.2)scale(0.144 -0.144)">
     <use xlink:href="#Verdana-47"/>
     <use x="77.5390625" xlink:href="#Verdana-69"/>
     <use x="104.98046875" xlink:href="#Verdana-75"/>
     <use x="168.26171875" xlink:href="#Verdana-6e"/>
     <use x="231.54296875" xlink:href="#Verdana-74"/>
     <use x="270.947265625" xlink:href="#Verdana-61"/>
     <use x="331.005859375" xlink:href="#Verdana-20"/>
     <use x="366.162109375" xlink:href="#Verdana-44"/>
     <use x="443.212890625" xlink:href="#Verdana-61"/>
     <use x="503.271484375" xlink:href="#Verdana-74"/>
     <use x="542.67578125" xlink:href="#Verdana-61"/>
     <use x="602.734375" xlink:href="#Verdana-20"/>
     <use x="637.890625" xlink:href="#Verdana-50"/>
     <use x="698.193359375" xlink:href="#Verdana-72"/>
     <use x="740.869140625" xlink:href="#Verdana-6f"/>
     <use x="801.5625" xlink:href="#Verdana-66"/>
     <use x="836.71875" xlink:href="#Verdana-69"/>
     <use x="864.16015625" xlink:href="#Verdana-6c"/>
     <use x="891.6015625" xlink:href="#Verdana-65"/>
     <use x="951.171875" xlink:href="#Verdana-20"/>
     <use x="986.328125" xlink:href="#Verdana-54"/>
     <use x="1040.57421875" xlink:href="#Verdana-2d"/>
     <use x="1085.984375" xlink:href="#Verdana-30"/>
     <use x="1149.55859375" xlink:href="#Verdana-2e"/>
     <use x="1185.935546875" xlink:href="#Verdana-30"/>
     <use x="1249.509765625" xlink:href="#Verdana-30"/>
     <use x="1313.083984375" xlink:href="#Verdana-31"/>
     <use x="1376.658203125" xlink:href="#Verdana-30"/>
     <use x="1440.232421875" xlink:href="#Verdana-30"/>
     <use x="1503.806640625" xlink:href="#Verdana-30"/>
     <use x="1567.380859375" xlink:href="#Verdana-30"/>
    </g>
   </g>
   <g id="legend_1">
    <g id="patch_7">
     <path d="
M407.18 270.759
L511.2 270.759
L511.2 161.241
L407.18 161.241
L407.18 270.759
z
" style="fill:#ffffff;stroke:#000000;"/>
    </g>
    <g id="line2d_30">
     <path d="
M417.26 172.902
L437.42 172.902" style="fill:none;stroke:#0000ff;stroke-dasharray:6.000000,2.000000;stroke-dashoffset:0.0;"/>
    </g>
    <g id="line2d_31"/>
    <g id="text_16">
     <!-- AMPGO -->
     <defs>
      <path d="
M67.0938 0
L56.7812 0
L49.6562 20.2656
L18.2188 20.2656
L11.0781 0
L1.26562 0
L27.7344 72.7031
L40.625 72.7031
z

M46.6875 28.5625
L33.9375 64.2656
L21.1406 28.5625
z
" id="Verdana-41"/>
      <path d="
M74.5156 0
L64.8438 0
L64.8438 62.6406
L44.625 20.0156
L38.875 20.0156
L18.7969 62.6406
L18.7969 0
L9.76562 0
L9.76562 72.7031
L22.9531 72.7031
L42.3281 32.2344
L61.0781 72.7031
L74.5156 72.7031
z
" id="Verdana-4d"/>
     </defs>
     <g transform="translate(453.26025 177.942375)scale(0.144 -0.144)">
      <use xlink:href="#Verdana-41"/>
      <use x="68.359375" xlink:href="#Verdana-4d"/>
      <use x="152.63671875" xlink:href="#Verdana-50"/>
      <use x="212.939453125" xlink:href="#Verdana-47"/>
      <use x="290.478515625" xlink:href="#Verdana-4f"/>
     </g>
    </g>
    <g id="line2d_32">
     <path d="
M417.26 193.942
L437.42 193.942" style="fill:none;stroke:#008000;stroke-dasharray:1.000000,1.000000;stroke-dashoffset:0.0;"/>
    </g>
    <g id="line2d_33"/>
    <g id="text_17">
     <!-- Anneal -->
     <g transform="translate(453.26025 198.982125)scale(0.144 -0.144)">
      <use xlink:href="#Verdana-41"/>
      <use x="68.359375" xlink:href="#Verdana-6e"/>
      <use x="131.640625" xlink:href="#Verdana-6e"/>
      <use x="194.921875" xlink:href="#Verdana-65"/>
      <use x="254.4921875" xlink:href="#Verdana-61"/>
      <use x="314.55078125" xlink:href="#Verdana-6c"/>
     </g>
    </g>
    <g id="line2d_34">
     <path d="
M417.26 214.982
L437.42 214.982" style="fill:none;stroke:#ff0000;stroke-dasharray:3.000000,6.000000;stroke-dashoffset:0.0;"/>
    </g>
    <g id="line2d_35"/>
    <g id="text_18">
     <!-- BSA -->
     <defs>
      <path d="
M64.5938 22.3594
Q64.5938 16.9375 62.5469 12.7812
Q60.5 8.64062 57.0312 5.95312
Q52.9375 2.73438 48.0156 1.35938
Q43.1094 0 35.5469 0
L9.76562 0
L9.76562 72.7031
L31.2969 72.7031
Q39.2656 72.7031 43.2188 72.1094
Q47.1719 71.5312 50.7812 69.6719
Q54.7812 67.5781 56.5938 64.2812
Q58.4062 60.9844 58.4062 56.3906
Q58.4062 51.2188 55.7656 47.5781
Q53.125 43.9531 48.7344 41.75
L48.7344 41.3594
Q56.1094 39.8438 60.3438 34.8906
Q64.5938 29.9375 64.5938 22.3594
M48.3438 55.125
Q48.3438 57.7656 47.4531 59.5625
Q46.5781 61.375 44.625 62.5
Q42.3281 63.8125 39.0625 64.125
Q35.7969 64.4531 30.9531 64.4531
L19.4375 64.4531
L19.4375 43.4531
L31.9375 43.4531
Q36.4688 43.4531 39.1562 43.9219
Q41.8438 44.3906 44.1406 45.8438
Q46.4375 47.3125 47.3906 49.625
Q48.3438 51.9531 48.3438 55.125
M54.5469 21.9688
Q54.5469 26.375 53.2188 28.9531
Q51.9062 31.5469 48.4375 33.3438
Q46.0938 34.5781 42.75 34.9375
Q39.4062 35.2969 34.625 35.2969
L19.4375 35.2969
L19.4375 8.25
L32.2344 8.25
Q38.5781 8.25 42.625 8.90625
Q46.6875 9.57812 49.2656 11.3281
Q52 13.2344 53.2656 15.6719
Q54.5469 18.1094 54.5469 21.9688" id="Verdana-42"/>
      <path d="
M62.5938 20.75
Q62.5938 16.5 60.6094 12.3438
Q58.6406 8.20312 55.0781 5.32812
Q51.1719 2.20312 45.9688 0.4375
Q40.7656 -1.3125 33.4531 -1.3125
Q25.5938 -1.3125 19.3125 0.140625
Q13.0312 1.60938 6.54688 4.5
L6.54688 16.6094
L7.23438 16.6094
Q12.75 12.0156 19.9688 9.51562
Q27.2031 7.03125 33.5469 7.03125
Q42.5312 7.03125 47.5312 10.3906
Q52.5469 13.7656 52.5469 19.3906
Q52.5469 24.2188 50.1719 26.5156
Q47.7969 28.8125 42.9688 30.0781
Q39.3125 31.0625 35.0312 31.6875
Q30.7656 32.3281 25.9844 33.2969
Q16.3125 35.3594 11.6406 40.3125
Q6.98438 45.2656 6.98438 53.2188
Q6.98438 62.3594 14.6875 68.1875
Q22.4062 74.0312 34.2812 74.0312
Q41.9375 74.0312 48.3281 72.5625
Q54.7344 71.0938 59.6719 68.9531
L59.6719 57.5156
L58.9844 57.5156
Q54.8281 61.0312 48.0625 63.3438
Q41.3125 65.6719 34.2344 65.6719
Q26.4688 65.6719 21.75 62.4531
Q17.0469 59.2344 17.0469 54.1562
Q17.0469 49.6094 19.3906 47.0156
Q21.7344 44.4375 27.6406 43.0625
Q30.7656 42.3906 36.5156 41.4062
Q42.2812 40.4375 46.2969 39.4062
Q54.3906 37.25 58.4844 32.9062
Q62.5938 28.5625 62.5938 20.75" id="Verdana-53"/>
     </defs>
     <g transform="translate(453.26025 220.021875)scale(0.144 -0.144)">
      <use xlink:href="#Verdana-42"/>
      <use x="68.5546875" xlink:href="#Verdana-53"/>
      <use x="135.9140625" xlink:href="#Verdana-41"/>
     </g>
    </g>
    <g id="line2d_36">
     <path d="
M417.26 236.022
L437.42 236.022" style="fill:none;stroke:#00bfbf;stroke-dasharray:5.000000,1.000000,2.000000,1.000000,5.000000,1.000000;stroke-dashoffset:0.0;"/>
    </g>
    <g id="line2d_37"/>
    <g id="text_19">
     <!-- Cuckoo -->
     <defs>
      <path d="
M58.5469 0
L46.4375 0
L24.5625 23.875
L18.6094 18.2188
L18.6094 0
L9.42188 0
L9.42188 75.9844
L18.6094 75.9844
L18.6094 27.25
L45.125 54.5469
L56.6875 54.5469
L31.3438 29.3438
z
" id="Verdana-6b"/>
      <path d="
M65.9219 5.28125
Q63.2344 4.10938 61.0625 3.07812
Q58.8906 2.04688 55.375 0.921875
Q52.3906 0 48.8906 -0.65625
Q45.4062 -1.3125 41.2188 -1.3125
Q33.2969 -1.3125 26.8281 0.90625
Q20.3594 3.125 15.5781 7.85938
Q10.8906 12.5 8.25 19.6562
Q5.60938 26.8125 5.60938 36.2812
Q5.60938 45.2656 8.14062 52.3438
Q10.6875 59.4219 15.4844 64.3125
Q20.125 69.0469 26.6875 71.5312
Q33.25 74.0312 41.2656 74.0312
Q47.125 74.0312 52.9531 72.6094
Q58.7969 71.1875 65.9219 67.625
L65.9219 56.1562
L65.1875 56.1562
Q59.1875 61.1875 53.2656 63.4688
Q47.3594 65.7656 40.625 65.7656
Q35.1094 65.7656 30.6875 63.9844
Q26.2656 62.2031 22.7969 58.4531
Q19.4375 54.7812 17.5469 49.1875
Q15.6719 43.6094 15.6719 36.2812
Q15.6719 28.6094 17.75 23.0938
Q19.8281 17.5781 23.0938 14.1094
Q26.5156 10.5 31.0781 8.76562
Q35.6406 7.03125 40.7188 7.03125
Q47.7031 7.03125 53.7969 9.42188
Q59.9062 11.8125 65.2344 16.6094
L65.9219 16.6094
z
" id="Verdana-43"/>
     </defs>
     <g transform="translate(453.26025 241.061625)scale(0.144 -0.144)">
      <use xlink:href="#Verdana-43"/>
      <use x="69.82421875" xlink:href="#Verdana-75"/>
      <use x="133.10546875" xlink:href="#Verdana-63"/>
      <use x="185.205078125" xlink:href="#Verdana-6b"/>
      <use x="243.384765625" xlink:href="#Verdana-6f"/>
      <use x="304.078125" xlink:href="#Verdana-6f"/>
     </g>
    </g>
    <g id="line2d_38">
     <path d="
M417.26 257.061
L437.42 257.061" style="fill:none;stroke:#bf00bf;stroke-linecap:square;"/>
    </g>
    <g id="line2d_39"/>
    <g id="text_20">
     <!-- qABC -->
     <defs>
      <path d="
M53.2656 -20.125
L44.0938 -20.125
L44.0938 6.15625
Q39.8438 2.48438 35.6406 0.703125
Q31.4531 -1.07812 26.5625 -1.07812
Q16.8438 -1.07812 11.0625 6.42188
Q5.28125 13.9219 5.28125 27.0938
Q5.28125 34.125 7.29688 39.5156
Q9.32812 44.9219 12.6406 48.5781
Q15.875 52.1562 20.2188 54.1094
Q24.5625 56.0625 29.3906 56.0625
Q33.7969 56.0625 37.1875 55.0781
Q40.5781 54.1094 44.0938 52.2031
L44.6719 54.5469
L53.2656 54.5469
z

M44.0938 13.875
L44.0938 44.7344
Q40.2812 46.4375 37.3438 47.1094
Q34.4219 47.7969 31 47.7969
Q23.0469 47.7969 18.8906 42.4062
Q14.75 37.0156 14.75 27.5469
Q14.75 17.9688 18.0938 12.8125
Q21.4375 7.67188 28.6094 7.67188
Q32.625 7.67188 36.625 9.40625
Q40.625 11.1406 44.0938 13.875" id="Verdana-71"/>
     </defs>
     <g transform="translate(453.26025 262.101375)scale(0.144 -0.144)">
      <use xlink:href="#Verdana-71"/>
      <use x="62.3046875" xlink:href="#Verdana-41"/>
      <use x="130.6640625" xlink:href="#Verdana-42"/>
      <use x="199.21875" xlink:href="#Verdana-43"/>
     </g>
    </g>
   </g>
  </g>
 </g>
 <defs>
  <clipPath id="p7ff5b81e1d">
   <rect height="345.6" width="446.4" x="72.0" y="43.2"/>
  </clipPath>
 </defs>
</svg>
