<?xml version="1.0" encoding="utf-8" standalone="no"?>
<!DOCTYPE svg PUBLIC "-//W3C//DTD SVG 1.1//EN"
  "http://www.w3.org/Graphics/SVG/1.1/DTD/svg11.dtd">
<!-- Created with matplotlib (http://matplotlib.org/) -->
<svg height="432pt" version="1.1" viewBox="0 0 576 432" width="576pt" xmlns="http://www.w3.org/2000/svg" xmlns:xlink="http://www.w3.org/1999/xlink">
 <defs>
  <style type="text/css">
*{stroke-linecap:butt;stroke-linejoin:round;}
  </style>
 </defs>
 <g id="figure_1">
  <g id="patch_1">
   <path d="
M0 432
L576 432
L576 0
L0 0
z
" style="fill:#ffffff;"/>
  </g>
  <g id="axes_1">
   <g id="patch_2">
    <path d="
M72 388.8
L518.4 388.8
L518.4 43.2
L72 43.2
z
" style="fill:#ffffff;"/>
   </g>
   <g id="line2d_1">
    <path clip-path="url(#p7ff5b81e1d)" d="
M72 309.318
L72.0893 340.198
L72.1786 353.968
L72.4464 370.065
L72.8035 377.592
L72.8928 378.749
L72.9821 311.912
L73.0714 315.65
L73.607 333.82
L73.7856 337.018
L73.8749 245.974
L73.9642 248.531
L74.6784 267.158
L74.7677 238.792
L74.857 241.725
L75.5712 260.897
L75.6605 191.932
L75.7498 196.016
L76.464 224.088
L76.5533 199.57
L76.6426 202.869
L77.3568 228.364
L77.4461 201.842
L77.5354 203.694
L78.2496 217.798
L78.3389 202.765
L78.4282 203.791
L78.8746 211.464
L79.1424 216.189
L79.2317 208.321
L80.0352 229.352
L80.1245 225.381
L80.928 240.888
L81.0173 237.884
L81.4637 242.174
L81.8208 245.026
L81.9101 242.617
L82.7136 251.704
L82.8029 250.541
L84.2314 272.767
L84.4992 275.669
L84.5885 275.063
L85.392 278.713
L85.4813 278.363
L86.2848 281.679
L86.7312 286.402
L87.3562 291.672
L87.9811 297.427
L88.249 297.955
L88.7846 299.275
L88.8739 299.456
L89.0525 300.035
L89.7667 301.608
L90.2131 305.125
L90.5702 307.528
L91.2845 311.294
L91.5523 312.866
L91.6416 312.872
L91.9987 313.465
L92.1773 313.638
L92.4451 314.032
L92.9808 314.791
L93.2486 315.449
L93.4272 315.819
L93.5165 316.028
L94.2307 319.645
L94.4093 320.189
L95.0342 323.658
L95.2128 324.217
L95.3021 324.302
L95.5699 324.748
L95.7485 324.847
L96.8198 326.654
L96.9091 326.694
L97.3555 328.596
L97.6234 329.495
L98.784 332.286
L99.0518 332.386
L99.3197 332.549
L100.57 333.532
L100.837 334.142
L101.016 334.158
L101.284 334.784
L101.462 335.03
L101.73 335.819
L102.444 336.878
L103.248 337.377
L103.605 337.608
L104.141 337.944
L105.212 339.878
L106.105 340.752
L106.284 340.817
L106.908 341.171
L107.176 341.312
L107.444 341.444
L107.712 341.498
L107.98 341.805
L108.248 341.876
L108.426 342.155
L108.783 342.474
L108.962 342.589
L109.319 343.198
L110.837 343.598
L111.194 343.668
L112.087 344.323
L112.265 344.414
L112.622 344.855
L112.89 345.048
L113.337 345.397
L113.694 345.51
L114.319 345.92
L114.676 345.999
L114.854 346.052
L115.033 346.168
L115.122 346.171
L115.39 346.614
L115.747 346.729
L115.836 346.745
L116.104 347
L117.711 347.583
L118.426 347.689
L118.604 347.87
L118.872 347.965
L119.229 348.176
L119.943 348.594
L120.568 348.829
L121.908 349.172
L122.175 349.429
L123.782 350.164
L125.3 350.596
L126.372 351.109
L126.729 351.208
L127.175 351.405
L127.711 351.542
L129.318 351.871
L129.586 352.038
L130.211 352.14
L130.568 352.379
L131.014 352.424
L132.978 352.813
L133.603 353.118
L133.692 353.144
L133.871 353.318
L134.585 353.532
L135.657 353.728
L136.192 353.821
L136.46 354.028
L136.996 354.117
L137.621 354.369
L137.889 354.42
L138.156 354.497
L138.603 354.561
L139.317 354.661
L139.585 354.749
L141.281 355.027
L141.549 355.141
L144.406 355.532
L144.674 355.644
L145.567 355.75
L148.156 356.061
L148.602 356.228
L150.209 356.409
L152.263 356.678
L154.227 356.789
L155.566 356.971
L158.602 357.243
L159.405 357.308
L161.191 357.408
L163.244 357.589
L165.476 357.698
L166.994 357.78
L170.297 357.939
L173.958 358.049
L176.636 358.073
L209.045 358.272
L518.311 358.312
L518.311 358.312" style="fill:none;stroke:#0000ff;stroke-dasharray:6.000000,2.000000;stroke-dashoffset:0.0;"/>
   </g>
   <g id="line2d_2">
    <path clip-path="url(#p7ff5b81e1d)" d="
M72 311.455
L72.0893 331.437
L72.1786 339.56
L72.3571 340.672
L72.5357 337.65
L72.8035 330.221
L72.8928 326.347
L72.9821 331.696
L73.6963 299.298
L73.7856 293.054
L73.8749 311.049
L74.6784 260.242
L74.7677 268.193
L75.4819 229.329
L75.5712 226.418
L75.6605 265.918
L75.7498 262.236
L76.3747 243.732
L76.464 242.619
L76.5533 257.271
L76.6426 255.749
L77.3568 239.962
L77.4461 255.11
L77.5354 252.205
L78.2496 232.496
L78.3389 241.709
L78.4282 240.298
L78.7853 231.397
L79.1424 225.9
L79.2317 232.576
L79.321 231.906
L79.9459 225.712
L80.0352 225.624
L80.1245 229.081
L80.2138 228.57
L80.4816 227.255
L80.7494 224.993
L80.8387 225.443
L80.928 223.971
L81.0173 225.499
L81.4637 218.554
L81.8208 213.63
L81.9101 215.097
L82.4458 207.376
L82.6243 205.401
L82.7136 205.897
L82.8029 207.279
L82.8922 206.878
L82.9814 206.933
L83.2493 208.404
L83.4278 207.523
L83.5171 208.147
L83.6064 207.774
L83.785 210.337
L83.8742 210.595
L83.9635 211.534
L84.0528 211.25
L84.1421 211.475
L84.3206 210.877
L84.4099 211.206
L84.4992 210.1
L84.5885 210.172
L84.9456 207.095
L85.392 203.422
L85.4813 203.167
L85.7491 201.356
L85.8384 201.099
L86.1955 198.334
L86.2848 198.37
L86.4634 198.722
L86.5526 199.205
L86.7312 198.912
L86.9098 199.567
L87.0883 199.804
L87.624 200.718
L87.9811 199.706
L88.8739 194.293
L89.1418 192.97
L89.5882 190.49
L89.7667 189.379
L89.856 189.625
L89.9453 189.523
L90.1238 190.743
L90.481 191.572
L90.6595 192.243
L90.7488 192.547
L90.8381 192.439
L91.1952 193.754
L91.2845 193.72
L91.463 193.364
L91.5523 193.849
L91.6416 193.582
L91.9094 192.345
L92.713 189.886
L93.0701 187.701
L93.3379 185.989
L93.4272 185.923
L93.6058 186.211
L94.1414 188.451
L94.4093 188.94
L94.4986 189.911
L94.5878 189.875
L94.6771 189.77
L94.7664 190.246
L94.8557 190.049
L94.945 190.402
L95.0342 190.223
L95.1235 190.467
L95.927 185.892
L96.0163 185.806
L96.2842 185.005
L96.4627 184.257
L96.7306 182.932
L96.9091 182.612
L96.9984 183.132
L97.0877 182.785
L97.2662 183.791
L97.3555 183.715
L97.7126 184.665
L97.8912 184.124
L98.0698 184.331
L99.0518 181.627
L99.409 180.278
L99.4982 180.146
L99.8554 178.471
L100.391 176.818
L100.57 176.165
L100.748 176.143
L100.927 175.724
L101.195 175.913
L101.284 175.335
L101.373 175.525
L101.462 175.136
L101.552 175.499
L101.641 175.061
L101.82 175.619
L101.909 175.409
L102.087 174.727
L102.355 174.706
L102.444 174.614
L102.891 172.76
L103.694 169.837
L103.784 169.748
L104.141 168.721
L104.319 169.036
L104.498 168.765
L104.587 168.903
L104.766 168.67
L104.855 168.783
L105.034 169.266
L105.212 169.455
L105.301 168.974
L105.48 169.191
L105.569 169.128
L105.748 168.793
L105.837 168.854
L106.016 168.559
L106.284 167.692
L106.373 167.55
L106.73 166.485
L106.998 165.958
L107.087 166.01
L107.355 165.579
L107.623 164.586
L107.891 164.202
L108.069 163.854
L108.248 163.799
L108.426 163.396
L108.605 163.584
L108.873 162.98
L109.23 163.181
L109.319 163.489
L109.408 163.337
L109.676 162.477
L109.855 162.144
L110.033 161.998
L110.39 161.23
L110.748 160.878
L111.194 159.67
L111.462 160.169
L111.551 160.275
L111.819 159.742
L111.908 159.725
L112.087 159.828
L112.533 159.473
L112.622 159.611
L112.801 159.435
L112.89 159.464
L113.069 159.584
L113.604 158.755
L113.783 158.708
L113.962 158.583
L114.051 158.499
L114.14 158.587
L114.319 158.246
L114.587 157.7
L114.765 157.363
L114.944 156.972
L115.033 157.006
L115.122 156.884
L115.39 157.246
L116.015 156.562
L116.104 156.682
L116.194 156.368
L116.283 156.457
L116.461 156.299
L116.64 156.226
L116.819 155.963
L116.908 155.874
L117.086 155.471
L117.265 155.614
L117.444 155.229
L117.533 155.263
L117.801 155.073
L117.89 155.025
L117.979 154.745
L118.068 154.778
L118.336 154.304
L118.961 153.773
L119.229 153.771
L119.408 153.862
L119.497 153.903
L119.676 154.243
L119.854 154.297
L120.033 153.903
L120.122 154.084
L120.747 153.501
L121.104 152.797
L121.818 151.821
L121.908 151.82
L122.175 152.235
L122.265 151.972
L122.354 152.005
L122.443 152.044
L122.622 151.894
L122.89 152.236
L123.515 151.743
L123.693 151.82
L124.14 151.066
L124.854 150.373
L125.122 149.961
L125.3 149.897
L125.479 149.52
L125.836 149.926
L125.925 149.488
L126.014 149.518
L126.193 149.499
L126.372 149.708
L126.461 149.705
L127.175 148.537
L127.443 148.486
L127.621 148.397
L128.425 146.731
L128.604 146.647
L128.782 146.329
L129.139 146.207
L129.407 145.796
L129.496 145.812
L130.032 145.288
L130.211 145.211
L130.3 145.187
L130.478 145.367
L130.657 145.078
L130.925 145.08
L131.46 144.062
L131.728 143.445
L132.264 142.683
L132.71 142.293
L132.8 142.241
L132.889 141.775
L132.978 141.834
L133.335 141.641
L133.514 141.814
L133.603 141.809
L133.692 141.535
L133.782 141.779
L133.96 141.564
L134.228 141.738
L135.032 141.624
L135.21 141.595
L135.567 140.624
L135.746 140.6
L136.103 140.023
L136.282 140.001
L136.371 140.032
L136.549 139.788
L136.639 139.789
L136.907 139.355
L136.996 139.319
L137.174 139.497
L137.71 139.117
L137.978 139.141
L138.603 138.109
L138.96 137.962
L139.406 137.715
L139.674 137.778
L139.853 137.593
L139.942 137.647
L140.21 137.183
L140.478 136.992
L140.835 136.08
L140.924 136.047
L141.103 135.682
L141.371 135.829
L141.549 135.964
L141.728 135.998
L142.085 135.33
L142.263 135.003
L142.442 134.959
L142.799 134.272
L143.335 133.905
L143.513 133.98
L143.781 133.868
L143.96 133.974
L144.049 133.917
L144.138 134.083
L144.317 134.006
L144.585 134.005
L144.763 134.084
L145.12 133.856
L145.299 133.615
L145.567 133.676
L145.745 133.55
L146.638 133.181
L146.906 132.91
L147.084 132.803
L147.352 132.878
L147.709 132.613
L147.888 132.672
L148.067 132.516
L148.424 132.722
L148.602 132.592
L148.781 132.614
L149.049 132.587
L149.227 132.527
L149.495 132.39
L149.674 132.347
L149.852 132.033
L150.299 131.99
L150.566 131.89
L150.656 131.865
L150.834 131.979
L151.102 131.83
L151.191 131.922
L151.37 131.864
L151.638 131.858
L152.084 131.279
L152.441 131.266
L152.888 131.151
L153.066 130.932
L153.334 130.844
L153.513 130.819
L153.959 129.588
L154.227 129.455
L154.316 129.481
L154.584 129.068
L155.209 129.084
L155.388 129.054
L155.834 128.748
L156.012 128.732
L156.191 128.554
L156.28 128.54
L156.459 128.288
L156.548 128.29
L156.727 128.059
L156.995 128.041
L157.173 127.971
L157.352 127.818
L157.62 127.832
L157.887 127.575
L157.977 127.572
L158.066 127.418
L158.155 127.471
L159.048 126.874
L159.227 126.93
L159.762 126.527
L159.852 126.139
L159.941 126.166
L160.566 125.014
L160.744 124.853
L161.012 124.315
L161.459 124.254
L161.816 124.137
L161.994 123.896
L162.262 123.868
L162.441 123.224
L162.708 123.164
L162.887 122.972
L162.976 123.016
L163.155 122.848
L163.244 122.86
L163.423 122.634
L163.78 122.64
L164.048 122.463
L164.316 122.319
L164.494 122.296
L164.673 122.101
L164.851 122.099
L165.298 121.688
L165.387 121.734
L165.655 121.372
L166.101 121.302
L166.458 121.274
L166.726 121.245
L166.905 121.189
L167.172 121.175
L167.262 121.174
L167.53 120.892
L167.708 120.835
L168.065 120.44
L168.422 120.432
L168.601 120.262
L168.869 120.3
L169.047 120.024
L169.226 120.067
L169.494 119.958
L169.762 120.017
L170.029 119.906
L170.476 119.775
L170.654 119.494
L170.833 119.492
L171.101 119.355
L171.279 119.346
L171.458 119.193
L171.815 119.137
L171.994 119.059
L172.083 119.059
L172.261 118.924
L172.351 118.908
L172.619 118.434
L172.886 118.432
L173.065 118.397
L173.779 118.506
L174.047 118.298
L174.315 118.236
L174.493 118.13
L174.851 117.999
L175.297 117.841
L175.386 117.84
L175.565 117.761
L176.19 117.791
L176.636 117.303
L176.725 117.275
L176.904 117.145
L177.261 117.043
L177.44 116.92
L177.975 116.826
L178.065 116.812
L178.243 116.6
L178.422 116.532
L178.6 116.346
L179.047 115.876
L179.315 115.584
L179.582 115.456
L179.672 115.456
L179.85 115.31
L181.189 115.026
L181.368 114.721
L181.547 114.614
L181.725 114.291
L182.082 114.222
L182.35 114.011
L182.529 113.764
L182.975 113.496
L183.243 113.454
L183.868 113.519
L184.046 113.289
L184.761 113.288
L185.296 112.925
L185.564 112.874
L185.832 112.461
L186.278 112.397
L186.457 112.011
L186.814 111.95
L187.439 111.637
L187.618 111.652
L187.796 111.423
L188.064 111.404
L188.243 110.898
L188.421 110.823
L188.957 110.666
L189.85 110.396
L190.028 110.155
L190.742 110.138
L191.01 109.928
L191.278 109.898
L191.457 109.805
L191.903 109.713
L192.082 109.598
L193.153 109.498
L193.332 109.366
L193.51 109.38
L193.956 109.346
L194.224 109.304
L194.849 109.223
L195.117 109.169
L196.01 109.061
L196.188 108.619
L196.813 108.508
L197.081 108.398
L197.528 108.384
L197.706 108.133
L197.796 108.135
L197.974 107.896
L198.242 107.779
L198.42 107.442
L199.313 107.383
L199.492 107.019
L200.028 106.965
L200.295 106.746
L201.277 106.722
L201.456 106.629
L201.724 106.608
L201.813 106.654
L201.992 106.24
L202.17 106.095
L202.617 106.091
L202.884 105.663
L203.867 105.567
L204.045 105.546
L204.224 105.338
L204.402 105.343
L204.581 105.113
L204.849 105.039
L205.295 104.965
L205.474 104.645
L205.741 104.574
L205.92 104.572
L206.099 103.959
L207.17 103.867
L207.348 103.578
L207.795 103.555
L207.973 103.268
L208.241 103.197
L208.42 103.205
L208.598 103.019
L209.67 102.782
L209.938 102.568
L211.009 102.493
L211.366 102.256
L212.08 102.206
L212.259 101.556
L212.795 101.51
L212.973 101.193
L213.152 101.098
L213.509 101.042
L213.687 100.865
L213.866 100.875
L214.044 100.737
L214.491 100.626
L214.669 100.536
L214.937 100.434
L215.294 100.401
L215.473 100.246
L216.455 100.2
L216.723 100.154
L217.437 100.051
L217.526 100.024
L217.884 99.448
L218.062 99.3253
L218.419 99.3255
L218.598 99.0547
L219.044 98.9823
L219.312 98.8729
L220.026 98.7866
L220.383 98.7542
L221.187 98.6685
L221.365 98.5509
L221.99 98.4632
L222.169 98.2652
L224.312 98.2297
L224.49 97.9492
L225.115 97.7899
L225.383 97.7196
L226.187 97.6463
L226.365 97.4287
L226.544 97.4181
L226.722 97.3239
L227.436 97.2447
L227.615 97.0717
L227.972 97.068
L228.151 96.801
L228.419 96.769
L228.597 96.5415
L228.865 96.5185
L229.044 96.4044
L229.222 96.3936
L229.401 96.2535
L230.115 96.2283
L230.472 96.2323
L230.651 96.0227
L231.008 96.0235
L231.186 95.8418
L232.704 95.7704
L232.883 95.5603
L233.418 95.5022
L233.775 95.4694
L234.043 95.4721
L234.222 95.0415
L234.579 94.9926
L234.757 94.9098
L235.115 94.9099
L235.293 94.4915
L236.989 94.3512
L237.436 94.0986
L239.132 94.0672
L239.311 93.8407
L239.668 93.8424
L239.936 93.6363
L240.382 93.6141
L240.561 93.4643
L241.9 93.3828
L242.078 93.0371
L244.846 92.8195
L245.025 92.5672
L246.185 92.1643
L246.275 92.1644
L246.453 91.9835
L248.328 91.9199
L248.507 91.6396
L248.953 91.4406
L250.114 91.351
L250.471 91.3263
L250.649 91.1172
L251.274 90.9869
L251.721 90.9289
L252.256 90.9289
L252.435 90.7312
L252.881 90.636
L252.971 90.6233
L253.149 90.3957
L253.506 90.3869
L253.685 90.0624
L253.863 89.9532
L254.22 89.9478
L254.399 89.7049
L254.578 89.6145
L254.756 89.6163
L254.935 89.4499
L255.56 89.4597
L255.828 88.9567
L257.167 88.8882
L257.345 88.8142
L258.238 88.7559
L258.506 88.7393
L258.684 88.4676
L259.934 88.4088
L261.095 88.3027
L261.274 88.1624
L261.72 88.1654
L261.899 87.9537
L263.148 87.9491
L263.327 87.6756
L264.041 87.5891
L264.309 87.5112
L264.577 87.4619
L265.47 87.3657
L266.095 87.3237
L266.541 87.3293
L266.72 87.0348
L267.434 87.0002
L267.612 86.8306
L269.309 86.7581
L269.755 86.62
L271.273 86.5176
L271.452 86.3561
L272.434 86.3298
L272.701 85.7997
L272.88 85.6849
L273.594 85.6564
L273.862 85.3218
L274.308 85.2567
L274.576 84.7568
L277.88 84.6559
L278.237 84.6075
L278.415 84.3942
L280.915 84.3229
L281.094 84.0656
L281.54 84.0482
L282.165 83.462
L282.433 83.3511
L282.612 83.2346
L284.397 83.1489
L284.576 82.9405
L287.076 82.8339
L287.433 82.8166
L287.611 82.6073
L287.79 82.6082
L287.968 82.3796
L288.058 82.3808
L288.236 81.9023
L291.093 81.8534
L291.361 81.4919
L291.718 81.4659
L291.897 81.2753
L292.075 81.1861
L293.504 81.1016
L293.682 80.8657
L294.754 80.8274
L294.932 80.5849
L296.004 80.4896
L296.271 80.4387
L300.021 80.3799
L300.289 80.3049
L300.378 80.3049
L300.557 80.139
L301.271 80.1263
L301.45 79.8519
L301.628 79.8508
L301.807 79.7343
L302.61 79.7357
L302.789 79.6019
L304.039 79.5755
L304.217 79.4676
L305.11 79.4728
L305.289 79.3635
L305.914 79.3518
L306.449 79.35
L306.628 79.205
L307.967 79.1004
L308.681 78.9861
L308.86 78.8344
L310.02 78.7806
L310.288 78.7234
L310.378 78.7234
L310.735 78.0672
L311.538 78.0484
L311.717 77.8197
L314.127 77.8095
L314.306 77.6815
L314.395 77.6815
L314.574 77.4242
L314.752 77.4242
L314.931 77.2911
L315.02 77.2911
L315.199 77.0113
L317.877 76.9687
L318.056 76.8967
L318.502 76.8967
L318.681 76.6651
L319.216 76.6679
L319.395 76.3893
L323.948 76.2946
L324.216 75.9921
L326.716 75.8857
L326.894 75.781
L327.876 75.7513
L328.055 75.5935
L328.144 75.5935
L328.323 75.3127
L330.644 75.211
L330.733 75.1648
L330.912 74.956
L332.698 74.8735
L332.876 74.6762
L332.965 74.6762
L333.144 74.5333
L334.215 74.54
L334.394 74.4592
L335.822 74.4576
L336.001 74.1942
L337.429 74.1873
L337.608 74.028
L337.876 73.9335
L338.233 73.8981
L339.483 73.8814
L339.661 73.7603
L344.215 73.6611
L344.393 73.3867
L344.929 73.3884
L345.108 73.1731
L346.268 73.1618
L346.447 72.9728
L348.054 72.876
L348.232 72.6604
L351.268 72.6457
L351.446 72.4686
L352.696 72.4121
L352.875 72.1899
L354.303 72.1627
L354.482 71.9155
L355.196 71.8716
L355.375 71.7104
L356.268 71.7031
L356.446 71.4307
L360.91 71.3271
L362.249 71.1345
L365.017 71.072
L365.196 70.9686
L365.285 70.9692
L365.463 70.7821
L366.892 70.6717
L368.231 70.5245
L369.838 70.483
L370.017 70.3838
L373.32 70.3328
L373.499 70.2532
L375.016 70.1526
L375.195 70.0445
L376.177 70.0249
L376.356 69.9097
L377.873 69.9029
L378.052 69.7326
L380.373 69.6629
L380.552 69.5196
L380.73 69.4927
L380.909 69.2198
L381.98 69.1173
L382.159 68.8935
L383.766 68.86
L383.944 68.6833
L385.73 68.6022
L386.087 68.5636
L387.873 68.4592
L388.14 68.3162
L388.408 68.2766
L388.587 68.0709
L388.765 67.9495
L389.48 67.8446
L389.658 67.642
L390.462 67.6436
L390.64 67.342
L390.908 67.2805
L391.087 67.1527
L394.301 67.0826
L394.479 66.9886
L394.658 66.9887
L394.836 66.7978
L403.05 66.773
L403.229 66.6088
L404.3 66.6038
L404.479 66.3931
L407.514 66.3717
L407.693 66.2533
L408.407 66.2549
L408.586 65.9812
L415.817 65.8967
L416.264 65.8672
L417.246 65.8694
L417.424 65.7025
L422.603 65.6034
L422.781 65.4247
L424.745 65.4194
L424.924 65.1815
L426.442 65.1829
L426.62 64.9359
L430.995 64.8716
L436.084 64.822
L436.262 64.7316
L439.476 64.7308
L439.655 64.4966
L446.976 64.4816
L447.155 64.23
L448.315 64.2304
L448.494 64.0361
L454.118 64.0077
L454.297 63.7333
L457.868 63.6534
L458.85 63.4072
L469.028 63.4044
L469.207 63.1467
L471.974 63.1485
L472.153 62.895
L473.581 62.8284
L473.76 62.7523
L474.028 62.7417
L474.206 62.5495
L478.045 62.5601
L478.224 62.3873
L482.242 62.2836
L483.313 62.2736
L487.956 62.2749
L488.134 62.0496
L492.866 62.034
L493.044 61.753
L497.419 61.6986
L497.598 61.4287
L501.348 61.4309
L501.526 61.2894
L505.633 61.2188
L505.812 61.0154
L507.776 61.0205
L507.954 60.8298
L509.204 60.8316
L509.383 60.6207
L516.347 60.5821
L516.525 60.4157
L518.311 60.3986
L518.311 60.3986" style="fill:none;stroke:#008000;stroke-dasharray:1.000000,1.000000;stroke-dashoffset:0.0;"/>
   </g>
   <g id="line2d_3">
    <path clip-path="url(#p7ff5b81e1d)" d="
M72 317.3
L72.0893 302.164
L72.2678 289.187
L72.3571 290.751
L72.4464 287.512
L72.625 291.358
L72.7142 291.578
L72.8928 287.994
L73.0714 308.052
L73.2499 306.507
L73.4285 311.22
L73.5178 310.415
L73.7856 313.925
L73.9642 339.345
L74.5891 345.882
L74.6784 346.941
L74.857 353.441
L75.5712 360.122
L75.7498 371.966
L75.9283 372.973
L76.1962 374.099
L76.2854 374.149
L76.464 375.476
L76.6426 378.598
L76.7318 378.604
L77.1782 380.174
L77.3568 380.626
L77.5354 381.957
L77.9818 382.371
L78.1603 382.383
L78.2496 382.436
L78.4282 383.029
L78.7853 383.093
L79.0531 383.045
L79.1424 383.173
L79.321 383.824
L79.5888 384.149
L79.8566 384.495
L80.0352 384.562
L80.1245 384.83
L80.2138 384.618
L80.303 384.687
L80.928 385.376
L81.2851 385.37
L81.6422 385.453
L81.7315 385.111
L81.8208 385.163
L82.0886 385.311
L82.8029 385.722
L82.8922 385.809
L82.9814 385.612
L83.4278 385.967
L83.785 385.679
L84.5885 386.032
L85.0349 386.101
L85.1242 386.014
L85.2134 385.575
L85.3027 385.595
L85.4813 385.487
L85.5706 385.466
L85.7491 385.296
L86.3741 385.487
L87.2669 385.898
L87.7133 386.095
L87.8918 386.056
L88.249 386.119
L88.5168 386.125
L88.6954 385.944
L90.3917 386.166
L90.481 385.852
L90.5702 385.892
L90.7488 385.958
L91.0166 385.858
L91.8202 386.071
L92.2666 386.046
L92.9808 385.933
L93.4272 386.015
L93.9629 386.073
L94.2307 386.178
L94.6771 386.263
L95.3914 386.463
L95.927 386.415
L96.1056 386.221
L96.2842 386.126
L96.4627 385.819
L97.2662 385.97
L97.4448 385.855
L98.6054 385.986
L99.1411 386.003
L99.4982 385.984
L99.6768 385.802
L100.123 385.807
L100.212 385.79
L100.391 385.629
L101.016 385.695
L101.284 385.773
L102.087 385.844
L102.623 385.854
L103.248 385.757
L104.319 385.838
L104.498 385.602
L104.676 385.577
L106.284 385.744
L106.373 385.742
L106.551 385.601
L108.337 385.592
L108.516 385.541
L109.587 385.756
L109.765 385.651
L110.48 385.586
L110.658 385.385
L111.64 385.448
L112.265 385.575
L112.444 385.394
L112.89 385.453
L112.98 385.46
L113.158 385.167
L113.694 385.092
L113.872 384.782
L114.14 384.835
L114.319 384.759
L114.587 384.782
L114.765 384.689
L115.212 384.744
L115.39 384.714
L115.658 384.788
L115.926 384.676
L116.194 384.646
L116.372 384.573
L117.444 384.507
L117.801 384.276
L118.693 384.275
L119.14 384.413
L119.318 384.34
L119.586 384.263
L120.211 384.056
L120.568 384.004
L120.836 383.873
L121.193 383.82
L121.372 383.762
L122.175 383.838
L122.532 384.006
L122.711 383.985
L122.979 384.038
L123.247 384.08
L123.515 384.046
L123.961 384.1
L127.175 383.334
L127.354 383.289
L128.604 382.657
L128.871 382.6
L129.05 382.569
L130.032 382.678
L130.211 382.668
L130.3 382.5
L130.389 382.555
L130.657 382.449
L130.925 382.411
L131.818 382.299
L131.996 382.166
L132.532 382.073
L132.978 382.147
L133.692 382.206
L133.871 382.05
L134.139 382.083
L134.317 382.039
L134.407 382.018
L134.675 381.759
L135.121 381.705
L135.746 381.474
L136.282 381.538
L136.46 381.619
L137.442 381.542
L137.799 381.415
L138.156 381.459
L138.781 381.387
L139.049 381.246
L139.228 381.25
L139.585 380.835
L139.942 380.767
L140.121 380.792
L140.388 380.682
L140.746 380.746
L140.924 380.746
L141.281 380.742
L141.46 380.991
L141.728 380.92
L141.906 380.837
L142.263 380.788
L142.531 380.676
L142.799 380.624
L144.406 380.492
L144.585 380.625
L144.942 380.718
L145.835 380.696
L146.817 380.392
L146.906 380.397
L147.084 380.521
L147.442 380.409
L147.709 380.487
L147.888 380.577
L148.245 380.667
L148.602 380.824
L149.495 380.569
L150.209 380.438
L150.477 380.378
L151.995 380.49
L152.62 380.572
L152.888 380.521
L153.87 380.395
L154.405 380.353
L155.12 380.554
L155.655 380.574
L157.887 380.009
L158.066 379.924
L158.512 379.982
L159.494 379.927
L160.387 379.781
L161.191 379.743
L161.28 379.695
L161.459 379.763
L161.637 379.773
L161.726 379.914
L161.994 379.806
L162.351 379.822
L162.887 379.87
L163.066 379.977
L163.512 379.931
L163.958 379.868
L165.833 379.839
L166.101 379.85
L167.083 379.817
L167.351 379.769
L168.958 379.812
L169.226 380.102
L172.083 380.208
L172.619 380.514
L172.708 380.513
L172.886 380.677
L172.976 380.676
L173.154 380.93
L174.761 381.034
L175.029 381.116
L175.476 381.117
L175.833 381.484
L179.85 381.487
L180.029 381.599
L180.297 381.843
L180.922 381.807
L181.279 381.836
L182.618 381.837
L182.975 382.004
L183.779 381.998
L183.957 382.162
L187.618 382.176
L187.885 382.224
L190.207 382.28
L190.385 382.432
L192.439 382.428
L193.867 382.476
L194.046 382.613
L197.349 382.699
L197.528 382.801
L198.153 382.851
L198.331 382.905
L198.51 383.011
L199.135 383.045
L201.456 383.121
L201.992 383.155
L205.474 383.252
L205.92 383.301
L206.366 383.325
L208.152 383.382
L208.42 383.512
L209.313 383.622
L211.902 383.794
L212.348 384.007
L212.884 384.115
L214.402 384.157
L215.294 384.251
L215.562 384.304
L217.169 384.393
L217.884 384.408
L219.044 384.426
L219.223 384.53
L221.633 384.601
L221.901 384.601
L222.08 384.752
L225.651 384.832
L226.097 384.948
L226.901 384.961
L227.079 385.067
L229.401 385.103
L229.579 385.192
L236.275 385.242
L236.722 385.367
L236.989 385.446
L240.293 385.505
L241.096 385.69
L241.364 385.752
L244.578 385.834
L244.757 385.934
L245.471 385.922
L245.65 386.021
L247.346 386.002
L247.524 386.147
L250.917 386.221
L251.453 386.257
L252.613 386.35
L253.596 386.375
L258.238 386.485
L259.22 386.671
L262.345 386.735
L262.524 386.817
L265.738 386.886
L265.916 386.984
L269.398 387.07
L271.362 387.147
L272.701 387.182
L272.88 387.274
L273.148 387.262
L273.326 387.378
L276.54 387.46
L276.719 387.56
L278.683 387.623
L287.433 387.693
L287.611 387.842
L293.772 387.846
L296.004 387.837
L314.752 387.64
L315.645 387.67
L332.787 387.565
L333.501 387.524
L339.661 387.425
L340.376 387.389
L340.644 387.441
L353.857 387.087
L354.571 387.052
L357.607 386.982
L358.232 386.941
L360.642 386.827
L363.946 386.646
L371.981 386.327
L374.124 386.21
L377.963 386.071
L379.748 385.898
L385.194 385.544
L387.605 385.409
L392.247 385.138
L402.961 384.155
L407.871 383.897
L408.764 383.8
L412.425 383.404
L413.585 383.264
L415.371 383.054
L416.532 382.977
L416.889 382.951
L420.013 382.652
L420.371 382.661
L423.763 382.444
L425.46 382.231
L426.263 382.111
L439.03 380.67
L439.476 380.616
L439.744 380.638
L443.226 380.075
L443.851 379.953
L444.476 379.922
L445.815 379.746
L446.44 379.671
L449.297 379.536
L450.726 379.384
L451.44 379.206
L452.779 379.034
L453.315 378.914
L458.493 378.277
L460.1 377.978
L460.904 377.852
L461.439 377.738
L464.028 377.314
L465.368 377.151
L467.153 376.875
L468.135 376.756
L469.296 376.677
L474.028 376.331
L474.206 376.361
L475.099 376.22
L476.617 375.964
L477.956 375.831
L478.135 375.882
L480.813 375.528
L481.617 375.409
L483.134 375.2
L484.206 375.058
L484.741 374.963
L485.991 374.833
L487.956 374.557
L488.134 374.629
L497.419 373.751
L497.598 373.873
L498.312 373.801
L501.348 373.474
L501.526 373.516
L502.24 373.385
L502.776 373.337
L504.204 373.224
L504.919 373.053
L509.204 372.845
L509.383 372.957
L510.186 372.823
L511.258 372.706
L512.15 372.577
L512.597 372.512
L514.472 372.335
L514.74 372.272
L516.436 372.175
L517.061 372.077
L517.329 372.001
L518.311 371.918
L518.311 371.918" style="fill:none;stroke:#ff0000;stroke-dasharray:3.000000,6.000000;stroke-dashoffset:0.0;"/>
   </g>
   <g id="line2d_4">
    <path clip-path="url(#p7ff5b81e1d)" d="
M72 311.213
L72.0893 288.575
L72.1786 285.076
L72.3571 280.053
L72.4464 282.321
L72.5357 281.413
L72.625 281.683
L72.7142 281.057
L72.8928 284.671
L72.9821 307
L73.0714 306.627
L73.3392 308.431
L73.4285 309.029
L73.5178 310.705
L73.607 310.487
L73.6963 310.155
L73.7856 312.221
L73.9642 337.939
L74.6784 349.261
L74.857 356.968
L75.4819 362.991
L75.5712 363.621
L75.7498 373.593
L76.3747 376.555
L76.464 376.883
L76.6426 378.987
L76.8211 379.516
L77.2675 380.727
L77.3568 380.919
L77.5354 382.443
L78.2496 383.437
L78.4282 384.202
L78.8746 384.599
L79.1424 384.716
L79.321 385.213
L79.6781 385.429
L79.7674 385.532
L79.8566 385.458
L81.1066 386.523
L82.535 386.977
L82.7136 386.902
L83.0707 386.969
L83.8742 387.248
L84.2314 387.331
L84.767 387.439
L86.7312 387.706
L86.999 387.656
L87.5347 387.703
L89.7667 387.896
L89.9453 387.797
L90.8381 387.906
L91.7309 387.98
L106.284 388.427
L118.068 388.526
L137.889 388.56
L138.514 388.549
L196.099 388.73
L222.258 388.775
L377.07 388.8
L518.311 388.8
L518.311 388.8" style="fill:none;stroke:#00bfbf;stroke-dasharray:5.000000,1.000000,2.000000,1.000000,5.000000,1.000000;stroke-dashoffset:0.0;"/>
   </g>
   <g id="line2d_5">
    <path clip-path="url(#p7ff5b81e1d)" d="
M72 310.714
L72.0893 297.625
L72.2678 286.178
L72.5357 277.868
L72.625 276.38
L72.8928 282.24
L72.9821 303.281
L73.0714 301.639
L73.2499 303.298
L73.4285 299.64
L73.5178 299.774
L73.607 300.228
L73.7856 303.781
L73.9642 329.224
L74.1427 330.684
L74.6784 336.398
L74.857 345.197
L75.4819 351.2
L75.5712 348.942
L75.6605 358.088
L75.7498 356.19
L75.9283 352.898
L76.464 340.935
L76.5533 346.373
L77.1782 330.566
L77.2675 329.156
L77.3568 330.13
L77.5354 339.7
L77.9818 342.714
L78.2496 343.833
L78.4282 348.68
L78.696 350.24
L79.0531 351.952
L79.321 348.366
L79.6781 341.922
L79.9459 337.202
L80.0352 334.833
L80.1245 334.871
L80.7494 325.509
L80.8387 322.83
L80.928 323.385
L81.1958 325.927
L81.9994 330.736
L82.2672 331.913
L82.4458 332.28
L82.6243 332.891
L82.8029 329.562
L83.0707 324.605
L84.1421 304.047
L84.4099 300.433
L84.4992 300.81
L84.767 301.983
L84.8563 301.908
L85.6598 306.528
L85.7491 306.307
L86.017 306.721
L86.1955 307.77
L86.6419 302.461
L87.7133 290.488
L87.9811 288.999
L88.0704 289.369
L89.231 293.218
L89.7667 295.097
L90.3917 288.664
L91.5523 279.266
L92.1773 280.9
L92.2666 280.791
L92.9808 282.649
L93.3379 284.404
L93.5165 283.899
L93.9629 279.931
L94.1414 277.88
L94.4093 276.562
L94.5878 274.518
L94.6771 274.111
L94.945 271.635
L95.0342 271.466
L95.1235 270.774
L95.927 274.112
L96.0163 274.145
L96.4627 275.545
L96.7306 276.342
L96.9091 276.585
L97.2662 273.449
L97.3555 273.55
L97.7126 271.381
L97.8912 271.485
L98.0698 270.78
L98.3376 271.332
L98.5162 270.684
L98.784 270.97
L98.9626 271.613
L99.1411 272.03
L99.4982 272.994
L99.7661 274.252
L100.48 276.434
L100.57 276.391
L100.748 275.969
L100.927 276.154
L101.016 276.101
L101.195 275.313
L101.284 275.795
L101.373 275.504
L101.462 275.732
L101.552 274.902
L101.641 275.292
L101.82 274.266
L101.909 274.355
L101.998 274.748
L102.087 274.709
L102.266 274.06
L102.355 274.241
L102.444 274.295
L102.891 275.98
L103.605 278.225
L104.141 279.16
L104.319 278.416
L104.498 278.627
L104.676 278.202
L104.766 278.206
L105.212 276.603
L105.301 277.011
L105.48 276.47
L105.569 276.415
L105.748 276.544
L105.837 276.348
L106.016 276.596
L106.284 277.32
L106.373 277.393
L106.551 277.886
L106.908 278.718
L106.998 278.81
L107.087 278.658
L107.176 278.725
L107.444 279.364
L107.712 279.969
L107.891 280.019
L108.069 280.296
L108.426 280.473
L108.605 280.105
L108.873 280.46
L109.051 279.96
L109.14 280.072
L109.319 279.088
L109.408 279.216
L109.676 280.105
L109.944 280.472
L110.123 280.781
L110.39 281.196
L110.658 281.466
L110.837 281.924
L111.015 282.614
L111.194 282.811
L111.551 281.798
L111.819 282.129
L111.908 282.038
L112.087 281.84
L112.444 282.032
L112.622 281.571
L112.712 281.747
L112.98 281.336
L113.069 281.494
L113.515 282.143
L113.694 282.259
L113.872 282.472
L114.051 282.499
L114.14 282.246
L114.854 283.782
L114.944 283.632
L115.033 283.591
L115.122 283.696
L115.39 282.938
L115.836 283.351
L115.926 283.187
L116.015 283.354
L116.104 283.203
L116.194 283.444
L116.283 283.384
L116.461 283.504
L116.64 283.518
L116.819 283.76
L116.908 283.827
L117.086 284.195
L117.265 283.87
L117.444 284.255
L117.622 284.402
L118.068 284.897
L118.426 285.394
L118.604 285.406
L118.783 285.476
L118.872 285.461
L119.14 285.119
L119.229 285.241
L119.408 285.035
L119.497 285.041
L119.676 284.587
L119.765 284.627
L119.854 284.512
L120.033 284.875
L120.122 284.546
L120.211 284.627
L120.658 285.06
L121.283 286.096
L121.55 286.524
L121.64 286.854
L121.729 286.621
L121.908 286.739
L122.175 285.971
L122.265 286.132
L122.354 286.079
L122.443 285.895
L122.532 285.941
L122.622 285.981
L122.89 285.355
L122.979 285.449
L123.068 285.318
L123.247 285.577
L123.515 285.642
L123.693 285.437
L124.14 286.1
L124.407 286.264
L124.586 286.498
L124.854 286.721
L125.122 287.104
L125.3 287.222
L125.479 287.571
L125.747 287.332
L125.836 287.145
L125.925 287.502
L126.104 287.41
L126.193 287.398
L126.282 287.142
L126.372 287.185
L126.461 287.167
L126.729 287.964
L126.818 287.711
L126.907 288.154
L126.996 288.027
L127.175 288.185
L127.354 288.221
L127.621 288.426
L128.425 290.263
L128.604 290.394
L128.782 290.748
L129.139 290.837
L129.318 291.187
L129.586 291.114
L130.3 291.522
L130.389 291.17
L130.478 291.221
L130.746 291.502
L130.925 291.519
L131.46 292.524
L131.728 293.094
L132.443 294.234
L132.532 294.241
L132.621 294.416
L132.71 294.245
L132.8 294.315
L132.889 294.703
L132.978 294.649
L133.068 294.657
L133.157 294.779
L133.425 294.461
L133.603 294.364
L133.692 294.578
L133.782 294.317
L133.96 294.505
L134.139 294.325
L134.942 294.353
L135.21 294.521
L135.567 295.59
L135.835 295.828
L136.014 296.212
L136.192 296.203
L136.371 295.778
L136.549 296.023
L136.639 296.036
L136.907 296.396
L137.264 296.147
L137.442 296.433
L137.621 296.528
L137.978 296.38
L138.692 297.405
L138.871 297.492
L139.139 297.736
L139.228 297.738
L139.406 298.088
L139.674 298.11
L139.853 298.281
L139.942 298.257
L140.21 298.745
L140.478 298.906
L140.835 299.804
L140.924 299.715
L141.103 300.058
L141.371 299.622
L141.549 299.368
L141.728 299.385
L142.263 300.477
L142.442 300.597
L142.799 301.318
L143.335 301.778
L143.513 301.688
L143.781 301.84
L143.96 301.637
L144.049 301.684
L144.228 301.428
L144.406 301.448
L144.585 301.208
L144.763 301.114
L145.299 301.422
L145.477 301.275
L146.727 302.121
L146.906 302.269
L147.084 302.231
L147.442 302.341
L147.531 302.558
L147.799 302.197
L147.977 302.291
L148.067 302.38
L148.424 301.856
L149.138 301.898
L150.566 302.74
L150.656 302.746
L150.834 302.55
L151.102 302.704
L151.191 302.533
L151.37 302.624
L151.638 302.621
L151.906 303.139
L151.995 302.994
L152.888 303.056
L153.066 303.283
L153.513 303.439
L153.87 304.674
L154.405 304.996
L154.584 305.225
L154.673 305.195
L154.852 305.066
L155.03 305.054
L155.209 304.841
L155.477 304.934
L156.28 305.393
L156.459 305.719
L156.548 305.732
L156.727 306.01
L157.887 306.659
L158.334 306.917
L158.423 306.847
L158.959 307.291
L159.494 307.399
L160.655 309.314
L160.923 309.647
L161.101 309.995
L161.28 310.137
L161.459 309.945
L161.816 309.917
L161.994 310.177
L162.262 310.166
L162.441 310.824
L162.619 310.81
L162.887 311.014
L162.976 310.862
L163.155 310.995
L163.244 311.006
L163.423 311.234
L163.958 311.309
L164.137 311.563
L164.494 311.62
L164.673 311.864
L164.94 311.963
L165.208 312.266
L165.387 312.267
L165.655 312.56
L166.815 312.56
L167.083 312.65
L167.44 312.776
L167.619 312.961
L167.976 313.275
L168.155 313.429
L168.422 313.434
L168.512 313.604
L168.601 313.552
L168.869 313.49
L168.958 313.707
L169.226 313.334
L169.494 313.472
L169.672 313.326
L170.297 313.438
L170.744 313.843
L171.279 313.932
L171.458 314.09
L171.904 314.213
L172.261 314.207
L172.44 314.109
L172.619 314.401
L172.708 314.389
L172.886 314.221
L172.976 314.292
L173.154 313.96
L173.333 313.877
L173.958 313.976
L174.226 314.144
L174.315 314.151
L174.493 314.27
L174.761 314.24
L174.94 314.213
L175.386 314.337
L175.476 314.465
L175.654 314.145
L175.743 314.143
L175.922 313.976
L176.19 314.007
L176.547 314.478
L176.725 314.497
L176.904 314.639
L177.172 314.732
L178.065 314.946
L178.243 315.169
L178.422 315.188
L178.69 315.511
L178.957 315.756
L179.404 316.24
L179.582 316.292
L179.672 316.247
L179.85 316.395
L180.029 316.36
L180.207 316.206
L180.475 316.143
L180.832 316.131
L181.011 316.281
L181.189 316.289
L181.368 316.605
L181.547 316.713
L181.725 317.04
L182.172 317.151
L182.529 317.546
L182.618 317.613
L182.796 317.55
L183.154 317.623
L183.332 317.69
L183.779 317.637
L183.868 317.49
L184.046 317.679
L184.761 317.677
L185.296 318.035
L185.564 318.073
L185.832 318.489
L186.278 318.566
L186.457 318.952
L186.814 319.014
L188.064 319.48
L188.243 319.968
L188.51 320.076
L188.689 320.185
L189.046 320.189
L189.225 320.324
L189.85 320.405
L190.028 320.65
L190.207 320.68
L190.385 320.482
L190.653 320.522
L190.742 320.479
L191.01 320.696
L191.278 320.727
L191.457 320.821
L191.903 320.915
L192.082 321.021
L193.153 321.129
L193.332 321.262
L193.51 321.236
L193.867 321.155
L194.046 321.115
L194.849 321.188
L195.117 321.251
L196.01 321.341
L196.188 321.749
L196.813 321.867
L197.081 321.955
L197.349 321.919
L197.528 321.823
L197.706 322.054
L197.796 322.05
L197.974 322.277
L198.242 322.379
L198.42 322.551
L199.313 322.557
L199.492 322.906
L200.028 322.958
L200.295 323.159
L201.545 323.254
L201.813 323.208
L201.992 323.598
L202.17 323.743
L202.617 323.741
L202.884 324.166
L204.045 324.255
L204.224 324.464
L204.402 324.452
L204.581 324.658
L204.759 324.723
L205.295 324.788
L205.474 325.085
L205.92 325.108
L206.099 325.697
L207.17 325.804
L207.348 326.076
L207.795 326.082
L207.973 326.324
L208.42 326.256
L208.598 326.408
L208.866 326.406
L209.134 326.335
L209.491 326.397
L209.759 326.702
L210.741 326.802
L211.366 327.069
L211.634 326.955
L212.08 326.851
L212.259 327.483
L212.527 327.339
L212.795 327.34
L212.973 327.647
L213.152 327.725
L213.509 327.778
L213.687 327.949
L213.866 327.954
L214.044 328.089
L214.58 328.174
L214.848 328.338
L215.294 328.303
L215.473 328.405
L216.991 328.413
L217.259 328.482
L217.526 328.521
L217.884 329.095
L218.062 329.218
L218.419 329.221
L218.598 329.491
L219.937 329.512
L220.205 329.606
L221.187 329.67
L221.365 329.789
L221.99 329.76
L222.169 329.924
L224.312 329.856
L224.49 330.138
L225.115 330.305
L225.383 330.378
L226.187 330.342
L226.365 330.551
L226.544 330.554
L226.722 330.647
L226.901 330.657
L227.079 330.553
L227.436 330.603
L227.615 330.764
L227.972 330.778
L228.151 331.039
L228.419 331.078
L228.597 331.306
L228.865 331.321
L229.044 331.435
L229.222 331.441
L229.401 331.578
L229.668 331.501
L230.472 331.494
L230.651 331.705
L231.008 331.711
L231.186 331.895
L232.704 331.954
L232.883 332.163
L234.043 332.255
L234.222 332.688
L234.579 332.738
L234.757 332.827
L235.115 332.832
L235.293 333.22
L237.347 333.355
L237.614 333.36
L238.418 333.39
L239.132 333.408
L239.311 333.636
L239.668 333.638
L239.936 333.845
L241.9 333.8
L242.078 334.142
L243.864 334.184
L244.132 334.139
L244.846 334.201
L245.025 334.453
L245.65 334.616
L245.828 334.617
L246.007 334.77
L246.275 334.772
L246.453 334.956
L247.346 334.977
L247.524 334.828
L248.328 334.874
L248.507 335.142
L248.953 335.33
L250.471 335.42
L250.649 335.615
L251.274 335.713
L251.631 335.684
L251.899 335.755
L252.078 335.674
L252.256 335.673
L252.435 335.863
L252.971 335.958
L253.149 336.187
L253.506 336.193
L253.685 336.506
L253.863 336.621
L254.22 336.635
L254.399 336.878
L254.578 336.953
L254.756 336.929
L254.935 337.102
L255.56 337.038
L255.828 337.528
L257.167 337.591
L257.345 337.669
L258.506 337.693
L258.595 337.881
L258.774 337.797
L259.042 337.844
L261.095 337.913
L261.274 338.042
L261.72 338.042
L261.899 338.253
L263.148 338.17
L263.327 338.438
L264.041 338.531
L264.22 338.603
L264.934 338.663
L265.113 338.753
L265.738 338.703
L265.916 338.619
L266.541 338.621
L266.72 338.911
L267.434 338.963
L267.612 339.133
L270.916 339.228
L271.184 339.27
L271.273 339.27
L271.452 339.432
L272.434 339.427
L272.701 339.953
L273.148 339.986
L273.326 339.868
L273.773 340.086
L273.951 340.225
L274.308 340.29
L274.576 340.796
L276.54 340.715
L276.719 340.661
L277.076 340.671
L277.255 340.603
L278.237 340.698
L278.415 340.913
L280.915 341.009
L281.094 341.265
L281.629 341.344
L281.808 341.602
L281.897 341.602
L282.076 341.821
L282.433 341.937
L282.612 342.056
L284.397 342.093
L284.576 342.301
L287.79 342.477
L287.968 342.707
L288.058 342.707
L288.236 343.183
L291.272 343.398
L291.45 343.603
L291.718 343.593
L291.897 343.783
L292.075 343.875
L293.504 343.973
L293.682 344.214
L294.754 344.266
L294.932 344.492
L295.914 344.595
L300.378 344.842
L300.557 345.009
L301.271 345.022
L301.45 345.272
L301.628 345.276
L301.807 345.392
L302.342 345.385
L302.61 345.389
L302.789 345.539
L305.11 345.705
L305.289 345.815
L306.003 345.817
L306.449 345.825
L306.628 345.964
L307.164 345.979
L307.342 346.096
L308.056 346.115
L308.235 346.227
L308.771 346.341
L309.128 346.411
L309.574 346.418
L310.378 346.489
L310.735 347.148
L311.538 347.176
L311.717 347.41
L314.127 347.461
L314.306 347.585
L314.395 347.592
L314.574 347.854
L314.752 347.857
L314.931 347.998
L315.02 347.998
L315.199 348.245
L318.502 348.346
L318.681 348.574
L319.216 348.55
L319.395 348.827
L323.948 348.951
L324.216 349.251
L325.734 349.334
L325.912 349.358
L326.18 349.309
L327.162 349.46
L327.876 349.507
L328.055 349.667
L328.144 349.667
L328.323 349.943
L330.644 350.071
L330.733 350.118
L330.912 350.325
L332.073 350.44
L332.698 350.465
L332.876 350.693
L332.965 350.695
L333.144 350.834
L334.215 350.863
L334.483 350.944
L335.822 350.984
L336.001 351.244
L337.429 351.286
L337.608 351.428
L337.876 351.527
L338.233 351.57
L339.661 351.73
L340.376 351.765
L340.644 351.711
L343.768 351.875
L344.215 351.881
L344.393 352.153
L344.929 352.153
L345.108 352.358
L346.268 352.39
L346.447 352.569
L348.054 352.731
L348.232 352.945
L350.554 353.058
L351.268 353.096
L351.446 353.26
L352.161 353.32
L352.518 353.358
L352.696 353.361
L352.875 353.579
L354.303 353.698
L354.571 353.951
L355.196 354.019
L355.375 354.167
L356.268 354.195
L356.446 354.462
L358.767 354.607
L360.553 354.742
L361.089 354.837
L361.892 355.069
L363.678 355.118
L364.303 355.199
L365.017 355.225
L365.196 355.282
L365.285 355.286
L365.463 355.449
L366.892 355.604
L368.142 355.839
L369.838 355.952
L370.017 356.052
L372.338 356.247
L376.177 356.761
L376.356 356.886
L380.016 357.314
L380.284 357.373
L380.373 357.391
L380.552 357.531
L380.73 357.56
L380.909 357.815
L381.266 357.897
L381.534 357.97
L382.694 358.292
L383.587 358.407
L384.212 358.636
L385.73 358.781
L386.087 358.842
L387.694 359.044
L388.408 359.252
L388.587 359.451
L388.765 359.578
L389.48 359.721
L389.658 359.937
L390.462 360.062
L390.64 360.336
L390.908 360.401
L391.087 360.533
L392.158 360.652
L392.604 360.702
L393.854 360.833
L394.658 360.982
L394.836 361.184
L396.979 361.361
L400.104 361.718
L401.89 361.899
L402.604 361.96
L403.05 361.98
L403.229 362.115
L404.3 362.178
L404.479 362.367
L406.443 362.51
L407.514 362.598
L407.693 362.723
L408.407 362.825
L408.586 363.091
L409.032 363.152
L409.657 363.285
L410.014 363.374
L411.264 363.477
L411.532 363.552
L422.603 364.787
L422.781 364.933
L424.745 365.203
L424.924 365.426
L425.995 365.556
L426.442 365.627
L426.62 365.852
L426.977 365.904
L428.584 366.05
L429.031 366.114
L430.548 366.253
L431.084 366.376
L432.513 366.578
L433.495 366.743
L435.28 366.928
L436.977 367.157
L438.673 367.449
L439.476 367.555
L439.744 367.767
L443.226 368.33
L443.851 368.451
L444.565 368.489
L446.976 368.791
L447.155 368.979
L448.315 369.095
L448.494 369.215
L452.601 369.828
L453.583 370.008
L454.118 370.074
L454.297 370.294
L458.136 371.047
L458.315 371.204
L459.118 371.329
L460.457 371.564
L463.939 372.166
L464.743 372.259
L466.082 372.463
L469.028 372.884
L469.207 373.071
L470.367 373.225
L471.974 373.432
L472.153 373.603
L472.51 373.651
L474.028 373.825
L474.206 373.987
L475.188 374.146
L482.688 375.343
L483.045 375.421
L483.492 375.511
L484.027 375.558
L485.366 375.737
L487.956 376.063
L488.134 376.216
L492.866 376.782
L493.044 376.922
L497.419 377.443
L497.598 377.591
L498.312 377.664
L505.633 378.682
L505.812 378.802
L506.615 378.931
L507.061 379.013
L507.776 379.071
L507.954 379.154
L509.74 379.378
L510.99 379.541
L512.061 379.682
L517.061 380.394
L517.329 380.468
L518.311 380.571
L518.311 380.571" style="fill:none;stroke:#bf00bf;stroke-linecap:square;"/>
   </g>
   <g id="matplotlib.axis_1">
    <g id="xtick_1">
     <g id="line2d_6">
      <defs>
       <path d="
M0 0
L0 -4" id="mc7db9fdffb" style="stroke:#000000;stroke-width:0.5;"/>
      </defs>
      <g>
       <use style="stroke:#000000;stroke-width:0.5;" x="72.0" xlink:href="#mc7db9fdffb" y="388.8"/>
      </g>
     </g>
     <g id="line2d_7">
      <defs>
       <path d="
M0 0
L0 4" id="m5a7d422ac3" style="stroke:#000000;stroke-width:0.5;"/>
      </defs>
      <g>
       <use style="stroke:#000000;stroke-width:0.5;" x="72.0" xlink:href="#m5a7d422ac3" y="43.2"/>
      </g>
     </g>
     <g id="text_1">
      <!-- 0 -->
      <defs>
       <path d="
M56.9844 36.375
Q56.9844 16.7969 50.8594 7.64062
Q44.7344 -1.51562 31.8438 -1.51562
Q18.75 -1.51562 12.7188 7.76562
Q6.6875 17.0469 6.6875 36.2812
Q6.6875 55.6719 12.7812 64.9219
Q18.8906 74.1719 31.8438 74.1719
Q44.9219 74.1719 50.9531 64.7656
Q56.9844 55.375 56.9844 36.375
M44.1406 14.2031
Q45.8438 18.1719 46.4531 23.5156
Q47.0781 28.8594 47.0781 36.375
Q47.0781 43.7969 46.4531 49.2656
Q45.8438 54.7344 44.0938 58.5469
Q42.3906 62.3125 39.4219 64.2031
Q36.4688 66.1094 31.8438 66.1094
Q27.25 66.1094 24.2344 64.2031
Q21.2344 62.3125 19.4844 58.4531
Q17.8281 54.8281 17.2188 49.0156
Q16.6094 43.2188 16.6094 36.2812
Q16.6094 28.6562 17.1406 23.5312
Q17.6719 18.4062 19.4375 14.3594
Q21.0469 10.5469 24 8.54688
Q26.9531 6.54688 31.8438 6.54688
Q36.4219 6.54688 39.4531 8.45312
Q42.4844 10.3594 44.1406 14.2031" id="Verdana-30"/>
      </defs>
      <g transform="translate(68.9821875 401.918125)scale(0.12 -0.12)">
       <use xlink:href="#Verdana-30"/>
      </g>
     </g>
    </g>
    <g id="xtick_2">
     <g id="line2d_8">
      <g>
       <use style="stroke:#000000;stroke-width:0.5;" x="161.28" xlink:href="#mc7db9fdffb" y="388.8"/>
      </g>
     </g>
     <g id="line2d_9">
      <g>
       <use style="stroke:#000000;stroke-width:0.5;" x="161.28" xlink:href="#m5a7d422ac3" y="43.2"/>
      </g>
     </g>
     <g id="text_2">
      <!-- 1000 -->
      <defs>
       <path d="
M52.9375 0
L13.5781 0
L13.5781 7.42188
L28.7188 7.42188
L28.7188 56.1562
L13.5781 56.1562
L13.5781 62.7969
Q16.6562 62.7969 20.1719 63.2969
Q23.6875 63.8125 25.4844 64.7969
Q27.7344 66.0156 29.0312 67.8906
Q30.3281 69.7812 30.5156 72.9531
L38.0938 72.9531
L38.0938 7.42188
L52.9375 7.42188
z
" id="Verdana-31"/>
      </defs>
      <g transform="translate(147.2315625 401.918125)scale(0.12 -0.12)">
       <use xlink:href="#Verdana-31"/>
       <use x="63.57421875" xlink:href="#Verdana-30"/>
       <use x="127.1484375" xlink:href="#Verdana-30"/>
       <use x="190.72265625" xlink:href="#Verdana-30"/>
      </g>
     </g>
    </g>
    <g id="xtick_3">
     <g id="line2d_10">
      <g>
       <use style="stroke:#000000;stroke-width:0.5;" x="250.56" xlink:href="#mc7db9fdffb" y="388.8"/>
      </g>
     </g>
     <g id="line2d_11">
      <g>
       <use style="stroke:#000000;stroke-width:0.5;" x="250.56" xlink:href="#m5a7d422ac3" y="43.2"/>
      </g>
     </g>
     <g id="text_3">
      <!-- 2000 -->
      <defs>
       <path d="
M57.0781 0
L7.85938 0
L7.85938 10.2031
Q12.9844 14.5938 18.1406 18.9844
Q23.2969 23.3906 27.7344 27.7344
Q37.1094 36.8125 40.5781 42.1562
Q44.0469 47.5156 44.0469 53.7188
Q44.0469 59.375 40.3125 62.5625
Q36.5781 65.7656 29.8906 65.7656
Q25.4375 65.7656 20.2656 64.2031
Q15.0938 62.6406 10.1562 59.4219
L9.67188 59.4219
L9.67188 69.6719
Q13.1406 71.3906 18.9219 72.7969
Q24.7031 74.2188 30.125 74.2188
Q41.3125 74.2188 47.6562 68.8125
Q54 63.4219 54 54.2031
Q54 50.0469 52.9531 46.4531
Q51.9062 42.875 49.8594 39.6562
Q47.9531 36.625 45.3906 33.6875
Q42.8281 30.7656 39.1562 27.2031
Q33.9375 22.0781 28.3594 17.2656
Q22.7969 12.4531 17.9688 8.34375
L57.0781 8.34375
z
" id="Verdana-32"/>
      </defs>
      <g transform="translate(236.1684375 401.918125)scale(0.12 -0.12)">
       <use xlink:href="#Verdana-32"/>
       <use x="63.57421875" xlink:href="#Verdana-30"/>
       <use x="127.1484375" xlink:href="#Verdana-30"/>
       <use x="190.72265625" xlink:href="#Verdana-30"/>
      </g>
     </g>
    </g>
    <g id="xtick_4">
     <g id="line2d_12">
      <g>
       <use style="stroke:#000000;stroke-width:0.5;" x="339.84" xlink:href="#mc7db9fdffb" y="388.8"/>
      </g>
     </g>
     <g id="line2d_13">
      <g>
       <use style="stroke:#000000;stroke-width:0.5;" x="339.84" xlink:href="#m5a7d422ac3" y="43.2"/>
      </g>
     </g>
     <g id="text_4">
      <!-- 3000 -->
      <defs>
       <path d="
M50.6875 35.0156
Q53.0312 32.9062 54.5469 29.7344
Q56.0625 26.5625 56.0625 21.5312
Q56.0625 16.5469 54.25 12.3906
Q52.4375 8.25 49.1719 5.17188
Q45.5156 1.76562 40.5469 0.125
Q35.5938 -1.51562 29.6875 -1.51562
Q23.6406 -1.51562 17.7812 -0.0625
Q11.9219 1.375 8.15625 3.07812
L8.15625 13.2812
L8.89062 13.2812
Q13.0312 10.5469 18.6406 8.73438
Q24.2656 6.9375 29.5 6.9375
Q32.5625 6.9375 36.0312 7.95312
Q39.5 8.98438 41.6562 10.9844
Q43.8906 13.1406 44.9844 15.7188
Q46.0938 18.3125 46.0938 22.2656
Q46.0938 26.1719 44.8438 28.7344
Q43.6094 31.2969 41.4062 32.7656
Q39.2031 34.2812 36.0781 34.8438
Q32.9531 35.4062 29.3438 35.4062
L24.9531 35.4062
L24.9531 43.5
L28.375 43.5
Q35.7969 43.5 40.2031 46.5938
Q44.625 49.7031 44.625 55.6719
Q44.625 58.2969 43.5 60.2656
Q42.3906 62.25 40.375 63.5312
Q38.2812 64.7969 35.8906 65.2812
Q33.5 65.7656 30.4688 65.7656
Q25.8281 65.7656 20.5938 64.1094
Q15.375 62.4531 10.75 59.4219
L10.25 59.4219
L10.25 69.625
Q13.7188 71.3438 19.5 72.7812
Q25.2969 74.2188 30.7188 74.2188
Q36.0312 74.2188 40.0781 73.2344
Q44.1406 72.2656 47.4062 70.125
Q50.9219 67.7812 52.7344 64.4531
Q54.5469 61.1406 54.5469 56.6875
Q54.5469 50.6406 50.2656 46.125
Q46 41.6094 40.1875 40.4375
L40.1875 39.75
Q42.5312 39.3594 45.5469 38.1094
Q48.5781 36.8594 50.6875 35.0156" id="Verdana-33"/>
      </defs>
      <g transform="translate(325.46625 401.918125)scale(0.12 -0.12)">
       <use xlink:href="#Verdana-33"/>
       <use x="63.57421875" xlink:href="#Verdana-30"/>
       <use x="127.1484375" xlink:href="#Verdana-30"/>
       <use x="190.72265625" xlink:href="#Verdana-30"/>
      </g>
     </g>
    </g>
    <g id="xtick_5">
     <g id="line2d_14">
      <g>
       <use style="stroke:#000000;stroke-width:0.5;" x="429.12" xlink:href="#mc7db9fdffb" y="388.8"/>
      </g>
     </g>
     <g id="line2d_15">
      <g>
       <use style="stroke:#000000;stroke-width:0.5;" x="429.12" xlink:href="#m5a7d422ac3" y="43.2"/>
      </g>
     </g>
     <g id="text_5">
      <!-- 4000 -->
      <defs>
       <path d="
M58.7344 20.4531
L47.9531 20.4531
L47.9531 0
L38.5781 0
L38.5781 20.4531
L3.76562 20.4531
L3.76562 31.6875
L38.9688 72.7031
L47.9531 72.7031
L47.9531 28.2656
L58.7344 28.2656
z

M38.5781 28.2656
L38.5781 61.0781
L10.4062 28.2656
z
" id="Verdana-34"/>
      </defs>
      <g transform="translate(414.4828125 401.918125)scale(0.12 -0.12)">
       <use xlink:href="#Verdana-34"/>
       <use x="63.57421875" xlink:href="#Verdana-30"/>
       <use x="127.1484375" xlink:href="#Verdana-30"/>
       <use x="190.72265625" xlink:href="#Verdana-30"/>
      </g>
     </g>
    </g>
    <g id="xtick_6">
     <g id="line2d_16">
      <g>
       <use style="stroke:#000000;stroke-width:0.5;" x="518.4" xlink:href="#mc7db9fdffb" y="388.8"/>
      </g>
     </g>
     <g id="line2d_17">
      <g>
       <use style="stroke:#000000;stroke-width:0.5;" x="518.4" xlink:href="#m5a7d422ac3" y="43.2"/>
      </g>
     </g>
     <g id="text_6">
      <!-- 5000 -->
      <defs>
       <path d="
M56.5 23.0938
Q56.5 18.0156 54.6406 13.375
Q52.7812 8.73438 49.5625 5.5625
Q46.0469 2.15625 41.1875 0.3125
Q36.3281 -1.51562 29.9375 -1.51562
Q23.9688 -1.51562 18.4531 -0.265625
Q12.9375 0.984375 9.125 2.73438
L9.125 13.0312
L9.8125 13.0312
Q13.8125 10.5 19.1875 8.71875
Q24.5625 6.9375 29.7344 6.9375
Q33.2031 6.9375 36.4531 7.90625
Q39.7031 8.89062 42.2344 11.3281
Q44.3906 13.4219 45.4844 16.3438
Q46.5781 19.2812 46.5781 23.1406
Q46.5781 26.9062 45.2812 29.4844
Q44 32.0781 41.7031 33.6406
Q39.1562 35.5 35.5156 36.25
Q31.8906 37.0156 27.3906 37.0156
Q23.0938 37.0156 19.1094 36.4219
Q15.1406 35.8438 12.25 35.25
L12.25 72.7031
L56 72.7031
L56 64.1562
L21.6875 64.1562
L21.6875 44.8281
Q23.7812 45.0156 25.9688 45.1094
Q28.1719 45.2188 29.7812 45.2188
Q35.6875 45.2188 40.125 44.2188
Q44.5781 43.2188 48.2969 40.6719
Q52.2031 37.9844 54.3438 33.7344
Q56.5 29.5 56.5 23.0938" id="Verdana-35"/>
      </defs>
      <g transform="translate(504.084375 401.918125)scale(0.12 -0.12)">
       <use xlink:href="#Verdana-35"/>
       <use x="63.57421875" xlink:href="#Verdana-30"/>
       <use x="127.1484375" xlink:href="#Verdana-30"/>
       <use x="190.72265625" xlink:href="#Verdana-30"/>
      </g>
     </g>
    </g>
    <g id="text_7">
     <!-- Objective function exectuions -->
     <defs>
      <path d="
M63.9688 64.3594
Q68.4062 59.4688 70.7656 52.3906
Q73.1406 45.3125 73.1406 36.3281
Q73.1406 27.3438 70.7188 20.2344
Q68.3125 13.1406 63.9688 8.40625
Q59.4688 3.46875 53.3438 0.96875
Q47.2188 -1.51562 39.3594 -1.51562
Q31.6875 -1.51562 25.4062 1.01562
Q19.1406 3.5625 14.75 8.40625
Q10.3594 13.2344 7.98438 20.2656
Q5.60938 27.2969 5.60938 36.3281
Q5.60938 45.2188 7.95312 52.2656
Q10.2969 59.3281 14.7969 64.3594
Q19.0938 69.1406 25.4688 71.6719
Q31.8438 74.2188 39.3594 74.2188
Q47.1719 74.2188 53.3906 71.6562
Q59.625 69.0938 63.9688 64.3594
M63.0938 36.3281
Q63.0938 50.4844 56.7344 58.1719
Q50.3906 65.875 39.4062 65.875
Q28.3281 65.875 22 58.1719
Q15.6719 50.4844 15.6719 36.3281
Q15.6719 22.0156 22.1094 14.4219
Q28.5625 6.84375 39.4062 6.84375
Q50.25 6.84375 56.6719 14.4219
Q63.0938 22.0156 63.0938 36.3281" id="Verdana-4f"/>
      <path d="
M38.375 67.0938
L37.8906 67.0938
Q36.375 67.5312 33.9375 67.9844
Q31.5 68.4531 29.6406 68.4531
Q23.7344 68.4531 21.0625 65.8438
Q18.4062 63.2344 18.4062 56.3906
L18.4062 54.5469
L34.9688 54.5469
L34.9688 46.8281
L18.7031 46.8281
L18.7031 0
L9.51562 0
L9.51562 46.8281
L3.32812 46.8281
L3.32812 54.5469
L9.51562 54.5469
L9.51562 56.3438
Q9.51562 66.0625 14.3438 71.2656
Q19.1875 76.4688 28.3281 76.4688
Q31.3906 76.4688 33.8594 76.1719
Q36.3281 75.875 38.375 75.4844
z
" id="Verdana-66"/>
      <path d="
M57.0312 27.6875
Q57.0312 20.8438 55.0938 15.375
Q53.1719 9.90625 49.9062 6.20312
Q46.4375 2.34375 42.2812 0.40625
Q38.1406 -1.51562 33.1562 -1.51562
Q28.5156 -1.51562 25.0469 -0.40625
Q21.5781 0.6875 18.2188 2.54688
L17.625 0
L9.03125 0
L9.03125 75.9844
L18.2188 75.9844
L18.2188 48.8281
Q22.0781 52 26.4219 54.0312
Q30.7656 56.0625 36.1875 56.0625
Q45.8438 56.0625 51.4375 48.6406
Q57.0312 41.2188 57.0312 27.6875
M47.5625 27.4375
Q47.5625 37.2031 44.3281 42.25
Q41.1094 47.3125 33.9375 47.3125
Q29.9375 47.3125 25.8281 45.5781
Q21.7344 43.8438 18.2188 41.1094
L18.2188 9.85938
Q22.125 8.10938 24.9219 7.42188
Q27.7344 6.73438 31.2969 6.73438
Q38.9219 6.73438 43.2344 11.7344
Q47.5625 16.75 47.5625 27.4375" id="Verdana-62"/>
      <path id="Verdana-20"/>
      <path d="
M18.8906 63.6719
L8.54688 63.6719
L8.54688 73.1875
L18.8906 73.1875
z

M18.3125 0
L9.125 0
L9.125 54.5469
L18.3125 54.5469
z
" id="Verdana-69"/>
      <path d="
M26.0312 63.6719
L15.6719 63.6719
L15.6719 73.1875
L26.0312 73.1875
z

M25.4375 -1.3125
Q25.4375 -10.8906 20.5469 -15.7656
Q15.6719 -20.6562 7.46875 -20.6562
Q5.51562 -20.6562 2.3125 -20.2656
Q-0.875 -19.875 -3.03125 -19.2812
L-3.03125 -10.5469
L-2.54688 -10.5469
Q-1.17188 -11.0781 1.14062 -11.7656
Q3.46875 -12.4531 5.67188 -12.4531
Q9.1875 -12.4531 11.3281 -11.4688
Q13.4844 -10.5 14.5469 -8.54688
Q15.625 -6.59375 15.9375 -3.82812
Q16.2656 -1.07812 16.2656 2.875
L16.2656 46.8281
L4.89062 46.8281
L4.89062 54.5469
L25.4375 54.5469
z
" id="Verdana-6a"/>
      <path d="
M48 15.7188
Q48 8.25 41.8125 3.46875
Q35.6406 -1.3125 24.9531 -1.3125
Q18.8906 -1.3125 13.8438 0.125
Q8.79688 1.5625 5.375 3.26562
L5.375 13.5781
L5.85938 13.5781
Q10.2031 10.2969 15.5156 8.375
Q20.8438 6.45312 25.7344 6.45312
Q31.7812 6.45312 35.2031 8.40625
Q38.625 10.3594 38.625 14.5469
Q38.625 17.7812 36.7656 19.4375
Q34.9062 21.0938 29.6406 22.2656
Q27.6875 22.7031 24.5312 23.2812
Q21.3906 23.875 18.7969 24.5625
Q11.625 26.4688 8.60938 30.1562
Q5.60938 33.8438 5.60938 39.2031
Q5.60938 42.5781 7 45.5469
Q8.40625 48.5312 11.2344 50.875
Q13.9688 53.1719 18.1875 54.5156
Q22.4062 55.8594 27.6406 55.8594
Q32.5156 55.8594 37.5156 54.6562
Q42.5312 53.4688 45.8438 51.7656
L45.8438 41.9375
L45.3594 41.9375
Q41.8438 44.5312 36.8125 46.3125
Q31.7812 48.0938 26.9531 48.0938
Q21.9219 48.0938 18.4531 46.1562
Q14.9844 44.2344 14.9844 40.4375
Q14.9844 37.0625 17.0938 35.3594
Q19.1406 33.6406 23.7344 32.5625
Q26.2656 31.9844 29.4062 31.3906
Q32.5625 30.8125 34.6719 30.3281
Q41.0625 28.8594 44.5312 25.2969
Q48 21.6875 48 15.7188" id="Verdana-73"/>
      <path d="
M55.5156 27.25
Q55.5156 13.9219 48.6719 6.20312
Q41.8438 -1.51562 30.375 -1.51562
Q18.7969 -1.51562 11.9844 6.20312
Q5.17188 13.9219 5.17188 27.25
Q5.17188 40.5781 11.9844 48.3125
Q18.7969 56.0625 30.375 56.0625
Q41.8438 56.0625 48.6719 48.3125
Q55.5156 40.5781 55.5156 27.25
M46.0469 27.25
Q46.0469 37.8438 41.8906 42.9844
Q37.75 48.1406 30.375 48.1406
Q22.9062 48.1406 18.7812 42.9844
Q14.6562 37.8438 14.6562 27.25
Q14.6562 17 18.7969 11.6875
Q22.9531 6.39062 30.375 6.39062
Q37.7031 6.39062 41.875 11.6406
Q46.0469 16.8906 46.0469 27.25" id="Verdana-6f"/>
      <path d="
M54.6875 26.3125
L14.5 26.3125
Q14.5 21.2969 16.0156 17.5469
Q17.5312 13.8125 20.1719 11.4219
Q22.7031 9.07812 26.1875 7.90625
Q29.6875 6.73438 33.8906 6.73438
Q39.4531 6.73438 45.0938 8.95312
Q50.7344 11.1875 53.125 13.3281
L53.6094 13.3281
L53.6094 3.32812
Q48.9688 1.375 44.1406 0.046875
Q39.3125 -1.26562 33.9844 -1.26562
Q20.4062 -1.26562 12.7812 6.07812
Q5.17188 13.4219 5.17188 26.9531
Q5.17188 40.3281 12.4688 48.1875
Q19.7812 56.0625 31.6875 56.0625
Q42.7188 56.0625 48.7031 49.6094
Q54.6875 43.1719 54.6875 31.2969
z

M45.75 33.3438
Q45.7031 40.5781 42.1094 44.5312
Q38.5312 48.4844 31.2031 48.4844
Q23.8281 48.4844 19.4531 44.1406
Q15.0938 39.7969 14.5 33.3438
z
" id="Verdana-65"/>
      <path d="
M54.25 0
L45.0625 0
L45.0625 6.0625
Q40.4375 2.39062 36.1875 0.4375
Q31.9375 -1.51562 26.8125 -1.51562
Q18.2188 -1.51562 13.4219 3.73438
Q8.64062 8.98438 8.64062 19.1406
L8.64062 54.5469
L17.8281 54.5469
L17.8281 23.4844
Q17.8281 19.3438 18.2188 16.375
Q18.6094 13.4219 19.875 11.3281
Q21.1875 9.1875 23.2812 8.20312
Q25.3906 7.23438 29.3906 7.23438
Q32.9531 7.23438 37.1719 9.07812
Q41.4062 10.9375 45.0625 13.8125
L45.0625 54.5469
L54.25 54.5469
z
" id="Verdana-75"/>
      <path d="
M49.3594 3.42188
Q44.7812 1.21875 40.6562 0
Q36.5312 -1.21875 31.8906 -1.21875
Q25.9844 -1.21875 21.0469 0.515625
Q16.1094 2.25 12.5938 5.76562
Q9.03125 9.28125 7.07812 14.6406
Q5.125 20.0156 5.125 27.2031
Q5.125 40.5781 12.4688 48.1875
Q19.8281 55.8125 31.8906 55.8125
Q36.5781 55.8125 41.0938 54.4844
Q45.6094 53.1719 49.3594 51.2656
L49.3594 41.0625
L48.875 41.0625
Q44.6719 44.3438 40.2031 46.0938
Q35.75 47.8594 31.5 47.8594
Q23.6875 47.8594 19.1719 42.6094
Q14.6562 37.3594 14.6562 27.2031
Q14.6562 17.3281 19.0625 12.0312
Q23.4844 6.73438 31.5 6.73438
Q34.2812 6.73438 37.1562 7.46875
Q40.0469 8.20312 42.3281 9.375
Q44.3438 10.4062 46.0938 11.5469
Q47.8594 12.7031 48.875 13.5312
L49.3594 13.5312
z
" id="Verdana-63"/>
      <path d="
M54.6406 0
L45.4531 0
L45.4531 31.0625
Q45.4531 34.8125 45.0156 38.1094
Q44.5781 41.4062 43.4062 43.2656
Q42.1875 45.3125 39.8906 46.3125
Q37.5938 47.3125 33.9375 47.3125
Q30.1719 47.3125 26.0625 45.4531
Q21.9688 43.6094 18.2188 40.7188
L18.2188 0
L9.03125 0
L9.03125 54.5469
L18.2188 54.5469
L18.2188 48.4844
Q22.5156 52.0469 27.0938 54.0469
Q31.6875 56.0625 36.5312 56.0625
Q45.3594 56.0625 50 50.7344
Q54.6406 45.4062 54.6406 35.4062
z
" id="Verdana-6e"/>
      <path d="
M37.3594 0.484375
Q34.7656 -0.203125 31.7031 -0.640625
Q28.6562 -1.07812 26.2656 -1.07812
Q17.9219 -1.07812 13.5781 3.40625
Q9.23438 7.90625 9.23438 17.8281
L9.23438 46.8281
L3.03125 46.8281
L3.03125 54.5469
L9.23438 54.5469
L9.23438 70.2188
L18.4062 70.2188
L18.4062 54.5469
L37.3594 54.5469
L37.3594 46.8281
L18.4062 46.8281
L18.4062 21.9688
Q18.4062 17.6719 18.5938 15.25
Q18.7969 12.8438 19.9688 10.75
Q21.0469 8.79688 22.9219 7.89062
Q24.8125 6.98438 28.6562 6.98438
Q30.9062 6.98438 33.3438 7.64062
Q35.7969 8.29688 36.8594 8.73438
L37.3594 8.73438
z
" id="Verdana-74"/>
      <path d="
M56.2031 54.5469
L34.125 0
L24.9062 0
L2.98438 54.5469
L12.9375 54.5469
L29.8281 11.1406
L46.5781 54.5469
z
" id="Verdana-76"/>
      <path d="
M56.25 0
L44.6719 0
L29.2031 20.9531
L13.625 0
L2.9375 0
L24.2188 27.2031
L3.125 54.5469
L14.7031 54.5469
L30.0781 33.9375
L45.5156 54.5469
L56.25 54.5469
L34.8125 27.6875
z
" id="Verdana-78"/>
     </defs>
     <g transform="translate(206.5078125 418.509375)scale(0.12 -0.12)">
      <use xlink:href="#Verdana-4f"/>
      <use x="78.7109375" xlink:href="#Verdana-62"/>
      <use x="141.015625" xlink:href="#Verdana-6a"/>
      <use x="175.439453125" xlink:href="#Verdana-65"/>
      <use x="235.009765625" xlink:href="#Verdana-63"/>
      <use x="287.109375" xlink:href="#Verdana-74"/>
      <use x="326.513671875" xlink:href="#Verdana-69"/>
      <use x="353.955078125" xlink:href="#Verdana-76"/>
      <use x="412.259765625" xlink:href="#Verdana-65"/>
      <use x="471.830078125" xlink:href="#Verdana-20"/>
      <use x="506.986328125" xlink:href="#Verdana-66"/>
      <use x="542.142578125" xlink:href="#Verdana-75"/>
      <use x="605.423828125" xlink:href="#Verdana-6e"/>
      <use x="668.705078125" xlink:href="#Verdana-63"/>
      <use x="720.8046875" xlink:href="#Verdana-74"/>
      <use x="760.208984375" xlink:href="#Verdana-69"/>
      <use x="787.650390625" xlink:href="#Verdana-6f"/>
      <use x="848.34375" xlink:href="#Verdana-6e"/>
      <use x="911.625" xlink:href="#Verdana-20"/>
      <use x="946.78125" xlink:href="#Verdana-65"/>
      <use x="1006.3515625" xlink:href="#Verdana-78"/>
      <use x="1064.40625" xlink:href="#Verdana-65"/>
      <use x="1123.9765625" xlink:href="#Verdana-63"/>
      <use x="1176.076171875" xlink:href="#Verdana-74"/>
      <use x="1215.48046875" xlink:href="#Verdana-75"/>
      <use x="1278.76171875" xlink:href="#Verdana-69"/>
      <use x="1306.203125" xlink:href="#Verdana-6f"/>
      <use x="1366.896484375" xlink:href="#Verdana-6e"/>
      <use x="1430.177734375" xlink:href="#Verdana-73"/>
     </g>
    </g>
   </g>
   <g id="matplotlib.axis_2">
    <g id="ytick_1">
     <g id="line2d_18">
      <defs>
       <path d="
M0 0
L4 0" id="md7965d1ba0" style="stroke:#000000;stroke-width:0.5;"/>
      </defs>
      <g>
       <use style="stroke:#000000;stroke-width:0.5;" x="72.0" xlink:href="#md7965d1ba0" y="388.8"/>
      </g>
     </g>
     <g id="line2d_19">
      <defs>
       <path d="
M0 0
L-4 0" id="md9a1c1a7cd" style="stroke:#000000;stroke-width:0.5;"/>
      </defs>
      <g>
       <use style="stroke:#000000;stroke-width:0.5;" x="518.4" xlink:href="#md9a1c1a7cd" y="388.8"/>
      </g>
     </g>
     <g id="text_8">
      <!-- 0.0 -->
      <defs>
       <path d="
M24.0312 0
L12.3594 0
L12.3594 13.9219
L24.0312 13.9219
z
" id="Verdana-2e"/>
      </defs>
      <g transform="translate(49.97 392.1515625)scale(0.12 -0.12)">
       <use xlink:href="#Verdana-30"/>
       <use x="63.57421875" xlink:href="#Verdana-2e"/>
       <use x="99.951171875" xlink:href="#Verdana-30"/>
      </g>
     </g>
    </g>
    <g id="ytick_2">
     <g id="line2d_20">
      <g>
       <use style="stroke:#000000;stroke-width:0.5;" x="72.0" xlink:href="#md7965d1ba0" y="350.4"/>
      </g>
     </g>
     <g id="line2d_21">
      <g>
       <use style="stroke:#000000;stroke-width:0.5;" x="518.4" xlink:href="#md9a1c1a7cd" y="350.4"/>
      </g>
     </g>
     <g id="text_9">
      <!-- 0.1 -->
      <g transform="translate(50.455625 353.7515625)scale(0.12 -0.12)">
       <use xlink:href="#Verdana-30"/>
       <use x="63.57421875" xlink:href="#Verdana-2e"/>
       <use x="99.951171875" xlink:href="#Verdana-31"/>
      </g>
     </g>
    </g>
    <g id="ytick_3">
     <g id="line2d_22">
      <g>
       <use style="stroke:#000000;stroke-width:0.5;" x="72.0" xlink:href="#md7965d1ba0" y="312.0"/>
      </g>
     </g>
     <g id="line2d_23">
      <g>
       <use style="stroke:#000000;stroke-width:0.5;" x="518.4" xlink:href="#md9a1c1a7cd" y="312.0"/>
      </g>
     </g>
     <g id="text_10">
      <!-- 0.2 -->
      <g transform="translate(49.95875 315.3515625)scale(0.12 -0.12)">
       <use xlink:href="#Verdana-30"/>
       <use x="63.57421875" xlink:href="#Verdana-2e"/>
       <use x="99.951171875" xlink:href="#Verdana-32"/>
      </g>
     </g>
    </g>
    <g id="ytick_4">
     <g id="line2d_24">
      <g>
       <use style="stroke:#000000;stroke-width:0.5;" x="72.0" xlink:href="#md7965d1ba0" y="273.6"/>
      </g>
     </g>
     <g id="line2d_25">
      <g>
       <use style="stroke:#000000;stroke-width:0.5;" x="518.4" xlink:href="#md9a1c1a7cd" y="273.6"/>
      </g>
     </g>
     <g id="text_11">
      <!-- 0.3 -->
      <g transform="translate(50.080625 276.9515625)scale(0.12 -0.12)">
       <use xlink:href="#Verdana-30"/>
       <use x="63.57421875" xlink:href="#Verdana-2e"/>
       <use x="99.951171875" xlink:href="#Verdana-33"/>
      </g>
     </g>
    </g>
    <g id="ytick_5">
     <g id="line2d_26">
      <g>
       <use style="stroke:#000000;stroke-width:0.5;" x="72.0" xlink:href="#md7965d1ba0" y="235.2"/>
      </g>
     </g>
     <g id="line2d_27">
      <g>
       <use style="stroke:#000000;stroke-width:0.5;" x="518.4" xlink:href="#md9a1c1a7cd" y="235.2"/>
      </g>
     </g>
     <g id="text_12">
      <!-- 0.4 -->
      <g transform="translate(49.76 238.5515625)scale(0.12 -0.12)">
       <use xlink:href="#Verdana-30"/>
       <use x="63.57421875" xlink:href="#Verdana-2e"/>
       <use x="99.951171875" xlink:href="#Verdana-34"/>
      </g>
     </g>
    </g>
    <g id="ytick_6">
     <g id="line2d_28">
      <g>
       <use style="stroke:#000000;stroke-width:0.5;" x="72.0" xlink:href="#md7965d1ba0" y="196.8"/>
      </g>
     </g>
     <g id="line2d_29">
      <g>
       <use style="stroke:#000000;stroke-width:0.5;" x="518.4" xlink:href="#md9a1c1a7cd" y="196.8"/>
      </g>
     </g>
     <g id="text_13">
      <!-- 0.5 -->
      <g transform="translate(50.028125 200.1515625)scale(0.12 -0.12)">
       <use xlink:href="#Verdana-30"/>
       <use x="63.57421875" xlink:href="#Verdana-2e"/>
       <use x="99.951171875" xlink:href="#Verdana-35"/>
      </g>
     </g>
    </g>
    <g id="ytick_7">
     <g id="line2d_30">
      <g>
       <use style="stroke:#000000;stroke-width:0.5;" x="72.0" xlink:href="#md7965d1ba0" y="158.4"/>
      </g>
     </g>
     <g id="line2d_31">
      <g>
       <use style="stroke:#000000;stroke-width:0.5;" x="518.4" xlink:href="#md9a1c1a7cd" y="158.4"/>
      </g>
     </g>
     <g id="text_14">
      <!-- 0.6 -->
      <defs>
       <path d="
M58.1562 23.5781
Q58.1562 12.5 50.8594 5.48438
Q43.5625 -1.51562 32.9531 -1.51562
Q27.5938 -1.51562 23.1875 0.140625
Q18.7969 1.8125 15.4375 5.07812
Q11.2344 9.125 8.95312 15.8125
Q6.6875 22.5156 6.6875 31.9375
Q6.6875 41.6094 8.76562 49.0781
Q10.8438 56.5469 15.375 62.3594
Q19.6719 67.875 26.4531 70.9688
Q33.25 74.0781 42.2812 74.0781
Q45.1719 74.0781 47.125 73.8281
Q49.0781 73.5781 51.0781 72.9531
L51.0781 63.625
L50.5938 63.625
Q49.2188 64.3594 46.4531 65.0156
Q43.7031 65.6719 40.8281 65.6719
Q30.3281 65.6719 24.0781 59.1094
Q17.8281 52.5469 16.7969 41.3594
Q20.9062 43.8438 24.875 45.1406
Q28.8594 46.4375 34.0781 46.4375
Q38.7188 46.4375 42.25 45.5781
Q45.7969 44.7344 49.5156 42.1406
Q53.8125 39.1562 55.9844 34.6094
Q58.1562 30.0781 58.1562 23.5781
M48.25 23.1875
Q48.25 27.7344 46.9062 30.7031
Q45.5625 33.6875 42.4844 35.8906
Q40.2344 37.4531 37.5 37.9375
Q34.7656 38.4219 31.7812 38.4219
Q27.6406 38.4219 24.0781 37.4375
Q20.5156 36.4688 16.75 34.4219
Q16.6562 33.3438 16.5938 32.3438
Q16.5469 31.3438 16.5469 29.8281
Q16.5469 22.125 18.1406 17.6562
Q19.7344 13.1875 22.5156 10.5938
Q24.75 8.45312 27.3594 7.45312
Q29.9844 6.45312 33.0625 6.45312
Q40.1406 6.45312 44.1875 10.7656
Q48.25 15.0938 48.25 23.1875" id="Verdana-36"/>
      </defs>
      <g transform="translate(49.829375 161.7515625)scale(0.12 -0.12)">
       <use xlink:href="#Verdana-30"/>
       <use x="63.57421875" xlink:href="#Verdana-2e"/>
       <use x="99.951171875" xlink:href="#Verdana-36"/>
      </g>
     </g>
    </g>
    <g id="ytick_8">
     <g id="line2d_32">
      <g>
       <use style="stroke:#000000;stroke-width:0.5;" x="72.0" xlink:href="#md7965d1ba0" y="120.0"/>
      </g>
     </g>
     <g id="line2d_33">
      <g>
       <use style="stroke:#000000;stroke-width:0.5;" x="518.4" xlink:href="#md9a1c1a7cd" y="120.0"/>
      </g>
     </g>
     <g id="text_15">
      <!-- 0.7 -->
      <defs>
       <path d="
M57.2812 61.8125
L24.3594 0
L13.9219 0
L48.9219 64.1562
L7.51562 64.1562
L7.51562 72.7031
L57.2812 72.7031
z
" id="Verdana-37"/>
      </defs>
      <g transform="translate(49.934375 123.3515625)scale(0.12 -0.12)">
       <use xlink:href="#Verdana-30"/>
       <use x="63.57421875" xlink:href="#Verdana-2e"/>
       <use x="99.951171875" xlink:href="#Verdana-37"/>
      </g>
     </g>
    </g>
    <g id="ytick_9">
     <g id="line2d_34">
      <g>
       <use style="stroke:#000000;stroke-width:0.5;" x="72.0" xlink:href="#md7965d1ba0" y="81.6"/>
      </g>
     </g>
     <g id="line2d_35">
      <g>
       <use style="stroke:#000000;stroke-width:0.5;" x="518.4" xlink:href="#md9a1c1a7cd" y="81.6"/>
      </g>
     </g>
     <g id="text_16">
      <!-- 0.8 -->
      <defs>
       <path d="
M57.625 20.2656
Q57.625 10.8438 50.2656 4.59375
Q42.9219 -1.65625 31.7812 -1.65625
Q19.9688 -1.65625 12.9531 4.4375
Q5.95312 10.5469 5.95312 20.0625
Q5.95312 26.125 9.46875 31.0312
Q12.9844 35.9375 19.3906 38.8125
L19.3906 39.1094
Q13.5312 42.2344 10.7188 45.9375
Q7.90625 49.6562 7.90625 55.2188
Q7.90625 63.4219 14.6406 68.8906
Q21.3906 74.3594 31.7812 74.3594
Q42.6719 74.3594 49.1719 69.1406
Q55.6719 63.9219 55.6719 55.8594
Q55.6719 50.9219 52.5938 46.1562
Q49.5156 41.4062 43.5625 38.7188
L43.5625 38.4219
Q50.3906 35.5 54 31.2031
Q57.625 26.9062 57.625 20.2656
M46.0469 55.7656
Q46.0469 60.9844 42.0156 64.0781
Q37.9844 67.1875 31.7344 67.1875
Q25.5938 67.1875 21.6562 64.25
Q17.7188 61.3281 17.7188 56.3438
Q17.7188 52.8281 19.7031 50.2656
Q21.6875 47.7031 25.6875 45.7031
Q27.4844 44.8281 30.875 43.4062
Q34.2812 42 37.5 41.0625
Q42.3281 44.2812 44.1875 47.75
Q46.0469 51.2188 46.0469 55.7656
M47.5625 19.3438
Q47.5625 23.8281 45.5781 26.5312
Q43.6094 29.25 37.8438 31.9844
Q35.5469 33.0625 32.8125 33.9844
Q30.0781 34.9062 25.5312 36.5781
Q21.1406 34.1875 18.4844 30.0781
Q15.8281 25.9844 15.8281 20.7969
Q15.8281 14.2031 20.3594 9.90625
Q24.9062 5.60938 31.8906 5.60938
Q39.0156 5.60938 43.2812 9.26562
Q47.5625 12.9375 47.5625 19.3438" id="Verdana-38"/>
      </defs>
      <g transform="translate(49.893125 84.9515625)scale(0.12 -0.12)">
       <use xlink:href="#Verdana-30"/>
       <use x="63.57421875" xlink:href="#Verdana-2e"/>
       <use x="99.951171875" xlink:href="#Verdana-38"/>
      </g>
     </g>
    </g>
    <g id="ytick_10">
     <g id="line2d_36">
      <g>
       <use style="stroke:#000000;stroke-width:0.5;" x="72.0" xlink:href="#md7965d1ba0" y="43.2"/>
      </g>
     </g>
     <g id="line2d_37">
      <g>
       <use style="stroke:#000000;stroke-width:0.5;" x="518.4" xlink:href="#md9a1c1a7cd" y="43.2"/>
      </g>
     </g>
     <g id="text_17">
      <!-- 0.9 -->
      <defs>
       <path d="
M56.9844 40.7188
Q56.9844 31.2031 54.8125 23.4375
Q52.6406 15.6719 48.25 10.2031
Q43.7969 4.64062 37.1094 1.60938
Q30.4219 -1.42188 21.3906 -1.42188
Q18.8438 -1.42188 16.5938 -1.14062
Q14.3594 -0.875 12.5938 -0.296875
L12.5938 9.03125
L13.0938 9.03125
Q14.5 8.29688 17.0781 7.64062
Q19.6719 6.98438 22.8594 6.98438
Q33.6406 6.98438 39.7656 13.4531
Q45.9062 19.9219 46.875 31.2969
Q42.3281 28.5625 38.3281 27.3906
Q34.3281 26.2188 29.5938 26.2188
Q25.0938 26.2188 21.4531 27.0938
Q17.8281 27.9844 14.1562 30.5156
Q9.85938 33.5 7.6875 38.0781
Q5.51562 42.6719 5.51562 49.0781
Q5.51562 60.2031 12.8438 67.1875
Q20.1719 74.1719 30.7188 74.1719
Q35.9844 74.1719 40.4688 72.5312
Q44.9688 70.9062 48.3438 67.625
Q52.4844 63.5781 54.7344 57.2031
Q56.9844 50.8281 56.9844 40.7188
M47.125 42.8281
Q47.125 50.3906 45.5625 54.9844
Q44 59.5781 41.2656 62.1094
Q38.9688 64.3125 36.3281 65.2656
Q33.6875 66.2188 30.6094 66.2188
Q23.5781 66.2188 19.5 61.8125
Q15.4375 57.4219 15.4375 49.4688
Q15.4375 44.8281 16.75 41.8906
Q18.0625 38.9688 21.1875 36.7656
Q23.3906 35.25 26.0156 34.7344
Q28.6562 34.2344 31.8906 34.2344
Q35.6875 34.2344 39.5938 35.25
Q43.5 36.2812 46.9219 38.2344
Q46.9688 39.2656 47.0469 40.2656
Q47.125 41.2656 47.125 42.8281" id="Verdana-39"/>
      </defs>
      <g transform="translate(49.97 46.5515625)scale(0.12 -0.12)">
       <use xlink:href="#Verdana-30"/>
       <use x="63.57421875" xlink:href="#Verdana-2e"/>
       <use x="99.951171875" xlink:href="#Verdana-39"/>
      </g>
     </g>
    </g>
    <g id="text_18">
     <!-- Rank 0 Probability -->
     <defs>
      <path d="
M56.2031 54.5469
L24.3594 -20.125
L14.5469 -20.125
L24.7031 2.64062
L2.98438 54.5469
L12.9375 54.5469
L29.6875 14.1094
L46.5781 54.5469
z
" id="Verdana-79"/>
      <path d="
M69.9219 0
L57.375 0
L33.0625 28.9062
L19.4375 28.9062
L19.4375 0
L9.76562 0
L9.76562 72.7031
L30.125 72.7031
Q36.7188 72.7031 41.1094 71.8438
Q45.5156 71 49.0312 68.7969
Q52.9844 66.3125 55.2031 62.5156
Q57.4219 58.7344 57.4219 52.9375
Q57.4219 45.0625 53.4688 39.7656
Q49.5156 34.4688 42.5781 31.7812
z

M47.3125 52.25
Q47.3125 55.375 46.2188 57.7812
Q45.125 60.2031 42.5781 61.8594
Q40.4844 63.2812 37.5938 63.8438
Q34.7188 64.4062 30.8125 64.4062
L19.4375 64.4062
L19.4375 36.9688
L29.2031 36.9688
Q33.7969 36.9688 37.2031 37.7656
Q40.625 38.5781 43.0156 40.7656
Q45.2188 42.8281 46.2656 45.4844
Q47.3125 48.1406 47.3125 52.25" id="Verdana-52"/>
      <path d="
M51.4219 0
L42.2812 0
L42.2812 5.8125
Q41.0625 4.98438 38.9844 3.48438
Q36.9219 2 34.9688 1.125
Q32.6719 0 29.6875 -0.75
Q26.7031 -1.51562 22.7031 -1.51562
Q15.3281 -1.51562 10.2031 3.35938
Q5.07812 8.25 5.07812 15.8281
Q5.07812 22.0156 7.73438 25.8438
Q10.4062 29.6875 15.3281 31.8906
Q20.3125 34.0781 27.2969 34.8594
Q34.2812 35.6406 42.2812 36.0312
L42.2812 37.4531
Q42.2812 40.5781 41.1875 42.625
Q40.0938 44.6719 38.0312 45.8438
Q36.0781 46.9688 33.3438 47.3594
Q30.6094 47.75 27.6406 47.75
Q24.0312 47.75 19.5781 46.7969
Q15.1406 45.8438 10.4062 44.0469
L9.90625 44.0469
L9.90625 53.375
Q12.5938 54.1094 17.6719 54.9844
Q22.75 55.8594 27.6875 55.8594
Q33.4531 55.8594 37.7188 54.9062
Q42 53.9531 45.125 51.6562
Q48.1875 49.4219 49.7969 45.8438
Q51.4219 42.2812 51.4219 37.0156
z

M42.2812 13.4219
L42.2812 28.6094
Q38.0938 28.375 32.3906 27.875
Q26.7031 27.3906 23.3906 26.4688
Q19.4375 25.3438 16.9844 22.9688
Q14.5469 20.6094 14.5469 16.4531
Q14.5469 11.7656 17.375 9.39062
Q20.2188 7.03125 26.0312 7.03125
Q30.8594 7.03125 34.8594 8.90625
Q38.875 10.7969 42.2812 13.4219" id="Verdana-61"/>
      <path d="
M57.3281 50.7344
Q57.3281 45.9062 55.6406 41.7656
Q53.9531 37.6406 50.9219 34.625
Q47.1719 30.8594 42.0469 28.9688
Q36.9219 27.0938 29.1094 27.0938
L19.4375 27.0938
L19.4375 0
L9.76562 0
L9.76562 72.7031
L29.5 72.7031
Q36.0312 72.7031 40.5781 71.6094
Q45.125 70.5156 48.6406 68.1719
Q52.7812 65.375 55.0469 61.2188
Q57.3281 57.0781 57.3281 50.7344
M47.2656 50.4844
Q47.2656 54.25 45.9375 57.0312
Q44.625 59.8125 41.9375 61.5781
Q39.5938 63.0938 36.5938 63.75
Q33.5938 64.4062 29 64.4062
L19.4375 64.4062
L19.4375 35.3594
L27.5938 35.3594
Q33.4531 35.3594 37.1094 36.4062
Q40.7656 37.4531 43.0625 39.75
Q45.3594 42.0938 46.3125 44.6719
Q47.2656 47.2656 47.2656 50.4844" id="Verdana-50"/>
      <path d="
M18.3125 0
L9.125 0
L9.125 75.9844
L18.3125 75.9844
z
" id="Verdana-6c"/>
      <path d="
M58.5469 0
L46.4375 0
L24.5625 23.875
L18.6094 18.2188
L18.6094 0
L9.42188 0
L9.42188 75.9844
L18.6094 75.9844
L18.6094 27.25
L45.125 54.5469
L56.6875 54.5469
L31.3438 29.3438
z
" id="Verdana-6b"/>
      <path d="
M43.0625 44.5312
L42.5781 44.5312
Q40.5312 45.0156 38.5938 45.2344
Q36.6719 45.4531 34.0312 45.4531
Q29.7812 45.4531 25.8281 43.5781
Q21.875 41.7031 18.2188 38.7188
L18.2188 0
L9.03125 0
L9.03125 54.5469
L18.2188 54.5469
L18.2188 46.4844
Q23.6875 50.875 27.8594 52.7031
Q32.0312 54.5469 36.375 54.5469
Q38.7656 54.5469 39.8438 54.4219
Q40.9219 54.2969 43.0625 53.9531
z
" id="Verdana-72"/>
     </defs>
     <g transform="translate(42.345 270.583125)rotate(-90.0)scale(0.12 -0.12)">
      <use xlink:href="#Verdana-52"/>
      <use x="67.53125" xlink:href="#Verdana-61"/>
      <use x="127.58984375" xlink:href="#Verdana-6e"/>
      <use x="190.87109375" xlink:href="#Verdana-6b"/>
      <use x="250.05078125" xlink:href="#Verdana-20"/>
      <use x="285.20703125" xlink:href="#Verdana-30"/>
      <use x="348.78125" xlink:href="#Verdana-20"/>
      <use x="383.9375" xlink:href="#Verdana-50"/>
      <use x="444.240234375" xlink:href="#Verdana-72"/>
      <use x="486.916015625" xlink:href="#Verdana-6f"/>
      <use x="547.609375" xlink:href="#Verdana-62"/>
      <use x="609.9140625" xlink:href="#Verdana-61"/>
      <use x="669.97265625" xlink:href="#Verdana-62"/>
      <use x="732.27734375" xlink:href="#Verdana-69"/>
      <use x="759.71875" xlink:href="#Verdana-6c"/>
      <use x="787.16015625" xlink:href="#Verdana-69"/>
      <use x="814.6015625" xlink:href="#Verdana-74"/>
      <use x="853.505859375" xlink:href="#Verdana-79"/>
     </g>
    </g>
   </g>
   <g id="patch_3">
    <path d="
M518.4 388.8
L518.4 43.2" style="fill:none;stroke:#000000;"/>
   </g>
   <g id="patch_4">
    <path d="
M72 43.2
L518.4 43.2" style="fill:none;stroke:#000000;"/>
   </g>
   <g id="patch_5">
    <path d="
M72 388.8
L518.4 388.8" style="fill:none;stroke:#000000;"/>
   </g>
   <g id="patch_6">
    <path d="
M72 388.8
L72 43.2" style="fill:none;stroke:#000000;"/>
   </g>
   <g id="text_19">
    <!-- Giunta Rank 0 Probability -->
    <defs>
     <path d="
M70.4062 5.375
Q64.4531 2.64062 57.3906 0.609375
Q50.3438 -1.42188 43.75 -1.42188
Q35.25 -1.42188 28.1719 0.921875
Q21.0938 3.26562 16.1094 7.95312
Q11.0781 12.7031 8.34375 19.7969
Q5.60938 26.9062 5.60938 36.4219
Q5.60938 53.8594 15.7969 63.9375
Q25.9844 74.0312 43.75 74.0312
Q49.9531 74.0312 56.4219 72.5312
Q62.8906 71.0469 70.3594 67.4844
L70.3594 56
L69.4844 56
Q67.9688 57.1719 65.0781 59.0781
Q62.2031 60.9844 59.4219 62.25
Q56.0625 63.7656 51.7812 64.7656
Q47.5156 65.7656 42.0938 65.7656
Q29.8906 65.7656 22.7812 57.9219
Q15.6719 50.0938 15.6719 36.7188
Q15.6719 22.6094 23.0938 14.7656
Q30.5156 6.9375 43.3125 6.9375
Q48 6.9375 52.6562 7.85938
Q57.3281 8.79688 60.8438 10.25
L60.8438 28.0781
L41.3594 28.0781
L41.3594 36.5781
L70.4062 36.5781
z
" id="Verdana-47"/>
    </defs>
    <g transform="translate(203.335875 38.2)scale(0.144 -0.144)">
     <use xlink:href="#Verdana-47"/>
     <use x="77.5390625" xlink:href="#Verdana-69"/>
     <use x="104.98046875" xlink:href="#Verdana-75"/>
     <use x="168.26171875" xlink:href="#Verdana-6e"/>
     <use x="231.54296875" xlink:href="#Verdana-74"/>
     <use x="270.947265625" xlink:href="#Verdana-61"/>
     <use x="331.005859375" xlink:href="#Verdana-20"/>
     <use x="366.162109375" xlink:href="#Verdana-52"/>
     <use x="433.693359375" xlink:href="#Verdana-61"/>
     <use x="493.751953125" xlink:href="#Verdana-6e"/>
     <use x="557.033203125" xlink:href="#Verdana-6b"/>
     <use x="616.212890625" xlink:href="#Verdana-20"/>
     <use x="651.369140625" xlink:href="#Verdana-30"/>
     <use x="714.943359375" xlink:href="#Verdana-20"/>
     <use x="750.099609375" xlink:href="#Verdana-50"/>
     <use x="810.40234375" xlink:href="#Verdana-72"/>
     <use x="853.078125" xlink:href="#Verdana-6f"/>
     <use x="913.771484375" xlink:href="#Verdana-62"/>
     <use x="976.076171875" xlink:href="#Verdana-61"/>
     <use x="1036.134765625" xlink:href="#Verdana-62"/>
     <use x="1098.439453125" xlink:href="#Verdana-69"/>
     <use x="1125.880859375" xlink:href="#Verdana-6c"/>
     <use x="1153.322265625" xlink:href="#Verdana-69"/>
     <use x="1180.763671875" xlink:href="#Verdana-74"/>
     <use x="1219.66796875" xlink:href="#Verdana-79"/>
    </g>
   </g>
   <g id="legend_1">
    <g id="patch_7">
     <path d="
M407.18 270.759
L511.2 270.759
L511.2 161.241
L407.18 161.241
L407.18 270.759
z
" style="fill:#ffffff;stroke:#000000;"/>
    </g>
    <g id="line2d_38">
     <path d="
M417.26 172.902
L437.42 172.902" style="fill:none;stroke:#0000ff;stroke-dasharray:6.000000,2.000000;stroke-dashoffset:0.0;"/>
    </g>
    <g id="line2d_39"/>
    <g id="text_20">
     <!-- AMPGO -->
     <defs>
      <path d="
M74.5156 0
L64.8438 0
L64.8438 62.6406
L44.625 20.0156
L38.875 20.0156
L18.7969 62.6406
L18.7969 0
L9.76562 0
L9.76562 72.7031
L22.9531 72.7031
L42.3281 32.2344
L61.0781 72.7031
L74.5156 72.7031
z
" id="Verdana-4d"/>
      <path d="
M67.0938 0
L56.7812 0
L49.6562 20.2656
L18.2188 20.2656
L11.0781 0
L1.26562 0
L27.7344 72.7031
L40.625 72.7031
z

M46.6875 28.5625
L33.9375 64.2656
L21.1406 28.5625
z
" id="Verdana-41"/>
     </defs>
     <g transform="translate(453.26025 177.942375)scale(0.144 -0.144)">
      <use xlink:href="#Verdana-41"/>
      <use x="68.359375" xlink:href="#Verdana-4d"/>
      <use x="152.63671875" xlink:href="#Verdana-50"/>
      <use x="212.939453125" xlink:href="#Verdana-47"/>
      <use x="290.478515625" xlink:href="#Verdana-4f"/>
     </g>
    </g>
    <g id="line2d_40">
     <path d="
M417.26 193.942
L437.42 193.942" style="fill:none;stroke:#008000;stroke-dasharray:1.000000,1.000000;stroke-dashoffset:0.0;"/>
    </g>
    <g id="line2d_41"/>
    <g id="text_21">
     <!-- Anneal -->
     <g transform="translate(453.26025 198.982125)scale(0.144 -0.144)">
      <use xlink:href="#Verdana-41"/>
      <use x="68.359375" xlink:href="#Verdana-6e"/>
      <use x="131.640625" xlink:href="#Verdana-6e"/>
      <use x="194.921875" xlink:href="#Verdana-65"/>
      <use x="254.4921875" xlink:href="#Verdana-61"/>
      <use x="314.55078125" xlink:href="#Verdana-6c"/>
     </g>
    </g>
    <g id="line2d_42">
     <path d="
M417.26 214.982
L437.42 214.982" style="fill:none;stroke:#ff0000;stroke-dasharray:3.000000,6.000000;stroke-dashoffset:0.0;"/>
    </g>
    <g id="line2d_43"/>
    <g id="text_22">
     <!-- BSA -->
     <defs>
      <path d="
M62.5938 20.75
Q62.5938 16.5 60.6094 12.3438
Q58.6406 8.20312 55.0781 5.32812
Q51.1719 2.20312 45.9688 0.4375
Q40.7656 -1.3125 33.4531 -1.3125
Q25.5938 -1.3125 19.3125 0.140625
Q13.0312 1.60938 6.54688 4.5
L6.54688 16.6094
L7.23438 16.6094
Q12.75 12.0156 19.9688 9.51562
Q27.2031 7.03125 33.5469 7.03125
Q42.5312 7.03125 47.5312 10.3906
Q52.5469 13.7656 52.5469 19.3906
Q52.5469 24.2188 50.1719 26.5156
Q47.7969 28.8125 42.9688 30.0781
Q39.3125 31.0625 35.0312 31.6875
Q30.7656 32.3281 25.9844 33.2969
Q16.3125 35.3594 11.6406 40.3125
Q6.98438 45.2656 6.98438 53.2188
Q6.98438 62.3594 14.6875 68.1875
Q22.4062 74.0312 34.2812 74.0312
Q41.9375 74.0312 48.3281 72.5625
Q54.7344 71.0938 59.6719 68.9531
L59.6719 57.5156
L58.9844 57.5156
Q54.8281 61.0312 48.0625 63.3438
Q41.3125 65.6719 34.2344 65.6719
Q26.4688 65.6719 21.75 62.4531
Q17.0469 59.2344 17.0469 54.1562
Q17.0469 49.6094 19.3906 47.0156
Q21.7344 44.4375 27.6406 43.0625
Q30.7656 42.3906 36.5156 41.4062
Q42.2812 40.4375 46.2969 39.4062
Q54.3906 37.25 58.4844 32.9062
Q62.5938 28.5625 62.5938 20.75" id="Verdana-53"/>
      <path d="
M64.5938 22.3594
Q64.5938 16.9375 62.5469 12.7812
Q60.5 8.64062 57.0312 5.95312
Q52.9375 2.73438 48.0156 1.35938
Q43.1094 0 35.5469 0
L9.76562 0
L9.76562 72.7031
L31.2969 72.7031
Q39.2656 72.7031 43.2188 72.1094
Q47.1719 71.5312 50.7812 69.6719
Q54.7812 67.5781 56.5938 64.2812
Q58.4062 60.9844 58.4062 56.3906
Q58.4062 51.2188 55.7656 47.5781
Q53.125 43.9531 48.7344 41.75
L48.7344 41.3594
Q56.1094 39.8438 60.3438 34.8906
Q64.5938 29.9375 64.5938 22.3594
M48.3438 55.125
Q48.3438 57.7656 47.4531 59.5625
Q46.5781 61.375 44.625 62.5
Q42.3281 63.8125 39.0625 64.125
Q35.7969 64.4531 30.9531 64.4531
L19.4375 64.4531
L19.4375 43.4531
L31.9375 43.4531
Q36.4688 43.4531 39.1562 43.9219
Q41.8438 44.3906 44.1406 45.8438
Q46.4375 47.3125 47.3906 49.625
Q48.3438 51.9531 48.3438 55.125
M54.5469 21.9688
Q54.5469 26.375 53.2188 28.9531
Q51.9062 31.5469 48.4375 33.3438
Q46.0938 34.5781 42.75 34.9375
Q39.4062 35.2969 34.625 35.2969
L19.4375 35.2969
L19.4375 8.25
L32.2344 8.25
Q38.5781 8.25 42.625 8.90625
Q46.6875 9.57812 49.2656 11.3281
Q52 13.2344 53.2656 15.6719
Q54.5469 18.1094 54.5469 21.9688" id="Verdana-42"/>
     </defs>
     <g transform="translate(453.26025 220.021875)scale(0.144 -0.144)">
      <use xlink:href="#Verdana-42"/>
      <use x="68.5546875" xlink:href="#Verdana-53"/>
      <use x="135.9140625" xlink:href="#Verdana-41"/>
     </g>
    </g>
    <g id="line2d_44">
     <path d="
M417.26 236.022
L437.42 236.022" style="fill:none;stroke:#00bfbf;stroke-dasharray:5.000000,1.000000,2.000000,1.000000,5.000000,1.000000;stroke-dashoffset:0.0;"/>
    </g>
    <g id="line2d_45"/>
    <g id="text_23">
     <!-- Cuckoo -->
     <defs>
      <path d="
M65.9219 5.28125
Q63.2344 4.10938 61.0625 3.07812
Q58.8906 2.04688 55.375 0.921875
Q52.3906 0 48.8906 -0.65625
Q45.4062 -1.3125 41.2188 -1.3125
Q33.2969 -1.3125 26.8281 0.90625
Q20.3594 3.125 15.5781 7.85938
Q10.8906 12.5 8.25 19.6562
Q5.60938 26.8125 5.60938 36.2812
Q5.60938 45.2656 8.14062 52.3438
Q10.6875 59.4219 15.4844 64.3125
Q20.125 69.0469 26.6875 71.5312
Q33.25 74.0312 41.2656 74.0312
Q47.125 74.0312 52.9531 72.6094
Q58.7969 71.1875 65.9219 67.625
L65.9219 56.1562
L65.1875 56.1562
Q59.1875 61.1875 53.2656 63.4688
Q47.3594 65.7656 40.625 65.7656
Q35.1094 65.7656 30.6875 63.9844
Q26.2656 62.2031 22.7969 58.4531
Q19.4375 54.7812 17.5469 49.1875
Q15.6719 43.6094 15.6719 36.2812
Q15.6719 28.6094 17.75 23.0938
Q19.8281 17.5781 23.0938 14.1094
Q26.5156 10.5 31.0781 8.76562
Q35.6406 7.03125 40.7188 7.03125
Q47.7031 7.03125 53.7969 9.42188
Q59.9062 11.8125 65.2344 16.6094
L65.9219 16.6094
z
" id="Verdana-43"/>
     </defs>
     <g transform="translate(453.26025 241.061625)scale(0.144 -0.144)">
      <use xlink:href="#Verdana-43"/>
      <use x="69.82421875" xlink:href="#Verdana-75"/>
      <use x="133.10546875" xlink:href="#Verdana-63"/>
      <use x="185.205078125" xlink:href="#Verdana-6b"/>
      <use x="243.384765625" xlink:href="#Verdana-6f"/>
      <use x="304.078125" xlink:href="#Verdana-6f"/>
     </g>
    </g>
    <g id="line2d_46">
     <path d="
M417.26 257.061
L437.42 257.061" style="fill:none;stroke:#bf00bf;stroke-linecap:square;"/>
    </g>
    <g id="line2d_47"/>
    <g id="text_24">
     <!-- qABC -->
     <defs>
      <path d="
M53.2656 -20.125
L44.0938 -20.125
L44.0938 6.15625
Q39.8438 2.48438 35.6406 0.703125
Q31.4531 -1.07812 26.5625 -1.07812
Q16.8438 -1.07812 11.0625 6.42188
Q5.28125 13.9219 5.28125 27.0938
Q5.28125 34.125 7.29688 39.5156
Q9.32812 44.9219 12.6406 48.5781
Q15.875 52.1562 20.2188 54.1094
Q24.5625 56.0625 29.3906 56.0625
Q33.7969 56.0625 37.1875 55.0781
Q40.5781 54.1094 44.0938 52.2031
L44.6719 54.5469
L53.2656 54.5469
z

M44.0938 13.875
L44.0938 44.7344
Q40.2812 46.4375 37.3438 47.1094
Q34.4219 47.7969 31 47.7969
Q23.0469 47.7969 18.8906 42.4062
Q14.75 37.0156 14.75 27.5469
Q14.75 17.9688 18.0938 12.8125
Q21.4375 7.67188 28.6094 7.67188
Q32.625 7.67188 36.625 9.40625
Q40.625 11.1406 44.0938 13.875" id="Verdana-71"/>
     </defs>
     <g transform="translate(453.26025 262.101375)scale(0.144 -0.144)">
      <use xlink:href="#Verdana-71"/>
      <use x="62.3046875" xlink:href="#Verdana-41"/>
      <use x="130.6640625" xlink:href="#Verdana-42"/>
      <use x="199.21875" xlink:href="#Verdana-43"/>
     </g>
    </g>
   </g>
  </g>
 </g>
 <defs>
  <clipPath id="p7ff5b81e1d">
   <rect height="345.6" width="446.4" x="72.0" y="43.2"/>
  </clipPath>
 </defs>
</svg>
