<?xml version="1.0" encoding="utf-8" standalone="no"?>
<!DOCTYPE svg PUBLIC "-//W3C//DTD SVG 1.1//EN"
  "http://www.w3.org/Graphics/SVG/1.1/DTD/svg11.dtd">
<!-- Created with matplotlib (http://matplotlib.org/) -->
<svg height="432pt" version="1.1" viewBox="0 0 576 432" width="576pt" xmlns="http://www.w3.org/2000/svg" xmlns:xlink="http://www.w3.org/1999/xlink">
 <defs>
  <style type="text/css">
*{stroke-linecap:butt;stroke-linejoin:round;}
  </style>
 </defs>
 <g id="figure_1">
  <g id="patch_1">
   <path d="
M0 432
L576 432
L576 0
L0 0
z
" style="fill:#ffffff;"/>
  </g>
  <g id="axes_1">
   <g id="patch_2">
    <path d="
M72 388.8
L518.4 388.8
L518.4 43.2
L72 43.2
z
" style="fill:#ffffff;"/>
   </g>
   <g id="line2d_1">
    <path clip-path="url(#p7ff5b81e1d)" d="
M72 66.2287
L72.8928 66.2287
L73.0714 153.227
L73.7856 153.227
L73.9642 210.151
L74.6784 210.151
L74.857 225.879
L75.5712 225.879
L75.7498 257.102
L76.464 257.102
L76.6426 268.522
L77.3568 268.522
L77.5354 279.372
L78.2496 279.372
L78.4282 286.161
L79.1424 286.161
L79.321 290.441
L80.0352 290.441
L80.2138 293.016
L80.928 293.016
L81.1066 294.664
L81.8208 294.664
L81.9994 295.829
L82.7136 295.829
L82.8922 296.624
L83.6064 296.624
L83.785 297.218
L84.4992 297.218
L84.6778 297.592
L85.392 297.592
L85.5706 297.818
L86.2848 297.818
L86.4634 298.021
L87.1776 298.021
L87.3562 298.153
L88.9632 298.212
L89.231 298.27
L122.532 298.379
L126.996 298.383
L157.262 298.485
L158.334 298.509
L164.226 298.617
L166.012 298.659
L169.762 298.767
L172.172 298.836
L176.19 298.941
L176.993 298.958
L183.243 299.062
L185.475 299.133
L191.189 299.242
L204.581 299.455
L236.275 299.614
L236.9 299.633
L255.47 299.744
L283.772 300.128
L285.647 300.168
L333.412 300.787
L356.625 300.922
L366.892 301.045
L367.517 301.063
L370.284 301.085
L383.587 301.192
L385.998 301.222
L396.265 301.327
L397.247 301.349
L410.907 301.454
L412.157 301.474
L440.369 301.761
L441.976 301.779
L455.725 301.876
L456.35 301.898
L474.831 302.009
L518.311 302.499
L518.311 302.499" style="fill:none;stroke:#0000ff;stroke-dasharray:6.000000,2.000000;stroke-dashoffset:0.0;"/>
   </g>
   <g id="line2d_2">
    <path clip-path="url(#p7ff5b81e1d)" d="
M72 65.7778
L72.625 122.763
L73.1606 157.09
L73.7856 186.964
L74.4998 212.371
L75.0355 227.882
L76.2854 253.235
L76.9104 263.098
L78.7853 284.535
L79.0531 286.544
L80.3923 296.98
L81.1958 302.28
L82.1779 308.029
L83.0707 312.48
L84.0528 316.6
L84.4992 318.442
L84.8563 319.709
L86.4634 324.974
L86.6419 325.386
L87.0883 326.659
L87.624 328.067
L88.3382 330.123
L88.6954 330.856
L89.231 332.103
L89.6774 333.045
L90.0346 333.896
L90.6595 334.966
L91.2845 335.992
L91.8202 336.825
L93.0701 338.546
L93.3379 339.013
L95.3021 341.488
L95.5699 341.988
L96.1056 342.605
L96.3734 342.808
L97.2662 343.798
L97.7126 344.163
L97.9805 344.525
L100.837 347.219
L101.462 347.672
L103.069 348.918
L103.516 349.256
L103.873 349.458
L104.319 349.736
L104.766 350.107
L105.837 350.691
L106.462 351.125
L107.087 351.466
L107.623 351.74
L108.158 352.038
L108.516 352.197
L108.694 352.274
L108.873 352.468
L112.89 354.018
L113.247 354.117
L113.515 354.24
L114.051 354.344
L114.497 354.61
L114.854 354.728
L117.711 355.585
L118.515 355.815
L119.051 356.037
L119.408 356.141
L119.854 356.212
L120.211 356.374
L120.747 356.448
L121.104 356.584
L121.997 356.802
L122.354 356.894
L123.604 357.264
L124.14 357.366
L126.282 358.025
L126.639 358.096
L127.175 358.306
L127.621 358.366
L128.336 358.713
L130.389 359.205
L131.103 359.305
L131.996 359.613
L133.692 360
L134.407 360.176
L136.014 360.426
L137.799 360.835
L138.871 360.967
L139.585 361.178
L140.388 361.285
L140.924 361.407
L142.263 361.558
L142.531 361.629
L143.424 361.706
L144.585 361.821
L149.495 362.463
L149.941 362.568
L151.37 362.759
L152.709 362.958
L153.423 363.064
L159.941 363.84
L160.655 363.932
L161.101 364
L161.905 364.052
L162.976 364.167
L163.333 364.212
L165.119 364.318
L165.744 364.339
L168.333 364.428
L169.137 364.56
L171.012 364.692
L172.529 364.777
L176.636 365.063
L177.35 365.15
L178.332 365.233
L178.69 365.314
L181.011 365.43
L181.547 365.466
L184.404 365.556
L186.814 365.637
L187.082 365.703
L189.135 365.823
L189.582 365.874
L193.064 365.999
L194.671 366.05
L196.01 366.123
L196.278 366.173
L197.26 366.263
L197.706 366.321
L199.403 366.426
L199.938 366.456
L204.045 366.679
L207.973 366.895
L211.902 366.993
L212.705 367.125
L214.491 367.231
L215.116 367.272
L219.848 367.382
L220.294 367.41
L221.187 367.455
L229.758 367.709
L230.204 367.738
L234.222 367.84
L234.757 367.86
L237.436 368.018
L237.882 368.046
L240.293 368.142
L240.828 368.196
L246.542 368.306
L255.024 368.717
L258.327 368.825
L259.577 368.878
L266.184 368.987
L272.076 369.183
L276.719 369.29
L278.237 369.298
L281.808 369.405
L282.433 369.431
L287.611 369.537
L288.593 369.555
L306.449 369.86
L306.896 369.888
L317.966 369.98
L318.502 370.001
L324.752 370.13
L325.555 370.176
L335.108 370.291
L335.822 370.334
L347.34 370.457
L348.679 370.504
L363.678 370.597
L364.124 370.624
L375.016 370.719
L375.641 370.764
L379.57 370.868
L380.105 370.888
L387.783 370.992
L388.319 371.016
L391.622 371.12
L392.783 371.131
L405.639 371.242
L407.693 371.272
L424.835 371.38
L425.281 371.407
L448.494 371.502
L448.851 371.532
L467.51 371.639
L467.957 371.664
L489.92 371.773
L490.366 371.798
L506.079 371.927
L506.615 371.948
L518.311 372.056
L518.311 372.056" style="fill:none;stroke:#008000;stroke-dasharray:1.000000,1.000000;stroke-dashoffset:0.0;"/>
   </g>
   <g id="line2d_3">
    <path clip-path="url(#p7ff5b81e1d)" d="
M72 62.2694
L72.0893 99.7574
L72.2678 133.44
L72.625 159.073
L73.1606 180.093
L73.6963 191.807
L74.0534 193.259
L74.232 194.233
L74.4998 195.479
L74.7677 196.407
L74.9462 197.445
L75.0355 197.588
L75.3034 198.554
L75.7498 200.217
L76.8211 205.235
L76.9104 205.325
L77.1782 206.48
L78.9638 213.03
L79.321 214.927
L81.1958 221.923
L81.4637 222.697
L81.8208 224.421
L81.9994 225.017
L82.2672 226.308
L82.7136 227.662
L82.8922 228.115
L83.0707 229.066
L84.0528 232.96
L84.4992 234.018
L85.1242 236.434
L85.4813 237.619
L85.7491 238.794
L86.3741 240.338
L86.6419 241.326
L86.8205 241.723
L86.9098 241.746
L87.8918 244.685
L88.249 245.753
L88.4275 246.079
L88.6954 247.099
L88.8739 247.543
L89.3203 248.8
L89.6774 249.421
L90.1238 250.744
L90.9274 253.416
L91.8202 255.774
L92.088 256.244
L92.5344 257.568
L92.6237 257.609
L93.1594 259.05
L93.4272 259.654
L94.4093 262.508
L94.7664 263.771
L94.8557 263.799
L95.3914 264.841
L96.0163 266.587
L96.1056 266.74
L96.552 268.26
L96.7306 268.557
L97.177 269.389
L97.4448 269.992
L97.7126 270.945
L97.9805 271.508
L98.8733 273.102
L99.0518 273.785
L99.2304 273.948
L99.6768 275.06
L99.8554 275.198
L100.659 277.055
L101.016 277.881
L101.73 279.522
L101.909 279.956
L101.998 280.014
L102.355 280.754
L102.534 280.971
L102.802 281.739
L103.427 282.975
L103.516 283.018
L103.873 283.858
L104.23 284.302
L107.533 289.983
L107.623 290.026
L108.248 291.731
L109.14 293.358
L109.319 293.428
L110.033 294.304
L110.837 295.974
L111.105 296.255
L111.819 297.252
L111.908 297.285
L112.087 297.496
L112.176 297.508
L112.355 297.834
L112.533 298.273
L112.712 298.467
L113.069 299.299
L113.694 299.94
L113.962 300.484
L114.408 300.967
L114.854 301.49
L114.944 301.529
L115.212 301.978
L115.926 302.871
L116.461 304.064
L116.551 304.116
L116.729 304.446
L116.997 304.902
L117.176 305.205
L117.354 305.423
L120.211 309.167
L120.3 309.185
L120.568 309.458
L120.747 309.569
L120.925 309.844
L122.354 311.404
L122.532 311.534
L124.05 313.685
L124.407 314.358
L124.497 314.377
L124.764 314.874
L125.122 315.261
L125.747 316.089
L125.925 316.417
L126.282 316.796
L126.729 317.457
L126.907 317.522
L127.711 318.873
L128.068 319.222
L128.604 319.754
L129.05 320.119
L129.675 320.996
L130.3 321.828
L130.568 322.075
L131.193 322.652
L131.55 322.886
L131.996 323.35
L132.085 323.382
L132.532 324.032
L133.425 324.63
L133.603 324.86
L133.692 324.86
L133.871 325.334
L133.96 325.346
L134.317 325.775
L134.496 325.913
L135.746 327.055
L135.924 327.205
L136.46 327.894
L136.907 328.124
L137.978 329.363
L138.156 329.482
L139.139 330.23
L139.228 330.26
L139.674 330.976
L140.478 331.399
L140.656 331.493
L140.746 331.495
L140.924 331.688
L141.728 332.043
L142.085 332.404
L142.263 332.469
L142.531 332.714
L142.799 332.964
L143.335 333.566
L143.513 333.667
L143.87 334.086
L144.406 334.489
L144.763 334.724
L145.21 334.903
L145.567 335.096
L145.835 335.227
L147.799 336.709
L148.602 337.258
L149.049 337.733
L149.316 337.976
L149.674 338.152
L150.299 338.685
L150.566 338.787
L150.656 338.811
L150.924 339.076
L151.013 339.121
L151.37 339.614
L152.173 340.081
L153.423 340.958
L153.691 341.254
L153.959 341.41
L154.405 341.596
L154.495 341.617
L154.763 341.829
L155.12 342.026
L155.298 342.309
L155.477 342.422
L156.28 343.045
L156.637 343.596
L157.262 344.051
L158.334 344.984
L158.602 345.043
L158.869 345.305
L160.03 345.916
L160.209 346.033
L160.566 346.296
L162.708 347.415
L162.976 347.488
L163.691 347.969
L164.494 348.334
L164.851 348.668
L165.119 348.773
L165.387 349
L165.833 349.248
L166.548 349.546
L166.994 349.808
L167.083 349.819
L167.262 349.966
L167.53 350.073
L168.333 350.54
L168.69 350.681
L169.226 350.947
L169.583 351.194
L170.119 351.591
L172.261 352.349
L172.976 352.749
L173.244 352.894
L173.511 353.071
L173.868 353.216
L174.315 353.498
L174.583 353.624
L175.118 353.782
L175.476 353.876
L176.011 354.043
L176.458 354.347
L176.993 354.612
L178.6 355.3
L178.779 355.423
L179.136 355.588
L179.94 355.992
L181.279 356.49
L181.725 356.639
L182.796 357.034
L183.243 357.151
L184.225 357.463
L184.939 357.677
L185.832 358.042
L187.439 358.559
L188.689 358.812
L190.117 359.2
L191.01 359.684
L192.528 360.108
L193.599 360.544
L193.867 360.757
L195.831 361.112
L196.635 361.35
L199.938 362.161
L201.635 362.542
L201.813 362.656
L202.706 362.824
L211.991 364.667
L212.973 364.821
L220.83 366.333
L226.812 367.316
L227.526 367.449
L230.204 367.801
L230.829 367.921
L231.365 367.996
L232.347 368.099
L237.257 368.834
L237.704 368.884
L238.864 368.995
L240.025 369.118
L241.364 369.237
L244.757 369.594
L245.114 369.666
L247.614 369.956
L252.971 370.361
L255.381 370.609
L258.149 370.811
L259.756 370.925
L273.594 371.725
L276.63 371.893
L283.504 372.292
L287.433 372.46
L288.772 372.525
L293.593 372.708
L294.575 372.746
L302.164 373.019
L306.181 373.149
L313.949 373.374
L321.448 373.512
L323.412 373.557
L339.483 373.79
L345.643 373.876
L354.125 373.993
L362.696 374.07
L383.498 374.232
L431.263 374.404
L512.508 374.492
L518.311 374.494
L518.311 374.494" style="fill:none;stroke:#ff0000;stroke-dasharray:3.000000,6.000000;stroke-dashoffset:0.0;"/>
   </g>
   <g id="line2d_4">
    <path clip-path="url(#p7ff5b81e1d)" d="
M72 65.7078
L72.0893 105.768
L72.1786 123.478
L72.5357 157.456
L72.8928 173.595
L73.6963 192.6
L75.4819 193.388
L75.9283 196.031
L76.5533 199.748
L76.9104 201.599
L77.3568 203.181
L77.8925 203.383
L78.696 203.645
L79.0531 203.811
L79.5888 206.562
L80.928 211.955
L82.1779 212.514
L82.6243 212.681
L83.0707 214.66
L84.5885 219.508
L85.7491 219.897
L86.017 220.034
L86.1955 220.119
L88.0704 225.521
L88.6954 225.862
L89.1418 226.2
L89.6774 226.522
L89.7667 226.557
L90.2131 228.116
L90.481 228.989
L91.3738 231.445
L91.7309 231.901
L93.3379 232.736
L93.5165 233.347
L93.9629 234.657
L94.1414 235.079
L94.4986 236.13
L95.1235 237.592
L95.5699 237.757
L95.927 237.929
L96.1949 238.025
L96.552 238.262
L97.0877 238.695
L98.8733 242.629
L99.5875 243.033
L100.391 243.401
L100.57 243.597
L101.82 246.231
L102.087 246.928
L102.623 247.376
L104.052 247.993
L105.659 250.838
L106.016 251.272
L106.908 251.511
L107.801 252.134
L109.14 254.661
L109.23 254.745
L109.498 255.208
L109.944 255.397
L110.48 255.637
L111.372 256.079
L113.158 258.816
L113.783 259.11
L114.676 259.515
L114.854 259.616
L115.658 261.055
L116.819 262.254
L118.426 262.961
L119.14 264.039
L120.39 265.651
L122.175 266.383
L122.979 267.581
L123.604 268.327
L123.782 268.562
L125.568 269.239
L125.836 269.766
L126.193 270.224
L126.729 270.968
L126.996 271.287
L127.264 271.669
L129.318 272.709
L130.032 273.539
L130.3 273.79
L130.746 274.239
L131.193 274.418
L132.532 274.858
L132.8 275.146
L133.514 275.993
L133.782 276.177
L134.317 276.895
L135.3 277.347
L136.192 277.513
L137.174 278.72
L138.514 279.793
L140.031 280.35
L140.299 280.612
L140.656 280.859
L141.103 281.273
L141.906 281.775
L142.888 282.032
L143.335 282.203
L143.692 282.65
L143.87 282.771
L145.567 283.973
L145.924 284.085
L146.281 284.245
L146.906 284.532
L147.174 284.798
L147.799 285.287
L147.977 285.473
L148.692 286.001
L149.049 286.157
L149.495 286.375
L150.477 286.751
L151.459 287.597
L151.816 287.868
L152.352 288.272
L152.709 288.4
L153.245 288.613
L153.691 288.746
L154.138 288.887
L154.495 289.255
L156.012 290.536
L157.798 291.223
L158.155 291.513
L158.78 291.948
L160.03 292.627
L161.369 293.068
L162.619 294.178
L163.78 294.833
L164.762 295.093
L165.208 295.362
L165.655 295.725
L166.19 296.081
L167.172 296.489
L167.887 296.703
L168.869 297.299
L170.387 298.314
L171.636 298.71
L172.083 298.81
L174.226 300.088
L174.851 300.249
L175.297 300.385
L175.654 300.528
L176.993 301.393
L177.44 301.581
L178.154 301.856
L178.511 302.068
L179.225 302.267
L180.118 302.871
L180.475 303.102
L181.368 303.423
L181.814 303.549
L183.064 304.155
L183.779 304.647
L184.939 305.122
L186.368 305.558
L187.528 306.273
L188.064 306.545
L190.028 307.155
L190.475 307.431
L191.992 308.261
L192.796 308.43
L193.332 308.611
L193.51 308.738
L195.296 309.731
L196.278 309.974
L196.635 310.071
L198.331 310.99
L199.313 311.295
L200.563 311.549
L202.17 312.384
L202.617 312.456
L203.867 312.795
L204.224 312.921
L205.027 313.444
L205.741 313.806
L206.277 313.923
L206.724 314.015
L210.83 315.463
L211.366 315.595
L213.33 316.619
L214.759 316.887
L215.205 317.182
L216.544 317.834
L217.348 317.987
L218.241 318.135
L220.83 319.119
L222.169 319.5
L222.526 319.658
L223.687 320.257
L224.58 320.403
L225.115 320.521
L225.562 320.631
L227.704 321.525
L229.222 321.805
L229.847 322.064
L233.329 322.989
L234.043 323.294
L235.918 323.722
L236.364 323.818
L237.079 324.213
L237.525 324.405
L238.061 324.654
L238.686 324.79
L239.757 324.967
L240.114 325.124
L240.739 325.335
L241.543 325.664
L242.525 325.853
L243.328 325.971
L244.668 326.45
L245.114 326.648
L246.007 326.809
L247.524 327.244
L248.685 327.774
L250.024 328.04
L250.56 328.171
L251.364 328.482
L252.435 328.87
L255.113 329.404
L255.47 329.51
L257.256 329.866
L257.792 329.999
L258.774 330.289
L259.934 330.569
L261.363 330.834
L262.077 331.096
L263.595 331.464
L264.934 331.742
L265.47 331.928
L267.077 332.351
L268.952 332.698
L270.291 333.204
L271.184 333.321
L272.076 333.495
L272.88 333.79
L273.505 333.969
L274.041 334.096
L275.648 334.37
L276.273 334.532
L276.987 334.716
L277.433 334.81
L279.665 335.232
L283.683 336.154
L284.754 336.468
L286.361 336.723
L287.076 336.959
L290.022 337.474
L291.272 337.847
L292.343 338.08
L293.057 338.181
L293.593 338.315
L294.307 338.528
L297.253 339.009
L298.95 339.465
L300.11 339.591
L300.735 339.726
L301.36 339.953
L302.342 340.227
L304.039 340.411
L304.753 340.588
L307.164 340.967
L307.788 341.093
L309.574 341.439
L310.735 341.572
L312.788 342.074
L313.235 342.215
L314.842 342.384
L316.627 342.927
L319.573 343.513
L320.109 343.658
L321.895 343.82
L324.305 344.386
L326.18 344.719
L326.984 344.904
L334.037 346.089
L334.84 346.249
L336.537 346.438
L337.251 346.598
L338.412 346.875
L355.464 349.484
L356.625 349.648
L358.5 349.914
L359.482 350.11
L361.714 350.322
L362.606 350.534
L363.588 350.648
L365.196 350.819
L366.267 351.023
L367.428 351.151
L368.588 351.277
L375.106 352.222
L375.82 352.358
L377.516 352.637
L379.57 352.845
L380.195 352.974
L386.801 353.829
L387.248 353.909
L397.961 355.174
L398.854 355.285
L400.908 355.45
L401.532 355.555
L412.871 356.843
L413.407 356.896
L415.549 357.094
L417.335 357.274
L421.531 357.667
L422.692 357.811
L424.031 357.996
L426.174 358.185
L456.797 361.005
L458.582 361.179
L460.814 361.361
L461.618 361.46
L463.136 361.611
L464.564 361.69
L466.082 361.821
L466.618 361.875
L469.832 362.126
L470.724 362.194
L473.224 362.398
L474.296 362.49
L476.26 362.617
L476.974 362.689
L482.956 363.101
L492.42 363.809
L494.205 363.936
L496.526 364.085
L497.955 364.204
L499.116 364.291
L502.151 364.49
L502.865 364.513
L505.187 364.652
L507.508 364.767
L511.168 364.955
L513.668 365.159
L515.543 365.292
L517.061 365.409
L518.311 365.452
L518.311 365.452" style="fill:none;stroke:#00bfbf;stroke-dasharray:5.000000,1.000000,2.000000,1.000000,5.000000,1.000000;stroke-dashoffset:0.0;"/>
   </g>
   <g id="line2d_5">
    <path clip-path="url(#p7ff5b81e1d)" d="
M72 63.7325
L72.0893 101.878
L72.2678 134.123
L72.625 163.972
L73.1606 182.484
L73.6963 193.923
L73.9642 195.217
L74.4106 197.541
L74.7677 198.664
L75.1248 200.009
L75.4819 201.361
L76.8211 235.215
L77.2675 244.302
L78.071 245.496
L78.4282 246.189
L78.5174 246.194
L78.9638 246.656
L79.0531 246.671
L79.8566 260.305
L80.928 274.444
L81.3744 274.887
L81.553 275.115
L82.1779 275.643
L82.4458 275.983
L82.6243 276.1
L83.6957 289.825
L84.4099 297.102
L84.767 297.449
L84.9456 297.674
L85.6598 298.071
L85.9277 298.543
L86.1955 298.636
L86.5526 301.245
L87.9811 311.762
L88.8739 312.259
L89.1418 312.658
L89.6774 312.827
L89.7667 312.895
L90.3917 316.422
L91.1952 321.118
L91.6416 322.638
L91.9094 322.696
L92.088 322.871
L92.3558 323.012
L92.5344 323.188
L93.3379 323.74
L93.5165 324.536
L95.2128 332.655
L95.4806 332.735
L96.9091 333.193
L97.8912 336.544
L98.784 338.823
L99.0518 338.87
L99.3197 338.965
L100.48 339.185
L100.748 339.828
L101.284 341.299
L102.266 343.467
L103.159 343.561
L103.605 343.728
L103.784 343.856
L104.052 343.881
L104.676 345.167
L104.855 345.506
L105.212 346.142
L105.301 346.231
L105.569 346.987
L105.926 347.433
L106.462 347.533
L106.73 347.606
L106.998 347.713
L107.266 347.779
L107.623 347.803
L108.426 348.961
L108.783 349.559
L109.14 350.011
L109.319 350.474
L109.676 350.524
L111.194 350.598
L111.819 351.444
L112.801 352.893
L113.247 353.175
L113.872 353.282
L114.14 353.457
L114.765 353.52
L115.122 353.892
L115.39 354.356
L115.747 354.835
L116.64 355.635
L117.176 355.704
L117.354 355.779
L117.622 355.783
L117.801 355.934
L118.426 356.041
L119.765 357.219
L120.033 357.38
L120.211 357.598
L120.836 357.691
L121.193 357.727
L121.64 357.771
L121.818 357.898
L121.997 358.021
L122.443 358.483
L123.247 359.139
L124.407 359.521
L125.657 359.689
L126.193 359.983
L126.729 360.35
L126.996 360.624
L129.318 360.967
L129.675 361.32
L129.943 361.514
L130.121 361.603
L130.925 362.074
L132.621 362.12
L133.603 362.755
L134.585 363.171
L136.103 363.294
L136.282 363.468
L136.46 363.614
L136.907 363.659
L137.264 363.929
L137.889 364.098
L138.067 364.2
L140.121 364.306
L141.013 364.537
L141.281 364.594
L141.549 364.881
L143.603 364.992
L143.96 365.118
L144.406 365.318
L144.585 365.473
L145.031 365.727
L146.906 365.85
L147.174 365.944
L147.531 366.005
L147.888 366.221
L148.156 366.298
L148.424 366.429
L148.781 366.588
L150.656 366.623
L150.924 366.727
L151.548 366.84
L151.906 366.958
L152.263 367.061
L153.156 367.093
L154.584 367.168
L155.477 367.453
L161.637 367.943
L161.816 368.03
L166.101 368.436
L166.458 368.56
L169.047 368.72
L169.226 368.835
L169.851 368.916
L170.119 368.993
L172.083 369.101
L172.886 369.461
L172.976 369.462
L173.154 369.602
L174.761 369.734
L175.297 369.76
L175.565 369.834
L176.011 369.972
L179.582 370.085
L180.207 370.242
L180.564 370.281
L183.154 370.418
L184.671 370.555
L190.207 370.672
L190.475 370.792
L193.867 370.867
L194.135 370.938
L198.331 371.063
L198.688 371.101
L208.152 371.228
L208.777 371.36
L211.902 371.469
L212.259 371.544
L213.152 371.634
L216.455 371.745
L221.99 372.067
L222.258 372.122
L224.49 372.197
L226.901 372.286
L227.258 372.327
L236.722 372.485
L236.989 372.548
L240.739 372.738
L241.9 372.78
L246.096 372.877
L246.364 372.924
L251.899 372.99
L252.078 373.115
L259.309 373.228
L259.667 373.276
L265.291 373.359
L265.559 373.427
L268.327 373.538
L269.22 373.552
L270.112 373.622
L270.38 373.67
L273.148 373.712
L273.326 373.784
L284.219 373.844
L284.397 373.944
L309.485 374.019
L309.753 374.08
L379.48 374.175
L380.016 374.197
L457.957 374.308
L458.493 374.328
L518.311 374.329
L518.311 374.329" style="fill:none;stroke:#bf00bf;stroke-linecap:square;"/>
   </g>
   <g id="matplotlib.axis_1">
    <g id="xtick_1">
     <g id="line2d_6">
      <defs>
       <path d="
M0 0
L0 -4" id="mc7db9fdffb" style="stroke:#000000;stroke-width:0.5;"/>
      </defs>
      <g>
       <use style="stroke:#000000;stroke-width:0.5;" x="72.0" xlink:href="#mc7db9fdffb" y="388.8"/>
      </g>
     </g>
     <g id="line2d_7">
      <defs>
       <path d="
M0 0
L0 4" id="m5a7d422ac3" style="stroke:#000000;stroke-width:0.5;"/>
      </defs>
      <g>
       <use style="stroke:#000000;stroke-width:0.5;" x="72.0" xlink:href="#m5a7d422ac3" y="43.2"/>
      </g>
     </g>
     <g id="text_1">
      <!-- 0 -->
      <defs>
       <path d="
M56.9844 36.375
Q56.9844 16.7969 50.8594 7.64062
Q44.7344 -1.51562 31.8438 -1.51562
Q18.75 -1.51562 12.7188 7.76562
Q6.6875 17.0469 6.6875 36.2812
Q6.6875 55.6719 12.7812 64.9219
Q18.8906 74.1719 31.8438 74.1719
Q44.9219 74.1719 50.9531 64.7656
Q56.9844 55.375 56.9844 36.375
M44.1406 14.2031
Q45.8438 18.1719 46.4531 23.5156
Q47.0781 28.8594 47.0781 36.375
Q47.0781 43.7969 46.4531 49.2656
Q45.8438 54.7344 44.0938 58.5469
Q42.3906 62.3125 39.4219 64.2031
Q36.4688 66.1094 31.8438 66.1094
Q27.25 66.1094 24.2344 64.2031
Q21.2344 62.3125 19.4844 58.4531
Q17.8281 54.8281 17.2188 49.0156
Q16.6094 43.2188 16.6094 36.2812
Q16.6094 28.6562 17.1406 23.5312
Q17.6719 18.4062 19.4375 14.3594
Q21.0469 10.5469 24 8.54688
Q26.9531 6.54688 31.8438 6.54688
Q36.4219 6.54688 39.4531 8.45312
Q42.4844 10.3594 44.1406 14.2031" id="Verdana-30"/>
      </defs>
      <g transform="translate(68.9821875 401.918125)scale(0.12 -0.12)">
       <use xlink:href="#Verdana-30"/>
      </g>
     </g>
    </g>
    <g id="xtick_2">
     <g id="line2d_8">
      <g>
       <use style="stroke:#000000;stroke-width:0.5;" x="161.28" xlink:href="#mc7db9fdffb" y="388.8"/>
      </g>
     </g>
     <g id="line2d_9">
      <g>
       <use style="stroke:#000000;stroke-width:0.5;" x="161.28" xlink:href="#m5a7d422ac3" y="43.2"/>
      </g>
     </g>
     <g id="text_2">
      <!-- 1000 -->
      <defs>
       <path d="
M52.9375 0
L13.5781 0
L13.5781 7.42188
L28.7188 7.42188
L28.7188 56.1562
L13.5781 56.1562
L13.5781 62.7969
Q16.6562 62.7969 20.1719 63.2969
Q23.6875 63.8125 25.4844 64.7969
Q27.7344 66.0156 29.0312 67.8906
Q30.3281 69.7812 30.5156 72.9531
L38.0938 72.9531
L38.0938 7.42188
L52.9375 7.42188
z
" id="Verdana-31"/>
      </defs>
      <g transform="translate(147.2315625 401.918125)scale(0.12 -0.12)">
       <use xlink:href="#Verdana-31"/>
       <use x="63.57421875" xlink:href="#Verdana-30"/>
       <use x="127.1484375" xlink:href="#Verdana-30"/>
       <use x="190.72265625" xlink:href="#Verdana-30"/>
      </g>
     </g>
    </g>
    <g id="xtick_3">
     <g id="line2d_10">
      <g>
       <use style="stroke:#000000;stroke-width:0.5;" x="250.56" xlink:href="#mc7db9fdffb" y="388.8"/>
      </g>
     </g>
     <g id="line2d_11">
      <g>
       <use style="stroke:#000000;stroke-width:0.5;" x="250.56" xlink:href="#m5a7d422ac3" y="43.2"/>
      </g>
     </g>
     <g id="text_3">
      <!-- 2000 -->
      <defs>
       <path d="
M57.0781 0
L7.85938 0
L7.85938 10.2031
Q12.9844 14.5938 18.1406 18.9844
Q23.2969 23.3906 27.7344 27.7344
Q37.1094 36.8125 40.5781 42.1562
Q44.0469 47.5156 44.0469 53.7188
Q44.0469 59.375 40.3125 62.5625
Q36.5781 65.7656 29.8906 65.7656
Q25.4375 65.7656 20.2656 64.2031
Q15.0938 62.6406 10.1562 59.4219
L9.67188 59.4219
L9.67188 69.6719
Q13.1406 71.3906 18.9219 72.7969
Q24.7031 74.2188 30.125 74.2188
Q41.3125 74.2188 47.6562 68.8125
Q54 63.4219 54 54.2031
Q54 50.0469 52.9531 46.4531
Q51.9062 42.875 49.8594 39.6562
Q47.9531 36.625 45.3906 33.6875
Q42.8281 30.7656 39.1562 27.2031
Q33.9375 22.0781 28.3594 17.2656
Q22.7969 12.4531 17.9688 8.34375
L57.0781 8.34375
z
" id="Verdana-32"/>
      </defs>
      <g transform="translate(236.1684375 401.918125)scale(0.12 -0.12)">
       <use xlink:href="#Verdana-32"/>
       <use x="63.57421875" xlink:href="#Verdana-30"/>
       <use x="127.1484375" xlink:href="#Verdana-30"/>
       <use x="190.72265625" xlink:href="#Verdana-30"/>
      </g>
     </g>
    </g>
    <g id="xtick_4">
     <g id="line2d_12">
      <g>
       <use style="stroke:#000000;stroke-width:0.5;" x="339.84" xlink:href="#mc7db9fdffb" y="388.8"/>
      </g>
     </g>
     <g id="line2d_13">
      <g>
       <use style="stroke:#000000;stroke-width:0.5;" x="339.84" xlink:href="#m5a7d422ac3" y="43.2"/>
      </g>
     </g>
     <g id="text_4">
      <!-- 3000 -->
      <defs>
       <path d="
M50.6875 35.0156
Q53.0312 32.9062 54.5469 29.7344
Q56.0625 26.5625 56.0625 21.5312
Q56.0625 16.5469 54.25 12.3906
Q52.4375 8.25 49.1719 5.17188
Q45.5156 1.76562 40.5469 0.125
Q35.5938 -1.51562 29.6875 -1.51562
Q23.6406 -1.51562 17.7812 -0.0625
Q11.9219 1.375 8.15625 3.07812
L8.15625 13.2812
L8.89062 13.2812
Q13.0312 10.5469 18.6406 8.73438
Q24.2656 6.9375 29.5 6.9375
Q32.5625 6.9375 36.0312 7.95312
Q39.5 8.98438 41.6562 10.9844
Q43.8906 13.1406 44.9844 15.7188
Q46.0938 18.3125 46.0938 22.2656
Q46.0938 26.1719 44.8438 28.7344
Q43.6094 31.2969 41.4062 32.7656
Q39.2031 34.2812 36.0781 34.8438
Q32.9531 35.4062 29.3438 35.4062
L24.9531 35.4062
L24.9531 43.5
L28.375 43.5
Q35.7969 43.5 40.2031 46.5938
Q44.625 49.7031 44.625 55.6719
Q44.625 58.2969 43.5 60.2656
Q42.3906 62.25 40.375 63.5312
Q38.2812 64.7969 35.8906 65.2812
Q33.5 65.7656 30.4688 65.7656
Q25.8281 65.7656 20.5938 64.1094
Q15.375 62.4531 10.75 59.4219
L10.25 59.4219
L10.25 69.625
Q13.7188 71.3438 19.5 72.7812
Q25.2969 74.2188 30.7188 74.2188
Q36.0312 74.2188 40.0781 73.2344
Q44.1406 72.2656 47.4062 70.125
Q50.9219 67.7812 52.7344 64.4531
Q54.5469 61.1406 54.5469 56.6875
Q54.5469 50.6406 50.2656 46.125
Q46 41.6094 40.1875 40.4375
L40.1875 39.75
Q42.5312 39.3594 45.5469 38.1094
Q48.5781 36.8594 50.6875 35.0156" id="Verdana-33"/>
      </defs>
      <g transform="translate(325.46625 401.918125)scale(0.12 -0.12)">
       <use xlink:href="#Verdana-33"/>
       <use x="63.57421875" xlink:href="#Verdana-30"/>
       <use x="127.1484375" xlink:href="#Verdana-30"/>
       <use x="190.72265625" xlink:href="#Verdana-30"/>
      </g>
     </g>
    </g>
    <g id="xtick_5">
     <g id="line2d_14">
      <g>
       <use style="stroke:#000000;stroke-width:0.5;" x="429.12" xlink:href="#mc7db9fdffb" y="388.8"/>
      </g>
     </g>
     <g id="line2d_15">
      <g>
       <use style="stroke:#000000;stroke-width:0.5;" x="429.12" xlink:href="#m5a7d422ac3" y="43.2"/>
      </g>
     </g>
     <g id="text_5">
      <!-- 4000 -->
      <defs>
       <path d="
M58.7344 20.4531
L47.9531 20.4531
L47.9531 0
L38.5781 0
L38.5781 20.4531
L3.76562 20.4531
L3.76562 31.6875
L38.9688 72.7031
L47.9531 72.7031
L47.9531 28.2656
L58.7344 28.2656
z

M38.5781 28.2656
L38.5781 61.0781
L10.4062 28.2656
z
" id="Verdana-34"/>
      </defs>
      <g transform="translate(414.4828125 401.918125)scale(0.12 -0.12)">
       <use xlink:href="#Verdana-34"/>
       <use x="63.57421875" xlink:href="#Verdana-30"/>
       <use x="127.1484375" xlink:href="#Verdana-30"/>
       <use x="190.72265625" xlink:href="#Verdana-30"/>
      </g>
     </g>
    </g>
    <g id="xtick_6">
     <g id="line2d_16">
      <g>
       <use style="stroke:#000000;stroke-width:0.5;" x="518.4" xlink:href="#mc7db9fdffb" y="388.8"/>
      </g>
     </g>
     <g id="line2d_17">
      <g>
       <use style="stroke:#000000;stroke-width:0.5;" x="518.4" xlink:href="#m5a7d422ac3" y="43.2"/>
      </g>
     </g>
     <g id="text_6">
      <!-- 5000 -->
      <defs>
       <path d="
M56.5 23.0938
Q56.5 18.0156 54.6406 13.375
Q52.7812 8.73438 49.5625 5.5625
Q46.0469 2.15625 41.1875 0.3125
Q36.3281 -1.51562 29.9375 -1.51562
Q23.9688 -1.51562 18.4531 -0.265625
Q12.9375 0.984375 9.125 2.73438
L9.125 13.0312
L9.8125 13.0312
Q13.8125 10.5 19.1875 8.71875
Q24.5625 6.9375 29.7344 6.9375
Q33.2031 6.9375 36.4531 7.90625
Q39.7031 8.89062 42.2344 11.3281
Q44.3906 13.4219 45.4844 16.3438
Q46.5781 19.2812 46.5781 23.1406
Q46.5781 26.9062 45.2812 29.4844
Q44 32.0781 41.7031 33.6406
Q39.1562 35.5 35.5156 36.25
Q31.8906 37.0156 27.3906 37.0156
Q23.0938 37.0156 19.1094 36.4219
Q15.1406 35.8438 12.25 35.25
L12.25 72.7031
L56 72.7031
L56 64.1562
L21.6875 64.1562
L21.6875 44.8281
Q23.7812 45.0156 25.9688 45.1094
Q28.1719 45.2188 29.7812 45.2188
Q35.6875 45.2188 40.125 44.2188
Q44.5781 43.2188 48.2969 40.6719
Q52.2031 37.9844 54.3438 33.7344
Q56.5 29.5 56.5 23.0938" id="Verdana-35"/>
      </defs>
      <g transform="translate(504.084375 401.918125)scale(0.12 -0.12)">
       <use xlink:href="#Verdana-35"/>
       <use x="63.57421875" xlink:href="#Verdana-30"/>
       <use x="127.1484375" xlink:href="#Verdana-30"/>
       <use x="190.72265625" xlink:href="#Verdana-30"/>
      </g>
     </g>
    </g>
    <g id="text_7">
     <!-- Objective function exectuions -->
     <defs>
      <path d="
M57.0312 27.6875
Q57.0312 20.8438 55.0938 15.375
Q53.1719 9.90625 49.9062 6.20312
Q46.4375 2.34375 42.2812 0.40625
Q38.1406 -1.51562 33.1562 -1.51562
Q28.5156 -1.51562 25.0469 -0.40625
Q21.5781 0.6875 18.2188 2.54688
L17.625 0
L9.03125 0
L9.03125 75.9844
L18.2188 75.9844
L18.2188 48.8281
Q22.0781 52 26.4219 54.0312
Q30.7656 56.0625 36.1875 56.0625
Q45.8438 56.0625 51.4375 48.6406
Q57.0312 41.2188 57.0312 27.6875
M47.5625 27.4375
Q47.5625 37.2031 44.3281 42.25
Q41.1094 47.3125 33.9375 47.3125
Q29.9375 47.3125 25.8281 45.5781
Q21.7344 43.8438 18.2188 41.1094
L18.2188 9.85938
Q22.125 8.10938 24.9219 7.42188
Q27.7344 6.73438 31.2969 6.73438
Q38.9219 6.73438 43.2344 11.7344
Q47.5625 16.75 47.5625 27.4375" id="Verdana-62"/>
      <path d="
M56.2031 54.5469
L34.125 0
L24.9062 0
L2.98438 54.5469
L12.9375 54.5469
L29.8281 11.1406
L46.5781 54.5469
z
" id="Verdana-76"/>
      <path d="
M56.25 0
L44.6719 0
L29.2031 20.9531
L13.625 0
L2.9375 0
L24.2188 27.2031
L3.125 54.5469
L14.7031 54.5469
L30.0781 33.9375
L45.5156 54.5469
L56.25 54.5469
L34.8125 27.6875
z
" id="Verdana-78"/>
      <path d="
M54.6875 26.3125
L14.5 26.3125
Q14.5 21.2969 16.0156 17.5469
Q17.5312 13.8125 20.1719 11.4219
Q22.7031 9.07812 26.1875 7.90625
Q29.6875 6.73438 33.8906 6.73438
Q39.4531 6.73438 45.0938 8.95312
Q50.7344 11.1875 53.125 13.3281
L53.6094 13.3281
L53.6094 3.32812
Q48.9688 1.375 44.1406 0.046875
Q39.3125 -1.26562 33.9844 -1.26562
Q20.4062 -1.26562 12.7812 6.07812
Q5.17188 13.4219 5.17188 26.9531
Q5.17188 40.3281 12.4688 48.1875
Q19.7812 56.0625 31.6875 56.0625
Q42.7188 56.0625 48.7031 49.6094
Q54.6875 43.1719 54.6875 31.2969
z

M45.75 33.3438
Q45.7031 40.5781 42.1094 44.5312
Q38.5312 48.4844 31.2031 48.4844
Q23.8281 48.4844 19.4531 44.1406
Q15.0938 39.7969 14.5 33.3438
z
" id="Verdana-65"/>
      <path d="
M49.3594 3.42188
Q44.7812 1.21875 40.6562 0
Q36.5312 -1.21875 31.8906 -1.21875
Q25.9844 -1.21875 21.0469 0.515625
Q16.1094 2.25 12.5938 5.76562
Q9.03125 9.28125 7.07812 14.6406
Q5.125 20.0156 5.125 27.2031
Q5.125 40.5781 12.4688 48.1875
Q19.8281 55.8125 31.8906 55.8125
Q36.5781 55.8125 41.0938 54.4844
Q45.6094 53.1719 49.3594 51.2656
L49.3594 41.0625
L48.875 41.0625
Q44.6719 44.3438 40.2031 46.0938
Q35.75 47.8594 31.5 47.8594
Q23.6875 47.8594 19.1719 42.6094
Q14.6562 37.3594 14.6562 27.2031
Q14.6562 17.3281 19.0625 12.0312
Q23.4844 6.73438 31.5 6.73438
Q34.2812 6.73438 37.1562 7.46875
Q40.0469 8.20312 42.3281 9.375
Q44.3438 10.4062 46.0938 11.5469
Q47.8594 12.7031 48.875 13.5312
L49.3594 13.5312
z
" id="Verdana-63"/>
      <path d="
M26.0312 63.6719
L15.6719 63.6719
L15.6719 73.1875
L26.0312 73.1875
z

M25.4375 -1.3125
Q25.4375 -10.8906 20.5469 -15.7656
Q15.6719 -20.6562 7.46875 -20.6562
Q5.51562 -20.6562 2.3125 -20.2656
Q-0.875 -19.875 -3.03125 -19.2812
L-3.03125 -10.5469
L-2.54688 -10.5469
Q-1.17188 -11.0781 1.14062 -11.7656
Q3.46875 -12.4531 5.67188 -12.4531
Q9.1875 -12.4531 11.3281 -11.4688
Q13.4844 -10.5 14.5469 -8.54688
Q15.625 -6.59375 15.9375 -3.82812
Q16.2656 -1.07812 16.2656 2.875
L16.2656 46.8281
L4.89062 46.8281
L4.89062 54.5469
L25.4375 54.5469
z
" id="Verdana-6a"/>
      <path d="
M18.8906 63.6719
L8.54688 63.6719
L8.54688 73.1875
L18.8906 73.1875
z

M18.3125 0
L9.125 0
L9.125 54.5469
L18.3125 54.5469
z
" id="Verdana-69"/>
      <path d="
M54.6406 0
L45.4531 0
L45.4531 31.0625
Q45.4531 34.8125 45.0156 38.1094
Q44.5781 41.4062 43.4062 43.2656
Q42.1875 45.3125 39.8906 46.3125
Q37.5938 47.3125 33.9375 47.3125
Q30.1719 47.3125 26.0625 45.4531
Q21.9688 43.6094 18.2188 40.7188
L18.2188 0
L9.03125 0
L9.03125 54.5469
L18.2188 54.5469
L18.2188 48.4844
Q22.5156 52.0469 27.0938 54.0469
Q31.6875 56.0625 36.5312 56.0625
Q45.3594 56.0625 50 50.7344
Q54.6406 45.4062 54.6406 35.4062
z
" id="Verdana-6e"/>
      <path d="
M48 15.7188
Q48 8.25 41.8125 3.46875
Q35.6406 -1.3125 24.9531 -1.3125
Q18.8906 -1.3125 13.8438 0.125
Q8.79688 1.5625 5.375 3.26562
L5.375 13.5781
L5.85938 13.5781
Q10.2031 10.2969 15.5156 8.375
Q20.8438 6.45312 25.7344 6.45312
Q31.7812 6.45312 35.2031 8.40625
Q38.625 10.3594 38.625 14.5469
Q38.625 17.7812 36.7656 19.4375
Q34.9062 21.0938 29.6406 22.2656
Q27.6875 22.7031 24.5312 23.2812
Q21.3906 23.875 18.7969 24.5625
Q11.625 26.4688 8.60938 30.1562
Q5.60938 33.8438 5.60938 39.2031
Q5.60938 42.5781 7 45.5469
Q8.40625 48.5312 11.2344 50.875
Q13.9688 53.1719 18.1875 54.5156
Q22.4062 55.8594 27.6406 55.8594
Q32.5156 55.8594 37.5156 54.6562
Q42.5312 53.4688 45.8438 51.7656
L45.8438 41.9375
L45.3594 41.9375
Q41.8438 44.5312 36.8125 46.3125
Q31.7812 48.0938 26.9531 48.0938
Q21.9219 48.0938 18.4531 46.1562
Q14.9844 44.2344 14.9844 40.4375
Q14.9844 37.0625 17.0938 35.3594
Q19.1406 33.6406 23.7344 32.5625
Q26.2656 31.9844 29.4062 31.3906
Q32.5625 30.8125 34.6719 30.3281
Q41.0625 28.8594 44.5312 25.2969
Q48 21.6875 48 15.7188" id="Verdana-73"/>
      <path d="
M38.375 67.0938
L37.8906 67.0938
Q36.375 67.5312 33.9375 67.9844
Q31.5 68.4531 29.6406 68.4531
Q23.7344 68.4531 21.0625 65.8438
Q18.4062 63.2344 18.4062 56.3906
L18.4062 54.5469
L34.9688 54.5469
L34.9688 46.8281
L18.7031 46.8281
L18.7031 0
L9.51562 0
L9.51562 46.8281
L3.32812 46.8281
L3.32812 54.5469
L9.51562 54.5469
L9.51562 56.3438
Q9.51562 66.0625 14.3438 71.2656
Q19.1875 76.4688 28.3281 76.4688
Q31.3906 76.4688 33.8594 76.1719
Q36.3281 75.875 38.375 75.4844
z
" id="Verdana-66"/>
      <path id="Verdana-20"/>
      <path d="
M63.9688 64.3594
Q68.4062 59.4688 70.7656 52.3906
Q73.1406 45.3125 73.1406 36.3281
Q73.1406 27.3438 70.7188 20.2344
Q68.3125 13.1406 63.9688 8.40625
Q59.4688 3.46875 53.3438 0.96875
Q47.2188 -1.51562 39.3594 -1.51562
Q31.6875 -1.51562 25.4062 1.01562
Q19.1406 3.5625 14.75 8.40625
Q10.3594 13.2344 7.98438 20.2656
Q5.60938 27.2969 5.60938 36.3281
Q5.60938 45.2188 7.95312 52.2656
Q10.2969 59.3281 14.7969 64.3594
Q19.0938 69.1406 25.4688 71.6719
Q31.8438 74.2188 39.3594 74.2188
Q47.1719 74.2188 53.3906 71.6562
Q59.625 69.0938 63.9688 64.3594
M63.0938 36.3281
Q63.0938 50.4844 56.7344 58.1719
Q50.3906 65.875 39.4062 65.875
Q28.3281 65.875 22 58.1719
Q15.6719 50.4844 15.6719 36.3281
Q15.6719 22.0156 22.1094 14.4219
Q28.5625 6.84375 39.4062 6.84375
Q50.25 6.84375 56.6719 14.4219
Q63.0938 22.0156 63.0938 36.3281" id="Verdana-4f"/>
      <path d="
M55.5156 27.25
Q55.5156 13.9219 48.6719 6.20312
Q41.8438 -1.51562 30.375 -1.51562
Q18.7969 -1.51562 11.9844 6.20312
Q5.17188 13.9219 5.17188 27.25
Q5.17188 40.5781 11.9844 48.3125
Q18.7969 56.0625 30.375 56.0625
Q41.8438 56.0625 48.6719 48.3125
Q55.5156 40.5781 55.5156 27.25
M46.0469 27.25
Q46.0469 37.8438 41.8906 42.9844
Q37.75 48.1406 30.375 48.1406
Q22.9062 48.1406 18.7812 42.9844
Q14.6562 37.8438 14.6562 27.25
Q14.6562 17 18.7969 11.6875
Q22.9531 6.39062 30.375 6.39062
Q37.7031 6.39062 41.875 11.6406
Q46.0469 16.8906 46.0469 27.25" id="Verdana-6f"/>
      <path d="
M37.3594 0.484375
Q34.7656 -0.203125 31.7031 -0.640625
Q28.6562 -1.07812 26.2656 -1.07812
Q17.9219 -1.07812 13.5781 3.40625
Q9.23438 7.90625 9.23438 17.8281
L9.23438 46.8281
L3.03125 46.8281
L3.03125 54.5469
L9.23438 54.5469
L9.23438 70.2188
L18.4062 70.2188
L18.4062 54.5469
L37.3594 54.5469
L37.3594 46.8281
L18.4062 46.8281
L18.4062 21.9688
Q18.4062 17.6719 18.5938 15.25
Q18.7969 12.8438 19.9688 10.75
Q21.0469 8.79688 22.9219 7.89062
Q24.8125 6.98438 28.6562 6.98438
Q30.9062 6.98438 33.3438 7.64062
Q35.7969 8.29688 36.8594 8.73438
L37.3594 8.73438
z
" id="Verdana-74"/>
      <path d="
M54.25 0
L45.0625 0
L45.0625 6.0625
Q40.4375 2.39062 36.1875 0.4375
Q31.9375 -1.51562 26.8125 -1.51562
Q18.2188 -1.51562 13.4219 3.73438
Q8.64062 8.98438 8.64062 19.1406
L8.64062 54.5469
L17.8281 54.5469
L17.8281 23.4844
Q17.8281 19.3438 18.2188 16.375
Q18.6094 13.4219 19.875 11.3281
Q21.1875 9.1875 23.2812 8.20312
Q25.3906 7.23438 29.3906 7.23438
Q32.9531 7.23438 37.1719 9.07812
Q41.4062 10.9375 45.0625 13.8125
L45.0625 54.5469
L54.25 54.5469
z
" id="Verdana-75"/>
     </defs>
     <g transform="translate(206.5078125 418.509375)scale(0.12 -0.12)">
      <use xlink:href="#Verdana-4f"/>
      <use x="78.7109375" xlink:href="#Verdana-62"/>
      <use x="141.015625" xlink:href="#Verdana-6a"/>
      <use x="175.439453125" xlink:href="#Verdana-65"/>
      <use x="235.009765625" xlink:href="#Verdana-63"/>
      <use x="287.109375" xlink:href="#Verdana-74"/>
      <use x="326.513671875" xlink:href="#Verdana-69"/>
      <use x="353.955078125" xlink:href="#Verdana-76"/>
      <use x="412.259765625" xlink:href="#Verdana-65"/>
      <use x="471.830078125" xlink:href="#Verdana-20"/>
      <use x="506.986328125" xlink:href="#Verdana-66"/>
      <use x="542.142578125" xlink:href="#Verdana-75"/>
      <use x="605.423828125" xlink:href="#Verdana-6e"/>
      <use x="668.705078125" xlink:href="#Verdana-63"/>
      <use x="720.8046875" xlink:href="#Verdana-74"/>
      <use x="760.208984375" xlink:href="#Verdana-69"/>
      <use x="787.650390625" xlink:href="#Verdana-6f"/>
      <use x="848.34375" xlink:href="#Verdana-6e"/>
      <use x="911.625" xlink:href="#Verdana-20"/>
      <use x="946.78125" xlink:href="#Verdana-65"/>
      <use x="1006.3515625" xlink:href="#Verdana-78"/>
      <use x="1064.40625" xlink:href="#Verdana-65"/>
      <use x="1123.9765625" xlink:href="#Verdana-63"/>
      <use x="1176.076171875" xlink:href="#Verdana-74"/>
      <use x="1215.48046875" xlink:href="#Verdana-75"/>
      <use x="1278.76171875" xlink:href="#Verdana-69"/>
      <use x="1306.203125" xlink:href="#Verdana-6f"/>
      <use x="1366.896484375" xlink:href="#Verdana-6e"/>
      <use x="1430.177734375" xlink:href="#Verdana-73"/>
     </g>
    </g>
   </g>
   <g id="matplotlib.axis_2">
    <g id="ytick_1">
     <g id="line2d_18">
      <defs>
       <path d="
M0 0
L4 0" id="md7965d1ba0" style="stroke:#000000;stroke-width:0.5;"/>
      </defs>
      <g>
       <use style="stroke:#000000;stroke-width:0.5;" x="72.0" xlink:href="#md7965d1ba0" y="388.8"/>
      </g>
     </g>
     <g id="line2d_19">
      <defs>
       <path d="
M0 0
L-4 0" id="md9a1c1a7cd" style="stroke:#000000;stroke-width:0.5;"/>
      </defs>
      <g>
       <use style="stroke:#000000;stroke-width:0.5;" x="518.4" xlink:href="#md9a1c1a7cd" y="388.8"/>
      </g>
     </g>
     <g id="text_8">
      <!-- −1.6 -->
      <defs>
       <path d="
M71.0938 27.9375
L10.75 27.9375
L10.75 35.75
L71.0938 35.75
z
" id="Verdana-2212"/>
       <path d="
M24.0312 0
L12.3594 0
L12.3594 13.9219
L24.0312 13.9219
z
" id="Verdana-2e"/>
       <path d="
M58.1562 23.5781
Q58.1562 12.5 50.8594 5.48438
Q43.5625 -1.51562 32.9531 -1.51562
Q27.5938 -1.51562 23.1875 0.140625
Q18.7969 1.8125 15.4375 5.07812
Q11.2344 9.125 8.95312 15.8125
Q6.6875 22.5156 6.6875 31.9375
Q6.6875 41.6094 8.76562 49.0781
Q10.8438 56.5469 15.375 62.3594
Q19.6719 67.875 26.4531 70.9688
Q33.25 74.0781 42.2812 74.0781
Q45.1719 74.0781 47.125 73.8281
Q49.0781 73.5781 51.0781 72.9531
L51.0781 63.625
L50.5938 63.625
Q49.2188 64.3594 46.4531 65.0156
Q43.7031 65.6719 40.8281 65.6719
Q30.3281 65.6719 24.0781 59.1094
Q17.8281 52.5469 16.7969 41.3594
Q20.9062 43.8438 24.875 45.1406
Q28.8594 46.4375 34.0781 46.4375
Q38.7188 46.4375 42.25 45.5781
Q45.7969 44.7344 49.5156 42.1406
Q53.8125 39.1562 55.9844 34.6094
Q58.1562 30.0781 58.1562 23.5781
M48.25 23.1875
Q48.25 27.7344 46.9062 30.7031
Q45.5625 33.6875 42.4844 35.8906
Q40.2344 37.4531 37.5 37.9375
Q34.7656 38.4219 31.7812 38.4219
Q27.6406 38.4219 24.0781 37.4375
Q20.5156 36.4688 16.75 34.4219
Q16.6562 33.3438 16.5938 32.3438
Q16.5469 31.3438 16.5469 29.8281
Q16.5469 22.125 18.1406 17.6562
Q19.7344 13.1875 22.5156 10.5938
Q24.75 8.45312 27.3594 7.45312
Q29.9844 6.45312 33.0625 6.45312
Q40.1406 6.45312 44.1875 10.7656
Q48.25 15.0938 48.25 23.1875" id="Verdana-36"/>
      </defs>
      <g transform="translate(40.495625 392.1515625)scale(0.12 -0.12)">
       <use xlink:href="#Verdana-2212"/>
       <use x="81.8359375" xlink:href="#Verdana-31"/>
       <use x="145.41015625" xlink:href="#Verdana-2e"/>
       <use x="181.787109375" xlink:href="#Verdana-36"/>
      </g>
     </g>
    </g>
    <g id="ytick_2">
     <g id="line2d_20">
      <g>
       <use style="stroke:#000000;stroke-width:0.5;" x="72.0" xlink:href="#md7965d1ba0" y="339.428571429"/>
      </g>
     </g>
     <g id="line2d_21">
      <g>
       <use style="stroke:#000000;stroke-width:0.5;" x="518.4" xlink:href="#md9a1c1a7cd" y="339.428571429"/>
      </g>
     </g>
     <g id="text_9">
      <!-- −1.4 -->
      <g transform="translate(40.42625 342.780133929)scale(0.12 -0.12)">
       <use xlink:href="#Verdana-2212"/>
       <use x="81.8359375" xlink:href="#Verdana-31"/>
       <use x="145.41015625" xlink:href="#Verdana-2e"/>
       <use x="181.787109375" xlink:href="#Verdana-34"/>
      </g>
     </g>
    </g>
    <g id="ytick_3">
     <g id="line2d_22">
      <g>
       <use style="stroke:#000000;stroke-width:0.5;" x="72.0" xlink:href="#md7965d1ba0" y="290.057142857"/>
      </g>
     </g>
     <g id="line2d_23">
      <g>
       <use style="stroke:#000000;stroke-width:0.5;" x="518.4" xlink:href="#md9a1c1a7cd" y="290.057142857"/>
      </g>
     </g>
     <g id="text_10">
      <!-- −1.2 -->
      <g transform="translate(40.625 293.408705357)scale(0.12 -0.12)">
       <use xlink:href="#Verdana-2212"/>
       <use x="81.8359375" xlink:href="#Verdana-31"/>
       <use x="145.41015625" xlink:href="#Verdana-2e"/>
       <use x="181.787109375" xlink:href="#Verdana-32"/>
      </g>
     </g>
    </g>
    <g id="ytick_4">
     <g id="line2d_24">
      <g>
       <use style="stroke:#000000;stroke-width:0.5;" x="72.0" xlink:href="#md7965d1ba0" y="240.685714286"/>
      </g>
     </g>
     <g id="line2d_25">
      <g>
       <use style="stroke:#000000;stroke-width:0.5;" x="518.4" xlink:href="#md9a1c1a7cd" y="240.685714286"/>
      </g>
     </g>
     <g id="text_11">
      <!-- −1.0 -->
      <g transform="translate(40.63625 244.037276786)scale(0.12 -0.12)">
       <use xlink:href="#Verdana-2212"/>
       <use x="81.8359375" xlink:href="#Verdana-31"/>
       <use x="145.41015625" xlink:href="#Verdana-2e"/>
       <use x="181.787109375" xlink:href="#Verdana-30"/>
      </g>
     </g>
    </g>
    <g id="ytick_5">
     <g id="line2d_26">
      <g>
       <use style="stroke:#000000;stroke-width:0.5;" x="72.0" xlink:href="#md7965d1ba0" y="191.314285714"/>
      </g>
     </g>
     <g id="line2d_27">
      <g>
       <use style="stroke:#000000;stroke-width:0.5;" x="518.4" xlink:href="#md9a1c1a7cd" y="191.314285714"/>
      </g>
     </g>
     <g id="text_12">
      <!-- −0.8 -->
      <defs>
       <path d="
M57.625 20.2656
Q57.625 10.8438 50.2656 4.59375
Q42.9219 -1.65625 31.7812 -1.65625
Q19.9688 -1.65625 12.9531 4.4375
Q5.95312 10.5469 5.95312 20.0625
Q5.95312 26.125 9.46875 31.0312
Q12.9844 35.9375 19.3906 38.8125
L19.3906 39.1094
Q13.5312 42.2344 10.7188 45.9375
Q7.90625 49.6562 7.90625 55.2188
Q7.90625 63.4219 14.6406 68.8906
Q21.3906 74.3594 31.7812 74.3594
Q42.6719 74.3594 49.1719 69.1406
Q55.6719 63.9219 55.6719 55.8594
Q55.6719 50.9219 52.5938 46.1562
Q49.5156 41.4062 43.5625 38.7188
L43.5625 38.4219
Q50.3906 35.5 54 31.2031
Q57.625 26.9062 57.625 20.2656
M46.0469 55.7656
Q46.0469 60.9844 42.0156 64.0781
Q37.9844 67.1875 31.7344 67.1875
Q25.5938 67.1875 21.6562 64.25
Q17.7188 61.3281 17.7188 56.3438
Q17.7188 52.8281 19.7031 50.2656
Q21.6875 47.7031 25.6875 45.7031
Q27.4844 44.8281 30.875 43.4062
Q34.2812 42 37.5 41.0625
Q42.3281 44.2812 44.1875 47.75
Q46.0469 51.2188 46.0469 55.7656
M47.5625 19.3438
Q47.5625 23.8281 45.5781 26.5312
Q43.6094 29.25 37.8438 31.9844
Q35.5469 33.0625 32.8125 33.9844
Q30.0781 34.9062 25.5312 36.5781
Q21.1406 34.1875 18.4844 30.0781
Q15.8281 25.9844 15.8281 20.7969
Q15.8281 14.2031 20.3594 9.90625
Q24.9062 5.60938 31.8906 5.60938
Q39.0156 5.60938 43.2812 9.26562
Q47.5625 12.9375 47.5625 19.3438" id="Verdana-38"/>
      </defs>
      <g transform="translate(40.559375 194.665848214)scale(0.12 -0.12)">
       <use xlink:href="#Verdana-2212"/>
       <use x="81.8359375" xlink:href="#Verdana-30"/>
       <use x="145.41015625" xlink:href="#Verdana-2e"/>
       <use x="181.787109375" xlink:href="#Verdana-38"/>
      </g>
     </g>
    </g>
    <g id="ytick_6">
     <g id="line2d_28">
      <g>
       <use style="stroke:#000000;stroke-width:0.5;" x="72.0" xlink:href="#md7965d1ba0" y="141.942857143"/>
      </g>
     </g>
     <g id="line2d_29">
      <g>
       <use style="stroke:#000000;stroke-width:0.5;" x="518.4" xlink:href="#md9a1c1a7cd" y="141.942857143"/>
      </g>
     </g>
     <g id="text_13">
      <!-- −0.6 -->
      <g transform="translate(40.495625 145.294419643)scale(0.12 -0.12)">
       <use xlink:href="#Verdana-2212"/>
       <use x="81.8359375" xlink:href="#Verdana-30"/>
       <use x="145.41015625" xlink:href="#Verdana-2e"/>
       <use x="181.787109375" xlink:href="#Verdana-36"/>
      </g>
     </g>
    </g>
    <g id="ytick_7">
     <g id="line2d_30">
      <g>
       <use style="stroke:#000000;stroke-width:0.5;" x="72.0" xlink:href="#md7965d1ba0" y="92.5714285714"/>
      </g>
     </g>
     <g id="line2d_31">
      <g>
       <use style="stroke:#000000;stroke-width:0.5;" x="518.4" xlink:href="#md9a1c1a7cd" y="92.5714285714"/>
      </g>
     </g>
     <g id="text_14">
      <!-- −0.4 -->
      <g transform="translate(40.42625 95.9229910714)scale(0.12 -0.12)">
       <use xlink:href="#Verdana-2212"/>
       <use x="81.8359375" xlink:href="#Verdana-30"/>
       <use x="145.41015625" xlink:href="#Verdana-2e"/>
       <use x="181.787109375" xlink:href="#Verdana-34"/>
      </g>
     </g>
    </g>
    <g id="ytick_8">
     <g id="line2d_32">
      <g>
       <use style="stroke:#000000;stroke-width:0.5;" x="72.0" xlink:href="#md7965d1ba0" y="43.2"/>
      </g>
     </g>
     <g id="line2d_33">
      <g>
       <use style="stroke:#000000;stroke-width:0.5;" x="518.4" xlink:href="#md9a1c1a7cd" y="43.2"/>
      </g>
     </g>
     <g id="text_15">
      <!-- −0.2 -->
      <g transform="translate(40.625 46.5515625)scale(0.12 -0.12)">
       <use xlink:href="#Verdana-2212"/>
       <use x="81.8359375" xlink:href="#Verdana-30"/>
       <use x="145.41015625" xlink:href="#Verdana-2e"/>
       <use x="181.787109375" xlink:href="#Verdana-32"/>
      </g>
     </g>
    </g>
    <g id="text_16">
     <!-- Mean -->
     <defs>
      <path d="
M51.4219 0
L42.2812 0
L42.2812 5.8125
Q41.0625 4.98438 38.9844 3.48438
Q36.9219 2 34.9688 1.125
Q32.6719 0 29.6875 -0.75
Q26.7031 -1.51562 22.7031 -1.51562
Q15.3281 -1.51562 10.2031 3.35938
Q5.07812 8.25 5.07812 15.8281
Q5.07812 22.0156 7.73438 25.8438
Q10.4062 29.6875 15.3281 31.8906
Q20.3125 34.0781 27.2969 34.8594
Q34.2812 35.6406 42.2812 36.0312
L42.2812 37.4531
Q42.2812 40.5781 41.1875 42.625
Q40.0938 44.6719 38.0312 45.8438
Q36.0781 46.9688 33.3438 47.3594
Q30.6094 47.75 27.6406 47.75
Q24.0312 47.75 19.5781 46.7969
Q15.1406 45.8438 10.4062 44.0469
L9.90625 44.0469
L9.90625 53.375
Q12.5938 54.1094 17.6719 54.9844
Q22.75 55.8594 27.6875 55.8594
Q33.4531 55.8594 37.7188 54.9062
Q42 53.9531 45.125 51.6562
Q48.1875 49.4219 49.7969 45.8438
Q51.4219 42.2812 51.4219 37.0156
z

M42.2812 13.4219
L42.2812 28.6094
Q38.0938 28.375 32.3906 27.875
Q26.7031 27.3906 23.3906 26.4688
Q19.4375 25.3438 16.9844 22.9688
Q14.5469 20.6094 14.5469 16.4531
Q14.5469 11.7656 17.375 9.39062
Q20.2188 7.03125 26.0312 7.03125
Q30.8594 7.03125 34.8594 8.90625
Q38.875 10.7969 42.2812 13.4219" id="Verdana-61"/>
      <path d="
M74.5156 0
L64.8438 0
L64.8438 62.6406
L44.625 20.0156
L38.875 20.0156
L18.7969 62.6406
L18.7969 0
L9.76562 0
L9.76562 72.7031
L22.9531 72.7031
L42.3281 32.2344
L61.0781 72.7031
L74.5156 72.7031
z
" id="Verdana-4d"/>
     </defs>
     <g transform="translate(33.01125 230.9278125)rotate(-90.0)scale(0.12 -0.12)">
      <use xlink:href="#Verdana-4d"/>
      <use x="84.27734375" xlink:href="#Verdana-65"/>
      <use x="143.84765625" xlink:href="#Verdana-61"/>
      <use x="203.90625" xlink:href="#Verdana-6e"/>
     </g>
    </g>
   </g>
   <g id="patch_3">
    <path d="
M72 43.2
L518.4 43.2" style="fill:none;stroke:#000000;"/>
   </g>
   <g id="patch_4">
    <path d="
M72 388.8
L72 43.2" style="fill:none;stroke:#000000;"/>
   </g>
   <g id="patch_5">
    <path d="
M518.4 388.8
L518.4 43.2" style="fill:none;stroke:#000000;"/>
   </g>
   <g id="patch_6">
    <path d="
M72 388.8
L518.4 388.8" style="fill:none;stroke:#000000;"/>
   </g>
   <g id="text_17">
    <!-- Giunta Mean -->
    <defs>
     <path d="
M70.4062 5.375
Q64.4531 2.64062 57.3906 0.609375
Q50.3438 -1.42188 43.75 -1.42188
Q35.25 -1.42188 28.1719 0.921875
Q21.0938 3.26562 16.1094 7.95312
Q11.0781 12.7031 8.34375 19.7969
Q5.60938 26.9062 5.60938 36.4219
Q5.60938 53.8594 15.7969 63.9375
Q25.9844 74.0312 43.75 74.0312
Q49.9531 74.0312 56.4219 72.5312
Q62.8906 71.0469 70.3594 67.4844
L70.3594 56
L69.4844 56
Q67.9688 57.1719 65.0781 59.0781
Q62.2031 60.9844 59.4219 62.25
Q56.0625 63.7656 51.7812 64.7656
Q47.5156 65.7656 42.0938 65.7656
Q29.8906 65.7656 22.7812 57.9219
Q15.6719 50.0938 15.6719 36.7188
Q15.6719 22.6094 23.0938 14.7656
Q30.5156 6.9375 43.3125 6.9375
Q48 6.9375 52.6562 7.85938
Q57.3281 8.79688 60.8438 10.25
L60.8438 28.0781
L41.3594 28.0781
L41.3594 36.5781
L70.4062 36.5781
z
" id="Verdana-47"/>
    </defs>
    <g transform="translate(250.219125 38.2)scale(0.144 -0.144)">
     <use xlink:href="#Verdana-47"/>
     <use x="77.5390625" xlink:href="#Verdana-69"/>
     <use x="104.98046875" xlink:href="#Verdana-75"/>
     <use x="168.26171875" xlink:href="#Verdana-6e"/>
     <use x="231.54296875" xlink:href="#Verdana-74"/>
     <use x="270.947265625" xlink:href="#Verdana-61"/>
     <use x="331.005859375" xlink:href="#Verdana-20"/>
     <use x="366.162109375" xlink:href="#Verdana-4d"/>
     <use x="450.439453125" xlink:href="#Verdana-65"/>
     <use x="510.009765625" xlink:href="#Verdana-61"/>
     <use x="570.068359375" xlink:href="#Verdana-6e"/>
    </g>
   </g>
   <g id="legend_1">
    <g id="patch_7">
     <path d="
M407.18 159.919
L511.2 159.919
L511.2 50.4
L407.18 50.4
L407.18 159.919
z
" style="fill:#ffffff;stroke:#000000;"/>
    </g>
    <g id="line2d_34">
     <path d="
M417.26 62.0617
L437.42 62.0617" style="fill:none;stroke:#0000ff;stroke-dasharray:6.000000,2.000000;stroke-dashoffset:0.0;"/>
    </g>
    <g id="line2d_35"/>
    <g id="text_18">
     <!-- AMPGO -->
     <defs>
      <path d="
M57.3281 50.7344
Q57.3281 45.9062 55.6406 41.7656
Q53.9531 37.6406 50.9219 34.625
Q47.1719 30.8594 42.0469 28.9688
Q36.9219 27.0938 29.1094 27.0938
L19.4375 27.0938
L19.4375 0
L9.76562 0
L9.76562 72.7031
L29.5 72.7031
Q36.0312 72.7031 40.5781 71.6094
Q45.125 70.5156 48.6406 68.1719
Q52.7812 65.375 55.0469 61.2188
Q57.3281 57.0781 57.3281 50.7344
M47.2656 50.4844
Q47.2656 54.25 45.9375 57.0312
Q44.625 59.8125 41.9375 61.5781
Q39.5938 63.0938 36.5938 63.75
Q33.5938 64.4062 29 64.4062
L19.4375 64.4062
L19.4375 35.3594
L27.5938 35.3594
Q33.4531 35.3594 37.1094 36.4062
Q40.7656 37.4531 43.0625 39.75
Q45.3594 42.0938 46.3125 44.6719
Q47.2656 47.2656 47.2656 50.4844" id="Verdana-50"/>
      <path d="
M67.0938 0
L56.7812 0
L49.6562 20.2656
L18.2188 20.2656
L11.0781 0
L1.26562 0
L27.7344 72.7031
L40.625 72.7031
z

M46.6875 28.5625
L33.9375 64.2656
L21.1406 28.5625
z
" id="Verdana-41"/>
     </defs>
     <g transform="translate(453.26025 67.10175)scale(0.144 -0.144)">
      <use xlink:href="#Verdana-41"/>
      <use x="68.359375" xlink:href="#Verdana-4d"/>
      <use x="152.63671875" xlink:href="#Verdana-50"/>
      <use x="212.939453125" xlink:href="#Verdana-47"/>
      <use x="290.478515625" xlink:href="#Verdana-4f"/>
     </g>
    </g>
    <g id="line2d_36">
     <path d="
M417.26 83.1015
L437.42 83.1015" style="fill:none;stroke:#008000;stroke-dasharray:1.000000,1.000000;stroke-dashoffset:0.0;"/>
    </g>
    <g id="line2d_37"/>
    <g id="text_19">
     <!-- Anneal -->
     <defs>
      <path d="
M18.3125 0
L9.125 0
L9.125 75.9844
L18.3125 75.9844
z
" id="Verdana-6c"/>
     </defs>
     <g transform="translate(453.26025 88.1415)scale(0.144 -0.144)">
      <use xlink:href="#Verdana-41"/>
      <use x="68.359375" xlink:href="#Verdana-6e"/>
      <use x="131.640625" xlink:href="#Verdana-6e"/>
      <use x="194.921875" xlink:href="#Verdana-65"/>
      <use x="254.4921875" xlink:href="#Verdana-61"/>
      <use x="314.55078125" xlink:href="#Verdana-6c"/>
     </g>
    </g>
    <g id="line2d_38">
     <path d="
M417.26 104.141
L437.42 104.141" style="fill:none;stroke:#ff0000;stroke-dasharray:3.000000,6.000000;stroke-dashoffset:0.0;"/>
    </g>
    <g id="line2d_39"/>
    <g id="text_20">
     <!-- BSA -->
     <defs>
      <path d="
M64.5938 22.3594
Q64.5938 16.9375 62.5469 12.7812
Q60.5 8.64062 57.0312 5.95312
Q52.9375 2.73438 48.0156 1.35938
Q43.1094 0 35.5469 0
L9.76562 0
L9.76562 72.7031
L31.2969 72.7031
Q39.2656 72.7031 43.2188 72.1094
Q47.1719 71.5312 50.7812 69.6719
Q54.7812 67.5781 56.5938 64.2812
Q58.4062 60.9844 58.4062 56.3906
Q58.4062 51.2188 55.7656 47.5781
Q53.125 43.9531 48.7344 41.75
L48.7344 41.3594
Q56.1094 39.8438 60.3438 34.8906
Q64.5938 29.9375 64.5938 22.3594
M48.3438 55.125
Q48.3438 57.7656 47.4531 59.5625
Q46.5781 61.375 44.625 62.5
Q42.3281 63.8125 39.0625 64.125
Q35.7969 64.4531 30.9531 64.4531
L19.4375 64.4531
L19.4375 43.4531
L31.9375 43.4531
Q36.4688 43.4531 39.1562 43.9219
Q41.8438 44.3906 44.1406 45.8438
Q46.4375 47.3125 47.3906 49.625
Q48.3438 51.9531 48.3438 55.125
M54.5469 21.9688
Q54.5469 26.375 53.2188 28.9531
Q51.9062 31.5469 48.4375 33.3438
Q46.0938 34.5781 42.75 34.9375
Q39.4062 35.2969 34.625 35.2969
L19.4375 35.2969
L19.4375 8.25
L32.2344 8.25
Q38.5781 8.25 42.625 8.90625
Q46.6875 9.57812 49.2656 11.3281
Q52 13.2344 53.2656 15.6719
Q54.5469 18.1094 54.5469 21.9688" id="Verdana-42"/>
      <path d="
M62.5938 20.75
Q62.5938 16.5 60.6094 12.3438
Q58.6406 8.20312 55.0781 5.32812
Q51.1719 2.20312 45.9688 0.4375
Q40.7656 -1.3125 33.4531 -1.3125
Q25.5938 -1.3125 19.3125 0.140625
Q13.0312 1.60938 6.54688 4.5
L6.54688 16.6094
L7.23438 16.6094
Q12.75 12.0156 19.9688 9.51562
Q27.2031 7.03125 33.5469 7.03125
Q42.5312 7.03125 47.5312 10.3906
Q52.5469 13.7656 52.5469 19.3906
Q52.5469 24.2188 50.1719 26.5156
Q47.7969 28.8125 42.9688 30.0781
Q39.3125 31.0625 35.0312 31.6875
Q30.7656 32.3281 25.9844 33.2969
Q16.3125 35.3594 11.6406 40.3125
Q6.98438 45.2656 6.98438 53.2188
Q6.98438 62.3594 14.6875 68.1875
Q22.4062 74.0312 34.2812 74.0312
Q41.9375 74.0312 48.3281 72.5625
Q54.7344 71.0938 59.6719 68.9531
L59.6719 57.5156
L58.9844 57.5156
Q54.8281 61.0312 48.0625 63.3438
Q41.3125 65.6719 34.2344 65.6719
Q26.4688 65.6719 21.75 62.4531
Q17.0469 59.2344 17.0469 54.1562
Q17.0469 49.6094 19.3906 47.0156
Q21.7344 44.4375 27.6406 43.0625
Q30.7656 42.3906 36.5156 41.4062
Q42.2812 40.4375 46.2969 39.4062
Q54.3906 37.25 58.4844 32.9062
Q62.5938 28.5625 62.5938 20.75" id="Verdana-53"/>
     </defs>
     <g transform="translate(453.26025 109.18125)scale(0.144 -0.144)">
      <use xlink:href="#Verdana-42"/>
      <use x="68.5546875" xlink:href="#Verdana-53"/>
      <use x="135.9140625" xlink:href="#Verdana-41"/>
     </g>
    </g>
    <g id="line2d_40">
     <path d="
M417.26 125.181
L437.42 125.181" style="fill:none;stroke:#00bfbf;stroke-dasharray:5.000000,1.000000,2.000000,1.000000,5.000000,1.000000;stroke-dashoffset:0.0;"/>
    </g>
    <g id="line2d_41"/>
    <g id="text_21">
     <!-- Cuckoo -->
     <defs>
      <path d="
M58.5469 0
L46.4375 0
L24.5625 23.875
L18.6094 18.2188
L18.6094 0
L9.42188 0
L9.42188 75.9844
L18.6094 75.9844
L18.6094 27.25
L45.125 54.5469
L56.6875 54.5469
L31.3438 29.3438
z
" id="Verdana-6b"/>
      <path d="
M65.9219 5.28125
Q63.2344 4.10938 61.0625 3.07812
Q58.8906 2.04688 55.375 0.921875
Q52.3906 0 48.8906 -0.65625
Q45.4062 -1.3125 41.2188 -1.3125
Q33.2969 -1.3125 26.8281 0.90625
Q20.3594 3.125 15.5781 7.85938
Q10.8906 12.5 8.25 19.6562
Q5.60938 26.8125 5.60938 36.2812
Q5.60938 45.2656 8.14062 52.3438
Q10.6875 59.4219 15.4844 64.3125
Q20.125 69.0469 26.6875 71.5312
Q33.25 74.0312 41.2656 74.0312
Q47.125 74.0312 52.9531 72.6094
Q58.7969 71.1875 65.9219 67.625
L65.9219 56.1562
L65.1875 56.1562
Q59.1875 61.1875 53.2656 63.4688
Q47.3594 65.7656 40.625 65.7656
Q35.1094 65.7656 30.6875 63.9844
Q26.2656 62.2031 22.7969 58.4531
Q19.4375 54.7812 17.5469 49.1875
Q15.6719 43.6094 15.6719 36.2812
Q15.6719 28.6094 17.75 23.0938
Q19.8281 17.5781 23.0938 14.1094
Q26.5156 10.5 31.0781 8.76562
Q35.6406 7.03125 40.7188 7.03125
Q47.7031 7.03125 53.7969 9.42188
Q59.9062 11.8125 65.2344 16.6094
L65.9219 16.6094
z
" id="Verdana-43"/>
     </defs>
     <g transform="translate(453.26025 130.221)scale(0.144 -0.144)">
      <use xlink:href="#Verdana-43"/>
      <use x="69.82421875" xlink:href="#Verdana-75"/>
      <use x="133.10546875" xlink:href="#Verdana-63"/>
      <use x="185.205078125" xlink:href="#Verdana-6b"/>
      <use x="243.384765625" xlink:href="#Verdana-6f"/>
      <use x="304.078125" xlink:href="#Verdana-6f"/>
     </g>
    </g>
    <g id="line2d_42">
     <path d="
M417.26 146.221
L437.42 146.221" style="fill:none;stroke:#bf00bf;stroke-linecap:square;"/>
    </g>
    <g id="line2d_43"/>
    <g id="text_22">
     <!-- qABC -->
     <defs>
      <path d="
M53.2656 -20.125
L44.0938 -20.125
L44.0938 6.15625
Q39.8438 2.48438 35.6406 0.703125
Q31.4531 -1.07812 26.5625 -1.07812
Q16.8438 -1.07812 11.0625 6.42188
Q5.28125 13.9219 5.28125 27.0938
Q5.28125 34.125 7.29688 39.5156
Q9.32812 44.9219 12.6406 48.5781
Q15.875 52.1562 20.2188 54.1094
Q24.5625 56.0625 29.3906 56.0625
Q33.7969 56.0625 37.1875 55.0781
Q40.5781 54.1094 44.0938 52.2031
L44.6719 54.5469
L53.2656 54.5469
z

M44.0938 13.875
L44.0938 44.7344
Q40.2812 46.4375 37.3438 47.1094
Q34.4219 47.7969 31 47.7969
Q23.0469 47.7969 18.8906 42.4062
Q14.75 37.0156 14.75 27.5469
Q14.75 17.9688 18.0938 12.8125
Q21.4375 7.67188 28.6094 7.67188
Q32.625 7.67188 36.625 9.40625
Q40.625 11.1406 44.0938 13.875" id="Verdana-71"/>
     </defs>
     <g transform="translate(453.26025 151.26075)scale(0.144 -0.144)">
      <use xlink:href="#Verdana-71"/>
      <use x="62.3046875" xlink:href="#Verdana-41"/>
      <use x="130.6640625" xlink:href="#Verdana-42"/>
      <use x="199.21875" xlink:href="#Verdana-43"/>
     </g>
    </g>
   </g>
  </g>
 </g>
 <defs>
  <clipPath id="p7ff5b81e1d">
   <rect height="345.6" width="446.4" x="72.0" y="43.2"/>
  </clipPath>
 </defs>
</svg>
