<?xml version="1.0" encoding="utf-8" standalone="no"?>
<!DOCTYPE svg PUBLIC "-//W3C//DTD SVG 1.1//EN"
  "http://www.w3.org/Graphics/SVG/1.1/DTD/svg11.dtd">
<!-- Created with matplotlib (http://matplotlib.org/) -->
<svg height="432pt" version="1.1" viewBox="0 0 576 432" width="576pt" xmlns="http://www.w3.org/2000/svg" xmlns:xlink="http://www.w3.org/1999/xlink">
 <defs>
  <style type="text/css">
*{stroke-linecap:butt;stroke-linejoin:round;}
  </style>
 </defs>
 <g id="figure_1">
  <g id="patch_1">
   <path d="
M0 432
L576 432
L576 0
L0 0
z
" style="fill:#ffffff;"/>
  </g>
  <g id="axes_1">
   <g id="patch_2">
    <path d="
M72 388.8
L518.4 388.8
L518.4 43.2
L72 43.2
z
" style="fill:#ffffff;"/>
   </g>
   <g id="line2d_1">
    <path clip-path="url(#p7ff5b81e1d)" d="
M72 388.8
L73.4285 388.8
L73.607 388.66
L74.1427 388.66
L74.3213 387.959
L74.4998 387.959
L74.6784 386.837
L74.857 386.837
L75.0355 385.575
L75.2141 385.575
L75.3926 385.155
L75.5712 385.155
L75.7498 384.454
L75.9283 384.454
L76.1069 383.052
L76.2854 383.052
L76.464 382.771
L76.6426 382.771
L76.8211 382.07
L76.9997 382.07
L77.1782 381.65
L77.7139 381.65
L77.8925 381.089
L78.071 381.089
L78.2496 380.949
L78.4282 380.949
L78.6067 380.668
L79.4995 380.668
L79.6781 380.528
L79.8566 380.528
L80.0352 380.388
L81.6422 380.388
L81.8208 380.248
L518.311 380.248
L518.311 380.248" style="fill:none;stroke:#0000ff;stroke-dasharray:6.000000,2.000000;stroke-dashoffset:0.0;"/>
   </g>
   <g id="line2d_2">
    <path clip-path="url(#p7ff5b81e1d)" d="
M72 388.8
L72.8928 388.8
L72.9821 388.64
L73.1606 388.8
L82.7136 388.8
L82.9814 388.48
L85.3027 388.48
L85.4813 388.319
L85.7491 388.319
L85.9277 388.159
L86.8205 388.159
L87.0883 387.839
L89.9453 387.839
L90.1238 387.678
L91.0166 387.678
L91.5523 386.877
L91.7309 386.877
L91.9987 386.557
L92.8022 386.557
L92.9808 386.397
L93.0701 386.397
L93.2486 386.236
L93.4272 386.236
L93.6058 385.916
L93.9629 385.916
L94.1414 385.756
L94.4093 385.756
L94.6771 385.435
L95.2128 385.435
L95.3914 385.275
L95.4806 385.275
L95.6592 385.115
L95.7485 385.115
L95.927 384.955
L96.1056 384.955
L96.2842 384.634
L96.9091 383.673
L97.4448 383.673
L97.6234 383.352
L97.8019 383.352
L98.6054 382.071
L98.9626 382.071
L99.1411 381.91
L99.2304 381.91
L99.5875 380.949
L99.9446 380.468
L100.034 380.468
L100.391 379.988
L100.48 379.988
L100.659 379.828
L100.748 379.828
L101.284 379.026
L101.73 379.026
L102.177 378.386
L102.266 378.386
L102.355 378.225
L102.623 376.783
L103.069 376.783
L103.337 376.463
L103.427 376.463
L103.694 376.142
L103.784 376.142
L104.409 375.181
L104.587 375.181
L104.855 374.861
L104.944 374.861
L105.123 374.54
L105.48 374.06
L105.659 374.06
L105.837 373.258
L105.926 373.258
L106.105 372.778
L106.462 371.816
L106.551 371.656
L106.73 371.176
L106.908 371.015
L107.087 371.015
L107.444 370.054
L107.533 370.054
L107.712 369.734
L107.801 369.734
L108.337 368.932
L108.516 368.932
L108.962 368.292
L109.051 368.292
L109.408 367.49
L109.676 366.85
L109.765 366.85
L109.944 366.369
L110.033 366.369
L110.39 365.728
L110.658 364.767
L110.837 364.286
L111.015 363.805
L111.372 363.164
L111.64 362.203
L111.819 362.043
L111.908 362.043
L112.087 361.722
L112.355 361.082
L112.533 360.761
L112.622 360.761
L112.89 360.12
L113.783 358.678
L113.962 358.678
L114.14 358.518
L114.319 357.717
L114.944 356.755
L115.301 356.755
L115.836 355.634
L116.283 354.192
L116.551 354.192
L116.819 353.551
L117.086 352.91
L117.711 351.789
L118.158 349.866
L118.336 349.866
L118.515 349.706
L118.604 349.706
L118.783 349.545
L118.872 349.545
L119.14 349.225
L119.229 349.225
L120.033 347.943
L120.122 347.943
L120.568 347.302
L120.658 347.302
L121.283 346.181
L121.461 345.38
L121.64 345.38
L121.908 343.777
L121.997 343.777
L122.622 342.816
L122.711 342.816
L123.157 342.175
L123.247 342.175
L123.782 341.374
L123.872 341.374
L124.407 340.573
L124.586 340.573
L124.764 340.413
L125.032 340.413
L125.211 339.932
L125.389 339.772
L125.836 339.772
L126.014 338.971
L126.104 338.971
L126.282 338.811
L126.639 338.811
L126.907 338.49
L127.086 338.49
L127.264 338.009
L127.354 338.009
L127.621 337.369
L128.068 336.728
L128.157 336.728
L129.139 334.805
L129.407 334.004
L129.496 334.004
L129.764 333.683
L129.943 333.683
L130.211 332.882
L130.3 332.882
L130.746 331.921
L131.103 330.799
L131.193 330.799
L131.282 330.639
L131.46 330.159
L131.728 329.838
L131.996 329.838
L132.175 329.197
L132.532 329.197
L132.71 328.877
L132.8 328.877
L133.068 328.236
L133.246 327.595
L133.335 327.595
L133.514 326.954
L133.692 326.794
L133.782 326.794
L133.96 326.634
L134.228 326.634
L134.496 326.313
L134.585 326.313
L135.21 325.352
L135.3 325.352
L135.478 324.871
L135.924 324.871
L136.103 324.551
L136.192 324.551
L136.371 324.07
L136.639 323.429
L136.907 323.429
L136.996 323.269
L137.174 322.788
L137.442 322.147
L137.621 322.147
L137.889 321.507
L137.978 321.507
L138.156 321.026
L138.424 320.705
L138.692 320.705
L138.96 320.385
L139.228 320.385
L139.853 319.424
L140.299 319.424
L141.013 318.302
L141.192 318.302
L141.371 318.142
L141.46 318.142
L141.638 317.982
L141.728 317.982
L141.906 317.821
L142.085 317.821
L142.353 317.181
L142.71 316.7
L143.245 316.7
L143.424 316.54
L143.96 316.54
L144.138 316.379
L144.317 316.379
L144.495 316.219
L144.852 316.219
L145.031 316.059
L145.477 316.059
L145.656 315.739
L145.835 315.739
L146.013 315.418
L146.46 315.418
L146.995 314.617
L147.084 314.617
L147.442 314.136
L147.977 314.136
L148.156 313.976
L148.245 313.976
L148.602 313.495
L148.87 313.495
L149.138 313.175
L149.227 313.175
L149.406 312.855
L149.584 312.855
L149.852 312.534
L149.941 312.534
L150.12 312.374
L150.299 312.374
L150.477 312.214
L150.834 312.214
L151.013 311.733
L151.102 311.733
L151.281 311.573
L151.37 311.573
L151.638 311.252
L151.727 311.252
L152.084 310.772
L152.352 310.772
L152.531 310.611
L152.709 310.611
L153.066 310.131
L153.78 310.131
L153.959 309.65
L154.852 309.65
L155.209 309.169
L155.566 309.169
L155.745 309.009
L156.816 309.009
L156.995 308.849
L157.262 308.849
L157.441 308.689
L158.155 308.689
L158.334 308.208
L158.512 308.208
L158.78 307.888
L159.584 307.888
L159.852 307.567
L160.209 307.567
L160.655 306.926
L162.619 306.926
L162.887 306.606
L163.066 306.606
L163.333 306.285
L164.137 306.285
L164.316 306.125
L165.565 306.125
L165.744 305.965
L166.28 305.965
L166.637 305.484
L167.351 305.484
L167.619 305.164
L170.833 305.164
L171.012 305.004
L172.44 305.004
L172.619 304.843
L173.601 304.843
L173.868 304.523
L174.315 304.523
L174.583 304.203
L176.011 304.203
L176.19 304.042
L176.636 304.042
L176.815 303.882
L176.904 303.882
L177.083 303.722
L177.261 303.722
L177.44 303.562
L178.6 303.562
L178.779 303.401
L179.672 303.401
L179.85 303.241
L181.1 303.241
L181.279 303.081
L182.172 303.081
L182.439 302.761
L183.779 302.761
L183.957 302.6
L186.278 302.6
L186.457 302.44
L187.885 302.44
L188.064 302.28
L188.243 302.28
L188.421 302.12
L188.51 302.12
L188.689 301.959
L189.85 301.959
L190.028 301.799
L192.171 301.799
L192.349 301.639
L193.689 301.639
L193.867 301.479
L196.903 301.479
L197.081 301.318
L212.795 301.318
L212.973 301.158
L213.687 301.158
L213.866 300.998
L222.615 300.998
L222.794 300.838
L223.419 300.838
L223.597 300.678
L223.865 300.678
L224.044 300.517
L231.99 300.517
L232.168 300.357
L252.435 300.357
L252.613 300.197
L278.505 300.197
L278.683 300.037
L318.948 300.037
L319.127 299.876
L347.964 299.876
L348.143 299.716
L358.857 299.716
L359.035 299.556
L483.224 299.556
L483.402 299.396
L518.311 299.396
L518.311 299.396" style="fill:none;stroke:#008000;stroke-dasharray:1.000000,1.000000;stroke-dashoffset:0.0;"/>
   </g>
   <g id="line2d_3">
    <path clip-path="url(#p7ff5b81e1d)" d="
M72 388.8
L199.849 388.8
L200.028 388.11
L201.545 388.11
L201.724 387.42
L226.812 387.42
L226.99 386.731
L228.329 386.731
L228.508 386.041
L228.954 386.041
L229.133 385.351
L231.722 385.351
L231.9 384.661
L232.793 384.661
L233.061 383.281
L236.9 383.281
L237.079 382.592
L238.596 382.592
L238.775 381.902
L239.221 381.902
L239.4 381.212
L242.436 381.212
L242.614 380.522
L244.043 380.522
L244.221 379.832
L246.989 379.832
L247.167 379.143
L247.524 379.143
L247.703 378.453
L249.935 378.453
L250.114 377.763
L252.256 377.763
L252.435 377.073
L254.488 377.073
L254.667 375.693
L255.024 375.693
L255.203 375.004
L255.828 375.004
L256.095 373.624
L256.542 373.624
L256.72 372.934
L257.97 372.934
L258.149 372.244
L258.417 372.244
L258.684 370.865
L258.863 370.865
L259.042 370.175
L261.452 370.175
L261.631 369.485
L261.899 369.485
L262.077 368.795
L262.434 368.795
L262.702 367.416
L262.791 367.416
L262.97 366.726
L263.238 366.726
L263.416 366.036
L263.684 366.036
L263.863 365.346
L266.363 365.346
L266.541 364.656
L266.809 364.656
L266.988 363.277
L267.077 363.277
L267.345 361.897
L269.577 361.897
L269.844 360.517
L270.202 360.517
L270.38 359.828
L270.648 359.828
L270.827 359.138
L271.094 359.138
L271.452 357.068
L271.898 357.068
L272.076 356.378
L272.969 356.378
L273.148 355.689
L274.398 355.689
L274.576 354.999
L275.826 354.999
L276.005 354.309
L276.094 354.309
L276.273 353.619
L276.898 353.619
L277.076 352.929
L277.88 352.929
L278.058 352.24
L278.148 352.24
L278.326 351.55
L279.219 351.55
L279.397 350.17
L279.487 350.17
L279.755 348.79
L280.022 348.79
L280.201 348.101
L281.451 348.101
L281.719 346.721
L282.254 346.721
L282.433 346.031
L283.415 346.031
L283.594 345.341
L283.683 345.341
L283.861 344.651
L283.951 344.651
L284.129 343.962
L285.022 343.962
L285.29 342.582
L286.004 342.582
L286.183 341.892
L286.451 341.892
L286.629 341.202
L286.808 341.202
L286.986 340.513
L287.165 340.513
L287.433 339.133
L288.683 339.133
L288.861 338.443
L288.95 338.443
L289.129 337.063
L289.308 336.374
L289.397 336.374
L289.575 335.684
L290.557 335.684
L290.736 334.994
L290.915 334.994
L291.093 334.304
L291.361 334.304
L291.54 332.925
L291.897 332.925
L292.075 332.235
L294.039 332.235
L294.218 331.545
L294.396 331.545
L294.664 330.165
L294.932 330.165
L295.111 329.475
L295.557 329.475
L295.736 328.786
L296.628 328.786
L296.807 327.406
L296.986 327.406
L297.253 326.026
L297.878 326.026
L298.236 323.957
L298.325 323.957
L298.503 323.267
L298.593 323.267
L298.86 321.887
L299.753 321.887
L299.932 321.198
L300.735 321.198
L300.914 320.508
L301.271 320.508
L301.45 319.128
L302.342 319.128
L303.414 311.54
L304.574 311.54
L304.842 310.16
L305.289 310.16
L305.467 309.471
L305.735 309.471
L305.914 308.781
L306.36 308.781
L306.539 308.091
L306.896 308.091
L307.074 307.401
L307.164 307.401
L307.342 306.711
L307.878 306.711
L308.056 306.022
L309.396 306.022
L309.574 305.332
L310.288 305.332
L310.467 303.262
L310.556 303.262
L310.735 302.572
L311.449 302.572
L311.628 301.883
L311.717 301.883
L311.895 301.193
L312.163 301.193
L312.431 299.813
L314.306 299.813
L314.484 299.123
L314.663 299.123
L315.02 297.054
L315.109 297.054
L315.288 296.364
L317.431 296.364
L317.699 294.984
L318.145 294.984
L318.591 292.225
L319.216 292.225
L319.395 291.535
L319.484 291.535
L319.663 290.846
L319.931 290.846
L320.109 289.466
L320.377 289.466
L320.556 287.396
L321.091 287.396
L321.27 286.707
L321.805 286.707
L322.073 285.327
L322.252 285.327
L322.43 284.637
L322.52 284.637
L322.698 283.947
L322.788 283.947
L323.055 282.568
L323.412 282.568
L323.591 281.188
L323.68 281.188
L323.948 279.808
L324.127 279.808
L324.395 278.429
L324.662 278.429
L324.841 277.739
L325.02 277.739
L325.198 277.049
L325.644 277.049
L325.912 275.669
L326.537 275.669
L326.716 274.98
L327.162 274.98
L327.43 273.6
L327.787 273.6
L327.966 272.22
L328.144 272.22
L328.323 271.531
L328.412 271.531
L328.501 270.841
L328.68 268.771
L328.859 268.081
L329.126 268.081
L329.394 266.702
L330.376 266.702
L330.644 265.322
L331.358 265.322
L331.537 264.632
L332.251 264.632
L332.43 263.943
L332.965 263.943
L333.323 261.873
L333.412 261.873
L333.59 261.183
L333.68 261.183
L333.858 260.493
L334.662 260.493
L334.84 259.114
L335.108 257.734
L335.197 257.734
L335.376 257.044
L336.715 257.044
L336.894 256.354
L337.072 256.354
L337.34 254.975
L337.519 254.975
L337.787 253.595
L338.233 253.595
L338.412 252.905
L338.769 252.905
L339.036 251.526
L339.304 251.526
L339.483 250.836
L340.019 250.836
L340.197 250.146
L340.554 250.146
L340.733 249.456
L341.626 249.456
L341.804 248.766
L341.983 248.766
L342.161 248.077
L342.34 248.077
L342.608 246.697
L343.679 246.697
L343.858 246.007
L344.304 246.007
L344.572 244.628
L345.018 244.628
L345.197 243.938
L345.643 243.938
L346 241.868
L346.804 241.868
L347.072 240.489
L347.518 240.489
L347.697 239.799
L349.929 239.799
L350.107 239.109
L350.375 239.109
L350.554 237.729
L350.732 237.04
L350.911 237.04
L351.089 234.97
L351.268 234.28
L352.518 234.28
L352.696 232.211
L352.875 232.211
L353.053 230.141
L353.143 230.141
L353.321 229.451
L353.411 229.451
L353.589 228.762
L353.857 228.762
L354.036 228.072
L354.125 228.072
L354.303 227.382
L354.393 227.382
L354.571 226.692
L354.839 226.692
L355.018 226.002
L355.464 226.002
L355.732 224.623
L355.821 224.623
L356.178 222.553
L356.268 222.553
L356.446 221.863
L356.714 221.863
L356.892 221.174
L356.982 221.174
L357.16 219.794
L357.339 219.794
L357.517 219.104
L357.607 219.104
L357.785 218.414
L358.142 218.414
L358.5 216.345
L360.107 216.345
L360.285 215.655
L361.356 215.655
L361.535 214.965
L361.624 214.965
L361.803 214.275
L362.428 214.275
L362.606 213.586
L362.785 213.586
L363.053 212.206
L363.142 212.206
L363.41 209.447
L363.588 209.447
L363.767 208.067
L364.213 208.067
L364.392 207.377
L364.838 207.377
L365.017 206.687
L365.463 206.687
L365.642 205.998
L366.088 205.998
L366.356 204.618
L366.445 204.618
L366.624 203.928
L367.695 203.928
L367.963 202.549
L368.142 202.549
L368.32 201.859
L370.017 201.859
L370.195 201.169
L370.731 201.169
L370.999 199.789
L371.713 199.789
L371.981 198.41
L372.159 198.41
L372.516 196.34
L373.141 196.34
L373.409 194.96
L374.302 194.96
L374.481 193.581
L374.659 193.581
L375.106 190.822
L375.195 190.822
L375.731 187.372
L376.088 187.372
L376.445 185.303
L377.07 185.303
L377.248 184.613
L377.427 184.613
L377.605 183.923
L378.766 183.923
L379.034 182.544
L379.391 182.544
L379.57 181.854
L379.659 181.854
L379.837 181.164
L380.641 181.164
L380.82 180.474
L380.998 180.474
L381.355 178.405
L381.444 178.405
L381.712 177.025
L381.891 177.025
L382.069 176.335
L382.605 176.335
L382.784 175.646
L383.319 175.646
L383.587 174.266
L384.391 174.266
L384.569 173.576
L385.016 173.576
L385.194 172.196
L385.284 172.196
L385.551 170.817
L385.73 170.817
L385.908 169.437
L386.087 169.437
L386.266 168.747
L386.801 168.747
L387.069 167.368
L387.516 167.368
L387.694 166.678
L389.48 166.678
L389.658 165.988
L390.015 165.988
L390.283 164.608
L390.551 164.608
L390.73 162.539
L391.265 162.539
L391.533 161.159
L391.98 161.159
L392.158 160.469
L393.854 160.469
L394.033 159.78
L395.729 159.78
L395.908 159.09
L395.997 159.09
L396.176 158.4
L396.444 158.4
L396.622 157.71
L398.497 157.71
L398.765 156.331
L398.854 156.331
L399.033 155.641
L399.39 155.641
L399.568 154.951
L400.818 154.951
L400.997 152.192
L401.086 152.192
L401.265 151.502
L401.443 151.502
L401.622 150.812
L402.068 150.812
L402.247 150.122
L402.515 150.122
L402.782 148.743
L402.961 148.743
L403.229 147.363
L403.764 147.363
L403.943 146.673
L404.122 146.673
L404.3 145.983
L405.104 145.983
L405.282 145.293
L405.461 145.293
L405.639 144.604
L406.264 144.604
L406.443 143.224
L407.246 143.224
L407.425 142.534
L407.693 142.534
L407.871 141.844
L408.228 141.844
L408.407 140.465
L408.496 140.465
L408.764 139.085
L409.568 139.085
L409.746 138.395
L410.193 138.395
L410.371 137.705
L411.443 137.705
L411.621 137.016
L413.05 137.016
L413.228 136.326
L413.675 136.326
L413.942 134.946
L415.371 134.946
L415.639 133.566
L416.71 133.566
L416.889 132.877
L418.317 132.877
L418.496 132.187
L419.478 132.187
L419.656 131.497
L419.746 131.497
L420.013 130.117
L420.371 130.117
L420.728 128.048
L421.085 128.048
L421.263 127.358
L423.228 127.358
L423.406 126.668
L424.299 126.668
L424.477 125.978
L424.656 125.978
L425.102 123.219
L425.549 123.219
L425.727 122.529
L427.156 122.529
L427.334 121.84
L427.959 121.84
L428.138 121.15
L429.031 121.15
L429.209 120.46
L430.013 120.46
L430.281 119.08
L430.37 119.08
L430.548 117.701
L430.995 117.701
L431.441 114.941
L431.798 114.941
L431.977 114.251
L432.066 114.251
L432.245 113.562
L433.048 113.562
L433.227 112.872
L434.03 112.872
L434.209 112.182
L435.727 112.182
L435.905 111.492
L438.227 111.492
L438.494 110.113
L438.584 110.113
L438.762 108.733
L438.941 108.733
L439.119 108.043
L439.655 108.043
L439.834 107.353
L440.369 107.353
L440.548 106.663
L440.994 106.663
L441.173 105.284
L441.53 105.284
L441.708 104.594
L441.798 104.594
L442.066 103.214
L443.583 103.214
L443.762 102.525
L443.851 102.525
L444.208 100.455
L445.726 100.455
L445.905 99.7653
L446.44 99.7653
L446.619 99.0754
L447.155 99.0754
L447.333 98.3856
L447.422 98.3856
L447.69 97.006
L447.869 97.006
L448.047 96.3162
L448.494 96.3162
L448.672 95.6263
L448.94 95.6263
L449.119 94.9365
L449.833 94.9365
L450.012 94.2467
L452.779 94.2467
L452.958 93.5569
L453.226 93.5569
L453.404 92.8671
L453.672 92.8671
L453.851 92.1772
L454.208 92.1772
L454.565 90.1078
L454.833 90.1078
L455.011 89.418
L458.136 89.418
L458.315 88.7281
L459.029 88.7281
L459.207 88.0383
L461.172 88.0383
L461.35 87.3485
L461.707 87.3485
L461.886 86.6587
L462.154 86.6587
L462.332 85.9689
L462.779 85.9689
L462.957 85.279
L464.475 85.279
L464.653 83.2096
L465.546 83.2096
L465.725 82.5198
L467.51 82.5198
L467.689 81.8299
L468.225 81.8299
L468.403 81.1401
L468.939 81.1401
L469.117 80.4503
L472.51 80.4503
L472.689 79.7605
L473.135 79.7605
L473.314 79.0707
L474.206 79.0707
L474.385 78.3808
L475.546 78.3808
L475.724 77.691
L477.956 77.691
L478.135 77.0012
L478.313 77.0012
L478.492 76.3114
L480.902 76.3114
L481.26 74.2419
L482.509 74.2419
L482.688 73.5521
L485.099 73.5521
L485.277 72.8623
L486.17 72.8623
L486.348 72.1725
L489.741 72.1725
L489.92 71.4826
L491.527 71.4826
L491.705 70.7928
L491.884 70.7928
L492.062 70.103
L493.848 70.103
L494.116 68.7234
L494.652 68.7234
L494.83 68.0335
L495.544 68.0335
L495.812 66.6539
L496.973 66.6539
L497.151 65.9641
L497.33 65.9641
L497.508 65.2743
L499.383 65.2743
L499.562 64.5844
L501.08 64.5844
L501.258 63.2048
L507.061 63.2048
L507.24 62.515
L507.597 62.515
L507.776 61.8251
L511.079 61.8251
L511.258 61.1353
L516.972 61.1353
L517.329 59.0659
L518.311 59.0659
L518.311 59.0659" style="fill:none;stroke:#ff0000;stroke-dasharray:3.000000,6.000000;stroke-dashoffset:0.0;"/>
   </g>
   <g id="line2d_4">
    <path clip-path="url(#p7ff5b81e1d)" d="
M72 388.184
L72.8928 388.184
L73.0714 388.8
L139.942 388.8
L140.121 388.184
L229.401 388.184
L229.579 387.568
L244.846 387.568
L245.025 386.952
L264.845 386.952
L265.023 386.336
L283.772 386.336
L283.951 385.72
L287.343 385.72
L287.522 385.104
L293.236 385.104
L293.414 384.488
L297.611 384.488
L297.789 383.872
L304.574 383.872
L304.753 383.256
L310.467 383.256
L310.645 382.64
L312.788 382.64
L312.967 382.024
L314.931 382.024
L315.109 381.407
L323.591 381.407
L323.77 380.791
L329.573 380.791
L329.751 380.175
L330.019 380.175
L330.198 379.559
L332.608 379.559
L332.876 378.327
L336.18 378.327
L336.358 377.095
L340.376 377.095
L340.554 376.479
L341.447 376.479
L341.626 375.863
L346.982 375.863
L347.161 375.247
L358.053 375.247
L358.232 374.631
L358.946 374.631
L359.214 373.399
L359.303 373.399
L359.482 372.783
L360.285 372.783
L360.464 372.167
L361.535 372.167
L361.714 371.551
L362.696 371.551
L362.874 370.935
L364.749 370.935
L364.928 370.319
L365.82 370.319
L365.999 369.703
L366.356 369.703
L366.535 369.087
L367.517 369.087
L367.695 368.471
L368.677 368.471
L368.856 367.855
L368.945 367.855
L369.124 367.239
L369.213 367.239
L369.392 366.006
L369.57 366.006
L369.838 364.774
L372.338 364.774
L372.606 363.542
L372.784 363.542
L372.963 362.926
L376.356 362.926
L376.534 362.31
L376.891 362.31
L377.07 361.078
L378.945 361.078
L379.123 360.462
L379.48 360.462
L379.748 359.23
L380.105 359.23
L380.462 357.382
L383.319 357.382
L383.498 356.766
L383.855 356.766
L384.123 355.534
L387.069 355.534
L387.248 354.918
L387.516 354.918
L387.783 353.686
L389.748 353.686
L389.926 353.07
L390.015 353.07
L390.372 351.221
L390.908 351.221
L391.087 350.605
L393.765 350.605
L393.944 349.989
L394.122 349.989
L394.39 348.757
L394.658 348.757
L394.836 348.141
L397.604 348.141
L397.872 346.909
L398.318 346.909
L398.497 346.293
L400.729 346.293
L400.997 345.061
L401.265 345.061
L401.443 344.445
L402.068 344.445
L402.247 343.829
L403.586 343.829
L403.764 343.213
L405.014 343.213
L405.193 342.597
L407.782 342.597
L407.961 341.981
L410.728 341.981
L410.907 341.365
L411.353 341.365
L411.532 340.749
L412.425 340.749
L412.603 340.133
L412.782 340.133
L412.96 339.517
L415.46 339.517
L415.639 338.901
L416.264 338.901
L416.442 338.284
L416.532 338.284
L416.71 337.668
L417.424 337.668
L417.603 337.052
L418.674 337.052
L419.121 334.588
L422.335 334.588
L422.692 332.74
L423.228 332.74
L423.406 332.124
L425.102 332.124
L425.281 331.508
L425.638 331.508
L425.817 329.044
L425.906 329.044
L426.084 328.428
L426.62 328.428
L426.799 327.196
L426.888 327.196
L427.156 325.964
L429.031 325.964
L429.299 324.732
L430.281 324.732
L430.638 322.883
L430.727 322.883
L430.906 322.267
L431.084 322.267
L431.263 321.651
L432.78 321.651
L432.959 321.035
L433.048 321.035
L433.227 320.419
L433.316 320.419
L433.673 318.571
L433.852 318.571
L434.03 317.955
L434.209 317.955
L434.388 317.339
L436.709 317.339
L436.887 315.491
L437.155 315.491
L437.423 313.027
L437.691 313.027
L437.869 312.411
L440.012 312.411
L440.28 311.179
L440.369 311.179
L440.548 310.563
L440.816 310.563
L440.994 309.947
L441.441 309.947
L441.619 309.33
L443.316 309.33
L443.494 308.714
L444.298 308.714
L444.655 306.866
L444.744 306.866
L444.923 306.25
L445.012 306.25
L445.28 305.018
L446.887 305.018
L447.065 304.402
L447.155 304.402
L447.333 303.17
L447.422 303.17
L447.69 301.938
L448.047 301.938
L448.494 299.474
L450.101 299.474
L450.279 298.858
L450.547 298.858
L450.815 297.626
L451.261 297.626
L451.529 296.394
L451.619 296.394
L451.886 295.161
L453.851 295.161
L454.029 294.545
L454.118 294.545
L454.297 293.929
L454.743 293.929
L454.922 293.313
L455.1 293.313
L455.279 291.465
L456.261 291.465
L456.44 290.849
L457.422 290.849
L457.6 290.233
L457.69 290.233
L457.868 289.001
L457.957 289.001
L458.225 287.769
L458.315 287.769
L458.672 285.921
L459.297 285.921
L459.475 285.305
L461.261 285.305
L461.975 279.76
L462.154 277.912
L462.332 277.296
L465.278 277.296
L465.457 276.68
L465.725 276.68
L465.993 275.448
L466.171 275.448
L466.35 274.832
L467.153 274.832
L467.332 274.216
L468.492 274.216
L468.671 271.136
L469.207 268.056
L469.385 268.056
L469.742 266.207
L471.885 266.207
L472.064 265.591
L472.153 265.591
L472.51 263.743
L472.599 263.743
L472.778 262.511
L473.314 262.511
L473.849 259.431
L474.474 259.431
L474.653 258.815
L475.635 258.815
L475.813 258.199
L476.171 258.199
L476.26 257.583
L476.438 255.735
L476.617 255.735
L476.796 255.119
L477.063 255.119
L477.331 253.887
L479.117 253.887
L479.385 252.655
L479.92 252.655
L480.188 251.422
L480.545 251.422
L480.813 248.958
L482.242 248.958
L482.42 248.342
L482.688 248.342
L482.956 247.11
L483.134 247.11
L484.116 240.95
L484.206 240.95
L484.563 239.102
L486.438 239.102
L486.884 236.637
L487.063 236.637
L487.241 236.021
L487.42 236.021
L487.598 234.789
L487.777 234.173
L488.491 234.173
L488.67 233.557
L488.848 233.557
L489.027 232.941
L489.92 232.941
L490.277 231.093
L490.634 231.093
L490.812 229.861
L491.08 228.629
L491.17 228.629
L491.527 226.781
L492.062 226.781
L492.241 226.165
L493.402 226.165
L493.759 224.317
L493.848 224.317
L494.027 223.701
L494.116 223.701
L494.294 223.084
L494.741 223.084
L495.009 221.852
L495.544 221.852
L495.812 220.62
L497.241 220.62
L497.508 219.388
L497.598 219.388
L497.866 218.156
L497.955 218.156
L498.133 216.924
L498.223 216.924
L498.491 215.692
L500.098 215.692
L500.276 215.076
L500.455 215.076
L500.633 214.46
L500.723 214.46
L501.615 208.916
L501.794 208.916
L502.33 205.835
L503.49 205.835
L503.758 204.603
L504.651 204.603
L504.919 203.371
L505.633 203.371
L505.812 201.523
L507.061 201.523
L507.508 199.059
L507.865 199.059
L508.133 197.827
L508.222 197.827
L508.401 197.211
L508.847 197.211
L509.115 194.747
L509.293 194.747
L509.472 194.13
L510.276 194.13
L510.454 193.514
L511.704 193.514
L512.15 191.05
L512.418 191.05
L512.597 189.818
L512.775 189.818
L512.954 189.202
L513.847 189.202
L514.115 187.97
L515.543 187.97
L516.168 184.274
L516.347 184.274
L516.614 183.042
L518.311 183.042
L518.311 183.042" style="fill:none;stroke:#00bfbf;stroke-dasharray:5.000000,1.000000,2.000000,1.000000,5.000000,1.000000;stroke-dashoffset:0.0;"/>
   </g>
   <g id="line2d_5">
    <path clip-path="url(#p7ff5b81e1d)" d="
M72 388.8
L72.9821 388.8
L73.1606 388.546
L73.4285 388.546
L73.607 388.8
L94.4986 388.8
L94.6771 388.546
L105.569 388.546
L105.748 388.292
L115.658 388.292
L115.836 388.038
L123.425 388.038
L123.604 387.784
L128.961 387.784
L129.139 387.529
L145.031 387.529
L145.21 387.275
L147.888 387.275
L148.067 387.021
L195.028 387.021
L195.206 386.767
L249.935 386.767
L250.114 386.513
L332.876 386.513
L333.055 386.259
L518.311 386.259
L518.311 386.259" style="fill:none;stroke:#bf00bf;stroke-linecap:square;"/>
   </g>
   <g id="matplotlib.axis_1">
    <g id="xtick_1">
     <g id="line2d_6">
      <defs>
       <path d="
M0 0
L0 -4" id="mc7db9fdffb" style="stroke:#000000;stroke-width:0.5;"/>
      </defs>
      <g>
       <use style="stroke:#000000;stroke-width:0.5;" x="72.0" xlink:href="#mc7db9fdffb" y="388.8"/>
      </g>
     </g>
     <g id="line2d_7">
      <defs>
       <path d="
M0 0
L0 4" id="m5a7d422ac3" style="stroke:#000000;stroke-width:0.5;"/>
      </defs>
      <g>
       <use style="stroke:#000000;stroke-width:0.5;" x="72.0" xlink:href="#m5a7d422ac3" y="43.2"/>
      </g>
     </g>
     <g id="text_1">
      <!-- 0 -->
      <defs>
       <path d="
M56.9844 36.375
Q56.9844 16.7969 50.8594 7.64062
Q44.7344 -1.51562 31.8438 -1.51562
Q18.75 -1.51562 12.7188 7.76562
Q6.6875 17.0469 6.6875 36.2812
Q6.6875 55.6719 12.7812 64.9219
Q18.8906 74.1719 31.8438 74.1719
Q44.9219 74.1719 50.9531 64.7656
Q56.9844 55.375 56.9844 36.375
M44.1406 14.2031
Q45.8438 18.1719 46.4531 23.5156
Q47.0781 28.8594 47.0781 36.375
Q47.0781 43.7969 46.4531 49.2656
Q45.8438 54.7344 44.0938 58.5469
Q42.3906 62.3125 39.4219 64.2031
Q36.4688 66.1094 31.8438 66.1094
Q27.25 66.1094 24.2344 64.2031
Q21.2344 62.3125 19.4844 58.4531
Q17.8281 54.8281 17.2188 49.0156
Q16.6094 43.2188 16.6094 36.2812
Q16.6094 28.6562 17.1406 23.5312
Q17.6719 18.4062 19.4375 14.3594
Q21.0469 10.5469 24 8.54688
Q26.9531 6.54688 31.8438 6.54688
Q36.4219 6.54688 39.4531 8.45312
Q42.4844 10.3594 44.1406 14.2031" id="Verdana-30"/>
      </defs>
      <g transform="translate(68.9821875 401.918125)scale(0.12 -0.12)">
       <use xlink:href="#Verdana-30"/>
      </g>
     </g>
    </g>
    <g id="xtick_2">
     <g id="line2d_8">
      <g>
       <use style="stroke:#000000;stroke-width:0.5;" x="161.28" xlink:href="#mc7db9fdffb" y="388.8"/>
      </g>
     </g>
     <g id="line2d_9">
      <g>
       <use style="stroke:#000000;stroke-width:0.5;" x="161.28" xlink:href="#m5a7d422ac3" y="43.2"/>
      </g>
     </g>
     <g id="text_2">
      <!-- 1000 -->
      <defs>
       <path d="
M52.9375 0
L13.5781 0
L13.5781 7.42188
L28.7188 7.42188
L28.7188 56.1562
L13.5781 56.1562
L13.5781 62.7969
Q16.6562 62.7969 20.1719 63.2969
Q23.6875 63.8125 25.4844 64.7969
Q27.7344 66.0156 29.0312 67.8906
Q30.3281 69.7812 30.5156 72.9531
L38.0938 72.9531
L38.0938 7.42188
L52.9375 7.42188
z
" id="Verdana-31"/>
      </defs>
      <g transform="translate(147.2315625 401.918125)scale(0.12 -0.12)">
       <use xlink:href="#Verdana-31"/>
       <use x="63.57421875" xlink:href="#Verdana-30"/>
       <use x="127.1484375" xlink:href="#Verdana-30"/>
       <use x="190.72265625" xlink:href="#Verdana-30"/>
      </g>
     </g>
    </g>
    <g id="xtick_3">
     <g id="line2d_10">
      <g>
       <use style="stroke:#000000;stroke-width:0.5;" x="250.56" xlink:href="#mc7db9fdffb" y="388.8"/>
      </g>
     </g>
     <g id="line2d_11">
      <g>
       <use style="stroke:#000000;stroke-width:0.5;" x="250.56" xlink:href="#m5a7d422ac3" y="43.2"/>
      </g>
     </g>
     <g id="text_3">
      <!-- 2000 -->
      <defs>
       <path d="
M57.0781 0
L7.85938 0
L7.85938 10.2031
Q12.9844 14.5938 18.1406 18.9844
Q23.2969 23.3906 27.7344 27.7344
Q37.1094 36.8125 40.5781 42.1562
Q44.0469 47.5156 44.0469 53.7188
Q44.0469 59.375 40.3125 62.5625
Q36.5781 65.7656 29.8906 65.7656
Q25.4375 65.7656 20.2656 64.2031
Q15.0938 62.6406 10.1562 59.4219
L9.67188 59.4219
L9.67188 69.6719
Q13.1406 71.3906 18.9219 72.7969
Q24.7031 74.2188 30.125 74.2188
Q41.3125 74.2188 47.6562 68.8125
Q54 63.4219 54 54.2031
Q54 50.0469 52.9531 46.4531
Q51.9062 42.875 49.8594 39.6562
Q47.9531 36.625 45.3906 33.6875
Q42.8281 30.7656 39.1562 27.2031
Q33.9375 22.0781 28.3594 17.2656
Q22.7969 12.4531 17.9688 8.34375
L57.0781 8.34375
z
" id="Verdana-32"/>
      </defs>
      <g transform="translate(236.1684375 401.918125)scale(0.12 -0.12)">
       <use xlink:href="#Verdana-32"/>
       <use x="63.57421875" xlink:href="#Verdana-30"/>
       <use x="127.1484375" xlink:href="#Verdana-30"/>
       <use x="190.72265625" xlink:href="#Verdana-30"/>
      </g>
     </g>
    </g>
    <g id="xtick_4">
     <g id="line2d_12">
      <g>
       <use style="stroke:#000000;stroke-width:0.5;" x="339.84" xlink:href="#mc7db9fdffb" y="388.8"/>
      </g>
     </g>
     <g id="line2d_13">
      <g>
       <use style="stroke:#000000;stroke-width:0.5;" x="339.84" xlink:href="#m5a7d422ac3" y="43.2"/>
      </g>
     </g>
     <g id="text_4">
      <!-- 3000 -->
      <defs>
       <path d="
M50.6875 35.0156
Q53.0312 32.9062 54.5469 29.7344
Q56.0625 26.5625 56.0625 21.5312
Q56.0625 16.5469 54.25 12.3906
Q52.4375 8.25 49.1719 5.17188
Q45.5156 1.76562 40.5469 0.125
Q35.5938 -1.51562 29.6875 -1.51562
Q23.6406 -1.51562 17.7812 -0.0625
Q11.9219 1.375 8.15625 3.07812
L8.15625 13.2812
L8.89062 13.2812
Q13.0312 10.5469 18.6406 8.73438
Q24.2656 6.9375 29.5 6.9375
Q32.5625 6.9375 36.0312 7.95312
Q39.5 8.98438 41.6562 10.9844
Q43.8906 13.1406 44.9844 15.7188
Q46.0938 18.3125 46.0938 22.2656
Q46.0938 26.1719 44.8438 28.7344
Q43.6094 31.2969 41.4062 32.7656
Q39.2031 34.2812 36.0781 34.8438
Q32.9531 35.4062 29.3438 35.4062
L24.9531 35.4062
L24.9531 43.5
L28.375 43.5
Q35.7969 43.5 40.2031 46.5938
Q44.625 49.7031 44.625 55.6719
Q44.625 58.2969 43.5 60.2656
Q42.3906 62.25 40.375 63.5312
Q38.2812 64.7969 35.8906 65.2812
Q33.5 65.7656 30.4688 65.7656
Q25.8281 65.7656 20.5938 64.1094
Q15.375 62.4531 10.75 59.4219
L10.25 59.4219
L10.25 69.625
Q13.7188 71.3438 19.5 72.7812
Q25.2969 74.2188 30.7188 74.2188
Q36.0312 74.2188 40.0781 73.2344
Q44.1406 72.2656 47.4062 70.125
Q50.9219 67.7812 52.7344 64.4531
Q54.5469 61.1406 54.5469 56.6875
Q54.5469 50.6406 50.2656 46.125
Q46 41.6094 40.1875 40.4375
L40.1875 39.75
Q42.5312 39.3594 45.5469 38.1094
Q48.5781 36.8594 50.6875 35.0156" id="Verdana-33"/>
      </defs>
      <g transform="translate(325.46625 401.918125)scale(0.12 -0.12)">
       <use xlink:href="#Verdana-33"/>
       <use x="63.57421875" xlink:href="#Verdana-30"/>
       <use x="127.1484375" xlink:href="#Verdana-30"/>
       <use x="190.72265625" xlink:href="#Verdana-30"/>
      </g>
     </g>
    </g>
    <g id="xtick_5">
     <g id="line2d_14">
      <g>
       <use style="stroke:#000000;stroke-width:0.5;" x="429.12" xlink:href="#mc7db9fdffb" y="388.8"/>
      </g>
     </g>
     <g id="line2d_15">
      <g>
       <use style="stroke:#000000;stroke-width:0.5;" x="429.12" xlink:href="#m5a7d422ac3" y="43.2"/>
      </g>
     </g>
     <g id="text_5">
      <!-- 4000 -->
      <defs>
       <path d="
M58.7344 20.4531
L47.9531 20.4531
L47.9531 0
L38.5781 0
L38.5781 20.4531
L3.76562 20.4531
L3.76562 31.6875
L38.9688 72.7031
L47.9531 72.7031
L47.9531 28.2656
L58.7344 28.2656
z

M38.5781 28.2656
L38.5781 61.0781
L10.4062 28.2656
z
" id="Verdana-34"/>
      </defs>
      <g transform="translate(414.4828125 401.918125)scale(0.12 -0.12)">
       <use xlink:href="#Verdana-34"/>
       <use x="63.57421875" xlink:href="#Verdana-30"/>
       <use x="127.1484375" xlink:href="#Verdana-30"/>
       <use x="190.72265625" xlink:href="#Verdana-30"/>
      </g>
     </g>
    </g>
    <g id="xtick_6">
     <g id="line2d_16">
      <g>
       <use style="stroke:#000000;stroke-width:0.5;" x="518.4" xlink:href="#mc7db9fdffb" y="388.8"/>
      </g>
     </g>
     <g id="line2d_17">
      <g>
       <use style="stroke:#000000;stroke-width:0.5;" x="518.4" xlink:href="#m5a7d422ac3" y="43.2"/>
      </g>
     </g>
     <g id="text_6">
      <!-- 5000 -->
      <defs>
       <path d="
M56.5 23.0938
Q56.5 18.0156 54.6406 13.375
Q52.7812 8.73438 49.5625 5.5625
Q46.0469 2.15625 41.1875 0.3125
Q36.3281 -1.51562 29.9375 -1.51562
Q23.9688 -1.51562 18.4531 -0.265625
Q12.9375 0.984375 9.125 2.73438
L9.125 13.0312
L9.8125 13.0312
Q13.8125 10.5 19.1875 8.71875
Q24.5625 6.9375 29.7344 6.9375
Q33.2031 6.9375 36.4531 7.90625
Q39.7031 8.89062 42.2344 11.3281
Q44.3906 13.4219 45.4844 16.3438
Q46.5781 19.2812 46.5781 23.1406
Q46.5781 26.9062 45.2812 29.4844
Q44 32.0781 41.7031 33.6406
Q39.1562 35.5 35.5156 36.25
Q31.8906 37.0156 27.3906 37.0156
Q23.0938 37.0156 19.1094 36.4219
Q15.1406 35.8438 12.25 35.25
L12.25 72.7031
L56 72.7031
L56 64.1562
L21.6875 64.1562
L21.6875 44.8281
Q23.7812 45.0156 25.9688 45.1094
Q28.1719 45.2188 29.7812 45.2188
Q35.6875 45.2188 40.125 44.2188
Q44.5781 43.2188 48.2969 40.6719
Q52.2031 37.9844 54.3438 33.7344
Q56.5 29.5 56.5 23.0938" id="Verdana-35"/>
      </defs>
      <g transform="translate(504.084375 401.918125)scale(0.12 -0.12)">
       <use xlink:href="#Verdana-35"/>
       <use x="63.57421875" xlink:href="#Verdana-30"/>
       <use x="127.1484375" xlink:href="#Verdana-30"/>
       <use x="190.72265625" xlink:href="#Verdana-30"/>
      </g>
     </g>
    </g>
    <g id="text_7">
     <!-- Objective function exectuions -->
     <defs>
      <path d="
M63.9688 64.3594
Q68.4062 59.4688 70.7656 52.3906
Q73.1406 45.3125 73.1406 36.3281
Q73.1406 27.3438 70.7188 20.2344
Q68.3125 13.1406 63.9688 8.40625
Q59.4688 3.46875 53.3438 0.96875
Q47.2188 -1.51562 39.3594 -1.51562
Q31.6875 -1.51562 25.4062 1.01562
Q19.1406 3.5625 14.75 8.40625
Q10.3594 13.2344 7.98438 20.2656
Q5.60938 27.2969 5.60938 36.3281
Q5.60938 45.2188 7.95312 52.2656
Q10.2969 59.3281 14.7969 64.3594
Q19.0938 69.1406 25.4688 71.6719
Q31.8438 74.2188 39.3594 74.2188
Q47.1719 74.2188 53.3906 71.6562
Q59.625 69.0938 63.9688 64.3594
M63.0938 36.3281
Q63.0938 50.4844 56.7344 58.1719
Q50.3906 65.875 39.4062 65.875
Q28.3281 65.875 22 58.1719
Q15.6719 50.4844 15.6719 36.3281
Q15.6719 22.0156 22.1094 14.4219
Q28.5625 6.84375 39.4062 6.84375
Q50.25 6.84375 56.6719 14.4219
Q63.0938 22.0156 63.0938 36.3281" id="Verdana-4f"/>
      <path d="
M48 15.7188
Q48 8.25 41.8125 3.46875
Q35.6406 -1.3125 24.9531 -1.3125
Q18.8906 -1.3125 13.8438 0.125
Q8.79688 1.5625 5.375 3.26562
L5.375 13.5781
L5.85938 13.5781
Q10.2031 10.2969 15.5156 8.375
Q20.8438 6.45312 25.7344 6.45312
Q31.7812 6.45312 35.2031 8.40625
Q38.625 10.3594 38.625 14.5469
Q38.625 17.7812 36.7656 19.4375
Q34.9062 21.0938 29.6406 22.2656
Q27.6875 22.7031 24.5312 23.2812
Q21.3906 23.875 18.7969 24.5625
Q11.625 26.4688 8.60938 30.1562
Q5.60938 33.8438 5.60938 39.2031
Q5.60938 42.5781 7 45.5469
Q8.40625 48.5312 11.2344 50.875
Q13.9688 53.1719 18.1875 54.5156
Q22.4062 55.8594 27.6406 55.8594
Q32.5156 55.8594 37.5156 54.6562
Q42.5312 53.4688 45.8438 51.7656
L45.8438 41.9375
L45.3594 41.9375
Q41.8438 44.5312 36.8125 46.3125
Q31.7812 48.0938 26.9531 48.0938
Q21.9219 48.0938 18.4531 46.1562
Q14.9844 44.2344 14.9844 40.4375
Q14.9844 37.0625 17.0938 35.3594
Q19.1406 33.6406 23.7344 32.5625
Q26.2656 31.9844 29.4062 31.3906
Q32.5625 30.8125 34.6719 30.3281
Q41.0625 28.8594 44.5312 25.2969
Q48 21.6875 48 15.7188" id="Verdana-73"/>
      <path d="
M54.6875 26.3125
L14.5 26.3125
Q14.5 21.2969 16.0156 17.5469
Q17.5312 13.8125 20.1719 11.4219
Q22.7031 9.07812 26.1875 7.90625
Q29.6875 6.73438 33.8906 6.73438
Q39.4531 6.73438 45.0938 8.95312
Q50.7344 11.1875 53.125 13.3281
L53.6094 13.3281
L53.6094 3.32812
Q48.9688 1.375 44.1406 0.046875
Q39.3125 -1.26562 33.9844 -1.26562
Q20.4062 -1.26562 12.7812 6.07812
Q5.17188 13.4219 5.17188 26.9531
Q5.17188 40.3281 12.4688 48.1875
Q19.7812 56.0625 31.6875 56.0625
Q42.7188 56.0625 48.7031 49.6094
Q54.6875 43.1719 54.6875 31.2969
z

M45.75 33.3438
Q45.7031 40.5781 42.1094 44.5312
Q38.5312 48.4844 31.2031 48.4844
Q23.8281 48.4844 19.4531 44.1406
Q15.0938 39.7969 14.5 33.3438
z
" id="Verdana-65"/>
      <path d="
M56.2031 54.5469
L34.125 0
L24.9062 0
L2.98438 54.5469
L12.9375 54.5469
L29.8281 11.1406
L46.5781 54.5469
z
" id="Verdana-76"/>
      <path d="
M49.3594 3.42188
Q44.7812 1.21875 40.6562 0
Q36.5312 -1.21875 31.8906 -1.21875
Q25.9844 -1.21875 21.0469 0.515625
Q16.1094 2.25 12.5938 5.76562
Q9.03125 9.28125 7.07812 14.6406
Q5.125 20.0156 5.125 27.2031
Q5.125 40.5781 12.4688 48.1875
Q19.8281 55.8125 31.8906 55.8125
Q36.5781 55.8125 41.0938 54.4844
Q45.6094 53.1719 49.3594 51.2656
L49.3594 41.0625
L48.875 41.0625
Q44.6719 44.3438 40.2031 46.0938
Q35.75 47.8594 31.5 47.8594
Q23.6875 47.8594 19.1719 42.6094
Q14.6562 37.3594 14.6562 27.2031
Q14.6562 17.3281 19.0625 12.0312
Q23.4844 6.73438 31.5 6.73438
Q34.2812 6.73438 37.1562 7.46875
Q40.0469 8.20312 42.3281 9.375
Q44.3438 10.4062 46.0938 11.5469
Q47.8594 12.7031 48.875 13.5312
L49.3594 13.5312
z
" id="Verdana-63"/>
      <path d="
M57.0312 27.6875
Q57.0312 20.8438 55.0938 15.375
Q53.1719 9.90625 49.9062 6.20312
Q46.4375 2.34375 42.2812 0.40625
Q38.1406 -1.51562 33.1562 -1.51562
Q28.5156 -1.51562 25.0469 -0.40625
Q21.5781 0.6875 18.2188 2.54688
L17.625 0
L9.03125 0
L9.03125 75.9844
L18.2188 75.9844
L18.2188 48.8281
Q22.0781 52 26.4219 54.0312
Q30.7656 56.0625 36.1875 56.0625
Q45.8438 56.0625 51.4375 48.6406
Q57.0312 41.2188 57.0312 27.6875
M47.5625 27.4375
Q47.5625 37.2031 44.3281 42.25
Q41.1094 47.3125 33.9375 47.3125
Q29.9375 47.3125 25.8281 45.5781
Q21.7344 43.8438 18.2188 41.1094
L18.2188 9.85938
Q22.125 8.10938 24.9219 7.42188
Q27.7344 6.73438 31.2969 6.73438
Q38.9219 6.73438 43.2344 11.7344
Q47.5625 16.75 47.5625 27.4375" id="Verdana-62"/>
      <path d="
M26.0312 63.6719
L15.6719 63.6719
L15.6719 73.1875
L26.0312 73.1875
z

M25.4375 -1.3125
Q25.4375 -10.8906 20.5469 -15.7656
Q15.6719 -20.6562 7.46875 -20.6562
Q5.51562 -20.6562 2.3125 -20.2656
Q-0.875 -19.875 -3.03125 -19.2812
L-3.03125 -10.5469
L-2.54688 -10.5469
Q-1.17188 -11.0781 1.14062 -11.7656
Q3.46875 -12.4531 5.67188 -12.4531
Q9.1875 -12.4531 11.3281 -11.4688
Q13.4844 -10.5 14.5469 -8.54688
Q15.625 -6.59375 15.9375 -3.82812
Q16.2656 -1.07812 16.2656 2.875
L16.2656 46.8281
L4.89062 46.8281
L4.89062 54.5469
L25.4375 54.5469
z
" id="Verdana-6a"/>
      <path d="
M37.3594 0.484375
Q34.7656 -0.203125 31.7031 -0.640625
Q28.6562 -1.07812 26.2656 -1.07812
Q17.9219 -1.07812 13.5781 3.40625
Q9.23438 7.90625 9.23438 17.8281
L9.23438 46.8281
L3.03125 46.8281
L3.03125 54.5469
L9.23438 54.5469
L9.23438 70.2188
L18.4062 70.2188
L18.4062 54.5469
L37.3594 54.5469
L37.3594 46.8281
L18.4062 46.8281
L18.4062 21.9688
Q18.4062 17.6719 18.5938 15.25
Q18.7969 12.8438 19.9688 10.75
Q21.0469 8.79688 22.9219 7.89062
Q24.8125 6.98438 28.6562 6.98438
Q30.9062 6.98438 33.3438 7.64062
Q35.7969 8.29688 36.8594 8.73438
L37.3594 8.73438
z
" id="Verdana-74"/>
      <path d="
M18.8906 63.6719
L8.54688 63.6719
L8.54688 73.1875
L18.8906 73.1875
z

M18.3125 0
L9.125 0
L9.125 54.5469
L18.3125 54.5469
z
" id="Verdana-69"/>
      <path d="
M54.25 0
L45.0625 0
L45.0625 6.0625
Q40.4375 2.39062 36.1875 0.4375
Q31.9375 -1.51562 26.8125 -1.51562
Q18.2188 -1.51562 13.4219 3.73438
Q8.64062 8.98438 8.64062 19.1406
L8.64062 54.5469
L17.8281 54.5469
L17.8281 23.4844
Q17.8281 19.3438 18.2188 16.375
Q18.6094 13.4219 19.875 11.3281
Q21.1875 9.1875 23.2812 8.20312
Q25.3906 7.23438 29.3906 7.23438
Q32.9531 7.23438 37.1719 9.07812
Q41.4062 10.9375 45.0625 13.8125
L45.0625 54.5469
L54.25 54.5469
z
" id="Verdana-75"/>
      <path d="
M38.375 67.0938
L37.8906 67.0938
Q36.375 67.5312 33.9375 67.9844
Q31.5 68.4531 29.6406 68.4531
Q23.7344 68.4531 21.0625 65.8438
Q18.4062 63.2344 18.4062 56.3906
L18.4062 54.5469
L34.9688 54.5469
L34.9688 46.8281
L18.7031 46.8281
L18.7031 0
L9.51562 0
L9.51562 46.8281
L3.32812 46.8281
L3.32812 54.5469
L9.51562 54.5469
L9.51562 56.3438
Q9.51562 66.0625 14.3438 71.2656
Q19.1875 76.4688 28.3281 76.4688
Q31.3906 76.4688 33.8594 76.1719
Q36.3281 75.875 38.375 75.4844
z
" id="Verdana-66"/>
      <path id="Verdana-20"/>
      <path d="
M56.25 0
L44.6719 0
L29.2031 20.9531
L13.625 0
L2.9375 0
L24.2188 27.2031
L3.125 54.5469
L14.7031 54.5469
L30.0781 33.9375
L45.5156 54.5469
L56.25 54.5469
L34.8125 27.6875
z
" id="Verdana-78"/>
      <path d="
M54.6406 0
L45.4531 0
L45.4531 31.0625
Q45.4531 34.8125 45.0156 38.1094
Q44.5781 41.4062 43.4062 43.2656
Q42.1875 45.3125 39.8906 46.3125
Q37.5938 47.3125 33.9375 47.3125
Q30.1719 47.3125 26.0625 45.4531
Q21.9688 43.6094 18.2188 40.7188
L18.2188 0
L9.03125 0
L9.03125 54.5469
L18.2188 54.5469
L18.2188 48.4844
Q22.5156 52.0469 27.0938 54.0469
Q31.6875 56.0625 36.5312 56.0625
Q45.3594 56.0625 50 50.7344
Q54.6406 45.4062 54.6406 35.4062
z
" id="Verdana-6e"/>
      <path d="
M55.5156 27.25
Q55.5156 13.9219 48.6719 6.20312
Q41.8438 -1.51562 30.375 -1.51562
Q18.7969 -1.51562 11.9844 6.20312
Q5.17188 13.9219 5.17188 27.25
Q5.17188 40.5781 11.9844 48.3125
Q18.7969 56.0625 30.375 56.0625
Q41.8438 56.0625 48.6719 48.3125
Q55.5156 40.5781 55.5156 27.25
M46.0469 27.25
Q46.0469 37.8438 41.8906 42.9844
Q37.75 48.1406 30.375 48.1406
Q22.9062 48.1406 18.7812 42.9844
Q14.6562 37.8438 14.6562 27.25
Q14.6562 17 18.7969 11.6875
Q22.9531 6.39062 30.375 6.39062
Q37.7031 6.39062 41.875 11.6406
Q46.0469 16.8906 46.0469 27.25" id="Verdana-6f"/>
     </defs>
     <g transform="translate(206.5078125 418.509375)scale(0.12 -0.12)">
      <use xlink:href="#Verdana-4f"/>
      <use x="78.7109375" xlink:href="#Verdana-62"/>
      <use x="141.015625" xlink:href="#Verdana-6a"/>
      <use x="175.439453125" xlink:href="#Verdana-65"/>
      <use x="235.009765625" xlink:href="#Verdana-63"/>
      <use x="287.109375" xlink:href="#Verdana-74"/>
      <use x="326.513671875" xlink:href="#Verdana-69"/>
      <use x="353.955078125" xlink:href="#Verdana-76"/>
      <use x="412.259765625" xlink:href="#Verdana-65"/>
      <use x="471.830078125" xlink:href="#Verdana-20"/>
      <use x="506.986328125" xlink:href="#Verdana-66"/>
      <use x="542.142578125" xlink:href="#Verdana-75"/>
      <use x="605.423828125" xlink:href="#Verdana-6e"/>
      <use x="668.705078125" xlink:href="#Verdana-63"/>
      <use x="720.8046875" xlink:href="#Verdana-74"/>
      <use x="760.208984375" xlink:href="#Verdana-69"/>
      <use x="787.650390625" xlink:href="#Verdana-6f"/>
      <use x="848.34375" xlink:href="#Verdana-6e"/>
      <use x="911.625" xlink:href="#Verdana-20"/>
      <use x="946.78125" xlink:href="#Verdana-65"/>
      <use x="1006.3515625" xlink:href="#Verdana-78"/>
      <use x="1064.40625" xlink:href="#Verdana-65"/>
      <use x="1123.9765625" xlink:href="#Verdana-63"/>
      <use x="1176.076171875" xlink:href="#Verdana-74"/>
      <use x="1215.48046875" xlink:href="#Verdana-75"/>
      <use x="1278.76171875" xlink:href="#Verdana-69"/>
      <use x="1306.203125" xlink:href="#Verdana-6f"/>
      <use x="1366.896484375" xlink:href="#Verdana-6e"/>
      <use x="1430.177734375" xlink:href="#Verdana-73"/>
     </g>
    </g>
   </g>
   <g id="matplotlib.axis_2">
    <g id="ytick_1">
     <g id="line2d_18">
      <defs>
       <path d="
M0 0
L4 0" id="md7965d1ba0" style="stroke:#000000;stroke-width:0.5;"/>
      </defs>
      <g>
       <use style="stroke:#000000;stroke-width:0.5;" x="72.0" xlink:href="#md7965d1ba0" y="388.8"/>
      </g>
     </g>
     <g id="line2d_19">
      <defs>
       <path d="
M0 0
L-4 0" id="md9a1c1a7cd" style="stroke:#000000;stroke-width:0.5;"/>
      </defs>
      <g>
       <use style="stroke:#000000;stroke-width:0.5;" x="518.4" xlink:href="#md9a1c1a7cd" y="388.8"/>
      </g>
     </g>
     <g id="text_8">
      <!-- 0.0 -->
      <defs>
       <path d="
M24.0312 0
L12.3594 0
L12.3594 13.9219
L24.0312 13.9219
z
" id="Verdana-2e"/>
      </defs>
      <g transform="translate(49.97 392.1515625)scale(0.12 -0.12)">
       <use xlink:href="#Verdana-30"/>
       <use x="63.57421875" xlink:href="#Verdana-2e"/>
       <use x="99.951171875" xlink:href="#Verdana-30"/>
      </g>
     </g>
    </g>
    <g id="ytick_2">
     <g id="line2d_20">
      <g>
       <use style="stroke:#000000;stroke-width:0.5;" x="72.0" xlink:href="#md7965d1ba0" y="319.68"/>
      </g>
     </g>
     <g id="line2d_21">
      <g>
       <use style="stroke:#000000;stroke-width:0.5;" x="518.4" xlink:href="#md9a1c1a7cd" y="319.68"/>
      </g>
     </g>
     <g id="text_9">
      <!-- 0.2 -->
      <g transform="translate(49.95875 323.0315625)scale(0.12 -0.12)">
       <use xlink:href="#Verdana-30"/>
       <use x="63.57421875" xlink:href="#Verdana-2e"/>
       <use x="99.951171875" xlink:href="#Verdana-32"/>
      </g>
     </g>
    </g>
    <g id="ytick_3">
     <g id="line2d_22">
      <g>
       <use style="stroke:#000000;stroke-width:0.5;" x="72.0" xlink:href="#md7965d1ba0" y="250.56"/>
      </g>
     </g>
     <g id="line2d_23">
      <g>
       <use style="stroke:#000000;stroke-width:0.5;" x="518.4" xlink:href="#md9a1c1a7cd" y="250.56"/>
      </g>
     </g>
     <g id="text_10">
      <!-- 0.4 -->
      <g transform="translate(49.76 253.9115625)scale(0.12 -0.12)">
       <use xlink:href="#Verdana-30"/>
       <use x="63.57421875" xlink:href="#Verdana-2e"/>
       <use x="99.951171875" xlink:href="#Verdana-34"/>
      </g>
     </g>
    </g>
    <g id="ytick_4">
     <g id="line2d_24">
      <g>
       <use style="stroke:#000000;stroke-width:0.5;" x="72.0" xlink:href="#md7965d1ba0" y="181.44"/>
      </g>
     </g>
     <g id="line2d_25">
      <g>
       <use style="stroke:#000000;stroke-width:0.5;" x="518.4" xlink:href="#md9a1c1a7cd" y="181.44"/>
      </g>
     </g>
     <g id="text_11">
      <!-- 0.6 -->
      <defs>
       <path d="
M58.1562 23.5781
Q58.1562 12.5 50.8594 5.48438
Q43.5625 -1.51562 32.9531 -1.51562
Q27.5938 -1.51562 23.1875 0.140625
Q18.7969 1.8125 15.4375 5.07812
Q11.2344 9.125 8.95312 15.8125
Q6.6875 22.5156 6.6875 31.9375
Q6.6875 41.6094 8.76562 49.0781
Q10.8438 56.5469 15.375 62.3594
Q19.6719 67.875 26.4531 70.9688
Q33.25 74.0781 42.2812 74.0781
Q45.1719 74.0781 47.125 73.8281
Q49.0781 73.5781 51.0781 72.9531
L51.0781 63.625
L50.5938 63.625
Q49.2188 64.3594 46.4531 65.0156
Q43.7031 65.6719 40.8281 65.6719
Q30.3281 65.6719 24.0781 59.1094
Q17.8281 52.5469 16.7969 41.3594
Q20.9062 43.8438 24.875 45.1406
Q28.8594 46.4375 34.0781 46.4375
Q38.7188 46.4375 42.25 45.5781
Q45.7969 44.7344 49.5156 42.1406
Q53.8125 39.1562 55.9844 34.6094
Q58.1562 30.0781 58.1562 23.5781
M48.25 23.1875
Q48.25 27.7344 46.9062 30.7031
Q45.5625 33.6875 42.4844 35.8906
Q40.2344 37.4531 37.5 37.9375
Q34.7656 38.4219 31.7812 38.4219
Q27.6406 38.4219 24.0781 37.4375
Q20.5156 36.4688 16.75 34.4219
Q16.6562 33.3438 16.5938 32.3438
Q16.5469 31.3438 16.5469 29.8281
Q16.5469 22.125 18.1406 17.6562
Q19.7344 13.1875 22.5156 10.5938
Q24.75 8.45312 27.3594 7.45312
Q29.9844 6.45312 33.0625 6.45312
Q40.1406 6.45312 44.1875 10.7656
Q48.25 15.0938 48.25 23.1875" id="Verdana-36"/>
      </defs>
      <g transform="translate(49.829375 184.7915625)scale(0.12 -0.12)">
       <use xlink:href="#Verdana-30"/>
       <use x="63.57421875" xlink:href="#Verdana-2e"/>
       <use x="99.951171875" xlink:href="#Verdana-36"/>
      </g>
     </g>
    </g>
    <g id="ytick_5">
     <g id="line2d_26">
      <g>
       <use style="stroke:#000000;stroke-width:0.5;" x="72.0" xlink:href="#md7965d1ba0" y="112.32"/>
      </g>
     </g>
     <g id="line2d_27">
      <g>
       <use style="stroke:#000000;stroke-width:0.5;" x="518.4" xlink:href="#md9a1c1a7cd" y="112.32"/>
      </g>
     </g>
     <g id="text_12">
      <!-- 0.8 -->
      <defs>
       <path d="
M57.625 20.2656
Q57.625 10.8438 50.2656 4.59375
Q42.9219 -1.65625 31.7812 -1.65625
Q19.9688 -1.65625 12.9531 4.4375
Q5.95312 10.5469 5.95312 20.0625
Q5.95312 26.125 9.46875 31.0312
Q12.9844 35.9375 19.3906 38.8125
L19.3906 39.1094
Q13.5312 42.2344 10.7188 45.9375
Q7.90625 49.6562 7.90625 55.2188
Q7.90625 63.4219 14.6406 68.8906
Q21.3906 74.3594 31.7812 74.3594
Q42.6719 74.3594 49.1719 69.1406
Q55.6719 63.9219 55.6719 55.8594
Q55.6719 50.9219 52.5938 46.1562
Q49.5156 41.4062 43.5625 38.7188
L43.5625 38.4219
Q50.3906 35.5 54 31.2031
Q57.625 26.9062 57.625 20.2656
M46.0469 55.7656
Q46.0469 60.9844 42.0156 64.0781
Q37.9844 67.1875 31.7344 67.1875
Q25.5938 67.1875 21.6562 64.25
Q17.7188 61.3281 17.7188 56.3438
Q17.7188 52.8281 19.7031 50.2656
Q21.6875 47.7031 25.6875 45.7031
Q27.4844 44.8281 30.875 43.4062
Q34.2812 42 37.5 41.0625
Q42.3281 44.2812 44.1875 47.75
Q46.0469 51.2188 46.0469 55.7656
M47.5625 19.3438
Q47.5625 23.8281 45.5781 26.5312
Q43.6094 29.25 37.8438 31.9844
Q35.5469 33.0625 32.8125 33.9844
Q30.0781 34.9062 25.5312 36.5781
Q21.1406 34.1875 18.4844 30.0781
Q15.8281 25.9844 15.8281 20.7969
Q15.8281 14.2031 20.3594 9.90625
Q24.9062 5.60938 31.8906 5.60938
Q39.0156 5.60938 43.2812 9.26562
Q47.5625 12.9375 47.5625 19.3438" id="Verdana-38"/>
      </defs>
      <g transform="translate(49.893125 115.6715625)scale(0.12 -0.12)">
       <use xlink:href="#Verdana-30"/>
       <use x="63.57421875" xlink:href="#Verdana-2e"/>
       <use x="99.951171875" xlink:href="#Verdana-38"/>
      </g>
     </g>
    </g>
    <g id="ytick_6">
     <g id="line2d_28">
      <g>
       <use style="stroke:#000000;stroke-width:0.5;" x="72.0" xlink:href="#md7965d1ba0" y="43.2"/>
      </g>
     </g>
     <g id="line2d_29">
      <g>
       <use style="stroke:#000000;stroke-width:0.5;" x="518.4" xlink:href="#md9a1c1a7cd" y="43.2"/>
      </g>
     </g>
     <g id="text_13">
      <!-- 1.0 -->
      <g transform="translate(50.796875 46.5515625)scale(0.12 -0.12)">
       <use xlink:href="#Verdana-31"/>
       <use x="63.57421875" xlink:href="#Verdana-2e"/>
       <use x="99.951171875" xlink:href="#Verdana-30"/>
      </g>
     </g>
    </g>
    <g id="text_14">
     <!-- Data Profile T-0.0000100 -->
     <defs>
      <path d="
M18.3125 0
L9.125 0
L9.125 75.9844
L18.3125 75.9844
z
" id="Verdana-6c"/>
      <path d="
M43.0625 44.5312
L42.5781 44.5312
Q40.5312 45.0156 38.5938 45.2344
Q36.6719 45.4531 34.0312 45.4531
Q29.7812 45.4531 25.8281 43.5781
Q21.875 41.7031 18.2188 38.7188
L18.2188 0
L9.03125 0
L9.03125 54.5469
L18.2188 54.5469
L18.2188 46.4844
Q23.6875 50.875 27.8594 52.7031
Q32.0312 54.5469 36.375 54.5469
Q38.7656 54.5469 39.8438 54.4219
Q40.9219 54.2969 43.0625 53.9531
z
" id="Verdana-72"/>
      <path d="
M71.1875 36.2812
Q71.1875 26.375 66.8594 18.3125
Q62.5469 10.25 55.375 5.8125
Q50.3906 2.73438 44.2656 1.35938
Q38.1406 0 28.125 0
L9.76562 0
L9.76562 72.7031
L27.9375 72.7031
Q38.5781 72.7031 44.8438 71.1562
Q51.125 69.625 55.4688 66.9375
Q62.8906 62.3125 67.0312 54.5938
Q71.1875 46.875 71.1875 36.2812
M61.0781 36.4219
Q61.0781 44.9688 58.0938 50.8281
Q55.125 56.6875 49.2188 60.0625
Q44.9219 62.5 40.0781 63.4531
Q35.25 64.4062 28.5156 64.4062
L19.4375 64.4062
L19.4375 8.29688
L28.5156 8.29688
Q35.5 8.29688 40.7031 9.32812
Q45.9062 10.3594 50.25 13.1406
Q55.6719 16.6094 58.375 22.2656
Q61.0781 27.9375 61.0781 36.4219" id="Verdana-44"/>
      <path d="
M37.9375 27.3906
L7.46875 27.3906
L7.46875 36.2344
L37.9375 36.2344
z
" id="Verdana-2d"/>
      <path d="
M51.4219 0
L42.2812 0
L42.2812 5.8125
Q41.0625 4.98438 38.9844 3.48438
Q36.9219 2 34.9688 1.125
Q32.6719 0 29.6875 -0.75
Q26.7031 -1.51562 22.7031 -1.51562
Q15.3281 -1.51562 10.2031 3.35938
Q5.07812 8.25 5.07812 15.8281
Q5.07812 22.0156 7.73438 25.8438
Q10.4062 29.6875 15.3281 31.8906
Q20.3125 34.0781 27.2969 34.8594
Q34.2812 35.6406 42.2812 36.0312
L42.2812 37.4531
Q42.2812 40.5781 41.1875 42.625
Q40.0938 44.6719 38.0312 45.8438
Q36.0781 46.9688 33.3438 47.3594
Q30.6094 47.75 27.6406 47.75
Q24.0312 47.75 19.5781 46.7969
Q15.1406 45.8438 10.4062 44.0469
L9.90625 44.0469
L9.90625 53.375
Q12.5938 54.1094 17.6719 54.9844
Q22.75 55.8594 27.6875 55.8594
Q33.4531 55.8594 37.7188 54.9062
Q42 53.9531 45.125 51.6562
Q48.1875 49.4219 49.7969 45.8438
Q51.4219 42.2812 51.4219 37.0156
z

M42.2812 13.4219
L42.2812 28.6094
Q38.0938 28.375 32.3906 27.875
Q26.7031 27.3906 23.3906 26.4688
Q19.4375 25.3438 16.9844 22.9688
Q14.5469 20.6094 14.5469 16.4531
Q14.5469 11.7656 17.375 9.39062
Q20.2188 7.03125 26.0312 7.03125
Q30.8594 7.03125 34.8594 8.90625
Q38.875 10.7969 42.2812 13.4219" id="Verdana-61"/>
      <path d="
M57.3281 50.7344
Q57.3281 45.9062 55.6406 41.7656
Q53.9531 37.6406 50.9219 34.625
Q47.1719 30.8594 42.0469 28.9688
Q36.9219 27.0938 29.1094 27.0938
L19.4375 27.0938
L19.4375 0
L9.76562 0
L9.76562 72.7031
L29.5 72.7031
Q36.0312 72.7031 40.5781 71.6094
Q45.125 70.5156 48.6406 68.1719
Q52.7812 65.375 55.0469 61.2188
Q57.3281 57.0781 57.3281 50.7344
M47.2656 50.4844
Q47.2656 54.25 45.9375 57.0312
Q44.625 59.8125 41.9375 61.5781
Q39.5938 63.0938 36.5938 63.75
Q33.5938 64.4062 29 64.4062
L19.4375 64.4062
L19.4375 35.3594
L27.5938 35.3594
Q33.4531 35.3594 37.1094 36.4062
Q40.7656 37.4531 43.0625 39.75
Q45.3594 42.0938 46.3125 44.6719
Q47.2656 47.2656 47.2656 50.4844" id="Verdana-50"/>
      <path d="
M61.625 64.1094
L35.6406 64.1094
L35.6406 0
L25.9844 0
L25.9844 64.1094
L0 64.1094
L0 72.7031
L61.625 72.7031
z
" id="Verdana-54"/>
     </defs>
     <g transform="translate(42.345 291.493125)rotate(-90.0)scale(0.12 -0.12)">
      <use xlink:href="#Verdana-44"/>
      <use x="77.05078125" xlink:href="#Verdana-61"/>
      <use x="137.109375" xlink:href="#Verdana-74"/>
      <use x="176.513671875" xlink:href="#Verdana-61"/>
      <use x="236.572265625" xlink:href="#Verdana-20"/>
      <use x="271.728515625" xlink:href="#Verdana-50"/>
      <use x="332.03125" xlink:href="#Verdana-72"/>
      <use x="374.70703125" xlink:href="#Verdana-6f"/>
      <use x="435.400390625" xlink:href="#Verdana-66"/>
      <use x="470.556640625" xlink:href="#Verdana-69"/>
      <use x="497.998046875" xlink:href="#Verdana-6c"/>
      <use x="525.439453125" xlink:href="#Verdana-65"/>
      <use x="585.009765625" xlink:href="#Verdana-20"/>
      <use x="620.166015625" xlink:href="#Verdana-54"/>
      <use x="674.412109375" xlink:href="#Verdana-2d"/>
      <use x="719.822265625" xlink:href="#Verdana-30"/>
      <use x="783.396484375" xlink:href="#Verdana-2e"/>
      <use x="819.7734375" xlink:href="#Verdana-30"/>
      <use x="883.34765625" xlink:href="#Verdana-30"/>
      <use x="946.921875" xlink:href="#Verdana-30"/>
      <use x="1010.49609375" xlink:href="#Verdana-30"/>
      <use x="1074.0703125" xlink:href="#Verdana-31"/>
      <use x="1137.64453125" xlink:href="#Verdana-30"/>
      <use x="1201.21875" xlink:href="#Verdana-30"/>
     </g>
    </g>
   </g>
   <g id="patch_3">
    <path d="
M72 388.8
L72 43.2" style="fill:none;stroke:#000000;"/>
   </g>
   <g id="patch_4">
    <path d="
M518.4 388.8
L518.4 43.2" style="fill:none;stroke:#000000;"/>
   </g>
   <g id="patch_5">
    <path d="
M72 388.8
L518.4 388.8" style="fill:none;stroke:#000000;"/>
   </g>
   <g id="patch_6">
    <path d="
M72 43.2
L518.4 43.2" style="fill:none;stroke:#000000;"/>
   </g>
   <g id="text_15">
    <!-- Langermann Data Profile T-0.0000100 -->
    <defs>
     <path d="
M53.2656 6.20312
Q53.2656 -7.67188 46.9688 -14.1562
Q40.6719 -20.6562 27.5938 -20.6562
Q23.25 -20.6562 19.1094 -20.0469
Q14.9844 -19.4375 10.9844 -18.3125
L10.9844 -8.9375
L11.4688 -8.9375
Q13.7188 -9.8125 18.5938 -11.1094
Q23.4844 -12.4062 28.375 -12.4062
Q33.0625 -12.4062 36.125 -11.2812
Q39.2031 -10.1562 40.9219 -8.15625
Q42.625 -6.25 43.3594 -3.5625
Q44.0938 -0.875 44.0938 2.4375
L44.0938 7.42188
Q39.9375 4.10938 36.1562 2.46875
Q32.375 0.828125 26.5156 0.828125
Q16.75 0.828125 11.0156 7.875
Q5.28125 14.9375 5.28125 27.7812
Q5.28125 34.8125 7.25 39.9062
Q9.23438 45.0156 12.6406 48.7344
Q15.8281 52.2031 20.3594 54.125
Q24.9062 56.0625 29.3906 56.0625
Q34.125 56.0625 37.3281 55.1094
Q40.5312 54.1562 44.0938 52.2031
L44.6719 54.5469
L53.2656 54.5469
z

M44.0938 14.9844
L44.0938 44.7344
Q40.4375 46.3906 37.2812 47.0938
Q34.125 47.7969 31 47.7969
Q23.4375 47.7969 19.0938 42.7188
Q14.75 37.6406 14.75 27.9844
Q14.75 18.7969 17.9688 14.0625
Q21.1875 9.32812 28.6562 9.32812
Q32.6719 9.32812 36.6875 10.8594
Q40.7188 12.4062 44.0938 14.9844" id="Verdana-67"/>
     <path d="
M88.625 0
L79.4375 0
L79.4375 31.0625
Q79.4375 34.5781 79.125 37.8438
Q78.8125 41.1094 77.7812 43.0625
Q76.6562 45.1719 74.5625 46.2344
Q72.4688 47.3125 68.5 47.3125
Q64.6562 47.3125 60.7969 45.375
Q56.9375 43.4531 53.0781 40.4844
Q53.2188 39.3594 53.3125 37.8594
Q53.4219 36.375 53.4219 34.9062
L53.4219 0
L44.2344 0
L44.2344 31.0625
Q44.2344 34.6719 43.9219 37.9062
Q43.6094 41.1562 42.5781 43.1094
Q41.4531 45.2188 39.3438 46.2656
Q37.25 47.3125 33.2969 47.3125
Q29.5469 47.3125 25.75 45.4531
Q21.9688 43.6094 18.2188 40.7188
L18.2188 0
L9.03125 0
L9.03125 54.5469
L18.2188 54.5469
L18.2188 48.4844
Q22.5156 52.0469 26.7812 54.0469
Q31.0625 56.0625 35.8906 56.0625
Q41.4531 56.0625 45.3281 53.7188
Q49.2188 51.375 51.125 47.2188
Q56.6875 51.9062 61.2812 53.9844
Q65.875 56.0625 71.0938 56.0625
Q80.0781 56.0625 84.3438 50.6094
Q88.625 45.1719 88.625 35.4062
z
" id="Verdana-6d"/>
     <path d="
M55.7656 0
L9.76562 0
L9.76562 72.7031
L19.4375 72.7031
L19.4375 8.59375
L55.7656 8.59375
z
" id="Verdana-4c"/>
    </defs>
    <g transform="translate(156.89925 38.2)scale(0.144 -0.144)">
     <use xlink:href="#Verdana-4c"/>
     <use x="55.6640625" xlink:href="#Verdana-61"/>
     <use x="115.72265625" xlink:href="#Verdana-6e"/>
     <use x="179.00390625" xlink:href="#Verdana-67"/>
     <use x="241.30859375" xlink:href="#Verdana-65"/>
     <use x="300.87890625" xlink:href="#Verdana-72"/>
     <use x="343.5546875" xlink:href="#Verdana-6d"/>
     <use x="440.8203125" xlink:href="#Verdana-61"/>
     <use x="500.87890625" xlink:href="#Verdana-6e"/>
     <use x="564.16015625" xlink:href="#Verdana-6e"/>
     <use x="627.44140625" xlink:href="#Verdana-20"/>
     <use x="662.59765625" xlink:href="#Verdana-44"/>
     <use x="739.6484375" xlink:href="#Verdana-61"/>
     <use x="799.70703125" xlink:href="#Verdana-74"/>
     <use x="839.111328125" xlink:href="#Verdana-61"/>
     <use x="899.169921875" xlink:href="#Verdana-20"/>
     <use x="934.326171875" xlink:href="#Verdana-50"/>
     <use x="994.62890625" xlink:href="#Verdana-72"/>
     <use x="1037.3046875" xlink:href="#Verdana-6f"/>
     <use x="1097.998046875" xlink:href="#Verdana-66"/>
     <use x="1133.154296875" xlink:href="#Verdana-69"/>
     <use x="1160.595703125" xlink:href="#Verdana-6c"/>
     <use x="1188.037109375" xlink:href="#Verdana-65"/>
     <use x="1247.607421875" xlink:href="#Verdana-20"/>
     <use x="1282.763671875" xlink:href="#Verdana-54"/>
     <use x="1337.009765625" xlink:href="#Verdana-2d"/>
     <use x="1382.419921875" xlink:href="#Verdana-30"/>
     <use x="1445.994140625" xlink:href="#Verdana-2e"/>
     <use x="1482.37109375" xlink:href="#Verdana-30"/>
     <use x="1545.9453125" xlink:href="#Verdana-30"/>
     <use x="1609.51953125" xlink:href="#Verdana-30"/>
     <use x="1673.09375" xlink:href="#Verdana-30"/>
     <use x="1736.66796875" xlink:href="#Verdana-31"/>
     <use x="1800.2421875" xlink:href="#Verdana-30"/>
     <use x="1863.81640625" xlink:href="#Verdana-30"/>
    </g>
   </g>
   <g id="legend_1">
    <g id="patch_7">
     <path d="
M79.2 159.919
L183.22 159.919
L183.22 50.4
L79.2 50.4
L79.2 159.919
z
" style="fill:#ffffff;stroke:#000000;"/>
    </g>
    <g id="line2d_30">
     <path d="
M89.28 62.0617
L109.44 62.0617" style="fill:none;stroke:#0000ff;stroke-dasharray:6.000000,2.000000;stroke-dashoffset:0.0;"/>
    </g>
    <g id="line2d_31"/>
    <g id="text_16">
     <!-- AMPGO -->
     <defs>
      <path d="
M67.0938 0
L56.7812 0
L49.6562 20.2656
L18.2188 20.2656
L11.0781 0
L1.26562 0
L27.7344 72.7031
L40.625 72.7031
z

M46.6875 28.5625
L33.9375 64.2656
L21.1406 28.5625
z
" id="Verdana-41"/>
      <path d="
M70.4062 5.375
Q64.4531 2.64062 57.3906 0.609375
Q50.3438 -1.42188 43.75 -1.42188
Q35.25 -1.42188 28.1719 0.921875
Q21.0938 3.26562 16.1094 7.95312
Q11.0781 12.7031 8.34375 19.7969
Q5.60938 26.9062 5.60938 36.4219
Q5.60938 53.8594 15.7969 63.9375
Q25.9844 74.0312 43.75 74.0312
Q49.9531 74.0312 56.4219 72.5312
Q62.8906 71.0469 70.3594 67.4844
L70.3594 56
L69.4844 56
Q67.9688 57.1719 65.0781 59.0781
Q62.2031 60.9844 59.4219 62.25
Q56.0625 63.7656 51.7812 64.7656
Q47.5156 65.7656 42.0938 65.7656
Q29.8906 65.7656 22.7812 57.9219
Q15.6719 50.0938 15.6719 36.7188
Q15.6719 22.6094 23.0938 14.7656
Q30.5156 6.9375 43.3125 6.9375
Q48 6.9375 52.6562 7.85938
Q57.3281 8.79688 60.8438 10.25
L60.8438 28.0781
L41.3594 28.0781
L41.3594 36.5781
L70.4062 36.5781
z
" id="Verdana-47"/>
      <path d="
M74.5156 0
L64.8438 0
L64.8438 62.6406
L44.625 20.0156
L38.875 20.0156
L18.7969 62.6406
L18.7969 0
L9.76562 0
L9.76562 72.7031
L22.9531 72.7031
L42.3281 32.2344
L61.0781 72.7031
L74.5156 72.7031
z
" id="Verdana-4d"/>
     </defs>
     <g transform="translate(125.28 67.10175)scale(0.144 -0.144)">
      <use xlink:href="#Verdana-41"/>
      <use x="68.359375" xlink:href="#Verdana-4d"/>
      <use x="152.63671875" xlink:href="#Verdana-50"/>
      <use x="212.939453125" xlink:href="#Verdana-47"/>
      <use x="290.478515625" xlink:href="#Verdana-4f"/>
     </g>
    </g>
    <g id="line2d_32">
     <path d="
M89.28 83.1015
L109.44 83.1015" style="fill:none;stroke:#008000;stroke-dasharray:1.000000,1.000000;stroke-dashoffset:0.0;"/>
    </g>
    <g id="line2d_33"/>
    <g id="text_17">
     <!-- Anneal -->
     <g transform="translate(125.28 88.1415)scale(0.144 -0.144)">
      <use xlink:href="#Verdana-41"/>
      <use x="68.359375" xlink:href="#Verdana-6e"/>
      <use x="131.640625" xlink:href="#Verdana-6e"/>
      <use x="194.921875" xlink:href="#Verdana-65"/>
      <use x="254.4921875" xlink:href="#Verdana-61"/>
      <use x="314.55078125" xlink:href="#Verdana-6c"/>
     </g>
    </g>
    <g id="line2d_34">
     <path d="
M89.28 104.141
L109.44 104.141" style="fill:none;stroke:#ff0000;stroke-dasharray:3.000000,6.000000;stroke-dashoffset:0.0;"/>
    </g>
    <g id="line2d_35"/>
    <g id="text_18">
     <!-- BSA -->
     <defs>
      <path d="
M62.5938 20.75
Q62.5938 16.5 60.6094 12.3438
Q58.6406 8.20312 55.0781 5.32812
Q51.1719 2.20312 45.9688 0.4375
Q40.7656 -1.3125 33.4531 -1.3125
Q25.5938 -1.3125 19.3125 0.140625
Q13.0312 1.60938 6.54688 4.5
L6.54688 16.6094
L7.23438 16.6094
Q12.75 12.0156 19.9688 9.51562
Q27.2031 7.03125 33.5469 7.03125
Q42.5312 7.03125 47.5312 10.3906
Q52.5469 13.7656 52.5469 19.3906
Q52.5469 24.2188 50.1719 26.5156
Q47.7969 28.8125 42.9688 30.0781
Q39.3125 31.0625 35.0312 31.6875
Q30.7656 32.3281 25.9844 33.2969
Q16.3125 35.3594 11.6406 40.3125
Q6.98438 45.2656 6.98438 53.2188
Q6.98438 62.3594 14.6875 68.1875
Q22.4062 74.0312 34.2812 74.0312
Q41.9375 74.0312 48.3281 72.5625
Q54.7344 71.0938 59.6719 68.9531
L59.6719 57.5156
L58.9844 57.5156
Q54.8281 61.0312 48.0625 63.3438
Q41.3125 65.6719 34.2344 65.6719
Q26.4688 65.6719 21.75 62.4531
Q17.0469 59.2344 17.0469 54.1562
Q17.0469 49.6094 19.3906 47.0156
Q21.7344 44.4375 27.6406 43.0625
Q30.7656 42.3906 36.5156 41.4062
Q42.2812 40.4375 46.2969 39.4062
Q54.3906 37.25 58.4844 32.9062
Q62.5938 28.5625 62.5938 20.75" id="Verdana-53"/>
      <path d="
M64.5938 22.3594
Q64.5938 16.9375 62.5469 12.7812
Q60.5 8.64062 57.0312 5.95312
Q52.9375 2.73438 48.0156 1.35938
Q43.1094 0 35.5469 0
L9.76562 0
L9.76562 72.7031
L31.2969 72.7031
Q39.2656 72.7031 43.2188 72.1094
Q47.1719 71.5312 50.7812 69.6719
Q54.7812 67.5781 56.5938 64.2812
Q58.4062 60.9844 58.4062 56.3906
Q58.4062 51.2188 55.7656 47.5781
Q53.125 43.9531 48.7344 41.75
L48.7344 41.3594
Q56.1094 39.8438 60.3438 34.8906
Q64.5938 29.9375 64.5938 22.3594
M48.3438 55.125
Q48.3438 57.7656 47.4531 59.5625
Q46.5781 61.375 44.625 62.5
Q42.3281 63.8125 39.0625 64.125
Q35.7969 64.4531 30.9531 64.4531
L19.4375 64.4531
L19.4375 43.4531
L31.9375 43.4531
Q36.4688 43.4531 39.1562 43.9219
Q41.8438 44.3906 44.1406 45.8438
Q46.4375 47.3125 47.3906 49.625
Q48.3438 51.9531 48.3438 55.125
M54.5469 21.9688
Q54.5469 26.375 53.2188 28.9531
Q51.9062 31.5469 48.4375 33.3438
Q46.0938 34.5781 42.75 34.9375
Q39.4062 35.2969 34.625 35.2969
L19.4375 35.2969
L19.4375 8.25
L32.2344 8.25
Q38.5781 8.25 42.625 8.90625
Q46.6875 9.57812 49.2656 11.3281
Q52 13.2344 53.2656 15.6719
Q54.5469 18.1094 54.5469 21.9688" id="Verdana-42"/>
     </defs>
     <g transform="translate(125.28 109.18125)scale(0.144 -0.144)">
      <use xlink:href="#Verdana-42"/>
      <use x="68.5546875" xlink:href="#Verdana-53"/>
      <use x="135.9140625" xlink:href="#Verdana-41"/>
     </g>
    </g>
    <g id="line2d_36">
     <path d="
M89.28 125.181
L109.44 125.181" style="fill:none;stroke:#00bfbf;stroke-dasharray:5.000000,1.000000,2.000000,1.000000,5.000000,1.000000;stroke-dashoffset:0.0;"/>
    </g>
    <g id="line2d_37"/>
    <g id="text_19">
     <!-- Cuckoo -->
     <defs>
      <path d="
M58.5469 0
L46.4375 0
L24.5625 23.875
L18.6094 18.2188
L18.6094 0
L9.42188 0
L9.42188 75.9844
L18.6094 75.9844
L18.6094 27.25
L45.125 54.5469
L56.6875 54.5469
L31.3438 29.3438
z
" id="Verdana-6b"/>
      <path d="
M65.9219 5.28125
Q63.2344 4.10938 61.0625 3.07812
Q58.8906 2.04688 55.375 0.921875
Q52.3906 0 48.8906 -0.65625
Q45.4062 -1.3125 41.2188 -1.3125
Q33.2969 -1.3125 26.8281 0.90625
Q20.3594 3.125 15.5781 7.85938
Q10.8906 12.5 8.25 19.6562
Q5.60938 26.8125 5.60938 36.2812
Q5.60938 45.2656 8.14062 52.3438
Q10.6875 59.4219 15.4844 64.3125
Q20.125 69.0469 26.6875 71.5312
Q33.25 74.0312 41.2656 74.0312
Q47.125 74.0312 52.9531 72.6094
Q58.7969 71.1875 65.9219 67.625
L65.9219 56.1562
L65.1875 56.1562
Q59.1875 61.1875 53.2656 63.4688
Q47.3594 65.7656 40.625 65.7656
Q35.1094 65.7656 30.6875 63.9844
Q26.2656 62.2031 22.7969 58.4531
Q19.4375 54.7812 17.5469 49.1875
Q15.6719 43.6094 15.6719 36.2812
Q15.6719 28.6094 17.75 23.0938
Q19.8281 17.5781 23.0938 14.1094
Q26.5156 10.5 31.0781 8.76562
Q35.6406 7.03125 40.7188 7.03125
Q47.7031 7.03125 53.7969 9.42188
Q59.9062 11.8125 65.2344 16.6094
L65.9219 16.6094
z
" id="Verdana-43"/>
     </defs>
     <g transform="translate(125.28 130.221)scale(0.144 -0.144)">
      <use xlink:href="#Verdana-43"/>
      <use x="69.82421875" xlink:href="#Verdana-75"/>
      <use x="133.10546875" xlink:href="#Verdana-63"/>
      <use x="185.205078125" xlink:href="#Verdana-6b"/>
      <use x="243.384765625" xlink:href="#Verdana-6f"/>
      <use x="304.078125" xlink:href="#Verdana-6f"/>
     </g>
    </g>
    <g id="line2d_38">
     <path d="
M89.28 146.221
L109.44 146.221" style="fill:none;stroke:#bf00bf;stroke-linecap:square;"/>
    </g>
    <g id="line2d_39"/>
    <g id="text_20">
     <!-- qABC -->
     <defs>
      <path d="
M53.2656 -20.125
L44.0938 -20.125
L44.0938 6.15625
Q39.8438 2.48438 35.6406 0.703125
Q31.4531 -1.07812 26.5625 -1.07812
Q16.8438 -1.07812 11.0625 6.42188
Q5.28125 13.9219 5.28125 27.0938
Q5.28125 34.125 7.29688 39.5156
Q9.32812 44.9219 12.6406 48.5781
Q15.875 52.1562 20.2188 54.1094
Q24.5625 56.0625 29.3906 56.0625
Q33.7969 56.0625 37.1875 55.0781
Q40.5781 54.1094 44.0938 52.2031
L44.6719 54.5469
L53.2656 54.5469
z

M44.0938 13.875
L44.0938 44.7344
Q40.2812 46.4375 37.3438 47.1094
Q34.4219 47.7969 31 47.7969
Q23.0469 47.7969 18.8906 42.4062
Q14.75 37.0156 14.75 27.5469
Q14.75 17.9688 18.0938 12.8125
Q21.4375 7.67188 28.6094 7.67188
Q32.625 7.67188 36.625 9.40625
Q40.625 11.1406 44.0938 13.875" id="Verdana-71"/>
     </defs>
     <g transform="translate(125.28 151.26075)scale(0.144 -0.144)">
      <use xlink:href="#Verdana-71"/>
      <use x="62.3046875" xlink:href="#Verdana-41"/>
      <use x="130.6640625" xlink:href="#Verdana-42"/>
      <use x="199.21875" xlink:href="#Verdana-43"/>
     </g>
    </g>
   </g>
  </g>
 </g>
 <defs>
  <clipPath id="p7ff5b81e1d">
   <rect height="345.6" width="446.4" x="72.0" y="43.2"/>
  </clipPath>
 </defs>
</svg>
