<?xml version="1.0" encoding="utf-8" standalone="no"?>
<!DOCTYPE svg PUBLIC "-//W3C//DTD SVG 1.1//EN"
  "http://www.w3.org/Graphics/SVG/1.1/DTD/svg11.dtd">
<!-- Created with matplotlib (http://matplotlib.org/) -->
<svg height="432pt" version="1.1" viewBox="0 0 576 432" width="576pt" xmlns="http://www.w3.org/2000/svg" xmlns:xlink="http://www.w3.org/1999/xlink">
 <defs>
  <style type="text/css">
*{stroke-linecap:butt;stroke-linejoin:round;}
  </style>
 </defs>
 <g id="figure_1">
  <g id="patch_1">
   <path d="
M0 432
L576 432
L576 0
L0 0
z
" style="fill:#ffffff;"/>
  </g>
  <g id="axes_1">
   <g id="patch_2">
    <path d="
M72 388.8
L518.4 388.8
L518.4 43.2
L72 43.2
z
" style="fill:#ffffff;"/>
   </g>
   <g id="line2d_1">
    <path clip-path="url(#p7ff5b81e1d)" d="
M72 93.5543
L72.3571 93.5543
L72.5357 111.234
L72.7142 111.234
L72.8928 119.381
L73.0714 119.381
L73.2499 126.55
L73.4285 126.55
L73.607 132.015
L73.7856 132.015
L73.9642 135.744
L74.1427 135.744
L74.3213 137.604
L74.4998 137.604
L74.6784 138.954
L74.857 138.954
L75.0355 140.006
L75.2141 140.007
L75.3926 140.781
L75.5712 140.824
L75.7498 141.612
L75.9283 141.613
L76.1069 142.324
L76.2854 142.351
L76.464 143.041
L76.6426 143.045
L76.8211 143.87
L76.9997 143.91
L77.1782 144.615
L77.3568 144.615
L77.5354 145.272
L77.7139 145.316
L77.9818 146.418
L78.071 146.421
L78.3389 147.334
L78.4282 147.367
L78.6067 147.942
L78.7853 147.955
L79.0531 148.78
L79.1424 148.792
L79.4102 149.439
L79.4995 149.458
L79.7674 150.015
L79.8566 150.015
L80.1245 150.64
L80.2138 150.663
L81.2851 152.237
L81.3744 152.256
L81.6422 152.793
L81.8208 153.037
L81.9994 153.336
L82.1779 153.491
L82.3565 153.671
L82.535 153.814
L82.7136 154.09
L82.8922 154.18
L83.16 154.587
L83.5171 154.917
L84.5885 156.023
L84.6778 156.057
L85.0349 156.597
L85.392 156.895
L85.9277 157.525
L86.1955 157.679
L86.4634 158.066
L86.6419 158.194
L87.3562 158.69
L87.5347 158.959
L88.4275 159.593
L92.2666 162.742
L92.4451 162.862
L94.8557 164.801
L95.1235 164.966
L95.3914 165.285
L95.6592 165.522
L96.3734 166.113
L97.177 166.56
L97.4448 166.834
L97.6234 166.925
L98.2483 167.486
L99.1411 168.078
L99.5875 168.468
L100.123 168.857
L100.48 169.022
L100.837 169.192
L102.087 170.047
L106.908 173.516
L107.355 173.954
L108.337 174.509
L108.605 174.882
L108.873 175.04
L109.23 175.248
L109.408 175.338
L109.676 175.609
L109.855 175.672
L110.123 175.941
L111.551 176.793
L111.997 177.187
L112.444 177.358
L112.712 177.445
L112.98 177.636
L113.426 177.786
L113.872 177.941
L115.033 178.673
L115.212 178.773
L116.194 179.328
L116.551 179.417
L117.801 180.044
L117.979 180.163
L120.211 181.24
L121.64 182.196
L122.175 182.416
L122.532 182.757
L125.747 184.082
L126.104 184.331
L126.372 184.402
L126.639 184.743
L127.532 185.116
L127.711 185.248
L128.157 185.448
L128.425 185.586
L128.782 185.685
L129.318 185.993
L129.675 186.192
L130.121 186.34
L130.568 186.686
L130.925 186.834
L131.193 186.949
L131.639 187.061
L131.907 187.183
L132.085 187.302
L132.621 187.502
L132.978 187.61
L133.514 187.888
L133.871 188.014
L134.317 188.298
L134.942 188.634
L135.21 188.815
L136.014 189.052
L136.371 189.459
L136.46 189.473
L136.639 189.66
L137.532 189.937
L137.71 190.069
L138.156 190.282
L138.335 190.453
L138.692 190.729
L139.674 191.159
L139.942 191.337
L140.835 191.698
L141.013 191.774
L141.281 191.92
L141.728 192.155
L142.442 192.724
L142.888 192.972
L143.335 193.294
L147.799 195.278
L148.067 195.477
L150.031 196.39
L150.745 196.519
L152.173 197.155
L152.441 197.292
L152.977 197.527
L155.388 198.428
L155.834 198.595
L157.441 199.047
L158.78 199.503
L159.048 199.721
L159.673 199.795
L159.941 199.92
L162.351 200.582
L163.155 200.724
L165.565 201.726
L165.833 201.881
L167.083 202.16
L167.797 202.451
L168.512 202.62
L168.958 202.805
L169.672 203.064
L170.119 203.177
L171.369 203.55
L172.351 203.956
L172.797 204.128
L173.065 204.207
L173.422 204.458
L173.69 204.549
L173.868 204.664
L179.404 206.673
L179.761 206.757
L180.564 207.018
L181.1 207.117
L181.368 207.196
L181.547 207.273
L182.439 207.581
L182.886 207.662
L183.421 207.861
L184.314 208.146
L184.582 208.228
L185.028 208.329
L187.618 209.13
L187.975 209.216
L190.475 210.121
L191.814 210.418
L192.171 210.629
L192.439 210.769
L192.974 210.936
L193.242 211.082
L194.046 211.285
L194.849 211.771
L196.635 212.403
L197.438 212.7
L198.153 212.948
L198.51 213.033
L198.867 213.088
L199.76 213.376
L200.117 213.477
L201.545 213.823
L201.813 213.877
L202.17 213.969
L202.438 214.112
L202.706 214.166
L203.42 214.692
L204.045 214.855
L204.402 214.939
L204.581 215.064
L204.938 215.163
L205.741 215.346
L206.188 215.502
L206.456 215.562
L207.081 215.678
L209.134 216.349
L209.313 216.483
L210.652 216.809
L212.17 217.068
L212.705 217.176
L213.062 217.228
L213.42 217.307
L214.044 217.477
L214.491 217.554
L214.848 217.703
L215.741 217.791
L216.098 217.908
L217.169 218.169
L218.508 218.582
L228.508 220.694
L228.954 220.83
L232.258 221.576
L232.615 221.714
L232.883 221.729
L233.15 221.884
L233.597 221.961
L235.025 222.101
L235.74 222.189
L236.811 222.341
L237.168 222.585
L237.704 222.685
L239.489 222.997
L239.846 223.229
L241.543 223.413
L243.953 223.896
L244.668 224.008
L245.382 224.274
L246.007 224.357
L246.185 224.436
L246.632 224.547
L246.9 224.694
L247.257 224.764
L247.703 224.879
L248.06 225.002
L248.328 225.075
L249.31 225.203
L249.756 225.321
L253.149 225.839
L253.506 225.941
L254.22 226.164
L256.006 226.438
L257.524 226.787
L257.881 226.904
L258.863 227.091
L259.577 227.207
L260.559 227.312
L260.827 227.364
L261.809 227.456
L262.166 227.59
L263.148 227.74
L263.416 227.822
L266.809 228.479
L267.434 228.564
L267.88 228.797
L268.595 228.907
L270.291 229.058
L270.559 229.206
L276.094 230.091
L276.273 230.178
L277.79 230.279
L278.594 230.386
L280.201 230.647
L280.469 230.796
L281.54 230.953
L282.165 231.056
L282.79 231.168
L283.504 231.31
L283.861 231.41
L288.147 231.943
L288.683 232.032
L289.308 232.157
L289.575 232.227
L291.45 232.517
L291.718 232.637
L293.057 232.791
L293.682 232.971
L295.2 233.143
L297.343 233.253
L299.128 233.428
L299.843 233.511
L300.021 233.613
L301.539 233.872
L301.717 233.958
L302.521 234.068
L305.199 234.459
L305.646 234.604
L307.431 234.926
L307.878 235.113
L309.217 235.222
L312.431 235.609
L312.967 235.719
L315.556 235.985
L315.913 236.054
L316.984 236.196
L317.163 236.274
L317.877 236.397
L318.413 236.473
L319.395 236.58
L323.68 237.198
L325.287 237.307
L326.18 237.468
L326.448 237.551
L328.144 237.68
L333.59 238.377
L334.84 238.466
L335.197 238.551
L344.572 239.832
L345.286 239.929
L346.179 240.171
L347.34 240.27
L347.875 240.385
L348.5 240.455
L348.768 240.531
L349.482 240.642
L352.696 240.959
L355.107 241.066
L355.821 241.167
L356.982 241.278
L357.428 241.317
L358.232 241.423
L362.696 241.836
L363.856 241.969
L364.035 242.047
L366.088 242.158
L373.409 243.202
L373.677 243.282
L374.748 243.431
L377.963 243.758
L379.48 243.869
L379.837 243.906
L380.998 244.004
L381.355 244.072
L382.248 244.17
L382.605 244.252
L383.498 244.314
L383.855 244.411
L384.212 244.464
L385.908 244.563
L392.426 245.365
L393.854 245.462
L394.301 245.499
L395.194 245.554
L395.461 245.613
L397.426 245.708
L397.693 245.813
L400.015 246.09
L400.461 246.183
L402.068 246.277
L402.425 246.342
L404.032 246.45
L418.406 247.634
L418.764 247.666
L421.799 247.772
L427.424 248.246
L427.959 248.293
L429.924 248.397
L430.37 248.469
L436.084 248.963
L436.441 249.031
L437.602 249.125
L437.959 249.162
L439.298 249.221
L439.566 249.3
L439.923 249.392
L444.744 249.847
L445.726 249.971
L446.887 250.053
L447.244 250.12
L448.762 250.229
L449.565 250.325
L451.261 250.436
L451.797 250.468
L453.226 250.554
L453.761 250.601
L455.011 250.661
L455.368 250.799
L455.993 250.867
L456.261 250.949
L458.94 251.054
L459.297 251.118
L461.172 251.214
L462.064 251.282
L463.85 251.392
L466.618 251.607
L472.956 252.376
L473.76 252.449
L474.117 252.507
L477.063 252.612
L477.331 252.656
L478.938 252.735
L479.385 252.827
L480.813 252.929
L482.063 253.04
L483.402 253.172
L484.652 253.228
L487.509 253.323
L487.866 253.36
L488.58 253.406
L488.759 253.5
L489.92 253.6
L490.812 253.646
L491.705 253.756
L492.33 253.853
L493.223 253.905
L493.491 253.973
L494.919 254.056
L495.366 254.093
L497.062 254.196
L497.598 254.274
L500.187 254.363
L500.544 254.402
L502.597 254.499
L503.49 254.727
L508.044 255.053
L509.026 255.155
L509.293 255.21
L511.168 255.301
L511.525 255.335
L512.15 255.455
L514.204 255.581
L515.989 255.679
L516.347 255.749
L517.864 255.852
L518.311 255.899
L518.311 255.899" style="fill:none;stroke:#0000ff;stroke-dasharray:6.000000,2.000000;stroke-dashoffset:0.0;"/>
   </g>
   <g id="line2d_2">
    <path clip-path="url(#p7ff5b81e1d)" d="
M72 91.9891
L72.0893 110.734
L72.1786 117.935
L72.7142 142.804
L73.7856 173.647
L74.3213 184.716
L75.1248 198.074
L76.0176 208.558
L76.1962 210.128
L76.5533 213.236
L76.8211 215.032
L77.8925 222.044
L78.5174 224.47
L79.7674 228.615
L80.3923 230.112
L80.6602 230.677
L81.1066 231.967
L81.6422 233.017
L82.6243 234.789
L82.8922 235.168
L83.2493 235.68
L85.6598 238.929
L85.9277 239.258
L86.4634 239.732
L89.9453 242.167
L91.463 242.895
L92.1773 243.116
L92.5344 243.302
L94.4093 243.887
L94.5878 244.014
L95.2128 244.161
L95.4806 244.278
L96.1056 244.431
L97.3555 244.695
L98.8733 245.226
L99.7661 245.439
L100.123 245.583
L100.659 245.666
L101.016 245.776
L101.998 246.01
L102.266 246.127
L105.212 246.695
L106.641 246.805
L107.266 246.95
L111.372 247.497
L113.158 247.721
L115.122 247.872
L119.408 248.523
L133.603 249.424
L133.871 249.495
L135.567 249.623
L135.924 249.661
L138.156 249.81
L138.424 249.89
L141.103 249.983
L141.371 250.047
L143.87 250.178
L146.995 250.269
L153.691 250.396
L154.138 250.427
L156.816 250.518
L157.352 250.577
L161.101 250.687
L162.976 250.792
L169.226 250.902
L181.189 251.164
L189.314 251.272
L190.207 251.294
L193.689 251.4
L194.671 251.435
L204.402 251.59
L204.67 251.665
L213.241 251.772
L216.098 251.819
L222.258 251.932
L242.793 252.177
L257.524 252.32
L259.577 252.341
L372.516 253.152
L423.317 253.263
L445.28 253.437
L509.918 253.54
L511.168 253.556
L518.311 253.589
L518.311 253.589" style="fill:none;stroke:#008000;stroke-dasharray:1.000000,1.000000;stroke-dashoffset:0.0;"/>
   </g>
   <g id="line2d_3">
    <path clip-path="url(#p7ff5b81e1d)" d="
M72 93.6883
L72.0893 117.248
L72.2678 135.992
L72.8035 171.635
L73.8749 205.723
L75.3926 222.236
L75.9283 226.46
L76.2854 228.771
L76.464 230.091
L77.8925 239.585
L77.9818 239.742
L78.1603 241.751
L78.3389 242.501
L78.6067 243.364
L78.696 243.551
L79.0531 245.431
L79.1424 245.477
L79.6781 248.645
L79.9459 249.239
L80.1245 250.526
L80.2138 250.638
L80.5709 252.678
L80.7494 253.108
L80.928 253.57
L82.1779 257.684
L82.2672 258.113
L82.4458 259.551
L82.8029 260.522
L82.9814 261.6
L83.16 261.93
L83.6064 263.475
L83.785 263.985
L84.0528 265.288
L84.1421 265.337
L84.6778 266.847
L85.3027 268.982
L85.392 269.084
L85.7491 270.084
L85.9277 270.16
L86.3741 271.589
L86.7312 272.542
L86.8205 272.546
L86.999 273.26
L87.1776 273.417
L87.4454 273.745
L87.9811 274.778
L88.5168 276.589
L88.6954 276.722
L89.1418 277.614
L90.2131 281.082
L90.3917 281.34
L90.6595 282.234
L90.8381 282.441
L90.9274 282.455
L91.1059 283.018
L91.3738 283.454
L91.6416 284.471
L91.7309 284.523
L92.1773 285.607
L92.3558 286.601
L92.9808 288.337
L93.0701 288.379
L94.1414 291.03
L94.5878 291.934
L94.7664 291.95
L94.945 292.383
L95.7485 293.758
L95.927 294.483
L96.0163 294.483
L96.1949 294.715
L96.2842 294.794
L96.7306 295.878
L96.9984 296.243
L97.2662 297.048
L97.5341 297.443
L98.0698 298.882
L98.159 298.903
L98.5162 299.398
L98.784 300.418
L99.0518 300.609
L99.2304 300.708
L100.034 301.653
L100.123 301.684
L100.212 302.035
L100.391 302.947
L100.57 303.352
L100.659 303.397
L100.927 304.119
L101.105 304.211
L102.891 306.572
L103.427 307.1
L103.605 307.284
L103.694 307.298
L103.873 307.599
L104.052 308.033
L104.766 309
L104.944 309.329
L105.837 309.915
L106.105 310.404
L106.194 310.404
L106.462 310.564
L106.73 310.602
L106.998 310.929
L107.891 310.991
L108.158 311.518
L108.337 311.532
L108.605 311.758
L108.873 311.839
L109.051 312.069
L110.39 313.348
L110.658 313.616
L110.748 313.628
L110.926 313.816
L111.105 314.461
L111.194 314.52
L111.372 314.75
L111.551 314.768
L113.158 317.373
L113.337 317.611
L113.515 317.785
L113.604 317.792
L113.962 318.424
L114.229 318.576
L114.497 318.863
L115.212 319.58
L115.926 320.649
L116.015 320.662
L116.372 321.202
L116.64 321.343
L116.819 321.528
L117.176 322.166
L117.711 322.435
L117.89 322.666
L118.247 322.785
L118.604 323.144
L118.783 323.372
L118.872 323.393
L119.051 323.717
L119.765 323.952
L120.122 324.126
L120.211 324.136
L120.479 324.546
L120.568 324.553
L120.747 324.842
L121.104 325.052
L121.372 325.388
L121.908 325.504
L122.175 325.63
L122.622 325.787
L122.89 325.924
L123.425 326.007
L123.604 326.302
L123.782 326.547
L124.05 326.804
L124.586 326.962
L124.675 326.969
L124.854 327.24
L125.032 327.344
L125.3 327.433
L126.282 328.001
L126.461 328.026
L126.639 328.241
L126.729 328.264
L126.907 328.455
L127.354 328.565
L127.711 328.779
L127.889 328.885
L128.068 329.115
L128.425 329.178
L128.604 329.332
L128.693 329.336
L128.871 329.577
L129.496 329.783
L130.478 329.981
L130.657 330.167
L131.103 330.415
L131.282 330.451
L131.46 330.728
L131.728 330.813
L131.907 330.94
L132.71 331.04
L133.603 331.382
L133.96 331.648
L134.496 331.779
L135.032 331.888
L135.21 332.067
L135.389 332.09
L135.567 332.402
L135.835 332.57
L136.282 332.711
L136.549 332.816
L136.639 332.816
L136.817 333.043
L137.532 333.15
L138.067 333.33
L138.603 333.587
L138.871 333.705
L139.049 333.987
L139.228 334.054
L139.496 334.129
L139.942 334.238
L142.978 335.301
L143.156 335.504
L146.192 336.1
L146.37 336.257
L146.995 336.35
L147.442 336.476
L148.513 336.689
L149.674 336.777
L150.834 337.06
L152.084 337.251
L152.352 337.311
L152.531 337.457
L153.959 337.778
L154.584 337.905
L154.763 337.919
L154.941 338.093
L156.37 338.311
L158.155 338.652
L158.691 338.75
L165.476 339.687
L166.637 339.797
L170.565 340.432
L171.012 340.504
L174.404 340.832
L175.208 341.015
L175.386 341.229
L178.154 341.538
L179.493 341.645
L179.94 341.685
L180.118 341.873
L180.386 341.984
L181.279 342.059
L182.707 342.208
L182.886 342.323
L183.511 342.394
L183.868 342.453
L184.671 342.582
L186.636 342.695
L196.099 343.608
L197.528 343.714
L214.937 344.872
L216.634 344.985
L217.437 345.02
L220.651 345.126
L222.258 345.186
L244.043 345.907
L248.06 346.02
L249.756 346.081
L255.292 346.205
L255.917 346.239
L275.737 346.61
L276.808 346.628
L281.808 346.736
L282.165 346.774
L296.807 346.88
L298.771 346.897
L313.592 347.013
L460.279 347.403
L518.311 347.424
L518.311 347.424" style="fill:none;stroke:#ff0000;stroke-dasharray:3.000000,6.000000;stroke-dashoffset:0.0;"/>
   </g>
   <g id="line2d_4">
    <path clip-path="url(#p7ff5b81e1d)" d="
M72 92.5259
L72.0893 114.711
L72.2678 135.634
L72.8035 173.014
L73.4285 196.298
L73.607 202.1
L73.7856 204.814
L74.4998 206.278
L74.7677 206.907
L74.9462 207.482
L75.0355 207.604
L75.2141 207.985
L75.4819 208.323
L76.1962 217.298
L76.2854 217.827
L76.7318 222.667
L77.2675 227.46
L77.6246 227.785
L77.8032 227.975
L77.8925 227.976
L78.2496 228.57
L78.9638 229.968
L79.0531 229.968
L79.4995 232.833
L79.8566 234.711
L80.1245 236.914
L80.3923 239.178
L80.6602 240.722
L81.0173 242.19
L81.3744 242.395
L81.6422 242.731
L81.8208 242.799
L81.9994 242.946
L82.4458 243.045
L82.535 243.083
L82.9814 245.68
L83.2493 246.401
L83.5171 248.056
L83.9635 249.314
L84.4992 251.046
L85.0349 251.508
L85.1242 251.524
L85.3027 251.74
L85.6598 251.983
L85.8384 252.196
L86.1955 252.272
L86.2848 252.383
L86.4634 253.427
L86.5526 253.617
L87.3562 257.494
L87.4454 257.578
L87.7133 258.74
L88.0704 259.624
L89.0525 260.067
L89.6774 260.447
L89.7667 260.452
L90.481 262.706
L90.5702 262.895
L90.7488 263.771
L90.9274 263.777
L91.1952 264.366
L91.3738 264.753
L91.463 264.89
L91.6416 265.363
L91.9094 265.409
L92.088 265.682
L92.3558 265.837
L92.8915 265.946
L93.2486 266.058
L93.3379 266.097
L93.7843 266.866
L93.8736 266.968
L94.0522 267.479
L94.4986 268.688
L94.7664 269.584
L94.945 269.743
L95.1235 270.062
L95.8378 270.428
L96.1056 270.539
L96.2842 270.625
L96.9091 270.855
L97.8019 274.109
L97.8912 274.187
L98.0698 274.521
L98.2483 274.899
L98.6054 276.111
L98.9626 276.566
L99.1411 276.566
L99.3197 276.766
L100.302 277.096
L100.659 277.915
L100.927 278.835
L101.105 278.896
L101.909 280.893
L102.534 281.428
L102.802 281.493
L102.98 281.725
L103.784 281.86
L103.962 282.022
L104.052 282.022
L104.23 282.537
L104.498 282.795
L105.034 284.187
L105.391 285.517
L105.659 285.644
L105.926 286.442
L106.016 286.442
L106.284 286.778
L106.551 286.801
L106.73 286.953
L107.087 286.983
L107.266 287.108
L107.444 287.118
L107.623 287.506
L107.891 287.82
L108.426 289.171
L109.14 291.033
L109.319 291.305
L109.498 291.465
L109.587 291.468
L109.765 291.621
L110.301 291.756
L110.837 291.998
L111.194 292.004
L111.283 292.232
L111.462 292.849
L111.997 294.026
L112.087 294.046
L112.89 296.132
L113.515 296.346
L113.783 296.472
L114.408 296.562
L114.587 296.709
L114.765 296.756
L115.122 297.783
L116.64 300.629
L116.908 300.695
L117.176 300.803
L117.354 300.93
L117.533 300.93
L117.801 301.25
L118.426 301.316
L118.783 301.803
L118.961 302.212
L119.14 302.447
L119.229 302.447
L119.943 304.278
L120.3 304.397
L121.104 304.461
L121.283 304.627
L121.461 304.641
L121.64 304.803
L122.086 304.915
L122.265 305.009
L122.532 305.608
L122.622 305.611
L123.068 306.645
L123.425 307.851
L123.515 307.86
L123.782 308.301
L125.479 308.371
L125.925 308.798
L126.461 310.151
L127.175 310.746
L127.354 310.833
L128.068 310.993
L129.05 311.074
L129.943 312.767
L130.211 313.072
L130.389 313.374
L130.836 314.004
L132.175 314.109
L132.621 314.154
L133.157 315.553
L133.425 315.72
L133.692 316.063
L133.871 316.392
L133.96 316.396
L134.317 316.97
L136.549 317.255
L136.728 317.42
L137.085 317.91
L137.174 317.949
L137.532 318.42
L137.71 318.613
L138.067 318.934
L139.674 318.962
L140.21 319.785
L140.388 319.886
L141.638 321.248
L143.335 321.388
L143.87 321.871
L143.96 321.984
L144.138 322.538
L144.317 322.576
L144.585 322.898
L144.852 322.978
L145.12 323.306
L145.835 323.354
L146.906 323.443
L147.084 323.584
L147.442 323.763
L147.709 324.428
L147.888 324.477
L148.067 324.657
L148.245 324.759
L148.334 324.783
L148.513 325.197
L150.566 325.278
L150.745 325.473
L151.013 325.568
L151.548 326.381
L151.816 326.428
L152.441 327.011
L154.316 327.098
L154.673 327.221
L154.852 327.519
L155.477 327.774
L155.655 327.905
L157.62 328.004
L158.066 328.314
L158.155 328.335
L158.423 328.656
L158.602 328.667
L158.869 329.061
L160.03 329.505
L161.548 329.615
L162.173 329.758
L162.351 330.147
L162.619 330.206
L162.798 330.37
L163.601 330.448
L163.78 330.534
L164.762 330.631
L166.28 331.246
L166.548 331.627
L168.512 331.75
L168.78 331.932
L169.047 332.047
L169.315 332.444
L169.583 332.56
L170.297 332.676
L172.261 332.807
L172.529 332.902
L172.708 332.904
L173.065 333.393
L173.779 333.581
L173.868 333.581
L174.047 333.713
L175.743 333.945
L176.011 334.069
L176.458 334.17
L176.904 334.39
L177.083 334.558
L178.779 334.662
L179.225 334.715
L179.493 334.821
L180.386 334.985
L180.475 335.029
L180.654 335.281
L183.332 335.69
L183.511 335.848
L184.046 336.045
L184.314 336.181
L186.011 336.203
L186.278 336.228
L186.457 336.373
L186.993 336.57
L187.171 336.759
L187.528 336.854
L188.332 337.062
L189.76 337.164
L190.653 337.351
L191.1 337.483
L191.278 337.504
L191.457 337.691
L192.082 337.725
L193.599 337.794
L193.778 337.914
L195.028 338.153
L195.206 338.393
L197.26 338.497
L197.438 338.606
L197.796 338.724
L198.063 338.901
L198.331 339.068
L198.688 339.151
L200.92 339.214
L201.099 339.392
L201.992 339.473
L202.26 339.622
L204.045 339.682
L204.224 339.773
L205.741 340.139
L205.92 340.227
L207.884 340.334
L208.42 340.47
L209.045 340.566
L209.491 340.637
L211.812 340.716
L212.17 340.801
L214.848 340.955
L217.794 341.304
L219.044 341.484
L220.919 341.709
L222.794 341.824
L223.508 341.949
L226.187 342.096
L227.347 342.39
L229.579 342.507
L230.115 342.605
L233.061 342.755
L233.418 342.866
L234.847 343.063
L236.632 343.174
L244.31 343.683
L244.578 343.738
L249.578 343.969
L251.364 344.095
L251.81 344.18
L254.578 344.286
L255.47 344.33
L308.146 346.147
L314.752 346.276
L316.181 346.354
L322.52 346.465
L332.073 346.601
L339.84 346.71
L344.661 346.81
L356.625 346.927
L372.874 347.038
L391.89 347.169
L419.478 347.28
L433.316 347.326
L518.311 347.415
L518.311 347.415" style="fill:none;stroke:#00bfbf;stroke-dasharray:5.000000,1.000000,2.000000,1.000000,5.000000,1.000000;stroke-dashoffset:0.0;"/>
   </g>
   <g id="line2d_5">
    <path clip-path="url(#p7ff5b81e1d)" d="
M72 92.9557
L72.0893 115.212
L72.2678 136.587
L72.7142 166.776
L73.2499 188.473
L73.7856 201.494
L74.7677 213.046
L74.9462 215.097
L76.1069 231.629
L76.464 237.574
L77.1782 246.183
L77.6246 248.792
L77.9818 250.595
L78.3389 251.762
L78.6067 253.027
L78.8746 254.548
L79.0531 255.377
L79.6781 260.858
L79.7674 261.217
L80.303 265.82
L81.0173 270.535
L81.8208 272.339
L81.9994 272.568
L82.2672 273.159
L82.535 273.832
L82.8922 275.574
L84.4099 282.771
L86.2848 286.734
L86.5526 287.837
L87.2669 290.436
L88.1597 292.963
L88.4275 293.323
L88.8739 293.448
L89.0525 293.589
L89.231 293.779
L89.5882 293.999
L90.0346 294.899
L90.5702 296.326
L90.8381 296.916
L91.1952 297.78
L91.8202 298.897
L92.088 299.059
L92.2666 299.22
L92.6237 299.649
L93.2486 300.395
L93.4272 300.54
L93.7843 301.463
L93.9629 301.714
L94.8557 303.118
L95.2128 303.582
L95.4806 303.75
L95.927 304.163
L96.1056 304.18
L96.3734 304.57
L96.4627 304.576
L96.7306 304.761
L96.9091 304.946
L96.9984 305.059
L97.2662 305.742
L98.0698 306.566
L98.2483 306.833
L98.3376 306.861
L98.6947 307.604
L98.9626 307.849
L99.3197 308.025
L99.6768 308.109
L99.8554 308.298
L100.302 308.402
L101.284 309.732
L101.82 310.508
L101.998 310.649
L102.266 310.918
L102.534 311.057
L102.891 311.24
L103.427 311.735
L104.052 312.008
L104.766 312.728
L105.034 312.98
L105.212 313.212
L105.569 313.573
L105.926 314.165
L106.462 314.381
L106.998 314.534
L107.087 314.556
L107.266 314.795
L107.355 314.795
L107.533 315.049
L107.801 315.156
L108.426 315.458
L108.873 316.139
L109.676 316.766
L109.944 316.832
L110.212 316.909
L110.748 317.263
L110.926 317.27
L111.194 317.621
L111.64 317.785
L111.73 317.85
L111.997 318.304
L112.533 318.614
L112.801 318.748
L113.515 319.402
L114.051 319.574
L114.319 319.813
L114.676 319.878
L114.854 319.963
L114.944 319.971
L115.301 320.471
L116.64 321.311
L116.997 321.53
L117.265 321.6
L117.711 321.679
L118.068 321.92
L118.426 321.989
L119.497 322.649
L119.943 322.95
L120.211 323.096
L120.39 323.299
L120.658 323.381
L120.836 323.499
L121.372 323.566
L121.55 323.721
L121.908 323.804
L123.247 324.721
L123.515 324.833
L123.782 324.964
L123.961 325.075
L124.14 325.18
L124.764 325.304
L125.568 325.414
L127.175 326.097
L127.354 326.318
L128.425 326.661
L128.693 326.772
L129.407 326.847
L129.943 327.202
L130.478 327.327
L130.746 327.491
L131.728 327.739
L132.085 327.989
L132.621 328.154
L132.8 328.222
L133.335 328.543
L133.871 328.844
L134.317 329.177
L134.585 329.375
L136.46 329.721
L137.353 329.921
L137.621 330.073
L137.978 330.221
L138.335 330.335
L139.139 330.503
L139.406 330.547
L139.942 330.586
L140.21 330.742
L140.478 330.818
L140.746 330.947
L141.371 331.078
L141.638 331.325
L145.21 331.919
L145.835 332.264
L149.049 332.674
L149.316 332.95
L150.834 333.037
L152.263 333.634
L153.959 333.743
L154.138 333.818
L154.673 333.936
L157.798 334.282
L158.602 334.38
L158.869 334.465
L159.673 334.628
L163.601 335.145
L164.048 335.204
L164.316 335.291
L165.744 335.399
L165.923 335.493
L166.815 335.59
L167.797 335.864
L169.404 335.954
L169.672 336.055
L170.119 336.106
L170.387 336.205
L172.619 336.373
L172.886 336.441
L173.779 336.597
L174.761 336.814
L176.011 336.896
L176.458 337.159
L177.708 337.325
L177.975 337.399
L179.94 337.509
L180.743 337.592
L180.922 337.674
L182.35 337.768
L182.618 337.818
L183.868 337.912
L184.136 337.958
L187.35 338.12
L188.064 338.206
L189.582 338.302
L190.117 338.423
L191.992 338.523
L192.796 338.604
L196.546 338.714
L196.813 338.776
L198.242 338.883
L202.706 339.284
L203.331 339.396
L204.224 339.407
L206.366 339.504
L207.884 339.681
L209.848 339.789
L213.062 339.998
L213.241 340.106
L213.866 340.176
L214.134 340.237
L214.491 340.319
L214.759 340.391
L217.259 340.551
L217.884 340.655
L220.205 340.764
L221.098 340.81
L222.794 340.933
L226.544 341.385
L227.526 341.485
L227.794 341.562
L231.365 341.696
L231.543 341.837
L239.043 342.116
L239.489 342.24
L245.471 342.343
L246.453 342.386
L249.221 342.49
L249.667 342.547
L250.828 342.643
L251.096 342.702
L251.542 342.733
L253.328 342.843
L253.596 342.889
L263.595 343.116
L264.666 343.287
L277.79 343.691
L282.076 343.793
L282.344 343.841
L288.593 343.946
L290.557 344.04
L293.236 344.124
L293.504 344.198
L300.289 344.273
L300.557 344.348
L311.36 344.457
L322.877 344.534
L328.234 344.664
L329.841 344.692
L341.179 344.749
L341.447 344.809
L351.804 344.918
L352.071 344.972
L365.106 345.082
L367.338 345.092
L388.23 345.167
L388.498 345.218
L436.084 345.327
L441.173 345.348
L482.063 345.458
L488.223 345.465
L518.311 345.548
L518.311 345.548" style="fill:none;stroke:#bf00bf;stroke-linecap:square;"/>
   </g>
   <g id="matplotlib.axis_1">
    <g id="xtick_1">
     <g id="line2d_6">
      <defs>
       <path d="
M0 0
L0 -4" id="mc7db9fdffb" style="stroke:#000000;stroke-width:0.5;"/>
      </defs>
      <g>
       <use style="stroke:#000000;stroke-width:0.5;" x="72.0" xlink:href="#mc7db9fdffb" y="388.8"/>
      </g>
     </g>
     <g id="line2d_7">
      <defs>
       <path d="
M0 0
L0 4" id="m5a7d422ac3" style="stroke:#000000;stroke-width:0.5;"/>
      </defs>
      <g>
       <use style="stroke:#000000;stroke-width:0.5;" x="72.0" xlink:href="#m5a7d422ac3" y="43.2"/>
      </g>
     </g>
     <g id="text_1">
      <!-- 0 -->
      <defs>
       <path d="
M56.9844 36.375
Q56.9844 16.7969 50.8594 7.64062
Q44.7344 -1.51562 31.8438 -1.51562
Q18.75 -1.51562 12.7188 7.76562
Q6.6875 17.0469 6.6875 36.2812
Q6.6875 55.6719 12.7812 64.9219
Q18.8906 74.1719 31.8438 74.1719
Q44.9219 74.1719 50.9531 64.7656
Q56.9844 55.375 56.9844 36.375
M44.1406 14.2031
Q45.8438 18.1719 46.4531 23.5156
Q47.0781 28.8594 47.0781 36.375
Q47.0781 43.7969 46.4531 49.2656
Q45.8438 54.7344 44.0938 58.5469
Q42.3906 62.3125 39.4219 64.2031
Q36.4688 66.1094 31.8438 66.1094
Q27.25 66.1094 24.2344 64.2031
Q21.2344 62.3125 19.4844 58.4531
Q17.8281 54.8281 17.2188 49.0156
Q16.6094 43.2188 16.6094 36.2812
Q16.6094 28.6562 17.1406 23.5312
Q17.6719 18.4062 19.4375 14.3594
Q21.0469 10.5469 24 8.54688
Q26.9531 6.54688 31.8438 6.54688
Q36.4219 6.54688 39.4531 8.45312
Q42.4844 10.3594 44.1406 14.2031" id="Verdana-30"/>
      </defs>
      <g transform="translate(68.9821875 401.918125)scale(0.12 -0.12)">
       <use xlink:href="#Verdana-30"/>
      </g>
     </g>
    </g>
    <g id="xtick_2">
     <g id="line2d_8">
      <g>
       <use style="stroke:#000000;stroke-width:0.5;" x="161.28" xlink:href="#mc7db9fdffb" y="388.8"/>
      </g>
     </g>
     <g id="line2d_9">
      <g>
       <use style="stroke:#000000;stroke-width:0.5;" x="161.28" xlink:href="#m5a7d422ac3" y="43.2"/>
      </g>
     </g>
     <g id="text_2">
      <!-- 1000 -->
      <defs>
       <path d="
M52.9375 0
L13.5781 0
L13.5781 7.42188
L28.7188 7.42188
L28.7188 56.1562
L13.5781 56.1562
L13.5781 62.7969
Q16.6562 62.7969 20.1719 63.2969
Q23.6875 63.8125 25.4844 64.7969
Q27.7344 66.0156 29.0312 67.8906
Q30.3281 69.7812 30.5156 72.9531
L38.0938 72.9531
L38.0938 7.42188
L52.9375 7.42188
z
" id="Verdana-31"/>
      </defs>
      <g transform="translate(147.2315625 401.918125)scale(0.12 -0.12)">
       <use xlink:href="#Verdana-31"/>
       <use x="63.57421875" xlink:href="#Verdana-30"/>
       <use x="127.1484375" xlink:href="#Verdana-30"/>
       <use x="190.72265625" xlink:href="#Verdana-30"/>
      </g>
     </g>
    </g>
    <g id="xtick_3">
     <g id="line2d_10">
      <g>
       <use style="stroke:#000000;stroke-width:0.5;" x="250.56" xlink:href="#mc7db9fdffb" y="388.8"/>
      </g>
     </g>
     <g id="line2d_11">
      <g>
       <use style="stroke:#000000;stroke-width:0.5;" x="250.56" xlink:href="#m5a7d422ac3" y="43.2"/>
      </g>
     </g>
     <g id="text_3">
      <!-- 2000 -->
      <defs>
       <path d="
M57.0781 0
L7.85938 0
L7.85938 10.2031
Q12.9844 14.5938 18.1406 18.9844
Q23.2969 23.3906 27.7344 27.7344
Q37.1094 36.8125 40.5781 42.1562
Q44.0469 47.5156 44.0469 53.7188
Q44.0469 59.375 40.3125 62.5625
Q36.5781 65.7656 29.8906 65.7656
Q25.4375 65.7656 20.2656 64.2031
Q15.0938 62.6406 10.1562 59.4219
L9.67188 59.4219
L9.67188 69.6719
Q13.1406 71.3906 18.9219 72.7969
Q24.7031 74.2188 30.125 74.2188
Q41.3125 74.2188 47.6562 68.8125
Q54 63.4219 54 54.2031
Q54 50.0469 52.9531 46.4531
Q51.9062 42.875 49.8594 39.6562
Q47.9531 36.625 45.3906 33.6875
Q42.8281 30.7656 39.1562 27.2031
Q33.9375 22.0781 28.3594 17.2656
Q22.7969 12.4531 17.9688 8.34375
L57.0781 8.34375
z
" id="Verdana-32"/>
      </defs>
      <g transform="translate(236.1684375 401.918125)scale(0.12 -0.12)">
       <use xlink:href="#Verdana-32"/>
       <use x="63.57421875" xlink:href="#Verdana-30"/>
       <use x="127.1484375" xlink:href="#Verdana-30"/>
       <use x="190.72265625" xlink:href="#Verdana-30"/>
      </g>
     </g>
    </g>
    <g id="xtick_4">
     <g id="line2d_12">
      <g>
       <use style="stroke:#000000;stroke-width:0.5;" x="339.84" xlink:href="#mc7db9fdffb" y="388.8"/>
      </g>
     </g>
     <g id="line2d_13">
      <g>
       <use style="stroke:#000000;stroke-width:0.5;" x="339.84" xlink:href="#m5a7d422ac3" y="43.2"/>
      </g>
     </g>
     <g id="text_4">
      <!-- 3000 -->
      <defs>
       <path d="
M50.6875 35.0156
Q53.0312 32.9062 54.5469 29.7344
Q56.0625 26.5625 56.0625 21.5312
Q56.0625 16.5469 54.25 12.3906
Q52.4375 8.25 49.1719 5.17188
Q45.5156 1.76562 40.5469 0.125
Q35.5938 -1.51562 29.6875 -1.51562
Q23.6406 -1.51562 17.7812 -0.0625
Q11.9219 1.375 8.15625 3.07812
L8.15625 13.2812
L8.89062 13.2812
Q13.0312 10.5469 18.6406 8.73438
Q24.2656 6.9375 29.5 6.9375
Q32.5625 6.9375 36.0312 7.95312
Q39.5 8.98438 41.6562 10.9844
Q43.8906 13.1406 44.9844 15.7188
Q46.0938 18.3125 46.0938 22.2656
Q46.0938 26.1719 44.8438 28.7344
Q43.6094 31.2969 41.4062 32.7656
Q39.2031 34.2812 36.0781 34.8438
Q32.9531 35.4062 29.3438 35.4062
L24.9531 35.4062
L24.9531 43.5
L28.375 43.5
Q35.7969 43.5 40.2031 46.5938
Q44.625 49.7031 44.625 55.6719
Q44.625 58.2969 43.5 60.2656
Q42.3906 62.25 40.375 63.5312
Q38.2812 64.7969 35.8906 65.2812
Q33.5 65.7656 30.4688 65.7656
Q25.8281 65.7656 20.5938 64.1094
Q15.375 62.4531 10.75 59.4219
L10.25 59.4219
L10.25 69.625
Q13.7188 71.3438 19.5 72.7812
Q25.2969 74.2188 30.7188 74.2188
Q36.0312 74.2188 40.0781 73.2344
Q44.1406 72.2656 47.4062 70.125
Q50.9219 67.7812 52.7344 64.4531
Q54.5469 61.1406 54.5469 56.6875
Q54.5469 50.6406 50.2656 46.125
Q46 41.6094 40.1875 40.4375
L40.1875 39.75
Q42.5312 39.3594 45.5469 38.1094
Q48.5781 36.8594 50.6875 35.0156" id="Verdana-33"/>
      </defs>
      <g transform="translate(325.46625 401.918125)scale(0.12 -0.12)">
       <use xlink:href="#Verdana-33"/>
       <use x="63.57421875" xlink:href="#Verdana-30"/>
       <use x="127.1484375" xlink:href="#Verdana-30"/>
       <use x="190.72265625" xlink:href="#Verdana-30"/>
      </g>
     </g>
    </g>
    <g id="xtick_5">
     <g id="line2d_14">
      <g>
       <use style="stroke:#000000;stroke-width:0.5;" x="429.12" xlink:href="#mc7db9fdffb" y="388.8"/>
      </g>
     </g>
     <g id="line2d_15">
      <g>
       <use style="stroke:#000000;stroke-width:0.5;" x="429.12" xlink:href="#m5a7d422ac3" y="43.2"/>
      </g>
     </g>
     <g id="text_5">
      <!-- 4000 -->
      <defs>
       <path d="
M58.7344 20.4531
L47.9531 20.4531
L47.9531 0
L38.5781 0
L38.5781 20.4531
L3.76562 20.4531
L3.76562 31.6875
L38.9688 72.7031
L47.9531 72.7031
L47.9531 28.2656
L58.7344 28.2656
z

M38.5781 28.2656
L38.5781 61.0781
L10.4062 28.2656
z
" id="Verdana-34"/>
      </defs>
      <g transform="translate(414.4828125 401.918125)scale(0.12 -0.12)">
       <use xlink:href="#Verdana-34"/>
       <use x="63.57421875" xlink:href="#Verdana-30"/>
       <use x="127.1484375" xlink:href="#Verdana-30"/>
       <use x="190.72265625" xlink:href="#Verdana-30"/>
      </g>
     </g>
    </g>
    <g id="xtick_6">
     <g id="line2d_16">
      <g>
       <use style="stroke:#000000;stroke-width:0.5;" x="518.4" xlink:href="#mc7db9fdffb" y="388.8"/>
      </g>
     </g>
     <g id="line2d_17">
      <g>
       <use style="stroke:#000000;stroke-width:0.5;" x="518.4" xlink:href="#m5a7d422ac3" y="43.2"/>
      </g>
     </g>
     <g id="text_6">
      <!-- 5000 -->
      <defs>
       <path d="
M56.5 23.0938
Q56.5 18.0156 54.6406 13.375
Q52.7812 8.73438 49.5625 5.5625
Q46.0469 2.15625 41.1875 0.3125
Q36.3281 -1.51562 29.9375 -1.51562
Q23.9688 -1.51562 18.4531 -0.265625
Q12.9375 0.984375 9.125 2.73438
L9.125 13.0312
L9.8125 13.0312
Q13.8125 10.5 19.1875 8.71875
Q24.5625 6.9375 29.7344 6.9375
Q33.2031 6.9375 36.4531 7.90625
Q39.7031 8.89062 42.2344 11.3281
Q44.3906 13.4219 45.4844 16.3438
Q46.5781 19.2812 46.5781 23.1406
Q46.5781 26.9062 45.2812 29.4844
Q44 32.0781 41.7031 33.6406
Q39.1562 35.5 35.5156 36.25
Q31.8906 37.0156 27.3906 37.0156
Q23.0938 37.0156 19.1094 36.4219
Q15.1406 35.8438 12.25 35.25
L12.25 72.7031
L56 72.7031
L56 64.1562
L21.6875 64.1562
L21.6875 44.8281
Q23.7812 45.0156 25.9688 45.1094
Q28.1719 45.2188 29.7812 45.2188
Q35.6875 45.2188 40.125 44.2188
Q44.5781 43.2188 48.2969 40.6719
Q52.2031 37.9844 54.3438 33.7344
Q56.5 29.5 56.5 23.0938" id="Verdana-35"/>
      </defs>
      <g transform="translate(504.084375 401.918125)scale(0.12 -0.12)">
       <use xlink:href="#Verdana-35"/>
       <use x="63.57421875" xlink:href="#Verdana-30"/>
       <use x="127.1484375" xlink:href="#Verdana-30"/>
       <use x="190.72265625" xlink:href="#Verdana-30"/>
      </g>
     </g>
    </g>
    <g id="text_7">
     <!-- Objective function exectuions -->
     <defs>
      <path d="
M57.0312 27.6875
Q57.0312 20.8438 55.0938 15.375
Q53.1719 9.90625 49.9062 6.20312
Q46.4375 2.34375 42.2812 0.40625
Q38.1406 -1.51562 33.1562 -1.51562
Q28.5156 -1.51562 25.0469 -0.40625
Q21.5781 0.6875 18.2188 2.54688
L17.625 0
L9.03125 0
L9.03125 75.9844
L18.2188 75.9844
L18.2188 48.8281
Q22.0781 52 26.4219 54.0312
Q30.7656 56.0625 36.1875 56.0625
Q45.8438 56.0625 51.4375 48.6406
Q57.0312 41.2188 57.0312 27.6875
M47.5625 27.4375
Q47.5625 37.2031 44.3281 42.25
Q41.1094 47.3125 33.9375 47.3125
Q29.9375 47.3125 25.8281 45.5781
Q21.7344 43.8438 18.2188 41.1094
L18.2188 9.85938
Q22.125 8.10938 24.9219 7.42188
Q27.7344 6.73438 31.2969 6.73438
Q38.9219 6.73438 43.2344 11.7344
Q47.5625 16.75 47.5625 27.4375" id="Verdana-62"/>
      <path d="
M56.2031 54.5469
L34.125 0
L24.9062 0
L2.98438 54.5469
L12.9375 54.5469
L29.8281 11.1406
L46.5781 54.5469
z
" id="Verdana-76"/>
      <path d="
M56.25 0
L44.6719 0
L29.2031 20.9531
L13.625 0
L2.9375 0
L24.2188 27.2031
L3.125 54.5469
L14.7031 54.5469
L30.0781 33.9375
L45.5156 54.5469
L56.25 54.5469
L34.8125 27.6875
z
" id="Verdana-78"/>
      <path d="
M54.6875 26.3125
L14.5 26.3125
Q14.5 21.2969 16.0156 17.5469
Q17.5312 13.8125 20.1719 11.4219
Q22.7031 9.07812 26.1875 7.90625
Q29.6875 6.73438 33.8906 6.73438
Q39.4531 6.73438 45.0938 8.95312
Q50.7344 11.1875 53.125 13.3281
L53.6094 13.3281
L53.6094 3.32812
Q48.9688 1.375 44.1406 0.046875
Q39.3125 -1.26562 33.9844 -1.26562
Q20.4062 -1.26562 12.7812 6.07812
Q5.17188 13.4219 5.17188 26.9531
Q5.17188 40.3281 12.4688 48.1875
Q19.7812 56.0625 31.6875 56.0625
Q42.7188 56.0625 48.7031 49.6094
Q54.6875 43.1719 54.6875 31.2969
z

M45.75 33.3438
Q45.7031 40.5781 42.1094 44.5312
Q38.5312 48.4844 31.2031 48.4844
Q23.8281 48.4844 19.4531 44.1406
Q15.0938 39.7969 14.5 33.3438
z
" id="Verdana-65"/>
      <path d="
M49.3594 3.42188
Q44.7812 1.21875 40.6562 0
Q36.5312 -1.21875 31.8906 -1.21875
Q25.9844 -1.21875 21.0469 0.515625
Q16.1094 2.25 12.5938 5.76562
Q9.03125 9.28125 7.07812 14.6406
Q5.125 20.0156 5.125 27.2031
Q5.125 40.5781 12.4688 48.1875
Q19.8281 55.8125 31.8906 55.8125
Q36.5781 55.8125 41.0938 54.4844
Q45.6094 53.1719 49.3594 51.2656
L49.3594 41.0625
L48.875 41.0625
Q44.6719 44.3438 40.2031 46.0938
Q35.75 47.8594 31.5 47.8594
Q23.6875 47.8594 19.1719 42.6094
Q14.6562 37.3594 14.6562 27.2031
Q14.6562 17.3281 19.0625 12.0312
Q23.4844 6.73438 31.5 6.73438
Q34.2812 6.73438 37.1562 7.46875
Q40.0469 8.20312 42.3281 9.375
Q44.3438 10.4062 46.0938 11.5469
Q47.8594 12.7031 48.875 13.5312
L49.3594 13.5312
z
" id="Verdana-63"/>
      <path d="
M26.0312 63.6719
L15.6719 63.6719
L15.6719 73.1875
L26.0312 73.1875
z

M25.4375 -1.3125
Q25.4375 -10.8906 20.5469 -15.7656
Q15.6719 -20.6562 7.46875 -20.6562
Q5.51562 -20.6562 2.3125 -20.2656
Q-0.875 -19.875 -3.03125 -19.2812
L-3.03125 -10.5469
L-2.54688 -10.5469
Q-1.17188 -11.0781 1.14062 -11.7656
Q3.46875 -12.4531 5.67188 -12.4531
Q9.1875 -12.4531 11.3281 -11.4688
Q13.4844 -10.5 14.5469 -8.54688
Q15.625 -6.59375 15.9375 -3.82812
Q16.2656 -1.07812 16.2656 2.875
L16.2656 46.8281
L4.89062 46.8281
L4.89062 54.5469
L25.4375 54.5469
z
" id="Verdana-6a"/>
      <path d="
M18.8906 63.6719
L8.54688 63.6719
L8.54688 73.1875
L18.8906 73.1875
z

M18.3125 0
L9.125 0
L9.125 54.5469
L18.3125 54.5469
z
" id="Verdana-69"/>
      <path d="
M54.6406 0
L45.4531 0
L45.4531 31.0625
Q45.4531 34.8125 45.0156 38.1094
Q44.5781 41.4062 43.4062 43.2656
Q42.1875 45.3125 39.8906 46.3125
Q37.5938 47.3125 33.9375 47.3125
Q30.1719 47.3125 26.0625 45.4531
Q21.9688 43.6094 18.2188 40.7188
L18.2188 0
L9.03125 0
L9.03125 54.5469
L18.2188 54.5469
L18.2188 48.4844
Q22.5156 52.0469 27.0938 54.0469
Q31.6875 56.0625 36.5312 56.0625
Q45.3594 56.0625 50 50.7344
Q54.6406 45.4062 54.6406 35.4062
z
" id="Verdana-6e"/>
      <path d="
M48 15.7188
Q48 8.25 41.8125 3.46875
Q35.6406 -1.3125 24.9531 -1.3125
Q18.8906 -1.3125 13.8438 0.125
Q8.79688 1.5625 5.375 3.26562
L5.375 13.5781
L5.85938 13.5781
Q10.2031 10.2969 15.5156 8.375
Q20.8438 6.45312 25.7344 6.45312
Q31.7812 6.45312 35.2031 8.40625
Q38.625 10.3594 38.625 14.5469
Q38.625 17.7812 36.7656 19.4375
Q34.9062 21.0938 29.6406 22.2656
Q27.6875 22.7031 24.5312 23.2812
Q21.3906 23.875 18.7969 24.5625
Q11.625 26.4688 8.60938 30.1562
Q5.60938 33.8438 5.60938 39.2031
Q5.60938 42.5781 7 45.5469
Q8.40625 48.5312 11.2344 50.875
Q13.9688 53.1719 18.1875 54.5156
Q22.4062 55.8594 27.6406 55.8594
Q32.5156 55.8594 37.5156 54.6562
Q42.5312 53.4688 45.8438 51.7656
L45.8438 41.9375
L45.3594 41.9375
Q41.8438 44.5312 36.8125 46.3125
Q31.7812 48.0938 26.9531 48.0938
Q21.9219 48.0938 18.4531 46.1562
Q14.9844 44.2344 14.9844 40.4375
Q14.9844 37.0625 17.0938 35.3594
Q19.1406 33.6406 23.7344 32.5625
Q26.2656 31.9844 29.4062 31.3906
Q32.5625 30.8125 34.6719 30.3281
Q41.0625 28.8594 44.5312 25.2969
Q48 21.6875 48 15.7188" id="Verdana-73"/>
      <path d="
M38.375 67.0938
L37.8906 67.0938
Q36.375 67.5312 33.9375 67.9844
Q31.5 68.4531 29.6406 68.4531
Q23.7344 68.4531 21.0625 65.8438
Q18.4062 63.2344 18.4062 56.3906
L18.4062 54.5469
L34.9688 54.5469
L34.9688 46.8281
L18.7031 46.8281
L18.7031 0
L9.51562 0
L9.51562 46.8281
L3.32812 46.8281
L3.32812 54.5469
L9.51562 54.5469
L9.51562 56.3438
Q9.51562 66.0625 14.3438 71.2656
Q19.1875 76.4688 28.3281 76.4688
Q31.3906 76.4688 33.8594 76.1719
Q36.3281 75.875 38.375 75.4844
z
" id="Verdana-66"/>
      <path id="Verdana-20"/>
      <path d="
M63.9688 64.3594
Q68.4062 59.4688 70.7656 52.3906
Q73.1406 45.3125 73.1406 36.3281
Q73.1406 27.3438 70.7188 20.2344
Q68.3125 13.1406 63.9688 8.40625
Q59.4688 3.46875 53.3438 0.96875
Q47.2188 -1.51562 39.3594 -1.51562
Q31.6875 -1.51562 25.4062 1.01562
Q19.1406 3.5625 14.75 8.40625
Q10.3594 13.2344 7.98438 20.2656
Q5.60938 27.2969 5.60938 36.3281
Q5.60938 45.2188 7.95312 52.2656
Q10.2969 59.3281 14.7969 64.3594
Q19.0938 69.1406 25.4688 71.6719
Q31.8438 74.2188 39.3594 74.2188
Q47.1719 74.2188 53.3906 71.6562
Q59.625 69.0938 63.9688 64.3594
M63.0938 36.3281
Q63.0938 50.4844 56.7344 58.1719
Q50.3906 65.875 39.4062 65.875
Q28.3281 65.875 22 58.1719
Q15.6719 50.4844 15.6719 36.3281
Q15.6719 22.0156 22.1094 14.4219
Q28.5625 6.84375 39.4062 6.84375
Q50.25 6.84375 56.6719 14.4219
Q63.0938 22.0156 63.0938 36.3281" id="Verdana-4f"/>
      <path d="
M55.5156 27.25
Q55.5156 13.9219 48.6719 6.20312
Q41.8438 -1.51562 30.375 -1.51562
Q18.7969 -1.51562 11.9844 6.20312
Q5.17188 13.9219 5.17188 27.25
Q5.17188 40.5781 11.9844 48.3125
Q18.7969 56.0625 30.375 56.0625
Q41.8438 56.0625 48.6719 48.3125
Q55.5156 40.5781 55.5156 27.25
M46.0469 27.25
Q46.0469 37.8438 41.8906 42.9844
Q37.75 48.1406 30.375 48.1406
Q22.9062 48.1406 18.7812 42.9844
Q14.6562 37.8438 14.6562 27.25
Q14.6562 17 18.7969 11.6875
Q22.9531 6.39062 30.375 6.39062
Q37.7031 6.39062 41.875 11.6406
Q46.0469 16.8906 46.0469 27.25" id="Verdana-6f"/>
      <path d="
M37.3594 0.484375
Q34.7656 -0.203125 31.7031 -0.640625
Q28.6562 -1.07812 26.2656 -1.07812
Q17.9219 -1.07812 13.5781 3.40625
Q9.23438 7.90625 9.23438 17.8281
L9.23438 46.8281
L3.03125 46.8281
L3.03125 54.5469
L9.23438 54.5469
L9.23438 70.2188
L18.4062 70.2188
L18.4062 54.5469
L37.3594 54.5469
L37.3594 46.8281
L18.4062 46.8281
L18.4062 21.9688
Q18.4062 17.6719 18.5938 15.25
Q18.7969 12.8438 19.9688 10.75
Q21.0469 8.79688 22.9219 7.89062
Q24.8125 6.98438 28.6562 6.98438
Q30.9062 6.98438 33.3438 7.64062
Q35.7969 8.29688 36.8594 8.73438
L37.3594 8.73438
z
" id="Verdana-74"/>
      <path d="
M54.25 0
L45.0625 0
L45.0625 6.0625
Q40.4375 2.39062 36.1875 0.4375
Q31.9375 -1.51562 26.8125 -1.51562
Q18.2188 -1.51562 13.4219 3.73438
Q8.64062 8.98438 8.64062 19.1406
L8.64062 54.5469
L17.8281 54.5469
L17.8281 23.4844
Q17.8281 19.3438 18.2188 16.375
Q18.6094 13.4219 19.875 11.3281
Q21.1875 9.1875 23.2812 8.20312
Q25.3906 7.23438 29.3906 7.23438
Q32.9531 7.23438 37.1719 9.07812
Q41.4062 10.9375 45.0625 13.8125
L45.0625 54.5469
L54.25 54.5469
z
" id="Verdana-75"/>
     </defs>
     <g transform="translate(206.5078125 418.509375)scale(0.12 -0.12)">
      <use xlink:href="#Verdana-4f"/>
      <use x="78.7109375" xlink:href="#Verdana-62"/>
      <use x="141.015625" xlink:href="#Verdana-6a"/>
      <use x="175.439453125" xlink:href="#Verdana-65"/>
      <use x="235.009765625" xlink:href="#Verdana-63"/>
      <use x="287.109375" xlink:href="#Verdana-74"/>
      <use x="326.513671875" xlink:href="#Verdana-69"/>
      <use x="353.955078125" xlink:href="#Verdana-76"/>
      <use x="412.259765625" xlink:href="#Verdana-65"/>
      <use x="471.830078125" xlink:href="#Verdana-20"/>
      <use x="506.986328125" xlink:href="#Verdana-66"/>
      <use x="542.142578125" xlink:href="#Verdana-75"/>
      <use x="605.423828125" xlink:href="#Verdana-6e"/>
      <use x="668.705078125" xlink:href="#Verdana-63"/>
      <use x="720.8046875" xlink:href="#Verdana-74"/>
      <use x="760.208984375" xlink:href="#Verdana-69"/>
      <use x="787.650390625" xlink:href="#Verdana-6f"/>
      <use x="848.34375" xlink:href="#Verdana-6e"/>
      <use x="911.625" xlink:href="#Verdana-20"/>
      <use x="946.78125" xlink:href="#Verdana-65"/>
      <use x="1006.3515625" xlink:href="#Verdana-78"/>
      <use x="1064.40625" xlink:href="#Verdana-65"/>
      <use x="1123.9765625" xlink:href="#Verdana-63"/>
      <use x="1176.076171875" xlink:href="#Verdana-74"/>
      <use x="1215.48046875" xlink:href="#Verdana-75"/>
      <use x="1278.76171875" xlink:href="#Verdana-69"/>
      <use x="1306.203125" xlink:href="#Verdana-6f"/>
      <use x="1366.896484375" xlink:href="#Verdana-6e"/>
      <use x="1430.177734375" xlink:href="#Verdana-73"/>
     </g>
    </g>
   </g>
   <g id="matplotlib.axis_2">
    <g id="ytick_1">
     <g id="line2d_18">
      <defs>
       <path d="
M0 0
L4 0" id="md7965d1ba0" style="stroke:#000000;stroke-width:0.5;"/>
      </defs>
      <g>
       <use style="stroke:#000000;stroke-width:0.5;" x="72.0" xlink:href="#md7965d1ba0" y="388.8"/>
      </g>
     </g>
     <g id="line2d_19">
      <defs>
       <path d="
M0 0
L-4 0" id="md9a1c1a7cd" style="stroke:#000000;stroke-width:0.5;"/>
      </defs>
      <g>
       <use style="stroke:#000000;stroke-width:0.5;" x="518.4" xlink:href="#md9a1c1a7cd" y="388.8"/>
      </g>
     </g>
     <g id="text_8">
      <!-- −6 -->
      <defs>
       <path d="
M71.0938 27.9375
L10.75 27.9375
L10.75 35.75
L71.0938 35.75
z
" id="Verdana-2212"/>
       <path d="
M58.1562 23.5781
Q58.1562 12.5 50.8594 5.48438
Q43.5625 -1.51562 32.9531 -1.51562
Q27.5938 -1.51562 23.1875 0.140625
Q18.7969 1.8125 15.4375 5.07812
Q11.2344 9.125 8.95312 15.8125
Q6.6875 22.5156 6.6875 31.9375
Q6.6875 41.6094 8.76562 49.0781
Q10.8438 56.5469 15.375 62.3594
Q19.6719 67.875 26.4531 70.9688
Q33.25 74.0781 42.2812 74.0781
Q45.1719 74.0781 47.125 73.8281
Q49.0781 73.5781 51.0781 72.9531
L51.0781 63.625
L50.5938 63.625
Q49.2188 64.3594 46.4531 65.0156
Q43.7031 65.6719 40.8281 65.6719
Q30.3281 65.6719 24.0781 59.1094
Q17.8281 52.5469 16.7969 41.3594
Q20.9062 43.8438 24.875 45.1406
Q28.8594 46.4375 34.0781 46.4375
Q38.7188 46.4375 42.25 45.5781
Q45.7969 44.7344 49.5156 42.1406
Q53.8125 39.1562 55.9844 34.6094
Q58.1562 30.0781 58.1562 23.5781
M48.25 23.1875
Q48.25 27.7344 46.9062 30.7031
Q45.5625 33.6875 42.4844 35.8906
Q40.2344 37.4531 37.5 37.9375
Q34.7656 38.4219 31.7812 38.4219
Q27.6406 38.4219 24.0781 37.4375
Q20.5156 36.4688 16.75 34.4219
Q16.6562 33.3438 16.5938 32.3438
Q16.5469 31.3438 16.5469 29.8281
Q16.5469 22.125 18.1406 17.6562
Q19.7344 13.1875 22.5156 10.5938
Q24.75 8.45312 27.3594 7.45312
Q29.9844 6.45312 33.0625 6.45312
Q40.1406 6.45312 44.1875 10.7656
Q48.25 15.0938 48.25 23.1875" id="Verdana-36"/>
      </defs>
      <g transform="translate(52.49 392.1515625)scale(0.12 -0.12)">
       <use xlink:href="#Verdana-2212"/>
       <use x="81.8359375" xlink:href="#Verdana-36"/>
      </g>
     </g>
    </g>
    <g id="ytick_2">
     <g id="line2d_20">
      <g>
       <use style="stroke:#000000;stroke-width:0.5;" x="72.0" xlink:href="#md7965d1ba0" y="339.428571429"/>
      </g>
     </g>
     <g id="line2d_21">
      <g>
       <use style="stroke:#000000;stroke-width:0.5;" x="518.4" xlink:href="#md9a1c1a7cd" y="339.428571429"/>
      </g>
     </g>
     <g id="text_9">
      <!-- −5 -->
      <g transform="translate(52.68875 342.780133929)scale(0.12 -0.12)">
       <use xlink:href="#Verdana-2212"/>
       <use x="81.8359375" xlink:href="#Verdana-35"/>
      </g>
     </g>
    </g>
    <g id="ytick_3">
     <g id="line2d_22">
      <g>
       <use style="stroke:#000000;stroke-width:0.5;" x="72.0" xlink:href="#md7965d1ba0" y="290.057142857"/>
      </g>
     </g>
     <g id="line2d_23">
      <g>
       <use style="stroke:#000000;stroke-width:0.5;" x="518.4" xlink:href="#md9a1c1a7cd" y="290.057142857"/>
      </g>
     </g>
     <g id="text_10">
      <!-- −4 -->
      <g transform="translate(52.420625 293.408705357)scale(0.12 -0.12)">
       <use xlink:href="#Verdana-2212"/>
       <use x="81.8359375" xlink:href="#Verdana-34"/>
      </g>
     </g>
    </g>
    <g id="ytick_4">
     <g id="line2d_24">
      <g>
       <use style="stroke:#000000;stroke-width:0.5;" x="72.0" xlink:href="#md7965d1ba0" y="240.685714286"/>
      </g>
     </g>
     <g id="line2d_25">
      <g>
       <use style="stroke:#000000;stroke-width:0.5;" x="518.4" xlink:href="#md9a1c1a7cd" y="240.685714286"/>
      </g>
     </g>
     <g id="text_11">
      <!-- −3 -->
      <g transform="translate(52.74125 244.037276786)scale(0.12 -0.12)">
       <use xlink:href="#Verdana-2212"/>
       <use x="81.8359375" xlink:href="#Verdana-33"/>
      </g>
     </g>
    </g>
    <g id="ytick_5">
     <g id="line2d_26">
      <g>
       <use style="stroke:#000000;stroke-width:0.5;" x="72.0" xlink:href="#md7965d1ba0" y="191.314285714"/>
      </g>
     </g>
     <g id="line2d_27">
      <g>
       <use style="stroke:#000000;stroke-width:0.5;" x="518.4" xlink:href="#md9a1c1a7cd" y="191.314285714"/>
      </g>
     </g>
     <g id="text_12">
      <!-- −2 -->
      <g transform="translate(52.619375 194.665848214)scale(0.12 -0.12)">
       <use xlink:href="#Verdana-2212"/>
       <use x="81.8359375" xlink:href="#Verdana-32"/>
      </g>
     </g>
    </g>
    <g id="ytick_6">
     <g id="line2d_28">
      <g>
       <use style="stroke:#000000;stroke-width:0.5;" x="72.0" xlink:href="#md7965d1ba0" y="141.942857143"/>
      </g>
     </g>
     <g id="line2d_29">
      <g>
       <use style="stroke:#000000;stroke-width:0.5;" x="518.4" xlink:href="#md9a1c1a7cd" y="141.942857143"/>
      </g>
     </g>
     <g id="text_13">
      <!-- −1 -->
      <g transform="translate(53.11625 145.294419643)scale(0.12 -0.12)">
       <use xlink:href="#Verdana-2212"/>
       <use x="81.8359375" xlink:href="#Verdana-31"/>
      </g>
     </g>
    </g>
    <g id="ytick_7">
     <g id="line2d_30">
      <g>
       <use style="stroke:#000000;stroke-width:0.5;" x="72.0" xlink:href="#md7965d1ba0" y="92.5714285714"/>
      </g>
     </g>
     <g id="line2d_31">
      <g>
       <use style="stroke:#000000;stroke-width:0.5;" x="518.4" xlink:href="#md9a1c1a7cd" y="92.5714285714"/>
      </g>
     </g>
     <g id="text_14">
      <!-- 0 -->
      <g transform="translate(61.964375 95.9229910714)scale(0.12 -0.12)">
       <use xlink:href="#Verdana-30"/>
      </g>
     </g>
    </g>
    <g id="ytick_8">
     <g id="line2d_32">
      <g>
       <use style="stroke:#000000;stroke-width:0.5;" x="72.0" xlink:href="#md7965d1ba0" y="43.2"/>
      </g>
     </g>
     <g id="line2d_33">
      <g>
       <use style="stroke:#000000;stroke-width:0.5;" x="518.4" xlink:href="#md9a1c1a7cd" y="43.2"/>
      </g>
     </g>
     <g id="text_15">
      <!-- 1 -->
      <g transform="translate(63.276875 46.5515625)scale(0.12 -0.12)">
       <use xlink:href="#Verdana-31"/>
      </g>
     </g>
    </g>
    <g id="text_16">
     <!-- Mean -->
     <defs>
      <path d="
M51.4219 0
L42.2812 0
L42.2812 5.8125
Q41.0625 4.98438 38.9844 3.48438
Q36.9219 2 34.9688 1.125
Q32.6719 0 29.6875 -0.75
Q26.7031 -1.51562 22.7031 -1.51562
Q15.3281 -1.51562 10.2031 3.35938
Q5.07812 8.25 5.07812 15.8281
Q5.07812 22.0156 7.73438 25.8438
Q10.4062 29.6875 15.3281 31.8906
Q20.3125 34.0781 27.2969 34.8594
Q34.2812 35.6406 42.2812 36.0312
L42.2812 37.4531
Q42.2812 40.5781 41.1875 42.625
Q40.0938 44.6719 38.0312 45.8438
Q36.0781 46.9688 33.3438 47.3594
Q30.6094 47.75 27.6406 47.75
Q24.0312 47.75 19.5781 46.7969
Q15.1406 45.8438 10.4062 44.0469
L9.90625 44.0469
L9.90625 53.375
Q12.5938 54.1094 17.6719 54.9844
Q22.75 55.8594 27.6875 55.8594
Q33.4531 55.8594 37.7188 54.9062
Q42 53.9531 45.125 51.6562
Q48.1875 49.4219 49.7969 45.8438
Q51.4219 42.2812 51.4219 37.0156
z

M42.2812 13.4219
L42.2812 28.6094
Q38.0938 28.375 32.3906 27.875
Q26.7031 27.3906 23.3906 26.4688
Q19.4375 25.3438 16.9844 22.9688
Q14.5469 20.6094 14.5469 16.4531
Q14.5469 11.7656 17.375 9.39062
Q20.2188 7.03125 26.0312 7.03125
Q30.8594 7.03125 34.8594 8.90625
Q38.875 10.7969 42.2812 13.4219" id="Verdana-61"/>
      <path d="
M74.5156 0
L64.8438 0
L64.8438 62.6406
L44.625 20.0156
L38.875 20.0156
L18.7969 62.6406
L18.7969 0
L9.76562 0
L9.76562 72.7031
L22.9531 72.7031
L42.3281 32.2344
L61.0781 72.7031
L74.5156 72.7031
z
" id="Verdana-4d"/>
     </defs>
     <g transform="translate(45.005625 230.9278125)rotate(-90.0)scale(0.12 -0.12)">
      <use xlink:href="#Verdana-4d"/>
      <use x="84.27734375" xlink:href="#Verdana-65"/>
      <use x="143.84765625" xlink:href="#Verdana-61"/>
      <use x="203.90625" xlink:href="#Verdana-6e"/>
     </g>
    </g>
   </g>
   <g id="patch_3">
    <path d="
M72 43.2
L518.4 43.2" style="fill:none;stroke:#000000;"/>
   </g>
   <g id="patch_4">
    <path d="
M72 388.8
L72 43.2" style="fill:none;stroke:#000000;"/>
   </g>
   <g id="patch_5">
    <path d="
M518.4 388.8
L518.4 43.2" style="fill:none;stroke:#000000;"/>
   </g>
   <g id="patch_6">
    <path d="
M72 388.8
L518.4 388.8" style="fill:none;stroke:#000000;"/>
   </g>
   <g id="text_17">
    <!-- Langermann Mean -->
    <defs>
     <path d="
M55.7656 0
L9.76562 0
L9.76562 72.7031
L19.4375 72.7031
L19.4375 8.59375
L55.7656 8.59375
z
" id="Verdana-4c"/>
     <path d="
M88.625 0
L79.4375 0
L79.4375 31.0625
Q79.4375 34.5781 79.125 37.8438
Q78.8125 41.1094 77.7812 43.0625
Q76.6562 45.1719 74.5625 46.2344
Q72.4688 47.3125 68.5 47.3125
Q64.6562 47.3125 60.7969 45.375
Q56.9375 43.4531 53.0781 40.4844
Q53.2188 39.3594 53.3125 37.8594
Q53.4219 36.375 53.4219 34.9062
L53.4219 0
L44.2344 0
L44.2344 31.0625
Q44.2344 34.6719 43.9219 37.9062
Q43.6094 41.1562 42.5781 43.1094
Q41.4531 45.2188 39.3438 46.2656
Q37.25 47.3125 33.2969 47.3125
Q29.5469 47.3125 25.75 45.4531
Q21.9688 43.6094 18.2188 40.7188
L18.2188 0
L9.03125 0
L9.03125 54.5469
L18.2188 54.5469
L18.2188 48.4844
Q22.5156 52.0469 26.7812 54.0469
Q31.0625 56.0625 35.8906 56.0625
Q41.4531 56.0625 45.3281 53.7188
Q49.2188 51.375 51.125 47.2188
Q56.6875 51.9062 61.2812 53.9844
Q65.875 56.0625 71.0938 56.0625
Q80.0781 56.0625 84.3438 50.6094
Q88.625 45.1719 88.625 35.4062
z
" id="Verdana-6d"/>
     <path d="
M43.0625 44.5312
L42.5781 44.5312
Q40.5312 45.0156 38.5938 45.2344
Q36.6719 45.4531 34.0312 45.4531
Q29.7812 45.4531 25.8281 43.5781
Q21.875 41.7031 18.2188 38.7188
L18.2188 0
L9.03125 0
L9.03125 54.5469
L18.2188 54.5469
L18.2188 46.4844
Q23.6875 50.875 27.8594 52.7031
Q32.0312 54.5469 36.375 54.5469
Q38.7656 54.5469 39.8438 54.4219
Q40.9219 54.2969 43.0625 53.9531
z
" id="Verdana-72"/>
     <path d="
M53.2656 6.20312
Q53.2656 -7.67188 46.9688 -14.1562
Q40.6719 -20.6562 27.5938 -20.6562
Q23.25 -20.6562 19.1094 -20.0469
Q14.9844 -19.4375 10.9844 -18.3125
L10.9844 -8.9375
L11.4688 -8.9375
Q13.7188 -9.8125 18.5938 -11.1094
Q23.4844 -12.4062 28.375 -12.4062
Q33.0625 -12.4062 36.125 -11.2812
Q39.2031 -10.1562 40.9219 -8.15625
Q42.625 -6.25 43.3594 -3.5625
Q44.0938 -0.875 44.0938 2.4375
L44.0938 7.42188
Q39.9375 4.10938 36.1562 2.46875
Q32.375 0.828125 26.5156 0.828125
Q16.75 0.828125 11.0156 7.875
Q5.28125 14.9375 5.28125 27.7812
Q5.28125 34.8125 7.25 39.9062
Q9.23438 45.0156 12.6406 48.7344
Q15.8281 52.2031 20.3594 54.125
Q24.9062 56.0625 29.3906 56.0625
Q34.125 56.0625 37.3281 55.1094
Q40.5312 54.1562 44.0938 52.2031
L44.6719 54.5469
L53.2656 54.5469
z

M44.0938 14.9844
L44.0938 44.7344
Q40.4375 46.3906 37.2812 47.0938
Q34.125 47.7969 31 47.7969
Q23.4375 47.7969 19.0938 42.7188
Q14.75 37.6406 14.75 27.9844
Q14.75 18.7969 17.9688 14.0625
Q21.1875 9.32812 28.6562 9.32812
Q32.6719 9.32812 36.6875 10.8594
Q40.7188 12.4062 44.0938 14.9844" id="Verdana-67"/>
    </defs>
    <g transform="translate(228.8745 38.2)scale(0.144 -0.144)">
     <use xlink:href="#Verdana-4c"/>
     <use x="55.6640625" xlink:href="#Verdana-61"/>
     <use x="115.72265625" xlink:href="#Verdana-6e"/>
     <use x="179.00390625" xlink:href="#Verdana-67"/>
     <use x="241.30859375" xlink:href="#Verdana-65"/>
     <use x="300.87890625" xlink:href="#Verdana-72"/>
     <use x="343.5546875" xlink:href="#Verdana-6d"/>
     <use x="440.8203125" xlink:href="#Verdana-61"/>
     <use x="500.87890625" xlink:href="#Verdana-6e"/>
     <use x="564.16015625" xlink:href="#Verdana-6e"/>
     <use x="627.44140625" xlink:href="#Verdana-20"/>
     <use x="662.59765625" xlink:href="#Verdana-4d"/>
     <use x="746.875" xlink:href="#Verdana-65"/>
     <use x="806.4453125" xlink:href="#Verdana-61"/>
     <use x="866.50390625" xlink:href="#Verdana-6e"/>
    </g>
   </g>
   <g id="legend_1">
    <g id="patch_7">
     <path d="
M407.18 159.919
L511.2 159.919
L511.2 50.4
L407.18 50.4
L407.18 159.919
z
" style="fill:#ffffff;stroke:#000000;"/>
    </g>
    <g id="line2d_34">
     <path d="
M417.26 62.0617
L437.42 62.0617" style="fill:none;stroke:#0000ff;stroke-dasharray:6.000000,2.000000;stroke-dashoffset:0.0;"/>
    </g>
    <g id="line2d_35"/>
    <g id="text_18">
     <!-- AMPGO -->
     <defs>
      <path d="
M57.3281 50.7344
Q57.3281 45.9062 55.6406 41.7656
Q53.9531 37.6406 50.9219 34.625
Q47.1719 30.8594 42.0469 28.9688
Q36.9219 27.0938 29.1094 27.0938
L19.4375 27.0938
L19.4375 0
L9.76562 0
L9.76562 72.7031
L29.5 72.7031
Q36.0312 72.7031 40.5781 71.6094
Q45.125 70.5156 48.6406 68.1719
Q52.7812 65.375 55.0469 61.2188
Q57.3281 57.0781 57.3281 50.7344
M47.2656 50.4844
Q47.2656 54.25 45.9375 57.0312
Q44.625 59.8125 41.9375 61.5781
Q39.5938 63.0938 36.5938 63.75
Q33.5938 64.4062 29 64.4062
L19.4375 64.4062
L19.4375 35.3594
L27.5938 35.3594
Q33.4531 35.3594 37.1094 36.4062
Q40.7656 37.4531 43.0625 39.75
Q45.3594 42.0938 46.3125 44.6719
Q47.2656 47.2656 47.2656 50.4844" id="Verdana-50"/>
      <path d="
M70.4062 5.375
Q64.4531 2.64062 57.3906 0.609375
Q50.3438 -1.42188 43.75 -1.42188
Q35.25 -1.42188 28.1719 0.921875
Q21.0938 3.26562 16.1094 7.95312
Q11.0781 12.7031 8.34375 19.7969
Q5.60938 26.9062 5.60938 36.4219
Q5.60938 53.8594 15.7969 63.9375
Q25.9844 74.0312 43.75 74.0312
Q49.9531 74.0312 56.4219 72.5312
Q62.8906 71.0469 70.3594 67.4844
L70.3594 56
L69.4844 56
Q67.9688 57.1719 65.0781 59.0781
Q62.2031 60.9844 59.4219 62.25
Q56.0625 63.7656 51.7812 64.7656
Q47.5156 65.7656 42.0938 65.7656
Q29.8906 65.7656 22.7812 57.9219
Q15.6719 50.0938 15.6719 36.7188
Q15.6719 22.6094 23.0938 14.7656
Q30.5156 6.9375 43.3125 6.9375
Q48 6.9375 52.6562 7.85938
Q57.3281 8.79688 60.8438 10.25
L60.8438 28.0781
L41.3594 28.0781
L41.3594 36.5781
L70.4062 36.5781
z
" id="Verdana-47"/>
      <path d="
M67.0938 0
L56.7812 0
L49.6562 20.2656
L18.2188 20.2656
L11.0781 0
L1.26562 0
L27.7344 72.7031
L40.625 72.7031
z

M46.6875 28.5625
L33.9375 64.2656
L21.1406 28.5625
z
" id="Verdana-41"/>
     </defs>
     <g transform="translate(453.26025 67.10175)scale(0.144 -0.144)">
      <use xlink:href="#Verdana-41"/>
      <use x="68.359375" xlink:href="#Verdana-4d"/>
      <use x="152.63671875" xlink:href="#Verdana-50"/>
      <use x="212.939453125" xlink:href="#Verdana-47"/>
      <use x="290.478515625" xlink:href="#Verdana-4f"/>
     </g>
    </g>
    <g id="line2d_36">
     <path d="
M417.26 83.1015
L437.42 83.1015" style="fill:none;stroke:#008000;stroke-dasharray:1.000000,1.000000;stroke-dashoffset:0.0;"/>
    </g>
    <g id="line2d_37"/>
    <g id="text_19">
     <!-- Anneal -->
     <defs>
      <path d="
M18.3125 0
L9.125 0
L9.125 75.9844
L18.3125 75.9844
z
" id="Verdana-6c"/>
     </defs>
     <g transform="translate(453.26025 88.1415)scale(0.144 -0.144)">
      <use xlink:href="#Verdana-41"/>
      <use x="68.359375" xlink:href="#Verdana-6e"/>
      <use x="131.640625" xlink:href="#Verdana-6e"/>
      <use x="194.921875" xlink:href="#Verdana-65"/>
      <use x="254.4921875" xlink:href="#Verdana-61"/>
      <use x="314.55078125" xlink:href="#Verdana-6c"/>
     </g>
    </g>
    <g id="line2d_38">
     <path d="
M417.26 104.141
L437.42 104.141" style="fill:none;stroke:#ff0000;stroke-dasharray:3.000000,6.000000;stroke-dashoffset:0.0;"/>
    </g>
    <g id="line2d_39"/>
    <g id="text_20">
     <!-- BSA -->
     <defs>
      <path d="
M64.5938 22.3594
Q64.5938 16.9375 62.5469 12.7812
Q60.5 8.64062 57.0312 5.95312
Q52.9375 2.73438 48.0156 1.35938
Q43.1094 0 35.5469 0
L9.76562 0
L9.76562 72.7031
L31.2969 72.7031
Q39.2656 72.7031 43.2188 72.1094
Q47.1719 71.5312 50.7812 69.6719
Q54.7812 67.5781 56.5938 64.2812
Q58.4062 60.9844 58.4062 56.3906
Q58.4062 51.2188 55.7656 47.5781
Q53.125 43.9531 48.7344 41.75
L48.7344 41.3594
Q56.1094 39.8438 60.3438 34.8906
Q64.5938 29.9375 64.5938 22.3594
M48.3438 55.125
Q48.3438 57.7656 47.4531 59.5625
Q46.5781 61.375 44.625 62.5
Q42.3281 63.8125 39.0625 64.125
Q35.7969 64.4531 30.9531 64.4531
L19.4375 64.4531
L19.4375 43.4531
L31.9375 43.4531
Q36.4688 43.4531 39.1562 43.9219
Q41.8438 44.3906 44.1406 45.8438
Q46.4375 47.3125 47.3906 49.625
Q48.3438 51.9531 48.3438 55.125
M54.5469 21.9688
Q54.5469 26.375 53.2188 28.9531
Q51.9062 31.5469 48.4375 33.3438
Q46.0938 34.5781 42.75 34.9375
Q39.4062 35.2969 34.625 35.2969
L19.4375 35.2969
L19.4375 8.25
L32.2344 8.25
Q38.5781 8.25 42.625 8.90625
Q46.6875 9.57812 49.2656 11.3281
Q52 13.2344 53.2656 15.6719
Q54.5469 18.1094 54.5469 21.9688" id="Verdana-42"/>
      <path d="
M62.5938 20.75
Q62.5938 16.5 60.6094 12.3438
Q58.6406 8.20312 55.0781 5.32812
Q51.1719 2.20312 45.9688 0.4375
Q40.7656 -1.3125 33.4531 -1.3125
Q25.5938 -1.3125 19.3125 0.140625
Q13.0312 1.60938 6.54688 4.5
L6.54688 16.6094
L7.23438 16.6094
Q12.75 12.0156 19.9688 9.51562
Q27.2031 7.03125 33.5469 7.03125
Q42.5312 7.03125 47.5312 10.3906
Q52.5469 13.7656 52.5469 19.3906
Q52.5469 24.2188 50.1719 26.5156
Q47.7969 28.8125 42.9688 30.0781
Q39.3125 31.0625 35.0312 31.6875
Q30.7656 32.3281 25.9844 33.2969
Q16.3125 35.3594 11.6406 40.3125
Q6.98438 45.2656 6.98438 53.2188
Q6.98438 62.3594 14.6875 68.1875
Q22.4062 74.0312 34.2812 74.0312
Q41.9375 74.0312 48.3281 72.5625
Q54.7344 71.0938 59.6719 68.9531
L59.6719 57.5156
L58.9844 57.5156
Q54.8281 61.0312 48.0625 63.3438
Q41.3125 65.6719 34.2344 65.6719
Q26.4688 65.6719 21.75 62.4531
Q17.0469 59.2344 17.0469 54.1562
Q17.0469 49.6094 19.3906 47.0156
Q21.7344 44.4375 27.6406 43.0625
Q30.7656 42.3906 36.5156 41.4062
Q42.2812 40.4375 46.2969 39.4062
Q54.3906 37.25 58.4844 32.9062
Q62.5938 28.5625 62.5938 20.75" id="Verdana-53"/>
     </defs>
     <g transform="translate(453.26025 109.18125)scale(0.144 -0.144)">
      <use xlink:href="#Verdana-42"/>
      <use x="68.5546875" xlink:href="#Verdana-53"/>
      <use x="135.9140625" xlink:href="#Verdana-41"/>
     </g>
    </g>
    <g id="line2d_40">
     <path d="
M417.26 125.181
L437.42 125.181" style="fill:none;stroke:#00bfbf;stroke-dasharray:5.000000,1.000000,2.000000,1.000000,5.000000,1.000000;stroke-dashoffset:0.0;"/>
    </g>
    <g id="line2d_41"/>
    <g id="text_21">
     <!-- Cuckoo -->
     <defs>
      <path d="
M58.5469 0
L46.4375 0
L24.5625 23.875
L18.6094 18.2188
L18.6094 0
L9.42188 0
L9.42188 75.9844
L18.6094 75.9844
L18.6094 27.25
L45.125 54.5469
L56.6875 54.5469
L31.3438 29.3438
z
" id="Verdana-6b"/>
      <path d="
M65.9219 5.28125
Q63.2344 4.10938 61.0625 3.07812
Q58.8906 2.04688 55.375 0.921875
Q52.3906 0 48.8906 -0.65625
Q45.4062 -1.3125 41.2188 -1.3125
Q33.2969 -1.3125 26.8281 0.90625
Q20.3594 3.125 15.5781 7.85938
Q10.8906 12.5 8.25 19.6562
Q5.60938 26.8125 5.60938 36.2812
Q5.60938 45.2656 8.14062 52.3438
Q10.6875 59.4219 15.4844 64.3125
Q20.125 69.0469 26.6875 71.5312
Q33.25 74.0312 41.2656 74.0312
Q47.125 74.0312 52.9531 72.6094
Q58.7969 71.1875 65.9219 67.625
L65.9219 56.1562
L65.1875 56.1562
Q59.1875 61.1875 53.2656 63.4688
Q47.3594 65.7656 40.625 65.7656
Q35.1094 65.7656 30.6875 63.9844
Q26.2656 62.2031 22.7969 58.4531
Q19.4375 54.7812 17.5469 49.1875
Q15.6719 43.6094 15.6719 36.2812
Q15.6719 28.6094 17.75 23.0938
Q19.8281 17.5781 23.0938 14.1094
Q26.5156 10.5 31.0781 8.76562
Q35.6406 7.03125 40.7188 7.03125
Q47.7031 7.03125 53.7969 9.42188
Q59.9062 11.8125 65.2344 16.6094
L65.9219 16.6094
z
" id="Verdana-43"/>
     </defs>
     <g transform="translate(453.26025 130.221)scale(0.144 -0.144)">
      <use xlink:href="#Verdana-43"/>
      <use x="69.82421875" xlink:href="#Verdana-75"/>
      <use x="133.10546875" xlink:href="#Verdana-63"/>
      <use x="185.205078125" xlink:href="#Verdana-6b"/>
      <use x="243.384765625" xlink:href="#Verdana-6f"/>
      <use x="304.078125" xlink:href="#Verdana-6f"/>
     </g>
    </g>
    <g id="line2d_42">
     <path d="
M417.26 146.221
L437.42 146.221" style="fill:none;stroke:#bf00bf;stroke-linecap:square;"/>
    </g>
    <g id="line2d_43"/>
    <g id="text_22">
     <!-- qABC -->
     <defs>
      <path d="
M53.2656 -20.125
L44.0938 -20.125
L44.0938 6.15625
Q39.8438 2.48438 35.6406 0.703125
Q31.4531 -1.07812 26.5625 -1.07812
Q16.8438 -1.07812 11.0625 6.42188
Q5.28125 13.9219 5.28125 27.0938
Q5.28125 34.125 7.29688 39.5156
Q9.32812 44.9219 12.6406 48.5781
Q15.875 52.1562 20.2188 54.1094
Q24.5625 56.0625 29.3906 56.0625
Q33.7969 56.0625 37.1875 55.0781
Q40.5781 54.1094 44.0938 52.2031
L44.6719 54.5469
L53.2656 54.5469
z

M44.0938 13.875
L44.0938 44.7344
Q40.2812 46.4375 37.3438 47.1094
Q34.4219 47.7969 31 47.7969
Q23.0469 47.7969 18.8906 42.4062
Q14.75 37.0156 14.75 27.5469
Q14.75 17.9688 18.0938 12.8125
Q21.4375 7.67188 28.6094 7.67188
Q32.625 7.67188 36.625 9.40625
Q40.625 11.1406 44.0938 13.875" id="Verdana-71"/>
     </defs>
     <g transform="translate(453.26025 151.26075)scale(0.144 -0.144)">
      <use xlink:href="#Verdana-71"/>
      <use x="62.3046875" xlink:href="#Verdana-41"/>
      <use x="130.6640625" xlink:href="#Verdana-42"/>
      <use x="199.21875" xlink:href="#Verdana-43"/>
     </g>
    </g>
   </g>
  </g>
 </g>
 <defs>
  <clipPath id="p7ff5b81e1d">
   <rect height="345.6" width="446.4" x="72.0" y="43.2"/>
  </clipPath>
 </defs>
</svg>
