<?xml version="1.0" encoding="utf-8" standalone="no"?>
<!DOCTYPE svg PUBLIC "-//W3C//DTD SVG 1.1//EN"
  "http://www.w3.org/Graphics/SVG/1.1/DTD/svg11.dtd">
<!-- Created with matplotlib (http://matplotlib.org/) -->
<svg height="432pt" version="1.1" viewBox="0 0 576 432" width="576pt" xmlns="http://www.w3.org/2000/svg" xmlns:xlink="http://www.w3.org/1999/xlink">
 <defs>
  <style type="text/css">
*{stroke-linecap:butt;stroke-linejoin:round;}
  </style>
 </defs>
 <g id="figure_1">
  <g id="patch_1">
   <path d="
M0 432
L576 432
L576 0
L0 0
z
" style="fill:#ffffff;"/>
  </g>
  <g id="axes_1">
   <g id="patch_2">
    <path d="
M72 388.8
L518.4 388.8
L518.4 43.2
L72 43.2
z
" style="fill:#ffffff;"/>
   </g>
   <g id="line2d_1">
    <path clip-path="url(#p7ff5b81e1d)" d="
M72 302.569
L72.0893 335.045
L72.1786 348.437
L72.4464 366.256
L72.8035 374.692
L73.2499 379.471
L73.6963 382.044
L74.232 382.787
L74.5891 383.228
L75.2141 384.154
L75.3034 62.7208
L75.3926 64.016
L75.4819 65.7966
L76.9104 160.812
L77.4461 198.371
L77.8925 216.409
L78.3389 238.054
L78.696 250.533
L78.8746 257.062
L80.0352 322.295
L80.1245 322.186
L81.1958 352.851
L81.6422 357.351
L81.7315 352.783
L81.8208 353.729
L82.3565 361.052
L82.6243 364.172
L83.0707 370.02
L83.2493 371.877
L83.3386 364.237
L83.4278 364.961
L83.8742 368.108
L84.4099 371.261
L84.6778 371.764
L84.8563 372.128
L84.9456 362.64
L85.0349 362.904
L85.3027 363.262
L85.6598 364.447
L86.4634 365.95
L86.5526 354.678
L86.6419 354.935
L87.4454 356.24
L87.8026 356.557
L88.0704 356.914
L88.1597 346.234
L88.249 346.298
L88.8739 346.701
L89.1418 346.883
L89.6774 347.228
L89.7667 340.895
L89.856 340.926
L90.5702 341.345
L90.8381 341.472
L91.2845 341.695
L91.3738 336.995
L91.463 337.009
L92.4451 337.281
L92.8915 337.394
L92.9808 333.627
L93.0701 333.674
L94.32 334.192
L94.4986 334.276
L94.5878 328.759
L94.6771 328.79
L95.1235 329.043
L96.1056 329.304
L96.1949 320.817
L96.2842 320.837
L96.9091 321.02
L97.7126 321.44
L97.8019 314.021
L97.8912 314.076
L98.2483 314.221
L99.3197 314.527
L99.409 307.573
L99.4982 307.614
L100.391 308.011
L100.837 308.166
L100.927 308.202
L101.016 300.618
L101.105 300.625
L101.552 300.787
L101.82 300.977
L102.534 301.281
L102.623 291.66
L102.712 291.68
L103.248 291.865
L103.784 291.955
L104.141 292.174
L104.23 280.674
L104.319 280.703
L104.766 280.816
L105.748 281.187
L105.837 264.113
L105.926 264.164
L107.355 264.846
L107.444 244.595
L107.533 244.661
L107.801 244.772
L108.158 245.113
L108.426 245.306
L108.962 245.661
L109.051 216.052
L109.14 216.074
L109.676 216.348
L109.944 216.402
L110.123 216.577
L110.301 216.705
L110.569 216.958
L110.658 184.335
L110.748 184.437
L111.015 184.539
L111.462 185.02
L111.73 185.123
L111.997 185.326
L112.176 185.502
L112.265 151.109
L112.355 151.138
L112.801 151.349
L113.247 151.48
L113.426 151.596
L113.694 151.762
L113.783 151.793
L113.872 126.109
L113.962 126.116
L114.14 126.411
L115.212 126.759
L115.39 126.81
L115.479 108.217
L115.569 108.237
L116.997 108.825
L117.086 98.5384
L117.176 98.5392
L118.158 98.7382
L118.515 98.8395
L118.604 98.8657
L118.693 88.9651
L118.783 88.9713
L119.408 89.0648
L119.676 89.2142
L120.211 89.4265
L120.3 83.3317
L120.39 83.3361
L121.55 83.4682
L121.729 83.6071
L121.818 83.6112
L121.908 80.6245
L121.997 80.6346
L123.425 80.7971
L123.604 79.685
L124.229 79.808
L124.943 79.8425
L125.032 79.8481
L125.122 78.7536
L125.211 78.7951
L125.836 78.9138
L126.639 79.0106
L126.818 77.8756
L127.175 77.9704
L127.621 78.1645
L128.246 78.1862
L128.336 77.3875
L128.425 77.4437
L129.586 77.5997
L129.853 77.7162
L130.032 76.872
L130.925 77.0666
L131.46 77.1674
L131.639 76.2868
L132.889 76.4808
L133.068 76.551
L133.246 76.0699
L134.317 76.2312
L134.675 76.2689
L134.853 75.8989
L135.389 75.9808
L135.835 76.04
L136.282 76.0986
L136.46 75.5438
L137.264 75.7086
L137.889 75.774
L138.067 75.5108
L139.496 75.6857
L139.674 75.2215
L141.103 75.3837
L141.281 75.0706
L142.71 75.1473
L142.888 74.5498
L144.317 74.7425
L144.495 74.0646
L145.924 74.1707
L146.102 74.0157
L147.352 74.1519
L147.531 74.2243
L147.709 73.7976
L148.424 73.8949
L149.138 73.9748
L149.316 73.5743
L150.12 73.652
L150.477 73.7302
L150.745 73.7419
L150.924 73.2935
L152.352 73.6874
L152.531 73.4838
L153.156 73.5234
L155.12 73.5947
L155.388 73.6444
L155.566 73.6531
L155.745 73.562
L156.37 73.6125
L156.727 73.7537
L157.173 73.8489
L157.352 73.5366
L157.977 73.6492
L158.155 73.6599
L158.334 73.9331
L158.602 74.0117
L158.78 74.0118
L158.959 73.8428
L159.494 73.9457
L161.012 74.0494
L161.369 74.246
L162.619 74.3988
L163.869 74.4967
L165.208 74.6342
L165.387 74.5095
L166.101 74.6087
L166.815 74.712
L166.905 74.2799
L166.994 74.3697
L168.244 74.5508
L168.422 74.5774
L168.601 74.34
L170.029 74.6182
L170.208 74.5102
L170.744 74.684
L171.636 74.7944
L171.726 74.3479
L171.815 74.4172
L173.244 74.6272
L173.422 74.0312
L174.136 74.1978
L175.833 74.3015
L176.458 74.3764
L176.636 74.2011
L177.172 74.2867
L177.44 74.3594
L177.886 74.3854
L178.065 74.7363
L178.243 74.6191
L178.69 74.7349
L179.672 74.8769
L179.85 74.7227
L180.564 74.81
L180.922 74.8561
L182.529 74.9667
L182.796 75.0535
L182.886 75.0604
L183.064 74.8889
L184.136 75.0003
L184.493 75.0563
L184.671 74.8728
L184.939 74.9342
L185.475 75.0362
L186.278 75.1131
L186.993 75.1881
L187.171 75.318
L187.707 75.3436
L187.885 75.2284
L188.868 75.3334
L189.225 75.3777
L189.939 75.4684
L190.653 75.7729
L191.814 75.9735
L191.992 76.0826
L193.421 76.189
L194.135 76.3972
L194.314 76.2811
L195.206 76.3899
L195.831 76.5023
L196.456 76.6109
L196.903 76.8148
L197.081 76.835
L197.26 77.0424
L198.599 77.2321
L198.956 77.2639
L199.135 76.9667
L200.117 77.1094
L201.367 77.148
L201.545 77.3132
L203.331 77.4011
L203.688 77.4684
L205.384 77.6194
L205.563 77.2427
L206.813 77.3359
L206.991 77.3664
L207.17 77.2349
L210.563 77.638
L210.83 77.7411
L211.277 77.8277
L211.991 77.8456
L212.17 78.2606
L213.33 78.3664
L213.777 78.4042
L214.848 78.4973
L215.116 78.501
L215.741 78.5934
L217.169 78.9303
L218.241 79.0122
L218.598 79.0714
L219.669 79.1717
L219.937 79.2144
L220.651 79.2901
L220.919 79.3346
L223.062 79.5416
L223.24 79.3834
L223.687 79.4332
L223.955 79.5374
L225.562 79.7763
L226.276 79.782
L226.454 79.6437
L227.704 79.7034
L227.883 79.7661
L228.061 79.6571
L229.936 79.7657
L230.383 79.7944
L231.008 79.9561
L231.097 80.019
L231.276 79.6919
L231.722 79.7327
L232.436 79.7966
L232.615 79.8703
L234.043 79.9717
L234.311 80.0314
L234.4 79.8304
L234.49 79.875
L236.989 80.2342
L237.168 80.4126
L238.239 80.5171
L238.596 80.5744
L239.221 80.6831
L241.275 80.9098
L245.917 81.2508
L246.364 81.2768
L248.328 81.3798
L248.953 81.4035
L249.846 81.4652
L250.024 81.5881
L252.078 81.6438
L252.256 81.7418
L253.417 81.8521
L255.381 82.0948
L255.828 82.0749
L256.006 82.1922
L257.167 82.2884
L257.702 82.3093
L259.22 82.4027
L259.577 82.4788
L259.756 82.4788
L259.934 82.9356
L261.631 82.9672
L261.809 82.8083
L263.952 82.8844
L264.309 83.0038
L266.809 83.1025
L267.166 83.1333
L269.22 83.1926
L269.398 83.3596
L271.184 83.4283
L271.362 83.5826
L273.059 83.6764
L273.505 83.715
L273.684 83.715
L273.862 83.9982
L275.201 84.1481
L276.183 84.2398
L276.63 84.2904
L277.88 84.3986
L278.505 84.4522
L281.719 84.5632
L286.093 84.7739
L286.272 84.7055
L286.451 84.9576
L286.629 84.8584
L287.254 84.9556
L287.968 85.0246
L288.95 85.1095
L289.308 85.1399
L289.575 85.1399
L289.754 84.9895
L291.807 85.0851
L292.254 85.1871
L295.289 85.2921
L295.557 85.3615
L298.593 85.4616
L299.575 85.5475
L300.2 85.5475
L300.378 85.8151
L302.342 85.9995
L303.503 86.108
L304.128 86.241
L309.574 86.5607
L309.753 86.7452
L312.074 86.835
L312.61 86.8677
L313.324 86.9781
L313.502 87.1454
L314.127 87.2443
L315.377 87.4213
L316.359 87.4512
L316.538 87.6744
L317.877 87.7018
L318.056 87.5371
L325.912 87.807
L326.091 87.6946
L328.501 87.798
L328.68 87.9961
L331.448 88.0905
L332.162 88.1754
L335.465 88.2844
L335.644 88.4442
L336.983 88.5465
L342.429 88.9791
L343.322 89.0519
L343.679 89.0924
L347.161 89.1546
L347.34 89.5542
L348.411 89.5542
L348.589 89.4396
L349.393 89.4517
L350.018 89.4525
L350.196 89.2317
L351.446 89.3028
L351.625 89.4029
L351.982 89.3649
L353.232 89.4041
L353.411 89.2429
L353.678 89.3109
L353.857 89.5393
L357.428 89.6474
L358.767 89.7728
L358.946 89.6974
L359.392 89.7834
L359.839 89.8115
L362.517 89.898
L363.053 89.9301
L363.499 89.9301
L363.678 90.1483
L366.892 90.2516
L369.302 90.3903
L370.909 90.4854
L371.624 90.5091
L373.588 90.6152
L375.731 90.6944
L376.802 90.8031
L377.07 90.845
L377.784 90.8688
L377.963 90.9743
L380.82 91.0768
L382.962 91.2313
L388.14 91.3347
L388.765 91.3878
L390.997 91.4268
L391.176 91.531
L394.747 91.6073
L395.104 91.6439
L396.176 91.6844
L396.354 91.8775
L397.426 91.9204
L397.693 91.9908
L403.229 92.3155
L403.497 92.3565
L403.764 92.376
L403.943 92.5116
L405.104 92.6107
L405.282 92.689
L411.71 92.7792
L411.978 92.8251
L416.532 92.9332
L417.692 93.0039
L420.013 93.0974
L420.638 93.115
L428.763 93.2218
L429.388 93.2777
L430.191 93.2777
L430.37 93.4679
L433.584 93.5675
L434.12 93.6172
L436.173 93.6874
L436.352 93.7831
L438.584 93.86
L438.762 93.9716
L439.923 94.0789
L440.28 94.1331
L443.762 94.2292
L444.387 94.2487
L448.047 94.3404
L448.315 94.3973
L450.547 94.4167
L450.726 94.889
L456.618 95
L457.332 95.1241
L460.904 95.2228
L461.172 95.2751
L462.511 95.3279
L462.689 95.4717
L463.314 95.5244
L467.868 95.6307
L469.117 95.6414
L470.814 95.6718
L470.992 95.8139
L475.367 95.8927
L475.546 95.98
L477.331 96.0859
L478.67 96.1314
L485.277 96.2383
L487.241 96.2689
L492.152 96.3565
L492.598 96.3935
L500.365 96.4849
L500.544 96.6321
L504.562 96.7174
L504.829 96.7773
L514.204 96.8567
L514.382 96.9582
L518.043 97.0404
L518.311 97.0805
L518.311 97.0805" style="fill:none;stroke:#0000ff;stroke-dasharray:6.000000,2.000000;stroke-dashoffset:0.0;"/>
   </g>
   <g id="line2d_2">
    <path clip-path="url(#p7ff5b81e1d)" d="
M72 319.006
L72.0893 343.528
L72.1786 352.624
L72.3571 359.553
L72.8928 363.052
L73.2499 358.475
L73.3392 358.233
L73.7856 347.931
L74.4106 326.752
L75.2141 281.79
L75.3034 362.344
L75.3926 360.891
L75.5712 356.315
L75.9283 345.829
L76.3747 335.227
L76.9104 311.679
L77.3568 294.701
L77.8925 267.174
L78.2496 242.637
L78.5174 230.387
L79.321 190.289
L80.0352 174.722
L80.1245 175.294
L80.5709 166.018
L80.7494 164.502
L80.8387 164.526
L81.1066 154.363
L81.553 139.558
L81.6422 138.029
L81.7315 139.212
L82.1779 124.493
L82.4458 116.249
L82.8029 110.349
L82.8922 110.389
L83.0707 110.911
L83.16 112.41
L83.2493 111.912
L83.4278 120.156
L83.785 123.068
L83.9635 122.34
L84.0528 122.493
L84.1421 122.269
L84.2314 122.573
L84.4099 125.773
L84.8563 119.974
L84.9456 125.297
L85.1242 122.034
L85.2134 121.292
L86.1062 102.695
L86.1955 101.395
L86.3741 101.777
L86.4634 101.451
L86.5526 112.063
L86.6419 111.632
L86.9098 113.963
L86.999 113.342
L87.2669 116.425
L87.3562 116.38
L87.4454 116.452
L87.624 117.616
L87.7133 117.095
L87.8026 118.686
L87.8918 118.382
L87.9811 118.282
L88.0704 115.725
L88.1597 123.286
L88.249 122.295
L89.6774 108.405
L89.7667 112.999
L89.856 112.793
L90.1238 114.565
L90.2131 114.357
L90.3024 114.32
L90.7488 116.827
L90.8381 116.8
L91.1059 119.783
L91.1952 120.138
L91.2845 120.951
L91.463 125.283
L91.5523 125.405
L91.6416 125.263
L92.5344 117.987
L92.6237 118.056
L92.713 117.899
L92.8915 116.488
L92.9808 119.257
L93.3379 116.318
L93.4272 116.37
L93.5165 115.982
L93.6058 116.98
L93.695 116.835
L93.7843 116.707
L93.8736 116.21
L94.2307 116.964
L94.32 116.94
L94.4986 117.027
L94.5878 121.567
L94.6771 121.346
L94.8557 123.072
L94.945 122.309
L95.1235 123.869
L95.3914 122.491
L95.4806 122.385
L96.1056 118.958
L96.1949 125.551
L96.2842 125.193
L96.3734 125.02
L96.6413 123.428
L97.0877 122.482
L97.2662 123.356
L97.3555 122.266
L97.4448 122.474
L97.7126 122.746
L97.8019 129.772
L97.8912 129.521
L98.159 130.174
L98.4269 129.491
L98.6947 130.369
L98.8733 130.081
L98.9626 130.014
L99.3197 127.995
L99.409 133.585
L99.4982 133.064
L100.123 130.375
L100.212 130.486
L100.48 129.572
L100.659 130.064
L100.748 129.927
L100.837 129.786
L100.927 129.924
L101.105 136.668
L101.195 137.345
L101.462 136.576
L101.552 136.721
L101.641 135.911
L101.73 135.932
L101.82 135.394
L101.909 135.536
L102.087 134.64
L102.177 134.619
L102.266 134.778
L102.355 134.577
L102.534 133.842
L102.623 141.885
L102.712 141.774
L102.98 140.853
L103.069 140.717
L103.337 139.811
L103.427 139.715
L103.605 139.123
L103.873 138.792
L104.052 137.744
L104.141 138.515
L104.319 149.825
L104.498 150.012
L104.676 150.42
L104.766 150.295
L105.123 150.545
L105.48 150.092
L105.748 150.892
L105.837 165.602
L105.926 165.345
L106.373 164.411
L106.462 164.376
L106.641 163.955
L106.73 164.076
L106.908 163.942
L107.176 163.454
L107.355 162.518
L107.444 179.874
L107.533 179.679
L107.623 179.691
L107.712 179.549
L107.891 179.825
L108.158 179.345
L108.248 179.617
L108.426 179.156
L108.516 179.757
L108.605 179.468
L108.694 180.183
L108.873 179.774
L108.962 179.968
L109.051 205.677
L109.14 205.618
L109.498 204.934
L109.587 204.895
L109.855 204.56
L109.944 204.483
L110.123 203.859
L110.212 203.8
L110.569 202.986
L110.658 231.471
L110.748 231.262
L110.926 231.306
L111.283 230.176
L111.462 230.497
L111.997 230.239
L112.176 230.36
L112.355 260.576
L112.622 260.288
L113.069 260.503
L113.158 260.504
L113.783 259.496
L113.962 282.177
L114.229 281.644
L114.408 281.599
L114.587 281.289
L114.676 281.22
L114.854 280.972
L114.944 280.969
L115.122 280.806
L115.212 280.875
L115.301 280.76
L115.39 280.86
L115.479 297.479
L115.569 297.4
L115.836 297.258
L116.461 296.454
L116.64 296.591
L116.908 296.279
L116.997 296.238
L117.086 305.404
L117.176 305.401
L117.533 305.251
L117.711 305.078
L118.158 304.856
L118.426 304.656
L118.515 304.629
L118.604 304.829
L118.693 313.614
L118.783 313.61
L119.408 313.452
L119.586 313.302
L119.765 313.39
L120.033 313.142
L120.211 313.107
L120.3 318.535
L120.39 318.514
L121.55 318.08
L121.729 317.846
L121.818 317.815
L121.908 320.448
L121.997 320.415
L122.265 320.508
L122.532 320.385
L123.425 320.295
L123.515 321.329
L123.604 321.311
L123.872 321.331
L124.14 321.116
L124.318 320.904
L125.032 320.852
L125.122 321.802
L125.211 321.729
L125.568 321.555
L125.747 321.66
L126.014 321.73
L126.193 321.683
L126.282 321.936
L126.372 321.883
L126.639 321.878
L126.818 322.819
L127.532 322.843
L127.711 322.738
L127.979 322.668
L128.246 322.637
L128.336 323.354
L128.425 323.277
L129.139 323.079
L129.318 323.023
L129.853 322.678
L130.032 323.485
L130.568 323.228
L131.193 323.127
L131.46 322.96
L131.639 323.751
L132.71 323.274
L133.068 323.02
L133.246 323.469
L134.675 323.264
L134.853 323.551
L135.21 323.464
L135.567 323.31
L136.103 323.272
L136.282 323.199
L136.371 323.774
L136.46 323.751
L137.264 323.659
L137.442 323.751
L137.71 323.663
L137.889 323.68
L138.067 323.892
L138.692 323.792
L138.871 323.627
L139.496 323.498
L139.674 323.915
L140.031 323.938
L140.21 323.949
L140.388 324.087
L140.656 324.168
L140.924 324.164
L141.103 324.197
L141.281 324.46
L141.817 324.355
L142.174 324.306
L142.71 324.256
L142.888 324.802
L144.138 324.501
L144.317 324.434
L144.406 325.066
L144.495 325.052
L144.852 325.051
L147.531 324.921
L147.62 325.341
L147.709 325.322
L148.067 325.298
L148.245 325.21
L148.513 325.112
L148.781 325.035
L149.138 324.979
L149.316 325.347
L150.12 325.262
L150.477 325.136
L150.745 325.083
L150.834 325.501
L150.924 325.475
L151.37 325.444
L151.548 325.478
L151.816 325.375
L152.263 325.516
L152.352 325.427
L152.531 325.6
L153.156 325.528
L153.87 325.426
L153.959 325.407
L154.138 325.584
L154.316 325.539
L155.12 325.37
L155.566 325.332
L155.745 325.395
L156.37 325.306
L156.548 325.206
L156.995 325.049
L157.173 325.001
L157.352 325.274
L157.977 325.11
L158.155 325.105
L158.334 324.764
L158.512 324.694
L158.959 324.97
L160.387 324.668
L160.566 324.723
L161.012 324.617
L161.369 324.386
L161.905 324.212
L163.869 324.015
L165.119 323.801
L165.208 323.801
L165.387 323.924
L165.655 323.914
L166.815 323.777
L166.905 324.147
L167.083 323.998
L167.53 323.981
L167.887 323.9
L168.155 323.785
L168.422 323.723
L168.601 323.932
L168.69 323.894
L168.869 324.011
L169.851 323.862
L170.297 323.806
L170.654 323.648
L171.636 323.426
L171.726 323.922
L171.815 323.834
L171.904 323.819
L172.083 323.914
L172.351 323.851
L172.619 323.789
L173.244 323.693
L173.422 324.357
L174.136 324.124
L174.672 324.055
L174.851 323.98
L175.029 324.076
L175.476 323.889
L175.833 323.846
L176.1 323.957
L176.368 323.984
L176.458 323.939
L176.636 324.188
L176.904 324.117
L177.35 323.985
L177.797 323.913
L177.886 323.914
L178.065 323.537
L178.243 323.637
L178.6 323.462
L179.672 323.424
L179.85 323.557
L181.011 323.472
L181.279 323.387
L181.993 323.349
L182.35 323.29
L182.796 323.184
L182.886 323.173
L183.064 323.335
L183.6 323.257
L184.493 323.182
L184.671 323.328
L184.939 323.256
L189.76 322.696
L190.207 322.509
L190.475 322.303
L190.742 322.273
L190.921 322.316
L191.189 322.361
L191.724 322.272
L192.082 322.008
L193.778 321.779
L193.867 321.773
L194.046 321.605
L194.135 321.546
L194.314 321.699
L194.581 321.599
L195.117 321.571
L195.474 321.524
L195.742 321.319
L195.921 321.396
L196.546 321.146
L197.081 320.906
L197.26 320.679
L197.349 320.666
L197.528 320.77
L197.885 320.717
L197.974 320.717
L198.153 320.577
L198.42 320.515
L198.956 320.471
L199.135 320.743
L199.581 320.683
L200.028 320.588
L200.563 320.48
L201.367 320.545
L201.545 320.366
L202.884 320.298
L204.402 320.147
L204.67 320.191
L205.384 319.921
L205.563 320.274
L206.724 320.203
L206.991 320.109
L207.17 320.231
L209.759 319.828
L210.027 319.736
L210.205 319.841
L210.563 319.782
L210.741 319.655
L211.098 319.556
L211.723 319.534
L211.991 319.509
L212.17 319.058
L212.705 318.971
L212.973 318.926
L214.044 318.846
L214.491 318.778
L215.294 318.676
L217.705 318.107
L218.241 318.008
L218.508 317.93
L219.401 317.821
L219.937 317.738
L220.651 317.639
L220.919 317.576
L223.062 317.299
L223.24 317.433
L223.687 317.358
L224.044 317.225
L224.49 317.168
L224.758 317.027
L227.704 316.979
L227.883 316.901
L228.061 316.996
L229.936 316.92
L230.293 316.882
L230.918 316.899
L231.097 316.696
L231.276 317.008
L231.633 316.959
L232.436 316.875
L232.615 316.785
L233.24 316.693
L233.418 316.693
L234.311 316.614
L234.4 316.806
L234.49 316.753
L236.275 316.533
L236.454 316.462
L236.632 316.409
L236.9 316.295
L236.989 316.295
L237.168 316.102
L237.793 316.018
L238.239 315.987
L238.864 315.983
L239.311 315.916
L239.579 315.829
L240.114 315.775
L240.561 315.68
L240.828 315.631
L243.06 315.543
L243.775 315.408
L244.31 315.452
L244.489 315.527
L245.382 315.4
L247.257 315.206
L249.132 315.095
L249.399 315.041
L249.846 315.006
L250.024 314.871
L252.078 314.799
L252.256 314.693
L253.149 314.585
L253.506 314.523
L254.22 314.485
L254.399 314.374
L255.56 314.351
L255.828 314.351
L255.917 314.217
L256.095 314.33
L256.631 314.239
L256.988 314.207
L258.149 314.148
L258.417 314.053
L259.756 313.946
L259.934 313.471
L260.381 313.582
L260.559 313.576
L261.631 313.536
L261.809 313.688
L262.97 313.613
L263.238 313.558
L263.595 313.607
L263.952 313.543
L264.22 313.434
L264.488 313.382
L269.22 313.32
L269.398 313.149
L271.184 313.049
L271.362 312.878
L272.969 312.768
L273.684 312.706
L273.862 312.407
L274.933 312.23
L277.255 312.133
L277.701 312.068
L280.826 311.959
L281.897 311.862
L283.683 311.777
L284.04 311.717
L285.111 311.612
L285.826 311.578
L286.272 311.641
L286.451 311.376
L286.629 311.472
L287.254 311.361
L287.879 311.251
L288.772 311.257
L289.04 311.123
L289.575 311.124
L289.754 311.269
L290.647 311.171
L291.093 311.144
L292.075 311.041
L292.432 311.004
L294.486 310.964
L294.664 310.865
L295.289 310.874
L295.557 310.789
L297.968 310.697
L298.325 310.666
L299.307 310.605
L299.575 310.53
L300.2 310.53
L300.378 310.26
L302.164 310.067
L303.057 309.972
L303.414 309.935
L303.949 309.865
L304.128 309.779
L305.289 309.737
L306.092 309.713
L306.271 309.582
L309.574 309.481
L309.753 309.292
L313.235 309.205
L313.681 308.852
L314.752 308.75
L315.288 308.598
L316.359 308.612
L316.538 308.376
L317.877 308.337
L318.056 308.485
L321.091 308.178
L321.27 308.345
L322.163 308.237
L323.234 308.119
L323.412 308.205
L328.501 308.128
L328.68 307.919
L330.198 307.838
L330.466 307.793
L331.894 307.712
L332.251 307.674
L334.572 307.569
L335.197 307.521
L335.465 307.518
L335.644 307.354
L336.804 307.267
L337.251 307.193
L338.322 307.151
L338.501 306.977
L340.554 306.896
L340.911 306.859
L341.536 306.791
L341.804 306.743
L347.161 306.706
L347.34 306.302
L348.411 306.302
L348.589 306.408
L349.214 306.39
L350.018 306.388
L350.196 306.595
L351.446 306.505
L351.625 306.396
L351.982 306.433
L353.678 306.454
L353.857 306.198
L357.25 306.088
L357.696 306.035
L359.392 305.926
L360.107 305.906
L363.499 305.818
L363.678 305.598
L366.088 305.529
L366.356 305.479
L375.909 304.906
L376.177 304.794
L377.338 304.715
L377.695 304.682
L378.855 304.571
L384.391 304.236
L388.14 304.138
L388.676 304.074
L390.997 304.031
L391.176 303.919
L394.747 303.825
L395.015 303.784
L396.176 303.735
L396.354 303.531
L397.426 303.484
L397.604 303.403
L401.711 303.322
L402.515 303.156
L403.764 303.045
L403.943 302.905
L406.532 302.803
L406.711 302.727
L413.228 302.642
L413.496 302.575
L416.978 302.475
L417.335 302.441
L419.121 302.338
L420.103 302.303
L427.781 302.208
L428.138 302.169
L430.191 302.151
L430.37 301.949
L433.138 301.891
L433.316 301.818
L435.459 301.781
L435.637 301.702
L438.316 301.591
L438.494 301.514
L438.584 301.514
L438.762 301.427
L439.566 301.38
L439.834 301.313
L440.905 301.23
L441.084 301.146
L445.726 301.037
L446.172 301.008
L450.547 300.939
L450.726 300.46
L457.065 300.409
L457.243 300.312
L460.011 300.221
L460.368 300.188
L461.529 300.113
L461.796 300.065
L462.511 300.055
L462.689 299.898
L463.046 299.858
L463.404 299.829
L467.243 299.757
L467.51 299.707
L474.028 299.608
L474.296 299.555
L475.367 299.51
L475.546 299.414
L476.974 299.393
L477.153 299.297
L482.777 299.211
L483.224 299.141
L487.509 299.036
L488.134 298.99
L492.33 298.885
L493.223 298.841
L500.365 298.755
L500.544 298.597
L504.562 298.497
L504.74 298.42
L514.204 298.322
L514.382 298.219
L518.043 298.128
L518.311 298.086
L518.311 298.086" style="fill:none;stroke:#008000;stroke-dasharray:1.000000,1.000000;stroke-dashoffset:0.0;"/>
   </g>
   <g id="line2d_3">
    <path clip-path="url(#p7ff5b81e1d)" d="
M72 319.437
L72.0893 296.726
L72.1786 289.215
L72.2678 282.335
L72.3571 285.496
L72.4464 284.962
L72.625 280.86
L73.0714 267.687
L73.1606 269.283
L73.3392 266.632
L73.4285 266.199
L73.607 269.995
L73.7856 271.236
L73.9642 270.223
L74.1427 270.688
L74.5891 277.534
L74.6784 277.159
L74.7677 277.904
L75.2141 286.856
L75.3926 376.821
L75.4819 376.896
L75.5712 376.478
L76.1069 377.627
L76.5533 378.277
L76.6426 378.167
L76.7318 377.643
L77.2675 379.517
L78.1603 380.747
L78.3389 380.745
L80.8387 386.493
L81.1958 386.767
L81.6422 386.96
L81.9101 387.014
L82.1779 387.223
L82.4458 387.406
L82.535 387.24
L83.16 387.76
L84.3206 388.252
L84.4992 387.573
L85.392 387.727
L85.5706 387.386
L87.3562 387.715
L95.3914 388.233
L95.5699 388.169
L95.7485 388.055
L103.784 388.378
L103.962 388.281
L105.659 388.346
L105.748 388.145
L105.837 388.19
L110.748 388.504
L110.926 388.372
L122.711 388.692
L123.693 388.689
L171.904 388.627
L172.083 388.481
L173.333 388.406
L173.601 388.367
L180.386 388.272
L180.832 388.247
L239.132 388.316
L239.311 388.247
L241.989 388.262
L302.878 388.37
L306.36 388.385
L315.734 388.318
L316.002 388.257
L342.786 388.268
L342.965 388.099
L373.499 388.209
L378.052 388.232
L455.1 388.161
L455.279 388.068
L518.311 388.096
L518.311 388.096" style="fill:none;stroke:#ff0000;stroke-dasharray:3.000000,6.000000;stroke-dashoffset:0.0;"/>
   </g>
   <g id="line2d_4">
    <path clip-path="url(#p7ff5b81e1d)" d="
M72 314.549
L72.0893 300.126
L72.2678 286.868
L72.625 277.357
L72.8928 282.694
L72.9821 279.92
L73.0714 280.383
L73.1606 280.824
L73.5178 287.337
L73.607 287.187
L73.6963 287.567
L74.232 298.049
L74.3213 298.673
L75.1248 314.192
L75.2141 316.228
L75.3926 381.867
L75.6605 382.023
L75.7498 381.908
L75.839 381.456
L76.0176 381.776
L76.2854 381.364
L76.464 379.877
L76.5533 379.822
L77.5354 382.143
L78.071 382.997
L78.4282 383.611
L78.9638 384.516
L79.0531 384.674
L79.1424 384.601
L79.321 384.788
L79.4102 384.829
L79.5888 385.272
L79.6781 385.206
L79.7674 385.138
L80.0352 385.691
L80.1245 385.583
L81.0173 386.959
L81.553 387.351
L81.8208 387.543
L82.6243 388.044
L82.7136 387.769
L82.8922 387.893
L82.9814 387.714
L83.0707 387.783
L84.0528 388.311
L86.6419 388.667
L89.5882 388.778
L105.123 388.79
L105.391 388.746
L149.941 388.678
L150.12 388.605
L154.227 388.611
L210.116 388.59
L210.295 388.459
L255.917 388.443
L256.095 388.308
L260.024 388.318
L260.202 388.188
L406.532 388.299
L409.389 388.302
L514.561 388.413
L518.311 388.415
L518.311 388.415" style="fill:none;stroke:#00bfbf;stroke-dasharray:5.000000,1.000000,2.000000,1.000000,5.000000,1.000000;stroke-dashoffset:0.0;"/>
   </g>
   <g id="line2d_5">
    <path clip-path="url(#p7ff5b81e1d)" d="
M72 304.438
L72.0893 284.575
L72.1786 280.476
L72.5357 267.086
L72.625 268.41
L72.7142 267.177
L72.8035 267.742
L73.0714 273.233
L73.1606 271.449
L73.2499 272.401
L73.4285 270.164
L73.5178 267.485
L73.607 268.362
L73.6963 266.907
L73.9642 270.535
L74.6784 281.555
L75.2141 290.972
L75.3926 376.404
L75.4819 376.263
L76.464 348.465
L77.2675 308.398
L77.3568 308.833
L77.6246 310.514
L79.0531 327.514
L79.4102 315.072
L80.1245 291.729
L80.3923 288.733
L80.8387 275.676
L81.1066 280.574
L81.553 289.3
L81.6422 290.278
L81.9101 297.225
L82.0886 300.555
L82.6243 309.922
L82.8922 305.916
L83.0707 303.578
L83.2493 300.49
L83.3386 301.747
L83.6064 295.283
L83.8742 292.806
L83.9635 292.558
L84.3206 288.369
L84.4099 286.987
L84.8563 291.817
L85.0349 297.968
L85.3027 301.264
L85.7491 311.91
L86.1955 317.165
L86.3741 316.275
L86.4634 316.412
L86.6419 317.152
L86.9098 314.341
L86.999 314.725
L87.3562 311.001
L87.4454 310.862
L87.624 309.503
L87.7133 309.988
L87.8026 308.262
L87.8918 308.428
L87.9811 308.446
L88.3382 315.586
L88.6954 318.925
L88.8739 320.137
L89.1418 322.685
L89.4989 325.659
L89.856 329.545
L90.1238 327.578
L90.2131 327.741
L90.3024 327.692
L90.7488 324.97
L90.8381 324.954
L91.1059 321.804
L91.2845 320.547
L91.3738 321.11
L91.5523 320.738
L91.6416 320.876
L92.5344 327.799
L92.6237 327.723
L92.713 327.875
L93.3379 332.945
L93.4272 332.853
L93.5165 333.196
L93.6058 332.165
L93.695 332.257
L93.7843 332.407
L93.8736 332.839
L94.2307 331.925
L94.32 331.927
L94.4986 331.741
L94.6771 332.893
L94.8557 331.06
L94.945 331.726
L95.1235 330.097
L96.0163 334.621
L96.1056 334.901
L96.2842 337.105
L96.3734 337.264
L96.6413 338.719
L97.0877 339.475
L97.2662 338.526
L97.3555 339.486
L97.6234 338.845
L97.7126 338.861
L97.8912 339.425
L98.159 338.637
L98.4269 339.216
L98.6947 338.283
L99.0518 339.306
L100.123 344.673
L100.212 344.516
L100.48 345.342
L100.659 344.791
L100.748 344.899
L100.837 344.967
L100.927 344.793
L101.016 345.799
L101.105 345.61
L101.195 344.91
L101.462 345.549
L101.552 345.38
L101.641 346.079
L101.73 346.036
L101.82 346.509
L101.909 346.328
L102.087 347.097
L102.177 347.08
L102.266 346.894
L102.355 347.074
L102.534 347.736
L102.712 349.39
L102.98 350.202
L103.069 350.33
L103.337 351.16
L103.427 351.243
L103.605 351.77
L103.784 351.86
L104.052 353.045
L104.141 352.246
L104.23 353.208
L104.409 352.341
L104.855 351.656
L104.944 351.568
L105.034 351.273
L105.123 351.341
L105.48 351.744
L105.659 351.304
L105.748 351.027
L105.926 353.543
L106.284 354.173
L106.551 354.396
L106.641 354.607
L106.819 354.441
L107.176 354.9
L107.355 355.634
L107.533 358.616
L107.801 358.471
L107.891 358.22
L107.98 358.271
L108.069 358.271
L108.158 358.46
L108.248 358.155
L108.426 358.443
L108.516 357.781
L108.605 357.968
L108.694 357.206
L108.783 357.385
L108.873 357.483
L108.962 357.252
L109.14 361.123
L109.587 361.621
L109.855 361.866
L109.944 361.914
L110.123 362.356
L110.301 362.542
L110.569 362.839
L110.748 367.018
L110.926 367.084
L111.283 367.739
L111.462 367.303
L111.64 367.41
L111.73 367.262
L111.819 367.324
L111.908 367.393
L112.176 366.927
L112.265 371.063
L112.355 370.994
L112.622 371.135
L112.98 370.736
L113.426 371.02
L113.694 371.319
L113.783 371.394
L113.872 374.43
L113.962 374.343
L114.676 374.859
L114.854 375.031
L115.033 375.127
L115.122 375.136
L115.212 374.982
L115.301 375.057
L115.39 374.945
L115.569 376.943
L115.836 376.987
L116.461 377.502
L116.64 377.308
L116.908 377.484
L116.997 377.498
L117.176 378.607
L117.533 378.697
L117.801 378.81
L118.515 379.067
L118.604 378.841
L118.783 379.937
L119.14 380.059
L119.318 380.02
L119.586 380.05
L119.765 379.907
L120.033 380.01
L120.211 380.008
L120.39 380.683
L121.818 381.095
L121.997 381.465
L122.265 381.362
L122.532 381.45
L123.247 381.44
L123.425 381.423
L123.604 381.517
L123.872 381.492
L124.764 381.754
L125.032 381.801
L125.211 381.974
L125.657 382.062
L125.925 381.832
L126.193 381.883
L126.282 381.574
L126.372 381.6
L126.639 381.6
L126.818 381.796
L127.175 381.673
L127.354 381.525
L127.711 381.609
L128.068 381.682
L128.604 381.826
L130.746 382.295
L130.925 382.247
L131.907 382.539
L132.353 382.653
L133.246 382.965
L134.228 382.973
L134.496 382.951
L136.817 383.17
L136.996 383.102
L137.264 383.15
L137.442 383.035
L137.799 383.084
L138.067 383.109
L138.692 383.159
L138.871 383.251
L140.031 383.292
L141.192 382.976
L142.62 383.072
L143.424 383.222
L143.692 383.22
L143.96 383.287
L145.477 383.389
L146.549 383.473
L149.049 383.654
L149.763 383.72
L150.477 383.846
L151.37 383.865
L151.548 383.788
L151.816 383.827
L152.263 383.539
L152.798 383.603
L154.138 383.722
L154.405 383.707
L156.37 383.801
L156.995 383.868
L158.512 384.037
L158.691 383.944
L159.494 383.922
L160.655 384.018
L162.351 384.243
L162.619 384.089
L163.78 384.195
L165.476 384.301
L165.923 384.189
L166.905 384.271
L167.262 384.326
L171.369 384.456
L172.261 384.563
L173.779 384.66
L175.118 384.808
L175.833 384.853
L176.011 384.748
L176.547 384.766
L176.725 384.678
L177.708 384.745
L179.404 384.782
L181.1 384.811
L185.832 384.955
L186.546 385.012
L186.814 384.998
L189.85 385.106
L190.742 385.182
L190.921 385.066
L196.546 385.346
L197.796 385.413
L198.063 385.362
L200.206 385.464
L201.099 385.51
L205.384 385.613
L205.92 385.637
L209.223 385.738
L210.741 385.827
L214.044 385.936
L217.437 386.093
L220.651 386.191
L221.455 386.208
L227.972 386.397
L230.026 386.445
L235.472 386.548
L236.007 386.577
L263.952 387.091
L264.666 387.119
L273.684 387.222
L274.933 387.248
L275.469 387.248
L275.648 387.124
L286.272 387.23
L287.968 387.268
L298.414 387.378
L300.914 387.42
L301.271 387.38
L302.521 387.388
L313.324 387.497
L314.306 387.522
L322.163 387.631
L325.02 387.645
L335.465 387.754
L342.34 387.793
L357.785 387.903
L359.928 387.919
L396.265 388.03
L398.408 388.045
L438.584 388.156
L464.386 388.223
L518.311 388.322
L518.311 388.322" style="fill:none;stroke:#bf00bf;stroke-linecap:square;"/>
   </g>
   <g id="matplotlib.axis_1">
    <g id="xtick_1">
     <g id="line2d_6">
      <defs>
       <path d="
M0 0
L0 -4" id="mc7db9fdffb" style="stroke:#000000;stroke-width:0.5;"/>
      </defs>
      <g>
       <use style="stroke:#000000;stroke-width:0.5;" x="72.0" xlink:href="#mc7db9fdffb" y="388.8"/>
      </g>
     </g>
     <g id="line2d_7">
      <defs>
       <path d="
M0 0
L0 4" id="m5a7d422ac3" style="stroke:#000000;stroke-width:0.5;"/>
      </defs>
      <g>
       <use style="stroke:#000000;stroke-width:0.5;" x="72.0" xlink:href="#m5a7d422ac3" y="43.2"/>
      </g>
     </g>
     <g id="text_1">
      <!-- 0 -->
      <defs>
       <path d="
M56.9844 36.375
Q56.9844 16.7969 50.8594 7.64062
Q44.7344 -1.51562 31.8438 -1.51562
Q18.75 -1.51562 12.7188 7.76562
Q6.6875 17.0469 6.6875 36.2812
Q6.6875 55.6719 12.7812 64.9219
Q18.8906 74.1719 31.8438 74.1719
Q44.9219 74.1719 50.9531 64.7656
Q56.9844 55.375 56.9844 36.375
M44.1406 14.2031
Q45.8438 18.1719 46.4531 23.5156
Q47.0781 28.8594 47.0781 36.375
Q47.0781 43.7969 46.4531 49.2656
Q45.8438 54.7344 44.0938 58.5469
Q42.3906 62.3125 39.4219 64.2031
Q36.4688 66.1094 31.8438 66.1094
Q27.25 66.1094 24.2344 64.2031
Q21.2344 62.3125 19.4844 58.4531
Q17.8281 54.8281 17.2188 49.0156
Q16.6094 43.2188 16.6094 36.2812
Q16.6094 28.6562 17.1406 23.5312
Q17.6719 18.4062 19.4375 14.3594
Q21.0469 10.5469 24 8.54688
Q26.9531 6.54688 31.8438 6.54688
Q36.4219 6.54688 39.4531 8.45312
Q42.4844 10.3594 44.1406 14.2031" id="Verdana-30"/>
      </defs>
      <g transform="translate(68.9821875 401.918125)scale(0.12 -0.12)">
       <use xlink:href="#Verdana-30"/>
      </g>
     </g>
    </g>
    <g id="xtick_2">
     <g id="line2d_8">
      <g>
       <use style="stroke:#000000;stroke-width:0.5;" x="161.28" xlink:href="#mc7db9fdffb" y="388.8"/>
      </g>
     </g>
     <g id="line2d_9">
      <g>
       <use style="stroke:#000000;stroke-width:0.5;" x="161.28" xlink:href="#m5a7d422ac3" y="43.2"/>
      </g>
     </g>
     <g id="text_2">
      <!-- 1000 -->
      <defs>
       <path d="
M52.9375 0
L13.5781 0
L13.5781 7.42188
L28.7188 7.42188
L28.7188 56.1562
L13.5781 56.1562
L13.5781 62.7969
Q16.6562 62.7969 20.1719 63.2969
Q23.6875 63.8125 25.4844 64.7969
Q27.7344 66.0156 29.0312 67.8906
Q30.3281 69.7812 30.5156 72.9531
L38.0938 72.9531
L38.0938 7.42188
L52.9375 7.42188
z
" id="Verdana-31"/>
      </defs>
      <g transform="translate(147.2315625 401.918125)scale(0.12 -0.12)">
       <use xlink:href="#Verdana-31"/>
       <use x="63.57421875" xlink:href="#Verdana-30"/>
       <use x="127.1484375" xlink:href="#Verdana-30"/>
       <use x="190.72265625" xlink:href="#Verdana-30"/>
      </g>
     </g>
    </g>
    <g id="xtick_3">
     <g id="line2d_10">
      <g>
       <use style="stroke:#000000;stroke-width:0.5;" x="250.56" xlink:href="#mc7db9fdffb" y="388.8"/>
      </g>
     </g>
     <g id="line2d_11">
      <g>
       <use style="stroke:#000000;stroke-width:0.5;" x="250.56" xlink:href="#m5a7d422ac3" y="43.2"/>
      </g>
     </g>
     <g id="text_3">
      <!-- 2000 -->
      <defs>
       <path d="
M57.0781 0
L7.85938 0
L7.85938 10.2031
Q12.9844 14.5938 18.1406 18.9844
Q23.2969 23.3906 27.7344 27.7344
Q37.1094 36.8125 40.5781 42.1562
Q44.0469 47.5156 44.0469 53.7188
Q44.0469 59.375 40.3125 62.5625
Q36.5781 65.7656 29.8906 65.7656
Q25.4375 65.7656 20.2656 64.2031
Q15.0938 62.6406 10.1562 59.4219
L9.67188 59.4219
L9.67188 69.6719
Q13.1406 71.3906 18.9219 72.7969
Q24.7031 74.2188 30.125 74.2188
Q41.3125 74.2188 47.6562 68.8125
Q54 63.4219 54 54.2031
Q54 50.0469 52.9531 46.4531
Q51.9062 42.875 49.8594 39.6562
Q47.9531 36.625 45.3906 33.6875
Q42.8281 30.7656 39.1562 27.2031
Q33.9375 22.0781 28.3594 17.2656
Q22.7969 12.4531 17.9688 8.34375
L57.0781 8.34375
z
" id="Verdana-32"/>
      </defs>
      <g transform="translate(236.1684375 401.918125)scale(0.12 -0.12)">
       <use xlink:href="#Verdana-32"/>
       <use x="63.57421875" xlink:href="#Verdana-30"/>
       <use x="127.1484375" xlink:href="#Verdana-30"/>
       <use x="190.72265625" xlink:href="#Verdana-30"/>
      </g>
     </g>
    </g>
    <g id="xtick_4">
     <g id="line2d_12">
      <g>
       <use style="stroke:#000000;stroke-width:0.5;" x="339.84" xlink:href="#mc7db9fdffb" y="388.8"/>
      </g>
     </g>
     <g id="line2d_13">
      <g>
       <use style="stroke:#000000;stroke-width:0.5;" x="339.84" xlink:href="#m5a7d422ac3" y="43.2"/>
      </g>
     </g>
     <g id="text_4">
      <!-- 3000 -->
      <defs>
       <path d="
M50.6875 35.0156
Q53.0312 32.9062 54.5469 29.7344
Q56.0625 26.5625 56.0625 21.5312
Q56.0625 16.5469 54.25 12.3906
Q52.4375 8.25 49.1719 5.17188
Q45.5156 1.76562 40.5469 0.125
Q35.5938 -1.51562 29.6875 -1.51562
Q23.6406 -1.51562 17.7812 -0.0625
Q11.9219 1.375 8.15625 3.07812
L8.15625 13.2812
L8.89062 13.2812
Q13.0312 10.5469 18.6406 8.73438
Q24.2656 6.9375 29.5 6.9375
Q32.5625 6.9375 36.0312 7.95312
Q39.5 8.98438 41.6562 10.9844
Q43.8906 13.1406 44.9844 15.7188
Q46.0938 18.3125 46.0938 22.2656
Q46.0938 26.1719 44.8438 28.7344
Q43.6094 31.2969 41.4062 32.7656
Q39.2031 34.2812 36.0781 34.8438
Q32.9531 35.4062 29.3438 35.4062
L24.9531 35.4062
L24.9531 43.5
L28.375 43.5
Q35.7969 43.5 40.2031 46.5938
Q44.625 49.7031 44.625 55.6719
Q44.625 58.2969 43.5 60.2656
Q42.3906 62.25 40.375 63.5312
Q38.2812 64.7969 35.8906 65.2812
Q33.5 65.7656 30.4688 65.7656
Q25.8281 65.7656 20.5938 64.1094
Q15.375 62.4531 10.75 59.4219
L10.25 59.4219
L10.25 69.625
Q13.7188 71.3438 19.5 72.7812
Q25.2969 74.2188 30.7188 74.2188
Q36.0312 74.2188 40.0781 73.2344
Q44.1406 72.2656 47.4062 70.125
Q50.9219 67.7812 52.7344 64.4531
Q54.5469 61.1406 54.5469 56.6875
Q54.5469 50.6406 50.2656 46.125
Q46 41.6094 40.1875 40.4375
L40.1875 39.75
Q42.5312 39.3594 45.5469 38.1094
Q48.5781 36.8594 50.6875 35.0156" id="Verdana-33"/>
      </defs>
      <g transform="translate(325.46625 401.918125)scale(0.12 -0.12)">
       <use xlink:href="#Verdana-33"/>
       <use x="63.57421875" xlink:href="#Verdana-30"/>
       <use x="127.1484375" xlink:href="#Verdana-30"/>
       <use x="190.72265625" xlink:href="#Verdana-30"/>
      </g>
     </g>
    </g>
    <g id="xtick_5">
     <g id="line2d_14">
      <g>
       <use style="stroke:#000000;stroke-width:0.5;" x="429.12" xlink:href="#mc7db9fdffb" y="388.8"/>
      </g>
     </g>
     <g id="line2d_15">
      <g>
       <use style="stroke:#000000;stroke-width:0.5;" x="429.12" xlink:href="#m5a7d422ac3" y="43.2"/>
      </g>
     </g>
     <g id="text_5">
      <!-- 4000 -->
      <defs>
       <path d="
M58.7344 20.4531
L47.9531 20.4531
L47.9531 0
L38.5781 0
L38.5781 20.4531
L3.76562 20.4531
L3.76562 31.6875
L38.9688 72.7031
L47.9531 72.7031
L47.9531 28.2656
L58.7344 28.2656
z

M38.5781 28.2656
L38.5781 61.0781
L10.4062 28.2656
z
" id="Verdana-34"/>
      </defs>
      <g transform="translate(414.4828125 401.918125)scale(0.12 -0.12)">
       <use xlink:href="#Verdana-34"/>
       <use x="63.57421875" xlink:href="#Verdana-30"/>
       <use x="127.1484375" xlink:href="#Verdana-30"/>
       <use x="190.72265625" xlink:href="#Verdana-30"/>
      </g>
     </g>
    </g>
    <g id="xtick_6">
     <g id="line2d_16">
      <g>
       <use style="stroke:#000000;stroke-width:0.5;" x="518.4" xlink:href="#mc7db9fdffb" y="388.8"/>
      </g>
     </g>
     <g id="line2d_17">
      <g>
       <use style="stroke:#000000;stroke-width:0.5;" x="518.4" xlink:href="#m5a7d422ac3" y="43.2"/>
      </g>
     </g>
     <g id="text_6">
      <!-- 5000 -->
      <defs>
       <path d="
M56.5 23.0938
Q56.5 18.0156 54.6406 13.375
Q52.7812 8.73438 49.5625 5.5625
Q46.0469 2.15625 41.1875 0.3125
Q36.3281 -1.51562 29.9375 -1.51562
Q23.9688 -1.51562 18.4531 -0.265625
Q12.9375 0.984375 9.125 2.73438
L9.125 13.0312
L9.8125 13.0312
Q13.8125 10.5 19.1875 8.71875
Q24.5625 6.9375 29.7344 6.9375
Q33.2031 6.9375 36.4531 7.90625
Q39.7031 8.89062 42.2344 11.3281
Q44.3906 13.4219 45.4844 16.3438
Q46.5781 19.2812 46.5781 23.1406
Q46.5781 26.9062 45.2812 29.4844
Q44 32.0781 41.7031 33.6406
Q39.1562 35.5 35.5156 36.25
Q31.8906 37.0156 27.3906 37.0156
Q23.0938 37.0156 19.1094 36.4219
Q15.1406 35.8438 12.25 35.25
L12.25 72.7031
L56 72.7031
L56 64.1562
L21.6875 64.1562
L21.6875 44.8281
Q23.7812 45.0156 25.9688 45.1094
Q28.1719 45.2188 29.7812 45.2188
Q35.6875 45.2188 40.125 44.2188
Q44.5781 43.2188 48.2969 40.6719
Q52.2031 37.9844 54.3438 33.7344
Q56.5 29.5 56.5 23.0938" id="Verdana-35"/>
      </defs>
      <g transform="translate(504.084375 401.918125)scale(0.12 -0.12)">
       <use xlink:href="#Verdana-35"/>
       <use x="63.57421875" xlink:href="#Verdana-30"/>
       <use x="127.1484375" xlink:href="#Verdana-30"/>
       <use x="190.72265625" xlink:href="#Verdana-30"/>
      </g>
     </g>
    </g>
    <g id="text_7">
     <!-- Objective function exectuions -->
     <defs>
      <path d="
M63.9688 64.3594
Q68.4062 59.4688 70.7656 52.3906
Q73.1406 45.3125 73.1406 36.3281
Q73.1406 27.3438 70.7188 20.2344
Q68.3125 13.1406 63.9688 8.40625
Q59.4688 3.46875 53.3438 0.96875
Q47.2188 -1.51562 39.3594 -1.51562
Q31.6875 -1.51562 25.4062 1.01562
Q19.1406 3.5625 14.75 8.40625
Q10.3594 13.2344 7.98438 20.2656
Q5.60938 27.2969 5.60938 36.3281
Q5.60938 45.2188 7.95312 52.2656
Q10.2969 59.3281 14.7969 64.3594
Q19.0938 69.1406 25.4688 71.6719
Q31.8438 74.2188 39.3594 74.2188
Q47.1719 74.2188 53.3906 71.6562
Q59.625 69.0938 63.9688 64.3594
M63.0938 36.3281
Q63.0938 50.4844 56.7344 58.1719
Q50.3906 65.875 39.4062 65.875
Q28.3281 65.875 22 58.1719
Q15.6719 50.4844 15.6719 36.3281
Q15.6719 22.0156 22.1094 14.4219
Q28.5625 6.84375 39.4062 6.84375
Q50.25 6.84375 56.6719 14.4219
Q63.0938 22.0156 63.0938 36.3281" id="Verdana-4f"/>
      <path d="
M38.375 67.0938
L37.8906 67.0938
Q36.375 67.5312 33.9375 67.9844
Q31.5 68.4531 29.6406 68.4531
Q23.7344 68.4531 21.0625 65.8438
Q18.4062 63.2344 18.4062 56.3906
L18.4062 54.5469
L34.9688 54.5469
L34.9688 46.8281
L18.7031 46.8281
L18.7031 0
L9.51562 0
L9.51562 46.8281
L3.32812 46.8281
L3.32812 54.5469
L9.51562 54.5469
L9.51562 56.3438
Q9.51562 66.0625 14.3438 71.2656
Q19.1875 76.4688 28.3281 76.4688
Q31.3906 76.4688 33.8594 76.1719
Q36.3281 75.875 38.375 75.4844
z
" id="Verdana-66"/>
      <path d="
M57.0312 27.6875
Q57.0312 20.8438 55.0938 15.375
Q53.1719 9.90625 49.9062 6.20312
Q46.4375 2.34375 42.2812 0.40625
Q38.1406 -1.51562 33.1562 -1.51562
Q28.5156 -1.51562 25.0469 -0.40625
Q21.5781 0.6875 18.2188 2.54688
L17.625 0
L9.03125 0
L9.03125 75.9844
L18.2188 75.9844
L18.2188 48.8281
Q22.0781 52 26.4219 54.0312
Q30.7656 56.0625 36.1875 56.0625
Q45.8438 56.0625 51.4375 48.6406
Q57.0312 41.2188 57.0312 27.6875
M47.5625 27.4375
Q47.5625 37.2031 44.3281 42.25
Q41.1094 47.3125 33.9375 47.3125
Q29.9375 47.3125 25.8281 45.5781
Q21.7344 43.8438 18.2188 41.1094
L18.2188 9.85938
Q22.125 8.10938 24.9219 7.42188
Q27.7344 6.73438 31.2969 6.73438
Q38.9219 6.73438 43.2344 11.7344
Q47.5625 16.75 47.5625 27.4375" id="Verdana-62"/>
      <path id="Verdana-20"/>
      <path d="
M18.8906 63.6719
L8.54688 63.6719
L8.54688 73.1875
L18.8906 73.1875
z

M18.3125 0
L9.125 0
L9.125 54.5469
L18.3125 54.5469
z
" id="Verdana-69"/>
      <path d="
M26.0312 63.6719
L15.6719 63.6719
L15.6719 73.1875
L26.0312 73.1875
z

M25.4375 -1.3125
Q25.4375 -10.8906 20.5469 -15.7656
Q15.6719 -20.6562 7.46875 -20.6562
Q5.51562 -20.6562 2.3125 -20.2656
Q-0.875 -19.875 -3.03125 -19.2812
L-3.03125 -10.5469
L-2.54688 -10.5469
Q-1.17188 -11.0781 1.14062 -11.7656
Q3.46875 -12.4531 5.67188 -12.4531
Q9.1875 -12.4531 11.3281 -11.4688
Q13.4844 -10.5 14.5469 -8.54688
Q15.625 -6.59375 15.9375 -3.82812
Q16.2656 -1.07812 16.2656 2.875
L16.2656 46.8281
L4.89062 46.8281
L4.89062 54.5469
L25.4375 54.5469
z
" id="Verdana-6a"/>
      <path d="
M48 15.7188
Q48 8.25 41.8125 3.46875
Q35.6406 -1.3125 24.9531 -1.3125
Q18.8906 -1.3125 13.8438 0.125
Q8.79688 1.5625 5.375 3.26562
L5.375 13.5781
L5.85938 13.5781
Q10.2031 10.2969 15.5156 8.375
Q20.8438 6.45312 25.7344 6.45312
Q31.7812 6.45312 35.2031 8.40625
Q38.625 10.3594 38.625 14.5469
Q38.625 17.7812 36.7656 19.4375
Q34.9062 21.0938 29.6406 22.2656
Q27.6875 22.7031 24.5312 23.2812
Q21.3906 23.875 18.7969 24.5625
Q11.625 26.4688 8.60938 30.1562
Q5.60938 33.8438 5.60938 39.2031
Q5.60938 42.5781 7 45.5469
Q8.40625 48.5312 11.2344 50.875
Q13.9688 53.1719 18.1875 54.5156
Q22.4062 55.8594 27.6406 55.8594
Q32.5156 55.8594 37.5156 54.6562
Q42.5312 53.4688 45.8438 51.7656
L45.8438 41.9375
L45.3594 41.9375
Q41.8438 44.5312 36.8125 46.3125
Q31.7812 48.0938 26.9531 48.0938
Q21.9219 48.0938 18.4531 46.1562
Q14.9844 44.2344 14.9844 40.4375
Q14.9844 37.0625 17.0938 35.3594
Q19.1406 33.6406 23.7344 32.5625
Q26.2656 31.9844 29.4062 31.3906
Q32.5625 30.8125 34.6719 30.3281
Q41.0625 28.8594 44.5312 25.2969
Q48 21.6875 48 15.7188" id="Verdana-73"/>
      <path d="
M55.5156 27.25
Q55.5156 13.9219 48.6719 6.20312
Q41.8438 -1.51562 30.375 -1.51562
Q18.7969 -1.51562 11.9844 6.20312
Q5.17188 13.9219 5.17188 27.25
Q5.17188 40.5781 11.9844 48.3125
Q18.7969 56.0625 30.375 56.0625
Q41.8438 56.0625 48.6719 48.3125
Q55.5156 40.5781 55.5156 27.25
M46.0469 27.25
Q46.0469 37.8438 41.8906 42.9844
Q37.75 48.1406 30.375 48.1406
Q22.9062 48.1406 18.7812 42.9844
Q14.6562 37.8438 14.6562 27.25
Q14.6562 17 18.7969 11.6875
Q22.9531 6.39062 30.375 6.39062
Q37.7031 6.39062 41.875 11.6406
Q46.0469 16.8906 46.0469 27.25" id="Verdana-6f"/>
      <path d="
M54.6875 26.3125
L14.5 26.3125
Q14.5 21.2969 16.0156 17.5469
Q17.5312 13.8125 20.1719 11.4219
Q22.7031 9.07812 26.1875 7.90625
Q29.6875 6.73438 33.8906 6.73438
Q39.4531 6.73438 45.0938 8.95312
Q50.7344 11.1875 53.125 13.3281
L53.6094 13.3281
L53.6094 3.32812
Q48.9688 1.375 44.1406 0.046875
Q39.3125 -1.26562 33.9844 -1.26562
Q20.4062 -1.26562 12.7812 6.07812
Q5.17188 13.4219 5.17188 26.9531
Q5.17188 40.3281 12.4688 48.1875
Q19.7812 56.0625 31.6875 56.0625
Q42.7188 56.0625 48.7031 49.6094
Q54.6875 43.1719 54.6875 31.2969
z

M45.75 33.3438
Q45.7031 40.5781 42.1094 44.5312
Q38.5312 48.4844 31.2031 48.4844
Q23.8281 48.4844 19.4531 44.1406
Q15.0938 39.7969 14.5 33.3438
z
" id="Verdana-65"/>
      <path d="
M54.25 0
L45.0625 0
L45.0625 6.0625
Q40.4375 2.39062 36.1875 0.4375
Q31.9375 -1.51562 26.8125 -1.51562
Q18.2188 -1.51562 13.4219 3.73438
Q8.64062 8.98438 8.64062 19.1406
L8.64062 54.5469
L17.8281 54.5469
L17.8281 23.4844
Q17.8281 19.3438 18.2188 16.375
Q18.6094 13.4219 19.875 11.3281
Q21.1875 9.1875 23.2812 8.20312
Q25.3906 7.23438 29.3906 7.23438
Q32.9531 7.23438 37.1719 9.07812
Q41.4062 10.9375 45.0625 13.8125
L45.0625 54.5469
L54.25 54.5469
z
" id="Verdana-75"/>
      <path d="
M49.3594 3.42188
Q44.7812 1.21875 40.6562 0
Q36.5312 -1.21875 31.8906 -1.21875
Q25.9844 -1.21875 21.0469 0.515625
Q16.1094 2.25 12.5938 5.76562
Q9.03125 9.28125 7.07812 14.6406
Q5.125 20.0156 5.125 27.2031
Q5.125 40.5781 12.4688 48.1875
Q19.8281 55.8125 31.8906 55.8125
Q36.5781 55.8125 41.0938 54.4844
Q45.6094 53.1719 49.3594 51.2656
L49.3594 41.0625
L48.875 41.0625
Q44.6719 44.3438 40.2031 46.0938
Q35.75 47.8594 31.5 47.8594
Q23.6875 47.8594 19.1719 42.6094
Q14.6562 37.3594 14.6562 27.2031
Q14.6562 17.3281 19.0625 12.0312
Q23.4844 6.73438 31.5 6.73438
Q34.2812 6.73438 37.1562 7.46875
Q40.0469 8.20312 42.3281 9.375
Q44.3438 10.4062 46.0938 11.5469
Q47.8594 12.7031 48.875 13.5312
L49.3594 13.5312
z
" id="Verdana-63"/>
      <path d="
M54.6406 0
L45.4531 0
L45.4531 31.0625
Q45.4531 34.8125 45.0156 38.1094
Q44.5781 41.4062 43.4062 43.2656
Q42.1875 45.3125 39.8906 46.3125
Q37.5938 47.3125 33.9375 47.3125
Q30.1719 47.3125 26.0625 45.4531
Q21.9688 43.6094 18.2188 40.7188
L18.2188 0
L9.03125 0
L9.03125 54.5469
L18.2188 54.5469
L18.2188 48.4844
Q22.5156 52.0469 27.0938 54.0469
Q31.6875 56.0625 36.5312 56.0625
Q45.3594 56.0625 50 50.7344
Q54.6406 45.4062 54.6406 35.4062
z
" id="Verdana-6e"/>
      <path d="
M37.3594 0.484375
Q34.7656 -0.203125 31.7031 -0.640625
Q28.6562 -1.07812 26.2656 -1.07812
Q17.9219 -1.07812 13.5781 3.40625
Q9.23438 7.90625 9.23438 17.8281
L9.23438 46.8281
L3.03125 46.8281
L3.03125 54.5469
L9.23438 54.5469
L9.23438 70.2188
L18.4062 70.2188
L18.4062 54.5469
L37.3594 54.5469
L37.3594 46.8281
L18.4062 46.8281
L18.4062 21.9688
Q18.4062 17.6719 18.5938 15.25
Q18.7969 12.8438 19.9688 10.75
Q21.0469 8.79688 22.9219 7.89062
Q24.8125 6.98438 28.6562 6.98438
Q30.9062 6.98438 33.3438 7.64062
Q35.7969 8.29688 36.8594 8.73438
L37.3594 8.73438
z
" id="Verdana-74"/>
      <path d="
M56.2031 54.5469
L34.125 0
L24.9062 0
L2.98438 54.5469
L12.9375 54.5469
L29.8281 11.1406
L46.5781 54.5469
z
" id="Verdana-76"/>
      <path d="
M56.25 0
L44.6719 0
L29.2031 20.9531
L13.625 0
L2.9375 0
L24.2188 27.2031
L3.125 54.5469
L14.7031 54.5469
L30.0781 33.9375
L45.5156 54.5469
L56.25 54.5469
L34.8125 27.6875
z
" id="Verdana-78"/>
     </defs>
     <g transform="translate(206.5078125 418.509375)scale(0.12 -0.12)">
      <use xlink:href="#Verdana-4f"/>
      <use x="78.7109375" xlink:href="#Verdana-62"/>
      <use x="141.015625" xlink:href="#Verdana-6a"/>
      <use x="175.439453125" xlink:href="#Verdana-65"/>
      <use x="235.009765625" xlink:href="#Verdana-63"/>
      <use x="287.109375" xlink:href="#Verdana-74"/>
      <use x="326.513671875" xlink:href="#Verdana-69"/>
      <use x="353.955078125" xlink:href="#Verdana-76"/>
      <use x="412.259765625" xlink:href="#Verdana-65"/>
      <use x="471.830078125" xlink:href="#Verdana-20"/>
      <use x="506.986328125" xlink:href="#Verdana-66"/>
      <use x="542.142578125" xlink:href="#Verdana-75"/>
      <use x="605.423828125" xlink:href="#Verdana-6e"/>
      <use x="668.705078125" xlink:href="#Verdana-63"/>
      <use x="720.8046875" xlink:href="#Verdana-74"/>
      <use x="760.208984375" xlink:href="#Verdana-69"/>
      <use x="787.650390625" xlink:href="#Verdana-6f"/>
      <use x="848.34375" xlink:href="#Verdana-6e"/>
      <use x="911.625" xlink:href="#Verdana-20"/>
      <use x="946.78125" xlink:href="#Verdana-65"/>
      <use x="1006.3515625" xlink:href="#Verdana-78"/>
      <use x="1064.40625" xlink:href="#Verdana-65"/>
      <use x="1123.9765625" xlink:href="#Verdana-63"/>
      <use x="1176.076171875" xlink:href="#Verdana-74"/>
      <use x="1215.48046875" xlink:href="#Verdana-75"/>
      <use x="1278.76171875" xlink:href="#Verdana-69"/>
      <use x="1306.203125" xlink:href="#Verdana-6f"/>
      <use x="1366.896484375" xlink:href="#Verdana-6e"/>
      <use x="1430.177734375" xlink:href="#Verdana-73"/>
     </g>
    </g>
   </g>
   <g id="matplotlib.axis_2">
    <g id="ytick_1">
     <g id="line2d_18">
      <defs>
       <path d="
M0 0
L4 0" id="md7965d1ba0" style="stroke:#000000;stroke-width:0.5;"/>
      </defs>
      <g>
       <use style="stroke:#000000;stroke-width:0.5;" x="72.0" xlink:href="#md7965d1ba0" y="388.8"/>
      </g>
     </g>
     <g id="line2d_19">
      <defs>
       <path d="
M0 0
L-4 0" id="md9a1c1a7cd" style="stroke:#000000;stroke-width:0.5;"/>
      </defs>
      <g>
       <use style="stroke:#000000;stroke-width:0.5;" x="518.4" xlink:href="#md9a1c1a7cd" y="388.8"/>
      </g>
     </g>
     <g id="text_8">
      <!-- 0.0 -->
      <defs>
       <path d="
M24.0312 0
L12.3594 0
L12.3594 13.9219
L24.0312 13.9219
z
" id="Verdana-2e"/>
      </defs>
      <g transform="translate(49.97 392.1515625)scale(0.12 -0.12)">
       <use xlink:href="#Verdana-30"/>
       <use x="63.57421875" xlink:href="#Verdana-2e"/>
       <use x="99.951171875" xlink:href="#Verdana-30"/>
      </g>
     </g>
    </g>
    <g id="ytick_2">
     <g id="line2d_20">
      <g>
       <use style="stroke:#000000;stroke-width:0.5;" x="72.0" xlink:href="#md7965d1ba0" y="350.4"/>
      </g>
     </g>
     <g id="line2d_21">
      <g>
       <use style="stroke:#000000;stroke-width:0.5;" x="518.4" xlink:href="#md9a1c1a7cd" y="350.4"/>
      </g>
     </g>
     <g id="text_9">
      <!-- 0.1 -->
      <g transform="translate(50.455625 353.7515625)scale(0.12 -0.12)">
       <use xlink:href="#Verdana-30"/>
       <use x="63.57421875" xlink:href="#Verdana-2e"/>
       <use x="99.951171875" xlink:href="#Verdana-31"/>
      </g>
     </g>
    </g>
    <g id="ytick_3">
     <g id="line2d_22">
      <g>
       <use style="stroke:#000000;stroke-width:0.5;" x="72.0" xlink:href="#md7965d1ba0" y="312.0"/>
      </g>
     </g>
     <g id="line2d_23">
      <g>
       <use style="stroke:#000000;stroke-width:0.5;" x="518.4" xlink:href="#md9a1c1a7cd" y="312.0"/>
      </g>
     </g>
     <g id="text_10">
      <!-- 0.2 -->
      <g transform="translate(49.95875 315.3515625)scale(0.12 -0.12)">
       <use xlink:href="#Verdana-30"/>
       <use x="63.57421875" xlink:href="#Verdana-2e"/>
       <use x="99.951171875" xlink:href="#Verdana-32"/>
      </g>
     </g>
    </g>
    <g id="ytick_4">
     <g id="line2d_24">
      <g>
       <use style="stroke:#000000;stroke-width:0.5;" x="72.0" xlink:href="#md7965d1ba0" y="273.6"/>
      </g>
     </g>
     <g id="line2d_25">
      <g>
       <use style="stroke:#000000;stroke-width:0.5;" x="518.4" xlink:href="#md9a1c1a7cd" y="273.6"/>
      </g>
     </g>
     <g id="text_11">
      <!-- 0.3 -->
      <g transform="translate(50.080625 276.9515625)scale(0.12 -0.12)">
       <use xlink:href="#Verdana-30"/>
       <use x="63.57421875" xlink:href="#Verdana-2e"/>
       <use x="99.951171875" xlink:href="#Verdana-33"/>
      </g>
     </g>
    </g>
    <g id="ytick_5">
     <g id="line2d_26">
      <g>
       <use style="stroke:#000000;stroke-width:0.5;" x="72.0" xlink:href="#md7965d1ba0" y="235.2"/>
      </g>
     </g>
     <g id="line2d_27">
      <g>
       <use style="stroke:#000000;stroke-width:0.5;" x="518.4" xlink:href="#md9a1c1a7cd" y="235.2"/>
      </g>
     </g>
     <g id="text_12">
      <!-- 0.4 -->
      <g transform="translate(49.76 238.5515625)scale(0.12 -0.12)">
       <use xlink:href="#Verdana-30"/>
       <use x="63.57421875" xlink:href="#Verdana-2e"/>
       <use x="99.951171875" xlink:href="#Verdana-34"/>
      </g>
     </g>
    </g>
    <g id="ytick_6">
     <g id="line2d_28">
      <g>
       <use style="stroke:#000000;stroke-width:0.5;" x="72.0" xlink:href="#md7965d1ba0" y="196.8"/>
      </g>
     </g>
     <g id="line2d_29">
      <g>
       <use style="stroke:#000000;stroke-width:0.5;" x="518.4" xlink:href="#md9a1c1a7cd" y="196.8"/>
      </g>
     </g>
     <g id="text_13">
      <!-- 0.5 -->
      <g transform="translate(50.028125 200.1515625)scale(0.12 -0.12)">
       <use xlink:href="#Verdana-30"/>
       <use x="63.57421875" xlink:href="#Verdana-2e"/>
       <use x="99.951171875" xlink:href="#Verdana-35"/>
      </g>
     </g>
    </g>
    <g id="ytick_7">
     <g id="line2d_30">
      <g>
       <use style="stroke:#000000;stroke-width:0.5;" x="72.0" xlink:href="#md7965d1ba0" y="158.4"/>
      </g>
     </g>
     <g id="line2d_31">
      <g>
       <use style="stroke:#000000;stroke-width:0.5;" x="518.4" xlink:href="#md9a1c1a7cd" y="158.4"/>
      </g>
     </g>
     <g id="text_14">
      <!-- 0.6 -->
      <defs>
       <path d="
M58.1562 23.5781
Q58.1562 12.5 50.8594 5.48438
Q43.5625 -1.51562 32.9531 -1.51562
Q27.5938 -1.51562 23.1875 0.140625
Q18.7969 1.8125 15.4375 5.07812
Q11.2344 9.125 8.95312 15.8125
Q6.6875 22.5156 6.6875 31.9375
Q6.6875 41.6094 8.76562 49.0781
Q10.8438 56.5469 15.375 62.3594
Q19.6719 67.875 26.4531 70.9688
Q33.25 74.0781 42.2812 74.0781
Q45.1719 74.0781 47.125 73.8281
Q49.0781 73.5781 51.0781 72.9531
L51.0781 63.625
L50.5938 63.625
Q49.2188 64.3594 46.4531 65.0156
Q43.7031 65.6719 40.8281 65.6719
Q30.3281 65.6719 24.0781 59.1094
Q17.8281 52.5469 16.7969 41.3594
Q20.9062 43.8438 24.875 45.1406
Q28.8594 46.4375 34.0781 46.4375
Q38.7188 46.4375 42.25 45.5781
Q45.7969 44.7344 49.5156 42.1406
Q53.8125 39.1562 55.9844 34.6094
Q58.1562 30.0781 58.1562 23.5781
M48.25 23.1875
Q48.25 27.7344 46.9062 30.7031
Q45.5625 33.6875 42.4844 35.8906
Q40.2344 37.4531 37.5 37.9375
Q34.7656 38.4219 31.7812 38.4219
Q27.6406 38.4219 24.0781 37.4375
Q20.5156 36.4688 16.75 34.4219
Q16.6562 33.3438 16.5938 32.3438
Q16.5469 31.3438 16.5469 29.8281
Q16.5469 22.125 18.1406 17.6562
Q19.7344 13.1875 22.5156 10.5938
Q24.75 8.45312 27.3594 7.45312
Q29.9844 6.45312 33.0625 6.45312
Q40.1406 6.45312 44.1875 10.7656
Q48.25 15.0938 48.25 23.1875" id="Verdana-36"/>
      </defs>
      <g transform="translate(49.829375 161.7515625)scale(0.12 -0.12)">
       <use xlink:href="#Verdana-30"/>
       <use x="63.57421875" xlink:href="#Verdana-2e"/>
       <use x="99.951171875" xlink:href="#Verdana-36"/>
      </g>
     </g>
    </g>
    <g id="ytick_8">
     <g id="line2d_32">
      <g>
       <use style="stroke:#000000;stroke-width:0.5;" x="72.0" xlink:href="#md7965d1ba0" y="120.0"/>
      </g>
     </g>
     <g id="line2d_33">
      <g>
       <use style="stroke:#000000;stroke-width:0.5;" x="518.4" xlink:href="#md9a1c1a7cd" y="120.0"/>
      </g>
     </g>
     <g id="text_15">
      <!-- 0.7 -->
      <defs>
       <path d="
M57.2812 61.8125
L24.3594 0
L13.9219 0
L48.9219 64.1562
L7.51562 64.1562
L7.51562 72.7031
L57.2812 72.7031
z
" id="Verdana-37"/>
      </defs>
      <g transform="translate(49.934375 123.3515625)scale(0.12 -0.12)">
       <use xlink:href="#Verdana-30"/>
       <use x="63.57421875" xlink:href="#Verdana-2e"/>
       <use x="99.951171875" xlink:href="#Verdana-37"/>
      </g>
     </g>
    </g>
    <g id="ytick_9">
     <g id="line2d_34">
      <g>
       <use style="stroke:#000000;stroke-width:0.5;" x="72.0" xlink:href="#md7965d1ba0" y="81.6"/>
      </g>
     </g>
     <g id="line2d_35">
      <g>
       <use style="stroke:#000000;stroke-width:0.5;" x="518.4" xlink:href="#md9a1c1a7cd" y="81.6"/>
      </g>
     </g>
     <g id="text_16">
      <!-- 0.8 -->
      <defs>
       <path d="
M57.625 20.2656
Q57.625 10.8438 50.2656 4.59375
Q42.9219 -1.65625 31.7812 -1.65625
Q19.9688 -1.65625 12.9531 4.4375
Q5.95312 10.5469 5.95312 20.0625
Q5.95312 26.125 9.46875 31.0312
Q12.9844 35.9375 19.3906 38.8125
L19.3906 39.1094
Q13.5312 42.2344 10.7188 45.9375
Q7.90625 49.6562 7.90625 55.2188
Q7.90625 63.4219 14.6406 68.8906
Q21.3906 74.3594 31.7812 74.3594
Q42.6719 74.3594 49.1719 69.1406
Q55.6719 63.9219 55.6719 55.8594
Q55.6719 50.9219 52.5938 46.1562
Q49.5156 41.4062 43.5625 38.7188
L43.5625 38.4219
Q50.3906 35.5 54 31.2031
Q57.625 26.9062 57.625 20.2656
M46.0469 55.7656
Q46.0469 60.9844 42.0156 64.0781
Q37.9844 67.1875 31.7344 67.1875
Q25.5938 67.1875 21.6562 64.25
Q17.7188 61.3281 17.7188 56.3438
Q17.7188 52.8281 19.7031 50.2656
Q21.6875 47.7031 25.6875 45.7031
Q27.4844 44.8281 30.875 43.4062
Q34.2812 42 37.5 41.0625
Q42.3281 44.2812 44.1875 47.75
Q46.0469 51.2188 46.0469 55.7656
M47.5625 19.3438
Q47.5625 23.8281 45.5781 26.5312
Q43.6094 29.25 37.8438 31.9844
Q35.5469 33.0625 32.8125 33.9844
Q30.0781 34.9062 25.5312 36.5781
Q21.1406 34.1875 18.4844 30.0781
Q15.8281 25.9844 15.8281 20.7969
Q15.8281 14.2031 20.3594 9.90625
Q24.9062 5.60938 31.8906 5.60938
Q39.0156 5.60938 43.2812 9.26562
Q47.5625 12.9375 47.5625 19.3438" id="Verdana-38"/>
      </defs>
      <g transform="translate(49.893125 84.9515625)scale(0.12 -0.12)">
       <use xlink:href="#Verdana-30"/>
       <use x="63.57421875" xlink:href="#Verdana-2e"/>
       <use x="99.951171875" xlink:href="#Verdana-38"/>
      </g>
     </g>
    </g>
    <g id="ytick_10">
     <g id="line2d_36">
      <g>
       <use style="stroke:#000000;stroke-width:0.5;" x="72.0" xlink:href="#md7965d1ba0" y="43.2"/>
      </g>
     </g>
     <g id="line2d_37">
      <g>
       <use style="stroke:#000000;stroke-width:0.5;" x="518.4" xlink:href="#md9a1c1a7cd" y="43.2"/>
      </g>
     </g>
     <g id="text_17">
      <!-- 0.9 -->
      <defs>
       <path d="
M56.9844 40.7188
Q56.9844 31.2031 54.8125 23.4375
Q52.6406 15.6719 48.25 10.2031
Q43.7969 4.64062 37.1094 1.60938
Q30.4219 -1.42188 21.3906 -1.42188
Q18.8438 -1.42188 16.5938 -1.14062
Q14.3594 -0.875 12.5938 -0.296875
L12.5938 9.03125
L13.0938 9.03125
Q14.5 8.29688 17.0781 7.64062
Q19.6719 6.98438 22.8594 6.98438
Q33.6406 6.98438 39.7656 13.4531
Q45.9062 19.9219 46.875 31.2969
Q42.3281 28.5625 38.3281 27.3906
Q34.3281 26.2188 29.5938 26.2188
Q25.0938 26.2188 21.4531 27.0938
Q17.8281 27.9844 14.1562 30.5156
Q9.85938 33.5 7.6875 38.0781
Q5.51562 42.6719 5.51562 49.0781
Q5.51562 60.2031 12.8438 67.1875
Q20.1719 74.1719 30.7188 74.1719
Q35.9844 74.1719 40.4688 72.5312
Q44.9688 70.9062 48.3438 67.625
Q52.4844 63.5781 54.7344 57.2031
Q56.9844 50.8281 56.9844 40.7188
M47.125 42.8281
Q47.125 50.3906 45.5625 54.9844
Q44 59.5781 41.2656 62.1094
Q38.9688 64.3125 36.3281 65.2656
Q33.6875 66.2188 30.6094 66.2188
Q23.5781 66.2188 19.5 61.8125
Q15.4375 57.4219 15.4375 49.4688
Q15.4375 44.8281 16.75 41.8906
Q18.0625 38.9688 21.1875 36.7656
Q23.3906 35.25 26.0156 34.7344
Q28.6562 34.2344 31.8906 34.2344
Q35.6875 34.2344 39.5938 35.25
Q43.5 36.2812 46.9219 38.2344
Q46.9688 39.2656 47.0469 40.2656
Q47.125 41.2656 47.125 42.8281" id="Verdana-39"/>
      </defs>
      <g transform="translate(49.97 46.5515625)scale(0.12 -0.12)">
       <use xlink:href="#Verdana-30"/>
       <use x="63.57421875" xlink:href="#Verdana-2e"/>
       <use x="99.951171875" xlink:href="#Verdana-39"/>
      </g>
     </g>
    </g>
    <g id="text_18">
     <!-- Rank 0 Probability -->
     <defs>
      <path d="
M56.2031 54.5469
L24.3594 -20.125
L14.5469 -20.125
L24.7031 2.64062
L2.98438 54.5469
L12.9375 54.5469
L29.6875 14.1094
L46.5781 54.5469
z
" id="Verdana-79"/>
      <path d="
M69.9219 0
L57.375 0
L33.0625 28.9062
L19.4375 28.9062
L19.4375 0
L9.76562 0
L9.76562 72.7031
L30.125 72.7031
Q36.7188 72.7031 41.1094 71.8438
Q45.5156 71 49.0312 68.7969
Q52.9844 66.3125 55.2031 62.5156
Q57.4219 58.7344 57.4219 52.9375
Q57.4219 45.0625 53.4688 39.7656
Q49.5156 34.4688 42.5781 31.7812
z

M47.3125 52.25
Q47.3125 55.375 46.2188 57.7812
Q45.125 60.2031 42.5781 61.8594
Q40.4844 63.2812 37.5938 63.8438
Q34.7188 64.4062 30.8125 64.4062
L19.4375 64.4062
L19.4375 36.9688
L29.2031 36.9688
Q33.7969 36.9688 37.2031 37.7656
Q40.625 38.5781 43.0156 40.7656
Q45.2188 42.8281 46.2656 45.4844
Q47.3125 48.1406 47.3125 52.25" id="Verdana-52"/>
      <path d="
M51.4219 0
L42.2812 0
L42.2812 5.8125
Q41.0625 4.98438 38.9844 3.48438
Q36.9219 2 34.9688 1.125
Q32.6719 0 29.6875 -0.75
Q26.7031 -1.51562 22.7031 -1.51562
Q15.3281 -1.51562 10.2031 3.35938
Q5.07812 8.25 5.07812 15.8281
Q5.07812 22.0156 7.73438 25.8438
Q10.4062 29.6875 15.3281 31.8906
Q20.3125 34.0781 27.2969 34.8594
Q34.2812 35.6406 42.2812 36.0312
L42.2812 37.4531
Q42.2812 40.5781 41.1875 42.625
Q40.0938 44.6719 38.0312 45.8438
Q36.0781 46.9688 33.3438 47.3594
Q30.6094 47.75 27.6406 47.75
Q24.0312 47.75 19.5781 46.7969
Q15.1406 45.8438 10.4062 44.0469
L9.90625 44.0469
L9.90625 53.375
Q12.5938 54.1094 17.6719 54.9844
Q22.75 55.8594 27.6875 55.8594
Q33.4531 55.8594 37.7188 54.9062
Q42 53.9531 45.125 51.6562
Q48.1875 49.4219 49.7969 45.8438
Q51.4219 42.2812 51.4219 37.0156
z

M42.2812 13.4219
L42.2812 28.6094
Q38.0938 28.375 32.3906 27.875
Q26.7031 27.3906 23.3906 26.4688
Q19.4375 25.3438 16.9844 22.9688
Q14.5469 20.6094 14.5469 16.4531
Q14.5469 11.7656 17.375 9.39062
Q20.2188 7.03125 26.0312 7.03125
Q30.8594 7.03125 34.8594 8.90625
Q38.875 10.7969 42.2812 13.4219" id="Verdana-61"/>
      <path d="
M57.3281 50.7344
Q57.3281 45.9062 55.6406 41.7656
Q53.9531 37.6406 50.9219 34.625
Q47.1719 30.8594 42.0469 28.9688
Q36.9219 27.0938 29.1094 27.0938
L19.4375 27.0938
L19.4375 0
L9.76562 0
L9.76562 72.7031
L29.5 72.7031
Q36.0312 72.7031 40.5781 71.6094
Q45.125 70.5156 48.6406 68.1719
Q52.7812 65.375 55.0469 61.2188
Q57.3281 57.0781 57.3281 50.7344
M47.2656 50.4844
Q47.2656 54.25 45.9375 57.0312
Q44.625 59.8125 41.9375 61.5781
Q39.5938 63.0938 36.5938 63.75
Q33.5938 64.4062 29 64.4062
L19.4375 64.4062
L19.4375 35.3594
L27.5938 35.3594
Q33.4531 35.3594 37.1094 36.4062
Q40.7656 37.4531 43.0625 39.75
Q45.3594 42.0938 46.3125 44.6719
Q47.2656 47.2656 47.2656 50.4844" id="Verdana-50"/>
      <path d="
M18.3125 0
L9.125 0
L9.125 75.9844
L18.3125 75.9844
z
" id="Verdana-6c"/>
      <path d="
M58.5469 0
L46.4375 0
L24.5625 23.875
L18.6094 18.2188
L18.6094 0
L9.42188 0
L9.42188 75.9844
L18.6094 75.9844
L18.6094 27.25
L45.125 54.5469
L56.6875 54.5469
L31.3438 29.3438
z
" id="Verdana-6b"/>
      <path d="
M43.0625 44.5312
L42.5781 44.5312
Q40.5312 45.0156 38.5938 45.2344
Q36.6719 45.4531 34.0312 45.4531
Q29.7812 45.4531 25.8281 43.5781
Q21.875 41.7031 18.2188 38.7188
L18.2188 0
L9.03125 0
L9.03125 54.5469
L18.2188 54.5469
L18.2188 46.4844
Q23.6875 50.875 27.8594 52.7031
Q32.0312 54.5469 36.375 54.5469
Q38.7656 54.5469 39.8438 54.4219
Q40.9219 54.2969 43.0625 53.9531
z
" id="Verdana-72"/>
     </defs>
     <g transform="translate(42.345 270.583125)rotate(-90.0)scale(0.12 -0.12)">
      <use xlink:href="#Verdana-52"/>
      <use x="67.53125" xlink:href="#Verdana-61"/>
      <use x="127.58984375" xlink:href="#Verdana-6e"/>
      <use x="190.87109375" xlink:href="#Verdana-6b"/>
      <use x="250.05078125" xlink:href="#Verdana-20"/>
      <use x="285.20703125" xlink:href="#Verdana-30"/>
      <use x="348.78125" xlink:href="#Verdana-20"/>
      <use x="383.9375" xlink:href="#Verdana-50"/>
      <use x="444.240234375" xlink:href="#Verdana-72"/>
      <use x="486.916015625" xlink:href="#Verdana-6f"/>
      <use x="547.609375" xlink:href="#Verdana-62"/>
      <use x="609.9140625" xlink:href="#Verdana-61"/>
      <use x="669.97265625" xlink:href="#Verdana-62"/>
      <use x="732.27734375" xlink:href="#Verdana-69"/>
      <use x="759.71875" xlink:href="#Verdana-6c"/>
      <use x="787.16015625" xlink:href="#Verdana-69"/>
      <use x="814.6015625" xlink:href="#Verdana-74"/>
      <use x="853.505859375" xlink:href="#Verdana-79"/>
     </g>
    </g>
   </g>
   <g id="patch_3">
    <path d="
M518.4 388.8
L518.4 43.2" style="fill:none;stroke:#000000;"/>
   </g>
   <g id="patch_4">
    <path d="
M72 43.2
L518.4 43.2" style="fill:none;stroke:#000000;"/>
   </g>
   <g id="patch_5">
    <path d="
M72 388.8
L518.4 388.8" style="fill:none;stroke:#000000;"/>
   </g>
   <g id="patch_6">
    <path d="
M72 388.8
L72 43.2" style="fill:none;stroke:#000000;"/>
   </g>
   <g id="text_19">
    <!-- Mishra11 Rank 0 Probability -->
    <defs>
     <path d="
M54.6406 0
L45.4531 0
L45.4531 31.0625
Q45.4531 34.8125 45.0156 38.1094
Q44.5781 41.4062 43.4062 43.2656
Q42.1875 45.3125 39.8906 46.3125
Q37.5938 47.3125 33.9375 47.3125
Q30.1719 47.3125 26.0625 45.4531
Q21.9688 43.6094 18.2188 40.7188
L18.2188 0
L9.03125 0
L9.03125 75.9844
L18.2188 75.9844
L18.2188 48.4844
Q22.5156 52.0469 27.0938 54.0469
Q31.6875 56.0625 36.5312 56.0625
Q45.3594 56.0625 50 50.7344
Q54.6406 45.4062 54.6406 35.4062
z
" id="Verdana-68"/>
     <path d="
M74.5156 0
L64.8438 0
L64.8438 62.6406
L44.625 20.0156
L38.875 20.0156
L18.7969 62.6406
L18.7969 0
L9.76562 0
L9.76562 72.7031
L22.9531 72.7031
L42.3281 32.2344
L61.0781 72.7031
L74.5156 72.7031
z
" id="Verdana-4d"/>
    </defs>
    <g transform="translate(194.392125 38.2)scale(0.144 -0.144)">
     <use xlink:href="#Verdana-4d"/>
     <use x="84.27734375" xlink:href="#Verdana-69"/>
     <use x="111.71875" xlink:href="#Verdana-73"/>
     <use x="163.818359375" xlink:href="#Verdana-68"/>
     <use x="227.099609375" xlink:href="#Verdana-72"/>
     <use x="268.025390625" xlink:href="#Verdana-61"/>
     <use x="328.083984375" xlink:href="#Verdana-31"/>
     <use x="391.658203125" xlink:href="#Verdana-31"/>
     <use x="455.232421875" xlink:href="#Verdana-20"/>
     <use x="490.388671875" xlink:href="#Verdana-52"/>
     <use x="557.919921875" xlink:href="#Verdana-61"/>
     <use x="617.978515625" xlink:href="#Verdana-6e"/>
     <use x="681.259765625" xlink:href="#Verdana-6b"/>
     <use x="740.439453125" xlink:href="#Verdana-20"/>
     <use x="775.595703125" xlink:href="#Verdana-30"/>
     <use x="839.169921875" xlink:href="#Verdana-20"/>
     <use x="874.326171875" xlink:href="#Verdana-50"/>
     <use x="934.62890625" xlink:href="#Verdana-72"/>
     <use x="977.3046875" xlink:href="#Verdana-6f"/>
     <use x="1037.998046875" xlink:href="#Verdana-62"/>
     <use x="1100.302734375" xlink:href="#Verdana-61"/>
     <use x="1160.361328125" xlink:href="#Verdana-62"/>
     <use x="1222.666015625" xlink:href="#Verdana-69"/>
     <use x="1250.107421875" xlink:href="#Verdana-6c"/>
     <use x="1277.548828125" xlink:href="#Verdana-69"/>
     <use x="1304.990234375" xlink:href="#Verdana-74"/>
     <use x="1343.89453125" xlink:href="#Verdana-79"/>
    </g>
   </g>
   <g id="legend_1">
    <g id="patch_7">
     <path d="
M407.18 270.759
L511.2 270.759
L511.2 161.241
L407.18 161.241
L407.18 270.759
z
" style="fill:#ffffff;stroke:#000000;"/>
    </g>
    <g id="line2d_38">
     <path d="
M417.26 172.902
L437.42 172.902" style="fill:none;stroke:#0000ff;stroke-dasharray:6.000000,2.000000;stroke-dashoffset:0.0;"/>
    </g>
    <g id="line2d_39"/>
    <g id="text_20">
     <!-- AMPGO -->
     <defs>
      <path d="
M67.0938 0
L56.7812 0
L49.6562 20.2656
L18.2188 20.2656
L11.0781 0
L1.26562 0
L27.7344 72.7031
L40.625 72.7031
z

M46.6875 28.5625
L33.9375 64.2656
L21.1406 28.5625
z
" id="Verdana-41"/>
      <path d="
M70.4062 5.375
Q64.4531 2.64062 57.3906 0.609375
Q50.3438 -1.42188 43.75 -1.42188
Q35.25 -1.42188 28.1719 0.921875
Q21.0938 3.26562 16.1094 7.95312
Q11.0781 12.7031 8.34375 19.7969
Q5.60938 26.9062 5.60938 36.4219
Q5.60938 53.8594 15.7969 63.9375
Q25.9844 74.0312 43.75 74.0312
Q49.9531 74.0312 56.4219 72.5312
Q62.8906 71.0469 70.3594 67.4844
L70.3594 56
L69.4844 56
Q67.9688 57.1719 65.0781 59.0781
Q62.2031 60.9844 59.4219 62.25
Q56.0625 63.7656 51.7812 64.7656
Q47.5156 65.7656 42.0938 65.7656
Q29.8906 65.7656 22.7812 57.9219
Q15.6719 50.0938 15.6719 36.7188
Q15.6719 22.6094 23.0938 14.7656
Q30.5156 6.9375 43.3125 6.9375
Q48 6.9375 52.6562 7.85938
Q57.3281 8.79688 60.8438 10.25
L60.8438 28.0781
L41.3594 28.0781
L41.3594 36.5781
L70.4062 36.5781
z
" id="Verdana-47"/>
     </defs>
     <g transform="translate(453.26025 177.942375)scale(0.144 -0.144)">
      <use xlink:href="#Verdana-41"/>
      <use x="68.359375" xlink:href="#Verdana-4d"/>
      <use x="152.63671875" xlink:href="#Verdana-50"/>
      <use x="212.939453125" xlink:href="#Verdana-47"/>
      <use x="290.478515625" xlink:href="#Verdana-4f"/>
     </g>
    </g>
    <g id="line2d_40">
     <path d="
M417.26 193.942
L437.42 193.942" style="fill:none;stroke:#008000;stroke-dasharray:1.000000,1.000000;stroke-dashoffset:0.0;"/>
    </g>
    <g id="line2d_41"/>
    <g id="text_21">
     <!-- Anneal -->
     <g transform="translate(453.26025 198.982125)scale(0.144 -0.144)">
      <use xlink:href="#Verdana-41"/>
      <use x="68.359375" xlink:href="#Verdana-6e"/>
      <use x="131.640625" xlink:href="#Verdana-6e"/>
      <use x="194.921875" xlink:href="#Verdana-65"/>
      <use x="254.4921875" xlink:href="#Verdana-61"/>
      <use x="314.55078125" xlink:href="#Verdana-6c"/>
     </g>
    </g>
    <g id="line2d_42">
     <path d="
M417.26 214.982
L437.42 214.982" style="fill:none;stroke:#ff0000;stroke-dasharray:3.000000,6.000000;stroke-dashoffset:0.0;"/>
    </g>
    <g id="line2d_43"/>
    <g id="text_22">
     <!-- BSA -->
     <defs>
      <path d="
M62.5938 20.75
Q62.5938 16.5 60.6094 12.3438
Q58.6406 8.20312 55.0781 5.32812
Q51.1719 2.20312 45.9688 0.4375
Q40.7656 -1.3125 33.4531 -1.3125
Q25.5938 -1.3125 19.3125 0.140625
Q13.0312 1.60938 6.54688 4.5
L6.54688 16.6094
L7.23438 16.6094
Q12.75 12.0156 19.9688 9.51562
Q27.2031 7.03125 33.5469 7.03125
Q42.5312 7.03125 47.5312 10.3906
Q52.5469 13.7656 52.5469 19.3906
Q52.5469 24.2188 50.1719 26.5156
Q47.7969 28.8125 42.9688 30.0781
Q39.3125 31.0625 35.0312 31.6875
Q30.7656 32.3281 25.9844 33.2969
Q16.3125 35.3594 11.6406 40.3125
Q6.98438 45.2656 6.98438 53.2188
Q6.98438 62.3594 14.6875 68.1875
Q22.4062 74.0312 34.2812 74.0312
Q41.9375 74.0312 48.3281 72.5625
Q54.7344 71.0938 59.6719 68.9531
L59.6719 57.5156
L58.9844 57.5156
Q54.8281 61.0312 48.0625 63.3438
Q41.3125 65.6719 34.2344 65.6719
Q26.4688 65.6719 21.75 62.4531
Q17.0469 59.2344 17.0469 54.1562
Q17.0469 49.6094 19.3906 47.0156
Q21.7344 44.4375 27.6406 43.0625
Q30.7656 42.3906 36.5156 41.4062
Q42.2812 40.4375 46.2969 39.4062
Q54.3906 37.25 58.4844 32.9062
Q62.5938 28.5625 62.5938 20.75" id="Verdana-53"/>
      <path d="
M64.5938 22.3594
Q64.5938 16.9375 62.5469 12.7812
Q60.5 8.64062 57.0312 5.95312
Q52.9375 2.73438 48.0156 1.35938
Q43.1094 0 35.5469 0
L9.76562 0
L9.76562 72.7031
L31.2969 72.7031
Q39.2656 72.7031 43.2188 72.1094
Q47.1719 71.5312 50.7812 69.6719
Q54.7812 67.5781 56.5938 64.2812
Q58.4062 60.9844 58.4062 56.3906
Q58.4062 51.2188 55.7656 47.5781
Q53.125 43.9531 48.7344 41.75
L48.7344 41.3594
Q56.1094 39.8438 60.3438 34.8906
Q64.5938 29.9375 64.5938 22.3594
M48.3438 55.125
Q48.3438 57.7656 47.4531 59.5625
Q46.5781 61.375 44.625 62.5
Q42.3281 63.8125 39.0625 64.125
Q35.7969 64.4531 30.9531 64.4531
L19.4375 64.4531
L19.4375 43.4531
L31.9375 43.4531
Q36.4688 43.4531 39.1562 43.9219
Q41.8438 44.3906 44.1406 45.8438
Q46.4375 47.3125 47.3906 49.625
Q48.3438 51.9531 48.3438 55.125
M54.5469 21.9688
Q54.5469 26.375 53.2188 28.9531
Q51.9062 31.5469 48.4375 33.3438
Q46.0938 34.5781 42.75 34.9375
Q39.4062 35.2969 34.625 35.2969
L19.4375 35.2969
L19.4375 8.25
L32.2344 8.25
Q38.5781 8.25 42.625 8.90625
Q46.6875 9.57812 49.2656 11.3281
Q52 13.2344 53.2656 15.6719
Q54.5469 18.1094 54.5469 21.9688" id="Verdana-42"/>
     </defs>
     <g transform="translate(453.26025 220.021875)scale(0.144 -0.144)">
      <use xlink:href="#Verdana-42"/>
      <use x="68.5546875" xlink:href="#Verdana-53"/>
      <use x="135.9140625" xlink:href="#Verdana-41"/>
     </g>
    </g>
    <g id="line2d_44">
     <path d="
M417.26 236.022
L437.42 236.022" style="fill:none;stroke:#00bfbf;stroke-dasharray:5.000000,1.000000,2.000000,1.000000,5.000000,1.000000;stroke-dashoffset:0.0;"/>
    </g>
    <g id="line2d_45"/>
    <g id="text_23">
     <!-- Cuckoo -->
     <defs>
      <path d="
M65.9219 5.28125
Q63.2344 4.10938 61.0625 3.07812
Q58.8906 2.04688 55.375 0.921875
Q52.3906 0 48.8906 -0.65625
Q45.4062 -1.3125 41.2188 -1.3125
Q33.2969 -1.3125 26.8281 0.90625
Q20.3594 3.125 15.5781 7.85938
Q10.8906 12.5 8.25 19.6562
Q5.60938 26.8125 5.60938 36.2812
Q5.60938 45.2656 8.14062 52.3438
Q10.6875 59.4219 15.4844 64.3125
Q20.125 69.0469 26.6875 71.5312
Q33.25 74.0312 41.2656 74.0312
Q47.125 74.0312 52.9531 72.6094
Q58.7969 71.1875 65.9219 67.625
L65.9219 56.1562
L65.1875 56.1562
Q59.1875 61.1875 53.2656 63.4688
Q47.3594 65.7656 40.625 65.7656
Q35.1094 65.7656 30.6875 63.9844
Q26.2656 62.2031 22.7969 58.4531
Q19.4375 54.7812 17.5469 49.1875
Q15.6719 43.6094 15.6719 36.2812
Q15.6719 28.6094 17.75 23.0938
Q19.8281 17.5781 23.0938 14.1094
Q26.5156 10.5 31.0781 8.76562
Q35.6406 7.03125 40.7188 7.03125
Q47.7031 7.03125 53.7969 9.42188
Q59.9062 11.8125 65.2344 16.6094
L65.9219 16.6094
z
" id="Verdana-43"/>
     </defs>
     <g transform="translate(453.26025 241.061625)scale(0.144 -0.144)">
      <use xlink:href="#Verdana-43"/>
      <use x="69.82421875" xlink:href="#Verdana-75"/>
      <use x="133.10546875" xlink:href="#Verdana-63"/>
      <use x="185.205078125" xlink:href="#Verdana-6b"/>
      <use x="243.384765625" xlink:href="#Verdana-6f"/>
      <use x="304.078125" xlink:href="#Verdana-6f"/>
     </g>
    </g>
    <g id="line2d_46">
     <path d="
M417.26 257.061
L437.42 257.061" style="fill:none;stroke:#bf00bf;stroke-linecap:square;"/>
    </g>
    <g id="line2d_47"/>
    <g id="text_24">
     <!-- qABC -->
     <defs>
      <path d="
M53.2656 -20.125
L44.0938 -20.125
L44.0938 6.15625
Q39.8438 2.48438 35.6406 0.703125
Q31.4531 -1.07812 26.5625 -1.07812
Q16.8438 -1.07812 11.0625 6.42188
Q5.28125 13.9219 5.28125 27.0938
Q5.28125 34.125 7.29688 39.5156
Q9.32812 44.9219 12.6406 48.5781
Q15.875 52.1562 20.2188 54.1094
Q24.5625 56.0625 29.3906 56.0625
Q33.7969 56.0625 37.1875 55.0781
Q40.5781 54.1094 44.0938 52.2031
L44.6719 54.5469
L53.2656 54.5469
z

M44.0938 13.875
L44.0938 44.7344
Q40.2812 46.4375 37.3438 47.1094
Q34.4219 47.7969 31 47.7969
Q23.0469 47.7969 18.8906 42.4062
Q14.75 37.0156 14.75 27.5469
Q14.75 17.9688 18.0938 12.8125
Q21.4375 7.67188 28.6094 7.67188
Q32.625 7.67188 36.625 9.40625
Q40.625 11.1406 44.0938 13.875" id="Verdana-71"/>
     </defs>
     <g transform="translate(453.26025 262.101375)scale(0.144 -0.144)">
      <use xlink:href="#Verdana-71"/>
      <use x="62.3046875" xlink:href="#Verdana-41"/>
      <use x="130.6640625" xlink:href="#Verdana-42"/>
      <use x="199.21875" xlink:href="#Verdana-43"/>
     </g>
    </g>
   </g>
  </g>
 </g>
 <defs>
  <clipPath id="p7ff5b81e1d">
   <rect height="345.6" width="446.4" x="72.0" y="43.2"/>
  </clipPath>
 </defs>
</svg>
