<?xml version="1.0" encoding="utf-8" standalone="no"?>
<!DOCTYPE svg PUBLIC "-//W3C//DTD SVG 1.1//EN"
  "http://www.w3.org/Graphics/SVG/1.1/DTD/svg11.dtd">
<!-- Created with matplotlib (http://matplotlib.org/) -->
<svg height="432pt" version="1.1" viewBox="0 0 576 432" width="576pt" xmlns="http://www.w3.org/2000/svg" xmlns:xlink="http://www.w3.org/1999/xlink">
 <defs>
  <style type="text/css">
*{stroke-linecap:butt;stroke-linejoin:round;}
  </style>
 </defs>
 <g id="figure_1">
  <g id="patch_1">
   <path d="
M0 432
L576 432
L576 0
L0 0
z
" style="fill:#ffffff;"/>
  </g>
  <g id="axes_1">
   <g id="patch_2">
    <path d="
M72 388.8
L518.4 388.8
L518.4 43.2
L72 43.2
z
" style="fill:#ffffff;"/>
   </g>
   <g id="line2d_1">
    <path clip-path="url(#p7ff5b81e1d)" d="
M72 316.342
L72.0893 343.15
L72.1786 354.957
L72.4464 369.143
L72.8035 376.386
L73.3392 380.891
L73.6963 382.576
L75.2141 384.285
L75.5712 384.776
L76.1069 385.903
L76.6426 386.809
L76.7318 62.1941
L76.8211 63.2387
L77.7139 77.5145
L78.071 81.7331
L79.321 109.611
L81.1958 180.584
L82.8922 228.903
L83.5171 255.013
L84.6778 294.301
L85.4813 310.986
L86.5526 331.416
L87.5347 352.599
L87.9811 358.867
L88.8739 366.53
L89.3203 369.564
L89.6774 371.728
L89.856 372.936
L90.2131 375.884
L91.0166 380.337
L91.5523 382.37
L93.6058 385.783
L94.945 387.148
L95.7485 387.445
L96.552 387.677
L98.6054 388.127
L99.409 388.211
L103.159 388.499
L106.373 388.657
L110.748 388.758
L118.604 388.797
L141.371 388.8
L518.311 388.8
L518.311 388.8" style="fill:none;stroke:#0000ff;stroke-dasharray:6.000000,2.000000;stroke-dashoffset:0.0;"/>
   </g>
   <g id="line2d_2">
    <path clip-path="url(#p7ff5b81e1d)" d="
M72 318.517
L72.0893 344.089
L72.1786 355.402
L72.4464 363.736
L72.7142 366.74
L72.8035 365.758
L72.8928 365.912
L73.1606 363.827
L73.3392 362.057
L73.607 360.509
L74.4106 339.059
L75.4819 297.724
L76.1069 283.172
L76.464 273.095
L76.6426 269.949
L76.7318 379.558
L76.8211 379.183
L77.2675 374.676
L77.5354 371.16
L78.5174 355.448
L79.1424 341.935
L79.7674 327.178
L80.1245 319.632
L80.5709 310.458
L81.1066 294.36
L81.4637 284.276
L81.6422 279.168
L82.3565 255.645
L83.9635 218.138
L84.1421 216.257
L84.6778 202.091
L85.392 179.114
L86.1955 157.598
L87.3562 147.054
L87.4454 146.776
L87.5347 147.099
L87.7133 145.774
L87.8026 145.423
L87.8918 145.461
L87.9811 145.676
L88.7846 126.765
L89.9453 107.687
L90.0346 107.576
L90.8381 114.578
L91.1059 116.532
L91.1952 117.173
L91.2845 116.915
L91.5523 118.841
L91.9987 112.496
L93.3379 92.5817
L93.4272 93.6861
L93.695 96.0629
L93.8736 97.0835
L93.9629 97.1329
L94.32 100.019
L94.4986 101.735
L94.945 107.236
L95.0342 107.583
L95.1235 108.552
L96.0163 97.3526
L96.6413 90.7063
L96.8198 89.0609
L96.9091 87.9024
L97.3555 91.8073
L98.6054 100.852
L98.6947 102.403
L100.48 85.5028
L100.659 86.114
L100.837 87.4918
L101.284 90.1419
L101.552 91.9788
L101.641 92.1864
L101.909 94.468
L101.998 94.5174
L102.087 95.0614
L102.266 97.2257
L103.248 88.9015
L103.694 85.9209
L104.052 83.4817
L104.319 85.0813
L105.123 88.8129
L105.212 88.5564
L105.301 88.9187
L105.569 90.7957
L105.659 90.9315
L105.837 91.7254
L106.373 87.7957
L106.819 84.2736
L107.087 82.8568
L107.623 79.0978
L107.712 79.4463
L108.248 82.835
L108.337 83.1557
L108.605 84.9777
L108.873 86.7183
L109.051 87.9636
L109.14 87.8508
L109.408 88.5411
L109.855 85.9162
L110.033 85.1334
L110.926 79.4556
L111.194 78.0626
L111.283 78.3651
L111.551 78.8731
L111.819 80.2581
L111.997 81.2153
L112.087 81.0273
L112.444 81.8041
L112.622 83.6059
L112.712 83.5641
L112.801 83.5791
L112.98 84.0436
L113.962 78.8605
L114.319 77.2823
L114.587 75.7207
L114.765 74.83
L114.854 75.0144
L115.033 76.0152
L115.122 76.1417
L115.836 79.2695
L115.926 79.1608
L116.372 80.9379
L116.551 82.0392
L117.444 77.3828
L118.068 74.8435
L118.426 73.3716
L118.783 75.1264
L119.318 77.1166
L119.408 77.002
L120.122 80.1123
L120.568 78.2935
L120.925 76.6564
L121.015 76.2624
L121.283 74.5412
L121.372 74.5054
L121.908 72.5073
L121.997 72.7413
L122.175 73.4133
L122.265 73.4518
L122.622 75.3946
L122.711 75.4841
L123.425 77.7986
L123.604 78.1869
L123.693 78.3135
L125.479 71.568
L125.657 71.5005
L126.55 74.2419
L126.729 74.3782
L127.264 76.098
L127.354 75.8308
L127.443 75.6518
L127.979 73.095
L128.425 71.1673
L128.782 69.8593
L129.05 69.1791
L129.943 71.769
L130.836 74.1634
L131.193 73.2093
L131.55 71.8351
L131.639 71.5859
L131.996 69.9089
L132.621 68.1106
L132.8 68.6036
L132.889 68.397
L133.068 68.5554
L133.425 69.6128
L133.692 70.0231
L133.871 70.6661
L134.139 71.1191
L134.228 71.4785
L134.317 71.3959
L134.764 70.1484
L135.21 68.2883
L135.389 67.9798
L136.103 66.0095
L136.282 65.7534
L136.46 65.7988
L136.817 67.089
L136.996 67.3506
L137.264 67.838
L137.532 68.6283
L137.799 69.2259
L137.978 69.6156
L138.246 68.9877
L139.049 66.7916
L139.406 65.8594
L139.764 64.8157
L140.031 65.1503
L140.121 64.9355
L140.388 65.2371
L140.478 65.1985
L140.746 65.6639
L141.281 66.7943
L141.371 66.7861
L141.549 67.1606
L142.085 66.0563
L142.174 65.9833
L142.71 64.7028
L142.888 64.5473
L143.335 63.5931
L143.424 63.5463
L143.692 64.2333
L143.87 64.3407
L144.585 65.204
L144.852 64.8226
L145.031 64.8956
L145.12 65.0595
L145.567 63.8464
L146.37 62.201
L146.638 61.6572
L146.906 61.1202
L147.888 63.0024
L148.067 63.4829
L148.245 63.5889
L148.424 64.0516
L148.602 64.0653
L148.692 64.433
L150.031 61.8582
L150.299 61.5071
L150.566 61.1491
L150.656 61.3556
L150.924 61.1271
L151.013 61.0858
L151.102 61.3763
L151.191 61.2207
L151.37 61.3019
L151.638 61.4396
L151.727 61.3914
L152.352 62.3374
L152.531 61.7536
L152.888 61.3983
L153.334 60.5391
L153.423 60.513
L153.78 59.8094
L153.959 59.6896
L154.048 59.3233
L154.138 59.3674
L154.673 59.8273
L154.763 59.8438
L155.209 60.4813
L155.477 60.4703
L155.834 60.4372
L156.191 59.9553
L156.905 59.0962
L157.262 58.4545
L157.53 58.0965
L157.62 57.8955
L157.709 57.9533
L157.887 57.9533
L158.334 58.2452
L158.602 58.1323
L159.227 59.0865
L159.584 58.8924
L160.119 57.952
L160.834 57.2484
L161.101 56.8009
L161.191 56.5131
L161.369 56.8436
L161.548 57.1355
L161.637 57.141
L161.726 57.4329
L161.816 57.3475
L162.441 58.2645
L162.53 58.2039
L162.798 58.4862
L162.976 58.6005
L163.333 58.2879
L163.601 57.762
L164.226 57.0405
L164.583 56.794
L164.94 56.6839
L165.119 56.8064
L165.387 56.984
L165.565 56.8642
L165.744 56.8518
L165.923 56.7968
L166.28 56.8036
L166.458 56.6219
L166.548 56.8092
L166.726 56.5365
L167.083 56.173
L167.619 55.3318
L167.797 55.1197
L168.155 54.6956
L168.333 54.6006
L168.512 54.6943
L168.78 54.7617
L169.047 55.2009
L169.226 55.0316
L169.315 54.9297
L169.762 55.3799
L170.119 55.5617
L170.565 55.0343
L170.654 55.1665
L171.101 54.6846
L171.458 54.3955
L172.261 53.7235
L172.44 53.97
L172.708 53.8075
L172.886 54.1435
L173.244 54.2963
L173.779 54.5235
L174.583 53.5831
L174.761 53.2623
L175.565 52.4541
L175.743 52.5559
L176.19 52.5298
L176.279 52.4747
L176.636 52.896
L176.815 52.9236
L177.261 52.717
L178.332 51.4021
L178.511 51.3085
L178.779 51.0097
L179.136 50.7949
L179.225 50.7329
L179.315 50.8156
L179.493 50.6971
L179.761 50.8817
L180.475 50.8514
L180.743 51.1653
L180.922 51.0689
L181.368 50.7564
L182.707 49.7801
L182.975 49.7471
L183.243 50.0046
L183.689 50.2331
L183.868 50.1905
L184.136 50.4176
L184.314 50.5416
L184.493 50.5856
L185.118 50.0858
L185.296 49.9867
L185.564 49.6452
L185.832 49.5089
L186.457 49.3051
L186.725 49.2803
L187.082 49.2032
L187.439 49.3657
L187.796 49.4524
L188.064 49.4676
L188.332 49.3643
L188.51 49.1922
L189.76 48.5272
L190.028 48.7475
L190.296 48.6291
L190.475 48.6731
L190.653 48.8053
L191.189 48.9416
L191.457 49.1867
L191.814 49.1165
L191.992 48.8494
L192.171 48.8094
L192.439 48.6717
L193.51 48.3688
L193.778 48.5561
L194.046 48.5299
L194.314 48.6346
L194.492 48.7571
L194.581 48.7172
L194.849 49.027
L195.742 48.7378
L197.438 48.4019
L197.796 48.4955
L197.974 48.479
L198.242 48.7502
L198.331 48.7475
L198.51 49.0173
L198.956 48.9829
L199.581 48.6084
L199.76 48.5189
L200.117 48.3413
L200.831 48.1196
L201.545 48.2601
L201.813 48.6029
L202.438 48.4914
L202.974 48.2904
L203.331 48.1182
L204.849 47.8208
L205.384 47.9282
L205.652 47.8318
L206.456 47.6763
L207.795 47.3307
L207.973 47.3431
L208.152 47.3403
L208.956 47.6019
L209.134 47.6088
L210.205 47.3375
L210.92 47.1228
L211.366 47.109
L211.812 47.1159
L213.42 47.1943
L214.044 46.9382
L215.027 46.6422
L215.205 46.7166
L215.562 46.6753
L216.187 46.8708
L217.08 46.7193
L217.705 46.6188
L217.973 46.4137
L218.776 46.3352
L218.955 46.3737
L221.455 46.1011
L221.99 45.9717
L222.437 45.9882
L222.615 46.1149
L222.883 46.1025
L223.151 46.119
L223.776 46.1341
L225.74 45.6839
L226.365 45.6715
L226.544 45.5545
L227.526 45.5283
L228.508 45.4168
L228.865 45.3452
L229.133 45.2956
L229.758 45.3287
L230.026 45.3287
L230.204 45.454
L231.097 45.4581
L231.99 45.2984
L233.061 45.308
L233.418 45.33
L234.757 45.2171
L235.472 45.1166
L236.543 45.0932
L237.168 45.2337
L237.436 45.2226
L238.329 45.3314
L239.489 45.0918
L239.936 45.0134
L240.114 45.0065
L242.078 45.0519
L242.703 44.9349
L244.846 44.8233
L245.114 44.9073
L247.167 44.6182
L247.882 44.6375
L248.864 44.643
L249.31 44.5824
L251.185 44.3951
L252.078 44.4557
L254.488 44.3222
L254.845 44.3249
L257.167 44.2877
L257.524 44.2382
L257.881 44.2244
L258.06 44.3538
L259.22 44.4296
L259.488 44.4667
L261.006 44.358
L262.077 44.3153
L262.256 44.4117
L263.148 44.402
L267.434 44.1638
L269.13 44.0248
L269.666 44.0757
L271.987 43.9821
L272.344 43.9339
L278.058 43.9174
L278.505 43.8623
L280.38 43.8265
L282.254 43.7769
L308.771 43.463
L309.217 43.4891
L324.216 43.3831
L325.644 43.3638
L326.091 43.3859
L343.322 43.2771
L345.911 43.2647
L518.311 43.2055
L518.311 43.2055" style="fill:none;stroke:#008000;stroke-dasharray:1.000000,1.000000;stroke-dashoffset:0.0;"/>
   </g>
   <g id="line2d_3">
    <path clip-path="url(#p7ff5b81e1d)" d="
M72 321.401
L72.0893 299.338
L72.0893 299.338
L72.0893 299.338
L72.1786 299.737
L72.7142 280.374
L72.9821 275.147
L73.0714 277.022
L73.1606 276.708
L73.2499 274.878
L73.3392 275.042
L73.4285 275.506
L73.6963 280.614
L73.7856 279.912
L73.8749 278.869
L74.0534 279.918
L74.232 281.444
L74.3213 280.744
L74.4106 281.179
L74.5891 282.725
L74.6784 282.698
L75.2141 289.148
L75.4819 292.2
L76.6426 334.158
L76.8211 387.16
L76.9104 387.184
L77.089 387.11
L77.8925 387.171
L78.071 386.781
L78.9638 386.832
L79.8566 387.197
L80.0352 387.125
L80.5709 387.277
L81.1066 387.406
L81.1958 386.913
L81.2851 386.938
L82.2672 387.173
L82.4458 387.082
L83.16 387.35
L83.8742 387.722
L84.767 388.076
L85.2134 387.843
L85.392 387.731
L88.249 388.558
L91.9987 388.784
L99.3197 388.8
L518.311 388.8
L518.311 388.8" style="fill:none;stroke:#ff0000;stroke-dasharray:3.000000,6.000000;stroke-dashoffset:0.0;"/>
   </g>
   <g id="line2d_4">
    <path clip-path="url(#p7ff5b81e1d)" d="
M72 319.624
L72.0893 299.722
L72.1786 292.686
L72.3571 287.151
L72.4464 286.663
L72.625 282.869
L72.8035 285.263
L72.8928 285.04
L73.1606 281.308
L73.4285 286.336
L73.5178 285.828
L73.607 283.936
L73.8749 287.022
L74.7677 301.939
L75.5712 313.981
L75.839 319.915
L75.9283 319.714
L76.6426 334.302
L76.7318 386.235
L76.8211 386.224
L77.8925 386.325
L79.321 386.676
L79.4995 386.424
L79.5888 385.545
L79.6781 385.582
L80.0352 385.578
L80.6602 385.824
L80.8387 385.797
L82.8922 386.791
L83.2493 386.611
L86.2848 387.936
L86.3741 387.751
L86.4634 387.796
L86.6419 387.789
L86.999 387.971
L87.1776 387.672
L87.7133 387.865
L88.249 388.028
L90.7488 388.612
L92.713 388.745
L97.8912 388.799
L403.854 388.8
L518.311 388.8
L518.311 388.8" style="fill:none;stroke:#00bfbf;stroke-dasharray:5.000000,1.000000,2.000000,1.000000,5.000000,1.000000;stroke-dashoffset:0.0;"/>
   </g>
   <g id="line2d_5">
    <path clip-path="url(#p7ff5b81e1d)" d="
M72 322.515
L72.3571 289.207
L72.4464 289.327
L72.625 292.282
L72.7142 291.945
L72.8928 293.614
L72.9821 296.772
L73.0714 295.932
L73.2499 297.504
L73.3392 296.597
L73.5178 292.876
L73.607 292.678
L73.6963 292.163
L74.0534 294.542
L74.4106 298.576
L74.9462 305.19
L75.4819 311.319
L76.1962 287.311
L76.3747 282.395
L76.6426 273.182
L76.7318 383.271
L76.8211 382.594
L76.9997 381.296
L77.2675 379.104
L77.3568 379.133
L78.2496 379.513
L78.4282 379.687
L78.5174 379.548
L78.7853 379.791
L78.8746 379.709
L79.0531 379.927
L79.4995 375.86
L79.8566 371.739
L80.8387 352.362
L81.1958 353.925
L81.2851 353.729
L81.553 354.491
L81.9101 355.966
L82.6243 359.239
L84.0528 330.985
L84.4099 324.137
L86.1955 342.008
L86.8205 334.285
L87.0883 329.488
L87.1776 329.048
L87.624 322.1
L87.9811 317.363
L88.5168 324.604
L88.6954 327.042
L88.9632 330.548
L89.5882 338.938
L89.7667 340.773
L90.1238 337.53
L91.1059 323.716
L91.5523 319.711
L91.9094 324.05
L93.3379 342.908
L93.7843 338.03
L94.1414 335.811
L94.5878 330.748
L94.945 326.426
L95.0342 326.032
L95.1235 325.012
L95.927 334.692
L96.552 342.01
L96.7306 342.971
L96.9091 345.158
L97.3555 341.125
L98.6054 331.823
L98.6947 330.25
L100.48 346.99
L100.659 346.356
L100.837 344.966
L101.284 342.288
L101.552 340.424
L101.641 340.207
L101.909 337.906
L101.998 337.849
L102.087 337.298
L102.266 335.132
L103.248 343.392
L103.694 346.352
L104.052 348.778
L104.319 347.163
L105.123 343.385
L105.212 343.636
L105.301 343.27
L105.569 341.38
L105.659 341.241
L105.837 340.435
L106.373 344.347
L106.819 347.851
L107.087 349.27
L107.623 353.01
L107.712 352.659
L108.248 349.25
L108.337 348.929
L108.605 347.103
L108.873 345.357
L109.051 344.106
L109.14 344.215
L109.408 343.519
L109.855 346.141
L110.033 346.923
L110.926 352.583
L111.194 353.973
L111.283 353.668
L111.551 353.157
L111.819 351.77
L111.997 350.811
L112.087 350.998
L112.444 350.216
L112.622 348.412
L112.712 348.453
L112.801 348.438
L112.98 347.972
L113.962 353.155
L114.319 354.731
L114.587 356.291
L114.765 357.182
L114.854 356.997
L115.033 355.996
L115.122 355.869
L115.836 352.739
L115.926 352.847
L116.372 351.068
L116.551 349.967
L117.444 354.621
L118.068 357.16
L118.426 358.632
L118.783 356.876
L119.318 354.885
L119.408 354.999
L120.122 351.889
L120.568 353.707
L120.925 355.345
L121.015 355.738
L121.283 357.459
L121.372 357.495
L121.908 359.493
L121.997 359.259
L122.175 358.587
L122.265 358.548
L122.622 356.606
L122.711 356.516
L123.425 354.202
L123.604 353.813
L123.693 353.687
L125.479 360.432
L125.657 360.499
L126.55 357.758
L126.729 357.622
L127.264 355.902
L127.354 356.169
L127.443 356.348
L127.979 358.905
L128.425 360.833
L128.782 362.141
L129.05 362.821
L129.943 360.231
L130.836 357.837
L131.193 358.791
L131.55 360.165
L131.639 360.414
L131.996 362.091
L132.621 363.889
L132.8 363.396
L132.889 363.603
L133.068 363.445
L133.425 362.387
L133.692 361.977
L133.871 361.334
L134.139 360.881
L134.228 360.521
L134.317 360.604
L134.764 361.852
L135.21 363.712
L135.389 364.02
L136.103 365.99
L136.282 366.247
L136.46 366.201
L136.817 364.911
L136.996 364.649
L137.264 364.162
L137.532 363.372
L137.799 362.774
L137.978 362.384
L138.246 363.012
L139.049 365.208
L139.406 366.141
L139.764 367.184
L140.031 366.85
L140.121 367.064
L140.388 366.763
L140.478 366.801
L140.746 366.336
L141.281 365.206
L141.371 365.214
L141.549 364.839
L142.085 365.944
L142.174 366.017
L142.71 367.297
L142.888 367.453
L143.335 368.407
L143.424 368.454
L143.692 367.767
L143.87 367.659
L144.585 366.796
L144.852 367.177
L145.031 367.104
L145.12 366.941
L145.567 368.154
L146.37 369.799
L146.638 370.343
L146.906 370.88
L147.888 368.998
L148.067 368.517
L148.245 368.411
L148.424 367.948
L148.602 367.935
L148.692 367.567
L150.031 370.142
L150.299 370.493
L150.566 370.851
L150.656 370.644
L150.924 370.873
L151.013 370.914
L151.102 370.624
L151.191 370.779
L151.37 370.698
L151.638 370.56
L151.727 370.609
L152.352 369.663
L152.531 370.246
L152.888 370.602
L153.334 371.461
L153.423 371.487
L153.78 372.191
L153.959 372.31
L154.048 372.677
L154.138 372.633
L154.673 372.173
L154.763 372.156
L155.209 371.519
L155.477 371.53
L155.834 371.563
L156.191 372.045
L156.905 372.904
L157.262 373.545
L157.53 373.903
L157.62 374.104
L157.709 374.047
L157.887 374.047
L158.334 373.755
L158.602 373.868
L159.227 372.913
L159.584 373.108
L160.119 374.048
L160.834 374.752
L161.101 375.199
L161.191 375.487
L161.369 375.156
L161.548 374.865
L161.637 374.859
L161.726 374.567
L161.816 374.652
L162.441 373.735
L162.53 373.796
L162.798 373.514
L162.976 373.4
L163.333 373.712
L163.601 374.238
L164.226 374.96
L164.583 375.206
L164.94 375.316
L165.119 375.194
L165.387 375.016
L165.565 375.136
L165.744 375.148
L165.923 375.203
L166.28 375.196
L166.458 375.378
L166.548 375.191
L166.726 375.463
L167.083 375.827
L167.619 376.668
L167.797 376.88
L168.155 377.304
L168.333 377.399
L168.512 377.306
L168.78 377.238
L169.047 376.799
L169.226 376.968
L169.315 377.07
L169.762 376.62
L170.119 376.438
L170.565 376.966
L170.654 376.833
L171.101 377.315
L171.458 377.605
L172.261 378.276
L172.44 378.03
L172.708 378.192
L172.886 377.857
L173.244 377.704
L173.779 377.476
L174.583 378.417
L174.761 378.738
L175.565 379.546
L175.743 379.444
L176.19 379.47
L176.279 379.525
L176.636 379.104
L176.815 379.076
L177.261 379.283
L178.332 380.598
L178.511 380.692
L178.779 380.99
L179.136 381.205
L179.225 381.267
L179.315 381.184
L179.493 381.303
L179.761 381.118
L180.475 381.149
L180.743 380.835
L180.922 380.931
L181.368 381.244
L182.707 382.22
L182.975 382.253
L183.243 381.995
L183.689 381.767
L183.868 381.81
L184.136 381.582
L184.314 381.458
L184.493 381.414
L185.118 381.914
L185.296 382.013
L185.564 382.355
L185.832 382.491
L186.457 382.695
L186.725 382.72
L187.082 382.797
L187.439 382.634
L187.796 382.548
L188.064 382.532
L188.332 382.636
L188.51 382.808
L189.76 383.473
L190.028 383.253
L190.296 383.371
L190.475 383.327
L190.653 383.195
L191.189 383.058
L191.457 382.813
L191.814 382.884
L191.992 383.151
L192.171 383.191
L192.439 383.328
L193.51 383.631
L193.778 383.444
L194.046 383.47
L194.314 383.365
L194.492 383.243
L194.581 383.283
L194.849 382.973
L195.742 383.262
L197.438 383.598
L197.796 383.504
L197.974 383.521
L198.242 383.25
L198.331 383.253
L198.51 382.983
L198.956 383.017
L199.581 383.392
L199.76 383.481
L200.117 383.659
L200.831 383.88
L201.545 383.74
L201.813 383.397
L202.438 383.509
L202.974 383.71
L203.331 383.882
L204.849 384.179
L205.384 384.072
L205.652 384.168
L206.456 384.324
L207.795 384.669
L207.973 384.657
L208.152 384.66
L208.956 384.398
L209.134 384.391
L210.205 384.662
L210.92 384.877
L211.366 384.891
L211.812 384.884
L213.42 384.806
L214.044 385.062
L215.027 385.358
L215.205 385.283
L215.562 385.325
L216.187 385.129
L217.08 385.281
L217.705 385.381
L217.973 385.586
L218.776 385.665
L218.955 385.626
L221.455 385.899
L221.99 386.028
L222.437 386.012
L222.615 385.885
L222.883 385.898
L223.151 385.881
L223.776 385.866
L225.74 386.316
L226.365 386.328
L226.544 386.446
L227.526 386.472
L228.508 386.583
L228.865 386.655
L229.133 386.704
L229.758 386.671
L230.026 386.671
L230.204 386.546
L231.097 386.542
L231.99 386.702
L233.061 386.692
L233.418 386.67
L234.757 386.783
L235.472 386.883
L236.543 386.907
L237.168 386.766
L237.436 386.777
L238.329 386.669
L239.489 386.908
L239.936 386.987
L240.114 386.994
L242.078 386.948
L242.703 387.065
L244.846 387.177
L245.114 387.093
L247.167 387.382
L247.882 387.363
L248.864 387.357
L249.31 387.418
L251.185 387.605
L252.078 387.544
L254.488 387.678
L254.845 387.675
L257.167 387.712
L257.524 387.762
L257.881 387.776
L258.06 387.646
L259.22 387.57
L259.488 387.533
L261.006 387.642
L262.077 387.685
L262.256 387.588
L263.148 387.598
L267.434 387.836
L269.13 387.975
L269.666 387.924
L271.987 388.018
L272.344 388.066
L278.058 388.083
L278.505 388.138
L280.38 388.174
L282.254 388.223
L308.771 388.537
L309.217 388.511
L324.216 388.617
L325.644 388.636
L326.091 388.614
L343.322 388.723
L345.911 388.735
L518.311 388.794
L518.311 388.794" style="fill:none;stroke:#bf00bf;stroke-linecap:square;"/>
   </g>
   <g id="matplotlib.axis_1">
    <g id="xtick_1">
     <g id="line2d_6">
      <defs>
       <path d="
M0 0
L0 -4" id="mc7db9fdffb" style="stroke:#000000;stroke-width:0.5;"/>
      </defs>
      <g>
       <use style="stroke:#000000;stroke-width:0.5;" x="72.0" xlink:href="#mc7db9fdffb" y="388.8"/>
      </g>
     </g>
     <g id="line2d_7">
      <defs>
       <path d="
M0 0
L0 4" id="m5a7d422ac3" style="stroke:#000000;stroke-width:0.5;"/>
      </defs>
      <g>
       <use style="stroke:#000000;stroke-width:0.5;" x="72.0" xlink:href="#m5a7d422ac3" y="43.2"/>
      </g>
     </g>
     <g id="text_1">
      <!-- 0 -->
      <defs>
       <path d="
M56.9844 36.375
Q56.9844 16.7969 50.8594 7.64062
Q44.7344 -1.51562 31.8438 -1.51562
Q18.75 -1.51562 12.7188 7.76562
Q6.6875 17.0469 6.6875 36.2812
Q6.6875 55.6719 12.7812 64.9219
Q18.8906 74.1719 31.8438 74.1719
Q44.9219 74.1719 50.9531 64.7656
Q56.9844 55.375 56.9844 36.375
M44.1406 14.2031
Q45.8438 18.1719 46.4531 23.5156
Q47.0781 28.8594 47.0781 36.375
Q47.0781 43.7969 46.4531 49.2656
Q45.8438 54.7344 44.0938 58.5469
Q42.3906 62.3125 39.4219 64.2031
Q36.4688 66.1094 31.8438 66.1094
Q27.25 66.1094 24.2344 64.2031
Q21.2344 62.3125 19.4844 58.4531
Q17.8281 54.8281 17.2188 49.0156
Q16.6094 43.2188 16.6094 36.2812
Q16.6094 28.6562 17.1406 23.5312
Q17.6719 18.4062 19.4375 14.3594
Q21.0469 10.5469 24 8.54688
Q26.9531 6.54688 31.8438 6.54688
Q36.4219 6.54688 39.4531 8.45312
Q42.4844 10.3594 44.1406 14.2031" id="Verdana-30"/>
      </defs>
      <g transform="translate(68.9821875 401.918125)scale(0.12 -0.12)">
       <use xlink:href="#Verdana-30"/>
      </g>
     </g>
    </g>
    <g id="xtick_2">
     <g id="line2d_8">
      <g>
       <use style="stroke:#000000;stroke-width:0.5;" x="161.28" xlink:href="#mc7db9fdffb" y="388.8"/>
      </g>
     </g>
     <g id="line2d_9">
      <g>
       <use style="stroke:#000000;stroke-width:0.5;" x="161.28" xlink:href="#m5a7d422ac3" y="43.2"/>
      </g>
     </g>
     <g id="text_2">
      <!-- 1000 -->
      <defs>
       <path d="
M52.9375 0
L13.5781 0
L13.5781 7.42188
L28.7188 7.42188
L28.7188 56.1562
L13.5781 56.1562
L13.5781 62.7969
Q16.6562 62.7969 20.1719 63.2969
Q23.6875 63.8125 25.4844 64.7969
Q27.7344 66.0156 29.0312 67.8906
Q30.3281 69.7812 30.5156 72.9531
L38.0938 72.9531
L38.0938 7.42188
L52.9375 7.42188
z
" id="Verdana-31"/>
      </defs>
      <g transform="translate(147.2315625 401.918125)scale(0.12 -0.12)">
       <use xlink:href="#Verdana-31"/>
       <use x="63.57421875" xlink:href="#Verdana-30"/>
       <use x="127.1484375" xlink:href="#Verdana-30"/>
       <use x="190.72265625" xlink:href="#Verdana-30"/>
      </g>
     </g>
    </g>
    <g id="xtick_3">
     <g id="line2d_10">
      <g>
       <use style="stroke:#000000;stroke-width:0.5;" x="250.56" xlink:href="#mc7db9fdffb" y="388.8"/>
      </g>
     </g>
     <g id="line2d_11">
      <g>
       <use style="stroke:#000000;stroke-width:0.5;" x="250.56" xlink:href="#m5a7d422ac3" y="43.2"/>
      </g>
     </g>
     <g id="text_3">
      <!-- 2000 -->
      <defs>
       <path d="
M57.0781 0
L7.85938 0
L7.85938 10.2031
Q12.9844 14.5938 18.1406 18.9844
Q23.2969 23.3906 27.7344 27.7344
Q37.1094 36.8125 40.5781 42.1562
Q44.0469 47.5156 44.0469 53.7188
Q44.0469 59.375 40.3125 62.5625
Q36.5781 65.7656 29.8906 65.7656
Q25.4375 65.7656 20.2656 64.2031
Q15.0938 62.6406 10.1562 59.4219
L9.67188 59.4219
L9.67188 69.6719
Q13.1406 71.3906 18.9219 72.7969
Q24.7031 74.2188 30.125 74.2188
Q41.3125 74.2188 47.6562 68.8125
Q54 63.4219 54 54.2031
Q54 50.0469 52.9531 46.4531
Q51.9062 42.875 49.8594 39.6562
Q47.9531 36.625 45.3906 33.6875
Q42.8281 30.7656 39.1562 27.2031
Q33.9375 22.0781 28.3594 17.2656
Q22.7969 12.4531 17.9688 8.34375
L57.0781 8.34375
z
" id="Verdana-32"/>
      </defs>
      <g transform="translate(236.1684375 401.918125)scale(0.12 -0.12)">
       <use xlink:href="#Verdana-32"/>
       <use x="63.57421875" xlink:href="#Verdana-30"/>
       <use x="127.1484375" xlink:href="#Verdana-30"/>
       <use x="190.72265625" xlink:href="#Verdana-30"/>
      </g>
     </g>
    </g>
    <g id="xtick_4">
     <g id="line2d_12">
      <g>
       <use style="stroke:#000000;stroke-width:0.5;" x="339.84" xlink:href="#mc7db9fdffb" y="388.8"/>
      </g>
     </g>
     <g id="line2d_13">
      <g>
       <use style="stroke:#000000;stroke-width:0.5;" x="339.84" xlink:href="#m5a7d422ac3" y="43.2"/>
      </g>
     </g>
     <g id="text_4">
      <!-- 3000 -->
      <defs>
       <path d="
M50.6875 35.0156
Q53.0312 32.9062 54.5469 29.7344
Q56.0625 26.5625 56.0625 21.5312
Q56.0625 16.5469 54.25 12.3906
Q52.4375 8.25 49.1719 5.17188
Q45.5156 1.76562 40.5469 0.125
Q35.5938 -1.51562 29.6875 -1.51562
Q23.6406 -1.51562 17.7812 -0.0625
Q11.9219 1.375 8.15625 3.07812
L8.15625 13.2812
L8.89062 13.2812
Q13.0312 10.5469 18.6406 8.73438
Q24.2656 6.9375 29.5 6.9375
Q32.5625 6.9375 36.0312 7.95312
Q39.5 8.98438 41.6562 10.9844
Q43.8906 13.1406 44.9844 15.7188
Q46.0938 18.3125 46.0938 22.2656
Q46.0938 26.1719 44.8438 28.7344
Q43.6094 31.2969 41.4062 32.7656
Q39.2031 34.2812 36.0781 34.8438
Q32.9531 35.4062 29.3438 35.4062
L24.9531 35.4062
L24.9531 43.5
L28.375 43.5
Q35.7969 43.5 40.2031 46.5938
Q44.625 49.7031 44.625 55.6719
Q44.625 58.2969 43.5 60.2656
Q42.3906 62.25 40.375 63.5312
Q38.2812 64.7969 35.8906 65.2812
Q33.5 65.7656 30.4688 65.7656
Q25.8281 65.7656 20.5938 64.1094
Q15.375 62.4531 10.75 59.4219
L10.25 59.4219
L10.25 69.625
Q13.7188 71.3438 19.5 72.7812
Q25.2969 74.2188 30.7188 74.2188
Q36.0312 74.2188 40.0781 73.2344
Q44.1406 72.2656 47.4062 70.125
Q50.9219 67.7812 52.7344 64.4531
Q54.5469 61.1406 54.5469 56.6875
Q54.5469 50.6406 50.2656 46.125
Q46 41.6094 40.1875 40.4375
L40.1875 39.75
Q42.5312 39.3594 45.5469 38.1094
Q48.5781 36.8594 50.6875 35.0156" id="Verdana-33"/>
      </defs>
      <g transform="translate(325.46625 401.918125)scale(0.12 -0.12)">
       <use xlink:href="#Verdana-33"/>
       <use x="63.57421875" xlink:href="#Verdana-30"/>
       <use x="127.1484375" xlink:href="#Verdana-30"/>
       <use x="190.72265625" xlink:href="#Verdana-30"/>
      </g>
     </g>
    </g>
    <g id="xtick_5">
     <g id="line2d_14">
      <g>
       <use style="stroke:#000000;stroke-width:0.5;" x="429.12" xlink:href="#mc7db9fdffb" y="388.8"/>
      </g>
     </g>
     <g id="line2d_15">
      <g>
       <use style="stroke:#000000;stroke-width:0.5;" x="429.12" xlink:href="#m5a7d422ac3" y="43.2"/>
      </g>
     </g>
     <g id="text_5">
      <!-- 4000 -->
      <defs>
       <path d="
M58.7344 20.4531
L47.9531 20.4531
L47.9531 0
L38.5781 0
L38.5781 20.4531
L3.76562 20.4531
L3.76562 31.6875
L38.9688 72.7031
L47.9531 72.7031
L47.9531 28.2656
L58.7344 28.2656
z

M38.5781 28.2656
L38.5781 61.0781
L10.4062 28.2656
z
" id="Verdana-34"/>
      </defs>
      <g transform="translate(414.4828125 401.918125)scale(0.12 -0.12)">
       <use xlink:href="#Verdana-34"/>
       <use x="63.57421875" xlink:href="#Verdana-30"/>
       <use x="127.1484375" xlink:href="#Verdana-30"/>
       <use x="190.72265625" xlink:href="#Verdana-30"/>
      </g>
     </g>
    </g>
    <g id="xtick_6">
     <g id="line2d_16">
      <g>
       <use style="stroke:#000000;stroke-width:0.5;" x="518.4" xlink:href="#mc7db9fdffb" y="388.8"/>
      </g>
     </g>
     <g id="line2d_17">
      <g>
       <use style="stroke:#000000;stroke-width:0.5;" x="518.4" xlink:href="#m5a7d422ac3" y="43.2"/>
      </g>
     </g>
     <g id="text_6">
      <!-- 5000 -->
      <defs>
       <path d="
M56.5 23.0938
Q56.5 18.0156 54.6406 13.375
Q52.7812 8.73438 49.5625 5.5625
Q46.0469 2.15625 41.1875 0.3125
Q36.3281 -1.51562 29.9375 -1.51562
Q23.9688 -1.51562 18.4531 -0.265625
Q12.9375 0.984375 9.125 2.73438
L9.125 13.0312
L9.8125 13.0312
Q13.8125 10.5 19.1875 8.71875
Q24.5625 6.9375 29.7344 6.9375
Q33.2031 6.9375 36.4531 7.90625
Q39.7031 8.89062 42.2344 11.3281
Q44.3906 13.4219 45.4844 16.3438
Q46.5781 19.2812 46.5781 23.1406
Q46.5781 26.9062 45.2812 29.4844
Q44 32.0781 41.7031 33.6406
Q39.1562 35.5 35.5156 36.25
Q31.8906 37.0156 27.3906 37.0156
Q23.0938 37.0156 19.1094 36.4219
Q15.1406 35.8438 12.25 35.25
L12.25 72.7031
L56 72.7031
L56 64.1562
L21.6875 64.1562
L21.6875 44.8281
Q23.7812 45.0156 25.9688 45.1094
Q28.1719 45.2188 29.7812 45.2188
Q35.6875 45.2188 40.125 44.2188
Q44.5781 43.2188 48.2969 40.6719
Q52.2031 37.9844 54.3438 33.7344
Q56.5 29.5 56.5 23.0938" id="Verdana-35"/>
      </defs>
      <g transform="translate(504.084375 401.918125)scale(0.12 -0.12)">
       <use xlink:href="#Verdana-35"/>
       <use x="63.57421875" xlink:href="#Verdana-30"/>
       <use x="127.1484375" xlink:href="#Verdana-30"/>
       <use x="190.72265625" xlink:href="#Verdana-30"/>
      </g>
     </g>
    </g>
    <g id="text_7">
     <!-- Objective function exectuions -->
     <defs>
      <path d="
M63.9688 64.3594
Q68.4062 59.4688 70.7656 52.3906
Q73.1406 45.3125 73.1406 36.3281
Q73.1406 27.3438 70.7188 20.2344
Q68.3125 13.1406 63.9688 8.40625
Q59.4688 3.46875 53.3438 0.96875
Q47.2188 -1.51562 39.3594 -1.51562
Q31.6875 -1.51562 25.4062 1.01562
Q19.1406 3.5625 14.75 8.40625
Q10.3594 13.2344 7.98438 20.2656
Q5.60938 27.2969 5.60938 36.3281
Q5.60938 45.2188 7.95312 52.2656
Q10.2969 59.3281 14.7969 64.3594
Q19.0938 69.1406 25.4688 71.6719
Q31.8438 74.2188 39.3594 74.2188
Q47.1719 74.2188 53.3906 71.6562
Q59.625 69.0938 63.9688 64.3594
M63.0938 36.3281
Q63.0938 50.4844 56.7344 58.1719
Q50.3906 65.875 39.4062 65.875
Q28.3281 65.875 22 58.1719
Q15.6719 50.4844 15.6719 36.3281
Q15.6719 22.0156 22.1094 14.4219
Q28.5625 6.84375 39.4062 6.84375
Q50.25 6.84375 56.6719 14.4219
Q63.0938 22.0156 63.0938 36.3281" id="Verdana-4f"/>
      <path d="
M38.375 67.0938
L37.8906 67.0938
Q36.375 67.5312 33.9375 67.9844
Q31.5 68.4531 29.6406 68.4531
Q23.7344 68.4531 21.0625 65.8438
Q18.4062 63.2344 18.4062 56.3906
L18.4062 54.5469
L34.9688 54.5469
L34.9688 46.8281
L18.7031 46.8281
L18.7031 0
L9.51562 0
L9.51562 46.8281
L3.32812 46.8281
L3.32812 54.5469
L9.51562 54.5469
L9.51562 56.3438
Q9.51562 66.0625 14.3438 71.2656
Q19.1875 76.4688 28.3281 76.4688
Q31.3906 76.4688 33.8594 76.1719
Q36.3281 75.875 38.375 75.4844
z
" id="Verdana-66"/>
      <path d="
M57.0312 27.6875
Q57.0312 20.8438 55.0938 15.375
Q53.1719 9.90625 49.9062 6.20312
Q46.4375 2.34375 42.2812 0.40625
Q38.1406 -1.51562 33.1562 -1.51562
Q28.5156 -1.51562 25.0469 -0.40625
Q21.5781 0.6875 18.2188 2.54688
L17.625 0
L9.03125 0
L9.03125 75.9844
L18.2188 75.9844
L18.2188 48.8281
Q22.0781 52 26.4219 54.0312
Q30.7656 56.0625 36.1875 56.0625
Q45.8438 56.0625 51.4375 48.6406
Q57.0312 41.2188 57.0312 27.6875
M47.5625 27.4375
Q47.5625 37.2031 44.3281 42.25
Q41.1094 47.3125 33.9375 47.3125
Q29.9375 47.3125 25.8281 45.5781
Q21.7344 43.8438 18.2188 41.1094
L18.2188 9.85938
Q22.125 8.10938 24.9219 7.42188
Q27.7344 6.73438 31.2969 6.73438
Q38.9219 6.73438 43.2344 11.7344
Q47.5625 16.75 47.5625 27.4375" id="Verdana-62"/>
      <path id="Verdana-20"/>
      <path d="
M18.8906 63.6719
L8.54688 63.6719
L8.54688 73.1875
L18.8906 73.1875
z

M18.3125 0
L9.125 0
L9.125 54.5469
L18.3125 54.5469
z
" id="Verdana-69"/>
      <path d="
M26.0312 63.6719
L15.6719 63.6719
L15.6719 73.1875
L26.0312 73.1875
z

M25.4375 -1.3125
Q25.4375 -10.8906 20.5469 -15.7656
Q15.6719 -20.6562 7.46875 -20.6562
Q5.51562 -20.6562 2.3125 -20.2656
Q-0.875 -19.875 -3.03125 -19.2812
L-3.03125 -10.5469
L-2.54688 -10.5469
Q-1.17188 -11.0781 1.14062 -11.7656
Q3.46875 -12.4531 5.67188 -12.4531
Q9.1875 -12.4531 11.3281 -11.4688
Q13.4844 -10.5 14.5469 -8.54688
Q15.625 -6.59375 15.9375 -3.82812
Q16.2656 -1.07812 16.2656 2.875
L16.2656 46.8281
L4.89062 46.8281
L4.89062 54.5469
L25.4375 54.5469
z
" id="Verdana-6a"/>
      <path d="
M48 15.7188
Q48 8.25 41.8125 3.46875
Q35.6406 -1.3125 24.9531 -1.3125
Q18.8906 -1.3125 13.8438 0.125
Q8.79688 1.5625 5.375 3.26562
L5.375 13.5781
L5.85938 13.5781
Q10.2031 10.2969 15.5156 8.375
Q20.8438 6.45312 25.7344 6.45312
Q31.7812 6.45312 35.2031 8.40625
Q38.625 10.3594 38.625 14.5469
Q38.625 17.7812 36.7656 19.4375
Q34.9062 21.0938 29.6406 22.2656
Q27.6875 22.7031 24.5312 23.2812
Q21.3906 23.875 18.7969 24.5625
Q11.625 26.4688 8.60938 30.1562
Q5.60938 33.8438 5.60938 39.2031
Q5.60938 42.5781 7 45.5469
Q8.40625 48.5312 11.2344 50.875
Q13.9688 53.1719 18.1875 54.5156
Q22.4062 55.8594 27.6406 55.8594
Q32.5156 55.8594 37.5156 54.6562
Q42.5312 53.4688 45.8438 51.7656
L45.8438 41.9375
L45.3594 41.9375
Q41.8438 44.5312 36.8125 46.3125
Q31.7812 48.0938 26.9531 48.0938
Q21.9219 48.0938 18.4531 46.1562
Q14.9844 44.2344 14.9844 40.4375
Q14.9844 37.0625 17.0938 35.3594
Q19.1406 33.6406 23.7344 32.5625
Q26.2656 31.9844 29.4062 31.3906
Q32.5625 30.8125 34.6719 30.3281
Q41.0625 28.8594 44.5312 25.2969
Q48 21.6875 48 15.7188" id="Verdana-73"/>
      <path d="
M55.5156 27.25
Q55.5156 13.9219 48.6719 6.20312
Q41.8438 -1.51562 30.375 -1.51562
Q18.7969 -1.51562 11.9844 6.20312
Q5.17188 13.9219 5.17188 27.25
Q5.17188 40.5781 11.9844 48.3125
Q18.7969 56.0625 30.375 56.0625
Q41.8438 56.0625 48.6719 48.3125
Q55.5156 40.5781 55.5156 27.25
M46.0469 27.25
Q46.0469 37.8438 41.8906 42.9844
Q37.75 48.1406 30.375 48.1406
Q22.9062 48.1406 18.7812 42.9844
Q14.6562 37.8438 14.6562 27.25
Q14.6562 17 18.7969 11.6875
Q22.9531 6.39062 30.375 6.39062
Q37.7031 6.39062 41.875 11.6406
Q46.0469 16.8906 46.0469 27.25" id="Verdana-6f"/>
      <path d="
M54.6875 26.3125
L14.5 26.3125
Q14.5 21.2969 16.0156 17.5469
Q17.5312 13.8125 20.1719 11.4219
Q22.7031 9.07812 26.1875 7.90625
Q29.6875 6.73438 33.8906 6.73438
Q39.4531 6.73438 45.0938 8.95312
Q50.7344 11.1875 53.125 13.3281
L53.6094 13.3281
L53.6094 3.32812
Q48.9688 1.375 44.1406 0.046875
Q39.3125 -1.26562 33.9844 -1.26562
Q20.4062 -1.26562 12.7812 6.07812
Q5.17188 13.4219 5.17188 26.9531
Q5.17188 40.3281 12.4688 48.1875
Q19.7812 56.0625 31.6875 56.0625
Q42.7188 56.0625 48.7031 49.6094
Q54.6875 43.1719 54.6875 31.2969
z

M45.75 33.3438
Q45.7031 40.5781 42.1094 44.5312
Q38.5312 48.4844 31.2031 48.4844
Q23.8281 48.4844 19.4531 44.1406
Q15.0938 39.7969 14.5 33.3438
z
" id="Verdana-65"/>
      <path d="
M54.25 0
L45.0625 0
L45.0625 6.0625
Q40.4375 2.39062 36.1875 0.4375
Q31.9375 -1.51562 26.8125 -1.51562
Q18.2188 -1.51562 13.4219 3.73438
Q8.64062 8.98438 8.64062 19.1406
L8.64062 54.5469
L17.8281 54.5469
L17.8281 23.4844
Q17.8281 19.3438 18.2188 16.375
Q18.6094 13.4219 19.875 11.3281
Q21.1875 9.1875 23.2812 8.20312
Q25.3906 7.23438 29.3906 7.23438
Q32.9531 7.23438 37.1719 9.07812
Q41.4062 10.9375 45.0625 13.8125
L45.0625 54.5469
L54.25 54.5469
z
" id="Verdana-75"/>
      <path d="
M49.3594 3.42188
Q44.7812 1.21875 40.6562 0
Q36.5312 -1.21875 31.8906 -1.21875
Q25.9844 -1.21875 21.0469 0.515625
Q16.1094 2.25 12.5938 5.76562
Q9.03125 9.28125 7.07812 14.6406
Q5.125 20.0156 5.125 27.2031
Q5.125 40.5781 12.4688 48.1875
Q19.8281 55.8125 31.8906 55.8125
Q36.5781 55.8125 41.0938 54.4844
Q45.6094 53.1719 49.3594 51.2656
L49.3594 41.0625
L48.875 41.0625
Q44.6719 44.3438 40.2031 46.0938
Q35.75 47.8594 31.5 47.8594
Q23.6875 47.8594 19.1719 42.6094
Q14.6562 37.3594 14.6562 27.2031
Q14.6562 17.3281 19.0625 12.0312
Q23.4844 6.73438 31.5 6.73438
Q34.2812 6.73438 37.1562 7.46875
Q40.0469 8.20312 42.3281 9.375
Q44.3438 10.4062 46.0938 11.5469
Q47.8594 12.7031 48.875 13.5312
L49.3594 13.5312
z
" id="Verdana-63"/>
      <path d="
M54.6406 0
L45.4531 0
L45.4531 31.0625
Q45.4531 34.8125 45.0156 38.1094
Q44.5781 41.4062 43.4062 43.2656
Q42.1875 45.3125 39.8906 46.3125
Q37.5938 47.3125 33.9375 47.3125
Q30.1719 47.3125 26.0625 45.4531
Q21.9688 43.6094 18.2188 40.7188
L18.2188 0
L9.03125 0
L9.03125 54.5469
L18.2188 54.5469
L18.2188 48.4844
Q22.5156 52.0469 27.0938 54.0469
Q31.6875 56.0625 36.5312 56.0625
Q45.3594 56.0625 50 50.7344
Q54.6406 45.4062 54.6406 35.4062
z
" id="Verdana-6e"/>
      <path d="
M37.3594 0.484375
Q34.7656 -0.203125 31.7031 -0.640625
Q28.6562 -1.07812 26.2656 -1.07812
Q17.9219 -1.07812 13.5781 3.40625
Q9.23438 7.90625 9.23438 17.8281
L9.23438 46.8281
L3.03125 46.8281
L3.03125 54.5469
L9.23438 54.5469
L9.23438 70.2188
L18.4062 70.2188
L18.4062 54.5469
L37.3594 54.5469
L37.3594 46.8281
L18.4062 46.8281
L18.4062 21.9688
Q18.4062 17.6719 18.5938 15.25
Q18.7969 12.8438 19.9688 10.75
Q21.0469 8.79688 22.9219 7.89062
Q24.8125 6.98438 28.6562 6.98438
Q30.9062 6.98438 33.3438 7.64062
Q35.7969 8.29688 36.8594 8.73438
L37.3594 8.73438
z
" id="Verdana-74"/>
      <path d="
M56.2031 54.5469
L34.125 0
L24.9062 0
L2.98438 54.5469
L12.9375 54.5469
L29.8281 11.1406
L46.5781 54.5469
z
" id="Verdana-76"/>
      <path d="
M56.25 0
L44.6719 0
L29.2031 20.9531
L13.625 0
L2.9375 0
L24.2188 27.2031
L3.125 54.5469
L14.7031 54.5469
L30.0781 33.9375
L45.5156 54.5469
L56.25 54.5469
L34.8125 27.6875
z
" id="Verdana-78"/>
     </defs>
     <g transform="translate(206.5078125 418.509375)scale(0.12 -0.12)">
      <use xlink:href="#Verdana-4f"/>
      <use x="78.7109375" xlink:href="#Verdana-62"/>
      <use x="141.015625" xlink:href="#Verdana-6a"/>
      <use x="175.439453125" xlink:href="#Verdana-65"/>
      <use x="235.009765625" xlink:href="#Verdana-63"/>
      <use x="287.109375" xlink:href="#Verdana-74"/>
      <use x="326.513671875" xlink:href="#Verdana-69"/>
      <use x="353.955078125" xlink:href="#Verdana-76"/>
      <use x="412.259765625" xlink:href="#Verdana-65"/>
      <use x="471.830078125" xlink:href="#Verdana-20"/>
      <use x="506.986328125" xlink:href="#Verdana-66"/>
      <use x="542.142578125" xlink:href="#Verdana-75"/>
      <use x="605.423828125" xlink:href="#Verdana-6e"/>
      <use x="668.705078125" xlink:href="#Verdana-63"/>
      <use x="720.8046875" xlink:href="#Verdana-74"/>
      <use x="760.208984375" xlink:href="#Verdana-69"/>
      <use x="787.650390625" xlink:href="#Verdana-6f"/>
      <use x="848.34375" xlink:href="#Verdana-6e"/>
      <use x="911.625" xlink:href="#Verdana-20"/>
      <use x="946.78125" xlink:href="#Verdana-65"/>
      <use x="1006.3515625" xlink:href="#Verdana-78"/>
      <use x="1064.40625" xlink:href="#Verdana-65"/>
      <use x="1123.9765625" xlink:href="#Verdana-63"/>
      <use x="1176.076171875" xlink:href="#Verdana-74"/>
      <use x="1215.48046875" xlink:href="#Verdana-75"/>
      <use x="1278.76171875" xlink:href="#Verdana-69"/>
      <use x="1306.203125" xlink:href="#Verdana-6f"/>
      <use x="1366.896484375" xlink:href="#Verdana-6e"/>
      <use x="1430.177734375" xlink:href="#Verdana-73"/>
     </g>
    </g>
   </g>
   <g id="matplotlib.axis_2">
    <g id="ytick_1">
     <g id="line2d_18">
      <defs>
       <path d="
M0 0
L4 0" id="md7965d1ba0" style="stroke:#000000;stroke-width:0.5;"/>
      </defs>
      <g>
       <use style="stroke:#000000;stroke-width:0.5;" x="72.0" xlink:href="#md7965d1ba0" y="388.8"/>
      </g>
     </g>
     <g id="line2d_19">
      <defs>
       <path d="
M0 0
L-4 0" id="md9a1c1a7cd" style="stroke:#000000;stroke-width:0.5;"/>
      </defs>
      <g>
       <use style="stroke:#000000;stroke-width:0.5;" x="518.4" xlink:href="#md9a1c1a7cd" y="388.8"/>
      </g>
     </g>
     <g id="text_8">
      <!-- 0.0 -->
      <defs>
       <path d="
M24.0312 0
L12.3594 0
L12.3594 13.9219
L24.0312 13.9219
z
" id="Verdana-2e"/>
      </defs>
      <g transform="translate(49.97 392.1515625)scale(0.12 -0.12)">
       <use xlink:href="#Verdana-30"/>
       <use x="63.57421875" xlink:href="#Verdana-2e"/>
       <use x="99.951171875" xlink:href="#Verdana-30"/>
      </g>
     </g>
    </g>
    <g id="ytick_2">
     <g id="line2d_20">
      <g>
       <use style="stroke:#000000;stroke-width:0.5;" x="72.0" xlink:href="#md7965d1ba0" y="319.68"/>
      </g>
     </g>
     <g id="line2d_21">
      <g>
       <use style="stroke:#000000;stroke-width:0.5;" x="518.4" xlink:href="#md9a1c1a7cd" y="319.68"/>
      </g>
     </g>
     <g id="text_9">
      <!-- 0.2 -->
      <g transform="translate(49.95875 323.0315625)scale(0.12 -0.12)">
       <use xlink:href="#Verdana-30"/>
       <use x="63.57421875" xlink:href="#Verdana-2e"/>
       <use x="99.951171875" xlink:href="#Verdana-32"/>
      </g>
     </g>
    </g>
    <g id="ytick_3">
     <g id="line2d_22">
      <g>
       <use style="stroke:#000000;stroke-width:0.5;" x="72.0" xlink:href="#md7965d1ba0" y="250.56"/>
      </g>
     </g>
     <g id="line2d_23">
      <g>
       <use style="stroke:#000000;stroke-width:0.5;" x="518.4" xlink:href="#md9a1c1a7cd" y="250.56"/>
      </g>
     </g>
     <g id="text_10">
      <!-- 0.4 -->
      <g transform="translate(49.76 253.9115625)scale(0.12 -0.12)">
       <use xlink:href="#Verdana-30"/>
       <use x="63.57421875" xlink:href="#Verdana-2e"/>
       <use x="99.951171875" xlink:href="#Verdana-34"/>
      </g>
     </g>
    </g>
    <g id="ytick_4">
     <g id="line2d_24">
      <g>
       <use style="stroke:#000000;stroke-width:0.5;" x="72.0" xlink:href="#md7965d1ba0" y="181.44"/>
      </g>
     </g>
     <g id="line2d_25">
      <g>
       <use style="stroke:#000000;stroke-width:0.5;" x="518.4" xlink:href="#md9a1c1a7cd" y="181.44"/>
      </g>
     </g>
     <g id="text_11">
      <!-- 0.6 -->
      <defs>
       <path d="
M58.1562 23.5781
Q58.1562 12.5 50.8594 5.48438
Q43.5625 -1.51562 32.9531 -1.51562
Q27.5938 -1.51562 23.1875 0.140625
Q18.7969 1.8125 15.4375 5.07812
Q11.2344 9.125 8.95312 15.8125
Q6.6875 22.5156 6.6875 31.9375
Q6.6875 41.6094 8.76562 49.0781
Q10.8438 56.5469 15.375 62.3594
Q19.6719 67.875 26.4531 70.9688
Q33.25 74.0781 42.2812 74.0781
Q45.1719 74.0781 47.125 73.8281
Q49.0781 73.5781 51.0781 72.9531
L51.0781 63.625
L50.5938 63.625
Q49.2188 64.3594 46.4531 65.0156
Q43.7031 65.6719 40.8281 65.6719
Q30.3281 65.6719 24.0781 59.1094
Q17.8281 52.5469 16.7969 41.3594
Q20.9062 43.8438 24.875 45.1406
Q28.8594 46.4375 34.0781 46.4375
Q38.7188 46.4375 42.25 45.5781
Q45.7969 44.7344 49.5156 42.1406
Q53.8125 39.1562 55.9844 34.6094
Q58.1562 30.0781 58.1562 23.5781
M48.25 23.1875
Q48.25 27.7344 46.9062 30.7031
Q45.5625 33.6875 42.4844 35.8906
Q40.2344 37.4531 37.5 37.9375
Q34.7656 38.4219 31.7812 38.4219
Q27.6406 38.4219 24.0781 37.4375
Q20.5156 36.4688 16.75 34.4219
Q16.6562 33.3438 16.5938 32.3438
Q16.5469 31.3438 16.5469 29.8281
Q16.5469 22.125 18.1406 17.6562
Q19.7344 13.1875 22.5156 10.5938
Q24.75 8.45312 27.3594 7.45312
Q29.9844 6.45312 33.0625 6.45312
Q40.1406 6.45312 44.1875 10.7656
Q48.25 15.0938 48.25 23.1875" id="Verdana-36"/>
      </defs>
      <g transform="translate(49.829375 184.7915625)scale(0.12 -0.12)">
       <use xlink:href="#Verdana-30"/>
       <use x="63.57421875" xlink:href="#Verdana-2e"/>
       <use x="99.951171875" xlink:href="#Verdana-36"/>
      </g>
     </g>
    </g>
    <g id="ytick_5">
     <g id="line2d_26">
      <g>
       <use style="stroke:#000000;stroke-width:0.5;" x="72.0" xlink:href="#md7965d1ba0" y="112.32"/>
      </g>
     </g>
     <g id="line2d_27">
      <g>
       <use style="stroke:#000000;stroke-width:0.5;" x="518.4" xlink:href="#md9a1c1a7cd" y="112.32"/>
      </g>
     </g>
     <g id="text_12">
      <!-- 0.8 -->
      <defs>
       <path d="
M57.625 20.2656
Q57.625 10.8438 50.2656 4.59375
Q42.9219 -1.65625 31.7812 -1.65625
Q19.9688 -1.65625 12.9531 4.4375
Q5.95312 10.5469 5.95312 20.0625
Q5.95312 26.125 9.46875 31.0312
Q12.9844 35.9375 19.3906 38.8125
L19.3906 39.1094
Q13.5312 42.2344 10.7188 45.9375
Q7.90625 49.6562 7.90625 55.2188
Q7.90625 63.4219 14.6406 68.8906
Q21.3906 74.3594 31.7812 74.3594
Q42.6719 74.3594 49.1719 69.1406
Q55.6719 63.9219 55.6719 55.8594
Q55.6719 50.9219 52.5938 46.1562
Q49.5156 41.4062 43.5625 38.7188
L43.5625 38.4219
Q50.3906 35.5 54 31.2031
Q57.625 26.9062 57.625 20.2656
M46.0469 55.7656
Q46.0469 60.9844 42.0156 64.0781
Q37.9844 67.1875 31.7344 67.1875
Q25.5938 67.1875 21.6562 64.25
Q17.7188 61.3281 17.7188 56.3438
Q17.7188 52.8281 19.7031 50.2656
Q21.6875 47.7031 25.6875 45.7031
Q27.4844 44.8281 30.875 43.4062
Q34.2812 42 37.5 41.0625
Q42.3281 44.2812 44.1875 47.75
Q46.0469 51.2188 46.0469 55.7656
M47.5625 19.3438
Q47.5625 23.8281 45.5781 26.5312
Q43.6094 29.25 37.8438 31.9844
Q35.5469 33.0625 32.8125 33.9844
Q30.0781 34.9062 25.5312 36.5781
Q21.1406 34.1875 18.4844 30.0781
Q15.8281 25.9844 15.8281 20.7969
Q15.8281 14.2031 20.3594 9.90625
Q24.9062 5.60938 31.8906 5.60938
Q39.0156 5.60938 43.2812 9.26562
Q47.5625 12.9375 47.5625 19.3438" id="Verdana-38"/>
      </defs>
      <g transform="translate(49.893125 115.6715625)scale(0.12 -0.12)">
       <use xlink:href="#Verdana-30"/>
       <use x="63.57421875" xlink:href="#Verdana-2e"/>
       <use x="99.951171875" xlink:href="#Verdana-38"/>
      </g>
     </g>
    </g>
    <g id="ytick_6">
     <g id="line2d_28">
      <g>
       <use style="stroke:#000000;stroke-width:0.5;" x="72.0" xlink:href="#md7965d1ba0" y="43.2"/>
      </g>
     </g>
     <g id="line2d_29">
      <g>
       <use style="stroke:#000000;stroke-width:0.5;" x="518.4" xlink:href="#md9a1c1a7cd" y="43.2"/>
      </g>
     </g>
     <g id="text_13">
      <!-- 1.0 -->
      <g transform="translate(50.796875 46.5515625)scale(0.12 -0.12)">
       <use xlink:href="#Verdana-31"/>
       <use x="63.57421875" xlink:href="#Verdana-2e"/>
       <use x="99.951171875" xlink:href="#Verdana-30"/>
      </g>
     </g>
    </g>
    <g id="text_14">
     <!-- Rank 0 Probability -->
     <defs>
      <path d="
M56.2031 54.5469
L24.3594 -20.125
L14.5469 -20.125
L24.7031 2.64062
L2.98438 54.5469
L12.9375 54.5469
L29.6875 14.1094
L46.5781 54.5469
z
" id="Verdana-79"/>
      <path d="
M69.9219 0
L57.375 0
L33.0625 28.9062
L19.4375 28.9062
L19.4375 0
L9.76562 0
L9.76562 72.7031
L30.125 72.7031
Q36.7188 72.7031 41.1094 71.8438
Q45.5156 71 49.0312 68.7969
Q52.9844 66.3125 55.2031 62.5156
Q57.4219 58.7344 57.4219 52.9375
Q57.4219 45.0625 53.4688 39.7656
Q49.5156 34.4688 42.5781 31.7812
z

M47.3125 52.25
Q47.3125 55.375 46.2188 57.7812
Q45.125 60.2031 42.5781 61.8594
Q40.4844 63.2812 37.5938 63.8438
Q34.7188 64.4062 30.8125 64.4062
L19.4375 64.4062
L19.4375 36.9688
L29.2031 36.9688
Q33.7969 36.9688 37.2031 37.7656
Q40.625 38.5781 43.0156 40.7656
Q45.2188 42.8281 46.2656 45.4844
Q47.3125 48.1406 47.3125 52.25" id="Verdana-52"/>
      <path d="
M51.4219 0
L42.2812 0
L42.2812 5.8125
Q41.0625 4.98438 38.9844 3.48438
Q36.9219 2 34.9688 1.125
Q32.6719 0 29.6875 -0.75
Q26.7031 -1.51562 22.7031 -1.51562
Q15.3281 -1.51562 10.2031 3.35938
Q5.07812 8.25 5.07812 15.8281
Q5.07812 22.0156 7.73438 25.8438
Q10.4062 29.6875 15.3281 31.8906
Q20.3125 34.0781 27.2969 34.8594
Q34.2812 35.6406 42.2812 36.0312
L42.2812 37.4531
Q42.2812 40.5781 41.1875 42.625
Q40.0938 44.6719 38.0312 45.8438
Q36.0781 46.9688 33.3438 47.3594
Q30.6094 47.75 27.6406 47.75
Q24.0312 47.75 19.5781 46.7969
Q15.1406 45.8438 10.4062 44.0469
L9.90625 44.0469
L9.90625 53.375
Q12.5938 54.1094 17.6719 54.9844
Q22.75 55.8594 27.6875 55.8594
Q33.4531 55.8594 37.7188 54.9062
Q42 53.9531 45.125 51.6562
Q48.1875 49.4219 49.7969 45.8438
Q51.4219 42.2812 51.4219 37.0156
z

M42.2812 13.4219
L42.2812 28.6094
Q38.0938 28.375 32.3906 27.875
Q26.7031 27.3906 23.3906 26.4688
Q19.4375 25.3438 16.9844 22.9688
Q14.5469 20.6094 14.5469 16.4531
Q14.5469 11.7656 17.375 9.39062
Q20.2188 7.03125 26.0312 7.03125
Q30.8594 7.03125 34.8594 8.90625
Q38.875 10.7969 42.2812 13.4219" id="Verdana-61"/>
      <path d="
M57.3281 50.7344
Q57.3281 45.9062 55.6406 41.7656
Q53.9531 37.6406 50.9219 34.625
Q47.1719 30.8594 42.0469 28.9688
Q36.9219 27.0938 29.1094 27.0938
L19.4375 27.0938
L19.4375 0
L9.76562 0
L9.76562 72.7031
L29.5 72.7031
Q36.0312 72.7031 40.5781 71.6094
Q45.125 70.5156 48.6406 68.1719
Q52.7812 65.375 55.0469 61.2188
Q57.3281 57.0781 57.3281 50.7344
M47.2656 50.4844
Q47.2656 54.25 45.9375 57.0312
Q44.625 59.8125 41.9375 61.5781
Q39.5938 63.0938 36.5938 63.75
Q33.5938 64.4062 29 64.4062
L19.4375 64.4062
L19.4375 35.3594
L27.5938 35.3594
Q33.4531 35.3594 37.1094 36.4062
Q40.7656 37.4531 43.0625 39.75
Q45.3594 42.0938 46.3125 44.6719
Q47.2656 47.2656 47.2656 50.4844" id="Verdana-50"/>
      <path d="
M18.3125 0
L9.125 0
L9.125 75.9844
L18.3125 75.9844
z
" id="Verdana-6c"/>
      <path d="
M58.5469 0
L46.4375 0
L24.5625 23.875
L18.6094 18.2188
L18.6094 0
L9.42188 0
L9.42188 75.9844
L18.6094 75.9844
L18.6094 27.25
L45.125 54.5469
L56.6875 54.5469
L31.3438 29.3438
z
" id="Verdana-6b"/>
      <path d="
M43.0625 44.5312
L42.5781 44.5312
Q40.5312 45.0156 38.5938 45.2344
Q36.6719 45.4531 34.0312 45.4531
Q29.7812 45.4531 25.8281 43.5781
Q21.875 41.7031 18.2188 38.7188
L18.2188 0
L9.03125 0
L9.03125 54.5469
L18.2188 54.5469
L18.2188 46.4844
Q23.6875 50.875 27.8594 52.7031
Q32.0312 54.5469 36.375 54.5469
Q38.7656 54.5469 39.8438 54.4219
Q40.9219 54.2969 43.0625 53.9531
z
" id="Verdana-72"/>
     </defs>
     <g transform="translate(42.345 270.583125)rotate(-90.0)scale(0.12 -0.12)">
      <use xlink:href="#Verdana-52"/>
      <use x="67.53125" xlink:href="#Verdana-61"/>
      <use x="127.58984375" xlink:href="#Verdana-6e"/>
      <use x="190.87109375" xlink:href="#Verdana-6b"/>
      <use x="250.05078125" xlink:href="#Verdana-20"/>
      <use x="285.20703125" xlink:href="#Verdana-30"/>
      <use x="348.78125" xlink:href="#Verdana-20"/>
      <use x="383.9375" xlink:href="#Verdana-50"/>
      <use x="444.240234375" xlink:href="#Verdana-72"/>
      <use x="486.916015625" xlink:href="#Verdana-6f"/>
      <use x="547.609375" xlink:href="#Verdana-62"/>
      <use x="609.9140625" xlink:href="#Verdana-61"/>
      <use x="669.97265625" xlink:href="#Verdana-62"/>
      <use x="732.27734375" xlink:href="#Verdana-69"/>
      <use x="759.71875" xlink:href="#Verdana-6c"/>
      <use x="787.16015625" xlink:href="#Verdana-69"/>
      <use x="814.6015625" xlink:href="#Verdana-74"/>
      <use x="853.505859375" xlink:href="#Verdana-79"/>
     </g>
    </g>
   </g>
   <g id="patch_3">
    <path d="
M518.4 388.8
L518.4 43.2" style="fill:none;stroke:#000000;"/>
   </g>
   <g id="patch_4">
    <path d="
M72 43.2
L518.4 43.2" style="fill:none;stroke:#000000;"/>
   </g>
   <g id="patch_5">
    <path d="
M72 388.8
L518.4 388.8" style="fill:none;stroke:#000000;"/>
   </g>
   <g id="patch_6">
    <path d="
M72 388.8
L72 43.2" style="fill:none;stroke:#000000;"/>
   </g>
   <g id="text_15">
    <!-- MultiModal Rank 0 Probability -->
    <defs>
     <path d="
M53.2656 0
L44.0938 0
L44.0938 5.71875
Q40.1406 2.29688 35.8438 0.390625
Q31.5469 -1.51562 26.5156 -1.51562
Q16.75 -1.51562 11.0156 6
Q5.28125 13.5312 5.28125 26.8594
Q5.28125 33.7969 7.25 39.2031
Q9.23438 44.625 12.5938 48.4375
Q15.9219 52.1562 20.3281 54.1094
Q24.75 56.0625 29.5 56.0625
Q33.7969 56.0625 37.1094 55.1562
Q40.4375 54.25 44.0938 52.3438
L44.0938 75.9844
L53.2656 75.9844
z

M44.0938 13.4219
L44.0938 44.7344
Q40.375 46.3906 37.4375 47.0156
Q34.5156 47.6562 31.0625 47.6562
Q23.3438 47.6562 19.0469 42.2812
Q14.75 36.9219 14.75 27.0469
Q14.75 17.3281 18.0625 12.2812
Q21.3906 7.23438 28.7188 7.23438
Q32.625 7.23438 36.625 8.95312
Q40.625 10.6875 44.0938 13.4219" id="Verdana-64"/>
     <path d="
M74.5156 0
L64.8438 0
L64.8438 62.6406
L44.625 20.0156
L38.875 20.0156
L18.7969 62.6406
L18.7969 0
L9.76562 0
L9.76562 72.7031
L22.9531 72.7031
L42.3281 32.2344
L61.0781 72.7031
L74.5156 72.7031
z
" id="Verdana-4d"/>
    </defs>
    <g transform="translate(188.532 38.2)scale(0.144 -0.144)">
     <use xlink:href="#Verdana-4d"/>
     <use x="84.27734375" xlink:href="#Verdana-75"/>
     <use x="147.55859375" xlink:href="#Verdana-6c"/>
     <use x="175.0" xlink:href="#Verdana-74"/>
     <use x="214.404296875" xlink:href="#Verdana-69"/>
     <use x="241.845703125" xlink:href="#Verdana-4d"/>
     <use x="326.123046875" xlink:href="#Verdana-6f"/>
     <use x="386.81640625" xlink:href="#Verdana-64"/>
     <use x="449.12109375" xlink:href="#Verdana-61"/>
     <use x="509.1796875" xlink:href="#Verdana-6c"/>
     <use x="536.62109375" xlink:href="#Verdana-20"/>
     <use x="571.77734375" xlink:href="#Verdana-52"/>
     <use x="639.30859375" xlink:href="#Verdana-61"/>
     <use x="699.3671875" xlink:href="#Verdana-6e"/>
     <use x="762.6484375" xlink:href="#Verdana-6b"/>
     <use x="821.828125" xlink:href="#Verdana-20"/>
     <use x="856.984375" xlink:href="#Verdana-30"/>
     <use x="920.55859375" xlink:href="#Verdana-20"/>
     <use x="955.71484375" xlink:href="#Verdana-50"/>
     <use x="1016.017578125" xlink:href="#Verdana-72"/>
     <use x="1058.693359375" xlink:href="#Verdana-6f"/>
     <use x="1119.38671875" xlink:href="#Verdana-62"/>
     <use x="1181.69140625" xlink:href="#Verdana-61"/>
     <use x="1241.75" xlink:href="#Verdana-62"/>
     <use x="1304.0546875" xlink:href="#Verdana-69"/>
     <use x="1331.49609375" xlink:href="#Verdana-6c"/>
     <use x="1358.9375" xlink:href="#Verdana-69"/>
     <use x="1386.37890625" xlink:href="#Verdana-74"/>
     <use x="1425.283203125" xlink:href="#Verdana-79"/>
    </g>
   </g>
   <g id="legend_1">
    <g id="patch_7">
     <path d="
M407.18 159.919
L511.2 159.919
L511.2 50.4
L407.18 50.4
L407.18 159.919
z
" style="fill:#ffffff;stroke:#000000;"/>
    </g>
    <g id="line2d_30">
     <path d="
M417.26 62.0617
L437.42 62.0617" style="fill:none;stroke:#0000ff;stroke-dasharray:6.000000,2.000000;stroke-dashoffset:0.0;"/>
    </g>
    <g id="line2d_31"/>
    <g id="text_16">
     <!-- AMPGO -->
     <defs>
      <path d="
M67.0938 0
L56.7812 0
L49.6562 20.2656
L18.2188 20.2656
L11.0781 0
L1.26562 0
L27.7344 72.7031
L40.625 72.7031
z

M46.6875 28.5625
L33.9375 64.2656
L21.1406 28.5625
z
" id="Verdana-41"/>
      <path d="
M70.4062 5.375
Q64.4531 2.64062 57.3906 0.609375
Q50.3438 -1.42188 43.75 -1.42188
Q35.25 -1.42188 28.1719 0.921875
Q21.0938 3.26562 16.1094 7.95312
Q11.0781 12.7031 8.34375 19.7969
Q5.60938 26.9062 5.60938 36.4219
Q5.60938 53.8594 15.7969 63.9375
Q25.9844 74.0312 43.75 74.0312
Q49.9531 74.0312 56.4219 72.5312
Q62.8906 71.0469 70.3594 67.4844
L70.3594 56
L69.4844 56
Q67.9688 57.1719 65.0781 59.0781
Q62.2031 60.9844 59.4219 62.25
Q56.0625 63.7656 51.7812 64.7656
Q47.5156 65.7656 42.0938 65.7656
Q29.8906 65.7656 22.7812 57.9219
Q15.6719 50.0938 15.6719 36.7188
Q15.6719 22.6094 23.0938 14.7656
Q30.5156 6.9375 43.3125 6.9375
Q48 6.9375 52.6562 7.85938
Q57.3281 8.79688 60.8438 10.25
L60.8438 28.0781
L41.3594 28.0781
L41.3594 36.5781
L70.4062 36.5781
z
" id="Verdana-47"/>
     </defs>
     <g transform="translate(453.26025 67.10175)scale(0.144 -0.144)">
      <use xlink:href="#Verdana-41"/>
      <use x="68.359375" xlink:href="#Verdana-4d"/>
      <use x="152.63671875" xlink:href="#Verdana-50"/>
      <use x="212.939453125" xlink:href="#Verdana-47"/>
      <use x="290.478515625" xlink:href="#Verdana-4f"/>
     </g>
    </g>
    <g id="line2d_32">
     <path d="
M417.26 83.1015
L437.42 83.1015" style="fill:none;stroke:#008000;stroke-dasharray:1.000000,1.000000;stroke-dashoffset:0.0;"/>
    </g>
    <g id="line2d_33"/>
    <g id="text_17">
     <!-- Anneal -->
     <g transform="translate(453.26025 88.1415)scale(0.144 -0.144)">
      <use xlink:href="#Verdana-41"/>
      <use x="68.359375" xlink:href="#Verdana-6e"/>
      <use x="131.640625" xlink:href="#Verdana-6e"/>
      <use x="194.921875" xlink:href="#Verdana-65"/>
      <use x="254.4921875" xlink:href="#Verdana-61"/>
      <use x="314.55078125" xlink:href="#Verdana-6c"/>
     </g>
    </g>
    <g id="line2d_34">
     <path d="
M417.26 104.141
L437.42 104.141" style="fill:none;stroke:#ff0000;stroke-dasharray:3.000000,6.000000;stroke-dashoffset:0.0;"/>
    </g>
    <g id="line2d_35"/>
    <g id="text_18">
     <!-- BSA -->
     <defs>
      <path d="
M62.5938 20.75
Q62.5938 16.5 60.6094 12.3438
Q58.6406 8.20312 55.0781 5.32812
Q51.1719 2.20312 45.9688 0.4375
Q40.7656 -1.3125 33.4531 -1.3125
Q25.5938 -1.3125 19.3125 0.140625
Q13.0312 1.60938 6.54688 4.5
L6.54688 16.6094
L7.23438 16.6094
Q12.75 12.0156 19.9688 9.51562
Q27.2031 7.03125 33.5469 7.03125
Q42.5312 7.03125 47.5312 10.3906
Q52.5469 13.7656 52.5469 19.3906
Q52.5469 24.2188 50.1719 26.5156
Q47.7969 28.8125 42.9688 30.0781
Q39.3125 31.0625 35.0312 31.6875
Q30.7656 32.3281 25.9844 33.2969
Q16.3125 35.3594 11.6406 40.3125
Q6.98438 45.2656 6.98438 53.2188
Q6.98438 62.3594 14.6875 68.1875
Q22.4062 74.0312 34.2812 74.0312
Q41.9375 74.0312 48.3281 72.5625
Q54.7344 71.0938 59.6719 68.9531
L59.6719 57.5156
L58.9844 57.5156
Q54.8281 61.0312 48.0625 63.3438
Q41.3125 65.6719 34.2344 65.6719
Q26.4688 65.6719 21.75 62.4531
Q17.0469 59.2344 17.0469 54.1562
Q17.0469 49.6094 19.3906 47.0156
Q21.7344 44.4375 27.6406 43.0625
Q30.7656 42.3906 36.5156 41.4062
Q42.2812 40.4375 46.2969 39.4062
Q54.3906 37.25 58.4844 32.9062
Q62.5938 28.5625 62.5938 20.75" id="Verdana-53"/>
      <path d="
M64.5938 22.3594
Q64.5938 16.9375 62.5469 12.7812
Q60.5 8.64062 57.0312 5.95312
Q52.9375 2.73438 48.0156 1.35938
Q43.1094 0 35.5469 0
L9.76562 0
L9.76562 72.7031
L31.2969 72.7031
Q39.2656 72.7031 43.2188 72.1094
Q47.1719 71.5312 50.7812 69.6719
Q54.7812 67.5781 56.5938 64.2812
Q58.4062 60.9844 58.4062 56.3906
Q58.4062 51.2188 55.7656 47.5781
Q53.125 43.9531 48.7344 41.75
L48.7344 41.3594
Q56.1094 39.8438 60.3438 34.8906
Q64.5938 29.9375 64.5938 22.3594
M48.3438 55.125
Q48.3438 57.7656 47.4531 59.5625
Q46.5781 61.375 44.625 62.5
Q42.3281 63.8125 39.0625 64.125
Q35.7969 64.4531 30.9531 64.4531
L19.4375 64.4531
L19.4375 43.4531
L31.9375 43.4531
Q36.4688 43.4531 39.1562 43.9219
Q41.8438 44.3906 44.1406 45.8438
Q46.4375 47.3125 47.3906 49.625
Q48.3438 51.9531 48.3438 55.125
M54.5469 21.9688
Q54.5469 26.375 53.2188 28.9531
Q51.9062 31.5469 48.4375 33.3438
Q46.0938 34.5781 42.75 34.9375
Q39.4062 35.2969 34.625 35.2969
L19.4375 35.2969
L19.4375 8.25
L32.2344 8.25
Q38.5781 8.25 42.625 8.90625
Q46.6875 9.57812 49.2656 11.3281
Q52 13.2344 53.2656 15.6719
Q54.5469 18.1094 54.5469 21.9688" id="Verdana-42"/>
     </defs>
     <g transform="translate(453.26025 109.18125)scale(0.144 -0.144)">
      <use xlink:href="#Verdana-42"/>
      <use x="68.5546875" xlink:href="#Verdana-53"/>
      <use x="135.9140625" xlink:href="#Verdana-41"/>
     </g>
    </g>
    <g id="line2d_36">
     <path d="
M417.26 125.181
L437.42 125.181" style="fill:none;stroke:#00bfbf;stroke-dasharray:5.000000,1.000000,2.000000,1.000000,5.000000,1.000000;stroke-dashoffset:0.0;"/>
    </g>
    <g id="line2d_37"/>
    <g id="text_19">
     <!-- Cuckoo -->
     <defs>
      <path d="
M65.9219 5.28125
Q63.2344 4.10938 61.0625 3.07812
Q58.8906 2.04688 55.375 0.921875
Q52.3906 0 48.8906 -0.65625
Q45.4062 -1.3125 41.2188 -1.3125
Q33.2969 -1.3125 26.8281 0.90625
Q20.3594 3.125 15.5781 7.85938
Q10.8906 12.5 8.25 19.6562
Q5.60938 26.8125 5.60938 36.2812
Q5.60938 45.2656 8.14062 52.3438
Q10.6875 59.4219 15.4844 64.3125
Q20.125 69.0469 26.6875 71.5312
Q33.25 74.0312 41.2656 74.0312
Q47.125 74.0312 52.9531 72.6094
Q58.7969 71.1875 65.9219 67.625
L65.9219 56.1562
L65.1875 56.1562
Q59.1875 61.1875 53.2656 63.4688
Q47.3594 65.7656 40.625 65.7656
Q35.1094 65.7656 30.6875 63.9844
Q26.2656 62.2031 22.7969 58.4531
Q19.4375 54.7812 17.5469 49.1875
Q15.6719 43.6094 15.6719 36.2812
Q15.6719 28.6094 17.75 23.0938
Q19.8281 17.5781 23.0938 14.1094
Q26.5156 10.5 31.0781 8.76562
Q35.6406 7.03125 40.7188 7.03125
Q47.7031 7.03125 53.7969 9.42188
Q59.9062 11.8125 65.2344 16.6094
L65.9219 16.6094
z
" id="Verdana-43"/>
     </defs>
     <g transform="translate(453.26025 130.221)scale(0.144 -0.144)">
      <use xlink:href="#Verdana-43"/>
      <use x="69.82421875" xlink:href="#Verdana-75"/>
      <use x="133.10546875" xlink:href="#Verdana-63"/>
      <use x="185.205078125" xlink:href="#Verdana-6b"/>
      <use x="243.384765625" xlink:href="#Verdana-6f"/>
      <use x="304.078125" xlink:href="#Verdana-6f"/>
     </g>
    </g>
    <g id="line2d_38">
     <path d="
M417.26 146.221
L437.42 146.221" style="fill:none;stroke:#bf00bf;stroke-linecap:square;"/>
    </g>
    <g id="line2d_39"/>
    <g id="text_20">
     <!-- qABC -->
     <defs>
      <path d="
M53.2656 -20.125
L44.0938 -20.125
L44.0938 6.15625
Q39.8438 2.48438 35.6406 0.703125
Q31.4531 -1.07812 26.5625 -1.07812
Q16.8438 -1.07812 11.0625 6.42188
Q5.28125 13.9219 5.28125 27.0938
Q5.28125 34.125 7.29688 39.5156
Q9.32812 44.9219 12.6406 48.5781
Q15.875 52.1562 20.2188 54.1094
Q24.5625 56.0625 29.3906 56.0625
Q33.7969 56.0625 37.1875 55.0781
Q40.5781 54.1094 44.0938 52.2031
L44.6719 54.5469
L53.2656 54.5469
z

M44.0938 13.875
L44.0938 44.7344
Q40.2812 46.4375 37.3438 47.1094
Q34.4219 47.7969 31 47.7969
Q23.0469 47.7969 18.8906 42.4062
Q14.75 37.0156 14.75 27.5469
Q14.75 17.9688 18.0938 12.8125
Q21.4375 7.67188 28.6094 7.67188
Q32.625 7.67188 36.625 9.40625
Q40.625 11.1406 44.0938 13.875" id="Verdana-71"/>
     </defs>
     <g transform="translate(453.26025 151.26075)scale(0.144 -0.144)">
      <use xlink:href="#Verdana-71"/>
      <use x="62.3046875" xlink:href="#Verdana-41"/>
      <use x="130.6640625" xlink:href="#Verdana-42"/>
      <use x="199.21875" xlink:href="#Verdana-43"/>
     </g>
    </g>
   </g>
  </g>
 </g>
 <defs>
  <clipPath id="p7ff5b81e1d">
   <rect height="345.6" width="446.4" x="72.0" y="43.2"/>
  </clipPath>
 </defs>
</svg>
