<?xml version="1.0" encoding="utf-8" standalone="no"?>
<!DOCTYPE svg PUBLIC "-//W3C//DTD SVG 1.1//EN"
  "http://www.w3.org/Graphics/SVG/1.1/DTD/svg11.dtd">
<!-- Created with matplotlib (http://matplotlib.org/) -->
<svg height="432pt" version="1.1" viewBox="0 0 576 432" width="576pt" xmlns="http://www.w3.org/2000/svg" xmlns:xlink="http://www.w3.org/1999/xlink">
 <defs>
  <style type="text/css">
*{stroke-linecap:butt;stroke-linejoin:round;}
  </style>
 </defs>
 <g id="figure_1">
  <g id="patch_1">
   <path d="
M0 432
L576 432
L576 0
L0 0
z
" style="fill:#ffffff;"/>
  </g>
  <g id="axes_1">
   <g id="patch_2">
    <path d="
M72 388.8
L518.4 388.8
L518.4 43.2
L72 43.2
z
" style="fill:#ffffff;"/>
   </g>
   <g id="line2d_1">
    <path clip-path="url(#p7ff5b81e1d)" d="
M72 378.633
L76.464 378.633
L76.6426 379.163
L80.928 379.163
L81.1066 369.497
L85.392 369.497
L85.5706 380.12
L94.32 380.073
L94.4986 380.327
L98.784 380.327
L98.9626 381.319
L103.248 381.319
L103.427 381.553
L112.176 381.66
L112.355 381.418
L116.64 381.418
L116.819 380.026
L121.104 380.026
L121.283 379.751
L125.568 379.751
L125.747 378.954
L130.032 378.954
L130.211 377.292
L134.496 377.292
L134.675 376.431
L138.96 376.431
L139.139 374.978
L143.424 374.978
L143.603 374.278
L147.888 374.278
L148.067 372.702
L152.352 372.702
L152.531 371.058
L156.816 371.058
L156.995 369.814
L161.28 369.814
L161.459 368.29
L165.744 368.29
L165.923 367.442
L170.208 367.442
L170.387 366.491
L174.672 366.491
L174.851 365.645
L179.136 365.645
L179.315 364.687
L183.6 364.687
L183.779 363.751
L188.064 363.751
L188.243 363.058
L192.528 363.058
L192.707 362.422
L196.992 362.422
L197.171 361.72
L201.456 361.72
L201.635 361.842
L210.384 361.763
L210.563 362.312
L214.848 362.312
L215.027 363.04
L219.312 363.04
L219.491 363.455
L223.776 363.455
L223.955 363.906
L232.704 363.864
L232.883 363.23
L246.096 363.137
L246.275 362.208
L250.56 362.208
L250.739 361.924
L255.024 361.924
L255.203 360.362
L259.488 360.362
L259.667 359.018
L263.952 359.018
L264.131 358.256
L268.416 358.256
L268.595 356.614
L272.88 356.614
L273.059 355.789
L277.344 355.789
L277.523 352.654
L281.808 352.654
L281.987 351.972
L286.272 351.972
L286.451 351.562
L290.736 351.562
L290.915 350.515
L295.2 350.515
L295.379 349.609
L299.664 349.609
L299.843 348.868
L304.128 348.868
L304.307 347.433
L308.592 347.433
L308.771 346.524
L313.056 346.524
L313.235 345.55
L317.52 345.55
L317.699 344.26
L321.984 344.26
L322.163 342.686
L326.448 342.686
L326.627 341.254
L330.912 341.254
L331.091 338.839
L335.376 338.839
L335.555 337.438
L339.84 337.438
L340.019 336.197
L344.304 336.197
L344.483 334.812
L348.768 334.812
L348.947 333.426
L353.232 333.426
L353.411 331.548
L357.696 331.548
L357.875 329.171
L362.16 329.171
L362.339 327.022
L366.624 327.022
L366.803 324.191
L371.088 324.191
L371.267 319.742
L375.552 319.742
L375.731 317.035
L380.016 317.035
L380.195 312.335
L384.48 312.335
L384.659 308.903
L388.944 308.903
L389.123 302.398
L393.408 302.398
L393.587 300.064
L397.872 300.064
L398.051 292.86
L402.336 292.86
L402.515 288.871
L406.8 288.871
L406.979 282.246
L411.264 282.246
L411.443 279.051
L415.728 279.051
L415.907 269.796
L420.192 269.796
L420.371 262.496
L424.656 262.496
L424.835 254.889
L429.12 254.889
L429.299 245.444
L433.584 245.413
L433.763 238.741
L438.048 238.741
L438.227 232.83
L442.512 232.836
L442.691 230.401
L446.976 230.401
L447.155 219.991
L451.44 219.991
L451.619 208.079
L455.904 208.079
L456.083 201.135
L460.368 201.135
L460.547 192.204
L464.832 192.204
L465.011 180.549
L469.296 180.549
L469.475 170.945
L473.76 170.945
L473.939 164.374
L475.278 164.374
L475.456 164.248
L478.224 164.248
L478.403 153.851
L482.688 153.851
L482.867 145.682
L485.277 145.682
L485.456 145.376
L487.152 145.376
L487.331 138.236
L491.616 138.236
L491.795 127.701
L496.08 127.701
L496.259 116.183
L500.544 116.183
L500.723 101.781
L505.008 101.781
L505.187 88.9005
L509.472 88.9005
L509.651 75.5138
L513.936 75.5138
L514.115 61.681
L518.311 61.681
L518.311 61.681" style="fill:none;stroke:#0000ff;stroke-dasharray:6.000000,2.000000;stroke-dashoffset:0.0;"/>
   </g>
   <g id="line2d_2">
    <path clip-path="url(#p7ff5b81e1d)" d="
M72 379.268
L72.7142 379.417
L73.1606 379.406
L73.8749 379.423
L74.3213 379.517
L74.5891 379.47
L75.1248 379.42
L75.3926 379.471
L75.7498 379.506
L76.1069 379.513
L76.5533 379.565
L76.9104 379.57
L77.4461 379.68
L78.071 379.699
L79.2317 379.902
L79.6781 380.031
L79.7674 380.057
L79.9459 379.905
L80.2138 379.874
L80.4816 379.872
L86.017 380.321
L86.6419 380.424
L87.1776 380.507
L88.8739 380.804
L96.2842 381.498
L96.9091 381.541
L97.9805 381.682
L98.6947 381.71
L99.4982 381.799
L99.6768 381.619
L100.659 381.734
L100.837 381.582
L106.105 382.24
L106.908 382.294
L107.801 382.306
L109.498 382.419
L110.658 382.506
L119.14 383.107
L120.3 383.155
L121.015 383.191
L123.336 383.344
L123.515 383.217
L124.497 383.267
L125.568 383.336
L127.354 383.419
L130.121 383.561
L130.3 383.429
L133.692 383.557
L134.764 383.594
L135.746 383.662
L135.924 383.489
L136.192 383.495
L136.371 383.351
L137.889 383.408
L139.674 383.492
L143.156 383.558
L144.763 383.596
L144.942 383.441
L145.031 383.445
L145.21 383.302
L147.531 383.363
L147.888 383.373
L148.067 383.219
L148.334 383.215
L148.513 383.059
L148.959 383.074
L149.138 382.906
L150.031 382.905
L150.209 382.748
L151.281 382.756
L151.459 382.622
L153.513 382.657
L153.691 382.533
L155.12 382.581
L155.298 382.426
L156.459 382.452
L156.637 382.336
L160.566 382.396
L160.744 382.26
L162.619 382.278
L162.798 382.155
L166.012 382.043
L166.19 381.913
L170.476 381.931
L170.654 381.799
L171.369 381.804
L171.547 381.684
L172.708 381.69
L172.976 381.446
L174.583 381.335
L174.761 381.229
L178.065 381.239
L178.243 381.131
L179.404 381.021
L179.582 380.912
L179.761 380.912
L179.94 380.8
L181.904 380.814
L182.172 380.598
L187.885 380.525
L190.385 380.54
L190.564 380.445
L191.546 380.444
L191.724 380.352
L192.796 380.258
L194.849 380.246
L195.742 380.158
L195.921 379.776
L199.403 379.685
L199.581 379.599
L201.367 379.605
L201.545 379.511
L204.313 379.416
L204.492 379.323
L207.081 379.243
L209.134 379.162
L209.313 379.077
L225.472 379.011
L225.651 378.93
L230.204 378.853
L230.383 378.775
L232.883 378.691
L233.061 378.612
L237.704 378.528
L237.882 378.447
L241.721 378.375
L241.9 378.299
L245.203 378.226
L245.382 378.151
L245.56 378.151
L245.739 378.001
L247.971 377.931
L248.149 377.857
L250.114 377.86
L250.292 377.629
L250.649 377.558
L250.917 377.491
L254.488 377.426
L254.756 377.355
L256.274 377.285
L256.542 377.217
L259.042 377.149
L259.309 377.082
L261.541 377.015
L261.809 376.949
L262.345 376.883
L262.613 376.818
L267.702 376.755
L267.97 376.692
L269.398 376.628
L269.666 376.564
L271.719 376.504
L271.987 376.443
L279.13 376.327
L279.397 376.264
L280.201 376.202
L280.469 376.142
L282.344 376.082
L282.612 376.022
L284.04 375.962
L284.397 375.845
L284.665 375.845
L284.844 375.651
L285.022 375.594
L285.29 375.539
L287.79 375.483
L288.058 375.428
L289.308 375.371
L289.665 375.263
L293.593 375.207
L293.861 375.152
L294.575 375.044
L294.932 374.939
L297.343 374.886
L297.521 374.708
L297.7 374.708
L297.878 374.531
L302.432 374.428
L302.61 374.255
L304.664 374.155
L304.932 374.106
L305.646 374.009
L305.824 373.841
L309.753 373.745
L310.02 373.697
L311.895 373.602
L312.163 373.555
L314.395 373.461
L314.663 373.414
L319.038 373.275
L319.306 373.229
L323.77 373.138
L324.037 373.093
L324.93 373.004
L325.198 372.96
L327.876 372.873
L328.412 372.702
L329.394 372.703
L329.573 372.442
L330.466 372.359
L330.733 372.318
L332.876 372.236
L333.144 372.195
L336.358 372.114
L337.162 371.85
L337.965 371.851
L338.144 371.708
L340.644 371.629
L341.268 371.451
L344.215 371.373
L344.929 371.16
L346.982 371.086
L347.786 370.84
L349.75 370.733
L349.929 370.627
L350.107 370.494
L353.321 370.39
L353.678 370.355
L357.16 370.253
L357.517 370.219
L359.66 370.117
L359.839 369.989
L362.606 369.89
L362.964 369.857
L365.731 369.758
L366.088 369.726
L367.338 369.662
L367.517 369.538
L370.195 369.444
L370.552 369.413
L372.963 369.32
L373.499 369.228
L376.266 369.228
L376.445 369.107
L377.248 368.927
L378.766 368.898
L378.945 368.78
L382.248 368.662
L382.694 368.633
L385.105 368.633
L385.284 368.517
L385.819 368.517
L385.998 368.401
L389.301 368.316
L389.837 368.261
L391.087 368.26
L391.265 368.06
L391.444 367.948
L393.229 367.839
L393.765 367.785
L400.193 367.679
L400.64 367.652
L402.604 367.546
L403.05 367.52
L404.032 367.495
L404.211 367.361
L407.336 367.336
L407.514 367.229
L409.478 367.129
L409.925 367.104
L411.264 367.055
L411.443 366.869
L416.264 366.797
L416.442 366.692
L418.049 366.621
L418.317 366.392
L419.835 366.345
L420.013 366.244
L423.495 366.153
L423.763 365.953
L425.817 365.865
L425.995 365.766
L426.174 365.766
L426.352 365.647
L430.281 365.625
L430.459 365.506
L431.709 365.464
L431.888 365.367
L435.191 365.263
L435.816 365.222
L437.959 365.161
L438.137 365.046
L440.101 364.952
L440.28 364.839
L445.458 364.779
L445.637 364.648
L446.797 364.59
L447.155 364.336
L449.208 364.261
L449.387 364.153
L449.565 364.045
L450.19 364.027
L451.708 363.991
L451.886 363.76
L452.422 363.743
L452.601 363.567
L452.779 363.55
L452.958 363.376
L453.94 363.342
L454.118 363.24
L455.725 363.206
L455.904 362.983
L456.529 362.967
L458.493 362.866
L459.207 362.85
L460.1 362.818
L460.279 362.734
L460.547 362.65
L460.725 362.567
L462.243 362.535
L462.421 362.453
L464.028 362.345
L465.993 362.122
L467.868 362.012
L469.207 361.903
L473.046 361.804
L475.635 361.513
L478.938 361.409
L479.831 361.382
L480.367 361.292
L480.545 361.189
L481.349 361.177
L485.634 361.126
L485.813 360.986
L489.652 360.937
L489.92 360.849
L490.902 360.825
L492.866 360.714
L497.062 360.645
L497.241 360.571
L497.866 360.486
L498.044 360.412
L499.026 360.346
L499.205 360.273
L501.169 360.179
L501.437 359.974
L503.133 359.871
L503.312 359.8
L508.579 359.78
L508.758 359.639
L511.436 359.529
L512.865 359.481
L516.525 359.393
L516.793 359.323
L518.311 359.236
L518.311 359.236" style="fill:none;stroke:#008000;stroke-dasharray:1.000000,1.000000;stroke-dashoffset:0.0;"/>
   </g>
   <g id="line2d_3">
    <path clip-path="url(#p7ff5b81e1d)" d="
M72 378.814
L72.0893 380.639
L72.1786 381.265
L72.4464 382.268
L72.625 382.483
L72.9821 382.847
L73.1606 382.988
L73.3392 382.926
L73.5178 383.047
L73.6963 382.921
L74.4106 382.041
L74.9462 381.704
L75.4819 381.579
L75.7498 381.254
L77.2675 380.529
L77.5354 380.241
L78.3389 379.908
L78.9638 379.742
L79.2317 379.547
L80.303 378.971
L80.928 378.728
L81.1958 378.565
L81.3744 378.511
L81.6422 378.38
L82.8922 378.105
L84.3206 377.779
L85.4813 377.433
L85.8384 377.334
L87.5347 376.988
L88.249 376.896
L88.9632 376.735
L89.6774 376.689
L89.9453 376.546
L92.4451 376.102
L94.2307 376.021
L94.4986 375.957
L95.927 375.906
L96.3734 375.8
L97.177 375.723
L98.8733 375.629
L99.0518 375.597
L99.2304 375.469
L100.391 375.356
L101.284 375.311
L102.087 375.246
L102.266 375.196
L102.802 375.233
L103.605 375.126
L111.64 374.63
L113.069 374.674
L113.337 374.633
L113.962 374.518
L114.14 374.407
L116.64 374.329
L116.908 374.378
L117.801 374.227
L119.051 374.233
L125.657 374.114
L126.104 374.167
L128.693 374.106
L129.228 373.943
L129.853 373.993
L130.836 373.951
L131.282 374.042
L131.728 374.051
L131.996 373.962
L132.532 373.934
L132.978 374.036
L133.068 374.041
L133.246 373.883
L133.96 373.716
L139.228 373.748
L139.585 373.703
L140.656 373.745
L141.013 373.695
L142.799 373.689
L144.585 373.643
L145.745 373.65
L146.906 373.619
L147.263 373.682
L147.799 373.64
L153.691 373.508
L154.495 373.598
L154.763 373.651
L155.03 373.617
L160.209 373.84
L160.566 373.81
L161.28 373.808
L161.548 373.791
L161.994 373.816
L163.691 373.789
L166.637 373.843
L166.905 373.862
L167.976 373.774
L169.494 373.769
L169.762 373.703
L174.583 373.691
L175.833 373.695
L177.886 373.697
L179.047 373.677
L179.404 373.666
L184.314 373.647
L184.582 373.62
L185.564 373.602
L186.189 373.577
L186.546 373.65
L187.528 373.614
L193.064 373.389
L193.332 373.368
L200.385 373.596
L200.563 373.598
L200.831 373.659
L201.635 373.691
L201.992 373.67
L212.348 373.799
L212.795 373.73
L219.758 373.588
L220.205 373.565
L221.723 373.538
L224.758 373.595
L226.544 373.578
L227.169 373.479
L230.561 373.382
L231.097 373.353
L232.168 373.395
L232.615 373.321
L233.508 373.342
L234.222 373.302
L234.4 373.231
L235.382 373.274
L235.74 373.224
L237.793 373.204
L238.061 373.177
L238.954 373.22
L239.579 373.199
L243.507 373.14
L243.864 373.132
L244.846 373.169
L246.989 373.124
L247.257 373.107
L248.685 373.068
L249.221 373.03
L258.06 372.664
L259.22 372.583
L259.488 372.581
L262.077 372.473
L262.345 372.429
L264.398 372.359
L264.577 372.225
L265.202 372.162
L266.184 372.084
L266.363 372.002
L271.541 371.944
L273.862 371.886
L274.13 371.847
L274.933 371.798
L275.648 371.794
L276.808 371.753
L281.451 371.745
L285.201 371.504
L285.558 371.448
L285.915 371.411
L286.629 371.333
L287.343 371.269
L288.236 371.161
L288.772 371.143
L296.896 370.792
L298.057 370.745
L304.485 370.633
L305.021 370.594
L305.914 370.527
L306.36 370.515
L315.913 370.305
L317.966 370.236
L318.324 370.189
L319.484 370.183
L320.109 370.127
L322.163 370.083
L329.305 369.869
L329.484 369.79
L330.287 369.756
L333.769 369.69
L334.215 369.66
L336.001 369.542
L338.769 369.48
L339.126 369.404
L344.304 369.34
L345.286 369.226
L348.679 369.149
L349.482 369.11
L360.91 368.669
L361.178 368.614
L367.07 368.364
L367.517 368.337
L376.98 368.063
L377.963 368.078
L383.23 367.94
L383.498 367.869
L467.332 367.058
L491.884 367.215
L492.241 367.279
L492.509 367.215
L505.722 367.524
L506.347 367.566
L508.401 367.625
L509.472 367.63
L509.651 367.6
L510.811 367.657
L512.15 367.729
L515.007 367.78
L516.525 367.837
L516.793 367.794
L517.864 367.846
L518.132 367.792
L518.311 367.792
L518.311 367.792" style="fill:none;stroke:#ff0000;stroke-dasharray:3.000000,6.000000;stroke-dashoffset:0.0;"/>
   </g>
   <g id="line2d_4">
    <path clip-path="url(#p7ff5b81e1d)" d="
M72 378.884
L72.2678 381.875
L72.5357 382.394
L72.9821 382.576
L73.1606 382.548
L73.5178 382.22
L75.1248 381.737
L75.3926 381.637
L75.4819 381.64
L75.839 379.979
L76.6426 378.141
L77.5354 377.472
L78.3389 377.275
L79.2317 377.273
L79.9459 376.667
L81.4637 376.5
L82.7136 376.446
L82.8922 376.49
L83.5171 376.278
L83.6957 376.366
L84.2314 376.375
L84.767 376.366
L86.017 376.19
L86.5526 376.289
L86.8205 376.533
L87.4454 376.562
L88.249 376.673
L88.4275 376.547
L89.0525 376.526
L90.2131 376.527
L90.3917 376.379
L90.8381 376.522
L91.1059 376.646
L91.5523 376.754
L92.6237 376.659
L93.0701 376.644
L93.5165 376.727
L93.7843 376.861
L94.4986 376.861
L95.0342 377.032
L95.3021 377.114
L95.8378 377.084
L97.5341 377.193
L97.8019 377.23
L98.9626 377.493
L100.927 377.563
L101.82 378.005
L102.177 378.049
L102.355 378.145
L102.712 378.118
L103.962 378.057
L104.141 378.014
L104.766 378.109
L105.569 378.117
L105.837 378.324
L106.284 378.265
L106.551 378.202
L107.801 378.16
L108.069 378.122
L108.337 378.209
L108.605 378.325
L109.408 378.479
L109.765 378.413
L110.748 378.29
L111.372 378.272
L111.908 378.19
L114.497 378.197
L115.122 378.166
L115.39 378.065
L116.015 378.138
L116.372 378.155
L116.729 378.224
L117.086 378.21
L117.89 378.124
L119.14 378.223
L119.765 378.323
L120.39 378.314
L120.658 378.264
L121.283 378.207
L121.461 378.114
L123.425 378.28
L123.782 378.317
L124.05 378.216
L124.854 378.131
L125.032 378.016
L125.836 378.091
L126.104 378.15
L126.818 378.255
L127.354 377.855
L130.746 378.025
L130.925 378.008
L132.443 377.8
L132.8 377.787
L133.871 377.749
L136.817 377.468
L137.174 377.579
L137.353 377.493
L139.764 377.194
L140.031 377.154
L141.281 377.335
L141.638 377.389
L141.906 377.371
L142.085 377.254
L142.263 377.258
L142.531 377.017
L142.978 376.942
L143.335 376.912
L145.21 377.096
L146.727 376.678
L147.531 376.774
L147.977 376.876
L148.334 376.768
L148.87 376.818
L150.745 376.629
L151.37 376.713
L152.441 376.806
L152.798 376.735
L154.405 376.683
L154.763 376.767
L156.548 376.74
L157.084 376.633
L157.441 376.566
L157.53 376.566
L157.709 376.439
L158.066 376.444
L159.941 376.567
L160.119 376.484
L160.476 376.398
L160.744 376.343
L161.726 376.112
L162.173 376.1
L162.441 376.094
L163.066 376.1
L165.03 375.818
L166.369 375.86
L167.083 375.567
L167.619 375.481
L168.065 375.235
L169.137 375.143
L169.404 375.097
L170.119 375.208
L170.387 375.15
L171.547 375.073
L172.172 374.843
L173.244 374.896
L173.868 374.837
L174.136 374.675
L175.029 374.597
L175.386 374.415
L176.19 374.47
L177.708 374.518
L178.154 374.365
L178.69 374.267
L180.207 374.321
L181.1 374.351
L181.547 374.197
L182.35 374.063
L182.618 374.029
L183.421 374.146
L184.85 374.187
L185.475 374.081
L188.868 374.024
L189.225 373.927
L192.26 373.994
L192.439 373.877
L192.885 373.843
L193.332 373.798
L193.689 373.778
L193.956 373.728
L194.314 373.739
L194.671 373.715
L195.831 373.615
L197.528 373.425
L198.867 373.501
L201.01 373.361
L202.974 373.49
L203.777 373.222
L204.045 373.154
L205.295 373.228
L205.831 373.184
L206.991 373.06
L207.884 372.998
L208.688 373.026
L211.009 372.844
L211.723 372.877
L213.062 372.998
L213.42 372.899
L215.384 372.763
L217.169 372.799
L218.598 372.37
L219.312 372.453
L222.169 372.352
L224.044 372.345
L224.937 372.226
L228.151 372.171
L229.044 371.95
L232.436 371.943
L232.883 371.907
L233.597 371.948
L234.847 371.907
L236.543 371.704
L238.418 371.778
L238.596 371.595
L239.043 371.521
L239.936 371.499
L240.828 371.521
L241.275 371.537
L242.703 371.464
L247.971 371.454
L248.239 371.427
L249.132 371.487
L252.703 371.396
L253.238 371.367
L257.345 371.412
L258.327 371.394
L259.042 371.429
L260.47 371.383
L261.095 371.292
L263.595 371.439
L264.22 371.418
L265.827 371.524
L266.63 371.505
L269.398 371.495
L269.934 371.531
L270.737 371.496
L271.362 371.464
L272.434 371.481
L274.13 371.542
L275.112 371.437
L275.916 371.487
L281.897 371.462
L283.058 371.556
L283.594 371.606
L284.308 371.66
L291.272 371.865
L291.718 371.853
L292.789 371.854
L296.271 371.954
L297.432 372.029
L303.057 372.255
L304.039 372.235
L304.396 372.295
L305.914 372.442
L306.539 372.538
L307.074 372.53
L307.967 372.638
L308.503 372.737
L314.395 372.881
L316.984 372.985
L317.52 373.007
L319.395 373.036
L320.645 373.106
L320.913 373.018
L321.716 373.035
L322.609 373.097
L322.966 373.161
L325.912 373.31
L326.359 373.397
L327.073 373.406
L327.609 373.434
L329.037 373.499
L329.573 373.631
L335.376 373.781
L336.358 373.804
L336.715 373.906
L342.786 374.321
L343.411 374.463
L345.018 374.617
L345.732 374.649
L348.5 374.72
L348.947 374.868
L349.393 374.908
L349.75 374.921
L350.464 374.966
L350.732 375.022
L354.482 375.212
L354.75 375.263
L356.446 375.29
L356.982 375.441
L358.857 375.491
L360.017 375.616
L360.642 375.634
L360.999 375.806
L362.517 375.976
L362.785 376.017
L364.303 376.107
L364.66 376.13
L367.16 376.154
L367.428 376.223
L371.356 376.538
L371.534 376.656
L371.892 376.706
L372.338 376.916
L373.231 377.018
L373.409 377.096
L377.248 377.191
L377.605 377.272
L379.391 377.32
L379.659 377.376
L386.623 377.485
L390.908 377.675
L391.622 377.894
L392.515 377.935
L392.783 377.99
L393.497 378.062
L393.765 378.137
L395.64 378.155
L395.997 378.19
L396.265 378.243
L396.444 378.313
L397.961 378.355
L399.925 378.476
L400.193 378.541
L402.425 378.684
L403.497 378.769
L403.943 378.792
L404.925 378.833
L406.264 378.927
L406.889 378.961
L407.336 378.968
L407.514 379.119
L409.568 379.163
L409.836 379.223
L411.71 379.306
L412.068 379.34
L413.675 379.389
L413.853 379.252
L414.924 379.311
L415.103 379.385
L416.532 379.444
L416.71 379.533
L419.746 379.535
L419.924 379.614
L420.638 379.606
L420.817 379.476
L423.763 379.526
L424.299 379.552
L424.924 379.56
L425.102 379.476
L428.227 379.555
L428.406 379.664
L432.066 379.594
L432.334 379.529
L434.745 379.613
L435.102 379.854
L436.262 379.875
L437.691 379.919
L437.869 380.026
L446.53 380.125
L447.422 380.161
L450.19 380.098
L450.369 379.963
L451.44 379.988
L451.976 380.097
L452.779 380.128
L452.958 380.003
L453.047 380.039
L453.226 379.922
L456.172 379.99
L456.35 379.869
L457.065 379.928
L457.243 379.81
L458.761 379.895
L458.94 379.764
L459.297 379.795
L460.904 379.708
L461.172 379.677
L463.939 379.764
L465.011 379.775
L477.42 379.678
L477.688 379.623
L483.402 379.578
L483.581 379.464
L485.545 379.4
L485.724 379.285
L488.67 379.33
L488.848 379.206
L490.723 379.346
L491.705 379.356
L491.884 379.22
L492.777 379.176
L492.955 379.077
L499.651 379.247
L500.187 379.286
L503.044 379.251
L503.222 379.045
L505.901 379.046
L506.079 378.949
L509.472 378.868
L509.651 378.802
L510.811 378.825
L511.168 378.726
L517.418 378.63
L517.686 378.587
L518.311 378.539
L518.311 378.539" style="fill:none;stroke:#00bfbf;stroke-dasharray:5.000000,1.000000,2.000000,1.000000,5.000000,1.000000;stroke-dashoffset:0.0;"/>
   </g>
   <g id="line2d_5">
    <path clip-path="url(#p7ff5b81e1d)" d="
M72 378.527
L72.0893 380.393
L72.1786 380.954
L72.5357 382.205
L73.2499 382.725
L73.5178 382.803
L73.7856 382.741
L75.5712 382.73
L75.9283 382.585
L76.2854 382.477
L76.464 382.329
L77.5354 381.895
L79.0531 381.884
L79.7674 381.588
L80.8387 381.094
L83.16 380.903
L83.785 380.667
L84.9456 380.444
L86.5526 380.346
L87.7133 379.945
L89.0525 379.86
L90.1238 379.79
L91.0166 379.523
L92.6237 379.478
L93.7843 379.392
L96.1056 379.25
L97.0877 379.228
L97.7126 379.146
L100.837 379.042
L102.266 379.074
L104.319 379.075
L104.587 379.057
L108.516 379.155
L109.676 379.291
L112.265 379.416
L112.89 379.537
L113.604 379.555
L115.658 379.674
L116.729 379.807
L118.872 379.872
L122.532 379.999
L124.318 380.158
L129.764 380.373
L130.211 380.391
L130.478 380.295
L133.157 380.401
L133.425 380.254
L134.585 380.318
L137.174 380.438
L137.978 380.491
L145.656 380.565
L154.048 380.708
L155.655 380.841
L157.53 380.788
L158.244 380.716
L158.512 380.551
L159.316 380.516
L166.369 380.492
L166.548 380.213
L169.851 380.177
L170.029 380.048
L173.244 380.123
L173.511 380.047
L180.029 379.805
L180.297 379.733
L183.064 379.563
L183.511 379.313
L185.028 379.279
L190.921 379.212
L191.278 379.096
L193.421 379.112
L193.689 379.058
L197.617 379.085
L199.581 379.051
L209.313 378.932
L209.58 378.877
L213.866 378.833
L214.134 378.772
L216.544 378.671
L219.401 378.564
L219.669 378.513
L226.901 378.42
L227.258 378.317
L233.418 378.233
L233.686 378.182
L258.327 377.944
L258.684 377.842
L262.702 377.786
L262.97 377.734
L266.005 377.633
L266.273 377.586
L268.952 377.499
L269.398 377.36
L272.166 377.262
L272.434 377.211
L280.38 377.131
L280.737 377.032
L286.183 376.946
L286.451 376.896
L293.593 376.726
L293.861 376.682
L297.611 376.603
L297.968 376.52
L300.914 376.483
L301.092 376.305
L309.306 376.068
L309.485 375.933
L315.556 375.85
L315.913 375.809
L321.002 375.729
L323.055 375.695
L323.234 375.614
L327.162 375.491
L327.519 375.454
L332.876 375.374
L333.233 375.337
L336.18 375.267
L336.537 375.228
L342.518 375.125
L342.697 375.001
L348.143 374.923
L348.5 374.886
L354.214 374.78
L354.571 374.746
L362.071 374.64
L362.517 374.57
L365.106 374.453
L365.463 374.418
L372.606 374.279
L372.963 374.244
L375.998 374.142
L376.891 374.143
L377.07 373.994
L380.73 373.9
L381.087 373.868
L390.64 373.773
L391.087 373.712
L394.926 373.613
L395.283 373.581
L397.515 373.47
L401.622 373.376
L401.89 373.315
L405.729 373.223
L406.086 373.192
L408.943 373.082
L409.3 373.051
L420.817 372.962
L430.102 372.934
L430.281 372.829
L436.441 372.772
L436.62 372.638
L437.066 372.61
L440.369 372.522
L440.548 372.419
L454.297 372.279
L454.743 372.122
L459.029 372.037
L459.297 371.983
L459.743 371.956
L461.529 371.956
L461.707 371.832
L472.778 371.726
L473.224 371.699
L476.171 371.673
L476.349 371.576
L487.688 371.445
L488.134 371.42
L490.812 371.342
L490.991 371.222
L500.633 371.122
L501.08 371.098
L504.204 371.049
L504.383 370.957
L505.276 370.907
L505.544 370.791
L508.401 370.741
L508.668 370.627
L511.704 370.535
L512.24 370.487
L518.311 370.441
L518.311 370.441" style="fill:none;stroke:#bf00bf;stroke-linecap:square;"/>
   </g>
   <g id="matplotlib.axis_1">
    <g id="xtick_1">
     <g id="line2d_6">
      <defs>
       <path d="
M0 0
L0 -4" id="mc7db9fdffb" style="stroke:#000000;stroke-width:0.5;"/>
      </defs>
      <g>
       <use style="stroke:#000000;stroke-width:0.5;" x="72.0" xlink:href="#mc7db9fdffb" y="388.8"/>
      </g>
     </g>
     <g id="line2d_7">
      <defs>
       <path d="
M0 0
L0 4" id="m5a7d422ac3" style="stroke:#000000;stroke-width:0.5;"/>
      </defs>
      <g>
       <use style="stroke:#000000;stroke-width:0.5;" x="72.0" xlink:href="#m5a7d422ac3" y="43.2"/>
      </g>
     </g>
     <g id="text_1">
      <!-- 0 -->
      <defs>
       <path d="
M56.9844 36.375
Q56.9844 16.7969 50.8594 7.64062
Q44.7344 -1.51562 31.8438 -1.51562
Q18.75 -1.51562 12.7188 7.76562
Q6.6875 17.0469 6.6875 36.2812
Q6.6875 55.6719 12.7812 64.9219
Q18.8906 74.1719 31.8438 74.1719
Q44.9219 74.1719 50.9531 64.7656
Q56.9844 55.375 56.9844 36.375
M44.1406 14.2031
Q45.8438 18.1719 46.4531 23.5156
Q47.0781 28.8594 47.0781 36.375
Q47.0781 43.7969 46.4531 49.2656
Q45.8438 54.7344 44.0938 58.5469
Q42.3906 62.3125 39.4219 64.2031
Q36.4688 66.1094 31.8438 66.1094
Q27.25 66.1094 24.2344 64.2031
Q21.2344 62.3125 19.4844 58.4531
Q17.8281 54.8281 17.2188 49.0156
Q16.6094 43.2188 16.6094 36.2812
Q16.6094 28.6562 17.1406 23.5312
Q17.6719 18.4062 19.4375 14.3594
Q21.0469 10.5469 24 8.54688
Q26.9531 6.54688 31.8438 6.54688
Q36.4219 6.54688 39.4531 8.45312
Q42.4844 10.3594 44.1406 14.2031" id="Verdana-30"/>
      </defs>
      <g transform="translate(68.9821875 401.918125)scale(0.12 -0.12)">
       <use xlink:href="#Verdana-30"/>
      </g>
     </g>
    </g>
    <g id="xtick_2">
     <g id="line2d_8">
      <g>
       <use style="stroke:#000000;stroke-width:0.5;" x="161.28" xlink:href="#mc7db9fdffb" y="388.8"/>
      </g>
     </g>
     <g id="line2d_9">
      <g>
       <use style="stroke:#000000;stroke-width:0.5;" x="161.28" xlink:href="#m5a7d422ac3" y="43.2"/>
      </g>
     </g>
     <g id="text_2">
      <!-- 1000 -->
      <defs>
       <path d="
M52.9375 0
L13.5781 0
L13.5781 7.42188
L28.7188 7.42188
L28.7188 56.1562
L13.5781 56.1562
L13.5781 62.7969
Q16.6562 62.7969 20.1719 63.2969
Q23.6875 63.8125 25.4844 64.7969
Q27.7344 66.0156 29.0312 67.8906
Q30.3281 69.7812 30.5156 72.9531
L38.0938 72.9531
L38.0938 7.42188
L52.9375 7.42188
z
" id="Verdana-31"/>
      </defs>
      <g transform="translate(147.2315625 401.918125)scale(0.12 -0.12)">
       <use xlink:href="#Verdana-31"/>
       <use x="63.57421875" xlink:href="#Verdana-30"/>
       <use x="127.1484375" xlink:href="#Verdana-30"/>
       <use x="190.72265625" xlink:href="#Verdana-30"/>
      </g>
     </g>
    </g>
    <g id="xtick_3">
     <g id="line2d_10">
      <g>
       <use style="stroke:#000000;stroke-width:0.5;" x="250.56" xlink:href="#mc7db9fdffb" y="388.8"/>
      </g>
     </g>
     <g id="line2d_11">
      <g>
       <use style="stroke:#000000;stroke-width:0.5;" x="250.56" xlink:href="#m5a7d422ac3" y="43.2"/>
      </g>
     </g>
     <g id="text_3">
      <!-- 2000 -->
      <defs>
       <path d="
M57.0781 0
L7.85938 0
L7.85938 10.2031
Q12.9844 14.5938 18.1406 18.9844
Q23.2969 23.3906 27.7344 27.7344
Q37.1094 36.8125 40.5781 42.1562
Q44.0469 47.5156 44.0469 53.7188
Q44.0469 59.375 40.3125 62.5625
Q36.5781 65.7656 29.8906 65.7656
Q25.4375 65.7656 20.2656 64.2031
Q15.0938 62.6406 10.1562 59.4219
L9.67188 59.4219
L9.67188 69.6719
Q13.1406 71.3906 18.9219 72.7969
Q24.7031 74.2188 30.125 74.2188
Q41.3125 74.2188 47.6562 68.8125
Q54 63.4219 54 54.2031
Q54 50.0469 52.9531 46.4531
Q51.9062 42.875 49.8594 39.6562
Q47.9531 36.625 45.3906 33.6875
Q42.8281 30.7656 39.1562 27.2031
Q33.9375 22.0781 28.3594 17.2656
Q22.7969 12.4531 17.9688 8.34375
L57.0781 8.34375
z
" id="Verdana-32"/>
      </defs>
      <g transform="translate(236.1684375 401.918125)scale(0.12 -0.12)">
       <use xlink:href="#Verdana-32"/>
       <use x="63.57421875" xlink:href="#Verdana-30"/>
       <use x="127.1484375" xlink:href="#Verdana-30"/>
       <use x="190.72265625" xlink:href="#Verdana-30"/>
      </g>
     </g>
    </g>
    <g id="xtick_4">
     <g id="line2d_12">
      <g>
       <use style="stroke:#000000;stroke-width:0.5;" x="339.84" xlink:href="#mc7db9fdffb" y="388.8"/>
      </g>
     </g>
     <g id="line2d_13">
      <g>
       <use style="stroke:#000000;stroke-width:0.5;" x="339.84" xlink:href="#m5a7d422ac3" y="43.2"/>
      </g>
     </g>
     <g id="text_4">
      <!-- 3000 -->
      <defs>
       <path d="
M50.6875 35.0156
Q53.0312 32.9062 54.5469 29.7344
Q56.0625 26.5625 56.0625 21.5312
Q56.0625 16.5469 54.25 12.3906
Q52.4375 8.25 49.1719 5.17188
Q45.5156 1.76562 40.5469 0.125
Q35.5938 -1.51562 29.6875 -1.51562
Q23.6406 -1.51562 17.7812 -0.0625
Q11.9219 1.375 8.15625 3.07812
L8.15625 13.2812
L8.89062 13.2812
Q13.0312 10.5469 18.6406 8.73438
Q24.2656 6.9375 29.5 6.9375
Q32.5625 6.9375 36.0312 7.95312
Q39.5 8.98438 41.6562 10.9844
Q43.8906 13.1406 44.9844 15.7188
Q46.0938 18.3125 46.0938 22.2656
Q46.0938 26.1719 44.8438 28.7344
Q43.6094 31.2969 41.4062 32.7656
Q39.2031 34.2812 36.0781 34.8438
Q32.9531 35.4062 29.3438 35.4062
L24.9531 35.4062
L24.9531 43.5
L28.375 43.5
Q35.7969 43.5 40.2031 46.5938
Q44.625 49.7031 44.625 55.6719
Q44.625 58.2969 43.5 60.2656
Q42.3906 62.25 40.375 63.5312
Q38.2812 64.7969 35.8906 65.2812
Q33.5 65.7656 30.4688 65.7656
Q25.8281 65.7656 20.5938 64.1094
Q15.375 62.4531 10.75 59.4219
L10.25 59.4219
L10.25 69.625
Q13.7188 71.3438 19.5 72.7812
Q25.2969 74.2188 30.7188 74.2188
Q36.0312 74.2188 40.0781 73.2344
Q44.1406 72.2656 47.4062 70.125
Q50.9219 67.7812 52.7344 64.4531
Q54.5469 61.1406 54.5469 56.6875
Q54.5469 50.6406 50.2656 46.125
Q46 41.6094 40.1875 40.4375
L40.1875 39.75
Q42.5312 39.3594 45.5469 38.1094
Q48.5781 36.8594 50.6875 35.0156" id="Verdana-33"/>
      </defs>
      <g transform="translate(325.46625 401.918125)scale(0.12 -0.12)">
       <use xlink:href="#Verdana-33"/>
       <use x="63.57421875" xlink:href="#Verdana-30"/>
       <use x="127.1484375" xlink:href="#Verdana-30"/>
       <use x="190.72265625" xlink:href="#Verdana-30"/>
      </g>
     </g>
    </g>
    <g id="xtick_5">
     <g id="line2d_14">
      <g>
       <use style="stroke:#000000;stroke-width:0.5;" x="429.12" xlink:href="#mc7db9fdffb" y="388.8"/>
      </g>
     </g>
     <g id="line2d_15">
      <g>
       <use style="stroke:#000000;stroke-width:0.5;" x="429.12" xlink:href="#m5a7d422ac3" y="43.2"/>
      </g>
     </g>
     <g id="text_5">
      <!-- 4000 -->
      <defs>
       <path d="
M58.7344 20.4531
L47.9531 20.4531
L47.9531 0
L38.5781 0
L38.5781 20.4531
L3.76562 20.4531
L3.76562 31.6875
L38.9688 72.7031
L47.9531 72.7031
L47.9531 28.2656
L58.7344 28.2656
z

M38.5781 28.2656
L38.5781 61.0781
L10.4062 28.2656
z
" id="Verdana-34"/>
      </defs>
      <g transform="translate(414.4828125 401.918125)scale(0.12 -0.12)">
       <use xlink:href="#Verdana-34"/>
       <use x="63.57421875" xlink:href="#Verdana-30"/>
       <use x="127.1484375" xlink:href="#Verdana-30"/>
       <use x="190.72265625" xlink:href="#Verdana-30"/>
      </g>
     </g>
    </g>
    <g id="xtick_6">
     <g id="line2d_16">
      <g>
       <use style="stroke:#000000;stroke-width:0.5;" x="518.4" xlink:href="#mc7db9fdffb" y="388.8"/>
      </g>
     </g>
     <g id="line2d_17">
      <g>
       <use style="stroke:#000000;stroke-width:0.5;" x="518.4" xlink:href="#m5a7d422ac3" y="43.2"/>
      </g>
     </g>
     <g id="text_6">
      <!-- 5000 -->
      <defs>
       <path d="
M56.5 23.0938
Q56.5 18.0156 54.6406 13.375
Q52.7812 8.73438 49.5625 5.5625
Q46.0469 2.15625 41.1875 0.3125
Q36.3281 -1.51562 29.9375 -1.51562
Q23.9688 -1.51562 18.4531 -0.265625
Q12.9375 0.984375 9.125 2.73438
L9.125 13.0312
L9.8125 13.0312
Q13.8125 10.5 19.1875 8.71875
Q24.5625 6.9375 29.7344 6.9375
Q33.2031 6.9375 36.4531 7.90625
Q39.7031 8.89062 42.2344 11.3281
Q44.3906 13.4219 45.4844 16.3438
Q46.5781 19.2812 46.5781 23.1406
Q46.5781 26.9062 45.2812 29.4844
Q44 32.0781 41.7031 33.6406
Q39.1562 35.5 35.5156 36.25
Q31.8906 37.0156 27.3906 37.0156
Q23.0938 37.0156 19.1094 36.4219
Q15.1406 35.8438 12.25 35.25
L12.25 72.7031
L56 72.7031
L56 64.1562
L21.6875 64.1562
L21.6875 44.8281
Q23.7812 45.0156 25.9688 45.1094
Q28.1719 45.2188 29.7812 45.2188
Q35.6875 45.2188 40.125 44.2188
Q44.5781 43.2188 48.2969 40.6719
Q52.2031 37.9844 54.3438 33.7344
Q56.5 29.5 56.5 23.0938" id="Verdana-35"/>
      </defs>
      <g transform="translate(504.084375 401.918125)scale(0.12 -0.12)">
       <use xlink:href="#Verdana-35"/>
       <use x="63.57421875" xlink:href="#Verdana-30"/>
       <use x="127.1484375" xlink:href="#Verdana-30"/>
       <use x="190.72265625" xlink:href="#Verdana-30"/>
      </g>
     </g>
    </g>
    <g id="text_7">
     <!-- Objective function exectuions -->
     <defs>
      <path d="
M57.0312 27.6875
Q57.0312 20.8438 55.0938 15.375
Q53.1719 9.90625 49.9062 6.20312
Q46.4375 2.34375 42.2812 0.40625
Q38.1406 -1.51562 33.1562 -1.51562
Q28.5156 -1.51562 25.0469 -0.40625
Q21.5781 0.6875 18.2188 2.54688
L17.625 0
L9.03125 0
L9.03125 75.9844
L18.2188 75.9844
L18.2188 48.8281
Q22.0781 52 26.4219 54.0312
Q30.7656 56.0625 36.1875 56.0625
Q45.8438 56.0625 51.4375 48.6406
Q57.0312 41.2188 57.0312 27.6875
M47.5625 27.4375
Q47.5625 37.2031 44.3281 42.25
Q41.1094 47.3125 33.9375 47.3125
Q29.9375 47.3125 25.8281 45.5781
Q21.7344 43.8438 18.2188 41.1094
L18.2188 9.85938
Q22.125 8.10938 24.9219 7.42188
Q27.7344 6.73438 31.2969 6.73438
Q38.9219 6.73438 43.2344 11.7344
Q47.5625 16.75 47.5625 27.4375" id="Verdana-62"/>
      <path d="
M56.2031 54.5469
L34.125 0
L24.9062 0
L2.98438 54.5469
L12.9375 54.5469
L29.8281 11.1406
L46.5781 54.5469
z
" id="Verdana-76"/>
      <path d="
M56.25 0
L44.6719 0
L29.2031 20.9531
L13.625 0
L2.9375 0
L24.2188 27.2031
L3.125 54.5469
L14.7031 54.5469
L30.0781 33.9375
L45.5156 54.5469
L56.25 54.5469
L34.8125 27.6875
z
" id="Verdana-78"/>
      <path d="
M54.6875 26.3125
L14.5 26.3125
Q14.5 21.2969 16.0156 17.5469
Q17.5312 13.8125 20.1719 11.4219
Q22.7031 9.07812 26.1875 7.90625
Q29.6875 6.73438 33.8906 6.73438
Q39.4531 6.73438 45.0938 8.95312
Q50.7344 11.1875 53.125 13.3281
L53.6094 13.3281
L53.6094 3.32812
Q48.9688 1.375 44.1406 0.046875
Q39.3125 -1.26562 33.9844 -1.26562
Q20.4062 -1.26562 12.7812 6.07812
Q5.17188 13.4219 5.17188 26.9531
Q5.17188 40.3281 12.4688 48.1875
Q19.7812 56.0625 31.6875 56.0625
Q42.7188 56.0625 48.7031 49.6094
Q54.6875 43.1719 54.6875 31.2969
z

M45.75 33.3438
Q45.7031 40.5781 42.1094 44.5312
Q38.5312 48.4844 31.2031 48.4844
Q23.8281 48.4844 19.4531 44.1406
Q15.0938 39.7969 14.5 33.3438
z
" id="Verdana-65"/>
      <path d="
M49.3594 3.42188
Q44.7812 1.21875 40.6562 0
Q36.5312 -1.21875 31.8906 -1.21875
Q25.9844 -1.21875 21.0469 0.515625
Q16.1094 2.25 12.5938 5.76562
Q9.03125 9.28125 7.07812 14.6406
Q5.125 20.0156 5.125 27.2031
Q5.125 40.5781 12.4688 48.1875
Q19.8281 55.8125 31.8906 55.8125
Q36.5781 55.8125 41.0938 54.4844
Q45.6094 53.1719 49.3594 51.2656
L49.3594 41.0625
L48.875 41.0625
Q44.6719 44.3438 40.2031 46.0938
Q35.75 47.8594 31.5 47.8594
Q23.6875 47.8594 19.1719 42.6094
Q14.6562 37.3594 14.6562 27.2031
Q14.6562 17.3281 19.0625 12.0312
Q23.4844 6.73438 31.5 6.73438
Q34.2812 6.73438 37.1562 7.46875
Q40.0469 8.20312 42.3281 9.375
Q44.3438 10.4062 46.0938 11.5469
Q47.8594 12.7031 48.875 13.5312
L49.3594 13.5312
z
" id="Verdana-63"/>
      <path d="
M26.0312 63.6719
L15.6719 63.6719
L15.6719 73.1875
L26.0312 73.1875
z

M25.4375 -1.3125
Q25.4375 -10.8906 20.5469 -15.7656
Q15.6719 -20.6562 7.46875 -20.6562
Q5.51562 -20.6562 2.3125 -20.2656
Q-0.875 -19.875 -3.03125 -19.2812
L-3.03125 -10.5469
L-2.54688 -10.5469
Q-1.17188 -11.0781 1.14062 -11.7656
Q3.46875 -12.4531 5.67188 -12.4531
Q9.1875 -12.4531 11.3281 -11.4688
Q13.4844 -10.5 14.5469 -8.54688
Q15.625 -6.59375 15.9375 -3.82812
Q16.2656 -1.07812 16.2656 2.875
L16.2656 46.8281
L4.89062 46.8281
L4.89062 54.5469
L25.4375 54.5469
z
" id="Verdana-6a"/>
      <path d="
M18.8906 63.6719
L8.54688 63.6719
L8.54688 73.1875
L18.8906 73.1875
z

M18.3125 0
L9.125 0
L9.125 54.5469
L18.3125 54.5469
z
" id="Verdana-69"/>
      <path d="
M54.6406 0
L45.4531 0
L45.4531 31.0625
Q45.4531 34.8125 45.0156 38.1094
Q44.5781 41.4062 43.4062 43.2656
Q42.1875 45.3125 39.8906 46.3125
Q37.5938 47.3125 33.9375 47.3125
Q30.1719 47.3125 26.0625 45.4531
Q21.9688 43.6094 18.2188 40.7188
L18.2188 0
L9.03125 0
L9.03125 54.5469
L18.2188 54.5469
L18.2188 48.4844
Q22.5156 52.0469 27.0938 54.0469
Q31.6875 56.0625 36.5312 56.0625
Q45.3594 56.0625 50 50.7344
Q54.6406 45.4062 54.6406 35.4062
z
" id="Verdana-6e"/>
      <path d="
M48 15.7188
Q48 8.25 41.8125 3.46875
Q35.6406 -1.3125 24.9531 -1.3125
Q18.8906 -1.3125 13.8438 0.125
Q8.79688 1.5625 5.375 3.26562
L5.375 13.5781
L5.85938 13.5781
Q10.2031 10.2969 15.5156 8.375
Q20.8438 6.45312 25.7344 6.45312
Q31.7812 6.45312 35.2031 8.40625
Q38.625 10.3594 38.625 14.5469
Q38.625 17.7812 36.7656 19.4375
Q34.9062 21.0938 29.6406 22.2656
Q27.6875 22.7031 24.5312 23.2812
Q21.3906 23.875 18.7969 24.5625
Q11.625 26.4688 8.60938 30.1562
Q5.60938 33.8438 5.60938 39.2031
Q5.60938 42.5781 7 45.5469
Q8.40625 48.5312 11.2344 50.875
Q13.9688 53.1719 18.1875 54.5156
Q22.4062 55.8594 27.6406 55.8594
Q32.5156 55.8594 37.5156 54.6562
Q42.5312 53.4688 45.8438 51.7656
L45.8438 41.9375
L45.3594 41.9375
Q41.8438 44.5312 36.8125 46.3125
Q31.7812 48.0938 26.9531 48.0938
Q21.9219 48.0938 18.4531 46.1562
Q14.9844 44.2344 14.9844 40.4375
Q14.9844 37.0625 17.0938 35.3594
Q19.1406 33.6406 23.7344 32.5625
Q26.2656 31.9844 29.4062 31.3906
Q32.5625 30.8125 34.6719 30.3281
Q41.0625 28.8594 44.5312 25.2969
Q48 21.6875 48 15.7188" id="Verdana-73"/>
      <path d="
M38.375 67.0938
L37.8906 67.0938
Q36.375 67.5312 33.9375 67.9844
Q31.5 68.4531 29.6406 68.4531
Q23.7344 68.4531 21.0625 65.8438
Q18.4062 63.2344 18.4062 56.3906
L18.4062 54.5469
L34.9688 54.5469
L34.9688 46.8281
L18.7031 46.8281
L18.7031 0
L9.51562 0
L9.51562 46.8281
L3.32812 46.8281
L3.32812 54.5469
L9.51562 54.5469
L9.51562 56.3438
Q9.51562 66.0625 14.3438 71.2656
Q19.1875 76.4688 28.3281 76.4688
Q31.3906 76.4688 33.8594 76.1719
Q36.3281 75.875 38.375 75.4844
z
" id="Verdana-66"/>
      <path id="Verdana-20"/>
      <path d="
M63.9688 64.3594
Q68.4062 59.4688 70.7656 52.3906
Q73.1406 45.3125 73.1406 36.3281
Q73.1406 27.3438 70.7188 20.2344
Q68.3125 13.1406 63.9688 8.40625
Q59.4688 3.46875 53.3438 0.96875
Q47.2188 -1.51562 39.3594 -1.51562
Q31.6875 -1.51562 25.4062 1.01562
Q19.1406 3.5625 14.75 8.40625
Q10.3594 13.2344 7.98438 20.2656
Q5.60938 27.2969 5.60938 36.3281
Q5.60938 45.2188 7.95312 52.2656
Q10.2969 59.3281 14.7969 64.3594
Q19.0938 69.1406 25.4688 71.6719
Q31.8438 74.2188 39.3594 74.2188
Q47.1719 74.2188 53.3906 71.6562
Q59.625 69.0938 63.9688 64.3594
M63.0938 36.3281
Q63.0938 50.4844 56.7344 58.1719
Q50.3906 65.875 39.4062 65.875
Q28.3281 65.875 22 58.1719
Q15.6719 50.4844 15.6719 36.3281
Q15.6719 22.0156 22.1094 14.4219
Q28.5625 6.84375 39.4062 6.84375
Q50.25 6.84375 56.6719 14.4219
Q63.0938 22.0156 63.0938 36.3281" id="Verdana-4f"/>
      <path d="
M55.5156 27.25
Q55.5156 13.9219 48.6719 6.20312
Q41.8438 -1.51562 30.375 -1.51562
Q18.7969 -1.51562 11.9844 6.20312
Q5.17188 13.9219 5.17188 27.25
Q5.17188 40.5781 11.9844 48.3125
Q18.7969 56.0625 30.375 56.0625
Q41.8438 56.0625 48.6719 48.3125
Q55.5156 40.5781 55.5156 27.25
M46.0469 27.25
Q46.0469 37.8438 41.8906 42.9844
Q37.75 48.1406 30.375 48.1406
Q22.9062 48.1406 18.7812 42.9844
Q14.6562 37.8438 14.6562 27.25
Q14.6562 17 18.7969 11.6875
Q22.9531 6.39062 30.375 6.39062
Q37.7031 6.39062 41.875 11.6406
Q46.0469 16.8906 46.0469 27.25" id="Verdana-6f"/>
      <path d="
M37.3594 0.484375
Q34.7656 -0.203125 31.7031 -0.640625
Q28.6562 -1.07812 26.2656 -1.07812
Q17.9219 -1.07812 13.5781 3.40625
Q9.23438 7.90625 9.23438 17.8281
L9.23438 46.8281
L3.03125 46.8281
L3.03125 54.5469
L9.23438 54.5469
L9.23438 70.2188
L18.4062 70.2188
L18.4062 54.5469
L37.3594 54.5469
L37.3594 46.8281
L18.4062 46.8281
L18.4062 21.9688
Q18.4062 17.6719 18.5938 15.25
Q18.7969 12.8438 19.9688 10.75
Q21.0469 8.79688 22.9219 7.89062
Q24.8125 6.98438 28.6562 6.98438
Q30.9062 6.98438 33.3438 7.64062
Q35.7969 8.29688 36.8594 8.73438
L37.3594 8.73438
z
" id="Verdana-74"/>
      <path d="
M54.25 0
L45.0625 0
L45.0625 6.0625
Q40.4375 2.39062 36.1875 0.4375
Q31.9375 -1.51562 26.8125 -1.51562
Q18.2188 -1.51562 13.4219 3.73438
Q8.64062 8.98438 8.64062 19.1406
L8.64062 54.5469
L17.8281 54.5469
L17.8281 23.4844
Q17.8281 19.3438 18.2188 16.375
Q18.6094 13.4219 19.875 11.3281
Q21.1875 9.1875 23.2812 8.20312
Q25.3906 7.23438 29.3906 7.23438
Q32.9531 7.23438 37.1719 9.07812
Q41.4062 10.9375 45.0625 13.8125
L45.0625 54.5469
L54.25 54.5469
z
" id="Verdana-75"/>
     </defs>
     <g transform="translate(206.5078125 418.509375)scale(0.12 -0.12)">
      <use xlink:href="#Verdana-4f"/>
      <use x="78.7109375" xlink:href="#Verdana-62"/>
      <use x="141.015625" xlink:href="#Verdana-6a"/>
      <use x="175.439453125" xlink:href="#Verdana-65"/>
      <use x="235.009765625" xlink:href="#Verdana-63"/>
      <use x="287.109375" xlink:href="#Verdana-74"/>
      <use x="326.513671875" xlink:href="#Verdana-69"/>
      <use x="353.955078125" xlink:href="#Verdana-76"/>
      <use x="412.259765625" xlink:href="#Verdana-65"/>
      <use x="471.830078125" xlink:href="#Verdana-20"/>
      <use x="506.986328125" xlink:href="#Verdana-66"/>
      <use x="542.142578125" xlink:href="#Verdana-75"/>
      <use x="605.423828125" xlink:href="#Verdana-6e"/>
      <use x="668.705078125" xlink:href="#Verdana-63"/>
      <use x="720.8046875" xlink:href="#Verdana-74"/>
      <use x="760.208984375" xlink:href="#Verdana-69"/>
      <use x="787.650390625" xlink:href="#Verdana-6f"/>
      <use x="848.34375" xlink:href="#Verdana-6e"/>
      <use x="911.625" xlink:href="#Verdana-20"/>
      <use x="946.78125" xlink:href="#Verdana-65"/>
      <use x="1006.3515625" xlink:href="#Verdana-78"/>
      <use x="1064.40625" xlink:href="#Verdana-65"/>
      <use x="1123.9765625" xlink:href="#Verdana-63"/>
      <use x="1176.076171875" xlink:href="#Verdana-74"/>
      <use x="1215.48046875" xlink:href="#Verdana-75"/>
      <use x="1278.76171875" xlink:href="#Verdana-69"/>
      <use x="1306.203125" xlink:href="#Verdana-6f"/>
      <use x="1366.896484375" xlink:href="#Verdana-6e"/>
      <use x="1430.177734375" xlink:href="#Verdana-73"/>
     </g>
    </g>
   </g>
   <g id="matplotlib.axis_2">
    <g id="ytick_1">
     <g id="line2d_18">
      <defs>
       <path d="
M0 0
L4 0" id="md7965d1ba0" style="stroke:#000000;stroke-width:0.5;"/>
      </defs>
      <g>
       <use style="stroke:#000000;stroke-width:0.5;" x="72.0" xlink:href="#md7965d1ba0" y="388.8"/>
      </g>
     </g>
     <g id="line2d_19">
      <defs>
       <path d="
M0 0
L-4 0" id="md9a1c1a7cd" style="stroke:#000000;stroke-width:0.5;"/>
      </defs>
      <g>
       <use style="stroke:#000000;stroke-width:0.5;" x="518.4" xlink:href="#md9a1c1a7cd" y="388.8"/>
      </g>
     </g>
     <g id="text_8">
      <!-- 0 -->
      <g transform="translate(61.964375 392.1515625)scale(0.12 -0.12)">
       <use xlink:href="#Verdana-30"/>
      </g>
     </g>
    </g>
    <g id="ytick_2">
     <g id="line2d_20">
      <g>
       <use style="stroke:#000000;stroke-width:0.5;" x="72.0" xlink:href="#md7965d1ba0" y="339.428571429"/>
      </g>
     </g>
     <g id="line2d_21">
      <g>
       <use style="stroke:#000000;stroke-width:0.5;" x="518.4" xlink:href="#md9a1c1a7cd" y="339.428571429"/>
      </g>
     </g>
     <g id="text_9">
      <!-- 100 -->
      <g transform="translate(47.5325 342.780133929)scale(0.12 -0.12)">
       <use xlink:href="#Verdana-31"/>
       <use x="63.57421875" xlink:href="#Verdana-30"/>
       <use x="127.1484375" xlink:href="#Verdana-30"/>
      </g>
     </g>
    </g>
    <g id="ytick_3">
     <g id="line2d_22">
      <g>
       <use style="stroke:#000000;stroke-width:0.5;" x="72.0" xlink:href="#md7965d1ba0" y="290.057142857"/>
      </g>
     </g>
     <g id="line2d_23">
      <g>
       <use style="stroke:#000000;stroke-width:0.5;" x="518.4" xlink:href="#md9a1c1a7cd" y="290.057142857"/>
      </g>
     </g>
     <g id="text_10">
      <!-- 200 -->
      <g transform="translate(46.84625 293.408705357)scale(0.12 -0.12)">
       <use xlink:href="#Verdana-32"/>
       <use x="63.57421875" xlink:href="#Verdana-30"/>
       <use x="127.1484375" xlink:href="#Verdana-30"/>
      </g>
     </g>
    </g>
    <g id="ytick_4">
     <g id="line2d_24">
      <g>
       <use style="stroke:#000000;stroke-width:0.5;" x="72.0" xlink:href="#md7965d1ba0" y="240.685714286"/>
      </g>
     </g>
     <g id="line2d_25">
      <g>
       <use style="stroke:#000000;stroke-width:0.5;" x="518.4" xlink:href="#md9a1c1a7cd" y="240.685714286"/>
      </g>
     </g>
     <g id="text_11">
      <!-- 300 -->
      <g transform="translate(46.881875 244.037276786)scale(0.12 -0.12)">
       <use xlink:href="#Verdana-33"/>
       <use x="63.57421875" xlink:href="#Verdana-30"/>
       <use x="127.1484375" xlink:href="#Verdana-30"/>
      </g>
     </g>
    </g>
    <g id="ytick_5">
     <g id="line2d_26">
      <g>
       <use style="stroke:#000000;stroke-width:0.5;" x="72.0" xlink:href="#md7965d1ba0" y="191.314285714"/>
      </g>
     </g>
     <g id="line2d_27">
      <g>
       <use style="stroke:#000000;stroke-width:0.5;" x="518.4" xlink:href="#md9a1c1a7cd" y="191.314285714"/>
      </g>
     </g>
     <g id="text_12">
      <!-- 400 -->
      <g transform="translate(46.355 194.665848214)scale(0.12 -0.12)">
       <use xlink:href="#Verdana-34"/>
       <use x="63.57421875" xlink:href="#Verdana-30"/>
       <use x="127.1484375" xlink:href="#Verdana-30"/>
      </g>
     </g>
    </g>
    <g id="ytick_6">
     <g id="line2d_28">
      <g>
       <use style="stroke:#000000;stroke-width:0.5;" x="72.0" xlink:href="#md7965d1ba0" y="141.942857143"/>
      </g>
     </g>
     <g id="line2d_29">
      <g>
       <use style="stroke:#000000;stroke-width:0.5;" x="518.4" xlink:href="#md9a1c1a7cd" y="141.942857143"/>
      </g>
     </g>
     <g id="text_13">
      <!-- 500 -->
      <g transform="translate(46.998125 145.294419643)scale(0.12 -0.12)">
       <use xlink:href="#Verdana-35"/>
       <use x="63.57421875" xlink:href="#Verdana-30"/>
       <use x="127.1484375" xlink:href="#Verdana-30"/>
      </g>
     </g>
    </g>
    <g id="ytick_7">
     <g id="line2d_30">
      <g>
       <use style="stroke:#000000;stroke-width:0.5;" x="72.0" xlink:href="#md7965d1ba0" y="92.5714285714"/>
      </g>
     </g>
     <g id="line2d_31">
      <g>
       <use style="stroke:#000000;stroke-width:0.5;" x="518.4" xlink:href="#md9a1c1a7cd" y="92.5714285714"/>
      </g>
     </g>
     <g id="text_14">
      <!-- 600 -->
      <defs>
       <path d="
M58.1562 23.5781
Q58.1562 12.5 50.8594 5.48438
Q43.5625 -1.51562 32.9531 -1.51562
Q27.5938 -1.51562 23.1875 0.140625
Q18.7969 1.8125 15.4375 5.07812
Q11.2344 9.125 8.95312 15.8125
Q6.6875 22.5156 6.6875 31.9375
Q6.6875 41.6094 8.76562 49.0781
Q10.8438 56.5469 15.375 62.3594
Q19.6719 67.875 26.4531 70.9688
Q33.25 74.0781 42.2812 74.0781
Q45.1719 74.0781 47.125 73.8281
Q49.0781 73.5781 51.0781 72.9531
L51.0781 63.625
L50.5938 63.625
Q49.2188 64.3594 46.4531 65.0156
Q43.7031 65.6719 40.8281 65.6719
Q30.3281 65.6719 24.0781 59.1094
Q17.8281 52.5469 16.7969 41.3594
Q20.9062 43.8438 24.875 45.1406
Q28.8594 46.4375 34.0781 46.4375
Q38.7188 46.4375 42.25 45.5781
Q45.7969 44.7344 49.5156 42.1406
Q53.8125 39.1562 55.9844 34.6094
Q58.1562 30.0781 58.1562 23.5781
M48.25 23.1875
Q48.25 27.7344 46.9062 30.7031
Q45.5625 33.6875 42.4844 35.8906
Q40.2344 37.4531 37.5 37.9375
Q34.7656 38.4219 31.7812 38.4219
Q27.6406 38.4219 24.0781 37.4375
Q20.5156 36.4688 16.75 34.4219
Q16.6562 33.3438 16.5938 32.3438
Q16.5469 31.3438 16.5469 29.8281
Q16.5469 22.125 18.1406 17.6562
Q19.7344 13.1875 22.5156 10.5938
Q24.75 8.45312 27.3594 7.45312
Q29.9844 6.45312 33.0625 6.45312
Q40.1406 6.45312 44.1875 10.7656
Q48.25 15.0938 48.25 23.1875" id="Verdana-36"/>
      </defs>
      <g transform="translate(46.705625 95.9229910714)scale(0.12 -0.12)">
       <use xlink:href="#Verdana-36"/>
       <use x="63.57421875" xlink:href="#Verdana-30"/>
       <use x="127.1484375" xlink:href="#Verdana-30"/>
      </g>
     </g>
    </g>
    <g id="ytick_8">
     <g id="line2d_32">
      <g>
       <use style="stroke:#000000;stroke-width:0.5;" x="72.0" xlink:href="#md7965d1ba0" y="43.2"/>
      </g>
     </g>
     <g id="line2d_33">
      <g>
       <use style="stroke:#000000;stroke-width:0.5;" x="518.4" xlink:href="#md9a1c1a7cd" y="43.2"/>
      </g>
     </g>
     <g id="text_15">
      <!-- 700 -->
      <defs>
       <path d="
M57.2812 61.8125
L24.3594 0
L13.9219 0
L48.9219 64.1562
L7.51562 64.1562
L7.51562 72.7031
L57.2812 72.7031
z
" id="Verdana-37"/>
      </defs>
      <g transform="translate(46.805 46.5515625)scale(0.12 -0.12)">
       <use xlink:href="#Verdana-37"/>
       <use x="63.57421875" xlink:href="#Verdana-30"/>
       <use x="127.1484375" xlink:href="#Verdana-30"/>
      </g>
     </g>
    </g>
    <g id="text_16">
     <!-- Standard Deviation -->
     <defs>
      <path d="
M51.4219 0
L42.2812 0
L42.2812 5.8125
Q41.0625 4.98438 38.9844 3.48438
Q36.9219 2 34.9688 1.125
Q32.6719 0 29.6875 -0.75
Q26.7031 -1.51562 22.7031 -1.51562
Q15.3281 -1.51562 10.2031 3.35938
Q5.07812 8.25 5.07812 15.8281
Q5.07812 22.0156 7.73438 25.8438
Q10.4062 29.6875 15.3281 31.8906
Q20.3125 34.0781 27.2969 34.8594
Q34.2812 35.6406 42.2812 36.0312
L42.2812 37.4531
Q42.2812 40.5781 41.1875 42.625
Q40.0938 44.6719 38.0312 45.8438
Q36.0781 46.9688 33.3438 47.3594
Q30.6094 47.75 27.6406 47.75
Q24.0312 47.75 19.5781 46.7969
Q15.1406 45.8438 10.4062 44.0469
L9.90625 44.0469
L9.90625 53.375
Q12.5938 54.1094 17.6719 54.9844
Q22.75 55.8594 27.6875 55.8594
Q33.4531 55.8594 37.7188 54.9062
Q42 53.9531 45.125 51.6562
Q48.1875 49.4219 49.7969 45.8438
Q51.4219 42.2812 51.4219 37.0156
z

M42.2812 13.4219
L42.2812 28.6094
Q38.0938 28.375 32.3906 27.875
Q26.7031 27.3906 23.3906 26.4688
Q19.4375 25.3438 16.9844 22.9688
Q14.5469 20.6094 14.5469 16.4531
Q14.5469 11.7656 17.375 9.39062
Q20.2188 7.03125 26.0312 7.03125
Q30.8594 7.03125 34.8594 8.90625
Q38.875 10.7969 42.2812 13.4219" id="Verdana-61"/>
      <path d="
M71.1875 36.2812
Q71.1875 26.375 66.8594 18.3125
Q62.5469 10.25 55.375 5.8125
Q50.3906 2.73438 44.2656 1.35938
Q38.1406 0 28.125 0
L9.76562 0
L9.76562 72.7031
L27.9375 72.7031
Q38.5781 72.7031 44.8438 71.1562
Q51.125 69.625 55.4688 66.9375
Q62.8906 62.3125 67.0312 54.5938
Q71.1875 46.875 71.1875 36.2812
M61.0781 36.4219
Q61.0781 44.9688 58.0938 50.8281
Q55.125 56.6875 49.2188 60.0625
Q44.9219 62.5 40.0781 63.4531
Q35.25 64.4062 28.5156 64.4062
L19.4375 64.4062
L19.4375 8.29688
L28.5156 8.29688
Q35.5 8.29688 40.7031 9.32812
Q45.9062 10.3594 50.25 13.1406
Q55.6719 16.6094 58.375 22.2656
Q61.0781 27.9375 61.0781 36.4219" id="Verdana-44"/>
      <path d="
M43.0625 44.5312
L42.5781 44.5312
Q40.5312 45.0156 38.5938 45.2344
Q36.6719 45.4531 34.0312 45.4531
Q29.7812 45.4531 25.8281 43.5781
Q21.875 41.7031 18.2188 38.7188
L18.2188 0
L9.03125 0
L9.03125 54.5469
L18.2188 54.5469
L18.2188 46.4844
Q23.6875 50.875 27.8594 52.7031
Q32.0312 54.5469 36.375 54.5469
Q38.7656 54.5469 39.8438 54.4219
Q40.9219 54.2969 43.0625 53.9531
z
" id="Verdana-72"/>
      <path d="
M62.5938 20.75
Q62.5938 16.5 60.6094 12.3438
Q58.6406 8.20312 55.0781 5.32812
Q51.1719 2.20312 45.9688 0.4375
Q40.7656 -1.3125 33.4531 -1.3125
Q25.5938 -1.3125 19.3125 0.140625
Q13.0312 1.60938 6.54688 4.5
L6.54688 16.6094
L7.23438 16.6094
Q12.75 12.0156 19.9688 9.51562
Q27.2031 7.03125 33.5469 7.03125
Q42.5312 7.03125 47.5312 10.3906
Q52.5469 13.7656 52.5469 19.3906
Q52.5469 24.2188 50.1719 26.5156
Q47.7969 28.8125 42.9688 30.0781
Q39.3125 31.0625 35.0312 31.6875
Q30.7656 32.3281 25.9844 33.2969
Q16.3125 35.3594 11.6406 40.3125
Q6.98438 45.2656 6.98438 53.2188
Q6.98438 62.3594 14.6875 68.1875
Q22.4062 74.0312 34.2812 74.0312
Q41.9375 74.0312 48.3281 72.5625
Q54.7344 71.0938 59.6719 68.9531
L59.6719 57.5156
L58.9844 57.5156
Q54.8281 61.0312 48.0625 63.3438
Q41.3125 65.6719 34.2344 65.6719
Q26.4688 65.6719 21.75 62.4531
Q17.0469 59.2344 17.0469 54.1562
Q17.0469 49.6094 19.3906 47.0156
Q21.7344 44.4375 27.6406 43.0625
Q30.7656 42.3906 36.5156 41.4062
Q42.2812 40.4375 46.2969 39.4062
Q54.3906 37.25 58.4844 32.9062
Q62.5938 28.5625 62.5938 20.75" id="Verdana-53"/>
      <path d="
M53.2656 0
L44.0938 0
L44.0938 5.71875
Q40.1406 2.29688 35.8438 0.390625
Q31.5469 -1.51562 26.5156 -1.51562
Q16.75 -1.51562 11.0156 6
Q5.28125 13.5312 5.28125 26.8594
Q5.28125 33.7969 7.25 39.2031
Q9.23438 44.625 12.5938 48.4375
Q15.9219 52.1562 20.3281 54.1094
Q24.75 56.0625 29.5 56.0625
Q33.7969 56.0625 37.1094 55.1562
Q40.4375 54.25 44.0938 52.3438
L44.0938 75.9844
L53.2656 75.9844
z

M44.0938 13.4219
L44.0938 44.7344
Q40.375 46.3906 37.4375 47.0156
Q34.5156 47.6562 31.0625 47.6562
Q23.3438 47.6562 19.0469 42.2812
Q14.75 36.9219 14.75 27.0469
Q14.75 17.3281 18.0625 12.2812
Q21.3906 7.23438 28.7188 7.23438
Q32.625 7.23438 36.625 8.95312
Q40.625 10.6875 44.0938 13.4219" id="Verdana-64"/>
     </defs>
     <g transform="translate(38.94 273.5465625)rotate(-90.0)scale(0.12 -0.12)">
      <use xlink:href="#Verdana-53"/>
      <use x="68.359375" xlink:href="#Verdana-74"/>
      <use x="107.763671875" xlink:href="#Verdana-61"/>
      <use x="167.822265625" xlink:href="#Verdana-6e"/>
      <use x="231.103515625" xlink:href="#Verdana-64"/>
      <use x="293.408203125" xlink:href="#Verdana-61"/>
      <use x="353.466796875" xlink:href="#Verdana-72"/>
      <use x="396.142578125" xlink:href="#Verdana-64"/>
      <use x="458.447265625" xlink:href="#Verdana-20"/>
      <use x="493.603515625" xlink:href="#Verdana-44"/>
      <use x="570.654296875" xlink:href="#Verdana-65"/>
      <use x="630.224609375" xlink:href="#Verdana-76"/>
      <use x="689.404296875" xlink:href="#Verdana-69"/>
      <use x="716.845703125" xlink:href="#Verdana-61"/>
      <use x="776.904296875" xlink:href="#Verdana-74"/>
      <use x="816.30859375" xlink:href="#Verdana-69"/>
      <use x="843.75" xlink:href="#Verdana-6f"/>
      <use x="904.443359375" xlink:href="#Verdana-6e"/>
     </g>
    </g>
   </g>
   <g id="patch_3">
    <path d="
M72 43.2
L518.4 43.2" style="fill:none;stroke:#000000;"/>
   </g>
   <g id="patch_4">
    <path d="
M72 388.8
L72 43.2" style="fill:none;stroke:#000000;"/>
   </g>
   <g id="patch_5">
    <path d="
M518.4 388.8
L518.4 43.2" style="fill:none;stroke:#000000;"/>
   </g>
   <g id="patch_6">
    <path d="
M72 388.8
L518.4 388.8" style="fill:none;stroke:#000000;"/>
   </g>
   <g id="text_17">
    <!-- NeedleEye Standard Deviation -->
    <defs>
     <path d="
M65.2344 0
L53.2656 0
L18.7969 65.0469
L18.7969 0
L9.76562 0
L9.76562 72.7031
L24.75 72.7031
L56.2031 13.3281
L56.2031 72.7031
L65.2344 72.7031
z
" id="Verdana-4e"/>
     <path d="
M18.3125 0
L9.125 0
L9.125 75.9844
L18.3125 75.9844
z
" id="Verdana-6c"/>
     <path d="
M57.6719 0
L9.76562 0
L9.76562 72.7031
L57.6719 72.7031
L57.6719 64.1094
L19.4375 64.1094
L19.4375 44.1875
L57.6719 44.1875
L57.6719 35.5938
L19.4375 35.5938
L19.4375 8.59375
L57.6719 8.59375
z
" id="Verdana-45"/>
     <path d="
M56.2031 54.5469
L24.3594 -20.125
L14.5469 -20.125
L24.7031 2.64062
L2.98438 54.5469
L12.9375 54.5469
L29.6875 14.1094
L46.5781 54.5469
z
" id="Verdana-79"/>
    </defs>
    <g transform="translate(185.8545 38.2)scale(0.144 -0.144)">
     <use xlink:href="#Verdana-4e"/>
     <use x="74.8046875" xlink:href="#Verdana-65"/>
     <use x="134.375" xlink:href="#Verdana-65"/>
     <use x="193.9453125" xlink:href="#Verdana-64"/>
     <use x="256.25" xlink:href="#Verdana-6c"/>
     <use x="283.69140625" xlink:href="#Verdana-65"/>
     <use x="343.26171875" xlink:href="#Verdana-45"/>
     <use x="406.494140625" xlink:href="#Verdana-79"/>
     <use x="464.798828125" xlink:href="#Verdana-65"/>
     <use x="524.369140625" xlink:href="#Verdana-20"/>
     <use x="559.525390625" xlink:href="#Verdana-53"/>
     <use x="627.884765625" xlink:href="#Verdana-74"/>
     <use x="667.2890625" xlink:href="#Verdana-61"/>
     <use x="727.34765625" xlink:href="#Verdana-6e"/>
     <use x="790.62890625" xlink:href="#Verdana-64"/>
     <use x="852.93359375" xlink:href="#Verdana-61"/>
     <use x="912.9921875" xlink:href="#Verdana-72"/>
     <use x="955.66796875" xlink:href="#Verdana-64"/>
     <use x="1017.97265625" xlink:href="#Verdana-20"/>
     <use x="1053.12890625" xlink:href="#Verdana-44"/>
     <use x="1130.1796875" xlink:href="#Verdana-65"/>
     <use x="1189.75" xlink:href="#Verdana-76"/>
     <use x="1248.9296875" xlink:href="#Verdana-69"/>
     <use x="1276.37109375" xlink:href="#Verdana-61"/>
     <use x="1336.4296875" xlink:href="#Verdana-74"/>
     <use x="1375.833984375" xlink:href="#Verdana-69"/>
     <use x="1403.275390625" xlink:href="#Verdana-6f"/>
     <use x="1463.96875" xlink:href="#Verdana-6e"/>
    </g>
   </g>
   <g id="legend_1">
    <g id="patch_7">
     <path d="
M79.2 159.919
L183.22 159.919
L183.22 50.4
L79.2 50.4
L79.2 159.919
z
" style="fill:#ffffff;stroke:#000000;"/>
    </g>
    <g id="line2d_34">
     <path d="
M89.28 62.0617
L109.44 62.0617" style="fill:none;stroke:#0000ff;stroke-dasharray:6.000000,2.000000;stroke-dashoffset:0.0;"/>
    </g>
    <g id="line2d_35"/>
    <g id="text_18">
     <!-- AMPGO -->
     <defs>
      <path d="
M74.5156 0
L64.8438 0
L64.8438 62.6406
L44.625 20.0156
L38.875 20.0156
L18.7969 62.6406
L18.7969 0
L9.76562 0
L9.76562 72.7031
L22.9531 72.7031
L42.3281 32.2344
L61.0781 72.7031
L74.5156 72.7031
z
" id="Verdana-4d"/>
      <path d="
M57.3281 50.7344
Q57.3281 45.9062 55.6406 41.7656
Q53.9531 37.6406 50.9219 34.625
Q47.1719 30.8594 42.0469 28.9688
Q36.9219 27.0938 29.1094 27.0938
L19.4375 27.0938
L19.4375 0
L9.76562 0
L9.76562 72.7031
L29.5 72.7031
Q36.0312 72.7031 40.5781 71.6094
Q45.125 70.5156 48.6406 68.1719
Q52.7812 65.375 55.0469 61.2188
Q57.3281 57.0781 57.3281 50.7344
M47.2656 50.4844
Q47.2656 54.25 45.9375 57.0312
Q44.625 59.8125 41.9375 61.5781
Q39.5938 63.0938 36.5938 63.75
Q33.5938 64.4062 29 64.4062
L19.4375 64.4062
L19.4375 35.3594
L27.5938 35.3594
Q33.4531 35.3594 37.1094 36.4062
Q40.7656 37.4531 43.0625 39.75
Q45.3594 42.0938 46.3125 44.6719
Q47.2656 47.2656 47.2656 50.4844" id="Verdana-50"/>
      <path d="
M70.4062 5.375
Q64.4531 2.64062 57.3906 0.609375
Q50.3438 -1.42188 43.75 -1.42188
Q35.25 -1.42188 28.1719 0.921875
Q21.0938 3.26562 16.1094 7.95312
Q11.0781 12.7031 8.34375 19.7969
Q5.60938 26.9062 5.60938 36.4219
Q5.60938 53.8594 15.7969 63.9375
Q25.9844 74.0312 43.75 74.0312
Q49.9531 74.0312 56.4219 72.5312
Q62.8906 71.0469 70.3594 67.4844
L70.3594 56
L69.4844 56
Q67.9688 57.1719 65.0781 59.0781
Q62.2031 60.9844 59.4219 62.25
Q56.0625 63.7656 51.7812 64.7656
Q47.5156 65.7656 42.0938 65.7656
Q29.8906 65.7656 22.7812 57.9219
Q15.6719 50.0938 15.6719 36.7188
Q15.6719 22.6094 23.0938 14.7656
Q30.5156 6.9375 43.3125 6.9375
Q48 6.9375 52.6562 7.85938
Q57.3281 8.79688 60.8438 10.25
L60.8438 28.0781
L41.3594 28.0781
L41.3594 36.5781
L70.4062 36.5781
z
" id="Verdana-47"/>
      <path d="
M67.0938 0
L56.7812 0
L49.6562 20.2656
L18.2188 20.2656
L11.0781 0
L1.26562 0
L27.7344 72.7031
L40.625 72.7031
z

M46.6875 28.5625
L33.9375 64.2656
L21.1406 28.5625
z
" id="Verdana-41"/>
     </defs>
     <g transform="translate(125.28 67.10175)scale(0.144 -0.144)">
      <use xlink:href="#Verdana-41"/>
      <use x="68.359375" xlink:href="#Verdana-4d"/>
      <use x="152.63671875" xlink:href="#Verdana-50"/>
      <use x="212.939453125" xlink:href="#Verdana-47"/>
      <use x="290.478515625" xlink:href="#Verdana-4f"/>
     </g>
    </g>
    <g id="line2d_36">
     <path d="
M89.28 83.1015
L109.44 83.1015" style="fill:none;stroke:#008000;stroke-dasharray:1.000000,1.000000;stroke-dashoffset:0.0;"/>
    </g>
    <g id="line2d_37"/>
    <g id="text_19">
     <!-- Anneal -->
     <g transform="translate(125.28 88.1415)scale(0.144 -0.144)">
      <use xlink:href="#Verdana-41"/>
      <use x="68.359375" xlink:href="#Verdana-6e"/>
      <use x="131.640625" xlink:href="#Verdana-6e"/>
      <use x="194.921875" xlink:href="#Verdana-65"/>
      <use x="254.4921875" xlink:href="#Verdana-61"/>
      <use x="314.55078125" xlink:href="#Verdana-6c"/>
     </g>
    </g>
    <g id="line2d_38">
     <path d="
M89.28 104.141
L109.44 104.141" style="fill:none;stroke:#ff0000;stroke-dasharray:3.000000,6.000000;stroke-dashoffset:0.0;"/>
    </g>
    <g id="line2d_39"/>
    <g id="text_20">
     <!-- BSA -->
     <defs>
      <path d="
M64.5938 22.3594
Q64.5938 16.9375 62.5469 12.7812
Q60.5 8.64062 57.0312 5.95312
Q52.9375 2.73438 48.0156 1.35938
Q43.1094 0 35.5469 0
L9.76562 0
L9.76562 72.7031
L31.2969 72.7031
Q39.2656 72.7031 43.2188 72.1094
Q47.1719 71.5312 50.7812 69.6719
Q54.7812 67.5781 56.5938 64.2812
Q58.4062 60.9844 58.4062 56.3906
Q58.4062 51.2188 55.7656 47.5781
Q53.125 43.9531 48.7344 41.75
L48.7344 41.3594
Q56.1094 39.8438 60.3438 34.8906
Q64.5938 29.9375 64.5938 22.3594
M48.3438 55.125
Q48.3438 57.7656 47.4531 59.5625
Q46.5781 61.375 44.625 62.5
Q42.3281 63.8125 39.0625 64.125
Q35.7969 64.4531 30.9531 64.4531
L19.4375 64.4531
L19.4375 43.4531
L31.9375 43.4531
Q36.4688 43.4531 39.1562 43.9219
Q41.8438 44.3906 44.1406 45.8438
Q46.4375 47.3125 47.3906 49.625
Q48.3438 51.9531 48.3438 55.125
M54.5469 21.9688
Q54.5469 26.375 53.2188 28.9531
Q51.9062 31.5469 48.4375 33.3438
Q46.0938 34.5781 42.75 34.9375
Q39.4062 35.2969 34.625 35.2969
L19.4375 35.2969
L19.4375 8.25
L32.2344 8.25
Q38.5781 8.25 42.625 8.90625
Q46.6875 9.57812 49.2656 11.3281
Q52 13.2344 53.2656 15.6719
Q54.5469 18.1094 54.5469 21.9688" id="Verdana-42"/>
     </defs>
     <g transform="translate(125.28 109.18125)scale(0.144 -0.144)">
      <use xlink:href="#Verdana-42"/>
      <use x="68.5546875" xlink:href="#Verdana-53"/>
      <use x="135.9140625" xlink:href="#Verdana-41"/>
     </g>
    </g>
    <g id="line2d_40">
     <path d="
M89.28 125.181
L109.44 125.181" style="fill:none;stroke:#00bfbf;stroke-dasharray:5.000000,1.000000,2.000000,1.000000,5.000000,1.000000;stroke-dashoffset:0.0;"/>
    </g>
    <g id="line2d_41"/>
    <g id="text_21">
     <!-- Cuckoo -->
     <defs>
      <path d="
M58.5469 0
L46.4375 0
L24.5625 23.875
L18.6094 18.2188
L18.6094 0
L9.42188 0
L9.42188 75.9844
L18.6094 75.9844
L18.6094 27.25
L45.125 54.5469
L56.6875 54.5469
L31.3438 29.3438
z
" id="Verdana-6b"/>
      <path d="
M65.9219 5.28125
Q63.2344 4.10938 61.0625 3.07812
Q58.8906 2.04688 55.375 0.921875
Q52.3906 0 48.8906 -0.65625
Q45.4062 -1.3125 41.2188 -1.3125
Q33.2969 -1.3125 26.8281 0.90625
Q20.3594 3.125 15.5781 7.85938
Q10.8906 12.5 8.25 19.6562
Q5.60938 26.8125 5.60938 36.2812
Q5.60938 45.2656 8.14062 52.3438
Q10.6875 59.4219 15.4844 64.3125
Q20.125 69.0469 26.6875 71.5312
Q33.25 74.0312 41.2656 74.0312
Q47.125 74.0312 52.9531 72.6094
Q58.7969 71.1875 65.9219 67.625
L65.9219 56.1562
L65.1875 56.1562
Q59.1875 61.1875 53.2656 63.4688
Q47.3594 65.7656 40.625 65.7656
Q35.1094 65.7656 30.6875 63.9844
Q26.2656 62.2031 22.7969 58.4531
Q19.4375 54.7812 17.5469 49.1875
Q15.6719 43.6094 15.6719 36.2812
Q15.6719 28.6094 17.75 23.0938
Q19.8281 17.5781 23.0938 14.1094
Q26.5156 10.5 31.0781 8.76562
Q35.6406 7.03125 40.7188 7.03125
Q47.7031 7.03125 53.7969 9.42188
Q59.9062 11.8125 65.2344 16.6094
L65.9219 16.6094
z
" id="Verdana-43"/>
     </defs>
     <g transform="translate(125.28 130.221)scale(0.144 -0.144)">
      <use xlink:href="#Verdana-43"/>
      <use x="69.82421875" xlink:href="#Verdana-75"/>
      <use x="133.10546875" xlink:href="#Verdana-63"/>
      <use x="185.205078125" xlink:href="#Verdana-6b"/>
      <use x="243.384765625" xlink:href="#Verdana-6f"/>
      <use x="304.078125" xlink:href="#Verdana-6f"/>
     </g>
    </g>
    <g id="line2d_42">
     <path d="
M89.28 146.221
L109.44 146.221" style="fill:none;stroke:#bf00bf;stroke-linecap:square;"/>
    </g>
    <g id="line2d_43"/>
    <g id="text_22">
     <!-- qABC -->
     <defs>
      <path d="
M53.2656 -20.125
L44.0938 -20.125
L44.0938 6.15625
Q39.8438 2.48438 35.6406 0.703125
Q31.4531 -1.07812 26.5625 -1.07812
Q16.8438 -1.07812 11.0625 6.42188
Q5.28125 13.9219 5.28125 27.0938
Q5.28125 34.125 7.29688 39.5156
Q9.32812 44.9219 12.6406 48.5781
Q15.875 52.1562 20.2188 54.1094
Q24.5625 56.0625 29.3906 56.0625
Q33.7969 56.0625 37.1875 55.0781
Q40.5781 54.1094 44.0938 52.2031
L44.6719 54.5469
L53.2656 54.5469
z

M44.0938 13.875
L44.0938 44.7344
Q40.2812 46.4375 37.3438 47.1094
Q34.4219 47.7969 31 47.7969
Q23.0469 47.7969 18.8906 42.4062
Q14.75 37.0156 14.75 27.5469
Q14.75 17.9688 18.0938 12.8125
Q21.4375 7.67188 28.6094 7.67188
Q32.625 7.67188 36.625 9.40625
Q40.625 11.1406 44.0938 13.875" id="Verdana-71"/>
     </defs>
     <g transform="translate(125.28 151.26075)scale(0.144 -0.144)">
      <use xlink:href="#Verdana-71"/>
      <use x="62.3046875" xlink:href="#Verdana-41"/>
      <use x="130.6640625" xlink:href="#Verdana-42"/>
      <use x="199.21875" xlink:href="#Verdana-43"/>
     </g>
    </g>
   </g>
  </g>
 </g>
 <defs>
  <clipPath id="p7ff5b81e1d">
   <rect height="345.6" width="446.4" x="72.0" y="43.2"/>
  </clipPath>
 </defs>
</svg>
