<?xml version="1.0" encoding="utf-8" standalone="no"?>
<!DOCTYPE svg PUBLIC "-//W3C//DTD SVG 1.1//EN"
  "http://www.w3.org/Graphics/SVG/1.1/DTD/svg11.dtd">
<!-- Created with matplotlib (http://matplotlib.org/) -->
<svg height="432pt" version="1.1" viewBox="0 0 576 432" width="576pt" xmlns="http://www.w3.org/2000/svg" xmlns:xlink="http://www.w3.org/1999/xlink">
 <defs>
  <style type="text/css">
*{stroke-linecap:butt;stroke-linejoin:round;}
  </style>
 </defs>
 <g id="figure_1">
  <g id="patch_1">
   <path d="
M0 432
L576 432
L576 0
L0 0
z
" style="fill:#ffffff;"/>
  </g>
  <g id="axes_1">
   <g id="patch_2">
    <path d="
M72 388.8
L518.4 388.8
L518.4 43.2
L72 43.2
z
" style="fill:#ffffff;"/>
   </g>
   <g id="line2d_1">
    <path clip-path="url(#p7ff5b81e1d)" d="
M72 386.064
L72.0893 388.795
L72.1786 388.795
L72.2678 388.795
L72.4464 386.083
L72.7142 386.095
L72.8928 388.8
L73.1606 388.8
L73.3392 388.41
L73.4285 388.8
L73.607 387.979
L73.7856 387.426
L74.857 387.429
L75.0355 47.9972
L75.1248 47.9972
L75.3034 387.429
L75.4819 388.8
L76.3747 388.8
L76.5533 387.716
L77.2675 387.716
L77.4461 387.45
L78.3389 387.45
L78.5174 387.716
L79.4995 387.718
L79.6781 388.324
L79.8566 387.726
L80.6602 387.728
L80.8387 387.472
L83.6957 387.478
L83.785 388.217
L83.9635 387.48
L94.4093 387.453
L94.5878 388.8
L94.945 388.8
L95.1235 387.453
L101.552 387.459
L101.73 388.8
L101.82 388.8
L101.998 387.459
L104.498 387.461
L104.676 388.8
L105.301 388.8
L105.391 387.469
L105.569 388.8
L105.748 387.469
L111.819 387.467
L111.908 388.8
L112.087 387.469
L144.495 387.486
L144.674 388.8
L144.942 388.8
L145.12 387.486
L147.084 387.488
L147.263 388.8
L147.352 388.8
L147.531 387.491
L147.709 388.768
L157.709 388.767
L157.887 387.461
L162.976 387.469
L163.155 388.592
L165.744 388.592
L165.923 387.475
L176.19 387.48
L176.368 388.767
L176.993 388.751
L190.207 388.755
L190.385 386.861
L200.742 386.861
L200.92 388.8
L202.081 388.8
L202.26 386.865
L208.777 386.894
L208.956 388.8
L225.829 388.8
L226.008 386.97
L229.579 386.983
L229.758 388.515
L240.382 388.525
L240.561 388.8
L240.739 388.526
L247.346 388.532
L247.524 388.8
L247.703 387.092
L252.703 387.056
L252.881 388.526
L254.845 388.528
L255.024 388.8
L255.113 388.8
L255.292 388.529
L264.666 388.55
L264.845 387.213
L265.559 387.225
L265.738 388.8
L265.916 388.8
L266.095 387.229
L267.88 387.237
L268.059 388.8
L272.255 388.8
L272.434 387.257
L279.219 387.306
L279.397 387.059
L279.576 387.063
L279.755 388.528
L282.433 388.529
L282.612 387.079
L283.772 387.087
L283.951 388.8
L287.254 388.8
L287.343 386.982
L287.433 386.99
L295.2 387.026
L295.289 92.5817
L295.468 387.026
L296.986 387.026
L297.164 112.133
L297.343 112.133
L297.432 93.2564
L297.521 93.9312
L298.057 93.9312
L298.325 95.2807
L298.593 95.2807
L298.682 387.042
L298.86 114.028
L300.468 114.028
L300.825 115.923
L301.271 115.923
L301.628 117.818
L301.807 117.818
L301.985 118.45
L304.485 118.45
L304.664 119.082
L305.378 119.082
L305.824 121.518
L307.788 121.518
L308.056 122.778
L308.235 122.778
L308.413 123.409
L308.949 123.409
L309.306 125.3
L311.628 125.3
L311.806 124.767
L311.895 124.767
L312.074 126.662
L312.252 127.925
L312.342 127.925
L312.52 342.689
L318.413 342.689
L318.591 119.713
L318.948 119.713
L319.127 120.345
L319.484 120.345
L319.663 120.977
L319.841 117.818
L320.198 119.713
L322.163 119.713
L322.341 120.345
L322.52 120.345
L322.698 120.977
L323.412 120.977
L323.591 121.608
L323.948 121.608
L324.127 122.148
L325.555 122.148
L325.734 121.518
L325.912 121.518
L326.091 122.148
L326.448 122.148
L326.627 123.409
L326.805 124.039
L326.894 124.039
L327.162 125.3
L327.341 124.67
L329.126 124.67
L329.573 127.191
L329.662 127.191
L330.108 129.713
L330.644 129.713
L330.912 130.973
L331.001 130.973
L331.18 131.604
L332.876 131.604
L333.055 132.234
L333.233 132.234
L333.412 132.865
L336.537 132.865
L336.804 134.125
L336.983 134.125
L337.162 134.756
L337.251 134.756
L337.429 135.386
L337.876 135.386
L338.054 136.017
L339.036 136.017
L339.215 136.647
L339.751 136.647
L339.929 138.538
L340.197 138.538
L340.376 388.8
L340.822 388.8
L340.911 139.168
L341.001 139.799
L342.965 139.799
L343.143 140.429
L343.411 140.429
L343.679 141.69
L343.768 141.69
L344.036 142.951
L344.215 163.753
L344.84 163.753
L345.197 165.645
L346.09 165.645
L346.357 166.905
L346.893 166.905
L347.072 142.32
L347.25 142.32
L347.429 142.951
L347.875 142.951
L348.143 144.212
L348.322 144.212
L348.589 145.472
L351 145.472
L351.089 146.103
L351.268 388.8
L352.25 388.8
L352.428 149.255
L354.036 149.255
L354.393 151.146
L354.66 151.146
L354.839 388.8
L355.018 388.8
L355.196 151.776
L356.268 151.776
L356.446 152.406
L357.964 152.406
L358.232 153.667
L358.589 153.667
L358.767 154.298
L358.946 154.298
L359.303 156.189
L360.91 156.189
L361.089 156.819
L361.267 156.819
L361.535 158.08
L362.16 158.08
L362.339 159.341
L362.517 159.341
L362.785 160.601
L362.874 160.601
L363.053 161.862
L364.928 161.862
L365.463 165.014
L365.553 165.014
L365.731 165.645
L365.91 165.645
L366.088 166.275
L366.178 166.275
L366.356 167.536
L367.07 167.536
L367.249 388.8
L418.942 388.8
L419.121 388.247
L421.263 388.266
L421.442 387.999
L429.031 387.963
L429.209 387.681
L438.137 387.79
L440.637 387.806
L440.816 224.152
L440.994 224.824
L443.316 224.824
L443.673 226.841
L444.208 226.841
L444.387 228.185
L444.565 228.857
L444.744 388.481
L451.351 388.551
L451.529 264.198
L451.619 264.198
L451.797 264.735
L452.065 264.735
L452.333 266.121
L454.029 266.121
L454.118 266.657
L454.297 266.121
L454.922 266.121
L455.1 266.657
L455.19 266.657
L455.368 267.192
L457.6 267.192
L457.69 267.728
L457.868 274.692
L458.047 275.764
L458.136 275.764
L458.315 276.3
L459.207 276.3
L459.386 277.907
L461.172 277.907
L461.35 278.978
L461.439 278.978
L461.707 280.05
L461.975 280.05
L462.154 280.585
L462.689 280.585
L462.957 281.657
L463.314 281.657
L463.493 282.192
L464.743 282.192
L464.921 282.728
L465.1 282.728
L465.278 283.264
L465.546 283.264
L465.725 283.8
L466.082 283.8
L466.26 284.335
L468.582 284.335
L468.85 285.407
L468.939 285.407
L469.207 287.55
L469.742 287.55
L469.921 288.085
L470.1 262.714
L471.707 262.714
L471.885 262.971
L472.51 262.971
L472.689 264.309
L472.778 264.309
L472.956 266.317
L473.046 266.317
L473.224 266.987
L473.492 266.987
L473.671 267.656
L475.992 267.656
L476.171 268.325
L476.349 268.325
L476.528 364.888
L476.885 364.888
L477.063 363.552
L477.153 363.552
L477.331 363.685
L477.688 363.685
L477.867 363.819
L479.028 363.819
L479.295 364.086
L479.563 364.086
L479.742 364.22
L481.349 364.22
L481.527 265.648
L482.152 265.648
L482.331 266.317
L482.599 266.317
L482.688 257.616
L482.777 258.286
L483.045 259.624
L483.581 259.624
L483.759 260.294
L483.849 260.294
L484.206 262.301
L485.991 262.301
L486.17 262.971
L486.259 262.971
L486.706 265.648
L486.795 265.648
L486.973 266.987
L487.241 266.987
L487.509 268.325
L487.598 268.325
L487.866 269.664
L488.759 269.664
L488.938 270.333
L490.009 270.333
L490.188 271.002
L490.545 271.002
L490.812 272.341
L493.312 272.341
L493.491 273.01
L493.937 273.01
L494.294 275.018
L494.562 275.018
L494.741 276.357
L495.098 278.365
L498.044 278.365
L498.223 279.034
L498.312 279.034
L498.58 280.373
L500.455 280.373
L500.633 281.042
L501.348 281.042
L501.615 282.381
L501.794 282.381
L501.883 368.052
L501.972 271.002
L502.062 271.672
L502.33 273.01
L504.294 273.01
L504.472 273.68
L504.562 273.68
L504.74 275.018
L505.276 275.018
L505.454 275.688
L505.633 275.688
L505.812 276.357
L507.419 276.357
L507.597 277.026
L507.686 277.026
L507.865 273.01
L508.044 273.01
L508.222 274.349
L508.579 274.349
L508.758 275.018
L508.847 275.018
L509.026 276.357
L509.293 276.357
L509.472 277.026
L511.168 277.026
L511.347 277.695
L511.883 277.695
L512.061 278.365
L512.508 278.365
L512.775 279.703
L513.222 279.703
L513.311 279.926
L513.49 388.583
L518.311 388.585
L518.311 388.585" style="fill:none;stroke:#0000ff;stroke-dasharray:6.000000,2.000000;stroke-dashoffset:0.0;"/>
   </g>
   <g id="line2d_2">
    <path clip-path="url(#p7ff5b81e1d)" d="
M72 388.11
L72.0893 45.9483
L72.1786 45.9483
L72.2678 46.6326
L72.4464 388.112
L72.7142 388.12
L72.8035 285.822
L72.9821 339.605
L73.1606 339.605
L73.3392 388.604
L73.4285 285.407
L73.607 388.388
L73.8749 388.39
L74.0534 286.027
L74.1427 388.39
L74.232 388.386
L74.4998 388.386
L74.6784 387.445
L74.7677 387.448
L74.857 50.0501
L75.0355 388.8
L75.1248 388.8
L75.3034 387.448
L75.4819 388.8
L76.3747 388.8
L76.5533 387.727
L76.6426 119.975
L76.8211 387.725
L76.9104 119.433
L77.089 387.725
L77.2675 387.725
L77.4461 387.461
L77.5354 387.461
L77.7139 388.131
L78.2496 388.131
L78.3389 53.4376
L78.4282 119.433
L78.5174 388.262
L78.6067 387.725
L79.4995 387.725
L79.6781 388.326
L79.8566 387.731
L80.6602 387.733
L80.8387 387.477
L82.8029 387.477
L82.8922 58.1679
L82.9814 58.844
L83.0707 58.844
L83.2493 387.483
L83.6957 387.483
L83.785 388.22
L83.9635 387.486
L84.3206 387.472
L84.4992 56.1395
L84.6778 56.1395
L84.8563 387.472
L94.4093 387.459
L94.5878 388.8
L94.945 388.8
L95.1235 387.459
L101.552 387.464
L101.73 388.8
L101.82 388.8
L101.998 387.464
L104.498 387.467
L104.676 388.8
L105.301 388.8
L105.391 387.475
L105.569 388.8
L105.748 387.475
L111.819 387.472
L111.908 388.8
L112.087 387.475
L144.495 387.491
L144.674 388.8
L144.942 388.8
L145.12 387.491
L147.084 387.493
L147.263 388.8
L147.352 388.8
L147.531 387.496
L147.709 388.768
L157.709 388.768
L157.887 387.467
L162.976 387.475
L163.155 388.592
L165.744 388.593
L165.923 387.48
L176.19 387.486
L176.368 388.768
L190.207 388.77
L190.385 387.515
L200.742 387.515
L200.92 388.8
L202.081 388.8
L202.26 387.518
L208.777 387.537
L208.956 388.8
L225.829 388.8
L226.008 387.588
L229.579 387.596
L229.758 388.611
L240.382 388.618
L240.561 388.8
L240.739 388.618
L247.346 388.622
L247.524 388.8
L247.703 387.668
L252.703 387.644
L252.881 388.619
L254.845 388.619
L255.024 388.8
L255.113 388.8
L255.292 388.62
L264.666 388.635
L264.845 387.748
L265.559 387.756
L265.738 388.8
L265.916 388.8
L266.095 387.759
L267.88 387.764
L268.059 388.8
L272.255 388.8
L272.434 387.778
L279.219 387.81
L279.397 387.646
L279.576 387.649
L279.755 388.619
L282.433 388.621
L282.612 387.66
L283.772 387.665
L283.951 388.8
L287.254 388.8
L287.433 387.6
L295.2 387.625
L295.289 388.8
L295.468 387.625
L296.986 387.625
L297.164 388.725
L298.593 388.8
L298.682 387.635
L298.86 388.725
L418.942 388.8
L419.121 388.25
L429.031 388.245
L429.209 388.059
L440.637 388.141
L440.816 388.8
L518.311 388.8
L518.311 388.8" style="fill:none;stroke:#008000;stroke-dasharray:1.000000,1.000000;stroke-dashoffset:0.0;"/>
   </g>
   <g id="line2d_3">
    <path clip-path="url(#p7ff5b81e1d)" d="
M72 386.072
L72.0893 388.789
L72.1786 388.786
L72.2678 388.112
L72.3571 386.075
L72.5357 388.112
L72.625 387.423
L72.8035 386.737
L72.9821 331.654
L73.2499 331.654
L73.3392 331.769
L73.5178 386.065
L73.607 385.381
L73.6963 385.395
L74.1427 385.395
L74.3213 388.11
L75.3034 388.11
L75.4819 44.5741
L76.1069 44.5741
L76.2854 45.2585
L76.3747 45.2585
L76.5533 319.935
L76.6426 319.935
L76.8211 320.072
L77.2675 320.072
L77.4461 386.733
L78.3389 386.736
L78.5174 320.075
L79.321 320.075
L79.4995 320.209
L79.5888 320.209
L79.8566 320.478
L80.3923 320.478
L80.5709 320.612
L80.6602 320.612
L80.8387 386.053
L85.3027 386.061
L85.4813 385.371
L88.8739 385.378
L101.284 385.388
L101.462 384.704
L101.552 384.704
L101.73 385.383
L101.82 385.383
L101.998 384.704
L104.498 384.712
L104.676 385.389
L105.301 385.403
L105.391 384.054
L105.569 385.403
L105.748 384.054
L111.819 384.051
L111.908 385.41
L112.087 384.06
L114.676 384.06
L114.854 384.731
L122.89 384.807
L123.068 384.141
L124.586 384.17
L124.764 383.512
L126.729 383.535
L126.907 383.382
L129.496 383.382
L129.675 385.405
L142.442 385.446
L142.62 384.775
L144.228 384.775
L144.406 384.103
L147.531 384.123
L147.709 388.685
L157.709 388.75
L157.887 386.759
L162.976 386.772
L163.155 102.83
L165.298 102.83
L165.565 103.995
L165.744 103.995
L165.923 386.78
L176.19 386.788
L176.368 388.75
L177.172 388.75
L177.35 381.811
L178.6 381.811
L178.779 388.75
L190.207 388.755
L190.385 386.83
L209.223 386.863
L209.313 386.217
L209.491 65.2743
L211.723 65.2743
L211.902 67.3437
L212.08 67.3437
L212.348 68.7234
L212.527 68.7234
L212.795 70.103
L215.116 70.103
L215.294 70.7928
L216.098 70.7928
L216.366 72.1725
L218.508 72.1725
L218.776 73.5521
L221.99 73.5521
L222.169 74.2419
L222.705 74.2419
L223.062 76.3114
L223.24 76.3114
L223.419 77.0012
L223.776 77.0012
L223.955 77.691
L225.026 77.691
L225.204 386.316
L229.579 386.333
L229.758 127.874
L229.847 127.874
L230.115 129.039
L230.204 129.039
L230.383 129.622
L230.74 129.622
L230.918 130.204
L232.793 130.204
L232.972 130.787
L233.061 130.787
L233.508 133.116
L234.043 133.116
L234.311 134.281
L236.543 134.281
L236.722 134.863
L237.168 134.863
L237.436 136.028
L239.846 136.028
L240.114 137.193
L240.382 137.193
L240.561 137.776
L240.739 137.776
L240.918 138.358
L243.507 138.358
L243.685 138.94
L244.221 138.94
L244.4 139.523
L244.668 139.523
L245.203 142.435
L246.9 142.435
L247.167 143.6
L247.435 143.6
L247.614 386.481
L247.792 386.481
L247.971 386.371
L252.703 386.432
L252.881 138.358
L254.488 138.358
L254.756 139.523
L254.845 139.523
L255.024 140.105
L255.113 140.105
L255.292 140.688
L257.613 140.688
L257.792 141.27
L257.881 141.27
L258.06 131.369
L258.238 131.369
L258.417 131.951
L258.684 131.951
L258.863 132.534
L259.131 132.534
L259.309 133.116
L260.827 133.116
L261.006 133.699
L261.72 133.699
L261.899 134.281
L262.077 159.908
L262.434 159.908
L262.613 160.49
L264.666 160.49
L264.845 386.101
L266.809 386.143
L279.13 386.253
L279.219 386.26
L279.397 385.84
L279.576 385.847
L279.665 138.94
L279.755 139.523
L279.844 139.523
L280.022 140.105
L280.38 140.105
L280.647 141.27
L282.433 141.27
L282.612 385.874
L283.415 385.874
L283.594 385.289
L283.772 385.297
L283.951 385.066
L285.29 385.082
L298.057 385.19
L299.396 385.206
L305.646 385.289
L305.824 384.713
L311.628 384.771
L311.806 385.347
L312.342 385.388
L312.52 388.197
L318.413 388.197
L318.591 385.281
L323.948 385.305
L324.127 384.723
L329.93 384.829
L331.269 384.868
L340.733 384.974
L341.893 384.993
L344.036 385.041
L344.215 385.359
L346.893 385.407
L347.072 385.031
L354.036 385.137
L355.375 385.176
L362.16 385.272
L362.785 385.311
L367.07 385.417
L367.16 146.673
L367.249 147.363
L368.32 147.363
L368.588 148.743
L368.677 148.743
L369.035 153.571
L369.392 153.571
L369.57 152.192
L369.749 177.025
L372.07 177.025
L372.249 177.715
L373.052 177.715
L373.231 179.095
L373.409 179.784
L373.499 179.784
L373.677 221.087
L373.766 221.087
L373.945 221.64
L375.909 221.64
L376.088 222.194
L376.356 222.194
L376.534 222.747
L376.623 222.747
L376.802 223.301
L376.891 223.301
L377.07 332.342
L377.248 387.687
L378.855 387.687
L379.034 319.128
L383.052 319.128
L383.23 319.818
L383.676 319.818
L383.855 320.508
L386.891 320.508
L387.069 321.198
L390.194 321.198
L390.372 321.887
L390.64 321.887
L390.819 323.267
L390.997 323.957
L391.444 323.957
L391.622 324.647
L393.676 324.647
L393.854 325.337
L394.212 325.337
L394.39 326.026
L397.693 326.026
L397.872 326.716
L397.961 326.716
L398.14 161.849
L398.586 164.608
L399.3 164.608
L399.658 166.678
L400.55 166.678
L400.908 168.747
L400.997 168.747
L401.175 170.127
L401.354 230.831
L401.979 230.831
L402.068 170.817
L402.157 171.507
L402.782 171.507
L402.961 342.392
L404.479 342.392
L404.657 355.209
L405.193 355.209
L405.372 355.357
L407.425 355.357
L407.604 386.3
L412.871 386.41
L414.032 386.443
L419.746 386.553
L420.371 386.608
L425.727 386.663
L425.906 386.432
L429.031 386.509
L429.209 385.738
L433.673 385.848
L435.102 385.914
L437.869 386.024
L438.941 386.046
L444.208 386.145
L444.833 386.189
L444.923 386.189
L445.101 353.884
L446.797 353.884
L446.976 354.031
L447.78 354.031
L447.958 354.178
L448.315 354.178
L448.583 354.473
L451.172 354.473
L451.351 354.62
L451.619 354.62
L451.797 354.767
L452.065 354.767
L452.154 354.915
L452.333 354.747
L454.029 354.747
L454.118 354.896
L454.297 354.747
L454.922 354.747
L455.1 354.896
L455.19 354.896
L455.368 355.044
L457.6 355.044
L457.69 355.193
L457.868 357.126
L458.047 357.424
L458.136 357.424
L458.315 357.572
L459.207 357.572
L459.386 358.018
L461.172 358.018
L461.35 358.316
L461.439 358.316
L461.707 358.613
L461.975 358.613
L462.154 358.762
L462.689 358.762
L462.957 359.059
L463.314 359.059
L463.493 359.208
L464.743 359.208
L464.921 359.357
L465.1 359.357
L465.278 359.505
L465.546 359.505
L465.725 359.654
L466.082 359.654
L466.26 359.803
L468.582 359.803
L468.85 360.1
L468.939 360.1
L469.207 360.695
L469.742 360.695
L469.921 360.844
L470.1 386.47
L471.707 386.47
L471.885 386.211
L476.349 386.322
L476.438 288.921
L476.528 289.476
L476.885 289.476
L477.063 283.927
L477.153 283.927
L477.331 284.482
L477.688 284.482
L477.867 285.036
L479.028 285.036
L479.295 286.146
L479.563 286.146
L479.742 286.701
L481.349 286.701
L481.527 386.267
L482.599 386.28
L482.777 386.115
L483.759 386.156
L486.795 386.267
L487.241 386.294
L488.313 386.349
L494.562 386.459
L495.098 386.528
L501.794 386.611
L501.883 388.373
L501.972 386.377
L502.062 386.39
L502.955 386.418
L512.508 386.528
L513.222 386.556
L513.4 386.331
L518.311 386.362
L518.311 386.362" style="fill:none;stroke:#ff0000;stroke-dasharray:3.000000,6.000000;stroke-dashoffset:0.0;"/>
   </g>
   <g id="line2d_4">
    <path clip-path="url(#p7ff5b81e1d)" d="
M72 387.423
L72.0893 387.422
L72.1786 387.422
L72.3571 388.11
L72.7142 388.11
L72.8035 149.487
L72.8928 150.92
L73.2499 150.92
L73.4285 151.397
L73.5178 151.397
L73.8749 152.819
L74.1427 152.819
L74.3213 150.925
L74.4998 150.925
L74.6784 386.755
L74.857 386.074
L75.0355 386.755
L75.1248 386.755
L75.3034 386.074
L75.4819 388.8
L76.1069 388.8
L76.2854 388.116
L76.3747 388.116
L76.5533 385.119
L77.2675 385.122
L77.4461 384.721
L78.3389 384.724
L78.5174 385.125
L79.0531 385.125
L79.2317 384.58
L79.321 384.58
L79.4102 385.531
L79.4995 384.987
L79.5888 385.357
L79.6781 385.153
L79.9459 383.073
L80.3923 383.073
L80.5709 382.392
L80.6602 382.392
L81.0173 381.314
L82.8029 381.314
L83.0707 379.948
L83.6957 379.948
L83.785 380.707
L84.1421 378.587
L84.3206 382.651
L86.999 382.685
L87.1776 382.003
L87.5347 382.003
L87.7133 381.319
L90.3917 381.32
L90.5702 380.643
L92.2666 380.643
L92.4451 379.963
L93.8736 379.963
L94.0522 387.423
L94.2307 387.423
L94.4093 386.736
L97.5341 386.736
L97.7126 387.42
L100.927 387.42
L101.105 386.731
L104.23 386.731
L104.409 386.041
L104.944 386.041
L105.123 384.661
L111.819 384.661
L111.997 383.971
L116.372 383.971
L116.551 383.281
L118.515 383.281
L118.693 382.592
L118.783 382.592
L119.051 381.212
L119.14 381.212
L119.318 379.832
L120.033 379.832
L120.211 379.143
L121.997 379.143
L122.175 378.453
L122.532 378.453
L122.711 377.763
L123.157 377.763
L123.515 375.693
L126.014 375.693
L126.193 374.314
L126.729 374.314
L126.907 383.971
L132.8 383.971
L132.978 383.281
L133.692 383.281
L133.871 382.592
L136.639 382.592
L136.907 381.212
L137.532 381.212
L137.71 380.522
L140.21 380.522
L140.388 379.832
L146.549 379.832
L146.727 379.143
L147.442 379.143
L147.531 378.453
L147.709 51.4778
L157.709 51.4778
L157.887 383.971
L158.423 383.971
L158.602 383.281
L158.78 383.281
L158.959 382.592
L162.53 382.592
L162.708 381.902
L165.298 381.902
L165.565 380.522
L168.333 380.522
L168.512 379.832
L175.476 379.832
L175.654 379.143
L176.19 379.143
L176.368 51.4778
L186.903 51.4778
L187.082 50.788
L190.207 50.788
L190.385 372.244
L191.1 372.244
L191.367 370.865
L191.457 370.865
L191.635 370.175
L192.171 370.175
L192.349 369.485
L193.51 369.485
L193.689 370.175
L194.76 370.175
L194.939 369.485
L197.171 369.485
L197.349 368.795
L197.438 368.795
L197.617 372.934
L197.974 372.934
L198.153 372.244
L201.367 372.244
L201.545 371.554
L204.134 371.554
L204.313 370.865
L205.027 370.865
L205.474 368.105
L208.063 368.105
L208.241 367.416
L208.598 367.416
L208.777 366.726
L211.723 366.726
L211.902 364.656
L212.08 364.656
L212.348 363.277
L212.527 363.277
L212.795 361.897
L215.116 361.897
L215.294 361.207
L216.098 361.207
L216.366 359.828
L218.508 359.828
L218.776 358.448
L221.99 358.448
L222.169 357.758
L222.705 357.758
L223.062 355.689
L223.24 355.689
L223.419 354.999
L223.776 354.999
L223.955 354.309
L226.097 354.309
L226.365 352.929
L227.079 352.929
L227.258 352.24
L229.847 352.24
L230.115 350.86
L230.204 350.86
L230.383 350.17
L230.74 350.17
L230.918 349.48
L232.793 349.48
L232.972 348.79
L233.061 348.79
L233.508 346.031
L234.043 346.031
L234.311 344.651
L236.543 344.651
L236.722 343.962
L237.168 343.962
L237.436 342.582
L239.846 342.582
L240.114 341.202
L240.382 341.202
L240.561 340.513
L240.739 340.513
L240.918 339.823
L243.507 339.823
L243.685 339.133
L244.221 339.133
L244.4 338.443
L244.668 338.443
L245.203 334.994
L246.9 334.994
L247.167 333.614
L247.792 333.614
L247.882 348.79
L247.971 347.411
L248.417 347.411
L248.774 345.341
L249.399 345.341
L249.578 344.651
L250.56 344.651
L250.739 343.962
L251.185 343.962
L251.364 343.272
L251.542 343.272
L251.81 341.892
L251.988 341.892
L252.167 339.823
L254.488 339.823
L254.756 338.443
L254.845 338.443
L255.024 337.753
L255.113 337.753
L255.292 337.063
L257.613 337.063
L257.792 336.374
L257.881 336.374
L258.06 348.101
L258.238 348.101
L258.417 347.411
L258.684 347.411
L258.863 346.721
L259.131 346.721
L259.309 346.031
L260.827 346.031
L261.006 345.341
L261.72 345.341
L261.899 344.651
L262.077 314.299
L262.434 314.299
L262.613 313.61
L264.845 313.61
L265.023 312.92
L265.113 312.92
L265.38 311.54
L265.559 311.54
L265.738 310.85
L266.184 310.85
L266.452 309.471
L268.416 309.471
L268.595 308.781
L268.773 308.781
L268.952 307.401
L269.13 307.401
L269.309 306.711
L269.755 306.711
L269.934 306.022
L273.505 306.022
L273.684 305.332
L275.648 305.332
L276.451 299.813
L276.808 299.813
L276.987 299.123
L277.433 299.123
L277.612 298.434
L279.13 298.434
L279.219 297.744
L279.397 339.823
L279.576 339.133
L279.665 339.133
L279.933 337.753
L280.38 337.753
L280.647 336.374
L283.683 336.374
L283.772 335.684
L283.951 354.999
L284.219 353.619
L286.183 353.619
L286.361 354.999
L286.897 354.999
L287.076 354.309
L287.165 354.309
L287.522 352.24
L287.611 352.24
L287.79 351.55
L290.379 351.55
L290.557 350.17
L291.004 350.17
L291.272 348.79
L294.218 348.79
L294.575 346.721
L294.843 346.721
L295.021 346.031
L296.986 346.031
L297.164 345.341
L297.432 345.341
L297.611 344.651
L298.057 344.651
L298.325 343.272
L300.468 343.272
L300.825 341.202
L301.271 341.202
L301.628 339.133
L301.807 339.133
L301.985 338.443
L304.485 338.443
L304.664 337.753
L305.378 337.753
L305.735 335.684
L307.788 335.684
L308.056 334.304
L308.235 334.304
L308.413 333.614
L308.949 333.614
L309.306 331.545
L311.895 331.545
L312.074 329.475
L312.252 328.096
L312.342 328.096
L312.52 93.5569
L318.413 93.5569
L318.591 337.063
L318.948 337.063
L319.127 336.374
L319.484 336.374
L319.663 335.684
L319.841 339.133
L320.198 337.063
L322.163 337.063
L322.341 336.374
L322.52 336.374
L322.698 335.684
L323.412 335.684
L323.591 334.994
L325.555 334.994
L325.734 335.684
L325.912 335.684
L326.091 334.994
L326.448 334.994
L326.627 333.614
L326.805 332.925
L326.894 332.925
L327.162 331.545
L327.341 332.235
L329.126 332.235
L329.573 329.475
L329.662 329.475
L330.108 326.716
L330.644 326.716
L330.912 325.337
L331.001 325.337
L331.18 324.647
L332.876 324.647
L333.055 323.957
L333.233 323.957
L333.412 323.267
L336.537 323.267
L336.804 321.887
L336.983 321.887
L337.162 321.198
L337.251 321.198
L337.429 320.508
L337.876 320.508
L338.054 319.818
L339.036 319.818
L339.215 319.128
L339.751 319.128
L339.929 317.059
L340.733 317.059
L341.001 315.679
L342.965 315.679
L343.143 314.989
L343.411 314.989
L343.679 313.61
L343.768 313.61
L344.036 312.23
L344.215 289.466
L344.84 289.466
L345.197 287.396
L346.09 287.396
L346.357 286.017
L346.893 286.017
L347.072 312.92
L347.25 312.92
L347.429 312.23
L347.875 312.23
L348.143 310.85
L348.322 310.85
L348.589 309.471
L351 309.471
L351.268 308.091
L351.625 308.091
L352.071 305.332
L354.036 305.332
L354.393 303.262
L354.839 303.262
L355.018 302.572
L356.268 302.572
L356.446 301.883
L357.964 301.883
L358.232 300.503
L358.589 300.503
L358.767 299.813
L358.946 299.813
L359.303 297.744
L360.91 297.744
L361.089 297.054
L361.267 297.054
L361.535 295.674
L362.16 295.674
L362.339 294.295
L362.517 294.295
L362.785 292.915
L362.874 292.915
L363.053 291.535
L364.928 291.535
L365.463 288.086
L365.553 288.086
L365.731 287.396
L365.91 287.396
L366.088 286.707
L366.178 286.707
L366.356 285.327
L367.16 285.327
L367.338 284.637
L368.32 284.637
L368.588 283.257
L368.677 283.257
L369.035 278.429
L369.392 278.429
L369.57 279.808
L369.749 254.975
L372.07 254.975
L372.249 254.285
L373.052 254.285
L373.231 252.905
L373.409 252.216
L373.766 252.216
L373.945 251.526
L375.909 251.526
L376.088 250.836
L376.356 250.836
L376.534 250.146
L376.623 250.146
L376.802 249.456
L376.891 249.456
L377.07 113.562
L377.248 112.872
L383.052 112.872
L383.23 112.182
L383.676 112.182
L383.855 111.492
L386.891 111.492
L387.069 110.802
L390.194 110.802
L390.372 110.113
L390.64 110.113
L390.819 108.733
L390.997 108.043
L391.444 108.043
L391.622 107.353
L393.676 107.353
L393.854 106.663
L394.212 106.663
L394.39 105.974
L397.693 105.974
L397.872 105.284
L397.961 105.284
L398.14 270.151
L398.586 267.392
L399.3 267.392
L399.658 265.322
L400.55 265.322
L400.908 263.253
L400.997 263.253
L401.175 261.873
L401.354 201.169
L401.979 201.169
L402.068 261.183
L402.157 260.493
L404.479 260.493
L404.657 200.479
L405.193 200.479
L405.372 199.789
L407.871 199.789
L408.139 198.41
L408.586 198.41
L408.764 197.72
L408.853 197.72
L409.3 194.96
L411.978 194.96
L412.157 193.581
L412.335 193.581
L412.514 192.891
L412.871 192.891
L413.228 190.822
L415.103 190.822
L415.282 190.132
L415.371 190.132
L415.549 189.442
L415.639 189.442
L415.817 188.752
L416.085 188.752
L416.442 186.683
L418.049 186.683
L418.228 185.993
L418.674 185.993
L418.853 185.303
L419.388 185.303
L419.567 184.613
L419.656 184.613
L420.103 181.854
L420.281 181.854
L420.46 180.474
L421.978 180.474
L422.156 179.784
L422.692 179.784
L422.96 178.405
L423.228 178.405
L423.406 177.715
L423.495 177.715
L423.674 177.025
L425.727 177.025
L425.817 192.201
L425.906 191.511
L426.084 191.511
L426.62 188.062
L426.888 188.062
L427.156 186.683
L429.031 186.683
L429.209 234.97
L429.388 234.97
L429.745 232.901
L430.013 232.901
L430.281 231.521
L430.638 231.521
L430.906 230.141
L432.691 230.141
L432.959 228.762
L433.405 228.762
L433.584 228.072
L433.673 228.072
L434.209 224.623
L434.298 224.623
L434.477 223.933
L436.352 223.933
L436.887 220.484
L436.977 220.484
L437.155 219.794
L437.512 219.794
L438.048 216.345
L438.137 216.345
L438.316 215.655
L439.476 215.655
L439.655 214.965
L440.012 214.965
L440.28 213.586
L440.637 213.586
L440.816 212.206
L440.994 211.516
L443.316 211.516
L443.673 209.447
L444.208 209.447
L444.387 208.067
L444.565 207.377
L444.744 207.377
L444.923 206.687
L446.797 206.687
L446.976 205.998
L447.78 205.998
L447.958 205.308
L448.315 205.308
L448.583 203.928
L451.172 203.928
L451.351 203.238
L451.619 203.238
L451.797 202.549
L452.065 202.549
L452.333 201.169
L454.029 201.169
L454.118 200.479
L454.297 201.169
L454.922 201.169
L455.1 200.479
L455.19 200.479
L455.368 199.789
L457.6 199.789
L457.69 199.099
L457.868 190.132
L458.047 188.752
L458.136 188.752
L458.315 188.062
L459.207 188.062
L459.386 185.993
L461.172 185.993
L461.35 184.613
L461.439 184.613
L461.707 183.234
L461.975 183.234
L462.154 182.544
L462.689 182.544
L462.957 181.164
L463.314 181.164
L463.493 180.474
L464.743 180.474
L464.921 179.784
L465.1 179.784
L465.278 179.095
L465.546 179.095
L465.725 178.405
L466.082 178.405
L466.26 177.715
L468.582 177.715
L468.85 176.335
L468.939 176.335
L469.207 173.576
L469.742 173.576
L469.921 172.886
L472.51 172.886
L472.689 171.507
L472.778 171.507
L472.956 169.437
L473.046 169.437
L473.224 168.747
L473.492 168.747
L473.671 168.057
L475.992 168.057
L476.171 167.368
L476.438 167.368
L476.617 166.678
L476.885 166.678
L477.063 173.576
L477.153 173.576
L477.331 172.886
L477.688 172.886
L477.867 172.196
L479.028 172.196
L479.295 170.817
L479.563 170.817
L479.742 170.127
L482.152 170.127
L482.331 169.437
L482.599 169.437
L482.688 178.405
L482.777 177.715
L483.045 176.335
L483.581 176.335
L483.759 175.646
L483.849 175.646
L484.206 173.576
L485.991 173.576
L486.17 172.886
L486.259 172.886
L486.706 170.127
L486.795 170.127
L486.973 168.747
L487.241 168.747
L487.509 167.368
L487.598 167.368
L487.866 165.988
L488.759 165.988
L488.938 165.298
L490.009 165.298
L490.188 164.608
L490.545 164.608
L490.812 163.229
L493.312 163.229
L493.491 162.539
L493.937 162.539
L494.294 160.469
L494.562 160.469
L494.741 159.09
L495.098 157.02
L498.044 157.02
L498.223 156.331
L498.312 156.331
L498.58 154.951
L500.455 154.951
L500.633 154.261
L501.348 154.261
L501.615 152.881
L501.794 152.881
L501.883 64.5844
L501.972 164.608
L502.062 163.919
L502.33 162.539
L504.294 162.539
L504.472 161.849
L504.562 161.849
L504.74 160.469
L505.276 160.469
L505.454 159.78
L505.633 159.78
L505.812 159.09
L507.419 159.09
L507.597 158.4
L507.686 158.4
L507.865 162.539
L508.044 162.539
L508.222 161.159
L508.579 161.159
L508.758 160.469
L508.847 160.469
L509.026 159.09
L509.293 159.09
L509.472 158.4
L511.168 158.4
L511.347 157.71
L511.883 157.71
L512.061 157.02
L512.508 157.02
L512.775 155.641
L515.543 155.641
L515.722 154.951
L515.9 154.951
L516.079 154.261
L518.311 154.261
L518.311 154.261" style="fill:none;stroke:#00bfbf;stroke-dasharray:5.000000,1.000000,2.000000,1.000000,5.000000,1.000000;stroke-dashoffset:0.0;"/>
   </g>
   <g id="line2d_5">
    <path clip-path="url(#p7ff5b81e1d)" d="
M72 93.2421
L72.0893 388.114
L72.1786 388.114
L72.625 385.374
L72.7142 385.381
L72.8035 387.553
L72.8928 387.42
L73.2499 387.42
L73.4285 386.731
L75.3034 386.737
L75.4819 387.426
L76.3747 387.426
L76.5533 385.655
L76.6426 385.655
L76.8211 386.057
L79.4995 386.053
L79.5888 234.166
L79.6781 234.474
L79.8566 386.059
L83.6957 386.075
L83.785 200.013
L83.9635 386.075
L85.1242 386.083
L85.3027 385.402
L86.7312 385.408
L86.9098 384.723
L87.7133 384.735
L87.8918 386.07
L94.4093 386.068
L94.5878 48.6815
L94.945 48.6815
L95.1235 386.068
L97.6234 386.065
L97.8019 385.384
L101.552 385.395
L101.73 48.687
L101.82 48.687
L101.998 385.395
L104.498 385.402
L104.676 49.3699
L104.944 49.3699
L105.123 50.7358
L105.301 50.7358
L105.391 385.415
L105.569 50.7358
L105.748 385.415
L108.426 385.415
L108.605 386.09
L111.819 386.09
L111.908 51.4188
L112.087 386.096
L112.176 386.096
L112.355 385.422
L112.89 385.422
L113.069 386.096
L144.495 386.143
L144.674 56.8644
L144.942 56.8644
L145.12 386.143
L147.084 386.149
L147.263 57.5446
L147.352 57.5446
L147.531 386.154
L147.709 388.735
L150.566 388.734
L150.656 380.572
L150.834 388.734
L151.638 388.734
L151.816 380.572
L151.906 380.572
L152.084 388.734
L155.655 388.734
L155.834 380.572
L157.084 380.572
L157.262 388.734
L157.709 388.734
L157.887 385.419
L162.976 385.44
L163.155 388.274
L165.744 388.276
L165.923 385.454
L176.19 385.467
L176.368 388.718
L190.207 388.725
L190.385 385.536
L200.742 385.536
L200.92 61.726
L201.367 61.726
L201.545 62.4117
L202.081 62.4117
L202.26 385.543
L208.777 385.591
L208.956 67.2115
L209.223 67.2115
L209.313 67.8573
L209.491 388.8
L225.026 388.8
L225.204 80.1749
L225.829 80.1749
L226.008 385.72
L229.579 385.74
L229.758 388.32
L240.382 388.337
L240.561 342.512
L240.739 388.338
L247.346 388.349
L247.435 343.586
L247.524 100.704
L247.703 385.925
L247.792 385.925
L247.971 385.788
L252.703 385.863
L252.881 388.339
L254.845 388.341
L255.024 342.941
L255.113 342.941
L255.292 388.343
L264.666 388.38
L264.845 386.128
L265.559 386.149
L265.738 123.821
L265.916 123.821
L266.095 386.155
L267.88 386.169
L268.059 125.187
L268.416 125.187
L268.595 125.87
L268.773 125.87
L268.952 127.236
L269.13 127.236
L269.309 127.918
L269.755 127.918
L269.934 128.601
L272.255 128.601
L272.434 386.203
L279.219 386.285
L279.397 385.869
L279.576 385.876
L279.755 388.341
L282.433 388.344
L282.612 385.903
L283.772 385.916
L283.951 80.7353
L284.219 82.0984
L286.183 82.0984
L286.361 80.7353
L286.897 80.7353
L287.076 81.4169
L287.165 81.4169
L287.254 82.0984
L287.433 385.753
L301.271 385.862
L303.057 385.889
L312.342 385.991
L312.52 388.303
L318.413 388.303
L318.591 385.902
L330.644 386.01
L332.34 386.03
L340.197 386.105
L340.376 118.768
L340.733 118.768
L340.822 119.448
L341.001 386.119
L344.036 386.153
L344.215 386.377
L346.893 386.411
L347.072 386.146
L351.089 386.187
L351.268 127.61
L351.625 127.61
L352.071 130.331
L352.25 130.331
L352.428 386.22
L354.66 386.241
L354.839 132.371
L355.018 133.052
L355.196 386.248
L364.928 386.356
L367.07 386.417
L367.249 388.8
L373.499 388.8
L373.677 347.498
L373.766 347.498
L373.945 347.634
L375.909 347.634
L376.088 347.77
L376.356 347.77
L376.534 347.906
L376.623 347.906
L376.802 348.043
L376.891 348.043
L377.07 374.896
L377.248 320.241
L378.855 320.241
L379.034 388.8
L402.782 388.8
L402.961 217.915
L404.479 217.915
L404.657 265.111
L405.193 265.111
L405.372 265.654
L407.425 265.654
L407.604 234.711
L407.871 234.711
L408.139 236.069
L408.586 236.069
L408.764 236.748
L408.853 236.748
L409.3 239.463
L411.978 239.463
L412.157 240.82
L412.335 240.82
L412.514 241.499
L412.871 241.499
L413.228 243.536
L415.103 243.536
L415.282 244.214
L415.371 244.214
L415.549 244.893
L415.639 244.893
L415.817 245.572
L416.085 245.572
L416.442 247.609
L418.049 247.609
L418.228 248.287
L418.674 248.287
L418.853 248.966
L418.942 248.966
L419.121 387.404
L429.031 387.391
L429.209 386.917
L436.352 387.025
L438.852 387.106
L444.565 387.188
L444.744 227.564
L444.923 228.241
L445.101 260.483
L446.797 260.483
L446.976 261.025
L447.78 261.025
L447.958 261.566
L448.315 261.566
L448.583 262.649
L451.172 262.649
L451.351 263.19
L451.529 387.544
L457.868 387.65
L458.85 387.666
L469.117 387.769
L469.921 387.785
L470.1 387.529
L476.349 387.586
L476.528 388.559
L481.349 388.552
L481.527 387.559
L494.741 387.667
L496.437 387.687
L501.794 387.727
L501.883 388.591
L502.062 387.619
L503.669 387.633
L513.311 387.702
L513.49 279.045
L515.543 279.045
L515.722 279.719
L515.9 279.719
L516.079 280.392
L518.311 280.392
L518.311 280.392" style="fill:none;stroke:#bf00bf;stroke-linecap:square;"/>
   </g>
   <g id="matplotlib.axis_1">
    <g id="xtick_1">
     <g id="line2d_6">
      <defs>
       <path d="
M0 0
L0 -4" id="mc7db9fdffb" style="stroke:#000000;stroke-width:0.5;"/>
      </defs>
      <g>
       <use style="stroke:#000000;stroke-width:0.5;" x="72.0" xlink:href="#mc7db9fdffb" y="388.8"/>
      </g>
     </g>
     <g id="line2d_7">
      <defs>
       <path d="
M0 0
L0 4" id="m5a7d422ac3" style="stroke:#000000;stroke-width:0.5;"/>
      </defs>
      <g>
       <use style="stroke:#000000;stroke-width:0.5;" x="72.0" xlink:href="#m5a7d422ac3" y="43.2"/>
      </g>
     </g>
     <g id="text_1">
      <!-- 0 -->
      <defs>
       <path d="
M56.9844 36.375
Q56.9844 16.7969 50.8594 7.64062
Q44.7344 -1.51562 31.8438 -1.51562
Q18.75 -1.51562 12.7188 7.76562
Q6.6875 17.0469 6.6875 36.2812
Q6.6875 55.6719 12.7812 64.9219
Q18.8906 74.1719 31.8438 74.1719
Q44.9219 74.1719 50.9531 64.7656
Q56.9844 55.375 56.9844 36.375
M44.1406 14.2031
Q45.8438 18.1719 46.4531 23.5156
Q47.0781 28.8594 47.0781 36.375
Q47.0781 43.7969 46.4531 49.2656
Q45.8438 54.7344 44.0938 58.5469
Q42.3906 62.3125 39.4219 64.2031
Q36.4688 66.1094 31.8438 66.1094
Q27.25 66.1094 24.2344 64.2031
Q21.2344 62.3125 19.4844 58.4531
Q17.8281 54.8281 17.2188 49.0156
Q16.6094 43.2188 16.6094 36.2812
Q16.6094 28.6562 17.1406 23.5312
Q17.6719 18.4062 19.4375 14.3594
Q21.0469 10.5469 24 8.54688
Q26.9531 6.54688 31.8438 6.54688
Q36.4219 6.54688 39.4531 8.45312
Q42.4844 10.3594 44.1406 14.2031" id="Verdana-30"/>
      </defs>
      <g transform="translate(68.9821875 401.918125)scale(0.12 -0.12)">
       <use xlink:href="#Verdana-30"/>
      </g>
     </g>
    </g>
    <g id="xtick_2">
     <g id="line2d_8">
      <g>
       <use style="stroke:#000000;stroke-width:0.5;" x="161.28" xlink:href="#mc7db9fdffb" y="388.8"/>
      </g>
     </g>
     <g id="line2d_9">
      <g>
       <use style="stroke:#000000;stroke-width:0.5;" x="161.28" xlink:href="#m5a7d422ac3" y="43.2"/>
      </g>
     </g>
     <g id="text_2">
      <!-- 1000 -->
      <defs>
       <path d="
M52.9375 0
L13.5781 0
L13.5781 7.42188
L28.7188 7.42188
L28.7188 56.1562
L13.5781 56.1562
L13.5781 62.7969
Q16.6562 62.7969 20.1719 63.2969
Q23.6875 63.8125 25.4844 64.7969
Q27.7344 66.0156 29.0312 67.8906
Q30.3281 69.7812 30.5156 72.9531
L38.0938 72.9531
L38.0938 7.42188
L52.9375 7.42188
z
" id="Verdana-31"/>
      </defs>
      <g transform="translate(147.2315625 401.918125)scale(0.12 -0.12)">
       <use xlink:href="#Verdana-31"/>
       <use x="63.57421875" xlink:href="#Verdana-30"/>
       <use x="127.1484375" xlink:href="#Verdana-30"/>
       <use x="190.72265625" xlink:href="#Verdana-30"/>
      </g>
     </g>
    </g>
    <g id="xtick_3">
     <g id="line2d_10">
      <g>
       <use style="stroke:#000000;stroke-width:0.5;" x="250.56" xlink:href="#mc7db9fdffb" y="388.8"/>
      </g>
     </g>
     <g id="line2d_11">
      <g>
       <use style="stroke:#000000;stroke-width:0.5;" x="250.56" xlink:href="#m5a7d422ac3" y="43.2"/>
      </g>
     </g>
     <g id="text_3">
      <!-- 2000 -->
      <defs>
       <path d="
M57.0781 0
L7.85938 0
L7.85938 10.2031
Q12.9844 14.5938 18.1406 18.9844
Q23.2969 23.3906 27.7344 27.7344
Q37.1094 36.8125 40.5781 42.1562
Q44.0469 47.5156 44.0469 53.7188
Q44.0469 59.375 40.3125 62.5625
Q36.5781 65.7656 29.8906 65.7656
Q25.4375 65.7656 20.2656 64.2031
Q15.0938 62.6406 10.1562 59.4219
L9.67188 59.4219
L9.67188 69.6719
Q13.1406 71.3906 18.9219 72.7969
Q24.7031 74.2188 30.125 74.2188
Q41.3125 74.2188 47.6562 68.8125
Q54 63.4219 54 54.2031
Q54 50.0469 52.9531 46.4531
Q51.9062 42.875 49.8594 39.6562
Q47.9531 36.625 45.3906 33.6875
Q42.8281 30.7656 39.1562 27.2031
Q33.9375 22.0781 28.3594 17.2656
Q22.7969 12.4531 17.9688 8.34375
L57.0781 8.34375
z
" id="Verdana-32"/>
      </defs>
      <g transform="translate(236.1684375 401.918125)scale(0.12 -0.12)">
       <use xlink:href="#Verdana-32"/>
       <use x="63.57421875" xlink:href="#Verdana-30"/>
       <use x="127.1484375" xlink:href="#Verdana-30"/>
       <use x="190.72265625" xlink:href="#Verdana-30"/>
      </g>
     </g>
    </g>
    <g id="xtick_4">
     <g id="line2d_12">
      <g>
       <use style="stroke:#000000;stroke-width:0.5;" x="339.84" xlink:href="#mc7db9fdffb" y="388.8"/>
      </g>
     </g>
     <g id="line2d_13">
      <g>
       <use style="stroke:#000000;stroke-width:0.5;" x="339.84" xlink:href="#m5a7d422ac3" y="43.2"/>
      </g>
     </g>
     <g id="text_4">
      <!-- 3000 -->
      <defs>
       <path d="
M50.6875 35.0156
Q53.0312 32.9062 54.5469 29.7344
Q56.0625 26.5625 56.0625 21.5312
Q56.0625 16.5469 54.25 12.3906
Q52.4375 8.25 49.1719 5.17188
Q45.5156 1.76562 40.5469 0.125
Q35.5938 -1.51562 29.6875 -1.51562
Q23.6406 -1.51562 17.7812 -0.0625
Q11.9219 1.375 8.15625 3.07812
L8.15625 13.2812
L8.89062 13.2812
Q13.0312 10.5469 18.6406 8.73438
Q24.2656 6.9375 29.5 6.9375
Q32.5625 6.9375 36.0312 7.95312
Q39.5 8.98438 41.6562 10.9844
Q43.8906 13.1406 44.9844 15.7188
Q46.0938 18.3125 46.0938 22.2656
Q46.0938 26.1719 44.8438 28.7344
Q43.6094 31.2969 41.4062 32.7656
Q39.2031 34.2812 36.0781 34.8438
Q32.9531 35.4062 29.3438 35.4062
L24.9531 35.4062
L24.9531 43.5
L28.375 43.5
Q35.7969 43.5 40.2031 46.5938
Q44.625 49.7031 44.625 55.6719
Q44.625 58.2969 43.5 60.2656
Q42.3906 62.25 40.375 63.5312
Q38.2812 64.7969 35.8906 65.2812
Q33.5 65.7656 30.4688 65.7656
Q25.8281 65.7656 20.5938 64.1094
Q15.375 62.4531 10.75 59.4219
L10.25 59.4219
L10.25 69.625
Q13.7188 71.3438 19.5 72.7812
Q25.2969 74.2188 30.7188 74.2188
Q36.0312 74.2188 40.0781 73.2344
Q44.1406 72.2656 47.4062 70.125
Q50.9219 67.7812 52.7344 64.4531
Q54.5469 61.1406 54.5469 56.6875
Q54.5469 50.6406 50.2656 46.125
Q46 41.6094 40.1875 40.4375
L40.1875 39.75
Q42.5312 39.3594 45.5469 38.1094
Q48.5781 36.8594 50.6875 35.0156" id="Verdana-33"/>
      </defs>
      <g transform="translate(325.46625 401.918125)scale(0.12 -0.12)">
       <use xlink:href="#Verdana-33"/>
       <use x="63.57421875" xlink:href="#Verdana-30"/>
       <use x="127.1484375" xlink:href="#Verdana-30"/>
       <use x="190.72265625" xlink:href="#Verdana-30"/>
      </g>
     </g>
    </g>
    <g id="xtick_5">
     <g id="line2d_14">
      <g>
       <use style="stroke:#000000;stroke-width:0.5;" x="429.12" xlink:href="#mc7db9fdffb" y="388.8"/>
      </g>
     </g>
     <g id="line2d_15">
      <g>
       <use style="stroke:#000000;stroke-width:0.5;" x="429.12" xlink:href="#m5a7d422ac3" y="43.2"/>
      </g>
     </g>
     <g id="text_5">
      <!-- 4000 -->
      <defs>
       <path d="
M58.7344 20.4531
L47.9531 20.4531
L47.9531 0
L38.5781 0
L38.5781 20.4531
L3.76562 20.4531
L3.76562 31.6875
L38.9688 72.7031
L47.9531 72.7031
L47.9531 28.2656
L58.7344 28.2656
z

M38.5781 28.2656
L38.5781 61.0781
L10.4062 28.2656
z
" id="Verdana-34"/>
      </defs>
      <g transform="translate(414.4828125 401.918125)scale(0.12 -0.12)">
       <use xlink:href="#Verdana-34"/>
       <use x="63.57421875" xlink:href="#Verdana-30"/>
       <use x="127.1484375" xlink:href="#Verdana-30"/>
       <use x="190.72265625" xlink:href="#Verdana-30"/>
      </g>
     </g>
    </g>
    <g id="xtick_6">
     <g id="line2d_16">
      <g>
       <use style="stroke:#000000;stroke-width:0.5;" x="518.4" xlink:href="#mc7db9fdffb" y="388.8"/>
      </g>
     </g>
     <g id="line2d_17">
      <g>
       <use style="stroke:#000000;stroke-width:0.5;" x="518.4" xlink:href="#m5a7d422ac3" y="43.2"/>
      </g>
     </g>
     <g id="text_6">
      <!-- 5000 -->
      <defs>
       <path d="
M56.5 23.0938
Q56.5 18.0156 54.6406 13.375
Q52.7812 8.73438 49.5625 5.5625
Q46.0469 2.15625 41.1875 0.3125
Q36.3281 -1.51562 29.9375 -1.51562
Q23.9688 -1.51562 18.4531 -0.265625
Q12.9375 0.984375 9.125 2.73438
L9.125 13.0312
L9.8125 13.0312
Q13.8125 10.5 19.1875 8.71875
Q24.5625 6.9375 29.7344 6.9375
Q33.2031 6.9375 36.4531 7.90625
Q39.7031 8.89062 42.2344 11.3281
Q44.3906 13.4219 45.4844 16.3438
Q46.5781 19.2812 46.5781 23.1406
Q46.5781 26.9062 45.2812 29.4844
Q44 32.0781 41.7031 33.6406
Q39.1562 35.5 35.5156 36.25
Q31.8906 37.0156 27.3906 37.0156
Q23.0938 37.0156 19.1094 36.4219
Q15.1406 35.8438 12.25 35.25
L12.25 72.7031
L56 72.7031
L56 64.1562
L21.6875 64.1562
L21.6875 44.8281
Q23.7812 45.0156 25.9688 45.1094
Q28.1719 45.2188 29.7812 45.2188
Q35.6875 45.2188 40.125 44.2188
Q44.5781 43.2188 48.2969 40.6719
Q52.2031 37.9844 54.3438 33.7344
Q56.5 29.5 56.5 23.0938" id="Verdana-35"/>
      </defs>
      <g transform="translate(504.084375 401.918125)scale(0.12 -0.12)">
       <use xlink:href="#Verdana-35"/>
       <use x="63.57421875" xlink:href="#Verdana-30"/>
       <use x="127.1484375" xlink:href="#Verdana-30"/>
       <use x="190.72265625" xlink:href="#Verdana-30"/>
      </g>
     </g>
    </g>
    <g id="text_7">
     <!-- Objective function exectuions -->
     <defs>
      <path d="
M63.9688 64.3594
Q68.4062 59.4688 70.7656 52.3906
Q73.1406 45.3125 73.1406 36.3281
Q73.1406 27.3438 70.7188 20.2344
Q68.3125 13.1406 63.9688 8.40625
Q59.4688 3.46875 53.3438 0.96875
Q47.2188 -1.51562 39.3594 -1.51562
Q31.6875 -1.51562 25.4062 1.01562
Q19.1406 3.5625 14.75 8.40625
Q10.3594 13.2344 7.98438 20.2656
Q5.60938 27.2969 5.60938 36.3281
Q5.60938 45.2188 7.95312 52.2656
Q10.2969 59.3281 14.7969 64.3594
Q19.0938 69.1406 25.4688 71.6719
Q31.8438 74.2188 39.3594 74.2188
Q47.1719 74.2188 53.3906 71.6562
Q59.625 69.0938 63.9688 64.3594
M63.0938 36.3281
Q63.0938 50.4844 56.7344 58.1719
Q50.3906 65.875 39.4062 65.875
Q28.3281 65.875 22 58.1719
Q15.6719 50.4844 15.6719 36.3281
Q15.6719 22.0156 22.1094 14.4219
Q28.5625 6.84375 39.4062 6.84375
Q50.25 6.84375 56.6719 14.4219
Q63.0938 22.0156 63.0938 36.3281" id="Verdana-4f"/>
      <path d="
M38.375 67.0938
L37.8906 67.0938
Q36.375 67.5312 33.9375 67.9844
Q31.5 68.4531 29.6406 68.4531
Q23.7344 68.4531 21.0625 65.8438
Q18.4062 63.2344 18.4062 56.3906
L18.4062 54.5469
L34.9688 54.5469
L34.9688 46.8281
L18.7031 46.8281
L18.7031 0
L9.51562 0
L9.51562 46.8281
L3.32812 46.8281
L3.32812 54.5469
L9.51562 54.5469
L9.51562 56.3438
Q9.51562 66.0625 14.3438 71.2656
Q19.1875 76.4688 28.3281 76.4688
Q31.3906 76.4688 33.8594 76.1719
Q36.3281 75.875 38.375 75.4844
z
" id="Verdana-66"/>
      <path d="
M57.0312 27.6875
Q57.0312 20.8438 55.0938 15.375
Q53.1719 9.90625 49.9062 6.20312
Q46.4375 2.34375 42.2812 0.40625
Q38.1406 -1.51562 33.1562 -1.51562
Q28.5156 -1.51562 25.0469 -0.40625
Q21.5781 0.6875 18.2188 2.54688
L17.625 0
L9.03125 0
L9.03125 75.9844
L18.2188 75.9844
L18.2188 48.8281
Q22.0781 52 26.4219 54.0312
Q30.7656 56.0625 36.1875 56.0625
Q45.8438 56.0625 51.4375 48.6406
Q57.0312 41.2188 57.0312 27.6875
M47.5625 27.4375
Q47.5625 37.2031 44.3281 42.25
Q41.1094 47.3125 33.9375 47.3125
Q29.9375 47.3125 25.8281 45.5781
Q21.7344 43.8438 18.2188 41.1094
L18.2188 9.85938
Q22.125 8.10938 24.9219 7.42188
Q27.7344 6.73438 31.2969 6.73438
Q38.9219 6.73438 43.2344 11.7344
Q47.5625 16.75 47.5625 27.4375" id="Verdana-62"/>
      <path id="Verdana-20"/>
      <path d="
M18.8906 63.6719
L8.54688 63.6719
L8.54688 73.1875
L18.8906 73.1875
z

M18.3125 0
L9.125 0
L9.125 54.5469
L18.3125 54.5469
z
" id="Verdana-69"/>
      <path d="
M26.0312 63.6719
L15.6719 63.6719
L15.6719 73.1875
L26.0312 73.1875
z

M25.4375 -1.3125
Q25.4375 -10.8906 20.5469 -15.7656
Q15.6719 -20.6562 7.46875 -20.6562
Q5.51562 -20.6562 2.3125 -20.2656
Q-0.875 -19.875 -3.03125 -19.2812
L-3.03125 -10.5469
L-2.54688 -10.5469
Q-1.17188 -11.0781 1.14062 -11.7656
Q3.46875 -12.4531 5.67188 -12.4531
Q9.1875 -12.4531 11.3281 -11.4688
Q13.4844 -10.5 14.5469 -8.54688
Q15.625 -6.59375 15.9375 -3.82812
Q16.2656 -1.07812 16.2656 2.875
L16.2656 46.8281
L4.89062 46.8281
L4.89062 54.5469
L25.4375 54.5469
z
" id="Verdana-6a"/>
      <path d="
M48 15.7188
Q48 8.25 41.8125 3.46875
Q35.6406 -1.3125 24.9531 -1.3125
Q18.8906 -1.3125 13.8438 0.125
Q8.79688 1.5625 5.375 3.26562
L5.375 13.5781
L5.85938 13.5781
Q10.2031 10.2969 15.5156 8.375
Q20.8438 6.45312 25.7344 6.45312
Q31.7812 6.45312 35.2031 8.40625
Q38.625 10.3594 38.625 14.5469
Q38.625 17.7812 36.7656 19.4375
Q34.9062 21.0938 29.6406 22.2656
Q27.6875 22.7031 24.5312 23.2812
Q21.3906 23.875 18.7969 24.5625
Q11.625 26.4688 8.60938 30.1562
Q5.60938 33.8438 5.60938 39.2031
Q5.60938 42.5781 7 45.5469
Q8.40625 48.5312 11.2344 50.875
Q13.9688 53.1719 18.1875 54.5156
Q22.4062 55.8594 27.6406 55.8594
Q32.5156 55.8594 37.5156 54.6562
Q42.5312 53.4688 45.8438 51.7656
L45.8438 41.9375
L45.3594 41.9375
Q41.8438 44.5312 36.8125 46.3125
Q31.7812 48.0938 26.9531 48.0938
Q21.9219 48.0938 18.4531 46.1562
Q14.9844 44.2344 14.9844 40.4375
Q14.9844 37.0625 17.0938 35.3594
Q19.1406 33.6406 23.7344 32.5625
Q26.2656 31.9844 29.4062 31.3906
Q32.5625 30.8125 34.6719 30.3281
Q41.0625 28.8594 44.5312 25.2969
Q48 21.6875 48 15.7188" id="Verdana-73"/>
      <path d="
M55.5156 27.25
Q55.5156 13.9219 48.6719 6.20312
Q41.8438 -1.51562 30.375 -1.51562
Q18.7969 -1.51562 11.9844 6.20312
Q5.17188 13.9219 5.17188 27.25
Q5.17188 40.5781 11.9844 48.3125
Q18.7969 56.0625 30.375 56.0625
Q41.8438 56.0625 48.6719 48.3125
Q55.5156 40.5781 55.5156 27.25
M46.0469 27.25
Q46.0469 37.8438 41.8906 42.9844
Q37.75 48.1406 30.375 48.1406
Q22.9062 48.1406 18.7812 42.9844
Q14.6562 37.8438 14.6562 27.25
Q14.6562 17 18.7969 11.6875
Q22.9531 6.39062 30.375 6.39062
Q37.7031 6.39062 41.875 11.6406
Q46.0469 16.8906 46.0469 27.25" id="Verdana-6f"/>
      <path d="
M54.6875 26.3125
L14.5 26.3125
Q14.5 21.2969 16.0156 17.5469
Q17.5312 13.8125 20.1719 11.4219
Q22.7031 9.07812 26.1875 7.90625
Q29.6875 6.73438 33.8906 6.73438
Q39.4531 6.73438 45.0938 8.95312
Q50.7344 11.1875 53.125 13.3281
L53.6094 13.3281
L53.6094 3.32812
Q48.9688 1.375 44.1406 0.046875
Q39.3125 -1.26562 33.9844 -1.26562
Q20.4062 -1.26562 12.7812 6.07812
Q5.17188 13.4219 5.17188 26.9531
Q5.17188 40.3281 12.4688 48.1875
Q19.7812 56.0625 31.6875 56.0625
Q42.7188 56.0625 48.7031 49.6094
Q54.6875 43.1719 54.6875 31.2969
z

M45.75 33.3438
Q45.7031 40.5781 42.1094 44.5312
Q38.5312 48.4844 31.2031 48.4844
Q23.8281 48.4844 19.4531 44.1406
Q15.0938 39.7969 14.5 33.3438
z
" id="Verdana-65"/>
      <path d="
M54.25 0
L45.0625 0
L45.0625 6.0625
Q40.4375 2.39062 36.1875 0.4375
Q31.9375 -1.51562 26.8125 -1.51562
Q18.2188 -1.51562 13.4219 3.73438
Q8.64062 8.98438 8.64062 19.1406
L8.64062 54.5469
L17.8281 54.5469
L17.8281 23.4844
Q17.8281 19.3438 18.2188 16.375
Q18.6094 13.4219 19.875 11.3281
Q21.1875 9.1875 23.2812 8.20312
Q25.3906 7.23438 29.3906 7.23438
Q32.9531 7.23438 37.1719 9.07812
Q41.4062 10.9375 45.0625 13.8125
L45.0625 54.5469
L54.25 54.5469
z
" id="Verdana-75"/>
      <path d="
M49.3594 3.42188
Q44.7812 1.21875 40.6562 0
Q36.5312 -1.21875 31.8906 -1.21875
Q25.9844 -1.21875 21.0469 0.515625
Q16.1094 2.25 12.5938 5.76562
Q9.03125 9.28125 7.07812 14.6406
Q5.125 20.0156 5.125 27.2031
Q5.125 40.5781 12.4688 48.1875
Q19.8281 55.8125 31.8906 55.8125
Q36.5781 55.8125 41.0938 54.4844
Q45.6094 53.1719 49.3594 51.2656
L49.3594 41.0625
L48.875 41.0625
Q44.6719 44.3438 40.2031 46.0938
Q35.75 47.8594 31.5 47.8594
Q23.6875 47.8594 19.1719 42.6094
Q14.6562 37.3594 14.6562 27.2031
Q14.6562 17.3281 19.0625 12.0312
Q23.4844 6.73438 31.5 6.73438
Q34.2812 6.73438 37.1562 7.46875
Q40.0469 8.20312 42.3281 9.375
Q44.3438 10.4062 46.0938 11.5469
Q47.8594 12.7031 48.875 13.5312
L49.3594 13.5312
z
" id="Verdana-63"/>
      <path d="
M54.6406 0
L45.4531 0
L45.4531 31.0625
Q45.4531 34.8125 45.0156 38.1094
Q44.5781 41.4062 43.4062 43.2656
Q42.1875 45.3125 39.8906 46.3125
Q37.5938 47.3125 33.9375 47.3125
Q30.1719 47.3125 26.0625 45.4531
Q21.9688 43.6094 18.2188 40.7188
L18.2188 0
L9.03125 0
L9.03125 54.5469
L18.2188 54.5469
L18.2188 48.4844
Q22.5156 52.0469 27.0938 54.0469
Q31.6875 56.0625 36.5312 56.0625
Q45.3594 56.0625 50 50.7344
Q54.6406 45.4062 54.6406 35.4062
z
" id="Verdana-6e"/>
      <path d="
M37.3594 0.484375
Q34.7656 -0.203125 31.7031 -0.640625
Q28.6562 -1.07812 26.2656 -1.07812
Q17.9219 -1.07812 13.5781 3.40625
Q9.23438 7.90625 9.23438 17.8281
L9.23438 46.8281
L3.03125 46.8281
L3.03125 54.5469
L9.23438 54.5469
L9.23438 70.2188
L18.4062 70.2188
L18.4062 54.5469
L37.3594 54.5469
L37.3594 46.8281
L18.4062 46.8281
L18.4062 21.9688
Q18.4062 17.6719 18.5938 15.25
Q18.7969 12.8438 19.9688 10.75
Q21.0469 8.79688 22.9219 7.89062
Q24.8125 6.98438 28.6562 6.98438
Q30.9062 6.98438 33.3438 7.64062
Q35.7969 8.29688 36.8594 8.73438
L37.3594 8.73438
z
" id="Verdana-74"/>
      <path d="
M56.2031 54.5469
L34.125 0
L24.9062 0
L2.98438 54.5469
L12.9375 54.5469
L29.8281 11.1406
L46.5781 54.5469
z
" id="Verdana-76"/>
      <path d="
M56.25 0
L44.6719 0
L29.2031 20.9531
L13.625 0
L2.9375 0
L24.2188 27.2031
L3.125 54.5469
L14.7031 54.5469
L30.0781 33.9375
L45.5156 54.5469
L56.25 54.5469
L34.8125 27.6875
z
" id="Verdana-78"/>
     </defs>
     <g transform="translate(206.5078125 418.509375)scale(0.12 -0.12)">
      <use xlink:href="#Verdana-4f"/>
      <use x="78.7109375" xlink:href="#Verdana-62"/>
      <use x="141.015625" xlink:href="#Verdana-6a"/>
      <use x="175.439453125" xlink:href="#Verdana-65"/>
      <use x="235.009765625" xlink:href="#Verdana-63"/>
      <use x="287.109375" xlink:href="#Verdana-74"/>
      <use x="326.513671875" xlink:href="#Verdana-69"/>
      <use x="353.955078125" xlink:href="#Verdana-76"/>
      <use x="412.259765625" xlink:href="#Verdana-65"/>
      <use x="471.830078125" xlink:href="#Verdana-20"/>
      <use x="506.986328125" xlink:href="#Verdana-66"/>
      <use x="542.142578125" xlink:href="#Verdana-75"/>
      <use x="605.423828125" xlink:href="#Verdana-6e"/>
      <use x="668.705078125" xlink:href="#Verdana-63"/>
      <use x="720.8046875" xlink:href="#Verdana-74"/>
      <use x="760.208984375" xlink:href="#Verdana-69"/>
      <use x="787.650390625" xlink:href="#Verdana-6f"/>
      <use x="848.34375" xlink:href="#Verdana-6e"/>
      <use x="911.625" xlink:href="#Verdana-20"/>
      <use x="946.78125" xlink:href="#Verdana-65"/>
      <use x="1006.3515625" xlink:href="#Verdana-78"/>
      <use x="1064.40625" xlink:href="#Verdana-65"/>
      <use x="1123.9765625" xlink:href="#Verdana-63"/>
      <use x="1176.076171875" xlink:href="#Verdana-74"/>
      <use x="1215.48046875" xlink:href="#Verdana-75"/>
      <use x="1278.76171875" xlink:href="#Verdana-69"/>
      <use x="1306.203125" xlink:href="#Verdana-6f"/>
      <use x="1366.896484375" xlink:href="#Verdana-6e"/>
      <use x="1430.177734375" xlink:href="#Verdana-73"/>
     </g>
    </g>
   </g>
   <g id="matplotlib.axis_2">
    <g id="ytick_1">
     <g id="line2d_18">
      <defs>
       <path d="
M0 0
L4 0" id="md7965d1ba0" style="stroke:#000000;stroke-width:0.5;"/>
      </defs>
      <g>
       <use style="stroke:#000000;stroke-width:0.5;" x="72.0" xlink:href="#md7965d1ba0" y="388.8"/>
      </g>
     </g>
     <g id="line2d_19">
      <defs>
       <path d="
M0 0
L-4 0" id="md9a1c1a7cd" style="stroke:#000000;stroke-width:0.5;"/>
      </defs>
      <g>
       <use style="stroke:#000000;stroke-width:0.5;" x="518.4" xlink:href="#md9a1c1a7cd" y="388.8"/>
      </g>
     </g>
     <g id="text_8">
      <!-- 0.0 -->
      <defs>
       <path d="
M24.0312 0
L12.3594 0
L12.3594 13.9219
L24.0312 13.9219
z
" id="Verdana-2e"/>
      </defs>
      <g transform="translate(49.97 392.1515625)scale(0.12 -0.12)">
       <use xlink:href="#Verdana-30"/>
       <use x="63.57421875" xlink:href="#Verdana-2e"/>
       <use x="99.951171875" xlink:href="#Verdana-30"/>
      </g>
     </g>
    </g>
    <g id="ytick_2">
     <g id="line2d_20">
      <g>
       <use style="stroke:#000000;stroke-width:0.5;" x="72.0" xlink:href="#md7965d1ba0" y="319.68"/>
      </g>
     </g>
     <g id="line2d_21">
      <g>
       <use style="stroke:#000000;stroke-width:0.5;" x="518.4" xlink:href="#md9a1c1a7cd" y="319.68"/>
      </g>
     </g>
     <g id="text_9">
      <!-- 0.2 -->
      <g transform="translate(49.95875 323.0315625)scale(0.12 -0.12)">
       <use xlink:href="#Verdana-30"/>
       <use x="63.57421875" xlink:href="#Verdana-2e"/>
       <use x="99.951171875" xlink:href="#Verdana-32"/>
      </g>
     </g>
    </g>
    <g id="ytick_3">
     <g id="line2d_22">
      <g>
       <use style="stroke:#000000;stroke-width:0.5;" x="72.0" xlink:href="#md7965d1ba0" y="250.56"/>
      </g>
     </g>
     <g id="line2d_23">
      <g>
       <use style="stroke:#000000;stroke-width:0.5;" x="518.4" xlink:href="#md9a1c1a7cd" y="250.56"/>
      </g>
     </g>
     <g id="text_10">
      <!-- 0.4 -->
      <g transform="translate(49.76 253.9115625)scale(0.12 -0.12)">
       <use xlink:href="#Verdana-30"/>
       <use x="63.57421875" xlink:href="#Verdana-2e"/>
       <use x="99.951171875" xlink:href="#Verdana-34"/>
      </g>
     </g>
    </g>
    <g id="ytick_4">
     <g id="line2d_24">
      <g>
       <use style="stroke:#000000;stroke-width:0.5;" x="72.0" xlink:href="#md7965d1ba0" y="181.44"/>
      </g>
     </g>
     <g id="line2d_25">
      <g>
       <use style="stroke:#000000;stroke-width:0.5;" x="518.4" xlink:href="#md9a1c1a7cd" y="181.44"/>
      </g>
     </g>
     <g id="text_11">
      <!-- 0.6 -->
      <defs>
       <path d="
M58.1562 23.5781
Q58.1562 12.5 50.8594 5.48438
Q43.5625 -1.51562 32.9531 -1.51562
Q27.5938 -1.51562 23.1875 0.140625
Q18.7969 1.8125 15.4375 5.07812
Q11.2344 9.125 8.95312 15.8125
Q6.6875 22.5156 6.6875 31.9375
Q6.6875 41.6094 8.76562 49.0781
Q10.8438 56.5469 15.375 62.3594
Q19.6719 67.875 26.4531 70.9688
Q33.25 74.0781 42.2812 74.0781
Q45.1719 74.0781 47.125 73.8281
Q49.0781 73.5781 51.0781 72.9531
L51.0781 63.625
L50.5938 63.625
Q49.2188 64.3594 46.4531 65.0156
Q43.7031 65.6719 40.8281 65.6719
Q30.3281 65.6719 24.0781 59.1094
Q17.8281 52.5469 16.7969 41.3594
Q20.9062 43.8438 24.875 45.1406
Q28.8594 46.4375 34.0781 46.4375
Q38.7188 46.4375 42.25 45.5781
Q45.7969 44.7344 49.5156 42.1406
Q53.8125 39.1562 55.9844 34.6094
Q58.1562 30.0781 58.1562 23.5781
M48.25 23.1875
Q48.25 27.7344 46.9062 30.7031
Q45.5625 33.6875 42.4844 35.8906
Q40.2344 37.4531 37.5 37.9375
Q34.7656 38.4219 31.7812 38.4219
Q27.6406 38.4219 24.0781 37.4375
Q20.5156 36.4688 16.75 34.4219
Q16.6562 33.3438 16.5938 32.3438
Q16.5469 31.3438 16.5469 29.8281
Q16.5469 22.125 18.1406 17.6562
Q19.7344 13.1875 22.5156 10.5938
Q24.75 8.45312 27.3594 7.45312
Q29.9844 6.45312 33.0625 6.45312
Q40.1406 6.45312 44.1875 10.7656
Q48.25 15.0938 48.25 23.1875" id="Verdana-36"/>
      </defs>
      <g transform="translate(49.829375 184.7915625)scale(0.12 -0.12)">
       <use xlink:href="#Verdana-30"/>
       <use x="63.57421875" xlink:href="#Verdana-2e"/>
       <use x="99.951171875" xlink:href="#Verdana-36"/>
      </g>
     </g>
    </g>
    <g id="ytick_5">
     <g id="line2d_26">
      <g>
       <use style="stroke:#000000;stroke-width:0.5;" x="72.0" xlink:href="#md7965d1ba0" y="112.32"/>
      </g>
     </g>
     <g id="line2d_27">
      <g>
       <use style="stroke:#000000;stroke-width:0.5;" x="518.4" xlink:href="#md9a1c1a7cd" y="112.32"/>
      </g>
     </g>
     <g id="text_12">
      <!-- 0.8 -->
      <defs>
       <path d="
M57.625 20.2656
Q57.625 10.8438 50.2656 4.59375
Q42.9219 -1.65625 31.7812 -1.65625
Q19.9688 -1.65625 12.9531 4.4375
Q5.95312 10.5469 5.95312 20.0625
Q5.95312 26.125 9.46875 31.0312
Q12.9844 35.9375 19.3906 38.8125
L19.3906 39.1094
Q13.5312 42.2344 10.7188 45.9375
Q7.90625 49.6562 7.90625 55.2188
Q7.90625 63.4219 14.6406 68.8906
Q21.3906 74.3594 31.7812 74.3594
Q42.6719 74.3594 49.1719 69.1406
Q55.6719 63.9219 55.6719 55.8594
Q55.6719 50.9219 52.5938 46.1562
Q49.5156 41.4062 43.5625 38.7188
L43.5625 38.4219
Q50.3906 35.5 54 31.2031
Q57.625 26.9062 57.625 20.2656
M46.0469 55.7656
Q46.0469 60.9844 42.0156 64.0781
Q37.9844 67.1875 31.7344 67.1875
Q25.5938 67.1875 21.6562 64.25
Q17.7188 61.3281 17.7188 56.3438
Q17.7188 52.8281 19.7031 50.2656
Q21.6875 47.7031 25.6875 45.7031
Q27.4844 44.8281 30.875 43.4062
Q34.2812 42 37.5 41.0625
Q42.3281 44.2812 44.1875 47.75
Q46.0469 51.2188 46.0469 55.7656
M47.5625 19.3438
Q47.5625 23.8281 45.5781 26.5312
Q43.6094 29.25 37.8438 31.9844
Q35.5469 33.0625 32.8125 33.9844
Q30.0781 34.9062 25.5312 36.5781
Q21.1406 34.1875 18.4844 30.0781
Q15.8281 25.9844 15.8281 20.7969
Q15.8281 14.2031 20.3594 9.90625
Q24.9062 5.60938 31.8906 5.60938
Q39.0156 5.60938 43.2812 9.26562
Q47.5625 12.9375 47.5625 19.3438" id="Verdana-38"/>
      </defs>
      <g transform="translate(49.893125 115.6715625)scale(0.12 -0.12)">
       <use xlink:href="#Verdana-30"/>
       <use x="63.57421875" xlink:href="#Verdana-2e"/>
       <use x="99.951171875" xlink:href="#Verdana-38"/>
      </g>
     </g>
    </g>
    <g id="ytick_6">
     <g id="line2d_28">
      <g>
       <use style="stroke:#000000;stroke-width:0.5;" x="72.0" xlink:href="#md7965d1ba0" y="43.2"/>
      </g>
     </g>
     <g id="line2d_29">
      <g>
       <use style="stroke:#000000;stroke-width:0.5;" x="518.4" xlink:href="#md9a1c1a7cd" y="43.2"/>
      </g>
     </g>
     <g id="text_13">
      <!-- 1.0 -->
      <g transform="translate(50.796875 46.5515625)scale(0.12 -0.12)">
       <use xlink:href="#Verdana-31"/>
       <use x="63.57421875" xlink:href="#Verdana-2e"/>
       <use x="99.951171875" xlink:href="#Verdana-30"/>
      </g>
     </g>
    </g>
    <g id="text_14">
     <!-- Rank 0 Probability -->
     <defs>
      <path d="
M56.2031 54.5469
L24.3594 -20.125
L14.5469 -20.125
L24.7031 2.64062
L2.98438 54.5469
L12.9375 54.5469
L29.6875 14.1094
L46.5781 54.5469
z
" id="Verdana-79"/>
      <path d="
M69.9219 0
L57.375 0
L33.0625 28.9062
L19.4375 28.9062
L19.4375 0
L9.76562 0
L9.76562 72.7031
L30.125 72.7031
Q36.7188 72.7031 41.1094 71.8438
Q45.5156 71 49.0312 68.7969
Q52.9844 66.3125 55.2031 62.5156
Q57.4219 58.7344 57.4219 52.9375
Q57.4219 45.0625 53.4688 39.7656
Q49.5156 34.4688 42.5781 31.7812
z

M47.3125 52.25
Q47.3125 55.375 46.2188 57.7812
Q45.125 60.2031 42.5781 61.8594
Q40.4844 63.2812 37.5938 63.8438
Q34.7188 64.4062 30.8125 64.4062
L19.4375 64.4062
L19.4375 36.9688
L29.2031 36.9688
Q33.7969 36.9688 37.2031 37.7656
Q40.625 38.5781 43.0156 40.7656
Q45.2188 42.8281 46.2656 45.4844
Q47.3125 48.1406 47.3125 52.25" id="Verdana-52"/>
      <path d="
M51.4219 0
L42.2812 0
L42.2812 5.8125
Q41.0625 4.98438 38.9844 3.48438
Q36.9219 2 34.9688 1.125
Q32.6719 0 29.6875 -0.75
Q26.7031 -1.51562 22.7031 -1.51562
Q15.3281 -1.51562 10.2031 3.35938
Q5.07812 8.25 5.07812 15.8281
Q5.07812 22.0156 7.73438 25.8438
Q10.4062 29.6875 15.3281 31.8906
Q20.3125 34.0781 27.2969 34.8594
Q34.2812 35.6406 42.2812 36.0312
L42.2812 37.4531
Q42.2812 40.5781 41.1875 42.625
Q40.0938 44.6719 38.0312 45.8438
Q36.0781 46.9688 33.3438 47.3594
Q30.6094 47.75 27.6406 47.75
Q24.0312 47.75 19.5781 46.7969
Q15.1406 45.8438 10.4062 44.0469
L9.90625 44.0469
L9.90625 53.375
Q12.5938 54.1094 17.6719 54.9844
Q22.75 55.8594 27.6875 55.8594
Q33.4531 55.8594 37.7188 54.9062
Q42 53.9531 45.125 51.6562
Q48.1875 49.4219 49.7969 45.8438
Q51.4219 42.2812 51.4219 37.0156
z

M42.2812 13.4219
L42.2812 28.6094
Q38.0938 28.375 32.3906 27.875
Q26.7031 27.3906 23.3906 26.4688
Q19.4375 25.3438 16.9844 22.9688
Q14.5469 20.6094 14.5469 16.4531
Q14.5469 11.7656 17.375 9.39062
Q20.2188 7.03125 26.0312 7.03125
Q30.8594 7.03125 34.8594 8.90625
Q38.875 10.7969 42.2812 13.4219" id="Verdana-61"/>
      <path d="
M57.3281 50.7344
Q57.3281 45.9062 55.6406 41.7656
Q53.9531 37.6406 50.9219 34.625
Q47.1719 30.8594 42.0469 28.9688
Q36.9219 27.0938 29.1094 27.0938
L19.4375 27.0938
L19.4375 0
L9.76562 0
L9.76562 72.7031
L29.5 72.7031
Q36.0312 72.7031 40.5781 71.6094
Q45.125 70.5156 48.6406 68.1719
Q52.7812 65.375 55.0469 61.2188
Q57.3281 57.0781 57.3281 50.7344
M47.2656 50.4844
Q47.2656 54.25 45.9375 57.0312
Q44.625 59.8125 41.9375 61.5781
Q39.5938 63.0938 36.5938 63.75
Q33.5938 64.4062 29 64.4062
L19.4375 64.4062
L19.4375 35.3594
L27.5938 35.3594
Q33.4531 35.3594 37.1094 36.4062
Q40.7656 37.4531 43.0625 39.75
Q45.3594 42.0938 46.3125 44.6719
Q47.2656 47.2656 47.2656 50.4844" id="Verdana-50"/>
      <path d="
M18.3125 0
L9.125 0
L9.125 75.9844
L18.3125 75.9844
z
" id="Verdana-6c"/>
      <path d="
M58.5469 0
L46.4375 0
L24.5625 23.875
L18.6094 18.2188
L18.6094 0
L9.42188 0
L9.42188 75.9844
L18.6094 75.9844
L18.6094 27.25
L45.125 54.5469
L56.6875 54.5469
L31.3438 29.3438
z
" id="Verdana-6b"/>
      <path d="
M43.0625 44.5312
L42.5781 44.5312
Q40.5312 45.0156 38.5938 45.2344
Q36.6719 45.4531 34.0312 45.4531
Q29.7812 45.4531 25.8281 43.5781
Q21.875 41.7031 18.2188 38.7188
L18.2188 0
L9.03125 0
L9.03125 54.5469
L18.2188 54.5469
L18.2188 46.4844
Q23.6875 50.875 27.8594 52.7031
Q32.0312 54.5469 36.375 54.5469
Q38.7656 54.5469 39.8438 54.4219
Q40.9219 54.2969 43.0625 53.9531
z
" id="Verdana-72"/>
     </defs>
     <g transform="translate(42.345 270.583125)rotate(-90.0)scale(0.12 -0.12)">
      <use xlink:href="#Verdana-52"/>
      <use x="67.53125" xlink:href="#Verdana-61"/>
      <use x="127.58984375" xlink:href="#Verdana-6e"/>
      <use x="190.87109375" xlink:href="#Verdana-6b"/>
      <use x="250.05078125" xlink:href="#Verdana-20"/>
      <use x="285.20703125" xlink:href="#Verdana-30"/>
      <use x="348.78125" xlink:href="#Verdana-20"/>
      <use x="383.9375" xlink:href="#Verdana-50"/>
      <use x="444.240234375" xlink:href="#Verdana-72"/>
      <use x="486.916015625" xlink:href="#Verdana-6f"/>
      <use x="547.609375" xlink:href="#Verdana-62"/>
      <use x="609.9140625" xlink:href="#Verdana-61"/>
      <use x="669.97265625" xlink:href="#Verdana-62"/>
      <use x="732.27734375" xlink:href="#Verdana-69"/>
      <use x="759.71875" xlink:href="#Verdana-6c"/>
      <use x="787.16015625" xlink:href="#Verdana-69"/>
      <use x="814.6015625" xlink:href="#Verdana-74"/>
      <use x="853.505859375" xlink:href="#Verdana-79"/>
     </g>
    </g>
   </g>
   <g id="patch_3">
    <path d="
M518.4 388.8
L518.4 43.2" style="fill:none;stroke:#000000;"/>
   </g>
   <g id="patch_4">
    <path d="
M72 43.2
L518.4 43.2" style="fill:none;stroke:#000000;"/>
   </g>
   <g id="patch_5">
    <path d="
M72 388.8
L518.4 388.8" style="fill:none;stroke:#000000;"/>
   </g>
   <g id="patch_6">
    <path d="
M72 388.8
L72 43.2" style="fill:none;stroke:#000000;"/>
   </g>
   <g id="text_15">
    <!-- OddSquare Rank 0 Probability -->
    <defs>
     <path d="
M53.2656 0
L44.0938 0
L44.0938 5.71875
Q40.1406 2.29688 35.8438 0.390625
Q31.5469 -1.51562 26.5156 -1.51562
Q16.75 -1.51562 11.0156 6
Q5.28125 13.5312 5.28125 26.8594
Q5.28125 33.7969 7.25 39.2031
Q9.23438 44.625 12.5938 48.4375
Q15.9219 52.1562 20.3281 54.1094
Q24.75 56.0625 29.5 56.0625
Q33.7969 56.0625 37.1094 55.1562
Q40.4375 54.25 44.0938 52.3438
L44.0938 75.9844
L53.2656 75.9844
z

M44.0938 13.4219
L44.0938 44.7344
Q40.375 46.3906 37.4375 47.0156
Q34.5156 47.6562 31.0625 47.6562
Q23.3438 47.6562 19.0469 42.2812
Q14.75 36.9219 14.75 27.0469
Q14.75 17.3281 18.0625 12.2812
Q21.3906 7.23438 28.7188 7.23438
Q32.625 7.23438 36.625 8.95312
Q40.625 10.6875 44.0938 13.4219" id="Verdana-64"/>
     <path d="
M62.5938 20.75
Q62.5938 16.5 60.6094 12.3438
Q58.6406 8.20312 55.0781 5.32812
Q51.1719 2.20312 45.9688 0.4375
Q40.7656 -1.3125 33.4531 -1.3125
Q25.5938 -1.3125 19.3125 0.140625
Q13.0312 1.60938 6.54688 4.5
L6.54688 16.6094
L7.23438 16.6094
Q12.75 12.0156 19.9688 9.51562
Q27.2031 7.03125 33.5469 7.03125
Q42.5312 7.03125 47.5312 10.3906
Q52.5469 13.7656 52.5469 19.3906
Q52.5469 24.2188 50.1719 26.5156
Q47.7969 28.8125 42.9688 30.0781
Q39.3125 31.0625 35.0312 31.6875
Q30.7656 32.3281 25.9844 33.2969
Q16.3125 35.3594 11.6406 40.3125
Q6.98438 45.2656 6.98438 53.2188
Q6.98438 62.3594 14.6875 68.1875
Q22.4062 74.0312 34.2812 74.0312
Q41.9375 74.0312 48.3281 72.5625
Q54.7344 71.0938 59.6719 68.9531
L59.6719 57.5156
L58.9844 57.5156
Q54.8281 61.0312 48.0625 63.3438
Q41.3125 65.6719 34.2344 65.6719
Q26.4688 65.6719 21.75 62.4531
Q17.0469 59.2344 17.0469 54.1562
Q17.0469 49.6094 19.3906 47.0156
Q21.7344 44.4375 27.6406 43.0625
Q30.7656 42.3906 36.5156 41.4062
Q42.2812 40.4375 46.2969 39.4062
Q54.3906 37.25 58.4844 32.9062
Q62.5938 28.5625 62.5938 20.75" id="Verdana-53"/>
     <path d="
M53.2656 -20.125
L44.0938 -20.125
L44.0938 6.15625
Q39.8438 2.48438 35.6406 0.703125
Q31.4531 -1.07812 26.5625 -1.07812
Q16.8438 -1.07812 11.0625 6.42188
Q5.28125 13.9219 5.28125 27.0938
Q5.28125 34.125 7.29688 39.5156
Q9.32812 44.9219 12.6406 48.5781
Q15.875 52.1562 20.2188 54.1094
Q24.5625 56.0625 29.3906 56.0625
Q33.7969 56.0625 37.1875 55.0781
Q40.5781 54.1094 44.0938 52.2031
L44.6719 54.5469
L53.2656 54.5469
z

M44.0938 13.875
L44.0938 44.7344
Q40.2812 46.4375 37.3438 47.1094
Q34.4219 47.7969 31 47.7969
Q23.0469 47.7969 18.8906 42.4062
Q14.75 37.0156 14.75 27.5469
Q14.75 17.9688 18.0938 12.8125
Q21.4375 7.67188 28.6094 7.67188
Q32.625 7.67188 36.625 9.40625
Q40.625 11.1406 44.0938 13.875" id="Verdana-71"/>
    </defs>
    <g transform="translate(186.877125 38.2)scale(0.144 -0.144)">
     <use xlink:href="#Verdana-4f"/>
     <use x="78.7109375" xlink:href="#Verdana-64"/>
     <use x="141.015625" xlink:href="#Verdana-64"/>
     <use x="203.3203125" xlink:href="#Verdana-53"/>
     <use x="271.6796875" xlink:href="#Verdana-71"/>
     <use x="333.984375" xlink:href="#Verdana-75"/>
     <use x="397.265625" xlink:href="#Verdana-61"/>
     <use x="457.32421875" xlink:href="#Verdana-72"/>
     <use x="500.0" xlink:href="#Verdana-65"/>
     <use x="559.5703125" xlink:href="#Verdana-20"/>
     <use x="594.7265625" xlink:href="#Verdana-52"/>
     <use x="662.2578125" xlink:href="#Verdana-61"/>
     <use x="722.31640625" xlink:href="#Verdana-6e"/>
     <use x="785.59765625" xlink:href="#Verdana-6b"/>
     <use x="844.77734375" xlink:href="#Verdana-20"/>
     <use x="879.93359375" xlink:href="#Verdana-30"/>
     <use x="943.5078125" xlink:href="#Verdana-20"/>
     <use x="978.6640625" xlink:href="#Verdana-50"/>
     <use x="1038.966796875" xlink:href="#Verdana-72"/>
     <use x="1081.642578125" xlink:href="#Verdana-6f"/>
     <use x="1142.3359375" xlink:href="#Verdana-62"/>
     <use x="1204.640625" xlink:href="#Verdana-61"/>
     <use x="1264.69921875" xlink:href="#Verdana-62"/>
     <use x="1327.00390625" xlink:href="#Verdana-69"/>
     <use x="1354.4453125" xlink:href="#Verdana-6c"/>
     <use x="1381.88671875" xlink:href="#Verdana-69"/>
     <use x="1409.328125" xlink:href="#Verdana-74"/>
     <use x="1448.232421875" xlink:href="#Verdana-79"/>
    </g>
   </g>
   <g id="legend_1">
    <g id="patch_7">
     <path d="
M79.2 270.759
L183.22 270.759
L183.22 161.241
L79.2 161.241
L79.2 270.759
z
" style="fill:#ffffff;stroke:#000000;"/>
    </g>
    <g id="line2d_30">
     <path d="
M89.28 172.902
L109.44 172.902" style="fill:none;stroke:#0000ff;stroke-dasharray:6.000000,2.000000;stroke-dashoffset:0.0;"/>
    </g>
    <g id="line2d_31"/>
    <g id="text_16">
     <!-- AMPGO -->
     <defs>
      <path d="
M74.5156 0
L64.8438 0
L64.8438 62.6406
L44.625 20.0156
L38.875 20.0156
L18.7969 62.6406
L18.7969 0
L9.76562 0
L9.76562 72.7031
L22.9531 72.7031
L42.3281 32.2344
L61.0781 72.7031
L74.5156 72.7031
z
" id="Verdana-4d"/>
      <path d="
M67.0938 0
L56.7812 0
L49.6562 20.2656
L18.2188 20.2656
L11.0781 0
L1.26562 0
L27.7344 72.7031
L40.625 72.7031
z

M46.6875 28.5625
L33.9375 64.2656
L21.1406 28.5625
z
" id="Verdana-41"/>
      <path d="
M70.4062 5.375
Q64.4531 2.64062 57.3906 0.609375
Q50.3438 -1.42188 43.75 -1.42188
Q35.25 -1.42188 28.1719 0.921875
Q21.0938 3.26562 16.1094 7.95312
Q11.0781 12.7031 8.34375 19.7969
Q5.60938 26.9062 5.60938 36.4219
Q5.60938 53.8594 15.7969 63.9375
Q25.9844 74.0312 43.75 74.0312
Q49.9531 74.0312 56.4219 72.5312
Q62.8906 71.0469 70.3594 67.4844
L70.3594 56
L69.4844 56
Q67.9688 57.1719 65.0781 59.0781
Q62.2031 60.9844 59.4219 62.25
Q56.0625 63.7656 51.7812 64.7656
Q47.5156 65.7656 42.0938 65.7656
Q29.8906 65.7656 22.7812 57.9219
Q15.6719 50.0938 15.6719 36.7188
Q15.6719 22.6094 23.0938 14.7656
Q30.5156 6.9375 43.3125 6.9375
Q48 6.9375 52.6562 7.85938
Q57.3281 8.79688 60.8438 10.25
L60.8438 28.0781
L41.3594 28.0781
L41.3594 36.5781
L70.4062 36.5781
z
" id="Verdana-47"/>
     </defs>
     <g transform="translate(125.28 177.942375)scale(0.144 -0.144)">
      <use xlink:href="#Verdana-41"/>
      <use x="68.359375" xlink:href="#Verdana-4d"/>
      <use x="152.63671875" xlink:href="#Verdana-50"/>
      <use x="212.939453125" xlink:href="#Verdana-47"/>
      <use x="290.478515625" xlink:href="#Verdana-4f"/>
     </g>
    </g>
    <g id="line2d_32">
     <path d="
M89.28 193.942
L109.44 193.942" style="fill:none;stroke:#008000;stroke-dasharray:1.000000,1.000000;stroke-dashoffset:0.0;"/>
    </g>
    <g id="line2d_33"/>
    <g id="text_17">
     <!-- Anneal -->
     <g transform="translate(125.28 198.982125)scale(0.144 -0.144)">
      <use xlink:href="#Verdana-41"/>
      <use x="68.359375" xlink:href="#Verdana-6e"/>
      <use x="131.640625" xlink:href="#Verdana-6e"/>
      <use x="194.921875" xlink:href="#Verdana-65"/>
      <use x="254.4921875" xlink:href="#Verdana-61"/>
      <use x="314.55078125" xlink:href="#Verdana-6c"/>
     </g>
    </g>
    <g id="line2d_34">
     <path d="
M89.28 214.982
L109.44 214.982" style="fill:none;stroke:#ff0000;stroke-dasharray:3.000000,6.000000;stroke-dashoffset:0.0;"/>
    </g>
    <g id="line2d_35"/>
    <g id="text_18">
     <!-- BSA -->
     <defs>
      <path d="
M64.5938 22.3594
Q64.5938 16.9375 62.5469 12.7812
Q60.5 8.64062 57.0312 5.95312
Q52.9375 2.73438 48.0156 1.35938
Q43.1094 0 35.5469 0
L9.76562 0
L9.76562 72.7031
L31.2969 72.7031
Q39.2656 72.7031 43.2188 72.1094
Q47.1719 71.5312 50.7812 69.6719
Q54.7812 67.5781 56.5938 64.2812
Q58.4062 60.9844 58.4062 56.3906
Q58.4062 51.2188 55.7656 47.5781
Q53.125 43.9531 48.7344 41.75
L48.7344 41.3594
Q56.1094 39.8438 60.3438 34.8906
Q64.5938 29.9375 64.5938 22.3594
M48.3438 55.125
Q48.3438 57.7656 47.4531 59.5625
Q46.5781 61.375 44.625 62.5
Q42.3281 63.8125 39.0625 64.125
Q35.7969 64.4531 30.9531 64.4531
L19.4375 64.4531
L19.4375 43.4531
L31.9375 43.4531
Q36.4688 43.4531 39.1562 43.9219
Q41.8438 44.3906 44.1406 45.8438
Q46.4375 47.3125 47.3906 49.625
Q48.3438 51.9531 48.3438 55.125
M54.5469 21.9688
Q54.5469 26.375 53.2188 28.9531
Q51.9062 31.5469 48.4375 33.3438
Q46.0938 34.5781 42.75 34.9375
Q39.4062 35.2969 34.625 35.2969
L19.4375 35.2969
L19.4375 8.25
L32.2344 8.25
Q38.5781 8.25 42.625 8.90625
Q46.6875 9.57812 49.2656 11.3281
Q52 13.2344 53.2656 15.6719
Q54.5469 18.1094 54.5469 21.9688" id="Verdana-42"/>
     </defs>
     <g transform="translate(125.28 220.021875)scale(0.144 -0.144)">
      <use xlink:href="#Verdana-42"/>
      <use x="68.5546875" xlink:href="#Verdana-53"/>
      <use x="135.9140625" xlink:href="#Verdana-41"/>
     </g>
    </g>
    <g id="line2d_36">
     <path d="
M89.28 236.022
L109.44 236.022" style="fill:none;stroke:#00bfbf;stroke-dasharray:5.000000,1.000000,2.000000,1.000000,5.000000,1.000000;stroke-dashoffset:0.0;"/>
    </g>
    <g id="line2d_37"/>
    <g id="text_19">
     <!-- Cuckoo -->
     <defs>
      <path d="
M65.9219 5.28125
Q63.2344 4.10938 61.0625 3.07812
Q58.8906 2.04688 55.375 0.921875
Q52.3906 0 48.8906 -0.65625
Q45.4062 -1.3125 41.2188 -1.3125
Q33.2969 -1.3125 26.8281 0.90625
Q20.3594 3.125 15.5781 7.85938
Q10.8906 12.5 8.25 19.6562
Q5.60938 26.8125 5.60938 36.2812
Q5.60938 45.2656 8.14062 52.3438
Q10.6875 59.4219 15.4844 64.3125
Q20.125 69.0469 26.6875 71.5312
Q33.25 74.0312 41.2656 74.0312
Q47.125 74.0312 52.9531 72.6094
Q58.7969 71.1875 65.9219 67.625
L65.9219 56.1562
L65.1875 56.1562
Q59.1875 61.1875 53.2656 63.4688
Q47.3594 65.7656 40.625 65.7656
Q35.1094 65.7656 30.6875 63.9844
Q26.2656 62.2031 22.7969 58.4531
Q19.4375 54.7812 17.5469 49.1875
Q15.6719 43.6094 15.6719 36.2812
Q15.6719 28.6094 17.75 23.0938
Q19.8281 17.5781 23.0938 14.1094
Q26.5156 10.5 31.0781 8.76562
Q35.6406 7.03125 40.7188 7.03125
Q47.7031 7.03125 53.7969 9.42188
Q59.9062 11.8125 65.2344 16.6094
L65.9219 16.6094
z
" id="Verdana-43"/>
     </defs>
     <g transform="translate(125.28 241.061625)scale(0.144 -0.144)">
      <use xlink:href="#Verdana-43"/>
      <use x="69.82421875" xlink:href="#Verdana-75"/>
      <use x="133.10546875" xlink:href="#Verdana-63"/>
      <use x="185.205078125" xlink:href="#Verdana-6b"/>
      <use x="243.384765625" xlink:href="#Verdana-6f"/>
      <use x="304.078125" xlink:href="#Verdana-6f"/>
     </g>
    </g>
    <g id="line2d_38">
     <path d="
M89.28 257.061
L109.44 257.061" style="fill:none;stroke:#bf00bf;stroke-linecap:square;"/>
    </g>
    <g id="line2d_39"/>
    <g id="text_20">
     <!-- qABC -->
     <g transform="translate(125.28 262.101375)scale(0.144 -0.144)">
      <use xlink:href="#Verdana-71"/>
      <use x="62.3046875" xlink:href="#Verdana-41"/>
      <use x="130.6640625" xlink:href="#Verdana-42"/>
      <use x="199.21875" xlink:href="#Verdana-43"/>
     </g>
    </g>
   </g>
  </g>
 </g>
 <defs>
  <clipPath id="p7ff5b81e1d">
   <rect height="345.6" width="446.4" x="72.0" y="43.2"/>
  </clipPath>
 </defs>
</svg>
