<?xml version="1.0" encoding="utf-8" standalone="no"?>
<!DOCTYPE svg PUBLIC "-//W3C//DTD SVG 1.1//EN"
  "http://www.w3.org/Graphics/SVG/1.1/DTD/svg11.dtd">
<!-- Created with matplotlib (http://matplotlib.org/) -->
<svg height="432pt" version="1.1" viewBox="0 0 576 432" width="576pt" xmlns="http://www.w3.org/2000/svg" xmlns:xlink="http://www.w3.org/1999/xlink">
 <defs>
  <style type="text/css">
*{stroke-linecap:butt;stroke-linejoin:round;}
  </style>
 </defs>
 <g id="figure_1">
  <g id="patch_1">
   <path d="
M0 432
L576 432
L576 0
L0 0
z
" style="fill:#ffffff;"/>
  </g>
  <g id="axes_1">
   <g id="patch_2">
    <path d="
M72 388.8
L518.4 388.8
L518.4 43.2
L72 43.2
z
" style="fill:#ffffff;"/>
   </g>
   <g id="line2d_1">
    <path clip-path="url(#p7ff5b81e1d)" d="
M72 86.1522
L76.464 86.1522
L76.6426 89.9732
L80.928 89.9732
L81.1066 91.6497
L85.392 91.6497
L85.5706 92.6358
L89.856 92.6358
L90.0346 93.5792
L94.32 93.5792
L94.4986 94.8892
L98.784 94.8892
L98.9626 97.4129
L103.248 97.4129
L103.427 98.3774
L107.712 98.3774
L107.891 99.1332
L112.176 99.1332
L112.355 99.8162
L116.64 99.8162
L116.819 100.397
L121.104 100.397
L121.283 100.935
L125.568 100.935
L125.747 101.398
L130.032 101.398
L130.211 101.754
L134.496 101.754
L134.675 102.076
L138.96 102.076
L139.139 102.387
L143.424 102.387
L143.603 102.714
L147.888 102.714
L148.067 102.996
L152.352 102.996
L152.531 103.302
L156.816 103.302
L156.995 103.647
L161.28 103.647
L161.459 103.974
L165.744 103.974
L165.923 104.326
L170.208 104.326
L170.387 104.697
L174.672 104.697
L174.851 105.08
L179.136 105.08
L179.315 105.499
L183.6 105.499
L183.779 105.98
L188.064 105.98
L188.243 106.411
L192.528 106.411
L192.707 106.883
L196.992 106.883
L197.171 107.326
L201.456 107.326
L201.635 107.659
L205.92 107.659
L206.099 108.05
L210.384 108.05
L210.563 108.447
L214.848 108.447
L215.027 108.824
L219.312 108.824
L219.491 109.195
L223.776 109.195
L223.955 109.539
L228.24 109.539
L228.419 109.882
L232.704 109.882
L232.883 110.162
L237.168 110.162
L237.347 110.436
L241.632 110.436
L241.811 110.693
L246.096 110.693
L246.275 110.935
L250.56 110.935
L250.739 111.19
L255.024 111.19
L255.203 111.409
L259.488 111.409
L259.667 111.621
L263.952 111.621
L264.131 111.83
L268.416 111.83
L268.595 112.042
L272.88 112.042
L273.059 112.241
L277.344 112.241
L277.523 112.427
L281.808 112.427
L281.987 112.608
L286.272 112.608
L286.451 112.866
L290.736 112.866
L290.915 113.031
L295.2 113.031
L295.379 113.218
L299.664 113.218
L299.843 113.379
L304.128 113.379
L304.307 113.535
L308.592 113.535
L308.771 113.697
L313.056 113.697
L313.235 113.871
L317.52 113.871
L317.699 114.018
L321.984 114.018
L322.163 114.172
L326.448 114.172
L326.627 114.332
L330.912 114.332
L331.091 114.467
L335.376 114.467
L335.555 114.697
L339.84 114.697
L340.019 114.851
L344.304 114.851
L344.483 115.022
L348.768 115.022
L348.947 115.196
L353.232 115.196
L353.411 115.423
L357.696 115.423
L357.875 115.584
L362.16 115.584
L362.339 115.729
L366.624 115.729
L366.803 115.878
L371.088 115.878
L371.267 116.034
L375.552 116.034
L375.731 116.17
L380.016 116.17
L380.195 116.311
L384.48 116.311
L384.659 116.462
L388.944 116.462
L389.123 116.627
L393.408 116.627
L393.587 116.773
L397.872 116.773
L398.051 116.885
L402.336 116.885
L402.515 117.031
L406.8 117.031
L406.979 117.172
L411.264 117.172
L411.443 117.3
L415.728 117.3
L415.907 117.429
L420.192 117.429
L420.371 117.56
L424.656 117.56
L424.835 117.688
L429.12 117.688
L429.299 117.825
L433.584 117.825
L433.763 117.972
L438.048 117.972
L438.227 118.105
L442.512 118.105
L442.691 118.336
L446.976 118.336
L447.155 118.466
L451.44 118.466
L451.619 118.63
L455.904 118.63
L456.083 118.831
L460.368 118.831
L460.547 118.951
L469.296 119.06
L469.475 119.2
L473.76 119.2
L473.939 119.337
L478.224 119.337
L478.403 119.467
L487.152 119.555
L487.331 119.671
L491.616 119.671
L491.795 119.805
L496.08 119.805
L496.259 119.926
L505.008 120.024
L505.187 120.138
L513.936 120.24
L514.115 120.352
L518.311 120.352
L518.311 120.352" style="fill:none;stroke:#0000ff;stroke-dasharray:6.000000,2.000000;stroke-dashoffset:0.0;"/>
   </g>
   <g id="line2d_2">
    <path clip-path="url(#p7ff5b81e1d)" d="
M72 86.2205
L72.7142 90.0243
L74.7677 102.599
L75.3034 105.761
L76.9104 115.102
L78.2496 122.68
L79.4102 129.302
L80.4816 134.864
L81.4637 139.892
L82.1779 143.231
L82.8922 146.683
L84.4992 153.743
L85.2134 156.794
L86.2848 161.365
L87.624 166.758
L89.0525 172.44
L93.2486 186.887
L94.1414 189.796
L99.6768 206.109
L100.659 208.772
L101.909 212.274
L105.748 221.424
L107.355 224.841
L107.891 226.108
L110.569 231.565
L112.355 235.102
L113.247 236.627
L115.033 239.914
L118.693 246.292
L119.229 247.167
L120.658 249.608
L124.05 254.646
L124.764 255.62
L125.479 256.712
L126.282 257.839
L127.086 258.953
L127.621 259.793
L133.068 266.907
L133.96 267.879
L134.585 268.736
L138.871 273.776
L140.031 274.837
L142.263 277.177
L142.978 277.851
L143.424 278.306
L144.406 279.274
L144.852 279.7
L145.567 280.297
L146.37 281.005
L147.084 281.623
L147.531 282.058
L147.709 282.214
L151.906 285.912
L152.798 286.61
L156.548 289.745
L158.512 291.212
L159.405 291.95
L160.387 292.698
L160.834 293.034
L161.637 293.602
L166.369 296.89
L168.155 297.981
L169.047 298.514
L177.172 303.455
L178.154 304.053
L178.868 304.391
L181.279 305.737
L182.529 306.451
L183.243 306.863
L184.404 307.509
L186.189 308.452
L194.939 312.733
L196.456 313.426
L205.116 317.136
L205.92 317.499
L206.813 317.846
L214.491 320.753
L228.686 325.773
L229.579 326.059
L231.722 326.784
L232.615 327.038
L233.865 327.417
L235.025 327.754
L238.061 328.69
L238.954 328.988
L240.918 329.552
L241.721 329.792
L242.346 329.966
L242.971 330.127
L244.31 330.471
L249.399 331.803
L252.346 332.611
L252.971 332.807
L255.292 333.408
L256.363 333.677
L275.558 338.381
L276.005 338.507
L284.754 340.496
L297.7 343.151
L299.039 343.413
L303.324 344.196
L305.646 344.628
L306.806 344.872
L312.252 345.824
L313.235 346.025
L317.163 346.701
L319.038 347.036
L323.412 347.85
L325.02 348.159
L334.126 349.775
L340.644 350.835
L341.358 350.968
L343.768 351.379
L346.625 351.83
L350.643 352.398
L352.161 352.638
L354.75 353.047
L357.071 353.373
L359.392 353.701
L361.089 353.995
L380.016 356.601
L381.98 356.876
L382.873 357.004
L386.712 357.481
L388.14 357.732
L395.461 358.684
L396.801 358.862
L400.55 359.373
L402.157 359.592
L403.407 359.748
L406.8 360.162
L411.353 360.721
L417.246 361.411
L450.994 365.29
L454.208 365.645
L458.672 366.074
L461.172 366.345
L462.511 366.493
L468.135 367.03
L469.564 367.193
L472.867 367.5
L478.67 368.055
L479.92 368.2
L481.438 368.334
L484.474 368.621
L488.223 368.962
L498.848 369.943
L501.169 370.151
L518.311 371.644
L518.311 371.644" style="fill:none;stroke:#008000;stroke-dasharray:1.000000,1.000000;stroke-dashoffset:0.0;"/>
   </g>
   <g id="line2d_3">
    <path clip-path="url(#p7ff5b81e1d)" d="
M72 86.0417
L72.0893 90.7631
L72.2678 94.6487
L72.625 98.1599
L73.1606 100.856
L73.607 102.172
L73.6963 102.359
L74.1427 105.544
L74.5891 107.311
L74.9462 108.519
L75.6605 110.786
L76.1069 112.824
L76.3747 113.571
L76.7318 114.588
L77.3568 116.117
L77.8032 117.899
L78.1603 118.774
L79.1424 121.306
L79.7674 123.521
L80.303 124.629
L82.2672 128.949
L82.6243 129.419
L83.5171 131.827
L84.1421 132.822
L84.4099 133.266
L84.767 134.383
L85.4813 135.725
L86.2848 136.982
L86.8205 138.483
L87.0883 138.81
L89.1418 142.324
L89.856 143.278
L90.3024 144.198
L90.8381 145.116
L91.1059 145.449
L92.6237 147.893
L93.2486 148.589
L93.4272 148.913
L93.7843 149.539
L94.0522 149.903
L94.4093 150.422
L95.3914 151.496
L95.7485 152.022
L96.3734 153.015
L96.9984 153.751
L97.2662 154.118
L97.4448 154.377
L97.9805 155.188
L98.6054 155.73
L99.1411 156.358
L100.034 157.539
L100.57 158.12
L101.016 158.533
L103.962 161.926
L104.23 162.218
L104.676 162.688
L106.016 163.932
L107.087 165.119
L108.069 166.017
L108.426 166.311
L108.873 166.745
L109.319 167.109
L109.855 167.615
L110.48 168.219
L111.551 169.152
L112.087 169.586
L112.622 169.969
L112.98 170.317
L113.604 170.937
L113.872 171.09
L114.14 171.383
L115.212 172.23
L115.479 172.522
L117.354 174.116
L117.89 174.502
L121.193 177.232
L122.086 177.887
L122.622 178.329
L123.068 178.75
L123.961 179.47
L125.836 180.8
L126.461 181.309
L127.264 181.759
L128.068 182.345
L129.139 183.05
L129.496 183.404
L129.675 183.542
L131.907 184.908
L135.3 186.805
L135.657 187.107
L142.442 191.181
L142.978 191.4
L143.692 191.747
L144.852 192.403
L145.388 192.758
L146.281 193.198
L146.638 193.405
L155.209 198.201
L155.745 198.448
L156.191 198.741
L156.548 198.873
L156.905 199.138
L157.441 199.447
L157.977 199.786
L158.244 199.935
L159.137 200.449
L162.441 202.112
L164.494 203.003
L166.101 203.923
L166.458 204.041
L173.422 207.277
L173.779 207.455
L177.708 209.368
L177.975 209.548
L179.047 209.937
L179.94 210.394
L181.279 210.984
L182.529 211.579
L183.154 211.807
L184.314 212.216
L185.832 212.883
L186.189 213.009
L189.582 214.42
L190.653 214.872
L195.474 216.853
L195.831 216.996
L196.367 217.202
L199.492 218.425
L200.474 218.757
L200.92 218.961
L205.92 220.594
L206.277 220.721
L207.259 221.088
L209.313 221.899
L210.741 222.435
L211.455 222.754
L211.991 222.99
L212.973 223.279
L213.687 223.573
L213.955 223.689
L214.848 223.947
L215.652 224.192
L216.544 224.456
L217.259 224.671
L217.973 224.942
L220.473 225.826
L221.008 226.034
L221.544 226.247
L226.365 228.002
L228.419 228.66
L230.293 229.291
L231.186 229.54
L233.775 230.589
L234.311 230.739
L234.936 230.923
L235.829 231.204
L241.007 232.82
L241.453 233.001
L242.525 233.195
L242.971 233.353
L243.953 233.635
L245.025 234.024
L245.65 234.182
L247.078 234.645
L248.596 235.09
L248.953 235.202
L249.935 235.435
L251.096 235.74
L251.81 235.937
L252.435 236.092
L253.685 236.501
L254.756 236.77
L256.185 237.307
L257.077 237.564
L258.06 237.85
L260.202 238.444
L261.988 238.88
L288.147 246.312
L288.772 246.474
L290.111 246.79
L291.093 246.999
L293.325 247.51
L294.039 247.658
L295.646 248.021
L296.271 248.251
L297.164 248.426
L298.146 248.666
L299.307 248.979
L300.557 249.353
L301.182 249.599
L303.324 250.103
L303.949 250.213
L305.199 250.592
L306.628 250.948
L307.699 251.197
L308.146 251.306
L308.681 251.432
L310.288 251.837
L310.824 251.964
L311.27 252.059
L312.699 252.416
L313.86 252.761
L315.199 253.094
L319.038 254.121
L319.663 254.241
L324.841 255.53
L325.287 255.641
L326.18 255.84
L329.573 256.735
L330.019 256.855
L331.001 257.077
L331.626 257.251
L332.34 257.384
L332.876 257.526
L336.18 258.222
L336.715 258.357
L337.787 258.649
L340.733 259.373
L341.179 259.52
L342.251 259.751
L342.697 259.854
L361.089 264.011
L362.339 264.291
L363.946 264.571
L364.571 264.729
L365.285 264.896
L365.91 265.076
L368.052 265.427
L369.124 265.675
L370.284 265.877
L371.356 266.108
L371.981 266.197
L373.499 266.64
L378.32 267.495
L379.302 267.714
L380.73 267.912
L382.159 268.153
L383.319 268.366
L385.194 268.728
L385.73 268.898
L386.712 269.07
L387.783 269.277
L389.033 269.497
L389.658 269.644
L390.551 269.82
L392.426 270.105
L393.229 270.272
L393.944 270.437
L395.461 270.741
L396.533 270.917
L397.515 271.123
L398.765 271.353
L399.3 271.484
L401.086 271.835
L402.157 272.046
L402.515 272.111
L403.14 272.248
L406.532 273.04
L407.425 273.211
L408.675 273.441
L410.282 273.769
L419.121 275.506
L420.549 275.757
L422.513 276.089
L426.62 276.752
L428.406 277.011
L428.852 277.102
L429.745 277.247
L434.298 278.071
L436.887 278.527
L439.744 279.106
L440.816 279.298
L441.53 279.404
L448.583 280.737
L452.69 281.446
L454.118 281.641
L454.476 281.752
L454.922 281.846
L461.975 283.094
L462.421 283.204
L463.314 283.422
L465.1 283.73
L471.796 284.864
L472.689 285.073
L474.474 285.343
L475.635 285.514
L476.796 285.684
L477.778 285.817
L480.099 286.181
L480.724 286.278
L484.563 286.866
L485.456 286.994
L487.152 287.167
L488.045 287.302
L490.634 287.737
L491.705 287.941
L492.687 288.108
L495.098 288.52
L518.311 292.117
L518.311 292.117" style="fill:none;stroke:#ff0000;stroke-dasharray:3.000000,6.000000;stroke-dashoffset:0.0;"/>
   </g>
   <g id="line2d_4">
    <path clip-path="url(#p7ff5b81e1d)" d="
M72 86.2148
L72.0893 90.5187
L72.2678 94.609
L72.625 98.2034
L73.1606 100.832
L73.8749 102.823
L74.3213 103.576
L74.6784 104.05
L75.0355 104.518
L75.4819 104.995
L75.839 109.758
L76.2854 113.328
L76.8211 115.781
L77.089 116.68
L77.3568 117.449
L79.0531 118.09
L79.4995 122.882
L79.9459 125.661
L80.303 127.426
L81.0173 129.194
L82.6243 129.496
L83.0707 133.149
L84.4099 138.968
L86.1955 139.177
L86.5526 142.118
L87.3562 146.26
L87.9811 148.52
L89.7667 148.629
L90.5702 153.467
L91.3738 156.328
L91.6416 156.84
L93.3379 156.918
L93.9629 160.337
L95.1235 164.751
L96.1949 164.787
L96.9091 164.799
L97.5341 168.486
L97.8912 169.984
L98.784 172.799
L100.48 172.836
L101.373 176.965
L102.355 179.918
L104.052 179.947
L104.855 183.617
L105.748 186.689
L105.926 186.941
L107.623 186.958
L108.158 189.135
L109.408 193.194
L111.194 193.207
L111.372 193.809
L111.819 195.508
L111.997 196.181
L112.533 198.077
L113.158 199.061
L114.765 199.077
L116.551 204.908
L118.336 204.934
L118.872 206.692
L119.229 207.721
L120.211 210.131
L121.908 210.156
L122.265 211.509
L123.247 214.397
L123.693 215.234
L125.479 215.251
L126.104 216.862
L126.282 217.251
L126.907 218.781
L126.996 218.89
L127.264 219.566
L129.05 219.576
L130.211 222.324
L130.836 223.472
L132.621 223.501
L133.157 224.862
L133.425 225.473
L134.407 227.417
L136.192 227.427
L137.442 230.137
L137.621 230.526
L137.978 231.159
L139.764 231.181
L140.031 231.639
L141.013 233.691
L141.728 234.54
L143.335 234.559
L144.585 237.256
L145.21 238.152
L146.906 238.165
L147.174 238.783
L148.781 241.274
L150.477 241.282
L151.191 242.634
L152.084 244.053
L152.441 244.272
L154.048 244.287
L155.655 246.882
L156.012 247.127
L157.62 247.155
L158.602 248.471
L159.405 249.515
L161.191 249.534
L162.887 252.165
L163.066 252.294
L164.762 252.319
L165.03 252.765
L165.923 253.907
L166.726 254.708
L168.422 254.812
L168.869 255.546
L169.315 256.174
L170.119 257.133
L171.904 257.167
L172.886 258.53
L173.422 259.167
L173.779 259.492
L175.565 259.621
L176.458 260.714
L176.725 261.079
L176.815 261.114
L177.083 261.42
L177.529 261.559
L178.868 261.579
L179.136 261.617
L179.582 262.183
L180.297 262.874
L180.832 263.376
L182.618 263.401
L183.511 264.448
L184.671 265.302
L186.278 265.375
L187.975 266.67
L189.85 266.741
L190.475 267.417
L191.189 268.178
L191.814 268.497
L193.421 268.586
L194.403 269.438
L195.385 270.001
L196.992 270.093
L197.349 270.439
L197.796 270.876
L198.153 271.254
L198.42 271.469
L198.688 271.663
L200.563 271.814
L201.01 272.283
L201.456 272.767
L202.349 273.419
L204.134 273.508
L205.116 274.417
L206.188 274.854
L207.795 274.963
L209.58 276.216
L211.366 276.327
L212.08 277.023
L212.527 277.374
L212.973 277.624
L214.759 277.642
L215.384 278.435
L215.83 278.725
L216.812 279.215
L218.33 279.228
L219.133 280.005
L220.383 280.604
L221.99 280.701
L222.705 281.189
L223.151 281.64
L223.508 281.848
L223.955 281.976
L225.562 282.064
L225.919 282.323
L227.347 283.249
L229.133 283.316
L229.847 283.812
L230.115 284.011
L230.472 284.243
L230.74 284.551
L231.008 284.604
L232.704 284.683
L233.24 285
L234.311 285.527
L234.668 285.565
L236.364 285.665
L236.722 285.924
L237.257 286.325
L238.329 286.663
L239.936 286.769
L240.293 286.967
L240.561 287.172
L241.096 287.574
L241.632 288.066
L243.507 288.144
L244.221 288.636
L245.025 288.942
L245.203 289.071
L246.989 289.175
L247.346 289.388
L247.435 289.422
L247.703 289.699
L248.774 290.546
L250.56 290.619
L250.739 290.772
L251.185 290.979
L251.721 291.261
L251.988 291.484
L252.881 291.633
L254.131 291.663
L254.399 291.896
L254.667 292.04
L255.381 292.451
L255.738 292.614
L256.006 292.662
L257.702 292.729
L258.774 293.356
L260.024 293.624
L261.363 293.725
L263.238 294.476
L264.756 294.486
L265.202 294.944
L265.47 295.142
L265.648 295.424
L266.452 295.805
L267.255 295.833
L268.505 295.913
L269.934 296.763
L272.076 296.91
L272.344 297.107
L272.523 297.256
L272.791 297.579
L273.416 297.984
L273.684 298.203
L275.648 298.289
L275.916 298.449
L276.451 298.704
L278.148 299.021
L279.13 299.078
L280.647 299.957
L281.094 300.021
L282.612 300.041
L282.879 300.198
L282.969 300.23
L283.147 300.427
L283.504 300.669
L283.861 300.842
L285.379 301.079
L286.361 301.183
L286.629 301.302
L287.968 301.892
L290.022 302.018
L291.004 302.819
L291.361 302.931
L291.897 303.066
L293.414 303.128
L293.682 303.292
L294.039 303.469
L294.307 303.602
L295.021 304.034
L295.2 304.127
L296.986 304.169
L297.789 304.759
L297.878 304.763
L298.057 305.003
L298.414 305.126
L298.86 305.27
L300.646 305.355
L301.717 305.942
L302.164 306.041
L302.342 306.148
L304.217 306.262
L305.11 306.755
L305.646 306.919
L305.914 307.104
L307.61 307.106
L307.967 307.499
L308.324 307.636
L309.753 308.421
L311.449 308.499
L311.717 308.675
L312.163 308.872
L313.145 309.368
L315.288 309.579
L316.27 309.912
L317.431 310.056
L318.681 310.127
L318.859 310.241
L319.306 310.43
L319.663 310.74
L322.073 310.88
L322.966 311.371
L324.037 311.618
L325.734 311.71
L326.984 312.386
L327.609 312.497
L329.216 312.588
L329.93 312.833
L330.823 313.489
L331.894 313.504
L332.876 313.605
L334.572 314.256
L336.447 314.329
L336.715 314.463
L338.233 315.081
L339.751 315.084
L340.108 315.477
L340.465 315.659
L341.001 315.787
L341.447 316.061
L341.893 316.096
L343.679 316.175
L344.036 316.369
L345.018 316.601
L345.286 316.643
L347.161 316.721
L348.411 317.316
L350.286 317.384
L350.821 317.487
L351.446 317.741
L353.321 317.959
L354.036 317.964
L354.303 318.2
L356.714 318.638
L357.785 318.748
L358.053 318.823
L358.41 318.974
L358.857 319.248
L359.214 319.366
L359.66 319.557
L361.356 319.602
L361.981 319.997
L363.678 320.323
L364.928 320.4
L365.196 320.615
L365.731 320.751
L366.713 321.151
L368.677 321.26
L369.749 321.521
L370.463 321.675
L372.427 321.772
L373.052 322.012
L373.766 322.347
L375.731 322.437
L375.998 322.549
L376.266 322.849
L376.534 322.913
L376.713 323.071
L378.498 323.176
L379.48 323.242
L379.748 323.421
L380.016 323.548
L380.373 323.693
L380.73 323.787
L380.909 323.865
L382.962 323.972
L383.23 324.053
L385.016 324.527
L386.355 324.595
L387.337 325.123
L387.694 325.228
L388.14 325.349
L390.105 325.427
L390.462 325.675
L390.64 325.803
L390.819 325.849
L391.087 326.074
L391.355 326.141
L391.622 326.212
L393.765 326.294
L393.944 326.555
L394.301 326.626
L394.836 326.852
L395.64 326.984
L397.068 327.075
L397.336 327.169
L397.604 327.237
L397.872 327.431
L399.211 327.652
L400.729 327.752
L400.997 327.986
L401.622 328.084
L402.068 328.309
L404.389 328.41
L405.104 328.575
L405.461 328.796
L405.729 328.963
L405.907 329.061
L407.871 329.168
L408.139 329.336
L408.318 329.418
L408.586 329.57
L411.353 329.78
L411.621 329.963
L412.068 330.018
L412.514 330.323
L413.05 330.459
L414.746 330.463
L414.924 330.587
L415.728 330.812
L416.889 331.201
L418.585 331.293
L420.638 331.68
L421.888 331.689
L422.156 331.846
L423.049 332.135
L423.317 332.209
L425.102 332.304
L425.727 332.431
L426.263 332.579
L426.442 332.683
L427.692 332.825
L429.299 332.911
L430.102 333.242
L430.281 333.322
L430.459 333.456
L430.638 333.579
L433.138 333.829
L434.566 334.327
L436.887 334.543
L437.066 334.703
L437.423 334.882
L437.691 335.043
L437.959 335.164
L439.923 335.241
L440.369 335.34
L440.548 335.387
L440.726 335.497
L441.441 335.587
L441.708 335.628
L443.762 335.736
L445.101 336.274
L447.333 336.376
L447.601 336.582
L448.137 336.676
L448.672 336.779
L450.636 336.859
L450.994 336.914
L451.261 336.943
L451.44 337.058
L451.976 337.158
L452.511 337.196
L454.476 337.28
L454.833 337.482
L457.332 337.71
L458.493 337.803
L459.564 338.278
L461.707 338.386
L464.118 338.662
L464.832 338.664
L465.011 338.837
L466.082 339.256
L466.26 339.306
L466.528 339.432
L468.403 339.482
L468.671 339.717
L469.385 339.867
L469.742 340.046
L472.778 340.305
L474.028 340.633
L475.903 340.741
L476.349 340.849
L476.706 340.969
L477.153 341.024
L479.117 341.133
L479.295 341.225
L479.831 341.295
L480.01 341.397
L482.599 341.483
L482.867 341.621
L483.402 341.797
L483.67 341.85
L484.652 341.967
L486.438 342.052
L488.313 342.873
L489.92 342.96
L490.366 343.299
L491.259 343.429
L491.616 343.504
L493.759 343.589
L494.473 343.762
L497.151 343.951
L498.312 344.369
L499.83 344.495
L501.526 344.602
L503.758 344.787
L504.919 344.884
L505.812 345.098
L508.311 345.232
L508.668 345.344
L508.936 345.445
L509.918 345.591
L511.525 345.671
L511.793 345.861
L513.043 346.195
L515.097 346.246
L515.364 346.36
L515.989 346.424
L516.257 346.505
L518.311 346.553
L518.311 346.553" style="fill:none;stroke:#00bfbf;stroke-dasharray:5.000000,1.000000,2.000000,1.000000,5.000000,1.000000;stroke-dashoffset:0.0;"/>
   </g>
   <g id="line2d_5">
    <path clip-path="url(#p7ff5b81e1d)" d="
M72 86.3873
L72.0893 90.9911
L72.2678 94.9337
L72.625 98.451
L73.1606 101.037
L73.6963 102.537
L75.4819 103.005
L76.1962 103.986
L76.7318 104.668
L77.3568 105.42
L79.2317 105.987
L79.5888 106.418
L79.9459 106.84
L80.928 107.785
L82.3565 108.013
L82.7136 108.159
L83.2493 108.783
L84.5885 110.01
L86.1955 110.22
L88.249 112.147
L89.856 112.474
L91.1952 113.69
L91.6416 114.021
L92.5344 114.196
L93.4272 114.363
L95.1235 115.938
L96.9091 116.207
L98.159 117.348
L98.6054 117.728
L98.784 117.856
L100.57 118.157
L101.105 118.621
L102.355 119.555
L103.337 119.666
L104.23 119.897
L105.123 120.662
L106.016 121.236
L107.891 121.662
L108.605 122.283
L109.587 122.999
L111.462 123.405
L113.247 124.72
L114.319 124.859
L114.944 125.046
L115.479 125.504
L115.836 125.823
L116.729 126.449
L118.604 126.895
L119.497 127.653
L120.211 128.199
L121.908 128.393
L123.961 129.85
L125.657 130.162
L127.264 131.571
L128.157 131.679
L129.139 131.891
L130.836 133.283
L132.889 133.698
L133.603 134.236
L134.407 134.877
L136.103 135.077
L136.282 135.155
L137.353 135.978
L137.978 136.514
L140.031 136.997
L141.728 138.255
L143.424 138.457
L143.87 138.801
L145.388 139.844
L146.906 140.014
L149.138 141.46
L150.656 141.76
L152.531 143.153
L154.138 143.368
L156.012 144.835
L157.798 145.122
L159.762 146.442
L161.28 146.667
L162.619 147.742
L163.066 148.052
L164.851 148.282
L165.298 148.661
L166.815 149.809
L168.422 150.07
L169.137 150.632
L170.297 151.487
L171.904 151.692
L172.44 152.147
L173.333 152.875
L173.779 153.221
L175.476 153.386
L177.44 154.896
L179.225 155.215
L180.922 156.449
L182.618 156.608
L184.493 158.097
L186.189 158.239
L187.707 159.398
L188.064 159.612
L189.85 159.862
L191.546 161.347
L193.421 161.57
L194.135 162.197
L195.385 162.927
L196.903 163.039
L198.778 164.458
L200.563 164.723
L202.527 166.069
L204.224 166.367
L206.009 167.701
L207.884 168.092
L208.598 168.755
L209.58 169.368
L210.295 169.449
L211.277 169.579
L213.152 171.064
L214.759 171.228
L215.294 171.665
L215.83 172.073
L216.276 172.401
L216.634 172.565
L218.598 172.919
L220.116 174.03
L221.99 174.296
L223.776 175.777
L224.847 175.904
L225.472 175.952
L226.097 176.457
L227.526 177.407
L229.222 177.65
L230.651 178.665
L230.918 178.834
L232.615 178.938
L234.043 180.078
L235.025 180.356
L236.364 180.602
L237.525 181.385
L238.239 181.737
L239.936 181.968
L241.811 183.156
L243.418 183.349
L243.953 183.758
L245.471 184.683
L246.632 184.796
L246.989 184.896
L247.524 185.223
L248.239 185.754
L248.774 186.1
L250.56 186.285
L251.453 186.892
L251.721 187.067
L252.256 187.477
L254.131 187.703
L255.292 188.5
L255.649 188.753
L256.006 188.906
L257.792 189.183
L258.595 189.732
L259.309 190.203
L259.577 190.305
L261.363 190.568
L262.077 191.086
L263.416 191.784
L264.934 192.024
L266.541 193.117
L268.595 193.427
L269.577 194.179
L270.291 194.535
L271.987 194.73
L272.434 195.05
L273.951 196.034
L275.469 196.16
L277.523 197.462
L279.04 197.566
L279.576 197.917
L281.272 198.811
L282.701 198.982
L283.415 199.49
L284.576 200.175
L286.004 200.302
L286.272 200.385
L286.718 200.69
L288.236 201.518
L289.932 201.741
L290.915 202.319
L291.54 202.714
L293.593 203.02
L294.843 203.873
L295.2 204.031
L297.164 204.319
L297.611 204.608
L298.057 204.954
L298.771 205.392
L300.557 205.57
L301.985 206.357
L302.342 206.542
L304.217 206.727
L305.378 207.467
L306.271 207.771
L307.699 207.923
L308.771 208.623
L309.485 208.982
L311.36 209.195
L312.342 209.798
L313.413 210.193
L314.752 210.282
L316.716 211.446
L318.502 211.644
L319.306 212.126
L320.645 212.726
L322.073 212.915
L322.877 213.405
L323.948 213.921
L325.644 214.118
L326.18 214.401
L327.073 214.875
L327.43 214.979
L328.412 215.042
L329.126 215.156
L329.841 215.585
L331.18 216.21
L332.876 216.505
L333.412 216.818
L334.662 217.382
L336.447 217.613
L337.965 218.447
L339.929 218.647
L341.447 219.536
L341.893 219.586
L343.411 219.735
L345.197 220.698
L346.982 220.846
L347.964 221.364
L348.857 221.759
L350.732 222.01
L352.428 222.825
L354.125 222.992
L356 223.997
L357.607 224.094
L358.5 224.594
L359.482 225.105
L361.178 225.189
L361.892 225.575
L362.964 226.117
L364.838 226.296
L366.803 227.226
L368.231 227.29
L368.499 227.373
L370.106 228.262
L371.981 228.387
L372.874 228.904
L374.213 229.314
L375.731 229.495
L377.605 230.279
L379.391 230.576
L381.266 231.306
L382.784 231.477
L383.587 231.942
L384.391 232.408
L386.444 232.633
L387.069 232.975
L387.873 233.395
L388.14 233.46
L390.105 233.71
L390.908 234.139
L391.801 234.438
L393.319 234.528
L395.194 235.456
L397.158 235.677
L398.676 236.421
L400.55 236.559
L402.515 237.301
L404.122 237.405
L404.747 237.679
L406.175 238.227
L407.782 238.361
L409.478 239.11
L411.443 239.264
L412.871 239.924
L413.228 239.981
L415.103 240.198
L416.085 240.649
L416.71 240.877
L418.496 241.054
L418.942 241.277
L420.103 241.81
L421.978 241.923
L422.424 242.124
L423.049 242.413
L424.031 242.69
L425.638 242.833
L427.245 243.631
L429.12 243.777
L430.191 244.219
L431.352 244.526
L432.959 244.733
L434.477 245.395
L435.816 245.457
L436.441 245.568
L436.977 245.851
L437.691 246.12
L438.137 246.246
L439.834 246.349
L440.459 246.638
L441.708 247.142
L443.316 247.233
L445.19 247.971
L447.155 248.154
L448.672 248.827
L450.815 249.068
L452.958 249.652
L454.297 249.805
L456.083 250.433
L458.136 250.689
L459.207 251.11
L459.564 251.198
L461.707 251.495
L462.421 251.761
L463.136 252
L465.278 252.305
L465.903 252.557
L466.796 252.82
L468.671 253.009
L469.742 253.428
L470.903 253.597
L472.242 253.795
L473.581 254.372
L473.939 254.412
L475.813 254.62
L477.153 255.182
L477.599 255.235
L479.652 255.595
L480.992 256.095
L482.777 256.256
L485.009 256.87
L486.527 257.055
L487.956 257.641
L489.83 257.758
L492.062 258.368
L493.491 258.461
L495.634 259.052
L497.241 259.2
L498.133 259.572
L498.848 259.792
L500.633 259.918
L502.419 260.509
L504.204 260.647
L506.079 261.244
L507.954 261.398
L509.472 261.889
L511.258 261.987
L513.043 262.615
L514.918 262.719
L517.329 263.285
L518.311 263.319
L518.311 263.319" style="fill:none;stroke:#bf00bf;stroke-linecap:square;"/>
   </g>
   <g id="matplotlib.axis_1">
    <g id="xtick_1">
     <g id="line2d_6">
      <defs>
       <path d="
M0 0
L0 -4" id="mc7db9fdffb" style="stroke:#000000;stroke-width:0.5;"/>
      </defs>
      <g>
       <use style="stroke:#000000;stroke-width:0.5;" x="72.0" xlink:href="#mc7db9fdffb" y="388.8"/>
      </g>
     </g>
     <g id="line2d_7">
      <defs>
       <path d="
M0 0
L0 4" id="m5a7d422ac3" style="stroke:#000000;stroke-width:0.5;"/>
      </defs>
      <g>
       <use style="stroke:#000000;stroke-width:0.5;" x="72.0" xlink:href="#m5a7d422ac3" y="43.2"/>
      </g>
     </g>
     <g id="text_1">
      <!-- 0 -->
      <defs>
       <path d="
M56.9844 36.375
Q56.9844 16.7969 50.8594 7.64062
Q44.7344 -1.51562 31.8438 -1.51562
Q18.75 -1.51562 12.7188 7.76562
Q6.6875 17.0469 6.6875 36.2812
Q6.6875 55.6719 12.7812 64.9219
Q18.8906 74.1719 31.8438 74.1719
Q44.9219 74.1719 50.9531 64.7656
Q56.9844 55.375 56.9844 36.375
M44.1406 14.2031
Q45.8438 18.1719 46.4531 23.5156
Q47.0781 28.8594 47.0781 36.375
Q47.0781 43.7969 46.4531 49.2656
Q45.8438 54.7344 44.0938 58.5469
Q42.3906 62.3125 39.4219 64.2031
Q36.4688 66.1094 31.8438 66.1094
Q27.25 66.1094 24.2344 64.2031
Q21.2344 62.3125 19.4844 58.4531
Q17.8281 54.8281 17.2188 49.0156
Q16.6094 43.2188 16.6094 36.2812
Q16.6094 28.6562 17.1406 23.5312
Q17.6719 18.4062 19.4375 14.3594
Q21.0469 10.5469 24 8.54688
Q26.9531 6.54688 31.8438 6.54688
Q36.4219 6.54688 39.4531 8.45312
Q42.4844 10.3594 44.1406 14.2031" id="Verdana-30"/>
      </defs>
      <g transform="translate(68.9821875 401.918125)scale(0.12 -0.12)">
       <use xlink:href="#Verdana-30"/>
      </g>
     </g>
    </g>
    <g id="xtick_2">
     <g id="line2d_8">
      <g>
       <use style="stroke:#000000;stroke-width:0.5;" x="161.28" xlink:href="#mc7db9fdffb" y="388.8"/>
      </g>
     </g>
     <g id="line2d_9">
      <g>
       <use style="stroke:#000000;stroke-width:0.5;" x="161.28" xlink:href="#m5a7d422ac3" y="43.2"/>
      </g>
     </g>
     <g id="text_2">
      <!-- 1000 -->
      <defs>
       <path d="
M52.9375 0
L13.5781 0
L13.5781 7.42188
L28.7188 7.42188
L28.7188 56.1562
L13.5781 56.1562
L13.5781 62.7969
Q16.6562 62.7969 20.1719 63.2969
Q23.6875 63.8125 25.4844 64.7969
Q27.7344 66.0156 29.0312 67.8906
Q30.3281 69.7812 30.5156 72.9531
L38.0938 72.9531
L38.0938 7.42188
L52.9375 7.42188
z
" id="Verdana-31"/>
      </defs>
      <g transform="translate(147.2315625 401.918125)scale(0.12 -0.12)">
       <use xlink:href="#Verdana-31"/>
       <use x="63.57421875" xlink:href="#Verdana-30"/>
       <use x="127.1484375" xlink:href="#Verdana-30"/>
       <use x="190.72265625" xlink:href="#Verdana-30"/>
      </g>
     </g>
    </g>
    <g id="xtick_3">
     <g id="line2d_10">
      <g>
       <use style="stroke:#000000;stroke-width:0.5;" x="250.56" xlink:href="#mc7db9fdffb" y="388.8"/>
      </g>
     </g>
     <g id="line2d_11">
      <g>
       <use style="stroke:#000000;stroke-width:0.5;" x="250.56" xlink:href="#m5a7d422ac3" y="43.2"/>
      </g>
     </g>
     <g id="text_3">
      <!-- 2000 -->
      <defs>
       <path d="
M57.0781 0
L7.85938 0
L7.85938 10.2031
Q12.9844 14.5938 18.1406 18.9844
Q23.2969 23.3906 27.7344 27.7344
Q37.1094 36.8125 40.5781 42.1562
Q44.0469 47.5156 44.0469 53.7188
Q44.0469 59.375 40.3125 62.5625
Q36.5781 65.7656 29.8906 65.7656
Q25.4375 65.7656 20.2656 64.2031
Q15.0938 62.6406 10.1562 59.4219
L9.67188 59.4219
L9.67188 69.6719
Q13.1406 71.3906 18.9219 72.7969
Q24.7031 74.2188 30.125 74.2188
Q41.3125 74.2188 47.6562 68.8125
Q54 63.4219 54 54.2031
Q54 50.0469 52.9531 46.4531
Q51.9062 42.875 49.8594 39.6562
Q47.9531 36.625 45.3906 33.6875
Q42.8281 30.7656 39.1562 27.2031
Q33.9375 22.0781 28.3594 17.2656
Q22.7969 12.4531 17.9688 8.34375
L57.0781 8.34375
z
" id="Verdana-32"/>
      </defs>
      <g transform="translate(236.1684375 401.918125)scale(0.12 -0.12)">
       <use xlink:href="#Verdana-32"/>
       <use x="63.57421875" xlink:href="#Verdana-30"/>
       <use x="127.1484375" xlink:href="#Verdana-30"/>
       <use x="190.72265625" xlink:href="#Verdana-30"/>
      </g>
     </g>
    </g>
    <g id="xtick_4">
     <g id="line2d_12">
      <g>
       <use style="stroke:#000000;stroke-width:0.5;" x="339.84" xlink:href="#mc7db9fdffb" y="388.8"/>
      </g>
     </g>
     <g id="line2d_13">
      <g>
       <use style="stroke:#000000;stroke-width:0.5;" x="339.84" xlink:href="#m5a7d422ac3" y="43.2"/>
      </g>
     </g>
     <g id="text_4">
      <!-- 3000 -->
      <defs>
       <path d="
M50.6875 35.0156
Q53.0312 32.9062 54.5469 29.7344
Q56.0625 26.5625 56.0625 21.5312
Q56.0625 16.5469 54.25 12.3906
Q52.4375 8.25 49.1719 5.17188
Q45.5156 1.76562 40.5469 0.125
Q35.5938 -1.51562 29.6875 -1.51562
Q23.6406 -1.51562 17.7812 -0.0625
Q11.9219 1.375 8.15625 3.07812
L8.15625 13.2812
L8.89062 13.2812
Q13.0312 10.5469 18.6406 8.73438
Q24.2656 6.9375 29.5 6.9375
Q32.5625 6.9375 36.0312 7.95312
Q39.5 8.98438 41.6562 10.9844
Q43.8906 13.1406 44.9844 15.7188
Q46.0938 18.3125 46.0938 22.2656
Q46.0938 26.1719 44.8438 28.7344
Q43.6094 31.2969 41.4062 32.7656
Q39.2031 34.2812 36.0781 34.8438
Q32.9531 35.4062 29.3438 35.4062
L24.9531 35.4062
L24.9531 43.5
L28.375 43.5
Q35.7969 43.5 40.2031 46.5938
Q44.625 49.7031 44.625 55.6719
Q44.625 58.2969 43.5 60.2656
Q42.3906 62.25 40.375 63.5312
Q38.2812 64.7969 35.8906 65.2812
Q33.5 65.7656 30.4688 65.7656
Q25.8281 65.7656 20.5938 64.1094
Q15.375 62.4531 10.75 59.4219
L10.25 59.4219
L10.25 69.625
Q13.7188 71.3438 19.5 72.7812
Q25.2969 74.2188 30.7188 74.2188
Q36.0312 74.2188 40.0781 73.2344
Q44.1406 72.2656 47.4062 70.125
Q50.9219 67.7812 52.7344 64.4531
Q54.5469 61.1406 54.5469 56.6875
Q54.5469 50.6406 50.2656 46.125
Q46 41.6094 40.1875 40.4375
L40.1875 39.75
Q42.5312 39.3594 45.5469 38.1094
Q48.5781 36.8594 50.6875 35.0156" id="Verdana-33"/>
      </defs>
      <g transform="translate(325.46625 401.918125)scale(0.12 -0.12)">
       <use xlink:href="#Verdana-33"/>
       <use x="63.57421875" xlink:href="#Verdana-30"/>
       <use x="127.1484375" xlink:href="#Verdana-30"/>
       <use x="190.72265625" xlink:href="#Verdana-30"/>
      </g>
     </g>
    </g>
    <g id="xtick_5">
     <g id="line2d_14">
      <g>
       <use style="stroke:#000000;stroke-width:0.5;" x="429.12" xlink:href="#mc7db9fdffb" y="388.8"/>
      </g>
     </g>
     <g id="line2d_15">
      <g>
       <use style="stroke:#000000;stroke-width:0.5;" x="429.12" xlink:href="#m5a7d422ac3" y="43.2"/>
      </g>
     </g>
     <g id="text_5">
      <!-- 4000 -->
      <defs>
       <path d="
M58.7344 20.4531
L47.9531 20.4531
L47.9531 0
L38.5781 0
L38.5781 20.4531
L3.76562 20.4531
L3.76562 31.6875
L38.9688 72.7031
L47.9531 72.7031
L47.9531 28.2656
L58.7344 28.2656
z

M38.5781 28.2656
L38.5781 61.0781
L10.4062 28.2656
z
" id="Verdana-34"/>
      </defs>
      <g transform="translate(414.4828125 401.918125)scale(0.12 -0.12)">
       <use xlink:href="#Verdana-34"/>
       <use x="63.57421875" xlink:href="#Verdana-30"/>
       <use x="127.1484375" xlink:href="#Verdana-30"/>
       <use x="190.72265625" xlink:href="#Verdana-30"/>
      </g>
     </g>
    </g>
    <g id="xtick_6">
     <g id="line2d_16">
      <g>
       <use style="stroke:#000000;stroke-width:0.5;" x="518.4" xlink:href="#mc7db9fdffb" y="388.8"/>
      </g>
     </g>
     <g id="line2d_17">
      <g>
       <use style="stroke:#000000;stroke-width:0.5;" x="518.4" xlink:href="#m5a7d422ac3" y="43.2"/>
      </g>
     </g>
     <g id="text_6">
      <!-- 5000 -->
      <defs>
       <path d="
M56.5 23.0938
Q56.5 18.0156 54.6406 13.375
Q52.7812 8.73438 49.5625 5.5625
Q46.0469 2.15625 41.1875 0.3125
Q36.3281 -1.51562 29.9375 -1.51562
Q23.9688 -1.51562 18.4531 -0.265625
Q12.9375 0.984375 9.125 2.73438
L9.125 13.0312
L9.8125 13.0312
Q13.8125 10.5 19.1875 8.71875
Q24.5625 6.9375 29.7344 6.9375
Q33.2031 6.9375 36.4531 7.90625
Q39.7031 8.89062 42.2344 11.3281
Q44.3906 13.4219 45.4844 16.3438
Q46.5781 19.2812 46.5781 23.1406
Q46.5781 26.9062 45.2812 29.4844
Q44 32.0781 41.7031 33.6406
Q39.1562 35.5 35.5156 36.25
Q31.8906 37.0156 27.3906 37.0156
Q23.0938 37.0156 19.1094 36.4219
Q15.1406 35.8438 12.25 35.25
L12.25 72.7031
L56 72.7031
L56 64.1562
L21.6875 64.1562
L21.6875 44.8281
Q23.7812 45.0156 25.9688 45.1094
Q28.1719 45.2188 29.7812 45.2188
Q35.6875 45.2188 40.125 44.2188
Q44.5781 43.2188 48.2969 40.6719
Q52.2031 37.9844 54.3438 33.7344
Q56.5 29.5 56.5 23.0938" id="Verdana-35"/>
      </defs>
      <g transform="translate(504.084375 401.918125)scale(0.12 -0.12)">
       <use xlink:href="#Verdana-35"/>
       <use x="63.57421875" xlink:href="#Verdana-30"/>
       <use x="127.1484375" xlink:href="#Verdana-30"/>
       <use x="190.72265625" xlink:href="#Verdana-30"/>
      </g>
     </g>
    </g>
    <g id="text_7">
     <!-- Objective function exectuions -->
     <defs>
      <path d="
M57.0312 27.6875
Q57.0312 20.8438 55.0938 15.375
Q53.1719 9.90625 49.9062 6.20312
Q46.4375 2.34375 42.2812 0.40625
Q38.1406 -1.51562 33.1562 -1.51562
Q28.5156 -1.51562 25.0469 -0.40625
Q21.5781 0.6875 18.2188 2.54688
L17.625 0
L9.03125 0
L9.03125 75.9844
L18.2188 75.9844
L18.2188 48.8281
Q22.0781 52 26.4219 54.0312
Q30.7656 56.0625 36.1875 56.0625
Q45.8438 56.0625 51.4375 48.6406
Q57.0312 41.2188 57.0312 27.6875
M47.5625 27.4375
Q47.5625 37.2031 44.3281 42.25
Q41.1094 47.3125 33.9375 47.3125
Q29.9375 47.3125 25.8281 45.5781
Q21.7344 43.8438 18.2188 41.1094
L18.2188 9.85938
Q22.125 8.10938 24.9219 7.42188
Q27.7344 6.73438 31.2969 6.73438
Q38.9219 6.73438 43.2344 11.7344
Q47.5625 16.75 47.5625 27.4375" id="Verdana-62"/>
      <path d="
M56.2031 54.5469
L34.125 0
L24.9062 0
L2.98438 54.5469
L12.9375 54.5469
L29.8281 11.1406
L46.5781 54.5469
z
" id="Verdana-76"/>
      <path d="
M56.25 0
L44.6719 0
L29.2031 20.9531
L13.625 0
L2.9375 0
L24.2188 27.2031
L3.125 54.5469
L14.7031 54.5469
L30.0781 33.9375
L45.5156 54.5469
L56.25 54.5469
L34.8125 27.6875
z
" id="Verdana-78"/>
      <path d="
M54.6875 26.3125
L14.5 26.3125
Q14.5 21.2969 16.0156 17.5469
Q17.5312 13.8125 20.1719 11.4219
Q22.7031 9.07812 26.1875 7.90625
Q29.6875 6.73438 33.8906 6.73438
Q39.4531 6.73438 45.0938 8.95312
Q50.7344 11.1875 53.125 13.3281
L53.6094 13.3281
L53.6094 3.32812
Q48.9688 1.375 44.1406 0.046875
Q39.3125 -1.26562 33.9844 -1.26562
Q20.4062 -1.26562 12.7812 6.07812
Q5.17188 13.4219 5.17188 26.9531
Q5.17188 40.3281 12.4688 48.1875
Q19.7812 56.0625 31.6875 56.0625
Q42.7188 56.0625 48.7031 49.6094
Q54.6875 43.1719 54.6875 31.2969
z

M45.75 33.3438
Q45.7031 40.5781 42.1094 44.5312
Q38.5312 48.4844 31.2031 48.4844
Q23.8281 48.4844 19.4531 44.1406
Q15.0938 39.7969 14.5 33.3438
z
" id="Verdana-65"/>
      <path d="
M49.3594 3.42188
Q44.7812 1.21875 40.6562 0
Q36.5312 -1.21875 31.8906 -1.21875
Q25.9844 -1.21875 21.0469 0.515625
Q16.1094 2.25 12.5938 5.76562
Q9.03125 9.28125 7.07812 14.6406
Q5.125 20.0156 5.125 27.2031
Q5.125 40.5781 12.4688 48.1875
Q19.8281 55.8125 31.8906 55.8125
Q36.5781 55.8125 41.0938 54.4844
Q45.6094 53.1719 49.3594 51.2656
L49.3594 41.0625
L48.875 41.0625
Q44.6719 44.3438 40.2031 46.0938
Q35.75 47.8594 31.5 47.8594
Q23.6875 47.8594 19.1719 42.6094
Q14.6562 37.3594 14.6562 27.2031
Q14.6562 17.3281 19.0625 12.0312
Q23.4844 6.73438 31.5 6.73438
Q34.2812 6.73438 37.1562 7.46875
Q40.0469 8.20312 42.3281 9.375
Q44.3438 10.4062 46.0938 11.5469
Q47.8594 12.7031 48.875 13.5312
L49.3594 13.5312
z
" id="Verdana-63"/>
      <path d="
M26.0312 63.6719
L15.6719 63.6719
L15.6719 73.1875
L26.0312 73.1875
z

M25.4375 -1.3125
Q25.4375 -10.8906 20.5469 -15.7656
Q15.6719 -20.6562 7.46875 -20.6562
Q5.51562 -20.6562 2.3125 -20.2656
Q-0.875 -19.875 -3.03125 -19.2812
L-3.03125 -10.5469
L-2.54688 -10.5469
Q-1.17188 -11.0781 1.14062 -11.7656
Q3.46875 -12.4531 5.67188 -12.4531
Q9.1875 -12.4531 11.3281 -11.4688
Q13.4844 -10.5 14.5469 -8.54688
Q15.625 -6.59375 15.9375 -3.82812
Q16.2656 -1.07812 16.2656 2.875
L16.2656 46.8281
L4.89062 46.8281
L4.89062 54.5469
L25.4375 54.5469
z
" id="Verdana-6a"/>
      <path d="
M18.8906 63.6719
L8.54688 63.6719
L8.54688 73.1875
L18.8906 73.1875
z

M18.3125 0
L9.125 0
L9.125 54.5469
L18.3125 54.5469
z
" id="Verdana-69"/>
      <path d="
M54.6406 0
L45.4531 0
L45.4531 31.0625
Q45.4531 34.8125 45.0156 38.1094
Q44.5781 41.4062 43.4062 43.2656
Q42.1875 45.3125 39.8906 46.3125
Q37.5938 47.3125 33.9375 47.3125
Q30.1719 47.3125 26.0625 45.4531
Q21.9688 43.6094 18.2188 40.7188
L18.2188 0
L9.03125 0
L9.03125 54.5469
L18.2188 54.5469
L18.2188 48.4844
Q22.5156 52.0469 27.0938 54.0469
Q31.6875 56.0625 36.5312 56.0625
Q45.3594 56.0625 50 50.7344
Q54.6406 45.4062 54.6406 35.4062
z
" id="Verdana-6e"/>
      <path d="
M48 15.7188
Q48 8.25 41.8125 3.46875
Q35.6406 -1.3125 24.9531 -1.3125
Q18.8906 -1.3125 13.8438 0.125
Q8.79688 1.5625 5.375 3.26562
L5.375 13.5781
L5.85938 13.5781
Q10.2031 10.2969 15.5156 8.375
Q20.8438 6.45312 25.7344 6.45312
Q31.7812 6.45312 35.2031 8.40625
Q38.625 10.3594 38.625 14.5469
Q38.625 17.7812 36.7656 19.4375
Q34.9062 21.0938 29.6406 22.2656
Q27.6875 22.7031 24.5312 23.2812
Q21.3906 23.875 18.7969 24.5625
Q11.625 26.4688 8.60938 30.1562
Q5.60938 33.8438 5.60938 39.2031
Q5.60938 42.5781 7 45.5469
Q8.40625 48.5312 11.2344 50.875
Q13.9688 53.1719 18.1875 54.5156
Q22.4062 55.8594 27.6406 55.8594
Q32.5156 55.8594 37.5156 54.6562
Q42.5312 53.4688 45.8438 51.7656
L45.8438 41.9375
L45.3594 41.9375
Q41.8438 44.5312 36.8125 46.3125
Q31.7812 48.0938 26.9531 48.0938
Q21.9219 48.0938 18.4531 46.1562
Q14.9844 44.2344 14.9844 40.4375
Q14.9844 37.0625 17.0938 35.3594
Q19.1406 33.6406 23.7344 32.5625
Q26.2656 31.9844 29.4062 31.3906
Q32.5625 30.8125 34.6719 30.3281
Q41.0625 28.8594 44.5312 25.2969
Q48 21.6875 48 15.7188" id="Verdana-73"/>
      <path d="
M38.375 67.0938
L37.8906 67.0938
Q36.375 67.5312 33.9375 67.9844
Q31.5 68.4531 29.6406 68.4531
Q23.7344 68.4531 21.0625 65.8438
Q18.4062 63.2344 18.4062 56.3906
L18.4062 54.5469
L34.9688 54.5469
L34.9688 46.8281
L18.7031 46.8281
L18.7031 0
L9.51562 0
L9.51562 46.8281
L3.32812 46.8281
L3.32812 54.5469
L9.51562 54.5469
L9.51562 56.3438
Q9.51562 66.0625 14.3438 71.2656
Q19.1875 76.4688 28.3281 76.4688
Q31.3906 76.4688 33.8594 76.1719
Q36.3281 75.875 38.375 75.4844
z
" id="Verdana-66"/>
      <path id="Verdana-20"/>
      <path d="
M63.9688 64.3594
Q68.4062 59.4688 70.7656 52.3906
Q73.1406 45.3125 73.1406 36.3281
Q73.1406 27.3438 70.7188 20.2344
Q68.3125 13.1406 63.9688 8.40625
Q59.4688 3.46875 53.3438 0.96875
Q47.2188 -1.51562 39.3594 -1.51562
Q31.6875 -1.51562 25.4062 1.01562
Q19.1406 3.5625 14.75 8.40625
Q10.3594 13.2344 7.98438 20.2656
Q5.60938 27.2969 5.60938 36.3281
Q5.60938 45.2188 7.95312 52.2656
Q10.2969 59.3281 14.7969 64.3594
Q19.0938 69.1406 25.4688 71.6719
Q31.8438 74.2188 39.3594 74.2188
Q47.1719 74.2188 53.3906 71.6562
Q59.625 69.0938 63.9688 64.3594
M63.0938 36.3281
Q63.0938 50.4844 56.7344 58.1719
Q50.3906 65.875 39.4062 65.875
Q28.3281 65.875 22 58.1719
Q15.6719 50.4844 15.6719 36.3281
Q15.6719 22.0156 22.1094 14.4219
Q28.5625 6.84375 39.4062 6.84375
Q50.25 6.84375 56.6719 14.4219
Q63.0938 22.0156 63.0938 36.3281" id="Verdana-4f"/>
      <path d="
M55.5156 27.25
Q55.5156 13.9219 48.6719 6.20312
Q41.8438 -1.51562 30.375 -1.51562
Q18.7969 -1.51562 11.9844 6.20312
Q5.17188 13.9219 5.17188 27.25
Q5.17188 40.5781 11.9844 48.3125
Q18.7969 56.0625 30.375 56.0625
Q41.8438 56.0625 48.6719 48.3125
Q55.5156 40.5781 55.5156 27.25
M46.0469 27.25
Q46.0469 37.8438 41.8906 42.9844
Q37.75 48.1406 30.375 48.1406
Q22.9062 48.1406 18.7812 42.9844
Q14.6562 37.8438 14.6562 27.25
Q14.6562 17 18.7969 11.6875
Q22.9531 6.39062 30.375 6.39062
Q37.7031 6.39062 41.875 11.6406
Q46.0469 16.8906 46.0469 27.25" id="Verdana-6f"/>
      <path d="
M37.3594 0.484375
Q34.7656 -0.203125 31.7031 -0.640625
Q28.6562 -1.07812 26.2656 -1.07812
Q17.9219 -1.07812 13.5781 3.40625
Q9.23438 7.90625 9.23438 17.8281
L9.23438 46.8281
L3.03125 46.8281
L3.03125 54.5469
L9.23438 54.5469
L9.23438 70.2188
L18.4062 70.2188
L18.4062 54.5469
L37.3594 54.5469
L37.3594 46.8281
L18.4062 46.8281
L18.4062 21.9688
Q18.4062 17.6719 18.5938 15.25
Q18.7969 12.8438 19.9688 10.75
Q21.0469 8.79688 22.9219 7.89062
Q24.8125 6.98438 28.6562 6.98438
Q30.9062 6.98438 33.3438 7.64062
Q35.7969 8.29688 36.8594 8.73438
L37.3594 8.73438
z
" id="Verdana-74"/>
      <path d="
M54.25 0
L45.0625 0
L45.0625 6.0625
Q40.4375 2.39062 36.1875 0.4375
Q31.9375 -1.51562 26.8125 -1.51562
Q18.2188 -1.51562 13.4219 3.73438
Q8.64062 8.98438 8.64062 19.1406
L8.64062 54.5469
L17.8281 54.5469
L17.8281 23.4844
Q17.8281 19.3438 18.2188 16.375
Q18.6094 13.4219 19.875 11.3281
Q21.1875 9.1875 23.2812 8.20312
Q25.3906 7.23438 29.3906 7.23438
Q32.9531 7.23438 37.1719 9.07812
Q41.4062 10.9375 45.0625 13.8125
L45.0625 54.5469
L54.25 54.5469
z
" id="Verdana-75"/>
     </defs>
     <g transform="translate(206.5078125 418.509375)scale(0.12 -0.12)">
      <use xlink:href="#Verdana-4f"/>
      <use x="78.7109375" xlink:href="#Verdana-62"/>
      <use x="141.015625" xlink:href="#Verdana-6a"/>
      <use x="175.439453125" xlink:href="#Verdana-65"/>
      <use x="235.009765625" xlink:href="#Verdana-63"/>
      <use x="287.109375" xlink:href="#Verdana-74"/>
      <use x="326.513671875" xlink:href="#Verdana-69"/>
      <use x="353.955078125" xlink:href="#Verdana-76"/>
      <use x="412.259765625" xlink:href="#Verdana-65"/>
      <use x="471.830078125" xlink:href="#Verdana-20"/>
      <use x="506.986328125" xlink:href="#Verdana-66"/>
      <use x="542.142578125" xlink:href="#Verdana-75"/>
      <use x="605.423828125" xlink:href="#Verdana-6e"/>
      <use x="668.705078125" xlink:href="#Verdana-63"/>
      <use x="720.8046875" xlink:href="#Verdana-74"/>
      <use x="760.208984375" xlink:href="#Verdana-69"/>
      <use x="787.650390625" xlink:href="#Verdana-6f"/>
      <use x="848.34375" xlink:href="#Verdana-6e"/>
      <use x="911.625" xlink:href="#Verdana-20"/>
      <use x="946.78125" xlink:href="#Verdana-65"/>
      <use x="1006.3515625" xlink:href="#Verdana-78"/>
      <use x="1064.40625" xlink:href="#Verdana-65"/>
      <use x="1123.9765625" xlink:href="#Verdana-63"/>
      <use x="1176.076171875" xlink:href="#Verdana-74"/>
      <use x="1215.48046875" xlink:href="#Verdana-75"/>
      <use x="1278.76171875" xlink:href="#Verdana-69"/>
      <use x="1306.203125" xlink:href="#Verdana-6f"/>
      <use x="1366.896484375" xlink:href="#Verdana-6e"/>
      <use x="1430.177734375" xlink:href="#Verdana-73"/>
     </g>
    </g>
   </g>
   <g id="matplotlib.axis_2">
    <g id="ytick_1">
     <g id="line2d_18">
      <defs>
       <path d="
M0 0
L4 0" id="md7965d1ba0" style="stroke:#000000;stroke-width:0.5;"/>
      </defs>
      <g>
       <use style="stroke:#000000;stroke-width:0.5;" x="72.0" xlink:href="#md7965d1ba0" y="388.8"/>
      </g>
     </g>
     <g id="line2d_19">
      <defs>
       <path d="
M0 0
L-4 0" id="md9a1c1a7cd" style="stroke:#000000;stroke-width:0.5;"/>
      </defs>
      <g>
       <use style="stroke:#000000;stroke-width:0.5;" x="518.4" xlink:href="#md9a1c1a7cd" y="388.8"/>
      </g>
     </g>
     <g id="text_8">
      <!-- −35 -->
      <defs>
       <path d="
M71.0938 27.9375
L10.75 27.9375
L10.75 35.75
L71.0938 35.75
z
" id="Verdana-2212"/>
      </defs>
      <g transform="translate(45.059375 392.1515625)scale(0.12 -0.12)">
       <use xlink:href="#Verdana-2212"/>
       <use x="81.8359375" xlink:href="#Verdana-33"/>
       <use x="145.41015625" xlink:href="#Verdana-35"/>
      </g>
     </g>
    </g>
    <g id="ytick_2">
     <g id="line2d_20">
      <g>
       <use style="stroke:#000000;stroke-width:0.5;" x="72.0" xlink:href="#md7965d1ba0" y="345.6"/>
      </g>
     </g>
     <g id="line2d_21">
      <g>
       <use style="stroke:#000000;stroke-width:0.5;" x="518.4" xlink:href="#md9a1c1a7cd" y="345.6"/>
      </g>
     </g>
     <g id="text_9">
      <!-- −30 -->
      <g transform="translate(45.00125 348.9515625)scale(0.12 -0.12)">
       <use xlink:href="#Verdana-2212"/>
       <use x="81.8359375" xlink:href="#Verdana-33"/>
       <use x="145.41015625" xlink:href="#Verdana-30"/>
      </g>
     </g>
    </g>
    <g id="ytick_3">
     <g id="line2d_22">
      <g>
       <use style="stroke:#000000;stroke-width:0.5;" x="72.0" xlink:href="#md7965d1ba0" y="302.4"/>
      </g>
     </g>
     <g id="line2d_23">
      <g>
       <use style="stroke:#000000;stroke-width:0.5;" x="518.4" xlink:href="#md9a1c1a7cd" y="302.4"/>
      </g>
     </g>
     <g id="text_10">
      <!-- −25 -->
      <g transform="translate(45.059375 305.7515625)scale(0.12 -0.12)">
       <use xlink:href="#Verdana-2212"/>
       <use x="81.8359375" xlink:href="#Verdana-32"/>
       <use x="145.41015625" xlink:href="#Verdana-35"/>
      </g>
     </g>
    </g>
    <g id="ytick_4">
     <g id="line2d_24">
      <g>
       <use style="stroke:#000000;stroke-width:0.5;" x="72.0" xlink:href="#md7965d1ba0" y="259.2"/>
      </g>
     </g>
     <g id="line2d_25">
      <g>
       <use style="stroke:#000000;stroke-width:0.5;" x="518.4" xlink:href="#md9a1c1a7cd" y="259.2"/>
      </g>
     </g>
     <g id="text_11">
      <!-- −20 -->
      <g transform="translate(45.00125 262.5515625)scale(0.12 -0.12)">
       <use xlink:href="#Verdana-2212"/>
       <use x="81.8359375" xlink:href="#Verdana-32"/>
       <use x="145.41015625" xlink:href="#Verdana-30"/>
      </g>
     </g>
    </g>
    <g id="ytick_5">
     <g id="line2d_26">
      <g>
       <use style="stroke:#000000;stroke-width:0.5;" x="72.0" xlink:href="#md7965d1ba0" y="216.0"/>
      </g>
     </g>
     <g id="line2d_27">
      <g>
       <use style="stroke:#000000;stroke-width:0.5;" x="518.4" xlink:href="#md9a1c1a7cd" y="216.0"/>
      </g>
     </g>
     <g id="text_12">
      <!-- −15 -->
      <g transform="translate(45.059375 219.3515625)scale(0.12 -0.12)">
       <use xlink:href="#Verdana-2212"/>
       <use x="81.8359375" xlink:href="#Verdana-31"/>
       <use x="145.41015625" xlink:href="#Verdana-35"/>
      </g>
     </g>
    </g>
    <g id="ytick_6">
     <g id="line2d_28">
      <g>
       <use style="stroke:#000000;stroke-width:0.5;" x="72.0" xlink:href="#md7965d1ba0" y="172.8"/>
      </g>
     </g>
     <g id="line2d_29">
      <g>
       <use style="stroke:#000000;stroke-width:0.5;" x="518.4" xlink:href="#md9a1c1a7cd" y="172.8"/>
      </g>
     </g>
     <g id="text_13">
      <!-- −10 -->
      <g transform="translate(45.00125 176.1515625)scale(0.12 -0.12)">
       <use xlink:href="#Verdana-2212"/>
       <use x="81.8359375" xlink:href="#Verdana-31"/>
       <use x="145.41015625" xlink:href="#Verdana-30"/>
      </g>
     </g>
    </g>
    <g id="ytick_7">
     <g id="line2d_30">
      <g>
       <use style="stroke:#000000;stroke-width:0.5;" x="72.0" xlink:href="#md7965d1ba0" y="129.6"/>
      </g>
     </g>
     <g id="line2d_31">
      <g>
       <use style="stroke:#000000;stroke-width:0.5;" x="518.4" xlink:href="#md9a1c1a7cd" y="129.6"/>
      </g>
     </g>
     <g id="text_14">
      <!-- −5 -->
      <g transform="translate(52.68875 132.9515625)scale(0.12 -0.12)">
       <use xlink:href="#Verdana-2212"/>
       <use x="81.8359375" xlink:href="#Verdana-35"/>
      </g>
     </g>
    </g>
    <g id="ytick_8">
     <g id="line2d_32">
      <g>
       <use style="stroke:#000000;stroke-width:0.5;" x="72.0" xlink:href="#md7965d1ba0" y="86.4"/>
      </g>
     </g>
     <g id="line2d_33">
      <g>
       <use style="stroke:#000000;stroke-width:0.5;" x="518.4" xlink:href="#md9a1c1a7cd" y="86.4"/>
      </g>
     </g>
     <g id="text_15">
      <!-- 0 -->
      <g transform="translate(61.964375 89.7515625)scale(0.12 -0.12)">
       <use xlink:href="#Verdana-30"/>
      </g>
     </g>
    </g>
    <g id="ytick_9">
     <g id="line2d_34">
      <g>
       <use style="stroke:#000000;stroke-width:0.5;" x="72.0" xlink:href="#md7965d1ba0" y="43.2"/>
      </g>
     </g>
     <g id="line2d_35">
      <g>
       <use style="stroke:#000000;stroke-width:0.5;" x="518.4" xlink:href="#md9a1c1a7cd" y="43.2"/>
      </g>
     </g>
     <g id="text_16">
      <!-- 5 -->
      <g transform="translate(62.315 46.5515625)scale(0.12 -0.12)">
       <use xlink:href="#Verdana-35"/>
      </g>
     </g>
    </g>
    <g id="text_17">
     <!-- Mean -->
     <defs>
      <path d="
M51.4219 0
L42.2812 0
L42.2812 5.8125
Q41.0625 4.98438 38.9844 3.48438
Q36.9219 2 34.9688 1.125
Q32.6719 0 29.6875 -0.75
Q26.7031 -1.51562 22.7031 -1.51562
Q15.3281 -1.51562 10.2031 3.35938
Q5.07812 8.25 5.07812 15.8281
Q5.07812 22.0156 7.73438 25.8438
Q10.4062 29.6875 15.3281 31.8906
Q20.3125 34.0781 27.2969 34.8594
Q34.2812 35.6406 42.2812 36.0312
L42.2812 37.4531
Q42.2812 40.5781 41.1875 42.625
Q40.0938 44.6719 38.0312 45.8438
Q36.0781 46.9688 33.3438 47.3594
Q30.6094 47.75 27.6406 47.75
Q24.0312 47.75 19.5781 46.7969
Q15.1406 45.8438 10.4062 44.0469
L9.90625 44.0469
L9.90625 53.375
Q12.5938 54.1094 17.6719 54.9844
Q22.75 55.8594 27.6875 55.8594
Q33.4531 55.8594 37.7188 54.9062
Q42 53.9531 45.125 51.6562
Q48.1875 49.4219 49.7969 45.8438
Q51.4219 42.2812 51.4219 37.0156
z

M42.2812 13.4219
L42.2812 28.6094
Q38.0938 28.375 32.3906 27.875
Q26.7031 27.3906 23.3906 26.4688
Q19.4375 25.3438 16.9844 22.9688
Q14.5469 20.6094 14.5469 16.4531
Q14.5469 11.7656 17.375 9.39062
Q20.2188 7.03125 26.0312 7.03125
Q30.8594 7.03125 34.8594 8.90625
Q38.875 10.7969 42.2812 13.4219" id="Verdana-61"/>
      <path d="
M74.5156 0
L64.8438 0
L64.8438 62.6406
L44.625 20.0156
L38.875 20.0156
L18.7969 62.6406
L18.7969 0
L9.76562 0
L9.76562 72.7031
L22.9531 72.7031
L42.3281 32.2344
L61.0781 72.7031
L74.5156 72.7031
z
" id="Verdana-4d"/>
     </defs>
     <g transform="translate(37.58625 230.9278125)rotate(-90.0)scale(0.12 -0.12)">
      <use xlink:href="#Verdana-4d"/>
      <use x="84.27734375" xlink:href="#Verdana-65"/>
      <use x="143.84765625" xlink:href="#Verdana-61"/>
      <use x="203.90625" xlink:href="#Verdana-6e"/>
     </g>
    </g>
   </g>
   <g id="patch_3">
    <path d="
M72 43.2
L518.4 43.2" style="fill:none;stroke:#000000;"/>
   </g>
   <g id="patch_4">
    <path d="
M72 388.8
L72 43.2" style="fill:none;stroke:#000000;"/>
   </g>
   <g id="patch_5">
    <path d="
M518.4 388.8
L518.4 43.2" style="fill:none;stroke:#000000;"/>
   </g>
   <g id="patch_6">
    <path d="
M72 388.8
L518.4 388.8" style="fill:none;stroke:#000000;"/>
   </g>
   <g id="text_18">
    <!-- Pathological Mean -->
    <defs>
     <path d="
M18.3125 0
L9.125 0
L9.125 75.9844
L18.3125 75.9844
z
" id="Verdana-6c"/>
     <path d="
M57.3281 50.7344
Q57.3281 45.9062 55.6406 41.7656
Q53.9531 37.6406 50.9219 34.625
Q47.1719 30.8594 42.0469 28.9688
Q36.9219 27.0938 29.1094 27.0938
L19.4375 27.0938
L19.4375 0
L9.76562 0
L9.76562 72.7031
L29.5 72.7031
Q36.0312 72.7031 40.5781 71.6094
Q45.125 70.5156 48.6406 68.1719
Q52.7812 65.375 55.0469 61.2188
Q57.3281 57.0781 57.3281 50.7344
M47.2656 50.4844
Q47.2656 54.25 45.9375 57.0312
Q44.625 59.8125 41.9375 61.5781
Q39.5938 63.0938 36.5938 63.75
Q33.5938 64.4062 29 64.4062
L19.4375 64.4062
L19.4375 35.3594
L27.5938 35.3594
Q33.4531 35.3594 37.1094 36.4062
Q40.7656 37.4531 43.0625 39.75
Q45.3594 42.0938 46.3125 44.6719
Q47.2656 47.2656 47.2656 50.4844" id="Verdana-50"/>
     <path d="
M54.6406 0
L45.4531 0
L45.4531 31.0625
Q45.4531 34.8125 45.0156 38.1094
Q44.5781 41.4062 43.4062 43.2656
Q42.1875 45.3125 39.8906 46.3125
Q37.5938 47.3125 33.9375 47.3125
Q30.1719 47.3125 26.0625 45.4531
Q21.9688 43.6094 18.2188 40.7188
L18.2188 0
L9.03125 0
L9.03125 75.9844
L18.2188 75.9844
L18.2188 48.4844
Q22.5156 52.0469 27.0938 54.0469
Q31.6875 56.0625 36.5312 56.0625
Q45.3594 56.0625 50 50.7344
Q54.6406 45.4062 54.6406 35.4062
z
" id="Verdana-68"/>
     <path d="
M53.2656 6.20312
Q53.2656 -7.67188 46.9688 -14.1562
Q40.6719 -20.6562 27.5938 -20.6562
Q23.25 -20.6562 19.1094 -20.0469
Q14.9844 -19.4375 10.9844 -18.3125
L10.9844 -8.9375
L11.4688 -8.9375
Q13.7188 -9.8125 18.5938 -11.1094
Q23.4844 -12.4062 28.375 -12.4062
Q33.0625 -12.4062 36.125 -11.2812
Q39.2031 -10.1562 40.9219 -8.15625
Q42.625 -6.25 43.3594 -3.5625
Q44.0938 -0.875 44.0938 2.4375
L44.0938 7.42188
Q39.9375 4.10938 36.1562 2.46875
Q32.375 0.828125 26.5156 0.828125
Q16.75 0.828125 11.0156 7.875
Q5.28125 14.9375 5.28125 27.7812
Q5.28125 34.8125 7.25 39.9062
Q9.23438 45.0156 12.6406 48.7344
Q15.8281 52.2031 20.3594 54.125
Q24.9062 56.0625 29.3906 56.0625
Q34.125 56.0625 37.3281 55.1094
Q40.5312 54.1562 44.0938 52.2031
L44.6719 54.5469
L53.2656 54.5469
z

M44.0938 14.9844
L44.0938 44.7344
Q40.4375 46.3906 37.2812 47.0938
Q34.125 47.7969 31 47.7969
Q23.4375 47.7969 19.0938 42.7188
Q14.75 37.6406 14.75 27.9844
Q14.75 18.7969 17.9688 14.0625
Q21.1875 9.32812 28.6562 9.32812
Q32.6719 9.32812 36.6875 10.8594
Q40.7188 12.4062 44.0938 14.9844" id="Verdana-67"/>
    </defs>
    <g transform="translate(230.945625 38.2)scale(0.144 -0.144)">
     <use xlink:href="#Verdana-50"/>
     <use x="57.802734375" xlink:href="#Verdana-61"/>
     <use x="117.861328125" xlink:href="#Verdana-74"/>
     <use x="157.265625" xlink:href="#Verdana-68"/>
     <use x="220.546875" xlink:href="#Verdana-6f"/>
     <use x="281.240234375" xlink:href="#Verdana-6c"/>
     <use x="308.681640625" xlink:href="#Verdana-6f"/>
     <use x="369.375" xlink:href="#Verdana-67"/>
     <use x="431.6796875" xlink:href="#Verdana-69"/>
     <use x="459.12109375" xlink:href="#Verdana-63"/>
     <use x="511.220703125" xlink:href="#Verdana-61"/>
     <use x="571.279296875" xlink:href="#Verdana-6c"/>
     <use x="598.720703125" xlink:href="#Verdana-20"/>
     <use x="633.876953125" xlink:href="#Verdana-4d"/>
     <use x="718.154296875" xlink:href="#Verdana-65"/>
     <use x="777.724609375" xlink:href="#Verdana-61"/>
     <use x="837.783203125" xlink:href="#Verdana-6e"/>
    </g>
   </g>
   <g id="legend_1">
    <g id="patch_7">
     <path d="
M79.2 381.6
L183.22 381.6
L183.22 272.081
L79.2 272.081
L79.2 381.6
z
" style="fill:#ffffff;stroke:#000000;"/>
    </g>
    <g id="line2d_36">
     <path d="
M89.28 283.743
L109.44 283.743" style="fill:none;stroke:#0000ff;stroke-dasharray:6.000000,2.000000;stroke-dashoffset:0.0;"/>
    </g>
    <g id="line2d_37"/>
    <g id="text_19">
     <!-- AMPGO -->
     <defs>
      <path d="
M70.4062 5.375
Q64.4531 2.64062 57.3906 0.609375
Q50.3438 -1.42188 43.75 -1.42188
Q35.25 -1.42188 28.1719 0.921875
Q21.0938 3.26562 16.1094 7.95312
Q11.0781 12.7031 8.34375 19.7969
Q5.60938 26.9062 5.60938 36.4219
Q5.60938 53.8594 15.7969 63.9375
Q25.9844 74.0312 43.75 74.0312
Q49.9531 74.0312 56.4219 72.5312
Q62.8906 71.0469 70.3594 67.4844
L70.3594 56
L69.4844 56
Q67.9688 57.1719 65.0781 59.0781
Q62.2031 60.9844 59.4219 62.25
Q56.0625 63.7656 51.7812 64.7656
Q47.5156 65.7656 42.0938 65.7656
Q29.8906 65.7656 22.7812 57.9219
Q15.6719 50.0938 15.6719 36.7188
Q15.6719 22.6094 23.0938 14.7656
Q30.5156 6.9375 43.3125 6.9375
Q48 6.9375 52.6562 7.85938
Q57.3281 8.79688 60.8438 10.25
L60.8438 28.0781
L41.3594 28.0781
L41.3594 36.5781
L70.4062 36.5781
z
" id="Verdana-47"/>
      <path d="
M67.0938 0
L56.7812 0
L49.6562 20.2656
L18.2188 20.2656
L11.0781 0
L1.26562 0
L27.7344 72.7031
L40.625 72.7031
z

M46.6875 28.5625
L33.9375 64.2656
L21.1406 28.5625
z
" id="Verdana-41"/>
     </defs>
     <g transform="translate(125.28 288.783)scale(0.144 -0.144)">
      <use xlink:href="#Verdana-41"/>
      <use x="68.359375" xlink:href="#Verdana-4d"/>
      <use x="152.63671875" xlink:href="#Verdana-50"/>
      <use x="212.939453125" xlink:href="#Verdana-47"/>
      <use x="290.478515625" xlink:href="#Verdana-4f"/>
     </g>
    </g>
    <g id="line2d_38">
     <path d="
M89.28 304.783
L109.44 304.783" style="fill:none;stroke:#008000;stroke-dasharray:1.000000,1.000000;stroke-dashoffset:0.0;"/>
    </g>
    <g id="line2d_39"/>
    <g id="text_20">
     <!-- Anneal -->
     <g transform="translate(125.28 309.82275)scale(0.144 -0.144)">
      <use xlink:href="#Verdana-41"/>
      <use x="68.359375" xlink:href="#Verdana-6e"/>
      <use x="131.640625" xlink:href="#Verdana-6e"/>
      <use x="194.921875" xlink:href="#Verdana-65"/>
      <use x="254.4921875" xlink:href="#Verdana-61"/>
      <use x="314.55078125" xlink:href="#Verdana-6c"/>
     </g>
    </g>
    <g id="line2d_40">
     <path d="
M89.28 325.822
L109.44 325.822" style="fill:none;stroke:#ff0000;stroke-dasharray:3.000000,6.000000;stroke-dashoffset:0.0;"/>
    </g>
    <g id="line2d_41"/>
    <g id="text_21">
     <!-- BSA -->
     <defs>
      <path d="
M64.5938 22.3594
Q64.5938 16.9375 62.5469 12.7812
Q60.5 8.64062 57.0312 5.95312
Q52.9375 2.73438 48.0156 1.35938
Q43.1094 0 35.5469 0
L9.76562 0
L9.76562 72.7031
L31.2969 72.7031
Q39.2656 72.7031 43.2188 72.1094
Q47.1719 71.5312 50.7812 69.6719
Q54.7812 67.5781 56.5938 64.2812
Q58.4062 60.9844 58.4062 56.3906
Q58.4062 51.2188 55.7656 47.5781
Q53.125 43.9531 48.7344 41.75
L48.7344 41.3594
Q56.1094 39.8438 60.3438 34.8906
Q64.5938 29.9375 64.5938 22.3594
M48.3438 55.125
Q48.3438 57.7656 47.4531 59.5625
Q46.5781 61.375 44.625 62.5
Q42.3281 63.8125 39.0625 64.125
Q35.7969 64.4531 30.9531 64.4531
L19.4375 64.4531
L19.4375 43.4531
L31.9375 43.4531
Q36.4688 43.4531 39.1562 43.9219
Q41.8438 44.3906 44.1406 45.8438
Q46.4375 47.3125 47.3906 49.625
Q48.3438 51.9531 48.3438 55.125
M54.5469 21.9688
Q54.5469 26.375 53.2188 28.9531
Q51.9062 31.5469 48.4375 33.3438
Q46.0938 34.5781 42.75 34.9375
Q39.4062 35.2969 34.625 35.2969
L19.4375 35.2969
L19.4375 8.25
L32.2344 8.25
Q38.5781 8.25 42.625 8.90625
Q46.6875 9.57812 49.2656 11.3281
Q52 13.2344 53.2656 15.6719
Q54.5469 18.1094 54.5469 21.9688" id="Verdana-42"/>
      <path d="
M62.5938 20.75
Q62.5938 16.5 60.6094 12.3438
Q58.6406 8.20312 55.0781 5.32812
Q51.1719 2.20312 45.9688 0.4375
Q40.7656 -1.3125 33.4531 -1.3125
Q25.5938 -1.3125 19.3125 0.140625
Q13.0312 1.60938 6.54688 4.5
L6.54688 16.6094
L7.23438 16.6094
Q12.75 12.0156 19.9688 9.51562
Q27.2031 7.03125 33.5469 7.03125
Q42.5312 7.03125 47.5312 10.3906
Q52.5469 13.7656 52.5469 19.3906
Q52.5469 24.2188 50.1719 26.5156
Q47.7969 28.8125 42.9688 30.0781
Q39.3125 31.0625 35.0312 31.6875
Q30.7656 32.3281 25.9844 33.2969
Q16.3125 35.3594 11.6406 40.3125
Q6.98438 45.2656 6.98438 53.2188
Q6.98438 62.3594 14.6875 68.1875
Q22.4062 74.0312 34.2812 74.0312
Q41.9375 74.0312 48.3281 72.5625
Q54.7344 71.0938 59.6719 68.9531
L59.6719 57.5156
L58.9844 57.5156
Q54.8281 61.0312 48.0625 63.3438
Q41.3125 65.6719 34.2344 65.6719
Q26.4688 65.6719 21.75 62.4531
Q17.0469 59.2344 17.0469 54.1562
Q17.0469 49.6094 19.3906 47.0156
Q21.7344 44.4375 27.6406 43.0625
Q30.7656 42.3906 36.5156 41.4062
Q42.2812 40.4375 46.2969 39.4062
Q54.3906 37.25 58.4844 32.9062
Q62.5938 28.5625 62.5938 20.75" id="Verdana-53"/>
     </defs>
     <g transform="translate(125.28 330.8625)scale(0.144 -0.144)">
      <use xlink:href="#Verdana-42"/>
      <use x="68.5546875" xlink:href="#Verdana-53"/>
      <use x="135.9140625" xlink:href="#Verdana-41"/>
     </g>
    </g>
    <g id="line2d_42">
     <path d="
M89.28 346.862
L109.44 346.862" style="fill:none;stroke:#00bfbf;stroke-dasharray:5.000000,1.000000,2.000000,1.000000,5.000000,1.000000;stroke-dashoffset:0.0;"/>
    </g>
    <g id="line2d_43"/>
    <g id="text_22">
     <!-- Cuckoo -->
     <defs>
      <path d="
M58.5469 0
L46.4375 0
L24.5625 23.875
L18.6094 18.2188
L18.6094 0
L9.42188 0
L9.42188 75.9844
L18.6094 75.9844
L18.6094 27.25
L45.125 54.5469
L56.6875 54.5469
L31.3438 29.3438
z
" id="Verdana-6b"/>
      <path d="
M65.9219 5.28125
Q63.2344 4.10938 61.0625 3.07812
Q58.8906 2.04688 55.375 0.921875
Q52.3906 0 48.8906 -0.65625
Q45.4062 -1.3125 41.2188 -1.3125
Q33.2969 -1.3125 26.8281 0.90625
Q20.3594 3.125 15.5781 7.85938
Q10.8906 12.5 8.25 19.6562
Q5.60938 26.8125 5.60938 36.2812
Q5.60938 45.2656 8.14062 52.3438
Q10.6875 59.4219 15.4844 64.3125
Q20.125 69.0469 26.6875 71.5312
Q33.25 74.0312 41.2656 74.0312
Q47.125 74.0312 52.9531 72.6094
Q58.7969 71.1875 65.9219 67.625
L65.9219 56.1562
L65.1875 56.1562
Q59.1875 61.1875 53.2656 63.4688
Q47.3594 65.7656 40.625 65.7656
Q35.1094 65.7656 30.6875 63.9844
Q26.2656 62.2031 22.7969 58.4531
Q19.4375 54.7812 17.5469 49.1875
Q15.6719 43.6094 15.6719 36.2812
Q15.6719 28.6094 17.75 23.0938
Q19.8281 17.5781 23.0938 14.1094
Q26.5156 10.5 31.0781 8.76562
Q35.6406 7.03125 40.7188 7.03125
Q47.7031 7.03125 53.7969 9.42188
Q59.9062 11.8125 65.2344 16.6094
L65.9219 16.6094
z
" id="Verdana-43"/>
     </defs>
     <g transform="translate(125.28 351.90225)scale(0.144 -0.144)">
      <use xlink:href="#Verdana-43"/>
      <use x="69.82421875" xlink:href="#Verdana-75"/>
      <use x="133.10546875" xlink:href="#Verdana-63"/>
      <use x="185.205078125" xlink:href="#Verdana-6b"/>
      <use x="243.384765625" xlink:href="#Verdana-6f"/>
      <use x="304.078125" xlink:href="#Verdana-6f"/>
     </g>
    </g>
    <g id="line2d_44">
     <path d="
M89.28 367.902
L109.44 367.902" style="fill:none;stroke:#bf00bf;stroke-linecap:square;"/>
    </g>
    <g id="line2d_45"/>
    <g id="text_23">
     <!-- qABC -->
     <defs>
      <path d="
M53.2656 -20.125
L44.0938 -20.125
L44.0938 6.15625
Q39.8438 2.48438 35.6406 0.703125
Q31.4531 -1.07812 26.5625 -1.07812
Q16.8438 -1.07812 11.0625 6.42188
Q5.28125 13.9219 5.28125 27.0938
Q5.28125 34.125 7.29688 39.5156
Q9.32812 44.9219 12.6406 48.5781
Q15.875 52.1562 20.2188 54.1094
Q24.5625 56.0625 29.3906 56.0625
Q33.7969 56.0625 37.1875 55.0781
Q40.5781 54.1094 44.0938 52.2031
L44.6719 54.5469
L53.2656 54.5469
z

M44.0938 13.875
L44.0938 44.7344
Q40.2812 46.4375 37.3438 47.1094
Q34.4219 47.7969 31 47.7969
Q23.0469 47.7969 18.8906 42.4062
Q14.75 37.0156 14.75 27.5469
Q14.75 17.9688 18.0938 12.8125
Q21.4375 7.67188 28.6094 7.67188
Q32.625 7.67188 36.625 9.40625
Q40.625 11.1406 44.0938 13.875" id="Verdana-71"/>
     </defs>
     <g transform="translate(125.28 372.942)scale(0.144 -0.144)">
      <use xlink:href="#Verdana-71"/>
      <use x="62.3046875" xlink:href="#Verdana-41"/>
      <use x="130.6640625" xlink:href="#Verdana-42"/>
      <use x="199.21875" xlink:href="#Verdana-43"/>
     </g>
    </g>
   </g>
  </g>
 </g>
 <defs>
  <clipPath id="p7ff5b81e1d">
   <rect height="345.6" width="446.4" x="72.0" y="43.2"/>
  </clipPath>
 </defs>
</svg>
