<?xml version="1.0" encoding="utf-8" standalone="no"?>
<!DOCTYPE svg PUBLIC "-//W3C//DTD SVG 1.1//EN"
  "http://www.w3.org/Graphics/SVG/1.1/DTD/svg11.dtd">
<!-- Created with matplotlib (http://matplotlib.org/) -->
<svg height="432pt" version="1.1" viewBox="0 0 576 432" width="576pt" xmlns="http://www.w3.org/2000/svg" xmlns:xlink="http://www.w3.org/1999/xlink">
 <defs>
  <style type="text/css">
*{stroke-linecap:butt;stroke-linejoin:round;}
  </style>
 </defs>
 <g id="figure_1">
  <g id="patch_1">
   <path d="
M0 432
L576 432
L576 0
L0 0
z
" style="fill:#ffffff;"/>
  </g>
  <g id="axes_1">
   <g id="patch_2">
    <path d="
M72 388.8
L518.4 388.8
L518.4 43.2
L72 43.2
z
" style="fill:#ffffff;"/>
   </g>
   <g id="line2d_1">
    <path clip-path="url(#p7ff5b81e1d)" d="
M72 388.8
L73.7856 388.8
L73.9642 388.11
L75.0355 388.11
L75.2141 388.8
L75.5712 388.8
L75.7498 388.11
L76.464 388.11
L76.6426 387.42
L77.3568 387.42
L77.5354 388.11
L78.2496 388.11
L78.4282 387.42
L80.0352 387.42
L80.2138 384.661
L80.928 384.661
L81.1066 383.971
L81.8208 383.971
L81.9994 371.554
L82.7136 371.554
L82.8922 359.828
L83.6064 359.828
L83.785 340.513
L84.4992 340.513
L84.6778 311.54
L85.392 311.54
L85.5706 281.878
L86.2848 281.878
L86.4634 246.697
L87.1776 246.697
L87.3562 214.965
L88.0704 214.965
L88.249 177.025
L88.9632 177.025
L89.1418 145.293
L89.856 145.293
L90.0346 124.599
L90.7488 124.599
L90.9274 105.974
L91.6416 105.974
L91.8202 94.2467
L92.5344 94.2467
L92.713 75.6216
L93.4272 75.6216
L93.6058 69.4132
L94.32 69.4132
L94.4986 63.2048
L95.2128 63.2048
L95.3914 57.6862
L96.1056 57.6862
L96.2842 54.2371
L96.9984 54.2371
L97.177 52.1677
L97.8912 52.1677
L98.0698 48.7186
L98.784 48.7186
L98.9626 47.3389
L99.6768 47.3389
L99.8554 44.5796
L100.57 44.5796
L100.748 43.8898
L106.819 43.8898
L106.998 43.2
L518.311 43.2
L518.311 43.2" style="fill:none;stroke:#0000ff;stroke-dasharray:6.000000,2.000000;stroke-dashoffset:0.0;"/>
   </g>
   <g id="line2d_2">
    <path clip-path="url(#p7ff5b81e1d)" d="
M72 388.8
L75.0355 388.8
L75.2141 388.11
L75.5712 388.11
L75.7498 388.8
L87.624 388.8
L87.8026 387.42
L88.0704 387.42
L88.249 386.731
L88.5168 386.731
L88.6954 386.041
L89.0525 386.041
L89.231 385.351
L90.3917 385.351
L90.5702 384.661
L91.3738 384.661
L91.7309 382.592
L91.9987 382.592
L92.1773 381.212
L92.3558 380.522
L92.4451 380.522
L92.6237 379.143
L92.713 379.143
L92.8915 377.763
L92.9808 377.763
L93.1594 377.073
L93.4272 377.073
L93.695 375.693
L93.7843 375.693
L94.2307 372.244
L94.4093 370.175
L94.7664 366.036
L95.1235 363.277
L95.3021 359.828
L95.3914 359.828
L96.8198 349.48
L96.9091 349.48
L97.3555 345.341
L97.9805 337.063
L98.0698 336.374
L98.2483 332.235
L98.8733 321.887
L99.1411 315.679
L99.409 312.92
L99.5875 309.471
L99.7661 308.091
L99.9446 305.332
L100.123 304.642
L100.391 298.434
L100.48 297.744
L100.748 290.846
L101.105 287.396
L101.73 274.98
L101.82 274.98
L102.355 265.322
L103.069 250.836
L103.159 250.836
L103.427 241.868
L103.873 234.28
L104.141 226.692
L104.676 218.414
L105.034 207.377
L105.212 203.238
L106.016 186.683
L106.373 183.234
L106.998 170.817
L107.444 163.229
L107.623 159.09
L107.891 154.951
L108.069 151.502
L108.248 150.122
L108.783 145.293
L110.48 120.46
L110.569 120.46
L110.926 115.631
L111.015 115.631
L111.194 114.251
L111.462 109.423
L111.64 108.043
L111.819 105.974
L112.355 99.0754
L112.533 97.006
L112.712 93.5569
L112.801 93.5569
L113.515 88.7281
L113.694 85.9689
L113.783 85.9689
L114.14 82.5198
L114.676 75.6216
L114.854 75.6216
L115.033 72.8623
L115.122 72.8623
L115.301 72.1725
L115.569 72.1725
L116.015 69.4132
L116.104 69.4132
L116.283 66.6539
L116.551 66.6539
L116.819 65.2743
L116.997 65.2743
L117.176 64.5844
L117.265 64.5844
L117.89 60.4455
L118.068 60.4455
L118.604 56.9964
L118.693 56.9964
L119.14 54.2371
L119.229 54.2371
L119.408 53.5473
L119.586 53.5473
L119.765 52.8575
L120.033 52.8575
L120.479 50.0982
L120.747 50.0982
L120.925 49.4084
L121.015 49.4084
L121.283 48.0287
L121.729 48.0287
L121.908 47.3389
L122.086 47.3389
L122.265 45.9593
L122.532 45.9593
L122.711 45.2695
L124.586 45.2695
L124.764 44.5796
L124.854 44.5796
L125.032 43.8898
L125.568 43.8898
L125.747 43.2
L518.311 43.2
L518.311 43.2" style="fill:none;stroke:#008000;stroke-dasharray:1.000000,1.000000;stroke-dashoffset:0.0;"/>
   </g>
   <g id="line2d_3">
    <path clip-path="url(#p7ff5b81e1d)" d="
M72 388.8
L280.915 388.8
L281.094 388.227
L286.54 388.227
L286.718 387.654
L298.86 387.654
L299.039 387.081
L300.11 387.081
L300.289 385.934
L306.539 385.934
L306.806 384.788
L309.753 384.788
L309.931 384.215
L311.003 384.215
L311.181 383.642
L311.717 383.642
L311.895 383.069
L313.324 383.069
L313.502 382.496
L313.681 382.496
L313.86 381.922
L314.127 381.922
L314.306 381.349
L314.395 381.349
L314.574 380.776
L315.377 380.776
L315.556 379.63
L318.324 379.63
L318.502 379.057
L318.681 379.057
L318.859 377.91
L320.556 377.91
L320.734 377.337
L321.627 377.337
L321.805 376.764
L322.252 376.764
L322.43 376.191
L323.502 376.191
L323.68 375.618
L326.984 375.618
L327.252 374.472
L327.698 374.472
L327.876 373.899
L328.948 373.899
L329.126 373.325
L329.216 373.325
L329.573 371.606
L331.18 371.606
L331.358 371.033
L331.448 371.033
L331.626 370.46
L334.215 370.46
L334.394 369.887
L335.555 369.887
L335.822 368.74
L336.09 368.74
L336.269 368.167
L337.251 368.167
L337.429 367.594
L339.84 367.594
L340.019 367.021
L340.644 367.021
L340.822 366.448
L341.358 366.448
L341.536 365.875
L342.161 365.875
L342.34 365.301
L342.429 365.301
L342.608 364.728
L343.054 364.728
L343.233 364.155
L344.304 364.155
L344.75 361.863
L345.375 361.863
L345.643 360.716
L346.09 360.716
L346.268 360.143
L346.982 360.143
L347.161 359.57
L347.25 359.57
L347.607 357.851
L348.143 357.851
L348.322 357.278
L348.589 357.278
L348.857 356.131
L350.643 356.131
L351 354.412
L351.357 354.412
L351.536 353.839
L351.804 353.839
L352.25 351.546
L352.786 351.546
L352.964 350.973
L353.143 350.973
L353.321 350.4
L353.411 350.4
L353.589 349.827
L353.857 349.827
L354.036 349.254
L354.125 349.254
L354.303 348.681
L354.393 348.681
L354.75 346.961
L355.018 346.961
L355.196 346.388
L355.553 346.388
L355.732 345.815
L355.821 345.815
L356 345.242
L356.268 345.242
L356.535 344.096
L356.625 344.096
L357.071 341.803
L357.607 341.803
L357.785 341.23
L357.964 341.23
L358.142 340.657
L358.5 340.657
L358.857 338.937
L359.482 338.937
L359.66 337.791
L360.107 337.791
L360.374 334.925
L360.642 334.925
L360.91 333.779
L361.446 333.779
L361.624 333.206
L361.803 333.206
L361.981 332.633
L362.339 332.633
L362.606 331.487
L362.785 331.487
L362.964 329.194
L363.142 329.194
L363.499 327.475
L364.035 327.475
L364.571 324.609
L365.017 324.609
L365.196 324.036
L365.285 324.036
L365.463 323.463
L365.82 323.463
L366.088 322.316
L366.178 322.316
L366.356 321.743
L366.624 321.743
L366.803 321.17
L367.16 321.17
L367.428 320.024
L367.517 320.024
L367.785 318.878
L367.874 318.878
L368.32 316.585
L369.035 316.585
L369.57 313.719
L369.66 313.719
L369.838 313.146
L370.374 313.146
L370.642 312
L371.177 312
L371.356 311.427
L371.445 311.427
L371.624 310.854
L371.802 310.854
L371.981 310.281
L372.159 310.281
L372.338 309.707
L372.427 309.707
L372.606 307.988
L373.231 307.988
L373.409 307.415
L373.677 307.415
L373.856 305.696
L374.034 305.696
L374.213 305.122
L374.481 305.122
L374.748 303.976
L375.106 303.976
L375.284 303.403
L375.82 303.403
L375.998 302.83
L376.356 302.83
L376.623 301.684
L376.891 301.684
L377.07 301.11
L377.338 301.11
L377.605 299.964
L377.873 299.964
L378.32 297.672
L378.588 297.672
L378.945 295.952
L379.302 295.952
L379.48 295.379
L379.659 295.379
L379.837 294.233
L380.016 291.94
L380.552 291.94
L380.82 290.794
L381.534 290.794
L381.712 289.648
L381.98 289.648
L382.427 287.355
L382.694 287.355
L382.873 286.209
L383.409 286.209
L383.676 285.063
L384.659 285.063
L385.462 280.478
L386.533 280.478
L386.712 279.904
L387.337 279.904
L387.694 278.185
L387.783 278.185
L388.051 277.039
L388.14 277.039
L388.498 275.319
L388.587 275.319
L388.855 272.454
L389.39 272.454
L389.748 270.734
L389.837 270.734
L390.015 270.161
L390.194 270.161
L390.372 269.588
L390.462 269.588
L390.73 268.442
L390.819 268.442
L390.997 267.869
L391.265 267.869
L391.533 266.722
L391.622 266.722
L391.801 265.003
L391.89 265.003
L392.069 264.43
L392.158 264.43
L392.515 262.71
L392.604 262.71
L392.872 261.564
L392.962 261.564
L393.14 259.845
L393.319 259.845
L393.944 256.406
L394.212 256.406
L394.479 255.26
L394.569 255.26
L394.747 254.687
L394.926 254.687
L395.194 251.821
L395.461 251.821
L395.64 250.101
L395.819 249.528
L396.444 249.528
L396.711 248.382
L397.068 248.382
L397.336 247.236
L397.783 247.236
L398.14 245.516
L398.318 245.516
L398.497 244.943
L398.854 244.943
L399.033 244.37
L399.122 244.37
L399.3 243.224
L399.925 243.224
L400.193 242.078
L400.283 242.078
L400.818 239.212
L401.711 239.212
L401.89 237.493
L402.068 237.493
L402.247 236.919
L402.872 236.919
L403.05 236.346
L403.229 236.346
L403.497 235.2
L403.586 235.2
L403.764 234.627
L404.032 234.627
L404.211 234.054
L404.389 234.054
L404.568 232.334
L404.657 232.334
L404.925 231.188
L405.104 231.188
L405.282 229.469
L405.461 229.469
L405.639 228.896
L406.175 228.896
L406.443 226.603
L406.979 226.603
L407.336 224.884
L407.693 224.884
L408.139 222.591
L409.032 222.591
L409.478 220.299
L409.657 220.299
L410.014 218.579
L410.371 218.579
L410.818 216.287
L411.085 216.287
L411.353 215.14
L411.532 215.14
L411.8 213.994
L412.068 213.994
L412.246 213.421
L412.514 213.421
L412.782 212.275
L412.96 212.275
L413.139 210.555
L413.407 210.555
L413.585 209.409
L413.675 209.409
L414.567 204.251
L414.835 204.251
L415.192 202.531
L415.282 202.531
L415.549 201.385
L415.639 201.385
L415.996 199.666
L416.532 199.666
L416.799 198.519
L417.067 198.519
L417.246 197.946
L417.335 197.946
L417.603 195.654
L417.96 195.654
L418.853 190.496
L418.942 190.496
L419.21 188.203
L419.924 188.203
L420.371 185.91
L420.996 185.91
L421.174 185.337
L421.442 185.337
L421.62 184.764
L422.067 184.764
L422.245 184.191
L422.335 184.191
L422.513 183.618
L422.692 183.618
L423.049 181.899
L423.228 181.899
L423.406 181.325
L423.674 181.325
L423.942 180.179
L424.12 180.179
L424.388 179.033
L424.656 179.033
L424.835 178.46
L425.37 178.46
L425.549 177.887
L425.638 177.887
L425.906 176.74
L426.084 176.74
L426.263 176.167
L426.352 176.167
L426.531 175.594
L426.62 175.594
L426.977 173.875
L427.067 173.875
L427.245 173.301
L427.692 173.301
L427.87 172.728
L427.959 172.728
L428.227 171.582
L428.495 171.582
L428.674 171.009
L428.763 171.009
L428.941 170.436
L429.12 170.436
L429.566 168.143
L429.745 168.143
L430.013 166.997
L430.191 166.997
L430.37 166.424
L430.548 166.424
L430.727 165.851
L430.816 165.851
L431.173 162.412
L431.352 161.839
L431.977 161.839
L432.156 161.266
L432.423 161.266
L432.691 158.973
L432.959 157.827
L433.316 157.827
L433.495 156.681
L433.763 155.534
L434.03 155.534
L434.209 154.961
L434.298 154.961
L434.477 154.388
L434.834 154.388
L435.012 153.242
L435.459 153.242
L435.816 151.522
L436.084 151.522
L436.262 150.949
L436.441 150.949
L436.62 150.376
L436.977 150.376
L437.155 149.803
L437.334 149.803
L437.512 148.084
L438.048 148.084
L438.227 147.51
L438.316 147.51
L438.762 145.218
L439.03 145.218
L439.387 143.499
L439.476 143.499
L439.744 142.352
L439.923 142.352
L440.101 141.206
L440.459 141.206
L440.637 140.633
L440.994 140.633
L441.173 140.06
L441.262 140.06
L441.53 138.913
L441.619 138.913
L441.798 137.194
L441.887 137.194
L442.066 136.048
L442.333 134.901
L442.601 134.901
L442.869 133.755
L443.137 133.755
L443.494 132.036
L443.583 132.036
L443.762 131.463
L443.851 131.463
L444.03 130.89
L444.119 130.89
L444.298 129.17
L444.387 129.17
L444.565 128.597
L445.101 128.597
L445.28 128.024
L445.637 128.024
L445.905 126.878
L445.994 126.878
L446.172 126.304
L446.262 126.304
L446.44 125.158
L446.53 125.158
L446.708 124.585
L447.065 124.585
L447.244 124.012
L447.333 124.012
L447.512 123.439
L447.601 123.439
L447.958 121.719
L448.226 121.719
L448.404 121.146
L448.583 121.146
L448.762 120
L448.94 120
L449.119 119.427
L449.476 119.427
L450.012 116.561
L450.458 116.561
L450.636 115.988
L450.726 115.988
L450.994 114.842
L451.083 114.842
L451.261 114.269
L451.351 114.269
L451.619 113.122
L451.708 113.122
L452.154 110.83
L452.244 110.83
L452.422 110.257
L452.779 110.257
L452.958 109.684
L453.315 109.684
L453.493 109.11
L454.208 109.11
L454.386 108.537
L454.833 108.537
L455.1 107.391
L455.19 107.391
L455.547 105.672
L455.725 105.672
L455.993 104.525
L456.083 104.525
L456.261 103.952
L456.35 103.952
L456.618 102.806
L456.708 102.806
L456.886 102.233
L457.332 102.233
L457.511 101.66
L457.69 101.66
L457.957 100.513
L458.047 100.513
L458.225 99.9403
L458.493 99.9403
L458.761 98.794
L459.118 98.794
L459.297 97.6478
L460.368 97.6478
L460.547 97.0746
L460.725 97.0746
L460.993 95.9284
L461.261 95.9284
L461.439 95.3552
L462.154 95.3552
L462.511 93.6358
L463.404 93.6358
L463.582 93.0627
L463.671 93.0627
L463.85 92.4896
L464.028 92.4896
L464.207 91.9164
L464.743 91.9164
L464.921 91.3433
L465.1 91.3433
L465.278 90.7701
L465.368 90.7701
L465.636 89.6239
L465.725 89.6239
L465.903 89.0507
L466.082 89.0507
L466.26 88.4776
L466.618 88.4776
L466.796 87.9045
L466.975 87.9045
L467.153 87.3313
L467.51 87.3313
L467.689 86.7582
L468.135 86.7582
L468.314 86.1851
L468.492 86.1851
L468.76 85.0388
L468.85 85.0388
L469.028 84.4657
L469.475 84.4657
L469.742 83.3194
L470.546 83.3194
L470.814 82.1731
L471.974 82.1731
L472.242 81.0269
L472.51 81.0269
L472.689 80.4537
L473.403 80.4537
L473.581 78.7343
L473.76 78.7343
L474.028 77.5881
L474.206 77.5881
L474.474 76.4418
L475.456 76.4418
L475.635 75.8687
L476.081 75.8687
L476.26 74.7224
L477.956 74.7224
L478.135 74.1493
L478.224 74.1493
L478.403 73.5761
L479.028 73.5761
L479.206 72.4299
L479.563 72.4299
L479.831 71.2836
L480.099 71.2836
L480.277 70.7104
L480.456 70.7104
L480.635 70.1373
L480.992 70.1373
L481.17 69.5642
L481.438 69.5642
L481.617 68.991
L482.509 68.991
L482.688 68.4179
L482.956 68.4179
L483.134 67.8448
L483.313 67.8448
L483.492 67.2716
L483.581 67.2716
L483.759 66.6985
L484.027 66.6985
L484.206 66.1254
L484.295 66.1254
L484.474 65.5522
L485.456 65.5522
L485.634 64.406
L485.902 63.2597
L486.616 63.2597
L486.795 62.6866
L487.42 62.6866
L487.688 61.5403
L488.223 61.5403
L488.402 60.9672
L488.759 60.9672
L488.938 60.394
L490.366 60.394
L490.545 59.8209
L491.437 59.8209
L491.616 59.2478
L491.795 59.2478
L491.973 58.6746
L492.062 58.6746
L492.241 58.1015
L492.509 58.1015
L492.687 57.5284
L493.937 57.5284
L494.116 56.9552
L494.473 56.9552
L494.652 56.3821
L495.187 56.3821
L495.366 55.809
L496.169 55.809
L496.348 55.2358
L497.062 55.2358
L497.241 54.6627
L497.776 54.6627
L498.044 53.5164
L500.455 53.5164
L500.633 52.9433
L500.901 52.9433
L501.08 52.3701
L504.204 52.3701
L504.383 51.797
L508.133 51.797
L508.401 50.6507
L509.383 50.6507
L509.561 50.0776
L509.918 50.0776
L510.097 49.5045
L514.025 49.5045
L514.293 48.3582
L515.275 48.3582
L515.454 47.7851
L516.614 47.7851
L516.793 47.2119
L518.311 47.2119
L518.311 47.2119" style="fill:none;stroke:#ff0000;stroke-dasharray:3.000000,6.000000;stroke-dashoffset:0.0;"/>
   </g>
   <g id="line2d_4">
    <path clip-path="url(#p7ff5b81e1d)" d="
M72 388.469
L72.0893 388.8
L72.1786 388.8
L457.6 388.8
L457.779 388.469
L473.046 388.469
L473.224 388.138
L480.188 388.138
L480.367 387.807
L482.688 387.807
L482.867 387.476
L486.616 387.476
L486.795 387.145
L491.08 387.145
L491.259 386.814
L493.937 386.814
L494.116 386.483
L494.652 386.483
L494.83 386.152
L498.491 386.152
L498.669 385.821
L504.472 385.821
L504.651 385.49
L505.187 385.49
L505.365 385.159
L507.776 385.159
L507.954 384.828
L508.401 384.828
L508.579 384.497
L508.668 384.497
L508.936 383.834
L511.525 383.834
L511.704 383.503
L511.883 383.503
L512.061 383.172
L518.311 383.172
L518.311 383.172" style="fill:none;stroke:#00bfbf;stroke-dasharray:5.000000,1.000000,2.000000,1.000000,5.000000,1.000000;stroke-dashoffset:0.0;"/>
   </g>
   <g id="line2d_5">
    <path clip-path="url(#p7ff5b81e1d)" d="
M72 388.8
L72.0893 388.209
L72.1786 388.209
L73.7856 388.209
L73.9642 388.8
L125.747 388.8
L125.925 388.209
L126.014 388.209
L126.193 387.618
L126.461 387.618
L126.639 387.028
L127.175 387.028
L127.354 386.437
L129.496 386.437
L129.675 385.846
L130.478 385.846
L130.657 385.255
L136.728 385.255
L136.907 384.665
L137.621 384.665
L137.799 384.074
L137.889 384.074
L138.067 383.483
L140.656 383.483
L140.835 382.892
L141.013 382.892
L141.281 381.711
L143.335 381.711
L143.513 381.12
L143.603 381.12
L143.87 379.938
L144.228 379.938
L144.585 378.166
L144.852 378.166
L145.031 377.575
L147.531 377.575
L148.067 374.622
L148.602 374.622
L148.781 374.031
L149.674 374.031
L149.852 373.44
L150.656 373.44
L150.924 372.258
L151.102 372.258
L151.281 371.668
L151.37 371.668
L151.548 371.077
L151.816 371.077
L151.995 370.486
L153.423 370.486
L153.602 369.895
L154.048 369.895
L154.316 368.714
L154.673 368.714
L154.852 368.123
L155.655 368.123
L155.834 367.532
L156.191 367.532
L156.37 366.942
L157.62 366.942
L157.798 366.351
L157.887 366.351
L158.066 365.169
L158.512 365.169
L158.691 364.578
L159.137 364.578
L159.405 363.397
L159.762 363.397
L159.941 362.806
L161.191 362.806
L161.459 361.034
L161.637 358.671
L161.905 358.671
L162.084 356.898
L162.262 355.717
L162.441 355.126
L162.798 355.126
L162.976 354.535
L163.78 354.535
L163.958 353.945
L165.03 353.945
L165.298 352.763
L165.476 352.763
L165.744 351.582
L165.833 351.582
L166.101 350.4
L166.369 350.4
L166.726 348.628
L167.887 348.628
L168.065 348.037
L168.422 348.037
L168.601 347.446
L168.78 347.446
L169.137 345.674
L169.226 345.674
L169.494 344.492
L169.762 344.492
L170.119 342.72
L171.547 342.72
L171.726 342.129
L171.904 342.129
L171.994 341.538
L172.172 339.766
L172.44 338.585
L172.708 338.585
L173.065 336.812
L173.333 336.812
L173.601 335.631
L174.583 335.631
L174.761 335.04
L175.029 335.04
L175.208 334.449
L175.476 334.449
L175.743 333.268
L175.833 333.268
L176.011 330.314
L176.1 330.314
L176.279 328.542
L176.368 328.542
L176.547 327.36
L176.725 327.36
L176.904 324.997
L177.172 322.634
L177.35 322.043
L179.315 322.043
L179.493 320.271
L179.672 320.271
L179.94 319.089
L180.029 319.089
L180.564 316.135
L180.743 316.135
L180.922 314.954
L182.707 314.954
L182.975 313.772
L183.154 313.772
L183.332 312.591
L183.421 312.591
L183.689 310.228
L183.868 308.455
L184.046 308.455
L184.404 304.32
L185.207 304.32
L185.386 303.729
L186.457 303.729
L186.636 302.548
L186.814 302.548
L187.082 299.003
L187.26 299.003
L187.796 296.049
L187.885 296.049
L188.064 294.868
L189.85 294.868
L190.028 294.277
L190.207 294.277
L190.385 293.095
L190.921 290.142
L191.01 290.142
L191.635 286.597
L191.992 286.597
L192.171 286.006
L192.26 286.006
L192.528 284.825
L193.332 284.825
L193.956 281.28
L194.046 281.28
L194.224 280.689
L194.403 280.689
L194.581 278.917
L194.76 278.326
L194.849 278.326
L195.117 277.145
L195.296 277.145
L195.474 276.554
L196.01 276.554
L196.278 275.372
L196.635 275.372
L196.992 273.6
L197.171 273.6
L197.438 272.418
L197.528 272.418
L197.974 270.055
L198.063 270.055
L198.242 268.874
L198.42 268.283
L198.51 268.283
L198.688 267.692
L199.135 267.692
L199.313 267.102
L199.938 267.102
L200.117 266.511
L200.652 266.511
L200.831 265.92
L201.188 265.92
L201.724 262.966
L201.813 262.966
L202.349 260.012
L202.438 260.012
L202.617 259.422
L203.867 259.422
L204.134 258.24
L204.402 258.24
L204.581 256.468
L204.759 256.468
L204.938 255.877
L205.027 255.877
L205.384 252.332
L205.741 250.56
L207.706 250.56
L208.152 248.197
L208.241 248.197
L208.42 246.425
L208.509 246.425
L208.777 244.062
L209.134 244.062
L209.402 242.88
L209.491 242.88
L209.67 242.289
L209.848 242.289
L210.027 241.698
L210.473 241.698
L210.652 241.108
L211.366 241.108
L211.545 240.517
L211.634 240.517
L212.259 233.428
L212.437 233.428
L212.973 230.474
L213.241 230.474
L213.42 229.883
L213.687 229.883
L213.955 228.702
L214.759 228.702
L215.027 227.52
L215.205 227.52
L215.384 225.748
L215.652 225.748
L215.919 224.566
L216.276 224.566
L216.455 223.975
L218.419 223.975
L218.598 222.203
L218.955 222.203
L219.312 220.431
L219.401 220.431
L219.669 218.658
L219.848 216.886
L219.937 216.886
L220.294 215.114
L221.99 215.114
L222.169 213.932
L222.348 213.932
L222.526 212.751
L222.705 209.797
L223.062 209.797
L223.419 208.025
L223.597 208.025
L223.865 206.843
L225.204 206.843
L225.383 206.252
L225.562 206.252
L225.74 205.071
L226.008 200.935
L226.187 200.345
L226.276 200.345
L226.633 198.572
L226.722 198.572
L226.99 197.391
L227.169 197.391
L227.347 196.8
L229.222 196.8
L229.579 195.028
L229.758 195.028
L230.293 192.074
L230.383 192.074
L231.008 188.529
L231.633 188.529
L231.9 187.348
L231.99 187.348
L232.168 186.757
L232.615 186.757
L232.793 186.166
L233.061 186.166
L233.418 184.394
L233.686 184.394
L234.4 180.258
L234.579 180.258
L234.757 179.668
L236.454 179.668
L236.989 176.714
L237.079 176.714
L237.793 172.578
L237.882 172.578
L238.061 171.988
L238.15 171.988
L238.329 171.397
L240.382 171.397
L240.561 170.806
L240.828 170.806
L241.096 169.625
L241.186 169.625
L241.364 167.852
L241.453 167.852
L241.632 166.671
L241.811 166.671
L241.989 166.08
L243.239 166.08
L243.418 165.489
L243.596 165.489
L243.775 164.898
L243.953 164.898
L244.132 164.308
L244.489 164.308
L245.025 161.354
L245.382 161.354
L245.56 160.763
L247.078 160.763
L247.257 160.172
L247.435 160.172
L247.792 158.4
L248.239 158.4
L248.417 157.218
L248.685 157.218
L248.864 156.628
L249.221 156.628
L249.399 156.037
L250.56 156.037
L250.917 154.265
L251.096 154.265
L251.274 153.674
L251.631 153.674
L251.899 152.492
L254.31 152.492
L254.488 151.902
L254.578 151.902
L255.203 148.357
L255.47 148.357
L255.738 147.175
L255.917 147.175
L256.095 146.585
L256.274 146.585
L256.452 145.994
L257.792 145.994
L257.97 145.403
L258.595 145.403
L258.774 144.222
L259.042 143.04
L259.309 143.04
L259.577 141.858
L261.184 141.858
L261.72 138.905
L261.809 138.905
L261.988 135.951
L262.702 135.951
L263.059 134.178
L263.773 134.178
L263.952 133.588
L265.47 133.588
L266.005 130.634
L266.095 130.634
L266.363 129.452
L266.541 129.452
L266.72 128.862
L267.523 128.862
L267.702 128.271
L267.97 128.271
L268.148 127.089
L268.595 127.089
L268.773 126.498
L269.041 126.498
L269.22 125.908
L269.309 125.908
L269.577 124.726
L269.755 124.726
L270.202 122.363
L272.434 122.363
L272.969 119.409
L273.059 119.409
L273.416 117.637
L273.594 117.637
L273.773 117.046
L273.951 117.046
L274.219 115.865
L275.648 115.865
L275.826 115.274
L276.094 115.274
L276.273 114.683
L276.362 114.683
L276.54 114.092
L276.808 114.092
L276.987 113.502
L280.38 113.502
L280.647 112.32
L282.522 112.32
L282.879 110.548
L282.969 110.548
L283.236 109.366
L283.504 109.366
L283.683 107.594
L283.861 107.594
L284.129 106.412
L284.308 106.412
L284.486 105.231
L285.111 105.231
L285.29 104.64
L286.897 104.64
L287.076 104.049
L287.433 104.049
L287.611 101.095
L287.968 101.095
L288.236 99.9138
L290.29 99.9138
L290.468 98.1415
L290.647 98.1415
L290.915 95.7785
L291.182 95.7785
L291.361 94.5969
L291.629 94.5969
L291.807 94.0062
L292.343 94.0062
L292.522 93.4154
L293.861 93.4154
L294.039 92.8246
L294.307 92.8246
L294.486 91.6431
L294.664 91.6431
L295.021 89.8708
L295.111 89.8708
L295.289 89.28
L297.521 89.28
L297.7 87.5077
L297.878 87.5077
L298.146 86.3262
L298.682 86.3262
L298.86 85.1446
L301.092 85.1446
L301.271 84.5538
L302.342 84.5538
L302.521 83.9631
L304.217 83.9631
L304.485 82.7815
L305.824 82.7815
L306.003 82.1908
L306.36 82.1908
L306.539 81.6
L308.146 81.6
L308.413 80.4185
L309.306 80.4185
L309.485 79.8277
L312.431 79.8277
L312.61 79.2369
L312.788 79.2369
L312.967 78.6462
L315.467 78.6462
L315.734 77.4646
L316.092 77.4646
L316.27 76.8738
L319.216 76.8738
L319.395 76.2831
L319.484 76.2831
L319.663 75.6923
L320.02 75.6923
L320.198 75.1015
L321.27 75.1015
L321.448 74.5108
L321.805 74.5108
L321.984 73.92
L322.698 73.92
L322.877 73.3292
L327.073 73.3292
L327.252 72.7385
L336.626 72.7385
L336.804 72.1477
L337.519 72.1477
L337.697 71.5569
L337.876 71.5569
L338.054 70.9662
L339.126 70.9662
L339.304 70.3754
L340.644 70.3754
L340.822 69.7846
L343.679 69.7846
L343.858 69.1938
L344.215 69.1938
L344.393 68.0123
L351.446 68.0123
L351.625 67.4215
L354.482 67.4215
L354.66 66.8308
L354.928 66.8308
L355.107 66.24
L356.982 66.24
L357.16 65.6492
L358.321 65.6492
L358.589 64.4677
L361.803 64.4677
L361.981 63.8769
L362.428 63.8769
L362.606 63.2862
L365.731 63.2862
L365.91 62.6954
L366.178 62.6954
L366.356 62.1046
L366.624 62.1046
L366.892 60.9231
L369.481 60.9231
L369.66 60.3323
L371.088 60.3323
L371.267 59.7415
L372.516 59.7415
L372.784 58.56
L376.623 58.56
L376.802 57.9692
L380.552 57.9692
L380.73 57.3785
L400.908 57.3785
L401.086 56.7877
L402.247 56.7877
L402.425 56.1969
L403.943 56.1969
L404.122 55.6062
L408.675 55.6062
L408.853 55.0154
L412.782 55.0154
L412.96 54.4246
L422.87 54.4246
L423.049 53.8338
L440.191 53.8338
L440.369 53.2431
L452.422 53.2431
L452.601 52.6523
L459.564 52.6523
L459.743 52.0615
L518.311 52.0615
L518.311 52.0615" style="fill:none;stroke:#bf00bf;stroke-linecap:square;"/>
   </g>
   <g id="matplotlib.axis_1">
    <g id="xtick_1">
     <g id="line2d_6">
      <defs>
       <path d="
M0 0
L0 -4" id="mc7db9fdffb" style="stroke:#000000;stroke-width:0.5;"/>
      </defs>
      <g>
       <use style="stroke:#000000;stroke-width:0.5;" x="72.0" xlink:href="#mc7db9fdffb" y="388.8"/>
      </g>
     </g>
     <g id="line2d_7">
      <defs>
       <path d="
M0 0
L0 4" id="m5a7d422ac3" style="stroke:#000000;stroke-width:0.5;"/>
      </defs>
      <g>
       <use style="stroke:#000000;stroke-width:0.5;" x="72.0" xlink:href="#m5a7d422ac3" y="43.2"/>
      </g>
     </g>
     <g id="text_1">
      <!-- 0 -->
      <defs>
       <path d="
M56.9844 36.375
Q56.9844 16.7969 50.8594 7.64062
Q44.7344 -1.51562 31.8438 -1.51562
Q18.75 -1.51562 12.7188 7.76562
Q6.6875 17.0469 6.6875 36.2812
Q6.6875 55.6719 12.7812 64.9219
Q18.8906 74.1719 31.8438 74.1719
Q44.9219 74.1719 50.9531 64.7656
Q56.9844 55.375 56.9844 36.375
M44.1406 14.2031
Q45.8438 18.1719 46.4531 23.5156
Q47.0781 28.8594 47.0781 36.375
Q47.0781 43.7969 46.4531 49.2656
Q45.8438 54.7344 44.0938 58.5469
Q42.3906 62.3125 39.4219 64.2031
Q36.4688 66.1094 31.8438 66.1094
Q27.25 66.1094 24.2344 64.2031
Q21.2344 62.3125 19.4844 58.4531
Q17.8281 54.8281 17.2188 49.0156
Q16.6094 43.2188 16.6094 36.2812
Q16.6094 28.6562 17.1406 23.5312
Q17.6719 18.4062 19.4375 14.3594
Q21.0469 10.5469 24 8.54688
Q26.9531 6.54688 31.8438 6.54688
Q36.4219 6.54688 39.4531 8.45312
Q42.4844 10.3594 44.1406 14.2031" id="Verdana-30"/>
      </defs>
      <g transform="translate(68.9821875 401.918125)scale(0.12 -0.12)">
       <use xlink:href="#Verdana-30"/>
      </g>
     </g>
    </g>
    <g id="xtick_2">
     <g id="line2d_8">
      <g>
       <use style="stroke:#000000;stroke-width:0.5;" x="161.28" xlink:href="#mc7db9fdffb" y="388.8"/>
      </g>
     </g>
     <g id="line2d_9">
      <g>
       <use style="stroke:#000000;stroke-width:0.5;" x="161.28" xlink:href="#m5a7d422ac3" y="43.2"/>
      </g>
     </g>
     <g id="text_2">
      <!-- 1000 -->
      <defs>
       <path d="
M52.9375 0
L13.5781 0
L13.5781 7.42188
L28.7188 7.42188
L28.7188 56.1562
L13.5781 56.1562
L13.5781 62.7969
Q16.6562 62.7969 20.1719 63.2969
Q23.6875 63.8125 25.4844 64.7969
Q27.7344 66.0156 29.0312 67.8906
Q30.3281 69.7812 30.5156 72.9531
L38.0938 72.9531
L38.0938 7.42188
L52.9375 7.42188
z
" id="Verdana-31"/>
      </defs>
      <g transform="translate(147.2315625 401.918125)scale(0.12 -0.12)">
       <use xlink:href="#Verdana-31"/>
       <use x="63.57421875" xlink:href="#Verdana-30"/>
       <use x="127.1484375" xlink:href="#Verdana-30"/>
       <use x="190.72265625" xlink:href="#Verdana-30"/>
      </g>
     </g>
    </g>
    <g id="xtick_3">
     <g id="line2d_10">
      <g>
       <use style="stroke:#000000;stroke-width:0.5;" x="250.56" xlink:href="#mc7db9fdffb" y="388.8"/>
      </g>
     </g>
     <g id="line2d_11">
      <g>
       <use style="stroke:#000000;stroke-width:0.5;" x="250.56" xlink:href="#m5a7d422ac3" y="43.2"/>
      </g>
     </g>
     <g id="text_3">
      <!-- 2000 -->
      <defs>
       <path d="
M57.0781 0
L7.85938 0
L7.85938 10.2031
Q12.9844 14.5938 18.1406 18.9844
Q23.2969 23.3906 27.7344 27.7344
Q37.1094 36.8125 40.5781 42.1562
Q44.0469 47.5156 44.0469 53.7188
Q44.0469 59.375 40.3125 62.5625
Q36.5781 65.7656 29.8906 65.7656
Q25.4375 65.7656 20.2656 64.2031
Q15.0938 62.6406 10.1562 59.4219
L9.67188 59.4219
L9.67188 69.6719
Q13.1406 71.3906 18.9219 72.7969
Q24.7031 74.2188 30.125 74.2188
Q41.3125 74.2188 47.6562 68.8125
Q54 63.4219 54 54.2031
Q54 50.0469 52.9531 46.4531
Q51.9062 42.875 49.8594 39.6562
Q47.9531 36.625 45.3906 33.6875
Q42.8281 30.7656 39.1562 27.2031
Q33.9375 22.0781 28.3594 17.2656
Q22.7969 12.4531 17.9688 8.34375
L57.0781 8.34375
z
" id="Verdana-32"/>
      </defs>
      <g transform="translate(236.1684375 401.918125)scale(0.12 -0.12)">
       <use xlink:href="#Verdana-32"/>
       <use x="63.57421875" xlink:href="#Verdana-30"/>
       <use x="127.1484375" xlink:href="#Verdana-30"/>
       <use x="190.72265625" xlink:href="#Verdana-30"/>
      </g>
     </g>
    </g>
    <g id="xtick_4">
     <g id="line2d_12">
      <g>
       <use style="stroke:#000000;stroke-width:0.5;" x="339.84" xlink:href="#mc7db9fdffb" y="388.8"/>
      </g>
     </g>
     <g id="line2d_13">
      <g>
       <use style="stroke:#000000;stroke-width:0.5;" x="339.84" xlink:href="#m5a7d422ac3" y="43.2"/>
      </g>
     </g>
     <g id="text_4">
      <!-- 3000 -->
      <defs>
       <path d="
M50.6875 35.0156
Q53.0312 32.9062 54.5469 29.7344
Q56.0625 26.5625 56.0625 21.5312
Q56.0625 16.5469 54.25 12.3906
Q52.4375 8.25 49.1719 5.17188
Q45.5156 1.76562 40.5469 0.125
Q35.5938 -1.51562 29.6875 -1.51562
Q23.6406 -1.51562 17.7812 -0.0625
Q11.9219 1.375 8.15625 3.07812
L8.15625 13.2812
L8.89062 13.2812
Q13.0312 10.5469 18.6406 8.73438
Q24.2656 6.9375 29.5 6.9375
Q32.5625 6.9375 36.0312 7.95312
Q39.5 8.98438 41.6562 10.9844
Q43.8906 13.1406 44.9844 15.7188
Q46.0938 18.3125 46.0938 22.2656
Q46.0938 26.1719 44.8438 28.7344
Q43.6094 31.2969 41.4062 32.7656
Q39.2031 34.2812 36.0781 34.8438
Q32.9531 35.4062 29.3438 35.4062
L24.9531 35.4062
L24.9531 43.5
L28.375 43.5
Q35.7969 43.5 40.2031 46.5938
Q44.625 49.7031 44.625 55.6719
Q44.625 58.2969 43.5 60.2656
Q42.3906 62.25 40.375 63.5312
Q38.2812 64.7969 35.8906 65.2812
Q33.5 65.7656 30.4688 65.7656
Q25.8281 65.7656 20.5938 64.1094
Q15.375 62.4531 10.75 59.4219
L10.25 59.4219
L10.25 69.625
Q13.7188 71.3438 19.5 72.7812
Q25.2969 74.2188 30.7188 74.2188
Q36.0312 74.2188 40.0781 73.2344
Q44.1406 72.2656 47.4062 70.125
Q50.9219 67.7812 52.7344 64.4531
Q54.5469 61.1406 54.5469 56.6875
Q54.5469 50.6406 50.2656 46.125
Q46 41.6094 40.1875 40.4375
L40.1875 39.75
Q42.5312 39.3594 45.5469 38.1094
Q48.5781 36.8594 50.6875 35.0156" id="Verdana-33"/>
      </defs>
      <g transform="translate(325.46625 401.918125)scale(0.12 -0.12)">
       <use xlink:href="#Verdana-33"/>
       <use x="63.57421875" xlink:href="#Verdana-30"/>
       <use x="127.1484375" xlink:href="#Verdana-30"/>
       <use x="190.72265625" xlink:href="#Verdana-30"/>
      </g>
     </g>
    </g>
    <g id="xtick_5">
     <g id="line2d_14">
      <g>
       <use style="stroke:#000000;stroke-width:0.5;" x="429.12" xlink:href="#mc7db9fdffb" y="388.8"/>
      </g>
     </g>
     <g id="line2d_15">
      <g>
       <use style="stroke:#000000;stroke-width:0.5;" x="429.12" xlink:href="#m5a7d422ac3" y="43.2"/>
      </g>
     </g>
     <g id="text_5">
      <!-- 4000 -->
      <defs>
       <path d="
M58.7344 20.4531
L47.9531 20.4531
L47.9531 0
L38.5781 0
L38.5781 20.4531
L3.76562 20.4531
L3.76562 31.6875
L38.9688 72.7031
L47.9531 72.7031
L47.9531 28.2656
L58.7344 28.2656
z

M38.5781 28.2656
L38.5781 61.0781
L10.4062 28.2656
z
" id="Verdana-34"/>
      </defs>
      <g transform="translate(414.4828125 401.918125)scale(0.12 -0.12)">
       <use xlink:href="#Verdana-34"/>
       <use x="63.57421875" xlink:href="#Verdana-30"/>
       <use x="127.1484375" xlink:href="#Verdana-30"/>
       <use x="190.72265625" xlink:href="#Verdana-30"/>
      </g>
     </g>
    </g>
    <g id="xtick_6">
     <g id="line2d_16">
      <g>
       <use style="stroke:#000000;stroke-width:0.5;" x="518.4" xlink:href="#mc7db9fdffb" y="388.8"/>
      </g>
     </g>
     <g id="line2d_17">
      <g>
       <use style="stroke:#000000;stroke-width:0.5;" x="518.4" xlink:href="#m5a7d422ac3" y="43.2"/>
      </g>
     </g>
     <g id="text_6">
      <!-- 5000 -->
      <defs>
       <path d="
M56.5 23.0938
Q56.5 18.0156 54.6406 13.375
Q52.7812 8.73438 49.5625 5.5625
Q46.0469 2.15625 41.1875 0.3125
Q36.3281 -1.51562 29.9375 -1.51562
Q23.9688 -1.51562 18.4531 -0.265625
Q12.9375 0.984375 9.125 2.73438
L9.125 13.0312
L9.8125 13.0312
Q13.8125 10.5 19.1875 8.71875
Q24.5625 6.9375 29.7344 6.9375
Q33.2031 6.9375 36.4531 7.90625
Q39.7031 8.89062 42.2344 11.3281
Q44.3906 13.4219 45.4844 16.3438
Q46.5781 19.2812 46.5781 23.1406
Q46.5781 26.9062 45.2812 29.4844
Q44 32.0781 41.7031 33.6406
Q39.1562 35.5 35.5156 36.25
Q31.8906 37.0156 27.3906 37.0156
Q23.0938 37.0156 19.1094 36.4219
Q15.1406 35.8438 12.25 35.25
L12.25 72.7031
L56 72.7031
L56 64.1562
L21.6875 64.1562
L21.6875 44.8281
Q23.7812 45.0156 25.9688 45.1094
Q28.1719 45.2188 29.7812 45.2188
Q35.6875 45.2188 40.125 44.2188
Q44.5781 43.2188 48.2969 40.6719
Q52.2031 37.9844 54.3438 33.7344
Q56.5 29.5 56.5 23.0938" id="Verdana-35"/>
      </defs>
      <g transform="translate(504.084375 401.918125)scale(0.12 -0.12)">
       <use xlink:href="#Verdana-35"/>
       <use x="63.57421875" xlink:href="#Verdana-30"/>
       <use x="127.1484375" xlink:href="#Verdana-30"/>
       <use x="190.72265625" xlink:href="#Verdana-30"/>
      </g>
     </g>
    </g>
    <g id="text_7">
     <!-- Objective function exectuions -->
     <defs>
      <path d="
M37.3594 0.484375
Q34.7656 -0.203125 31.7031 -0.640625
Q28.6562 -1.07812 26.2656 -1.07812
Q17.9219 -1.07812 13.5781 3.40625
Q9.23438 7.90625 9.23438 17.8281
L9.23438 46.8281
L3.03125 46.8281
L3.03125 54.5469
L9.23438 54.5469
L9.23438 70.2188
L18.4062 70.2188
L18.4062 54.5469
L37.3594 54.5469
L37.3594 46.8281
L18.4062 46.8281
L18.4062 21.9688
Q18.4062 17.6719 18.5938 15.25
Q18.7969 12.8438 19.9688 10.75
Q21.0469 8.79688 22.9219 7.89062
Q24.8125 6.98438 28.6562 6.98438
Q30.9062 6.98438 33.3438 7.64062
Q35.7969 8.29688 36.8594 8.73438
L37.3594 8.73438
z
" id="Verdana-74"/>
      <path d="
M56.2031 54.5469
L34.125 0
L24.9062 0
L2.98438 54.5469
L12.9375 54.5469
L29.8281 11.1406
L46.5781 54.5469
z
" id="Verdana-76"/>
      <path d="
M26.0312 63.6719
L15.6719 63.6719
L15.6719 73.1875
L26.0312 73.1875
z

M25.4375 -1.3125
Q25.4375 -10.8906 20.5469 -15.7656
Q15.6719 -20.6562 7.46875 -20.6562
Q5.51562 -20.6562 2.3125 -20.2656
Q-0.875 -19.875 -3.03125 -19.2812
L-3.03125 -10.5469
L-2.54688 -10.5469
Q-1.17188 -11.0781 1.14062 -11.7656
Q3.46875 -12.4531 5.67188 -12.4531
Q9.1875 -12.4531 11.3281 -11.4688
Q13.4844 -10.5 14.5469 -8.54688
Q15.625 -6.59375 15.9375 -3.82812
Q16.2656 -1.07812 16.2656 2.875
L16.2656 46.8281
L4.89062 46.8281
L4.89062 54.5469
L25.4375 54.5469
z
" id="Verdana-6a"/>
      <path d="
M63.9688 64.3594
Q68.4062 59.4688 70.7656 52.3906
Q73.1406 45.3125 73.1406 36.3281
Q73.1406 27.3438 70.7188 20.2344
Q68.3125 13.1406 63.9688 8.40625
Q59.4688 3.46875 53.3438 0.96875
Q47.2188 -1.51562 39.3594 -1.51562
Q31.6875 -1.51562 25.4062 1.01562
Q19.1406 3.5625 14.75 8.40625
Q10.3594 13.2344 7.98438 20.2656
Q5.60938 27.2969 5.60938 36.3281
Q5.60938 45.2188 7.95312 52.2656
Q10.2969 59.3281 14.7969 64.3594
Q19.0938 69.1406 25.4688 71.6719
Q31.8438 74.2188 39.3594 74.2188
Q47.1719 74.2188 53.3906 71.6562
Q59.625 69.0938 63.9688 64.3594
M63.0938 36.3281
Q63.0938 50.4844 56.7344 58.1719
Q50.3906 65.875 39.4062 65.875
Q28.3281 65.875 22 58.1719
Q15.6719 50.4844 15.6719 36.3281
Q15.6719 22.0156 22.1094 14.4219
Q28.5625 6.84375 39.4062 6.84375
Q50.25 6.84375 56.6719 14.4219
Q63.0938 22.0156 63.0938 36.3281" id="Verdana-4f"/>
      <path d="
M54.25 0
L45.0625 0
L45.0625 6.0625
Q40.4375 2.39062 36.1875 0.4375
Q31.9375 -1.51562 26.8125 -1.51562
Q18.2188 -1.51562 13.4219 3.73438
Q8.64062 8.98438 8.64062 19.1406
L8.64062 54.5469
L17.8281 54.5469
L17.8281 23.4844
Q17.8281 19.3438 18.2188 16.375
Q18.6094 13.4219 19.875 11.3281
Q21.1875 9.1875 23.2812 8.20312
Q25.3906 7.23438 29.3906 7.23438
Q32.9531 7.23438 37.1719 9.07812
Q41.4062 10.9375 45.0625 13.8125
L45.0625 54.5469
L54.25 54.5469
z
" id="Verdana-75"/>
      <path d="
M48 15.7188
Q48 8.25 41.8125 3.46875
Q35.6406 -1.3125 24.9531 -1.3125
Q18.8906 -1.3125 13.8438 0.125
Q8.79688 1.5625 5.375 3.26562
L5.375 13.5781
L5.85938 13.5781
Q10.2031 10.2969 15.5156 8.375
Q20.8438 6.45312 25.7344 6.45312
Q31.7812 6.45312 35.2031 8.40625
Q38.625 10.3594 38.625 14.5469
Q38.625 17.7812 36.7656 19.4375
Q34.9062 21.0938 29.6406 22.2656
Q27.6875 22.7031 24.5312 23.2812
Q21.3906 23.875 18.7969 24.5625
Q11.625 26.4688 8.60938 30.1562
Q5.60938 33.8438 5.60938 39.2031
Q5.60938 42.5781 7 45.5469
Q8.40625 48.5312 11.2344 50.875
Q13.9688 53.1719 18.1875 54.5156
Q22.4062 55.8594 27.6406 55.8594
Q32.5156 55.8594 37.5156 54.6562
Q42.5312 53.4688 45.8438 51.7656
L45.8438 41.9375
L45.3594 41.9375
Q41.8438 44.5312 36.8125 46.3125
Q31.7812 48.0938 26.9531 48.0938
Q21.9219 48.0938 18.4531 46.1562
Q14.9844 44.2344 14.9844 40.4375
Q14.9844 37.0625 17.0938 35.3594
Q19.1406 33.6406 23.7344 32.5625
Q26.2656 31.9844 29.4062 31.3906
Q32.5625 30.8125 34.6719 30.3281
Q41.0625 28.8594 44.5312 25.2969
Q48 21.6875 48 15.7188" id="Verdana-73"/>
      <path d="
M56.25 0
L44.6719 0
L29.2031 20.9531
L13.625 0
L2.9375 0
L24.2188 27.2031
L3.125 54.5469
L14.7031 54.5469
L30.0781 33.9375
L45.5156 54.5469
L56.25 54.5469
L34.8125 27.6875
z
" id="Verdana-78"/>
      <path id="Verdana-20"/>
      <path d="
M38.375 67.0938
L37.8906 67.0938
Q36.375 67.5312 33.9375 67.9844
Q31.5 68.4531 29.6406 68.4531
Q23.7344 68.4531 21.0625 65.8438
Q18.4062 63.2344 18.4062 56.3906
L18.4062 54.5469
L34.9688 54.5469
L34.9688 46.8281
L18.7031 46.8281
L18.7031 0
L9.51562 0
L9.51562 46.8281
L3.32812 46.8281
L3.32812 54.5469
L9.51562 54.5469
L9.51562 56.3438
Q9.51562 66.0625 14.3438 71.2656
Q19.1875 76.4688 28.3281 76.4688
Q31.3906 76.4688 33.8594 76.1719
Q36.3281 75.875 38.375 75.4844
z
" id="Verdana-66"/>
      <path d="
M55.5156 27.25
Q55.5156 13.9219 48.6719 6.20312
Q41.8438 -1.51562 30.375 -1.51562
Q18.7969 -1.51562 11.9844 6.20312
Q5.17188 13.9219 5.17188 27.25
Q5.17188 40.5781 11.9844 48.3125
Q18.7969 56.0625 30.375 56.0625
Q41.8438 56.0625 48.6719 48.3125
Q55.5156 40.5781 55.5156 27.25
M46.0469 27.25
Q46.0469 37.8438 41.8906 42.9844
Q37.75 48.1406 30.375 48.1406
Q22.9062 48.1406 18.7812 42.9844
Q14.6562 37.8438 14.6562 27.25
Q14.6562 17 18.7969 11.6875
Q22.9531 6.39062 30.375 6.39062
Q37.7031 6.39062 41.875 11.6406
Q46.0469 16.8906 46.0469 27.25" id="Verdana-6f"/>
      <path d="
M57.0312 27.6875
Q57.0312 20.8438 55.0938 15.375
Q53.1719 9.90625 49.9062 6.20312
Q46.4375 2.34375 42.2812 0.40625
Q38.1406 -1.51562 33.1562 -1.51562
Q28.5156 -1.51562 25.0469 -0.40625
Q21.5781 0.6875 18.2188 2.54688
L17.625 0
L9.03125 0
L9.03125 75.9844
L18.2188 75.9844
L18.2188 48.8281
Q22.0781 52 26.4219 54.0312
Q30.7656 56.0625 36.1875 56.0625
Q45.8438 56.0625 51.4375 48.6406
Q57.0312 41.2188 57.0312 27.6875
M47.5625 27.4375
Q47.5625 37.2031 44.3281 42.25
Q41.1094 47.3125 33.9375 47.3125
Q29.9375 47.3125 25.8281 45.5781
Q21.7344 43.8438 18.2188 41.1094
L18.2188 9.85938
Q22.125 8.10938 24.9219 7.42188
Q27.7344 6.73438 31.2969 6.73438
Q38.9219 6.73438 43.2344 11.7344
Q47.5625 16.75 47.5625 27.4375" id="Verdana-62"/>
      <path d="
M49.3594 3.42188
Q44.7812 1.21875 40.6562 0
Q36.5312 -1.21875 31.8906 -1.21875
Q25.9844 -1.21875 21.0469 0.515625
Q16.1094 2.25 12.5938 5.76562
Q9.03125 9.28125 7.07812 14.6406
Q5.125 20.0156 5.125 27.2031
Q5.125 40.5781 12.4688 48.1875
Q19.8281 55.8125 31.8906 55.8125
Q36.5781 55.8125 41.0938 54.4844
Q45.6094 53.1719 49.3594 51.2656
L49.3594 41.0625
L48.875 41.0625
Q44.6719 44.3438 40.2031 46.0938
Q35.75 47.8594 31.5 47.8594
Q23.6875 47.8594 19.1719 42.6094
Q14.6562 37.3594 14.6562 27.2031
Q14.6562 17.3281 19.0625 12.0312
Q23.4844 6.73438 31.5 6.73438
Q34.2812 6.73438 37.1562 7.46875
Q40.0469 8.20312 42.3281 9.375
Q44.3438 10.4062 46.0938 11.5469
Q47.8594 12.7031 48.875 13.5312
L49.3594 13.5312
z
" id="Verdana-63"/>
      <path d="
M54.6406 0
L45.4531 0
L45.4531 31.0625
Q45.4531 34.8125 45.0156 38.1094
Q44.5781 41.4062 43.4062 43.2656
Q42.1875 45.3125 39.8906 46.3125
Q37.5938 47.3125 33.9375 47.3125
Q30.1719 47.3125 26.0625 45.4531
Q21.9688 43.6094 18.2188 40.7188
L18.2188 0
L9.03125 0
L9.03125 54.5469
L18.2188 54.5469
L18.2188 48.4844
Q22.5156 52.0469 27.0938 54.0469
Q31.6875 56.0625 36.5312 56.0625
Q45.3594 56.0625 50 50.7344
Q54.6406 45.4062 54.6406 35.4062
z
" id="Verdana-6e"/>
      <path d="
M54.6875 26.3125
L14.5 26.3125
Q14.5 21.2969 16.0156 17.5469
Q17.5312 13.8125 20.1719 11.4219
Q22.7031 9.07812 26.1875 7.90625
Q29.6875 6.73438 33.8906 6.73438
Q39.4531 6.73438 45.0938 8.95312
Q50.7344 11.1875 53.125 13.3281
L53.6094 13.3281
L53.6094 3.32812
Q48.9688 1.375 44.1406 0.046875
Q39.3125 -1.26562 33.9844 -1.26562
Q20.4062 -1.26562 12.7812 6.07812
Q5.17188 13.4219 5.17188 26.9531
Q5.17188 40.3281 12.4688 48.1875
Q19.7812 56.0625 31.6875 56.0625
Q42.7188 56.0625 48.7031 49.6094
Q54.6875 43.1719 54.6875 31.2969
z

M45.75 33.3438
Q45.7031 40.5781 42.1094 44.5312
Q38.5312 48.4844 31.2031 48.4844
Q23.8281 48.4844 19.4531 44.1406
Q15.0938 39.7969 14.5 33.3438
z
" id="Verdana-65"/>
      <path d="
M18.8906 63.6719
L8.54688 63.6719
L8.54688 73.1875
L18.8906 73.1875
z

M18.3125 0
L9.125 0
L9.125 54.5469
L18.3125 54.5469
z
" id="Verdana-69"/>
     </defs>
     <g transform="translate(206.5078125 418.509375)scale(0.12 -0.12)">
      <use xlink:href="#Verdana-4f"/>
      <use x="78.7109375" xlink:href="#Verdana-62"/>
      <use x="141.015625" xlink:href="#Verdana-6a"/>
      <use x="175.439453125" xlink:href="#Verdana-65"/>
      <use x="235.009765625" xlink:href="#Verdana-63"/>
      <use x="287.109375" xlink:href="#Verdana-74"/>
      <use x="326.513671875" xlink:href="#Verdana-69"/>
      <use x="353.955078125" xlink:href="#Verdana-76"/>
      <use x="412.259765625" xlink:href="#Verdana-65"/>
      <use x="471.830078125" xlink:href="#Verdana-20"/>
      <use x="506.986328125" xlink:href="#Verdana-66"/>
      <use x="542.142578125" xlink:href="#Verdana-75"/>
      <use x="605.423828125" xlink:href="#Verdana-6e"/>
      <use x="668.705078125" xlink:href="#Verdana-63"/>
      <use x="720.8046875" xlink:href="#Verdana-74"/>
      <use x="760.208984375" xlink:href="#Verdana-69"/>
      <use x="787.650390625" xlink:href="#Verdana-6f"/>
      <use x="848.34375" xlink:href="#Verdana-6e"/>
      <use x="911.625" xlink:href="#Verdana-20"/>
      <use x="946.78125" xlink:href="#Verdana-65"/>
      <use x="1006.3515625" xlink:href="#Verdana-78"/>
      <use x="1064.40625" xlink:href="#Verdana-65"/>
      <use x="1123.9765625" xlink:href="#Verdana-63"/>
      <use x="1176.076171875" xlink:href="#Verdana-74"/>
      <use x="1215.48046875" xlink:href="#Verdana-75"/>
      <use x="1278.76171875" xlink:href="#Verdana-69"/>
      <use x="1306.203125" xlink:href="#Verdana-6f"/>
      <use x="1366.896484375" xlink:href="#Verdana-6e"/>
      <use x="1430.177734375" xlink:href="#Verdana-73"/>
     </g>
    </g>
   </g>
   <g id="matplotlib.axis_2">
    <g id="ytick_1">
     <g id="line2d_18">
      <defs>
       <path d="
M0 0
L4 0" id="md7965d1ba0" style="stroke:#000000;stroke-width:0.5;"/>
      </defs>
      <g>
       <use style="stroke:#000000;stroke-width:0.5;" x="72.0" xlink:href="#md7965d1ba0" y="388.8"/>
      </g>
     </g>
     <g id="line2d_19">
      <defs>
       <path d="
M0 0
L-4 0" id="md9a1c1a7cd" style="stroke:#000000;stroke-width:0.5;"/>
      </defs>
      <g>
       <use style="stroke:#000000;stroke-width:0.5;" x="518.4" xlink:href="#md9a1c1a7cd" y="388.8"/>
      </g>
     </g>
     <g id="text_8">
      <!-- 0.0 -->
      <defs>
       <path d="
M24.0312 0
L12.3594 0
L12.3594 13.9219
L24.0312 13.9219
z
" id="Verdana-2e"/>
      </defs>
      <g transform="translate(49.97 392.1515625)scale(0.12 -0.12)">
       <use xlink:href="#Verdana-30"/>
       <use x="63.57421875" xlink:href="#Verdana-2e"/>
       <use x="99.951171875" xlink:href="#Verdana-30"/>
      </g>
     </g>
    </g>
    <g id="ytick_2">
     <g id="line2d_20">
      <g>
       <use style="stroke:#000000;stroke-width:0.5;" x="72.0" xlink:href="#md7965d1ba0" y="319.68"/>
      </g>
     </g>
     <g id="line2d_21">
      <g>
       <use style="stroke:#000000;stroke-width:0.5;" x="518.4" xlink:href="#md9a1c1a7cd" y="319.68"/>
      </g>
     </g>
     <g id="text_9">
      <!-- 0.2 -->
      <g transform="translate(49.95875 323.0315625)scale(0.12 -0.12)">
       <use xlink:href="#Verdana-30"/>
       <use x="63.57421875" xlink:href="#Verdana-2e"/>
       <use x="99.951171875" xlink:href="#Verdana-32"/>
      </g>
     </g>
    </g>
    <g id="ytick_3">
     <g id="line2d_22">
      <g>
       <use style="stroke:#000000;stroke-width:0.5;" x="72.0" xlink:href="#md7965d1ba0" y="250.56"/>
      </g>
     </g>
     <g id="line2d_23">
      <g>
       <use style="stroke:#000000;stroke-width:0.5;" x="518.4" xlink:href="#md9a1c1a7cd" y="250.56"/>
      </g>
     </g>
     <g id="text_10">
      <!-- 0.4 -->
      <g transform="translate(49.76 253.9115625)scale(0.12 -0.12)">
       <use xlink:href="#Verdana-30"/>
       <use x="63.57421875" xlink:href="#Verdana-2e"/>
       <use x="99.951171875" xlink:href="#Verdana-34"/>
      </g>
     </g>
    </g>
    <g id="ytick_4">
     <g id="line2d_24">
      <g>
       <use style="stroke:#000000;stroke-width:0.5;" x="72.0" xlink:href="#md7965d1ba0" y="181.44"/>
      </g>
     </g>
     <g id="line2d_25">
      <g>
       <use style="stroke:#000000;stroke-width:0.5;" x="518.4" xlink:href="#md9a1c1a7cd" y="181.44"/>
      </g>
     </g>
     <g id="text_11">
      <!-- 0.6 -->
      <defs>
       <path d="
M58.1562 23.5781
Q58.1562 12.5 50.8594 5.48438
Q43.5625 -1.51562 32.9531 -1.51562
Q27.5938 -1.51562 23.1875 0.140625
Q18.7969 1.8125 15.4375 5.07812
Q11.2344 9.125 8.95312 15.8125
Q6.6875 22.5156 6.6875 31.9375
Q6.6875 41.6094 8.76562 49.0781
Q10.8438 56.5469 15.375 62.3594
Q19.6719 67.875 26.4531 70.9688
Q33.25 74.0781 42.2812 74.0781
Q45.1719 74.0781 47.125 73.8281
Q49.0781 73.5781 51.0781 72.9531
L51.0781 63.625
L50.5938 63.625
Q49.2188 64.3594 46.4531 65.0156
Q43.7031 65.6719 40.8281 65.6719
Q30.3281 65.6719 24.0781 59.1094
Q17.8281 52.5469 16.7969 41.3594
Q20.9062 43.8438 24.875 45.1406
Q28.8594 46.4375 34.0781 46.4375
Q38.7188 46.4375 42.25 45.5781
Q45.7969 44.7344 49.5156 42.1406
Q53.8125 39.1562 55.9844 34.6094
Q58.1562 30.0781 58.1562 23.5781
M48.25 23.1875
Q48.25 27.7344 46.9062 30.7031
Q45.5625 33.6875 42.4844 35.8906
Q40.2344 37.4531 37.5 37.9375
Q34.7656 38.4219 31.7812 38.4219
Q27.6406 38.4219 24.0781 37.4375
Q20.5156 36.4688 16.75 34.4219
Q16.6562 33.3438 16.5938 32.3438
Q16.5469 31.3438 16.5469 29.8281
Q16.5469 22.125 18.1406 17.6562
Q19.7344 13.1875 22.5156 10.5938
Q24.75 8.45312 27.3594 7.45312
Q29.9844 6.45312 33.0625 6.45312
Q40.1406 6.45312 44.1875 10.7656
Q48.25 15.0938 48.25 23.1875" id="Verdana-36"/>
      </defs>
      <g transform="translate(49.829375 184.7915625)scale(0.12 -0.12)">
       <use xlink:href="#Verdana-30"/>
       <use x="63.57421875" xlink:href="#Verdana-2e"/>
       <use x="99.951171875" xlink:href="#Verdana-36"/>
      </g>
     </g>
    </g>
    <g id="ytick_5">
     <g id="line2d_26">
      <g>
       <use style="stroke:#000000;stroke-width:0.5;" x="72.0" xlink:href="#md7965d1ba0" y="112.32"/>
      </g>
     </g>
     <g id="line2d_27">
      <g>
       <use style="stroke:#000000;stroke-width:0.5;" x="518.4" xlink:href="#md9a1c1a7cd" y="112.32"/>
      </g>
     </g>
     <g id="text_12">
      <!-- 0.8 -->
      <defs>
       <path d="
M57.625 20.2656
Q57.625 10.8438 50.2656 4.59375
Q42.9219 -1.65625 31.7812 -1.65625
Q19.9688 -1.65625 12.9531 4.4375
Q5.95312 10.5469 5.95312 20.0625
Q5.95312 26.125 9.46875 31.0312
Q12.9844 35.9375 19.3906 38.8125
L19.3906 39.1094
Q13.5312 42.2344 10.7188 45.9375
Q7.90625 49.6562 7.90625 55.2188
Q7.90625 63.4219 14.6406 68.8906
Q21.3906 74.3594 31.7812 74.3594
Q42.6719 74.3594 49.1719 69.1406
Q55.6719 63.9219 55.6719 55.8594
Q55.6719 50.9219 52.5938 46.1562
Q49.5156 41.4062 43.5625 38.7188
L43.5625 38.4219
Q50.3906 35.5 54 31.2031
Q57.625 26.9062 57.625 20.2656
M46.0469 55.7656
Q46.0469 60.9844 42.0156 64.0781
Q37.9844 67.1875 31.7344 67.1875
Q25.5938 67.1875 21.6562 64.25
Q17.7188 61.3281 17.7188 56.3438
Q17.7188 52.8281 19.7031 50.2656
Q21.6875 47.7031 25.6875 45.7031
Q27.4844 44.8281 30.875 43.4062
Q34.2812 42 37.5 41.0625
Q42.3281 44.2812 44.1875 47.75
Q46.0469 51.2188 46.0469 55.7656
M47.5625 19.3438
Q47.5625 23.8281 45.5781 26.5312
Q43.6094 29.25 37.8438 31.9844
Q35.5469 33.0625 32.8125 33.9844
Q30.0781 34.9062 25.5312 36.5781
Q21.1406 34.1875 18.4844 30.0781
Q15.8281 25.9844 15.8281 20.7969
Q15.8281 14.2031 20.3594 9.90625
Q24.9062 5.60938 31.8906 5.60938
Q39.0156 5.60938 43.2812 9.26562
Q47.5625 12.9375 47.5625 19.3438" id="Verdana-38"/>
      </defs>
      <g transform="translate(49.893125 115.6715625)scale(0.12 -0.12)">
       <use xlink:href="#Verdana-30"/>
       <use x="63.57421875" xlink:href="#Verdana-2e"/>
       <use x="99.951171875" xlink:href="#Verdana-38"/>
      </g>
     </g>
    </g>
    <g id="ytick_6">
     <g id="line2d_28">
      <g>
       <use style="stroke:#000000;stroke-width:0.5;" x="72.0" xlink:href="#md7965d1ba0" y="43.2"/>
      </g>
     </g>
     <g id="line2d_29">
      <g>
       <use style="stroke:#000000;stroke-width:0.5;" x="518.4" xlink:href="#md9a1c1a7cd" y="43.2"/>
      </g>
     </g>
     <g id="text_13">
      <!-- 1.0 -->
      <g transform="translate(50.796875 46.5515625)scale(0.12 -0.12)">
       <use xlink:href="#Verdana-31"/>
       <use x="63.57421875" xlink:href="#Verdana-2e"/>
       <use x="99.951171875" xlink:href="#Verdana-30"/>
      </g>
     </g>
    </g>
    <g id="text_14">
     <!-- Data Profile T-0.0010000 -->
     <defs>
      <path d="
M43.0625 44.5312
L42.5781 44.5312
Q40.5312 45.0156 38.5938 45.2344
Q36.6719 45.4531 34.0312 45.4531
Q29.7812 45.4531 25.8281 43.5781
Q21.875 41.7031 18.2188 38.7188
L18.2188 0
L9.03125 0
L9.03125 54.5469
L18.2188 54.5469
L18.2188 46.4844
Q23.6875 50.875 27.8594 52.7031
Q32.0312 54.5469 36.375 54.5469
Q38.7656 54.5469 39.8438 54.4219
Q40.9219 54.2969 43.0625 53.9531
z
" id="Verdana-72"/>
      <path d="
M37.9375 27.3906
L7.46875 27.3906
L7.46875 36.2344
L37.9375 36.2344
z
" id="Verdana-2d"/>
      <path d="
M18.3125 0
L9.125 0
L9.125 75.9844
L18.3125 75.9844
z
" id="Verdana-6c"/>
      <path d="
M57.3281 50.7344
Q57.3281 45.9062 55.6406 41.7656
Q53.9531 37.6406 50.9219 34.625
Q47.1719 30.8594 42.0469 28.9688
Q36.9219 27.0938 29.1094 27.0938
L19.4375 27.0938
L19.4375 0
L9.76562 0
L9.76562 72.7031
L29.5 72.7031
Q36.0312 72.7031 40.5781 71.6094
Q45.125 70.5156 48.6406 68.1719
Q52.7812 65.375 55.0469 61.2188
Q57.3281 57.0781 57.3281 50.7344
M47.2656 50.4844
Q47.2656 54.25 45.9375 57.0312
Q44.625 59.8125 41.9375 61.5781
Q39.5938 63.0938 36.5938 63.75
Q33.5938 64.4062 29 64.4062
L19.4375 64.4062
L19.4375 35.3594
L27.5938 35.3594
Q33.4531 35.3594 37.1094 36.4062
Q40.7656 37.4531 43.0625 39.75
Q45.3594 42.0938 46.3125 44.6719
Q47.2656 47.2656 47.2656 50.4844" id="Verdana-50"/>
      <path d="
M61.625 64.1094
L35.6406 64.1094
L35.6406 0
L25.9844 0
L25.9844 64.1094
L0 64.1094
L0 72.7031
L61.625 72.7031
z
" id="Verdana-54"/>
      <path d="
M51.4219 0
L42.2812 0
L42.2812 5.8125
Q41.0625 4.98438 38.9844 3.48438
Q36.9219 2 34.9688 1.125
Q32.6719 0 29.6875 -0.75
Q26.7031 -1.51562 22.7031 -1.51562
Q15.3281 -1.51562 10.2031 3.35938
Q5.07812 8.25 5.07812 15.8281
Q5.07812 22.0156 7.73438 25.8438
Q10.4062 29.6875 15.3281 31.8906
Q20.3125 34.0781 27.2969 34.8594
Q34.2812 35.6406 42.2812 36.0312
L42.2812 37.4531
Q42.2812 40.5781 41.1875 42.625
Q40.0938 44.6719 38.0312 45.8438
Q36.0781 46.9688 33.3438 47.3594
Q30.6094 47.75 27.6406 47.75
Q24.0312 47.75 19.5781 46.7969
Q15.1406 45.8438 10.4062 44.0469
L9.90625 44.0469
L9.90625 53.375
Q12.5938 54.1094 17.6719 54.9844
Q22.75 55.8594 27.6875 55.8594
Q33.4531 55.8594 37.7188 54.9062
Q42 53.9531 45.125 51.6562
Q48.1875 49.4219 49.7969 45.8438
Q51.4219 42.2812 51.4219 37.0156
z

M42.2812 13.4219
L42.2812 28.6094
Q38.0938 28.375 32.3906 27.875
Q26.7031 27.3906 23.3906 26.4688
Q19.4375 25.3438 16.9844 22.9688
Q14.5469 20.6094 14.5469 16.4531
Q14.5469 11.7656 17.375 9.39062
Q20.2188 7.03125 26.0312 7.03125
Q30.8594 7.03125 34.8594 8.90625
Q38.875 10.7969 42.2812 13.4219" id="Verdana-61"/>
      <path d="
M71.1875 36.2812
Q71.1875 26.375 66.8594 18.3125
Q62.5469 10.25 55.375 5.8125
Q50.3906 2.73438 44.2656 1.35938
Q38.1406 0 28.125 0
L9.76562 0
L9.76562 72.7031
L27.9375 72.7031
Q38.5781 72.7031 44.8438 71.1562
Q51.125 69.625 55.4688 66.9375
Q62.8906 62.3125 67.0312 54.5938
Q71.1875 46.875 71.1875 36.2812
M61.0781 36.4219
Q61.0781 44.9688 58.0938 50.8281
Q55.125 56.6875 49.2188 60.0625
Q44.9219 62.5 40.0781 63.4531
Q35.25 64.4062 28.5156 64.4062
L19.4375 64.4062
L19.4375 8.29688
L28.5156 8.29688
Q35.5 8.29688 40.7031 9.32812
Q45.9062 10.3594 50.25 13.1406
Q55.6719 16.6094 58.375 22.2656
Q61.0781 27.9375 61.0781 36.4219" id="Verdana-44"/>
     </defs>
     <g transform="translate(42.345 291.493125)rotate(-90.0)scale(0.12 -0.12)">
      <use xlink:href="#Verdana-44"/>
      <use x="77.05078125" xlink:href="#Verdana-61"/>
      <use x="137.109375" xlink:href="#Verdana-74"/>
      <use x="176.513671875" xlink:href="#Verdana-61"/>
      <use x="236.572265625" xlink:href="#Verdana-20"/>
      <use x="271.728515625" xlink:href="#Verdana-50"/>
      <use x="332.03125" xlink:href="#Verdana-72"/>
      <use x="374.70703125" xlink:href="#Verdana-6f"/>
      <use x="435.400390625" xlink:href="#Verdana-66"/>
      <use x="470.556640625" xlink:href="#Verdana-69"/>
      <use x="497.998046875" xlink:href="#Verdana-6c"/>
      <use x="525.439453125" xlink:href="#Verdana-65"/>
      <use x="585.009765625" xlink:href="#Verdana-20"/>
      <use x="620.166015625" xlink:href="#Verdana-54"/>
      <use x="674.412109375" xlink:href="#Verdana-2d"/>
      <use x="719.822265625" xlink:href="#Verdana-30"/>
      <use x="783.396484375" xlink:href="#Verdana-2e"/>
      <use x="819.7734375" xlink:href="#Verdana-30"/>
      <use x="883.34765625" xlink:href="#Verdana-30"/>
      <use x="946.921875" xlink:href="#Verdana-31"/>
      <use x="1010.49609375" xlink:href="#Verdana-30"/>
      <use x="1074.0703125" xlink:href="#Verdana-30"/>
      <use x="1137.64453125" xlink:href="#Verdana-30"/>
      <use x="1201.21875" xlink:href="#Verdana-30"/>
     </g>
    </g>
   </g>
   <g id="patch_3">
    <path d="
M72 388.8
L518.4 388.8" style="fill:none;stroke:#000000;"/>
   </g>
   <g id="patch_4">
    <path d="
M518.4 388.8
L518.4 43.2" style="fill:none;stroke:#000000;"/>
   </g>
   <g id="patch_5">
    <path d="
M72 388.8
L72 43.2" style="fill:none;stroke:#000000;"/>
   </g>
   <g id="patch_6">
    <path d="
M72 43.2
L518.4 43.2" style="fill:none;stroke:#000000;"/>
   </g>
   <g id="text_15">
    <!-- Paviani Data Profile T-0.0010000 -->
    <g transform="translate(176.551875 38.2)scale(0.144 -0.144)">
     <use xlink:href="#Verdana-50"/>
     <use x="57.802734375" xlink:href="#Verdana-61"/>
     <use x="117.111328125" xlink:href="#Verdana-76"/>
     <use x="176.291015625" xlink:href="#Verdana-69"/>
     <use x="203.732421875" xlink:href="#Verdana-61"/>
     <use x="263.791015625" xlink:href="#Verdana-6e"/>
     <use x="327.072265625" xlink:href="#Verdana-69"/>
     <use x="354.513671875" xlink:href="#Verdana-20"/>
     <use x="389.669921875" xlink:href="#Verdana-44"/>
     <use x="466.720703125" xlink:href="#Verdana-61"/>
     <use x="526.779296875" xlink:href="#Verdana-74"/>
     <use x="566.18359375" xlink:href="#Verdana-61"/>
     <use x="626.2421875" xlink:href="#Verdana-20"/>
     <use x="661.3984375" xlink:href="#Verdana-50"/>
     <use x="721.701171875" xlink:href="#Verdana-72"/>
     <use x="764.376953125" xlink:href="#Verdana-6f"/>
     <use x="825.0703125" xlink:href="#Verdana-66"/>
     <use x="860.2265625" xlink:href="#Verdana-69"/>
     <use x="887.66796875" xlink:href="#Verdana-6c"/>
     <use x="915.109375" xlink:href="#Verdana-65"/>
     <use x="974.6796875" xlink:href="#Verdana-20"/>
     <use x="1009.8359375" xlink:href="#Verdana-54"/>
     <use x="1064.08203125" xlink:href="#Verdana-2d"/>
     <use x="1109.4921875" xlink:href="#Verdana-30"/>
     <use x="1173.06640625" xlink:href="#Verdana-2e"/>
     <use x="1209.443359375" xlink:href="#Verdana-30"/>
     <use x="1273.017578125" xlink:href="#Verdana-30"/>
     <use x="1336.591796875" xlink:href="#Verdana-31"/>
     <use x="1400.166015625" xlink:href="#Verdana-30"/>
     <use x="1463.740234375" xlink:href="#Verdana-30"/>
     <use x="1527.314453125" xlink:href="#Verdana-30"/>
     <use x="1590.888671875" xlink:href="#Verdana-30"/>
    </g>
   </g>
   <g id="legend_1">
    <g id="patch_7">
     <path d="
M407.18 381.6
L511.2 381.6
L511.2 272.081
L407.18 272.081
L407.18 381.6
z
" style="fill:#ffffff;stroke:#000000;"/>
    </g>
    <g id="line2d_30">
     <path d="
M417.26 283.743
L437.42 283.743" style="fill:none;stroke:#0000ff;stroke-dasharray:6.000000,2.000000;stroke-dashoffset:0.0;"/>
    </g>
    <g id="line2d_31"/>
    <g id="text_16">
     <!-- AMPGO -->
     <defs>
      <path d="
M67.0938 0
L56.7812 0
L49.6562 20.2656
L18.2188 20.2656
L11.0781 0
L1.26562 0
L27.7344 72.7031
L40.625 72.7031
z

M46.6875 28.5625
L33.9375 64.2656
L21.1406 28.5625
z
" id="Verdana-41"/>
      <path d="
M74.5156 0
L64.8438 0
L64.8438 62.6406
L44.625 20.0156
L38.875 20.0156
L18.7969 62.6406
L18.7969 0
L9.76562 0
L9.76562 72.7031
L22.9531 72.7031
L42.3281 32.2344
L61.0781 72.7031
L74.5156 72.7031
z
" id="Verdana-4d"/>
      <path d="
M70.4062 5.375
Q64.4531 2.64062 57.3906 0.609375
Q50.3438 -1.42188 43.75 -1.42188
Q35.25 -1.42188 28.1719 0.921875
Q21.0938 3.26562 16.1094 7.95312
Q11.0781 12.7031 8.34375 19.7969
Q5.60938 26.9062 5.60938 36.4219
Q5.60938 53.8594 15.7969 63.9375
Q25.9844 74.0312 43.75 74.0312
Q49.9531 74.0312 56.4219 72.5312
Q62.8906 71.0469 70.3594 67.4844
L70.3594 56
L69.4844 56
Q67.9688 57.1719 65.0781 59.0781
Q62.2031 60.9844 59.4219 62.25
Q56.0625 63.7656 51.7812 64.7656
Q47.5156 65.7656 42.0938 65.7656
Q29.8906 65.7656 22.7812 57.9219
Q15.6719 50.0938 15.6719 36.7188
Q15.6719 22.6094 23.0938 14.7656
Q30.5156 6.9375 43.3125 6.9375
Q48 6.9375 52.6562 7.85938
Q57.3281 8.79688 60.8438 10.25
L60.8438 28.0781
L41.3594 28.0781
L41.3594 36.5781
L70.4062 36.5781
z
" id="Verdana-47"/>
     </defs>
     <g transform="translate(453.26025 288.783)scale(0.144 -0.144)">
      <use xlink:href="#Verdana-41"/>
      <use x="68.359375" xlink:href="#Verdana-4d"/>
      <use x="152.63671875" xlink:href="#Verdana-50"/>
      <use x="212.939453125" xlink:href="#Verdana-47"/>
      <use x="290.478515625" xlink:href="#Verdana-4f"/>
     </g>
    </g>
    <g id="line2d_32">
     <path d="
M417.26 304.783
L437.42 304.783" style="fill:none;stroke:#008000;stroke-dasharray:1.000000,1.000000;stroke-dashoffset:0.0;"/>
    </g>
    <g id="line2d_33"/>
    <g id="text_17">
     <!-- Anneal -->
     <g transform="translate(453.26025 309.82275)scale(0.144 -0.144)">
      <use xlink:href="#Verdana-41"/>
      <use x="68.359375" xlink:href="#Verdana-6e"/>
      <use x="131.640625" xlink:href="#Verdana-6e"/>
      <use x="194.921875" xlink:href="#Verdana-65"/>
      <use x="254.4921875" xlink:href="#Verdana-61"/>
      <use x="314.55078125" xlink:href="#Verdana-6c"/>
     </g>
    </g>
    <g id="line2d_34">
     <path d="
M417.26 325.822
L437.42 325.822" style="fill:none;stroke:#ff0000;stroke-dasharray:3.000000,6.000000;stroke-dashoffset:0.0;"/>
    </g>
    <g id="line2d_35"/>
    <g id="text_18">
     <!-- BSA -->
     <defs>
      <path d="
M64.5938 22.3594
Q64.5938 16.9375 62.5469 12.7812
Q60.5 8.64062 57.0312 5.95312
Q52.9375 2.73438 48.0156 1.35938
Q43.1094 0 35.5469 0
L9.76562 0
L9.76562 72.7031
L31.2969 72.7031
Q39.2656 72.7031 43.2188 72.1094
Q47.1719 71.5312 50.7812 69.6719
Q54.7812 67.5781 56.5938 64.2812
Q58.4062 60.9844 58.4062 56.3906
Q58.4062 51.2188 55.7656 47.5781
Q53.125 43.9531 48.7344 41.75
L48.7344 41.3594
Q56.1094 39.8438 60.3438 34.8906
Q64.5938 29.9375 64.5938 22.3594
M48.3438 55.125
Q48.3438 57.7656 47.4531 59.5625
Q46.5781 61.375 44.625 62.5
Q42.3281 63.8125 39.0625 64.125
Q35.7969 64.4531 30.9531 64.4531
L19.4375 64.4531
L19.4375 43.4531
L31.9375 43.4531
Q36.4688 43.4531 39.1562 43.9219
Q41.8438 44.3906 44.1406 45.8438
Q46.4375 47.3125 47.3906 49.625
Q48.3438 51.9531 48.3438 55.125
M54.5469 21.9688
Q54.5469 26.375 53.2188 28.9531
Q51.9062 31.5469 48.4375 33.3438
Q46.0938 34.5781 42.75 34.9375
Q39.4062 35.2969 34.625 35.2969
L19.4375 35.2969
L19.4375 8.25
L32.2344 8.25
Q38.5781 8.25 42.625 8.90625
Q46.6875 9.57812 49.2656 11.3281
Q52 13.2344 53.2656 15.6719
Q54.5469 18.1094 54.5469 21.9688" id="Verdana-42"/>
      <path d="
M62.5938 20.75
Q62.5938 16.5 60.6094 12.3438
Q58.6406 8.20312 55.0781 5.32812
Q51.1719 2.20312 45.9688 0.4375
Q40.7656 -1.3125 33.4531 -1.3125
Q25.5938 -1.3125 19.3125 0.140625
Q13.0312 1.60938 6.54688 4.5
L6.54688 16.6094
L7.23438 16.6094
Q12.75 12.0156 19.9688 9.51562
Q27.2031 7.03125 33.5469 7.03125
Q42.5312 7.03125 47.5312 10.3906
Q52.5469 13.7656 52.5469 19.3906
Q52.5469 24.2188 50.1719 26.5156
Q47.7969 28.8125 42.9688 30.0781
Q39.3125 31.0625 35.0312 31.6875
Q30.7656 32.3281 25.9844 33.2969
Q16.3125 35.3594 11.6406 40.3125
Q6.98438 45.2656 6.98438 53.2188
Q6.98438 62.3594 14.6875 68.1875
Q22.4062 74.0312 34.2812 74.0312
Q41.9375 74.0312 48.3281 72.5625
Q54.7344 71.0938 59.6719 68.9531
L59.6719 57.5156
L58.9844 57.5156
Q54.8281 61.0312 48.0625 63.3438
Q41.3125 65.6719 34.2344 65.6719
Q26.4688 65.6719 21.75 62.4531
Q17.0469 59.2344 17.0469 54.1562
Q17.0469 49.6094 19.3906 47.0156
Q21.7344 44.4375 27.6406 43.0625
Q30.7656 42.3906 36.5156 41.4062
Q42.2812 40.4375 46.2969 39.4062
Q54.3906 37.25 58.4844 32.9062
Q62.5938 28.5625 62.5938 20.75" id="Verdana-53"/>
     </defs>
     <g transform="translate(453.26025 330.8625)scale(0.144 -0.144)">
      <use xlink:href="#Verdana-42"/>
      <use x="68.5546875" xlink:href="#Verdana-53"/>
      <use x="135.9140625" xlink:href="#Verdana-41"/>
     </g>
    </g>
    <g id="line2d_36">
     <path d="
M417.26 346.862
L437.42 346.862" style="fill:none;stroke:#00bfbf;stroke-dasharray:5.000000,1.000000,2.000000,1.000000,5.000000,1.000000;stroke-dashoffset:0.0;"/>
    </g>
    <g id="line2d_37"/>
    <g id="text_19">
     <!-- Cuckoo -->
     <defs>
      <path d="
M58.5469 0
L46.4375 0
L24.5625 23.875
L18.6094 18.2188
L18.6094 0
L9.42188 0
L9.42188 75.9844
L18.6094 75.9844
L18.6094 27.25
L45.125 54.5469
L56.6875 54.5469
L31.3438 29.3438
z
" id="Verdana-6b"/>
      <path d="
M65.9219 5.28125
Q63.2344 4.10938 61.0625 3.07812
Q58.8906 2.04688 55.375 0.921875
Q52.3906 0 48.8906 -0.65625
Q45.4062 -1.3125 41.2188 -1.3125
Q33.2969 -1.3125 26.8281 0.90625
Q20.3594 3.125 15.5781 7.85938
Q10.8906 12.5 8.25 19.6562
Q5.60938 26.8125 5.60938 36.2812
Q5.60938 45.2656 8.14062 52.3438
Q10.6875 59.4219 15.4844 64.3125
Q20.125 69.0469 26.6875 71.5312
Q33.25 74.0312 41.2656 74.0312
Q47.125 74.0312 52.9531 72.6094
Q58.7969 71.1875 65.9219 67.625
L65.9219 56.1562
L65.1875 56.1562
Q59.1875 61.1875 53.2656 63.4688
Q47.3594 65.7656 40.625 65.7656
Q35.1094 65.7656 30.6875 63.9844
Q26.2656 62.2031 22.7969 58.4531
Q19.4375 54.7812 17.5469 49.1875
Q15.6719 43.6094 15.6719 36.2812
Q15.6719 28.6094 17.75 23.0938
Q19.8281 17.5781 23.0938 14.1094
Q26.5156 10.5 31.0781 8.76562
Q35.6406 7.03125 40.7188 7.03125
Q47.7031 7.03125 53.7969 9.42188
Q59.9062 11.8125 65.2344 16.6094
L65.9219 16.6094
z
" id="Verdana-43"/>
     </defs>
     <g transform="translate(453.26025 351.90225)scale(0.144 -0.144)">
      <use xlink:href="#Verdana-43"/>
      <use x="69.82421875" xlink:href="#Verdana-75"/>
      <use x="133.10546875" xlink:href="#Verdana-63"/>
      <use x="185.205078125" xlink:href="#Verdana-6b"/>
      <use x="243.384765625" xlink:href="#Verdana-6f"/>
      <use x="304.078125" xlink:href="#Verdana-6f"/>
     </g>
    </g>
    <g id="line2d_38">
     <path d="
M417.26 367.902
L437.42 367.902" style="fill:none;stroke:#bf00bf;stroke-linecap:square;"/>
    </g>
    <g id="line2d_39"/>
    <g id="text_20">
     <!-- qABC -->
     <defs>
      <path d="
M53.2656 -20.125
L44.0938 -20.125
L44.0938 6.15625
Q39.8438 2.48438 35.6406 0.703125
Q31.4531 -1.07812 26.5625 -1.07812
Q16.8438 -1.07812 11.0625 6.42188
Q5.28125 13.9219 5.28125 27.0938
Q5.28125 34.125 7.29688 39.5156
Q9.32812 44.9219 12.6406 48.5781
Q15.875 52.1562 20.2188 54.1094
Q24.5625 56.0625 29.3906 56.0625
Q33.7969 56.0625 37.1875 55.0781
Q40.5781 54.1094 44.0938 52.2031
L44.6719 54.5469
L53.2656 54.5469
z

M44.0938 13.875
L44.0938 44.7344
Q40.2812 46.4375 37.3438 47.1094
Q34.4219 47.7969 31 47.7969
Q23.0469 47.7969 18.8906 42.4062
Q14.75 37.0156 14.75 27.5469
Q14.75 17.9688 18.0938 12.8125
Q21.4375 7.67188 28.6094 7.67188
Q32.625 7.67188 36.625 9.40625
Q40.625 11.1406 44.0938 13.875" id="Verdana-71"/>
     </defs>
     <g transform="translate(453.26025 372.942)scale(0.144 -0.144)">
      <use xlink:href="#Verdana-71"/>
      <use x="62.3046875" xlink:href="#Verdana-41"/>
      <use x="130.6640625" xlink:href="#Verdana-42"/>
      <use x="199.21875" xlink:href="#Verdana-43"/>
     </g>
    </g>
   </g>
  </g>
 </g>
 <defs>
  <clipPath id="p7ff5b81e1d">
   <rect height="345.6" width="446.4" x="72.0" y="43.2"/>
  </clipPath>
 </defs>
</svg>
