<?xml version="1.0" encoding="utf-8" standalone="no"?>
<!DOCTYPE svg PUBLIC "-//W3C//DTD SVG 1.1//EN"
  "http://www.w3.org/Graphics/SVG/1.1/DTD/svg11.dtd">
<!-- Created with matplotlib (http://matplotlib.org/) -->
<svg height="432pt" version="1.1" viewBox="0 0 576 432" width="576pt" xmlns="http://www.w3.org/2000/svg" xmlns:xlink="http://www.w3.org/1999/xlink">
 <defs>
  <style type="text/css">
*{stroke-linecap:butt;stroke-linejoin:round;}
  </style>
 </defs>
 <g id="figure_1">
  <g id="patch_1">
   <path d="
M0 432
L576 432
L576 0
L0 0
z
" style="fill:#ffffff;"/>
  </g>
  <g id="axes_1">
   <g id="patch_2">
    <path d="
M72 388.8
L518.4 388.8
L518.4 43.2
L72 43.2
z
" style="fill:#ffffff;"/>
   </g>
   <g id="line2d_1">
    <path clip-path="url(#p7ff5b81e1d)" d="
M72 315.701
L72.0893 341.892
L72.1786 354.481
L72.4464 369.41
L72.8035 376.338
L73.2499 380.348
L73.607 381.985
L73.8749 382.62
L74.4106 382.879
L75.4819 383.16
L75.9283 384.766
L76.3747 385.706
L77.1782 386.702
L77.5354 386.922
L79.1424 387.261
L79.4102 387.579
L81.0173 388.297
L86.1062 388.722
L89.4989 388.785
L89.6774 43.2
L197.974 43.2
L198.242 43.7597
L202.795 43.762
L202.974 44.0418
L203.152 44.0418
L203.331 44.3194
L204.759 44.3194
L204.938 44.5992
L206.456 44.5992
L206.634 44.879
L207.17 44.879
L207.348 45.4387
L207.706 45.4387
L207.884 45.7185
L208.42 45.7185
L208.688 46.2782
L209.58 46.2782
L209.759 46.5581
L211.098 46.5581
L211.455 47.3588
L211.723 47.3588
L211.902 47.6388
L212.17 47.5578
L212.348 47.8376
L212.705 47.8376
L212.884 48.1177
L215.116 48.2054
L215.384 48.7642
L215.83 48.7642
L216.009 49.0435
L216.455 49.0451
L216.634 49.325
L217.08 49.3287
L217.437 50.1682
L217.526 50.1682
L217.705 50.448
L217.884 50.4498
L218.33 51.5726
L218.508 51.5726
L218.687 51.8424
L218.866 51.8426
L219.044 52.1224
L219.401 52.128
L219.58 52.4078
L219.758 52.4085
L219.937 52.9682
L220.383 52.9698
L220.562 53.5311
L220.74 53.8109
L221.098 53.8313
L221.455 54.6683
L221.544 54.6683
L222.437 57.2025
L222.615 57.2273
L222.794 57.4984
L223.33 57.4991
L223.508 57.7626
L223.687 57.7722
L223.865 58.0525
L223.955 58.0532
L224.133 58.8698
L224.312 58.8709
L224.49 59.1508
L224.58 59.1508
L224.937 59.9912
L225.294 59.9933
L225.562 61.4349
L225.829 61.4354
L226.187 63.1199
L226.365 63.1202
L226.544 63.4009
L226.722 63.4009
L227.258 64.8164
L227.436 64.8169
L227.972 66.216
L228.151 66.2165
L228.329 66.781
L228.508 67.6207
L228.865 68.461
L228.954 68.4715
L229.401 69.6386
L229.49 69.6386
L229.579 69.0417
L230.472 71.4799
L230.561 71.4802
L231.008 73.1647
L231.186 74.0072
L231.276 74.0072
L231.543 74.5678
L231.811 74.5685
L232.079 75.4817
L232.168 75.4817
L232.615 76.5623
L233.24 76.5696
L233.508 77.689
L233.686 77.6988
L233.865 78.8147
L233.954 78.8152
L234.49 80.224
L234.579 80.224
L234.757 81.0872
L235.025 81.1005
L235.204 81.3813
L235.561 81.3815
L236.364 83.9386
L237.079 83.9521
L237.257 84.5118
L237.436 84.7919
L237.525 84.7919
L237.704 85.0729
L237.972 85.0736
L238.239 85.6337
L238.329 85.3665
L238.507 85.7758
L238.775 85.7776
L238.864 86.0577
L239.043 86.8903
L239.221 87.4516
L239.579 88.3058
L240.025 88.3157
L240.204 89.2335
L240.65 90.9198
L240.828 91.696
L241.007 91.7024
L241.364 93.3819
L242.078 95.4537
L242.168 95.4537
L242.614 96.58
L242.703 96.5818
L242.882 97.1415
L243.06 97.4268
L243.15 97.4395
L243.239 97.7241
L243.418 98.7083
L243.596 98.9966
L243.953 99.0016
L244.578 101.352
L244.846 102.476
L245.471 104.438
L245.739 106.364
L245.828 106.644
L246.007 107.756
L246.453 108.994
L246.542 108.995
L246.989 110.398
L247.078 109.595
L247.257 109.885
L247.435 109.897
L247.614 110.717
L247.971 112.409
L248.06 112.495
L248.239 113.308
L248.417 114.15
L248.685 115.203
L248.864 115.533
L249.132 117.324
L249.221 117.327
L249.667 118.41
L249.756 118.416
L250.024 118.981
L250.203 119.015
L250.56 120.718
L250.739 120.719
L251.006 121.287
L251.096 121.289
L251.274 121.836
L251.453 122.68
L251.542 122.824
L251.899 124.146
L252.167 124.149
L252.613 126.479
L252.792 127.355
L253.06 129.035
L253.149 129.045
L254.131 131.877
L254.22 131.882
L254.756 134.899
L254.845 134.902
L255.203 136.305
L255.381 136.868
L255.47 136.901
L255.649 138.021
L255.738 138.031
L255.828 137.529
L256.185 138.938
L256.542 140.622
L256.72 140.656
L256.988 141.788
L257.167 142.071
L257.256 142.073
L257.435 143.131
L257.524 143.224
L258.149 144.934
L258.417 145.681
L258.595 146.242
L258.952 147.105
L259.042 147.106
L259.131 147.388
L259.488 149.615
L259.577 149.615
L259.667 149.901
L259.845 150.743
L259.934 150.743
L260.202 151.971
L260.381 152.554
L260.738 153.878
L261.006 154.976
L261.184 154.987
L261.541 156.574
L262.434 159.142
L262.524 159.143
L262.791 160.269
L262.97 161.112
L263.059 161.123
L263.595 162.577
L263.684 162.578
L263.952 163.706
L264.041 163.707
L264.22 165.151
L264.309 165.152
L264.488 165.439
L264.577 165.142
L265.023 166.687
L265.202 167.25
L265.38 168.373
L265.738 169.783
L266.72 175.427
L266.809 175.433
L266.988 175.997
L267.077 175.997
L267.166 176.276
L267.434 178.472
L267.88 180.168
L268.327 182.467
L268.505 182.75
L268.595 182.752
L268.862 184.653
L269.041 186.06
L269.22 186.341
L269.487 186.41
L269.666 187.294
L269.844 187.295
L270.112 188.418
L270.648 190.179
L270.737 190.179
L271.63 193.32
L271.809 193.881
L272.255 194.872
L272.523 196.558
L272.701 197.129
L272.969 198.676
L273.148 199.239
L273.326 199.247
L273.505 199.808
L273.951 200.972
L274.041 201.078
L274.219 201.361
L274.398 201.423
L274.576 201.98
L274.844 202.544
L274.933 202.544
L275.291 203.747
L275.469 205.427
L275.737 206.538
L275.826 206.544
L276.183 206.973
L276.451 208.099
L276.63 208.509
L276.719 208.79
L277.076 212.047
L277.255 212.051
L277.79 213.743
L277.969 214.865
L278.058 214.874
L278.415 216.552
L278.505 216.641
L279.04 218.337
L279.219 219.177
L279.487 220.308
L279.755 222.269
L279.844 222.288
L281.004 225.864
L281.183 226.984
L281.451 227.563
L281.629 227.575
L281.987 228.528
L282.076 228.319
L282.612 230.279
L283.058 232.485
L283.326 233.492
L283.594 234.621
L283.683 234.622
L283.861 234.903
L283.951 234.903
L284.129 236.359
L284.308 236.38
L284.576 236.942
L284.665 236.942
L285.111 238.635
L285.29 239.757
L285.468 239.758
L285.647 241.997
L285.915 241.999
L287.165 245.608
L287.254 245.626
L287.79 247.618
L287.879 247.618
L288.325 249.148
L288.504 249.154
L288.683 249.715
L288.861 249.716
L289.04 250.558
L289.218 251.119
L289.308 251.119
L289.575 252.244
L289.843 253.92
L289.932 254.145
L290.111 254.705
L290.2 254.705
L290.379 254.979
L290.468 254.989
L290.736 255.831
L290.825 255.544
L291.54 257.508
L291.807 257.51
L291.986 257.646
L292.075 257.646
L292.254 258.206
L292.522 259.886
L292.7 259.887
L292.968 260.449
L293.325 260.857
L293.504 261.706
L293.593 261.707
L293.861 262.842
L293.95 262.845
L294.218 263.413
L294.307 263.416
L294.486 263.696
L294.664 265.321
L295.111 266.429
L295.2 266.43
L295.468 267.827
L295.646 267.828
L296.361 269.885
L296.45 269.887
L296.628 270.621
L296.807 270.626
L296.986 272.016
L297.164 272.022
L297.343 272.586
L297.789 272.972
L297.968 272.983
L298.146 273.264
L298.236 273.264
L298.503 273.827
L298.593 273.827
L298.682 274.107
L298.86 274.958
L299.039 274.96
L299.307 275.52
L299.396 275.521
L299.485 276.078
L299.575 275.851
L299.753 276.13
L299.932 277.24
L300.021 277.241
L300.289 279.682
L300.378 279.682
L300.557 280.589
L300.735 281.437
L300.914 281.438
L301.092 281.998
L301.271 281.998
L301.539 283.11
L301.717 283.836
L301.985 284.41
L302.075 284.412
L302.342 284.972
L302.521 284.973
L302.878 286.127
L303.057 286.127
L303.503 288.473
L303.592 288.473
L303.86 289.594
L304.217 290.633
L304.307 290.634
L304.753 292.134
L304.932 292.969
L305.11 292.971
L305.289 293.704
L305.378 293.705
L305.646 295.102
L305.824 295.131
L306.271 296.251
L306.449 296.252
L306.717 296.809
L306.806 296.809
L307.164 297.643
L307.253 297.643
L307.699 299.409
L307.878 299.418
L308.056 300.251
L308.146 300.251
L308.324 300.718
L308.592 300.719
L308.771 301.275
L309.038 301.279
L309.217 301.849
L309.485 301.884
L309.663 302.276
L309.753 302.557
L309.931 303.67
L310.02 303.67
L310.288 304.226
L310.378 304.24
L310.467 304.519
L310.645 305.637
L310.735 305.915
L310.913 307.026
L311.003 307.026
L311.36 307.862
L311.538 307.863
L311.717 308.697
L311.895 309.257
L312.61 311.207
L312.877 311.209
L313.056 311.489
L313.235 311.489
L313.592 311.906
L313.77 311.911
L313.949 312.469
L314.038 312.471
L314.217 312.75
L314.395 312.751
L314.663 313.306
L314.752 313.306
L314.931 314.142
L315.02 314.144
L315.288 314.703
L315.645 314.703
L316.27 316.925
L316.538 317.761
L316.806 318.315
L317.074 318.244
L319.038 324.131
L319.127 324.131
L319.306 324.61
L319.573 325.72
L319.931 326.552
L320.02 326.558
L320.198 326.96
L320.377 327.563
L320.645 328.668
L320.823 329.221
L320.913 329.221
L321.18 329.776
L321.27 329.776
L321.448 330.604
L321.627 331.708
L321.716 331.708
L321.895 331.984
L321.984 332.087
L322.252 333.189
L322.43 333.847
L322.52 333.848
L322.698 334.117
L322.966 334.119
L323.412 334.505
L323.68 334.508
L323.859 334.782
L323.948 334.782
L324.127 335.057
L324.484 335.057
L324.662 335.829
L324.752 335.83
L325.644 338.405
L325.823 338.338
L326.002 339.162
L326.359 339.163
L326.537 339.538
L326.716 339.54
L326.984 340.186
L327.162 340.186
L327.43 340.733
L327.787 340.733
L328.144 341.552
L328.68 341.553
L328.859 341.826
L329.216 341.827
L329.394 342.646
L329.573 342.74
L329.751 343.324
L329.93 343.324
L330.287 344.082
L330.376 344.082
L330.555 344.628
L330.823 345.358
L330.912 345.358
L331.18 345.901
L331.358 345.901
L331.537 346.172
L332.162 346.174
L332.34 346.445
L332.698 346.447
L332.876 346.982
L333.055 347.695
L333.59 347.797
L333.948 348.765
L334.215 349.301
L334.483 349.303
L334.93 350.247
L335.465 350.251
L335.822 351.056
L336.447 351.058
L336.626 351.476
L336.894 351.478
L337.072 351.747
L337.162 351.755
L337.34 352.291
L337.608 352.39
L337.876 353.284
L338.322 353.285
L338.679 354.267
L339.751 354.268
L339.929 354.678
L340.286 354.678
L340.554 355.284
L340.644 355.286
L340.822 355.551
L341.09 355.551
L341.358 356.081
L342.34 356.088
L342.518 356.354
L343.5 356.32
L343.679 356.65
L344.483 356.727
L344.75 357.254
L345.018 357.275
L345.197 357.801
L345.465 357.801
L345.643 358.064
L346.09 358.065
L346.357 358.591
L347.34 358.657
L347.518 358.786
L348.143 358.854
L348.322 359.179
L348.679 359.18
L348.857 359.961
L349.036 359.962
L349.214 360.118
L349.304 360.119
L349.482 360.385
L350.286 360.386
L350.643 361.279
L350.732 361.279
L350.911 361.54
L351.268 361.541
L351.536 362.035
L351.625 362.035
L351.893 362.549
L352.071 362.53
L352.25 362.787
L352.607 362.787
L352.786 363.044
L352.875 363.099
L353.053 363.355
L354.036 363.421
L354.125 363.475
L354.482 364.298
L354.66 364.301
L354.839 364.609
L355.643 364.674
L355.91 364.728
L357.785 364.734
L357.964 364.989
L358.41 365.036
L358.678 365.593
L358.857 365.695
L359.035 365.997
L359.214 366.05
L359.482 366.502
L360.017 366.552
L360.196 366.799
L361.089 366.788
L361.714 368.434
L362.428 368.527
L363.499 368.958
L363.767 368.958
L364.035 369.442
L364.392 369.442
L364.571 369.685
L365.285 369.773
L366.178 370.47
L366.267 370.47
L366.445 370.712
L366.713 370.755
L366.803 370.755
L366.981 370.993
L367.16 370.993
L367.517 371.705
L367.606 371.705
L367.785 371.943
L369.035 372.025
L369.481 372.185
L369.66 372.528
L370.195 372.562
L370.463 373.026
L371.088 373.026
L371.267 373.258
L371.356 373.258
L371.624 373.723
L371.802 373.723
L372.07 374.189
L372.338 374.225
L372.874 375.751
L373.409 375.787
L373.588 376.081
L374.124 376.37
L374.748 376.401
L374.927 376.627
L375.641 376.676
L375.909 377.157
L376.356 377.159
L376.534 377.44
L376.802 377.497
L376.98 377.515
L377.159 377.737
L378.32 378
L378.766 378
L378.945 378.221
L379.034 378.221
L379.212 378.469
L379.391 378.548
L380.641 378.658
L381.266 378.9
L381.444 379.547
L381.623 379.762
L381.802 379.762
L382.069 380.193
L382.159 380.193
L382.337 380.408
L382.694 380.408
L382.873 380.644
L383.319 380.705
L383.498 381.36
L384.123 381.401
L384.301 381.421
L384.48 381.632
L386.444 381.652
L386.623 382.076
L386.891 382.076
L387.158 382.54
L388.051 382.609
L388.319 382.609
L388.498 382.815
L390.997 382.915
L391.444 382.98
L393.497 383.026
L393.676 383.288
L394.301 383.29
L394.479 383.487
L395.461 383.546
L395.908 383.542
L396.176 383.932
L398.229 384.031
L399.122 384.059
L399.39 384.06
L399.568 384.249
L400.283 384.263
L400.461 384.452
L401.175 384.518
L401.354 384.713
L404.836 384.826
L404.925 384.839
L405.193 385.233
L406.443 385.287
L406.621 385.463
L408.05 385.506
L408.228 385.681
L409.657 385.776
L411.085 385.776
L411.264 385.963
L412.692 386.052
L412.871 386.217
L416.621 386.315
L416.799 386.47
L418.764 386.496
L418.942 386.665
L422.692 386.775
L424.299 386.806
L425.013 386.806
L425.192 386.949
L430.459 387.057
L434.12 387.251
L435.28 387.258
L435.459 387.386
L437.78 387.464
L437.959 387.585
L438.673 387.585
L438.852 387.706
L440.101 387.711
L440.28 387.841
L442.78 387.859
L445.19 387.895
L445.369 388.008
L450.994 388.059
L451.172 388.164
L455.19 388.206
L485.099 388.662
L485.366 388.73
L518.311 388.761
L518.311 388.761" style="fill:none;stroke:#0000ff;stroke-dasharray:6.000000,2.000000;stroke-dashoffset:0.0;"/>
   </g>
   <g id="line2d_2">
    <path clip-path="url(#p7ff5b81e1d)" d="
M72 324.324
L72.0893 349.227
L72.1786 360.331
L72.4464 372.067
L72.7142 375.427
L73.3392 378.227
L73.607 378.583
L73.6963 378.638
L73.9642 377.418
L74.9462 370.844
L75.2141 369.518
L75.4819 367.621
L75.9283 370.486
L76.1069 371.127
L76.3747 371.563
L76.6426 371.322
L76.7318 371.624
L76.8211 371.422
L76.9997 371.668
L77.089 371.644
L77.2675 371.974
L77.7139 370.139
L78.5174 365.399
L79.0531 361.614
L79.1424 361.977
L79.4102 364.819
L79.4995 365.046
L79.8566 367.05
L79.9459 367.305
L80.1245 368.082
L80.2138 368.119
L80.5709 368.907
L80.6602 369.936
L80.7494 369.913
L80.8387 370.179
L81.2851 369.138
L81.7315 366.929
L82.6243 362.753
L82.8922 365.921
L83.5171 369.937
L83.8742 371.704
L84.0528 372.688
L84.3206 373.127
L84.6778 372.711
L85.392 370.669
L86.1062 368.529
L86.1955 368.252
L86.7312 372.166
L86.8205 372.279
L86.9098 372.984
L86.999 372.909
L87.1776 373.518
L87.2669 373.556
L87.4454 373.687
L87.5347 373.672
L87.7133 373.947
L87.9811 374.723
L88.249 374.531
L88.6061 373.826
L89.4989 371.519
L89.6774 388.8
L197.974 388.8
L198.242 388.24
L202.795 388.238
L202.974 387.958
L203.152 387.958
L203.331 387.681
L204.759 387.681
L204.938 387.401
L206.456 387.401
L206.634 387.121
L207.17 387.121
L207.348 386.561
L207.706 386.561
L207.884 386.281
L208.42 386.281
L208.688 385.722
L209.58 385.722
L209.759 385.442
L211.098 385.442
L211.455 384.641
L211.723 384.641
L211.902 384.361
L212.17 384.442
L212.348 384.162
L212.705 384.162
L212.884 383.882
L215.116 383.795
L215.384 383.236
L215.83 383.236
L216.009 382.956
L216.455 382.955
L216.634 382.675
L217.08 382.671
L217.437 381.832
L217.526 381.832
L217.705 381.552
L217.884 381.55
L218.33 380.427
L218.508 380.427
L218.687 380.158
L218.866 380.157
L219.044 379.878
L219.401 379.872
L219.58 379.592
L219.758 379.592
L219.937 379.032
L220.383 379.03
L220.562 378.469
L220.74 378.189
L221.098 378.169
L221.455 377.332
L221.544 377.332
L222.437 374.798
L222.615 374.773
L222.794 374.502
L223.33 374.501
L223.508 374.237
L223.687 374.228
L223.865 373.947
L223.955 373.947
L224.133 373.13
L224.312 373.129
L224.49 372.849
L224.58 372.849
L224.937 372.009
L225.294 372.007
L225.562 370.565
L225.829 370.565
L226.187 368.88
L226.365 368.88
L226.544 368.599
L226.722 368.599
L227.258 367.184
L227.436 367.183
L227.972 365.784
L228.151 365.783
L228.329 365.219
L228.508 364.379
L228.865 363.539
L228.954 363.528
L229.401 362.361
L229.49 362.361
L229.579 362.958
L230.472 360.52
L230.561 360.52
L231.008 358.835
L231.186 357.993
L231.276 357.993
L231.543 357.432
L231.811 357.432
L232.079 356.518
L232.168 356.518
L232.615 355.438
L233.24 355.43
L233.508 354.311
L233.686 354.301
L233.865 353.185
L233.954 353.185
L234.49 351.776
L234.579 351.776
L234.757 350.913
L235.025 350.9
L235.204 350.619
L235.561 350.619
L236.364 348.061
L237.079 348.048
L237.257 347.488
L237.436 347.208
L237.525 347.208
L237.704 346.927
L237.972 346.926
L238.239 346.366
L238.329 346.634
L238.507 346.224
L238.775 346.222
L238.864 345.942
L239.043 345.11
L239.221 344.548
L239.579 343.694
L240.025 343.684
L240.204 342.767
L240.65 341.08
L240.828 340.304
L241.007 340.298
L241.364 338.618
L242.078 336.546
L242.168 336.546
L242.614 335.42
L242.703 335.418
L242.882 334.859
L243.06 334.573
L243.15 334.561
L243.239 334.276
L243.418 333.292
L243.596 333.003
L243.953 332.998
L244.578 330.648
L244.846 329.524
L245.471 327.562
L245.739 325.636
L245.828 325.356
L246.007 324.244
L246.453 323.006
L246.542 323.005
L246.989 321.602
L247.078 322.405
L247.257 322.115
L247.435 322.103
L247.614 321.283
L247.971 319.591
L248.06 319.505
L248.239 318.692
L248.417 317.85
L248.685 316.797
L248.864 316.467
L249.132 314.676
L249.221 314.673
L249.667 313.59
L249.756 313.584
L250.024 313.019
L250.203 312.985
L250.56 311.282
L250.739 311.281
L251.006 310.713
L251.096 310.711
L251.274 310.164
L251.453 309.32
L251.542 309.176
L251.899 307.854
L252.167 307.851
L252.613 305.521
L252.792 304.645
L253.06 302.965
L253.149 302.955
L254.131 300.123
L254.22 300.118
L254.756 297.101
L254.845 297.098
L255.203 295.695
L255.381 295.132
L255.47 295.099
L255.649 293.979
L255.738 293.969
L255.828 294.471
L256.185 293.062
L256.542 291.378
L256.72 291.344
L256.988 290.212
L257.167 289.929
L257.256 289.927
L257.435 288.869
L257.524 288.776
L258.149 287.066
L258.417 286.319
L258.595 285.758
L258.952 284.895
L259.042 284.894
L259.131 284.612
L259.488 282.385
L259.577 282.385
L259.667 282.099
L259.845 281.257
L259.934 281.257
L260.202 280.029
L260.381 279.446
L260.738 278.122
L261.006 277.024
L261.184 277.013
L261.541 275.426
L262.434 272.858
L262.524 272.857
L262.791 271.731
L262.97 270.888
L263.059 270.877
L263.595 269.423
L263.684 269.422
L263.952 268.294
L264.041 268.293
L264.22 266.849
L264.309 266.848
L264.488 266.561
L264.577 266.858
L265.023 265.313
L265.202 264.75
L265.38 263.627
L265.738 262.217
L266.72 256.573
L266.809 256.567
L266.988 256.003
L267.077 256.003
L267.166 255.724
L267.434 253.528
L267.88 251.832
L268.327 249.533
L268.505 249.25
L268.595 249.248
L268.862 247.347
L269.041 245.94
L269.22 245.659
L269.487 245.59
L269.666 244.706
L269.844 244.705
L270.112 243.582
L270.648 241.821
L270.737 241.821
L271.63 238.68
L271.809 238.119
L272.255 237.128
L272.523 235.442
L272.701 234.871
L272.969 233.324
L273.148 232.761
L273.326 232.753
L273.505 232.192
L273.951 231.028
L274.041 230.922
L274.219 230.639
L274.398 230.577
L274.576 230.02
L274.844 229.456
L274.933 229.456
L275.291 228.253
L275.469 226.573
L275.737 225.462
L275.826 225.456
L276.183 225.027
L276.451 223.901
L276.63 223.491
L276.719 223.21
L277.076 220.126
L277.255 220.122
L277.79 218.432
L277.969 217.309
L278.058 217.3
L278.415 215.62
L278.505 215.531
L279.04 213.833
L279.219 212.992
L279.487 211.86
L279.755 209.897
L279.844 209.879
L281.004 206.307
L281.183 205.185
L281.451 204.606
L281.629 204.594
L281.987 203.64
L282.076 203.806
L282.612 201.845
L283.058 199.637
L283.326 198.63
L283.594 197.506
L283.683 197.505
L283.861 197.224
L283.951 197.223
L284.129 195.766
L284.308 195.746
L284.576 195.183
L284.665 195.183
L285.111 193.489
L285.29 192.366
L285.468 192.365
L285.647 190.124
L285.915 190.122
L287.165 186.538
L287.254 186.519
L287.79 184.526
L287.879 184.526
L288.415 183.118
L288.504 183.114
L288.683 182.553
L288.861 182.552
L289.04 181.708
L289.218 181.146
L289.308 181.146
L289.575 180.019
L289.843 178.34
L289.932 178.114
L290.111 177.553
L290.2 177.553
L290.379 177.278
L290.468 177.268
L290.736 176.425
L290.825 176.705
L291.54 174.738
L291.807 174.735
L291.986 174.598
L292.075 174.598
L292.254 174.037
L292.522 172.354
L292.7 172.354
L292.968 171.791
L293.325 171.382
L293.504 170.532
L293.593 170.53
L293.861 169.393
L293.95 169.39
L294.218 168.821
L294.307 168.818
L294.486 168.539
L294.664 167.142
L295.111 166.03
L295.2 166.028
L295.468 164.626
L295.646 164.625
L296.361 162.56
L296.45 162.558
L296.628 161.822
L296.807 161.817
L296.986 160.422
L297.164 160.419
L297.343 159.854
L297.789 159.466
L297.968 159.455
L298.146 159.173
L298.236 159.173
L298.503 158.608
L298.593 158.608
L298.682 158.327
L298.86 157.473
L299.039 157.471
L299.307 156.909
L299.396 156.908
L299.485 156.348
L299.575 156.566
L299.753 156.286
L299.932 155.172
L300.021 155.171
L300.289 152.721
L300.378 152.721
L300.557 151.811
L300.735 150.981
L300.914 150.981
L301.092 150.419
L301.271 150.418
L301.539 149.303
L301.717 148.574
L301.985 147.997
L302.075 147.996
L302.342 147.433
L302.521 147.433
L302.878 146.274
L303.057 146.274
L303.503 143.919
L303.592 143.919
L303.86 142.793
L304.217 141.955
L304.307 141.956
L304.753 140.447
L304.932 139.607
L305.11 139.607
L305.914 137.327
L306.003 137.327
L306.181 136.478
L306.449 136.478
L306.717 135.916
L306.806 135.916
L307.164 135.075
L307.253 135.075
L307.699 133.294
L307.878 133.286
L308.056 132.447
L308.146 132.447
L308.413 131.97
L308.592 131.969
L308.771 131.409
L309.038 131.404
L309.217 130.831
L309.485 130.794
L309.663 130.4
L309.753 130.117
L309.931 128.996
L310.02 128.996
L310.288 128.436
L310.378 128.422
L310.467 128.14
L310.645 127.014
L310.735 126.734
L310.913 125.615
L311.003 125.614
L311.36 124.771
L311.538 124.771
L311.717 123.93
L311.895 123.366
L312.61 121.401
L312.877 121.4
L313.056 121.118
L313.235 121.118
L313.592 120.696
L313.77 120.69
L313.949 120.128
L314.038 120.123
L314.217 119.842
L314.395 119.841
L314.663 119.281
L314.752 119.281
L314.931 118.44
L315.02 118.438
L315.288 117.873
L315.645 117.873
L316.806 114.518
L317.074 114.581
L319.038 108.628
L319.127 108.628
L319.306 108.146
L319.573 107.026
L319.931 106.184
L320.109 106.186
L320.645 104.176
L320.823 103.613
L320.913 103.613
L321.18 103.05
L321.27 103.05
L321.448 102.21
L321.627 101.091
L321.716 101.091
L321.895 100.811
L321.984 100.811
L322.252 99.692
L322.609 98.8598
L323.145 98.8623
L323.323 98.582
L323.68 98.5807
L323.859 98.3008
L323.948 98.3006
L324.127 98.0208
L324.484 98.0203
L324.662 97.2321
L324.752 97.2314
L325.644 94.7141
L325.823 94.7705
L326.002 93.9303
L326.359 93.9297
L326.537 93.6515
L326.716 93.6506
L326.984 93.093
L327.162 93.093
L327.43 92.532
L327.787 92.5318
L328.144 91.6923
L328.68 91.6906
L328.859 91.4108
L329.216 91.4096
L329.394 90.5711
L329.573 90.576
L329.751 89.9813
L329.93 89.9819
L330.823 88.0778
L330.912 88.0778
L331.18 87.5181
L331.358 87.5179
L331.537 87.2381
L332.162 87.2363
L332.34 86.9565
L332.698 86.9542
L333.144 85.8465
L333.59 85.8462
L334.126 84.4518
L334.483 84.4511
L334.93 83.4529
L335.465 83.4495
L335.822 82.61
L336.447 82.6088
L336.626 82.335
L336.894 82.3355
L337.072 82.0544
L337.162 82.0557
L337.34 81.4951
L337.608 81.4621
L337.876 80.5256
L338.322 80.5253
L338.679 79.5767
L339.751 79.5755
L339.929 79.2992
L340.286 79.2992
L340.554 78.7366
L340.644 78.7347
L340.822 78.4554
L341.09 78.4566
L341.358 77.897
L342.34 77.8961
L342.518 77.6192
L343.5 77.6496
L343.679 77.3715
L344.483 77.3689
L344.75 76.8092
L345.018 76.8098
L345.197 76.2496
L345.465 76.2494
L345.643 75.9695
L346.09 75.9685
L346.357 75.4089
L348.143 75.4105
L348.322 75.1317
L348.679 75.1339
L348.857 74.2939
L349.036 74.2935
L349.214 74.1175
L349.304 74.1164
L349.482 73.831
L350.286 73.8271
L350.643 73.0002
L350.732 73.0008
L350.911 72.7191
L351.268 72.7202
L351.446 72.4478
L351.625 72.4509
L351.893 71.8899
L352.071 71.9044
L352.25 71.6262
L352.607 71.6251
L352.786 71.3453
L352.875 71.3463
L353.053 71.0659
L354.125 70.9775
L354.482 70.143
L354.66 70.1469
L354.839 69.8672
L357.785 69.8694
L357.964 69.5895
L358.41 69.5897
L358.678 69.0192
L358.857 69.022
L359.035 68.7455
L359.392 68.7534
L359.571 68.4727
L360.017 68.4722
L360.196 68.1923
L361.089 68.1944
L361.714 66.5215
L362.964 66.536
L363.142 66.2562
L363.767 66.2562
L364.035 65.6963
L364.392 65.6953
L364.571 65.4136
L365.553 65.4192
L365.82 64.8612
L366.267 64.8634
L366.445 64.5836
L366.803 64.5525
L366.981 64.2726
L367.16 64.2726
L367.517 63.4331
L367.606 63.4331
L367.785 63.1523
L369.481 63.1646
L369.66 62.891
L370.195 62.8899
L370.463 62.3293
L371.088 62.3293
L371.267 62.0474
L371.356 62.0474
L371.624 61.4875
L371.802 61.4853
L372.07 60.9328
L372.338 60.9351
L372.963 59.2598
L373.409 59.2626
L373.588 58.9854
L373.856 58.9882
L374.034 58.7084
L374.748 58.7082
L374.927 58.4283
L375.641 58.4289
L375.909 57.9211
L376.356 57.9248
L376.534 57.6494
L376.98 57.6517
L377.159 57.3719
L377.605 57.3763
L377.784 57.0965
L378.766 57.1022
L378.945 56.8219
L379.034 56.8213
L379.212 56.5454
L380.373 56.5693
L381.087 56.5351
L381.623 55.1332
L381.802 55.1329
L382.069 54.5721
L382.159 54.5721
L382.337 54.2905
L382.694 54.2889
L382.873 54.0113
L383.319 54.0169
L383.498 53.1798
L384.301 53.1875
L384.48 52.9077
L386.444 52.9111
L386.623 52.3514
L386.891 52.3509
L387.158 51.8013
L388.319 51.8095
L388.498 51.5308
L392.872 51.4536
L393.051 51.3789
L393.497 51.3799
L393.676 51.1035
L394.301 51.1063
L394.479 50.8282
L395.908 50.7997
L396.176 50.2401
L399.39 50.2537
L399.568 49.9738
L400.283 49.9744
L400.461 49.6957
L401.175 49.6985
L401.354 49.4171
L404.925 49.3571
L405.193 48.7974
L406.443 48.7986
L406.621 48.5188
L408.05 48.5172
L408.228 48.2374
L411.085 48.2359
L411.264 47.9561
L412.692 47.9552
L412.871 47.6813
L416.621 47.6802
L416.799 47.4004
L418.764 47.4004
L418.942 47.1205
L425.013 47.12
L425.192 46.8401
L432.066 46.8401
L432.245 46.5603
L435.28 46.5592
L435.459 46.2793
L437.78 46.2788
L437.959 46.1545
L438.673 46.1545
L438.852 45.8746
L440.101 45.8753
L440.28 45.5966
L445.19 45.6026
L445.369 45.3227
L450.994 45.3306
L451.172 45.0508
L468.939 45.0779
L469.117 44.7986
L473.671 44.7679
L473.849 44.488
L481.795 44.5003
L481.974 44.2205
L485.099 44.1574
L485.277 43.8803
L497.866 43.9148
L498.044 43.7064
L498.848 43.7075
L499.026 43.4821
L518.311 43.4798
L518.311 43.4798" style="fill:none;stroke:#008000;stroke-dasharray:1.000000,1.000000;stroke-dashoffset:0.0;"/>
   </g>
   <g id="line2d_3">
    <path clip-path="url(#p7ff5b81e1d)" d="
M72 318.927
L72.0893 302.384
L72.1786 296.625
L72.2678 291.215
L72.3571 292.883
L72.5357 289.973
L72.625 290.125
L72.8035 288.682
L72.9821 286.728
L73.3392 287.032
L73.6963 280.565
L73.9642 268.898
L74.1427 266.539
L74.3213 266.308
L74.4998 266.723
L74.6784 266.751
L75.4819 268.233
L75.5712 267.617
L75.6605 268.754
L75.9283 281.097
L76.3747 298.769
L77.2675 318.938
L77.5354 311.599
L77.7139 311.114
L77.9818 309.768
L78.071 309.729
L78.2496 309.467
L78.4282 309.539
L78.696 309.225
L78.7853 309.252
L78.9638 309.031
L79.0531 309.034
L79.1424 307.326
L79.7674 319.923
L80.8387 333.59
L81.2851 327.84
L81.553 326.911
L81.6422 326.907
L81.9101 325.88
L82.3565 325.461
L82.6243 325.401
L82.7136 325.604
L82.8029 324.953
L83.16 327.113
L83.2493 327.409
L83.785 332.024
L83.8742 331.979
L84.1421 334.383
L84.2314 334.611
L84.4099 335.882
L84.8563 331.34
L85.0349 331.075
L85.9277 328.312
L86.1062 328.17
L86.1955 327.761
L86.2848 327.832
L86.3741 328.301
L86.4634 327.977
L86.6419 329.151
L86.8205 329.599
L86.999 330.464
L87.0883 330.502
L87.2669 331.278
L87.4454 331.802
L87.624 332.47
L87.9811 334.312
L88.3382 332.363
L88.9632 330.103
L89.231 329.298
L89.3203 329.245
L89.4989 328.901
L89.6774 388.8
L518.311 388.8
L518.311 388.8" style="fill:none;stroke:#ff0000;stroke-dasharray:3.000000,6.000000;stroke-dashoffset:0.0;"/>
   </g>
   <g id="line2d_4">
    <path clip-path="url(#p7ff5b81e1d)" d="
M72 318.382
L72.0893 297.476
L72.1786 289.146
L72.8035 275.351
L72.8928 275.839
L73.0714 273.525
L73.1606 273.672
L73.2499 270.935
L73.3392 271.364
L73.4285 272.736
L73.607 271.284
L74.232 281.874
L74.9462 284.606
L75.0355 284.658
L75.4819 286.097
L75.839 258.635
L76.1962 231.377
L76.7318 205.659
L77.1782 189.537
L77.2675 186.525
L77.5354 191.498
L77.7139 192.24
L78.071 194.294
L79.1424 199.056
L79.4102 184.452
L79.5888 178.297
L80.4816 154.348
L80.5709 152.278
L80.7494 146.504
L80.8387 144.955
L81.4637 150.806
L81.6422 151.445
L81.9994 153.609
L82.6243 155.564
L82.8922 148.853
L83.785 130.295
L83.8742 129.957
L84.0528 126
L84.4099 123.062
L84.9456 127.722
L85.2134 128.908
L85.6598 131.494
L86.1955 133.672
L86.9098 124.036
L86.999 123.828
L87.4454 121.197
L87.5347 121.019
L87.8026 118.528
L87.9811 117.035
L88.6954 121.127
L88.8739 121.754
L89.4989 124.541
L89.6774 388.8
L518.311 388.8
L518.311 388.8" style="fill:none;stroke:#00bfbf;stroke-dasharray:5.000000,1.000000,2.000000,1.000000,5.000000,1.000000;stroke-dashoffset:0.0;"/>
   </g>
   <g id="line2d_5">
    <path clip-path="url(#p7ff5b81e1d)" d="
M72 321.066
L72.2678 292.406
L72.4464 281.736
L72.5357 283.338
L72.625 281.48
L72.7142 281.918
L72.8035 282.151
L73.0714 281.334
L73.1606 280.105
L73.2499 282.203
L73.3392 280.875
L73.4285 280.94
L74.232 291.565
L74.4998 292.168
L74.857 292.748
L75.2141 292.712
L75.4819 293.289
L75.9283 312.77
L76.3747 322.875
L76.9997 331.279
L77.089 331.737
L77.5354 337.306
L78.5174 340.166
L79.0531 341.773
L79.1424 342.78
L79.4102 348.674
L79.4995 349.151
L79.8566 353.468
L80.5709 358.977
L80.7494 361.01
L81.553 364.116
L82.3565 365.732
L82.6243 366.284
L82.8922 369.526
L83.4278 373.953
L83.6064 374.471
L84.1421 377.292
L84.2314 377.329
L84.5885 378.238
L84.9456 378.749
L86.1955 379.992
L86.6419 381.802
L87.1776 382.779
L87.2669 382.775
L87.4454 382.945
L87.5347 382.897
L87.7133 383.092
L87.9811 383.551
L88.6061 384.133
L89.4989 384.654
L89.6774 388.8
L276.719 388.8
L276.898 388.625
L287.879 388.656
L288.058 388.53
L294.575 388.567
L294.754 388.338
L304.128 388.413
L304.307 388.21
L305.11 388.222
L305.289 388.051
L308.949 388.117
L315.824 388.228
L316.27 388.241
L316.538 387.961
L320.02 388.058
L320.198 387.934
L321.895 388.004
L322.073 387.91
L322.252 387.919
L322.43 387.819
L325.555 387.781
L325.734 387.681
L326.359 387.707
L326.537 387.611
L330.555 387.524
L330.823 387.364
L333.055 387.255
L333.858 387.1
L334.037 387.036
L335.376 387.1
L336.626 386.989
L340.286 386.823
L340.465 386.779
L347.34 386.733
L347.518 386.598
L351.357 386.559
L351.536 386.315
L352.607 386.388
L352.964 386.378
L355.285 386.312
L355.553 386.254
L358.767 386.188
L358.946 386.11
L359.571 385.826
L362.428 385.746
L362.964 385.548
L363.321 385.586
L365.463 385.524
L365.642 385.517
L367.249 385.577
L367.695 385.705
L369.035 385.617
L369.838 385.347
L371.088 385.445
L371.534 385.59
L372.606 385.689
L372.874 385.788
L378.766 385.698
L379.034 385.758
L379.212 385.785
L379.391 385.695
L379.837 385.632
L380.105 385.576
L381.266 385.645
L381.444 385.84
L381.712 385.905
L381.98 385.971
L382.337 386.102
L383.409 386.194
L383.587 386.24
L386.444 386.237
L386.623 386.373
L394.301 386.404
L394.479 386.485
L395.372 386.455
L396.086 386.543
L396.265 386.628
L398.229 386.518
L399.033 386.487
L400.283 386.563
L400.461 386.652
L406.443 386.714
L406.621 386.818
L418.764 386.904
L418.942 387.014
L422.692 386.905
L424.299 386.874
L425.013 386.874
L425.192 387.011
L430.459 386.902
L431.977 386.882
L432.066 386.882
L432.245 387.029
L438.673 387.061
L438.852 387.219
L440.101 387.214
L440.28 387.363
L442.601 387.342
L445.19 387.302
L445.369 387.469
L450.994 387.411
L451.172 387.585
L454.386 387.554
L462.779 387.444
L465.1 387.436
L468.939 387.401
L469.117 387.598
L473.671 387.603
L473.849 387.808
L481.795 387.779
L481.974 387.989
L485.099 387.98
L485.277 388.19
L497.866 388.143
L498.044 388.351
L498.848 388.35
L499.026 388.573
L518.311 388.559
L518.311 388.559" style="fill:none;stroke:#bf00bf;stroke-linecap:square;"/>
   </g>
   <g id="matplotlib.axis_1">
    <g id="xtick_1">
     <g id="line2d_6">
      <defs>
       <path d="
M0 0
L0 -4" id="mc7db9fdffb" style="stroke:#000000;stroke-width:0.5;"/>
      </defs>
      <g>
       <use style="stroke:#000000;stroke-width:0.5;" x="72.0" xlink:href="#mc7db9fdffb" y="388.8"/>
      </g>
     </g>
     <g id="line2d_7">
      <defs>
       <path d="
M0 0
L0 4" id="m5a7d422ac3" style="stroke:#000000;stroke-width:0.5;"/>
      </defs>
      <g>
       <use style="stroke:#000000;stroke-width:0.5;" x="72.0" xlink:href="#m5a7d422ac3" y="43.2"/>
      </g>
     </g>
     <g id="text_1">
      <!-- 0 -->
      <defs>
       <path d="
M56.9844 36.375
Q56.9844 16.7969 50.8594 7.64062
Q44.7344 -1.51562 31.8438 -1.51562
Q18.75 -1.51562 12.7188 7.76562
Q6.6875 17.0469 6.6875 36.2812
Q6.6875 55.6719 12.7812 64.9219
Q18.8906 74.1719 31.8438 74.1719
Q44.9219 74.1719 50.9531 64.7656
Q56.9844 55.375 56.9844 36.375
M44.1406 14.2031
Q45.8438 18.1719 46.4531 23.5156
Q47.0781 28.8594 47.0781 36.375
Q47.0781 43.7969 46.4531 49.2656
Q45.8438 54.7344 44.0938 58.5469
Q42.3906 62.3125 39.4219 64.2031
Q36.4688 66.1094 31.8438 66.1094
Q27.25 66.1094 24.2344 64.2031
Q21.2344 62.3125 19.4844 58.4531
Q17.8281 54.8281 17.2188 49.0156
Q16.6094 43.2188 16.6094 36.2812
Q16.6094 28.6562 17.1406 23.5312
Q17.6719 18.4062 19.4375 14.3594
Q21.0469 10.5469 24 8.54688
Q26.9531 6.54688 31.8438 6.54688
Q36.4219 6.54688 39.4531 8.45312
Q42.4844 10.3594 44.1406 14.2031" id="Verdana-30"/>
      </defs>
      <g transform="translate(68.9821875 401.918125)scale(0.12 -0.12)">
       <use xlink:href="#Verdana-30"/>
      </g>
     </g>
    </g>
    <g id="xtick_2">
     <g id="line2d_8">
      <g>
       <use style="stroke:#000000;stroke-width:0.5;" x="161.28" xlink:href="#mc7db9fdffb" y="388.8"/>
      </g>
     </g>
     <g id="line2d_9">
      <g>
       <use style="stroke:#000000;stroke-width:0.5;" x="161.28" xlink:href="#m5a7d422ac3" y="43.2"/>
      </g>
     </g>
     <g id="text_2">
      <!-- 1000 -->
      <defs>
       <path d="
M52.9375 0
L13.5781 0
L13.5781 7.42188
L28.7188 7.42188
L28.7188 56.1562
L13.5781 56.1562
L13.5781 62.7969
Q16.6562 62.7969 20.1719 63.2969
Q23.6875 63.8125 25.4844 64.7969
Q27.7344 66.0156 29.0312 67.8906
Q30.3281 69.7812 30.5156 72.9531
L38.0938 72.9531
L38.0938 7.42188
L52.9375 7.42188
z
" id="Verdana-31"/>
      </defs>
      <g transform="translate(147.2315625 401.918125)scale(0.12 -0.12)">
       <use xlink:href="#Verdana-31"/>
       <use x="63.57421875" xlink:href="#Verdana-30"/>
       <use x="127.1484375" xlink:href="#Verdana-30"/>
       <use x="190.72265625" xlink:href="#Verdana-30"/>
      </g>
     </g>
    </g>
    <g id="xtick_3">
     <g id="line2d_10">
      <g>
       <use style="stroke:#000000;stroke-width:0.5;" x="250.56" xlink:href="#mc7db9fdffb" y="388.8"/>
      </g>
     </g>
     <g id="line2d_11">
      <g>
       <use style="stroke:#000000;stroke-width:0.5;" x="250.56" xlink:href="#m5a7d422ac3" y="43.2"/>
      </g>
     </g>
     <g id="text_3">
      <!-- 2000 -->
      <defs>
       <path d="
M57.0781 0
L7.85938 0
L7.85938 10.2031
Q12.9844 14.5938 18.1406 18.9844
Q23.2969 23.3906 27.7344 27.7344
Q37.1094 36.8125 40.5781 42.1562
Q44.0469 47.5156 44.0469 53.7188
Q44.0469 59.375 40.3125 62.5625
Q36.5781 65.7656 29.8906 65.7656
Q25.4375 65.7656 20.2656 64.2031
Q15.0938 62.6406 10.1562 59.4219
L9.67188 59.4219
L9.67188 69.6719
Q13.1406 71.3906 18.9219 72.7969
Q24.7031 74.2188 30.125 74.2188
Q41.3125 74.2188 47.6562 68.8125
Q54 63.4219 54 54.2031
Q54 50.0469 52.9531 46.4531
Q51.9062 42.875 49.8594 39.6562
Q47.9531 36.625 45.3906 33.6875
Q42.8281 30.7656 39.1562 27.2031
Q33.9375 22.0781 28.3594 17.2656
Q22.7969 12.4531 17.9688 8.34375
L57.0781 8.34375
z
" id="Verdana-32"/>
      </defs>
      <g transform="translate(236.1684375 401.918125)scale(0.12 -0.12)">
       <use xlink:href="#Verdana-32"/>
       <use x="63.57421875" xlink:href="#Verdana-30"/>
       <use x="127.1484375" xlink:href="#Verdana-30"/>
       <use x="190.72265625" xlink:href="#Verdana-30"/>
      </g>
     </g>
    </g>
    <g id="xtick_4">
     <g id="line2d_12">
      <g>
       <use style="stroke:#000000;stroke-width:0.5;" x="339.84" xlink:href="#mc7db9fdffb" y="388.8"/>
      </g>
     </g>
     <g id="line2d_13">
      <g>
       <use style="stroke:#000000;stroke-width:0.5;" x="339.84" xlink:href="#m5a7d422ac3" y="43.2"/>
      </g>
     </g>
     <g id="text_4">
      <!-- 3000 -->
      <defs>
       <path d="
M50.6875 35.0156
Q53.0312 32.9062 54.5469 29.7344
Q56.0625 26.5625 56.0625 21.5312
Q56.0625 16.5469 54.25 12.3906
Q52.4375 8.25 49.1719 5.17188
Q45.5156 1.76562 40.5469 0.125
Q35.5938 -1.51562 29.6875 -1.51562
Q23.6406 -1.51562 17.7812 -0.0625
Q11.9219 1.375 8.15625 3.07812
L8.15625 13.2812
L8.89062 13.2812
Q13.0312 10.5469 18.6406 8.73438
Q24.2656 6.9375 29.5 6.9375
Q32.5625 6.9375 36.0312 7.95312
Q39.5 8.98438 41.6562 10.9844
Q43.8906 13.1406 44.9844 15.7188
Q46.0938 18.3125 46.0938 22.2656
Q46.0938 26.1719 44.8438 28.7344
Q43.6094 31.2969 41.4062 32.7656
Q39.2031 34.2812 36.0781 34.8438
Q32.9531 35.4062 29.3438 35.4062
L24.9531 35.4062
L24.9531 43.5
L28.375 43.5
Q35.7969 43.5 40.2031 46.5938
Q44.625 49.7031 44.625 55.6719
Q44.625 58.2969 43.5 60.2656
Q42.3906 62.25 40.375 63.5312
Q38.2812 64.7969 35.8906 65.2812
Q33.5 65.7656 30.4688 65.7656
Q25.8281 65.7656 20.5938 64.1094
Q15.375 62.4531 10.75 59.4219
L10.25 59.4219
L10.25 69.625
Q13.7188 71.3438 19.5 72.7812
Q25.2969 74.2188 30.7188 74.2188
Q36.0312 74.2188 40.0781 73.2344
Q44.1406 72.2656 47.4062 70.125
Q50.9219 67.7812 52.7344 64.4531
Q54.5469 61.1406 54.5469 56.6875
Q54.5469 50.6406 50.2656 46.125
Q46 41.6094 40.1875 40.4375
L40.1875 39.75
Q42.5312 39.3594 45.5469 38.1094
Q48.5781 36.8594 50.6875 35.0156" id="Verdana-33"/>
      </defs>
      <g transform="translate(325.46625 401.918125)scale(0.12 -0.12)">
       <use xlink:href="#Verdana-33"/>
       <use x="63.57421875" xlink:href="#Verdana-30"/>
       <use x="127.1484375" xlink:href="#Verdana-30"/>
       <use x="190.72265625" xlink:href="#Verdana-30"/>
      </g>
     </g>
    </g>
    <g id="xtick_5">
     <g id="line2d_14">
      <g>
       <use style="stroke:#000000;stroke-width:0.5;" x="429.12" xlink:href="#mc7db9fdffb" y="388.8"/>
      </g>
     </g>
     <g id="line2d_15">
      <g>
       <use style="stroke:#000000;stroke-width:0.5;" x="429.12" xlink:href="#m5a7d422ac3" y="43.2"/>
      </g>
     </g>
     <g id="text_5">
      <!-- 4000 -->
      <defs>
       <path d="
M58.7344 20.4531
L47.9531 20.4531
L47.9531 0
L38.5781 0
L38.5781 20.4531
L3.76562 20.4531
L3.76562 31.6875
L38.9688 72.7031
L47.9531 72.7031
L47.9531 28.2656
L58.7344 28.2656
z

M38.5781 28.2656
L38.5781 61.0781
L10.4062 28.2656
z
" id="Verdana-34"/>
      </defs>
      <g transform="translate(414.4828125 401.918125)scale(0.12 -0.12)">
       <use xlink:href="#Verdana-34"/>
       <use x="63.57421875" xlink:href="#Verdana-30"/>
       <use x="127.1484375" xlink:href="#Verdana-30"/>
       <use x="190.72265625" xlink:href="#Verdana-30"/>
      </g>
     </g>
    </g>
    <g id="xtick_6">
     <g id="line2d_16">
      <g>
       <use style="stroke:#000000;stroke-width:0.5;" x="518.4" xlink:href="#mc7db9fdffb" y="388.8"/>
      </g>
     </g>
     <g id="line2d_17">
      <g>
       <use style="stroke:#000000;stroke-width:0.5;" x="518.4" xlink:href="#m5a7d422ac3" y="43.2"/>
      </g>
     </g>
     <g id="text_6">
      <!-- 5000 -->
      <defs>
       <path d="
M56.5 23.0938
Q56.5 18.0156 54.6406 13.375
Q52.7812 8.73438 49.5625 5.5625
Q46.0469 2.15625 41.1875 0.3125
Q36.3281 -1.51562 29.9375 -1.51562
Q23.9688 -1.51562 18.4531 -0.265625
Q12.9375 0.984375 9.125 2.73438
L9.125 13.0312
L9.8125 13.0312
Q13.8125 10.5 19.1875 8.71875
Q24.5625 6.9375 29.7344 6.9375
Q33.2031 6.9375 36.4531 7.90625
Q39.7031 8.89062 42.2344 11.3281
Q44.3906 13.4219 45.4844 16.3438
Q46.5781 19.2812 46.5781 23.1406
Q46.5781 26.9062 45.2812 29.4844
Q44 32.0781 41.7031 33.6406
Q39.1562 35.5 35.5156 36.25
Q31.8906 37.0156 27.3906 37.0156
Q23.0938 37.0156 19.1094 36.4219
Q15.1406 35.8438 12.25 35.25
L12.25 72.7031
L56 72.7031
L56 64.1562
L21.6875 64.1562
L21.6875 44.8281
Q23.7812 45.0156 25.9688 45.1094
Q28.1719 45.2188 29.7812 45.2188
Q35.6875 45.2188 40.125 44.2188
Q44.5781 43.2188 48.2969 40.6719
Q52.2031 37.9844 54.3438 33.7344
Q56.5 29.5 56.5 23.0938" id="Verdana-35"/>
      </defs>
      <g transform="translate(504.084375 401.918125)scale(0.12 -0.12)">
       <use xlink:href="#Verdana-35"/>
       <use x="63.57421875" xlink:href="#Verdana-30"/>
       <use x="127.1484375" xlink:href="#Verdana-30"/>
       <use x="190.72265625" xlink:href="#Verdana-30"/>
      </g>
     </g>
    </g>
    <g id="text_7">
     <!-- Objective function exectuions -->
     <defs>
      <path d="
M63.9688 64.3594
Q68.4062 59.4688 70.7656 52.3906
Q73.1406 45.3125 73.1406 36.3281
Q73.1406 27.3438 70.7188 20.2344
Q68.3125 13.1406 63.9688 8.40625
Q59.4688 3.46875 53.3438 0.96875
Q47.2188 -1.51562 39.3594 -1.51562
Q31.6875 -1.51562 25.4062 1.01562
Q19.1406 3.5625 14.75 8.40625
Q10.3594 13.2344 7.98438 20.2656
Q5.60938 27.2969 5.60938 36.3281
Q5.60938 45.2188 7.95312 52.2656
Q10.2969 59.3281 14.7969 64.3594
Q19.0938 69.1406 25.4688 71.6719
Q31.8438 74.2188 39.3594 74.2188
Q47.1719 74.2188 53.3906 71.6562
Q59.625 69.0938 63.9688 64.3594
M63.0938 36.3281
Q63.0938 50.4844 56.7344 58.1719
Q50.3906 65.875 39.4062 65.875
Q28.3281 65.875 22 58.1719
Q15.6719 50.4844 15.6719 36.3281
Q15.6719 22.0156 22.1094 14.4219
Q28.5625 6.84375 39.4062 6.84375
Q50.25 6.84375 56.6719 14.4219
Q63.0938 22.0156 63.0938 36.3281" id="Verdana-4f"/>
      <path d="
M38.375 67.0938
L37.8906 67.0938
Q36.375 67.5312 33.9375 67.9844
Q31.5 68.4531 29.6406 68.4531
Q23.7344 68.4531 21.0625 65.8438
Q18.4062 63.2344 18.4062 56.3906
L18.4062 54.5469
L34.9688 54.5469
L34.9688 46.8281
L18.7031 46.8281
L18.7031 0
L9.51562 0
L9.51562 46.8281
L3.32812 46.8281
L3.32812 54.5469
L9.51562 54.5469
L9.51562 56.3438
Q9.51562 66.0625 14.3438 71.2656
Q19.1875 76.4688 28.3281 76.4688
Q31.3906 76.4688 33.8594 76.1719
Q36.3281 75.875 38.375 75.4844
z
" id="Verdana-66"/>
      <path d="
M57.0312 27.6875
Q57.0312 20.8438 55.0938 15.375
Q53.1719 9.90625 49.9062 6.20312
Q46.4375 2.34375 42.2812 0.40625
Q38.1406 -1.51562 33.1562 -1.51562
Q28.5156 -1.51562 25.0469 -0.40625
Q21.5781 0.6875 18.2188 2.54688
L17.625 0
L9.03125 0
L9.03125 75.9844
L18.2188 75.9844
L18.2188 48.8281
Q22.0781 52 26.4219 54.0312
Q30.7656 56.0625 36.1875 56.0625
Q45.8438 56.0625 51.4375 48.6406
Q57.0312 41.2188 57.0312 27.6875
M47.5625 27.4375
Q47.5625 37.2031 44.3281 42.25
Q41.1094 47.3125 33.9375 47.3125
Q29.9375 47.3125 25.8281 45.5781
Q21.7344 43.8438 18.2188 41.1094
L18.2188 9.85938
Q22.125 8.10938 24.9219 7.42188
Q27.7344 6.73438 31.2969 6.73438
Q38.9219 6.73438 43.2344 11.7344
Q47.5625 16.75 47.5625 27.4375" id="Verdana-62"/>
      <path id="Verdana-20"/>
      <path d="
M18.8906 63.6719
L8.54688 63.6719
L8.54688 73.1875
L18.8906 73.1875
z

M18.3125 0
L9.125 0
L9.125 54.5469
L18.3125 54.5469
z
" id="Verdana-69"/>
      <path d="
M26.0312 63.6719
L15.6719 63.6719
L15.6719 73.1875
L26.0312 73.1875
z

M25.4375 -1.3125
Q25.4375 -10.8906 20.5469 -15.7656
Q15.6719 -20.6562 7.46875 -20.6562
Q5.51562 -20.6562 2.3125 -20.2656
Q-0.875 -19.875 -3.03125 -19.2812
L-3.03125 -10.5469
L-2.54688 -10.5469
Q-1.17188 -11.0781 1.14062 -11.7656
Q3.46875 -12.4531 5.67188 -12.4531
Q9.1875 -12.4531 11.3281 -11.4688
Q13.4844 -10.5 14.5469 -8.54688
Q15.625 -6.59375 15.9375 -3.82812
Q16.2656 -1.07812 16.2656 2.875
L16.2656 46.8281
L4.89062 46.8281
L4.89062 54.5469
L25.4375 54.5469
z
" id="Verdana-6a"/>
      <path d="
M48 15.7188
Q48 8.25 41.8125 3.46875
Q35.6406 -1.3125 24.9531 -1.3125
Q18.8906 -1.3125 13.8438 0.125
Q8.79688 1.5625 5.375 3.26562
L5.375 13.5781
L5.85938 13.5781
Q10.2031 10.2969 15.5156 8.375
Q20.8438 6.45312 25.7344 6.45312
Q31.7812 6.45312 35.2031 8.40625
Q38.625 10.3594 38.625 14.5469
Q38.625 17.7812 36.7656 19.4375
Q34.9062 21.0938 29.6406 22.2656
Q27.6875 22.7031 24.5312 23.2812
Q21.3906 23.875 18.7969 24.5625
Q11.625 26.4688 8.60938 30.1562
Q5.60938 33.8438 5.60938 39.2031
Q5.60938 42.5781 7 45.5469
Q8.40625 48.5312 11.2344 50.875
Q13.9688 53.1719 18.1875 54.5156
Q22.4062 55.8594 27.6406 55.8594
Q32.5156 55.8594 37.5156 54.6562
Q42.5312 53.4688 45.8438 51.7656
L45.8438 41.9375
L45.3594 41.9375
Q41.8438 44.5312 36.8125 46.3125
Q31.7812 48.0938 26.9531 48.0938
Q21.9219 48.0938 18.4531 46.1562
Q14.9844 44.2344 14.9844 40.4375
Q14.9844 37.0625 17.0938 35.3594
Q19.1406 33.6406 23.7344 32.5625
Q26.2656 31.9844 29.4062 31.3906
Q32.5625 30.8125 34.6719 30.3281
Q41.0625 28.8594 44.5312 25.2969
Q48 21.6875 48 15.7188" id="Verdana-73"/>
      <path d="
M55.5156 27.25
Q55.5156 13.9219 48.6719 6.20312
Q41.8438 -1.51562 30.375 -1.51562
Q18.7969 -1.51562 11.9844 6.20312
Q5.17188 13.9219 5.17188 27.25
Q5.17188 40.5781 11.9844 48.3125
Q18.7969 56.0625 30.375 56.0625
Q41.8438 56.0625 48.6719 48.3125
Q55.5156 40.5781 55.5156 27.25
M46.0469 27.25
Q46.0469 37.8438 41.8906 42.9844
Q37.75 48.1406 30.375 48.1406
Q22.9062 48.1406 18.7812 42.9844
Q14.6562 37.8438 14.6562 27.25
Q14.6562 17 18.7969 11.6875
Q22.9531 6.39062 30.375 6.39062
Q37.7031 6.39062 41.875 11.6406
Q46.0469 16.8906 46.0469 27.25" id="Verdana-6f"/>
      <path d="
M54.6875 26.3125
L14.5 26.3125
Q14.5 21.2969 16.0156 17.5469
Q17.5312 13.8125 20.1719 11.4219
Q22.7031 9.07812 26.1875 7.90625
Q29.6875 6.73438 33.8906 6.73438
Q39.4531 6.73438 45.0938 8.95312
Q50.7344 11.1875 53.125 13.3281
L53.6094 13.3281
L53.6094 3.32812
Q48.9688 1.375 44.1406 0.046875
Q39.3125 -1.26562 33.9844 -1.26562
Q20.4062 -1.26562 12.7812 6.07812
Q5.17188 13.4219 5.17188 26.9531
Q5.17188 40.3281 12.4688 48.1875
Q19.7812 56.0625 31.6875 56.0625
Q42.7188 56.0625 48.7031 49.6094
Q54.6875 43.1719 54.6875 31.2969
z

M45.75 33.3438
Q45.7031 40.5781 42.1094 44.5312
Q38.5312 48.4844 31.2031 48.4844
Q23.8281 48.4844 19.4531 44.1406
Q15.0938 39.7969 14.5 33.3438
z
" id="Verdana-65"/>
      <path d="
M54.25 0
L45.0625 0
L45.0625 6.0625
Q40.4375 2.39062 36.1875 0.4375
Q31.9375 -1.51562 26.8125 -1.51562
Q18.2188 -1.51562 13.4219 3.73438
Q8.64062 8.98438 8.64062 19.1406
L8.64062 54.5469
L17.8281 54.5469
L17.8281 23.4844
Q17.8281 19.3438 18.2188 16.375
Q18.6094 13.4219 19.875 11.3281
Q21.1875 9.1875 23.2812 8.20312
Q25.3906 7.23438 29.3906 7.23438
Q32.9531 7.23438 37.1719 9.07812
Q41.4062 10.9375 45.0625 13.8125
L45.0625 54.5469
L54.25 54.5469
z
" id="Verdana-75"/>
      <path d="
M49.3594 3.42188
Q44.7812 1.21875 40.6562 0
Q36.5312 -1.21875 31.8906 -1.21875
Q25.9844 -1.21875 21.0469 0.515625
Q16.1094 2.25 12.5938 5.76562
Q9.03125 9.28125 7.07812 14.6406
Q5.125 20.0156 5.125 27.2031
Q5.125 40.5781 12.4688 48.1875
Q19.8281 55.8125 31.8906 55.8125
Q36.5781 55.8125 41.0938 54.4844
Q45.6094 53.1719 49.3594 51.2656
L49.3594 41.0625
L48.875 41.0625
Q44.6719 44.3438 40.2031 46.0938
Q35.75 47.8594 31.5 47.8594
Q23.6875 47.8594 19.1719 42.6094
Q14.6562 37.3594 14.6562 27.2031
Q14.6562 17.3281 19.0625 12.0312
Q23.4844 6.73438 31.5 6.73438
Q34.2812 6.73438 37.1562 7.46875
Q40.0469 8.20312 42.3281 9.375
Q44.3438 10.4062 46.0938 11.5469
Q47.8594 12.7031 48.875 13.5312
L49.3594 13.5312
z
" id="Verdana-63"/>
      <path d="
M54.6406 0
L45.4531 0
L45.4531 31.0625
Q45.4531 34.8125 45.0156 38.1094
Q44.5781 41.4062 43.4062 43.2656
Q42.1875 45.3125 39.8906 46.3125
Q37.5938 47.3125 33.9375 47.3125
Q30.1719 47.3125 26.0625 45.4531
Q21.9688 43.6094 18.2188 40.7188
L18.2188 0
L9.03125 0
L9.03125 54.5469
L18.2188 54.5469
L18.2188 48.4844
Q22.5156 52.0469 27.0938 54.0469
Q31.6875 56.0625 36.5312 56.0625
Q45.3594 56.0625 50 50.7344
Q54.6406 45.4062 54.6406 35.4062
z
" id="Verdana-6e"/>
      <path d="
M37.3594 0.484375
Q34.7656 -0.203125 31.7031 -0.640625
Q28.6562 -1.07812 26.2656 -1.07812
Q17.9219 -1.07812 13.5781 3.40625
Q9.23438 7.90625 9.23438 17.8281
L9.23438 46.8281
L3.03125 46.8281
L3.03125 54.5469
L9.23438 54.5469
L9.23438 70.2188
L18.4062 70.2188
L18.4062 54.5469
L37.3594 54.5469
L37.3594 46.8281
L18.4062 46.8281
L18.4062 21.9688
Q18.4062 17.6719 18.5938 15.25
Q18.7969 12.8438 19.9688 10.75
Q21.0469 8.79688 22.9219 7.89062
Q24.8125 6.98438 28.6562 6.98438
Q30.9062 6.98438 33.3438 7.64062
Q35.7969 8.29688 36.8594 8.73438
L37.3594 8.73438
z
" id="Verdana-74"/>
      <path d="
M56.2031 54.5469
L34.125 0
L24.9062 0
L2.98438 54.5469
L12.9375 54.5469
L29.8281 11.1406
L46.5781 54.5469
z
" id="Verdana-76"/>
      <path d="
M56.25 0
L44.6719 0
L29.2031 20.9531
L13.625 0
L2.9375 0
L24.2188 27.2031
L3.125 54.5469
L14.7031 54.5469
L30.0781 33.9375
L45.5156 54.5469
L56.25 54.5469
L34.8125 27.6875
z
" id="Verdana-78"/>
     </defs>
     <g transform="translate(206.5078125 418.509375)scale(0.12 -0.12)">
      <use xlink:href="#Verdana-4f"/>
      <use x="78.7109375" xlink:href="#Verdana-62"/>
      <use x="141.015625" xlink:href="#Verdana-6a"/>
      <use x="175.439453125" xlink:href="#Verdana-65"/>
      <use x="235.009765625" xlink:href="#Verdana-63"/>
      <use x="287.109375" xlink:href="#Verdana-74"/>
      <use x="326.513671875" xlink:href="#Verdana-69"/>
      <use x="353.955078125" xlink:href="#Verdana-76"/>
      <use x="412.259765625" xlink:href="#Verdana-65"/>
      <use x="471.830078125" xlink:href="#Verdana-20"/>
      <use x="506.986328125" xlink:href="#Verdana-66"/>
      <use x="542.142578125" xlink:href="#Verdana-75"/>
      <use x="605.423828125" xlink:href="#Verdana-6e"/>
      <use x="668.705078125" xlink:href="#Verdana-63"/>
      <use x="720.8046875" xlink:href="#Verdana-74"/>
      <use x="760.208984375" xlink:href="#Verdana-69"/>
      <use x="787.650390625" xlink:href="#Verdana-6f"/>
      <use x="848.34375" xlink:href="#Verdana-6e"/>
      <use x="911.625" xlink:href="#Verdana-20"/>
      <use x="946.78125" xlink:href="#Verdana-65"/>
      <use x="1006.3515625" xlink:href="#Verdana-78"/>
      <use x="1064.40625" xlink:href="#Verdana-65"/>
      <use x="1123.9765625" xlink:href="#Verdana-63"/>
      <use x="1176.076171875" xlink:href="#Verdana-74"/>
      <use x="1215.48046875" xlink:href="#Verdana-75"/>
      <use x="1278.76171875" xlink:href="#Verdana-69"/>
      <use x="1306.203125" xlink:href="#Verdana-6f"/>
      <use x="1366.896484375" xlink:href="#Verdana-6e"/>
      <use x="1430.177734375" xlink:href="#Verdana-73"/>
     </g>
    </g>
   </g>
   <g id="matplotlib.axis_2">
    <g id="ytick_1">
     <g id="line2d_18">
      <defs>
       <path d="
M0 0
L4 0" id="md7965d1ba0" style="stroke:#000000;stroke-width:0.5;"/>
      </defs>
      <g>
       <use style="stroke:#000000;stroke-width:0.5;" x="72.0" xlink:href="#md7965d1ba0" y="388.8"/>
      </g>
     </g>
     <g id="line2d_19">
      <defs>
       <path d="
M0 0
L-4 0" id="md9a1c1a7cd" style="stroke:#000000;stroke-width:0.5;"/>
      </defs>
      <g>
       <use style="stroke:#000000;stroke-width:0.5;" x="518.4" xlink:href="#md9a1c1a7cd" y="388.8"/>
      </g>
     </g>
     <g id="text_8">
      <!-- 0.0 -->
      <defs>
       <path d="
M24.0312 0
L12.3594 0
L12.3594 13.9219
L24.0312 13.9219
z
" id="Verdana-2e"/>
      </defs>
      <g transform="translate(49.97 392.1515625)scale(0.12 -0.12)">
       <use xlink:href="#Verdana-30"/>
       <use x="63.57421875" xlink:href="#Verdana-2e"/>
       <use x="99.951171875" xlink:href="#Verdana-30"/>
      </g>
     </g>
    </g>
    <g id="ytick_2">
     <g id="line2d_20">
      <g>
       <use style="stroke:#000000;stroke-width:0.5;" x="72.0" xlink:href="#md7965d1ba0" y="319.68"/>
      </g>
     </g>
     <g id="line2d_21">
      <g>
       <use style="stroke:#000000;stroke-width:0.5;" x="518.4" xlink:href="#md9a1c1a7cd" y="319.68"/>
      </g>
     </g>
     <g id="text_9">
      <!-- 0.2 -->
      <g transform="translate(49.95875 323.0315625)scale(0.12 -0.12)">
       <use xlink:href="#Verdana-30"/>
       <use x="63.57421875" xlink:href="#Verdana-2e"/>
       <use x="99.951171875" xlink:href="#Verdana-32"/>
      </g>
     </g>
    </g>
    <g id="ytick_3">
     <g id="line2d_22">
      <g>
       <use style="stroke:#000000;stroke-width:0.5;" x="72.0" xlink:href="#md7965d1ba0" y="250.56"/>
      </g>
     </g>
     <g id="line2d_23">
      <g>
       <use style="stroke:#000000;stroke-width:0.5;" x="518.4" xlink:href="#md9a1c1a7cd" y="250.56"/>
      </g>
     </g>
     <g id="text_10">
      <!-- 0.4 -->
      <g transform="translate(49.76 253.9115625)scale(0.12 -0.12)">
       <use xlink:href="#Verdana-30"/>
       <use x="63.57421875" xlink:href="#Verdana-2e"/>
       <use x="99.951171875" xlink:href="#Verdana-34"/>
      </g>
     </g>
    </g>
    <g id="ytick_4">
     <g id="line2d_24">
      <g>
       <use style="stroke:#000000;stroke-width:0.5;" x="72.0" xlink:href="#md7965d1ba0" y="181.44"/>
      </g>
     </g>
     <g id="line2d_25">
      <g>
       <use style="stroke:#000000;stroke-width:0.5;" x="518.4" xlink:href="#md9a1c1a7cd" y="181.44"/>
      </g>
     </g>
     <g id="text_11">
      <!-- 0.6 -->
      <defs>
       <path d="
M58.1562 23.5781
Q58.1562 12.5 50.8594 5.48438
Q43.5625 -1.51562 32.9531 -1.51562
Q27.5938 -1.51562 23.1875 0.140625
Q18.7969 1.8125 15.4375 5.07812
Q11.2344 9.125 8.95312 15.8125
Q6.6875 22.5156 6.6875 31.9375
Q6.6875 41.6094 8.76562 49.0781
Q10.8438 56.5469 15.375 62.3594
Q19.6719 67.875 26.4531 70.9688
Q33.25 74.0781 42.2812 74.0781
Q45.1719 74.0781 47.125 73.8281
Q49.0781 73.5781 51.0781 72.9531
L51.0781 63.625
L50.5938 63.625
Q49.2188 64.3594 46.4531 65.0156
Q43.7031 65.6719 40.8281 65.6719
Q30.3281 65.6719 24.0781 59.1094
Q17.8281 52.5469 16.7969 41.3594
Q20.9062 43.8438 24.875 45.1406
Q28.8594 46.4375 34.0781 46.4375
Q38.7188 46.4375 42.25 45.5781
Q45.7969 44.7344 49.5156 42.1406
Q53.8125 39.1562 55.9844 34.6094
Q58.1562 30.0781 58.1562 23.5781
M48.25 23.1875
Q48.25 27.7344 46.9062 30.7031
Q45.5625 33.6875 42.4844 35.8906
Q40.2344 37.4531 37.5 37.9375
Q34.7656 38.4219 31.7812 38.4219
Q27.6406 38.4219 24.0781 37.4375
Q20.5156 36.4688 16.75 34.4219
Q16.6562 33.3438 16.5938 32.3438
Q16.5469 31.3438 16.5469 29.8281
Q16.5469 22.125 18.1406 17.6562
Q19.7344 13.1875 22.5156 10.5938
Q24.75 8.45312 27.3594 7.45312
Q29.9844 6.45312 33.0625 6.45312
Q40.1406 6.45312 44.1875 10.7656
Q48.25 15.0938 48.25 23.1875" id="Verdana-36"/>
      </defs>
      <g transform="translate(49.829375 184.7915625)scale(0.12 -0.12)">
       <use xlink:href="#Verdana-30"/>
       <use x="63.57421875" xlink:href="#Verdana-2e"/>
       <use x="99.951171875" xlink:href="#Verdana-36"/>
      </g>
     </g>
    </g>
    <g id="ytick_5">
     <g id="line2d_26">
      <g>
       <use style="stroke:#000000;stroke-width:0.5;" x="72.0" xlink:href="#md7965d1ba0" y="112.32"/>
      </g>
     </g>
     <g id="line2d_27">
      <g>
       <use style="stroke:#000000;stroke-width:0.5;" x="518.4" xlink:href="#md9a1c1a7cd" y="112.32"/>
      </g>
     </g>
     <g id="text_12">
      <!-- 0.8 -->
      <defs>
       <path d="
M57.625 20.2656
Q57.625 10.8438 50.2656 4.59375
Q42.9219 -1.65625 31.7812 -1.65625
Q19.9688 -1.65625 12.9531 4.4375
Q5.95312 10.5469 5.95312 20.0625
Q5.95312 26.125 9.46875 31.0312
Q12.9844 35.9375 19.3906 38.8125
L19.3906 39.1094
Q13.5312 42.2344 10.7188 45.9375
Q7.90625 49.6562 7.90625 55.2188
Q7.90625 63.4219 14.6406 68.8906
Q21.3906 74.3594 31.7812 74.3594
Q42.6719 74.3594 49.1719 69.1406
Q55.6719 63.9219 55.6719 55.8594
Q55.6719 50.9219 52.5938 46.1562
Q49.5156 41.4062 43.5625 38.7188
L43.5625 38.4219
Q50.3906 35.5 54 31.2031
Q57.625 26.9062 57.625 20.2656
M46.0469 55.7656
Q46.0469 60.9844 42.0156 64.0781
Q37.9844 67.1875 31.7344 67.1875
Q25.5938 67.1875 21.6562 64.25
Q17.7188 61.3281 17.7188 56.3438
Q17.7188 52.8281 19.7031 50.2656
Q21.6875 47.7031 25.6875 45.7031
Q27.4844 44.8281 30.875 43.4062
Q34.2812 42 37.5 41.0625
Q42.3281 44.2812 44.1875 47.75
Q46.0469 51.2188 46.0469 55.7656
M47.5625 19.3438
Q47.5625 23.8281 45.5781 26.5312
Q43.6094 29.25 37.8438 31.9844
Q35.5469 33.0625 32.8125 33.9844
Q30.0781 34.9062 25.5312 36.5781
Q21.1406 34.1875 18.4844 30.0781
Q15.8281 25.9844 15.8281 20.7969
Q15.8281 14.2031 20.3594 9.90625
Q24.9062 5.60938 31.8906 5.60938
Q39.0156 5.60938 43.2812 9.26562
Q47.5625 12.9375 47.5625 19.3438" id="Verdana-38"/>
      </defs>
      <g transform="translate(49.893125 115.6715625)scale(0.12 -0.12)">
       <use xlink:href="#Verdana-30"/>
       <use x="63.57421875" xlink:href="#Verdana-2e"/>
       <use x="99.951171875" xlink:href="#Verdana-38"/>
      </g>
     </g>
    </g>
    <g id="ytick_6">
     <g id="line2d_28">
      <g>
       <use style="stroke:#000000;stroke-width:0.5;" x="72.0" xlink:href="#md7965d1ba0" y="43.2"/>
      </g>
     </g>
     <g id="line2d_29">
      <g>
       <use style="stroke:#000000;stroke-width:0.5;" x="518.4" xlink:href="#md9a1c1a7cd" y="43.2"/>
      </g>
     </g>
     <g id="text_13">
      <!-- 1.0 -->
      <g transform="translate(50.796875 46.5515625)scale(0.12 -0.12)">
       <use xlink:href="#Verdana-31"/>
       <use x="63.57421875" xlink:href="#Verdana-2e"/>
       <use x="99.951171875" xlink:href="#Verdana-30"/>
      </g>
     </g>
    </g>
    <g id="text_14">
     <!-- Rank 0 Probability -->
     <defs>
      <path d="
M56.2031 54.5469
L24.3594 -20.125
L14.5469 -20.125
L24.7031 2.64062
L2.98438 54.5469
L12.9375 54.5469
L29.6875 14.1094
L46.5781 54.5469
z
" id="Verdana-79"/>
      <path d="
M69.9219 0
L57.375 0
L33.0625 28.9062
L19.4375 28.9062
L19.4375 0
L9.76562 0
L9.76562 72.7031
L30.125 72.7031
Q36.7188 72.7031 41.1094 71.8438
Q45.5156 71 49.0312 68.7969
Q52.9844 66.3125 55.2031 62.5156
Q57.4219 58.7344 57.4219 52.9375
Q57.4219 45.0625 53.4688 39.7656
Q49.5156 34.4688 42.5781 31.7812
z

M47.3125 52.25
Q47.3125 55.375 46.2188 57.7812
Q45.125 60.2031 42.5781 61.8594
Q40.4844 63.2812 37.5938 63.8438
Q34.7188 64.4062 30.8125 64.4062
L19.4375 64.4062
L19.4375 36.9688
L29.2031 36.9688
Q33.7969 36.9688 37.2031 37.7656
Q40.625 38.5781 43.0156 40.7656
Q45.2188 42.8281 46.2656 45.4844
Q47.3125 48.1406 47.3125 52.25" id="Verdana-52"/>
      <path d="
M51.4219 0
L42.2812 0
L42.2812 5.8125
Q41.0625 4.98438 38.9844 3.48438
Q36.9219 2 34.9688 1.125
Q32.6719 0 29.6875 -0.75
Q26.7031 -1.51562 22.7031 -1.51562
Q15.3281 -1.51562 10.2031 3.35938
Q5.07812 8.25 5.07812 15.8281
Q5.07812 22.0156 7.73438 25.8438
Q10.4062 29.6875 15.3281 31.8906
Q20.3125 34.0781 27.2969 34.8594
Q34.2812 35.6406 42.2812 36.0312
L42.2812 37.4531
Q42.2812 40.5781 41.1875 42.625
Q40.0938 44.6719 38.0312 45.8438
Q36.0781 46.9688 33.3438 47.3594
Q30.6094 47.75 27.6406 47.75
Q24.0312 47.75 19.5781 46.7969
Q15.1406 45.8438 10.4062 44.0469
L9.90625 44.0469
L9.90625 53.375
Q12.5938 54.1094 17.6719 54.9844
Q22.75 55.8594 27.6875 55.8594
Q33.4531 55.8594 37.7188 54.9062
Q42 53.9531 45.125 51.6562
Q48.1875 49.4219 49.7969 45.8438
Q51.4219 42.2812 51.4219 37.0156
z

M42.2812 13.4219
L42.2812 28.6094
Q38.0938 28.375 32.3906 27.875
Q26.7031 27.3906 23.3906 26.4688
Q19.4375 25.3438 16.9844 22.9688
Q14.5469 20.6094 14.5469 16.4531
Q14.5469 11.7656 17.375 9.39062
Q20.2188 7.03125 26.0312 7.03125
Q30.8594 7.03125 34.8594 8.90625
Q38.875 10.7969 42.2812 13.4219" id="Verdana-61"/>
      <path d="
M57.3281 50.7344
Q57.3281 45.9062 55.6406 41.7656
Q53.9531 37.6406 50.9219 34.625
Q47.1719 30.8594 42.0469 28.9688
Q36.9219 27.0938 29.1094 27.0938
L19.4375 27.0938
L19.4375 0
L9.76562 0
L9.76562 72.7031
L29.5 72.7031
Q36.0312 72.7031 40.5781 71.6094
Q45.125 70.5156 48.6406 68.1719
Q52.7812 65.375 55.0469 61.2188
Q57.3281 57.0781 57.3281 50.7344
M47.2656 50.4844
Q47.2656 54.25 45.9375 57.0312
Q44.625 59.8125 41.9375 61.5781
Q39.5938 63.0938 36.5938 63.75
Q33.5938 64.4062 29 64.4062
L19.4375 64.4062
L19.4375 35.3594
L27.5938 35.3594
Q33.4531 35.3594 37.1094 36.4062
Q40.7656 37.4531 43.0625 39.75
Q45.3594 42.0938 46.3125 44.6719
Q47.2656 47.2656 47.2656 50.4844" id="Verdana-50"/>
      <path d="
M18.3125 0
L9.125 0
L9.125 75.9844
L18.3125 75.9844
z
" id="Verdana-6c"/>
      <path d="
M58.5469 0
L46.4375 0
L24.5625 23.875
L18.6094 18.2188
L18.6094 0
L9.42188 0
L9.42188 75.9844
L18.6094 75.9844
L18.6094 27.25
L45.125 54.5469
L56.6875 54.5469
L31.3438 29.3438
z
" id="Verdana-6b"/>
      <path d="
M43.0625 44.5312
L42.5781 44.5312
Q40.5312 45.0156 38.5938 45.2344
Q36.6719 45.4531 34.0312 45.4531
Q29.7812 45.4531 25.8281 43.5781
Q21.875 41.7031 18.2188 38.7188
L18.2188 0
L9.03125 0
L9.03125 54.5469
L18.2188 54.5469
L18.2188 46.4844
Q23.6875 50.875 27.8594 52.7031
Q32.0312 54.5469 36.375 54.5469
Q38.7656 54.5469 39.8438 54.4219
Q40.9219 54.2969 43.0625 53.9531
z
" id="Verdana-72"/>
     </defs>
     <g transform="translate(42.345 270.583125)rotate(-90.0)scale(0.12 -0.12)">
      <use xlink:href="#Verdana-52"/>
      <use x="67.53125" xlink:href="#Verdana-61"/>
      <use x="127.58984375" xlink:href="#Verdana-6e"/>
      <use x="190.87109375" xlink:href="#Verdana-6b"/>
      <use x="250.05078125" xlink:href="#Verdana-20"/>
      <use x="285.20703125" xlink:href="#Verdana-30"/>
      <use x="348.78125" xlink:href="#Verdana-20"/>
      <use x="383.9375" xlink:href="#Verdana-50"/>
      <use x="444.240234375" xlink:href="#Verdana-72"/>
      <use x="486.916015625" xlink:href="#Verdana-6f"/>
      <use x="547.609375" xlink:href="#Verdana-62"/>
      <use x="609.9140625" xlink:href="#Verdana-61"/>
      <use x="669.97265625" xlink:href="#Verdana-62"/>
      <use x="732.27734375" xlink:href="#Verdana-69"/>
      <use x="759.71875" xlink:href="#Verdana-6c"/>
      <use x="787.16015625" xlink:href="#Verdana-69"/>
      <use x="814.6015625" xlink:href="#Verdana-74"/>
      <use x="853.505859375" xlink:href="#Verdana-79"/>
     </g>
    </g>
   </g>
   <g id="patch_3">
    <path d="
M518.4 388.8
L518.4 43.2" style="fill:none;stroke:#000000;"/>
   </g>
   <g id="patch_4">
    <path d="
M72 43.2
L518.4 43.2" style="fill:none;stroke:#000000;"/>
   </g>
   <g id="patch_5">
    <path d="
M72 388.8
L518.4 388.8" style="fill:none;stroke:#000000;"/>
   </g>
   <g id="patch_6">
    <path d="
M72 388.8
L72 43.2" style="fill:none;stroke:#000000;"/>
   </g>
   <g id="text_15">
    <!-- Penalty01 Rank 0 Probability -->
    <g transform="translate(191.64375 38.2)scale(0.144 -0.144)">
     <use xlink:href="#Verdana-50"/>
     <use x="57.802734375" xlink:href="#Verdana-65"/>
     <use x="117.373046875" xlink:href="#Verdana-6e"/>
     <use x="180.654296875" xlink:href="#Verdana-61"/>
     <use x="240.712890625" xlink:href="#Verdana-6c"/>
     <use x="268.154296875" xlink:href="#Verdana-74"/>
     <use x="307.05859375" xlink:href="#Verdana-79"/>
     <use x="366.23828125" xlink:href="#Verdana-30"/>
     <use x="429.8125" xlink:href="#Verdana-31"/>
     <use x="493.38671875" xlink:href="#Verdana-20"/>
     <use x="528.54296875" xlink:href="#Verdana-52"/>
     <use x="596.07421875" xlink:href="#Verdana-61"/>
     <use x="656.1328125" xlink:href="#Verdana-6e"/>
     <use x="719.4140625" xlink:href="#Verdana-6b"/>
     <use x="778.59375" xlink:href="#Verdana-20"/>
     <use x="813.75" xlink:href="#Verdana-30"/>
     <use x="877.32421875" xlink:href="#Verdana-20"/>
     <use x="912.48046875" xlink:href="#Verdana-50"/>
     <use x="972.783203125" xlink:href="#Verdana-72"/>
     <use x="1015.458984375" xlink:href="#Verdana-6f"/>
     <use x="1076.15234375" xlink:href="#Verdana-62"/>
     <use x="1138.45703125" xlink:href="#Verdana-61"/>
     <use x="1198.515625" xlink:href="#Verdana-62"/>
     <use x="1260.8203125" xlink:href="#Verdana-69"/>
     <use x="1288.26171875" xlink:href="#Verdana-6c"/>
     <use x="1315.703125" xlink:href="#Verdana-69"/>
     <use x="1343.14453125" xlink:href="#Verdana-74"/>
     <use x="1382.048828125" xlink:href="#Verdana-79"/>
    </g>
   </g>
   <g id="legend_1">
    <g id="patch_7">
     <path d="
M407.18 159.919
L511.2 159.919
L511.2 50.4
L407.18 50.4
L407.18 159.919
z
" style="fill:#ffffff;stroke:#000000;"/>
    </g>
    <g id="line2d_30">
     <path d="
M417.26 62.0617
L437.42 62.0617" style="fill:none;stroke:#0000ff;stroke-dasharray:6.000000,2.000000;stroke-dashoffset:0.0;"/>
    </g>
    <g id="line2d_31"/>
    <g id="text_16">
     <!-- AMPGO -->
     <defs>
      <path d="
M74.5156 0
L64.8438 0
L64.8438 62.6406
L44.625 20.0156
L38.875 20.0156
L18.7969 62.6406
L18.7969 0
L9.76562 0
L9.76562 72.7031
L22.9531 72.7031
L42.3281 32.2344
L61.0781 72.7031
L74.5156 72.7031
z
" id="Verdana-4d"/>
      <path d="
M67.0938 0
L56.7812 0
L49.6562 20.2656
L18.2188 20.2656
L11.0781 0
L1.26562 0
L27.7344 72.7031
L40.625 72.7031
z

M46.6875 28.5625
L33.9375 64.2656
L21.1406 28.5625
z
" id="Verdana-41"/>
      <path d="
M70.4062 5.375
Q64.4531 2.64062 57.3906 0.609375
Q50.3438 -1.42188 43.75 -1.42188
Q35.25 -1.42188 28.1719 0.921875
Q21.0938 3.26562 16.1094 7.95312
Q11.0781 12.7031 8.34375 19.7969
Q5.60938 26.9062 5.60938 36.4219
Q5.60938 53.8594 15.7969 63.9375
Q25.9844 74.0312 43.75 74.0312
Q49.9531 74.0312 56.4219 72.5312
Q62.8906 71.0469 70.3594 67.4844
L70.3594 56
L69.4844 56
Q67.9688 57.1719 65.0781 59.0781
Q62.2031 60.9844 59.4219 62.25
Q56.0625 63.7656 51.7812 64.7656
Q47.5156 65.7656 42.0938 65.7656
Q29.8906 65.7656 22.7812 57.9219
Q15.6719 50.0938 15.6719 36.7188
Q15.6719 22.6094 23.0938 14.7656
Q30.5156 6.9375 43.3125 6.9375
Q48 6.9375 52.6562 7.85938
Q57.3281 8.79688 60.8438 10.25
L60.8438 28.0781
L41.3594 28.0781
L41.3594 36.5781
L70.4062 36.5781
z
" id="Verdana-47"/>
     </defs>
     <g transform="translate(453.26025 67.10175)scale(0.144 -0.144)">
      <use xlink:href="#Verdana-41"/>
      <use x="68.359375" xlink:href="#Verdana-4d"/>
      <use x="152.63671875" xlink:href="#Verdana-50"/>
      <use x="212.939453125" xlink:href="#Verdana-47"/>
      <use x="290.478515625" xlink:href="#Verdana-4f"/>
     </g>
    </g>
    <g id="line2d_32">
     <path d="
M417.26 83.1015
L437.42 83.1015" style="fill:none;stroke:#008000;stroke-dasharray:1.000000,1.000000;stroke-dashoffset:0.0;"/>
    </g>
    <g id="line2d_33"/>
    <g id="text_17">
     <!-- Anneal -->
     <g transform="translate(453.26025 88.1415)scale(0.144 -0.144)">
      <use xlink:href="#Verdana-41"/>
      <use x="68.359375" xlink:href="#Verdana-6e"/>
      <use x="131.640625" xlink:href="#Verdana-6e"/>
      <use x="194.921875" xlink:href="#Verdana-65"/>
      <use x="254.4921875" xlink:href="#Verdana-61"/>
      <use x="314.55078125" xlink:href="#Verdana-6c"/>
     </g>
    </g>
    <g id="line2d_34">
     <path d="
M417.26 104.141
L437.42 104.141" style="fill:none;stroke:#ff0000;stroke-dasharray:3.000000,6.000000;stroke-dashoffset:0.0;"/>
    </g>
    <g id="line2d_35"/>
    <g id="text_18">
     <!-- BSA -->
     <defs>
      <path d="
M62.5938 20.75
Q62.5938 16.5 60.6094 12.3438
Q58.6406 8.20312 55.0781 5.32812
Q51.1719 2.20312 45.9688 0.4375
Q40.7656 -1.3125 33.4531 -1.3125
Q25.5938 -1.3125 19.3125 0.140625
Q13.0312 1.60938 6.54688 4.5
L6.54688 16.6094
L7.23438 16.6094
Q12.75 12.0156 19.9688 9.51562
Q27.2031 7.03125 33.5469 7.03125
Q42.5312 7.03125 47.5312 10.3906
Q52.5469 13.7656 52.5469 19.3906
Q52.5469 24.2188 50.1719 26.5156
Q47.7969 28.8125 42.9688 30.0781
Q39.3125 31.0625 35.0312 31.6875
Q30.7656 32.3281 25.9844 33.2969
Q16.3125 35.3594 11.6406 40.3125
Q6.98438 45.2656 6.98438 53.2188
Q6.98438 62.3594 14.6875 68.1875
Q22.4062 74.0312 34.2812 74.0312
Q41.9375 74.0312 48.3281 72.5625
Q54.7344 71.0938 59.6719 68.9531
L59.6719 57.5156
L58.9844 57.5156
Q54.8281 61.0312 48.0625 63.3438
Q41.3125 65.6719 34.2344 65.6719
Q26.4688 65.6719 21.75 62.4531
Q17.0469 59.2344 17.0469 54.1562
Q17.0469 49.6094 19.3906 47.0156
Q21.7344 44.4375 27.6406 43.0625
Q30.7656 42.3906 36.5156 41.4062
Q42.2812 40.4375 46.2969 39.4062
Q54.3906 37.25 58.4844 32.9062
Q62.5938 28.5625 62.5938 20.75" id="Verdana-53"/>
      <path d="
M64.5938 22.3594
Q64.5938 16.9375 62.5469 12.7812
Q60.5 8.64062 57.0312 5.95312
Q52.9375 2.73438 48.0156 1.35938
Q43.1094 0 35.5469 0
L9.76562 0
L9.76562 72.7031
L31.2969 72.7031
Q39.2656 72.7031 43.2188 72.1094
Q47.1719 71.5312 50.7812 69.6719
Q54.7812 67.5781 56.5938 64.2812
Q58.4062 60.9844 58.4062 56.3906
Q58.4062 51.2188 55.7656 47.5781
Q53.125 43.9531 48.7344 41.75
L48.7344 41.3594
Q56.1094 39.8438 60.3438 34.8906
Q64.5938 29.9375 64.5938 22.3594
M48.3438 55.125
Q48.3438 57.7656 47.4531 59.5625
Q46.5781 61.375 44.625 62.5
Q42.3281 63.8125 39.0625 64.125
Q35.7969 64.4531 30.9531 64.4531
L19.4375 64.4531
L19.4375 43.4531
L31.9375 43.4531
Q36.4688 43.4531 39.1562 43.9219
Q41.8438 44.3906 44.1406 45.8438
Q46.4375 47.3125 47.3906 49.625
Q48.3438 51.9531 48.3438 55.125
M54.5469 21.9688
Q54.5469 26.375 53.2188 28.9531
Q51.9062 31.5469 48.4375 33.3438
Q46.0938 34.5781 42.75 34.9375
Q39.4062 35.2969 34.625 35.2969
L19.4375 35.2969
L19.4375 8.25
L32.2344 8.25
Q38.5781 8.25 42.625 8.90625
Q46.6875 9.57812 49.2656 11.3281
Q52 13.2344 53.2656 15.6719
Q54.5469 18.1094 54.5469 21.9688" id="Verdana-42"/>
     </defs>
     <g transform="translate(453.26025 109.18125)scale(0.144 -0.144)">
      <use xlink:href="#Verdana-42"/>
      <use x="68.5546875" xlink:href="#Verdana-53"/>
      <use x="135.9140625" xlink:href="#Verdana-41"/>
     </g>
    </g>
    <g id="line2d_36">
     <path d="
M417.26 125.181
L437.42 125.181" style="fill:none;stroke:#00bfbf;stroke-dasharray:5.000000,1.000000,2.000000,1.000000,5.000000,1.000000;stroke-dashoffset:0.0;"/>
    </g>
    <g id="line2d_37"/>
    <g id="text_19">
     <!-- Cuckoo -->
     <defs>
      <path d="
M65.9219 5.28125
Q63.2344 4.10938 61.0625 3.07812
Q58.8906 2.04688 55.375 0.921875
Q52.3906 0 48.8906 -0.65625
Q45.4062 -1.3125 41.2188 -1.3125
Q33.2969 -1.3125 26.8281 0.90625
Q20.3594 3.125 15.5781 7.85938
Q10.8906 12.5 8.25 19.6562
Q5.60938 26.8125 5.60938 36.2812
Q5.60938 45.2656 8.14062 52.3438
Q10.6875 59.4219 15.4844 64.3125
Q20.125 69.0469 26.6875 71.5312
Q33.25 74.0312 41.2656 74.0312
Q47.125 74.0312 52.9531 72.6094
Q58.7969 71.1875 65.9219 67.625
L65.9219 56.1562
L65.1875 56.1562
Q59.1875 61.1875 53.2656 63.4688
Q47.3594 65.7656 40.625 65.7656
Q35.1094 65.7656 30.6875 63.9844
Q26.2656 62.2031 22.7969 58.4531
Q19.4375 54.7812 17.5469 49.1875
Q15.6719 43.6094 15.6719 36.2812
Q15.6719 28.6094 17.75 23.0938
Q19.8281 17.5781 23.0938 14.1094
Q26.5156 10.5 31.0781 8.76562
Q35.6406 7.03125 40.7188 7.03125
Q47.7031 7.03125 53.7969 9.42188
Q59.9062 11.8125 65.2344 16.6094
L65.9219 16.6094
z
" id="Verdana-43"/>
     </defs>
     <g transform="translate(453.26025 130.221)scale(0.144 -0.144)">
      <use xlink:href="#Verdana-43"/>
      <use x="69.82421875" xlink:href="#Verdana-75"/>
      <use x="133.10546875" xlink:href="#Verdana-63"/>
      <use x="185.205078125" xlink:href="#Verdana-6b"/>
      <use x="243.384765625" xlink:href="#Verdana-6f"/>
      <use x="304.078125" xlink:href="#Verdana-6f"/>
     </g>
    </g>
    <g id="line2d_38">
     <path d="
M417.26 146.221
L437.42 146.221" style="fill:none;stroke:#bf00bf;stroke-linecap:square;"/>
    </g>
    <g id="line2d_39"/>
    <g id="text_20">
     <!-- qABC -->
     <defs>
      <path d="
M53.2656 -20.125
L44.0938 -20.125
L44.0938 6.15625
Q39.8438 2.48438 35.6406 0.703125
Q31.4531 -1.07812 26.5625 -1.07812
Q16.8438 -1.07812 11.0625 6.42188
Q5.28125 13.9219 5.28125 27.0938
Q5.28125 34.125 7.29688 39.5156
Q9.32812 44.9219 12.6406 48.5781
Q15.875 52.1562 20.2188 54.1094
Q24.5625 56.0625 29.3906 56.0625
Q33.7969 56.0625 37.1875 55.0781
Q40.5781 54.1094 44.0938 52.2031
L44.6719 54.5469
L53.2656 54.5469
z

M44.0938 13.875
L44.0938 44.7344
Q40.2812 46.4375 37.3438 47.1094
Q34.4219 47.7969 31 47.7969
Q23.0469 47.7969 18.8906 42.4062
Q14.75 37.0156 14.75 27.5469
Q14.75 17.9688 18.0938 12.8125
Q21.4375 7.67188 28.6094 7.67188
Q32.625 7.67188 36.625 9.40625
Q40.625 11.1406 44.0938 13.875" id="Verdana-71"/>
     </defs>
     <g transform="translate(453.26025 151.26075)scale(0.144 -0.144)">
      <use xlink:href="#Verdana-71"/>
      <use x="62.3046875" xlink:href="#Verdana-41"/>
      <use x="130.6640625" xlink:href="#Verdana-42"/>
      <use x="199.21875" xlink:href="#Verdana-43"/>
     </g>
    </g>
   </g>
  </g>
 </g>
 <defs>
  <clipPath id="p7ff5b81e1d">
   <rect height="345.6" width="446.4" x="72.0" y="43.2"/>
  </clipPath>
 </defs>
</svg>
