<?xml version="1.0" encoding="utf-8" standalone="no"?>
<!DOCTYPE svg PUBLIC "-//W3C//DTD SVG 1.1//EN"
  "http://www.w3.org/Graphics/SVG/1.1/DTD/svg11.dtd">
<!-- Created with matplotlib (http://matplotlib.org/) -->
<svg height="432pt" version="1.1" viewBox="0 0 576 432" width="576pt" xmlns="http://www.w3.org/2000/svg" xmlns:xlink="http://www.w3.org/1999/xlink">
 <defs>
  <style type="text/css">
*{stroke-linecap:butt;stroke-linejoin:round;}
  </style>
 </defs>
 <g id="figure_1">
  <g id="patch_1">
   <path d="
M0 432
L576 432
L576 0
L0 0
z
" style="fill:#ffffff;"/>
  </g>
  <g id="axes_1">
   <g id="patch_2">
    <path d="
M72 388.8
L518.4 388.8
L518.4 43.2
L72 43.2
z
" style="fill:#ffffff;"/>
   </g>
   <g id="line2d_1">
    <path clip-path="url(#p7ff5b81e1d)" d="
M72 388.516
L72.0893 388.8
L72.1786 388.8
L89.4989 388.8
L89.6774 388.516
L133.246 388.516
L133.425 388.233
L150.745 388.233
L150.924 387.666
L159.494 387.666
L159.673 385.681
L168.244 385.681
L168.422 376.042
L176.993 376.042
L177.172 166.811
L185.743 166.811
L185.921 43.2
L518.311 43.2
L518.311 43.2" style="fill:none;stroke:#0000ff;stroke-dasharray:6.000000,2.000000;stroke-dashoffset:0.0;"/>
   </g>
   <g id="line2d_2">
    <path clip-path="url(#p7ff5b81e1d)" d="
M72 388.8
L193.599 388.8
L193.778 388.52
L198.063 388.52
L198.242 388.24
L201.367 388.24
L201.545 387.96
L202.795 387.96
L202.974 387.681
L203.152 387.681
L203.331 387.401
L204.759 387.401
L204.938 387.121
L206.456 387.121
L206.634 386.841
L207.17 386.841
L207.348 386.281
L207.438 386.281
L207.616 386.002
L207.706 386.002
L207.884 385.722
L208.42 385.722
L208.688 385.162
L209.58 385.162
L209.759 384.882
L211.098 384.882
L211.455 384.043
L211.723 384.043
L211.902 383.763
L212.17 383.763
L212.437 383.203
L212.705 383.203
L212.884 382.644
L214.402 382.644
L214.58 382.364
L215.116 382.364
L215.384 381.804
L215.83 381.804
L216.009 381.524
L216.544 381.524
L216.723 381.244
L217.08 381.244
L217.437 380.405
L217.526 380.405
L217.705 380.125
L217.794 380.125
L218.062 379.006
L218.241 378.446
L218.508 378.446
L218.687 378.166
L218.866 378.166
L219.044 377.886
L219.401 377.886
L219.58 377.047
L219.758 377.047
L219.937 376.207
L220.383 376.207
L220.562 375.648
L220.83 375.088
L221.008 375.088
L221.455 373.969
L221.544 373.969
L222.08 372.29
L222.258 371.45
L222.437 371.17
L222.526 371.17
L222.794 370.611
L222.883 370.611
L223.062 370.331
L223.955 370.331
L224.133 369.491
L224.312 369.491
L224.49 369.211
L224.58 369.211
L225.026 368.092
L225.204 368.372
L225.294 368.372
L225.472 367.812
L225.651 366.973
L225.829 366.973
L226.187 365.014
L226.365 365.014
L227.258 362.495
L227.436 362.495
L227.972 361.096
L228.151 361.096
L228.329 360.257
L228.508 359.417
L228.865 358.577
L228.954 358.577
L229.133 358.298
L229.222 358.298
L229.847 356.619
L229.936 356.619
L230.115 355.779
L230.293 355.219
L230.472 354.94
L230.561 354.94
L230.918 354.1
L231.097 352.421
L231.633 351.022
L231.811 351.022
L232.079 349.903
L232.258 349.623
L232.347 349.623
L232.615 349.063
L232.972 349.063
L233.329 347.664
L233.508 347.104
L233.686 347.104
L233.865 346.265
L233.954 346.265
L234.132 345.425
L234.222 345.425
L234.936 343.466
L235.561 343.466
L236.097 342.067
L236.186 342.067
L236.632 340.948
L236.722 340.948
L236.989 340.388
L237.079 340.388
L237.257 339.549
L237.436 339.269
L237.525 339.269
L237.704 338.989
L237.793 338.989
L238.15 338.149
L238.329 338.149
L238.507 337.59
L238.596 337.59
L239.489 335.071
L239.579 335.071
L239.846 334.511
L240.025 334.511
L240.204 333.392
L240.471 332.273
L240.561 332.273
L240.828 330.594
L241.543 328.075
L241.9 326.396
L241.989 326.396
L242.436 325.277
L242.525 325.277
L242.793 324.717
L242.882 324.717
L243.15 324.157
L243.239 324.157
L243.418 323.038
L243.596 322.758
L243.953 322.758
L244.043 322.478
L244.221 321.639
L245.471 317.441
L246.275 312.964
L246.632 312.124
L246.81 312.124
L246.9 311.845
L247.078 310.445
L247.257 310.166
L247.435 310.166
L247.614 309.606
L248.864 305.688
L249.132 304.009
L249.221 304.009
L249.667 302.89
L249.756 302.89
L249.935 302.33
L250.114 302.05
L250.203 302.05
L250.56 300.091
L250.739 300.091
L251.542 297.573
L251.721 296.453
L251.988 295.894
L252.167 295.894
L252.346 295.054
L252.435 295.054
L253.06 291.416
L253.149 291.416
L253.328 290.577
L253.506 289.737
L253.596 289.737
L254.131 288.338
L254.22 288.338
L254.31 288.058
L254.488 286.939
L255.024 284.98
L255.381 283.301
L255.47 283.301
L255.738 281.622
L255.828 281.342
L256.185 278.824
L257.256 275.745
L257.435 274.626
L257.702 273.507
L257.97 272.108
L258.06 272.108
L258.506 270.988
L258.595 270.988
L258.952 270.149
L259.042 270.149
L259.131 269.869
L259.309 268.47
L259.577 267.35
L259.667 267.07
L259.845 265.951
L259.934 265.951
L260.113 264.832
L260.202 264.832
L260.381 263.992
L261.095 262.033
L261.184 262.033
L261.541 260.354
L261.988 258.955
L262.166 257.836
L262.345 257.556
L262.434 257.556
L262.881 255.877
L263.059 255.317
L263.595 253.918
L263.684 253.918
L264.309 250.56
L265.202 248.041
L265.38 246.642
L265.648 245.523
L266.72 239.366
L266.809 239.366
L266.988 239.087
L267.077 239.087
L267.612 236.288
L267.88 235.449
L268.059 234.329
L268.773 231.811
L269.13 229.852
L269.487 229.852
L269.755 229.292
L269.844 229.292
L270.112 228.173
L270.648 226.774
L270.737 226.774
L270.916 226.214
L271.094 225.095
L271.273 224.815
L271.362 224.815
L271.541 223.696
L271.987 222.576
L272.166 222.576
L272.255 222.296
L272.434 220.897
L272.523 220.897
L272.969 219.218
L273.148 218.379
L273.594 217.259
L273.684 217.259
L274.308 215.58
L274.398 215.58
L274.844 214.461
L274.933 214.461
L275.112 213.621
L275.201 213.621
L275.648 211.383
L275.826 211.383
L276.094 210.823
L276.183 210.823
L276.451 208.864
L276.54 208.864
L276.719 208.304
L276.898 206.905
L276.987 206.905
L277.165 205.506
L277.255 205.506
L277.701 203.827
L278.326 200.469
L278.505 200.189
L278.683 200.189
L278.951 199.07
L279.04 199.07
L279.219 198.51
L279.487 197.391
L279.755 195.432
L279.844 195.432
L280.022 195.152
L280.112 195.152
L280.38 194.313
L280.558 193.193
L280.647 193.193
L281.183 191.234
L281.362 190.395
L281.629 190.395
L282.165 188.996
L282.254 188.996
L282.879 185.358
L282.969 185.358
L283.861 182.839
L283.951 182.839
L284.129 181.72
L284.308 181.72
L284.576 181.16
L284.665 181.16
L285.111 179.481
L285.29 178.642
L285.468 178.642
L285.647 176.403
L285.915 176.403
L287.076 173.045
L287.165 173.045
L288.236 169.967
L288.415 169.967
L288.683 169.407
L288.861 169.407
L289.575 167.168
L289.843 165.209
L289.932 165.209
L290.111 164.65
L290.2 164.65
L290.379 164.37
L290.468 164.37
L291.45 161.571
L291.807 161.571
L291.986 161.292
L292.075 161.292
L292.254 160.732
L292.522 159.053
L292.7 159.053
L293.057 158.213
L293.147 158.213
L293.593 156.814
L293.861 155.135
L293.95 155.135
L294.129 154.296
L294.396 153.736
L294.486 153.736
L294.664 152.617
L294.754 152.617
L295.111 151.777
L295.2 151.777
L295.736 150.378
L295.825 150.378
L297.432 145.621
L297.521 145.621
L297.7 145.341
L297.968 145.341
L298.146 145.061
L298.236 145.061
L298.503 144.501
L298.593 144.501
L298.682 144.222
L298.86 143.382
L299.039 143.382
L299.307 142.822
L299.396 142.822
L299.575 142.543
L299.664 142.543
L299.753 142.263
L299.932 141.423
L300.021 141.423
L300.2 140.024
L300.378 139.464
L300.468 139.184
L300.646 137.785
L300.914 137.785
L301.092 137.505
L301.271 137.505
L301.985 135.547
L302.164 135.547
L302.342 135.267
L302.521 135.267
L302.7 134.427
L302.878 133.868
L302.967 133.868
L304.217 130.23
L304.396 130.23
L304.574 129.67
L304.664 129.67
L305.289 127.991
L305.378 127.991
L305.646 126.872
L305.824 126.872
L306.36 125.472
L306.449 125.472
L306.717 124.913
L306.806 124.913
L307.164 124.073
L307.253 124.073
L307.699 122.954
L307.878 122.954
L308.324 121.834
L308.592 121.834
L308.771 121.275
L309.038 121.275
L309.217 120.715
L309.306 120.715
L309.485 119.876
L309.663 119.316
L310.199 117.917
L310.288 117.917
L310.467 117.357
L310.645 116.238
L310.735 116.238
L310.913 115.398
L311.003 115.398
L311.36 114.559
L311.538 114.559
L311.717 113.999
L311.895 113.16
L311.985 113.16
L312.61 111.48
L312.877 111.48
L313.056 111.201
L313.324 111.201
L313.502 110.921
L313.77 110.921
L313.949 110.641
L314.038 110.641
L314.217 110.361
L314.395 110.361
L314.574 110.081
L314.752 110.081
L314.931 109.242
L315.02 109.242
L315.288 108.682
L315.645 108.682
L316.716 105.604
L317.163 105.604
L317.431 105.044
L317.699 105.044
L317.877 103.925
L318.413 102.526
L318.591 102.526
L318.948 101.686
L319.127 101.686
L319.841 99.7273
L320.109 99.7273
L320.466 98.3281
L320.734 96.9289
L320.913 96.9289
L321.18 96.3692
L321.27 96.3692
L321.448 95.5297
L321.627 94.6902
L321.984 94.6902
L322.252 93.5709
L322.52 93.0112
L323.145 93.0112
L323.323 92.7313
L323.948 92.7313
L324.127 92.4515
L324.484 92.4515
L325.198 90.4926
L325.287 90.4926
L325.644 89.6531
L325.823 89.6531
L326.002 88.8136
L326.716 88.8136
L326.894 88.5338
L327.162 88.5338
L327.43 87.9741
L327.787 87.9741
L328.144 87.1346
L328.68 87.1346
L328.859 86.8547
L329.216 86.8547
L329.484 86.2951
L329.573 86.2951
L329.751 85.7354
L329.93 85.7354
L330.287 84.8959
L330.376 84.8959
L330.555 84.3362
L330.823 83.7765
L330.912 83.7765
L331.18 83.2168
L331.358 83.2168
L331.537 82.937
L332.162 82.937
L332.34 82.6572
L332.787 82.6572
L333.144 81.8177
L333.501 81.8177
L334.215 79.8588
L334.483 79.8588
L334.93 78.7394
L335.465 78.7394
L335.733 78.1798
L336.447 78.1798
L336.715 77.6201
L336.894 77.6201
L337.072 77.3402
L337.162 77.3402
L337.34 76.7806
L337.608 76.7806
L337.965 75.9411
L338.054 75.9411
L338.233 75.6612
L338.322 75.6612
L338.769 74.5419
L339.751 74.5419
L339.929 74.262
L340.286 74.262
L340.554 73.7023
L340.644 73.7023
L340.822 73.4225
L341.09 73.4225
L341.358 72.8628
L342.34 72.8628
L342.518 72.583
L343.411 72.583
L343.59 72.3032
L344.393 72.3032
L344.572 72.0233
L344.661 72.0233
L344.84 71.7435
L345.018 71.7435
L345.197 71.4636
L345.465 71.4636
L345.643 71.1838
L346.09 71.1838
L346.268 70.3443
L348.143 70.3443
L348.322 70.0645
L348.679 70.0645
L348.857 69.2249
L350.286 69.2249
L350.464 68.9451
L350.732 68.9451
L350.911 68.6653
L351.268 68.6653
L351.446 68.3854
L351.625 68.3854
L351.893 67.8257
L352.071 67.8257
L352.25 67.5459
L352.607 67.5459
L352.786 67.2661
L352.875 67.2661
L353.053 66.9862
L354.125 66.9862
L354.482 66.1467
L354.66 66.1467
L354.839 65.8669
L357.696 65.8669
L357.964 65.3072
L358.41 65.3072
L358.678 64.7475
L359.392 64.7475
L359.571 64.4677
L360.017 64.4677
L360.196 64.1879
L361.089 64.1879
L361.356 63.6282
L361.535 63.6282
L361.714 63.0685
L362.964 63.0685
L363.142 62.7887
L363.321 62.7887
L363.499 62.5088
L364.392 62.5088
L364.571 62.229
L364.928 62.229
L365.106 61.9491
L365.731 61.9491
L365.91 61.6693
L366.178 61.6693
L366.445 61.1096
L366.803 61.1096
L366.981 60.8298
L367.16 60.8298
L367.338 60.55
L367.428 60.55
L367.695 59.9903
L369.481 59.9903
L369.66 59.7104
L370.195 59.7104
L370.463 59.1508
L371.088 59.1508
L371.445 58.3113
L371.802 58.3113
L372.159 57.4717
L372.338 57.4717
L372.874 56.0726
L373.409 56.0726
L373.588 55.7927
L373.856 55.7927
L374.034 55.5129
L374.748 55.5129
L374.927 55.233
L375.82 55.233
L375.998 54.9532
L378.766 54.9532
L378.945 54.6734
L379.034 54.6734
L379.212 54.3935
L381.087 54.3935
L381.534 53.2742
L381.98 53.2742
L382.159 52.9943
L382.694 52.9943
L382.873 52.7145
L383.319 52.7145
L383.587 52.1548
L384.301 52.1548
L384.48 51.875
L386.444 51.875
L386.623 51.5951
L386.891 51.5951
L387.158 51.0355
L388.319 51.0355
L388.498 50.7556
L393.408 50.7556
L393.676 50.196
L394.301 50.196
L394.479 49.9161
L395.908 49.9161
L396.176 49.3564
L396.711 49.3564
L396.89 49.0766
L399.39 49.0766
L399.568 48.7968
L400.283 48.7968
L400.461 48.5169
L405.014 48.5169
L405.193 48.2371
L406.443 48.2371
L406.621 47.9572
L408.05 47.9572
L408.228 47.6774
L411.085 47.6774
L411.264 47.3976
L416.621 47.3976
L416.799 47.1177
L418.764 47.1177
L418.942 46.8379
L432.066 46.8379
L432.245 46.5581
L435.28 46.5581
L435.459 46.2782
L437.78 46.2782
L437.959 45.9984
L438.673 45.9984
L438.852 45.7185
L440.101 45.7185
L440.28 45.4387
L445.19 45.4387
L445.369 45.1589
L450.994 45.1589
L451.172 44.879
L468.939 44.879
L469.117 44.5992
L473.671 44.5992
L473.849 44.3194
L481.795 44.3194
L481.974 44.0395
L484.741 44.0395
L484.92 43.7597
L485.099 43.7597
L485.277 43.4798
L518.311 43.4798
L518.311 43.4798" style="fill:none;stroke:#008000;stroke-dasharray:1.000000,1.000000;stroke-dashoffset:0.0;"/>
   </g>
   <g id="line2d_3">
    <path clip-path="url(#p7ff5b81e1d)" d="
M72 388.8
L72.0893 388.8
L72.1786 388.8
L72.3571 388.453
L72.4464 388.453
L72.5357 388.8
L72.7142 388.453
L75.6605 388.453
L75.839 388.8
L79.2317 388.8
L79.4102 388.453
L89.4989 388.453
L89.6774 388.8
L431.888 388.8
L432.066 388.453
L438.673 388.453
L438.852 388.107
L450.726 388.107
L450.904 387.76
L466.082 387.76
L466.26 387.413
L474.564 387.413
L474.742 387.067
L474.831 387.067
L475.01 386.72
L478.67 386.72
L478.849 386.374
L481.349 386.374
L481.527 386.027
L516.614 386.027
L516.793 385.68
L518.311 385.68
L518.311 385.68" style="fill:none;stroke:#ff0000;stroke-dasharray:3.000000,6.000000;stroke-dashoffset:0.0;"/>
   </g>
   <g id="line2d_4">
    <path clip-path="url(#p7ff5b81e1d)" d="
M72 388.8
L72.0893 388.335
L72.1786 388.335
L72.3571 388.8
L72.4464 388.8
L72.5357 388.335
L72.7142 388.8
L75.6605 388.8
L75.839 388.335
L79.2317 388.335
L79.4102 388.8
L443.494 388.8
L443.673 388.335
L461.172 388.335
L461.439 387.406
L487.241 387.406
L487.42 386.942
L493.491 386.942
L493.669 386.477
L511.347 386.477
L511.525 386.013
L512.418 386.013
L512.597 385.548
L518.311 385.548
L518.311 385.548" style="fill:none;stroke:#00bfbf;stroke-dasharray:5.000000,1.000000,2.000000,1.000000,5.000000,1.000000;stroke-dashoffset:0.0;"/>
   </g>
   <g id="line2d_5">
    <path clip-path="url(#p7ff5b81e1d)" d="
M72 388.8
L276.719 388.8
L276.898 388.11
L294.575 388.11
L294.754 387.42
L301.539 387.42
L301.717 386.731
L304.128 386.731
L304.307 386.041
L305.11 386.041
L305.289 385.351
L316.27 385.351
L316.538 383.971
L319.931 383.971
L320.198 382.592
L321.895 382.592
L322.073 381.902
L322.252 381.902
L322.43 381.212
L322.966 381.212
L323.145 380.522
L325.555 380.522
L325.734 379.832
L326.359 379.832
L326.537 379.143
L326.894 379.143
L327.252 377.073
L329.394 377.073
L329.573 376.383
L330.287 376.383
L330.466 375.693
L330.555 375.693
L330.823 374.314
L332.876 374.314
L333.144 372.934
L333.233 372.934
L333.412 372.244
L333.59 372.244
L333.948 370.175
L336.447 370.175
L336.626 369.485
L337.429 369.485
L337.608 368.795
L338.501 368.795
L338.679 368.105
L339.751 368.105
L340.108 366.036
L343.5 366.036
L343.679 365.346
L343.768 365.346
L343.947 364.656
L344.84 364.656
L345.018 363.966
L346.893 363.966
L347.072 363.277
L347.34 363.277
L347.518 361.897
L347.697 361.207
L348.054 361.207
L348.232 360.517
L350.464 360.517
L350.643 359.138
L351.357 359.138
L351.536 356.378
L351.625 356.378
L351.893 354.999
L352.786 354.999
L352.964 354.309
L354.036 354.309
L354.214 352.929
L354.303 352.929
L354.482 352.24
L354.66 352.24
L354.839 351.55
L355.018 351.55
L355.196 350.86
L355.285 350.86
L355.464 350.17
L355.643 350.17
L355.821 349.48
L357.607 349.48
L357.785 348.79
L358.232 348.79
L358.41 347.411
L358.5 347.411
L359.035 343.962
L359.124 343.962
L359.214 343.272
L359.392 341.202
L359.66 341.202
L359.839 340.513
L361.356 340.513
L361.803 337.753
L361.981 337.753
L362.249 336.374
L362.517 336.374
L362.696 335.684
L362.785 335.684
L362.964 334.304
L364.749 334.304
L365.017 332.925
L365.285 332.925
L365.463 331.545
L365.91 328.786
L366.088 328.786
L366.267 328.096
L366.445 328.096
L366.624 327.406
L368.588 327.406
L368.856 326.026
L369.035 326.026
L369.392 323.957
L369.481 323.957
L369.927 321.198
L371.445 321.198
L371.624 320.508
L372.338 320.508
L372.516 319.128
L372.606 319.128
L372.874 315.679
L373.052 315.679
L373.409 313.61
L373.499 313.61
L373.677 310.16
L374.213 310.16
L374.391 309.471
L375.463 309.471
L375.731 308.091
L376.445 308.091
L376.623 306.022
L376.802 306.022
L376.98 305.332
L377.159 305.332
L377.338 304.642
L377.963 304.642
L378.141 303.952
L379.034 303.952
L379.57 300.503
L379.837 300.503
L380.016 299.123
L380.552 299.123
L380.909 297.054
L382.694 297.054
L382.962 295.674
L383.052 295.674
L383.319 294.295
L383.498 294.295
L383.676 293.605
L383.944 293.605
L384.123 292.915
L384.212 292.915
L384.391 291.535
L386.176 291.535
L386.533 289.466
L386.98 289.466
L387.248 286.707
L387.516 285.327
L387.783 285.327
L388.051 283.947
L389.748 283.947
L389.926 281.188
L390.015 281.188
L390.194 280.498
L390.551 280.498
L391.176 276.359
L391.265 276.359
L391.622 274.29
L391.98 274.29
L392.158 273.6
L393.319 273.6
L393.497 272.91
L393.587 272.91
L393.765 269.461
L394.122 269.461
L394.301 268.771
L394.479 268.771
L394.926 266.012
L395.015 266.012
L395.194 265.322
L396.89 265.322
L397.247 263.253
L397.426 263.253
L397.783 261.183
L397.872 261.183
L398.229 259.114
L398.408 259.114
L398.676 257.734
L400.104 257.734
L400.283 257.044
L400.55 257.044
L401.354 251.526
L401.532 251.526
L401.8 250.146
L402.157 250.146
L402.336 249.456
L403.675 249.456
L403.854 248.766
L404.122 248.766
L404.479 246.697
L404.657 246.697
L405.193 243.248
L405.282 243.248
L405.729 240.489
L407.604 240.489
L408.318 235.66
L408.586 235.66
L408.853 234.28
L409.032 234.28
L409.478 231.521
L411.175 231.521
L411.353 230.831
L411.532 230.831
L411.978 228.072
L412.068 228.072
L412.335 226.692
L412.425 226.692
L412.603 226.002
L412.782 226.002
L412.96 225.313
L414.924 225.313
L415.103 223.933
L415.282 223.243
L415.46 219.794
L415.639 219.794
L415.817 219.104
L416.085 219.104
L416.353 217.725
L416.442 217.725
L416.621 217.035
L416.978 217.035
L417.156 216.345
L418.406 216.345
L418.585 215.655
L418.853 215.655
L419.031 214.275
L419.121 214.275
L419.299 212.896
L419.388 212.896
L419.567 212.206
L419.656 212.206
L419.924 210.826
L421.353 210.826
L421.531 210.137
L421.888 210.137
L422.245 208.067
L422.603 208.067
L422.96 205.998
L423.228 205.998
L423.585 203.928
L425.638 203.928
L425.817 203.238
L426.263 203.238
L426.442 201.859
L426.888 199.099
L429.12 199.099
L429.566 196.34
L429.656 196.34
L430.013 194.271
L430.102 194.271
L430.281 193.581
L430.37 193.581
L430.638 192.201
L430.727 192.201
L430.906 190.822
L432.78 190.822
L433.048 189.442
L433.405 189.442
L433.673 188.062
L434.03 188.062
L434.209 187.372
L436.262 187.372
L436.53 184.613
L436.977 181.854
L437.244 181.854
L437.423 180.474
L437.691 180.474
L437.869 179.784
L439.744 179.784
L439.923 179.095
L440.101 179.095
L440.28 177.715
L440.459 177.025
L440.994 177.025
L441.351 174.956
L443.762 174.956
L444.03 173.576
L444.298 173.576
L444.565 172.196
L444.744 172.196
L444.923 170.817
L445.012 170.817
L445.19 170.127
L446.172 170.127
L446.351 169.437
L446.976 169.437
L447.155 168.057
L447.244 168.057
L447.422 167.368
L447.512 167.368
L447.78 165.988
L447.869 165.988
L448.137 164.608
L448.404 164.608
L448.583 163.919
L450.726 163.919
L450.904 161.849
L451.172 161.849
L451.797 157.71
L452.154 157.71
L452.333 157.02
L454.118 157.02
L454.297 155.641
L454.476 154.951
L454.565 154.951
L454.743 154.261
L455.011 154.261
L455.279 152.881
L455.547 152.881
L455.815 151.502
L457.154 151.502
L457.332 150.812
L457.6 150.812
L457.868 149.432
L457.957 149.432
L458.136 148.743
L458.315 148.743
L458.582 147.363
L458.672 147.363
L458.85 146.673
L458.94 146.673
L459.207 145.293
L460.189 145.293
L460.368 144.604
L461.172 144.604
L461.35 143.914
L461.975 143.914
L462.243 141.154
L462.511 141.154
L462.689 140.465
L462.868 140.465
L463.046 139.775
L465.546 139.775
L465.725 139.085
L465.814 139.085
L466.171 137.016
L466.26 137.016
L466.439 136.326
L466.707 136.326
L466.885 135.636
L468.403 135.636
L468.76 133.566
L468.85 133.566
L469.117 132.187
L469.207 132.187
L469.385 131.497
L469.742 131.497
L469.921 130.807
L472.153 130.807
L472.332 130.117
L472.421 130.117
L472.956 126.668
L473.224 126.668
L473.492 125.289
L479.028 125.289
L479.206 124.599
L479.563 124.599
L480.099 121.15
L480.188 121.15
L480.367 120.46
L482.599 120.46
L482.777 119.77
L482.956 119.77
L483.224 118.39
L486.795 118.39
L487.063 117.011
L489.741 117.011
L490.545 111.492
L490.902 111.492
L491.17 110.113
L491.259 110.113
L491.437 109.423
L493.312 109.423
L493.491 108.733
L493.848 108.733
L494.116 107.353
L494.205 107.353
L494.384 106.663
L494.652 106.663
L494.919 105.284
L495.009 105.284
L495.187 104.594
L497.419 104.594
L497.598 103.904
L499.83 103.904
L500.008 103.214
L500.544 103.214
L500.723 102.525
L501.169 102.525
L501.348 101.835
L501.437 101.835
L501.615 100.455
L501.705 100.455
L501.883 99.7653
L504.294 99.7653
L504.472 99.0754
L504.829 99.0754
L505.008 98.3856
L505.187 98.3856
L505.365 97.6958
L507.776 97.6958
L507.954 97.006
L508.401 97.006
L508.579 96.3162
L508.668 96.3162
L508.847 94.9365
L511.793 94.9365
L512.24 92.1772
L512.418 92.1772
L512.597 91.4874
L514.74 91.4874
L514.918 90.7976
L515.007 90.7976
L515.186 88.0383
L515.811 88.0383
L516.079 86.6587
L516.257 86.6587
L516.436 85.9689
L518.311 85.9689
L518.311 85.9689" style="fill:none;stroke:#bf00bf;stroke-linecap:square;"/>
   </g>
   <g id="matplotlib.axis_1">
    <g id="xtick_1">
     <g id="line2d_6">
      <defs>
       <path d="
M0 0
L0 -4" id="mc7db9fdffb" style="stroke:#000000;stroke-width:0.5;"/>
      </defs>
      <g>
       <use style="stroke:#000000;stroke-width:0.5;" x="72.0" xlink:href="#mc7db9fdffb" y="388.8"/>
      </g>
     </g>
     <g id="line2d_7">
      <defs>
       <path d="
M0 0
L0 4" id="m5a7d422ac3" style="stroke:#000000;stroke-width:0.5;"/>
      </defs>
      <g>
       <use style="stroke:#000000;stroke-width:0.5;" x="72.0" xlink:href="#m5a7d422ac3" y="43.2"/>
      </g>
     </g>
     <g id="text_1">
      <!-- 0 -->
      <defs>
       <path d="
M56.9844 36.375
Q56.9844 16.7969 50.8594 7.64062
Q44.7344 -1.51562 31.8438 -1.51562
Q18.75 -1.51562 12.7188 7.76562
Q6.6875 17.0469 6.6875 36.2812
Q6.6875 55.6719 12.7812 64.9219
Q18.8906 74.1719 31.8438 74.1719
Q44.9219 74.1719 50.9531 64.7656
Q56.9844 55.375 56.9844 36.375
M44.1406 14.2031
Q45.8438 18.1719 46.4531 23.5156
Q47.0781 28.8594 47.0781 36.375
Q47.0781 43.7969 46.4531 49.2656
Q45.8438 54.7344 44.0938 58.5469
Q42.3906 62.3125 39.4219 64.2031
Q36.4688 66.1094 31.8438 66.1094
Q27.25 66.1094 24.2344 64.2031
Q21.2344 62.3125 19.4844 58.4531
Q17.8281 54.8281 17.2188 49.0156
Q16.6094 43.2188 16.6094 36.2812
Q16.6094 28.6562 17.1406 23.5312
Q17.6719 18.4062 19.4375 14.3594
Q21.0469 10.5469 24 8.54688
Q26.9531 6.54688 31.8438 6.54688
Q36.4219 6.54688 39.4531 8.45312
Q42.4844 10.3594 44.1406 14.2031" id="Verdana-30"/>
      </defs>
      <g transform="translate(68.9821875 401.918125)scale(0.12 -0.12)">
       <use xlink:href="#Verdana-30"/>
      </g>
     </g>
    </g>
    <g id="xtick_2">
     <g id="line2d_8">
      <g>
       <use style="stroke:#000000;stroke-width:0.5;" x="161.28" xlink:href="#mc7db9fdffb" y="388.8"/>
      </g>
     </g>
     <g id="line2d_9">
      <g>
       <use style="stroke:#000000;stroke-width:0.5;" x="161.28" xlink:href="#m5a7d422ac3" y="43.2"/>
      </g>
     </g>
     <g id="text_2">
      <!-- 1000 -->
      <defs>
       <path d="
M52.9375 0
L13.5781 0
L13.5781 7.42188
L28.7188 7.42188
L28.7188 56.1562
L13.5781 56.1562
L13.5781 62.7969
Q16.6562 62.7969 20.1719 63.2969
Q23.6875 63.8125 25.4844 64.7969
Q27.7344 66.0156 29.0312 67.8906
Q30.3281 69.7812 30.5156 72.9531
L38.0938 72.9531
L38.0938 7.42188
L52.9375 7.42188
z
" id="Verdana-31"/>
      </defs>
      <g transform="translate(147.2315625 401.918125)scale(0.12 -0.12)">
       <use xlink:href="#Verdana-31"/>
       <use x="63.57421875" xlink:href="#Verdana-30"/>
       <use x="127.1484375" xlink:href="#Verdana-30"/>
       <use x="190.72265625" xlink:href="#Verdana-30"/>
      </g>
     </g>
    </g>
    <g id="xtick_3">
     <g id="line2d_10">
      <g>
       <use style="stroke:#000000;stroke-width:0.5;" x="250.56" xlink:href="#mc7db9fdffb" y="388.8"/>
      </g>
     </g>
     <g id="line2d_11">
      <g>
       <use style="stroke:#000000;stroke-width:0.5;" x="250.56" xlink:href="#m5a7d422ac3" y="43.2"/>
      </g>
     </g>
     <g id="text_3">
      <!-- 2000 -->
      <defs>
       <path d="
M57.0781 0
L7.85938 0
L7.85938 10.2031
Q12.9844 14.5938 18.1406 18.9844
Q23.2969 23.3906 27.7344 27.7344
Q37.1094 36.8125 40.5781 42.1562
Q44.0469 47.5156 44.0469 53.7188
Q44.0469 59.375 40.3125 62.5625
Q36.5781 65.7656 29.8906 65.7656
Q25.4375 65.7656 20.2656 64.2031
Q15.0938 62.6406 10.1562 59.4219
L9.67188 59.4219
L9.67188 69.6719
Q13.1406 71.3906 18.9219 72.7969
Q24.7031 74.2188 30.125 74.2188
Q41.3125 74.2188 47.6562 68.8125
Q54 63.4219 54 54.2031
Q54 50.0469 52.9531 46.4531
Q51.9062 42.875 49.8594 39.6562
Q47.9531 36.625 45.3906 33.6875
Q42.8281 30.7656 39.1562 27.2031
Q33.9375 22.0781 28.3594 17.2656
Q22.7969 12.4531 17.9688 8.34375
L57.0781 8.34375
z
" id="Verdana-32"/>
      </defs>
      <g transform="translate(236.1684375 401.918125)scale(0.12 -0.12)">
       <use xlink:href="#Verdana-32"/>
       <use x="63.57421875" xlink:href="#Verdana-30"/>
       <use x="127.1484375" xlink:href="#Verdana-30"/>
       <use x="190.72265625" xlink:href="#Verdana-30"/>
      </g>
     </g>
    </g>
    <g id="xtick_4">
     <g id="line2d_12">
      <g>
       <use style="stroke:#000000;stroke-width:0.5;" x="339.84" xlink:href="#mc7db9fdffb" y="388.8"/>
      </g>
     </g>
     <g id="line2d_13">
      <g>
       <use style="stroke:#000000;stroke-width:0.5;" x="339.84" xlink:href="#m5a7d422ac3" y="43.2"/>
      </g>
     </g>
     <g id="text_4">
      <!-- 3000 -->
      <defs>
       <path d="
M50.6875 35.0156
Q53.0312 32.9062 54.5469 29.7344
Q56.0625 26.5625 56.0625 21.5312
Q56.0625 16.5469 54.25 12.3906
Q52.4375 8.25 49.1719 5.17188
Q45.5156 1.76562 40.5469 0.125
Q35.5938 -1.51562 29.6875 -1.51562
Q23.6406 -1.51562 17.7812 -0.0625
Q11.9219 1.375 8.15625 3.07812
L8.15625 13.2812
L8.89062 13.2812
Q13.0312 10.5469 18.6406 8.73438
Q24.2656 6.9375 29.5 6.9375
Q32.5625 6.9375 36.0312 7.95312
Q39.5 8.98438 41.6562 10.9844
Q43.8906 13.1406 44.9844 15.7188
Q46.0938 18.3125 46.0938 22.2656
Q46.0938 26.1719 44.8438 28.7344
Q43.6094 31.2969 41.4062 32.7656
Q39.2031 34.2812 36.0781 34.8438
Q32.9531 35.4062 29.3438 35.4062
L24.9531 35.4062
L24.9531 43.5
L28.375 43.5
Q35.7969 43.5 40.2031 46.5938
Q44.625 49.7031 44.625 55.6719
Q44.625 58.2969 43.5 60.2656
Q42.3906 62.25 40.375 63.5312
Q38.2812 64.7969 35.8906 65.2812
Q33.5 65.7656 30.4688 65.7656
Q25.8281 65.7656 20.5938 64.1094
Q15.375 62.4531 10.75 59.4219
L10.25 59.4219
L10.25 69.625
Q13.7188 71.3438 19.5 72.7812
Q25.2969 74.2188 30.7188 74.2188
Q36.0312 74.2188 40.0781 73.2344
Q44.1406 72.2656 47.4062 70.125
Q50.9219 67.7812 52.7344 64.4531
Q54.5469 61.1406 54.5469 56.6875
Q54.5469 50.6406 50.2656 46.125
Q46 41.6094 40.1875 40.4375
L40.1875 39.75
Q42.5312 39.3594 45.5469 38.1094
Q48.5781 36.8594 50.6875 35.0156" id="Verdana-33"/>
      </defs>
      <g transform="translate(325.46625 401.918125)scale(0.12 -0.12)">
       <use xlink:href="#Verdana-33"/>
       <use x="63.57421875" xlink:href="#Verdana-30"/>
       <use x="127.1484375" xlink:href="#Verdana-30"/>
       <use x="190.72265625" xlink:href="#Verdana-30"/>
      </g>
     </g>
    </g>
    <g id="xtick_5">
     <g id="line2d_14">
      <g>
       <use style="stroke:#000000;stroke-width:0.5;" x="429.12" xlink:href="#mc7db9fdffb" y="388.8"/>
      </g>
     </g>
     <g id="line2d_15">
      <g>
       <use style="stroke:#000000;stroke-width:0.5;" x="429.12" xlink:href="#m5a7d422ac3" y="43.2"/>
      </g>
     </g>
     <g id="text_5">
      <!-- 4000 -->
      <defs>
       <path d="
M58.7344 20.4531
L47.9531 20.4531
L47.9531 0
L38.5781 0
L38.5781 20.4531
L3.76562 20.4531
L3.76562 31.6875
L38.9688 72.7031
L47.9531 72.7031
L47.9531 28.2656
L58.7344 28.2656
z

M38.5781 28.2656
L38.5781 61.0781
L10.4062 28.2656
z
" id="Verdana-34"/>
      </defs>
      <g transform="translate(414.4828125 401.918125)scale(0.12 -0.12)">
       <use xlink:href="#Verdana-34"/>
       <use x="63.57421875" xlink:href="#Verdana-30"/>
       <use x="127.1484375" xlink:href="#Verdana-30"/>
       <use x="190.72265625" xlink:href="#Verdana-30"/>
      </g>
     </g>
    </g>
    <g id="xtick_6">
     <g id="line2d_16">
      <g>
       <use style="stroke:#000000;stroke-width:0.5;" x="518.4" xlink:href="#mc7db9fdffb" y="388.8"/>
      </g>
     </g>
     <g id="line2d_17">
      <g>
       <use style="stroke:#000000;stroke-width:0.5;" x="518.4" xlink:href="#m5a7d422ac3" y="43.2"/>
      </g>
     </g>
     <g id="text_6">
      <!-- 5000 -->
      <defs>
       <path d="
M56.5 23.0938
Q56.5 18.0156 54.6406 13.375
Q52.7812 8.73438 49.5625 5.5625
Q46.0469 2.15625 41.1875 0.3125
Q36.3281 -1.51562 29.9375 -1.51562
Q23.9688 -1.51562 18.4531 -0.265625
Q12.9375 0.984375 9.125 2.73438
L9.125 13.0312
L9.8125 13.0312
Q13.8125 10.5 19.1875 8.71875
Q24.5625 6.9375 29.7344 6.9375
Q33.2031 6.9375 36.4531 7.90625
Q39.7031 8.89062 42.2344 11.3281
Q44.3906 13.4219 45.4844 16.3438
Q46.5781 19.2812 46.5781 23.1406
Q46.5781 26.9062 45.2812 29.4844
Q44 32.0781 41.7031 33.6406
Q39.1562 35.5 35.5156 36.25
Q31.8906 37.0156 27.3906 37.0156
Q23.0938 37.0156 19.1094 36.4219
Q15.1406 35.8438 12.25 35.25
L12.25 72.7031
L56 72.7031
L56 64.1562
L21.6875 64.1562
L21.6875 44.8281
Q23.7812 45.0156 25.9688 45.1094
Q28.1719 45.2188 29.7812 45.2188
Q35.6875 45.2188 40.125 44.2188
Q44.5781 43.2188 48.2969 40.6719
Q52.2031 37.9844 54.3438 33.7344
Q56.5 29.5 56.5 23.0938" id="Verdana-35"/>
      </defs>
      <g transform="translate(504.084375 401.918125)scale(0.12 -0.12)">
       <use xlink:href="#Verdana-35"/>
       <use x="63.57421875" xlink:href="#Verdana-30"/>
       <use x="127.1484375" xlink:href="#Verdana-30"/>
       <use x="190.72265625" xlink:href="#Verdana-30"/>
      </g>
     </g>
    </g>
    <g id="text_7">
     <!-- Objective function exectuions -->
     <defs>
      <path d="
M54.6406 0
L45.4531 0
L45.4531 31.0625
Q45.4531 34.8125 45.0156 38.1094
Q44.5781 41.4062 43.4062 43.2656
Q42.1875 45.3125 39.8906 46.3125
Q37.5938 47.3125 33.9375 47.3125
Q30.1719 47.3125 26.0625 45.4531
Q21.9688 43.6094 18.2188 40.7188
L18.2188 0
L9.03125 0
L9.03125 54.5469
L18.2188 54.5469
L18.2188 48.4844
Q22.5156 52.0469 27.0938 54.0469
Q31.6875 56.0625 36.5312 56.0625
Q45.3594 56.0625 50 50.7344
Q54.6406 45.4062 54.6406 35.4062
z
" id="Verdana-6e"/>
      <path d="
M18.8906 63.6719
L8.54688 63.6719
L8.54688 73.1875
L18.8906 73.1875
z

M18.3125 0
L9.125 0
L9.125 54.5469
L18.3125 54.5469
z
" id="Verdana-69"/>
      <path d="
M56.25 0
L44.6719 0
L29.2031 20.9531
L13.625 0
L2.9375 0
L24.2188 27.2031
L3.125 54.5469
L14.7031 54.5469
L30.0781 33.9375
L45.5156 54.5469
L56.25 54.5469
L34.8125 27.6875
z
" id="Verdana-78"/>
      <path d="
M57.0312 27.6875
Q57.0312 20.8438 55.0938 15.375
Q53.1719 9.90625 49.9062 6.20312
Q46.4375 2.34375 42.2812 0.40625
Q38.1406 -1.51562 33.1562 -1.51562
Q28.5156 -1.51562 25.0469 -0.40625
Q21.5781 0.6875 18.2188 2.54688
L17.625 0
L9.03125 0
L9.03125 75.9844
L18.2188 75.9844
L18.2188 48.8281
Q22.0781 52 26.4219 54.0312
Q30.7656 56.0625 36.1875 56.0625
Q45.8438 56.0625 51.4375 48.6406
Q57.0312 41.2188 57.0312 27.6875
M47.5625 27.4375
Q47.5625 37.2031 44.3281 42.25
Q41.1094 47.3125 33.9375 47.3125
Q29.9375 47.3125 25.8281 45.5781
Q21.7344 43.8438 18.2188 41.1094
L18.2188 9.85938
Q22.125 8.10938 24.9219 7.42188
Q27.7344 6.73438 31.2969 6.73438
Q38.9219 6.73438 43.2344 11.7344
Q47.5625 16.75 47.5625 27.4375" id="Verdana-62"/>
      <path d="
M37.3594 0.484375
Q34.7656 -0.203125 31.7031 -0.640625
Q28.6562 -1.07812 26.2656 -1.07812
Q17.9219 -1.07812 13.5781 3.40625
Q9.23438 7.90625 9.23438 17.8281
L9.23438 46.8281
L3.03125 46.8281
L3.03125 54.5469
L9.23438 54.5469
L9.23438 70.2188
L18.4062 70.2188
L18.4062 54.5469
L37.3594 54.5469
L37.3594 46.8281
L18.4062 46.8281
L18.4062 21.9688
Q18.4062 17.6719 18.5938 15.25
Q18.7969 12.8438 19.9688 10.75
Q21.0469 8.79688 22.9219 7.89062
Q24.8125 6.98438 28.6562 6.98438
Q30.9062 6.98438 33.3438 7.64062
Q35.7969 8.29688 36.8594 8.73438
L37.3594 8.73438
z
" id="Verdana-74"/>
      <path d="
M26.0312 63.6719
L15.6719 63.6719
L15.6719 73.1875
L26.0312 73.1875
z

M25.4375 -1.3125
Q25.4375 -10.8906 20.5469 -15.7656
Q15.6719 -20.6562 7.46875 -20.6562
Q5.51562 -20.6562 2.3125 -20.2656
Q-0.875 -19.875 -3.03125 -19.2812
L-3.03125 -10.5469
L-2.54688 -10.5469
Q-1.17188 -11.0781 1.14062 -11.7656
Q3.46875 -12.4531 5.67188 -12.4531
Q9.1875 -12.4531 11.3281 -11.4688
Q13.4844 -10.5 14.5469 -8.54688
Q15.625 -6.59375 15.9375 -3.82812
Q16.2656 -1.07812 16.2656 2.875
L16.2656 46.8281
L4.89062 46.8281
L4.89062 54.5469
L25.4375 54.5469
z
" id="Verdana-6a"/>
      <path d="
M49.3594 3.42188
Q44.7812 1.21875 40.6562 0
Q36.5312 -1.21875 31.8906 -1.21875
Q25.9844 -1.21875 21.0469 0.515625
Q16.1094 2.25 12.5938 5.76562
Q9.03125 9.28125 7.07812 14.6406
Q5.125 20.0156 5.125 27.2031
Q5.125 40.5781 12.4688 48.1875
Q19.8281 55.8125 31.8906 55.8125
Q36.5781 55.8125 41.0938 54.4844
Q45.6094 53.1719 49.3594 51.2656
L49.3594 41.0625
L48.875 41.0625
Q44.6719 44.3438 40.2031 46.0938
Q35.75 47.8594 31.5 47.8594
Q23.6875 47.8594 19.1719 42.6094
Q14.6562 37.3594 14.6562 27.2031
Q14.6562 17.3281 19.0625 12.0312
Q23.4844 6.73438 31.5 6.73438
Q34.2812 6.73438 37.1562 7.46875
Q40.0469 8.20312 42.3281 9.375
Q44.3438 10.4062 46.0938 11.5469
Q47.8594 12.7031 48.875 13.5312
L49.3594 13.5312
z
" id="Verdana-63"/>
      <path d="
M55.5156 27.25
Q55.5156 13.9219 48.6719 6.20312
Q41.8438 -1.51562 30.375 -1.51562
Q18.7969 -1.51562 11.9844 6.20312
Q5.17188 13.9219 5.17188 27.25
Q5.17188 40.5781 11.9844 48.3125
Q18.7969 56.0625 30.375 56.0625
Q41.8438 56.0625 48.6719 48.3125
Q55.5156 40.5781 55.5156 27.25
M46.0469 27.25
Q46.0469 37.8438 41.8906 42.9844
Q37.75 48.1406 30.375 48.1406
Q22.9062 48.1406 18.7812 42.9844
Q14.6562 37.8438 14.6562 27.25
Q14.6562 17 18.7969 11.6875
Q22.9531 6.39062 30.375 6.39062
Q37.7031 6.39062 41.875 11.6406
Q46.0469 16.8906 46.0469 27.25" id="Verdana-6f"/>
      <path d="
M56.2031 54.5469
L34.125 0
L24.9062 0
L2.98438 54.5469
L12.9375 54.5469
L29.8281 11.1406
L46.5781 54.5469
z
" id="Verdana-76"/>
      <path d="
M63.9688 64.3594
Q68.4062 59.4688 70.7656 52.3906
Q73.1406 45.3125 73.1406 36.3281
Q73.1406 27.3438 70.7188 20.2344
Q68.3125 13.1406 63.9688 8.40625
Q59.4688 3.46875 53.3438 0.96875
Q47.2188 -1.51562 39.3594 -1.51562
Q31.6875 -1.51562 25.4062 1.01562
Q19.1406 3.5625 14.75 8.40625
Q10.3594 13.2344 7.98438 20.2656
Q5.60938 27.2969 5.60938 36.3281
Q5.60938 45.2188 7.95312 52.2656
Q10.2969 59.3281 14.7969 64.3594
Q19.0938 69.1406 25.4688 71.6719
Q31.8438 74.2188 39.3594 74.2188
Q47.1719 74.2188 53.3906 71.6562
Q59.625 69.0938 63.9688 64.3594
M63.0938 36.3281
Q63.0938 50.4844 56.7344 58.1719
Q50.3906 65.875 39.4062 65.875
Q28.3281 65.875 22 58.1719
Q15.6719 50.4844 15.6719 36.3281
Q15.6719 22.0156 22.1094 14.4219
Q28.5625 6.84375 39.4062 6.84375
Q50.25 6.84375 56.6719 14.4219
Q63.0938 22.0156 63.0938 36.3281" id="Verdana-4f"/>
      <path d="
M38.375 67.0938
L37.8906 67.0938
Q36.375 67.5312 33.9375 67.9844
Q31.5 68.4531 29.6406 68.4531
Q23.7344 68.4531 21.0625 65.8438
Q18.4062 63.2344 18.4062 56.3906
L18.4062 54.5469
L34.9688 54.5469
L34.9688 46.8281
L18.7031 46.8281
L18.7031 0
L9.51562 0
L9.51562 46.8281
L3.32812 46.8281
L3.32812 54.5469
L9.51562 54.5469
L9.51562 56.3438
Q9.51562 66.0625 14.3438 71.2656
Q19.1875 76.4688 28.3281 76.4688
Q31.3906 76.4688 33.8594 76.1719
Q36.3281 75.875 38.375 75.4844
z
" id="Verdana-66"/>
      <path d="
M48 15.7188
Q48 8.25 41.8125 3.46875
Q35.6406 -1.3125 24.9531 -1.3125
Q18.8906 -1.3125 13.8438 0.125
Q8.79688 1.5625 5.375 3.26562
L5.375 13.5781
L5.85938 13.5781
Q10.2031 10.2969 15.5156 8.375
Q20.8438 6.45312 25.7344 6.45312
Q31.7812 6.45312 35.2031 8.40625
Q38.625 10.3594 38.625 14.5469
Q38.625 17.7812 36.7656 19.4375
Q34.9062 21.0938 29.6406 22.2656
Q27.6875 22.7031 24.5312 23.2812
Q21.3906 23.875 18.7969 24.5625
Q11.625 26.4688 8.60938 30.1562
Q5.60938 33.8438 5.60938 39.2031
Q5.60938 42.5781 7 45.5469
Q8.40625 48.5312 11.2344 50.875
Q13.9688 53.1719 18.1875 54.5156
Q22.4062 55.8594 27.6406 55.8594
Q32.5156 55.8594 37.5156 54.6562
Q42.5312 53.4688 45.8438 51.7656
L45.8438 41.9375
L45.3594 41.9375
Q41.8438 44.5312 36.8125 46.3125
Q31.7812 48.0938 26.9531 48.0938
Q21.9219 48.0938 18.4531 46.1562
Q14.9844 44.2344 14.9844 40.4375
Q14.9844 37.0625 17.0938 35.3594
Q19.1406 33.6406 23.7344 32.5625
Q26.2656 31.9844 29.4062 31.3906
Q32.5625 30.8125 34.6719 30.3281
Q41.0625 28.8594 44.5312 25.2969
Q48 21.6875 48 15.7188" id="Verdana-73"/>
      <path d="
M54.6875 26.3125
L14.5 26.3125
Q14.5 21.2969 16.0156 17.5469
Q17.5312 13.8125 20.1719 11.4219
Q22.7031 9.07812 26.1875 7.90625
Q29.6875 6.73438 33.8906 6.73438
Q39.4531 6.73438 45.0938 8.95312
Q50.7344 11.1875 53.125 13.3281
L53.6094 13.3281
L53.6094 3.32812
Q48.9688 1.375 44.1406 0.046875
Q39.3125 -1.26562 33.9844 -1.26562
Q20.4062 -1.26562 12.7812 6.07812
Q5.17188 13.4219 5.17188 26.9531
Q5.17188 40.3281 12.4688 48.1875
Q19.7812 56.0625 31.6875 56.0625
Q42.7188 56.0625 48.7031 49.6094
Q54.6875 43.1719 54.6875 31.2969
z

M45.75 33.3438
Q45.7031 40.5781 42.1094 44.5312
Q38.5312 48.4844 31.2031 48.4844
Q23.8281 48.4844 19.4531 44.1406
Q15.0938 39.7969 14.5 33.3438
z
" id="Verdana-65"/>
      <path d="
M54.25 0
L45.0625 0
L45.0625 6.0625
Q40.4375 2.39062 36.1875 0.4375
Q31.9375 -1.51562 26.8125 -1.51562
Q18.2188 -1.51562 13.4219 3.73438
Q8.64062 8.98438 8.64062 19.1406
L8.64062 54.5469
L17.8281 54.5469
L17.8281 23.4844
Q17.8281 19.3438 18.2188 16.375
Q18.6094 13.4219 19.875 11.3281
Q21.1875 9.1875 23.2812 8.20312
Q25.3906 7.23438 29.3906 7.23438
Q32.9531 7.23438 37.1719 9.07812
Q41.4062 10.9375 45.0625 13.8125
L45.0625 54.5469
L54.25 54.5469
z
" id="Verdana-75"/>
      <path id="Verdana-20"/>
     </defs>
     <g transform="translate(206.5078125 418.509375)scale(0.12 -0.12)">
      <use xlink:href="#Verdana-4f"/>
      <use x="78.7109375" xlink:href="#Verdana-62"/>
      <use x="141.015625" xlink:href="#Verdana-6a"/>
      <use x="175.439453125" xlink:href="#Verdana-65"/>
      <use x="235.009765625" xlink:href="#Verdana-63"/>
      <use x="287.109375" xlink:href="#Verdana-74"/>
      <use x="326.513671875" xlink:href="#Verdana-69"/>
      <use x="353.955078125" xlink:href="#Verdana-76"/>
      <use x="412.259765625" xlink:href="#Verdana-65"/>
      <use x="471.830078125" xlink:href="#Verdana-20"/>
      <use x="506.986328125" xlink:href="#Verdana-66"/>
      <use x="542.142578125" xlink:href="#Verdana-75"/>
      <use x="605.423828125" xlink:href="#Verdana-6e"/>
      <use x="668.705078125" xlink:href="#Verdana-63"/>
      <use x="720.8046875" xlink:href="#Verdana-74"/>
      <use x="760.208984375" xlink:href="#Verdana-69"/>
      <use x="787.650390625" xlink:href="#Verdana-6f"/>
      <use x="848.34375" xlink:href="#Verdana-6e"/>
      <use x="911.625" xlink:href="#Verdana-20"/>
      <use x="946.78125" xlink:href="#Verdana-65"/>
      <use x="1006.3515625" xlink:href="#Verdana-78"/>
      <use x="1064.40625" xlink:href="#Verdana-65"/>
      <use x="1123.9765625" xlink:href="#Verdana-63"/>
      <use x="1176.076171875" xlink:href="#Verdana-74"/>
      <use x="1215.48046875" xlink:href="#Verdana-75"/>
      <use x="1278.76171875" xlink:href="#Verdana-69"/>
      <use x="1306.203125" xlink:href="#Verdana-6f"/>
      <use x="1366.896484375" xlink:href="#Verdana-6e"/>
      <use x="1430.177734375" xlink:href="#Verdana-73"/>
     </g>
    </g>
   </g>
   <g id="matplotlib.axis_2">
    <g id="ytick_1">
     <g id="line2d_18">
      <defs>
       <path d="
M0 0
L4 0" id="md7965d1ba0" style="stroke:#000000;stroke-width:0.5;"/>
      </defs>
      <g>
       <use style="stroke:#000000;stroke-width:0.5;" x="72.0" xlink:href="#md7965d1ba0" y="388.8"/>
      </g>
     </g>
     <g id="line2d_19">
      <defs>
       <path d="
M0 0
L-4 0" id="md9a1c1a7cd" style="stroke:#000000;stroke-width:0.5;"/>
      </defs>
      <g>
       <use style="stroke:#000000;stroke-width:0.5;" x="518.4" xlink:href="#md9a1c1a7cd" y="388.8"/>
      </g>
     </g>
     <g id="text_8">
      <!-- 0.0 -->
      <defs>
       <path d="
M24.0312 0
L12.3594 0
L12.3594 13.9219
L24.0312 13.9219
z
" id="Verdana-2e"/>
      </defs>
      <g transform="translate(49.97 392.1515625)scale(0.12 -0.12)">
       <use xlink:href="#Verdana-30"/>
       <use x="63.57421875" xlink:href="#Verdana-2e"/>
       <use x="99.951171875" xlink:href="#Verdana-30"/>
      </g>
     </g>
    </g>
    <g id="ytick_2">
     <g id="line2d_20">
      <g>
       <use style="stroke:#000000;stroke-width:0.5;" x="72.0" xlink:href="#md7965d1ba0" y="319.68"/>
      </g>
     </g>
     <g id="line2d_21">
      <g>
       <use style="stroke:#000000;stroke-width:0.5;" x="518.4" xlink:href="#md9a1c1a7cd" y="319.68"/>
      </g>
     </g>
     <g id="text_9">
      <!-- 0.2 -->
      <g transform="translate(49.95875 323.0315625)scale(0.12 -0.12)">
       <use xlink:href="#Verdana-30"/>
       <use x="63.57421875" xlink:href="#Verdana-2e"/>
       <use x="99.951171875" xlink:href="#Verdana-32"/>
      </g>
     </g>
    </g>
    <g id="ytick_3">
     <g id="line2d_22">
      <g>
       <use style="stroke:#000000;stroke-width:0.5;" x="72.0" xlink:href="#md7965d1ba0" y="250.56"/>
      </g>
     </g>
     <g id="line2d_23">
      <g>
       <use style="stroke:#000000;stroke-width:0.5;" x="518.4" xlink:href="#md9a1c1a7cd" y="250.56"/>
      </g>
     </g>
     <g id="text_10">
      <!-- 0.4 -->
      <g transform="translate(49.76 253.9115625)scale(0.12 -0.12)">
       <use xlink:href="#Verdana-30"/>
       <use x="63.57421875" xlink:href="#Verdana-2e"/>
       <use x="99.951171875" xlink:href="#Verdana-34"/>
      </g>
     </g>
    </g>
    <g id="ytick_4">
     <g id="line2d_24">
      <g>
       <use style="stroke:#000000;stroke-width:0.5;" x="72.0" xlink:href="#md7965d1ba0" y="181.44"/>
      </g>
     </g>
     <g id="line2d_25">
      <g>
       <use style="stroke:#000000;stroke-width:0.5;" x="518.4" xlink:href="#md9a1c1a7cd" y="181.44"/>
      </g>
     </g>
     <g id="text_11">
      <!-- 0.6 -->
      <defs>
       <path d="
M58.1562 23.5781
Q58.1562 12.5 50.8594 5.48438
Q43.5625 -1.51562 32.9531 -1.51562
Q27.5938 -1.51562 23.1875 0.140625
Q18.7969 1.8125 15.4375 5.07812
Q11.2344 9.125 8.95312 15.8125
Q6.6875 22.5156 6.6875 31.9375
Q6.6875 41.6094 8.76562 49.0781
Q10.8438 56.5469 15.375 62.3594
Q19.6719 67.875 26.4531 70.9688
Q33.25 74.0781 42.2812 74.0781
Q45.1719 74.0781 47.125 73.8281
Q49.0781 73.5781 51.0781 72.9531
L51.0781 63.625
L50.5938 63.625
Q49.2188 64.3594 46.4531 65.0156
Q43.7031 65.6719 40.8281 65.6719
Q30.3281 65.6719 24.0781 59.1094
Q17.8281 52.5469 16.7969 41.3594
Q20.9062 43.8438 24.875 45.1406
Q28.8594 46.4375 34.0781 46.4375
Q38.7188 46.4375 42.25 45.5781
Q45.7969 44.7344 49.5156 42.1406
Q53.8125 39.1562 55.9844 34.6094
Q58.1562 30.0781 58.1562 23.5781
M48.25 23.1875
Q48.25 27.7344 46.9062 30.7031
Q45.5625 33.6875 42.4844 35.8906
Q40.2344 37.4531 37.5 37.9375
Q34.7656 38.4219 31.7812 38.4219
Q27.6406 38.4219 24.0781 37.4375
Q20.5156 36.4688 16.75 34.4219
Q16.6562 33.3438 16.5938 32.3438
Q16.5469 31.3438 16.5469 29.8281
Q16.5469 22.125 18.1406 17.6562
Q19.7344 13.1875 22.5156 10.5938
Q24.75 8.45312 27.3594 7.45312
Q29.9844 6.45312 33.0625 6.45312
Q40.1406 6.45312 44.1875 10.7656
Q48.25 15.0938 48.25 23.1875" id="Verdana-36"/>
      </defs>
      <g transform="translate(49.829375 184.7915625)scale(0.12 -0.12)">
       <use xlink:href="#Verdana-30"/>
       <use x="63.57421875" xlink:href="#Verdana-2e"/>
       <use x="99.951171875" xlink:href="#Verdana-36"/>
      </g>
     </g>
    </g>
    <g id="ytick_5">
     <g id="line2d_26">
      <g>
       <use style="stroke:#000000;stroke-width:0.5;" x="72.0" xlink:href="#md7965d1ba0" y="112.32"/>
      </g>
     </g>
     <g id="line2d_27">
      <g>
       <use style="stroke:#000000;stroke-width:0.5;" x="518.4" xlink:href="#md9a1c1a7cd" y="112.32"/>
      </g>
     </g>
     <g id="text_12">
      <!-- 0.8 -->
      <defs>
       <path d="
M57.625 20.2656
Q57.625 10.8438 50.2656 4.59375
Q42.9219 -1.65625 31.7812 -1.65625
Q19.9688 -1.65625 12.9531 4.4375
Q5.95312 10.5469 5.95312 20.0625
Q5.95312 26.125 9.46875 31.0312
Q12.9844 35.9375 19.3906 38.8125
L19.3906 39.1094
Q13.5312 42.2344 10.7188 45.9375
Q7.90625 49.6562 7.90625 55.2188
Q7.90625 63.4219 14.6406 68.8906
Q21.3906 74.3594 31.7812 74.3594
Q42.6719 74.3594 49.1719 69.1406
Q55.6719 63.9219 55.6719 55.8594
Q55.6719 50.9219 52.5938 46.1562
Q49.5156 41.4062 43.5625 38.7188
L43.5625 38.4219
Q50.3906 35.5 54 31.2031
Q57.625 26.9062 57.625 20.2656
M46.0469 55.7656
Q46.0469 60.9844 42.0156 64.0781
Q37.9844 67.1875 31.7344 67.1875
Q25.5938 67.1875 21.6562 64.25
Q17.7188 61.3281 17.7188 56.3438
Q17.7188 52.8281 19.7031 50.2656
Q21.6875 47.7031 25.6875 45.7031
Q27.4844 44.8281 30.875 43.4062
Q34.2812 42 37.5 41.0625
Q42.3281 44.2812 44.1875 47.75
Q46.0469 51.2188 46.0469 55.7656
M47.5625 19.3438
Q47.5625 23.8281 45.5781 26.5312
Q43.6094 29.25 37.8438 31.9844
Q35.5469 33.0625 32.8125 33.9844
Q30.0781 34.9062 25.5312 36.5781
Q21.1406 34.1875 18.4844 30.0781
Q15.8281 25.9844 15.8281 20.7969
Q15.8281 14.2031 20.3594 9.90625
Q24.9062 5.60938 31.8906 5.60938
Q39.0156 5.60938 43.2812 9.26562
Q47.5625 12.9375 47.5625 19.3438" id="Verdana-38"/>
      </defs>
      <g transform="translate(49.893125 115.6715625)scale(0.12 -0.12)">
       <use xlink:href="#Verdana-30"/>
       <use x="63.57421875" xlink:href="#Verdana-2e"/>
       <use x="99.951171875" xlink:href="#Verdana-38"/>
      </g>
     </g>
    </g>
    <g id="ytick_6">
     <g id="line2d_28">
      <g>
       <use style="stroke:#000000;stroke-width:0.5;" x="72.0" xlink:href="#md7965d1ba0" y="43.2"/>
      </g>
     </g>
     <g id="line2d_29">
      <g>
       <use style="stroke:#000000;stroke-width:0.5;" x="518.4" xlink:href="#md9a1c1a7cd" y="43.2"/>
      </g>
     </g>
     <g id="text_13">
      <!-- 1.0 -->
      <g transform="translate(50.796875 46.5515625)scale(0.12 -0.12)">
       <use xlink:href="#Verdana-31"/>
       <use x="63.57421875" xlink:href="#Verdana-2e"/>
       <use x="99.951171875" xlink:href="#Verdana-30"/>
      </g>
     </g>
    </g>
    <g id="text_14">
     <!-- Data Profile T-0.0000001 -->
     <defs>
      <path d="
M57.3281 50.7344
Q57.3281 45.9062 55.6406 41.7656
Q53.9531 37.6406 50.9219 34.625
Q47.1719 30.8594 42.0469 28.9688
Q36.9219 27.0938 29.1094 27.0938
L19.4375 27.0938
L19.4375 0
L9.76562 0
L9.76562 72.7031
L29.5 72.7031
Q36.0312 72.7031 40.5781 71.6094
Q45.125 70.5156 48.6406 68.1719
Q52.7812 65.375 55.0469 61.2188
Q57.3281 57.0781 57.3281 50.7344
M47.2656 50.4844
Q47.2656 54.25 45.9375 57.0312
Q44.625 59.8125 41.9375 61.5781
Q39.5938 63.0938 36.5938 63.75
Q33.5938 64.4062 29 64.4062
L19.4375 64.4062
L19.4375 35.3594
L27.5938 35.3594
Q33.4531 35.3594 37.1094 36.4062
Q40.7656 37.4531 43.0625 39.75
Q45.3594 42.0938 46.3125 44.6719
Q47.2656 47.2656 47.2656 50.4844" id="Verdana-50"/>
      <path d="
M37.9375 27.3906
L7.46875 27.3906
L7.46875 36.2344
L37.9375 36.2344
z
" id="Verdana-2d"/>
      <path d="
M18.3125 0
L9.125 0
L9.125 75.9844
L18.3125 75.9844
z
" id="Verdana-6c"/>
      <path d="
M43.0625 44.5312
L42.5781 44.5312
Q40.5312 45.0156 38.5938 45.2344
Q36.6719 45.4531 34.0312 45.4531
Q29.7812 45.4531 25.8281 43.5781
Q21.875 41.7031 18.2188 38.7188
L18.2188 0
L9.03125 0
L9.03125 54.5469
L18.2188 54.5469
L18.2188 46.4844
Q23.6875 50.875 27.8594 52.7031
Q32.0312 54.5469 36.375 54.5469
Q38.7656 54.5469 39.8438 54.4219
Q40.9219 54.2969 43.0625 53.9531
z
" id="Verdana-72"/>
      <path d="
M71.1875 36.2812
Q71.1875 26.375 66.8594 18.3125
Q62.5469 10.25 55.375 5.8125
Q50.3906 2.73438 44.2656 1.35938
Q38.1406 0 28.125 0
L9.76562 0
L9.76562 72.7031
L27.9375 72.7031
Q38.5781 72.7031 44.8438 71.1562
Q51.125 69.625 55.4688 66.9375
Q62.8906 62.3125 67.0312 54.5938
Q71.1875 46.875 71.1875 36.2812
M61.0781 36.4219
Q61.0781 44.9688 58.0938 50.8281
Q55.125 56.6875 49.2188 60.0625
Q44.9219 62.5 40.0781 63.4531
Q35.25 64.4062 28.5156 64.4062
L19.4375 64.4062
L19.4375 8.29688
L28.5156 8.29688
Q35.5 8.29688 40.7031 9.32812
Q45.9062 10.3594 50.25 13.1406
Q55.6719 16.6094 58.375 22.2656
Q61.0781 27.9375 61.0781 36.4219" id="Verdana-44"/>
      <path d="
M51.4219 0
L42.2812 0
L42.2812 5.8125
Q41.0625 4.98438 38.9844 3.48438
Q36.9219 2 34.9688 1.125
Q32.6719 0 29.6875 -0.75
Q26.7031 -1.51562 22.7031 -1.51562
Q15.3281 -1.51562 10.2031 3.35938
Q5.07812 8.25 5.07812 15.8281
Q5.07812 22.0156 7.73438 25.8438
Q10.4062 29.6875 15.3281 31.8906
Q20.3125 34.0781 27.2969 34.8594
Q34.2812 35.6406 42.2812 36.0312
L42.2812 37.4531
Q42.2812 40.5781 41.1875 42.625
Q40.0938 44.6719 38.0312 45.8438
Q36.0781 46.9688 33.3438 47.3594
Q30.6094 47.75 27.6406 47.75
Q24.0312 47.75 19.5781 46.7969
Q15.1406 45.8438 10.4062 44.0469
L9.90625 44.0469
L9.90625 53.375
Q12.5938 54.1094 17.6719 54.9844
Q22.75 55.8594 27.6875 55.8594
Q33.4531 55.8594 37.7188 54.9062
Q42 53.9531 45.125 51.6562
Q48.1875 49.4219 49.7969 45.8438
Q51.4219 42.2812 51.4219 37.0156
z

M42.2812 13.4219
L42.2812 28.6094
Q38.0938 28.375 32.3906 27.875
Q26.7031 27.3906 23.3906 26.4688
Q19.4375 25.3438 16.9844 22.9688
Q14.5469 20.6094 14.5469 16.4531
Q14.5469 11.7656 17.375 9.39062
Q20.2188 7.03125 26.0312 7.03125
Q30.8594 7.03125 34.8594 8.90625
Q38.875 10.7969 42.2812 13.4219" id="Verdana-61"/>
      <path d="
M61.625 64.1094
L35.6406 64.1094
L35.6406 0
L25.9844 0
L25.9844 64.1094
L0 64.1094
L0 72.7031
L61.625 72.7031
z
" id="Verdana-54"/>
     </defs>
     <g transform="translate(42.345 291.2503125)rotate(-90.0)scale(0.12 -0.12)">
      <use xlink:href="#Verdana-44"/>
      <use x="77.05078125" xlink:href="#Verdana-61"/>
      <use x="137.109375" xlink:href="#Verdana-74"/>
      <use x="176.513671875" xlink:href="#Verdana-61"/>
      <use x="236.572265625" xlink:href="#Verdana-20"/>
      <use x="271.728515625" xlink:href="#Verdana-50"/>
      <use x="332.03125" xlink:href="#Verdana-72"/>
      <use x="374.70703125" xlink:href="#Verdana-6f"/>
      <use x="435.400390625" xlink:href="#Verdana-66"/>
      <use x="470.556640625" xlink:href="#Verdana-69"/>
      <use x="497.998046875" xlink:href="#Verdana-6c"/>
      <use x="525.439453125" xlink:href="#Verdana-65"/>
      <use x="585.009765625" xlink:href="#Verdana-20"/>
      <use x="620.166015625" xlink:href="#Verdana-54"/>
      <use x="674.412109375" xlink:href="#Verdana-2d"/>
      <use x="719.822265625" xlink:href="#Verdana-30"/>
      <use x="783.396484375" xlink:href="#Verdana-2e"/>
      <use x="819.7734375" xlink:href="#Verdana-30"/>
      <use x="883.34765625" xlink:href="#Verdana-30"/>
      <use x="946.921875" xlink:href="#Verdana-30"/>
      <use x="1010.49609375" xlink:href="#Verdana-30"/>
      <use x="1074.0703125" xlink:href="#Verdana-30"/>
      <use x="1137.64453125" xlink:href="#Verdana-30"/>
      <use x="1201.21875" xlink:href="#Verdana-31"/>
     </g>
    </g>
   </g>
   <g id="patch_3">
    <path d="
M72 388.8
L518.4 388.8" style="fill:none;stroke:#000000;"/>
   </g>
   <g id="patch_4">
    <path d="
M518.4 388.8
L518.4 43.2" style="fill:none;stroke:#000000;"/>
   </g>
   <g id="patch_5">
    <path d="
M72 388.8
L72 43.2" style="fill:none;stroke:#000000;"/>
   </g>
   <g id="patch_6">
    <path d="
M72 43.2
L518.4 43.2" style="fill:none;stroke:#000000;"/>
   </g>
   <g id="text_15">
    <!-- Penalty01 Data Profile T-0.0000001 -->
    <defs>
     <path d="
M56.2031 54.5469
L24.3594 -20.125
L14.5469 -20.125
L24.7031 2.64062
L2.98438 54.5469
L12.9375 54.5469
L29.6875 14.1094
L46.5781 54.5469
z
" id="Verdana-79"/>
    </defs>
    <g transform="translate(166.843125 38.2)scale(0.144 -0.144)">
     <use xlink:href="#Verdana-50"/>
     <use x="57.802734375" xlink:href="#Verdana-65"/>
     <use x="117.373046875" xlink:href="#Verdana-6e"/>
     <use x="180.654296875" xlink:href="#Verdana-61"/>
     <use x="240.712890625" xlink:href="#Verdana-6c"/>
     <use x="268.154296875" xlink:href="#Verdana-74"/>
     <use x="307.05859375" xlink:href="#Verdana-79"/>
     <use x="366.23828125" xlink:href="#Verdana-30"/>
     <use x="429.8125" xlink:href="#Verdana-31"/>
     <use x="493.38671875" xlink:href="#Verdana-20"/>
     <use x="528.54296875" xlink:href="#Verdana-44"/>
     <use x="605.59375" xlink:href="#Verdana-61"/>
     <use x="665.65234375" xlink:href="#Verdana-74"/>
     <use x="705.056640625" xlink:href="#Verdana-61"/>
     <use x="765.115234375" xlink:href="#Verdana-20"/>
     <use x="800.271484375" xlink:href="#Verdana-50"/>
     <use x="860.57421875" xlink:href="#Verdana-72"/>
     <use x="903.25" xlink:href="#Verdana-6f"/>
     <use x="963.943359375" xlink:href="#Verdana-66"/>
     <use x="999.099609375" xlink:href="#Verdana-69"/>
     <use x="1026.541015625" xlink:href="#Verdana-6c"/>
     <use x="1053.982421875" xlink:href="#Verdana-65"/>
     <use x="1113.552734375" xlink:href="#Verdana-20"/>
     <use x="1148.708984375" xlink:href="#Verdana-54"/>
     <use x="1202.955078125" xlink:href="#Verdana-2d"/>
     <use x="1248.365234375" xlink:href="#Verdana-30"/>
     <use x="1311.939453125" xlink:href="#Verdana-2e"/>
     <use x="1348.31640625" xlink:href="#Verdana-30"/>
     <use x="1411.890625" xlink:href="#Verdana-30"/>
     <use x="1475.46484375" xlink:href="#Verdana-30"/>
     <use x="1539.0390625" xlink:href="#Verdana-30"/>
     <use x="1602.61328125" xlink:href="#Verdana-30"/>
     <use x="1666.1875" xlink:href="#Verdana-30"/>
     <use x="1729.76171875" xlink:href="#Verdana-31"/>
    </g>
   </g>
   <g id="legend_1">
    <g id="patch_7">
     <path d="
M79.2 159.919
L183.22 159.919
L183.22 50.4
L79.2 50.4
L79.2 159.919
z
" style="fill:#ffffff;stroke:#000000;"/>
    </g>
    <g id="line2d_30">
     <path d="
M89.28 62.0617
L109.44 62.0617" style="fill:none;stroke:#0000ff;stroke-dasharray:6.000000,2.000000;stroke-dashoffset:0.0;"/>
    </g>
    <g id="line2d_31"/>
    <g id="text_16">
     <!-- AMPGO -->
     <defs>
      <path d="
M67.0938 0
L56.7812 0
L49.6562 20.2656
L18.2188 20.2656
L11.0781 0
L1.26562 0
L27.7344 72.7031
L40.625 72.7031
z

M46.6875 28.5625
L33.9375 64.2656
L21.1406 28.5625
z
" id="Verdana-41"/>
      <path d="
M74.5156 0
L64.8438 0
L64.8438 62.6406
L44.625 20.0156
L38.875 20.0156
L18.7969 62.6406
L18.7969 0
L9.76562 0
L9.76562 72.7031
L22.9531 72.7031
L42.3281 32.2344
L61.0781 72.7031
L74.5156 72.7031
z
" id="Verdana-4d"/>
      <path d="
M70.4062 5.375
Q64.4531 2.64062 57.3906 0.609375
Q50.3438 -1.42188 43.75 -1.42188
Q35.25 -1.42188 28.1719 0.921875
Q21.0938 3.26562 16.1094 7.95312
Q11.0781 12.7031 8.34375 19.7969
Q5.60938 26.9062 5.60938 36.4219
Q5.60938 53.8594 15.7969 63.9375
Q25.9844 74.0312 43.75 74.0312
Q49.9531 74.0312 56.4219 72.5312
Q62.8906 71.0469 70.3594 67.4844
L70.3594 56
L69.4844 56
Q67.9688 57.1719 65.0781 59.0781
Q62.2031 60.9844 59.4219 62.25
Q56.0625 63.7656 51.7812 64.7656
Q47.5156 65.7656 42.0938 65.7656
Q29.8906 65.7656 22.7812 57.9219
Q15.6719 50.0938 15.6719 36.7188
Q15.6719 22.6094 23.0938 14.7656
Q30.5156 6.9375 43.3125 6.9375
Q48 6.9375 52.6562 7.85938
Q57.3281 8.79688 60.8438 10.25
L60.8438 28.0781
L41.3594 28.0781
L41.3594 36.5781
L70.4062 36.5781
z
" id="Verdana-47"/>
     </defs>
     <g transform="translate(125.28 67.10175)scale(0.144 -0.144)">
      <use xlink:href="#Verdana-41"/>
      <use x="68.359375" xlink:href="#Verdana-4d"/>
      <use x="152.63671875" xlink:href="#Verdana-50"/>
      <use x="212.939453125" xlink:href="#Verdana-47"/>
      <use x="290.478515625" xlink:href="#Verdana-4f"/>
     </g>
    </g>
    <g id="line2d_32">
     <path d="
M89.28 83.1015
L109.44 83.1015" style="fill:none;stroke:#008000;stroke-dasharray:1.000000,1.000000;stroke-dashoffset:0.0;"/>
    </g>
    <g id="line2d_33"/>
    <g id="text_17">
     <!-- Anneal -->
     <g transform="translate(125.28 88.1415)scale(0.144 -0.144)">
      <use xlink:href="#Verdana-41"/>
      <use x="68.359375" xlink:href="#Verdana-6e"/>
      <use x="131.640625" xlink:href="#Verdana-6e"/>
      <use x="194.921875" xlink:href="#Verdana-65"/>
      <use x="254.4921875" xlink:href="#Verdana-61"/>
      <use x="314.55078125" xlink:href="#Verdana-6c"/>
     </g>
    </g>
    <g id="line2d_34">
     <path d="
M89.28 104.141
L109.44 104.141" style="fill:none;stroke:#ff0000;stroke-dasharray:3.000000,6.000000;stroke-dashoffset:0.0;"/>
    </g>
    <g id="line2d_35"/>
    <g id="text_18">
     <!-- BSA -->
     <defs>
      <path d="
M62.5938 20.75
Q62.5938 16.5 60.6094 12.3438
Q58.6406 8.20312 55.0781 5.32812
Q51.1719 2.20312 45.9688 0.4375
Q40.7656 -1.3125 33.4531 -1.3125
Q25.5938 -1.3125 19.3125 0.140625
Q13.0312 1.60938 6.54688 4.5
L6.54688 16.6094
L7.23438 16.6094
Q12.75 12.0156 19.9688 9.51562
Q27.2031 7.03125 33.5469 7.03125
Q42.5312 7.03125 47.5312 10.3906
Q52.5469 13.7656 52.5469 19.3906
Q52.5469 24.2188 50.1719 26.5156
Q47.7969 28.8125 42.9688 30.0781
Q39.3125 31.0625 35.0312 31.6875
Q30.7656 32.3281 25.9844 33.2969
Q16.3125 35.3594 11.6406 40.3125
Q6.98438 45.2656 6.98438 53.2188
Q6.98438 62.3594 14.6875 68.1875
Q22.4062 74.0312 34.2812 74.0312
Q41.9375 74.0312 48.3281 72.5625
Q54.7344 71.0938 59.6719 68.9531
L59.6719 57.5156
L58.9844 57.5156
Q54.8281 61.0312 48.0625 63.3438
Q41.3125 65.6719 34.2344 65.6719
Q26.4688 65.6719 21.75 62.4531
Q17.0469 59.2344 17.0469 54.1562
Q17.0469 49.6094 19.3906 47.0156
Q21.7344 44.4375 27.6406 43.0625
Q30.7656 42.3906 36.5156 41.4062
Q42.2812 40.4375 46.2969 39.4062
Q54.3906 37.25 58.4844 32.9062
Q62.5938 28.5625 62.5938 20.75" id="Verdana-53"/>
      <path d="
M64.5938 22.3594
Q64.5938 16.9375 62.5469 12.7812
Q60.5 8.64062 57.0312 5.95312
Q52.9375 2.73438 48.0156 1.35938
Q43.1094 0 35.5469 0
L9.76562 0
L9.76562 72.7031
L31.2969 72.7031
Q39.2656 72.7031 43.2188 72.1094
Q47.1719 71.5312 50.7812 69.6719
Q54.7812 67.5781 56.5938 64.2812
Q58.4062 60.9844 58.4062 56.3906
Q58.4062 51.2188 55.7656 47.5781
Q53.125 43.9531 48.7344 41.75
L48.7344 41.3594
Q56.1094 39.8438 60.3438 34.8906
Q64.5938 29.9375 64.5938 22.3594
M48.3438 55.125
Q48.3438 57.7656 47.4531 59.5625
Q46.5781 61.375 44.625 62.5
Q42.3281 63.8125 39.0625 64.125
Q35.7969 64.4531 30.9531 64.4531
L19.4375 64.4531
L19.4375 43.4531
L31.9375 43.4531
Q36.4688 43.4531 39.1562 43.9219
Q41.8438 44.3906 44.1406 45.8438
Q46.4375 47.3125 47.3906 49.625
Q48.3438 51.9531 48.3438 55.125
M54.5469 21.9688
Q54.5469 26.375 53.2188 28.9531
Q51.9062 31.5469 48.4375 33.3438
Q46.0938 34.5781 42.75 34.9375
Q39.4062 35.2969 34.625 35.2969
L19.4375 35.2969
L19.4375 8.25
L32.2344 8.25
Q38.5781 8.25 42.625 8.90625
Q46.6875 9.57812 49.2656 11.3281
Q52 13.2344 53.2656 15.6719
Q54.5469 18.1094 54.5469 21.9688" id="Verdana-42"/>
     </defs>
     <g transform="translate(125.28 109.18125)scale(0.144 -0.144)">
      <use xlink:href="#Verdana-42"/>
      <use x="68.5546875" xlink:href="#Verdana-53"/>
      <use x="135.9140625" xlink:href="#Verdana-41"/>
     </g>
    </g>
    <g id="line2d_36">
     <path d="
M89.28 125.181
L109.44 125.181" style="fill:none;stroke:#00bfbf;stroke-dasharray:5.000000,1.000000,2.000000,1.000000,5.000000,1.000000;stroke-dashoffset:0.0;"/>
    </g>
    <g id="line2d_37"/>
    <g id="text_19">
     <!-- Cuckoo -->
     <defs>
      <path d="
M58.5469 0
L46.4375 0
L24.5625 23.875
L18.6094 18.2188
L18.6094 0
L9.42188 0
L9.42188 75.9844
L18.6094 75.9844
L18.6094 27.25
L45.125 54.5469
L56.6875 54.5469
L31.3438 29.3438
z
" id="Verdana-6b"/>
      <path d="
M65.9219 5.28125
Q63.2344 4.10938 61.0625 3.07812
Q58.8906 2.04688 55.375 0.921875
Q52.3906 0 48.8906 -0.65625
Q45.4062 -1.3125 41.2188 -1.3125
Q33.2969 -1.3125 26.8281 0.90625
Q20.3594 3.125 15.5781 7.85938
Q10.8906 12.5 8.25 19.6562
Q5.60938 26.8125 5.60938 36.2812
Q5.60938 45.2656 8.14062 52.3438
Q10.6875 59.4219 15.4844 64.3125
Q20.125 69.0469 26.6875 71.5312
Q33.25 74.0312 41.2656 74.0312
Q47.125 74.0312 52.9531 72.6094
Q58.7969 71.1875 65.9219 67.625
L65.9219 56.1562
L65.1875 56.1562
Q59.1875 61.1875 53.2656 63.4688
Q47.3594 65.7656 40.625 65.7656
Q35.1094 65.7656 30.6875 63.9844
Q26.2656 62.2031 22.7969 58.4531
Q19.4375 54.7812 17.5469 49.1875
Q15.6719 43.6094 15.6719 36.2812
Q15.6719 28.6094 17.75 23.0938
Q19.8281 17.5781 23.0938 14.1094
Q26.5156 10.5 31.0781 8.76562
Q35.6406 7.03125 40.7188 7.03125
Q47.7031 7.03125 53.7969 9.42188
Q59.9062 11.8125 65.2344 16.6094
L65.9219 16.6094
z
" id="Verdana-43"/>
     </defs>
     <g transform="translate(125.28 130.221)scale(0.144 -0.144)">
      <use xlink:href="#Verdana-43"/>
      <use x="69.82421875" xlink:href="#Verdana-75"/>
      <use x="133.10546875" xlink:href="#Verdana-63"/>
      <use x="185.205078125" xlink:href="#Verdana-6b"/>
      <use x="243.384765625" xlink:href="#Verdana-6f"/>
      <use x="304.078125" xlink:href="#Verdana-6f"/>
     </g>
    </g>
    <g id="line2d_38">
     <path d="
M89.28 146.221
L109.44 146.221" style="fill:none;stroke:#bf00bf;stroke-linecap:square;"/>
    </g>
    <g id="line2d_39"/>
    <g id="text_20">
     <!-- qABC -->
     <defs>
      <path d="
M53.2656 -20.125
L44.0938 -20.125
L44.0938 6.15625
Q39.8438 2.48438 35.6406 0.703125
Q31.4531 -1.07812 26.5625 -1.07812
Q16.8438 -1.07812 11.0625 6.42188
Q5.28125 13.9219 5.28125 27.0938
Q5.28125 34.125 7.29688 39.5156
Q9.32812 44.9219 12.6406 48.5781
Q15.875 52.1562 20.2188 54.1094
Q24.5625 56.0625 29.3906 56.0625
Q33.7969 56.0625 37.1875 55.0781
Q40.5781 54.1094 44.0938 52.2031
L44.6719 54.5469
L53.2656 54.5469
z

M44.0938 13.875
L44.0938 44.7344
Q40.2812 46.4375 37.3438 47.1094
Q34.4219 47.7969 31 47.7969
Q23.0469 47.7969 18.8906 42.4062
Q14.75 37.0156 14.75 27.5469
Q14.75 17.9688 18.0938 12.8125
Q21.4375 7.67188 28.6094 7.67188
Q32.625 7.67188 36.625 9.40625
Q40.625 11.1406 44.0938 13.875" id="Verdana-71"/>
     </defs>
     <g transform="translate(125.28 151.26075)scale(0.144 -0.144)">
      <use xlink:href="#Verdana-71"/>
      <use x="62.3046875" xlink:href="#Verdana-41"/>
      <use x="130.6640625" xlink:href="#Verdana-42"/>
      <use x="199.21875" xlink:href="#Verdana-43"/>
     </g>
    </g>
   </g>
  </g>
 </g>
 <defs>
  <clipPath id="p7ff5b81e1d">
   <rect height="345.6" width="446.4" x="72.0" y="43.2"/>
  </clipPath>
 </defs>
</svg>
