<?xml version="1.0" encoding="utf-8" standalone="no"?>
<!DOCTYPE svg PUBLIC "-//W3C//DTD SVG 1.1//EN"
  "http://www.w3.org/Graphics/SVG/1.1/DTD/svg11.dtd">
<!-- Created with matplotlib (http://matplotlib.org/) -->
<svg height="432pt" version="1.1" viewBox="0 0 576 432" width="576pt" xmlns="http://www.w3.org/2000/svg" xmlns:xlink="http://www.w3.org/1999/xlink">
 <defs>
  <style type="text/css">
*{stroke-linecap:butt;stroke-linejoin:round;}
  </style>
 </defs>
 <g id="figure_1">
  <g id="patch_1">
   <path d="
M0 432
L576 432
L576 0
L0 0
z
" style="fill:#ffffff;"/>
  </g>
  <g id="axes_1">
   <g id="patch_2">
    <path d="
M72 388.8
L518.4 388.8
L518.4 43.2
L72 43.2
z
" style="fill:#ffffff;"/>
   </g>
   <g id="line2d_1">
    <path clip-path="url(#p7ff5b81e1d)" d="
M72 388.8
L518.311 388.8
L518.311 388.8" style="fill:none;stroke:#0000ff;stroke-dasharray:6.000000,2.000000;stroke-dashoffset:0.0;"/>
   </g>
   <g id="line2d_2">
    <path clip-path="url(#p7ff5b81e1d)" d="
M72 388.522
L72.0893 388.8
L72.1786 388.8
L72.2678 388.8
L72.4464 388.522
L72.8035 388.522
L72.8928 388.245
L73.0714 388.522
L73.4285 388.522
L73.6963 387.967
L73.7856 387.967
L73.9642 388.522
L74.0534 388.522
L74.6784 386.857
L74.7677 386.857
L74.857 387.412
L74.9462 387.134
L75.1248 387.967
L75.2141 387.967
L75.839 384.359
L75.9283 386.579
L76.0176 386.024
L76.1962 387.967
L76.3747 387.967
L76.5533 388.522
L77.5354 388.522
L78.4282 385.469
L78.6067 384.359
L78.696 384.359
L78.8746 382.693
L79.8566 376.864
L80.0352 374.088
L80.1245 380.75
L80.2138 380.195
L80.3923 379.084
L80.5709 378.252
L80.928 373.81
L81.0173 373.255
L81.1066 381.305
L81.1958 380.472
L81.3744 379.64
L81.553 376.864
L81.7315 375.753
L81.8208 375.476
L82.0886 371.589
L82.2672 370.201
L82.8029 364.65
L82.8922 364.094
L83.16 360.486
L84.2314 350.215
L84.5885 344.941
L84.6778 344.663
L85.0349 340.499
L85.5706 334.947
L85.6598 334.947
L85.9277 331.616
L86.2848 329.673
L86.6419 324.399
L87.2669 317.737
L87.8026 312.185
L87.9811 310.52
L88.7846 302.469
L89.1418 298.306
L89.231 298.028
L89.4096 296.64
L89.4989 296.64
L89.9453 293.309
L90.1238 291.366
L90.5702 289.7
L91.2845 285.814
L91.3738 285.814
L91.463 285.536
L91.6416 284.704
L91.9987 284.704
L92.9808 281.373
L93.1594 280.817
L93.5165 279.707
L93.695 278.874
L93.8736 278.041
L93.9629 278.041
L94.32 277.209
L94.4986 277.209
L94.6771 276.931
L94.8557 276.931
L95.0342 276.653
L95.1235 276.653
L95.3021 276.376
L96.0163 276.376
L96.3734 275.543
L96.552 275.543
L96.7306 275.266
L96.9984 275.266
L97.177 274.988
L97.7126 274.988
L97.8912 274.433
L98.5162 274.433
L98.784 273.878
L99.6768 273.878
L99.8554 273.6
L103.427 273.6
L103.605 273.045
L103.784 273.045
L103.962 272.767
L105.391 272.767
L105.569 272.49
L166.815 272.49
L167.083 271.934
L168.155 271.934
L168.333 271.657
L168.69 271.657
L168.958 271.102
L169.137 271.102
L169.315 270.824
L169.404 270.824
L169.583 270.547
L169.851 270.547
L170.029 269.714
L170.297 268.603
L170.476 268.048
L170.654 267.215
L170.833 266.383
L171.012 266.383
L171.279 265.827
L171.458 264.44
L171.636 264.162
L171.726 264.162
L172.083 262.496
L172.529 261.108
L172.797 259.165
L172.886 259.165
L173.065 257.777
L173.511 256.112
L173.69 254.446
L173.779 254.446
L174.047 252.226
L174.226 251.393
L174.493 248.894
L175.565 239.734
L175.922 236.958
L176.1 235.57
L176.636 231.961
L177.172 226.41
L177.35 225.022
L177.44 225.022
L177.975 222.246
L178.154 221.413
L179.672 212.53
L180.207 211.142
L180.297 211.142
L180.475 210.309
L180.832 209.477
L181.011 209.477
L181.279 208.366
L181.904 208.366
L182.529 206.423
L182.707 204.758
L182.886 204.758
L183.6 202.814
L183.779 202.814
L183.957 202.537
L184.314 202.537
L184.493 202.259
L184.582 202.259
L184.761 201.982
L185.028 201.982
L185.386 201.149
L185.564 201.149
L185.743 200.871
L185.921 200.871
L186.1 200.594
L186.636 200.594
L186.903 200.039
L188.153 200.039
L188.332 199.761
L190.296 199.761
L190.475 199.483
L257.167 199.483
L257.345 199.206
L257.97 199.206
L258.149 198.928
L258.595 198.928
L258.774 198.373
L259.042 198.373
L259.488 197.263
L259.577 197.263
L259.756 196.43
L259.934 195.875
L260.024 195.875
L260.202 195.597
L260.292 195.597
L260.649 193.932
L261.184 191.988
L261.363 191.433
L261.452 191.433
L261.72 189.213
L261.988 189.213
L262.166 187.825
L262.434 186.437
L262.613 186.437
L262.881 185.326
L263.506 181.995
L263.863 180.607
L265.291 172.28
L265.38 172.28
L265.648 171.169
L266.005 169.226
L266.095 169.226
L266.809 165.34
L267.97 161.453
L268.327 159.788
L268.416 159.788
L268.684 158.678
L268.952 157.29
L269.041 157.29
L269.934 154.514
L270.112 153.126
L270.202 153.126
L270.38 152.848
L270.559 152.848
L270.916 152.015
L271.094 152.015
L271.273 151.738
L271.362 151.738
L271.719 150.905
L271.809 150.905
L272.255 149.795
L272.612 149.795
L273.059 148.684
L273.773 148.684
L273.951 148.407
L274.755 148.407
L275.023 147.852
L275.201 147.852
L275.38 147.296
L275.558 147.019
L275.826 147.019
L276.005 146.741
L284.129 146.741
L284.308 146.464
L347.429 146.464
L347.607 146.186
L347.875 146.186
L348.054 145.908
L348.5 145.908
L348.679 145.631
L348.857 145.631
L349.036 145.353
L349.214 145.353
L349.393 145.076
L349.482 145.076
L349.75 144.52
L349.839 144.52
L350.196 143.688
L350.375 143.688
L350.643 143.133
L350.821 143.133
L351 142.022
L351.357 141.189
L351.536 141.189
L352.25 137.303
L352.518 137.303
L352.875 135.638
L353.143 135.638
L353.411 134.527
L353.678 133.694
L354.036 131.196
L354.214 130.919
L354.303 130.919
L355.196 127.865
L355.821 124.534
L357.428 119.26
L357.607 118.149
L358.678 115.096
L358.767 115.096
L359.839 112.042
L360.196 112.042
L360.464 111.487
L360.553 111.487
L360.821 110.932
L362.249 110.932
L362.517 110.377
L363.41 110.377
L363.588 110.099
L363.856 110.099
L364.124 109.544
L364.66 109.544
L364.838 109.267
L364.928 109.267
L365.106 108.989
L368.677 108.989
L368.856 108.711
L376.445 108.711
L376.623 108.434
L436.62 108.434
L436.798 108.156
L437.066 108.156
L437.334 107.601
L437.423 107.601
L437.602 107.323
L438.494 107.323
L438.673 107.046
L439.03 107.046
L439.209 106.768
L439.387 106.768
L439.655 106.213
L439.744 106.213
L440.012 105.658
L440.459 105.658
L440.726 105.103
L441.351 105.103
L441.619 103.992
L441.798 103.992
L442.155 102.327
L442.958 102.327
L443.226 101.772
L443.583 101.772
L443.762 101.216
L444.655 98.7181
L444.744 98.7181
L445.458 96.7749
L445.548 96.7749
L445.815 95.6646
L445.994 95.1094
L446.083 95.1094
L446.44 94.2766
L446.53 94.2766
L446.887 92.6111
L446.976 92.6111
L447.244 92.0559
L447.78 92.0559
L448.137 91.2231
L448.583 91.2231
L448.762 90.668
L448.851 90.668
L449.029 90.3904
L449.208 90.3904
L449.476 89.8352
L450.369 89.8352
L450.726 89.0024
L451.886 89.0024
L452.065 88.7248
L452.779 88.7248
L452.958 88.4472
L453.047 88.4472
L453.226 88.1696
L454.208 88.1696
L454.476 87.6145
L455.458 87.6145
L455.725 87.0593
L518.311 87.0593
L518.311 87.0593" style="fill:none;stroke:#008000;stroke-dasharray:1.000000,1.000000;stroke-dashoffset:0.0;"/>
   </g>
   <g id="line2d_3">
    <path clip-path="url(#p7ff5b81e1d)" d="
M72 388.8
L73.9642 388.8
L74.1427 388.11
L74.4998 388.11
L74.6784 387.42
L74.7677 387.42
L74.9462 388.11
L75.839 388.11
L76.0176 388.8
L94.2307 388.8
L94.4093 388.11
L111.372 388.11
L111.551 387.42
L114.229 387.42
L114.408 386.731
L119.229 386.731
L119.408 386.041
L120.658 386.041
L120.836 385.351
L121.104 385.351
L121.283 384.661
L121.997 384.661
L122.175 383.971
L122.265 383.971
L122.443 383.281
L122.979 383.281
L123.157 382.592
L123.872 382.592
L124.05 381.902
L124.229 381.902
L124.407 381.212
L126.282 381.212
L126.461 380.522
L127.175 380.522
L127.443 379.143
L127.621 379.143
L127.8 378.453
L128.693 378.453
L128.961 377.073
L129.228 377.073
L129.407 376.383
L129.943 376.383
L130.121 375.693
L130.478 375.693
L130.657 375.004
L130.746 375.004
L130.925 373.624
L132.978 373.624
L133.246 372.244
L134.675 372.244
L134.853 371.554
L134.942 371.554
L135.21 370.175
L136.103 370.175
L136.282 369.485
L138.156 369.485
L138.424 368.105
L138.692 368.105
L138.96 366.726
L139.049 366.726
L139.228 366.036
L139.317 366.036
L139.496 365.346
L139.674 365.346
L139.942 363.966
L140.21 363.966
L140.388 363.277
L141.996 363.277
L142.174 362.587
L142.799 362.587
L142.978 361.897
L143.156 361.897
L143.335 361.207
L143.424 361.207
L143.603 360.517
L143.781 360.517
L143.96 359.828
L144.317 359.828
L144.495 358.448
L145.21 358.448
L145.567 356.378
L146.192 356.378
L146.37 354.999
L147.263 354.999
L147.709 352.24
L147.799 352.24
L147.977 351.55
L148.513 351.55
L148.781 350.17
L149.674 350.17
L150.031 348.101
L151.013 348.101
L151.459 345.341
L151.548 345.341
L151.727 344.651
L151.816 344.651
L151.995 343.962
L152.173 343.962
L152.352 342.582
L152.62 341.202
L152.798 341.202
L153.066 339.823
L153.334 339.823
L153.513 339.133
L153.959 339.133
L154.852 332.925
L155.12 332.925
L155.298 332.235
L155.745 332.235
L155.923 331.545
L156.28 331.545
L156.459 330.855
L157.173 330.855
L157.441 329.475
L157.887 329.475
L158.423 326.026
L159.048 326.026
L159.316 324.647
L159.852 324.647
L160.03 323.957
L160.476 323.957
L160.655 323.267
L161.101 323.267
L161.726 319.128
L161.905 319.128
L162.708 313.61
L162.976 313.61
L163.155 312.92
L163.244 312.92
L163.512 311.54
L163.691 311.54
L163.958 310.16
L165.208 310.16
L165.387 309.471
L165.655 309.471
L165.833 306.711
L166.19 304.642
L166.458 304.642
L166.815 302.572
L166.994 302.572
L167.53 299.123
L167.797 299.123
L167.976 298.434
L168.155 298.434
L168.601 295.674
L168.78 295.674
L168.958 294.984
L169.047 294.984
L169.226 294.295
L169.315 294.295
L169.494 293.605
L169.672 293.605
L170.029 291.535
L170.119 291.535
L170.297 290.846
L170.387 290.846
L170.654 289.466
L171.101 289.466
L171.279 288.086
L171.547 286.707
L171.815 286.707
L172.529 281.878
L173.065 281.878
L173.244 281.188
L173.422 281.188
L173.601 280.498
L173.69 280.498
L173.868 279.808
L173.958 279.808
L174.136 279.119
L174.493 279.119
L174.672 278.429
L174.761 278.429
L174.94 277.739
L175.476 277.739
L175.833 275.669
L176.011 275.669
L176.19 274.98
L176.279 274.98
L176.458 274.29
L176.725 274.29
L176.904 273.6
L176.993 273.6
L177.618 269.461
L177.797 269.461
L178.065 268.081
L178.332 268.081
L178.69 266.012
L178.868 266.012
L179.047 265.322
L179.136 265.322
L179.315 263.253
L179.404 263.253
L179.761 261.183
L179.94 261.183
L180.118 260.493
L180.207 260.493
L180.386 259.804
L180.475 259.804
L181.547 252.216
L181.636 252.216
L181.814 251.526
L182.439 251.526
L183.154 246.697
L183.332 246.697
L183.511 246.007
L183.6 246.007
L183.779 244.628
L183.868 244.628
L184.046 243.938
L184.136 243.938
L184.314 243.248
L184.582 243.248
L184.85 240.489
L185.028 240.489
L185.207 239.799
L185.475 239.799
L186.189 234.97
L186.278 234.97
L186.457 234.28
L186.546 234.28
L186.725 233.59
L186.993 233.59
L187.171 232.901
L187.35 232.901
L187.618 231.521
L187.885 231.521
L188.064 230.831
L188.153 230.831
L188.421 229.451
L188.6 229.451
L188.778 227.382
L188.957 227.382
L189.582 223.243
L189.85 223.243
L190.028 222.553
L190.207 222.553
L190.475 221.174
L190.653 221.174
L190.921 219.794
L191.546 219.794
L191.992 217.035
L192.349 217.035
L192.617 215.655
L192.707 215.655
L192.885 213.586
L193.153 213.586
L193.332 212.896
L193.599 212.896
L193.867 211.516
L194.046 211.516
L194.224 210.826
L194.403 210.826
L194.581 210.137
L194.671 210.137
L194.849 209.447
L195.028 209.447
L195.296 206.687
L195.474 205.998
L196.099 205.998
L196.456 203.928
L196.546 203.928
L196.813 202.549
L196.992 202.549
L197.438 199.789
L197.617 199.789
L197.796 199.099
L197.885 199.099
L198.063 198.41
L198.51 198.41
L198.688 197.72
L198.867 197.72
L199.313 194.96
L199.403 194.96
L199.581 194.271
L199.76 194.271
L200.028 192.891
L200.117 192.891
L200.831 188.062
L200.92 188.062
L201.099 186.683
L201.724 186.683
L202.17 183.923
L202.527 183.923
L202.706 183.234
L202.795 183.234
L203.063 181.854
L203.152 181.854
L203.42 180.474
L203.509 180.474
L203.777 179.095
L204.045 179.095
L204.313 177.715
L204.759 177.715
L205.027 176.335
L205.384 176.335
L205.563 175.646
L206.009 175.646
L206.366 173.576
L207.081 173.576
L207.438 171.507
L207.527 171.507
L207.706 170.817
L208.152 170.817
L208.331 170.127
L208.866 170.127
L209.045 169.437
L209.402 169.437
L209.58 168.747
L209.67 168.747
L209.848 168.057
L210.295 168.057
L210.741 165.298
L211.188 165.298
L211.366 164.608
L211.455 164.608
L211.634 162.539
L211.812 162.539
L211.991 161.849
L212.08 161.849
L212.348 160.469
L212.437 160.469
L212.705 159.09
L212.884 159.09
L213.509 154.951
L214.044 154.951
L214.223 154.261
L214.312 154.261
L214.491 152.881
L214.58 152.881
L214.759 151.502
L215.027 151.502
L215.473 148.743
L215.562 148.743
L215.741 148.053
L216.187 148.053
L216.455 146.673
L216.901 146.673
L217.08 145.983
L217.705 145.983
L217.973 144.604
L218.241 144.604
L218.955 139.775
L219.312 139.775
L219.758 137.016
L219.848 137.016
L220.026 136.326
L220.294 136.326
L220.562 134.946
L220.651 134.946
L220.919 133.566
L221.008 133.566
L221.187 132.877
L221.812 132.877
L221.99 132.187
L222.437 132.187
L222.615 131.497
L222.794 131.497
L223.062 130.117
L223.24 130.117
L223.597 128.048
L224.133 128.048
L224.312 127.358
L224.58 127.358
L224.758 126.668
L225.472 126.668
L225.651 125.289
L226.187 121.84
L226.365 121.84
L226.633 120.46
L226.901 120.46
L227.079 119.77
L227.436 119.77
L227.704 118.39
L227.794 118.39
L227.972 117.701
L228.151 117.701
L228.329 117.011
L228.508 117.011
L229.579 109.423
L229.847 109.423
L230.026 108.733
L230.383 108.733
L230.561 108.043
L230.829 108.043
L231.097 106.663
L231.365 106.663
L231.633 105.284
L231.811 105.284
L232.436 101.145
L232.615 101.145
L232.883 98.3856
L233.061 97.6958
L233.418 97.6958
L233.686 96.3162
L234.222 96.3162
L234.668 93.5569
L235.204 93.5569
L235.472 92.1772
L235.561 92.1772
L235.74 91.4874
L236.811 91.4874
L236.989 90.7976
L237.168 90.7976
L237.347 90.1078
L237.614 90.1078
L237.793 89.418
L237.972 89.418
L238.329 87.3485
L238.686 87.3485
L238.864 86.6587
L239.757 86.6587
L239.936 85.9689
L240.293 85.9689
L240.739 83.2096
L241.989 83.2096
L242.168 81.8299
L242.525 81.8299
L242.882 79.7605
L243.328 79.7605
L243.507 79.0707
L244.132 79.0707
L244.31 78.3808
L245.471 78.3808
L245.65 77.691
L245.739 77.691
L245.917 77.0012
L247.167 77.0012
L247.435 75.6216
L247.614 75.6216
L247.882 74.2419
L248.596 74.2419
L248.864 72.8623
L249.221 72.8623
L249.399 72.1725
L250.203 72.1725
L250.471 70.7928
L250.56 70.7928
L250.917 68.7234
L251.096 68.7234
L251.274 68.0335
L251.364 68.0335
L251.542 67.3437
L251.631 67.3437
L251.81 66.6539
L254.578 66.6539
L254.845 65.2743
L257.077 65.2743
L257.435 63.2048
L257.881 63.2048
L258.06 61.8251
L258.327 61.8251
L258.506 61.1353
L258.684 61.1353
L258.863 60.4455
L259.667 60.4455
L259.934 59.0659
L261.184 59.0659
L261.363 58.376
L261.452 58.376
L261.631 57.6862
L262.166 57.6862
L262.345 56.9964
L262.434 56.9964
L262.613 56.3066
L262.97 56.3066
L263.238 54.9269
L270.38 54.9269
L270.559 54.2371
L270.648 54.2371
L270.827 53.5473
L272.434 53.5473
L272.612 52.8575
L273.773 52.8575
L273.951 52.1677
L274.13 52.1677
L274.398 50.788
L281.54 50.788
L281.719 50.0982
L282.79 50.0982
L283.058 48.7186
L283.772 48.7186
L283.951 48.0287
L288.95 48.0287
L289.129 47.3389
L289.218 47.3389
L289.397 46.6491
L291.718 46.6491
L291.897 45.9593
L298.86 45.9593
L299.039 45.2695
L304.932 45.2695
L305.11 43.8898
L329.573 43.8898
L329.751 43.2
L518.311 43.2
L518.311 43.2" style="fill:none;stroke:#ff0000;stroke-dasharray:3.000000,6.000000;stroke-dashoffset:0.0;"/>
   </g>
   <g id="line2d_4">
    <path clip-path="url(#p7ff5b81e1d)" d="
M72 388.8
L72.7142 388.8
L72.8928 388.11
L73.0714 388.8
L73.5178 388.8
L73.6963 387.42
L73.7856 387.42
L73.9642 388.11
L76.0176 388.11
L76.1962 388.8
L90.3024 388.8
L90.481 388.11
L101.284 388.11
L101.462 387.42
L111.819 387.42
L111.997 386.731
L112.622 386.731
L112.801 386.041
L119.14 386.041
L119.318 385.351
L121.908 385.351
L122.086 384.661
L122.711 384.661
L122.89 383.971
L126.193 383.971
L126.372 382.592
L129.407 382.592
L129.586 381.902
L133.068 381.902
L133.246 381.212
L136.282 381.212
L136.46 380.522
L136.639 380.522
L136.907 379.143
L140.031 379.143
L140.299 377.763
L140.746 377.763
L140.924 377.073
L143.603 377.073
L143.781 376.383
L144.049 376.383
L144.228 375.693
L146.995 375.693
L147.174 375.004
L147.62 375.004
L147.799 374.314
L148.424 374.314
L148.692 372.934
L148.87 372.934
L149.049 372.244
L150.477 372.244
L150.656 371.554
L150.924 371.554
L151.102 370.865
L151.191 370.865
L151.548 368.795
L151.638 368.795
L151.816 368.105
L151.906 368.105
L152.173 366.726
L154.138 366.726
L154.316 366.036
L154.584 366.036
L154.852 364.656
L154.941 364.656
L155.12 362.587
L155.566 362.587
L155.745 361.897
L157.977 361.897
L158.155 361.207
L158.602 361.207
L158.78 360.517
L159.137 360.517
L159.316 359.828
L160.834 359.828
L161.012 359.138
L161.28 359.138
L161.459 358.448
L161.726 358.448
L161.994 357.068
L162.708 357.068
L162.887 355.689
L163.066 354.999
L164.405 354.999
L164.583 354.309
L164.851 354.309
L165.03 352.929
L165.298 351.55
L165.387 351.55
L165.565 350.86
L165.744 350.86
L165.923 349.48
L166.19 349.48
L166.458 348.101
L168.333 348.101
L168.512 347.411
L169.404 347.411
L170.119 342.582
L171.547 342.582
L171.726 341.892
L172.351 341.892
L172.708 339.823
L172.976 339.823
L173.333 334.994
L173.422 334.994
L173.779 332.925
L174.493 332.925
L174.672 332.235
L175.476 332.235
L175.654 330.855
L175.743 330.855
L175.922 328.786
L176.279 328.786
L176.458 328.096
L176.725 328.096
L177.083 326.026
L179.047 326.026
L179.672 321.887
L179.761 321.887
L180.118 318.438
L180.386 314.989
L180.475 314.989
L180.743 313.61
L182.35 313.61
L182.529 312.92
L182.796 312.92
L183.421 308.781
L183.779 308.781
L183.957 308.091
L184.225 308.091
L184.314 307.401
L184.493 305.332
L184.85 305.332
L185.028 304.642
L185.653 304.642
L185.832 303.952
L186.189 303.952
L186.636 297.744
L186.725 297.744
L186.903 295.674
L187.26 295.674
L187.618 292.225
L187.975 287.396
L188.243 287.396
L188.421 286.707
L188.51 286.707
L188.689 286.017
L188.778 286.017
L188.957 285.327
L189.939 285.327
L190.475 281.878
L190.564 281.878
L190.742 280.498
L190.832 280.498
L191.01 279.119
L191.457 276.359
L192.796 276.359
L193.064 274.98
L193.332 274.98
L193.51 272.22
L195.206 259.804
L196.01 259.804
L196.188 259.114
L196.903 259.114
L197.081 256.354
L197.26 255.665
L197.528 255.665
L197.974 252.905
L198.063 252.905
L198.51 248.766
L198.688 247.387
L200.652 247.387
L200.742 246.697
L201.01 242.558
L201.099 242.558
L201.545 239.799
L201.635 239.799
L201.902 236.35
L202.081 236.35
L202.26 235.66
L203.599 235.66
L203.777 234.97
L203.956 234.97
L204.224 233.59
L204.313 233.59
L204.581 232.211
L204.938 232.211
L205.116 230.831
L205.295 227.382
L205.384 227.382
L205.741 223.243
L206.902 223.243
L207.081 222.553
L207.616 222.553
L208.152 219.104
L208.241 219.104
L208.42 217.725
L208.598 217.725
L209.134 214.275
L209.223 214.275
L209.402 212.896
L210.295 212.896
L210.652 210.826
L211.188 210.826
L211.366 209.447
L212.08 204.618
L212.348 204.618
L212.527 203.238
L212.705 201.169
L212.884 200.479
L213.866 200.479
L214.134 199.099
L214.491 199.099
L214.937 194.96
L215.116 190.132
L215.205 190.132
L215.384 188.062
L215.562 187.372
L215.652 187.372
L215.83 185.993
L216.366 185.993
L216.544 185.303
L216.812 185.303
L216.991 184.613
L217.08 184.613
L217.259 183.923
L217.348 183.923
L217.526 183.234
L217.705 183.234
L217.884 182.544
L218.151 182.544
L219.044 176.335
L219.312 176.335
L219.669 174.266
L219.848 174.266
L220.116 172.886
L221.812 172.886
L222.258 170.127
L222.437 167.368
L222.794 165.298
L222.883 165.298
L223.419 161.849
L223.508 161.849
L223.776 160.469
L224.937 160.469
L225.204 159.09
L225.294 159.09
L225.562 157.71
L225.651 157.71
L226.544 151.502
L226.901 151.502
L227.079 150.812
L227.526 150.812
L227.794 149.432
L228.061 149.432
L228.24 148.053
L229.133 148.053
L229.579 145.293
L229.936 145.293
L230.115 143.914
L230.472 141.844
L230.561 141.844
L231.008 139.085
L231.811 139.085
L231.99 138.395
L232.615 138.395
L233.15 134.946
L233.329 134.946
L233.597 133.566
L234.043 133.566
L234.579 130.117
L234.757 130.117
L234.936 128.738
L235.115 128.738
L235.293 128.048
L235.74 128.048
L236.097 125.978
L236.543 125.978
L236.722 124.599
L236.9 123.909
L236.989 123.909
L237.168 122.529
L237.347 122.529
L237.704 120.46
L238.418 120.46
L238.596 119.77
L239.043 119.77
L239.221 118.39
L239.757 118.39
L240.204 115.631
L240.293 115.631
L240.471 113.562
L240.918 113.562
L241.096 112.182
L241.364 112.182
L241.543 111.492
L241.811 111.492
L241.989 110.802
L242.882 110.802
L243.15 109.423
L243.328 109.423
L243.596 108.043
L243.775 108.043
L244.043 106.663
L244.132 106.663
L244.31 105.284
L244.4 105.284
L244.757 103.214
L244.935 103.214
L245.203 101.835
L245.65 101.835
L245.828 101.145
L246.632 101.145
L246.81 100.455
L247.346 100.455
L247.614 99.0754
L247.882 99.0754
L248.06 97.006
L248.596 97.006
L248.774 96.3162
L249.31 96.3162
L249.756 93.5569
L251.364 93.5569
L251.542 91.4874
L251.631 91.4874
L251.988 89.418
L252.792 89.418
L252.971 88.7281
L253.863 88.7281
L254.22 86.6587
L255.47 86.6587
L255.738 85.279
L256.095 85.279
L256.274 84.5892
L257.077 84.5892
L257.256 83.8994
L257.435 83.8994
L257.792 81.8299
L257.97 81.8299
L258.149 81.1401
L258.327 81.1401
L258.684 79.0707
L258.774 79.0707
L258.952 78.3808
L260.024 78.3808
L260.292 77.0012
L261.274 77.0012
L261.452 76.3114
L263.416 76.3114
L263.595 75.6216
L264.756 75.6216
L264.934 74.9317
L265.113 74.9317
L265.291 74.2419
L265.648 74.2419
L265.827 73.5521
L265.916 73.5521
L266.095 72.8623
L268.416 72.8623
L268.595 70.7928
L268.862 69.4132
L268.952 69.4132
L269.13 68.7234
L271.987 68.7234
L272.166 68.0335
L272.434 68.0335
L272.612 67.3437
L274.666 67.3437
L274.844 66.6539
L275.469 66.6539
L275.648 65.2743
L275.737 65.2743
L275.916 64.5844
L276.094 64.5844
L276.273 63.8946
L279.13 63.8946
L279.308 63.2048
L280.201 63.2048
L280.469 61.8251
L281.54 61.8251
L281.719 61.1353
L282.254 61.1353
L282.433 59.7557
L283.326 59.7557
L283.504 59.0659
L284.219 59.0659
L284.397 57.6862
L285.201 57.6862
L285.379 56.9964
L285.647 56.9964
L285.826 56.3066
L287.433 56.3066
L287.611 55.6168
L290.022 55.6168
L290.2 54.9269
L290.468 54.9269
L290.647 54.2371
L292.7 54.2371
L292.879 53.5473
L293.861 53.5473
L294.039 52.8575
L297.075 52.8575
L297.253 52.1677
L297.968 52.1677
L298.146 51.4778
L298.236 51.4778
L298.414 50.788
L300.646 50.788
L300.825 50.0982
L301.539 50.0982
L301.717 49.4084
L305.646 49.4084
L305.824 48.7186
L307.431 48.7186
L307.61 48.0287
L308.592 48.0287
L308.86 46.6491
L311.003 46.6491
L311.181 45.9593
L318.77 45.9593
L318.948 45.2695
L320.466 45.2695
L320.645 44.5796
L355.553 44.5796
L355.732 43.8898
L362.696 43.8898
L362.874 43.2
L518.311 43.2
L518.311 43.2" style="fill:none;stroke:#00bfbf;stroke-dasharray:5.000000,1.000000,2.000000,1.000000,5.000000,1.000000;stroke-dashoffset:0.0;"/>
   </g>
   <g id="line2d_5">
    <path clip-path="url(#p7ff5b81e1d)" d="
M72 388.8
L72.0893 387.652
L72.1786 387.652
L72.4464 387.652
L72.7142 386.504
L73.1606 386.504
L73.3392 387.652
L73.7856 387.652
L73.9642 388.8
L74.232 388.8
L74.4106 388.226
L74.7677 388.226
L74.9462 388.8
L80.4816 388.8
L80.7494 387.652
L81.0173 387.652
L81.1958 388.8
L82.7136 388.8
L82.8922 388.226
L83.2493 388.226
L83.5171 385.93
L83.6064 385.93
L83.6957 385.355
L83.9635 381.911
L84.0528 381.911
L84.3206 379.615
L86.1955 379.615
L86.6419 376.744
L86.8205 375.022
L86.9098 374.448
L87.0883 372.726
L87.7133 368.707
L87.9811 364.688
L88.4275 364.688
L88.6954 361.818
L89.3203 361.818
L89.4989 361.244
L89.7667 361.244
L89.9453 358.373
L90.481 350.91
L90.6595 348.04
L90.9274 343.447
L91.7309 329.669
L92.5344 329.669
L92.713 329.095
L92.8022 329.095
L92.9808 328.521
L93.1594 328.521
L93.3379 327.947
L93.6058 318.187
L93.7843 315.891
L95.2128 271.686
L95.3914 271.686
L95.5699 271.112
L96.552 271.112
L96.9984 268.242
L97.6234 250.445
L98.3376 226.908
L98.4269 225.185
L98.6947 215.426
L99.1411 215.426
L99.3197 214.852
L99.6768 214.852
L99.9446 213.704
L100.212 213.704
L100.48 212.555
L100.748 203.944
L100.927 198.203
L101.105 191.314
L101.552 182.129
L101.909 170.073
L102.355 162.036
L102.534 162.036
L102.712 161.462
L102.802 161.462
L102.98 160.888
L103.069 160.888
L103.248 160.314
L103.427 160.314
L103.605 159.74
L103.784 159.74
L103.962 159.165
L104.141 159.165
L104.319 155.721
L104.409 154.573
L104.766 143.091
L104.944 139.647
L105.212 132.183
L105.301 131.609
L105.659 123.572
L105.748 123.572
L105.926 122.998
L106.194 122.998
L106.373 122.424
L107.623 122.424
L107.712 121.85
L108.158 112.664
L108.426 110.368
L108.873 105.201
L108.962 105.201
L109.23 100.035
L109.498 97.1641
L110.301 97.1641
L110.48 96.59
L111.283 96.59
L112.176 90.2751
L112.355 87.4047
L112.444 87.4047
L112.98 81.6638
L113.069 81.6638
L113.247 81.0897
L114.765 81.0897
L115.122 78.2193
L115.39 73.6266
L115.569 70.7561
L115.747 70.7561
L116.461 66.7375
L116.551 66.7375
L116.729 66.1635
L118.604 66.1635
L119.765 59.2744
L120.033 59.2744
L120.211 58.7003
L121.104 58.7003
L121.283 58.1262
L121.908 58.1262
L122.086 56.9781
L122.265 56.9781
L122.532 55.8299
L122.622 55.8299
L122.8 53.5336
L123.247 53.5336
L123.425 52.9595
L123.604 52.9595
L123.782 52.3854
L125.479 52.3854
L125.747 51.2372
L125.836 51.2372
L126.193 49.515
L126.729 49.515
L126.907 48.3668
L126.996 48.3668
L127.175 47.7927
L127.443 47.7927
L127.621 47.2186
L129.228 47.2186
L129.586 45.4963
L130.032 45.4963
L130.3 44.3482
L136.371 44.3482
L136.549 43.7741
L138.335 43.7741
L138.514 43.2
L518.311 43.2
L518.311 43.2" style="fill:none;stroke:#bf00bf;stroke-linecap:square;"/>
   </g>
   <g id="matplotlib.axis_1">
    <g id="xtick_1">
     <g id="line2d_6">
      <defs>
       <path d="
M0 0
L0 -4" id="mc7db9fdffb" style="stroke:#000000;stroke-width:0.5;"/>
      </defs>
      <g>
       <use style="stroke:#000000;stroke-width:0.5;" x="72.0" xlink:href="#mc7db9fdffb" y="388.8"/>
      </g>
     </g>
     <g id="line2d_7">
      <defs>
       <path d="
M0 0
L0 4" id="m5a7d422ac3" style="stroke:#000000;stroke-width:0.5;"/>
      </defs>
      <g>
       <use style="stroke:#000000;stroke-width:0.5;" x="72.0" xlink:href="#m5a7d422ac3" y="43.2"/>
      </g>
     </g>
     <g id="text_1">
      <!-- 0 -->
      <defs>
       <path d="
M56.9844 36.375
Q56.9844 16.7969 50.8594 7.64062
Q44.7344 -1.51562 31.8438 -1.51562
Q18.75 -1.51562 12.7188 7.76562
Q6.6875 17.0469 6.6875 36.2812
Q6.6875 55.6719 12.7812 64.9219
Q18.8906 74.1719 31.8438 74.1719
Q44.9219 74.1719 50.9531 64.7656
Q56.9844 55.375 56.9844 36.375
M44.1406 14.2031
Q45.8438 18.1719 46.4531 23.5156
Q47.0781 28.8594 47.0781 36.375
Q47.0781 43.7969 46.4531 49.2656
Q45.8438 54.7344 44.0938 58.5469
Q42.3906 62.3125 39.4219 64.2031
Q36.4688 66.1094 31.8438 66.1094
Q27.25 66.1094 24.2344 64.2031
Q21.2344 62.3125 19.4844 58.4531
Q17.8281 54.8281 17.2188 49.0156
Q16.6094 43.2188 16.6094 36.2812
Q16.6094 28.6562 17.1406 23.5312
Q17.6719 18.4062 19.4375 14.3594
Q21.0469 10.5469 24 8.54688
Q26.9531 6.54688 31.8438 6.54688
Q36.4219 6.54688 39.4531 8.45312
Q42.4844 10.3594 44.1406 14.2031" id="Verdana-30"/>
      </defs>
      <g transform="translate(68.9821875 401.918125)scale(0.12 -0.12)">
       <use xlink:href="#Verdana-30"/>
      </g>
     </g>
    </g>
    <g id="xtick_2">
     <g id="line2d_8">
      <g>
       <use style="stroke:#000000;stroke-width:0.5;" x="161.28" xlink:href="#mc7db9fdffb" y="388.8"/>
      </g>
     </g>
     <g id="line2d_9">
      <g>
       <use style="stroke:#000000;stroke-width:0.5;" x="161.28" xlink:href="#m5a7d422ac3" y="43.2"/>
      </g>
     </g>
     <g id="text_2">
      <!-- 1000 -->
      <defs>
       <path d="
M52.9375 0
L13.5781 0
L13.5781 7.42188
L28.7188 7.42188
L28.7188 56.1562
L13.5781 56.1562
L13.5781 62.7969
Q16.6562 62.7969 20.1719 63.2969
Q23.6875 63.8125 25.4844 64.7969
Q27.7344 66.0156 29.0312 67.8906
Q30.3281 69.7812 30.5156 72.9531
L38.0938 72.9531
L38.0938 7.42188
L52.9375 7.42188
z
" id="Verdana-31"/>
      </defs>
      <g transform="translate(147.2315625 401.918125)scale(0.12 -0.12)">
       <use xlink:href="#Verdana-31"/>
       <use x="63.57421875" xlink:href="#Verdana-30"/>
       <use x="127.1484375" xlink:href="#Verdana-30"/>
       <use x="190.72265625" xlink:href="#Verdana-30"/>
      </g>
     </g>
    </g>
    <g id="xtick_3">
     <g id="line2d_10">
      <g>
       <use style="stroke:#000000;stroke-width:0.5;" x="250.56" xlink:href="#mc7db9fdffb" y="388.8"/>
      </g>
     </g>
     <g id="line2d_11">
      <g>
       <use style="stroke:#000000;stroke-width:0.5;" x="250.56" xlink:href="#m5a7d422ac3" y="43.2"/>
      </g>
     </g>
     <g id="text_3">
      <!-- 2000 -->
      <defs>
       <path d="
M57.0781 0
L7.85938 0
L7.85938 10.2031
Q12.9844 14.5938 18.1406 18.9844
Q23.2969 23.3906 27.7344 27.7344
Q37.1094 36.8125 40.5781 42.1562
Q44.0469 47.5156 44.0469 53.7188
Q44.0469 59.375 40.3125 62.5625
Q36.5781 65.7656 29.8906 65.7656
Q25.4375 65.7656 20.2656 64.2031
Q15.0938 62.6406 10.1562 59.4219
L9.67188 59.4219
L9.67188 69.6719
Q13.1406 71.3906 18.9219 72.7969
Q24.7031 74.2188 30.125 74.2188
Q41.3125 74.2188 47.6562 68.8125
Q54 63.4219 54 54.2031
Q54 50.0469 52.9531 46.4531
Q51.9062 42.875 49.8594 39.6562
Q47.9531 36.625 45.3906 33.6875
Q42.8281 30.7656 39.1562 27.2031
Q33.9375 22.0781 28.3594 17.2656
Q22.7969 12.4531 17.9688 8.34375
L57.0781 8.34375
z
" id="Verdana-32"/>
      </defs>
      <g transform="translate(236.1684375 401.918125)scale(0.12 -0.12)">
       <use xlink:href="#Verdana-32"/>
       <use x="63.57421875" xlink:href="#Verdana-30"/>
       <use x="127.1484375" xlink:href="#Verdana-30"/>
       <use x="190.72265625" xlink:href="#Verdana-30"/>
      </g>
     </g>
    </g>
    <g id="xtick_4">
     <g id="line2d_12">
      <g>
       <use style="stroke:#000000;stroke-width:0.5;" x="339.84" xlink:href="#mc7db9fdffb" y="388.8"/>
      </g>
     </g>
     <g id="line2d_13">
      <g>
       <use style="stroke:#000000;stroke-width:0.5;" x="339.84" xlink:href="#m5a7d422ac3" y="43.2"/>
      </g>
     </g>
     <g id="text_4">
      <!-- 3000 -->
      <defs>
       <path d="
M50.6875 35.0156
Q53.0312 32.9062 54.5469 29.7344
Q56.0625 26.5625 56.0625 21.5312
Q56.0625 16.5469 54.25 12.3906
Q52.4375 8.25 49.1719 5.17188
Q45.5156 1.76562 40.5469 0.125
Q35.5938 -1.51562 29.6875 -1.51562
Q23.6406 -1.51562 17.7812 -0.0625
Q11.9219 1.375 8.15625 3.07812
L8.15625 13.2812
L8.89062 13.2812
Q13.0312 10.5469 18.6406 8.73438
Q24.2656 6.9375 29.5 6.9375
Q32.5625 6.9375 36.0312 7.95312
Q39.5 8.98438 41.6562 10.9844
Q43.8906 13.1406 44.9844 15.7188
Q46.0938 18.3125 46.0938 22.2656
Q46.0938 26.1719 44.8438 28.7344
Q43.6094 31.2969 41.4062 32.7656
Q39.2031 34.2812 36.0781 34.8438
Q32.9531 35.4062 29.3438 35.4062
L24.9531 35.4062
L24.9531 43.5
L28.375 43.5
Q35.7969 43.5 40.2031 46.5938
Q44.625 49.7031 44.625 55.6719
Q44.625 58.2969 43.5 60.2656
Q42.3906 62.25 40.375 63.5312
Q38.2812 64.7969 35.8906 65.2812
Q33.5 65.7656 30.4688 65.7656
Q25.8281 65.7656 20.5938 64.1094
Q15.375 62.4531 10.75 59.4219
L10.25 59.4219
L10.25 69.625
Q13.7188 71.3438 19.5 72.7812
Q25.2969 74.2188 30.7188 74.2188
Q36.0312 74.2188 40.0781 73.2344
Q44.1406 72.2656 47.4062 70.125
Q50.9219 67.7812 52.7344 64.4531
Q54.5469 61.1406 54.5469 56.6875
Q54.5469 50.6406 50.2656 46.125
Q46 41.6094 40.1875 40.4375
L40.1875 39.75
Q42.5312 39.3594 45.5469 38.1094
Q48.5781 36.8594 50.6875 35.0156" id="Verdana-33"/>
      </defs>
      <g transform="translate(325.46625 401.918125)scale(0.12 -0.12)">
       <use xlink:href="#Verdana-33"/>
       <use x="63.57421875" xlink:href="#Verdana-30"/>
       <use x="127.1484375" xlink:href="#Verdana-30"/>
       <use x="190.72265625" xlink:href="#Verdana-30"/>
      </g>
     </g>
    </g>
    <g id="xtick_5">
     <g id="line2d_14">
      <g>
       <use style="stroke:#000000;stroke-width:0.5;" x="429.12" xlink:href="#mc7db9fdffb" y="388.8"/>
      </g>
     </g>
     <g id="line2d_15">
      <g>
       <use style="stroke:#000000;stroke-width:0.5;" x="429.12" xlink:href="#m5a7d422ac3" y="43.2"/>
      </g>
     </g>
     <g id="text_5">
      <!-- 4000 -->
      <defs>
       <path d="
M58.7344 20.4531
L47.9531 20.4531
L47.9531 0
L38.5781 0
L38.5781 20.4531
L3.76562 20.4531
L3.76562 31.6875
L38.9688 72.7031
L47.9531 72.7031
L47.9531 28.2656
L58.7344 28.2656
z

M38.5781 28.2656
L38.5781 61.0781
L10.4062 28.2656
z
" id="Verdana-34"/>
      </defs>
      <g transform="translate(414.4828125 401.918125)scale(0.12 -0.12)">
       <use xlink:href="#Verdana-34"/>
       <use x="63.57421875" xlink:href="#Verdana-30"/>
       <use x="127.1484375" xlink:href="#Verdana-30"/>
       <use x="190.72265625" xlink:href="#Verdana-30"/>
      </g>
     </g>
    </g>
    <g id="xtick_6">
     <g id="line2d_16">
      <g>
       <use style="stroke:#000000;stroke-width:0.5;" x="518.4" xlink:href="#mc7db9fdffb" y="388.8"/>
      </g>
     </g>
     <g id="line2d_17">
      <g>
       <use style="stroke:#000000;stroke-width:0.5;" x="518.4" xlink:href="#m5a7d422ac3" y="43.2"/>
      </g>
     </g>
     <g id="text_6">
      <!-- 5000 -->
      <defs>
       <path d="
M56.5 23.0938
Q56.5 18.0156 54.6406 13.375
Q52.7812 8.73438 49.5625 5.5625
Q46.0469 2.15625 41.1875 0.3125
Q36.3281 -1.51562 29.9375 -1.51562
Q23.9688 -1.51562 18.4531 -0.265625
Q12.9375 0.984375 9.125 2.73438
L9.125 13.0312
L9.8125 13.0312
Q13.8125 10.5 19.1875 8.71875
Q24.5625 6.9375 29.7344 6.9375
Q33.2031 6.9375 36.4531 7.90625
Q39.7031 8.89062 42.2344 11.3281
Q44.3906 13.4219 45.4844 16.3438
Q46.5781 19.2812 46.5781 23.1406
Q46.5781 26.9062 45.2812 29.4844
Q44 32.0781 41.7031 33.6406
Q39.1562 35.5 35.5156 36.25
Q31.8906 37.0156 27.3906 37.0156
Q23.0938 37.0156 19.1094 36.4219
Q15.1406 35.8438 12.25 35.25
L12.25 72.7031
L56 72.7031
L56 64.1562
L21.6875 64.1562
L21.6875 44.8281
Q23.7812 45.0156 25.9688 45.1094
Q28.1719 45.2188 29.7812 45.2188
Q35.6875 45.2188 40.125 44.2188
Q44.5781 43.2188 48.2969 40.6719
Q52.2031 37.9844 54.3438 33.7344
Q56.5 29.5 56.5 23.0938" id="Verdana-35"/>
      </defs>
      <g transform="translate(504.084375 401.918125)scale(0.12 -0.12)">
       <use xlink:href="#Verdana-35"/>
       <use x="63.57421875" xlink:href="#Verdana-30"/>
       <use x="127.1484375" xlink:href="#Verdana-30"/>
       <use x="190.72265625" xlink:href="#Verdana-30"/>
      </g>
     </g>
    </g>
    <g id="text_7">
     <!-- Objective function exectuions -->
     <defs>
      <path d="
M63.9688 64.3594
Q68.4062 59.4688 70.7656 52.3906
Q73.1406 45.3125 73.1406 36.3281
Q73.1406 27.3438 70.7188 20.2344
Q68.3125 13.1406 63.9688 8.40625
Q59.4688 3.46875 53.3438 0.96875
Q47.2188 -1.51562 39.3594 -1.51562
Q31.6875 -1.51562 25.4062 1.01562
Q19.1406 3.5625 14.75 8.40625
Q10.3594 13.2344 7.98438 20.2656
Q5.60938 27.2969 5.60938 36.3281
Q5.60938 45.2188 7.95312 52.2656
Q10.2969 59.3281 14.7969 64.3594
Q19.0938 69.1406 25.4688 71.6719
Q31.8438 74.2188 39.3594 74.2188
Q47.1719 74.2188 53.3906 71.6562
Q59.625 69.0938 63.9688 64.3594
M63.0938 36.3281
Q63.0938 50.4844 56.7344 58.1719
Q50.3906 65.875 39.4062 65.875
Q28.3281 65.875 22 58.1719
Q15.6719 50.4844 15.6719 36.3281
Q15.6719 22.0156 22.1094 14.4219
Q28.5625 6.84375 39.4062 6.84375
Q50.25 6.84375 56.6719 14.4219
Q63.0938 22.0156 63.0938 36.3281" id="Verdana-4f"/>
      <path d="
M38.375 67.0938
L37.8906 67.0938
Q36.375 67.5312 33.9375 67.9844
Q31.5 68.4531 29.6406 68.4531
Q23.7344 68.4531 21.0625 65.8438
Q18.4062 63.2344 18.4062 56.3906
L18.4062 54.5469
L34.9688 54.5469
L34.9688 46.8281
L18.7031 46.8281
L18.7031 0
L9.51562 0
L9.51562 46.8281
L3.32812 46.8281
L3.32812 54.5469
L9.51562 54.5469
L9.51562 56.3438
Q9.51562 66.0625 14.3438 71.2656
Q19.1875 76.4688 28.3281 76.4688
Q31.3906 76.4688 33.8594 76.1719
Q36.3281 75.875 38.375 75.4844
z
" id="Verdana-66"/>
      <path d="
M56.25 0
L44.6719 0
L29.2031 20.9531
L13.625 0
L2.9375 0
L24.2188 27.2031
L3.125 54.5469
L14.7031 54.5469
L30.0781 33.9375
L45.5156 54.5469
L56.25 54.5469
L34.8125 27.6875
z
" id="Verdana-78"/>
      <path d="
M54.6406 0
L45.4531 0
L45.4531 31.0625
Q45.4531 34.8125 45.0156 38.1094
Q44.5781 41.4062 43.4062 43.2656
Q42.1875 45.3125 39.8906 46.3125
Q37.5938 47.3125 33.9375 47.3125
Q30.1719 47.3125 26.0625 45.4531
Q21.9688 43.6094 18.2188 40.7188
L18.2188 0
L9.03125 0
L9.03125 54.5469
L18.2188 54.5469
L18.2188 48.4844
Q22.5156 52.0469 27.0938 54.0469
Q31.6875 56.0625 36.5312 56.0625
Q45.3594 56.0625 50 50.7344
Q54.6406 45.4062 54.6406 35.4062
z
" id="Verdana-6e"/>
      <path d="
M18.8906 63.6719
L8.54688 63.6719
L8.54688 73.1875
L18.8906 73.1875
z

M18.3125 0
L9.125 0
L9.125 54.5469
L18.3125 54.5469
z
" id="Verdana-69"/>
      <path d="
M56.2031 54.5469
L34.125 0
L24.9062 0
L2.98438 54.5469
L12.9375 54.5469
L29.8281 11.1406
L46.5781 54.5469
z
" id="Verdana-76"/>
      <path d="
M37.3594 0.484375
Q34.7656 -0.203125 31.7031 -0.640625
Q28.6562 -1.07812 26.2656 -1.07812
Q17.9219 -1.07812 13.5781 3.40625
Q9.23438 7.90625 9.23438 17.8281
L9.23438 46.8281
L3.03125 46.8281
L3.03125 54.5469
L9.23438 54.5469
L9.23438 70.2188
L18.4062 70.2188
L18.4062 54.5469
L37.3594 54.5469
L37.3594 46.8281
L18.4062 46.8281
L18.4062 21.9688
Q18.4062 17.6719 18.5938 15.25
Q18.7969 12.8438 19.9688 10.75
Q21.0469 8.79688 22.9219 7.89062
Q24.8125 6.98438 28.6562 6.98438
Q30.9062 6.98438 33.3438 7.64062
Q35.7969 8.29688 36.8594 8.73438
L37.3594 8.73438
z
" id="Verdana-74"/>
      <path d="
M54.6875 26.3125
L14.5 26.3125
Q14.5 21.2969 16.0156 17.5469
Q17.5312 13.8125 20.1719 11.4219
Q22.7031 9.07812 26.1875 7.90625
Q29.6875 6.73438 33.8906 6.73438
Q39.4531 6.73438 45.0938 8.95312
Q50.7344 11.1875 53.125 13.3281
L53.6094 13.3281
L53.6094 3.32812
Q48.9688 1.375 44.1406 0.046875
Q39.3125 -1.26562 33.9844 -1.26562
Q20.4062 -1.26562 12.7812 6.07812
Q5.17188 13.4219 5.17188 26.9531
Q5.17188 40.3281 12.4688 48.1875
Q19.7812 56.0625 31.6875 56.0625
Q42.7188 56.0625 48.7031 49.6094
Q54.6875 43.1719 54.6875 31.2969
z

M45.75 33.3438
Q45.7031 40.5781 42.1094 44.5312
Q38.5312 48.4844 31.2031 48.4844
Q23.8281 48.4844 19.4531 44.1406
Q15.0938 39.7969 14.5 33.3438
z
" id="Verdana-65"/>
      <path d="
M26.0312 63.6719
L15.6719 63.6719
L15.6719 73.1875
L26.0312 73.1875
z

M25.4375 -1.3125
Q25.4375 -10.8906 20.5469 -15.7656
Q15.6719 -20.6562 7.46875 -20.6562
Q5.51562 -20.6562 2.3125 -20.2656
Q-0.875 -19.875 -3.03125 -19.2812
L-3.03125 -10.5469
L-2.54688 -10.5469
Q-1.17188 -11.0781 1.14062 -11.7656
Q3.46875 -12.4531 5.67188 -12.4531
Q9.1875 -12.4531 11.3281 -11.4688
Q13.4844 -10.5 14.5469 -8.54688
Q15.625 -6.59375 15.9375 -3.82812
Q16.2656 -1.07812 16.2656 2.875
L16.2656 46.8281
L4.89062 46.8281
L4.89062 54.5469
L25.4375 54.5469
z
" id="Verdana-6a"/>
      <path d="
M55.5156 27.25
Q55.5156 13.9219 48.6719 6.20312
Q41.8438 -1.51562 30.375 -1.51562
Q18.7969 -1.51562 11.9844 6.20312
Q5.17188 13.9219 5.17188 27.25
Q5.17188 40.5781 11.9844 48.3125
Q18.7969 56.0625 30.375 56.0625
Q41.8438 56.0625 48.6719 48.3125
Q55.5156 40.5781 55.5156 27.25
M46.0469 27.25
Q46.0469 37.8438 41.8906 42.9844
Q37.75 48.1406 30.375 48.1406
Q22.9062 48.1406 18.7812 42.9844
Q14.6562 37.8438 14.6562 27.25
Q14.6562 17 18.7969 11.6875
Q22.9531 6.39062 30.375 6.39062
Q37.7031 6.39062 41.875 11.6406
Q46.0469 16.8906 46.0469 27.25" id="Verdana-6f"/>
      <path d="
M49.3594 3.42188
Q44.7812 1.21875 40.6562 0
Q36.5312 -1.21875 31.8906 -1.21875
Q25.9844 -1.21875 21.0469 0.515625
Q16.1094 2.25 12.5938 5.76562
Q9.03125 9.28125 7.07812 14.6406
Q5.125 20.0156 5.125 27.2031
Q5.125 40.5781 12.4688 48.1875
Q19.8281 55.8125 31.8906 55.8125
Q36.5781 55.8125 41.0938 54.4844
Q45.6094 53.1719 49.3594 51.2656
L49.3594 41.0625
L48.875 41.0625
Q44.6719 44.3438 40.2031 46.0938
Q35.75 47.8594 31.5 47.8594
Q23.6875 47.8594 19.1719 42.6094
Q14.6562 37.3594 14.6562 27.2031
Q14.6562 17.3281 19.0625 12.0312
Q23.4844 6.73438 31.5 6.73438
Q34.2812 6.73438 37.1562 7.46875
Q40.0469 8.20312 42.3281 9.375
Q44.3438 10.4062 46.0938 11.5469
Q47.8594 12.7031 48.875 13.5312
L49.3594 13.5312
z
" id="Verdana-63"/>
      <path d="
M48 15.7188
Q48 8.25 41.8125 3.46875
Q35.6406 -1.3125 24.9531 -1.3125
Q18.8906 -1.3125 13.8438 0.125
Q8.79688 1.5625 5.375 3.26562
L5.375 13.5781
L5.85938 13.5781
Q10.2031 10.2969 15.5156 8.375
Q20.8438 6.45312 25.7344 6.45312
Q31.7812 6.45312 35.2031 8.40625
Q38.625 10.3594 38.625 14.5469
Q38.625 17.7812 36.7656 19.4375
Q34.9062 21.0938 29.6406 22.2656
Q27.6875 22.7031 24.5312 23.2812
Q21.3906 23.875 18.7969 24.5625
Q11.625 26.4688 8.60938 30.1562
Q5.60938 33.8438 5.60938 39.2031
Q5.60938 42.5781 7 45.5469
Q8.40625 48.5312 11.2344 50.875
Q13.9688 53.1719 18.1875 54.5156
Q22.4062 55.8594 27.6406 55.8594
Q32.5156 55.8594 37.5156 54.6562
Q42.5312 53.4688 45.8438 51.7656
L45.8438 41.9375
L45.3594 41.9375
Q41.8438 44.5312 36.8125 46.3125
Q31.7812 48.0938 26.9531 48.0938
Q21.9219 48.0938 18.4531 46.1562
Q14.9844 44.2344 14.9844 40.4375
Q14.9844 37.0625 17.0938 35.3594
Q19.1406 33.6406 23.7344 32.5625
Q26.2656 31.9844 29.4062 31.3906
Q32.5625 30.8125 34.6719 30.3281
Q41.0625 28.8594 44.5312 25.2969
Q48 21.6875 48 15.7188" id="Verdana-73"/>
      <path id="Verdana-20"/>
      <path d="
M57.0312 27.6875
Q57.0312 20.8438 55.0938 15.375
Q53.1719 9.90625 49.9062 6.20312
Q46.4375 2.34375 42.2812 0.40625
Q38.1406 -1.51562 33.1562 -1.51562
Q28.5156 -1.51562 25.0469 -0.40625
Q21.5781 0.6875 18.2188 2.54688
L17.625 0
L9.03125 0
L9.03125 75.9844
L18.2188 75.9844
L18.2188 48.8281
Q22.0781 52 26.4219 54.0312
Q30.7656 56.0625 36.1875 56.0625
Q45.8438 56.0625 51.4375 48.6406
Q57.0312 41.2188 57.0312 27.6875
M47.5625 27.4375
Q47.5625 37.2031 44.3281 42.25
Q41.1094 47.3125 33.9375 47.3125
Q29.9375 47.3125 25.8281 45.5781
Q21.7344 43.8438 18.2188 41.1094
L18.2188 9.85938
Q22.125 8.10938 24.9219 7.42188
Q27.7344 6.73438 31.2969 6.73438
Q38.9219 6.73438 43.2344 11.7344
Q47.5625 16.75 47.5625 27.4375" id="Verdana-62"/>
      <path d="
M54.25 0
L45.0625 0
L45.0625 6.0625
Q40.4375 2.39062 36.1875 0.4375
Q31.9375 -1.51562 26.8125 -1.51562
Q18.2188 -1.51562 13.4219 3.73438
Q8.64062 8.98438 8.64062 19.1406
L8.64062 54.5469
L17.8281 54.5469
L17.8281 23.4844
Q17.8281 19.3438 18.2188 16.375
Q18.6094 13.4219 19.875 11.3281
Q21.1875 9.1875 23.2812 8.20312
Q25.3906 7.23438 29.3906 7.23438
Q32.9531 7.23438 37.1719 9.07812
Q41.4062 10.9375 45.0625 13.8125
L45.0625 54.5469
L54.25 54.5469
z
" id="Verdana-75"/>
     </defs>
     <g transform="translate(206.5078125 418.509375)scale(0.12 -0.12)">
      <use xlink:href="#Verdana-4f"/>
      <use x="78.7109375" xlink:href="#Verdana-62"/>
      <use x="141.015625" xlink:href="#Verdana-6a"/>
      <use x="175.439453125" xlink:href="#Verdana-65"/>
      <use x="235.009765625" xlink:href="#Verdana-63"/>
      <use x="287.109375" xlink:href="#Verdana-74"/>
      <use x="326.513671875" xlink:href="#Verdana-69"/>
      <use x="353.955078125" xlink:href="#Verdana-76"/>
      <use x="412.259765625" xlink:href="#Verdana-65"/>
      <use x="471.830078125" xlink:href="#Verdana-20"/>
      <use x="506.986328125" xlink:href="#Verdana-66"/>
      <use x="542.142578125" xlink:href="#Verdana-75"/>
      <use x="605.423828125" xlink:href="#Verdana-6e"/>
      <use x="668.705078125" xlink:href="#Verdana-63"/>
      <use x="720.8046875" xlink:href="#Verdana-74"/>
      <use x="760.208984375" xlink:href="#Verdana-69"/>
      <use x="787.650390625" xlink:href="#Verdana-6f"/>
      <use x="848.34375" xlink:href="#Verdana-6e"/>
      <use x="911.625" xlink:href="#Verdana-20"/>
      <use x="946.78125" xlink:href="#Verdana-65"/>
      <use x="1006.3515625" xlink:href="#Verdana-78"/>
      <use x="1064.40625" xlink:href="#Verdana-65"/>
      <use x="1123.9765625" xlink:href="#Verdana-63"/>
      <use x="1176.076171875" xlink:href="#Verdana-74"/>
      <use x="1215.48046875" xlink:href="#Verdana-75"/>
      <use x="1278.76171875" xlink:href="#Verdana-69"/>
      <use x="1306.203125" xlink:href="#Verdana-6f"/>
      <use x="1366.896484375" xlink:href="#Verdana-6e"/>
      <use x="1430.177734375" xlink:href="#Verdana-73"/>
     </g>
    </g>
   </g>
   <g id="matplotlib.axis_2">
    <g id="ytick_1">
     <g id="line2d_18">
      <defs>
       <path d="
M0 0
L4 0" id="md7965d1ba0" style="stroke:#000000;stroke-width:0.5;"/>
      </defs>
      <g>
       <use style="stroke:#000000;stroke-width:0.5;" x="72.0" xlink:href="#md7965d1ba0" y="388.8"/>
      </g>
     </g>
     <g id="line2d_19">
      <defs>
       <path d="
M0 0
L-4 0" id="md9a1c1a7cd" style="stroke:#000000;stroke-width:0.5;"/>
      </defs>
      <g>
       <use style="stroke:#000000;stroke-width:0.5;" x="518.4" xlink:href="#md9a1c1a7cd" y="388.8"/>
      </g>
     </g>
     <g id="text_8">
      <!-- 0.0 -->
      <defs>
       <path d="
M24.0312 0
L12.3594 0
L12.3594 13.9219
L24.0312 13.9219
z
" id="Verdana-2e"/>
      </defs>
      <g transform="translate(49.97 392.1515625)scale(0.12 -0.12)">
       <use xlink:href="#Verdana-30"/>
       <use x="63.57421875" xlink:href="#Verdana-2e"/>
       <use x="99.951171875" xlink:href="#Verdana-30"/>
      </g>
     </g>
    </g>
    <g id="ytick_2">
     <g id="line2d_20">
      <g>
       <use style="stroke:#000000;stroke-width:0.5;" x="72.0" xlink:href="#md7965d1ba0" y="319.68"/>
      </g>
     </g>
     <g id="line2d_21">
      <g>
       <use style="stroke:#000000;stroke-width:0.5;" x="518.4" xlink:href="#md9a1c1a7cd" y="319.68"/>
      </g>
     </g>
     <g id="text_9">
      <!-- 0.2 -->
      <g transform="translate(49.95875 323.0315625)scale(0.12 -0.12)">
       <use xlink:href="#Verdana-30"/>
       <use x="63.57421875" xlink:href="#Verdana-2e"/>
       <use x="99.951171875" xlink:href="#Verdana-32"/>
      </g>
     </g>
    </g>
    <g id="ytick_3">
     <g id="line2d_22">
      <g>
       <use style="stroke:#000000;stroke-width:0.5;" x="72.0" xlink:href="#md7965d1ba0" y="250.56"/>
      </g>
     </g>
     <g id="line2d_23">
      <g>
       <use style="stroke:#000000;stroke-width:0.5;" x="518.4" xlink:href="#md9a1c1a7cd" y="250.56"/>
      </g>
     </g>
     <g id="text_10">
      <!-- 0.4 -->
      <g transform="translate(49.76 253.9115625)scale(0.12 -0.12)">
       <use xlink:href="#Verdana-30"/>
       <use x="63.57421875" xlink:href="#Verdana-2e"/>
       <use x="99.951171875" xlink:href="#Verdana-34"/>
      </g>
     </g>
    </g>
    <g id="ytick_4">
     <g id="line2d_24">
      <g>
       <use style="stroke:#000000;stroke-width:0.5;" x="72.0" xlink:href="#md7965d1ba0" y="181.44"/>
      </g>
     </g>
     <g id="line2d_25">
      <g>
       <use style="stroke:#000000;stroke-width:0.5;" x="518.4" xlink:href="#md9a1c1a7cd" y="181.44"/>
      </g>
     </g>
     <g id="text_11">
      <!-- 0.6 -->
      <defs>
       <path d="
M58.1562 23.5781
Q58.1562 12.5 50.8594 5.48438
Q43.5625 -1.51562 32.9531 -1.51562
Q27.5938 -1.51562 23.1875 0.140625
Q18.7969 1.8125 15.4375 5.07812
Q11.2344 9.125 8.95312 15.8125
Q6.6875 22.5156 6.6875 31.9375
Q6.6875 41.6094 8.76562 49.0781
Q10.8438 56.5469 15.375 62.3594
Q19.6719 67.875 26.4531 70.9688
Q33.25 74.0781 42.2812 74.0781
Q45.1719 74.0781 47.125 73.8281
Q49.0781 73.5781 51.0781 72.9531
L51.0781 63.625
L50.5938 63.625
Q49.2188 64.3594 46.4531 65.0156
Q43.7031 65.6719 40.8281 65.6719
Q30.3281 65.6719 24.0781 59.1094
Q17.8281 52.5469 16.7969 41.3594
Q20.9062 43.8438 24.875 45.1406
Q28.8594 46.4375 34.0781 46.4375
Q38.7188 46.4375 42.25 45.5781
Q45.7969 44.7344 49.5156 42.1406
Q53.8125 39.1562 55.9844 34.6094
Q58.1562 30.0781 58.1562 23.5781
M48.25 23.1875
Q48.25 27.7344 46.9062 30.7031
Q45.5625 33.6875 42.4844 35.8906
Q40.2344 37.4531 37.5 37.9375
Q34.7656 38.4219 31.7812 38.4219
Q27.6406 38.4219 24.0781 37.4375
Q20.5156 36.4688 16.75 34.4219
Q16.6562 33.3438 16.5938 32.3438
Q16.5469 31.3438 16.5469 29.8281
Q16.5469 22.125 18.1406 17.6562
Q19.7344 13.1875 22.5156 10.5938
Q24.75 8.45312 27.3594 7.45312
Q29.9844 6.45312 33.0625 6.45312
Q40.1406 6.45312 44.1875 10.7656
Q48.25 15.0938 48.25 23.1875" id="Verdana-36"/>
      </defs>
      <g transform="translate(49.829375 184.7915625)scale(0.12 -0.12)">
       <use xlink:href="#Verdana-30"/>
       <use x="63.57421875" xlink:href="#Verdana-2e"/>
       <use x="99.951171875" xlink:href="#Verdana-36"/>
      </g>
     </g>
    </g>
    <g id="ytick_5">
     <g id="line2d_26">
      <g>
       <use style="stroke:#000000;stroke-width:0.5;" x="72.0" xlink:href="#md7965d1ba0" y="112.32"/>
      </g>
     </g>
     <g id="line2d_27">
      <g>
       <use style="stroke:#000000;stroke-width:0.5;" x="518.4" xlink:href="#md9a1c1a7cd" y="112.32"/>
      </g>
     </g>
     <g id="text_12">
      <!-- 0.8 -->
      <defs>
       <path d="
M57.625 20.2656
Q57.625 10.8438 50.2656 4.59375
Q42.9219 -1.65625 31.7812 -1.65625
Q19.9688 -1.65625 12.9531 4.4375
Q5.95312 10.5469 5.95312 20.0625
Q5.95312 26.125 9.46875 31.0312
Q12.9844 35.9375 19.3906 38.8125
L19.3906 39.1094
Q13.5312 42.2344 10.7188 45.9375
Q7.90625 49.6562 7.90625 55.2188
Q7.90625 63.4219 14.6406 68.8906
Q21.3906 74.3594 31.7812 74.3594
Q42.6719 74.3594 49.1719 69.1406
Q55.6719 63.9219 55.6719 55.8594
Q55.6719 50.9219 52.5938 46.1562
Q49.5156 41.4062 43.5625 38.7188
L43.5625 38.4219
Q50.3906 35.5 54 31.2031
Q57.625 26.9062 57.625 20.2656
M46.0469 55.7656
Q46.0469 60.9844 42.0156 64.0781
Q37.9844 67.1875 31.7344 67.1875
Q25.5938 67.1875 21.6562 64.25
Q17.7188 61.3281 17.7188 56.3438
Q17.7188 52.8281 19.7031 50.2656
Q21.6875 47.7031 25.6875 45.7031
Q27.4844 44.8281 30.875 43.4062
Q34.2812 42 37.5 41.0625
Q42.3281 44.2812 44.1875 47.75
Q46.0469 51.2188 46.0469 55.7656
M47.5625 19.3438
Q47.5625 23.8281 45.5781 26.5312
Q43.6094 29.25 37.8438 31.9844
Q35.5469 33.0625 32.8125 33.9844
Q30.0781 34.9062 25.5312 36.5781
Q21.1406 34.1875 18.4844 30.0781
Q15.8281 25.9844 15.8281 20.7969
Q15.8281 14.2031 20.3594 9.90625
Q24.9062 5.60938 31.8906 5.60938
Q39.0156 5.60938 43.2812 9.26562
Q47.5625 12.9375 47.5625 19.3438" id="Verdana-38"/>
      </defs>
      <g transform="translate(49.893125 115.6715625)scale(0.12 -0.12)">
       <use xlink:href="#Verdana-30"/>
       <use x="63.57421875" xlink:href="#Verdana-2e"/>
       <use x="99.951171875" xlink:href="#Verdana-38"/>
      </g>
     </g>
    </g>
    <g id="ytick_6">
     <g id="line2d_28">
      <g>
       <use style="stroke:#000000;stroke-width:0.5;" x="72.0" xlink:href="#md7965d1ba0" y="43.2"/>
      </g>
     </g>
     <g id="line2d_29">
      <g>
       <use style="stroke:#000000;stroke-width:0.5;" x="518.4" xlink:href="#md9a1c1a7cd" y="43.2"/>
      </g>
     </g>
     <g id="text_13">
      <!-- 1.0 -->
      <g transform="translate(50.796875 46.5515625)scale(0.12 -0.12)">
       <use xlink:href="#Verdana-31"/>
       <use x="63.57421875" xlink:href="#Verdana-2e"/>
       <use x="99.951171875" xlink:href="#Verdana-30"/>
      </g>
     </g>
    </g>
    <g id="text_14">
     <!-- Data Profile T-0.1000000 -->
     <defs>
      <path d="
M18.3125 0
L9.125 0
L9.125 75.9844
L18.3125 75.9844
z
" id="Verdana-6c"/>
      <path d="
M57.3281 50.7344
Q57.3281 45.9062 55.6406 41.7656
Q53.9531 37.6406 50.9219 34.625
Q47.1719 30.8594 42.0469 28.9688
Q36.9219 27.0938 29.1094 27.0938
L19.4375 27.0938
L19.4375 0
L9.76562 0
L9.76562 72.7031
L29.5 72.7031
Q36.0312 72.7031 40.5781 71.6094
Q45.125 70.5156 48.6406 68.1719
Q52.7812 65.375 55.0469 61.2188
Q57.3281 57.0781 57.3281 50.7344
M47.2656 50.4844
Q47.2656 54.25 45.9375 57.0312
Q44.625 59.8125 41.9375 61.5781
Q39.5938 63.0938 36.5938 63.75
Q33.5938 64.4062 29 64.4062
L19.4375 64.4062
L19.4375 35.3594
L27.5938 35.3594
Q33.4531 35.3594 37.1094 36.4062
Q40.7656 37.4531 43.0625 39.75
Q45.3594 42.0938 46.3125 44.6719
Q47.2656 47.2656 47.2656 50.4844" id="Verdana-50"/>
      <path d="
M71.1875 36.2812
Q71.1875 26.375 66.8594 18.3125
Q62.5469 10.25 55.375 5.8125
Q50.3906 2.73438 44.2656 1.35938
Q38.1406 0 28.125 0
L9.76562 0
L9.76562 72.7031
L27.9375 72.7031
Q38.5781 72.7031 44.8438 71.1562
Q51.125 69.625 55.4688 66.9375
Q62.8906 62.3125 67.0312 54.5938
Q71.1875 46.875 71.1875 36.2812
M61.0781 36.4219
Q61.0781 44.9688 58.0938 50.8281
Q55.125 56.6875 49.2188 60.0625
Q44.9219 62.5 40.0781 63.4531
Q35.25 64.4062 28.5156 64.4062
L19.4375 64.4062
L19.4375 8.29688
L28.5156 8.29688
Q35.5 8.29688 40.7031 9.32812
Q45.9062 10.3594 50.25 13.1406
Q55.6719 16.6094 58.375 22.2656
Q61.0781 27.9375 61.0781 36.4219" id="Verdana-44"/>
      <path d="
M61.625 64.1094
L35.6406 64.1094
L35.6406 0
L25.9844 0
L25.9844 64.1094
L0 64.1094
L0 72.7031
L61.625 72.7031
z
" id="Verdana-54"/>
      <path d="
M37.9375 27.3906
L7.46875 27.3906
L7.46875 36.2344
L37.9375 36.2344
z
" id="Verdana-2d"/>
      <path d="
M51.4219 0
L42.2812 0
L42.2812 5.8125
Q41.0625 4.98438 38.9844 3.48438
Q36.9219 2 34.9688 1.125
Q32.6719 0 29.6875 -0.75
Q26.7031 -1.51562 22.7031 -1.51562
Q15.3281 -1.51562 10.2031 3.35938
Q5.07812 8.25 5.07812 15.8281
Q5.07812 22.0156 7.73438 25.8438
Q10.4062 29.6875 15.3281 31.8906
Q20.3125 34.0781 27.2969 34.8594
Q34.2812 35.6406 42.2812 36.0312
L42.2812 37.4531
Q42.2812 40.5781 41.1875 42.625
Q40.0938 44.6719 38.0312 45.8438
Q36.0781 46.9688 33.3438 47.3594
Q30.6094 47.75 27.6406 47.75
Q24.0312 47.75 19.5781 46.7969
Q15.1406 45.8438 10.4062 44.0469
L9.90625 44.0469
L9.90625 53.375
Q12.5938 54.1094 17.6719 54.9844
Q22.75 55.8594 27.6875 55.8594
Q33.4531 55.8594 37.7188 54.9062
Q42 53.9531 45.125 51.6562
Q48.1875 49.4219 49.7969 45.8438
Q51.4219 42.2812 51.4219 37.0156
z

M42.2812 13.4219
L42.2812 28.6094
Q38.0938 28.375 32.3906 27.875
Q26.7031 27.3906 23.3906 26.4688
Q19.4375 25.3438 16.9844 22.9688
Q14.5469 20.6094 14.5469 16.4531
Q14.5469 11.7656 17.375 9.39062
Q20.2188 7.03125 26.0312 7.03125
Q30.8594 7.03125 34.8594 8.90625
Q38.875 10.7969 42.2812 13.4219" id="Verdana-61"/>
      <path d="
M43.0625 44.5312
L42.5781 44.5312
Q40.5312 45.0156 38.5938 45.2344
Q36.6719 45.4531 34.0312 45.4531
Q29.7812 45.4531 25.8281 43.5781
Q21.875 41.7031 18.2188 38.7188
L18.2188 0
L9.03125 0
L9.03125 54.5469
L18.2188 54.5469
L18.2188 46.4844
Q23.6875 50.875 27.8594 52.7031
Q32.0312 54.5469 36.375 54.5469
Q38.7656 54.5469 39.8438 54.4219
Q40.9219 54.2969 43.0625 53.9531
z
" id="Verdana-72"/>
     </defs>
     <g transform="translate(42.345 291.493125)rotate(-90.0)scale(0.12 -0.12)">
      <use xlink:href="#Verdana-44"/>
      <use x="77.05078125" xlink:href="#Verdana-61"/>
      <use x="137.109375" xlink:href="#Verdana-74"/>
      <use x="176.513671875" xlink:href="#Verdana-61"/>
      <use x="236.572265625" xlink:href="#Verdana-20"/>
      <use x="271.728515625" xlink:href="#Verdana-50"/>
      <use x="332.03125" xlink:href="#Verdana-72"/>
      <use x="374.70703125" xlink:href="#Verdana-6f"/>
      <use x="435.400390625" xlink:href="#Verdana-66"/>
      <use x="470.556640625" xlink:href="#Verdana-69"/>
      <use x="497.998046875" xlink:href="#Verdana-6c"/>
      <use x="525.439453125" xlink:href="#Verdana-65"/>
      <use x="585.009765625" xlink:href="#Verdana-20"/>
      <use x="620.166015625" xlink:href="#Verdana-54"/>
      <use x="674.412109375" xlink:href="#Verdana-2d"/>
      <use x="719.822265625" xlink:href="#Verdana-30"/>
      <use x="783.396484375" xlink:href="#Verdana-2e"/>
      <use x="819.7734375" xlink:href="#Verdana-31"/>
      <use x="883.34765625" xlink:href="#Verdana-30"/>
      <use x="946.921875" xlink:href="#Verdana-30"/>
      <use x="1010.49609375" xlink:href="#Verdana-30"/>
      <use x="1074.0703125" xlink:href="#Verdana-30"/>
      <use x="1137.64453125" xlink:href="#Verdana-30"/>
      <use x="1201.21875" xlink:href="#Verdana-30"/>
     </g>
    </g>
   </g>
   <g id="patch_3">
    <path d="
M72 43.2
L518.4 43.2" style="fill:none;stroke:#000000;"/>
   </g>
   <g id="patch_4">
    <path d="
M72 388.8
L72 43.2" style="fill:none;stroke:#000000;"/>
   </g>
   <g id="patch_5">
    <path d="
M72 388.8
L518.4 388.8" style="fill:none;stroke:#000000;"/>
   </g>
   <g id="patch_6">
    <path d="
M518.4 388.8
L518.4 43.2" style="fill:none;stroke:#000000;"/>
   </g>
   <g id="text_15">
    <!-- Plateau Data Profile T-0.1000000 -->
    <g transform="translate(175.428 38.2)scale(0.144 -0.144)">
     <use xlink:href="#Verdana-50"/>
     <use x="60.302734375" xlink:href="#Verdana-6c"/>
     <use x="87.744140625" xlink:href="#Verdana-61"/>
     <use x="147.802734375" xlink:href="#Verdana-74"/>
     <use x="187.20703125" xlink:href="#Verdana-65"/>
     <use x="246.77734375" xlink:href="#Verdana-61"/>
     <use x="306.8359375" xlink:href="#Verdana-75"/>
     <use x="370.1171875" xlink:href="#Verdana-20"/>
     <use x="405.2734375" xlink:href="#Verdana-44"/>
     <use x="482.32421875" xlink:href="#Verdana-61"/>
     <use x="542.3828125" xlink:href="#Verdana-74"/>
     <use x="581.787109375" xlink:href="#Verdana-61"/>
     <use x="641.845703125" xlink:href="#Verdana-20"/>
     <use x="677.001953125" xlink:href="#Verdana-50"/>
     <use x="737.3046875" xlink:href="#Verdana-72"/>
     <use x="779.98046875" xlink:href="#Verdana-6f"/>
     <use x="840.673828125" xlink:href="#Verdana-66"/>
     <use x="875.830078125" xlink:href="#Verdana-69"/>
     <use x="903.271484375" xlink:href="#Verdana-6c"/>
     <use x="930.712890625" xlink:href="#Verdana-65"/>
     <use x="990.283203125" xlink:href="#Verdana-20"/>
     <use x="1025.439453125" xlink:href="#Verdana-54"/>
     <use x="1079.685546875" xlink:href="#Verdana-2d"/>
     <use x="1125.095703125" xlink:href="#Verdana-30"/>
     <use x="1188.669921875" xlink:href="#Verdana-2e"/>
     <use x="1225.046875" xlink:href="#Verdana-31"/>
     <use x="1288.62109375" xlink:href="#Verdana-30"/>
     <use x="1352.1953125" xlink:href="#Verdana-30"/>
     <use x="1415.76953125" xlink:href="#Verdana-30"/>
     <use x="1479.34375" xlink:href="#Verdana-30"/>
     <use x="1542.91796875" xlink:href="#Verdana-30"/>
     <use x="1606.4921875" xlink:href="#Verdana-30"/>
    </g>
   </g>
   <g id="legend_1">
    <g id="patch_7">
     <path d="
M407.18 381.6
L511.2 381.6
L511.2 272.081
L407.18 272.081
L407.18 381.6
z
" style="fill:#ffffff;stroke:#000000;"/>
    </g>
    <g id="line2d_30">
     <path d="
M417.26 283.743
L437.42 283.743" style="fill:none;stroke:#0000ff;stroke-dasharray:6.000000,2.000000;stroke-dashoffset:0.0;"/>
    </g>
    <g id="line2d_31"/>
    <g id="text_16">
     <!-- AMPGO -->
     <defs>
      <path d="
M74.5156 0
L64.8438 0
L64.8438 62.6406
L44.625 20.0156
L38.875 20.0156
L18.7969 62.6406
L18.7969 0
L9.76562 0
L9.76562 72.7031
L22.9531 72.7031
L42.3281 32.2344
L61.0781 72.7031
L74.5156 72.7031
z
" id="Verdana-4d"/>
      <path d="
M70.4062 5.375
Q64.4531 2.64062 57.3906 0.609375
Q50.3438 -1.42188 43.75 -1.42188
Q35.25 -1.42188 28.1719 0.921875
Q21.0938 3.26562 16.1094 7.95312
Q11.0781 12.7031 8.34375 19.7969
Q5.60938 26.9062 5.60938 36.4219
Q5.60938 53.8594 15.7969 63.9375
Q25.9844 74.0312 43.75 74.0312
Q49.9531 74.0312 56.4219 72.5312
Q62.8906 71.0469 70.3594 67.4844
L70.3594 56
L69.4844 56
Q67.9688 57.1719 65.0781 59.0781
Q62.2031 60.9844 59.4219 62.25
Q56.0625 63.7656 51.7812 64.7656
Q47.5156 65.7656 42.0938 65.7656
Q29.8906 65.7656 22.7812 57.9219
Q15.6719 50.0938 15.6719 36.7188
Q15.6719 22.6094 23.0938 14.7656
Q30.5156 6.9375 43.3125 6.9375
Q48 6.9375 52.6562 7.85938
Q57.3281 8.79688 60.8438 10.25
L60.8438 28.0781
L41.3594 28.0781
L41.3594 36.5781
L70.4062 36.5781
z
" id="Verdana-47"/>
      <path d="
M67.0938 0
L56.7812 0
L49.6562 20.2656
L18.2188 20.2656
L11.0781 0
L1.26562 0
L27.7344 72.7031
L40.625 72.7031
z

M46.6875 28.5625
L33.9375 64.2656
L21.1406 28.5625
z
" id="Verdana-41"/>
     </defs>
     <g transform="translate(453.26025 288.783)scale(0.144 -0.144)">
      <use xlink:href="#Verdana-41"/>
      <use x="68.359375" xlink:href="#Verdana-4d"/>
      <use x="152.63671875" xlink:href="#Verdana-50"/>
      <use x="212.939453125" xlink:href="#Verdana-47"/>
      <use x="290.478515625" xlink:href="#Verdana-4f"/>
     </g>
    </g>
    <g id="line2d_32">
     <path d="
M417.26 304.783
L437.42 304.783" style="fill:none;stroke:#008000;stroke-dasharray:1.000000,1.000000;stroke-dashoffset:0.0;"/>
    </g>
    <g id="line2d_33"/>
    <g id="text_17">
     <!-- Anneal -->
     <g transform="translate(453.26025 309.82275)scale(0.144 -0.144)">
      <use xlink:href="#Verdana-41"/>
      <use x="68.359375" xlink:href="#Verdana-6e"/>
      <use x="131.640625" xlink:href="#Verdana-6e"/>
      <use x="194.921875" xlink:href="#Verdana-65"/>
      <use x="254.4921875" xlink:href="#Verdana-61"/>
      <use x="314.55078125" xlink:href="#Verdana-6c"/>
     </g>
    </g>
    <g id="line2d_34">
     <path d="
M417.26 325.822
L437.42 325.822" style="fill:none;stroke:#ff0000;stroke-dasharray:3.000000,6.000000;stroke-dashoffset:0.0;"/>
    </g>
    <g id="line2d_35"/>
    <g id="text_18">
     <!-- BSA -->
     <defs>
      <path d="
M64.5938 22.3594
Q64.5938 16.9375 62.5469 12.7812
Q60.5 8.64062 57.0312 5.95312
Q52.9375 2.73438 48.0156 1.35938
Q43.1094 0 35.5469 0
L9.76562 0
L9.76562 72.7031
L31.2969 72.7031
Q39.2656 72.7031 43.2188 72.1094
Q47.1719 71.5312 50.7812 69.6719
Q54.7812 67.5781 56.5938 64.2812
Q58.4062 60.9844 58.4062 56.3906
Q58.4062 51.2188 55.7656 47.5781
Q53.125 43.9531 48.7344 41.75
L48.7344 41.3594
Q56.1094 39.8438 60.3438 34.8906
Q64.5938 29.9375 64.5938 22.3594
M48.3438 55.125
Q48.3438 57.7656 47.4531 59.5625
Q46.5781 61.375 44.625 62.5
Q42.3281 63.8125 39.0625 64.125
Q35.7969 64.4531 30.9531 64.4531
L19.4375 64.4531
L19.4375 43.4531
L31.9375 43.4531
Q36.4688 43.4531 39.1562 43.9219
Q41.8438 44.3906 44.1406 45.8438
Q46.4375 47.3125 47.3906 49.625
Q48.3438 51.9531 48.3438 55.125
M54.5469 21.9688
Q54.5469 26.375 53.2188 28.9531
Q51.9062 31.5469 48.4375 33.3438
Q46.0938 34.5781 42.75 34.9375
Q39.4062 35.2969 34.625 35.2969
L19.4375 35.2969
L19.4375 8.25
L32.2344 8.25
Q38.5781 8.25 42.625 8.90625
Q46.6875 9.57812 49.2656 11.3281
Q52 13.2344 53.2656 15.6719
Q54.5469 18.1094 54.5469 21.9688" id="Verdana-42"/>
      <path d="
M62.5938 20.75
Q62.5938 16.5 60.6094 12.3438
Q58.6406 8.20312 55.0781 5.32812
Q51.1719 2.20312 45.9688 0.4375
Q40.7656 -1.3125 33.4531 -1.3125
Q25.5938 -1.3125 19.3125 0.140625
Q13.0312 1.60938 6.54688 4.5
L6.54688 16.6094
L7.23438 16.6094
Q12.75 12.0156 19.9688 9.51562
Q27.2031 7.03125 33.5469 7.03125
Q42.5312 7.03125 47.5312 10.3906
Q52.5469 13.7656 52.5469 19.3906
Q52.5469 24.2188 50.1719 26.5156
Q47.7969 28.8125 42.9688 30.0781
Q39.3125 31.0625 35.0312 31.6875
Q30.7656 32.3281 25.9844 33.2969
Q16.3125 35.3594 11.6406 40.3125
Q6.98438 45.2656 6.98438 53.2188
Q6.98438 62.3594 14.6875 68.1875
Q22.4062 74.0312 34.2812 74.0312
Q41.9375 74.0312 48.3281 72.5625
Q54.7344 71.0938 59.6719 68.9531
L59.6719 57.5156
L58.9844 57.5156
Q54.8281 61.0312 48.0625 63.3438
Q41.3125 65.6719 34.2344 65.6719
Q26.4688 65.6719 21.75 62.4531
Q17.0469 59.2344 17.0469 54.1562
Q17.0469 49.6094 19.3906 47.0156
Q21.7344 44.4375 27.6406 43.0625
Q30.7656 42.3906 36.5156 41.4062
Q42.2812 40.4375 46.2969 39.4062
Q54.3906 37.25 58.4844 32.9062
Q62.5938 28.5625 62.5938 20.75" id="Verdana-53"/>
     </defs>
     <g transform="translate(453.26025 330.8625)scale(0.144 -0.144)">
      <use xlink:href="#Verdana-42"/>
      <use x="68.5546875" xlink:href="#Verdana-53"/>
      <use x="135.9140625" xlink:href="#Verdana-41"/>
     </g>
    </g>
    <g id="line2d_36">
     <path d="
M417.26 346.862
L437.42 346.862" style="fill:none;stroke:#00bfbf;stroke-dasharray:5.000000,1.000000,2.000000,1.000000,5.000000,1.000000;stroke-dashoffset:0.0;"/>
    </g>
    <g id="line2d_37"/>
    <g id="text_19">
     <!-- Cuckoo -->
     <defs>
      <path d="
M65.9219 5.28125
Q63.2344 4.10938 61.0625 3.07812
Q58.8906 2.04688 55.375 0.921875
Q52.3906 0 48.8906 -0.65625
Q45.4062 -1.3125 41.2188 -1.3125
Q33.2969 -1.3125 26.8281 0.90625
Q20.3594 3.125 15.5781 7.85938
Q10.8906 12.5 8.25 19.6562
Q5.60938 26.8125 5.60938 36.2812
Q5.60938 45.2656 8.14062 52.3438
Q10.6875 59.4219 15.4844 64.3125
Q20.125 69.0469 26.6875 71.5312
Q33.25 74.0312 41.2656 74.0312
Q47.125 74.0312 52.9531 72.6094
Q58.7969 71.1875 65.9219 67.625
L65.9219 56.1562
L65.1875 56.1562
Q59.1875 61.1875 53.2656 63.4688
Q47.3594 65.7656 40.625 65.7656
Q35.1094 65.7656 30.6875 63.9844
Q26.2656 62.2031 22.7969 58.4531
Q19.4375 54.7812 17.5469 49.1875
Q15.6719 43.6094 15.6719 36.2812
Q15.6719 28.6094 17.75 23.0938
Q19.8281 17.5781 23.0938 14.1094
Q26.5156 10.5 31.0781 8.76562
Q35.6406 7.03125 40.7188 7.03125
Q47.7031 7.03125 53.7969 9.42188
Q59.9062 11.8125 65.2344 16.6094
L65.9219 16.6094
z
" id="Verdana-43"/>
      <path d="
M58.5469 0
L46.4375 0
L24.5625 23.875
L18.6094 18.2188
L18.6094 0
L9.42188 0
L9.42188 75.9844
L18.6094 75.9844
L18.6094 27.25
L45.125 54.5469
L56.6875 54.5469
L31.3438 29.3438
z
" id="Verdana-6b"/>
     </defs>
     <g transform="translate(453.26025 351.90225)scale(0.144 -0.144)">
      <use xlink:href="#Verdana-43"/>
      <use x="69.82421875" xlink:href="#Verdana-75"/>
      <use x="133.10546875" xlink:href="#Verdana-63"/>
      <use x="185.205078125" xlink:href="#Verdana-6b"/>
      <use x="243.384765625" xlink:href="#Verdana-6f"/>
      <use x="304.078125" xlink:href="#Verdana-6f"/>
     </g>
    </g>
    <g id="line2d_38">
     <path d="
M417.26 367.902
L437.42 367.902" style="fill:none;stroke:#bf00bf;stroke-linecap:square;"/>
    </g>
    <g id="line2d_39"/>
    <g id="text_20">
     <!-- qABC -->
     <defs>
      <path d="
M53.2656 -20.125
L44.0938 -20.125
L44.0938 6.15625
Q39.8438 2.48438 35.6406 0.703125
Q31.4531 -1.07812 26.5625 -1.07812
Q16.8438 -1.07812 11.0625 6.42188
Q5.28125 13.9219 5.28125 27.0938
Q5.28125 34.125 7.29688 39.5156
Q9.32812 44.9219 12.6406 48.5781
Q15.875 52.1562 20.2188 54.1094
Q24.5625 56.0625 29.3906 56.0625
Q33.7969 56.0625 37.1875 55.0781
Q40.5781 54.1094 44.0938 52.2031
L44.6719 54.5469
L53.2656 54.5469
z

M44.0938 13.875
L44.0938 44.7344
Q40.2812 46.4375 37.3438 47.1094
Q34.4219 47.7969 31 47.7969
Q23.0469 47.7969 18.8906 42.4062
Q14.75 37.0156 14.75 27.5469
Q14.75 17.9688 18.0938 12.8125
Q21.4375 7.67188 28.6094 7.67188
Q32.625 7.67188 36.625 9.40625
Q40.625 11.1406 44.0938 13.875" id="Verdana-71"/>
     </defs>
     <g transform="translate(453.26025 372.942)scale(0.144 -0.144)">
      <use xlink:href="#Verdana-71"/>
      <use x="62.3046875" xlink:href="#Verdana-41"/>
      <use x="130.6640625" xlink:href="#Verdana-42"/>
      <use x="199.21875" xlink:href="#Verdana-43"/>
     </g>
    </g>
   </g>
  </g>
 </g>
 <defs>
  <clipPath id="p7ff5b81e1d">
   <rect height="345.6" width="446.4" x="72.0" y="43.2"/>
  </clipPath>
 </defs>
</svg>
