<?xml version="1.0" encoding="utf-8" standalone="no"?>
<!DOCTYPE svg PUBLIC "-//W3C//DTD SVG 1.1//EN"
  "http://www.w3.org/Graphics/SVG/1.1/DTD/svg11.dtd">
<!-- Created with matplotlib (http://matplotlib.org/) -->
<svg height="432pt" version="1.1" viewBox="0 0 576 432" width="576pt" xmlns="http://www.w3.org/2000/svg" xmlns:xlink="http://www.w3.org/1999/xlink">
 <defs>
  <style type="text/css">
*{stroke-linecap:butt;stroke-linejoin:round;}
  </style>
 </defs>
 <g id="figure_1">
  <g id="patch_1">
   <path d="
M0 432
L576 432
L576 0
L0 0
z
" style="fill:#ffffff;"/>
  </g>
  <g id="axes_1">
   <g id="patch_2">
    <path d="
M72 388.8
L518.4 388.8
L518.4 43.2
L72 43.2
z
" style="fill:#ffffff;"/>
   </g>
   <g id="line2d_1">
    <path clip-path="url(#p7ff5b81e1d)" d="
M72 322.97
L72.0893 349.355
L72.1786 360.716
L72.4464 374.62
L72.7142 379.215
L73.0714 382.191
L73.607 384.521
L73.6963 383.695
L73.7856 383.811
L74.6784 385.081
L75.2141 385.812
L75.3034 385.613
L75.6605 386.364
L76.464 387.668
L76.9104 388.08
L77.6246 388.399
L79.4102 388.69
L81.1958 388.783
L100.48 388.8
L518.311 388.8
L518.311 388.8" style="fill:none;stroke:#0000ff;stroke-dasharray:6.000000,2.000000;stroke-dashoffset:0.0;"/>
   </g>
   <g id="line2d_2">
    <path clip-path="url(#p7ff5b81e1d)" d="
M72 329.806
L72.0893 351.164
L72.1786 359.562
L72.3571 364.835
L72.4464 366.406
L72.5357 366.072
L72.625 365.905
L73.2499 358.154
L74.0534 331.35
L75.6605 246.437
L75.9283 241.226
L76.464 230.782
L76.6426 228.424
L77.3568 215.607
L78.6067 162.882
L79.0531 147.258
L79.1424 147.446
L79.4102 148.961
L79.4995 150.454
L79.6781 149.932
L79.8566 151.972
L79.9459 151.718
L80.1245 154.171
L80.2138 154.173
L80.303 154.594
L80.4816 154.381
L80.7494 156.347
L80.8387 156.162
L81.9994 132.107
L82.6243 121.705
L82.8922 125.541
L83.16 129.33
L83.6957 138.535
L84.2314 149.099
L84.4099 151.576
L85.2134 143.974
L85.4813 141.969
L85.9277 139.51
L86.1955 138.252
L87.4454 165.968
L87.9811 177.07
L88.6061 174.44
L88.6954 174.341
L89.4989 171.531
L89.5882 171.382
L89.7667 170.94
L91.5523 211.547
L91.7309 211.937
L91.9987 211.711
L92.1773 211.559
L92.3558 211.129
L92.4451 211.219
L92.6237 211.048
L92.8915 211.17
L93.0701 210.833
L93.2486 210.913
L93.3379 211.143
L93.7843 221.554
L94.1414 229.784
L94.7664 244.529
L95.1235 252.278
L95.3914 252.68
L95.4806 252.703
L95.7485 253.01
L95.8378 252.98
L96.0163 253.19
L96.3734 253.045
L96.7306 253.614
L96.8198 253.563
L96.9091 253.699
L97.8912 272.286
L98.159 277.079
L98.6947 285.788
L98.8733 285.508
L99.1411 285.635
L99.3197 285.847
L99.6768 285.857
L99.8554 285.907
L100.034 286.074
L100.48 286.559
L102.266 312.244
L102.712 312.564
L102.802 312.594
L102.98 312.767
L103.159 312.821
L103.605 313.242
L103.784 313.382
L103.962 313.59
L104.052 313.593
L104.498 317.831
L105.748 331.142
L105.926 331.732
L106.105 332.011
L106.551 332.119
L106.73 332.246
L107.355 332.317
L107.623 332.453
L108.605 340.874
L108.694 341.157
L109.408 346.572
L110.033 346.672
L110.301 346.919
L111.015 347.296
L111.194 347.3
L111.73 350.021
L112.176 352.845
L112.533 355.223
L112.801 357.022
L112.98 358.153
L113.069 358.12
L113.247 358.249
L113.604 358.295
L114.765 358.393
L115.033 359.536
L115.836 363.688
L116.283 365.568
L116.551 366.61
L116.819 366.676
L117.176 366.784
L117.444 366.846
L118.068 366.931
L118.336 366.972
L118.693 367.968
L118.872 368.511
L119.229 369.489
L119.408 369.954
L119.854 371.236
L119.943 371.236
L120.211 371.696
L120.925 371.756
L121.193 371.961
L121.908 372.012
L122.979 375.193
L123.157 375.259
L123.604 376.293
L123.782 376.503
L124.05 376.596
L125.479 376.603
L125.747 377.279
L125.836 377.352
L126.372 378.621
L126.729 378.759
L127.264 379.593
L127.443 379.593
L127.621 379.709
L129.139 379.815
L129.228 379.905
L129.586 380.642
L129.764 380.673
L130.389 381.913
L130.657 382.089
L131.282 382.194
L132.71 382.258
L133.246 382.876
L133.871 383.268
L134.675 383.886
L136.282 383.96
L137.174 384.596
L137.264 384.596
L137.442 384.794
L137.799 384.946
L139.764 385.009
L140.121 385.175
L140.388 385.238
L141.638 386.032
L143.603 386.097
L143.87 386.154
L145.21 386.523
L147.174 386.627
L148.245 386.887
L148.424 386.989
L148.87 387.053
L150.656 387.14
L151.459 387.331
L151.816 387.425
L152.173 387.558
L154.941 387.622
L155.209 387.716
L155.745 387.811
L156.102 387.842
L158.155 387.905
L158.423 387.975
L159.048 388.07
L159.405 388.101
L161.726 388.204
L162.173 388.267
L166.101 388.36
L166.458 388.391
L180.297 388.285
L182.261 388.248
L231.9 388.359
L245.471 388.446
L292.522 388.61
L332.698 388.762
L518.311 388.8
L518.311 388.8" style="fill:none;stroke:#008000;stroke-dasharray:1.000000,1.000000;stroke-dashoffset:0.0;"/>
   </g>
   <g id="line2d_3">
    <path clip-path="url(#p7ff5b81e1d)" d="
M72 331.536
L72.0893 316.14
L72.2678 303.464
L72.3571 298.514
L72.4464 299.808
L72.5357 299.329
L72.8035 295.344
L72.9821 297.763
L73.0714 300.003
L73.1606 298.539
L73.2499 298.609
L73.3392 301.585
L73.4285 301.478
L73.5178 301.668
L73.7856 305.88
L73.8749 305.797
L74.0534 304.897
L74.4998 310.513
L74.5891 310.489
L75.3926 325.609
L75.5712 331.223
L76.5533 356.847
L77.089 365.97
L77.3568 368.143
L77.4461 368.193
L77.8925 370.196
L77.9818 369.92
L78.4282 372.858
L78.7853 373.957
L78.8746 374.527
L78.9638 374.193
L80.0352 379.958
L80.303 380.942
L80.928 383.345
L81.1066 382.894
L81.1958 382.969
L81.4637 383.522
L81.553 383.41
L81.9101 383.868
L82.535 384.52
L82.6243 384.48
L83.2493 385.381
L84.1421 386.657
L84.2314 386.391
L84.4099 386.587
L84.767 386.545
L85.2134 386.579
L85.3027 386.6
L85.7491 386.122
L86.2848 386.189
L86.3741 386.281
L86.5526 386.187
L87.7133 387.004
L88.5168 387.033
L88.8739 387.003
L89.1418 386.708
L89.9453 386.629
L90.3917 386.91
L91.5523 387.531
L92.1773 387.499
L92.5344 387.442
L92.8915 387.375
L93.7843 387.49
L94.2307 387.645
L94.32 387.49
L94.4093 387.549
L94.5878 387.605
L95.1235 387.772
L96.1056 387.688
L96.2842 387.691
L96.4627 387.523
L97.177 387.655
L98.6947 388.037
L99.1411 387.968
L99.409 387.905
L101.284 388.003
L101.641 388.004
L101.998 388.026
L103.784 387.953
L105.301 388.204
L105.837 388.289
L111.372 388.297
L111.551 388.189
L112.087 388.248
L113.069 388.417
L115.033 388.311
L115.747 388.429
L116.461 388.456
L116.997 388.438
L119.676 388.546
L124.229 388.639
L125.657 388.627
L126.639 388.664
L187.885 388.587
L189.314 388.555
L197.617 388.444
L209.223 388.234
L210.116 388.197
L227.436 387.942
L229.133 387.917
L233.15 387.81
L235.382 387.746
L239.4 387.645
L240.204 387.628
L245.203 387.52
L246.9 387.49
L249.399 387.454
L251.453 387.405
L255.381 387.309
L256.452 387.263
L265.202 387.155
L266.72 387.17
L271.273 387.218
L305.467 387.288
L306.36 387.296
L312.074 387.41
L314.395 387.456
L326.359 387.567
L326.805 387.595
L335.376 387.7
L337.34 387.734
L342.518 387.844
L344.215 387.864
L351.625 387.973
L352.428 388.002
L356.357 388.11
L357.875 388.152
L365.106 388.257
L367.249 388.301
L380.373 388.41
L382.069 388.421
L394.926 388.526
L396.622 388.539
L410.818 388.646
L412.514 388.659
L448.583 388.77
L518.311 388.794
L518.311 388.794" style="fill:none;stroke:#ff0000;stroke-dasharray:3.000000,6.000000;stroke-dashoffset:0.0;"/>
   </g>
   <g id="line2d_4">
    <path clip-path="url(#p7ff5b81e1d)" d="
M72 324.602
L72.0893 309.585
L72.1786 304.278
L72.2678 298.388
L72.3571 301.292
L72.4464 297.662
L72.5357 298.696
L72.7142 302.079
L72.8035 302.302
L72.8928 299.343
L72.9821 301.263
L73.0714 300.388
L73.2499 302.601
L73.3392 302.9
L73.7856 311.616
L74.5891 327.678
L75.6605 345.002
L75.7498 345.767
L75.839 345.193
L76.6426 352.914
L76.7318 353.004
L76.8211 353.614
L77.2675 359.829
L78.3389 370.289
L78.9638 374.921
L79.321 376.62
L79.4995 376.391
L79.6781 376.761
L79.7674 376.932
L80.2138 378.866
L80.3923 379.147
L80.7494 380.708
L81.3744 382.397
L81.9101 383.374
L82.6243 384.386
L82.7136 384.294
L83.0707 384.791
L83.785 385.562
L83.9635 385.464
L84.2314 385.795
L86.017 386.568
L86.1955 386.618
L86.3741 386.408
L86.6419 386.571
L86.8205 386.418
L87.1776 386.552
L87.624 386.737
L87.7133 386.508
L87.8026 386.58
L88.0704 386.7
L89.1418 386.799
L89.9453 386.913
L90.3024 387.068
L90.3917 386.624
L90.481 386.696
L91.9094 387.198
L94.4986 387.504
L95.2128 387.695
L98.159 387.911
L100.302 388.052
L101.284 388.051
L101.462 387.916
L103.248 388.013
L104.587 388.109
L105.123 388.188
L105.569 388.194
L105.748 388.122
L106.73 388.147
L108.516 388.255
L111.819 388.385
L112.087 388.361
L112.622 388.408
L112.801 388.363
L113.515 388.397
L118.336 388.512
L118.961 388.547
L119.14 388.447
L119.408 388.438
L121.015 388.499
L125.657 388.608
L126.907 388.656
L132.532 388.736
L225.919 388.638
L227.526 388.618
L240.114 388.528
L242.525 388.517
L269.487 388.408
L272.166 388.402
L315.556 388.435
L318.591 388.461
L362.339 388.664
L364.571 388.686
L452.601 388.794
L454.386 388.8
L518.311 388.8
L518.311 388.8" style="fill:none;stroke:#00bfbf;stroke-dasharray:5.000000,1.000000,2.000000,1.000000,5.000000,1.000000;stroke-dashoffset:0.0;"/>
   </g>
   <g id="line2d_5">
    <path clip-path="url(#p7ff5b81e1d)" d="
M72 322.786
L72.0893 308.035
L72.1786 306.017
L72.625 298.292
L72.8928 304.745
L73.0714 302.36
L73.2499 303.919
L73.4285 303.682
L73.5178 305.222
L73.607 302.896
L73.7856 304.735
L74.3213 312.511
L75.4819 331.956
L76.1962 317.273
L76.464 310.218
L76.9997 299.128
L77.2675 295.766
L78.5174 326.254
L79.0531 336.523
L79.321 332.602
L80.303 318.477
L80.3923 318.243
L80.5709 315.76
L80.8387 312.787
L82.3565 334.436
L82.6243 337.6
L82.8922 333.771
L83.16 330.076
L83.6064 322.933
L84.1421 311.409
L84.2314 310.988
L84.4099 308.674
L84.9456 312.913
L85.392 315.928
L85.6598 317.493
L86.1955 320.067
L87.9811 285.335
L88.0704 285.771
L88.5168 287.431
L88.7846 287.851
L89.4989 290.41
L89.6774 290.806
L89.7667 291.059
L91.6416 252.753
L91.7309 252.661
L91.9094 252.878
L92.088 252.838
L92.6237 253.541
L92.8915 253.447
L93.0701 253.801
L93.2486 253.737
L93.3379 253.474
L93.8736 240.751
L95.2128 213.586
L95.5699 213.35
L96.0163 212.979
L96.2842 213.2
L96.3734 213.374
L96.7306 212.788
L96.8198 212.811
L96.9091 212.691
L98.3376 186.278
L98.6947 180.211
L98.784 180.51
L99.1411 180.492
L99.3197 180.381
L99.5875 180.381
L99.8554 180.338
L100.034 180.153
L100.48 179.7
L102.355 153.111
L102.444 153.132
L102.712 152.993
L102.802 152.989
L102.98 152.846
L103.159 152.821
L104.052 152.014
L104.498 147.089
L105.569 133.538
L105.837 131.928
L105.926 131.928
L106.105 131.629
L106.462 131.57
L106.819 131.382
L107.266 131.365
L107.533 131.262
L107.623 131.206
L108.426 122.814
L108.694 121.086
L109.498 114.759
L109.676 114.699
L109.944 114.732
L110.033 114.691
L110.301 114.4
L110.926 114.057
L111.194 114.073
L111.997 108.812
L112.98 101.371
L113.069 101.453
L113.337 101.279
L114.319 101.433
L114.497 101.338
L114.765 101.355
L115.033 99.9178
L115.301 97.9084
L115.479 96.145
L116.283 92.5682
L116.551 91.2694
L116.729 91.2017
L116.997 91.1945
L117.176 91.1125
L117.444 91.0512
L118.068 90.941
L118.336 90.8775
L118.693 89.5927
L118.783 89.3829
L119.14 87.9347
L119.229 87.9946
L119.408 87.3934
L119.765 85.8778
L120.211 85.1141
L120.925 85.0769
L121.104 84.9005
L121.55 84.8503
L121.908 84.8547
L122.354 83.0192
L122.532 82.1118
L122.622 81.8731
L122.8 81.1645
L123.336 80.0109
L123.693 79.0853
L125.479 79.084
L125.747 78.1861
L125.836 78.0785
L126.372 76.3634
L126.55 76.2945
L126.907 75.9486
L127.264 75.0974
L127.443 75.1082
L127.621 74.965
L129.05 74.9774
L129.228 74.7497
L129.586 73.7095
L129.764 73.6674
L130.389 71.8476
L130.657 71.5864
L131.103 71.4667
L132.71 71.4163
L133.246 70.5065
L133.96 69.8105
L134.407 69.0303
L136.282 68.9604
L136.817 68.4138
L136.907 68.375
L137.174 68.0232
L137.264 68.0238
L137.442 67.7419
L137.621 67.6293
L137.799 68.1447
L139.853 68.0788
L140.121 67.9564
L140.388 67.8864
L140.924 67.2867
L141.103 67.2008
L141.192 67.2008
L141.638 66.7082
L142.799 66.7233
L143.067 66.6818
L143.96 66.5948
L144.228 66.475
L144.495 66.4764
L144.674 66.3524
L144.763 66.3524
L144.852 66.9342
L144.942 66.8893
L145.299 66.7996
L146.37 66.8232
L146.549 66.9329
L147.084 66.857
L147.442 66.6234
L147.62 66.485
L147.799 66.361
L148.334 66.3652
L148.513 66.1937
L149.941 66.1567
L150.12 66.0683
L150.924 65.974
L151.37 65.8264
L151.548 66.5123
L152.263 66.1904
L153.87 66.2986
L154.227 66.3112
L154.941 66.2837
L155.12 66.1078
L155.298 66.138
L155.477 66.6968
L155.923 66.5212
L158.155 66.431
L158.334 66.2841
L158.602 66.247
L158.691 66.2487
L158.869 66.8954
L159.316 66.7141
L160.119 66.7319
L160.298 67.3611
L161.637 67.3378
L161.816 67.144
L162.084 67.0816
L162.262 67.7308
L166.101 67.6477
L166.369 67.5891
L167.351 67.6141
L167.53 67.8879
L169.226 67.9269
L169.404 68.5697
L169.851 68.5131
L170.119 68.3596
L171.369 68.3925
L171.547 68.6691
L171.815 68.6732
L171.994 69.4857
L172.351 69.5178
L172.529 69.8003
L172.708 69.8242
L172.976 70.3802
L173.154 70.3885
L173.333 70.659
L173.422 70.6594
L173.511 70.9346
L173.601 70.8507
L173.868 70.873
L174.047 71.4274
L174.315 71.9812
L174.404 71.9877
L174.761 73.0926
L175.029 74.2855
L175.208 74.296
L175.386 75.2035
L175.654 76.2995
L176.011 76.3251
L176.279 76.8823
L176.368 76.8982
L176.547 77.4572
L176.815 79.2469
L176.993 80.0597
L177.172 80.7049
L177.35 80.9829
L177.44 80.9867
L177.708 82.0677
L177.975 82.6267
L178.154 82.6372
L178.422 83.7207
L178.6 83.7259
L178.957 85.0864
L179.136 85.9767
L179.225 85.9786
L179.404 86.5118
L179.582 86.7947
L179.672 86.7992
L179.94 87.3499
L180.029 87.3567
L180.207 87.6415
L180.297 87.6569
L180.475 88.2037
L180.564 88.2154
L181.189 89.9158
L181.279 89.9168
L181.457 90.1931
L181.636 90.1936
L182.261 91.8849
L182.439 91.8858
L182.618 92.4915
L182.796 92.7622
L183.243 92.7698
L183.689 93.9124
L184.225 93.9448
L184.404 94.8238
L184.671 95.3626
L185.028 95.3717
L185.207 96.2389
L186.011 96.2725
L186.546 97.7451
L186.636 97.7462
L186.814 98.0164
L187.082 98.0206
L187.35 98.548
L187.439 98.5486
L187.618 99.148
L187.796 99.4156
L187.885 99.4215
L188.153 100.891
L188.332 100.898
L188.6 102.098
L188.689 102.099
L188.868 102.358
L189.582 102.362
L189.76 102.958
L190.564 102.981
L190.742 103.246
L191.01 103.251
L191.189 103.854
L191.724 103.873
L191.903 105.076
L192.796 105.105
L192.974 105.707
L193.242 105.708
L193.421 106.311
L194.314 106.334
L194.671 108.134
L195.474 108.159
L195.653 108.766
L196.01 108.772
L196.188 109.374
L197.081 109.386
L197.26 109.952
L197.438 109.952
L197.706 111.158
L198.778 111.194
L199.045 112.394
L199.224 112.394
L199.403 112.99
L199.67 112.99
L199.849 113.585
L199.938 113.585
L200.117 114.18
L200.385 114.186
L200.652 115.388
L200.831 115.389
L201.01 117.13
L201.277 117.146
L201.456 117.693
L202.974 117.731
L203.152 118.323
L204.402 118.342
L204.581 118.945
L204.849 118.962
L205.116 120.159
L205.474 120.181
L205.652 120.784
L205.831 120.79
L206.009 121.388
L206.366 121.396
L206.545 121.999
L207.17 122.023
L207.527 123.817
L207.706 123.817
L207.884 125.013
L208.152 125.024
L208.331 125.626
L208.598 125.633
L208.866 126.829
L209.045 126.836
L209.223 128.479
L209.402 130.264
L209.848 130.264
L210.116 131.444
L210.295 131.45
L210.741 133.735
L211.545 133.772
L211.991 135.943
L212.259 135.948
L212.437 136.533
L212.527 136.539
L212.884 138.254
L213.152 139.361
L213.241 139.367
L213.42 139.95
L214.312 139.971
L214.58 141.147
L214.759 141.158
L215.027 142.257
L215.116 142.272
L215.473 144.021
L215.562 144.025
L215.741 144.611
L216.991 144.622
L217.169 145.217
L217.526 145.232
L217.705 145.818
L217.884 145.819
L218.062 146.409
L218.687 146.43
L218.866 147.018
L219.133 147.027
L219.312 147.524
L219.58 147.564
L219.758 148.149
L219.937 148.154
L220.116 148.656
L221.098 148.697
L221.276 149.285
L221.455 149.285
L221.633 149.871
L222.615 149.889
L222.883 150.881
L223.24 150.898
L223.419 152.058
L224.044 152.087
L224.312 153.249
L224.758 153.264
L224.937 153.749
L225.204 153.749
L225.383 154.325
L225.74 154.336
L226.008 155.413
L226.365 156.964
L226.454 156.965
L226.633 157.552
L226.812 157.562
L226.99 158.135
L227.258 158.148
L227.526 159.291
L227.794 159.306
L228.061 160.46
L229.311 160.489
L229.579 162.503
L229.758 163.079
L229.936 163.083
L230.115 163.658
L230.204 163.658
L230.383 164.817
L230.561 164.817
L230.829 165.958
L231.097 165.963
L231.276 166.536
L231.722 166.542
L231.99 167.691
L232.168 167.694
L232.347 168.84
L232.525 169.416
L232.704 169.42
L232.883 169.999
L233.061 170.009
L233.418 173.206
L233.775 173.232
L234.043 174.261
L234.132 174.261
L234.311 174.826
L234.49 174.835
L234.757 175.978
L234.847 175.978
L235.025 176.547
L235.293 176.552
L235.472 177.124
L235.65 177.128
L235.829 177.693
L236.186 177.698
L236.543 179.159
L236.632 179.163
L236.811 180.182
L236.9 180.747
L237.079 182.877
L237.168 182.884
L237.347 183.887
L237.525 184.446
L237.614 184.446
L237.704 185.012
L237.882 186.442
L237.972 186.449
L238.239 187.562
L238.507 187.566
L238.775 188.683
L238.954 188.688
L239.221 189.674
L239.4 189.675
L239.579 190.789
L239.757 190.79
L239.846 191.223
L240.204 194.037
L240.293 194.037
L240.471 194.462
L240.65 194.469
L240.918 195.44
L241.632 195.464
L241.811 197.105
L241.9 197.105
L242.168 198.202
L242.346 198.207
L242.525 199.311
L242.793 199.319
L242.971 199.87
L243.06 199.871
L243.507 202.074
L244.132 202.109
L244.31 202.932
L244.578 206.324
L244.757 206.328
L245.025 207.269
L245.203 207.275
L245.471 208.358
L246.364 208.375
L246.542 209.462
L246.9 209.466
L247.078 209.867
L247.167 209.867
L247.346 210.808
L247.435 210.815
L247.614 211.211
L247.792 211.214
L247.882 211.617
L248.06 212.556
L248.417 212.568
L248.685 213.638
L248.953 213.645
L249.132 214.185
L249.221 214.185
L249.578 215.79
L250.114 215.801
L250.828 219.4
L251.185 219.42
L251.364 220.338
L251.631 220.342
L251.81 221.259
L252.613 221.281
L252.792 221.815
L253.149 221.825
L253.506 223.425
L253.596 223.425
L253.774 224.489
L254.935 231.266
L255.024 231.267
L255.649 234.765
L255.917 234.772
L256.095 236.334
L256.185 236.334
L256.363 236.859
L256.542 236.859
L256.72 237.728
L256.899 238.593
L257.077 238.599
L257.256 238.947
L257.524 238.948
L257.97 241.383
L258.06 241.383
L258.238 241.902
L258.595 241.913
L258.774 242.43
L258.952 242.436
L259.488 245.022
L259.667 245.024
L259.845 245.546
L259.934 245.546
L260.202 246.711
L260.559 246.721
L261.006 249.046
L261.274 249.047
L261.452 249.887
L261.541 250.015
L261.809 252.125
L261.899 252.252
L262.166 253.029
L262.434 253.03
L262.702 253.28
L263.059 255.051
L263.506 255.062
L263.863 255.994
L264.22 256.495
L264.398 257.235
L264.488 257.235
L264.845 259.893
L264.934 259.894
L265.023 260.018
L265.202 261.428
L265.559 262.946
L265.648 263.068
L265.916 264.46
L266.005 264.759
L266.273 266.419
L266.452 266.831
L266.72 268.175
L267.077 269.337
L267.345 270.621
L267.434 270.621
L267.612 271.074
L267.791 271.414
L267.97 272.965
L268.059 272.966
L268.416 275.119
L268.505 275.119
L269.22 277.406
L269.309 277.626
L269.487 278.18
L269.666 278.951
L269.844 280.266
L269.934 280.268
L270.112 281.533
L270.38 281.957
L270.559 283.749
L270.737 283.853
L270.827 283.957
L271.005 284.935
L271.184 284.937
L271.541 285.741
L271.809 285.947
L271.898 285.948
L272.076 286.518
L272.255 286.52
L272.523 287.944
L272.791 288.56
L273.059 290.696
L273.505 290.7
L274.13 292.219
L274.219 292.219
L274.398 292.833
L274.666 292.933
L274.844 293.545
L275.023 293.739
L275.201 294.404
L275.558 294.404
L275.737 295.064
L276.005 295.902
L276.094 295.903
L276.273 297.039
L276.54 297.931
L276.63 297.931
L276.808 299.634
L276.987 299.635
L277.523 301.826
L277.969 301.914
L278.148 302.955
L278.237 303.271
L278.415 304.077
L278.951 306.715
L279.308 309.369
L279.487 309.371
L279.755 311.414
L279.933 311.415
L280.201 312.207
L280.38 312.416
L280.469 312.416
L280.737 312.835
L280.826 312.836
L281.004 313.228
L282.254 313.232
L282.433 313.624
L282.522 313.624
L282.701 314.817
L282.969 317.56
L283.058 317.56
L283.415 318.144
L283.504 318.144
L283.683 318.344
L283.772 318.346
L284.04 318.927
L284.219 319.504
L284.486 319.504
L284.665 319.886
L284.933 319.887
L285.201 320.648
L285.29 320.649
L285.558 321.413
L285.915 321.415
L286.361 322.558
L286.54 323.497
L286.897 324.617
L287.343 325.552
L287.611 327.198
L287.79 327.198
L288.058 327.924
L288.325 327.924
L288.504 328.284
L288.593 328.284
L288.772 328.644
L288.95 328.644
L289.308 329.72
L289.486 329.721
L289.665 329.899
L289.754 329.899
L289.932 330.434
L290.111 330.434
L290.557 331.852
L290.915 332.379
L291.093 332.379
L291.54 333.941
L291.629 333.941
L291.986 334.984
L292.164 335.153
L292.343 335.153
L292.611 335.833
L293.593 337.502
L293.682 337.502
L294.129 338.837
L294.396 339.331
L294.575 339.982
L294.664 340.142
L294.843 340.96
L295.289 341.602
L295.646 341.603
L296.093 343.065
L296.45 343.065
L296.628 343.393
L296.807 343.542
L296.896 343.542
L297.075 344.016
L297.164 344.016
L297.432 344.811
L297.521 344.812
L297.789 345.926
L297.878 345.926
L298.146 346.5
L298.414 347.103
L298.771 347.104
L298.95 347.735
L299.128 347.737
L299.307 348.054
L299.396 348.054
L299.843 349.273
L300.021 349.408
L300.378 349.409
L300.557 349.722
L300.825 349.722
L301.092 350.57
L301.271 351.187
L301.45 351.188
L301.628 351.32
L301.717 351.32
L301.807 351.452
L301.985 352.28
L302.164 352.28
L302.432 352.84
L302.61 352.842
L302.7 353.141
L302.878 353.866
L303.146 354.463
L303.86 354.464
L304.039 355.06
L304.217 355.425
L304.485 355.425
L304.664 355.547
L304.753 355.547
L305.289 356.158
L305.378 356.158
L305.914 356.767
L306.003 356.767
L306.181 357.334
L306.449 357.901
L306.539 357.901
L306.717 358.302
L307.074 358.303
L307.253 358.7
L307.431 358.931
L307.521 358.931
L307.699 359.21
L307.967 359.667
L308.235 360.169
L308.413 360.395
L308.503 360.395
L308.592 360.622
L308.771 361.158
L308.86 361.158
L309.038 361.646
L309.306 362.13
L309.485 362.394
L309.842 362.503
L310.02 362.765
L310.467 362.873
L310.645 363.134
L310.824 363.24
L312.252 364.843
L312.342 364.843
L312.699 365.559
L313.413 365.663
L313.592 365.907
L313.86 366.008
L314.217 366.735
L314.752 366.736
L314.931 367.172
L315.467 367.173
L315.734 367.843
L316.002 367.843
L316.181 368.081
L316.895 368.175
L317.431 369.302
L318.056 369.391
L318.234 369.625
L318.502 369.714
L318.681 369.947
L318.77 369.947
L318.948 370.18
L319.038 370.18
L319.216 370.413
L319.306 370.413
L319.752 371.065
L320.02 371.234
L320.109 371.234
L320.377 372.134
L320.645 372.134
L320.823 372.359
L321.27 372.36
L321.448 372.585
L321.805 372.662
L322.252 372.973
L322.609 372.973
L322.788 373.706
L323.323 373.706
L323.502 374.072
L324.037 374.145
L324.216 374.218
L325.377 374.219
L325.555 374.433
L326.18 374.862
L326.359 374.933
L326.537 375.217
L327.073 375.563
L327.162 375.563
L327.43 375.905
L327.519 375.905
L327.698 376.106
L328.323 376.106
L328.501 376.307
L328.859 376.308
L329.037 376.509
L330.019 377.099
L330.108 377.099
L330.287 377.294
L331.091 377.294
L331.269 377.552
L331.537 377.614
L331.716 377.807
L332.073 377.93
L332.251 377.93
L332.43 378.121
L333.055 378.181
L333.233 378.43
L333.412 378.677
L333.858 378.735
L334.394 378.968
L334.84 378.968
L335.019 379.15
L335.465 379.207
L335.644 379.624
L335.733 379.624
L335.912 379.804
L336.358 379.858
L336.626 380.216
L337.162 380.423
L337.429 380.423
L337.608 380.648
L338.501 380.749
L338.679 380.952
L339.572 381.053
L339.84 381.205
L340.108 381.205
L340.286 381.416
L341.358 381.515
L342.251 381.927
L343.233 382.021
L343.5 382.069
L344.393 382.116
L344.661 382.259
L345.197 382.353
L345.375 382.5
L345.732 382.5
L346 382.793
L346.447 382.793
L346.625 382.939
L347.072 382.983
L347.25 383.17
L347.786 383.17
L347.964 383.314
L348.232 383.355
L348.947 383.407
L349.125 383.549
L349.214 383.549
L349.482 383.871
L350.464 383.951
L350.554 383.988
L350.732 384.199
L351.179 384.272
L351.446 384.345
L351.714 384.552
L352.696 384.63
L352.875 384.76
L354.036 385.107
L354.839 385.235
L355.821 385.534
L356.357 385.653
L356.803 385.732
L357.25 385.805
L358.589 385.948
L359.482 386.135
L360.107 386.25
L360.285 386.347
L361.803 386.425
L362.071 386.565
L362.339 386.565
L362.517 386.681
L363.231 386.774
L363.767 386.81
L364.481 386.9
L364.66 387.027
L365.374 387.141
L366.267 387.237
L367.606 387.339
L367.785 387.416
L371.802 387.522
L371.981 387.593
L372.606 387.68
L372.784 387.764
L375.731 387.874
L376.177 387.901
L381.177 387.995
L381.623 388.168
L387.873 388.241
L388.14 388.302
L391.89 388.377
L392.158 388.424
L393.944 388.47
L401.443 388.579
L403.05 388.592
L414.21 388.699
L416.442 388.709
L518.311 388.8
L518.311 388.8" style="fill:none;stroke:#bf00bf;stroke-linecap:square;"/>
   </g>
   <g id="matplotlib.axis_1">
    <g id="xtick_1">
     <g id="line2d_6">
      <defs>
       <path d="
M0 0
L0 -4" id="mc7db9fdffb" style="stroke:#000000;stroke-width:0.5;"/>
      </defs>
      <g>
       <use style="stroke:#000000;stroke-width:0.5;" x="72.0" xlink:href="#mc7db9fdffb" y="388.8"/>
      </g>
     </g>
     <g id="line2d_7">
      <defs>
       <path d="
M0 0
L0 4" id="m5a7d422ac3" style="stroke:#000000;stroke-width:0.5;"/>
      </defs>
      <g>
       <use style="stroke:#000000;stroke-width:0.5;" x="72.0" xlink:href="#m5a7d422ac3" y="43.2"/>
      </g>
     </g>
     <g id="text_1">
      <!-- 0 -->
      <defs>
       <path d="
M56.9844 36.375
Q56.9844 16.7969 50.8594 7.64062
Q44.7344 -1.51562 31.8438 -1.51562
Q18.75 -1.51562 12.7188 7.76562
Q6.6875 17.0469 6.6875 36.2812
Q6.6875 55.6719 12.7812 64.9219
Q18.8906 74.1719 31.8438 74.1719
Q44.9219 74.1719 50.9531 64.7656
Q56.9844 55.375 56.9844 36.375
M44.1406 14.2031
Q45.8438 18.1719 46.4531 23.5156
Q47.0781 28.8594 47.0781 36.375
Q47.0781 43.7969 46.4531 49.2656
Q45.8438 54.7344 44.0938 58.5469
Q42.3906 62.3125 39.4219 64.2031
Q36.4688 66.1094 31.8438 66.1094
Q27.25 66.1094 24.2344 64.2031
Q21.2344 62.3125 19.4844 58.4531
Q17.8281 54.8281 17.2188 49.0156
Q16.6094 43.2188 16.6094 36.2812
Q16.6094 28.6562 17.1406 23.5312
Q17.6719 18.4062 19.4375 14.3594
Q21.0469 10.5469 24 8.54688
Q26.9531 6.54688 31.8438 6.54688
Q36.4219 6.54688 39.4531 8.45312
Q42.4844 10.3594 44.1406 14.2031" id="Verdana-30"/>
      </defs>
      <g transform="translate(68.9821875 401.918125)scale(0.12 -0.12)">
       <use xlink:href="#Verdana-30"/>
      </g>
     </g>
    </g>
    <g id="xtick_2">
     <g id="line2d_8">
      <g>
       <use style="stroke:#000000;stroke-width:0.5;" x="161.28" xlink:href="#mc7db9fdffb" y="388.8"/>
      </g>
     </g>
     <g id="line2d_9">
      <g>
       <use style="stroke:#000000;stroke-width:0.5;" x="161.28" xlink:href="#m5a7d422ac3" y="43.2"/>
      </g>
     </g>
     <g id="text_2">
      <!-- 1000 -->
      <defs>
       <path d="
M52.9375 0
L13.5781 0
L13.5781 7.42188
L28.7188 7.42188
L28.7188 56.1562
L13.5781 56.1562
L13.5781 62.7969
Q16.6562 62.7969 20.1719 63.2969
Q23.6875 63.8125 25.4844 64.7969
Q27.7344 66.0156 29.0312 67.8906
Q30.3281 69.7812 30.5156 72.9531
L38.0938 72.9531
L38.0938 7.42188
L52.9375 7.42188
z
" id="Verdana-31"/>
      </defs>
      <g transform="translate(147.2315625 401.918125)scale(0.12 -0.12)">
       <use xlink:href="#Verdana-31"/>
       <use x="63.57421875" xlink:href="#Verdana-30"/>
       <use x="127.1484375" xlink:href="#Verdana-30"/>
       <use x="190.72265625" xlink:href="#Verdana-30"/>
      </g>
     </g>
    </g>
    <g id="xtick_3">
     <g id="line2d_10">
      <g>
       <use style="stroke:#000000;stroke-width:0.5;" x="250.56" xlink:href="#mc7db9fdffb" y="388.8"/>
      </g>
     </g>
     <g id="line2d_11">
      <g>
       <use style="stroke:#000000;stroke-width:0.5;" x="250.56" xlink:href="#m5a7d422ac3" y="43.2"/>
      </g>
     </g>
     <g id="text_3">
      <!-- 2000 -->
      <defs>
       <path d="
M57.0781 0
L7.85938 0
L7.85938 10.2031
Q12.9844 14.5938 18.1406 18.9844
Q23.2969 23.3906 27.7344 27.7344
Q37.1094 36.8125 40.5781 42.1562
Q44.0469 47.5156 44.0469 53.7188
Q44.0469 59.375 40.3125 62.5625
Q36.5781 65.7656 29.8906 65.7656
Q25.4375 65.7656 20.2656 64.2031
Q15.0938 62.6406 10.1562 59.4219
L9.67188 59.4219
L9.67188 69.6719
Q13.1406 71.3906 18.9219 72.7969
Q24.7031 74.2188 30.125 74.2188
Q41.3125 74.2188 47.6562 68.8125
Q54 63.4219 54 54.2031
Q54 50.0469 52.9531 46.4531
Q51.9062 42.875 49.8594 39.6562
Q47.9531 36.625 45.3906 33.6875
Q42.8281 30.7656 39.1562 27.2031
Q33.9375 22.0781 28.3594 17.2656
Q22.7969 12.4531 17.9688 8.34375
L57.0781 8.34375
z
" id="Verdana-32"/>
      </defs>
      <g transform="translate(236.1684375 401.918125)scale(0.12 -0.12)">
       <use xlink:href="#Verdana-32"/>
       <use x="63.57421875" xlink:href="#Verdana-30"/>
       <use x="127.1484375" xlink:href="#Verdana-30"/>
       <use x="190.72265625" xlink:href="#Verdana-30"/>
      </g>
     </g>
    </g>
    <g id="xtick_4">
     <g id="line2d_12">
      <g>
       <use style="stroke:#000000;stroke-width:0.5;" x="339.84" xlink:href="#mc7db9fdffb" y="388.8"/>
      </g>
     </g>
     <g id="line2d_13">
      <g>
       <use style="stroke:#000000;stroke-width:0.5;" x="339.84" xlink:href="#m5a7d422ac3" y="43.2"/>
      </g>
     </g>
     <g id="text_4">
      <!-- 3000 -->
      <defs>
       <path d="
M50.6875 35.0156
Q53.0312 32.9062 54.5469 29.7344
Q56.0625 26.5625 56.0625 21.5312
Q56.0625 16.5469 54.25 12.3906
Q52.4375 8.25 49.1719 5.17188
Q45.5156 1.76562 40.5469 0.125
Q35.5938 -1.51562 29.6875 -1.51562
Q23.6406 -1.51562 17.7812 -0.0625
Q11.9219 1.375 8.15625 3.07812
L8.15625 13.2812
L8.89062 13.2812
Q13.0312 10.5469 18.6406 8.73438
Q24.2656 6.9375 29.5 6.9375
Q32.5625 6.9375 36.0312 7.95312
Q39.5 8.98438 41.6562 10.9844
Q43.8906 13.1406 44.9844 15.7188
Q46.0938 18.3125 46.0938 22.2656
Q46.0938 26.1719 44.8438 28.7344
Q43.6094 31.2969 41.4062 32.7656
Q39.2031 34.2812 36.0781 34.8438
Q32.9531 35.4062 29.3438 35.4062
L24.9531 35.4062
L24.9531 43.5
L28.375 43.5
Q35.7969 43.5 40.2031 46.5938
Q44.625 49.7031 44.625 55.6719
Q44.625 58.2969 43.5 60.2656
Q42.3906 62.25 40.375 63.5312
Q38.2812 64.7969 35.8906 65.2812
Q33.5 65.7656 30.4688 65.7656
Q25.8281 65.7656 20.5938 64.1094
Q15.375 62.4531 10.75 59.4219
L10.25 59.4219
L10.25 69.625
Q13.7188 71.3438 19.5 72.7812
Q25.2969 74.2188 30.7188 74.2188
Q36.0312 74.2188 40.0781 73.2344
Q44.1406 72.2656 47.4062 70.125
Q50.9219 67.7812 52.7344 64.4531
Q54.5469 61.1406 54.5469 56.6875
Q54.5469 50.6406 50.2656 46.125
Q46 41.6094 40.1875 40.4375
L40.1875 39.75
Q42.5312 39.3594 45.5469 38.1094
Q48.5781 36.8594 50.6875 35.0156" id="Verdana-33"/>
      </defs>
      <g transform="translate(325.46625 401.918125)scale(0.12 -0.12)">
       <use xlink:href="#Verdana-33"/>
       <use x="63.57421875" xlink:href="#Verdana-30"/>
       <use x="127.1484375" xlink:href="#Verdana-30"/>
       <use x="190.72265625" xlink:href="#Verdana-30"/>
      </g>
     </g>
    </g>
    <g id="xtick_5">
     <g id="line2d_14">
      <g>
       <use style="stroke:#000000;stroke-width:0.5;" x="429.12" xlink:href="#mc7db9fdffb" y="388.8"/>
      </g>
     </g>
     <g id="line2d_15">
      <g>
       <use style="stroke:#000000;stroke-width:0.5;" x="429.12" xlink:href="#m5a7d422ac3" y="43.2"/>
      </g>
     </g>
     <g id="text_5">
      <!-- 4000 -->
      <defs>
       <path d="
M58.7344 20.4531
L47.9531 20.4531
L47.9531 0
L38.5781 0
L38.5781 20.4531
L3.76562 20.4531
L3.76562 31.6875
L38.9688 72.7031
L47.9531 72.7031
L47.9531 28.2656
L58.7344 28.2656
z

M38.5781 28.2656
L38.5781 61.0781
L10.4062 28.2656
z
" id="Verdana-34"/>
      </defs>
      <g transform="translate(414.4828125 401.918125)scale(0.12 -0.12)">
       <use xlink:href="#Verdana-34"/>
       <use x="63.57421875" xlink:href="#Verdana-30"/>
       <use x="127.1484375" xlink:href="#Verdana-30"/>
       <use x="190.72265625" xlink:href="#Verdana-30"/>
      </g>
     </g>
    </g>
    <g id="xtick_6">
     <g id="line2d_16">
      <g>
       <use style="stroke:#000000;stroke-width:0.5;" x="518.4" xlink:href="#mc7db9fdffb" y="388.8"/>
      </g>
     </g>
     <g id="line2d_17">
      <g>
       <use style="stroke:#000000;stroke-width:0.5;" x="518.4" xlink:href="#m5a7d422ac3" y="43.2"/>
      </g>
     </g>
     <g id="text_6">
      <!-- 5000 -->
      <defs>
       <path d="
M56.5 23.0938
Q56.5 18.0156 54.6406 13.375
Q52.7812 8.73438 49.5625 5.5625
Q46.0469 2.15625 41.1875 0.3125
Q36.3281 -1.51562 29.9375 -1.51562
Q23.9688 -1.51562 18.4531 -0.265625
Q12.9375 0.984375 9.125 2.73438
L9.125 13.0312
L9.8125 13.0312
Q13.8125 10.5 19.1875 8.71875
Q24.5625 6.9375 29.7344 6.9375
Q33.2031 6.9375 36.4531 7.90625
Q39.7031 8.89062 42.2344 11.3281
Q44.3906 13.4219 45.4844 16.3438
Q46.5781 19.2812 46.5781 23.1406
Q46.5781 26.9062 45.2812 29.4844
Q44 32.0781 41.7031 33.6406
Q39.1562 35.5 35.5156 36.25
Q31.8906 37.0156 27.3906 37.0156
Q23.0938 37.0156 19.1094 36.4219
Q15.1406 35.8438 12.25 35.25
L12.25 72.7031
L56 72.7031
L56 64.1562
L21.6875 64.1562
L21.6875 44.8281
Q23.7812 45.0156 25.9688 45.1094
Q28.1719 45.2188 29.7812 45.2188
Q35.6875 45.2188 40.125 44.2188
Q44.5781 43.2188 48.2969 40.6719
Q52.2031 37.9844 54.3438 33.7344
Q56.5 29.5 56.5 23.0938" id="Verdana-35"/>
      </defs>
      <g transform="translate(504.084375 401.918125)scale(0.12 -0.12)">
       <use xlink:href="#Verdana-35"/>
       <use x="63.57421875" xlink:href="#Verdana-30"/>
       <use x="127.1484375" xlink:href="#Verdana-30"/>
       <use x="190.72265625" xlink:href="#Verdana-30"/>
      </g>
     </g>
    </g>
    <g id="text_7">
     <!-- Objective function exectuions -->
     <defs>
      <path d="
M63.9688 64.3594
Q68.4062 59.4688 70.7656 52.3906
Q73.1406 45.3125 73.1406 36.3281
Q73.1406 27.3438 70.7188 20.2344
Q68.3125 13.1406 63.9688 8.40625
Q59.4688 3.46875 53.3438 0.96875
Q47.2188 -1.51562 39.3594 -1.51562
Q31.6875 -1.51562 25.4062 1.01562
Q19.1406 3.5625 14.75 8.40625
Q10.3594 13.2344 7.98438 20.2656
Q5.60938 27.2969 5.60938 36.3281
Q5.60938 45.2188 7.95312 52.2656
Q10.2969 59.3281 14.7969 64.3594
Q19.0938 69.1406 25.4688 71.6719
Q31.8438 74.2188 39.3594 74.2188
Q47.1719 74.2188 53.3906 71.6562
Q59.625 69.0938 63.9688 64.3594
M63.0938 36.3281
Q63.0938 50.4844 56.7344 58.1719
Q50.3906 65.875 39.4062 65.875
Q28.3281 65.875 22 58.1719
Q15.6719 50.4844 15.6719 36.3281
Q15.6719 22.0156 22.1094 14.4219
Q28.5625 6.84375 39.4062 6.84375
Q50.25 6.84375 56.6719 14.4219
Q63.0938 22.0156 63.0938 36.3281" id="Verdana-4f"/>
      <path d="
M38.375 67.0938
L37.8906 67.0938
Q36.375 67.5312 33.9375 67.9844
Q31.5 68.4531 29.6406 68.4531
Q23.7344 68.4531 21.0625 65.8438
Q18.4062 63.2344 18.4062 56.3906
L18.4062 54.5469
L34.9688 54.5469
L34.9688 46.8281
L18.7031 46.8281
L18.7031 0
L9.51562 0
L9.51562 46.8281
L3.32812 46.8281
L3.32812 54.5469
L9.51562 54.5469
L9.51562 56.3438
Q9.51562 66.0625 14.3438 71.2656
Q19.1875 76.4688 28.3281 76.4688
Q31.3906 76.4688 33.8594 76.1719
Q36.3281 75.875 38.375 75.4844
z
" id="Verdana-66"/>
      <path d="
M57.0312 27.6875
Q57.0312 20.8438 55.0938 15.375
Q53.1719 9.90625 49.9062 6.20312
Q46.4375 2.34375 42.2812 0.40625
Q38.1406 -1.51562 33.1562 -1.51562
Q28.5156 -1.51562 25.0469 -0.40625
Q21.5781 0.6875 18.2188 2.54688
L17.625 0
L9.03125 0
L9.03125 75.9844
L18.2188 75.9844
L18.2188 48.8281
Q22.0781 52 26.4219 54.0312
Q30.7656 56.0625 36.1875 56.0625
Q45.8438 56.0625 51.4375 48.6406
Q57.0312 41.2188 57.0312 27.6875
M47.5625 27.4375
Q47.5625 37.2031 44.3281 42.25
Q41.1094 47.3125 33.9375 47.3125
Q29.9375 47.3125 25.8281 45.5781
Q21.7344 43.8438 18.2188 41.1094
L18.2188 9.85938
Q22.125 8.10938 24.9219 7.42188
Q27.7344 6.73438 31.2969 6.73438
Q38.9219 6.73438 43.2344 11.7344
Q47.5625 16.75 47.5625 27.4375" id="Verdana-62"/>
      <path id="Verdana-20"/>
      <path d="
M18.8906 63.6719
L8.54688 63.6719
L8.54688 73.1875
L18.8906 73.1875
z

M18.3125 0
L9.125 0
L9.125 54.5469
L18.3125 54.5469
z
" id="Verdana-69"/>
      <path d="
M26.0312 63.6719
L15.6719 63.6719
L15.6719 73.1875
L26.0312 73.1875
z

M25.4375 -1.3125
Q25.4375 -10.8906 20.5469 -15.7656
Q15.6719 -20.6562 7.46875 -20.6562
Q5.51562 -20.6562 2.3125 -20.2656
Q-0.875 -19.875 -3.03125 -19.2812
L-3.03125 -10.5469
L-2.54688 -10.5469
Q-1.17188 -11.0781 1.14062 -11.7656
Q3.46875 -12.4531 5.67188 -12.4531
Q9.1875 -12.4531 11.3281 -11.4688
Q13.4844 -10.5 14.5469 -8.54688
Q15.625 -6.59375 15.9375 -3.82812
Q16.2656 -1.07812 16.2656 2.875
L16.2656 46.8281
L4.89062 46.8281
L4.89062 54.5469
L25.4375 54.5469
z
" id="Verdana-6a"/>
      <path d="
M48 15.7188
Q48 8.25 41.8125 3.46875
Q35.6406 -1.3125 24.9531 -1.3125
Q18.8906 -1.3125 13.8438 0.125
Q8.79688 1.5625 5.375 3.26562
L5.375 13.5781
L5.85938 13.5781
Q10.2031 10.2969 15.5156 8.375
Q20.8438 6.45312 25.7344 6.45312
Q31.7812 6.45312 35.2031 8.40625
Q38.625 10.3594 38.625 14.5469
Q38.625 17.7812 36.7656 19.4375
Q34.9062 21.0938 29.6406 22.2656
Q27.6875 22.7031 24.5312 23.2812
Q21.3906 23.875 18.7969 24.5625
Q11.625 26.4688 8.60938 30.1562
Q5.60938 33.8438 5.60938 39.2031
Q5.60938 42.5781 7 45.5469
Q8.40625 48.5312 11.2344 50.875
Q13.9688 53.1719 18.1875 54.5156
Q22.4062 55.8594 27.6406 55.8594
Q32.5156 55.8594 37.5156 54.6562
Q42.5312 53.4688 45.8438 51.7656
L45.8438 41.9375
L45.3594 41.9375
Q41.8438 44.5312 36.8125 46.3125
Q31.7812 48.0938 26.9531 48.0938
Q21.9219 48.0938 18.4531 46.1562
Q14.9844 44.2344 14.9844 40.4375
Q14.9844 37.0625 17.0938 35.3594
Q19.1406 33.6406 23.7344 32.5625
Q26.2656 31.9844 29.4062 31.3906
Q32.5625 30.8125 34.6719 30.3281
Q41.0625 28.8594 44.5312 25.2969
Q48 21.6875 48 15.7188" id="Verdana-73"/>
      <path d="
M55.5156 27.25
Q55.5156 13.9219 48.6719 6.20312
Q41.8438 -1.51562 30.375 -1.51562
Q18.7969 -1.51562 11.9844 6.20312
Q5.17188 13.9219 5.17188 27.25
Q5.17188 40.5781 11.9844 48.3125
Q18.7969 56.0625 30.375 56.0625
Q41.8438 56.0625 48.6719 48.3125
Q55.5156 40.5781 55.5156 27.25
M46.0469 27.25
Q46.0469 37.8438 41.8906 42.9844
Q37.75 48.1406 30.375 48.1406
Q22.9062 48.1406 18.7812 42.9844
Q14.6562 37.8438 14.6562 27.25
Q14.6562 17 18.7969 11.6875
Q22.9531 6.39062 30.375 6.39062
Q37.7031 6.39062 41.875 11.6406
Q46.0469 16.8906 46.0469 27.25" id="Verdana-6f"/>
      <path d="
M54.6875 26.3125
L14.5 26.3125
Q14.5 21.2969 16.0156 17.5469
Q17.5312 13.8125 20.1719 11.4219
Q22.7031 9.07812 26.1875 7.90625
Q29.6875 6.73438 33.8906 6.73438
Q39.4531 6.73438 45.0938 8.95312
Q50.7344 11.1875 53.125 13.3281
L53.6094 13.3281
L53.6094 3.32812
Q48.9688 1.375 44.1406 0.046875
Q39.3125 -1.26562 33.9844 -1.26562
Q20.4062 -1.26562 12.7812 6.07812
Q5.17188 13.4219 5.17188 26.9531
Q5.17188 40.3281 12.4688 48.1875
Q19.7812 56.0625 31.6875 56.0625
Q42.7188 56.0625 48.7031 49.6094
Q54.6875 43.1719 54.6875 31.2969
z

M45.75 33.3438
Q45.7031 40.5781 42.1094 44.5312
Q38.5312 48.4844 31.2031 48.4844
Q23.8281 48.4844 19.4531 44.1406
Q15.0938 39.7969 14.5 33.3438
z
" id="Verdana-65"/>
      <path d="
M54.25 0
L45.0625 0
L45.0625 6.0625
Q40.4375 2.39062 36.1875 0.4375
Q31.9375 -1.51562 26.8125 -1.51562
Q18.2188 -1.51562 13.4219 3.73438
Q8.64062 8.98438 8.64062 19.1406
L8.64062 54.5469
L17.8281 54.5469
L17.8281 23.4844
Q17.8281 19.3438 18.2188 16.375
Q18.6094 13.4219 19.875 11.3281
Q21.1875 9.1875 23.2812 8.20312
Q25.3906 7.23438 29.3906 7.23438
Q32.9531 7.23438 37.1719 9.07812
Q41.4062 10.9375 45.0625 13.8125
L45.0625 54.5469
L54.25 54.5469
z
" id="Verdana-75"/>
      <path d="
M49.3594 3.42188
Q44.7812 1.21875 40.6562 0
Q36.5312 -1.21875 31.8906 -1.21875
Q25.9844 -1.21875 21.0469 0.515625
Q16.1094 2.25 12.5938 5.76562
Q9.03125 9.28125 7.07812 14.6406
Q5.125 20.0156 5.125 27.2031
Q5.125 40.5781 12.4688 48.1875
Q19.8281 55.8125 31.8906 55.8125
Q36.5781 55.8125 41.0938 54.4844
Q45.6094 53.1719 49.3594 51.2656
L49.3594 41.0625
L48.875 41.0625
Q44.6719 44.3438 40.2031 46.0938
Q35.75 47.8594 31.5 47.8594
Q23.6875 47.8594 19.1719 42.6094
Q14.6562 37.3594 14.6562 27.2031
Q14.6562 17.3281 19.0625 12.0312
Q23.4844 6.73438 31.5 6.73438
Q34.2812 6.73438 37.1562 7.46875
Q40.0469 8.20312 42.3281 9.375
Q44.3438 10.4062 46.0938 11.5469
Q47.8594 12.7031 48.875 13.5312
L49.3594 13.5312
z
" id="Verdana-63"/>
      <path d="
M54.6406 0
L45.4531 0
L45.4531 31.0625
Q45.4531 34.8125 45.0156 38.1094
Q44.5781 41.4062 43.4062 43.2656
Q42.1875 45.3125 39.8906 46.3125
Q37.5938 47.3125 33.9375 47.3125
Q30.1719 47.3125 26.0625 45.4531
Q21.9688 43.6094 18.2188 40.7188
L18.2188 0
L9.03125 0
L9.03125 54.5469
L18.2188 54.5469
L18.2188 48.4844
Q22.5156 52.0469 27.0938 54.0469
Q31.6875 56.0625 36.5312 56.0625
Q45.3594 56.0625 50 50.7344
Q54.6406 45.4062 54.6406 35.4062
z
" id="Verdana-6e"/>
      <path d="
M37.3594 0.484375
Q34.7656 -0.203125 31.7031 -0.640625
Q28.6562 -1.07812 26.2656 -1.07812
Q17.9219 -1.07812 13.5781 3.40625
Q9.23438 7.90625 9.23438 17.8281
L9.23438 46.8281
L3.03125 46.8281
L3.03125 54.5469
L9.23438 54.5469
L9.23438 70.2188
L18.4062 70.2188
L18.4062 54.5469
L37.3594 54.5469
L37.3594 46.8281
L18.4062 46.8281
L18.4062 21.9688
Q18.4062 17.6719 18.5938 15.25
Q18.7969 12.8438 19.9688 10.75
Q21.0469 8.79688 22.9219 7.89062
Q24.8125 6.98438 28.6562 6.98438
Q30.9062 6.98438 33.3438 7.64062
Q35.7969 8.29688 36.8594 8.73438
L37.3594 8.73438
z
" id="Verdana-74"/>
      <path d="
M56.2031 54.5469
L34.125 0
L24.9062 0
L2.98438 54.5469
L12.9375 54.5469
L29.8281 11.1406
L46.5781 54.5469
z
" id="Verdana-76"/>
      <path d="
M56.25 0
L44.6719 0
L29.2031 20.9531
L13.625 0
L2.9375 0
L24.2188 27.2031
L3.125 54.5469
L14.7031 54.5469
L30.0781 33.9375
L45.5156 54.5469
L56.25 54.5469
L34.8125 27.6875
z
" id="Verdana-78"/>
     </defs>
     <g transform="translate(206.5078125 418.509375)scale(0.12 -0.12)">
      <use xlink:href="#Verdana-4f"/>
      <use x="78.7109375" xlink:href="#Verdana-62"/>
      <use x="141.015625" xlink:href="#Verdana-6a"/>
      <use x="175.439453125" xlink:href="#Verdana-65"/>
      <use x="235.009765625" xlink:href="#Verdana-63"/>
      <use x="287.109375" xlink:href="#Verdana-74"/>
      <use x="326.513671875" xlink:href="#Verdana-69"/>
      <use x="353.955078125" xlink:href="#Verdana-76"/>
      <use x="412.259765625" xlink:href="#Verdana-65"/>
      <use x="471.830078125" xlink:href="#Verdana-20"/>
      <use x="506.986328125" xlink:href="#Verdana-66"/>
      <use x="542.142578125" xlink:href="#Verdana-75"/>
      <use x="605.423828125" xlink:href="#Verdana-6e"/>
      <use x="668.705078125" xlink:href="#Verdana-63"/>
      <use x="720.8046875" xlink:href="#Verdana-74"/>
      <use x="760.208984375" xlink:href="#Verdana-69"/>
      <use x="787.650390625" xlink:href="#Verdana-6f"/>
      <use x="848.34375" xlink:href="#Verdana-6e"/>
      <use x="911.625" xlink:href="#Verdana-20"/>
      <use x="946.78125" xlink:href="#Verdana-65"/>
      <use x="1006.3515625" xlink:href="#Verdana-78"/>
      <use x="1064.40625" xlink:href="#Verdana-65"/>
      <use x="1123.9765625" xlink:href="#Verdana-63"/>
      <use x="1176.076171875" xlink:href="#Verdana-74"/>
      <use x="1215.48046875" xlink:href="#Verdana-75"/>
      <use x="1278.76171875" xlink:href="#Verdana-69"/>
      <use x="1306.203125" xlink:href="#Verdana-6f"/>
      <use x="1366.896484375" xlink:href="#Verdana-6e"/>
      <use x="1430.177734375" xlink:href="#Verdana-73"/>
     </g>
    </g>
   </g>
   <g id="matplotlib.axis_2">
    <g id="ytick_1">
     <g id="line2d_18">
      <defs>
       <path d="
M0 0
L4 0" id="md7965d1ba0" style="stroke:#000000;stroke-width:0.5;"/>
      </defs>
      <g>
       <use style="stroke:#000000;stroke-width:0.5;" x="72.0" xlink:href="#md7965d1ba0" y="388.8"/>
      </g>
     </g>
     <g id="line2d_19">
      <defs>
       <path d="
M0 0
L-4 0" id="md9a1c1a7cd" style="stroke:#000000;stroke-width:0.5;"/>
      </defs>
      <g>
       <use style="stroke:#000000;stroke-width:0.5;" x="518.4" xlink:href="#md9a1c1a7cd" y="388.8"/>
      </g>
     </g>
     <g id="text_8">
      <!-- 0.0 -->
      <defs>
       <path d="
M24.0312 0
L12.3594 0
L12.3594 13.9219
L24.0312 13.9219
z
" id="Verdana-2e"/>
      </defs>
      <g transform="translate(49.97 392.1515625)scale(0.12 -0.12)">
       <use xlink:href="#Verdana-30"/>
       <use x="63.57421875" xlink:href="#Verdana-2e"/>
       <use x="99.951171875" xlink:href="#Verdana-30"/>
      </g>
     </g>
    </g>
    <g id="ytick_2">
     <g id="line2d_20">
      <g>
       <use style="stroke:#000000;stroke-width:0.5;" x="72.0" xlink:href="#md7965d1ba0" y="319.68"/>
      </g>
     </g>
     <g id="line2d_21">
      <g>
       <use style="stroke:#000000;stroke-width:0.5;" x="518.4" xlink:href="#md9a1c1a7cd" y="319.68"/>
      </g>
     </g>
     <g id="text_9">
      <!-- 0.2 -->
      <g transform="translate(49.95875 323.0315625)scale(0.12 -0.12)">
       <use xlink:href="#Verdana-30"/>
       <use x="63.57421875" xlink:href="#Verdana-2e"/>
       <use x="99.951171875" xlink:href="#Verdana-32"/>
      </g>
     </g>
    </g>
    <g id="ytick_3">
     <g id="line2d_22">
      <g>
       <use style="stroke:#000000;stroke-width:0.5;" x="72.0" xlink:href="#md7965d1ba0" y="250.56"/>
      </g>
     </g>
     <g id="line2d_23">
      <g>
       <use style="stroke:#000000;stroke-width:0.5;" x="518.4" xlink:href="#md9a1c1a7cd" y="250.56"/>
      </g>
     </g>
     <g id="text_10">
      <!-- 0.4 -->
      <g transform="translate(49.76 253.9115625)scale(0.12 -0.12)">
       <use xlink:href="#Verdana-30"/>
       <use x="63.57421875" xlink:href="#Verdana-2e"/>
       <use x="99.951171875" xlink:href="#Verdana-34"/>
      </g>
     </g>
    </g>
    <g id="ytick_4">
     <g id="line2d_24">
      <g>
       <use style="stroke:#000000;stroke-width:0.5;" x="72.0" xlink:href="#md7965d1ba0" y="181.44"/>
      </g>
     </g>
     <g id="line2d_25">
      <g>
       <use style="stroke:#000000;stroke-width:0.5;" x="518.4" xlink:href="#md9a1c1a7cd" y="181.44"/>
      </g>
     </g>
     <g id="text_11">
      <!-- 0.6 -->
      <defs>
       <path d="
M58.1562 23.5781
Q58.1562 12.5 50.8594 5.48438
Q43.5625 -1.51562 32.9531 -1.51562
Q27.5938 -1.51562 23.1875 0.140625
Q18.7969 1.8125 15.4375 5.07812
Q11.2344 9.125 8.95312 15.8125
Q6.6875 22.5156 6.6875 31.9375
Q6.6875 41.6094 8.76562 49.0781
Q10.8438 56.5469 15.375 62.3594
Q19.6719 67.875 26.4531 70.9688
Q33.25 74.0781 42.2812 74.0781
Q45.1719 74.0781 47.125 73.8281
Q49.0781 73.5781 51.0781 72.9531
L51.0781 63.625
L50.5938 63.625
Q49.2188 64.3594 46.4531 65.0156
Q43.7031 65.6719 40.8281 65.6719
Q30.3281 65.6719 24.0781 59.1094
Q17.8281 52.5469 16.7969 41.3594
Q20.9062 43.8438 24.875 45.1406
Q28.8594 46.4375 34.0781 46.4375
Q38.7188 46.4375 42.25 45.5781
Q45.7969 44.7344 49.5156 42.1406
Q53.8125 39.1562 55.9844 34.6094
Q58.1562 30.0781 58.1562 23.5781
M48.25 23.1875
Q48.25 27.7344 46.9062 30.7031
Q45.5625 33.6875 42.4844 35.8906
Q40.2344 37.4531 37.5 37.9375
Q34.7656 38.4219 31.7812 38.4219
Q27.6406 38.4219 24.0781 37.4375
Q20.5156 36.4688 16.75 34.4219
Q16.6562 33.3438 16.5938 32.3438
Q16.5469 31.3438 16.5469 29.8281
Q16.5469 22.125 18.1406 17.6562
Q19.7344 13.1875 22.5156 10.5938
Q24.75 8.45312 27.3594 7.45312
Q29.9844 6.45312 33.0625 6.45312
Q40.1406 6.45312 44.1875 10.7656
Q48.25 15.0938 48.25 23.1875" id="Verdana-36"/>
      </defs>
      <g transform="translate(49.829375 184.7915625)scale(0.12 -0.12)">
       <use xlink:href="#Verdana-30"/>
       <use x="63.57421875" xlink:href="#Verdana-2e"/>
       <use x="99.951171875" xlink:href="#Verdana-36"/>
      </g>
     </g>
    </g>
    <g id="ytick_5">
     <g id="line2d_26">
      <g>
       <use style="stroke:#000000;stroke-width:0.5;" x="72.0" xlink:href="#md7965d1ba0" y="112.32"/>
      </g>
     </g>
     <g id="line2d_27">
      <g>
       <use style="stroke:#000000;stroke-width:0.5;" x="518.4" xlink:href="#md9a1c1a7cd" y="112.32"/>
      </g>
     </g>
     <g id="text_12">
      <!-- 0.8 -->
      <defs>
       <path d="
M57.625 20.2656
Q57.625 10.8438 50.2656 4.59375
Q42.9219 -1.65625 31.7812 -1.65625
Q19.9688 -1.65625 12.9531 4.4375
Q5.95312 10.5469 5.95312 20.0625
Q5.95312 26.125 9.46875 31.0312
Q12.9844 35.9375 19.3906 38.8125
L19.3906 39.1094
Q13.5312 42.2344 10.7188 45.9375
Q7.90625 49.6562 7.90625 55.2188
Q7.90625 63.4219 14.6406 68.8906
Q21.3906 74.3594 31.7812 74.3594
Q42.6719 74.3594 49.1719 69.1406
Q55.6719 63.9219 55.6719 55.8594
Q55.6719 50.9219 52.5938 46.1562
Q49.5156 41.4062 43.5625 38.7188
L43.5625 38.4219
Q50.3906 35.5 54 31.2031
Q57.625 26.9062 57.625 20.2656
M46.0469 55.7656
Q46.0469 60.9844 42.0156 64.0781
Q37.9844 67.1875 31.7344 67.1875
Q25.5938 67.1875 21.6562 64.25
Q17.7188 61.3281 17.7188 56.3438
Q17.7188 52.8281 19.7031 50.2656
Q21.6875 47.7031 25.6875 45.7031
Q27.4844 44.8281 30.875 43.4062
Q34.2812 42 37.5 41.0625
Q42.3281 44.2812 44.1875 47.75
Q46.0469 51.2188 46.0469 55.7656
M47.5625 19.3438
Q47.5625 23.8281 45.5781 26.5312
Q43.6094 29.25 37.8438 31.9844
Q35.5469 33.0625 32.8125 33.9844
Q30.0781 34.9062 25.5312 36.5781
Q21.1406 34.1875 18.4844 30.0781
Q15.8281 25.9844 15.8281 20.7969
Q15.8281 14.2031 20.3594 9.90625
Q24.9062 5.60938 31.8906 5.60938
Q39.0156 5.60938 43.2812 9.26562
Q47.5625 12.9375 47.5625 19.3438" id="Verdana-38"/>
      </defs>
      <g transform="translate(49.893125 115.6715625)scale(0.12 -0.12)">
       <use xlink:href="#Verdana-30"/>
       <use x="63.57421875" xlink:href="#Verdana-2e"/>
       <use x="99.951171875" xlink:href="#Verdana-38"/>
      </g>
     </g>
    </g>
    <g id="ytick_6">
     <g id="line2d_28">
      <g>
       <use style="stroke:#000000;stroke-width:0.5;" x="72.0" xlink:href="#md7965d1ba0" y="43.2"/>
      </g>
     </g>
     <g id="line2d_29">
      <g>
       <use style="stroke:#000000;stroke-width:0.5;" x="518.4" xlink:href="#md9a1c1a7cd" y="43.2"/>
      </g>
     </g>
     <g id="text_13">
      <!-- 1.0 -->
      <g transform="translate(50.796875 46.5515625)scale(0.12 -0.12)">
       <use xlink:href="#Verdana-31"/>
       <use x="63.57421875" xlink:href="#Verdana-2e"/>
       <use x="99.951171875" xlink:href="#Verdana-30"/>
      </g>
     </g>
    </g>
    <g id="text_14">
     <!-- Rank 0 Probability -->
     <defs>
      <path d="
M56.2031 54.5469
L24.3594 -20.125
L14.5469 -20.125
L24.7031 2.64062
L2.98438 54.5469
L12.9375 54.5469
L29.6875 14.1094
L46.5781 54.5469
z
" id="Verdana-79"/>
      <path d="
M69.9219 0
L57.375 0
L33.0625 28.9062
L19.4375 28.9062
L19.4375 0
L9.76562 0
L9.76562 72.7031
L30.125 72.7031
Q36.7188 72.7031 41.1094 71.8438
Q45.5156 71 49.0312 68.7969
Q52.9844 66.3125 55.2031 62.5156
Q57.4219 58.7344 57.4219 52.9375
Q57.4219 45.0625 53.4688 39.7656
Q49.5156 34.4688 42.5781 31.7812
z

M47.3125 52.25
Q47.3125 55.375 46.2188 57.7812
Q45.125 60.2031 42.5781 61.8594
Q40.4844 63.2812 37.5938 63.8438
Q34.7188 64.4062 30.8125 64.4062
L19.4375 64.4062
L19.4375 36.9688
L29.2031 36.9688
Q33.7969 36.9688 37.2031 37.7656
Q40.625 38.5781 43.0156 40.7656
Q45.2188 42.8281 46.2656 45.4844
Q47.3125 48.1406 47.3125 52.25" id="Verdana-52"/>
      <path d="
M51.4219 0
L42.2812 0
L42.2812 5.8125
Q41.0625 4.98438 38.9844 3.48438
Q36.9219 2 34.9688 1.125
Q32.6719 0 29.6875 -0.75
Q26.7031 -1.51562 22.7031 -1.51562
Q15.3281 -1.51562 10.2031 3.35938
Q5.07812 8.25 5.07812 15.8281
Q5.07812 22.0156 7.73438 25.8438
Q10.4062 29.6875 15.3281 31.8906
Q20.3125 34.0781 27.2969 34.8594
Q34.2812 35.6406 42.2812 36.0312
L42.2812 37.4531
Q42.2812 40.5781 41.1875 42.625
Q40.0938 44.6719 38.0312 45.8438
Q36.0781 46.9688 33.3438 47.3594
Q30.6094 47.75 27.6406 47.75
Q24.0312 47.75 19.5781 46.7969
Q15.1406 45.8438 10.4062 44.0469
L9.90625 44.0469
L9.90625 53.375
Q12.5938 54.1094 17.6719 54.9844
Q22.75 55.8594 27.6875 55.8594
Q33.4531 55.8594 37.7188 54.9062
Q42 53.9531 45.125 51.6562
Q48.1875 49.4219 49.7969 45.8438
Q51.4219 42.2812 51.4219 37.0156
z

M42.2812 13.4219
L42.2812 28.6094
Q38.0938 28.375 32.3906 27.875
Q26.7031 27.3906 23.3906 26.4688
Q19.4375 25.3438 16.9844 22.9688
Q14.5469 20.6094 14.5469 16.4531
Q14.5469 11.7656 17.375 9.39062
Q20.2188 7.03125 26.0312 7.03125
Q30.8594 7.03125 34.8594 8.90625
Q38.875 10.7969 42.2812 13.4219" id="Verdana-61"/>
      <path d="
M57.3281 50.7344
Q57.3281 45.9062 55.6406 41.7656
Q53.9531 37.6406 50.9219 34.625
Q47.1719 30.8594 42.0469 28.9688
Q36.9219 27.0938 29.1094 27.0938
L19.4375 27.0938
L19.4375 0
L9.76562 0
L9.76562 72.7031
L29.5 72.7031
Q36.0312 72.7031 40.5781 71.6094
Q45.125 70.5156 48.6406 68.1719
Q52.7812 65.375 55.0469 61.2188
Q57.3281 57.0781 57.3281 50.7344
M47.2656 50.4844
Q47.2656 54.25 45.9375 57.0312
Q44.625 59.8125 41.9375 61.5781
Q39.5938 63.0938 36.5938 63.75
Q33.5938 64.4062 29 64.4062
L19.4375 64.4062
L19.4375 35.3594
L27.5938 35.3594
Q33.4531 35.3594 37.1094 36.4062
Q40.7656 37.4531 43.0625 39.75
Q45.3594 42.0938 46.3125 44.6719
Q47.2656 47.2656 47.2656 50.4844" id="Verdana-50"/>
      <path d="
M18.3125 0
L9.125 0
L9.125 75.9844
L18.3125 75.9844
z
" id="Verdana-6c"/>
      <path d="
M58.5469 0
L46.4375 0
L24.5625 23.875
L18.6094 18.2188
L18.6094 0
L9.42188 0
L9.42188 75.9844
L18.6094 75.9844
L18.6094 27.25
L45.125 54.5469
L56.6875 54.5469
L31.3438 29.3438
z
" id="Verdana-6b"/>
      <path d="
M43.0625 44.5312
L42.5781 44.5312
Q40.5312 45.0156 38.5938 45.2344
Q36.6719 45.4531 34.0312 45.4531
Q29.7812 45.4531 25.8281 43.5781
Q21.875 41.7031 18.2188 38.7188
L18.2188 0
L9.03125 0
L9.03125 54.5469
L18.2188 54.5469
L18.2188 46.4844
Q23.6875 50.875 27.8594 52.7031
Q32.0312 54.5469 36.375 54.5469
Q38.7656 54.5469 39.8438 54.4219
Q40.9219 54.2969 43.0625 53.9531
z
" id="Verdana-72"/>
     </defs>
     <g transform="translate(42.345 270.583125)rotate(-90.0)scale(0.12 -0.12)">
      <use xlink:href="#Verdana-52"/>
      <use x="67.53125" xlink:href="#Verdana-61"/>
      <use x="127.58984375" xlink:href="#Verdana-6e"/>
      <use x="190.87109375" xlink:href="#Verdana-6b"/>
      <use x="250.05078125" xlink:href="#Verdana-20"/>
      <use x="285.20703125" xlink:href="#Verdana-30"/>
      <use x="348.78125" xlink:href="#Verdana-20"/>
      <use x="383.9375" xlink:href="#Verdana-50"/>
      <use x="444.240234375" xlink:href="#Verdana-72"/>
      <use x="486.916015625" xlink:href="#Verdana-6f"/>
      <use x="547.609375" xlink:href="#Verdana-62"/>
      <use x="609.9140625" xlink:href="#Verdana-61"/>
      <use x="669.97265625" xlink:href="#Verdana-62"/>
      <use x="732.27734375" xlink:href="#Verdana-69"/>
      <use x="759.71875" xlink:href="#Verdana-6c"/>
      <use x="787.16015625" xlink:href="#Verdana-69"/>
      <use x="814.6015625" xlink:href="#Verdana-74"/>
      <use x="853.505859375" xlink:href="#Verdana-79"/>
     </g>
    </g>
   </g>
   <g id="patch_3">
    <path d="
M518.4 388.8
L518.4 43.2" style="fill:none;stroke:#000000;"/>
   </g>
   <g id="patch_4">
    <path d="
M72 43.2
L518.4 43.2" style="fill:none;stroke:#000000;"/>
   </g>
   <g id="patch_5">
    <path d="
M72 388.8
L518.4 388.8" style="fill:none;stroke:#000000;"/>
   </g>
   <g id="patch_6">
    <path d="
M72 388.8
L72 43.2" style="fill:none;stroke:#000000;"/>
   </g>
   <g id="text_15">
    <!-- Plateau Rank 0 Probability -->
    <g transform="translate(200.52 38.2)scale(0.144 -0.144)">
     <use xlink:href="#Verdana-50"/>
     <use x="60.302734375" xlink:href="#Verdana-6c"/>
     <use x="87.744140625" xlink:href="#Verdana-61"/>
     <use x="147.802734375" xlink:href="#Verdana-74"/>
     <use x="187.20703125" xlink:href="#Verdana-65"/>
     <use x="246.77734375" xlink:href="#Verdana-61"/>
     <use x="306.8359375" xlink:href="#Verdana-75"/>
     <use x="370.1171875" xlink:href="#Verdana-20"/>
     <use x="405.2734375" xlink:href="#Verdana-52"/>
     <use x="472.8046875" xlink:href="#Verdana-61"/>
     <use x="532.86328125" xlink:href="#Verdana-6e"/>
     <use x="596.14453125" xlink:href="#Verdana-6b"/>
     <use x="655.32421875" xlink:href="#Verdana-20"/>
     <use x="690.48046875" xlink:href="#Verdana-30"/>
     <use x="754.0546875" xlink:href="#Verdana-20"/>
     <use x="789.2109375" xlink:href="#Verdana-50"/>
     <use x="849.513671875" xlink:href="#Verdana-72"/>
     <use x="892.189453125" xlink:href="#Verdana-6f"/>
     <use x="952.8828125" xlink:href="#Verdana-62"/>
     <use x="1015.1875" xlink:href="#Verdana-61"/>
     <use x="1075.24609375" xlink:href="#Verdana-62"/>
     <use x="1137.55078125" xlink:href="#Verdana-69"/>
     <use x="1164.9921875" xlink:href="#Verdana-6c"/>
     <use x="1192.43359375" xlink:href="#Verdana-69"/>
     <use x="1219.875" xlink:href="#Verdana-74"/>
     <use x="1258.779296875" xlink:href="#Verdana-79"/>
    </g>
   </g>
   <g id="legend_1">
    <g id="patch_7">
     <path d="
M407.18 159.919
L511.2 159.919
L511.2 50.4
L407.18 50.4
L407.18 159.919
z
" style="fill:#ffffff;stroke:#000000;"/>
    </g>
    <g id="line2d_30">
     <path d="
M417.26 62.0617
L437.42 62.0617" style="fill:none;stroke:#0000ff;stroke-dasharray:6.000000,2.000000;stroke-dashoffset:0.0;"/>
    </g>
    <g id="line2d_31"/>
    <g id="text_16">
     <!-- AMPGO -->
     <defs>
      <path d="
M74.5156 0
L64.8438 0
L64.8438 62.6406
L44.625 20.0156
L38.875 20.0156
L18.7969 62.6406
L18.7969 0
L9.76562 0
L9.76562 72.7031
L22.9531 72.7031
L42.3281 32.2344
L61.0781 72.7031
L74.5156 72.7031
z
" id="Verdana-4d"/>
      <path d="
M67.0938 0
L56.7812 0
L49.6562 20.2656
L18.2188 20.2656
L11.0781 0
L1.26562 0
L27.7344 72.7031
L40.625 72.7031
z

M46.6875 28.5625
L33.9375 64.2656
L21.1406 28.5625
z
" id="Verdana-41"/>
      <path d="
M70.4062 5.375
Q64.4531 2.64062 57.3906 0.609375
Q50.3438 -1.42188 43.75 -1.42188
Q35.25 -1.42188 28.1719 0.921875
Q21.0938 3.26562 16.1094 7.95312
Q11.0781 12.7031 8.34375 19.7969
Q5.60938 26.9062 5.60938 36.4219
Q5.60938 53.8594 15.7969 63.9375
Q25.9844 74.0312 43.75 74.0312
Q49.9531 74.0312 56.4219 72.5312
Q62.8906 71.0469 70.3594 67.4844
L70.3594 56
L69.4844 56
Q67.9688 57.1719 65.0781 59.0781
Q62.2031 60.9844 59.4219 62.25
Q56.0625 63.7656 51.7812 64.7656
Q47.5156 65.7656 42.0938 65.7656
Q29.8906 65.7656 22.7812 57.9219
Q15.6719 50.0938 15.6719 36.7188
Q15.6719 22.6094 23.0938 14.7656
Q30.5156 6.9375 43.3125 6.9375
Q48 6.9375 52.6562 7.85938
Q57.3281 8.79688 60.8438 10.25
L60.8438 28.0781
L41.3594 28.0781
L41.3594 36.5781
L70.4062 36.5781
z
" id="Verdana-47"/>
     </defs>
     <g transform="translate(453.26025 67.10175)scale(0.144 -0.144)">
      <use xlink:href="#Verdana-41"/>
      <use x="68.359375" xlink:href="#Verdana-4d"/>
      <use x="152.63671875" xlink:href="#Verdana-50"/>
      <use x="212.939453125" xlink:href="#Verdana-47"/>
      <use x="290.478515625" xlink:href="#Verdana-4f"/>
     </g>
    </g>
    <g id="line2d_32">
     <path d="
M417.26 83.1015
L437.42 83.1015" style="fill:none;stroke:#008000;stroke-dasharray:1.000000,1.000000;stroke-dashoffset:0.0;"/>
    </g>
    <g id="line2d_33"/>
    <g id="text_17">
     <!-- Anneal -->
     <g transform="translate(453.26025 88.1415)scale(0.144 -0.144)">
      <use xlink:href="#Verdana-41"/>
      <use x="68.359375" xlink:href="#Verdana-6e"/>
      <use x="131.640625" xlink:href="#Verdana-6e"/>
      <use x="194.921875" xlink:href="#Verdana-65"/>
      <use x="254.4921875" xlink:href="#Verdana-61"/>
      <use x="314.55078125" xlink:href="#Verdana-6c"/>
     </g>
    </g>
    <g id="line2d_34">
     <path d="
M417.26 104.141
L437.42 104.141" style="fill:none;stroke:#ff0000;stroke-dasharray:3.000000,6.000000;stroke-dashoffset:0.0;"/>
    </g>
    <g id="line2d_35"/>
    <g id="text_18">
     <!-- BSA -->
     <defs>
      <path d="
M62.5938 20.75
Q62.5938 16.5 60.6094 12.3438
Q58.6406 8.20312 55.0781 5.32812
Q51.1719 2.20312 45.9688 0.4375
Q40.7656 -1.3125 33.4531 -1.3125
Q25.5938 -1.3125 19.3125 0.140625
Q13.0312 1.60938 6.54688 4.5
L6.54688 16.6094
L7.23438 16.6094
Q12.75 12.0156 19.9688 9.51562
Q27.2031 7.03125 33.5469 7.03125
Q42.5312 7.03125 47.5312 10.3906
Q52.5469 13.7656 52.5469 19.3906
Q52.5469 24.2188 50.1719 26.5156
Q47.7969 28.8125 42.9688 30.0781
Q39.3125 31.0625 35.0312 31.6875
Q30.7656 32.3281 25.9844 33.2969
Q16.3125 35.3594 11.6406 40.3125
Q6.98438 45.2656 6.98438 53.2188
Q6.98438 62.3594 14.6875 68.1875
Q22.4062 74.0312 34.2812 74.0312
Q41.9375 74.0312 48.3281 72.5625
Q54.7344 71.0938 59.6719 68.9531
L59.6719 57.5156
L58.9844 57.5156
Q54.8281 61.0312 48.0625 63.3438
Q41.3125 65.6719 34.2344 65.6719
Q26.4688 65.6719 21.75 62.4531
Q17.0469 59.2344 17.0469 54.1562
Q17.0469 49.6094 19.3906 47.0156
Q21.7344 44.4375 27.6406 43.0625
Q30.7656 42.3906 36.5156 41.4062
Q42.2812 40.4375 46.2969 39.4062
Q54.3906 37.25 58.4844 32.9062
Q62.5938 28.5625 62.5938 20.75" id="Verdana-53"/>
      <path d="
M64.5938 22.3594
Q64.5938 16.9375 62.5469 12.7812
Q60.5 8.64062 57.0312 5.95312
Q52.9375 2.73438 48.0156 1.35938
Q43.1094 0 35.5469 0
L9.76562 0
L9.76562 72.7031
L31.2969 72.7031
Q39.2656 72.7031 43.2188 72.1094
Q47.1719 71.5312 50.7812 69.6719
Q54.7812 67.5781 56.5938 64.2812
Q58.4062 60.9844 58.4062 56.3906
Q58.4062 51.2188 55.7656 47.5781
Q53.125 43.9531 48.7344 41.75
L48.7344 41.3594
Q56.1094 39.8438 60.3438 34.8906
Q64.5938 29.9375 64.5938 22.3594
M48.3438 55.125
Q48.3438 57.7656 47.4531 59.5625
Q46.5781 61.375 44.625 62.5
Q42.3281 63.8125 39.0625 64.125
Q35.7969 64.4531 30.9531 64.4531
L19.4375 64.4531
L19.4375 43.4531
L31.9375 43.4531
Q36.4688 43.4531 39.1562 43.9219
Q41.8438 44.3906 44.1406 45.8438
Q46.4375 47.3125 47.3906 49.625
Q48.3438 51.9531 48.3438 55.125
M54.5469 21.9688
Q54.5469 26.375 53.2188 28.9531
Q51.9062 31.5469 48.4375 33.3438
Q46.0938 34.5781 42.75 34.9375
Q39.4062 35.2969 34.625 35.2969
L19.4375 35.2969
L19.4375 8.25
L32.2344 8.25
Q38.5781 8.25 42.625 8.90625
Q46.6875 9.57812 49.2656 11.3281
Q52 13.2344 53.2656 15.6719
Q54.5469 18.1094 54.5469 21.9688" id="Verdana-42"/>
     </defs>
     <g transform="translate(453.26025 109.18125)scale(0.144 -0.144)">
      <use xlink:href="#Verdana-42"/>
      <use x="68.5546875" xlink:href="#Verdana-53"/>
      <use x="135.9140625" xlink:href="#Verdana-41"/>
     </g>
    </g>
    <g id="line2d_36">
     <path d="
M417.26 125.181
L437.42 125.181" style="fill:none;stroke:#00bfbf;stroke-dasharray:5.000000,1.000000,2.000000,1.000000,5.000000,1.000000;stroke-dashoffset:0.0;"/>
    </g>
    <g id="line2d_37"/>
    <g id="text_19">
     <!-- Cuckoo -->
     <defs>
      <path d="
M65.9219 5.28125
Q63.2344 4.10938 61.0625 3.07812
Q58.8906 2.04688 55.375 0.921875
Q52.3906 0 48.8906 -0.65625
Q45.4062 -1.3125 41.2188 -1.3125
Q33.2969 -1.3125 26.8281 0.90625
Q20.3594 3.125 15.5781 7.85938
Q10.8906 12.5 8.25 19.6562
Q5.60938 26.8125 5.60938 36.2812
Q5.60938 45.2656 8.14062 52.3438
Q10.6875 59.4219 15.4844 64.3125
Q20.125 69.0469 26.6875 71.5312
Q33.25 74.0312 41.2656 74.0312
Q47.125 74.0312 52.9531 72.6094
Q58.7969 71.1875 65.9219 67.625
L65.9219 56.1562
L65.1875 56.1562
Q59.1875 61.1875 53.2656 63.4688
Q47.3594 65.7656 40.625 65.7656
Q35.1094 65.7656 30.6875 63.9844
Q26.2656 62.2031 22.7969 58.4531
Q19.4375 54.7812 17.5469 49.1875
Q15.6719 43.6094 15.6719 36.2812
Q15.6719 28.6094 17.75 23.0938
Q19.8281 17.5781 23.0938 14.1094
Q26.5156 10.5 31.0781 8.76562
Q35.6406 7.03125 40.7188 7.03125
Q47.7031 7.03125 53.7969 9.42188
Q59.9062 11.8125 65.2344 16.6094
L65.9219 16.6094
z
" id="Verdana-43"/>
     </defs>
     <g transform="translate(453.26025 130.221)scale(0.144 -0.144)">
      <use xlink:href="#Verdana-43"/>
      <use x="69.82421875" xlink:href="#Verdana-75"/>
      <use x="133.10546875" xlink:href="#Verdana-63"/>
      <use x="185.205078125" xlink:href="#Verdana-6b"/>
      <use x="243.384765625" xlink:href="#Verdana-6f"/>
      <use x="304.078125" xlink:href="#Verdana-6f"/>
     </g>
    </g>
    <g id="line2d_38">
     <path d="
M417.26 146.221
L437.42 146.221" style="fill:none;stroke:#bf00bf;stroke-linecap:square;"/>
    </g>
    <g id="line2d_39"/>
    <g id="text_20">
     <!-- qABC -->
     <defs>
      <path d="
M53.2656 -20.125
L44.0938 -20.125
L44.0938 6.15625
Q39.8438 2.48438 35.6406 0.703125
Q31.4531 -1.07812 26.5625 -1.07812
Q16.8438 -1.07812 11.0625 6.42188
Q5.28125 13.9219 5.28125 27.0938
Q5.28125 34.125 7.29688 39.5156
Q9.32812 44.9219 12.6406 48.5781
Q15.875 52.1562 20.2188 54.1094
Q24.5625 56.0625 29.3906 56.0625
Q33.7969 56.0625 37.1875 55.0781
Q40.5781 54.1094 44.0938 52.2031
L44.6719 54.5469
L53.2656 54.5469
z

M44.0938 13.875
L44.0938 44.7344
Q40.2812 46.4375 37.3438 47.1094
Q34.4219 47.7969 31 47.7969
Q23.0469 47.7969 18.8906 42.4062
Q14.75 37.0156 14.75 27.5469
Q14.75 17.9688 18.0938 12.8125
Q21.4375 7.67188 28.6094 7.67188
Q32.625 7.67188 36.625 9.40625
Q40.625 11.1406 44.0938 13.875" id="Verdana-71"/>
     </defs>
     <g transform="translate(453.26025 151.26075)scale(0.144 -0.144)">
      <use xlink:href="#Verdana-71"/>
      <use x="62.3046875" xlink:href="#Verdana-41"/>
      <use x="130.6640625" xlink:href="#Verdana-42"/>
      <use x="199.21875" xlink:href="#Verdana-43"/>
     </g>
    </g>
   </g>
  </g>
 </g>
 <defs>
  <clipPath id="p7ff5b81e1d">
   <rect height="345.6" width="446.4" x="72.0" y="43.2"/>
  </clipPath>
 </defs>
</svg>
