<?xml version="1.0" encoding="utf-8" standalone="no"?>
<!DOCTYPE svg PUBLIC "-//W3C//DTD SVG 1.1//EN"
  "http://www.w3.org/Graphics/SVG/1.1/DTD/svg11.dtd">
<!-- Created with matplotlib (http://matplotlib.org/) -->
<svg height="432pt" version="1.1" viewBox="0 0 576 432" width="576pt" xmlns="http://www.w3.org/2000/svg" xmlns:xlink="http://www.w3.org/1999/xlink">
 <defs>
  <style type="text/css">
*{stroke-linecap:butt;stroke-linejoin:round;}
  </style>
 </defs>
 <g id="figure_1">
  <g id="patch_1">
   <path d="
M0 432
L576 432
L576 0
L0 0
z
" style="fill:#ffffff;"/>
  </g>
  <g id="axes_1">
   <g id="patch_2">
    <path d="
M72 388.8
L518.4 388.8
L518.4 43.2
L72 43.2
z
" style="fill:#ffffff;"/>
   </g>
   <g id="line2d_1">
    <path clip-path="url(#p7ff5b81e1d)" d="
M72 388.8
L518.311 388.8
L518.311 388.8" style="fill:none;stroke:#0000ff;stroke-dasharray:6.000000,2.000000;stroke-dashoffset:0.0;"/>
   </g>
   <g id="line2d_2">
    <path clip-path="url(#p7ff5b81e1d)" d="
M72 388.522
L72.0893 388.8
L72.1786 388.8
L72.2678 388.8
L72.4464 388.522
L74.1427 388.522
L74.3213 387.967
L74.4106 387.967
L74.5891 387.69
L74.7677 387.69
L74.857 388.245
L74.9462 387.967
L75.1248 388.522
L75.6605 387.134
L75.839 387.134
L75.9283 388.245
L76.0176 387.967
L76.1962 388.522
L77.9818 388.522
L78.1603 388.245
L79.1424 388.245
L79.4102 387.69
L79.6781 387.69
L80.0352 386.857
L80.2138 388.522
L80.3923 388.245
L81.0173 388.245
L81.1958 388.522
L81.3744 388.245
L81.9101 388.245
L82.0886 387.69
L82.6243 387.69
L82.8029 387.412
L82.8922 387.412
L83.16 386.857
L83.3386 386.857
L83.6064 386.302
L83.6957 386.302
L83.8742 386.024
L84.0528 386.024
L84.3206 385.469
L84.8563 385.469
L85.0349 385.191
L85.2134 385.191
L85.392 384.914
L85.4813 384.914
L85.6598 384.636
L85.9277 384.636
L86.1062 384.359
L86.2848 384.359
L86.7312 383.248
L86.8205 383.248
L86.999 382.971
L87.0883 382.971
L87.2669 382.415
L87.4454 382.415
L87.9811 381.027
L88.4275 381.027
L89.1418 379.084
L89.231 379.084
L89.4989 378.529
L89.9453 378.529
L90.481 377.141
L91.3738 377.141
L91.5523 376.864
L91.6416 376.864
L91.8202 376.031
L91.9094 376.031
L92.088 375.753
L92.4451 375.753
L92.713 375.198
L92.9808 375.198
L93.1594 374.92
L93.8736 374.92
L94.1414 374.365
L94.2307 374.365
L94.4986 373.81
L94.7664 373.81
L95.0342 373.255
L95.3021 373.255
L95.5699 372.7
L95.6592 372.7
L95.8378 372.422
L96.7306 372.422
L96.9091 372.145
L97.0877 372.145
L97.2662 371.867
L97.5341 371.867
L97.7126 371.312
L98.0698 370.479
L99.409 370.479
L99.5875 370.201
L112.98 370.201
L113.158 369.924
L167.351 369.924
L167.53 369.646
L171.369 369.646
L171.547 369.369
L171.815 369.369
L171.994 368.536
L172.351 368.536
L172.529 368.258
L172.708 368.258
L172.976 367.703
L173.154 367.703
L173.333 367.426
L173.422 367.426
L173.601 367.148
L173.868 367.148
L174.047 366.593
L174.315 366.038
L174.404 366.038
L174.851 364.927
L174.94 364.927
L175.118 364.372
L175.208 364.372
L175.743 362.984
L176.011 362.984
L176.279 362.429
L176.368 362.429
L177.083 360.486
L177.172 360.486
L177.35 360.208
L177.44 360.208
L177.708 359.098
L177.975 358.543
L178.154 358.543
L178.422 357.432
L178.6 357.432
L179.493 354.934
L179.672 354.934
L179.94 354.379
L180.029 354.379
L180.207 354.101
L180.297 354.101
L180.475 353.546
L180.564 353.546
L181.011 352.436
L181.279 352.436
L181.457 352.158
L181.636 352.158
L181.904 351.603
L182.082 351.603
L182.261 351.048
L182.618 351.048
L182.796 350.77
L183.243 350.77
L183.421 350.493
L183.511 350.493
L183.689 350.215
L184.225 350.215
L184.493 349.66
L184.582 349.66
L184.761 349.382
L185.118 349.382
L185.296 349.105
L186.011 349.105
L186.189 348.827
L186.636 348.827
L186.814 348.549
L187.082 348.549
L187.35 347.994
L187.618 347.994
L187.796 347.717
L188.064 347.717
L188.243 347.439
L188.689 347.439
L188.868 347.161
L190.564 347.161
L190.742 346.884
L260.113 346.884
L260.292 346.606
L260.827 346.606
L261.006 346.329
L261.452 346.329
L261.72 345.773
L261.809 345.773
L261.988 345.496
L262.077 345.496
L262.256 345.218
L262.434 345.218
L262.702 344.663
L262.791 344.663
L262.97 344.386
L263.595 344.386
L264.041 342.165
L264.131 342.165
L264.666 340.777
L264.756 340.777
L265.113 339.944
L265.38 339.944
L265.648 339.389
L265.827 339.389
L266.095 338.279
L266.363 337.168
L266.452 337.168
L266.63 336.058
L266.988 334.67
L267.255 333.56
L267.702 331.894
L267.97 330.506
L268.059 330.506
L268.237 329.396
L268.862 327.73
L269.22 327.73
L269.398 327.175
L269.577 327.175
L269.844 325.787
L269.934 325.787
L270.916 323.011
L271.452 323.011
L271.809 322.178
L271.898 322.178
L272.076 321.346
L272.255 321.346
L272.434 320.79
L272.701 320.235
L272.969 320.235
L273.148 319.958
L274.219 319.958
L274.576 319.125
L274.666 319.125
L275.112 318.014
L277.165 318.014
L277.344 317.737
L277.88 317.737
L278.058 317.459
L278.148 317.459
L278.326 317.182
L348.589 317.182
L348.768 316.904
L348.857 316.904
L349.036 316.627
L350.375 316.627
L350.554 316.349
L351.625 316.349
L352.071 315.239
L352.161 315.239
L352.25 314.961
L352.428 313.573
L352.607 313.573
L352.875 313.018
L353.053 313.018
L353.321 312.463
L353.678 312.463
L354.303 310.797
L354.393 310.797
L355.285 308.299
L355.464 308.299
L355.643 306.911
L355.821 306.911
L356.178 306.078
L356.357 306.078
L356.535 305.245
L357.339 303.025
L357.607 303.025
L357.875 302.469
L358.232 302.469
L358.321 302.192
L358.5 301.359
L358.678 301.081
L358.767 301.081
L359.124 299.416
L359.303 298.861
L359.482 298.028
L359.839 296.64
L360.017 296.085
L360.196 296.085
L360.374 295.807
L360.464 295.807
L360.642 295.53
L360.732 295.53
L361.624 293.031
L362.339 293.031
L362.517 292.754
L362.785 292.754
L363.053 292.199
L363.231 292.199
L363.946 290.255
L364.035 290.255
L364.213 289.978
L364.66 289.978
L364.838 289.7
L364.928 289.7
L365.106 288.867
L365.196 288.867
L365.374 288.59
L366.356 288.59
L366.535 288.312
L366.713 288.312
L366.892 288.035
L366.981 288.035
L367.16 287.757
L368.231 287.757
L368.41 287.48
L368.856 287.48
L369.035 287.202
L373.588 287.202
L373.766 286.924
L436.62 286.924
L436.798 286.647
L438.227 286.647
L438.494 286.092
L439.566 286.092
L440.012 284.981
L440.369 284.981
L440.548 284.426
L440.637 284.426
L440.816 284.148
L441.084 284.148
L441.262 283.871
L441.441 283.871
L441.619 283.593
L441.798 283.593
L441.976 283.316
L442.066 283.316
L442.333 282.76
L442.601 282.76
L443.137 281.373
L443.405 281.373
L443.583 280.817
L443.673 280.817
L444.387 278.874
L444.565 278.874
L445.101 277.486
L445.28 277.486
L445.637 276.653
L445.726 276.653
L445.905 275.543
L445.994 275.543
L446.262 274.988
L446.351 274.988
L446.619 273.6
L446.708 273.6
L446.887 272.767
L446.976 272.767
L447.422 271.102
L447.601 270.547
L447.78 270.269
L447.869 270.269
L448.047 269.159
L448.315 268.603
L448.494 268.603
L448.672 267.493
L448.851 267.493
L449.029 266.66
L449.565 265.272
L449.654 265.272
L449.922 264.162
L450.101 263.329
L450.279 263.329
L450.458 263.052
L450.547 263.052
L450.904 262.219
L451.083 262.219
L451.261 261.108
L451.529 260.553
L451.886 260.553
L452.154 259.998
L452.511 259.998
L452.868 259.165
L453.315 259.165
L453.851 257.777
L453.94 257.777
L454.208 257.222
L454.297 257.222
L454.476 256.945
L454.565 256.945
L454.743 256.667
L455.279 256.667
L455.458 256.389
L455.636 256.389
L455.815 256.112
L455.993 256.112
L456.172 255.834
L456.886 255.834
L457.243 255.001
L457.957 255.001
L458.225 254.446
L461.439 254.446
L461.618 254.169
L518.311 254.169
L518.311 254.169" style="fill:none;stroke:#008000;stroke-dasharray:1.000000,1.000000;stroke-dashoffset:0.0;"/>
   </g>
   <g id="line2d_3">
    <path clip-path="url(#p7ff5b81e1d)" d="
M72 388.8
L137.621 388.8
L137.799 388.11
L144.763 388.11
L144.942 387.42
L155.298 387.42
L155.477 386.731
L158.691 386.731
L158.869 386.041
L160.119 386.041
L160.298 385.351
L162.084 385.351
L162.262 384.661
L169.226 384.661
L169.404 383.971
L174.761 383.971
L174.94 383.281
L175.208 383.281
L175.386 382.592
L176.547 382.592
L176.725 381.902
L176.993 381.902
L177.172 381.212
L178.957 381.212
L179.136 380.522
L181.011 380.522
L181.189 379.832
L181.904 379.832
L182.082 379.143
L182.439 379.143
L182.618 378.453
L183.421 378.453
L183.6 377.763
L184.225 377.763
L184.404 377.073
L185.028 377.073
L185.207 376.383
L186.1 376.383
L186.278 375.693
L186.368 375.693
L186.546 375.004
L187.439 375.004
L187.618 374.314
L187.885 374.314
L188.153 372.934
L188.332 372.934
L188.6 371.554
L189.582 371.554
L189.76 370.865
L191.01 370.865
L191.189 370.175
L191.724 370.175
L191.903 368.795
L192.796 368.795
L192.974 368.105
L193.242 368.105
L193.421 367.416
L194.314 367.416
L194.671 365.346
L195.474 365.346
L195.653 364.656
L196.01 364.656
L196.188 363.966
L197.438 363.966
L197.706 362.587
L198.778 362.587
L199.045 361.207
L199.224 361.207
L199.403 360.517
L199.67 360.517
L199.849 359.828
L199.938 359.828
L200.117 359.138
L200.385 359.138
L200.652 357.758
L200.831 357.758
L201.099 356.378
L202.974 356.378
L203.152 355.689
L204.402 355.689
L204.581 354.999
L204.849 354.999
L205.116 353.619
L205.474 353.619
L205.652 352.929
L205.831 352.929
L206.009 352.24
L206.366 352.24
L206.545 351.55
L207.17 351.55
L207.527 349.48
L207.706 349.48
L207.884 348.101
L208.152 348.101
L208.331 347.411
L208.598 347.411
L208.866 346.031
L209.045 346.031
L209.491 343.272
L209.848 343.272
L210.116 341.892
L210.295 341.892
L210.652 339.823
L211.723 339.823
L211.902 339.133
L212.259 339.133
L212.437 338.443
L212.527 338.443
L212.795 337.063
L212.973 337.063
L213.152 336.374
L213.241 336.374
L213.42 335.684
L214.312 335.684
L214.58 334.304
L214.937 334.304
L215.205 332.925
L215.294 332.925
L215.652 330.855
L216.991 330.855
L217.169 330.165
L217.526 330.165
L217.705 329.475
L217.884 329.475
L218.062 328.786
L218.687 328.786
L218.866 328.096
L219.58 328.096
L219.758 327.406
L221.098 327.406
L221.276 326.716
L221.455 326.716
L221.633 326.026
L223.24 326.026
L223.419 324.647
L224.044 324.647
L224.312 323.267
L225.204 323.267
L225.383 322.577
L225.74 322.577
L225.919 321.887
L226.187 321.887
L226.365 321.198
L226.454 321.198
L226.633 320.508
L226.812 320.508
L226.99 319.818
L227.258 319.818
L227.526 318.438
L227.794 318.438
L228.061 317.059
L229.49 317.059
L229.758 315.679
L229.936 315.679
L230.115 314.989
L230.204 314.989
L230.383 313.61
L230.561 313.61
L230.829 312.23
L231.097 312.23
L231.276 311.54
L231.722 311.54
L231.99 310.16
L232.168 310.16
L232.347 308.781
L232.525 308.091
L232.704 308.091
L232.883 307.401
L233.061 307.401
L233.508 304.642
L233.865 304.642
L234.043 303.952
L234.132 303.952
L234.311 303.262
L234.49 303.262
L234.757 301.883
L234.847 301.883
L235.025 301.193
L235.293 301.193
L235.472 300.503
L235.65 300.503
L235.829 299.813
L236.364 299.813
L236.543 299.123
L236.632 299.123
L237.257 294.984
L237.347 294.984
L237.525 294.295
L237.614 294.295
L237.882 292.915
L237.972 292.915
L238.239 291.535
L238.507 291.535
L238.775 290.156
L238.954 290.156
L239.132 289.466
L239.4 289.466
L239.579 288.086
L239.846 288.086
L240.025 287.396
L240.114 287.396
L240.293 286.707
L240.65 286.707
L240.828 286.017
L241.632 286.017
L241.811 283.947
L241.9 283.947
L242.168 282.568
L242.346 282.568
L242.525 281.188
L242.793 281.188
L242.971 280.498
L243.06 280.498
L243.507 277.739
L244.31 277.739
L244.578 274.98
L244.935 274.98
L245.114 274.29
L245.203 274.29
L245.471 272.91
L246.364 272.91
L246.542 271.531
L247.167 271.531
L247.346 270.841
L247.882 270.841
L248.06 270.151
L248.417 270.151
L248.685 268.771
L248.953 268.771
L249.132 268.081
L249.221 268.081
L249.578 266.012
L250.114 266.012
L250.649 262.563
L250.739 262.563
L250.917 261.873
L251.185 261.873
L251.364 261.183
L251.631 261.183
L251.81 260.493
L252.613 260.493
L252.792 259.804
L253.149 259.804
L253.506 257.734
L253.596 257.734
L253.774 256.354
L254.042 254.975
L254.131 254.975
L254.31 253.595
L254.756 250.836
L255.024 250.836
L255.649 246.697
L255.917 246.697
L256.095 244.628
L256.185 244.628
L256.363 243.938
L256.631 243.938
L256.899 242.558
L257.524 242.558
L257.97 239.799
L258.06 239.799
L258.238 239.109
L258.595 239.109
L258.774 238.419
L258.952 238.419
L259.488 234.97
L259.667 234.97
L259.845 234.28
L259.934 234.28
L260.202 232.901
L260.559 232.901
L260.916 230.831
L261.274 230.831
L261.452 230.141
L261.541 230.141
L261.809 228.762
L262.791 228.762
L262.97 227.382
L264.22 227.382
L264.398 226.692
L264.488 226.692
L264.934 223.933
L265.023 223.933
L265.202 222.553
L265.38 221.863
L265.648 221.863
L265.916 220.484
L266.005 220.484
L266.273 219.104
L266.541 219.104
L266.72 218.414
L266.988 218.414
L267.345 216.345
L267.791 216.345
L268.059 214.965
L268.148 214.965
L268.416 213.586
L268.773 213.586
L268.952 212.896
L269.666 212.896
L269.844 212.206
L269.934 212.206
L270.112 210.826
L270.38 210.826
L270.559 208.757
L270.827 208.757
L271.005 207.377
L271.362 207.377
L271.541 206.687
L272.255 206.687
L272.523 205.308
L272.791 205.308
L273.148 203.238
L273.684 203.238
L273.862 201.859
L273.951 201.859
L274.13 201.169
L274.219 201.169
L274.398 200.479
L274.666 200.479
L274.844 199.789
L275.023 199.789
L275.201 199.099
L275.648 199.099
L276.005 197.03
L276.094 197.03
L276.273 196.34
L276.362 196.34
L276.54 195.65
L276.63 195.65
L276.808 193.581
L276.987 193.581
L277.433 190.822
L277.969 190.822
L278.148 189.442
L278.237 189.442
L278.415 188.062
L279.755 178.405
L279.933 178.405
L280.201 177.025
L280.826 177.025
L281.004 176.335
L282.254 176.335
L282.433 175.646
L282.522 175.646
L282.701 174.266
L282.879 171.507
L283.058 170.817
L283.147 170.817
L283.326 170.127
L283.951 170.127
L284.219 168.747
L284.486 168.747
L284.665 168.057
L284.933 168.057
L285.201 166.678
L285.29 166.678
L285.558 165.298
L286.093 165.298
L286.272 164.608
L286.361 164.608
L286.54 163.229
L286.629 163.229
L286.808 162.539
L287.343 162.539
L287.7 160.469
L287.79 160.469
L287.968 159.78
L288.325 159.78
L288.504 159.09
L288.593 159.09
L288.772 158.4
L288.95 158.4
L289.218 157.02
L289.754 157.02
L289.932 156.331
L290.111 156.331
L290.468 154.261
L290.647 154.261
L290.825 153.571
L291.093 153.571
L291.272 152.881
L291.361 152.881
L291.54 152.192
L291.629 152.192
L291.986 150.122
L292.343 150.122
L292.522 149.432
L292.789 149.432
L292.968 148.743
L293.147 148.743
L293.325 148.053
L293.682 148.053
L293.861 147.363
L293.95 147.363
L294.218 145.983
L294.307 145.983
L294.575 144.604
L294.664 144.604
L294.843 143.224
L295.021 143.224
L295.2 142.534
L295.646 142.534
L296.093 139.775
L296.45 139.775
L296.628 139.085
L296.896 139.085
L297.075 138.395
L297.164 138.395
L297.432 137.016
L297.521 137.016
L297.878 134.946
L298.146 134.946
L298.325 134.256
L298.771 134.256
L298.95 132.877
L299.128 132.877
L299.307 132.187
L299.396 132.187
L299.753 130.117
L300.378 130.117
L300.557 129.428
L300.914 129.428
L301.271 127.358
L301.807 127.358
L301.985 126.668
L302.253 126.668
L302.432 125.978
L302.61 125.978
L303.146 122.529
L303.86 122.529
L304.039 121.15
L306.003 121.15
L306.181 119.77
L306.449 118.39
L306.539 118.39
L306.717 117.701
L307.074 117.701
L307.253 117.011
L307.521 117.011
L307.699 116.321
L307.967 116.321
L308.146 115.631
L308.592 115.631
L308.771 114.251
L308.86 114.251
L309.038 113.562
L309.128 113.562
L309.396 112.182
L309.842 112.182
L310.02 111.492
L310.467 111.492
L310.645 110.802
L311.003 110.802
L311.181 110.113
L311.628 110.113
L311.806 109.423
L311.895 109.423
L312.074 108.733
L313.413 108.733
L313.592 108.043
L313.86 108.043
L314.217 105.974
L314.752 105.974
L314.931 105.284
L315.467 105.284
L315.734 103.904
L316.002 103.904
L316.181 103.214
L316.895 103.214
L317.252 101.145
L317.341 101.145
L317.52 100.455
L318.056 100.455
L318.234 99.7653
L318.502 99.7653
L318.681 99.0754
L318.77 99.0754
L318.948 98.3856
L319.038 98.3856
L319.216 97.6958
L319.573 97.6958
L319.752 97.006
L320.109 97.006
L320.377 94.2467
L320.645 94.2467
L320.823 93.5569
L321.27 93.5569
L321.448 92.8671
L322.609 92.8671
L322.788 90.7976
L323.323 90.7976
L323.502 90.1078
L325.377 90.1078
L325.555 89.418
L325.644 89.418
L325.823 88.7281
L326.716 88.7281
L326.894 88.0383
L327.341 88.0383
L327.609 86.6587
L328.323 86.6587
L328.501 85.9689
L328.859 85.9689
L329.037 85.279
L329.484 85.279
L329.662 84.5892
L330.108 84.5892
L330.287 83.8994
L331.091 83.8994
L331.269 83.2096
L331.537 83.2096
L331.716 82.5198
L332.251 82.5198
L332.43 81.8299
L333.144 81.8299
L333.412 80.4503
L334.84 80.4503
L335.019 79.7605
L335.465 79.7605
L335.644 78.3808
L335.733 78.3808
L335.912 77.691
L336.358 77.691
L336.626 76.3114
L337.429 76.3114
L337.608 75.6216
L340.108 75.6216
L340.286 74.9317
L341.447 74.9317
L341.626 74.2419
L341.715 74.2419
L341.893 73.5521
L345.197 73.5521
L345.375 72.8623
L345.732 72.8623
L346 71.4826
L346.447 71.4826
L346.625 70.7928
L347.072 70.7928
L347.25 70.103
L347.786 70.103
L347.964 69.4132
L348.947 69.4132
L349.125 68.7234
L349.214 68.7234
L349.482 67.3437
L350.554 67.3437
L350.732 66.6539
L351.446 66.6539
L351.625 65.9641
L352.696 65.9641
L352.875 65.2743
L353.321 65.2743
L353.5 64.5844
L354.928 64.5844
L355.107 63.8946
L356.268 63.8946
L356.446 63.2048
L358.946 63.2048
L359.124 62.515
L360.017 62.515
L360.285 61.1353
L361.803 61.1353
L361.981 60.4455
L362.339 60.4455
L362.517 59.7557
L363.142 59.7557
L363.321 59.0659
L364.213 59.0659
L364.392 58.376
L364.481 58.376
L364.66 57.6862
L365.196 57.6862
L365.374 56.9964
L366.624 56.9964
L366.803 56.3066
L367.606 56.3066
L367.785 55.6168
L371.802 55.6168
L371.981 54.9269
L372.159 54.9269
L372.338 54.2371
L372.606 54.2371
L372.784 53.5473
L373.945 53.5473
L374.124 52.8575
L381.177 52.8575
L381.355 52.1677
L381.444 52.1677
L381.712 50.788
L387.873 50.788
L388.051 50.0982
L389.212 50.0982
L389.39 49.4084
L391.89 49.4084
L392.069 48.7186
L395.729 48.7186
L395.908 48.0287
L407.871 48.0287
L408.05 47.3389
L410.103 47.3389
L410.282 46.6491
L417.96 46.6491
L418.139 45.9593
L426.084 45.9593
L426.263 45.2695
L431.352 45.2695
L431.531 44.5796
L432.066 44.5796
L432.245 43.8898
L452.601 43.8898
L452.779 43.2
L518.311 43.2
L518.311 43.2" style="fill:none;stroke:#ff0000;stroke-dasharray:3.000000,6.000000;stroke-dashoffset:0.0;"/>
   </g>
   <g id="line2d_4">
    <path clip-path="url(#p7ff5b81e1d)" d="
M72 388.8
L73.5178 388.8
L73.6963 388.11
L73.7856 388.11
L73.9642 388.8
L151.37 388.8
L151.548 388.11
L176.725 388.11
L176.904 387.42
L197.081 387.42
L197.26 386.731
L200.831 386.731
L201.01 386.041
L201.277 386.041
L201.456 385.351
L209.045 385.351
L209.223 383.971
L210.473 383.971
L210.652 383.281
L211.545 383.281
L211.902 381.212
L212.616 381.212
L212.795 380.522
L212.884 380.522
L213.062 379.832
L214.759 379.832
L214.937 379.143
L219.133 379.143
L219.312 378.453
L219.937 378.453
L220.116 377.763
L222.615 377.763
L222.883 376.383
L224.758 376.383
L224.937 375.693
L225.919 375.693
L226.187 374.314
L226.276 374.314
L226.454 373.624
L229.311 373.624
L229.668 371.554
L233.061 371.554
L233.329 370.175
L233.775 370.175
L233.954 369.485
L236.186 369.485
L236.454 368.105
L236.632 368.105
L236.811 367.416
L236.9 367.416
L237.079 366.726
L237.168 366.726
L237.347 366.036
L237.704 366.036
L237.882 364.656
L239.043 364.656
L239.221 363.966
L239.757 363.966
L240.382 359.828
L240.828 359.828
L241.007 359.138
L244.132 359.138
L244.668 355.689
L244.757 355.689
L244.935 354.999
L246.9 354.999
L247.078 354.309
L247.167 354.309
L247.346 353.619
L247.435 353.619
L247.614 352.929
L247.792 352.929
L248.06 351.55
L250.471 351.55
L250.649 350.86
L251.185 350.86
L251.364 350.17
L251.631 350.17
L251.81 349.48
L254.042 349.48
L254.22 347.411
L254.31 347.411
L254.488 346.721
L254.756 346.721
L255.113 344.651
L255.292 344.651
L255.47 343.962
L256.542 343.962
L256.81 342.582
L257.077 342.582
L257.256 341.892
L257.881 341.892
L258.06 341.202
L260.738 341.202
L261.006 339.823
L261.274 339.823
L261.452 339.133
L261.541 339.133
L261.988 336.374
L262.077 336.374
L262.256 335.684
L262.702 335.684
L262.881 334.304
L263.506 334.304
L263.684 333.614
L264.666 333.614
L264.845 332.925
L265.023 332.925
L265.202 332.235
L265.291 332.235
L265.738 329.475
L265.916 329.475
L266.095 328.786
L266.363 328.786
L266.63 327.406
L267.791 327.406
L267.97 326.716
L268.059 326.716
L268.237 326.026
L268.327 326.026
L268.505 325.337
L268.595 325.337
L268.773 323.267
L268.862 323.267
L269.13 321.887
L269.309 321.887
L269.487 320.508
L270.023 317.059
L270.38 317.059
L270.559 316.369
L271.184 316.369
L271.362 315.679
L271.898 315.679
L272.076 314.989
L272.344 314.989
L272.612 313.61
L272.701 313.61
L273.148 310.85
L273.505 310.85
L273.684 310.16
L275.112 310.16
L275.291 309.471
L275.558 309.471
L275.737 308.781
L276.094 308.781
L276.273 306.711
L276.451 305.332
L276.63 305.332
L276.808 303.952
L277.076 303.952
L277.255 303.262
L277.433 303.262
L277.612 302.572
L277.969 302.572
L278.237 301.193
L278.862 301.193
L279.308 298.434
L279.487 298.434
L279.933 295.674
L280.201 295.674
L280.38 294.984
L280.469 294.984
L280.737 293.605
L282.612 293.605
L282.79 291.535
L282.879 291.535
L283.058 289.466
L283.236 288.776
L283.504 288.776
L283.683 288.086
L283.772 288.086
L283.951 287.396
L284.04 287.396
L284.219 286.707
L285.915 286.707
L286.093 286.017
L286.183 286.017
L286.451 283.257
L286.54 283.257
L286.718 281.188
L286.808 281.188
L287.7 274.98
L287.879 274.98
L288.058 273.6
L289.04 273.6
L289.308 272.22
L289.486 272.22
L289.665 271.531
L289.843 271.531
L290.022 270.841
L290.29 270.841
L290.647 268.771
L291.182 268.771
L291.272 268.081
L291.45 265.322
L291.986 265.322
L292.164 264.632
L292.432 264.632
L292.879 261.873
L292.968 261.873
L293.236 260.493
L293.414 260.493
L293.682 259.114
L293.772 259.114
L294.039 257.734
L294.129 257.734
L294.307 257.044
L294.396 257.044
L294.575 255.665
L294.932 253.595
L295.021 253.595
L295.2 252.905
L295.914 252.905
L296.093 252.216
L296.628 252.216
L296.807 251.526
L296.986 251.526
L297.164 250.836
L297.253 250.836
L297.432 250.146
L297.521 250.146
L297.7 249.456
L297.878 249.456
L298.503 245.317
L299.575 245.317
L299.932 243.248
L300.825 243.248
L301.092 240.489
L301.45 240.489
L301.628 239.799
L301.717 239.799
L301.807 239.109
L301.985 236.35
L302.164 236.35
L302.342 234.97
L302.7 234.97
L302.878 234.28
L304.039 234.28
L304.217 232.211
L304.485 232.211
L304.664 231.521
L304.753 231.521
L305.289 228.072
L305.378 228.072
L305.914 224.623
L306.628 224.623
L306.806 223.933
L307.074 223.933
L307.431 221.863
L307.699 221.863
L308.681 214.965
L308.86 214.965
L309.038 213.586
L309.306 212.206
L309.753 212.206
L309.931 211.516
L310.288 211.516
L310.467 210.826
L310.735 210.826
L311.003 209.447
L311.181 209.447
L311.628 206.687
L311.717 206.687
L311.895 205.308
L312.074 205.308
L312.252 204.618
L312.342 204.618
L312.699 199.789
L312.788 199.789
L312.967 199.099
L313.77 199.099
L313.949 198.41
L314.752 198.41
L315.02 197.03
L315.467 197.03
L315.734 195.65
L316.359 195.65
L316.538 194.96
L316.984 194.96
L317.163 194.271
L317.252 194.271
L317.431 193.581
L317.788 193.581
L317.966 192.891
L318.413 192.891
L318.591 192.201
L319.306 192.201
L319.573 188.752
L319.752 188.752
L320.02 187.372
L321.716 187.372
L322.252 183.923
L322.698 183.923
L322.877 183.234
L323.323 183.234
L323.68 181.164
L324.037 181.164
L324.216 180.474
L325.555 180.474
L325.734 179.784
L325.912 179.784
L326.18 178.405
L326.269 178.405
L326.359 177.715
L326.537 174.956
L326.716 174.266
L326.894 174.266
L327.073 173.576
L327.162 173.576
L327.341 172.196
L329.037 172.196
L329.394 170.127
L329.484 170.127
L329.751 168.747
L329.841 168.747
L330.019 168.057
L331.18 168.057
L331.358 167.368
L331.448 167.368
L331.626 166.678
L331.716 166.678
L331.894 165.988
L331.983 165.988
L332.162 165.298
L332.787 165.298
L332.965 164.608
L333.055 164.608
L333.233 163.919
L333.323 163.919
L333.501 163.229
L333.769 163.229
L334.215 160.469
L334.305 160.469
L334.483 159.78
L335.376 159.78
L335.644 158.4
L336.09 158.4
L336.269 157.71
L336.626 157.71
L336.894 156.331
L336.983 156.331
L337.162 154.951
L337.519 154.951
L337.697 154.261
L337.787 154.261
L338.054 152.881
L338.501 152.881
L338.679 150.122
L339.215 150.122
L339.483 148.743
L339.572 148.743
L339.751 147.363
L339.929 146.673
L340.108 146.673
L340.286 145.983
L340.733 145.983
L341.001 144.604
L341.358 144.604
L341.536 143.914
L341.804 143.914
L341.983 143.224
L342.34 143.224
L342.608 141.844
L343.233 141.844
L343.411 141.154
L343.679 141.154
L343.858 140.465
L344.393 140.465
L344.572 138.395
L344.75 138.395
L344.929 137.016
L346.893 137.016
L347.161 135.636
L347.964 135.636
L348.143 134.946
L348.411 134.946
L348.589 134.256
L349.393 134.256
L349.572 133.566
L349.929 133.566
L350.107 132.877
L350.196 132.877
L350.375 132.187
L350.464 132.187
L351 128.738
L351.268 128.738
L351.446 127.358
L351.625 127.358
L351.804 125.978
L351.982 125.978
L352.161 125.289
L352.875 125.289
L353.143 123.909
L353.321 123.909
L353.5 122.529
L353.857 122.529
L354.125 121.15
L354.303 121.15
L354.66 119.08
L354.839 119.08
L355.018 118.39
L355.107 118.39
L355.285 117.701
L355.464 117.701
L355.821 115.631
L356.357 115.631
L356.535 114.941
L356.625 114.941
L356.892 113.562
L357.16 113.562
L357.428 112.182
L358.232 112.182
L358.678 109.423
L358.857 109.423
L359.035 108.733
L360.999 108.733
L361.178 108.043
L361.714 108.043
L361.892 107.353
L361.981 107.353
L362.16 105.974
L362.339 105.974
L362.517 105.284
L363.231 105.284
L363.41 104.594
L364.481 104.594
L364.66 103.214
L365.106 103.214
L365.285 102.525
L365.374 102.525
L365.82 99.7653
L365.999 99.7653
L366.178 99.0754
L367.16 99.0754
L367.338 98.3856
L368.32 98.3856
L368.499 97.6958
L369.392 97.6958
L369.66 96.3162
L369.749 96.3162
L369.927 95.6263
L370.82 95.6263
L370.999 94.9365
L371.534 94.9365
L371.713 94.2467
L372.159 94.2467
L372.338 93.5569
L372.606 93.5569
L372.784 92.8671
L373.499 92.8671
L373.677 92.1772
L375.463 92.1772
L375.909 89.418
L376.891 89.418
L377.07 88.7281
L378.498 88.7281
L378.677 88.0383
L379.837 88.0383
L380.105 86.6587
L380.284 86.6587
L380.641 84.5892
L382.873 84.5892
L383.052 83.8994
L384.301 83.8994
L384.48 83.2096
L385.641 83.2096
L385.819 82.5198
L385.998 82.5198
L386.176 81.8299
L386.623 81.8299
L386.801 81.1401
L387.158 81.1401
L387.426 79.7605
L387.873 79.7605
L388.051 79.0707
L388.855 79.0707
L389.033 78.3808
L390.908 78.3808
L391.087 77.691
L391.176 77.691
L391.355 77.0012
L392.158 77.0012
L392.337 76.3114
L392.872 76.3114
L393.051 75.6216
L393.319 75.6216
L393.497 74.9317
L393.676 74.9317
L394.033 72.8623
L394.926 72.8623
L395.104 72.1725
L395.283 72.1725
L395.461 71.4826
L396.979 71.4826
L397.158 70.7928
L397.426 70.7928
L397.693 69.4132
L397.961 69.4132
L398.14 68.7234
L398.229 68.7234
L398.676 65.9641
L401.443 65.9641
L401.622 65.2743
L402.157 65.2743
L402.336 64.5844
L404.3 64.5844
L404.479 63.8946
L404.747 63.8946
L404.925 63.2048
L405.461 63.2048
L405.729 61.8251
L407.604 61.8251
L407.871 60.4455
L408.496 60.4455
L408.675 59.7557
L410.818 59.7557
L410.996 59.0659
L412.068 59.0659
L412.246 58.376
L413.675 58.376
L413.853 57.6862
L414.21 57.6862
L414.389 56.9964
L415.014 56.9964
L415.192 56.3066
L418.406 56.3066
L418.585 55.6168
L419.478 55.6168
L419.656 54.9269
L423.406 54.9269
L423.585 54.2371
L425.549 54.2371
L425.727 53.5473
L426.531 53.5473
L426.709 52.8575
L429.566 52.8575
L429.745 52.1677
L431.441 52.1677
L431.709 50.788
L431.977 50.788
L432.245 49.4084
L433.048 49.4084
L433.227 48.7186
L434.923 48.7186
L435.102 48.0287
L437.602 48.0287
L437.78 47.3389
L440.816 47.3389
L440.994 46.6491
L455.547 46.6491
L455.725 45.9593
L479.92 45.9593
L480.099 45.2695
L486.348 45.2695
L486.527 44.5796
L499.473 44.5796
L499.651 43.8898
L518.311 43.8898
L518.311 43.8898" style="fill:none;stroke:#00bfbf;stroke-dasharray:5.000000,1.000000,2.000000,1.000000,5.000000,1.000000;stroke-dashoffset:0.0;"/>
   </g>
   <g id="line2d_5">
    <path clip-path="url(#p7ff5b81e1d)" d="
M72 388.8
L72.0893 388.226
L72.1786 388.226
L72.8928 388.226
L73.0714 388.8
L87.7133 388.8
L87.8918 388.226
L90.0346 388.226
L90.2131 387.652
L90.3917 387.652
L90.5702 387.078
L91.0166 387.078
L91.3738 385.355
L91.463 385.355
L91.6416 384.781
L93.5165 384.781
L93.7843 383.633
L94.0522 383.633
L94.2307 381.911
L94.4986 381.911
L95.3021 377.318
L96.9091 377.318
L97.177 376.17
L97.4448 376.17
L97.6234 373.3
L98.5162 367.559
L98.6947 365.837
L100.123 365.837
L100.302 365.262
L100.48 365.262
L101.016 361.244
L101.462 356.651
L101.82 354.355
L102.087 349.762
L102.266 349.188
L102.444 349.188
L102.623 348.614
L102.712 348.614
L102.891 348.04
L103.248 348.04
L103.516 346.892
L103.873 346.892
L104.319 344.021
L105.659 319.91
L106.105 317.613
L107.355 317.613
L107.533 317.039
L107.623 317.039
L107.801 312.447
L108.158 303.835
L108.873 293.502
L109.14 285.464
L109.408 280.872
L109.498 280.872
L109.676 280.298
L109.944 280.298
L110.212 279.15
L110.48 279.15
L110.658 278.575
L111.194 278.575
L111.462 272.835
L111.551 272.26
L112.98 236.667
L113.158 236.093
L114.319 236.093
L114.497 235.519
L114.765 235.519
L115.747 217.722
L115.836 217.722
L116.64 203.37
L117.086 203.37
L117.265 202.222
L118.336 202.222
L118.515 200.5
L119.854 183.851
L119.943 183.851
L120.122 182.703
L120.925 182.703
L121.104 182.129
L121.908 182.129
L121.997 180.981
L122.175 176.962
L122.532 171.221
L123.157 166.629
L123.425 162.61
L123.872 160.314
L123.961 160.314
L124.14 159.74
L125.479 159.74
L125.657 158.591
L126.014 155.721
L126.372 150.554
L127.443 144.239
L128.604 144.239
L128.782 143.665
L129.05 143.665
L129.318 141.369
L129.496 139.072
L129.675 137.35
L129.764 137.35
L129.943 134.48
L130.568 127.017
L130.657 127.017
L130.925 125.868
L131.996 125.868
L132.175 125.294
L132.621 125.294
L133.068 121.85
L133.246 118.979
L133.335 118.979
L133.782 114.387
L133.96 114.387
L134.228 112.09
L134.407 108.646
L136.192 108.646
L137.264 102.331
L137.442 99.4605
L137.71 98.3123
L139.764 98.3123
L140.746 92.5714
L140.924 89.701
L141.103 88.5528
L141.192 88.5528
L141.371 87.4047
L141.549 85.1083
L142.799 85.1083
L142.978 84.5342
L143.513 84.5342
L143.692 83.9601
L143.87 83.9601
L144.406 81.0897
L144.495 81.0897
L144.674 80.5156
L144.852 80.5156
L145.21 78.7934
L147.084 78.7934
L147.352 75.9229
L147.442 75.9229
L147.888 73.6266
L148.334 73.6266
L148.513 71.9043
L148.602 71.9043
L148.781 71.3302
L149.049 71.3302
L149.227 70.7561
L150.656 70.7561
L151.281 67.3116
L151.548 67.3116
L152.173 63.8671
L154.048 63.8671
L154.227 63.293
L154.763 63.293
L155.209 60.9967
L155.298 60.9967
L155.655 59.2744
L155.745 59.2744
L155.923 58.7003
L156.37 58.7003
L156.548 58.1262
L157.798 58.1262
L157.977 57.5522
L158.155 57.5522
L158.334 56.9781
L158.512 56.9781
L158.691 56.404
L158.869 56.404
L159.227 54.6817
L161.459 54.6817
L161.816 52.9595
L161.994 52.9595
L162.173 52.3854
L164.851 52.3854
L165.119 51.2372
L165.387 51.2372
L165.565 50.6631
L166.101 50.6631
L166.28 50.089
L169.583 50.089
L169.762 49.515
L169.851 49.515
L170.119 48.3668
L173.511 48.3668
L173.69 47.7927
L518.311 47.7927
L518.311 47.7927" style="fill:none;stroke:#bf00bf;stroke-linecap:square;"/>
   </g>
   <g id="matplotlib.axis_1">
    <g id="xtick_1">
     <g id="line2d_6">
      <defs>
       <path d="
M0 0
L0 -4" id="mc7db9fdffb" style="stroke:#000000;stroke-width:0.5;"/>
      </defs>
      <g>
       <use style="stroke:#000000;stroke-width:0.5;" x="72.0" xlink:href="#mc7db9fdffb" y="388.8"/>
      </g>
     </g>
     <g id="line2d_7">
      <defs>
       <path d="
M0 0
L0 4" id="m5a7d422ac3" style="stroke:#000000;stroke-width:0.5;"/>
      </defs>
      <g>
       <use style="stroke:#000000;stroke-width:0.5;" x="72.0" xlink:href="#m5a7d422ac3" y="43.2"/>
      </g>
     </g>
     <g id="text_1">
      <!-- 0 -->
      <defs>
       <path d="
M56.9844 36.375
Q56.9844 16.7969 50.8594 7.64062
Q44.7344 -1.51562 31.8438 -1.51562
Q18.75 -1.51562 12.7188 7.76562
Q6.6875 17.0469 6.6875 36.2812
Q6.6875 55.6719 12.7812 64.9219
Q18.8906 74.1719 31.8438 74.1719
Q44.9219 74.1719 50.9531 64.7656
Q56.9844 55.375 56.9844 36.375
M44.1406 14.2031
Q45.8438 18.1719 46.4531 23.5156
Q47.0781 28.8594 47.0781 36.375
Q47.0781 43.7969 46.4531 49.2656
Q45.8438 54.7344 44.0938 58.5469
Q42.3906 62.3125 39.4219 64.2031
Q36.4688 66.1094 31.8438 66.1094
Q27.25 66.1094 24.2344 64.2031
Q21.2344 62.3125 19.4844 58.4531
Q17.8281 54.8281 17.2188 49.0156
Q16.6094 43.2188 16.6094 36.2812
Q16.6094 28.6562 17.1406 23.5312
Q17.6719 18.4062 19.4375 14.3594
Q21.0469 10.5469 24 8.54688
Q26.9531 6.54688 31.8438 6.54688
Q36.4219 6.54688 39.4531 8.45312
Q42.4844 10.3594 44.1406 14.2031" id="Verdana-30"/>
      </defs>
      <g transform="translate(68.9821875 401.918125)scale(0.12 -0.12)">
       <use xlink:href="#Verdana-30"/>
      </g>
     </g>
    </g>
    <g id="xtick_2">
     <g id="line2d_8">
      <g>
       <use style="stroke:#000000;stroke-width:0.5;" x="161.28" xlink:href="#mc7db9fdffb" y="388.8"/>
      </g>
     </g>
     <g id="line2d_9">
      <g>
       <use style="stroke:#000000;stroke-width:0.5;" x="161.28" xlink:href="#m5a7d422ac3" y="43.2"/>
      </g>
     </g>
     <g id="text_2">
      <!-- 1000 -->
      <defs>
       <path d="
M52.9375 0
L13.5781 0
L13.5781 7.42188
L28.7188 7.42188
L28.7188 56.1562
L13.5781 56.1562
L13.5781 62.7969
Q16.6562 62.7969 20.1719 63.2969
Q23.6875 63.8125 25.4844 64.7969
Q27.7344 66.0156 29.0312 67.8906
Q30.3281 69.7812 30.5156 72.9531
L38.0938 72.9531
L38.0938 7.42188
L52.9375 7.42188
z
" id="Verdana-31"/>
      </defs>
      <g transform="translate(147.2315625 401.918125)scale(0.12 -0.12)">
       <use xlink:href="#Verdana-31"/>
       <use x="63.57421875" xlink:href="#Verdana-30"/>
       <use x="127.1484375" xlink:href="#Verdana-30"/>
       <use x="190.72265625" xlink:href="#Verdana-30"/>
      </g>
     </g>
    </g>
    <g id="xtick_3">
     <g id="line2d_10">
      <g>
       <use style="stroke:#000000;stroke-width:0.5;" x="250.56" xlink:href="#mc7db9fdffb" y="388.8"/>
      </g>
     </g>
     <g id="line2d_11">
      <g>
       <use style="stroke:#000000;stroke-width:0.5;" x="250.56" xlink:href="#m5a7d422ac3" y="43.2"/>
      </g>
     </g>
     <g id="text_3">
      <!-- 2000 -->
      <defs>
       <path d="
M57.0781 0
L7.85938 0
L7.85938 10.2031
Q12.9844 14.5938 18.1406 18.9844
Q23.2969 23.3906 27.7344 27.7344
Q37.1094 36.8125 40.5781 42.1562
Q44.0469 47.5156 44.0469 53.7188
Q44.0469 59.375 40.3125 62.5625
Q36.5781 65.7656 29.8906 65.7656
Q25.4375 65.7656 20.2656 64.2031
Q15.0938 62.6406 10.1562 59.4219
L9.67188 59.4219
L9.67188 69.6719
Q13.1406 71.3906 18.9219 72.7969
Q24.7031 74.2188 30.125 74.2188
Q41.3125 74.2188 47.6562 68.8125
Q54 63.4219 54 54.2031
Q54 50.0469 52.9531 46.4531
Q51.9062 42.875 49.8594 39.6562
Q47.9531 36.625 45.3906 33.6875
Q42.8281 30.7656 39.1562 27.2031
Q33.9375 22.0781 28.3594 17.2656
Q22.7969 12.4531 17.9688 8.34375
L57.0781 8.34375
z
" id="Verdana-32"/>
      </defs>
      <g transform="translate(236.1684375 401.918125)scale(0.12 -0.12)">
       <use xlink:href="#Verdana-32"/>
       <use x="63.57421875" xlink:href="#Verdana-30"/>
       <use x="127.1484375" xlink:href="#Verdana-30"/>
       <use x="190.72265625" xlink:href="#Verdana-30"/>
      </g>
     </g>
    </g>
    <g id="xtick_4">
     <g id="line2d_12">
      <g>
       <use style="stroke:#000000;stroke-width:0.5;" x="339.84" xlink:href="#mc7db9fdffb" y="388.8"/>
      </g>
     </g>
     <g id="line2d_13">
      <g>
       <use style="stroke:#000000;stroke-width:0.5;" x="339.84" xlink:href="#m5a7d422ac3" y="43.2"/>
      </g>
     </g>
     <g id="text_4">
      <!-- 3000 -->
      <defs>
       <path d="
M50.6875 35.0156
Q53.0312 32.9062 54.5469 29.7344
Q56.0625 26.5625 56.0625 21.5312
Q56.0625 16.5469 54.25 12.3906
Q52.4375 8.25 49.1719 5.17188
Q45.5156 1.76562 40.5469 0.125
Q35.5938 -1.51562 29.6875 -1.51562
Q23.6406 -1.51562 17.7812 -0.0625
Q11.9219 1.375 8.15625 3.07812
L8.15625 13.2812
L8.89062 13.2812
Q13.0312 10.5469 18.6406 8.73438
Q24.2656 6.9375 29.5 6.9375
Q32.5625 6.9375 36.0312 7.95312
Q39.5 8.98438 41.6562 10.9844
Q43.8906 13.1406 44.9844 15.7188
Q46.0938 18.3125 46.0938 22.2656
Q46.0938 26.1719 44.8438 28.7344
Q43.6094 31.2969 41.4062 32.7656
Q39.2031 34.2812 36.0781 34.8438
Q32.9531 35.4062 29.3438 35.4062
L24.9531 35.4062
L24.9531 43.5
L28.375 43.5
Q35.7969 43.5 40.2031 46.5938
Q44.625 49.7031 44.625 55.6719
Q44.625 58.2969 43.5 60.2656
Q42.3906 62.25 40.375 63.5312
Q38.2812 64.7969 35.8906 65.2812
Q33.5 65.7656 30.4688 65.7656
Q25.8281 65.7656 20.5938 64.1094
Q15.375 62.4531 10.75 59.4219
L10.25 59.4219
L10.25 69.625
Q13.7188 71.3438 19.5 72.7812
Q25.2969 74.2188 30.7188 74.2188
Q36.0312 74.2188 40.0781 73.2344
Q44.1406 72.2656 47.4062 70.125
Q50.9219 67.7812 52.7344 64.4531
Q54.5469 61.1406 54.5469 56.6875
Q54.5469 50.6406 50.2656 46.125
Q46 41.6094 40.1875 40.4375
L40.1875 39.75
Q42.5312 39.3594 45.5469 38.1094
Q48.5781 36.8594 50.6875 35.0156" id="Verdana-33"/>
      </defs>
      <g transform="translate(325.46625 401.918125)scale(0.12 -0.12)">
       <use xlink:href="#Verdana-33"/>
       <use x="63.57421875" xlink:href="#Verdana-30"/>
       <use x="127.1484375" xlink:href="#Verdana-30"/>
       <use x="190.72265625" xlink:href="#Verdana-30"/>
      </g>
     </g>
    </g>
    <g id="xtick_5">
     <g id="line2d_14">
      <g>
       <use style="stroke:#000000;stroke-width:0.5;" x="429.12" xlink:href="#mc7db9fdffb" y="388.8"/>
      </g>
     </g>
     <g id="line2d_15">
      <g>
       <use style="stroke:#000000;stroke-width:0.5;" x="429.12" xlink:href="#m5a7d422ac3" y="43.2"/>
      </g>
     </g>
     <g id="text_5">
      <!-- 4000 -->
      <defs>
       <path d="
M58.7344 20.4531
L47.9531 20.4531
L47.9531 0
L38.5781 0
L38.5781 20.4531
L3.76562 20.4531
L3.76562 31.6875
L38.9688 72.7031
L47.9531 72.7031
L47.9531 28.2656
L58.7344 28.2656
z

M38.5781 28.2656
L38.5781 61.0781
L10.4062 28.2656
z
" id="Verdana-34"/>
      </defs>
      <g transform="translate(414.4828125 401.918125)scale(0.12 -0.12)">
       <use xlink:href="#Verdana-34"/>
       <use x="63.57421875" xlink:href="#Verdana-30"/>
       <use x="127.1484375" xlink:href="#Verdana-30"/>
       <use x="190.72265625" xlink:href="#Verdana-30"/>
      </g>
     </g>
    </g>
    <g id="xtick_6">
     <g id="line2d_16">
      <g>
       <use style="stroke:#000000;stroke-width:0.5;" x="518.4" xlink:href="#mc7db9fdffb" y="388.8"/>
      </g>
     </g>
     <g id="line2d_17">
      <g>
       <use style="stroke:#000000;stroke-width:0.5;" x="518.4" xlink:href="#m5a7d422ac3" y="43.2"/>
      </g>
     </g>
     <g id="text_6">
      <!-- 5000 -->
      <defs>
       <path d="
M56.5 23.0938
Q56.5 18.0156 54.6406 13.375
Q52.7812 8.73438 49.5625 5.5625
Q46.0469 2.15625 41.1875 0.3125
Q36.3281 -1.51562 29.9375 -1.51562
Q23.9688 -1.51562 18.4531 -0.265625
Q12.9375 0.984375 9.125 2.73438
L9.125 13.0312
L9.8125 13.0312
Q13.8125 10.5 19.1875 8.71875
Q24.5625 6.9375 29.7344 6.9375
Q33.2031 6.9375 36.4531 7.90625
Q39.7031 8.89062 42.2344 11.3281
Q44.3906 13.4219 45.4844 16.3438
Q46.5781 19.2812 46.5781 23.1406
Q46.5781 26.9062 45.2812 29.4844
Q44 32.0781 41.7031 33.6406
Q39.1562 35.5 35.5156 36.25
Q31.8906 37.0156 27.3906 37.0156
Q23.0938 37.0156 19.1094 36.4219
Q15.1406 35.8438 12.25 35.25
L12.25 72.7031
L56 72.7031
L56 64.1562
L21.6875 64.1562
L21.6875 44.8281
Q23.7812 45.0156 25.9688 45.1094
Q28.1719 45.2188 29.7812 45.2188
Q35.6875 45.2188 40.125 44.2188
Q44.5781 43.2188 48.2969 40.6719
Q52.2031 37.9844 54.3438 33.7344
Q56.5 29.5 56.5 23.0938" id="Verdana-35"/>
      </defs>
      <g transform="translate(504.084375 401.918125)scale(0.12 -0.12)">
       <use xlink:href="#Verdana-35"/>
       <use x="63.57421875" xlink:href="#Verdana-30"/>
       <use x="127.1484375" xlink:href="#Verdana-30"/>
       <use x="190.72265625" xlink:href="#Verdana-30"/>
      </g>
     </g>
    </g>
    <g id="text_7">
     <!-- Objective function exectuions -->
     <defs>
      <path d="
M54.6406 0
L45.4531 0
L45.4531 31.0625
Q45.4531 34.8125 45.0156 38.1094
Q44.5781 41.4062 43.4062 43.2656
Q42.1875 45.3125 39.8906 46.3125
Q37.5938 47.3125 33.9375 47.3125
Q30.1719 47.3125 26.0625 45.4531
Q21.9688 43.6094 18.2188 40.7188
L18.2188 0
L9.03125 0
L9.03125 54.5469
L18.2188 54.5469
L18.2188 48.4844
Q22.5156 52.0469 27.0938 54.0469
Q31.6875 56.0625 36.5312 56.0625
Q45.3594 56.0625 50 50.7344
Q54.6406 45.4062 54.6406 35.4062
z
" id="Verdana-6e"/>
      <path d="
M18.8906 63.6719
L8.54688 63.6719
L8.54688 73.1875
L18.8906 73.1875
z

M18.3125 0
L9.125 0
L9.125 54.5469
L18.3125 54.5469
z
" id="Verdana-69"/>
      <path d="
M56.25 0
L44.6719 0
L29.2031 20.9531
L13.625 0
L2.9375 0
L24.2188 27.2031
L3.125 54.5469
L14.7031 54.5469
L30.0781 33.9375
L45.5156 54.5469
L56.25 54.5469
L34.8125 27.6875
z
" id="Verdana-78"/>
      <path d="
M57.0312 27.6875
Q57.0312 20.8438 55.0938 15.375
Q53.1719 9.90625 49.9062 6.20312
Q46.4375 2.34375 42.2812 0.40625
Q38.1406 -1.51562 33.1562 -1.51562
Q28.5156 -1.51562 25.0469 -0.40625
Q21.5781 0.6875 18.2188 2.54688
L17.625 0
L9.03125 0
L9.03125 75.9844
L18.2188 75.9844
L18.2188 48.8281
Q22.0781 52 26.4219 54.0312
Q30.7656 56.0625 36.1875 56.0625
Q45.8438 56.0625 51.4375 48.6406
Q57.0312 41.2188 57.0312 27.6875
M47.5625 27.4375
Q47.5625 37.2031 44.3281 42.25
Q41.1094 47.3125 33.9375 47.3125
Q29.9375 47.3125 25.8281 45.5781
Q21.7344 43.8438 18.2188 41.1094
L18.2188 9.85938
Q22.125 8.10938 24.9219 7.42188
Q27.7344 6.73438 31.2969 6.73438
Q38.9219 6.73438 43.2344 11.7344
Q47.5625 16.75 47.5625 27.4375" id="Verdana-62"/>
      <path d="
M37.3594 0.484375
Q34.7656 -0.203125 31.7031 -0.640625
Q28.6562 -1.07812 26.2656 -1.07812
Q17.9219 -1.07812 13.5781 3.40625
Q9.23438 7.90625 9.23438 17.8281
L9.23438 46.8281
L3.03125 46.8281
L3.03125 54.5469
L9.23438 54.5469
L9.23438 70.2188
L18.4062 70.2188
L18.4062 54.5469
L37.3594 54.5469
L37.3594 46.8281
L18.4062 46.8281
L18.4062 21.9688
Q18.4062 17.6719 18.5938 15.25
Q18.7969 12.8438 19.9688 10.75
Q21.0469 8.79688 22.9219 7.89062
Q24.8125 6.98438 28.6562 6.98438
Q30.9062 6.98438 33.3438 7.64062
Q35.7969 8.29688 36.8594 8.73438
L37.3594 8.73438
z
" id="Verdana-74"/>
      <path d="
M26.0312 63.6719
L15.6719 63.6719
L15.6719 73.1875
L26.0312 73.1875
z

M25.4375 -1.3125
Q25.4375 -10.8906 20.5469 -15.7656
Q15.6719 -20.6562 7.46875 -20.6562
Q5.51562 -20.6562 2.3125 -20.2656
Q-0.875 -19.875 -3.03125 -19.2812
L-3.03125 -10.5469
L-2.54688 -10.5469
Q-1.17188 -11.0781 1.14062 -11.7656
Q3.46875 -12.4531 5.67188 -12.4531
Q9.1875 -12.4531 11.3281 -11.4688
Q13.4844 -10.5 14.5469 -8.54688
Q15.625 -6.59375 15.9375 -3.82812
Q16.2656 -1.07812 16.2656 2.875
L16.2656 46.8281
L4.89062 46.8281
L4.89062 54.5469
L25.4375 54.5469
z
" id="Verdana-6a"/>
      <path d="
M49.3594 3.42188
Q44.7812 1.21875 40.6562 0
Q36.5312 -1.21875 31.8906 -1.21875
Q25.9844 -1.21875 21.0469 0.515625
Q16.1094 2.25 12.5938 5.76562
Q9.03125 9.28125 7.07812 14.6406
Q5.125 20.0156 5.125 27.2031
Q5.125 40.5781 12.4688 48.1875
Q19.8281 55.8125 31.8906 55.8125
Q36.5781 55.8125 41.0938 54.4844
Q45.6094 53.1719 49.3594 51.2656
L49.3594 41.0625
L48.875 41.0625
Q44.6719 44.3438 40.2031 46.0938
Q35.75 47.8594 31.5 47.8594
Q23.6875 47.8594 19.1719 42.6094
Q14.6562 37.3594 14.6562 27.2031
Q14.6562 17.3281 19.0625 12.0312
Q23.4844 6.73438 31.5 6.73438
Q34.2812 6.73438 37.1562 7.46875
Q40.0469 8.20312 42.3281 9.375
Q44.3438 10.4062 46.0938 11.5469
Q47.8594 12.7031 48.875 13.5312
L49.3594 13.5312
z
" id="Verdana-63"/>
      <path d="
M55.5156 27.25
Q55.5156 13.9219 48.6719 6.20312
Q41.8438 -1.51562 30.375 -1.51562
Q18.7969 -1.51562 11.9844 6.20312
Q5.17188 13.9219 5.17188 27.25
Q5.17188 40.5781 11.9844 48.3125
Q18.7969 56.0625 30.375 56.0625
Q41.8438 56.0625 48.6719 48.3125
Q55.5156 40.5781 55.5156 27.25
M46.0469 27.25
Q46.0469 37.8438 41.8906 42.9844
Q37.75 48.1406 30.375 48.1406
Q22.9062 48.1406 18.7812 42.9844
Q14.6562 37.8438 14.6562 27.25
Q14.6562 17 18.7969 11.6875
Q22.9531 6.39062 30.375 6.39062
Q37.7031 6.39062 41.875 11.6406
Q46.0469 16.8906 46.0469 27.25" id="Verdana-6f"/>
      <path d="
M56.2031 54.5469
L34.125 0
L24.9062 0
L2.98438 54.5469
L12.9375 54.5469
L29.8281 11.1406
L46.5781 54.5469
z
" id="Verdana-76"/>
      <path d="
M63.9688 64.3594
Q68.4062 59.4688 70.7656 52.3906
Q73.1406 45.3125 73.1406 36.3281
Q73.1406 27.3438 70.7188 20.2344
Q68.3125 13.1406 63.9688 8.40625
Q59.4688 3.46875 53.3438 0.96875
Q47.2188 -1.51562 39.3594 -1.51562
Q31.6875 -1.51562 25.4062 1.01562
Q19.1406 3.5625 14.75 8.40625
Q10.3594 13.2344 7.98438 20.2656
Q5.60938 27.2969 5.60938 36.3281
Q5.60938 45.2188 7.95312 52.2656
Q10.2969 59.3281 14.7969 64.3594
Q19.0938 69.1406 25.4688 71.6719
Q31.8438 74.2188 39.3594 74.2188
Q47.1719 74.2188 53.3906 71.6562
Q59.625 69.0938 63.9688 64.3594
M63.0938 36.3281
Q63.0938 50.4844 56.7344 58.1719
Q50.3906 65.875 39.4062 65.875
Q28.3281 65.875 22 58.1719
Q15.6719 50.4844 15.6719 36.3281
Q15.6719 22.0156 22.1094 14.4219
Q28.5625 6.84375 39.4062 6.84375
Q50.25 6.84375 56.6719 14.4219
Q63.0938 22.0156 63.0938 36.3281" id="Verdana-4f"/>
      <path d="
M38.375 67.0938
L37.8906 67.0938
Q36.375 67.5312 33.9375 67.9844
Q31.5 68.4531 29.6406 68.4531
Q23.7344 68.4531 21.0625 65.8438
Q18.4062 63.2344 18.4062 56.3906
L18.4062 54.5469
L34.9688 54.5469
L34.9688 46.8281
L18.7031 46.8281
L18.7031 0
L9.51562 0
L9.51562 46.8281
L3.32812 46.8281
L3.32812 54.5469
L9.51562 54.5469
L9.51562 56.3438
Q9.51562 66.0625 14.3438 71.2656
Q19.1875 76.4688 28.3281 76.4688
Q31.3906 76.4688 33.8594 76.1719
Q36.3281 75.875 38.375 75.4844
z
" id="Verdana-66"/>
      <path d="
M48 15.7188
Q48 8.25 41.8125 3.46875
Q35.6406 -1.3125 24.9531 -1.3125
Q18.8906 -1.3125 13.8438 0.125
Q8.79688 1.5625 5.375 3.26562
L5.375 13.5781
L5.85938 13.5781
Q10.2031 10.2969 15.5156 8.375
Q20.8438 6.45312 25.7344 6.45312
Q31.7812 6.45312 35.2031 8.40625
Q38.625 10.3594 38.625 14.5469
Q38.625 17.7812 36.7656 19.4375
Q34.9062 21.0938 29.6406 22.2656
Q27.6875 22.7031 24.5312 23.2812
Q21.3906 23.875 18.7969 24.5625
Q11.625 26.4688 8.60938 30.1562
Q5.60938 33.8438 5.60938 39.2031
Q5.60938 42.5781 7 45.5469
Q8.40625 48.5312 11.2344 50.875
Q13.9688 53.1719 18.1875 54.5156
Q22.4062 55.8594 27.6406 55.8594
Q32.5156 55.8594 37.5156 54.6562
Q42.5312 53.4688 45.8438 51.7656
L45.8438 41.9375
L45.3594 41.9375
Q41.8438 44.5312 36.8125 46.3125
Q31.7812 48.0938 26.9531 48.0938
Q21.9219 48.0938 18.4531 46.1562
Q14.9844 44.2344 14.9844 40.4375
Q14.9844 37.0625 17.0938 35.3594
Q19.1406 33.6406 23.7344 32.5625
Q26.2656 31.9844 29.4062 31.3906
Q32.5625 30.8125 34.6719 30.3281
Q41.0625 28.8594 44.5312 25.2969
Q48 21.6875 48 15.7188" id="Verdana-73"/>
      <path d="
M54.6875 26.3125
L14.5 26.3125
Q14.5 21.2969 16.0156 17.5469
Q17.5312 13.8125 20.1719 11.4219
Q22.7031 9.07812 26.1875 7.90625
Q29.6875 6.73438 33.8906 6.73438
Q39.4531 6.73438 45.0938 8.95312
Q50.7344 11.1875 53.125 13.3281
L53.6094 13.3281
L53.6094 3.32812
Q48.9688 1.375 44.1406 0.046875
Q39.3125 -1.26562 33.9844 -1.26562
Q20.4062 -1.26562 12.7812 6.07812
Q5.17188 13.4219 5.17188 26.9531
Q5.17188 40.3281 12.4688 48.1875
Q19.7812 56.0625 31.6875 56.0625
Q42.7188 56.0625 48.7031 49.6094
Q54.6875 43.1719 54.6875 31.2969
z

M45.75 33.3438
Q45.7031 40.5781 42.1094 44.5312
Q38.5312 48.4844 31.2031 48.4844
Q23.8281 48.4844 19.4531 44.1406
Q15.0938 39.7969 14.5 33.3438
z
" id="Verdana-65"/>
      <path d="
M54.25 0
L45.0625 0
L45.0625 6.0625
Q40.4375 2.39062 36.1875 0.4375
Q31.9375 -1.51562 26.8125 -1.51562
Q18.2188 -1.51562 13.4219 3.73438
Q8.64062 8.98438 8.64062 19.1406
L8.64062 54.5469
L17.8281 54.5469
L17.8281 23.4844
Q17.8281 19.3438 18.2188 16.375
Q18.6094 13.4219 19.875 11.3281
Q21.1875 9.1875 23.2812 8.20312
Q25.3906 7.23438 29.3906 7.23438
Q32.9531 7.23438 37.1719 9.07812
Q41.4062 10.9375 45.0625 13.8125
L45.0625 54.5469
L54.25 54.5469
z
" id="Verdana-75"/>
      <path id="Verdana-20"/>
     </defs>
     <g transform="translate(206.5078125 418.509375)scale(0.12 -0.12)">
      <use xlink:href="#Verdana-4f"/>
      <use x="78.7109375" xlink:href="#Verdana-62"/>
      <use x="141.015625" xlink:href="#Verdana-6a"/>
      <use x="175.439453125" xlink:href="#Verdana-65"/>
      <use x="235.009765625" xlink:href="#Verdana-63"/>
      <use x="287.109375" xlink:href="#Verdana-74"/>
      <use x="326.513671875" xlink:href="#Verdana-69"/>
      <use x="353.955078125" xlink:href="#Verdana-76"/>
      <use x="412.259765625" xlink:href="#Verdana-65"/>
      <use x="471.830078125" xlink:href="#Verdana-20"/>
      <use x="506.986328125" xlink:href="#Verdana-66"/>
      <use x="542.142578125" xlink:href="#Verdana-75"/>
      <use x="605.423828125" xlink:href="#Verdana-6e"/>
      <use x="668.705078125" xlink:href="#Verdana-63"/>
      <use x="720.8046875" xlink:href="#Verdana-74"/>
      <use x="760.208984375" xlink:href="#Verdana-69"/>
      <use x="787.650390625" xlink:href="#Verdana-6f"/>
      <use x="848.34375" xlink:href="#Verdana-6e"/>
      <use x="911.625" xlink:href="#Verdana-20"/>
      <use x="946.78125" xlink:href="#Verdana-65"/>
      <use x="1006.3515625" xlink:href="#Verdana-78"/>
      <use x="1064.40625" xlink:href="#Verdana-65"/>
      <use x="1123.9765625" xlink:href="#Verdana-63"/>
      <use x="1176.076171875" xlink:href="#Verdana-74"/>
      <use x="1215.48046875" xlink:href="#Verdana-75"/>
      <use x="1278.76171875" xlink:href="#Verdana-69"/>
      <use x="1306.203125" xlink:href="#Verdana-6f"/>
      <use x="1366.896484375" xlink:href="#Verdana-6e"/>
      <use x="1430.177734375" xlink:href="#Verdana-73"/>
     </g>
    </g>
   </g>
   <g id="matplotlib.axis_2">
    <g id="ytick_1">
     <g id="line2d_18">
      <defs>
       <path d="
M0 0
L4 0" id="md7965d1ba0" style="stroke:#000000;stroke-width:0.5;"/>
      </defs>
      <g>
       <use style="stroke:#000000;stroke-width:0.5;" x="72.0" xlink:href="#md7965d1ba0" y="388.8"/>
      </g>
     </g>
     <g id="line2d_19">
      <defs>
       <path d="
M0 0
L-4 0" id="md9a1c1a7cd" style="stroke:#000000;stroke-width:0.5;"/>
      </defs>
      <g>
       <use style="stroke:#000000;stroke-width:0.5;" x="518.4" xlink:href="#md9a1c1a7cd" y="388.8"/>
      </g>
     </g>
     <g id="text_8">
      <!-- 0.0 -->
      <defs>
       <path d="
M24.0312 0
L12.3594 0
L12.3594 13.9219
L24.0312 13.9219
z
" id="Verdana-2e"/>
      </defs>
      <g transform="translate(49.97 392.1515625)scale(0.12 -0.12)">
       <use xlink:href="#Verdana-30"/>
       <use x="63.57421875" xlink:href="#Verdana-2e"/>
       <use x="99.951171875" xlink:href="#Verdana-30"/>
      </g>
     </g>
    </g>
    <g id="ytick_2">
     <g id="line2d_20">
      <g>
       <use style="stroke:#000000;stroke-width:0.5;" x="72.0" xlink:href="#md7965d1ba0" y="319.68"/>
      </g>
     </g>
     <g id="line2d_21">
      <g>
       <use style="stroke:#000000;stroke-width:0.5;" x="518.4" xlink:href="#md9a1c1a7cd" y="319.68"/>
      </g>
     </g>
     <g id="text_9">
      <!-- 0.2 -->
      <g transform="translate(49.95875 323.0315625)scale(0.12 -0.12)">
       <use xlink:href="#Verdana-30"/>
       <use x="63.57421875" xlink:href="#Verdana-2e"/>
       <use x="99.951171875" xlink:href="#Verdana-32"/>
      </g>
     </g>
    </g>
    <g id="ytick_3">
     <g id="line2d_22">
      <g>
       <use style="stroke:#000000;stroke-width:0.5;" x="72.0" xlink:href="#md7965d1ba0" y="250.56"/>
      </g>
     </g>
     <g id="line2d_23">
      <g>
       <use style="stroke:#000000;stroke-width:0.5;" x="518.4" xlink:href="#md9a1c1a7cd" y="250.56"/>
      </g>
     </g>
     <g id="text_10">
      <!-- 0.4 -->
      <g transform="translate(49.76 253.9115625)scale(0.12 -0.12)">
       <use xlink:href="#Verdana-30"/>
       <use x="63.57421875" xlink:href="#Verdana-2e"/>
       <use x="99.951171875" xlink:href="#Verdana-34"/>
      </g>
     </g>
    </g>
    <g id="ytick_4">
     <g id="line2d_24">
      <g>
       <use style="stroke:#000000;stroke-width:0.5;" x="72.0" xlink:href="#md7965d1ba0" y="181.44"/>
      </g>
     </g>
     <g id="line2d_25">
      <g>
       <use style="stroke:#000000;stroke-width:0.5;" x="518.4" xlink:href="#md9a1c1a7cd" y="181.44"/>
      </g>
     </g>
     <g id="text_11">
      <!-- 0.6 -->
      <defs>
       <path d="
M58.1562 23.5781
Q58.1562 12.5 50.8594 5.48438
Q43.5625 -1.51562 32.9531 -1.51562
Q27.5938 -1.51562 23.1875 0.140625
Q18.7969 1.8125 15.4375 5.07812
Q11.2344 9.125 8.95312 15.8125
Q6.6875 22.5156 6.6875 31.9375
Q6.6875 41.6094 8.76562 49.0781
Q10.8438 56.5469 15.375 62.3594
Q19.6719 67.875 26.4531 70.9688
Q33.25 74.0781 42.2812 74.0781
Q45.1719 74.0781 47.125 73.8281
Q49.0781 73.5781 51.0781 72.9531
L51.0781 63.625
L50.5938 63.625
Q49.2188 64.3594 46.4531 65.0156
Q43.7031 65.6719 40.8281 65.6719
Q30.3281 65.6719 24.0781 59.1094
Q17.8281 52.5469 16.7969 41.3594
Q20.9062 43.8438 24.875 45.1406
Q28.8594 46.4375 34.0781 46.4375
Q38.7188 46.4375 42.25 45.5781
Q45.7969 44.7344 49.5156 42.1406
Q53.8125 39.1562 55.9844 34.6094
Q58.1562 30.0781 58.1562 23.5781
M48.25 23.1875
Q48.25 27.7344 46.9062 30.7031
Q45.5625 33.6875 42.4844 35.8906
Q40.2344 37.4531 37.5 37.9375
Q34.7656 38.4219 31.7812 38.4219
Q27.6406 38.4219 24.0781 37.4375
Q20.5156 36.4688 16.75 34.4219
Q16.6562 33.3438 16.5938 32.3438
Q16.5469 31.3438 16.5469 29.8281
Q16.5469 22.125 18.1406 17.6562
Q19.7344 13.1875 22.5156 10.5938
Q24.75 8.45312 27.3594 7.45312
Q29.9844 6.45312 33.0625 6.45312
Q40.1406 6.45312 44.1875 10.7656
Q48.25 15.0938 48.25 23.1875" id="Verdana-36"/>
      </defs>
      <g transform="translate(49.829375 184.7915625)scale(0.12 -0.12)">
       <use xlink:href="#Verdana-30"/>
       <use x="63.57421875" xlink:href="#Verdana-2e"/>
       <use x="99.951171875" xlink:href="#Verdana-36"/>
      </g>
     </g>
    </g>
    <g id="ytick_5">
     <g id="line2d_26">
      <g>
       <use style="stroke:#000000;stroke-width:0.5;" x="72.0" xlink:href="#md7965d1ba0" y="112.32"/>
      </g>
     </g>
     <g id="line2d_27">
      <g>
       <use style="stroke:#000000;stroke-width:0.5;" x="518.4" xlink:href="#md9a1c1a7cd" y="112.32"/>
      </g>
     </g>
     <g id="text_12">
      <!-- 0.8 -->
      <defs>
       <path d="
M57.625 20.2656
Q57.625 10.8438 50.2656 4.59375
Q42.9219 -1.65625 31.7812 -1.65625
Q19.9688 -1.65625 12.9531 4.4375
Q5.95312 10.5469 5.95312 20.0625
Q5.95312 26.125 9.46875 31.0312
Q12.9844 35.9375 19.3906 38.8125
L19.3906 39.1094
Q13.5312 42.2344 10.7188 45.9375
Q7.90625 49.6562 7.90625 55.2188
Q7.90625 63.4219 14.6406 68.8906
Q21.3906 74.3594 31.7812 74.3594
Q42.6719 74.3594 49.1719 69.1406
Q55.6719 63.9219 55.6719 55.8594
Q55.6719 50.9219 52.5938 46.1562
Q49.5156 41.4062 43.5625 38.7188
L43.5625 38.4219
Q50.3906 35.5 54 31.2031
Q57.625 26.9062 57.625 20.2656
M46.0469 55.7656
Q46.0469 60.9844 42.0156 64.0781
Q37.9844 67.1875 31.7344 67.1875
Q25.5938 67.1875 21.6562 64.25
Q17.7188 61.3281 17.7188 56.3438
Q17.7188 52.8281 19.7031 50.2656
Q21.6875 47.7031 25.6875 45.7031
Q27.4844 44.8281 30.875 43.4062
Q34.2812 42 37.5 41.0625
Q42.3281 44.2812 44.1875 47.75
Q46.0469 51.2188 46.0469 55.7656
M47.5625 19.3438
Q47.5625 23.8281 45.5781 26.5312
Q43.6094 29.25 37.8438 31.9844
Q35.5469 33.0625 32.8125 33.9844
Q30.0781 34.9062 25.5312 36.5781
Q21.1406 34.1875 18.4844 30.0781
Q15.8281 25.9844 15.8281 20.7969
Q15.8281 14.2031 20.3594 9.90625
Q24.9062 5.60938 31.8906 5.60938
Q39.0156 5.60938 43.2812 9.26562
Q47.5625 12.9375 47.5625 19.3438" id="Verdana-38"/>
      </defs>
      <g transform="translate(49.893125 115.6715625)scale(0.12 -0.12)">
       <use xlink:href="#Verdana-30"/>
       <use x="63.57421875" xlink:href="#Verdana-2e"/>
       <use x="99.951171875" xlink:href="#Verdana-38"/>
      </g>
     </g>
    </g>
    <g id="ytick_6">
     <g id="line2d_28">
      <g>
       <use style="stroke:#000000;stroke-width:0.5;" x="72.0" xlink:href="#md7965d1ba0" y="43.2"/>
      </g>
     </g>
     <g id="line2d_29">
      <g>
       <use style="stroke:#000000;stroke-width:0.5;" x="518.4" xlink:href="#md9a1c1a7cd" y="43.2"/>
      </g>
     </g>
     <g id="text_13">
      <!-- 1.0 -->
      <g transform="translate(50.796875 46.5515625)scale(0.12 -0.12)">
       <use xlink:href="#Verdana-31"/>
       <use x="63.57421875" xlink:href="#Verdana-2e"/>
       <use x="99.951171875" xlink:href="#Verdana-30"/>
      </g>
     </g>
    </g>
    <g id="text_14">
     <!-- Data Profile T-0.0000001 -->
     <defs>
      <path d="
M57.3281 50.7344
Q57.3281 45.9062 55.6406 41.7656
Q53.9531 37.6406 50.9219 34.625
Q47.1719 30.8594 42.0469 28.9688
Q36.9219 27.0938 29.1094 27.0938
L19.4375 27.0938
L19.4375 0
L9.76562 0
L9.76562 72.7031
L29.5 72.7031
Q36.0312 72.7031 40.5781 71.6094
Q45.125 70.5156 48.6406 68.1719
Q52.7812 65.375 55.0469 61.2188
Q57.3281 57.0781 57.3281 50.7344
M47.2656 50.4844
Q47.2656 54.25 45.9375 57.0312
Q44.625 59.8125 41.9375 61.5781
Q39.5938 63.0938 36.5938 63.75
Q33.5938 64.4062 29 64.4062
L19.4375 64.4062
L19.4375 35.3594
L27.5938 35.3594
Q33.4531 35.3594 37.1094 36.4062
Q40.7656 37.4531 43.0625 39.75
Q45.3594 42.0938 46.3125 44.6719
Q47.2656 47.2656 47.2656 50.4844" id="Verdana-50"/>
      <path d="
M37.9375 27.3906
L7.46875 27.3906
L7.46875 36.2344
L37.9375 36.2344
z
" id="Verdana-2d"/>
      <path d="
M18.3125 0
L9.125 0
L9.125 75.9844
L18.3125 75.9844
z
" id="Verdana-6c"/>
      <path d="
M43.0625 44.5312
L42.5781 44.5312
Q40.5312 45.0156 38.5938 45.2344
Q36.6719 45.4531 34.0312 45.4531
Q29.7812 45.4531 25.8281 43.5781
Q21.875 41.7031 18.2188 38.7188
L18.2188 0
L9.03125 0
L9.03125 54.5469
L18.2188 54.5469
L18.2188 46.4844
Q23.6875 50.875 27.8594 52.7031
Q32.0312 54.5469 36.375 54.5469
Q38.7656 54.5469 39.8438 54.4219
Q40.9219 54.2969 43.0625 53.9531
z
" id="Verdana-72"/>
      <path d="
M71.1875 36.2812
Q71.1875 26.375 66.8594 18.3125
Q62.5469 10.25 55.375 5.8125
Q50.3906 2.73438 44.2656 1.35938
Q38.1406 0 28.125 0
L9.76562 0
L9.76562 72.7031
L27.9375 72.7031
Q38.5781 72.7031 44.8438 71.1562
Q51.125 69.625 55.4688 66.9375
Q62.8906 62.3125 67.0312 54.5938
Q71.1875 46.875 71.1875 36.2812
M61.0781 36.4219
Q61.0781 44.9688 58.0938 50.8281
Q55.125 56.6875 49.2188 60.0625
Q44.9219 62.5 40.0781 63.4531
Q35.25 64.4062 28.5156 64.4062
L19.4375 64.4062
L19.4375 8.29688
L28.5156 8.29688
Q35.5 8.29688 40.7031 9.32812
Q45.9062 10.3594 50.25 13.1406
Q55.6719 16.6094 58.375 22.2656
Q61.0781 27.9375 61.0781 36.4219" id="Verdana-44"/>
      <path d="
M51.4219 0
L42.2812 0
L42.2812 5.8125
Q41.0625 4.98438 38.9844 3.48438
Q36.9219 2 34.9688 1.125
Q32.6719 0 29.6875 -0.75
Q26.7031 -1.51562 22.7031 -1.51562
Q15.3281 -1.51562 10.2031 3.35938
Q5.07812 8.25 5.07812 15.8281
Q5.07812 22.0156 7.73438 25.8438
Q10.4062 29.6875 15.3281 31.8906
Q20.3125 34.0781 27.2969 34.8594
Q34.2812 35.6406 42.2812 36.0312
L42.2812 37.4531
Q42.2812 40.5781 41.1875 42.625
Q40.0938 44.6719 38.0312 45.8438
Q36.0781 46.9688 33.3438 47.3594
Q30.6094 47.75 27.6406 47.75
Q24.0312 47.75 19.5781 46.7969
Q15.1406 45.8438 10.4062 44.0469
L9.90625 44.0469
L9.90625 53.375
Q12.5938 54.1094 17.6719 54.9844
Q22.75 55.8594 27.6875 55.8594
Q33.4531 55.8594 37.7188 54.9062
Q42 53.9531 45.125 51.6562
Q48.1875 49.4219 49.7969 45.8438
Q51.4219 42.2812 51.4219 37.0156
z

M42.2812 13.4219
L42.2812 28.6094
Q38.0938 28.375 32.3906 27.875
Q26.7031 27.3906 23.3906 26.4688
Q19.4375 25.3438 16.9844 22.9688
Q14.5469 20.6094 14.5469 16.4531
Q14.5469 11.7656 17.375 9.39062
Q20.2188 7.03125 26.0312 7.03125
Q30.8594 7.03125 34.8594 8.90625
Q38.875 10.7969 42.2812 13.4219" id="Verdana-61"/>
      <path d="
M61.625 64.1094
L35.6406 64.1094
L35.6406 0
L25.9844 0
L25.9844 64.1094
L0 64.1094
L0 72.7031
L61.625 72.7031
z
" id="Verdana-54"/>
     </defs>
     <g transform="translate(42.345 291.2503125)rotate(-90.0)scale(0.12 -0.12)">
      <use xlink:href="#Verdana-44"/>
      <use x="77.05078125" xlink:href="#Verdana-61"/>
      <use x="137.109375" xlink:href="#Verdana-74"/>
      <use x="176.513671875" xlink:href="#Verdana-61"/>
      <use x="236.572265625" xlink:href="#Verdana-20"/>
      <use x="271.728515625" xlink:href="#Verdana-50"/>
      <use x="332.03125" xlink:href="#Verdana-72"/>
      <use x="374.70703125" xlink:href="#Verdana-6f"/>
      <use x="435.400390625" xlink:href="#Verdana-66"/>
      <use x="470.556640625" xlink:href="#Verdana-69"/>
      <use x="497.998046875" xlink:href="#Verdana-6c"/>
      <use x="525.439453125" xlink:href="#Verdana-65"/>
      <use x="585.009765625" xlink:href="#Verdana-20"/>
      <use x="620.166015625" xlink:href="#Verdana-54"/>
      <use x="674.412109375" xlink:href="#Verdana-2d"/>
      <use x="719.822265625" xlink:href="#Verdana-30"/>
      <use x="783.396484375" xlink:href="#Verdana-2e"/>
      <use x="819.7734375" xlink:href="#Verdana-30"/>
      <use x="883.34765625" xlink:href="#Verdana-30"/>
      <use x="946.921875" xlink:href="#Verdana-30"/>
      <use x="1010.49609375" xlink:href="#Verdana-30"/>
      <use x="1074.0703125" xlink:href="#Verdana-30"/>
      <use x="1137.64453125" xlink:href="#Verdana-30"/>
      <use x="1201.21875" xlink:href="#Verdana-31"/>
     </g>
    </g>
   </g>
   <g id="patch_3">
    <path d="
M72 388.8
L518.4 388.8" style="fill:none;stroke:#000000;"/>
   </g>
   <g id="patch_4">
    <path d="
M518.4 388.8
L518.4 43.2" style="fill:none;stroke:#000000;"/>
   </g>
   <g id="patch_5">
    <path d="
M72 388.8
L72 43.2" style="fill:none;stroke:#000000;"/>
   </g>
   <g id="patch_6">
    <path d="
M72 43.2
L518.4 43.2" style="fill:none;stroke:#000000;"/>
   </g>
   <g id="text_15">
    <!-- Plateau Data Profile T-0.0000001 -->
    <g transform="translate(175.719375 38.2)scale(0.144 -0.144)">
     <use xlink:href="#Verdana-50"/>
     <use x="60.302734375" xlink:href="#Verdana-6c"/>
     <use x="87.744140625" xlink:href="#Verdana-61"/>
     <use x="147.802734375" xlink:href="#Verdana-74"/>
     <use x="187.20703125" xlink:href="#Verdana-65"/>
     <use x="246.77734375" xlink:href="#Verdana-61"/>
     <use x="306.8359375" xlink:href="#Verdana-75"/>
     <use x="370.1171875" xlink:href="#Verdana-20"/>
     <use x="405.2734375" xlink:href="#Verdana-44"/>
     <use x="482.32421875" xlink:href="#Verdana-61"/>
     <use x="542.3828125" xlink:href="#Verdana-74"/>
     <use x="581.787109375" xlink:href="#Verdana-61"/>
     <use x="641.845703125" xlink:href="#Verdana-20"/>
     <use x="677.001953125" xlink:href="#Verdana-50"/>
     <use x="737.3046875" xlink:href="#Verdana-72"/>
     <use x="779.98046875" xlink:href="#Verdana-6f"/>
     <use x="840.673828125" xlink:href="#Verdana-66"/>
     <use x="875.830078125" xlink:href="#Verdana-69"/>
     <use x="903.271484375" xlink:href="#Verdana-6c"/>
     <use x="930.712890625" xlink:href="#Verdana-65"/>
     <use x="990.283203125" xlink:href="#Verdana-20"/>
     <use x="1025.439453125" xlink:href="#Verdana-54"/>
     <use x="1079.685546875" xlink:href="#Verdana-2d"/>
     <use x="1125.095703125" xlink:href="#Verdana-30"/>
     <use x="1188.669921875" xlink:href="#Verdana-2e"/>
     <use x="1225.046875" xlink:href="#Verdana-30"/>
     <use x="1288.62109375" xlink:href="#Verdana-30"/>
     <use x="1352.1953125" xlink:href="#Verdana-30"/>
     <use x="1415.76953125" xlink:href="#Verdana-30"/>
     <use x="1479.34375" xlink:href="#Verdana-30"/>
     <use x="1542.91796875" xlink:href="#Verdana-30"/>
     <use x="1606.4921875" xlink:href="#Verdana-31"/>
    </g>
   </g>
   <g id="legend_1">
    <g id="patch_7">
     <path d="
M79.2 270.759
L183.22 270.759
L183.22 161.241
L79.2 161.241
L79.2 270.759
z
" style="fill:#ffffff;stroke:#000000;"/>
    </g>
    <g id="line2d_30">
     <path d="
M89.28 172.902
L109.44 172.902" style="fill:none;stroke:#0000ff;stroke-dasharray:6.000000,2.000000;stroke-dashoffset:0.0;"/>
    </g>
    <g id="line2d_31"/>
    <g id="text_16">
     <!-- AMPGO -->
     <defs>
      <path d="
M67.0938 0
L56.7812 0
L49.6562 20.2656
L18.2188 20.2656
L11.0781 0
L1.26562 0
L27.7344 72.7031
L40.625 72.7031
z

M46.6875 28.5625
L33.9375 64.2656
L21.1406 28.5625
z
" id="Verdana-41"/>
      <path d="
M74.5156 0
L64.8438 0
L64.8438 62.6406
L44.625 20.0156
L38.875 20.0156
L18.7969 62.6406
L18.7969 0
L9.76562 0
L9.76562 72.7031
L22.9531 72.7031
L42.3281 32.2344
L61.0781 72.7031
L74.5156 72.7031
z
" id="Verdana-4d"/>
      <path d="
M70.4062 5.375
Q64.4531 2.64062 57.3906 0.609375
Q50.3438 -1.42188 43.75 -1.42188
Q35.25 -1.42188 28.1719 0.921875
Q21.0938 3.26562 16.1094 7.95312
Q11.0781 12.7031 8.34375 19.7969
Q5.60938 26.9062 5.60938 36.4219
Q5.60938 53.8594 15.7969 63.9375
Q25.9844 74.0312 43.75 74.0312
Q49.9531 74.0312 56.4219 72.5312
Q62.8906 71.0469 70.3594 67.4844
L70.3594 56
L69.4844 56
Q67.9688 57.1719 65.0781 59.0781
Q62.2031 60.9844 59.4219 62.25
Q56.0625 63.7656 51.7812 64.7656
Q47.5156 65.7656 42.0938 65.7656
Q29.8906 65.7656 22.7812 57.9219
Q15.6719 50.0938 15.6719 36.7188
Q15.6719 22.6094 23.0938 14.7656
Q30.5156 6.9375 43.3125 6.9375
Q48 6.9375 52.6562 7.85938
Q57.3281 8.79688 60.8438 10.25
L60.8438 28.0781
L41.3594 28.0781
L41.3594 36.5781
L70.4062 36.5781
z
" id="Verdana-47"/>
     </defs>
     <g transform="translate(125.28 177.942375)scale(0.144 -0.144)">
      <use xlink:href="#Verdana-41"/>
      <use x="68.359375" xlink:href="#Verdana-4d"/>
      <use x="152.63671875" xlink:href="#Verdana-50"/>
      <use x="212.939453125" xlink:href="#Verdana-47"/>
      <use x="290.478515625" xlink:href="#Verdana-4f"/>
     </g>
    </g>
    <g id="line2d_32">
     <path d="
M89.28 193.942
L109.44 193.942" style="fill:none;stroke:#008000;stroke-dasharray:1.000000,1.000000;stroke-dashoffset:0.0;"/>
    </g>
    <g id="line2d_33"/>
    <g id="text_17">
     <!-- Anneal -->
     <g transform="translate(125.28 198.982125)scale(0.144 -0.144)">
      <use xlink:href="#Verdana-41"/>
      <use x="68.359375" xlink:href="#Verdana-6e"/>
      <use x="131.640625" xlink:href="#Verdana-6e"/>
      <use x="194.921875" xlink:href="#Verdana-65"/>
      <use x="254.4921875" xlink:href="#Verdana-61"/>
      <use x="314.55078125" xlink:href="#Verdana-6c"/>
     </g>
    </g>
    <g id="line2d_34">
     <path d="
M89.28 214.982
L109.44 214.982" style="fill:none;stroke:#ff0000;stroke-dasharray:3.000000,6.000000;stroke-dashoffset:0.0;"/>
    </g>
    <g id="line2d_35"/>
    <g id="text_18">
     <!-- BSA -->
     <defs>
      <path d="
M62.5938 20.75
Q62.5938 16.5 60.6094 12.3438
Q58.6406 8.20312 55.0781 5.32812
Q51.1719 2.20312 45.9688 0.4375
Q40.7656 -1.3125 33.4531 -1.3125
Q25.5938 -1.3125 19.3125 0.140625
Q13.0312 1.60938 6.54688 4.5
L6.54688 16.6094
L7.23438 16.6094
Q12.75 12.0156 19.9688 9.51562
Q27.2031 7.03125 33.5469 7.03125
Q42.5312 7.03125 47.5312 10.3906
Q52.5469 13.7656 52.5469 19.3906
Q52.5469 24.2188 50.1719 26.5156
Q47.7969 28.8125 42.9688 30.0781
Q39.3125 31.0625 35.0312 31.6875
Q30.7656 32.3281 25.9844 33.2969
Q16.3125 35.3594 11.6406 40.3125
Q6.98438 45.2656 6.98438 53.2188
Q6.98438 62.3594 14.6875 68.1875
Q22.4062 74.0312 34.2812 74.0312
Q41.9375 74.0312 48.3281 72.5625
Q54.7344 71.0938 59.6719 68.9531
L59.6719 57.5156
L58.9844 57.5156
Q54.8281 61.0312 48.0625 63.3438
Q41.3125 65.6719 34.2344 65.6719
Q26.4688 65.6719 21.75 62.4531
Q17.0469 59.2344 17.0469 54.1562
Q17.0469 49.6094 19.3906 47.0156
Q21.7344 44.4375 27.6406 43.0625
Q30.7656 42.3906 36.5156 41.4062
Q42.2812 40.4375 46.2969 39.4062
Q54.3906 37.25 58.4844 32.9062
Q62.5938 28.5625 62.5938 20.75" id="Verdana-53"/>
      <path d="
M64.5938 22.3594
Q64.5938 16.9375 62.5469 12.7812
Q60.5 8.64062 57.0312 5.95312
Q52.9375 2.73438 48.0156 1.35938
Q43.1094 0 35.5469 0
L9.76562 0
L9.76562 72.7031
L31.2969 72.7031
Q39.2656 72.7031 43.2188 72.1094
Q47.1719 71.5312 50.7812 69.6719
Q54.7812 67.5781 56.5938 64.2812
Q58.4062 60.9844 58.4062 56.3906
Q58.4062 51.2188 55.7656 47.5781
Q53.125 43.9531 48.7344 41.75
L48.7344 41.3594
Q56.1094 39.8438 60.3438 34.8906
Q64.5938 29.9375 64.5938 22.3594
M48.3438 55.125
Q48.3438 57.7656 47.4531 59.5625
Q46.5781 61.375 44.625 62.5
Q42.3281 63.8125 39.0625 64.125
Q35.7969 64.4531 30.9531 64.4531
L19.4375 64.4531
L19.4375 43.4531
L31.9375 43.4531
Q36.4688 43.4531 39.1562 43.9219
Q41.8438 44.3906 44.1406 45.8438
Q46.4375 47.3125 47.3906 49.625
Q48.3438 51.9531 48.3438 55.125
M54.5469 21.9688
Q54.5469 26.375 53.2188 28.9531
Q51.9062 31.5469 48.4375 33.3438
Q46.0938 34.5781 42.75 34.9375
Q39.4062 35.2969 34.625 35.2969
L19.4375 35.2969
L19.4375 8.25
L32.2344 8.25
Q38.5781 8.25 42.625 8.90625
Q46.6875 9.57812 49.2656 11.3281
Q52 13.2344 53.2656 15.6719
Q54.5469 18.1094 54.5469 21.9688" id="Verdana-42"/>
     </defs>
     <g transform="translate(125.28 220.021875)scale(0.144 -0.144)">
      <use xlink:href="#Verdana-42"/>
      <use x="68.5546875" xlink:href="#Verdana-53"/>
      <use x="135.9140625" xlink:href="#Verdana-41"/>
     </g>
    </g>
    <g id="line2d_36">
     <path d="
M89.28 236.022
L109.44 236.022" style="fill:none;stroke:#00bfbf;stroke-dasharray:5.000000,1.000000,2.000000,1.000000,5.000000,1.000000;stroke-dashoffset:0.0;"/>
    </g>
    <g id="line2d_37"/>
    <g id="text_19">
     <!-- Cuckoo -->
     <defs>
      <path d="
M58.5469 0
L46.4375 0
L24.5625 23.875
L18.6094 18.2188
L18.6094 0
L9.42188 0
L9.42188 75.9844
L18.6094 75.9844
L18.6094 27.25
L45.125 54.5469
L56.6875 54.5469
L31.3438 29.3438
z
" id="Verdana-6b"/>
      <path d="
M65.9219 5.28125
Q63.2344 4.10938 61.0625 3.07812
Q58.8906 2.04688 55.375 0.921875
Q52.3906 0 48.8906 -0.65625
Q45.4062 -1.3125 41.2188 -1.3125
Q33.2969 -1.3125 26.8281 0.90625
Q20.3594 3.125 15.5781 7.85938
Q10.8906 12.5 8.25 19.6562
Q5.60938 26.8125 5.60938 36.2812
Q5.60938 45.2656 8.14062 52.3438
Q10.6875 59.4219 15.4844 64.3125
Q20.125 69.0469 26.6875 71.5312
Q33.25 74.0312 41.2656 74.0312
Q47.125 74.0312 52.9531 72.6094
Q58.7969 71.1875 65.9219 67.625
L65.9219 56.1562
L65.1875 56.1562
Q59.1875 61.1875 53.2656 63.4688
Q47.3594 65.7656 40.625 65.7656
Q35.1094 65.7656 30.6875 63.9844
Q26.2656 62.2031 22.7969 58.4531
Q19.4375 54.7812 17.5469 49.1875
Q15.6719 43.6094 15.6719 36.2812
Q15.6719 28.6094 17.75 23.0938
Q19.8281 17.5781 23.0938 14.1094
Q26.5156 10.5 31.0781 8.76562
Q35.6406 7.03125 40.7188 7.03125
Q47.7031 7.03125 53.7969 9.42188
Q59.9062 11.8125 65.2344 16.6094
L65.9219 16.6094
z
" id="Verdana-43"/>
     </defs>
     <g transform="translate(125.28 241.061625)scale(0.144 -0.144)">
      <use xlink:href="#Verdana-43"/>
      <use x="69.82421875" xlink:href="#Verdana-75"/>
      <use x="133.10546875" xlink:href="#Verdana-63"/>
      <use x="185.205078125" xlink:href="#Verdana-6b"/>
      <use x="243.384765625" xlink:href="#Verdana-6f"/>
      <use x="304.078125" xlink:href="#Verdana-6f"/>
     </g>
    </g>
    <g id="line2d_38">
     <path d="
M89.28 257.061
L109.44 257.061" style="fill:none;stroke:#bf00bf;stroke-linecap:square;"/>
    </g>
    <g id="line2d_39"/>
    <g id="text_20">
     <!-- qABC -->
     <defs>
      <path d="
M53.2656 -20.125
L44.0938 -20.125
L44.0938 6.15625
Q39.8438 2.48438 35.6406 0.703125
Q31.4531 -1.07812 26.5625 -1.07812
Q16.8438 -1.07812 11.0625 6.42188
Q5.28125 13.9219 5.28125 27.0938
Q5.28125 34.125 7.29688 39.5156
Q9.32812 44.9219 12.6406 48.5781
Q15.875 52.1562 20.2188 54.1094
Q24.5625 56.0625 29.3906 56.0625
Q33.7969 56.0625 37.1875 55.0781
Q40.5781 54.1094 44.0938 52.2031
L44.6719 54.5469
L53.2656 54.5469
z

M44.0938 13.875
L44.0938 44.7344
Q40.2812 46.4375 37.3438 47.1094
Q34.4219 47.7969 31 47.7969
Q23.0469 47.7969 18.8906 42.4062
Q14.75 37.0156 14.75 27.5469
Q14.75 17.9688 18.0938 12.8125
Q21.4375 7.67188 28.6094 7.67188
Q32.625 7.67188 36.625 9.40625
Q40.625 11.1406 44.0938 13.875" id="Verdana-71"/>
     </defs>
     <g transform="translate(125.28 262.101375)scale(0.144 -0.144)">
      <use xlink:href="#Verdana-71"/>
      <use x="62.3046875" xlink:href="#Verdana-41"/>
      <use x="130.6640625" xlink:href="#Verdana-42"/>
      <use x="199.21875" xlink:href="#Verdana-43"/>
     </g>
    </g>
   </g>
  </g>
 </g>
 <defs>
  <clipPath id="p7ff5b81e1d">
   <rect height="345.6" width="446.4" x="72.0" y="43.2"/>
  </clipPath>
 </defs>
</svg>
