<?xml version="1.0" encoding="utf-8" standalone="no"?>
<!DOCTYPE svg PUBLIC "-//W3C//DTD SVG 1.1//EN"
  "http://www.w3.org/Graphics/SVG/1.1/DTD/svg11.dtd">
<!-- Created with matplotlib (http://matplotlib.org/) -->
<svg height="432pt" version="1.1" viewBox="0 0 576 432" width="576pt" xmlns="http://www.w3.org/2000/svg" xmlns:xlink="http://www.w3.org/1999/xlink">
 <defs>
  <style type="text/css">
*{stroke-linecap:butt;stroke-linejoin:round;}
  </style>
 </defs>
 <g id="figure_1">
  <g id="patch_1">
   <path d="
M0 432
L576 432
L576 0
L0 0
z
" style="fill:#ffffff;"/>
  </g>
  <g id="axes_1">
   <g id="patch_2">
    <path d="
M72 388.8
L518.4 388.8
L518.4 43.2
L72 43.2
z
" style="fill:#ffffff;"/>
   </g>
   <g id="line2d_1">
    <path clip-path="url(#p7ff5b81e1d)" d="
M72 388.11
L72.0893 388.11
L72.2678 388.8
L75.2141 388.8
L75.3926 388.11
L81.6422 388.11
L81.8208 386.731
L83.2493 386.731
L83.4278 386.041
L84.8563 386.041
L85.0349 383.281
L86.4634 383.281
L86.6419 380.522
L88.0704 380.522
L88.249 368.105
L89.6774 368.105
L89.856 181.854
L91.2845 181.854
L91.463 43.2
L518.311 43.2
L518.311 43.2" style="fill:none;stroke:#0000ff;stroke-dasharray:6.000000,2.000000;stroke-dashoffset:0.0;"/>
   </g>
   <g id="line2d_2">
    <path clip-path="url(#p7ff5b81e1d)" d="
M72 388.8
L73.7856 388.8
L73.9642 388.518
L75.2141 388.518
L75.3926 388.8
L93.8736 388.8
L94.0522 388.518
L94.5878 388.518
L94.7664 388.236
L95.4806 388.236
L95.927 387.109
L96.1949 387.109
L96.3734 386.545
L96.6413 386.545
L96.8198 386.263
L96.9091 386.263
L97.2662 385.417
L97.4448 385.417
L97.7126 384.854
L97.8912 384.854
L98.5162 383.162
L98.6054 383.162
L99.1411 381.189
L99.4982 379.498
L99.6768 378.934
L99.8554 378.088
L99.9446 378.088
L100.034 377.806
L100.212 376.115
L100.302 376.115
L100.659 374.987
L100.927 373.296
L101.016 373.296
L101.195 372.732
L101.641 371.041
L102.087 367.658
L102.534 363.148
L102.712 360.611
L102.802 360.329
L103.159 356.946
L103.516 354.127
L103.784 349.899
L103.873 349.617
L104.141 347.362
L104.319 345.389
L104.587 340.596
L104.676 340.033
L105.301 331.294
L105.391 331.012
L105.926 324.247
L106.194 320.864
L106.462 316.917
L106.641 313.817
L106.819 312.407
L107.087 308.461
L107.266 305.642
L107.444 303.387
L107.891 296.339
L108.069 294.93
L109.14 273.506
L109.587 266.741
L110.301 254.619
L110.39 254.337
L110.658 249.827
L110.837 246.726
L110.926 246.444
L112.444 219.383
L112.533 218.819
L113.337 205.006
L113.604 199.086
L114.051 192.321
L114.408 187.811
L114.676 182.737
L116.64 152.856
L116.819 151.165
L117.801 139.607
L117.979 138.762
L118.158 136.506
L118.515 133.969
L118.783 130.587
L118.961 128.331
L119.318 123.821
L119.497 122.412
L120.211 114.237
L120.479 111.982
L121.193 105.78
L121.283 105.498
L121.729 100.988
L121.908 100.142
L122.086 99.0147
L122.354 98.4509
L122.443 98.4509
L122.622 97.6052
L122.711 97.0414
L122.979 94.5044
L124.14 87.4571
L124.318 85.4838
L124.675 82.9468
L124.943 82.1011
L125.211 79.5641
L125.389 79.0003
L125.479 79.0003
L126.729 75.0538
L126.996 72.7987
L127.086 72.7987
L127.532 71.3892
L127.711 70.5436
L127.8 70.5436
L128.068 68.5703
L128.604 67.1608
L128.871 67.1608
L129.05 66.5971
L129.228 66.5971
L129.407 65.7514
L129.853 63.4962
L130.032 62.6506
L130.478 60.3954
L130.657 60.3954
L130.836 59.5498
L131.193 57.8584
L131.46 57.8584
L131.639 57.0127
L131.907 56.4489
L131.996 56.4489
L132.264 55.8852
L132.443 55.8852
L132.978 54.4757
L133.068 54.4757
L133.246 54.1938
L133.335 54.1938
L133.603 53.63
L133.871 53.63
L134.317 52.5024
L134.585 52.5024
L134.942 51.6568
L135.121 51.6568
L135.3 51.3749
L136.103 51.3749
L136.46 50.5292
L136.907 50.5292
L137.085 49.9654
L137.174 49.9654
L137.353 49.6835
L137.442 49.6835
L137.621 48.8378
L137.71 48.8378
L137.889 48.556
L138.067 48.556
L138.246 48.2741
L138.335 48.2741
L138.514 47.9922
L138.871 47.9922
L139.049 47.7103
L139.139 47.7103
L139.406 47.1465
L139.496 47.1465
L139.674 46.8646
L139.853 46.8646
L140.121 46.3008
L140.299 46.3008
L140.656 45.4551
L141.013 45.4551
L141.192 45.1732
L141.906 45.1732
L142.085 44.8914
L142.174 44.8914
L142.442 44.3276
L144.406 44.3276
L144.585 44.0457
L145.745 44.0457
L145.924 43.7638
L148.156 43.7638
L148.334 43.4819
L149.227 43.4819
L149.406 43.2
L518.311 43.2
L518.311 43.2" style="fill:none;stroke:#008000;stroke-dasharray:1.000000,1.000000;stroke-dashoffset:0.0;"/>
   </g>
   <g id="line2d_3">
    <path clip-path="url(#p7ff5b81e1d)" d="
M72 388.8
L72.0893 388.8
L72.2678 388.514
L72.5357 388.514
L72.7142 388.8
L286.093 388.8
L286.272 388.514
L302.164 388.514
L302.342 388.228
L307.788 388.228
L307.967 387.942
L310.556 387.942
L310.735 387.656
L314.931 387.656
L315.109 387.37
L316.359 387.37
L316.538 387.083
L317.966 387.083
L318.145 386.797
L321.002 386.797
L321.18 386.511
L322.073 386.511
L322.252 386.225
L322.609 386.225
L322.788 385.939
L323.412 385.939
L323.591 385.653
L323.77 385.653
L323.948 385.367
L324.037 385.367
L324.216 385.081
L326.448 385.081
L326.627 384.795
L329.394 384.795
L329.573 384.509
L331.983 384.509
L332.162 384.223
L333.412 384.223
L333.68 383.65
L336.983 383.65
L337.162 383.364
L337.608 383.364
L337.787 383.078
L340.019 383.078
L340.197 382.792
L341.179 382.792
L341.447 382.22
L341.626 382.22
L341.804 381.934
L342.34 381.934
L342.518 381.648
L342.876 381.648
L343.143 381.075
L343.233 381.075
L343.411 380.789
L343.59 380.789
L343.858 380.217
L346.625 380.217
L346.804 379.931
L347.429 379.931
L347.697 379.359
L347.786 379.359
L347.964 378.787
L348.411 378.787
L348.589 378.501
L349.304 378.501
L349.482 378.215
L350.554 378.215
L350.821 377.642
L351.268 377.642
L351.446 377.356
L351.714 377.356
L351.893 377.07
L352.071 377.07
L352.339 376.498
L352.428 376.498
L352.607 376.212
L353.053 376.212
L353.321 375.64
L353.946 375.64
L354.125 375.354
L354.214 375.354
L354.393 375.068
L354.66 375.068
L354.839 374.781
L354.928 374.781
L355.375 373.637
L355.464 373.637
L355.643 373.351
L356 373.351
L356.178 373.065
L357.696 373.065
L357.964 372.493
L359.482 372.493
L359.66 371.921
L359.928 371.921
L360.107 371.634
L360.374 371.634
L360.553 371.348
L361.267 371.348
L361.446 371.062
L362.249 371.062
L362.428 370.776
L362.517 370.776
L362.696 370.49
L363.053 370.49
L363.231 370.204
L363.41 370.204
L363.678 369.632
L363.767 369.632
L364.035 369.06
L364.481 369.06
L364.66 368.774
L364.928 368.774
L365.196 368.201
L365.374 368.201
L365.553 367.915
L365.731 367.915
L365.91 367.629
L366.535 367.629
L366.892 366.771
L366.981 366.771
L367.16 366.485
L367.785 366.485
L368.052 365.913
L368.41 365.913
L368.588 365.626
L368.677 365.626
L369.035 364.768
L369.392 364.768
L369.57 364.482
L369.749 364.482
L370.017 363.91
L371.177 363.91
L371.356 363.624
L371.534 363.624
L371.713 363.338
L371.802 363.338
L372.07 362.766
L372.249 362.766
L372.695 361.621
L373.141 361.621
L373.409 361.049
L373.945 361.049
L374.213 360.477
L374.391 360.477
L374.57 360.191
L375.552 360.191
L375.731 359.905
L376.088 359.905
L376.266 359.619
L376.356 359.619
L376.534 359.332
L376.623 359.332
L376.802 358.76
L376.891 358.76
L377.159 358.188
L377.338 358.188
L377.695 357.33
L378.766 357.33
L379.034 356.758
L379.123 356.758
L379.391 355.613
L379.748 355.613
L380.016 355.041
L380.82 355.041
L380.998 354.755
L381.177 354.755
L381.534 353.897
L382.248 353.897
L382.605 353.038
L382.784 353.038
L383.319 351.608
L384.212 351.608
L384.391 351.322
L384.659 351.322
L384.926 350.75
L385.641 350.75
L386.266 349.033
L386.444 349.033
L386.623 348.175
L387.069 348.175
L387.337 347.03
L387.516 346.744
L387.962 346.744
L388.14 346.172
L388.23 346.172
L388.855 344.456
L388.944 344.456
L389.123 344.17
L389.48 344.17
L389.658 343.883
L389.926 343.883
L390.462 342.453
L390.997 342.453
L391.176 342.167
L391.265 342.167
L391.444 341.881
L391.533 341.881
L391.712 341.595
L391.89 341.595
L392.247 340.736
L392.337 340.736
L392.783 339.592
L393.497 339.592
L393.676 339.306
L393.944 339.306
L394.122 338.734
L394.39 338.162
L394.747 338.162
L395.015 337.589
L395.104 337.589
L395.551 336.445
L395.64 336.445
L395.997 335.587
L396.354 335.587
L396.533 334.442
L396.711 334.442
L396.89 334.156
L396.979 334.156
L397.158 333.87
L397.336 333.87
L397.515 333.012
L397.693 333.012
L398.051 332.154
L398.318 332.154
L398.586 331.581
L398.943 331.581
L399.122 330.723
L399.3 330.723
L399.479 330.437
L399.568 330.437
L399.925 328.721
L400.729 326.432
L401.175 326.432
L401.354 325.86
L401.622 325.287
L401.711 325.287
L401.89 324.429
L401.979 324.429
L402.247 323.285
L402.425 322.999
L402.515 322.999
L403.05 321.568
L403.229 321.568
L404.3 318.421
L404.836 318.421
L405.104 317.849
L405.193 317.849
L405.639 316.705
L405.996 316.705
L406.264 316.132
L406.443 316.132
L406.711 315.56
L406.889 315.56
L407.157 314.988
L407.514 314.988
L407.782 314.416
L407.871 314.416
L408.05 313.558
L408.228 312.985
L408.675 311.841
L408.764 311.841
L409.121 310.125
L409.389 309.552
L409.478 309.552
L409.746 308.408
L409.925 308.408
L410.103 308.122
L410.193 308.122
L410.55 306.405
L410.818 306.405
L411.085 305.833
L411.264 305.833
L411.532 305.261
L411.71 305.261
L412.157 304.117
L412.425 304.117
L412.603 303.83
L412.692 303.83
L412.871 303.258
L413.139 302.686
L413.317 302.686
L413.496 302.114
L413.585 302.114
L413.853 301.542
L414.3 301.542
L414.567 300.97
L414.746 300.97
L414.924 300.683
L415.192 300.683
L415.639 299.539
L416.085 299.539
L416.264 299.253
L416.442 299.253
L416.621 298.967
L416.71 298.967
L416.978 297.536
L417.246 297.536
L417.424 297.25
L417.871 297.25
L418.049 296.964
L418.139 296.964
L418.317 296.106
L418.496 295.534
L418.674 294.389
L418.764 294.389
L418.942 294.103
L419.031 294.103
L419.299 293.531
L419.388 293.531
L419.567 293.245
L419.924 293.245
L420.728 290.956
L420.996 290.956
L421.174 290.098
L421.263 290.098
L421.442 289.812
L421.62 289.812
L422.067 288.668
L422.245 288.668
L422.513 288.095
L422.692 288.095
L422.87 287.809
L423.495 287.809
L423.942 286.665
L424.031 286.665
L424.477 285.521
L424.656 285.521
L424.835 285.234
L425.192 285.234
L425.37 284.376
L425.46 284.376
L425.817 282.374
L425.995 282.374
L426.174 282.087
L426.531 282.087
L426.709 281.801
L427.156 281.801
L427.692 278.94
L427.959 278.94
L428.138 278.368
L428.495 276.938
L428.674 276.079
L429.031 276.079
L429.209 275.507
L429.299 275.507
L429.924 273.791
L430.102 273.791
L430.281 273.219
L430.638 272.36
L430.816 272.36
L430.995 271.216
L431.084 271.216
L431.263 270.358
L431.888 270.358
L432.066 270.072
L432.245 270.072
L432.87 268.355
L433.138 268.355
L433.495 266.638
L433.673 266.352
L433.852 266.352
L433.941 266.066
L434.209 264.064
L434.566 264.064
L434.655 263.777
L434.834 262.919
L435.012 262.919
L435.28 261.775
L435.37 261.775
L435.637 260.63
L435.995 260.63
L436.262 259.772
L436.441 258.342
L436.62 258.056
L436.798 258.056
L436.977 257.77
L437.066 257.77
L437.691 256.053
L438.137 256.053
L438.584 254.909
L438.673 254.909
L439.655 252.048
L439.834 252.048
L441.262 247.756
L441.619 247.756
L441.798 247.47
L441.887 247.47
L442.066 246.612
L442.244 245.754
L442.423 245.181
L442.691 244.609
L443.316 244.609
L443.494 244.323
L443.583 244.323
L443.94 242.607
L444.119 242.321
L444.476 242.321
L445.012 240.89
L445.101 240.89
L445.369 240.318
L445.458 240.318
L445.726 238.887
L445.994 238.887
L446.172 238.315
L446.351 238.029
L446.797 238.029
L447.601 235.74
L448.047 235.74
L448.226 234.882
L448.315 234.882
L448.583 233.738
L448.672 233.738
L449.208 232.307
L449.565 232.307
L449.833 231.735
L450.279 231.735
L450.904 229.732
L451.083 228.588
L451.529 228.588
L451.976 227.444
L452.333 227.444
L452.69 226.013
L452.868 225.441
L453.672 223.152
L454.118 223.152
L454.297 222.294
L454.565 221.15
L454.743 220.864
L454.922 219.147
L455.19 218.575
L455.279 218.575
L455.458 218.289
L455.547 218.289
L455.725 218.003
L455.815 218.003
L455.993 217.43
L456.172 217.43
L456.44 216.286
L456.618 216
L456.708 216
L456.975 215.428
L457.065 215.428
L457.243 214.57
L457.332 214.57
L457.511 214.283
L457.69 214.283
L458.582 211.709
L458.672 211.709
L459.297 209.992
L459.386 209.992
L459.654 209.42
L459.832 209.42
L460.011 209.134
L460.1 209.134
L461.796 203.984
L461.886 203.984
L462.421 202.554
L462.511 202.554
L462.957 201.409
L463.046 201.409
L463.314 199.693
L463.671 198.834
L463.761 198.834
L463.939 198.262
L464.118 198.262
L464.296 197.976
L464.832 197.976
L465.011 197.69
L465.189 197.69
L465.546 196.546
L465.725 195.401
L465.903 195.401
L466.26 194.543
L466.439 194.543
L466.618 194.257
L466.707 194.257
L467.6 191.682
L467.778 190.538
L467.868 190.538
L468.046 189.679
L468.135 189.679
L468.492 188.821
L469.028 188.821
L469.207 187.963
L469.475 187.963
L469.742 187.391
L469.832 187.391
L470.546 184.816
L470.724 183.672
L471.439 181.669
L471.528 181.669
L471.707 180.811
L471.885 180.811
L472.064 179.952
L472.153 179.952
L472.51 179.094
L472.599 179.094
L472.956 178.236
L473.135 178.236
L473.224 177.95
L473.403 176.519
L473.492 176.519
L473.76 175.947
L473.939 175.947
L474.117 174.803
L474.206 174.803
L474.385 173.944
L474.474 173.944
L474.653 173.086
L474.921 173.086
L475.099 172.514
L475.367 172.514
L475.635 171.942
L476.081 171.942
L476.617 170.511
L476.706 170.511
L476.974 169.939
L477.242 169.939
L477.599 169.081
L477.867 169.081
L478.313 167.936
L478.492 167.936
L478.67 167.65
L478.849 167.65
L479.117 167.078
L479.295 167.078
L479.563 166.506
L479.652 166.506
L479.831 165.648
L480.277 164.503
L480.724 164.503
L481.26 162.787
L481.527 161.07
L482.242 159.068
L482.42 159.068
L482.688 158.495
L482.867 158.495
L483.045 158.209
L483.313 158.209
L483.67 157.351
L483.759 157.351
L484.116 155.634
L484.384 155.634
L484.563 154.776
L484.92 153.918
L485.009 153.918
L485.456 152.774
L485.634 152.774
L486.259 151.057
L486.527 151.057
L486.706 150.199
L486.884 149.913
L486.973 149.913
L487.241 149.34
L487.688 149.34
L487.866 148.768
L488.045 148.482
L488.491 148.482
L488.67 147.91
L488.848 147.91
L489.205 147.052
L489.473 147.052
L489.83 145.907
L490.009 144.763
L490.098 144.763
L490.366 144.191
L490.812 144.191
L490.991 143.619
L491.527 143.619
L491.705 143.332
L491.884 143.332
L492.152 141.902
L492.33 141.902
L492.598 141.33
L492.955 141.33
L493.134 141.044
L493.312 141.044
L493.669 140.185
L494.116 140.185
L494.384 139.613
L494.562 139.613
L494.741 139.327
L495.455 139.327
L495.634 138.469
L495.812 138.469
L496.08 137.325
L496.169 137.325
L496.348 136.752
L496.526 136.752
L496.705 136.466
L496.884 136.466
L497.062 135.894
L497.419 135.894
L497.955 134.464
L498.044 134.464
L498.758 132.461
L498.848 132.461
L499.026 132.175
L499.205 132.175
L499.383 131.889
L499.919 131.889
L500.098 131.603
L500.276 131.603
L500.544 130.458
L500.901 130.458
L501.08 130.172
L501.258 130.172
L501.526 129.6
L501.705 129.6
L501.883 129.314
L502.062 129.314
L502.33 128.742
L502.508 128.742
L502.687 128.456
L503.222 128.456
L503.401 128.17
L503.49 128.17
L503.669 127.883
L504.026 127.883
L504.204 127.025
L504.383 127.025
L504.74 126.167
L504.919 126.167
L505.097 125.595
L505.187 125.595
L505.365 125.309
L505.454 125.309
L505.633 125.023
L505.812 125.023
L506.883 121.875
L506.972 121.875
L507.151 121.303
L507.329 121.303
L507.508 120.731
L508.401 118.156
L508.49 118.156
L508.668 117.87
L508.847 117.87
L509.026 117.584
L509.115 117.584
L509.651 116.154
L509.829 116.154
L510.097 114.723
L510.186 114.723
L510.365 114.151
L510.633 114.151
L510.9 113.579
L511.258 113.579
L511.704 112.434
L511.793 112.434
L511.883 112.148
L512.061 111.004
L512.15 111.004
L512.508 110.146
L512.686 110.146
L512.865 109.86
L512.954 109.86
L513.132 109.287
L513.222 109.287
L513.4 109.001
L513.579 109.001
L513.847 108.429
L514.293 108.429
L514.472 107.857
L514.561 107.857
L514.829 107.285
L515.097 107.285
L515.632 105.854
L515.811 105.854
L515.989 105.282
L516.079 105.282
L516.347 104.71
L516.704 104.71
L517.418 102.707
L517.775 102.707
L517.954 102.421
L518.311 102.421
L518.311 102.421" style="fill:none;stroke:#ff0000;stroke-dasharray:3.000000,6.000000;stroke-dashoffset:0.0;"/>
   </g>
   <g id="line2d_4">
    <path clip-path="url(#p7ff5b81e1d)" d="
M72 388.8
L72.5357 388.8
L72.7142 388.41
L73.7856 388.41
L73.9642 388.8
L397.783 388.8
L397.961 388.41
L405.372 388.41
L405.55 388.021
L422.424 388.021
L422.603 387.631
L441.351 387.631
L441.53 387.241
L443.762 387.241
L443.94 386.852
L450.19 386.852
L450.369 386.462
L450.636 386.462
L450.815 386.073
L450.904 386.073
L451.083 385.683
L451.351 385.683
L451.529 385.293
L452.065 385.293
L452.244 384.904
L454.208 384.904
L454.386 384.514
L457.332 384.514
L457.511 384.124
L461.261 384.124
L461.439 383.735
L462.064 383.735
L462.243 383.345
L462.779 383.345
L462.957 382.956
L464.832 382.956
L465.011 382.566
L465.189 382.566
L465.368 382.176
L466.439 382.176
L466.618 381.787
L468.403 381.787
L468.76 380.618
L468.85 380.618
L469.028 380.228
L469.475 380.228
L469.653 379.839
L469.742 379.839
L469.921 379.449
L470.01 379.449
L470.189 379.059
L472.599 379.059
L472.778 378.67
L475.278 378.67
L475.456 378.28
L475.813 378.28
L475.992 377.89
L476.349 377.89
L476.528 377.501
L476.706 377.501
L476.885 377.111
L479.295 377.111
L479.742 375.553
L480.099 375.553
L480.277 375.163
L484.206 375.163
L484.384 374.773
L486.706 374.773
L486.884 374.384
L487.152 374.384
L487.331 373.994
L489.741 373.994
L489.92 373.605
L490.545 373.605
L490.991 372.046
L491.259 372.046
L491.527 371.267
L492.241 371.267
L492.42 370.877
L494.027 370.877
L494.205 370.098
L494.562 368.929
L494.83 368.929
L495.009 368.539
L495.455 368.539
L495.634 368.15
L496.884 368.15
L497.151 367.37
L498.133 367.37
L498.312 366.981
L498.401 366.981
L498.758 365.812
L500.455 365.812
L500.633 365.422
L500.723 365.422
L500.99 364.643
L501.348 364.643
L501.526 364.253
L501.615 364.253
L501.883 363.474
L502.151 363.474
L502.33 363.085
L504.204 363.085
L504.472 362.305
L504.74 362.305
L505.276 360.357
L505.454 360.357
L505.633 359.968
L506.615 359.968
L506.794 359.578
L507.686 359.578
L508.49 356.461
L508.579 356.461
L508.758 356.071
L509.115 356.071
L509.293 355.682
L509.561 355.682
L509.74 355.292
L511.347 355.292
L511.615 354.513
L511.883 354.513
L512.061 354.123
L512.15 354.123
L512.508 352.954
L512.865 352.954
L513.043 352.565
L513.847 352.565
L514.025 352.175
L514.918 352.175
L515.097 351.785
L515.186 351.785
L515.632 350.227
L516.079 350.227
L516.257 349.837
L517.507 349.837
L517.686 349.448
L517.954 349.448
L518.132 349.058
L518.311 349.058
L518.311 349.058" style="fill:none;stroke:#00bfbf;stroke-dasharray:5.000000,1.000000,2.000000,1.000000,5.000000,1.000000;stroke-dashoffset:0.0;"/>
   </g>
   <g id="line2d_5">
    <path clip-path="url(#p7ff5b81e1d)" d="
M72 388.8
L104.944 388.8
L105.123 388.11
L108.516 388.11
L108.694 386.731
L108.873 386.041
L111.283 386.041
L111.462 385.351
L111.64 385.351
L111.819 384.661
L111.908 384.661
L112.087 383.971
L112.533 383.971
L112.712 383.281
L114.765 383.281
L115.033 381.902
L115.301 381.902
L115.479 380.522
L115.658 379.832
L115.926 379.832
L116.104 377.763
L116.194 377.763
L116.551 375.693
L118.426 375.693
L118.604 375.004
L118.783 375.004
L118.961 374.314
L119.051 374.314
L119.229 372.244
L119.497 368.795
L119.765 368.795
L120.211 366.036
L121.908 366.036
L122.265 363.966
L122.443 361.207
L122.8 357.068
L123.068 354.309
L123.336 351.55
L123.515 350.86
L123.604 350.86
L123.961 348.79
L124.407 348.79
L124.586 348.101
L125.479 348.101
L125.657 344.651
L125.925 341.892
L126.014 341.892
L126.282 337.753
L126.372 337.063
L126.55 332.235
L126.818 330.165
L127.086 326.026
L127.264 325.337
L128.782 325.337
L128.961 324.647
L129.139 324.647
L129.586 315.679
L129.764 313.61
L130.121 308.091
L130.389 301.193
L130.478 301.193
L130.657 296.364
L130.836 294.295
L131.639 294.295
L131.818 293.605
L132.532 293.605
L132.621 292.915
L133.157 282.568
L134.139 266.702
L134.407 261.183
L135.21 261.183
L135.389 260.493
L135.746 260.493
L135.924 259.804
L136.192 259.804
L136.46 257.044
L136.639 254.975
L136.996 248.077
L137.085 248.077
L137.621 238.419
L137.889 234.28
L138.067 233.59
L139.585 233.59
L139.942 230.831
L140.21 226.692
L140.299 225.313
L140.478 221.174
L141.103 215.655
L141.638 208.067
L141.728 208.067
L141.906 207.377
L141.996 207.377
L142.174 206.687
L142.263 206.687
L142.442 205.998
L143.245 205.998
L143.335 205.308
L143.513 201.859
L143.692 201.859
L144.317 192.891
L144.406 192.891
L144.852 187.372
L144.942 187.372
L145.12 185.303
L146.281 185.303
L146.46 184.613
L146.817 184.613
L146.995 182.544
L147.799 170.817
L147.888 170.817
L148.245 168.057
L148.424 165.298
L148.692 163.919
L148.87 163.919
L149.049 163.229
L149.852 163.229
L150.031 162.539
L150.477 162.539
L150.566 161.849
L150.745 159.09
L150.924 158.4
L151.013 158.4
L151.37 154.951
L152.173 143.914
L154.048 143.914
L154.227 143.224
L154.316 143.224
L154.495 141.844
L154.673 139.775
L154.941 138.395
L155.03 138.395
L155.298 135.636
L155.477 132.877
L155.566 132.877
L155.834 130.117
L156.459 130.117
L156.637 129.428
L157.62 129.428
L158.155 121.84
L158.334 121.84
L158.602 119.08
L159.405 108.043
L161.28 108.043
L162.262 99.7653
L162.708 94.2467
L165.03 94.2467
L165.208 92.1772
L165.744 92.1772
L165.833 91.4874
L166.012 89.418
L166.28 89.418
L166.548 88.0383
L168.333 88.0383
L168.512 87.3485
L168.601 87.3485
L168.78 85.279
L169.137 85.279
L169.762 81.1401
L169.94 81.1401
L170.119 80.4503
L171.994 80.4503
L172.172 78.3808
L172.261 78.3808
L172.529 77.0012
L172.619 77.0012
L172.886 75.6216
L173.333 75.6216
L173.601 74.2419
L174.851 74.2419
L175.029 73.5521
L176.011 73.5521
L176.368 71.4826
L176.815 71.4826
L176.993 70.7928
L179.761 70.7928
L179.94 70.103
L180.118 70.103
L180.297 69.4132
L180.564 69.4132
L180.743 68.7234
L181.457 68.7234
L181.636 68.0335
L182.529 68.0335
L182.975 65.2743
L183.6 65.2743
L183.779 64.5844
L183.868 64.5844
L184.136 63.2048
L186.457 63.2048
L186.636 62.515
L187.618 62.515
L187.885 61.1353
L187.975 61.1353
L188.153 60.4455
L189.939 60.4455
L190.117 58.376
L190.385 58.376
L190.742 56.3066
L190.832 56.3066
L191.01 54.9269
L193.689 54.9269
L193.867 54.2371
L194.046 54.2371
L194.314 52.8575
L196.903 52.8575
L197.171 51.4778
L198.242 51.4778
L198.42 50.788
L198.599 50.788
L198.778 50.0982
L200.831 50.0982
L201.01 49.4084
L201.367 49.4084
L201.545 48.7186
L204.224 48.7186
L204.402 48.0287
L205.027 48.0287
L205.206 47.3389
L215.562 47.3389
L215.741 46.6491
L219.312 46.6491
L219.491 45.9593
L226.544 45.9593
L226.722 45.2695
L243.596 45.2695
L243.775 44.5796
L255.113 44.5796
L255.292 43.8898
L307.61 43.8898
L307.788 43.2
L518.311 43.2
L518.311 43.2" style="fill:none;stroke:#bf00bf;stroke-linecap:square;"/>
   </g>
   <g id="matplotlib.axis_1">
    <g id="xtick_1">
     <g id="line2d_6">
      <defs>
       <path d="
M0 0
L0 -4" id="mc7db9fdffb" style="stroke:#000000;stroke-width:0.5;"/>
      </defs>
      <g>
       <use style="stroke:#000000;stroke-width:0.5;" x="72.0" xlink:href="#mc7db9fdffb" y="388.8"/>
      </g>
     </g>
     <g id="line2d_7">
      <defs>
       <path d="
M0 0
L0 4" id="m5a7d422ac3" style="stroke:#000000;stroke-width:0.5;"/>
      </defs>
      <g>
       <use style="stroke:#000000;stroke-width:0.5;" x="72.0" xlink:href="#m5a7d422ac3" y="43.2"/>
      </g>
     </g>
     <g id="text_1">
      <!-- 0 -->
      <defs>
       <path d="
M56.9844 36.375
Q56.9844 16.7969 50.8594 7.64062
Q44.7344 -1.51562 31.8438 -1.51562
Q18.75 -1.51562 12.7188 7.76562
Q6.6875 17.0469 6.6875 36.2812
Q6.6875 55.6719 12.7812 64.9219
Q18.8906 74.1719 31.8438 74.1719
Q44.9219 74.1719 50.9531 64.7656
Q56.9844 55.375 56.9844 36.375
M44.1406 14.2031
Q45.8438 18.1719 46.4531 23.5156
Q47.0781 28.8594 47.0781 36.375
Q47.0781 43.7969 46.4531 49.2656
Q45.8438 54.7344 44.0938 58.5469
Q42.3906 62.3125 39.4219 64.2031
Q36.4688 66.1094 31.8438 66.1094
Q27.25 66.1094 24.2344 64.2031
Q21.2344 62.3125 19.4844 58.4531
Q17.8281 54.8281 17.2188 49.0156
Q16.6094 43.2188 16.6094 36.2812
Q16.6094 28.6562 17.1406 23.5312
Q17.6719 18.4062 19.4375 14.3594
Q21.0469 10.5469 24 8.54688
Q26.9531 6.54688 31.8438 6.54688
Q36.4219 6.54688 39.4531 8.45312
Q42.4844 10.3594 44.1406 14.2031" id="Verdana-30"/>
      </defs>
      <g transform="translate(68.9821875 401.918125)scale(0.12 -0.12)">
       <use xlink:href="#Verdana-30"/>
      </g>
     </g>
    </g>
    <g id="xtick_2">
     <g id="line2d_8">
      <g>
       <use style="stroke:#000000;stroke-width:0.5;" x="161.28" xlink:href="#mc7db9fdffb" y="388.8"/>
      </g>
     </g>
     <g id="line2d_9">
      <g>
       <use style="stroke:#000000;stroke-width:0.5;" x="161.28" xlink:href="#m5a7d422ac3" y="43.2"/>
      </g>
     </g>
     <g id="text_2">
      <!-- 1000 -->
      <defs>
       <path d="
M52.9375 0
L13.5781 0
L13.5781 7.42188
L28.7188 7.42188
L28.7188 56.1562
L13.5781 56.1562
L13.5781 62.7969
Q16.6562 62.7969 20.1719 63.2969
Q23.6875 63.8125 25.4844 64.7969
Q27.7344 66.0156 29.0312 67.8906
Q30.3281 69.7812 30.5156 72.9531
L38.0938 72.9531
L38.0938 7.42188
L52.9375 7.42188
z
" id="Verdana-31"/>
      </defs>
      <g transform="translate(147.2315625 401.918125)scale(0.12 -0.12)">
       <use xlink:href="#Verdana-31"/>
       <use x="63.57421875" xlink:href="#Verdana-30"/>
       <use x="127.1484375" xlink:href="#Verdana-30"/>
       <use x="190.72265625" xlink:href="#Verdana-30"/>
      </g>
     </g>
    </g>
    <g id="xtick_3">
     <g id="line2d_10">
      <g>
       <use style="stroke:#000000;stroke-width:0.5;" x="250.56" xlink:href="#mc7db9fdffb" y="388.8"/>
      </g>
     </g>
     <g id="line2d_11">
      <g>
       <use style="stroke:#000000;stroke-width:0.5;" x="250.56" xlink:href="#m5a7d422ac3" y="43.2"/>
      </g>
     </g>
     <g id="text_3">
      <!-- 2000 -->
      <defs>
       <path d="
M57.0781 0
L7.85938 0
L7.85938 10.2031
Q12.9844 14.5938 18.1406 18.9844
Q23.2969 23.3906 27.7344 27.7344
Q37.1094 36.8125 40.5781 42.1562
Q44.0469 47.5156 44.0469 53.7188
Q44.0469 59.375 40.3125 62.5625
Q36.5781 65.7656 29.8906 65.7656
Q25.4375 65.7656 20.2656 64.2031
Q15.0938 62.6406 10.1562 59.4219
L9.67188 59.4219
L9.67188 69.6719
Q13.1406 71.3906 18.9219 72.7969
Q24.7031 74.2188 30.125 74.2188
Q41.3125 74.2188 47.6562 68.8125
Q54 63.4219 54 54.2031
Q54 50.0469 52.9531 46.4531
Q51.9062 42.875 49.8594 39.6562
Q47.9531 36.625 45.3906 33.6875
Q42.8281 30.7656 39.1562 27.2031
Q33.9375 22.0781 28.3594 17.2656
Q22.7969 12.4531 17.9688 8.34375
L57.0781 8.34375
z
" id="Verdana-32"/>
      </defs>
      <g transform="translate(236.1684375 401.918125)scale(0.12 -0.12)">
       <use xlink:href="#Verdana-32"/>
       <use x="63.57421875" xlink:href="#Verdana-30"/>
       <use x="127.1484375" xlink:href="#Verdana-30"/>
       <use x="190.72265625" xlink:href="#Verdana-30"/>
      </g>
     </g>
    </g>
    <g id="xtick_4">
     <g id="line2d_12">
      <g>
       <use style="stroke:#000000;stroke-width:0.5;" x="339.84" xlink:href="#mc7db9fdffb" y="388.8"/>
      </g>
     </g>
     <g id="line2d_13">
      <g>
       <use style="stroke:#000000;stroke-width:0.5;" x="339.84" xlink:href="#m5a7d422ac3" y="43.2"/>
      </g>
     </g>
     <g id="text_4">
      <!-- 3000 -->
      <defs>
       <path d="
M50.6875 35.0156
Q53.0312 32.9062 54.5469 29.7344
Q56.0625 26.5625 56.0625 21.5312
Q56.0625 16.5469 54.25 12.3906
Q52.4375 8.25 49.1719 5.17188
Q45.5156 1.76562 40.5469 0.125
Q35.5938 -1.51562 29.6875 -1.51562
Q23.6406 -1.51562 17.7812 -0.0625
Q11.9219 1.375 8.15625 3.07812
L8.15625 13.2812
L8.89062 13.2812
Q13.0312 10.5469 18.6406 8.73438
Q24.2656 6.9375 29.5 6.9375
Q32.5625 6.9375 36.0312 7.95312
Q39.5 8.98438 41.6562 10.9844
Q43.8906 13.1406 44.9844 15.7188
Q46.0938 18.3125 46.0938 22.2656
Q46.0938 26.1719 44.8438 28.7344
Q43.6094 31.2969 41.4062 32.7656
Q39.2031 34.2812 36.0781 34.8438
Q32.9531 35.4062 29.3438 35.4062
L24.9531 35.4062
L24.9531 43.5
L28.375 43.5
Q35.7969 43.5 40.2031 46.5938
Q44.625 49.7031 44.625 55.6719
Q44.625 58.2969 43.5 60.2656
Q42.3906 62.25 40.375 63.5312
Q38.2812 64.7969 35.8906 65.2812
Q33.5 65.7656 30.4688 65.7656
Q25.8281 65.7656 20.5938 64.1094
Q15.375 62.4531 10.75 59.4219
L10.25 59.4219
L10.25 69.625
Q13.7188 71.3438 19.5 72.7812
Q25.2969 74.2188 30.7188 74.2188
Q36.0312 74.2188 40.0781 73.2344
Q44.1406 72.2656 47.4062 70.125
Q50.9219 67.7812 52.7344 64.4531
Q54.5469 61.1406 54.5469 56.6875
Q54.5469 50.6406 50.2656 46.125
Q46 41.6094 40.1875 40.4375
L40.1875 39.75
Q42.5312 39.3594 45.5469 38.1094
Q48.5781 36.8594 50.6875 35.0156" id="Verdana-33"/>
      </defs>
      <g transform="translate(325.46625 401.918125)scale(0.12 -0.12)">
       <use xlink:href="#Verdana-33"/>
       <use x="63.57421875" xlink:href="#Verdana-30"/>
       <use x="127.1484375" xlink:href="#Verdana-30"/>
       <use x="190.72265625" xlink:href="#Verdana-30"/>
      </g>
     </g>
    </g>
    <g id="xtick_5">
     <g id="line2d_14">
      <g>
       <use style="stroke:#000000;stroke-width:0.5;" x="429.12" xlink:href="#mc7db9fdffb" y="388.8"/>
      </g>
     </g>
     <g id="line2d_15">
      <g>
       <use style="stroke:#000000;stroke-width:0.5;" x="429.12" xlink:href="#m5a7d422ac3" y="43.2"/>
      </g>
     </g>
     <g id="text_5">
      <!-- 4000 -->
      <defs>
       <path d="
M58.7344 20.4531
L47.9531 20.4531
L47.9531 0
L38.5781 0
L38.5781 20.4531
L3.76562 20.4531
L3.76562 31.6875
L38.9688 72.7031
L47.9531 72.7031
L47.9531 28.2656
L58.7344 28.2656
z

M38.5781 28.2656
L38.5781 61.0781
L10.4062 28.2656
z
" id="Verdana-34"/>
      </defs>
      <g transform="translate(414.4828125 401.918125)scale(0.12 -0.12)">
       <use xlink:href="#Verdana-34"/>
       <use x="63.57421875" xlink:href="#Verdana-30"/>
       <use x="127.1484375" xlink:href="#Verdana-30"/>
       <use x="190.72265625" xlink:href="#Verdana-30"/>
      </g>
     </g>
    </g>
    <g id="xtick_6">
     <g id="line2d_16">
      <g>
       <use style="stroke:#000000;stroke-width:0.5;" x="518.4" xlink:href="#mc7db9fdffb" y="388.8"/>
      </g>
     </g>
     <g id="line2d_17">
      <g>
       <use style="stroke:#000000;stroke-width:0.5;" x="518.4" xlink:href="#m5a7d422ac3" y="43.2"/>
      </g>
     </g>
     <g id="text_6">
      <!-- 5000 -->
      <defs>
       <path d="
M56.5 23.0938
Q56.5 18.0156 54.6406 13.375
Q52.7812 8.73438 49.5625 5.5625
Q46.0469 2.15625 41.1875 0.3125
Q36.3281 -1.51562 29.9375 -1.51562
Q23.9688 -1.51562 18.4531 -0.265625
Q12.9375 0.984375 9.125 2.73438
L9.125 13.0312
L9.8125 13.0312
Q13.8125 10.5 19.1875 8.71875
Q24.5625 6.9375 29.7344 6.9375
Q33.2031 6.9375 36.4531 7.90625
Q39.7031 8.89062 42.2344 11.3281
Q44.3906 13.4219 45.4844 16.3438
Q46.5781 19.2812 46.5781 23.1406
Q46.5781 26.9062 45.2812 29.4844
Q44 32.0781 41.7031 33.6406
Q39.1562 35.5 35.5156 36.25
Q31.8906 37.0156 27.3906 37.0156
Q23.0938 37.0156 19.1094 36.4219
Q15.1406 35.8438 12.25 35.25
L12.25 72.7031
L56 72.7031
L56 64.1562
L21.6875 64.1562
L21.6875 44.8281
Q23.7812 45.0156 25.9688 45.1094
Q28.1719 45.2188 29.7812 45.2188
Q35.6875 45.2188 40.125 44.2188
Q44.5781 43.2188 48.2969 40.6719
Q52.2031 37.9844 54.3438 33.7344
Q56.5 29.5 56.5 23.0938" id="Verdana-35"/>
      </defs>
      <g transform="translate(504.084375 401.918125)scale(0.12 -0.12)">
       <use xlink:href="#Verdana-35"/>
       <use x="63.57421875" xlink:href="#Verdana-30"/>
       <use x="127.1484375" xlink:href="#Verdana-30"/>
       <use x="190.72265625" xlink:href="#Verdana-30"/>
      </g>
     </g>
    </g>
    <g id="text_7">
     <!-- Objective function exectuions -->
     <defs>
      <path d="
M63.9688 64.3594
Q68.4062 59.4688 70.7656 52.3906
Q73.1406 45.3125 73.1406 36.3281
Q73.1406 27.3438 70.7188 20.2344
Q68.3125 13.1406 63.9688 8.40625
Q59.4688 3.46875 53.3438 0.96875
Q47.2188 -1.51562 39.3594 -1.51562
Q31.6875 -1.51562 25.4062 1.01562
Q19.1406 3.5625 14.75 8.40625
Q10.3594 13.2344 7.98438 20.2656
Q5.60938 27.2969 5.60938 36.3281
Q5.60938 45.2188 7.95312 52.2656
Q10.2969 59.3281 14.7969 64.3594
Q19.0938 69.1406 25.4688 71.6719
Q31.8438 74.2188 39.3594 74.2188
Q47.1719 74.2188 53.3906 71.6562
Q59.625 69.0938 63.9688 64.3594
M63.0938 36.3281
Q63.0938 50.4844 56.7344 58.1719
Q50.3906 65.875 39.4062 65.875
Q28.3281 65.875 22 58.1719
Q15.6719 50.4844 15.6719 36.3281
Q15.6719 22.0156 22.1094 14.4219
Q28.5625 6.84375 39.4062 6.84375
Q50.25 6.84375 56.6719 14.4219
Q63.0938 22.0156 63.0938 36.3281" id="Verdana-4f"/>
      <path d="
M48 15.7188
Q48 8.25 41.8125 3.46875
Q35.6406 -1.3125 24.9531 -1.3125
Q18.8906 -1.3125 13.8438 0.125
Q8.79688 1.5625 5.375 3.26562
L5.375 13.5781
L5.85938 13.5781
Q10.2031 10.2969 15.5156 8.375
Q20.8438 6.45312 25.7344 6.45312
Q31.7812 6.45312 35.2031 8.40625
Q38.625 10.3594 38.625 14.5469
Q38.625 17.7812 36.7656 19.4375
Q34.9062 21.0938 29.6406 22.2656
Q27.6875 22.7031 24.5312 23.2812
Q21.3906 23.875 18.7969 24.5625
Q11.625 26.4688 8.60938 30.1562
Q5.60938 33.8438 5.60938 39.2031
Q5.60938 42.5781 7 45.5469
Q8.40625 48.5312 11.2344 50.875
Q13.9688 53.1719 18.1875 54.5156
Q22.4062 55.8594 27.6406 55.8594
Q32.5156 55.8594 37.5156 54.6562
Q42.5312 53.4688 45.8438 51.7656
L45.8438 41.9375
L45.3594 41.9375
Q41.8438 44.5312 36.8125 46.3125
Q31.7812 48.0938 26.9531 48.0938
Q21.9219 48.0938 18.4531 46.1562
Q14.9844 44.2344 14.9844 40.4375
Q14.9844 37.0625 17.0938 35.3594
Q19.1406 33.6406 23.7344 32.5625
Q26.2656 31.9844 29.4062 31.3906
Q32.5625 30.8125 34.6719 30.3281
Q41.0625 28.8594 44.5312 25.2969
Q48 21.6875 48 15.7188" id="Verdana-73"/>
      <path d="
M54.6875 26.3125
L14.5 26.3125
Q14.5 21.2969 16.0156 17.5469
Q17.5312 13.8125 20.1719 11.4219
Q22.7031 9.07812 26.1875 7.90625
Q29.6875 6.73438 33.8906 6.73438
Q39.4531 6.73438 45.0938 8.95312
Q50.7344 11.1875 53.125 13.3281
L53.6094 13.3281
L53.6094 3.32812
Q48.9688 1.375 44.1406 0.046875
Q39.3125 -1.26562 33.9844 -1.26562
Q20.4062 -1.26562 12.7812 6.07812
Q5.17188 13.4219 5.17188 26.9531
Q5.17188 40.3281 12.4688 48.1875
Q19.7812 56.0625 31.6875 56.0625
Q42.7188 56.0625 48.7031 49.6094
Q54.6875 43.1719 54.6875 31.2969
z

M45.75 33.3438
Q45.7031 40.5781 42.1094 44.5312
Q38.5312 48.4844 31.2031 48.4844
Q23.8281 48.4844 19.4531 44.1406
Q15.0938 39.7969 14.5 33.3438
z
" id="Verdana-65"/>
      <path d="
M56.2031 54.5469
L34.125 0
L24.9062 0
L2.98438 54.5469
L12.9375 54.5469
L29.8281 11.1406
L46.5781 54.5469
z
" id="Verdana-76"/>
      <path d="
M49.3594 3.42188
Q44.7812 1.21875 40.6562 0
Q36.5312 -1.21875 31.8906 -1.21875
Q25.9844 -1.21875 21.0469 0.515625
Q16.1094 2.25 12.5938 5.76562
Q9.03125 9.28125 7.07812 14.6406
Q5.125 20.0156 5.125 27.2031
Q5.125 40.5781 12.4688 48.1875
Q19.8281 55.8125 31.8906 55.8125
Q36.5781 55.8125 41.0938 54.4844
Q45.6094 53.1719 49.3594 51.2656
L49.3594 41.0625
L48.875 41.0625
Q44.6719 44.3438 40.2031 46.0938
Q35.75 47.8594 31.5 47.8594
Q23.6875 47.8594 19.1719 42.6094
Q14.6562 37.3594 14.6562 27.2031
Q14.6562 17.3281 19.0625 12.0312
Q23.4844 6.73438 31.5 6.73438
Q34.2812 6.73438 37.1562 7.46875
Q40.0469 8.20312 42.3281 9.375
Q44.3438 10.4062 46.0938 11.5469
Q47.8594 12.7031 48.875 13.5312
L49.3594 13.5312
z
" id="Verdana-63"/>
      <path d="
M57.0312 27.6875
Q57.0312 20.8438 55.0938 15.375
Q53.1719 9.90625 49.9062 6.20312
Q46.4375 2.34375 42.2812 0.40625
Q38.1406 -1.51562 33.1562 -1.51562
Q28.5156 -1.51562 25.0469 -0.40625
Q21.5781 0.6875 18.2188 2.54688
L17.625 0
L9.03125 0
L9.03125 75.9844
L18.2188 75.9844
L18.2188 48.8281
Q22.0781 52 26.4219 54.0312
Q30.7656 56.0625 36.1875 56.0625
Q45.8438 56.0625 51.4375 48.6406
Q57.0312 41.2188 57.0312 27.6875
M47.5625 27.4375
Q47.5625 37.2031 44.3281 42.25
Q41.1094 47.3125 33.9375 47.3125
Q29.9375 47.3125 25.8281 45.5781
Q21.7344 43.8438 18.2188 41.1094
L18.2188 9.85938
Q22.125 8.10938 24.9219 7.42188
Q27.7344 6.73438 31.2969 6.73438
Q38.9219 6.73438 43.2344 11.7344
Q47.5625 16.75 47.5625 27.4375" id="Verdana-62"/>
      <path d="
M26.0312 63.6719
L15.6719 63.6719
L15.6719 73.1875
L26.0312 73.1875
z

M25.4375 -1.3125
Q25.4375 -10.8906 20.5469 -15.7656
Q15.6719 -20.6562 7.46875 -20.6562
Q5.51562 -20.6562 2.3125 -20.2656
Q-0.875 -19.875 -3.03125 -19.2812
L-3.03125 -10.5469
L-2.54688 -10.5469
Q-1.17188 -11.0781 1.14062 -11.7656
Q3.46875 -12.4531 5.67188 -12.4531
Q9.1875 -12.4531 11.3281 -11.4688
Q13.4844 -10.5 14.5469 -8.54688
Q15.625 -6.59375 15.9375 -3.82812
Q16.2656 -1.07812 16.2656 2.875
L16.2656 46.8281
L4.89062 46.8281
L4.89062 54.5469
L25.4375 54.5469
z
" id="Verdana-6a"/>
      <path d="
M37.3594 0.484375
Q34.7656 -0.203125 31.7031 -0.640625
Q28.6562 -1.07812 26.2656 -1.07812
Q17.9219 -1.07812 13.5781 3.40625
Q9.23438 7.90625 9.23438 17.8281
L9.23438 46.8281
L3.03125 46.8281
L3.03125 54.5469
L9.23438 54.5469
L9.23438 70.2188
L18.4062 70.2188
L18.4062 54.5469
L37.3594 54.5469
L37.3594 46.8281
L18.4062 46.8281
L18.4062 21.9688
Q18.4062 17.6719 18.5938 15.25
Q18.7969 12.8438 19.9688 10.75
Q21.0469 8.79688 22.9219 7.89062
Q24.8125 6.98438 28.6562 6.98438
Q30.9062 6.98438 33.3438 7.64062
Q35.7969 8.29688 36.8594 8.73438
L37.3594 8.73438
z
" id="Verdana-74"/>
      <path d="
M18.8906 63.6719
L8.54688 63.6719
L8.54688 73.1875
L18.8906 73.1875
z

M18.3125 0
L9.125 0
L9.125 54.5469
L18.3125 54.5469
z
" id="Verdana-69"/>
      <path d="
M54.25 0
L45.0625 0
L45.0625 6.0625
Q40.4375 2.39062 36.1875 0.4375
Q31.9375 -1.51562 26.8125 -1.51562
Q18.2188 -1.51562 13.4219 3.73438
Q8.64062 8.98438 8.64062 19.1406
L8.64062 54.5469
L17.8281 54.5469
L17.8281 23.4844
Q17.8281 19.3438 18.2188 16.375
Q18.6094 13.4219 19.875 11.3281
Q21.1875 9.1875 23.2812 8.20312
Q25.3906 7.23438 29.3906 7.23438
Q32.9531 7.23438 37.1719 9.07812
Q41.4062 10.9375 45.0625 13.8125
L45.0625 54.5469
L54.25 54.5469
z
" id="Verdana-75"/>
      <path d="
M38.375 67.0938
L37.8906 67.0938
Q36.375 67.5312 33.9375 67.9844
Q31.5 68.4531 29.6406 68.4531
Q23.7344 68.4531 21.0625 65.8438
Q18.4062 63.2344 18.4062 56.3906
L18.4062 54.5469
L34.9688 54.5469
L34.9688 46.8281
L18.7031 46.8281
L18.7031 0
L9.51562 0
L9.51562 46.8281
L3.32812 46.8281
L3.32812 54.5469
L9.51562 54.5469
L9.51562 56.3438
Q9.51562 66.0625 14.3438 71.2656
Q19.1875 76.4688 28.3281 76.4688
Q31.3906 76.4688 33.8594 76.1719
Q36.3281 75.875 38.375 75.4844
z
" id="Verdana-66"/>
      <path id="Verdana-20"/>
      <path d="
M56.25 0
L44.6719 0
L29.2031 20.9531
L13.625 0
L2.9375 0
L24.2188 27.2031
L3.125 54.5469
L14.7031 54.5469
L30.0781 33.9375
L45.5156 54.5469
L56.25 54.5469
L34.8125 27.6875
z
" id="Verdana-78"/>
      <path d="
M54.6406 0
L45.4531 0
L45.4531 31.0625
Q45.4531 34.8125 45.0156 38.1094
Q44.5781 41.4062 43.4062 43.2656
Q42.1875 45.3125 39.8906 46.3125
Q37.5938 47.3125 33.9375 47.3125
Q30.1719 47.3125 26.0625 45.4531
Q21.9688 43.6094 18.2188 40.7188
L18.2188 0
L9.03125 0
L9.03125 54.5469
L18.2188 54.5469
L18.2188 48.4844
Q22.5156 52.0469 27.0938 54.0469
Q31.6875 56.0625 36.5312 56.0625
Q45.3594 56.0625 50 50.7344
Q54.6406 45.4062 54.6406 35.4062
z
" id="Verdana-6e"/>
      <path d="
M55.5156 27.25
Q55.5156 13.9219 48.6719 6.20312
Q41.8438 -1.51562 30.375 -1.51562
Q18.7969 -1.51562 11.9844 6.20312
Q5.17188 13.9219 5.17188 27.25
Q5.17188 40.5781 11.9844 48.3125
Q18.7969 56.0625 30.375 56.0625
Q41.8438 56.0625 48.6719 48.3125
Q55.5156 40.5781 55.5156 27.25
M46.0469 27.25
Q46.0469 37.8438 41.8906 42.9844
Q37.75 48.1406 30.375 48.1406
Q22.9062 48.1406 18.7812 42.9844
Q14.6562 37.8438 14.6562 27.25
Q14.6562 17 18.7969 11.6875
Q22.9531 6.39062 30.375 6.39062
Q37.7031 6.39062 41.875 11.6406
Q46.0469 16.8906 46.0469 27.25" id="Verdana-6f"/>
     </defs>
     <g transform="translate(206.5078125 418.509375)scale(0.12 -0.12)">
      <use xlink:href="#Verdana-4f"/>
      <use x="78.7109375" xlink:href="#Verdana-62"/>
      <use x="141.015625" xlink:href="#Verdana-6a"/>
      <use x="175.439453125" xlink:href="#Verdana-65"/>
      <use x="235.009765625" xlink:href="#Verdana-63"/>
      <use x="287.109375" xlink:href="#Verdana-74"/>
      <use x="326.513671875" xlink:href="#Verdana-69"/>
      <use x="353.955078125" xlink:href="#Verdana-76"/>
      <use x="412.259765625" xlink:href="#Verdana-65"/>
      <use x="471.830078125" xlink:href="#Verdana-20"/>
      <use x="506.986328125" xlink:href="#Verdana-66"/>
      <use x="542.142578125" xlink:href="#Verdana-75"/>
      <use x="605.423828125" xlink:href="#Verdana-6e"/>
      <use x="668.705078125" xlink:href="#Verdana-63"/>
      <use x="720.8046875" xlink:href="#Verdana-74"/>
      <use x="760.208984375" xlink:href="#Verdana-69"/>
      <use x="787.650390625" xlink:href="#Verdana-6f"/>
      <use x="848.34375" xlink:href="#Verdana-6e"/>
      <use x="911.625" xlink:href="#Verdana-20"/>
      <use x="946.78125" xlink:href="#Verdana-65"/>
      <use x="1006.3515625" xlink:href="#Verdana-78"/>
      <use x="1064.40625" xlink:href="#Verdana-65"/>
      <use x="1123.9765625" xlink:href="#Verdana-63"/>
      <use x="1176.076171875" xlink:href="#Verdana-74"/>
      <use x="1215.48046875" xlink:href="#Verdana-75"/>
      <use x="1278.76171875" xlink:href="#Verdana-69"/>
      <use x="1306.203125" xlink:href="#Verdana-6f"/>
      <use x="1366.896484375" xlink:href="#Verdana-6e"/>
      <use x="1430.177734375" xlink:href="#Verdana-73"/>
     </g>
    </g>
   </g>
   <g id="matplotlib.axis_2">
    <g id="ytick_1">
     <g id="line2d_18">
      <defs>
       <path d="
M0 0
L4 0" id="md7965d1ba0" style="stroke:#000000;stroke-width:0.5;"/>
      </defs>
      <g>
       <use style="stroke:#000000;stroke-width:0.5;" x="72.0" xlink:href="#md7965d1ba0" y="388.8"/>
      </g>
     </g>
     <g id="line2d_19">
      <defs>
       <path d="
M0 0
L-4 0" id="md9a1c1a7cd" style="stroke:#000000;stroke-width:0.5;"/>
      </defs>
      <g>
       <use style="stroke:#000000;stroke-width:0.5;" x="518.4" xlink:href="#md9a1c1a7cd" y="388.8"/>
      </g>
     </g>
     <g id="text_8">
      <!-- 0.0 -->
      <defs>
       <path d="
M24.0312 0
L12.3594 0
L12.3594 13.9219
L24.0312 13.9219
z
" id="Verdana-2e"/>
      </defs>
      <g transform="translate(49.97 392.1515625)scale(0.12 -0.12)">
       <use xlink:href="#Verdana-30"/>
       <use x="63.57421875" xlink:href="#Verdana-2e"/>
       <use x="99.951171875" xlink:href="#Verdana-30"/>
      </g>
     </g>
    </g>
    <g id="ytick_2">
     <g id="line2d_20">
      <g>
       <use style="stroke:#000000;stroke-width:0.5;" x="72.0" xlink:href="#md7965d1ba0" y="319.68"/>
      </g>
     </g>
     <g id="line2d_21">
      <g>
       <use style="stroke:#000000;stroke-width:0.5;" x="518.4" xlink:href="#md9a1c1a7cd" y="319.68"/>
      </g>
     </g>
     <g id="text_9">
      <!-- 0.2 -->
      <g transform="translate(49.95875 323.0315625)scale(0.12 -0.12)">
       <use xlink:href="#Verdana-30"/>
       <use x="63.57421875" xlink:href="#Verdana-2e"/>
       <use x="99.951171875" xlink:href="#Verdana-32"/>
      </g>
     </g>
    </g>
    <g id="ytick_3">
     <g id="line2d_22">
      <g>
       <use style="stroke:#000000;stroke-width:0.5;" x="72.0" xlink:href="#md7965d1ba0" y="250.56"/>
      </g>
     </g>
     <g id="line2d_23">
      <g>
       <use style="stroke:#000000;stroke-width:0.5;" x="518.4" xlink:href="#md9a1c1a7cd" y="250.56"/>
      </g>
     </g>
     <g id="text_10">
      <!-- 0.4 -->
      <g transform="translate(49.76 253.9115625)scale(0.12 -0.12)">
       <use xlink:href="#Verdana-30"/>
       <use x="63.57421875" xlink:href="#Verdana-2e"/>
       <use x="99.951171875" xlink:href="#Verdana-34"/>
      </g>
     </g>
    </g>
    <g id="ytick_4">
     <g id="line2d_24">
      <g>
       <use style="stroke:#000000;stroke-width:0.5;" x="72.0" xlink:href="#md7965d1ba0" y="181.44"/>
      </g>
     </g>
     <g id="line2d_25">
      <g>
       <use style="stroke:#000000;stroke-width:0.5;" x="518.4" xlink:href="#md9a1c1a7cd" y="181.44"/>
      </g>
     </g>
     <g id="text_11">
      <!-- 0.6 -->
      <defs>
       <path d="
M58.1562 23.5781
Q58.1562 12.5 50.8594 5.48438
Q43.5625 -1.51562 32.9531 -1.51562
Q27.5938 -1.51562 23.1875 0.140625
Q18.7969 1.8125 15.4375 5.07812
Q11.2344 9.125 8.95312 15.8125
Q6.6875 22.5156 6.6875 31.9375
Q6.6875 41.6094 8.76562 49.0781
Q10.8438 56.5469 15.375 62.3594
Q19.6719 67.875 26.4531 70.9688
Q33.25 74.0781 42.2812 74.0781
Q45.1719 74.0781 47.125 73.8281
Q49.0781 73.5781 51.0781 72.9531
L51.0781 63.625
L50.5938 63.625
Q49.2188 64.3594 46.4531 65.0156
Q43.7031 65.6719 40.8281 65.6719
Q30.3281 65.6719 24.0781 59.1094
Q17.8281 52.5469 16.7969 41.3594
Q20.9062 43.8438 24.875 45.1406
Q28.8594 46.4375 34.0781 46.4375
Q38.7188 46.4375 42.25 45.5781
Q45.7969 44.7344 49.5156 42.1406
Q53.8125 39.1562 55.9844 34.6094
Q58.1562 30.0781 58.1562 23.5781
M48.25 23.1875
Q48.25 27.7344 46.9062 30.7031
Q45.5625 33.6875 42.4844 35.8906
Q40.2344 37.4531 37.5 37.9375
Q34.7656 38.4219 31.7812 38.4219
Q27.6406 38.4219 24.0781 37.4375
Q20.5156 36.4688 16.75 34.4219
Q16.6562 33.3438 16.5938 32.3438
Q16.5469 31.3438 16.5469 29.8281
Q16.5469 22.125 18.1406 17.6562
Q19.7344 13.1875 22.5156 10.5938
Q24.75 8.45312 27.3594 7.45312
Q29.9844 6.45312 33.0625 6.45312
Q40.1406 6.45312 44.1875 10.7656
Q48.25 15.0938 48.25 23.1875" id="Verdana-36"/>
      </defs>
      <g transform="translate(49.829375 184.7915625)scale(0.12 -0.12)">
       <use xlink:href="#Verdana-30"/>
       <use x="63.57421875" xlink:href="#Verdana-2e"/>
       <use x="99.951171875" xlink:href="#Verdana-36"/>
      </g>
     </g>
    </g>
    <g id="ytick_5">
     <g id="line2d_26">
      <g>
       <use style="stroke:#000000;stroke-width:0.5;" x="72.0" xlink:href="#md7965d1ba0" y="112.32"/>
      </g>
     </g>
     <g id="line2d_27">
      <g>
       <use style="stroke:#000000;stroke-width:0.5;" x="518.4" xlink:href="#md9a1c1a7cd" y="112.32"/>
      </g>
     </g>
     <g id="text_12">
      <!-- 0.8 -->
      <defs>
       <path d="
M57.625 20.2656
Q57.625 10.8438 50.2656 4.59375
Q42.9219 -1.65625 31.7812 -1.65625
Q19.9688 -1.65625 12.9531 4.4375
Q5.95312 10.5469 5.95312 20.0625
Q5.95312 26.125 9.46875 31.0312
Q12.9844 35.9375 19.3906 38.8125
L19.3906 39.1094
Q13.5312 42.2344 10.7188 45.9375
Q7.90625 49.6562 7.90625 55.2188
Q7.90625 63.4219 14.6406 68.8906
Q21.3906 74.3594 31.7812 74.3594
Q42.6719 74.3594 49.1719 69.1406
Q55.6719 63.9219 55.6719 55.8594
Q55.6719 50.9219 52.5938 46.1562
Q49.5156 41.4062 43.5625 38.7188
L43.5625 38.4219
Q50.3906 35.5 54 31.2031
Q57.625 26.9062 57.625 20.2656
M46.0469 55.7656
Q46.0469 60.9844 42.0156 64.0781
Q37.9844 67.1875 31.7344 67.1875
Q25.5938 67.1875 21.6562 64.25
Q17.7188 61.3281 17.7188 56.3438
Q17.7188 52.8281 19.7031 50.2656
Q21.6875 47.7031 25.6875 45.7031
Q27.4844 44.8281 30.875 43.4062
Q34.2812 42 37.5 41.0625
Q42.3281 44.2812 44.1875 47.75
Q46.0469 51.2188 46.0469 55.7656
M47.5625 19.3438
Q47.5625 23.8281 45.5781 26.5312
Q43.6094 29.25 37.8438 31.9844
Q35.5469 33.0625 32.8125 33.9844
Q30.0781 34.9062 25.5312 36.5781
Q21.1406 34.1875 18.4844 30.0781
Q15.8281 25.9844 15.8281 20.7969
Q15.8281 14.2031 20.3594 9.90625
Q24.9062 5.60938 31.8906 5.60938
Q39.0156 5.60938 43.2812 9.26562
Q47.5625 12.9375 47.5625 19.3438" id="Verdana-38"/>
      </defs>
      <g transform="translate(49.893125 115.6715625)scale(0.12 -0.12)">
       <use xlink:href="#Verdana-30"/>
       <use x="63.57421875" xlink:href="#Verdana-2e"/>
       <use x="99.951171875" xlink:href="#Verdana-38"/>
      </g>
     </g>
    </g>
    <g id="ytick_6">
     <g id="line2d_28">
      <g>
       <use style="stroke:#000000;stroke-width:0.5;" x="72.0" xlink:href="#md7965d1ba0" y="43.2"/>
      </g>
     </g>
     <g id="line2d_29">
      <g>
       <use style="stroke:#000000;stroke-width:0.5;" x="518.4" xlink:href="#md9a1c1a7cd" y="43.2"/>
      </g>
     </g>
     <g id="text_13">
      <!-- 1.0 -->
      <g transform="translate(50.796875 46.5515625)scale(0.12 -0.12)">
       <use xlink:href="#Verdana-31"/>
       <use x="63.57421875" xlink:href="#Verdana-2e"/>
       <use x="99.951171875" xlink:href="#Verdana-30"/>
      </g>
     </g>
    </g>
    <g id="text_14">
     <!-- Data Profile T-0.0000100 -->
     <defs>
      <path d="
M18.3125 0
L9.125 0
L9.125 75.9844
L18.3125 75.9844
z
" id="Verdana-6c"/>
      <path d="
M43.0625 44.5312
L42.5781 44.5312
Q40.5312 45.0156 38.5938 45.2344
Q36.6719 45.4531 34.0312 45.4531
Q29.7812 45.4531 25.8281 43.5781
Q21.875 41.7031 18.2188 38.7188
L18.2188 0
L9.03125 0
L9.03125 54.5469
L18.2188 54.5469
L18.2188 46.4844
Q23.6875 50.875 27.8594 52.7031
Q32.0312 54.5469 36.375 54.5469
Q38.7656 54.5469 39.8438 54.4219
Q40.9219 54.2969 43.0625 53.9531
z
" id="Verdana-72"/>
      <path d="
M71.1875 36.2812
Q71.1875 26.375 66.8594 18.3125
Q62.5469 10.25 55.375 5.8125
Q50.3906 2.73438 44.2656 1.35938
Q38.1406 0 28.125 0
L9.76562 0
L9.76562 72.7031
L27.9375 72.7031
Q38.5781 72.7031 44.8438 71.1562
Q51.125 69.625 55.4688 66.9375
Q62.8906 62.3125 67.0312 54.5938
Q71.1875 46.875 71.1875 36.2812
M61.0781 36.4219
Q61.0781 44.9688 58.0938 50.8281
Q55.125 56.6875 49.2188 60.0625
Q44.9219 62.5 40.0781 63.4531
Q35.25 64.4062 28.5156 64.4062
L19.4375 64.4062
L19.4375 8.29688
L28.5156 8.29688
Q35.5 8.29688 40.7031 9.32812
Q45.9062 10.3594 50.25 13.1406
Q55.6719 16.6094 58.375 22.2656
Q61.0781 27.9375 61.0781 36.4219" id="Verdana-44"/>
      <path d="
M37.9375 27.3906
L7.46875 27.3906
L7.46875 36.2344
L37.9375 36.2344
z
" id="Verdana-2d"/>
      <path d="
M51.4219 0
L42.2812 0
L42.2812 5.8125
Q41.0625 4.98438 38.9844 3.48438
Q36.9219 2 34.9688 1.125
Q32.6719 0 29.6875 -0.75
Q26.7031 -1.51562 22.7031 -1.51562
Q15.3281 -1.51562 10.2031 3.35938
Q5.07812 8.25 5.07812 15.8281
Q5.07812 22.0156 7.73438 25.8438
Q10.4062 29.6875 15.3281 31.8906
Q20.3125 34.0781 27.2969 34.8594
Q34.2812 35.6406 42.2812 36.0312
L42.2812 37.4531
Q42.2812 40.5781 41.1875 42.625
Q40.0938 44.6719 38.0312 45.8438
Q36.0781 46.9688 33.3438 47.3594
Q30.6094 47.75 27.6406 47.75
Q24.0312 47.75 19.5781 46.7969
Q15.1406 45.8438 10.4062 44.0469
L9.90625 44.0469
L9.90625 53.375
Q12.5938 54.1094 17.6719 54.9844
Q22.75 55.8594 27.6875 55.8594
Q33.4531 55.8594 37.7188 54.9062
Q42 53.9531 45.125 51.6562
Q48.1875 49.4219 49.7969 45.8438
Q51.4219 42.2812 51.4219 37.0156
z

M42.2812 13.4219
L42.2812 28.6094
Q38.0938 28.375 32.3906 27.875
Q26.7031 27.3906 23.3906 26.4688
Q19.4375 25.3438 16.9844 22.9688
Q14.5469 20.6094 14.5469 16.4531
Q14.5469 11.7656 17.375 9.39062
Q20.2188 7.03125 26.0312 7.03125
Q30.8594 7.03125 34.8594 8.90625
Q38.875 10.7969 42.2812 13.4219" id="Verdana-61"/>
      <path d="
M57.3281 50.7344
Q57.3281 45.9062 55.6406 41.7656
Q53.9531 37.6406 50.9219 34.625
Q47.1719 30.8594 42.0469 28.9688
Q36.9219 27.0938 29.1094 27.0938
L19.4375 27.0938
L19.4375 0
L9.76562 0
L9.76562 72.7031
L29.5 72.7031
Q36.0312 72.7031 40.5781 71.6094
Q45.125 70.5156 48.6406 68.1719
Q52.7812 65.375 55.0469 61.2188
Q57.3281 57.0781 57.3281 50.7344
M47.2656 50.4844
Q47.2656 54.25 45.9375 57.0312
Q44.625 59.8125 41.9375 61.5781
Q39.5938 63.0938 36.5938 63.75
Q33.5938 64.4062 29 64.4062
L19.4375 64.4062
L19.4375 35.3594
L27.5938 35.3594
Q33.4531 35.3594 37.1094 36.4062
Q40.7656 37.4531 43.0625 39.75
Q45.3594 42.0938 46.3125 44.6719
Q47.2656 47.2656 47.2656 50.4844" id="Verdana-50"/>
      <path d="
M61.625 64.1094
L35.6406 64.1094
L35.6406 0
L25.9844 0
L25.9844 64.1094
L0 64.1094
L0 72.7031
L61.625 72.7031
z
" id="Verdana-54"/>
     </defs>
     <g transform="translate(42.345 291.493125)rotate(-90.0)scale(0.12 -0.12)">
      <use xlink:href="#Verdana-44"/>
      <use x="77.05078125" xlink:href="#Verdana-61"/>
      <use x="137.109375" xlink:href="#Verdana-74"/>
      <use x="176.513671875" xlink:href="#Verdana-61"/>
      <use x="236.572265625" xlink:href="#Verdana-20"/>
      <use x="271.728515625" xlink:href="#Verdana-50"/>
      <use x="332.03125" xlink:href="#Verdana-72"/>
      <use x="374.70703125" xlink:href="#Verdana-6f"/>
      <use x="435.400390625" xlink:href="#Verdana-66"/>
      <use x="470.556640625" xlink:href="#Verdana-69"/>
      <use x="497.998046875" xlink:href="#Verdana-6c"/>
      <use x="525.439453125" xlink:href="#Verdana-65"/>
      <use x="585.009765625" xlink:href="#Verdana-20"/>
      <use x="620.166015625" xlink:href="#Verdana-54"/>
      <use x="674.412109375" xlink:href="#Verdana-2d"/>
      <use x="719.822265625" xlink:href="#Verdana-30"/>
      <use x="783.396484375" xlink:href="#Verdana-2e"/>
      <use x="819.7734375" xlink:href="#Verdana-30"/>
      <use x="883.34765625" xlink:href="#Verdana-30"/>
      <use x="946.921875" xlink:href="#Verdana-30"/>
      <use x="1010.49609375" xlink:href="#Verdana-30"/>
      <use x="1074.0703125" xlink:href="#Verdana-31"/>
      <use x="1137.64453125" xlink:href="#Verdana-30"/>
      <use x="1201.21875" xlink:href="#Verdana-30"/>
     </g>
    </g>
   </g>
   <g id="patch_3">
    <path d="
M72 388.8
L72 43.2" style="fill:none;stroke:#000000;"/>
   </g>
   <g id="patch_4">
    <path d="
M518.4 388.8
L518.4 43.2" style="fill:none;stroke:#000000;"/>
   </g>
   <g id="patch_5">
    <path d="
M72 388.8
L518.4 388.8" style="fill:none;stroke:#000000;"/>
   </g>
   <g id="patch_6">
    <path d="
M72 43.2
L518.4 43.2" style="fill:none;stroke:#000000;"/>
   </g>
   <g id="text_15">
    <!-- Qing Data Profile T-0.0000100 -->
    <defs>
     <path d="
M53.2656 6.20312
Q53.2656 -7.67188 46.9688 -14.1562
Q40.6719 -20.6562 27.5938 -20.6562
Q23.25 -20.6562 19.1094 -20.0469
Q14.9844 -19.4375 10.9844 -18.3125
L10.9844 -8.9375
L11.4688 -8.9375
Q13.7188 -9.8125 18.5938 -11.1094
Q23.4844 -12.4062 28.375 -12.4062
Q33.0625 -12.4062 36.125 -11.2812
Q39.2031 -10.1562 40.9219 -8.15625
Q42.625 -6.25 43.3594 -3.5625
Q44.0938 -0.875 44.0938 2.4375
L44.0938 7.42188
Q39.9375 4.10938 36.1562 2.46875
Q32.375 0.828125 26.5156 0.828125
Q16.75 0.828125 11.0156 7.875
Q5.28125 14.9375 5.28125 27.7812
Q5.28125 34.8125 7.25 39.9062
Q9.23438 45.0156 12.6406 48.7344
Q15.8281 52.2031 20.3594 54.125
Q24.9062 56.0625 29.3906 56.0625
Q34.125 56.0625 37.3281 55.1094
Q40.5312 54.1562 44.0938 52.2031
L44.6719 54.5469
L53.2656 54.5469
z

M44.0938 14.9844
L44.0938 44.7344
Q40.4375 46.3906 37.2812 47.0938
Q34.125 47.7969 31 47.7969
Q23.4375 47.7969 19.0938 42.7188
Q14.75 37.6406 14.75 27.9844
Q14.75 18.7969 17.9688 14.0625
Q21.1875 9.32812 28.6562 9.32812
Q32.6719 9.32812 36.6875 10.8594
Q40.7188 12.4062 44.0938 14.9844" id="Verdana-67"/>
     <path d="
M74.6094 -17.8281
Q71.6875 -18.5625 68.8281 -18.875
Q65.9688 -19.1875 62.9844 -19.1875
Q54.5 -19.1875 49.3438 -14.5156
Q44.1875 -9.85938 43.75 -1.17188
Q42.5781 -1.375 41.4688 -1.4375
Q40.375 -1.51562 39.3594 -1.51562
Q31.6875 -1.51562 25.4062 1.01562
Q19.1406 3.5625 14.75 8.40625
Q10.3594 13.2344 7.98438 20.2656
Q5.60938 27.2969 5.60938 36.3281
Q5.60938 45.2188 7.95312 52.2656
Q10.2969 59.3281 14.7969 64.3594
Q19.0938 69.1406 25.4688 71.6719
Q31.8438 74.2188 39.3594 74.2188
Q47.1719 74.2188 53.3906 71.6562
Q59.625 69.0938 63.9688 64.3594
Q68.4062 59.4688 70.7656 52.3906
Q73.1406 45.3125 73.1406 36.3281
Q73.1406 23 67.6875 13.8594
Q62.25 4.73438 53.0781 1.07812
Q53.2656 -4.5 55.7031 -7.5625
Q58.1562 -10.6406 64.5938 -10.6406
Q66.6094 -10.6406 69.3594 -10.0312
Q72.125 -9.42188 73.2969 -8.9375
L74.6094 -8.9375
z

M63.0938 36.3281
Q63.0938 50.4844 56.7344 58.1719
Q50.3906 65.875 39.4062 65.875
Q28.3281 65.875 22 58.1719
Q15.6719 50.4844 15.6719 36.3281
Q15.6719 22.0156 22.1094 14.4219
Q28.5625 6.84375 39.4062 6.84375
Q50.25 6.84375 56.6719 14.4219
Q63.0938 22.0156 63.0938 36.3281" id="Verdana-51"/>
    </defs>
    <g transform="translate(185.391 38.2)scale(0.144 -0.144)">
     <use xlink:href="#Verdana-51"/>
     <use x="78.7109375" xlink:href="#Verdana-69"/>
     <use x="106.15234375" xlink:href="#Verdana-6e"/>
     <use x="169.43359375" xlink:href="#Verdana-67"/>
     <use x="231.73828125" xlink:href="#Verdana-20"/>
     <use x="266.89453125" xlink:href="#Verdana-44"/>
     <use x="343.9453125" xlink:href="#Verdana-61"/>
     <use x="404.00390625" xlink:href="#Verdana-74"/>
     <use x="443.408203125" xlink:href="#Verdana-61"/>
     <use x="503.466796875" xlink:href="#Verdana-20"/>
     <use x="538.623046875" xlink:href="#Verdana-50"/>
     <use x="598.92578125" xlink:href="#Verdana-72"/>
     <use x="641.6015625" xlink:href="#Verdana-6f"/>
     <use x="702.294921875" xlink:href="#Verdana-66"/>
     <use x="737.451171875" xlink:href="#Verdana-69"/>
     <use x="764.892578125" xlink:href="#Verdana-6c"/>
     <use x="792.333984375" xlink:href="#Verdana-65"/>
     <use x="851.904296875" xlink:href="#Verdana-20"/>
     <use x="887.060546875" xlink:href="#Verdana-54"/>
     <use x="941.306640625" xlink:href="#Verdana-2d"/>
     <use x="986.716796875" xlink:href="#Verdana-30"/>
     <use x="1050.291015625" xlink:href="#Verdana-2e"/>
     <use x="1086.66796875" xlink:href="#Verdana-30"/>
     <use x="1150.2421875" xlink:href="#Verdana-30"/>
     <use x="1213.81640625" xlink:href="#Verdana-30"/>
     <use x="1277.390625" xlink:href="#Verdana-30"/>
     <use x="1340.96484375" xlink:href="#Verdana-31"/>
     <use x="1404.5390625" xlink:href="#Verdana-30"/>
     <use x="1468.11328125" xlink:href="#Verdana-30"/>
    </g>
   </g>
   <g id="legend_1">
    <g id="patch_7">
     <path d="
M243.19 270.759
L347.21 270.759
L347.21 161.241
L243.19 161.241
L243.19 270.759
z
" style="fill:#ffffff;stroke:#000000;"/>
    </g>
    <g id="line2d_30">
     <path d="
M253.27 172.902
L273.43 172.902" style="fill:none;stroke:#0000ff;stroke-dasharray:6.000000,2.000000;stroke-dashoffset:0.0;"/>
    </g>
    <g id="line2d_31"/>
    <g id="text_16">
     <!-- AMPGO -->
     <defs>
      <path d="
M67.0938 0
L56.7812 0
L49.6562 20.2656
L18.2188 20.2656
L11.0781 0
L1.26562 0
L27.7344 72.7031
L40.625 72.7031
z

M46.6875 28.5625
L33.9375 64.2656
L21.1406 28.5625
z
" id="Verdana-41"/>
      <path d="
M70.4062 5.375
Q64.4531 2.64062 57.3906 0.609375
Q50.3438 -1.42188 43.75 -1.42188
Q35.25 -1.42188 28.1719 0.921875
Q21.0938 3.26562 16.1094 7.95312
Q11.0781 12.7031 8.34375 19.7969
Q5.60938 26.9062 5.60938 36.4219
Q5.60938 53.8594 15.7969 63.9375
Q25.9844 74.0312 43.75 74.0312
Q49.9531 74.0312 56.4219 72.5312
Q62.8906 71.0469 70.3594 67.4844
L70.3594 56
L69.4844 56
Q67.9688 57.1719 65.0781 59.0781
Q62.2031 60.9844 59.4219 62.25
Q56.0625 63.7656 51.7812 64.7656
Q47.5156 65.7656 42.0938 65.7656
Q29.8906 65.7656 22.7812 57.9219
Q15.6719 50.0938 15.6719 36.7188
Q15.6719 22.6094 23.0938 14.7656
Q30.5156 6.9375 43.3125 6.9375
Q48 6.9375 52.6562 7.85938
Q57.3281 8.79688 60.8438 10.25
L60.8438 28.0781
L41.3594 28.0781
L41.3594 36.5781
L70.4062 36.5781
z
" id="Verdana-47"/>
      <path d="
M74.5156 0
L64.8438 0
L64.8438 62.6406
L44.625 20.0156
L38.875 20.0156
L18.7969 62.6406
L18.7969 0
L9.76562 0
L9.76562 72.7031
L22.9531 72.7031
L42.3281 32.2344
L61.0781 72.7031
L74.5156 72.7031
z
" id="Verdana-4d"/>
     </defs>
     <g transform="translate(289.270125 177.942375)scale(0.144 -0.144)">
      <use xlink:href="#Verdana-41"/>
      <use x="68.359375" xlink:href="#Verdana-4d"/>
      <use x="152.63671875" xlink:href="#Verdana-50"/>
      <use x="212.939453125" xlink:href="#Verdana-47"/>
      <use x="290.478515625" xlink:href="#Verdana-4f"/>
     </g>
    </g>
    <g id="line2d_32">
     <path d="
M253.27 193.942
L273.43 193.942" style="fill:none;stroke:#008000;stroke-dasharray:1.000000,1.000000;stroke-dashoffset:0.0;"/>
    </g>
    <g id="line2d_33"/>
    <g id="text_17">
     <!-- Anneal -->
     <g transform="translate(289.270125 198.982125)scale(0.144 -0.144)">
      <use xlink:href="#Verdana-41"/>
      <use x="68.359375" xlink:href="#Verdana-6e"/>
      <use x="131.640625" xlink:href="#Verdana-6e"/>
      <use x="194.921875" xlink:href="#Verdana-65"/>
      <use x="254.4921875" xlink:href="#Verdana-61"/>
      <use x="314.55078125" xlink:href="#Verdana-6c"/>
     </g>
    </g>
    <g id="line2d_34">
     <path d="
M253.27 214.982
L273.43 214.982" style="fill:none;stroke:#ff0000;stroke-dasharray:3.000000,6.000000;stroke-dashoffset:0.0;"/>
    </g>
    <g id="line2d_35"/>
    <g id="text_18">
     <!-- BSA -->
     <defs>
      <path d="
M62.5938 20.75
Q62.5938 16.5 60.6094 12.3438
Q58.6406 8.20312 55.0781 5.32812
Q51.1719 2.20312 45.9688 0.4375
Q40.7656 -1.3125 33.4531 -1.3125
Q25.5938 -1.3125 19.3125 0.140625
Q13.0312 1.60938 6.54688 4.5
L6.54688 16.6094
L7.23438 16.6094
Q12.75 12.0156 19.9688 9.51562
Q27.2031 7.03125 33.5469 7.03125
Q42.5312 7.03125 47.5312 10.3906
Q52.5469 13.7656 52.5469 19.3906
Q52.5469 24.2188 50.1719 26.5156
Q47.7969 28.8125 42.9688 30.0781
Q39.3125 31.0625 35.0312 31.6875
Q30.7656 32.3281 25.9844 33.2969
Q16.3125 35.3594 11.6406 40.3125
Q6.98438 45.2656 6.98438 53.2188
Q6.98438 62.3594 14.6875 68.1875
Q22.4062 74.0312 34.2812 74.0312
Q41.9375 74.0312 48.3281 72.5625
Q54.7344 71.0938 59.6719 68.9531
L59.6719 57.5156
L58.9844 57.5156
Q54.8281 61.0312 48.0625 63.3438
Q41.3125 65.6719 34.2344 65.6719
Q26.4688 65.6719 21.75 62.4531
Q17.0469 59.2344 17.0469 54.1562
Q17.0469 49.6094 19.3906 47.0156
Q21.7344 44.4375 27.6406 43.0625
Q30.7656 42.3906 36.5156 41.4062
Q42.2812 40.4375 46.2969 39.4062
Q54.3906 37.25 58.4844 32.9062
Q62.5938 28.5625 62.5938 20.75" id="Verdana-53"/>
      <path d="
M64.5938 22.3594
Q64.5938 16.9375 62.5469 12.7812
Q60.5 8.64062 57.0312 5.95312
Q52.9375 2.73438 48.0156 1.35938
Q43.1094 0 35.5469 0
L9.76562 0
L9.76562 72.7031
L31.2969 72.7031
Q39.2656 72.7031 43.2188 72.1094
Q47.1719 71.5312 50.7812 69.6719
Q54.7812 67.5781 56.5938 64.2812
Q58.4062 60.9844 58.4062 56.3906
Q58.4062 51.2188 55.7656 47.5781
Q53.125 43.9531 48.7344 41.75
L48.7344 41.3594
Q56.1094 39.8438 60.3438 34.8906
Q64.5938 29.9375 64.5938 22.3594
M48.3438 55.125
Q48.3438 57.7656 47.4531 59.5625
Q46.5781 61.375 44.625 62.5
Q42.3281 63.8125 39.0625 64.125
Q35.7969 64.4531 30.9531 64.4531
L19.4375 64.4531
L19.4375 43.4531
L31.9375 43.4531
Q36.4688 43.4531 39.1562 43.9219
Q41.8438 44.3906 44.1406 45.8438
Q46.4375 47.3125 47.3906 49.625
Q48.3438 51.9531 48.3438 55.125
M54.5469 21.9688
Q54.5469 26.375 53.2188 28.9531
Q51.9062 31.5469 48.4375 33.3438
Q46.0938 34.5781 42.75 34.9375
Q39.4062 35.2969 34.625 35.2969
L19.4375 35.2969
L19.4375 8.25
L32.2344 8.25
Q38.5781 8.25 42.625 8.90625
Q46.6875 9.57812 49.2656 11.3281
Q52 13.2344 53.2656 15.6719
Q54.5469 18.1094 54.5469 21.9688" id="Verdana-42"/>
     </defs>
     <g transform="translate(289.270125 220.021875)scale(0.144 -0.144)">
      <use xlink:href="#Verdana-42"/>
      <use x="68.5546875" xlink:href="#Verdana-53"/>
      <use x="135.9140625" xlink:href="#Verdana-41"/>
     </g>
    </g>
    <g id="line2d_36">
     <path d="
M253.27 236.022
L273.43 236.022" style="fill:none;stroke:#00bfbf;stroke-dasharray:5.000000,1.000000,2.000000,1.000000,5.000000,1.000000;stroke-dashoffset:0.0;"/>
    </g>
    <g id="line2d_37"/>
    <g id="text_19">
     <!-- Cuckoo -->
     <defs>
      <path d="
M58.5469 0
L46.4375 0
L24.5625 23.875
L18.6094 18.2188
L18.6094 0
L9.42188 0
L9.42188 75.9844
L18.6094 75.9844
L18.6094 27.25
L45.125 54.5469
L56.6875 54.5469
L31.3438 29.3438
z
" id="Verdana-6b"/>
      <path d="
M65.9219 5.28125
Q63.2344 4.10938 61.0625 3.07812
Q58.8906 2.04688 55.375 0.921875
Q52.3906 0 48.8906 -0.65625
Q45.4062 -1.3125 41.2188 -1.3125
Q33.2969 -1.3125 26.8281 0.90625
Q20.3594 3.125 15.5781 7.85938
Q10.8906 12.5 8.25 19.6562
Q5.60938 26.8125 5.60938 36.2812
Q5.60938 45.2656 8.14062 52.3438
Q10.6875 59.4219 15.4844 64.3125
Q20.125 69.0469 26.6875 71.5312
Q33.25 74.0312 41.2656 74.0312
Q47.125 74.0312 52.9531 72.6094
Q58.7969 71.1875 65.9219 67.625
L65.9219 56.1562
L65.1875 56.1562
Q59.1875 61.1875 53.2656 63.4688
Q47.3594 65.7656 40.625 65.7656
Q35.1094 65.7656 30.6875 63.9844
Q26.2656 62.2031 22.7969 58.4531
Q19.4375 54.7812 17.5469 49.1875
Q15.6719 43.6094 15.6719 36.2812
Q15.6719 28.6094 17.75 23.0938
Q19.8281 17.5781 23.0938 14.1094
Q26.5156 10.5 31.0781 8.76562
Q35.6406 7.03125 40.7188 7.03125
Q47.7031 7.03125 53.7969 9.42188
Q59.9062 11.8125 65.2344 16.6094
L65.9219 16.6094
z
" id="Verdana-43"/>
     </defs>
     <g transform="translate(289.270125 241.061625)scale(0.144 -0.144)">
      <use xlink:href="#Verdana-43"/>
      <use x="69.82421875" xlink:href="#Verdana-75"/>
      <use x="133.10546875" xlink:href="#Verdana-63"/>
      <use x="185.205078125" xlink:href="#Verdana-6b"/>
      <use x="243.384765625" xlink:href="#Verdana-6f"/>
      <use x="304.078125" xlink:href="#Verdana-6f"/>
     </g>
    </g>
    <g id="line2d_38">
     <path d="
M253.27 257.061
L273.43 257.061" style="fill:none;stroke:#bf00bf;stroke-linecap:square;"/>
    </g>
    <g id="line2d_39"/>
    <g id="text_20">
     <!-- qABC -->
     <defs>
      <path d="
M53.2656 -20.125
L44.0938 -20.125
L44.0938 6.15625
Q39.8438 2.48438 35.6406 0.703125
Q31.4531 -1.07812 26.5625 -1.07812
Q16.8438 -1.07812 11.0625 6.42188
Q5.28125 13.9219 5.28125 27.0938
Q5.28125 34.125 7.29688 39.5156
Q9.32812 44.9219 12.6406 48.5781
Q15.875 52.1562 20.2188 54.1094
Q24.5625 56.0625 29.3906 56.0625
Q33.7969 56.0625 37.1875 55.0781
Q40.5781 54.1094 44.0938 52.2031
L44.6719 54.5469
L53.2656 54.5469
z

M44.0938 13.875
L44.0938 44.7344
Q40.2812 46.4375 37.3438 47.1094
Q34.4219 47.7969 31 47.7969
Q23.0469 47.7969 18.8906 42.4062
Q14.75 37.0156 14.75 27.5469
Q14.75 17.9688 18.0938 12.8125
Q21.4375 7.67188 28.6094 7.67188
Q32.625 7.67188 36.625 9.40625
Q40.625 11.1406 44.0938 13.875" id="Verdana-71"/>
     </defs>
     <g transform="translate(289.270125 262.101375)scale(0.144 -0.144)">
      <use xlink:href="#Verdana-71"/>
      <use x="62.3046875" xlink:href="#Verdana-41"/>
      <use x="130.6640625" xlink:href="#Verdana-42"/>
      <use x="199.21875" xlink:href="#Verdana-43"/>
     </g>
    </g>
   </g>
  </g>
 </g>
 <defs>
  <clipPath id="p7ff5b81e1d">
   <rect height="345.6" width="446.4" x="72.0" y="43.2"/>
  </clipPath>
 </defs>
</svg>
