<?xml version="1.0" encoding="utf-8" standalone="no"?>
<!DOCTYPE svg PUBLIC "-//W3C//DTD SVG 1.1//EN"
  "http://www.w3.org/Graphics/SVG/1.1/DTD/svg11.dtd">
<!-- Created with matplotlib (http://matplotlib.org/) -->
<svg height="432pt" version="1.1" viewBox="0 0 576 432" width="576pt" xmlns="http://www.w3.org/2000/svg" xmlns:xlink="http://www.w3.org/1999/xlink">
 <defs>
  <style type="text/css">
*{stroke-linecap:butt;stroke-linejoin:round;}
  </style>
 </defs>
 <g id="figure_1">
  <g id="patch_1">
   <path d="
M0 432
L576 432
L576 0
L0 0
z
" style="fill:#ffffff;"/>
  </g>
  <g id="axes_1">
   <g id="patch_2">
    <path d="
M72 388.8
L518.4 388.8
L518.4 43.2
L72 43.2
z
" style="fill:#ffffff;"/>
   </g>
   <g id="line2d_1">
    <path clip-path="url(#p7ff5b81e1d)" d="
M72 388.11
L72.0893 388.11
L72.2678 388.8
L75.2141 388.8
L75.3926 386.041
L76.8211 386.041
L76.9997 385.351
L78.4282 385.351
L78.6067 349.48
L80.0352 349.48
L80.2138 168.057
L81.6422 168.057
L81.8208 70.103
L83.2493 70.103
L83.4278 43.2
L518.311 43.2
L518.311 43.2" style="fill:none;stroke:#0000ff;stroke-dasharray:6.000000,2.000000;stroke-dashoffset:0.0;"/>
   </g>
   <g id="line2d_2">
    <path clip-path="url(#p7ff5b81e1d)" d="
M72 388.8
L73.7856 388.8
L73.9642 388.518
L75.2141 388.518
L75.3926 388.8
L82.535 388.8
L82.7136 388.518
L82.8029 388.518
L82.9814 388.236
L83.4278 388.236
L83.785 387.391
L83.9635 387.391
L84.9456 384.572
L85.1242 384.572
L85.9277 379.498
L86.1955 375.269
L86.6419 370.759
L86.9098 368.786
L86.999 368.504
L87.1776 367.376
L87.2669 367.094
L87.5347 362.302
L87.8918 359.765
L88.4275 353
L88.5168 352.436
L88.7846 348.489
L89.3203 341.724
L89.9453 334.959
L90.1238 331.576
L90.2131 331.012
L90.6595 322.837
L90.9274 317.199
L91.0166 316.636
L91.463 307.051
L92.8022 281.963
L93.1594 270.123
L93.6058 259.975
L94.5878 237.142
L94.6771 235.732
L95.1235 221.92
L96.3734 192.039
L97.0877 175.408
L97.177 174.844
L98.3376 154.266
L98.4269 153.702
L99.2304 138.198
L101.73 107.471
L101.82 107.471
L102.087 104.089
L102.98 93.6587
L103.159 92.2493
L103.427 88.8666
L103.784 86.6114
L104.052 84.0744
L104.409 81.5374
L104.855 79.2822
L104.944 79.0003
L105.48 74.7719
L106.194 70.8254
L106.373 69.9798
L106.551 69.1341
L106.641 69.1341
L107.087 67.7246
L107.444 65.1876
L107.533 65.1876
L107.801 64.06
L107.98 64.06
L108.605 61.8049
L108.783 61.2411
L109.498 58.7041
L109.765 57.5765
L110.123 57.5765
L110.301 57.2946
L110.658 57.2946
L111.105 56.167
L111.194 56.167
L111.462 55.6033
L111.551 55.6033
L111.908 54.7576
L112.087 54.7576
L112.265 54.4757
L112.444 54.4757
L112.801 53.63
L112.98 53.63
L113.247 53.0662
L113.426 53.0662
L113.783 52.2206
L113.872 52.2206
L114.14 51.6568
L114.587 51.6568
L115.033 50.5292
L115.122 50.5292
L115.747 48.8378
L116.194 48.8378
L116.372 48.2741
L116.461 48.2741
L116.64 47.7103
L116.997 47.7103
L117.176 47.4284
L118.068 47.4284
L118.247 47.1465
L118.336 47.1465
L118.515 46.8646
L118.604 46.8646
L118.783 46.5827
L118.872 46.5827
L119.051 46.3008
L120.39 46.3008
L120.658 45.737
L120.925 45.737
L121.104 45.4551
L121.193 45.4551
L121.372 45.1732
L121.64 45.1732
L121.818 44.8914
L122.354 44.8914
L122.622 44.3276
L123.693 44.3276
L123.872 44.0457
L126.461 44.0457
L126.639 43.7638
L127.175 43.7638
L127.354 43.4819
L130.121 43.4819
L130.3 43.2
L518.311 43.2
L518.311 43.2" style="fill:none;stroke:#008000;stroke-dasharray:1.000000,1.000000;stroke-dashoffset:0.0;"/>
   </g>
   <g id="line2d_3">
    <path clip-path="url(#p7ff5b81e1d)" d="
M72 388.8
L72.0893 388.514
L72.1786 388.514
L72.5357 388.514
L72.7142 388.8
L146.46 388.8
L146.638 388.514
L165.565 388.514
L165.744 388.228
L171.012 388.228
L171.19 387.942
L171.726 387.942
L171.904 387.656
L174.315 387.656
L174.493 387.37
L174.583 387.37
L174.761 387.083
L176.279 387.083
L176.547 386.511
L176.815 386.511
L177.083 385.939
L177.975 385.939
L178.154 385.653
L178.422 385.653
L178.6 385.367
L179.225 385.367
L179.404 385.081
L179.582 385.081
L179.761 384.795
L180.922 384.795
L181.1 384.509
L181.725 384.509
L181.904 384.223
L182.261 384.223
L182.439 383.65
L183.689 383.65
L183.868 383.364
L184.761 383.364
L184.939 383.078
L186.1 383.078
L186.278 382.792
L186.814 382.792
L186.993 382.506
L188.51 382.506
L188.868 381.648
L189.046 381.648
L189.225 381.362
L190.117 381.362
L190.296 381.075
L191.457 381.075
L191.635 380.789
L191.814 380.789
L191.992 380.503
L192.349 380.503
L192.707 379.645
L192.974 379.645
L193.242 379.073
L193.421 379.073
L193.867 377.928
L195.564 377.928
L195.742 377.07
L195.921 377.07
L196.099 376.784
L196.367 376.784
L196.635 376.212
L197.796 376.212
L198.063 375.64
L199.224 375.64
L199.403 375.354
L199.849 375.354
L200.117 374.781
L200.385 374.781
L200.563 374.495
L200.742 374.495
L200.92 374.209
L201.277 374.209
L201.545 373.065
L201.724 373.065
L202.081 372.207
L202.349 372.207
L202.527 371.634
L202.795 371.634
L202.974 371.348
L203.152 371.348
L203.777 369.632
L204.849 369.632
L205.027 369.346
L205.741 369.346
L205.92 369.06
L206.099 369.06
L206.456 368.201
L206.724 368.201
L207.081 367.343
L207.259 367.343
L207.527 366.771
L207.706 366.771
L208.152 365.626
L208.598 365.626
L208.777 365.34
L209.848 365.34
L210.205 364.482
L210.652 364.482
L210.83 364.196
L211.009 364.196
L211.188 363.91
L211.634 363.91
L211.812 363.624
L212.08 363.624
L212.259 363.052
L212.527 363.052
L212.795 362.479
L212.973 362.479
L213.33 361.621
L213.42 361.621
L214.134 359.619
L214.759 359.619
L215.384 357.902
L215.562 357.902
L215.741 357.616
L216.009 357.616
L216.276 357.044
L216.544 357.044
L216.812 355.899
L217.259 355.899
L217.437 355.327
L217.794 355.327
L217.973 354.469
L218.062 354.469
L218.419 353.611
L218.687 353.611
L218.866 353.325
L219.401 353.325
L219.58 352.752
L219.848 352.18
L220.294 352.18
L220.651 351.322
L220.74 351.322
L221.098 350.464
L221.365 350.464
L221.633 349.891
L221.723 349.891
L223.33 345.028
L223.687 345.028
L223.865 344.456
L224.044 343.597
L224.222 343.025
L224.312 343.025
L224.58 341.881
L225.026 340.736
L225.115 340.736
L225.294 340.164
L225.562 340.164
L226.097 338.734
L226.187 338.734
L226.365 338.162
L226.812 338.162
L226.99 337.875
L227.436 337.875
L227.794 337.017
L227.883 337.017
L228.151 335.873
L228.329 335.873
L228.686 335.015
L228.865 335.015
L229.044 334.728
L229.222 334.728
L230.026 331.868
L230.204 330.723
L230.561 330.723
L230.829 330.151
L230.918 330.151
L231.097 329.293
L231.186 329.293
L231.365 329.007
L231.722 329.007
L231.9 328.721
L231.99 328.721
L232.258 328.148
L232.347 328.148
L233.15 325.86
L233.24 325.86
L233.418 325.574
L233.508 325.574
L233.686 324.429
L233.775 324.429
L234.132 323.571
L234.4 323.571
L234.579 321.854
L234.847 321.854
L235.204 320.138
L235.382 320.138
L235.561 319.852
L235.65 319.852
L235.829 319.566
L235.918 319.566
L236.722 317.277
L236.989 317.277
L237.168 316.991
L237.257 316.991
L237.436 316.705
L237.614 316.705
L237.972 315.846
L238.061 315.846
L238.418 313.844
L238.507 313.844
L238.954 312.699
L239.132 312.699
L239.4 312.127
L239.489 312.127
L239.668 311.841
L239.757 311.841
L239.936 310.983
L240.025 310.983
L240.65 309.266
L240.739 309.266
L241.007 308.694
L241.096 308.694
L241.275 308.408
L241.364 308.408
L241.543 307.55
L241.721 306.691
L241.989 306.691
L242.168 305.547
L242.257 305.547
L242.525 304.403
L242.882 303.544
L242.971 303.544
L243.418 302.4
L243.685 302.4
L243.953 300.397
L244.043 300.397
L244.31 299.825
L244.489 299.825
L244.578 299.253
L244.757 297.536
L244.935 296.678
L245.025 296.678
L245.203 296.106
L245.292 296.106
L245.471 295.82
L245.56 295.82
L245.917 294.962
L246.185 294.962
L246.453 294.389
L246.542 294.389
L247.167 292.673
L247.257 292.673
L247.346 292.387
L247.524 291.528
L247.614 291.528
L247.971 290.67
L248.239 290.67
L248.685 288.381
L249.489 286.093
L249.578 286.093
L250.024 284.948
L250.381 284.948
L250.828 282.66
L251.096 281.515
L251.453 279.513
L251.631 279.513
L251.988 278.082
L252.167 277.224
L252.256 277.224
L253.417 273.791
L253.863 273.791
L254.31 269.785
L254.488 269.785
L254.667 269.499
L254.845 269.499
L255.024 269.213
L255.113 269.213
L255.381 268.069
L255.47 268.069
L255.828 266.638
L256.006 265.78
L256.095 265.78
L256.274 265.208
L256.363 265.208
L256.81 264.064
L256.899 264.064
L257.167 262.919
L258.238 259.772
L258.327 259.772
L259.309 256.911
L259.399 256.911
L259.577 255.767
L259.845 254.623
L260.024 254.05
L260.202 254.05
L260.559 253.192
L260.649 253.192
L260.916 252.62
L261.006 252.62
L261.452 250.331
L261.541 250.331
L261.72 249.759
L261.899 249.759
L262.166 249.187
L262.256 249.187
L262.791 247.756
L263.238 247.756
L263.863 246.04
L263.952 246.04
L264.22 245.468
L264.309 245.468
L264.488 245.181
L264.577 245.181
L264.756 244.895
L264.845 244.895
L265.113 243.179
L265.291 243.179
L265.47 242.607
L265.559 242.607
L265.738 242.034
L266.72 239.174
L266.809 239.174
L267.434 237.457
L267.702 237.457
L268.416 235.168
L268.595 234.024
L268.684 234.024
L269.041 232.593
L269.577 229.732
L269.844 229.732
L270.023 229.446
L270.112 229.446
L270.648 228.016
L271.005 228.016
L271.184 227.158
L271.362 227.158
L271.541 226.585
L272.166 224.583
L272.434 222.866
L272.701 222.294
L272.969 222.294
L273.148 221.722
L273.237 221.722
L273.505 220.005
L273.862 218.861
L274.041 218.003
L274.13 218.003
L274.576 216.858
L274.666 216.858
L274.844 216.286
L276.451 211.423
L276.63 211.423
L276.808 211.136
L276.987 211.136
L277.701 209.134
L277.88 209.134
L278.594 207.131
L278.772 207.131
L278.951 205.987
L279.04 205.987
L279.219 205.415
L279.308 205.415
L279.487 204.842
L279.933 204.842
L281.272 200.837
L281.362 200.837
L281.629 200.265
L281.808 200.265
L281.987 199.693
L282.165 199.693
L283.058 197.118
L283.147 197.118
L283.415 196.546
L283.504 196.546
L283.683 195.974
L284.219 194.543
L284.308 194.543
L285.022 192.54
L285.29 192.54
L285.647 191.682
L285.826 191.682
L286.004 190.538
L286.183 190.252
L286.272 190.252
L286.986 186.246
L287.611 184.53
L287.879 184.53
L288.058 183.958
L288.147 183.958
L288.415 182.241
L288.95 180.811
L289.486 180.811
L289.665 180.525
L289.754 180.525
L290.022 179.38
L290.111 179.38
L290.468 177.664
L290.557 177.664
L291.093 175.661
L291.272 175.089
L291.45 174.803
L291.629 174.803
L291.897 173.658
L292.075 173.086
L292.254 173.086
L292.432 172.514
L292.611 172.514
L293.504 169.939
L293.593 169.939
L293.861 169.367
L294.039 169.367
L294.218 168.509
L294.307 168.509
L294.486 167.936
L294.575 167.936
L294.754 166.792
L294.843 166.792
L295.289 165.648
L295.379 165.648
L295.646 164.503
L296.45 162.215
L296.628 162.215
L297.521 159.64
L297.611 159.64
L297.789 158.495
L298.057 158.495
L298.236 156.779
L298.593 155.921
L298.682 155.921
L298.86 155.062
L298.95 155.062
L299.128 153.918
L299.396 153.918
L299.575 153.632
L299.843 153.632
L300.021 153.06
L300.2 153.06
L300.646 151.915
L300.914 151.915
L301.896 149.054
L301.985 149.054
L302.521 147.624
L302.61 147.624
L302.789 147.338
L303.057 147.338
L303.235 147.052
L303.414 147.052
L303.592 146.193
L303.682 146.193
L305.199 141.616
L305.378 141.616
L305.556 141.044
L305.824 141.044
L306.181 139.613
L306.36 137.897
L306.539 137.325
L306.628 137.325
L306.806 137.038
L306.896 137.038
L307.253 136.18
L307.61 136.18
L308.056 135.036
L308.235 135.036
L308.503 134.464
L308.681 134.464
L309.038 133.605
L309.128 133.605
L309.753 131.317
L309.931 130.458
L310.11 130.458
L310.556 129.314
L310.645 129.314
L310.824 128.742
L311.092 128.742
L311.36 128.17
L311.449 128.17
L311.628 127.025
L311.806 127.025
L311.985 126.739
L312.252 126.739
L312.431 126.453
L312.788 126.453
L313.056 125.881
L313.235 125.881
L313.413 125.309
L313.502 125.309
L313.77 124.736
L314.127 124.736
L314.484 123.878
L314.574 123.878
L314.752 123.592
L314.842 123.592
L315.109 122.448
L315.288 122.162
L315.467 122.162
L315.645 121.303
L315.913 121.303
L316.092 121.017
L316.27 121.017
L316.538 120.445
L316.627 120.445
L317.074 119.301
L317.163 119.301
L317.341 118.728
L317.52 118.442
L317.877 118.442
L318.056 117.87
L318.234 117.87
L318.859 116.154
L319.395 116.154
L319.573 115.581
L319.931 115.581
L320.377 114.437
L320.466 114.437
L320.823 113.579
L321.002 113.579
L321.18 113.007
L321.538 113.007
L321.805 112.434
L321.895 112.434
L322.698 110.146
L322.788 110.146
L323.234 109.001
L323.412 109.001
L323.591 108.429
L323.77 108.429
L324.037 107.857
L324.127 107.857
L324.305 107.571
L324.395 107.571
L324.573 106.999
L324.662 106.999
L324.841 106.713
L325.02 106.713
L325.287 106.14
L325.466 106.14
L325.644 105.854
L325.734 105.854
L325.912 105.568
L326.091 105.568
L326.269 105.282
L326.448 105.282
L327.162 103.279
L327.787 103.279
L327.966 102.993
L328.055 102.993
L328.501 101.849
L329.126 101.849
L329.305 101.563
L329.394 101.563
L329.662 100.991
L329.841 99.5603
L330.019 99.2742
L330.555 99.2742
L330.733 98.702
L331.001 98.702
L331.18 98.4159
L331.269 98.4159
L331.537 97.8437
L331.716 97.8437
L332.073 96.9854
L332.519 96.9854
L332.698 96.4132
L333.501 94.1245
L334.394 94.1245
L334.572 93.8384
L334.662 93.8384
L334.93 93.2662
L335.287 93.2662
L335.555 92.694
L335.912 92.694
L336.09 92.4079
L336.358 92.4079
L336.626 91.8358
L337.608 91.8358
L337.787 91.5497
L337.876 91.5497
L338.144 90.9775
L338.233 90.9775
L338.412 90.6914
L338.501 90.6914
L338.858 89.8331
L339.751 89.8331
L340.108 88.9748
L340.465 88.9748
L340.644 88.6887
L340.911 88.6887
L341.09 88.4026
L341.268 88.4026
L341.715 86.9722
L341.893 86.1139
L341.983 86.1139
L342.161 85.8278
L343.054 85.8278
L343.233 85.5417
L343.322 85.5417
L343.5 85.2556
L343.768 85.2556
L344.036 84.6834
L344.393 84.6834
L344.661 84.1113
L345.018 84.1113
L345.732 82.1086
L346.179 82.1086
L346.357 81.8225
L346.447 81.8225
L346.625 81.5364
L346.804 81.5364
L346.982 81.2503
L347.072 81.2503
L347.518 80.106
L347.875 80.106
L348.054 79.8199
L348.411 79.8199
L348.947 78.3894
L349.036 78.3894
L349.304 77.8172
L350.375 77.8172
L350.554 77.5311
L350.911 77.5311
L351.268 76.6728
L351.357 76.6728
L351.625 76.1007
L351.893 76.1007
L352.071 75.8146
L352.339 75.8146
L352.786 74.6702
L352.964 74.6702
L353.143 73.5258
L353.232 73.5258
L353.5 72.9536
L353.589 72.9536
L353.768 72.6675
L353.857 72.6675
L354.036 72.3815
L354.125 72.3815
L354.75 70.6649
L355.018 70.6649
L355.285 70.0927
L355.464 70.0927
L355.643 69.5205
L355.732 69.5205
L355.91 69.2344
L356.892 69.2344
L357.071 68.9483
L357.517 68.9483
L357.785 68.3762
L358.053 68.3762
L358.321 67.804
L358.589 67.804
L358.767 67.5179
L360.017 67.5179
L360.642 65.8013
L360.91 65.8013
L361.089 65.5152
L361.446 65.5152
L361.714 64.943
L361.892 64.943
L362.16 64.3709
L362.606 64.3709
L362.785 64.0848
L362.964 64.0848
L363.142 63.7987
L363.767 63.7987
L363.946 63.5126
L364.035 63.5126
L364.303 62.9404
L364.838 62.9404
L365.017 62.6543
L365.106 62.6543
L365.285 62.3682
L365.463 62.3682
L365.642 62.0821
L365.731 62.0821
L365.91 61.796
L366.178 61.796
L366.356 61.5099
L366.624 61.5099
L366.981 60.6517
L367.16 60.6517
L367.428 60.0795
L367.606 60.0795
L367.785 59.7934
L367.963 59.7934
L368.231 59.2212
L368.588 59.2212
L368.767 58.9351
L369.838 58.9351
L370.017 58.649
L370.463 58.649
L370.731 58.0768
L371.802 58.0768
L371.981 57.7907
L375.463 57.7907
L375.641 57.5046
L377.427 57.5046
L377.695 56.9325
L378.052 56.9325
L378.409 56.0742
L378.766 56.0742
L378.945 55.7881
L379.034 55.7881
L379.212 55.502
L379.302 55.502
L379.57 54.9298
L380.373 54.9298
L380.552 54.3576
L380.909 54.3576
L381.177 53.7854
L382.427 53.7854
L382.605 53.4993
L383.052 53.4993
L383.23 53.2132
L384.123 53.2132
L384.301 52.9272
L384.659 52.9272
L384.926 52.355
L385.462 52.355
L385.641 52.0689
L386.98 52.0689
L387.158 51.7828
L387.873 51.7828
L388.051 51.2106
L388.14 51.2106
L388.498 50.3523
L388.676 50.3523
L388.855 50.0662
L389.39 50.0662
L389.569 49.7801
L391.355 49.7801
L391.533 49.494
L391.712 49.494
L391.89 49.2079
L395.64 49.2079
L395.819 48.9219
L396.176 48.9219
L396.354 48.6358
L398.051 48.6358
L398.229 48.3497
L403.229 48.3497
L403.407 48.0636
L404.122 48.0636
L404.3 47.7775
L406.264 47.7775
L406.443 47.4914
L406.711 47.4914
L406.889 47.2053
L409.211 47.2053
L409.389 46.9192
L412.871 46.9192
L413.05 46.6331
L413.585 46.6331
L413.764 46.347
L416.532 46.347
L416.71 46.0609
L418.674 46.0609
L418.853 45.7748
L420.638 45.7748
L420.817 45.4887
L425.192 45.4887
L425.37 45.2026
L428.584 45.2026
L428.763 44.9166
L438.584 44.9166
L438.762 44.6305
L444.476 44.6305
L444.744 44.0583
L450.815 44.0583
L450.994 43.7722
L468.76 43.7722
L468.939 43.4861
L490.545 43.4861
L490.723 43.2
L518.311 43.2
L518.311 43.2" style="fill:none;stroke:#ff0000;stroke-dasharray:3.000000,6.000000;stroke-dashoffset:0.0;"/>
   </g>
   <g id="line2d_4">
    <path clip-path="url(#p7ff5b81e1d)" d="
M72 388.8
L72.0893 388.8
L72.1786 388.8
L72.2678 388.41
L72.4464 388.8
L72.5357 388.8
L72.7142 388.41
L73.7856 388.41
L73.9642 388.8
L169.851 388.8
L170.029 388.41
L186.903 388.41
L187.082 388.021
L194.224 388.021
L194.403 387.631
L194.492 387.631
L194.671 387.241
L198.42 387.241
L198.599 386.852
L201.277 386.852
L201.456 386.462
L201.992 386.462
L202.17 386.073
L204.492 386.073
L204.67 385.683
L205.116 385.683
L205.295 385.293
L205.652 385.293
L205.831 384.904
L208.509 384.904
L208.688 384.514
L208.956 384.514
L209.134 384.124
L209.223 384.124
L209.402 383.735
L211.366 383.735
L211.812 382.176
L214.759 382.176
L214.937 381.787
L215.116 381.787
L215.384 381.007
L216.187 381.007
L216.366 380.618
L218.687 380.618
L218.955 379.839
L219.491 379.839
L219.669 379.449
L220.026 379.449
L220.205 379.059
L222.526 379.059
L222.883 377.89
L223.24 377.89
L223.419 377.501
L225.651 377.501
L225.829 376.332
L225.919 376.332
L226.097 375.942
L226.901 375.942
L227.079 375.553
L229.579 375.553
L229.847 374.773
L229.936 374.773
L230.383 373.215
L230.472 373.215
L230.651 372.825
L232.615 372.825
L232.793 372.436
L232.972 372.436
L233.15 372.046
L233.329 372.046
L233.508 371.267
L233.686 371.267
L233.954 369.708
L234.222 369.708
L234.4 369.319
L237.168 369.319
L237.436 368.539
L237.704 368.539
L237.972 367.76
L239.936 367.76
L240.65 365.033
L240.828 365.033
L241.007 363.864
L241.096 363.864
L241.364 363.085
L241.453 363.085
L241.632 362.305
L243.328 362.305
L243.507 361.526
L243.864 360.357
L244.043 360.357
L244.578 358.409
L244.935 358.409
L245.114 357.24
L245.65 357.24
L245.828 356.851
L246.989 356.851
L247.167 356.461
L247.257 356.461
L247.882 354.123
L247.971 354.123
L248.596 351.785
L250.56 351.785
L251.274 349.058
L251.364 349.058
L251.542 347.499
L251.631 347.11
L251.81 345.941
L252.078 345.941
L252.346 345.162
L254.042 345.162
L254.22 343.993
L254.31 343.993
L254.756 342.434
L254.935 342.434
L255.203 341.655
L255.292 341.655
L255.47 340.876
L255.649 340.097
L255.828 338.928
L256.006 338.928
L256.185 338.538
L257.077 338.538
L257.256 338.148
L257.613 338.148
L257.97 336.979
L258.06 336.979
L258.238 335.811
L258.506 334.252
L258.595 334.252
L259.131 332.304
L259.22 332.304
L259.488 331.525
L259.667 331.525
L259.845 331.135
L260.47 331.135
L260.649 330.745
L261.274 330.745
L261.72 329.187
L261.899 329.187
L263.148 324.122
L264.845 324.122
L264.934 323.732
L265.291 320.225
L265.38 320.225
L265.827 318.277
L266.005 316.719
L266.184 315.55
L266.363 314.381
L266.452 314.381
L266.63 313.602
L267.612 313.602
L267.791 313.212
L267.88 313.212
L268.148 312.433
L268.327 312.433
L268.773 310.095
L268.952 309.316
L269.13 309.316
L269.309 308.147
L269.666 305.809
L269.755 305.809
L270.023 303.471
L271.005 303.471
L271.184 303.082
L271.719 303.082
L272.434 299.575
L272.612 298.796
L272.88 298.796
L273.416 294.9
L273.505 294.9
L273.773 294.12
L275.648 294.12
L275.826 292.562
L276.094 291.003
L276.362 289.445
L276.719 285.938
L277.344 283.6
L278.058 283.6
L278.237 283.211
L278.772 283.211
L278.951 282.821
L279.04 282.821
L279.308 280.873
L279.487 280.873
L279.665 279.704
L279.933 276.977
L280.469 274.639
L280.826 271.132
L281.897 271.132
L282.076 270.743
L282.433 270.743
L283.058 267.626
L283.236 266.067
L283.683 264.509
L283.861 264.509
L284.219 263.34
L284.308 263.34
L284.486 262.561
L284.754 262.561
L284.933 262.171
L285.379 262.171
L285.558 261.781
L286.004 261.781
L286.183 261.392
L286.272 261.392
L286.54 258.664
L286.629 258.664
L286.986 255.158
L287.254 253.599
L287.522 253.599
L287.611 253.209
L287.79 252.041
L288.058 250.482
L288.772 250.482
L288.95 250.092
L289.308 250.092
L289.486 249.703
L289.843 249.703
L290.915 241.131
L291.004 241.131
L291.182 240.741
L291.361 240.741
L291.718 238.404
L292.343 238.404
L292.522 238.014
L292.7 238.014
L292.879 237.624
L293.236 237.624
L293.325 237.235
L293.504 235.676
L293.593 235.287
L293.772 234.118
L293.95 234.118
L294.218 232.559
L294.396 231.39
L294.575 229.442
L295.379 226.325
L296.182 226.325
L296.361 225.936
L296.896 225.936
L297.075 224.377
L297.7 219.312
L297.789 219.312
L297.968 218.922
L298.057 218.922
L298.325 218.143
L298.414 218.143
L298.682 217.364
L298.86 217.364
L299.039 216.974
L299.753 216.974
L299.932 216.584
L300.289 216.584
L300.468 216.195
L300.557 216.195
L300.735 215.026
L301.45 209.182
L301.539 209.182
L301.628 208.792
L301.896 205.675
L302.075 205.675
L302.342 203.727
L303.771 203.727
L303.949 203.337
L304.039 203.337
L304.217 201.779
L304.307 201.779
L304.842 197.882
L305.021 197.882
L305.199 196.324
L305.467 195.545
L305.556 195.545
L305.735 194.376
L305.914 193.596
L306.271 193.596
L306.449 193.207
L307.61 193.207
L307.878 191.259
L307.967 191.259
L308.503 186.973
L308.592 186.973
L308.771 185.025
L309.128 182.687
L309.217 182.687
L309.485 181.908
L310.467 181.908
L310.645 181.518
L311.092 181.518
L311.27 180.739
L312.431 175.674
L312.61 174.505
L312.877 172.946
L313.056 171.777
L313.77 171.777
L313.949 171.388
L314.306 171.388
L314.484 170.998
L314.752 170.998
L314.931 170.219
L315.467 168.271
L315.556 168.271
L315.734 166.712
L315.913 166.712
L316.092 165.154
L316.716 162.816
L317.074 162.816
L317.252 162.037
L317.52 162.037
L317.699 161.647
L318.324 161.647
L318.591 160.868
L318.77 160.868
L319.038 159.309
L319.306 157.751
L319.395 157.361
L319.573 155.023
L320.02 153.465
L321.002 153.465
L321.18 153.075
L321.448 153.075
L321.716 152.296
L322.073 152.296
L322.43 148.789
L322.52 148.789
L322.877 146.841
L323.145 145.283
L323.323 145.283
L323.68 144.114
L324.305 144.114
L324.484 143.724
L325.287 143.724
L325.466 143.334
L325.644 143.334
L326.002 139.828
L326.269 139.048
L326.448 139.048
L326.716 137.1
L326.894 137.1
L327.341 135.542
L328.859 135.542
L329.037 135.152
L329.394 135.152
L329.841 132.035
L330.198 130.866
L330.287 130.866
L330.733 129.308
L330.823 129.308
L331.001 128.918
L332.698 128.918
L332.876 126.58
L332.965 126.58
L333.233 125.801
L333.323 125.801
L333.59 125.022
L333.68 125.022
L333.858 124.632
L333.948 124.632
L334.305 123.463
L334.84 123.463
L335.019 123.074
L335.197 123.074
L335.376 122.684
L335.644 122.684
L335.822 122.294
L336.447 122.294
L336.804 120.346
L336.983 119.177
L337.072 119.177
L337.519 117.619
L337.608 117.619
L337.876 116.84
L338.322 116.84
L338.501 116.45
L339.572 116.45
L341.001 110.606
L341.447 110.606
L341.626 110.216
L343.322 110.216
L343.679 108.268
L343.947 106.709
L344.036 106.709
L344.304 105.93
L344.393 105.93
L344.661 105.151
L344.84 105.151
L345.018 104.761
L346 104.761
L346.179 104.372
L347.072 104.372
L347.34 102.423
L347.429 102.423
L347.607 102.034
L348.322 102.034
L348.768 100.475
L348.947 100.475
L349.125 100.086
L349.393 100.086
L349.661 99.3064
L349.839 99.3064
L350.018 98.9168
L350.464 98.9168
L350.643 98.5272
L350.821 98.5272
L351.357 96.579
L351.625 96.579
L351.804 95.7998
L352.428 93.462
L352.518 93.462
L352.696 93.0724
L354.036 93.0724
L354.303 92.2931
L354.393 92.2931
L354.571 91.9035
L354.66 91.9035
L355.285 89.5657
L355.464 89.5657
L355.643 89.1761
L355.732 89.1761
L355.91 88.3968
L356.178 87.6176
L357.875 87.6176
L358.053 87.228
L358.321 87.228
L358.678 86.0591
L358.767 86.0591
L358.946 85.6694
L359.035 85.6694
L359.392 84.5006
L360.107 84.5006
L360.285 84.1109
L361.535 84.1109
L361.714 83.7213
L361.803 83.7213
L361.981 83.3317
L362.071 83.3317
L362.339 82.5524
L362.874 82.5524
L363.053 82.1628
L364.928 82.1628
L365.106 81.3835
L365.196 81.3835
L365.374 80.6043
L365.553 80.2147
L365.999 80.2147
L366.267 79.4354
L368.41 79.4354
L368.767 78.2665
L369.035 78.2665
L369.392 77.0976
L369.481 77.0976
L369.927 75.5391
L370.284 75.5391
L370.463 75.1495
L370.999 75.1495
L371.177 74.3702
L372.338 74.3702
L373.052 71.6428
L373.231 71.6428
L373.499 70.8636
L374.659 70.8636
L374.838 70.474
L375.106 70.474
L375.284 70.0843
L375.731 70.0843
L375.998 69.3051
L376.088 69.3051
L376.266 68.5258
L376.445 68.5258
L376.623 68.1362
L376.713 68.1362
L377.159 66.5777
L379.034 66.5777
L379.212 66.188
L379.57 66.188
L379.837 65.4088
L380.462 65.4088
L380.641 65.0192
L381.534 65.0192
L381.802 64.2399
L382.248 64.2399
L382.427 63.8503
L383.409 63.8503
L383.587 63.4607
L383.855 63.4607
L384.123 62.6814
L386.355 62.6814
L386.533 61.9021
L387.337 61.9021
L387.516 61.5125
L387.694 61.5125
L387.873 60.7333
L388.14 60.7333
L388.319 60.3436
L389.837 60.3436
L390.105 59.5644
L390.194 59.5644
L390.372 59.1747
L390.819 59.1747
L391.087 58.3955
L391.355 58.3955
L391.533 58.0059
L393.408 58.0059
L393.587 57.6162
L393.676 57.6162
L393.854 57.2266
L394.033 57.2266
L394.301 55.6681
L394.39 55.6681
L394.569 55.2785
L395.283 55.2785
L395.461 54.8888
L396.979 54.8888
L397.158 54.4992
L399.479 54.4992
L399.658 54.1096
L399.747 54.1096
L399.925 53.72
L400.729 53.72
L400.908 53.3303
L401.265 53.3303
L401.443 52.9407
L401.532 52.9407
L401.711 52.5511
L403.675 52.5511
L403.854 52.1614
L405.461 52.1614
L405.818 50.9926
L415.907 50.9926
L416.085 50.6029
L416.442 50.6029
L416.621 50.2133
L416.889 50.2133
L417.067 49.8237
L422.245 49.8237
L422.424 49.434
L426.531 49.434
L426.709 49.0444
L428.227 49.0444
L428.406 48.6548
L429.299 48.6548
L429.477 48.2652
L433.584 48.2652
L433.763 47.8755
L434.298 47.8755
L434.477 47.4859
L435.191 47.4859
L435.37 47.0963
L435.548 47.0963
L435.727 46.7067
L436.441 46.7067
L436.62 46.317
L440.637 46.317
L440.816 45.9274
L441.619 45.9274
L441.798 45.1481
L454.118 45.1481
L454.297 44.7585
L455.368 44.7585
L455.547 44.3689
L461.796 44.3689
L461.975 43.9793
L487.331 43.9793
L487.509 43.5896
L500.544 43.5896
L500.723 43.2
L518.311 43.2
L518.311 43.2" style="fill:none;stroke:#00bfbf;stroke-dasharray:5.000000,1.000000,2.000000,1.000000,5.000000,1.000000;stroke-dashoffset:0.0;"/>
   </g>
   <g id="line2d_5">
    <path clip-path="url(#p7ff5b81e1d)" d="
M72 388.8
L87.7133 388.8
L87.8918 388.11
L90.0346 388.11
L90.2131 387.42
L90.3917 387.42
L90.5702 386.731
L91.1059 386.731
L91.463 384.661
L92.2666 384.661
L92.4451 383.971
L93.3379 383.971
L94.8557 371.554
L95.1235 367.416
L96.2842 367.416
L96.4627 366.036
L96.9984 366.036
L97.177 363.966
L97.3555 362.587
L97.6234 360.517
L97.8912 356.378
L98.0698 356.378
L98.2483 353.619
L98.5162 350.86
L98.784 348.101
L98.8733 348.101
L99.0518 347.411
L99.3197 347.411
L99.4982 346.721
L100.48 346.721
L100.57 346.031
L100.837 341.202
L101.016 339.823
L101.284 334.994
L101.373 334.304
L101.641 327.406
L101.73 327.406
L102.087 320.508
L102.534 317.749
L102.891 317.749
L103.159 316.369
L104.052 316.369
L104.498 305.332
L104.766 297.054
L104.855 297.054
L105.212 292.225
L105.301 292.225
L105.659 281.188
L105.748 279.808
L105.926 274.98
L107.623 274.98
L107.801 271.531
L107.98 265.322
L108.069 265.322
L108.248 261.873
L108.605 252.216
L108.783 250.836
L109.319 237.04
L109.498 234.97
L110.033 234.97
L110.212 234.28
L110.926 234.28
L111.105 233.59
L111.194 233.59
L111.462 226.002
L111.73 218.414
L111.997 210.137
L112.087 209.447
L112.622 192.891
L112.712 192.891
L113.158 187.372
L114.765 187.372
L114.854 186.683
L115.033 183.923
L115.301 181.854
L115.479 175.646
L115.569 174.956
L115.836 169.437
L116.64 152.881
L117.622 152.881
L117.801 152.192
L118.336 152.192
L118.604 149.432
L118.693 149.432
L118.961 142.534
L119.14 139.775
L119.318 137.705
L119.586 131.497
L119.676 130.807
L119.854 127.358
L120.033 125.978
L120.211 123.909
L120.925 123.909
L121.104 122.529
L121.908 122.529
L122.086 119.77
L122.265 117.701
L122.622 113.562
L122.711 113.562
L122.979 108.043
L123.157 108.043
L123.336 104.594
L123.604 103.214
L123.693 103.214
L123.872 102.525
L124.854 102.525
L125.032 101.835
L125.479 101.835
L125.657 97.6958
L125.747 97.6958
L126.104 95.6263
L126.193 95.6263
L126.461 92.8671
L127.264 87.3485
L127.621 87.3485
L127.8 86.6587
L129.05 86.6587
L129.496 83.2096
L129.675 80.4503
L130.211 77.0012
L130.3 77.0012
L130.478 75.6216
L130.746 75.6216
L130.925 74.9317
L132.8 74.9317
L132.889 74.2419
L133.068 72.1725
L133.157 72.1725
L133.335 70.7928
L133.603 69.4132
L133.692 69.4132
L133.871 68.7234
L134.05 68.7234
L134.228 65.9641
L134.407 65.9641
L134.585 65.2743
L136.282 65.2743
L136.46 64.5844
L137.353 64.5844
L137.889 61.1353
L139.853 61.1353
L140.031 60.4455
L140.567 60.4455
L141.013 57.6862
L141.192 57.6862
L141.371 56.3066
L141.46 56.3066
L141.638 55.6168
L143.245 55.6168
L143.424 54.9269
L143.603 54.9269
L143.781 54.2371
L144.406 54.2371
L144.674 52.8575
L150.566 52.8575
L150.924 50.788
L151.816 50.788
L151.995 50.0982
L154.138 50.0982
L154.495 48.0287
L155.298 48.0287
L155.477 47.3389
L159.227 47.3389
L159.405 46.6491
L161.459 46.6491
L161.637 45.9593
L162.53 45.9593
L162.708 45.2695
L168.958 45.2695
L169.137 44.5796
L171.994 44.5796
L172.172 43.8898
L176.547 43.8898
L176.725 43.2
L518.311 43.2
L518.311 43.2" style="fill:none;stroke:#bf00bf;stroke-linecap:square;"/>
   </g>
   <g id="matplotlib.axis_1">
    <g id="xtick_1">
     <g id="line2d_6">
      <defs>
       <path d="
M0 0
L0 -4" id="mc7db9fdffb" style="stroke:#000000;stroke-width:0.5;"/>
      </defs>
      <g>
       <use style="stroke:#000000;stroke-width:0.5;" x="72.0" xlink:href="#mc7db9fdffb" y="388.8"/>
      </g>
     </g>
     <g id="line2d_7">
      <defs>
       <path d="
M0 0
L0 4" id="m5a7d422ac3" style="stroke:#000000;stroke-width:0.5;"/>
      </defs>
      <g>
       <use style="stroke:#000000;stroke-width:0.5;" x="72.0" xlink:href="#m5a7d422ac3" y="43.2"/>
      </g>
     </g>
     <g id="text_1">
      <!-- 0 -->
      <defs>
       <path d="
M56.9844 36.375
Q56.9844 16.7969 50.8594 7.64062
Q44.7344 -1.51562 31.8438 -1.51562
Q18.75 -1.51562 12.7188 7.76562
Q6.6875 17.0469 6.6875 36.2812
Q6.6875 55.6719 12.7812 64.9219
Q18.8906 74.1719 31.8438 74.1719
Q44.9219 74.1719 50.9531 64.7656
Q56.9844 55.375 56.9844 36.375
M44.1406 14.2031
Q45.8438 18.1719 46.4531 23.5156
Q47.0781 28.8594 47.0781 36.375
Q47.0781 43.7969 46.4531 49.2656
Q45.8438 54.7344 44.0938 58.5469
Q42.3906 62.3125 39.4219 64.2031
Q36.4688 66.1094 31.8438 66.1094
Q27.25 66.1094 24.2344 64.2031
Q21.2344 62.3125 19.4844 58.4531
Q17.8281 54.8281 17.2188 49.0156
Q16.6094 43.2188 16.6094 36.2812
Q16.6094 28.6562 17.1406 23.5312
Q17.6719 18.4062 19.4375 14.3594
Q21.0469 10.5469 24 8.54688
Q26.9531 6.54688 31.8438 6.54688
Q36.4219 6.54688 39.4531 8.45312
Q42.4844 10.3594 44.1406 14.2031" id="Verdana-30"/>
      </defs>
      <g transform="translate(68.9821875 401.918125)scale(0.12 -0.12)">
       <use xlink:href="#Verdana-30"/>
      </g>
     </g>
    </g>
    <g id="xtick_2">
     <g id="line2d_8">
      <g>
       <use style="stroke:#000000;stroke-width:0.5;" x="161.28" xlink:href="#mc7db9fdffb" y="388.8"/>
      </g>
     </g>
     <g id="line2d_9">
      <g>
       <use style="stroke:#000000;stroke-width:0.5;" x="161.28" xlink:href="#m5a7d422ac3" y="43.2"/>
      </g>
     </g>
     <g id="text_2">
      <!-- 1000 -->
      <defs>
       <path d="
M52.9375 0
L13.5781 0
L13.5781 7.42188
L28.7188 7.42188
L28.7188 56.1562
L13.5781 56.1562
L13.5781 62.7969
Q16.6562 62.7969 20.1719 63.2969
Q23.6875 63.8125 25.4844 64.7969
Q27.7344 66.0156 29.0312 67.8906
Q30.3281 69.7812 30.5156 72.9531
L38.0938 72.9531
L38.0938 7.42188
L52.9375 7.42188
z
" id="Verdana-31"/>
      </defs>
      <g transform="translate(147.2315625 401.918125)scale(0.12 -0.12)">
       <use xlink:href="#Verdana-31"/>
       <use x="63.57421875" xlink:href="#Verdana-30"/>
       <use x="127.1484375" xlink:href="#Verdana-30"/>
       <use x="190.72265625" xlink:href="#Verdana-30"/>
      </g>
     </g>
    </g>
    <g id="xtick_3">
     <g id="line2d_10">
      <g>
       <use style="stroke:#000000;stroke-width:0.5;" x="250.56" xlink:href="#mc7db9fdffb" y="388.8"/>
      </g>
     </g>
     <g id="line2d_11">
      <g>
       <use style="stroke:#000000;stroke-width:0.5;" x="250.56" xlink:href="#m5a7d422ac3" y="43.2"/>
      </g>
     </g>
     <g id="text_3">
      <!-- 2000 -->
      <defs>
       <path d="
M57.0781 0
L7.85938 0
L7.85938 10.2031
Q12.9844 14.5938 18.1406 18.9844
Q23.2969 23.3906 27.7344 27.7344
Q37.1094 36.8125 40.5781 42.1562
Q44.0469 47.5156 44.0469 53.7188
Q44.0469 59.375 40.3125 62.5625
Q36.5781 65.7656 29.8906 65.7656
Q25.4375 65.7656 20.2656 64.2031
Q15.0938 62.6406 10.1562 59.4219
L9.67188 59.4219
L9.67188 69.6719
Q13.1406 71.3906 18.9219 72.7969
Q24.7031 74.2188 30.125 74.2188
Q41.3125 74.2188 47.6562 68.8125
Q54 63.4219 54 54.2031
Q54 50.0469 52.9531 46.4531
Q51.9062 42.875 49.8594 39.6562
Q47.9531 36.625 45.3906 33.6875
Q42.8281 30.7656 39.1562 27.2031
Q33.9375 22.0781 28.3594 17.2656
Q22.7969 12.4531 17.9688 8.34375
L57.0781 8.34375
z
" id="Verdana-32"/>
      </defs>
      <g transform="translate(236.1684375 401.918125)scale(0.12 -0.12)">
       <use xlink:href="#Verdana-32"/>
       <use x="63.57421875" xlink:href="#Verdana-30"/>
       <use x="127.1484375" xlink:href="#Verdana-30"/>
       <use x="190.72265625" xlink:href="#Verdana-30"/>
      </g>
     </g>
    </g>
    <g id="xtick_4">
     <g id="line2d_12">
      <g>
       <use style="stroke:#000000;stroke-width:0.5;" x="339.84" xlink:href="#mc7db9fdffb" y="388.8"/>
      </g>
     </g>
     <g id="line2d_13">
      <g>
       <use style="stroke:#000000;stroke-width:0.5;" x="339.84" xlink:href="#m5a7d422ac3" y="43.2"/>
      </g>
     </g>
     <g id="text_4">
      <!-- 3000 -->
      <defs>
       <path d="
M50.6875 35.0156
Q53.0312 32.9062 54.5469 29.7344
Q56.0625 26.5625 56.0625 21.5312
Q56.0625 16.5469 54.25 12.3906
Q52.4375 8.25 49.1719 5.17188
Q45.5156 1.76562 40.5469 0.125
Q35.5938 -1.51562 29.6875 -1.51562
Q23.6406 -1.51562 17.7812 -0.0625
Q11.9219 1.375 8.15625 3.07812
L8.15625 13.2812
L8.89062 13.2812
Q13.0312 10.5469 18.6406 8.73438
Q24.2656 6.9375 29.5 6.9375
Q32.5625 6.9375 36.0312 7.95312
Q39.5 8.98438 41.6562 10.9844
Q43.8906 13.1406 44.9844 15.7188
Q46.0938 18.3125 46.0938 22.2656
Q46.0938 26.1719 44.8438 28.7344
Q43.6094 31.2969 41.4062 32.7656
Q39.2031 34.2812 36.0781 34.8438
Q32.9531 35.4062 29.3438 35.4062
L24.9531 35.4062
L24.9531 43.5
L28.375 43.5
Q35.7969 43.5 40.2031 46.5938
Q44.625 49.7031 44.625 55.6719
Q44.625 58.2969 43.5 60.2656
Q42.3906 62.25 40.375 63.5312
Q38.2812 64.7969 35.8906 65.2812
Q33.5 65.7656 30.4688 65.7656
Q25.8281 65.7656 20.5938 64.1094
Q15.375 62.4531 10.75 59.4219
L10.25 59.4219
L10.25 69.625
Q13.7188 71.3438 19.5 72.7812
Q25.2969 74.2188 30.7188 74.2188
Q36.0312 74.2188 40.0781 73.2344
Q44.1406 72.2656 47.4062 70.125
Q50.9219 67.7812 52.7344 64.4531
Q54.5469 61.1406 54.5469 56.6875
Q54.5469 50.6406 50.2656 46.125
Q46 41.6094 40.1875 40.4375
L40.1875 39.75
Q42.5312 39.3594 45.5469 38.1094
Q48.5781 36.8594 50.6875 35.0156" id="Verdana-33"/>
      </defs>
      <g transform="translate(325.46625 401.918125)scale(0.12 -0.12)">
       <use xlink:href="#Verdana-33"/>
       <use x="63.57421875" xlink:href="#Verdana-30"/>
       <use x="127.1484375" xlink:href="#Verdana-30"/>
       <use x="190.72265625" xlink:href="#Verdana-30"/>
      </g>
     </g>
    </g>
    <g id="xtick_5">
     <g id="line2d_14">
      <g>
       <use style="stroke:#000000;stroke-width:0.5;" x="429.12" xlink:href="#mc7db9fdffb" y="388.8"/>
      </g>
     </g>
     <g id="line2d_15">
      <g>
       <use style="stroke:#000000;stroke-width:0.5;" x="429.12" xlink:href="#m5a7d422ac3" y="43.2"/>
      </g>
     </g>
     <g id="text_5">
      <!-- 4000 -->
      <defs>
       <path d="
M58.7344 20.4531
L47.9531 20.4531
L47.9531 0
L38.5781 0
L38.5781 20.4531
L3.76562 20.4531
L3.76562 31.6875
L38.9688 72.7031
L47.9531 72.7031
L47.9531 28.2656
L58.7344 28.2656
z

M38.5781 28.2656
L38.5781 61.0781
L10.4062 28.2656
z
" id="Verdana-34"/>
      </defs>
      <g transform="translate(414.4828125 401.918125)scale(0.12 -0.12)">
       <use xlink:href="#Verdana-34"/>
       <use x="63.57421875" xlink:href="#Verdana-30"/>
       <use x="127.1484375" xlink:href="#Verdana-30"/>
       <use x="190.72265625" xlink:href="#Verdana-30"/>
      </g>
     </g>
    </g>
    <g id="xtick_6">
     <g id="line2d_16">
      <g>
       <use style="stroke:#000000;stroke-width:0.5;" x="518.4" xlink:href="#mc7db9fdffb" y="388.8"/>
      </g>
     </g>
     <g id="line2d_17">
      <g>
       <use style="stroke:#000000;stroke-width:0.5;" x="518.4" xlink:href="#m5a7d422ac3" y="43.2"/>
      </g>
     </g>
     <g id="text_6">
      <!-- 5000 -->
      <defs>
       <path d="
M56.5 23.0938
Q56.5 18.0156 54.6406 13.375
Q52.7812 8.73438 49.5625 5.5625
Q46.0469 2.15625 41.1875 0.3125
Q36.3281 -1.51562 29.9375 -1.51562
Q23.9688 -1.51562 18.4531 -0.265625
Q12.9375 0.984375 9.125 2.73438
L9.125 13.0312
L9.8125 13.0312
Q13.8125 10.5 19.1875 8.71875
Q24.5625 6.9375 29.7344 6.9375
Q33.2031 6.9375 36.4531 7.90625
Q39.7031 8.89062 42.2344 11.3281
Q44.3906 13.4219 45.4844 16.3438
Q46.5781 19.2812 46.5781 23.1406
Q46.5781 26.9062 45.2812 29.4844
Q44 32.0781 41.7031 33.6406
Q39.1562 35.5 35.5156 36.25
Q31.8906 37.0156 27.3906 37.0156
Q23.0938 37.0156 19.1094 36.4219
Q15.1406 35.8438 12.25 35.25
L12.25 72.7031
L56 72.7031
L56 64.1562
L21.6875 64.1562
L21.6875 44.8281
Q23.7812 45.0156 25.9688 45.1094
Q28.1719 45.2188 29.7812 45.2188
Q35.6875 45.2188 40.125 44.2188
Q44.5781 43.2188 48.2969 40.6719
Q52.2031 37.9844 54.3438 33.7344
Q56.5 29.5 56.5 23.0938" id="Verdana-35"/>
      </defs>
      <g transform="translate(504.084375 401.918125)scale(0.12 -0.12)">
       <use xlink:href="#Verdana-35"/>
       <use x="63.57421875" xlink:href="#Verdana-30"/>
       <use x="127.1484375" xlink:href="#Verdana-30"/>
       <use x="190.72265625" xlink:href="#Verdana-30"/>
      </g>
     </g>
    </g>
    <g id="text_7">
     <!-- Objective function exectuions -->
     <defs>
      <path d="
M37.3594 0.484375
Q34.7656 -0.203125 31.7031 -0.640625
Q28.6562 -1.07812 26.2656 -1.07812
Q17.9219 -1.07812 13.5781 3.40625
Q9.23438 7.90625 9.23438 17.8281
L9.23438 46.8281
L3.03125 46.8281
L3.03125 54.5469
L9.23438 54.5469
L9.23438 70.2188
L18.4062 70.2188
L18.4062 54.5469
L37.3594 54.5469
L37.3594 46.8281
L18.4062 46.8281
L18.4062 21.9688
Q18.4062 17.6719 18.5938 15.25
Q18.7969 12.8438 19.9688 10.75
Q21.0469 8.79688 22.9219 7.89062
Q24.8125 6.98438 28.6562 6.98438
Q30.9062 6.98438 33.3438 7.64062
Q35.7969 8.29688 36.8594 8.73438
L37.3594 8.73438
z
" id="Verdana-74"/>
      <path d="
M56.2031 54.5469
L34.125 0
L24.9062 0
L2.98438 54.5469
L12.9375 54.5469
L29.8281 11.1406
L46.5781 54.5469
z
" id="Verdana-76"/>
      <path d="
M26.0312 63.6719
L15.6719 63.6719
L15.6719 73.1875
L26.0312 73.1875
z

M25.4375 -1.3125
Q25.4375 -10.8906 20.5469 -15.7656
Q15.6719 -20.6562 7.46875 -20.6562
Q5.51562 -20.6562 2.3125 -20.2656
Q-0.875 -19.875 -3.03125 -19.2812
L-3.03125 -10.5469
L-2.54688 -10.5469
Q-1.17188 -11.0781 1.14062 -11.7656
Q3.46875 -12.4531 5.67188 -12.4531
Q9.1875 -12.4531 11.3281 -11.4688
Q13.4844 -10.5 14.5469 -8.54688
Q15.625 -6.59375 15.9375 -3.82812
Q16.2656 -1.07812 16.2656 2.875
L16.2656 46.8281
L4.89062 46.8281
L4.89062 54.5469
L25.4375 54.5469
z
" id="Verdana-6a"/>
      <path d="
M63.9688 64.3594
Q68.4062 59.4688 70.7656 52.3906
Q73.1406 45.3125 73.1406 36.3281
Q73.1406 27.3438 70.7188 20.2344
Q68.3125 13.1406 63.9688 8.40625
Q59.4688 3.46875 53.3438 0.96875
Q47.2188 -1.51562 39.3594 -1.51562
Q31.6875 -1.51562 25.4062 1.01562
Q19.1406 3.5625 14.75 8.40625
Q10.3594 13.2344 7.98438 20.2656
Q5.60938 27.2969 5.60938 36.3281
Q5.60938 45.2188 7.95312 52.2656
Q10.2969 59.3281 14.7969 64.3594
Q19.0938 69.1406 25.4688 71.6719
Q31.8438 74.2188 39.3594 74.2188
Q47.1719 74.2188 53.3906 71.6562
Q59.625 69.0938 63.9688 64.3594
M63.0938 36.3281
Q63.0938 50.4844 56.7344 58.1719
Q50.3906 65.875 39.4062 65.875
Q28.3281 65.875 22 58.1719
Q15.6719 50.4844 15.6719 36.3281
Q15.6719 22.0156 22.1094 14.4219
Q28.5625 6.84375 39.4062 6.84375
Q50.25 6.84375 56.6719 14.4219
Q63.0938 22.0156 63.0938 36.3281" id="Verdana-4f"/>
      <path d="
M54.25 0
L45.0625 0
L45.0625 6.0625
Q40.4375 2.39062 36.1875 0.4375
Q31.9375 -1.51562 26.8125 -1.51562
Q18.2188 -1.51562 13.4219 3.73438
Q8.64062 8.98438 8.64062 19.1406
L8.64062 54.5469
L17.8281 54.5469
L17.8281 23.4844
Q17.8281 19.3438 18.2188 16.375
Q18.6094 13.4219 19.875 11.3281
Q21.1875 9.1875 23.2812 8.20312
Q25.3906 7.23438 29.3906 7.23438
Q32.9531 7.23438 37.1719 9.07812
Q41.4062 10.9375 45.0625 13.8125
L45.0625 54.5469
L54.25 54.5469
z
" id="Verdana-75"/>
      <path d="
M48 15.7188
Q48 8.25 41.8125 3.46875
Q35.6406 -1.3125 24.9531 -1.3125
Q18.8906 -1.3125 13.8438 0.125
Q8.79688 1.5625 5.375 3.26562
L5.375 13.5781
L5.85938 13.5781
Q10.2031 10.2969 15.5156 8.375
Q20.8438 6.45312 25.7344 6.45312
Q31.7812 6.45312 35.2031 8.40625
Q38.625 10.3594 38.625 14.5469
Q38.625 17.7812 36.7656 19.4375
Q34.9062 21.0938 29.6406 22.2656
Q27.6875 22.7031 24.5312 23.2812
Q21.3906 23.875 18.7969 24.5625
Q11.625 26.4688 8.60938 30.1562
Q5.60938 33.8438 5.60938 39.2031
Q5.60938 42.5781 7 45.5469
Q8.40625 48.5312 11.2344 50.875
Q13.9688 53.1719 18.1875 54.5156
Q22.4062 55.8594 27.6406 55.8594
Q32.5156 55.8594 37.5156 54.6562
Q42.5312 53.4688 45.8438 51.7656
L45.8438 41.9375
L45.3594 41.9375
Q41.8438 44.5312 36.8125 46.3125
Q31.7812 48.0938 26.9531 48.0938
Q21.9219 48.0938 18.4531 46.1562
Q14.9844 44.2344 14.9844 40.4375
Q14.9844 37.0625 17.0938 35.3594
Q19.1406 33.6406 23.7344 32.5625
Q26.2656 31.9844 29.4062 31.3906
Q32.5625 30.8125 34.6719 30.3281
Q41.0625 28.8594 44.5312 25.2969
Q48 21.6875 48 15.7188" id="Verdana-73"/>
      <path d="
M56.25 0
L44.6719 0
L29.2031 20.9531
L13.625 0
L2.9375 0
L24.2188 27.2031
L3.125 54.5469
L14.7031 54.5469
L30.0781 33.9375
L45.5156 54.5469
L56.25 54.5469
L34.8125 27.6875
z
" id="Verdana-78"/>
      <path id="Verdana-20"/>
      <path d="
M38.375 67.0938
L37.8906 67.0938
Q36.375 67.5312 33.9375 67.9844
Q31.5 68.4531 29.6406 68.4531
Q23.7344 68.4531 21.0625 65.8438
Q18.4062 63.2344 18.4062 56.3906
L18.4062 54.5469
L34.9688 54.5469
L34.9688 46.8281
L18.7031 46.8281
L18.7031 0
L9.51562 0
L9.51562 46.8281
L3.32812 46.8281
L3.32812 54.5469
L9.51562 54.5469
L9.51562 56.3438
Q9.51562 66.0625 14.3438 71.2656
Q19.1875 76.4688 28.3281 76.4688
Q31.3906 76.4688 33.8594 76.1719
Q36.3281 75.875 38.375 75.4844
z
" id="Verdana-66"/>
      <path d="
M55.5156 27.25
Q55.5156 13.9219 48.6719 6.20312
Q41.8438 -1.51562 30.375 -1.51562
Q18.7969 -1.51562 11.9844 6.20312
Q5.17188 13.9219 5.17188 27.25
Q5.17188 40.5781 11.9844 48.3125
Q18.7969 56.0625 30.375 56.0625
Q41.8438 56.0625 48.6719 48.3125
Q55.5156 40.5781 55.5156 27.25
M46.0469 27.25
Q46.0469 37.8438 41.8906 42.9844
Q37.75 48.1406 30.375 48.1406
Q22.9062 48.1406 18.7812 42.9844
Q14.6562 37.8438 14.6562 27.25
Q14.6562 17 18.7969 11.6875
Q22.9531 6.39062 30.375 6.39062
Q37.7031 6.39062 41.875 11.6406
Q46.0469 16.8906 46.0469 27.25" id="Verdana-6f"/>
      <path d="
M57.0312 27.6875
Q57.0312 20.8438 55.0938 15.375
Q53.1719 9.90625 49.9062 6.20312
Q46.4375 2.34375 42.2812 0.40625
Q38.1406 -1.51562 33.1562 -1.51562
Q28.5156 -1.51562 25.0469 -0.40625
Q21.5781 0.6875 18.2188 2.54688
L17.625 0
L9.03125 0
L9.03125 75.9844
L18.2188 75.9844
L18.2188 48.8281
Q22.0781 52 26.4219 54.0312
Q30.7656 56.0625 36.1875 56.0625
Q45.8438 56.0625 51.4375 48.6406
Q57.0312 41.2188 57.0312 27.6875
M47.5625 27.4375
Q47.5625 37.2031 44.3281 42.25
Q41.1094 47.3125 33.9375 47.3125
Q29.9375 47.3125 25.8281 45.5781
Q21.7344 43.8438 18.2188 41.1094
L18.2188 9.85938
Q22.125 8.10938 24.9219 7.42188
Q27.7344 6.73438 31.2969 6.73438
Q38.9219 6.73438 43.2344 11.7344
Q47.5625 16.75 47.5625 27.4375" id="Verdana-62"/>
      <path d="
M49.3594 3.42188
Q44.7812 1.21875 40.6562 0
Q36.5312 -1.21875 31.8906 -1.21875
Q25.9844 -1.21875 21.0469 0.515625
Q16.1094 2.25 12.5938 5.76562
Q9.03125 9.28125 7.07812 14.6406
Q5.125 20.0156 5.125 27.2031
Q5.125 40.5781 12.4688 48.1875
Q19.8281 55.8125 31.8906 55.8125
Q36.5781 55.8125 41.0938 54.4844
Q45.6094 53.1719 49.3594 51.2656
L49.3594 41.0625
L48.875 41.0625
Q44.6719 44.3438 40.2031 46.0938
Q35.75 47.8594 31.5 47.8594
Q23.6875 47.8594 19.1719 42.6094
Q14.6562 37.3594 14.6562 27.2031
Q14.6562 17.3281 19.0625 12.0312
Q23.4844 6.73438 31.5 6.73438
Q34.2812 6.73438 37.1562 7.46875
Q40.0469 8.20312 42.3281 9.375
Q44.3438 10.4062 46.0938 11.5469
Q47.8594 12.7031 48.875 13.5312
L49.3594 13.5312
z
" id="Verdana-63"/>
      <path d="
M54.6406 0
L45.4531 0
L45.4531 31.0625
Q45.4531 34.8125 45.0156 38.1094
Q44.5781 41.4062 43.4062 43.2656
Q42.1875 45.3125 39.8906 46.3125
Q37.5938 47.3125 33.9375 47.3125
Q30.1719 47.3125 26.0625 45.4531
Q21.9688 43.6094 18.2188 40.7188
L18.2188 0
L9.03125 0
L9.03125 54.5469
L18.2188 54.5469
L18.2188 48.4844
Q22.5156 52.0469 27.0938 54.0469
Q31.6875 56.0625 36.5312 56.0625
Q45.3594 56.0625 50 50.7344
Q54.6406 45.4062 54.6406 35.4062
z
" id="Verdana-6e"/>
      <path d="
M54.6875 26.3125
L14.5 26.3125
Q14.5 21.2969 16.0156 17.5469
Q17.5312 13.8125 20.1719 11.4219
Q22.7031 9.07812 26.1875 7.90625
Q29.6875 6.73438 33.8906 6.73438
Q39.4531 6.73438 45.0938 8.95312
Q50.7344 11.1875 53.125 13.3281
L53.6094 13.3281
L53.6094 3.32812
Q48.9688 1.375 44.1406 0.046875
Q39.3125 -1.26562 33.9844 -1.26562
Q20.4062 -1.26562 12.7812 6.07812
Q5.17188 13.4219 5.17188 26.9531
Q5.17188 40.3281 12.4688 48.1875
Q19.7812 56.0625 31.6875 56.0625
Q42.7188 56.0625 48.7031 49.6094
Q54.6875 43.1719 54.6875 31.2969
z

M45.75 33.3438
Q45.7031 40.5781 42.1094 44.5312
Q38.5312 48.4844 31.2031 48.4844
Q23.8281 48.4844 19.4531 44.1406
Q15.0938 39.7969 14.5 33.3438
z
" id="Verdana-65"/>
      <path d="
M18.8906 63.6719
L8.54688 63.6719
L8.54688 73.1875
L18.8906 73.1875
z

M18.3125 0
L9.125 0
L9.125 54.5469
L18.3125 54.5469
z
" id="Verdana-69"/>
     </defs>
     <g transform="translate(206.5078125 418.509375)scale(0.12 -0.12)">
      <use xlink:href="#Verdana-4f"/>
      <use x="78.7109375" xlink:href="#Verdana-62"/>
      <use x="141.015625" xlink:href="#Verdana-6a"/>
      <use x="175.439453125" xlink:href="#Verdana-65"/>
      <use x="235.009765625" xlink:href="#Verdana-63"/>
      <use x="287.109375" xlink:href="#Verdana-74"/>
      <use x="326.513671875" xlink:href="#Verdana-69"/>
      <use x="353.955078125" xlink:href="#Verdana-76"/>
      <use x="412.259765625" xlink:href="#Verdana-65"/>
      <use x="471.830078125" xlink:href="#Verdana-20"/>
      <use x="506.986328125" xlink:href="#Verdana-66"/>
      <use x="542.142578125" xlink:href="#Verdana-75"/>
      <use x="605.423828125" xlink:href="#Verdana-6e"/>
      <use x="668.705078125" xlink:href="#Verdana-63"/>
      <use x="720.8046875" xlink:href="#Verdana-74"/>
      <use x="760.208984375" xlink:href="#Verdana-69"/>
      <use x="787.650390625" xlink:href="#Verdana-6f"/>
      <use x="848.34375" xlink:href="#Verdana-6e"/>
      <use x="911.625" xlink:href="#Verdana-20"/>
      <use x="946.78125" xlink:href="#Verdana-65"/>
      <use x="1006.3515625" xlink:href="#Verdana-78"/>
      <use x="1064.40625" xlink:href="#Verdana-65"/>
      <use x="1123.9765625" xlink:href="#Verdana-63"/>
      <use x="1176.076171875" xlink:href="#Verdana-74"/>
      <use x="1215.48046875" xlink:href="#Verdana-75"/>
      <use x="1278.76171875" xlink:href="#Verdana-69"/>
      <use x="1306.203125" xlink:href="#Verdana-6f"/>
      <use x="1366.896484375" xlink:href="#Verdana-6e"/>
      <use x="1430.177734375" xlink:href="#Verdana-73"/>
     </g>
    </g>
   </g>
   <g id="matplotlib.axis_2">
    <g id="ytick_1">
     <g id="line2d_18">
      <defs>
       <path d="
M0 0
L4 0" id="md7965d1ba0" style="stroke:#000000;stroke-width:0.5;"/>
      </defs>
      <g>
       <use style="stroke:#000000;stroke-width:0.5;" x="72.0" xlink:href="#md7965d1ba0" y="388.8"/>
      </g>
     </g>
     <g id="line2d_19">
      <defs>
       <path d="
M0 0
L-4 0" id="md9a1c1a7cd" style="stroke:#000000;stroke-width:0.5;"/>
      </defs>
      <g>
       <use style="stroke:#000000;stroke-width:0.5;" x="518.4" xlink:href="#md9a1c1a7cd" y="388.8"/>
      </g>
     </g>
     <g id="text_8">
      <!-- 0.0 -->
      <defs>
       <path d="
M24.0312 0
L12.3594 0
L12.3594 13.9219
L24.0312 13.9219
z
" id="Verdana-2e"/>
      </defs>
      <g transform="translate(49.97 392.1515625)scale(0.12 -0.12)">
       <use xlink:href="#Verdana-30"/>
       <use x="63.57421875" xlink:href="#Verdana-2e"/>
       <use x="99.951171875" xlink:href="#Verdana-30"/>
      </g>
     </g>
    </g>
    <g id="ytick_2">
     <g id="line2d_20">
      <g>
       <use style="stroke:#000000;stroke-width:0.5;" x="72.0" xlink:href="#md7965d1ba0" y="319.68"/>
      </g>
     </g>
     <g id="line2d_21">
      <g>
       <use style="stroke:#000000;stroke-width:0.5;" x="518.4" xlink:href="#md9a1c1a7cd" y="319.68"/>
      </g>
     </g>
     <g id="text_9">
      <!-- 0.2 -->
      <g transform="translate(49.95875 323.0315625)scale(0.12 -0.12)">
       <use xlink:href="#Verdana-30"/>
       <use x="63.57421875" xlink:href="#Verdana-2e"/>
       <use x="99.951171875" xlink:href="#Verdana-32"/>
      </g>
     </g>
    </g>
    <g id="ytick_3">
     <g id="line2d_22">
      <g>
       <use style="stroke:#000000;stroke-width:0.5;" x="72.0" xlink:href="#md7965d1ba0" y="250.56"/>
      </g>
     </g>
     <g id="line2d_23">
      <g>
       <use style="stroke:#000000;stroke-width:0.5;" x="518.4" xlink:href="#md9a1c1a7cd" y="250.56"/>
      </g>
     </g>
     <g id="text_10">
      <!-- 0.4 -->
      <g transform="translate(49.76 253.9115625)scale(0.12 -0.12)">
       <use xlink:href="#Verdana-30"/>
       <use x="63.57421875" xlink:href="#Verdana-2e"/>
       <use x="99.951171875" xlink:href="#Verdana-34"/>
      </g>
     </g>
    </g>
    <g id="ytick_4">
     <g id="line2d_24">
      <g>
       <use style="stroke:#000000;stroke-width:0.5;" x="72.0" xlink:href="#md7965d1ba0" y="181.44"/>
      </g>
     </g>
     <g id="line2d_25">
      <g>
       <use style="stroke:#000000;stroke-width:0.5;" x="518.4" xlink:href="#md9a1c1a7cd" y="181.44"/>
      </g>
     </g>
     <g id="text_11">
      <!-- 0.6 -->
      <defs>
       <path d="
M58.1562 23.5781
Q58.1562 12.5 50.8594 5.48438
Q43.5625 -1.51562 32.9531 -1.51562
Q27.5938 -1.51562 23.1875 0.140625
Q18.7969 1.8125 15.4375 5.07812
Q11.2344 9.125 8.95312 15.8125
Q6.6875 22.5156 6.6875 31.9375
Q6.6875 41.6094 8.76562 49.0781
Q10.8438 56.5469 15.375 62.3594
Q19.6719 67.875 26.4531 70.9688
Q33.25 74.0781 42.2812 74.0781
Q45.1719 74.0781 47.125 73.8281
Q49.0781 73.5781 51.0781 72.9531
L51.0781 63.625
L50.5938 63.625
Q49.2188 64.3594 46.4531 65.0156
Q43.7031 65.6719 40.8281 65.6719
Q30.3281 65.6719 24.0781 59.1094
Q17.8281 52.5469 16.7969 41.3594
Q20.9062 43.8438 24.875 45.1406
Q28.8594 46.4375 34.0781 46.4375
Q38.7188 46.4375 42.25 45.5781
Q45.7969 44.7344 49.5156 42.1406
Q53.8125 39.1562 55.9844 34.6094
Q58.1562 30.0781 58.1562 23.5781
M48.25 23.1875
Q48.25 27.7344 46.9062 30.7031
Q45.5625 33.6875 42.4844 35.8906
Q40.2344 37.4531 37.5 37.9375
Q34.7656 38.4219 31.7812 38.4219
Q27.6406 38.4219 24.0781 37.4375
Q20.5156 36.4688 16.75 34.4219
Q16.6562 33.3438 16.5938 32.3438
Q16.5469 31.3438 16.5469 29.8281
Q16.5469 22.125 18.1406 17.6562
Q19.7344 13.1875 22.5156 10.5938
Q24.75 8.45312 27.3594 7.45312
Q29.9844 6.45312 33.0625 6.45312
Q40.1406 6.45312 44.1875 10.7656
Q48.25 15.0938 48.25 23.1875" id="Verdana-36"/>
      </defs>
      <g transform="translate(49.829375 184.7915625)scale(0.12 -0.12)">
       <use xlink:href="#Verdana-30"/>
       <use x="63.57421875" xlink:href="#Verdana-2e"/>
       <use x="99.951171875" xlink:href="#Verdana-36"/>
      </g>
     </g>
    </g>
    <g id="ytick_5">
     <g id="line2d_26">
      <g>
       <use style="stroke:#000000;stroke-width:0.5;" x="72.0" xlink:href="#md7965d1ba0" y="112.32"/>
      </g>
     </g>
     <g id="line2d_27">
      <g>
       <use style="stroke:#000000;stroke-width:0.5;" x="518.4" xlink:href="#md9a1c1a7cd" y="112.32"/>
      </g>
     </g>
     <g id="text_12">
      <!-- 0.8 -->
      <defs>
       <path d="
M57.625 20.2656
Q57.625 10.8438 50.2656 4.59375
Q42.9219 -1.65625 31.7812 -1.65625
Q19.9688 -1.65625 12.9531 4.4375
Q5.95312 10.5469 5.95312 20.0625
Q5.95312 26.125 9.46875 31.0312
Q12.9844 35.9375 19.3906 38.8125
L19.3906 39.1094
Q13.5312 42.2344 10.7188 45.9375
Q7.90625 49.6562 7.90625 55.2188
Q7.90625 63.4219 14.6406 68.8906
Q21.3906 74.3594 31.7812 74.3594
Q42.6719 74.3594 49.1719 69.1406
Q55.6719 63.9219 55.6719 55.8594
Q55.6719 50.9219 52.5938 46.1562
Q49.5156 41.4062 43.5625 38.7188
L43.5625 38.4219
Q50.3906 35.5 54 31.2031
Q57.625 26.9062 57.625 20.2656
M46.0469 55.7656
Q46.0469 60.9844 42.0156 64.0781
Q37.9844 67.1875 31.7344 67.1875
Q25.5938 67.1875 21.6562 64.25
Q17.7188 61.3281 17.7188 56.3438
Q17.7188 52.8281 19.7031 50.2656
Q21.6875 47.7031 25.6875 45.7031
Q27.4844 44.8281 30.875 43.4062
Q34.2812 42 37.5 41.0625
Q42.3281 44.2812 44.1875 47.75
Q46.0469 51.2188 46.0469 55.7656
M47.5625 19.3438
Q47.5625 23.8281 45.5781 26.5312
Q43.6094 29.25 37.8438 31.9844
Q35.5469 33.0625 32.8125 33.9844
Q30.0781 34.9062 25.5312 36.5781
Q21.1406 34.1875 18.4844 30.0781
Q15.8281 25.9844 15.8281 20.7969
Q15.8281 14.2031 20.3594 9.90625
Q24.9062 5.60938 31.8906 5.60938
Q39.0156 5.60938 43.2812 9.26562
Q47.5625 12.9375 47.5625 19.3438" id="Verdana-38"/>
      </defs>
      <g transform="translate(49.893125 115.6715625)scale(0.12 -0.12)">
       <use xlink:href="#Verdana-30"/>
       <use x="63.57421875" xlink:href="#Verdana-2e"/>
       <use x="99.951171875" xlink:href="#Verdana-38"/>
      </g>
     </g>
    </g>
    <g id="ytick_6">
     <g id="line2d_28">
      <g>
       <use style="stroke:#000000;stroke-width:0.5;" x="72.0" xlink:href="#md7965d1ba0" y="43.2"/>
      </g>
     </g>
     <g id="line2d_29">
      <g>
       <use style="stroke:#000000;stroke-width:0.5;" x="518.4" xlink:href="#md9a1c1a7cd" y="43.2"/>
      </g>
     </g>
     <g id="text_13">
      <!-- 1.0 -->
      <g transform="translate(50.796875 46.5515625)scale(0.12 -0.12)">
       <use xlink:href="#Verdana-31"/>
       <use x="63.57421875" xlink:href="#Verdana-2e"/>
       <use x="99.951171875" xlink:href="#Verdana-30"/>
      </g>
     </g>
    </g>
    <g id="text_14">
     <!-- Data Profile T-0.0010000 -->
     <defs>
      <path d="
M43.0625 44.5312
L42.5781 44.5312
Q40.5312 45.0156 38.5938 45.2344
Q36.6719 45.4531 34.0312 45.4531
Q29.7812 45.4531 25.8281 43.5781
Q21.875 41.7031 18.2188 38.7188
L18.2188 0
L9.03125 0
L9.03125 54.5469
L18.2188 54.5469
L18.2188 46.4844
Q23.6875 50.875 27.8594 52.7031
Q32.0312 54.5469 36.375 54.5469
Q38.7656 54.5469 39.8438 54.4219
Q40.9219 54.2969 43.0625 53.9531
z
" id="Verdana-72"/>
      <path d="
M37.9375 27.3906
L7.46875 27.3906
L7.46875 36.2344
L37.9375 36.2344
z
" id="Verdana-2d"/>
      <path d="
M18.3125 0
L9.125 0
L9.125 75.9844
L18.3125 75.9844
z
" id="Verdana-6c"/>
      <path d="
M57.3281 50.7344
Q57.3281 45.9062 55.6406 41.7656
Q53.9531 37.6406 50.9219 34.625
Q47.1719 30.8594 42.0469 28.9688
Q36.9219 27.0938 29.1094 27.0938
L19.4375 27.0938
L19.4375 0
L9.76562 0
L9.76562 72.7031
L29.5 72.7031
Q36.0312 72.7031 40.5781 71.6094
Q45.125 70.5156 48.6406 68.1719
Q52.7812 65.375 55.0469 61.2188
Q57.3281 57.0781 57.3281 50.7344
M47.2656 50.4844
Q47.2656 54.25 45.9375 57.0312
Q44.625 59.8125 41.9375 61.5781
Q39.5938 63.0938 36.5938 63.75
Q33.5938 64.4062 29 64.4062
L19.4375 64.4062
L19.4375 35.3594
L27.5938 35.3594
Q33.4531 35.3594 37.1094 36.4062
Q40.7656 37.4531 43.0625 39.75
Q45.3594 42.0938 46.3125 44.6719
Q47.2656 47.2656 47.2656 50.4844" id="Verdana-50"/>
      <path d="
M61.625 64.1094
L35.6406 64.1094
L35.6406 0
L25.9844 0
L25.9844 64.1094
L0 64.1094
L0 72.7031
L61.625 72.7031
z
" id="Verdana-54"/>
      <path d="
M51.4219 0
L42.2812 0
L42.2812 5.8125
Q41.0625 4.98438 38.9844 3.48438
Q36.9219 2 34.9688 1.125
Q32.6719 0 29.6875 -0.75
Q26.7031 -1.51562 22.7031 -1.51562
Q15.3281 -1.51562 10.2031 3.35938
Q5.07812 8.25 5.07812 15.8281
Q5.07812 22.0156 7.73438 25.8438
Q10.4062 29.6875 15.3281 31.8906
Q20.3125 34.0781 27.2969 34.8594
Q34.2812 35.6406 42.2812 36.0312
L42.2812 37.4531
Q42.2812 40.5781 41.1875 42.625
Q40.0938 44.6719 38.0312 45.8438
Q36.0781 46.9688 33.3438 47.3594
Q30.6094 47.75 27.6406 47.75
Q24.0312 47.75 19.5781 46.7969
Q15.1406 45.8438 10.4062 44.0469
L9.90625 44.0469
L9.90625 53.375
Q12.5938 54.1094 17.6719 54.9844
Q22.75 55.8594 27.6875 55.8594
Q33.4531 55.8594 37.7188 54.9062
Q42 53.9531 45.125 51.6562
Q48.1875 49.4219 49.7969 45.8438
Q51.4219 42.2812 51.4219 37.0156
z

M42.2812 13.4219
L42.2812 28.6094
Q38.0938 28.375 32.3906 27.875
Q26.7031 27.3906 23.3906 26.4688
Q19.4375 25.3438 16.9844 22.9688
Q14.5469 20.6094 14.5469 16.4531
Q14.5469 11.7656 17.375 9.39062
Q20.2188 7.03125 26.0312 7.03125
Q30.8594 7.03125 34.8594 8.90625
Q38.875 10.7969 42.2812 13.4219" id="Verdana-61"/>
      <path d="
M71.1875 36.2812
Q71.1875 26.375 66.8594 18.3125
Q62.5469 10.25 55.375 5.8125
Q50.3906 2.73438 44.2656 1.35938
Q38.1406 0 28.125 0
L9.76562 0
L9.76562 72.7031
L27.9375 72.7031
Q38.5781 72.7031 44.8438 71.1562
Q51.125 69.625 55.4688 66.9375
Q62.8906 62.3125 67.0312 54.5938
Q71.1875 46.875 71.1875 36.2812
M61.0781 36.4219
Q61.0781 44.9688 58.0938 50.8281
Q55.125 56.6875 49.2188 60.0625
Q44.9219 62.5 40.0781 63.4531
Q35.25 64.4062 28.5156 64.4062
L19.4375 64.4062
L19.4375 8.29688
L28.5156 8.29688
Q35.5 8.29688 40.7031 9.32812
Q45.9062 10.3594 50.25 13.1406
Q55.6719 16.6094 58.375 22.2656
Q61.0781 27.9375 61.0781 36.4219" id="Verdana-44"/>
     </defs>
     <g transform="translate(42.345 291.493125)rotate(-90.0)scale(0.12 -0.12)">
      <use xlink:href="#Verdana-44"/>
      <use x="77.05078125" xlink:href="#Verdana-61"/>
      <use x="137.109375" xlink:href="#Verdana-74"/>
      <use x="176.513671875" xlink:href="#Verdana-61"/>
      <use x="236.572265625" xlink:href="#Verdana-20"/>
      <use x="271.728515625" xlink:href="#Verdana-50"/>
      <use x="332.03125" xlink:href="#Verdana-72"/>
      <use x="374.70703125" xlink:href="#Verdana-6f"/>
      <use x="435.400390625" xlink:href="#Verdana-66"/>
      <use x="470.556640625" xlink:href="#Verdana-69"/>
      <use x="497.998046875" xlink:href="#Verdana-6c"/>
      <use x="525.439453125" xlink:href="#Verdana-65"/>
      <use x="585.009765625" xlink:href="#Verdana-20"/>
      <use x="620.166015625" xlink:href="#Verdana-54"/>
      <use x="674.412109375" xlink:href="#Verdana-2d"/>
      <use x="719.822265625" xlink:href="#Verdana-30"/>
      <use x="783.396484375" xlink:href="#Verdana-2e"/>
      <use x="819.7734375" xlink:href="#Verdana-30"/>
      <use x="883.34765625" xlink:href="#Verdana-30"/>
      <use x="946.921875" xlink:href="#Verdana-31"/>
      <use x="1010.49609375" xlink:href="#Verdana-30"/>
      <use x="1074.0703125" xlink:href="#Verdana-30"/>
      <use x="1137.64453125" xlink:href="#Verdana-30"/>
      <use x="1201.21875" xlink:href="#Verdana-30"/>
     </g>
    </g>
   </g>
   <g id="patch_3">
    <path d="
M72 388.8
L518.4 388.8" style="fill:none;stroke:#000000;"/>
   </g>
   <g id="patch_4">
    <path d="
M518.4 388.8
L518.4 43.2" style="fill:none;stroke:#000000;"/>
   </g>
   <g id="patch_5">
    <path d="
M72 388.8
L72 43.2" style="fill:none;stroke:#000000;"/>
   </g>
   <g id="patch_6">
    <path d="
M72 43.2
L518.4 43.2" style="fill:none;stroke:#000000;"/>
   </g>
   <g id="text_15">
    <!-- Qing Data Profile T-0.0010000 -->
    <defs>
     <path d="
M53.2656 6.20312
Q53.2656 -7.67188 46.9688 -14.1562
Q40.6719 -20.6562 27.5938 -20.6562
Q23.25 -20.6562 19.1094 -20.0469
Q14.9844 -19.4375 10.9844 -18.3125
L10.9844 -8.9375
L11.4688 -8.9375
Q13.7188 -9.8125 18.5938 -11.1094
Q23.4844 -12.4062 28.375 -12.4062
Q33.0625 -12.4062 36.125 -11.2812
Q39.2031 -10.1562 40.9219 -8.15625
Q42.625 -6.25 43.3594 -3.5625
Q44.0938 -0.875 44.0938 2.4375
L44.0938 7.42188
Q39.9375 4.10938 36.1562 2.46875
Q32.375 0.828125 26.5156 0.828125
Q16.75 0.828125 11.0156 7.875
Q5.28125 14.9375 5.28125 27.7812
Q5.28125 34.8125 7.25 39.9062
Q9.23438 45.0156 12.6406 48.7344
Q15.8281 52.2031 20.3594 54.125
Q24.9062 56.0625 29.3906 56.0625
Q34.125 56.0625 37.3281 55.1094
Q40.5312 54.1562 44.0938 52.2031
L44.6719 54.5469
L53.2656 54.5469
z

M44.0938 14.9844
L44.0938 44.7344
Q40.4375 46.3906 37.2812 47.0938
Q34.125 47.7969 31 47.7969
Q23.4375 47.7969 19.0938 42.7188
Q14.75 37.6406 14.75 27.9844
Q14.75 18.7969 17.9688 14.0625
Q21.1875 9.32812 28.6562 9.32812
Q32.6719 9.32812 36.6875 10.8594
Q40.7188 12.4062 44.0938 14.9844" id="Verdana-67"/>
     <path d="
M74.6094 -17.8281
Q71.6875 -18.5625 68.8281 -18.875
Q65.9688 -19.1875 62.9844 -19.1875
Q54.5 -19.1875 49.3438 -14.5156
Q44.1875 -9.85938 43.75 -1.17188
Q42.5781 -1.375 41.4688 -1.4375
Q40.375 -1.51562 39.3594 -1.51562
Q31.6875 -1.51562 25.4062 1.01562
Q19.1406 3.5625 14.75 8.40625
Q10.3594 13.2344 7.98438 20.2656
Q5.60938 27.2969 5.60938 36.3281
Q5.60938 45.2188 7.95312 52.2656
Q10.2969 59.3281 14.7969 64.3594
Q19.0938 69.1406 25.4688 71.6719
Q31.8438 74.2188 39.3594 74.2188
Q47.1719 74.2188 53.3906 71.6562
Q59.625 69.0938 63.9688 64.3594
Q68.4062 59.4688 70.7656 52.3906
Q73.1406 45.3125 73.1406 36.3281
Q73.1406 23 67.6875 13.8594
Q62.25 4.73438 53.0781 1.07812
Q53.2656 -4.5 55.7031 -7.5625
Q58.1562 -10.6406 64.5938 -10.6406
Q66.6094 -10.6406 69.3594 -10.0312
Q72.125 -9.42188 73.2969 -8.9375
L74.6094 -8.9375
z

M63.0938 36.3281
Q63.0938 50.4844 56.7344 58.1719
Q50.3906 65.875 39.4062 65.875
Q28.3281 65.875 22 58.1719
Q15.6719 50.4844 15.6719 36.3281
Q15.6719 22.0156 22.1094 14.4219
Q28.5625 6.84375 39.4062 6.84375
Q50.25 6.84375 56.6719 14.4219
Q63.0938 22.0156 63.0938 36.3281" id="Verdana-51"/>
    </defs>
    <g transform="translate(185.391 38.2)scale(0.144 -0.144)">
     <use xlink:href="#Verdana-51"/>
     <use x="78.7109375" xlink:href="#Verdana-69"/>
     <use x="106.15234375" xlink:href="#Verdana-6e"/>
     <use x="169.43359375" xlink:href="#Verdana-67"/>
     <use x="231.73828125" xlink:href="#Verdana-20"/>
     <use x="266.89453125" xlink:href="#Verdana-44"/>
     <use x="343.9453125" xlink:href="#Verdana-61"/>
     <use x="404.00390625" xlink:href="#Verdana-74"/>
     <use x="443.408203125" xlink:href="#Verdana-61"/>
     <use x="503.466796875" xlink:href="#Verdana-20"/>
     <use x="538.623046875" xlink:href="#Verdana-50"/>
     <use x="598.92578125" xlink:href="#Verdana-72"/>
     <use x="641.6015625" xlink:href="#Verdana-6f"/>
     <use x="702.294921875" xlink:href="#Verdana-66"/>
     <use x="737.451171875" xlink:href="#Verdana-69"/>
     <use x="764.892578125" xlink:href="#Verdana-6c"/>
     <use x="792.333984375" xlink:href="#Verdana-65"/>
     <use x="851.904296875" xlink:href="#Verdana-20"/>
     <use x="887.060546875" xlink:href="#Verdana-54"/>
     <use x="941.306640625" xlink:href="#Verdana-2d"/>
     <use x="986.716796875" xlink:href="#Verdana-30"/>
     <use x="1050.291015625" xlink:href="#Verdana-2e"/>
     <use x="1086.66796875" xlink:href="#Verdana-30"/>
     <use x="1150.2421875" xlink:href="#Verdana-30"/>
     <use x="1213.81640625" xlink:href="#Verdana-31"/>
     <use x="1277.390625" xlink:href="#Verdana-30"/>
     <use x="1340.96484375" xlink:href="#Verdana-30"/>
     <use x="1404.5390625" xlink:href="#Verdana-30"/>
     <use x="1468.11328125" xlink:href="#Verdana-30"/>
    </g>
   </g>
   <g id="legend_1">
    <g id="patch_7">
     <path d="
M407.18 381.6
L511.2 381.6
L511.2 272.081
L407.18 272.081
L407.18 381.6
z
" style="fill:#ffffff;stroke:#000000;"/>
    </g>
    <g id="line2d_30">
     <path d="
M417.26 283.743
L437.42 283.743" style="fill:none;stroke:#0000ff;stroke-dasharray:6.000000,2.000000;stroke-dashoffset:0.0;"/>
    </g>
    <g id="line2d_31"/>
    <g id="text_16">
     <!-- AMPGO -->
     <defs>
      <path d="
M67.0938 0
L56.7812 0
L49.6562 20.2656
L18.2188 20.2656
L11.0781 0
L1.26562 0
L27.7344 72.7031
L40.625 72.7031
z

M46.6875 28.5625
L33.9375 64.2656
L21.1406 28.5625
z
" id="Verdana-41"/>
      <path d="
M74.5156 0
L64.8438 0
L64.8438 62.6406
L44.625 20.0156
L38.875 20.0156
L18.7969 62.6406
L18.7969 0
L9.76562 0
L9.76562 72.7031
L22.9531 72.7031
L42.3281 32.2344
L61.0781 72.7031
L74.5156 72.7031
z
" id="Verdana-4d"/>
      <path d="
M70.4062 5.375
Q64.4531 2.64062 57.3906 0.609375
Q50.3438 -1.42188 43.75 -1.42188
Q35.25 -1.42188 28.1719 0.921875
Q21.0938 3.26562 16.1094 7.95312
Q11.0781 12.7031 8.34375 19.7969
Q5.60938 26.9062 5.60938 36.4219
Q5.60938 53.8594 15.7969 63.9375
Q25.9844 74.0312 43.75 74.0312
Q49.9531 74.0312 56.4219 72.5312
Q62.8906 71.0469 70.3594 67.4844
L70.3594 56
L69.4844 56
Q67.9688 57.1719 65.0781 59.0781
Q62.2031 60.9844 59.4219 62.25
Q56.0625 63.7656 51.7812 64.7656
Q47.5156 65.7656 42.0938 65.7656
Q29.8906 65.7656 22.7812 57.9219
Q15.6719 50.0938 15.6719 36.7188
Q15.6719 22.6094 23.0938 14.7656
Q30.5156 6.9375 43.3125 6.9375
Q48 6.9375 52.6562 7.85938
Q57.3281 8.79688 60.8438 10.25
L60.8438 28.0781
L41.3594 28.0781
L41.3594 36.5781
L70.4062 36.5781
z
" id="Verdana-47"/>
     </defs>
     <g transform="translate(453.26025 288.783)scale(0.144 -0.144)">
      <use xlink:href="#Verdana-41"/>
      <use x="68.359375" xlink:href="#Verdana-4d"/>
      <use x="152.63671875" xlink:href="#Verdana-50"/>
      <use x="212.939453125" xlink:href="#Verdana-47"/>
      <use x="290.478515625" xlink:href="#Verdana-4f"/>
     </g>
    </g>
    <g id="line2d_32">
     <path d="
M417.26 304.783
L437.42 304.783" style="fill:none;stroke:#008000;stroke-dasharray:1.000000,1.000000;stroke-dashoffset:0.0;"/>
    </g>
    <g id="line2d_33"/>
    <g id="text_17">
     <!-- Anneal -->
     <g transform="translate(453.26025 309.82275)scale(0.144 -0.144)">
      <use xlink:href="#Verdana-41"/>
      <use x="68.359375" xlink:href="#Verdana-6e"/>
      <use x="131.640625" xlink:href="#Verdana-6e"/>
      <use x="194.921875" xlink:href="#Verdana-65"/>
      <use x="254.4921875" xlink:href="#Verdana-61"/>
      <use x="314.55078125" xlink:href="#Verdana-6c"/>
     </g>
    </g>
    <g id="line2d_34">
     <path d="
M417.26 325.822
L437.42 325.822" style="fill:none;stroke:#ff0000;stroke-dasharray:3.000000,6.000000;stroke-dashoffset:0.0;"/>
    </g>
    <g id="line2d_35"/>
    <g id="text_18">
     <!-- BSA -->
     <defs>
      <path d="
M64.5938 22.3594
Q64.5938 16.9375 62.5469 12.7812
Q60.5 8.64062 57.0312 5.95312
Q52.9375 2.73438 48.0156 1.35938
Q43.1094 0 35.5469 0
L9.76562 0
L9.76562 72.7031
L31.2969 72.7031
Q39.2656 72.7031 43.2188 72.1094
Q47.1719 71.5312 50.7812 69.6719
Q54.7812 67.5781 56.5938 64.2812
Q58.4062 60.9844 58.4062 56.3906
Q58.4062 51.2188 55.7656 47.5781
Q53.125 43.9531 48.7344 41.75
L48.7344 41.3594
Q56.1094 39.8438 60.3438 34.8906
Q64.5938 29.9375 64.5938 22.3594
M48.3438 55.125
Q48.3438 57.7656 47.4531 59.5625
Q46.5781 61.375 44.625 62.5
Q42.3281 63.8125 39.0625 64.125
Q35.7969 64.4531 30.9531 64.4531
L19.4375 64.4531
L19.4375 43.4531
L31.9375 43.4531
Q36.4688 43.4531 39.1562 43.9219
Q41.8438 44.3906 44.1406 45.8438
Q46.4375 47.3125 47.3906 49.625
Q48.3438 51.9531 48.3438 55.125
M54.5469 21.9688
Q54.5469 26.375 53.2188 28.9531
Q51.9062 31.5469 48.4375 33.3438
Q46.0938 34.5781 42.75 34.9375
Q39.4062 35.2969 34.625 35.2969
L19.4375 35.2969
L19.4375 8.25
L32.2344 8.25
Q38.5781 8.25 42.625 8.90625
Q46.6875 9.57812 49.2656 11.3281
Q52 13.2344 53.2656 15.6719
Q54.5469 18.1094 54.5469 21.9688" id="Verdana-42"/>
      <path d="
M62.5938 20.75
Q62.5938 16.5 60.6094 12.3438
Q58.6406 8.20312 55.0781 5.32812
Q51.1719 2.20312 45.9688 0.4375
Q40.7656 -1.3125 33.4531 -1.3125
Q25.5938 -1.3125 19.3125 0.140625
Q13.0312 1.60938 6.54688 4.5
L6.54688 16.6094
L7.23438 16.6094
Q12.75 12.0156 19.9688 9.51562
Q27.2031 7.03125 33.5469 7.03125
Q42.5312 7.03125 47.5312 10.3906
Q52.5469 13.7656 52.5469 19.3906
Q52.5469 24.2188 50.1719 26.5156
Q47.7969 28.8125 42.9688 30.0781
Q39.3125 31.0625 35.0312 31.6875
Q30.7656 32.3281 25.9844 33.2969
Q16.3125 35.3594 11.6406 40.3125
Q6.98438 45.2656 6.98438 53.2188
Q6.98438 62.3594 14.6875 68.1875
Q22.4062 74.0312 34.2812 74.0312
Q41.9375 74.0312 48.3281 72.5625
Q54.7344 71.0938 59.6719 68.9531
L59.6719 57.5156
L58.9844 57.5156
Q54.8281 61.0312 48.0625 63.3438
Q41.3125 65.6719 34.2344 65.6719
Q26.4688 65.6719 21.75 62.4531
Q17.0469 59.2344 17.0469 54.1562
Q17.0469 49.6094 19.3906 47.0156
Q21.7344 44.4375 27.6406 43.0625
Q30.7656 42.3906 36.5156 41.4062
Q42.2812 40.4375 46.2969 39.4062
Q54.3906 37.25 58.4844 32.9062
Q62.5938 28.5625 62.5938 20.75" id="Verdana-53"/>
     </defs>
     <g transform="translate(453.26025 330.8625)scale(0.144 -0.144)">
      <use xlink:href="#Verdana-42"/>
      <use x="68.5546875" xlink:href="#Verdana-53"/>
      <use x="135.9140625" xlink:href="#Verdana-41"/>
     </g>
    </g>
    <g id="line2d_36">
     <path d="
M417.26 346.862
L437.42 346.862" style="fill:none;stroke:#00bfbf;stroke-dasharray:5.000000,1.000000,2.000000,1.000000,5.000000,1.000000;stroke-dashoffset:0.0;"/>
    </g>
    <g id="line2d_37"/>
    <g id="text_19">
     <!-- Cuckoo -->
     <defs>
      <path d="
M58.5469 0
L46.4375 0
L24.5625 23.875
L18.6094 18.2188
L18.6094 0
L9.42188 0
L9.42188 75.9844
L18.6094 75.9844
L18.6094 27.25
L45.125 54.5469
L56.6875 54.5469
L31.3438 29.3438
z
" id="Verdana-6b"/>
      <path d="
M65.9219 5.28125
Q63.2344 4.10938 61.0625 3.07812
Q58.8906 2.04688 55.375 0.921875
Q52.3906 0 48.8906 -0.65625
Q45.4062 -1.3125 41.2188 -1.3125
Q33.2969 -1.3125 26.8281 0.90625
Q20.3594 3.125 15.5781 7.85938
Q10.8906 12.5 8.25 19.6562
Q5.60938 26.8125 5.60938 36.2812
Q5.60938 45.2656 8.14062 52.3438
Q10.6875 59.4219 15.4844 64.3125
Q20.125 69.0469 26.6875 71.5312
Q33.25 74.0312 41.2656 74.0312
Q47.125 74.0312 52.9531 72.6094
Q58.7969 71.1875 65.9219 67.625
L65.9219 56.1562
L65.1875 56.1562
Q59.1875 61.1875 53.2656 63.4688
Q47.3594 65.7656 40.625 65.7656
Q35.1094 65.7656 30.6875 63.9844
Q26.2656 62.2031 22.7969 58.4531
Q19.4375 54.7812 17.5469 49.1875
Q15.6719 43.6094 15.6719 36.2812
Q15.6719 28.6094 17.75 23.0938
Q19.8281 17.5781 23.0938 14.1094
Q26.5156 10.5 31.0781 8.76562
Q35.6406 7.03125 40.7188 7.03125
Q47.7031 7.03125 53.7969 9.42188
Q59.9062 11.8125 65.2344 16.6094
L65.9219 16.6094
z
" id="Verdana-43"/>
     </defs>
     <g transform="translate(453.26025 351.90225)scale(0.144 -0.144)">
      <use xlink:href="#Verdana-43"/>
      <use x="69.82421875" xlink:href="#Verdana-75"/>
      <use x="133.10546875" xlink:href="#Verdana-63"/>
      <use x="185.205078125" xlink:href="#Verdana-6b"/>
      <use x="243.384765625" xlink:href="#Verdana-6f"/>
      <use x="304.078125" xlink:href="#Verdana-6f"/>
     </g>
    </g>
    <g id="line2d_38">
     <path d="
M417.26 367.902
L437.42 367.902" style="fill:none;stroke:#bf00bf;stroke-linecap:square;"/>
    </g>
    <g id="line2d_39"/>
    <g id="text_20">
     <!-- qABC -->
     <defs>
      <path d="
M53.2656 -20.125
L44.0938 -20.125
L44.0938 6.15625
Q39.8438 2.48438 35.6406 0.703125
Q31.4531 -1.07812 26.5625 -1.07812
Q16.8438 -1.07812 11.0625 6.42188
Q5.28125 13.9219 5.28125 27.0938
Q5.28125 34.125 7.29688 39.5156
Q9.32812 44.9219 12.6406 48.5781
Q15.875 52.1562 20.2188 54.1094
Q24.5625 56.0625 29.3906 56.0625
Q33.7969 56.0625 37.1875 55.0781
Q40.5781 54.1094 44.0938 52.2031
L44.6719 54.5469
L53.2656 54.5469
z

M44.0938 13.875
L44.0938 44.7344
Q40.2812 46.4375 37.3438 47.1094
Q34.4219 47.7969 31 47.7969
Q23.0469 47.7969 18.8906 42.4062
Q14.75 37.0156 14.75 27.5469
Q14.75 17.9688 18.0938 12.8125
Q21.4375 7.67188 28.6094 7.67188
Q32.625 7.67188 36.625 9.40625
Q40.625 11.1406 44.0938 13.875" id="Verdana-71"/>
     </defs>
     <g transform="translate(453.26025 372.942)scale(0.144 -0.144)">
      <use xlink:href="#Verdana-71"/>
      <use x="62.3046875" xlink:href="#Verdana-41"/>
      <use x="130.6640625" xlink:href="#Verdana-42"/>
      <use x="199.21875" xlink:href="#Verdana-43"/>
     </g>
    </g>
   </g>
  </g>
 </g>
 <defs>
  <clipPath id="p7ff5b81e1d">
   <rect height="345.6" width="446.4" x="72.0" y="43.2"/>
  </clipPath>
 </defs>
</svg>
