<?xml version="1.0" encoding="utf-8" standalone="no"?>
<!DOCTYPE svg PUBLIC "-//W3C//DTD SVG 1.1//EN"
  "http://www.w3.org/Graphics/SVG/1.1/DTD/svg11.dtd">
<!-- Created with matplotlib (http://matplotlib.org/) -->
<svg height="432pt" version="1.1" viewBox="0 0 576 432" width="576pt" xmlns="http://www.w3.org/2000/svg" xmlns:xlink="http://www.w3.org/1999/xlink">
 <defs>
  <style type="text/css">
*{stroke-linecap:butt;stroke-linejoin:round;}
  </style>
 </defs>
 <g id="figure_1">
  <g id="patch_1">
   <path d="
M0 432
L576 432
L576 0
L0 0
z
" style="fill:#ffffff;"/>
  </g>
  <g id="axes_1">
   <g id="patch_2">
    <path d="
M72 388.8
L518.4 388.8
L518.4 43.2
L72 43.2
z
" style="fill:#ffffff;"/>
   </g>
   <g id="line2d_1">
    <path clip-path="url(#p7ff5b81e1d)" d="
M72 388.8
L76.6426 388.8
L76.8211 386.747
L78.9638 386.747
L79.1424 384.282
L81.2851 384.282
L81.4637 321.857
L83.6064 321.857
L83.785 105.626
L85.9277 105.626
L86.1062 43.4053
L88.249 43.4053
L88.4275 43.2
L518.311 43.2
L518.311 43.2" style="fill:none;stroke:#0000ff;stroke-dasharray:6.000000,2.000000;stroke-dashoffset:0.0;"/>
   </g>
   <g id="line2d_2">
    <path clip-path="url(#p7ff5b81e1d)" d="
M72 388.8
L74.6784 388.8
L74.857 388.542
L75.4819 388.542
L75.6605 388.285
L75.839 388.285
L76.0176 388.542
L76.1962 388.285
L76.3747 388.285
L76.5533 388.542
L76.6426 388.542
L76.8211 388.8
L84.4992 388.8
L84.6778 388.542
L85.9277 388.542
L86.1062 388.8
L86.2848 388.542
L86.6419 388.542
L86.8205 388.285
L87.1776 388.285
L87.3562 388.027
L87.624 388.027
L87.8918 387.512
L88.0704 387.512
L88.249 387.255
L88.6061 387.255
L88.8739 386.225
L88.9632 386.225
L89.856 383.907
L90.0346 383.907
L90.2131 383.649
L90.3024 383.649
L90.8381 381.847
L91.2845 379.529
L91.3738 379.529
L91.6416 378.499
L91.7309 378.499
L91.9987 376.954
L92.4451 373.863
L93.1594 368.198
L93.2486 368.198
L93.4272 365.88
L93.8736 362.79
L94.1414 360.472
L94.4093 358.927
L94.6771 355.837
L94.7664 355.579
L95.3021 349.141
L95.5699 346.308
L96.1056 338.582
L96.1949 338.325
L96.9984 325.964
L97.5341 318.753
L98.159 309.482
L98.8733 300.726
L99.2304 295.576
L102.623 238.405
L102.712 238.147
L103.248 230.679
L104.676 208.789
L104.944 203.896
L105.034 203.896
L105.212 200.291
L105.391 199.003
L105.748 191.277
L106.284 183.294
L106.462 182.522
L106.73 177.629
L107.801 167.843
L108.337 160.374
L108.962 152.391
L109.051 152.134
L109.408 148.271
L109.498 148.013
L109.765 144.408
L109.855 143.893
L110.48 136.167
L110.658 134.622
L111.64 126.638
L111.73 126.381
L113.337 111.959
L113.604 109.642
L113.694 109.384
L114.319 104.749
L114.408 104.491
L114.854 100.371
L114.944 100.113
L115.301 97.538
L115.39 97.538
L115.747 93.9326
L115.836 93.6751
L116.551 88.2671
L116.64 88.0095
L116.819 86.7219
L117.086 85.6918
L117.622 83.1165
L117.89 82.344
L118.068 81.5714
L118.247 81.0563
L118.604 79.7687
L118.783 77.966
L119.229 76.6784
L119.408 75.3908
L119.943 73.8456
L120.122 72.558
L120.211 72.558
L120.39 72.0429
L120.658 70.4978
L121.104 70.4978
L121.729 67.4075
L121.818 67.4075
L122.086 66.3773
L122.265 66.3773
L122.711 63.287
L123.068 62.5145
L123.247 62.5145
L124.05 60.4542
L124.229 60.4542
L124.407 60.1967
L124.497 60.1967
L124.675 59.4241
L124.764 59.4241
L125.032 58.9091
L125.122 58.9091
L125.747 57.3639
L125.836 57.3639
L126.104 56.3338
L126.282 56.3338
L126.461 55.8188
L127.086 54.2736
L127.264 54.2736
L127.443 54.0161
L127.711 54.0161
L127.889 53.7586
L128.514 53.7586
L129.05 52.4709
L129.139 52.4709
L129.407 51.9559
L130.121 51.9559
L130.657 50.6683
L131.103 50.6683
L131.371 50.1532
L131.728 50.1532
L131.907 49.8957
L131.996 49.8957
L132.353 49.1231
L132.443 49.1231
L132.621 48.608
L132.889 48.093
L133.068 48.093
L133.246 47.8355
L134.942 47.8355
L135.121 47.0629
L135.389 47.0629
L135.567 46.8054
L135.835 46.8054
L136.103 46.2903
L137.889 46.2903
L138.067 46.0328
L139.049 46.0328
L139.228 45.7753
L140.21 45.7753
L140.388 45.5177
L141.013 45.5177
L141.192 45.2602
L142.353 45.2602
L142.62 44.7452
L144.049 44.7452
L144.228 44.4876
L144.763 44.4876
L144.942 44.2301
L145.299 44.2301
L145.477 43.9726
L147.442 43.9726
L147.62 43.7151
L148.87 43.7151
L149.049 43.4575
L158.959 43.4575
L159.137 43.2
L518.311 43.2
L518.311 43.2" style="fill:none;stroke:#008000;stroke-dasharray:1.000000,1.000000;stroke-dashoffset:0.0;"/>
   </g>
   <g id="line2d_3">
    <path clip-path="url(#p7ff5b81e1d)" d="
M72 388.363
L74.6784 388.363
L74.857 388.8
L145.031 388.8
L145.21 388.363
L145.388 388.363
L145.567 387.925
L147.174 387.925
L147.352 387.488
L161.548 387.488
L161.726 387.05
L165.833 387.05
L166.012 386.613
L169.137 386.613
L169.315 386.175
L170.029 386.175
L170.208 385.738
L172.44 385.738
L172.619 385.3
L172.976 385.3
L173.154 384.863
L174.315 384.863
L174.493 384.425
L181.1 384.425
L181.279 383.988
L181.904 383.988
L182.082 383.55
L184.225 383.55
L184.404 383.113
L185.028 383.113
L185.207 382.675
L186.546 382.675
L186.725 382.238
L188.778 382.238
L188.957 381.363
L193.599 381.363
L193.778 380.926
L194.224 380.926
L194.403 380.488
L194.939 380.488
L195.117 380.051
L195.296 380.051
L195.564 379.176
L195.742 379.176
L196.01 378.301
L197.081 378.301
L197.26 377.863
L198.153 377.863
L198.42 376.988
L200.295 376.988
L200.474 376.551
L201.545 376.551
L201.724 376.113
L202.438 376.113
L202.617 375.676
L204.313 375.676
L204.492 375.238
L206.009 375.238
L206.188 374.801
L206.545 374.801
L206.724 374.364
L207.706 374.364
L207.884 373.926
L208.777 373.926
L208.956 373.051
L209.134 373.051
L209.313 372.614
L209.759 372.614
L210.295 370.426
L210.563 370.426
L210.741 369.989
L211.723 369.989
L211.902 369.551
L211.991 369.551
L212.17 369.114
L213.33 369.114
L213.598 368.239
L213.777 368.239
L213.955 367.802
L214.312 367.802
L214.491 367.364
L214.759 367.364
L215.027 366.489
L215.116 366.489
L215.294 366.052
L215.741 366.052
L215.919 365.614
L216.009 365.614
L216.366 364.302
L216.544 364.302
L216.723 363.864
L216.812 363.864
L217.08 362.989
L217.526 362.989
L217.705 362.114
L217.973 362.114
L218.151 361.677
L218.419 361.677
L218.598 361.239
L218.955 361.239
L219.223 360.365
L219.491 360.365
L219.669 359.49
L219.848 359.052
L219.937 359.052
L220.205 358.177
L221.008 358.177
L221.276 357.302
L221.455 357.302
L221.633 356.427
L221.812 356.427
L222.526 353.365
L222.883 353.365
L223.062 352.928
L223.776 352.928
L223.955 351.615
L224.044 351.615
L224.222 351.178
L225.026 351.178
L225.204 350.74
L226.008 350.74
L226.544 348.553
L226.812 348.553
L226.99 347.678
L227.169 346.366
L227.436 346.366
L227.615 345.491
L228.061 343.741
L229.222 343.741
L229.49 342.866
L229.579 342.866
L229.936 341.553
L230.472 341.553
L230.651 341.116
L231.008 341.116
L231.186 340.678
L231.811 340.678
L231.99 340.241
L232.079 340.241
L232.258 339.804
L232.972 339.804
L233.15 339.366
L233.24 339.366
L233.508 337.179
L234.49 337.179
L234.847 335.866
L235.025 335.866
L235.204 334.991
L235.561 334.991
L235.74 334.554
L236.632 334.554
L236.9 333.679
L236.989 333.679
L237.257 332.804
L237.972 332.804
L238.507 330.617
L239.311 330.617
L239.489 330.179
L239.579 330.179
L239.757 329.742
L240.114 329.742
L240.204 329.304
L240.382 327.117
L240.739 327.117
L240.918 326.679
L241.364 326.679
L241.543 326.242
L243.15 326.242
L243.418 325.367
L243.775 325.367
L244.043 324.492
L244.489 324.492
L244.668 324.055
L244.846 324.055
L245.025 322.742
L245.382 322.742
L245.56 320.992
L245.917 319.68
L246.364 319.68
L246.542 319.243
L246.721 319.243
L246.9 318.805
L247.257 318.805
L247.435 317.93
L247.703 317.93
L247.882 317.493
L247.971 317.493
L248.149 317.055
L248.239 317.055
L248.507 316.18
L248.596 316.18
L249.042 313.555
L249.221 312.681
L249.667 310.931
L249.846 310.931
L250.024 310.493
L250.114 310.493
L250.292 310.056
L250.471 310.056
L250.649 308.306
L251.096 308.306
L251.364 307.431
L251.81 307.431
L251.988 306.556
L252.346 305.244
L252.881 305.244
L253.06 304.806
L253.238 304.806
L253.417 304.369
L253.596 304.369
L253.774 303.931
L253.863 303.931
L254.042 303.494
L254.131 303.494
L254.31 303.056
L254.578 303.056
L254.845 302.181
L255.203 302.181
L255.381 301.744
L255.56 301.744
L255.828 300.869
L256.095 300.869
L256.274 300.431
L256.72 300.431
L256.899 299.994
L257.167 299.994
L257.345 299.556
L257.702 299.556
L257.881 299.119
L258.149 299.119
L258.417 298.244
L258.595 298.244
L258.774 297.807
L258.952 297.807
L259.131 297.369
L259.22 297.369
L259.577 296.057
L259.934 296.057
L260.202 295.182
L260.292 295.182
L260.47 293.869
L260.649 292.994
L260.916 292.994
L261.184 291.245
L261.274 291.245
L261.541 290.37
L261.631 290.37
L261.988 288.62
L262.166 287.307
L262.256 287.307
L262.345 286.87
L262.524 287.307
L262.702 286.87
L262.881 286.87
L263.773 282.933
L264.309 282.933
L264.488 282.495
L264.666 282.495
L264.934 281.62
L265.023 281.62
L265.202 281.183
L265.38 281.183
L265.559 279.87
L265.916 279.87
L266.184 278.995
L266.72 278.995
L267.345 276.371
L267.434 276.371
L267.612 275.933
L268.327 275.933
L268.505 274.621
L268.595 274.621
L268.862 273.746
L269.13 273.746
L269.309 273.308
L269.398 273.308
L269.755 270.684
L269.844 270.684
L270.023 270.246
L270.202 270.246
L270.469 269.371
L270.559 269.371
L270.916 268.059
L271.005 268.059
L271.452 266.309
L271.63 266.309
L271.809 265.871
L272.076 265.871
L272.344 264.996
L272.434 264.996
L272.612 264.559
L272.701 264.559
L272.88 264.122
L273.148 264.122
L273.326 262.809
L273.505 261.934
L273.773 261.934
L274.13 260.622
L274.219 260.622
L274.398 259.747
L274.576 257.559
L274.666 257.559
L275.201 255.372
L275.469 255.372
L275.648 254.497
L275.826 254.497
L276.094 252.31
L276.54 252.31
L276.719 250.997
L276.898 250.997
L277.076 250.56
L277.165 250.56
L277.344 250.123
L277.433 250.123
L277.79 248.373
L277.969 247.06
L278.326 245.748
L278.505 245.748
L278.862 244.435
L279.04 244.435
L279.219 243.998
L279.487 243.998
L279.755 242.248
L279.933 242.248
L280.112 241.811
L280.29 241.811
L280.469 241.373
L280.647 239.186
L280.737 239.186
L281.183 237.436
L281.54 237.436
L281.719 236.561
L281.987 235.686
L282.076 235.686
L282.254 234.811
L282.344 234.811
L282.522 234.374
L282.969 234.374
L283.236 233.499
L283.415 233.499
L283.683 232.624
L283.772 232.624
L284.219 230.874
L284.486 230.874
L284.665 230.436
L284.933 230.436
L285.379 228.687
L285.558 228.687
L285.915 227.374
L286.004 227.374
L286.183 226.937
L286.272 226.937
L286.451 226.499
L286.629 226.499
L286.808 226.062
L287.076 226.062
L287.343 223.874
L287.433 223.874
L287.879 222.125
L287.968 222.125
L288.325 219.5
L288.861 217.312
L289.218 217.312
L289.397 216.875
L289.843 216.875
L290.111 216
L290.2 216
L290.379 215.563
L290.647 215.563
L290.825 214.688
L291.272 212.938
L291.54 212.938
L291.718 211.625
L291.897 211.625
L292.254 210.313
L292.343 210.313
L292.522 209.438
L292.7 209.875
L292.879 209.875
L293.057 209.438
L293.325 209.438
L293.504 209.001
L293.682 209.001
L294.039 207.688
L294.129 207.688
L294.396 206.813
L294.664 206.813
L294.932 205.938
L295.021 205.938
L295.379 204.626
L295.468 204.626
L295.914 202.876
L296.271 202.876
L296.45 202.001
L296.718 201.126
L296.896 201.126
L297.164 199.814
L297.253 200.251
L297.432 199.376
L297.611 199.376
L297.789 198.064
L297.968 197.189
L298.414 197.189
L298.593 195.876
L298.771 195.876
L298.95 195.002
L299.039 195.002
L299.218 194.564
L299.307 194.564
L299.485 194.127
L299.575 194.127
L299.843 193.252
L300.2 193.252
L300.468 192.377
L300.557 192.377
L301.092 190.189
L301.36 190.189
L301.539 189.752
L302.164 189.752
L302.432 188.877
L302.521 188.877
L302.7 188.439
L302.878 188.439
L303.235 187.127
L303.414 187.127
L303.592 186.69
L303.682 186.69
L303.949 185.815
L304.039 185.815
L304.217 184.94
L304.396 184.94
L304.574 184.502
L304.932 184.502
L305.11 183.19
L305.289 183.19
L305.735 181.44
L305.824 181.44
L306.003 180.128
L306.181 179.253
L306.36 178.815
L306.449 178.815
L306.896 177.065
L307.878 177.065
L308.056 176.19
L308.235 176.19
L308.681 174.441
L308.771 174.441
L308.949 174.003
L309.128 174.003
L309.663 171.816
L309.753 171.816
L309.931 170.941
L310.11 170.941
L310.288 169.628
L311.181 169.628
L311.628 167.878
L311.806 167.878
L312.074 167.004
L312.431 167.004
L312.61 165.691
L312.788 165.691
L312.967 165.254
L313.145 165.254
L313.324 164.816
L313.77 164.816
L313.949 164.379
L314.038 164.379
L314.217 163.941
L314.752 163.941
L315.556 160.442
L315.913 160.442
L316.181 159.567
L316.538 159.567
L316.716 158.692
L316.984 157.817
L317.431 157.817
L317.609 157.379
L317.699 157.379
L317.877 156.942
L318.324 156.942
L318.591 156.067
L318.681 156.067
L318.859 155.629
L319.127 155.629
L319.306 155.192
L319.663 155.192
L319.841 154.317
L320.109 154.317
L320.288 153.005
L320.734 153.005
L320.913 152.13
L321.091 151.692
L321.627 151.692
L321.805 151.255
L322.252 151.255
L322.43 149.942
L322.609 148.63
L322.698 148.63
L322.877 148.192
L323.055 148.192
L323.323 147.317
L323.591 147.317
L323.859 146.443
L324.395 146.443
L324.573 146.005
L324.93 146.005
L325.109 145.568
L325.912 145.568
L326.091 144.693
L326.359 144.693
L326.537 143.818
L327.252 143.818
L327.519 142.943
L327.966 142.943
L328.144 142.505
L328.769 142.505
L329.037 141.63
L329.126 141.63
L329.394 140.755
L329.484 140.755
L329.662 140.318
L330.019 140.318
L330.198 139.881
L330.466 139.881
L330.644 139.443
L331.001 139.443
L331.269 138.568
L331.716 138.568
L331.983 137.693
L332.162 137.693
L332.43 136.818
L332.698 136.818
L332.876 136.381
L332.965 136.381
L333.144 135.943
L333.323 135.943
L333.501 135.506
L334.126 135.506
L334.305 134.631
L334.572 134.631
L334.751 134.193
L334.93 134.193
L335.108 133.756
L335.287 133.756
L335.733 132.006
L336.001 132.006
L336.447 130.256
L336.537 130.256
L336.804 129.381
L336.983 129.381
L337.162 128.944
L337.429 128.944
L337.608 128.506
L337.697 128.506
L338.233 126.319
L338.769 126.319
L339.036 125.444
L339.483 125.444
L339.661 125.007
L339.84 125.007
L340.286 123.257
L341.268 123.257
L341.447 121.944
L341.715 121.944
L341.983 121.069
L342.072 121.069
L342.251 120.632
L342.34 120.632
L342.518 120.194
L342.876 120.194
L343.411 118.007
L343.5 118.007
L343.679 116.695
L344.036 116.695
L344.304 115.82
L344.661 115.82
L344.84 115.382
L345.108 115.382
L345.286 114.945
L345.643 114.945
L345.822 114.507
L346.715 114.507
L346.982 113.632
L347.072 113.632
L347.518 111.883
L348.322 111.883
L348.768 110.133
L349.036 110.133
L349.214 109.695
L350.107 109.695
L350.286 108.82
L350.732 108.82
L351.089 107.508
L351.268 107.508
L351.446 107.07
L351.714 107.07
L351.893 106.633
L352.428 106.633
L352.607 106.195
L352.786 106.195
L352.964 105.758
L353.232 105.758
L353.411 105.321
L353.589 105.321
L354.036 103.571
L354.214 103.571
L354.393 102.258
L354.571 102.258
L354.75 101.821
L354.928 101.821
L355.196 100.946
L355.375 100.946
L355.643 100.071
L356.268 100.071
L356.446 99.6334
L357.071 99.6334
L357.25 99.1959
L357.785 99.1959
L357.964 97.4461
L358.321 96.1337
L358.41 96.1337
L358.589 95.2587
L358.946 95.2587
L359.124 94.3838
L359.392 94.3838
L359.571 93.9463
L359.839 93.9463
L360.107 93.0714
L360.464 93.0714
L360.91 91.3215
L361.267 91.3215
L361.446 90.8841
L361.981 90.8841
L362.16 90.4466
L363.053 90.4466
L363.321 89.5716
L363.856 89.5716
L364.124 88.6967
L364.392 88.6967
L364.571 88.2592
L364.749 88.2592
L365.017 87.3843
L365.91 87.3843
L366.088 86.9468
L366.267 86.9468
L366.445 86.5094
L366.892 86.5094
L367.07 86.0719
L367.428 86.0719
L367.606 85.6344
L368.231 85.6344
L368.41 84.322
L369.392 84.322
L369.57 83.8846
L369.927 83.8846
L370.106 83.4471
L370.463 83.4471
L370.82 82.1347
L371.177 82.1347
L371.356 81.6972
L371.892 81.6972
L372.249 80.3848
L373.499 80.3848
L373.677 79.9473
L373.766 79.9473
L374.034 79.0724
L375.463 79.0724
L375.641 78.6349
L375.909 78.6349
L376.088 78.1975
L377.248 78.1975
L377.605 76.8851
L378.141 76.8851
L378.32 76.4476
L378.588 76.4476
L378.855 75.5727
L379.391 75.5727
L379.57 75.1352
L379.659 75.1352
L379.927 74.2603
L382.516 74.2603
L382.784 73.3853
L383.319 73.3853
L383.498 72.5104
L384.48 72.5104
L384.837 71.198
L385.105 71.198
L385.284 70.7605
L385.998 70.7605
L386.176 70.323
L386.444 70.323
L386.623 69.8856
L386.98 69.8856
L387.158 69.4481
L388.23 69.4481
L388.408 69.0106
L389.748 69.0106
L389.926 68.5732
L390.194 68.5732
L390.372 67.6982
L391.622 67.6982
L391.801 67.2608
L391.89 67.2608
L392.158 66.3858
L393.14 66.3858
L393.319 65.9484
L394.658 65.9484
L394.836 65.5109
L395.015 65.5109
L395.194 65.0734
L395.64 65.0734
L395.819 64.6359
L396.176 64.6359
L396.354 64.1985
L397.336 64.1985
L397.515 63.761
L398.051 63.761
L398.229 63.3235
L398.318 63.3235
L398.497 62.8861
L399.3 62.8861
L399.479 62.4486
L399.568 62.4486
L399.836 61.5737
L400.818 61.5737
L400.997 61.1362
L401.711 61.1362
L401.89 60.6987
L402.515 60.6987
L402.693 60.2613
L404.479 60.2613
L404.657 59.8238
L405.639 59.8238
L405.818 59.3863
L406.175 59.3863
L406.354 58.9489
L408.407 58.9489
L408.586 58.5114
L408.853 58.5114
L409.032 58.0739
L409.3 58.0739
L409.478 57.6365
L410.193 57.6365
L410.371 57.199
L411.621 57.199
L411.8 56.7615
L413.853 56.7615
L414.032 56.3241
L414.746 56.3241
L415.014 55.4491
L415.103 55.4491
L415.282 55.0116
L416.978 55.0116
L417.156 54.5742
L421.62 54.5742
L421.799 54.1367
L424.299 54.1367
L424.477 53.6992
L429.656 53.6992
L429.924 52.8243
L433.405 52.8243
L433.584 52.3868
L435.727 52.3868
L435.905 51.9494
L438.494 51.9494
L438.673 51.5119
L439.923 51.5119
L440.101 51.0744
L440.459 51.0744
L440.637 50.637
L445.28 50.637
L445.458 50.1995
L445.994 50.1995
L446.172 49.762
L446.262 49.762
L446.44 49.3246
L449.565 49.3246
L449.744 48.8871
L450.19 48.8871
L450.369 48.4496
L453.136 48.4496
L453.315 48.0122
L453.761 48.0122
L453.94 47.5747
L461.35 47.5747
L461.529 47.1372
L468.135 47.1372
L468.314 46.6997
L474.564 46.6997
L474.742 46.2623
L491.616 46.2623
L491.795 45.8248
L496.348 45.8248
L496.526 45.3873
L506.972 45.3873
L507.151 44.9499
L508.133 44.9499
L508.311 44.5124
L518.311 44.5124
L518.311 44.5124" style="fill:none;stroke:#ff0000;stroke-dasharray:3.000000,6.000000;stroke-dashoffset:0.0;"/>
   </g>
   <g id="line2d_4">
    <path clip-path="url(#p7ff5b81e1d)" d="
M72 388.8
L154.852 388.8
L155.03 388.447
L158.959 388.447
L159.137 388.093
L169.315 388.093
L169.494 387.74
L172.797 387.74
L172.976 387.387
L173.422 387.387
L173.601 387.033
L175.743 387.033
L175.922 386.68
L179.136 386.68
L179.315 386.326
L179.672 386.326
L179.85 385.973
L186.368 385.973
L186.546 385.62
L187.439 385.62
L187.707 384.913
L193.51 384.913
L193.689 384.206
L194.135 384.206
L194.581 382.793
L194.939 382.793
L195.117 382.439
L197.438 382.439
L197.617 382.086
L200.563 382.086
L200.831 381.379
L200.92 381.379
L201.099 380.672
L204.581 380.672
L204.759 380.319
L205.027 380.319
L205.474 378.906
L207.884 378.906
L208.331 377.492
L208.42 377.492
L208.688 376.785
L208.956 376.785
L209.313 375.725
L211.277 375.725
L211.812 373.958
L211.902 373.958
L212.08 373.605
L214.759 373.605
L214.937 373.252
L215.116 373.252
L215.294 372.898
L215.473 372.898
L215.652 372.545
L215.919 372.545
L216.187 371.838
L218.598 371.838
L218.955 370.778
L219.758 370.778
L219.937 370.425
L221.098 370.425
L221.276 370.071
L221.544 370.071
L221.723 369.718
L221.901 369.718
L222.348 368.304
L222.437 368.304
L222.705 366.891
L222.883 366.184
L223.062 365.831
L223.151 365.831
L223.419 365.124
L223.597 365.124
L223.776 364.771
L225.472 364.771
L225.829 363.004
L226.008 361.944
L226.276 361.237
L226.365 361.237
L226.544 360.177
L227.079 360.177
L227.258 359.47
L229.044 359.47
L229.401 357.703
L229.579 356.996
L229.936 355.936
L230.026 355.936
L230.293 354.523
L230.561 353.816
L230.74 353.816
L230.918 353.463
L232.168 353.463
L232.347 353.109
L232.615 353.109
L232.883 351.696
L232.972 351.696
L233.329 349.222
L233.686 349.222
L234.311 346.395
L234.49 345.688
L236.275 345.688
L236.454 345.335
L236.543 345.335
L236.722 343.568
L237.704 340.034
L237.793 340.034
L237.882 339.681
L238.061 338.621
L238.239 338.621
L238.418 338.267
L239.221 338.267
L239.4 337.914
L239.757 337.914
L239.846 337.561
L240.025 336.147
L240.204 335.794
L240.293 335.794
L240.561 333.674
L240.828 332.26
L241.007 332.26
L241.186 331.553
L241.275 331.553
L241.453 330.493
L241.632 330.493
L241.811 330.14
L243.328 330.14
L243.685 329.08
L243.775 329.08
L244.132 326.96
L244.31 326.253
L244.489 325.193
L245.114 323.072
L245.292 323.072
L245.471 322.719
L245.739 322.719
L245.917 321.659
L246.185 321.659
L246.364 321.306
L246.81 321.306
L246.989 320.952
L247.167 320.952
L247.346 320.245
L247.524 320.245
L247.971 317.418
L248.149 317.065
L248.239 317.065
L248.507 314.238
L249.399 314.238
L249.578 313.885
L250.024 313.885
L250.203 313.531
L250.471 313.531
L251.096 311.411
L251.185 311.411
L251.364 311.058
L251.542 311.058
L251.899 308.937
L252.256 307.877
L253.06 307.877
L253.238 308.231
L253.506 308.231
L253.685 307.877
L254.131 307.877
L255.113 303.99
L255.292 301.87
L255.381 301.87
L255.649 300.81
L255.828 298.69
L256.095 298.69
L256.274 298.336
L257.435 298.336
L257.792 296.923
L258.06 294.802
L258.149 294.802
L258.595 293.389
L258.774 291.622
L259.577 288.795
L261.184 288.795
L261.541 286.321
L261.631 286.321
L262.077 283.494
L262.345 282.081
L262.97 277.84
L263.238 277.84
L263.416 277.487
L264.666 277.487
L265.023 275.72
L265.738 270.773
L266.095 269.36
L266.363 266.886
L266.541 266.533
L266.898 266.533
L267.077 266.179
L267.166 266.179
L267.345 265.826
L268.327 265.826
L268.595 264.766
L268.773 263.352
L268.952 262.645
L269.13 261.585
L269.309 260.525
L269.487 258.758
L269.577 258.758
L270.38 255.931
L272.076 255.931
L272.434 254.164
L273.059 249.924
L273.148 249.924
L273.505 248.157
L273.684 246.744
L273.862 246.39
L275.469 246.39
L275.737 244.977
L275.826 244.977
L276.094 243.563
L276.898 237.909
L277.344 236.496
L277.79 236.496
L277.969 235.789
L278.148 235.436
L278.951 235.436
L279.13 234.375
L279.487 231.195
L279.755 229.782
L279.844 229.428
L280.112 227.308
L280.558 225.541
L280.737 224.481
L280.915 224.128
L282.612 224.128
L282.879 222.714
L283.058 222.714
L283.772 219.887
L284.04 217.413
L284.129 217.413
L284.308 215.647
L284.576 215.647
L284.754 214.94
L285.647 214.94
L285.826 214.587
L286.272 214.587
L286.897 211.76
L287.076 211.053
L287.254 210.699
L287.433 210.699
L287.79 208.226
L287.879 208.226
L288.147 207.519
L289.486 207.519
L289.932 205.399
L290.379 202.572
L290.647 201.865
L290.825 201.865
L291.004 200.452
L291.093 200.452
L291.718 198.331
L291.897 198.331
L292.164 197.625
L292.522 197.625
L292.7 197.271
L292.789 197.271
L292.968 196.918
L293.325 196.918
L293.504 195.858
L293.593 195.858
L294.486 189.497
L294.575 189.497
L294.932 187.73
L295.111 186.317
L295.379 186.317
L295.557 185.963
L296.896 185.963
L297.343 184.196
L297.611 182.076
L297.789 181.016
L297.968 180.309
L298.236 180.309
L298.503 178.189
L298.86 177.129
L300.468 177.129
L300.557 176.775
L300.735 175.009
L301.36 172.535
L301.539 170.415
L301.717 170.415
L301.896 168.648
L302.253 167.588
L304.039 167.588
L304.485 163.347
L304.842 161.58
L305.021 159.813
L305.199 159.107
L305.824 156.987
L307.074 156.987
L307.253 156.633
L307.699 156.633
L307.878 155.926
L307.967 155.926
L308.324 153.453
L308.413 153.453
L308.86 151.686
L309.128 148.859
L309.217 148.859
L309.485 147.445
L309.663 147.445
L309.842 146.739
L310.288 146.739
L310.467 146.385
L311.181 146.385
L312.342 141.791
L312.699 137.551
L312.877 137.551
L313.056 137.198
L313.86 137.198
L314.038 136.844
L314.306 136.844
L314.484 136.491
L314.663 136.491
L314.842 136.137
L314.931 136.137
L315.913 132.25
L316.092 130.837
L316.806 128.363
L316.895 128.363
L317.074 128.01
L318.324 128.01
L318.413 127.656
L318.591 126.596
L318.681 126.596
L319.484 123.769
L319.573 123.769
L319.752 123.063
L319.931 122.002
L320.109 120.942
L320.288 120.589
L320.734 120.589
L320.913 120.236
L321.359 120.236
L321.538 119.882
L321.895 119.882
L322.252 118.822
L322.341 118.822
L322.966 114.228
L323.145 114.228
L323.323 113.875
L323.412 113.875
L323.77 112.815
L324.037 112.815
L324.216 112.108
L325.466 112.108
L325.734 110.694
L325.912 110.694
L327.252 105.747
L328.412 105.747
L328.591 105.394
L329.037 105.394
L329.305 104.687
L329.484 104.687
L329.751 103.274
L329.93 102.213
L330.019 102.213
L330.287 100.447
L330.376 100.447
L330.644 99.0331
L330.912 99.0331
L331.091 98.6798
L331.894 98.6798
L332.073 98.3264
L332.251 98.3264
L332.43 97.973
L332.876 97.973
L333.323 96.5595
L333.412 96.5595
L333.59 96.2061
L333.68 96.2061
L333.858 95.8528
L333.948 95.8528
L334.215 94.4393
L334.305 94.4393
L334.483 94.0859
L334.662 94.0859
L334.84 93.7325
L335.376 93.7325
L335.555 93.3791
L336.09 93.3791
L336.447 92.319
L336.537 92.319
L336.804 90.9055
L337.162 90.9055
L337.519 89.8454
L337.608 89.8454
L337.787 88.7853
L337.876 88.7853
L338.054 88.4319
L339.572 88.4319
L339.929 87.3718
L340.019 87.3718
L340.286 86.665
L340.376 86.665
L340.733 85.6049
L343.768 85.6049
L344.304 83.838
L344.661 83.838
L345.018 82.7779
L345.554 82.7779
L345.732 82.0712
L346.982 82.0712
L347.161 81.3644
L347.429 81.3644
L347.697 80.6577
L347.875 80.6577
L348.054 80.3043
L348.143 80.3043
L348.589 78.8908
L351.357 78.8908
L351.536 78.184
L351.714 77.8307
L351.893 77.8307
L352.071 77.4773
L354.214 77.4773
L354.393 77.1239
L354.839 77.1239
L355.375 75.3571
L355.643 75.3571
L356 74.2969
L357.607 74.2969
L357.875 73.5902
L358.142 73.5902
L358.321 72.5301
L358.41 72.5301
L358.589 72.1767
L358.857 72.1767
L359.035 71.8233
L359.124 71.8233
L359.303 71.4699
L360.999 71.4699
L361.178 71.1166
L361.267 71.1166
L361.535 70.4098
L361.803 70.4098
L361.981 70.0564
L362.16 70.0564
L362.339 69.3497
L362.696 69.3497
L362.874 68.6429
L364.928 68.6429
L365.285 67.5828
L365.642 67.5828
L365.82 67.2294
L366.445 67.2294
L366.624 66.8761
L368.588 66.8761
L368.945 65.816
L369.124 65.816
L369.392 65.1092
L369.481 65.1092
L370.017 63.3423
L372.159 63.3423
L372.427 62.6356
L373.32 62.6356
L373.499 61.9288
L375.552 61.9288
L375.82 61.2221
L375.998 61.2221
L376.177 60.8687
L376.266 60.8687
L376.445 60.5153
L376.891 60.5153
L377.07 59.8086
L379.659 59.8086
L379.837 59.4552
L380.105 59.4552
L380.284 59.1018
L382.605 59.1018
L382.784 58.0417
L382.873 58.0417
L383.052 57.6883
L383.23 57.6883
L383.409 57.335
L387.605 57.335
L387.783 56.9816
L387.873 56.9816
L388.051 56.6282
L389.837 56.6282
L390.105 55.9215
L390.551 55.9215
L390.819 55.2147
L390.997 55.2147
L391.176 54.508
L391.355 54.1546
L393.14 54.1546
L393.408 53.4479
L393.854 53.4479
L394.033 53.0945
L394.301 53.0945
L394.479 52.7411
L397.068 52.7411
L397.247 52.3877
L397.783 52.3877
L397.961 52.0344
L398.586 52.0344
L398.765 51.681
L399.658 51.681
L399.836 51.3276
L404.122 51.3276
L404.3 50.9742
L404.479 50.9742
L404.836 49.9141
L404.925 49.9141
L405.104 49.5607
L407.693 49.5607
L407.961 48.854
L408.228 48.854
L408.407 48.5006
L408.675 48.5006
L408.853 48.1472
L411.353 48.1472
L411.532 47.7939
L412.692 47.7939
L412.871 47.4405
L418.853 47.4405
L419.031 47.0871
L421.888 47.0871
L422.067 46.7337
L422.245 46.7337
L422.424 46.3804
L429.566 46.3804
L429.834 45.6736
L433.941 45.6736
L434.12 45.3202
L440.369 45.3202
L440.548 44.9669
L478.581 44.9669
L478.76 44.6135
L479.652 44.6135
L479.831 44.2601
L485.456 44.2601
L485.634 43.9067
L518.311 43.9067
L518.311 43.9067" style="fill:none;stroke:#00bfbf;stroke-dasharray:5.000000,1.000000,2.000000,1.000000,5.000000,1.000000;stroke-dashoffset:0.0;"/>
   </g>
   <g id="line2d_5">
    <path clip-path="url(#p7ff5b81e1d)" d="
M72 388.8
L93.4272 388.8
L93.6058 388.565
L95.2128 388.565
L95.3914 388.33
L97.3555 388.33
L97.6234 387.86
L97.7126 387.86
L97.8912 387.625
L98.0698 387.625
L98.3376 387.155
L98.5162 387.155
L98.784 386.686
L100.57 386.686
L100.748 385.981
L100.927 385.276
L101.016 385.276
L101.284 384.336
L101.373 384.336
L101.641 383.631
L102.087 380.812
L102.266 380.342
L104.052 380.342
L104.319 379.872
L104.498 378.932
L104.587 378.932
L104.944 375.878
L105.123 375.878
L105.391 373.999
L105.48 373.529
L105.748 370.944
L105.926 370.24
L106.105 370.24
L106.641 369.065
L106.998 369.065
L107.176 368.83
L107.623 368.83
L107.891 366.95
L107.98 366.715
L108.337 363.426
L108.516 363.191
L109.14 357.553
L109.23 357.553
L109.498 355.673
L109.676 355.673
L109.855 355.438
L110.123 355.438
L110.301 355.203
L110.926 355.203
L111.105 354.968
L111.194 354.968
L111.551 350.035
L112.712 334.293
L112.98 329.595
L113.069 329.595
L113.247 329.36
L113.962 329.36
L114.14 329.125
L114.319 329.125
L114.497 328.89
L114.676 328.89
L114.765 328.655
L114.944 326.07
L115.301 319.727
L116.64 299.992
L116.997 299.992
L117.176 299.757
L117.354 299.757
L117.533 299.522
L117.622 299.522
L117.801 298.817
L117.89 298.817
L118.158 297.877
L118.247 297.877
L118.336 297.642
L118.515 295.058
L119.051 284.956
L119.14 284.251
L119.586 275.088
L120.122 266.395
L120.3 266.16
L120.747 266.16
L120.925 265.925
L121.015 265.925
L121.193 265.69
L121.64 265.69
L121.908 264.985
L123.782 236.088
L124.497 236.088
L124.764 235.618
L124.854 235.618
L125.032 235.383
L125.479 235.383
L125.836 229.979
L126.104 224.106
L126.193 223.636
L126.461 218.937
L126.729 216.352
L127.443 208.129
L127.532 208.129
L127.889 207.425
L127.979 207.425
L128.157 207.19
L128.961 207.19
L129.05 206.72
L129.586 198.497
L129.943 192.623
L130.3 188.159
L130.836 180.171
L131.103 180.171
L131.371 179.701
L131.639 179.701
L131.818 179.232
L131.907 179.232
L132.264 178.527
L132.621 178.527
L133.335 169.834
L134.496 155.267
L134.675 155.032
L135.478 155.032
L135.657 154.798
L136.192 154.798
L137.085 146.34
L137.174 145.87
L137.442 140.936
L137.621 139.761
L138.156 135.062
L139.228 135.062
L139.496 134.593
L139.764 134.593
L139.853 133.888
L140.031 131.303
L140.121 131.303
L141.192 120.731
L141.281 120.496
L141.549 117.207
L142.085 117.207
L142.263 116.972
L142.353 116.972
L142.531 116.502
L143.067 116.502
L143.424 115.327
L143.513 114.857
L143.692 112.978
L143.781 112.743
L144.138 110.628
L144.228 110.393
L144.942 105.225
L145.12 104.99
L146.817 104.99
L146.995 104.285
L147.352 100.996
L147.442 100.996
L147.709 98.8813
L147.799 98.6464
L148.513 93.7126
L148.602 93.4776
L148.781 93.7126
L149.049 93.2427
L149.406 93.2427
L149.584 93.0077
L149.763 93.0077
L149.941 92.7728
L150.031 92.7728
L150.299 91.833
L150.477 91.833
L150.656 90.1884
L150.924 89.2487
L151.013 89.0137
L151.37 86.8993
L151.459 86.8993
L151.727 85.0197
L151.995 83.6101
L152.352 82.2004
L153.78 82.2004
L153.959 81.9655
L154.048 81.9655
L154.316 81.0257
L154.495 80.0859
L154.673 79.3811
L154.941 77.5016
L155.388 73.9774
L155.566 73.2726
L155.745 73.2726
L155.923 72.8027
L156.28 72.8027
L156.459 72.5678
L157.084 72.5678
L157.262 72.3328
L157.709 72.3328
L157.887 71.628
L158.066 70.2184
L158.244 69.2786
L158.691 68.3388
L158.78 68.3388
L159.048 67.8689
L159.227 66.9292
L159.316 66.9292
L159.494 66.6942
L160.834 66.6942
L161.012 66.4593
L161.191 66.4593
L161.28 66.2243
L161.548 64.8147
L161.637 64.8147
L162.441 62.9351
L162.53 62.9351
L162.708 62.4653
L162.798 62.4653
L162.976 61.5255
L164.494 61.5255
L164.673 61.2906
L164.762 61.2906
L165.03 60.3508
L165.208 60.1158
L165.298 60.1158
L166.726 56.5917
L168.333 56.5917
L168.69 55.6519
L168.869 54.9471
L168.958 54.9471
L169.137 54.7122
L169.226 54.7122
L169.494 54.2423
L169.94 54.2423
L170.119 54.0073
L172.351 54.0073
L172.529 53.7724
L172.708 53.7724
L172.886 53.3025
L173.065 53.3025
L173.333 52.3627
L173.511 51.8929
L173.868 51.188
L175.297 51.188
L175.476 50.9531
L175.565 50.9531
L175.743 50.2483
L175.922 50.2483
L176.368 49.3085
L176.725 49.3085
L176.904 49.0736
L179.404 49.0736
L179.582 48.8386
L179.761 48.8386
L179.94 48.6037
L180.029 48.6037
L180.207 48.1338
L180.386 47.8988
L182.796 47.8988
L183.154 47.194
L183.332 47.194
L183.6 46.7241
L183.868 46.7241
L184.046 46.4892
L185.207 46.4892
L185.386 46.2542
L186.725 46.2542
L186.903 46.0193
L187.35 46.0193
L187.528 45.7844
L191.1 45.7844
L191.278 45.5494
L193.51 45.5494
L193.689 45.3145
L193.867 45.3145
L194.046 45.0795
L194.135 45.0795
L194.314 44.8446
L194.581 44.8446
L194.849 44.3747
L194.939 44.3747
L195.117 44.1398
L201.456 44.1398
L201.635 43.9048
L202.081 43.9048
L202.26 43.6699
L211.277 43.6699
L211.455 43.4349
L220.026 43.4349
L220.205 43.2
L518.311 43.2
L518.311 43.2" style="fill:none;stroke:#bf00bf;stroke-linecap:square;"/>
   </g>
   <g id="matplotlib.axis_1">
    <g id="xtick_1">
     <g id="line2d_6">
      <defs>
       <path d="
M0 0
L0 -4" id="mc7db9fdffb" style="stroke:#000000;stroke-width:0.5;"/>
      </defs>
      <g>
       <use style="stroke:#000000;stroke-width:0.5;" x="72.0" xlink:href="#mc7db9fdffb" y="388.8"/>
      </g>
     </g>
     <g id="line2d_7">
      <defs>
       <path d="
M0 0
L0 4" id="m5a7d422ac3" style="stroke:#000000;stroke-width:0.5;"/>
      </defs>
      <g>
       <use style="stroke:#000000;stroke-width:0.5;" x="72.0" xlink:href="#m5a7d422ac3" y="43.2"/>
      </g>
     </g>
     <g id="text_1">
      <!-- 0 -->
      <defs>
       <path d="
M56.9844 36.375
Q56.9844 16.7969 50.8594 7.64062
Q44.7344 -1.51562 31.8438 -1.51562
Q18.75 -1.51562 12.7188 7.76562
Q6.6875 17.0469 6.6875 36.2812
Q6.6875 55.6719 12.7812 64.9219
Q18.8906 74.1719 31.8438 74.1719
Q44.9219 74.1719 50.9531 64.7656
Q56.9844 55.375 56.9844 36.375
M44.1406 14.2031
Q45.8438 18.1719 46.4531 23.5156
Q47.0781 28.8594 47.0781 36.375
Q47.0781 43.7969 46.4531 49.2656
Q45.8438 54.7344 44.0938 58.5469
Q42.3906 62.3125 39.4219 64.2031
Q36.4688 66.1094 31.8438 66.1094
Q27.25 66.1094 24.2344 64.2031
Q21.2344 62.3125 19.4844 58.4531
Q17.8281 54.8281 17.2188 49.0156
Q16.6094 43.2188 16.6094 36.2812
Q16.6094 28.6562 17.1406 23.5312
Q17.6719 18.4062 19.4375 14.3594
Q21.0469 10.5469 24 8.54688
Q26.9531 6.54688 31.8438 6.54688
Q36.4219 6.54688 39.4531 8.45312
Q42.4844 10.3594 44.1406 14.2031" id="Verdana-30"/>
      </defs>
      <g transform="translate(68.9821875 401.918125)scale(0.12 -0.12)">
       <use xlink:href="#Verdana-30"/>
      </g>
     </g>
    </g>
    <g id="xtick_2">
     <g id="line2d_8">
      <g>
       <use style="stroke:#000000;stroke-width:0.5;" x="161.28" xlink:href="#mc7db9fdffb" y="388.8"/>
      </g>
     </g>
     <g id="line2d_9">
      <g>
       <use style="stroke:#000000;stroke-width:0.5;" x="161.28" xlink:href="#m5a7d422ac3" y="43.2"/>
      </g>
     </g>
     <g id="text_2">
      <!-- 1000 -->
      <defs>
       <path d="
M52.9375 0
L13.5781 0
L13.5781 7.42188
L28.7188 7.42188
L28.7188 56.1562
L13.5781 56.1562
L13.5781 62.7969
Q16.6562 62.7969 20.1719 63.2969
Q23.6875 63.8125 25.4844 64.7969
Q27.7344 66.0156 29.0312 67.8906
Q30.3281 69.7812 30.5156 72.9531
L38.0938 72.9531
L38.0938 7.42188
L52.9375 7.42188
z
" id="Verdana-31"/>
      </defs>
      <g transform="translate(147.2315625 401.918125)scale(0.12 -0.12)">
       <use xlink:href="#Verdana-31"/>
       <use x="63.57421875" xlink:href="#Verdana-30"/>
       <use x="127.1484375" xlink:href="#Verdana-30"/>
       <use x="190.72265625" xlink:href="#Verdana-30"/>
      </g>
     </g>
    </g>
    <g id="xtick_3">
     <g id="line2d_10">
      <g>
       <use style="stroke:#000000;stroke-width:0.5;" x="250.56" xlink:href="#mc7db9fdffb" y="388.8"/>
      </g>
     </g>
     <g id="line2d_11">
      <g>
       <use style="stroke:#000000;stroke-width:0.5;" x="250.56" xlink:href="#m5a7d422ac3" y="43.2"/>
      </g>
     </g>
     <g id="text_3">
      <!-- 2000 -->
      <defs>
       <path d="
M57.0781 0
L7.85938 0
L7.85938 10.2031
Q12.9844 14.5938 18.1406 18.9844
Q23.2969 23.3906 27.7344 27.7344
Q37.1094 36.8125 40.5781 42.1562
Q44.0469 47.5156 44.0469 53.7188
Q44.0469 59.375 40.3125 62.5625
Q36.5781 65.7656 29.8906 65.7656
Q25.4375 65.7656 20.2656 64.2031
Q15.0938 62.6406 10.1562 59.4219
L9.67188 59.4219
L9.67188 69.6719
Q13.1406 71.3906 18.9219 72.7969
Q24.7031 74.2188 30.125 74.2188
Q41.3125 74.2188 47.6562 68.8125
Q54 63.4219 54 54.2031
Q54 50.0469 52.9531 46.4531
Q51.9062 42.875 49.8594 39.6562
Q47.9531 36.625 45.3906 33.6875
Q42.8281 30.7656 39.1562 27.2031
Q33.9375 22.0781 28.3594 17.2656
Q22.7969 12.4531 17.9688 8.34375
L57.0781 8.34375
z
" id="Verdana-32"/>
      </defs>
      <g transform="translate(236.1684375 401.918125)scale(0.12 -0.12)">
       <use xlink:href="#Verdana-32"/>
       <use x="63.57421875" xlink:href="#Verdana-30"/>
       <use x="127.1484375" xlink:href="#Verdana-30"/>
       <use x="190.72265625" xlink:href="#Verdana-30"/>
      </g>
     </g>
    </g>
    <g id="xtick_4">
     <g id="line2d_12">
      <g>
       <use style="stroke:#000000;stroke-width:0.5;" x="339.84" xlink:href="#mc7db9fdffb" y="388.8"/>
      </g>
     </g>
     <g id="line2d_13">
      <g>
       <use style="stroke:#000000;stroke-width:0.5;" x="339.84" xlink:href="#m5a7d422ac3" y="43.2"/>
      </g>
     </g>
     <g id="text_4">
      <!-- 3000 -->
      <defs>
       <path d="
M50.6875 35.0156
Q53.0312 32.9062 54.5469 29.7344
Q56.0625 26.5625 56.0625 21.5312
Q56.0625 16.5469 54.25 12.3906
Q52.4375 8.25 49.1719 5.17188
Q45.5156 1.76562 40.5469 0.125
Q35.5938 -1.51562 29.6875 -1.51562
Q23.6406 -1.51562 17.7812 -0.0625
Q11.9219 1.375 8.15625 3.07812
L8.15625 13.2812
L8.89062 13.2812
Q13.0312 10.5469 18.6406 8.73438
Q24.2656 6.9375 29.5 6.9375
Q32.5625 6.9375 36.0312 7.95312
Q39.5 8.98438 41.6562 10.9844
Q43.8906 13.1406 44.9844 15.7188
Q46.0938 18.3125 46.0938 22.2656
Q46.0938 26.1719 44.8438 28.7344
Q43.6094 31.2969 41.4062 32.7656
Q39.2031 34.2812 36.0781 34.8438
Q32.9531 35.4062 29.3438 35.4062
L24.9531 35.4062
L24.9531 43.5
L28.375 43.5
Q35.7969 43.5 40.2031 46.5938
Q44.625 49.7031 44.625 55.6719
Q44.625 58.2969 43.5 60.2656
Q42.3906 62.25 40.375 63.5312
Q38.2812 64.7969 35.8906 65.2812
Q33.5 65.7656 30.4688 65.7656
Q25.8281 65.7656 20.5938 64.1094
Q15.375 62.4531 10.75 59.4219
L10.25 59.4219
L10.25 69.625
Q13.7188 71.3438 19.5 72.7812
Q25.2969 74.2188 30.7188 74.2188
Q36.0312 74.2188 40.0781 73.2344
Q44.1406 72.2656 47.4062 70.125
Q50.9219 67.7812 52.7344 64.4531
Q54.5469 61.1406 54.5469 56.6875
Q54.5469 50.6406 50.2656 46.125
Q46 41.6094 40.1875 40.4375
L40.1875 39.75
Q42.5312 39.3594 45.5469 38.1094
Q48.5781 36.8594 50.6875 35.0156" id="Verdana-33"/>
      </defs>
      <g transform="translate(325.46625 401.918125)scale(0.12 -0.12)">
       <use xlink:href="#Verdana-33"/>
       <use x="63.57421875" xlink:href="#Verdana-30"/>
       <use x="127.1484375" xlink:href="#Verdana-30"/>
       <use x="190.72265625" xlink:href="#Verdana-30"/>
      </g>
     </g>
    </g>
    <g id="xtick_5">
     <g id="line2d_14">
      <g>
       <use style="stroke:#000000;stroke-width:0.5;" x="429.12" xlink:href="#mc7db9fdffb" y="388.8"/>
      </g>
     </g>
     <g id="line2d_15">
      <g>
       <use style="stroke:#000000;stroke-width:0.5;" x="429.12" xlink:href="#m5a7d422ac3" y="43.2"/>
      </g>
     </g>
     <g id="text_5">
      <!-- 4000 -->
      <defs>
       <path d="
M58.7344 20.4531
L47.9531 20.4531
L47.9531 0
L38.5781 0
L38.5781 20.4531
L3.76562 20.4531
L3.76562 31.6875
L38.9688 72.7031
L47.9531 72.7031
L47.9531 28.2656
L58.7344 28.2656
z

M38.5781 28.2656
L38.5781 61.0781
L10.4062 28.2656
z
" id="Verdana-34"/>
      </defs>
      <g transform="translate(414.4828125 401.918125)scale(0.12 -0.12)">
       <use xlink:href="#Verdana-34"/>
       <use x="63.57421875" xlink:href="#Verdana-30"/>
       <use x="127.1484375" xlink:href="#Verdana-30"/>
       <use x="190.72265625" xlink:href="#Verdana-30"/>
      </g>
     </g>
    </g>
    <g id="xtick_6">
     <g id="line2d_16">
      <g>
       <use style="stroke:#000000;stroke-width:0.5;" x="518.4" xlink:href="#mc7db9fdffb" y="388.8"/>
      </g>
     </g>
     <g id="line2d_17">
      <g>
       <use style="stroke:#000000;stroke-width:0.5;" x="518.4" xlink:href="#m5a7d422ac3" y="43.2"/>
      </g>
     </g>
     <g id="text_6">
      <!-- 5000 -->
      <defs>
       <path d="
M56.5 23.0938
Q56.5 18.0156 54.6406 13.375
Q52.7812 8.73438 49.5625 5.5625
Q46.0469 2.15625 41.1875 0.3125
Q36.3281 -1.51562 29.9375 -1.51562
Q23.9688 -1.51562 18.4531 -0.265625
Q12.9375 0.984375 9.125 2.73438
L9.125 13.0312
L9.8125 13.0312
Q13.8125 10.5 19.1875 8.71875
Q24.5625 6.9375 29.7344 6.9375
Q33.2031 6.9375 36.4531 7.90625
Q39.7031 8.89062 42.2344 11.3281
Q44.3906 13.4219 45.4844 16.3438
Q46.5781 19.2812 46.5781 23.1406
Q46.5781 26.9062 45.2812 29.4844
Q44 32.0781 41.7031 33.6406
Q39.1562 35.5 35.5156 36.25
Q31.8906 37.0156 27.3906 37.0156
Q23.0938 37.0156 19.1094 36.4219
Q15.1406 35.8438 12.25 35.25
L12.25 72.7031
L56 72.7031
L56 64.1562
L21.6875 64.1562
L21.6875 44.8281
Q23.7812 45.0156 25.9688 45.1094
Q28.1719 45.2188 29.7812 45.2188
Q35.6875 45.2188 40.125 44.2188
Q44.5781 43.2188 48.2969 40.6719
Q52.2031 37.9844 54.3438 33.7344
Q56.5 29.5 56.5 23.0938" id="Verdana-35"/>
      </defs>
      <g transform="translate(504.084375 401.918125)scale(0.12 -0.12)">
       <use xlink:href="#Verdana-35"/>
       <use x="63.57421875" xlink:href="#Verdana-30"/>
       <use x="127.1484375" xlink:href="#Verdana-30"/>
       <use x="190.72265625" xlink:href="#Verdana-30"/>
      </g>
     </g>
    </g>
    <g id="text_7">
     <!-- Objective function exectuions -->
     <defs>
      <path d="
M37.3594 0.484375
Q34.7656 -0.203125 31.7031 -0.640625
Q28.6562 -1.07812 26.2656 -1.07812
Q17.9219 -1.07812 13.5781 3.40625
Q9.23438 7.90625 9.23438 17.8281
L9.23438 46.8281
L3.03125 46.8281
L3.03125 54.5469
L9.23438 54.5469
L9.23438 70.2188
L18.4062 70.2188
L18.4062 54.5469
L37.3594 54.5469
L37.3594 46.8281
L18.4062 46.8281
L18.4062 21.9688
Q18.4062 17.6719 18.5938 15.25
Q18.7969 12.8438 19.9688 10.75
Q21.0469 8.79688 22.9219 7.89062
Q24.8125 6.98438 28.6562 6.98438
Q30.9062 6.98438 33.3438 7.64062
Q35.7969 8.29688 36.8594 8.73438
L37.3594 8.73438
z
" id="Verdana-74"/>
      <path d="
M56.2031 54.5469
L34.125 0
L24.9062 0
L2.98438 54.5469
L12.9375 54.5469
L29.8281 11.1406
L46.5781 54.5469
z
" id="Verdana-76"/>
      <path d="
M26.0312 63.6719
L15.6719 63.6719
L15.6719 73.1875
L26.0312 73.1875
z

M25.4375 -1.3125
Q25.4375 -10.8906 20.5469 -15.7656
Q15.6719 -20.6562 7.46875 -20.6562
Q5.51562 -20.6562 2.3125 -20.2656
Q-0.875 -19.875 -3.03125 -19.2812
L-3.03125 -10.5469
L-2.54688 -10.5469
Q-1.17188 -11.0781 1.14062 -11.7656
Q3.46875 -12.4531 5.67188 -12.4531
Q9.1875 -12.4531 11.3281 -11.4688
Q13.4844 -10.5 14.5469 -8.54688
Q15.625 -6.59375 15.9375 -3.82812
Q16.2656 -1.07812 16.2656 2.875
L16.2656 46.8281
L4.89062 46.8281
L4.89062 54.5469
L25.4375 54.5469
z
" id="Verdana-6a"/>
      <path d="
M63.9688 64.3594
Q68.4062 59.4688 70.7656 52.3906
Q73.1406 45.3125 73.1406 36.3281
Q73.1406 27.3438 70.7188 20.2344
Q68.3125 13.1406 63.9688 8.40625
Q59.4688 3.46875 53.3438 0.96875
Q47.2188 -1.51562 39.3594 -1.51562
Q31.6875 -1.51562 25.4062 1.01562
Q19.1406 3.5625 14.75 8.40625
Q10.3594 13.2344 7.98438 20.2656
Q5.60938 27.2969 5.60938 36.3281
Q5.60938 45.2188 7.95312 52.2656
Q10.2969 59.3281 14.7969 64.3594
Q19.0938 69.1406 25.4688 71.6719
Q31.8438 74.2188 39.3594 74.2188
Q47.1719 74.2188 53.3906 71.6562
Q59.625 69.0938 63.9688 64.3594
M63.0938 36.3281
Q63.0938 50.4844 56.7344 58.1719
Q50.3906 65.875 39.4062 65.875
Q28.3281 65.875 22 58.1719
Q15.6719 50.4844 15.6719 36.3281
Q15.6719 22.0156 22.1094 14.4219
Q28.5625 6.84375 39.4062 6.84375
Q50.25 6.84375 56.6719 14.4219
Q63.0938 22.0156 63.0938 36.3281" id="Verdana-4f"/>
      <path d="
M54.25 0
L45.0625 0
L45.0625 6.0625
Q40.4375 2.39062 36.1875 0.4375
Q31.9375 -1.51562 26.8125 -1.51562
Q18.2188 -1.51562 13.4219 3.73438
Q8.64062 8.98438 8.64062 19.1406
L8.64062 54.5469
L17.8281 54.5469
L17.8281 23.4844
Q17.8281 19.3438 18.2188 16.375
Q18.6094 13.4219 19.875 11.3281
Q21.1875 9.1875 23.2812 8.20312
Q25.3906 7.23438 29.3906 7.23438
Q32.9531 7.23438 37.1719 9.07812
Q41.4062 10.9375 45.0625 13.8125
L45.0625 54.5469
L54.25 54.5469
z
" id="Verdana-75"/>
      <path d="
M48 15.7188
Q48 8.25 41.8125 3.46875
Q35.6406 -1.3125 24.9531 -1.3125
Q18.8906 -1.3125 13.8438 0.125
Q8.79688 1.5625 5.375 3.26562
L5.375 13.5781
L5.85938 13.5781
Q10.2031 10.2969 15.5156 8.375
Q20.8438 6.45312 25.7344 6.45312
Q31.7812 6.45312 35.2031 8.40625
Q38.625 10.3594 38.625 14.5469
Q38.625 17.7812 36.7656 19.4375
Q34.9062 21.0938 29.6406 22.2656
Q27.6875 22.7031 24.5312 23.2812
Q21.3906 23.875 18.7969 24.5625
Q11.625 26.4688 8.60938 30.1562
Q5.60938 33.8438 5.60938 39.2031
Q5.60938 42.5781 7 45.5469
Q8.40625 48.5312 11.2344 50.875
Q13.9688 53.1719 18.1875 54.5156
Q22.4062 55.8594 27.6406 55.8594
Q32.5156 55.8594 37.5156 54.6562
Q42.5312 53.4688 45.8438 51.7656
L45.8438 41.9375
L45.3594 41.9375
Q41.8438 44.5312 36.8125 46.3125
Q31.7812 48.0938 26.9531 48.0938
Q21.9219 48.0938 18.4531 46.1562
Q14.9844 44.2344 14.9844 40.4375
Q14.9844 37.0625 17.0938 35.3594
Q19.1406 33.6406 23.7344 32.5625
Q26.2656 31.9844 29.4062 31.3906
Q32.5625 30.8125 34.6719 30.3281
Q41.0625 28.8594 44.5312 25.2969
Q48 21.6875 48 15.7188" id="Verdana-73"/>
      <path d="
M56.25 0
L44.6719 0
L29.2031 20.9531
L13.625 0
L2.9375 0
L24.2188 27.2031
L3.125 54.5469
L14.7031 54.5469
L30.0781 33.9375
L45.5156 54.5469
L56.25 54.5469
L34.8125 27.6875
z
" id="Verdana-78"/>
      <path id="Verdana-20"/>
      <path d="
M38.375 67.0938
L37.8906 67.0938
Q36.375 67.5312 33.9375 67.9844
Q31.5 68.4531 29.6406 68.4531
Q23.7344 68.4531 21.0625 65.8438
Q18.4062 63.2344 18.4062 56.3906
L18.4062 54.5469
L34.9688 54.5469
L34.9688 46.8281
L18.7031 46.8281
L18.7031 0
L9.51562 0
L9.51562 46.8281
L3.32812 46.8281
L3.32812 54.5469
L9.51562 54.5469
L9.51562 56.3438
Q9.51562 66.0625 14.3438 71.2656
Q19.1875 76.4688 28.3281 76.4688
Q31.3906 76.4688 33.8594 76.1719
Q36.3281 75.875 38.375 75.4844
z
" id="Verdana-66"/>
      <path d="
M55.5156 27.25
Q55.5156 13.9219 48.6719 6.20312
Q41.8438 -1.51562 30.375 -1.51562
Q18.7969 -1.51562 11.9844 6.20312
Q5.17188 13.9219 5.17188 27.25
Q5.17188 40.5781 11.9844 48.3125
Q18.7969 56.0625 30.375 56.0625
Q41.8438 56.0625 48.6719 48.3125
Q55.5156 40.5781 55.5156 27.25
M46.0469 27.25
Q46.0469 37.8438 41.8906 42.9844
Q37.75 48.1406 30.375 48.1406
Q22.9062 48.1406 18.7812 42.9844
Q14.6562 37.8438 14.6562 27.25
Q14.6562 17 18.7969 11.6875
Q22.9531 6.39062 30.375 6.39062
Q37.7031 6.39062 41.875 11.6406
Q46.0469 16.8906 46.0469 27.25" id="Verdana-6f"/>
      <path d="
M57.0312 27.6875
Q57.0312 20.8438 55.0938 15.375
Q53.1719 9.90625 49.9062 6.20312
Q46.4375 2.34375 42.2812 0.40625
Q38.1406 -1.51562 33.1562 -1.51562
Q28.5156 -1.51562 25.0469 -0.40625
Q21.5781 0.6875 18.2188 2.54688
L17.625 0
L9.03125 0
L9.03125 75.9844
L18.2188 75.9844
L18.2188 48.8281
Q22.0781 52 26.4219 54.0312
Q30.7656 56.0625 36.1875 56.0625
Q45.8438 56.0625 51.4375 48.6406
Q57.0312 41.2188 57.0312 27.6875
M47.5625 27.4375
Q47.5625 37.2031 44.3281 42.25
Q41.1094 47.3125 33.9375 47.3125
Q29.9375 47.3125 25.8281 45.5781
Q21.7344 43.8438 18.2188 41.1094
L18.2188 9.85938
Q22.125 8.10938 24.9219 7.42188
Q27.7344 6.73438 31.2969 6.73438
Q38.9219 6.73438 43.2344 11.7344
Q47.5625 16.75 47.5625 27.4375" id="Verdana-62"/>
      <path d="
M49.3594 3.42188
Q44.7812 1.21875 40.6562 0
Q36.5312 -1.21875 31.8906 -1.21875
Q25.9844 -1.21875 21.0469 0.515625
Q16.1094 2.25 12.5938 5.76562
Q9.03125 9.28125 7.07812 14.6406
Q5.125 20.0156 5.125 27.2031
Q5.125 40.5781 12.4688 48.1875
Q19.8281 55.8125 31.8906 55.8125
Q36.5781 55.8125 41.0938 54.4844
Q45.6094 53.1719 49.3594 51.2656
L49.3594 41.0625
L48.875 41.0625
Q44.6719 44.3438 40.2031 46.0938
Q35.75 47.8594 31.5 47.8594
Q23.6875 47.8594 19.1719 42.6094
Q14.6562 37.3594 14.6562 27.2031
Q14.6562 17.3281 19.0625 12.0312
Q23.4844 6.73438 31.5 6.73438
Q34.2812 6.73438 37.1562 7.46875
Q40.0469 8.20312 42.3281 9.375
Q44.3438 10.4062 46.0938 11.5469
Q47.8594 12.7031 48.875 13.5312
L49.3594 13.5312
z
" id="Verdana-63"/>
      <path d="
M54.6406 0
L45.4531 0
L45.4531 31.0625
Q45.4531 34.8125 45.0156 38.1094
Q44.5781 41.4062 43.4062 43.2656
Q42.1875 45.3125 39.8906 46.3125
Q37.5938 47.3125 33.9375 47.3125
Q30.1719 47.3125 26.0625 45.4531
Q21.9688 43.6094 18.2188 40.7188
L18.2188 0
L9.03125 0
L9.03125 54.5469
L18.2188 54.5469
L18.2188 48.4844
Q22.5156 52.0469 27.0938 54.0469
Q31.6875 56.0625 36.5312 56.0625
Q45.3594 56.0625 50 50.7344
Q54.6406 45.4062 54.6406 35.4062
z
" id="Verdana-6e"/>
      <path d="
M54.6875 26.3125
L14.5 26.3125
Q14.5 21.2969 16.0156 17.5469
Q17.5312 13.8125 20.1719 11.4219
Q22.7031 9.07812 26.1875 7.90625
Q29.6875 6.73438 33.8906 6.73438
Q39.4531 6.73438 45.0938 8.95312
Q50.7344 11.1875 53.125 13.3281
L53.6094 13.3281
L53.6094 3.32812
Q48.9688 1.375 44.1406 0.046875
Q39.3125 -1.26562 33.9844 -1.26562
Q20.4062 -1.26562 12.7812 6.07812
Q5.17188 13.4219 5.17188 26.9531
Q5.17188 40.3281 12.4688 48.1875
Q19.7812 56.0625 31.6875 56.0625
Q42.7188 56.0625 48.7031 49.6094
Q54.6875 43.1719 54.6875 31.2969
z

M45.75 33.3438
Q45.7031 40.5781 42.1094 44.5312
Q38.5312 48.4844 31.2031 48.4844
Q23.8281 48.4844 19.4531 44.1406
Q15.0938 39.7969 14.5 33.3438
z
" id="Verdana-65"/>
      <path d="
M18.8906 63.6719
L8.54688 63.6719
L8.54688 73.1875
L18.8906 73.1875
z

M18.3125 0
L9.125 0
L9.125 54.5469
L18.3125 54.5469
z
" id="Verdana-69"/>
     </defs>
     <g transform="translate(206.5078125 418.509375)scale(0.12 -0.12)">
      <use xlink:href="#Verdana-4f"/>
      <use x="78.7109375" xlink:href="#Verdana-62"/>
      <use x="141.015625" xlink:href="#Verdana-6a"/>
      <use x="175.439453125" xlink:href="#Verdana-65"/>
      <use x="235.009765625" xlink:href="#Verdana-63"/>
      <use x="287.109375" xlink:href="#Verdana-74"/>
      <use x="326.513671875" xlink:href="#Verdana-69"/>
      <use x="353.955078125" xlink:href="#Verdana-76"/>
      <use x="412.259765625" xlink:href="#Verdana-65"/>
      <use x="471.830078125" xlink:href="#Verdana-20"/>
      <use x="506.986328125" xlink:href="#Verdana-66"/>
      <use x="542.142578125" xlink:href="#Verdana-75"/>
      <use x="605.423828125" xlink:href="#Verdana-6e"/>
      <use x="668.705078125" xlink:href="#Verdana-63"/>
      <use x="720.8046875" xlink:href="#Verdana-74"/>
      <use x="760.208984375" xlink:href="#Verdana-69"/>
      <use x="787.650390625" xlink:href="#Verdana-6f"/>
      <use x="848.34375" xlink:href="#Verdana-6e"/>
      <use x="911.625" xlink:href="#Verdana-20"/>
      <use x="946.78125" xlink:href="#Verdana-65"/>
      <use x="1006.3515625" xlink:href="#Verdana-78"/>
      <use x="1064.40625" xlink:href="#Verdana-65"/>
      <use x="1123.9765625" xlink:href="#Verdana-63"/>
      <use x="1176.076171875" xlink:href="#Verdana-74"/>
      <use x="1215.48046875" xlink:href="#Verdana-75"/>
      <use x="1278.76171875" xlink:href="#Verdana-69"/>
      <use x="1306.203125" xlink:href="#Verdana-6f"/>
      <use x="1366.896484375" xlink:href="#Verdana-6e"/>
      <use x="1430.177734375" xlink:href="#Verdana-73"/>
     </g>
    </g>
   </g>
   <g id="matplotlib.axis_2">
    <g id="ytick_1">
     <g id="line2d_18">
      <defs>
       <path d="
M0 0
L4 0" id="md7965d1ba0" style="stroke:#000000;stroke-width:0.5;"/>
      </defs>
      <g>
       <use style="stroke:#000000;stroke-width:0.5;" x="72.0" xlink:href="#md7965d1ba0" y="388.8"/>
      </g>
     </g>
     <g id="line2d_19">
      <defs>
       <path d="
M0 0
L-4 0" id="md9a1c1a7cd" style="stroke:#000000;stroke-width:0.5;"/>
      </defs>
      <g>
       <use style="stroke:#000000;stroke-width:0.5;" x="518.4" xlink:href="#md9a1c1a7cd" y="388.8"/>
      </g>
     </g>
     <g id="text_8">
      <!-- 0.0 -->
      <defs>
       <path d="
M24.0312 0
L12.3594 0
L12.3594 13.9219
L24.0312 13.9219
z
" id="Verdana-2e"/>
      </defs>
      <g transform="translate(49.97 392.1515625)scale(0.12 -0.12)">
       <use xlink:href="#Verdana-30"/>
       <use x="63.57421875" xlink:href="#Verdana-2e"/>
       <use x="99.951171875" xlink:href="#Verdana-30"/>
      </g>
     </g>
    </g>
    <g id="ytick_2">
     <g id="line2d_20">
      <g>
       <use style="stroke:#000000;stroke-width:0.5;" x="72.0" xlink:href="#md7965d1ba0" y="319.68"/>
      </g>
     </g>
     <g id="line2d_21">
      <g>
       <use style="stroke:#000000;stroke-width:0.5;" x="518.4" xlink:href="#md9a1c1a7cd" y="319.68"/>
      </g>
     </g>
     <g id="text_9">
      <!-- 0.2 -->
      <g transform="translate(49.95875 323.0315625)scale(0.12 -0.12)">
       <use xlink:href="#Verdana-30"/>
       <use x="63.57421875" xlink:href="#Verdana-2e"/>
       <use x="99.951171875" xlink:href="#Verdana-32"/>
      </g>
     </g>
    </g>
    <g id="ytick_3">
     <g id="line2d_22">
      <g>
       <use style="stroke:#000000;stroke-width:0.5;" x="72.0" xlink:href="#md7965d1ba0" y="250.56"/>
      </g>
     </g>
     <g id="line2d_23">
      <g>
       <use style="stroke:#000000;stroke-width:0.5;" x="518.4" xlink:href="#md9a1c1a7cd" y="250.56"/>
      </g>
     </g>
     <g id="text_10">
      <!-- 0.4 -->
      <g transform="translate(49.76 253.9115625)scale(0.12 -0.12)">
       <use xlink:href="#Verdana-30"/>
       <use x="63.57421875" xlink:href="#Verdana-2e"/>
       <use x="99.951171875" xlink:href="#Verdana-34"/>
      </g>
     </g>
    </g>
    <g id="ytick_4">
     <g id="line2d_24">
      <g>
       <use style="stroke:#000000;stroke-width:0.5;" x="72.0" xlink:href="#md7965d1ba0" y="181.44"/>
      </g>
     </g>
     <g id="line2d_25">
      <g>
       <use style="stroke:#000000;stroke-width:0.5;" x="518.4" xlink:href="#md9a1c1a7cd" y="181.44"/>
      </g>
     </g>
     <g id="text_11">
      <!-- 0.6 -->
      <defs>
       <path d="
M58.1562 23.5781
Q58.1562 12.5 50.8594 5.48438
Q43.5625 -1.51562 32.9531 -1.51562
Q27.5938 -1.51562 23.1875 0.140625
Q18.7969 1.8125 15.4375 5.07812
Q11.2344 9.125 8.95312 15.8125
Q6.6875 22.5156 6.6875 31.9375
Q6.6875 41.6094 8.76562 49.0781
Q10.8438 56.5469 15.375 62.3594
Q19.6719 67.875 26.4531 70.9688
Q33.25 74.0781 42.2812 74.0781
Q45.1719 74.0781 47.125 73.8281
Q49.0781 73.5781 51.0781 72.9531
L51.0781 63.625
L50.5938 63.625
Q49.2188 64.3594 46.4531 65.0156
Q43.7031 65.6719 40.8281 65.6719
Q30.3281 65.6719 24.0781 59.1094
Q17.8281 52.5469 16.7969 41.3594
Q20.9062 43.8438 24.875 45.1406
Q28.8594 46.4375 34.0781 46.4375
Q38.7188 46.4375 42.25 45.5781
Q45.7969 44.7344 49.5156 42.1406
Q53.8125 39.1562 55.9844 34.6094
Q58.1562 30.0781 58.1562 23.5781
M48.25 23.1875
Q48.25 27.7344 46.9062 30.7031
Q45.5625 33.6875 42.4844 35.8906
Q40.2344 37.4531 37.5 37.9375
Q34.7656 38.4219 31.7812 38.4219
Q27.6406 38.4219 24.0781 37.4375
Q20.5156 36.4688 16.75 34.4219
Q16.6562 33.3438 16.5938 32.3438
Q16.5469 31.3438 16.5469 29.8281
Q16.5469 22.125 18.1406 17.6562
Q19.7344 13.1875 22.5156 10.5938
Q24.75 8.45312 27.3594 7.45312
Q29.9844 6.45312 33.0625 6.45312
Q40.1406 6.45312 44.1875 10.7656
Q48.25 15.0938 48.25 23.1875" id="Verdana-36"/>
      </defs>
      <g transform="translate(49.829375 184.7915625)scale(0.12 -0.12)">
       <use xlink:href="#Verdana-30"/>
       <use x="63.57421875" xlink:href="#Verdana-2e"/>
       <use x="99.951171875" xlink:href="#Verdana-36"/>
      </g>
     </g>
    </g>
    <g id="ytick_5">
     <g id="line2d_26">
      <g>
       <use style="stroke:#000000;stroke-width:0.5;" x="72.0" xlink:href="#md7965d1ba0" y="112.32"/>
      </g>
     </g>
     <g id="line2d_27">
      <g>
       <use style="stroke:#000000;stroke-width:0.5;" x="518.4" xlink:href="#md9a1c1a7cd" y="112.32"/>
      </g>
     </g>
     <g id="text_12">
      <!-- 0.8 -->
      <defs>
       <path d="
M57.625 20.2656
Q57.625 10.8438 50.2656 4.59375
Q42.9219 -1.65625 31.7812 -1.65625
Q19.9688 -1.65625 12.9531 4.4375
Q5.95312 10.5469 5.95312 20.0625
Q5.95312 26.125 9.46875 31.0312
Q12.9844 35.9375 19.3906 38.8125
L19.3906 39.1094
Q13.5312 42.2344 10.7188 45.9375
Q7.90625 49.6562 7.90625 55.2188
Q7.90625 63.4219 14.6406 68.8906
Q21.3906 74.3594 31.7812 74.3594
Q42.6719 74.3594 49.1719 69.1406
Q55.6719 63.9219 55.6719 55.8594
Q55.6719 50.9219 52.5938 46.1562
Q49.5156 41.4062 43.5625 38.7188
L43.5625 38.4219
Q50.3906 35.5 54 31.2031
Q57.625 26.9062 57.625 20.2656
M46.0469 55.7656
Q46.0469 60.9844 42.0156 64.0781
Q37.9844 67.1875 31.7344 67.1875
Q25.5938 67.1875 21.6562 64.25
Q17.7188 61.3281 17.7188 56.3438
Q17.7188 52.8281 19.7031 50.2656
Q21.6875 47.7031 25.6875 45.7031
Q27.4844 44.8281 30.875 43.4062
Q34.2812 42 37.5 41.0625
Q42.3281 44.2812 44.1875 47.75
Q46.0469 51.2188 46.0469 55.7656
M47.5625 19.3438
Q47.5625 23.8281 45.5781 26.5312
Q43.6094 29.25 37.8438 31.9844
Q35.5469 33.0625 32.8125 33.9844
Q30.0781 34.9062 25.5312 36.5781
Q21.1406 34.1875 18.4844 30.0781
Q15.8281 25.9844 15.8281 20.7969
Q15.8281 14.2031 20.3594 9.90625
Q24.9062 5.60938 31.8906 5.60938
Q39.0156 5.60938 43.2812 9.26562
Q47.5625 12.9375 47.5625 19.3438" id="Verdana-38"/>
      </defs>
      <g transform="translate(49.893125 115.6715625)scale(0.12 -0.12)">
       <use xlink:href="#Verdana-30"/>
       <use x="63.57421875" xlink:href="#Verdana-2e"/>
       <use x="99.951171875" xlink:href="#Verdana-38"/>
      </g>
     </g>
    </g>
    <g id="ytick_6">
     <g id="line2d_28">
      <g>
       <use style="stroke:#000000;stroke-width:0.5;" x="72.0" xlink:href="#md7965d1ba0" y="43.2"/>
      </g>
     </g>
     <g id="line2d_29">
      <g>
       <use style="stroke:#000000;stroke-width:0.5;" x="518.4" xlink:href="#md9a1c1a7cd" y="43.2"/>
      </g>
     </g>
     <g id="text_13">
      <!-- 1.0 -->
      <g transform="translate(50.796875 46.5515625)scale(0.12 -0.12)">
       <use xlink:href="#Verdana-31"/>
       <use x="63.57421875" xlink:href="#Verdana-2e"/>
       <use x="99.951171875" xlink:href="#Verdana-30"/>
      </g>
     </g>
    </g>
    <g id="text_14">
     <!-- Data Profile T-0.0010000 -->
     <defs>
      <path d="
M43.0625 44.5312
L42.5781 44.5312
Q40.5312 45.0156 38.5938 45.2344
Q36.6719 45.4531 34.0312 45.4531
Q29.7812 45.4531 25.8281 43.5781
Q21.875 41.7031 18.2188 38.7188
L18.2188 0
L9.03125 0
L9.03125 54.5469
L18.2188 54.5469
L18.2188 46.4844
Q23.6875 50.875 27.8594 52.7031
Q32.0312 54.5469 36.375 54.5469
Q38.7656 54.5469 39.8438 54.4219
Q40.9219 54.2969 43.0625 53.9531
z
" id="Verdana-72"/>
      <path d="
M37.9375 27.3906
L7.46875 27.3906
L7.46875 36.2344
L37.9375 36.2344
z
" id="Verdana-2d"/>
      <path d="
M18.3125 0
L9.125 0
L9.125 75.9844
L18.3125 75.9844
z
" id="Verdana-6c"/>
      <path d="
M57.3281 50.7344
Q57.3281 45.9062 55.6406 41.7656
Q53.9531 37.6406 50.9219 34.625
Q47.1719 30.8594 42.0469 28.9688
Q36.9219 27.0938 29.1094 27.0938
L19.4375 27.0938
L19.4375 0
L9.76562 0
L9.76562 72.7031
L29.5 72.7031
Q36.0312 72.7031 40.5781 71.6094
Q45.125 70.5156 48.6406 68.1719
Q52.7812 65.375 55.0469 61.2188
Q57.3281 57.0781 57.3281 50.7344
M47.2656 50.4844
Q47.2656 54.25 45.9375 57.0312
Q44.625 59.8125 41.9375 61.5781
Q39.5938 63.0938 36.5938 63.75
Q33.5938 64.4062 29 64.4062
L19.4375 64.4062
L19.4375 35.3594
L27.5938 35.3594
Q33.4531 35.3594 37.1094 36.4062
Q40.7656 37.4531 43.0625 39.75
Q45.3594 42.0938 46.3125 44.6719
Q47.2656 47.2656 47.2656 50.4844" id="Verdana-50"/>
      <path d="
M61.625 64.1094
L35.6406 64.1094
L35.6406 0
L25.9844 0
L25.9844 64.1094
L0 64.1094
L0 72.7031
L61.625 72.7031
z
" id="Verdana-54"/>
      <path d="
M51.4219 0
L42.2812 0
L42.2812 5.8125
Q41.0625 4.98438 38.9844 3.48438
Q36.9219 2 34.9688 1.125
Q32.6719 0 29.6875 -0.75
Q26.7031 -1.51562 22.7031 -1.51562
Q15.3281 -1.51562 10.2031 3.35938
Q5.07812 8.25 5.07812 15.8281
Q5.07812 22.0156 7.73438 25.8438
Q10.4062 29.6875 15.3281 31.8906
Q20.3125 34.0781 27.2969 34.8594
Q34.2812 35.6406 42.2812 36.0312
L42.2812 37.4531
Q42.2812 40.5781 41.1875 42.625
Q40.0938 44.6719 38.0312 45.8438
Q36.0781 46.9688 33.3438 47.3594
Q30.6094 47.75 27.6406 47.75
Q24.0312 47.75 19.5781 46.7969
Q15.1406 45.8438 10.4062 44.0469
L9.90625 44.0469
L9.90625 53.375
Q12.5938 54.1094 17.6719 54.9844
Q22.75 55.8594 27.6875 55.8594
Q33.4531 55.8594 37.7188 54.9062
Q42 53.9531 45.125 51.6562
Q48.1875 49.4219 49.7969 45.8438
Q51.4219 42.2812 51.4219 37.0156
z

M42.2812 13.4219
L42.2812 28.6094
Q38.0938 28.375 32.3906 27.875
Q26.7031 27.3906 23.3906 26.4688
Q19.4375 25.3438 16.9844 22.9688
Q14.5469 20.6094 14.5469 16.4531
Q14.5469 11.7656 17.375 9.39062
Q20.2188 7.03125 26.0312 7.03125
Q30.8594 7.03125 34.8594 8.90625
Q38.875 10.7969 42.2812 13.4219" id="Verdana-61"/>
      <path d="
M71.1875 36.2812
Q71.1875 26.375 66.8594 18.3125
Q62.5469 10.25 55.375 5.8125
Q50.3906 2.73438 44.2656 1.35938
Q38.1406 0 28.125 0
L9.76562 0
L9.76562 72.7031
L27.9375 72.7031
Q38.5781 72.7031 44.8438 71.1562
Q51.125 69.625 55.4688 66.9375
Q62.8906 62.3125 67.0312 54.5938
Q71.1875 46.875 71.1875 36.2812
M61.0781 36.4219
Q61.0781 44.9688 58.0938 50.8281
Q55.125 56.6875 49.2188 60.0625
Q44.9219 62.5 40.0781 63.4531
Q35.25 64.4062 28.5156 64.4062
L19.4375 64.4062
L19.4375 8.29688
L28.5156 8.29688
Q35.5 8.29688 40.7031 9.32812
Q45.9062 10.3594 50.25 13.1406
Q55.6719 16.6094 58.375 22.2656
Q61.0781 27.9375 61.0781 36.4219" id="Verdana-44"/>
     </defs>
     <g transform="translate(42.345 291.493125)rotate(-90.0)scale(0.12 -0.12)">
      <use xlink:href="#Verdana-44"/>
      <use x="77.05078125" xlink:href="#Verdana-61"/>
      <use x="137.109375" xlink:href="#Verdana-74"/>
      <use x="176.513671875" xlink:href="#Verdana-61"/>
      <use x="236.572265625" xlink:href="#Verdana-20"/>
      <use x="271.728515625" xlink:href="#Verdana-50"/>
      <use x="332.03125" xlink:href="#Verdana-72"/>
      <use x="374.70703125" xlink:href="#Verdana-6f"/>
      <use x="435.400390625" xlink:href="#Verdana-66"/>
      <use x="470.556640625" xlink:href="#Verdana-69"/>
      <use x="497.998046875" xlink:href="#Verdana-6c"/>
      <use x="525.439453125" xlink:href="#Verdana-65"/>
      <use x="585.009765625" xlink:href="#Verdana-20"/>
      <use x="620.166015625" xlink:href="#Verdana-54"/>
      <use x="674.412109375" xlink:href="#Verdana-2d"/>
      <use x="719.822265625" xlink:href="#Verdana-30"/>
      <use x="783.396484375" xlink:href="#Verdana-2e"/>
      <use x="819.7734375" xlink:href="#Verdana-30"/>
      <use x="883.34765625" xlink:href="#Verdana-30"/>
      <use x="946.921875" xlink:href="#Verdana-31"/>
      <use x="1010.49609375" xlink:href="#Verdana-30"/>
      <use x="1074.0703125" xlink:href="#Verdana-30"/>
      <use x="1137.64453125" xlink:href="#Verdana-30"/>
      <use x="1201.21875" xlink:href="#Verdana-30"/>
     </g>
    </g>
   </g>
   <g id="patch_3">
    <path d="
M72 388.8
L518.4 388.8" style="fill:none;stroke:#000000;"/>
   </g>
   <g id="patch_4">
    <path d="
M518.4 388.8
L518.4 43.2" style="fill:none;stroke:#000000;"/>
   </g>
   <g id="patch_5">
    <path d="
M72 388.8
L72 43.2" style="fill:none;stroke:#000000;"/>
   </g>
   <g id="patch_6">
    <path d="
M72 43.2
L518.4 43.2" style="fill:none;stroke:#000000;"/>
   </g>
   <g id="text_15">
    <!-- Quintic Data Profile T-0.0010000 -->
    <defs>
     <path d="
M74.6094 -17.8281
Q71.6875 -18.5625 68.8281 -18.875
Q65.9688 -19.1875 62.9844 -19.1875
Q54.5 -19.1875 49.3438 -14.5156
Q44.1875 -9.85938 43.75 -1.17188
Q42.5781 -1.375 41.4688 -1.4375
Q40.375 -1.51562 39.3594 -1.51562
Q31.6875 -1.51562 25.4062 1.01562
Q19.1406 3.5625 14.75 8.40625
Q10.3594 13.2344 7.98438 20.2656
Q5.60938 27.2969 5.60938 36.3281
Q5.60938 45.2188 7.95312 52.2656
Q10.2969 59.3281 14.7969 64.3594
Q19.0938 69.1406 25.4688 71.6719
Q31.8438 74.2188 39.3594 74.2188
Q47.1719 74.2188 53.3906 71.6562
Q59.625 69.0938 63.9688 64.3594
Q68.4062 59.4688 70.7656 52.3906
Q73.1406 45.3125 73.1406 36.3281
Q73.1406 23 67.6875 13.8594
Q62.25 4.73438 53.0781 1.07812
Q53.2656 -4.5 55.7031 -7.5625
Q58.1562 -10.6406 64.5938 -10.6406
Q66.6094 -10.6406 69.3594 -10.0312
Q72.125 -9.42188 73.2969 -8.9375
L74.6094 -8.9375
z

M63.0938 36.3281
Q63.0938 50.4844 56.7344 58.1719
Q50.3906 65.875 39.4062 65.875
Q28.3281 65.875 22 58.1719
Q15.6719 50.4844 15.6719 36.3281
Q15.6719 22.0156 22.1094 14.4219
Q28.5625 6.84375 39.4062 6.84375
Q50.25 6.84375 56.6719 14.4219
Q63.0938 22.0156 63.0938 36.3281" id="Verdana-51"/>
    </defs>
    <g transform="translate(176.75775 38.2)scale(0.144 -0.144)">
     <use xlink:href="#Verdana-51"/>
     <use x="78.7109375" xlink:href="#Verdana-75"/>
     <use x="141.9921875" xlink:href="#Verdana-69"/>
     <use x="169.43359375" xlink:href="#Verdana-6e"/>
     <use x="232.71484375" xlink:href="#Verdana-74"/>
     <use x="272.119140625" xlink:href="#Verdana-69"/>
     <use x="299.560546875" xlink:href="#Verdana-63"/>
     <use x="351.66015625" xlink:href="#Verdana-20"/>
     <use x="386.81640625" xlink:href="#Verdana-44"/>
     <use x="463.8671875" xlink:href="#Verdana-61"/>
     <use x="523.92578125" xlink:href="#Verdana-74"/>
     <use x="563.330078125" xlink:href="#Verdana-61"/>
     <use x="623.388671875" xlink:href="#Verdana-20"/>
     <use x="658.544921875" xlink:href="#Verdana-50"/>
     <use x="718.84765625" xlink:href="#Verdana-72"/>
     <use x="761.5234375" xlink:href="#Verdana-6f"/>
     <use x="822.216796875" xlink:href="#Verdana-66"/>
     <use x="857.373046875" xlink:href="#Verdana-69"/>
     <use x="884.814453125" xlink:href="#Verdana-6c"/>
     <use x="912.255859375" xlink:href="#Verdana-65"/>
     <use x="971.826171875" xlink:href="#Verdana-20"/>
     <use x="1006.982421875" xlink:href="#Verdana-54"/>
     <use x="1061.228515625" xlink:href="#Verdana-2d"/>
     <use x="1106.638671875" xlink:href="#Verdana-30"/>
     <use x="1170.212890625" xlink:href="#Verdana-2e"/>
     <use x="1206.58984375" xlink:href="#Verdana-30"/>
     <use x="1270.1640625" xlink:href="#Verdana-30"/>
     <use x="1333.73828125" xlink:href="#Verdana-31"/>
     <use x="1397.3125" xlink:href="#Verdana-30"/>
     <use x="1460.88671875" xlink:href="#Verdana-30"/>
     <use x="1524.4609375" xlink:href="#Verdana-30"/>
     <use x="1588.03515625" xlink:href="#Verdana-30"/>
    </g>
   </g>
   <g id="legend_1">
    <g id="patch_7">
     <path d="
M407.18 381.6
L511.2 381.6
L511.2 272.081
L407.18 272.081
L407.18 381.6
z
" style="fill:#ffffff;stroke:#000000;"/>
    </g>
    <g id="line2d_30">
     <path d="
M417.26 283.743
L437.42 283.743" style="fill:none;stroke:#0000ff;stroke-dasharray:6.000000,2.000000;stroke-dashoffset:0.0;"/>
    </g>
    <g id="line2d_31"/>
    <g id="text_16">
     <!-- AMPGO -->
     <defs>
      <path d="
M67.0938 0
L56.7812 0
L49.6562 20.2656
L18.2188 20.2656
L11.0781 0
L1.26562 0
L27.7344 72.7031
L40.625 72.7031
z

M46.6875 28.5625
L33.9375 64.2656
L21.1406 28.5625
z
" id="Verdana-41"/>
      <path d="
M74.5156 0
L64.8438 0
L64.8438 62.6406
L44.625 20.0156
L38.875 20.0156
L18.7969 62.6406
L18.7969 0
L9.76562 0
L9.76562 72.7031
L22.9531 72.7031
L42.3281 32.2344
L61.0781 72.7031
L74.5156 72.7031
z
" id="Verdana-4d"/>
      <path d="
M70.4062 5.375
Q64.4531 2.64062 57.3906 0.609375
Q50.3438 -1.42188 43.75 -1.42188
Q35.25 -1.42188 28.1719 0.921875
Q21.0938 3.26562 16.1094 7.95312
Q11.0781 12.7031 8.34375 19.7969
Q5.60938 26.9062 5.60938 36.4219
Q5.60938 53.8594 15.7969 63.9375
Q25.9844 74.0312 43.75 74.0312
Q49.9531 74.0312 56.4219 72.5312
Q62.8906 71.0469 70.3594 67.4844
L70.3594 56
L69.4844 56
Q67.9688 57.1719 65.0781 59.0781
Q62.2031 60.9844 59.4219 62.25
Q56.0625 63.7656 51.7812 64.7656
Q47.5156 65.7656 42.0938 65.7656
Q29.8906 65.7656 22.7812 57.9219
Q15.6719 50.0938 15.6719 36.7188
Q15.6719 22.6094 23.0938 14.7656
Q30.5156 6.9375 43.3125 6.9375
Q48 6.9375 52.6562 7.85938
Q57.3281 8.79688 60.8438 10.25
L60.8438 28.0781
L41.3594 28.0781
L41.3594 36.5781
L70.4062 36.5781
z
" id="Verdana-47"/>
     </defs>
     <g transform="translate(453.26025 288.783)scale(0.144 -0.144)">
      <use xlink:href="#Verdana-41"/>
      <use x="68.359375" xlink:href="#Verdana-4d"/>
      <use x="152.63671875" xlink:href="#Verdana-50"/>
      <use x="212.939453125" xlink:href="#Verdana-47"/>
      <use x="290.478515625" xlink:href="#Verdana-4f"/>
     </g>
    </g>
    <g id="line2d_32">
     <path d="
M417.26 304.783
L437.42 304.783" style="fill:none;stroke:#008000;stroke-dasharray:1.000000,1.000000;stroke-dashoffset:0.0;"/>
    </g>
    <g id="line2d_33"/>
    <g id="text_17">
     <!-- Anneal -->
     <g transform="translate(453.26025 309.82275)scale(0.144 -0.144)">
      <use xlink:href="#Verdana-41"/>
      <use x="68.359375" xlink:href="#Verdana-6e"/>
      <use x="131.640625" xlink:href="#Verdana-6e"/>
      <use x="194.921875" xlink:href="#Verdana-65"/>
      <use x="254.4921875" xlink:href="#Verdana-61"/>
      <use x="314.55078125" xlink:href="#Verdana-6c"/>
     </g>
    </g>
    <g id="line2d_34">
     <path d="
M417.26 325.822
L437.42 325.822" style="fill:none;stroke:#ff0000;stroke-dasharray:3.000000,6.000000;stroke-dashoffset:0.0;"/>
    </g>
    <g id="line2d_35"/>
    <g id="text_18">
     <!-- BSA -->
     <defs>
      <path d="
M64.5938 22.3594
Q64.5938 16.9375 62.5469 12.7812
Q60.5 8.64062 57.0312 5.95312
Q52.9375 2.73438 48.0156 1.35938
Q43.1094 0 35.5469 0
L9.76562 0
L9.76562 72.7031
L31.2969 72.7031
Q39.2656 72.7031 43.2188 72.1094
Q47.1719 71.5312 50.7812 69.6719
Q54.7812 67.5781 56.5938 64.2812
Q58.4062 60.9844 58.4062 56.3906
Q58.4062 51.2188 55.7656 47.5781
Q53.125 43.9531 48.7344 41.75
L48.7344 41.3594
Q56.1094 39.8438 60.3438 34.8906
Q64.5938 29.9375 64.5938 22.3594
M48.3438 55.125
Q48.3438 57.7656 47.4531 59.5625
Q46.5781 61.375 44.625 62.5
Q42.3281 63.8125 39.0625 64.125
Q35.7969 64.4531 30.9531 64.4531
L19.4375 64.4531
L19.4375 43.4531
L31.9375 43.4531
Q36.4688 43.4531 39.1562 43.9219
Q41.8438 44.3906 44.1406 45.8438
Q46.4375 47.3125 47.3906 49.625
Q48.3438 51.9531 48.3438 55.125
M54.5469 21.9688
Q54.5469 26.375 53.2188 28.9531
Q51.9062 31.5469 48.4375 33.3438
Q46.0938 34.5781 42.75 34.9375
Q39.4062 35.2969 34.625 35.2969
L19.4375 35.2969
L19.4375 8.25
L32.2344 8.25
Q38.5781 8.25 42.625 8.90625
Q46.6875 9.57812 49.2656 11.3281
Q52 13.2344 53.2656 15.6719
Q54.5469 18.1094 54.5469 21.9688" id="Verdana-42"/>
      <path d="
M62.5938 20.75
Q62.5938 16.5 60.6094 12.3438
Q58.6406 8.20312 55.0781 5.32812
Q51.1719 2.20312 45.9688 0.4375
Q40.7656 -1.3125 33.4531 -1.3125
Q25.5938 -1.3125 19.3125 0.140625
Q13.0312 1.60938 6.54688 4.5
L6.54688 16.6094
L7.23438 16.6094
Q12.75 12.0156 19.9688 9.51562
Q27.2031 7.03125 33.5469 7.03125
Q42.5312 7.03125 47.5312 10.3906
Q52.5469 13.7656 52.5469 19.3906
Q52.5469 24.2188 50.1719 26.5156
Q47.7969 28.8125 42.9688 30.0781
Q39.3125 31.0625 35.0312 31.6875
Q30.7656 32.3281 25.9844 33.2969
Q16.3125 35.3594 11.6406 40.3125
Q6.98438 45.2656 6.98438 53.2188
Q6.98438 62.3594 14.6875 68.1875
Q22.4062 74.0312 34.2812 74.0312
Q41.9375 74.0312 48.3281 72.5625
Q54.7344 71.0938 59.6719 68.9531
L59.6719 57.5156
L58.9844 57.5156
Q54.8281 61.0312 48.0625 63.3438
Q41.3125 65.6719 34.2344 65.6719
Q26.4688 65.6719 21.75 62.4531
Q17.0469 59.2344 17.0469 54.1562
Q17.0469 49.6094 19.3906 47.0156
Q21.7344 44.4375 27.6406 43.0625
Q30.7656 42.3906 36.5156 41.4062
Q42.2812 40.4375 46.2969 39.4062
Q54.3906 37.25 58.4844 32.9062
Q62.5938 28.5625 62.5938 20.75" id="Verdana-53"/>
     </defs>
     <g transform="translate(453.26025 330.8625)scale(0.144 -0.144)">
      <use xlink:href="#Verdana-42"/>
      <use x="68.5546875" xlink:href="#Verdana-53"/>
      <use x="135.9140625" xlink:href="#Verdana-41"/>
     </g>
    </g>
    <g id="line2d_36">
     <path d="
M417.26 346.862
L437.42 346.862" style="fill:none;stroke:#00bfbf;stroke-dasharray:5.000000,1.000000,2.000000,1.000000,5.000000,1.000000;stroke-dashoffset:0.0;"/>
    </g>
    <g id="line2d_37"/>
    <g id="text_19">
     <!-- Cuckoo -->
     <defs>
      <path d="
M58.5469 0
L46.4375 0
L24.5625 23.875
L18.6094 18.2188
L18.6094 0
L9.42188 0
L9.42188 75.9844
L18.6094 75.9844
L18.6094 27.25
L45.125 54.5469
L56.6875 54.5469
L31.3438 29.3438
z
" id="Verdana-6b"/>
      <path d="
M65.9219 5.28125
Q63.2344 4.10938 61.0625 3.07812
Q58.8906 2.04688 55.375 0.921875
Q52.3906 0 48.8906 -0.65625
Q45.4062 -1.3125 41.2188 -1.3125
Q33.2969 -1.3125 26.8281 0.90625
Q20.3594 3.125 15.5781 7.85938
Q10.8906 12.5 8.25 19.6562
Q5.60938 26.8125 5.60938 36.2812
Q5.60938 45.2656 8.14062 52.3438
Q10.6875 59.4219 15.4844 64.3125
Q20.125 69.0469 26.6875 71.5312
Q33.25 74.0312 41.2656 74.0312
Q47.125 74.0312 52.9531 72.6094
Q58.7969 71.1875 65.9219 67.625
L65.9219 56.1562
L65.1875 56.1562
Q59.1875 61.1875 53.2656 63.4688
Q47.3594 65.7656 40.625 65.7656
Q35.1094 65.7656 30.6875 63.9844
Q26.2656 62.2031 22.7969 58.4531
Q19.4375 54.7812 17.5469 49.1875
Q15.6719 43.6094 15.6719 36.2812
Q15.6719 28.6094 17.75 23.0938
Q19.8281 17.5781 23.0938 14.1094
Q26.5156 10.5 31.0781 8.76562
Q35.6406 7.03125 40.7188 7.03125
Q47.7031 7.03125 53.7969 9.42188
Q59.9062 11.8125 65.2344 16.6094
L65.9219 16.6094
z
" id="Verdana-43"/>
     </defs>
     <g transform="translate(453.26025 351.90225)scale(0.144 -0.144)">
      <use xlink:href="#Verdana-43"/>
      <use x="69.82421875" xlink:href="#Verdana-75"/>
      <use x="133.10546875" xlink:href="#Verdana-63"/>
      <use x="185.205078125" xlink:href="#Verdana-6b"/>
      <use x="243.384765625" xlink:href="#Verdana-6f"/>
      <use x="304.078125" xlink:href="#Verdana-6f"/>
     </g>
    </g>
    <g id="line2d_38">
     <path d="
M417.26 367.902
L437.42 367.902" style="fill:none;stroke:#bf00bf;stroke-linecap:square;"/>
    </g>
    <g id="line2d_39"/>
    <g id="text_20">
     <!-- qABC -->
     <defs>
      <path d="
M53.2656 -20.125
L44.0938 -20.125
L44.0938 6.15625
Q39.8438 2.48438 35.6406 0.703125
Q31.4531 -1.07812 26.5625 -1.07812
Q16.8438 -1.07812 11.0625 6.42188
Q5.28125 13.9219 5.28125 27.0938
Q5.28125 34.125 7.29688 39.5156
Q9.32812 44.9219 12.6406 48.5781
Q15.875 52.1562 20.2188 54.1094
Q24.5625 56.0625 29.3906 56.0625
Q33.7969 56.0625 37.1875 55.0781
Q40.5781 54.1094 44.0938 52.2031
L44.6719 54.5469
L53.2656 54.5469
z

M44.0938 13.875
L44.0938 44.7344
Q40.2812 46.4375 37.3438 47.1094
Q34.4219 47.7969 31 47.7969
Q23.0469 47.7969 18.8906 42.4062
Q14.75 37.0156 14.75 27.5469
Q14.75 17.9688 18.0938 12.8125
Q21.4375 7.67188 28.6094 7.67188
Q32.625 7.67188 36.625 9.40625
Q40.625 11.1406 44.0938 13.875" id="Verdana-71"/>
     </defs>
     <g transform="translate(453.26025 372.942)scale(0.144 -0.144)">
      <use xlink:href="#Verdana-71"/>
      <use x="62.3046875" xlink:href="#Verdana-41"/>
      <use x="130.6640625" xlink:href="#Verdana-42"/>
      <use x="199.21875" xlink:href="#Verdana-43"/>
     </g>
    </g>
   </g>
  </g>
 </g>
 <defs>
  <clipPath id="p7ff5b81e1d">
   <rect height="345.6" width="446.4" x="72.0" y="43.2"/>
  </clipPath>
 </defs>
</svg>
