<?xml version="1.0" encoding="utf-8" standalone="no"?>
<!DOCTYPE svg PUBLIC "-//W3C//DTD SVG 1.1//EN"
  "http://www.w3.org/Graphics/SVG/1.1/DTD/svg11.dtd">
<!-- Created with matplotlib (http://matplotlib.org/) -->
<svg height="432pt" version="1.1" viewBox="0 0 576 432" width="576pt" xmlns="http://www.w3.org/2000/svg" xmlns:xlink="http://www.w3.org/1999/xlink">
 <defs>
  <style type="text/css">
*{stroke-linecap:butt;stroke-linejoin:round;}
  </style>
 </defs>
 <g id="figure_1">
  <g id="patch_1">
   <path d="
M0 432
L576 432
L576 0
L0 0
z
" style="fill:#ffffff;"/>
  </g>
  <g id="axes_1">
   <g id="patch_2">
    <path d="
M72 388.8
L518.4 388.8
L518.4 43.2
L72 43.2
z
" style="fill:#ffffff;"/>
   </g>
   <g id="line2d_1">
    <path clip-path="url(#p7ff5b81e1d)" d="
M72 388.8
L76.6426 388.8
L76.8211 388.595
L83.6064 388.595
L83.785 388.389
L85.9277 388.389
L86.1062 387.979
L88.249 387.979
L88.4275 388.389
L90.5702 388.389
L90.7488 386.541
L92.8915 386.541
L93.0701 388.389
L95.2128 388.389
L95.3914 387.979
L97.5341 387.979
L97.7126 387.773
L99.8554 387.773
L100.034 388.389
L102.177 388.389
L102.355 388.595
L104.498 388.595
L104.676 388.184
L111.462 388.184
L111.64 388.389
L116.104 388.389
L116.283 387.979
L127.711 387.979
L127.889 387.773
L130.032 387.773
L130.211 388.184
L132.353 388.184
L132.532 387.568
L136.996 387.568
L137.174 387.363
L150.924 387.363
L151.102 386.952
L155.566 386.952
L155.745 386.747
L157.887 386.747
L158.066 386.952
L160.209 386.952
L160.387 386.541
L167.172 386.541
L167.351 386.336
L171.815 386.336
L171.994 386.13
L176.458 386.13
L176.636 385.925
L178.779 385.925
L178.957 385.514
L181.1 385.514
L181.279 385.309
L183.421 385.309
L183.6 384.693
L185.743 384.693
L185.921 384.282
L188.064 384.282
L188.243 383.872
L190.385 383.872
L190.564 383.461
L197.349 383.461
L197.528 383.05
L199.67 383.05
L199.849 382.64
L201.992 382.64
L202.17 382.434
L204.313 382.434
L204.492 381.818
L208.956 381.818
L209.134 381.613
L211.277 381.613
L211.455 381.407
L213.598 381.407
L213.777 380.791
L215.919 380.791
L216.098 379.97
L218.241 379.97
L218.419 379.149
L220.562 379.149
L220.74 378.122
L222.883 378.122
L223.062 377.711
L225.204 377.711
L225.383 376.684
L227.526 376.684
L227.704 375.863
L234.49 375.863
L234.668 375.452
L236.811 375.452
L236.989 375.247
L239.132 375.247
L239.311 374.22
L241.453 374.22
L241.632 374.426
L243.775 374.426
L243.953 374.631
L246.096 374.631
L246.275 373.81
L248.417 373.81
L248.596 374.015
L250.739 374.015
L250.917 373.399
L255.381 373.399
L255.56 372.988
L260.024 372.988
L260.202 372.783
L264.666 372.783
L264.845 372.578
L269.309 372.578
L269.487 372.167
L271.63 372.167
L271.809 371.345
L273.951 371.345
L274.13 371.14
L276.273 371.14
L276.451 370.935
L278.594 370.935
L278.772 370.729
L283.236 370.729
L283.415 370.319
L287.879 370.319
L288.058 369.703
L290.2 369.703
L290.379 369.497
L292.522 369.497
L292.7 369.292
L294.843 369.292
L295.021 369.087
L297.164 369.087
L297.343 368.881
L299.485 368.881
L299.664 368.265
L301.807 368.265
L301.985 367.444
L304.128 367.444
L304.307 367.033
L306.449 367.033
L306.628 366.828
L308.771 366.828
L308.949 366.622
L311.092 366.622
L311.27 365.801
L313.413 365.801
L313.592 364.98
L315.734 364.98
L315.913 364.569
L318.056 364.569
L318.234 364.364
L320.377 364.364
L320.556 363.542
L325.02 363.542
L325.198 363.132
L327.341 363.132
L327.519 362.721
L331.983 362.721
L332.162 361.899
L334.305 361.899
L334.483 361.283
L336.626 361.283
L336.804 361.078
L338.947 361.078
L339.126 360.667
L341.268 360.667
L341.447 360.462
L343.59 360.462
L343.768 360.257
L345.911 360.257
L346.09 359.23
L350.554 359.23
L350.732 358.819
L355.196 358.819
L355.375 358.409
L357.517 358.409
L357.696 357.998
L359.839 357.998
L360.017 357.587
L362.16 357.587
L362.339 356.56
L364.481 356.56
L364.66 356.15
L366.803 356.15
L366.981 355.534
L369.124 355.534
L369.302 354.918
L371.445 354.918
L371.624 354.712
L373.766 354.712
L373.945 354.507
L376.088 354.507
L376.266 354.096
L378.409 354.096
L378.588 353.686
L380.73 353.686
L380.909 353.48
L383.052 353.48
L383.23 353.07
L387.694 353.07
L387.873 352.659
L390.015 352.659
L390.194 352.453
L392.337 352.453
L392.515 352.248
L394.658 352.248
L394.836 351.632
L396.979 351.632
L397.158 351.427
L399.3 351.427
L399.479 351.016
L401.622 351.016
L401.8 350.811
L403.943 350.811
L404.122 350.4
L406.264 350.4
L406.443 350.195
L408.586 350.195
L408.764 349.579
L410.907 349.579
L411.085 349.168
L413.228 349.168
L413.407 348.552
L415.549 348.552
L415.728 347.32
L417.871 347.32
L418.049 346.909
L420.192 346.909
L420.371 346.293
L422.513 346.293
L422.692 345.882
L424.835 345.882
L425.013 344.65
L427.156 344.65
L427.334 344.445
L429.477 344.445
L429.656 344.034
L431.798 344.034
L431.977 343.213
L434.12 343.213
L434.298 342.597
L436.441 342.597
L436.62 341.981
L438.762 341.981
L438.941 341.57
L441.084 341.57
L441.262 341.365
L443.405 341.365
L443.583 341.159
L445.726 341.159
L445.905 340.954
L448.047 340.954
L448.226 340.749
L450.369 340.749
L450.547 340.133
L452.69 340.133
L452.868 339.517
L455.011 339.517
L455.19 338.901
L459.654 338.901
L459.832 338.49
L461.975 338.49
L462.154 338.079
L464.296 338.079
L464.475 337.874
L466.618 337.874
L466.796 337.463
L468.939 337.463
L469.117 336.436
L471.26 336.436
L471.439 336.231
L473.581 336.231
L473.76 335.41
L475.903 335.41
L476.081 334.999
L478.224 334.999
L478.403 334.178
L480.545 334.178
L480.724 333.972
L482.867 333.972
L483.045 333.356
L485.188 333.356
L485.366 332.535
L487.509 332.535
L487.688 332.124
L489.83 332.124
L490.009 331.508
L492.152 331.508
L492.33 330.687
L494.473 330.687
L494.652 330.071
L496.794 330.071
L496.973 329.865
L499.116 329.865
L499.294 329.044
L501.437 329.044
L501.615 328.428
L503.758 328.428
L503.937 327.401
L506.079 327.401
L506.258 326.99
L508.401 326.99
L508.579 325.553
L510.722 325.553
L510.9 325.142
L513.043 325.142
L513.222 324.937
L515.364 324.937
L515.543 324.321
L517.686 324.321
L517.864 324.116
L518.311 324.116
L518.311 324.116" style="fill:none;stroke:#0000ff;stroke-dasharray:6.000000,2.000000;stroke-dashoffset:0.0;"/>
   </g>
   <g id="line2d_2">
    <path clip-path="url(#p7ff5b81e1d)" d="
M72 388.8
L74.6784 388.8
L74.857 388.542
L76.6426 388.542
L76.8211 388.8
L141.817 388.8
L141.996 388.542
L157.977 388.542
L158.155 388.285
L158.512 388.285
L158.691 388.027
L158.869 388.027
L159.048 387.77
L159.227 387.77
L159.405 387.512
L159.762 387.512
L159.941 387.255
L160.03 387.255
L160.209 386.74
L160.298 386.74
L160.476 386.482
L160.655 386.482
L160.834 386.225
L161.994 386.225
L162.262 385.71
L162.441 385.71
L162.53 385.452
L162.708 385.71
L163.066 385.71
L163.333 385.195
L164.137 385.195
L164.316 384.937
L164.405 384.937
L164.851 383.907
L164.94 383.907
L165.208 383.392
L165.923 383.392
L166.19 382.877
L166.28 382.877
L166.548 381.589
L166.637 381.589
L166.815 381.332
L167.083 381.332
L167.172 381.074
L167.262 381.847
L167.44 381.589
L167.53 381.589
L167.887 380.817
L168.422 380.817
L169.047 379.272
L169.494 379.272
L169.94 378.241
L170.029 378.241
L170.297 377.726
L170.922 377.726
L171.101 377.469
L171.369 377.469
L171.547 377.211
L171.726 377.211
L171.994 376.696
L172.172 376.696
L172.351 376.439
L172.529 376.439
L172.976 375.409
L173.065 375.409
L173.333 374.894
L173.422 374.894
L173.69 374.379
L173.868 374.379
L174.136 373.606
L174.226 374.379
L174.761 373.091
L175.029 373.091
L175.208 372.833
L175.297 372.833
L175.654 372.061
L175.833 372.061
L176.011 371.803
L176.1 371.803
L176.368 370.773
L176.458 370.773
L176.636 371.031
L176.815 371.031
L177.797 367.94
L178.065 366.91
L178.243 366.91
L178.422 366.395
L178.511 366.395
L179.225 364.593
L179.404 364.593
L179.582 363.305
L179.672 363.305
L179.94 362.79
L180.564 362.79
L180.832 362.275
L180.922 362.275
L181.993 358.927
L182.172 358.412
L182.261 358.412
L182.618 356.867
L182.886 356.352
L182.975 356.352
L183.154 356.094
L183.243 356.094
L183.421 355.837
L183.6 356.609
L183.957 355.837
L184.046 355.837
L185.475 351.974
L185.564 351.974
L185.743 350.944
L185.921 351.201
L186.1 351.201
L186.368 349.914
L186.457 349.914
L186.725 349.399
L186.814 349.399
L186.993 348.883
L187.082 348.883
L187.26 348.368
L188.332 345.021
L188.51 344.506
L188.689 344.506
L189.046 343.733
L189.135 343.733
L189.76 342.188
L189.939 342.188
L190.117 341.673
L190.296 340.9
L190.385 340.643
L190.564 340.9
L190.742 340.385
L190.921 339.355
L191.01 339.097
L191.189 338.067
L191.278 338.067
L191.457 337.81
L191.635 337.81
L191.814 337.037
L191.903 337.037
L192.349 335.75
L192.528 334.977
L192.974 333.689
L193.153 332.659
L193.242 332.402
L193.51 330.599
L193.599 330.599
L193.689 330.342
L193.867 328.281
L193.956 328.281
L194.492 325.706
L195.206 323.388
L195.653 321.071
L195.742 321.071
L196.635 316.435
L196.724 316.435
L197.349 314.89
L197.438 316.178
L197.528 315.92
L197.706 314.632
L197.885 314.632
L198.063 313.345
L198.242 312.057
L198.956 307.422
L199.135 306.649
L199.492 305.619
L200.117 300.726
L200.474 299.954
L200.563 299.954
L201.188 297.893
L201.367 295.833
L201.545 295.318
L201.724 293.515
L201.813 293.515
L201.992 293.258
L202.081 293.258
L202.438 291.713
L202.527 291.713
L203.063 289.137
L203.242 288.88
L203.331 288.88
L203.509 288.107
L203.599 287.85
L203.956 285.275
L204.045 285.017
L204.313 283.472
L204.67 282.442
L204.938 280.897
L205.295 279.094
L205.384 279.094
L205.563 278.064
L205.741 277.549
L205.92 276.519
L206.366 274.973
L206.813 272.913
L206.991 272.141
L207.259 270.596
L207.438 269.823
L207.616 269.05
L207.706 269.05
L207.884 267.763
L208.152 266.475
L208.241 266.475
L208.598 265.445
L208.777 264.415
L208.956 263.385
L209.045 264.415
L209.67 261.325
L209.848 261.325
L210.116 260.294
L210.563 257.204
L210.652 256.947
L210.83 255.659
L211.188 254.114
L211.277 254.114
L211.902 249.478
L211.991 248.963
L212.259 246.131
L212.705 245.1
L212.795 245.1
L213.42 243.298
L213.687 241.495
L213.777 241.238
L214.134 238.92
L214.223 238.92
L214.491 237.89
L214.848 236.602
L215.116 234.542
L215.294 234.542
L215.473 233.254
L215.652 233.254
L215.919 231.194
L216.098 230.421
L216.276 229.906
L216.366 229.906
L216.634 227.589
L216.723 227.589
L216.991 226.559
L217.259 226.044
L217.526 223.726
L217.616 223.468
L217.794 221.923
L218.062 221.923
L218.33 220.893
L218.419 220.893
L218.687 219.605
L218.776 219.605
L219.133 217.803
L219.223 217.803
L219.669 214.712
L219.848 213.94
L220.205 212.137
L220.294 212.137
L220.473 211.88
L220.562 211.88
L220.83 210.334
L221.008 209.047
L221.098 209.047
L221.276 208.532
L221.365 208.532
L221.455 208.274
L221.99 203.896
L222.08 203.896
L222.348 202.609
L222.437 202.609
L222.883 200.033
L222.972 200.291
L223.33 199.003
L223.776 196.943
L224.044 195.913
L224.222 195.14
L224.401 194.883
L224.49 194.883
L224.758 193.853
L225.115 192.308
L225.562 191.277
L225.829 191.277
L226.008 190.505
L226.097 190.247
L226.365 187.93
L226.544 187.157
L226.633 187.157
L226.812 186.385
L226.901 186.385
L227.347 184.324
L227.436 184.324
L228.061 182.779
L228.151 182.779
L228.24 182.522
L228.508 180.719
L228.597 180.719
L228.776 179.689
L228.954 179.174
L229.133 178.401
L229.222 178.401
L229.49 177.371
L229.579 177.114
L229.758 176.083
L230.026 175.053
L230.204 174.281
L230.651 173.251
L230.829 173.251
L231.186 172.221
L231.365 171.19
L231.454 170.933
L231.633 169.388
L231.722 169.13
L231.99 167.585
L232.079 167.585
L232.258 166.813
L232.615 165.267
L232.704 165.267
L232.883 164.495
L233.061 163.722
L233.24 163.722
L233.508 162.177
L233.775 161.147
L234.222 159.087
L234.4 159.087
L234.847 157.027
L234.936 157.027
L235.561 154.966
L235.74 154.194
L235.829 154.194
L236.007 153.421
L236.186 152.391
L236.454 151.361
L236.811 149.816
L237.257 149.816
L237.436 149.301
L237.704 148.528
L237.882 147.498
L238.686 145.438
L238.864 145.438
L239.132 144.408
L239.311 143.635
L239.579 142.605
L240.561 139.772
L240.739 138.227
L240.828 138.227
L241.453 136.682
L241.543 153.164
L241.632 152.906
L241.989 151.618
L242.168 151.103
L242.257 151.103
L242.525 149.558
L243.328 147.241
L243.507 145.953
L243.596 145.953
L243.775 145.438
L243.953 158.829
L244.221 158.057
L244.4 156.769
L244.668 155.481
L244.757 155.481
L245.203 154.194
L245.382 152.906
L245.471 152.906
L245.739 152.134
L246.007 150.073
L246.275 148.528
L246.364 148.528
L246.632 147.756
L246.81 146.725
L246.9 146.468
L247.078 145.438
L247.167 145.438
L247.524 144.15
L247.703 143.12
L248.06 141.832
L248.417 140.03
L248.507 145.953
L248.596 145.695
L248.864 144.15
L249.31 143.12
L249.489 143.12
L249.935 141.575
L250.203 140.545
L250.292 140.545
L250.471 140.287
L250.739 140.287
L251.364 137.197
L251.721 136.424
L251.81 136.424
L251.988 135.909
L252.078 135.909
L252.524 134.364
L252.792 133.334
L252.881 133.334
L253.06 133.077
L253.238 139.257
L253.863 135.909
L253.953 135.909
L254.042 135.652
L254.31 134.107
L254.756 134.107
L255.024 133.334
L255.203 132.304
L255.917 130.501
L256.006 130.501
L256.185 129.214
L256.81 127.669
L256.899 127.669
L257.702 125.608
L257.792 131.274
L257.881 131.016
L257.97 131.016
L258.149 130.501
L258.327 130.244
L258.506 128.441
L258.595 128.441
L258.863 127.926
L259.399 127.926
L259.756 126.638
L259.934 125.866
L260.024 125.866
L260.738 124.063
L260.916 122.776
L261.184 122.261
L261.363 122.261
L261.541 122.003
L261.72 122.003
L262.345 120.2
L262.434 122.518
L262.524 122.261
L262.613 122.261
L262.791 121.745
L262.881 121.745
L263.684 119.685
L263.863 119.685
L264.22 118.913
L264.488 118.913
L264.756 117.883
L264.934 117.883
L265.113 117.11
L265.38 117.11
L266.005 115.565
L266.095 115.565
L266.273 114.535
L266.63 114.535
L266.809 114.277
L266.988 114.277
L267.345 113.505
L267.434 113.505
L267.612 112.99
L267.702 112.99
L268.237 111.702
L268.327 111.702
L269.13 109.642
L269.309 109.642
L269.398 113.247
L269.487 112.99
L269.844 112.217
L270.023 111.187
L270.202 110.672
L270.38 110.414
L270.737 110.414
L271.005 109.384
L271.273 109.384
L271.63 107.066
L271.809 110.157
L271.987 109.384
L272.255 108.354
L273.148 106.036
L273.237 106.036
L273.951 103.976
L274.13 104.491
L274.308 104.491
L274.576 103.976
L274.933 103.976
L275.112 103.204
L275.38 103.204
L275.916 101.916
L276.005 101.916
L276.273 101.401
L276.451 102.946
L276.898 102.946
L277.344 101.916
L277.523 101.916
L277.701 101.658
L277.79 101.658
L278.058 100.628
L278.148 100.628
L278.326 100.371
L278.862 100.371
L279.04 99.8557
L279.219 99.8557
L279.487 98.8256
L279.665 98.3106
L279.755 98.3106
L280.112 97.538
L280.201 97.538
L280.558 96.7654
L280.737 96.7654
L280.915 95.9928
L281.094 96.7654
L281.272 95.9928
L281.451 95.2203
L281.54 95.2203
L281.808 94.7052
L281.897 94.7052
L282.076 93.9326
L282.254 93.6751
L282.522 93.6751
L282.701 93.1601
L282.79 93.1601
L283.058 92.645
L283.236 92.645
L283.415 93.6751
L283.772 92.9025
L283.861 92.9025
L284.04 92.645
L284.219 92.645
L284.397 92.13
L284.576 92.13
L284.754 91.8724
L284.933 91.8724
L285.111 91.6149
L285.558 91.6149
L285.647 93.4176
L285.736 93.1601
L285.915 93.1601
L286.093 92.13
L286.183 92.13
L286.272 91.8724
L286.451 90.5848
L286.718 90.5848
L286.897 90.3273
L288.147 90.3273
L288.325 90.0697
L288.593 90.0697
L288.772 89.8122
L288.95 89.8122
L289.486 88.5246
L289.665 88.5246
L289.932 88.0095
L290.022 88.0095
L290.557 86.7219
L290.736 86.7219
L290.915 86.4644
L291.004 86.4644
L291.182 86.2069
L291.45 86.2069
L291.629 85.4343
L291.807 85.4343
L291.986 85.1768
L292.343 85.1768
L292.522 84.9192
L292.611 85.4343
L292.879 84.9192
L293.325 84.9192
L293.504 84.6617
L293.682 84.6617
L293.95 84.1466
L294.664 84.1466
L294.843 83.8891
L295.2 83.8891
L295.468 83.3741
L295.557 83.3741
L295.736 82.6015
L295.914 82.6015
L296.361 81.5714
L296.45 81.5714
L296.628 81.3139
L297.253 81.3139
L297.611 80.5413
L298.593 80.5413
L298.95 79.7687
L299.218 79.7687
L299.485 79.2537
L299.843 79.2537
L300.2 78.4811
L300.735 78.4811
L300.914 78.2235
L301.092 78.2235
L301.271 77.966
L301.36 77.966
L301.539 77.7085
L301.807 77.7085
L302.075 77.1934
L302.164 77.1934
L302.342 76.4209
L302.432 76.4209
L302.61 76.1633
L302.7 76.1633
L302.878 75.9058
L303.146 75.9058
L303.414 75.3908
L303.682 75.3908
L303.86 75.1332
L304.039 75.1332
L304.842 73.073
L304.932 73.073
L305.11 72.8155
L305.199 72.8155
L305.556 71.2703
L305.735 71.2703
L305.914 71.0128
L306.092 71.0128
L306.36 70.4978
L306.896 70.4978
L307.074 70.2402
L307.431 70.2402
L307.61 69.9827
L308.146 69.9827
L308.592 68.9526
L309.038 68.9526
L309.217 68.4376
L309.485 67.9225
L309.574 67.9225
L309.842 67.4075
L310.11 67.4075
L310.288 67.1499
L311.806 67.1499
L311.985 66.8924
L312.342 66.8924
L312.61 66.3773
L313.413 66.3773
L313.592 66.6349
L313.681 66.6349
L313.86 66.3773
L313.949 66.3773
L314.127 66.1198
L315.377 66.1198
L315.556 65.8623
L315.824 65.8623
L316.092 65.3472
L317.163 65.3472
L317.341 65.0897
L318.859 65.0897
L319.038 64.5747
L319.127 64.5747
L319.306 64.3171
L320.198 64.3171
L320.466 63.8021
L321.627 63.8021
L321.805 63.5446
L322.163 63.5446
L322.341 63.287
L323.145 63.287
L323.323 63.0295
L324.484 63.0295
L324.662 62.772
L324.841 62.772
L325.02 62.5145
L325.555 62.5145
L325.734 62.2569
L326.091 62.2569
L326.269 61.9994
L326.805 61.9994
L326.984 61.7419
L327.341 61.7419
L327.519 61.4844
L328.769 61.4844
L328.948 61.2268
L330.644 61.2268
L330.733 60.9693
L330.912 60.1967
L331.537 60.1967
L331.716 59.9392
L333.144 59.9392
L333.323 59.6817
L333.59 59.6817
L333.858 59.1666
L334.572 59.1666
L334.751 58.9091
L336.001 58.9091
L336.358 58.1365
L336.983 58.1365
L337.162 57.879
L337.965 57.879
L338.233 57.3639
L339.572 57.3639
L339.751 57.1064
L340.197 57.1064
L340.554 56.3338
L340.644 56.3338
L340.822 56.0763
L340.911 56.0763
L341.09 55.8188
L343.322 55.8188
L343.5 55.5613
L344.036 55.5613
L344.215 55.3037
L346.09 55.3037
L346.268 55.0462
L349.214 55.0462
L349.393 54.7887
L350.464 54.7887
L350.643 54.5311
L350.732 54.5311
L351 54.0161
L351.446 54.0161
L351.625 53.501
L352.339 53.501
L352.518 53.2435
L352.875 53.2435
L353.053 52.986
L353.232 52.986
L353.411 52.7285
L355.196 52.7285
L355.375 52.4709
L355.464 52.4709
L355.643 52.2134
L355.821 52.2134
L356 51.9559
L361.981 51.9559
L362.16 51.6984
L364.481 51.6984
L364.66 51.4408
L365.999 51.4408
L366.178 51.1833
L366.445 51.1833
L366.624 50.9258
L367.249 50.9258
L367.517 50.4107
L367.785 50.4107
L367.963 50.1532
L369.124 50.1532
L369.481 49.3806
L374.124 49.3806
L374.302 49.1231
L375.82 49.1231
L375.998 48.8656
L376.088 48.8656
L376.266 48.608
L383.052 48.608
L383.23 48.3505
L386.801 48.3505
L386.98 48.093
L391.444 48.093
L391.622 47.8355
L392.962 47.8355
L393.229 47.3204
L394.658 47.3204
L394.836 47.5779
L398.676 47.5779
L398.854 47.3204
L400.283 47.3204
L400.461 47.0629
L406.443 47.0629
L406.621 46.8054
L407.246 46.8054
L407.425 46.5478
L410.282 46.5478
L410.46 46.2903
L410.55 46.2903
L410.728 46.0328
L412.782 46.0328
L412.96 45.7753
L415.014 45.7753
L415.192 45.5177
L415.549 45.5177
L415.728 45.2602
L426.709 45.2602
L426.888 45.0027
L432.245 45.0027
L432.423 44.7452
L433.584 44.7452
L433.763 44.4876
L443.762 44.4876
L443.94 44.2301
L473.581 44.2301
L473.76 43.9726
L518.311 43.9726
L518.311 43.9726" style="fill:none;stroke:#008000;stroke-dasharray:1.000000,1.000000;stroke-dashoffset:0.0;"/>
   </g>
   <g id="line2d_3">
    <path clip-path="url(#p7ff5b81e1d)" d="
M72 388.363
L74.6784 388.363
L74.857 388.8
L518.311 388.8
L518.311 388.8" style="fill:none;stroke:#ff0000;stroke-dasharray:3.000000,6.000000;stroke-dashoffset:0.0;"/>
   </g>
   <g id="line2d_4">
    <path clip-path="url(#p7ff5b81e1d)" d="
M72 388.8
L518.311 388.8
L518.311 388.8" style="fill:none;stroke:#00bfbf;stroke-dasharray:5.000000,1.000000,2.000000,1.000000,5.000000,1.000000;stroke-dashoffset:0.0;"/>
   </g>
   <g id="line2d_5">
    <path clip-path="url(#p7ff5b81e1d)" d="
M72 388.8
L204.045 388.8
L204.224 388.565
L209.045 388.565
L209.223 388.33
L215.205 388.33
L215.473 387.86
L222.705 387.86
L222.883 387.625
L223.508 387.625
L223.687 387.39
L225.829 387.39
L226.008 387.155
L226.276 387.155
L226.454 386.92
L226.901 386.92
L227.079 386.686
L229.133 386.686
L229.311 386.216
L229.401 386.216
L229.579 385.981
L232.793 385.981
L232.972 385.746
L233.329 385.746
L233.508 385.511
L234.132 385.511
L234.311 385.276
L237.168 385.276
L237.347 385.041
L237.704 385.041
L237.882 384.806
L240.739 384.806
L240.918 384.571
L241.453 384.571
L241.632 385.981
L243.596 385.981
L243.775 385.746
L244.132 385.746
L244.31 385.511
L247.435 385.511
L247.703 385.041
L248.328 385.041
L248.417 384.806
L248.596 385.041
L248.774 384.806
L250.649 384.806
L251.096 383.866
L251.721 383.866
L251.988 383.396
L253.06 383.396
L253.238 383.631
L254.578 383.631
L254.845 383.161
L255.024 383.161
L255.203 382.926
L257.702 382.926
L257.881 383.161
L258.238 383.161
L258.417 382.926
L261.541 382.926
L262.166 381.517
L262.345 381.517
L262.524 381.987
L262.613 381.987
L262.791 381.752
L265.023 381.752
L265.202 381.517
L268.416 381.517
L268.595 380.812
L268.952 380.812
L269.13 380.577
L269.309 380.577
L269.398 381.047
L269.755 380.342
L269.844 380.342
L270.112 379.872
L271.63 379.872
L271.809 380.342
L271.898 380.342
L272.076 380.107
L272.88 380.107
L273.059 379.872
L273.505 379.872
L273.684 379.402
L275.469 379.402
L275.648 378.697
L276.273 378.697
L276.451 378.932
L276.719 378.932
L276.987 378.463
L277.076 378.463
L277.344 377.993
L278.415 377.993
L278.594 377.758
L279.487 377.758
L279.755 377.288
L280.112 377.288
L280.29 377.053
L280.38 377.053
L280.558 376.583
L280.737 376.348
L282.701 376.348
L282.879 375.878
L283.147 375.878
L283.236 375.643
L283.415 375.878
L283.594 375.408
L283.683 375.408
L284.397 373.764
L285.558 373.764
L285.736 374.469
L286.361 374.469
L286.54 373.999
L286.897 373.999
L287.254 373.294
L287.433 373.294
L287.7 372.824
L287.79 372.824
L287.968 372.589
L289.843 372.589
L290.29 371.649
L290.557 371.649
L290.915 370.944
L291.272 370.944
L291.45 370.709
L292.522 370.709
L292.7 370.944
L293.414 370.944
L293.593 370.475
L294.486 370.475
L295.111 369.065
L295.289 369.065
L295.557 368.595
L296.896 368.595
L297.253 367.89
L297.968 367.89
L298.146 367.655
L298.325 367.655
L298.593 367.185
L299.932 367.185
L300.11 366.95
L300.468 366.95
L301.092 365.541
L301.271 365.541
L302.342 362.956
L303.414 362.956
L303.592 362.721
L304.128 362.721
L304.396 362.252
L304.753 362.252
L305.289 361.077
L305.467 361.077
L305.646 360.607
L305.824 360.372
L307.699 360.372
L307.878 360.137
L308.146 360.137
L308.235 359.902
L308.413 359.197
L308.681 358.727
L308.771 358.727
L308.949 358.258
L309.217 357.788
L309.306 357.788
L309.485 357.553
L310.913 357.553
L311.092 357.318
L311.27 357.318
L311.449 357.083
L311.717 357.083
L311.895 356.613
L312.074 355.908
L312.163 355.908
L312.342 355.438
L312.52 355.203
L313.413 355.203
L313.502 355.438
L313.681 355.203
L314.752 355.203
L314.931 354.498
L315.109 354.263
L315.288 354.263
L315.556 353.794
L315.734 353.794
L315.913 353.324
L316.449 353.324
L316.627 352.854
L318.056 352.854
L318.234 353.089
L318.413 353.089
L319.127 351.444
L319.216 351.444
L319.573 350.739
L319.663 350.739
L320.109 349.8
L320.823 349.8
L321.002 349.565
L321.895 349.565
L322.52 348.155
L322.609 348.155
L322.698 347.92
L322.877 348.155
L322.966 348.155
L323.234 347.685
L323.323 347.685
L323.591 346.51
L325.734 346.51
L326.894 343.691
L326.984 343.691
L327.252 342.751
L329.037 342.751
L329.305 342.281
L329.394 342.281
L330.198 340.402
L330.466 340.402
L330.733 339.462
L332.698 339.462
L332.876 338.757
L333.055 338.757
L333.412 337.348
L333.59 337.348
L334.215 335.938
L334.305 335.938
L334.483 335.703
L336.18 335.703
L336.358 334.998
L336.537 334.293
L336.626 334.293
L337.162 333.119
L337.34 333.119
L337.608 331.474
L337.697 331.474
L337.876 330.299
L338.769 330.299
L338.947 330.064
L339.751 330.064
L340.019 329.595
L340.108 329.595
L340.197 329.36
L340.376 328.42
L340.733 328.42
L340.911 327.245
L341.001 327.245
L341.179 326.775
L341.268 326.775
L341.447 327.01
L341.626 326.775
L341.804 326.775
L342.072 326.305
L343.233 326.305
L343.411 326.07
L343.5 326.07
L343.679 325.835
L343.768 325.835
L344.125 324.191
L344.393 324.191
L344.572 323.956
L344.661 323.956
L344.929 323.486
L346.447 323.486
L346.625 323.251
L346.893 323.251
L347.25 321.841
L347.34 321.841
L347.964 320.432
L348.054 320.432
L348.232 319.727
L348.679 317.613
L350.464 317.613
L350.732 317.143
L350.821 317.143
L351.625 313.384
L351.714 313.384
L352.25 312.209
L353.143 312.209
L353.321 311.974
L354.036 311.974
L354.125 311.739
L354.303 311.034
L354.482 311.034
L354.571 310.799
L354.839 309.155
L355.196 309.155
L355.285 309.39
L355.553 308.45
L355.821 307.98
L356 307.98
L356.268 307.51
L356.714 307.51
L356.892 307.275
L357.517 307.275
L357.607 307.04
L357.785 306.335
L357.964 306.1
L358.321 306.1
L358.678 304.691
L359.124 303.516
L359.303 302.576
L359.482 302.341
L361.178 302.341
L361.446 300.697
L362.339 298.582
L362.428 298.582
L362.696 298.112
L364.749 298.112
L365.196 297.173
L365.374 297.173
L366.088 295.528
L366.267 295.528
L366.445 294.823
L366.713 294.823
L366.892 294.588
L366.981 294.588
L367.16 294.353
L368.32 294.353
L368.41 294.118
L368.588 293.413
L369.57 290.829
L369.749 290.124
L370.195 289.185
L371.892 289.185
L372.07 288.95
L372.159 288.95
L372.516 287.305
L372.695 287.305
L372.874 287.07
L372.963 287.07
L373.231 286.13
L373.499 284.721
L373.766 284.251
L375.195 284.251
L375.373 284.016
L375.463 284.016
L375.731 283.076
L375.998 282.606
L376.088 282.606
L376.266 281.901
L376.445 281.901
L376.713 281.431
L376.802 281.431
L377.248 280.492
L379.034 280.492
L379.48 279.552
L379.659 279.552
L379.837 279.082
L379.927 279.082
L380.105 278.377
L380.284 277.907
L380.552 277.437
L380.641 277.437
L380.909 276.263
L382.605 276.263
L382.873 275.323
L383.141 274.383
L383.23 274.383
L383.855 272.973
L383.944 272.973
L384.212 272.504
L384.301 272.504
L384.48 272.269
L384.837 272.269
L385.016 272.034
L385.284 272.034
L385.462 271.799
L386.355 271.799
L386.533 271.094
L386.712 271.094
L386.891 270.859
L386.98 270.859
L387.158 270.389
L387.605 269.449
L387.873 269.449
L388.051 268.979
L389.748 268.979
L390.015 268.51
L390.105 268.51
L390.283 267.805
L390.551 267.805
L390.819 266.865
L390.997 266.63
L391.176 266.63
L391.444 265.69
L391.622 265.22
L392.337 265.22
L392.604 264.751
L393.319 264.751
L393.497 264.281
L393.676 264.281
L394.033 262.871
L394.301 262.401
L394.39 262.401
L394.569 262.166
L394.658 262.166
L394.836 261.696
L395.015 260.756
L395.908 260.756
L396.086 260.522
L396.979 260.522
L397.158 259.817
L397.247 259.817
L397.336 259.582
L397.515 258.642
L397.604 258.642
L398.14 257.467
L398.497 257.467
L398.676 256.762
L399.39 256.762
L399.658 256.293
L400.461 256.293
L400.729 255.118
L400.818 255.118
L400.997 254.883
L401.532 254.883
L401.979 253.473
L402.247 251.829
L404.122 251.829
L404.211 251.594
L404.389 250.654
L404.479 250.654
L405.014 249.244
L405.193 248.539
L405.729 248.539
L405.907 247.835
L406.175 247.835
L406.354 247.6
L406.532 247.6
L406.711 247.365
L407.336 247.365
L407.514 247.13
L407.604 247.13
L407.871 246.19
L408.228 245.485
L408.318 245.485
L408.496 245.25
L408.764 245.25
L409.478 243.606
L409.657 243.606
L409.836 243.371
L411.264 243.371
L411.71 242.431
L411.8 242.431
L412.157 240.786
L412.335 240.786
L412.603 240.317
L412.692 240.317
L412.871 239.847
L413.05 239.142
L413.675 239.142
L413.853 238.907
L414.746 238.907
L414.924 238.202
L415.014 238.202
L415.282 237.262
L415.639 236.557
L415.728 236.557
L416.085 235.853
L416.442 235.853
L416.621 235.383
L417.067 235.383
L417.246 235.148
L418.406 235.148
L418.674 234.678
L418.764 234.678
L419.031 234.208
L419.21 234.208
L419.835 232.798
L419.924 232.798
L420.103 232.563
L420.906 232.563
L421.085 232.328
L421.442 232.328
L421.62 232.094
L421.888 232.094
L422.067 231.389
L422.245 230.919
L422.603 230.214
L422.692 230.214
L422.87 229.509
L422.96 229.509
L423.138 228.804
L423.317 228.804
L423.495 228.569
L423.585 228.569
L423.763 228.1
L425.192 228.1
L425.46 227.63
L425.727 227.63
L425.906 227.395
L426.174 227.395
L426.442 226.455
L427.067 225.045
L429.209 225.045
L429.566 224.34
L429.656 224.34
L430.727 221.756
L432.691 221.756
L432.959 221.286
L433.227 221.286
L433.584 219.877
L433.673 219.877
L434.477 217.997
L435.727 217.997
L435.905 217.762
L436.352 217.762
L436.798 216.822
L436.977 216.822
L437.244 216.352
L437.334 216.352
L437.602 214.943
L437.691 214.943
L437.959 214.473
L438.137 214.473
L438.316 214.238
L439.744 214.238
L440.28 211.889
L440.459 211.889
L440.637 211.184
L440.816 210.479
L441.53 206.955
L443.226 206.955
L443.851 205.545
L443.94 205.545
L444.387 204.605
L444.655 204.605
L444.923 203.196
L446.44 203.196
L446.619 202.961
L446.887 202.961
L447.155 202.491
L447.244 202.491
L447.512 202.021
L447.601 202.021
L447.869 201.081
L447.958 201.081
L448.137 200.376
L448.315 200.376
L448.762 199.437
L449.297 199.437
L449.476 199.202
L450.369 199.202
L450.904 198.027
L450.994 198.027
L451.172 197.557
L451.261 197.557
L451.44 197.322
L451.529 197.322
L451.886 195.912
L452.065 195.912
L452.244 194.738
L454.029 194.738
L454.386 193.328
L454.565 193.093
L454.654 193.093
L455.1 192.153
L455.279 192.153
L455.636 190.509
L457.6 190.509
L457.868 189.569
L458.136 189.569
L458.404 188.629
L458.672 188.629
L458.85 187.924
L459.029 187.924
L459.207 187.455
L459.386 186.28
L460.904 186.28
L461.082 186.045
L461.172 186.045
L461.35 185.105
L461.707 184.4
L461.886 184.4
L462.154 183.93
L462.332 183.93
L462.779 182.991
L462.868 182.991
L463.046 182.756
L464.743 182.756
L465.1 182.051
L465.278 182.051
L465.546 181.581
L465.903 181.581
L466.618 179.936
L468.314 179.936
L468.492 179.466
L468.671 178.762
L469.117 177.822
L469.475 177.822
L469.921 176.882
L470.01 176.882
L470.189 176.647
L470.814 176.647
L470.992 176.412
L471.707 176.412
L471.885 176.177
L471.974 176.177
L472.153 175.238
L472.242 175.238
L472.51 174.768
L472.599 174.768
L473.046 173.828
L473.224 173.828
L473.403 173.593
L475.456 173.593
L475.903 172.653
L476.171 172.653
L476.706 171.478
L476.885 171.478
L477.153 171.009
L478.045 171.009
L478.313 170.539
L479.385 170.539
L480.545 167.719
L480.635 167.719
L480.902 167.249
L483.313 167.249
L483.581 166.78
L483.67 166.78
L484.116 164.9
L485.366 164.9
L485.545 164.665
L486.17 164.665
L486.438 164.195
L486.527 164.195
L486.706 163.725
L486.795 163.725
L486.973 163.021
L487.241 163.021
L487.42 162.786
L487.509 162.786
L487.777 162.316
L489.205 162.316
L489.384 162.081
L490.455 162.081
L490.723 161.611
L491.259 161.611
L491.527 161.141
L493.223 161.141
L493.402 160.906
L493.848 160.906
L494.116 159.731
L494.205 159.731
L494.83 158.322
L496.884 158.322
L497.151 157.852
L497.241 157.852
L497.508 157.382
L498.044 157.382
L498.491 156.442
L499.294 156.442
L499.473 156.207
L499.74 156.207
L499.919 155.972
L500.544 155.972
L500.812 155.502
L501.169 155.502
L501.348 155.267
L501.526 155.267
L501.705 155.032
L504.026 155.032
L504.383 154.328
L504.651 154.328
L505.187 153.153
L505.365 153.153
L505.812 152.213
L506.079 152.213
L506.258 151.978
L507.597 151.978
L508.044 151.038
L508.133 151.038
L508.311 150.804
L508.401 150.804
L508.579 150.099
L508.758 150.099
L509.204 149.159
L510.722 149.159
L510.9 149.394
L511.258 149.394
L511.436 149.159
L511.525 149.159
L511.793 148.689
L511.972 148.689
L512.508 147.514
L512.597 147.514
L512.775 147.279
L514.74 147.279
L515.007 146.81
L515.186 146.81
L515.454 146.34
L515.543 146.34
L515.9 145.635
L516.347 145.635
L516.525 145.165
L518.311 145.165
L518.311 145.165" style="fill:none;stroke:#bf00bf;stroke-linecap:square;"/>
   </g>
   <g id="matplotlib.axis_1">
    <g id="xtick_1">
     <g id="line2d_6">
      <defs>
       <path d="
M0 0
L0 -4" id="mc7db9fdffb" style="stroke:#000000;stroke-width:0.5;"/>
      </defs>
      <g>
       <use style="stroke:#000000;stroke-width:0.5;" x="72.0" xlink:href="#mc7db9fdffb" y="388.8"/>
      </g>
     </g>
     <g id="line2d_7">
      <defs>
       <path d="
M0 0
L0 4" id="m5a7d422ac3" style="stroke:#000000;stroke-width:0.5;"/>
      </defs>
      <g>
       <use style="stroke:#000000;stroke-width:0.5;" x="72.0" xlink:href="#m5a7d422ac3" y="43.2"/>
      </g>
     </g>
     <g id="text_1">
      <!-- 0 -->
      <defs>
       <path d="
M56.9844 36.375
Q56.9844 16.7969 50.8594 7.64062
Q44.7344 -1.51562 31.8438 -1.51562
Q18.75 -1.51562 12.7188 7.76562
Q6.6875 17.0469 6.6875 36.2812
Q6.6875 55.6719 12.7812 64.9219
Q18.8906 74.1719 31.8438 74.1719
Q44.9219 74.1719 50.9531 64.7656
Q56.9844 55.375 56.9844 36.375
M44.1406 14.2031
Q45.8438 18.1719 46.4531 23.5156
Q47.0781 28.8594 47.0781 36.375
Q47.0781 43.7969 46.4531 49.2656
Q45.8438 54.7344 44.0938 58.5469
Q42.3906 62.3125 39.4219 64.2031
Q36.4688 66.1094 31.8438 66.1094
Q27.25 66.1094 24.2344 64.2031
Q21.2344 62.3125 19.4844 58.4531
Q17.8281 54.8281 17.2188 49.0156
Q16.6094 43.2188 16.6094 36.2812
Q16.6094 28.6562 17.1406 23.5312
Q17.6719 18.4062 19.4375 14.3594
Q21.0469 10.5469 24 8.54688
Q26.9531 6.54688 31.8438 6.54688
Q36.4219 6.54688 39.4531 8.45312
Q42.4844 10.3594 44.1406 14.2031" id="Verdana-30"/>
      </defs>
      <g transform="translate(68.9821875 401.918125)scale(0.12 -0.12)">
       <use xlink:href="#Verdana-30"/>
      </g>
     </g>
    </g>
    <g id="xtick_2">
     <g id="line2d_8">
      <g>
       <use style="stroke:#000000;stroke-width:0.5;" x="161.28" xlink:href="#mc7db9fdffb" y="388.8"/>
      </g>
     </g>
     <g id="line2d_9">
      <g>
       <use style="stroke:#000000;stroke-width:0.5;" x="161.28" xlink:href="#m5a7d422ac3" y="43.2"/>
      </g>
     </g>
     <g id="text_2">
      <!-- 1000 -->
      <defs>
       <path d="
M52.9375 0
L13.5781 0
L13.5781 7.42188
L28.7188 7.42188
L28.7188 56.1562
L13.5781 56.1562
L13.5781 62.7969
Q16.6562 62.7969 20.1719 63.2969
Q23.6875 63.8125 25.4844 64.7969
Q27.7344 66.0156 29.0312 67.8906
Q30.3281 69.7812 30.5156 72.9531
L38.0938 72.9531
L38.0938 7.42188
L52.9375 7.42188
z
" id="Verdana-31"/>
      </defs>
      <g transform="translate(147.2315625 401.918125)scale(0.12 -0.12)">
       <use xlink:href="#Verdana-31"/>
       <use x="63.57421875" xlink:href="#Verdana-30"/>
       <use x="127.1484375" xlink:href="#Verdana-30"/>
       <use x="190.72265625" xlink:href="#Verdana-30"/>
      </g>
     </g>
    </g>
    <g id="xtick_3">
     <g id="line2d_10">
      <g>
       <use style="stroke:#000000;stroke-width:0.5;" x="250.56" xlink:href="#mc7db9fdffb" y="388.8"/>
      </g>
     </g>
     <g id="line2d_11">
      <g>
       <use style="stroke:#000000;stroke-width:0.5;" x="250.56" xlink:href="#m5a7d422ac3" y="43.2"/>
      </g>
     </g>
     <g id="text_3">
      <!-- 2000 -->
      <defs>
       <path d="
M57.0781 0
L7.85938 0
L7.85938 10.2031
Q12.9844 14.5938 18.1406 18.9844
Q23.2969 23.3906 27.7344 27.7344
Q37.1094 36.8125 40.5781 42.1562
Q44.0469 47.5156 44.0469 53.7188
Q44.0469 59.375 40.3125 62.5625
Q36.5781 65.7656 29.8906 65.7656
Q25.4375 65.7656 20.2656 64.2031
Q15.0938 62.6406 10.1562 59.4219
L9.67188 59.4219
L9.67188 69.6719
Q13.1406 71.3906 18.9219 72.7969
Q24.7031 74.2188 30.125 74.2188
Q41.3125 74.2188 47.6562 68.8125
Q54 63.4219 54 54.2031
Q54 50.0469 52.9531 46.4531
Q51.9062 42.875 49.8594 39.6562
Q47.9531 36.625 45.3906 33.6875
Q42.8281 30.7656 39.1562 27.2031
Q33.9375 22.0781 28.3594 17.2656
Q22.7969 12.4531 17.9688 8.34375
L57.0781 8.34375
z
" id="Verdana-32"/>
      </defs>
      <g transform="translate(236.1684375 401.918125)scale(0.12 -0.12)">
       <use xlink:href="#Verdana-32"/>
       <use x="63.57421875" xlink:href="#Verdana-30"/>
       <use x="127.1484375" xlink:href="#Verdana-30"/>
       <use x="190.72265625" xlink:href="#Verdana-30"/>
      </g>
     </g>
    </g>
    <g id="xtick_4">
     <g id="line2d_12">
      <g>
       <use style="stroke:#000000;stroke-width:0.5;" x="339.84" xlink:href="#mc7db9fdffb" y="388.8"/>
      </g>
     </g>
     <g id="line2d_13">
      <g>
       <use style="stroke:#000000;stroke-width:0.5;" x="339.84" xlink:href="#m5a7d422ac3" y="43.2"/>
      </g>
     </g>
     <g id="text_4">
      <!-- 3000 -->
      <defs>
       <path d="
M50.6875 35.0156
Q53.0312 32.9062 54.5469 29.7344
Q56.0625 26.5625 56.0625 21.5312
Q56.0625 16.5469 54.25 12.3906
Q52.4375 8.25 49.1719 5.17188
Q45.5156 1.76562 40.5469 0.125
Q35.5938 -1.51562 29.6875 -1.51562
Q23.6406 -1.51562 17.7812 -0.0625
Q11.9219 1.375 8.15625 3.07812
L8.15625 13.2812
L8.89062 13.2812
Q13.0312 10.5469 18.6406 8.73438
Q24.2656 6.9375 29.5 6.9375
Q32.5625 6.9375 36.0312 7.95312
Q39.5 8.98438 41.6562 10.9844
Q43.8906 13.1406 44.9844 15.7188
Q46.0938 18.3125 46.0938 22.2656
Q46.0938 26.1719 44.8438 28.7344
Q43.6094 31.2969 41.4062 32.7656
Q39.2031 34.2812 36.0781 34.8438
Q32.9531 35.4062 29.3438 35.4062
L24.9531 35.4062
L24.9531 43.5
L28.375 43.5
Q35.7969 43.5 40.2031 46.5938
Q44.625 49.7031 44.625 55.6719
Q44.625 58.2969 43.5 60.2656
Q42.3906 62.25 40.375 63.5312
Q38.2812 64.7969 35.8906 65.2812
Q33.5 65.7656 30.4688 65.7656
Q25.8281 65.7656 20.5938 64.1094
Q15.375 62.4531 10.75 59.4219
L10.25 59.4219
L10.25 69.625
Q13.7188 71.3438 19.5 72.7812
Q25.2969 74.2188 30.7188 74.2188
Q36.0312 74.2188 40.0781 73.2344
Q44.1406 72.2656 47.4062 70.125
Q50.9219 67.7812 52.7344 64.4531
Q54.5469 61.1406 54.5469 56.6875
Q54.5469 50.6406 50.2656 46.125
Q46 41.6094 40.1875 40.4375
L40.1875 39.75
Q42.5312 39.3594 45.5469 38.1094
Q48.5781 36.8594 50.6875 35.0156" id="Verdana-33"/>
      </defs>
      <g transform="translate(325.46625 401.918125)scale(0.12 -0.12)">
       <use xlink:href="#Verdana-33"/>
       <use x="63.57421875" xlink:href="#Verdana-30"/>
       <use x="127.1484375" xlink:href="#Verdana-30"/>
       <use x="190.72265625" xlink:href="#Verdana-30"/>
      </g>
     </g>
    </g>
    <g id="xtick_5">
     <g id="line2d_14">
      <g>
       <use style="stroke:#000000;stroke-width:0.5;" x="429.12" xlink:href="#mc7db9fdffb" y="388.8"/>
      </g>
     </g>
     <g id="line2d_15">
      <g>
       <use style="stroke:#000000;stroke-width:0.5;" x="429.12" xlink:href="#m5a7d422ac3" y="43.2"/>
      </g>
     </g>
     <g id="text_5">
      <!-- 4000 -->
      <defs>
       <path d="
M58.7344 20.4531
L47.9531 20.4531
L47.9531 0
L38.5781 0
L38.5781 20.4531
L3.76562 20.4531
L3.76562 31.6875
L38.9688 72.7031
L47.9531 72.7031
L47.9531 28.2656
L58.7344 28.2656
z

M38.5781 28.2656
L38.5781 61.0781
L10.4062 28.2656
z
" id="Verdana-34"/>
      </defs>
      <g transform="translate(414.4828125 401.918125)scale(0.12 -0.12)">
       <use xlink:href="#Verdana-34"/>
       <use x="63.57421875" xlink:href="#Verdana-30"/>
       <use x="127.1484375" xlink:href="#Verdana-30"/>
       <use x="190.72265625" xlink:href="#Verdana-30"/>
      </g>
     </g>
    </g>
    <g id="xtick_6">
     <g id="line2d_16">
      <g>
       <use style="stroke:#000000;stroke-width:0.5;" x="518.4" xlink:href="#mc7db9fdffb" y="388.8"/>
      </g>
     </g>
     <g id="line2d_17">
      <g>
       <use style="stroke:#000000;stroke-width:0.5;" x="518.4" xlink:href="#m5a7d422ac3" y="43.2"/>
      </g>
     </g>
     <g id="text_6">
      <!-- 5000 -->
      <defs>
       <path d="
M56.5 23.0938
Q56.5 18.0156 54.6406 13.375
Q52.7812 8.73438 49.5625 5.5625
Q46.0469 2.15625 41.1875 0.3125
Q36.3281 -1.51562 29.9375 -1.51562
Q23.9688 -1.51562 18.4531 -0.265625
Q12.9375 0.984375 9.125 2.73438
L9.125 13.0312
L9.8125 13.0312
Q13.8125 10.5 19.1875 8.71875
Q24.5625 6.9375 29.7344 6.9375
Q33.2031 6.9375 36.4531 7.90625
Q39.7031 8.89062 42.2344 11.3281
Q44.3906 13.4219 45.4844 16.3438
Q46.5781 19.2812 46.5781 23.1406
Q46.5781 26.9062 45.2812 29.4844
Q44 32.0781 41.7031 33.6406
Q39.1562 35.5 35.5156 36.25
Q31.8906 37.0156 27.3906 37.0156
Q23.0938 37.0156 19.1094 36.4219
Q15.1406 35.8438 12.25 35.25
L12.25 72.7031
L56 72.7031
L56 64.1562
L21.6875 64.1562
L21.6875 44.8281
Q23.7812 45.0156 25.9688 45.1094
Q28.1719 45.2188 29.7812 45.2188
Q35.6875 45.2188 40.125 44.2188
Q44.5781 43.2188 48.2969 40.6719
Q52.2031 37.9844 54.3438 33.7344
Q56.5 29.5 56.5 23.0938" id="Verdana-35"/>
      </defs>
      <g transform="translate(504.084375 401.918125)scale(0.12 -0.12)">
       <use xlink:href="#Verdana-35"/>
       <use x="63.57421875" xlink:href="#Verdana-30"/>
       <use x="127.1484375" xlink:href="#Verdana-30"/>
       <use x="190.72265625" xlink:href="#Verdana-30"/>
      </g>
     </g>
    </g>
    <g id="text_7">
     <!-- Objective function exectuions -->
     <defs>
      <path d="
M63.9688 64.3594
Q68.4062 59.4688 70.7656 52.3906
Q73.1406 45.3125 73.1406 36.3281
Q73.1406 27.3438 70.7188 20.2344
Q68.3125 13.1406 63.9688 8.40625
Q59.4688 3.46875 53.3438 0.96875
Q47.2188 -1.51562 39.3594 -1.51562
Q31.6875 -1.51562 25.4062 1.01562
Q19.1406 3.5625 14.75 8.40625
Q10.3594 13.2344 7.98438 20.2656
Q5.60938 27.2969 5.60938 36.3281
Q5.60938 45.2188 7.95312 52.2656
Q10.2969 59.3281 14.7969 64.3594
Q19.0938 69.1406 25.4688 71.6719
Q31.8438 74.2188 39.3594 74.2188
Q47.1719 74.2188 53.3906 71.6562
Q59.625 69.0938 63.9688 64.3594
M63.0938 36.3281
Q63.0938 50.4844 56.7344 58.1719
Q50.3906 65.875 39.4062 65.875
Q28.3281 65.875 22 58.1719
Q15.6719 50.4844 15.6719 36.3281
Q15.6719 22.0156 22.1094 14.4219
Q28.5625 6.84375 39.4062 6.84375
Q50.25 6.84375 56.6719 14.4219
Q63.0938 22.0156 63.0938 36.3281" id="Verdana-4f"/>
      <path d="
M48 15.7188
Q48 8.25 41.8125 3.46875
Q35.6406 -1.3125 24.9531 -1.3125
Q18.8906 -1.3125 13.8438 0.125
Q8.79688 1.5625 5.375 3.26562
L5.375 13.5781
L5.85938 13.5781
Q10.2031 10.2969 15.5156 8.375
Q20.8438 6.45312 25.7344 6.45312
Q31.7812 6.45312 35.2031 8.40625
Q38.625 10.3594 38.625 14.5469
Q38.625 17.7812 36.7656 19.4375
Q34.9062 21.0938 29.6406 22.2656
Q27.6875 22.7031 24.5312 23.2812
Q21.3906 23.875 18.7969 24.5625
Q11.625 26.4688 8.60938 30.1562
Q5.60938 33.8438 5.60938 39.2031
Q5.60938 42.5781 7 45.5469
Q8.40625 48.5312 11.2344 50.875
Q13.9688 53.1719 18.1875 54.5156
Q22.4062 55.8594 27.6406 55.8594
Q32.5156 55.8594 37.5156 54.6562
Q42.5312 53.4688 45.8438 51.7656
L45.8438 41.9375
L45.3594 41.9375
Q41.8438 44.5312 36.8125 46.3125
Q31.7812 48.0938 26.9531 48.0938
Q21.9219 48.0938 18.4531 46.1562
Q14.9844 44.2344 14.9844 40.4375
Q14.9844 37.0625 17.0938 35.3594
Q19.1406 33.6406 23.7344 32.5625
Q26.2656 31.9844 29.4062 31.3906
Q32.5625 30.8125 34.6719 30.3281
Q41.0625 28.8594 44.5312 25.2969
Q48 21.6875 48 15.7188" id="Verdana-73"/>
      <path d="
M54.6875 26.3125
L14.5 26.3125
Q14.5 21.2969 16.0156 17.5469
Q17.5312 13.8125 20.1719 11.4219
Q22.7031 9.07812 26.1875 7.90625
Q29.6875 6.73438 33.8906 6.73438
Q39.4531 6.73438 45.0938 8.95312
Q50.7344 11.1875 53.125 13.3281
L53.6094 13.3281
L53.6094 3.32812
Q48.9688 1.375 44.1406 0.046875
Q39.3125 -1.26562 33.9844 -1.26562
Q20.4062 -1.26562 12.7812 6.07812
Q5.17188 13.4219 5.17188 26.9531
Q5.17188 40.3281 12.4688 48.1875
Q19.7812 56.0625 31.6875 56.0625
Q42.7188 56.0625 48.7031 49.6094
Q54.6875 43.1719 54.6875 31.2969
z

M45.75 33.3438
Q45.7031 40.5781 42.1094 44.5312
Q38.5312 48.4844 31.2031 48.4844
Q23.8281 48.4844 19.4531 44.1406
Q15.0938 39.7969 14.5 33.3438
z
" id="Verdana-65"/>
      <path d="
M56.2031 54.5469
L34.125 0
L24.9062 0
L2.98438 54.5469
L12.9375 54.5469
L29.8281 11.1406
L46.5781 54.5469
z
" id="Verdana-76"/>
      <path d="
M49.3594 3.42188
Q44.7812 1.21875 40.6562 0
Q36.5312 -1.21875 31.8906 -1.21875
Q25.9844 -1.21875 21.0469 0.515625
Q16.1094 2.25 12.5938 5.76562
Q9.03125 9.28125 7.07812 14.6406
Q5.125 20.0156 5.125 27.2031
Q5.125 40.5781 12.4688 48.1875
Q19.8281 55.8125 31.8906 55.8125
Q36.5781 55.8125 41.0938 54.4844
Q45.6094 53.1719 49.3594 51.2656
L49.3594 41.0625
L48.875 41.0625
Q44.6719 44.3438 40.2031 46.0938
Q35.75 47.8594 31.5 47.8594
Q23.6875 47.8594 19.1719 42.6094
Q14.6562 37.3594 14.6562 27.2031
Q14.6562 17.3281 19.0625 12.0312
Q23.4844 6.73438 31.5 6.73438
Q34.2812 6.73438 37.1562 7.46875
Q40.0469 8.20312 42.3281 9.375
Q44.3438 10.4062 46.0938 11.5469
Q47.8594 12.7031 48.875 13.5312
L49.3594 13.5312
z
" id="Verdana-63"/>
      <path d="
M57.0312 27.6875
Q57.0312 20.8438 55.0938 15.375
Q53.1719 9.90625 49.9062 6.20312
Q46.4375 2.34375 42.2812 0.40625
Q38.1406 -1.51562 33.1562 -1.51562
Q28.5156 -1.51562 25.0469 -0.40625
Q21.5781 0.6875 18.2188 2.54688
L17.625 0
L9.03125 0
L9.03125 75.9844
L18.2188 75.9844
L18.2188 48.8281
Q22.0781 52 26.4219 54.0312
Q30.7656 56.0625 36.1875 56.0625
Q45.8438 56.0625 51.4375 48.6406
Q57.0312 41.2188 57.0312 27.6875
M47.5625 27.4375
Q47.5625 37.2031 44.3281 42.25
Q41.1094 47.3125 33.9375 47.3125
Q29.9375 47.3125 25.8281 45.5781
Q21.7344 43.8438 18.2188 41.1094
L18.2188 9.85938
Q22.125 8.10938 24.9219 7.42188
Q27.7344 6.73438 31.2969 6.73438
Q38.9219 6.73438 43.2344 11.7344
Q47.5625 16.75 47.5625 27.4375" id="Verdana-62"/>
      <path d="
M26.0312 63.6719
L15.6719 63.6719
L15.6719 73.1875
L26.0312 73.1875
z

M25.4375 -1.3125
Q25.4375 -10.8906 20.5469 -15.7656
Q15.6719 -20.6562 7.46875 -20.6562
Q5.51562 -20.6562 2.3125 -20.2656
Q-0.875 -19.875 -3.03125 -19.2812
L-3.03125 -10.5469
L-2.54688 -10.5469
Q-1.17188 -11.0781 1.14062 -11.7656
Q3.46875 -12.4531 5.67188 -12.4531
Q9.1875 -12.4531 11.3281 -11.4688
Q13.4844 -10.5 14.5469 -8.54688
Q15.625 -6.59375 15.9375 -3.82812
Q16.2656 -1.07812 16.2656 2.875
L16.2656 46.8281
L4.89062 46.8281
L4.89062 54.5469
L25.4375 54.5469
z
" id="Verdana-6a"/>
      <path d="
M37.3594 0.484375
Q34.7656 -0.203125 31.7031 -0.640625
Q28.6562 -1.07812 26.2656 -1.07812
Q17.9219 -1.07812 13.5781 3.40625
Q9.23438 7.90625 9.23438 17.8281
L9.23438 46.8281
L3.03125 46.8281
L3.03125 54.5469
L9.23438 54.5469
L9.23438 70.2188
L18.4062 70.2188
L18.4062 54.5469
L37.3594 54.5469
L37.3594 46.8281
L18.4062 46.8281
L18.4062 21.9688
Q18.4062 17.6719 18.5938 15.25
Q18.7969 12.8438 19.9688 10.75
Q21.0469 8.79688 22.9219 7.89062
Q24.8125 6.98438 28.6562 6.98438
Q30.9062 6.98438 33.3438 7.64062
Q35.7969 8.29688 36.8594 8.73438
L37.3594 8.73438
z
" id="Verdana-74"/>
      <path d="
M18.8906 63.6719
L8.54688 63.6719
L8.54688 73.1875
L18.8906 73.1875
z

M18.3125 0
L9.125 0
L9.125 54.5469
L18.3125 54.5469
z
" id="Verdana-69"/>
      <path d="
M54.25 0
L45.0625 0
L45.0625 6.0625
Q40.4375 2.39062 36.1875 0.4375
Q31.9375 -1.51562 26.8125 -1.51562
Q18.2188 -1.51562 13.4219 3.73438
Q8.64062 8.98438 8.64062 19.1406
L8.64062 54.5469
L17.8281 54.5469
L17.8281 23.4844
Q17.8281 19.3438 18.2188 16.375
Q18.6094 13.4219 19.875 11.3281
Q21.1875 9.1875 23.2812 8.20312
Q25.3906 7.23438 29.3906 7.23438
Q32.9531 7.23438 37.1719 9.07812
Q41.4062 10.9375 45.0625 13.8125
L45.0625 54.5469
L54.25 54.5469
z
" id="Verdana-75"/>
      <path d="
M38.375 67.0938
L37.8906 67.0938
Q36.375 67.5312 33.9375 67.9844
Q31.5 68.4531 29.6406 68.4531
Q23.7344 68.4531 21.0625 65.8438
Q18.4062 63.2344 18.4062 56.3906
L18.4062 54.5469
L34.9688 54.5469
L34.9688 46.8281
L18.7031 46.8281
L18.7031 0
L9.51562 0
L9.51562 46.8281
L3.32812 46.8281
L3.32812 54.5469
L9.51562 54.5469
L9.51562 56.3438
Q9.51562 66.0625 14.3438 71.2656
Q19.1875 76.4688 28.3281 76.4688
Q31.3906 76.4688 33.8594 76.1719
Q36.3281 75.875 38.375 75.4844
z
" id="Verdana-66"/>
      <path id="Verdana-20"/>
      <path d="
M56.25 0
L44.6719 0
L29.2031 20.9531
L13.625 0
L2.9375 0
L24.2188 27.2031
L3.125 54.5469
L14.7031 54.5469
L30.0781 33.9375
L45.5156 54.5469
L56.25 54.5469
L34.8125 27.6875
z
" id="Verdana-78"/>
      <path d="
M54.6406 0
L45.4531 0
L45.4531 31.0625
Q45.4531 34.8125 45.0156 38.1094
Q44.5781 41.4062 43.4062 43.2656
Q42.1875 45.3125 39.8906 46.3125
Q37.5938 47.3125 33.9375 47.3125
Q30.1719 47.3125 26.0625 45.4531
Q21.9688 43.6094 18.2188 40.7188
L18.2188 0
L9.03125 0
L9.03125 54.5469
L18.2188 54.5469
L18.2188 48.4844
Q22.5156 52.0469 27.0938 54.0469
Q31.6875 56.0625 36.5312 56.0625
Q45.3594 56.0625 50 50.7344
Q54.6406 45.4062 54.6406 35.4062
z
" id="Verdana-6e"/>
      <path d="
M55.5156 27.25
Q55.5156 13.9219 48.6719 6.20312
Q41.8438 -1.51562 30.375 -1.51562
Q18.7969 -1.51562 11.9844 6.20312
Q5.17188 13.9219 5.17188 27.25
Q5.17188 40.5781 11.9844 48.3125
Q18.7969 56.0625 30.375 56.0625
Q41.8438 56.0625 48.6719 48.3125
Q55.5156 40.5781 55.5156 27.25
M46.0469 27.25
Q46.0469 37.8438 41.8906 42.9844
Q37.75 48.1406 30.375 48.1406
Q22.9062 48.1406 18.7812 42.9844
Q14.6562 37.8438 14.6562 27.25
Q14.6562 17 18.7969 11.6875
Q22.9531 6.39062 30.375 6.39062
Q37.7031 6.39062 41.875 11.6406
Q46.0469 16.8906 46.0469 27.25" id="Verdana-6f"/>
     </defs>
     <g transform="translate(206.5078125 418.509375)scale(0.12 -0.12)">
      <use xlink:href="#Verdana-4f"/>
      <use x="78.7109375" xlink:href="#Verdana-62"/>
      <use x="141.015625" xlink:href="#Verdana-6a"/>
      <use x="175.439453125" xlink:href="#Verdana-65"/>
      <use x="235.009765625" xlink:href="#Verdana-63"/>
      <use x="287.109375" xlink:href="#Verdana-74"/>
      <use x="326.513671875" xlink:href="#Verdana-69"/>
      <use x="353.955078125" xlink:href="#Verdana-76"/>
      <use x="412.259765625" xlink:href="#Verdana-65"/>
      <use x="471.830078125" xlink:href="#Verdana-20"/>
      <use x="506.986328125" xlink:href="#Verdana-66"/>
      <use x="542.142578125" xlink:href="#Verdana-75"/>
      <use x="605.423828125" xlink:href="#Verdana-6e"/>
      <use x="668.705078125" xlink:href="#Verdana-63"/>
      <use x="720.8046875" xlink:href="#Verdana-74"/>
      <use x="760.208984375" xlink:href="#Verdana-69"/>
      <use x="787.650390625" xlink:href="#Verdana-6f"/>
      <use x="848.34375" xlink:href="#Verdana-6e"/>
      <use x="911.625" xlink:href="#Verdana-20"/>
      <use x="946.78125" xlink:href="#Verdana-65"/>
      <use x="1006.3515625" xlink:href="#Verdana-78"/>
      <use x="1064.40625" xlink:href="#Verdana-65"/>
      <use x="1123.9765625" xlink:href="#Verdana-63"/>
      <use x="1176.076171875" xlink:href="#Verdana-74"/>
      <use x="1215.48046875" xlink:href="#Verdana-75"/>
      <use x="1278.76171875" xlink:href="#Verdana-69"/>
      <use x="1306.203125" xlink:href="#Verdana-6f"/>
      <use x="1366.896484375" xlink:href="#Verdana-6e"/>
      <use x="1430.177734375" xlink:href="#Verdana-73"/>
     </g>
    </g>
   </g>
   <g id="matplotlib.axis_2">
    <g id="ytick_1">
     <g id="line2d_18">
      <defs>
       <path d="
M0 0
L4 0" id="md7965d1ba0" style="stroke:#000000;stroke-width:0.5;"/>
      </defs>
      <g>
       <use style="stroke:#000000;stroke-width:0.5;" x="72.0" xlink:href="#md7965d1ba0" y="388.8"/>
      </g>
     </g>
     <g id="line2d_19">
      <defs>
       <path d="
M0 0
L-4 0" id="md9a1c1a7cd" style="stroke:#000000;stroke-width:0.5;"/>
      </defs>
      <g>
       <use style="stroke:#000000;stroke-width:0.5;" x="518.4" xlink:href="#md9a1c1a7cd" y="388.8"/>
      </g>
     </g>
     <g id="text_8">
      <!-- 0.0 -->
      <defs>
       <path d="
M24.0312 0
L12.3594 0
L12.3594 13.9219
L24.0312 13.9219
z
" id="Verdana-2e"/>
      </defs>
      <g transform="translate(49.97 392.1515625)scale(0.12 -0.12)">
       <use xlink:href="#Verdana-30"/>
       <use x="63.57421875" xlink:href="#Verdana-2e"/>
       <use x="99.951171875" xlink:href="#Verdana-30"/>
      </g>
     </g>
    </g>
    <g id="ytick_2">
     <g id="line2d_20">
      <g>
       <use style="stroke:#000000;stroke-width:0.5;" x="72.0" xlink:href="#md7965d1ba0" y="319.68"/>
      </g>
     </g>
     <g id="line2d_21">
      <g>
       <use style="stroke:#000000;stroke-width:0.5;" x="518.4" xlink:href="#md9a1c1a7cd" y="319.68"/>
      </g>
     </g>
     <g id="text_9">
      <!-- 0.2 -->
      <g transform="translate(49.95875 323.0315625)scale(0.12 -0.12)">
       <use xlink:href="#Verdana-30"/>
       <use x="63.57421875" xlink:href="#Verdana-2e"/>
       <use x="99.951171875" xlink:href="#Verdana-32"/>
      </g>
     </g>
    </g>
    <g id="ytick_3">
     <g id="line2d_22">
      <g>
       <use style="stroke:#000000;stroke-width:0.5;" x="72.0" xlink:href="#md7965d1ba0" y="250.56"/>
      </g>
     </g>
     <g id="line2d_23">
      <g>
       <use style="stroke:#000000;stroke-width:0.5;" x="518.4" xlink:href="#md9a1c1a7cd" y="250.56"/>
      </g>
     </g>
     <g id="text_10">
      <!-- 0.4 -->
      <g transform="translate(49.76 253.9115625)scale(0.12 -0.12)">
       <use xlink:href="#Verdana-30"/>
       <use x="63.57421875" xlink:href="#Verdana-2e"/>
       <use x="99.951171875" xlink:href="#Verdana-34"/>
      </g>
     </g>
    </g>
    <g id="ytick_4">
     <g id="line2d_24">
      <g>
       <use style="stroke:#000000;stroke-width:0.5;" x="72.0" xlink:href="#md7965d1ba0" y="181.44"/>
      </g>
     </g>
     <g id="line2d_25">
      <g>
       <use style="stroke:#000000;stroke-width:0.5;" x="518.4" xlink:href="#md9a1c1a7cd" y="181.44"/>
      </g>
     </g>
     <g id="text_11">
      <!-- 0.6 -->
      <defs>
       <path d="
M58.1562 23.5781
Q58.1562 12.5 50.8594 5.48438
Q43.5625 -1.51562 32.9531 -1.51562
Q27.5938 -1.51562 23.1875 0.140625
Q18.7969 1.8125 15.4375 5.07812
Q11.2344 9.125 8.95312 15.8125
Q6.6875 22.5156 6.6875 31.9375
Q6.6875 41.6094 8.76562 49.0781
Q10.8438 56.5469 15.375 62.3594
Q19.6719 67.875 26.4531 70.9688
Q33.25 74.0781 42.2812 74.0781
Q45.1719 74.0781 47.125 73.8281
Q49.0781 73.5781 51.0781 72.9531
L51.0781 63.625
L50.5938 63.625
Q49.2188 64.3594 46.4531 65.0156
Q43.7031 65.6719 40.8281 65.6719
Q30.3281 65.6719 24.0781 59.1094
Q17.8281 52.5469 16.7969 41.3594
Q20.9062 43.8438 24.875 45.1406
Q28.8594 46.4375 34.0781 46.4375
Q38.7188 46.4375 42.25 45.5781
Q45.7969 44.7344 49.5156 42.1406
Q53.8125 39.1562 55.9844 34.6094
Q58.1562 30.0781 58.1562 23.5781
M48.25 23.1875
Q48.25 27.7344 46.9062 30.7031
Q45.5625 33.6875 42.4844 35.8906
Q40.2344 37.4531 37.5 37.9375
Q34.7656 38.4219 31.7812 38.4219
Q27.6406 38.4219 24.0781 37.4375
Q20.5156 36.4688 16.75 34.4219
Q16.6562 33.3438 16.5938 32.3438
Q16.5469 31.3438 16.5469 29.8281
Q16.5469 22.125 18.1406 17.6562
Q19.7344 13.1875 22.5156 10.5938
Q24.75 8.45312 27.3594 7.45312
Q29.9844 6.45312 33.0625 6.45312
Q40.1406 6.45312 44.1875 10.7656
Q48.25 15.0938 48.25 23.1875" id="Verdana-36"/>
      </defs>
      <g transform="translate(49.829375 184.7915625)scale(0.12 -0.12)">
       <use xlink:href="#Verdana-30"/>
       <use x="63.57421875" xlink:href="#Verdana-2e"/>
       <use x="99.951171875" xlink:href="#Verdana-36"/>
      </g>
     </g>
    </g>
    <g id="ytick_5">
     <g id="line2d_26">
      <g>
       <use style="stroke:#000000;stroke-width:0.5;" x="72.0" xlink:href="#md7965d1ba0" y="112.32"/>
      </g>
     </g>
     <g id="line2d_27">
      <g>
       <use style="stroke:#000000;stroke-width:0.5;" x="518.4" xlink:href="#md9a1c1a7cd" y="112.32"/>
      </g>
     </g>
     <g id="text_12">
      <!-- 0.8 -->
      <defs>
       <path d="
M57.625 20.2656
Q57.625 10.8438 50.2656 4.59375
Q42.9219 -1.65625 31.7812 -1.65625
Q19.9688 -1.65625 12.9531 4.4375
Q5.95312 10.5469 5.95312 20.0625
Q5.95312 26.125 9.46875 31.0312
Q12.9844 35.9375 19.3906 38.8125
L19.3906 39.1094
Q13.5312 42.2344 10.7188 45.9375
Q7.90625 49.6562 7.90625 55.2188
Q7.90625 63.4219 14.6406 68.8906
Q21.3906 74.3594 31.7812 74.3594
Q42.6719 74.3594 49.1719 69.1406
Q55.6719 63.9219 55.6719 55.8594
Q55.6719 50.9219 52.5938 46.1562
Q49.5156 41.4062 43.5625 38.7188
L43.5625 38.4219
Q50.3906 35.5 54 31.2031
Q57.625 26.9062 57.625 20.2656
M46.0469 55.7656
Q46.0469 60.9844 42.0156 64.0781
Q37.9844 67.1875 31.7344 67.1875
Q25.5938 67.1875 21.6562 64.25
Q17.7188 61.3281 17.7188 56.3438
Q17.7188 52.8281 19.7031 50.2656
Q21.6875 47.7031 25.6875 45.7031
Q27.4844 44.8281 30.875 43.4062
Q34.2812 42 37.5 41.0625
Q42.3281 44.2812 44.1875 47.75
Q46.0469 51.2188 46.0469 55.7656
M47.5625 19.3438
Q47.5625 23.8281 45.5781 26.5312
Q43.6094 29.25 37.8438 31.9844
Q35.5469 33.0625 32.8125 33.9844
Q30.0781 34.9062 25.5312 36.5781
Q21.1406 34.1875 18.4844 30.0781
Q15.8281 25.9844 15.8281 20.7969
Q15.8281 14.2031 20.3594 9.90625
Q24.9062 5.60938 31.8906 5.60938
Q39.0156 5.60938 43.2812 9.26562
Q47.5625 12.9375 47.5625 19.3438" id="Verdana-38"/>
      </defs>
      <g transform="translate(49.893125 115.6715625)scale(0.12 -0.12)">
       <use xlink:href="#Verdana-30"/>
       <use x="63.57421875" xlink:href="#Verdana-2e"/>
       <use x="99.951171875" xlink:href="#Verdana-38"/>
      </g>
     </g>
    </g>
    <g id="ytick_6">
     <g id="line2d_28">
      <g>
       <use style="stroke:#000000;stroke-width:0.5;" x="72.0" xlink:href="#md7965d1ba0" y="43.2"/>
      </g>
     </g>
     <g id="line2d_29">
      <g>
       <use style="stroke:#000000;stroke-width:0.5;" x="518.4" xlink:href="#md9a1c1a7cd" y="43.2"/>
      </g>
     </g>
     <g id="text_13">
      <!-- 1.0 -->
      <g transform="translate(50.796875 46.5515625)scale(0.12 -0.12)">
       <use xlink:href="#Verdana-31"/>
       <use x="63.57421875" xlink:href="#Verdana-2e"/>
       <use x="99.951171875" xlink:href="#Verdana-30"/>
      </g>
     </g>
    </g>
    <g id="text_14">
     <!-- Data Profile T-0.0000100 -->
     <defs>
      <path d="
M18.3125 0
L9.125 0
L9.125 75.9844
L18.3125 75.9844
z
" id="Verdana-6c"/>
      <path d="
M43.0625 44.5312
L42.5781 44.5312
Q40.5312 45.0156 38.5938 45.2344
Q36.6719 45.4531 34.0312 45.4531
Q29.7812 45.4531 25.8281 43.5781
Q21.875 41.7031 18.2188 38.7188
L18.2188 0
L9.03125 0
L9.03125 54.5469
L18.2188 54.5469
L18.2188 46.4844
Q23.6875 50.875 27.8594 52.7031
Q32.0312 54.5469 36.375 54.5469
Q38.7656 54.5469 39.8438 54.4219
Q40.9219 54.2969 43.0625 53.9531
z
" id="Verdana-72"/>
      <path d="
M71.1875 36.2812
Q71.1875 26.375 66.8594 18.3125
Q62.5469 10.25 55.375 5.8125
Q50.3906 2.73438 44.2656 1.35938
Q38.1406 0 28.125 0
L9.76562 0
L9.76562 72.7031
L27.9375 72.7031
Q38.5781 72.7031 44.8438 71.1562
Q51.125 69.625 55.4688 66.9375
Q62.8906 62.3125 67.0312 54.5938
Q71.1875 46.875 71.1875 36.2812
M61.0781 36.4219
Q61.0781 44.9688 58.0938 50.8281
Q55.125 56.6875 49.2188 60.0625
Q44.9219 62.5 40.0781 63.4531
Q35.25 64.4062 28.5156 64.4062
L19.4375 64.4062
L19.4375 8.29688
L28.5156 8.29688
Q35.5 8.29688 40.7031 9.32812
Q45.9062 10.3594 50.25 13.1406
Q55.6719 16.6094 58.375 22.2656
Q61.0781 27.9375 61.0781 36.4219" id="Verdana-44"/>
      <path d="
M37.9375 27.3906
L7.46875 27.3906
L7.46875 36.2344
L37.9375 36.2344
z
" id="Verdana-2d"/>
      <path d="
M51.4219 0
L42.2812 0
L42.2812 5.8125
Q41.0625 4.98438 38.9844 3.48438
Q36.9219 2 34.9688 1.125
Q32.6719 0 29.6875 -0.75
Q26.7031 -1.51562 22.7031 -1.51562
Q15.3281 -1.51562 10.2031 3.35938
Q5.07812 8.25 5.07812 15.8281
Q5.07812 22.0156 7.73438 25.8438
Q10.4062 29.6875 15.3281 31.8906
Q20.3125 34.0781 27.2969 34.8594
Q34.2812 35.6406 42.2812 36.0312
L42.2812 37.4531
Q42.2812 40.5781 41.1875 42.625
Q40.0938 44.6719 38.0312 45.8438
Q36.0781 46.9688 33.3438 47.3594
Q30.6094 47.75 27.6406 47.75
Q24.0312 47.75 19.5781 46.7969
Q15.1406 45.8438 10.4062 44.0469
L9.90625 44.0469
L9.90625 53.375
Q12.5938 54.1094 17.6719 54.9844
Q22.75 55.8594 27.6875 55.8594
Q33.4531 55.8594 37.7188 54.9062
Q42 53.9531 45.125 51.6562
Q48.1875 49.4219 49.7969 45.8438
Q51.4219 42.2812 51.4219 37.0156
z

M42.2812 13.4219
L42.2812 28.6094
Q38.0938 28.375 32.3906 27.875
Q26.7031 27.3906 23.3906 26.4688
Q19.4375 25.3438 16.9844 22.9688
Q14.5469 20.6094 14.5469 16.4531
Q14.5469 11.7656 17.375 9.39062
Q20.2188 7.03125 26.0312 7.03125
Q30.8594 7.03125 34.8594 8.90625
Q38.875 10.7969 42.2812 13.4219" id="Verdana-61"/>
      <path d="
M57.3281 50.7344
Q57.3281 45.9062 55.6406 41.7656
Q53.9531 37.6406 50.9219 34.625
Q47.1719 30.8594 42.0469 28.9688
Q36.9219 27.0938 29.1094 27.0938
L19.4375 27.0938
L19.4375 0
L9.76562 0
L9.76562 72.7031
L29.5 72.7031
Q36.0312 72.7031 40.5781 71.6094
Q45.125 70.5156 48.6406 68.1719
Q52.7812 65.375 55.0469 61.2188
Q57.3281 57.0781 57.3281 50.7344
M47.2656 50.4844
Q47.2656 54.25 45.9375 57.0312
Q44.625 59.8125 41.9375 61.5781
Q39.5938 63.0938 36.5938 63.75
Q33.5938 64.4062 29 64.4062
L19.4375 64.4062
L19.4375 35.3594
L27.5938 35.3594
Q33.4531 35.3594 37.1094 36.4062
Q40.7656 37.4531 43.0625 39.75
Q45.3594 42.0938 46.3125 44.6719
Q47.2656 47.2656 47.2656 50.4844" id="Verdana-50"/>
      <path d="
M61.625 64.1094
L35.6406 64.1094
L35.6406 0
L25.9844 0
L25.9844 64.1094
L0 64.1094
L0 72.7031
L61.625 72.7031
z
" id="Verdana-54"/>
     </defs>
     <g transform="translate(42.345 291.493125)rotate(-90.0)scale(0.12 -0.12)">
      <use xlink:href="#Verdana-44"/>
      <use x="77.05078125" xlink:href="#Verdana-61"/>
      <use x="137.109375" xlink:href="#Verdana-74"/>
      <use x="176.513671875" xlink:href="#Verdana-61"/>
      <use x="236.572265625" xlink:href="#Verdana-20"/>
      <use x="271.728515625" xlink:href="#Verdana-50"/>
      <use x="332.03125" xlink:href="#Verdana-72"/>
      <use x="374.70703125" xlink:href="#Verdana-6f"/>
      <use x="435.400390625" xlink:href="#Verdana-66"/>
      <use x="470.556640625" xlink:href="#Verdana-69"/>
      <use x="497.998046875" xlink:href="#Verdana-6c"/>
      <use x="525.439453125" xlink:href="#Verdana-65"/>
      <use x="585.009765625" xlink:href="#Verdana-20"/>
      <use x="620.166015625" xlink:href="#Verdana-54"/>
      <use x="674.412109375" xlink:href="#Verdana-2d"/>
      <use x="719.822265625" xlink:href="#Verdana-30"/>
      <use x="783.396484375" xlink:href="#Verdana-2e"/>
      <use x="819.7734375" xlink:href="#Verdana-30"/>
      <use x="883.34765625" xlink:href="#Verdana-30"/>
      <use x="946.921875" xlink:href="#Verdana-30"/>
      <use x="1010.49609375" xlink:href="#Verdana-30"/>
      <use x="1074.0703125" xlink:href="#Verdana-31"/>
      <use x="1137.64453125" xlink:href="#Verdana-30"/>
      <use x="1201.21875" xlink:href="#Verdana-30"/>
     </g>
    </g>
   </g>
   <g id="patch_3">
    <path d="
M72 388.8
L72 43.2" style="fill:none;stroke:#000000;"/>
   </g>
   <g id="patch_4">
    <path d="
M518.4 388.8
L518.4 43.2" style="fill:none;stroke:#000000;"/>
   </g>
   <g id="patch_5">
    <path d="
M72 388.8
L518.4 388.8" style="fill:none;stroke:#000000;"/>
   </g>
   <g id="patch_6">
    <path d="
M72 43.2
L518.4 43.2" style="fill:none;stroke:#000000;"/>
   </g>
   <g id="text_15">
    <!-- Quintic Data Profile T-0.0000100 -->
    <defs>
     <path d="
M74.6094 -17.8281
Q71.6875 -18.5625 68.8281 -18.875
Q65.9688 -19.1875 62.9844 -19.1875
Q54.5 -19.1875 49.3438 -14.5156
Q44.1875 -9.85938 43.75 -1.17188
Q42.5781 -1.375 41.4688 -1.4375
Q40.375 -1.51562 39.3594 -1.51562
Q31.6875 -1.51562 25.4062 1.01562
Q19.1406 3.5625 14.75 8.40625
Q10.3594 13.2344 7.98438 20.2656
Q5.60938 27.2969 5.60938 36.3281
Q5.60938 45.2188 7.95312 52.2656
Q10.2969 59.3281 14.7969 64.3594
Q19.0938 69.1406 25.4688 71.6719
Q31.8438 74.2188 39.3594 74.2188
Q47.1719 74.2188 53.3906 71.6562
Q59.625 69.0938 63.9688 64.3594
Q68.4062 59.4688 70.7656 52.3906
Q73.1406 45.3125 73.1406 36.3281
Q73.1406 23 67.6875 13.8594
Q62.25 4.73438 53.0781 1.07812
Q53.2656 -4.5 55.7031 -7.5625
Q58.1562 -10.6406 64.5938 -10.6406
Q66.6094 -10.6406 69.3594 -10.0312
Q72.125 -9.42188 73.2969 -8.9375
L74.6094 -8.9375
z

M63.0938 36.3281
Q63.0938 50.4844 56.7344 58.1719
Q50.3906 65.875 39.4062 65.875
Q28.3281 65.875 22 58.1719
Q15.6719 50.4844 15.6719 36.3281
Q15.6719 22.0156 22.1094 14.4219
Q28.5625 6.84375 39.4062 6.84375
Q50.25 6.84375 56.6719 14.4219
Q63.0938 22.0156 63.0938 36.3281" id="Verdana-51"/>
    </defs>
    <g transform="translate(176.75775 38.2)scale(0.144 -0.144)">
     <use xlink:href="#Verdana-51"/>
     <use x="78.7109375" xlink:href="#Verdana-75"/>
     <use x="141.9921875" xlink:href="#Verdana-69"/>
     <use x="169.43359375" xlink:href="#Verdana-6e"/>
     <use x="232.71484375" xlink:href="#Verdana-74"/>
     <use x="272.119140625" xlink:href="#Verdana-69"/>
     <use x="299.560546875" xlink:href="#Verdana-63"/>
     <use x="351.66015625" xlink:href="#Verdana-20"/>
     <use x="386.81640625" xlink:href="#Verdana-44"/>
     <use x="463.8671875" xlink:href="#Verdana-61"/>
     <use x="523.92578125" xlink:href="#Verdana-74"/>
     <use x="563.330078125" xlink:href="#Verdana-61"/>
     <use x="623.388671875" xlink:href="#Verdana-20"/>
     <use x="658.544921875" xlink:href="#Verdana-50"/>
     <use x="718.84765625" xlink:href="#Verdana-72"/>
     <use x="761.5234375" xlink:href="#Verdana-6f"/>
     <use x="822.216796875" xlink:href="#Verdana-66"/>
     <use x="857.373046875" xlink:href="#Verdana-69"/>
     <use x="884.814453125" xlink:href="#Verdana-6c"/>
     <use x="912.255859375" xlink:href="#Verdana-65"/>
     <use x="971.826171875" xlink:href="#Verdana-20"/>
     <use x="1006.982421875" xlink:href="#Verdana-54"/>
     <use x="1061.228515625" xlink:href="#Verdana-2d"/>
     <use x="1106.638671875" xlink:href="#Verdana-30"/>
     <use x="1170.212890625" xlink:href="#Verdana-2e"/>
     <use x="1206.58984375" xlink:href="#Verdana-30"/>
     <use x="1270.1640625" xlink:href="#Verdana-30"/>
     <use x="1333.73828125" xlink:href="#Verdana-30"/>
     <use x="1397.3125" xlink:href="#Verdana-30"/>
     <use x="1460.88671875" xlink:href="#Verdana-31"/>
     <use x="1524.4609375" xlink:href="#Verdana-30"/>
     <use x="1588.03515625" xlink:href="#Verdana-30"/>
    </g>
   </g>
   <g id="legend_1">
    <g id="patch_7">
     <path d="
M79.2 159.919
L183.22 159.919
L183.22 50.4
L79.2 50.4
L79.2 159.919
z
" style="fill:#ffffff;stroke:#000000;"/>
    </g>
    <g id="line2d_30">
     <path d="
M89.28 62.0617
L109.44 62.0617" style="fill:none;stroke:#0000ff;stroke-dasharray:6.000000,2.000000;stroke-dashoffset:0.0;"/>
    </g>
    <g id="line2d_31"/>
    <g id="text_16">
     <!-- AMPGO -->
     <defs>
      <path d="
M67.0938 0
L56.7812 0
L49.6562 20.2656
L18.2188 20.2656
L11.0781 0
L1.26562 0
L27.7344 72.7031
L40.625 72.7031
z

M46.6875 28.5625
L33.9375 64.2656
L21.1406 28.5625
z
" id="Verdana-41"/>
      <path d="
M70.4062 5.375
Q64.4531 2.64062 57.3906 0.609375
Q50.3438 -1.42188 43.75 -1.42188
Q35.25 -1.42188 28.1719 0.921875
Q21.0938 3.26562 16.1094 7.95312
Q11.0781 12.7031 8.34375 19.7969
Q5.60938 26.9062 5.60938 36.4219
Q5.60938 53.8594 15.7969 63.9375
Q25.9844 74.0312 43.75 74.0312
Q49.9531 74.0312 56.4219 72.5312
Q62.8906 71.0469 70.3594 67.4844
L70.3594 56
L69.4844 56
Q67.9688 57.1719 65.0781 59.0781
Q62.2031 60.9844 59.4219 62.25
Q56.0625 63.7656 51.7812 64.7656
Q47.5156 65.7656 42.0938 65.7656
Q29.8906 65.7656 22.7812 57.9219
Q15.6719 50.0938 15.6719 36.7188
Q15.6719 22.6094 23.0938 14.7656
Q30.5156 6.9375 43.3125 6.9375
Q48 6.9375 52.6562 7.85938
Q57.3281 8.79688 60.8438 10.25
L60.8438 28.0781
L41.3594 28.0781
L41.3594 36.5781
L70.4062 36.5781
z
" id="Verdana-47"/>
      <path d="
M74.5156 0
L64.8438 0
L64.8438 62.6406
L44.625 20.0156
L38.875 20.0156
L18.7969 62.6406
L18.7969 0
L9.76562 0
L9.76562 72.7031
L22.9531 72.7031
L42.3281 32.2344
L61.0781 72.7031
L74.5156 72.7031
z
" id="Verdana-4d"/>
     </defs>
     <g transform="translate(125.28 67.10175)scale(0.144 -0.144)">
      <use xlink:href="#Verdana-41"/>
      <use x="68.359375" xlink:href="#Verdana-4d"/>
      <use x="152.63671875" xlink:href="#Verdana-50"/>
      <use x="212.939453125" xlink:href="#Verdana-47"/>
      <use x="290.478515625" xlink:href="#Verdana-4f"/>
     </g>
    </g>
    <g id="line2d_32">
     <path d="
M89.28 83.1015
L109.44 83.1015" style="fill:none;stroke:#008000;stroke-dasharray:1.000000,1.000000;stroke-dashoffset:0.0;"/>
    </g>
    <g id="line2d_33"/>
    <g id="text_17">
     <!-- Anneal -->
     <g transform="translate(125.28 88.1415)scale(0.144 -0.144)">
      <use xlink:href="#Verdana-41"/>
      <use x="68.359375" xlink:href="#Verdana-6e"/>
      <use x="131.640625" xlink:href="#Verdana-6e"/>
      <use x="194.921875" xlink:href="#Verdana-65"/>
      <use x="254.4921875" xlink:href="#Verdana-61"/>
      <use x="314.55078125" xlink:href="#Verdana-6c"/>
     </g>
    </g>
    <g id="line2d_34">
     <path d="
M89.28 104.141
L109.44 104.141" style="fill:none;stroke:#ff0000;stroke-dasharray:3.000000,6.000000;stroke-dashoffset:0.0;"/>
    </g>
    <g id="line2d_35"/>
    <g id="text_18">
     <!-- BSA -->
     <defs>
      <path d="
M62.5938 20.75
Q62.5938 16.5 60.6094 12.3438
Q58.6406 8.20312 55.0781 5.32812
Q51.1719 2.20312 45.9688 0.4375
Q40.7656 -1.3125 33.4531 -1.3125
Q25.5938 -1.3125 19.3125 0.140625
Q13.0312 1.60938 6.54688 4.5
L6.54688 16.6094
L7.23438 16.6094
Q12.75 12.0156 19.9688 9.51562
Q27.2031 7.03125 33.5469 7.03125
Q42.5312 7.03125 47.5312 10.3906
Q52.5469 13.7656 52.5469 19.3906
Q52.5469 24.2188 50.1719 26.5156
Q47.7969 28.8125 42.9688 30.0781
Q39.3125 31.0625 35.0312 31.6875
Q30.7656 32.3281 25.9844 33.2969
Q16.3125 35.3594 11.6406 40.3125
Q6.98438 45.2656 6.98438 53.2188
Q6.98438 62.3594 14.6875 68.1875
Q22.4062 74.0312 34.2812 74.0312
Q41.9375 74.0312 48.3281 72.5625
Q54.7344 71.0938 59.6719 68.9531
L59.6719 57.5156
L58.9844 57.5156
Q54.8281 61.0312 48.0625 63.3438
Q41.3125 65.6719 34.2344 65.6719
Q26.4688 65.6719 21.75 62.4531
Q17.0469 59.2344 17.0469 54.1562
Q17.0469 49.6094 19.3906 47.0156
Q21.7344 44.4375 27.6406 43.0625
Q30.7656 42.3906 36.5156 41.4062
Q42.2812 40.4375 46.2969 39.4062
Q54.3906 37.25 58.4844 32.9062
Q62.5938 28.5625 62.5938 20.75" id="Verdana-53"/>
      <path d="
M64.5938 22.3594
Q64.5938 16.9375 62.5469 12.7812
Q60.5 8.64062 57.0312 5.95312
Q52.9375 2.73438 48.0156 1.35938
Q43.1094 0 35.5469 0
L9.76562 0
L9.76562 72.7031
L31.2969 72.7031
Q39.2656 72.7031 43.2188 72.1094
Q47.1719 71.5312 50.7812 69.6719
Q54.7812 67.5781 56.5938 64.2812
Q58.4062 60.9844 58.4062 56.3906
Q58.4062 51.2188 55.7656 47.5781
Q53.125 43.9531 48.7344 41.75
L48.7344 41.3594
Q56.1094 39.8438 60.3438 34.8906
Q64.5938 29.9375 64.5938 22.3594
M48.3438 55.125
Q48.3438 57.7656 47.4531 59.5625
Q46.5781 61.375 44.625 62.5
Q42.3281 63.8125 39.0625 64.125
Q35.7969 64.4531 30.9531 64.4531
L19.4375 64.4531
L19.4375 43.4531
L31.9375 43.4531
Q36.4688 43.4531 39.1562 43.9219
Q41.8438 44.3906 44.1406 45.8438
Q46.4375 47.3125 47.3906 49.625
Q48.3438 51.9531 48.3438 55.125
M54.5469 21.9688
Q54.5469 26.375 53.2188 28.9531
Q51.9062 31.5469 48.4375 33.3438
Q46.0938 34.5781 42.75 34.9375
Q39.4062 35.2969 34.625 35.2969
L19.4375 35.2969
L19.4375 8.25
L32.2344 8.25
Q38.5781 8.25 42.625 8.90625
Q46.6875 9.57812 49.2656 11.3281
Q52 13.2344 53.2656 15.6719
Q54.5469 18.1094 54.5469 21.9688" id="Verdana-42"/>
     </defs>
     <g transform="translate(125.28 109.18125)scale(0.144 -0.144)">
      <use xlink:href="#Verdana-42"/>
      <use x="68.5546875" xlink:href="#Verdana-53"/>
      <use x="135.9140625" xlink:href="#Verdana-41"/>
     </g>
    </g>
    <g id="line2d_36">
     <path d="
M89.28 125.181
L109.44 125.181" style="fill:none;stroke:#00bfbf;stroke-dasharray:5.000000,1.000000,2.000000,1.000000,5.000000,1.000000;stroke-dashoffset:0.0;"/>
    </g>
    <g id="line2d_37"/>
    <g id="text_19">
     <!-- Cuckoo -->
     <defs>
      <path d="
M58.5469 0
L46.4375 0
L24.5625 23.875
L18.6094 18.2188
L18.6094 0
L9.42188 0
L9.42188 75.9844
L18.6094 75.9844
L18.6094 27.25
L45.125 54.5469
L56.6875 54.5469
L31.3438 29.3438
z
" id="Verdana-6b"/>
      <path d="
M65.9219 5.28125
Q63.2344 4.10938 61.0625 3.07812
Q58.8906 2.04688 55.375 0.921875
Q52.3906 0 48.8906 -0.65625
Q45.4062 -1.3125 41.2188 -1.3125
Q33.2969 -1.3125 26.8281 0.90625
Q20.3594 3.125 15.5781 7.85938
Q10.8906 12.5 8.25 19.6562
Q5.60938 26.8125 5.60938 36.2812
Q5.60938 45.2656 8.14062 52.3438
Q10.6875 59.4219 15.4844 64.3125
Q20.125 69.0469 26.6875 71.5312
Q33.25 74.0312 41.2656 74.0312
Q47.125 74.0312 52.9531 72.6094
Q58.7969 71.1875 65.9219 67.625
L65.9219 56.1562
L65.1875 56.1562
Q59.1875 61.1875 53.2656 63.4688
Q47.3594 65.7656 40.625 65.7656
Q35.1094 65.7656 30.6875 63.9844
Q26.2656 62.2031 22.7969 58.4531
Q19.4375 54.7812 17.5469 49.1875
Q15.6719 43.6094 15.6719 36.2812
Q15.6719 28.6094 17.75 23.0938
Q19.8281 17.5781 23.0938 14.1094
Q26.5156 10.5 31.0781 8.76562
Q35.6406 7.03125 40.7188 7.03125
Q47.7031 7.03125 53.7969 9.42188
Q59.9062 11.8125 65.2344 16.6094
L65.9219 16.6094
z
" id="Verdana-43"/>
     </defs>
     <g transform="translate(125.28 130.221)scale(0.144 -0.144)">
      <use xlink:href="#Verdana-43"/>
      <use x="69.82421875" xlink:href="#Verdana-75"/>
      <use x="133.10546875" xlink:href="#Verdana-63"/>
      <use x="185.205078125" xlink:href="#Verdana-6b"/>
      <use x="243.384765625" xlink:href="#Verdana-6f"/>
      <use x="304.078125" xlink:href="#Verdana-6f"/>
     </g>
    </g>
    <g id="line2d_38">
     <path d="
M89.28 146.221
L109.44 146.221" style="fill:none;stroke:#bf00bf;stroke-linecap:square;"/>
    </g>
    <g id="line2d_39"/>
    <g id="text_20">
     <!-- qABC -->
     <defs>
      <path d="
M53.2656 -20.125
L44.0938 -20.125
L44.0938 6.15625
Q39.8438 2.48438 35.6406 0.703125
Q31.4531 -1.07812 26.5625 -1.07812
Q16.8438 -1.07812 11.0625 6.42188
Q5.28125 13.9219 5.28125 27.0938
Q5.28125 34.125 7.29688 39.5156
Q9.32812 44.9219 12.6406 48.5781
Q15.875 52.1562 20.2188 54.1094
Q24.5625 56.0625 29.3906 56.0625
Q33.7969 56.0625 37.1875 55.0781
Q40.5781 54.1094 44.0938 52.2031
L44.6719 54.5469
L53.2656 54.5469
z

M44.0938 13.875
L44.0938 44.7344
Q40.2812 46.4375 37.3438 47.1094
Q34.4219 47.7969 31 47.7969
Q23.0469 47.7969 18.8906 42.4062
Q14.75 37.0156 14.75 27.5469
Q14.75 17.9688 18.0938 12.8125
Q21.4375 7.67188 28.6094 7.67188
Q32.625 7.67188 36.625 9.40625
Q40.625 11.1406 44.0938 13.875" id="Verdana-71"/>
     </defs>
     <g transform="translate(125.28 151.26075)scale(0.144 -0.144)">
      <use xlink:href="#Verdana-71"/>
      <use x="62.3046875" xlink:href="#Verdana-41"/>
      <use x="130.6640625" xlink:href="#Verdana-42"/>
      <use x="199.21875" xlink:href="#Verdana-43"/>
     </g>
    </g>
   </g>
  </g>
 </g>
 <defs>
  <clipPath id="p7ff5b81e1d">
   <rect height="345.6" width="446.4" x="72.0" y="43.2"/>
  </clipPath>
 </defs>
</svg>
