<?xml version="1.0" encoding="utf-8" standalone="no"?>
<!DOCTYPE svg PUBLIC "-//W3C//DTD SVG 1.1//EN"
  "http://www.w3.org/Graphics/SVG/1.1/DTD/svg11.dtd">
<!-- Created with matplotlib (http://matplotlib.org/) -->
<svg height="432pt" version="1.1" viewBox="0 0 576 432" width="576pt" xmlns="http://www.w3.org/2000/svg" xmlns:xlink="http://www.w3.org/1999/xlink">
 <defs>
  <style type="text/css">
*{stroke-linecap:butt;stroke-linejoin:round;}
  </style>
 </defs>
 <g id="figure_1">
  <g id="patch_1">
   <path d="
M0 432
L576 432
L576 0
L0 0
z
" style="fill:#ffffff;"/>
  </g>
  <g id="axes_1">
   <g id="patch_2">
    <path d="
M72 388.8
L518.4 388.8
L518.4 43.2
L72 43.2
z
" style="fill:#ffffff;"/>
   </g>
   <g id="line2d_1">
    <path clip-path="url(#p7ff5b81e1d)" d="
M72 52.9749
L76.464 52.9749
L76.6426 85.5879
L80.928 85.5879
L81.1066 91.3302
L85.392 91.3302
L85.5706 97.195
L89.856 97.195
L90.0346 99.5233
L94.32 99.5233
L94.4986 117.225
L98.784 117.225
L98.9626 123.464
L103.248 123.464
L103.427 130.926
L107.712 130.926
L107.891 132.487
L116.64 132.487
L116.819 135.648
L125.568 135.648
L125.747 138.199
L147.888 138.21
L148.067 138.417
L152.352 138.417
L152.531 141.51
L161.28 141.51
L161.459 153.136
L170.208 153.136
L170.387 166.483
L174.672 166.483
L174.851 176.66
L179.136 176.66
L179.315 180.243
L183.6 180.243
L183.779 181.372
L196.992 181.372
L197.171 181.664
L210.384 181.664
L210.563 181.964
L223.776 181.964
L223.955 182.188
L228.24 182.188
L228.419 189.861
L286.361 189.861
L286.54 190.586
L290.825 190.586
L291.004 190.887
L384.659 190.887
L384.837 191.503
L389.123 191.503
L389.301 191.641
L518.311 191.641
L518.311 191.641" style="fill:none;stroke:#0000ff;stroke-dasharray:6.000000,2.000000;stroke-dashoffset:0.0;"/>
   </g>
   <g id="line2d_2">
    <path clip-path="url(#p7ff5b81e1d)" d="
M72 49.6264
L72.0893 49.6264
L72.3571 57.4621
L72.8928 65.0834
L73.0714 69.7015
L73.1606 69.7015
L73.8749 87.5637
L73.9642 87.5637
L74.232 94.1389
L74.4998 97.4683
L74.5891 97.4683
L74.7677 98.369
L75.3034 98.3834
L75.4819 100.835
L75.5712 101.764
L75.839 115.575
L75.9283 115.575
L76.1069 121.013
L76.2854 123.385
L76.3747 123.385
L76.5533 124.34
L76.7318 124.882
L76.9104 128.065
L77.5354 128.065
L77.7139 128.606
L77.9818 138.389
L78.071 138.389
L78.2496 145.018
L79.321 145.018
L79.4102 145.641
L79.6781 155.395
L79.7674 155.395
L79.9459 157.164
L80.2138 157.164
L80.3923 157.72
L80.5709 161.981
L80.7494 161.981
L80.8387 162.933
L81.1066 174.727
L81.3744 174.727
L81.553 175.5
L82.6243 175.529
L82.8922 180.003
L82.9814 180.003
L83.16 182.678
L85.2134 182.678
L85.392 182.933
L85.5706 182.933
L85.7491 185.223
L86.017 185.223
L86.1955 195.232
L86.3741 195.232
L86.5526 199.783
L86.6419 199.783
L86.8205 208.008
L87.1776 208.008
L87.4454 217.03
L88.1597 217.03
L88.3382 219.173
L88.4275 219.173
L88.6061 219.381
L88.9632 219.381
L89.1418 219.77
L89.231 219.77
L89.4096 220.455
L90.0346 220.455
L90.3024 225.194
L90.481 229.188
L90.9274 229.188
L91.1059 234.896
L91.8202 234.896
L91.9987 236.608
L92.088 236.608
L92.2666 240.937
L92.9808 240.937
L93.1594 241.906
L93.4272 241.906
L93.6058 245.091
L93.695 245.091
L93.7843 245.577
L93.9629 246.958
L94.2307 246.958
L94.4093 251.281
L95.4806 251.281
L95.6592 253.14
L95.8378 254.414
L95.927 254.414
L96.1949 256.055
L100.837 256.055
L101.016 256.921
L101.105 256.921
L101.284 258.629
L102.266 258.629
L102.444 263.207
L103.427 263.207
L103.605 263.374
L104.766 263.398
L105.034 271.331
L105.212 271.331
L105.391 274.95
L105.569 276.157
L106.284 276.157
L106.462 276.394
L106.73 276.394
L106.908 276.878
L107.087 276.878
L107.266 277.169
L108.069 277.169
L108.158 277.477
L108.337 278.589
L109.14 278.589
L109.319 279.601
L109.498 279.601
L109.676 279.863
L110.123 279.863
L110.301 280.621
L110.569 280.621
L110.748 282.907
L111.194 282.907
L111.372 284.264
L112.265 284.264
L112.444 284.803
L113.158 284.803
L113.247 284.996
L113.426 285.741
L113.783 285.741
L113.962 286.668
L114.14 286.668
L114.319 287.454
L115.033 287.459
L115.212 288.574
L115.926 288.574
L116.104 289.538
L116.461 289.538
L116.64 289.657
L118.158 289.657
L118.247 290.42
L118.426 294.756
L119.14 294.756
L119.318 295.65
L122.443 295.734
L122.622 296.025
L124.586 296.039
L124.675 296.438
L124.854 299.665
L125.568 299.665
L125.747 300.329
L126.996 300.329
L127.175 301.561
L127.354 301.889
L127.532 301.889
L127.711 302.79
L128.961 302.79
L129.05 303.019
L129.228 303.682
L129.496 303.752
L130.121 303.752
L130.3 305.139
L134.942 305.139
L135.121 306.101
L135.567 306.101
L135.746 307.237
L135.835 307.237
L136.014 308.602
L137.978 308.602
L138.156 308.73
L138.603 308.73
L138.781 309.301
L138.96 312.53
L139.139 312.53
L139.496 313.157
L144.317 313.223
L144.495 313.576
L145.12 313.576
L145.299 314.559
L146.281 314.559
L146.46 315.898
L146.638 316.671
L153.959 316.743
L154.138 319.163
L157.798 319.163
L157.977 319.568
L159.137 319.568
L159.316 320.26
L161.994 320.305
L162.173 321.478
L166.101 321.554
L166.28 322.543
L166.726 322.543
L166.905 323.227
L178.422 323.291
L178.6 323.365
L178.69 323.365
L178.868 324.976
L186.814 324.993
L186.993 327.186
L196.099 327.255
L196.367 327.308
L203.42 327.308
L203.599 327.529
L216.901 327.61
L217.169 327.677
L223.151 327.684
L223.33 328.236
L226.454 328.236
L226.633 328.775
L229.49 328.775
L229.668 328.93
L233.15 328.93
L233.329 329.238
L233.508 331.653
L245.56 331.744
L245.739 333.247
L255.738 333.291
L255.917 334.474
L270.112 334.576
L270.291 334.756
L292.879 334.821
L293.057 335.427
L321.538 335.498
L321.716 337.547
L330.019 337.58
L330.198 338.077
L363.946 338.085
L364.124 338.367
L380.105 338.37
L380.284 338.725
L398.14 338.728
L398.318 339.483
L425.906 339.483
L426.084 339.853
L518.311 339.865
L518.311 339.865" style="fill:none;stroke:#008000;stroke-dasharray:1.000000,1.000000;stroke-dashoffset:0.0;"/>
   </g>
   <g id="line2d_3">
    <path clip-path="url(#p7ff5b81e1d)" d="
M72 44.3342
L72.0893 71.4094
L72.1786 75.8041
L72.3571 91.4141
L72.625 100.961
L72.8035 101.66
L72.8928 101.66
L73.2499 106.427
L73.607 106.427
L73.7856 107.265
L75.4819 107.265
L75.6605 113.112
L77.1782 113.112
L77.3568 113.67
L77.7139 113.67
L77.8925 116.873
L78.3389 116.873
L78.5174 117.52
L78.696 117.786
L79.2317 117.786
L79.4102 118.943
L79.5888 118.943
L79.7674 119.857
L80.4816 119.857
L80.6602 120.226
L81.6422 120.226
L81.8208 121.583
L82.0886 121.583
L82.2672 123.671
L82.3565 123.671
L82.535 124.291
L82.6243 124.291
L82.8029 124.716
L82.9814 125.012
L84.6778 125.012
L84.8563 126.52
L85.8384 126.52
L86.017 128.218
L86.6419 128.304
L86.8205 130.624
L86.999 130.78
L88.1597 130.851
L88.3382 131.085
L91.463 131.085
L91.6416 133.196
L92.1773 133.196
L92.3558 136.683
L93.2486 136.683
L93.4272 136.894
L93.8736 136.894
L94.0522 137.529
L97.3555 137.529
L97.5341 140.116
L99.7661 140.116
L99.9446 140.969
L100.302 140.969
L100.48 142.697
L104.676 142.697
L104.855 142.976
L105.123 142.976
L105.301 145.756
L105.48 147.698
L107.087 147.698
L107.266 149.806
L108.516 149.806
L108.694 150.753
L110.39 150.753
L110.569 152.071
L112.087 152.071
L112.265 152.733
L116.283 152.733
L116.461 157.418
L123.425 157.418
L123.604 161.167
L125.211 161.167
L125.389 161.927
L126.818 161.927
L126.996 164.615
L128.604 164.615
L128.782 166.991
L128.961 166.991
L129.139 167.648
L131.103 167.648
L131.282 168.178
L135.924 168.178
L136.103 169.125
L136.817 169.125
L136.996 170.167
L142.174 170.167
L142.353 173.341
L144.585 173.341
L144.763 173.621
L145.477 173.621
L145.656 176.822
L147.531 176.822
L147.709 177.287
L148.424 177.287
L148.602 177.417
L150.209 177.417
L150.388 178.807
L153.423 178.807
L153.602 180.739
L153.691 180.739
L153.87 185.093
L162.351 185.093
L162.53 188.074
L176.1 188.074
L176.279 189.73
L178.422 189.73
L178.6 191.917
L181.457 191.917
L181.636 194.808
L183.243 194.808
L183.421 196.986
L187.975 196.986
L188.153 197.45
L188.6 197.45
L188.778 197.799
L190.475 197.799
L190.653 199.802
L195.296 199.802
L195.474 201.131
L198.599 201.131
L198.778 202.147
L202.438 202.147
L202.617 202.754
L205.741 202.754
L205.92 205.151
L208.509 205.151
L208.688 205.394
L210.205 205.394
L210.384 206.035
L211.991 206.035
L212.17 207.365
L222.08 207.365
L222.258 210.893
L222.883 210.893
L223.062 211.784
L224.044 211.784
L224.222 212.889
L232.883 212.993
L233.061 213.303
L233.597 213.303
L233.775 213.738
L234.132 213.738
L234.311 215.51
L234.668 215.51
L234.847 215.668
L245.917 215.761
L246.096 217.338
L249.489 217.338
L249.667 218.415
L251.542 218.415
L251.721 219.309
L253.06 219.309
L253.238 220.834
L272.701 220.89
L272.88 221.47
L274.844 221.47
L275.023 224.826
L276.451 224.826
L276.63 226.494
L290.736 226.494
L290.915 228.741
L299.396 228.741
L299.575 232.241
L300.11 232.241
L300.289 232.529
L301.271 232.529
L301.45 234.393
L305.735 234.393
L305.914 234.699
L307.342 234.699
L307.61 235.077
L311.717 235.085
L311.895 237.507
L315.288 237.507
L315.467 238.151
L322.52 238.151
L322.698 238.899
L323.77 238.899
L323.948 240.883
L325.109 240.883
L325.287 241.924
L346.536 241.924
L346.715 244.971
L346.982 244.971
L347.161 246.181
L348.768 246.181
L348.947 247.154
L360.821 247.154
L360.999 249.542
L389.212 249.542
L389.39 250.669
L394.569 250.669
L394.747 251.2
L403.764 251.254
L403.943 252.063
L408.853 252.063
L409.032 255.83
L410.639 255.83
L410.818 256.083
L434.923 256.083
L435.102 256.617
L438.494 256.617
L438.673 260.363
L457.243 260.363
L457.422 260.631
L461.707 260.631
L461.886 262.544
L474.117 262.544
L474.296 265.128
L477.778 265.128
L477.956 265.648
L488.402 265.648
L488.58 266.649
L497.33 266.649
L497.508 268.194
L500.99 268.194
L501.169 269.612
L509.74 269.634
L509.918 273.985
L510.097 274.583
L518.311 274.583
L518.311 274.583" style="fill:none;stroke:#ff0000;stroke-dasharray:3.000000,6.000000;stroke-dashoffset:0.0;"/>
   </g>
   <g id="line2d_4">
    <path clip-path="url(#p7ff5b81e1d)" d="
M72 43.8328
L72.2678 88.6123
L72.4464 93.9594
L72.625 98.8223
L72.7142 98.8223
L72.9821 102.549
L73.2499 102.549
L73.4285 106.197
L73.607 106.197
L74.0534 110.058
L74.232 110.941
L76.1962 110.941
L76.3747 113.465
L77.1782 113.465
L77.3568 114.205
L79.1424 114.205
L79.321 119.892
L79.4995 119.892
L79.6781 121.014
L79.9459 121.014
L80.1245 121.204
L82.535 121.204
L82.7136 125.353
L83.0707 125.401
L83.2493 126.207
L84.0528 126.207
L84.2314 126.632
L85.4813 126.632
L85.6598 126.848
L86.9098 126.848
L87.0883 128.71
L87.1776 128.71
L87.3562 129.657
L87.7133 129.657
L87.8918 130.267
L90.1238 130.267
L90.3024 131.675
L91.3738 131.675
L91.5523 134.003
L92.4451 134.003
L92.6237 137.186
L93.1594 137.186
L93.2486 137.302
L93.4272 138.754
L95.6592 138.754
L95.8378 139.024
L96.0163 140.279
L96.9091 140.279
L97.0877 141.042
L100.57 141.042
L100.748 143.605
L102.891 143.651
L103.069 144.484
L104.319 144.484
L104.498 145.185
L106.016 145.185
L106.194 146.624
L106.373 147.223
L113.783 147.223
L113.962 149.427
L114.14 149.427
L114.319 150.358
L115.836 150.358
L116.015 150.925
L120.211 150.946
L120.39 152.48
L124.764 152.48
L124.943 152.6
L127.532 152.6
L127.711 153.09
L128.068 153.09
L128.246 154.71
L131.996 154.71
L132.175 156.439
L132.443 156.439
L132.621 157.551
L133.871 157.551
L134.05 158.315
L134.407 158.315
L134.585 158.431
L135.835 158.431
L136.014 159.345
L141.817 159.345
L141.996 160.036
L145.12 160.043
L145.299 161.589
L145.477 161.589
L145.656 162.86
L152.888 162.881
L153.066 163.333
L160.923 163.423
L161.012 164.305
L161.191 167.572
L161.369 167.572
L161.548 168.337
L163.244 168.337
L163.423 168.494
L167.351 168.494
L167.53 168.7
L174.315 168.7
L174.493 169.411
L178.332 169.411
L178.511 170.258
L182.172 170.258
L182.35 170.72
L185.832 170.72
L186.011 171.123
L189.314 171.123
L189.492 172.293
L192.082 172.293
L192.26 173.148
L195.385 173.148
L195.564 173.406
L199.938 173.406
L200.117 175.998
L214.134 175.998
L214.312 178.072
L221.187 178.072
L221.365 178.791
L223.776 178.791
L223.955 180.034
L224.58 180.034
L224.758 180.459
L242.793 180.459
L242.971 182.364
L246.542 182.364
L246.721 183.286
L248.774 183.286
L248.953 184.546
L253.417 184.546
L253.596 184.715
L264.22 184.715
L264.398 186.904
L267.077 186.904
L267.255 187.262
L273.773 187.262
L273.951 188.701
L295.289 188.701
L295.468 189.91
L297.789 189.979
L297.968 190.396
L305.914 190.396
L306.092 190.662
L307.699 190.662
L307.878 192.584
L339.394 192.584
L339.572 195.616
L344.572 195.616
L344.75 195.868
L348.857 195.868
L349.036 198.149
L350.196 198.149
L350.375 198.852
L352.696 198.852
L352.875 199.318
L356.446 199.318
L356.625 199.451
L371.713 199.451
L371.892 199.938
L385.194 199.938
L385.373 200.728
L407.693 200.728
L407.871 203.318
L425.192 203.318
L425.37 205.489
L442.958 205.489
L443.137 208.025
L477.42 208.025
L477.599 208.823
L484.652 208.823
L484.831 210.574
L514.65 210.574
L514.829 213.246
L518.311 213.246
L518.311 213.246" style="fill:none;stroke:#00bfbf;stroke-dasharray:5.000000,1.000000,2.000000,1.000000,5.000000,1.000000;stroke-dashoffset:0.0;"/>
   </g>
   <g id="line2d_5">
    <path clip-path="url(#p7ff5b81e1d)" d="
M72 55.1502
L72.0893 73.1043
L72.1786 83.0312
L72.2678 84.309
L72.4464 92.265
L72.5357 92.265
L72.7142 96.8072
L72.9821 104.098
L73.1606 104.182
L73.2499 104.182
L73.4285 107.802
L73.5178 107.802
L73.6963 110.107
L75.4819 110.114
L75.6605 112.689
L75.7498 112.689
L75.9283 114.18
L76.0176 114.18
L76.1962 114.4
L76.2854 114.4
L76.5533 114.826
L76.9104 114.826
L77.1782 117.544
L77.6246 117.544
L77.8032 117.802
L78.2496 117.802
L78.4282 118.501
L79.4995 118.539
L79.6781 119.625
L82.535 119.625
L82.7136 120.709
L83.4278 120.715
L83.6064 121.187
L85.392 121.187
L85.5706 121.959
L86.017 121.959
L86.1955 124.832
L90.9274 124.935
L91.1059 125.83
L91.2845 130.11
L94.8557 130.11
L94.945 130.543
L95.1235 131.907
L97.5341 131.938
L97.7126 133.464
L97.8019 133.464
L97.9805 136.166
L100.391 136.166
L100.57 137.429
L101.552 137.429
L101.73 141.482
L104.319 141.482
L104.498 142.336
L106.73 142.336
L106.908 146.332
L108.426 146.332
L108.605 148.457
L112.176 148.517
L112.355 148.59
L112.622 148.59
L112.801 150.61
L113.783 150.61
L113.962 150.913
L115.479 150.913
L115.658 154.101
L119.586 154.101
L119.765 155.681
L120.925 155.681
L121.104 155.886
L122.175 155.886
L122.354 156.04
L122.89 156.04
L123.157 157.73
L123.247 157.73
L123.425 158.804
L123.604 158.804
L123.782 159.69
L124.14 159.69
L124.318 160.222
L129.139 160.222
L129.318 160.892
L136.282 160.892
L136.46 165.309
L137.71 165.385
L137.889 167.171
L140.388 167.171
L140.567 169.159
L140.835 169.216
L141.103 169.216
L141.281 170.318
L142.353 170.318
L142.531 174.938
L143.603 174.938
L143.781 175.317
L144.138 175.317
L144.317 176.141
L150.834 176.141
L151.013 176.351
L154.405 176.351
L154.584 177.406
L159.584 177.406
L159.762 179.407
L162.708 179.407
L162.887 180.428
L165.387 180.428
L165.565 181.519
L167.44 181.519
L167.619 182.268
L169.851 182.268
L170.029 184.913
L171.012 184.913
L171.19 185.066
L172.708 185.066
L172.886 188.104
L176.368 188.104
L176.547 188.701
L178.154 188.701
L178.332 190.505
L183.243 190.505
L183.421 191.768
L183.957 191.768
L184.136 192.631
L185.296 192.631
L185.475 194.498
L190.296 194.498
L190.475 195.406
L197.26 195.406
L197.438 197.222
L201.635 197.222
L201.813 201.282
L204.849 201.282
L205.027 202.882
L207.795 202.882
L207.973 203.206
L208.152 204.727
L208.777 204.727
L208.956 206.69
L217.437 206.733
L217.616 210.526
L218.508 210.526
L218.687 211.057
L220.83 211.057
L221.008 211.52
L226.454 211.525
L226.633 214.951
L230.472 214.951
L230.651 215.119
L236.543 215.119
L236.722 215.802
L243.685 215.828
L243.864 216.169
L247.078 216.169
L247.257 217.796
L247.524 217.796
L247.703 218.68
L251.721 218.68
L251.899 219.357
L252.971 219.357
L253.149 220.789
L266.095 220.789
L266.273 224.964
L266.363 224.964
L266.541 226.845
L273.059 226.948
L273.237 228.069
L273.416 228.239
L275.38 228.239
L275.558 228.549
L276.808 228.549
L276.987 230.51
L279.576 230.51
L279.755 231.557
L290.915 231.642
L291.093 234.289
L291.182 234.289
L291.361 235.499
L301.182 235.598
L301.36 236.774
L301.45 236.774
L301.628 238.295
L301.717 238.295
L301.896 238.46
L304.574 238.46
L304.753 238.637
L305.735 238.699
L305.914 238.822
L307.967 238.822
L308.146 239.541
L318.591 239.541
L318.77 240.325
L319.663 240.325
L319.841 240.458
L321.805 240.458
L321.984 240.699
L327.162 240.699
L327.341 243.217
L329.216 243.217
L329.394 244.6
L333.412 244.651
L333.59 246.295
L334.305 246.295
L334.483 246.783
L337.787 246.783
L337.965 247.066
L340.286 247.066
L340.465 247.639
L351.804 247.639
L351.982 248.294
L361.714 248.294
L361.892 250.997
L368.231 250.997
L368.41 251.968
L375.552 251.968
L375.731 252.596
L382.605 252.596
L382.784 253.537
L383.498 253.537
L383.676 253.971
L383.766 253.971
L383.944 254.389
L390.015 254.389
L390.194 256.94
L397.961 256.989
L398.14 257.473
L405.461 257.473
L405.639 259.007
L408.407 259.007
L408.586 260.421
L410.282 260.421
L410.46 260.644
L412.871 260.644
L413.05 263.735
L415.014 263.735
L415.192 264.34
L420.996 264.34
L421.174 264.523
L427.067 264.523
L427.245 264.806
L429.12 264.806
L429.299 266.055
L429.566 266.055
L429.745 266.82
L433.673 266.82
L433.852 267.788
L437.155 267.788
L437.334 269.544
L451.708 269.615
L451.886 269.729
L454.476 269.729
L454.654 270.24
L458.85 270.24
L459.029 272.824
L468.403 272.824
L468.582 273.929
L472.956 273.929
L473.135 275.565
L479.117 275.565
L479.295 277.036
L479.92 277.036
L480.099 278.773
L486.259 278.773
L486.438 278.984
L501.794 279.046
L501.972 279.51
L510.097 279.592
L510.276 281.229
L518.311 281.229
L518.311 281.229" style="fill:none;stroke:#bf00bf;stroke-linecap:square;"/>
   </g>
   <g id="matplotlib.axis_1">
    <g id="xtick_1">
     <g id="line2d_6">
      <defs>
       <path d="
M0 0
L0 -4" id="mc7db9fdffb" style="stroke:#000000;stroke-width:0.5;"/>
      </defs>
      <g>
       <use style="stroke:#000000;stroke-width:0.5;" x="72.0" xlink:href="#mc7db9fdffb" y="388.8"/>
      </g>
     </g>
     <g id="line2d_7">
      <defs>
       <path d="
M0 0
L0 4" id="m5a7d422ac3" style="stroke:#000000;stroke-width:0.5;"/>
      </defs>
      <g>
       <use style="stroke:#000000;stroke-width:0.5;" x="72.0" xlink:href="#m5a7d422ac3" y="43.2"/>
      </g>
     </g>
     <g id="text_1">
      <!-- 0 -->
      <defs>
       <path d="
M56.9844 36.375
Q56.9844 16.7969 50.8594 7.64062
Q44.7344 -1.51562 31.8438 -1.51562
Q18.75 -1.51562 12.7188 7.76562
Q6.6875 17.0469 6.6875 36.2812
Q6.6875 55.6719 12.7812 64.9219
Q18.8906 74.1719 31.8438 74.1719
Q44.9219 74.1719 50.9531 64.7656
Q56.9844 55.375 56.9844 36.375
M44.1406 14.2031
Q45.8438 18.1719 46.4531 23.5156
Q47.0781 28.8594 47.0781 36.375
Q47.0781 43.7969 46.4531 49.2656
Q45.8438 54.7344 44.0938 58.5469
Q42.3906 62.3125 39.4219 64.2031
Q36.4688 66.1094 31.8438 66.1094
Q27.25 66.1094 24.2344 64.2031
Q21.2344 62.3125 19.4844 58.4531
Q17.8281 54.8281 17.2188 49.0156
Q16.6094 43.2188 16.6094 36.2812
Q16.6094 28.6562 17.1406 23.5312
Q17.6719 18.4062 19.4375 14.3594
Q21.0469 10.5469 24 8.54688
Q26.9531 6.54688 31.8438 6.54688
Q36.4219 6.54688 39.4531 8.45312
Q42.4844 10.3594 44.1406 14.2031" id="Verdana-30"/>
      </defs>
      <g transform="translate(68.9821875 401.918125)scale(0.12 -0.12)">
       <use xlink:href="#Verdana-30"/>
      </g>
     </g>
    </g>
    <g id="xtick_2">
     <g id="line2d_8">
      <g>
       <use style="stroke:#000000;stroke-width:0.5;" x="161.28" xlink:href="#mc7db9fdffb" y="388.8"/>
      </g>
     </g>
     <g id="line2d_9">
      <g>
       <use style="stroke:#000000;stroke-width:0.5;" x="161.28" xlink:href="#m5a7d422ac3" y="43.2"/>
      </g>
     </g>
     <g id="text_2">
      <!-- 1000 -->
      <defs>
       <path d="
M52.9375 0
L13.5781 0
L13.5781 7.42188
L28.7188 7.42188
L28.7188 56.1562
L13.5781 56.1562
L13.5781 62.7969
Q16.6562 62.7969 20.1719 63.2969
Q23.6875 63.8125 25.4844 64.7969
Q27.7344 66.0156 29.0312 67.8906
Q30.3281 69.7812 30.5156 72.9531
L38.0938 72.9531
L38.0938 7.42188
L52.9375 7.42188
z
" id="Verdana-31"/>
      </defs>
      <g transform="translate(147.2315625 401.918125)scale(0.12 -0.12)">
       <use xlink:href="#Verdana-31"/>
       <use x="63.57421875" xlink:href="#Verdana-30"/>
       <use x="127.1484375" xlink:href="#Verdana-30"/>
       <use x="190.72265625" xlink:href="#Verdana-30"/>
      </g>
     </g>
    </g>
    <g id="xtick_3">
     <g id="line2d_10">
      <g>
       <use style="stroke:#000000;stroke-width:0.5;" x="250.56" xlink:href="#mc7db9fdffb" y="388.8"/>
      </g>
     </g>
     <g id="line2d_11">
      <g>
       <use style="stroke:#000000;stroke-width:0.5;" x="250.56" xlink:href="#m5a7d422ac3" y="43.2"/>
      </g>
     </g>
     <g id="text_3">
      <!-- 2000 -->
      <defs>
       <path d="
M57.0781 0
L7.85938 0
L7.85938 10.2031
Q12.9844 14.5938 18.1406 18.9844
Q23.2969 23.3906 27.7344 27.7344
Q37.1094 36.8125 40.5781 42.1562
Q44.0469 47.5156 44.0469 53.7188
Q44.0469 59.375 40.3125 62.5625
Q36.5781 65.7656 29.8906 65.7656
Q25.4375 65.7656 20.2656 64.2031
Q15.0938 62.6406 10.1562 59.4219
L9.67188 59.4219
L9.67188 69.6719
Q13.1406 71.3906 18.9219 72.7969
Q24.7031 74.2188 30.125 74.2188
Q41.3125 74.2188 47.6562 68.8125
Q54 63.4219 54 54.2031
Q54 50.0469 52.9531 46.4531
Q51.9062 42.875 49.8594 39.6562
Q47.9531 36.625 45.3906 33.6875
Q42.8281 30.7656 39.1562 27.2031
Q33.9375 22.0781 28.3594 17.2656
Q22.7969 12.4531 17.9688 8.34375
L57.0781 8.34375
z
" id="Verdana-32"/>
      </defs>
      <g transform="translate(236.1684375 401.918125)scale(0.12 -0.12)">
       <use xlink:href="#Verdana-32"/>
       <use x="63.57421875" xlink:href="#Verdana-30"/>
       <use x="127.1484375" xlink:href="#Verdana-30"/>
       <use x="190.72265625" xlink:href="#Verdana-30"/>
      </g>
     </g>
    </g>
    <g id="xtick_4">
     <g id="line2d_12">
      <g>
       <use style="stroke:#000000;stroke-width:0.5;" x="339.84" xlink:href="#mc7db9fdffb" y="388.8"/>
      </g>
     </g>
     <g id="line2d_13">
      <g>
       <use style="stroke:#000000;stroke-width:0.5;" x="339.84" xlink:href="#m5a7d422ac3" y="43.2"/>
      </g>
     </g>
     <g id="text_4">
      <!-- 3000 -->
      <defs>
       <path d="
M50.6875 35.0156
Q53.0312 32.9062 54.5469 29.7344
Q56.0625 26.5625 56.0625 21.5312
Q56.0625 16.5469 54.25 12.3906
Q52.4375 8.25 49.1719 5.17188
Q45.5156 1.76562 40.5469 0.125
Q35.5938 -1.51562 29.6875 -1.51562
Q23.6406 -1.51562 17.7812 -0.0625
Q11.9219 1.375 8.15625 3.07812
L8.15625 13.2812
L8.89062 13.2812
Q13.0312 10.5469 18.6406 8.73438
Q24.2656 6.9375 29.5 6.9375
Q32.5625 6.9375 36.0312 7.95312
Q39.5 8.98438 41.6562 10.9844
Q43.8906 13.1406 44.9844 15.7188
Q46.0938 18.3125 46.0938 22.2656
Q46.0938 26.1719 44.8438 28.7344
Q43.6094 31.2969 41.4062 32.7656
Q39.2031 34.2812 36.0781 34.8438
Q32.9531 35.4062 29.3438 35.4062
L24.9531 35.4062
L24.9531 43.5
L28.375 43.5
Q35.7969 43.5 40.2031 46.5938
Q44.625 49.7031 44.625 55.6719
Q44.625 58.2969 43.5 60.2656
Q42.3906 62.25 40.375 63.5312
Q38.2812 64.7969 35.8906 65.2812
Q33.5 65.7656 30.4688 65.7656
Q25.8281 65.7656 20.5938 64.1094
Q15.375 62.4531 10.75 59.4219
L10.25 59.4219
L10.25 69.625
Q13.7188 71.3438 19.5 72.7812
Q25.2969 74.2188 30.7188 74.2188
Q36.0312 74.2188 40.0781 73.2344
Q44.1406 72.2656 47.4062 70.125
Q50.9219 67.7812 52.7344 64.4531
Q54.5469 61.1406 54.5469 56.6875
Q54.5469 50.6406 50.2656 46.125
Q46 41.6094 40.1875 40.4375
L40.1875 39.75
Q42.5312 39.3594 45.5469 38.1094
Q48.5781 36.8594 50.6875 35.0156" id="Verdana-33"/>
      </defs>
      <g transform="translate(325.46625 401.918125)scale(0.12 -0.12)">
       <use xlink:href="#Verdana-33"/>
       <use x="63.57421875" xlink:href="#Verdana-30"/>
       <use x="127.1484375" xlink:href="#Verdana-30"/>
       <use x="190.72265625" xlink:href="#Verdana-30"/>
      </g>
     </g>
    </g>
    <g id="xtick_5">
     <g id="line2d_14">
      <g>
       <use style="stroke:#000000;stroke-width:0.5;" x="429.12" xlink:href="#mc7db9fdffb" y="388.8"/>
      </g>
     </g>
     <g id="line2d_15">
      <g>
       <use style="stroke:#000000;stroke-width:0.5;" x="429.12" xlink:href="#m5a7d422ac3" y="43.2"/>
      </g>
     </g>
     <g id="text_5">
      <!-- 4000 -->
      <defs>
       <path d="
M58.7344 20.4531
L47.9531 20.4531
L47.9531 0
L38.5781 0
L38.5781 20.4531
L3.76562 20.4531
L3.76562 31.6875
L38.9688 72.7031
L47.9531 72.7031
L47.9531 28.2656
L58.7344 28.2656
z

M38.5781 28.2656
L38.5781 61.0781
L10.4062 28.2656
z
" id="Verdana-34"/>
      </defs>
      <g transform="translate(414.4828125 401.918125)scale(0.12 -0.12)">
       <use xlink:href="#Verdana-34"/>
       <use x="63.57421875" xlink:href="#Verdana-30"/>
       <use x="127.1484375" xlink:href="#Verdana-30"/>
       <use x="190.72265625" xlink:href="#Verdana-30"/>
      </g>
     </g>
    </g>
    <g id="xtick_6">
     <g id="line2d_16">
      <g>
       <use style="stroke:#000000;stroke-width:0.5;" x="518.4" xlink:href="#mc7db9fdffb" y="388.8"/>
      </g>
     </g>
     <g id="line2d_17">
      <g>
       <use style="stroke:#000000;stroke-width:0.5;" x="518.4" xlink:href="#m5a7d422ac3" y="43.2"/>
      </g>
     </g>
     <g id="text_6">
      <!-- 5000 -->
      <defs>
       <path d="
M56.5 23.0938
Q56.5 18.0156 54.6406 13.375
Q52.7812 8.73438 49.5625 5.5625
Q46.0469 2.15625 41.1875 0.3125
Q36.3281 -1.51562 29.9375 -1.51562
Q23.9688 -1.51562 18.4531 -0.265625
Q12.9375 0.984375 9.125 2.73438
L9.125 13.0312
L9.8125 13.0312
Q13.8125 10.5 19.1875 8.71875
Q24.5625 6.9375 29.7344 6.9375
Q33.2031 6.9375 36.4531 7.90625
Q39.7031 8.89062 42.2344 11.3281
Q44.3906 13.4219 45.4844 16.3438
Q46.5781 19.2812 46.5781 23.1406
Q46.5781 26.9062 45.2812 29.4844
Q44 32.0781 41.7031 33.6406
Q39.1562 35.5 35.5156 36.25
Q31.8906 37.0156 27.3906 37.0156
Q23.0938 37.0156 19.1094 36.4219
Q15.1406 35.8438 12.25 35.25
L12.25 72.7031
L56 72.7031
L56 64.1562
L21.6875 64.1562
L21.6875 44.8281
Q23.7812 45.0156 25.9688 45.1094
Q28.1719 45.2188 29.7812 45.2188
Q35.6875 45.2188 40.125 44.2188
Q44.5781 43.2188 48.2969 40.6719
Q52.2031 37.9844 54.3438 33.7344
Q56.5 29.5 56.5 23.0938" id="Verdana-35"/>
      </defs>
      <g transform="translate(504.084375 401.918125)scale(0.12 -0.12)">
       <use xlink:href="#Verdana-35"/>
       <use x="63.57421875" xlink:href="#Verdana-30"/>
       <use x="127.1484375" xlink:href="#Verdana-30"/>
       <use x="190.72265625" xlink:href="#Verdana-30"/>
      </g>
     </g>
    </g>
    <g id="text_7">
     <!-- Objective function exectuions -->
     <defs>
      <path d="
M57.0312 27.6875
Q57.0312 20.8438 55.0938 15.375
Q53.1719 9.90625 49.9062 6.20312
Q46.4375 2.34375 42.2812 0.40625
Q38.1406 -1.51562 33.1562 -1.51562
Q28.5156 -1.51562 25.0469 -0.40625
Q21.5781 0.6875 18.2188 2.54688
L17.625 0
L9.03125 0
L9.03125 75.9844
L18.2188 75.9844
L18.2188 48.8281
Q22.0781 52 26.4219 54.0312
Q30.7656 56.0625 36.1875 56.0625
Q45.8438 56.0625 51.4375 48.6406
Q57.0312 41.2188 57.0312 27.6875
M47.5625 27.4375
Q47.5625 37.2031 44.3281 42.25
Q41.1094 47.3125 33.9375 47.3125
Q29.9375 47.3125 25.8281 45.5781
Q21.7344 43.8438 18.2188 41.1094
L18.2188 9.85938
Q22.125 8.10938 24.9219 7.42188
Q27.7344 6.73438 31.2969 6.73438
Q38.9219 6.73438 43.2344 11.7344
Q47.5625 16.75 47.5625 27.4375" id="Verdana-62"/>
      <path d="
M56.2031 54.5469
L34.125 0
L24.9062 0
L2.98438 54.5469
L12.9375 54.5469
L29.8281 11.1406
L46.5781 54.5469
z
" id="Verdana-76"/>
      <path d="
M56.25 0
L44.6719 0
L29.2031 20.9531
L13.625 0
L2.9375 0
L24.2188 27.2031
L3.125 54.5469
L14.7031 54.5469
L30.0781 33.9375
L45.5156 54.5469
L56.25 54.5469
L34.8125 27.6875
z
" id="Verdana-78"/>
      <path d="
M54.6875 26.3125
L14.5 26.3125
Q14.5 21.2969 16.0156 17.5469
Q17.5312 13.8125 20.1719 11.4219
Q22.7031 9.07812 26.1875 7.90625
Q29.6875 6.73438 33.8906 6.73438
Q39.4531 6.73438 45.0938 8.95312
Q50.7344 11.1875 53.125 13.3281
L53.6094 13.3281
L53.6094 3.32812
Q48.9688 1.375 44.1406 0.046875
Q39.3125 -1.26562 33.9844 -1.26562
Q20.4062 -1.26562 12.7812 6.07812
Q5.17188 13.4219 5.17188 26.9531
Q5.17188 40.3281 12.4688 48.1875
Q19.7812 56.0625 31.6875 56.0625
Q42.7188 56.0625 48.7031 49.6094
Q54.6875 43.1719 54.6875 31.2969
z

M45.75 33.3438
Q45.7031 40.5781 42.1094 44.5312
Q38.5312 48.4844 31.2031 48.4844
Q23.8281 48.4844 19.4531 44.1406
Q15.0938 39.7969 14.5 33.3438
z
" id="Verdana-65"/>
      <path d="
M49.3594 3.42188
Q44.7812 1.21875 40.6562 0
Q36.5312 -1.21875 31.8906 -1.21875
Q25.9844 -1.21875 21.0469 0.515625
Q16.1094 2.25 12.5938 5.76562
Q9.03125 9.28125 7.07812 14.6406
Q5.125 20.0156 5.125 27.2031
Q5.125 40.5781 12.4688 48.1875
Q19.8281 55.8125 31.8906 55.8125
Q36.5781 55.8125 41.0938 54.4844
Q45.6094 53.1719 49.3594 51.2656
L49.3594 41.0625
L48.875 41.0625
Q44.6719 44.3438 40.2031 46.0938
Q35.75 47.8594 31.5 47.8594
Q23.6875 47.8594 19.1719 42.6094
Q14.6562 37.3594 14.6562 27.2031
Q14.6562 17.3281 19.0625 12.0312
Q23.4844 6.73438 31.5 6.73438
Q34.2812 6.73438 37.1562 7.46875
Q40.0469 8.20312 42.3281 9.375
Q44.3438 10.4062 46.0938 11.5469
Q47.8594 12.7031 48.875 13.5312
L49.3594 13.5312
z
" id="Verdana-63"/>
      <path d="
M26.0312 63.6719
L15.6719 63.6719
L15.6719 73.1875
L26.0312 73.1875
z

M25.4375 -1.3125
Q25.4375 -10.8906 20.5469 -15.7656
Q15.6719 -20.6562 7.46875 -20.6562
Q5.51562 -20.6562 2.3125 -20.2656
Q-0.875 -19.875 -3.03125 -19.2812
L-3.03125 -10.5469
L-2.54688 -10.5469
Q-1.17188 -11.0781 1.14062 -11.7656
Q3.46875 -12.4531 5.67188 -12.4531
Q9.1875 -12.4531 11.3281 -11.4688
Q13.4844 -10.5 14.5469 -8.54688
Q15.625 -6.59375 15.9375 -3.82812
Q16.2656 -1.07812 16.2656 2.875
L16.2656 46.8281
L4.89062 46.8281
L4.89062 54.5469
L25.4375 54.5469
z
" id="Verdana-6a"/>
      <path d="
M18.8906 63.6719
L8.54688 63.6719
L8.54688 73.1875
L18.8906 73.1875
z

M18.3125 0
L9.125 0
L9.125 54.5469
L18.3125 54.5469
z
" id="Verdana-69"/>
      <path d="
M54.6406 0
L45.4531 0
L45.4531 31.0625
Q45.4531 34.8125 45.0156 38.1094
Q44.5781 41.4062 43.4062 43.2656
Q42.1875 45.3125 39.8906 46.3125
Q37.5938 47.3125 33.9375 47.3125
Q30.1719 47.3125 26.0625 45.4531
Q21.9688 43.6094 18.2188 40.7188
L18.2188 0
L9.03125 0
L9.03125 54.5469
L18.2188 54.5469
L18.2188 48.4844
Q22.5156 52.0469 27.0938 54.0469
Q31.6875 56.0625 36.5312 56.0625
Q45.3594 56.0625 50 50.7344
Q54.6406 45.4062 54.6406 35.4062
z
" id="Verdana-6e"/>
      <path d="
M48 15.7188
Q48 8.25 41.8125 3.46875
Q35.6406 -1.3125 24.9531 -1.3125
Q18.8906 -1.3125 13.8438 0.125
Q8.79688 1.5625 5.375 3.26562
L5.375 13.5781
L5.85938 13.5781
Q10.2031 10.2969 15.5156 8.375
Q20.8438 6.45312 25.7344 6.45312
Q31.7812 6.45312 35.2031 8.40625
Q38.625 10.3594 38.625 14.5469
Q38.625 17.7812 36.7656 19.4375
Q34.9062 21.0938 29.6406 22.2656
Q27.6875 22.7031 24.5312 23.2812
Q21.3906 23.875 18.7969 24.5625
Q11.625 26.4688 8.60938 30.1562
Q5.60938 33.8438 5.60938 39.2031
Q5.60938 42.5781 7 45.5469
Q8.40625 48.5312 11.2344 50.875
Q13.9688 53.1719 18.1875 54.5156
Q22.4062 55.8594 27.6406 55.8594
Q32.5156 55.8594 37.5156 54.6562
Q42.5312 53.4688 45.8438 51.7656
L45.8438 41.9375
L45.3594 41.9375
Q41.8438 44.5312 36.8125 46.3125
Q31.7812 48.0938 26.9531 48.0938
Q21.9219 48.0938 18.4531 46.1562
Q14.9844 44.2344 14.9844 40.4375
Q14.9844 37.0625 17.0938 35.3594
Q19.1406 33.6406 23.7344 32.5625
Q26.2656 31.9844 29.4062 31.3906
Q32.5625 30.8125 34.6719 30.3281
Q41.0625 28.8594 44.5312 25.2969
Q48 21.6875 48 15.7188" id="Verdana-73"/>
      <path d="
M38.375 67.0938
L37.8906 67.0938
Q36.375 67.5312 33.9375 67.9844
Q31.5 68.4531 29.6406 68.4531
Q23.7344 68.4531 21.0625 65.8438
Q18.4062 63.2344 18.4062 56.3906
L18.4062 54.5469
L34.9688 54.5469
L34.9688 46.8281
L18.7031 46.8281
L18.7031 0
L9.51562 0
L9.51562 46.8281
L3.32812 46.8281
L3.32812 54.5469
L9.51562 54.5469
L9.51562 56.3438
Q9.51562 66.0625 14.3438 71.2656
Q19.1875 76.4688 28.3281 76.4688
Q31.3906 76.4688 33.8594 76.1719
Q36.3281 75.875 38.375 75.4844
z
" id="Verdana-66"/>
      <path id="Verdana-20"/>
      <path d="
M63.9688 64.3594
Q68.4062 59.4688 70.7656 52.3906
Q73.1406 45.3125 73.1406 36.3281
Q73.1406 27.3438 70.7188 20.2344
Q68.3125 13.1406 63.9688 8.40625
Q59.4688 3.46875 53.3438 0.96875
Q47.2188 -1.51562 39.3594 -1.51562
Q31.6875 -1.51562 25.4062 1.01562
Q19.1406 3.5625 14.75 8.40625
Q10.3594 13.2344 7.98438 20.2656
Q5.60938 27.2969 5.60938 36.3281
Q5.60938 45.2188 7.95312 52.2656
Q10.2969 59.3281 14.7969 64.3594
Q19.0938 69.1406 25.4688 71.6719
Q31.8438 74.2188 39.3594 74.2188
Q47.1719 74.2188 53.3906 71.6562
Q59.625 69.0938 63.9688 64.3594
M63.0938 36.3281
Q63.0938 50.4844 56.7344 58.1719
Q50.3906 65.875 39.4062 65.875
Q28.3281 65.875 22 58.1719
Q15.6719 50.4844 15.6719 36.3281
Q15.6719 22.0156 22.1094 14.4219
Q28.5625 6.84375 39.4062 6.84375
Q50.25 6.84375 56.6719 14.4219
Q63.0938 22.0156 63.0938 36.3281" id="Verdana-4f"/>
      <path d="
M55.5156 27.25
Q55.5156 13.9219 48.6719 6.20312
Q41.8438 -1.51562 30.375 -1.51562
Q18.7969 -1.51562 11.9844 6.20312
Q5.17188 13.9219 5.17188 27.25
Q5.17188 40.5781 11.9844 48.3125
Q18.7969 56.0625 30.375 56.0625
Q41.8438 56.0625 48.6719 48.3125
Q55.5156 40.5781 55.5156 27.25
M46.0469 27.25
Q46.0469 37.8438 41.8906 42.9844
Q37.75 48.1406 30.375 48.1406
Q22.9062 48.1406 18.7812 42.9844
Q14.6562 37.8438 14.6562 27.25
Q14.6562 17 18.7969 11.6875
Q22.9531 6.39062 30.375 6.39062
Q37.7031 6.39062 41.875 11.6406
Q46.0469 16.8906 46.0469 27.25" id="Verdana-6f"/>
      <path d="
M37.3594 0.484375
Q34.7656 -0.203125 31.7031 -0.640625
Q28.6562 -1.07812 26.2656 -1.07812
Q17.9219 -1.07812 13.5781 3.40625
Q9.23438 7.90625 9.23438 17.8281
L9.23438 46.8281
L3.03125 46.8281
L3.03125 54.5469
L9.23438 54.5469
L9.23438 70.2188
L18.4062 70.2188
L18.4062 54.5469
L37.3594 54.5469
L37.3594 46.8281
L18.4062 46.8281
L18.4062 21.9688
Q18.4062 17.6719 18.5938 15.25
Q18.7969 12.8438 19.9688 10.75
Q21.0469 8.79688 22.9219 7.89062
Q24.8125 6.98438 28.6562 6.98438
Q30.9062 6.98438 33.3438 7.64062
Q35.7969 8.29688 36.8594 8.73438
L37.3594 8.73438
z
" id="Verdana-74"/>
      <path d="
M54.25 0
L45.0625 0
L45.0625 6.0625
Q40.4375 2.39062 36.1875 0.4375
Q31.9375 -1.51562 26.8125 -1.51562
Q18.2188 -1.51562 13.4219 3.73438
Q8.64062 8.98438 8.64062 19.1406
L8.64062 54.5469
L17.8281 54.5469
L17.8281 23.4844
Q17.8281 19.3438 18.2188 16.375
Q18.6094 13.4219 19.875 11.3281
Q21.1875 9.1875 23.2812 8.20312
Q25.3906 7.23438 29.3906 7.23438
Q32.9531 7.23438 37.1719 9.07812
Q41.4062 10.9375 45.0625 13.8125
L45.0625 54.5469
L54.25 54.5469
z
" id="Verdana-75"/>
     </defs>
     <g transform="translate(206.5078125 418.509375)scale(0.12 -0.12)">
      <use xlink:href="#Verdana-4f"/>
      <use x="78.7109375" xlink:href="#Verdana-62"/>
      <use x="141.015625" xlink:href="#Verdana-6a"/>
      <use x="175.439453125" xlink:href="#Verdana-65"/>
      <use x="235.009765625" xlink:href="#Verdana-63"/>
      <use x="287.109375" xlink:href="#Verdana-74"/>
      <use x="326.513671875" xlink:href="#Verdana-69"/>
      <use x="353.955078125" xlink:href="#Verdana-76"/>
      <use x="412.259765625" xlink:href="#Verdana-65"/>
      <use x="471.830078125" xlink:href="#Verdana-20"/>
      <use x="506.986328125" xlink:href="#Verdana-66"/>
      <use x="542.142578125" xlink:href="#Verdana-75"/>
      <use x="605.423828125" xlink:href="#Verdana-6e"/>
      <use x="668.705078125" xlink:href="#Verdana-63"/>
      <use x="720.8046875" xlink:href="#Verdana-74"/>
      <use x="760.208984375" xlink:href="#Verdana-69"/>
      <use x="787.650390625" xlink:href="#Verdana-6f"/>
      <use x="848.34375" xlink:href="#Verdana-6e"/>
      <use x="911.625" xlink:href="#Verdana-20"/>
      <use x="946.78125" xlink:href="#Verdana-65"/>
      <use x="1006.3515625" xlink:href="#Verdana-78"/>
      <use x="1064.40625" xlink:href="#Verdana-65"/>
      <use x="1123.9765625" xlink:href="#Verdana-63"/>
      <use x="1176.076171875" xlink:href="#Verdana-74"/>
      <use x="1215.48046875" xlink:href="#Verdana-75"/>
      <use x="1278.76171875" xlink:href="#Verdana-69"/>
      <use x="1306.203125" xlink:href="#Verdana-6f"/>
      <use x="1366.896484375" xlink:href="#Verdana-6e"/>
      <use x="1430.177734375" xlink:href="#Verdana-73"/>
     </g>
    </g>
   </g>
   <g id="matplotlib.axis_2">
    <g id="ytick_1">
     <g id="line2d_18">
      <defs>
       <path d="
M0 0
L4 0" id="md7965d1ba0" style="stroke:#000000;stroke-width:0.5;"/>
      </defs>
      <g>
       <use style="stroke:#000000;stroke-width:0.5;" x="72.0" xlink:href="#md7965d1ba0" y="388.8"/>
      </g>
     </g>
     <g id="line2d_19">
      <defs>
       <path d="
M0 0
L-4 0" id="md9a1c1a7cd" style="stroke:#000000;stroke-width:0.5;"/>
      </defs>
      <g>
       <use style="stroke:#000000;stroke-width:0.5;" x="518.4" xlink:href="#md9a1c1a7cd" y="388.8"/>
      </g>
     </g>
     <g id="text_8">
      <!-- −25000 -->
      <defs>
       <path d="
M71.0938 27.9375
L10.75 27.9375
L10.75 35.75
L71.0938 35.75
z
" id="Verdana-2212"/>
      </defs>
      <g transform="translate(22.113125 392.1515625)scale(0.12 -0.12)">
       <use xlink:href="#Verdana-2212"/>
       <use x="81.8359375" xlink:href="#Verdana-32"/>
       <use x="145.41015625" xlink:href="#Verdana-35"/>
       <use x="208.984375" xlink:href="#Verdana-30"/>
       <use x="272.55859375" xlink:href="#Verdana-30"/>
       <use x="336.1328125" xlink:href="#Verdana-30"/>
      </g>
     </g>
    </g>
    <g id="ytick_2">
     <g id="line2d_20">
      <g>
       <use style="stroke:#000000;stroke-width:0.5;" x="72.0" xlink:href="#md7965d1ba0" y="331.2"/>
      </g>
     </g>
     <g id="line2d_21">
      <g>
       <use style="stroke:#000000;stroke-width:0.5;" x="518.4" xlink:href="#md9a1c1a7cd" y="331.2"/>
      </g>
     </g>
     <g id="text_9">
      <!-- −20000 -->
      <g transform="translate(22.113125 334.5515625)scale(0.12 -0.12)">
       <use xlink:href="#Verdana-2212"/>
       <use x="81.8359375" xlink:href="#Verdana-32"/>
       <use x="145.41015625" xlink:href="#Verdana-30"/>
       <use x="208.984375" xlink:href="#Verdana-30"/>
       <use x="272.55859375" xlink:href="#Verdana-30"/>
       <use x="336.1328125" xlink:href="#Verdana-30"/>
      </g>
     </g>
    </g>
    <g id="ytick_3">
     <g id="line2d_22">
      <g>
       <use style="stroke:#000000;stroke-width:0.5;" x="72.0" xlink:href="#md7965d1ba0" y="273.6"/>
      </g>
     </g>
     <g id="line2d_23">
      <g>
       <use style="stroke:#000000;stroke-width:0.5;" x="518.4" xlink:href="#md9a1c1a7cd" y="273.6"/>
      </g>
     </g>
     <g id="text_10">
      <!-- −15000 -->
      <g transform="translate(22.113125 276.9515625)scale(0.12 -0.12)">
       <use xlink:href="#Verdana-2212"/>
       <use x="81.8359375" xlink:href="#Verdana-31"/>
       <use x="145.41015625" xlink:href="#Verdana-35"/>
       <use x="208.984375" xlink:href="#Verdana-30"/>
       <use x="272.55859375" xlink:href="#Verdana-30"/>
       <use x="336.1328125" xlink:href="#Verdana-30"/>
      </g>
     </g>
    </g>
    <g id="ytick_4">
     <g id="line2d_24">
      <g>
       <use style="stroke:#000000;stroke-width:0.5;" x="72.0" xlink:href="#md7965d1ba0" y="216.0"/>
      </g>
     </g>
     <g id="line2d_25">
      <g>
       <use style="stroke:#000000;stroke-width:0.5;" x="518.4" xlink:href="#md9a1c1a7cd" y="216.0"/>
      </g>
     </g>
     <g id="text_11">
      <!-- −10000 -->
      <g transform="translate(22.113125 219.3515625)scale(0.12 -0.12)">
       <use xlink:href="#Verdana-2212"/>
       <use x="81.8359375" xlink:href="#Verdana-31"/>
       <use x="145.41015625" xlink:href="#Verdana-30"/>
       <use x="208.984375" xlink:href="#Verdana-30"/>
       <use x="272.55859375" xlink:href="#Verdana-30"/>
       <use x="336.1328125" xlink:href="#Verdana-30"/>
      </g>
     </g>
    </g>
    <g id="ytick_5">
     <g id="line2d_26">
      <g>
       <use style="stroke:#000000;stroke-width:0.5;" x="72.0" xlink:href="#md7965d1ba0" y="158.4"/>
      </g>
     </g>
     <g id="line2d_27">
      <g>
       <use style="stroke:#000000;stroke-width:0.5;" x="518.4" xlink:href="#md9a1c1a7cd" y="158.4"/>
      </g>
     </g>
     <g id="text_12">
      <!-- −5000 -->
      <g transform="translate(29.7425 161.7515625)scale(0.12 -0.12)">
       <use xlink:href="#Verdana-2212"/>
       <use x="81.8359375" xlink:href="#Verdana-35"/>
       <use x="145.41015625" xlink:href="#Verdana-30"/>
       <use x="208.984375" xlink:href="#Verdana-30"/>
       <use x="272.55859375" xlink:href="#Verdana-30"/>
      </g>
     </g>
    </g>
    <g id="ytick_6">
     <g id="line2d_28">
      <g>
       <use style="stroke:#000000;stroke-width:0.5;" x="72.0" xlink:href="#md7965d1ba0" y="100.8"/>
      </g>
     </g>
     <g id="line2d_29">
      <g>
       <use style="stroke:#000000;stroke-width:0.5;" x="518.4" xlink:href="#md9a1c1a7cd" y="100.8"/>
      </g>
     </g>
     <g id="text_13">
      <!-- 0 -->
      <g transform="translate(61.964375 104.1515625)scale(0.12 -0.12)">
       <use xlink:href="#Verdana-30"/>
      </g>
     </g>
    </g>
    <g id="ytick_7">
     <g id="line2d_30">
      <g>
       <use style="stroke:#000000;stroke-width:0.5;" x="72.0" xlink:href="#md7965d1ba0" y="43.2"/>
      </g>
     </g>
     <g id="line2d_31">
      <g>
       <use style="stroke:#000000;stroke-width:0.5;" x="518.4" xlink:href="#md9a1c1a7cd" y="43.2"/>
      </g>
     </g>
     <g id="text_14">
      <!-- 5000 -->
      <g transform="translate(39.36875 46.5515625)scale(0.12 -0.12)">
       <use xlink:href="#Verdana-35"/>
       <use x="63.57421875" xlink:href="#Verdana-30"/>
       <use x="127.1484375" xlink:href="#Verdana-30"/>
       <use x="190.72265625" xlink:href="#Verdana-30"/>
      </g>
     </g>
    </g>
    <g id="text_15">
     <!-- Absolute Max -->
     <defs>
      <path d="
M18.3125 0
L9.125 0
L9.125 75.9844
L18.3125 75.9844
z
" id="Verdana-6c"/>
      <path d="
M74.5156 0
L64.8438 0
L64.8438 62.6406
L44.625 20.0156
L38.875 20.0156
L18.7969 62.6406
L18.7969 0
L9.76562 0
L9.76562 72.7031
L22.9531 72.7031
L42.3281 32.2344
L61.0781 72.7031
L74.5156 72.7031
z
" id="Verdana-4d"/>
      <path d="
M51.4219 0
L42.2812 0
L42.2812 5.8125
Q41.0625 4.98438 38.9844 3.48438
Q36.9219 2 34.9688 1.125
Q32.6719 0 29.6875 -0.75
Q26.7031 -1.51562 22.7031 -1.51562
Q15.3281 -1.51562 10.2031 3.35938
Q5.07812 8.25 5.07812 15.8281
Q5.07812 22.0156 7.73438 25.8438
Q10.4062 29.6875 15.3281 31.8906
Q20.3125 34.0781 27.2969 34.8594
Q34.2812 35.6406 42.2812 36.0312
L42.2812 37.4531
Q42.2812 40.5781 41.1875 42.625
Q40.0938 44.6719 38.0312 45.8438
Q36.0781 46.9688 33.3438 47.3594
Q30.6094 47.75 27.6406 47.75
Q24.0312 47.75 19.5781 46.7969
Q15.1406 45.8438 10.4062 44.0469
L9.90625 44.0469
L9.90625 53.375
Q12.5938 54.1094 17.6719 54.9844
Q22.75 55.8594 27.6875 55.8594
Q33.4531 55.8594 37.7188 54.9062
Q42 53.9531 45.125 51.6562
Q48.1875 49.4219 49.7969 45.8438
Q51.4219 42.2812 51.4219 37.0156
z

M42.2812 13.4219
L42.2812 28.6094
Q38.0938 28.375 32.3906 27.875
Q26.7031 27.3906 23.3906 26.4688
Q19.4375 25.3438 16.9844 22.9688
Q14.5469 20.6094 14.5469 16.4531
Q14.5469 11.7656 17.375 9.39062
Q20.2188 7.03125 26.0312 7.03125
Q30.8594 7.03125 34.8594 8.90625
Q38.875 10.7969 42.2812 13.4219" id="Verdana-61"/>
      <path d="
M67.0938 0
L56.7812 0
L49.6562 20.2656
L18.2188 20.2656
L11.0781 0
L1.26562 0
L27.7344 72.7031
L40.625 72.7031
z

M46.6875 28.5625
L33.9375 64.2656
L21.1406 28.5625
z
" id="Verdana-41"/>
     </defs>
     <g transform="translate(14.698125 256.134375)rotate(-90.0)scale(0.12 -0.12)">
      <use xlink:href="#Verdana-41"/>
      <use x="68.359375" xlink:href="#Verdana-62"/>
      <use x="130.6640625" xlink:href="#Verdana-73"/>
      <use x="182.763671875" xlink:href="#Verdana-6f"/>
      <use x="243.45703125" xlink:href="#Verdana-6c"/>
      <use x="270.8984375" xlink:href="#Verdana-75"/>
      <use x="334.1796875" xlink:href="#Verdana-74"/>
      <use x="373.583984375" xlink:href="#Verdana-65"/>
      <use x="433.154296875" xlink:href="#Verdana-20"/>
      <use x="468.310546875" xlink:href="#Verdana-4d"/>
      <use x="552.587890625" xlink:href="#Verdana-61"/>
      <use x="612.646484375" xlink:href="#Verdana-78"/>
     </g>
    </g>
   </g>
   <g id="patch_3">
    <path d="
M72 43.2
L518.4 43.2" style="fill:none;stroke:#000000;"/>
   </g>
   <g id="patch_4">
    <path d="
M72 388.8
L72 43.2" style="fill:none;stroke:#000000;"/>
   </g>
   <g id="patch_5">
    <path d="
M518.4 388.8
L518.4 43.2" style="fill:none;stroke:#000000;"/>
   </g>
   <g id="patch_6">
    <path d="
M72 388.8
L518.4 388.8" style="fill:none;stroke:#000000;"/>
   </g>
   <g id="text_16">
    <!-- Rana Absolute Max -->
    <defs>
     <path d="
M69.9219 0
L57.375 0
L33.0625 28.9062
L19.4375 28.9062
L19.4375 0
L9.76562 0
L9.76562 72.7031
L30.125 72.7031
Q36.7188 72.7031 41.1094 71.8438
Q45.5156 71 49.0312 68.7969
Q52.9844 66.3125 55.2031 62.5156
Q57.4219 58.7344 57.4219 52.9375
Q57.4219 45.0625 53.4688 39.7656
Q49.5156 34.4688 42.5781 31.7812
z

M47.3125 52.25
Q47.3125 55.375 46.2188 57.7812
Q45.125 60.2031 42.5781 61.8594
Q40.4844 63.2812 37.5938 63.8438
Q34.7188 64.4062 30.8125 64.4062
L19.4375 64.4062
L19.4375 36.9688
L29.2031 36.9688
Q33.7969 36.9688 37.2031 37.7656
Q40.625 38.5781 43.0156 40.7656
Q45.2188 42.8281 46.2656 45.4844
Q47.3125 48.1406 47.3125 52.25" id="Verdana-52"/>
    </defs>
    <g transform="translate(226.44 38.2)scale(0.144 -0.144)">
     <use xlink:href="#Verdana-52"/>
     <use x="67.53125" xlink:href="#Verdana-61"/>
     <use x="127.58984375" xlink:href="#Verdana-6e"/>
     <use x="190.87109375" xlink:href="#Verdana-61"/>
     <use x="250.9296875" xlink:href="#Verdana-20"/>
     <use x="286.0859375" xlink:href="#Verdana-41"/>
     <use x="354.4453125" xlink:href="#Verdana-62"/>
     <use x="416.75" xlink:href="#Verdana-73"/>
     <use x="468.849609375" xlink:href="#Verdana-6f"/>
     <use x="529.54296875" xlink:href="#Verdana-6c"/>
     <use x="556.984375" xlink:href="#Verdana-75"/>
     <use x="620.265625" xlink:href="#Verdana-74"/>
     <use x="659.669921875" xlink:href="#Verdana-65"/>
     <use x="719.240234375" xlink:href="#Verdana-20"/>
     <use x="754.396484375" xlink:href="#Verdana-4d"/>
     <use x="838.673828125" xlink:href="#Verdana-61"/>
     <use x="898.732421875" xlink:href="#Verdana-78"/>
    </g>
   </g>
   <g id="legend_1">
    <g id="patch_7">
     <path d="
M407.18 159.919
L511.2 159.919
L511.2 50.4
L407.18 50.4
L407.18 159.919
z
" style="fill:#ffffff;stroke:#000000;"/>
    </g>
    <g id="line2d_32">
     <path d="
M417.26 62.0617
L437.42 62.0617" style="fill:none;stroke:#0000ff;stroke-dasharray:6.000000,2.000000;stroke-dashoffset:0.0;"/>
    </g>
    <g id="line2d_33"/>
    <g id="text_17">
     <!-- AMPGO -->
     <defs>
      <path d="
M57.3281 50.7344
Q57.3281 45.9062 55.6406 41.7656
Q53.9531 37.6406 50.9219 34.625
Q47.1719 30.8594 42.0469 28.9688
Q36.9219 27.0938 29.1094 27.0938
L19.4375 27.0938
L19.4375 0
L9.76562 0
L9.76562 72.7031
L29.5 72.7031
Q36.0312 72.7031 40.5781 71.6094
Q45.125 70.5156 48.6406 68.1719
Q52.7812 65.375 55.0469 61.2188
Q57.3281 57.0781 57.3281 50.7344
M47.2656 50.4844
Q47.2656 54.25 45.9375 57.0312
Q44.625 59.8125 41.9375 61.5781
Q39.5938 63.0938 36.5938 63.75
Q33.5938 64.4062 29 64.4062
L19.4375 64.4062
L19.4375 35.3594
L27.5938 35.3594
Q33.4531 35.3594 37.1094 36.4062
Q40.7656 37.4531 43.0625 39.75
Q45.3594 42.0938 46.3125 44.6719
Q47.2656 47.2656 47.2656 50.4844" id="Verdana-50"/>
      <path d="
M70.4062 5.375
Q64.4531 2.64062 57.3906 0.609375
Q50.3438 -1.42188 43.75 -1.42188
Q35.25 -1.42188 28.1719 0.921875
Q21.0938 3.26562 16.1094 7.95312
Q11.0781 12.7031 8.34375 19.7969
Q5.60938 26.9062 5.60938 36.4219
Q5.60938 53.8594 15.7969 63.9375
Q25.9844 74.0312 43.75 74.0312
Q49.9531 74.0312 56.4219 72.5312
Q62.8906 71.0469 70.3594 67.4844
L70.3594 56
L69.4844 56
Q67.9688 57.1719 65.0781 59.0781
Q62.2031 60.9844 59.4219 62.25
Q56.0625 63.7656 51.7812 64.7656
Q47.5156 65.7656 42.0938 65.7656
Q29.8906 65.7656 22.7812 57.9219
Q15.6719 50.0938 15.6719 36.7188
Q15.6719 22.6094 23.0938 14.7656
Q30.5156 6.9375 43.3125 6.9375
Q48 6.9375 52.6562 7.85938
Q57.3281 8.79688 60.8438 10.25
L60.8438 28.0781
L41.3594 28.0781
L41.3594 36.5781
L70.4062 36.5781
z
" id="Verdana-47"/>
     </defs>
     <g transform="translate(453.26025 67.10175)scale(0.144 -0.144)">
      <use xlink:href="#Verdana-41"/>
      <use x="68.359375" xlink:href="#Verdana-4d"/>
      <use x="152.63671875" xlink:href="#Verdana-50"/>
      <use x="212.939453125" xlink:href="#Verdana-47"/>
      <use x="290.478515625" xlink:href="#Verdana-4f"/>
     </g>
    </g>
    <g id="line2d_34">
     <path d="
M417.26 83.1015
L437.42 83.1015" style="fill:none;stroke:#008000;stroke-dasharray:1.000000,1.000000;stroke-dashoffset:0.0;"/>
    </g>
    <g id="line2d_35"/>
    <g id="text_18">
     <!-- Anneal -->
     <g transform="translate(453.26025 88.1415)scale(0.144 -0.144)">
      <use xlink:href="#Verdana-41"/>
      <use x="68.359375" xlink:href="#Verdana-6e"/>
      <use x="131.640625" xlink:href="#Verdana-6e"/>
      <use x="194.921875" xlink:href="#Verdana-65"/>
      <use x="254.4921875" xlink:href="#Verdana-61"/>
      <use x="314.55078125" xlink:href="#Verdana-6c"/>
     </g>
    </g>
    <g id="line2d_36">
     <path d="
M417.26 104.141
L437.42 104.141" style="fill:none;stroke:#ff0000;stroke-dasharray:3.000000,6.000000;stroke-dashoffset:0.0;"/>
    </g>
    <g id="line2d_37"/>
    <g id="text_19">
     <!-- BSA -->
     <defs>
      <path d="
M64.5938 22.3594
Q64.5938 16.9375 62.5469 12.7812
Q60.5 8.64062 57.0312 5.95312
Q52.9375 2.73438 48.0156 1.35938
Q43.1094 0 35.5469 0
L9.76562 0
L9.76562 72.7031
L31.2969 72.7031
Q39.2656 72.7031 43.2188 72.1094
Q47.1719 71.5312 50.7812 69.6719
Q54.7812 67.5781 56.5938 64.2812
Q58.4062 60.9844 58.4062 56.3906
Q58.4062 51.2188 55.7656 47.5781
Q53.125 43.9531 48.7344 41.75
L48.7344 41.3594
Q56.1094 39.8438 60.3438 34.8906
Q64.5938 29.9375 64.5938 22.3594
M48.3438 55.125
Q48.3438 57.7656 47.4531 59.5625
Q46.5781 61.375 44.625 62.5
Q42.3281 63.8125 39.0625 64.125
Q35.7969 64.4531 30.9531 64.4531
L19.4375 64.4531
L19.4375 43.4531
L31.9375 43.4531
Q36.4688 43.4531 39.1562 43.9219
Q41.8438 44.3906 44.1406 45.8438
Q46.4375 47.3125 47.3906 49.625
Q48.3438 51.9531 48.3438 55.125
M54.5469 21.9688
Q54.5469 26.375 53.2188 28.9531
Q51.9062 31.5469 48.4375 33.3438
Q46.0938 34.5781 42.75 34.9375
Q39.4062 35.2969 34.625 35.2969
L19.4375 35.2969
L19.4375 8.25
L32.2344 8.25
Q38.5781 8.25 42.625 8.90625
Q46.6875 9.57812 49.2656 11.3281
Q52 13.2344 53.2656 15.6719
Q54.5469 18.1094 54.5469 21.9688" id="Verdana-42"/>
      <path d="
M62.5938 20.75
Q62.5938 16.5 60.6094 12.3438
Q58.6406 8.20312 55.0781 5.32812
Q51.1719 2.20312 45.9688 0.4375
Q40.7656 -1.3125 33.4531 -1.3125
Q25.5938 -1.3125 19.3125 0.140625
Q13.0312 1.60938 6.54688 4.5
L6.54688 16.6094
L7.23438 16.6094
Q12.75 12.0156 19.9688 9.51562
Q27.2031 7.03125 33.5469 7.03125
Q42.5312 7.03125 47.5312 10.3906
Q52.5469 13.7656 52.5469 19.3906
Q52.5469 24.2188 50.1719 26.5156
Q47.7969 28.8125 42.9688 30.0781
Q39.3125 31.0625 35.0312 31.6875
Q30.7656 32.3281 25.9844 33.2969
Q16.3125 35.3594 11.6406 40.3125
Q6.98438 45.2656 6.98438 53.2188
Q6.98438 62.3594 14.6875 68.1875
Q22.4062 74.0312 34.2812 74.0312
Q41.9375 74.0312 48.3281 72.5625
Q54.7344 71.0938 59.6719 68.9531
L59.6719 57.5156
L58.9844 57.5156
Q54.8281 61.0312 48.0625 63.3438
Q41.3125 65.6719 34.2344 65.6719
Q26.4688 65.6719 21.75 62.4531
Q17.0469 59.2344 17.0469 54.1562
Q17.0469 49.6094 19.3906 47.0156
Q21.7344 44.4375 27.6406 43.0625
Q30.7656 42.3906 36.5156 41.4062
Q42.2812 40.4375 46.2969 39.4062
Q54.3906 37.25 58.4844 32.9062
Q62.5938 28.5625 62.5938 20.75" id="Verdana-53"/>
     </defs>
     <g transform="translate(453.26025 109.18125)scale(0.144 -0.144)">
      <use xlink:href="#Verdana-42"/>
      <use x="68.5546875" xlink:href="#Verdana-53"/>
      <use x="135.9140625" xlink:href="#Verdana-41"/>
     </g>
    </g>
    <g id="line2d_38">
     <path d="
M417.26 125.181
L437.42 125.181" style="fill:none;stroke:#00bfbf;stroke-dasharray:5.000000,1.000000,2.000000,1.000000,5.000000,1.000000;stroke-dashoffset:0.0;"/>
    </g>
    <g id="line2d_39"/>
    <g id="text_20">
     <!-- Cuckoo -->
     <defs>
      <path d="
M58.5469 0
L46.4375 0
L24.5625 23.875
L18.6094 18.2188
L18.6094 0
L9.42188 0
L9.42188 75.9844
L18.6094 75.9844
L18.6094 27.25
L45.125 54.5469
L56.6875 54.5469
L31.3438 29.3438
z
" id="Verdana-6b"/>
      <path d="
M65.9219 5.28125
Q63.2344 4.10938 61.0625 3.07812
Q58.8906 2.04688 55.375 0.921875
Q52.3906 0 48.8906 -0.65625
Q45.4062 -1.3125 41.2188 -1.3125
Q33.2969 -1.3125 26.8281 0.90625
Q20.3594 3.125 15.5781 7.85938
Q10.8906 12.5 8.25 19.6562
Q5.60938 26.8125 5.60938 36.2812
Q5.60938 45.2656 8.14062 52.3438
Q10.6875 59.4219 15.4844 64.3125
Q20.125 69.0469 26.6875 71.5312
Q33.25 74.0312 41.2656 74.0312
Q47.125 74.0312 52.9531 72.6094
Q58.7969 71.1875 65.9219 67.625
L65.9219 56.1562
L65.1875 56.1562
Q59.1875 61.1875 53.2656 63.4688
Q47.3594 65.7656 40.625 65.7656
Q35.1094 65.7656 30.6875 63.9844
Q26.2656 62.2031 22.7969 58.4531
Q19.4375 54.7812 17.5469 49.1875
Q15.6719 43.6094 15.6719 36.2812
Q15.6719 28.6094 17.75 23.0938
Q19.8281 17.5781 23.0938 14.1094
Q26.5156 10.5 31.0781 8.76562
Q35.6406 7.03125 40.7188 7.03125
Q47.7031 7.03125 53.7969 9.42188
Q59.9062 11.8125 65.2344 16.6094
L65.9219 16.6094
z
" id="Verdana-43"/>
     </defs>
     <g transform="translate(453.26025 130.221)scale(0.144 -0.144)">
      <use xlink:href="#Verdana-43"/>
      <use x="69.82421875" xlink:href="#Verdana-75"/>
      <use x="133.10546875" xlink:href="#Verdana-63"/>
      <use x="185.205078125" xlink:href="#Verdana-6b"/>
      <use x="243.384765625" xlink:href="#Verdana-6f"/>
      <use x="304.078125" xlink:href="#Verdana-6f"/>
     </g>
    </g>
    <g id="line2d_40">
     <path d="
M417.26 146.221
L437.42 146.221" style="fill:none;stroke:#bf00bf;stroke-linecap:square;"/>
    </g>
    <g id="line2d_41"/>
    <g id="text_21">
     <!-- qABC -->
     <defs>
      <path d="
M53.2656 -20.125
L44.0938 -20.125
L44.0938 6.15625
Q39.8438 2.48438 35.6406 0.703125
Q31.4531 -1.07812 26.5625 -1.07812
Q16.8438 -1.07812 11.0625 6.42188
Q5.28125 13.9219 5.28125 27.0938
Q5.28125 34.125 7.29688 39.5156
Q9.32812 44.9219 12.6406 48.5781
Q15.875 52.1562 20.2188 54.1094
Q24.5625 56.0625 29.3906 56.0625
Q33.7969 56.0625 37.1875 55.0781
Q40.5781 54.1094 44.0938 52.2031
L44.6719 54.5469
L53.2656 54.5469
z

M44.0938 13.875
L44.0938 44.7344
Q40.2812 46.4375 37.3438 47.1094
Q34.4219 47.7969 31 47.7969
Q23.0469 47.7969 18.8906 42.4062
Q14.75 37.0156 14.75 27.5469
Q14.75 17.9688 18.0938 12.8125
Q21.4375 7.67188 28.6094 7.67188
Q32.625 7.67188 36.625 9.40625
Q40.625 11.1406 44.0938 13.875" id="Verdana-71"/>
     </defs>
     <g transform="translate(453.26025 151.26075)scale(0.144 -0.144)">
      <use xlink:href="#Verdana-71"/>
      <use x="62.3046875" xlink:href="#Verdana-41"/>
      <use x="130.6640625" xlink:href="#Verdana-42"/>
      <use x="199.21875" xlink:href="#Verdana-43"/>
     </g>
    </g>
   </g>
  </g>
 </g>
 <defs>
  <clipPath id="p7ff5b81e1d">
   <rect height="345.6" width="446.4" x="72.0" y="43.2"/>
  </clipPath>
 </defs>
</svg>
