<?xml version="1.0" encoding="utf-8" standalone="no"?>
<!DOCTYPE svg PUBLIC "-//W3C//DTD SVG 1.1//EN"
  "http://www.w3.org/Graphics/SVG/1.1/DTD/svg11.dtd">
<!-- Created with matplotlib (http://matplotlib.org/) -->
<svg height="432pt" version="1.1" viewBox="0 0 576 432" width="576pt" xmlns="http://www.w3.org/2000/svg" xmlns:xlink="http://www.w3.org/1999/xlink">
 <defs>
  <style type="text/css">
*{stroke-linecap:butt;stroke-linejoin:round;}
  </style>
 </defs>
 <g id="figure_1">
  <g id="patch_1">
   <path d="
M0 432
L576 432
L576 0
L0 0
z
" style="fill:#ffffff;"/>
  </g>
  <g id="axes_1">
   <g id="patch_2">
    <path d="
M72 388.8
L518.4 388.8
L518.4 43.2
L72 43.2
z
" style="fill:#ffffff;"/>
   </g>
   <g id="line2d_1">
    <path clip-path="url(#p7ff5b81e1d)" d="
M72 63.8574
L89.4989 63.8575
L89.6774 74.1633
L98.2483 74.1633
L98.4269 84.4065
L106.998 84.4065
L107.176 85.1926
L133.246 85.1926
L133.425 86.6859
L141.996 86.6859
L142.174 88.9918
L159.494 88.9918
L159.673 90.0848
L185.743 90.0848
L185.921 90.5625
L203.242 90.5625
L203.42 91.7387
L211.991 91.7387
L212.17 93.5538
L229.49 93.5538
L229.668 94.2873
L246.989 94.2873
L247.167 95.2371
L264.488 95.2371
L264.666 97.4426
L325.734 97.5078
L325.912 98.0843
L395.729 98.0843
L395.908 101.271
L430.727 101.271
L430.906 101.949
L500.723 101.949
L500.901 102.149
L518.311 102.149
L518.311 102.149" style="fill:none;stroke:#0000ff;stroke-dasharray:6.000000,2.000000;stroke-dashoffset:0.0;"/>
   </g>
   <g id="line2d_2">
    <path clip-path="url(#p7ff5b81e1d)" d="
M72 66.3039
L72.3571 66.3734
L72.5357 66.5131
L72.7142 67.9923
L72.8928 67.9923
L73.1606 68.3587
L73.3392 69.378
L73.5178 69.378
L73.6963 69.5467
L73.8749 72.7862
L74.4998 72.851
L74.9462 73.1499
L75.1248 74.1677
L75.3926 76.011
L75.6605 76.011
L75.839 76.7649
L76.1962 76.7738
L76.464 82.8328
L76.5533 82.8328
L76.7318 83.121
L76.8211 83.121
L76.9997 83.2964
L77.1782 84.4409
L77.3568 85.2387
L77.4461 85.2387
L77.6246 85.7478
L78.1603 85.8544
L78.3389 86.2832
L79.4102 86.3922
L79.5888 87.585
L79.6781 87.585
L79.8566 89.5038
L80.0352 89.5322
L80.2138 89.7587
L80.303 89.7587
L80.4816 89.9527
L80.7494 89.9527
L80.928 91.4296
L81.1958 91.4296
L81.4637 92.3416
L81.553 92.3416
L81.7315 94.9797
L81.8208 94.9797
L81.9994 95.1684
L82.1779 96.8567
L82.3565 97.0771
L82.8922 97.0771
L83.0707 97.5298
L83.16 97.5298
L83.3386 98.4837
L83.5171 98.5635
L83.785 98.6276
L83.9635 98.7934
L84.1421 98.7934
L84.3206 102.045
L84.4992 102.412
L84.6778 102.437
L84.8563 104.434
L85.0349 104.907
L85.1242 104.907
L85.3027 105.148
L85.4813 105.222
L85.6598 105.777
L86.017 106.236
L86.5526 106.236
L86.8205 107.795
L86.9098 107.795
L87.0883 110.072
L87.1776 110.072
L87.5347 113.95
L87.8918 114.03
L88.0704 115.158
L88.4275 115.158
L88.5168 115.284
L88.6954 117.093
L89.231 117.098
L89.4096 118.804
L89.9453 118.804
L90.1238 120.209
L90.8381 120.209
L91.1059 122.325
L92.3558 122.384
L92.5344 125.338
L92.8022 125.338
L92.9808 125.878
L93.2486 125.878
L93.4272 127.218
L93.6058 127.297
L93.7843 127.297
L94.2307 129.793
L94.4986 129.834
L94.6771 129.935
L94.8557 131.389
L95.1235 131.389
L95.3021 132.402
L95.7485 132.402
L95.927 132.847
L96.0163 132.847
L96.1949 133.144
L96.552 133.144
L96.7306 133.549
L97.177 133.809
L97.3555 137.963
L97.6234 141.284
L97.8019 141.549
L98.8733 141.549
L99.0518 141.788
L99.1411 141.788
L99.3197 141.965
L99.4982 141.965
L99.6768 142.181
L100.748 142.187
L100.927 143.968
L101.105 144.33
L101.195 144.33
L101.373 145.231
L101.909 145.231
L102.087 146.474
L103.248 146.508
L103.427 148.321
L103.962 148.321
L104.141 149.15
L104.409 149.15
L104.766 153.082
L104.855 153.082
L105.034 153.268
L105.212 153.268
L105.391 153.644
L105.48 153.644
L105.659 153.937
L106.373 154
L106.551 154.092
L107.087 154.092
L107.266 154.888
L107.444 155.066
L107.623 155.143
L107.891 155.143
L108.069 155.602
L108.248 155.602
L108.426 159.381
L108.783 159.381
L108.962 159.563
L109.051 159.563
L109.23 159.917
L109.587 160.441
L109.765 160.441
L109.944 161.615
L110.301 161.615
L110.48 162.124
L111.73 162.231
L111.908 162.614
L112.176 162.672
L112.533 167.148
L113.247 167.148
L113.426 167.335
L113.872 167.335
L114.051 168.029
L114.14 168.029
L114.319 168.452
L115.033 168.452
L115.479 169.368
L116.283 169.368
L116.461 169.997
L116.64 169.997
L116.819 171.326
L117.622 171.326
L117.801 171.681
L118.068 171.681
L118.247 171.829
L118.604 171.829
L118.783 174.151
L118.961 175.778
L119.229 175.778
L119.408 177.391
L119.676 177.391
L119.854 177.887
L121.193 177.972
L121.372 178.72
L122.354 178.72
L122.532 179.177
L122.711 183.445
L123.336 183.445
L123.515 187.504
L123.604 187.504
L123.782 187.696
L124.14 187.696
L124.318 188.04
L124.497 190.029
L124.943 190.029
L125.122 191.126
L125.479 191.153
L125.657 191.607
L127.086 191.631
L127.264 193.214
L127.443 193.214
L127.621 193.566
L127.711 193.566
L127.889 195.162
L128.425 195.162
L128.604 196.836
L129.228 196.836
L129.407 197.952
L130.478 197.952
L130.657 198.789
L130.925 198.789
L131.103 200.571
L131.282 200.897
L131.46 200.897
L131.639 204.459
L131.818 204.459
L131.996 205.277
L132.085 205.277
L132.264 206.259
L133.335 206.285
L133.514 206.856
L135.3 206.888
L135.478 208.378
L135.746 208.378
L135.924 208.496
L136.46 208.496
L136.639 208.937
L138.424 209.021
L138.603 211.55
L138.96 211.55
L139.049 212.567
L139.228 215.602
L139.406 215.602
L139.585 215.743
L140.835 215.743
L141.013 217.316
L141.549 217.316
L141.728 219.558
L141.906 219.558
L142.085 221.644
L142.442 221.644
L142.71 223.424
L143.245 223.424
L143.424 223.685
L143.513 223.685
L143.692 223.872
L144.317 223.872
L144.495 226.818
L144.674 226.818
L144.852 227.642
L145.299 227.642
L145.477 227.975
L145.567 227.975
L145.745 228.747
L145.924 228.747
L146.102 229.025
L146.281 229.161
L147.174 229.161
L147.352 229.682
L147.531 229.682
L147.709 229.961
L147.977 229.961
L148.156 232.814
L149.227 232.814
L149.406 234.973
L149.852 234.973
L150.031 235.456
L150.834 235.456
L151.013 237.145
L151.459 237.145
L151.638 237.689
L151.995 237.689
L152.173 238.816
L153.602 238.816
L153.78 239.06
L153.87 239.06
L154.048 240.504
L154.227 240.504
L154.405 240.78
L154.584 240.78
L154.763 240.941
L155.655 240.941
L155.834 242.389
L156.28 242.389
L156.459 243.629
L157.084 243.629
L157.262 244.301
L157.62 244.301
L157.798 245.4
L158.423 245.4
L158.602 247.038
L158.959 247.038
L159.137 247.156
L159.673 247.258
L159.852 247.498
L160.566 247.498
L160.834 249.072
L161.191 249.072
L161.369 249.427
L162.53 249.492
L162.708 251.304
L162.798 251.304
L162.976 251.698
L165.923 251.698
L166.101 253.118
L166.905 253.118
L166.994 253.9
L167.172 256.418
L167.708 256.418
L167.887 257.351
L168.065 257.351
L168.244 257.708
L168.422 257.708
L168.601 258.857
L170.119 258.857
L170.297 259.445
L171.636 259.445
L171.815 259.696
L171.994 259.696
L172.172 260.702
L174.136 260.702
L174.315 261.262
L175.833 261.262
L176.011 261.376
L176.1 261.376
L176.279 262.06
L177.261 262.06
L177.44 263.654
L177.886 263.654
L178.065 264.505
L179.225 264.505
L179.315 264.775
L179.493 267.53
L180.386 267.53
L180.564 268.29
L180.654 268.29
L180.832 270.3
L182.439 270.3
L182.618 271.068
L183.6 271.068
L183.779 271.289
L185.207 271.289
L185.386 273.482
L186.278 273.482
L186.457 273.756
L187.171 273.756
L187.35 273.985
L191.724 274.013
L191.903 274.833
L193.599 274.833
L193.778 277.565
L194.581 277.565
L194.76 278.264
L195.206 278.264
L195.296 278.454
L195.474 280.307
L198.778 280.319
L198.956 280.676
L199.849 280.676
L200.028 283.575
L203.599 283.674
L203.777 284.055
L204.402 284.055
L204.581 284.332
L204.759 284.332
L204.938 284.719
L205.652 284.719
L205.831 285.478
L206.009 285.478
L206.188 286.189
L207.973 286.256
L208.152 286.931
L209.223 286.931
L209.402 287.766
L211.009 287.832
L211.188 289.275
L211.277 289.275
L211.455 291.364
L211.723 291.364
L211.902 291.566
L212.705 291.602
L212.884 292.943
L214.848 292.943
L215.027 293.478
L216.009 293.478
L216.187 294.551
L216.276 294.551
L216.455 295.499
L216.544 295.499
L216.723 296.484
L218.598 296.484
L218.776 296.634
L218.955 296.634
L219.133 297.534
L220.74 297.534
L220.919 297.774
L221.99 297.774
L222.169 299.965
L224.401 300.037
L224.669 300.335
L225.651 300.335
L225.829 300.455
L227.883 300.455
L228.061 300.659
L228.151 300.659
L228.329 301.754
L228.508 301.936
L231.722 301.936
L231.9 302.489
L233.061 302.489
L233.24 302.845
L234.847 302.845
L235.025 304.293
L236.007 304.293
L236.186 304.926
L236.722 304.926
L236.9 305.209
L237.079 305.297
L238.507 305.297
L238.686 305.459
L240.114 305.459
L240.293 305.778
L242.436 305.813
L242.703 310.221
L245.203 310.221
L245.382 310.497
L248.417 310.541
L248.596 310.631
L249.042 310.726
L249.221 311.369
L252.613 311.474
L252.792 312.121
L254.131 312.121
L254.31 312.57
L256.274 312.656
L256.452 313.733
L258.595 313.733
L258.774 314.218
L261.988 314.237
L262.166 314.715
L262.345 314.715
L262.524 314.982
L263.506 314.982
L263.684 315.564
L264.666 315.564
L264.845 316.004
L265.738 316.004
L265.916 316.672
L268.595 316.675
L268.773 316.977
L269.041 316.977
L269.22 317.31
L270.916 317.31
L271.094 318.093
L271.362 318.093
L271.541 318.26
L271.63 318.26
L271.809 318.391
L275.826 318.41
L276.005 318.593
L276.898 318.593
L277.076 319.472
L277.969 319.472
L278.148 320.466
L281.004 320.506
L281.183 320.977
L282.701 320.977
L282.879 321.179
L288.236 321.179
L288.415 321.404
L289.397 321.404
L289.575 321.796
L290.2 321.796
L290.379 322.151
L295.289 322.246
L295.468 323.101
L296.986 323.101
L297.164 323.793
L297.343 323.793
L297.521 325.546
L298.771 325.546
L298.86 326.577
L299.039 330.068
L300.468 330.068
L300.646 330.289
L302.967 330.351
L303.146 331.192
L303.949 331.192
L304.128 331.574
L307.521 331.656
L307.699 332.726
L308.235 332.726
L308.413 332.838
L309.396 332.838
L309.574 333.021
L311.003 333.073
L311.181 334.234
L311.27 334.234
L311.449 336.654
L314.574 336.654
L314.752 337.284
L315.288 337.284
L315.467 338.218
L315.645 338.218
L315.824 339.46
L317.788 339.46
L317.966 340.619
L318.681 340.619
L318.859 341.412
L319.841 341.412
L320.02 341.977
L321.002 341.995
L321.18 342.256
L323.323 342.259
L323.591 342.706
L323.77 342.706
L323.948 343.167
L327.252 343.199
L327.43 343.7
L328.323 343.7
L328.501 343.94
L328.68 343.94
L328.859 344.063
L331.448 344.063
L331.626 344.245
L332.073 344.245
L332.251 344.839
L334.662 344.839
L334.84 345
L336.269 345
L336.537 346.279
L338.769 346.279
L338.947 346.46
L340.376 346.46
L340.554 346.571
L340.644 346.571
L340.822 347.6
L341.893 347.6
L342.072 347.904
L343.411 347.904
L343.59 348.047
L344.572 348.047
L344.75 348.837
L345.554 348.837
L345.732 349.065
L345.822 349.065
L346 349.686
L346.179 349.686
L346.357 349.897
L346.982 349.914
L349.125 349.914
L349.304 350.257
L351.536 350.295
L351.714 350.401
L351.893 350.401
L352.071 350.553
L353.411 350.553
L353.589 350.736
L355.553 350.756
L355.821 351.874
L356 351.989
L360.91 352.094
L361.178 352.144
L365.106 352.164
L365.285 352.322
L371.177 352.358
L371.356 352.568
L372.249 352.568
L372.427 353.012
L373.588 353.012
L373.766 353.152
L373.945 355.597
L375.373 355.597
L375.552 355.89
L375.998 355.89
L376.177 356.093
L377.248 356.093
L377.427 356.24
L381.444 356.316
L381.623 356.754
L384.837 356.801
L385.016 357.318
L385.284 357.318
L385.462 357.446
L389.033 357.53
L389.212 357.739
L392.158 357.771
L392.337 357.907
L392.515 357.907
L392.694 358.144
L394.479 358.144
L394.658 358.26
L394.836 358.26
L395.015 358.612
L396.533 358.612
L396.711 359.114
L401.265 359.175
L401.532 359.236
L405.818 359.236
L405.996 359.38
L407.425 359.38
L407.604 360.25
L411.8 360.257
L411.978 360.543
L413.05 360.543
L413.228 360.698
L416.71 360.78
L416.889 360.863
L421.888 360.91
L422.067 361.005
L424.12 361.012
L424.21 361.126
L424.388 363.747
L428.674 363.753
L428.852 364.056
L429.12 364.056
L429.299 365.664
L429.477 365.664
L429.656 366.561
L429.834 366.722
L430.013 366.722
L430.191 366.872
L431.977 366.872
L432.156 367.031
L434.923 367.039
L435.102 367.265
L437.334 367.265
L437.512 367.647
L439.209 367.647
L439.387 367.806
L439.744 367.806
L439.923 368.114
L441.798 368.171
L441.976 368.711
L444.387 368.711
L444.565 369.087
L446.887 369.148
L447.065 370.318
L447.333 370.318
L447.512 371.032
L455.904 371.094
L456.083 371.369
L456.44 371.369
L456.618 371.649
L459.922 371.685
L460.1 371.787
L460.457 371.787
L460.636 371.99
L466.26 372.018
L466.439 372.25
L467.064 372.25
L467.243 372.559
L467.51 372.612
L473.939 372.694
L474.117 372.771
L475.813 372.771
L475.992 373.084
L477.331 373.084
L477.51 373.364
L480.099 373.364
L480.277 373.668
L483.67 373.76
L484.116 373.787
L486.348 373.787
L486.527 373.94
L488.045 374.03
L488.223 374.216
L493.134 374.312
L493.312 374.6
L496.526 374.67
L496.705 375.281
L497.062 375.281
L497.241 375.493
L498.848 375.493
L499.026 375.624
L499.562 375.624
L499.74 375.994
L502.151 375.994
L502.33 376.118
L505.365 376.118
L505.544 376.439
L507.329 376.439
L507.508 376.701
L507.865 376.701
L508.044 377.276
L510.008 377.276
L510.186 377.399
L510.365 377.405
L510.543 377.715
L514.74 377.715
L514.918 377.866
L515.632 377.866
L515.811 378.551
L518.311 378.551
L518.311 378.551" style="fill:none;stroke:#008000;stroke-dasharray:1.000000,1.000000;stroke-dashoffset:0.0;"/>
   </g>
   <g id="line2d_3">
    <path clip-path="url(#p7ff5b81e1d)" d="
M72 64.5716
L72.0893 79.6295
L72.1786 83.9565
L72.625 97.905
L72.7142 97.905
L72.8928 99.2492
L73.1606 99.2492
L73.3392 99.6024
L73.4285 99.6024
L73.607 103.237
L77.6246 103.237
L77.8032 104.922
L79.7674 104.922
L79.9459 107.67
L80.1245 108.182
L85.4813 108.226
L85.6598 108.572
L88.8739 108.572
L89.0525 109.914
L92.4451 109.914
L92.6237 110.247
L95.2128 110.247
L95.3914 110.388
L95.4806 110.388
L95.6592 111.06
L98.4269 111.06
L98.6054 112.348
L99.0518 112.348
L99.2304 112.844
L100.57 112.844
L100.748 114.421
L100.927 115.304
L115.926 115.304
L116.104 117.614
L123.068 117.703
L123.247 118.082
L123.782 118.082
L123.961 120.006
L134.228 120.067
L134.407 121.682
L137.799 121.682
L137.978 121.923
L150.299 121.923
L150.477 122.594
L162.798 122.594
L162.976 124.182
L164.226 124.182
L164.405 124.525
L166.012 124.525
L166.19 126.513
L166.369 126.513
L166.548 128.104
L171.369 128.104
L171.547 129.449
L175.922 129.449
L176.1 131.274
L184.136 131.274
L184.314 131.518
L185.028 131.518
L185.207 132.883
L194.224 132.956
L194.403 134.65
L202.706 134.651
L202.884 136.499
L206.456 136.499
L206.634 136.814
L206.813 136.814
L206.991 137.197
L210.027 137.197
L210.205 137.321
L216.991 137.321
L217.169 137.995
L218.776 137.995
L218.955 138.73
L226.187 138.781
L226.365 139.923
L227.972 139.923
L228.151 140.683
L229.758 140.683
L229.936 141.592
L231.276 141.592
L231.454 141.846
L233.597 141.846
L233.775 142.262
L235.025 142.262
L235.204 142.508
L237.257 142.508
L237.436 142.946
L245.56 142.946
L245.739 143.53
L249.756 143.53
L249.935 144.898
L253.328 144.898
L253.506 145.064
L257.256 145.064
L257.435 145.611
L266.452 145.611
L266.63 146.834
L274.308 146.834
L274.487 147.583
L278.862 147.685
L279.04 147.812
L280.647 147.812
L280.737 147.969
L280.915 148.587
L300.378 148.69
L300.557 150.986
L302.253 150.986
L302.432 151.352
L305.735 151.352
L305.914 151.732
L318.234 151.732
L318.413 153.472
L332.519 153.472
L332.698 154.463
L343.143 154.463
L343.322 156.869
L354.036 156.879
L354.214 157.031
L361.178 157.031
L361.356 158.227
L368.231 158.227
L368.41 158.701
L370.106 158.701
L370.284 160.339
L371.802 160.339
L371.981 160.688
L372.07 160.688
L372.249 161.161
L375.373 161.161
L375.552 161.745
L377.159 161.745
L377.338 162.448
L393.854 162.507
L394.033 163.207
L402.782 163.207
L402.961 163.533
L404.568 163.623
L404.747 163.873
L415.907 163.873
L416.085 163.985
L421.799 164.001
L421.978 166.745
L434.209 166.745
L434.388 168.559
L434.566 168.559
L434.745 169.849
L441.708 169.849
L441.887 170.362
L460.368 170.429
L460.547 170.536
L465.725 170.536
L465.903 170.935
L466.707 170.935
L466.885 172.013
L473.849 172.013
L474.028 172.641
L486.527 172.66
L486.706 174.119
L490.545 174.134
L490.723 174.662
L493.669 174.662
L493.848 175.682
L496.705 175.682
L496.884 175.934
L499.026 175.934
L499.205 177.31
L511.168 177.31
L511.347 178.374
L518.311 178.477
L518.311 178.477" style="fill:none;stroke:#ff0000;stroke-dasharray:3.000000,6.000000;stroke-dashoffset:0.0;"/>
   </g>
   <g id="line2d_4">
    <path clip-path="url(#p7ff5b81e1d)" d="
M72 60.0421
L72.0893 77.0318
L72.1786 87.8249
L72.2678 88.5373
L72.4464 92.7575
L72.625 92.7575
L72.8035 102.661
L72.9821 103.031
L73.3392 103.031
L73.5178 106.341
L74.9462 106.341
L75.1248 108.204
L77.1782 108.204
L77.3568 109.779
L78.8746 109.779
L79.0531 109.932
L79.8566 109.932
L80.0352 110.17
L81.1958 110.17
L81.3744 110.411
L81.4637 110.411
L81.6422 112.152
L82.2672 112.152
L82.4458 113.187
L86.9098 113.255
L87.0883 115.442
L88.1597 115.442
L88.3382 115.564
L91.2845 115.564
L91.463 116.687
L92.3558 116.687
L92.6237 117.721
L95.1235 117.721
L95.3021 117.916
L97.7126 117.916
L97.8912 118.361
L100.302 118.361
L100.48 118.753
L103.159 118.753
L103.337 119.961
L104.855 119.961
L105.034 120.403
L105.926 120.403
L106.105 120.543
L106.641 120.543
L106.819 121.184
L106.908 121.184
L107.087 121.445
L108.248 121.445
L108.426 122.454
L109.765 122.454
L109.944 123.701
L120.211 123.701
L120.39 125.479
L128.693 125.479
L128.782 125.902
L128.961 127.06
L132.532 127.06
L132.71 127.981
L135.21 127.981
L135.389 129.068
L136.014 129.068
L136.192 129.21
L138.692 129.21
L138.871 130.548
L140.21 130.548
L140.388 131.039
L142.799 131.039
L142.978 131.495
L143.245 131.495
L143.424 131.712
L146.013 131.712
L146.192 132.276
L152.263 132.276
L152.441 133.295
L160.209 133.313
L160.387 133.612
L163.155 133.612
L163.333 134.307
L166.994 134.391
L167.172 134.554
L168.512 134.554
L168.69 136.114
L174.404 136.212
L174.583 136.613
L192.171 136.613
L192.26 136.831
L192.439 139.009
L195.385 139.009
L195.564 139.419
L199.492 139.419
L199.67 139.816
L202.527 139.816
L202.706 140.185
L205.92 140.185
L206.099 141.15
L213.42 141.257
L213.598 142.563
L227.436 142.563
L227.615 143.153
L227.883 143.153
L228.061 145
L232.258 145
L232.436 145.599
L241.721 145.599
L241.9 146.535
L250.203 146.581
L250.381 147.389
L252.703 147.389
L252.881 147.652
L256.631 147.652
L256.81 148.283
L267.97 148.283
L268.148 149.059
L274.13 149.163
L274.308 149.628
L278.951 149.628
L279.13 149.85
L288.415 149.85
L288.593 150.958
L291.986 150.977
L292.164 151.531
L295.736 151.531
L295.914 152.117
L316.716 152.117
L316.895 153.926
L317.431 153.926
L317.609 154.375
L324.573 154.418
L324.752 155.306
L327.519 155.306
L327.698 155.932
L348.054 155.932
L348.232 157.653
L363.142 157.653
L363.321 158.096
L367.07 158.096
L367.338 159.008
L371.267 159.008
L371.445 159.387
L377.784 159.492
L377.963 159.892
L393.229 159.965
L393.408 160.746
L395.997 160.746
L396.176 161.902
L410.728 161.902
L410.907 162.567
L421.263 162.608
L421.442 162.726
L434.388 162.726
L434.566 162.839
L438.852 162.839
L439.03 164.357
L456.886 164.357
L457.065 164.615
L460.368 164.615
L460.547 164.74
L488.402 164.74
L488.58 165.238
L492.598 165.238
L492.777 167.168
L499.473 167.168
L499.651 167.789
L503.044 167.789
L503.222 168.882
L518.311 168.934
L518.311 168.934" style="fill:none;stroke:#00bfbf;stroke-dasharray:5.000000,1.000000,2.000000,1.000000,5.000000,1.000000;stroke-dashoffset:0.0;"/>
   </g>
   <g id="line2d_5">
    <path clip-path="url(#p7ff5b81e1d)" d="
M72 59.8646
L72.0893 77.9085
L72.1786 82.5905
L72.2678 84.7888
L72.4464 91.863
L72.625 91.863
L72.9821 101.864
L73.1606 101.864
L73.3392 103.444
L73.607 103.444
L73.7856 105.786
L75.9283 105.786
L76.1069 106.632
L76.1962 106.632
L76.3747 107.319
L76.5533 107.319
L76.7318 107.697
L76.8211 107.718
L76.9997 108.088
L79.1424 108.088
L79.321 108.85
L79.9459 108.9
L80.2138 108.97
L83.3386 108.97
L83.5171 109.381
L86.9098 109.483
L87.0883 109.998
L92.2666 110.032
L92.4451 111.526
L94.0522 111.526
L94.2307 112.669
L97.0877 112.695
L97.2662 115.098
L98.5162 115.098
L98.6947 115.329
L99.8554 115.4
L100.034 115.49
L104.766 115.505
L104.944 116.183
L105.748 116.183
L105.926 117.051
L111.015 117.116
L111.194 117.463
L111.551 117.463
L111.73 118.555
L113.337 118.555
L113.515 118.865
L115.033 118.865
L115.212 119.092
L130.032 119.092
L130.3 121.534
L136.996 121.607
L137.174 121.858
L142.531 121.871
L142.71 122.687
L143.96 122.687
L144.138 124.545
L144.674 124.545
L144.852 124.661
L146.102 124.661
L146.281 125.024
L162.173 125.024
L162.351 126.593
L164.316 126.593
L164.494 128.483
L171.458 128.483
L171.636 128.689
L175.029 128.689
L175.208 129.67
L176.636 129.67
L176.815 130.177
L191.01 130.183
L191.189 131.155
L201.902 131.155
L202.081 131.358
L203.867 131.358
L204.045 133.287
L205.295 133.287
L205.474 133.58
L208.777 133.58
L208.956 134.582
L212.259 134.582
L212.437 136.435
L218.151 136.435
L218.33 136.882
L221.723 136.882
L221.901 138.429
L232.436 138.451
L232.615 139.318
L233.865 139.318
L234.043 140.852
L236.007 140.852
L236.186 141.48
L237.436 141.48
L237.614 141.625
L239.579 141.625
L239.757 142.816
L243.418 142.816
L243.596 143.604
L246.9 143.604
L247.078 145.104
L251.631 145.155
L251.81 145.893
L261.006 145.893
L261.184 148.526
L265.916 148.526
L266.095 149.112
L268.148 149.112
L268.327 149.335
L269.398 149.335
L269.577 151.136
L280.29 151.136
L280.469 152.185
L287.254 152.185
L287.433 152.786
L289.575 152.786
L289.754 153.335
L290.825 153.335
L291.004 153.711
L326.537 153.815
L326.716 154.028
L333.858 154.028
L334.037 154.402
L337.519 154.402
L337.697 157.352
L339.572 157.352
L339.751 157.797
L340.822 157.797
L341.001 159.043
L346.715 159.043
L346.893 160.498
L355.196 160.498
L355.375 160.834
L362.071 160.85
L362.249 162.315
L368.142 162.315
L368.32 164.031
L373.32 164.031
L373.499 164.295
L389.569 164.295
L389.748 164.552
L394.479 164.552
L394.658 165.224
L404.836 165.224
L405.014 165.73
L407.425 165.73
L407.604 168.507
L410.996 168.507
L411.175 169.419
L422.87 169.419
L423.049 169.988
L425.281 169.988
L425.46 170.234
L428.852 170.234
L429.031 170.826
L429.656 170.826
L429.834 171.396
L433.138 171.396
L433.316 171.741
L435.995 171.741
L436.173 172.058
L440.816 172.058
L440.994 172.95
L444.387 172.95
L444.565 173.108
L453.851 173.165
L454.029 173.419
L454.654 173.419
L454.833 174.083
L460.993 174.083
L461.172 175.502
L466.171 175.502
L466.35 176.932
L468.135 176.932
L468.314 177.193
L468.939 177.193
L469.117 179.076
L472.332 179.076
L472.51 180.401
L475.01 180.401
L475.188 180.996
L476.171 180.996
L476.349 181.634
L476.796 181.634
L476.974 183.74
L480.01 183.74
L480.188 184.428
L483.849 184.428
L484.027 185.357
L484.295 185.357
L484.474 186.516
L487.777 186.612
L487.956 187.608
L494.384 187.608
L494.562 188.07
L500.276 188.07
L500.455 188.494
L505.544 188.494
L505.722 188.838
L510.99 188.838
L511.168 189.043
L512.329 189.043
L512.508 190.108
L518.311 190.108
L518.311 190.108" style="fill:none;stroke:#bf00bf;stroke-linecap:square;"/>
   </g>
   <g id="matplotlib.axis_1">
    <g id="xtick_1">
     <g id="line2d_6">
      <defs>
       <path d="
M0 0
L0 -4" id="mc7db9fdffb" style="stroke:#000000;stroke-width:0.5;"/>
      </defs>
      <g>
       <use style="stroke:#000000;stroke-width:0.5;" x="72.0" xlink:href="#mc7db9fdffb" y="388.8"/>
      </g>
     </g>
     <g id="line2d_7">
      <defs>
       <path d="
M0 0
L0 4" id="m5a7d422ac3" style="stroke:#000000;stroke-width:0.5;"/>
      </defs>
      <g>
       <use style="stroke:#000000;stroke-width:0.5;" x="72.0" xlink:href="#m5a7d422ac3" y="43.2"/>
      </g>
     </g>
     <g id="text_1">
      <!-- 0 -->
      <defs>
       <path d="
M56.9844 36.375
Q56.9844 16.7969 50.8594 7.64062
Q44.7344 -1.51562 31.8438 -1.51562
Q18.75 -1.51562 12.7188 7.76562
Q6.6875 17.0469 6.6875 36.2812
Q6.6875 55.6719 12.7812 64.9219
Q18.8906 74.1719 31.8438 74.1719
Q44.9219 74.1719 50.9531 64.7656
Q56.9844 55.375 56.9844 36.375
M44.1406 14.2031
Q45.8438 18.1719 46.4531 23.5156
Q47.0781 28.8594 47.0781 36.375
Q47.0781 43.7969 46.4531 49.2656
Q45.8438 54.7344 44.0938 58.5469
Q42.3906 62.3125 39.4219 64.2031
Q36.4688 66.1094 31.8438 66.1094
Q27.25 66.1094 24.2344 64.2031
Q21.2344 62.3125 19.4844 58.4531
Q17.8281 54.8281 17.2188 49.0156
Q16.6094 43.2188 16.6094 36.2812
Q16.6094 28.6562 17.1406 23.5312
Q17.6719 18.4062 19.4375 14.3594
Q21.0469 10.5469 24 8.54688
Q26.9531 6.54688 31.8438 6.54688
Q36.4219 6.54688 39.4531 8.45312
Q42.4844 10.3594 44.1406 14.2031" id="Verdana-30"/>
      </defs>
      <g transform="translate(68.9821875 401.918125)scale(0.12 -0.12)">
       <use xlink:href="#Verdana-30"/>
      </g>
     </g>
    </g>
    <g id="xtick_2">
     <g id="line2d_8">
      <g>
       <use style="stroke:#000000;stroke-width:0.5;" x="161.28" xlink:href="#mc7db9fdffb" y="388.8"/>
      </g>
     </g>
     <g id="line2d_9">
      <g>
       <use style="stroke:#000000;stroke-width:0.5;" x="161.28" xlink:href="#m5a7d422ac3" y="43.2"/>
      </g>
     </g>
     <g id="text_2">
      <!-- 1000 -->
      <defs>
       <path d="
M52.9375 0
L13.5781 0
L13.5781 7.42188
L28.7188 7.42188
L28.7188 56.1562
L13.5781 56.1562
L13.5781 62.7969
Q16.6562 62.7969 20.1719 63.2969
Q23.6875 63.8125 25.4844 64.7969
Q27.7344 66.0156 29.0312 67.8906
Q30.3281 69.7812 30.5156 72.9531
L38.0938 72.9531
L38.0938 7.42188
L52.9375 7.42188
z
" id="Verdana-31"/>
      </defs>
      <g transform="translate(147.2315625 401.918125)scale(0.12 -0.12)">
       <use xlink:href="#Verdana-31"/>
       <use x="63.57421875" xlink:href="#Verdana-30"/>
       <use x="127.1484375" xlink:href="#Verdana-30"/>
       <use x="190.72265625" xlink:href="#Verdana-30"/>
      </g>
     </g>
    </g>
    <g id="xtick_3">
     <g id="line2d_10">
      <g>
       <use style="stroke:#000000;stroke-width:0.5;" x="250.56" xlink:href="#mc7db9fdffb" y="388.8"/>
      </g>
     </g>
     <g id="line2d_11">
      <g>
       <use style="stroke:#000000;stroke-width:0.5;" x="250.56" xlink:href="#m5a7d422ac3" y="43.2"/>
      </g>
     </g>
     <g id="text_3">
      <!-- 2000 -->
      <defs>
       <path d="
M57.0781 0
L7.85938 0
L7.85938 10.2031
Q12.9844 14.5938 18.1406 18.9844
Q23.2969 23.3906 27.7344 27.7344
Q37.1094 36.8125 40.5781 42.1562
Q44.0469 47.5156 44.0469 53.7188
Q44.0469 59.375 40.3125 62.5625
Q36.5781 65.7656 29.8906 65.7656
Q25.4375 65.7656 20.2656 64.2031
Q15.0938 62.6406 10.1562 59.4219
L9.67188 59.4219
L9.67188 69.6719
Q13.1406 71.3906 18.9219 72.7969
Q24.7031 74.2188 30.125 74.2188
Q41.3125 74.2188 47.6562 68.8125
Q54 63.4219 54 54.2031
Q54 50.0469 52.9531 46.4531
Q51.9062 42.875 49.8594 39.6562
Q47.9531 36.625 45.3906 33.6875
Q42.8281 30.7656 39.1562 27.2031
Q33.9375 22.0781 28.3594 17.2656
Q22.7969 12.4531 17.9688 8.34375
L57.0781 8.34375
z
" id="Verdana-32"/>
      </defs>
      <g transform="translate(236.1684375 401.918125)scale(0.12 -0.12)">
       <use xlink:href="#Verdana-32"/>
       <use x="63.57421875" xlink:href="#Verdana-30"/>
       <use x="127.1484375" xlink:href="#Verdana-30"/>
       <use x="190.72265625" xlink:href="#Verdana-30"/>
      </g>
     </g>
    </g>
    <g id="xtick_4">
     <g id="line2d_12">
      <g>
       <use style="stroke:#000000;stroke-width:0.5;" x="339.84" xlink:href="#mc7db9fdffb" y="388.8"/>
      </g>
     </g>
     <g id="line2d_13">
      <g>
       <use style="stroke:#000000;stroke-width:0.5;" x="339.84" xlink:href="#m5a7d422ac3" y="43.2"/>
      </g>
     </g>
     <g id="text_4">
      <!-- 3000 -->
      <defs>
       <path d="
M50.6875 35.0156
Q53.0312 32.9062 54.5469 29.7344
Q56.0625 26.5625 56.0625 21.5312
Q56.0625 16.5469 54.25 12.3906
Q52.4375 8.25 49.1719 5.17188
Q45.5156 1.76562 40.5469 0.125
Q35.5938 -1.51562 29.6875 -1.51562
Q23.6406 -1.51562 17.7812 -0.0625
Q11.9219 1.375 8.15625 3.07812
L8.15625 13.2812
L8.89062 13.2812
Q13.0312 10.5469 18.6406 8.73438
Q24.2656 6.9375 29.5 6.9375
Q32.5625 6.9375 36.0312 7.95312
Q39.5 8.98438 41.6562 10.9844
Q43.8906 13.1406 44.9844 15.7188
Q46.0938 18.3125 46.0938 22.2656
Q46.0938 26.1719 44.8438 28.7344
Q43.6094 31.2969 41.4062 32.7656
Q39.2031 34.2812 36.0781 34.8438
Q32.9531 35.4062 29.3438 35.4062
L24.9531 35.4062
L24.9531 43.5
L28.375 43.5
Q35.7969 43.5 40.2031 46.5938
Q44.625 49.7031 44.625 55.6719
Q44.625 58.2969 43.5 60.2656
Q42.3906 62.25 40.375 63.5312
Q38.2812 64.7969 35.8906 65.2812
Q33.5 65.7656 30.4688 65.7656
Q25.8281 65.7656 20.5938 64.1094
Q15.375 62.4531 10.75 59.4219
L10.25 59.4219
L10.25 69.625
Q13.7188 71.3438 19.5 72.7812
Q25.2969 74.2188 30.7188 74.2188
Q36.0312 74.2188 40.0781 73.2344
Q44.1406 72.2656 47.4062 70.125
Q50.9219 67.7812 52.7344 64.4531
Q54.5469 61.1406 54.5469 56.6875
Q54.5469 50.6406 50.2656 46.125
Q46 41.6094 40.1875 40.4375
L40.1875 39.75
Q42.5312 39.3594 45.5469 38.1094
Q48.5781 36.8594 50.6875 35.0156" id="Verdana-33"/>
      </defs>
      <g transform="translate(325.46625 401.918125)scale(0.12 -0.12)">
       <use xlink:href="#Verdana-33"/>
       <use x="63.57421875" xlink:href="#Verdana-30"/>
       <use x="127.1484375" xlink:href="#Verdana-30"/>
       <use x="190.72265625" xlink:href="#Verdana-30"/>
      </g>
     </g>
    </g>
    <g id="xtick_5">
     <g id="line2d_14">
      <g>
       <use style="stroke:#000000;stroke-width:0.5;" x="429.12" xlink:href="#mc7db9fdffb" y="388.8"/>
      </g>
     </g>
     <g id="line2d_15">
      <g>
       <use style="stroke:#000000;stroke-width:0.5;" x="429.12" xlink:href="#m5a7d422ac3" y="43.2"/>
      </g>
     </g>
     <g id="text_5">
      <!-- 4000 -->
      <defs>
       <path d="
M58.7344 20.4531
L47.9531 20.4531
L47.9531 0
L38.5781 0
L38.5781 20.4531
L3.76562 20.4531
L3.76562 31.6875
L38.9688 72.7031
L47.9531 72.7031
L47.9531 28.2656
L58.7344 28.2656
z

M38.5781 28.2656
L38.5781 61.0781
L10.4062 28.2656
z
" id="Verdana-34"/>
      </defs>
      <g transform="translate(414.4828125 401.918125)scale(0.12 -0.12)">
       <use xlink:href="#Verdana-34"/>
       <use x="63.57421875" xlink:href="#Verdana-30"/>
       <use x="127.1484375" xlink:href="#Verdana-30"/>
       <use x="190.72265625" xlink:href="#Verdana-30"/>
      </g>
     </g>
    </g>
    <g id="xtick_6">
     <g id="line2d_16">
      <g>
       <use style="stroke:#000000;stroke-width:0.5;" x="518.4" xlink:href="#mc7db9fdffb" y="388.8"/>
      </g>
     </g>
     <g id="line2d_17">
      <g>
       <use style="stroke:#000000;stroke-width:0.5;" x="518.4" xlink:href="#m5a7d422ac3" y="43.2"/>
      </g>
     </g>
     <g id="text_6">
      <!-- 5000 -->
      <defs>
       <path d="
M56.5 23.0938
Q56.5 18.0156 54.6406 13.375
Q52.7812 8.73438 49.5625 5.5625
Q46.0469 2.15625 41.1875 0.3125
Q36.3281 -1.51562 29.9375 -1.51562
Q23.9688 -1.51562 18.4531 -0.265625
Q12.9375 0.984375 9.125 2.73438
L9.125 13.0312
L9.8125 13.0312
Q13.8125 10.5 19.1875 8.71875
Q24.5625 6.9375 29.7344 6.9375
Q33.2031 6.9375 36.4531 7.90625
Q39.7031 8.89062 42.2344 11.3281
Q44.3906 13.4219 45.4844 16.3438
Q46.5781 19.2812 46.5781 23.1406
Q46.5781 26.9062 45.2812 29.4844
Q44 32.0781 41.7031 33.6406
Q39.1562 35.5 35.5156 36.25
Q31.8906 37.0156 27.3906 37.0156
Q23.0938 37.0156 19.1094 36.4219
Q15.1406 35.8438 12.25 35.25
L12.25 72.7031
L56 72.7031
L56 64.1562
L21.6875 64.1562
L21.6875 44.8281
Q23.7812 45.0156 25.9688 45.1094
Q28.1719 45.2188 29.7812 45.2188
Q35.6875 45.2188 40.125 44.2188
Q44.5781 43.2188 48.2969 40.6719
Q52.2031 37.9844 54.3438 33.7344
Q56.5 29.5 56.5 23.0938" id="Verdana-35"/>
      </defs>
      <g transform="translate(504.084375 401.918125)scale(0.12 -0.12)">
       <use xlink:href="#Verdana-35"/>
       <use x="63.57421875" xlink:href="#Verdana-30"/>
       <use x="127.1484375" xlink:href="#Verdana-30"/>
       <use x="190.72265625" xlink:href="#Verdana-30"/>
      </g>
     </g>
    </g>
    <g id="text_7">
     <!-- Objective function exectuions -->
     <defs>
      <path d="
M57.0312 27.6875
Q57.0312 20.8438 55.0938 15.375
Q53.1719 9.90625 49.9062 6.20312
Q46.4375 2.34375 42.2812 0.40625
Q38.1406 -1.51562 33.1562 -1.51562
Q28.5156 -1.51562 25.0469 -0.40625
Q21.5781 0.6875 18.2188 2.54688
L17.625 0
L9.03125 0
L9.03125 75.9844
L18.2188 75.9844
L18.2188 48.8281
Q22.0781 52 26.4219 54.0312
Q30.7656 56.0625 36.1875 56.0625
Q45.8438 56.0625 51.4375 48.6406
Q57.0312 41.2188 57.0312 27.6875
M47.5625 27.4375
Q47.5625 37.2031 44.3281 42.25
Q41.1094 47.3125 33.9375 47.3125
Q29.9375 47.3125 25.8281 45.5781
Q21.7344 43.8438 18.2188 41.1094
L18.2188 9.85938
Q22.125 8.10938 24.9219 7.42188
Q27.7344 6.73438 31.2969 6.73438
Q38.9219 6.73438 43.2344 11.7344
Q47.5625 16.75 47.5625 27.4375" id="Verdana-62"/>
      <path d="
M56.2031 54.5469
L34.125 0
L24.9062 0
L2.98438 54.5469
L12.9375 54.5469
L29.8281 11.1406
L46.5781 54.5469
z
" id="Verdana-76"/>
      <path d="
M56.25 0
L44.6719 0
L29.2031 20.9531
L13.625 0
L2.9375 0
L24.2188 27.2031
L3.125 54.5469
L14.7031 54.5469
L30.0781 33.9375
L45.5156 54.5469
L56.25 54.5469
L34.8125 27.6875
z
" id="Verdana-78"/>
      <path d="
M54.6875 26.3125
L14.5 26.3125
Q14.5 21.2969 16.0156 17.5469
Q17.5312 13.8125 20.1719 11.4219
Q22.7031 9.07812 26.1875 7.90625
Q29.6875 6.73438 33.8906 6.73438
Q39.4531 6.73438 45.0938 8.95312
Q50.7344 11.1875 53.125 13.3281
L53.6094 13.3281
L53.6094 3.32812
Q48.9688 1.375 44.1406 0.046875
Q39.3125 -1.26562 33.9844 -1.26562
Q20.4062 -1.26562 12.7812 6.07812
Q5.17188 13.4219 5.17188 26.9531
Q5.17188 40.3281 12.4688 48.1875
Q19.7812 56.0625 31.6875 56.0625
Q42.7188 56.0625 48.7031 49.6094
Q54.6875 43.1719 54.6875 31.2969
z

M45.75 33.3438
Q45.7031 40.5781 42.1094 44.5312
Q38.5312 48.4844 31.2031 48.4844
Q23.8281 48.4844 19.4531 44.1406
Q15.0938 39.7969 14.5 33.3438
z
" id="Verdana-65"/>
      <path d="
M49.3594 3.42188
Q44.7812 1.21875 40.6562 0
Q36.5312 -1.21875 31.8906 -1.21875
Q25.9844 -1.21875 21.0469 0.515625
Q16.1094 2.25 12.5938 5.76562
Q9.03125 9.28125 7.07812 14.6406
Q5.125 20.0156 5.125 27.2031
Q5.125 40.5781 12.4688 48.1875
Q19.8281 55.8125 31.8906 55.8125
Q36.5781 55.8125 41.0938 54.4844
Q45.6094 53.1719 49.3594 51.2656
L49.3594 41.0625
L48.875 41.0625
Q44.6719 44.3438 40.2031 46.0938
Q35.75 47.8594 31.5 47.8594
Q23.6875 47.8594 19.1719 42.6094
Q14.6562 37.3594 14.6562 27.2031
Q14.6562 17.3281 19.0625 12.0312
Q23.4844 6.73438 31.5 6.73438
Q34.2812 6.73438 37.1562 7.46875
Q40.0469 8.20312 42.3281 9.375
Q44.3438 10.4062 46.0938 11.5469
Q47.8594 12.7031 48.875 13.5312
L49.3594 13.5312
z
" id="Verdana-63"/>
      <path d="
M26.0312 63.6719
L15.6719 63.6719
L15.6719 73.1875
L26.0312 73.1875
z

M25.4375 -1.3125
Q25.4375 -10.8906 20.5469 -15.7656
Q15.6719 -20.6562 7.46875 -20.6562
Q5.51562 -20.6562 2.3125 -20.2656
Q-0.875 -19.875 -3.03125 -19.2812
L-3.03125 -10.5469
L-2.54688 -10.5469
Q-1.17188 -11.0781 1.14062 -11.7656
Q3.46875 -12.4531 5.67188 -12.4531
Q9.1875 -12.4531 11.3281 -11.4688
Q13.4844 -10.5 14.5469 -8.54688
Q15.625 -6.59375 15.9375 -3.82812
Q16.2656 -1.07812 16.2656 2.875
L16.2656 46.8281
L4.89062 46.8281
L4.89062 54.5469
L25.4375 54.5469
z
" id="Verdana-6a"/>
      <path d="
M18.8906 63.6719
L8.54688 63.6719
L8.54688 73.1875
L18.8906 73.1875
z

M18.3125 0
L9.125 0
L9.125 54.5469
L18.3125 54.5469
z
" id="Verdana-69"/>
      <path d="
M54.6406 0
L45.4531 0
L45.4531 31.0625
Q45.4531 34.8125 45.0156 38.1094
Q44.5781 41.4062 43.4062 43.2656
Q42.1875 45.3125 39.8906 46.3125
Q37.5938 47.3125 33.9375 47.3125
Q30.1719 47.3125 26.0625 45.4531
Q21.9688 43.6094 18.2188 40.7188
L18.2188 0
L9.03125 0
L9.03125 54.5469
L18.2188 54.5469
L18.2188 48.4844
Q22.5156 52.0469 27.0938 54.0469
Q31.6875 56.0625 36.5312 56.0625
Q45.3594 56.0625 50 50.7344
Q54.6406 45.4062 54.6406 35.4062
z
" id="Verdana-6e"/>
      <path d="
M48 15.7188
Q48 8.25 41.8125 3.46875
Q35.6406 -1.3125 24.9531 -1.3125
Q18.8906 -1.3125 13.8438 0.125
Q8.79688 1.5625 5.375 3.26562
L5.375 13.5781
L5.85938 13.5781
Q10.2031 10.2969 15.5156 8.375
Q20.8438 6.45312 25.7344 6.45312
Q31.7812 6.45312 35.2031 8.40625
Q38.625 10.3594 38.625 14.5469
Q38.625 17.7812 36.7656 19.4375
Q34.9062 21.0938 29.6406 22.2656
Q27.6875 22.7031 24.5312 23.2812
Q21.3906 23.875 18.7969 24.5625
Q11.625 26.4688 8.60938 30.1562
Q5.60938 33.8438 5.60938 39.2031
Q5.60938 42.5781 7 45.5469
Q8.40625 48.5312 11.2344 50.875
Q13.9688 53.1719 18.1875 54.5156
Q22.4062 55.8594 27.6406 55.8594
Q32.5156 55.8594 37.5156 54.6562
Q42.5312 53.4688 45.8438 51.7656
L45.8438 41.9375
L45.3594 41.9375
Q41.8438 44.5312 36.8125 46.3125
Q31.7812 48.0938 26.9531 48.0938
Q21.9219 48.0938 18.4531 46.1562
Q14.9844 44.2344 14.9844 40.4375
Q14.9844 37.0625 17.0938 35.3594
Q19.1406 33.6406 23.7344 32.5625
Q26.2656 31.9844 29.4062 31.3906
Q32.5625 30.8125 34.6719 30.3281
Q41.0625 28.8594 44.5312 25.2969
Q48 21.6875 48 15.7188" id="Verdana-73"/>
      <path d="
M38.375 67.0938
L37.8906 67.0938
Q36.375 67.5312 33.9375 67.9844
Q31.5 68.4531 29.6406 68.4531
Q23.7344 68.4531 21.0625 65.8438
Q18.4062 63.2344 18.4062 56.3906
L18.4062 54.5469
L34.9688 54.5469
L34.9688 46.8281
L18.7031 46.8281
L18.7031 0
L9.51562 0
L9.51562 46.8281
L3.32812 46.8281
L3.32812 54.5469
L9.51562 54.5469
L9.51562 56.3438
Q9.51562 66.0625 14.3438 71.2656
Q19.1875 76.4688 28.3281 76.4688
Q31.3906 76.4688 33.8594 76.1719
Q36.3281 75.875 38.375 75.4844
z
" id="Verdana-66"/>
      <path id="Verdana-20"/>
      <path d="
M63.9688 64.3594
Q68.4062 59.4688 70.7656 52.3906
Q73.1406 45.3125 73.1406 36.3281
Q73.1406 27.3438 70.7188 20.2344
Q68.3125 13.1406 63.9688 8.40625
Q59.4688 3.46875 53.3438 0.96875
Q47.2188 -1.51562 39.3594 -1.51562
Q31.6875 -1.51562 25.4062 1.01562
Q19.1406 3.5625 14.75 8.40625
Q10.3594 13.2344 7.98438 20.2656
Q5.60938 27.2969 5.60938 36.3281
Q5.60938 45.2188 7.95312 52.2656
Q10.2969 59.3281 14.7969 64.3594
Q19.0938 69.1406 25.4688 71.6719
Q31.8438 74.2188 39.3594 74.2188
Q47.1719 74.2188 53.3906 71.6562
Q59.625 69.0938 63.9688 64.3594
M63.0938 36.3281
Q63.0938 50.4844 56.7344 58.1719
Q50.3906 65.875 39.4062 65.875
Q28.3281 65.875 22 58.1719
Q15.6719 50.4844 15.6719 36.3281
Q15.6719 22.0156 22.1094 14.4219
Q28.5625 6.84375 39.4062 6.84375
Q50.25 6.84375 56.6719 14.4219
Q63.0938 22.0156 63.0938 36.3281" id="Verdana-4f"/>
      <path d="
M55.5156 27.25
Q55.5156 13.9219 48.6719 6.20312
Q41.8438 -1.51562 30.375 -1.51562
Q18.7969 -1.51562 11.9844 6.20312
Q5.17188 13.9219 5.17188 27.25
Q5.17188 40.5781 11.9844 48.3125
Q18.7969 56.0625 30.375 56.0625
Q41.8438 56.0625 48.6719 48.3125
Q55.5156 40.5781 55.5156 27.25
M46.0469 27.25
Q46.0469 37.8438 41.8906 42.9844
Q37.75 48.1406 30.375 48.1406
Q22.9062 48.1406 18.7812 42.9844
Q14.6562 37.8438 14.6562 27.25
Q14.6562 17 18.7969 11.6875
Q22.9531 6.39062 30.375 6.39062
Q37.7031 6.39062 41.875 11.6406
Q46.0469 16.8906 46.0469 27.25" id="Verdana-6f"/>
      <path d="
M37.3594 0.484375
Q34.7656 -0.203125 31.7031 -0.640625
Q28.6562 -1.07812 26.2656 -1.07812
Q17.9219 -1.07812 13.5781 3.40625
Q9.23438 7.90625 9.23438 17.8281
L9.23438 46.8281
L3.03125 46.8281
L3.03125 54.5469
L9.23438 54.5469
L9.23438 70.2188
L18.4062 70.2188
L18.4062 54.5469
L37.3594 54.5469
L37.3594 46.8281
L18.4062 46.8281
L18.4062 21.9688
Q18.4062 17.6719 18.5938 15.25
Q18.7969 12.8438 19.9688 10.75
Q21.0469 8.79688 22.9219 7.89062
Q24.8125 6.98438 28.6562 6.98438
Q30.9062 6.98438 33.3438 7.64062
Q35.7969 8.29688 36.8594 8.73438
L37.3594 8.73438
z
" id="Verdana-74"/>
      <path d="
M54.25 0
L45.0625 0
L45.0625 6.0625
Q40.4375 2.39062 36.1875 0.4375
Q31.9375 -1.51562 26.8125 -1.51562
Q18.2188 -1.51562 13.4219 3.73438
Q8.64062 8.98438 8.64062 19.1406
L8.64062 54.5469
L17.8281 54.5469
L17.8281 23.4844
Q17.8281 19.3438 18.2188 16.375
Q18.6094 13.4219 19.875 11.3281
Q21.1875 9.1875 23.2812 8.20312
Q25.3906 7.23438 29.3906 7.23438
Q32.9531 7.23438 37.1719 9.07812
Q41.4062 10.9375 45.0625 13.8125
L45.0625 54.5469
L54.25 54.5469
z
" id="Verdana-75"/>
     </defs>
     <g transform="translate(206.5078125 418.509375)scale(0.12 -0.12)">
      <use xlink:href="#Verdana-4f"/>
      <use x="78.7109375" xlink:href="#Verdana-62"/>
      <use x="141.015625" xlink:href="#Verdana-6a"/>
      <use x="175.439453125" xlink:href="#Verdana-65"/>
      <use x="235.009765625" xlink:href="#Verdana-63"/>
      <use x="287.109375" xlink:href="#Verdana-74"/>
      <use x="326.513671875" xlink:href="#Verdana-69"/>
      <use x="353.955078125" xlink:href="#Verdana-76"/>
      <use x="412.259765625" xlink:href="#Verdana-65"/>
      <use x="471.830078125" xlink:href="#Verdana-20"/>
      <use x="506.986328125" xlink:href="#Verdana-66"/>
      <use x="542.142578125" xlink:href="#Verdana-75"/>
      <use x="605.423828125" xlink:href="#Verdana-6e"/>
      <use x="668.705078125" xlink:href="#Verdana-63"/>
      <use x="720.8046875" xlink:href="#Verdana-74"/>
      <use x="760.208984375" xlink:href="#Verdana-69"/>
      <use x="787.650390625" xlink:href="#Verdana-6f"/>
      <use x="848.34375" xlink:href="#Verdana-6e"/>
      <use x="911.625" xlink:href="#Verdana-20"/>
      <use x="946.78125" xlink:href="#Verdana-65"/>
      <use x="1006.3515625" xlink:href="#Verdana-78"/>
      <use x="1064.40625" xlink:href="#Verdana-65"/>
      <use x="1123.9765625" xlink:href="#Verdana-63"/>
      <use x="1176.076171875" xlink:href="#Verdana-74"/>
      <use x="1215.48046875" xlink:href="#Verdana-75"/>
      <use x="1278.76171875" xlink:href="#Verdana-69"/>
      <use x="1306.203125" xlink:href="#Verdana-6f"/>
      <use x="1366.896484375" xlink:href="#Verdana-6e"/>
      <use x="1430.177734375" xlink:href="#Verdana-73"/>
     </g>
    </g>
   </g>
   <g id="matplotlib.axis_2">
    <g id="ytick_1">
     <g id="line2d_18">
      <defs>
       <path d="
M0 0
L4 0" id="md7965d1ba0" style="stroke:#000000;stroke-width:0.5;"/>
      </defs>
      <g>
       <use style="stroke:#000000;stroke-width:0.5;" x="72.0" xlink:href="#md7965d1ba0" y="388.8"/>
      </g>
     </g>
     <g id="line2d_19">
      <defs>
       <path d="
M0 0
L-4 0" id="md9a1c1a7cd" style="stroke:#000000;stroke-width:0.5;"/>
      </defs>
      <g>
       <use style="stroke:#000000;stroke-width:0.5;" x="518.4" xlink:href="#md9a1c1a7cd" y="388.8"/>
      </g>
     </g>
     <g id="text_8">
      <!-- −90 -->
      <defs>
       <path d="
M56.9844 40.7188
Q56.9844 31.2031 54.8125 23.4375
Q52.6406 15.6719 48.25 10.2031
Q43.7969 4.64062 37.1094 1.60938
Q30.4219 -1.42188 21.3906 -1.42188
Q18.8438 -1.42188 16.5938 -1.14062
Q14.3594 -0.875 12.5938 -0.296875
L12.5938 9.03125
L13.0938 9.03125
Q14.5 8.29688 17.0781 7.64062
Q19.6719 6.98438 22.8594 6.98438
Q33.6406 6.98438 39.7656 13.4531
Q45.9062 19.9219 46.875 31.2969
Q42.3281 28.5625 38.3281 27.3906
Q34.3281 26.2188 29.5938 26.2188
Q25.0938 26.2188 21.4531 27.0938
Q17.8281 27.9844 14.1562 30.5156
Q9.85938 33.5 7.6875 38.0781
Q5.51562 42.6719 5.51562 49.0781
Q5.51562 60.2031 12.8438 67.1875
Q20.1719 74.1719 30.7188 74.1719
Q35.9844 74.1719 40.4688 72.5312
Q44.9688 70.9062 48.3438 67.625
Q52.4844 63.5781 54.7344 57.2031
Q56.9844 50.8281 56.9844 40.7188
M47.125 42.8281
Q47.125 50.3906 45.5625 54.9844
Q44 59.5781 41.2656 62.1094
Q38.9688 64.3125 36.3281 65.2656
Q33.6875 66.2188 30.6094 66.2188
Q23.5781 66.2188 19.5 61.8125
Q15.4375 57.4219 15.4375 49.4688
Q15.4375 44.8281 16.75 41.8906
Q18.0625 38.9688 21.1875 36.7656
Q23.3906 35.25 26.0156 34.7344
Q28.6562 34.2344 31.8906 34.2344
Q35.6875 34.2344 39.5938 35.25
Q43.5 36.2812 46.9219 38.2344
Q46.9688 39.2656 47.0469 40.2656
Q47.125 41.2656 47.125 42.8281" id="Verdana-39"/>
       <path d="
M71.0938 27.9375
L10.75 27.9375
L10.75 35.75
L71.0938 35.75
z
" id="Verdana-2212"/>
      </defs>
      <g transform="translate(45.00125 392.1515625)scale(0.12 -0.12)">
       <use xlink:href="#Verdana-2212"/>
       <use x="81.8359375" xlink:href="#Verdana-39"/>
       <use x="145.41015625" xlink:href="#Verdana-30"/>
      </g>
     </g>
    </g>
    <g id="ytick_2">
     <g id="line2d_20">
      <g>
       <use style="stroke:#000000;stroke-width:0.5;" x="72.0" xlink:href="#md7965d1ba0" y="345.6"/>
      </g>
     </g>
     <g id="line2d_21">
      <g>
       <use style="stroke:#000000;stroke-width:0.5;" x="518.4" xlink:href="#md9a1c1a7cd" y="345.6"/>
      </g>
     </g>
     <g id="text_9">
      <!-- −80 -->
      <defs>
       <path d="
M57.625 20.2656
Q57.625 10.8438 50.2656 4.59375
Q42.9219 -1.65625 31.7812 -1.65625
Q19.9688 -1.65625 12.9531 4.4375
Q5.95312 10.5469 5.95312 20.0625
Q5.95312 26.125 9.46875 31.0312
Q12.9844 35.9375 19.3906 38.8125
L19.3906 39.1094
Q13.5312 42.2344 10.7188 45.9375
Q7.90625 49.6562 7.90625 55.2188
Q7.90625 63.4219 14.6406 68.8906
Q21.3906 74.3594 31.7812 74.3594
Q42.6719 74.3594 49.1719 69.1406
Q55.6719 63.9219 55.6719 55.8594
Q55.6719 50.9219 52.5938 46.1562
Q49.5156 41.4062 43.5625 38.7188
L43.5625 38.4219
Q50.3906 35.5 54 31.2031
Q57.625 26.9062 57.625 20.2656
M46.0469 55.7656
Q46.0469 60.9844 42.0156 64.0781
Q37.9844 67.1875 31.7344 67.1875
Q25.5938 67.1875 21.6562 64.25
Q17.7188 61.3281 17.7188 56.3438
Q17.7188 52.8281 19.7031 50.2656
Q21.6875 47.7031 25.6875 45.7031
Q27.4844 44.8281 30.875 43.4062
Q34.2812 42 37.5 41.0625
Q42.3281 44.2812 44.1875 47.75
Q46.0469 51.2188 46.0469 55.7656
M47.5625 19.3438
Q47.5625 23.8281 45.5781 26.5312
Q43.6094 29.25 37.8438 31.9844
Q35.5469 33.0625 32.8125 33.9844
Q30.0781 34.9062 25.5312 36.5781
Q21.1406 34.1875 18.4844 30.0781
Q15.8281 25.9844 15.8281 20.7969
Q15.8281 14.2031 20.3594 9.90625
Q24.9062 5.60938 31.8906 5.60938
Q39.0156 5.60938 43.2812 9.26562
Q47.5625 12.9375 47.5625 19.3438" id="Verdana-38"/>
      </defs>
      <g transform="translate(45.00125 348.9515625)scale(0.12 -0.12)">
       <use xlink:href="#Verdana-2212"/>
       <use x="81.8359375" xlink:href="#Verdana-38"/>
       <use x="145.41015625" xlink:href="#Verdana-30"/>
      </g>
     </g>
    </g>
    <g id="ytick_3">
     <g id="line2d_22">
      <g>
       <use style="stroke:#000000;stroke-width:0.5;" x="72.0" xlink:href="#md7965d1ba0" y="302.4"/>
      </g>
     </g>
     <g id="line2d_23">
      <g>
       <use style="stroke:#000000;stroke-width:0.5;" x="518.4" xlink:href="#md9a1c1a7cd" y="302.4"/>
      </g>
     </g>
     <g id="text_10">
      <!-- −70 -->
      <defs>
       <path d="
M57.2812 61.8125
L24.3594 0
L13.9219 0
L48.9219 64.1562
L7.51562 64.1562
L7.51562 72.7031
L57.2812 72.7031
z
" id="Verdana-37"/>
      </defs>
      <g transform="translate(45.00125 305.7515625)scale(0.12 -0.12)">
       <use xlink:href="#Verdana-2212"/>
       <use x="81.8359375" xlink:href="#Verdana-37"/>
       <use x="145.41015625" xlink:href="#Verdana-30"/>
      </g>
     </g>
    </g>
    <g id="ytick_4">
     <g id="line2d_24">
      <g>
       <use style="stroke:#000000;stroke-width:0.5;" x="72.0" xlink:href="#md7965d1ba0" y="259.2"/>
      </g>
     </g>
     <g id="line2d_25">
      <g>
       <use style="stroke:#000000;stroke-width:0.5;" x="518.4" xlink:href="#md9a1c1a7cd" y="259.2"/>
      </g>
     </g>
     <g id="text_11">
      <!-- −60 -->
      <defs>
       <path d="
M58.1562 23.5781
Q58.1562 12.5 50.8594 5.48438
Q43.5625 -1.51562 32.9531 -1.51562
Q27.5938 -1.51562 23.1875 0.140625
Q18.7969 1.8125 15.4375 5.07812
Q11.2344 9.125 8.95312 15.8125
Q6.6875 22.5156 6.6875 31.9375
Q6.6875 41.6094 8.76562 49.0781
Q10.8438 56.5469 15.375 62.3594
Q19.6719 67.875 26.4531 70.9688
Q33.25 74.0781 42.2812 74.0781
Q45.1719 74.0781 47.125 73.8281
Q49.0781 73.5781 51.0781 72.9531
L51.0781 63.625
L50.5938 63.625
Q49.2188 64.3594 46.4531 65.0156
Q43.7031 65.6719 40.8281 65.6719
Q30.3281 65.6719 24.0781 59.1094
Q17.8281 52.5469 16.7969 41.3594
Q20.9062 43.8438 24.875 45.1406
Q28.8594 46.4375 34.0781 46.4375
Q38.7188 46.4375 42.25 45.5781
Q45.7969 44.7344 49.5156 42.1406
Q53.8125 39.1562 55.9844 34.6094
Q58.1562 30.0781 58.1562 23.5781
M48.25 23.1875
Q48.25 27.7344 46.9062 30.7031
Q45.5625 33.6875 42.4844 35.8906
Q40.2344 37.4531 37.5 37.9375
Q34.7656 38.4219 31.7812 38.4219
Q27.6406 38.4219 24.0781 37.4375
Q20.5156 36.4688 16.75 34.4219
Q16.6562 33.3438 16.5938 32.3438
Q16.5469 31.3438 16.5469 29.8281
Q16.5469 22.125 18.1406 17.6562
Q19.7344 13.1875 22.5156 10.5938
Q24.75 8.45312 27.3594 7.45312
Q29.9844 6.45312 33.0625 6.45312
Q40.1406 6.45312 44.1875 10.7656
Q48.25 15.0938 48.25 23.1875" id="Verdana-36"/>
      </defs>
      <g transform="translate(45.00125 262.5515625)scale(0.12 -0.12)">
       <use xlink:href="#Verdana-2212"/>
       <use x="81.8359375" xlink:href="#Verdana-36"/>
       <use x="145.41015625" xlink:href="#Verdana-30"/>
      </g>
     </g>
    </g>
    <g id="ytick_5">
     <g id="line2d_26">
      <g>
       <use style="stroke:#000000;stroke-width:0.5;" x="72.0" xlink:href="#md7965d1ba0" y="216.0"/>
      </g>
     </g>
     <g id="line2d_27">
      <g>
       <use style="stroke:#000000;stroke-width:0.5;" x="518.4" xlink:href="#md9a1c1a7cd" y="216.0"/>
      </g>
     </g>
     <g id="text_12">
      <!-- −50 -->
      <g transform="translate(45.00125 219.3515625)scale(0.12 -0.12)">
       <use xlink:href="#Verdana-2212"/>
       <use x="81.8359375" xlink:href="#Verdana-35"/>
       <use x="145.41015625" xlink:href="#Verdana-30"/>
      </g>
     </g>
    </g>
    <g id="ytick_6">
     <g id="line2d_28">
      <g>
       <use style="stroke:#000000;stroke-width:0.5;" x="72.0" xlink:href="#md7965d1ba0" y="172.8"/>
      </g>
     </g>
     <g id="line2d_29">
      <g>
       <use style="stroke:#000000;stroke-width:0.5;" x="518.4" xlink:href="#md9a1c1a7cd" y="172.8"/>
      </g>
     </g>
     <g id="text_13">
      <!-- −40 -->
      <g transform="translate(45.00125 176.1515625)scale(0.12 -0.12)">
       <use xlink:href="#Verdana-2212"/>
       <use x="81.8359375" xlink:href="#Verdana-34"/>
       <use x="145.41015625" xlink:href="#Verdana-30"/>
      </g>
     </g>
    </g>
    <g id="ytick_7">
     <g id="line2d_30">
      <g>
       <use style="stroke:#000000;stroke-width:0.5;" x="72.0" xlink:href="#md7965d1ba0" y="129.6"/>
      </g>
     </g>
     <g id="line2d_31">
      <g>
       <use style="stroke:#000000;stroke-width:0.5;" x="518.4" xlink:href="#md9a1c1a7cd" y="129.6"/>
      </g>
     </g>
     <g id="text_14">
      <!-- −30 -->
      <g transform="translate(45.00125 132.9515625)scale(0.12 -0.12)">
       <use xlink:href="#Verdana-2212"/>
       <use x="81.8359375" xlink:href="#Verdana-33"/>
       <use x="145.41015625" xlink:href="#Verdana-30"/>
      </g>
     </g>
    </g>
    <g id="ytick_8">
     <g id="line2d_32">
      <g>
       <use style="stroke:#000000;stroke-width:0.5;" x="72.0" xlink:href="#md7965d1ba0" y="86.4"/>
      </g>
     </g>
     <g id="line2d_33">
      <g>
       <use style="stroke:#000000;stroke-width:0.5;" x="518.4" xlink:href="#md9a1c1a7cd" y="86.4"/>
      </g>
     </g>
     <g id="text_15">
      <!-- −20 -->
      <g transform="translate(45.00125 89.7515625)scale(0.12 -0.12)">
       <use xlink:href="#Verdana-2212"/>
       <use x="81.8359375" xlink:href="#Verdana-32"/>
       <use x="145.41015625" xlink:href="#Verdana-30"/>
      </g>
     </g>
    </g>
    <g id="ytick_9">
     <g id="line2d_34">
      <g>
       <use style="stroke:#000000;stroke-width:0.5;" x="72.0" xlink:href="#md7965d1ba0" y="43.2"/>
      </g>
     </g>
     <g id="line2d_35">
      <g>
       <use style="stroke:#000000;stroke-width:0.5;" x="518.4" xlink:href="#md9a1c1a7cd" y="43.2"/>
      </g>
     </g>
     <g id="text_16">
      <!-- −10 -->
      <g transform="translate(45.00125 46.5515625)scale(0.12 -0.12)">
       <use xlink:href="#Verdana-2212"/>
       <use x="81.8359375" xlink:href="#Verdana-31"/>
       <use x="145.41015625" xlink:href="#Verdana-30"/>
      </g>
     </g>
    </g>
    <g id="text_17">
     <!-- Absolute Max -->
     <defs>
      <path d="
M18.3125 0
L9.125 0
L9.125 75.9844
L18.3125 75.9844
z
" id="Verdana-6c"/>
      <path d="
M74.5156 0
L64.8438 0
L64.8438 62.6406
L44.625 20.0156
L38.875 20.0156
L18.7969 62.6406
L18.7969 0
L9.76562 0
L9.76562 72.7031
L22.9531 72.7031
L42.3281 32.2344
L61.0781 72.7031
L74.5156 72.7031
z
" id="Verdana-4d"/>
      <path d="
M51.4219 0
L42.2812 0
L42.2812 5.8125
Q41.0625 4.98438 38.9844 3.48438
Q36.9219 2 34.9688 1.125
Q32.6719 0 29.6875 -0.75
Q26.7031 -1.51562 22.7031 -1.51562
Q15.3281 -1.51562 10.2031 3.35938
Q5.07812 8.25 5.07812 15.8281
Q5.07812 22.0156 7.73438 25.8438
Q10.4062 29.6875 15.3281 31.8906
Q20.3125 34.0781 27.2969 34.8594
Q34.2812 35.6406 42.2812 36.0312
L42.2812 37.4531
Q42.2812 40.5781 41.1875 42.625
Q40.0938 44.6719 38.0312 45.8438
Q36.0781 46.9688 33.3438 47.3594
Q30.6094 47.75 27.6406 47.75
Q24.0312 47.75 19.5781 46.7969
Q15.1406 45.8438 10.4062 44.0469
L9.90625 44.0469
L9.90625 53.375
Q12.5938 54.1094 17.6719 54.9844
Q22.75 55.8594 27.6875 55.8594
Q33.4531 55.8594 37.7188 54.9062
Q42 53.9531 45.125 51.6562
Q48.1875 49.4219 49.7969 45.8438
Q51.4219 42.2812 51.4219 37.0156
z

M42.2812 13.4219
L42.2812 28.6094
Q38.0938 28.375 32.3906 27.875
Q26.7031 27.3906 23.3906 26.4688
Q19.4375 25.3438 16.9844 22.9688
Q14.5469 20.6094 14.5469 16.4531
Q14.5469 11.7656 17.375 9.39062
Q20.2188 7.03125 26.0312 7.03125
Q30.8594 7.03125 34.8594 8.90625
Q38.875 10.7969 42.2812 13.4219" id="Verdana-61"/>
      <path d="
M67.0938 0
L56.7812 0
L49.6562 20.2656
L18.2188 20.2656
L11.0781 0
L1.26562 0
L27.7344 72.7031
L40.625 72.7031
z

M46.6875 28.5625
L33.9375 64.2656
L21.1406 28.5625
z
" id="Verdana-41"/>
     </defs>
     <g transform="translate(37.58625 256.134375)rotate(-90.0)scale(0.12 -0.12)">
      <use xlink:href="#Verdana-41"/>
      <use x="68.359375" xlink:href="#Verdana-62"/>
      <use x="130.6640625" xlink:href="#Verdana-73"/>
      <use x="182.763671875" xlink:href="#Verdana-6f"/>
      <use x="243.45703125" xlink:href="#Verdana-6c"/>
      <use x="270.8984375" xlink:href="#Verdana-75"/>
      <use x="334.1796875" xlink:href="#Verdana-74"/>
      <use x="373.583984375" xlink:href="#Verdana-65"/>
      <use x="433.154296875" xlink:href="#Verdana-20"/>
      <use x="468.310546875" xlink:href="#Verdana-4d"/>
      <use x="552.587890625" xlink:href="#Verdana-61"/>
      <use x="612.646484375" xlink:href="#Verdana-78"/>
     </g>
    </g>
   </g>
   <g id="patch_3">
    <path d="
M72 43.2
L518.4 43.2" style="fill:none;stroke:#000000;"/>
   </g>
   <g id="patch_4">
    <path d="
M72 388.8
L72 43.2" style="fill:none;stroke:#000000;"/>
   </g>
   <g id="patch_5">
    <path d="
M518.4 388.8
L518.4 43.2" style="fill:none;stroke:#000000;"/>
   </g>
   <g id="patch_6">
    <path d="
M72 388.8
L518.4 388.8" style="fill:none;stroke:#000000;"/>
   </g>
   <g id="text_18">
    <!-- Ripple01 Absolute Max -->
    <defs>
     <path d="
M57.0312 27.9375
Q57.0312 21.2969 55.125 15.7969
Q53.2188 10.2969 49.75 6.5
Q46.5312 2.875 42.1562 0.890625
Q37.7969 -1.07812 32.9062 -1.07812
Q28.6562 -1.07812 25.2188 -0.140625
Q21.7812 0.78125 18.2188 2.73438
L18.2188 -20.125
L9.03125 -20.125
L9.03125 54.5469
L18.2188 54.5469
L18.2188 48.8281
Q21.875 51.9062 26.4375 53.9844
Q31 56.0625 36.1875 56.0625
Q46.0469 56.0625 51.5312 48.6094
Q57.0312 41.1562 57.0312 27.9375
M47.5625 27.6875
Q47.5625 37.5469 44.1875 42.4219
Q40.8281 47.3125 33.8438 47.3125
Q29.8906 47.3125 25.875 45.5938
Q21.875 43.8906 18.2188 41.1094
L18.2188 10.2031
Q22.125 8.45312 24.9219 7.8125
Q27.7344 7.17188 31.2969 7.17188
Q38.9688 7.17188 43.2656 12.3438
Q47.5625 17.5312 47.5625 27.6875" id="Verdana-70"/>
     <path d="
M69.9219 0
L57.375 0
L33.0625 28.9062
L19.4375 28.9062
L19.4375 0
L9.76562 0
L9.76562 72.7031
L30.125 72.7031
Q36.7188 72.7031 41.1094 71.8438
Q45.5156 71 49.0312 68.7969
Q52.9844 66.3125 55.2031 62.5156
Q57.4219 58.7344 57.4219 52.9375
Q57.4219 45.0625 53.4688 39.7656
Q49.5156 34.4688 42.5781 31.7812
z

M47.3125 52.25
Q47.3125 55.375 46.2188 57.7812
Q45.125 60.2031 42.5781 61.8594
Q40.4844 63.2812 37.5938 63.8438
Q34.7188 64.4062 30.8125 64.4062
L19.4375 64.4062
L19.4375 36.9688
L29.2031 36.9688
Q33.7969 36.9688 37.2031 37.7656
Q40.625 38.5781 43.0156 40.7656
Q45.2188 42.8281 46.2656 45.4844
Q47.3125 48.1406 47.3125 52.25" id="Verdana-52"/>
    </defs>
    <g transform="translate(213.132375 38.2)scale(0.144 -0.144)">
     <use xlink:href="#Verdana-52"/>
     <use x="69.53125" xlink:href="#Verdana-69"/>
     <use x="96.97265625" xlink:href="#Verdana-70"/>
     <use x="159.27734375" xlink:href="#Verdana-70"/>
     <use x="221.58203125" xlink:href="#Verdana-6c"/>
     <use x="249.0234375" xlink:href="#Verdana-65"/>
     <use x="308.59375" xlink:href="#Verdana-30"/>
     <use x="372.16796875" xlink:href="#Verdana-31"/>
     <use x="435.7421875" xlink:href="#Verdana-20"/>
     <use x="470.8984375" xlink:href="#Verdana-41"/>
     <use x="539.2578125" xlink:href="#Verdana-62"/>
     <use x="601.5625" xlink:href="#Verdana-73"/>
     <use x="653.662109375" xlink:href="#Verdana-6f"/>
     <use x="714.35546875" xlink:href="#Verdana-6c"/>
     <use x="741.796875" xlink:href="#Verdana-75"/>
     <use x="805.078125" xlink:href="#Verdana-74"/>
     <use x="844.482421875" xlink:href="#Verdana-65"/>
     <use x="904.052734375" xlink:href="#Verdana-20"/>
     <use x="939.208984375" xlink:href="#Verdana-4d"/>
     <use x="1023.486328125" xlink:href="#Verdana-61"/>
     <use x="1083.544921875" xlink:href="#Verdana-78"/>
    </g>
   </g>
   <g id="legend_1">
    <g id="patch_7">
     <path d="
M79.2 381.6
L183.22 381.6
L183.22 272.081
L79.2 272.081
L79.2 381.6
z
" style="fill:#ffffff;stroke:#000000;"/>
    </g>
    <g id="line2d_36">
     <path d="
M89.28 283.743
L109.44 283.743" style="fill:none;stroke:#0000ff;stroke-dasharray:6.000000,2.000000;stroke-dashoffset:0.0;"/>
    </g>
    <g id="line2d_37"/>
    <g id="text_19">
     <!-- AMPGO -->
     <defs>
      <path d="
M57.3281 50.7344
Q57.3281 45.9062 55.6406 41.7656
Q53.9531 37.6406 50.9219 34.625
Q47.1719 30.8594 42.0469 28.9688
Q36.9219 27.0938 29.1094 27.0938
L19.4375 27.0938
L19.4375 0
L9.76562 0
L9.76562 72.7031
L29.5 72.7031
Q36.0312 72.7031 40.5781 71.6094
Q45.125 70.5156 48.6406 68.1719
Q52.7812 65.375 55.0469 61.2188
Q57.3281 57.0781 57.3281 50.7344
M47.2656 50.4844
Q47.2656 54.25 45.9375 57.0312
Q44.625 59.8125 41.9375 61.5781
Q39.5938 63.0938 36.5938 63.75
Q33.5938 64.4062 29 64.4062
L19.4375 64.4062
L19.4375 35.3594
L27.5938 35.3594
Q33.4531 35.3594 37.1094 36.4062
Q40.7656 37.4531 43.0625 39.75
Q45.3594 42.0938 46.3125 44.6719
Q47.2656 47.2656 47.2656 50.4844" id="Verdana-50"/>
      <path d="
M70.4062 5.375
Q64.4531 2.64062 57.3906 0.609375
Q50.3438 -1.42188 43.75 -1.42188
Q35.25 -1.42188 28.1719 0.921875
Q21.0938 3.26562 16.1094 7.95312
Q11.0781 12.7031 8.34375 19.7969
Q5.60938 26.9062 5.60938 36.4219
Q5.60938 53.8594 15.7969 63.9375
Q25.9844 74.0312 43.75 74.0312
Q49.9531 74.0312 56.4219 72.5312
Q62.8906 71.0469 70.3594 67.4844
L70.3594 56
L69.4844 56
Q67.9688 57.1719 65.0781 59.0781
Q62.2031 60.9844 59.4219 62.25
Q56.0625 63.7656 51.7812 64.7656
Q47.5156 65.7656 42.0938 65.7656
Q29.8906 65.7656 22.7812 57.9219
Q15.6719 50.0938 15.6719 36.7188
Q15.6719 22.6094 23.0938 14.7656
Q30.5156 6.9375 43.3125 6.9375
Q48 6.9375 52.6562 7.85938
Q57.3281 8.79688 60.8438 10.25
L60.8438 28.0781
L41.3594 28.0781
L41.3594 36.5781
L70.4062 36.5781
z
" id="Verdana-47"/>
     </defs>
     <g transform="translate(125.28 288.783)scale(0.144 -0.144)">
      <use xlink:href="#Verdana-41"/>
      <use x="68.359375" xlink:href="#Verdana-4d"/>
      <use x="152.63671875" xlink:href="#Verdana-50"/>
      <use x="212.939453125" xlink:href="#Verdana-47"/>
      <use x="290.478515625" xlink:href="#Verdana-4f"/>
     </g>
    </g>
    <g id="line2d_38">
     <path d="
M89.28 304.783
L109.44 304.783" style="fill:none;stroke:#008000;stroke-dasharray:1.000000,1.000000;stroke-dashoffset:0.0;"/>
    </g>
    <g id="line2d_39"/>
    <g id="text_20">
     <!-- Anneal -->
     <g transform="translate(125.28 309.82275)scale(0.144 -0.144)">
      <use xlink:href="#Verdana-41"/>
      <use x="68.359375" xlink:href="#Verdana-6e"/>
      <use x="131.640625" xlink:href="#Verdana-6e"/>
      <use x="194.921875" xlink:href="#Verdana-65"/>
      <use x="254.4921875" xlink:href="#Verdana-61"/>
      <use x="314.55078125" xlink:href="#Verdana-6c"/>
     </g>
    </g>
    <g id="line2d_40">
     <path d="
M89.28 325.822
L109.44 325.822" style="fill:none;stroke:#ff0000;stroke-dasharray:3.000000,6.000000;stroke-dashoffset:0.0;"/>
    </g>
    <g id="line2d_41"/>
    <g id="text_21">
     <!-- BSA -->
     <defs>
      <path d="
M64.5938 22.3594
Q64.5938 16.9375 62.5469 12.7812
Q60.5 8.64062 57.0312 5.95312
Q52.9375 2.73438 48.0156 1.35938
Q43.1094 0 35.5469 0
L9.76562 0
L9.76562 72.7031
L31.2969 72.7031
Q39.2656 72.7031 43.2188 72.1094
Q47.1719 71.5312 50.7812 69.6719
Q54.7812 67.5781 56.5938 64.2812
Q58.4062 60.9844 58.4062 56.3906
Q58.4062 51.2188 55.7656 47.5781
Q53.125 43.9531 48.7344 41.75
L48.7344 41.3594
Q56.1094 39.8438 60.3438 34.8906
Q64.5938 29.9375 64.5938 22.3594
M48.3438 55.125
Q48.3438 57.7656 47.4531 59.5625
Q46.5781 61.375 44.625 62.5
Q42.3281 63.8125 39.0625 64.125
Q35.7969 64.4531 30.9531 64.4531
L19.4375 64.4531
L19.4375 43.4531
L31.9375 43.4531
Q36.4688 43.4531 39.1562 43.9219
Q41.8438 44.3906 44.1406 45.8438
Q46.4375 47.3125 47.3906 49.625
Q48.3438 51.9531 48.3438 55.125
M54.5469 21.9688
Q54.5469 26.375 53.2188 28.9531
Q51.9062 31.5469 48.4375 33.3438
Q46.0938 34.5781 42.75 34.9375
Q39.4062 35.2969 34.625 35.2969
L19.4375 35.2969
L19.4375 8.25
L32.2344 8.25
Q38.5781 8.25 42.625 8.90625
Q46.6875 9.57812 49.2656 11.3281
Q52 13.2344 53.2656 15.6719
Q54.5469 18.1094 54.5469 21.9688" id="Verdana-42"/>
      <path d="
M62.5938 20.75
Q62.5938 16.5 60.6094 12.3438
Q58.6406 8.20312 55.0781 5.32812
Q51.1719 2.20312 45.9688 0.4375
Q40.7656 -1.3125 33.4531 -1.3125
Q25.5938 -1.3125 19.3125 0.140625
Q13.0312 1.60938 6.54688 4.5
L6.54688 16.6094
L7.23438 16.6094
Q12.75 12.0156 19.9688 9.51562
Q27.2031 7.03125 33.5469 7.03125
Q42.5312 7.03125 47.5312 10.3906
Q52.5469 13.7656 52.5469 19.3906
Q52.5469 24.2188 50.1719 26.5156
Q47.7969 28.8125 42.9688 30.0781
Q39.3125 31.0625 35.0312 31.6875
Q30.7656 32.3281 25.9844 33.2969
Q16.3125 35.3594 11.6406 40.3125
Q6.98438 45.2656 6.98438 53.2188
Q6.98438 62.3594 14.6875 68.1875
Q22.4062 74.0312 34.2812 74.0312
Q41.9375 74.0312 48.3281 72.5625
Q54.7344 71.0938 59.6719 68.9531
L59.6719 57.5156
L58.9844 57.5156
Q54.8281 61.0312 48.0625 63.3438
Q41.3125 65.6719 34.2344 65.6719
Q26.4688 65.6719 21.75 62.4531
Q17.0469 59.2344 17.0469 54.1562
Q17.0469 49.6094 19.3906 47.0156
Q21.7344 44.4375 27.6406 43.0625
Q30.7656 42.3906 36.5156 41.4062
Q42.2812 40.4375 46.2969 39.4062
Q54.3906 37.25 58.4844 32.9062
Q62.5938 28.5625 62.5938 20.75" id="Verdana-53"/>
     </defs>
     <g transform="translate(125.28 330.8625)scale(0.144 -0.144)">
      <use xlink:href="#Verdana-42"/>
      <use x="68.5546875" xlink:href="#Verdana-53"/>
      <use x="135.9140625" xlink:href="#Verdana-41"/>
     </g>
    </g>
    <g id="line2d_42">
     <path d="
M89.28 346.862
L109.44 346.862" style="fill:none;stroke:#00bfbf;stroke-dasharray:5.000000,1.000000,2.000000,1.000000,5.000000,1.000000;stroke-dashoffset:0.0;"/>
    </g>
    <g id="line2d_43"/>
    <g id="text_22">
     <!-- Cuckoo -->
     <defs>
      <path d="
M58.5469 0
L46.4375 0
L24.5625 23.875
L18.6094 18.2188
L18.6094 0
L9.42188 0
L9.42188 75.9844
L18.6094 75.9844
L18.6094 27.25
L45.125 54.5469
L56.6875 54.5469
L31.3438 29.3438
z
" id="Verdana-6b"/>
      <path d="
M65.9219 5.28125
Q63.2344 4.10938 61.0625 3.07812
Q58.8906 2.04688 55.375 0.921875
Q52.3906 0 48.8906 -0.65625
Q45.4062 -1.3125 41.2188 -1.3125
Q33.2969 -1.3125 26.8281 0.90625
Q20.3594 3.125 15.5781 7.85938
Q10.8906 12.5 8.25 19.6562
Q5.60938 26.8125 5.60938 36.2812
Q5.60938 45.2656 8.14062 52.3438
Q10.6875 59.4219 15.4844 64.3125
Q20.125 69.0469 26.6875 71.5312
Q33.25 74.0312 41.2656 74.0312
Q47.125 74.0312 52.9531 72.6094
Q58.7969 71.1875 65.9219 67.625
L65.9219 56.1562
L65.1875 56.1562
Q59.1875 61.1875 53.2656 63.4688
Q47.3594 65.7656 40.625 65.7656
Q35.1094 65.7656 30.6875 63.9844
Q26.2656 62.2031 22.7969 58.4531
Q19.4375 54.7812 17.5469 49.1875
Q15.6719 43.6094 15.6719 36.2812
Q15.6719 28.6094 17.75 23.0938
Q19.8281 17.5781 23.0938 14.1094
Q26.5156 10.5 31.0781 8.76562
Q35.6406 7.03125 40.7188 7.03125
Q47.7031 7.03125 53.7969 9.42188
Q59.9062 11.8125 65.2344 16.6094
L65.9219 16.6094
z
" id="Verdana-43"/>
     </defs>
     <g transform="translate(125.28 351.90225)scale(0.144 -0.144)">
      <use xlink:href="#Verdana-43"/>
      <use x="69.82421875" xlink:href="#Verdana-75"/>
      <use x="133.10546875" xlink:href="#Verdana-63"/>
      <use x="185.205078125" xlink:href="#Verdana-6b"/>
      <use x="243.384765625" xlink:href="#Verdana-6f"/>
      <use x="304.078125" xlink:href="#Verdana-6f"/>
     </g>
    </g>
    <g id="line2d_44">
     <path d="
M89.28 367.902
L109.44 367.902" style="fill:none;stroke:#bf00bf;stroke-linecap:square;"/>
    </g>
    <g id="line2d_45"/>
    <g id="text_23">
     <!-- qABC -->
     <defs>
      <path d="
M53.2656 -20.125
L44.0938 -20.125
L44.0938 6.15625
Q39.8438 2.48438 35.6406 0.703125
Q31.4531 -1.07812 26.5625 -1.07812
Q16.8438 -1.07812 11.0625 6.42188
Q5.28125 13.9219 5.28125 27.0938
Q5.28125 34.125 7.29688 39.5156
Q9.32812 44.9219 12.6406 48.5781
Q15.875 52.1562 20.2188 54.1094
Q24.5625 56.0625 29.3906 56.0625
Q33.7969 56.0625 37.1875 55.0781
Q40.5781 54.1094 44.0938 52.2031
L44.6719 54.5469
L53.2656 54.5469
z

M44.0938 13.875
L44.0938 44.7344
Q40.2812 46.4375 37.3438 47.1094
Q34.4219 47.7969 31 47.7969
Q23.0469 47.7969 18.8906 42.4062
Q14.75 37.0156 14.75 27.5469
Q14.75 17.9688 18.0938 12.8125
Q21.4375 7.67188 28.6094 7.67188
Q32.625 7.67188 36.625 9.40625
Q40.625 11.1406 44.0938 13.875" id="Verdana-71"/>
     </defs>
     <g transform="translate(125.28 372.942)scale(0.144 -0.144)">
      <use xlink:href="#Verdana-71"/>
      <use x="62.3046875" xlink:href="#Verdana-41"/>
      <use x="130.6640625" xlink:href="#Verdana-42"/>
      <use x="199.21875" xlink:href="#Verdana-43"/>
     </g>
    </g>
   </g>
  </g>
 </g>
 <defs>
  <clipPath id="p7ff5b81e1d">
   <rect height="345.6" width="446.4" x="72.0" y="43.2"/>
  </clipPath>
 </defs>
</svg>
