<?xml version="1.0" encoding="utf-8" standalone="no"?>
<!DOCTYPE svg PUBLIC "-//W3C//DTD SVG 1.1//EN"
  "http://www.w3.org/Graphics/SVG/1.1/DTD/svg11.dtd">
<!-- Created with matplotlib (http://matplotlib.org/) -->
<svg height="432pt" version="1.1" viewBox="0 0 576 432" width="576pt" xmlns="http://www.w3.org/2000/svg" xmlns:xlink="http://www.w3.org/1999/xlink">
 <defs>
  <style type="text/css">
*{stroke-linecap:butt;stroke-linejoin:round;}
  </style>
 </defs>
 <g id="figure_1">
  <g id="patch_1">
   <path d="
M0 432
L576 432
L576 0
L0 0
z
" style="fill:#ffffff;"/>
  </g>
  <g id="axes_1">
   <g id="patch_2">
    <path d="
M72 388.8
L518.4 388.8
L518.4 43.2
L72 43.2
z
" style="fill:#ffffff;"/>
   </g>
   <g id="line2d_1">
    <path clip-path="url(#p7ff5b81e1d)" d="
M72 50.3437
L98.2483 50.3437
L98.4269 76.0117
L124.497 76.0118
L124.675 76.487
L141.996 76.487
L142.174 77.7885
L159.494 77.7886
L159.673 77.942
L176.993 77.942
L177.172 79.7461
L194.492 79.7461
L194.671 81.4214
L211.991 81.4214
L212.17 86.27
L220.74 86.27
L220.919 88.8564
L238.239 88.8564
L238.418 90.5299
L246.989 90.5299
L247.167 91.7557
L255.738 91.7557
L255.917 92.3823
L264.488 92.3823
L264.666 92.6423
L281.987 92.6795
L282.165 92.8294
L316.984 92.9387
L320.823 92.9413
L360.732 92.9418
L360.91 93.3523
L369.481 93.3524
L369.66 94.4075
L386.98 94.4075
L387.158 94.8168
L395.729 94.8168
L395.908 94.949
L413.228 95.0514
L413.407 95.1481
L518.311 95.1572
L518.311 95.1572" style="fill:none;stroke:#0000ff;stroke-dasharray:6.000000,2.000000;stroke-dashoffset:0.0;"/>
   </g>
   <g id="line2d_2">
    <path clip-path="url(#p7ff5b81e1d)" d="
M72 59.4211
L72.625 59.4804
L72.8035 59.6044
L72.9821 62.3895
L73.5178 62.3895
L73.6963 63.2788
L73.8749 64.886
L74.3213 64.886
L74.4998 67.6706
L74.5891 67.6706
L74.7677 68.8567
L74.857 68.8567
L75.2141 69.8311
L75.3034 69.8311
L75.3926 70.7648
L75.5712 75.7436
L75.9283 75.7436
L76.1069 76.1808
L76.1962 76.1808
L76.2854 76.4997
L76.7318 81.7274
L76.9997 81.7274
L77.1782 81.9079
L77.2675 81.9079
L77.4461 82.2671
L77.7139 82.3475
L77.8925 84.8887
L78.5174 84.8887
L78.696 85.2956
L78.8746 85.2956
L79.0531 86.6369
L79.1424 86.6369
L79.321 90.4559
L79.5888 90.5224
L79.9459 90.6036
L80.2138 95.2358
L80.3923 95.2358
L80.5709 95.6314
L80.7494 97.2333
L80.928 97.2333
L81.1066 98.6882
L81.8208 98.6882
L81.9994 100.309
L82.7136 100.38
L82.8922 102.092
L83.5171 102.092
L83.6957 103.313
L83.8742 103.313
L84.0528 104.756
L84.2314 105.684
L84.4992 105.727
L84.5885 105.927
L84.8563 107.387
L84.9456 107.387
L85.1242 108.905
L85.3027 108.905
L85.4813 109.134
L86.017 109.134
L86.1955 112.122
L86.9098 112.18
L87.0883 113.7
L87.1776 113.7
L87.3562 113.82
L87.5347 113.82
L87.7133 115.641
L88.3382 115.683
L88.6061 123.439
L88.8739 123.486
L89.231 123.486
L89.4096 123.61
L89.7667 123.61
L89.9453 124.554
L90.1238 124.554
L90.3024 125.827
L90.3917 125.827
L90.5702 127.759
L90.8381 127.759
L91.0166 128.177
L91.2845 128.177
L91.463 130.935
L91.5523 131.085
L91.7309 134.036
L91.8202 134.036
L91.9987 134.545
L92.088 134.545
L92.2666 136.721
L92.3558 136.721
L92.5344 137.818
L92.713 137.818
L92.8915 139.646
L93.1594 139.646
L93.3379 144.359
L93.9629 144.359
L94.1414 144.925
L94.2307 144.925
L94.4093 145.152
L94.7664 145.152
L94.945 147.984
L95.3914 147.984
L95.5699 148.231
L95.7485 148.231
L95.927 148.349
L96.3734 148.349
L96.552 150.487
L96.9091 150.487
L97.0877 150.813
L97.6234 150.813
L97.7126 151.126
L97.8912 153.411
L98.2483 153.411
L98.4269 154.515
L98.784 154.515
L98.9626 158.366
L99.4982 158.366
L99.6768 159.095
L99.8554 159.422
L101.195 159.495
L101.373 162.573
L101.462 162.845
L101.641 163.973
L101.82 163.973
L102.087 170.14
L102.266 170.14
L102.444 170.635
L103.605 170.713
L103.784 170.95
L103.873 170.95
L104.052 173.629
L105.301 173.687
L105.48 174.809
L106.194 174.809
L106.284 175.184
L106.462 177.621
L107.712 177.621
L107.891 180.892
L108.337 180.892
L108.516 182.485
L109.408 182.485
L109.587 183.093
L109.765 183.408
L110.48 183.408
L110.658 183.558
L111.64 183.644
L111.819 184.699
L112.533 184.699
L112.712 184.905
L112.89 184.905
L113.069 188.203
L113.694 188.301
L113.872 190.47
L114.408 190.47
L114.587 191.122
L114.854 191.122
L115.033 191.59
L115.301 191.59
L115.479 192.435
L115.658 192.435
L115.747 192.677
L115.926 193.824
L116.372 193.824
L116.551 194.965
L116.729 194.965
L116.908 197.367
L117.086 197.833
L118.961 197.921
L119.14 199.491
L119.318 201.447
L119.408 201.447
L119.586 206.151
L119.765 206.151
L120.122 211.409
L120.479 211.409
L120.658 211.62
L121.283 211.62
L121.461 213.768
L121.55 213.768
L121.729 214.234
L121.908 216.27
L122.265 216.27
L122.443 218.092
L124.764 218.171
L124.943 218.513
L125.3 218.513
L125.479 219.627
L125.836 219.627
L126.014 219.927
L126.461 219.927
L126.639 220.975
L128.604 220.975
L128.782 221.839
L129.407 221.839
L129.586 222.823
L130.211 222.924
L130.389 226.91
L132.175 226.91
L132.353 229.315
L133.782 229.315
L133.871 229.525
L134.05 231.392
L135.032 231.392
L135.21 233.202
L135.389 233.202
L135.567 233.862
L135.746 233.862
L135.924 234.318
L136.192 234.318
L136.371 234.764
L136.728 234.764
L136.907 235.774
L137.085 235.774
L137.264 238.881
L138.514 238.881
L138.603 239.313
L138.781 242.149
L140.031 242.149
L140.299 246.243
L141.192 246.344
L141.371 246.911
L141.996 246.911
L142.174 249.188
L143.245 249.188
L143.424 249.494
L144.942 249.586
L145.12 250.422
L145.567 250.422
L145.745 250.671
L146.638 250.671
L146.817 250.966
L147.709 250.966
L147.888 252.69
L148.513 252.69
L148.692 253.119
L149.674 253.119
L149.852 253.325
L150.12 253.325
L150.299 253.686
L150.477 253.686
L150.656 257.078
L152.62 257.078
L152.798 258.363
L153.87 258.363
L154.048 260.456
L154.138 260.456
L154.316 261.474
L154.495 261.474
L154.673 262.73
L154.763 262.73
L154.941 263.778
L155.388 263.778
L155.566 264.624
L155.923 264.624
L156.102 264.93
L156.459 264.93
L156.637 266.225
L156.727 266.225
L156.905 267.094
L158.244 267.094
L158.423 267.332
L158.602 267.332
L158.78 267.821
L159.048 267.821
L159.227 268.722
L160.298 268.722
L160.476 271.481
L161.191 271.481
L161.369 274.247
L162.351 274.247
L162.53 274.467
L162.708 274.467
L162.887 274.899
L166.548 274.978
L166.726 277.383
L168.512 277.383
L168.69 277.618
L169.94 277.618
L170.119 278.682
L170.297 278.682
L170.476 282.35
L170.744 282.35
L170.922 283.039
L173.601 283.039
L173.779 284.2
L174.136 284.2
L174.315 285.178
L176.1 285.178
L176.279 285.488
L177.708 285.488
L177.886 286.08
L178.065 286.08
L178.243 286.984
L178.6 286.984
L178.779 287.378
L179.761 287.378
L179.94 289.736
L180.207 289.736
L180.386 292.057
L181.904 292.057
L182.082 292.615
L182.172 292.615
L182.35 293.71
L185.207 293.756
L185.475 296.941
L185.743 296.941
L185.921 297.917
L188.153 298.022
L188.332 298.31
L189.225 298.31
L189.403 299.739
L190.028 299.739
L190.207 300.447
L192.617 300.534
L192.796 301.351
L193.421 301.351
L193.599 301.699
L193.867 301.699
L194.046 303.264
L195.117 303.264
L195.474 306.114
L196.635 306.114
L196.813 306.266
L198.51 306.372
L198.688 307.098
L199.581 307.098
L199.76 309.31
L200.742 309.31
L200.92 309.483
L201.456 309.483
L201.635 309.739
L203.331 309.812
L203.509 310.254
L205.027 310.254
L205.206 310.384
L205.92 310.384
L206.099 311.506
L206.902 311.506
L207.081 312.915
L208.509 312.915
L208.688 313.321
L212.17 313.321
L212.348 313.53
L212.616 313.53
L212.795 314.09
L214.402 314.198
L214.58 316.386
L216.544 316.497
L216.723 316.714
L218.062 316.714
L218.241 317.088
L220.026 317.088
L220.205 317.299
L220.83 317.299
L221.008 317.49
L221.276 322.406
L221.812 322.406
L221.99 322.573
L225.829 322.573
L226.008 323.429
L227.883 323.429
L228.061 323.606
L229.847 323.606
L230.026 324.057
L231.365 324.057
L231.543 325.28
L233.15 325.28
L233.329 325.41
L233.954 325.41
L234.043 325.545
L234.222 325.883
L236.454 325.883
L236.811 326.738
L237.525 326.738
L237.704 326.977
L239.846 326.977
L240.025 327.268
L242.168 327.268
L242.346 328.074
L243.685 328.11
L243.864 328.995
L244.31 328.995
L244.489 329.792
L246.007 329.792
L246.185 330.22
L247.882 330.22
L248.06 330.469
L251.006 330.568
L251.453 330.593
L252.435 330.593
L252.613 331.742
L255.917 331.82
L256.095 332.337
L256.72 332.337
L256.899 332.821
L259.934 332.821
L260.113 333.42
L261.274 333.42
L261.541 335.135
L263.238 335.135
L263.416 335.43
L263.595 335.588
L263.773 335.588
L263.952 335.865
L266.541 335.929
L266.72 336.268
L272.791 336.303
L272.969 337.478
L273.773 337.478
L273.951 338.378
L274.219 338.378
L274.398 339.009
L276.63 339.113
L276.808 339.594
L280.201 339.63
L280.38 340.962
L284.129 340.962
L284.308 341.354
L285.111 341.354
L285.29 342.044
L285.736 342.044
L285.915 342.281
L287.254 342.281
L287.433 342.566
L288.147 342.566
L288.325 342.928
L289.754 342.928
L289.932 343.822
L290.111 344.202
L292.432 344.202
L292.611 346.111
L293.057 346.111
L293.236 346.25
L294.932 346.307
L295.111 347.01
L296.539 347.01
L296.718 347.644
L297.521 347.644
L297.7 347.897
L299.575 347.959
L299.753 350.96
L303.324 350.96
L303.503 351.177
L304.307 351.177
L304.485 351.936
L306.985 351.939
L307.164 352.19
L307.61 352.19
L307.788 352.478
L308.86 352.478
L309.038 353.297
L311.717 353.36
L311.985 353.415
L312.52 353.415
L312.699 353.624
L313.056 353.624
L313.235 355.237
L313.413 355.237
L313.592 356.22
L316.806 356.22
L316.984 356.486
L319.663 356.486
L319.841 356.862
L322.788 356.882
L322.966 357.322
L324.841 357.322
L325.02 357.456
L326.091 357.478
L326.269 358.664
L327.966 358.664
L328.144 359.392
L328.412 359.392
L328.591 359.713
L329.93 359.713
L330.108 359.865
L331.358 359.865
L331.537 360.375
L332.251 360.375
L332.43 360.786
L333.769 360.786
L333.948 361.148
L336.894 361.242
L337.072 361.65
L337.251 361.65
L337.429 362.886
L339.126 362.886
L339.304 363.491
L342.34 363.491
L342.518 363.845
L345.108 363.845
L345.286 364.285
L346.804 364.285
L346.982 364.405
L353.857 364.507
L354.036 365.024
L359.928 365.084
L360.107 365.536
L360.464 365.536
L360.642 365.713
L362.339 365.713
L362.517 366.065
L365.374 366.164
L365.553 366.356
L368.231 366.356
L368.41 367.118
L369.749 367.118
L369.927 367.44
L373.231 367.44
L373.409 367.777
L375.731 367.873
L375.998 367.935
L378.23 367.935
L378.409 368.303
L379.837 368.381
L380.016 368.46
L383.052 368.46
L383.23 368.835
L383.587 368.835
L383.766 369.473
L385.908 369.546
L386.087 370.234
L387.694 370.234
L387.873 370.457
L391.444 370.552
L391.622 370.943
L394.658 370.943
L394.836 371.266
L397.068 371.266
L397.247 371.387
L398.586 371.387
L398.765 371.842
L400.104 371.842
L400.283 372.027
L401.175 372.027
L401.354 373.347
L403.764 373.347
L403.943 373.462
L404.389 373.462
L404.568 373.754
L405.818 373.754
L406.086 374.516
L408.139 374.556
L408.318 374.789
L412.96 374.867
L413.139 375.284
L414.121 375.284
L414.3 375.484
L417.871 375.5
L418.049 375.624
L423.674 375.689
L423.852 376.058
L425.638 376.058
L425.817 376.6
L427.692 376.6
L427.87 376.827
L427.959 376.827
L428.138 377.101
L431.798 377.132
L431.977 377.526
L433.941 377.526
L434.12 377.701
L435.102 377.701
L435.28 377.926
L442.958 378.012
L443.137 378.238
L446.619 378.291
L446.797 378.709
L450.547 378.722
L450.726 378.988
L456.35 379.049
L456.529 379.318
L461.618 379.426
L461.796 379.572
L464.743 379.572
L464.921 379.859
L467.064 379.859
L467.243 380.172
L477.956 380.264
L478.135 380.398
L480.277 380.398
L480.456 380.848
L481.081 380.848
L481.26 381.049
L495.366 381.135
L495.544 381.366
L501.972 381.409
L502.151 381.528
L502.776 381.528
L502.955 382.678
L506.169 382.7
L506.347 382.798
L508.311 382.886
L508.49 383.403
L513.49 383.403
L513.668 383.523
L518.221 383.577
L518.311 383.744
L518.311 383.744" style="fill:none;stroke:#008000;stroke-dasharray:1.000000,1.000000;stroke-dashoffset:0.0;"/>
   </g>
   <g id="line2d_3">
    <path clip-path="url(#p7ff5b81e1d)" d="
M72 60.8801
L72.3571 60.8801
L72.5357 62.6102
L72.7142 62.6102
L72.8928 68.3201
L79.8566 68.3201
L80.0352 69.2813
L88.7846 69.3874
L88.9632 69.597
L90.5702 69.597
L90.7488 71.9093
L90.8381 71.9093
L91.0166 76.2391
L97.9805 76.2391
L98.159 77.0007
L103.337 77.0007
L103.516 77.3353
L105.123 77.3353
L105.301 79.3601
L115.836 79.3601
L116.015 80.0272
L117.622 80.0272
L117.801 80.4311
L120.211 80.4311
L120.39 82.034
L121.997 82.034
L122.175 82.3998
L127.8 82.3998
L127.979 84.0906
L130.925 84.0906
L131.103 86.167
L138.514 86.167
L138.692 88.9429
L152.709 88.9429
L152.888 90.4378
L154.316 90.4378
L154.584 99.6061
L165.208 99.6763
L165.387 99.7781
L170.565 99.7781
L170.744 102.107
L177.708 102.107
L177.886 102.263
L188.421 102.307
L188.6 102.705
L195.564 102.736
L195.742 106.629
L199.135 106.629
L199.313 106.786
L204.492 106.786
L204.67 108.129
L234.936 108.129
L235.115 109.148
L236.722 109.148
L236.9 109.496
L241.989 109.496
L242.257 111.386
L247.346 111.386
L247.524 115.048
L261.631 115.048
L261.809 115.53
L264.22 115.53
L264.398 116.897
L267.791 116.897
L267.97 121.353
L280.29 121.353
L280.469 124.248
L285.647 124.248
L285.826 125.118
L321.359 125.118
L321.538 125.257
L326.716 125.35
L326.894 126.111
L332.073 126.111
L332.251 127.544
L337.429 127.544
L337.608 129.289
L353.5 129.289
L353.678 133.401
L378.498 133.401
L378.677 133.869
L383.766 133.869
L383.944 135.846
L392.069 135.846
L392.247 135.963
L393.854 135.963
L394.033 137.59
L399.836 137.59
L400.015 138.839
L431.352 138.839
L431.531 139.268
L440.905 139.268
L441.084 140.136
L442.691 140.136
L442.869 140.258
L448.047 140.258
L448.226 140.907
L453.404 140.907
L453.583 141.247
L455.19 141.247
L455.368 141.772
L464.921 141.772
L465.1 142.561
L479.206 142.561
L479.385 146.771
L489.384 146.771
L489.563 148.399
L494.741 148.399
L494.919 152.107
L509.026 152.107
L509.204 155.879
L518.311 155.879
L518.311 155.879" style="fill:none;stroke:#ff0000;stroke-dasharray:3.000000,6.000000;stroke-dashoffset:0.0;"/>
   </g>
   <g id="line2d_4">
    <path clip-path="url(#p7ff5b81e1d)" d="
M72 55.836
L72.5357 55.836
L72.8035 60.7815
L91.463 60.7815
L91.6416 66.2081
L100.659 66.2081
L100.837 72.6348
L108.605 72.6348
L108.783 72.9749
L128.604 72.9749
L128.782 73.6958
L132.353 73.6958
L132.532 74.0527
L142.085 74.0527
L142.263 76.1536
L156.012 76.1536
L156.191 79.1502
L184.671 79.1502
L184.85 84.1379
L200.117 84.1379
L200.295 84.4234
L209.491 84.4234
L209.67 85.0198
L221.187 85.0198
L221.365 85.1315
L223.151 85.1315
L223.33 87.4147
L230.472 87.4147
L230.651 88.1875
L232.704 88.1875
L232.883 89.8439
L250.292 89.8439
L250.471 90.9625
L263.684 90.999
L263.863 92.2194
L264.041 92.2194
L264.22 92.6201
L270.916 92.6201
L271.094 97.5837
L275.38 97.5837
L275.558 99.3446
L310.735 99.3446
L310.913 101.627
L324.484 101.627
L324.662 102.66
L331.448 102.66
L331.626 103.633
L349.393 103.633
L349.572 105.817
L355.91 105.817
L356.089 105.944
L371.624 105.944
L371.802 106.442
L385.105 106.442
L385.284 107.156
L393.14 107.156
L393.319 108.518
L425.192 108.518
L425.37 109.638
L427.959 109.638
L428.138 110.503
L432.334 110.503
L432.513 111.963
L453.047 111.963
L453.226 114.376
L460.1 114.376
L460.279 117.485
L495.901 117.538
L496.08 118.698
L499.383 118.698
L499.562 119.291
L514.472 119.291
L514.65 119.672
L518.311 119.672
L518.311 119.672" style="fill:none;stroke:#00bfbf;stroke-dasharray:5.000000,1.000000,2.000000,1.000000,5.000000,1.000000;stroke-dashoffset:0.0;"/>
   </g>
   <g id="line2d_5">
    <path clip-path="url(#p7ff5b81e1d)" d="
M72 66.232
L72.4464 66.232
L72.625 70.1081
L72.8035 70.1081
L72.9821 75.137
L76.1069 75.137
L76.2854 79.1459
L76.7318 79.1459
L76.9104 80.8171
L77.089 80.8171
L77.2675 83.2308
L79.2317 83.2308
L79.4102 84.7751
L81.7315 84.7751
L81.9101 86.2293
L85.3027 86.2987
L85.4813 87.1447
L86.7312 87.1447
L86.9098 87.4559
L87.2669 87.4559
L87.4454 88.558
L89.856 88.5986
L90.0346 89.7632
L94.0522 89.8019
L94.2307 90.7809
L94.7664 90.8576
L95.0342 96.7212
L96.9984 96.7212
L97.177 98.9927
L97.4448 99.0619
L97.7126 99.0619
L97.8912 99.1933
L98.3376 99.1933
L98.5162 100.051
L100.48 100.133
L100.659 101.099
L100.748 101.099
L101.195 107.548
L101.82 107.611
L101.998 108.63
L102.177 108.63
L102.355 109.078
L102.712 109.078
L102.891 111.715
L104.944 111.715
L105.123 112.067
L105.391 112.187
L108.962 112.187
L109.14 114.642
L109.319 115.005
L111.372 115.005
L111.551 116.008
L111.73 116.008
L111.908 116.827
L112.176 116.827
L112.355 117.408
L112.444 117.461
L112.622 119.657
L113.247 119.657
L113.426 120.059
L115.033 120.059
L115.122 120.177
L115.301 121.658
L115.479 121.658
L115.747 125.342
L115.836 125.342
L116.015 129.795
L118.693 129.795
L118.872 130.201
L119.14 130.201
L119.318 132.652
L119.854 132.652
L120.033 133.409
L121.015 133.409
L121.193 135.412
L122.354 135.412
L122.532 139.136
L122.711 140.247
L122.89 140.247
L123.068 144.065
L123.247 144.065
L123.336 144.915
L123.515 148.271
L123.693 148.579
L125.479 148.579
L125.657 152.284
L130.389 152.298
L130.568 152.447
L130.746 152.447
L130.925 152.913
L131.728 152.913
L131.907 153.727
L133.425 153.727
L133.603 154.798
L133.96 154.798
L134.139 155.561
L137.174 155.67
L137.353 157.801
L137.532 158.032
L138.871 158.032
L139.049 158.226
L141.192 158.226
L141.371 158.665
L141.638 158.708
L143.513 158.708
L143.692 160.659
L144.138 160.659
L144.317 161.028
L144.406 161.028
L144.852 164.062
L147.084 164.062
L147.263 164.276
L147.62 164.276
L147.799 165.268
L148.067 165.268
L148.334 166.805
L148.513 166.805
L148.692 168.863
L151.37 168.863
L151.548 169.314
L151.638 169.314
L151.816 170.405
L151.995 170.405
L152.173 171.278
L154.138 171.278
L154.316 172.22
L155.566 172.22
L155.745 174.018
L157.62 174.018
L157.798 175.069
L158.244 175.069
L158.423 176.468
L158.512 176.468
L158.691 179.251
L158.959 179.251
L159.137 182.772
L161.28 182.772
L161.459 182.916
L161.726 182.916
L161.905 183.201
L161.994 183.201
L162.173 184.885
L162.262 184.885
L162.441 185.972
L162.619 186.065
L165.476 186.102
L165.655 187.307
L166.012 187.307
L166.19 187.565
L169.851 187.565
L170.029 187.793
L171.904 187.793
L172.083 188.333
L173.244 188.424
L173.422 188.649
L176.815 188.694
L177.172 192.441
L179.404 192.441
L179.582 194.719
L180.207 194.719
L180.297 195.135
L180.475 196.529
L182.796 196.529
L182.975 197.331
L183.243 197.331
L183.421 197.75
L183.689 197.75
L183.868 199.318
L184.046 199.656
L186.725 199.656
L186.903 201.091
L187.796 201.091
L187.975 201.489
L189.403 201.489
L189.582 202.279
L190.653 202.338
L190.832 203.171
L191.814 203.171
L191.992 203.283
L193.689 203.283
L193.867 203.491
L194.224 203.491
L194.403 203.64
L194.492 203.64
L194.671 206.88
L195.385 206.88
L195.564 208.608
L197.349 208.608
L197.528 209.771
L198.331 209.771
L198.599 212.372
L198.956 212.372
L199.135 213.181
L202.17 213.181
L202.349 213.859
L204.313 213.859
L204.492 214.257
L205.027 214.257
L205.206 215.236
L208.152 215.236
L208.331 216.796
L208.956 216.796
L209.134 218.427
L209.313 219.559
L211.366 219.559
L211.545 220.256
L212.884 220.256
L213.062 222.143
L213.241 222.143
L213.42 226.241
L214.937 226.241
L215.116 226.468
L215.205 226.468
L215.384 228.158
L215.473 228.158
L215.652 229.623
L216.187 229.623
L216.366 230.023
L218.598 230.023
L218.776 231.718
L219.223 231.718
L219.401 232.298
L220.026 232.298
L220.205 232.659
L222.348 232.659
L222.526 234.086
L223.24 234.086
L223.419 238.581
L225.74 238.581
L225.919 239.433
L226.097 239.646
L227.526 239.646
L227.704 239.93
L230.74 239.93
L230.918 241.352
L233.329 241.352
L233.508 242.171
L237.793 242.171
L237.972 243.495
L240.114 243.495
L240.293 244.84
L244.578 244.84
L244.757 245.059
L247.078 245.059
L247.257 246.602
L247.435 246.602
L247.614 247.288
L255.381 247.288
L255.56 247.486
L255.649 247.486
L255.828 247.716
L264.756 247.744
L264.934 249.89
L268.684 249.987
L268.862 250.793
L269.666 250.793
L269.844 251.069
L272.166 251.069
L272.344 251.252
L273.951 251.252
L274.13 251.39
L276.005 251.39
L276.183 252.03
L276.987 252.03
L277.165 252.157
L279.397 252.157
L279.576 252.394
L279.933 252.394
L280.112 254.782
L280.29 254.782
L280.469 255
L283.504 255
L283.683 255.985
L284.308 255.985
L284.486 256.394
L286.54 256.394
L286.897 259.493
L291.807 259.584
L291.986 260.559
L293.504 260.559
L293.682 260.844
L293.95 260.844
L294.129 261.28
L294.664 261.28
L294.843 261.666
L295.021 261.666
L295.2 261.855
L298.057 261.935
L298.236 262.155
L300.735 262.155
L300.914 262.458
L301.36 262.458
L301.539 262.608
L305.378 262.608
L305.556 263.618
L309.038 263.618
L309.217 264.719
L311.628 264.719
L311.806 265.047
L312.699 265.047
L312.877 265.791
L314.395 265.791
L314.574 267.542
L315.199 267.542
L315.288 267.983
L315.467 271.755
L318.948 271.755
L319.127 272.083
L319.216 272.083
L319.306 272.23
L319.484 273.251
L330.733 273.295
L330.912 273.481
L336.18 273.481
L336.358 273.593
L340.019 273.593
L340.197 274.46
L340.554 274.46
L340.822 274.977
L343.679 274.977
L343.858 276.042
L349.036 276.062
L349.214 276.958
L351.446 276.958
L351.625 278.098
L354.303 278.098
L354.482 278.233
L355.107 278.233
L355.285 278.586
L357.964 278.586
L358.142 278.835
L358.5 278.835
L358.678 280.26
L359.124 280.26
L359.303 280.388
L365.196 280.465
L365.374 281.075
L365.999 281.075
L366.178 281.93
L369.481 281.93
L369.66 283.393
L371.892 283.393
L372.07 283.874
L376.623 283.874
L376.802 284.032
L379.927 284.074
L380.105 285.189
L382.962 285.225
L383.141 285.666
L386.176 285.666
L386.355 286.549
L386.712 288.332
L387.783 288.378
L387.962 288.499
L390.372 288.499
L390.551 288.684
L397.693 288.684
L397.872 289.311
L404.3 289.311
L404.479 289.901
L405.282 289.901
L405.461 291.923
L408.586 291.923
L408.764 292.234
L410.639 292.249
L410.818 292.621
L411.978 292.621
L412.157 293.287
L412.246 293.287
L412.425 293.642
L418.942 293.642
L419.121 296.013
L419.924 296.013
L420.103 296.243
L421.353 296.243
L421.531 297.577
L421.888 297.577
L422.067 298.146
L425.817 298.146
L425.995 298.496
L426.531 298.496
L426.709 299.369
L437.602 299.369
L437.78 300.04
L443.851 300.04
L444.03 300.176
L444.208 300.176
L444.387 300.878
L444.923 300.878
L445.101 301.588
L448.583 301.688
L448.762 302.085
L458.225 302.103
L458.404 302.929
L466.35 302.929
L466.528 304.254
L468.492 304.254
L468.671 305.074
L479.563 305.074
L479.742 305.697
L484.295 305.697
L484.474 306.541
L491.437 306.541
L491.616 306.965
L493.044 306.965
L493.223 307.398
L493.312 307.398
L493.491 310.953
L493.937 310.953
L494.116 312.007
L501.794 312.007
L501.972 312.169
L502.151 312.169
L502.33 313.255
L504.919 313.255
L505.097 313.426
L507.329 313.426
L507.508 313.599
L518.311 313.652
L518.311 313.652" style="fill:none;stroke:#bf00bf;stroke-linecap:square;"/>
   </g>
   <g id="matplotlib.axis_1">
    <g id="xtick_1">
     <g id="line2d_6">
      <defs>
       <path d="
M0 0
L0 -4" id="mc7db9fdffb" style="stroke:#000000;stroke-width:0.5;"/>
      </defs>
      <g>
       <use style="stroke:#000000;stroke-width:0.5;" x="72.0" xlink:href="#mc7db9fdffb" y="388.8"/>
      </g>
     </g>
     <g id="line2d_7">
      <defs>
       <path d="
M0 0
L0 4" id="m5a7d422ac3" style="stroke:#000000;stroke-width:0.5;"/>
      </defs>
      <g>
       <use style="stroke:#000000;stroke-width:0.5;" x="72.0" xlink:href="#m5a7d422ac3" y="43.2"/>
      </g>
     </g>
     <g id="text_1">
      <!-- 0 -->
      <defs>
       <path d="
M56.9844 36.375
Q56.9844 16.7969 50.8594 7.64062
Q44.7344 -1.51562 31.8438 -1.51562
Q18.75 -1.51562 12.7188 7.76562
Q6.6875 17.0469 6.6875 36.2812
Q6.6875 55.6719 12.7812 64.9219
Q18.8906 74.1719 31.8438 74.1719
Q44.9219 74.1719 50.9531 64.7656
Q56.9844 55.375 56.9844 36.375
M44.1406 14.2031
Q45.8438 18.1719 46.4531 23.5156
Q47.0781 28.8594 47.0781 36.375
Q47.0781 43.7969 46.4531 49.2656
Q45.8438 54.7344 44.0938 58.5469
Q42.3906 62.3125 39.4219 64.2031
Q36.4688 66.1094 31.8438 66.1094
Q27.25 66.1094 24.2344 64.2031
Q21.2344 62.3125 19.4844 58.4531
Q17.8281 54.8281 17.2188 49.0156
Q16.6094 43.2188 16.6094 36.2812
Q16.6094 28.6562 17.1406 23.5312
Q17.6719 18.4062 19.4375 14.3594
Q21.0469 10.5469 24 8.54688
Q26.9531 6.54688 31.8438 6.54688
Q36.4219 6.54688 39.4531 8.45312
Q42.4844 10.3594 44.1406 14.2031" id="Verdana-30"/>
      </defs>
      <g transform="translate(68.9821875 401.918125)scale(0.12 -0.12)">
       <use xlink:href="#Verdana-30"/>
      </g>
     </g>
    </g>
    <g id="xtick_2">
     <g id="line2d_8">
      <g>
       <use style="stroke:#000000;stroke-width:0.5;" x="161.28" xlink:href="#mc7db9fdffb" y="388.8"/>
      </g>
     </g>
     <g id="line2d_9">
      <g>
       <use style="stroke:#000000;stroke-width:0.5;" x="161.28" xlink:href="#m5a7d422ac3" y="43.2"/>
      </g>
     </g>
     <g id="text_2">
      <!-- 1000 -->
      <defs>
       <path d="
M52.9375 0
L13.5781 0
L13.5781 7.42188
L28.7188 7.42188
L28.7188 56.1562
L13.5781 56.1562
L13.5781 62.7969
Q16.6562 62.7969 20.1719 63.2969
Q23.6875 63.8125 25.4844 64.7969
Q27.7344 66.0156 29.0312 67.8906
Q30.3281 69.7812 30.5156 72.9531
L38.0938 72.9531
L38.0938 7.42188
L52.9375 7.42188
z
" id="Verdana-31"/>
      </defs>
      <g transform="translate(147.2315625 401.918125)scale(0.12 -0.12)">
       <use xlink:href="#Verdana-31"/>
       <use x="63.57421875" xlink:href="#Verdana-30"/>
       <use x="127.1484375" xlink:href="#Verdana-30"/>
       <use x="190.72265625" xlink:href="#Verdana-30"/>
      </g>
     </g>
    </g>
    <g id="xtick_3">
     <g id="line2d_10">
      <g>
       <use style="stroke:#000000;stroke-width:0.5;" x="250.56" xlink:href="#mc7db9fdffb" y="388.8"/>
      </g>
     </g>
     <g id="line2d_11">
      <g>
       <use style="stroke:#000000;stroke-width:0.5;" x="250.56" xlink:href="#m5a7d422ac3" y="43.2"/>
      </g>
     </g>
     <g id="text_3">
      <!-- 2000 -->
      <defs>
       <path d="
M57.0781 0
L7.85938 0
L7.85938 10.2031
Q12.9844 14.5938 18.1406 18.9844
Q23.2969 23.3906 27.7344 27.7344
Q37.1094 36.8125 40.5781 42.1562
Q44.0469 47.5156 44.0469 53.7188
Q44.0469 59.375 40.3125 62.5625
Q36.5781 65.7656 29.8906 65.7656
Q25.4375 65.7656 20.2656 64.2031
Q15.0938 62.6406 10.1562 59.4219
L9.67188 59.4219
L9.67188 69.6719
Q13.1406 71.3906 18.9219 72.7969
Q24.7031 74.2188 30.125 74.2188
Q41.3125 74.2188 47.6562 68.8125
Q54 63.4219 54 54.2031
Q54 50.0469 52.9531 46.4531
Q51.9062 42.875 49.8594 39.6562
Q47.9531 36.625 45.3906 33.6875
Q42.8281 30.7656 39.1562 27.2031
Q33.9375 22.0781 28.3594 17.2656
Q22.7969 12.4531 17.9688 8.34375
L57.0781 8.34375
z
" id="Verdana-32"/>
      </defs>
      <g transform="translate(236.1684375 401.918125)scale(0.12 -0.12)">
       <use xlink:href="#Verdana-32"/>
       <use x="63.57421875" xlink:href="#Verdana-30"/>
       <use x="127.1484375" xlink:href="#Verdana-30"/>
       <use x="190.72265625" xlink:href="#Verdana-30"/>
      </g>
     </g>
    </g>
    <g id="xtick_4">
     <g id="line2d_12">
      <g>
       <use style="stroke:#000000;stroke-width:0.5;" x="339.84" xlink:href="#mc7db9fdffb" y="388.8"/>
      </g>
     </g>
     <g id="line2d_13">
      <g>
       <use style="stroke:#000000;stroke-width:0.5;" x="339.84" xlink:href="#m5a7d422ac3" y="43.2"/>
      </g>
     </g>
     <g id="text_4">
      <!-- 3000 -->
      <defs>
       <path d="
M50.6875 35.0156
Q53.0312 32.9062 54.5469 29.7344
Q56.0625 26.5625 56.0625 21.5312
Q56.0625 16.5469 54.25 12.3906
Q52.4375 8.25 49.1719 5.17188
Q45.5156 1.76562 40.5469 0.125
Q35.5938 -1.51562 29.6875 -1.51562
Q23.6406 -1.51562 17.7812 -0.0625
Q11.9219 1.375 8.15625 3.07812
L8.15625 13.2812
L8.89062 13.2812
Q13.0312 10.5469 18.6406 8.73438
Q24.2656 6.9375 29.5 6.9375
Q32.5625 6.9375 36.0312 7.95312
Q39.5 8.98438 41.6562 10.9844
Q43.8906 13.1406 44.9844 15.7188
Q46.0938 18.3125 46.0938 22.2656
Q46.0938 26.1719 44.8438 28.7344
Q43.6094 31.2969 41.4062 32.7656
Q39.2031 34.2812 36.0781 34.8438
Q32.9531 35.4062 29.3438 35.4062
L24.9531 35.4062
L24.9531 43.5
L28.375 43.5
Q35.7969 43.5 40.2031 46.5938
Q44.625 49.7031 44.625 55.6719
Q44.625 58.2969 43.5 60.2656
Q42.3906 62.25 40.375 63.5312
Q38.2812 64.7969 35.8906 65.2812
Q33.5 65.7656 30.4688 65.7656
Q25.8281 65.7656 20.5938 64.1094
Q15.375 62.4531 10.75 59.4219
L10.25 59.4219
L10.25 69.625
Q13.7188 71.3438 19.5 72.7812
Q25.2969 74.2188 30.7188 74.2188
Q36.0312 74.2188 40.0781 73.2344
Q44.1406 72.2656 47.4062 70.125
Q50.9219 67.7812 52.7344 64.4531
Q54.5469 61.1406 54.5469 56.6875
Q54.5469 50.6406 50.2656 46.125
Q46 41.6094 40.1875 40.4375
L40.1875 39.75
Q42.5312 39.3594 45.5469 38.1094
Q48.5781 36.8594 50.6875 35.0156" id="Verdana-33"/>
      </defs>
      <g transform="translate(325.46625 401.918125)scale(0.12 -0.12)">
       <use xlink:href="#Verdana-33"/>
       <use x="63.57421875" xlink:href="#Verdana-30"/>
       <use x="127.1484375" xlink:href="#Verdana-30"/>
       <use x="190.72265625" xlink:href="#Verdana-30"/>
      </g>
     </g>
    </g>
    <g id="xtick_5">
     <g id="line2d_14">
      <g>
       <use style="stroke:#000000;stroke-width:0.5;" x="429.12" xlink:href="#mc7db9fdffb" y="388.8"/>
      </g>
     </g>
     <g id="line2d_15">
      <g>
       <use style="stroke:#000000;stroke-width:0.5;" x="429.12" xlink:href="#m5a7d422ac3" y="43.2"/>
      </g>
     </g>
     <g id="text_5">
      <!-- 4000 -->
      <defs>
       <path d="
M58.7344 20.4531
L47.9531 20.4531
L47.9531 0
L38.5781 0
L38.5781 20.4531
L3.76562 20.4531
L3.76562 31.6875
L38.9688 72.7031
L47.9531 72.7031
L47.9531 28.2656
L58.7344 28.2656
z

M38.5781 28.2656
L38.5781 61.0781
L10.4062 28.2656
z
" id="Verdana-34"/>
      </defs>
      <g transform="translate(414.4828125 401.918125)scale(0.12 -0.12)">
       <use xlink:href="#Verdana-34"/>
       <use x="63.57421875" xlink:href="#Verdana-30"/>
       <use x="127.1484375" xlink:href="#Verdana-30"/>
       <use x="190.72265625" xlink:href="#Verdana-30"/>
      </g>
     </g>
    </g>
    <g id="xtick_6">
     <g id="line2d_16">
      <g>
       <use style="stroke:#000000;stroke-width:0.5;" x="518.4" xlink:href="#mc7db9fdffb" y="388.8"/>
      </g>
     </g>
     <g id="line2d_17">
      <g>
       <use style="stroke:#000000;stroke-width:0.5;" x="518.4" xlink:href="#m5a7d422ac3" y="43.2"/>
      </g>
     </g>
     <g id="text_6">
      <!-- 5000 -->
      <defs>
       <path d="
M56.5 23.0938
Q56.5 18.0156 54.6406 13.375
Q52.7812 8.73438 49.5625 5.5625
Q46.0469 2.15625 41.1875 0.3125
Q36.3281 -1.51562 29.9375 -1.51562
Q23.9688 -1.51562 18.4531 -0.265625
Q12.9375 0.984375 9.125 2.73438
L9.125 13.0312
L9.8125 13.0312
Q13.8125 10.5 19.1875 8.71875
Q24.5625 6.9375 29.7344 6.9375
Q33.2031 6.9375 36.4531 7.90625
Q39.7031 8.89062 42.2344 11.3281
Q44.3906 13.4219 45.4844 16.3438
Q46.5781 19.2812 46.5781 23.1406
Q46.5781 26.9062 45.2812 29.4844
Q44 32.0781 41.7031 33.6406
Q39.1562 35.5 35.5156 36.25
Q31.8906 37.0156 27.3906 37.0156
Q23.0938 37.0156 19.1094 36.4219
Q15.1406 35.8438 12.25 35.25
L12.25 72.7031
L56 72.7031
L56 64.1562
L21.6875 64.1562
L21.6875 44.8281
Q23.7812 45.0156 25.9688 45.1094
Q28.1719 45.2188 29.7812 45.2188
Q35.6875 45.2188 40.125 44.2188
Q44.5781 43.2188 48.2969 40.6719
Q52.2031 37.9844 54.3438 33.7344
Q56.5 29.5 56.5 23.0938" id="Verdana-35"/>
      </defs>
      <g transform="translate(504.084375 401.918125)scale(0.12 -0.12)">
       <use xlink:href="#Verdana-35"/>
       <use x="63.57421875" xlink:href="#Verdana-30"/>
       <use x="127.1484375" xlink:href="#Verdana-30"/>
       <use x="190.72265625" xlink:href="#Verdana-30"/>
      </g>
     </g>
    </g>
    <g id="text_7">
     <!-- Objective function exectuions -->
     <defs>
      <path d="
M57.0312 27.6875
Q57.0312 20.8438 55.0938 15.375
Q53.1719 9.90625 49.9062 6.20312
Q46.4375 2.34375 42.2812 0.40625
Q38.1406 -1.51562 33.1562 -1.51562
Q28.5156 -1.51562 25.0469 -0.40625
Q21.5781 0.6875 18.2188 2.54688
L17.625 0
L9.03125 0
L9.03125 75.9844
L18.2188 75.9844
L18.2188 48.8281
Q22.0781 52 26.4219 54.0312
Q30.7656 56.0625 36.1875 56.0625
Q45.8438 56.0625 51.4375 48.6406
Q57.0312 41.2188 57.0312 27.6875
M47.5625 27.4375
Q47.5625 37.2031 44.3281 42.25
Q41.1094 47.3125 33.9375 47.3125
Q29.9375 47.3125 25.8281 45.5781
Q21.7344 43.8438 18.2188 41.1094
L18.2188 9.85938
Q22.125 8.10938 24.9219 7.42188
Q27.7344 6.73438 31.2969 6.73438
Q38.9219 6.73438 43.2344 11.7344
Q47.5625 16.75 47.5625 27.4375" id="Verdana-62"/>
      <path d="
M56.2031 54.5469
L34.125 0
L24.9062 0
L2.98438 54.5469
L12.9375 54.5469
L29.8281 11.1406
L46.5781 54.5469
z
" id="Verdana-76"/>
      <path d="
M56.25 0
L44.6719 0
L29.2031 20.9531
L13.625 0
L2.9375 0
L24.2188 27.2031
L3.125 54.5469
L14.7031 54.5469
L30.0781 33.9375
L45.5156 54.5469
L56.25 54.5469
L34.8125 27.6875
z
" id="Verdana-78"/>
      <path d="
M54.6875 26.3125
L14.5 26.3125
Q14.5 21.2969 16.0156 17.5469
Q17.5312 13.8125 20.1719 11.4219
Q22.7031 9.07812 26.1875 7.90625
Q29.6875 6.73438 33.8906 6.73438
Q39.4531 6.73438 45.0938 8.95312
Q50.7344 11.1875 53.125 13.3281
L53.6094 13.3281
L53.6094 3.32812
Q48.9688 1.375 44.1406 0.046875
Q39.3125 -1.26562 33.9844 -1.26562
Q20.4062 -1.26562 12.7812 6.07812
Q5.17188 13.4219 5.17188 26.9531
Q5.17188 40.3281 12.4688 48.1875
Q19.7812 56.0625 31.6875 56.0625
Q42.7188 56.0625 48.7031 49.6094
Q54.6875 43.1719 54.6875 31.2969
z

M45.75 33.3438
Q45.7031 40.5781 42.1094 44.5312
Q38.5312 48.4844 31.2031 48.4844
Q23.8281 48.4844 19.4531 44.1406
Q15.0938 39.7969 14.5 33.3438
z
" id="Verdana-65"/>
      <path d="
M49.3594 3.42188
Q44.7812 1.21875 40.6562 0
Q36.5312 -1.21875 31.8906 -1.21875
Q25.9844 -1.21875 21.0469 0.515625
Q16.1094 2.25 12.5938 5.76562
Q9.03125 9.28125 7.07812 14.6406
Q5.125 20.0156 5.125 27.2031
Q5.125 40.5781 12.4688 48.1875
Q19.8281 55.8125 31.8906 55.8125
Q36.5781 55.8125 41.0938 54.4844
Q45.6094 53.1719 49.3594 51.2656
L49.3594 41.0625
L48.875 41.0625
Q44.6719 44.3438 40.2031 46.0938
Q35.75 47.8594 31.5 47.8594
Q23.6875 47.8594 19.1719 42.6094
Q14.6562 37.3594 14.6562 27.2031
Q14.6562 17.3281 19.0625 12.0312
Q23.4844 6.73438 31.5 6.73438
Q34.2812 6.73438 37.1562 7.46875
Q40.0469 8.20312 42.3281 9.375
Q44.3438 10.4062 46.0938 11.5469
Q47.8594 12.7031 48.875 13.5312
L49.3594 13.5312
z
" id="Verdana-63"/>
      <path d="
M26.0312 63.6719
L15.6719 63.6719
L15.6719 73.1875
L26.0312 73.1875
z

M25.4375 -1.3125
Q25.4375 -10.8906 20.5469 -15.7656
Q15.6719 -20.6562 7.46875 -20.6562
Q5.51562 -20.6562 2.3125 -20.2656
Q-0.875 -19.875 -3.03125 -19.2812
L-3.03125 -10.5469
L-2.54688 -10.5469
Q-1.17188 -11.0781 1.14062 -11.7656
Q3.46875 -12.4531 5.67188 -12.4531
Q9.1875 -12.4531 11.3281 -11.4688
Q13.4844 -10.5 14.5469 -8.54688
Q15.625 -6.59375 15.9375 -3.82812
Q16.2656 -1.07812 16.2656 2.875
L16.2656 46.8281
L4.89062 46.8281
L4.89062 54.5469
L25.4375 54.5469
z
" id="Verdana-6a"/>
      <path d="
M18.8906 63.6719
L8.54688 63.6719
L8.54688 73.1875
L18.8906 73.1875
z

M18.3125 0
L9.125 0
L9.125 54.5469
L18.3125 54.5469
z
" id="Verdana-69"/>
      <path d="
M54.6406 0
L45.4531 0
L45.4531 31.0625
Q45.4531 34.8125 45.0156 38.1094
Q44.5781 41.4062 43.4062 43.2656
Q42.1875 45.3125 39.8906 46.3125
Q37.5938 47.3125 33.9375 47.3125
Q30.1719 47.3125 26.0625 45.4531
Q21.9688 43.6094 18.2188 40.7188
L18.2188 0
L9.03125 0
L9.03125 54.5469
L18.2188 54.5469
L18.2188 48.4844
Q22.5156 52.0469 27.0938 54.0469
Q31.6875 56.0625 36.5312 56.0625
Q45.3594 56.0625 50 50.7344
Q54.6406 45.4062 54.6406 35.4062
z
" id="Verdana-6e"/>
      <path d="
M48 15.7188
Q48 8.25 41.8125 3.46875
Q35.6406 -1.3125 24.9531 -1.3125
Q18.8906 -1.3125 13.8438 0.125
Q8.79688 1.5625 5.375 3.26562
L5.375 13.5781
L5.85938 13.5781
Q10.2031 10.2969 15.5156 8.375
Q20.8438 6.45312 25.7344 6.45312
Q31.7812 6.45312 35.2031 8.40625
Q38.625 10.3594 38.625 14.5469
Q38.625 17.7812 36.7656 19.4375
Q34.9062 21.0938 29.6406 22.2656
Q27.6875 22.7031 24.5312 23.2812
Q21.3906 23.875 18.7969 24.5625
Q11.625 26.4688 8.60938 30.1562
Q5.60938 33.8438 5.60938 39.2031
Q5.60938 42.5781 7 45.5469
Q8.40625 48.5312 11.2344 50.875
Q13.9688 53.1719 18.1875 54.5156
Q22.4062 55.8594 27.6406 55.8594
Q32.5156 55.8594 37.5156 54.6562
Q42.5312 53.4688 45.8438 51.7656
L45.8438 41.9375
L45.3594 41.9375
Q41.8438 44.5312 36.8125 46.3125
Q31.7812 48.0938 26.9531 48.0938
Q21.9219 48.0938 18.4531 46.1562
Q14.9844 44.2344 14.9844 40.4375
Q14.9844 37.0625 17.0938 35.3594
Q19.1406 33.6406 23.7344 32.5625
Q26.2656 31.9844 29.4062 31.3906
Q32.5625 30.8125 34.6719 30.3281
Q41.0625 28.8594 44.5312 25.2969
Q48 21.6875 48 15.7188" id="Verdana-73"/>
      <path d="
M38.375 67.0938
L37.8906 67.0938
Q36.375 67.5312 33.9375 67.9844
Q31.5 68.4531 29.6406 68.4531
Q23.7344 68.4531 21.0625 65.8438
Q18.4062 63.2344 18.4062 56.3906
L18.4062 54.5469
L34.9688 54.5469
L34.9688 46.8281
L18.7031 46.8281
L18.7031 0
L9.51562 0
L9.51562 46.8281
L3.32812 46.8281
L3.32812 54.5469
L9.51562 54.5469
L9.51562 56.3438
Q9.51562 66.0625 14.3438 71.2656
Q19.1875 76.4688 28.3281 76.4688
Q31.3906 76.4688 33.8594 76.1719
Q36.3281 75.875 38.375 75.4844
z
" id="Verdana-66"/>
      <path id="Verdana-20"/>
      <path d="
M63.9688 64.3594
Q68.4062 59.4688 70.7656 52.3906
Q73.1406 45.3125 73.1406 36.3281
Q73.1406 27.3438 70.7188 20.2344
Q68.3125 13.1406 63.9688 8.40625
Q59.4688 3.46875 53.3438 0.96875
Q47.2188 -1.51562 39.3594 -1.51562
Q31.6875 -1.51562 25.4062 1.01562
Q19.1406 3.5625 14.75 8.40625
Q10.3594 13.2344 7.98438 20.2656
Q5.60938 27.2969 5.60938 36.3281
Q5.60938 45.2188 7.95312 52.2656
Q10.2969 59.3281 14.7969 64.3594
Q19.0938 69.1406 25.4688 71.6719
Q31.8438 74.2188 39.3594 74.2188
Q47.1719 74.2188 53.3906 71.6562
Q59.625 69.0938 63.9688 64.3594
M63.0938 36.3281
Q63.0938 50.4844 56.7344 58.1719
Q50.3906 65.875 39.4062 65.875
Q28.3281 65.875 22 58.1719
Q15.6719 50.4844 15.6719 36.3281
Q15.6719 22.0156 22.1094 14.4219
Q28.5625 6.84375 39.4062 6.84375
Q50.25 6.84375 56.6719 14.4219
Q63.0938 22.0156 63.0938 36.3281" id="Verdana-4f"/>
      <path d="
M55.5156 27.25
Q55.5156 13.9219 48.6719 6.20312
Q41.8438 -1.51562 30.375 -1.51562
Q18.7969 -1.51562 11.9844 6.20312
Q5.17188 13.9219 5.17188 27.25
Q5.17188 40.5781 11.9844 48.3125
Q18.7969 56.0625 30.375 56.0625
Q41.8438 56.0625 48.6719 48.3125
Q55.5156 40.5781 55.5156 27.25
M46.0469 27.25
Q46.0469 37.8438 41.8906 42.9844
Q37.75 48.1406 30.375 48.1406
Q22.9062 48.1406 18.7812 42.9844
Q14.6562 37.8438 14.6562 27.25
Q14.6562 17 18.7969 11.6875
Q22.9531 6.39062 30.375 6.39062
Q37.7031 6.39062 41.875 11.6406
Q46.0469 16.8906 46.0469 27.25" id="Verdana-6f"/>
      <path d="
M37.3594 0.484375
Q34.7656 -0.203125 31.7031 -0.640625
Q28.6562 -1.07812 26.2656 -1.07812
Q17.9219 -1.07812 13.5781 3.40625
Q9.23438 7.90625 9.23438 17.8281
L9.23438 46.8281
L3.03125 46.8281
L3.03125 54.5469
L9.23438 54.5469
L9.23438 70.2188
L18.4062 70.2188
L18.4062 54.5469
L37.3594 54.5469
L37.3594 46.8281
L18.4062 46.8281
L18.4062 21.9688
Q18.4062 17.6719 18.5938 15.25
Q18.7969 12.8438 19.9688 10.75
Q21.0469 8.79688 22.9219 7.89062
Q24.8125 6.98438 28.6562 6.98438
Q30.9062 6.98438 33.3438 7.64062
Q35.7969 8.29688 36.8594 8.73438
L37.3594 8.73438
z
" id="Verdana-74"/>
      <path d="
M54.25 0
L45.0625 0
L45.0625 6.0625
Q40.4375 2.39062 36.1875 0.4375
Q31.9375 -1.51562 26.8125 -1.51562
Q18.2188 -1.51562 13.4219 3.73438
Q8.64062 8.98438 8.64062 19.1406
L8.64062 54.5469
L17.8281 54.5469
L17.8281 23.4844
Q17.8281 19.3438 18.2188 16.375
Q18.6094 13.4219 19.875 11.3281
Q21.1875 9.1875 23.2812 8.20312
Q25.3906 7.23438 29.3906 7.23438
Q32.9531 7.23438 37.1719 9.07812
Q41.4062 10.9375 45.0625 13.8125
L45.0625 54.5469
L54.25 54.5469
z
" id="Verdana-75"/>
     </defs>
     <g transform="translate(206.5078125 418.509375)scale(0.12 -0.12)">
      <use xlink:href="#Verdana-4f"/>
      <use x="78.7109375" xlink:href="#Verdana-62"/>
      <use x="141.015625" xlink:href="#Verdana-6a"/>
      <use x="175.439453125" xlink:href="#Verdana-65"/>
      <use x="235.009765625" xlink:href="#Verdana-63"/>
      <use x="287.109375" xlink:href="#Verdana-74"/>
      <use x="326.513671875" xlink:href="#Verdana-69"/>
      <use x="353.955078125" xlink:href="#Verdana-76"/>
      <use x="412.259765625" xlink:href="#Verdana-65"/>
      <use x="471.830078125" xlink:href="#Verdana-20"/>
      <use x="506.986328125" xlink:href="#Verdana-66"/>
      <use x="542.142578125" xlink:href="#Verdana-75"/>
      <use x="605.423828125" xlink:href="#Verdana-6e"/>
      <use x="668.705078125" xlink:href="#Verdana-63"/>
      <use x="720.8046875" xlink:href="#Verdana-74"/>
      <use x="760.208984375" xlink:href="#Verdana-69"/>
      <use x="787.650390625" xlink:href="#Verdana-6f"/>
      <use x="848.34375" xlink:href="#Verdana-6e"/>
      <use x="911.625" xlink:href="#Verdana-20"/>
      <use x="946.78125" xlink:href="#Verdana-65"/>
      <use x="1006.3515625" xlink:href="#Verdana-78"/>
      <use x="1064.40625" xlink:href="#Verdana-65"/>
      <use x="1123.9765625" xlink:href="#Verdana-63"/>
      <use x="1176.076171875" xlink:href="#Verdana-74"/>
      <use x="1215.48046875" xlink:href="#Verdana-75"/>
      <use x="1278.76171875" xlink:href="#Verdana-69"/>
      <use x="1306.203125" xlink:href="#Verdana-6f"/>
      <use x="1366.896484375" xlink:href="#Verdana-6e"/>
      <use x="1430.177734375" xlink:href="#Verdana-73"/>
     </g>
    </g>
   </g>
   <g id="matplotlib.axis_2">
    <g id="ytick_1">
     <g id="line2d_18">
      <defs>
       <path d="
M0 0
L4 0" id="md7965d1ba0" style="stroke:#000000;stroke-width:0.5;"/>
      </defs>
      <g>
       <use style="stroke:#000000;stroke-width:0.5;" x="72.0" xlink:href="#md7965d1ba0" y="388.8"/>
      </g>
     </g>
     <g id="line2d_19">
      <defs>
       <path d="
M0 0
L-4 0" id="md9a1c1a7cd" style="stroke:#000000;stroke-width:0.5;"/>
      </defs>
      <g>
       <use style="stroke:#000000;stroke-width:0.5;" x="518.4" xlink:href="#md9a1c1a7cd" y="388.8"/>
      </g>
     </g>
     <g id="text_8">
      <!-- −100 -->
      <defs>
       <path d="
M71.0938 27.9375
L10.75 27.9375
L10.75 35.75
L71.0938 35.75
z
" id="Verdana-2212"/>
      </defs>
      <g transform="translate(37.371875 392.1515625)scale(0.12 -0.12)">
       <use xlink:href="#Verdana-2212"/>
       <use x="81.8359375" xlink:href="#Verdana-31"/>
       <use x="145.41015625" xlink:href="#Verdana-30"/>
       <use x="208.984375" xlink:href="#Verdana-30"/>
      </g>
     </g>
    </g>
    <g id="ytick_2">
     <g id="line2d_20">
      <g>
       <use style="stroke:#000000;stroke-width:0.5;" x="72.0" xlink:href="#md7965d1ba0" y="339.428571429"/>
      </g>
     </g>
     <g id="line2d_21">
      <g>
       <use style="stroke:#000000;stroke-width:0.5;" x="518.4" xlink:href="#md9a1c1a7cd" y="339.428571429"/>
      </g>
     </g>
     <g id="text_9">
      <!-- −90 -->
      <defs>
       <path d="
M56.9844 40.7188
Q56.9844 31.2031 54.8125 23.4375
Q52.6406 15.6719 48.25 10.2031
Q43.7969 4.64062 37.1094 1.60938
Q30.4219 -1.42188 21.3906 -1.42188
Q18.8438 -1.42188 16.5938 -1.14062
Q14.3594 -0.875 12.5938 -0.296875
L12.5938 9.03125
L13.0938 9.03125
Q14.5 8.29688 17.0781 7.64062
Q19.6719 6.98438 22.8594 6.98438
Q33.6406 6.98438 39.7656 13.4531
Q45.9062 19.9219 46.875 31.2969
Q42.3281 28.5625 38.3281 27.3906
Q34.3281 26.2188 29.5938 26.2188
Q25.0938 26.2188 21.4531 27.0938
Q17.8281 27.9844 14.1562 30.5156
Q9.85938 33.5 7.6875 38.0781
Q5.51562 42.6719 5.51562 49.0781
Q5.51562 60.2031 12.8438 67.1875
Q20.1719 74.1719 30.7188 74.1719
Q35.9844 74.1719 40.4688 72.5312
Q44.9688 70.9062 48.3438 67.625
Q52.4844 63.5781 54.7344 57.2031
Q56.9844 50.8281 56.9844 40.7188
M47.125 42.8281
Q47.125 50.3906 45.5625 54.9844
Q44 59.5781 41.2656 62.1094
Q38.9688 64.3125 36.3281 65.2656
Q33.6875 66.2188 30.6094 66.2188
Q23.5781 66.2188 19.5 61.8125
Q15.4375 57.4219 15.4375 49.4688
Q15.4375 44.8281 16.75 41.8906
Q18.0625 38.9688 21.1875 36.7656
Q23.3906 35.25 26.0156 34.7344
Q28.6562 34.2344 31.8906 34.2344
Q35.6875 34.2344 39.5938 35.25
Q43.5 36.2812 46.9219 38.2344
Q46.9688 39.2656 47.0469 40.2656
Q47.125 41.2656 47.125 42.8281" id="Verdana-39"/>
      </defs>
      <g transform="translate(45.00125 342.780133929)scale(0.12 -0.12)">
       <use xlink:href="#Verdana-2212"/>
       <use x="81.8359375" xlink:href="#Verdana-39"/>
       <use x="145.41015625" xlink:href="#Verdana-30"/>
      </g>
     </g>
    </g>
    <g id="ytick_3">
     <g id="line2d_22">
      <g>
       <use style="stroke:#000000;stroke-width:0.5;" x="72.0" xlink:href="#md7965d1ba0" y="290.057142857"/>
      </g>
     </g>
     <g id="line2d_23">
      <g>
       <use style="stroke:#000000;stroke-width:0.5;" x="518.4" xlink:href="#md9a1c1a7cd" y="290.057142857"/>
      </g>
     </g>
     <g id="text_10">
      <!-- −80 -->
      <defs>
       <path d="
M57.625 20.2656
Q57.625 10.8438 50.2656 4.59375
Q42.9219 -1.65625 31.7812 -1.65625
Q19.9688 -1.65625 12.9531 4.4375
Q5.95312 10.5469 5.95312 20.0625
Q5.95312 26.125 9.46875 31.0312
Q12.9844 35.9375 19.3906 38.8125
L19.3906 39.1094
Q13.5312 42.2344 10.7188 45.9375
Q7.90625 49.6562 7.90625 55.2188
Q7.90625 63.4219 14.6406 68.8906
Q21.3906 74.3594 31.7812 74.3594
Q42.6719 74.3594 49.1719 69.1406
Q55.6719 63.9219 55.6719 55.8594
Q55.6719 50.9219 52.5938 46.1562
Q49.5156 41.4062 43.5625 38.7188
L43.5625 38.4219
Q50.3906 35.5 54 31.2031
Q57.625 26.9062 57.625 20.2656
M46.0469 55.7656
Q46.0469 60.9844 42.0156 64.0781
Q37.9844 67.1875 31.7344 67.1875
Q25.5938 67.1875 21.6562 64.25
Q17.7188 61.3281 17.7188 56.3438
Q17.7188 52.8281 19.7031 50.2656
Q21.6875 47.7031 25.6875 45.7031
Q27.4844 44.8281 30.875 43.4062
Q34.2812 42 37.5 41.0625
Q42.3281 44.2812 44.1875 47.75
Q46.0469 51.2188 46.0469 55.7656
M47.5625 19.3438
Q47.5625 23.8281 45.5781 26.5312
Q43.6094 29.25 37.8438 31.9844
Q35.5469 33.0625 32.8125 33.9844
Q30.0781 34.9062 25.5312 36.5781
Q21.1406 34.1875 18.4844 30.0781
Q15.8281 25.9844 15.8281 20.7969
Q15.8281 14.2031 20.3594 9.90625
Q24.9062 5.60938 31.8906 5.60938
Q39.0156 5.60938 43.2812 9.26562
Q47.5625 12.9375 47.5625 19.3438" id="Verdana-38"/>
      </defs>
      <g transform="translate(45.00125 293.408705357)scale(0.12 -0.12)">
       <use xlink:href="#Verdana-2212"/>
       <use x="81.8359375" xlink:href="#Verdana-38"/>
       <use x="145.41015625" xlink:href="#Verdana-30"/>
      </g>
     </g>
    </g>
    <g id="ytick_4">
     <g id="line2d_24">
      <g>
       <use style="stroke:#000000;stroke-width:0.5;" x="72.0" xlink:href="#md7965d1ba0" y="240.685714286"/>
      </g>
     </g>
     <g id="line2d_25">
      <g>
       <use style="stroke:#000000;stroke-width:0.5;" x="518.4" xlink:href="#md9a1c1a7cd" y="240.685714286"/>
      </g>
     </g>
     <g id="text_11">
      <!-- −70 -->
      <defs>
       <path d="
M57.2812 61.8125
L24.3594 0
L13.9219 0
L48.9219 64.1562
L7.51562 64.1562
L7.51562 72.7031
L57.2812 72.7031
z
" id="Verdana-37"/>
      </defs>
      <g transform="translate(45.00125 244.037276786)scale(0.12 -0.12)">
       <use xlink:href="#Verdana-2212"/>
       <use x="81.8359375" xlink:href="#Verdana-37"/>
       <use x="145.41015625" xlink:href="#Verdana-30"/>
      </g>
     </g>
    </g>
    <g id="ytick_5">
     <g id="line2d_26">
      <g>
       <use style="stroke:#000000;stroke-width:0.5;" x="72.0" xlink:href="#md7965d1ba0" y="191.314285714"/>
      </g>
     </g>
     <g id="line2d_27">
      <g>
       <use style="stroke:#000000;stroke-width:0.5;" x="518.4" xlink:href="#md9a1c1a7cd" y="191.314285714"/>
      </g>
     </g>
     <g id="text_12">
      <!-- −60 -->
      <defs>
       <path d="
M58.1562 23.5781
Q58.1562 12.5 50.8594 5.48438
Q43.5625 -1.51562 32.9531 -1.51562
Q27.5938 -1.51562 23.1875 0.140625
Q18.7969 1.8125 15.4375 5.07812
Q11.2344 9.125 8.95312 15.8125
Q6.6875 22.5156 6.6875 31.9375
Q6.6875 41.6094 8.76562 49.0781
Q10.8438 56.5469 15.375 62.3594
Q19.6719 67.875 26.4531 70.9688
Q33.25 74.0781 42.2812 74.0781
Q45.1719 74.0781 47.125 73.8281
Q49.0781 73.5781 51.0781 72.9531
L51.0781 63.625
L50.5938 63.625
Q49.2188 64.3594 46.4531 65.0156
Q43.7031 65.6719 40.8281 65.6719
Q30.3281 65.6719 24.0781 59.1094
Q17.8281 52.5469 16.7969 41.3594
Q20.9062 43.8438 24.875 45.1406
Q28.8594 46.4375 34.0781 46.4375
Q38.7188 46.4375 42.25 45.5781
Q45.7969 44.7344 49.5156 42.1406
Q53.8125 39.1562 55.9844 34.6094
Q58.1562 30.0781 58.1562 23.5781
M48.25 23.1875
Q48.25 27.7344 46.9062 30.7031
Q45.5625 33.6875 42.4844 35.8906
Q40.2344 37.4531 37.5 37.9375
Q34.7656 38.4219 31.7812 38.4219
Q27.6406 38.4219 24.0781 37.4375
Q20.5156 36.4688 16.75 34.4219
Q16.6562 33.3438 16.5938 32.3438
Q16.5469 31.3438 16.5469 29.8281
Q16.5469 22.125 18.1406 17.6562
Q19.7344 13.1875 22.5156 10.5938
Q24.75 8.45312 27.3594 7.45312
Q29.9844 6.45312 33.0625 6.45312
Q40.1406 6.45312 44.1875 10.7656
Q48.25 15.0938 48.25 23.1875" id="Verdana-36"/>
      </defs>
      <g transform="translate(45.00125 194.665848214)scale(0.12 -0.12)">
       <use xlink:href="#Verdana-2212"/>
       <use x="81.8359375" xlink:href="#Verdana-36"/>
       <use x="145.41015625" xlink:href="#Verdana-30"/>
      </g>
     </g>
    </g>
    <g id="ytick_6">
     <g id="line2d_28">
      <g>
       <use style="stroke:#000000;stroke-width:0.5;" x="72.0" xlink:href="#md7965d1ba0" y="141.942857143"/>
      </g>
     </g>
     <g id="line2d_29">
      <g>
       <use style="stroke:#000000;stroke-width:0.5;" x="518.4" xlink:href="#md9a1c1a7cd" y="141.942857143"/>
      </g>
     </g>
     <g id="text_13">
      <!-- −50 -->
      <g transform="translate(45.00125 145.294419643)scale(0.12 -0.12)">
       <use xlink:href="#Verdana-2212"/>
       <use x="81.8359375" xlink:href="#Verdana-35"/>
       <use x="145.41015625" xlink:href="#Verdana-30"/>
      </g>
     </g>
    </g>
    <g id="ytick_7">
     <g id="line2d_30">
      <g>
       <use style="stroke:#000000;stroke-width:0.5;" x="72.0" xlink:href="#md7965d1ba0" y="92.5714285714"/>
      </g>
     </g>
     <g id="line2d_31">
      <g>
       <use style="stroke:#000000;stroke-width:0.5;" x="518.4" xlink:href="#md9a1c1a7cd" y="92.5714285714"/>
      </g>
     </g>
     <g id="text_14">
      <!-- −40 -->
      <g transform="translate(45.00125 95.9229910714)scale(0.12 -0.12)">
       <use xlink:href="#Verdana-2212"/>
       <use x="81.8359375" xlink:href="#Verdana-34"/>
       <use x="145.41015625" xlink:href="#Verdana-30"/>
      </g>
     </g>
    </g>
    <g id="ytick_8">
     <g id="line2d_32">
      <g>
       <use style="stroke:#000000;stroke-width:0.5;" x="72.0" xlink:href="#md7965d1ba0" y="43.2"/>
      </g>
     </g>
     <g id="line2d_33">
      <g>
       <use style="stroke:#000000;stroke-width:0.5;" x="518.4" xlink:href="#md9a1c1a7cd" y="43.2"/>
      </g>
     </g>
     <g id="text_15">
      <!-- −30 -->
      <g transform="translate(45.00125 46.5515625)scale(0.12 -0.12)">
       <use xlink:href="#Verdana-2212"/>
       <use x="81.8359375" xlink:href="#Verdana-33"/>
       <use x="145.41015625" xlink:href="#Verdana-30"/>
      </g>
     </g>
    </g>
    <g id="text_16">
     <!-- Absolute Min -->
     <defs>
      <path d="
M18.3125 0
L9.125 0
L9.125 75.9844
L18.3125 75.9844
z
" id="Verdana-6c"/>
      <path d="
M74.5156 0
L64.8438 0
L64.8438 62.6406
L44.625 20.0156
L38.875 20.0156
L18.7969 62.6406
L18.7969 0
L9.76562 0
L9.76562 72.7031
L22.9531 72.7031
L42.3281 32.2344
L61.0781 72.7031
L74.5156 72.7031
z
" id="Verdana-4d"/>
      <path d="
M67.0938 0
L56.7812 0
L49.6562 20.2656
L18.2188 20.2656
L11.0781 0
L1.26562 0
L27.7344 72.7031
L40.625 72.7031
z

M46.6875 28.5625
L33.9375 64.2656
L21.1406 28.5625
z
" id="Verdana-41"/>
     </defs>
     <g transform="translate(29.956875 254.0803125)rotate(-90.0)scale(0.12 -0.12)">
      <use xlink:href="#Verdana-41"/>
      <use x="68.359375" xlink:href="#Verdana-62"/>
      <use x="130.6640625" xlink:href="#Verdana-73"/>
      <use x="182.763671875" xlink:href="#Verdana-6f"/>
      <use x="243.45703125" xlink:href="#Verdana-6c"/>
      <use x="270.8984375" xlink:href="#Verdana-75"/>
      <use x="334.1796875" xlink:href="#Verdana-74"/>
      <use x="373.583984375" xlink:href="#Verdana-65"/>
      <use x="433.154296875" xlink:href="#Verdana-20"/>
      <use x="468.310546875" xlink:href="#Verdana-4d"/>
      <use x="552.587890625" xlink:href="#Verdana-69"/>
      <use x="580.029296875" xlink:href="#Verdana-6e"/>
     </g>
    </g>
   </g>
   <g id="patch_3">
    <path d="
M72 43.2
L518.4 43.2" style="fill:none;stroke:#000000;"/>
   </g>
   <g id="patch_4">
    <path d="
M72 388.8
L72 43.2" style="fill:none;stroke:#000000;"/>
   </g>
   <g id="patch_5">
    <path d="
M518.4 388.8
L518.4 43.2" style="fill:none;stroke:#000000;"/>
   </g>
   <g id="patch_6">
    <path d="
M72 388.8
L518.4 388.8" style="fill:none;stroke:#000000;"/>
   </g>
   <g id="text_17">
    <!-- Ripple01 Absolute Min -->
    <defs>
     <path d="
M57.0312 27.9375
Q57.0312 21.2969 55.125 15.7969
Q53.2188 10.2969 49.75 6.5
Q46.5312 2.875 42.1562 0.890625
Q37.7969 -1.07812 32.9062 -1.07812
Q28.6562 -1.07812 25.2188 -0.140625
Q21.7812 0.78125 18.2188 2.73438
L18.2188 -20.125
L9.03125 -20.125
L9.03125 54.5469
L18.2188 54.5469
L18.2188 48.8281
Q21.875 51.9062 26.4375 53.9844
Q31 56.0625 36.1875 56.0625
Q46.0469 56.0625 51.5312 48.6094
Q57.0312 41.1562 57.0312 27.9375
M47.5625 27.6875
Q47.5625 37.5469 44.1875 42.4219
Q40.8281 47.3125 33.8438 47.3125
Q29.8906 47.3125 25.875 45.5938
Q21.875 43.8906 18.2188 41.1094
L18.2188 10.2031
Q22.125 8.45312 24.9219 7.8125
Q27.7344 7.17188 31.2969 7.17188
Q38.9688 7.17188 43.2656 12.3438
Q47.5625 17.5312 47.5625 27.6875" id="Verdana-70"/>
     <path d="
M69.9219 0
L57.375 0
L33.0625 28.9062
L19.4375 28.9062
L19.4375 0
L9.76562 0
L9.76562 72.7031
L30.125 72.7031
Q36.7188 72.7031 41.1094 71.8438
Q45.5156 71 49.0312 68.7969
Q52.9844 66.3125 55.2031 62.5156
Q57.4219 58.7344 57.4219 52.9375
Q57.4219 45.0625 53.4688 39.7656
Q49.5156 34.4688 42.5781 31.7812
z

M47.3125 52.25
Q47.3125 55.375 46.2188 57.7812
Q45.125 60.2031 42.5781 61.8594
Q40.4844 63.2812 37.5938 63.8438
Q34.7188 64.4062 30.8125 64.4062
L19.4375 64.4062
L19.4375 36.9688
L29.2031 36.9688
Q33.7969 36.9688 37.2031 37.7656
Q40.625 38.5781 43.0156 40.7656
Q45.2188 42.8281 46.2656 45.4844
Q47.3125 48.1406 47.3125 52.25" id="Verdana-52"/>
    </defs>
    <g transform="translate(215.59725 38.2)scale(0.144 -0.144)">
     <use xlink:href="#Verdana-52"/>
     <use x="69.53125" xlink:href="#Verdana-69"/>
     <use x="96.97265625" xlink:href="#Verdana-70"/>
     <use x="159.27734375" xlink:href="#Verdana-70"/>
     <use x="221.58203125" xlink:href="#Verdana-6c"/>
     <use x="249.0234375" xlink:href="#Verdana-65"/>
     <use x="308.59375" xlink:href="#Verdana-30"/>
     <use x="372.16796875" xlink:href="#Verdana-31"/>
     <use x="435.7421875" xlink:href="#Verdana-20"/>
     <use x="470.8984375" xlink:href="#Verdana-41"/>
     <use x="539.2578125" xlink:href="#Verdana-62"/>
     <use x="601.5625" xlink:href="#Verdana-73"/>
     <use x="653.662109375" xlink:href="#Verdana-6f"/>
     <use x="714.35546875" xlink:href="#Verdana-6c"/>
     <use x="741.796875" xlink:href="#Verdana-75"/>
     <use x="805.078125" xlink:href="#Verdana-74"/>
     <use x="844.482421875" xlink:href="#Verdana-65"/>
     <use x="904.052734375" xlink:href="#Verdana-20"/>
     <use x="939.208984375" xlink:href="#Verdana-4d"/>
     <use x="1023.486328125" xlink:href="#Verdana-69"/>
     <use x="1050.927734375" xlink:href="#Verdana-6e"/>
    </g>
   </g>
   <g id="legend_1">
    <g id="patch_7">
     <path d="
M407.18 270.759
L511.2 270.759
L511.2 161.241
L407.18 161.241
L407.18 270.759
z
" style="fill:#ffffff;stroke:#000000;"/>
    </g>
    <g id="line2d_34">
     <path d="
M417.26 172.902
L437.42 172.902" style="fill:none;stroke:#0000ff;stroke-dasharray:6.000000,2.000000;stroke-dashoffset:0.0;"/>
    </g>
    <g id="line2d_35"/>
    <g id="text_18">
     <!-- AMPGO -->
     <defs>
      <path d="
M57.3281 50.7344
Q57.3281 45.9062 55.6406 41.7656
Q53.9531 37.6406 50.9219 34.625
Q47.1719 30.8594 42.0469 28.9688
Q36.9219 27.0938 29.1094 27.0938
L19.4375 27.0938
L19.4375 0
L9.76562 0
L9.76562 72.7031
L29.5 72.7031
Q36.0312 72.7031 40.5781 71.6094
Q45.125 70.5156 48.6406 68.1719
Q52.7812 65.375 55.0469 61.2188
Q57.3281 57.0781 57.3281 50.7344
M47.2656 50.4844
Q47.2656 54.25 45.9375 57.0312
Q44.625 59.8125 41.9375 61.5781
Q39.5938 63.0938 36.5938 63.75
Q33.5938 64.4062 29 64.4062
L19.4375 64.4062
L19.4375 35.3594
L27.5938 35.3594
Q33.4531 35.3594 37.1094 36.4062
Q40.7656 37.4531 43.0625 39.75
Q45.3594 42.0938 46.3125 44.6719
Q47.2656 47.2656 47.2656 50.4844" id="Verdana-50"/>
      <path d="
M70.4062 5.375
Q64.4531 2.64062 57.3906 0.609375
Q50.3438 -1.42188 43.75 -1.42188
Q35.25 -1.42188 28.1719 0.921875
Q21.0938 3.26562 16.1094 7.95312
Q11.0781 12.7031 8.34375 19.7969
Q5.60938 26.9062 5.60938 36.4219
Q5.60938 53.8594 15.7969 63.9375
Q25.9844 74.0312 43.75 74.0312
Q49.9531 74.0312 56.4219 72.5312
Q62.8906 71.0469 70.3594 67.4844
L70.3594 56
L69.4844 56
Q67.9688 57.1719 65.0781 59.0781
Q62.2031 60.9844 59.4219 62.25
Q56.0625 63.7656 51.7812 64.7656
Q47.5156 65.7656 42.0938 65.7656
Q29.8906 65.7656 22.7812 57.9219
Q15.6719 50.0938 15.6719 36.7188
Q15.6719 22.6094 23.0938 14.7656
Q30.5156 6.9375 43.3125 6.9375
Q48 6.9375 52.6562 7.85938
Q57.3281 8.79688 60.8438 10.25
L60.8438 28.0781
L41.3594 28.0781
L41.3594 36.5781
L70.4062 36.5781
z
" id="Verdana-47"/>
     </defs>
     <g transform="translate(453.26025 177.942375)scale(0.144 -0.144)">
      <use xlink:href="#Verdana-41"/>
      <use x="68.359375" xlink:href="#Verdana-4d"/>
      <use x="152.63671875" xlink:href="#Verdana-50"/>
      <use x="212.939453125" xlink:href="#Verdana-47"/>
      <use x="290.478515625" xlink:href="#Verdana-4f"/>
     </g>
    </g>
    <g id="line2d_36">
     <path d="
M417.26 193.942
L437.42 193.942" style="fill:none;stroke:#008000;stroke-dasharray:1.000000,1.000000;stroke-dashoffset:0.0;"/>
    </g>
    <g id="line2d_37"/>
    <g id="text_19">
     <!-- Anneal -->
     <defs>
      <path d="
M51.4219 0
L42.2812 0
L42.2812 5.8125
Q41.0625 4.98438 38.9844 3.48438
Q36.9219 2 34.9688 1.125
Q32.6719 0 29.6875 -0.75
Q26.7031 -1.51562 22.7031 -1.51562
Q15.3281 -1.51562 10.2031 3.35938
Q5.07812 8.25 5.07812 15.8281
Q5.07812 22.0156 7.73438 25.8438
Q10.4062 29.6875 15.3281 31.8906
Q20.3125 34.0781 27.2969 34.8594
Q34.2812 35.6406 42.2812 36.0312
L42.2812 37.4531
Q42.2812 40.5781 41.1875 42.625
Q40.0938 44.6719 38.0312 45.8438
Q36.0781 46.9688 33.3438 47.3594
Q30.6094 47.75 27.6406 47.75
Q24.0312 47.75 19.5781 46.7969
Q15.1406 45.8438 10.4062 44.0469
L9.90625 44.0469
L9.90625 53.375
Q12.5938 54.1094 17.6719 54.9844
Q22.75 55.8594 27.6875 55.8594
Q33.4531 55.8594 37.7188 54.9062
Q42 53.9531 45.125 51.6562
Q48.1875 49.4219 49.7969 45.8438
Q51.4219 42.2812 51.4219 37.0156
z

M42.2812 13.4219
L42.2812 28.6094
Q38.0938 28.375 32.3906 27.875
Q26.7031 27.3906 23.3906 26.4688
Q19.4375 25.3438 16.9844 22.9688
Q14.5469 20.6094 14.5469 16.4531
Q14.5469 11.7656 17.375 9.39062
Q20.2188 7.03125 26.0312 7.03125
Q30.8594 7.03125 34.8594 8.90625
Q38.875 10.7969 42.2812 13.4219" id="Verdana-61"/>
     </defs>
     <g transform="translate(453.26025 198.982125)scale(0.144 -0.144)">
      <use xlink:href="#Verdana-41"/>
      <use x="68.359375" xlink:href="#Verdana-6e"/>
      <use x="131.640625" xlink:href="#Verdana-6e"/>
      <use x="194.921875" xlink:href="#Verdana-65"/>
      <use x="254.4921875" xlink:href="#Verdana-61"/>
      <use x="314.55078125" xlink:href="#Verdana-6c"/>
     </g>
    </g>
    <g id="line2d_38">
     <path d="
M417.26 214.982
L437.42 214.982" style="fill:none;stroke:#ff0000;stroke-dasharray:3.000000,6.000000;stroke-dashoffset:0.0;"/>
    </g>
    <g id="line2d_39"/>
    <g id="text_20">
     <!-- BSA -->
     <defs>
      <path d="
M64.5938 22.3594
Q64.5938 16.9375 62.5469 12.7812
Q60.5 8.64062 57.0312 5.95312
Q52.9375 2.73438 48.0156 1.35938
Q43.1094 0 35.5469 0
L9.76562 0
L9.76562 72.7031
L31.2969 72.7031
Q39.2656 72.7031 43.2188 72.1094
Q47.1719 71.5312 50.7812 69.6719
Q54.7812 67.5781 56.5938 64.2812
Q58.4062 60.9844 58.4062 56.3906
Q58.4062 51.2188 55.7656 47.5781
Q53.125 43.9531 48.7344 41.75
L48.7344 41.3594
Q56.1094 39.8438 60.3438 34.8906
Q64.5938 29.9375 64.5938 22.3594
M48.3438 55.125
Q48.3438 57.7656 47.4531 59.5625
Q46.5781 61.375 44.625 62.5
Q42.3281 63.8125 39.0625 64.125
Q35.7969 64.4531 30.9531 64.4531
L19.4375 64.4531
L19.4375 43.4531
L31.9375 43.4531
Q36.4688 43.4531 39.1562 43.9219
Q41.8438 44.3906 44.1406 45.8438
Q46.4375 47.3125 47.3906 49.625
Q48.3438 51.9531 48.3438 55.125
M54.5469 21.9688
Q54.5469 26.375 53.2188 28.9531
Q51.9062 31.5469 48.4375 33.3438
Q46.0938 34.5781 42.75 34.9375
Q39.4062 35.2969 34.625 35.2969
L19.4375 35.2969
L19.4375 8.25
L32.2344 8.25
Q38.5781 8.25 42.625 8.90625
Q46.6875 9.57812 49.2656 11.3281
Q52 13.2344 53.2656 15.6719
Q54.5469 18.1094 54.5469 21.9688" id="Verdana-42"/>
      <path d="
M62.5938 20.75
Q62.5938 16.5 60.6094 12.3438
Q58.6406 8.20312 55.0781 5.32812
Q51.1719 2.20312 45.9688 0.4375
Q40.7656 -1.3125 33.4531 -1.3125
Q25.5938 -1.3125 19.3125 0.140625
Q13.0312 1.60938 6.54688 4.5
L6.54688 16.6094
L7.23438 16.6094
Q12.75 12.0156 19.9688 9.51562
Q27.2031 7.03125 33.5469 7.03125
Q42.5312 7.03125 47.5312 10.3906
Q52.5469 13.7656 52.5469 19.3906
Q52.5469 24.2188 50.1719 26.5156
Q47.7969 28.8125 42.9688 30.0781
Q39.3125 31.0625 35.0312 31.6875
Q30.7656 32.3281 25.9844 33.2969
Q16.3125 35.3594 11.6406 40.3125
Q6.98438 45.2656 6.98438 53.2188
Q6.98438 62.3594 14.6875 68.1875
Q22.4062 74.0312 34.2812 74.0312
Q41.9375 74.0312 48.3281 72.5625
Q54.7344 71.0938 59.6719 68.9531
L59.6719 57.5156
L58.9844 57.5156
Q54.8281 61.0312 48.0625 63.3438
Q41.3125 65.6719 34.2344 65.6719
Q26.4688 65.6719 21.75 62.4531
Q17.0469 59.2344 17.0469 54.1562
Q17.0469 49.6094 19.3906 47.0156
Q21.7344 44.4375 27.6406 43.0625
Q30.7656 42.3906 36.5156 41.4062
Q42.2812 40.4375 46.2969 39.4062
Q54.3906 37.25 58.4844 32.9062
Q62.5938 28.5625 62.5938 20.75" id="Verdana-53"/>
     </defs>
     <g transform="translate(453.26025 220.021875)scale(0.144 -0.144)">
      <use xlink:href="#Verdana-42"/>
      <use x="68.5546875" xlink:href="#Verdana-53"/>
      <use x="135.9140625" xlink:href="#Verdana-41"/>
     </g>
    </g>
    <g id="line2d_40">
     <path d="
M417.26 236.022
L437.42 236.022" style="fill:none;stroke:#00bfbf;stroke-dasharray:5.000000,1.000000,2.000000,1.000000,5.000000,1.000000;stroke-dashoffset:0.0;"/>
    </g>
    <g id="line2d_41"/>
    <g id="text_21">
     <!-- Cuckoo -->
     <defs>
      <path d="
M58.5469 0
L46.4375 0
L24.5625 23.875
L18.6094 18.2188
L18.6094 0
L9.42188 0
L9.42188 75.9844
L18.6094 75.9844
L18.6094 27.25
L45.125 54.5469
L56.6875 54.5469
L31.3438 29.3438
z
" id="Verdana-6b"/>
      <path d="
M65.9219 5.28125
Q63.2344 4.10938 61.0625 3.07812
Q58.8906 2.04688 55.375 0.921875
Q52.3906 0 48.8906 -0.65625
Q45.4062 -1.3125 41.2188 -1.3125
Q33.2969 -1.3125 26.8281 0.90625
Q20.3594 3.125 15.5781 7.85938
Q10.8906 12.5 8.25 19.6562
Q5.60938 26.8125 5.60938 36.2812
Q5.60938 45.2656 8.14062 52.3438
Q10.6875 59.4219 15.4844 64.3125
Q20.125 69.0469 26.6875 71.5312
Q33.25 74.0312 41.2656 74.0312
Q47.125 74.0312 52.9531 72.6094
Q58.7969 71.1875 65.9219 67.625
L65.9219 56.1562
L65.1875 56.1562
Q59.1875 61.1875 53.2656 63.4688
Q47.3594 65.7656 40.625 65.7656
Q35.1094 65.7656 30.6875 63.9844
Q26.2656 62.2031 22.7969 58.4531
Q19.4375 54.7812 17.5469 49.1875
Q15.6719 43.6094 15.6719 36.2812
Q15.6719 28.6094 17.75 23.0938
Q19.8281 17.5781 23.0938 14.1094
Q26.5156 10.5 31.0781 8.76562
Q35.6406 7.03125 40.7188 7.03125
Q47.7031 7.03125 53.7969 9.42188
Q59.9062 11.8125 65.2344 16.6094
L65.9219 16.6094
z
" id="Verdana-43"/>
     </defs>
     <g transform="translate(453.26025 241.061625)scale(0.144 -0.144)">
      <use xlink:href="#Verdana-43"/>
      <use x="69.82421875" xlink:href="#Verdana-75"/>
      <use x="133.10546875" xlink:href="#Verdana-63"/>
      <use x="185.205078125" xlink:href="#Verdana-6b"/>
      <use x="243.384765625" xlink:href="#Verdana-6f"/>
      <use x="304.078125" xlink:href="#Verdana-6f"/>
     </g>
    </g>
    <g id="line2d_42">
     <path d="
M417.26 257.061
L437.42 257.061" style="fill:none;stroke:#bf00bf;stroke-linecap:square;"/>
    </g>
    <g id="line2d_43"/>
    <g id="text_22">
     <!-- qABC -->
     <defs>
      <path d="
M53.2656 -20.125
L44.0938 -20.125
L44.0938 6.15625
Q39.8438 2.48438 35.6406 0.703125
Q31.4531 -1.07812 26.5625 -1.07812
Q16.8438 -1.07812 11.0625 6.42188
Q5.28125 13.9219 5.28125 27.0938
Q5.28125 34.125 7.29688 39.5156
Q9.32812 44.9219 12.6406 48.5781
Q15.875 52.1562 20.2188 54.1094
Q24.5625 56.0625 29.3906 56.0625
Q33.7969 56.0625 37.1875 55.0781
Q40.5781 54.1094 44.0938 52.2031
L44.6719 54.5469
L53.2656 54.5469
z

M44.0938 13.875
L44.0938 44.7344
Q40.2812 46.4375 37.3438 47.1094
Q34.4219 47.7969 31 47.7969
Q23.0469 47.7969 18.8906 42.4062
Q14.75 37.0156 14.75 27.5469
Q14.75 17.9688 18.0938 12.8125
Q21.4375 7.67188 28.6094 7.67188
Q32.625 7.67188 36.625 9.40625
Q40.625 11.1406 44.0938 13.875" id="Verdana-71"/>
     </defs>
     <g transform="translate(453.26025 262.101375)scale(0.144 -0.144)">
      <use xlink:href="#Verdana-71"/>
      <use x="62.3046875" xlink:href="#Verdana-41"/>
      <use x="130.6640625" xlink:href="#Verdana-42"/>
      <use x="199.21875" xlink:href="#Verdana-43"/>
     </g>
    </g>
   </g>
  </g>
 </g>
 <defs>
  <clipPath id="p7ff5b81e1d">
   <rect height="345.6" width="446.4" x="72.0" y="43.2"/>
  </clipPath>
 </defs>
</svg>
