<?xml version="1.0" encoding="utf-8" standalone="no"?>
<!DOCTYPE svg PUBLIC "-//W3C//DTD SVG 1.1//EN"
  "http://www.w3.org/Graphics/SVG/1.1/DTD/svg11.dtd">
<!-- Created with matplotlib (http://matplotlib.org/) -->
<svg height="432pt" version="1.1" viewBox="0 0 576 432" width="576pt" xmlns="http://www.w3.org/2000/svg" xmlns:xlink="http://www.w3.org/1999/xlink">
 <defs>
  <style type="text/css">
*{stroke-linecap:butt;stroke-linejoin:round;}
  </style>
 </defs>
 <g id="figure_1">
  <g id="patch_1">
   <path d="
M0 432
L576 432
L576 0
L0 0
z
" style="fill:#ffffff;"/>
  </g>
  <g id="axes_1">
   <g id="patch_2">
    <path d="
M72 388.8
L518.4 388.8
L518.4 43.2
L72 43.2
z
" style="fill:#ffffff;"/>
   </g>
   <g id="line2d_1">
    <path clip-path="url(#p7ff5b81e1d)" d="
M72 388.8
L75.2141 388.8
L75.3926 388.11
L80.0352 388.11
L80.2138 386.731
L81.6422 386.731
L81.8208 356.378
L83.2493 356.378
L83.4278 99.0754
L84.8563 99.0754
L85.0349 54.9269
L86.4634 54.9269
L86.6419 48.7186
L88.0704 48.7186
L88.249 43.8898
L92.8915 43.8898
L93.0701 43.2
L518.311 43.2
L518.311 43.2" style="fill:none;stroke:#0000ff;stroke-dasharray:6.000000,2.000000;stroke-dashoffset:0.0;"/>
   </g>
   <g id="line2d_2">
    <path clip-path="url(#p7ff5b81e1d)" d="
M72 388.8
L73.5178 388.8
L73.6963 388.581
L74.0534 388.581
L74.232 388.362
L74.3213 388.362
L74.4998 388.581
L74.6784 388.581
L74.857 388.362
L74.9462 388.362
L75.1248 388.581
L75.2141 388.581
L75.3926 388.8
L79.2317 388.8
L79.4102 388.581
L81.1958 388.581
L81.3744 388.362
L81.9101 388.362
L82.2672 387.704
L83.16 387.704
L83.2493 387.485
L83.4278 387.923
L84.0528 387.923
L84.3206 387.485
L84.4992 387.485
L84.6778 387.266
L85.0349 387.266
L85.2134 387.047
L85.3027 387.047
L85.5706 386.608
L85.7491 386.608
L86.4634 385.074
L86.5526 385.074
L86.8205 384.198
L86.9098 384.198
L87.0883 383.102
L87.1776 383.102
L87.7133 380.911
L87.8026 380.691
L87.9811 379.596
L88.1597 379.596
L88.7846 375.651
L89.6774 371.706
L89.7667 371.706
L90.0346 369.076
L90.3024 365.351
L90.3917 365.132
L91.7309 351.544
L92.088 346.285
L92.2666 343.874
L92.9808 332.917
L93.0701 332.478
L93.3379 328.315
L93.8736 320.644
L93.9629 320.644
L95.7485 291.497
L96.0163 286.895
L96.552 277.033
L97.0877 269.363
L97.7126 257.967
L97.8912 253.803
L98.6054 239.778
L98.784 236.929
L100.748 199.673
L100.837 198.797
L101.105 194.633
L101.909 182.58
L102.087 179.073
L104.766 141.16
L104.855 140.503
L105.212 134.805
L105.48 131.737
L105.748 129.984
L106.016 128.011
L106.284 124.505
L106.462 123.847
L106.641 120.341
L106.73 120.122
L107.176 117.273
L107.266 117.054
L108.605 104.562
L108.694 104.343
L109.051 100.837
L109.14 100.398
L109.408 97.9876
L109.498 97.7684
L110.033 90.9748
L110.123 90.9748
L110.39 90.3173
L110.658 88.7833
L111.551 82.6471
L111.64 82.6471
L111.819 81.3321
L112.087 80.0172
L112.355 78.9215
L112.444 78.9215
L112.89 76.2917
L113.515 73.4427
L113.604 73.4427
L113.962 72.347
L114.229 71.4704
L114.319 71.2512
L114.497 70.3746
L114.765 69.7172
L114.944 68.8406
L115.569 67.0874
L116.015 64.4576
L116.194 64.0193
L116.283 64.0193
L116.461 63.8001
L116.551 63.8001
L116.729 63.581
L116.908 63.581
L117.354 61.8278
L117.444 61.8278
L117.622 61.3895
L118.693 58.5405
L118.961 57.6639
L119.051 57.6639
L119.229 57.0065
L119.676 56.1299
L119.765 56.1299
L120.122 55.4724
L120.39 55.4724
L121.015 54.1575
L121.193 54.1575
L121.372 53.9384
L121.729 53.9384
L121.908 53.7192
L121.997 53.7192
L122.265 53.2809
L122.354 53.2809
L122.532 52.8426
L122.622 52.8426
L122.8 52.6235
L123.247 52.6235
L123.425 52.4043
L123.515 52.4043
L123.961 51.5277
L124.318 51.5277
L124.497 51.3086
L125.211 51.3086
L125.479 50.8703
L125.568 50.8703
L125.747 50.6511
L126.193 50.6511
L126.372 49.9937
L127.264 49.9937
L127.443 49.7745
L129.139 49.7745
L129.318 49.5554
L129.853 49.5554
L130.032 49.1171
L131.014 49.1171
L131.193 48.8979
L131.46 48.8979
L131.639 48.6788
L132.175 48.6788
L132.353 48.4596
L132.889 48.4596
L133.068 48.2405
L134.139 48.2405
L134.317 48.0213
L135.3 48.0213
L135.478 47.8022
L136.103 47.8022
L136.282 47.583
L136.549 47.583
L136.728 47.3639
L140.121 47.3639
L140.299 47.1447
L140.924 47.1447
L141.103 46.9256
L148.87 46.9256
L149.049 46.7064
L157.084 46.7064
L157.262 46.4873
L160.566 46.4873
L160.744 46.2681
L161.726 46.2681
L161.905 46.049
L163.78 46.049
L163.958 45.8298
L164.673 45.8298
L164.851 45.6107
L167.44 45.6107
L167.619 45.3915
L168.422 45.3915
L168.601 45.1724
L171.369 45.1724
L171.547 44.9532
L180.743 44.9532
L180.922 44.7341
L198.242 44.7341
L198.42 44.5149
L202.617 44.5149
L202.795 44.2958
L242.882 44.2958
L243.06 44.0766
L246.275 44.0766
L246.453 43.8575
L272.344 43.8575
L272.523 43.6383
L315.288 43.6383
L315.467 43.4192
L327.876 43.4192
L328.055 43.2
L518.311 43.2
L518.311 43.2" style="fill:none;stroke:#008000;stroke-dasharray:1.000000,1.000000;stroke-dashoffset:0.0;"/>
   </g>
   <g id="line2d_3">
    <path clip-path="url(#p7ff5b81e1d)" d="
M72 388.552
L72.7142 388.552
L72.8928 388.8
L150.477 388.8
L150.656 388.552
L167.619 388.552
L167.797 388.305
L168.244 388.305
L168.422 388.057
L175.833 388.057
L176.011 387.81
L177.261 387.81
L177.44 387.562
L178.69 387.562
L178.868 387.315
L179.315 387.315
L179.493 387.067
L180.654 387.067
L180.832 386.819
L183.332 386.819
L183.511 386.572
L185.118 386.572
L185.296 386.324
L185.475 386.324
L185.653 386.077
L186.189 386.077
L186.368 385.829
L187.171 385.829
L187.35 385.582
L187.707 385.582
L188.064 384.839
L189.403 384.839
L189.671 384.344
L189.85 384.344
L190.028 384.096
L190.296 384.096
L190.475 383.849
L190.742 383.849
L190.921 383.601
L191.635 383.601
L191.814 383.354
L193.064 383.354
L193.242 382.611
L193.421 382.611
L193.599 382.363
L193.778 382.363
L193.956 382.116
L195.831 382.116
L196.01 381.868
L196.278 381.868
L196.456 381.621
L197.617 381.621
L197.885 381.126
L198.153 381.126
L198.331 380.63
L199.135 380.63
L199.403 380.135
L199.849 380.135
L200.028 379.888
L200.117 379.888
L200.295 379.145
L200.563 379.145
L200.742 378.897
L201.456 378.897
L201.635 378.65
L201.813 378.65
L202.17 377.907
L202.527 377.907
L202.706 377.66
L203.331 377.66
L203.509 377.412
L203.777 377.412
L204.045 376.917
L204.224 376.917
L204.492 375.927
L206.099 375.927
L206.277 375.679
L206.634 375.679
L206.991 374.936
L207.081 374.936
L207.259 374.689
L207.527 374.689
L207.706 374.441
L207.795 374.441
L207.973 374.194
L208.866 374.194
L209.045 373.946
L209.759 373.946
L209.938 373.699
L210.473 373.699
L210.652 373.203
L210.83 373.203
L211.009 372.708
L211.098 372.708
L211.366 372.213
L211.455 372.213
L211.634 371.47
L211.812 371.47
L211.991 370.728
L212.259 370.728
L212.437 370.48
L212.527 370.48
L212.795 369.985
L212.973 369.985
L213.152 369.738
L213.42 369.738
L213.687 369.242
L213.955 369.242
L214.223 368.252
L214.312 368.252
L214.491 367.509
L214.58 367.509
L214.759 367.262
L215.473 367.262
L215.652 367.014
L216.009 367.014
L216.276 366.519
L216.634 366.519
L216.812 366.272
L217.616 366.272
L217.884 365.281
L218.062 365.281
L218.33 364.786
L219.133 364.786
L219.312 364.539
L219.401 364.539
L219.58 364.291
L219.758 364.291
L220.026 363.796
L220.116 363.796
L220.562 362.806
L221.008 362.806
L221.365 362.063
L221.633 362.063
L221.99 361.32
L222.258 361.32
L222.437 360.578
L222.794 360.578
L223.24 359.587
L223.597 359.587
L223.955 358.845
L224.044 358.845
L224.312 358.35
L224.58 358.35
L224.937 357.607
L225.204 357.607
L225.383 357.359
L226.187 357.359
L226.365 357.112
L226.812 357.112
L226.99 356.369
L227.169 356.369
L227.436 355.874
L227.526 355.874
L227.794 355.379
L227.883 355.379
L228.151 354.884
L228.776 354.884
L228.954 354.636
L229.044 354.636
L229.311 354.141
L229.668 354.141
L230.026 353.398
L230.383 353.398
L230.74 351.665
L230.829 351.665
L231.008 351.418
L231.097 351.418
L231.454 350.675
L231.722 350.675
L231.9 350.428
L232.436 350.428
L232.972 349.19
L233.24 349.19
L233.508 348.199
L233.775 347.209
L233.954 347.209
L234.132 346.962
L234.311 346.962
L234.757 345.971
L234.936 345.971
L235.115 345.229
L235.293 344.734
L235.472 344.734
L235.65 343.991
L235.74 343.991
L235.918 343.496
L236.097 343.496
L236.364 342.505
L236.454 342.505
L236.632 342.258
L236.989 342.258
L237.257 341.763
L237.704 341.763
L237.882 341.515
L238.239 341.515
L238.418 341.02
L238.596 341.02
L239.043 340.03
L239.132 340.03
L239.4 339.535
L239.489 339.535
L239.668 338.792
L239.757 338.792
L241.632 333.841
L241.721 333.841
L241.989 333.346
L242.078 333.346
L242.346 332.85
L242.614 332.85
L242.793 332.355
L243.15 331.613
L243.328 331.613
L243.775 330.622
L243.953 330.622
L244.132 330.375
L244.31 329.137
L244.757 329.137
L245.114 328.394
L245.203 328.394
L245.382 327.899
L246.275 325.671
L246.542 325.671
L246.721 324.928
L247.078 323.443
L247.167 323.443
L247.346 322.7
L247.524 322.453
L247.614 322.453
L247.792 322.205
L248.149 322.205
L249.935 317.006
L250.203 316.016
L250.381 316.016
L250.739 315.273
L250.828 315.273
L251.006 314.778
L251.185 314.531
L251.453 314.531
L251.631 313.788
L251.899 313.788
L252.346 312.798
L252.613 312.798
L252.792 311.807
L252.881 311.807
L253.774 309.579
L253.863 309.579
L254.22 308.837
L254.31 308.837
L254.488 308.342
L254.578 308.342
L254.845 307.846
L254.935 307.846
L255.203 307.351
L255.292 307.351
L256.006 305.123
L256.185 303.39
L256.363 303.39
L256.631 302.4
L256.81 301.905
L256.899 301.905
L257.256 301.162
L257.345 301.162
L257.702 298.934
L257.792 298.934
L258.327 296.458
L258.417 296.458
L258.595 296.211
L258.774 296.211
L258.952 295.963
L259.131 295.963
L259.399 294.973
L259.667 294.478
L259.756 294.478
L259.934 293.983
L260.024 293.983
L260.202 293.488
L260.292 293.488
L260.47 292.993
L261.184 291.26
L261.363 290.269
L261.541 290.269
L261.899 289.527
L261.988 289.527
L262.166 289.279
L262.256 289.279
L262.434 288.784
L262.524 288.784
L262.702 287.546
L263.059 287.546
L263.327 286.061
L263.506 286.061
L263.684 285.318
L264.041 284.575
L264.131 284.575
L264.845 282.842
L265.113 282.842
L265.559 281.852
L265.648 281.852
L265.916 280.862
L266.095 280.614
L266.184 280.614
L266.273 280.367
L266.452 279.624
L267.077 278.139
L267.166 278.139
L267.345 277.644
L267.523 277.644
L267.702 277.148
L267.88 276.406
L268.059 275.663
L268.148 275.663
L268.684 273.93
L268.952 272.445
L269.309 271.702
L269.398 271.702
L269.487 271.454
L269.666 270.217
L270.648 267.741
L270.737 267.741
L270.916 267.246
L271.094 266.256
L271.452 266.256
L271.987 264.77
L272.166 264.028
L272.255 263.78
L272.434 262.79
L272.523 262.79
L272.791 261.799
L272.969 261.799
L273.237 261.304
L273.416 261.304
L273.594 261.057
L273.773 261.057
L274.041 260.066
L274.487 258.829
L274.666 257.838
L274.755 257.838
L275.112 256.601
L275.469 255.115
L276.898 251.402
L276.987 251.402
L277.523 250.164
L277.612 250.164
L277.79 249.669
L278.058 249.174
L278.148 249.174
L278.415 248.679
L278.505 248.679
L278.683 247.936
L278.772 247.936
L279.755 244.965
L280.112 243.232
L280.201 243.232
L280.647 242.242
L281.004 242.242
L281.183 241.747
L281.272 241.747
L281.451 241.252
L281.54 241.252
L282.344 239.271
L282.79 239.271
L282.879 239.023
L283.147 237.538
L283.236 237.538
L283.415 237.291
L283.504 237.291
L283.683 236.3
L284.754 233.33
L284.933 232.092
L285.022 231.844
L285.201 230.854
L285.379 230.854
L285.468 230.606
L285.647 229.864
L285.736 229.864
L285.915 229.368
L286.004 229.368
L286.451 227.388
L286.629 227.388
L287.433 224.912
L287.611 224.417
L287.968 224.417
L288.147 223.427
L288.236 223.427
L288.415 222.932
L288.593 221.694
L288.95 220.456
L289.129 219.218
L289.397 219.218
L289.932 217.485
L290.111 216.743
L290.468 215.01
L290.557 215.01
L290.915 214.267
L291.272 214.267
L291.718 212.782
L292.075 211.296
L292.611 210.058
L292.789 210.058
L292.968 209.316
L293.236 207.83
L293.593 206.345
L293.861 206.345
L294.039 205.85
L294.486 204.86
L294.843 204.86
L295.468 203.374
L295.557 203.374
L296.093 200.899
L296.182 200.899
L296.628 199.908
L296.986 199.908
L297.789 197.928
L297.968 197.928
L298.146 197.433
L298.325 196.938
L298.503 195.947
L298.593 195.947
L298.95 194.214
L299.039 194.214
L299.396 193.472
L299.485 193.472
L299.932 192.481
L300.11 191.244
L300.289 190.748
L300.468 190.501
L300.735 190.501
L301.092 189.758
L301.182 189.758
L301.36 188.52
L301.717 187.53
L301.985 186.045
L302.075 186.045
L303.592 182.084
L303.771 182.084
L304.396 180.598
L304.485 180.598
L304.932 179.608
L305.021 179.608
L305.289 178.37
L305.378 178.37
L305.556 177.875
L305.914 177.132
L306.003 177.132
L306.36 174.657
L306.449 174.657
L306.628 173.914
L306.896 172.924
L307.342 171.934
L307.431 171.934
L307.788 171.191
L307.878 171.191
L308.056 170.943
L308.146 170.943
L308.592 169.953
L308.771 169.953
L308.949 169.21
L309.038 169.21
L309.217 168.963
L309.306 168.963
L309.753 167.972
L310.378 167.972
L310.556 166.487
L311.003 165.497
L311.36 165.497
L311.806 163.516
L312.61 161.041
L312.877 160.05
L313.056 160.05
L313.502 159.06
L313.592 159.06
L313.86 158.07
L314.127 157.08
L314.217 157.08
L314.306 156.832
L314.484 155.594
L314.931 154.109
L315.109 153.119
L315.377 152.376
L315.556 151.386
L315.645 151.386
L316.092 150.395
L316.181 150.395
L316.627 149.405
L316.716 149.405
L316.806 149.158
L316.984 147.92
L317.074 147.92
L317.431 147.177
L317.52 147.177
L317.699 146.434
L317.877 146.187
L318.413 146.187
L318.591 145.939
L318.681 145.939
L318.859 145.692
L319.127 145.692
L319.663 144.454
L319.841 144.454
L320.288 143.464
L320.466 143.464
L320.645 143.216
L320.734 143.216
L321.002 142.226
L321.27 142.226
L321.538 140.245
L321.627 140.245
L321.984 139.503
L322.073 139.503
L322.698 138.017
L322.788 138.017
L323.145 137.274
L323.412 137.274
L323.77 136.532
L323.859 136.532
L324.037 135.789
L324.216 135.294
L324.305 135.294
L324.484 134.551
L324.752 134.056
L324.841 134.056
L325.109 133.561
L325.466 133.561
L325.644 133.313
L325.734 133.313
L326.002 132.323
L326.269 132.323
L326.448 131.828
L326.627 131.581
L326.805 131.581
L326.984 131.333
L327.252 131.333
L327.43 130.343
L327.966 130.343
L328.144 129.848
L328.234 129.848
L328.859 128.362
L329.037 128.362
L329.216 128.115
L329.305 128.115
L329.484 127.619
L329.662 127.372
L329.841 127.372
L330.108 126.877
L330.287 126.877
L330.466 126.382
L330.912 126.382
L331.091 126.134
L331.269 126.134
L331.537 125.639
L331.894 125.639
L332.34 124.649
L332.608 124.649
L332.787 124.154
L332.876 123.906
L333.144 122.421
L333.233 122.421
L333.412 122.173
L333.68 122.173
L333.858 121.678
L333.948 121.678
L334.394 120.688
L334.483 120.688
L334.84 119.945
L335.197 119.945
L335.376 119.697
L335.465 119.697
L335.644 119.45
L335.733 119.45
L336.09 118.707
L336.358 118.707
L336.626 118.212
L336.804 118.212
L337.162 117.469
L337.429 117.469
L337.608 117.222
L337.697 117.222
L337.876 116.974
L338.501 116.974
L338.769 115.984
L339.126 115.984
L339.304 115.736
L339.572 115.736
L339.751 114.499
L340.019 114.499
L340.197 114.003
L340.822 112.518
L340.911 112.518
L341.179 112.023
L341.626 112.023
L341.983 110.538
L342.072 110.538
L342.251 110.29
L342.876 110.29
L343.054 110.042
L343.143 110.042
L343.322 109.795
L343.768 109.795
L344.215 108.805
L344.572 108.805
L344.75 108.062
L344.84 108.062
L345.018 107.814
L345.197 107.814
L345.375 107.567
L345.554 107.567
L345.822 107.072
L345.911 107.072
L346.09 106.329
L346.268 106.329
L346.536 105.834
L346.715 105.834
L347.072 105.091
L347.25 105.091
L347.429 104.844
L347.518 104.844
L347.697 104.101
L347.786 104.101
L348.232 103.111
L348.679 103.111
L349.036 102.368
L350.107 102.368
L350.464 101.625
L350.643 101.625
L350.911 100.635
L351.268 100.635
L351.446 100.387
L351.714 100.387
L351.893 100.14
L352.071 100.14
L352.25 99.8923
L352.786 99.8923
L352.964 99.6447
L353.053 99.6447
L353.232 99.3971
L353.5 99.3971
L354.214 97.6642
L354.303 97.6642
L354.75 96.6739
L354.839 96.6739
L355.018 96.1788
L355.285 96.1788
L355.643 95.4361
L355.732 95.4361
L355.91 95.1885
L356.178 95.1885
L356.357 94.941
L356.625 94.941
L356.803 94.4458
L357.071 94.4458
L357.25 94.1983
L357.517 94.1983
L357.964 93.208
L358.678 93.208
L359.124 92.2178
L359.392 92.2178
L359.571 91.9702
L359.839 91.9702
L360.017 91.7226
L360.107 91.7226
L360.374 91.2275
L360.553 91.2275
L360.91 90.4848
L361.178 90.4848
L361.535 89.7421
L362.249 89.7421
L362.428 89.247
L362.606 89.247
L362.874 88.7519
L363.053 88.7519
L363.231 88.5043
L363.41 88.5043
L364.303 86.2762
L364.838 86.2762
L365.017 86.0287
L365.106 86.0287
L365.374 85.5335
L365.463 85.5335
L365.642 84.7908
L365.82 84.7908
L366.088 84.2957
L366.535 84.2957
L366.713 84.0481
L366.981 84.0481
L367.16 83.8006
L367.338 83.8006
L367.517 83.553
L367.785 83.553
L368.142 82.8103
L368.856 82.8103
L369.035 82.0676
L369.213 81.8201
L369.927 81.8201
L370.106 81.5725
L370.195 81.5725
L370.374 81.0774
L371.088 81.0774
L371.267 80.8298
L371.534 80.8298
L371.713 80.3347
L371.981 80.3347
L372.249 79.8395
L372.963 79.8395
L373.141 79.592
L373.766 79.592
L374.034 79.0968
L374.302 79.0968
L374.659 78.3542
L375.463 78.3542
L375.641 77.859
L375.909 77.3639
L376.802 77.3639
L377.07 76.8688
L377.516 76.8688
L377.784 76.3736
L378.052 76.3736
L378.23 75.8785
L378.588 75.8785
L378.766 75.6309
L378.945 75.6309
L379.302 74.8883
L379.748 74.8883
L379.927 74.6407
L380.373 74.6407
L380.73 73.898
L381.266 73.898
L381.444 73.6504
L381.534 73.6504
L381.712 73.1553
L381.891 73.1553
L382.069 72.9077
L382.694 72.9077
L383.052 72.165
L383.587 72.165
L383.855 71.6699
L384.391 71.6699
L384.748 70.9272
L385.105 70.9272
L385.284 70.6797
L386.087 70.6797
L386.266 70.4321
L387.516 70.4321
L387.694 69.937
L388.051 69.937
L388.23 69.6894
L388.319 69.6894
L388.587 69.1943
L388.676 69.1943
L388.855 68.9467
L389.212 68.9467
L389.39 68.6991
L389.569 68.6991
L389.748 68.204
L389.837 68.204
L390.015 67.4613
L390.283 67.4613
L390.462 66.9662
L391.622 66.9662
L391.801 66.7186
L391.98 66.7186
L392.158 66.4711
L393.497 66.4711
L393.765 65.9759
L393.944 65.9759
L394.122 65.7284
L395.015 65.7284
L395.194 65.4808
L395.283 65.4808
L395.461 65.2332
L395.551 65.2332
L395.819 64.243
L396.444 64.243
L396.622 63.9954
L396.89 63.9954
L397.068 63.7479
L397.158 63.7479
L397.426 63.2527
L397.515 63.2527
L397.693 63.0052
L397.783 63.0052
L398.051 62.51
L398.497 62.51
L398.676 62.2625
L398.943 62.2625
L399.122 62.0149
L399.39 62.0149
L399.658 61.5198
L400.64 61.5198
L400.997 60.7771
L401.354 60.7771
L401.532 60.5295
L404.3 60.5295
L404.479 60.2819
L404.836 60.2819
L405.104 59.7868
L405.996 59.7868
L406.175 59.5393
L406.264 59.5393
L406.443 59.2917
L407.514 59.2917
L407.782 58.7966
L408.943 58.7966
L409.121 58.549
L409.568 58.549
L409.746 58.3014
L410.282 58.3014
L410.55 57.8063
L410.728 57.8063
L410.907 57.5587
L411.532 57.5587
L411.71 57.3112
L413.942 57.3112
L414.121 57.0636
L414.389 57.0636
L414.657 56.5685
L414.835 56.5685
L415.014 56.3209
L415.192 56.3209
L415.371 56.0734
L416.532 56.0734
L416.71 55.5782
L417.156 55.5782
L417.335 55.3307
L417.603 55.3307
L417.781 55.0831
L417.96 55.0831
L418.139 54.588
L418.942 54.588
L419.21 54.0928
L421.888 54.0928
L422.067 53.8453
L422.245 53.8453
L422.424 53.5977
L422.513 53.5977
L422.692 53.3501
L423.585 53.3501
L423.852 52.855
L424.031 52.855
L424.21 52.6074
L425.727 52.6074
L426.084 51.8648
L427.781 51.8648
L427.959 51.6172
L428.138 51.6172
L428.316 51.3696
L429.745 51.3696
L430.013 50.8745
L431.263 50.8745
L431.441 50.6269
L431.62 50.6269
L431.798 50.3794
L434.209 50.3794
L434.388 50.1318
L437.602 50.1318
L437.78 49.8842
L439.834 49.8842
L440.101 49.3891
L442.155 49.3891
L442.333 49.1415
L448.672 49.1415
L448.851 48.894
L449.387 48.894
L449.565 48.6464
L450.726 48.6464
L450.904 48.3989
L455.815 48.3989
L455.993 48.1513
L456.083 48.1513
L456.35 47.6562
L465.1 47.6562
L465.278 47.4086
L470.724 47.4086
L470.903 47.161
L472.51 47.161
L472.689 46.9135
L479.652 46.9135
L479.831 46.6659
L480.099 46.6659
L480.277 46.4183
L480.724 46.4183
L480.902 46.1708
L481.438 46.1708
L481.617 45.9232
L488.134 45.9232
L488.313 45.6756
L488.759 45.6756
L488.938 45.4281
L490.277 45.4281
L490.455 45.1805
L490.545 45.1805
L490.723 44.933
L503.044 44.933
L503.312 44.4378
L515.364 44.4378
L515.543 44.1903
L518.311 44.1903
L518.311 44.1903" style="fill:none;stroke:#ff0000;stroke-dasharray:3.000000,6.000000;stroke-dashoffset:0.0;"/>
   </g>
   <g id="line2d_4">
    <path clip-path="url(#p7ff5b81e1d)" d="
M72 388.8
L176.1 388.8
L176.279 388.472
L193.867 388.472
L194.046 388.145
L197.349 388.145
L197.528 387.817
L200.742 387.817
L200.92 387.49
L201.902 387.49
L202.081 387.162
L211.634 387.162
L211.812 386.835
L212.705 386.835
L212.884 386.507
L216.187 386.507
L216.366 386.179
L216.455 386.179
L216.634 385.852
L221.99 385.852
L222.169 385.524
L226.097 385.524
L226.276 385.197
L226.365 385.197
L226.544 384.869
L227.079 384.869
L227.258 384.541
L229.311 384.541
L229.49 384.214
L230.115 384.214
L230.293 383.559
L230.383 383.559
L230.561 383.231
L233.061 383.231
L233.24 382.904
L233.418 382.904
L233.686 382.248
L233.775 382.248
L233.954 381.921
L236.186 381.921
L236.364 381.593
L237.436 381.593
L237.614 381.266
L237.793 381.266
L237.972 380.938
L239.757 380.938
L239.936 380.61
L240.293 380.61
L240.471 379.955
L243.328 379.955
L243.507 379.628
L243.953 379.628
L244.132 378.973
L244.489 378.973
L244.757 378.317
L244.846 378.317
L245.025 377.99
L247.257 377.99
L247.435 377.335
L247.792 376.352
L247.882 376.352
L248.06 375.697
L249.935 375.697
L250.114 375.369
L250.56 375.369
L250.828 374.714
L251.006 374.714
L251.185 374.386
L251.453 374.386
L251.899 373.076
L252.167 373.076
L252.346 372.748
L252.792 372.748
L252.971 372.421
L253.417 372.421
L253.596 372.093
L254.22 372.093
L254.399 371.766
L254.667 371.766
L254.845 371.111
L254.935 371.111
L255.738 368.49
L257.881 368.49
L258.06 367.835
L261.452 367.835
L261.72 367.18
L262.077 367.18
L262.256 366.852
L262.434 366.852
L262.702 366.197
L262.791 366.197
L262.97 365.869
L265.113 365.869
L265.38 365.214
L265.47 365.214
L265.827 364.231
L265.916 364.231
L266.095 363.904
L268.416 363.904
L268.595 363.576
L268.773 363.576
L268.952 362.921
L269.041 362.921
L269.22 362.593
L269.309 362.593
L269.487 362.266
L269.577 362.266
L270.202 360.3
L271.719 360.3
L271.898 359.973
L272.434 359.973
L272.612 359.645
L272.701 359.645
L272.88 359.318
L273.148 359.318
L273.416 358.662
L273.505 358.662
L273.684 358.335
L274.487 358.335
L274.666 358.007
L276.005 358.007
L276.362 357.024
L276.451 357.024
L276.63 356.697
L276.719 356.697
L276.987 356.042
L277.969 356.042
L278.148 355.714
L279.665 355.714
L279.844 355.059
L280.201 355.059
L280.38 354.731
L280.647 354.731
L280.826 354.404
L281.272 354.404
L281.451 354.076
L282.701 354.076
L282.879 353.749
L283.236 353.749
L283.504 353.093
L283.772 353.093
L284.219 351.783
L284.308 351.783
L284.486 351.456
L286.451 351.456
L286.718 350.8
L286.808 350.8
L287.076 350.145
L287.254 350.145
L287.433 349.818
L287.7 349.818
L287.879 349.49
L288.861 349.49
L289.04 349.162
L289.754 349.162
L290.022 348.507
L290.111 348.507
L290.29 347.525
L290.468 347.525
L290.825 345.887
L291.004 344.576
L291.272 343.921
L291.45 343.921
L291.718 343.266
L292.522 343.266
L292.7 342.938
L293.325 342.938
L293.414 342.611
L293.593 341.628
L293.861 341.628
L294.039 340.318
L294.307 340.318
L294.486 339.99
L294.754 339.99
L294.932 339.663
L295.111 339.663
L295.289 339.335
L295.646 339.335
L295.825 339.007
L296.093 339.007
L296.361 338.352
L296.896 338.352
L297.075 337.697
L297.343 337.697
L297.521 336.387
L297.611 336.387
L297.968 335.404
L298.057 335.404
L298.325 334.094
L298.503 333.766
L298.593 333.766
L298.771 333.438
L300.557 333.438
L300.735 332.456
L301.36 330.49
L301.628 330.49
L301.807 330.163
L301.985 330.163
L302.253 328.852
L304.307 328.852
L304.574 327.542
L304.664 327.542
L305.021 326.559
L305.11 326.559
L305.556 325.249
L305.646 325.249
L305.914 324.594
L307.61 324.594
L308.235 321.973
L308.413 321.318
L308.592 321.318
L308.771 320.335
L308.949 320.335
L309.128 318.697
L309.217 318.697
L309.485 318.042
L310.199 318.042
L310.378 317.715
L310.556 317.715
L310.735 317.387
L311.27 317.387
L311.449 316.404
L311.538 316.404
L312.074 314.766
L312.342 314.766
L312.52 314.439
L312.788 314.439
L312.967 313.128
L314.931 313.128
L315.109 312.146
L315.288 311.163
L315.377 311.163
L315.645 309.853
L315.734 309.853
L315.913 309.197
L316.359 309.197
L316.627 308.542
L316.806 308.542
L316.984 308.215
L317.163 308.215
L317.341 307.887
L318.324 307.887
L318.502 306.904
L318.859 304.939
L319.038 304.611
L319.216 304.611
L319.484 303.956
L319.663 303.956
L320.198 302.318
L320.288 302.318
L320.466 301.991
L321.091 301.991
L321.27 301.663
L321.448 301.663
L321.627 301.335
L321.984 301.335
L322.163 300.353
L322.43 300.353
L322.698 299.697
L322.877 299.697
L323.234 297.404
L323.323 297.404
L323.68 296.422
L324.93 296.422
L325.109 296.094
L325.466 296.094
L325.644 295.439
L325.823 294.456
L326.984 290.525
L327.073 290.525
L327.252 290.198
L328.501 290.198
L328.68 289.87
L329.037 289.87
L329.305 288.56
L329.484 287.577
L329.751 287.577
L330.644 284.629
L330.733 284.629
L330.912 283.646
L331.091 283.646
L331.269 283.318
L332.787 283.318
L332.965 282.008
L333.233 282.008
L333.412 281.025
L333.59 279.715
L333.769 279.715
L333.948 278.405
L334.394 277.094
L334.483 277.094
L334.662 276.767
L335.019 276.767
L335.197 276.439
L336.09 276.439
L336.269 275.784
L336.447 274.146
L336.626 274.146
L337.519 271.198
L337.608 271.198
L337.787 270.543
L338.054 270.543
L338.233 270.215
L339.215 270.215
L339.394 269.887
L339.84 269.887
L340.108 268.905
L340.286 267.922
L340.554 267.922
L340.822 266.612
L341.001 265.956
L341.358 264.974
L341.626 264.974
L341.893 264.318
L343.143 264.318
L343.411 263.663
L343.679 263.663
L345.108 258.75
L345.197 258.75
L345.375 258.422
L346.268 258.422
L346.625 257.439
L346.893 257.439
L347.34 255.474
L347.518 254.819
L348.054 252.525
L348.232 251.215
L348.411 250.888
L348.5 250.888
L348.768 250.232
L349.036 250.232
L349.393 249.25
L350.464 249.25
L350.643 248.595
L350.821 248.595
L351 247.612
L351.089 247.612
L351.268 246.957
L351.446 245.646
L351.536 245.646
L351.804 244.336
L351.893 244.336
L352.071 244.008
L352.339 244.008
L352.518 243.681
L352.607 243.681
L352.786 243.353
L353.143 243.353
L353.321 243.026
L353.768 243.026
L353.946 242.698
L354.036 242.698
L354.393 241.715
L354.482 241.715
L354.66 241.388
L354.928 241.388
L355.107 240.405
L355.285 239.422
L355.464 239.422
L355.553 239.095
L355.732 237.129
L355.91 236.802
L356 236.802
L356.178 236.474
L357.607 236.474
L357.785 235.491
L357.875 235.491
L358.053 235.164
L358.321 235.164
L358.767 233.853
L358.857 233.853
L359.571 231.56
L360.464 231.56
L360.642 231.233
L360.999 231.233
L361.535 229.595
L361.624 229.595
L362.16 227.957
L362.339 227.957
L362.606 226.646
L363.053 225.336
L363.41 225.336
L363.588 225.009
L364.66 225.009
L364.838 224.681
L364.928 224.681
L365.196 224.026
L365.463 224.026
L366.535 220.422
L366.981 220.422
L367.16 220.095
L367.338 220.095
L367.517 219.767
L368.32 219.767
L368.588 218.457
L368.677 218.457
L368.856 216.819
L368.945 216.819
L369.213 215.509
L369.392 215.181
L369.481 215.181
L370.195 212.888
L370.552 212.888
L370.731 212.233
L370.82 212.233
L370.999 211.905
L371.624 211.905
L371.802 211.578
L371.981 211.578
L372.159 211.25
L372.338 211.25
L372.516 210.922
L372.695 210.922
L372.874 209.94
L373.141 208.302
L373.231 208.302
L373.409 207.647
L373.499 207.647
L373.677 207.319
L373.856 207.319
L374.034 206.991
L374.302 206.991
L374.57 206.336
L375.463 206.336
L375.641 206.009
L376.088 206.009
L376.534 204.698
L376.713 204.698
L377.338 202.733
L378.32 202.733
L378.498 202.405
L379.123 202.405
L379.48 200.767
L379.748 198.802
L379.837 198.802
L380.016 197.819
L380.105 197.819
L380.284 196.836
L380.462 196.181
L380.73 195.526
L381.087 195.526
L381.355 194.871
L382.605 194.871
L382.873 193.561
L382.962 193.561
L383.409 192.25
L383.498 192.25
L383.855 190.94
L384.034 189.957
L384.301 188.647
L384.569 187.992
L384.659 187.992
L384.837 187.664
L386.176 187.664
L386.266 187.336
L386.444 186.026
L386.712 184.716
L387.069 182.75
L387.158 182.75
L387.516 181.768
L387.605 181.768
L387.962 180.785
L388.944 180.785
L389.123 180.457
L390.372 180.457
L390.64 179.802
L390.73 179.802
L390.908 178.819
L391.265 177.837
L391.355 177.837
L391.622 177.181
L393.319 177.181
L393.587 176.526
L393.854 176.526
L395.283 171.613
L395.551 171.613
L395.729 171.285
L396.354 171.285
L396.533 170.63
L396.711 170.63
L397.158 169.319
L397.426 169.319
L397.783 167.354
L398.854 163.751
L399.479 163.751
L399.658 163.423
L400.461 163.423
L401.8 158.837
L401.979 158.837
L402.336 157.854
L403.05 157.854
L403.229 157.526
L404.032 157.526
L404.211 156.871
L404.479 155.561
L404.657 154.578
L405.282 154.578
L405.55 153.923
L406.889 153.923
L407.068 153.595
L407.871 153.595
L408.05 153.268
L408.228 153.268
L408.496 152.613
L408.586 152.613
L409.032 151.302
L410.818 151.302
L411.085 150.647
L411.71 150.647
L411.889 150.32
L411.978 150.32
L412.157 149.337
L412.425 149.337
L412.603 148.682
L414.3 148.682
L414.567 148.027
L414.746 148.027
L414.924 147.699
L415.014 147.699
L415.192 147.044
L415.817 147.044
L416.532 144.751
L417.335 144.751
L417.514 144.423
L417.603 144.423
L417.781 144.096
L417.96 144.096
L418.139 143.113
L418.764 143.113
L419.567 140.492
L419.656 140.492
L419.835 140.165
L420.013 140.165
L420.192 138.854
L421.263 138.854
L421.531 138.199
L421.888 138.199
L422.067 137.871
L422.156 137.871
L422.513 136.889
L422.692 136.889
L422.87 136.561
L423.138 136.561
L423.317 135.906
L423.674 134.923
L424.656 134.923
L424.835 134.596
L425.46 134.596
L425.638 134.268
L425.817 134.268
L426.084 132.63
L426.174 132.63
L426.352 131.647
L426.442 131.647
L426.62 131.32
L426.977 131.32
L427.334 130.337
L428.227 130.337
L428.406 130.009
L428.495 130.009
L428.674 129.682
L429.031 129.682
L429.209 129.354
L429.299 129.354
L429.477 129.027
L429.834 129.027
L430.013 128.699
L430.191 128.699
L430.459 128.044
L431.084 128.044
L431.263 127.716
L432.334 127.716
L432.513 127.389
L432.602 127.389
L432.959 126.406
L433.138 126.406
L433.941 123.785
L434.298 123.785
L434.477 123.458
L435.102 123.458
L435.37 122.803
L436.084 122.803
L436.798 120.51
L437.155 120.51
L437.334 120.182
L437.423 120.182
L437.691 119.527
L437.78 119.527
L438.048 118.872
L439.566 118.872
L439.744 118.544
L439.834 118.544
L439.923 118.216
L440.101 117.234
L440.548 117.234
L440.726 116.906
L440.905 116.906
L441.084 115.923
L441.173 115.923
L441.351 115.596
L442.512 115.596
L442.691 115.268
L443.405 115.268
L443.673 114.613
L444.03 114.613
L444.208 113.303
L445.012 113.303
L445.19 112.975
L446.083 112.975
L446.262 112.648
L446.887 112.648
L447.244 111.665
L447.601 111.665
L447.869 111.01
L448.137 111.01
L448.404 110.355
L448.583 110.355
L448.762 110.027
L449.565 110.027
L449.744 109.699
L450.101 109.699
L450.279 109.372
L450.994 109.372
L451.261 108.717
L451.351 108.717
L451.797 107.406
L452.154 107.406
L452.333 107.079
L454.297 107.079
L454.654 106.096
L455.458 106.096
L455.636 105.768
L455.725 105.768
L455.904 105.441
L456.529 105.441
L456.708 105.113
L457.6 105.113
L457.868 104.458
L458.225 104.458
L458.404 104.13
L458.582 104.13
L459.118 102.493
L460.636 102.493
L460.814 102.165
L460.904 102.165
L461.082 101.837
L461.261 101.837
L461.439 101.51
L461.529 101.51
L461.796 100.855
L462.332 100.855
L462.6 100.199
L463.582 100.199
L463.761 99.8718
L464.832 99.8718
L465.011 99.5443
L465.1 99.5443
L465.546 98.2339
L465.725 98.2339
L465.903 97.9064
L466.171 97.9064
L466.35 97.5788
L466.439 97.5788
L466.618 97.2512
L466.796 97.2512
L466.975 96.9236
L467.51 96.9236
L467.689 96.596
L468.76 96.596
L468.939 95.2857
L469.385 95.2857
L469.564 94.9581
L469.921 94.9581
L470.189 94.3029
L471.885 94.3029
L472.064 93.6478
L472.242 93.6478
L472.51 92.9926
L472.599 92.9926
L472.778 92.3374
L472.867 92.3374
L473.046 92.0099
L473.135 92.0099
L473.403 90.6995
L474.028 90.6995
L474.206 90.3719
L474.653 90.3719
L474.831 90.0444
L475.456 90.0444
L475.813 89.0616
L475.903 89.0616
L476.081 88.734
L476.349 88.734
L476.528 88.4064
L477.956 88.4064
L478.135 88.0789
L479.295 88.0789
L479.474 87.7513
L480.099 87.7513
L480.277 87.4237
L480.724 87.4237
L480.902 87.0961
L481.438 87.0961
L481.617 86.7685
L483.492 86.7685
L483.67 86.4409
L484.206 86.4409
L484.384 86.1134
L484.831 86.1134
L485.009 85.7858
L486.17 85.7858
L486.348 85.4582
L486.616 85.4582
L486.795 85.1306
L486.884 85.1306
L487.152 84.4755
L487.688 84.4755
L487.956 83.8203
L488.491 83.8203
L488.67 83.4927
L489.295 83.4927
L489.473 83.1651
L489.83 83.1651
L490.009 81.8548
L490.545 81.8548
L490.723 81.5272
L490.902 81.5272
L491.08 81.1996
L491.437 81.1996
L491.616 80.872
L491.973 80.872
L492.152 80.5445
L493.848 80.5445
L494.205 79.5617
L494.473 79.5617
L494.652 79.2341
L495.812 79.2341
L495.991 78.9065
L496.884 78.9065
L497.062 78.579
L497.151 78.579
L497.33 78.2514
L497.866 78.2514
L498.044 77.9238
L500.544 77.9238
L500.812 77.2686
L500.901 77.2686
L501.08 76.941
L501.169 76.941
L501.348 76.6135
L501.705 76.6135
L501.972 75.9583
L502.062 75.9583
L502.24 75.6307
L502.419 75.6307
L502.597 75.3031
L503.847 75.3031
L504.026 74.9755
L505.544 74.9755
L505.633 74.648
L505.812 73.6652
L505.901 73.6652
L506.079 73.3376
L508.133 73.3376
L508.311 73.01
L510.097 73.01
L510.365 72.3549
L511.793 72.3549
L511.972 72.0273
L512.15 72.0273
L512.329 71.6997
L512.418 71.6997
L512.597 71.3721
L514.293 71.3721
L514.472 71.0445
L514.74 71.0445
L514.918 70.717
L515.275 70.717
L515.454 70.3894
L515.722 70.3894
L515.9 70.0618
L516.972 70.0618
L517.15 69.7342
L518.311 69.7342
L518.311 69.7342" style="fill:none;stroke:#00bfbf;stroke-dasharray:5.000000,1.000000,2.000000,1.000000,5.000000,1.000000;stroke-dashoffset:0.0;"/>
   </g>
   <g id="line2d_5">
    <path clip-path="url(#p7ff5b81e1d)" d="
M72 388.8
L72.7142 388.8
L72.8928 388.45
L73.5178 388.45
L73.6963 388.8
L83.4278 388.8
L83.6064 388.45
L84.3206 388.45
L84.4992 388.1
L87.2669 388.1
L87.4454 387.751
L90.6595 387.751
L91.1952 386.002
L93.4272 386.002
L93.9629 382.504
L94.8557 379.355
L96.9091 379.355
L97.177 378.656
L97.2662 378.656
L97.5341 377.956
L97.6234 377.956
L97.8019 376.907
L98.2483 374.109
L98.4269 374.109
L98.6054 373.409
L98.8733 373.409
L99.0518 373.059
L99.5875 373.059
L99.7661 372.709
L100.48 372.709
L100.837 370.611
L100.927 370.611
L101.552 366.413
L101.641 366.413
L101.82 362.565
L102.355 359.067
L103.069 359.067
L103.248 358.717
L104.052 358.717
L104.23 357.668
L104.676 351.372
L104.766 351.022
L105.123 347.524
L105.212 347.174
L105.391 345.425
L105.48 345.425
L105.659 343.326
L106.016 342.277
L106.105 342.277
L106.284 341.927
L106.641 341.927
L106.819 341.577
L107.266 341.577
L107.801 339.479
L108.426 332.133
L108.605 328.285
L108.873 326.886
L109.408 317.441
L109.587 317.441
L110.033 316.042
L110.301 316.042
L110.48 315.692
L110.658 315.692
L110.837 315.343
L110.926 315.343
L111.105 314.993
L111.194 314.993
L111.64 309.046
L112.087 299.602
L112.89 287.709
L113.069 287.709
L113.247 287.359
L113.337 287.359
L113.515 287.009
L114.229 287.009
L114.497 286.309
L114.765 286.309
L115.033 281.762
L115.301 275.815
L115.836 264.272
L115.926 263.922
L116.194 254.478
L116.283 254.478
L116.551 248.881
L117.354 248.881
L117.533 248.531
L117.89 248.531
L118.068 248.181
L118.336 248.181
L118.604 242.235
L118.693 241.535
L119.497 227.893
L120.211 218.099
L120.925 218.099
L121.193 217.399
L121.55 217.399
L121.908 216.35
L122.265 209.354
L122.622 203.757
L122.8 202.008
L123.247 195.362
L123.336 194.662
L123.604 190.115
L123.782 189.765
L125.032 189.765
L125.211 189.415
L125.3 189.415
L125.479 189.066
L125.747 184.868
L125.836 184.518
L126.104 178.572
L126.55 171.926
L127.354 160.032
L128.782 160.032
L129.139 158.283
L129.318 156.185
L129.853 150.588
L130.032 146.04
L130.836 137.296
L131.103 137.296
L131.282 136.946
L131.818 136.946
L131.996 136.596
L132.085 136.596
L132.264 136.246
L132.621 136.246
L133.068 129.95
L133.246 127.851
L133.335 127.851
L133.782 121.904
L134.05 114.559
L134.139 114.559
L134.407 112.81
L134.942 112.81
L135.121 112.46
L136.103 112.46
L136.192 112.11
L136.371 110.711
L136.549 109.662
L136.996 105.814
L137.174 104.065
L137.353 103.365
L137.532 103.015
L137.71 101.266
L137.799 101.266
L138.156 100.217
L139.317 100.217
L139.585 99.5174
L139.674 99.5174
L139.853 98.468
L140.478 91.8219
L140.567 91.8219
L140.835 90.4227
L141.013 90.4227
L141.371 89.3733
L142.978 89.3733
L143.156 89.0235
L143.335 89.0235
L143.513 87.2745
L143.781 84.4761
L144.495 79.5789
L144.585 79.5789
L144.674 79.2291
L144.852 77.83
L144.942 77.83
L145.12 77.4802
L146.102 77.4802
L146.37 76.7806
L146.995 76.7806
L147.442 75.3814
L147.531 75.3814
L147.799 74.6818
L147.888 74.6818
L148.156 73.6324
L148.334 72.2332
L148.424 72.2332
L148.692 71.5336
L148.781 71.5336
L149.049 70.834
L150.477 70.834
L150.656 70.1344
L150.834 69.085
L151.013 68.0356
L151.102 68.0356
L151.459 66.9862
L151.548 66.9862
L151.816 65.2372
L151.906 65.2372
L152.173 64.5377
L154.138 64.5377
L154.673 62.7887
L154.763 62.7887
L155.03 62.0891
L155.209 62.0891
L155.388 61.0397
L155.477 61.0397
L155.745 59.6405
L155.923 59.2907
L157.62 59.2907
L157.887 58.5911
L157.977 58.5911
L158.155 58.2413
L158.244 58.2413
L158.602 57.1919
L158.691 57.1919
L158.959 56.4923
L159.852 56.4923
L160.03 56.1425
L161.28 56.1425
L161.548 55.4429
L161.637 55.4429
L161.816 55.0931
L162.084 55.0931
L162.262 54.7433
L162.441 54.7433
L162.708 53.3441
L162.887 53.3441
L163.066 52.9943
L164.94 52.9943
L165.119 52.2947
L165.833 52.2947
L166.012 51.9449
L166.28 51.9449
L166.458 51.5951
L168.78 51.5951
L168.958 50.8955
L169.404 49.4964
L169.672 49.4964
L169.851 49.1466
L172.083 49.1466
L172.261 48.7968
L172.708 48.7968
L173.154 47.3976
L176.547 47.3976
L176.725 47.0478
L176.815 47.0478
L176.993 46.698
L179.582 46.698
L179.761 46.3482
L180.118 46.3482
L180.297 45.9984
L180.654 45.9984
L180.832 45.6486
L193.51 45.6486
L193.689 45.2988
L200.831 45.2988
L201.01 44.949
L201.545 44.949
L201.724 44.5992
L204.492 44.5992
L204.67 44.2494
L211.545 44.2494
L211.723 43.8996
L214.759 43.8996
L214.937 43.5498
L494.741 43.5498
L494.919 43.2
L518.311 43.2
L518.311 43.2" style="fill:none;stroke:#bf00bf;stroke-linecap:square;"/>
   </g>
   <g id="matplotlib.axis_1">
    <g id="xtick_1">
     <g id="line2d_6">
      <defs>
       <path d="
M0 0
L0 -4" id="mc7db9fdffb" style="stroke:#000000;stroke-width:0.5;"/>
      </defs>
      <g>
       <use style="stroke:#000000;stroke-width:0.5;" x="72.0" xlink:href="#mc7db9fdffb" y="388.8"/>
      </g>
     </g>
     <g id="line2d_7">
      <defs>
       <path d="
M0 0
L0 4" id="m5a7d422ac3" style="stroke:#000000;stroke-width:0.5;"/>
      </defs>
      <g>
       <use style="stroke:#000000;stroke-width:0.5;" x="72.0" xlink:href="#m5a7d422ac3" y="43.2"/>
      </g>
     </g>
     <g id="text_1">
      <!-- 0 -->
      <defs>
       <path d="
M56.9844 36.375
Q56.9844 16.7969 50.8594 7.64062
Q44.7344 -1.51562 31.8438 -1.51562
Q18.75 -1.51562 12.7188 7.76562
Q6.6875 17.0469 6.6875 36.2812
Q6.6875 55.6719 12.7812 64.9219
Q18.8906 74.1719 31.8438 74.1719
Q44.9219 74.1719 50.9531 64.7656
Q56.9844 55.375 56.9844 36.375
M44.1406 14.2031
Q45.8438 18.1719 46.4531 23.5156
Q47.0781 28.8594 47.0781 36.375
Q47.0781 43.7969 46.4531 49.2656
Q45.8438 54.7344 44.0938 58.5469
Q42.3906 62.3125 39.4219 64.2031
Q36.4688 66.1094 31.8438 66.1094
Q27.25 66.1094 24.2344 64.2031
Q21.2344 62.3125 19.4844 58.4531
Q17.8281 54.8281 17.2188 49.0156
Q16.6094 43.2188 16.6094 36.2812
Q16.6094 28.6562 17.1406 23.5312
Q17.6719 18.4062 19.4375 14.3594
Q21.0469 10.5469 24 8.54688
Q26.9531 6.54688 31.8438 6.54688
Q36.4219 6.54688 39.4531 8.45312
Q42.4844 10.3594 44.1406 14.2031" id="Verdana-30"/>
      </defs>
      <g transform="translate(68.9821875 401.918125)scale(0.12 -0.12)">
       <use xlink:href="#Verdana-30"/>
      </g>
     </g>
    </g>
    <g id="xtick_2">
     <g id="line2d_8">
      <g>
       <use style="stroke:#000000;stroke-width:0.5;" x="161.28" xlink:href="#mc7db9fdffb" y="388.8"/>
      </g>
     </g>
     <g id="line2d_9">
      <g>
       <use style="stroke:#000000;stroke-width:0.5;" x="161.28" xlink:href="#m5a7d422ac3" y="43.2"/>
      </g>
     </g>
     <g id="text_2">
      <!-- 1000 -->
      <defs>
       <path d="
M52.9375 0
L13.5781 0
L13.5781 7.42188
L28.7188 7.42188
L28.7188 56.1562
L13.5781 56.1562
L13.5781 62.7969
Q16.6562 62.7969 20.1719 63.2969
Q23.6875 63.8125 25.4844 64.7969
Q27.7344 66.0156 29.0312 67.8906
Q30.3281 69.7812 30.5156 72.9531
L38.0938 72.9531
L38.0938 7.42188
L52.9375 7.42188
z
" id="Verdana-31"/>
      </defs>
      <g transform="translate(147.2315625 401.918125)scale(0.12 -0.12)">
       <use xlink:href="#Verdana-31"/>
       <use x="63.57421875" xlink:href="#Verdana-30"/>
       <use x="127.1484375" xlink:href="#Verdana-30"/>
       <use x="190.72265625" xlink:href="#Verdana-30"/>
      </g>
     </g>
    </g>
    <g id="xtick_3">
     <g id="line2d_10">
      <g>
       <use style="stroke:#000000;stroke-width:0.5;" x="250.56" xlink:href="#mc7db9fdffb" y="388.8"/>
      </g>
     </g>
     <g id="line2d_11">
      <g>
       <use style="stroke:#000000;stroke-width:0.5;" x="250.56" xlink:href="#m5a7d422ac3" y="43.2"/>
      </g>
     </g>
     <g id="text_3">
      <!-- 2000 -->
      <defs>
       <path d="
M57.0781 0
L7.85938 0
L7.85938 10.2031
Q12.9844 14.5938 18.1406 18.9844
Q23.2969 23.3906 27.7344 27.7344
Q37.1094 36.8125 40.5781 42.1562
Q44.0469 47.5156 44.0469 53.7188
Q44.0469 59.375 40.3125 62.5625
Q36.5781 65.7656 29.8906 65.7656
Q25.4375 65.7656 20.2656 64.2031
Q15.0938 62.6406 10.1562 59.4219
L9.67188 59.4219
L9.67188 69.6719
Q13.1406 71.3906 18.9219 72.7969
Q24.7031 74.2188 30.125 74.2188
Q41.3125 74.2188 47.6562 68.8125
Q54 63.4219 54 54.2031
Q54 50.0469 52.9531 46.4531
Q51.9062 42.875 49.8594 39.6562
Q47.9531 36.625 45.3906 33.6875
Q42.8281 30.7656 39.1562 27.2031
Q33.9375 22.0781 28.3594 17.2656
Q22.7969 12.4531 17.9688 8.34375
L57.0781 8.34375
z
" id="Verdana-32"/>
      </defs>
      <g transform="translate(236.1684375 401.918125)scale(0.12 -0.12)">
       <use xlink:href="#Verdana-32"/>
       <use x="63.57421875" xlink:href="#Verdana-30"/>
       <use x="127.1484375" xlink:href="#Verdana-30"/>
       <use x="190.72265625" xlink:href="#Verdana-30"/>
      </g>
     </g>
    </g>
    <g id="xtick_4">
     <g id="line2d_12">
      <g>
       <use style="stroke:#000000;stroke-width:0.5;" x="339.84" xlink:href="#mc7db9fdffb" y="388.8"/>
      </g>
     </g>
     <g id="line2d_13">
      <g>
       <use style="stroke:#000000;stroke-width:0.5;" x="339.84" xlink:href="#m5a7d422ac3" y="43.2"/>
      </g>
     </g>
     <g id="text_4">
      <!-- 3000 -->
      <defs>
       <path d="
M50.6875 35.0156
Q53.0312 32.9062 54.5469 29.7344
Q56.0625 26.5625 56.0625 21.5312
Q56.0625 16.5469 54.25 12.3906
Q52.4375 8.25 49.1719 5.17188
Q45.5156 1.76562 40.5469 0.125
Q35.5938 -1.51562 29.6875 -1.51562
Q23.6406 -1.51562 17.7812 -0.0625
Q11.9219 1.375 8.15625 3.07812
L8.15625 13.2812
L8.89062 13.2812
Q13.0312 10.5469 18.6406 8.73438
Q24.2656 6.9375 29.5 6.9375
Q32.5625 6.9375 36.0312 7.95312
Q39.5 8.98438 41.6562 10.9844
Q43.8906 13.1406 44.9844 15.7188
Q46.0938 18.3125 46.0938 22.2656
Q46.0938 26.1719 44.8438 28.7344
Q43.6094 31.2969 41.4062 32.7656
Q39.2031 34.2812 36.0781 34.8438
Q32.9531 35.4062 29.3438 35.4062
L24.9531 35.4062
L24.9531 43.5
L28.375 43.5
Q35.7969 43.5 40.2031 46.5938
Q44.625 49.7031 44.625 55.6719
Q44.625 58.2969 43.5 60.2656
Q42.3906 62.25 40.375 63.5312
Q38.2812 64.7969 35.8906 65.2812
Q33.5 65.7656 30.4688 65.7656
Q25.8281 65.7656 20.5938 64.1094
Q15.375 62.4531 10.75 59.4219
L10.25 59.4219
L10.25 69.625
Q13.7188 71.3438 19.5 72.7812
Q25.2969 74.2188 30.7188 74.2188
Q36.0312 74.2188 40.0781 73.2344
Q44.1406 72.2656 47.4062 70.125
Q50.9219 67.7812 52.7344 64.4531
Q54.5469 61.1406 54.5469 56.6875
Q54.5469 50.6406 50.2656 46.125
Q46 41.6094 40.1875 40.4375
L40.1875 39.75
Q42.5312 39.3594 45.5469 38.1094
Q48.5781 36.8594 50.6875 35.0156" id="Verdana-33"/>
      </defs>
      <g transform="translate(325.46625 401.918125)scale(0.12 -0.12)">
       <use xlink:href="#Verdana-33"/>
       <use x="63.57421875" xlink:href="#Verdana-30"/>
       <use x="127.1484375" xlink:href="#Verdana-30"/>
       <use x="190.72265625" xlink:href="#Verdana-30"/>
      </g>
     </g>
    </g>
    <g id="xtick_5">
     <g id="line2d_14">
      <g>
       <use style="stroke:#000000;stroke-width:0.5;" x="429.12" xlink:href="#mc7db9fdffb" y="388.8"/>
      </g>
     </g>
     <g id="line2d_15">
      <g>
       <use style="stroke:#000000;stroke-width:0.5;" x="429.12" xlink:href="#m5a7d422ac3" y="43.2"/>
      </g>
     </g>
     <g id="text_5">
      <!-- 4000 -->
      <defs>
       <path d="
M58.7344 20.4531
L47.9531 20.4531
L47.9531 0
L38.5781 0
L38.5781 20.4531
L3.76562 20.4531
L3.76562 31.6875
L38.9688 72.7031
L47.9531 72.7031
L47.9531 28.2656
L58.7344 28.2656
z

M38.5781 28.2656
L38.5781 61.0781
L10.4062 28.2656
z
" id="Verdana-34"/>
      </defs>
      <g transform="translate(414.4828125 401.918125)scale(0.12 -0.12)">
       <use xlink:href="#Verdana-34"/>
       <use x="63.57421875" xlink:href="#Verdana-30"/>
       <use x="127.1484375" xlink:href="#Verdana-30"/>
       <use x="190.72265625" xlink:href="#Verdana-30"/>
      </g>
     </g>
    </g>
    <g id="xtick_6">
     <g id="line2d_16">
      <g>
       <use style="stroke:#000000;stroke-width:0.5;" x="518.4" xlink:href="#mc7db9fdffb" y="388.8"/>
      </g>
     </g>
     <g id="line2d_17">
      <g>
       <use style="stroke:#000000;stroke-width:0.5;" x="518.4" xlink:href="#m5a7d422ac3" y="43.2"/>
      </g>
     </g>
     <g id="text_6">
      <!-- 5000 -->
      <defs>
       <path d="
M56.5 23.0938
Q56.5 18.0156 54.6406 13.375
Q52.7812 8.73438 49.5625 5.5625
Q46.0469 2.15625 41.1875 0.3125
Q36.3281 -1.51562 29.9375 -1.51562
Q23.9688 -1.51562 18.4531 -0.265625
Q12.9375 0.984375 9.125 2.73438
L9.125 13.0312
L9.8125 13.0312
Q13.8125 10.5 19.1875 8.71875
Q24.5625 6.9375 29.7344 6.9375
Q33.2031 6.9375 36.4531 7.90625
Q39.7031 8.89062 42.2344 11.3281
Q44.3906 13.4219 45.4844 16.3438
Q46.5781 19.2812 46.5781 23.1406
Q46.5781 26.9062 45.2812 29.4844
Q44 32.0781 41.7031 33.6406
Q39.1562 35.5 35.5156 36.25
Q31.8906 37.0156 27.3906 37.0156
Q23.0938 37.0156 19.1094 36.4219
Q15.1406 35.8438 12.25 35.25
L12.25 72.7031
L56 72.7031
L56 64.1562
L21.6875 64.1562
L21.6875 44.8281
Q23.7812 45.0156 25.9688 45.1094
Q28.1719 45.2188 29.7812 45.2188
Q35.6875 45.2188 40.125 44.2188
Q44.5781 43.2188 48.2969 40.6719
Q52.2031 37.9844 54.3438 33.7344
Q56.5 29.5 56.5 23.0938" id="Verdana-35"/>
      </defs>
      <g transform="translate(504.084375 401.918125)scale(0.12 -0.12)">
       <use xlink:href="#Verdana-35"/>
       <use x="63.57421875" xlink:href="#Verdana-30"/>
       <use x="127.1484375" xlink:href="#Verdana-30"/>
       <use x="190.72265625" xlink:href="#Verdana-30"/>
      </g>
     </g>
    </g>
    <g id="text_7">
     <!-- Objective function exectuions -->
     <defs>
      <path d="
M37.3594 0.484375
Q34.7656 -0.203125 31.7031 -0.640625
Q28.6562 -1.07812 26.2656 -1.07812
Q17.9219 -1.07812 13.5781 3.40625
Q9.23438 7.90625 9.23438 17.8281
L9.23438 46.8281
L3.03125 46.8281
L3.03125 54.5469
L9.23438 54.5469
L9.23438 70.2188
L18.4062 70.2188
L18.4062 54.5469
L37.3594 54.5469
L37.3594 46.8281
L18.4062 46.8281
L18.4062 21.9688
Q18.4062 17.6719 18.5938 15.25
Q18.7969 12.8438 19.9688 10.75
Q21.0469 8.79688 22.9219 7.89062
Q24.8125 6.98438 28.6562 6.98438
Q30.9062 6.98438 33.3438 7.64062
Q35.7969 8.29688 36.8594 8.73438
L37.3594 8.73438
z
" id="Verdana-74"/>
      <path d="
M56.2031 54.5469
L34.125 0
L24.9062 0
L2.98438 54.5469
L12.9375 54.5469
L29.8281 11.1406
L46.5781 54.5469
z
" id="Verdana-76"/>
      <path d="
M26.0312 63.6719
L15.6719 63.6719
L15.6719 73.1875
L26.0312 73.1875
z

M25.4375 -1.3125
Q25.4375 -10.8906 20.5469 -15.7656
Q15.6719 -20.6562 7.46875 -20.6562
Q5.51562 -20.6562 2.3125 -20.2656
Q-0.875 -19.875 -3.03125 -19.2812
L-3.03125 -10.5469
L-2.54688 -10.5469
Q-1.17188 -11.0781 1.14062 -11.7656
Q3.46875 -12.4531 5.67188 -12.4531
Q9.1875 -12.4531 11.3281 -11.4688
Q13.4844 -10.5 14.5469 -8.54688
Q15.625 -6.59375 15.9375 -3.82812
Q16.2656 -1.07812 16.2656 2.875
L16.2656 46.8281
L4.89062 46.8281
L4.89062 54.5469
L25.4375 54.5469
z
" id="Verdana-6a"/>
      <path d="
M63.9688 64.3594
Q68.4062 59.4688 70.7656 52.3906
Q73.1406 45.3125 73.1406 36.3281
Q73.1406 27.3438 70.7188 20.2344
Q68.3125 13.1406 63.9688 8.40625
Q59.4688 3.46875 53.3438 0.96875
Q47.2188 -1.51562 39.3594 -1.51562
Q31.6875 -1.51562 25.4062 1.01562
Q19.1406 3.5625 14.75 8.40625
Q10.3594 13.2344 7.98438 20.2656
Q5.60938 27.2969 5.60938 36.3281
Q5.60938 45.2188 7.95312 52.2656
Q10.2969 59.3281 14.7969 64.3594
Q19.0938 69.1406 25.4688 71.6719
Q31.8438 74.2188 39.3594 74.2188
Q47.1719 74.2188 53.3906 71.6562
Q59.625 69.0938 63.9688 64.3594
M63.0938 36.3281
Q63.0938 50.4844 56.7344 58.1719
Q50.3906 65.875 39.4062 65.875
Q28.3281 65.875 22 58.1719
Q15.6719 50.4844 15.6719 36.3281
Q15.6719 22.0156 22.1094 14.4219
Q28.5625 6.84375 39.4062 6.84375
Q50.25 6.84375 56.6719 14.4219
Q63.0938 22.0156 63.0938 36.3281" id="Verdana-4f"/>
      <path d="
M54.25 0
L45.0625 0
L45.0625 6.0625
Q40.4375 2.39062 36.1875 0.4375
Q31.9375 -1.51562 26.8125 -1.51562
Q18.2188 -1.51562 13.4219 3.73438
Q8.64062 8.98438 8.64062 19.1406
L8.64062 54.5469
L17.8281 54.5469
L17.8281 23.4844
Q17.8281 19.3438 18.2188 16.375
Q18.6094 13.4219 19.875 11.3281
Q21.1875 9.1875 23.2812 8.20312
Q25.3906 7.23438 29.3906 7.23438
Q32.9531 7.23438 37.1719 9.07812
Q41.4062 10.9375 45.0625 13.8125
L45.0625 54.5469
L54.25 54.5469
z
" id="Verdana-75"/>
      <path d="
M48 15.7188
Q48 8.25 41.8125 3.46875
Q35.6406 -1.3125 24.9531 -1.3125
Q18.8906 -1.3125 13.8438 0.125
Q8.79688 1.5625 5.375 3.26562
L5.375 13.5781
L5.85938 13.5781
Q10.2031 10.2969 15.5156 8.375
Q20.8438 6.45312 25.7344 6.45312
Q31.7812 6.45312 35.2031 8.40625
Q38.625 10.3594 38.625 14.5469
Q38.625 17.7812 36.7656 19.4375
Q34.9062 21.0938 29.6406 22.2656
Q27.6875 22.7031 24.5312 23.2812
Q21.3906 23.875 18.7969 24.5625
Q11.625 26.4688 8.60938 30.1562
Q5.60938 33.8438 5.60938 39.2031
Q5.60938 42.5781 7 45.5469
Q8.40625 48.5312 11.2344 50.875
Q13.9688 53.1719 18.1875 54.5156
Q22.4062 55.8594 27.6406 55.8594
Q32.5156 55.8594 37.5156 54.6562
Q42.5312 53.4688 45.8438 51.7656
L45.8438 41.9375
L45.3594 41.9375
Q41.8438 44.5312 36.8125 46.3125
Q31.7812 48.0938 26.9531 48.0938
Q21.9219 48.0938 18.4531 46.1562
Q14.9844 44.2344 14.9844 40.4375
Q14.9844 37.0625 17.0938 35.3594
Q19.1406 33.6406 23.7344 32.5625
Q26.2656 31.9844 29.4062 31.3906
Q32.5625 30.8125 34.6719 30.3281
Q41.0625 28.8594 44.5312 25.2969
Q48 21.6875 48 15.7188" id="Verdana-73"/>
      <path d="
M56.25 0
L44.6719 0
L29.2031 20.9531
L13.625 0
L2.9375 0
L24.2188 27.2031
L3.125 54.5469
L14.7031 54.5469
L30.0781 33.9375
L45.5156 54.5469
L56.25 54.5469
L34.8125 27.6875
z
" id="Verdana-78"/>
      <path id="Verdana-20"/>
      <path d="
M38.375 67.0938
L37.8906 67.0938
Q36.375 67.5312 33.9375 67.9844
Q31.5 68.4531 29.6406 68.4531
Q23.7344 68.4531 21.0625 65.8438
Q18.4062 63.2344 18.4062 56.3906
L18.4062 54.5469
L34.9688 54.5469
L34.9688 46.8281
L18.7031 46.8281
L18.7031 0
L9.51562 0
L9.51562 46.8281
L3.32812 46.8281
L3.32812 54.5469
L9.51562 54.5469
L9.51562 56.3438
Q9.51562 66.0625 14.3438 71.2656
Q19.1875 76.4688 28.3281 76.4688
Q31.3906 76.4688 33.8594 76.1719
Q36.3281 75.875 38.375 75.4844
z
" id="Verdana-66"/>
      <path d="
M55.5156 27.25
Q55.5156 13.9219 48.6719 6.20312
Q41.8438 -1.51562 30.375 -1.51562
Q18.7969 -1.51562 11.9844 6.20312
Q5.17188 13.9219 5.17188 27.25
Q5.17188 40.5781 11.9844 48.3125
Q18.7969 56.0625 30.375 56.0625
Q41.8438 56.0625 48.6719 48.3125
Q55.5156 40.5781 55.5156 27.25
M46.0469 27.25
Q46.0469 37.8438 41.8906 42.9844
Q37.75 48.1406 30.375 48.1406
Q22.9062 48.1406 18.7812 42.9844
Q14.6562 37.8438 14.6562 27.25
Q14.6562 17 18.7969 11.6875
Q22.9531 6.39062 30.375 6.39062
Q37.7031 6.39062 41.875 11.6406
Q46.0469 16.8906 46.0469 27.25" id="Verdana-6f"/>
      <path d="
M57.0312 27.6875
Q57.0312 20.8438 55.0938 15.375
Q53.1719 9.90625 49.9062 6.20312
Q46.4375 2.34375 42.2812 0.40625
Q38.1406 -1.51562 33.1562 -1.51562
Q28.5156 -1.51562 25.0469 -0.40625
Q21.5781 0.6875 18.2188 2.54688
L17.625 0
L9.03125 0
L9.03125 75.9844
L18.2188 75.9844
L18.2188 48.8281
Q22.0781 52 26.4219 54.0312
Q30.7656 56.0625 36.1875 56.0625
Q45.8438 56.0625 51.4375 48.6406
Q57.0312 41.2188 57.0312 27.6875
M47.5625 27.4375
Q47.5625 37.2031 44.3281 42.25
Q41.1094 47.3125 33.9375 47.3125
Q29.9375 47.3125 25.8281 45.5781
Q21.7344 43.8438 18.2188 41.1094
L18.2188 9.85938
Q22.125 8.10938 24.9219 7.42188
Q27.7344 6.73438 31.2969 6.73438
Q38.9219 6.73438 43.2344 11.7344
Q47.5625 16.75 47.5625 27.4375" id="Verdana-62"/>
      <path d="
M49.3594 3.42188
Q44.7812 1.21875 40.6562 0
Q36.5312 -1.21875 31.8906 -1.21875
Q25.9844 -1.21875 21.0469 0.515625
Q16.1094 2.25 12.5938 5.76562
Q9.03125 9.28125 7.07812 14.6406
Q5.125 20.0156 5.125 27.2031
Q5.125 40.5781 12.4688 48.1875
Q19.8281 55.8125 31.8906 55.8125
Q36.5781 55.8125 41.0938 54.4844
Q45.6094 53.1719 49.3594 51.2656
L49.3594 41.0625
L48.875 41.0625
Q44.6719 44.3438 40.2031 46.0938
Q35.75 47.8594 31.5 47.8594
Q23.6875 47.8594 19.1719 42.6094
Q14.6562 37.3594 14.6562 27.2031
Q14.6562 17.3281 19.0625 12.0312
Q23.4844 6.73438 31.5 6.73438
Q34.2812 6.73438 37.1562 7.46875
Q40.0469 8.20312 42.3281 9.375
Q44.3438 10.4062 46.0938 11.5469
Q47.8594 12.7031 48.875 13.5312
L49.3594 13.5312
z
" id="Verdana-63"/>
      <path d="
M54.6406 0
L45.4531 0
L45.4531 31.0625
Q45.4531 34.8125 45.0156 38.1094
Q44.5781 41.4062 43.4062 43.2656
Q42.1875 45.3125 39.8906 46.3125
Q37.5938 47.3125 33.9375 47.3125
Q30.1719 47.3125 26.0625 45.4531
Q21.9688 43.6094 18.2188 40.7188
L18.2188 0
L9.03125 0
L9.03125 54.5469
L18.2188 54.5469
L18.2188 48.4844
Q22.5156 52.0469 27.0938 54.0469
Q31.6875 56.0625 36.5312 56.0625
Q45.3594 56.0625 50 50.7344
Q54.6406 45.4062 54.6406 35.4062
z
" id="Verdana-6e"/>
      <path d="
M54.6875 26.3125
L14.5 26.3125
Q14.5 21.2969 16.0156 17.5469
Q17.5312 13.8125 20.1719 11.4219
Q22.7031 9.07812 26.1875 7.90625
Q29.6875 6.73438 33.8906 6.73438
Q39.4531 6.73438 45.0938 8.95312
Q50.7344 11.1875 53.125 13.3281
L53.6094 13.3281
L53.6094 3.32812
Q48.9688 1.375 44.1406 0.046875
Q39.3125 -1.26562 33.9844 -1.26562
Q20.4062 -1.26562 12.7812 6.07812
Q5.17188 13.4219 5.17188 26.9531
Q5.17188 40.3281 12.4688 48.1875
Q19.7812 56.0625 31.6875 56.0625
Q42.7188 56.0625 48.7031 49.6094
Q54.6875 43.1719 54.6875 31.2969
z

M45.75 33.3438
Q45.7031 40.5781 42.1094 44.5312
Q38.5312 48.4844 31.2031 48.4844
Q23.8281 48.4844 19.4531 44.1406
Q15.0938 39.7969 14.5 33.3438
z
" id="Verdana-65"/>
      <path d="
M18.8906 63.6719
L8.54688 63.6719
L8.54688 73.1875
L18.8906 73.1875
z

M18.3125 0
L9.125 0
L9.125 54.5469
L18.3125 54.5469
z
" id="Verdana-69"/>
     </defs>
     <g transform="translate(206.5078125 418.509375)scale(0.12 -0.12)">
      <use xlink:href="#Verdana-4f"/>
      <use x="78.7109375" xlink:href="#Verdana-62"/>
      <use x="141.015625" xlink:href="#Verdana-6a"/>
      <use x="175.439453125" xlink:href="#Verdana-65"/>
      <use x="235.009765625" xlink:href="#Verdana-63"/>
      <use x="287.109375" xlink:href="#Verdana-74"/>
      <use x="326.513671875" xlink:href="#Verdana-69"/>
      <use x="353.955078125" xlink:href="#Verdana-76"/>
      <use x="412.259765625" xlink:href="#Verdana-65"/>
      <use x="471.830078125" xlink:href="#Verdana-20"/>
      <use x="506.986328125" xlink:href="#Verdana-66"/>
      <use x="542.142578125" xlink:href="#Verdana-75"/>
      <use x="605.423828125" xlink:href="#Verdana-6e"/>
      <use x="668.705078125" xlink:href="#Verdana-63"/>
      <use x="720.8046875" xlink:href="#Verdana-74"/>
      <use x="760.208984375" xlink:href="#Verdana-69"/>
      <use x="787.650390625" xlink:href="#Verdana-6f"/>
      <use x="848.34375" xlink:href="#Verdana-6e"/>
      <use x="911.625" xlink:href="#Verdana-20"/>
      <use x="946.78125" xlink:href="#Verdana-65"/>
      <use x="1006.3515625" xlink:href="#Verdana-78"/>
      <use x="1064.40625" xlink:href="#Verdana-65"/>
      <use x="1123.9765625" xlink:href="#Verdana-63"/>
      <use x="1176.076171875" xlink:href="#Verdana-74"/>
      <use x="1215.48046875" xlink:href="#Verdana-75"/>
      <use x="1278.76171875" xlink:href="#Verdana-69"/>
      <use x="1306.203125" xlink:href="#Verdana-6f"/>
      <use x="1366.896484375" xlink:href="#Verdana-6e"/>
      <use x="1430.177734375" xlink:href="#Verdana-73"/>
     </g>
    </g>
   </g>
   <g id="matplotlib.axis_2">
    <g id="ytick_1">
     <g id="line2d_18">
      <defs>
       <path d="
M0 0
L4 0" id="md7965d1ba0" style="stroke:#000000;stroke-width:0.5;"/>
      </defs>
      <g>
       <use style="stroke:#000000;stroke-width:0.5;" x="72.0" xlink:href="#md7965d1ba0" y="388.8"/>
      </g>
     </g>
     <g id="line2d_19">
      <defs>
       <path d="
M0 0
L-4 0" id="md9a1c1a7cd" style="stroke:#000000;stroke-width:0.5;"/>
      </defs>
      <g>
       <use style="stroke:#000000;stroke-width:0.5;" x="518.4" xlink:href="#md9a1c1a7cd" y="388.8"/>
      </g>
     </g>
     <g id="text_8">
      <!-- 0.0 -->
      <defs>
       <path d="
M24.0312 0
L12.3594 0
L12.3594 13.9219
L24.0312 13.9219
z
" id="Verdana-2e"/>
      </defs>
      <g transform="translate(49.97 392.1515625)scale(0.12 -0.12)">
       <use xlink:href="#Verdana-30"/>
       <use x="63.57421875" xlink:href="#Verdana-2e"/>
       <use x="99.951171875" xlink:href="#Verdana-30"/>
      </g>
     </g>
    </g>
    <g id="ytick_2">
     <g id="line2d_20">
      <g>
       <use style="stroke:#000000;stroke-width:0.5;" x="72.0" xlink:href="#md7965d1ba0" y="319.68"/>
      </g>
     </g>
     <g id="line2d_21">
      <g>
       <use style="stroke:#000000;stroke-width:0.5;" x="518.4" xlink:href="#md9a1c1a7cd" y="319.68"/>
      </g>
     </g>
     <g id="text_9">
      <!-- 0.2 -->
      <g transform="translate(49.95875 323.0315625)scale(0.12 -0.12)">
       <use xlink:href="#Verdana-30"/>
       <use x="63.57421875" xlink:href="#Verdana-2e"/>
       <use x="99.951171875" xlink:href="#Verdana-32"/>
      </g>
     </g>
    </g>
    <g id="ytick_3">
     <g id="line2d_22">
      <g>
       <use style="stroke:#000000;stroke-width:0.5;" x="72.0" xlink:href="#md7965d1ba0" y="250.56"/>
      </g>
     </g>
     <g id="line2d_23">
      <g>
       <use style="stroke:#000000;stroke-width:0.5;" x="518.4" xlink:href="#md9a1c1a7cd" y="250.56"/>
      </g>
     </g>
     <g id="text_10">
      <!-- 0.4 -->
      <g transform="translate(49.76 253.9115625)scale(0.12 -0.12)">
       <use xlink:href="#Verdana-30"/>
       <use x="63.57421875" xlink:href="#Verdana-2e"/>
       <use x="99.951171875" xlink:href="#Verdana-34"/>
      </g>
     </g>
    </g>
    <g id="ytick_4">
     <g id="line2d_24">
      <g>
       <use style="stroke:#000000;stroke-width:0.5;" x="72.0" xlink:href="#md7965d1ba0" y="181.44"/>
      </g>
     </g>
     <g id="line2d_25">
      <g>
       <use style="stroke:#000000;stroke-width:0.5;" x="518.4" xlink:href="#md9a1c1a7cd" y="181.44"/>
      </g>
     </g>
     <g id="text_11">
      <!-- 0.6 -->
      <defs>
       <path d="
M58.1562 23.5781
Q58.1562 12.5 50.8594 5.48438
Q43.5625 -1.51562 32.9531 -1.51562
Q27.5938 -1.51562 23.1875 0.140625
Q18.7969 1.8125 15.4375 5.07812
Q11.2344 9.125 8.95312 15.8125
Q6.6875 22.5156 6.6875 31.9375
Q6.6875 41.6094 8.76562 49.0781
Q10.8438 56.5469 15.375 62.3594
Q19.6719 67.875 26.4531 70.9688
Q33.25 74.0781 42.2812 74.0781
Q45.1719 74.0781 47.125 73.8281
Q49.0781 73.5781 51.0781 72.9531
L51.0781 63.625
L50.5938 63.625
Q49.2188 64.3594 46.4531 65.0156
Q43.7031 65.6719 40.8281 65.6719
Q30.3281 65.6719 24.0781 59.1094
Q17.8281 52.5469 16.7969 41.3594
Q20.9062 43.8438 24.875 45.1406
Q28.8594 46.4375 34.0781 46.4375
Q38.7188 46.4375 42.25 45.5781
Q45.7969 44.7344 49.5156 42.1406
Q53.8125 39.1562 55.9844 34.6094
Q58.1562 30.0781 58.1562 23.5781
M48.25 23.1875
Q48.25 27.7344 46.9062 30.7031
Q45.5625 33.6875 42.4844 35.8906
Q40.2344 37.4531 37.5 37.9375
Q34.7656 38.4219 31.7812 38.4219
Q27.6406 38.4219 24.0781 37.4375
Q20.5156 36.4688 16.75 34.4219
Q16.6562 33.3438 16.5938 32.3438
Q16.5469 31.3438 16.5469 29.8281
Q16.5469 22.125 18.1406 17.6562
Q19.7344 13.1875 22.5156 10.5938
Q24.75 8.45312 27.3594 7.45312
Q29.9844 6.45312 33.0625 6.45312
Q40.1406 6.45312 44.1875 10.7656
Q48.25 15.0938 48.25 23.1875" id="Verdana-36"/>
      </defs>
      <g transform="translate(49.829375 184.7915625)scale(0.12 -0.12)">
       <use xlink:href="#Verdana-30"/>
       <use x="63.57421875" xlink:href="#Verdana-2e"/>
       <use x="99.951171875" xlink:href="#Verdana-36"/>
      </g>
     </g>
    </g>
    <g id="ytick_5">
     <g id="line2d_26">
      <g>
       <use style="stroke:#000000;stroke-width:0.5;" x="72.0" xlink:href="#md7965d1ba0" y="112.32"/>
      </g>
     </g>
     <g id="line2d_27">
      <g>
       <use style="stroke:#000000;stroke-width:0.5;" x="518.4" xlink:href="#md9a1c1a7cd" y="112.32"/>
      </g>
     </g>
     <g id="text_12">
      <!-- 0.8 -->
      <defs>
       <path d="
M57.625 20.2656
Q57.625 10.8438 50.2656 4.59375
Q42.9219 -1.65625 31.7812 -1.65625
Q19.9688 -1.65625 12.9531 4.4375
Q5.95312 10.5469 5.95312 20.0625
Q5.95312 26.125 9.46875 31.0312
Q12.9844 35.9375 19.3906 38.8125
L19.3906 39.1094
Q13.5312 42.2344 10.7188 45.9375
Q7.90625 49.6562 7.90625 55.2188
Q7.90625 63.4219 14.6406 68.8906
Q21.3906 74.3594 31.7812 74.3594
Q42.6719 74.3594 49.1719 69.1406
Q55.6719 63.9219 55.6719 55.8594
Q55.6719 50.9219 52.5938 46.1562
Q49.5156 41.4062 43.5625 38.7188
L43.5625 38.4219
Q50.3906 35.5 54 31.2031
Q57.625 26.9062 57.625 20.2656
M46.0469 55.7656
Q46.0469 60.9844 42.0156 64.0781
Q37.9844 67.1875 31.7344 67.1875
Q25.5938 67.1875 21.6562 64.25
Q17.7188 61.3281 17.7188 56.3438
Q17.7188 52.8281 19.7031 50.2656
Q21.6875 47.7031 25.6875 45.7031
Q27.4844 44.8281 30.875 43.4062
Q34.2812 42 37.5 41.0625
Q42.3281 44.2812 44.1875 47.75
Q46.0469 51.2188 46.0469 55.7656
M47.5625 19.3438
Q47.5625 23.8281 45.5781 26.5312
Q43.6094 29.25 37.8438 31.9844
Q35.5469 33.0625 32.8125 33.9844
Q30.0781 34.9062 25.5312 36.5781
Q21.1406 34.1875 18.4844 30.0781
Q15.8281 25.9844 15.8281 20.7969
Q15.8281 14.2031 20.3594 9.90625
Q24.9062 5.60938 31.8906 5.60938
Q39.0156 5.60938 43.2812 9.26562
Q47.5625 12.9375 47.5625 19.3438" id="Verdana-38"/>
      </defs>
      <g transform="translate(49.893125 115.6715625)scale(0.12 -0.12)">
       <use xlink:href="#Verdana-30"/>
       <use x="63.57421875" xlink:href="#Verdana-2e"/>
       <use x="99.951171875" xlink:href="#Verdana-38"/>
      </g>
     </g>
    </g>
    <g id="ytick_6">
     <g id="line2d_28">
      <g>
       <use style="stroke:#000000;stroke-width:0.5;" x="72.0" xlink:href="#md7965d1ba0" y="43.2"/>
      </g>
     </g>
     <g id="line2d_29">
      <g>
       <use style="stroke:#000000;stroke-width:0.5;" x="518.4" xlink:href="#md9a1c1a7cd" y="43.2"/>
      </g>
     </g>
     <g id="text_13">
      <!-- 1.0 -->
      <g transform="translate(50.796875 46.5515625)scale(0.12 -0.12)">
       <use xlink:href="#Verdana-31"/>
       <use x="63.57421875" xlink:href="#Verdana-2e"/>
       <use x="99.951171875" xlink:href="#Verdana-30"/>
      </g>
     </g>
    </g>
    <g id="text_14">
     <!-- Data Profile T-0.0010000 -->
     <defs>
      <path d="
M43.0625 44.5312
L42.5781 44.5312
Q40.5312 45.0156 38.5938 45.2344
Q36.6719 45.4531 34.0312 45.4531
Q29.7812 45.4531 25.8281 43.5781
Q21.875 41.7031 18.2188 38.7188
L18.2188 0
L9.03125 0
L9.03125 54.5469
L18.2188 54.5469
L18.2188 46.4844
Q23.6875 50.875 27.8594 52.7031
Q32.0312 54.5469 36.375 54.5469
Q38.7656 54.5469 39.8438 54.4219
Q40.9219 54.2969 43.0625 53.9531
z
" id="Verdana-72"/>
      <path d="
M37.9375 27.3906
L7.46875 27.3906
L7.46875 36.2344
L37.9375 36.2344
z
" id="Verdana-2d"/>
      <path d="
M18.3125 0
L9.125 0
L9.125 75.9844
L18.3125 75.9844
z
" id="Verdana-6c"/>
      <path d="
M57.3281 50.7344
Q57.3281 45.9062 55.6406 41.7656
Q53.9531 37.6406 50.9219 34.625
Q47.1719 30.8594 42.0469 28.9688
Q36.9219 27.0938 29.1094 27.0938
L19.4375 27.0938
L19.4375 0
L9.76562 0
L9.76562 72.7031
L29.5 72.7031
Q36.0312 72.7031 40.5781 71.6094
Q45.125 70.5156 48.6406 68.1719
Q52.7812 65.375 55.0469 61.2188
Q57.3281 57.0781 57.3281 50.7344
M47.2656 50.4844
Q47.2656 54.25 45.9375 57.0312
Q44.625 59.8125 41.9375 61.5781
Q39.5938 63.0938 36.5938 63.75
Q33.5938 64.4062 29 64.4062
L19.4375 64.4062
L19.4375 35.3594
L27.5938 35.3594
Q33.4531 35.3594 37.1094 36.4062
Q40.7656 37.4531 43.0625 39.75
Q45.3594 42.0938 46.3125 44.6719
Q47.2656 47.2656 47.2656 50.4844" id="Verdana-50"/>
      <path d="
M61.625 64.1094
L35.6406 64.1094
L35.6406 0
L25.9844 0
L25.9844 64.1094
L0 64.1094
L0 72.7031
L61.625 72.7031
z
" id="Verdana-54"/>
      <path d="
M51.4219 0
L42.2812 0
L42.2812 5.8125
Q41.0625 4.98438 38.9844 3.48438
Q36.9219 2 34.9688 1.125
Q32.6719 0 29.6875 -0.75
Q26.7031 -1.51562 22.7031 -1.51562
Q15.3281 -1.51562 10.2031 3.35938
Q5.07812 8.25 5.07812 15.8281
Q5.07812 22.0156 7.73438 25.8438
Q10.4062 29.6875 15.3281 31.8906
Q20.3125 34.0781 27.2969 34.8594
Q34.2812 35.6406 42.2812 36.0312
L42.2812 37.4531
Q42.2812 40.5781 41.1875 42.625
Q40.0938 44.6719 38.0312 45.8438
Q36.0781 46.9688 33.3438 47.3594
Q30.6094 47.75 27.6406 47.75
Q24.0312 47.75 19.5781 46.7969
Q15.1406 45.8438 10.4062 44.0469
L9.90625 44.0469
L9.90625 53.375
Q12.5938 54.1094 17.6719 54.9844
Q22.75 55.8594 27.6875 55.8594
Q33.4531 55.8594 37.7188 54.9062
Q42 53.9531 45.125 51.6562
Q48.1875 49.4219 49.7969 45.8438
Q51.4219 42.2812 51.4219 37.0156
z

M42.2812 13.4219
L42.2812 28.6094
Q38.0938 28.375 32.3906 27.875
Q26.7031 27.3906 23.3906 26.4688
Q19.4375 25.3438 16.9844 22.9688
Q14.5469 20.6094 14.5469 16.4531
Q14.5469 11.7656 17.375 9.39062
Q20.2188 7.03125 26.0312 7.03125
Q30.8594 7.03125 34.8594 8.90625
Q38.875 10.7969 42.2812 13.4219" id="Verdana-61"/>
      <path d="
M71.1875 36.2812
Q71.1875 26.375 66.8594 18.3125
Q62.5469 10.25 55.375 5.8125
Q50.3906 2.73438 44.2656 1.35938
Q38.1406 0 28.125 0
L9.76562 0
L9.76562 72.7031
L27.9375 72.7031
Q38.5781 72.7031 44.8438 71.1562
Q51.125 69.625 55.4688 66.9375
Q62.8906 62.3125 67.0312 54.5938
Q71.1875 46.875 71.1875 36.2812
M61.0781 36.4219
Q61.0781 44.9688 58.0938 50.8281
Q55.125 56.6875 49.2188 60.0625
Q44.9219 62.5 40.0781 63.4531
Q35.25 64.4062 28.5156 64.4062
L19.4375 64.4062
L19.4375 8.29688
L28.5156 8.29688
Q35.5 8.29688 40.7031 9.32812
Q45.9062 10.3594 50.25 13.1406
Q55.6719 16.6094 58.375 22.2656
Q61.0781 27.9375 61.0781 36.4219" id="Verdana-44"/>
     </defs>
     <g transform="translate(42.345 291.493125)rotate(-90.0)scale(0.12 -0.12)">
      <use xlink:href="#Verdana-44"/>
      <use x="77.05078125" xlink:href="#Verdana-61"/>
      <use x="137.109375" xlink:href="#Verdana-74"/>
      <use x="176.513671875" xlink:href="#Verdana-61"/>
      <use x="236.572265625" xlink:href="#Verdana-20"/>
      <use x="271.728515625" xlink:href="#Verdana-50"/>
      <use x="332.03125" xlink:href="#Verdana-72"/>
      <use x="374.70703125" xlink:href="#Verdana-6f"/>
      <use x="435.400390625" xlink:href="#Verdana-66"/>
      <use x="470.556640625" xlink:href="#Verdana-69"/>
      <use x="497.998046875" xlink:href="#Verdana-6c"/>
      <use x="525.439453125" xlink:href="#Verdana-65"/>
      <use x="585.009765625" xlink:href="#Verdana-20"/>
      <use x="620.166015625" xlink:href="#Verdana-54"/>
      <use x="674.412109375" xlink:href="#Verdana-2d"/>
      <use x="719.822265625" xlink:href="#Verdana-30"/>
      <use x="783.396484375" xlink:href="#Verdana-2e"/>
      <use x="819.7734375" xlink:href="#Verdana-30"/>
      <use x="883.34765625" xlink:href="#Verdana-30"/>
      <use x="946.921875" xlink:href="#Verdana-31"/>
      <use x="1010.49609375" xlink:href="#Verdana-30"/>
      <use x="1074.0703125" xlink:href="#Verdana-30"/>
      <use x="1137.64453125" xlink:href="#Verdana-30"/>
      <use x="1201.21875" xlink:href="#Verdana-30"/>
     </g>
    </g>
   </g>
   <g id="patch_3">
    <path d="
M72 388.8
L518.4 388.8" style="fill:none;stroke:#000000;"/>
   </g>
   <g id="patch_4">
    <path d="
M518.4 388.8
L518.4 43.2" style="fill:none;stroke:#000000;"/>
   </g>
   <g id="patch_5">
    <path d="
M72 388.8
L72 43.2" style="fill:none;stroke:#000000;"/>
   </g>
   <g id="patch_6">
    <path d="
M72 43.2
L518.4 43.2" style="fill:none;stroke:#000000;"/>
   </g>
   <g id="text_15">
    <!-- Rosenbrock Data Profile T-0.0010000 -->
    <defs>
     <path d="
M58.5469 0
L46.4375 0
L24.5625 23.875
L18.6094 18.2188
L18.6094 0
L9.42188 0
L9.42188 75.9844
L18.6094 75.9844
L18.6094 27.25
L45.125 54.5469
L56.6875 54.5469
L31.3438 29.3438
z
" id="Verdana-6b"/>
     <path d="
M69.9219 0
L57.375 0
L33.0625 28.9062
L19.4375 28.9062
L19.4375 0
L9.76562 0
L9.76562 72.7031
L30.125 72.7031
Q36.7188 72.7031 41.1094 71.8438
Q45.5156 71 49.0312 68.7969
Q52.9844 66.3125 55.2031 62.5156
Q57.4219 58.7344 57.4219 52.9375
Q57.4219 45.0625 53.4688 39.7656
Q49.5156 34.4688 42.5781 31.7812
z

M47.3125 52.25
Q47.3125 55.375 46.2188 57.7812
Q45.125 60.2031 42.5781 61.8594
Q40.4844 63.2812 37.5938 63.8438
Q34.7188 64.4062 30.8125 64.4062
L19.4375 64.4062
L19.4375 36.9688
L29.2031 36.9688
Q33.7969 36.9688 37.2031 37.7656
Q40.625 38.5781 43.0156 40.7656
Q45.2188 42.8281 46.2656 45.4844
Q47.3125 48.1406 47.3125 52.25" id="Verdana-52"/>
    </defs>
    <g transform="translate(160.344 38.2)scale(0.144 -0.144)">
     <use xlink:href="#Verdana-52"/>
     <use x="67.03125" xlink:href="#Verdana-6f"/>
     <use x="127.724609375" xlink:href="#Verdana-73"/>
     <use x="179.82421875" xlink:href="#Verdana-65"/>
     <use x="239.39453125" xlink:href="#Verdana-6e"/>
     <use x="302.67578125" xlink:href="#Verdana-62"/>
     <use x="364.98046875" xlink:href="#Verdana-72"/>
     <use x="407.65625" xlink:href="#Verdana-6f"/>
     <use x="468.349609375" xlink:href="#Verdana-63"/>
     <use x="520.44921875" xlink:href="#Verdana-6b"/>
     <use x="579.62890625" xlink:href="#Verdana-20"/>
     <use x="614.78515625" xlink:href="#Verdana-44"/>
     <use x="691.8359375" xlink:href="#Verdana-61"/>
     <use x="751.89453125" xlink:href="#Verdana-74"/>
     <use x="791.298828125" xlink:href="#Verdana-61"/>
     <use x="851.357421875" xlink:href="#Verdana-20"/>
     <use x="886.513671875" xlink:href="#Verdana-50"/>
     <use x="946.81640625" xlink:href="#Verdana-72"/>
     <use x="989.4921875" xlink:href="#Verdana-6f"/>
     <use x="1050.185546875" xlink:href="#Verdana-66"/>
     <use x="1085.341796875" xlink:href="#Verdana-69"/>
     <use x="1112.783203125" xlink:href="#Verdana-6c"/>
     <use x="1140.224609375" xlink:href="#Verdana-65"/>
     <use x="1199.794921875" xlink:href="#Verdana-20"/>
     <use x="1234.951171875" xlink:href="#Verdana-54"/>
     <use x="1289.197265625" xlink:href="#Verdana-2d"/>
     <use x="1334.607421875" xlink:href="#Verdana-30"/>
     <use x="1398.181640625" xlink:href="#Verdana-2e"/>
     <use x="1434.55859375" xlink:href="#Verdana-30"/>
     <use x="1498.1328125" xlink:href="#Verdana-30"/>
     <use x="1561.70703125" xlink:href="#Verdana-31"/>
     <use x="1625.28125" xlink:href="#Verdana-30"/>
     <use x="1688.85546875" xlink:href="#Verdana-30"/>
     <use x="1752.4296875" xlink:href="#Verdana-30"/>
     <use x="1816.00390625" xlink:href="#Verdana-30"/>
    </g>
   </g>
   <g id="legend_1">
    <g id="patch_7">
     <path d="
M407.18 381.6
L511.2 381.6
L511.2 272.081
L407.18 272.081
L407.18 381.6
z
" style="fill:#ffffff;stroke:#000000;"/>
    </g>
    <g id="line2d_30">
     <path d="
M417.26 283.743
L437.42 283.743" style="fill:none;stroke:#0000ff;stroke-dasharray:6.000000,2.000000;stroke-dashoffset:0.0;"/>
    </g>
    <g id="line2d_31"/>
    <g id="text_16">
     <!-- AMPGO -->
     <defs>
      <path d="
M67.0938 0
L56.7812 0
L49.6562 20.2656
L18.2188 20.2656
L11.0781 0
L1.26562 0
L27.7344 72.7031
L40.625 72.7031
z

M46.6875 28.5625
L33.9375 64.2656
L21.1406 28.5625
z
" id="Verdana-41"/>
      <path d="
M74.5156 0
L64.8438 0
L64.8438 62.6406
L44.625 20.0156
L38.875 20.0156
L18.7969 62.6406
L18.7969 0
L9.76562 0
L9.76562 72.7031
L22.9531 72.7031
L42.3281 32.2344
L61.0781 72.7031
L74.5156 72.7031
z
" id="Verdana-4d"/>
      <path d="
M70.4062 5.375
Q64.4531 2.64062 57.3906 0.609375
Q50.3438 -1.42188 43.75 -1.42188
Q35.25 -1.42188 28.1719 0.921875
Q21.0938 3.26562 16.1094 7.95312
Q11.0781 12.7031 8.34375 19.7969
Q5.60938 26.9062 5.60938 36.4219
Q5.60938 53.8594 15.7969 63.9375
Q25.9844 74.0312 43.75 74.0312
Q49.9531 74.0312 56.4219 72.5312
Q62.8906 71.0469 70.3594 67.4844
L70.3594 56
L69.4844 56
Q67.9688 57.1719 65.0781 59.0781
Q62.2031 60.9844 59.4219 62.25
Q56.0625 63.7656 51.7812 64.7656
Q47.5156 65.7656 42.0938 65.7656
Q29.8906 65.7656 22.7812 57.9219
Q15.6719 50.0938 15.6719 36.7188
Q15.6719 22.6094 23.0938 14.7656
Q30.5156 6.9375 43.3125 6.9375
Q48 6.9375 52.6562 7.85938
Q57.3281 8.79688 60.8438 10.25
L60.8438 28.0781
L41.3594 28.0781
L41.3594 36.5781
L70.4062 36.5781
z
" id="Verdana-47"/>
     </defs>
     <g transform="translate(453.26025 288.783)scale(0.144 -0.144)">
      <use xlink:href="#Verdana-41"/>
      <use x="68.359375" xlink:href="#Verdana-4d"/>
      <use x="152.63671875" xlink:href="#Verdana-50"/>
      <use x="212.939453125" xlink:href="#Verdana-47"/>
      <use x="290.478515625" xlink:href="#Verdana-4f"/>
     </g>
    </g>
    <g id="line2d_32">
     <path d="
M417.26 304.783
L437.42 304.783" style="fill:none;stroke:#008000;stroke-dasharray:1.000000,1.000000;stroke-dashoffset:0.0;"/>
    </g>
    <g id="line2d_33"/>
    <g id="text_17">
     <!-- Anneal -->
     <g transform="translate(453.26025 309.82275)scale(0.144 -0.144)">
      <use xlink:href="#Verdana-41"/>
      <use x="68.359375" xlink:href="#Verdana-6e"/>
      <use x="131.640625" xlink:href="#Verdana-6e"/>
      <use x="194.921875" xlink:href="#Verdana-65"/>
      <use x="254.4921875" xlink:href="#Verdana-61"/>
      <use x="314.55078125" xlink:href="#Verdana-6c"/>
     </g>
    </g>
    <g id="line2d_34">
     <path d="
M417.26 325.822
L437.42 325.822" style="fill:none;stroke:#ff0000;stroke-dasharray:3.000000,6.000000;stroke-dashoffset:0.0;"/>
    </g>
    <g id="line2d_35"/>
    <g id="text_18">
     <!-- BSA -->
     <defs>
      <path d="
M64.5938 22.3594
Q64.5938 16.9375 62.5469 12.7812
Q60.5 8.64062 57.0312 5.95312
Q52.9375 2.73438 48.0156 1.35938
Q43.1094 0 35.5469 0
L9.76562 0
L9.76562 72.7031
L31.2969 72.7031
Q39.2656 72.7031 43.2188 72.1094
Q47.1719 71.5312 50.7812 69.6719
Q54.7812 67.5781 56.5938 64.2812
Q58.4062 60.9844 58.4062 56.3906
Q58.4062 51.2188 55.7656 47.5781
Q53.125 43.9531 48.7344 41.75
L48.7344 41.3594
Q56.1094 39.8438 60.3438 34.8906
Q64.5938 29.9375 64.5938 22.3594
M48.3438 55.125
Q48.3438 57.7656 47.4531 59.5625
Q46.5781 61.375 44.625 62.5
Q42.3281 63.8125 39.0625 64.125
Q35.7969 64.4531 30.9531 64.4531
L19.4375 64.4531
L19.4375 43.4531
L31.9375 43.4531
Q36.4688 43.4531 39.1562 43.9219
Q41.8438 44.3906 44.1406 45.8438
Q46.4375 47.3125 47.3906 49.625
Q48.3438 51.9531 48.3438 55.125
M54.5469 21.9688
Q54.5469 26.375 53.2188 28.9531
Q51.9062 31.5469 48.4375 33.3438
Q46.0938 34.5781 42.75 34.9375
Q39.4062 35.2969 34.625 35.2969
L19.4375 35.2969
L19.4375 8.25
L32.2344 8.25
Q38.5781 8.25 42.625 8.90625
Q46.6875 9.57812 49.2656 11.3281
Q52 13.2344 53.2656 15.6719
Q54.5469 18.1094 54.5469 21.9688" id="Verdana-42"/>
      <path d="
M62.5938 20.75
Q62.5938 16.5 60.6094 12.3438
Q58.6406 8.20312 55.0781 5.32812
Q51.1719 2.20312 45.9688 0.4375
Q40.7656 -1.3125 33.4531 -1.3125
Q25.5938 -1.3125 19.3125 0.140625
Q13.0312 1.60938 6.54688 4.5
L6.54688 16.6094
L7.23438 16.6094
Q12.75 12.0156 19.9688 9.51562
Q27.2031 7.03125 33.5469 7.03125
Q42.5312 7.03125 47.5312 10.3906
Q52.5469 13.7656 52.5469 19.3906
Q52.5469 24.2188 50.1719 26.5156
Q47.7969 28.8125 42.9688 30.0781
Q39.3125 31.0625 35.0312 31.6875
Q30.7656 32.3281 25.9844 33.2969
Q16.3125 35.3594 11.6406 40.3125
Q6.98438 45.2656 6.98438 53.2188
Q6.98438 62.3594 14.6875 68.1875
Q22.4062 74.0312 34.2812 74.0312
Q41.9375 74.0312 48.3281 72.5625
Q54.7344 71.0938 59.6719 68.9531
L59.6719 57.5156
L58.9844 57.5156
Q54.8281 61.0312 48.0625 63.3438
Q41.3125 65.6719 34.2344 65.6719
Q26.4688 65.6719 21.75 62.4531
Q17.0469 59.2344 17.0469 54.1562
Q17.0469 49.6094 19.3906 47.0156
Q21.7344 44.4375 27.6406 43.0625
Q30.7656 42.3906 36.5156 41.4062
Q42.2812 40.4375 46.2969 39.4062
Q54.3906 37.25 58.4844 32.9062
Q62.5938 28.5625 62.5938 20.75" id="Verdana-53"/>
     </defs>
     <g transform="translate(453.26025 330.8625)scale(0.144 -0.144)">
      <use xlink:href="#Verdana-42"/>
      <use x="68.5546875" xlink:href="#Verdana-53"/>
      <use x="135.9140625" xlink:href="#Verdana-41"/>
     </g>
    </g>
    <g id="line2d_36">
     <path d="
M417.26 346.862
L437.42 346.862" style="fill:none;stroke:#00bfbf;stroke-dasharray:5.000000,1.000000,2.000000,1.000000,5.000000,1.000000;stroke-dashoffset:0.0;"/>
    </g>
    <g id="line2d_37"/>
    <g id="text_19">
     <!-- Cuckoo -->
     <defs>
      <path d="
M65.9219 5.28125
Q63.2344 4.10938 61.0625 3.07812
Q58.8906 2.04688 55.375 0.921875
Q52.3906 0 48.8906 -0.65625
Q45.4062 -1.3125 41.2188 -1.3125
Q33.2969 -1.3125 26.8281 0.90625
Q20.3594 3.125 15.5781 7.85938
Q10.8906 12.5 8.25 19.6562
Q5.60938 26.8125 5.60938 36.2812
Q5.60938 45.2656 8.14062 52.3438
Q10.6875 59.4219 15.4844 64.3125
Q20.125 69.0469 26.6875 71.5312
Q33.25 74.0312 41.2656 74.0312
Q47.125 74.0312 52.9531 72.6094
Q58.7969 71.1875 65.9219 67.625
L65.9219 56.1562
L65.1875 56.1562
Q59.1875 61.1875 53.2656 63.4688
Q47.3594 65.7656 40.625 65.7656
Q35.1094 65.7656 30.6875 63.9844
Q26.2656 62.2031 22.7969 58.4531
Q19.4375 54.7812 17.5469 49.1875
Q15.6719 43.6094 15.6719 36.2812
Q15.6719 28.6094 17.75 23.0938
Q19.8281 17.5781 23.0938 14.1094
Q26.5156 10.5 31.0781 8.76562
Q35.6406 7.03125 40.7188 7.03125
Q47.7031 7.03125 53.7969 9.42188
Q59.9062 11.8125 65.2344 16.6094
L65.9219 16.6094
z
" id="Verdana-43"/>
     </defs>
     <g transform="translate(453.26025 351.90225)scale(0.144 -0.144)">
      <use xlink:href="#Verdana-43"/>
      <use x="69.82421875" xlink:href="#Verdana-75"/>
      <use x="133.10546875" xlink:href="#Verdana-63"/>
      <use x="185.205078125" xlink:href="#Verdana-6b"/>
      <use x="243.384765625" xlink:href="#Verdana-6f"/>
      <use x="304.078125" xlink:href="#Verdana-6f"/>
     </g>
    </g>
    <g id="line2d_38">
     <path d="
M417.26 367.902
L437.42 367.902" style="fill:none;stroke:#bf00bf;stroke-linecap:square;"/>
    </g>
    <g id="line2d_39"/>
    <g id="text_20">
     <!-- qABC -->
     <defs>
      <path d="
M53.2656 -20.125
L44.0938 -20.125
L44.0938 6.15625
Q39.8438 2.48438 35.6406 0.703125
Q31.4531 -1.07812 26.5625 -1.07812
Q16.8438 -1.07812 11.0625 6.42188
Q5.28125 13.9219 5.28125 27.0938
Q5.28125 34.125 7.29688 39.5156
Q9.32812 44.9219 12.6406 48.5781
Q15.875 52.1562 20.2188 54.1094
Q24.5625 56.0625 29.3906 56.0625
Q33.7969 56.0625 37.1875 55.0781
Q40.5781 54.1094 44.0938 52.2031
L44.6719 54.5469
L53.2656 54.5469
z

M44.0938 13.875
L44.0938 44.7344
Q40.2812 46.4375 37.3438 47.1094
Q34.4219 47.7969 31 47.7969
Q23.0469 47.7969 18.8906 42.4062
Q14.75 37.0156 14.75 27.5469
Q14.75 17.9688 18.0938 12.8125
Q21.4375 7.67188 28.6094 7.67188
Q32.625 7.67188 36.625 9.40625
Q40.625 11.1406 44.0938 13.875" id="Verdana-71"/>
     </defs>
     <g transform="translate(453.26025 372.942)scale(0.144 -0.144)">
      <use xlink:href="#Verdana-71"/>
      <use x="62.3046875" xlink:href="#Verdana-41"/>
      <use x="130.6640625" xlink:href="#Verdana-42"/>
      <use x="199.21875" xlink:href="#Verdana-43"/>
     </g>
    </g>
   </g>
  </g>
 </g>
 <defs>
  <clipPath id="p7ff5b81e1d">
   <rect height="345.6" width="446.4" x="72.0" y="43.2"/>
  </clipPath>
 </defs>
</svg>
