<?xml version="1.0" encoding="utf-8" standalone="no"?>
<!DOCTYPE svg PUBLIC "-//W3C//DTD SVG 1.1//EN"
  "http://www.w3.org/Graphics/SVG/1.1/DTD/svg11.dtd">
<!-- Created with matplotlib (http://matplotlib.org/) -->
<svg height="432pt" version="1.1" viewBox="0 0 576 432" width="576pt" xmlns="http://www.w3.org/2000/svg" xmlns:xlink="http://www.w3.org/1999/xlink">
 <defs>
  <style type="text/css">
*{stroke-linecap:butt;stroke-linejoin:round;}
  </style>
 </defs>
 <g id="figure_1">
  <g id="patch_1">
   <path d="
M0 432
L576 432
L576 0
L0 0
z
" style="fill:#ffffff;"/>
  </g>
  <g id="axes_1">
   <g id="patch_2">
    <path d="
M72 388.8
L518.4 388.8
L518.4 43.2
L72 43.2
z
" style="fill:#ffffff;"/>
   </g>
   <g id="line2d_1">
    <path clip-path="url(#p7ff5b81e1d)" d="
M72 319.415
L72.0893 344.076
L72.1786 355.063
L72.4464 369.173
L72.8035 376.458
L73.1606 380.191
L73.6963 382.952
L75.1248 384.313
L75.2141 384.406
L75.3034 89.6323
L75.3926 91.3627
L76.2854 117.342
L76.8211 135.949
L76.9104 50.6892
L76.9997 51.3859
L77.2675 53.5992
L77.6246 55.9428
L77.8032 57.4615
L78.4282 63.1405
L78.5174 50.2464
L78.6067 50.9517
L79.6781 58.0135
L80.0352 61.4062
L80.1245 46.6252
L80.2138 46.7498
L80.4816 47.4614
L80.6602 47.6413
L80.928 48.9073
L81.6422 52.1356
L81.7315 45.2713
L81.8208 45.3496
L81.9101 45.4349
L82.3565 46.5245
L82.7136 46.9799
L82.9814 47.6259
L83.2493 48.6431
L83.3386 44.2598
L83.4278 44.2804
L83.6064 44.3838
L83.785 44.4578
L84.0528 44.8355
L84.3206 45.2554
L84.5885 45.4518
L84.8563 45.6999
L84.9456 43.5797
L85.0349 43.584
L86.1062 43.9517
L86.4634 44.0986
L86.5526 43.3582
L86.6419 43.3862
L87.8026 43.5589
L88.0704 43.6143
L88.249 43.2717
L89.6774 43.3898
L89.856 43.2635
L94.4986 43.4489
L94.6771 43.4036
L96.1056 43.5389
L96.3734 43.4838
L99.3197 43.8447
L99.4982 43.7799
L100.927 44.0983
L101.105 44.0302
L102.534 44.3819
L102.712 44.2224
L105.659 44.8695
L105.748 44.942
L105.837 44.7264
L105.926 44.7793
L106.641 44.981
L107.087 45.1683
L107.355 45.2674
L107.444 45.0153
L107.533 45.0498
L108.337 45.4263
L108.962 45.6691
L109.051 45.3768
L109.14 45.4634
L110.569 46.0337
L110.658 45.6843
L110.748 45.7122
L111.283 45.8884
L111.73 46.1171
L112.176 46.317
L112.265 45.9327
L112.355 45.9642
L112.89 46.231
L113.069 46.3842
L113.783 46.6632
L113.872 46.1618
L113.962 46.1783
L115.39 46.7259
L115.479 46.2149
L115.569 46.2458
L116.194 46.5078
L116.64 46.7519
L116.997 46.862
L117.086 46.2587
L117.176 46.2804
L117.801 46.4593
L118.247 46.678
L118.604 46.7812
L118.693 46.1762
L118.783 46.2444
L120.211 46.8341
L120.3 46.1457
L120.39 46.2169
L120.658 46.4138
L121.818 46.9113
L121.997 46.3159
L122.443 46.5107
L123.157 46.6506
L123.425 46.7252
L123.515 46.1549
L123.604 46.19
L124.586 46.5512
L124.943 46.784
L125.032 46.8255
L125.122 46.2993
L125.211 46.3151
L125.479 46.4479
L126.372 46.7945
L126.639 46.9058
L126.729 46.3561
L126.818 46.3735
L128.246 46.7588
L128.425 46.3216
L129.05 46.4487
L129.228 46.6087
L129.853 46.8181
L129.943 46.3702
L130.032 46.3942
L130.568 46.5631
L131.282 46.7797
L131.46 46.8666
L131.55 46.4886
L131.639 46.5348
L132.175 46.6714
L132.443 46.8059
L133.068 47.018
L133.157 46.6122
L133.246 46.6694
L134.675 47.0262
L134.764 46.6017
L134.853 46.623
L135.478 46.8841
L136.103 47.0298
L136.282 47.1801
L136.46 46.8316
L136.996 46.9666
L137.532 47.0696
L137.889 47.2413
L137.978 46.8813
L138.067 46.9115
L138.335 47.0149
L138.871 47.1445
L139.496 47.4247
L139.585 47.1001
L139.674 47.1708
L140.121 47.4043
L141.013 47.6707
L141.103 47.7449
L141.192 47.3032
L141.281 47.3864
L141.906 47.6226
L142.71 47.9377
L142.888 47.5822
L144.317 47.9383
L144.495 47.6178
L145.477 47.8349
L145.924 47.9493
L146.013 47.6018
L146.102 47.6368
L147.084 47.8978
L147.531 48.0592
L147.62 47.5957
L147.709 47.6288
L148.424 47.7921
L149.138 47.975
L149.316 47.6361
L150.745 47.9757
L150.834 47.5056
L150.924 47.5489
L151.459 47.7163
L152.173 47.916
L152.352 48.0327
L152.441 47.5745
L152.531 47.6002
L153.959 47.8754
L154.048 47.3947
L154.138 47.4154
L155.12 47.6478
L155.566 47.7854
L155.745 47.4051
L157.173 47.6951
L157.352 47.2564
L158.691 47.5104
L158.78 47.5391
L158.959 47.1508
L159.584 47.2821
L160.387 47.3777
L160.566 47.0251
L161.994 47.2314
L162.173 46.7546
L163.601 46.9026
L163.78 46.6565
L165.208 46.8013
L165.387 46.4604
L166.815 46.604
L166.994 46.2761
L168.422 46.4064
L168.601 46.2014
L170.029 46.3367
L170.208 46.0827
L171.636 46.1783
L171.815 45.8437
L173.244 45.9257
L173.422 45.6618
L174.851 45.7837
L175.029 45.5667
L176.458 45.6967
L176.636 45.4691
L178.065 45.5824
L178.243 45.3682
L179.672 45.4186
L179.85 45.1176
L181.279 45.2177
L181.457 45.0072
L182.886 45.0743
L183.064 44.7607
L186.1 44.8525
L186.278 44.642
L187.707 44.715
L187.975 44.6604
L189.314 44.7627
L189.492 44.5737
L194.135 44.582
L194.314 44.4862
L195.742 44.5267
L195.921 44.4678
L203.777 44.5221
L203.956 44.4034
L206.991 44.4138
L207.259 44.3704
L207.884 44.399
L210.205 44.4453
L210.473 44.3941
L211.812 44.4382
L212.08 44.3948
L213.42 44.4551
L213.687 44.3968
L214.848 44.4634
L216.634 44.4532
L216.812 44.3366
L218.241 44.3884
L218.419 44.2485
L221.455 44.2898
L221.633 44.1403
L223.062 44.1804
L223.24 44.0412
L224.669 44.0706
L224.847 43.8268
L227.883 43.8313
L228.061 43.6654
L234.311 43.6191
L234.579 43.5753
L236.811 43.5631
L242.882 43.4817
L255.203 43.3793
L255.917 43.3706
L271.273 43.2634
L272.166 43.2521
L518.311 43.2
L518.311 43.2" style="fill:none;stroke:#0000ff;stroke-dasharray:6.000000,2.000000;stroke-dashoffset:0.0;"/>
   </g>
   <g id="line2d_2">
    <path clip-path="url(#p7ff5b81e1d)" d="
M72 323.988
L72.0893 344.085
L72.1786 352.367
L72.4464 361.846
L72.7142 363.943
L72.8928 362.914
L72.9821 363.779
L73.1606 363.001
L73.607 357.277
L73.6963 356.729
L74.5891 332.641
L74.9462 320.224
L75.2141 311.989
L75.3034 367.667
L75.3926 366.039
L75.7498 358.762
L76.1962 349.567
L76.8211 335.302
L76.9104 382.558
L76.9997 381.925
L77.2675 380.243
L77.6246 377.916
L77.8925 375.571
L78.1603 372.885
L78.4282 370.695
L78.5174 382.038
L78.6067 381.332
L79.4995 375.958
L80.0352 371.741
L80.1245 385.407
L80.2138 385.282
L80.4816 384.604
L80.6602 384.431
L81.1066 382.602
L81.1958 382.367
L81.553 380.32
L81.6422 380.144
L81.7315 386.731
L81.8208 386.653
L81.9101 386.568
L82.3565 385.478
L82.7136 385.023
L82.9814 384.377
L83.2493 383.46
L83.3386 387.746
L83.4278 387.726
L83.8742 387.531
L84.1421 387.022
L84.2314 387.002
L84.4099 386.824
L84.5885 386.657
L84.8563 386.408
L84.9456 388.434
L85.0349 388.43
L86.1062 388.062
L86.4634 387.916
L86.5526 388.644
L86.6419 388.616
L87.8026 388.455
L88.0704 388.406
L88.249 388.732
L89.6774 388.614
L89.856 388.738
L94.4986 388.554
L94.7664 388.59
L97.2662 388.42
L99.2304 388.225
L99.409 388.251
L100.302 388.108
L101.462 387.933
L102.534 387.66
L102.712 387.81
L107.176 386.834
L107.355 386.767
L107.444 387.013
L107.533 386.979
L108.337 386.602
L108.962 386.386
L109.051 386.677
L109.14 386.595
L110.569 386.045
L110.658 386.384
L110.748 386.356
L111.283 386.18
L111.73 385.954
L112.176 385.767
L112.265 386.133
L112.355 386.103
L112.801 385.92
L113.158 385.775
L113.783 385.534
L113.962 385.998
L115.39 385.459
L115.479 385.95
L115.569 385.919
L116.194 385.668
L116.551 385.446
L116.997 385.321
L117.086 385.896
L117.176 385.874
L117.801 385.703
L118.247 385.484
L118.604 385.381
L118.693 385.968
L118.783 385.9
L120.211 385.334
L120.3 385.991
L120.39 385.92
L120.658 385.723
L121.818 385.226
L121.997 385.811
L122.443 385.619
L123.157 385.48
L123.425 385.406
L123.515 385.966
L123.604 385.931
L124.586 385.57
L124.943 385.337
L125.032 385.295
L125.122 385.805
L125.211 385.79
L125.479 385.657
L126.372 385.315
L126.639 385.21
L126.729 385.749
L126.818 385.732
L128.246 385.348
L128.425 385.773
L129.139 385.593
L129.853 385.355
L129.943 385.787
L130.032 385.763
L130.836 385.576
L131.282 385.421
L131.46 385.334
L131.55 385.694
L131.639 385.648
L132.175 385.511
L132.443 385.377
L133.068 385.165
L133.157 385.56
L133.246 385.502
L134.675 385.152
L134.764 385.563
L134.853 385.542
L135.478 385.28
L136.103 385.135
L136.282 384.985
L136.46 385.326
L137.085 385.189
L137.889 384.92
L137.978 385.27
L138.067 385.24
L138.335 385.136
L138.871 385.007
L139.496 384.726
L139.585 385.045
L139.674 384.974
L140.121 384.741
L140.924 384.496
L141.103 384.402
L141.192 384.83
L141.281 384.748
L141.906 384.513
L142.71 384.198
L142.888 384.54
L144.317 384.185
L144.495 384.5
L145.567 384.268
L145.924 384.171
L146.013 384.512
L146.102 384.477
L147.084 384.216
L147.442 384.109
L147.531 384.082
L147.62 384.536
L147.709 384.502
L148.87 384.298
L149.138 384.187
L149.316 384.51
L150.745 384.17
L150.834 384.626
L150.924 384.598
L151.816 384.393
L152.352 384.158
L152.441 384.596
L152.531 384.57
L153.959 384.294
L154.048 384.761
L154.138 384.741
L154.941 384.542
L155.566 384.403
L155.745 384.768
L157.173 384.477
L157.352 384.897
L158.78 384.642
L158.959 385.01
L159.584 384.886
L160.387 384.79
L160.566 385.13
L161.994 384.938
L162.173 385.394
L163.601 385.257
L163.78 385.491
L165.208 385.346
L165.387 385.674
L166.815 385.56
L166.994 385.869
L168.422 385.753
L168.601 385.947
L170.029 385.843
L170.208 386.093
L171.636 385.997
L171.815 386.312
L173.244 386.232
L173.422 386.484
L174.851 386.367
L175.029 386.57
L176.458 386.459
L176.636 386.671
L178.065 386.564
L178.243 386.764
L179.672 386.718
L179.85 387
L181.279 386.905
L181.457 387.103
L182.886 387.037
L183.064 387.331
L186.1 387.242
L186.278 387.447
L187.707 387.389
L187.975 387.443
L189.314 387.34
L189.492 387.516
L194.135 387.512
L194.314 387.607
L195.742 387.573
L195.921 387.624
L202.17 387.616
L202.527 387.647
L205.384 387.68
L205.652 387.724
L221.455 387.768
L221.633 387.89
L223.062 387.852
L223.24 387.985
L224.669 387.957
L224.847 388.177
L227.883 388.173
L228.061 388.335
L234.311 388.381
L234.579 388.425
L236.811 388.437
L242.882 388.518
L255.203 388.621
L255.917 388.629
L271.273 388.737
L272.166 388.748
L518.311 388.8
L518.311 388.8" style="fill:none;stroke:#008000;stroke-dasharray:1.000000,1.000000;stroke-dashoffset:0.0;"/>
   </g>
   <g id="line2d_3">
    <path clip-path="url(#p7ff5b81e1d)" d="
M72 320.392
L72.0893 301.957
L72.1786 296.852
L72.3571 285.619
L72.4464 285.197
L72.5357 286.002
L72.7142 281.186
L72.8035 281.452
L72.8928 282.093
L73.0714 281.704
L73.2499 282.8
L73.3392 283.376
L73.4285 282.606
L73.5178 282.682
L73.7856 283.365
L73.9642 283.233
L74.0534 283.636
L74.1427 283.512
L75.2141 289.333
L75.3034 378.469
L75.3926 378.435
L75.5712 378.276
L75.7498 378.132
L76.1069 378.02
L76.6426 378.222
L76.7318 378.113
L76.8211 378.242
L76.9997 388.583
L78.4282 388.578
L78.6067 388.789
L517.596 388.8
L518.311 388.8
L518.311 388.8" style="fill:none;stroke:#ff0000;stroke-dasharray:3.000000,6.000000;stroke-dashoffset:0.0;"/>
   </g>
   <g id="line2d_4">
    <path clip-path="url(#p7ff5b81e1d)" d="
M72 320.552
L72.0893 307.458
L72.2678 294.782
L72.3571 293.919
L72.625 286.256
L72.7142 286.077
L72.8035 285.527
L72.8928 286.35
L72.9821 283.212
L73.0714 283.435
L73.1606 284.429
L73.2499 283.931
L73.3392 284.367
L73.607 288.3
L73.6963 287.538
L74.4998 298.122
L75.2141 308.698
L75.3926 381.756
L75.5712 381.834
L75.7498 381.528
L75.839 381.302
L75.9283 381.416
L76.0176 381.32
L76.1069 381.409
L76.6426 380.283
L76.8211 380.133
L76.9997 388.778
L143.692 388.8
L518.311 388.8
L518.311 388.8" style="fill:none;stroke:#00bfbf;stroke-dasharray:5.000000,1.000000,2.000000,1.000000,5.000000,1.000000;stroke-dashoffset:0.0;"/>
   </g>
   <g id="line2d_5">
    <path clip-path="url(#p7ff5b81e1d)" d="
M72 314.054
L72.0893 300.824
L72.1786 295.403
L72.2678 294.418
L72.3571 291.884
L72.4464 292.618
L72.625 291.412
L72.7142 292.054
L72.8035 291.452
L72.8928 289.36
L72.9821 290.898
L73.0714 290.4
L73.1606 288.717
L73.2499 289.264
L73.3392 288.669
L73.4285 289.278
L73.5178 288.679
L73.607 287.295
L75.2141 303.974
L75.3034 380.941
L75.3926 380.807
L75.4819 380.871
L75.6605 379.76
L75.9283 377.181
L76.5533 372.211
L76.8211 368.773
L76.9104 387.792
L76.9997 387.729
L77.1782 387.615
L77.3568 387.198
L78.2496 387.199
L78.4282 387.205
L78.6067 388.528
L78.8746 388.464
L79.1424 388.461
L79.4995 388.144
L79.6781 388.11
L79.8566 387.828
L80.0352 387.664
L80.2138 388.768
L80.6602 388.727
L80.8387 388.533
L81.6422 388.521
L81.8208 388.797
L112.89 388.715
L113.069 388.602
L370.463 388.8
L518.311 388.8
L518.311 388.8" style="fill:none;stroke:#bf00bf;stroke-linecap:square;"/>
   </g>
   <g id="matplotlib.axis_1">
    <g id="xtick_1">
     <g id="line2d_6">
      <defs>
       <path d="
M0 0
L0 -4" id="mc7db9fdffb" style="stroke:#000000;stroke-width:0.5;"/>
      </defs>
      <g>
       <use style="stroke:#000000;stroke-width:0.5;" x="72.0" xlink:href="#mc7db9fdffb" y="388.8"/>
      </g>
     </g>
     <g id="line2d_7">
      <defs>
       <path d="
M0 0
L0 4" id="m5a7d422ac3" style="stroke:#000000;stroke-width:0.5;"/>
      </defs>
      <g>
       <use style="stroke:#000000;stroke-width:0.5;" x="72.0" xlink:href="#m5a7d422ac3" y="43.2"/>
      </g>
     </g>
     <g id="text_1">
      <!-- 0 -->
      <defs>
       <path d="
M56.9844 36.375
Q56.9844 16.7969 50.8594 7.64062
Q44.7344 -1.51562 31.8438 -1.51562
Q18.75 -1.51562 12.7188 7.76562
Q6.6875 17.0469 6.6875 36.2812
Q6.6875 55.6719 12.7812 64.9219
Q18.8906 74.1719 31.8438 74.1719
Q44.9219 74.1719 50.9531 64.7656
Q56.9844 55.375 56.9844 36.375
M44.1406 14.2031
Q45.8438 18.1719 46.4531 23.5156
Q47.0781 28.8594 47.0781 36.375
Q47.0781 43.7969 46.4531 49.2656
Q45.8438 54.7344 44.0938 58.5469
Q42.3906 62.3125 39.4219 64.2031
Q36.4688 66.1094 31.8438 66.1094
Q27.25 66.1094 24.2344 64.2031
Q21.2344 62.3125 19.4844 58.4531
Q17.8281 54.8281 17.2188 49.0156
Q16.6094 43.2188 16.6094 36.2812
Q16.6094 28.6562 17.1406 23.5312
Q17.6719 18.4062 19.4375 14.3594
Q21.0469 10.5469 24 8.54688
Q26.9531 6.54688 31.8438 6.54688
Q36.4219 6.54688 39.4531 8.45312
Q42.4844 10.3594 44.1406 14.2031" id="Verdana-30"/>
      </defs>
      <g transform="translate(68.9821875 401.918125)scale(0.12 -0.12)">
       <use xlink:href="#Verdana-30"/>
      </g>
     </g>
    </g>
    <g id="xtick_2">
     <g id="line2d_8">
      <g>
       <use style="stroke:#000000;stroke-width:0.5;" x="161.28" xlink:href="#mc7db9fdffb" y="388.8"/>
      </g>
     </g>
     <g id="line2d_9">
      <g>
       <use style="stroke:#000000;stroke-width:0.5;" x="161.28" xlink:href="#m5a7d422ac3" y="43.2"/>
      </g>
     </g>
     <g id="text_2">
      <!-- 1000 -->
      <defs>
       <path d="
M52.9375 0
L13.5781 0
L13.5781 7.42188
L28.7188 7.42188
L28.7188 56.1562
L13.5781 56.1562
L13.5781 62.7969
Q16.6562 62.7969 20.1719 63.2969
Q23.6875 63.8125 25.4844 64.7969
Q27.7344 66.0156 29.0312 67.8906
Q30.3281 69.7812 30.5156 72.9531
L38.0938 72.9531
L38.0938 7.42188
L52.9375 7.42188
z
" id="Verdana-31"/>
      </defs>
      <g transform="translate(147.2315625 401.918125)scale(0.12 -0.12)">
       <use xlink:href="#Verdana-31"/>
       <use x="63.57421875" xlink:href="#Verdana-30"/>
       <use x="127.1484375" xlink:href="#Verdana-30"/>
       <use x="190.72265625" xlink:href="#Verdana-30"/>
      </g>
     </g>
    </g>
    <g id="xtick_3">
     <g id="line2d_10">
      <g>
       <use style="stroke:#000000;stroke-width:0.5;" x="250.56" xlink:href="#mc7db9fdffb" y="388.8"/>
      </g>
     </g>
     <g id="line2d_11">
      <g>
       <use style="stroke:#000000;stroke-width:0.5;" x="250.56" xlink:href="#m5a7d422ac3" y="43.2"/>
      </g>
     </g>
     <g id="text_3">
      <!-- 2000 -->
      <defs>
       <path d="
M57.0781 0
L7.85938 0
L7.85938 10.2031
Q12.9844 14.5938 18.1406 18.9844
Q23.2969 23.3906 27.7344 27.7344
Q37.1094 36.8125 40.5781 42.1562
Q44.0469 47.5156 44.0469 53.7188
Q44.0469 59.375 40.3125 62.5625
Q36.5781 65.7656 29.8906 65.7656
Q25.4375 65.7656 20.2656 64.2031
Q15.0938 62.6406 10.1562 59.4219
L9.67188 59.4219
L9.67188 69.6719
Q13.1406 71.3906 18.9219 72.7969
Q24.7031 74.2188 30.125 74.2188
Q41.3125 74.2188 47.6562 68.8125
Q54 63.4219 54 54.2031
Q54 50.0469 52.9531 46.4531
Q51.9062 42.875 49.8594 39.6562
Q47.9531 36.625 45.3906 33.6875
Q42.8281 30.7656 39.1562 27.2031
Q33.9375 22.0781 28.3594 17.2656
Q22.7969 12.4531 17.9688 8.34375
L57.0781 8.34375
z
" id="Verdana-32"/>
      </defs>
      <g transform="translate(236.1684375 401.918125)scale(0.12 -0.12)">
       <use xlink:href="#Verdana-32"/>
       <use x="63.57421875" xlink:href="#Verdana-30"/>
       <use x="127.1484375" xlink:href="#Verdana-30"/>
       <use x="190.72265625" xlink:href="#Verdana-30"/>
      </g>
     </g>
    </g>
    <g id="xtick_4">
     <g id="line2d_12">
      <g>
       <use style="stroke:#000000;stroke-width:0.5;" x="339.84" xlink:href="#mc7db9fdffb" y="388.8"/>
      </g>
     </g>
     <g id="line2d_13">
      <g>
       <use style="stroke:#000000;stroke-width:0.5;" x="339.84" xlink:href="#m5a7d422ac3" y="43.2"/>
      </g>
     </g>
     <g id="text_4">
      <!-- 3000 -->
      <defs>
       <path d="
M50.6875 35.0156
Q53.0312 32.9062 54.5469 29.7344
Q56.0625 26.5625 56.0625 21.5312
Q56.0625 16.5469 54.25 12.3906
Q52.4375 8.25 49.1719 5.17188
Q45.5156 1.76562 40.5469 0.125
Q35.5938 -1.51562 29.6875 -1.51562
Q23.6406 -1.51562 17.7812 -0.0625
Q11.9219 1.375 8.15625 3.07812
L8.15625 13.2812
L8.89062 13.2812
Q13.0312 10.5469 18.6406 8.73438
Q24.2656 6.9375 29.5 6.9375
Q32.5625 6.9375 36.0312 7.95312
Q39.5 8.98438 41.6562 10.9844
Q43.8906 13.1406 44.9844 15.7188
Q46.0938 18.3125 46.0938 22.2656
Q46.0938 26.1719 44.8438 28.7344
Q43.6094 31.2969 41.4062 32.7656
Q39.2031 34.2812 36.0781 34.8438
Q32.9531 35.4062 29.3438 35.4062
L24.9531 35.4062
L24.9531 43.5
L28.375 43.5
Q35.7969 43.5 40.2031 46.5938
Q44.625 49.7031 44.625 55.6719
Q44.625 58.2969 43.5 60.2656
Q42.3906 62.25 40.375 63.5312
Q38.2812 64.7969 35.8906 65.2812
Q33.5 65.7656 30.4688 65.7656
Q25.8281 65.7656 20.5938 64.1094
Q15.375 62.4531 10.75 59.4219
L10.25 59.4219
L10.25 69.625
Q13.7188 71.3438 19.5 72.7812
Q25.2969 74.2188 30.7188 74.2188
Q36.0312 74.2188 40.0781 73.2344
Q44.1406 72.2656 47.4062 70.125
Q50.9219 67.7812 52.7344 64.4531
Q54.5469 61.1406 54.5469 56.6875
Q54.5469 50.6406 50.2656 46.125
Q46 41.6094 40.1875 40.4375
L40.1875 39.75
Q42.5312 39.3594 45.5469 38.1094
Q48.5781 36.8594 50.6875 35.0156" id="Verdana-33"/>
      </defs>
      <g transform="translate(325.46625 401.918125)scale(0.12 -0.12)">
       <use xlink:href="#Verdana-33"/>
       <use x="63.57421875" xlink:href="#Verdana-30"/>
       <use x="127.1484375" xlink:href="#Verdana-30"/>
       <use x="190.72265625" xlink:href="#Verdana-30"/>
      </g>
     </g>
    </g>
    <g id="xtick_5">
     <g id="line2d_14">
      <g>
       <use style="stroke:#000000;stroke-width:0.5;" x="429.12" xlink:href="#mc7db9fdffb" y="388.8"/>
      </g>
     </g>
     <g id="line2d_15">
      <g>
       <use style="stroke:#000000;stroke-width:0.5;" x="429.12" xlink:href="#m5a7d422ac3" y="43.2"/>
      </g>
     </g>
     <g id="text_5">
      <!-- 4000 -->
      <defs>
       <path d="
M58.7344 20.4531
L47.9531 20.4531
L47.9531 0
L38.5781 0
L38.5781 20.4531
L3.76562 20.4531
L3.76562 31.6875
L38.9688 72.7031
L47.9531 72.7031
L47.9531 28.2656
L58.7344 28.2656
z

M38.5781 28.2656
L38.5781 61.0781
L10.4062 28.2656
z
" id="Verdana-34"/>
      </defs>
      <g transform="translate(414.4828125 401.918125)scale(0.12 -0.12)">
       <use xlink:href="#Verdana-34"/>
       <use x="63.57421875" xlink:href="#Verdana-30"/>
       <use x="127.1484375" xlink:href="#Verdana-30"/>
       <use x="190.72265625" xlink:href="#Verdana-30"/>
      </g>
     </g>
    </g>
    <g id="xtick_6">
     <g id="line2d_16">
      <g>
       <use style="stroke:#000000;stroke-width:0.5;" x="518.4" xlink:href="#mc7db9fdffb" y="388.8"/>
      </g>
     </g>
     <g id="line2d_17">
      <g>
       <use style="stroke:#000000;stroke-width:0.5;" x="518.4" xlink:href="#m5a7d422ac3" y="43.2"/>
      </g>
     </g>
     <g id="text_6">
      <!-- 5000 -->
      <defs>
       <path d="
M56.5 23.0938
Q56.5 18.0156 54.6406 13.375
Q52.7812 8.73438 49.5625 5.5625
Q46.0469 2.15625 41.1875 0.3125
Q36.3281 -1.51562 29.9375 -1.51562
Q23.9688 -1.51562 18.4531 -0.265625
Q12.9375 0.984375 9.125 2.73438
L9.125 13.0312
L9.8125 13.0312
Q13.8125 10.5 19.1875 8.71875
Q24.5625 6.9375 29.7344 6.9375
Q33.2031 6.9375 36.4531 7.90625
Q39.7031 8.89062 42.2344 11.3281
Q44.3906 13.4219 45.4844 16.3438
Q46.5781 19.2812 46.5781 23.1406
Q46.5781 26.9062 45.2812 29.4844
Q44 32.0781 41.7031 33.6406
Q39.1562 35.5 35.5156 36.25
Q31.8906 37.0156 27.3906 37.0156
Q23.0938 37.0156 19.1094 36.4219
Q15.1406 35.8438 12.25 35.25
L12.25 72.7031
L56 72.7031
L56 64.1562
L21.6875 64.1562
L21.6875 44.8281
Q23.7812 45.0156 25.9688 45.1094
Q28.1719 45.2188 29.7812 45.2188
Q35.6875 45.2188 40.125 44.2188
Q44.5781 43.2188 48.2969 40.6719
Q52.2031 37.9844 54.3438 33.7344
Q56.5 29.5 56.5 23.0938" id="Verdana-35"/>
      </defs>
      <g transform="translate(504.084375 401.918125)scale(0.12 -0.12)">
       <use xlink:href="#Verdana-35"/>
       <use x="63.57421875" xlink:href="#Verdana-30"/>
       <use x="127.1484375" xlink:href="#Verdana-30"/>
       <use x="190.72265625" xlink:href="#Verdana-30"/>
      </g>
     </g>
    </g>
    <g id="text_7">
     <!-- Objective function exectuions -->
     <defs>
      <path d="
M63.9688 64.3594
Q68.4062 59.4688 70.7656 52.3906
Q73.1406 45.3125 73.1406 36.3281
Q73.1406 27.3438 70.7188 20.2344
Q68.3125 13.1406 63.9688 8.40625
Q59.4688 3.46875 53.3438 0.96875
Q47.2188 -1.51562 39.3594 -1.51562
Q31.6875 -1.51562 25.4062 1.01562
Q19.1406 3.5625 14.75 8.40625
Q10.3594 13.2344 7.98438 20.2656
Q5.60938 27.2969 5.60938 36.3281
Q5.60938 45.2188 7.95312 52.2656
Q10.2969 59.3281 14.7969 64.3594
Q19.0938 69.1406 25.4688 71.6719
Q31.8438 74.2188 39.3594 74.2188
Q47.1719 74.2188 53.3906 71.6562
Q59.625 69.0938 63.9688 64.3594
M63.0938 36.3281
Q63.0938 50.4844 56.7344 58.1719
Q50.3906 65.875 39.4062 65.875
Q28.3281 65.875 22 58.1719
Q15.6719 50.4844 15.6719 36.3281
Q15.6719 22.0156 22.1094 14.4219
Q28.5625 6.84375 39.4062 6.84375
Q50.25 6.84375 56.6719 14.4219
Q63.0938 22.0156 63.0938 36.3281" id="Verdana-4f"/>
      <path d="
M38.375 67.0938
L37.8906 67.0938
Q36.375 67.5312 33.9375 67.9844
Q31.5 68.4531 29.6406 68.4531
Q23.7344 68.4531 21.0625 65.8438
Q18.4062 63.2344 18.4062 56.3906
L18.4062 54.5469
L34.9688 54.5469
L34.9688 46.8281
L18.7031 46.8281
L18.7031 0
L9.51562 0
L9.51562 46.8281
L3.32812 46.8281
L3.32812 54.5469
L9.51562 54.5469
L9.51562 56.3438
Q9.51562 66.0625 14.3438 71.2656
Q19.1875 76.4688 28.3281 76.4688
Q31.3906 76.4688 33.8594 76.1719
Q36.3281 75.875 38.375 75.4844
z
" id="Verdana-66"/>
      <path d="
M57.0312 27.6875
Q57.0312 20.8438 55.0938 15.375
Q53.1719 9.90625 49.9062 6.20312
Q46.4375 2.34375 42.2812 0.40625
Q38.1406 -1.51562 33.1562 -1.51562
Q28.5156 -1.51562 25.0469 -0.40625
Q21.5781 0.6875 18.2188 2.54688
L17.625 0
L9.03125 0
L9.03125 75.9844
L18.2188 75.9844
L18.2188 48.8281
Q22.0781 52 26.4219 54.0312
Q30.7656 56.0625 36.1875 56.0625
Q45.8438 56.0625 51.4375 48.6406
Q57.0312 41.2188 57.0312 27.6875
M47.5625 27.4375
Q47.5625 37.2031 44.3281 42.25
Q41.1094 47.3125 33.9375 47.3125
Q29.9375 47.3125 25.8281 45.5781
Q21.7344 43.8438 18.2188 41.1094
L18.2188 9.85938
Q22.125 8.10938 24.9219 7.42188
Q27.7344 6.73438 31.2969 6.73438
Q38.9219 6.73438 43.2344 11.7344
Q47.5625 16.75 47.5625 27.4375" id="Verdana-62"/>
      <path id="Verdana-20"/>
      <path d="
M18.8906 63.6719
L8.54688 63.6719
L8.54688 73.1875
L18.8906 73.1875
z

M18.3125 0
L9.125 0
L9.125 54.5469
L18.3125 54.5469
z
" id="Verdana-69"/>
      <path d="
M26.0312 63.6719
L15.6719 63.6719
L15.6719 73.1875
L26.0312 73.1875
z

M25.4375 -1.3125
Q25.4375 -10.8906 20.5469 -15.7656
Q15.6719 -20.6562 7.46875 -20.6562
Q5.51562 -20.6562 2.3125 -20.2656
Q-0.875 -19.875 -3.03125 -19.2812
L-3.03125 -10.5469
L-2.54688 -10.5469
Q-1.17188 -11.0781 1.14062 -11.7656
Q3.46875 -12.4531 5.67188 -12.4531
Q9.1875 -12.4531 11.3281 -11.4688
Q13.4844 -10.5 14.5469 -8.54688
Q15.625 -6.59375 15.9375 -3.82812
Q16.2656 -1.07812 16.2656 2.875
L16.2656 46.8281
L4.89062 46.8281
L4.89062 54.5469
L25.4375 54.5469
z
" id="Verdana-6a"/>
      <path d="
M48 15.7188
Q48 8.25 41.8125 3.46875
Q35.6406 -1.3125 24.9531 -1.3125
Q18.8906 -1.3125 13.8438 0.125
Q8.79688 1.5625 5.375 3.26562
L5.375 13.5781
L5.85938 13.5781
Q10.2031 10.2969 15.5156 8.375
Q20.8438 6.45312 25.7344 6.45312
Q31.7812 6.45312 35.2031 8.40625
Q38.625 10.3594 38.625 14.5469
Q38.625 17.7812 36.7656 19.4375
Q34.9062 21.0938 29.6406 22.2656
Q27.6875 22.7031 24.5312 23.2812
Q21.3906 23.875 18.7969 24.5625
Q11.625 26.4688 8.60938 30.1562
Q5.60938 33.8438 5.60938 39.2031
Q5.60938 42.5781 7 45.5469
Q8.40625 48.5312 11.2344 50.875
Q13.9688 53.1719 18.1875 54.5156
Q22.4062 55.8594 27.6406 55.8594
Q32.5156 55.8594 37.5156 54.6562
Q42.5312 53.4688 45.8438 51.7656
L45.8438 41.9375
L45.3594 41.9375
Q41.8438 44.5312 36.8125 46.3125
Q31.7812 48.0938 26.9531 48.0938
Q21.9219 48.0938 18.4531 46.1562
Q14.9844 44.2344 14.9844 40.4375
Q14.9844 37.0625 17.0938 35.3594
Q19.1406 33.6406 23.7344 32.5625
Q26.2656 31.9844 29.4062 31.3906
Q32.5625 30.8125 34.6719 30.3281
Q41.0625 28.8594 44.5312 25.2969
Q48 21.6875 48 15.7188" id="Verdana-73"/>
      <path d="
M55.5156 27.25
Q55.5156 13.9219 48.6719 6.20312
Q41.8438 -1.51562 30.375 -1.51562
Q18.7969 -1.51562 11.9844 6.20312
Q5.17188 13.9219 5.17188 27.25
Q5.17188 40.5781 11.9844 48.3125
Q18.7969 56.0625 30.375 56.0625
Q41.8438 56.0625 48.6719 48.3125
Q55.5156 40.5781 55.5156 27.25
M46.0469 27.25
Q46.0469 37.8438 41.8906 42.9844
Q37.75 48.1406 30.375 48.1406
Q22.9062 48.1406 18.7812 42.9844
Q14.6562 37.8438 14.6562 27.25
Q14.6562 17 18.7969 11.6875
Q22.9531 6.39062 30.375 6.39062
Q37.7031 6.39062 41.875 11.6406
Q46.0469 16.8906 46.0469 27.25" id="Verdana-6f"/>
      <path d="
M54.6875 26.3125
L14.5 26.3125
Q14.5 21.2969 16.0156 17.5469
Q17.5312 13.8125 20.1719 11.4219
Q22.7031 9.07812 26.1875 7.90625
Q29.6875 6.73438 33.8906 6.73438
Q39.4531 6.73438 45.0938 8.95312
Q50.7344 11.1875 53.125 13.3281
L53.6094 13.3281
L53.6094 3.32812
Q48.9688 1.375 44.1406 0.046875
Q39.3125 -1.26562 33.9844 -1.26562
Q20.4062 -1.26562 12.7812 6.07812
Q5.17188 13.4219 5.17188 26.9531
Q5.17188 40.3281 12.4688 48.1875
Q19.7812 56.0625 31.6875 56.0625
Q42.7188 56.0625 48.7031 49.6094
Q54.6875 43.1719 54.6875 31.2969
z

M45.75 33.3438
Q45.7031 40.5781 42.1094 44.5312
Q38.5312 48.4844 31.2031 48.4844
Q23.8281 48.4844 19.4531 44.1406
Q15.0938 39.7969 14.5 33.3438
z
" id="Verdana-65"/>
      <path d="
M54.25 0
L45.0625 0
L45.0625 6.0625
Q40.4375 2.39062 36.1875 0.4375
Q31.9375 -1.51562 26.8125 -1.51562
Q18.2188 -1.51562 13.4219 3.73438
Q8.64062 8.98438 8.64062 19.1406
L8.64062 54.5469
L17.8281 54.5469
L17.8281 23.4844
Q17.8281 19.3438 18.2188 16.375
Q18.6094 13.4219 19.875 11.3281
Q21.1875 9.1875 23.2812 8.20312
Q25.3906 7.23438 29.3906 7.23438
Q32.9531 7.23438 37.1719 9.07812
Q41.4062 10.9375 45.0625 13.8125
L45.0625 54.5469
L54.25 54.5469
z
" id="Verdana-75"/>
      <path d="
M49.3594 3.42188
Q44.7812 1.21875 40.6562 0
Q36.5312 -1.21875 31.8906 -1.21875
Q25.9844 -1.21875 21.0469 0.515625
Q16.1094 2.25 12.5938 5.76562
Q9.03125 9.28125 7.07812 14.6406
Q5.125 20.0156 5.125 27.2031
Q5.125 40.5781 12.4688 48.1875
Q19.8281 55.8125 31.8906 55.8125
Q36.5781 55.8125 41.0938 54.4844
Q45.6094 53.1719 49.3594 51.2656
L49.3594 41.0625
L48.875 41.0625
Q44.6719 44.3438 40.2031 46.0938
Q35.75 47.8594 31.5 47.8594
Q23.6875 47.8594 19.1719 42.6094
Q14.6562 37.3594 14.6562 27.2031
Q14.6562 17.3281 19.0625 12.0312
Q23.4844 6.73438 31.5 6.73438
Q34.2812 6.73438 37.1562 7.46875
Q40.0469 8.20312 42.3281 9.375
Q44.3438 10.4062 46.0938 11.5469
Q47.8594 12.7031 48.875 13.5312
L49.3594 13.5312
z
" id="Verdana-63"/>
      <path d="
M54.6406 0
L45.4531 0
L45.4531 31.0625
Q45.4531 34.8125 45.0156 38.1094
Q44.5781 41.4062 43.4062 43.2656
Q42.1875 45.3125 39.8906 46.3125
Q37.5938 47.3125 33.9375 47.3125
Q30.1719 47.3125 26.0625 45.4531
Q21.9688 43.6094 18.2188 40.7188
L18.2188 0
L9.03125 0
L9.03125 54.5469
L18.2188 54.5469
L18.2188 48.4844
Q22.5156 52.0469 27.0938 54.0469
Q31.6875 56.0625 36.5312 56.0625
Q45.3594 56.0625 50 50.7344
Q54.6406 45.4062 54.6406 35.4062
z
" id="Verdana-6e"/>
      <path d="
M37.3594 0.484375
Q34.7656 -0.203125 31.7031 -0.640625
Q28.6562 -1.07812 26.2656 -1.07812
Q17.9219 -1.07812 13.5781 3.40625
Q9.23438 7.90625 9.23438 17.8281
L9.23438 46.8281
L3.03125 46.8281
L3.03125 54.5469
L9.23438 54.5469
L9.23438 70.2188
L18.4062 70.2188
L18.4062 54.5469
L37.3594 54.5469
L37.3594 46.8281
L18.4062 46.8281
L18.4062 21.9688
Q18.4062 17.6719 18.5938 15.25
Q18.7969 12.8438 19.9688 10.75
Q21.0469 8.79688 22.9219 7.89062
Q24.8125 6.98438 28.6562 6.98438
Q30.9062 6.98438 33.3438 7.64062
Q35.7969 8.29688 36.8594 8.73438
L37.3594 8.73438
z
" id="Verdana-74"/>
      <path d="
M56.2031 54.5469
L34.125 0
L24.9062 0
L2.98438 54.5469
L12.9375 54.5469
L29.8281 11.1406
L46.5781 54.5469
z
" id="Verdana-76"/>
      <path d="
M56.25 0
L44.6719 0
L29.2031 20.9531
L13.625 0
L2.9375 0
L24.2188 27.2031
L3.125 54.5469
L14.7031 54.5469
L30.0781 33.9375
L45.5156 54.5469
L56.25 54.5469
L34.8125 27.6875
z
" id="Verdana-78"/>
     </defs>
     <g transform="translate(206.5078125 418.509375)scale(0.12 -0.12)">
      <use xlink:href="#Verdana-4f"/>
      <use x="78.7109375" xlink:href="#Verdana-62"/>
      <use x="141.015625" xlink:href="#Verdana-6a"/>
      <use x="175.439453125" xlink:href="#Verdana-65"/>
      <use x="235.009765625" xlink:href="#Verdana-63"/>
      <use x="287.109375" xlink:href="#Verdana-74"/>
      <use x="326.513671875" xlink:href="#Verdana-69"/>
      <use x="353.955078125" xlink:href="#Verdana-76"/>
      <use x="412.259765625" xlink:href="#Verdana-65"/>
      <use x="471.830078125" xlink:href="#Verdana-20"/>
      <use x="506.986328125" xlink:href="#Verdana-66"/>
      <use x="542.142578125" xlink:href="#Verdana-75"/>
      <use x="605.423828125" xlink:href="#Verdana-6e"/>
      <use x="668.705078125" xlink:href="#Verdana-63"/>
      <use x="720.8046875" xlink:href="#Verdana-74"/>
      <use x="760.208984375" xlink:href="#Verdana-69"/>
      <use x="787.650390625" xlink:href="#Verdana-6f"/>
      <use x="848.34375" xlink:href="#Verdana-6e"/>
      <use x="911.625" xlink:href="#Verdana-20"/>
      <use x="946.78125" xlink:href="#Verdana-65"/>
      <use x="1006.3515625" xlink:href="#Verdana-78"/>
      <use x="1064.40625" xlink:href="#Verdana-65"/>
      <use x="1123.9765625" xlink:href="#Verdana-63"/>
      <use x="1176.076171875" xlink:href="#Verdana-74"/>
      <use x="1215.48046875" xlink:href="#Verdana-75"/>
      <use x="1278.76171875" xlink:href="#Verdana-69"/>
      <use x="1306.203125" xlink:href="#Verdana-6f"/>
      <use x="1366.896484375" xlink:href="#Verdana-6e"/>
      <use x="1430.177734375" xlink:href="#Verdana-73"/>
     </g>
    </g>
   </g>
   <g id="matplotlib.axis_2">
    <g id="ytick_1">
     <g id="line2d_18">
      <defs>
       <path d="
M0 0
L4 0" id="md7965d1ba0" style="stroke:#000000;stroke-width:0.5;"/>
      </defs>
      <g>
       <use style="stroke:#000000;stroke-width:0.5;" x="72.0" xlink:href="#md7965d1ba0" y="388.8"/>
      </g>
     </g>
     <g id="line2d_19">
      <defs>
       <path d="
M0 0
L-4 0" id="md9a1c1a7cd" style="stroke:#000000;stroke-width:0.5;"/>
      </defs>
      <g>
       <use style="stroke:#000000;stroke-width:0.5;" x="518.4" xlink:href="#md9a1c1a7cd" y="388.8"/>
      </g>
     </g>
     <g id="text_8">
      <!-- 0.0 -->
      <defs>
       <path d="
M24.0312 0
L12.3594 0
L12.3594 13.9219
L24.0312 13.9219
z
" id="Verdana-2e"/>
      </defs>
      <g transform="translate(49.97 392.1515625)scale(0.12 -0.12)">
       <use xlink:href="#Verdana-30"/>
       <use x="63.57421875" xlink:href="#Verdana-2e"/>
       <use x="99.951171875" xlink:href="#Verdana-30"/>
      </g>
     </g>
    </g>
    <g id="ytick_2">
     <g id="line2d_20">
      <g>
       <use style="stroke:#000000;stroke-width:0.5;" x="72.0" xlink:href="#md7965d1ba0" y="319.68"/>
      </g>
     </g>
     <g id="line2d_21">
      <g>
       <use style="stroke:#000000;stroke-width:0.5;" x="518.4" xlink:href="#md9a1c1a7cd" y="319.68"/>
      </g>
     </g>
     <g id="text_9">
      <!-- 0.2 -->
      <g transform="translate(49.95875 323.0315625)scale(0.12 -0.12)">
       <use xlink:href="#Verdana-30"/>
       <use x="63.57421875" xlink:href="#Verdana-2e"/>
       <use x="99.951171875" xlink:href="#Verdana-32"/>
      </g>
     </g>
    </g>
    <g id="ytick_3">
     <g id="line2d_22">
      <g>
       <use style="stroke:#000000;stroke-width:0.5;" x="72.0" xlink:href="#md7965d1ba0" y="250.56"/>
      </g>
     </g>
     <g id="line2d_23">
      <g>
       <use style="stroke:#000000;stroke-width:0.5;" x="518.4" xlink:href="#md9a1c1a7cd" y="250.56"/>
      </g>
     </g>
     <g id="text_10">
      <!-- 0.4 -->
      <g transform="translate(49.76 253.9115625)scale(0.12 -0.12)">
       <use xlink:href="#Verdana-30"/>
       <use x="63.57421875" xlink:href="#Verdana-2e"/>
       <use x="99.951171875" xlink:href="#Verdana-34"/>
      </g>
     </g>
    </g>
    <g id="ytick_4">
     <g id="line2d_24">
      <g>
       <use style="stroke:#000000;stroke-width:0.5;" x="72.0" xlink:href="#md7965d1ba0" y="181.44"/>
      </g>
     </g>
     <g id="line2d_25">
      <g>
       <use style="stroke:#000000;stroke-width:0.5;" x="518.4" xlink:href="#md9a1c1a7cd" y="181.44"/>
      </g>
     </g>
     <g id="text_11">
      <!-- 0.6 -->
      <defs>
       <path d="
M58.1562 23.5781
Q58.1562 12.5 50.8594 5.48438
Q43.5625 -1.51562 32.9531 -1.51562
Q27.5938 -1.51562 23.1875 0.140625
Q18.7969 1.8125 15.4375 5.07812
Q11.2344 9.125 8.95312 15.8125
Q6.6875 22.5156 6.6875 31.9375
Q6.6875 41.6094 8.76562 49.0781
Q10.8438 56.5469 15.375 62.3594
Q19.6719 67.875 26.4531 70.9688
Q33.25 74.0781 42.2812 74.0781
Q45.1719 74.0781 47.125 73.8281
Q49.0781 73.5781 51.0781 72.9531
L51.0781 63.625
L50.5938 63.625
Q49.2188 64.3594 46.4531 65.0156
Q43.7031 65.6719 40.8281 65.6719
Q30.3281 65.6719 24.0781 59.1094
Q17.8281 52.5469 16.7969 41.3594
Q20.9062 43.8438 24.875 45.1406
Q28.8594 46.4375 34.0781 46.4375
Q38.7188 46.4375 42.25 45.5781
Q45.7969 44.7344 49.5156 42.1406
Q53.8125 39.1562 55.9844 34.6094
Q58.1562 30.0781 58.1562 23.5781
M48.25 23.1875
Q48.25 27.7344 46.9062 30.7031
Q45.5625 33.6875 42.4844 35.8906
Q40.2344 37.4531 37.5 37.9375
Q34.7656 38.4219 31.7812 38.4219
Q27.6406 38.4219 24.0781 37.4375
Q20.5156 36.4688 16.75 34.4219
Q16.6562 33.3438 16.5938 32.3438
Q16.5469 31.3438 16.5469 29.8281
Q16.5469 22.125 18.1406 17.6562
Q19.7344 13.1875 22.5156 10.5938
Q24.75 8.45312 27.3594 7.45312
Q29.9844 6.45312 33.0625 6.45312
Q40.1406 6.45312 44.1875 10.7656
Q48.25 15.0938 48.25 23.1875" id="Verdana-36"/>
      </defs>
      <g transform="translate(49.829375 184.7915625)scale(0.12 -0.12)">
       <use xlink:href="#Verdana-30"/>
       <use x="63.57421875" xlink:href="#Verdana-2e"/>
       <use x="99.951171875" xlink:href="#Verdana-36"/>
      </g>
     </g>
    </g>
    <g id="ytick_5">
     <g id="line2d_26">
      <g>
       <use style="stroke:#000000;stroke-width:0.5;" x="72.0" xlink:href="#md7965d1ba0" y="112.32"/>
      </g>
     </g>
     <g id="line2d_27">
      <g>
       <use style="stroke:#000000;stroke-width:0.5;" x="518.4" xlink:href="#md9a1c1a7cd" y="112.32"/>
      </g>
     </g>
     <g id="text_12">
      <!-- 0.8 -->
      <defs>
       <path d="
M57.625 20.2656
Q57.625 10.8438 50.2656 4.59375
Q42.9219 -1.65625 31.7812 -1.65625
Q19.9688 -1.65625 12.9531 4.4375
Q5.95312 10.5469 5.95312 20.0625
Q5.95312 26.125 9.46875 31.0312
Q12.9844 35.9375 19.3906 38.8125
L19.3906 39.1094
Q13.5312 42.2344 10.7188 45.9375
Q7.90625 49.6562 7.90625 55.2188
Q7.90625 63.4219 14.6406 68.8906
Q21.3906 74.3594 31.7812 74.3594
Q42.6719 74.3594 49.1719 69.1406
Q55.6719 63.9219 55.6719 55.8594
Q55.6719 50.9219 52.5938 46.1562
Q49.5156 41.4062 43.5625 38.7188
L43.5625 38.4219
Q50.3906 35.5 54 31.2031
Q57.625 26.9062 57.625 20.2656
M46.0469 55.7656
Q46.0469 60.9844 42.0156 64.0781
Q37.9844 67.1875 31.7344 67.1875
Q25.5938 67.1875 21.6562 64.25
Q17.7188 61.3281 17.7188 56.3438
Q17.7188 52.8281 19.7031 50.2656
Q21.6875 47.7031 25.6875 45.7031
Q27.4844 44.8281 30.875 43.4062
Q34.2812 42 37.5 41.0625
Q42.3281 44.2812 44.1875 47.75
Q46.0469 51.2188 46.0469 55.7656
M47.5625 19.3438
Q47.5625 23.8281 45.5781 26.5312
Q43.6094 29.25 37.8438 31.9844
Q35.5469 33.0625 32.8125 33.9844
Q30.0781 34.9062 25.5312 36.5781
Q21.1406 34.1875 18.4844 30.0781
Q15.8281 25.9844 15.8281 20.7969
Q15.8281 14.2031 20.3594 9.90625
Q24.9062 5.60938 31.8906 5.60938
Q39.0156 5.60938 43.2812 9.26562
Q47.5625 12.9375 47.5625 19.3438" id="Verdana-38"/>
      </defs>
      <g transform="translate(49.893125 115.6715625)scale(0.12 -0.12)">
       <use xlink:href="#Verdana-30"/>
       <use x="63.57421875" xlink:href="#Verdana-2e"/>
       <use x="99.951171875" xlink:href="#Verdana-38"/>
      </g>
     </g>
    </g>
    <g id="ytick_6">
     <g id="line2d_28">
      <g>
       <use style="stroke:#000000;stroke-width:0.5;" x="72.0" xlink:href="#md7965d1ba0" y="43.2"/>
      </g>
     </g>
     <g id="line2d_29">
      <g>
       <use style="stroke:#000000;stroke-width:0.5;" x="518.4" xlink:href="#md9a1c1a7cd" y="43.2"/>
      </g>
     </g>
     <g id="text_13">
      <!-- 1.0 -->
      <g transform="translate(50.796875 46.5515625)scale(0.12 -0.12)">
       <use xlink:href="#Verdana-31"/>
       <use x="63.57421875" xlink:href="#Verdana-2e"/>
       <use x="99.951171875" xlink:href="#Verdana-30"/>
      </g>
     </g>
    </g>
    <g id="text_14">
     <!-- Rank 0 Probability -->
     <defs>
      <path d="
M56.2031 54.5469
L24.3594 -20.125
L14.5469 -20.125
L24.7031 2.64062
L2.98438 54.5469
L12.9375 54.5469
L29.6875 14.1094
L46.5781 54.5469
z
" id="Verdana-79"/>
      <path d="
M69.9219 0
L57.375 0
L33.0625 28.9062
L19.4375 28.9062
L19.4375 0
L9.76562 0
L9.76562 72.7031
L30.125 72.7031
Q36.7188 72.7031 41.1094 71.8438
Q45.5156 71 49.0312 68.7969
Q52.9844 66.3125 55.2031 62.5156
Q57.4219 58.7344 57.4219 52.9375
Q57.4219 45.0625 53.4688 39.7656
Q49.5156 34.4688 42.5781 31.7812
z

M47.3125 52.25
Q47.3125 55.375 46.2188 57.7812
Q45.125 60.2031 42.5781 61.8594
Q40.4844 63.2812 37.5938 63.8438
Q34.7188 64.4062 30.8125 64.4062
L19.4375 64.4062
L19.4375 36.9688
L29.2031 36.9688
Q33.7969 36.9688 37.2031 37.7656
Q40.625 38.5781 43.0156 40.7656
Q45.2188 42.8281 46.2656 45.4844
Q47.3125 48.1406 47.3125 52.25" id="Verdana-52"/>
      <path d="
M51.4219 0
L42.2812 0
L42.2812 5.8125
Q41.0625 4.98438 38.9844 3.48438
Q36.9219 2 34.9688 1.125
Q32.6719 0 29.6875 -0.75
Q26.7031 -1.51562 22.7031 -1.51562
Q15.3281 -1.51562 10.2031 3.35938
Q5.07812 8.25 5.07812 15.8281
Q5.07812 22.0156 7.73438 25.8438
Q10.4062 29.6875 15.3281 31.8906
Q20.3125 34.0781 27.2969 34.8594
Q34.2812 35.6406 42.2812 36.0312
L42.2812 37.4531
Q42.2812 40.5781 41.1875 42.625
Q40.0938 44.6719 38.0312 45.8438
Q36.0781 46.9688 33.3438 47.3594
Q30.6094 47.75 27.6406 47.75
Q24.0312 47.75 19.5781 46.7969
Q15.1406 45.8438 10.4062 44.0469
L9.90625 44.0469
L9.90625 53.375
Q12.5938 54.1094 17.6719 54.9844
Q22.75 55.8594 27.6875 55.8594
Q33.4531 55.8594 37.7188 54.9062
Q42 53.9531 45.125 51.6562
Q48.1875 49.4219 49.7969 45.8438
Q51.4219 42.2812 51.4219 37.0156
z

M42.2812 13.4219
L42.2812 28.6094
Q38.0938 28.375 32.3906 27.875
Q26.7031 27.3906 23.3906 26.4688
Q19.4375 25.3438 16.9844 22.9688
Q14.5469 20.6094 14.5469 16.4531
Q14.5469 11.7656 17.375 9.39062
Q20.2188 7.03125 26.0312 7.03125
Q30.8594 7.03125 34.8594 8.90625
Q38.875 10.7969 42.2812 13.4219" id="Verdana-61"/>
      <path d="
M57.3281 50.7344
Q57.3281 45.9062 55.6406 41.7656
Q53.9531 37.6406 50.9219 34.625
Q47.1719 30.8594 42.0469 28.9688
Q36.9219 27.0938 29.1094 27.0938
L19.4375 27.0938
L19.4375 0
L9.76562 0
L9.76562 72.7031
L29.5 72.7031
Q36.0312 72.7031 40.5781 71.6094
Q45.125 70.5156 48.6406 68.1719
Q52.7812 65.375 55.0469 61.2188
Q57.3281 57.0781 57.3281 50.7344
M47.2656 50.4844
Q47.2656 54.25 45.9375 57.0312
Q44.625 59.8125 41.9375 61.5781
Q39.5938 63.0938 36.5938 63.75
Q33.5938 64.4062 29 64.4062
L19.4375 64.4062
L19.4375 35.3594
L27.5938 35.3594
Q33.4531 35.3594 37.1094 36.4062
Q40.7656 37.4531 43.0625 39.75
Q45.3594 42.0938 46.3125 44.6719
Q47.2656 47.2656 47.2656 50.4844" id="Verdana-50"/>
      <path d="
M18.3125 0
L9.125 0
L9.125 75.9844
L18.3125 75.9844
z
" id="Verdana-6c"/>
      <path d="
M58.5469 0
L46.4375 0
L24.5625 23.875
L18.6094 18.2188
L18.6094 0
L9.42188 0
L9.42188 75.9844
L18.6094 75.9844
L18.6094 27.25
L45.125 54.5469
L56.6875 54.5469
L31.3438 29.3438
z
" id="Verdana-6b"/>
      <path d="
M43.0625 44.5312
L42.5781 44.5312
Q40.5312 45.0156 38.5938 45.2344
Q36.6719 45.4531 34.0312 45.4531
Q29.7812 45.4531 25.8281 43.5781
Q21.875 41.7031 18.2188 38.7188
L18.2188 0
L9.03125 0
L9.03125 54.5469
L18.2188 54.5469
L18.2188 46.4844
Q23.6875 50.875 27.8594 52.7031
Q32.0312 54.5469 36.375 54.5469
Q38.7656 54.5469 39.8438 54.4219
Q40.9219 54.2969 43.0625 53.9531
z
" id="Verdana-72"/>
     </defs>
     <g transform="translate(42.345 270.583125)rotate(-90.0)scale(0.12 -0.12)">
      <use xlink:href="#Verdana-52"/>
      <use x="67.53125" xlink:href="#Verdana-61"/>
      <use x="127.58984375" xlink:href="#Verdana-6e"/>
      <use x="190.87109375" xlink:href="#Verdana-6b"/>
      <use x="250.05078125" xlink:href="#Verdana-20"/>
      <use x="285.20703125" xlink:href="#Verdana-30"/>
      <use x="348.78125" xlink:href="#Verdana-20"/>
      <use x="383.9375" xlink:href="#Verdana-50"/>
      <use x="444.240234375" xlink:href="#Verdana-72"/>
      <use x="486.916015625" xlink:href="#Verdana-6f"/>
      <use x="547.609375" xlink:href="#Verdana-62"/>
      <use x="609.9140625" xlink:href="#Verdana-61"/>
      <use x="669.97265625" xlink:href="#Verdana-62"/>
      <use x="732.27734375" xlink:href="#Verdana-69"/>
      <use x="759.71875" xlink:href="#Verdana-6c"/>
      <use x="787.16015625" xlink:href="#Verdana-69"/>
      <use x="814.6015625" xlink:href="#Verdana-74"/>
      <use x="853.505859375" xlink:href="#Verdana-79"/>
     </g>
    </g>
   </g>
   <g id="patch_3">
    <path d="
M518.4 388.8
L518.4 43.2" style="fill:none;stroke:#000000;"/>
   </g>
   <g id="patch_4">
    <path d="
M72 43.2
L518.4 43.2" style="fill:none;stroke:#000000;"/>
   </g>
   <g id="patch_5">
    <path d="
M72 388.8
L518.4 388.8" style="fill:none;stroke:#000000;"/>
   </g>
   <g id="patch_6">
    <path d="
M72 388.8
L72 43.2" style="fill:none;stroke:#000000;"/>
   </g>
   <g id="text_15">
    <!-- Rosenbrock Rank 0 Probability -->
    <g transform="translate(185.436 38.2)scale(0.144 -0.144)">
     <use xlink:href="#Verdana-52"/>
     <use x="67.03125" xlink:href="#Verdana-6f"/>
     <use x="127.724609375" xlink:href="#Verdana-73"/>
     <use x="179.82421875" xlink:href="#Verdana-65"/>
     <use x="239.39453125" xlink:href="#Verdana-6e"/>
     <use x="302.67578125" xlink:href="#Verdana-62"/>
     <use x="364.98046875" xlink:href="#Verdana-72"/>
     <use x="407.65625" xlink:href="#Verdana-6f"/>
     <use x="468.349609375" xlink:href="#Verdana-63"/>
     <use x="520.44921875" xlink:href="#Verdana-6b"/>
     <use x="579.62890625" xlink:href="#Verdana-20"/>
     <use x="614.78515625" xlink:href="#Verdana-52"/>
     <use x="682.31640625" xlink:href="#Verdana-61"/>
     <use x="742.375" xlink:href="#Verdana-6e"/>
     <use x="805.65625" xlink:href="#Verdana-6b"/>
     <use x="864.8359375" xlink:href="#Verdana-20"/>
     <use x="899.9921875" xlink:href="#Verdana-30"/>
     <use x="963.56640625" xlink:href="#Verdana-20"/>
     <use x="998.72265625" xlink:href="#Verdana-50"/>
     <use x="1059.025390625" xlink:href="#Verdana-72"/>
     <use x="1101.701171875" xlink:href="#Verdana-6f"/>
     <use x="1162.39453125" xlink:href="#Verdana-62"/>
     <use x="1224.69921875" xlink:href="#Verdana-61"/>
     <use x="1284.7578125" xlink:href="#Verdana-62"/>
     <use x="1347.0625" xlink:href="#Verdana-69"/>
     <use x="1374.50390625" xlink:href="#Verdana-6c"/>
     <use x="1401.9453125" xlink:href="#Verdana-69"/>
     <use x="1429.38671875" xlink:href="#Verdana-74"/>
     <use x="1468.291015625" xlink:href="#Verdana-79"/>
    </g>
   </g>
   <g id="legend_1">
    <g id="patch_7">
     <path d="
M407.18 159.919
L511.2 159.919
L511.2 50.4
L407.18 50.4
L407.18 159.919
z
" style="fill:#ffffff;stroke:#000000;"/>
    </g>
    <g id="line2d_30">
     <path d="
M417.26 62.0617
L437.42 62.0617" style="fill:none;stroke:#0000ff;stroke-dasharray:6.000000,2.000000;stroke-dashoffset:0.0;"/>
    </g>
    <g id="line2d_31"/>
    <g id="text_16">
     <!-- AMPGO -->
     <defs>
      <path d="
M74.5156 0
L64.8438 0
L64.8438 62.6406
L44.625 20.0156
L38.875 20.0156
L18.7969 62.6406
L18.7969 0
L9.76562 0
L9.76562 72.7031
L22.9531 72.7031
L42.3281 32.2344
L61.0781 72.7031
L74.5156 72.7031
z
" id="Verdana-4d"/>
      <path d="
M67.0938 0
L56.7812 0
L49.6562 20.2656
L18.2188 20.2656
L11.0781 0
L1.26562 0
L27.7344 72.7031
L40.625 72.7031
z

M46.6875 28.5625
L33.9375 64.2656
L21.1406 28.5625
z
" id="Verdana-41"/>
      <path d="
M70.4062 5.375
Q64.4531 2.64062 57.3906 0.609375
Q50.3438 -1.42188 43.75 -1.42188
Q35.25 -1.42188 28.1719 0.921875
Q21.0938 3.26562 16.1094 7.95312
Q11.0781 12.7031 8.34375 19.7969
Q5.60938 26.9062 5.60938 36.4219
Q5.60938 53.8594 15.7969 63.9375
Q25.9844 74.0312 43.75 74.0312
Q49.9531 74.0312 56.4219 72.5312
Q62.8906 71.0469 70.3594 67.4844
L70.3594 56
L69.4844 56
Q67.9688 57.1719 65.0781 59.0781
Q62.2031 60.9844 59.4219 62.25
Q56.0625 63.7656 51.7812 64.7656
Q47.5156 65.7656 42.0938 65.7656
Q29.8906 65.7656 22.7812 57.9219
Q15.6719 50.0938 15.6719 36.7188
Q15.6719 22.6094 23.0938 14.7656
Q30.5156 6.9375 43.3125 6.9375
Q48 6.9375 52.6562 7.85938
Q57.3281 8.79688 60.8438 10.25
L60.8438 28.0781
L41.3594 28.0781
L41.3594 36.5781
L70.4062 36.5781
z
" id="Verdana-47"/>
     </defs>
     <g transform="translate(453.26025 67.10175)scale(0.144 -0.144)">
      <use xlink:href="#Verdana-41"/>
      <use x="68.359375" xlink:href="#Verdana-4d"/>
      <use x="152.63671875" xlink:href="#Verdana-50"/>
      <use x="212.939453125" xlink:href="#Verdana-47"/>
      <use x="290.478515625" xlink:href="#Verdana-4f"/>
     </g>
    </g>
    <g id="line2d_32">
     <path d="
M417.26 83.1015
L437.42 83.1015" style="fill:none;stroke:#008000;stroke-dasharray:1.000000,1.000000;stroke-dashoffset:0.0;"/>
    </g>
    <g id="line2d_33"/>
    <g id="text_17">
     <!-- Anneal -->
     <g transform="translate(453.26025 88.1415)scale(0.144 -0.144)">
      <use xlink:href="#Verdana-41"/>
      <use x="68.359375" xlink:href="#Verdana-6e"/>
      <use x="131.640625" xlink:href="#Verdana-6e"/>
      <use x="194.921875" xlink:href="#Verdana-65"/>
      <use x="254.4921875" xlink:href="#Verdana-61"/>
      <use x="314.55078125" xlink:href="#Verdana-6c"/>
     </g>
    </g>
    <g id="line2d_34">
     <path d="
M417.26 104.141
L437.42 104.141" style="fill:none;stroke:#ff0000;stroke-dasharray:3.000000,6.000000;stroke-dashoffset:0.0;"/>
    </g>
    <g id="line2d_35"/>
    <g id="text_18">
     <!-- BSA -->
     <defs>
      <path d="
M62.5938 20.75
Q62.5938 16.5 60.6094 12.3438
Q58.6406 8.20312 55.0781 5.32812
Q51.1719 2.20312 45.9688 0.4375
Q40.7656 -1.3125 33.4531 -1.3125
Q25.5938 -1.3125 19.3125 0.140625
Q13.0312 1.60938 6.54688 4.5
L6.54688 16.6094
L7.23438 16.6094
Q12.75 12.0156 19.9688 9.51562
Q27.2031 7.03125 33.5469 7.03125
Q42.5312 7.03125 47.5312 10.3906
Q52.5469 13.7656 52.5469 19.3906
Q52.5469 24.2188 50.1719 26.5156
Q47.7969 28.8125 42.9688 30.0781
Q39.3125 31.0625 35.0312 31.6875
Q30.7656 32.3281 25.9844 33.2969
Q16.3125 35.3594 11.6406 40.3125
Q6.98438 45.2656 6.98438 53.2188
Q6.98438 62.3594 14.6875 68.1875
Q22.4062 74.0312 34.2812 74.0312
Q41.9375 74.0312 48.3281 72.5625
Q54.7344 71.0938 59.6719 68.9531
L59.6719 57.5156
L58.9844 57.5156
Q54.8281 61.0312 48.0625 63.3438
Q41.3125 65.6719 34.2344 65.6719
Q26.4688 65.6719 21.75 62.4531
Q17.0469 59.2344 17.0469 54.1562
Q17.0469 49.6094 19.3906 47.0156
Q21.7344 44.4375 27.6406 43.0625
Q30.7656 42.3906 36.5156 41.4062
Q42.2812 40.4375 46.2969 39.4062
Q54.3906 37.25 58.4844 32.9062
Q62.5938 28.5625 62.5938 20.75" id="Verdana-53"/>
      <path d="
M64.5938 22.3594
Q64.5938 16.9375 62.5469 12.7812
Q60.5 8.64062 57.0312 5.95312
Q52.9375 2.73438 48.0156 1.35938
Q43.1094 0 35.5469 0
L9.76562 0
L9.76562 72.7031
L31.2969 72.7031
Q39.2656 72.7031 43.2188 72.1094
Q47.1719 71.5312 50.7812 69.6719
Q54.7812 67.5781 56.5938 64.2812
Q58.4062 60.9844 58.4062 56.3906
Q58.4062 51.2188 55.7656 47.5781
Q53.125 43.9531 48.7344 41.75
L48.7344 41.3594
Q56.1094 39.8438 60.3438 34.8906
Q64.5938 29.9375 64.5938 22.3594
M48.3438 55.125
Q48.3438 57.7656 47.4531 59.5625
Q46.5781 61.375 44.625 62.5
Q42.3281 63.8125 39.0625 64.125
Q35.7969 64.4531 30.9531 64.4531
L19.4375 64.4531
L19.4375 43.4531
L31.9375 43.4531
Q36.4688 43.4531 39.1562 43.9219
Q41.8438 44.3906 44.1406 45.8438
Q46.4375 47.3125 47.3906 49.625
Q48.3438 51.9531 48.3438 55.125
M54.5469 21.9688
Q54.5469 26.375 53.2188 28.9531
Q51.9062 31.5469 48.4375 33.3438
Q46.0938 34.5781 42.75 34.9375
Q39.4062 35.2969 34.625 35.2969
L19.4375 35.2969
L19.4375 8.25
L32.2344 8.25
Q38.5781 8.25 42.625 8.90625
Q46.6875 9.57812 49.2656 11.3281
Q52 13.2344 53.2656 15.6719
Q54.5469 18.1094 54.5469 21.9688" id="Verdana-42"/>
     </defs>
     <g transform="translate(453.26025 109.18125)scale(0.144 -0.144)">
      <use xlink:href="#Verdana-42"/>
      <use x="68.5546875" xlink:href="#Verdana-53"/>
      <use x="135.9140625" xlink:href="#Verdana-41"/>
     </g>
    </g>
    <g id="line2d_36">
     <path d="
M417.26 125.181
L437.42 125.181" style="fill:none;stroke:#00bfbf;stroke-dasharray:5.000000,1.000000,2.000000,1.000000,5.000000,1.000000;stroke-dashoffset:0.0;"/>
    </g>
    <g id="line2d_37"/>
    <g id="text_19">
     <!-- Cuckoo -->
     <defs>
      <path d="
M65.9219 5.28125
Q63.2344 4.10938 61.0625 3.07812
Q58.8906 2.04688 55.375 0.921875
Q52.3906 0 48.8906 -0.65625
Q45.4062 -1.3125 41.2188 -1.3125
Q33.2969 -1.3125 26.8281 0.90625
Q20.3594 3.125 15.5781 7.85938
Q10.8906 12.5 8.25 19.6562
Q5.60938 26.8125 5.60938 36.2812
Q5.60938 45.2656 8.14062 52.3438
Q10.6875 59.4219 15.4844 64.3125
Q20.125 69.0469 26.6875 71.5312
Q33.25 74.0312 41.2656 74.0312
Q47.125 74.0312 52.9531 72.6094
Q58.7969 71.1875 65.9219 67.625
L65.9219 56.1562
L65.1875 56.1562
Q59.1875 61.1875 53.2656 63.4688
Q47.3594 65.7656 40.625 65.7656
Q35.1094 65.7656 30.6875 63.9844
Q26.2656 62.2031 22.7969 58.4531
Q19.4375 54.7812 17.5469 49.1875
Q15.6719 43.6094 15.6719 36.2812
Q15.6719 28.6094 17.75 23.0938
Q19.8281 17.5781 23.0938 14.1094
Q26.5156 10.5 31.0781 8.76562
Q35.6406 7.03125 40.7188 7.03125
Q47.7031 7.03125 53.7969 9.42188
Q59.9062 11.8125 65.2344 16.6094
L65.9219 16.6094
z
" id="Verdana-43"/>
     </defs>
     <g transform="translate(453.26025 130.221)scale(0.144 -0.144)">
      <use xlink:href="#Verdana-43"/>
      <use x="69.82421875" xlink:href="#Verdana-75"/>
      <use x="133.10546875" xlink:href="#Verdana-63"/>
      <use x="185.205078125" xlink:href="#Verdana-6b"/>
      <use x="243.384765625" xlink:href="#Verdana-6f"/>
      <use x="304.078125" xlink:href="#Verdana-6f"/>
     </g>
    </g>
    <g id="line2d_38">
     <path d="
M417.26 146.221
L437.42 146.221" style="fill:none;stroke:#bf00bf;stroke-linecap:square;"/>
    </g>
    <g id="line2d_39"/>
    <g id="text_20">
     <!-- qABC -->
     <defs>
      <path d="
M53.2656 -20.125
L44.0938 -20.125
L44.0938 6.15625
Q39.8438 2.48438 35.6406 0.703125
Q31.4531 -1.07812 26.5625 -1.07812
Q16.8438 -1.07812 11.0625 6.42188
Q5.28125 13.9219 5.28125 27.0938
Q5.28125 34.125 7.29688 39.5156
Q9.32812 44.9219 12.6406 48.5781
Q15.875 52.1562 20.2188 54.1094
Q24.5625 56.0625 29.3906 56.0625
Q33.7969 56.0625 37.1875 55.0781
Q40.5781 54.1094 44.0938 52.2031
L44.6719 54.5469
L53.2656 54.5469
z

M44.0938 13.875
L44.0938 44.7344
Q40.2812 46.4375 37.3438 47.1094
Q34.4219 47.7969 31 47.7969
Q23.0469 47.7969 18.8906 42.4062
Q14.75 37.0156 14.75 27.5469
Q14.75 17.9688 18.0938 12.8125
Q21.4375 7.67188 28.6094 7.67188
Q32.625 7.67188 36.625 9.40625
Q40.625 11.1406 44.0938 13.875" id="Verdana-71"/>
     </defs>
     <g transform="translate(453.26025 151.26075)scale(0.144 -0.144)">
      <use xlink:href="#Verdana-71"/>
      <use x="62.3046875" xlink:href="#Verdana-41"/>
      <use x="130.6640625" xlink:href="#Verdana-42"/>
      <use x="199.21875" xlink:href="#Verdana-43"/>
     </g>
    </g>
   </g>
  </g>
 </g>
 <defs>
  <clipPath id="p7ff5b81e1d">
   <rect height="345.6" width="446.4" x="72.0" y="43.2"/>
  </clipPath>
 </defs>
</svg>
