<?xml version="1.0" encoding="utf-8" standalone="no"?>
<!DOCTYPE svg PUBLIC "-//W3C//DTD SVG 1.1//EN"
  "http://www.w3.org/Graphics/SVG/1.1/DTD/svg11.dtd">
<!-- Created with matplotlib (http://matplotlib.org/) -->
<svg height="432pt" version="1.1" viewBox="0 0 576 432" width="576pt" xmlns="http://www.w3.org/2000/svg" xmlns:xlink="http://www.w3.org/1999/xlink">
 <defs>
  <style type="text/css">
*{stroke-linecap:butt;stroke-linejoin:round;}
  </style>
 </defs>
 <g id="figure_1">
  <g id="patch_1">
   <path d="
M0 432
L576 432
L576 0
L0 0
z
" style="fill:#ffffff;"/>
  </g>
  <g id="axes_1">
   <g id="patch_2">
    <path d="
M72 388.8
L518.4 388.8
L518.4 43.2
L72 43.2
z
" style="fill:#ffffff;"/>
   </g>
   <g id="line2d_1">
    <path clip-path="url(#p7ff5b81e1d)" d="
M72 388.64
L72.0893 388.8
L72.1786 388.8
L73.0714 388.8
L73.2499 388.159
L73.607 388.159
L73.7856 387.518
L74.1427 387.518
L74.3213 387.678
L74.6784 387.678
L74.857 386.877
L75.2141 386.877
L75.3926 386.557
L75.7498 386.557
L75.9283 385.596
L76.2854 385.596
L76.464 384.314
L76.8211 384.314
L76.9997 383.673
L77.3568 383.673
L77.5354 383.192
L77.8925 383.192
L78.071 382.712
L78.4282 382.712
L78.6067 381.91
L78.9638 381.91
L79.1424 381.43
L79.4995 381.43
L79.6781 381.27
L80.5709 381.27
L80.7494 380.949
L82.7136 380.949
L82.8922 380.789
L84.8563 380.789
L85.0349 380.629
L86.4634 380.629
L86.6419 380.468
L97.0877 380.468
L97.2662 380.308
L153.334 380.308
L153.513 380.148
L156.816 380.148
L156.995 379.988
L176.993 379.988
L177.172 379.828
L177.886 379.828
L178.065 379.667
L182.529 379.667
L182.707 379.507
L214.848 379.507
L215.027 379.347
L228.419 379.347
L228.597 379.187
L263.238 379.187
L263.416 379.026
L270.38 379.026
L270.559 378.866
L322.073 378.866
L322.252 378.706
L339.751 378.706
L339.929 378.546
L352.607 378.546
L352.786 378.386
L376.266 378.386
L376.445 378.225
L401.532 378.225
L401.711 378.065
L410.46 378.065
L410.639 377.905
L414.746 377.905
L414.924 377.745
L428.316 377.745
L428.495 377.584
L428.941 377.584
L429.12 377.424
L449.119 377.424
L449.297 377.264
L468.939 377.264
L469.117 377.104
L476.617 377.104
L476.796 376.944
L488.313 376.944
L488.491 376.783
L488.58 376.783
L488.759 376.623
L489.205 376.623
L489.384 376.463
L493.58 376.463
L493.759 376.303
L517.686 376.303
L517.864 376.142
L518.311 376.142
L518.311 376.142" style="fill:none;stroke:#0000ff;stroke-dasharray:6.000000,2.000000;stroke-dashoffset:0.0;"/>
   </g>
   <g id="line2d_2">
    <path clip-path="url(#p7ff5b81e1d)" d="
M72 388.8
L72.0893 388.8
L72.1786 388.399
L72.3571 388.8
L72.7142 388.8
L72.8928 388.399
L72.9821 388.399
L73.1606 387.597
L73.4285 387.597
L73.607 386.394
L73.6963 387.597
L73.8749 385.593
L73.9642 385.593
L74.1427 384.791
L74.232 388.399
L74.3213 387.998
L74.4998 387.597
L74.9462 387.597
L75.2141 386.394
L75.3034 387.196
L75.7498 384.791
L76.0176 383.187
L76.1962 382.786
L76.2854 382.786
L76.5533 381.182
L76.8211 378.777
L76.9104 377.975
L77.1782 370.758
L77.4461 368.754
L77.7139 364.343
L78.1603 357.929
L78.8746 351.915
L79.2317 344.698
L79.4102 341.09
L79.6781 337.481
L79.9459 334.675
L80.1245 330.665
L80.2138 329.463
L80.5709 319.039
L80.6602 318.638
L81.2851 299.794
L81.553 292.176
L83.5171 247.272
L83.8742 232.839
L85.2134 201.166
L85.4813 193.147
L85.9277 181.52
L86.1955 175.105
L86.6419 165.884
L86.999 159.068
L87.1776 155.861
L87.5347 148.243
L87.624 148.243
L88.4275 135.413
L88.6061 132.206
L88.9632 125.39
L89.3203 121.782
L89.4989 119.777
L89.7667 114.164
L89.856 114.164
L90.1238 110.556
L90.3024 109.754
L90.3917 109.754
L90.5702 108.551
L91.2845 100.132
L91.3738 100.132
L91.6416 94.9197
L91.7309 94.9197
L91.9094 92.9151
L91.9987 92.5142
L92.3558 88.5049
L92.4451 88.5049
L92.8915 86.0993
L93.4272 82.09
L93.5165 82.09
L93.695 80.8872
L93.9629 78.0807
L94.1414 76.0761
L94.7664 72.8687
L95.6592 65.251
L95.8378 65.251
L96.0163 64.4492
L96.1056 64.4492
L96.2842 63.6473
L96.552 62.8455
L96.7306 62.8455
L96.9984 61.2418
L97.177 60.039
L97.3555 59.6381
L97.5341 59.6381
L97.8912 57.2325
L98.0698 56.8316
L98.159 56.8316
L98.3376 55.6288
L98.4269 55.6288
L98.784 54.426
L98.8733 54.426
L99.0518 54.0251
L99.1411 54.0251
L99.3197 53.6241
L99.409 53.6241
L99.5875 53.2232
L99.7661 53.2232
L99.9446 52.4213
L100.034 52.4213
L100.302 51.6195
L101.284 51.6195
L101.552 50.8176
L101.641 50.8176
L101.82 50.4167
L102.266 50.4167
L102.534 49.6148
L102.802 49.6148
L103.069 48.813
L104.587 48.813
L104.766 48.4121
L104.855 48.4121
L105.034 48.0111
L105.391 48.0111
L105.569 47.6102
L107.266 47.6102
L107.444 47.2093
L107.623 47.2093
L107.801 46.8084
L110.748 46.8084
L110.926 46.4074
L111.372 46.4074
L111.551 46.0065
L111.73 46.0065
L111.908 45.6056
L113.783 45.6056
L113.962 45.2046
L114.319 45.2046
L114.497 44.8037
L115.301 44.8037
L115.479 44.4028
L119.408 44.4028
L119.586 44.0019
L122.979 44.0019
L123.157 43.6009
L518.311 43.6009
L518.311 43.6009" style="fill:none;stroke:#008000;stroke-dasharray:1.000000,1.000000;stroke-dashoffset:0.0;"/>
   </g>
   <g id="line2d_3">
    <path clip-path="url(#p7ff5b81e1d)" d="
M72 388.8
L72.0893 388.8
L72.2678 388.52
L72.3571 388.52
L72.5357 387.682
L72.625 387.682
L72.7142 387.122
L72.8928 388.241
L73.0714 387.961
L73.2499 388.241
L73.607 388.241
L73.7856 388.52
L74.1427 388.52
L74.3213 388.8
L74.5891 388.8
L74.7677 388.52
L76.1962 388.52
L76.3747 388.241
L77.089 388.241
L77.2675 387.961
L79.2317 387.961
L79.4102 387.682
L81.0173 387.682
L81.1958 387.402
L81.6422 387.402
L81.8208 387.122
L84.767 387.122
L85.0349 386.563
L85.5706 386.563
L85.7491 386.283
L86.7312 386.283
L86.9098 386.004
L87.7133 386.004
L87.8918 385.724
L88.249 385.724
L88.5168 385.165
L89.1418 385.165
L89.3203 384.885
L89.7667 384.885
L89.9453 384.606
L90.7488 384.606
L90.9274 384.326
L91.3738 384.326
L91.5523 384.047
L92.088 384.047
L92.2666 383.767
L92.6237 383.767
L92.8915 383.208
L92.9808 383.208
L93.1594 382.928
L93.5165 382.928
L93.695 382.369
L94.7664 382.369
L95.0342 381.81
L95.7485 381.81
L96.0163 381.25
L96.3734 381.25
L96.552 380.691
L97.3555 380.691
L97.5341 380.412
L99.0518 380.412
L99.2304 380.132
L99.409 380.132
L99.5875 379.852
L100.302 379.852
L100.57 379.293
L100.659 379.293
L101.016 378.454
L101.105 378.454
L101.284 378.175
L101.462 378.175
L101.73 377.616
L101.909 377.616
L102.266 376.777
L102.444 376.777
L102.802 375.938
L103.159 375.938
L103.337 375.658
L103.516 375.658
L104.052 374.26
L104.141 374.26
L104.498 373.142
L104.676 372.303
L104.766 372.303
L105.034 371.744
L105.123 371.744
L105.301 371.464
L106.194 371.464
L106.373 371.184
L106.462 371.184
L106.819 370.346
L106.908 370.346
L107.087 370.066
L107.176 370.066
L107.355 369.786
L107.623 369.786
L107.891 369.227
L107.98 369.227
L108.158 368.948
L108.694 368.948
L108.962 367.829
L109.319 367.829
L109.498 367.55
L109.587 367.55
L109.765 367.27
L109.855 367.27
L110.033 366.431
L110.123 366.431
L110.48 365.592
L110.569 365.592
L110.837 365.033
L111.015 365.033
L111.283 364.474
L111.462 364.474
L111.64 363.915
L111.819 363.635
L112.355 363.635
L112.622 362.517
L112.801 362.517
L113.247 361.398
L113.337 361.398
L113.515 360.839
L113.872 359.72
L114.051 358.882
L114.14 358.882
L114.319 358.602
L114.497 358.602
L114.676 358.322
L115.033 358.322
L115.39 357.483
L115.658 357.483
L116.997 353.569
L117.265 353.569
L117.533 352.45
L117.711 352.171
L117.801 352.171
L118.336 350.773
L118.426 350.773
L118.783 349.095
L119.318 347.697
L119.408 347.697
L119.943 345.74
L120.122 344.901
L120.479 343.503
L120.747 342.105
L120.836 342.105
L121.104 341.546
L121.193 341.546
L121.64 340.427
L121.729 340.427
L122.354 338.75
L122.443 338.75
L122.8 337.911
L122.89 337.911
L123.068 336.513
L123.336 335.953
L123.425 335.953
L123.604 335.674
L123.693 335.674
L124.14 333.437
L124.229 333.157
L124.407 332.318
L124.675 332.318
L125.211 330.92
L125.3 330.92
L125.657 330.082
L125.747 330.082
L126.104 329.243
L126.282 329.243
L126.55 327.845
L126.639 327.845
L126.907 326.447
L126.996 326.447
L127.264 325.887
L127.443 325.887
L127.621 325.049
L127.711 325.049
L128.068 323.65
L128.336 321.414
L128.514 321.134
L128.693 321.134
L128.871 320.295
L128.961 320.295
L129.853 317.779
L130.121 317.779
L130.389 316.66
L130.836 314.423
L131.728 311.907
L131.818 311.907
L131.996 311.348
L132.085 311.348
L132.353 310.788
L132.443 310.788
L132.71 309.67
L132.889 308.551
L132.978 308.551
L133.335 306.874
L133.692 306.035
L133.871 304.078
L133.96 304.078
L134.407 302.959
L134.496 302.959
L134.675 302.12
L135.121 299.883
L135.3 299.604
L135.389 299.604
L135.657 298.206
L135.746 298.206
L135.835 297.926
L136.014 296.249
L136.103 296.249
L136.371 294.85
L136.46 294.85
L136.639 294.291
L136.728 294.291
L136.907 293.732
L137.264 293.732
L137.532 293.173
L137.621 293.173
L137.889 292.054
L138.246 292.054
L138.424 291.216
L138.692 290.097
L138.871 290.097
L139.317 287.86
L139.496 287.581
L139.585 287.581
L139.942 286.462
L140.121 285.064
L140.21 285.064
L140.567 283.666
L140.835 282.548
L140.924 282.548
L142.442 278.074
L142.531 278.074
L142.71 277.794
L142.799 277.794
L143.067 276.676
L143.156 276.676
L143.424 276.117
L143.87 276.117
L144.406 274.718
L144.495 274.718
L144.763 273.6
L144.942 273.32
L145.21 273.32
L145.477 272.202
L145.745 270.524
L146.46 268.567
L146.727 268.567
L146.906 266.889
L147.62 264.932
L147.799 263.534
L147.888 263.534
L148.334 261.856
L148.692 260.179
L148.781 260.179
L149.674 257.383
L149.941 255.705
L150.477 254.307
L150.656 254.307
L151.013 252.909
L151.37 251.231
L151.548 251.231
L151.727 250.672
L151.906 250.392
L151.995 250.392
L152.531 248.994
L152.62 248.994
L152.977 246.198
L153.066 246.198
L153.334 245.08
L153.513 244.241
L153.691 242.843
L154.138 240.326
L154.227 240.326
L154.405 239.767
L154.852 238.649
L154.941 238.649
L155.388 236.132
L155.566 236.132
L156.012 234.734
L156.28 233.056
L156.37 233.056
L157.084 231.099
L157.173 231.099
L157.709 229.701
L157.798 229.701
L157.977 228.862
L158.066 228.862
L158.334 227.744
L158.602 226.066
L158.78 225.786
L158.959 225.786
L159.048 225.507
L159.316 223.829
L159.852 221.033
L160.209 221.033
L160.744 219.355
L160.923 217.957
L161.28 217.118
L161.369 217.118
L161.905 214.322
L161.994 214.322
L162.351 212.645
L162.53 212.365
L162.708 210.687
L162.887 210.408
L162.976 210.408
L163.155 210.128
L163.333 210.128
L163.512 209.569
L163.691 209.289
L163.78 209.289
L164.137 207.612
L164.316 207.052
L164.494 205.934
L164.673 205.934
L165.565 200.901
L166.369 198.105
L166.637 196.986
L166.994 195.588
L167.172 195.029
L167.351 195.029
L167.53 194.47
L167.887 193.631
L167.976 193.631
L168.244 193.072
L168.333 193.072
L168.601 191.953
L168.869 191.115
L169.047 190.276
L169.137 190.276
L169.494 187.759
L169.583 187.759
L169.851 186.641
L171.012 183.285
L171.101 183.285
L171.369 182.167
L171.547 181.328
L171.636 181.328
L171.815 181.049
L171.994 181.049
L172.172 180.769
L172.261 180.769
L172.351 180.489
L172.619 178.252
L172.708 178.252
L173.244 176.295
L173.422 175.736
L173.958 173.779
L174.404 171.542
L174.583 171.262
L174.94 171.262
L175.118 170.983
L175.208 170.983
L176.1 168.466
L176.279 168.466
L176.725 167.348
L177.083 167.348
L177.529 165.67
L177.975 162.035
L178.065 162.035
L178.868 159.798
L178.957 159.798
L179.582 158.12
L179.672 158.12
L179.761 157.841
L180.029 155.883
L180.654 155.883
L181.189 154.206
L181.368 153.087
L181.457 153.087
L181.547 152.808
L181.725 151.689
L181.814 151.41
L181.993 150.571
L182.172 150.571
L182.618 149.452
L182.707 149.452
L182.796 149.173
L182.975 148.054
L183.064 148.054
L183.689 146.097
L183.868 144.979
L184.136 144.979
L184.85 143.021
L185.207 143.021
L185.921 141.064
L186.189 141.064
L186.368 140.505
L186.636 140.505
L186.814 139.946
L187.082 138.827
L187.26 137.988
L187.618 137.988
L188.064 136.87
L188.332 136.87
L188.51 136.59
L188.6 136.59
L188.778 136.311
L188.957 136.311
L189.225 134.913
L189.314 134.913
L189.76 133.794
L189.85 133.794
L190.028 133.235
L190.207 133.235
L190.385 132.955
L190.564 132.955
L190.832 132.396
L190.921 132.396
L191.724 130.159
L191.814 130.159
L192.082 129.6
L192.349 129.6
L192.707 128.761
L192.796 128.761
L192.974 128.482
L193.242 128.482
L193.421 127.363
L193.599 127.363
L193.778 127.083
L193.867 127.083
L194.046 126.804
L194.135 126.804
L194.492 125.965
L194.581 125.965
L195.385 123.728
L195.474 123.728
L195.653 123.169
L195.742 123.169
L195.921 122.61
L196.367 121.491
L196.992 121.491
L197.171 121.212
L197.438 121.212
L197.885 120.093
L197.974 120.093
L198.063 119.814
L198.242 118.975
L198.51 118.416
L198.599 118.416
L199.938 113.942
L200.117 113.103
L200.295 113.103
L200.831 111.425
L201.01 110.586
L201.188 110.586
L201.367 110.307
L201.545 110.307
L202.081 108.909
L202.26 108.909
L202.795 107.511
L202.974 107.511
L203.242 106.951
L203.42 106.951
L203.599 106.113
L203.688 106.113
L203.867 105.833
L204.045 105.833
L204.402 104.155
L204.581 103.876
L205.116 103.876
L205.384 103.317
L205.474 103.317
L205.831 102.478
L206.188 102.478
L206.366 102.198
L207.081 102.198
L207.348 101.639
L207.438 101.639
L207.884 100.52
L208.241 100.52
L209.134 98.0039
L209.402 98.0039
L210.295 95.4874
L210.384 95.4874
L210.83 94.3689
L210.92 94.3689
L211.188 93.8097
L211.723 93.8097
L211.991 93.2505
L212.17 93.2505
L212.348 92.6913
L212.884 92.6913
L213.152 92.132
L213.241 92.132
L213.777 90.734
L214.044 90.734
L214.312 90.1748
L214.848 90.1748
L215.116 89.6155
L215.205 89.6155
L215.562 88.7767
L215.919 88.7767
L216.098 88.2175
L216.634 88.2175
L216.812 87.9379
L217.526 87.9379
L217.705 87.099
L218.151 87.099
L218.33 86.8194
L218.508 86.8194
L219.669 83.4641
L219.758 83.4641
L220.294 82.066
L220.562 82.066
L220.74 81.7864
L221.008 81.7864
L221.187 81.2272
L221.276 81.2272
L221.455 80.3883
L221.812 80.3883
L221.99 80.1087
L222.169 80.1087
L222.437 79.5495
L222.705 79.5495
L222.883 78.9903
L222.972 78.9903
L223.24 78.4311
L223.419 78.4311
L223.597 78.1515
L224.044 78.1515
L224.222 77.3126
L224.401 77.3126
L224.847 76.1942
L225.115 76.1942
L225.294 75.9146
L225.919 75.9146
L226.276 75.0757
L226.544 75.0757
L226.722 74.7961
L227.972 74.7961
L228.151 74.5165
L228.329 74.5165
L228.508 74.2369
L228.597 74.2369
L228.865 73.6777
L229.044 73.6777
L229.222 73.3981
L229.49 73.3981
L229.668 73.1184
L230.293 73.1184
L230.561 72.5592
L231.008 72.5592
L231.186 72.2796
L231.365 72.2796
L231.543 71.7204
L232.079 71.7204
L232.258 71.4408
L232.347 71.4408
L232.525 71.1612
L232.793 71.1612
L233.061 70.6019
L233.329 70.6019
L233.508 70.3223
L233.954 70.3223
L234.132 70.0427
L235.025 70.0427
L235.204 69.7631
L235.472 69.7631
L235.65 69.4835
L235.829 69.4835
L236.186 68.6447
L236.9 68.6447
L237.079 68.0854
L237.525 68.0854
L237.704 67.8058
L238.061 67.8058
L238.239 67.5262
L239.043 67.5262
L239.4 66.6874
L240.293 66.6874
L240.471 66.4078
L240.65 66.4078
L240.918 65.8485
L241.096 65.8485
L241.275 65.2893
L241.721 65.2893
L241.9 65.0097
L242.525 65.0097
L242.703 64.7301
L243.418 64.7301
L243.685 64.1709
L244.668 64.1709
L244.846 63.8913
L245.114 63.8913
L245.292 63.6117
L245.56 63.6117
L245.739 63.332
L246.632 63.332
L246.989 62.4932
L247.614 62.4932
L248.328 60.5359
L248.596 60.5359
L249.042 59.4175
L249.221 59.4175
L249.399 59.1379
L249.667 59.1379
L249.846 58.8583
L249.935 58.8583
L250.114 58.5786
L253.238 58.5786
L253.417 58.299
L253.506 58.299
L253.685 58.0194
L254.22 58.0194
L254.399 57.4602
L255.113 57.4602
L255.292 57.1806
L256.006 57.1806
L256.185 56.901
L256.452 56.901
L256.631 56.6214
L257.256 56.6214
L257.435 56.3417
L258.684 56.3417
L258.952 55.7825
L259.488 55.7825
L259.667 55.5029
L263.059 55.5029
L263.238 54.9437
L264.131 54.9437
L264.309 54.6641
L266.363 54.6641
L266.541 54.3845
L267.434 54.3845
L267.612 54.1049
L270.291 54.1049
L270.469 53.8252
L271.184 53.8252
L271.362 53.5456
L272.166 53.5456
L272.344 53.266
L273.148 53.266
L273.505 52.4272
L273.862 52.4272
L274.041 52.1476
L274.576 52.1476
L274.755 51.868
L274.933 51.868
L275.112 51.5883
L276.362 51.5883
L276.54 51.0291
L278.415 51.0291
L278.594 50.7495
L281.362 50.7495
L281.54 50.4699
L282.254 50.4699
L282.433 50.1903
L284.486 50.1903
L284.665 49.9107
L285.29 49.9107
L285.468 49.6311
L285.647 49.6311
L285.826 49.3515
L286.093 49.3515
L286.272 49.0718
L287.165 49.0718
L287.433 48.5126
L287.522 48.5126
L287.7 48.233
L290.022 48.233
L290.29 47.6738
L291.629 47.6738
L291.807 47.3942
L297.968 47.3942
L298.146 47.1146
L300.289 47.1146
L300.468 46.835
L303.057 46.835
L303.235 46.5553
L304.128 46.5553
L304.307 46.2757
L311.092 46.2757
L311.27 45.9961
L312.342 45.9961
L312.52 45.7165
L316.538 45.7165
L316.716 45.4369
L319.663 45.4369
L319.841 45.1573
L321.359 45.1573
L321.538 44.8777
L334.93 44.8777
L335.108 44.5981
L358.053 44.5981
L358.232 44.3184
L385.105 44.3184
L385.284 44.0388
L409.032 44.0388
L409.211 43.7592
L459.029 43.7592
L459.207 43.4796
L460.011 43.4796
L460.189 43.2
L518.311 43.2
L518.311 43.2" style="fill:none;stroke:#ff0000;stroke-dasharray:3.000000,6.000000;stroke-dashoffset:0.0;"/>
   </g>
   <g id="line2d_4">
    <path clip-path="url(#p7ff5b81e1d)" d="
M72 388.8
L72.0893 388.8
L72.1786 388.8
L72.3571 388.124
L72.7142 388.124
L72.8928 388.8
L86.3741 388.8
L86.5526 388.124
L91.3738 388.124
L91.5523 387.447
L93.695 387.447
L93.8736 386.771
L94.6771 386.771
L94.8557 386.095
L94.945 386.095
L95.1235 385.418
L97.9805 385.418
L98.159 384.742
L100.659 384.742
L100.837 384.066
L101.462 384.066
L101.641 383.389
L106.908 383.389
L107.087 382.713
L107.801 382.713
L107.98 382.037
L109.14 382.037
L109.319 381.36
L111.551 381.36
L111.73 380.684
L114.408 380.684
L114.587 380.008
L116.015 380.008
L116.194 378.655
L116.283 378.655
L116.461 377.979
L116.551 377.979
L116.729 377.303
L118.515 377.303
L118.693 376.626
L119.14 376.626
L119.497 374.597
L119.854 374.597
L120.033 373.921
L120.211 373.921
L120.39 373.245
L121.997 373.245
L122.354 371.216
L122.532 371.216
L122.8 369.863
L122.89 369.863
L123.157 368.51
L123.336 368.51
L123.515 367.834
L124.586 367.834
L124.764 367.158
L124.854 367.158
L125.032 365.805
L125.211 365.129
L125.747 365.129
L125.925 363.1
L126.104 363.1
L126.372 361.747
L126.461 361.747
L126.729 360.395
L126.818 360.395
L127.086 359.042
L128.604 359.042
L128.782 358.366
L129.496 358.366
L129.853 356.337
L130.389 356.337
L130.568 355.66
L130.925 355.66
L131.103 354.984
L131.639 354.984
L131.818 354.308
L132.175 354.308
L132.353 353.631
L132.889 353.631
L133.068 352.955
L133.425 352.955
L133.603 350.926
L133.782 350.25
L133.871 350.25
L134.05 349.573
L134.853 349.573
L135.032 348.221
L136.192 348.221
L136.371 347.544
L136.46 347.544
L136.639 346.868
L136.817 346.868
L136.996 346.192
L137.264 346.192
L137.532 344.839
L139.585 344.839
L139.764 344.163
L139.942 344.163
L140.121 342.81
L140.299 342.134
L140.478 342.134
L140.924 339.429
L141.46 339.429
L141.638 338.752
L142.174 338.752
L142.353 338.076
L142.531 338.076
L142.71 337.4
L144.138 337.4
L144.406 336.047
L144.585 336.047
L144.852 334.694
L144.942 334.694
L145.12 334.018
L146.906 334.018
L147.352 331.313
L147.531 331.313
L147.799 329.96
L148.156 329.96
L148.334 329.284
L148.781 329.284
L148.959 328.607
L149.227 328.607
L149.406 327.931
L149.674 327.931
L149.852 327.255
L150.477 327.255
L150.656 326.578
L150.745 326.578
L150.924 325.902
L151.013 325.902
L151.102 325.226
L151.281 322.521
L151.816 315.081
L151.906 315.081
L152.709 309.67
L153.156 309.67
L153.334 308.994
L153.78 308.994
L153.959 308.318
L154.405 308.318
L155.298 302.231
L155.388 302.231
L156.012 298.173
L156.816 298.173
L156.995 297.497
L157.441 297.497
L157.62 296.82
L157.798 296.82
L157.977 296.144
L158.066 296.144
L158.602 292.762
L158.691 292.762
L158.869 292.086
L158.959 292.086
L159.137 291.41
L159.405 291.41
L159.762 289.381
L159.852 289.381
L160.03 288.705
L160.119 288.705
L160.298 288.028
L160.566 288.028
L160.744 287.352
L160.923 287.352
L161.637 282.618
L161.905 282.618
L162.441 279.236
L162.619 279.236
L162.798 278.56
L162.887 278.56
L163.066 277.883
L163.423 277.883
L163.601 277.207
L164.226 277.207
L164.583 275.178
L164.94 275.178
L165.298 273.149
L165.833 273.149
L166.369 269.768
L166.458 269.768
L166.637 269.091
L167.44 269.091
L167.708 267.739
L168.333 267.739
L168.512 267.062
L168.601 267.062
L168.78 265.033
L169.315 265.033
L169.851 261.652
L169.94 261.652
L170.297 259.623
L171.636 259.623
L171.815 258.946
L171.994 258.946
L172.351 256.917
L172.619 256.917
L172.797 256.241
L172.976 256.241
L173.244 253.536
L173.422 253.536
L173.601 252.859
L174.136 252.859
L174.315 252.183
L174.761 252.183
L174.94 251.507
L175.208 251.507
L175.476 250.154
L175.654 250.154
L175.833 249.478
L176.1 249.478
L176.368 248.125
L176.547 248.125
L176.904 246.096
L177.172 246.096
L177.44 244.744
L177.529 244.744
L177.708 244.067
L178.065 244.067
L178.243 243.391
L178.332 243.391
L178.511 242.715
L178.6 242.715
L178.779 240.686
L179.136 240.686
L179.315 240.009
L179.493 240.009
L179.672 237.98
L179.85 235.951
L179.94 235.951
L180.118 233.923
L180.386 232.57
L180.922 232.57
L181.1 231.894
L181.189 231.894
L181.368 230.541
L181.457 230.541
L181.636 229.865
L182.35 229.865
L182.707 227.836
L182.796 227.836
L182.975 227.159
L183.154 227.159
L183.332 225.13
L183.421 225.13
L183.868 222.425
L184.136 222.425
L184.314 221.749
L185.743 221.749
L185.921 221.072
L186.1 221.072
L186.368 219.72
L186.636 219.72
L186.903 218.367
L187.171 218.367
L187.439 217.014
L187.707 217.014
L187.975 214.309
L188.064 214.309
L188.243 213.633
L188.868 213.633
L189.046 212.957
L189.314 212.957
L189.582 211.604
L190.207 211.604
L190.475 208.899
L190.832 206.87
L191.189 206.87
L191.546 204.841
L191.903 204.841
L192.082 204.164
L192.707 204.164
L192.885 203.488
L192.974 203.488
L193.153 202.135
L193.599 202.135
L193.778 200.783
L193.956 198.077
L194.314 196.049
L194.492 196.049
L194.671 195.372
L194.849 195.372
L195.117 194.02
L195.564 194.02
L195.742 193.343
L196.903 193.343
L197.438 189.962
L197.528 189.962
L197.796 187.256
L197.974 185.227
L198.063 185.227
L198.242 183.875
L198.42 183.875
L198.778 181.846
L199.045 181.846
L199.224 181.169
L199.403 181.169
L199.581 180.493
L199.76 180.493
L200.028 179.141
L200.563 179.141
L200.742 177.788
L200.92 177.112
L201.545 177.112
L202.438 171.025
L202.617 171.025
L202.795 170.348
L203.331 170.348
L203.509 167.643
L203.777 167.643
L203.956 166.967
L204.045 166.967
L204.224 164.261
L204.402 163.585
L204.581 163.585
L204.759 162.909
L204.849 162.909
L205.116 161.556
L205.206 161.556
L205.384 160.204
L205.652 160.204
L205.92 158.851
L206.009 158.851
L206.188 158.175
L206.456 158.175
L206.634 157.498
L206.991 157.498
L207.348 155.469
L207.527 155.469
L207.884 153.44
L208.063 153.44
L208.331 152.088
L208.42 152.088
L208.688 150.735
L208.777 150.735
L209.045 148.03
L209.313 146.677
L209.848 146.677
L210.205 144.648
L211.009 144.648
L211.188 143.972
L211.366 143.972
L211.545 142.619
L211.634 142.619
L211.812 141.943
L212.17 141.943
L212.437 140.59
L212.527 140.59
L212.705 139.238
L214.223 139.238
L214.402 138.561
L215.116 138.561
L215.294 137.885
L215.473 137.885
L215.652 137.209
L216.009 137.209
L216.187 136.532
L216.276 136.532
L216.455 135.18
L216.634 135.18
L216.812 134.503
L217.259 134.503
L217.526 133.151
L217.884 133.151
L218.062 132.474
L218.866 132.474
L219.044 131.798
L219.133 131.798
L219.58 129.093
L219.758 129.093
L220.026 127.74
L221.187 127.74
L221.455 126.387
L222.08 126.387
L222.526 123.682
L222.794 123.682
L223.151 121.653
L223.24 121.653
L223.597 119.624
L223.776 119.624
L223.955 118.948
L225.115 118.948
L225.294 118.272
L225.562 118.272
L226.008 115.566
L226.187 115.566
L226.633 112.861
L226.812 112.861
L226.99 112.185
L227.347 112.185
L227.526 111.508
L227.615 111.508
L227.794 110.156
L229.044 110.156
L229.311 108.803
L229.401 108.803
L229.579 107.45
L230.74 107.45
L231.008 106.098
L232.347 106.098
L232.525 105.422
L232.704 105.422
L232.883 104.069
L233.061 104.069
L233.329 102.716
L233.508 102.716
L233.954 100.011
L234.132 100.011
L234.311 99.3346
L236.543 99.3346
L236.811 97.982
L237.079 97.982
L237.347 96.6294
L237.436 96.6294
L237.704 95.2767
L238.329 95.2767
L238.507 94.6004
L239.668 94.6004
L240.204 91.2188
L240.561 91.2188
L241.186 87.1609
L241.364 87.1609
L241.721 85.1319
L242.882 85.1319
L243.06 84.4556
L244.221 84.4556
L244.4 83.7793
L244.489 83.7793
L244.668 83.1029
L245.025 83.1029
L245.203 82.4266
L246.096 82.4266
L246.364 81.074
L246.9 81.074
L247.078 80.3977
L247.882 80.3977
L248.239 78.3687
L249.756 78.3687
L249.935 77.6924
L250.471 77.6924
L250.739 76.3397
L250.917 76.3397
L251.096 75.6634
L251.542 75.6634
L251.721 74.9871
L252.078 74.9871
L252.256 74.3108
L253.238 74.3108
L253.417 73.6344
L255.56 73.6344
L255.738 72.9581
L257.613 72.9581
L257.792 71.6055
L257.97 71.6055
L258.149 70.2528
L259.577 70.2528
L259.756 69.5765
L261.72 69.5765
L261.899 68.9002
L262.791 68.9002
L262.97 68.2239
L265.202 68.2239
L265.38 67.5476
L265.559 67.5476
L265.827 66.1949
L266.005 66.1949
L266.273 64.8423
L269.309 64.8423
L269.577 63.4896
L270.112 63.4896
L270.291 62.8133
L270.559 62.8133
L270.737 62.137
L272.076 62.137
L272.255 61.4607
L273.684 61.4607
L273.862 60.7843
L274.755 60.7843
L274.933 60.108
L277.255 60.108
L277.433 59.4317
L279.219 59.4317
L279.397 58.7554
L279.576 58.7554
L279.755 58.0791
L285.558 58.0791
L285.736 57.4027
L286.986 57.4027
L287.165 56.7264
L290.022 56.7264
L290.2 56.0501
L290.29 56.0501
L290.468 55.3738
L291.182 55.3738
L291.361 54.6975
L297.075 54.6975
L297.253 53.3448
L316.27 53.3448
L316.449 52.6685
L316.716 52.6685
L316.895 51.9922
L320.02 51.9922
L320.198 51.3159
L323.591 51.3159
L323.77 50.6395
L328.144 50.6395
L328.323 49.9632
L336.894 49.9632
L337.072 49.2869
L339.84 49.2869
L340.019 48.6106
L375.463 48.6106
L375.641 47.9342
L376.356 47.9342
L376.534 47.2579
L376.98 47.2579
L377.159 46.5816
L379.123 46.5816
L379.302 45.9053
L380.373 45.9053
L380.552 45.229
L416.442 45.229
L416.621 44.5526
L419.656 44.5526
L419.835 43.8763
L451.172 43.8763
L451.351 43.2
L518.311 43.2
L518.311 43.2" style="fill:none;stroke:#00bfbf;stroke-dasharray:5.000000,1.000000,2.000000,1.000000,5.000000,1.000000;stroke-dashoffset:0.0;"/>
   </g>
   <g id="line2d_5">
    <path clip-path="url(#p7ff5b81e1d)" d="
M72 388.8
L72.2678 387.353
L72.3571 387.353
L72.625 386.94
L72.7142 385.906
L72.8928 387.146
L73.0714 386.733
L73.2499 387.146
L73.4285 387.146
L73.8749 386.32
L74.1427 386.32
L74.3213 388.387
L75.5712 388.387
L75.7498 387.56
L75.839 387.56
L76.1962 386.94
L76.3747 386.94
L76.5533 385.493
L76.7318 384.873
L77.2675 380.945
L77.5354 380.945
L77.7139 380.739
L78.1603 380.739
L78.3389 380.532
L78.696 380.532
L78.9638 380.119
L79.0531 380.119
L79.4102 376.191
L79.6781 371.851
L80.2138 364.616
L80.8387 356.142
L81.1066 356.142
L81.2851 355.935
L81.3744 355.935
L81.553 355.728
L81.6422 355.728
L81.9101 355.315
L81.9994 355.315
L82.1779 355.108
L82.6243 355.108
L83.4278 341.879
L83.5171 340.639
L83.8742 331.958
L83.9635 331.544
L84.2314 326.584
L84.4992 322.863
L84.6778 322.656
L84.9456 322.656
L85.1242 322.45
L85.392 322.45
L85.5706 322.036
L85.8384 321.623
L85.9277 321.623
L86.1062 321.416
L86.1955 321.416
L88.1597 282.144
L88.4275 282.144
L88.6954 281.73
L88.8739 281.73
L89.0525 281.523
L89.1418 281.523
L89.7667 280.283
L90.2131 272.842
L91.6416 247.625
L91.7309 247.625
L92.2666 246.591
L92.3558 246.591
L92.5344 245.971
L92.9808 245.971
L93.2486 245.558
L93.3379 245.558
L93.8736 232.536
L94.32 225.508
L94.4093 224.475
L94.7664 217.033
L95.2128 209.179
L95.3021 209.179
L95.6592 208.559
L95.927 208.559
L96.2842 207.939
L96.3734 207.939
L96.8198 207.112
L96.9091 207.112
L98.6947 179.828
L98.8733 179.621
L99.0518 179.621
L99.2304 179.414
L99.9446 179.414
L100.391 178.588
L100.48 178.588
L100.659 176.107
L101.105 170.526
L101.373 166.599
L101.641 162.878
L102.177 156.264
L102.355 155.851
L103.337 155.851
L103.516 155.644
L103.605 155.644
L103.784 155.437
L103.962 155.437
L104.052 155.231
L104.855 145.102
L105.034 142.622
L105.123 142.002
L105.391 138.695
L105.569 137.041
L105.837 134.767
L106.908 134.767
L107.266 134.147
L107.623 134.147
L108.248 129.393
L108.426 128.773
L108.873 123.812
L109.23 121.745
L109.408 120.299
L110.48 120.299
L110.658 120.092
L111.015 120.092
L111.372 119.058
L111.73 116.991
L111.819 116.785
L112.355 113.064
L112.622 110.17
L112.98 108.103
L113.337 108.103
L113.515 107.897
L114.587 107.897
L114.765 107.483
L114.854 107.277
L115.39 104.176
L115.747 103.143
L116.015 102.316
L116.283 101.489
L116.64 100.249
L117.711 100.249
L117.89 99.8354
L118.336 99.8354
L118.604 99.0086
L118.872 98.5952
L118.961 98.5952
L119.229 97.7684
L119.586 96.7349
L119.943 95.288
L120.3 95.288
L120.479 95.0813
L121.104 95.0813
L121.283 94.8746
L121.997 94.8746
L122.175 94.4612
L122.443 94.0478
L122.532 94.0478
L123.336 92.3943
L123.693 92.3943
L123.872 92.1876
L125.479 92.1876
L125.747 91.7742
L126.014 91.7742
L126.193 91.5675
L126.729 91.5675
L127.175 90.7407
L127.354 90.7407
L127.532 90.534
L129.407 90.534
L129.586 90.3273
L129.675 90.3273
L130.211 89.2938
L130.3 89.2938
L130.478 88.8804
L130.925 88.0536
L131.728 88.0536
L131.907 87.8469
L133.157 87.8469
L133.514 87.2268
L133.96 87.2268
L134.317 86.6067
L135.389 86.6067
L135.567 86.4
L137.174 86.4
L137.353 86.1933
L137.621 86.1933
L137.799 85.9866
L140.746 85.9866
L140.924 85.7799
L143.603 85.7799
L143.781 85.5732
L144.852 85.5732
L145.031 85.3665
L147.174 85.3665
L147.352 85.1598
L147.799 85.1598
L147.977 84.9531
L154.852 84.9531
L155.03 84.7464
L177.261 84.7464
L177.44 84.5397
L188.243 84.5397
L188.421 84.333
L327.966 84.333
L328.144 84.1263
L349.125 84.1263
L349.304 83.9196
L445.012 83.9196
L445.19 83.7129
L470.724 83.7129
L470.903 83.5062
L514.472 83.5062
L514.65 83.2995
L518.311 83.2995
L518.311 83.2995" style="fill:none;stroke:#bf00bf;stroke-linecap:square;"/>
   </g>
   <g id="matplotlib.axis_1">
    <g id="xtick_1">
     <g id="line2d_6">
      <defs>
       <path d="
M0 0
L0 -4" id="mc7db9fdffb" style="stroke:#000000;stroke-width:0.5;"/>
      </defs>
      <g>
       <use style="stroke:#000000;stroke-width:0.5;" x="72.0" xlink:href="#mc7db9fdffb" y="388.8"/>
      </g>
     </g>
     <g id="line2d_7">
      <defs>
       <path d="
M0 0
L0 4" id="m5a7d422ac3" style="stroke:#000000;stroke-width:0.5;"/>
      </defs>
      <g>
       <use style="stroke:#000000;stroke-width:0.5;" x="72.0" xlink:href="#m5a7d422ac3" y="43.2"/>
      </g>
     </g>
     <g id="text_1">
      <!-- 0 -->
      <defs>
       <path d="
M56.9844 36.375
Q56.9844 16.7969 50.8594 7.64062
Q44.7344 -1.51562 31.8438 -1.51562
Q18.75 -1.51562 12.7188 7.76562
Q6.6875 17.0469 6.6875 36.2812
Q6.6875 55.6719 12.7812 64.9219
Q18.8906 74.1719 31.8438 74.1719
Q44.9219 74.1719 50.9531 64.7656
Q56.9844 55.375 56.9844 36.375
M44.1406 14.2031
Q45.8438 18.1719 46.4531 23.5156
Q47.0781 28.8594 47.0781 36.375
Q47.0781 43.7969 46.4531 49.2656
Q45.8438 54.7344 44.0938 58.5469
Q42.3906 62.3125 39.4219 64.2031
Q36.4688 66.1094 31.8438 66.1094
Q27.25 66.1094 24.2344 64.2031
Q21.2344 62.3125 19.4844 58.4531
Q17.8281 54.8281 17.2188 49.0156
Q16.6094 43.2188 16.6094 36.2812
Q16.6094 28.6562 17.1406 23.5312
Q17.6719 18.4062 19.4375 14.3594
Q21.0469 10.5469 24 8.54688
Q26.9531 6.54688 31.8438 6.54688
Q36.4219 6.54688 39.4531 8.45312
Q42.4844 10.3594 44.1406 14.2031" id="Verdana-30"/>
      </defs>
      <g transform="translate(68.9821875 401.918125)scale(0.12 -0.12)">
       <use xlink:href="#Verdana-30"/>
      </g>
     </g>
    </g>
    <g id="xtick_2">
     <g id="line2d_8">
      <g>
       <use style="stroke:#000000;stroke-width:0.5;" x="161.28" xlink:href="#mc7db9fdffb" y="388.8"/>
      </g>
     </g>
     <g id="line2d_9">
      <g>
       <use style="stroke:#000000;stroke-width:0.5;" x="161.28" xlink:href="#m5a7d422ac3" y="43.2"/>
      </g>
     </g>
     <g id="text_2">
      <!-- 1000 -->
      <defs>
       <path d="
M52.9375 0
L13.5781 0
L13.5781 7.42188
L28.7188 7.42188
L28.7188 56.1562
L13.5781 56.1562
L13.5781 62.7969
Q16.6562 62.7969 20.1719 63.2969
Q23.6875 63.8125 25.4844 64.7969
Q27.7344 66.0156 29.0312 67.8906
Q30.3281 69.7812 30.5156 72.9531
L38.0938 72.9531
L38.0938 7.42188
L52.9375 7.42188
z
" id="Verdana-31"/>
      </defs>
      <g transform="translate(147.2315625 401.918125)scale(0.12 -0.12)">
       <use xlink:href="#Verdana-31"/>
       <use x="63.57421875" xlink:href="#Verdana-30"/>
       <use x="127.1484375" xlink:href="#Verdana-30"/>
       <use x="190.72265625" xlink:href="#Verdana-30"/>
      </g>
     </g>
    </g>
    <g id="xtick_3">
     <g id="line2d_10">
      <g>
       <use style="stroke:#000000;stroke-width:0.5;" x="250.56" xlink:href="#mc7db9fdffb" y="388.8"/>
      </g>
     </g>
     <g id="line2d_11">
      <g>
       <use style="stroke:#000000;stroke-width:0.5;" x="250.56" xlink:href="#m5a7d422ac3" y="43.2"/>
      </g>
     </g>
     <g id="text_3">
      <!-- 2000 -->
      <defs>
       <path d="
M57.0781 0
L7.85938 0
L7.85938 10.2031
Q12.9844 14.5938 18.1406 18.9844
Q23.2969 23.3906 27.7344 27.7344
Q37.1094 36.8125 40.5781 42.1562
Q44.0469 47.5156 44.0469 53.7188
Q44.0469 59.375 40.3125 62.5625
Q36.5781 65.7656 29.8906 65.7656
Q25.4375 65.7656 20.2656 64.2031
Q15.0938 62.6406 10.1562 59.4219
L9.67188 59.4219
L9.67188 69.6719
Q13.1406 71.3906 18.9219 72.7969
Q24.7031 74.2188 30.125 74.2188
Q41.3125 74.2188 47.6562 68.8125
Q54 63.4219 54 54.2031
Q54 50.0469 52.9531 46.4531
Q51.9062 42.875 49.8594 39.6562
Q47.9531 36.625 45.3906 33.6875
Q42.8281 30.7656 39.1562 27.2031
Q33.9375 22.0781 28.3594 17.2656
Q22.7969 12.4531 17.9688 8.34375
L57.0781 8.34375
z
" id="Verdana-32"/>
      </defs>
      <g transform="translate(236.1684375 401.918125)scale(0.12 -0.12)">
       <use xlink:href="#Verdana-32"/>
       <use x="63.57421875" xlink:href="#Verdana-30"/>
       <use x="127.1484375" xlink:href="#Verdana-30"/>
       <use x="190.72265625" xlink:href="#Verdana-30"/>
      </g>
     </g>
    </g>
    <g id="xtick_4">
     <g id="line2d_12">
      <g>
       <use style="stroke:#000000;stroke-width:0.5;" x="339.84" xlink:href="#mc7db9fdffb" y="388.8"/>
      </g>
     </g>
     <g id="line2d_13">
      <g>
       <use style="stroke:#000000;stroke-width:0.5;" x="339.84" xlink:href="#m5a7d422ac3" y="43.2"/>
      </g>
     </g>
     <g id="text_4">
      <!-- 3000 -->
      <defs>
       <path d="
M50.6875 35.0156
Q53.0312 32.9062 54.5469 29.7344
Q56.0625 26.5625 56.0625 21.5312
Q56.0625 16.5469 54.25 12.3906
Q52.4375 8.25 49.1719 5.17188
Q45.5156 1.76562 40.5469 0.125
Q35.5938 -1.51562 29.6875 -1.51562
Q23.6406 -1.51562 17.7812 -0.0625
Q11.9219 1.375 8.15625 3.07812
L8.15625 13.2812
L8.89062 13.2812
Q13.0312 10.5469 18.6406 8.73438
Q24.2656 6.9375 29.5 6.9375
Q32.5625 6.9375 36.0312 7.95312
Q39.5 8.98438 41.6562 10.9844
Q43.8906 13.1406 44.9844 15.7188
Q46.0938 18.3125 46.0938 22.2656
Q46.0938 26.1719 44.8438 28.7344
Q43.6094 31.2969 41.4062 32.7656
Q39.2031 34.2812 36.0781 34.8438
Q32.9531 35.4062 29.3438 35.4062
L24.9531 35.4062
L24.9531 43.5
L28.375 43.5
Q35.7969 43.5 40.2031 46.5938
Q44.625 49.7031 44.625 55.6719
Q44.625 58.2969 43.5 60.2656
Q42.3906 62.25 40.375 63.5312
Q38.2812 64.7969 35.8906 65.2812
Q33.5 65.7656 30.4688 65.7656
Q25.8281 65.7656 20.5938 64.1094
Q15.375 62.4531 10.75 59.4219
L10.25 59.4219
L10.25 69.625
Q13.7188 71.3438 19.5 72.7812
Q25.2969 74.2188 30.7188 74.2188
Q36.0312 74.2188 40.0781 73.2344
Q44.1406 72.2656 47.4062 70.125
Q50.9219 67.7812 52.7344 64.4531
Q54.5469 61.1406 54.5469 56.6875
Q54.5469 50.6406 50.2656 46.125
Q46 41.6094 40.1875 40.4375
L40.1875 39.75
Q42.5312 39.3594 45.5469 38.1094
Q48.5781 36.8594 50.6875 35.0156" id="Verdana-33"/>
      </defs>
      <g transform="translate(325.46625 401.918125)scale(0.12 -0.12)">
       <use xlink:href="#Verdana-33"/>
       <use x="63.57421875" xlink:href="#Verdana-30"/>
       <use x="127.1484375" xlink:href="#Verdana-30"/>
       <use x="190.72265625" xlink:href="#Verdana-30"/>
      </g>
     </g>
    </g>
    <g id="xtick_5">
     <g id="line2d_14">
      <g>
       <use style="stroke:#000000;stroke-width:0.5;" x="429.12" xlink:href="#mc7db9fdffb" y="388.8"/>
      </g>
     </g>
     <g id="line2d_15">
      <g>
       <use style="stroke:#000000;stroke-width:0.5;" x="429.12" xlink:href="#m5a7d422ac3" y="43.2"/>
      </g>
     </g>
     <g id="text_5">
      <!-- 4000 -->
      <defs>
       <path d="
M58.7344 20.4531
L47.9531 20.4531
L47.9531 0
L38.5781 0
L38.5781 20.4531
L3.76562 20.4531
L3.76562 31.6875
L38.9688 72.7031
L47.9531 72.7031
L47.9531 28.2656
L58.7344 28.2656
z

M38.5781 28.2656
L38.5781 61.0781
L10.4062 28.2656
z
" id="Verdana-34"/>
      </defs>
      <g transform="translate(414.4828125 401.918125)scale(0.12 -0.12)">
       <use xlink:href="#Verdana-34"/>
       <use x="63.57421875" xlink:href="#Verdana-30"/>
       <use x="127.1484375" xlink:href="#Verdana-30"/>
       <use x="190.72265625" xlink:href="#Verdana-30"/>
      </g>
     </g>
    </g>
    <g id="xtick_6">
     <g id="line2d_16">
      <g>
       <use style="stroke:#000000;stroke-width:0.5;" x="518.4" xlink:href="#mc7db9fdffb" y="388.8"/>
      </g>
     </g>
     <g id="line2d_17">
      <g>
       <use style="stroke:#000000;stroke-width:0.5;" x="518.4" xlink:href="#m5a7d422ac3" y="43.2"/>
      </g>
     </g>
     <g id="text_6">
      <!-- 5000 -->
      <defs>
       <path d="
M56.5 23.0938
Q56.5 18.0156 54.6406 13.375
Q52.7812 8.73438 49.5625 5.5625
Q46.0469 2.15625 41.1875 0.3125
Q36.3281 -1.51562 29.9375 -1.51562
Q23.9688 -1.51562 18.4531 -0.265625
Q12.9375 0.984375 9.125 2.73438
L9.125 13.0312
L9.8125 13.0312
Q13.8125 10.5 19.1875 8.71875
Q24.5625 6.9375 29.7344 6.9375
Q33.2031 6.9375 36.4531 7.90625
Q39.7031 8.89062 42.2344 11.3281
Q44.3906 13.4219 45.4844 16.3438
Q46.5781 19.2812 46.5781 23.1406
Q46.5781 26.9062 45.2812 29.4844
Q44 32.0781 41.7031 33.6406
Q39.1562 35.5 35.5156 36.25
Q31.8906 37.0156 27.3906 37.0156
Q23.0938 37.0156 19.1094 36.4219
Q15.1406 35.8438 12.25 35.25
L12.25 72.7031
L56 72.7031
L56 64.1562
L21.6875 64.1562
L21.6875 44.8281
Q23.7812 45.0156 25.9688 45.1094
Q28.1719 45.2188 29.7812 45.2188
Q35.6875 45.2188 40.125 44.2188
Q44.5781 43.2188 48.2969 40.6719
Q52.2031 37.9844 54.3438 33.7344
Q56.5 29.5 56.5 23.0938" id="Verdana-35"/>
      </defs>
      <g transform="translate(504.084375 401.918125)scale(0.12 -0.12)">
       <use xlink:href="#Verdana-35"/>
       <use x="63.57421875" xlink:href="#Verdana-30"/>
       <use x="127.1484375" xlink:href="#Verdana-30"/>
       <use x="190.72265625" xlink:href="#Verdana-30"/>
      </g>
     </g>
    </g>
    <g id="text_7">
     <!-- Objective function exectuions -->
     <defs>
      <path d="
M63.9688 64.3594
Q68.4062 59.4688 70.7656 52.3906
Q73.1406 45.3125 73.1406 36.3281
Q73.1406 27.3438 70.7188 20.2344
Q68.3125 13.1406 63.9688 8.40625
Q59.4688 3.46875 53.3438 0.96875
Q47.2188 -1.51562 39.3594 -1.51562
Q31.6875 -1.51562 25.4062 1.01562
Q19.1406 3.5625 14.75 8.40625
Q10.3594 13.2344 7.98438 20.2656
Q5.60938 27.2969 5.60938 36.3281
Q5.60938 45.2188 7.95312 52.2656
Q10.2969 59.3281 14.7969 64.3594
Q19.0938 69.1406 25.4688 71.6719
Q31.8438 74.2188 39.3594 74.2188
Q47.1719 74.2188 53.3906 71.6562
Q59.625 69.0938 63.9688 64.3594
M63.0938 36.3281
Q63.0938 50.4844 56.7344 58.1719
Q50.3906 65.875 39.4062 65.875
Q28.3281 65.875 22 58.1719
Q15.6719 50.4844 15.6719 36.3281
Q15.6719 22.0156 22.1094 14.4219
Q28.5625 6.84375 39.4062 6.84375
Q50.25 6.84375 56.6719 14.4219
Q63.0938 22.0156 63.0938 36.3281" id="Verdana-4f"/>
      <path d="
M38.375 67.0938
L37.8906 67.0938
Q36.375 67.5312 33.9375 67.9844
Q31.5 68.4531 29.6406 68.4531
Q23.7344 68.4531 21.0625 65.8438
Q18.4062 63.2344 18.4062 56.3906
L18.4062 54.5469
L34.9688 54.5469
L34.9688 46.8281
L18.7031 46.8281
L18.7031 0
L9.51562 0
L9.51562 46.8281
L3.32812 46.8281
L3.32812 54.5469
L9.51562 54.5469
L9.51562 56.3438
Q9.51562 66.0625 14.3438 71.2656
Q19.1875 76.4688 28.3281 76.4688
Q31.3906 76.4688 33.8594 76.1719
Q36.3281 75.875 38.375 75.4844
z
" id="Verdana-66"/>
      <path d="
M56.25 0
L44.6719 0
L29.2031 20.9531
L13.625 0
L2.9375 0
L24.2188 27.2031
L3.125 54.5469
L14.7031 54.5469
L30.0781 33.9375
L45.5156 54.5469
L56.25 54.5469
L34.8125 27.6875
z
" id="Verdana-78"/>
      <path d="
M54.6406 0
L45.4531 0
L45.4531 31.0625
Q45.4531 34.8125 45.0156 38.1094
Q44.5781 41.4062 43.4062 43.2656
Q42.1875 45.3125 39.8906 46.3125
Q37.5938 47.3125 33.9375 47.3125
Q30.1719 47.3125 26.0625 45.4531
Q21.9688 43.6094 18.2188 40.7188
L18.2188 0
L9.03125 0
L9.03125 54.5469
L18.2188 54.5469
L18.2188 48.4844
Q22.5156 52.0469 27.0938 54.0469
Q31.6875 56.0625 36.5312 56.0625
Q45.3594 56.0625 50 50.7344
Q54.6406 45.4062 54.6406 35.4062
z
" id="Verdana-6e"/>
      <path d="
M18.8906 63.6719
L8.54688 63.6719
L8.54688 73.1875
L18.8906 73.1875
z

M18.3125 0
L9.125 0
L9.125 54.5469
L18.3125 54.5469
z
" id="Verdana-69"/>
      <path d="
M56.2031 54.5469
L34.125 0
L24.9062 0
L2.98438 54.5469
L12.9375 54.5469
L29.8281 11.1406
L46.5781 54.5469
z
" id="Verdana-76"/>
      <path d="
M37.3594 0.484375
Q34.7656 -0.203125 31.7031 -0.640625
Q28.6562 -1.07812 26.2656 -1.07812
Q17.9219 -1.07812 13.5781 3.40625
Q9.23438 7.90625 9.23438 17.8281
L9.23438 46.8281
L3.03125 46.8281
L3.03125 54.5469
L9.23438 54.5469
L9.23438 70.2188
L18.4062 70.2188
L18.4062 54.5469
L37.3594 54.5469
L37.3594 46.8281
L18.4062 46.8281
L18.4062 21.9688
Q18.4062 17.6719 18.5938 15.25
Q18.7969 12.8438 19.9688 10.75
Q21.0469 8.79688 22.9219 7.89062
Q24.8125 6.98438 28.6562 6.98438
Q30.9062 6.98438 33.3438 7.64062
Q35.7969 8.29688 36.8594 8.73438
L37.3594 8.73438
z
" id="Verdana-74"/>
      <path d="
M54.6875 26.3125
L14.5 26.3125
Q14.5 21.2969 16.0156 17.5469
Q17.5312 13.8125 20.1719 11.4219
Q22.7031 9.07812 26.1875 7.90625
Q29.6875 6.73438 33.8906 6.73438
Q39.4531 6.73438 45.0938 8.95312
Q50.7344 11.1875 53.125 13.3281
L53.6094 13.3281
L53.6094 3.32812
Q48.9688 1.375 44.1406 0.046875
Q39.3125 -1.26562 33.9844 -1.26562
Q20.4062 -1.26562 12.7812 6.07812
Q5.17188 13.4219 5.17188 26.9531
Q5.17188 40.3281 12.4688 48.1875
Q19.7812 56.0625 31.6875 56.0625
Q42.7188 56.0625 48.7031 49.6094
Q54.6875 43.1719 54.6875 31.2969
z

M45.75 33.3438
Q45.7031 40.5781 42.1094 44.5312
Q38.5312 48.4844 31.2031 48.4844
Q23.8281 48.4844 19.4531 44.1406
Q15.0938 39.7969 14.5 33.3438
z
" id="Verdana-65"/>
      <path d="
M26.0312 63.6719
L15.6719 63.6719
L15.6719 73.1875
L26.0312 73.1875
z

M25.4375 -1.3125
Q25.4375 -10.8906 20.5469 -15.7656
Q15.6719 -20.6562 7.46875 -20.6562
Q5.51562 -20.6562 2.3125 -20.2656
Q-0.875 -19.875 -3.03125 -19.2812
L-3.03125 -10.5469
L-2.54688 -10.5469
Q-1.17188 -11.0781 1.14062 -11.7656
Q3.46875 -12.4531 5.67188 -12.4531
Q9.1875 -12.4531 11.3281 -11.4688
Q13.4844 -10.5 14.5469 -8.54688
Q15.625 -6.59375 15.9375 -3.82812
Q16.2656 -1.07812 16.2656 2.875
L16.2656 46.8281
L4.89062 46.8281
L4.89062 54.5469
L25.4375 54.5469
z
" id="Verdana-6a"/>
      <path d="
M55.5156 27.25
Q55.5156 13.9219 48.6719 6.20312
Q41.8438 -1.51562 30.375 -1.51562
Q18.7969 -1.51562 11.9844 6.20312
Q5.17188 13.9219 5.17188 27.25
Q5.17188 40.5781 11.9844 48.3125
Q18.7969 56.0625 30.375 56.0625
Q41.8438 56.0625 48.6719 48.3125
Q55.5156 40.5781 55.5156 27.25
M46.0469 27.25
Q46.0469 37.8438 41.8906 42.9844
Q37.75 48.1406 30.375 48.1406
Q22.9062 48.1406 18.7812 42.9844
Q14.6562 37.8438 14.6562 27.25
Q14.6562 17 18.7969 11.6875
Q22.9531 6.39062 30.375 6.39062
Q37.7031 6.39062 41.875 11.6406
Q46.0469 16.8906 46.0469 27.25" id="Verdana-6f"/>
      <path d="
M49.3594 3.42188
Q44.7812 1.21875 40.6562 0
Q36.5312 -1.21875 31.8906 -1.21875
Q25.9844 -1.21875 21.0469 0.515625
Q16.1094 2.25 12.5938 5.76562
Q9.03125 9.28125 7.07812 14.6406
Q5.125 20.0156 5.125 27.2031
Q5.125 40.5781 12.4688 48.1875
Q19.8281 55.8125 31.8906 55.8125
Q36.5781 55.8125 41.0938 54.4844
Q45.6094 53.1719 49.3594 51.2656
L49.3594 41.0625
L48.875 41.0625
Q44.6719 44.3438 40.2031 46.0938
Q35.75 47.8594 31.5 47.8594
Q23.6875 47.8594 19.1719 42.6094
Q14.6562 37.3594 14.6562 27.2031
Q14.6562 17.3281 19.0625 12.0312
Q23.4844 6.73438 31.5 6.73438
Q34.2812 6.73438 37.1562 7.46875
Q40.0469 8.20312 42.3281 9.375
Q44.3438 10.4062 46.0938 11.5469
Q47.8594 12.7031 48.875 13.5312
L49.3594 13.5312
z
" id="Verdana-63"/>
      <path d="
M48 15.7188
Q48 8.25 41.8125 3.46875
Q35.6406 -1.3125 24.9531 -1.3125
Q18.8906 -1.3125 13.8438 0.125
Q8.79688 1.5625 5.375 3.26562
L5.375 13.5781
L5.85938 13.5781
Q10.2031 10.2969 15.5156 8.375
Q20.8438 6.45312 25.7344 6.45312
Q31.7812 6.45312 35.2031 8.40625
Q38.625 10.3594 38.625 14.5469
Q38.625 17.7812 36.7656 19.4375
Q34.9062 21.0938 29.6406 22.2656
Q27.6875 22.7031 24.5312 23.2812
Q21.3906 23.875 18.7969 24.5625
Q11.625 26.4688 8.60938 30.1562
Q5.60938 33.8438 5.60938 39.2031
Q5.60938 42.5781 7 45.5469
Q8.40625 48.5312 11.2344 50.875
Q13.9688 53.1719 18.1875 54.5156
Q22.4062 55.8594 27.6406 55.8594
Q32.5156 55.8594 37.5156 54.6562
Q42.5312 53.4688 45.8438 51.7656
L45.8438 41.9375
L45.3594 41.9375
Q41.8438 44.5312 36.8125 46.3125
Q31.7812 48.0938 26.9531 48.0938
Q21.9219 48.0938 18.4531 46.1562
Q14.9844 44.2344 14.9844 40.4375
Q14.9844 37.0625 17.0938 35.3594
Q19.1406 33.6406 23.7344 32.5625
Q26.2656 31.9844 29.4062 31.3906
Q32.5625 30.8125 34.6719 30.3281
Q41.0625 28.8594 44.5312 25.2969
Q48 21.6875 48 15.7188" id="Verdana-73"/>
      <path id="Verdana-20"/>
      <path d="
M57.0312 27.6875
Q57.0312 20.8438 55.0938 15.375
Q53.1719 9.90625 49.9062 6.20312
Q46.4375 2.34375 42.2812 0.40625
Q38.1406 -1.51562 33.1562 -1.51562
Q28.5156 -1.51562 25.0469 -0.40625
Q21.5781 0.6875 18.2188 2.54688
L17.625 0
L9.03125 0
L9.03125 75.9844
L18.2188 75.9844
L18.2188 48.8281
Q22.0781 52 26.4219 54.0312
Q30.7656 56.0625 36.1875 56.0625
Q45.8438 56.0625 51.4375 48.6406
Q57.0312 41.2188 57.0312 27.6875
M47.5625 27.4375
Q47.5625 37.2031 44.3281 42.25
Q41.1094 47.3125 33.9375 47.3125
Q29.9375 47.3125 25.8281 45.5781
Q21.7344 43.8438 18.2188 41.1094
L18.2188 9.85938
Q22.125 8.10938 24.9219 7.42188
Q27.7344 6.73438 31.2969 6.73438
Q38.9219 6.73438 43.2344 11.7344
Q47.5625 16.75 47.5625 27.4375" id="Verdana-62"/>
      <path d="
M54.25 0
L45.0625 0
L45.0625 6.0625
Q40.4375 2.39062 36.1875 0.4375
Q31.9375 -1.51562 26.8125 -1.51562
Q18.2188 -1.51562 13.4219 3.73438
Q8.64062 8.98438 8.64062 19.1406
L8.64062 54.5469
L17.8281 54.5469
L17.8281 23.4844
Q17.8281 19.3438 18.2188 16.375
Q18.6094 13.4219 19.875 11.3281
Q21.1875 9.1875 23.2812 8.20312
Q25.3906 7.23438 29.3906 7.23438
Q32.9531 7.23438 37.1719 9.07812
Q41.4062 10.9375 45.0625 13.8125
L45.0625 54.5469
L54.25 54.5469
z
" id="Verdana-75"/>
     </defs>
     <g transform="translate(206.5078125 418.509375)scale(0.12 -0.12)">
      <use xlink:href="#Verdana-4f"/>
      <use x="78.7109375" xlink:href="#Verdana-62"/>
      <use x="141.015625" xlink:href="#Verdana-6a"/>
      <use x="175.439453125" xlink:href="#Verdana-65"/>
      <use x="235.009765625" xlink:href="#Verdana-63"/>
      <use x="287.109375" xlink:href="#Verdana-74"/>
      <use x="326.513671875" xlink:href="#Verdana-69"/>
      <use x="353.955078125" xlink:href="#Verdana-76"/>
      <use x="412.259765625" xlink:href="#Verdana-65"/>
      <use x="471.830078125" xlink:href="#Verdana-20"/>
      <use x="506.986328125" xlink:href="#Verdana-66"/>
      <use x="542.142578125" xlink:href="#Verdana-75"/>
      <use x="605.423828125" xlink:href="#Verdana-6e"/>
      <use x="668.705078125" xlink:href="#Verdana-63"/>
      <use x="720.8046875" xlink:href="#Verdana-74"/>
      <use x="760.208984375" xlink:href="#Verdana-69"/>
      <use x="787.650390625" xlink:href="#Verdana-6f"/>
      <use x="848.34375" xlink:href="#Verdana-6e"/>
      <use x="911.625" xlink:href="#Verdana-20"/>
      <use x="946.78125" xlink:href="#Verdana-65"/>
      <use x="1006.3515625" xlink:href="#Verdana-78"/>
      <use x="1064.40625" xlink:href="#Verdana-65"/>
      <use x="1123.9765625" xlink:href="#Verdana-63"/>
      <use x="1176.076171875" xlink:href="#Verdana-74"/>
      <use x="1215.48046875" xlink:href="#Verdana-75"/>
      <use x="1278.76171875" xlink:href="#Verdana-69"/>
      <use x="1306.203125" xlink:href="#Verdana-6f"/>
      <use x="1366.896484375" xlink:href="#Verdana-6e"/>
      <use x="1430.177734375" xlink:href="#Verdana-73"/>
     </g>
    </g>
   </g>
   <g id="matplotlib.axis_2">
    <g id="ytick_1">
     <g id="line2d_18">
      <defs>
       <path d="
M0 0
L4 0" id="md7965d1ba0" style="stroke:#000000;stroke-width:0.5;"/>
      </defs>
      <g>
       <use style="stroke:#000000;stroke-width:0.5;" x="72.0" xlink:href="#md7965d1ba0" y="388.8"/>
      </g>
     </g>
     <g id="line2d_19">
      <defs>
       <path d="
M0 0
L-4 0" id="md9a1c1a7cd" style="stroke:#000000;stroke-width:0.5;"/>
      </defs>
      <g>
       <use style="stroke:#000000;stroke-width:0.5;" x="518.4" xlink:href="#md9a1c1a7cd" y="388.8"/>
      </g>
     </g>
     <g id="text_8">
      <!-- 0.0 -->
      <defs>
       <path d="
M24.0312 0
L12.3594 0
L12.3594 13.9219
L24.0312 13.9219
z
" id="Verdana-2e"/>
      </defs>
      <g transform="translate(49.97 392.1515625)scale(0.12 -0.12)">
       <use xlink:href="#Verdana-30"/>
       <use x="63.57421875" xlink:href="#Verdana-2e"/>
       <use x="99.951171875" xlink:href="#Verdana-30"/>
      </g>
     </g>
    </g>
    <g id="ytick_2">
     <g id="line2d_20">
      <g>
       <use style="stroke:#000000;stroke-width:0.5;" x="72.0" xlink:href="#md7965d1ba0" y="319.68"/>
      </g>
     </g>
     <g id="line2d_21">
      <g>
       <use style="stroke:#000000;stroke-width:0.5;" x="518.4" xlink:href="#md9a1c1a7cd" y="319.68"/>
      </g>
     </g>
     <g id="text_9">
      <!-- 0.2 -->
      <g transform="translate(49.95875 323.0315625)scale(0.12 -0.12)">
       <use xlink:href="#Verdana-30"/>
       <use x="63.57421875" xlink:href="#Verdana-2e"/>
       <use x="99.951171875" xlink:href="#Verdana-32"/>
      </g>
     </g>
    </g>
    <g id="ytick_3">
     <g id="line2d_22">
      <g>
       <use style="stroke:#000000;stroke-width:0.5;" x="72.0" xlink:href="#md7965d1ba0" y="250.56"/>
      </g>
     </g>
     <g id="line2d_23">
      <g>
       <use style="stroke:#000000;stroke-width:0.5;" x="518.4" xlink:href="#md9a1c1a7cd" y="250.56"/>
      </g>
     </g>
     <g id="text_10">
      <!-- 0.4 -->
      <g transform="translate(49.76 253.9115625)scale(0.12 -0.12)">
       <use xlink:href="#Verdana-30"/>
       <use x="63.57421875" xlink:href="#Verdana-2e"/>
       <use x="99.951171875" xlink:href="#Verdana-34"/>
      </g>
     </g>
    </g>
    <g id="ytick_4">
     <g id="line2d_24">
      <g>
       <use style="stroke:#000000;stroke-width:0.5;" x="72.0" xlink:href="#md7965d1ba0" y="181.44"/>
      </g>
     </g>
     <g id="line2d_25">
      <g>
       <use style="stroke:#000000;stroke-width:0.5;" x="518.4" xlink:href="#md9a1c1a7cd" y="181.44"/>
      </g>
     </g>
     <g id="text_11">
      <!-- 0.6 -->
      <defs>
       <path d="
M58.1562 23.5781
Q58.1562 12.5 50.8594 5.48438
Q43.5625 -1.51562 32.9531 -1.51562
Q27.5938 -1.51562 23.1875 0.140625
Q18.7969 1.8125 15.4375 5.07812
Q11.2344 9.125 8.95312 15.8125
Q6.6875 22.5156 6.6875 31.9375
Q6.6875 41.6094 8.76562 49.0781
Q10.8438 56.5469 15.375 62.3594
Q19.6719 67.875 26.4531 70.9688
Q33.25 74.0781 42.2812 74.0781
Q45.1719 74.0781 47.125 73.8281
Q49.0781 73.5781 51.0781 72.9531
L51.0781 63.625
L50.5938 63.625
Q49.2188 64.3594 46.4531 65.0156
Q43.7031 65.6719 40.8281 65.6719
Q30.3281 65.6719 24.0781 59.1094
Q17.8281 52.5469 16.7969 41.3594
Q20.9062 43.8438 24.875 45.1406
Q28.8594 46.4375 34.0781 46.4375
Q38.7188 46.4375 42.25 45.5781
Q45.7969 44.7344 49.5156 42.1406
Q53.8125 39.1562 55.9844 34.6094
Q58.1562 30.0781 58.1562 23.5781
M48.25 23.1875
Q48.25 27.7344 46.9062 30.7031
Q45.5625 33.6875 42.4844 35.8906
Q40.2344 37.4531 37.5 37.9375
Q34.7656 38.4219 31.7812 38.4219
Q27.6406 38.4219 24.0781 37.4375
Q20.5156 36.4688 16.75 34.4219
Q16.6562 33.3438 16.5938 32.3438
Q16.5469 31.3438 16.5469 29.8281
Q16.5469 22.125 18.1406 17.6562
Q19.7344 13.1875 22.5156 10.5938
Q24.75 8.45312 27.3594 7.45312
Q29.9844 6.45312 33.0625 6.45312
Q40.1406 6.45312 44.1875 10.7656
Q48.25 15.0938 48.25 23.1875" id="Verdana-36"/>
      </defs>
      <g transform="translate(49.829375 184.7915625)scale(0.12 -0.12)">
       <use xlink:href="#Verdana-30"/>
       <use x="63.57421875" xlink:href="#Verdana-2e"/>
       <use x="99.951171875" xlink:href="#Verdana-36"/>
      </g>
     </g>
    </g>
    <g id="ytick_5">
     <g id="line2d_26">
      <g>
       <use style="stroke:#000000;stroke-width:0.5;" x="72.0" xlink:href="#md7965d1ba0" y="112.32"/>
      </g>
     </g>
     <g id="line2d_27">
      <g>
       <use style="stroke:#000000;stroke-width:0.5;" x="518.4" xlink:href="#md9a1c1a7cd" y="112.32"/>
      </g>
     </g>
     <g id="text_12">
      <!-- 0.8 -->
      <defs>
       <path d="
M57.625 20.2656
Q57.625 10.8438 50.2656 4.59375
Q42.9219 -1.65625 31.7812 -1.65625
Q19.9688 -1.65625 12.9531 4.4375
Q5.95312 10.5469 5.95312 20.0625
Q5.95312 26.125 9.46875 31.0312
Q12.9844 35.9375 19.3906 38.8125
L19.3906 39.1094
Q13.5312 42.2344 10.7188 45.9375
Q7.90625 49.6562 7.90625 55.2188
Q7.90625 63.4219 14.6406 68.8906
Q21.3906 74.3594 31.7812 74.3594
Q42.6719 74.3594 49.1719 69.1406
Q55.6719 63.9219 55.6719 55.8594
Q55.6719 50.9219 52.5938 46.1562
Q49.5156 41.4062 43.5625 38.7188
L43.5625 38.4219
Q50.3906 35.5 54 31.2031
Q57.625 26.9062 57.625 20.2656
M46.0469 55.7656
Q46.0469 60.9844 42.0156 64.0781
Q37.9844 67.1875 31.7344 67.1875
Q25.5938 67.1875 21.6562 64.25
Q17.7188 61.3281 17.7188 56.3438
Q17.7188 52.8281 19.7031 50.2656
Q21.6875 47.7031 25.6875 45.7031
Q27.4844 44.8281 30.875 43.4062
Q34.2812 42 37.5 41.0625
Q42.3281 44.2812 44.1875 47.75
Q46.0469 51.2188 46.0469 55.7656
M47.5625 19.3438
Q47.5625 23.8281 45.5781 26.5312
Q43.6094 29.25 37.8438 31.9844
Q35.5469 33.0625 32.8125 33.9844
Q30.0781 34.9062 25.5312 36.5781
Q21.1406 34.1875 18.4844 30.0781
Q15.8281 25.9844 15.8281 20.7969
Q15.8281 14.2031 20.3594 9.90625
Q24.9062 5.60938 31.8906 5.60938
Q39.0156 5.60938 43.2812 9.26562
Q47.5625 12.9375 47.5625 19.3438" id="Verdana-38"/>
      </defs>
      <g transform="translate(49.893125 115.6715625)scale(0.12 -0.12)">
       <use xlink:href="#Verdana-30"/>
       <use x="63.57421875" xlink:href="#Verdana-2e"/>
       <use x="99.951171875" xlink:href="#Verdana-38"/>
      </g>
     </g>
    </g>
    <g id="ytick_6">
     <g id="line2d_28">
      <g>
       <use style="stroke:#000000;stroke-width:0.5;" x="72.0" xlink:href="#md7965d1ba0" y="43.2"/>
      </g>
     </g>
     <g id="line2d_29">
      <g>
       <use style="stroke:#000000;stroke-width:0.5;" x="518.4" xlink:href="#md9a1c1a7cd" y="43.2"/>
      </g>
     </g>
     <g id="text_13">
      <!-- 1.0 -->
      <g transform="translate(50.796875 46.5515625)scale(0.12 -0.12)">
       <use xlink:href="#Verdana-31"/>
       <use x="63.57421875" xlink:href="#Verdana-2e"/>
       <use x="99.951171875" xlink:href="#Verdana-30"/>
      </g>
     </g>
    </g>
    <g id="text_14">
     <!-- Data Profile T-0.1000000 -->
     <defs>
      <path d="
M18.3125 0
L9.125 0
L9.125 75.9844
L18.3125 75.9844
z
" id="Verdana-6c"/>
      <path d="
M57.3281 50.7344
Q57.3281 45.9062 55.6406 41.7656
Q53.9531 37.6406 50.9219 34.625
Q47.1719 30.8594 42.0469 28.9688
Q36.9219 27.0938 29.1094 27.0938
L19.4375 27.0938
L19.4375 0
L9.76562 0
L9.76562 72.7031
L29.5 72.7031
Q36.0312 72.7031 40.5781 71.6094
Q45.125 70.5156 48.6406 68.1719
Q52.7812 65.375 55.0469 61.2188
Q57.3281 57.0781 57.3281 50.7344
M47.2656 50.4844
Q47.2656 54.25 45.9375 57.0312
Q44.625 59.8125 41.9375 61.5781
Q39.5938 63.0938 36.5938 63.75
Q33.5938 64.4062 29 64.4062
L19.4375 64.4062
L19.4375 35.3594
L27.5938 35.3594
Q33.4531 35.3594 37.1094 36.4062
Q40.7656 37.4531 43.0625 39.75
Q45.3594 42.0938 46.3125 44.6719
Q47.2656 47.2656 47.2656 50.4844" id="Verdana-50"/>
      <path d="
M71.1875 36.2812
Q71.1875 26.375 66.8594 18.3125
Q62.5469 10.25 55.375 5.8125
Q50.3906 2.73438 44.2656 1.35938
Q38.1406 0 28.125 0
L9.76562 0
L9.76562 72.7031
L27.9375 72.7031
Q38.5781 72.7031 44.8438 71.1562
Q51.125 69.625 55.4688 66.9375
Q62.8906 62.3125 67.0312 54.5938
Q71.1875 46.875 71.1875 36.2812
M61.0781 36.4219
Q61.0781 44.9688 58.0938 50.8281
Q55.125 56.6875 49.2188 60.0625
Q44.9219 62.5 40.0781 63.4531
Q35.25 64.4062 28.5156 64.4062
L19.4375 64.4062
L19.4375 8.29688
L28.5156 8.29688
Q35.5 8.29688 40.7031 9.32812
Q45.9062 10.3594 50.25 13.1406
Q55.6719 16.6094 58.375 22.2656
Q61.0781 27.9375 61.0781 36.4219" id="Verdana-44"/>
      <path d="
M61.625 64.1094
L35.6406 64.1094
L35.6406 0
L25.9844 0
L25.9844 64.1094
L0 64.1094
L0 72.7031
L61.625 72.7031
z
" id="Verdana-54"/>
      <path d="
M37.9375 27.3906
L7.46875 27.3906
L7.46875 36.2344
L37.9375 36.2344
z
" id="Verdana-2d"/>
      <path d="
M51.4219 0
L42.2812 0
L42.2812 5.8125
Q41.0625 4.98438 38.9844 3.48438
Q36.9219 2 34.9688 1.125
Q32.6719 0 29.6875 -0.75
Q26.7031 -1.51562 22.7031 -1.51562
Q15.3281 -1.51562 10.2031 3.35938
Q5.07812 8.25 5.07812 15.8281
Q5.07812 22.0156 7.73438 25.8438
Q10.4062 29.6875 15.3281 31.8906
Q20.3125 34.0781 27.2969 34.8594
Q34.2812 35.6406 42.2812 36.0312
L42.2812 37.4531
Q42.2812 40.5781 41.1875 42.625
Q40.0938 44.6719 38.0312 45.8438
Q36.0781 46.9688 33.3438 47.3594
Q30.6094 47.75 27.6406 47.75
Q24.0312 47.75 19.5781 46.7969
Q15.1406 45.8438 10.4062 44.0469
L9.90625 44.0469
L9.90625 53.375
Q12.5938 54.1094 17.6719 54.9844
Q22.75 55.8594 27.6875 55.8594
Q33.4531 55.8594 37.7188 54.9062
Q42 53.9531 45.125 51.6562
Q48.1875 49.4219 49.7969 45.8438
Q51.4219 42.2812 51.4219 37.0156
z

M42.2812 13.4219
L42.2812 28.6094
Q38.0938 28.375 32.3906 27.875
Q26.7031 27.3906 23.3906 26.4688
Q19.4375 25.3438 16.9844 22.9688
Q14.5469 20.6094 14.5469 16.4531
Q14.5469 11.7656 17.375 9.39062
Q20.2188 7.03125 26.0312 7.03125
Q30.8594 7.03125 34.8594 8.90625
Q38.875 10.7969 42.2812 13.4219" id="Verdana-61"/>
      <path d="
M43.0625 44.5312
L42.5781 44.5312
Q40.5312 45.0156 38.5938 45.2344
Q36.6719 45.4531 34.0312 45.4531
Q29.7812 45.4531 25.8281 43.5781
Q21.875 41.7031 18.2188 38.7188
L18.2188 0
L9.03125 0
L9.03125 54.5469
L18.2188 54.5469
L18.2188 46.4844
Q23.6875 50.875 27.8594 52.7031
Q32.0312 54.5469 36.375 54.5469
Q38.7656 54.5469 39.8438 54.4219
Q40.9219 54.2969 43.0625 53.9531
z
" id="Verdana-72"/>
     </defs>
     <g transform="translate(42.345 291.493125)rotate(-90.0)scale(0.12 -0.12)">
      <use xlink:href="#Verdana-44"/>
      <use x="77.05078125" xlink:href="#Verdana-61"/>
      <use x="137.109375" xlink:href="#Verdana-74"/>
      <use x="176.513671875" xlink:href="#Verdana-61"/>
      <use x="236.572265625" xlink:href="#Verdana-20"/>
      <use x="271.728515625" xlink:href="#Verdana-50"/>
      <use x="332.03125" xlink:href="#Verdana-72"/>
      <use x="374.70703125" xlink:href="#Verdana-6f"/>
      <use x="435.400390625" xlink:href="#Verdana-66"/>
      <use x="470.556640625" xlink:href="#Verdana-69"/>
      <use x="497.998046875" xlink:href="#Verdana-6c"/>
      <use x="525.439453125" xlink:href="#Verdana-65"/>
      <use x="585.009765625" xlink:href="#Verdana-20"/>
      <use x="620.166015625" xlink:href="#Verdana-54"/>
      <use x="674.412109375" xlink:href="#Verdana-2d"/>
      <use x="719.822265625" xlink:href="#Verdana-30"/>
      <use x="783.396484375" xlink:href="#Verdana-2e"/>
      <use x="819.7734375" xlink:href="#Verdana-31"/>
      <use x="883.34765625" xlink:href="#Verdana-30"/>
      <use x="946.921875" xlink:href="#Verdana-30"/>
      <use x="1010.49609375" xlink:href="#Verdana-30"/>
      <use x="1074.0703125" xlink:href="#Verdana-30"/>
      <use x="1137.64453125" xlink:href="#Verdana-30"/>
      <use x="1201.21875" xlink:href="#Verdana-30"/>
     </g>
    </g>
   </g>
   <g id="patch_3">
    <path d="
M72 43.2
L518.4 43.2" style="fill:none;stroke:#000000;"/>
   </g>
   <g id="patch_4">
    <path d="
M72 388.8
L72 43.2" style="fill:none;stroke:#000000;"/>
   </g>
   <g id="patch_5">
    <path d="
M72 388.8
L518.4 388.8" style="fill:none;stroke:#000000;"/>
   </g>
   <g id="patch_6">
    <path d="
M518.4 388.8
L518.4 43.2" style="fill:none;stroke:#000000;"/>
   </g>
   <g id="text_15">
    <!-- Salomon Data Profile T-0.1000000 -->
    <defs>
     <path d="
M62.5938 20.75
Q62.5938 16.5 60.6094 12.3438
Q58.6406 8.20312 55.0781 5.32812
Q51.1719 2.20312 45.9688 0.4375
Q40.7656 -1.3125 33.4531 -1.3125
Q25.5938 -1.3125 19.3125 0.140625
Q13.0312 1.60938 6.54688 4.5
L6.54688 16.6094
L7.23438 16.6094
Q12.75 12.0156 19.9688 9.51562
Q27.2031 7.03125 33.5469 7.03125
Q42.5312 7.03125 47.5312 10.3906
Q52.5469 13.7656 52.5469 19.3906
Q52.5469 24.2188 50.1719 26.5156
Q47.7969 28.8125 42.9688 30.0781
Q39.3125 31.0625 35.0312 31.6875
Q30.7656 32.3281 25.9844 33.2969
Q16.3125 35.3594 11.6406 40.3125
Q6.98438 45.2656 6.98438 53.2188
Q6.98438 62.3594 14.6875 68.1875
Q22.4062 74.0312 34.2812 74.0312
Q41.9375 74.0312 48.3281 72.5625
Q54.7344 71.0938 59.6719 68.9531
L59.6719 57.5156
L58.9844 57.5156
Q54.8281 61.0312 48.0625 63.3438
Q41.3125 65.6719 34.2344 65.6719
Q26.4688 65.6719 21.75 62.4531
Q17.0469 59.2344 17.0469 54.1562
Q17.0469 49.6094 19.3906 47.0156
Q21.7344 44.4375 27.6406 43.0625
Q30.7656 42.3906 36.5156 41.4062
Q42.2812 40.4375 46.2969 39.4062
Q54.3906 37.25 58.4844 32.9062
Q62.5938 28.5625 62.5938 20.75" id="Verdana-53"/>
     <path d="
M88.625 0
L79.4375 0
L79.4375 31.0625
Q79.4375 34.5781 79.125 37.8438
Q78.8125 41.1094 77.7812 43.0625
Q76.6562 45.1719 74.5625 46.2344
Q72.4688 47.3125 68.5 47.3125
Q64.6562 47.3125 60.7969 45.375
Q56.9375 43.4531 53.0781 40.4844
Q53.2188 39.3594 53.3125 37.8594
Q53.4219 36.375 53.4219 34.9062
L53.4219 0
L44.2344 0
L44.2344 31.0625
Q44.2344 34.6719 43.9219 37.9062
Q43.6094 41.1562 42.5781 43.1094
Q41.4531 45.2188 39.3438 46.2656
Q37.25 47.3125 33.2969 47.3125
Q29.5469 47.3125 25.75 45.4531
Q21.9688 43.6094 18.2188 40.7188
L18.2188 0
L9.03125 0
L9.03125 54.5469
L18.2188 54.5469
L18.2188 48.4844
Q22.5156 52.0469 26.7812 54.0469
Q31.0625 56.0625 35.8906 56.0625
Q41.4531 56.0625 45.3281 53.7188
Q49.2188 51.375 51.125 47.2188
Q56.6875 51.9062 61.2812 53.9844
Q65.875 56.0625 71.0938 56.0625
Q80.0781 56.0625 84.3438 50.6094
Q88.625 45.1719 88.625 35.4062
z
" id="Verdana-6d"/>
    </defs>
    <g transform="translate(170.55675 38.2)scale(0.144 -0.144)">
     <use xlink:href="#Verdana-53"/>
     <use x="68.359375" xlink:href="#Verdana-61"/>
     <use x="128.41796875" xlink:href="#Verdana-6c"/>
     <use x="155.859375" xlink:href="#Verdana-6f"/>
     <use x="216.552734375" xlink:href="#Verdana-6d"/>
     <use x="313.818359375" xlink:href="#Verdana-6f"/>
     <use x="374.51171875" xlink:href="#Verdana-6e"/>
     <use x="437.79296875" xlink:href="#Verdana-20"/>
     <use x="472.94921875" xlink:href="#Verdana-44"/>
     <use x="550.0" xlink:href="#Verdana-61"/>
     <use x="610.05859375" xlink:href="#Verdana-74"/>
     <use x="649.462890625" xlink:href="#Verdana-61"/>
     <use x="709.521484375" xlink:href="#Verdana-20"/>
     <use x="744.677734375" xlink:href="#Verdana-50"/>
     <use x="804.98046875" xlink:href="#Verdana-72"/>
     <use x="847.65625" xlink:href="#Verdana-6f"/>
     <use x="908.349609375" xlink:href="#Verdana-66"/>
     <use x="943.505859375" xlink:href="#Verdana-69"/>
     <use x="970.947265625" xlink:href="#Verdana-6c"/>
     <use x="998.388671875" xlink:href="#Verdana-65"/>
     <use x="1057.958984375" xlink:href="#Verdana-20"/>
     <use x="1093.115234375" xlink:href="#Verdana-54"/>
     <use x="1147.361328125" xlink:href="#Verdana-2d"/>
     <use x="1192.771484375" xlink:href="#Verdana-30"/>
     <use x="1256.345703125" xlink:href="#Verdana-2e"/>
     <use x="1292.72265625" xlink:href="#Verdana-31"/>
     <use x="1356.296875" xlink:href="#Verdana-30"/>
     <use x="1419.87109375" xlink:href="#Verdana-30"/>
     <use x="1483.4453125" xlink:href="#Verdana-30"/>
     <use x="1547.01953125" xlink:href="#Verdana-30"/>
     <use x="1610.59375" xlink:href="#Verdana-30"/>
     <use x="1674.16796875" xlink:href="#Verdana-30"/>
    </g>
   </g>
   <g id="legend_1">
    <g id="patch_7">
     <path d="
M407.18 270.759
L511.2 270.759
L511.2 161.241
L407.18 161.241
L407.18 270.759
z
" style="fill:#ffffff;stroke:#000000;"/>
    </g>
    <g id="line2d_30">
     <path d="
M417.26 172.902
L437.42 172.902" style="fill:none;stroke:#0000ff;stroke-dasharray:6.000000,2.000000;stroke-dashoffset:0.0;"/>
    </g>
    <g id="line2d_31"/>
    <g id="text_16">
     <!-- AMPGO -->
     <defs>
      <path d="
M74.5156 0
L64.8438 0
L64.8438 62.6406
L44.625 20.0156
L38.875 20.0156
L18.7969 62.6406
L18.7969 0
L9.76562 0
L9.76562 72.7031
L22.9531 72.7031
L42.3281 32.2344
L61.0781 72.7031
L74.5156 72.7031
z
" id="Verdana-4d"/>
      <path d="
M70.4062 5.375
Q64.4531 2.64062 57.3906 0.609375
Q50.3438 -1.42188 43.75 -1.42188
Q35.25 -1.42188 28.1719 0.921875
Q21.0938 3.26562 16.1094 7.95312
Q11.0781 12.7031 8.34375 19.7969
Q5.60938 26.9062 5.60938 36.4219
Q5.60938 53.8594 15.7969 63.9375
Q25.9844 74.0312 43.75 74.0312
Q49.9531 74.0312 56.4219 72.5312
Q62.8906 71.0469 70.3594 67.4844
L70.3594 56
L69.4844 56
Q67.9688 57.1719 65.0781 59.0781
Q62.2031 60.9844 59.4219 62.25
Q56.0625 63.7656 51.7812 64.7656
Q47.5156 65.7656 42.0938 65.7656
Q29.8906 65.7656 22.7812 57.9219
Q15.6719 50.0938 15.6719 36.7188
Q15.6719 22.6094 23.0938 14.7656
Q30.5156 6.9375 43.3125 6.9375
Q48 6.9375 52.6562 7.85938
Q57.3281 8.79688 60.8438 10.25
L60.8438 28.0781
L41.3594 28.0781
L41.3594 36.5781
L70.4062 36.5781
z
" id="Verdana-47"/>
      <path d="
M67.0938 0
L56.7812 0
L49.6562 20.2656
L18.2188 20.2656
L11.0781 0
L1.26562 0
L27.7344 72.7031
L40.625 72.7031
z

M46.6875 28.5625
L33.9375 64.2656
L21.1406 28.5625
z
" id="Verdana-41"/>
     </defs>
     <g transform="translate(453.26025 177.942375)scale(0.144 -0.144)">
      <use xlink:href="#Verdana-41"/>
      <use x="68.359375" xlink:href="#Verdana-4d"/>
      <use x="152.63671875" xlink:href="#Verdana-50"/>
      <use x="212.939453125" xlink:href="#Verdana-47"/>
      <use x="290.478515625" xlink:href="#Verdana-4f"/>
     </g>
    </g>
    <g id="line2d_32">
     <path d="
M417.26 193.942
L437.42 193.942" style="fill:none;stroke:#008000;stroke-dasharray:1.000000,1.000000;stroke-dashoffset:0.0;"/>
    </g>
    <g id="line2d_33"/>
    <g id="text_17">
     <!-- Anneal -->
     <g transform="translate(453.26025 198.982125)scale(0.144 -0.144)">
      <use xlink:href="#Verdana-41"/>
      <use x="68.359375" xlink:href="#Verdana-6e"/>
      <use x="131.640625" xlink:href="#Verdana-6e"/>
      <use x="194.921875" xlink:href="#Verdana-65"/>
      <use x="254.4921875" xlink:href="#Verdana-61"/>
      <use x="314.55078125" xlink:href="#Verdana-6c"/>
     </g>
    </g>
    <g id="line2d_34">
     <path d="
M417.26 214.982
L437.42 214.982" style="fill:none;stroke:#ff0000;stroke-dasharray:3.000000,6.000000;stroke-dashoffset:0.0;"/>
    </g>
    <g id="line2d_35"/>
    <g id="text_18">
     <!-- BSA -->
     <defs>
      <path d="
M64.5938 22.3594
Q64.5938 16.9375 62.5469 12.7812
Q60.5 8.64062 57.0312 5.95312
Q52.9375 2.73438 48.0156 1.35938
Q43.1094 0 35.5469 0
L9.76562 0
L9.76562 72.7031
L31.2969 72.7031
Q39.2656 72.7031 43.2188 72.1094
Q47.1719 71.5312 50.7812 69.6719
Q54.7812 67.5781 56.5938 64.2812
Q58.4062 60.9844 58.4062 56.3906
Q58.4062 51.2188 55.7656 47.5781
Q53.125 43.9531 48.7344 41.75
L48.7344 41.3594
Q56.1094 39.8438 60.3438 34.8906
Q64.5938 29.9375 64.5938 22.3594
M48.3438 55.125
Q48.3438 57.7656 47.4531 59.5625
Q46.5781 61.375 44.625 62.5
Q42.3281 63.8125 39.0625 64.125
Q35.7969 64.4531 30.9531 64.4531
L19.4375 64.4531
L19.4375 43.4531
L31.9375 43.4531
Q36.4688 43.4531 39.1562 43.9219
Q41.8438 44.3906 44.1406 45.8438
Q46.4375 47.3125 47.3906 49.625
Q48.3438 51.9531 48.3438 55.125
M54.5469 21.9688
Q54.5469 26.375 53.2188 28.9531
Q51.9062 31.5469 48.4375 33.3438
Q46.0938 34.5781 42.75 34.9375
Q39.4062 35.2969 34.625 35.2969
L19.4375 35.2969
L19.4375 8.25
L32.2344 8.25
Q38.5781 8.25 42.625 8.90625
Q46.6875 9.57812 49.2656 11.3281
Q52 13.2344 53.2656 15.6719
Q54.5469 18.1094 54.5469 21.9688" id="Verdana-42"/>
     </defs>
     <g transform="translate(453.26025 220.021875)scale(0.144 -0.144)">
      <use xlink:href="#Verdana-42"/>
      <use x="68.5546875" xlink:href="#Verdana-53"/>
      <use x="135.9140625" xlink:href="#Verdana-41"/>
     </g>
    </g>
    <g id="line2d_36">
     <path d="
M417.26 236.022
L437.42 236.022" style="fill:none;stroke:#00bfbf;stroke-dasharray:5.000000,1.000000,2.000000,1.000000,5.000000,1.000000;stroke-dashoffset:0.0;"/>
    </g>
    <g id="line2d_37"/>
    <g id="text_19">
     <!-- Cuckoo -->
     <defs>
      <path d="
M65.9219 5.28125
Q63.2344 4.10938 61.0625 3.07812
Q58.8906 2.04688 55.375 0.921875
Q52.3906 0 48.8906 -0.65625
Q45.4062 -1.3125 41.2188 -1.3125
Q33.2969 -1.3125 26.8281 0.90625
Q20.3594 3.125 15.5781 7.85938
Q10.8906 12.5 8.25 19.6562
Q5.60938 26.8125 5.60938 36.2812
Q5.60938 45.2656 8.14062 52.3438
Q10.6875 59.4219 15.4844 64.3125
Q20.125 69.0469 26.6875 71.5312
Q33.25 74.0312 41.2656 74.0312
Q47.125 74.0312 52.9531 72.6094
Q58.7969 71.1875 65.9219 67.625
L65.9219 56.1562
L65.1875 56.1562
Q59.1875 61.1875 53.2656 63.4688
Q47.3594 65.7656 40.625 65.7656
Q35.1094 65.7656 30.6875 63.9844
Q26.2656 62.2031 22.7969 58.4531
Q19.4375 54.7812 17.5469 49.1875
Q15.6719 43.6094 15.6719 36.2812
Q15.6719 28.6094 17.75 23.0938
Q19.8281 17.5781 23.0938 14.1094
Q26.5156 10.5 31.0781 8.76562
Q35.6406 7.03125 40.7188 7.03125
Q47.7031 7.03125 53.7969 9.42188
Q59.9062 11.8125 65.2344 16.6094
L65.9219 16.6094
z
" id="Verdana-43"/>
      <path d="
M58.5469 0
L46.4375 0
L24.5625 23.875
L18.6094 18.2188
L18.6094 0
L9.42188 0
L9.42188 75.9844
L18.6094 75.9844
L18.6094 27.25
L45.125 54.5469
L56.6875 54.5469
L31.3438 29.3438
z
" id="Verdana-6b"/>
     </defs>
     <g transform="translate(453.26025 241.061625)scale(0.144 -0.144)">
      <use xlink:href="#Verdana-43"/>
      <use x="69.82421875" xlink:href="#Verdana-75"/>
      <use x="133.10546875" xlink:href="#Verdana-63"/>
      <use x="185.205078125" xlink:href="#Verdana-6b"/>
      <use x="243.384765625" xlink:href="#Verdana-6f"/>
      <use x="304.078125" xlink:href="#Verdana-6f"/>
     </g>
    </g>
    <g id="line2d_38">
     <path d="
M417.26 257.061
L437.42 257.061" style="fill:none;stroke:#bf00bf;stroke-linecap:square;"/>
    </g>
    <g id="line2d_39"/>
    <g id="text_20">
     <!-- qABC -->
     <defs>
      <path d="
M53.2656 -20.125
L44.0938 -20.125
L44.0938 6.15625
Q39.8438 2.48438 35.6406 0.703125
Q31.4531 -1.07812 26.5625 -1.07812
Q16.8438 -1.07812 11.0625 6.42188
Q5.28125 13.9219 5.28125 27.0938
Q5.28125 34.125 7.29688 39.5156
Q9.32812 44.9219 12.6406 48.5781
Q15.875 52.1562 20.2188 54.1094
Q24.5625 56.0625 29.3906 56.0625
Q33.7969 56.0625 37.1875 55.0781
Q40.5781 54.1094 44.0938 52.2031
L44.6719 54.5469
L53.2656 54.5469
z

M44.0938 13.875
L44.0938 44.7344
Q40.2812 46.4375 37.3438 47.1094
Q34.4219 47.7969 31 47.7969
Q23.0469 47.7969 18.8906 42.4062
Q14.75 37.0156 14.75 27.5469
Q14.75 17.9688 18.0938 12.8125
Q21.4375 7.67188 28.6094 7.67188
Q32.625 7.67188 36.625 9.40625
Q40.625 11.1406 44.0938 13.875" id="Verdana-71"/>
     </defs>
     <g transform="translate(453.26025 262.101375)scale(0.144 -0.144)">
      <use xlink:href="#Verdana-71"/>
      <use x="62.3046875" xlink:href="#Verdana-41"/>
      <use x="130.6640625" xlink:href="#Verdana-42"/>
      <use x="199.21875" xlink:href="#Verdana-43"/>
     </g>
    </g>
   </g>
  </g>
 </g>
 <defs>
  <clipPath id="p7ff5b81e1d">
   <rect height="345.6" width="446.4" x="72.0" y="43.2"/>
  </clipPath>
 </defs>
</svg>
