<?xml version="1.0" encoding="utf-8" standalone="no"?>
<!DOCTYPE svg PUBLIC "-//W3C//DTD SVG 1.1//EN"
  "http://www.w3.org/Graphics/SVG/1.1/DTD/svg11.dtd">
<!-- Created with matplotlib (http://matplotlib.org/) -->
<svg height="432pt" version="1.1" viewBox="0 0 576 432" width="576pt" xmlns="http://www.w3.org/2000/svg" xmlns:xlink="http://www.w3.org/1999/xlink">
 <defs>
  <style type="text/css">
*{stroke-linecap:butt;stroke-linejoin:round;}
  </style>
 </defs>
 <g id="figure_1">
  <g id="patch_1">
   <path d="
M0 432
L576 432
L576 0
L0 0
z
" style="fill:#ffffff;"/>
  </g>
  <g id="axes_1">
   <g id="patch_2">
    <path d="
M72 388.8
L518.4 388.8
L518.4 43.2
L72 43.2
z
" style="fill:#ffffff;"/>
   </g>
   <g id="line2d_1">
    <path clip-path="url(#p7ff5b81e1d)" d="
M72 303.51
L72.0893 337.845
L72.1786 353.608
L72.4464 371.768
L72.8035 379.78
L72.8928 380.775
L72.9821 369.311
L73.0714 370.086
L73.5178 372.6
L73.7856 373.636
L73.8749 349.808
L73.9642 351.1
L74.6784 359.038
L74.7677 309.778
L74.857 311.694
L75.5712 326.94
L75.6605 271.475
L75.7498 274.547
L76.464 296.447
L76.5533 237.664
L76.6426 240.772
L77.3568 260.216
L77.4461 207.921
L77.5354 209.948
L78.2496 224.921
L78.3389 187.722
L78.4282 189.915
L78.6067 190.976
L79.1424 201.228
L79.2317 171.894
L79.321 173.39
L79.4995 172.94
L79.9459 180.633
L80.0352 182.202
L80.1245 160.068
L80.2138 161.49
L80.3923 158.436
L80.7494 163.528
L80.928 165.668
L81.0173 146.939
L81.1066 148.222
L81.2851 143.613
L81.3744 144.562
L81.8208 148.217
L81.9101 132.74
L81.9994 133.86
L82.1779 128.777
L82.7136 132.836
L82.8029 119.767
L82.8922 120.515
L83.0707 114.396
L83.6064 118.667
L83.6957 107.681
L83.785 108.331
L83.9635 102.059
L84.4099 105.124
L84.4992 105.359
L84.5885 98.0811
L84.6778 98.5351
L84.8563 92.8021
L85.2134 93.8685
L85.3027 93.9821
L85.392 94.3426
L85.4813 88.5468
L85.5706 88.9614
L85.7491 82.0667
L85.8384 82.322
L86.2848 83.9741
L86.3741 80.5216
L86.4634 81.0566
L86.6419 77.5125
L87.1776 80.3688
L87.2669 78.0579
L87.3562 78.448
L87.5347 76.4632
L88.0704 78.5929
L88.3382 75.8284
L88.4275 74.6813
L88.5168 74.7897
L88.7846 75.3037
L88.8739 75.4106
L88.9632 75.7325
L89.0525 74.8779
L89.1418 74.9459
L89.3203 74.3429
L89.5882 74.8574
L89.7667 75.0114
L89.856 75.5442
L89.9453 75.3753
L90.0346 75.7069
L90.2131 75.3706
L90.8381 78.4131
L90.9274 78.7267
L91.0166 78.4443
L91.2845 79.2461
L91.5523 80.3581
L91.6416 80.4534
L91.7309 80.3756
L91.8202 80.5335
L92.088 80.3311
L92.4451 80.4135
L92.713 80.8098
L92.8915 80.721
L93.0701 81.0285
L93.2486 81.139
L93.3379 81.3226
L93.6058 83.0652
L93.8736 83.7926
L94.1414 85.2615
L94.4986 86.2533
L95.2128 88.2804
L95.3021 88.363
L95.3914 88.2416
L95.5699 88.4929
L95.6592 88.3092
L96.1949 88.7071
L96.6413 88.7927
L96.9091 88.835
L97.4448 90.5918
L98.8733 93.8539
L99.0518 93.8242
L99.2304 94.0414
L99.409 94.0119
L99.6768 94.2607
L100.391 94.3697
L100.57 94.5737
L100.837 95.3451
L101.016 95.4708
L101.552 96.5463
L102.177 97.2858
L102.444 97.5369
L102.98 97.0452
L103.605 97.3206
L103.784 97.2
L104.052 97.2656
L104.319 97.6494
L104.409 97.5387
L104.587 97.7537
L104.676 97.5795
L106.105 98.9233
L107.712 99.4839
L109.051 100.418
L109.14 100.326
L109.408 100.481
L110.033 100.613
L110.748 100.751
L110.926 100.622
L111.283 100.718
L111.819 100.97
L112.801 101.399
L113.158 101.489
L114.854 101.572
L115.836 101.902
L116.104 101.954
L116.908 102.075
L117.086 102.068
L117.176 102.085
L117.354 101.919
L117.979 101.936
L118.158 101.797
L118.872 101.882
L118.961 101.89
L119.14 101.739
L122.532 102.086
L122.711 101.92
L124.05 102.025
L124.229 101.816
L124.318 101.816
L124.497 101.643
L126.639 101.774
L127.889 101.809
L128.068 101.637
L128.604 101.572
L128.782 101.202
L138.156 101.409
L138.514 101.39
L138.692 101.188
L141.103 101.206
L141.281 101.004
L146.817 101.031
L146.995 100.823
L151.281 100.839
L151.459 100.627
L161.012 100.659
L161.191 100.441
L161.905 100.433
L162.084 100.215
L164.673 100.215
L164.851 99.9957
L169.226 99.9979
L169.404 99.7765
L191.814 99.7953
L191.992 99.5693
L215.652 99.574
L215.83 99.346
L218.33 99.3448
L218.508 99.1168
L221.723 99.1165
L221.901 98.8879
L236.543 98.8885
L236.722 98.6598
L237.972 98.6595
L238.15 98.4307
L242.793 98.4306
L242.971 98.2017
L246.453 98.2014
L246.632 97.9725
L258.863 97.9729
L259.042 97.7438
L267.702 97.7439
L267.88 97.5148
L272.076 97.5148
L272.255 97.2857
L273.773 97.2856
L273.951 97.0565
L283.951 97.0565
L284.129 96.8273
L285.379 96.8273
L285.558 96.5982
L286.629 96.5981
L286.808 96.369
L295.736 96.369
L295.914 96.1398
L296.45 96.1398
L296.628 95.9106
L296.807 95.9106
L296.986 95.6814
L297.253 95.6814
L297.432 95.4523
L300.021 95.4524
L300.2 95.2233
L301.807 95.2232
L301.985 94.9941
L308.235 94.9941
L308.413 94.765
L312.699 94.765
L312.877 94.5358
L316.27 94.5358
L316.449 93.8483
L317.074 93.8483
L317.341 93.3899
L317.877 93.3899
L318.056 93.1607
L318.234 93.1607
L318.413 92.9316
L327.698 92.9316
L327.876 92.7024
L329.037 92.7024
L329.216 92.4732
L329.573 92.4732
L329.751 92.244
L334.126 92.244
L334.305 92.0149
L337.965 92.0149
L338.144 91.7857
L339.751 91.7857
L339.929 91.5565
L340.465 91.5565
L340.733 91.0981
L346 91.0981
L346.179 90.869
L346.982 90.869
L347.161 90.6398
L350.286 90.6398
L350.464 90.4106
L350.732 90.4106
L350.911 90.1814
L351.446 90.1814
L351.625 89.9523
L353.143 89.9523
L353.411 89.4939
L353.589 89.4939
L353.768 89.2647
L355.196 89.2647
L355.375 89.0355
L357.607 89.0355
L357.964 88.348
L359.124 88.348
L359.303 88.1188
L363.142 88.1188
L363.321 87.8897
L363.856 87.8897
L364.124 87.4313
L367.695 87.4313
L367.874 87.2021
L368.41 87.2021
L368.588 86.9729
L370.642 86.9729
L370.82 86.7438
L370.909 86.7438
L371.267 86.0562
L372.249 86.0562
L372.427 85.8271
L373.32 85.8271
L373.499 85.5979
L373.677 85.5979
L374.034 84.9103
L376.445 84.9103
L376.623 84.6812
L378.052 84.6812
L378.23 84.452
L381.266 84.452
L381.444 84.2228
L382.694 84.2228
L382.873 83.9936
L383.498 83.9936
L383.676 83.5353
L383.855 83.3061
L384.569 83.3061
L384.748 83.0769
L385.284 83.0769
L385.462 82.8477
L387.694 82.8477
L387.873 82.6186
L388.855 82.6186
L389.033 82.3894
L389.748 82.3894
L389.926 82.1602
L392.694 82.1602
L392.872 81.931
L393.319 81.931
L393.676 81.2435
L394.301 81.2435
L394.569 80.3268
L395.194 80.3268
L395.461 79.8684
L396.801 79.8684
L397.068 79.4101
L397.872 79.4101
L398.318 78.4934
L399.747 78.4934
L399.925 78.2642
L404.211 78.2642
L404.479 77.3475
L406.354 77.3475
L406.532 77.1183
L406.889 77.1183
L407.068 76.8891
L407.782 76.8891
L408.139 76.2016
L408.675 76.2016
L408.853 75.9724
L410.639 75.9724
L410.818 75.7432
L412.246 75.7432
L412.603 75.0557
L413.853 75.0557
L414.121 74.5973
L415.282 74.5973
L415.46 74.3682
L416.532 74.3682
L416.71 74.139
L419.21 74.139
L419.388 73.9098
L419.656 73.9098
L419.835 73.6806
L421.531 73.6806
L421.71 73.4515
L421.799 73.4515
L421.978 73.2223
L422.156 73.2223
L422.335 72.9931
L424.12 72.9931
L424.299 72.7639
L425.817 72.7639
L425.995 72.5347
L426.531 72.5347
L426.709 72.3056
L427.513 72.3056
L427.692 72.0764
L427.87 72.0764
L428.049 71.8472
L430.638 71.8472
L430.816 71.618
L430.906 71.618
L431.084 71.3889
L432.691 71.3889
L432.87 71.1597
L432.959 71.1597
L433.138 70.9305
L434.745 70.9305
L435.012 70.4721
L436.441 70.4721
L436.62 70.243
L441.976 70.243
L442.155 70.0138
L443.762 70.0138
L443.94 69.7846
L444.476 69.7846
L444.655 69.5554
L444.833 69.5554
L445.012 69.3263
L445.637 69.3263
L445.815 69.0971
L446.351 69.0971
L446.53 68.8679
L447.869 68.8679
L448.047 68.4095
L451.172 68.4095
L451.351 68.1804
L452.154 68.1804
L452.333 67.9512
L454.208 67.9512
L454.386 67.722
L456.44 67.722
L456.618 67.4928
L457.511 67.4928
L457.69 67.2637
L458.225 67.2637
L458.404 67.0345
L459.029 67.0345
L459.207 66.8053
L459.297 66.8053
L459.475 66.5761
L460.1 66.5761
L460.279 66.3469
L460.904 66.3469
L461.172 65.8886
L461.886 65.8886
L462.064 65.6594
L463.314 65.6594
L463.493 65.4302
L463.761 65.4302
L463.939 65.2011
L465.011 65.2011
L465.189 64.9719
L465.814 64.9719
L465.993 64.7427
L468.85 64.7427
L469.028 64.5135
L470.189 64.5135
L470.367 64.2844
L470.903 64.2844
L471.082 64.0552
L471.707 64.0552
L471.885 63.826
L475.188 63.826
L475.367 63.5968
L475.992 63.5968
L476.171 63.3676
L476.885 63.3676
L477.063 63.1385
L478.224 63.1385
L478.403 62.9093
L479.474 62.9093
L479.742 62.4509
L479.831 62.4509
L480.099 61.5342
L480.902 61.5342
L481.081 61.305
L481.349 61.305
L481.527 61.0759
L482.242 61.0759
L482.509 60.6175
L482.867 60.6175
L483.134 60.1592
L483.224 60.1592
L483.402 59.93
L483.938 59.93
L484.116 59.7008
L484.206 59.7008
L484.474 59.2424
L485.813 59.2424
L485.991 59.0133
L486.348 59.0133
L486.527 58.7841
L487.956 58.7841
L488.134 58.5549
L488.58 58.5549
L488.759 58.3257
L489.563 58.3257
L489.741 58.0966
L490.366 58.0966
L490.545 57.8674
L490.634 57.8674
L490.812 57.6382
L492.062 57.6382
L492.33 57.1798
L492.509 57.1798
L492.777 56.7215
L492.955 56.7215
L493.134 56.4923
L494.027 56.4923
L494.294 56.034
L495.276 56.034
L495.455 55.8048
L496.169 55.8048
L496.348 55.5756
L497.687 55.5756
L497.866 55.3464
L500.187 55.3464
L500.455 54.8881
L503.758 54.8881
L503.937 54.6589
L504.562 54.6589
L504.74 54.4297
L507.24 54.4297
L507.419 54.2005
L508.222 54.2005
L508.49 53.7422
L508.668 53.7422
L508.847 53.513
L509.115 53.513
L509.293 52.8255
L510.722 52.8255
L510.9 52.5963
L511.347 52.5963
L511.525 52.3671
L512.329 52.3671
L512.508 51.9088
L513.132 51.9088
L513.311 51.6796
L513.668 51.6796
L513.847 51.4504
L514.115 51.4504
L514.293 51.2212
L515.543 51.2212
L515.722 50.992
L516.704 50.992
L516.882 50.7629
L518.311 50.7629
L518.311 50.7629" style="fill:none;stroke:#0000ff;stroke-dasharray:6.000000,2.000000;stroke-dashoffset:0.0;"/>
   </g>
   <g id="line2d_2">
    <path clip-path="url(#p7ff5b81e1d)" d="
M72 301.134
L72.0893 311.957
L72.1786 313.681
L72.5357 286.59
L73.0714 239.5
L73.7856 174.42
L73.8749 174.454
L74.4998 123.997
L74.6784 111.959
L74.7677 132.301
L75.5712 92.3578
L75.6605 125.839
L75.7498 123.166
L76.464 99.9733
L76.5533 142.646
L76.6426 139.628
L77.089 126.983
L77.3568 121.254
L77.4461 162.13
L77.5354 160.258
L78.2496 141.808
L78.3389 175.32
L78.4282 173.196
L79.1424 159.666
L79.2317 189.435
L79.321 188.476
L79.7674 182.454
L80.0352 178.921
L80.1245 203.852
L80.2138 202.972
L80.928 195.515
L81.0173 218.943
L81.1066 217.953
L81.8208 212.552
L81.9101 232.626
L81.9994 231.732
L82.7136 226.991
L82.8029 246.335
L82.8922 246.161
L83.0707 245.918
L83.4278 245.416
L83.6064 244.812
L83.6957 262.31
L83.785 262.039
L84.0528 261.437
L84.2314 261.27
L84.4099 261.155
L84.4992 260.921
L84.5885 273.587
L84.6778 273.256
L85.392 271.785
L85.4813 284.228
L85.5706 284.084
L85.9277 283.569
L86.1062 283.404
L86.1955 283.285
L86.2848 283.379
L86.3741 291.653
L86.4634 291.649
L86.5526 291.703
L86.7312 291.672
L87.1776 291.72
L87.2669 297.173
L87.3562 297.121
L87.5347 297.088
L88.0704 297.068
L88.1597 301.113
L88.249 301.083
L88.9632 300.855
L89.0525 302.352
L89.1418 302.3
L89.5882 302.175
L89.7667 302.116
L89.856 302.204
L90.0346 304.031
L90.2131 304.006
L90.6595 304.194
L90.7488 304.173
L90.9274 304.903
L91.6416 304.893
L91.7309 305.522
L91.8202 305.447
L93.4272 305.275
L93.6058 305.492
L93.8736 305.575
L94.4986 306.054
L95.2128 306.373
L95.3021 306.4
L95.4806 306.618
L96.1949 306.581
L96.3734 306.666
L96.9091 306.597
L96.9984 306.687
L97.4448 307.891
L98.784 309.337
L98.9626 309.329
L99.1411 309.493
L100.48 309.602
L101.641 312.24
L101.73 312.343
L102.177 313.483
L102.712 314.001
L103.337 313.981
L103.516 314.104
L104.141 314.456
L104.319 314.935
L104.587 315.849
L105.034 317.059
L105.48 318.177
L105.926 319.101
L106.819 319.167
L107.623 319.428
L107.98 320.628
L109.408 324.781
L110.301 324.888
L111.105 325.086
L111.283 325.537
L111.64 327.213
L111.819 327.799
L112.444 329.717
L113.069 331.52
L113.694 331.619
L113.872 331.772
L114.408 331.877
L114.765 331.951
L116.104 337.279
L116.64 338.619
L117.176 338.8
L117.444 339.004
L118.068 339.1
L118.336 339.151
L118.783 340.875
L119.318 342.661
L120.122 344.73
L120.568 344.914
L120.925 345.172
L121.729 345.419
L121.908 345.465
L122.532 347.607
L122.8 348.316
L122.979 349.071
L123.782 350.94
L125.479 351.263
L126.193 353.295
L127.264 355.815
L127.532 355.897
L127.8 356.03
L128.157 356.138
L129.05 356.451
L129.496 357.721
L129.675 358.065
L130.389 359.722
L131.103 360.572
L131.193 360.583
L131.371 360.738
L131.818 360.845
L132.175 360.952
L132.353 361.094
L132.621 361.117
L133.96 363.944
L134.228 364.28
L134.496 364.721
L136.282 365.231
L136.817 366.107
L137.264 366.722
L138.067 367.604
L138.692 367.693
L139.049 367.825
L139.764 367.911
L141.371 370.423
L141.996 370.7
L142.353 370.799
L142.799 370.898
L143.424 371.069
L143.87 371.793
L144.406 372.314
L145.299 372.925
L146.192 373.105
L146.817 373.246
L146.906 373.254
L147.442 373.855
L147.799 374.133
L148.156 374.572
L148.334 374.676
L148.781 375.044
L149.941 375.116
L150.299 375.273
L150.566 375.347
L150.834 375.563
L152.441 376.829
L153.066 376.906
L153.513 376.977
L153.78 377.061
L154.138 377.182
L154.405 377.316
L155.12 377.817
L155.388 378.012
L156.102 378.325
L156.995 378.472
L157.352 378.575
L157.709 378.655
L158.334 379.018
L158.78 379.198
L159.048 379.386
L160.566 379.637
L160.834 379.69
L161.012 379.776
L161.369 379.872
L161.816 380.206
L163.869 381.104
L164.851 381.193
L165.744 381.629
L166.101 381.823
L167.083 382.091
L168.155 382.195
L170.208 382.977
L174.672 383.77
L175.654 383.847
L176.19 384.003
L179.493 384.562
L179.85 384.674
L183.064 385.167
L183.511 385.317
L186.636 385.69
L188.421 385.969
L190.207 386.074
L200.831 387.028
L201.724 387.143
L202.26 387.189
L204.849 387.325
L205.92 387.392
L208.42 387.503
L212.795 387.794
L213.955 387.833
L216.901 387.94
L218.508 387.988
L226.008 388.249
L227.883 388.303
L232.615 388.405
L233.24 388.425
L240.471 388.53
L242.257 388.563
L251.899 388.669
L253.774 388.696
L518.311 388.8
L518.311 388.8" style="fill:none;stroke:#008000;stroke-dasharray:1.000000,1.000000;stroke-dashoffset:0.0;"/>
   </g>
   <g id="line2d_3">
    <path clip-path="url(#p7ff5b81e1d)" d="
M72 298.978
L72.0893 285.852
L72.1786 278.754
L72.2678 280.754
L72.4464 277.164
L73.4285 311.474
L73.5178 311.577
L73.7856 318.363
L73.9642 326.629
L74.232 329.055
L74.6784 334.615
L74.857 347.007
L75.2141 349.907
L75.3034 349.532
L75.5712 352.742
L75.7498 364.699
L75.839 365.635
L75.9283 365.498
L76.0176 365.494
L76.464 368.796
L76.6426 375.844
L76.7318 375.058
L76.9997 376.409
L77.089 376.26
L77.1782 376.61
L77.2675 376.413
L77.3568 375.842
L77.4461 379.843
L77.5354 379.413
L77.9818 379.893
L78.2496 379.89
L78.3389 382.372
L78.4282 382.137
L78.6067 381.567
L79.1424 381.478
L79.321 383.385
L79.4102 383.119
L79.4995 383.182
L79.6781 383.215
L79.7674 383.295
L79.9459 382.964
L80.0352 383.063
L80.2138 384.145
L80.8387 384.438
L80.928 384.442
L81.1958 383.786
L81.3744 383.029
L81.4637 383.062
L81.6422 383.101
L81.8208 382.897
L81.9101 383.412
L82.0886 383.248
L82.3565 383.294
L82.535 383.117
L82.7136 383.155
L82.8029 383.747
L82.8922 383.629
L83.3386 383.079
L83.6064 383.184
L83.785 383.661
L84.0528 383.489
L84.1421 383.51
L84.4992 383.066
L84.5885 383.25
L85.2134 382.709
L85.3027 382.716
L85.392 382.58
L85.4813 382.743
L85.6598 382.528
L85.7491 382.536
L85.9277 382.195
L86.1062 381.977
L86.3741 381.665
L86.4634 381.72
L86.6419 381.524
L86.8205 381.295
L86.999 381.368
L87.1776 380.815
L87.2669 380.957
L87.3562 381.006
L87.4454 380.917
L87.5347 380.611
L87.624 380.655
L88.0704 380.724
L88.3382 380.416
L88.4275 380.429
L88.8739 379.876
L89.0525 379.521
L89.1418 379.53
L89.4096 379.075
L89.856 378.74
L90.3024 378.604
L90.5702 378.057
L91.0166 378.075
L91.2845 378.281
L91.463 378.041
L91.6416 378.043
L91.8202 377.882
L91.9987 377.64
L92.5344 377.449
L93.695 376.145
L93.8736 376.24
L94.0522 375.69
L94.2307 375.828
L94.8557 375.639
L94.945 375.402
L95.1235 375.562
L95.2128 375.547
L95.5699 375.006
L95.8378 374.831
L95.927 374.861
L96.1949 374.579
L96.9091 374.364
L97.3555 374.538
L97.4448 374.371
L97.8019 374.608
L97.9805 374.566
L98.159 374.758
L98.2483 374.697
L98.4269 374.813
L98.5162 374.753
L98.6947 374.96
L99.0518 374.668
L99.2304 374.353
L99.5875 373.996
L100.48 373.374
L100.57 373.517
L100.748 373.283
L101.105 373.566
L101.373 373.685
L101.909 374.138
L102.266 374.354
L102.355 374.354
L102.534 374.13
L102.712 374.081
L102.98 373.906
L103.159 373.738
L103.694 373.045
L104.23 373.152
L104.409 373.358
L104.587 373.553
L104.944 373.543
L105.123 373.662
L105.212 373.645
L105.391 373.74
L105.837 373.864
L106.194 373.77
L106.641 373.603
L106.908 373.34
L107.355 373.072
L107.623 372.77
L108.069 373.184
L108.158 373.337
L108.248 373.239
L108.426 373.293
L109.051 373.747
L109.587 373.716
L111.194 372.649
L111.372 372.912
L111.64 373.331
L112.89 374.237
L113.069 374.259
L114.676 373.572
L114.765 373.58
L114.944 373.736
L116.729 374.894
L117.086 374.806
L117.444 374.645
L118.247 374.326
L118.336 374.266
L119.676 375.316
L119.943 375.459
L120.479 375.462
L121.908 374.947
L122.622 375.705
L123.157 376.082
L123.782 376.41
L125.657 376.24
L126.104 376.478
L127.086 377.244
L127.354 377.311
L128.871 376.894
L129.139 376.981
L130.121 377.606
L130.836 378.083
L131.46 377.942
L132.443 377.779
L132.71 377.763
L133.068 378.013
L133.603 378.324
L134.407 378.692
L136.639 378.673
L138.067 379.175
L138.514 379.114
L139.942 378.982
L140.478 379.222
L141.817 379.59
L142.978 379.454
L143.603 379.519
L144.138 379.826
L145.477 380.133
L146.102 380.049
L146.995 380.041
L147.709 380.326
L148.334 380.479
L148.781 380.595
L150.566 380.544
L152.441 381.152
L154.138 381.036
L154.763 381.247
L156.102 381.554
L158.244 381.549
L159.227 381.791
L160.209 381.805
L161.548 381.862
L162.441 382.12
L163.869 382.218
L164.762 382.208
L166.637 382.618
L169.404 382.806
L170.297 382.946
L172.529 383.033
L173.958 383.193
L175.833 383.241
L176.993 383.396
L178.065 383.427
L179.582 383.477
L182.439 383.617
L183.243 383.722
L184.582 383.899
L186.993 383.993
L188.243 384.127
L190.921 384.223
L191.992 384.314
L193.689 384.36
L195.206 384.558
L197.885 384.661
L199.313 384.774
L201.635 384.869
L202.17 384.956
L210.295 385.285
L212.17 385.389
L214.223 385.451
L216.812 385.535
L263.416 386.405
L272.523 386.51
L273.416 386.538
L274.933 386.549
L283.504 386.658
L285.111 386.675
L301.628 386.786
L305.199 386.81
L317.699 386.92
L321.716 386.954
L355.464 387.061
L356.982 387.067
L386.712 387.174
L388.587 387.196
L408.407 387.301
L410.193 387.31
L441.262 387.416
L443.137 387.424
L480.635 387.534
L485.099 387.561
L516.525 387.67
L518.311 387.673
L518.311 387.673" style="fill:none;stroke:#ff0000;stroke-dasharray:3.000000,6.000000;stroke-dashoffset:0.0;"/>
   </g>
   <g id="line2d_4">
    <path clip-path="url(#p7ff5b81e1d)" d="
M72 303.833
L72.0893 288.676
L72.2678 277.226
L72.3571 278.379
L72.5357 282.464
L72.625 283.545
L72.8928 292.675
L73.1606 303.152
L73.5178 313.774
L73.7856 322.885
L74.0534 337.862
L74.4106 349.185
L74.6784 355.308
L74.857 364.731
L75.4819 372.134
L75.5712 371.815
L75.6605 376.707
L75.7498 376.211
L75.9283 375.622
L76.0176 375.623
L76.464 376.284
L76.6426 380.089
L76.7318 380.202
L76.9104 380.11
L77.3568 380.594
L77.5354 383.586
L78.2496 384.58
L78.4282 385.869
L79.1424 386.156
L79.2317 386.566
L79.8566 385.261
L80.0352 385.113
L80.1245 385.605
L80.2138 385.493
L80.4816 385.149
L80.928 385.073
L81.1066 385.668
L81.8208 385.816
L81.9994 386.161
L82.6243 386.257
L82.7136 386.145
L82.8029 386.27
L83.16 385.518
L83.4278 385.109
L83.6064 384.919
L83.6957 385.061
L83.785 384.995
L84.3206 384.372
L84.4992 384.343
L84.6778 384.618
L86.1955 384.903
L87.1776 382.901
L87.3562 382.752
L87.7133 382.245
L88.0704 381.789
L88.249 381.894
L88.9632 382.009
L89.231 382.121
L89.7667 382.177
L90.481 380.594
L91.0166 379.678
L91.3738 379.031
L91.6416 378.792
L92.2666 378.857
L93.3379 379.068
L93.695 378.143
L94.8557 375.852
L95.0342 375.703
L95.2128 375.579
L96.0163 375.887
L96.8198 376.028
L96.9091 376.036
L97.3555 374.798
L98.784 372.098
L99.6768 372.382
L100.391 372.592
L100.48 372.622
L101.998 369.665
L102.444 369.347
L102.98 369.572
L103.248 369.658
L103.605 369.923
L104.052 369.962
L104.587 368.727
L104.944 368.291
L105.212 367.917
L106.016 367.261
L106.284 367.305
L107.623 367.808
L108.337 366.587
L108.605 366.205
L108.873 365.94
L109.498 365.633
L110.123 365.866
L110.569 366.051
L110.837 366.192
L111.283 366.149
L111.73 365.221
L112.176 364.699
L112.444 364.6
L112.712 364.323
L113.426 364.367
L114.14 364.591
L114.497 364.764
L114.765 364.787
L115.122 364.267
L115.836 363.694
L116.461 363.381
L116.729 363.4
L117.086 363.521
L117.622 363.696
L118.515 363.843
L119.408 363.149
L119.586 363.218
L119.943 363.088
L120.568 363.231
L121.015 363.432
L121.461 363.555
L121.818 363.698
L121.997 363.709
L122.354 363.428
L122.979 363.156
L123.247 363.123
L123.604 363.086
L123.872 363.101
L124.586 363.314
L125.747 363.513
L125.925 363.528
L126.104 363.545
L126.996 363.336
L128.425 363.738
L128.782 363.946
L129.675 364.08
L130.3 364.068
L130.568 364.045
L130.925 364.096
L132.175 364.566
L132.353 364.7
L132.71 364.8
L132.889 364.809
L133.157 364.795
L133.514 364.808
L134.05 364.971
L134.228 364.953
L134.496 365.072
L136.192 365.508
L136.371 365.539
L136.728 365.655
L137.442 365.902
L137.978 366.157
L138.514 366.287
L140.031 366.702
L140.478 366.901
L140.835 367.009
L141.103 367.188
L142.085 367.449
L142.353 367.572
L142.799 367.72
L143.424 367.898
L143.692 367.927
L144.763 368.158
L145.477 368.259
L146.192 368.472
L146.638 368.673
L147.263 368.802
L148.067 369.119
L148.334 369.243
L149.941 369.495
L150.209 369.703
L151.727 370.038
L151.995 370.214
L152.62 370.271
L153.245 370.474
L153.691 370.56
L153.959 370.763
L154.584 370.873
L155.12 370.958
L155.388 371.06
L156.28 371.354
L156.816 371.514
L157.084 371.599
L157.262 371.699
L158.066 371.864
L159.762 372.321
L160.209 372.393
L160.566 372.513
L160.834 372.612
L161.012 372.769
L161.369 372.854
L161.994 373.085
L164.137 373.972
L165.208 374.17
L165.833 374.419
L166.012 374.626
L166.369 374.752
L166.815 374.974
L167.619 375.038
L167.887 375.169
L168.155 375.21
L168.422 375.321
L168.78 375.416
L171.012 376.164
L171.19 376.226
L171.547 376.431
L171.904 376.519
L172.44 376.59
L174.047 376.955
L174.315 377.073
L174.672 377.127
L175.654 377.236
L176.368 377.396
L176.815 377.431
L178.511 378.024
L179.136 378.105
L179.315 378.233
L179.493 378.287
L179.672 378.419
L180.118 378.49
L180.564 378.549
L181.1 378.71
L181.368 378.71
L181.547 378.94
L182.35 379.041
L182.886 379.174
L183.064 379.209
L183.332 379.408
L184.939 379.699
L185.296 379.743
L185.653 379.819
L186.636 380.132
L187.171 380.193
L187.439 380.307
L187.796 380.437
L190.832 380.867
L191.724 381.122
L191.903 381.124
L192.171 381.312
L192.528 381.432
L192.885 381.468
L193.778 381.589
L195.206 381.827
L195.742 381.938
L196.188 382.018
L196.546 382.055
L197.349 382.202
L198.063 382.353
L199.76 382.459
L200.028 382.575
L200.652 382.714
L201.456 382.792
L201.902 383.01
L202.617 383.013
L202.795 383.095
L203.599 383.17
L204.313 383.348
L205.206 383.43
L205.563 383.467
L206.902 383.617
L207.438 383.729
L208.866 383.823
L209.58 384.012
L210.384 384.122
L210.652 384.199
L211.455 384.42
L212.437 384.491
L213.42 384.784
L215.562 384.903
L216.187 385.06
L217.259 385.181
L217.794 385.291
L219.401 385.368
L219.848 385.438
L220.74 385.547
L221.187 385.769
L222.705 385.853
L223.062 385.893
L223.776 386
L224.133 386.037
L225.651 386.111
L225.919 386.218
L226.365 386.294
L227.526 386.403
L228.061 386.512
L229.311 386.622
L229.668 386.655
L231.097 386.728
L231.633 386.837
L232.615 386.91
L232.793 386.981
L234.936 387.085
L235.472 387.195
L237.614 387.304
L237.972 387.342
L241.007 387.449
L241.364 387.484
L242.614 387.559
L242.971 387.595
L246.632 387.706
L247.167 387.817
L249.042 387.924
L249.489 387.997
L252.346 388.108
L252.703 388.144
L257.792 388.252
L257.97 388.325
L263.684 388.435
L264.041 388.471
L276.273 388.581
L276.63 388.618
L298.503 388.691
L298.86 388.727
L518.311 388.8
L518.311 388.8" style="fill:none;stroke:#00bfbf;stroke-dasharray:5.000000,1.000000,2.000000,1.000000,5.000000,1.000000;stroke-dashoffset:0.0;"/>
   </g>
   <g id="line2d_5">
    <path clip-path="url(#p7ff5b81e1d)" d="
M72 304.545
L72.0893 287.669
L72.1786 284.671
L72.3571 284.017
L72.5357 287.924
L73.7856 322.695
L73.9642 333.563
L74.6784 351.08
L74.857 361.434
L75.4819 368.671
L75.5712 368.145
L75.6605 374.284
L75.7498 373.46
L76.464 370.5
L76.5533 376.15
L76.6426 375.875
L76.7318 375.659
L76.9997 374.583
L77.2675 373.794
L77.3568 374.094
L77.5354 379.573
L77.8032 380.116
L78.071 380.494
L78.2496 380.801
L78.4282 383.34
L79.0531 383.763
L79.1424 383.472
L79.2317 384.679
L79.321 384.454
L79.6781 383.732
L80.0352 382.722
L80.1245 383.672
L80.8387 381.33
L80.928 381.325
L81.1066 382.512
L81.8208 382.542
L81.9994 383.298
L82.6243 383.252
L82.7136 382.9
L82.8029 383.218
L83.2493 381.752
L83.6064 380.445
L83.6957 380.793
L84.4992 378.363
L84.6778 378.896
L85.0349 378.747
L85.392 378.664
L85.5706 378.86
L85.9277 378.805
L86.1955 378.7
L86.5526 377.7
L88.0704 374.026
L88.249 374.221
L88.8739 374.065
L88.9632 374.059
L89.1418 374.15
L89.4989 374.125
L89.7667 374.112
L90.0346 373.591
L90.2131 373.18
L91.0166 371.508
L91.2845 370.985
L91.6416 370.417
L92.4451 370.34
L92.8022 370.389
L93.3379 370.443
L93.8736 369.518
L94.1414 369.241
L94.4986 368.794
L94.8557 368.339
L94.945 368.305
L95.1235 367.912
L95.3914 368.002
L95.6592 368.13
L96.0163 368.139
L97.177 367.893
L97.4448 367.685
L97.7126 367.516
L97.9805 367.174
L98.159 367.011
L98.3376 366.946
L98.6947 366.634
L98.9626 366.633
L99.2304 366.749
L99.6768 366.777
L100.212 366.907
L100.48 366.905
L100.57 366.8
L100.748 366.823
L101.016 366.577
L101.284 366.584
L101.641 366.49
L102.087 366.314
L102.444 366.309
L102.802 366.449
L103.248 366.51
L103.605 366.755
L104.141 366.7
L104.676 366.967
L105.748 366.906
L106.284 366.892
L106.819 366.93
L107.355 366.951
L107.623 367.063
L108.337 367.314
L110.569 367.69
L110.837 367.762
L111.283 367.803
L111.819 368.126
L111.997 368.131
L112.355 368.18
L112.89 368.193
L113.158 368.228
L113.783 368.3
L114.229 368.405
L114.944 368.583
L116.372 369.203
L117.086 369.224
L118.693 369.557
L119.586 370.071
L122.265 370.496
L122.443 370.617
L122.8 370.765
L123.157 370.934
L123.515 371.007
L124.854 371.12
L125.836 371.241
L126.282 371.415
L127.711 371.928
L128.604 372.08
L129.407 372.22
L129.675 372.39
L131.46 372.94
L132.353 373.049
L132.71 373.123
L133.246 373.448
L133.425 373.535
L133.692 373.674
L135.3 373.956
L135.924 374.004
L136.371 374.116
L137.085 374.408
L137.978 374.572
L138.96 374.66
L139.317 374.695
L139.853 374.779
L140.835 375.291
L141.728 375.593
L142.353 375.709
L142.978 375.766
L143.424 375.802
L143.692 375.974
L144.852 376.44
L145.745 376.471
L146.46 376.587
L146.995 376.655
L147.263 376.764
L147.799 376.876
L148.067 377.004
L148.334 377.089
L148.781 377.239
L150.656 377.385
L152.531 378.114
L153.78 378.274
L154.048 378.326
L154.495 378.441
L154.852 378.589
L155.12 378.666
L155.566 378.791
L155.834 378.909
L156.995 379.018
L157.441 379.127
L157.798 379.225
L158.334 379.417
L158.78 379.5
L159.048 379.614
L160.834 379.797
L161.012 379.881
L161.548 379.998
L162.441 380.329
L162.708 380.401
L163.155 380.594
L163.691 380.699
L163.958 380.75
L165.03 380.834
L165.655 381.041
L167.351 381.401
L168.155 381.489
L169.047 381.799
L174.493 382.868
L175.743 382.976
L178.957 383.53
L179.404 383.618
L181.1 384.014
L181.636 384.123
L182.439 384.177
L182.975 384.259
L183.6 384.456
L185.028 384.636
L186.011 384.742
L188.689 385.141
L190.117 385.243
L192.796 385.631
L193.956 385.74
L195.117 385.896
L196.813 386.004
L198.778 386.235
L200.474 386.339
L201.188 386.417
L201.724 386.507
L202.17 386.561
L206.991 386.89
L207.438 386.918
L209.223 387.026
L211.098 387.188
L212.437 387.291
L213.687 387.409
L216.009 387.498
L216.455 387.525
L218.687 387.621
L220.116 387.717
L221.99 387.826
L230.115 388.128
L267.88 388.726
L518.311 388.8
L518.311 388.8" style="fill:none;stroke:#bf00bf;stroke-linecap:square;"/>
   </g>
   <g id="matplotlib.axis_1">
    <g id="xtick_1">
     <g id="line2d_6">
      <defs>
       <path d="
M0 0
L0 -4" id="mc7db9fdffb" style="stroke:#000000;stroke-width:0.5;"/>
      </defs>
      <g>
       <use style="stroke:#000000;stroke-width:0.5;" x="72.0" xlink:href="#mc7db9fdffb" y="388.8"/>
      </g>
     </g>
     <g id="line2d_7">
      <defs>
       <path d="
M0 0
L0 4" id="m5a7d422ac3" style="stroke:#000000;stroke-width:0.5;"/>
      </defs>
      <g>
       <use style="stroke:#000000;stroke-width:0.5;" x="72.0" xlink:href="#m5a7d422ac3" y="43.2"/>
      </g>
     </g>
     <g id="text_1">
      <!-- 0 -->
      <defs>
       <path d="
M56.9844 36.375
Q56.9844 16.7969 50.8594 7.64062
Q44.7344 -1.51562 31.8438 -1.51562
Q18.75 -1.51562 12.7188 7.76562
Q6.6875 17.0469 6.6875 36.2812
Q6.6875 55.6719 12.7812 64.9219
Q18.8906 74.1719 31.8438 74.1719
Q44.9219 74.1719 50.9531 64.7656
Q56.9844 55.375 56.9844 36.375
M44.1406 14.2031
Q45.8438 18.1719 46.4531 23.5156
Q47.0781 28.8594 47.0781 36.375
Q47.0781 43.7969 46.4531 49.2656
Q45.8438 54.7344 44.0938 58.5469
Q42.3906 62.3125 39.4219 64.2031
Q36.4688 66.1094 31.8438 66.1094
Q27.25 66.1094 24.2344 64.2031
Q21.2344 62.3125 19.4844 58.4531
Q17.8281 54.8281 17.2188 49.0156
Q16.6094 43.2188 16.6094 36.2812
Q16.6094 28.6562 17.1406 23.5312
Q17.6719 18.4062 19.4375 14.3594
Q21.0469 10.5469 24 8.54688
Q26.9531 6.54688 31.8438 6.54688
Q36.4219 6.54688 39.4531 8.45312
Q42.4844 10.3594 44.1406 14.2031" id="Verdana-30"/>
      </defs>
      <g transform="translate(68.9821875 401.918125)scale(0.12 -0.12)">
       <use xlink:href="#Verdana-30"/>
      </g>
     </g>
    </g>
    <g id="xtick_2">
     <g id="line2d_8">
      <g>
       <use style="stroke:#000000;stroke-width:0.5;" x="161.28" xlink:href="#mc7db9fdffb" y="388.8"/>
      </g>
     </g>
     <g id="line2d_9">
      <g>
       <use style="stroke:#000000;stroke-width:0.5;" x="161.28" xlink:href="#m5a7d422ac3" y="43.2"/>
      </g>
     </g>
     <g id="text_2">
      <!-- 1000 -->
      <defs>
       <path d="
M52.9375 0
L13.5781 0
L13.5781 7.42188
L28.7188 7.42188
L28.7188 56.1562
L13.5781 56.1562
L13.5781 62.7969
Q16.6562 62.7969 20.1719 63.2969
Q23.6875 63.8125 25.4844 64.7969
Q27.7344 66.0156 29.0312 67.8906
Q30.3281 69.7812 30.5156 72.9531
L38.0938 72.9531
L38.0938 7.42188
L52.9375 7.42188
z
" id="Verdana-31"/>
      </defs>
      <g transform="translate(147.2315625 401.918125)scale(0.12 -0.12)">
       <use xlink:href="#Verdana-31"/>
       <use x="63.57421875" xlink:href="#Verdana-30"/>
       <use x="127.1484375" xlink:href="#Verdana-30"/>
       <use x="190.72265625" xlink:href="#Verdana-30"/>
      </g>
     </g>
    </g>
    <g id="xtick_3">
     <g id="line2d_10">
      <g>
       <use style="stroke:#000000;stroke-width:0.5;" x="250.56" xlink:href="#mc7db9fdffb" y="388.8"/>
      </g>
     </g>
     <g id="line2d_11">
      <g>
       <use style="stroke:#000000;stroke-width:0.5;" x="250.56" xlink:href="#m5a7d422ac3" y="43.2"/>
      </g>
     </g>
     <g id="text_3">
      <!-- 2000 -->
      <defs>
       <path d="
M57.0781 0
L7.85938 0
L7.85938 10.2031
Q12.9844 14.5938 18.1406 18.9844
Q23.2969 23.3906 27.7344 27.7344
Q37.1094 36.8125 40.5781 42.1562
Q44.0469 47.5156 44.0469 53.7188
Q44.0469 59.375 40.3125 62.5625
Q36.5781 65.7656 29.8906 65.7656
Q25.4375 65.7656 20.2656 64.2031
Q15.0938 62.6406 10.1562 59.4219
L9.67188 59.4219
L9.67188 69.6719
Q13.1406 71.3906 18.9219 72.7969
Q24.7031 74.2188 30.125 74.2188
Q41.3125 74.2188 47.6562 68.8125
Q54 63.4219 54 54.2031
Q54 50.0469 52.9531 46.4531
Q51.9062 42.875 49.8594 39.6562
Q47.9531 36.625 45.3906 33.6875
Q42.8281 30.7656 39.1562 27.2031
Q33.9375 22.0781 28.3594 17.2656
Q22.7969 12.4531 17.9688 8.34375
L57.0781 8.34375
z
" id="Verdana-32"/>
      </defs>
      <g transform="translate(236.1684375 401.918125)scale(0.12 -0.12)">
       <use xlink:href="#Verdana-32"/>
       <use x="63.57421875" xlink:href="#Verdana-30"/>
       <use x="127.1484375" xlink:href="#Verdana-30"/>
       <use x="190.72265625" xlink:href="#Verdana-30"/>
      </g>
     </g>
    </g>
    <g id="xtick_4">
     <g id="line2d_12">
      <g>
       <use style="stroke:#000000;stroke-width:0.5;" x="339.84" xlink:href="#mc7db9fdffb" y="388.8"/>
      </g>
     </g>
     <g id="line2d_13">
      <g>
       <use style="stroke:#000000;stroke-width:0.5;" x="339.84" xlink:href="#m5a7d422ac3" y="43.2"/>
      </g>
     </g>
     <g id="text_4">
      <!-- 3000 -->
      <defs>
       <path d="
M50.6875 35.0156
Q53.0312 32.9062 54.5469 29.7344
Q56.0625 26.5625 56.0625 21.5312
Q56.0625 16.5469 54.25 12.3906
Q52.4375 8.25 49.1719 5.17188
Q45.5156 1.76562 40.5469 0.125
Q35.5938 -1.51562 29.6875 -1.51562
Q23.6406 -1.51562 17.7812 -0.0625
Q11.9219 1.375 8.15625 3.07812
L8.15625 13.2812
L8.89062 13.2812
Q13.0312 10.5469 18.6406 8.73438
Q24.2656 6.9375 29.5 6.9375
Q32.5625 6.9375 36.0312 7.95312
Q39.5 8.98438 41.6562 10.9844
Q43.8906 13.1406 44.9844 15.7188
Q46.0938 18.3125 46.0938 22.2656
Q46.0938 26.1719 44.8438 28.7344
Q43.6094 31.2969 41.4062 32.7656
Q39.2031 34.2812 36.0781 34.8438
Q32.9531 35.4062 29.3438 35.4062
L24.9531 35.4062
L24.9531 43.5
L28.375 43.5
Q35.7969 43.5 40.2031 46.5938
Q44.625 49.7031 44.625 55.6719
Q44.625 58.2969 43.5 60.2656
Q42.3906 62.25 40.375 63.5312
Q38.2812 64.7969 35.8906 65.2812
Q33.5 65.7656 30.4688 65.7656
Q25.8281 65.7656 20.5938 64.1094
Q15.375 62.4531 10.75 59.4219
L10.25 59.4219
L10.25 69.625
Q13.7188 71.3438 19.5 72.7812
Q25.2969 74.2188 30.7188 74.2188
Q36.0312 74.2188 40.0781 73.2344
Q44.1406 72.2656 47.4062 70.125
Q50.9219 67.7812 52.7344 64.4531
Q54.5469 61.1406 54.5469 56.6875
Q54.5469 50.6406 50.2656 46.125
Q46 41.6094 40.1875 40.4375
L40.1875 39.75
Q42.5312 39.3594 45.5469 38.1094
Q48.5781 36.8594 50.6875 35.0156" id="Verdana-33"/>
      </defs>
      <g transform="translate(325.46625 401.918125)scale(0.12 -0.12)">
       <use xlink:href="#Verdana-33"/>
       <use x="63.57421875" xlink:href="#Verdana-30"/>
       <use x="127.1484375" xlink:href="#Verdana-30"/>
       <use x="190.72265625" xlink:href="#Verdana-30"/>
      </g>
     </g>
    </g>
    <g id="xtick_5">
     <g id="line2d_14">
      <g>
       <use style="stroke:#000000;stroke-width:0.5;" x="429.12" xlink:href="#mc7db9fdffb" y="388.8"/>
      </g>
     </g>
     <g id="line2d_15">
      <g>
       <use style="stroke:#000000;stroke-width:0.5;" x="429.12" xlink:href="#m5a7d422ac3" y="43.2"/>
      </g>
     </g>
     <g id="text_5">
      <!-- 4000 -->
      <defs>
       <path d="
M58.7344 20.4531
L47.9531 20.4531
L47.9531 0
L38.5781 0
L38.5781 20.4531
L3.76562 20.4531
L3.76562 31.6875
L38.9688 72.7031
L47.9531 72.7031
L47.9531 28.2656
L58.7344 28.2656
z

M38.5781 28.2656
L38.5781 61.0781
L10.4062 28.2656
z
" id="Verdana-34"/>
      </defs>
      <g transform="translate(414.4828125 401.918125)scale(0.12 -0.12)">
       <use xlink:href="#Verdana-34"/>
       <use x="63.57421875" xlink:href="#Verdana-30"/>
       <use x="127.1484375" xlink:href="#Verdana-30"/>
       <use x="190.72265625" xlink:href="#Verdana-30"/>
      </g>
     </g>
    </g>
    <g id="xtick_6">
     <g id="line2d_16">
      <g>
       <use style="stroke:#000000;stroke-width:0.5;" x="518.4" xlink:href="#mc7db9fdffb" y="388.8"/>
      </g>
     </g>
     <g id="line2d_17">
      <g>
       <use style="stroke:#000000;stroke-width:0.5;" x="518.4" xlink:href="#m5a7d422ac3" y="43.2"/>
      </g>
     </g>
     <g id="text_6">
      <!-- 5000 -->
      <defs>
       <path d="
M56.5 23.0938
Q56.5 18.0156 54.6406 13.375
Q52.7812 8.73438 49.5625 5.5625
Q46.0469 2.15625 41.1875 0.3125
Q36.3281 -1.51562 29.9375 -1.51562
Q23.9688 -1.51562 18.4531 -0.265625
Q12.9375 0.984375 9.125 2.73438
L9.125 13.0312
L9.8125 13.0312
Q13.8125 10.5 19.1875 8.71875
Q24.5625 6.9375 29.7344 6.9375
Q33.2031 6.9375 36.4531 7.90625
Q39.7031 8.89062 42.2344 11.3281
Q44.3906 13.4219 45.4844 16.3438
Q46.5781 19.2812 46.5781 23.1406
Q46.5781 26.9062 45.2812 29.4844
Q44 32.0781 41.7031 33.6406
Q39.1562 35.5 35.5156 36.25
Q31.8906 37.0156 27.3906 37.0156
Q23.0938 37.0156 19.1094 36.4219
Q15.1406 35.8438 12.25 35.25
L12.25 72.7031
L56 72.7031
L56 64.1562
L21.6875 64.1562
L21.6875 44.8281
Q23.7812 45.0156 25.9688 45.1094
Q28.1719 45.2188 29.7812 45.2188
Q35.6875 45.2188 40.125 44.2188
Q44.5781 43.2188 48.2969 40.6719
Q52.2031 37.9844 54.3438 33.7344
Q56.5 29.5 56.5 23.0938" id="Verdana-35"/>
      </defs>
      <g transform="translate(504.084375 401.918125)scale(0.12 -0.12)">
       <use xlink:href="#Verdana-35"/>
       <use x="63.57421875" xlink:href="#Verdana-30"/>
       <use x="127.1484375" xlink:href="#Verdana-30"/>
       <use x="190.72265625" xlink:href="#Verdana-30"/>
      </g>
     </g>
    </g>
    <g id="text_7">
     <!-- Objective function exectuions -->
     <defs>
      <path d="
M63.9688 64.3594
Q68.4062 59.4688 70.7656 52.3906
Q73.1406 45.3125 73.1406 36.3281
Q73.1406 27.3438 70.7188 20.2344
Q68.3125 13.1406 63.9688 8.40625
Q59.4688 3.46875 53.3438 0.96875
Q47.2188 -1.51562 39.3594 -1.51562
Q31.6875 -1.51562 25.4062 1.01562
Q19.1406 3.5625 14.75 8.40625
Q10.3594 13.2344 7.98438 20.2656
Q5.60938 27.2969 5.60938 36.3281
Q5.60938 45.2188 7.95312 52.2656
Q10.2969 59.3281 14.7969 64.3594
Q19.0938 69.1406 25.4688 71.6719
Q31.8438 74.2188 39.3594 74.2188
Q47.1719 74.2188 53.3906 71.6562
Q59.625 69.0938 63.9688 64.3594
M63.0938 36.3281
Q63.0938 50.4844 56.7344 58.1719
Q50.3906 65.875 39.4062 65.875
Q28.3281 65.875 22 58.1719
Q15.6719 50.4844 15.6719 36.3281
Q15.6719 22.0156 22.1094 14.4219
Q28.5625 6.84375 39.4062 6.84375
Q50.25 6.84375 56.6719 14.4219
Q63.0938 22.0156 63.0938 36.3281" id="Verdana-4f"/>
      <path d="
M38.375 67.0938
L37.8906 67.0938
Q36.375 67.5312 33.9375 67.9844
Q31.5 68.4531 29.6406 68.4531
Q23.7344 68.4531 21.0625 65.8438
Q18.4062 63.2344 18.4062 56.3906
L18.4062 54.5469
L34.9688 54.5469
L34.9688 46.8281
L18.7031 46.8281
L18.7031 0
L9.51562 0
L9.51562 46.8281
L3.32812 46.8281
L3.32812 54.5469
L9.51562 54.5469
L9.51562 56.3438
Q9.51562 66.0625 14.3438 71.2656
Q19.1875 76.4688 28.3281 76.4688
Q31.3906 76.4688 33.8594 76.1719
Q36.3281 75.875 38.375 75.4844
z
" id="Verdana-66"/>
      <path d="
M57.0312 27.6875
Q57.0312 20.8438 55.0938 15.375
Q53.1719 9.90625 49.9062 6.20312
Q46.4375 2.34375 42.2812 0.40625
Q38.1406 -1.51562 33.1562 -1.51562
Q28.5156 -1.51562 25.0469 -0.40625
Q21.5781 0.6875 18.2188 2.54688
L17.625 0
L9.03125 0
L9.03125 75.9844
L18.2188 75.9844
L18.2188 48.8281
Q22.0781 52 26.4219 54.0312
Q30.7656 56.0625 36.1875 56.0625
Q45.8438 56.0625 51.4375 48.6406
Q57.0312 41.2188 57.0312 27.6875
M47.5625 27.4375
Q47.5625 37.2031 44.3281 42.25
Q41.1094 47.3125 33.9375 47.3125
Q29.9375 47.3125 25.8281 45.5781
Q21.7344 43.8438 18.2188 41.1094
L18.2188 9.85938
Q22.125 8.10938 24.9219 7.42188
Q27.7344 6.73438 31.2969 6.73438
Q38.9219 6.73438 43.2344 11.7344
Q47.5625 16.75 47.5625 27.4375" id="Verdana-62"/>
      <path id="Verdana-20"/>
      <path d="
M18.8906 63.6719
L8.54688 63.6719
L8.54688 73.1875
L18.8906 73.1875
z

M18.3125 0
L9.125 0
L9.125 54.5469
L18.3125 54.5469
z
" id="Verdana-69"/>
      <path d="
M26.0312 63.6719
L15.6719 63.6719
L15.6719 73.1875
L26.0312 73.1875
z

M25.4375 -1.3125
Q25.4375 -10.8906 20.5469 -15.7656
Q15.6719 -20.6562 7.46875 -20.6562
Q5.51562 -20.6562 2.3125 -20.2656
Q-0.875 -19.875 -3.03125 -19.2812
L-3.03125 -10.5469
L-2.54688 -10.5469
Q-1.17188 -11.0781 1.14062 -11.7656
Q3.46875 -12.4531 5.67188 -12.4531
Q9.1875 -12.4531 11.3281 -11.4688
Q13.4844 -10.5 14.5469 -8.54688
Q15.625 -6.59375 15.9375 -3.82812
Q16.2656 -1.07812 16.2656 2.875
L16.2656 46.8281
L4.89062 46.8281
L4.89062 54.5469
L25.4375 54.5469
z
" id="Verdana-6a"/>
      <path d="
M48 15.7188
Q48 8.25 41.8125 3.46875
Q35.6406 -1.3125 24.9531 -1.3125
Q18.8906 -1.3125 13.8438 0.125
Q8.79688 1.5625 5.375 3.26562
L5.375 13.5781
L5.85938 13.5781
Q10.2031 10.2969 15.5156 8.375
Q20.8438 6.45312 25.7344 6.45312
Q31.7812 6.45312 35.2031 8.40625
Q38.625 10.3594 38.625 14.5469
Q38.625 17.7812 36.7656 19.4375
Q34.9062 21.0938 29.6406 22.2656
Q27.6875 22.7031 24.5312 23.2812
Q21.3906 23.875 18.7969 24.5625
Q11.625 26.4688 8.60938 30.1562
Q5.60938 33.8438 5.60938 39.2031
Q5.60938 42.5781 7 45.5469
Q8.40625 48.5312 11.2344 50.875
Q13.9688 53.1719 18.1875 54.5156
Q22.4062 55.8594 27.6406 55.8594
Q32.5156 55.8594 37.5156 54.6562
Q42.5312 53.4688 45.8438 51.7656
L45.8438 41.9375
L45.3594 41.9375
Q41.8438 44.5312 36.8125 46.3125
Q31.7812 48.0938 26.9531 48.0938
Q21.9219 48.0938 18.4531 46.1562
Q14.9844 44.2344 14.9844 40.4375
Q14.9844 37.0625 17.0938 35.3594
Q19.1406 33.6406 23.7344 32.5625
Q26.2656 31.9844 29.4062 31.3906
Q32.5625 30.8125 34.6719 30.3281
Q41.0625 28.8594 44.5312 25.2969
Q48 21.6875 48 15.7188" id="Verdana-73"/>
      <path d="
M55.5156 27.25
Q55.5156 13.9219 48.6719 6.20312
Q41.8438 -1.51562 30.375 -1.51562
Q18.7969 -1.51562 11.9844 6.20312
Q5.17188 13.9219 5.17188 27.25
Q5.17188 40.5781 11.9844 48.3125
Q18.7969 56.0625 30.375 56.0625
Q41.8438 56.0625 48.6719 48.3125
Q55.5156 40.5781 55.5156 27.25
M46.0469 27.25
Q46.0469 37.8438 41.8906 42.9844
Q37.75 48.1406 30.375 48.1406
Q22.9062 48.1406 18.7812 42.9844
Q14.6562 37.8438 14.6562 27.25
Q14.6562 17 18.7969 11.6875
Q22.9531 6.39062 30.375 6.39062
Q37.7031 6.39062 41.875 11.6406
Q46.0469 16.8906 46.0469 27.25" id="Verdana-6f"/>
      <path d="
M54.6875 26.3125
L14.5 26.3125
Q14.5 21.2969 16.0156 17.5469
Q17.5312 13.8125 20.1719 11.4219
Q22.7031 9.07812 26.1875 7.90625
Q29.6875 6.73438 33.8906 6.73438
Q39.4531 6.73438 45.0938 8.95312
Q50.7344 11.1875 53.125 13.3281
L53.6094 13.3281
L53.6094 3.32812
Q48.9688 1.375 44.1406 0.046875
Q39.3125 -1.26562 33.9844 -1.26562
Q20.4062 -1.26562 12.7812 6.07812
Q5.17188 13.4219 5.17188 26.9531
Q5.17188 40.3281 12.4688 48.1875
Q19.7812 56.0625 31.6875 56.0625
Q42.7188 56.0625 48.7031 49.6094
Q54.6875 43.1719 54.6875 31.2969
z

M45.75 33.3438
Q45.7031 40.5781 42.1094 44.5312
Q38.5312 48.4844 31.2031 48.4844
Q23.8281 48.4844 19.4531 44.1406
Q15.0938 39.7969 14.5 33.3438
z
" id="Verdana-65"/>
      <path d="
M54.25 0
L45.0625 0
L45.0625 6.0625
Q40.4375 2.39062 36.1875 0.4375
Q31.9375 -1.51562 26.8125 -1.51562
Q18.2188 -1.51562 13.4219 3.73438
Q8.64062 8.98438 8.64062 19.1406
L8.64062 54.5469
L17.8281 54.5469
L17.8281 23.4844
Q17.8281 19.3438 18.2188 16.375
Q18.6094 13.4219 19.875 11.3281
Q21.1875 9.1875 23.2812 8.20312
Q25.3906 7.23438 29.3906 7.23438
Q32.9531 7.23438 37.1719 9.07812
Q41.4062 10.9375 45.0625 13.8125
L45.0625 54.5469
L54.25 54.5469
z
" id="Verdana-75"/>
      <path d="
M49.3594 3.42188
Q44.7812 1.21875 40.6562 0
Q36.5312 -1.21875 31.8906 -1.21875
Q25.9844 -1.21875 21.0469 0.515625
Q16.1094 2.25 12.5938 5.76562
Q9.03125 9.28125 7.07812 14.6406
Q5.125 20.0156 5.125 27.2031
Q5.125 40.5781 12.4688 48.1875
Q19.8281 55.8125 31.8906 55.8125
Q36.5781 55.8125 41.0938 54.4844
Q45.6094 53.1719 49.3594 51.2656
L49.3594 41.0625
L48.875 41.0625
Q44.6719 44.3438 40.2031 46.0938
Q35.75 47.8594 31.5 47.8594
Q23.6875 47.8594 19.1719 42.6094
Q14.6562 37.3594 14.6562 27.2031
Q14.6562 17.3281 19.0625 12.0312
Q23.4844 6.73438 31.5 6.73438
Q34.2812 6.73438 37.1562 7.46875
Q40.0469 8.20312 42.3281 9.375
Q44.3438 10.4062 46.0938 11.5469
Q47.8594 12.7031 48.875 13.5312
L49.3594 13.5312
z
" id="Verdana-63"/>
      <path d="
M54.6406 0
L45.4531 0
L45.4531 31.0625
Q45.4531 34.8125 45.0156 38.1094
Q44.5781 41.4062 43.4062 43.2656
Q42.1875 45.3125 39.8906 46.3125
Q37.5938 47.3125 33.9375 47.3125
Q30.1719 47.3125 26.0625 45.4531
Q21.9688 43.6094 18.2188 40.7188
L18.2188 0
L9.03125 0
L9.03125 54.5469
L18.2188 54.5469
L18.2188 48.4844
Q22.5156 52.0469 27.0938 54.0469
Q31.6875 56.0625 36.5312 56.0625
Q45.3594 56.0625 50 50.7344
Q54.6406 45.4062 54.6406 35.4062
z
" id="Verdana-6e"/>
      <path d="
M37.3594 0.484375
Q34.7656 -0.203125 31.7031 -0.640625
Q28.6562 -1.07812 26.2656 -1.07812
Q17.9219 -1.07812 13.5781 3.40625
Q9.23438 7.90625 9.23438 17.8281
L9.23438 46.8281
L3.03125 46.8281
L3.03125 54.5469
L9.23438 54.5469
L9.23438 70.2188
L18.4062 70.2188
L18.4062 54.5469
L37.3594 54.5469
L37.3594 46.8281
L18.4062 46.8281
L18.4062 21.9688
Q18.4062 17.6719 18.5938 15.25
Q18.7969 12.8438 19.9688 10.75
Q21.0469 8.79688 22.9219 7.89062
Q24.8125 6.98438 28.6562 6.98438
Q30.9062 6.98438 33.3438 7.64062
Q35.7969 8.29688 36.8594 8.73438
L37.3594 8.73438
z
" id="Verdana-74"/>
      <path d="
M56.2031 54.5469
L34.125 0
L24.9062 0
L2.98438 54.5469
L12.9375 54.5469
L29.8281 11.1406
L46.5781 54.5469
z
" id="Verdana-76"/>
      <path d="
M56.25 0
L44.6719 0
L29.2031 20.9531
L13.625 0
L2.9375 0
L24.2188 27.2031
L3.125 54.5469
L14.7031 54.5469
L30.0781 33.9375
L45.5156 54.5469
L56.25 54.5469
L34.8125 27.6875
z
" id="Verdana-78"/>
     </defs>
     <g transform="translate(206.5078125 418.509375)scale(0.12 -0.12)">
      <use xlink:href="#Verdana-4f"/>
      <use x="78.7109375" xlink:href="#Verdana-62"/>
      <use x="141.015625" xlink:href="#Verdana-6a"/>
      <use x="175.439453125" xlink:href="#Verdana-65"/>
      <use x="235.009765625" xlink:href="#Verdana-63"/>
      <use x="287.109375" xlink:href="#Verdana-74"/>
      <use x="326.513671875" xlink:href="#Verdana-69"/>
      <use x="353.955078125" xlink:href="#Verdana-76"/>
      <use x="412.259765625" xlink:href="#Verdana-65"/>
      <use x="471.830078125" xlink:href="#Verdana-20"/>
      <use x="506.986328125" xlink:href="#Verdana-66"/>
      <use x="542.142578125" xlink:href="#Verdana-75"/>
      <use x="605.423828125" xlink:href="#Verdana-6e"/>
      <use x="668.705078125" xlink:href="#Verdana-63"/>
      <use x="720.8046875" xlink:href="#Verdana-74"/>
      <use x="760.208984375" xlink:href="#Verdana-69"/>
      <use x="787.650390625" xlink:href="#Verdana-6f"/>
      <use x="848.34375" xlink:href="#Verdana-6e"/>
      <use x="911.625" xlink:href="#Verdana-20"/>
      <use x="946.78125" xlink:href="#Verdana-65"/>
      <use x="1006.3515625" xlink:href="#Verdana-78"/>
      <use x="1064.40625" xlink:href="#Verdana-65"/>
      <use x="1123.9765625" xlink:href="#Verdana-63"/>
      <use x="1176.076171875" xlink:href="#Verdana-74"/>
      <use x="1215.48046875" xlink:href="#Verdana-75"/>
      <use x="1278.76171875" xlink:href="#Verdana-69"/>
      <use x="1306.203125" xlink:href="#Verdana-6f"/>
      <use x="1366.896484375" xlink:href="#Verdana-6e"/>
      <use x="1430.177734375" xlink:href="#Verdana-73"/>
     </g>
    </g>
   </g>
   <g id="matplotlib.axis_2">
    <g id="ytick_1">
     <g id="line2d_18">
      <defs>
       <path d="
M0 0
L4 0" id="md7965d1ba0" style="stroke:#000000;stroke-width:0.5;"/>
      </defs>
      <g>
       <use style="stroke:#000000;stroke-width:0.5;" x="72.0" xlink:href="#md7965d1ba0" y="388.8"/>
      </g>
     </g>
     <g id="line2d_19">
      <defs>
       <path d="
M0 0
L-4 0" id="md9a1c1a7cd" style="stroke:#000000;stroke-width:0.5;"/>
      </defs>
      <g>
       <use style="stroke:#000000;stroke-width:0.5;" x="518.4" xlink:href="#md9a1c1a7cd" y="388.8"/>
      </g>
     </g>
     <g id="text_8">
      <!-- 0.0 -->
      <defs>
       <path d="
M24.0312 0
L12.3594 0
L12.3594 13.9219
L24.0312 13.9219
z
" id="Verdana-2e"/>
      </defs>
      <g transform="translate(49.97 392.1515625)scale(0.12 -0.12)">
       <use xlink:href="#Verdana-30"/>
       <use x="63.57421875" xlink:href="#Verdana-2e"/>
       <use x="99.951171875" xlink:href="#Verdana-30"/>
      </g>
     </g>
    </g>
    <g id="ytick_2">
     <g id="line2d_20">
      <g>
       <use style="stroke:#000000;stroke-width:0.5;" x="72.0" xlink:href="#md7965d1ba0" y="345.6"/>
      </g>
     </g>
     <g id="line2d_21">
      <g>
       <use style="stroke:#000000;stroke-width:0.5;" x="518.4" xlink:href="#md9a1c1a7cd" y="345.6"/>
      </g>
     </g>
     <g id="text_9">
      <!-- 0.1 -->
      <g transform="translate(50.455625 348.9515625)scale(0.12 -0.12)">
       <use xlink:href="#Verdana-30"/>
       <use x="63.57421875" xlink:href="#Verdana-2e"/>
       <use x="99.951171875" xlink:href="#Verdana-31"/>
      </g>
     </g>
    </g>
    <g id="ytick_3">
     <g id="line2d_22">
      <g>
       <use style="stroke:#000000;stroke-width:0.5;" x="72.0" xlink:href="#md7965d1ba0" y="302.4"/>
      </g>
     </g>
     <g id="line2d_23">
      <g>
       <use style="stroke:#000000;stroke-width:0.5;" x="518.4" xlink:href="#md9a1c1a7cd" y="302.4"/>
      </g>
     </g>
     <g id="text_10">
      <!-- 0.2 -->
      <g transform="translate(49.95875 305.7515625)scale(0.12 -0.12)">
       <use xlink:href="#Verdana-30"/>
       <use x="63.57421875" xlink:href="#Verdana-2e"/>
       <use x="99.951171875" xlink:href="#Verdana-32"/>
      </g>
     </g>
    </g>
    <g id="ytick_4">
     <g id="line2d_24">
      <g>
       <use style="stroke:#000000;stroke-width:0.5;" x="72.0" xlink:href="#md7965d1ba0" y="259.2"/>
      </g>
     </g>
     <g id="line2d_25">
      <g>
       <use style="stroke:#000000;stroke-width:0.5;" x="518.4" xlink:href="#md9a1c1a7cd" y="259.2"/>
      </g>
     </g>
     <g id="text_11">
      <!-- 0.3 -->
      <g transform="translate(50.080625 262.5515625)scale(0.12 -0.12)">
       <use xlink:href="#Verdana-30"/>
       <use x="63.57421875" xlink:href="#Verdana-2e"/>
       <use x="99.951171875" xlink:href="#Verdana-33"/>
      </g>
     </g>
    </g>
    <g id="ytick_5">
     <g id="line2d_26">
      <g>
       <use style="stroke:#000000;stroke-width:0.5;" x="72.0" xlink:href="#md7965d1ba0" y="216.0"/>
      </g>
     </g>
     <g id="line2d_27">
      <g>
       <use style="stroke:#000000;stroke-width:0.5;" x="518.4" xlink:href="#md9a1c1a7cd" y="216.0"/>
      </g>
     </g>
     <g id="text_12">
      <!-- 0.4 -->
      <g transform="translate(49.76 219.3515625)scale(0.12 -0.12)">
       <use xlink:href="#Verdana-30"/>
       <use x="63.57421875" xlink:href="#Verdana-2e"/>
       <use x="99.951171875" xlink:href="#Verdana-34"/>
      </g>
     </g>
    </g>
    <g id="ytick_6">
     <g id="line2d_28">
      <g>
       <use style="stroke:#000000;stroke-width:0.5;" x="72.0" xlink:href="#md7965d1ba0" y="172.8"/>
      </g>
     </g>
     <g id="line2d_29">
      <g>
       <use style="stroke:#000000;stroke-width:0.5;" x="518.4" xlink:href="#md9a1c1a7cd" y="172.8"/>
      </g>
     </g>
     <g id="text_13">
      <!-- 0.5 -->
      <g transform="translate(50.028125 176.1515625)scale(0.12 -0.12)">
       <use xlink:href="#Verdana-30"/>
       <use x="63.57421875" xlink:href="#Verdana-2e"/>
       <use x="99.951171875" xlink:href="#Verdana-35"/>
      </g>
     </g>
    </g>
    <g id="ytick_7">
     <g id="line2d_30">
      <g>
       <use style="stroke:#000000;stroke-width:0.5;" x="72.0" xlink:href="#md7965d1ba0" y="129.6"/>
      </g>
     </g>
     <g id="line2d_31">
      <g>
       <use style="stroke:#000000;stroke-width:0.5;" x="518.4" xlink:href="#md9a1c1a7cd" y="129.6"/>
      </g>
     </g>
     <g id="text_14">
      <!-- 0.6 -->
      <defs>
       <path d="
M58.1562 23.5781
Q58.1562 12.5 50.8594 5.48438
Q43.5625 -1.51562 32.9531 -1.51562
Q27.5938 -1.51562 23.1875 0.140625
Q18.7969 1.8125 15.4375 5.07812
Q11.2344 9.125 8.95312 15.8125
Q6.6875 22.5156 6.6875 31.9375
Q6.6875 41.6094 8.76562 49.0781
Q10.8438 56.5469 15.375 62.3594
Q19.6719 67.875 26.4531 70.9688
Q33.25 74.0781 42.2812 74.0781
Q45.1719 74.0781 47.125 73.8281
Q49.0781 73.5781 51.0781 72.9531
L51.0781 63.625
L50.5938 63.625
Q49.2188 64.3594 46.4531 65.0156
Q43.7031 65.6719 40.8281 65.6719
Q30.3281 65.6719 24.0781 59.1094
Q17.8281 52.5469 16.7969 41.3594
Q20.9062 43.8438 24.875 45.1406
Q28.8594 46.4375 34.0781 46.4375
Q38.7188 46.4375 42.25 45.5781
Q45.7969 44.7344 49.5156 42.1406
Q53.8125 39.1562 55.9844 34.6094
Q58.1562 30.0781 58.1562 23.5781
M48.25 23.1875
Q48.25 27.7344 46.9062 30.7031
Q45.5625 33.6875 42.4844 35.8906
Q40.2344 37.4531 37.5 37.9375
Q34.7656 38.4219 31.7812 38.4219
Q27.6406 38.4219 24.0781 37.4375
Q20.5156 36.4688 16.75 34.4219
Q16.6562 33.3438 16.5938 32.3438
Q16.5469 31.3438 16.5469 29.8281
Q16.5469 22.125 18.1406 17.6562
Q19.7344 13.1875 22.5156 10.5938
Q24.75 8.45312 27.3594 7.45312
Q29.9844 6.45312 33.0625 6.45312
Q40.1406 6.45312 44.1875 10.7656
Q48.25 15.0938 48.25 23.1875" id="Verdana-36"/>
      </defs>
      <g transform="translate(49.829375 132.9515625)scale(0.12 -0.12)">
       <use xlink:href="#Verdana-30"/>
       <use x="63.57421875" xlink:href="#Verdana-2e"/>
       <use x="99.951171875" xlink:href="#Verdana-36"/>
      </g>
     </g>
    </g>
    <g id="ytick_8">
     <g id="line2d_32">
      <g>
       <use style="stroke:#000000;stroke-width:0.5;" x="72.0" xlink:href="#md7965d1ba0" y="86.4"/>
      </g>
     </g>
     <g id="line2d_33">
      <g>
       <use style="stroke:#000000;stroke-width:0.5;" x="518.4" xlink:href="#md9a1c1a7cd" y="86.4"/>
      </g>
     </g>
     <g id="text_15">
      <!-- 0.7 -->
      <defs>
       <path d="
M57.2812 61.8125
L24.3594 0
L13.9219 0
L48.9219 64.1562
L7.51562 64.1562
L7.51562 72.7031
L57.2812 72.7031
z
" id="Verdana-37"/>
      </defs>
      <g transform="translate(49.934375 89.7515625)scale(0.12 -0.12)">
       <use xlink:href="#Verdana-30"/>
       <use x="63.57421875" xlink:href="#Verdana-2e"/>
       <use x="99.951171875" xlink:href="#Verdana-37"/>
      </g>
     </g>
    </g>
    <g id="ytick_9">
     <g id="line2d_34">
      <g>
       <use style="stroke:#000000;stroke-width:0.5;" x="72.0" xlink:href="#md7965d1ba0" y="43.2"/>
      </g>
     </g>
     <g id="line2d_35">
      <g>
       <use style="stroke:#000000;stroke-width:0.5;" x="518.4" xlink:href="#md9a1c1a7cd" y="43.2"/>
      </g>
     </g>
     <g id="text_16">
      <!-- 0.8 -->
      <defs>
       <path d="
M57.625 20.2656
Q57.625 10.8438 50.2656 4.59375
Q42.9219 -1.65625 31.7812 -1.65625
Q19.9688 -1.65625 12.9531 4.4375
Q5.95312 10.5469 5.95312 20.0625
Q5.95312 26.125 9.46875 31.0312
Q12.9844 35.9375 19.3906 38.8125
L19.3906 39.1094
Q13.5312 42.2344 10.7188 45.9375
Q7.90625 49.6562 7.90625 55.2188
Q7.90625 63.4219 14.6406 68.8906
Q21.3906 74.3594 31.7812 74.3594
Q42.6719 74.3594 49.1719 69.1406
Q55.6719 63.9219 55.6719 55.8594
Q55.6719 50.9219 52.5938 46.1562
Q49.5156 41.4062 43.5625 38.7188
L43.5625 38.4219
Q50.3906 35.5 54 31.2031
Q57.625 26.9062 57.625 20.2656
M46.0469 55.7656
Q46.0469 60.9844 42.0156 64.0781
Q37.9844 67.1875 31.7344 67.1875
Q25.5938 67.1875 21.6562 64.25
Q17.7188 61.3281 17.7188 56.3438
Q17.7188 52.8281 19.7031 50.2656
Q21.6875 47.7031 25.6875 45.7031
Q27.4844 44.8281 30.875 43.4062
Q34.2812 42 37.5 41.0625
Q42.3281 44.2812 44.1875 47.75
Q46.0469 51.2188 46.0469 55.7656
M47.5625 19.3438
Q47.5625 23.8281 45.5781 26.5312
Q43.6094 29.25 37.8438 31.9844
Q35.5469 33.0625 32.8125 33.9844
Q30.0781 34.9062 25.5312 36.5781
Q21.1406 34.1875 18.4844 30.0781
Q15.8281 25.9844 15.8281 20.7969
Q15.8281 14.2031 20.3594 9.90625
Q24.9062 5.60938 31.8906 5.60938
Q39.0156 5.60938 43.2812 9.26562
Q47.5625 12.9375 47.5625 19.3438" id="Verdana-38"/>
      </defs>
      <g transform="translate(49.893125 46.5515625)scale(0.12 -0.12)">
       <use xlink:href="#Verdana-30"/>
       <use x="63.57421875" xlink:href="#Verdana-2e"/>
       <use x="99.951171875" xlink:href="#Verdana-38"/>
      </g>
     </g>
    </g>
    <g id="text_17">
     <!-- Rank 0 Probability -->
     <defs>
      <path d="
M56.2031 54.5469
L24.3594 -20.125
L14.5469 -20.125
L24.7031 2.64062
L2.98438 54.5469
L12.9375 54.5469
L29.6875 14.1094
L46.5781 54.5469
z
" id="Verdana-79"/>
      <path d="
M69.9219 0
L57.375 0
L33.0625 28.9062
L19.4375 28.9062
L19.4375 0
L9.76562 0
L9.76562 72.7031
L30.125 72.7031
Q36.7188 72.7031 41.1094 71.8438
Q45.5156 71 49.0312 68.7969
Q52.9844 66.3125 55.2031 62.5156
Q57.4219 58.7344 57.4219 52.9375
Q57.4219 45.0625 53.4688 39.7656
Q49.5156 34.4688 42.5781 31.7812
z

M47.3125 52.25
Q47.3125 55.375 46.2188 57.7812
Q45.125 60.2031 42.5781 61.8594
Q40.4844 63.2812 37.5938 63.8438
Q34.7188 64.4062 30.8125 64.4062
L19.4375 64.4062
L19.4375 36.9688
L29.2031 36.9688
Q33.7969 36.9688 37.2031 37.7656
Q40.625 38.5781 43.0156 40.7656
Q45.2188 42.8281 46.2656 45.4844
Q47.3125 48.1406 47.3125 52.25" id="Verdana-52"/>
      <path d="
M51.4219 0
L42.2812 0
L42.2812 5.8125
Q41.0625 4.98438 38.9844 3.48438
Q36.9219 2 34.9688 1.125
Q32.6719 0 29.6875 -0.75
Q26.7031 -1.51562 22.7031 -1.51562
Q15.3281 -1.51562 10.2031 3.35938
Q5.07812 8.25 5.07812 15.8281
Q5.07812 22.0156 7.73438 25.8438
Q10.4062 29.6875 15.3281 31.8906
Q20.3125 34.0781 27.2969 34.8594
Q34.2812 35.6406 42.2812 36.0312
L42.2812 37.4531
Q42.2812 40.5781 41.1875 42.625
Q40.0938 44.6719 38.0312 45.8438
Q36.0781 46.9688 33.3438 47.3594
Q30.6094 47.75 27.6406 47.75
Q24.0312 47.75 19.5781 46.7969
Q15.1406 45.8438 10.4062 44.0469
L9.90625 44.0469
L9.90625 53.375
Q12.5938 54.1094 17.6719 54.9844
Q22.75 55.8594 27.6875 55.8594
Q33.4531 55.8594 37.7188 54.9062
Q42 53.9531 45.125 51.6562
Q48.1875 49.4219 49.7969 45.8438
Q51.4219 42.2812 51.4219 37.0156
z

M42.2812 13.4219
L42.2812 28.6094
Q38.0938 28.375 32.3906 27.875
Q26.7031 27.3906 23.3906 26.4688
Q19.4375 25.3438 16.9844 22.9688
Q14.5469 20.6094 14.5469 16.4531
Q14.5469 11.7656 17.375 9.39062
Q20.2188 7.03125 26.0312 7.03125
Q30.8594 7.03125 34.8594 8.90625
Q38.875 10.7969 42.2812 13.4219" id="Verdana-61"/>
      <path d="
M57.3281 50.7344
Q57.3281 45.9062 55.6406 41.7656
Q53.9531 37.6406 50.9219 34.625
Q47.1719 30.8594 42.0469 28.9688
Q36.9219 27.0938 29.1094 27.0938
L19.4375 27.0938
L19.4375 0
L9.76562 0
L9.76562 72.7031
L29.5 72.7031
Q36.0312 72.7031 40.5781 71.6094
Q45.125 70.5156 48.6406 68.1719
Q52.7812 65.375 55.0469 61.2188
Q57.3281 57.0781 57.3281 50.7344
M47.2656 50.4844
Q47.2656 54.25 45.9375 57.0312
Q44.625 59.8125 41.9375 61.5781
Q39.5938 63.0938 36.5938 63.75
Q33.5938 64.4062 29 64.4062
L19.4375 64.4062
L19.4375 35.3594
L27.5938 35.3594
Q33.4531 35.3594 37.1094 36.4062
Q40.7656 37.4531 43.0625 39.75
Q45.3594 42.0938 46.3125 44.6719
Q47.2656 47.2656 47.2656 50.4844" id="Verdana-50"/>
      <path d="
M18.3125 0
L9.125 0
L9.125 75.9844
L18.3125 75.9844
z
" id="Verdana-6c"/>
      <path d="
M58.5469 0
L46.4375 0
L24.5625 23.875
L18.6094 18.2188
L18.6094 0
L9.42188 0
L9.42188 75.9844
L18.6094 75.9844
L18.6094 27.25
L45.125 54.5469
L56.6875 54.5469
L31.3438 29.3438
z
" id="Verdana-6b"/>
      <path d="
M43.0625 44.5312
L42.5781 44.5312
Q40.5312 45.0156 38.5938 45.2344
Q36.6719 45.4531 34.0312 45.4531
Q29.7812 45.4531 25.8281 43.5781
Q21.875 41.7031 18.2188 38.7188
L18.2188 0
L9.03125 0
L9.03125 54.5469
L18.2188 54.5469
L18.2188 46.4844
Q23.6875 50.875 27.8594 52.7031
Q32.0312 54.5469 36.375 54.5469
Q38.7656 54.5469 39.8438 54.4219
Q40.9219 54.2969 43.0625 53.9531
z
" id="Verdana-72"/>
     </defs>
     <g transform="translate(42.345 270.583125)rotate(-90.0)scale(0.12 -0.12)">
      <use xlink:href="#Verdana-52"/>
      <use x="67.53125" xlink:href="#Verdana-61"/>
      <use x="127.58984375" xlink:href="#Verdana-6e"/>
      <use x="190.87109375" xlink:href="#Verdana-6b"/>
      <use x="250.05078125" xlink:href="#Verdana-20"/>
      <use x="285.20703125" xlink:href="#Verdana-30"/>
      <use x="348.78125" xlink:href="#Verdana-20"/>
      <use x="383.9375" xlink:href="#Verdana-50"/>
      <use x="444.240234375" xlink:href="#Verdana-72"/>
      <use x="486.916015625" xlink:href="#Verdana-6f"/>
      <use x="547.609375" xlink:href="#Verdana-62"/>
      <use x="609.9140625" xlink:href="#Verdana-61"/>
      <use x="669.97265625" xlink:href="#Verdana-62"/>
      <use x="732.27734375" xlink:href="#Verdana-69"/>
      <use x="759.71875" xlink:href="#Verdana-6c"/>
      <use x="787.16015625" xlink:href="#Verdana-69"/>
      <use x="814.6015625" xlink:href="#Verdana-74"/>
      <use x="853.505859375" xlink:href="#Verdana-79"/>
     </g>
    </g>
   </g>
   <g id="patch_3">
    <path d="
M518.4 388.8
L518.4 43.2" style="fill:none;stroke:#000000;"/>
   </g>
   <g id="patch_4">
    <path d="
M72 43.2
L518.4 43.2" style="fill:none;stroke:#000000;"/>
   </g>
   <g id="patch_5">
    <path d="
M72 388.8
L518.4 388.8" style="fill:none;stroke:#000000;"/>
   </g>
   <g id="patch_6">
    <path d="
M72 388.8
L72 43.2" style="fill:none;stroke:#000000;"/>
   </g>
   <g id="text_18">
    <!-- Sargan Rank 0 Probability -->
    <defs>
     <path d="
M62.5938 20.75
Q62.5938 16.5 60.6094 12.3438
Q58.6406 8.20312 55.0781 5.32812
Q51.1719 2.20312 45.9688 0.4375
Q40.7656 -1.3125 33.4531 -1.3125
Q25.5938 -1.3125 19.3125 0.140625
Q13.0312 1.60938 6.54688 4.5
L6.54688 16.6094
L7.23438 16.6094
Q12.75 12.0156 19.9688 9.51562
Q27.2031 7.03125 33.5469 7.03125
Q42.5312 7.03125 47.5312 10.3906
Q52.5469 13.7656 52.5469 19.3906
Q52.5469 24.2188 50.1719 26.5156
Q47.7969 28.8125 42.9688 30.0781
Q39.3125 31.0625 35.0312 31.6875
Q30.7656 32.3281 25.9844 33.2969
Q16.3125 35.3594 11.6406 40.3125
Q6.98438 45.2656 6.98438 53.2188
Q6.98438 62.3594 14.6875 68.1875
Q22.4062 74.0312 34.2812 74.0312
Q41.9375 74.0312 48.3281 72.5625
Q54.7344 71.0938 59.6719 68.9531
L59.6719 57.5156
L58.9844 57.5156
Q54.8281 61.0312 48.0625 63.3438
Q41.3125 65.6719 34.2344 65.6719
Q26.4688 65.6719 21.75 62.4531
Q17.0469 59.2344 17.0469 54.1562
Q17.0469 49.6094 19.3906 47.0156
Q21.7344 44.4375 27.6406 43.0625
Q30.7656 42.3906 36.5156 41.4062
Q42.2812 40.4375 46.2969 39.4062
Q54.3906 37.25 58.4844 32.9062
Q62.5938 28.5625 62.5938 20.75" id="Verdana-53"/>
     <path d="
M53.2656 6.20312
Q53.2656 -7.67188 46.9688 -14.1562
Q40.6719 -20.6562 27.5938 -20.6562
Q23.25 -20.6562 19.1094 -20.0469
Q14.9844 -19.4375 10.9844 -18.3125
L10.9844 -8.9375
L11.4688 -8.9375
Q13.7188 -9.8125 18.5938 -11.1094
Q23.4844 -12.4062 28.375 -12.4062
Q33.0625 -12.4062 36.125 -11.2812
Q39.2031 -10.1562 40.9219 -8.15625
Q42.625 -6.25 43.3594 -3.5625
Q44.0938 -0.875 44.0938 2.4375
L44.0938 7.42188
Q39.9375 4.10938 36.1562 2.46875
Q32.375 0.828125 26.5156 0.828125
Q16.75 0.828125 11.0156 7.875
Q5.28125 14.9375 5.28125 27.7812
Q5.28125 34.8125 7.25 39.9062
Q9.23438 45.0156 12.6406 48.7344
Q15.8281 52.2031 20.3594 54.125
Q24.9062 56.0625 29.3906 56.0625
Q34.125 56.0625 37.3281 55.1094
Q40.5312 54.1562 44.0938 52.2031
L44.6719 54.5469
L53.2656 54.5469
z

M44.0938 14.9844
L44.0938 44.7344
Q40.4375 46.3906 37.2812 47.0938
Q34.125 47.7969 31 47.7969
Q23.4375 47.7969 19.0938 42.7188
Q14.75 37.6406 14.75 27.9844
Q14.75 18.7969 17.9688 14.0625
Q21.1875 9.32812 28.6562 9.32812
Q32.6719 9.32812 36.6875 10.8594
Q40.7188 12.4062 44.0938 14.9844" id="Verdana-67"/>
    </defs>
    <g transform="translate(201.483 38.2)scale(0.144 -0.144)">
     <use xlink:href="#Verdana-53"/>
     <use x="68.359375" xlink:href="#Verdana-61"/>
     <use x="128.41796875" xlink:href="#Verdana-72"/>
     <use x="171.09375" xlink:href="#Verdana-67"/>
     <use x="233.3984375" xlink:href="#Verdana-61"/>
     <use x="293.45703125" xlink:href="#Verdana-6e"/>
     <use x="356.73828125" xlink:href="#Verdana-20"/>
     <use x="391.89453125" xlink:href="#Verdana-52"/>
     <use x="459.42578125" xlink:href="#Verdana-61"/>
     <use x="519.484375" xlink:href="#Verdana-6e"/>
     <use x="582.765625" xlink:href="#Verdana-6b"/>
     <use x="641.9453125" xlink:href="#Verdana-20"/>
     <use x="677.1015625" xlink:href="#Verdana-30"/>
     <use x="740.67578125" xlink:href="#Verdana-20"/>
     <use x="775.83203125" xlink:href="#Verdana-50"/>
     <use x="836.134765625" xlink:href="#Verdana-72"/>
     <use x="878.810546875" xlink:href="#Verdana-6f"/>
     <use x="939.50390625" xlink:href="#Verdana-62"/>
     <use x="1001.80859375" xlink:href="#Verdana-61"/>
     <use x="1061.8671875" xlink:href="#Verdana-62"/>
     <use x="1124.171875" xlink:href="#Verdana-69"/>
     <use x="1151.61328125" xlink:href="#Verdana-6c"/>
     <use x="1179.0546875" xlink:href="#Verdana-69"/>
     <use x="1206.49609375" xlink:href="#Verdana-74"/>
     <use x="1245.400390625" xlink:href="#Verdana-79"/>
    </g>
   </g>
   <g id="legend_1">
    <g id="patch_7">
     <path d="
M407.18 381.6
L511.2 381.6
L511.2 272.081
L407.18 272.081
L407.18 381.6
z
" style="fill:#ffffff;stroke:#000000;"/>
    </g>
    <g id="line2d_36">
     <path d="
M417.26 283.743
L437.42 283.743" style="fill:none;stroke:#0000ff;stroke-dasharray:6.000000,2.000000;stroke-dashoffset:0.0;"/>
    </g>
    <g id="line2d_37"/>
    <g id="text_19">
     <!-- AMPGO -->
     <defs>
      <path d="
M74.5156 0
L64.8438 0
L64.8438 62.6406
L44.625 20.0156
L38.875 20.0156
L18.7969 62.6406
L18.7969 0
L9.76562 0
L9.76562 72.7031
L22.9531 72.7031
L42.3281 32.2344
L61.0781 72.7031
L74.5156 72.7031
z
" id="Verdana-4d"/>
      <path d="
M67.0938 0
L56.7812 0
L49.6562 20.2656
L18.2188 20.2656
L11.0781 0
L1.26562 0
L27.7344 72.7031
L40.625 72.7031
z

M46.6875 28.5625
L33.9375 64.2656
L21.1406 28.5625
z
" id="Verdana-41"/>
      <path d="
M70.4062 5.375
Q64.4531 2.64062 57.3906 0.609375
Q50.3438 -1.42188 43.75 -1.42188
Q35.25 -1.42188 28.1719 0.921875
Q21.0938 3.26562 16.1094 7.95312
Q11.0781 12.7031 8.34375 19.7969
Q5.60938 26.9062 5.60938 36.4219
Q5.60938 53.8594 15.7969 63.9375
Q25.9844 74.0312 43.75 74.0312
Q49.9531 74.0312 56.4219 72.5312
Q62.8906 71.0469 70.3594 67.4844
L70.3594 56
L69.4844 56
Q67.9688 57.1719 65.0781 59.0781
Q62.2031 60.9844 59.4219 62.25
Q56.0625 63.7656 51.7812 64.7656
Q47.5156 65.7656 42.0938 65.7656
Q29.8906 65.7656 22.7812 57.9219
Q15.6719 50.0938 15.6719 36.7188
Q15.6719 22.6094 23.0938 14.7656
Q30.5156 6.9375 43.3125 6.9375
Q48 6.9375 52.6562 7.85938
Q57.3281 8.79688 60.8438 10.25
L60.8438 28.0781
L41.3594 28.0781
L41.3594 36.5781
L70.4062 36.5781
z
" id="Verdana-47"/>
     </defs>
     <g transform="translate(453.26025 288.783)scale(0.144 -0.144)">
      <use xlink:href="#Verdana-41"/>
      <use x="68.359375" xlink:href="#Verdana-4d"/>
      <use x="152.63671875" xlink:href="#Verdana-50"/>
      <use x="212.939453125" xlink:href="#Verdana-47"/>
      <use x="290.478515625" xlink:href="#Verdana-4f"/>
     </g>
    </g>
    <g id="line2d_38">
     <path d="
M417.26 304.783
L437.42 304.783" style="fill:none;stroke:#008000;stroke-dasharray:1.000000,1.000000;stroke-dashoffset:0.0;"/>
    </g>
    <g id="line2d_39"/>
    <g id="text_20">
     <!-- Anneal -->
     <g transform="translate(453.26025 309.82275)scale(0.144 -0.144)">
      <use xlink:href="#Verdana-41"/>
      <use x="68.359375" xlink:href="#Verdana-6e"/>
      <use x="131.640625" xlink:href="#Verdana-6e"/>
      <use x="194.921875" xlink:href="#Verdana-65"/>
      <use x="254.4921875" xlink:href="#Verdana-61"/>
      <use x="314.55078125" xlink:href="#Verdana-6c"/>
     </g>
    </g>
    <g id="line2d_40">
     <path d="
M417.26 325.822
L437.42 325.822" style="fill:none;stroke:#ff0000;stroke-dasharray:3.000000,6.000000;stroke-dashoffset:0.0;"/>
    </g>
    <g id="line2d_41"/>
    <g id="text_21">
     <!-- BSA -->
     <defs>
      <path d="
M64.5938 22.3594
Q64.5938 16.9375 62.5469 12.7812
Q60.5 8.64062 57.0312 5.95312
Q52.9375 2.73438 48.0156 1.35938
Q43.1094 0 35.5469 0
L9.76562 0
L9.76562 72.7031
L31.2969 72.7031
Q39.2656 72.7031 43.2188 72.1094
Q47.1719 71.5312 50.7812 69.6719
Q54.7812 67.5781 56.5938 64.2812
Q58.4062 60.9844 58.4062 56.3906
Q58.4062 51.2188 55.7656 47.5781
Q53.125 43.9531 48.7344 41.75
L48.7344 41.3594
Q56.1094 39.8438 60.3438 34.8906
Q64.5938 29.9375 64.5938 22.3594
M48.3438 55.125
Q48.3438 57.7656 47.4531 59.5625
Q46.5781 61.375 44.625 62.5
Q42.3281 63.8125 39.0625 64.125
Q35.7969 64.4531 30.9531 64.4531
L19.4375 64.4531
L19.4375 43.4531
L31.9375 43.4531
Q36.4688 43.4531 39.1562 43.9219
Q41.8438 44.3906 44.1406 45.8438
Q46.4375 47.3125 47.3906 49.625
Q48.3438 51.9531 48.3438 55.125
M54.5469 21.9688
Q54.5469 26.375 53.2188 28.9531
Q51.9062 31.5469 48.4375 33.3438
Q46.0938 34.5781 42.75 34.9375
Q39.4062 35.2969 34.625 35.2969
L19.4375 35.2969
L19.4375 8.25
L32.2344 8.25
Q38.5781 8.25 42.625 8.90625
Q46.6875 9.57812 49.2656 11.3281
Q52 13.2344 53.2656 15.6719
Q54.5469 18.1094 54.5469 21.9688" id="Verdana-42"/>
     </defs>
     <g transform="translate(453.26025 330.8625)scale(0.144 -0.144)">
      <use xlink:href="#Verdana-42"/>
      <use x="68.5546875" xlink:href="#Verdana-53"/>
      <use x="135.9140625" xlink:href="#Verdana-41"/>
     </g>
    </g>
    <g id="line2d_42">
     <path d="
M417.26 346.862
L437.42 346.862" style="fill:none;stroke:#00bfbf;stroke-dasharray:5.000000,1.000000,2.000000,1.000000,5.000000,1.000000;stroke-dashoffset:0.0;"/>
    </g>
    <g id="line2d_43"/>
    <g id="text_22">
     <!-- Cuckoo -->
     <defs>
      <path d="
M65.9219 5.28125
Q63.2344 4.10938 61.0625 3.07812
Q58.8906 2.04688 55.375 0.921875
Q52.3906 0 48.8906 -0.65625
Q45.4062 -1.3125 41.2188 -1.3125
Q33.2969 -1.3125 26.8281 0.90625
Q20.3594 3.125 15.5781 7.85938
Q10.8906 12.5 8.25 19.6562
Q5.60938 26.8125 5.60938 36.2812
Q5.60938 45.2656 8.14062 52.3438
Q10.6875 59.4219 15.4844 64.3125
Q20.125 69.0469 26.6875 71.5312
Q33.25 74.0312 41.2656 74.0312
Q47.125 74.0312 52.9531 72.6094
Q58.7969 71.1875 65.9219 67.625
L65.9219 56.1562
L65.1875 56.1562
Q59.1875 61.1875 53.2656 63.4688
Q47.3594 65.7656 40.625 65.7656
Q35.1094 65.7656 30.6875 63.9844
Q26.2656 62.2031 22.7969 58.4531
Q19.4375 54.7812 17.5469 49.1875
Q15.6719 43.6094 15.6719 36.2812
Q15.6719 28.6094 17.75 23.0938
Q19.8281 17.5781 23.0938 14.1094
Q26.5156 10.5 31.0781 8.76562
Q35.6406 7.03125 40.7188 7.03125
Q47.7031 7.03125 53.7969 9.42188
Q59.9062 11.8125 65.2344 16.6094
L65.9219 16.6094
z
" id="Verdana-43"/>
     </defs>
     <g transform="translate(453.26025 351.90225)scale(0.144 -0.144)">
      <use xlink:href="#Verdana-43"/>
      <use x="69.82421875" xlink:href="#Verdana-75"/>
      <use x="133.10546875" xlink:href="#Verdana-63"/>
      <use x="185.205078125" xlink:href="#Verdana-6b"/>
      <use x="243.384765625" xlink:href="#Verdana-6f"/>
      <use x="304.078125" xlink:href="#Verdana-6f"/>
     </g>
    </g>
    <g id="line2d_44">
     <path d="
M417.26 367.902
L437.42 367.902" style="fill:none;stroke:#bf00bf;stroke-linecap:square;"/>
    </g>
    <g id="line2d_45"/>
    <g id="text_23">
     <!-- qABC -->
     <defs>
      <path d="
M53.2656 -20.125
L44.0938 -20.125
L44.0938 6.15625
Q39.8438 2.48438 35.6406 0.703125
Q31.4531 -1.07812 26.5625 -1.07812
Q16.8438 -1.07812 11.0625 6.42188
Q5.28125 13.9219 5.28125 27.0938
Q5.28125 34.125 7.29688 39.5156
Q9.32812 44.9219 12.6406 48.5781
Q15.875 52.1562 20.2188 54.1094
Q24.5625 56.0625 29.3906 56.0625
Q33.7969 56.0625 37.1875 55.0781
Q40.5781 54.1094 44.0938 52.2031
L44.6719 54.5469
L53.2656 54.5469
z

M44.0938 13.875
L44.0938 44.7344
Q40.2812 46.4375 37.3438 47.1094
Q34.4219 47.7969 31 47.7969
Q23.0469 47.7969 18.8906 42.4062
Q14.75 37.0156 14.75 27.5469
Q14.75 17.9688 18.0938 12.8125
Q21.4375 7.67188 28.6094 7.67188
Q32.625 7.67188 36.625 9.40625
Q40.625 11.1406 44.0938 13.875" id="Verdana-71"/>
     </defs>
     <g transform="translate(453.26025 372.942)scale(0.144 -0.144)">
      <use xlink:href="#Verdana-71"/>
      <use x="62.3046875" xlink:href="#Verdana-41"/>
      <use x="130.6640625" xlink:href="#Verdana-42"/>
      <use x="199.21875" xlink:href="#Verdana-43"/>
     </g>
    </g>
   </g>
  </g>
 </g>
 <defs>
  <clipPath id="p7ff5b81e1d">
   <rect height="345.6" width="446.4" x="72.0" y="43.2"/>
  </clipPath>
 </defs>
</svg>
