<?xml version="1.0" encoding="utf-8" standalone="no"?>
<!DOCTYPE svg PUBLIC "-//W3C//DTD SVG 1.1//EN"
  "http://www.w3.org/Graphics/SVG/1.1/DTD/svg11.dtd">
<!-- Created with matplotlib (http://matplotlib.org/) -->
<svg height="432pt" version="1.1" viewBox="0 0 576 432" width="576pt" xmlns="http://www.w3.org/2000/svg" xmlns:xlink="http://www.w3.org/1999/xlink">
 <defs>
  <style type="text/css">
*{stroke-linecap:butt;stroke-linejoin:round;}
  </style>
 </defs>
 <g id="figure_1">
  <g id="patch_1">
   <path d="
M0 432
L576 432
L576 0
L0 0
z
" style="fill:#ffffff;"/>
  </g>
  <g id="axes_1">
   <g id="patch_2">
    <path d="
M72 388.8
L518.4 388.8
L518.4 43.2
L72 43.2
z
" style="fill:#ffffff;"/>
   </g>
   <g id="line2d_1">
    <path clip-path="url(#p7ff5b81e1d)" d="
M72 118.036
L72.8928 118.036
L73.0714 51.9857
L73.7856 51.9857
L73.9642 164.328
L74.6784 164.328
L74.857 99.5608
L75.5712 99.5608
L75.7498 86.5548
L76.464 86.5548
L76.6426 59.2689
L77.3568 59.2689
L77.5354 59.0183
L78.2496 59.0183
L78.4282 71.3214
L79.1424 71.3214
L79.321 88.2521
L80.0352 88.2521
L80.2138 102.642
L80.928 102.642
L81.1066 117.073
L81.8208 117.073
L81.9994 130.29
L82.7136 130.29
L82.8922 137.723
L83.6064 137.723
L83.785 140.887
L84.4992 140.887
L84.6778 143.416
L85.392 143.416
L85.5706 143.693
L86.2848 143.693
L86.4634 144.857
L87.1776 144.857
L87.3562 145.167
L88.9632 145.24
L89.1418 145.484
L90.7488 145.493
L90.9274 145.685
L94.4093 145.736
L94.5878 145.894
L95.3021 145.901
L95.4806 146.06
L96.9984 146.165
L97.0877 146.194
L97.2662 146.365
L97.9805 146.371
L98.159 146.522
L99.7661 146.63
L99.9446 146.717
L100.659 146.717
L100.837 146.886
L101.552 146.886
L101.73 147.019
L102.444 147.019
L102.712 147.466
L103.337 147.466
L103.694 147.782
L104.319 147.832
L104.498 148.106
L105.212 148.134
L105.391 148.237
L106.908 148.306
L106.998 148.385
L107.176 148.663
L108.783 148.747
L108.962 148.975
L109.676 148.993
L109.855 149.157
L110.569 149.167
L110.748 149.441
L113.158 149.544
L113.337 149.624
L113.515 149.744
L114.14 149.848
L114.319 150.056
L115.569 150.209
L115.926 150.318
L116.283 150.366
L116.908 150.42
L117.086 150.503
L117.801 150.564
L117.979 150.669
L118.693 150.688
L118.872 150.936
L119.765 150.975
L121.372 151.014
L121.55 151.172
L122.265 151.213
L122.443 151.336
L123.872 151.44
L124.229 151.69
L124.943 151.705
L125.122 151.992
L125.479 152.063
L126.014 152.154
L126.461 152.183
L127.621 152.247
L127.889 152.396
L128.425 152.396
L128.604 152.577
L129.139 152.6
L129.496 152.658
L129.675 152.839
L129.943 152.897
L130.3 152.897
L130.478 153.013
L131.103 153.031
L131.282 153.409
L138.246 154.038
L138.424 154.126
L140.924 154.403
L141.192 154.519
L141.817 154.619
L141.996 154.73
L145.745 155.093
L146.013 155.236
L148.156 155.62
L149.495 155.7
L149.852 155.76
L150.477 155.868
L155.566 156.648
L156.37 156.714
L156.548 156.905
L157.62 156.987
L158.691 157.157
L159.137 157.259
L159.405 157.325
L159.941 157.366
L160.119 157.575
L161.726 157.762
L162.084 158.004
L163.601 158.188
L163.78 158.316
L164.405 158.333
L164.673 158.491
L164.94 158.577
L165.565 158.659
L166.28 158.732
L166.637 158.809
L167.172 158.839
L167.44 158.977
L168.155 159.132
L170.029 159.533
L170.387 159.627
L172.708 159.909
L172.976 159.958
L173.779 160.105
L178.779 160.977
L180.743 161.352
L181.1 161.445
L183.421 161.916
L183.689 161.987
L185.028 162.112
L185.743 162.428
L186.011 162.439
L186.278 162.634
L188.153 162.819
L189.046 162.927
L191.546 163.33
L191.724 163.455
L193.599 163.778
L194.403 163.875
L194.671 163.939
L196.01 164.11
L196.546 164.248
L197.081 164.36
L206.991 166.407
L207.259 166.486
L207.706 166.603
L212.348 167.713
L212.616 167.827
L213.42 167.963
L220.294 169.308
L220.562 169.421
L221.276 169.463
L221.633 169.717
L222.348 169.823
L223.865 170.085
L224.937 170.52
L227.169 170.83
L227.526 170.995
L227.972 171.122
L230.74 171.587
L231.276 171.765
L232.168 171.862
L232.525 172.004
L232.883 172.069
L233.24 172.185
L233.775 172.245
L234.222 172.437
L235.293 172.642
L236.275 172.837
L236.454 172.971
L236.811 173.056
L237.168 173.08
L237.436 173.257
L238.329 173.436
L238.596 173.539
L239.936 173.809
L240.204 173.909
L243.685 174.508
L243.953 174.647
L246.721 174.993
L247.167 175.071
L247.792 175.183
L251.364 175.835
L251.721 175.88
L252.256 176.021
L252.613 176.096
L252.881 176.292
L253.774 176.454
L257.256 177.19
L258.506 177.639
L259.667 177.706
L259.934 177.869
L260.559 177.928
L260.738 178.143
L262.702 178.419
L265.023 178.904
L266.095 179.085
L266.273 179.194
L266.898 179.3
L267.077 179.433
L268.862 179.776
L269.13 179.872
L271.898 180.304
L273.505 180.615
L277.076 181.185
L277.701 181.288
L277.969 181.385
L278.148 181.502
L278.772 181.605
L279.219 181.696
L279.844 181.795
L280.201 181.886
L280.647 181.996
L281.719 182.161
L282.969 182.431
L283.504 182.536
L283.772 182.563
L284.219 182.655
L284.754 182.736
L285.379 182.841
L286.004 182.992
L286.54 183.064
L287.879 183.186
L288.147 183.255
L288.861 183.446
L290.29 183.702
L290.647 183.924
L291.45 184.11
L291.629 184.196
L292.343 184.302
L295.021 184.737
L295.289 184.812
L295.736 184.858
L296.004 184.978
L296.986 185.178
L298.057 185.353
L299.128 185.542
L299.753 185.849
L300.646 185.943
L301.717 186.15
L302.075 186.22
L302.342 186.486
L302.967 186.57
L303.324 186.696
L304.753 186.891
L305.021 187.054
L306.628 187.514
L306.896 187.694
L307.699 187.804
L307.878 187.927
L308.413 187.969
L311.895 188.532
L314.038 189.18
L314.484 189.284
L315.109 189.405
L315.645 189.508
L315.824 189.559
L316.002 189.712
L316.27 189.671
L316.449 189.847
L317.341 189.958
L317.877 190.07
L319.127 190.379
L319.484 190.541
L320.02 190.683
L321.448 191.001
L321.716 191.017
L321.895 191.131
L322.609 191.298
L322.788 191.376
L323.68 191.492
L326.448 192.082
L326.627 192.211
L326.894 192.256
L327.073 192.42
L327.519 192.477
L327.966 192.53
L329.841 192.96
L330.019 193.033
L330.644 193.114
L331.18 193.401
L331.626 193.514
L331.983 193.633
L332.43 193.767
L333.233 194.168
L333.412 194.368
L336.269 195.068
L336.447 195.287
L336.894 195.435
L337.072 195.485
L337.429 195.622
L337.608 195.627
L337.787 195.846
L338.501 195.978
L339.929 196.27
L340.197 196.364
L340.911 196.502
L341.179 196.601
L341.626 196.707
L342.34 196.985
L343.143 197.147
L344.125 197.458
L344.572 197.564
L345.197 197.687
L345.822 197.945
L346.357 198.073
L346.625 198.181
L346.715 198.194
L346.893 198.331
L348.054 198.668
L348.322 198.785
L349.036 198.918
L349.482 198.98
L349.929 199.088
L351.089 199.444
L351.446 199.574
L351.714 199.655
L352.161 199.734
L352.786 200.049
L353.321 200.088
L353.589 200.274
L354.393 200.394
L355.91 201.008
L356.178 201.195
L356.625 201.309
L356.982 201.506
L357.428 201.651
L357.696 201.72
L359.124 201.999
L359.749 202.185
L360.553 202.346
L360.821 202.434
L361.178 202.484
L361.446 202.75
L361.981 202.8
L362.339 202.854
L363.678 203.488
L364.035 203.545
L364.303 203.76
L366.713 204.184
L367.16 204.381
L368.945 204.785
L369.57 204.869
L369.838 205.1
L370.552 205.203
L371.088 205.419
L371.892 205.645
L372.07 205.671
L372.249 205.892
L374.213 206.208
L375.284 206.621
L376.177 206.751
L376.623 206.916
L376.802 207.14
L378.32 207.427
L378.588 207.575
L379.659 207.936
L379.837 208.166
L380.105 208.222
L380.641 208.49
L382.962 209.227
L383.676 209.338
L383.944 209.62
L384.301 209.746
L384.748 209.834
L386.355 210.342
L386.623 210.457
L387.337 210.675
L387.605 210.833
L387.962 210.876
L388.319 210.987
L391.265 211.745
L391.533 211.892
L391.801 211.923
L392.158 212.142
L392.426 212.206
L392.872 212.304
L394.122 212.658
L394.39 212.74
L396.711 213.141
L396.89 213.246
L397.515 213.371
L397.783 213.444
L398.14 213.565
L398.408 213.832
L402.961 214.986
L403.14 215.121
L403.229 215.119
L403.407 215.363
L403.675 215.498
L404.568 215.598
L405.639 215.969
L405.907 216.134
L406.532 216.24
L406.711 216.32
L407.157 216.387
L407.693 216.645
L408.05 216.704
L409.568 217.158
L409.746 217.271
L412.246 218.005
L412.425 218.137
L415.103 218.884
L417.424 219.389
L417.603 219.89
L418.049 220.014
L418.674 220.247
L418.942 220.292
L419.121 220.652
L420.103 220.854
L420.281 220.891
L420.46 221.039
L420.728 221.127
L420.996 221.322
L421.174 221.328
L421.353 221.501
L421.799 221.579
L422.513 221.811
L424.567 222.23
L425.192 222.327
L425.37 222.452
L426.977 222.79
L427.245 222.942
L428.138 223.111
L428.406 223.193
L428.941 223.394
L429.299 223.561
L429.745 223.736
L430.013 223.854
L430.816 224.045
L431.888 224.28
L432.066 224.457
L433.316 224.646
L433.852 224.923
L434.477 225.034
L434.923 225.159
L435.012 225.178
L435.191 225.336
L438.137 226.112
L438.762 226.195
L439.119 226.395
L439.566 226.525
L439.923 226.857
L440.191 226.939
L440.548 227.056
L442.78 227.898
L443.316 227.998
L443.583 228.106
L444.03 228.201
L444.476 228.331
L445.012 228.539
L449.387 229.674
L449.654 229.753
L449.833 229.854
L450.19 229.943
L450.369 230.064
L450.726 230.187
L451.44 230.372
L451.708 230.506
L451.886 230.512
L452.065 230.83
L453.761 231.2
L453.94 231.46
L454.386 231.713
L454.922 231.859
L455.279 231.948
L456.261 232.115
L456.708 232.22
L456.886 232.434
L457.243 232.527
L458.047 232.807
L458.404 232.966
L459.029 233.081
L459.207 233.349
L460.011 233.454
L460.279 233.544
L460.814 233.633
L462.868 234.504
L463.314 234.638
L464.564 235.029
L464.743 235.128
L465.368 235.172
L468.135 236.072
L468.403 236.335
L468.939 236.522
L469.117 236.729
L469.564 236.776
L469.832 236.888
L470.01 236.956
L470.189 237.09
L471.796 237.466
L471.974 237.592
L473.046 237.769
L474.564 238.285
L475.278 238.374
L475.456 238.506
L475.724 238.686
L476.438 238.79
L476.796 238.917
L477.242 239.041
L477.956 239.254
L478.849 239.519
L479.385 239.64
L479.563 239.695
L479.742 240.081
L479.831 240.086
L480.099 240.398
L480.813 240.595
L481.706 240.85
L482.242 240.979
L484.206 241.551
L484.474 241.769
L485.277 241.962
L485.724 242.22
L486.17 242.309
L488.759 242.948
L489.652 243.214
L490.009 243.257
L490.277 243.34
L491.259 243.509
L493.134 243.934
L493.312 244.065
L493.759 244.191
L494.205 244.324
L494.473 244.429
L494.83 244.508
L496.08 244.738
L496.348 244.86
L497.33 245.201
L498.133 245.292
L498.401 245.415
L498.848 245.485
L499.026 245.617
L499.473 245.773
L499.651 245.931
L500.187 246.116
L500.455 246.183
L500.812 246.295
L501.348 246.39
L501.705 246.529
L502.24 246.725
L502.508 246.846
L502.687 246.991
L506.972 248.368
L507.151 248.551
L507.776 248.661
L508.668 248.815
L508.847 249.052
L509.472 249.148
L510.276 249.326
L510.543 249.421
L513.043 250.506
L513.311 250.585
L513.579 250.812
L513.847 250.836
L514.025 250.968
L514.472 251.037
L516.079 251.721
L516.882 251.859
L517.15 252.006
L517.329 252.114
L517.686 252.191
L517.954 252.284
L518.311 252.347
L518.311 252.347" style="fill:none;stroke:#0000ff;stroke-dasharray:6.000000,2.000000;stroke-dashoffset:0.0;"/>
   </g>
   <g id="line2d_2">
    <path clip-path="url(#p7ff5b81e1d)" d="
M72 116.318
L72.2678 121.095
L72.5357 115.158
L72.8928 105.699
L73.4285 97.2289
L73.8749 85.4769
L73.9642 84.7855
L74.0534 85.0732
L74.232 82.2787
L74.3213 82.3473
L74.6784 78.5727
L74.7677 76.6468
L74.857 76.7229
L75.0355 75.3972
L75.1248 75.7493
L75.4819 72.9487
L75.6605 75.0745
L75.7498 74.3047
L75.9283 76.2347
L76.1069 77.6119
L76.1962 78.2775
L76.3747 80.3422
L77.089 82.9024
L77.1782 83.0196
L77.3568 83.7904
L77.5354 86.6336
L77.6246 85.8767
L77.8925 89.8148
L77.9818 90.7025
L78.071 90.3976
L78.2496 91.2718
L78.3389 91.7236
L78.5174 93.3807
L80.1245 106.825
L80.2138 106.915
L80.303 107.552
L80.3923 107.442
L80.6602 108.464
L80.7494 109.428
L80.8387 109.262
L81.1066 110.364
L81.8208 113.727
L81.9101 113.688
L82.1779 115.211
L82.3565 116.087
L82.4458 116.576
L82.535 116.35
L82.8922 118.308
L83.2493 118.555
L84.0528 122.405
L84.1421 122.049
L84.6778 123.358
L84.8563 123.286
L85.0349 123.12
L85.2134 123.638
L85.4813 124.097
L85.6598 124.462
L86.1062 124.919
L86.2848 124.783
L86.5526 125.337
L86.6419 125.341
L86.7312 125.614
L86.8205 125.577
L86.9098 125.586
L86.999 125.376
L87.0883 125.532
L87.1776 125.427
L87.5347 125.742
L87.624 125.663
L87.8026 126.233
L87.8918 126.174
L87.9811 126.172
L88.1597 126.484
L88.6061 126.954
L88.7846 126.896
L89.231 127.287
L89.4096 127.233
L90.0346 127.629
L90.3917 127.39
L90.6595 127.579
L90.7488 127.459
L90.9274 127.606
L91.0166 127.647
L91.1952 127.405
L91.3738 127.5
L91.463 127.467
L91.8202 127.962
L92.2666 127.991
L92.4451 127.863
L92.6237 128.117
L92.8022 128.204
L92.9808 128.347
L93.3379 128.394
L94.5878 128.495
L95.2128 128.335
L96.552 127.979
L96.6413 127.914
L96.8198 128.082
L97.3555 128.089
L100.034 127.755
L100.302 127.745
L101.462 127.722
L101.641 127.835
L104.766 127.941
L107.355 127.878
L107.712 127.829
L110.748 127.938
L115.658 128.112
L119.497 128.197
L119.676 128.271
L263.416 128.365
L518.311 128.365
L518.311 128.365" style="fill:none;stroke:#008000;stroke-dasharray:1.000000,1.000000;stroke-dashoffset:0.0;"/>
   </g>
   <g id="line2d_3">
    <path clip-path="url(#p7ff5b81e1d)" d="
M72 138.205
L72.0893 193.312
L72.1786 216.151
L72.4464 247.742
L72.7142 257.792
L72.8928 259.166
L72.9821 259.754
L73.0714 258.06
L73.1606 258.943
L73.4285 263.21
L73.5178 263.308
L73.607 263.113
L73.6963 263.482
L73.8749 259.508
L73.9642 259.083
L74.7677 249.574
L74.857 249.73
L75.0355 248.797
L75.2141 250.073
L75.3926 246.505
L75.4819 246.505
L75.6605 244.991
L75.839 247.063
L76.1069 242.789
L76.1962 242.739
L76.2854 242.193
L76.3747 242.256
L76.464 241.805
L76.5533 241.941
L76.6426 241.144
L76.8211 236.094
L76.9104 235.795
L76.9997 236.131
L77.3568 230.467
L77.5354 225.667
L77.6246 226.424
L77.7139 226.932
L77.8032 226.755
L78.071 227.969
L78.2496 225.664
L78.3389 226.629
L78.4282 225.602
L78.6067 221.003
L79.0531 220.392
L79.2317 218.981
L79.321 218.689
L79.4102 216.45
L79.4995 216.707
L79.6781 215.301
L79.7674 215.996
L79.9459 214.06
L80.1245 214.773
L80.2138 214.029
L80.3923 215.22
L80.4816 214.768
L80.5709 214.968
L80.7494 215.747
L80.8387 215.687
L80.928 216.337
L81.1066 210.702
L81.3744 204.159
L81.4637 204.586
L81.6422 205.629
L81.7315 203.274
L81.8208 203.875
L81.9994 202.418
L82.0886 202.783
L82.3565 204.142
L82.6243 202.606
L82.8922 205.367
L83.0707 203.644
L83.16 203.76
L83.3386 202.022
L83.785 203.891
L83.9635 205.18
L84.1421 205.981
L84.3206 202.642
L84.4099 202.61
L84.4992 202.703
L84.5885 202.601
L84.6778 203.091
L84.767 202.999
L84.8563 203.125
L85.0349 202.773
L85.2134 204.06
L85.3027 203.023
L85.392 203.191
L85.4813 203.756
L85.5706 203.172
L85.8384 204.002
L86.017 203.26
L86.1955 205.156
L86.2848 204.748
L86.3741 203.075
L86.4634 203.5
L86.7312 200.755
L86.999 203.118
L87.0883 201.973
L87.1776 199.376
L87.2669 199.905
L87.4454 201.142
L87.5347 200.532
L87.624 200.9
L87.7133 200.49
L87.8918 201.715
L88.0704 201.964
L88.1597 201.334
L88.249 201.548
L88.3382 201.174
L88.5168 202.935
L88.6954 201.296
L88.7846 201.792
L88.9632 200.057
L89.1418 201.903
L89.231 201.133
L89.4096 202.318
L89.5882 201.919
L89.6774 201.96
L89.7667 201.544
L89.856 202.124
L89.9453 201.227
L90.2131 204.38
L90.3024 204.221
L90.3917 205.063
L90.481 204.851
L90.5702 202.47
L90.6595 202.549
L90.8381 203.667
L91.1059 203.203
L91.2845 204
L91.463 203.478
L91.7309 205.267
L91.9987 206.831
L92.088 206.945
L92.1773 206.812
L92.4451 208.722
L92.6237 206.885
L92.713 206.627
L92.8022 206.928
L92.9808 206.348
L93.0701 206.232
L93.1594 205.731
L93.2486 205.858
L93.3379 206.381
L93.5165 205.305
L93.6058 206.764
L93.695 206.374
L93.8736 207.218
L93.9629 205.66
L94.1414 206.174
L94.2307 206.416
L94.4093 207.23
L94.7664 206.511
L94.8557 206.667
L94.945 205.801
L95.0342 205.937
L95.3021 204.908
L95.3914 204.976
L95.5699 202.844
L95.7485 201.635
L95.8378 201.679
L96.0163 201.813
L96.1056 202.162
L96.1949 201.928
L96.2842 201.985
L96.3734 202.071
L96.552 202.694
L96.9091 203.896
L97.0877 205.241
L97.177 205.45
L97.3555 203.403
L97.4448 202.945
L97.5341 203.136
L97.7126 205.247
L97.8912 206.07
L97.9805 205.827
L98.0698 206.003
L98.159 206.494
L98.3376 205.578
L98.4269 206.387
L98.5162 206.209
L98.6947 206.796
L98.784 207.397
L98.8733 207.113
L98.9626 207.663
L99.1411 206.356
L99.3197 206.628
L99.409 206.224
L99.5875 207.622
L99.8554 208.906
L99.9446 207.99
L100.034 208.29
L100.123 208.154
L100.212 208.244
L100.302 207.78
L100.391 207.91
L100.48 207.391
L100.57 207.769
L100.659 207.516
L100.837 209.136
L100.927 209.423
L101.016 209.141
L101.195 208.336
L101.284 208.4
L101.373 207.821
L101.462 208.08
L101.552 209.044
L101.641 208.93
L101.82 209.626
L101.909 209.916
L101.998 209.744
L102.087 209.088
L102.177 209.14
L102.266 208.962
L102.355 209.776
L102.623 208.816
L102.712 208.994
L102.802 209.563
L102.98 209.079
L103.069 209.355
L103.248 208.202
L103.427 205.339
L103.516 205.578
L103.605 204.951
L103.873 205.769
L103.962 205.775
L104.052 206.488
L104.23 206.083
L104.319 206.253
L104.409 206.182
L104.587 206.414
L104.766 204.433
L104.944 204.445
L105.034 205.252
L105.212 203.913
L105.301 204.042
L105.391 204.994
L105.569 204.329
L105.926 206.122
L106.016 206.026
L106.284 207.172
L106.373 206.773
L106.551 207.43
L106.73 206.292
L106.819 206.74
L107.176 207.842
L107.266 209.229
L107.444 208.039
L107.623 209.041
L107.712 209.326
L107.891 208.727
L108.158 209.94
L108.248 209.183
L108.337 209.345
L108.426 209.503
L108.516 209.138
L108.605 209.239
L108.694 209.754
L108.783 209.388
L108.873 210.353
L108.962 210.269
L109.051 210.464
L109.23 209.6
L109.498 210.206
L109.676 210.844
L109.765 211.733
L109.855 211.186
L110.123 212.182
L110.212 212.001
L110.301 212.046
L110.926 214.711
L111.015 214.742
L111.105 214.936
L111.194 214.542
L111.462 215.166
L111.551 214.871
L111.64 215.103
L111.73 214.923
L111.819 215.493
L111.908 215.465
L112.087 215.663
L112.265 216.082
L112.355 216.711
L112.533 216.394
L112.712 217.087
L112.801 216.449
L112.89 216.646
L112.98 216.425
L113.069 216.742
L113.247 216.37
L113.337 216.234
L113.426 215.883
L113.604 216.038
L113.783 216.091
L113.962 217.023
L114.051 216.921
L114.14 217.017
L114.319 216.719
L114.408 217.017
L114.497 215.816
L114.587 215.904
L114.854 215.893
L114.944 214.779
L115.033 215.29
L115.122 215.274
L115.212 215.381
L115.301 214.849
L115.39 214.929
L115.479 215.142
L115.569 214.961
L115.747 215.882
L115.926 215.427
L116.194 216.569
L116.283 216.75
L116.551 218.295
L116.64 218.236
L116.729 217.982
L116.997 218.518
L117.086 219.326
L117.176 219.14
L117.354 218.445
L117.533 219.296
L118.247 222.685
L118.426 221.798
L118.515 222.4
L118.693 221.993
L118.783 222.18
L118.872 222.639
L119.14 222.273
L119.229 222.492
L119.318 222.363
L119.497 223.277
L119.586 223.066
L119.943 224.425
L120.39 225.296
L120.479 225.343
L120.836 224.366
L120.925 224.504
L121.193 226.027
L121.283 225.72
L121.55 227.453
L121.64 227.376
L121.818 227.6
L121.908 227.669
L122.086 228.246
L122.265 228.239
L122.443 229.234
L122.532 229.458
L122.622 229.344
L122.711 229.555
L122.8 229.463
L123.425 232.502
L123.604 233.908
L123.693 234.02
L123.782 234.567
L123.961 234.408
L124.05 234.427
L124.229 235.476
L124.318 235.476
L124.407 235.357
L124.586 235.575
L124.764 235.255
L124.943 235.842
L125.032 235.828
L125.122 235.938
L125.211 235.832
L125.568 236.57
L125.657 236.328
L125.747 237.242
L125.836 237.139
L125.925 237.457
L126.104 238.708
L126.55 238.941
L126.729 239.465
L126.907 240.133
L127.264 240.799
L127.354 241.397
L127.443 241.305
L127.621 240.781
L127.711 240.817
L127.8 240.748
L128.246 243.7
L128.336 243.974
L128.425 243.482
L128.604 243.975
L128.693 243.822
L129.05 244.731
L129.139 244.716
L129.228 244.36
L129.407 244.727
L129.496 244.597
L129.675 244.819
L129.764 244.786
L129.943 244.241
L130.211 244.146
L130.836 245.899
L131.103 245.344
L131.193 245.448
L131.371 246.076
L131.907 247.464
L131.996 247.165
L132.175 247.583
L132.264 247.313
L132.353 247.368
L132.443 247.265
L132.621 247.74
L132.8 247.399
L132.889 247.528
L132.978 248.682
L133.068 248.574
L133.157 248.593
L133.335 248.9
L133.514 248.671
L133.692 249.713
L133.96 250.116
L134.05 250.161
L134.496 251.243
L134.585 251.659
L134.675 251.591
L134.853 252.06
L134.942 251.86
L135.21 252.353
L135.3 252.153
L135.657 252.552
L135.924 252.5
L136.282 253.414
L136.371 253.303
L136.549 253.167
L136.639 253.333
L136.817 253.297
L136.907 253.267
L136.996 253.036
L137.264 254.252
L137.353 254.284
L137.71 254.973
L137.889 255.071
L138.246 256.848
L138.514 256.872
L138.781 256.508
L139.139 257.145
L139.317 257.695
L139.496 257.864
L139.674 258.502
L139.764 258.904
L139.942 260.156
L140.21 261.13
L140.299 261.211
L140.388 261.077
L140.478 261.617
L140.567 261.513
L140.656 261.516
L140.835 262.658
L141.013 262.604
L141.103 262.936
L141.281 264.233
L141.817 266.889
L141.996 267.648
L142.085 267.685
L142.263 267.913
L142.353 267.653
L142.531 267.855
L142.799 269.081
L143.067 269.65
L143.156 270.425
L143.245 270.297
L143.335 270.446
L143.424 270.888
L143.513 270.818
L143.692 270.932
L143.781 271.153
L143.96 271.976
L144.049 272.065
L144.228 273.066
L144.495 274.509
L144.585 274.982
L144.674 274.882
L145.12 274.93
L145.299 275.125
L145.477 275.243
L145.567 275.152
L145.656 275.256
L145.745 276.02
L145.835 275.838
L146.102 276.213
L146.192 276.078
L146.37 277.697
L146.549 278.389
L146.727 278.443
L146.817 278.428
L147.263 279.321
L147.352 279.251
L147.531 279.951
L147.709 279.949
L147.888 282.117
L148.067 282.013
L148.513 283.182
L148.602 283.341
L148.692 283.279
L148.87 283.388
L149.763 283.206
L149.941 283.464
L150.031 283.531
L150.209 283.491
L150.477 284.039
L150.745 284.057
L150.924 285.843
L151.013 285.839
L151.191 286.138
L151.37 285.798
L151.459 285.787
L151.638 286.326
L151.727 286.783
L151.816 286.644
L151.995 286.734
L152.084 286.786
L152.173 286.7
L152.263 287.165
L152.441 287.005
L152.62 288.514
L152.709 288.379
L152.888 289.576
L153.066 289.474
L153.334 290.184
L153.513 290.333
L153.602 290.402
L153.691 290.711
L153.78 290.643
L153.87 290.566
L154.048 291.765
L154.138 291.703
L154.316 292.42
L154.495 292.496
L154.673 293.333
L154.852 293.336
L155.03 293.553
L155.298 293.666
L155.745 295.587
L156.012 296.311
L156.102 296.296
L156.191 296.587
L156.28 296.558
L156.37 296.48
L156.548 296.92
L156.637 296.955
L156.905 297.575
L157.084 297.459
L157.53 301.868
L157.62 301.818
L157.798 302.031
L157.977 301.97
L158.066 302.138
L158.244 302.682
L158.423 302.804
L158.602 303.51
L158.959 303.329
L159.137 304.115
L159.316 304.606
L159.405 304.653
L159.673 305.205
L159.762 305.205
L160.119 306.552
L160.209 306.496
L160.387 306.443
L160.566 308.166
L160.655 308.22
L160.744 308.141
L160.834 308.232
L161.012 308.507
L161.28 308.668
L161.459 308.808
L161.637 309.175
L161.816 309.193
L162.084 309.631
L162.262 309.625
L162.441 310.846
L162.53 310.8
L162.708 310.882
L162.976 310.772
L163.066 311.071
L163.155 311.027
L163.244 311.128
L163.512 311.821
L163.601 312.116
L163.691 312.089
L163.78 312.192
L163.958 313.399
L164.137 313.47
L164.226 313.47
L164.405 313.709
L164.583 313.743
L164.851 314.806
L165.03 314.827
L165.387 315.389
L165.655 315.361
L165.833 316.139
L166.19 316.816
L166.28 316.818
L166.458 317.455
L166.637 317.5
L166.994 317.562
L167.172 319.8
L167.262 319.776
L167.708 320.676
L168.155 320.711
L168.333 321.323
L169.047 322.374
L169.137 322.341
L169.404 322.49
L169.583 322.56
L169.762 322.901
L169.851 322.859
L169.94 323.749
L170.029 323.719
L170.833 326.158
L170.922 326.158
L171.369 327.445
L171.547 327.504
L171.636 328.046
L171.726 328.029
L171.815 328.09
L171.994 328.39
L172.083 328.386
L172.261 330.005
L172.976 331.923
L173.154 331.902
L173.333 332.194
L173.601 332.282
L174.136 332.449
L174.672 332.48
L174.94 332.799
L175.208 332.83
L175.476 333.446
L176.458 333.47
L176.547 333.587
L176.725 333.963
L176.815 333.963
L176.993 334.101
L177.172 335.924
L177.261 335.913
L177.44 336.823
L177.797 337.323
L179.047 337.28
L179.136 337.429
L179.315 338.082
L179.404 338.067
L179.672 340.964
L179.761 341.056
L179.94 341.342
L180.118 341.47
L180.207 341.472
L180.475 342.019
L180.654 342.257
L180.743 342.287
L181.1 343.54
L181.725 343.599
L182.529 345.855
L182.707 345.918
L182.886 346.456
L183.154 347.183
L183.421 347.289
L183.868 347.31
L184.046 347.489
L184.314 347.589
L184.493 347.815
L184.85 347.899
L184.939 349.672
L185.028 349.66
L185.386 350.053
L185.832 350.154
L186.368 350.248
L186.546 350.697
L186.636 350.721
L186.814 351.599
L187.171 351.586
L187.35 351.763
L187.707 351.843
L187.885 352.504
L188.064 352.685
L189.225 353.006
L189.403 353.222
L189.76 353.327
L189.939 354.026
L190.296 354.132
L190.385 354.515
L190.564 356.019
L190.653 356.019
L190.832 356.663
L191.278 356.697
L191.367 356.96
L191.546 357.729
L191.814 357.779
L192.171 358.062
L192.439 358.099
L192.617 358.329
L192.885 358.329
L193.064 358.859
L193.242 359.215
L193.689 359.297
L193.867 359.514
L194.581 359.522
L194.76 360.434
L195.028 360.829
L195.564 360.935
L195.921 361.006
L196.01 361.002
L196.188 361.41
L196.903 361.476
L196.992 361.48
L197.171 362.098
L197.438 362.189
L197.528 362.187
L197.706 362.843
L197.974 362.967
L198.242 363.1
L198.42 363.331
L199.045 363.43
L199.849 363.512
L200.474 363.721
L200.652 363.805
L201.01 363.846
L201.188 364.283
L201.545 364.288
L201.724 364.471
L202.081 364.471
L202.26 366.52
L202.617 366.562
L202.884 366.632
L203.063 366.63
L203.242 366.861
L203.688 366.94
L204.134 366.953
L204.313 367.055
L204.492 367.093
L204.67 367.269
L204.938 367.301
L205.116 367.653
L205.474 367.649
L205.652 367.885
L206.099 368.127
L206.366 368.137
L206.545 368.259
L206.902 368.259
L207.081 368.655
L207.17 368.655
L207.438 368.919
L207.706 368.997
L207.795 368.999
L207.973 369.131
L208.063 369.131
L208.331 369.633
L209.402 369.723
L209.67 369.799
L209.938 369.81
L210.116 370.031
L210.652 370.109
L210.83 370.183
L211.009 370.944
L211.366 370.947
L211.634 371.397
L211.991 371.433
L212.17 371.796
L212.616 371.809
L212.884 372.095
L213.42 372.14
L213.598 372.772
L214.223 372.82
L214.402 373.603
L214.669 373.644
L215.027 373.649
L215.205 374.052
L215.562 374.158
L215.741 374.938
L216.544 375.031
L217.259 375.177
L217.437 375.894
L218.151 375.962
L218.33 375.962
L218.508 376.45
L220.383 376.565
L220.562 376.71
L220.74 378.099
L222.169 378.191
L222.437 378.741
L223.151 378.741
L223.419 379.027
L224.49 379.124
L224.669 379.492
L225.294 379.507
L225.472 379.794
L225.919 379.848
L226.097 379.981
L226.544 380.084
L226.722 380.235
L227.704 380.259
L227.972 380.663
L230.204 380.709
L230.383 380.855
L231.097 380.855
L231.276 380.985
L231.99 381.031
L232.168 381.264
L232.704 381.337
L232.883 381.408
L233.15 381.408
L233.329 381.564
L234.936 381.654
L235.204 381.706
L236.275 381.766
L236.454 381.841
L236.632 381.841
L236.811 382.538
L238.329 382.573
L240.471 382.595
L240.65 382.718
L243.596 382.822
L244.578 382.872
L246.632 382.969
L246.9 383.028
L249.042 383.106
L249.31 383.164
L250.471 383.166
L250.649 383.279
L251.899 383.363
L252.078 383.544
L256.274 383.595
L256.452 383.842
L266.005 383.916
L266.184 385.069
L285.468 385.15
L285.647 386.169
L298.503 386.217
L298.682 386.438
L299.307 386.438
L299.485 387.248
L304.574 387.258
L304.753 388.287
L313.77 388.287
L313.949 388.8
L518.311 388.8
L518.311 388.8" style="fill:none;stroke:#ff0000;stroke-dasharray:3.000000,6.000000;stroke-dashoffset:0.0;"/>
   </g>
   <g id="line2d_4">
    <path clip-path="url(#p7ff5b81e1d)" d="
M72 107.129
L72.0893 179.261
L72.1786 206.843
L72.5357 239.91
L72.8928 250.35
L72.9821 250.517
L73.4285 257.492
L73.607 259.749
L73.6963 259.546
L74.4998 259.806
L74.6784 259.629
L75.2141 259.705
L75.3034 259.622
L75.4819 259.765
L75.9283 242.815
L76.2854 237.217
L76.464 235.641
L76.9997 229.316
L77.1782 228.017
L77.2675 226.98
L77.3568 227.012
L77.8032 227.178
L78.2496 227.329
L78.5174 227.407
L78.696 227.44
L79.0531 227.673
L79.321 218.819
L79.8566 206.508
L80.0352 204.6
L80.4816 198.453
L80.5709 198.775
L80.8387 196.627
L81.1958 196.842
L81.2851 196.894
L81.3744 196.75
L81.8208 197.165
L81.9101 196.999
L82.1779 197.22
L82.3565 197.249
L82.6243 197.359
L82.8029 194.258
L83.2493 185.052
L83.3386 185.233
L83.785 181.097
L84.0528 179.091
L84.4099 176.511
L85.1242 176.658
L85.2134 176.607
L85.392 176.691
L85.6598 176.75
L86.1955 176.985
L86.3741 173.94
L86.5526 171.145
L87.624 162.607
L87.8026 162.087
L87.9811 160.776
L88.0704 160.802
L88.6061 160.794
L88.9632 161.088
L89.231 161.011
L89.4096 161.036
L89.6774 161.003
L89.7667 161.103
L90.3024 156.114
L90.3917 155.575
L90.481 155.772
L90.5702 155.669
L90.9274 153.501
L91.0166 153.742
L91.3738 152.062
L91.5523 151.878
L91.8202 151.904
L92.088 152.311
L92.4451 152.469
L92.713 152.225
L93.1594 152.287
L93.3379 152.409
L93.6058 150.669
L93.695 150.918
L93.8736 151.75
L94.0522 149.845
L94.1414 149.795
L94.2307 149.418
L94.32 149.902
L94.4093 149.703
L94.4986 149.844
L94.5878 150.202
L94.6771 150.149
L94.7664 149.959
L94.8557 150.18
L95.0342 149.26
L95.2128 149.895
L95.3914 149.983
L95.6592 149.94
L95.8378 150.114
L96.0163 150.109
L96.2842 150.27
L96.552 150.316
L96.9984 150.571
L97.177 149.379
L97.5341 148.709
L97.6234 147.614
L97.7126 147.886
L97.8912 148.328
L98.3376 145.984
L98.4269 146.375
L98.6054 145.516
L98.6947 145.093
L98.784 145.184
L99.5875 145.454
L99.7661 145.553
L100.034 145.634
L100.212 145.804
L100.391 145.78
L100.48 145.842
L100.57 145.736
L100.659 145.842
L100.837 146.292
L101.016 146.898
L101.105 146.085
L101.195 146.195
L101.284 146.544
L101.373 146.248
L101.462 146.695
L101.552 146.653
L101.641 146.244
L101.82 146.963
L101.909 146.446
L102.087 146.807
L102.266 146.141
L102.444 146.168
L102.623 146.42
L103.427 146.537
L103.605 146.532
L104.052 146.572
L104.319 147.156
L104.498 146.379
L104.676 146.269
L104.855 146.791
L105.034 146.578
L105.391 147.665
L105.748 147.324
L105.926 147.657
L106.105 147.858
L106.819 147.956
L106.998 148.099
L107.623 148.204
L107.712 148.499
L107.801 148.349
L107.98 149.33
L108.337 149.916
L109.319 152.175
L109.498 152.528
L109.944 152.649
L110.48 152.658
L110.658 153.006
L111.194 153.297
L111.283 153.144
L111.462 153.425
L111.551 153.417
L111.908 154.829
L112.087 155.181
L112.176 155.321
L112.444 156.161
L112.98 158.388
L113.069 158.362
L113.604 158.481
L113.872 158.646
L114.14 158.665
L114.765 158.755
L114.854 158.986
L114.944 158.509
L115.212 159.473
L115.39 160.64
L115.569 161.087
L115.747 161.428
L116.015 161.741
L116.551 163.288
L117.086 163.344
L117.354 163.48
L118.068 163.578
L118.336 163.728
L118.515 164.787
L118.604 164.91
L119.051 166.868
L119.14 166.828
L119.408 167.52
L119.943 169.479
L120.033 169.347
L120.211 169.642
L121.908 170.138
L122.8 171.56
L123.068 172.159
L123.425 173.582
L123.693 174.449
L123.961 174.549
L124.14 174.76
L124.943 174.906
L125.479 175.4
L125.568 175.615
L125.925 177.269
L126.014 177.343
L126.193 177.634
L127.443 180.41
L128.157 180.622
L128.961 180.774
L129.05 180.796
L129.228 181.598
L129.496 182.742
L129.675 183.533
L129.764 183.483
L129.943 183.848
L130.211 184.004
L130.568 184.994
L130.925 186.005
L131.55 186.185
L131.907 186.287
L132.443 186.447
L132.621 186.49
L134.407 190.987
L136.192 191.261
L136.728 193.236
L136.996 193.876
L137.264 194.684
L137.442 194.925
L137.889 196.097
L138.156 196.19
L138.603 196.256
L138.781 196.544
L139.228 196.639
L139.406 196.738
L139.674 196.813
L139.853 196.907
L140.121 197.524
L140.21 197.524
L140.746 198.22
L140.924 198.235
L141.549 199.275
L142.442 199.378
L143.335 199.53
L144.406 202.189
L144.585 202.245
L144.674 202.203
L145.21 203.084
L147.084 203.13
L148.156 205.406
L148.424 205.648
L148.602 206.017
L149.941 206.209
L150.477 206.274
L150.924 207.393
L151.102 207.586
L151.281 208.024
L151.459 208.061
L151.638 208.44
L151.727 208.478
L152.352 209.537
L152.531 209.567
L152.709 209.718
L153.513 209.865
L154.048 210.061
L154.227 210.261
L154.495 211.003
L154.673 211.107
L155.03 212.052
L155.12 212.062
L155.388 212.689
L155.923 213.232
L156.816 213.308
L157.084 213.356
L157.709 213.491
L157.977 213.671
L158.244 214.038
L158.512 214.357
L159.494 215.959
L160.655 216.075
L161.012 216.115
L161.28 216.226
L161.637 216.517
L161.726 216.54
L161.905 216.773
L162.53 217.494
L162.798 217.898
L163.512 218.218
L164.762 218.278
L165.119 218.773
L165.387 218.98
L165.565 219.334
L165.833 219.44
L166.637 220.241
L168.333 220.363
L168.601 220.621
L168.869 220.74
L169.047 220.911
L169.226 221.1
L169.404 221.197
L170.029 221.796
L172.083 222.18
L173.065 222.962
L173.333 223.439
L173.958 223.677
L174.315 223.772
L174.583 223.834
L175.476 223.979
L175.833 224.247
L176.19 224.386
L176.547 224.758
L176.636 224.775
L176.904 225.055
L177.083 225.076
L177.261 225.224
L179.047 225.302
L179.493 225.92
L179.94 226.154
L181.1 226.759
L182.618 226.816
L183.154 227.295
L183.332 227.367
L183.511 227.572
L183.689 227.59
L183.868 227.828
L184.493 228.142
L185.832 228.297
L186.1 228.34
L186.278 228.433
L186.546 228.507
L186.903 228.595
L187.171 228.707
L187.796 229.212
L189.85 229.385
L190.028 229.556
L190.296 229.685
L190.742 230.006
L191.278 230.388
L191.635 230.425
L193.332 230.497
L194.224 231.089
L194.581 231.391
L194.671 231.399
L194.849 231.608
L196.099 232.087
L196.903 232.129
L198.063 233.121
L198.331 233.19
L198.867 233.573
L200.652 233.794
L200.92 234.03
L201.367 234.125
L201.635 234.462
L201.902 234.594
L202.17 234.638
L204.045 234.745
L204.313 234.954
L204.581 234.957
L204.759 235.205
L205.116 235.474
L205.474 235.844
L208.152 236.099
L208.331 236.347
L208.598 236.512
L208.866 236.612
L209.134 236.634
L209.402 236.797
L211.188 236.908
L211.545 237.184
L212.08 237.258
L212.348 237.337
L212.527 237.376
L212.705 237.457
L212.973 237.457
L213.152 237.581
L214.759 237.586
L215.027 237.931
L215.473 238.036
L215.741 238.122
L218.508 238.248
L218.687 238.433
L219.223 238.566
L219.401 238.687
L219.937 238.793
L220.205 238.843
L222.169 238.952
L224.222 239.303
L225.651 239.408
L225.829 239.565
L226.097 239.699
L226.276 239.775
L226.544 239.959
L227.258 240.151
L229.133 240.193
L229.311 240.454
L230.472 240.575
L230.829 240.663
L232.525 240.763
L233.508 241.017
L234.222 241.151
L236.454 241.188
L236.632 241.436
L237.347 241.522
L237.614 241.591
L238.15 241.843
L239.846 241.95
L240.65 242.079
L240.828 242.152
L242.257 242.259
L242.614 242.293
L243.685 242.393
L244.935 242.673
L247.524 242.711
L248.239 242.782
L248.596 242.832
L249.578 242.857
L250.739 242.937
L251.096 243.085
L251.364 243.129
L251.542 243.354
L255.203 243.773
L255.649 243.896
L258.952 244.168
L259.131 244.295
L261.363 244.305
L261.541 244.42
L261.72 244.42
L261.899 244.568
L262.613 244.67
L263.148 244.69
L265.559 244.775
L265.738 244.875
L266.095 244.981
L266.363 245.061
L266.809 245.13
L269.041 245.199
L269.309 245.278
L272.523 245.365
L272.88 245.481
L276.005 245.677
L276.183 245.762
L279.308 245.841
L279.487 245.917
L280.29 246.001
L280.469 246.104
L280.647 246.228
L281.183 246.249
L283.415 246.351
L283.594 246.424
L284.933 246.501
L287.165 246.762
L287.343 246.881
L289.843 246.976
L290.111 247.034
L293.325 247.14
L296.182 247.272
L298.325 247.364
L298.771 247.507
L301.896 247.611
L302.164 247.648
L302.342 247.782
L306.271 247.858
L306.539 247.961
L311.27 248.068
L313.145 248.151
L315.556 248.182
L315.734 248.266
L318.591 248.339
L318.77 248.554
L321.984 248.627
L322.252 248.759
L323.323 248.854
L324.037 249.041
L327.787 249.149
L328.144 249.185
L330.466 249.282
L330.733 249.331
L337.072 249.438
L339.572 249.475
L341.179 249.54
L341.447 249.601
L346.982 249.654
L347.25 249.768
L347.518 249.851
L347.697 249.973
L353.768 250.083
L362.071 250.35
L362.874 250.378
L369.749 250.466
L370.284 250.55
L373.409 250.61
L373.677 250.673
L379.391 250.784
L390.105 251.094
L393.944 251.173
L394.212 251.215
L404.032 251.314
L404.479 251.34
L405.372 251.45
L413.853 251.589
L451.44 251.699
L451.708 251.966
L453.136 251.973
L482.599 252.065
L483.134 252.085
L487.063 252.196
L487.331 252.243
L498.491 252.334
L498.848 252.373
L504.919 252.433
L505.097 252.516
L508.847 252.578
L509.115 252.63
L518.311 252.706
L518.311 252.706" style="fill:none;stroke:#00bfbf;stroke-dasharray:5.000000,1.000000,2.000000,1.000000,5.000000,1.000000;stroke-dashoffset:0.0;"/>
   </g>
   <g id="line2d_5">
    <path clip-path="url(#p7ff5b81e1d)" d="
M72 116.845
L72.0893 185.476
L72.1786 212.568
L72.4464 239.94
L72.7142 248.649
L72.9821 253.814
L73.2499 257.684
L73.3392 257.898
L73.7856 260.522
L73.8749 260.472
L73.9642 260.553
L74.4106 260.074
L74.6784 259.033
L75.0355 258.725
L75.1248 258.896
L75.3926 257.985
L75.4819 258.177
L76.1069 247.136
L76.5533 240.553
L76.9104 234.821
L77.2675 231.732
L77.4461 231.474
L77.7139 230.875
L77.8925 230.755
L78.071 230.289
L78.6067 229.535
L78.7853 229.063
L78.9638 228.929
L79.0531 228.604
L79.4102 223.624
L80.928 207.33
L81.1066 207.338
L81.6422 205.831
L81.8208 205.886
L82.6243 205.241
L84.4099 189.034
L84.767 188.875
L84.9456 188.582
L85.1242 188.608
L85.2134 188.553
L85.3027 188.677
L85.5706 188.46
L85.7491 188.21
L86.017 188.218
L87.3562 180.953
L87.5347 180.633
L87.8918 177.672
L88.0704 176.966
L88.1597 176.818
L88.3382 176.913
L88.6061 176.739
L88.8739 176.286
L89.1418 176.024
L89.231 176.158
L89.4989 175.909
L89.7667 176.082
L89.9453 175.471
L90.3024 174.441
L90.5702 173.488
L90.8381 172.322
L91.1952 170.904
L91.3738 170.408
L91.463 170.351
L91.5523 169.697
L91.6416 169.769
L91.8202 169.71
L92.5344 169.192
L92.8022 168.745
L93.3379 168.339
L94.0522 166.04
L94.1414 166.134
L94.2307 166.012
L94.5878 164.225
L94.6771 164.162
L94.8557 163.368
L95.0342 162.994
L95.3914 162.882
L95.6592 162.599
L95.8378 162.562
L96.1949 162.233
L96.9091 162.072
L96.9984 162.425
L97.0877 161.963
L97.2662 162.441
L97.6234 161.939
L97.8019 161.386
L98.3376 159.92
L98.4269 159.672
L98.5162 159.797
L98.784 159.278
L99.0518 159.139
L99.5875 158.762
L100.302 158.517
L100.48 158.388
L100.659 157.892
L100.748 157.71
L100.927 156.73
L101.016 156.785
L101.195 156.4
L101.552 156.566
L101.73 156.546
L101.998 155.852
L102.177 156.302
L102.355 156.165
L102.623 156.284
L102.802 156.286
L102.98 156.386
L103.159 156.375
L103.248 156.518
L103.784 156.233
L103.962 156.058
L104.052 155.998
L104.141 155.775
L104.23 155.82
L104.587 155.246
L104.766 155.372
L105.391 154.107
L105.48 154.178
L105.569 154.564
L106.016 154.05
L106.194 154.027
L106.551 154.063
L106.73 153.937
L106.819 153.845
L106.998 153.885
L107.087 153.858
L107.176 154.009
L107.355 153.985
L107.533 153.91
L107.623 153.951
L107.801 153.64
L107.98 154.005
L108.158 153.534
L108.248 153.514
L108.337 153.678
L108.516 153.587
L108.694 153.855
L109.14 152.881
L109.319 153.055
L109.498 152.969
L109.587 152.91
L110.033 153.223
L110.658 153.159
L110.837 153.099
L111.015 153.049
L111.194 153.148
L111.372 153.247
L111.551 153.076
L111.64 153.149
L111.73 153.389
L111.819 153.351
L111.997 153.008
L112.176 152.835
L112.265 153.004
L112.533 152.779
L112.712 152.888
L112.801 152.948
L112.89 152.73
L112.98 152.773
L113.337 152.67
L113.515 152.721
L113.783 152.652
L113.962 152.728
L114.765 152.737
L114.854 153.031
L114.944 152.911
L115.212 153.852
L115.479 153.54
L115.569 153.706
L115.658 153.638
L115.926 153.817
L116.015 153.806
L116.104 153.641
L116.64 153.972
L116.729 153.93
L116.997 154.127
L117.265 153.886
L117.444 153.892
L117.711 154.071
L117.89 154.046
L118.336 154.01
L118.426 154.134
L118.604 153.849
L118.961 153.793
L119.051 153.734
L119.14 153.898
L119.229 153.73
L119.497 153.972
L119.765 154.059
L119.854 154.064
L119.943 154.425
L120.033 154.371
L120.211 154.402
L120.39 154.427
L121.729 154.179
L121.997 154.046
L122.175 154.358
L122.265 154.314
L122.354 154.402
L122.532 154.281
L122.622 154.381
L122.89 154.156
L122.979 154.251
L123.336 153.887
L124.764 153.705
L125.211 153.783
L125.836 153.498
L126.014 153.321
L126.193 153.458
L126.282 153.374
L126.461 153.456
L126.639 153.356
L126.907 153.467
L127.175 153.269
L127.354 153.424
L128.336 153.487
L129.05 153.633
L129.139 153.601
L129.228 153.387
L129.318 153.526
L129.407 153.463
L129.853 153.604
L130.032 153.572
L130.121 153.726
L130.3 153.492
L130.657 153.57
L132.889 153.283
L133.068 153.485
L133.157 153.346
L133.335 153.454
L133.782 153.539
L134.05 153.412
L134.317 153.501
L134.585 153.473
L135.478 153.364
L135.657 153.29
L136.014 153.359
L136.46 153.296
L136.639 153.439
L136.996 153.483
L137.085 153.39
L137.174 153.565
L137.353 153.417
L138.246 153.302
L138.424 153.294
L139.764 153.343
L140.121 153.18
L140.299 153.245
L140.656 153.203
L140.835 153.205
L141.281 153.107
L141.46 153.169
L143.513 153.253
L143.781 153.171
L144.138 153.344
L144.317 153.313
L144.495 153.368
L144.674 153.437
L144.852 153.637
L145.12 153.506
L145.656 153.552
L145.924 153.495
L146.37 153.511
L147.799 153.389
L148.067 153.338
L148.424 153.342
L148.602 153.385
L149.316 153.314
L149.495 153.411
L150.388 153.385
L150.656 153.387
L151.013 153.26
L151.459 153.077
L153.513 152.989
L153.78 152.99
L155.03 152.98
L155.209 153.027
L155.566 152.851
L155.655 152.906
L155.745 153.092
L155.834 153.047
L156.459 153.1
L161.369 153.218
L161.994 153.095
L171.369 152.855
L172.44 152.895
L172.797 152.81
L177.172 152.99
L177.618 152.957
L180.475 152.869
L180.922 152.842
L183.332 152.748
L183.6 152.68
L184.136 152.67
L186.546 152.66
L204.134 152.533
L209.045 152.536
L210.205 152.523
L236.543 152.619
L236.9 152.665
L239.846 152.765
L240.471 152.795
L255.828 152.904
L257.077 152.912
L281.362 152.916
L281.54 153.058
L286.986 153.147
L287.254 153.213
L290.736 153.362
L292.075 153.359
L297.611 153.412
L297.878 153.497
L307.878 153.602
L308.86 153.613
L423.852 153.722
L424.924 153.75
L465.546 153.798
L465.725 153.909
L469.653 154.002
L470.01 154.035
L480.724 154.112
L480.992 154.155
L499.383 154.252
L500.098 154.267
L518.311 154.287
L518.311 154.287" style="fill:none;stroke:#bf00bf;stroke-linecap:square;"/>
   </g>
   <g id="matplotlib.axis_1">
    <g id="xtick_1">
     <g id="line2d_6">
      <defs>
       <path d="
M0 0
L0 -4" id="mc7db9fdffb" style="stroke:#000000;stroke-width:0.5;"/>
      </defs>
      <g>
       <use style="stroke:#000000;stroke-width:0.5;" x="72.0" xlink:href="#mc7db9fdffb" y="388.8"/>
      </g>
     </g>
     <g id="line2d_7">
      <defs>
       <path d="
M0 0
L0 4" id="m5a7d422ac3" style="stroke:#000000;stroke-width:0.5;"/>
      </defs>
      <g>
       <use style="stroke:#000000;stroke-width:0.5;" x="72.0" xlink:href="#m5a7d422ac3" y="43.2"/>
      </g>
     </g>
     <g id="text_1">
      <!-- 0 -->
      <defs>
       <path d="
M56.9844 36.375
Q56.9844 16.7969 50.8594 7.64062
Q44.7344 -1.51562 31.8438 -1.51562
Q18.75 -1.51562 12.7188 7.76562
Q6.6875 17.0469 6.6875 36.2812
Q6.6875 55.6719 12.7812 64.9219
Q18.8906 74.1719 31.8438 74.1719
Q44.9219 74.1719 50.9531 64.7656
Q56.9844 55.375 56.9844 36.375
M44.1406 14.2031
Q45.8438 18.1719 46.4531 23.5156
Q47.0781 28.8594 47.0781 36.375
Q47.0781 43.7969 46.4531 49.2656
Q45.8438 54.7344 44.0938 58.5469
Q42.3906 62.3125 39.4219 64.2031
Q36.4688 66.1094 31.8438 66.1094
Q27.25 66.1094 24.2344 64.2031
Q21.2344 62.3125 19.4844 58.4531
Q17.8281 54.8281 17.2188 49.0156
Q16.6094 43.2188 16.6094 36.2812
Q16.6094 28.6562 17.1406 23.5312
Q17.6719 18.4062 19.4375 14.3594
Q21.0469 10.5469 24 8.54688
Q26.9531 6.54688 31.8438 6.54688
Q36.4219 6.54688 39.4531 8.45312
Q42.4844 10.3594 44.1406 14.2031" id="Verdana-30"/>
      </defs>
      <g transform="translate(68.9821875 401.918125)scale(0.12 -0.12)">
       <use xlink:href="#Verdana-30"/>
      </g>
     </g>
    </g>
    <g id="xtick_2">
     <g id="line2d_8">
      <g>
       <use style="stroke:#000000;stroke-width:0.5;" x="161.28" xlink:href="#mc7db9fdffb" y="388.8"/>
      </g>
     </g>
     <g id="line2d_9">
      <g>
       <use style="stroke:#000000;stroke-width:0.5;" x="161.28" xlink:href="#m5a7d422ac3" y="43.2"/>
      </g>
     </g>
     <g id="text_2">
      <!-- 1000 -->
      <defs>
       <path d="
M52.9375 0
L13.5781 0
L13.5781 7.42188
L28.7188 7.42188
L28.7188 56.1562
L13.5781 56.1562
L13.5781 62.7969
Q16.6562 62.7969 20.1719 63.2969
Q23.6875 63.8125 25.4844 64.7969
Q27.7344 66.0156 29.0312 67.8906
Q30.3281 69.7812 30.5156 72.9531
L38.0938 72.9531
L38.0938 7.42188
L52.9375 7.42188
z
" id="Verdana-31"/>
      </defs>
      <g transform="translate(147.2315625 401.918125)scale(0.12 -0.12)">
       <use xlink:href="#Verdana-31"/>
       <use x="63.57421875" xlink:href="#Verdana-30"/>
       <use x="127.1484375" xlink:href="#Verdana-30"/>
       <use x="190.72265625" xlink:href="#Verdana-30"/>
      </g>
     </g>
    </g>
    <g id="xtick_3">
     <g id="line2d_10">
      <g>
       <use style="stroke:#000000;stroke-width:0.5;" x="250.56" xlink:href="#mc7db9fdffb" y="388.8"/>
      </g>
     </g>
     <g id="line2d_11">
      <g>
       <use style="stroke:#000000;stroke-width:0.5;" x="250.56" xlink:href="#m5a7d422ac3" y="43.2"/>
      </g>
     </g>
     <g id="text_3">
      <!-- 2000 -->
      <defs>
       <path d="
M57.0781 0
L7.85938 0
L7.85938 10.2031
Q12.9844 14.5938 18.1406 18.9844
Q23.2969 23.3906 27.7344 27.7344
Q37.1094 36.8125 40.5781 42.1562
Q44.0469 47.5156 44.0469 53.7188
Q44.0469 59.375 40.3125 62.5625
Q36.5781 65.7656 29.8906 65.7656
Q25.4375 65.7656 20.2656 64.2031
Q15.0938 62.6406 10.1562 59.4219
L9.67188 59.4219
L9.67188 69.6719
Q13.1406 71.3906 18.9219 72.7969
Q24.7031 74.2188 30.125 74.2188
Q41.3125 74.2188 47.6562 68.8125
Q54 63.4219 54 54.2031
Q54 50.0469 52.9531 46.4531
Q51.9062 42.875 49.8594 39.6562
Q47.9531 36.625 45.3906 33.6875
Q42.8281 30.7656 39.1562 27.2031
Q33.9375 22.0781 28.3594 17.2656
Q22.7969 12.4531 17.9688 8.34375
L57.0781 8.34375
z
" id="Verdana-32"/>
      </defs>
      <g transform="translate(236.1684375 401.918125)scale(0.12 -0.12)">
       <use xlink:href="#Verdana-32"/>
       <use x="63.57421875" xlink:href="#Verdana-30"/>
       <use x="127.1484375" xlink:href="#Verdana-30"/>
       <use x="190.72265625" xlink:href="#Verdana-30"/>
      </g>
     </g>
    </g>
    <g id="xtick_4">
     <g id="line2d_12">
      <g>
       <use style="stroke:#000000;stroke-width:0.5;" x="339.84" xlink:href="#mc7db9fdffb" y="388.8"/>
      </g>
     </g>
     <g id="line2d_13">
      <g>
       <use style="stroke:#000000;stroke-width:0.5;" x="339.84" xlink:href="#m5a7d422ac3" y="43.2"/>
      </g>
     </g>
     <g id="text_4">
      <!-- 3000 -->
      <defs>
       <path d="
M50.6875 35.0156
Q53.0312 32.9062 54.5469 29.7344
Q56.0625 26.5625 56.0625 21.5312
Q56.0625 16.5469 54.25 12.3906
Q52.4375 8.25 49.1719 5.17188
Q45.5156 1.76562 40.5469 0.125
Q35.5938 -1.51562 29.6875 -1.51562
Q23.6406 -1.51562 17.7812 -0.0625
Q11.9219 1.375 8.15625 3.07812
L8.15625 13.2812
L8.89062 13.2812
Q13.0312 10.5469 18.6406 8.73438
Q24.2656 6.9375 29.5 6.9375
Q32.5625 6.9375 36.0312 7.95312
Q39.5 8.98438 41.6562 10.9844
Q43.8906 13.1406 44.9844 15.7188
Q46.0938 18.3125 46.0938 22.2656
Q46.0938 26.1719 44.8438 28.7344
Q43.6094 31.2969 41.4062 32.7656
Q39.2031 34.2812 36.0781 34.8438
Q32.9531 35.4062 29.3438 35.4062
L24.9531 35.4062
L24.9531 43.5
L28.375 43.5
Q35.7969 43.5 40.2031 46.5938
Q44.625 49.7031 44.625 55.6719
Q44.625 58.2969 43.5 60.2656
Q42.3906 62.25 40.375 63.5312
Q38.2812 64.7969 35.8906 65.2812
Q33.5 65.7656 30.4688 65.7656
Q25.8281 65.7656 20.5938 64.1094
Q15.375 62.4531 10.75 59.4219
L10.25 59.4219
L10.25 69.625
Q13.7188 71.3438 19.5 72.7812
Q25.2969 74.2188 30.7188 74.2188
Q36.0312 74.2188 40.0781 73.2344
Q44.1406 72.2656 47.4062 70.125
Q50.9219 67.7812 52.7344 64.4531
Q54.5469 61.1406 54.5469 56.6875
Q54.5469 50.6406 50.2656 46.125
Q46 41.6094 40.1875 40.4375
L40.1875 39.75
Q42.5312 39.3594 45.5469 38.1094
Q48.5781 36.8594 50.6875 35.0156" id="Verdana-33"/>
      </defs>
      <g transform="translate(325.46625 401.918125)scale(0.12 -0.12)">
       <use xlink:href="#Verdana-33"/>
       <use x="63.57421875" xlink:href="#Verdana-30"/>
       <use x="127.1484375" xlink:href="#Verdana-30"/>
       <use x="190.72265625" xlink:href="#Verdana-30"/>
      </g>
     </g>
    </g>
    <g id="xtick_5">
     <g id="line2d_14">
      <g>
       <use style="stroke:#000000;stroke-width:0.5;" x="429.12" xlink:href="#mc7db9fdffb" y="388.8"/>
      </g>
     </g>
     <g id="line2d_15">
      <g>
       <use style="stroke:#000000;stroke-width:0.5;" x="429.12" xlink:href="#m5a7d422ac3" y="43.2"/>
      </g>
     </g>
     <g id="text_5">
      <!-- 4000 -->
      <defs>
       <path d="
M58.7344 20.4531
L47.9531 20.4531
L47.9531 0
L38.5781 0
L38.5781 20.4531
L3.76562 20.4531
L3.76562 31.6875
L38.9688 72.7031
L47.9531 72.7031
L47.9531 28.2656
L58.7344 28.2656
z

M38.5781 28.2656
L38.5781 61.0781
L10.4062 28.2656
z
" id="Verdana-34"/>
      </defs>
      <g transform="translate(414.4828125 401.918125)scale(0.12 -0.12)">
       <use xlink:href="#Verdana-34"/>
       <use x="63.57421875" xlink:href="#Verdana-30"/>
       <use x="127.1484375" xlink:href="#Verdana-30"/>
       <use x="190.72265625" xlink:href="#Verdana-30"/>
      </g>
     </g>
    </g>
    <g id="xtick_6">
     <g id="line2d_16">
      <g>
       <use style="stroke:#000000;stroke-width:0.5;" x="518.4" xlink:href="#mc7db9fdffb" y="388.8"/>
      </g>
     </g>
     <g id="line2d_17">
      <g>
       <use style="stroke:#000000;stroke-width:0.5;" x="518.4" xlink:href="#m5a7d422ac3" y="43.2"/>
      </g>
     </g>
     <g id="text_6">
      <!-- 5000 -->
      <defs>
       <path d="
M56.5 23.0938
Q56.5 18.0156 54.6406 13.375
Q52.7812 8.73438 49.5625 5.5625
Q46.0469 2.15625 41.1875 0.3125
Q36.3281 -1.51562 29.9375 -1.51562
Q23.9688 -1.51562 18.4531 -0.265625
Q12.9375 0.984375 9.125 2.73438
L9.125 13.0312
L9.8125 13.0312
Q13.8125 10.5 19.1875 8.71875
Q24.5625 6.9375 29.7344 6.9375
Q33.2031 6.9375 36.4531 7.90625
Q39.7031 8.89062 42.2344 11.3281
Q44.3906 13.4219 45.4844 16.3438
Q46.5781 19.2812 46.5781 23.1406
Q46.5781 26.9062 45.2812 29.4844
Q44 32.0781 41.7031 33.6406
Q39.1562 35.5 35.5156 36.25
Q31.8906 37.0156 27.3906 37.0156
Q23.0938 37.0156 19.1094 36.4219
Q15.1406 35.8438 12.25 35.25
L12.25 72.7031
L56 72.7031
L56 64.1562
L21.6875 64.1562
L21.6875 44.8281
Q23.7812 45.0156 25.9688 45.1094
Q28.1719 45.2188 29.7812 45.2188
Q35.6875 45.2188 40.125 44.2188
Q44.5781 43.2188 48.2969 40.6719
Q52.2031 37.9844 54.3438 33.7344
Q56.5 29.5 56.5 23.0938" id="Verdana-35"/>
      </defs>
      <g transform="translate(504.084375 401.918125)scale(0.12 -0.12)">
       <use xlink:href="#Verdana-35"/>
       <use x="63.57421875" xlink:href="#Verdana-30"/>
       <use x="127.1484375" xlink:href="#Verdana-30"/>
       <use x="190.72265625" xlink:href="#Verdana-30"/>
      </g>
     </g>
    </g>
    <g id="text_7">
     <!-- Objective function exectuions -->
     <defs>
      <path d="
M57.0312 27.6875
Q57.0312 20.8438 55.0938 15.375
Q53.1719 9.90625 49.9062 6.20312
Q46.4375 2.34375 42.2812 0.40625
Q38.1406 -1.51562 33.1562 -1.51562
Q28.5156 -1.51562 25.0469 -0.40625
Q21.5781 0.6875 18.2188 2.54688
L17.625 0
L9.03125 0
L9.03125 75.9844
L18.2188 75.9844
L18.2188 48.8281
Q22.0781 52 26.4219 54.0312
Q30.7656 56.0625 36.1875 56.0625
Q45.8438 56.0625 51.4375 48.6406
Q57.0312 41.2188 57.0312 27.6875
M47.5625 27.4375
Q47.5625 37.2031 44.3281 42.25
Q41.1094 47.3125 33.9375 47.3125
Q29.9375 47.3125 25.8281 45.5781
Q21.7344 43.8438 18.2188 41.1094
L18.2188 9.85938
Q22.125 8.10938 24.9219 7.42188
Q27.7344 6.73438 31.2969 6.73438
Q38.9219 6.73438 43.2344 11.7344
Q47.5625 16.75 47.5625 27.4375" id="Verdana-62"/>
      <path d="
M56.2031 54.5469
L34.125 0
L24.9062 0
L2.98438 54.5469
L12.9375 54.5469
L29.8281 11.1406
L46.5781 54.5469
z
" id="Verdana-76"/>
      <path d="
M56.25 0
L44.6719 0
L29.2031 20.9531
L13.625 0
L2.9375 0
L24.2188 27.2031
L3.125 54.5469
L14.7031 54.5469
L30.0781 33.9375
L45.5156 54.5469
L56.25 54.5469
L34.8125 27.6875
z
" id="Verdana-78"/>
      <path d="
M54.6875 26.3125
L14.5 26.3125
Q14.5 21.2969 16.0156 17.5469
Q17.5312 13.8125 20.1719 11.4219
Q22.7031 9.07812 26.1875 7.90625
Q29.6875 6.73438 33.8906 6.73438
Q39.4531 6.73438 45.0938 8.95312
Q50.7344 11.1875 53.125 13.3281
L53.6094 13.3281
L53.6094 3.32812
Q48.9688 1.375 44.1406 0.046875
Q39.3125 -1.26562 33.9844 -1.26562
Q20.4062 -1.26562 12.7812 6.07812
Q5.17188 13.4219 5.17188 26.9531
Q5.17188 40.3281 12.4688 48.1875
Q19.7812 56.0625 31.6875 56.0625
Q42.7188 56.0625 48.7031 49.6094
Q54.6875 43.1719 54.6875 31.2969
z

M45.75 33.3438
Q45.7031 40.5781 42.1094 44.5312
Q38.5312 48.4844 31.2031 48.4844
Q23.8281 48.4844 19.4531 44.1406
Q15.0938 39.7969 14.5 33.3438
z
" id="Verdana-65"/>
      <path d="
M49.3594 3.42188
Q44.7812 1.21875 40.6562 0
Q36.5312 -1.21875 31.8906 -1.21875
Q25.9844 -1.21875 21.0469 0.515625
Q16.1094 2.25 12.5938 5.76562
Q9.03125 9.28125 7.07812 14.6406
Q5.125 20.0156 5.125 27.2031
Q5.125 40.5781 12.4688 48.1875
Q19.8281 55.8125 31.8906 55.8125
Q36.5781 55.8125 41.0938 54.4844
Q45.6094 53.1719 49.3594 51.2656
L49.3594 41.0625
L48.875 41.0625
Q44.6719 44.3438 40.2031 46.0938
Q35.75 47.8594 31.5 47.8594
Q23.6875 47.8594 19.1719 42.6094
Q14.6562 37.3594 14.6562 27.2031
Q14.6562 17.3281 19.0625 12.0312
Q23.4844 6.73438 31.5 6.73438
Q34.2812 6.73438 37.1562 7.46875
Q40.0469 8.20312 42.3281 9.375
Q44.3438 10.4062 46.0938 11.5469
Q47.8594 12.7031 48.875 13.5312
L49.3594 13.5312
z
" id="Verdana-63"/>
      <path d="
M26.0312 63.6719
L15.6719 63.6719
L15.6719 73.1875
L26.0312 73.1875
z

M25.4375 -1.3125
Q25.4375 -10.8906 20.5469 -15.7656
Q15.6719 -20.6562 7.46875 -20.6562
Q5.51562 -20.6562 2.3125 -20.2656
Q-0.875 -19.875 -3.03125 -19.2812
L-3.03125 -10.5469
L-2.54688 -10.5469
Q-1.17188 -11.0781 1.14062 -11.7656
Q3.46875 -12.4531 5.67188 -12.4531
Q9.1875 -12.4531 11.3281 -11.4688
Q13.4844 -10.5 14.5469 -8.54688
Q15.625 -6.59375 15.9375 -3.82812
Q16.2656 -1.07812 16.2656 2.875
L16.2656 46.8281
L4.89062 46.8281
L4.89062 54.5469
L25.4375 54.5469
z
" id="Verdana-6a"/>
      <path d="
M18.8906 63.6719
L8.54688 63.6719
L8.54688 73.1875
L18.8906 73.1875
z

M18.3125 0
L9.125 0
L9.125 54.5469
L18.3125 54.5469
z
" id="Verdana-69"/>
      <path d="
M54.6406 0
L45.4531 0
L45.4531 31.0625
Q45.4531 34.8125 45.0156 38.1094
Q44.5781 41.4062 43.4062 43.2656
Q42.1875 45.3125 39.8906 46.3125
Q37.5938 47.3125 33.9375 47.3125
Q30.1719 47.3125 26.0625 45.4531
Q21.9688 43.6094 18.2188 40.7188
L18.2188 0
L9.03125 0
L9.03125 54.5469
L18.2188 54.5469
L18.2188 48.4844
Q22.5156 52.0469 27.0938 54.0469
Q31.6875 56.0625 36.5312 56.0625
Q45.3594 56.0625 50 50.7344
Q54.6406 45.4062 54.6406 35.4062
z
" id="Verdana-6e"/>
      <path d="
M48 15.7188
Q48 8.25 41.8125 3.46875
Q35.6406 -1.3125 24.9531 -1.3125
Q18.8906 -1.3125 13.8438 0.125
Q8.79688 1.5625 5.375 3.26562
L5.375 13.5781
L5.85938 13.5781
Q10.2031 10.2969 15.5156 8.375
Q20.8438 6.45312 25.7344 6.45312
Q31.7812 6.45312 35.2031 8.40625
Q38.625 10.3594 38.625 14.5469
Q38.625 17.7812 36.7656 19.4375
Q34.9062 21.0938 29.6406 22.2656
Q27.6875 22.7031 24.5312 23.2812
Q21.3906 23.875 18.7969 24.5625
Q11.625 26.4688 8.60938 30.1562
Q5.60938 33.8438 5.60938 39.2031
Q5.60938 42.5781 7 45.5469
Q8.40625 48.5312 11.2344 50.875
Q13.9688 53.1719 18.1875 54.5156
Q22.4062 55.8594 27.6406 55.8594
Q32.5156 55.8594 37.5156 54.6562
Q42.5312 53.4688 45.8438 51.7656
L45.8438 41.9375
L45.3594 41.9375
Q41.8438 44.5312 36.8125 46.3125
Q31.7812 48.0938 26.9531 48.0938
Q21.9219 48.0938 18.4531 46.1562
Q14.9844 44.2344 14.9844 40.4375
Q14.9844 37.0625 17.0938 35.3594
Q19.1406 33.6406 23.7344 32.5625
Q26.2656 31.9844 29.4062 31.3906
Q32.5625 30.8125 34.6719 30.3281
Q41.0625 28.8594 44.5312 25.2969
Q48 21.6875 48 15.7188" id="Verdana-73"/>
      <path d="
M38.375 67.0938
L37.8906 67.0938
Q36.375 67.5312 33.9375 67.9844
Q31.5 68.4531 29.6406 68.4531
Q23.7344 68.4531 21.0625 65.8438
Q18.4062 63.2344 18.4062 56.3906
L18.4062 54.5469
L34.9688 54.5469
L34.9688 46.8281
L18.7031 46.8281
L18.7031 0
L9.51562 0
L9.51562 46.8281
L3.32812 46.8281
L3.32812 54.5469
L9.51562 54.5469
L9.51562 56.3438
Q9.51562 66.0625 14.3438 71.2656
Q19.1875 76.4688 28.3281 76.4688
Q31.3906 76.4688 33.8594 76.1719
Q36.3281 75.875 38.375 75.4844
z
" id="Verdana-66"/>
      <path id="Verdana-20"/>
      <path d="
M63.9688 64.3594
Q68.4062 59.4688 70.7656 52.3906
Q73.1406 45.3125 73.1406 36.3281
Q73.1406 27.3438 70.7188 20.2344
Q68.3125 13.1406 63.9688 8.40625
Q59.4688 3.46875 53.3438 0.96875
Q47.2188 -1.51562 39.3594 -1.51562
Q31.6875 -1.51562 25.4062 1.01562
Q19.1406 3.5625 14.75 8.40625
Q10.3594 13.2344 7.98438 20.2656
Q5.60938 27.2969 5.60938 36.3281
Q5.60938 45.2188 7.95312 52.2656
Q10.2969 59.3281 14.7969 64.3594
Q19.0938 69.1406 25.4688 71.6719
Q31.8438 74.2188 39.3594 74.2188
Q47.1719 74.2188 53.3906 71.6562
Q59.625 69.0938 63.9688 64.3594
M63.0938 36.3281
Q63.0938 50.4844 56.7344 58.1719
Q50.3906 65.875 39.4062 65.875
Q28.3281 65.875 22 58.1719
Q15.6719 50.4844 15.6719 36.3281
Q15.6719 22.0156 22.1094 14.4219
Q28.5625 6.84375 39.4062 6.84375
Q50.25 6.84375 56.6719 14.4219
Q63.0938 22.0156 63.0938 36.3281" id="Verdana-4f"/>
      <path d="
M55.5156 27.25
Q55.5156 13.9219 48.6719 6.20312
Q41.8438 -1.51562 30.375 -1.51562
Q18.7969 -1.51562 11.9844 6.20312
Q5.17188 13.9219 5.17188 27.25
Q5.17188 40.5781 11.9844 48.3125
Q18.7969 56.0625 30.375 56.0625
Q41.8438 56.0625 48.6719 48.3125
Q55.5156 40.5781 55.5156 27.25
M46.0469 27.25
Q46.0469 37.8438 41.8906 42.9844
Q37.75 48.1406 30.375 48.1406
Q22.9062 48.1406 18.7812 42.9844
Q14.6562 37.8438 14.6562 27.25
Q14.6562 17 18.7969 11.6875
Q22.9531 6.39062 30.375 6.39062
Q37.7031 6.39062 41.875 11.6406
Q46.0469 16.8906 46.0469 27.25" id="Verdana-6f"/>
      <path d="
M37.3594 0.484375
Q34.7656 -0.203125 31.7031 -0.640625
Q28.6562 -1.07812 26.2656 -1.07812
Q17.9219 -1.07812 13.5781 3.40625
Q9.23438 7.90625 9.23438 17.8281
L9.23438 46.8281
L3.03125 46.8281
L3.03125 54.5469
L9.23438 54.5469
L9.23438 70.2188
L18.4062 70.2188
L18.4062 54.5469
L37.3594 54.5469
L37.3594 46.8281
L18.4062 46.8281
L18.4062 21.9688
Q18.4062 17.6719 18.5938 15.25
Q18.7969 12.8438 19.9688 10.75
Q21.0469 8.79688 22.9219 7.89062
Q24.8125 6.98438 28.6562 6.98438
Q30.9062 6.98438 33.3438 7.64062
Q35.7969 8.29688 36.8594 8.73438
L37.3594 8.73438
z
" id="Verdana-74"/>
      <path d="
M54.25 0
L45.0625 0
L45.0625 6.0625
Q40.4375 2.39062 36.1875 0.4375
Q31.9375 -1.51562 26.8125 -1.51562
Q18.2188 -1.51562 13.4219 3.73438
Q8.64062 8.98438 8.64062 19.1406
L8.64062 54.5469
L17.8281 54.5469
L17.8281 23.4844
Q17.8281 19.3438 18.2188 16.375
Q18.6094 13.4219 19.875 11.3281
Q21.1875 9.1875 23.2812 8.20312
Q25.3906 7.23438 29.3906 7.23438
Q32.9531 7.23438 37.1719 9.07812
Q41.4062 10.9375 45.0625 13.8125
L45.0625 54.5469
L54.25 54.5469
z
" id="Verdana-75"/>
     </defs>
     <g transform="translate(206.5078125 418.509375)scale(0.12 -0.12)">
      <use xlink:href="#Verdana-4f"/>
      <use x="78.7109375" xlink:href="#Verdana-62"/>
      <use x="141.015625" xlink:href="#Verdana-6a"/>
      <use x="175.439453125" xlink:href="#Verdana-65"/>
      <use x="235.009765625" xlink:href="#Verdana-63"/>
      <use x="287.109375" xlink:href="#Verdana-74"/>
      <use x="326.513671875" xlink:href="#Verdana-69"/>
      <use x="353.955078125" xlink:href="#Verdana-76"/>
      <use x="412.259765625" xlink:href="#Verdana-65"/>
      <use x="471.830078125" xlink:href="#Verdana-20"/>
      <use x="506.986328125" xlink:href="#Verdana-66"/>
      <use x="542.142578125" xlink:href="#Verdana-75"/>
      <use x="605.423828125" xlink:href="#Verdana-6e"/>
      <use x="668.705078125" xlink:href="#Verdana-63"/>
      <use x="720.8046875" xlink:href="#Verdana-74"/>
      <use x="760.208984375" xlink:href="#Verdana-69"/>
      <use x="787.650390625" xlink:href="#Verdana-6f"/>
      <use x="848.34375" xlink:href="#Verdana-6e"/>
      <use x="911.625" xlink:href="#Verdana-20"/>
      <use x="946.78125" xlink:href="#Verdana-65"/>
      <use x="1006.3515625" xlink:href="#Verdana-78"/>
      <use x="1064.40625" xlink:href="#Verdana-65"/>
      <use x="1123.9765625" xlink:href="#Verdana-63"/>
      <use x="1176.076171875" xlink:href="#Verdana-74"/>
      <use x="1215.48046875" xlink:href="#Verdana-75"/>
      <use x="1278.76171875" xlink:href="#Verdana-69"/>
      <use x="1306.203125" xlink:href="#Verdana-6f"/>
      <use x="1366.896484375" xlink:href="#Verdana-6e"/>
      <use x="1430.177734375" xlink:href="#Verdana-73"/>
     </g>
    </g>
   </g>
   <g id="matplotlib.axis_2">
    <g id="ytick_1">
     <g id="line2d_18">
      <defs>
       <path d="
M0 0
L4 0" id="md7965d1ba0" style="stroke:#000000;stroke-width:0.5;"/>
      </defs>
      <g>
       <use style="stroke:#000000;stroke-width:0.5;" x="72.0" xlink:href="#md7965d1ba0" y="388.8"/>
      </g>
     </g>
     <g id="line2d_19">
      <defs>
       <path d="
M0 0
L-4 0" id="md9a1c1a7cd" style="stroke:#000000;stroke-width:0.5;"/>
      </defs>
      <g>
       <use style="stroke:#000000;stroke-width:0.5;" x="518.4" xlink:href="#md9a1c1a7cd" y="388.8"/>
      </g>
     </g>
     <g id="text_8">
      <!-- 0 -->
      <g transform="translate(61.964375 392.1515625)scale(0.12 -0.12)">
       <use xlink:href="#Verdana-30"/>
      </g>
     </g>
    </g>
    <g id="ytick_2">
     <g id="line2d_20">
      <g>
       <use style="stroke:#000000;stroke-width:0.5;" x="72.0" xlink:href="#md7965d1ba0" y="331.2"/>
      </g>
     </g>
     <g id="line2d_21">
      <g>
       <use style="stroke:#000000;stroke-width:0.5;" x="518.4" xlink:href="#md9a1c1a7cd" y="331.2"/>
      </g>
     </g>
     <g id="text_9">
      <!-- 50000 -->
      <g transform="translate(31.739375 334.5515625)scale(0.12 -0.12)">
       <use xlink:href="#Verdana-35"/>
       <use x="63.57421875" xlink:href="#Verdana-30"/>
       <use x="127.1484375" xlink:href="#Verdana-30"/>
       <use x="190.72265625" xlink:href="#Verdana-30"/>
       <use x="254.296875" xlink:href="#Verdana-30"/>
      </g>
     </g>
    </g>
    <g id="ytick_3">
     <g id="line2d_22">
      <g>
       <use style="stroke:#000000;stroke-width:0.5;" x="72.0" xlink:href="#md7965d1ba0" y="273.6"/>
      </g>
     </g>
     <g id="line2d_23">
      <g>
       <use style="stroke:#000000;stroke-width:0.5;" x="518.4" xlink:href="#md9a1c1a7cd" y="273.6"/>
      </g>
     </g>
     <g id="text_10">
      <!-- 100000 -->
      <g transform="translate(24.644375 276.9515625)scale(0.12 -0.12)">
       <use xlink:href="#Verdana-31"/>
       <use x="63.57421875" xlink:href="#Verdana-30"/>
       <use x="127.1484375" xlink:href="#Verdana-30"/>
       <use x="190.72265625" xlink:href="#Verdana-30"/>
       <use x="254.296875" xlink:href="#Verdana-30"/>
       <use x="317.87109375" xlink:href="#Verdana-30"/>
      </g>
     </g>
    </g>
    <g id="ytick_4">
     <g id="line2d_24">
      <g>
       <use style="stroke:#000000;stroke-width:0.5;" x="72.0" xlink:href="#md7965d1ba0" y="216.0"/>
      </g>
     </g>
     <g id="line2d_25">
      <g>
       <use style="stroke:#000000;stroke-width:0.5;" x="518.4" xlink:href="#md9a1c1a7cd" y="216.0"/>
      </g>
     </g>
     <g id="text_11">
      <!-- 150000 -->
      <g transform="translate(24.644375 219.3515625)scale(0.12 -0.12)">
       <use xlink:href="#Verdana-31"/>
       <use x="63.57421875" xlink:href="#Verdana-35"/>
       <use x="127.1484375" xlink:href="#Verdana-30"/>
       <use x="190.72265625" xlink:href="#Verdana-30"/>
       <use x="254.296875" xlink:href="#Verdana-30"/>
       <use x="317.87109375" xlink:href="#Verdana-30"/>
      </g>
     </g>
    </g>
    <g id="ytick_5">
     <g id="line2d_26">
      <g>
       <use style="stroke:#000000;stroke-width:0.5;" x="72.0" xlink:href="#md7965d1ba0" y="158.4"/>
      </g>
     </g>
     <g id="line2d_27">
      <g>
       <use style="stroke:#000000;stroke-width:0.5;" x="518.4" xlink:href="#md9a1c1a7cd" y="158.4"/>
      </g>
     </g>
     <g id="text_12">
      <!-- 200000 -->
      <g transform="translate(23.958125 161.7515625)scale(0.12 -0.12)">
       <use xlink:href="#Verdana-32"/>
       <use x="63.57421875" xlink:href="#Verdana-30"/>
       <use x="127.1484375" xlink:href="#Verdana-30"/>
       <use x="190.72265625" xlink:href="#Verdana-30"/>
       <use x="254.296875" xlink:href="#Verdana-30"/>
       <use x="317.87109375" xlink:href="#Verdana-30"/>
      </g>
     </g>
    </g>
    <g id="ytick_6">
     <g id="line2d_28">
      <g>
       <use style="stroke:#000000;stroke-width:0.5;" x="72.0" xlink:href="#md7965d1ba0" y="100.8"/>
      </g>
     </g>
     <g id="line2d_29">
      <g>
       <use style="stroke:#000000;stroke-width:0.5;" x="518.4" xlink:href="#md9a1c1a7cd" y="100.8"/>
      </g>
     </g>
     <g id="text_13">
      <!-- 250000 -->
      <g transform="translate(23.958125 104.1515625)scale(0.12 -0.12)">
       <use xlink:href="#Verdana-32"/>
       <use x="63.57421875" xlink:href="#Verdana-35"/>
       <use x="127.1484375" xlink:href="#Verdana-30"/>
       <use x="190.72265625" xlink:href="#Verdana-30"/>
       <use x="254.296875" xlink:href="#Verdana-30"/>
       <use x="317.87109375" xlink:href="#Verdana-30"/>
      </g>
     </g>
    </g>
    <g id="ytick_7">
     <g id="line2d_30">
      <g>
       <use style="stroke:#000000;stroke-width:0.5;" x="72.0" xlink:href="#md7965d1ba0" y="43.2"/>
      </g>
     </g>
     <g id="line2d_31">
      <g>
       <use style="stroke:#000000;stroke-width:0.5;" x="518.4" xlink:href="#md9a1c1a7cd" y="43.2"/>
      </g>
     </g>
     <g id="text_14">
      <!-- 300000 -->
      <g transform="translate(23.99375 46.5515625)scale(0.12 -0.12)">
       <use xlink:href="#Verdana-33"/>
       <use x="63.57421875" xlink:href="#Verdana-30"/>
       <use x="127.1484375" xlink:href="#Verdana-30"/>
       <use x="190.72265625" xlink:href="#Verdana-30"/>
       <use x="254.296875" xlink:href="#Verdana-30"/>
       <use x="317.87109375" xlink:href="#Verdana-30"/>
      </g>
     </g>
    </g>
    <g id="text_15">
     <!-- Standard Deviation -->
     <defs>
      <path d="
M51.4219 0
L42.2812 0
L42.2812 5.8125
Q41.0625 4.98438 38.9844 3.48438
Q36.9219 2 34.9688 1.125
Q32.6719 0 29.6875 -0.75
Q26.7031 -1.51562 22.7031 -1.51562
Q15.3281 -1.51562 10.2031 3.35938
Q5.07812 8.25 5.07812 15.8281
Q5.07812 22.0156 7.73438 25.8438
Q10.4062 29.6875 15.3281 31.8906
Q20.3125 34.0781 27.2969 34.8594
Q34.2812 35.6406 42.2812 36.0312
L42.2812 37.4531
Q42.2812 40.5781 41.1875 42.625
Q40.0938 44.6719 38.0312 45.8438
Q36.0781 46.9688 33.3438 47.3594
Q30.6094 47.75 27.6406 47.75
Q24.0312 47.75 19.5781 46.7969
Q15.1406 45.8438 10.4062 44.0469
L9.90625 44.0469
L9.90625 53.375
Q12.5938 54.1094 17.6719 54.9844
Q22.75 55.8594 27.6875 55.8594
Q33.4531 55.8594 37.7188 54.9062
Q42 53.9531 45.125 51.6562
Q48.1875 49.4219 49.7969 45.8438
Q51.4219 42.2812 51.4219 37.0156
z

M42.2812 13.4219
L42.2812 28.6094
Q38.0938 28.375 32.3906 27.875
Q26.7031 27.3906 23.3906 26.4688
Q19.4375 25.3438 16.9844 22.9688
Q14.5469 20.6094 14.5469 16.4531
Q14.5469 11.7656 17.375 9.39062
Q20.2188 7.03125 26.0312 7.03125
Q30.8594 7.03125 34.8594 8.90625
Q38.875 10.7969 42.2812 13.4219" id="Verdana-61"/>
      <path d="
M71.1875 36.2812
Q71.1875 26.375 66.8594 18.3125
Q62.5469 10.25 55.375 5.8125
Q50.3906 2.73438 44.2656 1.35938
Q38.1406 0 28.125 0
L9.76562 0
L9.76562 72.7031
L27.9375 72.7031
Q38.5781 72.7031 44.8438 71.1562
Q51.125 69.625 55.4688 66.9375
Q62.8906 62.3125 67.0312 54.5938
Q71.1875 46.875 71.1875 36.2812
M61.0781 36.4219
Q61.0781 44.9688 58.0938 50.8281
Q55.125 56.6875 49.2188 60.0625
Q44.9219 62.5 40.0781 63.4531
Q35.25 64.4062 28.5156 64.4062
L19.4375 64.4062
L19.4375 8.29688
L28.5156 8.29688
Q35.5 8.29688 40.7031 9.32812
Q45.9062 10.3594 50.25 13.1406
Q55.6719 16.6094 58.375 22.2656
Q61.0781 27.9375 61.0781 36.4219" id="Verdana-44"/>
      <path d="
M43.0625 44.5312
L42.5781 44.5312
Q40.5312 45.0156 38.5938 45.2344
Q36.6719 45.4531 34.0312 45.4531
Q29.7812 45.4531 25.8281 43.5781
Q21.875 41.7031 18.2188 38.7188
L18.2188 0
L9.03125 0
L9.03125 54.5469
L18.2188 54.5469
L18.2188 46.4844
Q23.6875 50.875 27.8594 52.7031
Q32.0312 54.5469 36.375 54.5469
Q38.7656 54.5469 39.8438 54.4219
Q40.9219 54.2969 43.0625 53.9531
z
" id="Verdana-72"/>
      <path d="
M62.5938 20.75
Q62.5938 16.5 60.6094 12.3438
Q58.6406 8.20312 55.0781 5.32812
Q51.1719 2.20312 45.9688 0.4375
Q40.7656 -1.3125 33.4531 -1.3125
Q25.5938 -1.3125 19.3125 0.140625
Q13.0312 1.60938 6.54688 4.5
L6.54688 16.6094
L7.23438 16.6094
Q12.75 12.0156 19.9688 9.51562
Q27.2031 7.03125 33.5469 7.03125
Q42.5312 7.03125 47.5312 10.3906
Q52.5469 13.7656 52.5469 19.3906
Q52.5469 24.2188 50.1719 26.5156
Q47.7969 28.8125 42.9688 30.0781
Q39.3125 31.0625 35.0312 31.6875
Q30.7656 32.3281 25.9844 33.2969
Q16.3125 35.3594 11.6406 40.3125
Q6.98438 45.2656 6.98438 53.2188
Q6.98438 62.3594 14.6875 68.1875
Q22.4062 74.0312 34.2812 74.0312
Q41.9375 74.0312 48.3281 72.5625
Q54.7344 71.0938 59.6719 68.9531
L59.6719 57.5156
L58.9844 57.5156
Q54.8281 61.0312 48.0625 63.3438
Q41.3125 65.6719 34.2344 65.6719
Q26.4688 65.6719 21.75 62.4531
Q17.0469 59.2344 17.0469 54.1562
Q17.0469 49.6094 19.3906 47.0156
Q21.7344 44.4375 27.6406 43.0625
Q30.7656 42.3906 36.5156 41.4062
Q42.2812 40.4375 46.2969 39.4062
Q54.3906 37.25 58.4844 32.9062
Q62.5938 28.5625 62.5938 20.75" id="Verdana-53"/>
      <path d="
M53.2656 0
L44.0938 0
L44.0938 5.71875
Q40.1406 2.29688 35.8438 0.390625
Q31.5469 -1.51562 26.5156 -1.51562
Q16.75 -1.51562 11.0156 6
Q5.28125 13.5312 5.28125 26.8594
Q5.28125 33.7969 7.25 39.2031
Q9.23438 44.625 12.5938 48.4375
Q15.9219 52.1562 20.3281 54.1094
Q24.75 56.0625 29.5 56.0625
Q33.7969 56.0625 37.1094 55.1562
Q40.4375 54.25 44.0938 52.3438
L44.0938 75.9844
L53.2656 75.9844
z

M44.0938 13.4219
L44.0938 44.7344
Q40.375 46.3906 37.4375 47.0156
Q34.5156 47.6562 31.0625 47.6562
Q23.3438 47.6562 19.0469 42.2812
Q14.75 36.9219 14.75 27.0469
Q14.75 17.3281 18.0625 12.2812
Q21.3906 7.23438 28.7188 7.23438
Q32.625 7.23438 36.625 8.95312
Q40.625 10.6875 44.0938 13.4219" id="Verdana-64"/>
     </defs>
     <g transform="translate(16.543125 273.5465625)rotate(-90.0)scale(0.12 -0.12)">
      <use xlink:href="#Verdana-53"/>
      <use x="68.359375" xlink:href="#Verdana-74"/>
      <use x="107.763671875" xlink:href="#Verdana-61"/>
      <use x="167.822265625" xlink:href="#Verdana-6e"/>
      <use x="231.103515625" xlink:href="#Verdana-64"/>
      <use x="293.408203125" xlink:href="#Verdana-61"/>
      <use x="353.466796875" xlink:href="#Verdana-72"/>
      <use x="396.142578125" xlink:href="#Verdana-64"/>
      <use x="458.447265625" xlink:href="#Verdana-20"/>
      <use x="493.603515625" xlink:href="#Verdana-44"/>
      <use x="570.654296875" xlink:href="#Verdana-65"/>
      <use x="630.224609375" xlink:href="#Verdana-76"/>
      <use x="689.404296875" xlink:href="#Verdana-69"/>
      <use x="716.845703125" xlink:href="#Verdana-61"/>
      <use x="776.904296875" xlink:href="#Verdana-74"/>
      <use x="816.30859375" xlink:href="#Verdana-69"/>
      <use x="843.75" xlink:href="#Verdana-6f"/>
      <use x="904.443359375" xlink:href="#Verdana-6e"/>
     </g>
    </g>
   </g>
   <g id="patch_3">
    <path d="
M72 43.2
L518.4 43.2" style="fill:none;stroke:#000000;"/>
   </g>
   <g id="patch_4">
    <path d="
M72 388.8
L72 43.2" style="fill:none;stroke:#000000;"/>
   </g>
   <g id="patch_5">
    <path d="
M518.4 388.8
L518.4 43.2" style="fill:none;stroke:#000000;"/>
   </g>
   <g id="patch_6">
    <path d="
M72 388.8
L518.4 388.8" style="fill:none;stroke:#000000;"/>
   </g>
   <g id="text_16">
    <!-- Sargan Standard Deviation -->
    <defs>
     <path d="
M53.2656 6.20312
Q53.2656 -7.67188 46.9688 -14.1562
Q40.6719 -20.6562 27.5938 -20.6562
Q23.25 -20.6562 19.1094 -20.0469
Q14.9844 -19.4375 10.9844 -18.3125
L10.9844 -8.9375
L11.4688 -8.9375
Q13.7188 -9.8125 18.5938 -11.1094
Q23.4844 -12.4062 28.375 -12.4062
Q33.0625 -12.4062 36.125 -11.2812
Q39.2031 -10.1562 40.9219 -8.15625
Q42.625 -6.25 43.3594 -3.5625
Q44.0938 -0.875 44.0938 2.4375
L44.0938 7.42188
Q39.9375 4.10938 36.1562 2.46875
Q32.375 0.828125 26.5156 0.828125
Q16.75 0.828125 11.0156 7.875
Q5.28125 14.9375 5.28125 27.7812
Q5.28125 34.8125 7.25 39.9062
Q9.23438 45.0156 12.6406 48.7344
Q15.8281 52.2031 20.3594 54.125
Q24.9062 56.0625 29.3906 56.0625
Q34.125 56.0625 37.3281 55.1094
Q40.5312 54.1562 44.0938 52.2031
L44.6719 54.5469
L53.2656 54.5469
z

M44.0938 14.9844
L44.0938 44.7344
Q40.4375 46.3906 37.2812 47.0938
Q34.125 47.7969 31 47.7969
Q23.4375 47.7969 19.0938 42.7188
Q14.75 37.6406 14.75 27.9844
Q14.75 18.7969 17.9688 14.0625
Q21.1875 9.32812 28.6562 9.32812
Q32.6719 9.32812 36.6875 10.8594
Q40.7188 12.4062 44.0938 14.9844" id="Verdana-67"/>
    </defs>
    <g transform="translate(197.926875 38.2)scale(0.144 -0.144)">
     <use xlink:href="#Verdana-53"/>
     <use x="68.359375" xlink:href="#Verdana-61"/>
     <use x="128.41796875" xlink:href="#Verdana-72"/>
     <use x="171.09375" xlink:href="#Verdana-67"/>
     <use x="233.3984375" xlink:href="#Verdana-61"/>
     <use x="293.45703125" xlink:href="#Verdana-6e"/>
     <use x="356.73828125" xlink:href="#Verdana-20"/>
     <use x="391.89453125" xlink:href="#Verdana-53"/>
     <use x="460.25390625" xlink:href="#Verdana-74"/>
     <use x="499.658203125" xlink:href="#Verdana-61"/>
     <use x="559.716796875" xlink:href="#Verdana-6e"/>
     <use x="622.998046875" xlink:href="#Verdana-64"/>
     <use x="685.302734375" xlink:href="#Verdana-61"/>
     <use x="745.361328125" xlink:href="#Verdana-72"/>
     <use x="788.037109375" xlink:href="#Verdana-64"/>
     <use x="850.341796875" xlink:href="#Verdana-20"/>
     <use x="885.498046875" xlink:href="#Verdana-44"/>
     <use x="962.548828125" xlink:href="#Verdana-65"/>
     <use x="1022.119140625" xlink:href="#Verdana-76"/>
     <use x="1081.298828125" xlink:href="#Verdana-69"/>
     <use x="1108.740234375" xlink:href="#Verdana-61"/>
     <use x="1168.798828125" xlink:href="#Verdana-74"/>
     <use x="1208.203125" xlink:href="#Verdana-69"/>
     <use x="1235.64453125" xlink:href="#Verdana-6f"/>
     <use x="1296.337890625" xlink:href="#Verdana-6e"/>
    </g>
   </g>
   <g id="legend_1">
    <g id="patch_7">
     <path d="
M407.18 381.6
L511.2 381.6
L511.2 272.081
L407.18 272.081
L407.18 381.6
z
" style="fill:#ffffff;stroke:#000000;"/>
    </g>
    <g id="line2d_32">
     <path d="
M417.26 283.743
L437.42 283.743" style="fill:none;stroke:#0000ff;stroke-dasharray:6.000000,2.000000;stroke-dashoffset:0.0;"/>
    </g>
    <g id="line2d_33"/>
    <g id="text_17">
     <!-- AMPGO -->
     <defs>
      <path d="
M74.5156 0
L64.8438 0
L64.8438 62.6406
L44.625 20.0156
L38.875 20.0156
L18.7969 62.6406
L18.7969 0
L9.76562 0
L9.76562 72.7031
L22.9531 72.7031
L42.3281 32.2344
L61.0781 72.7031
L74.5156 72.7031
z
" id="Verdana-4d"/>
      <path d="
M57.3281 50.7344
Q57.3281 45.9062 55.6406 41.7656
Q53.9531 37.6406 50.9219 34.625
Q47.1719 30.8594 42.0469 28.9688
Q36.9219 27.0938 29.1094 27.0938
L19.4375 27.0938
L19.4375 0
L9.76562 0
L9.76562 72.7031
L29.5 72.7031
Q36.0312 72.7031 40.5781 71.6094
Q45.125 70.5156 48.6406 68.1719
Q52.7812 65.375 55.0469 61.2188
Q57.3281 57.0781 57.3281 50.7344
M47.2656 50.4844
Q47.2656 54.25 45.9375 57.0312
Q44.625 59.8125 41.9375 61.5781
Q39.5938 63.0938 36.5938 63.75
Q33.5938 64.4062 29 64.4062
L19.4375 64.4062
L19.4375 35.3594
L27.5938 35.3594
Q33.4531 35.3594 37.1094 36.4062
Q40.7656 37.4531 43.0625 39.75
Q45.3594 42.0938 46.3125 44.6719
Q47.2656 47.2656 47.2656 50.4844" id="Verdana-50"/>
      <path d="
M70.4062 5.375
Q64.4531 2.64062 57.3906 0.609375
Q50.3438 -1.42188 43.75 -1.42188
Q35.25 -1.42188 28.1719 0.921875
Q21.0938 3.26562 16.1094 7.95312
Q11.0781 12.7031 8.34375 19.7969
Q5.60938 26.9062 5.60938 36.4219
Q5.60938 53.8594 15.7969 63.9375
Q25.9844 74.0312 43.75 74.0312
Q49.9531 74.0312 56.4219 72.5312
Q62.8906 71.0469 70.3594 67.4844
L70.3594 56
L69.4844 56
Q67.9688 57.1719 65.0781 59.0781
Q62.2031 60.9844 59.4219 62.25
Q56.0625 63.7656 51.7812 64.7656
Q47.5156 65.7656 42.0938 65.7656
Q29.8906 65.7656 22.7812 57.9219
Q15.6719 50.0938 15.6719 36.7188
Q15.6719 22.6094 23.0938 14.7656
Q30.5156 6.9375 43.3125 6.9375
Q48 6.9375 52.6562 7.85938
Q57.3281 8.79688 60.8438 10.25
L60.8438 28.0781
L41.3594 28.0781
L41.3594 36.5781
L70.4062 36.5781
z
" id="Verdana-47"/>
      <path d="
M67.0938 0
L56.7812 0
L49.6562 20.2656
L18.2188 20.2656
L11.0781 0
L1.26562 0
L27.7344 72.7031
L40.625 72.7031
z

M46.6875 28.5625
L33.9375 64.2656
L21.1406 28.5625
z
" id="Verdana-41"/>
     </defs>
     <g transform="translate(453.26025 288.783)scale(0.144 -0.144)">
      <use xlink:href="#Verdana-41"/>
      <use x="68.359375" xlink:href="#Verdana-4d"/>
      <use x="152.63671875" xlink:href="#Verdana-50"/>
      <use x="212.939453125" xlink:href="#Verdana-47"/>
      <use x="290.478515625" xlink:href="#Verdana-4f"/>
     </g>
    </g>
    <g id="line2d_34">
     <path d="
M417.26 304.783
L437.42 304.783" style="fill:none;stroke:#008000;stroke-dasharray:1.000000,1.000000;stroke-dashoffset:0.0;"/>
    </g>
    <g id="line2d_35"/>
    <g id="text_18">
     <!-- Anneal -->
     <defs>
      <path d="
M18.3125 0
L9.125 0
L9.125 75.9844
L18.3125 75.9844
z
" id="Verdana-6c"/>
     </defs>
     <g transform="translate(453.26025 309.82275)scale(0.144 -0.144)">
      <use xlink:href="#Verdana-41"/>
      <use x="68.359375" xlink:href="#Verdana-6e"/>
      <use x="131.640625" xlink:href="#Verdana-6e"/>
      <use x="194.921875" xlink:href="#Verdana-65"/>
      <use x="254.4921875" xlink:href="#Verdana-61"/>
      <use x="314.55078125" xlink:href="#Verdana-6c"/>
     </g>
    </g>
    <g id="line2d_36">
     <path d="
M417.26 325.822
L437.42 325.822" style="fill:none;stroke:#ff0000;stroke-dasharray:3.000000,6.000000;stroke-dashoffset:0.0;"/>
    </g>
    <g id="line2d_37"/>
    <g id="text_19">
     <!-- BSA -->
     <defs>
      <path d="
M64.5938 22.3594
Q64.5938 16.9375 62.5469 12.7812
Q60.5 8.64062 57.0312 5.95312
Q52.9375 2.73438 48.0156 1.35938
Q43.1094 0 35.5469 0
L9.76562 0
L9.76562 72.7031
L31.2969 72.7031
Q39.2656 72.7031 43.2188 72.1094
Q47.1719 71.5312 50.7812 69.6719
Q54.7812 67.5781 56.5938 64.2812
Q58.4062 60.9844 58.4062 56.3906
Q58.4062 51.2188 55.7656 47.5781
Q53.125 43.9531 48.7344 41.75
L48.7344 41.3594
Q56.1094 39.8438 60.3438 34.8906
Q64.5938 29.9375 64.5938 22.3594
M48.3438 55.125
Q48.3438 57.7656 47.4531 59.5625
Q46.5781 61.375 44.625 62.5
Q42.3281 63.8125 39.0625 64.125
Q35.7969 64.4531 30.9531 64.4531
L19.4375 64.4531
L19.4375 43.4531
L31.9375 43.4531
Q36.4688 43.4531 39.1562 43.9219
Q41.8438 44.3906 44.1406 45.8438
Q46.4375 47.3125 47.3906 49.625
Q48.3438 51.9531 48.3438 55.125
M54.5469 21.9688
Q54.5469 26.375 53.2188 28.9531
Q51.9062 31.5469 48.4375 33.3438
Q46.0938 34.5781 42.75 34.9375
Q39.4062 35.2969 34.625 35.2969
L19.4375 35.2969
L19.4375 8.25
L32.2344 8.25
Q38.5781 8.25 42.625 8.90625
Q46.6875 9.57812 49.2656 11.3281
Q52 13.2344 53.2656 15.6719
Q54.5469 18.1094 54.5469 21.9688" id="Verdana-42"/>
     </defs>
     <g transform="translate(453.26025 330.8625)scale(0.144 -0.144)">
      <use xlink:href="#Verdana-42"/>
      <use x="68.5546875" xlink:href="#Verdana-53"/>
      <use x="135.9140625" xlink:href="#Verdana-41"/>
     </g>
    </g>
    <g id="line2d_38">
     <path d="
M417.26 346.862
L437.42 346.862" style="fill:none;stroke:#00bfbf;stroke-dasharray:5.000000,1.000000,2.000000,1.000000,5.000000,1.000000;stroke-dashoffset:0.0;"/>
    </g>
    <g id="line2d_39"/>
    <g id="text_20">
     <!-- Cuckoo -->
     <defs>
      <path d="
M58.5469 0
L46.4375 0
L24.5625 23.875
L18.6094 18.2188
L18.6094 0
L9.42188 0
L9.42188 75.9844
L18.6094 75.9844
L18.6094 27.25
L45.125 54.5469
L56.6875 54.5469
L31.3438 29.3438
z
" id="Verdana-6b"/>
      <path d="
M65.9219 5.28125
Q63.2344 4.10938 61.0625 3.07812
Q58.8906 2.04688 55.375 0.921875
Q52.3906 0 48.8906 -0.65625
Q45.4062 -1.3125 41.2188 -1.3125
Q33.2969 -1.3125 26.8281 0.90625
Q20.3594 3.125 15.5781 7.85938
Q10.8906 12.5 8.25 19.6562
Q5.60938 26.8125 5.60938 36.2812
Q5.60938 45.2656 8.14062 52.3438
Q10.6875 59.4219 15.4844 64.3125
Q20.125 69.0469 26.6875 71.5312
Q33.25 74.0312 41.2656 74.0312
Q47.125 74.0312 52.9531 72.6094
Q58.7969 71.1875 65.9219 67.625
L65.9219 56.1562
L65.1875 56.1562
Q59.1875 61.1875 53.2656 63.4688
Q47.3594 65.7656 40.625 65.7656
Q35.1094 65.7656 30.6875 63.9844
Q26.2656 62.2031 22.7969 58.4531
Q19.4375 54.7812 17.5469 49.1875
Q15.6719 43.6094 15.6719 36.2812
Q15.6719 28.6094 17.75 23.0938
Q19.8281 17.5781 23.0938 14.1094
Q26.5156 10.5 31.0781 8.76562
Q35.6406 7.03125 40.7188 7.03125
Q47.7031 7.03125 53.7969 9.42188
Q59.9062 11.8125 65.2344 16.6094
L65.9219 16.6094
z
" id="Verdana-43"/>
     </defs>
     <g transform="translate(453.26025 351.90225)scale(0.144 -0.144)">
      <use xlink:href="#Verdana-43"/>
      <use x="69.82421875" xlink:href="#Verdana-75"/>
      <use x="133.10546875" xlink:href="#Verdana-63"/>
      <use x="185.205078125" xlink:href="#Verdana-6b"/>
      <use x="243.384765625" xlink:href="#Verdana-6f"/>
      <use x="304.078125" xlink:href="#Verdana-6f"/>
     </g>
    </g>
    <g id="line2d_40">
     <path d="
M417.26 367.902
L437.42 367.902" style="fill:none;stroke:#bf00bf;stroke-linecap:square;"/>
    </g>
    <g id="line2d_41"/>
    <g id="text_21">
     <!-- qABC -->
     <defs>
      <path d="
M53.2656 -20.125
L44.0938 -20.125
L44.0938 6.15625
Q39.8438 2.48438 35.6406 0.703125
Q31.4531 -1.07812 26.5625 -1.07812
Q16.8438 -1.07812 11.0625 6.42188
Q5.28125 13.9219 5.28125 27.0938
Q5.28125 34.125 7.29688 39.5156
Q9.32812 44.9219 12.6406 48.5781
Q15.875 52.1562 20.2188 54.1094
Q24.5625 56.0625 29.3906 56.0625
Q33.7969 56.0625 37.1875 55.0781
Q40.5781 54.1094 44.0938 52.2031
L44.6719 54.5469
L53.2656 54.5469
z

M44.0938 13.875
L44.0938 44.7344
Q40.2812 46.4375 37.3438 47.1094
Q34.4219 47.7969 31 47.7969
Q23.0469 47.7969 18.8906 42.4062
Q14.75 37.0156 14.75 27.5469
Q14.75 17.9688 18.0938 12.8125
Q21.4375 7.67188 28.6094 7.67188
Q32.625 7.67188 36.625 9.40625
Q40.625 11.1406 44.0938 13.875" id="Verdana-71"/>
     </defs>
     <g transform="translate(453.26025 372.942)scale(0.144 -0.144)">
      <use xlink:href="#Verdana-71"/>
      <use x="62.3046875" xlink:href="#Verdana-41"/>
      <use x="130.6640625" xlink:href="#Verdana-42"/>
      <use x="199.21875" xlink:href="#Verdana-43"/>
     </g>
    </g>
   </g>
  </g>
 </g>
 <defs>
  <clipPath id="p7ff5b81e1d">
   <rect height="345.6" width="446.4" x="72.0" y="43.2"/>
  </clipPath>
 </defs>
</svg>
