<?xml version="1.0" encoding="utf-8" standalone="no"?>
<!DOCTYPE svg PUBLIC "-//W3C//DTD SVG 1.1//EN"
  "http://www.w3.org/Graphics/SVG/1.1/DTD/svg11.dtd">
<!-- Created with matplotlib (http://matplotlib.org/) -->
<svg height="432pt" version="1.1" viewBox="0 0 576 432" width="576pt" xmlns="http://www.w3.org/2000/svg" xmlns:xlink="http://www.w3.org/1999/xlink">
 <defs>
  <style type="text/css">
*{stroke-linecap:butt;stroke-linejoin:round;}
  </style>
 </defs>
 <g id="figure_1">
  <g id="patch_1">
   <path d="
M0 432
L576 432
L576 0
L0 0
z
" style="fill:#ffffff;"/>
  </g>
  <g id="axes_1">
   <g id="patch_2">
    <path d="
M72 388.8
L518.4 388.8
L518.4 43.2
L72 43.2
z
" style="fill:#ffffff;"/>
   </g>
   <g id="line2d_1">
    <path clip-path="url(#p7ff5b81e1d)" d="
M72 388.8
L72.8928 388.8
L73.0714 386.417
L73.7856 386.417
L73.9642 385.867
L74.6784 385.867
L74.857 383.483
L75.5712 383.483
L75.7498 379.266
L76.464 379.266
L76.6426 375.599
L77.3568 375.599
L77.5354 366.432
L78.2496 366.432
L78.4282 347.548
L79.1424 347.548
L79.321 326.097
L80.0352 326.097
L80.2138 301.896
L80.928 301.896
L81.1066 278.245
L81.8208 278.245
L81.9994 258.627
L82.7136 258.627
L82.8922 238.093
L83.6064 238.093
L83.785 219.942
L84.4992 219.942
L84.6778 204.908
L85.392 204.908
L85.5706 189.324
L86.2848 189.324
L86.4634 180.157
L87.1776 180.157
L87.3562 173.923
L88.0704 173.923
L88.249 169.156
L88.9632 169.156
L89.1418 167.689
L89.856 167.689
L90.0346 165.489
L90.7488 165.489
L90.9274 164.389
L91.6416 164.389
L91.8202 163.656
L92.5344 163.656
L92.713 163.472
L93.4272 163.472
L93.6058 163.289
L95.3021 163.289
L95.4806 162.922
L96.1949 162.922
L96.3734 162.739
L98.9626 162.739
L99.1411 162.556
L99.7661 162.556
L99.9446 162.372
L100.659 162.372
L100.837 162.189
L102.444 162.189
L102.802 161.639
L103.337 161.639
L103.516 161.456
L104.319 161.456
L104.498 161.089
L108.783 161.089
L108.962 160.906
L110.569 160.906
L110.748 160.722
L116.908 160.722
L117.086 160.539
L117.801 160.539
L117.979 160.356
L118.693 160.356
L118.872 160.172
L122.265 160.172
L122.443 159.989
L123.872 159.989
L124.14 159.622
L127.621 159.622
L127.8 159.439
L128.425 159.439
L128.604 159.072
L138.246 159.072
L138.424 158.889
L140.924 158.889
L141.103 158.706
L146.549 158.706
L146.727 158.522
L151.013 158.522
L151.191 158.339
L160.834 158.339
L161.012 158.156
L161.726 158.156
L161.905 157.972
L164.405 157.972
L164.583 157.789
L168.958 157.789
L169.137 157.606
L191.546 157.606
L191.724 157.422
L215.384 157.422
L215.562 157.239
L218.151 157.239
L218.33 157.055
L221.544 157.055
L221.723 156.872
L236.364 156.872
L236.543 156.689
L237.793 156.689
L237.972 156.505
L242.525 156.505
L242.703 156.322
L246.275 156.322
L246.453 156.139
L258.684 156.139
L258.863 155.955
L267.523 155.955
L267.702 155.772
L271.809 155.772
L271.987 155.589
L273.594 155.589
L273.773 155.405
L283.683 155.405
L283.861 155.222
L285.201 155.222
L285.379 155.039
L286.451 155.039
L286.629 154.855
L295.468 154.855
L295.646 154.672
L296.182 154.672
L296.361 154.489
L296.539 154.489
L296.718 154.305
L297.075 154.305
L297.253 154.122
L299.843 154.122
L300.021 153.939
L301.628 153.939
L301.807 153.755
L307.967 153.755
L308.146 153.572
L312.52 153.572
L312.699 153.389
L316.002 153.389
L316.359 152.839
L316.895 152.839
L317.163 152.472
L317.699 152.472
L317.877 152.289
L317.966 152.289
L318.145 152.105
L327.519 152.105
L327.698 151.922
L328.859 151.922
L329.037 151.739
L329.394 151.739
L329.573 151.555
L333.948 151.555
L334.126 151.372
L337.697 151.372
L337.876 151.189
L339.483 151.189
L339.661 151.005
L340.197 151.005
L340.465 150.639
L345.732 150.639
L345.911 150.455
L346.804 150.455
L346.982 150.272
L350.107 150.272
L350.286 150.088
L350.464 150.088
L350.643 149.905
L351.268 149.905
L351.446 149.722
L352.875 149.722
L353.143 149.355
L353.321 149.355
L353.5 149.172
L355.018 149.172
L355.196 148.988
L357.428 148.988
L357.785 148.438
L358.946 148.438
L359.124 148.255
L362.964 148.255
L363.142 148.072
L363.678 148.072
L363.946 147.705
L367.517 147.705
L367.695 147.522
L368.142 147.522
L368.32 147.338
L370.463 147.338
L370.731 146.972
L370.82 146.972
L371.088 146.605
L372.07 146.605
L372.249 146.422
L373.141 146.422
L373.32 146.238
L373.499 146.238
L373.856 145.688
L376.266 145.688
L376.445 145.505
L376.891 145.505
L377.07 145.322
L380.998 145.322
L381.177 145.138
L382.427 145.138
L382.605 144.955
L383.319 144.955
L383.498 144.588
L383.676 144.405
L384.301 144.405
L384.48 144.222
L385.016 144.222
L385.194 144.038
L387.516 144.038
L387.694 143.855
L388.676 143.855
L388.855 143.672
L389.569 143.672
L389.748 143.488
L392.515 143.488
L392.694 143.305
L393.051 143.305
L393.319 142.938
L393.408 142.938
L393.587 142.755
L394.033 142.755
L394.479 142.021
L394.926 142.021
L395.194 141.655
L396.622 141.655
L396.89 141.288
L397.604 141.288
L398.051 140.555
L399.568 140.555
L399.747 140.371
L401.711 140.371
L401.89 140.188
L403.943 140.188
L404.389 139.455
L406.086 139.455
L406.264 139.271
L406.621 139.271
L406.8 139.088
L407.514 139.088
L407.871 138.538
L408.496 138.538
L408.675 138.355
L410.371 138.355
L410.55 138.171
L411.978 138.171
L412.335 137.621
L413.675 137.621
L413.853 137.255
L415.014 137.255
L415.192 137.071
L416.353 137.071
L416.532 136.888
L418.942 136.888
L419.121 136.705
L419.388 136.705
L419.567 136.521
L421.353 136.521
L421.531 136.338
L421.62 136.338
L421.799 136.154
L421.978 136.154
L422.156 135.971
L423.852 135.971
L424.031 135.788
L425.549 135.788
L425.727 135.604
L426.352 135.604
L426.531 135.421
L427.334 135.421
L427.513 135.238
L427.602 135.238
L427.781 135.054
L430.727 135.054
L430.906 134.871
L432.423 134.871
L432.602 134.688
L432.691 134.688
L432.87 134.504
L434.477 134.504
L434.745 134.138
L436.173 134.138
L436.352 133.954
L441.798 133.954
L441.976 133.771
L443.494 133.771
L443.673 133.588
L444.208 133.588
L444.387 133.404
L444.655 133.404
L444.833 133.221
L445.458 133.221
L445.637 133.038
L446.083 133.038
L446.262 132.854
L447.601 132.854
L447.869 132.488
L450.904 132.488
L451.083 132.304
L451.886 132.304
L452.065 132.121
L453.136 132.121
L453.315 131.938
L456.261 131.938
L456.44 131.754
L457.332 131.754
L457.511 131.571
L457.957 131.571
L458.136 131.388
L458.761 131.388
L458.94 131.204
L459.029 131.204
L459.207 131.021
L459.832 131.021
L460.011 130.838
L460.725 130.838
L460.904 130.471
L461.618 130.471
L461.796 130.288
L463.046 130.288
L463.225 130.104
L463.582 130.104
L463.761 129.921
L464.653 129.921
L464.921 129.554
L468.671 129.554
L468.85 129.371
L470.01 129.371
L470.189 129.187
L470.635 129.187
L470.814 129.004
L471.439 129.004
L471.617 128.821
L475.01 128.821
L475.188 128.637
L475.813 128.637
L475.992 128.454
L476.617 128.454
L476.796 128.271
L477.153 128.271
L477.331 128.087
L478.67 128.087
L478.849 127.904
L479.206 127.904
L479.385 127.721
L479.474 127.721
L480.01 126.804
L481.17 126.804
L481.349 126.621
L482.063 126.621
L482.331 126.254
L482.688 126.254
L482.956 125.887
L483.045 125.887
L483.313 125.521
L483.759 125.521
L483.938 125.337
L484.027 125.337
L484.206 125.154
L485.634 125.154
L485.813 124.971
L486.17 124.971
L486.348 124.787
L487.509 124.787
L487.777 124.421
L489.295 124.421
L489.473 124.237
L489.652 124.237
L489.83 124.054
L490.009 124.054
L490.277 123.687
L490.455 123.687
L490.634 123.504
L491.973 123.504
L492.152 123.321
L492.33 123.321
L492.509 123.137
L492.777 123.137
L492.955 122.954
L493.759 122.954
L494.027 122.587
L495.009 122.587
L495.187 122.404
L495.901 122.404
L496.08 122.22
L497.508 122.22
L497.687 122.037
L499.919 122.037
L500.098 121.854
L500.187 121.854
L500.365 121.67
L503.49 121.67
L503.669 121.487
L504.383 121.487
L504.562 121.304
L507.061 121.304
L507.24 121.12
L508.044 121.12
L508.311 120.754
L508.49 120.754
L508.668 120.57
L508.847 120.57
L509.204 120.02
L510.543 120.02
L510.722 119.837
L511.079 119.837
L511.347 119.47
L512.15 119.47
L512.329 119.287
L512.865 119.287
L513.043 119.104
L513.4 119.104
L513.579 118.92
L513.847 118.92
L514.025 118.737
L515.275 118.737
L515.454 118.554
L516.525 118.554
L516.704 118.37
L518.311 118.37
L518.311 118.37" style="fill:none;stroke:#0000ff;stroke-dasharray:6.000000,2.000000;stroke-dashoffset:0.0;"/>
   </g>
   <g id="line2d_2">
    <path clip-path="url(#p7ff5b81e1d)" d="
M72 388.8
L72.0893 388.8
L72.2678 388.656
L72.8928 388.656
L73.0714 388.8
L73.5178 388.8
L73.6963 388.656
L73.8749 388.656
L74.0534 388.513
L74.1427 388.513
L75.9283 382.48
L76.1962 379.176
L76.3747 377.452
L77.5354 363.519
L77.9818 359.21
L78.9638 343.409
L79.2317 339.675
L79.6781 333.642
L80.2138 327.609
L80.4816 322.151
L80.8387 316.118
L82.3565 295.433
L82.4458 294.715
L82.8029 289.4
L83.16 284.948
L84.3206 273.025
L84.4099 272.595
L85.4813 261.534
L85.5706 260.96
L85.8384 257.943
L86.3741 253.921
L86.8205 249.899
L87.0883 247.601
L87.4454 245.015
L87.624 244.585
L88.9632 234.53
L89.4989 231.513
L89.856 229.215
L90.0346 228.784
L90.5702 225.337
L90.7488 224.618
L91.1952 221.171
L91.6416 219.304
L91.7309 219.16
L92.088 217.58
L92.4451 217.005
L92.713 216.144
L93.7843 212.409
L94.0522 211.403
L94.4986 210.685
L94.7664 209.68
L94.8557 209.536
L95.0342 208.962
L95.3914 208.243
L96.0163 206.376
L96.1056 206.376
L96.3734 205.371
L96.6413 204.94
L96.9091 203.791
L97.0877 203.791
L97.2662 203.647
L97.3555 203.647
L97.6234 203.072
L97.8912 202.21
L98.0698 202.21
L98.6054 201.205
L99.1411 199.769
L100.302 198.045
L100.391 198.045
L100.57 197.614
L100.837 197.614
L101.016 197.47
L101.105 197.47
L101.82 196.465
L102.355 196.465
L102.623 196.178
L103.159 196.178
L103.337 196.034
L103.605 196.034
L103.784 195.89
L104.141 195.89
L104.498 195.459
L105.212 195.459
L105.48 195.172
L106.194 195.172
L106.373 195.028
L107.355 195.028
L107.712 194.598
L107.801 194.598
L108.069 194.31
L108.694 194.31
L108.873 194.167
L108.962 194.167
L109.14 194.023
L109.23 194.023
L109.408 193.879
L109.765 193.879
L109.944 193.736
L110.39 193.736
L110.569 193.592
L113.962 193.592
L114.229 193.305
L518.311 193.305
L518.311 193.305" style="fill:none;stroke:#008000;stroke-dasharray:1.000000,1.000000;stroke-dashoffset:0.0;"/>
   </g>
   <g id="line2d_3">
    <path clip-path="url(#p7ff5b81e1d)" d="
M72 388.8
L95.5699 388.8
L95.7485 388.11
L97.177 388.11
L97.4448 386.731
L107.355 386.731
L107.533 386.041
L108.158 386.041
L108.337 385.351
L111.105 385.351
L111.283 384.661
L112.712 384.661
L112.89 383.971
L113.694 383.971
L113.872 383.281
L115.658 383.281
L115.836 382.592
L117.176 382.592
L117.444 381.212
L119.229 381.212
L119.497 379.832
L120.39 379.832
L120.658 378.453
L120.747 378.453
L120.925 377.763
L121.461 377.763
L121.64 377.073
L122.175 377.073
L122.354 376.383
L123.336 376.383
L123.515 375.693
L125.836 375.693
L126.014 375.004
L127.443 375.004
L127.711 373.624
L128.068 373.624
L128.246 372.934
L128.514 372.934
L128.693 372.244
L129.139 372.244
L129.318 371.554
L129.407 371.554
L129.675 370.175
L130.3 370.175
L130.478 369.485
L131.014 369.485
L131.371 367.416
L131.728 367.416
L131.996 366.036
L132.175 366.036
L132.353 364.656
L132.621 364.656
L132.889 363.277
L133.425 363.277
L133.603 362.587
L134.228 362.587
L134.407 361.897
L134.853 361.897
L135.032 361.207
L135.567 361.207
L135.746 360.517
L136.282 360.517
L136.46 359.828
L136.639 359.828
L136.817 359.138
L136.907 359.138
L137.085 358.448
L137.442 358.448
L137.71 357.068
L137.889 357.068
L138.067 356.378
L138.692 356.378
L139.049 354.309
L139.942 354.309
L140.121 353.619
L140.299 353.619
L140.478 352.929
L140.746 352.929
L141.103 350.86
L141.817 350.86
L142.085 349.48
L142.263 349.48
L142.442 347.411
L142.62 347.411
L142.799 346.721
L143.156 346.721
L143.335 346.031
L143.424 346.031
L143.603 345.341
L143.87 345.341
L144.049 344.651
L144.852 344.651
L145.031 343.962
L145.745 343.962
L145.924 343.272
L146.102 343.272
L146.46 341.202
L146.549 341.202
L146.727 340.513
L147.799 340.513
L147.977 339.133
L148.067 339.133
L148.245 338.443
L148.602 338.443
L148.781 337.753
L148.959 337.753
L149.138 337.063
L149.941 337.063
L150.209 334.304
L151.191 334.304
L151.37 331.545
L151.459 331.545
L151.638 330.855
L151.727 330.855
L151.906 329.475
L152.084 328.786
L152.62 328.786
L152.798 328.096
L152.977 328.096
L153.513 324.647
L153.691 324.647
L153.87 322.577
L154.495 322.577
L154.763 321.198
L155.298 321.198
L155.477 320.508
L155.566 320.508
L155.834 319.128
L156.191 319.128
L156.37 317.059
L156.727 317.059
L156.905 316.369
L156.995 316.369
L157.262 313.61
L157.352 313.61
L157.53 312.92
L157.62 312.92
L157.798 311.54
L157.977 310.85
L158.244 310.85
L158.423 310.16
L158.602 310.16
L159.137 306.711
L159.316 306.711
L159.494 306.022
L160.119 306.022
L160.566 303.262
L160.655 303.262
L161.012 299.123
L161.101 299.123
L161.28 298.434
L161.459 298.434
L161.637 297.744
L161.726 297.744
L161.905 297.054
L162.084 297.054
L162.262 295.674
L162.441 294.984
L162.53 294.984
L162.887 292.915
L163.066 292.915
L163.244 291.535
L163.958 286.707
L164.583 286.707
L164.762 286.017
L165.119 286.017
L165.565 283.257
L165.655 283.257
L166.458 277.739
L166.548 277.739
L166.905 275.669
L167.619 275.669
L167.797 274.29
L168.065 272.91
L168.155 272.91
L168.333 271.531
L168.69 271.531
L169.137 268.771
L169.404 268.771
L169.672 267.392
L169.762 267.392
L170.119 263.943
L170.297 261.873
L170.476 261.873
L170.654 259.804
L171.101 259.804
L171.279 257.734
L171.458 255.665
L171.636 255.665
L172.083 252.905
L172.619 252.905
L173.244 248.766
L173.422 248.766
L173.779 246.697
L173.958 246.697
L174.583 242.558
L175.208 242.558
L175.386 241.868
L175.654 241.868
L175.922 240.489
L176.011 240.489
L176.279 239.109
L176.458 239.109
L176.636 238.419
L176.815 238.419
L176.993 237.729
L177.083 237.729
L177.261 235.66
L177.529 235.66
L178.511 228.762
L178.69 228.762
L179.047 226.692
L179.136 226.692
L179.315 224.623
L179.404 224.623
L179.672 221.863
L179.85 221.174
L179.94 221.174
L180.386 218.414
L180.564 218.414
L180.922 216.345
L181.011 216.345
L181.189 215.655
L181.368 215.655
L181.547 211.516
L181.636 211.516
L181.814 210.826
L182.261 210.826
L182.707 208.067
L182.975 208.067
L183.6 203.928
L183.779 203.928
L183.957 202.549
L184.136 201.859
L184.582 201.859
L185.028 199.099
L185.386 199.099
L185.743 197.03
L185.832 197.03
L186.457 192.891
L186.546 192.891
L186.725 192.201
L186.814 192.201
L186.993 191.511
L187.171 191.511
L187.35 189.442
L187.618 189.442
L187.975 187.372
L188.153 187.372
L188.421 185.993
L188.868 185.993
L189.046 185.303
L189.671 185.303
L189.939 183.923
L190.028 183.923
L190.564 180.474
L190.742 180.474
L191.457 175.646
L191.903 175.646
L192.082 172.196
L192.26 172.196
L192.707 169.437
L193.153 169.437
L193.332 168.747
L193.421 168.747
L193.599 168.057
L194.046 168.057
L194.224 167.368
L194.581 167.368
L194.76 165.988
L194.849 165.988
L195.117 164.608
L195.206 164.608
L195.474 163.229
L195.653 163.229
L195.831 162.539
L195.921 162.539
L196.099 161.849
L196.188 161.849
L196.367 161.159
L196.724 161.159
L197.171 158.4
L197.26 158.4
L197.885 154.261
L198.688 154.261
L198.867 153.571
L199.67 153.571
L200.028 151.502
L200.117 151.502
L200.295 149.432
L200.474 149.432
L200.652 148.743
L201.01 148.743
L201.188 147.363
L201.456 147.363
L201.724 144.604
L201.902 143.914
L202.617 143.914
L202.795 142.534
L202.884 142.534
L203.063 141.844
L203.509 141.844
L203.777 140.465
L203.867 140.465
L204.045 139.085
L204.313 137.705
L204.759 137.705
L205.116 135.636
L205.206 135.636
L205.384 134.256
L206.277 134.256
L206.634 132.187
L206.902 132.187
L207.259 130.117
L208.152 130.117
L208.331 129.428
L208.866 129.428
L209.134 128.048
L209.223 128.048
L209.58 125.978
L209.848 125.978
L210.116 124.599
L210.295 124.599
L210.92 120.46
L211.009 120.46
L211.277 119.08
L211.366 119.08
L211.634 117.701
L211.991 117.701
L212.17 117.011
L212.616 117.011
L212.884 114.251
L213.062 114.251
L213.241 113.562
L213.33 113.562
L213.598 112.182
L214.402 112.182
L214.669 109.423
L214.759 109.423
L214.937 108.733
L215.562 108.733
L215.741 108.043
L216.009 108.043
L216.187 106.663
L216.544 106.663
L216.723 105.974
L216.812 105.974
L216.991 105.284
L217.259 105.284
L217.526 103.904
L218.33 103.904
L218.508 103.214
L218.687 103.214
L218.866 102.525
L219.669 102.525
L219.848 101.835
L219.937 101.835
L220.116 101.145
L220.205 101.145
L220.473 99.7653
L220.651 99.7653
L221.276 95.6263
L222.169 95.6263
L222.348 94.9365
L222.705 94.9365
L222.883 94.2467
L223.151 94.2467
L223.508 92.1772
L223.776 92.1772
L223.955 91.4874
L224.401 91.4874
L224.58 90.7976
L225.383 90.7976
L225.562 90.1078
L225.651 90.1078
L225.829 88.7281
L226.187 86.6587
L226.722 86.6587
L226.99 85.279
L227.079 85.279
L227.347 83.8994
L227.526 83.8994
L227.794 82.5198
L227.972 82.5198
L228.151 81.8299
L228.419 81.8299
L228.597 81.1401
L228.776 81.1401
L229.044 79.7605
L229.311 79.7605
L229.49 79.0707
L230.115 79.0707
L230.472 77.0012
L231.097 77.0012
L231.276 76.3114
L231.454 76.3114
L231.722 74.9317
L231.9 74.9317
L232.079 74.2419
L232.436 74.2419
L232.704 72.8623
L233.508 72.8623
L233.686 72.1725
L234.132 72.1725
L234.4 70.7928
L234.936 70.7928
L235.115 70.103
L235.293 70.103
L235.561 68.7234
L236.811 68.7234
L236.989 68.0335
L237.257 68.0335
L237.436 67.3437
L237.614 67.3437
L237.793 66.6539
L239.936 66.6539
L240.114 65.9641
L240.471 65.9641
L240.65 64.5844
L241.453 64.5844
L241.632 63.8946
L242.078 63.8946
L242.257 63.2048
L242.614 63.2048
L242.793 62.515
L244.31 62.515
L244.489 61.8251
L246.275 61.8251
L246.453 61.1353
L246.81 61.1353
L247.078 59.7557
L248.06 59.7557
L248.239 58.376
L248.596 58.376
L248.774 57.6862
L249.042 57.6862
L249.31 56.3066
L250.114 56.3066
L250.292 55.6168
L251.006 55.6168
L251.185 54.9269
L251.899 54.9269
L252.078 54.2371
L253.238 54.2371
L253.417 53.5473
L253.685 53.5473
L253.863 52.8575
L256.988 52.8575
L257.167 52.1677
L257.792 52.1677
L257.97 51.4778
L259.131 51.4778
L259.309 50.788
L259.399 50.788
L259.577 50.0982
L260.024 50.0982
L260.202 49.4084
L266.005 49.4084
L266.184 48.7186
L269.666 48.7186
L269.844 48.0287
L270.916 48.0287
L271.094 47.3389
L276.273 47.3389
L276.451 46.6491
L277.433 46.6491
L277.612 45.9593
L281.808 45.9593
L281.987 45.2695
L298.503 45.2695
L298.682 44.5796
L300.11 44.5796
L300.289 43.8898
L313.77 43.8898
L313.949 43.2
L518.311 43.2
L518.311 43.2" style="fill:none;stroke:#ff0000;stroke-dasharray:3.000000,6.000000;stroke-dashoffset:0.0;"/>
   </g>
   <g id="line2d_4">
    <path clip-path="url(#p7ff5b81e1d)" d="
M72 388.8
L72.0893 388.68
L72.2678 388.8
L79.2317 388.8
L79.4102 388.68
L84.0528 388.68
L84.2314 388.561
L86.3741 388.561
L86.6419 388.322
L87.8918 388.322
L88.0704 388.202
L89.7667 388.202
L89.9453 387.963
L90.1238 387.844
L90.2131 387.844
L90.3917 387.724
L90.481 387.724
L90.8381 387.365
L91.1952 387.365
L91.3738 387.246
L93.4272 387.246
L93.8736 386.648
L94.1414 385.931
L94.2307 385.931
L94.4093 385.811
L94.4986 385.811
L94.8557 385.453
L95.0342 385.453
L95.2128 385.333
L96.9091 385.333
L96.9984 385.094
L97.177 383.779
L97.8019 381.508
L97.8912 381.508
L98.4269 379.237
L98.6947 378.4
L100.48 378.4
L101.195 373.977
L101.641 371.227
L101.73 370.988
L101.998 368.717
L102.087 368.478
L102.266 367.402
L104.052 367.402
L104.498 363.815
L104.587 363.457
L105.123 359.273
L105.748 356.523
L105.926 355.806
L107.623 355.806
L107.891 352.459
L108.783 344.928
L109.051 343.374
L109.319 341.222
L109.498 341.102
L111.194 341.102
L111.372 338.114
L111.64 333.69
L111.73 333.212
L112.087 329.865
L112.712 324.247
L113.069 321.497
L113.426 321.497
L113.604 321.378
L114.051 321.378
L114.229 321.258
L114.765 321.258
L115.747 307.032
L116.194 302.848
L116.283 302.609
L116.551 300.218
L116.729 300.099
L118.336 300.099
L118.693 295.676
L119.318 287.905
L119.676 284.558
L119.854 283.482
L120.122 281.33
L121.908 281.33
L123.157 265.79
L123.782 261.008
L124.318 261.008
L124.497 260.889
L125.479 260.889
L125.747 258.856
L126.014 256.585
L126.729 249.771
L126.907 248.576
L127.264 245.348
L128.514 245.348
L128.693 245.228
L129.05 245.228
L129.228 243.555
L129.407 242.598
L129.675 240.208
L130.211 234.948
L130.657 231.6
L130.925 230.764
L132.621 230.764
L132.889 228.253
L134.496 216.06
L135.657 216.06
L135.835 215.94
L136.192 215.94
L136.728 211.756
L137.085 210.083
L137.353 209.007
L137.889 206.616
L138.067 206.377
L138.246 206.257
L138.335 206.257
L138.514 206.138
L139.764 206.138
L140.21 202.551
L140.656 198.367
L140.746 198.367
L141.013 196.933
L141.638 193.825
L143.335 193.825
L143.424 193.466
L143.87 189.282
L143.96 189.282
L144.942 183.305
L145.031 183.305
L145.21 183.066
L145.477 183.066
L145.745 182.827
L145.924 182.827
L146.102 182.707
L146.906 182.707
L147.709 179.001
L147.799 178.762
L148.156 176.969
L148.245 176.969
L148.781 174.698
L149.495 174.698
L149.674 174.578
L150.477 174.578
L152.263 165.254
L154.048 165.254
L154.227 165.015
L154.405 163.939
L154.941 161.07
L155.477 159.396
L155.745 157.842
L155.923 157.603
L156.637 157.603
L156.816 157.484
L157.62 157.484
L157.798 157.125
L158.423 154.973
L158.602 154.734
L158.869 153.658
L158.959 153.658
L159.494 152.463
L159.673 152.343
L161.191 152.343
L161.369 151.865
L161.459 151.745
L161.816 150.072
L162.262 148.518
L162.351 148.398
L162.798 146.486
L162.887 146.246
L163.066 145.649
L164.762 145.649
L165.03 144.334
L165.387 142.66
L165.476 142.66
L165.833 141.943
L166.012 141.943
L166.19 140.987
L166.548 140.15
L166.815 140.15
L166.994 140.03
L167.351 140.03
L167.53 139.911
L168.333 139.911
L168.422 139.672
L168.69 137.998
L168.78 137.998
L168.958 137.639
L169.226 137.161
L169.404 136.922
L169.94 135.009
L170.119 134.89
L171.904 134.89
L172.083 134.651
L172.619 132.858
L172.708 132.858
L172.886 132.499
L173.333 131.543
L173.601 131.064
L173.779 130.586
L175.476 130.586
L175.654 130.228
L175.833 129.869
L176.279 128.793
L176.368 128.793
L176.636 128.076
L177.35 126.402
L178.511 126.402
L178.69 126.283
L179.136 126.283
L179.85 124.609
L180.118 124.25
L180.297 123.653
L180.386 123.533
L180.654 122.696
L180.922 122.457
L181.725 122.457
L181.904 122.338
L182.618 122.338
L182.886 121.86
L183.421 120.066
L183.6 120.066
L183.779 119.469
L183.868 119.469
L184.046 118.991
L184.404 118.632
L186.189 118.632
L186.457 117.795
L186.636 117.556
L186.903 116.839
L186.993 116.719
L187.26 116.002
L187.439 115.643
L187.707 115.165
L187.885 115.165
L188.064 114.807
L189.76 114.807
L190.207 113.85
L190.475 113.611
L190.653 113.611
L191.278 112.774
L191.457 112.296
L193.332 112.296
L194.224 110.144
L194.314 110.144
L194.492 109.786
L195.117 109.068
L196.724 109.068
L197.171 108.351
L197.438 107.873
L197.528 107.873
L197.706 107.753
L197.796 107.753
L197.974 107.395
L198.153 107.156
L198.599 106.438
L198.778 106.199
L200.474 106.199
L200.652 105.721
L200.831 105.602
L200.92 105.602
L201.188 105.123
L201.277 105.123
L201.635 104.645
L201.902 103.809
L202.349 103.33
L202.706 103.33
L202.884 103.211
L204.045 103.211
L204.313 102.733
L204.402 102.733
L204.581 102.374
L204.759 102.374
L205.027 101.776
L205.206 101.776
L205.384 101.537
L205.563 101.059
L205.652 101.059
L205.92 100.581
L207.616 100.581
L207.795 100.222
L207.884 100.222
L208.598 99.3854
L208.866 99.3854
L209.045 99.0268
L209.134 99.0268
L209.313 98.7877
L211.188 98.7877
L211.366 98.4291
L212.884 96.5164
L214.848 96.5164
L215.116 96.2773
L215.294 96.2773
L215.473 96.1577
L215.741 96.1577
L215.919 95.9186
L216.098 95.7991
L218.33 95.7991
L219.491 94.3646
L219.58 94.3646
L220.026 93.4082
L220.205 93.2887
L221.901 93.2887
L222.258 92.9301
L222.348 92.9301
L222.526 92.8105
L222.972 92.8105
L223.151 92.5714
L223.597 92.5714
L223.776 92.3323
L225.472 92.3323
L225.651 91.9737
L225.74 91.9737
L226.008 91.7346
L226.097 91.7346
L226.276 91.6151
L226.633 91.6151
L227.079 91.1369
L229.49 91.1369
L229.847 90.7783
L230.115 90.7783
L230.472 90.4196
L230.651 90.4196
L230.829 90.3001
L232.615 90.3001
L232.793 90.061
L233.061 90.061
L233.329 89.8219
L233.508 89.8219
L233.686 89.5828
L234.132 89.1047
L234.311 89.1047
L234.49 88.9851
L236.186 88.9851
L236.364 88.8656
L236.454 88.8656
L236.9 88.3874
L236.989 88.3874
L237.257 88.1483
L237.614 88.1483
L237.882 87.9092
L239.936 87.9092
L240.204 87.6701
L240.382 87.6701
L240.561 87.4311
L240.65 87.4311
L240.828 87.3115
L241.007 87.3115
L241.543 86.7138
L243.418 86.7138
L243.596 86.5943
L243.685 86.5943
L243.864 86.4747
L244.489 86.4747
L244.757 86.2356
L244.846 86.2356
L245.025 86.1161
L246.9 86.1161
L247.435 85.5184
L247.524 85.5184
L247.882 85.1597
L248.149 85.1597
L248.417 84.9207
L248.507 84.9207
L248.685 84.8011
L250.828 84.8011
L251.096 84.562
L251.721 84.562
L251.899 84.4425
L251.988 84.4425
L252.167 84.3229
L254.042 84.3229
L254.22 84.2034
L254.667 84.2034
L255.024 83.8448
L255.203 83.8448
L255.381 83.6057
L257.613 83.6057
L257.792 83.4861
L258.238 83.4861
L258.417 83.3666
L258.774 83.3666
L258.952 83.247
L259.309 83.247
L259.488 83.1275
L261.184 83.1275
L261.363 83.008
L261.988 83.008
L262.166 82.8884
L265.023 82.8884
L265.202 82.7689
L265.291 82.7689
L265.47 82.6493
L265.827 82.6493
L266.095 82.4102
L268.327 82.4102
L268.505 82.2907
L268.684 82.2907
L268.952 82.0516
L269.041 82.0516
L269.309 81.8125
L269.398 81.8125
L269.577 81.693
L269.755 81.693
L269.934 81.5734
L272.166 81.5734
L272.701 80.9757
L273.059 80.9757
L273.237 80.8562
L273.416 80.8562
L273.594 80.7366
L275.648 80.7366
L275.826 80.4975
L276.005 80.4975
L276.183 80.378
L276.808 80.378
L277.076 80.1389
L277.165 80.1389
L277.344 80.0194
L279.933 80.0194
L280.201 79.7803
L280.29 79.7803
L280.558 79.5412
L282.79 79.5412
L282.969 79.3021
L283.236 79.3021
L283.594 78.9435
L284.308 78.9435
L284.486 78.8239
L286.361 78.8239
L286.54 78.7044
L286.808 78.7044
L286.986 78.5848
L287.076 78.5848
L287.254 78.4653
L293.325 78.4653
L293.772 77.9871
L294.396 77.9871
L294.575 77.8676
L297.164 77.8676
L297.343 77.748
L300.468 77.748
L300.646 77.6285
L300.825 77.6285
L301.003 77.509
L303.682 77.509
L303.86 77.3894
L304.128 77.3894
L304.307 77.2699
L304.485 77.2699
L304.664 77.1503
L307.967 77.1503
L308.146 77.0308
L308.503 77.0308
L308.681 76.9112
L308.86 76.9112
L309.038 76.7917
L309.217 76.7917
L309.485 76.5526
L311.27 76.5526
L311.449 76.4331
L312.52 76.4331
L312.788 76.194
L315.109 76.194
L315.288 76.0744
L315.734 76.0744
L315.913 75.9549
L316.002 75.9549
L316.181 75.8354
L318.859 75.8354
L319.038 75.7158
L319.127 75.7158
L319.306 75.5963
L319.484 75.5963
L319.663 75.4767
L326.18 75.4767
L326.359 75.3572
L333.323 75.3572
L333.501 75.2376
L336.447 75.2376
L336.626 75.1181
L337.787 75.1181
L338.054 74.879
L344.75 74.879
L344.929 74.7595
L347.161 74.7595
L347.34 74.6399
L355.464 74.6399
L355.643 74.5204
L361.356 74.5204
L361.535 74.4008
L365.017 74.4008
L365.196 74.2813
L368.945 74.2813
L369.124 74.1617
L380.105 74.1617
L380.284 74.0422
L380.552 74.0422
L380.73 73.9227
L383.855 73.9227
L384.034 73.8031
L384.301 73.8031
L384.48 73.6836
L387.248 73.6836
L387.426 73.564
L387.783 73.564
L387.962 73.4445
L389.926 73.4445
L390.105 73.3249
L394.569 73.3249
L394.747 73.2054
L401.265 73.2054
L401.443 73.0859
L407.604 73.0859
L407.782 72.9663
L412.335 72.9663
L412.514 72.8468
L415.817 72.8468
L415.996 72.7272
L418.585 72.7272
L418.764 72.6077
L430.191 72.6077
L430.37 72.4881
L434.03 72.4881
L434.209 72.3686
L441.262 72.3686
L441.441 72.249
L443.762 72.249
L443.94 72.1295
L494.473 72.1295
L494.652 72.01
L504.562 72.01
L504.74 71.8904
L518.311 71.8904
L518.311 71.8904" style="fill:none;stroke:#00bfbf;stroke-dasharray:5.000000,1.000000,2.000000,1.000000,5.000000,1.000000;stroke-dashoffset:0.0;"/>
   </g>
   <g id="line2d_5">
    <path clip-path="url(#p7ff5b81e1d)" d="
M72 388.703
L72.0893 388.8
L72.1786 388.8
L87.5347 388.703
L87.8026 388.51
L89.7667 388.414
L89.9453 388.124
L90.1238 388.027
L90.3917 387.834
L91.1952 387.738
L91.6416 387.351
L93.3379 387.255
L93.5165 387.061
L93.695 386.965
L93.8736 386.675
L94.1414 386.578
L94.2307 386.482
L94.4986 385.709
L94.6771 385.613
L94.945 384.84
L95.1235 384.743
L96.7306 384.647
L97.177 384.164
L97.4448 383.584
L98.0698 382.425
L98.4269 381.942
L98.6054 381.363
L98.784 381.073
L99.0518 380.976
L99.3197 380.783
L99.5875 380.783
L99.7661 380.493
L99.8554 380.493
L100.034 380.3
L100.48 380.3
L100.748 379.334
L101.462 377.596
L101.641 376.63
L101.82 376.147
L102.087 374.988
L102.266 374.601
L102.355 374.601
L102.534 374.408
L102.712 374.311
L103.427 374.215
L103.605 373.925
L103.873 373.539
L103.962 373.539
L104.23 372.863
L104.676 370.834
L104.766 370.641
L105.123 368.226
L105.659 364.846
L106.105 363.397
L106.73 363.397
L106.908 363.107
L107.087 363.01
L107.712 362.238
L108.783 357.215
L109.23 353.641
L109.408 352.868
L109.498 352.868
L109.676 352.675
L109.855 352.675
L110.033 352.482
L110.48 352.096
L110.837 351.999
L111.105 351.806
L111.194 351.806
L111.64 349.488
L111.819 348.329
L112.265 345.334
L113.158 341.084
L113.337 340.988
L113.515 340.795
L114.408 339.925
L114.497 339.925
L114.854 339.056
L116.283 329.3
L116.551 327.369
L117.265 326.692
L118.068 326.596
L118.247 326.306
L118.336 326.306
L118.783 322.636
L119.14 321.38
L119.854 316.647
L120.033 315.778
L120.211 315.102
L120.568 314.619
L120.925 314.039
L121.372 313.653
L121.55 313.266
L121.64 313.266
L121.908 312.783
L122.175 310.658
L122.711 308.051
L123.693 300.999
L123.961 300.806
L124.14 300.71
L124.407 300.516
L124.497 300.516
L124.675 300.227
L124.943 300.13
L125.479 299.647
L126.818 288.829
L127.354 286.511
L127.711 286.414
L128.068 286.125
L128.157 286.125
L128.336 285.931
L129.05 285.159
L129.586 281.778
L130.211 278.011
L130.478 276.079
L131.014 273.664
L131.371 273.085
L131.46 273.085
L131.728 272.698
L131.907 272.602
L132.621 271.926
L134.407 260.914
L134.585 260.721
L134.853 259.852
L135.3 259.755
L135.478 259.659
L135.657 259.562
L136.192 258.983
L136.817 255.602
L137.085 254.443
L137.978 248.454
L138.335 248.454
L138.514 248.165
L139.049 247.682
L139.585 247.682
L140.031 245.943
L140.388 243.721
L141.013 240.244
L141.638 237.926
L141.817 237.829
L142.263 237.733
L142.531 237.54
L142.888 237.443
L143.335 236.863
L143.692 235.511
L143.96 234.062
L145.21 229.04
L145.388 228.943
L145.567 228.75
L145.656 228.75
L145.835 228.267
L146.102 228.17
L146.37 227.977
L146.906 227.881
L147.174 226.142
L147.263 225.949
L148.156 221.699
L148.424 220.636
L148.781 219.284
L148.959 219.187
L149.584 218.608
L149.941 218.511
L150.388 218.125
L150.477 218.125
L150.745 217.256
L151.37 215.034
L151.906 213.682
L152.173 212.909
L152.441 212.426
L152.798 212.426
L152.977 212.233
L153.334 211.943
L153.602 211.943
L153.87 211.46
L154.048 211.46
L154.227 210.591
L154.852 208.659
L155.03 208.659
L155.923 205.955
L156.191 205.858
L156.459 205.665
L156.637 205.568
L156.905 205.375
L157.62 205.278
L159.584 201.222
L159.941 201.222
L160.119 201.029
L160.387 200.932
L160.744 200.642
L161.191 200.546
L162.262 196.779
L162.619 195.619
L162.887 195.233
L163.155 194.654
L163.423 194.46
L163.691 194.364
L163.869 194.267
L164.137 194.171
L164.494 193.881
L164.762 193.881
L164.851 193.688
L165.119 192.625
L165.208 192.529
L165.476 191.659
L165.565 191.659
L166.28 189.631
L166.726 188.762
L167.262 188.762
L167.53 188.375
L168.244 188.279
L168.333 188.182
L168.78 186.926
L168.958 186.83
L169.226 186.25
L170.119 184.512
L170.833 184.415
L171.012 184.222
L171.101 184.222
L171.279 184.029
L171.458 183.932
L171.994 183.835
L172.44 183.256
L172.708 182.87
L173.244 182.387
L173.422 182.29
L173.868 181.904
L174.851 181.807
L175.208 181.517
L175.565 181.517
L175.833 181.131
L176.011 181.034
L176.1 180.938
L176.279 180.648
L176.547 180.455
L176.904 180.358
L177.44 179.296
L179.136 179.199
L179.404 178.716
L179.582 178.62
L179.761 178.426
L179.85 178.426
L180.029 178.233
L180.475 178.137
L180.832 177.847
L182.082 177.75
L182.35 177.557
L182.618 177.557
L182.886 177.171
L183.064 177.074
L183.243 176.978
L183.689 176.205
L183.868 176.108
L184.046 175.915
L184.225 175.722
L184.404 175.432
L185.743 175.335
L185.921 175.239
L186.278 175.142
L186.636 174.853
L186.814 174.756
L187.35 174.273
L187.528 174.176
L187.885 173.693
L188.064 173.307
L188.243 173.211
L189.671 173.114
L189.85 172.921
L190.564 172.824
L190.742 172.534
L191.1 172.534
L191.546 171.665
L193.599 171.568
L193.956 170.892
L194.314 170.796
L194.492 170.409
L194.671 170.313
L195.028 169.83
L195.206 169.637
L196.546 169.54
L196.724 169.443
L197.26 169.347
L197.706 168.961
L198.153 168.864
L198.331 168.574
L198.599 168.478
L198.778 167.898
L200.831 167.801
L201.01 167.512
L201.545 167.415
L201.724 167.029
L201.902 166.932
L202.26 166.836
L202.438 166.739
L202.706 166.642
L202.884 166.546
L204.492 166.449
L204.849 166.159
L205.116 166.063
L205.295 165.966
L205.474 165.87
L205.831 165.58
L207.616 165.483
L207.795 165.194
L207.973 164.904
L208.42 164.807
L208.688 164.614
L209.223 164.517
L209.491 164.324
L211.277 164.228
L211.455 164.131
L211.723 164.034
L211.902 163.938
L212.705 163.841
L212.884 163.745
L214.044 163.648
L214.223 163.551
L215.83 163.455
L216.366 162.972
L216.812 162.875
L216.991 162.779
L218.33 162.682
L218.508 162.586
L219.312 162.489
L219.491 162.392
L221.008 162.296
L221.187 162.199
L221.723 162.103
L221.901 162.006
L222.258 161.909
L222.526 161.716
L222.972 161.62
L223.151 161.523
L224.847 161.426
L225.026 161.33
L226.276 161.33
L226.454 161.04
L229.222 160.944
L229.401 160.847
L230.651 160.75
L230.829 160.654
L236.543 160.557
L236.722 160.461
L246.989 160.364
L247.435 159.978
L250.739 159.978
L250.917 159.784
L253.863 159.688
L254.042 159.591
L257.97 159.495
L258.149 159.398
L265.291 159.302
L265.47 159.205
L272.434 159.108
L272.612 159.012
L279.755 158.915
L279.933 158.819
L294.843 158.722
L295.021 158.625
L301.182 158.529
L301.36 158.432
L329.484 158.336
L329.662 158.239
L518.311 158.142
L518.311 158.142" style="fill:none;stroke:#bf00bf;stroke-linecap:square;"/>
   </g>
   <g id="matplotlib.axis_1">
    <g id="xtick_1">
     <g id="line2d_6">
      <defs>
       <path d="
M0 0
L0 -4" id="mc7db9fdffb" style="stroke:#000000;stroke-width:0.5;"/>
      </defs>
      <g>
       <use style="stroke:#000000;stroke-width:0.5;" x="72.0" xlink:href="#mc7db9fdffb" y="388.8"/>
      </g>
     </g>
     <g id="line2d_7">
      <defs>
       <path d="
M0 0
L0 4" id="m5a7d422ac3" style="stroke:#000000;stroke-width:0.5;"/>
      </defs>
      <g>
       <use style="stroke:#000000;stroke-width:0.5;" x="72.0" xlink:href="#m5a7d422ac3" y="43.2"/>
      </g>
     </g>
     <g id="text_1">
      <!-- 0 -->
      <defs>
       <path d="
M56.9844 36.375
Q56.9844 16.7969 50.8594 7.64062
Q44.7344 -1.51562 31.8438 -1.51562
Q18.75 -1.51562 12.7188 7.76562
Q6.6875 17.0469 6.6875 36.2812
Q6.6875 55.6719 12.7812 64.9219
Q18.8906 74.1719 31.8438 74.1719
Q44.9219 74.1719 50.9531 64.7656
Q56.9844 55.375 56.9844 36.375
M44.1406 14.2031
Q45.8438 18.1719 46.4531 23.5156
Q47.0781 28.8594 47.0781 36.375
Q47.0781 43.7969 46.4531 49.2656
Q45.8438 54.7344 44.0938 58.5469
Q42.3906 62.3125 39.4219 64.2031
Q36.4688 66.1094 31.8438 66.1094
Q27.25 66.1094 24.2344 64.2031
Q21.2344 62.3125 19.4844 58.4531
Q17.8281 54.8281 17.2188 49.0156
Q16.6094 43.2188 16.6094 36.2812
Q16.6094 28.6562 17.1406 23.5312
Q17.6719 18.4062 19.4375 14.3594
Q21.0469 10.5469 24 8.54688
Q26.9531 6.54688 31.8438 6.54688
Q36.4219 6.54688 39.4531 8.45312
Q42.4844 10.3594 44.1406 14.2031" id="Verdana-30"/>
      </defs>
      <g transform="translate(68.9821875 401.918125)scale(0.12 -0.12)">
       <use xlink:href="#Verdana-30"/>
      </g>
     </g>
    </g>
    <g id="xtick_2">
     <g id="line2d_8">
      <g>
       <use style="stroke:#000000;stroke-width:0.5;" x="161.28" xlink:href="#mc7db9fdffb" y="388.8"/>
      </g>
     </g>
     <g id="line2d_9">
      <g>
       <use style="stroke:#000000;stroke-width:0.5;" x="161.28" xlink:href="#m5a7d422ac3" y="43.2"/>
      </g>
     </g>
     <g id="text_2">
      <!-- 1000 -->
      <defs>
       <path d="
M52.9375 0
L13.5781 0
L13.5781 7.42188
L28.7188 7.42188
L28.7188 56.1562
L13.5781 56.1562
L13.5781 62.7969
Q16.6562 62.7969 20.1719 63.2969
Q23.6875 63.8125 25.4844 64.7969
Q27.7344 66.0156 29.0312 67.8906
Q30.3281 69.7812 30.5156 72.9531
L38.0938 72.9531
L38.0938 7.42188
L52.9375 7.42188
z
" id="Verdana-31"/>
      </defs>
      <g transform="translate(147.2315625 401.918125)scale(0.12 -0.12)">
       <use xlink:href="#Verdana-31"/>
       <use x="63.57421875" xlink:href="#Verdana-30"/>
       <use x="127.1484375" xlink:href="#Verdana-30"/>
       <use x="190.72265625" xlink:href="#Verdana-30"/>
      </g>
     </g>
    </g>
    <g id="xtick_3">
     <g id="line2d_10">
      <g>
       <use style="stroke:#000000;stroke-width:0.5;" x="250.56" xlink:href="#mc7db9fdffb" y="388.8"/>
      </g>
     </g>
     <g id="line2d_11">
      <g>
       <use style="stroke:#000000;stroke-width:0.5;" x="250.56" xlink:href="#m5a7d422ac3" y="43.2"/>
      </g>
     </g>
     <g id="text_3">
      <!-- 2000 -->
      <defs>
       <path d="
M57.0781 0
L7.85938 0
L7.85938 10.2031
Q12.9844 14.5938 18.1406 18.9844
Q23.2969 23.3906 27.7344 27.7344
Q37.1094 36.8125 40.5781 42.1562
Q44.0469 47.5156 44.0469 53.7188
Q44.0469 59.375 40.3125 62.5625
Q36.5781 65.7656 29.8906 65.7656
Q25.4375 65.7656 20.2656 64.2031
Q15.0938 62.6406 10.1562 59.4219
L9.67188 59.4219
L9.67188 69.6719
Q13.1406 71.3906 18.9219 72.7969
Q24.7031 74.2188 30.125 74.2188
Q41.3125 74.2188 47.6562 68.8125
Q54 63.4219 54 54.2031
Q54 50.0469 52.9531 46.4531
Q51.9062 42.875 49.8594 39.6562
Q47.9531 36.625 45.3906 33.6875
Q42.8281 30.7656 39.1562 27.2031
Q33.9375 22.0781 28.3594 17.2656
Q22.7969 12.4531 17.9688 8.34375
L57.0781 8.34375
z
" id="Verdana-32"/>
      </defs>
      <g transform="translate(236.1684375 401.918125)scale(0.12 -0.12)">
       <use xlink:href="#Verdana-32"/>
       <use x="63.57421875" xlink:href="#Verdana-30"/>
       <use x="127.1484375" xlink:href="#Verdana-30"/>
       <use x="190.72265625" xlink:href="#Verdana-30"/>
      </g>
     </g>
    </g>
    <g id="xtick_4">
     <g id="line2d_12">
      <g>
       <use style="stroke:#000000;stroke-width:0.5;" x="339.84" xlink:href="#mc7db9fdffb" y="388.8"/>
      </g>
     </g>
     <g id="line2d_13">
      <g>
       <use style="stroke:#000000;stroke-width:0.5;" x="339.84" xlink:href="#m5a7d422ac3" y="43.2"/>
      </g>
     </g>
     <g id="text_4">
      <!-- 3000 -->
      <defs>
       <path d="
M50.6875 35.0156
Q53.0312 32.9062 54.5469 29.7344
Q56.0625 26.5625 56.0625 21.5312
Q56.0625 16.5469 54.25 12.3906
Q52.4375 8.25 49.1719 5.17188
Q45.5156 1.76562 40.5469 0.125
Q35.5938 -1.51562 29.6875 -1.51562
Q23.6406 -1.51562 17.7812 -0.0625
Q11.9219 1.375 8.15625 3.07812
L8.15625 13.2812
L8.89062 13.2812
Q13.0312 10.5469 18.6406 8.73438
Q24.2656 6.9375 29.5 6.9375
Q32.5625 6.9375 36.0312 7.95312
Q39.5 8.98438 41.6562 10.9844
Q43.8906 13.1406 44.9844 15.7188
Q46.0938 18.3125 46.0938 22.2656
Q46.0938 26.1719 44.8438 28.7344
Q43.6094 31.2969 41.4062 32.7656
Q39.2031 34.2812 36.0781 34.8438
Q32.9531 35.4062 29.3438 35.4062
L24.9531 35.4062
L24.9531 43.5
L28.375 43.5
Q35.7969 43.5 40.2031 46.5938
Q44.625 49.7031 44.625 55.6719
Q44.625 58.2969 43.5 60.2656
Q42.3906 62.25 40.375 63.5312
Q38.2812 64.7969 35.8906 65.2812
Q33.5 65.7656 30.4688 65.7656
Q25.8281 65.7656 20.5938 64.1094
Q15.375 62.4531 10.75 59.4219
L10.25 59.4219
L10.25 69.625
Q13.7188 71.3438 19.5 72.7812
Q25.2969 74.2188 30.7188 74.2188
Q36.0312 74.2188 40.0781 73.2344
Q44.1406 72.2656 47.4062 70.125
Q50.9219 67.7812 52.7344 64.4531
Q54.5469 61.1406 54.5469 56.6875
Q54.5469 50.6406 50.2656 46.125
Q46 41.6094 40.1875 40.4375
L40.1875 39.75
Q42.5312 39.3594 45.5469 38.1094
Q48.5781 36.8594 50.6875 35.0156" id="Verdana-33"/>
      </defs>
      <g transform="translate(325.46625 401.918125)scale(0.12 -0.12)">
       <use xlink:href="#Verdana-33"/>
       <use x="63.57421875" xlink:href="#Verdana-30"/>
       <use x="127.1484375" xlink:href="#Verdana-30"/>
       <use x="190.72265625" xlink:href="#Verdana-30"/>
      </g>
     </g>
    </g>
    <g id="xtick_5">
     <g id="line2d_14">
      <g>
       <use style="stroke:#000000;stroke-width:0.5;" x="429.12" xlink:href="#mc7db9fdffb" y="388.8"/>
      </g>
     </g>
     <g id="line2d_15">
      <g>
       <use style="stroke:#000000;stroke-width:0.5;" x="429.12" xlink:href="#m5a7d422ac3" y="43.2"/>
      </g>
     </g>
     <g id="text_5">
      <!-- 4000 -->
      <defs>
       <path d="
M58.7344 20.4531
L47.9531 20.4531
L47.9531 0
L38.5781 0
L38.5781 20.4531
L3.76562 20.4531
L3.76562 31.6875
L38.9688 72.7031
L47.9531 72.7031
L47.9531 28.2656
L58.7344 28.2656
z

M38.5781 28.2656
L38.5781 61.0781
L10.4062 28.2656
z
" id="Verdana-34"/>
      </defs>
      <g transform="translate(414.4828125 401.918125)scale(0.12 -0.12)">
       <use xlink:href="#Verdana-34"/>
       <use x="63.57421875" xlink:href="#Verdana-30"/>
       <use x="127.1484375" xlink:href="#Verdana-30"/>
       <use x="190.72265625" xlink:href="#Verdana-30"/>
      </g>
     </g>
    </g>
    <g id="xtick_6">
     <g id="line2d_16">
      <g>
       <use style="stroke:#000000;stroke-width:0.5;" x="518.4" xlink:href="#mc7db9fdffb" y="388.8"/>
      </g>
     </g>
     <g id="line2d_17">
      <g>
       <use style="stroke:#000000;stroke-width:0.5;" x="518.4" xlink:href="#m5a7d422ac3" y="43.2"/>
      </g>
     </g>
     <g id="text_6">
      <!-- 5000 -->
      <defs>
       <path d="
M56.5 23.0938
Q56.5 18.0156 54.6406 13.375
Q52.7812 8.73438 49.5625 5.5625
Q46.0469 2.15625 41.1875 0.3125
Q36.3281 -1.51562 29.9375 -1.51562
Q23.9688 -1.51562 18.4531 -0.265625
Q12.9375 0.984375 9.125 2.73438
L9.125 13.0312
L9.8125 13.0312
Q13.8125 10.5 19.1875 8.71875
Q24.5625 6.9375 29.7344 6.9375
Q33.2031 6.9375 36.4531 7.90625
Q39.7031 8.89062 42.2344 11.3281
Q44.3906 13.4219 45.4844 16.3438
Q46.5781 19.2812 46.5781 23.1406
Q46.5781 26.9062 45.2812 29.4844
Q44 32.0781 41.7031 33.6406
Q39.1562 35.5 35.5156 36.25
Q31.8906 37.0156 27.3906 37.0156
Q23.0938 37.0156 19.1094 36.4219
Q15.1406 35.8438 12.25 35.25
L12.25 72.7031
L56 72.7031
L56 64.1562
L21.6875 64.1562
L21.6875 44.8281
Q23.7812 45.0156 25.9688 45.1094
Q28.1719 45.2188 29.7812 45.2188
Q35.6875 45.2188 40.125 44.2188
Q44.5781 43.2188 48.2969 40.6719
Q52.2031 37.9844 54.3438 33.7344
Q56.5 29.5 56.5 23.0938" id="Verdana-35"/>
      </defs>
      <g transform="translate(504.084375 401.918125)scale(0.12 -0.12)">
       <use xlink:href="#Verdana-35"/>
       <use x="63.57421875" xlink:href="#Verdana-30"/>
       <use x="127.1484375" xlink:href="#Verdana-30"/>
       <use x="190.72265625" xlink:href="#Verdana-30"/>
      </g>
     </g>
    </g>
    <g id="text_7">
     <!-- Objective function exectuions -->
     <defs>
      <path d="
M37.3594 0.484375
Q34.7656 -0.203125 31.7031 -0.640625
Q28.6562 -1.07812 26.2656 -1.07812
Q17.9219 -1.07812 13.5781 3.40625
Q9.23438 7.90625 9.23438 17.8281
L9.23438 46.8281
L3.03125 46.8281
L3.03125 54.5469
L9.23438 54.5469
L9.23438 70.2188
L18.4062 70.2188
L18.4062 54.5469
L37.3594 54.5469
L37.3594 46.8281
L18.4062 46.8281
L18.4062 21.9688
Q18.4062 17.6719 18.5938 15.25
Q18.7969 12.8438 19.9688 10.75
Q21.0469 8.79688 22.9219 7.89062
Q24.8125 6.98438 28.6562 6.98438
Q30.9062 6.98438 33.3438 7.64062
Q35.7969 8.29688 36.8594 8.73438
L37.3594 8.73438
z
" id="Verdana-74"/>
      <path d="
M56.2031 54.5469
L34.125 0
L24.9062 0
L2.98438 54.5469
L12.9375 54.5469
L29.8281 11.1406
L46.5781 54.5469
z
" id="Verdana-76"/>
      <path d="
M26.0312 63.6719
L15.6719 63.6719
L15.6719 73.1875
L26.0312 73.1875
z

M25.4375 -1.3125
Q25.4375 -10.8906 20.5469 -15.7656
Q15.6719 -20.6562 7.46875 -20.6562
Q5.51562 -20.6562 2.3125 -20.2656
Q-0.875 -19.875 -3.03125 -19.2812
L-3.03125 -10.5469
L-2.54688 -10.5469
Q-1.17188 -11.0781 1.14062 -11.7656
Q3.46875 -12.4531 5.67188 -12.4531
Q9.1875 -12.4531 11.3281 -11.4688
Q13.4844 -10.5 14.5469 -8.54688
Q15.625 -6.59375 15.9375 -3.82812
Q16.2656 -1.07812 16.2656 2.875
L16.2656 46.8281
L4.89062 46.8281
L4.89062 54.5469
L25.4375 54.5469
z
" id="Verdana-6a"/>
      <path d="
M63.9688 64.3594
Q68.4062 59.4688 70.7656 52.3906
Q73.1406 45.3125 73.1406 36.3281
Q73.1406 27.3438 70.7188 20.2344
Q68.3125 13.1406 63.9688 8.40625
Q59.4688 3.46875 53.3438 0.96875
Q47.2188 -1.51562 39.3594 -1.51562
Q31.6875 -1.51562 25.4062 1.01562
Q19.1406 3.5625 14.75 8.40625
Q10.3594 13.2344 7.98438 20.2656
Q5.60938 27.2969 5.60938 36.3281
Q5.60938 45.2188 7.95312 52.2656
Q10.2969 59.3281 14.7969 64.3594
Q19.0938 69.1406 25.4688 71.6719
Q31.8438 74.2188 39.3594 74.2188
Q47.1719 74.2188 53.3906 71.6562
Q59.625 69.0938 63.9688 64.3594
M63.0938 36.3281
Q63.0938 50.4844 56.7344 58.1719
Q50.3906 65.875 39.4062 65.875
Q28.3281 65.875 22 58.1719
Q15.6719 50.4844 15.6719 36.3281
Q15.6719 22.0156 22.1094 14.4219
Q28.5625 6.84375 39.4062 6.84375
Q50.25 6.84375 56.6719 14.4219
Q63.0938 22.0156 63.0938 36.3281" id="Verdana-4f"/>
      <path d="
M54.25 0
L45.0625 0
L45.0625 6.0625
Q40.4375 2.39062 36.1875 0.4375
Q31.9375 -1.51562 26.8125 -1.51562
Q18.2188 -1.51562 13.4219 3.73438
Q8.64062 8.98438 8.64062 19.1406
L8.64062 54.5469
L17.8281 54.5469
L17.8281 23.4844
Q17.8281 19.3438 18.2188 16.375
Q18.6094 13.4219 19.875 11.3281
Q21.1875 9.1875 23.2812 8.20312
Q25.3906 7.23438 29.3906 7.23438
Q32.9531 7.23438 37.1719 9.07812
Q41.4062 10.9375 45.0625 13.8125
L45.0625 54.5469
L54.25 54.5469
z
" id="Verdana-75"/>
      <path d="
M48 15.7188
Q48 8.25 41.8125 3.46875
Q35.6406 -1.3125 24.9531 -1.3125
Q18.8906 -1.3125 13.8438 0.125
Q8.79688 1.5625 5.375 3.26562
L5.375 13.5781
L5.85938 13.5781
Q10.2031 10.2969 15.5156 8.375
Q20.8438 6.45312 25.7344 6.45312
Q31.7812 6.45312 35.2031 8.40625
Q38.625 10.3594 38.625 14.5469
Q38.625 17.7812 36.7656 19.4375
Q34.9062 21.0938 29.6406 22.2656
Q27.6875 22.7031 24.5312 23.2812
Q21.3906 23.875 18.7969 24.5625
Q11.625 26.4688 8.60938 30.1562
Q5.60938 33.8438 5.60938 39.2031
Q5.60938 42.5781 7 45.5469
Q8.40625 48.5312 11.2344 50.875
Q13.9688 53.1719 18.1875 54.5156
Q22.4062 55.8594 27.6406 55.8594
Q32.5156 55.8594 37.5156 54.6562
Q42.5312 53.4688 45.8438 51.7656
L45.8438 41.9375
L45.3594 41.9375
Q41.8438 44.5312 36.8125 46.3125
Q31.7812 48.0938 26.9531 48.0938
Q21.9219 48.0938 18.4531 46.1562
Q14.9844 44.2344 14.9844 40.4375
Q14.9844 37.0625 17.0938 35.3594
Q19.1406 33.6406 23.7344 32.5625
Q26.2656 31.9844 29.4062 31.3906
Q32.5625 30.8125 34.6719 30.3281
Q41.0625 28.8594 44.5312 25.2969
Q48 21.6875 48 15.7188" id="Verdana-73"/>
      <path d="
M56.25 0
L44.6719 0
L29.2031 20.9531
L13.625 0
L2.9375 0
L24.2188 27.2031
L3.125 54.5469
L14.7031 54.5469
L30.0781 33.9375
L45.5156 54.5469
L56.25 54.5469
L34.8125 27.6875
z
" id="Verdana-78"/>
      <path id="Verdana-20"/>
      <path d="
M38.375 67.0938
L37.8906 67.0938
Q36.375 67.5312 33.9375 67.9844
Q31.5 68.4531 29.6406 68.4531
Q23.7344 68.4531 21.0625 65.8438
Q18.4062 63.2344 18.4062 56.3906
L18.4062 54.5469
L34.9688 54.5469
L34.9688 46.8281
L18.7031 46.8281
L18.7031 0
L9.51562 0
L9.51562 46.8281
L3.32812 46.8281
L3.32812 54.5469
L9.51562 54.5469
L9.51562 56.3438
Q9.51562 66.0625 14.3438 71.2656
Q19.1875 76.4688 28.3281 76.4688
Q31.3906 76.4688 33.8594 76.1719
Q36.3281 75.875 38.375 75.4844
z
" id="Verdana-66"/>
      <path d="
M55.5156 27.25
Q55.5156 13.9219 48.6719 6.20312
Q41.8438 -1.51562 30.375 -1.51562
Q18.7969 -1.51562 11.9844 6.20312
Q5.17188 13.9219 5.17188 27.25
Q5.17188 40.5781 11.9844 48.3125
Q18.7969 56.0625 30.375 56.0625
Q41.8438 56.0625 48.6719 48.3125
Q55.5156 40.5781 55.5156 27.25
M46.0469 27.25
Q46.0469 37.8438 41.8906 42.9844
Q37.75 48.1406 30.375 48.1406
Q22.9062 48.1406 18.7812 42.9844
Q14.6562 37.8438 14.6562 27.25
Q14.6562 17 18.7969 11.6875
Q22.9531 6.39062 30.375 6.39062
Q37.7031 6.39062 41.875 11.6406
Q46.0469 16.8906 46.0469 27.25" id="Verdana-6f"/>
      <path d="
M57.0312 27.6875
Q57.0312 20.8438 55.0938 15.375
Q53.1719 9.90625 49.9062 6.20312
Q46.4375 2.34375 42.2812 0.40625
Q38.1406 -1.51562 33.1562 -1.51562
Q28.5156 -1.51562 25.0469 -0.40625
Q21.5781 0.6875 18.2188 2.54688
L17.625 0
L9.03125 0
L9.03125 75.9844
L18.2188 75.9844
L18.2188 48.8281
Q22.0781 52 26.4219 54.0312
Q30.7656 56.0625 36.1875 56.0625
Q45.8438 56.0625 51.4375 48.6406
Q57.0312 41.2188 57.0312 27.6875
M47.5625 27.4375
Q47.5625 37.2031 44.3281 42.25
Q41.1094 47.3125 33.9375 47.3125
Q29.9375 47.3125 25.8281 45.5781
Q21.7344 43.8438 18.2188 41.1094
L18.2188 9.85938
Q22.125 8.10938 24.9219 7.42188
Q27.7344 6.73438 31.2969 6.73438
Q38.9219 6.73438 43.2344 11.7344
Q47.5625 16.75 47.5625 27.4375" id="Verdana-62"/>
      <path d="
M49.3594 3.42188
Q44.7812 1.21875 40.6562 0
Q36.5312 -1.21875 31.8906 -1.21875
Q25.9844 -1.21875 21.0469 0.515625
Q16.1094 2.25 12.5938 5.76562
Q9.03125 9.28125 7.07812 14.6406
Q5.125 20.0156 5.125 27.2031
Q5.125 40.5781 12.4688 48.1875
Q19.8281 55.8125 31.8906 55.8125
Q36.5781 55.8125 41.0938 54.4844
Q45.6094 53.1719 49.3594 51.2656
L49.3594 41.0625
L48.875 41.0625
Q44.6719 44.3438 40.2031 46.0938
Q35.75 47.8594 31.5 47.8594
Q23.6875 47.8594 19.1719 42.6094
Q14.6562 37.3594 14.6562 27.2031
Q14.6562 17.3281 19.0625 12.0312
Q23.4844 6.73438 31.5 6.73438
Q34.2812 6.73438 37.1562 7.46875
Q40.0469 8.20312 42.3281 9.375
Q44.3438 10.4062 46.0938 11.5469
Q47.8594 12.7031 48.875 13.5312
L49.3594 13.5312
z
" id="Verdana-63"/>
      <path d="
M54.6406 0
L45.4531 0
L45.4531 31.0625
Q45.4531 34.8125 45.0156 38.1094
Q44.5781 41.4062 43.4062 43.2656
Q42.1875 45.3125 39.8906 46.3125
Q37.5938 47.3125 33.9375 47.3125
Q30.1719 47.3125 26.0625 45.4531
Q21.9688 43.6094 18.2188 40.7188
L18.2188 0
L9.03125 0
L9.03125 54.5469
L18.2188 54.5469
L18.2188 48.4844
Q22.5156 52.0469 27.0938 54.0469
Q31.6875 56.0625 36.5312 56.0625
Q45.3594 56.0625 50 50.7344
Q54.6406 45.4062 54.6406 35.4062
z
" id="Verdana-6e"/>
      <path d="
M54.6875 26.3125
L14.5 26.3125
Q14.5 21.2969 16.0156 17.5469
Q17.5312 13.8125 20.1719 11.4219
Q22.7031 9.07812 26.1875 7.90625
Q29.6875 6.73438 33.8906 6.73438
Q39.4531 6.73438 45.0938 8.95312
Q50.7344 11.1875 53.125 13.3281
L53.6094 13.3281
L53.6094 3.32812
Q48.9688 1.375 44.1406 0.046875
Q39.3125 -1.26562 33.9844 -1.26562
Q20.4062 -1.26562 12.7812 6.07812
Q5.17188 13.4219 5.17188 26.9531
Q5.17188 40.3281 12.4688 48.1875
Q19.7812 56.0625 31.6875 56.0625
Q42.7188 56.0625 48.7031 49.6094
Q54.6875 43.1719 54.6875 31.2969
z

M45.75 33.3438
Q45.7031 40.5781 42.1094 44.5312
Q38.5312 48.4844 31.2031 48.4844
Q23.8281 48.4844 19.4531 44.1406
Q15.0938 39.7969 14.5 33.3438
z
" id="Verdana-65"/>
      <path d="
M18.8906 63.6719
L8.54688 63.6719
L8.54688 73.1875
L18.8906 73.1875
z

M18.3125 0
L9.125 0
L9.125 54.5469
L18.3125 54.5469
z
" id="Verdana-69"/>
     </defs>
     <g transform="translate(206.5078125 418.509375)scale(0.12 -0.12)">
      <use xlink:href="#Verdana-4f"/>
      <use x="78.7109375" xlink:href="#Verdana-62"/>
      <use x="141.015625" xlink:href="#Verdana-6a"/>
      <use x="175.439453125" xlink:href="#Verdana-65"/>
      <use x="235.009765625" xlink:href="#Verdana-63"/>
      <use x="287.109375" xlink:href="#Verdana-74"/>
      <use x="326.513671875" xlink:href="#Verdana-69"/>
      <use x="353.955078125" xlink:href="#Verdana-76"/>
      <use x="412.259765625" xlink:href="#Verdana-65"/>
      <use x="471.830078125" xlink:href="#Verdana-20"/>
      <use x="506.986328125" xlink:href="#Verdana-66"/>
      <use x="542.142578125" xlink:href="#Verdana-75"/>
      <use x="605.423828125" xlink:href="#Verdana-6e"/>
      <use x="668.705078125" xlink:href="#Verdana-63"/>
      <use x="720.8046875" xlink:href="#Verdana-74"/>
      <use x="760.208984375" xlink:href="#Verdana-69"/>
      <use x="787.650390625" xlink:href="#Verdana-6f"/>
      <use x="848.34375" xlink:href="#Verdana-6e"/>
      <use x="911.625" xlink:href="#Verdana-20"/>
      <use x="946.78125" xlink:href="#Verdana-65"/>
      <use x="1006.3515625" xlink:href="#Verdana-78"/>
      <use x="1064.40625" xlink:href="#Verdana-65"/>
      <use x="1123.9765625" xlink:href="#Verdana-63"/>
      <use x="1176.076171875" xlink:href="#Verdana-74"/>
      <use x="1215.48046875" xlink:href="#Verdana-75"/>
      <use x="1278.76171875" xlink:href="#Verdana-69"/>
      <use x="1306.203125" xlink:href="#Verdana-6f"/>
      <use x="1366.896484375" xlink:href="#Verdana-6e"/>
      <use x="1430.177734375" xlink:href="#Verdana-73"/>
     </g>
    </g>
   </g>
   <g id="matplotlib.axis_2">
    <g id="ytick_1">
     <g id="line2d_18">
      <defs>
       <path d="
M0 0
L4 0" id="md7965d1ba0" style="stroke:#000000;stroke-width:0.5;"/>
      </defs>
      <g>
       <use style="stroke:#000000;stroke-width:0.5;" x="72.0" xlink:href="#md7965d1ba0" y="388.8"/>
      </g>
     </g>
     <g id="line2d_19">
      <defs>
       <path d="
M0 0
L-4 0" id="md9a1c1a7cd" style="stroke:#000000;stroke-width:0.5;"/>
      </defs>
      <g>
       <use style="stroke:#000000;stroke-width:0.5;" x="518.4" xlink:href="#md9a1c1a7cd" y="388.8"/>
      </g>
     </g>
     <g id="text_8">
      <!-- 0.0 -->
      <defs>
       <path d="
M24.0312 0
L12.3594 0
L12.3594 13.9219
L24.0312 13.9219
z
" id="Verdana-2e"/>
      </defs>
      <g transform="translate(49.97 392.1515625)scale(0.12 -0.12)">
       <use xlink:href="#Verdana-30"/>
       <use x="63.57421875" xlink:href="#Verdana-2e"/>
       <use x="99.951171875" xlink:href="#Verdana-30"/>
      </g>
     </g>
    </g>
    <g id="ytick_2">
     <g id="line2d_20">
      <g>
       <use style="stroke:#000000;stroke-width:0.5;" x="72.0" xlink:href="#md7965d1ba0" y="319.68"/>
      </g>
     </g>
     <g id="line2d_21">
      <g>
       <use style="stroke:#000000;stroke-width:0.5;" x="518.4" xlink:href="#md9a1c1a7cd" y="319.68"/>
      </g>
     </g>
     <g id="text_9">
      <!-- 0.2 -->
      <g transform="translate(49.95875 323.0315625)scale(0.12 -0.12)">
       <use xlink:href="#Verdana-30"/>
       <use x="63.57421875" xlink:href="#Verdana-2e"/>
       <use x="99.951171875" xlink:href="#Verdana-32"/>
      </g>
     </g>
    </g>
    <g id="ytick_3">
     <g id="line2d_22">
      <g>
       <use style="stroke:#000000;stroke-width:0.5;" x="72.0" xlink:href="#md7965d1ba0" y="250.56"/>
      </g>
     </g>
     <g id="line2d_23">
      <g>
       <use style="stroke:#000000;stroke-width:0.5;" x="518.4" xlink:href="#md9a1c1a7cd" y="250.56"/>
      </g>
     </g>
     <g id="text_10">
      <!-- 0.4 -->
      <g transform="translate(49.76 253.9115625)scale(0.12 -0.12)">
       <use xlink:href="#Verdana-30"/>
       <use x="63.57421875" xlink:href="#Verdana-2e"/>
       <use x="99.951171875" xlink:href="#Verdana-34"/>
      </g>
     </g>
    </g>
    <g id="ytick_4">
     <g id="line2d_24">
      <g>
       <use style="stroke:#000000;stroke-width:0.5;" x="72.0" xlink:href="#md7965d1ba0" y="181.44"/>
      </g>
     </g>
     <g id="line2d_25">
      <g>
       <use style="stroke:#000000;stroke-width:0.5;" x="518.4" xlink:href="#md9a1c1a7cd" y="181.44"/>
      </g>
     </g>
     <g id="text_11">
      <!-- 0.6 -->
      <defs>
       <path d="
M58.1562 23.5781
Q58.1562 12.5 50.8594 5.48438
Q43.5625 -1.51562 32.9531 -1.51562
Q27.5938 -1.51562 23.1875 0.140625
Q18.7969 1.8125 15.4375 5.07812
Q11.2344 9.125 8.95312 15.8125
Q6.6875 22.5156 6.6875 31.9375
Q6.6875 41.6094 8.76562 49.0781
Q10.8438 56.5469 15.375 62.3594
Q19.6719 67.875 26.4531 70.9688
Q33.25 74.0781 42.2812 74.0781
Q45.1719 74.0781 47.125 73.8281
Q49.0781 73.5781 51.0781 72.9531
L51.0781 63.625
L50.5938 63.625
Q49.2188 64.3594 46.4531 65.0156
Q43.7031 65.6719 40.8281 65.6719
Q30.3281 65.6719 24.0781 59.1094
Q17.8281 52.5469 16.7969 41.3594
Q20.9062 43.8438 24.875 45.1406
Q28.8594 46.4375 34.0781 46.4375
Q38.7188 46.4375 42.25 45.5781
Q45.7969 44.7344 49.5156 42.1406
Q53.8125 39.1562 55.9844 34.6094
Q58.1562 30.0781 58.1562 23.5781
M48.25 23.1875
Q48.25 27.7344 46.9062 30.7031
Q45.5625 33.6875 42.4844 35.8906
Q40.2344 37.4531 37.5 37.9375
Q34.7656 38.4219 31.7812 38.4219
Q27.6406 38.4219 24.0781 37.4375
Q20.5156 36.4688 16.75 34.4219
Q16.6562 33.3438 16.5938 32.3438
Q16.5469 31.3438 16.5469 29.8281
Q16.5469 22.125 18.1406 17.6562
Q19.7344 13.1875 22.5156 10.5938
Q24.75 8.45312 27.3594 7.45312
Q29.9844 6.45312 33.0625 6.45312
Q40.1406 6.45312 44.1875 10.7656
Q48.25 15.0938 48.25 23.1875" id="Verdana-36"/>
      </defs>
      <g transform="translate(49.829375 184.7915625)scale(0.12 -0.12)">
       <use xlink:href="#Verdana-30"/>
       <use x="63.57421875" xlink:href="#Verdana-2e"/>
       <use x="99.951171875" xlink:href="#Verdana-36"/>
      </g>
     </g>
    </g>
    <g id="ytick_5">
     <g id="line2d_26">
      <g>
       <use style="stroke:#000000;stroke-width:0.5;" x="72.0" xlink:href="#md7965d1ba0" y="112.32"/>
      </g>
     </g>
     <g id="line2d_27">
      <g>
       <use style="stroke:#000000;stroke-width:0.5;" x="518.4" xlink:href="#md9a1c1a7cd" y="112.32"/>
      </g>
     </g>
     <g id="text_12">
      <!-- 0.8 -->
      <defs>
       <path d="
M57.625 20.2656
Q57.625 10.8438 50.2656 4.59375
Q42.9219 -1.65625 31.7812 -1.65625
Q19.9688 -1.65625 12.9531 4.4375
Q5.95312 10.5469 5.95312 20.0625
Q5.95312 26.125 9.46875 31.0312
Q12.9844 35.9375 19.3906 38.8125
L19.3906 39.1094
Q13.5312 42.2344 10.7188 45.9375
Q7.90625 49.6562 7.90625 55.2188
Q7.90625 63.4219 14.6406 68.8906
Q21.3906 74.3594 31.7812 74.3594
Q42.6719 74.3594 49.1719 69.1406
Q55.6719 63.9219 55.6719 55.8594
Q55.6719 50.9219 52.5938 46.1562
Q49.5156 41.4062 43.5625 38.7188
L43.5625 38.4219
Q50.3906 35.5 54 31.2031
Q57.625 26.9062 57.625 20.2656
M46.0469 55.7656
Q46.0469 60.9844 42.0156 64.0781
Q37.9844 67.1875 31.7344 67.1875
Q25.5938 67.1875 21.6562 64.25
Q17.7188 61.3281 17.7188 56.3438
Q17.7188 52.8281 19.7031 50.2656
Q21.6875 47.7031 25.6875 45.7031
Q27.4844 44.8281 30.875 43.4062
Q34.2812 42 37.5 41.0625
Q42.3281 44.2812 44.1875 47.75
Q46.0469 51.2188 46.0469 55.7656
M47.5625 19.3438
Q47.5625 23.8281 45.5781 26.5312
Q43.6094 29.25 37.8438 31.9844
Q35.5469 33.0625 32.8125 33.9844
Q30.0781 34.9062 25.5312 36.5781
Q21.1406 34.1875 18.4844 30.0781
Q15.8281 25.9844 15.8281 20.7969
Q15.8281 14.2031 20.3594 9.90625
Q24.9062 5.60938 31.8906 5.60938
Q39.0156 5.60938 43.2812 9.26562
Q47.5625 12.9375 47.5625 19.3438" id="Verdana-38"/>
      </defs>
      <g transform="translate(49.893125 115.6715625)scale(0.12 -0.12)">
       <use xlink:href="#Verdana-30"/>
       <use x="63.57421875" xlink:href="#Verdana-2e"/>
       <use x="99.951171875" xlink:href="#Verdana-38"/>
      </g>
     </g>
    </g>
    <g id="ytick_6">
     <g id="line2d_28">
      <g>
       <use style="stroke:#000000;stroke-width:0.5;" x="72.0" xlink:href="#md7965d1ba0" y="43.2"/>
      </g>
     </g>
     <g id="line2d_29">
      <g>
       <use style="stroke:#000000;stroke-width:0.5;" x="518.4" xlink:href="#md9a1c1a7cd" y="43.2"/>
      </g>
     </g>
     <g id="text_13">
      <!-- 1.0 -->
      <g transform="translate(50.796875 46.5515625)scale(0.12 -0.12)">
       <use xlink:href="#Verdana-31"/>
       <use x="63.57421875" xlink:href="#Verdana-2e"/>
       <use x="99.951171875" xlink:href="#Verdana-30"/>
      </g>
     </g>
    </g>
    <g id="text_14">
     <!-- Data Profile T-0.0010000 -->
     <defs>
      <path d="
M43.0625 44.5312
L42.5781 44.5312
Q40.5312 45.0156 38.5938 45.2344
Q36.6719 45.4531 34.0312 45.4531
Q29.7812 45.4531 25.8281 43.5781
Q21.875 41.7031 18.2188 38.7188
L18.2188 0
L9.03125 0
L9.03125 54.5469
L18.2188 54.5469
L18.2188 46.4844
Q23.6875 50.875 27.8594 52.7031
Q32.0312 54.5469 36.375 54.5469
Q38.7656 54.5469 39.8438 54.4219
Q40.9219 54.2969 43.0625 53.9531
z
" id="Verdana-72"/>
      <path d="
M37.9375 27.3906
L7.46875 27.3906
L7.46875 36.2344
L37.9375 36.2344
z
" id="Verdana-2d"/>
      <path d="
M18.3125 0
L9.125 0
L9.125 75.9844
L18.3125 75.9844
z
" id="Verdana-6c"/>
      <path d="
M57.3281 50.7344
Q57.3281 45.9062 55.6406 41.7656
Q53.9531 37.6406 50.9219 34.625
Q47.1719 30.8594 42.0469 28.9688
Q36.9219 27.0938 29.1094 27.0938
L19.4375 27.0938
L19.4375 0
L9.76562 0
L9.76562 72.7031
L29.5 72.7031
Q36.0312 72.7031 40.5781 71.6094
Q45.125 70.5156 48.6406 68.1719
Q52.7812 65.375 55.0469 61.2188
Q57.3281 57.0781 57.3281 50.7344
M47.2656 50.4844
Q47.2656 54.25 45.9375 57.0312
Q44.625 59.8125 41.9375 61.5781
Q39.5938 63.0938 36.5938 63.75
Q33.5938 64.4062 29 64.4062
L19.4375 64.4062
L19.4375 35.3594
L27.5938 35.3594
Q33.4531 35.3594 37.1094 36.4062
Q40.7656 37.4531 43.0625 39.75
Q45.3594 42.0938 46.3125 44.6719
Q47.2656 47.2656 47.2656 50.4844" id="Verdana-50"/>
      <path d="
M61.625 64.1094
L35.6406 64.1094
L35.6406 0
L25.9844 0
L25.9844 64.1094
L0 64.1094
L0 72.7031
L61.625 72.7031
z
" id="Verdana-54"/>
      <path d="
M51.4219 0
L42.2812 0
L42.2812 5.8125
Q41.0625 4.98438 38.9844 3.48438
Q36.9219 2 34.9688 1.125
Q32.6719 0 29.6875 -0.75
Q26.7031 -1.51562 22.7031 -1.51562
Q15.3281 -1.51562 10.2031 3.35938
Q5.07812 8.25 5.07812 15.8281
Q5.07812 22.0156 7.73438 25.8438
Q10.4062 29.6875 15.3281 31.8906
Q20.3125 34.0781 27.2969 34.8594
Q34.2812 35.6406 42.2812 36.0312
L42.2812 37.4531
Q42.2812 40.5781 41.1875 42.625
Q40.0938 44.6719 38.0312 45.8438
Q36.0781 46.9688 33.3438 47.3594
Q30.6094 47.75 27.6406 47.75
Q24.0312 47.75 19.5781 46.7969
Q15.1406 45.8438 10.4062 44.0469
L9.90625 44.0469
L9.90625 53.375
Q12.5938 54.1094 17.6719 54.9844
Q22.75 55.8594 27.6875 55.8594
Q33.4531 55.8594 37.7188 54.9062
Q42 53.9531 45.125 51.6562
Q48.1875 49.4219 49.7969 45.8438
Q51.4219 42.2812 51.4219 37.0156
z

M42.2812 13.4219
L42.2812 28.6094
Q38.0938 28.375 32.3906 27.875
Q26.7031 27.3906 23.3906 26.4688
Q19.4375 25.3438 16.9844 22.9688
Q14.5469 20.6094 14.5469 16.4531
Q14.5469 11.7656 17.375 9.39062
Q20.2188 7.03125 26.0312 7.03125
Q30.8594 7.03125 34.8594 8.90625
Q38.875 10.7969 42.2812 13.4219" id="Verdana-61"/>
      <path d="
M71.1875 36.2812
Q71.1875 26.375 66.8594 18.3125
Q62.5469 10.25 55.375 5.8125
Q50.3906 2.73438 44.2656 1.35938
Q38.1406 0 28.125 0
L9.76562 0
L9.76562 72.7031
L27.9375 72.7031
Q38.5781 72.7031 44.8438 71.1562
Q51.125 69.625 55.4688 66.9375
Q62.8906 62.3125 67.0312 54.5938
Q71.1875 46.875 71.1875 36.2812
M61.0781 36.4219
Q61.0781 44.9688 58.0938 50.8281
Q55.125 56.6875 49.2188 60.0625
Q44.9219 62.5 40.0781 63.4531
Q35.25 64.4062 28.5156 64.4062
L19.4375 64.4062
L19.4375 8.29688
L28.5156 8.29688
Q35.5 8.29688 40.7031 9.32812
Q45.9062 10.3594 50.25 13.1406
Q55.6719 16.6094 58.375 22.2656
Q61.0781 27.9375 61.0781 36.4219" id="Verdana-44"/>
     </defs>
     <g transform="translate(42.345 291.493125)rotate(-90.0)scale(0.12 -0.12)">
      <use xlink:href="#Verdana-44"/>
      <use x="77.05078125" xlink:href="#Verdana-61"/>
      <use x="137.109375" xlink:href="#Verdana-74"/>
      <use x="176.513671875" xlink:href="#Verdana-61"/>
      <use x="236.572265625" xlink:href="#Verdana-20"/>
      <use x="271.728515625" xlink:href="#Verdana-50"/>
      <use x="332.03125" xlink:href="#Verdana-72"/>
      <use x="374.70703125" xlink:href="#Verdana-6f"/>
      <use x="435.400390625" xlink:href="#Verdana-66"/>
      <use x="470.556640625" xlink:href="#Verdana-69"/>
      <use x="497.998046875" xlink:href="#Verdana-6c"/>
      <use x="525.439453125" xlink:href="#Verdana-65"/>
      <use x="585.009765625" xlink:href="#Verdana-20"/>
      <use x="620.166015625" xlink:href="#Verdana-54"/>
      <use x="674.412109375" xlink:href="#Verdana-2d"/>
      <use x="719.822265625" xlink:href="#Verdana-30"/>
      <use x="783.396484375" xlink:href="#Verdana-2e"/>
      <use x="819.7734375" xlink:href="#Verdana-30"/>
      <use x="883.34765625" xlink:href="#Verdana-30"/>
      <use x="946.921875" xlink:href="#Verdana-31"/>
      <use x="1010.49609375" xlink:href="#Verdana-30"/>
      <use x="1074.0703125" xlink:href="#Verdana-30"/>
      <use x="1137.64453125" xlink:href="#Verdana-30"/>
      <use x="1201.21875" xlink:href="#Verdana-30"/>
     </g>
    </g>
   </g>
   <g id="patch_3">
    <path d="
M72 388.8
L518.4 388.8" style="fill:none;stroke:#000000;"/>
   </g>
   <g id="patch_4">
    <path d="
M518.4 388.8
L518.4 43.2" style="fill:none;stroke:#000000;"/>
   </g>
   <g id="patch_5">
    <path d="
M72 388.8
L72 43.2" style="fill:none;stroke:#000000;"/>
   </g>
   <g id="patch_6">
    <path d="
M72 43.2
L518.4 43.2" style="fill:none;stroke:#000000;"/>
   </g>
   <g id="text_15">
    <!-- Sargan Data Profile T-0.0010000 -->
    <defs>
     <path d="
M62.5938 20.75
Q62.5938 16.5 60.6094 12.3438
Q58.6406 8.20312 55.0781 5.32812
Q51.1719 2.20312 45.9688 0.4375
Q40.7656 -1.3125 33.4531 -1.3125
Q25.5938 -1.3125 19.3125 0.140625
Q13.0312 1.60938 6.54688 4.5
L6.54688 16.6094
L7.23438 16.6094
Q12.75 12.0156 19.9688 9.51562
Q27.2031 7.03125 33.5469 7.03125
Q42.5312 7.03125 47.5312 10.3906
Q52.5469 13.7656 52.5469 19.3906
Q52.5469 24.2188 50.1719 26.5156
Q47.7969 28.8125 42.9688 30.0781
Q39.3125 31.0625 35.0312 31.6875
Q30.7656 32.3281 25.9844 33.2969
Q16.3125 35.3594 11.6406 40.3125
Q6.98438 45.2656 6.98438 53.2188
Q6.98438 62.3594 14.6875 68.1875
Q22.4062 74.0312 34.2812 74.0312
Q41.9375 74.0312 48.3281 72.5625
Q54.7344 71.0938 59.6719 68.9531
L59.6719 57.5156
L58.9844 57.5156
Q54.8281 61.0312 48.0625 63.3438
Q41.3125 65.6719 34.2344 65.6719
Q26.4688 65.6719 21.75 62.4531
Q17.0469 59.2344 17.0469 54.1562
Q17.0469 49.6094 19.3906 47.0156
Q21.7344 44.4375 27.6406 43.0625
Q30.7656 42.3906 36.5156 41.4062
Q42.2812 40.4375 46.2969 39.4062
Q54.3906 37.25 58.4844 32.9062
Q62.5938 28.5625 62.5938 20.75" id="Verdana-53"/>
     <path d="
M53.2656 6.20312
Q53.2656 -7.67188 46.9688 -14.1562
Q40.6719 -20.6562 27.5938 -20.6562
Q23.25 -20.6562 19.1094 -20.0469
Q14.9844 -19.4375 10.9844 -18.3125
L10.9844 -8.9375
L11.4688 -8.9375
Q13.7188 -9.8125 18.5938 -11.1094
Q23.4844 -12.4062 28.375 -12.4062
Q33.0625 -12.4062 36.125 -11.2812
Q39.2031 -10.1562 40.9219 -8.15625
Q42.625 -6.25 43.3594 -3.5625
Q44.0938 -0.875 44.0938 2.4375
L44.0938 7.42188
Q39.9375 4.10938 36.1562 2.46875
Q32.375 0.828125 26.5156 0.828125
Q16.75 0.828125 11.0156 7.875
Q5.28125 14.9375 5.28125 27.7812
Q5.28125 34.8125 7.25 39.9062
Q9.23438 45.0156 12.6406 48.7344
Q15.8281 52.2031 20.3594 54.125
Q24.9062 56.0625 29.3906 56.0625
Q34.125 56.0625 37.3281 55.1094
Q40.5312 54.1562 44.0938 52.2031
L44.6719 54.5469
L53.2656 54.5469
z

M44.0938 14.9844
L44.0938 44.7344
Q40.4375 46.3906 37.2812 47.0938
Q34.125 47.7969 31 47.7969
Q23.4375 47.7969 19.0938 42.7188
Q14.75 37.6406 14.75 27.9844
Q14.75 18.7969 17.9688 14.0625
Q21.1875 9.32812 28.6562 9.32812
Q32.6719 9.32812 36.6875 10.8594
Q40.7188 12.4062 44.0938 14.9844" id="Verdana-67"/>
    </defs>
    <g transform="translate(176.391 38.2)scale(0.144 -0.144)">
     <use xlink:href="#Verdana-53"/>
     <use x="68.359375" xlink:href="#Verdana-61"/>
     <use x="128.41796875" xlink:href="#Verdana-72"/>
     <use x="171.09375" xlink:href="#Verdana-67"/>
     <use x="233.3984375" xlink:href="#Verdana-61"/>
     <use x="293.45703125" xlink:href="#Verdana-6e"/>
     <use x="356.73828125" xlink:href="#Verdana-20"/>
     <use x="391.89453125" xlink:href="#Verdana-44"/>
     <use x="468.9453125" xlink:href="#Verdana-61"/>
     <use x="529.00390625" xlink:href="#Verdana-74"/>
     <use x="568.408203125" xlink:href="#Verdana-61"/>
     <use x="628.466796875" xlink:href="#Verdana-20"/>
     <use x="663.623046875" xlink:href="#Verdana-50"/>
     <use x="723.92578125" xlink:href="#Verdana-72"/>
     <use x="766.6015625" xlink:href="#Verdana-6f"/>
     <use x="827.294921875" xlink:href="#Verdana-66"/>
     <use x="862.451171875" xlink:href="#Verdana-69"/>
     <use x="889.892578125" xlink:href="#Verdana-6c"/>
     <use x="917.333984375" xlink:href="#Verdana-65"/>
     <use x="976.904296875" xlink:href="#Verdana-20"/>
     <use x="1012.060546875" xlink:href="#Verdana-54"/>
     <use x="1066.306640625" xlink:href="#Verdana-2d"/>
     <use x="1111.716796875" xlink:href="#Verdana-30"/>
     <use x="1175.291015625" xlink:href="#Verdana-2e"/>
     <use x="1211.66796875" xlink:href="#Verdana-30"/>
     <use x="1275.2421875" xlink:href="#Verdana-30"/>
     <use x="1338.81640625" xlink:href="#Verdana-31"/>
     <use x="1402.390625" xlink:href="#Verdana-30"/>
     <use x="1465.96484375" xlink:href="#Verdana-30"/>
     <use x="1529.5390625" xlink:href="#Verdana-30"/>
     <use x="1593.11328125" xlink:href="#Verdana-30"/>
    </g>
   </g>
   <g id="legend_1">
    <g id="patch_7">
     <path d="
M407.18 381.6
L511.2 381.6
L511.2 272.081
L407.18 272.081
L407.18 381.6
z
" style="fill:#ffffff;stroke:#000000;"/>
    </g>
    <g id="line2d_30">
     <path d="
M417.26 283.743
L437.42 283.743" style="fill:none;stroke:#0000ff;stroke-dasharray:6.000000,2.000000;stroke-dashoffset:0.0;"/>
    </g>
    <g id="line2d_31"/>
    <g id="text_16">
     <!-- AMPGO -->
     <defs>
      <path d="
M67.0938 0
L56.7812 0
L49.6562 20.2656
L18.2188 20.2656
L11.0781 0
L1.26562 0
L27.7344 72.7031
L40.625 72.7031
z

M46.6875 28.5625
L33.9375 64.2656
L21.1406 28.5625
z
" id="Verdana-41"/>
      <path d="
M74.5156 0
L64.8438 0
L64.8438 62.6406
L44.625 20.0156
L38.875 20.0156
L18.7969 62.6406
L18.7969 0
L9.76562 0
L9.76562 72.7031
L22.9531 72.7031
L42.3281 32.2344
L61.0781 72.7031
L74.5156 72.7031
z
" id="Verdana-4d"/>
      <path d="
M70.4062 5.375
Q64.4531 2.64062 57.3906 0.609375
Q50.3438 -1.42188 43.75 -1.42188
Q35.25 -1.42188 28.1719 0.921875
Q21.0938 3.26562 16.1094 7.95312
Q11.0781 12.7031 8.34375 19.7969
Q5.60938 26.9062 5.60938 36.4219
Q5.60938 53.8594 15.7969 63.9375
Q25.9844 74.0312 43.75 74.0312
Q49.9531 74.0312 56.4219 72.5312
Q62.8906 71.0469 70.3594 67.4844
L70.3594 56
L69.4844 56
Q67.9688 57.1719 65.0781 59.0781
Q62.2031 60.9844 59.4219 62.25
Q56.0625 63.7656 51.7812 64.7656
Q47.5156 65.7656 42.0938 65.7656
Q29.8906 65.7656 22.7812 57.9219
Q15.6719 50.0938 15.6719 36.7188
Q15.6719 22.6094 23.0938 14.7656
Q30.5156 6.9375 43.3125 6.9375
Q48 6.9375 52.6562 7.85938
Q57.3281 8.79688 60.8438 10.25
L60.8438 28.0781
L41.3594 28.0781
L41.3594 36.5781
L70.4062 36.5781
z
" id="Verdana-47"/>
     </defs>
     <g transform="translate(453.26025 288.783)scale(0.144 -0.144)">
      <use xlink:href="#Verdana-41"/>
      <use x="68.359375" xlink:href="#Verdana-4d"/>
      <use x="152.63671875" xlink:href="#Verdana-50"/>
      <use x="212.939453125" xlink:href="#Verdana-47"/>
      <use x="290.478515625" xlink:href="#Verdana-4f"/>
     </g>
    </g>
    <g id="line2d_32">
     <path d="
M417.26 304.783
L437.42 304.783" style="fill:none;stroke:#008000;stroke-dasharray:1.000000,1.000000;stroke-dashoffset:0.0;"/>
    </g>
    <g id="line2d_33"/>
    <g id="text_17">
     <!-- Anneal -->
     <g transform="translate(453.26025 309.82275)scale(0.144 -0.144)">
      <use xlink:href="#Verdana-41"/>
      <use x="68.359375" xlink:href="#Verdana-6e"/>
      <use x="131.640625" xlink:href="#Verdana-6e"/>
      <use x="194.921875" xlink:href="#Verdana-65"/>
      <use x="254.4921875" xlink:href="#Verdana-61"/>
      <use x="314.55078125" xlink:href="#Verdana-6c"/>
     </g>
    </g>
    <g id="line2d_34">
     <path d="
M417.26 325.822
L437.42 325.822" style="fill:none;stroke:#ff0000;stroke-dasharray:3.000000,6.000000;stroke-dashoffset:0.0;"/>
    </g>
    <g id="line2d_35"/>
    <g id="text_18">
     <!-- BSA -->
     <defs>
      <path d="
M64.5938 22.3594
Q64.5938 16.9375 62.5469 12.7812
Q60.5 8.64062 57.0312 5.95312
Q52.9375 2.73438 48.0156 1.35938
Q43.1094 0 35.5469 0
L9.76562 0
L9.76562 72.7031
L31.2969 72.7031
Q39.2656 72.7031 43.2188 72.1094
Q47.1719 71.5312 50.7812 69.6719
Q54.7812 67.5781 56.5938 64.2812
Q58.4062 60.9844 58.4062 56.3906
Q58.4062 51.2188 55.7656 47.5781
Q53.125 43.9531 48.7344 41.75
L48.7344 41.3594
Q56.1094 39.8438 60.3438 34.8906
Q64.5938 29.9375 64.5938 22.3594
M48.3438 55.125
Q48.3438 57.7656 47.4531 59.5625
Q46.5781 61.375 44.625 62.5
Q42.3281 63.8125 39.0625 64.125
Q35.7969 64.4531 30.9531 64.4531
L19.4375 64.4531
L19.4375 43.4531
L31.9375 43.4531
Q36.4688 43.4531 39.1562 43.9219
Q41.8438 44.3906 44.1406 45.8438
Q46.4375 47.3125 47.3906 49.625
Q48.3438 51.9531 48.3438 55.125
M54.5469 21.9688
Q54.5469 26.375 53.2188 28.9531
Q51.9062 31.5469 48.4375 33.3438
Q46.0938 34.5781 42.75 34.9375
Q39.4062 35.2969 34.625 35.2969
L19.4375 35.2969
L19.4375 8.25
L32.2344 8.25
Q38.5781 8.25 42.625 8.90625
Q46.6875 9.57812 49.2656 11.3281
Q52 13.2344 53.2656 15.6719
Q54.5469 18.1094 54.5469 21.9688" id="Verdana-42"/>
     </defs>
     <g transform="translate(453.26025 330.8625)scale(0.144 -0.144)">
      <use xlink:href="#Verdana-42"/>
      <use x="68.5546875" xlink:href="#Verdana-53"/>
      <use x="135.9140625" xlink:href="#Verdana-41"/>
     </g>
    </g>
    <g id="line2d_36">
     <path d="
M417.26 346.862
L437.42 346.862" style="fill:none;stroke:#00bfbf;stroke-dasharray:5.000000,1.000000,2.000000,1.000000,5.000000,1.000000;stroke-dashoffset:0.0;"/>
    </g>
    <g id="line2d_37"/>
    <g id="text_19">
     <!-- Cuckoo -->
     <defs>
      <path d="
M58.5469 0
L46.4375 0
L24.5625 23.875
L18.6094 18.2188
L18.6094 0
L9.42188 0
L9.42188 75.9844
L18.6094 75.9844
L18.6094 27.25
L45.125 54.5469
L56.6875 54.5469
L31.3438 29.3438
z
" id="Verdana-6b"/>
      <path d="
M65.9219 5.28125
Q63.2344 4.10938 61.0625 3.07812
Q58.8906 2.04688 55.375 0.921875
Q52.3906 0 48.8906 -0.65625
Q45.4062 -1.3125 41.2188 -1.3125
Q33.2969 -1.3125 26.8281 0.90625
Q20.3594 3.125 15.5781 7.85938
Q10.8906 12.5 8.25 19.6562
Q5.60938 26.8125 5.60938 36.2812
Q5.60938 45.2656 8.14062 52.3438
Q10.6875 59.4219 15.4844 64.3125
Q20.125 69.0469 26.6875 71.5312
Q33.25 74.0312 41.2656 74.0312
Q47.125 74.0312 52.9531 72.6094
Q58.7969 71.1875 65.9219 67.625
L65.9219 56.1562
L65.1875 56.1562
Q59.1875 61.1875 53.2656 63.4688
Q47.3594 65.7656 40.625 65.7656
Q35.1094 65.7656 30.6875 63.9844
Q26.2656 62.2031 22.7969 58.4531
Q19.4375 54.7812 17.5469 49.1875
Q15.6719 43.6094 15.6719 36.2812
Q15.6719 28.6094 17.75 23.0938
Q19.8281 17.5781 23.0938 14.1094
Q26.5156 10.5 31.0781 8.76562
Q35.6406 7.03125 40.7188 7.03125
Q47.7031 7.03125 53.7969 9.42188
Q59.9062 11.8125 65.2344 16.6094
L65.9219 16.6094
z
" id="Verdana-43"/>
     </defs>
     <g transform="translate(453.26025 351.90225)scale(0.144 -0.144)">
      <use xlink:href="#Verdana-43"/>
      <use x="69.82421875" xlink:href="#Verdana-75"/>
      <use x="133.10546875" xlink:href="#Verdana-63"/>
      <use x="185.205078125" xlink:href="#Verdana-6b"/>
      <use x="243.384765625" xlink:href="#Verdana-6f"/>
      <use x="304.078125" xlink:href="#Verdana-6f"/>
     </g>
    </g>
    <g id="line2d_38">
     <path d="
M417.26 367.902
L437.42 367.902" style="fill:none;stroke:#bf00bf;stroke-linecap:square;"/>
    </g>
    <g id="line2d_39"/>
    <g id="text_20">
     <!-- qABC -->
     <defs>
      <path d="
M53.2656 -20.125
L44.0938 -20.125
L44.0938 6.15625
Q39.8438 2.48438 35.6406 0.703125
Q31.4531 -1.07812 26.5625 -1.07812
Q16.8438 -1.07812 11.0625 6.42188
Q5.28125 13.9219 5.28125 27.0938
Q5.28125 34.125 7.29688 39.5156
Q9.32812 44.9219 12.6406 48.5781
Q15.875 52.1562 20.2188 54.1094
Q24.5625 56.0625 29.3906 56.0625
Q33.7969 56.0625 37.1875 55.0781
Q40.5781 54.1094 44.0938 52.2031
L44.6719 54.5469
L53.2656 54.5469
z

M44.0938 13.875
L44.0938 44.7344
Q40.2812 46.4375 37.3438 47.1094
Q34.4219 47.7969 31 47.7969
Q23.0469 47.7969 18.8906 42.4062
Q14.75 37.0156 14.75 27.5469
Q14.75 17.9688 18.0938 12.8125
Q21.4375 7.67188 28.6094 7.67188
Q32.625 7.67188 36.625 9.40625
Q40.625 11.1406 44.0938 13.875" id="Verdana-71"/>
     </defs>
     <g transform="translate(453.26025 372.942)scale(0.144 -0.144)">
      <use xlink:href="#Verdana-71"/>
      <use x="62.3046875" xlink:href="#Verdana-41"/>
      <use x="130.6640625" xlink:href="#Verdana-42"/>
      <use x="199.21875" xlink:href="#Verdana-43"/>
     </g>
    </g>
   </g>
  </g>
 </g>
 <defs>
  <clipPath id="p7ff5b81e1d">
   <rect height="345.6" width="446.4" x="72.0" y="43.2"/>
  </clipPath>
 </defs>
</svg>
