<?xml version="1.0" encoding="utf-8" standalone="no"?>
<!DOCTYPE svg PUBLIC "-//W3C//DTD SVG 1.1//EN"
  "http://www.w3.org/Graphics/SVG/1.1/DTD/svg11.dtd">
<!-- Created with matplotlib (http://matplotlib.org/) -->
<svg height="432pt" version="1.1" viewBox="0 0 576 432" width="576pt" xmlns="http://www.w3.org/2000/svg" xmlns:xlink="http://www.w3.org/1999/xlink">
 <defs>
  <style type="text/css">
*{stroke-linecap:butt;stroke-linejoin:round;}
  </style>
 </defs>
 <g id="figure_1">
  <g id="patch_1">
   <path d="
M0 432
L576 432
L576 0
L0 0
z
" style="fill:#ffffff;"/>
  </g>
  <g id="axes_1">
   <g id="patch_2">
    <path d="
M72 388.8
L518.4 388.8
L518.4 43.2
L72 43.2
z
" style="fill:#ffffff;"/>
   </g>
   <g id="line2d_1">
    <path clip-path="url(#p7ff5b81e1d)" d="
M72 83.6156
L80.7494 83.6156
L80.928 112.072
L89.4989 112.072
L89.6774 166.897
L98.2483 166.897
L98.4269 222.072
L106.998 222.072
L107.176 242.954
L115.747 242.954
L115.926 258.888
L124.497 258.888
L124.675 267.891
L133.246 267.891
L133.425 273.495
L141.996 273.495
L142.174 276.074
L150.745 276.074
L150.924 277.53
L159.494 277.53
L159.673 278.428
L168.244 278.428
L168.422 278.987
L176.993 278.987
L177.172 279.372
L185.743 279.372
L185.921 279.619
L194.492 279.619
L194.671 279.792
L203.242 279.792
L203.42 279.904
L220.74 279.977
L221.008 280.038
L238.239 280.093
L238.418 280.164
L255.738 280.257
L255.917 280.378
L264.488 280.378
L264.666 280.497
L273.237 280.497
L273.416 280.612
L290.736 280.716
L290.915 280.805
L308.235 280.877
L308.503 280.935
L334.483 281.02
L334.93 281.048
L395.819 281.157
L396.265 281.181
L422.067 281.266
L422.335 281.329
L439.566 281.411
L439.744 281.498
L457.065 281.589
L457.243 281.686
L474.564 281.784
L474.742 281.891
L483.313 281.891
L483.492 282.003
L500.812 282.102
L500.99 282.19
L518.311 282.279
L518.311 282.279" style="fill:none;stroke:#0000ff;stroke-dasharray:6.000000,2.000000;stroke-dashoffset:0.0;"/>
   </g>
   <g id="line2d_2">
    <path clip-path="url(#p7ff5b81e1d)" d="
M72 83.969
L72.9821 96.9764
L75.2141 123.396
L77.1782 143.754
L80.5709 173.386
L83.2493 192.997
L85.1242 205.088
L86.017 210.175
L88.4275 223.264
L91.6416 238.254
L94.8557 250.798
L95.4806 253.024
L96.6413 256.801
L97.6234 259.894
L98.8733 263.591
L101.998 272.335
L103.427 275.87
L106.998 283.918
L109.14 288.126
L111.64 292.584
L115.39 298.716
L118.247 302.694
L119.497 304.303
L124.318 310.057
L125.836 311.747
L127.354 313.356
L131.818 317.583
L132.532 318.213
L137.71 322.363
L139.674 323.749
L141.906 325.296
L143.781 326.527
L144.852 327.146
L150.566 330.556
L157.084 333.835
L158.244 334.401
L164.851 337.239
L169.851 339.247
L171.101 339.735
L171.904 340.034
L177.35 341.799
L178.6 342.176
L181.636 343.074
L184.225 343.741
L192.528 345.897
L195.028 346.443
L197.081 346.903
L198.778 347.266
L209.67 349.425
L213.687 350.102
L215.919 350.451
L236.097 353.314
L239.043 353.653
L246.007 354.467
L248.685 354.745
L252.167 355.096
L256.72 355.532
L262.702 356.05
L273.862 356.936
L285.379 357.739
L293.772 358.266
L298.503 358.508
L303.682 358.798
L307.788 359.02
L313.502 359.298
L317.163 359.475
L326.894 359.903
L331.269 360.102
L338.322 360.394
L352.428 360.893
L418.049 362.693
L427.156 362.887
L449.208 363.336
L480.545 363.829
L488.313 363.946
L491.705 363.995
L518.311 364.366
L518.311 364.366" style="fill:none;stroke:#008000;stroke-dasharray:1.000000,1.000000;stroke-dashoffset:0.0;"/>
   </g>
   <g id="line2d_3">
    <path clip-path="url(#p7ff5b81e1d)" d="
M72 84.2011
L72.0893 93.7847
L72.2678 101.412
L72.625 108.114
L73.0714 112.387
L73.5178 114.737
L74.0534 116.401
L77.089 121.386
L77.7139 122.386
L78.7853 123.843
L80.3923 126.048
L80.928 126.856
L81.1066 126.993
L81.7315 127.947
L81.9994 128.256
L82.8029 129.142
L83.6064 130.012
L84.4992 131.027
L85.5706 132.239
L87.4454 134.168
L88.5168 135.278
L89.0525 135.656
L90.3917 136.892
L91.1059 137.469
L92.8915 138.951
L94.1414 139.891
L94.4093 140.168
L95.3021 140.891
L95.6592 141.191
L98.6054 143.198
L98.9626 143.49
L99.3197 143.775
L100.927 144.793
L101.73 145.405
L102.355 145.813
L102.802 146.147
L104.498 147.123
L105.837 147.726
L106.284 148.059
L107.176 148.554
L111.551 151.177
L112.355 151.624
L116.104 153.814
L117.89 154.754
L118.693 155.18
L119.676 155.603
L120.39 155.961
L127.621 159.352
L128.246 159.621
L129.139 160.141
L130.836 160.86
L131.371 161.099
L131.907 161.291
L132.353 161.503
L134.496 162.554
L134.764 162.705
L136.103 163.251
L137.532 163.918
L138.96 164.656
L146.46 167.583
L147.174 167.846
L148.067 168.184
L150.656 169.152
L151.281 169.408
L152.263 169.823
L152.62 170.009
L154.138 170.527
L155.209 170.902
L156.102 171.217
L157.53 171.644
L158.155 171.859
L159.762 172.447
L160.476 172.748
L161.548 173.159
L162.351 173.486
L165.03 174.389
L165.387 174.547
L166.101 174.782
L166.726 175.002
L171.012 176.458
L171.547 176.629
L172.351 176.9
L173.065 177.116
L174.493 177.52
L189.76 182.192
L190.207 182.391
L191.457 182.806
L193.778 183.595
L195.028 183.916
L195.742 184.139
L197.438 184.613
L198.42 184.914
L211.812 188.741
L212.705 189.03
L213.955 189.35
L214.491 189.543
L215.384 189.8
L216.455 190.099
L217.526 190.392
L225.472 192.626
L227.526 193.273
L238.775 196.078
L239.757 196.358
L285.558 206.864
L286.451 207.039
L288.147 207.433
L288.683 207.544
L290.111 207.835
L290.647 207.935
L292.164 208.222
L301.717 210.289
L302.432 210.477
L305.199 211.139
L306.36 211.368
L307.61 211.61
L308.324 211.779
L310.02 212.071
L310.735 212.212
L311.27 212.334
L319.306 213.956
L320.466 214.182
L327.519 215.545
L328.144 215.689
L330.108 216.087
L330.555 216.181
L332.965 216.716
L333.501 216.833
L342.965 218.675
L344.036 218.884
L345.465 219.149
L352.964 220.571
L392.783 227.58
L394.212 227.85
L396.711 228.287
L401.532 229.147
L402.068 229.246
L405.193 229.722
L427.959 233.387
L434.655 234.405
L494.919 243.658
L495.634 243.768
L518.311 246.825
L518.311 246.825" style="fill:none;stroke:#ff0000;stroke-dasharray:3.000000,6.000000;stroke-dashoffset:0.0;"/>
   </g>
   <g id="line2d_4">
    <path clip-path="url(#p7ff5b81e1d)" d="
M72 84.7544
L72.0893 94.105
L72.2678 101.246
L72.625 107.811
L72.9821 111.233
L73.8749 114.88
L74.232 115.081
L74.6784 115.308
L75.4819 115.824
L76.3747 119.23
L77.4461 121.925
L78.8746 122.778
L79.0531 122.838
L79.9459 124.577
L80.7494 125.767
L81.1066 126.022
L81.6422 126.309
L82.8029 127.224
L83.0707 127.64
L84.8563 129.359
L86.2848 130.297
L86.8205 130.819
L87.0883 131.113
L87.7133 131.693
L88.0704 131.901
L89.3203 132.725
L89.7667 132.943
L90.3024 133.451
L93.4272 135.518
L93.8736 135.708
L96.0163 136.98
L96.6413 137.379
L98.3376 137.985
L99.0518 138.345
L101.284 139.529
L102.087 139.71
L102.534 139.967
L103.427 140.514
L104.944 141.133
L106.016 141.479
L106.641 141.884
L107.087 142.18
L107.98 142.557
L108.873 142.691
L109.23 142.782
L109.587 142.898
L111.64 143.984
L113.247 144.499
L113.962 144.923
L114.854 145.431
L116.729 145.958
L117.354 146.454
L118.693 147.113
L119.765 147.29
L120.479 147.541
L121.55 148.26
L123.515 148.666
L123.872 148.759
L126.193 149.737
L127.443 150.047
L128.425 150.549
L128.871 150.797
L129.496 150.93
L130.746 151.09
L131.371 151.392
L132.175 151.904
L135.032 152.52
L136.192 153.161
L138.156 153.36
L138.96 153.708
L140.21 154.046
L141.549 154.185
L142.174 154.596
L142.799 154.852
L143.603 155.081
L145.12 155.195
L147.174 155.92
L148.692 155.988
L149.316 156.367
L150.834 156.87
L152.441 157.036
L154.048 157.812
L155.923 157.964
L157.53 158.849
L157.887 158.911
L159.405 158.984
L161.101 159.871
L161.637 159.93
L163.155 160.105
L165.208 160.81
L166.726 160.906
L167.262 161.18
L167.976 161.495
L168.78 161.641
L170.387 161.815
L170.833 161.993
L171.994 162.461
L173.868 162.573
L175.743 163.276
L177.529 163.421
L179.225 164.009
L180.922 164.102
L181.457 164.363
L182.618 164.856
L184.493 164.97
L184.85 165.135
L185.832 165.516
L186.368 165.679
L188.51 165.975
L189.76 166.482
L191.814 166.635
L193.421 167.284
L195.296 167.404
L197.081 168.023
L198.778 168.132
L201.01 168.853
L202.527 168.998
L203.331 169.292
L204.402 169.543
L205.92 169.618
L207.616 170.221
L209.58 170.302
L210.473 170.645
L211.009 170.844
L211.366 170.908
L213.152 171.026
L214.58 171.499
L215.205 171.556
L216.723 171.671
L218.33 172.278
L220.473 172.438
L221.098 172.671
L222.972 172.908
L223.865 172.979
L224.401 173.138
L225.383 173.401
L225.829 173.46
L227.794 173.737
L228.865 174.126
L229.311 174.187
L231.008 174.27
L232.704 174.819
L235.204 175.106
L236.186 175.46
L238.15 175.55
L239.846 176.045
L240.739 176.081
L241.811 176.176
L243.328 176.71
L245.56 176.876
L246.9 177.349
L249.221 177.538
L250.292 177.898
L250.649 177.959
L252.613 178.065
L253.06 178.207
L254.131 178.454
L256.095 178.59
L258.238 179.046
L259.845 179.178
L261.363 179.507
L263.506 179.726
L265.113 180.103
L267.434 180.368
L267.88 180.475
L269.666 180.598
L270.38 180.69
L271.005 180.872
L273.594 181.126
L273.951 181.233
L274.576 181.404
L276.987 181.649
L277.79 181.784
L279.665 182.137
L281.272 182.248
L282.433 182.529
L282.969 182.571
L284.933 182.709
L286.004 183.004
L287.433 183.044
L288.236 183.171
L290.647 183.585
L291.807 183.69
L293.325 184.122
L295.468 184.27
L297.7 184.614
L298.95 184.712
L301.092 185.105
L302.521 185.199
L304.217 185.498
L306.092 185.605
L308.413 186.038
L309.842 186.148
L311.003 186.362
L311.36 186.447
L313.413 186.547
L315.645 186.866
L316.895 186.966
L319.841 187.25
L320.823 187.424
L321.627 187.588
L321.984 187.66
L324.305 187.803
L325.912 188.054
L327.519 188.161
L329.394 188.449
L331.269 188.549
L332.073 188.745
L333.233 188.886
L335.287 189.089
L337.34 189.298
L338.412 189.41
L339.572 189.644
L340.108 189.671
L341.893 189.758
L342.965 189.94
L344.215 190.014
L345.375 190.098
L346.268 190.295
L347.429 190.445
L348.947 190.539
L350.196 190.831
L351.179 190.883
L352.696 190.968
L353.321 191.133
L355.018 191.286
L356.089 191.384
L356.714 191.53
L358.232 191.691
L359.928 191.797
L361.356 192.056
L363.321 192.167
L364.035 192.317
L371.624 193.154
L372.159 193.228
L374.124 193.336
L376.088 193.658
L377.784 193.762
L380.016 194.004
L381.444 194.111
L384.301 194.34
L384.837 194.441
L387.158 194.697
L388.855 194.846
L389.837 194.982
L391.89 195.073
L393.676 195.406
L395.551 195.509
L397.515 195.74
L399.836 195.942
L400.461 196.026
L402.693 196.112
L403.497 196.274
L405.729 196.413
L406.443 196.516
L408.228 196.754
L409.836 196.857
L411.175 197.084
L413.407 197.173
L414.924 197.461
L417.067 197.567
L419.031 197.786
L420.906 197.895
L422.156 198.04
L424.567 198.176
L425.46 198.316
L427.87 198.425
L429.12 198.627
L431.263 198.728
L432.245 198.908
L433.048 198.976
L434.745 199.082
L437.512 199.346
L438.494 199.462
L439.923 199.666
L442.066 199.766
L444.387 199.953
L445.815 200.079
L446.44 200.162
L453.761 200.736
L454.208 200.786
L456.172 200.864
L456.708 200.992
L457.957 201.139
L459.922 201.239
L460.993 201.434
L462.243 201.471
L463.761 201.596
L466.082 201.778
L467.153 201.869
L467.868 202.051
L469.475 202.135
L470.635 202.244
L471.617 202.41
L472.599 202.465
L475.278 202.684
L475.903 202.705
L477.778 202.833
L479.295 202.99
L481.974 203.168
L482.867 203.279
L485.099 203.363
L485.813 203.488
L489.384 203.738
L490.366 203.796
L492.062 203.902
L494.741 204.081
L495.991 204.247
L497.687 204.359
L499.651 204.459
L500.276 204.552
L501.437 204.59
L502.687 204.692
L504.651 204.834
L506.436 204.945
L507.686 205.09
L510.097 205.198
L518.311 205.853
L518.311 205.853" style="fill:none;stroke:#00bfbf;stroke-dasharray:5.000000,1.000000,2.000000,1.000000,5.000000,1.000000;stroke-dashoffset:0.0;"/>
   </g>
   <g id="line2d_5">
    <path clip-path="url(#p7ff5b81e1d)" d="
M72 83.7284
L72.0893 93.2121
L72.2678 101.294
L72.625 108.196
L73.0714 112.175
L73.4285 114.25
L73.7856 115.458
L75.5712 116.447
L77.3568 119.467
L79.1424 120.199
L80.6602 122.766
L81.1066 123.113
L82.7136 123.881
L83.6957 125.469
L84.6778 126.673
L86.1955 127.249
L87.8026 129.65
L88.0704 129.928
L89.231 130.351
L89.856 130.656
L91.0166 132.265
L91.6416 133.001
L93.5165 133.93
L95.3021 136.211
L96.9984 136.884
L98.159 138.42
L98.8733 139.115
L100.302 139.623
L100.57 139.776
L101.284 140.658
L102.177 141.729
L102.355 141.862
L103.516 142.228
L104.141 142.498
L104.766 143.279
L106.105 144.62
L107.801 145.35
L109.765 147.235
L110.748 147.558
L111.283 147.807
L113.158 149.627
L114.854 150.21
L116.015 151.385
L117.086 152.022
L118.604 152.677
L120.39 154.3
L122.265 155.099
L123.157 155.921
L123.961 156.488
L125.568 157.022
L127.443 158.651
L129.139 159.221
L131.282 160.935
L132.175 161.201
L132.71 161.417
L134.675 162.934
L135.3 163.126
L136.282 163.464
L136.728 163.858
L137.71 164.741
L138.156 164.967
L139.406 165.31
L140.031 165.626
L141.906 166.929
L143.513 167.429
L145.299 168.702
L147.352 169.471
L149.227 170.58
L150.299 170.955
L150.834 171.276
L151.995 172.11
L152.709 172.429
L154.673 173.264
L155.655 173.955
L156.191 174.174
L157.62 174.588
L159.137 175.526
L159.494 175.695
L161.101 176.132
L161.369 176.237
L161.726 176.501
L162.53 177.067
L163.78 177.534
L165.565 178.284
L166.726 178.942
L168.333 179.37
L170.297 180.512
L172.351 181.115
L174.493 182.117
L176.19 182.779
L176.815 183.143
L178.065 183.627
L179.404 184.045
L180.207 184.472
L181.1 184.917
L183.154 185.588
L185.296 186.525
L186.457 186.834
L187.796 187.58
L188.153 187.745
L189.85 188.166
L191.992 189.202
L193.599 189.586
L194.135 189.847
L195.653 190.477
L196.992 190.809
L199.224 191.769
L200.652 192.152
L201.188 192.414
L201.724 192.664
L202.795 193.07
L204.224 193.462
L206.366 194.375
L207.973 194.819
L209.58 195.487
L211.455 195.97
L212.17 196.279
L212.616 196.498
L213.687 196.754
L215.116 197.132
L216.723 197.824
L219.223 198.631
L220.116 199.053
L221.633 199.374
L222.437 199.655
L223.597 200.223
L224.847 200.489
L225.829 200.751
L227.883 201.506
L229.49 201.871
L230.293 202.244
L231.365 202.51
L232.793 202.79
L233.775 203.184
L234.49 203.474
L236.632 204.048
L238.329 204.628
L239.221 204.835
L240.471 205.214
L241.543 205.663
L243.596 206.088
L246.542 206.899
L247.257 207.1
L249.489 207.851
L250.828 208.192
L251.899 208.586
L254.756 209.34
L255.47 209.651
L257.256 210.053
L257.97 210.244
L259.756 210.848
L261.184 211.138
L262.791 211.7
L263.684 211.91
L265.113 212.239
L266.452 212.735
L267.791 213.002
L268.773 213.229
L270.648 213.811
L273.148 214.492
L273.951 214.727
L277.165 215.532
L277.88 215.67
L279.665 216.079
L281.719 216.64
L283.594 217.117
L284.397 217.399
L285.379 217.573
L286.897 217.973
L288.147 218.346
L289.308 218.544
L290.111 218.7
L290.736 218.961
L292.075 219.283
L293.861 219.659
L295.289 220.087
L297.164 220.449
L300.2 221.165
L301.36 221.445
L302.253 221.717
L303.86 221.998
L304.842 222.357
L306.003 222.682
L307.967 223.023
L309.128 223.387
L310.11 223.579
L317.788 225.205
L318.77 225.437
L320.02 225.811
L320.645 225.91
L322.341 226.24
L323.323 226.536
L325.02 226.856
L326.627 227.273
L327.876 227.527
L329.662 227.86
L331.448 228.308
L333.948 228.786
L335.644 229.096
L336.715 229.305
L338.679 229.751
L340.286 230.059
L342.251 230.493
L343.59 230.711
L348.322 231.696
L349.839 231.958
L351.536 232.316
L352.339 232.503
L354.303 232.79
L356.178 233.228
L357.875 233.469
L360.821 234.073
L361.892 234.291
L362.964 234.572
L365.196 234.951
L365.999 235.18
L370.017 235.917
L370.642 236.011
L380.373 237.888
L382.337 238.192
L383.409 238.398
L384.391 238.643
L389.926 239.553
L391.801 239.985
L393.319 240.21
L394.301 240.485
L396.086 240.801
L397.336 240.991
L397.872 241.154
L399.033 241.362
L400.55 241.55
L407.693 242.754
L416.442 244.253
L417.067 244.34
L419.21 244.745
L420.46 244.975
L422.692 245.372
L423.674 245.59
L426.531 246.024
L427.602 246.179
L429.924 246.551
L430.638 246.704
L432.959 247.036
L434.388 247.353
L436.441 247.611
L460.993 251.404
L462.154 251.632
L463.939 251.879
L488.402 255.703
L490.009 255.887
L494.384 256.532
L495.723 256.715
L497.866 257.038
L503.312 257.835
L505.187 258.095
L506.258 258.223
L507.419 258.334
L508.579 258.536
L509.472 258.7
L511.347 258.901
L518.311 259.854
L518.311 259.854" style="fill:none;stroke:#bf00bf;stroke-linecap:square;"/>
   </g>
   <g id="matplotlib.axis_1">
    <g id="xtick_1">
     <g id="line2d_6">
      <defs>
       <path d="
M0 0
L0 -4" id="mc7db9fdffb" style="stroke:#000000;stroke-width:0.5;"/>
      </defs>
      <g>
       <use style="stroke:#000000;stroke-width:0.5;" x="72.0" xlink:href="#mc7db9fdffb" y="388.8"/>
      </g>
     </g>
     <g id="line2d_7">
      <defs>
       <path d="
M0 0
L0 4" id="m5a7d422ac3" style="stroke:#000000;stroke-width:0.5;"/>
      </defs>
      <g>
       <use style="stroke:#000000;stroke-width:0.5;" x="72.0" xlink:href="#m5a7d422ac3" y="43.2"/>
      </g>
     </g>
     <g id="text_1">
      <!-- 0 -->
      <defs>
       <path d="
M56.9844 36.375
Q56.9844 16.7969 50.8594 7.64062
Q44.7344 -1.51562 31.8438 -1.51562
Q18.75 -1.51562 12.7188 7.76562
Q6.6875 17.0469 6.6875 36.2812
Q6.6875 55.6719 12.7812 64.9219
Q18.8906 74.1719 31.8438 74.1719
Q44.9219 74.1719 50.9531 64.7656
Q56.9844 55.375 56.9844 36.375
M44.1406 14.2031
Q45.8438 18.1719 46.4531 23.5156
Q47.0781 28.8594 47.0781 36.375
Q47.0781 43.7969 46.4531 49.2656
Q45.8438 54.7344 44.0938 58.5469
Q42.3906 62.3125 39.4219 64.2031
Q36.4688 66.1094 31.8438 66.1094
Q27.25 66.1094 24.2344 64.2031
Q21.2344 62.3125 19.4844 58.4531
Q17.8281 54.8281 17.2188 49.0156
Q16.6094 43.2188 16.6094 36.2812
Q16.6094 28.6562 17.1406 23.5312
Q17.6719 18.4062 19.4375 14.3594
Q21.0469 10.5469 24 8.54688
Q26.9531 6.54688 31.8438 6.54688
Q36.4219 6.54688 39.4531 8.45312
Q42.4844 10.3594 44.1406 14.2031" id="Verdana-30"/>
      </defs>
      <g transform="translate(68.9821875 401.918125)scale(0.12 -0.12)">
       <use xlink:href="#Verdana-30"/>
      </g>
     </g>
    </g>
    <g id="xtick_2">
     <g id="line2d_8">
      <g>
       <use style="stroke:#000000;stroke-width:0.5;" x="161.28" xlink:href="#mc7db9fdffb" y="388.8"/>
      </g>
     </g>
     <g id="line2d_9">
      <g>
       <use style="stroke:#000000;stroke-width:0.5;" x="161.28" xlink:href="#m5a7d422ac3" y="43.2"/>
      </g>
     </g>
     <g id="text_2">
      <!-- 1000 -->
      <defs>
       <path d="
M52.9375 0
L13.5781 0
L13.5781 7.42188
L28.7188 7.42188
L28.7188 56.1562
L13.5781 56.1562
L13.5781 62.7969
Q16.6562 62.7969 20.1719 63.2969
Q23.6875 63.8125 25.4844 64.7969
Q27.7344 66.0156 29.0312 67.8906
Q30.3281 69.7812 30.5156 72.9531
L38.0938 72.9531
L38.0938 7.42188
L52.9375 7.42188
z
" id="Verdana-31"/>
      </defs>
      <g transform="translate(147.2315625 401.918125)scale(0.12 -0.12)">
       <use xlink:href="#Verdana-31"/>
       <use x="63.57421875" xlink:href="#Verdana-30"/>
       <use x="127.1484375" xlink:href="#Verdana-30"/>
       <use x="190.72265625" xlink:href="#Verdana-30"/>
      </g>
     </g>
    </g>
    <g id="xtick_3">
     <g id="line2d_10">
      <g>
       <use style="stroke:#000000;stroke-width:0.5;" x="250.56" xlink:href="#mc7db9fdffb" y="388.8"/>
      </g>
     </g>
     <g id="line2d_11">
      <g>
       <use style="stroke:#000000;stroke-width:0.5;" x="250.56" xlink:href="#m5a7d422ac3" y="43.2"/>
      </g>
     </g>
     <g id="text_3">
      <!-- 2000 -->
      <defs>
       <path d="
M57.0781 0
L7.85938 0
L7.85938 10.2031
Q12.9844 14.5938 18.1406 18.9844
Q23.2969 23.3906 27.7344 27.7344
Q37.1094 36.8125 40.5781 42.1562
Q44.0469 47.5156 44.0469 53.7188
Q44.0469 59.375 40.3125 62.5625
Q36.5781 65.7656 29.8906 65.7656
Q25.4375 65.7656 20.2656 64.2031
Q15.0938 62.6406 10.1562 59.4219
L9.67188 59.4219
L9.67188 69.6719
Q13.1406 71.3906 18.9219 72.7969
Q24.7031 74.2188 30.125 74.2188
Q41.3125 74.2188 47.6562 68.8125
Q54 63.4219 54 54.2031
Q54 50.0469 52.9531 46.4531
Q51.9062 42.875 49.8594 39.6562
Q47.9531 36.625 45.3906 33.6875
Q42.8281 30.7656 39.1562 27.2031
Q33.9375 22.0781 28.3594 17.2656
Q22.7969 12.4531 17.9688 8.34375
L57.0781 8.34375
z
" id="Verdana-32"/>
      </defs>
      <g transform="translate(236.1684375 401.918125)scale(0.12 -0.12)">
       <use xlink:href="#Verdana-32"/>
       <use x="63.57421875" xlink:href="#Verdana-30"/>
       <use x="127.1484375" xlink:href="#Verdana-30"/>
       <use x="190.72265625" xlink:href="#Verdana-30"/>
      </g>
     </g>
    </g>
    <g id="xtick_4">
     <g id="line2d_12">
      <g>
       <use style="stroke:#000000;stroke-width:0.5;" x="339.84" xlink:href="#mc7db9fdffb" y="388.8"/>
      </g>
     </g>
     <g id="line2d_13">
      <g>
       <use style="stroke:#000000;stroke-width:0.5;" x="339.84" xlink:href="#m5a7d422ac3" y="43.2"/>
      </g>
     </g>
     <g id="text_4">
      <!-- 3000 -->
      <defs>
       <path d="
M50.6875 35.0156
Q53.0312 32.9062 54.5469 29.7344
Q56.0625 26.5625 56.0625 21.5312
Q56.0625 16.5469 54.25 12.3906
Q52.4375 8.25 49.1719 5.17188
Q45.5156 1.76562 40.5469 0.125
Q35.5938 -1.51562 29.6875 -1.51562
Q23.6406 -1.51562 17.7812 -0.0625
Q11.9219 1.375 8.15625 3.07812
L8.15625 13.2812
L8.89062 13.2812
Q13.0312 10.5469 18.6406 8.73438
Q24.2656 6.9375 29.5 6.9375
Q32.5625 6.9375 36.0312 7.95312
Q39.5 8.98438 41.6562 10.9844
Q43.8906 13.1406 44.9844 15.7188
Q46.0938 18.3125 46.0938 22.2656
Q46.0938 26.1719 44.8438 28.7344
Q43.6094 31.2969 41.4062 32.7656
Q39.2031 34.2812 36.0781 34.8438
Q32.9531 35.4062 29.3438 35.4062
L24.9531 35.4062
L24.9531 43.5
L28.375 43.5
Q35.7969 43.5 40.2031 46.5938
Q44.625 49.7031 44.625 55.6719
Q44.625 58.2969 43.5 60.2656
Q42.3906 62.25 40.375 63.5312
Q38.2812 64.7969 35.8906 65.2812
Q33.5 65.7656 30.4688 65.7656
Q25.8281 65.7656 20.5938 64.1094
Q15.375 62.4531 10.75 59.4219
L10.25 59.4219
L10.25 69.625
Q13.7188 71.3438 19.5 72.7812
Q25.2969 74.2188 30.7188 74.2188
Q36.0312 74.2188 40.0781 73.2344
Q44.1406 72.2656 47.4062 70.125
Q50.9219 67.7812 52.7344 64.4531
Q54.5469 61.1406 54.5469 56.6875
Q54.5469 50.6406 50.2656 46.125
Q46 41.6094 40.1875 40.4375
L40.1875 39.75
Q42.5312 39.3594 45.5469 38.1094
Q48.5781 36.8594 50.6875 35.0156" id="Verdana-33"/>
      </defs>
      <g transform="translate(325.46625 401.918125)scale(0.12 -0.12)">
       <use xlink:href="#Verdana-33"/>
       <use x="63.57421875" xlink:href="#Verdana-30"/>
       <use x="127.1484375" xlink:href="#Verdana-30"/>
       <use x="190.72265625" xlink:href="#Verdana-30"/>
      </g>
     </g>
    </g>
    <g id="xtick_5">
     <g id="line2d_14">
      <g>
       <use style="stroke:#000000;stroke-width:0.5;" x="429.12" xlink:href="#mc7db9fdffb" y="388.8"/>
      </g>
     </g>
     <g id="line2d_15">
      <g>
       <use style="stroke:#000000;stroke-width:0.5;" x="429.12" xlink:href="#m5a7d422ac3" y="43.2"/>
      </g>
     </g>
     <g id="text_5">
      <!-- 4000 -->
      <defs>
       <path d="
M58.7344 20.4531
L47.9531 20.4531
L47.9531 0
L38.5781 0
L38.5781 20.4531
L3.76562 20.4531
L3.76562 31.6875
L38.9688 72.7031
L47.9531 72.7031
L47.9531 28.2656
L58.7344 28.2656
z

M38.5781 28.2656
L38.5781 61.0781
L10.4062 28.2656
z
" id="Verdana-34"/>
      </defs>
      <g transform="translate(414.4828125 401.918125)scale(0.12 -0.12)">
       <use xlink:href="#Verdana-34"/>
       <use x="63.57421875" xlink:href="#Verdana-30"/>
       <use x="127.1484375" xlink:href="#Verdana-30"/>
       <use x="190.72265625" xlink:href="#Verdana-30"/>
      </g>
     </g>
    </g>
    <g id="xtick_6">
     <g id="line2d_16">
      <g>
       <use style="stroke:#000000;stroke-width:0.5;" x="518.4" xlink:href="#mc7db9fdffb" y="388.8"/>
      </g>
     </g>
     <g id="line2d_17">
      <g>
       <use style="stroke:#000000;stroke-width:0.5;" x="518.4" xlink:href="#m5a7d422ac3" y="43.2"/>
      </g>
     </g>
     <g id="text_6">
      <!-- 5000 -->
      <defs>
       <path d="
M56.5 23.0938
Q56.5 18.0156 54.6406 13.375
Q52.7812 8.73438 49.5625 5.5625
Q46.0469 2.15625 41.1875 0.3125
Q36.3281 -1.51562 29.9375 -1.51562
Q23.9688 -1.51562 18.4531 -0.265625
Q12.9375 0.984375 9.125 2.73438
L9.125 13.0312
L9.8125 13.0312
Q13.8125 10.5 19.1875 8.71875
Q24.5625 6.9375 29.7344 6.9375
Q33.2031 6.9375 36.4531 7.90625
Q39.7031 8.89062 42.2344 11.3281
Q44.3906 13.4219 45.4844 16.3438
Q46.5781 19.2812 46.5781 23.1406
Q46.5781 26.9062 45.2812 29.4844
Q44 32.0781 41.7031 33.6406
Q39.1562 35.5 35.5156 36.25
Q31.8906 37.0156 27.3906 37.0156
Q23.0938 37.0156 19.1094 36.4219
Q15.1406 35.8438 12.25 35.25
L12.25 72.7031
L56 72.7031
L56 64.1562
L21.6875 64.1562
L21.6875 44.8281
Q23.7812 45.0156 25.9688 45.1094
Q28.1719 45.2188 29.7812 45.2188
Q35.6875 45.2188 40.125 44.2188
Q44.5781 43.2188 48.2969 40.6719
Q52.2031 37.9844 54.3438 33.7344
Q56.5 29.5 56.5 23.0938" id="Verdana-35"/>
      </defs>
      <g transform="translate(504.084375 401.918125)scale(0.12 -0.12)">
       <use xlink:href="#Verdana-35"/>
       <use x="63.57421875" xlink:href="#Verdana-30"/>
       <use x="127.1484375" xlink:href="#Verdana-30"/>
       <use x="190.72265625" xlink:href="#Verdana-30"/>
      </g>
     </g>
    </g>
    <g id="text_7">
     <!-- Objective function exectuions -->
     <defs>
      <path d="
M57.0312 27.6875
Q57.0312 20.8438 55.0938 15.375
Q53.1719 9.90625 49.9062 6.20312
Q46.4375 2.34375 42.2812 0.40625
Q38.1406 -1.51562 33.1562 -1.51562
Q28.5156 -1.51562 25.0469 -0.40625
Q21.5781 0.6875 18.2188 2.54688
L17.625 0
L9.03125 0
L9.03125 75.9844
L18.2188 75.9844
L18.2188 48.8281
Q22.0781 52 26.4219 54.0312
Q30.7656 56.0625 36.1875 56.0625
Q45.8438 56.0625 51.4375 48.6406
Q57.0312 41.2188 57.0312 27.6875
M47.5625 27.4375
Q47.5625 37.2031 44.3281 42.25
Q41.1094 47.3125 33.9375 47.3125
Q29.9375 47.3125 25.8281 45.5781
Q21.7344 43.8438 18.2188 41.1094
L18.2188 9.85938
Q22.125 8.10938 24.9219 7.42188
Q27.7344 6.73438 31.2969 6.73438
Q38.9219 6.73438 43.2344 11.7344
Q47.5625 16.75 47.5625 27.4375" id="Verdana-62"/>
      <path d="
M56.2031 54.5469
L34.125 0
L24.9062 0
L2.98438 54.5469
L12.9375 54.5469
L29.8281 11.1406
L46.5781 54.5469
z
" id="Verdana-76"/>
      <path d="
M56.25 0
L44.6719 0
L29.2031 20.9531
L13.625 0
L2.9375 0
L24.2188 27.2031
L3.125 54.5469
L14.7031 54.5469
L30.0781 33.9375
L45.5156 54.5469
L56.25 54.5469
L34.8125 27.6875
z
" id="Verdana-78"/>
      <path d="
M54.6875 26.3125
L14.5 26.3125
Q14.5 21.2969 16.0156 17.5469
Q17.5312 13.8125 20.1719 11.4219
Q22.7031 9.07812 26.1875 7.90625
Q29.6875 6.73438 33.8906 6.73438
Q39.4531 6.73438 45.0938 8.95312
Q50.7344 11.1875 53.125 13.3281
L53.6094 13.3281
L53.6094 3.32812
Q48.9688 1.375 44.1406 0.046875
Q39.3125 -1.26562 33.9844 -1.26562
Q20.4062 -1.26562 12.7812 6.07812
Q5.17188 13.4219 5.17188 26.9531
Q5.17188 40.3281 12.4688 48.1875
Q19.7812 56.0625 31.6875 56.0625
Q42.7188 56.0625 48.7031 49.6094
Q54.6875 43.1719 54.6875 31.2969
z

M45.75 33.3438
Q45.7031 40.5781 42.1094 44.5312
Q38.5312 48.4844 31.2031 48.4844
Q23.8281 48.4844 19.4531 44.1406
Q15.0938 39.7969 14.5 33.3438
z
" id="Verdana-65"/>
      <path d="
M49.3594 3.42188
Q44.7812 1.21875 40.6562 0
Q36.5312 -1.21875 31.8906 -1.21875
Q25.9844 -1.21875 21.0469 0.515625
Q16.1094 2.25 12.5938 5.76562
Q9.03125 9.28125 7.07812 14.6406
Q5.125 20.0156 5.125 27.2031
Q5.125 40.5781 12.4688 48.1875
Q19.8281 55.8125 31.8906 55.8125
Q36.5781 55.8125 41.0938 54.4844
Q45.6094 53.1719 49.3594 51.2656
L49.3594 41.0625
L48.875 41.0625
Q44.6719 44.3438 40.2031 46.0938
Q35.75 47.8594 31.5 47.8594
Q23.6875 47.8594 19.1719 42.6094
Q14.6562 37.3594 14.6562 27.2031
Q14.6562 17.3281 19.0625 12.0312
Q23.4844 6.73438 31.5 6.73438
Q34.2812 6.73438 37.1562 7.46875
Q40.0469 8.20312 42.3281 9.375
Q44.3438 10.4062 46.0938 11.5469
Q47.8594 12.7031 48.875 13.5312
L49.3594 13.5312
z
" id="Verdana-63"/>
      <path d="
M26.0312 63.6719
L15.6719 63.6719
L15.6719 73.1875
L26.0312 73.1875
z

M25.4375 -1.3125
Q25.4375 -10.8906 20.5469 -15.7656
Q15.6719 -20.6562 7.46875 -20.6562
Q5.51562 -20.6562 2.3125 -20.2656
Q-0.875 -19.875 -3.03125 -19.2812
L-3.03125 -10.5469
L-2.54688 -10.5469
Q-1.17188 -11.0781 1.14062 -11.7656
Q3.46875 -12.4531 5.67188 -12.4531
Q9.1875 -12.4531 11.3281 -11.4688
Q13.4844 -10.5 14.5469 -8.54688
Q15.625 -6.59375 15.9375 -3.82812
Q16.2656 -1.07812 16.2656 2.875
L16.2656 46.8281
L4.89062 46.8281
L4.89062 54.5469
L25.4375 54.5469
z
" id="Verdana-6a"/>
      <path d="
M18.8906 63.6719
L8.54688 63.6719
L8.54688 73.1875
L18.8906 73.1875
z

M18.3125 0
L9.125 0
L9.125 54.5469
L18.3125 54.5469
z
" id="Verdana-69"/>
      <path d="
M54.6406 0
L45.4531 0
L45.4531 31.0625
Q45.4531 34.8125 45.0156 38.1094
Q44.5781 41.4062 43.4062 43.2656
Q42.1875 45.3125 39.8906 46.3125
Q37.5938 47.3125 33.9375 47.3125
Q30.1719 47.3125 26.0625 45.4531
Q21.9688 43.6094 18.2188 40.7188
L18.2188 0
L9.03125 0
L9.03125 54.5469
L18.2188 54.5469
L18.2188 48.4844
Q22.5156 52.0469 27.0938 54.0469
Q31.6875 56.0625 36.5312 56.0625
Q45.3594 56.0625 50 50.7344
Q54.6406 45.4062 54.6406 35.4062
z
" id="Verdana-6e"/>
      <path d="
M48 15.7188
Q48 8.25 41.8125 3.46875
Q35.6406 -1.3125 24.9531 -1.3125
Q18.8906 -1.3125 13.8438 0.125
Q8.79688 1.5625 5.375 3.26562
L5.375 13.5781
L5.85938 13.5781
Q10.2031 10.2969 15.5156 8.375
Q20.8438 6.45312 25.7344 6.45312
Q31.7812 6.45312 35.2031 8.40625
Q38.625 10.3594 38.625 14.5469
Q38.625 17.7812 36.7656 19.4375
Q34.9062 21.0938 29.6406 22.2656
Q27.6875 22.7031 24.5312 23.2812
Q21.3906 23.875 18.7969 24.5625
Q11.625 26.4688 8.60938 30.1562
Q5.60938 33.8438 5.60938 39.2031
Q5.60938 42.5781 7 45.5469
Q8.40625 48.5312 11.2344 50.875
Q13.9688 53.1719 18.1875 54.5156
Q22.4062 55.8594 27.6406 55.8594
Q32.5156 55.8594 37.5156 54.6562
Q42.5312 53.4688 45.8438 51.7656
L45.8438 41.9375
L45.3594 41.9375
Q41.8438 44.5312 36.8125 46.3125
Q31.7812 48.0938 26.9531 48.0938
Q21.9219 48.0938 18.4531 46.1562
Q14.9844 44.2344 14.9844 40.4375
Q14.9844 37.0625 17.0938 35.3594
Q19.1406 33.6406 23.7344 32.5625
Q26.2656 31.9844 29.4062 31.3906
Q32.5625 30.8125 34.6719 30.3281
Q41.0625 28.8594 44.5312 25.2969
Q48 21.6875 48 15.7188" id="Verdana-73"/>
      <path d="
M38.375 67.0938
L37.8906 67.0938
Q36.375 67.5312 33.9375 67.9844
Q31.5 68.4531 29.6406 68.4531
Q23.7344 68.4531 21.0625 65.8438
Q18.4062 63.2344 18.4062 56.3906
L18.4062 54.5469
L34.9688 54.5469
L34.9688 46.8281
L18.7031 46.8281
L18.7031 0
L9.51562 0
L9.51562 46.8281
L3.32812 46.8281
L3.32812 54.5469
L9.51562 54.5469
L9.51562 56.3438
Q9.51562 66.0625 14.3438 71.2656
Q19.1875 76.4688 28.3281 76.4688
Q31.3906 76.4688 33.8594 76.1719
Q36.3281 75.875 38.375 75.4844
z
" id="Verdana-66"/>
      <path id="Verdana-20"/>
      <path d="
M63.9688 64.3594
Q68.4062 59.4688 70.7656 52.3906
Q73.1406 45.3125 73.1406 36.3281
Q73.1406 27.3438 70.7188 20.2344
Q68.3125 13.1406 63.9688 8.40625
Q59.4688 3.46875 53.3438 0.96875
Q47.2188 -1.51562 39.3594 -1.51562
Q31.6875 -1.51562 25.4062 1.01562
Q19.1406 3.5625 14.75 8.40625
Q10.3594 13.2344 7.98438 20.2656
Q5.60938 27.2969 5.60938 36.3281
Q5.60938 45.2188 7.95312 52.2656
Q10.2969 59.3281 14.7969 64.3594
Q19.0938 69.1406 25.4688 71.6719
Q31.8438 74.2188 39.3594 74.2188
Q47.1719 74.2188 53.3906 71.6562
Q59.625 69.0938 63.9688 64.3594
M63.0938 36.3281
Q63.0938 50.4844 56.7344 58.1719
Q50.3906 65.875 39.4062 65.875
Q28.3281 65.875 22 58.1719
Q15.6719 50.4844 15.6719 36.3281
Q15.6719 22.0156 22.1094 14.4219
Q28.5625 6.84375 39.4062 6.84375
Q50.25 6.84375 56.6719 14.4219
Q63.0938 22.0156 63.0938 36.3281" id="Verdana-4f"/>
      <path d="
M55.5156 27.25
Q55.5156 13.9219 48.6719 6.20312
Q41.8438 -1.51562 30.375 -1.51562
Q18.7969 -1.51562 11.9844 6.20312
Q5.17188 13.9219 5.17188 27.25
Q5.17188 40.5781 11.9844 48.3125
Q18.7969 56.0625 30.375 56.0625
Q41.8438 56.0625 48.6719 48.3125
Q55.5156 40.5781 55.5156 27.25
M46.0469 27.25
Q46.0469 37.8438 41.8906 42.9844
Q37.75 48.1406 30.375 48.1406
Q22.9062 48.1406 18.7812 42.9844
Q14.6562 37.8438 14.6562 27.25
Q14.6562 17 18.7969 11.6875
Q22.9531 6.39062 30.375 6.39062
Q37.7031 6.39062 41.875 11.6406
Q46.0469 16.8906 46.0469 27.25" id="Verdana-6f"/>
      <path d="
M37.3594 0.484375
Q34.7656 -0.203125 31.7031 -0.640625
Q28.6562 -1.07812 26.2656 -1.07812
Q17.9219 -1.07812 13.5781 3.40625
Q9.23438 7.90625 9.23438 17.8281
L9.23438 46.8281
L3.03125 46.8281
L3.03125 54.5469
L9.23438 54.5469
L9.23438 70.2188
L18.4062 70.2188
L18.4062 54.5469
L37.3594 54.5469
L37.3594 46.8281
L18.4062 46.8281
L18.4062 21.9688
Q18.4062 17.6719 18.5938 15.25
Q18.7969 12.8438 19.9688 10.75
Q21.0469 8.79688 22.9219 7.89062
Q24.8125 6.98438 28.6562 6.98438
Q30.9062 6.98438 33.3438 7.64062
Q35.7969 8.29688 36.8594 8.73438
L37.3594 8.73438
z
" id="Verdana-74"/>
      <path d="
M54.25 0
L45.0625 0
L45.0625 6.0625
Q40.4375 2.39062 36.1875 0.4375
Q31.9375 -1.51562 26.8125 -1.51562
Q18.2188 -1.51562 13.4219 3.73438
Q8.64062 8.98438 8.64062 19.1406
L8.64062 54.5469
L17.8281 54.5469
L17.8281 23.4844
Q17.8281 19.3438 18.2188 16.375
Q18.6094 13.4219 19.875 11.3281
Q21.1875 9.1875 23.2812 8.20312
Q25.3906 7.23438 29.3906 7.23438
Q32.9531 7.23438 37.1719 9.07812
Q41.4062 10.9375 45.0625 13.8125
L45.0625 54.5469
L54.25 54.5469
z
" id="Verdana-75"/>
     </defs>
     <g transform="translate(206.5078125 418.509375)scale(0.12 -0.12)">
      <use xlink:href="#Verdana-4f"/>
      <use x="78.7109375" xlink:href="#Verdana-62"/>
      <use x="141.015625" xlink:href="#Verdana-6a"/>
      <use x="175.439453125" xlink:href="#Verdana-65"/>
      <use x="235.009765625" xlink:href="#Verdana-63"/>
      <use x="287.109375" xlink:href="#Verdana-74"/>
      <use x="326.513671875" xlink:href="#Verdana-69"/>
      <use x="353.955078125" xlink:href="#Verdana-76"/>
      <use x="412.259765625" xlink:href="#Verdana-65"/>
      <use x="471.830078125" xlink:href="#Verdana-20"/>
      <use x="506.986328125" xlink:href="#Verdana-66"/>
      <use x="542.142578125" xlink:href="#Verdana-75"/>
      <use x="605.423828125" xlink:href="#Verdana-6e"/>
      <use x="668.705078125" xlink:href="#Verdana-63"/>
      <use x="720.8046875" xlink:href="#Verdana-74"/>
      <use x="760.208984375" xlink:href="#Verdana-69"/>
      <use x="787.650390625" xlink:href="#Verdana-6f"/>
      <use x="848.34375" xlink:href="#Verdana-6e"/>
      <use x="911.625" xlink:href="#Verdana-20"/>
      <use x="946.78125" xlink:href="#Verdana-65"/>
      <use x="1006.3515625" xlink:href="#Verdana-78"/>
      <use x="1064.40625" xlink:href="#Verdana-65"/>
      <use x="1123.9765625" xlink:href="#Verdana-63"/>
      <use x="1176.076171875" xlink:href="#Verdana-74"/>
      <use x="1215.48046875" xlink:href="#Verdana-75"/>
      <use x="1278.76171875" xlink:href="#Verdana-69"/>
      <use x="1306.203125" xlink:href="#Verdana-6f"/>
      <use x="1366.896484375" xlink:href="#Verdana-6e"/>
      <use x="1430.177734375" xlink:href="#Verdana-73"/>
     </g>
    </g>
   </g>
   <g id="matplotlib.axis_2">
    <g id="ytick_1">
     <g id="line2d_18">
      <defs>
       <path d="
M0 0
L4 0" id="md7965d1ba0" style="stroke:#000000;stroke-width:0.5;"/>
      </defs>
      <g>
       <use style="stroke:#000000;stroke-width:0.5;" x="72.0" xlink:href="#md7965d1ba0" y="388.8"/>
      </g>
     </g>
     <g id="line2d_19">
      <defs>
       <path d="
M0 0
L-4 0" id="md9a1c1a7cd" style="stroke:#000000;stroke-width:0.5;"/>
      </defs>
      <g>
       <use style="stroke:#000000;stroke-width:0.5;" x="518.4" xlink:href="#md9a1c1a7cd" y="388.8"/>
      </g>
     </g>
     <g id="text_8">
      <!-- 5000 -->
      <g transform="translate(39.36875 392.1515625)scale(0.12 -0.12)">
       <use xlink:href="#Verdana-35"/>
       <use x="63.57421875" xlink:href="#Verdana-30"/>
       <use x="127.1484375" xlink:href="#Verdana-30"/>
       <use x="190.72265625" xlink:href="#Verdana-30"/>
      </g>
     </g>
    </g>
    <g id="ytick_2">
     <g id="line2d_20">
      <g>
       <use style="stroke:#000000;stroke-width:0.5;" x="72.0" xlink:href="#md7965d1ba0" y="345.6"/>
      </g>
     </g>
     <g id="line2d_21">
      <g>
       <use style="stroke:#000000;stroke-width:0.5;" x="518.4" xlink:href="#md9a1c1a7cd" y="345.6"/>
      </g>
     </g>
     <g id="text_9">
      <!-- 10000 -->
      <g transform="translate(32.27375 348.9515625)scale(0.12 -0.12)">
       <use xlink:href="#Verdana-31"/>
       <use x="63.57421875" xlink:href="#Verdana-30"/>
       <use x="127.1484375" xlink:href="#Verdana-30"/>
       <use x="190.72265625" xlink:href="#Verdana-30"/>
       <use x="254.296875" xlink:href="#Verdana-30"/>
      </g>
     </g>
    </g>
    <g id="ytick_3">
     <g id="line2d_22">
      <g>
       <use style="stroke:#000000;stroke-width:0.5;" x="72.0" xlink:href="#md7965d1ba0" y="302.4"/>
      </g>
     </g>
     <g id="line2d_23">
      <g>
       <use style="stroke:#000000;stroke-width:0.5;" x="518.4" xlink:href="#md9a1c1a7cd" y="302.4"/>
      </g>
     </g>
     <g id="text_10">
      <!-- 15000 -->
      <g transform="translate(32.27375 305.7515625)scale(0.12 -0.12)">
       <use xlink:href="#Verdana-31"/>
       <use x="63.57421875" xlink:href="#Verdana-35"/>
       <use x="127.1484375" xlink:href="#Verdana-30"/>
       <use x="190.72265625" xlink:href="#Verdana-30"/>
       <use x="254.296875" xlink:href="#Verdana-30"/>
      </g>
     </g>
    </g>
    <g id="ytick_4">
     <g id="line2d_24">
      <g>
       <use style="stroke:#000000;stroke-width:0.5;" x="72.0" xlink:href="#md7965d1ba0" y="259.2"/>
      </g>
     </g>
     <g id="line2d_25">
      <g>
       <use style="stroke:#000000;stroke-width:0.5;" x="518.4" xlink:href="#md9a1c1a7cd" y="259.2"/>
      </g>
     </g>
     <g id="text_11">
      <!-- 20000 -->
      <g transform="translate(31.5875 262.5515625)scale(0.12 -0.12)">
       <use xlink:href="#Verdana-32"/>
       <use x="63.57421875" xlink:href="#Verdana-30"/>
       <use x="127.1484375" xlink:href="#Verdana-30"/>
       <use x="190.72265625" xlink:href="#Verdana-30"/>
       <use x="254.296875" xlink:href="#Verdana-30"/>
      </g>
     </g>
    </g>
    <g id="ytick_5">
     <g id="line2d_26">
      <g>
       <use style="stroke:#000000;stroke-width:0.5;" x="72.0" xlink:href="#md7965d1ba0" y="216.0"/>
      </g>
     </g>
     <g id="line2d_27">
      <g>
       <use style="stroke:#000000;stroke-width:0.5;" x="518.4" xlink:href="#md9a1c1a7cd" y="216.0"/>
      </g>
     </g>
     <g id="text_12">
      <!-- 25000 -->
      <g transform="translate(31.5875 219.3515625)scale(0.12 -0.12)">
       <use xlink:href="#Verdana-32"/>
       <use x="63.57421875" xlink:href="#Verdana-35"/>
       <use x="127.1484375" xlink:href="#Verdana-30"/>
       <use x="190.72265625" xlink:href="#Verdana-30"/>
       <use x="254.296875" xlink:href="#Verdana-30"/>
      </g>
     </g>
    </g>
    <g id="ytick_6">
     <g id="line2d_28">
      <g>
       <use style="stroke:#000000;stroke-width:0.5;" x="72.0" xlink:href="#md7965d1ba0" y="172.8"/>
      </g>
     </g>
     <g id="line2d_29">
      <g>
       <use style="stroke:#000000;stroke-width:0.5;" x="518.4" xlink:href="#md9a1c1a7cd" y="172.8"/>
      </g>
     </g>
     <g id="text_13">
      <!-- 30000 -->
      <g transform="translate(31.623125 176.1515625)scale(0.12 -0.12)">
       <use xlink:href="#Verdana-33"/>
       <use x="63.57421875" xlink:href="#Verdana-30"/>
       <use x="127.1484375" xlink:href="#Verdana-30"/>
       <use x="190.72265625" xlink:href="#Verdana-30"/>
       <use x="254.296875" xlink:href="#Verdana-30"/>
      </g>
     </g>
    </g>
    <g id="ytick_7">
     <g id="line2d_30">
      <g>
       <use style="stroke:#000000;stroke-width:0.5;" x="72.0" xlink:href="#md7965d1ba0" y="129.6"/>
      </g>
     </g>
     <g id="line2d_31">
      <g>
       <use style="stroke:#000000;stroke-width:0.5;" x="518.4" xlink:href="#md9a1c1a7cd" y="129.6"/>
      </g>
     </g>
     <g id="text_14">
      <!-- 35000 -->
      <g transform="translate(31.623125 132.9515625)scale(0.12 -0.12)">
       <use xlink:href="#Verdana-33"/>
       <use x="63.57421875" xlink:href="#Verdana-35"/>
       <use x="127.1484375" xlink:href="#Verdana-30"/>
       <use x="190.72265625" xlink:href="#Verdana-30"/>
       <use x="254.296875" xlink:href="#Verdana-30"/>
      </g>
     </g>
    </g>
    <g id="ytick_8">
     <g id="line2d_32">
      <g>
       <use style="stroke:#000000;stroke-width:0.5;" x="72.0" xlink:href="#md7965d1ba0" y="86.4"/>
      </g>
     </g>
     <g id="line2d_33">
      <g>
       <use style="stroke:#000000;stroke-width:0.5;" x="518.4" xlink:href="#md9a1c1a7cd" y="86.4"/>
      </g>
     </g>
     <g id="text_15">
      <!-- 40000 -->
      <g transform="translate(31.09625 89.7515625)scale(0.12 -0.12)">
       <use xlink:href="#Verdana-34"/>
       <use x="63.57421875" xlink:href="#Verdana-30"/>
       <use x="127.1484375" xlink:href="#Verdana-30"/>
       <use x="190.72265625" xlink:href="#Verdana-30"/>
       <use x="254.296875" xlink:href="#Verdana-30"/>
      </g>
     </g>
    </g>
    <g id="ytick_9">
     <g id="line2d_34">
      <g>
       <use style="stroke:#000000;stroke-width:0.5;" x="72.0" xlink:href="#md7965d1ba0" y="43.2"/>
      </g>
     </g>
     <g id="line2d_35">
      <g>
       <use style="stroke:#000000;stroke-width:0.5;" x="518.4" xlink:href="#md9a1c1a7cd" y="43.2"/>
      </g>
     </g>
     <g id="text_16">
      <!-- 45000 -->
      <g transform="translate(31.09625 46.5515625)scale(0.12 -0.12)">
       <use xlink:href="#Verdana-34"/>
       <use x="63.57421875" xlink:href="#Verdana-35"/>
       <use x="127.1484375" xlink:href="#Verdana-30"/>
       <use x="190.72265625" xlink:href="#Verdana-30"/>
       <use x="254.296875" xlink:href="#Verdana-30"/>
      </g>
     </g>
    </g>
    <g id="text_17">
     <!-- Mean -->
     <defs>
      <path d="
M51.4219 0
L42.2812 0
L42.2812 5.8125
Q41.0625 4.98438 38.9844 3.48438
Q36.9219 2 34.9688 1.125
Q32.6719 0 29.6875 -0.75
Q26.7031 -1.51562 22.7031 -1.51562
Q15.3281 -1.51562 10.2031 3.35938
Q5.07812 8.25 5.07812 15.8281
Q5.07812 22.0156 7.73438 25.8438
Q10.4062 29.6875 15.3281 31.8906
Q20.3125 34.0781 27.2969 34.8594
Q34.2812 35.6406 42.2812 36.0312
L42.2812 37.4531
Q42.2812 40.5781 41.1875 42.625
Q40.0938 44.6719 38.0312 45.8438
Q36.0781 46.9688 33.3438 47.3594
Q30.6094 47.75 27.6406 47.75
Q24.0312 47.75 19.5781 46.7969
Q15.1406 45.8438 10.4062 44.0469
L9.90625 44.0469
L9.90625 53.375
Q12.5938 54.1094 17.6719 54.9844
Q22.75 55.8594 27.6875 55.8594
Q33.4531 55.8594 37.7188 54.9062
Q42 53.9531 45.125 51.6562
Q48.1875 49.4219 49.7969 45.8438
Q51.4219 42.2812 51.4219 37.0156
z

M42.2812 13.4219
L42.2812 28.6094
Q38.0938 28.375 32.3906 27.875
Q26.7031 27.3906 23.3906 26.4688
Q19.4375 25.3438 16.9844 22.9688
Q14.5469 20.6094 14.5469 16.4531
Q14.5469 11.7656 17.375 9.39062
Q20.2188 7.03125 26.0312 7.03125
Q30.8594 7.03125 34.8594 8.90625
Q38.875 10.7969 42.2812 13.4219" id="Verdana-61"/>
      <path d="
M74.5156 0
L64.8438 0
L64.8438 62.6406
L44.625 20.0156
L38.875 20.0156
L18.7969 62.6406
L18.7969 0
L9.76562 0
L9.76562 72.7031
L22.9531 72.7031
L42.3281 32.2344
L61.0781 72.7031
L74.5156 72.7031
z
" id="Verdana-4d"/>
     </defs>
     <g transform="translate(23.68125 230.9278125)rotate(-90.0)scale(0.12 -0.12)">
      <use xlink:href="#Verdana-4d"/>
      <use x="84.27734375" xlink:href="#Verdana-65"/>
      <use x="143.84765625" xlink:href="#Verdana-61"/>
      <use x="203.90625" xlink:href="#Verdana-6e"/>
     </g>
    </g>
   </g>
   <g id="patch_3">
    <path d="
M72 43.2
L518.4 43.2" style="fill:none;stroke:#000000;"/>
   </g>
   <g id="patch_4">
    <path d="
M72 388.8
L72 43.2" style="fill:none;stroke:#000000;"/>
   </g>
   <g id="patch_5">
    <path d="
M518.4 388.8
L518.4 43.2" style="fill:none;stroke:#000000;"/>
   </g>
   <g id="patch_6">
    <path d="
M72 388.8
L518.4 388.8" style="fill:none;stroke:#000000;"/>
   </g>
   <g id="text_18">
    <!-- Schwefel26 Mean -->
    <defs>
     <path d="
M18.3125 0
L9.125 0
L9.125 75.9844
L18.3125 75.9844
z
" id="Verdana-6c"/>
     <path d="
M58.1562 23.5781
Q58.1562 12.5 50.8594 5.48438
Q43.5625 -1.51562 32.9531 -1.51562
Q27.5938 -1.51562 23.1875 0.140625
Q18.7969 1.8125 15.4375 5.07812
Q11.2344 9.125 8.95312 15.8125
Q6.6875 22.5156 6.6875 31.9375
Q6.6875 41.6094 8.76562 49.0781
Q10.8438 56.5469 15.375 62.3594
Q19.6719 67.875 26.4531 70.9688
Q33.25 74.0781 42.2812 74.0781
Q45.1719 74.0781 47.125 73.8281
Q49.0781 73.5781 51.0781 72.9531
L51.0781 63.625
L50.5938 63.625
Q49.2188 64.3594 46.4531 65.0156
Q43.7031 65.6719 40.8281 65.6719
Q30.3281 65.6719 24.0781 59.1094
Q17.8281 52.5469 16.7969 41.3594
Q20.9062 43.8438 24.875 45.1406
Q28.8594 46.4375 34.0781 46.4375
Q38.7188 46.4375 42.25 45.5781
Q45.7969 44.7344 49.5156 42.1406
Q53.8125 39.1562 55.9844 34.6094
Q58.1562 30.0781 58.1562 23.5781
M48.25 23.1875
Q48.25 27.7344 46.9062 30.7031
Q45.5625 33.6875 42.4844 35.8906
Q40.2344 37.4531 37.5 37.9375
Q34.7656 38.4219 31.7812 38.4219
Q27.6406 38.4219 24.0781 37.4375
Q20.5156 36.4688 16.75 34.4219
Q16.6562 33.3438 16.5938 32.3438
Q16.5469 31.3438 16.5469 29.8281
Q16.5469 22.125 18.1406 17.6562
Q19.7344 13.1875 22.5156 10.5938
Q24.75 8.45312 27.3594 7.45312
Q29.9844 6.45312 33.0625 6.45312
Q40.1406 6.45312 44.1875 10.7656
Q48.25 15.0938 48.25 23.1875" id="Verdana-36"/>
     <path d="
M54.6406 0
L45.4531 0
L45.4531 31.0625
Q45.4531 34.8125 45.0156 38.1094
Q44.5781 41.4062 43.4062 43.2656
Q42.1875 45.3125 39.8906 46.3125
Q37.5938 47.3125 33.9375 47.3125
Q30.1719 47.3125 26.0625 45.4531
Q21.9688 43.6094 18.2188 40.7188
L18.2188 0
L9.03125 0
L9.03125 75.9844
L18.2188 75.9844
L18.2188 48.4844
Q22.5156 52.0469 27.0938 54.0469
Q31.6875 56.0625 36.5312 56.0625
Q45.3594 56.0625 50 50.7344
Q54.6406 45.4062 54.6406 35.4062
z
" id="Verdana-68"/>
     <path d="
M62.5938 20.75
Q62.5938 16.5 60.6094 12.3438
Q58.6406 8.20312 55.0781 5.32812
Q51.1719 2.20312 45.9688 0.4375
Q40.7656 -1.3125 33.4531 -1.3125
Q25.5938 -1.3125 19.3125 0.140625
Q13.0312 1.60938 6.54688 4.5
L6.54688 16.6094
L7.23438 16.6094
Q12.75 12.0156 19.9688 9.51562
Q27.2031 7.03125 33.5469 7.03125
Q42.5312 7.03125 47.5312 10.3906
Q52.5469 13.7656 52.5469 19.3906
Q52.5469 24.2188 50.1719 26.5156
Q47.7969 28.8125 42.9688 30.0781
Q39.3125 31.0625 35.0312 31.6875
Q30.7656 32.3281 25.9844 33.2969
Q16.3125 35.3594 11.6406 40.3125
Q6.98438 45.2656 6.98438 53.2188
Q6.98438 62.3594 14.6875 68.1875
Q22.4062 74.0312 34.2812 74.0312
Q41.9375 74.0312 48.3281 72.5625
Q54.7344 71.0938 59.6719 68.9531
L59.6719 57.5156
L58.9844 57.5156
Q54.8281 61.0312 48.0625 63.3438
Q41.3125 65.6719 34.2344 65.6719
Q26.4688 65.6719 21.75 62.4531
Q17.0469 59.2344 17.0469 54.1562
Q17.0469 49.6094 19.3906 47.0156
Q21.7344 44.4375 27.6406 43.0625
Q30.7656 42.3906 36.5156 41.4062
Q42.2812 40.4375 46.2969 39.4062
Q54.3906 37.25 58.4844 32.9062
Q62.5938 28.5625 62.5938 20.75" id="Verdana-53"/>
     <path d="
M77.6406 54.5469
L63.4219 0
L54.9375 0
L40.9219 42.0469
L27 0
L18.5625 0
L4.20312 54.5469
L13.7656 54.5469
L23.7812 12.3125
L37.4062 54.5469
L44.9688 54.5469
L58.9375 12.3125
L68.4062 54.5469
z
" id="Verdana-77"/>
    </defs>
    <g transform="translate(232.725375 38.2)scale(0.144 -0.144)">
     <use xlink:href="#Verdana-53"/>
     <use x="68.359375" xlink:href="#Verdana-63"/>
     <use x="120.458984375" xlink:href="#Verdana-68"/>
     <use x="183.240234375" xlink:href="#Verdana-77"/>
     <use x="265.076171875" xlink:href="#Verdana-65"/>
     <use x="324.646484375" xlink:href="#Verdana-66"/>
     <use x="359.802734375" xlink:href="#Verdana-65"/>
     <use x="419.373046875" xlink:href="#Verdana-6c"/>
     <use x="446.814453125" xlink:href="#Verdana-32"/>
     <use x="510.388671875" xlink:href="#Verdana-36"/>
     <use x="573.962890625" xlink:href="#Verdana-20"/>
     <use x="609.119140625" xlink:href="#Verdana-4d"/>
     <use x="693.396484375" xlink:href="#Verdana-65"/>
     <use x="752.966796875" xlink:href="#Verdana-61"/>
     <use x="813.025390625" xlink:href="#Verdana-6e"/>
    </g>
   </g>
   <g id="legend_1">
    <g id="patch_7">
     <path d="
M407.18 159.919
L511.2 159.919
L511.2 50.4
L407.18 50.4
L407.18 159.919
z
" style="fill:#ffffff;stroke:#000000;"/>
    </g>
    <g id="line2d_36">
     <path d="
M417.26 62.0617
L437.42 62.0617" style="fill:none;stroke:#0000ff;stroke-dasharray:6.000000,2.000000;stroke-dashoffset:0.0;"/>
    </g>
    <g id="line2d_37"/>
    <g id="text_19">
     <!-- AMPGO -->
     <defs>
      <path d="
M57.3281 50.7344
Q57.3281 45.9062 55.6406 41.7656
Q53.9531 37.6406 50.9219 34.625
Q47.1719 30.8594 42.0469 28.9688
Q36.9219 27.0938 29.1094 27.0938
L19.4375 27.0938
L19.4375 0
L9.76562 0
L9.76562 72.7031
L29.5 72.7031
Q36.0312 72.7031 40.5781 71.6094
Q45.125 70.5156 48.6406 68.1719
Q52.7812 65.375 55.0469 61.2188
Q57.3281 57.0781 57.3281 50.7344
M47.2656 50.4844
Q47.2656 54.25 45.9375 57.0312
Q44.625 59.8125 41.9375 61.5781
Q39.5938 63.0938 36.5938 63.75
Q33.5938 64.4062 29 64.4062
L19.4375 64.4062
L19.4375 35.3594
L27.5938 35.3594
Q33.4531 35.3594 37.1094 36.4062
Q40.7656 37.4531 43.0625 39.75
Q45.3594 42.0938 46.3125 44.6719
Q47.2656 47.2656 47.2656 50.4844" id="Verdana-50"/>
      <path d="
M70.4062 5.375
Q64.4531 2.64062 57.3906 0.609375
Q50.3438 -1.42188 43.75 -1.42188
Q35.25 -1.42188 28.1719 0.921875
Q21.0938 3.26562 16.1094 7.95312
Q11.0781 12.7031 8.34375 19.7969
Q5.60938 26.9062 5.60938 36.4219
Q5.60938 53.8594 15.7969 63.9375
Q25.9844 74.0312 43.75 74.0312
Q49.9531 74.0312 56.4219 72.5312
Q62.8906 71.0469 70.3594 67.4844
L70.3594 56
L69.4844 56
Q67.9688 57.1719 65.0781 59.0781
Q62.2031 60.9844 59.4219 62.25
Q56.0625 63.7656 51.7812 64.7656
Q47.5156 65.7656 42.0938 65.7656
Q29.8906 65.7656 22.7812 57.9219
Q15.6719 50.0938 15.6719 36.7188
Q15.6719 22.6094 23.0938 14.7656
Q30.5156 6.9375 43.3125 6.9375
Q48 6.9375 52.6562 7.85938
Q57.3281 8.79688 60.8438 10.25
L60.8438 28.0781
L41.3594 28.0781
L41.3594 36.5781
L70.4062 36.5781
z
" id="Verdana-47"/>
      <path d="
M67.0938 0
L56.7812 0
L49.6562 20.2656
L18.2188 20.2656
L11.0781 0
L1.26562 0
L27.7344 72.7031
L40.625 72.7031
z

M46.6875 28.5625
L33.9375 64.2656
L21.1406 28.5625
z
" id="Verdana-41"/>
     </defs>
     <g transform="translate(453.26025 67.10175)scale(0.144 -0.144)">
      <use xlink:href="#Verdana-41"/>
      <use x="68.359375" xlink:href="#Verdana-4d"/>
      <use x="152.63671875" xlink:href="#Verdana-50"/>
      <use x="212.939453125" xlink:href="#Verdana-47"/>
      <use x="290.478515625" xlink:href="#Verdana-4f"/>
     </g>
    </g>
    <g id="line2d_38">
     <path d="
M417.26 83.1015
L437.42 83.1015" style="fill:none;stroke:#008000;stroke-dasharray:1.000000,1.000000;stroke-dashoffset:0.0;"/>
    </g>
    <g id="line2d_39"/>
    <g id="text_20">
     <!-- Anneal -->
     <g transform="translate(453.26025 88.1415)scale(0.144 -0.144)">
      <use xlink:href="#Verdana-41"/>
      <use x="68.359375" xlink:href="#Verdana-6e"/>
      <use x="131.640625" xlink:href="#Verdana-6e"/>
      <use x="194.921875" xlink:href="#Verdana-65"/>
      <use x="254.4921875" xlink:href="#Verdana-61"/>
      <use x="314.55078125" xlink:href="#Verdana-6c"/>
     </g>
    </g>
    <g id="line2d_40">
     <path d="
M417.26 104.141
L437.42 104.141" style="fill:none;stroke:#ff0000;stroke-dasharray:3.000000,6.000000;stroke-dashoffset:0.0;"/>
    </g>
    <g id="line2d_41"/>
    <g id="text_21">
     <!-- BSA -->
     <defs>
      <path d="
M64.5938 22.3594
Q64.5938 16.9375 62.5469 12.7812
Q60.5 8.64062 57.0312 5.95312
Q52.9375 2.73438 48.0156 1.35938
Q43.1094 0 35.5469 0
L9.76562 0
L9.76562 72.7031
L31.2969 72.7031
Q39.2656 72.7031 43.2188 72.1094
Q47.1719 71.5312 50.7812 69.6719
Q54.7812 67.5781 56.5938 64.2812
Q58.4062 60.9844 58.4062 56.3906
Q58.4062 51.2188 55.7656 47.5781
Q53.125 43.9531 48.7344 41.75
L48.7344 41.3594
Q56.1094 39.8438 60.3438 34.8906
Q64.5938 29.9375 64.5938 22.3594
M48.3438 55.125
Q48.3438 57.7656 47.4531 59.5625
Q46.5781 61.375 44.625 62.5
Q42.3281 63.8125 39.0625 64.125
Q35.7969 64.4531 30.9531 64.4531
L19.4375 64.4531
L19.4375 43.4531
L31.9375 43.4531
Q36.4688 43.4531 39.1562 43.9219
Q41.8438 44.3906 44.1406 45.8438
Q46.4375 47.3125 47.3906 49.625
Q48.3438 51.9531 48.3438 55.125
M54.5469 21.9688
Q54.5469 26.375 53.2188 28.9531
Q51.9062 31.5469 48.4375 33.3438
Q46.0938 34.5781 42.75 34.9375
Q39.4062 35.2969 34.625 35.2969
L19.4375 35.2969
L19.4375 8.25
L32.2344 8.25
Q38.5781 8.25 42.625 8.90625
Q46.6875 9.57812 49.2656 11.3281
Q52 13.2344 53.2656 15.6719
Q54.5469 18.1094 54.5469 21.9688" id="Verdana-42"/>
     </defs>
     <g transform="translate(453.26025 109.18125)scale(0.144 -0.144)">
      <use xlink:href="#Verdana-42"/>
      <use x="68.5546875" xlink:href="#Verdana-53"/>
      <use x="135.9140625" xlink:href="#Verdana-41"/>
     </g>
    </g>
    <g id="line2d_42">
     <path d="
M417.26 125.181
L437.42 125.181" style="fill:none;stroke:#00bfbf;stroke-dasharray:5.000000,1.000000,2.000000,1.000000,5.000000,1.000000;stroke-dashoffset:0.0;"/>
    </g>
    <g id="line2d_43"/>
    <g id="text_22">
     <!-- Cuckoo -->
     <defs>
      <path d="
M58.5469 0
L46.4375 0
L24.5625 23.875
L18.6094 18.2188
L18.6094 0
L9.42188 0
L9.42188 75.9844
L18.6094 75.9844
L18.6094 27.25
L45.125 54.5469
L56.6875 54.5469
L31.3438 29.3438
z
" id="Verdana-6b"/>
      <path d="
M65.9219 5.28125
Q63.2344 4.10938 61.0625 3.07812
Q58.8906 2.04688 55.375 0.921875
Q52.3906 0 48.8906 -0.65625
Q45.4062 -1.3125 41.2188 -1.3125
Q33.2969 -1.3125 26.8281 0.90625
Q20.3594 3.125 15.5781 7.85938
Q10.8906 12.5 8.25 19.6562
Q5.60938 26.8125 5.60938 36.2812
Q5.60938 45.2656 8.14062 52.3438
Q10.6875 59.4219 15.4844 64.3125
Q20.125 69.0469 26.6875 71.5312
Q33.25 74.0312 41.2656 74.0312
Q47.125 74.0312 52.9531 72.6094
Q58.7969 71.1875 65.9219 67.625
L65.9219 56.1562
L65.1875 56.1562
Q59.1875 61.1875 53.2656 63.4688
Q47.3594 65.7656 40.625 65.7656
Q35.1094 65.7656 30.6875 63.9844
Q26.2656 62.2031 22.7969 58.4531
Q19.4375 54.7812 17.5469 49.1875
Q15.6719 43.6094 15.6719 36.2812
Q15.6719 28.6094 17.75 23.0938
Q19.8281 17.5781 23.0938 14.1094
Q26.5156 10.5 31.0781 8.76562
Q35.6406 7.03125 40.7188 7.03125
Q47.7031 7.03125 53.7969 9.42188
Q59.9062 11.8125 65.2344 16.6094
L65.9219 16.6094
z
" id="Verdana-43"/>
     </defs>
     <g transform="translate(453.26025 130.221)scale(0.144 -0.144)">
      <use xlink:href="#Verdana-43"/>
      <use x="69.82421875" xlink:href="#Verdana-75"/>
      <use x="133.10546875" xlink:href="#Verdana-63"/>
      <use x="185.205078125" xlink:href="#Verdana-6b"/>
      <use x="243.384765625" xlink:href="#Verdana-6f"/>
      <use x="304.078125" xlink:href="#Verdana-6f"/>
     </g>
    </g>
    <g id="line2d_44">
     <path d="
M417.26 146.221
L437.42 146.221" style="fill:none;stroke:#bf00bf;stroke-linecap:square;"/>
    </g>
    <g id="line2d_45"/>
    <g id="text_23">
     <!-- qABC -->
     <defs>
      <path d="
M53.2656 -20.125
L44.0938 -20.125
L44.0938 6.15625
Q39.8438 2.48438 35.6406 0.703125
Q31.4531 -1.07812 26.5625 -1.07812
Q16.8438 -1.07812 11.0625 6.42188
Q5.28125 13.9219 5.28125 27.0938
Q5.28125 34.125 7.29688 39.5156
Q9.32812 44.9219 12.6406 48.5781
Q15.875 52.1562 20.2188 54.1094
Q24.5625 56.0625 29.3906 56.0625
Q33.7969 56.0625 37.1875 55.0781
Q40.5781 54.1094 44.0938 52.2031
L44.6719 54.5469
L53.2656 54.5469
z

M44.0938 13.875
L44.0938 44.7344
Q40.2812 46.4375 37.3438 47.1094
Q34.4219 47.7969 31 47.7969
Q23.0469 47.7969 18.8906 42.4062
Q14.75 37.0156 14.75 27.5469
Q14.75 17.9688 18.0938 12.8125
Q21.4375 7.67188 28.6094 7.67188
Q32.625 7.67188 36.625 9.40625
Q40.625 11.1406 44.0938 13.875" id="Verdana-71"/>
     </defs>
     <g transform="translate(453.26025 151.26075)scale(0.144 -0.144)">
      <use xlink:href="#Verdana-71"/>
      <use x="62.3046875" xlink:href="#Verdana-41"/>
      <use x="130.6640625" xlink:href="#Verdana-42"/>
      <use x="199.21875" xlink:href="#Verdana-43"/>
     </g>
    </g>
   </g>
  </g>
 </g>
 <defs>
  <clipPath id="p7ff5b81e1d">
   <rect height="345.6" width="446.4" x="72.0" y="43.2"/>
  </clipPath>
 </defs>
</svg>
