<?xml version="1.0" encoding="utf-8" standalone="no"?>
<!DOCTYPE svg PUBLIC "-//W3C//DTD SVG 1.1//EN"
  "http://www.w3.org/Graphics/SVG/1.1/DTD/svg11.dtd">
<!-- Created with matplotlib (http://matplotlib.org/) -->
<svg height="432pt" version="1.1" viewBox="0 0 576 432" width="576pt" xmlns="http://www.w3.org/2000/svg" xmlns:xlink="http://www.w3.org/1999/xlink">
 <defs>
  <style type="text/css">
*{stroke-linecap:butt;stroke-linejoin:round;}
  </style>
 </defs>
 <g id="figure_1">
  <g id="patch_1">
   <path d="
M0 432
L576 432
L576 0
L0 0
z
" style="fill:#ffffff;"/>
  </g>
  <g id="axes_1">
   <g id="patch_2">
    <path d="
M72 388.8
L518.4 388.8
L518.4 43.2
L72 43.2
z
" style="fill:#ffffff;"/>
   </g>
   <g id="line2d_1">
    <path clip-path="url(#p7ff5b81e1d)" d="
M72 388.64
L72.2678 388.64
L72.4464 388.8
L73.4285 388.8
L73.607 388.64
L74.4998 388.64
L74.6784 388.16
L74.857 388.16
L75.0355 387.039
L75.2141 387.039
L75.3926 384.477
L75.5712 384.477
L75.7498 382.075
L75.9283 382.075
L76.1069 380.474
L76.2854 380.474
L76.464 379.513
L76.6426 379.513
L76.8211 376.791
L76.9997 376.791
L77.1782 374.71
L77.3568 374.71
L77.5354 373.108
L77.7139 373.108
L77.8925 372.308
L78.071 372.308
L78.2496 370.867
L78.4282 370.867
L78.6067 370.226
L78.7853 370.226
L78.9638 369.586
L79.1424 369.586
L79.321 369.426
L79.4995 369.426
L79.6781 368.945
L79.8566 368.945
L80.0352 368.625
L80.2138 368.625
L80.3923 367.664
L80.5709 367.664
L80.7494 367.504
L80.928 367.504
L81.1066 366.864
L81.6422 366.864
L81.8208 366.383
L81.9994 366.383
L82.1779 365.743
L82.3565 365.743
L82.535 365.263
L82.7136 365.263
L82.8922 365.102
L83.0707 365.102
L83.2493 364.462
L83.4278 364.462
L83.6064 364.302
L83.785 364.302
L83.9635 364.142
L84.1421 364.142
L84.3206 363.982
L84.8563 363.982
L85.0349 363.821
L85.2134 363.821
L85.392 363.501
L85.5706 363.501
L85.7491 363.341
L86.2848 363.341
L86.4634 363.181
L91.6416 363.181
L91.8202 363.021
L94.4986 363.021
L94.6771 362.861
L518.311 362.861
L518.311 362.861" style="fill:none;stroke:#0000ff;stroke-dasharray:6.000000,2.000000;stroke-dashoffset:0.0;"/>
   </g>
   <g id="line2d_2">
    <path clip-path="url(#p7ff5b81e1d)" d="
M72 388.8
L124.764 388.8
L124.943 388.076
L135.21 388.076
L135.389 387.353
L138.067 387.353
L138.335 385.906
L139.942 385.906
L140.121 385.182
L162.173 385.182
L162.351 384.458
L167.351 384.458
L167.53 383.735
L168.244 383.735
L168.422 383.011
L169.226 383.011
L169.404 382.287
L170.208 382.287
L170.387 381.564
L172.261 381.564
L172.44 380.84
L177.797 380.84
L177.975 380.117
L180.207 380.117
L180.386 379.393
L180.743 379.393
L181.011 377.946
L182.529 377.946
L182.707 377.222
L184.582 377.222
L184.761 376.498
L185.028 376.498
L185.207 375.775
L187.707 375.775
L187.885 375.051
L189.492 375.051
L189.671 374.328
L192.796 374.328
L193.064 372.88
L193.153 372.88
L193.332 372.157
L196.456 372.157
L196.635 371.433
L199.313 371.433
L199.492 370.71
L200.206 370.71
L200.385 369.986
L201.01 369.986
L201.277 368.539
L201.635 368.539
L201.902 367.091
L202.527 367.091
L202.706 366.368
L204.224 366.368
L204.492 364.921
L205.652 364.921
L205.831 364.197
L207.17 364.197
L207.348 363.473
L208.063 363.473
L208.241 362.75
L208.866 362.75
L209.045 362.026
L209.67 362.026
L209.848 361.303
L211.188 361.303
L211.366 359.855
L212.705 359.855
L212.884 359.132
L214.044 359.132
L214.312 357.684
L216.544 357.684
L216.723 356.961
L217.169 356.961
L217.348 356.237
L220.026 356.237
L220.205 355.514
L221.098 355.514
L221.276 354.79
L221.365 354.79
L221.544 354.066
L222.883 354.066
L223.062 353.343
L223.597 353.343
L223.776 351.895
L224.133 351.895
L224.312 351.172
L226.097 351.172
L226.276 350.448
L227.526 350.448
L227.704 349.725
L228.686 349.725
L228.865 349.001
L231.008 349.001
L231.186 348.277
L231.454 348.277
L231.633 347.554
L232.347 347.554
L232.525 346.83
L232.793 346.83
L233.061 345.383
L233.418 345.383
L233.597 344.659
L234.043 344.659
L234.222 343.936
L234.847 343.936
L235.115 342.488
L235.293 342.488
L235.472 341.765
L235.918 341.765
L236.097 341.041
L237.436 341.041
L237.614 340.318
L238.329 340.318
L238.507 339.594
L238.686 339.594
L238.864 338.87
L239.221 338.87
L239.4 338.147
L239.579 338.147
L239.757 337.423
L240.025 337.423
L240.204 336.699
L240.828 336.699
L241.007 335.976
L242.793 335.976
L242.971 335.252
L243.685 335.252
L243.864 334.529
L244.221 334.529
L244.578 332.358
L244.846 332.358
L245.025 331.634
L246.364 331.634
L246.542 330.911
L247.078 330.911
L247.257 330.187
L247.792 330.187
L247.971 329.463
L248.06 329.463
L248.239 328.74
L249.578 328.74
L249.756 328.016
L251.096 328.016
L251.274 327.292
L251.81 327.292
L251.988 326.569
L253.774 326.569
L253.953 325.845
L254.131 325.845
L254.31 325.122
L255.024 325.122
L255.292 323.674
L256.452 323.674
L256.631 322.951
L257.613 322.951
L257.97 320.78
L258.149 320.78
L258.327 319.333
L258.863 319.333
L259.042 318.609
L259.22 318.609
L259.399 317.885
L259.488 317.885
L259.667 317.162
L259.845 317.162
L260.024 316.438
L261.72 316.438
L261.988 314.991
L263.327 314.991
L263.506 314.267
L263.684 314.267
L263.952 312.82
L264.398 312.82
L264.577 312.096
L266.63 312.096
L266.809 311.373
L267.077 311.373
L267.345 309.926
L267.88 309.926
L268.059 309.202
L268.237 309.202
L268.416 308.478
L268.684 308.478
L268.862 307.755
L269.041 307.755
L269.22 307.031
L269.577 307.031
L269.755 306.308
L269.934 306.308
L270.112 305.584
L272.344 305.584
L272.612 304.137
L274.13 304.137
L274.308 303.413
L275.023 303.413
L275.201 302.689
L276.183 302.689
L276.362 301.966
L277.076 301.966
L277.255 301.242
L277.344 301.242
L277.612 299.795
L277.969 299.795
L278.148 299.071
L278.237 299.071
L278.951 294.006
L280.826 294.006
L281.004 293.282
L281.629 293.282
L281.808 292.559
L282.522 292.559
L282.701 291.835
L282.879 291.835
L283.058 291.112
L283.147 291.112
L283.415 289.664
L285.022 289.664
L285.201 288.217
L287.879 288.217
L288.058 287.493
L288.95 287.493
L289.129 286.77
L289.308 286.77
L289.486 286.046
L290.468 286.046
L290.647 285.323
L291.272 285.323
L291.54 283.875
L292.432 283.875
L292.611 283.152
L293.95 283.152
L294.129 281.705
L294.218 281.705
L294.486 280.257
L294.664 280.257
L294.843 279.534
L294.932 279.534
L295.289 277.363
L295.379 277.363
L295.646 275.916
L296.271 275.916
L296.45 275.192
L297.164 275.192
L297.343 274.468
L297.521 274.468
L297.7 273.745
L298.682 273.745
L298.95 272.297
L299.039 272.297
L299.307 270.85
L300.021 270.85
L300.2 270.127
L300.289 270.127
L300.468 269.403
L300.557 269.403
L300.914 267.232
L301.003 267.232
L301.182 266.509
L301.539 266.509
L301.717 265.061
L301.896 264.338
L302.164 264.338
L302.432 262.89
L303.057 262.89
L303.235 262.167
L303.682 262.167
L303.86 261.443
L304.396 261.443
L304.574 260.72
L305.556 260.72
L305.824 259.272
L306.003 259.272
L306.181 258.549
L306.36 258.549
L306.539 257.825
L308.771 257.825
L308.949 256.378
L309.128 255.654
L309.396 255.654
L309.574 254.931
L311.628 254.931
L311.806 254.207
L311.985 254.207
L312.163 253.483
L312.699 253.483
L312.877 252.76
L313.413 252.76
L313.592 252.036
L314.574 252.036
L314.752 250.589
L314.842 250.589
L315.02 249.865
L315.288 249.865
L315.467 249.142
L315.645 249.142
L315.913 247.694
L317.788 247.694
L317.966 246.971
L318.681 246.971
L318.859 246.247
L319.306 246.247
L319.573 244.8
L321.091 244.8
L321.27 244.076
L322.43 244.076
L322.698 242.629
L324.037 242.629
L324.127 241.906
L324.305 239.735
L325.109 239.735
L325.287 238.287
L326.537 238.287
L326.716 237.564
L326.984 237.564
L327.162 236.84
L327.519 236.84
L327.698 236.117
L328.055 236.117
L328.234 235.393
L328.323 235.393
L328.501 234.669
L328.859 234.669
L329.037 233.946
L329.216 233.946
L329.394 232.498
L331.091 232.498
L331.269 231.775
L331.537 231.775
L331.805 230.328
L332.162 230.328
L332.34 229.604
L332.519 229.604
L332.698 228.88
L333.412 228.88
L333.59 228.157
L334.126 228.157
L334.305 226.71
L334.662 226.71
L334.84 225.986
L335.555 225.986
L335.733 225.262
L335.912 225.262
L336.09 224.539
L336.358 224.539
L336.537 223.815
L337.965 223.815
L338.144 223.091
L338.769 223.091
L338.947 221.644
L339.126 221.644
L339.304 220.921
L339.394 220.921
L339.572 220.197
L341.001 220.197
L341.358 218.026
L341.536 218.026
L341.804 216.579
L344.661 216.579
L344.84 215.855
L345.465 215.855
L345.643 215.132
L345.822 215.132
L346 214.408
L346.268 214.408
L346.447 213.684
L346.625 213.684
L346.804 212.961
L347.697 212.961
L347.875 210.79
L348.143 210.79
L348.322 210.066
L350.018 210.066
L350.286 208.619
L351.089 208.619
L351.268 207.895
L351.625 207.895
L351.804 207.172
L352.428 207.172
L352.607 206.448
L352.875 206.448
L353.053 205.725
L354.125 205.725
L354.303 204.277
L354.839 204.277
L355.018 203.554
L355.285 203.554
L355.464 202.83
L356.357 202.83
L356.535 202.107
L356.892 202.107
L357.071 201.383
L357.339 201.383
L357.607 199.936
L359.303 199.936
L359.482 199.212
L360.642 199.212
L360.821 198.488
L361.803 198.488
L361.981 197.041
L362.071 197.041
L362.339 195.594
L364.571 195.594
L364.749 194.87
L365.017 194.87
L365.196 193.423
L366.178 193.423
L366.356 192.699
L368.142 192.699
L368.32 191.976
L368.41 191.976
L368.588 191.252
L369.481 191.252
L369.66 190.529
L370.284 190.529
L370.463 189.805
L371.177 189.805
L371.445 188.358
L372.606 188.358
L372.784 187.634
L373.409 187.634
L373.677 186.187
L374.034 186.187
L374.213 185.463
L374.391 185.463
L374.659 184.016
L374.927 184.016
L375.106 183.292
L376.266 183.292
L376.445 182.569
L377.338 182.569
L377.516 181.845
L378.32 181.845
L378.498 181.122
L379.302 181.122
L379.48 180.398
L379.659 180.398
L379.927 178.951
L380.462 178.951
L380.73 177.504
L381.087 177.504
L381.266 176.78
L381.444 176.78
L381.623 176.056
L381.802 176.056
L381.98 175.333
L382.605 175.333
L382.784 173.885
L382.962 173.885
L383.141 173.162
L383.409 173.162
L383.587 172.438
L384.212 172.438
L384.391 171.715
L384.748 171.715
L385.105 169.544
L386.98 169.544
L387.248 168.096
L387.605 168.096
L387.783 167.373
L391.176 167.373
L391.355 166.649
L392.069 166.649
L392.247 165.926
L392.515 165.926
L392.694 165.202
L393.051 165.202
L393.229 164.478
L393.497 164.478
L393.676 163.755
L394.301 163.755
L394.569 162.308
L394.658 162.308
L394.926 160.86
L395.372 160.86
L395.551 160.137
L396.265 160.137
L396.444 159.413
L397.515 159.413
L397.693 158.689
L398.318 158.689
L398.497 157.966
L398.854 157.966
L399.033 157.242
L400.015 157.242
L400.193 156.519
L401.622 156.519
L401.8 155.795
L403.407 155.795
L403.675 154.348
L403.854 154.348
L404.122 152.901
L405.104 152.901
L405.282 152.177
L406.889 152.177
L407.068 151.453
L407.425 151.453
L407.604 150.73
L407.693 150.73
L407.871 150.006
L408.764 150.006
L408.943 149.282
L409.746 149.282
L410.014 147.835
L410.639 147.835
L410.818 147.112
L411.353 147.112
L411.532 146.388
L413.764 146.388
L413.942 144.941
L414.567 144.941
L414.746 144.217
L414.835 144.217
L415.014 143.493
L415.192 143.493
L415.371 142.77
L415.817 142.77
L415.996 142.046
L416.799 142.046
L416.978 141.323
L417.603 141.323
L417.96 139.152
L418.496 139.152
L418.674 138.428
L419.031 138.428
L419.21 137.705
L420.371 137.705
L420.549 136.981
L421.62 136.981
L421.888 135.534
L423.049 135.534
L423.228 134.81
L423.406 134.81
L423.585 134.086
L424.299 134.086
L424.477 133.363
L425.013 133.363
L425.281 131.916
L427.245 131.916
L427.424 131.192
L427.781 131.192
L427.959 130.468
L428.674 130.468
L428.852 129.745
L430.102 129.745
L430.281 129.021
L430.37 129.021
L430.548 128.297
L432.691 128.297
L432.87 127.574
L433.673 127.574
L433.852 126.85
L435.637 126.85
L435.905 125.403
L439.566 125.403
L439.744 123.956
L439.923 123.232
L440.191 123.232
L440.459 121.785
L440.637 121.785
L440.816 121.061
L442.155 121.061
L442.333 120.338
L442.512 120.338
L442.691 119.614
L442.958 119.614
L443.137 118.89
L443.583 118.89
L443.851 117.443
L443.94 117.443
L444.119 116.72
L444.565 116.72
L444.744 113.825
L445.19 113.825
L445.369 113.102
L445.548 113.102
L445.726 112.378
L446.887 112.378
L447.155 110.931
L450.726 110.931
L450.904 110.207
L451.083 110.207
L451.261 109.483
L451.529 109.483
L451.708 108.76
L451.976 108.76
L452.154 108.036
L452.422 108.036
L452.601 107.313
L452.779 107.313
L453.404 102.971
L453.583 102.971
L453.761 102.247
L454.654 102.247
L454.833 100.8
L454.922 100.8
L455.1 100.076
L458.315 100.076
L458.493 99.3528
L459.029 99.3528
L459.207 98.6291
L460.1 98.6291
L460.368 97.1819
L460.547 97.1819
L460.725 96.4583
L462.332 96.4583
L462.868 92.8402
L463.046 92.8402
L463.314 91.393
L464.386 91.393
L464.743 89.2221
L465.368 89.2221
L465.546 88.4985
L465.814 88.4985
L465.993 87.7749
L466.975 87.7749
L467.153 85.604
L468.403 85.604
L468.582 84.1568
L468.85 84.1568
L469.028 83.4332
L472.689 83.4332
L472.867 82.7095
L474.385 82.7095
L474.564 81.9859
L474.653 81.9859
L474.831 81.2623
L476.26 81.2623
L476.438 80.5387
L477.242 80.5387
L477.42 79.0915
L478.224 79.0915
L478.403 78.3678
L479.474 78.3678
L479.652 77.6442
L480.635 77.6442
L480.813 76.9206
L482.509 76.9206
L482.688 76.197
L486.348 76.197
L486.527 75.4734
L487.598 75.4734
L487.777 74.7497
L487.866 74.7497
L488.134 73.3025
L489.205 73.3025
L489.384 72.5789
L490.009 72.5789
L490.188 71.8553
L491.795 71.8553
L492.241 68.9608
L492.777 68.9608
L492.955 68.2372
L493.402 68.2372
L493.58 67.5136
L496.437 67.5136
L496.705 66.0663
L500.276 66.0663
L500.455 65.3427
L500.544 65.3427
L500.901 63.1719
L501.794 63.1719
L501.972 61.7246
L505.276 61.7246
L505.454 61.001
L505.633 61.001
L505.812 60.2774
L505.901 60.2774
L506.079 59.5538
L506.526 59.5538
L506.704 58.8302
L506.972 58.8302
L507.151 58.1065
L508.401 58.1065
L508.579 57.3829
L510.9 57.3829
L511.079 56.6593
L512.061 56.6593
L512.24 55.9357
L512.597 55.9357
L512.775 55.2121
L513.49 55.2121
L513.668 54.4884
L515.454 54.4884
L515.632 53.7648
L515.989 53.7648
L516.257 52.3176
L518.311 52.3176
L518.311 52.3176" style="fill:none;stroke:#008000;stroke-dasharray:1.000000,1.000000;stroke-dashoffset:0.0;"/>
   </g>
   <g id="line2d_3">
    <path clip-path="url(#p7ff5b81e1d)" d="
M72 388.8
L72.2678 388.8
L72.4464 388.181
L73.0714 388.181
L73.2499 388.8
L324.662 388.8
L324.841 388.181
L338.501 388.181
L338.679 387.562
L359.928 387.562
L360.107 386.943
L367.963 386.943
L368.142 386.324
L385.194 386.324
L385.373 385.705
L412.782 385.705
L412.96 385.087
L416.621 385.087
L416.799 384.468
L420.906 384.468
L421.085 383.849
L430.37 383.849
L430.548 383.23
L434.298 383.23
L434.477 382.611
L436.887 382.611
L437.066 381.992
L456.529 381.992
L456.708 381.373
L465.814 381.373
L465.993 380.754
L466.082 380.754
L466.26 380.135
L468.046 380.135
L468.225 379.516
L477.063 379.516
L477.242 378.897
L479.028 378.897
L479.206 378.279
L482.867 378.279
L483.045 377.66
L508.668 377.66
L508.847 377.041
L512.954 377.041
L513.132 376.422
L514.561 376.422
L514.74 375.803
L515.275 375.803
L515.454 375.184
L518.311 375.184
L518.311 375.184" style="fill:none;stroke:#ff0000;stroke-dasharray:3.000000,6.000000;stroke-dashoffset:0.0;"/>
   </g>
   <g id="line2d_4">
    <path clip-path="url(#p7ff5b81e1d)" d="
M72 388.8
L73.2499 388.8
L73.4285 387.939
L73.607 388.8
L320.823 388.8
L321.002 387.939
L378.141 387.939
L378.32 387.079
L452.868 387.079
L453.047 386.218
L465.636 386.218
L465.814 385.358
L469.028 385.358
L469.207 384.497
L471.796 384.497
L471.974 383.637
L498.758 383.637
L498.937 382.776
L518.311 382.776
L518.311 382.776" style="fill:none;stroke:#00bfbf;stroke-dasharray:5.000000,1.000000,2.000000,1.000000,5.000000,1.000000;stroke-dashoffset:0.0;"/>
   </g>
   <g id="line2d_5">
    <path clip-path="url(#p7ff5b81e1d)" d="
M72 388.8
L73.0714 388.8
L73.2499 388.207
L73.4285 388.8
L518.311 388.8
L518.311 388.8" style="fill:none;stroke:#bf00bf;stroke-linecap:square;"/>
   </g>
   <g id="matplotlib.axis_1">
    <g id="xtick_1">
     <g id="line2d_6">
      <defs>
       <path d="
M0 0
L0 -4" id="mc7db9fdffb" style="stroke:#000000;stroke-width:0.5;"/>
      </defs>
      <g>
       <use style="stroke:#000000;stroke-width:0.5;" x="72.0" xlink:href="#mc7db9fdffb" y="388.8"/>
      </g>
     </g>
     <g id="line2d_7">
      <defs>
       <path d="
M0 0
L0 4" id="m5a7d422ac3" style="stroke:#000000;stroke-width:0.5;"/>
      </defs>
      <g>
       <use style="stroke:#000000;stroke-width:0.5;" x="72.0" xlink:href="#m5a7d422ac3" y="43.2"/>
      </g>
     </g>
     <g id="text_1">
      <!-- 0 -->
      <defs>
       <path d="
M56.9844 36.375
Q56.9844 16.7969 50.8594 7.64062
Q44.7344 -1.51562 31.8438 -1.51562
Q18.75 -1.51562 12.7188 7.76562
Q6.6875 17.0469 6.6875 36.2812
Q6.6875 55.6719 12.7812 64.9219
Q18.8906 74.1719 31.8438 74.1719
Q44.9219 74.1719 50.9531 64.7656
Q56.9844 55.375 56.9844 36.375
M44.1406 14.2031
Q45.8438 18.1719 46.4531 23.5156
Q47.0781 28.8594 47.0781 36.375
Q47.0781 43.7969 46.4531 49.2656
Q45.8438 54.7344 44.0938 58.5469
Q42.3906 62.3125 39.4219 64.2031
Q36.4688 66.1094 31.8438 66.1094
Q27.25 66.1094 24.2344 64.2031
Q21.2344 62.3125 19.4844 58.4531
Q17.8281 54.8281 17.2188 49.0156
Q16.6094 43.2188 16.6094 36.2812
Q16.6094 28.6562 17.1406 23.5312
Q17.6719 18.4062 19.4375 14.3594
Q21.0469 10.5469 24 8.54688
Q26.9531 6.54688 31.8438 6.54688
Q36.4219 6.54688 39.4531 8.45312
Q42.4844 10.3594 44.1406 14.2031" id="Verdana-30"/>
      </defs>
      <g transform="translate(68.9821875 401.918125)scale(0.12 -0.12)">
       <use xlink:href="#Verdana-30"/>
      </g>
     </g>
    </g>
    <g id="xtick_2">
     <g id="line2d_8">
      <g>
       <use style="stroke:#000000;stroke-width:0.5;" x="161.28" xlink:href="#mc7db9fdffb" y="388.8"/>
      </g>
     </g>
     <g id="line2d_9">
      <g>
       <use style="stroke:#000000;stroke-width:0.5;" x="161.28" xlink:href="#m5a7d422ac3" y="43.2"/>
      </g>
     </g>
     <g id="text_2">
      <!-- 1000 -->
      <defs>
       <path d="
M52.9375 0
L13.5781 0
L13.5781 7.42188
L28.7188 7.42188
L28.7188 56.1562
L13.5781 56.1562
L13.5781 62.7969
Q16.6562 62.7969 20.1719 63.2969
Q23.6875 63.8125 25.4844 64.7969
Q27.7344 66.0156 29.0312 67.8906
Q30.3281 69.7812 30.5156 72.9531
L38.0938 72.9531
L38.0938 7.42188
L52.9375 7.42188
z
" id="Verdana-31"/>
      </defs>
      <g transform="translate(147.2315625 401.918125)scale(0.12 -0.12)">
       <use xlink:href="#Verdana-31"/>
       <use x="63.57421875" xlink:href="#Verdana-30"/>
       <use x="127.1484375" xlink:href="#Verdana-30"/>
       <use x="190.72265625" xlink:href="#Verdana-30"/>
      </g>
     </g>
    </g>
    <g id="xtick_3">
     <g id="line2d_10">
      <g>
       <use style="stroke:#000000;stroke-width:0.5;" x="250.56" xlink:href="#mc7db9fdffb" y="388.8"/>
      </g>
     </g>
     <g id="line2d_11">
      <g>
       <use style="stroke:#000000;stroke-width:0.5;" x="250.56" xlink:href="#m5a7d422ac3" y="43.2"/>
      </g>
     </g>
     <g id="text_3">
      <!-- 2000 -->
      <defs>
       <path d="
M57.0781 0
L7.85938 0
L7.85938 10.2031
Q12.9844 14.5938 18.1406 18.9844
Q23.2969 23.3906 27.7344 27.7344
Q37.1094 36.8125 40.5781 42.1562
Q44.0469 47.5156 44.0469 53.7188
Q44.0469 59.375 40.3125 62.5625
Q36.5781 65.7656 29.8906 65.7656
Q25.4375 65.7656 20.2656 64.2031
Q15.0938 62.6406 10.1562 59.4219
L9.67188 59.4219
L9.67188 69.6719
Q13.1406 71.3906 18.9219 72.7969
Q24.7031 74.2188 30.125 74.2188
Q41.3125 74.2188 47.6562 68.8125
Q54 63.4219 54 54.2031
Q54 50.0469 52.9531 46.4531
Q51.9062 42.875 49.8594 39.6562
Q47.9531 36.625 45.3906 33.6875
Q42.8281 30.7656 39.1562 27.2031
Q33.9375 22.0781 28.3594 17.2656
Q22.7969 12.4531 17.9688 8.34375
L57.0781 8.34375
z
" id="Verdana-32"/>
      </defs>
      <g transform="translate(236.1684375 401.918125)scale(0.12 -0.12)">
       <use xlink:href="#Verdana-32"/>
       <use x="63.57421875" xlink:href="#Verdana-30"/>
       <use x="127.1484375" xlink:href="#Verdana-30"/>
       <use x="190.72265625" xlink:href="#Verdana-30"/>
      </g>
     </g>
    </g>
    <g id="xtick_4">
     <g id="line2d_12">
      <g>
       <use style="stroke:#000000;stroke-width:0.5;" x="339.84" xlink:href="#mc7db9fdffb" y="388.8"/>
      </g>
     </g>
     <g id="line2d_13">
      <g>
       <use style="stroke:#000000;stroke-width:0.5;" x="339.84" xlink:href="#m5a7d422ac3" y="43.2"/>
      </g>
     </g>
     <g id="text_4">
      <!-- 3000 -->
      <defs>
       <path d="
M50.6875 35.0156
Q53.0312 32.9062 54.5469 29.7344
Q56.0625 26.5625 56.0625 21.5312
Q56.0625 16.5469 54.25 12.3906
Q52.4375 8.25 49.1719 5.17188
Q45.5156 1.76562 40.5469 0.125
Q35.5938 -1.51562 29.6875 -1.51562
Q23.6406 -1.51562 17.7812 -0.0625
Q11.9219 1.375 8.15625 3.07812
L8.15625 13.2812
L8.89062 13.2812
Q13.0312 10.5469 18.6406 8.73438
Q24.2656 6.9375 29.5 6.9375
Q32.5625 6.9375 36.0312 7.95312
Q39.5 8.98438 41.6562 10.9844
Q43.8906 13.1406 44.9844 15.7188
Q46.0938 18.3125 46.0938 22.2656
Q46.0938 26.1719 44.8438 28.7344
Q43.6094 31.2969 41.4062 32.7656
Q39.2031 34.2812 36.0781 34.8438
Q32.9531 35.4062 29.3438 35.4062
L24.9531 35.4062
L24.9531 43.5
L28.375 43.5
Q35.7969 43.5 40.2031 46.5938
Q44.625 49.7031 44.625 55.6719
Q44.625 58.2969 43.5 60.2656
Q42.3906 62.25 40.375 63.5312
Q38.2812 64.7969 35.8906 65.2812
Q33.5 65.7656 30.4688 65.7656
Q25.8281 65.7656 20.5938 64.1094
Q15.375 62.4531 10.75 59.4219
L10.25 59.4219
L10.25 69.625
Q13.7188 71.3438 19.5 72.7812
Q25.2969 74.2188 30.7188 74.2188
Q36.0312 74.2188 40.0781 73.2344
Q44.1406 72.2656 47.4062 70.125
Q50.9219 67.7812 52.7344 64.4531
Q54.5469 61.1406 54.5469 56.6875
Q54.5469 50.6406 50.2656 46.125
Q46 41.6094 40.1875 40.4375
L40.1875 39.75
Q42.5312 39.3594 45.5469 38.1094
Q48.5781 36.8594 50.6875 35.0156" id="Verdana-33"/>
      </defs>
      <g transform="translate(325.46625 401.918125)scale(0.12 -0.12)">
       <use xlink:href="#Verdana-33"/>
       <use x="63.57421875" xlink:href="#Verdana-30"/>
       <use x="127.1484375" xlink:href="#Verdana-30"/>
       <use x="190.72265625" xlink:href="#Verdana-30"/>
      </g>
     </g>
    </g>
    <g id="xtick_5">
     <g id="line2d_14">
      <g>
       <use style="stroke:#000000;stroke-width:0.5;" x="429.12" xlink:href="#mc7db9fdffb" y="388.8"/>
      </g>
     </g>
     <g id="line2d_15">
      <g>
       <use style="stroke:#000000;stroke-width:0.5;" x="429.12" xlink:href="#m5a7d422ac3" y="43.2"/>
      </g>
     </g>
     <g id="text_5">
      <!-- 4000 -->
      <defs>
       <path d="
M58.7344 20.4531
L47.9531 20.4531
L47.9531 0
L38.5781 0
L38.5781 20.4531
L3.76562 20.4531
L3.76562 31.6875
L38.9688 72.7031
L47.9531 72.7031
L47.9531 28.2656
L58.7344 28.2656
z

M38.5781 28.2656
L38.5781 61.0781
L10.4062 28.2656
z
" id="Verdana-34"/>
      </defs>
      <g transform="translate(414.4828125 401.918125)scale(0.12 -0.12)">
       <use xlink:href="#Verdana-34"/>
       <use x="63.57421875" xlink:href="#Verdana-30"/>
       <use x="127.1484375" xlink:href="#Verdana-30"/>
       <use x="190.72265625" xlink:href="#Verdana-30"/>
      </g>
     </g>
    </g>
    <g id="xtick_6">
     <g id="line2d_16">
      <g>
       <use style="stroke:#000000;stroke-width:0.5;" x="518.4" xlink:href="#mc7db9fdffb" y="388.8"/>
      </g>
     </g>
     <g id="line2d_17">
      <g>
       <use style="stroke:#000000;stroke-width:0.5;" x="518.4" xlink:href="#m5a7d422ac3" y="43.2"/>
      </g>
     </g>
     <g id="text_6">
      <!-- 5000 -->
      <defs>
       <path d="
M56.5 23.0938
Q56.5 18.0156 54.6406 13.375
Q52.7812 8.73438 49.5625 5.5625
Q46.0469 2.15625 41.1875 0.3125
Q36.3281 -1.51562 29.9375 -1.51562
Q23.9688 -1.51562 18.4531 -0.265625
Q12.9375 0.984375 9.125 2.73438
L9.125 13.0312
L9.8125 13.0312
Q13.8125 10.5 19.1875 8.71875
Q24.5625 6.9375 29.7344 6.9375
Q33.2031 6.9375 36.4531 7.90625
Q39.7031 8.89062 42.2344 11.3281
Q44.3906 13.4219 45.4844 16.3438
Q46.5781 19.2812 46.5781 23.1406
Q46.5781 26.9062 45.2812 29.4844
Q44 32.0781 41.7031 33.6406
Q39.1562 35.5 35.5156 36.25
Q31.8906 37.0156 27.3906 37.0156
Q23.0938 37.0156 19.1094 36.4219
Q15.1406 35.8438 12.25 35.25
L12.25 72.7031
L56 72.7031
L56 64.1562
L21.6875 64.1562
L21.6875 44.8281
Q23.7812 45.0156 25.9688 45.1094
Q28.1719 45.2188 29.7812 45.2188
Q35.6875 45.2188 40.125 44.2188
Q44.5781 43.2188 48.2969 40.6719
Q52.2031 37.9844 54.3438 33.7344
Q56.5 29.5 56.5 23.0938" id="Verdana-35"/>
      </defs>
      <g transform="translate(504.084375 401.918125)scale(0.12 -0.12)">
       <use xlink:href="#Verdana-35"/>
       <use x="63.57421875" xlink:href="#Verdana-30"/>
       <use x="127.1484375" xlink:href="#Verdana-30"/>
       <use x="190.72265625" xlink:href="#Verdana-30"/>
      </g>
     </g>
    </g>
    <g id="text_7">
     <!-- Objective function exectuions -->
     <defs>
      <path d="
M54.6406 0
L45.4531 0
L45.4531 31.0625
Q45.4531 34.8125 45.0156 38.1094
Q44.5781 41.4062 43.4062 43.2656
Q42.1875 45.3125 39.8906 46.3125
Q37.5938 47.3125 33.9375 47.3125
Q30.1719 47.3125 26.0625 45.4531
Q21.9688 43.6094 18.2188 40.7188
L18.2188 0
L9.03125 0
L9.03125 54.5469
L18.2188 54.5469
L18.2188 48.4844
Q22.5156 52.0469 27.0938 54.0469
Q31.6875 56.0625 36.5312 56.0625
Q45.3594 56.0625 50 50.7344
Q54.6406 45.4062 54.6406 35.4062
z
" id="Verdana-6e"/>
      <path d="
M18.8906 63.6719
L8.54688 63.6719
L8.54688 73.1875
L18.8906 73.1875
z

M18.3125 0
L9.125 0
L9.125 54.5469
L18.3125 54.5469
z
" id="Verdana-69"/>
      <path d="
M56.25 0
L44.6719 0
L29.2031 20.9531
L13.625 0
L2.9375 0
L24.2188 27.2031
L3.125 54.5469
L14.7031 54.5469
L30.0781 33.9375
L45.5156 54.5469
L56.25 54.5469
L34.8125 27.6875
z
" id="Verdana-78"/>
      <path d="
M57.0312 27.6875
Q57.0312 20.8438 55.0938 15.375
Q53.1719 9.90625 49.9062 6.20312
Q46.4375 2.34375 42.2812 0.40625
Q38.1406 -1.51562 33.1562 -1.51562
Q28.5156 -1.51562 25.0469 -0.40625
Q21.5781 0.6875 18.2188 2.54688
L17.625 0
L9.03125 0
L9.03125 75.9844
L18.2188 75.9844
L18.2188 48.8281
Q22.0781 52 26.4219 54.0312
Q30.7656 56.0625 36.1875 56.0625
Q45.8438 56.0625 51.4375 48.6406
Q57.0312 41.2188 57.0312 27.6875
M47.5625 27.4375
Q47.5625 37.2031 44.3281 42.25
Q41.1094 47.3125 33.9375 47.3125
Q29.9375 47.3125 25.8281 45.5781
Q21.7344 43.8438 18.2188 41.1094
L18.2188 9.85938
Q22.125 8.10938 24.9219 7.42188
Q27.7344 6.73438 31.2969 6.73438
Q38.9219 6.73438 43.2344 11.7344
Q47.5625 16.75 47.5625 27.4375" id="Verdana-62"/>
      <path d="
M37.3594 0.484375
Q34.7656 -0.203125 31.7031 -0.640625
Q28.6562 -1.07812 26.2656 -1.07812
Q17.9219 -1.07812 13.5781 3.40625
Q9.23438 7.90625 9.23438 17.8281
L9.23438 46.8281
L3.03125 46.8281
L3.03125 54.5469
L9.23438 54.5469
L9.23438 70.2188
L18.4062 70.2188
L18.4062 54.5469
L37.3594 54.5469
L37.3594 46.8281
L18.4062 46.8281
L18.4062 21.9688
Q18.4062 17.6719 18.5938 15.25
Q18.7969 12.8438 19.9688 10.75
Q21.0469 8.79688 22.9219 7.89062
Q24.8125 6.98438 28.6562 6.98438
Q30.9062 6.98438 33.3438 7.64062
Q35.7969 8.29688 36.8594 8.73438
L37.3594 8.73438
z
" id="Verdana-74"/>
      <path d="
M26.0312 63.6719
L15.6719 63.6719
L15.6719 73.1875
L26.0312 73.1875
z

M25.4375 -1.3125
Q25.4375 -10.8906 20.5469 -15.7656
Q15.6719 -20.6562 7.46875 -20.6562
Q5.51562 -20.6562 2.3125 -20.2656
Q-0.875 -19.875 -3.03125 -19.2812
L-3.03125 -10.5469
L-2.54688 -10.5469
Q-1.17188 -11.0781 1.14062 -11.7656
Q3.46875 -12.4531 5.67188 -12.4531
Q9.1875 -12.4531 11.3281 -11.4688
Q13.4844 -10.5 14.5469 -8.54688
Q15.625 -6.59375 15.9375 -3.82812
Q16.2656 -1.07812 16.2656 2.875
L16.2656 46.8281
L4.89062 46.8281
L4.89062 54.5469
L25.4375 54.5469
z
" id="Verdana-6a"/>
      <path d="
M49.3594 3.42188
Q44.7812 1.21875 40.6562 0
Q36.5312 -1.21875 31.8906 -1.21875
Q25.9844 -1.21875 21.0469 0.515625
Q16.1094 2.25 12.5938 5.76562
Q9.03125 9.28125 7.07812 14.6406
Q5.125 20.0156 5.125 27.2031
Q5.125 40.5781 12.4688 48.1875
Q19.8281 55.8125 31.8906 55.8125
Q36.5781 55.8125 41.0938 54.4844
Q45.6094 53.1719 49.3594 51.2656
L49.3594 41.0625
L48.875 41.0625
Q44.6719 44.3438 40.2031 46.0938
Q35.75 47.8594 31.5 47.8594
Q23.6875 47.8594 19.1719 42.6094
Q14.6562 37.3594 14.6562 27.2031
Q14.6562 17.3281 19.0625 12.0312
Q23.4844 6.73438 31.5 6.73438
Q34.2812 6.73438 37.1562 7.46875
Q40.0469 8.20312 42.3281 9.375
Q44.3438 10.4062 46.0938 11.5469
Q47.8594 12.7031 48.875 13.5312
L49.3594 13.5312
z
" id="Verdana-63"/>
      <path d="
M55.5156 27.25
Q55.5156 13.9219 48.6719 6.20312
Q41.8438 -1.51562 30.375 -1.51562
Q18.7969 -1.51562 11.9844 6.20312
Q5.17188 13.9219 5.17188 27.25
Q5.17188 40.5781 11.9844 48.3125
Q18.7969 56.0625 30.375 56.0625
Q41.8438 56.0625 48.6719 48.3125
Q55.5156 40.5781 55.5156 27.25
M46.0469 27.25
Q46.0469 37.8438 41.8906 42.9844
Q37.75 48.1406 30.375 48.1406
Q22.9062 48.1406 18.7812 42.9844
Q14.6562 37.8438 14.6562 27.25
Q14.6562 17 18.7969 11.6875
Q22.9531 6.39062 30.375 6.39062
Q37.7031 6.39062 41.875 11.6406
Q46.0469 16.8906 46.0469 27.25" id="Verdana-6f"/>
      <path d="
M56.2031 54.5469
L34.125 0
L24.9062 0
L2.98438 54.5469
L12.9375 54.5469
L29.8281 11.1406
L46.5781 54.5469
z
" id="Verdana-76"/>
      <path d="
M63.9688 64.3594
Q68.4062 59.4688 70.7656 52.3906
Q73.1406 45.3125 73.1406 36.3281
Q73.1406 27.3438 70.7188 20.2344
Q68.3125 13.1406 63.9688 8.40625
Q59.4688 3.46875 53.3438 0.96875
Q47.2188 -1.51562 39.3594 -1.51562
Q31.6875 -1.51562 25.4062 1.01562
Q19.1406 3.5625 14.75 8.40625
Q10.3594 13.2344 7.98438 20.2656
Q5.60938 27.2969 5.60938 36.3281
Q5.60938 45.2188 7.95312 52.2656
Q10.2969 59.3281 14.7969 64.3594
Q19.0938 69.1406 25.4688 71.6719
Q31.8438 74.2188 39.3594 74.2188
Q47.1719 74.2188 53.3906 71.6562
Q59.625 69.0938 63.9688 64.3594
M63.0938 36.3281
Q63.0938 50.4844 56.7344 58.1719
Q50.3906 65.875 39.4062 65.875
Q28.3281 65.875 22 58.1719
Q15.6719 50.4844 15.6719 36.3281
Q15.6719 22.0156 22.1094 14.4219
Q28.5625 6.84375 39.4062 6.84375
Q50.25 6.84375 56.6719 14.4219
Q63.0938 22.0156 63.0938 36.3281" id="Verdana-4f"/>
      <path d="
M38.375 67.0938
L37.8906 67.0938
Q36.375 67.5312 33.9375 67.9844
Q31.5 68.4531 29.6406 68.4531
Q23.7344 68.4531 21.0625 65.8438
Q18.4062 63.2344 18.4062 56.3906
L18.4062 54.5469
L34.9688 54.5469
L34.9688 46.8281
L18.7031 46.8281
L18.7031 0
L9.51562 0
L9.51562 46.8281
L3.32812 46.8281
L3.32812 54.5469
L9.51562 54.5469
L9.51562 56.3438
Q9.51562 66.0625 14.3438 71.2656
Q19.1875 76.4688 28.3281 76.4688
Q31.3906 76.4688 33.8594 76.1719
Q36.3281 75.875 38.375 75.4844
z
" id="Verdana-66"/>
      <path d="
M48 15.7188
Q48 8.25 41.8125 3.46875
Q35.6406 -1.3125 24.9531 -1.3125
Q18.8906 -1.3125 13.8438 0.125
Q8.79688 1.5625 5.375 3.26562
L5.375 13.5781
L5.85938 13.5781
Q10.2031 10.2969 15.5156 8.375
Q20.8438 6.45312 25.7344 6.45312
Q31.7812 6.45312 35.2031 8.40625
Q38.625 10.3594 38.625 14.5469
Q38.625 17.7812 36.7656 19.4375
Q34.9062 21.0938 29.6406 22.2656
Q27.6875 22.7031 24.5312 23.2812
Q21.3906 23.875 18.7969 24.5625
Q11.625 26.4688 8.60938 30.1562
Q5.60938 33.8438 5.60938 39.2031
Q5.60938 42.5781 7 45.5469
Q8.40625 48.5312 11.2344 50.875
Q13.9688 53.1719 18.1875 54.5156
Q22.4062 55.8594 27.6406 55.8594
Q32.5156 55.8594 37.5156 54.6562
Q42.5312 53.4688 45.8438 51.7656
L45.8438 41.9375
L45.3594 41.9375
Q41.8438 44.5312 36.8125 46.3125
Q31.7812 48.0938 26.9531 48.0938
Q21.9219 48.0938 18.4531 46.1562
Q14.9844 44.2344 14.9844 40.4375
Q14.9844 37.0625 17.0938 35.3594
Q19.1406 33.6406 23.7344 32.5625
Q26.2656 31.9844 29.4062 31.3906
Q32.5625 30.8125 34.6719 30.3281
Q41.0625 28.8594 44.5312 25.2969
Q48 21.6875 48 15.7188" id="Verdana-73"/>
      <path d="
M54.6875 26.3125
L14.5 26.3125
Q14.5 21.2969 16.0156 17.5469
Q17.5312 13.8125 20.1719 11.4219
Q22.7031 9.07812 26.1875 7.90625
Q29.6875 6.73438 33.8906 6.73438
Q39.4531 6.73438 45.0938 8.95312
Q50.7344 11.1875 53.125 13.3281
L53.6094 13.3281
L53.6094 3.32812
Q48.9688 1.375 44.1406 0.046875
Q39.3125 -1.26562 33.9844 -1.26562
Q20.4062 -1.26562 12.7812 6.07812
Q5.17188 13.4219 5.17188 26.9531
Q5.17188 40.3281 12.4688 48.1875
Q19.7812 56.0625 31.6875 56.0625
Q42.7188 56.0625 48.7031 49.6094
Q54.6875 43.1719 54.6875 31.2969
z

M45.75 33.3438
Q45.7031 40.5781 42.1094 44.5312
Q38.5312 48.4844 31.2031 48.4844
Q23.8281 48.4844 19.4531 44.1406
Q15.0938 39.7969 14.5 33.3438
z
" id="Verdana-65"/>
      <path d="
M54.25 0
L45.0625 0
L45.0625 6.0625
Q40.4375 2.39062 36.1875 0.4375
Q31.9375 -1.51562 26.8125 -1.51562
Q18.2188 -1.51562 13.4219 3.73438
Q8.64062 8.98438 8.64062 19.1406
L8.64062 54.5469
L17.8281 54.5469
L17.8281 23.4844
Q17.8281 19.3438 18.2188 16.375
Q18.6094 13.4219 19.875 11.3281
Q21.1875 9.1875 23.2812 8.20312
Q25.3906 7.23438 29.3906 7.23438
Q32.9531 7.23438 37.1719 9.07812
Q41.4062 10.9375 45.0625 13.8125
L45.0625 54.5469
L54.25 54.5469
z
" id="Verdana-75"/>
      <path id="Verdana-20"/>
     </defs>
     <g transform="translate(206.5078125 418.509375)scale(0.12 -0.12)">
      <use xlink:href="#Verdana-4f"/>
      <use x="78.7109375" xlink:href="#Verdana-62"/>
      <use x="141.015625" xlink:href="#Verdana-6a"/>
      <use x="175.439453125" xlink:href="#Verdana-65"/>
      <use x="235.009765625" xlink:href="#Verdana-63"/>
      <use x="287.109375" xlink:href="#Verdana-74"/>
      <use x="326.513671875" xlink:href="#Verdana-69"/>
      <use x="353.955078125" xlink:href="#Verdana-76"/>
      <use x="412.259765625" xlink:href="#Verdana-65"/>
      <use x="471.830078125" xlink:href="#Verdana-20"/>
      <use x="506.986328125" xlink:href="#Verdana-66"/>
      <use x="542.142578125" xlink:href="#Verdana-75"/>
      <use x="605.423828125" xlink:href="#Verdana-6e"/>
      <use x="668.705078125" xlink:href="#Verdana-63"/>
      <use x="720.8046875" xlink:href="#Verdana-74"/>
      <use x="760.208984375" xlink:href="#Verdana-69"/>
      <use x="787.650390625" xlink:href="#Verdana-6f"/>
      <use x="848.34375" xlink:href="#Verdana-6e"/>
      <use x="911.625" xlink:href="#Verdana-20"/>
      <use x="946.78125" xlink:href="#Verdana-65"/>
      <use x="1006.3515625" xlink:href="#Verdana-78"/>
      <use x="1064.40625" xlink:href="#Verdana-65"/>
      <use x="1123.9765625" xlink:href="#Verdana-63"/>
      <use x="1176.076171875" xlink:href="#Verdana-74"/>
      <use x="1215.48046875" xlink:href="#Verdana-75"/>
      <use x="1278.76171875" xlink:href="#Verdana-69"/>
      <use x="1306.203125" xlink:href="#Verdana-6f"/>
      <use x="1366.896484375" xlink:href="#Verdana-6e"/>
      <use x="1430.177734375" xlink:href="#Verdana-73"/>
     </g>
    </g>
   </g>
   <g id="matplotlib.axis_2">
    <g id="ytick_1">
     <g id="line2d_18">
      <defs>
       <path d="
M0 0
L4 0" id="md7965d1ba0" style="stroke:#000000;stroke-width:0.5;"/>
      </defs>
      <g>
       <use style="stroke:#000000;stroke-width:0.5;" x="72.0" xlink:href="#md7965d1ba0" y="388.8"/>
      </g>
     </g>
     <g id="line2d_19">
      <defs>
       <path d="
M0 0
L-4 0" id="md9a1c1a7cd" style="stroke:#000000;stroke-width:0.5;"/>
      </defs>
      <g>
       <use style="stroke:#000000;stroke-width:0.5;" x="518.4" xlink:href="#md9a1c1a7cd" y="388.8"/>
      </g>
     </g>
     <g id="text_8">
      <!-- 0.0 -->
      <defs>
       <path d="
M24.0312 0
L12.3594 0
L12.3594 13.9219
L24.0312 13.9219
z
" id="Verdana-2e"/>
      </defs>
      <g transform="translate(49.97 392.1515625)scale(0.12 -0.12)">
       <use xlink:href="#Verdana-30"/>
       <use x="63.57421875" xlink:href="#Verdana-2e"/>
       <use x="99.951171875" xlink:href="#Verdana-30"/>
      </g>
     </g>
    </g>
    <g id="ytick_2">
     <g id="line2d_20">
      <g>
       <use style="stroke:#000000;stroke-width:0.5;" x="72.0" xlink:href="#md7965d1ba0" y="345.6"/>
      </g>
     </g>
     <g id="line2d_21">
      <g>
       <use style="stroke:#000000;stroke-width:0.5;" x="518.4" xlink:href="#md9a1c1a7cd" y="345.6"/>
      </g>
     </g>
     <g id="text_9">
      <!-- 0.1 -->
      <g transform="translate(50.455625 348.9515625)scale(0.12 -0.12)">
       <use xlink:href="#Verdana-30"/>
       <use x="63.57421875" xlink:href="#Verdana-2e"/>
       <use x="99.951171875" xlink:href="#Verdana-31"/>
      </g>
     </g>
    </g>
    <g id="ytick_3">
     <g id="line2d_22">
      <g>
       <use style="stroke:#000000;stroke-width:0.5;" x="72.0" xlink:href="#md7965d1ba0" y="302.4"/>
      </g>
     </g>
     <g id="line2d_23">
      <g>
       <use style="stroke:#000000;stroke-width:0.5;" x="518.4" xlink:href="#md9a1c1a7cd" y="302.4"/>
      </g>
     </g>
     <g id="text_10">
      <!-- 0.2 -->
      <g transform="translate(49.95875 305.7515625)scale(0.12 -0.12)">
       <use xlink:href="#Verdana-30"/>
       <use x="63.57421875" xlink:href="#Verdana-2e"/>
       <use x="99.951171875" xlink:href="#Verdana-32"/>
      </g>
     </g>
    </g>
    <g id="ytick_4">
     <g id="line2d_24">
      <g>
       <use style="stroke:#000000;stroke-width:0.5;" x="72.0" xlink:href="#md7965d1ba0" y="259.2"/>
      </g>
     </g>
     <g id="line2d_25">
      <g>
       <use style="stroke:#000000;stroke-width:0.5;" x="518.4" xlink:href="#md9a1c1a7cd" y="259.2"/>
      </g>
     </g>
     <g id="text_11">
      <!-- 0.3 -->
      <g transform="translate(50.080625 262.5515625)scale(0.12 -0.12)">
       <use xlink:href="#Verdana-30"/>
       <use x="63.57421875" xlink:href="#Verdana-2e"/>
       <use x="99.951171875" xlink:href="#Verdana-33"/>
      </g>
     </g>
    </g>
    <g id="ytick_5">
     <g id="line2d_26">
      <g>
       <use style="stroke:#000000;stroke-width:0.5;" x="72.0" xlink:href="#md7965d1ba0" y="216.0"/>
      </g>
     </g>
     <g id="line2d_27">
      <g>
       <use style="stroke:#000000;stroke-width:0.5;" x="518.4" xlink:href="#md9a1c1a7cd" y="216.0"/>
      </g>
     </g>
     <g id="text_12">
      <!-- 0.4 -->
      <g transform="translate(49.76 219.3515625)scale(0.12 -0.12)">
       <use xlink:href="#Verdana-30"/>
       <use x="63.57421875" xlink:href="#Verdana-2e"/>
       <use x="99.951171875" xlink:href="#Verdana-34"/>
      </g>
     </g>
    </g>
    <g id="ytick_6">
     <g id="line2d_28">
      <g>
       <use style="stroke:#000000;stroke-width:0.5;" x="72.0" xlink:href="#md7965d1ba0" y="172.8"/>
      </g>
     </g>
     <g id="line2d_29">
      <g>
       <use style="stroke:#000000;stroke-width:0.5;" x="518.4" xlink:href="#md9a1c1a7cd" y="172.8"/>
      </g>
     </g>
     <g id="text_13">
      <!-- 0.5 -->
      <g transform="translate(50.028125 176.1515625)scale(0.12 -0.12)">
       <use xlink:href="#Verdana-30"/>
       <use x="63.57421875" xlink:href="#Verdana-2e"/>
       <use x="99.951171875" xlink:href="#Verdana-35"/>
      </g>
     </g>
    </g>
    <g id="ytick_7">
     <g id="line2d_30">
      <g>
       <use style="stroke:#000000;stroke-width:0.5;" x="72.0" xlink:href="#md7965d1ba0" y="129.6"/>
      </g>
     </g>
     <g id="line2d_31">
      <g>
       <use style="stroke:#000000;stroke-width:0.5;" x="518.4" xlink:href="#md9a1c1a7cd" y="129.6"/>
      </g>
     </g>
     <g id="text_14">
      <!-- 0.6 -->
      <defs>
       <path d="
M58.1562 23.5781
Q58.1562 12.5 50.8594 5.48438
Q43.5625 -1.51562 32.9531 -1.51562
Q27.5938 -1.51562 23.1875 0.140625
Q18.7969 1.8125 15.4375 5.07812
Q11.2344 9.125 8.95312 15.8125
Q6.6875 22.5156 6.6875 31.9375
Q6.6875 41.6094 8.76562 49.0781
Q10.8438 56.5469 15.375 62.3594
Q19.6719 67.875 26.4531 70.9688
Q33.25 74.0781 42.2812 74.0781
Q45.1719 74.0781 47.125 73.8281
Q49.0781 73.5781 51.0781 72.9531
L51.0781 63.625
L50.5938 63.625
Q49.2188 64.3594 46.4531 65.0156
Q43.7031 65.6719 40.8281 65.6719
Q30.3281 65.6719 24.0781 59.1094
Q17.8281 52.5469 16.7969 41.3594
Q20.9062 43.8438 24.875 45.1406
Q28.8594 46.4375 34.0781 46.4375
Q38.7188 46.4375 42.25 45.5781
Q45.7969 44.7344 49.5156 42.1406
Q53.8125 39.1562 55.9844 34.6094
Q58.1562 30.0781 58.1562 23.5781
M48.25 23.1875
Q48.25 27.7344 46.9062 30.7031
Q45.5625 33.6875 42.4844 35.8906
Q40.2344 37.4531 37.5 37.9375
Q34.7656 38.4219 31.7812 38.4219
Q27.6406 38.4219 24.0781 37.4375
Q20.5156 36.4688 16.75 34.4219
Q16.6562 33.3438 16.5938 32.3438
Q16.5469 31.3438 16.5469 29.8281
Q16.5469 22.125 18.1406 17.6562
Q19.7344 13.1875 22.5156 10.5938
Q24.75 8.45312 27.3594 7.45312
Q29.9844 6.45312 33.0625 6.45312
Q40.1406 6.45312 44.1875 10.7656
Q48.25 15.0938 48.25 23.1875" id="Verdana-36"/>
      </defs>
      <g transform="translate(49.829375 132.9515625)scale(0.12 -0.12)">
       <use xlink:href="#Verdana-30"/>
       <use x="63.57421875" xlink:href="#Verdana-2e"/>
       <use x="99.951171875" xlink:href="#Verdana-36"/>
      </g>
     </g>
    </g>
    <g id="ytick_8">
     <g id="line2d_32">
      <g>
       <use style="stroke:#000000;stroke-width:0.5;" x="72.0" xlink:href="#md7965d1ba0" y="86.4"/>
      </g>
     </g>
     <g id="line2d_33">
      <g>
       <use style="stroke:#000000;stroke-width:0.5;" x="518.4" xlink:href="#md9a1c1a7cd" y="86.4"/>
      </g>
     </g>
     <g id="text_15">
      <!-- 0.7 -->
      <defs>
       <path d="
M57.2812 61.8125
L24.3594 0
L13.9219 0
L48.9219 64.1562
L7.51562 64.1562
L7.51562 72.7031
L57.2812 72.7031
z
" id="Verdana-37"/>
      </defs>
      <g transform="translate(49.934375 89.7515625)scale(0.12 -0.12)">
       <use xlink:href="#Verdana-30"/>
       <use x="63.57421875" xlink:href="#Verdana-2e"/>
       <use x="99.951171875" xlink:href="#Verdana-37"/>
      </g>
     </g>
    </g>
    <g id="ytick_9">
     <g id="line2d_34">
      <g>
       <use style="stroke:#000000;stroke-width:0.5;" x="72.0" xlink:href="#md7965d1ba0" y="43.2"/>
      </g>
     </g>
     <g id="line2d_35">
      <g>
       <use style="stroke:#000000;stroke-width:0.5;" x="518.4" xlink:href="#md9a1c1a7cd" y="43.2"/>
      </g>
     </g>
     <g id="text_16">
      <!-- 0.8 -->
      <defs>
       <path d="
M57.625 20.2656
Q57.625 10.8438 50.2656 4.59375
Q42.9219 -1.65625 31.7812 -1.65625
Q19.9688 -1.65625 12.9531 4.4375
Q5.95312 10.5469 5.95312 20.0625
Q5.95312 26.125 9.46875 31.0312
Q12.9844 35.9375 19.3906 38.8125
L19.3906 39.1094
Q13.5312 42.2344 10.7188 45.9375
Q7.90625 49.6562 7.90625 55.2188
Q7.90625 63.4219 14.6406 68.8906
Q21.3906 74.3594 31.7812 74.3594
Q42.6719 74.3594 49.1719 69.1406
Q55.6719 63.9219 55.6719 55.8594
Q55.6719 50.9219 52.5938 46.1562
Q49.5156 41.4062 43.5625 38.7188
L43.5625 38.4219
Q50.3906 35.5 54 31.2031
Q57.625 26.9062 57.625 20.2656
M46.0469 55.7656
Q46.0469 60.9844 42.0156 64.0781
Q37.9844 67.1875 31.7344 67.1875
Q25.5938 67.1875 21.6562 64.25
Q17.7188 61.3281 17.7188 56.3438
Q17.7188 52.8281 19.7031 50.2656
Q21.6875 47.7031 25.6875 45.7031
Q27.4844 44.8281 30.875 43.4062
Q34.2812 42 37.5 41.0625
Q42.3281 44.2812 44.1875 47.75
Q46.0469 51.2188 46.0469 55.7656
M47.5625 19.3438
Q47.5625 23.8281 45.5781 26.5312
Q43.6094 29.25 37.8438 31.9844
Q35.5469 33.0625 32.8125 33.9844
Q30.0781 34.9062 25.5312 36.5781
Q21.1406 34.1875 18.4844 30.0781
Q15.8281 25.9844 15.8281 20.7969
Q15.8281 14.2031 20.3594 9.90625
Q24.9062 5.60938 31.8906 5.60938
Q39.0156 5.60938 43.2812 9.26562
Q47.5625 12.9375 47.5625 19.3438" id="Verdana-38"/>
      </defs>
      <g transform="translate(49.893125 46.5515625)scale(0.12 -0.12)">
       <use xlink:href="#Verdana-30"/>
       <use x="63.57421875" xlink:href="#Verdana-2e"/>
       <use x="99.951171875" xlink:href="#Verdana-38"/>
      </g>
     </g>
    </g>
    <g id="text_17">
     <!-- Data Profile T-0.0000001 -->
     <defs>
      <path d="
M57.3281 50.7344
Q57.3281 45.9062 55.6406 41.7656
Q53.9531 37.6406 50.9219 34.625
Q47.1719 30.8594 42.0469 28.9688
Q36.9219 27.0938 29.1094 27.0938
L19.4375 27.0938
L19.4375 0
L9.76562 0
L9.76562 72.7031
L29.5 72.7031
Q36.0312 72.7031 40.5781 71.6094
Q45.125 70.5156 48.6406 68.1719
Q52.7812 65.375 55.0469 61.2188
Q57.3281 57.0781 57.3281 50.7344
M47.2656 50.4844
Q47.2656 54.25 45.9375 57.0312
Q44.625 59.8125 41.9375 61.5781
Q39.5938 63.0938 36.5938 63.75
Q33.5938 64.4062 29 64.4062
L19.4375 64.4062
L19.4375 35.3594
L27.5938 35.3594
Q33.4531 35.3594 37.1094 36.4062
Q40.7656 37.4531 43.0625 39.75
Q45.3594 42.0938 46.3125 44.6719
Q47.2656 47.2656 47.2656 50.4844" id="Verdana-50"/>
      <path d="
M37.9375 27.3906
L7.46875 27.3906
L7.46875 36.2344
L37.9375 36.2344
z
" id="Verdana-2d"/>
      <path d="
M18.3125 0
L9.125 0
L9.125 75.9844
L18.3125 75.9844
z
" id="Verdana-6c"/>
      <path d="
M43.0625 44.5312
L42.5781 44.5312
Q40.5312 45.0156 38.5938 45.2344
Q36.6719 45.4531 34.0312 45.4531
Q29.7812 45.4531 25.8281 43.5781
Q21.875 41.7031 18.2188 38.7188
L18.2188 0
L9.03125 0
L9.03125 54.5469
L18.2188 54.5469
L18.2188 46.4844
Q23.6875 50.875 27.8594 52.7031
Q32.0312 54.5469 36.375 54.5469
Q38.7656 54.5469 39.8438 54.4219
Q40.9219 54.2969 43.0625 53.9531
z
" id="Verdana-72"/>
      <path d="
M71.1875 36.2812
Q71.1875 26.375 66.8594 18.3125
Q62.5469 10.25 55.375 5.8125
Q50.3906 2.73438 44.2656 1.35938
Q38.1406 0 28.125 0
L9.76562 0
L9.76562 72.7031
L27.9375 72.7031
Q38.5781 72.7031 44.8438 71.1562
Q51.125 69.625 55.4688 66.9375
Q62.8906 62.3125 67.0312 54.5938
Q71.1875 46.875 71.1875 36.2812
M61.0781 36.4219
Q61.0781 44.9688 58.0938 50.8281
Q55.125 56.6875 49.2188 60.0625
Q44.9219 62.5 40.0781 63.4531
Q35.25 64.4062 28.5156 64.4062
L19.4375 64.4062
L19.4375 8.29688
L28.5156 8.29688
Q35.5 8.29688 40.7031 9.32812
Q45.9062 10.3594 50.25 13.1406
Q55.6719 16.6094 58.375 22.2656
Q61.0781 27.9375 61.0781 36.4219" id="Verdana-44"/>
      <path d="
M51.4219 0
L42.2812 0
L42.2812 5.8125
Q41.0625 4.98438 38.9844 3.48438
Q36.9219 2 34.9688 1.125
Q32.6719 0 29.6875 -0.75
Q26.7031 -1.51562 22.7031 -1.51562
Q15.3281 -1.51562 10.2031 3.35938
Q5.07812 8.25 5.07812 15.8281
Q5.07812 22.0156 7.73438 25.8438
Q10.4062 29.6875 15.3281 31.8906
Q20.3125 34.0781 27.2969 34.8594
Q34.2812 35.6406 42.2812 36.0312
L42.2812 37.4531
Q42.2812 40.5781 41.1875 42.625
Q40.0938 44.6719 38.0312 45.8438
Q36.0781 46.9688 33.3438 47.3594
Q30.6094 47.75 27.6406 47.75
Q24.0312 47.75 19.5781 46.7969
Q15.1406 45.8438 10.4062 44.0469
L9.90625 44.0469
L9.90625 53.375
Q12.5938 54.1094 17.6719 54.9844
Q22.75 55.8594 27.6875 55.8594
Q33.4531 55.8594 37.7188 54.9062
Q42 53.9531 45.125 51.6562
Q48.1875 49.4219 49.7969 45.8438
Q51.4219 42.2812 51.4219 37.0156
z

M42.2812 13.4219
L42.2812 28.6094
Q38.0938 28.375 32.3906 27.875
Q26.7031 27.3906 23.3906 26.4688
Q19.4375 25.3438 16.9844 22.9688
Q14.5469 20.6094 14.5469 16.4531
Q14.5469 11.7656 17.375 9.39062
Q20.2188 7.03125 26.0312 7.03125
Q30.8594 7.03125 34.8594 8.90625
Q38.875 10.7969 42.2812 13.4219" id="Verdana-61"/>
      <path d="
M61.625 64.1094
L35.6406 64.1094
L35.6406 0
L25.9844 0
L25.9844 64.1094
L0 64.1094
L0 72.7031
L61.625 72.7031
z
" id="Verdana-54"/>
     </defs>
     <g transform="translate(42.345 291.2503125)rotate(-90.0)scale(0.12 -0.12)">
      <use xlink:href="#Verdana-44"/>
      <use x="77.05078125" xlink:href="#Verdana-61"/>
      <use x="137.109375" xlink:href="#Verdana-74"/>
      <use x="176.513671875" xlink:href="#Verdana-61"/>
      <use x="236.572265625" xlink:href="#Verdana-20"/>
      <use x="271.728515625" xlink:href="#Verdana-50"/>
      <use x="332.03125" xlink:href="#Verdana-72"/>
      <use x="374.70703125" xlink:href="#Verdana-6f"/>
      <use x="435.400390625" xlink:href="#Verdana-66"/>
      <use x="470.556640625" xlink:href="#Verdana-69"/>
      <use x="497.998046875" xlink:href="#Verdana-6c"/>
      <use x="525.439453125" xlink:href="#Verdana-65"/>
      <use x="585.009765625" xlink:href="#Verdana-20"/>
      <use x="620.166015625" xlink:href="#Verdana-54"/>
      <use x="674.412109375" xlink:href="#Verdana-2d"/>
      <use x="719.822265625" xlink:href="#Verdana-30"/>
      <use x="783.396484375" xlink:href="#Verdana-2e"/>
      <use x="819.7734375" xlink:href="#Verdana-30"/>
      <use x="883.34765625" xlink:href="#Verdana-30"/>
      <use x="946.921875" xlink:href="#Verdana-30"/>
      <use x="1010.49609375" xlink:href="#Verdana-30"/>
      <use x="1074.0703125" xlink:href="#Verdana-30"/>
      <use x="1137.64453125" xlink:href="#Verdana-30"/>
      <use x="1201.21875" xlink:href="#Verdana-31"/>
     </g>
    </g>
   </g>
   <g id="patch_3">
    <path d="
M72 388.8
L518.4 388.8" style="fill:none;stroke:#000000;"/>
   </g>
   <g id="patch_4">
    <path d="
M518.4 388.8
L518.4 43.2" style="fill:none;stroke:#000000;"/>
   </g>
   <g id="patch_5">
    <path d="
M72 388.8
L72 43.2" style="fill:none;stroke:#000000;"/>
   </g>
   <g id="patch_6">
    <path d="
M72 43.2
L518.4 43.2" style="fill:none;stroke:#000000;"/>
   </g>
   <g id="text_18">
    <!-- Shubert01 Data Profile T-0.0000001 -->
    <defs>
     <path d="
M62.5938 20.75
Q62.5938 16.5 60.6094 12.3438
Q58.6406 8.20312 55.0781 5.32812
Q51.1719 2.20312 45.9688 0.4375
Q40.7656 -1.3125 33.4531 -1.3125
Q25.5938 -1.3125 19.3125 0.140625
Q13.0312 1.60938 6.54688 4.5
L6.54688 16.6094
L7.23438 16.6094
Q12.75 12.0156 19.9688 9.51562
Q27.2031 7.03125 33.5469 7.03125
Q42.5312 7.03125 47.5312 10.3906
Q52.5469 13.7656 52.5469 19.3906
Q52.5469 24.2188 50.1719 26.5156
Q47.7969 28.8125 42.9688 30.0781
Q39.3125 31.0625 35.0312 31.6875
Q30.7656 32.3281 25.9844 33.2969
Q16.3125 35.3594 11.6406 40.3125
Q6.98438 45.2656 6.98438 53.2188
Q6.98438 62.3594 14.6875 68.1875
Q22.4062 74.0312 34.2812 74.0312
Q41.9375 74.0312 48.3281 72.5625
Q54.7344 71.0938 59.6719 68.9531
L59.6719 57.5156
L58.9844 57.5156
Q54.8281 61.0312 48.0625 63.3438
Q41.3125 65.6719 34.2344 65.6719
Q26.4688 65.6719 21.75 62.4531
Q17.0469 59.2344 17.0469 54.1562
Q17.0469 49.6094 19.3906 47.0156
Q21.7344 44.4375 27.6406 43.0625
Q30.7656 42.3906 36.5156 41.4062
Q42.2812 40.4375 46.2969 39.4062
Q54.3906 37.25 58.4844 32.9062
Q62.5938 28.5625 62.5938 20.75" id="Verdana-53"/>
     <path d="
M54.6406 0
L45.4531 0
L45.4531 31.0625
Q45.4531 34.8125 45.0156 38.1094
Q44.5781 41.4062 43.4062 43.2656
Q42.1875 45.3125 39.8906 46.3125
Q37.5938 47.3125 33.9375 47.3125
Q30.1719 47.3125 26.0625 45.4531
Q21.9688 43.6094 18.2188 40.7188
L18.2188 0
L9.03125 0
L9.03125 75.9844
L18.2188 75.9844
L18.2188 48.4844
Q22.5156 52.0469 27.0938 54.0469
Q31.6875 56.0625 36.5312 56.0625
Q45.3594 56.0625 50 50.7344
Q54.6406 45.4062 54.6406 35.4062
z
" id="Verdana-68"/>
    </defs>
    <g transform="translate(164.493 38.2)scale(0.144 -0.144)">
     <use xlink:href="#Verdana-53"/>
     <use x="68.359375" xlink:href="#Verdana-68"/>
     <use x="131.640625" xlink:href="#Verdana-75"/>
     <use x="194.921875" xlink:href="#Verdana-62"/>
     <use x="257.2265625" xlink:href="#Verdana-65"/>
     <use x="316.796875" xlink:href="#Verdana-72"/>
     <use x="359.47265625" xlink:href="#Verdana-74"/>
     <use x="398.876953125" xlink:href="#Verdana-30"/>
     <use x="462.451171875" xlink:href="#Verdana-31"/>
     <use x="526.025390625" xlink:href="#Verdana-20"/>
     <use x="561.181640625" xlink:href="#Verdana-44"/>
     <use x="638.232421875" xlink:href="#Verdana-61"/>
     <use x="698.291015625" xlink:href="#Verdana-74"/>
     <use x="737.6953125" xlink:href="#Verdana-61"/>
     <use x="797.75390625" xlink:href="#Verdana-20"/>
     <use x="832.91015625" xlink:href="#Verdana-50"/>
     <use x="893.212890625" xlink:href="#Verdana-72"/>
     <use x="935.888671875" xlink:href="#Verdana-6f"/>
     <use x="996.58203125" xlink:href="#Verdana-66"/>
     <use x="1031.73828125" xlink:href="#Verdana-69"/>
     <use x="1059.1796875" xlink:href="#Verdana-6c"/>
     <use x="1086.62109375" xlink:href="#Verdana-65"/>
     <use x="1146.19140625" xlink:href="#Verdana-20"/>
     <use x="1181.34765625" xlink:href="#Verdana-54"/>
     <use x="1235.59375" xlink:href="#Verdana-2d"/>
     <use x="1281.00390625" xlink:href="#Verdana-30"/>
     <use x="1344.578125" xlink:href="#Verdana-2e"/>
     <use x="1380.955078125" xlink:href="#Verdana-30"/>
     <use x="1444.529296875" xlink:href="#Verdana-30"/>
     <use x="1508.103515625" xlink:href="#Verdana-30"/>
     <use x="1571.677734375" xlink:href="#Verdana-30"/>
     <use x="1635.251953125" xlink:href="#Verdana-30"/>
     <use x="1698.826171875" xlink:href="#Verdana-30"/>
     <use x="1762.400390625" xlink:href="#Verdana-31"/>
    </g>
   </g>
   <g id="legend_1">
    <g id="patch_7">
     <path d="
M79.2 159.919
L183.22 159.919
L183.22 50.4
L79.2 50.4
L79.2 159.919
z
" style="fill:#ffffff;stroke:#000000;"/>
    </g>
    <g id="line2d_36">
     <path d="
M89.28 62.0617
L109.44 62.0617" style="fill:none;stroke:#0000ff;stroke-dasharray:6.000000,2.000000;stroke-dashoffset:0.0;"/>
    </g>
    <g id="line2d_37"/>
    <g id="text_19">
     <!-- AMPGO -->
     <defs>
      <path d="
M67.0938 0
L56.7812 0
L49.6562 20.2656
L18.2188 20.2656
L11.0781 0
L1.26562 0
L27.7344 72.7031
L40.625 72.7031
z

M46.6875 28.5625
L33.9375 64.2656
L21.1406 28.5625
z
" id="Verdana-41"/>
      <path d="
M74.5156 0
L64.8438 0
L64.8438 62.6406
L44.625 20.0156
L38.875 20.0156
L18.7969 62.6406
L18.7969 0
L9.76562 0
L9.76562 72.7031
L22.9531 72.7031
L42.3281 32.2344
L61.0781 72.7031
L74.5156 72.7031
z
" id="Verdana-4d"/>
      <path d="
M70.4062 5.375
Q64.4531 2.64062 57.3906 0.609375
Q50.3438 -1.42188 43.75 -1.42188
Q35.25 -1.42188 28.1719 0.921875
Q21.0938 3.26562 16.1094 7.95312
Q11.0781 12.7031 8.34375 19.7969
Q5.60938 26.9062 5.60938 36.4219
Q5.60938 53.8594 15.7969 63.9375
Q25.9844 74.0312 43.75 74.0312
Q49.9531 74.0312 56.4219 72.5312
Q62.8906 71.0469 70.3594 67.4844
L70.3594 56
L69.4844 56
Q67.9688 57.1719 65.0781 59.0781
Q62.2031 60.9844 59.4219 62.25
Q56.0625 63.7656 51.7812 64.7656
Q47.5156 65.7656 42.0938 65.7656
Q29.8906 65.7656 22.7812 57.9219
Q15.6719 50.0938 15.6719 36.7188
Q15.6719 22.6094 23.0938 14.7656
Q30.5156 6.9375 43.3125 6.9375
Q48 6.9375 52.6562 7.85938
Q57.3281 8.79688 60.8438 10.25
L60.8438 28.0781
L41.3594 28.0781
L41.3594 36.5781
L70.4062 36.5781
z
" id="Verdana-47"/>
     </defs>
     <g transform="translate(125.28 67.10175)scale(0.144 -0.144)">
      <use xlink:href="#Verdana-41"/>
      <use x="68.359375" xlink:href="#Verdana-4d"/>
      <use x="152.63671875" xlink:href="#Verdana-50"/>
      <use x="212.939453125" xlink:href="#Verdana-47"/>
      <use x="290.478515625" xlink:href="#Verdana-4f"/>
     </g>
    </g>
    <g id="line2d_38">
     <path d="
M89.28 83.1015
L109.44 83.1015" style="fill:none;stroke:#008000;stroke-dasharray:1.000000,1.000000;stroke-dashoffset:0.0;"/>
    </g>
    <g id="line2d_39"/>
    <g id="text_20">
     <!-- Anneal -->
     <g transform="translate(125.28 88.1415)scale(0.144 -0.144)">
      <use xlink:href="#Verdana-41"/>
      <use x="68.359375" xlink:href="#Verdana-6e"/>
      <use x="131.640625" xlink:href="#Verdana-6e"/>
      <use x="194.921875" xlink:href="#Verdana-65"/>
      <use x="254.4921875" xlink:href="#Verdana-61"/>
      <use x="314.55078125" xlink:href="#Verdana-6c"/>
     </g>
    </g>
    <g id="line2d_40">
     <path d="
M89.28 104.141
L109.44 104.141" style="fill:none;stroke:#ff0000;stroke-dasharray:3.000000,6.000000;stroke-dashoffset:0.0;"/>
    </g>
    <g id="line2d_41"/>
    <g id="text_21">
     <!-- BSA -->
     <defs>
      <path d="
M64.5938 22.3594
Q64.5938 16.9375 62.5469 12.7812
Q60.5 8.64062 57.0312 5.95312
Q52.9375 2.73438 48.0156 1.35938
Q43.1094 0 35.5469 0
L9.76562 0
L9.76562 72.7031
L31.2969 72.7031
Q39.2656 72.7031 43.2188 72.1094
Q47.1719 71.5312 50.7812 69.6719
Q54.7812 67.5781 56.5938 64.2812
Q58.4062 60.9844 58.4062 56.3906
Q58.4062 51.2188 55.7656 47.5781
Q53.125 43.9531 48.7344 41.75
L48.7344 41.3594
Q56.1094 39.8438 60.3438 34.8906
Q64.5938 29.9375 64.5938 22.3594
M48.3438 55.125
Q48.3438 57.7656 47.4531 59.5625
Q46.5781 61.375 44.625 62.5
Q42.3281 63.8125 39.0625 64.125
Q35.7969 64.4531 30.9531 64.4531
L19.4375 64.4531
L19.4375 43.4531
L31.9375 43.4531
Q36.4688 43.4531 39.1562 43.9219
Q41.8438 44.3906 44.1406 45.8438
Q46.4375 47.3125 47.3906 49.625
Q48.3438 51.9531 48.3438 55.125
M54.5469 21.9688
Q54.5469 26.375 53.2188 28.9531
Q51.9062 31.5469 48.4375 33.3438
Q46.0938 34.5781 42.75 34.9375
Q39.4062 35.2969 34.625 35.2969
L19.4375 35.2969
L19.4375 8.25
L32.2344 8.25
Q38.5781 8.25 42.625 8.90625
Q46.6875 9.57812 49.2656 11.3281
Q52 13.2344 53.2656 15.6719
Q54.5469 18.1094 54.5469 21.9688" id="Verdana-42"/>
     </defs>
     <g transform="translate(125.28 109.18125)scale(0.144 -0.144)">
      <use xlink:href="#Verdana-42"/>
      <use x="68.5546875" xlink:href="#Verdana-53"/>
      <use x="135.9140625" xlink:href="#Verdana-41"/>
     </g>
    </g>
    <g id="line2d_42">
     <path d="
M89.28 125.181
L109.44 125.181" style="fill:none;stroke:#00bfbf;stroke-dasharray:5.000000,1.000000,2.000000,1.000000,5.000000,1.000000;stroke-dashoffset:0.0;"/>
    </g>
    <g id="line2d_43"/>
    <g id="text_22">
     <!-- Cuckoo -->
     <defs>
      <path d="
M58.5469 0
L46.4375 0
L24.5625 23.875
L18.6094 18.2188
L18.6094 0
L9.42188 0
L9.42188 75.9844
L18.6094 75.9844
L18.6094 27.25
L45.125 54.5469
L56.6875 54.5469
L31.3438 29.3438
z
" id="Verdana-6b"/>
      <path d="
M65.9219 5.28125
Q63.2344 4.10938 61.0625 3.07812
Q58.8906 2.04688 55.375 0.921875
Q52.3906 0 48.8906 -0.65625
Q45.4062 -1.3125 41.2188 -1.3125
Q33.2969 -1.3125 26.8281 0.90625
Q20.3594 3.125 15.5781 7.85938
Q10.8906 12.5 8.25 19.6562
Q5.60938 26.8125 5.60938 36.2812
Q5.60938 45.2656 8.14062 52.3438
Q10.6875 59.4219 15.4844 64.3125
Q20.125 69.0469 26.6875 71.5312
Q33.25 74.0312 41.2656 74.0312
Q47.125 74.0312 52.9531 72.6094
Q58.7969 71.1875 65.9219 67.625
L65.9219 56.1562
L65.1875 56.1562
Q59.1875 61.1875 53.2656 63.4688
Q47.3594 65.7656 40.625 65.7656
Q35.1094 65.7656 30.6875 63.9844
Q26.2656 62.2031 22.7969 58.4531
Q19.4375 54.7812 17.5469 49.1875
Q15.6719 43.6094 15.6719 36.2812
Q15.6719 28.6094 17.75 23.0938
Q19.8281 17.5781 23.0938 14.1094
Q26.5156 10.5 31.0781 8.76562
Q35.6406 7.03125 40.7188 7.03125
Q47.7031 7.03125 53.7969 9.42188
Q59.9062 11.8125 65.2344 16.6094
L65.9219 16.6094
z
" id="Verdana-43"/>
     </defs>
     <g transform="translate(125.28 130.221)scale(0.144 -0.144)">
      <use xlink:href="#Verdana-43"/>
      <use x="69.82421875" xlink:href="#Verdana-75"/>
      <use x="133.10546875" xlink:href="#Verdana-63"/>
      <use x="185.205078125" xlink:href="#Verdana-6b"/>
      <use x="243.384765625" xlink:href="#Verdana-6f"/>
      <use x="304.078125" xlink:href="#Verdana-6f"/>
     </g>
    </g>
    <g id="line2d_44">
     <path d="
M89.28 146.221
L109.44 146.221" style="fill:none;stroke:#bf00bf;stroke-linecap:square;"/>
    </g>
    <g id="line2d_45"/>
    <g id="text_23">
     <!-- qABC -->
     <defs>
      <path d="
M53.2656 -20.125
L44.0938 -20.125
L44.0938 6.15625
Q39.8438 2.48438 35.6406 0.703125
Q31.4531 -1.07812 26.5625 -1.07812
Q16.8438 -1.07812 11.0625 6.42188
Q5.28125 13.9219 5.28125 27.0938
Q5.28125 34.125 7.29688 39.5156
Q9.32812 44.9219 12.6406 48.5781
Q15.875 52.1562 20.2188 54.1094
Q24.5625 56.0625 29.3906 56.0625
Q33.7969 56.0625 37.1875 55.0781
Q40.5781 54.1094 44.0938 52.2031
L44.6719 54.5469
L53.2656 54.5469
z

M44.0938 13.875
L44.0938 44.7344
Q40.2812 46.4375 37.3438 47.1094
Q34.4219 47.7969 31 47.7969
Q23.0469 47.7969 18.8906 42.4062
Q14.75 37.0156 14.75 27.5469
Q14.75 17.9688 18.0938 12.8125
Q21.4375 7.67188 28.6094 7.67188
Q32.625 7.67188 36.625 9.40625
Q40.625 11.1406 44.0938 13.875" id="Verdana-71"/>
     </defs>
     <g transform="translate(125.28 151.26075)scale(0.144 -0.144)">
      <use xlink:href="#Verdana-71"/>
      <use x="62.3046875" xlink:href="#Verdana-41"/>
      <use x="130.6640625" xlink:href="#Verdana-42"/>
      <use x="199.21875" xlink:href="#Verdana-43"/>
     </g>
    </g>
   </g>
  </g>
 </g>
 <defs>
  <clipPath id="p7ff5b81e1d">
   <rect height="345.6" width="446.4" x="72.0" y="43.2"/>
  </clipPath>
 </defs>
</svg>
