<?xml version="1.0" encoding="utf-8" standalone="no"?>
<!DOCTYPE svg PUBLIC "-//W3C//DTD SVG 1.1//EN"
  "http://www.w3.org/Graphics/SVG/1.1/DTD/svg11.dtd">
<!-- Created with matplotlib (http://matplotlib.org/) -->
<svg height="432pt" version="1.1" viewBox="0 0 576 432" width="576pt" xmlns="http://www.w3.org/2000/svg" xmlns:xlink="http://www.w3.org/1999/xlink">
 <defs>
  <style type="text/css">
*{stroke-linecap:butt;stroke-linejoin:round;}
  </style>
 </defs>
 <g id="figure_1">
  <g id="patch_1">
   <path d="
M0 432
L576 432
L576 0
L0 0
z
" style="fill:#ffffff;"/>
  </g>
  <g id="axes_1">
   <g id="patch_2">
    <path d="
M72 388.8
L518.4 388.8
L518.4 43.2
L72 43.2
z
" style="fill:#ffffff;"/>
   </g>
   <g id="line2d_1">
    <path clip-path="url(#p7ff5b81e1d)" d="
M72 234.668
L72.3571 234.668
L72.5357 285.424
L72.7142 285.424
L72.8928 270.239
L73.0714 270.239
L73.2499 256.985
L73.4285 256.985
L73.607 238.346
L73.7856 238.346
L73.8749 204.638
L73.9642 204.666
L74.1427 204.666
L74.232 190.298
L74.3213 190.307
L74.4998 190.307
L74.5891 181.808
L74.6784 181.843
L74.857 181.843
L74.9462 174.632
L75.0355 174.73
L75.2141 174.73
L75.3034 169.581
L75.3926 169.69
L75.5712 169.696
L75.6605 164.434
L75.7498 164.59
L75.9283 164.59
L76.0176 155.763
L76.1069 155.879
L76.2854 155.902
L76.3747 150.189
L76.464 150.279
L76.6426 150.326
L76.8211 146.383
L76.9997 146.394
L77.089 144.908
L77.1782 144.929
L77.3568 144.982
L77.4461 142.43
L77.5354 142.525
L77.7139 142.553
L77.8032 139.89
L77.8925 139.97
L78.071 140.008
L78.1603 137.6
L78.2496 137.606
L78.4282 137.718
L78.5174 136.394
L78.6067 136.416
L78.7853 136.356
L78.8746 133.416
L78.9638 133.436
L79.1424 133.581
L79.2317 132.493
L79.321 132.52
L79.4995 132.575
L79.5888 130.785
L79.6781 130.815
L79.8566 130.936
L79.9459 130.011
L80.0352 130.057
L80.2138 130.201
L80.303 129.259
L80.3923 129.501
L80.4816 129.387
L80.5709 129.517
L80.6602 129.066
L80.7494 129.172
L80.928 129.029
L81.0173 127.905
L81.1066 127.989
L81.3744 127.855
L81.6422 128.219
L81.7315 127.953
L81.8208 128.02
L81.9101 127.917
L82.1779 126.783
L82.2672 126.834
L82.3565 126.851
L82.6243 126.235
L82.7136 126.26
L82.8029 125.839
L83.0707 126.127
L83.16 125.766
L83.3386 125.92
L83.4278 125.942
L83.5171 125.621
L83.785 125.853
L83.8742 125.596
L83.9635 125.672
L84.1421 125.864
L84.3206 125.753
L84.4992 125.843
L84.5885 125.345
L84.6778 125.412
L84.8563 125.555
L85.0349 125.072
L85.2134 125.23
L85.3027 124.915
L85.392 125.092
L85.4813 124.227
L85.5706 124.282
L85.6598 123.807
L85.8384 124.121
L86.017 123.921
L86.1062 124.089
L86.1955 124.029
L86.4634 124.121
L86.6419 124.318
L86.7312 124.373
L86.8205 124.126
L86.9098 124.191
L87.3562 124.556
L87.5347 124.56
L87.8918 125.008
L88.0704 125.023
L88.1597 125.027
L88.249 124.723
L88.3382 124.786
L88.9632 125.016
L89.1418 124.85
L89.4096 125.007
L90.2131 125.494
L90.3917 124.743
L90.6595 124.088
L91.0166 124.335
L91.1059 124.309
L91.3738 124.573
L91.5523 124.509
L91.7309 124.677
L91.8202 124.728
L91.9094 123.964
L91.9987 124.11
L92.088 124.097
L92.1773 123.878
L92.6237 124.266
L92.713 124.256
L92.8022 124.402
L92.8915 124.239
L93.0701 124.407
L93.1594 124.37
L93.2486 124.194
L93.4272 124.406
L93.695 123.771
L93.8736 123.837
L94.1414 121.971
L94.2307 121.997
L94.32 121.735
L94.4093 121.811
L94.5878 121.928
L94.7664 121.898
L95.2128 122.262
L95.3914 121.802
L95.8378 121.87
L96.0163 121.669
L96.1056 121.743
L96.2842 121.347
L96.3734 121.451
L96.6413 121.48
L96.8198 121.163
L96.9091 121.199
L97.0877 120.905
L97.177 120.932
L97.2662 120.677
L97.6234 120.949
L97.8019 121.063
L97.9805 121.149
L98.0698 120.867
L98.6054 121.313
L98.784 121.371
L98.8733 121.537
L99.0518 120.928
L99.8554 121.327
L101.016 122.14
L101.105 121.53
L101.195 121.584
L101.373 121.604
L101.641 121.148
L101.73 121.229
L101.82 121.133
L101.909 121.208
L102.087 121.191
L102.177 121.231
L102.444 121
L102.534 120.458
L102.623 120.548
L102.98 120.633
L103.069 120.653
L103.248 120.601
L103.427 120.6
L103.516 120.658
L103.873 120.059
L104.052 120.049
L104.141 119.972
L104.409 120.099
L105.034 120.431
L105.212 120.256
L105.391 120.252
L105.748 120.41
L106.373 120.709
L106.551 120.887
L106.641 120.766
L106.73 120.847
L106.908 120.747
L107.087 120.738
L107.176 120.494
L107.355 120.609
L107.444 120.57
L107.801 120.844
L108.069 120.573
L108.248 120.709
L108.337 120.471
L108.426 120.515
L108.605 120.34
L108.694 120.269
L109.319 120.744
L109.408 120.435
L109.498 120.497
L109.765 120.662
L110.123 120.446
L110.569 120.612
L110.748 120.692
L110.837 120.545
L110.926 120.611
L111.105 120.657
L111.372 120.288
L111.73 120.434
L112.265 120.673
L112.712 121.057
L113.158 121.198
L113.337 120.797
L113.515 120.838
L113.694 120.758
L113.783 120.774
L113.872 120.642
L113.962 120.708
L114.319 120.714
L114.497 120.447
L114.854 120.75
L115.033 120.543
L115.212 120.613
L115.39 120.398
L115.658 120.484
L115.926 120.618
L116.283 120.691
L116.461 120.134
L116.819 120.326
L116.908 120.248
L117.086 119.838
L117.354 120.031
L117.622 120.129
L118.247 120.44
L118.426 120.201
L118.693 120.373
L118.872 120.304
L119.14 120.437
L119.229 120.334
L119.586 120.58
L120.122 120.7
L120.39 120.913
L120.568 120.68
L120.658 120.806
L120.747 120.557
L120.836 120.605
L121.283 120.814
L121.55 120.461
L122.175 120.634
L122.443 120.643
L122.711 120.796
L122.89 120.705
L123.068 120.692
L123.247 120.344
L123.693 120.509
L124.05 120.466
L125.032 120.745
L125.211 120.564
L125.747 120.621
L125.925 120.333
L126.193 120.377
L126.282 120.386
L126.372 120.208
L126.461 120.262
L126.639 120.357
L126.729 120.288
L126.818 120.013
L126.907 120.06
L126.996 120.072
L127.175 119.877
L127.621 119.89
L127.8 119.801
L127.889 119.863
L128.157 119.525
L128.336 119.625
L128.604 119.714
L128.871 119.708
L128.961 119.5
L129.05 119.558
L130.3 119.856
L130.389 119.621
L130.478 119.665
L130.746 119.666
L130.836 119.723
L131.014 119.672
L131.371 119.836
L131.639 119.939
L131.907 119.562
L132.175 119.784
L132.264 119.46
L132.353 119.503
L132.532 119.333
L132.978 119.491
L133.246 119.078
L133.692 119.197
L133.871 118.964
L134.139 118.88
L134.317 118.494
L134.496 118.556
L134.675 118.352
L134.942 118.331
L135.121 118.35
L135.21 118.243
L135.389 117.8
L136.817 117.89
L137.621 118.062
L137.978 118.182
L138.246 118.289
L138.871 118.427
L139.139 118.2
L139.317 117.613
L139.674 117.763
L139.942 117.795
L140.388 117.854
L140.567 118.027
L141.549 117.974
L141.817 118.091
L141.906 118.052
L142.085 117.909
L142.174 117.947
L142.353 117.772
L142.531 117.855
L142.71 117.329
L142.888 117.371
L143.067 117.079
L143.603 117.131
L143.781 116.952
L144.317 117.028
L144.585 117.222
L144.763 117.062
L144.942 117.023
L145.031 116.891
L145.21 116.984
L145.477 116.981
L145.656 116.805
L145.835 116.719
L146.102 116.618
L146.46 116.796
L146.817 116.421
L147.352 116.561
L147.531 116.325
L148.067 116.405
L148.156 115.996
L148.245 116.028
L148.513 116.024
L148.87 116.122
L149.049 116.138
L149.227 115.98
L149.316 115.998
L149.406 115.793
L149.763 116.068
L150.12 116.146
L150.566 116.266
L151.459 116.453
L151.638 116.262
L152.084 116.375
L152.173 116.443
L152.263 116.33
L152.531 116.524
L152.62 116.256
L152.709 116.321
L153.245 116.439
L153.334 116.538
L153.513 116.327
L153.78 116.329
L154.405 116.357
L154.495 116.257
L154.673 116.364
L154.852 116.204
L155.745 116.435
L155.923 116.137
L156.28 116.265
L157.084 116.16
L158.423 116.475
L158.602 116.463
L158.78 116.491
L158.959 116.221
L159.227 116.371
L159.405 116.255
L159.673 116.357
L160.03 116.538
L160.119 116.37
L160.209 116.418
L160.476 116.403
L160.655 116.337
L161.191 116.356
L161.548 116.52
L161.726 116.433
L162.619 116.719
L163.155 116.97
L163.958 116.984
L164.226 117.162
L164.673 117.34
L165.119 117.461
L165.208 117.514
L165.387 117.379
L166.101 117.574
L166.369 117.642
L167.797 117.743
L167.976 117.833
L168.155 117.795
L168.78 117.812
L168.958 117.645
L169.94 117.833
L170.208 117.568
L170.387 117.71
L170.565 117.589
L170.744 117.655
L170.922 117.578
L171.101 117.584
L171.904 117.776
L172.083 117.504
L172.172 117.513
L172.351 117.309
L172.708 117.407
L172.976 117.525
L173.244 117.615
L173.958 117.786
L174.226 117.812
L174.94 118.039
L176.458 118.241
L176.547 118.023
L176.636 118.089
L176.815 118.1
L177.35 118.074
L177.529 117.911
L178.511 118.013
L179.315 118.232
L180.207 118.337
L180.297 118.194
L180.386 118.279
L180.654 118.014
L182.707 118.249
L182.796 118.045
L182.886 118.091
L183.511 118.129
L183.957 118.348
L184.314 118.339
L185.118 118.388
L185.207 118.087
L185.296 118.132
L185.832 118.21
L186.1 117.809
L186.546 117.856
L186.725 117.708
L188.243 117.85
L188.689 117.983
L188.868 117.727
L189.135 117.777
L189.403 117.792
L189.582 117.812
L189.85 117.466
L189.939 117.485
L190.117 117.369
L190.564 117.504
L190.742 117.322
L191.01 117.397
L191.278 117.462
L191.635 117.596
L191.814 117.291
L192.439 117.381
L192.707 117.498
L192.885 117.507
L193.064 117.344
L194.046 117.327
L194.135 117.156
L194.224 117.212
L194.671 117.287
L194.849 117.17
L195.117 117.159
L196.188 117.295
L196.456 117.271
L196.903 117.349
L196.992 117.385
L197.171 117.261
L197.349 117.241
L197.617 117.21
L197.885 117.144
L198.063 117.112
L198.42 117.057
L198.599 116.836
L198.688 116.858
L198.867 116.743
L199.581 116.951
L199.849 116.885
L200.385 117.011
L200.563 117.069
L200.742 116.998
L201.01 117.042
L201.724 117.171
L202.438 117.029
L202.974 117.147
L203.242 117.158
L203.331 117.144
L203.509 116.945
L204.759 117.227
L204.938 117.143
L206.277 117.083
L206.456 117.036
L206.724 117.073
L206.991 117.043
L207.081 117.082
L207.259 116.976
L207.884 117.161
L208.063 117.022
L208.956 117.137
L209.134 117.216
L209.67 117.268
L209.848 117.278
L209.938 117.054
L210.027 117.11
L210.83 117.198
L211.009 117.102
L211.098 117.102
L211.277 117.032
L211.545 117.026
L211.723 116.993
L211.902 116.843
L212.08 116.918
L213.241 117.001
L213.509 117.132
L214.044 117.228
L214.223 117.034
L214.402 117.058
L214.58 117.159
L214.759 117.187
L214.848 117.005
L214.937 117.057
L216.634 117.204
L216.812 117.054
L217.169 117.197
L217.526 117.192
L218.062 117.184
L218.776 117.233
L218.955 117.062
L219.401 117.155
L220.651 117.261
L221.098 117.36
L221.276 117.202
L221.633 117.202
L221.812 117.136
L221.99 117.158
L222.169 117.042
L222.348 117.079
L222.526 117.025
L222.705 117.049
L222.883 116.841
L223.33 116.991
L223.508 116.782
L223.955 116.712
L224.312 116.615
L224.401 116.61
L224.58 116.421
L224.937 116.568
L225.919 116.581
L226.633 116.653
L226.722 116.653
L226.99 116.174
L227.347 116.303
L227.794 116.337
L228.061 116.393
L228.329 116.4
L228.419 116.43
L228.597 116.295
L228.865 116.326
L229.133 116.494
L229.401 116.415
L229.49 116.315
L229.758 116.398
L231.454 116.374
L231.633 116.238
L232.168 116.307
L232.347 116.132
L233.508 116.351
L234.043 116.153
L234.311 116.223
L234.4 116.228
L234.49 116.064
L234.579 116.117
L234.847 116.221
L235.025 116.266
L235.382 116.416
L235.65 116.492
L236.186 116.564
L236.364 116.604
L236.632 116.626
L236.722 116.315
L236.811 116.349
L237.079 116.404
L237.257 116.253
L237.793 116.301
L237.882 116.301
L238.061 116.357
L238.418 116.386
L238.686 116.13
L240.204 116.214
L240.382 116.059
L240.471 116.119
L240.65 115.995
L241.186 116.044
L241.364 115.722
L242.614 115.756
L242.793 115.66
L244.132 115.767
L244.221 115.802
L244.4 115.732
L244.757 115.632
L244.935 115.518
L245.114 115.57
L245.471 115.678
L245.56 115.706
L245.739 115.615
L247.792 115.765
L247.971 115.556
L248.596 115.668
L248.774 115.743
L250.56 115.759
L250.828 115.835
L251.274 115.983
L251.988 115.967
L252.078 115.809
L252.346 115.925
L252.613 115.911
L253.685 116.024
L253.863 115.871
L254.22 115.9
L254.31 115.724
L254.399 115.789
L254.667 115.365
L254.935 115.351
L255.917 115.439
L256.185 115.531
L256.631 115.616
L256.81 115.649
L257.167 115.692
L260.47 115.752
L260.738 115.832
L261.095 115.856
L261.363 115.917
L261.452 116.006
L261.809 115.697
L262.077 115.629
L263.327 115.724
L263.595 115.449
L263.952 115.577
L264.041 115.644
L264.22 115.548
L264.934 115.534
L265.113 115.394
L265.47 115.5
L265.648 115.57
L266.095 115.616
L266.363 115.772
L266.809 115.848
L266.898 115.883
L266.988 115.686
L267.077 115.737
L268.773 115.855
L269.398 115.941
L269.934 115.739
L270.112 115.832
L270.291 115.749
L270.469 115.755
L270.648 115.582
L270.827 115.524
L271.541 115.515
L271.719 115.341
L271.898 115.341
L272.076 115.214
L273.505 115.315
L273.862 115.348
L274.041 115.173
L274.398 114.885
L274.755 114.989
L275.201 115.203
L275.291 115.203
L275.469 115.016
L275.737 115.058
L276.54 115.113
L278.058 115.033
L278.683 115.111
L278.862 115.106
L281.094 115.188
L281.183 115.122
L281.362 114.828
L281.629 114.935
L282.344 115.017
L282.969 115.195
L283.594 115.294
L284.219 115.338
L284.397 115.307
L284.576 115.33
L284.754 115.274
L285.736 115.174
L286.093 115.217
L286.54 115.363
L287.165 115.466
L287.611 115.58
L287.79 115.484
L288.325 115.402
L288.504 115.215
L289.397 115.329
L289.665 115.387
L289.843 115.346
L290.736 115.517
L291.361 115.548
L291.54 115.406
L292.254 115.481
L292.432 115.293
L292.7 115.25
L293.147 115.303
L293.504 115.345
L297.075 115.333
L297.253 115.204
L298.057 115.297
L298.236 115.327
L298.414 115.164
L298.503 115.164
L298.682 115.013
L300.557 115.073
L300.735 114.766
L303.592 114.659
L303.682 114.716
L303.949 114.526
L307.074 114.604
L307.164 114.662
L307.342 114.535
L307.788 114.353
L308.324 114.266
L309.217 114.457
L309.485 114.459
L309.663 114.317
L310.378 114.369
L310.556 114.223
L313.681 114.166
L313.86 114.046
L314.127 114.123
L314.306 113.984
L314.931 114.035
L315.109 113.953
L315.824 114.03
L316.092 114.1
L316.895 114.037
L317.074 113.914
L317.163 113.919
L317.341 113.779
L317.52 113.866
L317.699 113.866
L317.877 113.589
L319.216 113.75
L319.306 113.669
L319.484 113.761
L320.02 113.819
L320.198 113.722
L320.466 113.817
L320.734 113.755
L320.823 113.755
L321.002 113.919
L321.27 113.868
L322.341 114.026
L322.52 113.929
L323.68 114.003
L323.948 114.072
L324.127 113.933
L325.02 113.891
L325.198 113.772
L327.341 113.869
L327.609 113.821
L328.055 113.834
L328.323 113.786
L329.573 114.014
L329.751 113.905
L331.537 113.903
L331.716 113.828
L332.251 113.859
L332.34 113.859
L332.519 113.736
L332.698 113.796
L332.965 113.738
L333.233 113.765
L333.59 113.904
L335.912 114.049
L336.18 114.085
L336.358 114.299
L336.894 114.43
L337.072 114.303
L339.929 114.383
L340.197 114.437
L340.465 114.437
L340.644 114.319
L341.268 114.24
L341.536 114.176
L341.804 114.272
L344.483 114.573
L344.84 114.649
L345.465 114.553
L345.732 114.474
L346 114.525
L346.268 114.615
L347.875 114.703
L348.411 114.802
L348.589 114.699
L349.036 114.75
L349.214 114.695
L349.393 114.748
L350.821 114.808
L351.089 114.939
L351.357 114.812
L351.446 114.812
L351.625 114.962
L352.161 114.942
L354.036 115.022
L354.303 115.127
L354.482 115.035
L355.107 115.223
L357.964 115.32
L358.41 115.506
L359.124 115.675
L360.642 115.792
L360.999 115.863
L361.356 115.901
L361.892 115.933
L362.696 116.013
L362.964 116.064
L363.588 116.17
L366.267 116.419
L366.535 116.175
L366.803 116.215
L366.981 116.159
L367.517 116.237
L368.052 116.279
L368.231 116.336
L369.124 116.428
L369.481 116.508
L370.017 116.494
L371.177 116.583
L371.267 116.616
L371.445 116.441
L372.427 116.543
L372.695 116.627
L372.963 116.636
L373.141 116.769
L373.32 116.769
L373.499 116.637
L373.677 116.77
L374.57 116.845
L374.927 116.922
L375.195 116.861
L375.463 116.889
L375.641 116.941
L375.82 116.935
L375.998 116.877
L376.088 116.912
L376.266 116.776
L376.534 116.839
L377.07 116.895
L377.427 116.918
L377.605 116.819
L378.052 116.878
L378.409 117.044
L379.212 117.01
L379.391 116.921
L380.552 116.853
L381.534 116.916
L381.891 117.069
L382.069 117.062
L382.248 117.236
L382.516 117.255
L382.694 117.356
L383.766 117.461
L383.855 117.486
L383.944 117.632
L384.212 117.482
L384.391 117.509
L384.569 117.378
L385.105 117.434
L385.284 117.626
L385.551 117.684
L386.087 117.717
L386.266 117.783
L387.069 117.795
L387.337 117.536
L387.962 117.598
L388.051 117.66
L388.23 117.562
L389.301 117.663
L389.658 117.764
L389.837 117.707
L390.194 117.797
L391.622 117.894
L392.069 117.933
L392.247 117.864
L392.515 117.994
L392.783 118.049
L393.676 117.986
L393.854 117.936
L394.122 117.975
L395.283 117.981
L395.551 118.008
L398.854 117.994
L399.033 117.912
L399.3 118.023
L399.568 118.131
L401.265 118.233
L401.89 118.324
L401.979 118.255
L402.068 118.329
L402.247 118.27
L402.604 118.317
L402.872 118.384
L403.407 118.493
L405.193 118.805
L405.372 118.938
L409.389 118.845
L409.657 118.728
L410.014 118.784
L410.46 118.834
L411.621 118.924
L411.889 118.995
L412.335 119.087
L413.139 119.116
L414.121 119.031
L414.657 118.83
L415.817 118.787
L415.996 118.722
L416.442 118.847
L416.621 118.809
L416.889 118.885
L417.246 118.953
L417.514 118.987
L417.781 119.145
L418.853 119.11
L419.656 119.051
L419.835 118.992
L420.728 119.06
L421.353 119.279
L422.692 119.449
L422.87 119.372
L424.031 119.419
L425.013 119.502
L425.281 119.643
L425.727 119.595
L425.995 119.553
L426.174 119.627
L427.781 119.528
L428.049 119.483
L428.316 119.526
L428.674 119.474
L429.388 119.544
L429.566 119.755
L430.013 119.863
L431.441 119.999
L431.888 120
L432.066 119.876
L432.602 119.966
L432.87 120.065
L434.655 120.258
L435.012 120.327
L435.191 120.338
L435.37 120.225
L436.084 120.269
L436.53 120.373
L438.048 120.753
L438.673 120.832
L438.852 120.876
L439.03 120.776
L440.101 120.828
L440.28 120.92
L441.084 120.885
L441.262 120.759
L444.744 120.834
L445.012 120.88
L445.726 120.89
L445.994 120.959
L447.422 121.057
L447.78 121.339
L448.315 121.436
L448.494 121.216
L450.012 121.676
L450.101 121.768
L450.279 121.663
L453.136 121.767
L453.404 121.79
L454.654 121.872
L455.011 122.12
L456.35 122.243
L456.618 122.356
L457.243 122.318
L457.422 122.216
L457.868 122.279
L458.225 122.431
L458.672 122.337
L458.94 122.258
L459.118 122.234
L459.297 122.406
L459.743 122.406
L459.832 122.529
L459.922 122.405
L460.189 122.483
L460.636 122.585
L460.993 122.696
L462.243 122.717
L463.046 122.742
L464.564 122.857
L464.743 122.797
L465.1 122.881
L465.278 122.8
L465.814 122.876
L465.993 122.859
L467.153 122.961
L467.778 123.004
L468.225 123.059
L468.582 123.208
L471.082 123.288
L471.26 123.242
L472.064 123.356
L472.778 123.341
L473.492 123.286
L473.671 123.385
L474.831 123.471
L475.188 123.611
L475.546 123.67
L477.867 123.766
L477.956 123.822
L478.135 123.745
L479.028 123.816
L479.206 123.915
L479.831 123.926
L480.099 123.871
L480.188 123.871
L480.367 123.952
L480.545 124.054
L480.992 124.079
L481.438 124.159
L481.974 124.305
L482.509 124.229
L484.741 124.153
L484.92 124.065
L485.188 124.088
L485.277 124.175
L485.456 124.433
L485.724 124.46
L485.902 124.447
L486.884 124.499
L487.063 124.61
L487.331 124.384
L487.509 124.505
L488.491 124.731
L489.116 124.67
L490.991 124.736
L491.259 124.919
L493.937 124.871
L494.027 124.8
L494.205 124.903
L494.473 124.915
L494.652 124.837
L494.83 124.997
L495.276 124.982
L497.241 125.042
L497.508 125.118
L499.205 125.449
L499.562 125.569
L500.633 125.762
L500.812 125.718
L503.044 126.023
L505.097 126.129
L505.722 126.263
L508.222 126.359
L508.936 126.396
L510.722 126.46
L510.99 126.519
L512.508 126.604
L512.775 126.646
L514.204 126.73
L514.382 126.87
L514.918 126.806
L515.097 126.793
L515.989 126.729
L516.257 126.659
L518.311 126.715
L518.311 126.715" style="fill:none;stroke:#0000ff;stroke-dasharray:6.000000,2.000000;stroke-dashoffset:0.0;"/>
   </g>
   <g id="line2d_2">
    <path clip-path="url(#p7ff5b81e1d)" d="
M72 237.646
L72.0893 285.88
L72.0893 285.88
L72.0893 285.88
L73.3392 184.089
L73.4285 184.523
L73.7856 152.843
L73.9642 139.132
L74.1427 135.449
L74.6784 111.025
L75.1248 91.2567
L75.2141 90.9286
L75.3034 88.0091
L75.3926 89.4295
L75.5712 87.4981
L76.1962 71.6876
L76.2854 71.6689
L76.3747 69.6081
L76.464 69.7266
L76.5533 69.6314
L76.8211 68.2989
L76.9104 68.29
L77.089 65.2381
L77.1782 67.6528
L77.2675 66.8943
L77.3568 68.1306
L77.5354 66.7853
L77.6246 68.6554
L77.7139 67.787
L77.8032 67.8451
L77.8925 67.5648
L78.071 68.3294
L78.1603 69.0369
L78.2496 68.8577
L78.3389 68.461
L78.4282 66.964
L78.6067 69.7279
L78.696 69.5461
L78.7853 69.6498
L78.9638 70.8057
L79.0531 69.93
L79.1424 71.3349
L79.2317 71.0868
L79.321 70.9481
L79.4102 71.4629
L79.5888 70.5367
L79.7674 71.3096
L79.9459 72.9677
L80.1245 71.205
L80.303 73.7794
L80.5709 76.5305
L80.8387 80.4338
L80.928 81.3142
L81.0173 81.1659
L81.1066 81.3428
L81.2851 83.2849
L81.3744 83.371
L81.553 84.2471
L81.7315 87.8362
L81.8208 87.7605
L81.9101 88.8124
L81.9994 88.7581
L82.1779 89.7238
L82.3565 90.9635
L82.4458 92.8791
L82.535 92.3541
L82.6243 93.6435
L82.7136 93.4438
L82.8029 93.5926
L82.9814 95.57
L83.0707 95.7478
L83.16 95.5226
L83.2493 95.5969
L83.3386 96.3734
L83.4278 96.2618
L83.5171 96.1098
L83.785 97.8678
L83.8742 97.7501
L84.0528 99.6726
L84.1421 99.501
L84.2314 99.5946
L84.4099 101.003
L84.4992 103.476
L84.5885 103.358
L84.6778 103.686
L84.8563 105.247
L84.9456 105.017
L85.1242 105.88
L85.2134 105.789
L85.3027 105.672
L85.5706 107.845
L85.8384 107.986
L85.9277 107.913
L86.017 108.159
L86.2848 110.414
L86.4634 110.343
L86.7312 113.506
L86.8205 114.002
L86.9098 113.83
L87.7133 120.184
L87.8026 119.995
L87.9811 119.899
L88.1597 122.12
L88.3382 122.373
L88.5168 123.85
L88.6954 123.756
L88.8739 124.447
L89.1418 124.498
L89.231 124.732
L89.4096 126.299
L89.4989 126.258
L89.5882 127.328
L89.6774 127.272
L89.856 127.775
L89.9453 127.764
L90.0346 127.873
L90.1238 127.804
L90.2131 128.081
L90.3024 128.045
L90.481 127.985
L90.5702 128.419
L90.9274 133.676
L91.1059 133.562
L91.3738 133.819
L91.5523 137.135
L91.6416 137.102
L91.7309 137.214
L91.9094 137.568
L91.9987 137.541
L92.088 138.729
L92.1773 138.7
L92.3558 138.692
L92.4451 138.664
L93.1594 140.18
L93.4272 140.18
L93.6058 140.266
L93.7843 142.455
L93.8736 142.548
L94.0522 146.041
L94.1414 146.025
L94.32 146.129
L94.4093 146.838
L94.4986 146.809
L94.7664 147.122
L95.1235 147.059
L95.2128 147.431
L95.3914 149.942
L95.6592 149.89
L95.8378 153.353
L95.927 153.327
L96.1949 153.22
L96.2842 153.212
L96.3734 156.066
L96.4627 156.052
L96.552 156.038
L97.177 156.971
L97.2662 158.807
L97.3555 158.785
L97.4448 158.782
L97.6234 158.996
L98.159 158.912
L98.4269 159.272
L98.6947 159.289
L98.8733 160.016
L98.9626 160.006
L99.1411 161.65
L99.5875 161.592
L99.6768 162.789
L99.7661 162.775
L100.212 162.79
L100.391 163.058
L100.57 163.025
L100.748 163.331
L100.837 164.842
L100.927 164.828
L101.105 165.183
L101.373 165.224
L101.552 165.515
L101.909 165.563
L102.087 167.529
L102.177 167.526
L102.266 167.852
L102.355 169.465
L102.444 169.447
L102.534 169.44
L102.802 169.722
L103.069 169.742
L103.159 171.667
L103.248 171.659
L103.427 171.649
L103.605 173.811
L103.694 173.938
L103.784 175.948
L103.873 175.941
L104.141 177.76
L104.319 177.748
L104.676 178.845
L104.766 178.828
L105.034 179.678
L105.212 179.669
L105.301 179.832
L105.48 181.053
L105.659 181.047
L105.748 181.161
L105.926 183.469
L106.194 183.571
L106.373 185.046
L106.551 185.58
L106.908 185.568
L107.087 187.397
L107.176 187.397
L107.266 187.541
L107.444 189.942
L107.533 189.926
L107.712 190.278
L107.891 190.269
L108.069 190.41
L108.248 190.433
L108.426 190.618
L108.873 190.621
L109.051 191.335
L109.23 191.537
L109.319 192.345
L109.587 196.725
L109.676 196.725
L109.855 197.614
L111.283 197.656
L111.462 198.098
L111.908 198.093
L112.087 198.692
L112.89 198.696
L113.069 199.724
L113.247 199.721
L113.604 200.44
L113.783 200.437
L113.962 202.818
L115.301 202.851
L115.569 203.143
L117.265 203.215
L117.444 203.67
L118.783 203.646
L120.39 203.715
L120.658 206.688
L121.64 206.674
L121.818 206.913
L122.175 206.911
L122.354 207.732
L125.747 207.715
L125.925 208.191
L130.3 208.17
L130.389 208.31
L130.568 210.131
L131.103 210.125
L131.282 212.319
L131.371 212.319
L131.55 212.814
L131.728 212.94
L133.157 212.965
L133.335 216.566
L134.228 216.565
L134.407 218.282
L137.264 218.332
L137.442 219.025
L138.156 219.027
L138.335 219.166
L141.281 219.258
L141.638 219.281
L141.817 221.314
L142.263 221.39
L142.442 221.619
L142.62 221.619
L142.71 224.501
L142.799 224.497
L143.245 224.496
L143.424 227.233
L143.603 228.926
L145.835 228.918
L146.013 229.69
L149.584 229.724
L149.763 232.817
L153.156 232.816
L153.334 233.405
L164.316 233.398
L164.673 233.769
L164.762 233.769
L164.94 234.055
L165.565 234.054
L165.744 236.622
L167.44 236.621
L167.619 237.224
L168.869 237.223
L169.047 237.504
L170.476 237.578
L170.654 239.735
L172.083 239.734
L172.261 239.939
L173.244 239.939
L173.422 240.587
L182.975 240.582
L183.154 240.802
L183.332 244.121
L183.511 244.121
L183.689 244.781
L183.868 244.781
L184.046 245.886
L184.761 245.886
L184.939 247.21
L187.707 247.206
L189.225 247.258
L189.403 249.699
L189.76 249.698
L189.939 249.847
L190.385 249.847
L190.564 253.351
L191.01 253.351
L191.189 255.549
L191.546 257.619
L192.885 257.636
L193.064 258.371
L195.742 258.37
L195.921 260.657
L196.367 260.657
L196.546 261.399
L196.635 261.399
L196.813 262.836
L197.081 262.891
L197.171 262.891
L197.349 265.227
L197.617 265.227
L197.796 266.922
L199.135 266.96
L199.313 268.744
L200.474 268.743
L200.652 268.933
L200.92 268.933
L201.099 269.82
L203.956 269.822
L204.134 274.297
L208.152 274.306
L208.331 277.037
L209.045 277.037
L209.223 278.439
L212.973 278.449
L213.152 278.861
L225.651 278.858
L225.829 283.484
L230.026 283.484
L230.204 283.617
L260.649 283.615
L260.827 283.78
L261.363 283.78
L261.541 288.616
L271.094 288.616
L271.273 292.457
L271.987 292.457
L272.166 292.81
L272.701 292.81
L272.88 293.89
L311.181 293.899
L311.36 297.033
L314.931 297.086
L315.109 302.335
L317.52 302.335
L317.699 302.737
L320.823 302.737
L321.002 302.906
L324.216 302.915
L324.395 304.318
L326.002 304.318
L326.18 309.057
L328.323 309.057
L328.501 309.191
L331.805 309.191
L331.983 316.024
L333.144 316.027
L333.323 323.632
L338.947 323.639
L339.126 323.82
L342.072 323.82
L342.251 330.262
L343.768 330.296
L343.947 331.088
L346.893 331.088
L347.072 332.3
L347.34 332.3
L347.518 332.502
L518.311 332.503
L518.311 332.503" style="fill:none;stroke:#008000;stroke-dasharray:1.000000,1.000000;stroke-dashoffset:0.0;"/>
   </g>
   <g id="line2d_3">
    <path clip-path="url(#p7ff5b81e1d)" d="
M72 237.754
L72.0893 262.717
L72.4464 225.583
L72.7142 198.827
L73.3392 160.685
L73.4285 161.526
L73.5178 160.747
L73.8749 150.746
L73.9642 150.369
L74.0534 148.733
L74.1427 148.853
L74.232 148.937
L74.3213 147.921
L74.4106 148.553
L74.4998 147.937
L74.7677 144.769
L74.857 145.344
L74.9462 144.362
L75.0355 141.483
L75.1248 142.193
L75.3034 139.68
L75.4819 139.027
L75.5712 139.061
L75.7498 135.899
L75.839 135.984
L75.9283 136.104
L76.0176 134.968
L76.1962 136.265
L76.6426 132.45
L76.7318 132.672
L76.8211 131.994
L77.1782 133.172
L77.4461 130.934
L77.5354 131.041
L77.7139 132.443
L77.8032 131.766
L78.1603 133.073
L78.3389 131.789
L78.5174 132.08
L78.7853 133.057
L78.9638 132.729
L79.0531 132.833
L79.2317 131.313
L79.4102 131.933
L79.6781 129.501
L79.8566 130.992
L79.9459 130.591
L80.1245 131.356
L80.3923 132.33
L80.4816 131.832
L80.6602 132.543
L80.7494 132.353
L80.8387 132.877
L81.0173 132.097
L81.1958 131.702
L81.2851 131.778
L81.4637 130.45
L81.553 130.919
L81.6422 130.433
L81.7315 130.862
L81.8208 130.436
L81.9994 132.438
L82.1779 132.252
L82.3565 132.843
L82.4458 132.446
L82.7136 134.249
L82.8922 134.316
L83.16 135.32
L83.4278 136.11
L83.6957 136.701
L83.785 136.327
L84.4099 139.28
L85.2134 145.069
L85.3027 145.081
L85.4813 146.001
L85.5706 145.443
L85.6598 146.014
L85.7491 145.823
L85.8384 144.926
L86.1955 147.154
L86.2848 146.858
L86.8205 150.318
L86.9098 150.933
L86.999 150.615
L87.3562 151.382
L87.4454 150.992
L87.5347 151.067
L87.7133 151.811
L87.8026 151.851
L88.0704 150.699
L88.1597 150.87
L88.249 151.218
L88.5168 153.322
L88.6061 153.38
L88.6954 153.935
L88.7846 153.85
L88.9632 154.62
L89.0525 155.391
L89.1418 155.347
L89.231 155.538
L89.4096 156.88
L89.5882 157.711
L89.7667 157.653
L90.0346 159.408
L90.1238 159.479
L90.3024 160.844
L90.3917 160.794
L90.6595 162.113
L90.7488 162.113
L91.0166 163.618
L91.463 165.464
L91.5523 165.042
L91.7309 166.066
L91.9987 167.282
L92.088 167.189
L92.2666 167.407
L92.5344 168.337
L93.5165 171.291
L93.695 172.381
L93.7843 172.012
L93.9629 172.988
L94.0522 173.175
L94.1414 173.094
L94.4986 175.678
L94.6771 175.934
L94.945 178.115
L95.2128 178.62
L95.3914 178.735
L95.5699 178.47
L95.7485 178.743
L95.927 178.89
L96.552 181.886
L96.6413 181.625
L96.9984 184.28
L97.0877 184.414
L97.2662 185.532
L97.3555 186.899
L97.4448 186.77
L97.5341 186.731
L97.6234 187.764
L97.7126 187.708
L97.8019 187.521
L97.8912 187.898
L98.0698 189.94
L98.159 189.847
L98.6947 193.782
L98.784 193.748
L98.8733 193.891
L99.3197 195.795
L99.4982 195.521
L99.6768 197.366
L99.7661 197.399
L100.034 198.537
L100.123 199.778
L100.212 199.763
L100.302 199.817
L100.391 199.669
L100.659 200.351
L100.748 201.343
L100.927 201.027
L101.016 201.426
L101.105 201.273
L101.284 201.533
L101.462 202.984
L101.82 204.569
L101.909 204.204
L102.087 206.039
L102.355 208.289
L102.444 208.433
L102.534 208.933
L102.623 208.763
L102.802 208.917
L102.891 209.562
L102.98 209.397
L103.069 209.339
L103.159 210.124
L103.248 210.05
L103.427 210.042
L103.516 210.151
L103.605 209.896
L103.784 210.943
L103.873 210.987
L104.052 211.49
L104.23 211.562
L104.319 211.619
L104.498 211.943
L104.676 211.746
L105.034 212.139
L105.123 212.08
L105.301 212.652
L105.391 212.826
L105.569 212.465
L105.659 212.76
L105.748 212.624
L106.194 214.16
L106.284 214.343
L106.373 214.789
L106.462 214.716
L106.551 214.764
L106.73 214.444
L106.908 214.391
L106.998 215.162
L107.087 215.078
L107.266 214.991
L107.801 217.99
L107.891 217.99
L108.069 218.559
L108.337 219.272
L108.516 220.255
L108.783 220.319
L108.873 220.443
L109.051 220.059
L109.408 221.131
L109.498 221.815
L109.587 221.748
L109.855 222.856
L109.944 222.605
L110.033 222.959
L110.123 222.874
L110.212 223.187
L110.48 225.956
L110.658 226.6
L110.748 226.553
L110.926 227.28
L111.015 227.293
L111.283 229.867
L111.551 230.972
L111.73 232.966
L111.819 232.997
L111.908 233.767
L111.997 233.749
L112.265 234.839
L112.444 235.119
L112.622 235.972
L112.801 236.044
L112.98 236.667
L113.158 236.672
L113.783 238.11
L113.962 239.938
L114.229 240.226
L114.408 240.183
L114.765 242.578
L114.854 242.801
L115.212 244.731
L115.301 244.697
L115.479 247.19
L115.569 247.074
L115.658 247.314
L115.836 248.187
L115.926 248.19
L116.104 248.567
L116.194 248.567
L116.283 248.451
L116.372 248.716
L116.551 249.379
L116.64 249.226
L116.819 249.44
L117.176 249.652
L117.265 249.927
L117.354 249.888
L117.622 249.921
L118.336 252.73
L118.515 252.689
L118.693 253.041
L118.961 252.958
L119.14 254.272
L119.765 254.532
L119.854 254.515
L119.943 254.715
L120.122 255.635
L120.211 255.861
L120.568 257.827
L120.658 258.124
L120.836 259.727
L121.015 260.369
L121.193 260.806
L121.283 260.744
L121.461 260.673
L121.729 262.684
L121.908 262.811
L121.997 262.801
L122.265 263.477
L122.443 263.371
L122.711 265.237
L122.979 265.38
L123.157 265.599
L123.336 265.525
L123.515 265.557
L123.604 266.5
L123.693 266.459
L123.782 266.456
L124.05 266.878
L124.318 266.72
L124.586 268.461
L124.675 268.464
L124.943 269.15
L125.122 270.294
L125.479 271.512
L125.568 271.509
L125.747 272.255
L125.925 272.438
L126.193 273.974
L126.282 273.946
L126.461 274.344
L126.729 274.307
L126.996 274.71
L127.175 274.595
L127.443 276.274
L127.621 278.197
L127.889 279.427
L127.979 279.392
L128.157 279.884
L128.336 281.883
L128.871 282.19
L129.139 282.739
L129.228 283.405
L129.496 286.704
L129.764 286.829
L129.853 286.784
L130.032 286.973
L130.211 287.349
L130.389 288.215
L130.478 288.832
L130.568 288.771
L130.836 288.694
L131.103 289.145
L131.282 289.236
L131.639 289.28
L131.907 291.451
L132.085 291.426
L132.264 292.048
L132.621 292.111
L132.8 292.76
L133.068 292.696
L133.246 292.893
L133.335 292.883
L133.514 293.544
L133.603 293.644
L133.692 295.028
L133.782 295.007
L133.96 295.377
L134.139 295.951
L134.228 295.938
L134.317 297.094
L134.407 297.058
L134.675 297.118
L134.853 298.012
L135.389 298.004
L135.567 298.668
L135.746 298.635
L135.924 299.137
L136.014 299.503
L136.192 300.717
L136.282 300.689
L136.46 301.078
L136.549 301.098
L136.728 301.457
L136.907 301.54
L137.174 301.577
L137.353 302.684
L137.621 302.714
L137.799 302.812
L138.156 302.892
L138.246 303.014
L138.424 303.456
L138.514 303.456
L138.692 304.119
L138.871 304.128
L139.049 304.312
L139.228 304.306
L139.406 304.524
L139.496 304.45
L139.674 306.701
L139.942 306.719
L140.121 307.414
L140.21 307.414
L140.388 308.341
L140.567 308.864
L140.746 309.139
L141.013 309.6
L141.192 310.177
L141.371 310.211
L141.638 310.208
L141.817 310.397
L141.996 310.397
L142.174 311.357
L142.62 311.428
L142.799 311.598
L143.067 311.584
L143.245 311.751
L143.335 311.76
L143.513 312.066
L143.603 312.052
L143.781 312.676
L143.87 312.676
L143.96 312.869
L144.049 313.884
L144.138 313.871
L144.406 313.987
L144.585 314.168
L144.763 314.225
L144.942 314.294
L145.031 314.266
L145.21 315.185
L145.567 315.206
L146.013 315.18
L146.281 315.088
L146.549 315.576
L146.727 315.661
L146.906 316.692
L147.084 317.177
L147.174 317.177
L147.352 318.525
L147.709 318.958
L147.888 318.978
L147.977 319.857
L148.067 319.817
L148.245 320.176
L148.334 320.174
L148.513 320.277
L148.692 320.302
L148.87 320.647
L148.959 320.645
L149.138 320.879
L149.316 320.943
L149.584 320.9
L149.763 321.284
L150.388 321.759
L150.566 321.725
L150.745 322.088
L150.834 322.087
L151.013 323.026
L151.102 323.02
L151.459 323.576
L152.084 323.627
L152.352 323.656
L152.62 324.724
L153.245 324.949
L153.334 325.026
L153.513 325.359
L153.691 325.48
L153.959 325.436
L154.138 325.628
L154.405 325.607
L154.584 325.859
L154.673 325.858
L154.852 325.995
L154.941 325.995
L155.12 326.404
L155.566 326.459
L155.745 326.835
L155.923 327.097
L156.102 327.417
L156.28 329.017
L156.727 329.184
L156.816 329.175
L157.084 329.976
L158.155 330.373
L158.334 330.812
L158.512 330.814
L158.691 331.056
L158.959 331.123
L159.048 331.159
L159.227 331.742
L159.316 331.743
L159.494 332.154
L159.584 332.147
L159.762 332.616
L160.119 333.543
L160.834 333.488
L161.012 333.812
L161.548 333.867
L161.726 334.901
L162.619 335.006
L162.798 335.113
L162.976 336.311
L163.155 336.398
L163.333 336.75
L163.691 336.734
L163.958 337.015
L164.137 337.603
L164.762 337.619
L164.94 337.865
L165.565 337.956
L166.101 338.004
L166.994 338.036
L167.172 338.292
L167.351 339.893
L167.53 339.951
L167.708 340.596
L167.976 340.618
L168.422 340.663
L168.869 341.288
L169.762 341.41
L170.029 341.781
L170.297 341.831
L171.369 341.986
L172.172 343.932
L172.351 344.039
L172.797 344.055
L173.511 344.126
L173.69 344.623
L173.868 344.623
L174.047 344.859
L174.583 344.829
L174.761 345.469
L175.386 345.558
L175.565 345.836
L175.922 345.897
L176.1 345.993
L177.083 346.145
L177.261 346.325
L177.975 346.396
L178.065 346.578
L178.243 349.4
L178.69 349.438
L178.868 349.754
L179.225 349.84
L179.404 349.988
L179.94 350.081
L180.297 350.135
L180.475 350.116
L180.654 350.291
L181.1 350.468
L181.279 350.695
L181.636 350.744
L181.814 350.852
L182.439 350.885
L182.618 352.345
L182.886 352.339
L183.064 353.308
L184.314 353.289
L184.671 353.989
L184.85 354.081
L185.118 354.142
L185.386 354.195
L185.564 354.838
L186.011 354.847
L186.1 354.859
L186.278 355.005
L186.546 355.024
L187.35 355.012
L187.528 355.269
L187.885 355.287
L188.064 355.435
L188.689 355.56
L188.957 355.575
L189.225 355.795
L189.314 355.778
L189.403 355.883
L189.582 357.99
L189.76 358.344
L190.296 358.396
L190.564 358.436
L190.832 358.511
L191.01 358.755
L191.814 358.785
L191.992 358.95
L192.26 358.95
L192.439 359.56
L192.885 359.592
L193.064 360.313
L193.51 360.337
L193.956 360.36
L194.135 360.887
L194.403 360.892
L194.581 361.902
L194.939 361.93
L195.296 362.067
L196.099 362.172
L196.367 362.226
L197.081 362.216
L197.26 362.356
L197.349 362.358
L197.528 362.654
L197.617 362.732
L197.796 363.084
L198.331 363.102
L198.51 363.307
L199.849 363.42
L200.117 363.468
L200.563 363.513
L200.652 366.534
L200.742 366.528
L200.831 366.53
L201.01 366.997
L201.277 367.006
L201.456 367.732
L201.902 367.89
L202.974 368.368
L204.045 368.449
L204.313 369.787
L204.581 369.786
L204.759 369.999
L205.474 370.009
L205.652 370.288
L206.188 370.355
L206.456 370.422
L206.991 370.46
L207.17 371.333
L208.063 371.442
L209.045 371.564
L209.67 371.585
L209.848 371.693
L210.563 371.733
L210.741 372.136
L211.277 372.181
L211.455 372.267
L211.812 372.351
L212.08 372.401
L213.241 372.492
L213.777 372.529
L215.027 372.609
L215.205 372.75
L215.384 372.863
L215.83 372.964
L216.276 372.989
L216.455 373.112
L217.08 373.192
L217.259 373.464
L217.526 373.467
L217.705 374.047
L217.794 374.047
L217.973 374.164
L219.133 374.241
L219.312 374.474
L221.008 374.583
L221.365 374.615
L222.526 374.689
L223.062 375.031
L223.865 375.069
L224.044 375.144
L225.026 375.171
L225.204 375.288
L226.722 375.631
L226.901 375.727
L228.24 375.738
L228.419 375.851
L230.293 375.867
L230.472 376.059
L231.365 376.074
L231.543 376.299
L231.811 376.347
L233.15 376.406
L233.418 376.467
L234.757 376.528
L234.936 376.648
L235.115 376.645
L235.293 376.871
L239.668 377.224
L239.846 377.366
L240.471 377.537
L240.739 377.593
L240.828 377.607
L241.007 377.779
L241.9 377.87
L242.078 378.056
L243.328 378.164
L244.31 378.233
L244.578 378.283
L245.114 378.286
L245.292 378.733
L245.917 378.833
L246.275 378.877
L247.524 378.901
L247.882 378.9
L248.06 379.104
L248.328 379.111
L248.507 379.335
L250.828 379.418
L251.185 379.505
L252.256 379.532
L252.435 379.662
L253.863 379.759
L254.042 380.063
L255.292 380.289
L255.828 380.29
L256.006 380.404
L256.363 380.42
L256.542 380.606
L258.327 380.635
L258.506 380.907
L261.809 381.003
L262.166 381.052
L263.684 381.075
L263.863 381.323
L264.845 381.318
L265.023 381.546
L265.648 381.571
L267.88 381.636
L268.059 381.753
L271.094 381.86
L272.076 382.015
L272.344 382.059
L272.523 382.201
L274.755 382.297
L275.023 382.349
L276.005 382.377
L276.183 382.47
L278.951 382.536
L279.308 382.612
L280.826 382.668
L281.183 382.74
L285.826 382.823
L286.629 383.016
L288.325 383.047
L288.504 383.219
L291.986 383.325
L293.682 383.424
L294.218 383.454
L295.646 383.549
L296.628 383.654
L296.986 383.691
L297.521 383.718
L300.289 383.764
L300.468 383.958
L301.628 383.96
L301.807 384.177
L302.967 384.261
L303.235 384.322
L307.878 384.417
L308.413 384.438
L311.449 384.486
L311.628 384.684
L313.145 384.694
L313.235 384.695
L313.413 384.835
L316.716 384.91
L316.984 384.985
L317.966 384.995
L318.681 385.062
L318.859 385.162
L322.609 385.27
L322.877 385.319
L327.341 385.376
L327.519 385.449
L333.233 385.641
L338.679 385.962
L343.411 386.058
L344.75 386.184
L348.947 386.261
L349.125 386.478
L355.732 386.586
L356 386.663
L364.035 386.76
L364.392 386.827
L367.874 386.938
L370.642 386.968
L374.391 387.014
L374.57 387.089
L388.408 387.19
L388.587 387.316
L408.228 387.416
L408.496 387.542
L420.906 387.689
L421.353 387.715
L461.529 387.966
L461.707 388.108
L479.563 388.217
L483.492 388.225
L488.223 388.332
L490.812 388.393
L518.311 388.467
L518.311 388.467" style="fill:none;stroke:#ff0000;stroke-dasharray:3.000000,6.000000;stroke-dashoffset:0.0;"/>
   </g>
   <g id="line2d_4">
    <path clip-path="url(#p7ff5b81e1d)" d="
M72 244.732
L72.0893 260.165
L72.625 200.146
L72.7142 196.808
L73.0714 170.124
L73.3392 164.25
L73.5178 154.173
L73.607 153.586
L73.7856 149.852
L73.8749 149.863
L74.0534 150.779
L74.1427 150.323
L74.3213 151.237
L74.4998 151.918
L74.5891 151.44
L74.7677 152.464
L74.857 147.964
L74.9462 148.296
L75.0355 148.4
L75.1248 148.233
L75.3926 149.78
L75.7498 145.493
L75.839 145.966
L75.9283 142.838
L76.1962 144.442
L76.464 139.776
L76.5533 140.425
L76.6426 140.277
L76.7318 140.279
L76.8211 139.125
L76.9104 139.81
L76.9997 139.723
L77.089 139.124
L77.1782 139.173
L77.3568 139.759
L77.7139 140.364
L77.8925 141.395
L77.9818 141.378
L78.071 140.837
L78.3389 141.787
L78.5174 141.893
L78.6067 141.685
L78.696 141.953
L78.7853 140.834
L78.8746 141.032
L78.9638 141.259
L79.1424 140.424
L79.321 141.433
L79.4102 141.561
L79.4995 141.335
L79.5888 141.736
L79.7674 141.217
L79.8566 141.811
L80.0352 140.708
L80.1245 141.375
L80.303 140.239
L80.4816 139.819
L80.5709 140.213
L80.6602 140.192
L80.7494 139.617
L80.928 140.369
L81.0173 139.821
L81.1066 140.231
L81.1958 139.501
L81.2851 139.526
L81.553 140.068
L81.7315 141.17
L81.8208 141.236
L81.9101 140.27
L81.9994 140.608
L82.0886 140.465
L82.3565 141.186
L82.535 141.124
L82.6243 140.887
L82.7136 141.399
L82.8922 140.633
L82.9814 141.467
L83.0707 141.336
L83.2493 141.915
L83.3386 142.171
L83.5171 141.469
L83.785 143.727
L83.8742 143.258
L84.4099 145.838
L84.767 146.759
L84.8563 146.707
L84.9456 146.247
L85.2134 146.994
L85.3027 146.723
L85.8384 147.761
L85.9277 147.341
L86.017 147.464
L86.1955 147.136
L86.3741 144.958
L86.4634 146.18
L86.5526 145.998
L86.6419 146.51
L86.8205 147.887
L86.9098 147.945
L86.999 148.135
L87.0883 148.915
L87.1776 148.877
L87.4454 150.243
L87.624 149.246
L87.7133 148.525
L87.8026 149.893
L87.8918 149.768
L87.9811 149.844
L88.0704 149.354
L88.249 150.299
L88.5168 150.932
L88.6061 150.906
L88.6954 151.047
L88.7846 150.598
L88.8739 150.746
L88.9632 150.378
L89.0525 151.447
L89.1418 150.962
L89.231 151.064
L89.3203 151.103
L89.4989 151.987
L89.5882 151.545
L89.7667 151.901
L89.856 152.2
L89.9453 151.755
L90.0346 153.269
L90.1238 153.158
L90.2131 153.083
L90.3024 153.536
L90.3917 153.499
L90.481 153.168
L90.6595 155.183
L90.7488 155.139
L91.0166 155.818
L91.1952 155.469
L91.2845 156.235
L91.3738 156.192
L91.463 156.201
L91.5523 157.076
L91.6416 156.887
L91.7309 156.537
L91.8202 157.022
L91.9094 156.926
L91.9987 157.354
L92.1773 156.844
L92.5344 157.326
L92.713 157.027
L92.8022 157.379
L92.8915 157.171
L93.1594 157.997
L93.2486 158.868
L93.4272 157.919
L93.5165 157.89
L93.6058 158.274
L93.7843 159.627
L94.0522 159.091
L94.1414 159.511
L94.32 158.548
L94.4093 158.991
L94.945 157.064
L95.2128 157.475
L95.3021 157.473
L95.4806 156.97
L95.5699 157.017
L95.6592 156.985
L95.7485 156.827
L95.927 156.917
L96.0163 157.878
L96.1056 157.73
L96.2842 157.037
L96.4627 157.283
L96.7306 156.874
L96.8198 156.988
L97.0877 158.249
L97.177 159.22
L97.2662 158.975
L97.3555 159.121
L97.4448 159.036
L97.5341 159.691
L97.7126 158.654
L97.8912 158.126
L97.9805 158.549
L98.159 158.161
L98.3376 158.997
L98.5162 159.734
L98.6947 159.238
L98.8733 159.616
L99.2304 161.829
L99.409 160.917
L99.5875 161.712
L99.7661 161.755
L99.8554 161.571
L100.123 164.18
L100.302 164.59
L100.48 164.039
L100.748 164.18
L100.927 163.912
L101.016 164.2
L101.195 165.743
L101.284 165.489
L101.552 166.253
L101.73 166.803
L101.82 167.019
L102.087 169.122
L102.177 169.034
L102.355 169.378
L102.534 169.159
L102.712 170.042
L102.802 169.93
L103.069 169.329
L103.248 169.218
L103.784 171.426
L103.873 171.426
L104.052 171.076
L104.141 171.633
L104.23 171.53
L104.319 171.663
L104.498 174.318
L104.766 174.395
L105.212 176.142
L105.391 177.323
L105.569 178.009
L105.748 178.233
L105.837 178.997
L106.016 178.669
L106.105 179.022
L106.194 178.898
L106.373 180.414
L106.462 180.735
L106.819 184.067
L106.998 183.768
L107.176 183.456
L107.355 183.835
L107.444 183.744
L107.801 188.118
L107.891 188.118
L108.158 190.022
L108.248 189.889
L108.337 190.251
L108.516 191.14
L108.605 191.116
L108.962 194.885
L109.23 194.97
L109.408 197.094
L109.498 197.156
L109.587 197.702
L109.765 197.502
L109.944 197.32
L110.212 198.22
L110.39 197.945
L110.569 198.837
L110.658 198.719
L110.748 200.417
L110.837 200.229
L111.105 200.484
L111.283 200.28
L111.372 200.256
L111.551 200.508
L111.73 202.353
L111.819 202.353
L111.997 203.435
L112.087 203.435
L112.444 205.32
L112.533 205.341
L112.622 205.833
L113.069 210.61
L113.158 210.788
L113.247 210.727
L113.337 210.401
L113.515 210.722
L113.694 210.424
L113.872 210.681
L114.051 210.673
L114.319 210.846
L114.408 210.691
L114.497 211.906
L114.587 211.883
L114.676 211.829
L114.854 213.208
L114.944 213.245
L115.122 213.805
L115.212 213.739
L115.479 216.455
L115.569 216.455
L115.658 217.311
L115.747 217.126
L115.926 217.553
L116.104 217.75
L116.461 217.324
L116.551 217.324
L116.729 217.696
L116.819 218.694
L116.908 218.64
L117.086 218.563
L117.354 219.848
L117.89 221.194
L118.068 221.338
L118.158 221.329
L118.247 221.522
L118.336 221.411
L118.515 222.119
L118.604 222.073
L118.783 222.393
L118.961 222.227
L119.14 222.415
L119.229 222.477
L119.408 224.055
L119.497 223.993
L119.676 224.721
L119.943 226.252
L120.033 226.083
L120.211 226.656
L120.39 227.5
L120.658 227.367
L120.747 227.651
L120.836 227.588
L121.104 227.187
L121.193 227.327
L121.283 227.221
L121.372 227.62
L121.729 231.602
L121.908 231.511
L122.086 232.168
L122.265 232.217
L122.443 233.053
L122.622 233.406
L122.8 233.341
L123.068 233.325
L123.247 233.815
L123.515 234.495
L123.604 234.467
L123.782 234.309
L123.961 234.369
L124.14 234.375
L124.407 234.343
L124.586 234.274
L124.675 234.328
L124.854 235.334
L124.943 235.232
L125.032 235.52
L125.3 237.308
L125.389 237.308
L125.657 237.1
L125.747 238.928
L125.836 238.916
L126.193 238.894
L126.282 239.331
L126.372 241.07
L126.461 240.859
L126.55 240.853
L126.729 241.139
L126.996 241.034
L127.264 241.16
L127.443 241.16
L127.8 241.634
L127.889 241.597
L128.068 242.084
L128.425 242.97
L128.514 242.947
L128.604 242.723
L128.693 242.855
L128.782 243.342
L128.871 243.325
L129.228 243.293
L129.407 243.666
L129.586 243.905
L129.764 243.822
L129.943 244.561
L130.211 244.626
L130.478 244.701
L131.193 246.714
L131.282 246.684
L131.371 246.83
L131.55 246.7
L131.728 246.746
L131.818 246.693
L132.085 247.018
L132.175 246.875
L132.532 247.19
L132.8 247.146
L132.889 247.146
L133.068 247.265
L133.335 247.199
L133.603 247.202
L133.782 247.335
L134.228 247.265
L134.407 247.589
L134.496 247.42
L134.675 248.352
L134.764 248.35
L134.942 249.353
L135.032 249.372
L135.3 250.446
L135.478 250.517
L135.567 250.501
L135.746 250.892
L136.103 251.003
L136.282 250.911
L136.549 250.955
L136.728 252.366
L136.996 252.283
L137.085 252.34
L137.174 252.824
L137.264 252.807
L137.442 252.802
L137.71 255.414
L137.889 255.412
L138.067 255.891
L138.424 257.074
L138.692 256.989
L138.781 257.588
L138.871 257.537
L139.049 257.443
L139.228 257.454
L139.406 258.536
L139.585 259.307
L139.853 260.34
L140.031 260.592
L140.121 260.591
L140.299 260.735
L140.567 260.722
L140.924 262.222
L141.013 262.322
L141.192 263.115
L141.371 263.171
L141.46 263.167
L141.638 264.148
L141.817 264.261
L142.174 268.739
L142.263 268.647
L142.442 269.969
L142.531 270.156
L142.71 271.117
L142.978 271.06
L143.513 271.425
L143.87 271.379
L144.049 271.848
L144.228 271.997
L144.406 272.098
L144.495 272.815
L144.585 272.759
L144.852 272.759
L145.031 272.889
L145.299 272.812
L145.477 273.236
L145.567 273.364
L145.745 273.997
L145.835 274.085
L146.013 275.118
L146.281 275.391
L146.37 275.371
L146.638 276.16
L146.727 276.132
L146.995 277.414
L147.084 277.41
L147.263 278.056
L147.531 278.056
L147.799 282.142
L147.977 283.591
L148.156 283.778
L148.513 283.736
L148.781 284.172
L149.138 284.031
L149.227 284.139
L149.406 285.119
L149.852 285.168
L149.941 285.228
L150.12 286.58
L150.299 288.084
L150.477 287.995
L150.656 288.201
L151.191 288.201
L151.37 288.454
L151.459 288.454
L151.638 288.746
L151.906 288.746
L152.084 290.014
L152.263 290.303
L152.352 290.27
L152.531 290.574
L152.62 290.566
L152.709 290.718
L152.798 292.347
L152.888 292.295
L152.977 292.339
L153.245 292.886
L153.513 292.768
L153.78 295.171
L153.959 295.276
L154.138 295.172
L154.316 295.172
L154.495 295.297
L154.584 295.297
L154.673 298.354
L154.763 298.349
L154.941 298.338
L155.12 298.508
L155.298 298.508
L155.477 299.242
L155.566 299.223
L155.745 299.373
L156.28 299.481
L156.637 299.766
L156.727 299.766
L156.905 300.325
L157.084 300.42
L157.352 300.34
L157.53 301.291
L157.709 301.434
L157.887 301.435
L158.066 301.734
L158.691 301.817
L159.227 302.043
L159.316 302.037
L159.405 303.362
L159.494 303.342
L159.673 303.381
L159.762 303.374
L160.119 303.79
L160.209 304.552
L160.298 304.535
L160.476 304.905
L160.923 304.865
L161.101 305.191
L161.637 305.193
L161.726 306.621
L161.816 306.6
L162.351 306.593
L162.53 307.675
L162.798 307.662
L162.976 309.924
L163.155 310.75
L163.333 310.743
L163.512 311.662
L163.691 311.725
L163.78 311.716
L164.226 313.405
L164.405 313.511
L164.494 313.509
L164.673 314.619
L164.762 314.63
L164.94 314.977
L165.03 314.977
L165.208 315.129
L165.565 315.09
L165.744 315.238
L166.101 315.24
L166.458 319.134
L166.637 319.283
L167.083 319.56
L167.262 320.156
L167.351 321.803
L167.44 321.789
L167.619 321.89
L167.708 321.885
L167.887 322.046
L168.155 321.992
L168.333 323.135
L168.78 323.127
L168.958 323.776
L169.047 323.768
L169.226 323.934
L171.101 324.243
L171.19 324.792
L171.279 324.777
L171.369 324.744
L171.547 326.662
L171.815 326.675
L171.994 326.857
L172.261 326.844
L172.529 328.526
L172.619 328.526
L172.797 328.977
L173.065 329.144
L173.868 329.109
L174.047 329.402
L174.761 329.342
L174.94 330.171
L175.297 330.21
L175.476 330.607
L175.922 330.581
L176.1 330.995
L176.725 330.989
L176.815 331.872
L176.904 331.862
L177.886 331.958
L178.065 332.352
L178.154 332.347
L178.332 333.219
L178.6 333.404
L178.779 333.836
L178.868 333.93
L179.047 334.383
L179.672 334.367
L179.85 335.913
L180.654 335.91
L180.832 337.255
L181.279 337.54
L181.457 339.209
L181.636 339.405
L182.082 339.414
L182.261 340.621
L183.689 340.595
L183.868 341.219
L184.404 341.289
L184.761 342.379
L185.296 342.458
L185.475 342.501
L185.564 343.296
L185.653 343.283
L186.011 343.599
L187.528 343.604
L188.153 343.593
L188.332 344.197
L188.421 344.199
L188.689 345.373
L189.225 345.347
L189.403 347.024
L189.492 347.017
L189.671 347.612
L189.939 347.649
L190.117 347.835
L190.296 347.858
L190.475 348.696
L190.921 348.693
L191.1 348.839
L191.635 348.837
L191.814 350.489
L191.992 350.779
L192.528 350.864
L192.707 350.942
L192.796 350.953
L192.974 351.669
L193.778 351.77
L193.956 352.644
L195.117 352.67
L195.296 352.927
L195.742 352.949
L196.099 353.247
L196.724 353.319
L196.992 353.544
L197.885 353.6
L198.153 353.705
L198.867 353.715
L199.045 353.837
L199.135 353.837
L199.313 355.265
L199.492 355.661
L199.581 355.689
L199.76 356.753
L200.742 356.832
L201.099 356.88
L201.367 359.359
L202.349 359.347
L202.527 359.939
L203.152 360.018
L203.331 360.735
L203.867 360.789
L204.045 361.131
L206.009 361.154
L206.188 361.358
L206.545 361.346
L206.724 365.498
L206.902 365.512
L207.081 365.983
L209.848 366.183
L210.473 366.726
L210.652 366.802
L211.277 366.895
L211.545 367.584
L212.17 367.671
L212.348 367.907
L212.973 367.905
L213.152 368.334
L213.33 368.371
L213.509 368.481
L213.866 368.548
L214.312 368.675
L215.741 368.73
L215.919 368.938
L217.169 369.046
L218.508 369.131
L220.294 369.144
L220.74 369.442
L221.187 369.438
L221.365 369.519
L223.062 369.557
L223.33 369.648
L223.776 369.676
L223.955 369.84
L224.222 369.918
L224.401 370.043
L224.937 370.119
L225.115 370.272
L225.383 370.343
L225.562 370.442
L227.436 370.51
L227.615 370.961
L228.151 371.05
L228.419 371.197
L228.865 371.194
L229.044 371.31
L231.9 371.418
L237.882 371.583
L238.061 372.019
L238.329 372.069
L239.043 372.128
L239.221 372.201
L241.186 372.226
L241.364 378.266
L242.971 378.362
L243.15 378.531
L243.596 378.53
L243.775 378.802
L244.043 378.802
L244.221 379.523
L244.31 379.523
L244.489 379.753
L248.685 379.879
L250.381 379.989
L251.542 380.006
L252.971 380.007
L253.149 380.81
L253.328 381.182
L253.596 381.194
L253.774 382.247
L256.452 382.337
L256.72 382.347
L256.988 382.617
L267.077 382.737
L267.434 382.796
L267.523 382.803
L267.702 383.004
L268.059 383.109
L268.237 383.213
L270.112 383.213
L270.291 383.356
L274.398 383.487
L276.719 383.582
L277.523 383.593
L277.701 384.678
L283.772 384.78
L285.468 384.81
L285.647 386.02
L286.004 386.095
L286.183 386.195
L292.522 386.271
L292.7 386.368
L293.147 386.411
L298.682 386.482
L298.95 386.527
L302.342 386.634
L304.307 386.663
L306.985 386.684
L307.164 387.31
L316.627 387.411
L317.163 387.437
L323.948 387.478
L324.127 387.617
L328.412 387.672
L328.591 387.748
L346.357 387.788
L346.536 388.169
L359.392 388.254
L359.66 388.31
L364.124 388.4
L364.392 388.452
L469.296 388.72
L518.311 388.763
L518.311 388.763" style="fill:none;stroke:#00bfbf;stroke-dasharray:5.000000,1.000000,2.000000,1.000000,5.000000,1.000000;stroke-dashoffset:0.0;"/>
   </g>
   <g id="line2d_5">
    <path clip-path="url(#p7ff5b81e1d)" d="
M72 225.146
L72.0893 238.228
L72.5357 194.994
L72.8035 191.401
L73.3392 159.515
L73.4285 158.906
L73.607 160.656
L73.6963 159.072
L73.7856 159.131
L73.8749 159.448
L74.0534 154.709
L74.4106 144.682
L74.6784 142.736
L74.857 137.112
L75.0355 138.567
L75.2141 134.36
L75.3926 133.669
L75.6605 127.61
L75.7498 127.819
L75.9283 125.703
L76.0176 126.041
L76.3747 119.353
L76.5533 117.65
L76.6426 117.725
L76.7318 115.047
L76.8211 115.509
L77.1782 117.245
L77.2675 116.868
L77.3568 117.145
L77.7139 120.556
L77.8032 120.223
L77.8925 120.553
L78.3389 123.745
L78.4282 123.709
L78.5174 123.266
L78.7853 125.747
L78.8746 126.97
L78.9638 126.793
L79.5888 134.141
L79.6781 133.463
L79.7674 133.601
L80.1245 137.077
L80.2138 136.912
L80.303 135.937
L80.3923 136.438
L80.8387 142.413
L81.0173 142.981
L81.1066 143.01
L81.4637 147.308
L81.553 147.293
L81.8208 149.856
L82.2672 152.787
L82.3565 152.787
L82.7136 156.097
L83.16 160.291
L83.2493 160.499
L83.6064 168.313
L83.6957 168.327
L83.8742 171.772
L83.9635 172.159
L84.2314 177.966
L84.4099 181.315
L84.4992 181.387
L84.5885 181.696
L84.6778 181.535
L84.767 181.884
L84.8563 181.806
L84.9456 182.016
L85.5706 185.517
L85.6598 185.739
L85.9277 187.78
L86.017 187.843
L86.9098 198.471
L87.0883 202.555
L87.8918 210.503
L87.9811 210.622
L88.249 211.707
L88.7846 211.624
L88.9632 212.037
L89.3203 211.964
L89.6774 212.756
L90.0346 217.063
L90.2131 217.952
L90.481 220.209
L90.5702 220.348
L91.5523 231.901
L91.7309 231.953
L91.9987 235.189
L92.088 235.605
L92.1773 235.566
L92.3558 235.545
L92.5344 236.236
L92.9808 236.394
L93.2486 237.416
L93.3379 237.416
L93.5165 239.845
L93.6058 240.172
L93.8736 243.092
L93.9629 243.894
L94.1414 246.499
L94.32 248.702
L94.8557 251.868
L94.945 252.579
L95.1235 254.783
L95.8378 254.877
L96.0163 254.842
L96.1056 255.044
L96.2842 255.937
L96.3734 255.937
L96.6413 257.19
L96.8198 257.248
L96.9091 257.592
L97.0877 259.068
L97.177 259.504
L97.2662 260.658
L97.3555 260.597
L97.7126 261.807
L97.8912 261.742
L98.0698 263.39
L98.4269 266.748
L98.6947 268.271
L98.784 268.243
L98.9626 268.857
L99.2304 270.686
L99.4982 270.686
L99.6768 270.89
L99.7661 270.89
L99.9446 271.321
L100.123 272.109
L100.302 272.722
L100.48 272.722
L100.659 273.119
L100.837 273.394
L100.927 273.707
L101.462 278.306
L101.641 278.389
L101.73 278.667
L101.909 281.334
L102.266 283.364
L102.355 283.364
L102.534 283.792
L103.069 283.723
L103.516 284.641
L104.052 284.718
L104.766 287.036
L104.944 287.035
L105.034 287.007
L105.301 288.336
L105.569 289.404
L105.748 289.345
L106.016 290.639
L106.373 290.637
L106.551 291.61
L106.73 291.61
L106.908 291.731
L107.712 291.799
L107.891 291.874
L107.98 295.233
L108.069 295.23
L108.158 295.3
L108.248 295.859
L108.426 297.326
L108.605 297.546
L108.783 298.693
L108.873 298.697
L109.051 300.56
L109.14 300.608
L109.23 301.471
L109.408 304.407
L109.676 304.426
L110.033 305.101
L111.194 305.099
L111.372 305.514
L111.462 305.496
L111.64 308.129
L111.908 308.151
L112.087 309.746
L112.265 309.876
L112.444 310.181
L112.622 310.175
L112.801 310.417
L112.98 311.513
L113.247 311.9
L115.033 311.902
L115.212 312.541
L115.658 312.705
L115.836 312.775
L116.194 313.96
L116.283 313.968
L116.372 314.15
L116.819 316.008
L118.515 316.04
L118.961 317.253
L119.408 317.35
L119.676 317.389
L119.943 317.434
L120.3 318.486
L122.175 318.492
L122.354 318.835
L122.532 318.835
L122.711 318.99
L123.336 319.437
L123.425 319.436
L123.515 321.822
L123.604 321.818
L124.854 321.814
L125.032 322.483
L126.104 322.502
L126.282 322.589
L126.461 322.596
L126.639 322.756
L126.907 322.765
L127.086 323.061
L127.532 323.085
L127.711 323.644
L128.604 323.691
L128.782 324.127
L129.586 324.124
L129.764 324.242
L130.032 324.276
L132.264 324.268
L132.532 324.328
L133.335 324.422
L133.871 324.831
L133.96 324.831
L134.139 327.382
L134.496 327.366
L134.675 328.691
L137.085 328.766
L137.264 328.86
L137.353 328.86
L137.532 329.09
L140.031 329.065
L140.656 329.049
L140.835 329.269
L141.103 329.257
L141.638 331.201
L143.513 331.296
L143.692 331.421
L144.406 331.416
L144.585 331.768
L147.62 331.836
L147.799 331.921
L153.245 331.906
L153.423 331.995
L153.691 331.995
L153.87 332.306
L154.584 332.304
L154.763 332.433
L155.388 332.489
L155.655 332.548
L158.959 332.592
L159.137 332.664
L159.852 332.773
L160.655 332.859
L162.351 332.884
L162.53 334.749
L163.244 334.83
L163.512 334.872
L164.226 334.872
L164.405 335.393
L169.851 335.447
L170.029 336.92
L176.368 337.029
L178.332 337.228
L178.422 337.221
L178.6 337.501
L181.368 337.577
L181.547 337.698
L184.493 337.74
L184.761 337.901
L184.85 337.901
L185.028 338.155
L185.296 338.21
L185.475 338.394
L189.403 338.493
L190.028 338.511
L190.832 338.511
L191.01 339.517
L194.849 339.51
L195.117 339.554
L197.617 339.633
L202.438 339.721
L202.617 339.793
L205.563 339.865
L205.741 339.959
L206.545 339.951
L206.724 340.144
L207.081 340.144
L207.259 341.267
L213.062 341.317
L213.241 341.558
L215.652 341.662
L215.83 343.293
L216.276 343.309
L216.366 343.312
L216.544 343.828
L217.08 343.83
L217.259 344.415
L218.508 344.483
L218.687 344.573
L220.74 344.582
L220.919 344.905
L223.419 344.926
L223.597 346.166
L223.687 346.166
L223.865 346.672
L223.955 346.678
L224.133 347.051
L227.258 347.086
L227.436 348.991
L227.794 348.991
L227.972 349.648
L228.151 349.727
L228.686 349.765
L228.865 350.017
L231.097 350.09
L231.543 350.348
L231.722 350.357
L231.9 354.198
L234.757 354.204
L234.936 354.489
L235.472 354.521
L235.74 354.929
L238.507 354.924
L238.686 355.195
L238.954 355.22
L239.132 358.536
L241.275 358.538
L241.453 358.799
L241.811 358.882
L242.168 358.908
L242.346 359.52
L242.436 359.515
L242.614 359.654
L244.31 359.745
L244.489 360.553
L245.114 360.56
L245.292 361.408
L247.614 361.419
L249.042 361.498
L249.31 361.557
L250.203 361.652
L250.381 361.729
L250.471 361.729
L250.649 362.028
L253.328 362.125
L253.506 362.236
L256.72 362.26
L256.899 362.437
L257.256 362.494
L259.934 362.593
L260.202 362.641
L260.738 362.64
L260.916 363.296
L261.095 363.296
L261.274 363.455
L266.988 363.526
L267.166 363.624
L268.148 363.635
L268.327 363.927
L274.219 364.008
L274.487 364.036
L274.666 364.539
L276.273 364.524
L276.451 364.698
L278.862 364.713
L279.04 365.109
L279.13 365.109
L279.308 365.253
L281.272 365.253
L281.451 365.521
L282.076 365.529
L282.254 365.68
L288.772 365.753
L289.129 365.793
L290.2 365.802
L292.343 365.797
L292.522 366.425
L294.754 366.45
L294.932 366.537
L305.646 366.637
L305.824 366.728
L317.966 366.829
L318.234 366.893
L321.538 366.952
L321.716 367.042
L322.609 367.057
L322.788 367.226
L327.966 367.315
L328.412 367.339
L329.126 367.339
L329.305 367.695
L336.715 367.751
L336.894 367.932
L347.786 367.986
L347.964 368.322
L352.161 368.424
L352.696 368.445
L353.589 368.449
L353.768 368.661
L358.857 368.715
L359.035 369.595
L365.82 369.676
L365.999 369.75
L368.945 369.826
L369.124 369.934
L369.66 370.039
L370.552 370.052
L376.534 370.084
L376.713 370.405
L379.748 370.439
L379.927 370.556
L386.623 370.597
L386.801 370.68
L387.248 370.782
L387.426 370.985
L390.64 371.055
L390.908 371.109
L394.479 371.182
L394.658 371.307
L401.443 371.363
L401.711 371.432
L416.71 371.522
L416.889 371.765
L425.995 371.806
L426.174 371.943
L434.298 372.032
L434.566 372.091
L441.351 372.167
L441.619 372.23
L444.119 372.229
L444.298 372.458
L444.565 372.454
L444.744 372.572
L456.35 372.609
L456.529 372.825
L470.189 372.92
L470.367 373.115
L473.76 373.106
L473.939 373.253
L482.42 373.323
L482.688 373.367
L501.169 373.475
L501.348 373.549
L506.526 373.644
L506.972 373.668
L510.633 373.72
L513.936 373.797
L514.115 373.927
L518.311 373.947
L518.311 373.947" style="fill:none;stroke:#bf00bf;stroke-linecap:square;"/>
   </g>
   <g id="matplotlib.axis_1">
    <g id="xtick_1">
     <g id="line2d_6">
      <defs>
       <path d="
M0 0
L0 -4" id="mc7db9fdffb" style="stroke:#000000;stroke-width:0.5;"/>
      </defs>
      <g>
       <use style="stroke:#000000;stroke-width:0.5;" x="72.0" xlink:href="#mc7db9fdffb" y="388.8"/>
      </g>
     </g>
     <g id="line2d_7">
      <defs>
       <path d="
M0 0
L0 4" id="m5a7d422ac3" style="stroke:#000000;stroke-width:0.5;"/>
      </defs>
      <g>
       <use style="stroke:#000000;stroke-width:0.5;" x="72.0" xlink:href="#m5a7d422ac3" y="43.2"/>
      </g>
     </g>
     <g id="text_1">
      <!-- 0 -->
      <defs>
       <path d="
M56.9844 36.375
Q56.9844 16.7969 50.8594 7.64062
Q44.7344 -1.51562 31.8438 -1.51562
Q18.75 -1.51562 12.7188 7.76562
Q6.6875 17.0469 6.6875 36.2812
Q6.6875 55.6719 12.7812 64.9219
Q18.8906 74.1719 31.8438 74.1719
Q44.9219 74.1719 50.9531 64.7656
Q56.9844 55.375 56.9844 36.375
M44.1406 14.2031
Q45.8438 18.1719 46.4531 23.5156
Q47.0781 28.8594 47.0781 36.375
Q47.0781 43.7969 46.4531 49.2656
Q45.8438 54.7344 44.0938 58.5469
Q42.3906 62.3125 39.4219 64.2031
Q36.4688 66.1094 31.8438 66.1094
Q27.25 66.1094 24.2344 64.2031
Q21.2344 62.3125 19.4844 58.4531
Q17.8281 54.8281 17.2188 49.0156
Q16.6094 43.2188 16.6094 36.2812
Q16.6094 28.6562 17.1406 23.5312
Q17.6719 18.4062 19.4375 14.3594
Q21.0469 10.5469 24 8.54688
Q26.9531 6.54688 31.8438 6.54688
Q36.4219 6.54688 39.4531 8.45312
Q42.4844 10.3594 44.1406 14.2031" id="Verdana-30"/>
      </defs>
      <g transform="translate(68.9821875 401.918125)scale(0.12 -0.12)">
       <use xlink:href="#Verdana-30"/>
      </g>
     </g>
    </g>
    <g id="xtick_2">
     <g id="line2d_8">
      <g>
       <use style="stroke:#000000;stroke-width:0.5;" x="161.28" xlink:href="#mc7db9fdffb" y="388.8"/>
      </g>
     </g>
     <g id="line2d_9">
      <g>
       <use style="stroke:#000000;stroke-width:0.5;" x="161.28" xlink:href="#m5a7d422ac3" y="43.2"/>
      </g>
     </g>
     <g id="text_2">
      <!-- 1000 -->
      <defs>
       <path d="
M52.9375 0
L13.5781 0
L13.5781 7.42188
L28.7188 7.42188
L28.7188 56.1562
L13.5781 56.1562
L13.5781 62.7969
Q16.6562 62.7969 20.1719 63.2969
Q23.6875 63.8125 25.4844 64.7969
Q27.7344 66.0156 29.0312 67.8906
Q30.3281 69.7812 30.5156 72.9531
L38.0938 72.9531
L38.0938 7.42188
L52.9375 7.42188
z
" id="Verdana-31"/>
      </defs>
      <g transform="translate(147.2315625 401.918125)scale(0.12 -0.12)">
       <use xlink:href="#Verdana-31"/>
       <use x="63.57421875" xlink:href="#Verdana-30"/>
       <use x="127.1484375" xlink:href="#Verdana-30"/>
       <use x="190.72265625" xlink:href="#Verdana-30"/>
      </g>
     </g>
    </g>
    <g id="xtick_3">
     <g id="line2d_10">
      <g>
       <use style="stroke:#000000;stroke-width:0.5;" x="250.56" xlink:href="#mc7db9fdffb" y="388.8"/>
      </g>
     </g>
     <g id="line2d_11">
      <g>
       <use style="stroke:#000000;stroke-width:0.5;" x="250.56" xlink:href="#m5a7d422ac3" y="43.2"/>
      </g>
     </g>
     <g id="text_3">
      <!-- 2000 -->
      <defs>
       <path d="
M57.0781 0
L7.85938 0
L7.85938 10.2031
Q12.9844 14.5938 18.1406 18.9844
Q23.2969 23.3906 27.7344 27.7344
Q37.1094 36.8125 40.5781 42.1562
Q44.0469 47.5156 44.0469 53.7188
Q44.0469 59.375 40.3125 62.5625
Q36.5781 65.7656 29.8906 65.7656
Q25.4375 65.7656 20.2656 64.2031
Q15.0938 62.6406 10.1562 59.4219
L9.67188 59.4219
L9.67188 69.6719
Q13.1406 71.3906 18.9219 72.7969
Q24.7031 74.2188 30.125 74.2188
Q41.3125 74.2188 47.6562 68.8125
Q54 63.4219 54 54.2031
Q54 50.0469 52.9531 46.4531
Q51.9062 42.875 49.8594 39.6562
Q47.9531 36.625 45.3906 33.6875
Q42.8281 30.7656 39.1562 27.2031
Q33.9375 22.0781 28.3594 17.2656
Q22.7969 12.4531 17.9688 8.34375
L57.0781 8.34375
z
" id="Verdana-32"/>
      </defs>
      <g transform="translate(236.1684375 401.918125)scale(0.12 -0.12)">
       <use xlink:href="#Verdana-32"/>
       <use x="63.57421875" xlink:href="#Verdana-30"/>
       <use x="127.1484375" xlink:href="#Verdana-30"/>
       <use x="190.72265625" xlink:href="#Verdana-30"/>
      </g>
     </g>
    </g>
    <g id="xtick_4">
     <g id="line2d_12">
      <g>
       <use style="stroke:#000000;stroke-width:0.5;" x="339.84" xlink:href="#mc7db9fdffb" y="388.8"/>
      </g>
     </g>
     <g id="line2d_13">
      <g>
       <use style="stroke:#000000;stroke-width:0.5;" x="339.84" xlink:href="#m5a7d422ac3" y="43.2"/>
      </g>
     </g>
     <g id="text_4">
      <!-- 3000 -->
      <defs>
       <path d="
M50.6875 35.0156
Q53.0312 32.9062 54.5469 29.7344
Q56.0625 26.5625 56.0625 21.5312
Q56.0625 16.5469 54.25 12.3906
Q52.4375 8.25 49.1719 5.17188
Q45.5156 1.76562 40.5469 0.125
Q35.5938 -1.51562 29.6875 -1.51562
Q23.6406 -1.51562 17.7812 -0.0625
Q11.9219 1.375 8.15625 3.07812
L8.15625 13.2812
L8.89062 13.2812
Q13.0312 10.5469 18.6406 8.73438
Q24.2656 6.9375 29.5 6.9375
Q32.5625 6.9375 36.0312 7.95312
Q39.5 8.98438 41.6562 10.9844
Q43.8906 13.1406 44.9844 15.7188
Q46.0938 18.3125 46.0938 22.2656
Q46.0938 26.1719 44.8438 28.7344
Q43.6094 31.2969 41.4062 32.7656
Q39.2031 34.2812 36.0781 34.8438
Q32.9531 35.4062 29.3438 35.4062
L24.9531 35.4062
L24.9531 43.5
L28.375 43.5
Q35.7969 43.5 40.2031 46.5938
Q44.625 49.7031 44.625 55.6719
Q44.625 58.2969 43.5 60.2656
Q42.3906 62.25 40.375 63.5312
Q38.2812 64.7969 35.8906 65.2812
Q33.5 65.7656 30.4688 65.7656
Q25.8281 65.7656 20.5938 64.1094
Q15.375 62.4531 10.75 59.4219
L10.25 59.4219
L10.25 69.625
Q13.7188 71.3438 19.5 72.7812
Q25.2969 74.2188 30.7188 74.2188
Q36.0312 74.2188 40.0781 73.2344
Q44.1406 72.2656 47.4062 70.125
Q50.9219 67.7812 52.7344 64.4531
Q54.5469 61.1406 54.5469 56.6875
Q54.5469 50.6406 50.2656 46.125
Q46 41.6094 40.1875 40.4375
L40.1875 39.75
Q42.5312 39.3594 45.5469 38.1094
Q48.5781 36.8594 50.6875 35.0156" id="Verdana-33"/>
      </defs>
      <g transform="translate(325.46625 401.918125)scale(0.12 -0.12)">
       <use xlink:href="#Verdana-33"/>
       <use x="63.57421875" xlink:href="#Verdana-30"/>
       <use x="127.1484375" xlink:href="#Verdana-30"/>
       <use x="190.72265625" xlink:href="#Verdana-30"/>
      </g>
     </g>
    </g>
    <g id="xtick_5">
     <g id="line2d_14">
      <g>
       <use style="stroke:#000000;stroke-width:0.5;" x="429.12" xlink:href="#mc7db9fdffb" y="388.8"/>
      </g>
     </g>
     <g id="line2d_15">
      <g>
       <use style="stroke:#000000;stroke-width:0.5;" x="429.12" xlink:href="#m5a7d422ac3" y="43.2"/>
      </g>
     </g>
     <g id="text_5">
      <!-- 4000 -->
      <defs>
       <path d="
M58.7344 20.4531
L47.9531 20.4531
L47.9531 0
L38.5781 0
L38.5781 20.4531
L3.76562 20.4531
L3.76562 31.6875
L38.9688 72.7031
L47.9531 72.7031
L47.9531 28.2656
L58.7344 28.2656
z

M38.5781 28.2656
L38.5781 61.0781
L10.4062 28.2656
z
" id="Verdana-34"/>
      </defs>
      <g transform="translate(414.4828125 401.918125)scale(0.12 -0.12)">
       <use xlink:href="#Verdana-34"/>
       <use x="63.57421875" xlink:href="#Verdana-30"/>
       <use x="127.1484375" xlink:href="#Verdana-30"/>
       <use x="190.72265625" xlink:href="#Verdana-30"/>
      </g>
     </g>
    </g>
    <g id="xtick_6">
     <g id="line2d_16">
      <g>
       <use style="stroke:#000000;stroke-width:0.5;" x="518.4" xlink:href="#mc7db9fdffb" y="388.8"/>
      </g>
     </g>
     <g id="line2d_17">
      <g>
       <use style="stroke:#000000;stroke-width:0.5;" x="518.4" xlink:href="#m5a7d422ac3" y="43.2"/>
      </g>
     </g>
     <g id="text_6">
      <!-- 5000 -->
      <defs>
       <path d="
M56.5 23.0938
Q56.5 18.0156 54.6406 13.375
Q52.7812 8.73438 49.5625 5.5625
Q46.0469 2.15625 41.1875 0.3125
Q36.3281 -1.51562 29.9375 -1.51562
Q23.9688 -1.51562 18.4531 -0.265625
Q12.9375 0.984375 9.125 2.73438
L9.125 13.0312
L9.8125 13.0312
Q13.8125 10.5 19.1875 8.71875
Q24.5625 6.9375 29.7344 6.9375
Q33.2031 6.9375 36.4531 7.90625
Q39.7031 8.89062 42.2344 11.3281
Q44.3906 13.4219 45.4844 16.3438
Q46.5781 19.2812 46.5781 23.1406
Q46.5781 26.9062 45.2812 29.4844
Q44 32.0781 41.7031 33.6406
Q39.1562 35.5 35.5156 36.25
Q31.8906 37.0156 27.3906 37.0156
Q23.0938 37.0156 19.1094 36.4219
Q15.1406 35.8438 12.25 35.25
L12.25 72.7031
L56 72.7031
L56 64.1562
L21.6875 64.1562
L21.6875 44.8281
Q23.7812 45.0156 25.9688 45.1094
Q28.1719 45.2188 29.7812 45.2188
Q35.6875 45.2188 40.125 44.2188
Q44.5781 43.2188 48.2969 40.6719
Q52.2031 37.9844 54.3438 33.7344
Q56.5 29.5 56.5 23.0938" id="Verdana-35"/>
      </defs>
      <g transform="translate(504.084375 401.918125)scale(0.12 -0.12)">
       <use xlink:href="#Verdana-35"/>
       <use x="63.57421875" xlink:href="#Verdana-30"/>
       <use x="127.1484375" xlink:href="#Verdana-30"/>
       <use x="190.72265625" xlink:href="#Verdana-30"/>
      </g>
     </g>
    </g>
    <g id="text_7">
     <!-- Objective function exectuions -->
     <defs>
      <path d="
M57.0312 27.6875
Q57.0312 20.8438 55.0938 15.375
Q53.1719 9.90625 49.9062 6.20312
Q46.4375 2.34375 42.2812 0.40625
Q38.1406 -1.51562 33.1562 -1.51562
Q28.5156 -1.51562 25.0469 -0.40625
Q21.5781 0.6875 18.2188 2.54688
L17.625 0
L9.03125 0
L9.03125 75.9844
L18.2188 75.9844
L18.2188 48.8281
Q22.0781 52 26.4219 54.0312
Q30.7656 56.0625 36.1875 56.0625
Q45.8438 56.0625 51.4375 48.6406
Q57.0312 41.2188 57.0312 27.6875
M47.5625 27.4375
Q47.5625 37.2031 44.3281 42.25
Q41.1094 47.3125 33.9375 47.3125
Q29.9375 47.3125 25.8281 45.5781
Q21.7344 43.8438 18.2188 41.1094
L18.2188 9.85938
Q22.125 8.10938 24.9219 7.42188
Q27.7344 6.73438 31.2969 6.73438
Q38.9219 6.73438 43.2344 11.7344
Q47.5625 16.75 47.5625 27.4375" id="Verdana-62"/>
      <path d="
M56.2031 54.5469
L34.125 0
L24.9062 0
L2.98438 54.5469
L12.9375 54.5469
L29.8281 11.1406
L46.5781 54.5469
z
" id="Verdana-76"/>
      <path d="
M56.25 0
L44.6719 0
L29.2031 20.9531
L13.625 0
L2.9375 0
L24.2188 27.2031
L3.125 54.5469
L14.7031 54.5469
L30.0781 33.9375
L45.5156 54.5469
L56.25 54.5469
L34.8125 27.6875
z
" id="Verdana-78"/>
      <path d="
M54.6875 26.3125
L14.5 26.3125
Q14.5 21.2969 16.0156 17.5469
Q17.5312 13.8125 20.1719 11.4219
Q22.7031 9.07812 26.1875 7.90625
Q29.6875 6.73438 33.8906 6.73438
Q39.4531 6.73438 45.0938 8.95312
Q50.7344 11.1875 53.125 13.3281
L53.6094 13.3281
L53.6094 3.32812
Q48.9688 1.375 44.1406 0.046875
Q39.3125 -1.26562 33.9844 -1.26562
Q20.4062 -1.26562 12.7812 6.07812
Q5.17188 13.4219 5.17188 26.9531
Q5.17188 40.3281 12.4688 48.1875
Q19.7812 56.0625 31.6875 56.0625
Q42.7188 56.0625 48.7031 49.6094
Q54.6875 43.1719 54.6875 31.2969
z

M45.75 33.3438
Q45.7031 40.5781 42.1094 44.5312
Q38.5312 48.4844 31.2031 48.4844
Q23.8281 48.4844 19.4531 44.1406
Q15.0938 39.7969 14.5 33.3438
z
" id="Verdana-65"/>
      <path d="
M49.3594 3.42188
Q44.7812 1.21875 40.6562 0
Q36.5312 -1.21875 31.8906 -1.21875
Q25.9844 -1.21875 21.0469 0.515625
Q16.1094 2.25 12.5938 5.76562
Q9.03125 9.28125 7.07812 14.6406
Q5.125 20.0156 5.125 27.2031
Q5.125 40.5781 12.4688 48.1875
Q19.8281 55.8125 31.8906 55.8125
Q36.5781 55.8125 41.0938 54.4844
Q45.6094 53.1719 49.3594 51.2656
L49.3594 41.0625
L48.875 41.0625
Q44.6719 44.3438 40.2031 46.0938
Q35.75 47.8594 31.5 47.8594
Q23.6875 47.8594 19.1719 42.6094
Q14.6562 37.3594 14.6562 27.2031
Q14.6562 17.3281 19.0625 12.0312
Q23.4844 6.73438 31.5 6.73438
Q34.2812 6.73438 37.1562 7.46875
Q40.0469 8.20312 42.3281 9.375
Q44.3438 10.4062 46.0938 11.5469
Q47.8594 12.7031 48.875 13.5312
L49.3594 13.5312
z
" id="Verdana-63"/>
      <path d="
M26.0312 63.6719
L15.6719 63.6719
L15.6719 73.1875
L26.0312 73.1875
z

M25.4375 -1.3125
Q25.4375 -10.8906 20.5469 -15.7656
Q15.6719 -20.6562 7.46875 -20.6562
Q5.51562 -20.6562 2.3125 -20.2656
Q-0.875 -19.875 -3.03125 -19.2812
L-3.03125 -10.5469
L-2.54688 -10.5469
Q-1.17188 -11.0781 1.14062 -11.7656
Q3.46875 -12.4531 5.67188 -12.4531
Q9.1875 -12.4531 11.3281 -11.4688
Q13.4844 -10.5 14.5469 -8.54688
Q15.625 -6.59375 15.9375 -3.82812
Q16.2656 -1.07812 16.2656 2.875
L16.2656 46.8281
L4.89062 46.8281
L4.89062 54.5469
L25.4375 54.5469
z
" id="Verdana-6a"/>
      <path d="
M18.8906 63.6719
L8.54688 63.6719
L8.54688 73.1875
L18.8906 73.1875
z

M18.3125 0
L9.125 0
L9.125 54.5469
L18.3125 54.5469
z
" id="Verdana-69"/>
      <path d="
M54.6406 0
L45.4531 0
L45.4531 31.0625
Q45.4531 34.8125 45.0156 38.1094
Q44.5781 41.4062 43.4062 43.2656
Q42.1875 45.3125 39.8906 46.3125
Q37.5938 47.3125 33.9375 47.3125
Q30.1719 47.3125 26.0625 45.4531
Q21.9688 43.6094 18.2188 40.7188
L18.2188 0
L9.03125 0
L9.03125 54.5469
L18.2188 54.5469
L18.2188 48.4844
Q22.5156 52.0469 27.0938 54.0469
Q31.6875 56.0625 36.5312 56.0625
Q45.3594 56.0625 50 50.7344
Q54.6406 45.4062 54.6406 35.4062
z
" id="Verdana-6e"/>
      <path d="
M48 15.7188
Q48 8.25 41.8125 3.46875
Q35.6406 -1.3125 24.9531 -1.3125
Q18.8906 -1.3125 13.8438 0.125
Q8.79688 1.5625 5.375 3.26562
L5.375 13.5781
L5.85938 13.5781
Q10.2031 10.2969 15.5156 8.375
Q20.8438 6.45312 25.7344 6.45312
Q31.7812 6.45312 35.2031 8.40625
Q38.625 10.3594 38.625 14.5469
Q38.625 17.7812 36.7656 19.4375
Q34.9062 21.0938 29.6406 22.2656
Q27.6875 22.7031 24.5312 23.2812
Q21.3906 23.875 18.7969 24.5625
Q11.625 26.4688 8.60938 30.1562
Q5.60938 33.8438 5.60938 39.2031
Q5.60938 42.5781 7 45.5469
Q8.40625 48.5312 11.2344 50.875
Q13.9688 53.1719 18.1875 54.5156
Q22.4062 55.8594 27.6406 55.8594
Q32.5156 55.8594 37.5156 54.6562
Q42.5312 53.4688 45.8438 51.7656
L45.8438 41.9375
L45.3594 41.9375
Q41.8438 44.5312 36.8125 46.3125
Q31.7812 48.0938 26.9531 48.0938
Q21.9219 48.0938 18.4531 46.1562
Q14.9844 44.2344 14.9844 40.4375
Q14.9844 37.0625 17.0938 35.3594
Q19.1406 33.6406 23.7344 32.5625
Q26.2656 31.9844 29.4062 31.3906
Q32.5625 30.8125 34.6719 30.3281
Q41.0625 28.8594 44.5312 25.2969
Q48 21.6875 48 15.7188" id="Verdana-73"/>
      <path d="
M38.375 67.0938
L37.8906 67.0938
Q36.375 67.5312 33.9375 67.9844
Q31.5 68.4531 29.6406 68.4531
Q23.7344 68.4531 21.0625 65.8438
Q18.4062 63.2344 18.4062 56.3906
L18.4062 54.5469
L34.9688 54.5469
L34.9688 46.8281
L18.7031 46.8281
L18.7031 0
L9.51562 0
L9.51562 46.8281
L3.32812 46.8281
L3.32812 54.5469
L9.51562 54.5469
L9.51562 56.3438
Q9.51562 66.0625 14.3438 71.2656
Q19.1875 76.4688 28.3281 76.4688
Q31.3906 76.4688 33.8594 76.1719
Q36.3281 75.875 38.375 75.4844
z
" id="Verdana-66"/>
      <path id="Verdana-20"/>
      <path d="
M63.9688 64.3594
Q68.4062 59.4688 70.7656 52.3906
Q73.1406 45.3125 73.1406 36.3281
Q73.1406 27.3438 70.7188 20.2344
Q68.3125 13.1406 63.9688 8.40625
Q59.4688 3.46875 53.3438 0.96875
Q47.2188 -1.51562 39.3594 -1.51562
Q31.6875 -1.51562 25.4062 1.01562
Q19.1406 3.5625 14.75 8.40625
Q10.3594 13.2344 7.98438 20.2656
Q5.60938 27.2969 5.60938 36.3281
Q5.60938 45.2188 7.95312 52.2656
Q10.2969 59.3281 14.7969 64.3594
Q19.0938 69.1406 25.4688 71.6719
Q31.8438 74.2188 39.3594 74.2188
Q47.1719 74.2188 53.3906 71.6562
Q59.625 69.0938 63.9688 64.3594
M63.0938 36.3281
Q63.0938 50.4844 56.7344 58.1719
Q50.3906 65.875 39.4062 65.875
Q28.3281 65.875 22 58.1719
Q15.6719 50.4844 15.6719 36.3281
Q15.6719 22.0156 22.1094 14.4219
Q28.5625 6.84375 39.4062 6.84375
Q50.25 6.84375 56.6719 14.4219
Q63.0938 22.0156 63.0938 36.3281" id="Verdana-4f"/>
      <path d="
M55.5156 27.25
Q55.5156 13.9219 48.6719 6.20312
Q41.8438 -1.51562 30.375 -1.51562
Q18.7969 -1.51562 11.9844 6.20312
Q5.17188 13.9219 5.17188 27.25
Q5.17188 40.5781 11.9844 48.3125
Q18.7969 56.0625 30.375 56.0625
Q41.8438 56.0625 48.6719 48.3125
Q55.5156 40.5781 55.5156 27.25
M46.0469 27.25
Q46.0469 37.8438 41.8906 42.9844
Q37.75 48.1406 30.375 48.1406
Q22.9062 48.1406 18.7812 42.9844
Q14.6562 37.8438 14.6562 27.25
Q14.6562 17 18.7969 11.6875
Q22.9531 6.39062 30.375 6.39062
Q37.7031 6.39062 41.875 11.6406
Q46.0469 16.8906 46.0469 27.25" id="Verdana-6f"/>
      <path d="
M37.3594 0.484375
Q34.7656 -0.203125 31.7031 -0.640625
Q28.6562 -1.07812 26.2656 -1.07812
Q17.9219 -1.07812 13.5781 3.40625
Q9.23438 7.90625 9.23438 17.8281
L9.23438 46.8281
L3.03125 46.8281
L3.03125 54.5469
L9.23438 54.5469
L9.23438 70.2188
L18.4062 70.2188
L18.4062 54.5469
L37.3594 54.5469
L37.3594 46.8281
L18.4062 46.8281
L18.4062 21.9688
Q18.4062 17.6719 18.5938 15.25
Q18.7969 12.8438 19.9688 10.75
Q21.0469 8.79688 22.9219 7.89062
Q24.8125 6.98438 28.6562 6.98438
Q30.9062 6.98438 33.3438 7.64062
Q35.7969 8.29688 36.8594 8.73438
L37.3594 8.73438
z
" id="Verdana-74"/>
      <path d="
M54.25 0
L45.0625 0
L45.0625 6.0625
Q40.4375 2.39062 36.1875 0.4375
Q31.9375 -1.51562 26.8125 -1.51562
Q18.2188 -1.51562 13.4219 3.73438
Q8.64062 8.98438 8.64062 19.1406
L8.64062 54.5469
L17.8281 54.5469
L17.8281 23.4844
Q17.8281 19.3438 18.2188 16.375
Q18.6094 13.4219 19.875 11.3281
Q21.1875 9.1875 23.2812 8.20312
Q25.3906 7.23438 29.3906 7.23438
Q32.9531 7.23438 37.1719 9.07812
Q41.4062 10.9375 45.0625 13.8125
L45.0625 54.5469
L54.25 54.5469
z
" id="Verdana-75"/>
     </defs>
     <g transform="translate(206.5078125 418.509375)scale(0.12 -0.12)">
      <use xlink:href="#Verdana-4f"/>
      <use x="78.7109375" xlink:href="#Verdana-62"/>
      <use x="141.015625" xlink:href="#Verdana-6a"/>
      <use x="175.439453125" xlink:href="#Verdana-65"/>
      <use x="235.009765625" xlink:href="#Verdana-63"/>
      <use x="287.109375" xlink:href="#Verdana-74"/>
      <use x="326.513671875" xlink:href="#Verdana-69"/>
      <use x="353.955078125" xlink:href="#Verdana-76"/>
      <use x="412.259765625" xlink:href="#Verdana-65"/>
      <use x="471.830078125" xlink:href="#Verdana-20"/>
      <use x="506.986328125" xlink:href="#Verdana-66"/>
      <use x="542.142578125" xlink:href="#Verdana-75"/>
      <use x="605.423828125" xlink:href="#Verdana-6e"/>
      <use x="668.705078125" xlink:href="#Verdana-63"/>
      <use x="720.8046875" xlink:href="#Verdana-74"/>
      <use x="760.208984375" xlink:href="#Verdana-69"/>
      <use x="787.650390625" xlink:href="#Verdana-6f"/>
      <use x="848.34375" xlink:href="#Verdana-6e"/>
      <use x="911.625" xlink:href="#Verdana-20"/>
      <use x="946.78125" xlink:href="#Verdana-65"/>
      <use x="1006.3515625" xlink:href="#Verdana-78"/>
      <use x="1064.40625" xlink:href="#Verdana-65"/>
      <use x="1123.9765625" xlink:href="#Verdana-63"/>
      <use x="1176.076171875" xlink:href="#Verdana-74"/>
      <use x="1215.48046875" xlink:href="#Verdana-75"/>
      <use x="1278.76171875" xlink:href="#Verdana-69"/>
      <use x="1306.203125" xlink:href="#Verdana-6f"/>
      <use x="1366.896484375" xlink:href="#Verdana-6e"/>
      <use x="1430.177734375" xlink:href="#Verdana-73"/>
     </g>
    </g>
   </g>
   <g id="matplotlib.axis_2">
    <g id="ytick_1">
     <g id="line2d_18">
      <defs>
       <path d="
M0 0
L4 0" id="md7965d1ba0" style="stroke:#000000;stroke-width:0.5;"/>
      </defs>
      <g>
       <use style="stroke:#000000;stroke-width:0.5;" x="72.0" xlink:href="#md7965d1ba0" y="388.8"/>
      </g>
     </g>
     <g id="line2d_19">
      <defs>
       <path d="
M0 0
L-4 0" id="md9a1c1a7cd" style="stroke:#000000;stroke-width:0.5;"/>
      </defs>
      <g>
       <use style="stroke:#000000;stroke-width:0.5;" x="518.4" xlink:href="#md9a1c1a7cd" y="388.8"/>
      </g>
     </g>
     <g id="text_8">
      <!-- 0 -->
      <g transform="translate(61.964375 392.1515625)scale(0.12 -0.12)">
       <use xlink:href="#Verdana-30"/>
      </g>
     </g>
    </g>
    <g id="ytick_2">
     <g id="line2d_20">
      <g>
       <use style="stroke:#000000;stroke-width:0.5;" x="72.0" xlink:href="#md7965d1ba0" y="331.2"/>
      </g>
     </g>
     <g id="line2d_21">
      <g>
       <use style="stroke:#000000;stroke-width:0.5;" x="518.4" xlink:href="#md9a1c1a7cd" y="331.2"/>
      </g>
     </g>
     <g id="text_9">
      <!-- 10 -->
      <g transform="translate(55.161875 334.5515625)scale(0.12 -0.12)">
       <use xlink:href="#Verdana-31"/>
       <use x="63.57421875" xlink:href="#Verdana-30"/>
      </g>
     </g>
    </g>
    <g id="ytick_3">
     <g id="line2d_22">
      <g>
       <use style="stroke:#000000;stroke-width:0.5;" x="72.0" xlink:href="#md7965d1ba0" y="273.6"/>
      </g>
     </g>
     <g id="line2d_23">
      <g>
       <use style="stroke:#000000;stroke-width:0.5;" x="518.4" xlink:href="#md9a1c1a7cd" y="273.6"/>
      </g>
     </g>
     <g id="text_10">
      <!-- 20 -->
      <g transform="translate(54.475625 276.9515625)scale(0.12 -0.12)">
       <use xlink:href="#Verdana-32"/>
       <use x="63.57421875" xlink:href="#Verdana-30"/>
      </g>
     </g>
    </g>
    <g id="ytick_4">
     <g id="line2d_24">
      <g>
       <use style="stroke:#000000;stroke-width:0.5;" x="72.0" xlink:href="#md7965d1ba0" y="216.0"/>
      </g>
     </g>
     <g id="line2d_25">
      <g>
       <use style="stroke:#000000;stroke-width:0.5;" x="518.4" xlink:href="#md9a1c1a7cd" y="216.0"/>
      </g>
     </g>
     <g id="text_11">
      <!-- 30 -->
      <g transform="translate(54.51125 219.3515625)scale(0.12 -0.12)">
       <use xlink:href="#Verdana-33"/>
       <use x="63.57421875" xlink:href="#Verdana-30"/>
      </g>
     </g>
    </g>
    <g id="ytick_5">
     <g id="line2d_26">
      <g>
       <use style="stroke:#000000;stroke-width:0.5;" x="72.0" xlink:href="#md7965d1ba0" y="158.4"/>
      </g>
     </g>
     <g id="line2d_27">
      <g>
       <use style="stroke:#000000;stroke-width:0.5;" x="518.4" xlink:href="#md9a1c1a7cd" y="158.4"/>
      </g>
     </g>
     <g id="text_12">
      <!-- 40 -->
      <g transform="translate(53.984375 161.7515625)scale(0.12 -0.12)">
       <use xlink:href="#Verdana-34"/>
       <use x="63.57421875" xlink:href="#Verdana-30"/>
      </g>
     </g>
    </g>
    <g id="ytick_6">
     <g id="line2d_28">
      <g>
       <use style="stroke:#000000;stroke-width:0.5;" x="72.0" xlink:href="#md7965d1ba0" y="100.8"/>
      </g>
     </g>
     <g id="line2d_29">
      <g>
       <use style="stroke:#000000;stroke-width:0.5;" x="518.4" xlink:href="#md9a1c1a7cd" y="100.8"/>
      </g>
     </g>
     <g id="text_13">
      <!-- 50 -->
      <g transform="translate(54.6275 104.1515625)scale(0.12 -0.12)">
       <use xlink:href="#Verdana-35"/>
       <use x="63.57421875" xlink:href="#Verdana-30"/>
      </g>
     </g>
    </g>
    <g id="ytick_7">
     <g id="line2d_30">
      <g>
       <use style="stroke:#000000;stroke-width:0.5;" x="72.0" xlink:href="#md7965d1ba0" y="43.2"/>
      </g>
     </g>
     <g id="line2d_31">
      <g>
       <use style="stroke:#000000;stroke-width:0.5;" x="518.4" xlink:href="#md9a1c1a7cd" y="43.2"/>
      </g>
     </g>
     <g id="text_14">
      <!-- 60 -->
      <defs>
       <path d="
M58.1562 23.5781
Q58.1562 12.5 50.8594 5.48438
Q43.5625 -1.51562 32.9531 -1.51562
Q27.5938 -1.51562 23.1875 0.140625
Q18.7969 1.8125 15.4375 5.07812
Q11.2344 9.125 8.95312 15.8125
Q6.6875 22.5156 6.6875 31.9375
Q6.6875 41.6094 8.76562 49.0781
Q10.8438 56.5469 15.375 62.3594
Q19.6719 67.875 26.4531 70.9688
Q33.25 74.0781 42.2812 74.0781
Q45.1719 74.0781 47.125 73.8281
Q49.0781 73.5781 51.0781 72.9531
L51.0781 63.625
L50.5938 63.625
Q49.2188 64.3594 46.4531 65.0156
Q43.7031 65.6719 40.8281 65.6719
Q30.3281 65.6719 24.0781 59.1094
Q17.8281 52.5469 16.7969 41.3594
Q20.9062 43.8438 24.875 45.1406
Q28.8594 46.4375 34.0781 46.4375
Q38.7188 46.4375 42.25 45.5781
Q45.7969 44.7344 49.5156 42.1406
Q53.8125 39.1562 55.9844 34.6094
Q58.1562 30.0781 58.1562 23.5781
M48.25 23.1875
Q48.25 27.7344 46.9062 30.7031
Q45.5625 33.6875 42.4844 35.8906
Q40.2344 37.4531 37.5 37.9375
Q34.7656 38.4219 31.7812 38.4219
Q27.6406 38.4219 24.0781 37.4375
Q20.5156 36.4688 16.75 34.4219
Q16.6562 33.3438 16.5938 32.3438
Q16.5469 31.3438 16.5469 29.8281
Q16.5469 22.125 18.1406 17.6562
Q19.7344 13.1875 22.5156 10.5938
Q24.75 8.45312 27.3594 7.45312
Q29.9844 6.45312 33.0625 6.45312
Q40.1406 6.45312 44.1875 10.7656
Q48.25 15.0938 48.25 23.1875" id="Verdana-36"/>
      </defs>
      <g transform="translate(54.335 46.5515625)scale(0.12 -0.12)">
       <use xlink:href="#Verdana-36"/>
       <use x="63.57421875" xlink:href="#Verdana-30"/>
      </g>
     </g>
    </g>
    <g id="text_15">
     <!-- Standard Deviation -->
     <defs>
      <path d="
M51.4219 0
L42.2812 0
L42.2812 5.8125
Q41.0625 4.98438 38.9844 3.48438
Q36.9219 2 34.9688 1.125
Q32.6719 0 29.6875 -0.75
Q26.7031 -1.51562 22.7031 -1.51562
Q15.3281 -1.51562 10.2031 3.35938
Q5.07812 8.25 5.07812 15.8281
Q5.07812 22.0156 7.73438 25.8438
Q10.4062 29.6875 15.3281 31.8906
Q20.3125 34.0781 27.2969 34.8594
Q34.2812 35.6406 42.2812 36.0312
L42.2812 37.4531
Q42.2812 40.5781 41.1875 42.625
Q40.0938 44.6719 38.0312 45.8438
Q36.0781 46.9688 33.3438 47.3594
Q30.6094 47.75 27.6406 47.75
Q24.0312 47.75 19.5781 46.7969
Q15.1406 45.8438 10.4062 44.0469
L9.90625 44.0469
L9.90625 53.375
Q12.5938 54.1094 17.6719 54.9844
Q22.75 55.8594 27.6875 55.8594
Q33.4531 55.8594 37.7188 54.9062
Q42 53.9531 45.125 51.6562
Q48.1875 49.4219 49.7969 45.8438
Q51.4219 42.2812 51.4219 37.0156
z

M42.2812 13.4219
L42.2812 28.6094
Q38.0938 28.375 32.3906 27.875
Q26.7031 27.3906 23.3906 26.4688
Q19.4375 25.3438 16.9844 22.9688
Q14.5469 20.6094 14.5469 16.4531
Q14.5469 11.7656 17.375 9.39062
Q20.2188 7.03125 26.0312 7.03125
Q30.8594 7.03125 34.8594 8.90625
Q38.875 10.7969 42.2812 13.4219" id="Verdana-61"/>
      <path d="
M71.1875 36.2812
Q71.1875 26.375 66.8594 18.3125
Q62.5469 10.25 55.375 5.8125
Q50.3906 2.73438 44.2656 1.35938
Q38.1406 0 28.125 0
L9.76562 0
L9.76562 72.7031
L27.9375 72.7031
Q38.5781 72.7031 44.8438 71.1562
Q51.125 69.625 55.4688 66.9375
Q62.8906 62.3125 67.0312 54.5938
Q71.1875 46.875 71.1875 36.2812
M61.0781 36.4219
Q61.0781 44.9688 58.0938 50.8281
Q55.125 56.6875 49.2188 60.0625
Q44.9219 62.5 40.0781 63.4531
Q35.25 64.4062 28.5156 64.4062
L19.4375 64.4062
L19.4375 8.29688
L28.5156 8.29688
Q35.5 8.29688 40.7031 9.32812
Q45.9062 10.3594 50.25 13.1406
Q55.6719 16.6094 58.375 22.2656
Q61.0781 27.9375 61.0781 36.4219" id="Verdana-44"/>
      <path d="
M43.0625 44.5312
L42.5781 44.5312
Q40.5312 45.0156 38.5938 45.2344
Q36.6719 45.4531 34.0312 45.4531
Q29.7812 45.4531 25.8281 43.5781
Q21.875 41.7031 18.2188 38.7188
L18.2188 0
L9.03125 0
L9.03125 54.5469
L18.2188 54.5469
L18.2188 46.4844
Q23.6875 50.875 27.8594 52.7031
Q32.0312 54.5469 36.375 54.5469
Q38.7656 54.5469 39.8438 54.4219
Q40.9219 54.2969 43.0625 53.9531
z
" id="Verdana-72"/>
      <path d="
M62.5938 20.75
Q62.5938 16.5 60.6094 12.3438
Q58.6406 8.20312 55.0781 5.32812
Q51.1719 2.20312 45.9688 0.4375
Q40.7656 -1.3125 33.4531 -1.3125
Q25.5938 -1.3125 19.3125 0.140625
Q13.0312 1.60938 6.54688 4.5
L6.54688 16.6094
L7.23438 16.6094
Q12.75 12.0156 19.9688 9.51562
Q27.2031 7.03125 33.5469 7.03125
Q42.5312 7.03125 47.5312 10.3906
Q52.5469 13.7656 52.5469 19.3906
Q52.5469 24.2188 50.1719 26.5156
Q47.7969 28.8125 42.9688 30.0781
Q39.3125 31.0625 35.0312 31.6875
Q30.7656 32.3281 25.9844 33.2969
Q16.3125 35.3594 11.6406 40.3125
Q6.98438 45.2656 6.98438 53.2188
Q6.98438 62.3594 14.6875 68.1875
Q22.4062 74.0312 34.2812 74.0312
Q41.9375 74.0312 48.3281 72.5625
Q54.7344 71.0938 59.6719 68.9531
L59.6719 57.5156
L58.9844 57.5156
Q54.8281 61.0312 48.0625 63.3438
Q41.3125 65.6719 34.2344 65.6719
Q26.4688 65.6719 21.75 62.4531
Q17.0469 59.2344 17.0469 54.1562
Q17.0469 49.6094 19.3906 47.0156
Q21.7344 44.4375 27.6406 43.0625
Q30.7656 42.3906 36.5156 41.4062
Q42.2812 40.4375 46.2969 39.4062
Q54.3906 37.25 58.4844 32.9062
Q62.5938 28.5625 62.5938 20.75" id="Verdana-53"/>
      <path d="
M53.2656 0
L44.0938 0
L44.0938 5.71875
Q40.1406 2.29688 35.8438 0.390625
Q31.5469 -1.51562 26.5156 -1.51562
Q16.75 -1.51562 11.0156 6
Q5.28125 13.5312 5.28125 26.8594
Q5.28125 33.7969 7.25 39.2031
Q9.23438 44.625 12.5938 48.4375
Q15.9219 52.1562 20.3281 54.1094
Q24.75 56.0625 29.5 56.0625
Q33.7969 56.0625 37.1094 55.1562
Q40.4375 54.25 44.0938 52.3438
L44.0938 75.9844
L53.2656 75.9844
z

M44.0938 13.4219
L44.0938 44.7344
Q40.375 46.3906 37.4375 47.0156
Q34.5156 47.6562 31.0625 47.6562
Q23.3438 47.6562 19.0469 42.2812
Q14.75 36.9219 14.75 27.0469
Q14.75 17.3281 18.0625 12.2812
Q21.3906 7.23438 28.7188 7.23438
Q32.625 7.23438 36.625 8.95312
Q40.625 10.6875 44.0938 13.4219" id="Verdana-64"/>
     </defs>
     <g transform="translate(46.569375 273.5465625)rotate(-90.0)scale(0.12 -0.12)">
      <use xlink:href="#Verdana-53"/>
      <use x="68.359375" xlink:href="#Verdana-74"/>
      <use x="107.763671875" xlink:href="#Verdana-61"/>
      <use x="167.822265625" xlink:href="#Verdana-6e"/>
      <use x="231.103515625" xlink:href="#Verdana-64"/>
      <use x="293.408203125" xlink:href="#Verdana-61"/>
      <use x="353.466796875" xlink:href="#Verdana-72"/>
      <use x="396.142578125" xlink:href="#Verdana-64"/>
      <use x="458.447265625" xlink:href="#Verdana-20"/>
      <use x="493.603515625" xlink:href="#Verdana-44"/>
      <use x="570.654296875" xlink:href="#Verdana-65"/>
      <use x="630.224609375" xlink:href="#Verdana-76"/>
      <use x="689.404296875" xlink:href="#Verdana-69"/>
      <use x="716.845703125" xlink:href="#Verdana-61"/>
      <use x="776.904296875" xlink:href="#Verdana-74"/>
      <use x="816.30859375" xlink:href="#Verdana-69"/>
      <use x="843.75" xlink:href="#Verdana-6f"/>
      <use x="904.443359375" xlink:href="#Verdana-6e"/>
     </g>
    </g>
   </g>
   <g id="patch_3">
    <path d="
M72 43.2
L518.4 43.2" style="fill:none;stroke:#000000;"/>
   </g>
   <g id="patch_4">
    <path d="
M72 388.8
L72 43.2" style="fill:none;stroke:#000000;"/>
   </g>
   <g id="patch_5">
    <path d="
M518.4 388.8
L518.4 43.2" style="fill:none;stroke:#000000;"/>
   </g>
   <g id="patch_6">
    <path d="
M72 388.8
L518.4 388.8" style="fill:none;stroke:#000000;"/>
   </g>
   <g id="text_16">
    <!-- Shubert01 Standard Deviation -->
    <defs>
     <path d="
M54.6406 0
L45.4531 0
L45.4531 31.0625
Q45.4531 34.8125 45.0156 38.1094
Q44.5781 41.4062 43.4062 43.2656
Q42.1875 45.3125 39.8906 46.3125
Q37.5938 47.3125 33.9375 47.3125
Q30.1719 47.3125 26.0625 45.4531
Q21.9688 43.6094 18.2188 40.7188
L18.2188 0
L9.03125 0
L9.03125 75.9844
L18.2188 75.9844
L18.2188 48.4844
Q22.5156 52.0469 27.0938 54.0469
Q31.6875 56.0625 36.5312 56.0625
Q45.3594 56.0625 50 50.7344
Q54.6406 45.4062 54.6406 35.4062
z
" id="Verdana-68"/>
    </defs>
    <g transform="translate(185.7375 38.2)scale(0.144 -0.144)">
     <use xlink:href="#Verdana-53"/>
     <use x="68.359375" xlink:href="#Verdana-68"/>
     <use x="131.640625" xlink:href="#Verdana-75"/>
     <use x="194.921875" xlink:href="#Verdana-62"/>
     <use x="257.2265625" xlink:href="#Verdana-65"/>
     <use x="316.796875" xlink:href="#Verdana-72"/>
     <use x="359.47265625" xlink:href="#Verdana-74"/>
     <use x="398.876953125" xlink:href="#Verdana-30"/>
     <use x="462.451171875" xlink:href="#Verdana-31"/>
     <use x="526.025390625" xlink:href="#Verdana-20"/>
     <use x="561.181640625" xlink:href="#Verdana-53"/>
     <use x="629.541015625" xlink:href="#Verdana-74"/>
     <use x="668.9453125" xlink:href="#Verdana-61"/>
     <use x="729.00390625" xlink:href="#Verdana-6e"/>
     <use x="792.28515625" xlink:href="#Verdana-64"/>
     <use x="854.58984375" xlink:href="#Verdana-61"/>
     <use x="914.6484375" xlink:href="#Verdana-72"/>
     <use x="957.32421875" xlink:href="#Verdana-64"/>
     <use x="1019.62890625" xlink:href="#Verdana-20"/>
     <use x="1054.78515625" xlink:href="#Verdana-44"/>
     <use x="1131.8359375" xlink:href="#Verdana-65"/>
     <use x="1191.40625" xlink:href="#Verdana-76"/>
     <use x="1250.5859375" xlink:href="#Verdana-69"/>
     <use x="1278.02734375" xlink:href="#Verdana-61"/>
     <use x="1338.0859375" xlink:href="#Verdana-74"/>
     <use x="1377.490234375" xlink:href="#Verdana-69"/>
     <use x="1404.931640625" xlink:href="#Verdana-6f"/>
     <use x="1465.625" xlink:href="#Verdana-6e"/>
    </g>
   </g>
   <g id="legend_1">
    <g id="patch_7">
     <path d="
M407.18 270.759
L511.2 270.759
L511.2 161.241
L407.18 161.241
L407.18 270.759
z
" style="fill:#ffffff;stroke:#000000;"/>
    </g>
    <g id="line2d_32">
     <path d="
M417.26 172.902
L437.42 172.902" style="fill:none;stroke:#0000ff;stroke-dasharray:6.000000,2.000000;stroke-dashoffset:0.0;"/>
    </g>
    <g id="line2d_33"/>
    <g id="text_17">
     <!-- AMPGO -->
     <defs>
      <path d="
M74.5156 0
L64.8438 0
L64.8438 62.6406
L44.625 20.0156
L38.875 20.0156
L18.7969 62.6406
L18.7969 0
L9.76562 0
L9.76562 72.7031
L22.9531 72.7031
L42.3281 32.2344
L61.0781 72.7031
L74.5156 72.7031
z
" id="Verdana-4d"/>
      <path d="
M57.3281 50.7344
Q57.3281 45.9062 55.6406 41.7656
Q53.9531 37.6406 50.9219 34.625
Q47.1719 30.8594 42.0469 28.9688
Q36.9219 27.0938 29.1094 27.0938
L19.4375 27.0938
L19.4375 0
L9.76562 0
L9.76562 72.7031
L29.5 72.7031
Q36.0312 72.7031 40.5781 71.6094
Q45.125 70.5156 48.6406 68.1719
Q52.7812 65.375 55.0469 61.2188
Q57.3281 57.0781 57.3281 50.7344
M47.2656 50.4844
Q47.2656 54.25 45.9375 57.0312
Q44.625 59.8125 41.9375 61.5781
Q39.5938 63.0938 36.5938 63.75
Q33.5938 64.4062 29 64.4062
L19.4375 64.4062
L19.4375 35.3594
L27.5938 35.3594
Q33.4531 35.3594 37.1094 36.4062
Q40.7656 37.4531 43.0625 39.75
Q45.3594 42.0938 46.3125 44.6719
Q47.2656 47.2656 47.2656 50.4844" id="Verdana-50"/>
      <path d="
M70.4062 5.375
Q64.4531 2.64062 57.3906 0.609375
Q50.3438 -1.42188 43.75 -1.42188
Q35.25 -1.42188 28.1719 0.921875
Q21.0938 3.26562 16.1094 7.95312
Q11.0781 12.7031 8.34375 19.7969
Q5.60938 26.9062 5.60938 36.4219
Q5.60938 53.8594 15.7969 63.9375
Q25.9844 74.0312 43.75 74.0312
Q49.9531 74.0312 56.4219 72.5312
Q62.8906 71.0469 70.3594 67.4844
L70.3594 56
L69.4844 56
Q67.9688 57.1719 65.0781 59.0781
Q62.2031 60.9844 59.4219 62.25
Q56.0625 63.7656 51.7812 64.7656
Q47.5156 65.7656 42.0938 65.7656
Q29.8906 65.7656 22.7812 57.9219
Q15.6719 50.0938 15.6719 36.7188
Q15.6719 22.6094 23.0938 14.7656
Q30.5156 6.9375 43.3125 6.9375
Q48 6.9375 52.6562 7.85938
Q57.3281 8.79688 60.8438 10.25
L60.8438 28.0781
L41.3594 28.0781
L41.3594 36.5781
L70.4062 36.5781
z
" id="Verdana-47"/>
      <path d="
M67.0938 0
L56.7812 0
L49.6562 20.2656
L18.2188 20.2656
L11.0781 0
L1.26562 0
L27.7344 72.7031
L40.625 72.7031
z

M46.6875 28.5625
L33.9375 64.2656
L21.1406 28.5625
z
" id="Verdana-41"/>
     </defs>
     <g transform="translate(453.26025 177.942375)scale(0.144 -0.144)">
      <use xlink:href="#Verdana-41"/>
      <use x="68.359375" xlink:href="#Verdana-4d"/>
      <use x="152.63671875" xlink:href="#Verdana-50"/>
      <use x="212.939453125" xlink:href="#Verdana-47"/>
      <use x="290.478515625" xlink:href="#Verdana-4f"/>
     </g>
    </g>
    <g id="line2d_34">
     <path d="
M417.26 193.942
L437.42 193.942" style="fill:none;stroke:#008000;stroke-dasharray:1.000000,1.000000;stroke-dashoffset:0.0;"/>
    </g>
    <g id="line2d_35"/>
    <g id="text_18">
     <!-- Anneal -->
     <defs>
      <path d="
M18.3125 0
L9.125 0
L9.125 75.9844
L18.3125 75.9844
z
" id="Verdana-6c"/>
     </defs>
     <g transform="translate(453.26025 198.982125)scale(0.144 -0.144)">
      <use xlink:href="#Verdana-41"/>
      <use x="68.359375" xlink:href="#Verdana-6e"/>
      <use x="131.640625" xlink:href="#Verdana-6e"/>
      <use x="194.921875" xlink:href="#Verdana-65"/>
      <use x="254.4921875" xlink:href="#Verdana-61"/>
      <use x="314.55078125" xlink:href="#Verdana-6c"/>
     </g>
    </g>
    <g id="line2d_36">
     <path d="
M417.26 214.982
L437.42 214.982" style="fill:none;stroke:#ff0000;stroke-dasharray:3.000000,6.000000;stroke-dashoffset:0.0;"/>
    </g>
    <g id="line2d_37"/>
    <g id="text_19">
     <!-- BSA -->
     <defs>
      <path d="
M64.5938 22.3594
Q64.5938 16.9375 62.5469 12.7812
Q60.5 8.64062 57.0312 5.95312
Q52.9375 2.73438 48.0156 1.35938
Q43.1094 0 35.5469 0
L9.76562 0
L9.76562 72.7031
L31.2969 72.7031
Q39.2656 72.7031 43.2188 72.1094
Q47.1719 71.5312 50.7812 69.6719
Q54.7812 67.5781 56.5938 64.2812
Q58.4062 60.9844 58.4062 56.3906
Q58.4062 51.2188 55.7656 47.5781
Q53.125 43.9531 48.7344 41.75
L48.7344 41.3594
Q56.1094 39.8438 60.3438 34.8906
Q64.5938 29.9375 64.5938 22.3594
M48.3438 55.125
Q48.3438 57.7656 47.4531 59.5625
Q46.5781 61.375 44.625 62.5
Q42.3281 63.8125 39.0625 64.125
Q35.7969 64.4531 30.9531 64.4531
L19.4375 64.4531
L19.4375 43.4531
L31.9375 43.4531
Q36.4688 43.4531 39.1562 43.9219
Q41.8438 44.3906 44.1406 45.8438
Q46.4375 47.3125 47.3906 49.625
Q48.3438 51.9531 48.3438 55.125
M54.5469 21.9688
Q54.5469 26.375 53.2188 28.9531
Q51.9062 31.5469 48.4375 33.3438
Q46.0938 34.5781 42.75 34.9375
Q39.4062 35.2969 34.625 35.2969
L19.4375 35.2969
L19.4375 8.25
L32.2344 8.25
Q38.5781 8.25 42.625 8.90625
Q46.6875 9.57812 49.2656 11.3281
Q52 13.2344 53.2656 15.6719
Q54.5469 18.1094 54.5469 21.9688" id="Verdana-42"/>
     </defs>
     <g transform="translate(453.26025 220.021875)scale(0.144 -0.144)">
      <use xlink:href="#Verdana-42"/>
      <use x="68.5546875" xlink:href="#Verdana-53"/>
      <use x="135.9140625" xlink:href="#Verdana-41"/>
     </g>
    </g>
    <g id="line2d_38">
     <path d="
M417.26 236.022
L437.42 236.022" style="fill:none;stroke:#00bfbf;stroke-dasharray:5.000000,1.000000,2.000000,1.000000,5.000000,1.000000;stroke-dashoffset:0.0;"/>
    </g>
    <g id="line2d_39"/>
    <g id="text_20">
     <!-- Cuckoo -->
     <defs>
      <path d="
M58.5469 0
L46.4375 0
L24.5625 23.875
L18.6094 18.2188
L18.6094 0
L9.42188 0
L9.42188 75.9844
L18.6094 75.9844
L18.6094 27.25
L45.125 54.5469
L56.6875 54.5469
L31.3438 29.3438
z
" id="Verdana-6b"/>
      <path d="
M65.9219 5.28125
Q63.2344 4.10938 61.0625 3.07812
Q58.8906 2.04688 55.375 0.921875
Q52.3906 0 48.8906 -0.65625
Q45.4062 -1.3125 41.2188 -1.3125
Q33.2969 -1.3125 26.8281 0.90625
Q20.3594 3.125 15.5781 7.85938
Q10.8906 12.5 8.25 19.6562
Q5.60938 26.8125 5.60938 36.2812
Q5.60938 45.2656 8.14062 52.3438
Q10.6875 59.4219 15.4844 64.3125
Q20.125 69.0469 26.6875 71.5312
Q33.25 74.0312 41.2656 74.0312
Q47.125 74.0312 52.9531 72.6094
Q58.7969 71.1875 65.9219 67.625
L65.9219 56.1562
L65.1875 56.1562
Q59.1875 61.1875 53.2656 63.4688
Q47.3594 65.7656 40.625 65.7656
Q35.1094 65.7656 30.6875 63.9844
Q26.2656 62.2031 22.7969 58.4531
Q19.4375 54.7812 17.5469 49.1875
Q15.6719 43.6094 15.6719 36.2812
Q15.6719 28.6094 17.75 23.0938
Q19.8281 17.5781 23.0938 14.1094
Q26.5156 10.5 31.0781 8.76562
Q35.6406 7.03125 40.7188 7.03125
Q47.7031 7.03125 53.7969 9.42188
Q59.9062 11.8125 65.2344 16.6094
L65.9219 16.6094
z
" id="Verdana-43"/>
     </defs>
     <g transform="translate(453.26025 241.061625)scale(0.144 -0.144)">
      <use xlink:href="#Verdana-43"/>
      <use x="69.82421875" xlink:href="#Verdana-75"/>
      <use x="133.10546875" xlink:href="#Verdana-63"/>
      <use x="185.205078125" xlink:href="#Verdana-6b"/>
      <use x="243.384765625" xlink:href="#Verdana-6f"/>
      <use x="304.078125" xlink:href="#Verdana-6f"/>
     </g>
    </g>
    <g id="line2d_40">
     <path d="
M417.26 257.061
L437.42 257.061" style="fill:none;stroke:#bf00bf;stroke-linecap:square;"/>
    </g>
    <g id="line2d_41"/>
    <g id="text_21">
     <!-- qABC -->
     <defs>
      <path d="
M53.2656 -20.125
L44.0938 -20.125
L44.0938 6.15625
Q39.8438 2.48438 35.6406 0.703125
Q31.4531 -1.07812 26.5625 -1.07812
Q16.8438 -1.07812 11.0625 6.42188
Q5.28125 13.9219 5.28125 27.0938
Q5.28125 34.125 7.29688 39.5156
Q9.32812 44.9219 12.6406 48.5781
Q15.875 52.1562 20.2188 54.1094
Q24.5625 56.0625 29.3906 56.0625
Q33.7969 56.0625 37.1875 55.0781
Q40.5781 54.1094 44.0938 52.2031
L44.6719 54.5469
L53.2656 54.5469
z

M44.0938 13.875
L44.0938 44.7344
Q40.2812 46.4375 37.3438 47.1094
Q34.4219 47.7969 31 47.7969
Q23.0469 47.7969 18.8906 42.4062
Q14.75 37.0156 14.75 27.5469
Q14.75 17.9688 18.0938 12.8125
Q21.4375 7.67188 28.6094 7.67188
Q32.625 7.67188 36.625 9.40625
Q40.625 11.1406 44.0938 13.875" id="Verdana-71"/>
     </defs>
     <g transform="translate(453.26025 262.101375)scale(0.144 -0.144)">
      <use xlink:href="#Verdana-71"/>
      <use x="62.3046875" xlink:href="#Verdana-41"/>
      <use x="130.6640625" xlink:href="#Verdana-42"/>
      <use x="199.21875" xlink:href="#Verdana-43"/>
     </g>
    </g>
   </g>
  </g>
 </g>
 <defs>
  <clipPath id="p7ff5b81e1d">
   <rect height="345.6" width="446.4" x="72.0" y="43.2"/>
  </clipPath>
 </defs>
</svg>
