<?xml version="1.0" encoding="utf-8" standalone="no"?>
<!DOCTYPE svg PUBLIC "-//W3C//DTD SVG 1.1//EN"
  "http://www.w3.org/Graphics/SVG/1.1/DTD/svg11.dtd">
<!-- Created with matplotlib (http://matplotlib.org/) -->
<svg height="432pt" version="1.1" viewBox="0 0 576 432" width="576pt" xmlns="http://www.w3.org/2000/svg" xmlns:xlink="http://www.w3.org/1999/xlink">
 <defs>
  <style type="text/css">
*{stroke-linecap:butt;stroke-linejoin:round;}
  </style>
 </defs>
 <g id="figure_1">
  <g id="patch_1">
   <path d="
M0 432
L576 432
L576 0
L0 0
z
" style="fill:#ffffff;"/>
  </g>
  <g id="axes_1">
   <g id="patch_2">
    <path d="
M72 388.8
L518.4 388.8
L518.4 43.2
L72 43.2
z
" style="fill:#ffffff;"/>
   </g>
   <g id="line2d_1">
    <path clip-path="url(#p7ff5b81e1d)" d="
M72 314.559
L72.0893 346.005
L72.1786 357.97
L72.4464 370.327
L72.7142 376.218
L72.8035 371.899
L73.0714 376.284
L73.1606 373.495
L73.4285 376.458
L73.5178 372.807
L73.607 373.579
L73.7856 375.103
L73.8749 368.295
L73.9642 368.804
L74.1427 370.036
L74.232 367.344
L74.3213 367.882
L74.4998 368.965
L74.5891 367.317
L74.857 368.805
L74.9462 367.32
L75.2141 368.689
L75.3034 367.538
L75.4819 368.263
L75.5712 368.896
L75.6605 368
L75.9283 369.624
L76.0176 367.822
L76.1069 368.225
L76.2854 368.944
L76.3747 367.832
L76.6426 368.878
L76.7318 368.1
L76.9997 368.973
L77.089 368.462
L77.3568 369.018
L77.4461 368.478
L77.5354 368.599
L77.7139 368.76
L77.8032 368.26
L77.8925 368.375
L78.071 368.602
L78.1603 368.217
L78.4282 368.535
L78.5174 368.186
L78.7853 368.518
L78.8746 367.87
L78.9638 367.911
L79.1424 368.168
L79.2317 367.899
L79.4995 368.244
L79.5888 367.762
L79.6781 367.864
L79.8566 368.109
L79.9459 367.947
L80.2138 368.204
L80.303 367.987
L80.3923 368.049
L80.5709 368.241
L80.6602 368.132
L80.928 368.292
L81.0173 367.967
L81.1066 367.995
L81.2851 368.09
L81.4637 367.986
L81.6422 368.062
L81.8208 367.876
L81.9994 367.853
L82.1779 367.798
L82.3565 367.833
L82.535 367.693
L84.1421 367.809
L84.3206 367.733
L84.4992 367.77
L84.6778 367.668
L85.392 367.686
L85.6598 367.472
L85.9277 367.504
L86.1062 367.408
L86.9098 367.512
L87.3562 367.592
L87.5347 367.529
L88.8739 367.624
L93.8736 367.687
L94.4093 367.667
L97.2662 367.734
L103.962 367.85
L115.122 367.954
L155.566 368.006
L434.655 368.05
L518.311 368.054
L518.311 368.054" style="fill:none;stroke:#0000ff;stroke-dasharray:6.000000,2.000000;stroke-dashoffset:0.0;"/>
   </g>
   <g id="line2d_2">
    <path clip-path="url(#p7ff5b81e1d)" d="
M72 319.359
L72.1786 333.373
L72.3571 341.034
L72.4464 343.092
L72.5357 342.436
L72.625 342.614
L72.7142 343.057
L72.8035 342.7
L72.9821 339.541
L73.0714 340.515
L73.3392 337.912
L73.4285 338.158
L73.5178 337.485
L73.9642 325.606
L74.1427 322.09
L74.4998 312.345
L75.1248 295.563
L75.2141 294.504
L75.3926 291.172
L75.4819 291.002
L75.6605 286.221
L75.7498 284.807
L75.9283 279.174
L76.0176 280.058
L76.1962 277.856
L76.2854 278.487
L76.3747 278.35
L76.464 278.686
L76.8211 275.242
L77.089 270.247
L77.2675 269.8
L77.5354 263.056
L77.8032 258.695
L78.2496 248.999
L78.3389 248.418
L78.6067 242.755
L78.8746 238.092
L78.9638 238.13
L79.321 233.714
L79.4102 233.422
L80.3923 226.352
L80.4816 226.396
L80.7494 223.331
L81.1066 222.078
L81.553 216.177
L81.9101 210.79
L82.6243 200.449
L82.7136 200.22
L82.8029 200.511
L83.0707 197.037
L83.3386 194.695
L83.6064 192.846
L83.6957 193.152
L83.785 192.835
L83.8742 193.013
L83.9635 192.586
L84.1421 191.362
L84.2314 191.651
L84.4099 190.158
L84.5885 188.172
L84.767 187.353
L85.0349 184.224
L85.3027 181.733
L85.5706 178.879
L85.7491 178.572
L85.9277 177.698
L86.2848 174.875
L86.4634 175.24
L86.6419 173.598
L86.7312 173.752
L86.9098 171.935
L87.1776 169.041
L87.3562 169.382
L87.5347 169.012
L87.624 169.097
L87.9811 165.943
L88.249 163.716
L88.6954 161.625
L88.7846 161.803
L89.856 156.391
L89.9453 156.574
L90.0346 156.425
L90.1238 156.673
L90.3024 156.329
L90.3917 156.599
L91.0166 153.402
L91.1952 153.899
L91.2845 153.899
L91.3738 153.595
L91.5523 153.844
L91.9987 151.229
L92.1773 150.69
L92.6237 148.046
L92.713 147.682
L92.9808 145.845
L93.2486 143.804
L93.5165 143.22
L93.6058 143.204
L94.1414 141.317
L94.2307 141.441
L94.4093 141.075
L94.5878 139.835
L94.6771 140.178
L94.7664 139.97
L94.945 140.283
L95.1235 140.149
L95.5699 137.434
L95.927 136.164
L96.1056 134.751
L96.2842 134.316
L96.4627 133.261
L97.4448 129.928
L97.7126 127.597
L97.8019 127.588
L98.159 126.847
L98.2483 127.106
L98.6054 125.502
L98.6947 126.021
L99.6768 123.572
L99.9446 122.918
L100.123 122.913
L100.748 119.938
L100.837 119.938
L101.105 119.448
L101.195 119.439
L101.284 119.265
L101.552 117.922
L101.641 117.907
L101.82 117.476
L101.998 117.422
L102.177 116.785
L102.891 115.021
L102.98 115.194
L103.427 113.779
L103.605 112.932
L104.052 111.743
L104.141 111.736
L104.319 111.557
L104.409 111.493
L105.034 109.55
L105.123 109.55
L105.301 109.306
L105.391 109.29
L105.569 109.078
L105.748 109.326
L106.016 109.269
L106.194 108.587
L106.373 108.312
L106.551 107.834
L106.641 107.843
L106.819 107.546
L106.998 107.21
L107.176 107.748
L107.533 106.796
L107.801 106.087
L107.98 105.977
L108.158 105.624
L108.248 105.6
L108.605 105.15
L108.694 105.161
L108.783 105.348
L109.051 105.146
L109.319 104.141
L109.408 104.105
L109.587 103.895
L109.676 103.896
L109.855 103.056
L110.123 102.781
L110.569 101.655
L110.748 100.989
L110.837 101.056
L111.105 100.335
L111.194 100.358
L111.462 99.9929
L111.551 99.964
L111.73 100.376
L111.908 100.23
L112.622 99.73
L112.712 99.4488
L112.89 98.5797
L113.158 98.2177
L113.783 97.56
L114.229 97.3346
L114.497 96.9583
L114.587 96.9511
L114.854 96.6711
L115.122 95.6002
L115.301 95.5892
L115.479 95.7322
L115.658 94.9986
L115.926 94.674
L116.015 94.6755
L116.283 94.3962
L116.372 94.3766
L116.729 93.9103
L116.908 93.8436
L117.086 93.5786
L117.176 93.5425
L117.444 93.1117
L117.979 92.0809
L118.515 91.8868
L118.783 91.4556
L119.051 91.3829
L119.14 91.6486
L119.676 90.6704
L119.765 90.7114
L119.943 90.264
L120.479 90.0201
L120.658 90.0082
L120.836 89.4322
L121.55 89.3597
L122.175 89.063
L122.354 88.4803
L122.532 88.7053
L123.515 88.3288
L124.05 88.2378
L124.318 88.0258
L124.675 87.91
L124.943 87.6692
L126.014 87.346
L126.193 87.4334
L126.818 87.3598
L126.996 87.3001
L127.086 87.5316
L127.175 87.4919
L127.621 87.3636
L127.8 87.17
L128.246 87.0914
L128.425 86.9566
L128.604 86.9714
L128.693 86.9694
L128.871 86.7197
L128.961 86.8009
L129.139 86.3242
L130.389 86.1269
L130.478 86.1258
L130.657 86.4203
L130.836 86.3881
L131.193 85.8245
L131.996 85.6891
L132.264 85.6221
L133.157 85.2892
L134.05 85.2595
L134.228 84.9013
L134.853 84.783
L135.032 84.8595
L136.46 84.7634
L137.621 84.5455
L137.799 84.4258
L138.424 84.3405
L138.514 84.3279
L138.692 84.0954
L138.96 84.0723
L139.139 84.2403
L141.103 83.8229
L141.371 83.3564
L142.085 83.286
L142.71 83.1518
L142.888 82.8951
L143.245 82.8274
L143.424 82.359
L143.781 82.3084
L145.21 82.1833
L145.388 82.0378
L145.656 82.1015
L145.835 81.6906
L147.888 81.401
L149.584 81.4629
L149.763 80.9133
L150.209 80.848
L150.388 81.0323
L150.656 80.9406
L151.281 80.8776
L151.459 80.5182
L153.156 80.4453
L153.245 79.9812
L153.334 80.0229
L153.691 80.023
L153.87 79.7896
L154.673 79.6888
L154.941 79.6693
L155.12 79.46
L156.102 79.3471
L156.28 79.3315
L156.459 79.5602
L156.548 79.5473
L156.727 79.4111
L158.423 79.1188
L159.316 78.9537
L159.494 79.0024
L160.744 78.9092
L161.191 78.8748
L167.619 78.4706
L169.315 78.3845
L170.119 78.349
L170.297 77.9837
L170.833 77.8789
L171.994 77.8223
L172.172 77.9663
L173.154 77.9238
L173.422 77.7623
L175.118 77.6968
L175.386 77.7248
L175.743 77.6727
L178.065 77.7642
L178.243 77.4788
L178.868 77.4844
L180.654 77.4021
L180.832 77.2573
L181.814 77.2295
L181.993 77.5222
L184.939 77.4296
L185.118 76.9617
L189.671 76.8528
L189.939 76.7716
L191.278 76.6901
L191.367 76.2145
L191.457 76.2677
L191.724 76.2165
L192.171 76.1112
L192.439 76.056
L194.046 76.0758
L194.671 76.0515
L194.849 75.8043
L195.831 75.7799
L196.099 75.718
L196.367 75.6843
L196.635 75.6874
L196.813 75.0623
L198.153 75.0507
L198.331 74.6944
L198.599 74.6913
L198.778 74.4765
L199.938 74.4623
L200.117 74.2916
L200.474 74.2957
L200.652 74.4389
L202.349 74.3729
L202.438 74.3445
L202.617 74.5953
L203.242 74.5881
L203.867 74.5765
L203.956 74.1801
L204.045 74.2016
L204.759 74.2027
L204.938 74.0055
L206.545 74.0111
L206.724 73.6406
L206.813 73.6588
L206.991 73.5428
L210.295 73.47
L210.473 72.9408
L211.009 72.938
L211.098 72.751
L211.277 72.9096
L212.437 72.8902
L214.848 72.8401
L215.116 72.4713
L217.705 72.4296
L217.884 72.0704
L219.758 71.944
L219.937 71.4277
L220.83 71.4045
L222.972 71.3523
L224.58 71.3632
L224.758 71.5201
L228.686 71.5342
L228.865 71.6666
L230.026 71.634
L230.383 71.5898
L231.276 71.6186
L231.454 71.8243
L232.079 71.8024
L232.168 71.8043
L232.258 71.9837
L232.347 71.7204
L232.436 71.7649
L232.883 71.7517
L233.061 71.5308
L233.597 71.4956
L235.918 71.4052
L237.525 71.3239
L237.704 70.9286
L238.061 70.9101
L238.239 71.0998
L238.864 71.0975
L241.275 70.9978
L241.721 70.9852
L244.668 70.9753
L248.328 70.8872
L248.596 70.8133
L253.417 70.7112
L253.596 70.6064
L256.006 70.4998
L256.185 70.6621
L257.435 70.6399
L263.059 70.5721
L263.238 70.0211
L271.005 69.9852
L271.184 70.2743
L271.362 70.2743
L271.541 70.4221
L271.987 70.3921
L273.059 70.3326
L274.398 70.3061
L274.576 69.8322
L277.523 69.8536
L277.701 70.0622
L278.058 70.0238
L278.237 70.0216
L278.415 70.3344
L283.236 70.2386
L283.683 70.2095
L284.933 70.1843
L285.111 70.5109
L288.147 70.4538
L288.325 70.3401
L292.611 70.2394
L292.789 70.4918
L303.592 70.4487
L303.771 70.6773
L306.003 70.5953
L306.271 70.5572
L307.074 70.5212
L307.61 70.4942
L307.788 70.8424
L309.574 70.774
L309.753 70.9861
L313.413 70.9139
L313.592 71.2286
L315.02 71.1833
L315.199 71.3472
L315.734 71.3415
L315.913 71.5966
L320.823 71.5172
L321.002 72.0132
L323.502 71.9025
L324.037 71.8896
L324.216 71.9343
L328.144 71.9068
L328.323 72.1509
L337.429 71.7215
L337.697 71.6492
L338.501 71.6841
L338.679 72.0173
L341.893 71.9156
L342.072 71.7208
L346.357 71.8386
L346.536 71.9373
L348.589 71.837
L349.75 71.782
L351 71.7693
L351.179 71.5244
L356.803 71.4186
L357.696 71.3874
L357.875 71.4595
L358.5 71.4552
L358.678 70.9659
L361.089 70.9554
L361.267 70.7411
L363.053 70.7363
L363.231 70.4334
L366.178 70.3349
L366.892 70.3198
L367.249 70.2939
L367.963 70.2737
L368.142 70.7446
L368.32 70.429
L370.106 70.404
L370.284 70.3059
L370.82 70.2896
L371.177 70.323
L375.552 70.2266
L378.141 70.1684
L378.32 70.4811
L379.391 70.5465
L379.659 70.603
L381.444 70.5781
L381.98 70.6052
L384.301 70.5061
L384.659 70.4108
L385.194 70.3914
L385.373 70.6083
L385.551 70.7081
L399.836 70.6045
L400.283 70.5662
L402.693 70.532
L402.872 70.1933
L404.479 70.1373
L404.657 70.348
L409.121 70.2425
L410.193 70.1495
L410.371 70.311
L412.782 70.3719
L412.96 70.6708
L416.621 70.866
L416.799 71.0862
L417.424 71.0678
L428.406 71.0861
L428.584 71.1822
L430.459 71.2896
L432.691 71.4521
L433.048 71.4429
L433.227 71.5298
L440.726 71.6089
L440.994 71.656
L441.798 71.6844
L441.976 71.774
L447.601 71.6703
L450.815 71.565
L451.619 71.5188
L451.976 71.5319
L452.244 71.4835
L452.333 71.4835
L452.511 71.6787
L452.868 71.6649
L453.047 71.8648
L453.493 71.7632
L459.029 71.6645
L459.564 71.6436
L461.35 71.5859
L465.636 71.6139
L465.903 72.0388
L466.082 72.063
L466.26 72.3422
L467.153 72.387
L467.332 72.466
L468.046 72.4476
L468.225 72.7451
L469.028 72.7243
L469.207 72.9413
L470.367 72.9462
L470.546 73.0292
L471.796 72.9588
L471.974 73.2914
L472.689 73.2207
L472.867 73.1579
L473.046 73.1971
L476.26 73.1121
L476.528 73.0549
L477.063 73.039
L477.242 73.2162
L477.51 73.1541
L479.028 73.2647
L479.206 73.3667
L480.099 73.3549
L480.277 73.5837
L491.884 73.4809
L492.152 73.383
L492.33 73.5565
L493.402 73.5448
L493.848 73.5205
L498.758 73.4617
L498.937 73.8977
L501.794 73.8139
L502.062 73.7687
L502.597 73.7823
L512.954 73.7838
L513.132 73.9824
L514.561 73.9955
L514.74 74.2156
L515.275 74.2233
L515.364 74.4869
L515.454 74.4141
L516.614 74.3194
L517.596 74.317
L518.311 74.3169
L518.311 74.3169" style="fill:none;stroke:#008000;stroke-dasharray:1.000000,1.000000;stroke-dashoffset:0.0;"/>
   </g>
   <g id="line2d_3">
    <path clip-path="url(#p7ff5b81e1d)" d="
M72 321.915
L72.0893 304.83
L72.1786 297.826
L72.2678 297.388
L72.3571 294.889
L72.5357 297.225
L72.7142 294.551
L72.8035 294.71
L72.8928 294.917
L73.0714 293.021
L73.2499 294.269
L73.3392 292.764
L73.5178 294.541
L73.607 293.547
L73.6963 293.792
L73.9642 295.862
L74.0534 295.605
L74.1427 295.946
L74.232 297.956
L74.3213 297.577
L74.6784 301.472
L74.7677 301.826
L75.1248 307.05
L75.2141 306.514
L75.3034 307.531
L75.3926 307.394
L75.4819 306.55
L75.839 315.694
L76.1962 321.448
L76.7318 329.509
L77.1782 336.79
L77.2675 336.839
L77.3568 337.242
L77.4461 337.113
L77.7139 338.024
L78.1603 341.295
L78.3389 341.056
L78.696 343.54
L78.8746 343.762
L78.9638 343.683
L79.0531 344.054
L79.4995 347.465
L79.5888 348.191
L79.6781 348
L79.9459 349.969
L80.2138 352.264
L80.4816 353.504
L80.8387 355.817
L81.0173 355.264
L81.1066 355.167
L81.3744 356.075
L81.553 356.437
L81.7315 357.06
L81.8208 357.063
L82.3565 358.76
L82.8029 359.684
L83.6957 364.528
L83.785 364.328
L84.6778 366.928
L84.767 367.003
L84.9456 366.654
L85.2134 367.036
L85.4813 367.661
L85.8384 366.869
L86.017 367.002
L86.2848 367.091
L86.9098 369.142
L86.999 369.739
L87.0883 369.593
L87.1776 369.878
L87.2669 369.764
L87.3562 369.899
L87.4454 369.729
L87.9811 370.84
L88.0704 370.622
L88.249 370.729
L88.4275 370.762
L89.1418 371.05
L89.231 371.056
L89.5882 371.609
L89.7667 371.58
L90.1238 372.471
L91.7309 375.668
L92.1773 375.873
L92.5344 376.106
L92.8915 376.478
L93.1594 376.828
L93.3379 376.713
L93.5165 376.862
L93.6058 376.805
L94.0522 377.365
L94.32 377.6
L94.8557 378.13
L95.0342 377.984
L95.1235 377.889
L95.2128 378.001
L95.3021 377.824
L95.3914 377.993
L95.4806 377.933
L95.6592 377.922
L95.8378 377.967
L95.927 377.769
L96.1949 378.043
L96.3734 378.152
L96.552 378.233
L96.7306 378.028
L96.9984 378.18
L97.2662 378.356
L99.0518 379.967
L99.2304 380.022
L99.9446 380.202
L100.123 379.968
L100.659 380.566
L100.837 380.353
L101.284 380.553
L101.641 380.933
L101.82 381.08
L101.998 381.083
L102.355 381.322
L102.623 381.347
L102.891 381.347
L103.069 381.156
L103.337 381.258
L103.694 381.419
L104.319 381.682
L104.498 381.75
L104.587 381.802
L104.676 381.718
L105.212 382.11
L105.391 382.149
L105.837 382.318
L106.373 382.415
L106.641 382.307
L106.998 382.34
L108.158 382.561
L108.605 382.618
L108.783 382.541
L108.873 382.551
L109.051 382.358
L109.498 382.488
L109.765 382.545
L109.944 382.491
L110.39 382.572
L110.748 382.637
L110.926 382.589
L111.551 382.658
L111.73 382.386
L112.444 382.496
L112.622 382.49
L113.158 382.828
L113.337 382.789
L114.319 382.802
L114.587 382.837
L114.854 382.858
L115.122 383.059
L117.711 383.417
L117.89 383.514
L118.158 383.496
L119.051 383.64
L119.586 383.813
L119.765 383.766
L119.943 383.85
L121.461 383.972
L122.175 383.96
L122.354 384.085
L122.532 383.816
L126.996 383.879
L127.175 383.597
L127.443 383.523
L127.711 383.518
L128.425 383.493
L128.604 383.444
L128.871 383.477
L128.961 383.365
L129.139 383.471
L130.121 383.43
L130.478 383.422
L130.657 383.059
L130.925 383.111
L131.103 383.192
L133.96 383.291
L134.05 383.174
L134.228 383.262
L135.567 383.283
L135.746 383.088
L138.067 383.14
L138.603 383.221
L139.853 383.228
L140.478 383.23
L142.71 383.445
L142.888 383.52
L143.245 383.516
L143.424 383.632
L145.656 383.605
L145.835 383.707
L147.977 383.737
L148.156 383.673
L148.692 383.679
L148.87 383.569
L149.406 383.493
L149.584 383.479
L149.763 383.66
L151.013 383.704
L151.281 383.65
L151.459 383.748
L153.156 383.738
L153.334 383.838
L156.28 384.033
L156.459 383.804
L160.298 384.002
L161.28 384.059
L170.119 383.995
L170.297 384.093
L173.065 384.071
L173.601 384.131
L183.154 384.336
L184.939 384.351
L185.118 384.533
L186.903 384.476
L187.796 384.38
L189.671 384.477
L190.028 384.494
L191.278 384.467
L191.367 384.621
L191.457 384.564
L192.439 384.643
L196.635 384.794
L196.813 385.016
L198.956 385.175
L200.474 385.296
L200.652 385.144
L203.867 385.246
L204.045 385.379
L205.116 385.385
L206.813 385.517
L207.081 385.588
L208.688 385.626
L210.205 385.644
L210.295 385.657
L210.473 385.832
L219.758 386.207
L219.937 386.372
L222.526 386.396
L223.955 386.416
L226.544 386.441
L226.812 386.379
L237.525 386.541
L237.704 386.659
L239.043 386.675
L240.65 386.71
L243.775 386.707
L253.417 386.79
L253.863 386.837
L256.363 386.874
L257.077 386.857
L274.398 387.137
L274.576 387.274
L281.094 387.277
L282.344 387.303
L284.933 387.29
L285.111 386.985
L298.325 386.981
L298.593 386.973
L298.771 386.847
L307.61 386.892
L307.788 386.534
L315.556 386.432
L315.734 386.423
L315.913 386.165
L328.144 386.222
L328.323 385.966
L338.501 386.073
L338.679 385.734
L341.893 385.78
L342.161 385.841
L346.357 385.895
L349.929 385.924
L359.66 386.034
L362.874 386.064
L363.321 386.072
L367.963 386.033
L368.142 385.843
L368.32 385.928
L375.909 386.002
L376.713 386.016
L384.659 385.979
L385.194 385.996
L385.373 385.776
L388.498 385.805
L404.479 385.837
L404.657 385.641
L412.157 385.593
L412.335 385.489
L412.782 385.482
L412.96 385.179
L415.46 385.187
L415.639 385.032
L416.621 384.991
L416.799 384.769
L418.139 384.812
L420.906 384.772
L421.085 384.698
L430.37 384.695
L430.638 384.492
L432.423 384.428
L434.298 384.393
L434.477 384.257
L440.905 384.162
L448.762 384
L449.476 384.019
L453.047 384.125
L453.672 384.188
L465.814 384.304
L465.993 384.079
L466.082 384.08
L466.26 383.797
L468.046 383.762
L468.225 383.493
L477.063 383.613
L477.242 383.429
L477.688 383.456
L478.224 383.464
L478.403 383.381
L479.028 383.333
L479.206 383.226
L480.099 383.228
L480.277 382.997
L491.973 383.1
L492.152 383.146
L492.33 382.97
L504.294 383.038
L504.562 382.973
L506.347 383.005
L506.526 382.932
L507.419 382.964
L512.954 382.841
L513.132 382.638
L514.561 382.653
L514.74 382.428
L515.275 382.419
L515.454 382.177
L517.15 382.241
L518.311 382.236
L518.311 382.236" style="fill:none;stroke:#ff0000;stroke-dasharray:3.000000,6.000000;stroke-dashoffset:0.0;"/>
   </g>
   <g id="line2d_4">
    <path clip-path="url(#p7ff5b81e1d)" d="
M72 323.4
L72.2678 295.388
L72.3571 294.064
L72.4464 295.091
L72.7142 291.927
L72.8035 292.857
L72.9821 295.476
L73.0714 294.133
L73.3392 297.65
L73.4285 296.995
L73.5178 295.794
L73.7856 298.433
L74.0534 306.544
L74.9462 323.857
L76.1962 336.854
L76.2854 336.709
L76.3747 337.662
L76.464 337.358
L76.6426 338.995
L76.9104 342.269
L76.9997 342.389
L77.7139 347.841
L77.9818 349.692
L78.2496 351.487
L78.6067 353.95
L78.7853 354.76
L78.9638 355.526
L79.0531 355.574
L79.4102 357.817
L80.303 362.138
L80.4816 362.767
L80.7494 364.223
L80.928 364.813
L81.2851 365.293
L81.8208 367.548
L81.9101 367.666
L82.2672 368.883
L82.4458 369.478
L83.785 373.837
L83.8742 373.873
L84.8563 375.886
L84.9456 375.819
L85.2134 376.382
L85.3027 376.244
L85.8384 377.062
L85.9277 376.642
L86.017 376.744
L86.1955 376.874
L86.3741 376.559
L86.4634 376.659
L86.5526 376.331
L86.6419 376.413
L87.5347 377.974
L87.7133 378.078
L87.9811 378.54
L88.1597 378.491
L88.6954 378.795
L88.9632 378.817
L90.2131 379.453
L90.6595 379.806
L91.6416 381.033
L91.8202 380.981
L92.3558 381.174
L93.3379 381.647
L93.5165 381.715
L94.0522 382.065
L94.1414 382.092
L94.2307 381.994
L94.5878 382.2
L94.7664 382.182
L95.0342 382.339
L95.3021 382.473
L95.5699 382.595
L95.8378 382.618
L96.8198 382.914
L97.4448 383.197
L97.7126 383.375
L97.8912 383.187
L97.9805 383.231
L98.159 383.177
L98.5162 383.506
L100.212 383.478
L100.391 383.524
L100.57 383.507
L100.837 383.654
L102.891 384.299
L103.427 384.344
L103.784 384.432
L104.409 384.491
L104.587 384.519
L104.944 384.682
L105.123 384.575
L105.569 384.687
L105.837 384.758
L106.016 384.602
L106.194 384.655
L106.373 384.54
L106.73 384.624
L106.998 384.562
L107.176 383.822
L107.444 383.829
L107.623 383.827
L108.426 383.998
L108.783 384.061
L108.962 384.067
L109.944 384.265
L112.712 384.492
L112.89 384.602
L113.247 384.652
L113.515 384.582
L114.765 384.609
L115.479 384.797
L115.658 384.921
L116.104 385.002
L118.247 385.163
L118.515 385.106
L118.783 385.159
L118.961 385.09
L119.765 385.238
L119.943 385.295
L120.658 385.245
L120.836 385.281
L121.55 385.054
L122.89 385.202
L123.515 385.201
L124.318 385.137
L125.3 384.961
L125.747 384.959
L126.907 384.966
L128.514 385.034
L128.782 385.028
L129.943 385.088
L130.925 385.2
L131.103 385.233
L134.05 385.141
L134.317 385.195
L134.853 385.161
L135.032 385.007
L135.567 384.929
L137.264 384.877
L137.978 384.951
L138.424 384.907
L138.96 384.839
L139.139 384.611
L139.764 384.566
L140.924 384.636
L142.62 384.639
L143.245 384.621
L143.424 384.722
L145.12 384.796
L147.799 384.612
L149.138 384.6
L149.584 384.527
L149.763 384.618
L150.209 384.589
L150.388 384.355
L150.924 384.382
L152.798 384.47
L153.156 384.442
L153.334 384.547
L153.691 384.484
L153.959 384.542
L154.227 384.498
L156.37 384.496
L156.995 384.501
L160.209 384.5
L161.637 384.399
L164.316 384.309
L164.762 384.273
L166.994 384.296
L167.797 384.232
L168.333 384.167
L170.119 384.184
L170.297 384.311
L173.154 384.089
L173.958 384.067
L175.833 383.909
L180.654 383.743
L180.922 383.809
L181.725 383.748
L181.814 383.723
L181.993 383.401
L183.957 383.374
L184.939 383.334
L185.028 383.527
L185.118 383.467
L187.618 383.458
L188.153 383.455
L189.046 383.368
L190.117 383.349
L191.278 383.384
L191.457 383.588
L192.082 383.619
L194.76 383.644
L196.278 383.613
L196.635 383.547
L196.813 383.813
L197.796 383.822
L198.153 383.821
L198.331 383.986
L200.563 384.013
L202.438 384.013
L202.617 383.757
L203.867 383.656
L204.045 383.811
L205.474 383.957
L205.92 383.999
L206.545 383.898
L206.724 384.048
L207.17 384.007
L208.241 383.98
L209.67 383.963
L210.295 383.939
L210.473 384.197
L213.866 384.015
L214.759 383.972
L214.848 383.972
L215.116 384.186
L217.705 384.217
L217.884 384.417
L219.758 384.443
L219.937 384.721
L220.83 384.697
L222.615 384.709
L223.955 384.679
L224.58 384.613
L224.758 384.438
L228.419 384.384
L228.776 384.228
L229.401 384.203
L231.276 384.175
L231.454 383.953
L232.258 383.943
L232.347 384.098
L232.436 384.04
L232.883 384.05
L233.061 384.193
L233.686 384.228
L235.204 384.225
L235.918 384.239
L237.525 384.297
L237.704 384.535
L238.061 384.557
L238.239 384.357
L239.132 384.313
L240.114 384.36
L248.417 384.462
L249.221 384.494
L249.399 384.412
L251.453 384.444
L256.006 384.579
L256.185 384.4
L257.613 384.403
L260.113 384.417
L263.059 384.431
L263.238 384.778
L265.648 384.791
L267.791 384.788
L267.97 384.644
L271.005 384.71
L271.184 384.401
L271.362 384.398
L271.541 384.24
L272.255 384.285
L274.398 384.356
L274.576 384.667
L277.523 384.658
L277.701 384.444
L278.237 384.473
L278.415 384.158
L280.647 384.192
L281.629 384.161
L283.058 384.196
L292.611 384.405
L292.789 384.151
L295.379 384.201
L296.807 384.228
L298.593 384.285
L303.235 384.399
L303.592 384.403
L303.771 384.172
L305.199 384.212
L307.788 384.292
L309.574 384.339
L309.753 384.125
L312.431 384.176
L313.413 384.183
L313.592 383.853
L320.823 383.942
L321.002 383.432
L321.984 383.48
L323.68 383.52
L325.377 383.46
L332.787 383.601
L341.626 383.932
L341.893 383.914
L342.072 384.045
L346.357 383.868
L346.536 383.766
L348.857 383.858
L349.482 383.893
L351 383.905
L351.179 384.076
L356.535 384.184
L358.232 384.238
L358.5 384.241
L358.678 384.592
L361.089 384.619
L361.267 384.769
L363.053 384.796
L363.231 385.069
L365.285 385.079
L365.463 385.202
L367.963 385.265
L368.142 384.984
L368.32 385.211
L373.856 385.336
L374.302 385.353
L376.445 385.377
L378.141 385.368
L378.32 385.057
L399.658 385.306
L399.836 385.187
L402.157 385.221
L402.693 385.244
L402.872 385.465
L403.854 385.509
L404.122 385.575
L405.014 385.573
L405.282 385.52
L409.211 385.626
L410.014 385.671
L423.317 385.779
L424.745 385.774
L425.817 385.799
L428.406 385.807
L428.584 385.689
L439.744 385.712
L452.333 385.993
L452.511 385.777
L452.868 385.78
L453.047 385.565
L453.851 385.616
L458.85 385.706
L462.064 385.743
L465.1 385.705
L465.368 385.654
L465.636 385.656
L465.814 385.428
L466.885 385.398
L469.028 385.365
L469.207 385.149
L470.367 385.142
L470.546 385.049
L471.796 385.074
L471.974 384.735
L474.653 384.85
L475.456 384.866
L482.509 384.975
L483.313 384.996
L498.758 385.098
L498.937 384.652
L503.401 384.73
L512.597 384.897
L513.043 384.928
L518.311 384.995
L518.311 384.995" style="fill:none;stroke:#00bfbf;stroke-dasharray:5.000000,1.000000,2.000000,1.000000,5.000000,1.000000;stroke-dashoffset:0.0;"/>
   </g>
   <g id="line2d_5">
    <path clip-path="url(#p7ff5b81e1d)" d="
M72 319.167
L72.2678 300.668
L72.3571 299.396
L72.5357 292.475
L72.7142 292.646
L72.8035 296.233
L72.8928 293.707
L72.9821 294.721
L73.0714 294.447
L73.1606 296
L73.4285 292.896
L73.607 300.231
L73.6963 299.645
L73.7856 300.059
L73.8749 303.421
L73.9642 303.351
L74.1427 301.896
L74.3213 302.634
L74.4998 301.763
L74.5891 302.832
L74.7677 302.159
L75.0355 302.816
L75.1248 301.24
L75.2141 301.376
L75.3034 302.201
L75.3926 302.02
L75.4819 301.927
L76.0176 297.62
L76.5533 286.859
L76.9104 281.612
L77.089 281.159
L77.2675 278.677
L77.6246 283.246
L77.8032 283.851
L78.2496 288.388
L78.3389 288.516
L78.5174 290.671
L78.6067 290.69
L79.0531 294.187
L79.1424 292.995
L79.2317 293.179
L79.321 293.212
L79.4995 291.695
L79.5888 292.255
L79.7674 290.863
L79.8566 291.052
L79.9459 291.256
L80.1245 289.938
L80.2138 289.837
L80.4816 287.591
L80.6602 287.166
L80.7494 287.545
L80.8387 286.54
L81.1958 288.62
L81.2851 288.482
L81.553 291.373
L81.9994 295.261
L82.6243 300.955
L82.7136 300.677
L82.8029 300.084
L82.8922 301.202
L82.9814 300.752
L83.16 301.429
L83.2493 300.718
L83.5171 301.245
L83.6957 299.344
L83.785 299.508
L83.9635 298.972
L84.0528 299.222
L84.2314 298.258
L84.3206 298.539
L84.4099 298.901
L84.5885 300.186
L84.6778 300.253
L84.8563 301.465
L85.6598 308.006
L85.8384 308.716
L86.2848 312.358
L86.4634 311.439
L86.6419 312.485
L86.7312 311.865
L86.9098 312.853
L87.1776 314.282
L87.2669 314.111
L87.3562 313.663
L87.4454 314.042
L87.5347 313.984
L87.624 313.886
L87.8026 315.032
L87.8918 314.692
L88.3382 318.127
L89.4989 322.091
L89.7667 323.197
L89.856 323.133
L90.0346 322.66
L90.2131 322.011
L90.3024 322.131
L90.3917 321.738
L90.7488 322.632
L90.9274 322.665
L91.0166 322.72
L91.2845 321.326
L91.3738 321.31
L91.5523 320.517
L91.9987 322.687
L92.1773 323.136
L92.4451 324.203
L92.9808 326.798
L93.2486 328.558
L93.3379 328.785
L93.4272 328.675
L93.695 329.139
L93.7843 329.183
L94.1414 329.909
L94.2307 329.706
L94.32 329.778
L94.4093 329.895
L94.5878 330.681
L94.6771 330.313
L94.7664 330.385
L94.945 330.156
L95.1235 330.308
L96.1949 335.477
L96.2842 335.648
L96.4627 336.439
L96.7306 337.421
L96.9984 338.492
L97.177 338.771
L97.3555 339.128
L97.4448 339.084
L97.7126 340.844
L97.8912 341.042
L97.9805 341.091
L98.0698 341.433
L98.159 341.39
L98.2483 340.889
L98.6054 341.85
L98.6947 341.239
L99.0518 341.933
L99.1411 342.029
L99.409 342.886
L99.5875 343.391
L99.7661 343.767
L100.302 344.797
L100.48 345.745
L100.57 345.857
L100.837 346.645
L101.105 346.997
L101.195 346.835
L101.284 346.955
L101.552 347.809
L101.641 347.751
L101.82 347.96
L101.998 347.968
L102.177 348.432
L102.355 348.734
L102.802 349.738
L103.069 350.147
L103.337 351.049
L103.427 351.151
L103.694 352.082
L104.141 352.751
L104.23 352.9
L104.319 352.837
L104.409 352.895
L104.766 354.001
L104.855 353.667
L105.034 354.398
L105.123 354.342
L105.301 354.542
L105.391 354.464
L105.569 354.556
L105.748 354.185
L105.837 354.157
L106.016 354.341
L106.284 355.101
L106.373 355.245
L106.551 355.717
L106.641 355.768
L106.998 356.394
L107.444 357.043
L107.623 357.809
L107.712 357.79
L107.891 358.068
L107.98 358.122
L108.158 358.351
L108.248 358.329
L108.694 358.731
L108.783 358.54
L109.051 358.889
L109.319 359.589
L109.676 359.924
L109.855 360.59
L110.569 361.871
L110.926 362.758
L111.015 362.807
L111.283 363.342
L111.462 363.463
L111.64 363.434
L111.73 363.326
L111.997 363.48
L112.622 363.781
L112.712 363.956
L112.89 364.512
L113.247 364.933
L113.872 365.534
L114.229 365.733
L114.497 366.05
L114.676 366.178
L114.854 366.297
L115.122 367.017
L115.301 367.017
L115.479 366.864
L115.658 367.424
L115.926 367.668
L116.104 367.804
L116.64 368.116
L117.086 368.5
L117.176 368.535
L117.354 368.851
L117.444 368.887
L117.979 369.703
L118.515 369.918
L118.783 370.194
L119.051 370.312
L119.14 369.986
L120.033 371.077
L120.658 371.287
L120.836 371.702
L122.175 372.317
L122.354 372.679
L124.05 373.159
L124.318 373.351
L124.675 373.533
L125.032 373.899
L125.836 374.176
L126.014 374.233
L126.193 374.151
L126.996 374.289
L127.443 374.392
L127.532 374.417
L127.8 374.677
L128.246 374.799
L128.425 374.949
L128.693 375.036
L128.871 375.215
L128.961 375.27
L129.139 375.573
L130.925 375.937
L131.103 376.178
L131.46 376.285
L132.978 376.74
L133.871 376.842
L134.05 376.854
L134.228 377.069
L139.674 378.463
L140.478 378.641
L141.103 378.693
L141.46 378.948
L141.906 379.036
L142.71 379.195
L142.888 379.348
L143.245 379.45
L143.424 379.699
L143.96 379.779
L145.299 379.946
L145.656 380.013
L145.835 380.222
L146.46 380.366
L146.995 380.536
L149.049 380.848
L149.584 380.937
L149.763 381.212
L150.924 381.428
L151.281 381.466
L151.459 381.622
L153.156 381.773
L153.334 381.988
L153.691 382.071
L153.87 382.178
L159.316 382.937
L159.494 382.853
L160.298 382.939
L161.101 383.066
L164.048 383.29
L169.494 383.828
L170.119 383.854
L170.297 383.994
L174.583 384.465
L175.297 384.559
L178.065 384.704
L178.243 384.811
L184.939 385.26
L185.118 385.412
L189.135 385.664
L190.385 385.784
L191.278 385.83
L191.457 385.951
L193.153 386.119
L195.653 386.251
L196.635 386.339
L196.813 386.476
L208.956 387.249
L210.295 387.294
L210.473 387.39
L217.705 387.656
L217.973 387.707
L229.758 388.031
L237.525 388.193
L237.882 388.234
L263.059 388.469
L263.416 388.505
L277.969 388.59
L518.311 388.798
L518.311 388.798" style="fill:none;stroke:#bf00bf;stroke-linecap:square;"/>
   </g>
   <g id="matplotlib.axis_1">
    <g id="xtick_1">
     <g id="line2d_6">
      <defs>
       <path d="
M0 0
L0 -4" id="mc7db9fdffb" style="stroke:#000000;stroke-width:0.5;"/>
      </defs>
      <g>
       <use style="stroke:#000000;stroke-width:0.5;" x="72.0" xlink:href="#mc7db9fdffb" y="388.8"/>
      </g>
     </g>
     <g id="line2d_7">
      <defs>
       <path d="
M0 0
L0 4" id="m5a7d422ac3" style="stroke:#000000;stroke-width:0.5;"/>
      </defs>
      <g>
       <use style="stroke:#000000;stroke-width:0.5;" x="72.0" xlink:href="#m5a7d422ac3" y="43.2"/>
      </g>
     </g>
     <g id="text_1">
      <!-- 0 -->
      <defs>
       <path d="
M56.9844 36.375
Q56.9844 16.7969 50.8594 7.64062
Q44.7344 -1.51562 31.8438 -1.51562
Q18.75 -1.51562 12.7188 7.76562
Q6.6875 17.0469 6.6875 36.2812
Q6.6875 55.6719 12.7812 64.9219
Q18.8906 74.1719 31.8438 74.1719
Q44.9219 74.1719 50.9531 64.7656
Q56.9844 55.375 56.9844 36.375
M44.1406 14.2031
Q45.8438 18.1719 46.4531 23.5156
Q47.0781 28.8594 47.0781 36.375
Q47.0781 43.7969 46.4531 49.2656
Q45.8438 54.7344 44.0938 58.5469
Q42.3906 62.3125 39.4219 64.2031
Q36.4688 66.1094 31.8438 66.1094
Q27.25 66.1094 24.2344 64.2031
Q21.2344 62.3125 19.4844 58.4531
Q17.8281 54.8281 17.2188 49.0156
Q16.6094 43.2188 16.6094 36.2812
Q16.6094 28.6562 17.1406 23.5312
Q17.6719 18.4062 19.4375 14.3594
Q21.0469 10.5469 24 8.54688
Q26.9531 6.54688 31.8438 6.54688
Q36.4219 6.54688 39.4531 8.45312
Q42.4844 10.3594 44.1406 14.2031" id="Verdana-30"/>
      </defs>
      <g transform="translate(68.9821875 401.918125)scale(0.12 -0.12)">
       <use xlink:href="#Verdana-30"/>
      </g>
     </g>
    </g>
    <g id="xtick_2">
     <g id="line2d_8">
      <g>
       <use style="stroke:#000000;stroke-width:0.5;" x="161.28" xlink:href="#mc7db9fdffb" y="388.8"/>
      </g>
     </g>
     <g id="line2d_9">
      <g>
       <use style="stroke:#000000;stroke-width:0.5;" x="161.28" xlink:href="#m5a7d422ac3" y="43.2"/>
      </g>
     </g>
     <g id="text_2">
      <!-- 1000 -->
      <defs>
       <path d="
M52.9375 0
L13.5781 0
L13.5781 7.42188
L28.7188 7.42188
L28.7188 56.1562
L13.5781 56.1562
L13.5781 62.7969
Q16.6562 62.7969 20.1719 63.2969
Q23.6875 63.8125 25.4844 64.7969
Q27.7344 66.0156 29.0312 67.8906
Q30.3281 69.7812 30.5156 72.9531
L38.0938 72.9531
L38.0938 7.42188
L52.9375 7.42188
z
" id="Verdana-31"/>
      </defs>
      <g transform="translate(147.2315625 401.918125)scale(0.12 -0.12)">
       <use xlink:href="#Verdana-31"/>
       <use x="63.57421875" xlink:href="#Verdana-30"/>
       <use x="127.1484375" xlink:href="#Verdana-30"/>
       <use x="190.72265625" xlink:href="#Verdana-30"/>
      </g>
     </g>
    </g>
    <g id="xtick_3">
     <g id="line2d_10">
      <g>
       <use style="stroke:#000000;stroke-width:0.5;" x="250.56" xlink:href="#mc7db9fdffb" y="388.8"/>
      </g>
     </g>
     <g id="line2d_11">
      <g>
       <use style="stroke:#000000;stroke-width:0.5;" x="250.56" xlink:href="#m5a7d422ac3" y="43.2"/>
      </g>
     </g>
     <g id="text_3">
      <!-- 2000 -->
      <defs>
       <path d="
M57.0781 0
L7.85938 0
L7.85938 10.2031
Q12.9844 14.5938 18.1406 18.9844
Q23.2969 23.3906 27.7344 27.7344
Q37.1094 36.8125 40.5781 42.1562
Q44.0469 47.5156 44.0469 53.7188
Q44.0469 59.375 40.3125 62.5625
Q36.5781 65.7656 29.8906 65.7656
Q25.4375 65.7656 20.2656 64.2031
Q15.0938 62.6406 10.1562 59.4219
L9.67188 59.4219
L9.67188 69.6719
Q13.1406 71.3906 18.9219 72.7969
Q24.7031 74.2188 30.125 74.2188
Q41.3125 74.2188 47.6562 68.8125
Q54 63.4219 54 54.2031
Q54 50.0469 52.9531 46.4531
Q51.9062 42.875 49.8594 39.6562
Q47.9531 36.625 45.3906 33.6875
Q42.8281 30.7656 39.1562 27.2031
Q33.9375 22.0781 28.3594 17.2656
Q22.7969 12.4531 17.9688 8.34375
L57.0781 8.34375
z
" id="Verdana-32"/>
      </defs>
      <g transform="translate(236.1684375 401.918125)scale(0.12 -0.12)">
       <use xlink:href="#Verdana-32"/>
       <use x="63.57421875" xlink:href="#Verdana-30"/>
       <use x="127.1484375" xlink:href="#Verdana-30"/>
       <use x="190.72265625" xlink:href="#Verdana-30"/>
      </g>
     </g>
    </g>
    <g id="xtick_4">
     <g id="line2d_12">
      <g>
       <use style="stroke:#000000;stroke-width:0.5;" x="339.84" xlink:href="#mc7db9fdffb" y="388.8"/>
      </g>
     </g>
     <g id="line2d_13">
      <g>
       <use style="stroke:#000000;stroke-width:0.5;" x="339.84" xlink:href="#m5a7d422ac3" y="43.2"/>
      </g>
     </g>
     <g id="text_4">
      <!-- 3000 -->
      <defs>
       <path d="
M50.6875 35.0156
Q53.0312 32.9062 54.5469 29.7344
Q56.0625 26.5625 56.0625 21.5312
Q56.0625 16.5469 54.25 12.3906
Q52.4375 8.25 49.1719 5.17188
Q45.5156 1.76562 40.5469 0.125
Q35.5938 -1.51562 29.6875 -1.51562
Q23.6406 -1.51562 17.7812 -0.0625
Q11.9219 1.375 8.15625 3.07812
L8.15625 13.2812
L8.89062 13.2812
Q13.0312 10.5469 18.6406 8.73438
Q24.2656 6.9375 29.5 6.9375
Q32.5625 6.9375 36.0312 7.95312
Q39.5 8.98438 41.6562 10.9844
Q43.8906 13.1406 44.9844 15.7188
Q46.0938 18.3125 46.0938 22.2656
Q46.0938 26.1719 44.8438 28.7344
Q43.6094 31.2969 41.4062 32.7656
Q39.2031 34.2812 36.0781 34.8438
Q32.9531 35.4062 29.3438 35.4062
L24.9531 35.4062
L24.9531 43.5
L28.375 43.5
Q35.7969 43.5 40.2031 46.5938
Q44.625 49.7031 44.625 55.6719
Q44.625 58.2969 43.5 60.2656
Q42.3906 62.25 40.375 63.5312
Q38.2812 64.7969 35.8906 65.2812
Q33.5 65.7656 30.4688 65.7656
Q25.8281 65.7656 20.5938 64.1094
Q15.375 62.4531 10.75 59.4219
L10.25 59.4219
L10.25 69.625
Q13.7188 71.3438 19.5 72.7812
Q25.2969 74.2188 30.7188 74.2188
Q36.0312 74.2188 40.0781 73.2344
Q44.1406 72.2656 47.4062 70.125
Q50.9219 67.7812 52.7344 64.4531
Q54.5469 61.1406 54.5469 56.6875
Q54.5469 50.6406 50.2656 46.125
Q46 41.6094 40.1875 40.4375
L40.1875 39.75
Q42.5312 39.3594 45.5469 38.1094
Q48.5781 36.8594 50.6875 35.0156" id="Verdana-33"/>
      </defs>
      <g transform="translate(325.46625 401.918125)scale(0.12 -0.12)">
       <use xlink:href="#Verdana-33"/>
       <use x="63.57421875" xlink:href="#Verdana-30"/>
       <use x="127.1484375" xlink:href="#Verdana-30"/>
       <use x="190.72265625" xlink:href="#Verdana-30"/>
      </g>
     </g>
    </g>
    <g id="xtick_5">
     <g id="line2d_14">
      <g>
       <use style="stroke:#000000;stroke-width:0.5;" x="429.12" xlink:href="#mc7db9fdffb" y="388.8"/>
      </g>
     </g>
     <g id="line2d_15">
      <g>
       <use style="stroke:#000000;stroke-width:0.5;" x="429.12" xlink:href="#m5a7d422ac3" y="43.2"/>
      </g>
     </g>
     <g id="text_5">
      <!-- 4000 -->
      <defs>
       <path d="
M58.7344 20.4531
L47.9531 20.4531
L47.9531 0
L38.5781 0
L38.5781 20.4531
L3.76562 20.4531
L3.76562 31.6875
L38.9688 72.7031
L47.9531 72.7031
L47.9531 28.2656
L58.7344 28.2656
z

M38.5781 28.2656
L38.5781 61.0781
L10.4062 28.2656
z
" id="Verdana-34"/>
      </defs>
      <g transform="translate(414.4828125 401.918125)scale(0.12 -0.12)">
       <use xlink:href="#Verdana-34"/>
       <use x="63.57421875" xlink:href="#Verdana-30"/>
       <use x="127.1484375" xlink:href="#Verdana-30"/>
       <use x="190.72265625" xlink:href="#Verdana-30"/>
      </g>
     </g>
    </g>
    <g id="xtick_6">
     <g id="line2d_16">
      <g>
       <use style="stroke:#000000;stroke-width:0.5;" x="518.4" xlink:href="#mc7db9fdffb" y="388.8"/>
      </g>
     </g>
     <g id="line2d_17">
      <g>
       <use style="stroke:#000000;stroke-width:0.5;" x="518.4" xlink:href="#m5a7d422ac3" y="43.2"/>
      </g>
     </g>
     <g id="text_6">
      <!-- 5000 -->
      <defs>
       <path d="
M56.5 23.0938
Q56.5 18.0156 54.6406 13.375
Q52.7812 8.73438 49.5625 5.5625
Q46.0469 2.15625 41.1875 0.3125
Q36.3281 -1.51562 29.9375 -1.51562
Q23.9688 -1.51562 18.4531 -0.265625
Q12.9375 0.984375 9.125 2.73438
L9.125 13.0312
L9.8125 13.0312
Q13.8125 10.5 19.1875 8.71875
Q24.5625 6.9375 29.7344 6.9375
Q33.2031 6.9375 36.4531 7.90625
Q39.7031 8.89062 42.2344 11.3281
Q44.3906 13.4219 45.4844 16.3438
Q46.5781 19.2812 46.5781 23.1406
Q46.5781 26.9062 45.2812 29.4844
Q44 32.0781 41.7031 33.6406
Q39.1562 35.5 35.5156 36.25
Q31.8906 37.0156 27.3906 37.0156
Q23.0938 37.0156 19.1094 36.4219
Q15.1406 35.8438 12.25 35.25
L12.25 72.7031
L56 72.7031
L56 64.1562
L21.6875 64.1562
L21.6875 44.8281
Q23.7812 45.0156 25.9688 45.1094
Q28.1719 45.2188 29.7812 45.2188
Q35.6875 45.2188 40.125 44.2188
Q44.5781 43.2188 48.2969 40.6719
Q52.2031 37.9844 54.3438 33.7344
Q56.5 29.5 56.5 23.0938" id="Verdana-35"/>
      </defs>
      <g transform="translate(504.084375 401.918125)scale(0.12 -0.12)">
       <use xlink:href="#Verdana-35"/>
       <use x="63.57421875" xlink:href="#Verdana-30"/>
       <use x="127.1484375" xlink:href="#Verdana-30"/>
       <use x="190.72265625" xlink:href="#Verdana-30"/>
      </g>
     </g>
    </g>
    <g id="text_7">
     <!-- Objective function exectuions -->
     <defs>
      <path d="
M63.9688 64.3594
Q68.4062 59.4688 70.7656 52.3906
Q73.1406 45.3125 73.1406 36.3281
Q73.1406 27.3438 70.7188 20.2344
Q68.3125 13.1406 63.9688 8.40625
Q59.4688 3.46875 53.3438 0.96875
Q47.2188 -1.51562 39.3594 -1.51562
Q31.6875 -1.51562 25.4062 1.01562
Q19.1406 3.5625 14.75 8.40625
Q10.3594 13.2344 7.98438 20.2656
Q5.60938 27.2969 5.60938 36.3281
Q5.60938 45.2188 7.95312 52.2656
Q10.2969 59.3281 14.7969 64.3594
Q19.0938 69.1406 25.4688 71.6719
Q31.8438 74.2188 39.3594 74.2188
Q47.1719 74.2188 53.3906 71.6562
Q59.625 69.0938 63.9688 64.3594
M63.0938 36.3281
Q63.0938 50.4844 56.7344 58.1719
Q50.3906 65.875 39.4062 65.875
Q28.3281 65.875 22 58.1719
Q15.6719 50.4844 15.6719 36.3281
Q15.6719 22.0156 22.1094 14.4219
Q28.5625 6.84375 39.4062 6.84375
Q50.25 6.84375 56.6719 14.4219
Q63.0938 22.0156 63.0938 36.3281" id="Verdana-4f"/>
      <path d="
M38.375 67.0938
L37.8906 67.0938
Q36.375 67.5312 33.9375 67.9844
Q31.5 68.4531 29.6406 68.4531
Q23.7344 68.4531 21.0625 65.8438
Q18.4062 63.2344 18.4062 56.3906
L18.4062 54.5469
L34.9688 54.5469
L34.9688 46.8281
L18.7031 46.8281
L18.7031 0
L9.51562 0
L9.51562 46.8281
L3.32812 46.8281
L3.32812 54.5469
L9.51562 54.5469
L9.51562 56.3438
Q9.51562 66.0625 14.3438 71.2656
Q19.1875 76.4688 28.3281 76.4688
Q31.3906 76.4688 33.8594 76.1719
Q36.3281 75.875 38.375 75.4844
z
" id="Verdana-66"/>
      <path d="
M57.0312 27.6875
Q57.0312 20.8438 55.0938 15.375
Q53.1719 9.90625 49.9062 6.20312
Q46.4375 2.34375 42.2812 0.40625
Q38.1406 -1.51562 33.1562 -1.51562
Q28.5156 -1.51562 25.0469 -0.40625
Q21.5781 0.6875 18.2188 2.54688
L17.625 0
L9.03125 0
L9.03125 75.9844
L18.2188 75.9844
L18.2188 48.8281
Q22.0781 52 26.4219 54.0312
Q30.7656 56.0625 36.1875 56.0625
Q45.8438 56.0625 51.4375 48.6406
Q57.0312 41.2188 57.0312 27.6875
M47.5625 27.4375
Q47.5625 37.2031 44.3281 42.25
Q41.1094 47.3125 33.9375 47.3125
Q29.9375 47.3125 25.8281 45.5781
Q21.7344 43.8438 18.2188 41.1094
L18.2188 9.85938
Q22.125 8.10938 24.9219 7.42188
Q27.7344 6.73438 31.2969 6.73438
Q38.9219 6.73438 43.2344 11.7344
Q47.5625 16.75 47.5625 27.4375" id="Verdana-62"/>
      <path id="Verdana-20"/>
      <path d="
M18.8906 63.6719
L8.54688 63.6719
L8.54688 73.1875
L18.8906 73.1875
z

M18.3125 0
L9.125 0
L9.125 54.5469
L18.3125 54.5469
z
" id="Verdana-69"/>
      <path d="
M26.0312 63.6719
L15.6719 63.6719
L15.6719 73.1875
L26.0312 73.1875
z

M25.4375 -1.3125
Q25.4375 -10.8906 20.5469 -15.7656
Q15.6719 -20.6562 7.46875 -20.6562
Q5.51562 -20.6562 2.3125 -20.2656
Q-0.875 -19.875 -3.03125 -19.2812
L-3.03125 -10.5469
L-2.54688 -10.5469
Q-1.17188 -11.0781 1.14062 -11.7656
Q3.46875 -12.4531 5.67188 -12.4531
Q9.1875 -12.4531 11.3281 -11.4688
Q13.4844 -10.5 14.5469 -8.54688
Q15.625 -6.59375 15.9375 -3.82812
Q16.2656 -1.07812 16.2656 2.875
L16.2656 46.8281
L4.89062 46.8281
L4.89062 54.5469
L25.4375 54.5469
z
" id="Verdana-6a"/>
      <path d="
M48 15.7188
Q48 8.25 41.8125 3.46875
Q35.6406 -1.3125 24.9531 -1.3125
Q18.8906 -1.3125 13.8438 0.125
Q8.79688 1.5625 5.375 3.26562
L5.375 13.5781
L5.85938 13.5781
Q10.2031 10.2969 15.5156 8.375
Q20.8438 6.45312 25.7344 6.45312
Q31.7812 6.45312 35.2031 8.40625
Q38.625 10.3594 38.625 14.5469
Q38.625 17.7812 36.7656 19.4375
Q34.9062 21.0938 29.6406 22.2656
Q27.6875 22.7031 24.5312 23.2812
Q21.3906 23.875 18.7969 24.5625
Q11.625 26.4688 8.60938 30.1562
Q5.60938 33.8438 5.60938 39.2031
Q5.60938 42.5781 7 45.5469
Q8.40625 48.5312 11.2344 50.875
Q13.9688 53.1719 18.1875 54.5156
Q22.4062 55.8594 27.6406 55.8594
Q32.5156 55.8594 37.5156 54.6562
Q42.5312 53.4688 45.8438 51.7656
L45.8438 41.9375
L45.3594 41.9375
Q41.8438 44.5312 36.8125 46.3125
Q31.7812 48.0938 26.9531 48.0938
Q21.9219 48.0938 18.4531 46.1562
Q14.9844 44.2344 14.9844 40.4375
Q14.9844 37.0625 17.0938 35.3594
Q19.1406 33.6406 23.7344 32.5625
Q26.2656 31.9844 29.4062 31.3906
Q32.5625 30.8125 34.6719 30.3281
Q41.0625 28.8594 44.5312 25.2969
Q48 21.6875 48 15.7188" id="Verdana-73"/>
      <path d="
M55.5156 27.25
Q55.5156 13.9219 48.6719 6.20312
Q41.8438 -1.51562 30.375 -1.51562
Q18.7969 -1.51562 11.9844 6.20312
Q5.17188 13.9219 5.17188 27.25
Q5.17188 40.5781 11.9844 48.3125
Q18.7969 56.0625 30.375 56.0625
Q41.8438 56.0625 48.6719 48.3125
Q55.5156 40.5781 55.5156 27.25
M46.0469 27.25
Q46.0469 37.8438 41.8906 42.9844
Q37.75 48.1406 30.375 48.1406
Q22.9062 48.1406 18.7812 42.9844
Q14.6562 37.8438 14.6562 27.25
Q14.6562 17 18.7969 11.6875
Q22.9531 6.39062 30.375 6.39062
Q37.7031 6.39062 41.875 11.6406
Q46.0469 16.8906 46.0469 27.25" id="Verdana-6f"/>
      <path d="
M54.6875 26.3125
L14.5 26.3125
Q14.5 21.2969 16.0156 17.5469
Q17.5312 13.8125 20.1719 11.4219
Q22.7031 9.07812 26.1875 7.90625
Q29.6875 6.73438 33.8906 6.73438
Q39.4531 6.73438 45.0938 8.95312
Q50.7344 11.1875 53.125 13.3281
L53.6094 13.3281
L53.6094 3.32812
Q48.9688 1.375 44.1406 0.046875
Q39.3125 -1.26562 33.9844 -1.26562
Q20.4062 -1.26562 12.7812 6.07812
Q5.17188 13.4219 5.17188 26.9531
Q5.17188 40.3281 12.4688 48.1875
Q19.7812 56.0625 31.6875 56.0625
Q42.7188 56.0625 48.7031 49.6094
Q54.6875 43.1719 54.6875 31.2969
z

M45.75 33.3438
Q45.7031 40.5781 42.1094 44.5312
Q38.5312 48.4844 31.2031 48.4844
Q23.8281 48.4844 19.4531 44.1406
Q15.0938 39.7969 14.5 33.3438
z
" id="Verdana-65"/>
      <path d="
M54.25 0
L45.0625 0
L45.0625 6.0625
Q40.4375 2.39062 36.1875 0.4375
Q31.9375 -1.51562 26.8125 -1.51562
Q18.2188 -1.51562 13.4219 3.73438
Q8.64062 8.98438 8.64062 19.1406
L8.64062 54.5469
L17.8281 54.5469
L17.8281 23.4844
Q17.8281 19.3438 18.2188 16.375
Q18.6094 13.4219 19.875 11.3281
Q21.1875 9.1875 23.2812 8.20312
Q25.3906 7.23438 29.3906 7.23438
Q32.9531 7.23438 37.1719 9.07812
Q41.4062 10.9375 45.0625 13.8125
L45.0625 54.5469
L54.25 54.5469
z
" id="Verdana-75"/>
      <path d="
M49.3594 3.42188
Q44.7812 1.21875 40.6562 0
Q36.5312 -1.21875 31.8906 -1.21875
Q25.9844 -1.21875 21.0469 0.515625
Q16.1094 2.25 12.5938 5.76562
Q9.03125 9.28125 7.07812 14.6406
Q5.125 20.0156 5.125 27.2031
Q5.125 40.5781 12.4688 48.1875
Q19.8281 55.8125 31.8906 55.8125
Q36.5781 55.8125 41.0938 54.4844
Q45.6094 53.1719 49.3594 51.2656
L49.3594 41.0625
L48.875 41.0625
Q44.6719 44.3438 40.2031 46.0938
Q35.75 47.8594 31.5 47.8594
Q23.6875 47.8594 19.1719 42.6094
Q14.6562 37.3594 14.6562 27.2031
Q14.6562 17.3281 19.0625 12.0312
Q23.4844 6.73438 31.5 6.73438
Q34.2812 6.73438 37.1562 7.46875
Q40.0469 8.20312 42.3281 9.375
Q44.3438 10.4062 46.0938 11.5469
Q47.8594 12.7031 48.875 13.5312
L49.3594 13.5312
z
" id="Verdana-63"/>
      <path d="
M54.6406 0
L45.4531 0
L45.4531 31.0625
Q45.4531 34.8125 45.0156 38.1094
Q44.5781 41.4062 43.4062 43.2656
Q42.1875 45.3125 39.8906 46.3125
Q37.5938 47.3125 33.9375 47.3125
Q30.1719 47.3125 26.0625 45.4531
Q21.9688 43.6094 18.2188 40.7188
L18.2188 0
L9.03125 0
L9.03125 54.5469
L18.2188 54.5469
L18.2188 48.4844
Q22.5156 52.0469 27.0938 54.0469
Q31.6875 56.0625 36.5312 56.0625
Q45.3594 56.0625 50 50.7344
Q54.6406 45.4062 54.6406 35.4062
z
" id="Verdana-6e"/>
      <path d="
M37.3594 0.484375
Q34.7656 -0.203125 31.7031 -0.640625
Q28.6562 -1.07812 26.2656 -1.07812
Q17.9219 -1.07812 13.5781 3.40625
Q9.23438 7.90625 9.23438 17.8281
L9.23438 46.8281
L3.03125 46.8281
L3.03125 54.5469
L9.23438 54.5469
L9.23438 70.2188
L18.4062 70.2188
L18.4062 54.5469
L37.3594 54.5469
L37.3594 46.8281
L18.4062 46.8281
L18.4062 21.9688
Q18.4062 17.6719 18.5938 15.25
Q18.7969 12.8438 19.9688 10.75
Q21.0469 8.79688 22.9219 7.89062
Q24.8125 6.98438 28.6562 6.98438
Q30.9062 6.98438 33.3438 7.64062
Q35.7969 8.29688 36.8594 8.73438
L37.3594 8.73438
z
" id="Verdana-74"/>
      <path d="
M56.2031 54.5469
L34.125 0
L24.9062 0
L2.98438 54.5469
L12.9375 54.5469
L29.8281 11.1406
L46.5781 54.5469
z
" id="Verdana-76"/>
      <path d="
M56.25 0
L44.6719 0
L29.2031 20.9531
L13.625 0
L2.9375 0
L24.2188 27.2031
L3.125 54.5469
L14.7031 54.5469
L30.0781 33.9375
L45.5156 54.5469
L56.25 54.5469
L34.8125 27.6875
z
" id="Verdana-78"/>
     </defs>
     <g transform="translate(206.5078125 418.509375)scale(0.12 -0.12)">
      <use xlink:href="#Verdana-4f"/>
      <use x="78.7109375" xlink:href="#Verdana-62"/>
      <use x="141.015625" xlink:href="#Verdana-6a"/>
      <use x="175.439453125" xlink:href="#Verdana-65"/>
      <use x="235.009765625" xlink:href="#Verdana-63"/>
      <use x="287.109375" xlink:href="#Verdana-74"/>
      <use x="326.513671875" xlink:href="#Verdana-69"/>
      <use x="353.955078125" xlink:href="#Verdana-76"/>
      <use x="412.259765625" xlink:href="#Verdana-65"/>
      <use x="471.830078125" xlink:href="#Verdana-20"/>
      <use x="506.986328125" xlink:href="#Verdana-66"/>
      <use x="542.142578125" xlink:href="#Verdana-75"/>
      <use x="605.423828125" xlink:href="#Verdana-6e"/>
      <use x="668.705078125" xlink:href="#Verdana-63"/>
      <use x="720.8046875" xlink:href="#Verdana-74"/>
      <use x="760.208984375" xlink:href="#Verdana-69"/>
      <use x="787.650390625" xlink:href="#Verdana-6f"/>
      <use x="848.34375" xlink:href="#Verdana-6e"/>
      <use x="911.625" xlink:href="#Verdana-20"/>
      <use x="946.78125" xlink:href="#Verdana-65"/>
      <use x="1006.3515625" xlink:href="#Verdana-78"/>
      <use x="1064.40625" xlink:href="#Verdana-65"/>
      <use x="1123.9765625" xlink:href="#Verdana-63"/>
      <use x="1176.076171875" xlink:href="#Verdana-74"/>
      <use x="1215.48046875" xlink:href="#Verdana-75"/>
      <use x="1278.76171875" xlink:href="#Verdana-69"/>
      <use x="1306.203125" xlink:href="#Verdana-6f"/>
      <use x="1366.896484375" xlink:href="#Verdana-6e"/>
      <use x="1430.177734375" xlink:href="#Verdana-73"/>
     </g>
    </g>
   </g>
   <g id="matplotlib.axis_2">
    <g id="ytick_1">
     <g id="line2d_18">
      <defs>
       <path d="
M0 0
L4 0" id="md7965d1ba0" style="stroke:#000000;stroke-width:0.5;"/>
      </defs>
      <g>
       <use style="stroke:#000000;stroke-width:0.5;" x="72.0" xlink:href="#md7965d1ba0" y="388.8"/>
      </g>
     </g>
     <g id="line2d_19">
      <defs>
       <path d="
M0 0
L-4 0" id="md9a1c1a7cd" style="stroke:#000000;stroke-width:0.5;"/>
      </defs>
      <g>
       <use style="stroke:#000000;stroke-width:0.5;" x="518.4" xlink:href="#md9a1c1a7cd" y="388.8"/>
      </g>
     </g>
     <g id="text_8">
      <!-- 0.0 -->
      <defs>
       <path d="
M24.0312 0
L12.3594 0
L12.3594 13.9219
L24.0312 13.9219
z
" id="Verdana-2e"/>
      </defs>
      <g transform="translate(49.97 392.1515625)scale(0.12 -0.12)">
       <use xlink:href="#Verdana-30"/>
       <use x="63.57421875" xlink:href="#Verdana-2e"/>
       <use x="99.951171875" xlink:href="#Verdana-30"/>
      </g>
     </g>
    </g>
    <g id="ytick_2">
     <g id="line2d_20">
      <g>
       <use style="stroke:#000000;stroke-width:0.5;" x="72.0" xlink:href="#md7965d1ba0" y="319.68"/>
      </g>
     </g>
     <g id="line2d_21">
      <g>
       <use style="stroke:#000000;stroke-width:0.5;" x="518.4" xlink:href="#md9a1c1a7cd" y="319.68"/>
      </g>
     </g>
     <g id="text_9">
      <!-- 0.2 -->
      <g transform="translate(49.95875 323.0315625)scale(0.12 -0.12)">
       <use xlink:href="#Verdana-30"/>
       <use x="63.57421875" xlink:href="#Verdana-2e"/>
       <use x="99.951171875" xlink:href="#Verdana-32"/>
      </g>
     </g>
    </g>
    <g id="ytick_3">
     <g id="line2d_22">
      <g>
       <use style="stroke:#000000;stroke-width:0.5;" x="72.0" xlink:href="#md7965d1ba0" y="250.56"/>
      </g>
     </g>
     <g id="line2d_23">
      <g>
       <use style="stroke:#000000;stroke-width:0.5;" x="518.4" xlink:href="#md9a1c1a7cd" y="250.56"/>
      </g>
     </g>
     <g id="text_10">
      <!-- 0.4 -->
      <g transform="translate(49.76 253.9115625)scale(0.12 -0.12)">
       <use xlink:href="#Verdana-30"/>
       <use x="63.57421875" xlink:href="#Verdana-2e"/>
       <use x="99.951171875" xlink:href="#Verdana-34"/>
      </g>
     </g>
    </g>
    <g id="ytick_4">
     <g id="line2d_24">
      <g>
       <use style="stroke:#000000;stroke-width:0.5;" x="72.0" xlink:href="#md7965d1ba0" y="181.44"/>
      </g>
     </g>
     <g id="line2d_25">
      <g>
       <use style="stroke:#000000;stroke-width:0.5;" x="518.4" xlink:href="#md9a1c1a7cd" y="181.44"/>
      </g>
     </g>
     <g id="text_11">
      <!-- 0.6 -->
      <defs>
       <path d="
M58.1562 23.5781
Q58.1562 12.5 50.8594 5.48438
Q43.5625 -1.51562 32.9531 -1.51562
Q27.5938 -1.51562 23.1875 0.140625
Q18.7969 1.8125 15.4375 5.07812
Q11.2344 9.125 8.95312 15.8125
Q6.6875 22.5156 6.6875 31.9375
Q6.6875 41.6094 8.76562 49.0781
Q10.8438 56.5469 15.375 62.3594
Q19.6719 67.875 26.4531 70.9688
Q33.25 74.0781 42.2812 74.0781
Q45.1719 74.0781 47.125 73.8281
Q49.0781 73.5781 51.0781 72.9531
L51.0781 63.625
L50.5938 63.625
Q49.2188 64.3594 46.4531 65.0156
Q43.7031 65.6719 40.8281 65.6719
Q30.3281 65.6719 24.0781 59.1094
Q17.8281 52.5469 16.7969 41.3594
Q20.9062 43.8438 24.875 45.1406
Q28.8594 46.4375 34.0781 46.4375
Q38.7188 46.4375 42.25 45.5781
Q45.7969 44.7344 49.5156 42.1406
Q53.8125 39.1562 55.9844 34.6094
Q58.1562 30.0781 58.1562 23.5781
M48.25 23.1875
Q48.25 27.7344 46.9062 30.7031
Q45.5625 33.6875 42.4844 35.8906
Q40.2344 37.4531 37.5 37.9375
Q34.7656 38.4219 31.7812 38.4219
Q27.6406 38.4219 24.0781 37.4375
Q20.5156 36.4688 16.75 34.4219
Q16.6562 33.3438 16.5938 32.3438
Q16.5469 31.3438 16.5469 29.8281
Q16.5469 22.125 18.1406 17.6562
Q19.7344 13.1875 22.5156 10.5938
Q24.75 8.45312 27.3594 7.45312
Q29.9844 6.45312 33.0625 6.45312
Q40.1406 6.45312 44.1875 10.7656
Q48.25 15.0938 48.25 23.1875" id="Verdana-36"/>
      </defs>
      <g transform="translate(49.829375 184.7915625)scale(0.12 -0.12)">
       <use xlink:href="#Verdana-30"/>
       <use x="63.57421875" xlink:href="#Verdana-2e"/>
       <use x="99.951171875" xlink:href="#Verdana-36"/>
      </g>
     </g>
    </g>
    <g id="ytick_5">
     <g id="line2d_26">
      <g>
       <use style="stroke:#000000;stroke-width:0.5;" x="72.0" xlink:href="#md7965d1ba0" y="112.32"/>
      </g>
     </g>
     <g id="line2d_27">
      <g>
       <use style="stroke:#000000;stroke-width:0.5;" x="518.4" xlink:href="#md9a1c1a7cd" y="112.32"/>
      </g>
     </g>
     <g id="text_12">
      <!-- 0.8 -->
      <defs>
       <path d="
M57.625 20.2656
Q57.625 10.8438 50.2656 4.59375
Q42.9219 -1.65625 31.7812 -1.65625
Q19.9688 -1.65625 12.9531 4.4375
Q5.95312 10.5469 5.95312 20.0625
Q5.95312 26.125 9.46875 31.0312
Q12.9844 35.9375 19.3906 38.8125
L19.3906 39.1094
Q13.5312 42.2344 10.7188 45.9375
Q7.90625 49.6562 7.90625 55.2188
Q7.90625 63.4219 14.6406 68.8906
Q21.3906 74.3594 31.7812 74.3594
Q42.6719 74.3594 49.1719 69.1406
Q55.6719 63.9219 55.6719 55.8594
Q55.6719 50.9219 52.5938 46.1562
Q49.5156 41.4062 43.5625 38.7188
L43.5625 38.4219
Q50.3906 35.5 54 31.2031
Q57.625 26.9062 57.625 20.2656
M46.0469 55.7656
Q46.0469 60.9844 42.0156 64.0781
Q37.9844 67.1875 31.7344 67.1875
Q25.5938 67.1875 21.6562 64.25
Q17.7188 61.3281 17.7188 56.3438
Q17.7188 52.8281 19.7031 50.2656
Q21.6875 47.7031 25.6875 45.7031
Q27.4844 44.8281 30.875 43.4062
Q34.2812 42 37.5 41.0625
Q42.3281 44.2812 44.1875 47.75
Q46.0469 51.2188 46.0469 55.7656
M47.5625 19.3438
Q47.5625 23.8281 45.5781 26.5312
Q43.6094 29.25 37.8438 31.9844
Q35.5469 33.0625 32.8125 33.9844
Q30.0781 34.9062 25.5312 36.5781
Q21.1406 34.1875 18.4844 30.0781
Q15.8281 25.9844 15.8281 20.7969
Q15.8281 14.2031 20.3594 9.90625
Q24.9062 5.60938 31.8906 5.60938
Q39.0156 5.60938 43.2812 9.26562
Q47.5625 12.9375 47.5625 19.3438" id="Verdana-38"/>
      </defs>
      <g transform="translate(49.893125 115.6715625)scale(0.12 -0.12)">
       <use xlink:href="#Verdana-30"/>
       <use x="63.57421875" xlink:href="#Verdana-2e"/>
       <use x="99.951171875" xlink:href="#Verdana-38"/>
      </g>
     </g>
    </g>
    <g id="ytick_6">
     <g id="line2d_28">
      <g>
       <use style="stroke:#000000;stroke-width:0.5;" x="72.0" xlink:href="#md7965d1ba0" y="43.2"/>
      </g>
     </g>
     <g id="line2d_29">
      <g>
       <use style="stroke:#000000;stroke-width:0.5;" x="518.4" xlink:href="#md9a1c1a7cd" y="43.2"/>
      </g>
     </g>
     <g id="text_13">
      <!-- 1.0 -->
      <g transform="translate(50.796875 46.5515625)scale(0.12 -0.12)">
       <use xlink:href="#Verdana-31"/>
       <use x="63.57421875" xlink:href="#Verdana-2e"/>
       <use x="99.951171875" xlink:href="#Verdana-30"/>
      </g>
     </g>
    </g>
    <g id="text_14">
     <!-- Rank 0 Probability -->
     <defs>
      <path d="
M56.2031 54.5469
L24.3594 -20.125
L14.5469 -20.125
L24.7031 2.64062
L2.98438 54.5469
L12.9375 54.5469
L29.6875 14.1094
L46.5781 54.5469
z
" id="Verdana-79"/>
      <path d="
M69.9219 0
L57.375 0
L33.0625 28.9062
L19.4375 28.9062
L19.4375 0
L9.76562 0
L9.76562 72.7031
L30.125 72.7031
Q36.7188 72.7031 41.1094 71.8438
Q45.5156 71 49.0312 68.7969
Q52.9844 66.3125 55.2031 62.5156
Q57.4219 58.7344 57.4219 52.9375
Q57.4219 45.0625 53.4688 39.7656
Q49.5156 34.4688 42.5781 31.7812
z

M47.3125 52.25
Q47.3125 55.375 46.2188 57.7812
Q45.125 60.2031 42.5781 61.8594
Q40.4844 63.2812 37.5938 63.8438
Q34.7188 64.4062 30.8125 64.4062
L19.4375 64.4062
L19.4375 36.9688
L29.2031 36.9688
Q33.7969 36.9688 37.2031 37.7656
Q40.625 38.5781 43.0156 40.7656
Q45.2188 42.8281 46.2656 45.4844
Q47.3125 48.1406 47.3125 52.25" id="Verdana-52"/>
      <path d="
M51.4219 0
L42.2812 0
L42.2812 5.8125
Q41.0625 4.98438 38.9844 3.48438
Q36.9219 2 34.9688 1.125
Q32.6719 0 29.6875 -0.75
Q26.7031 -1.51562 22.7031 -1.51562
Q15.3281 -1.51562 10.2031 3.35938
Q5.07812 8.25 5.07812 15.8281
Q5.07812 22.0156 7.73438 25.8438
Q10.4062 29.6875 15.3281 31.8906
Q20.3125 34.0781 27.2969 34.8594
Q34.2812 35.6406 42.2812 36.0312
L42.2812 37.4531
Q42.2812 40.5781 41.1875 42.625
Q40.0938 44.6719 38.0312 45.8438
Q36.0781 46.9688 33.3438 47.3594
Q30.6094 47.75 27.6406 47.75
Q24.0312 47.75 19.5781 46.7969
Q15.1406 45.8438 10.4062 44.0469
L9.90625 44.0469
L9.90625 53.375
Q12.5938 54.1094 17.6719 54.9844
Q22.75 55.8594 27.6875 55.8594
Q33.4531 55.8594 37.7188 54.9062
Q42 53.9531 45.125 51.6562
Q48.1875 49.4219 49.7969 45.8438
Q51.4219 42.2812 51.4219 37.0156
z

M42.2812 13.4219
L42.2812 28.6094
Q38.0938 28.375 32.3906 27.875
Q26.7031 27.3906 23.3906 26.4688
Q19.4375 25.3438 16.9844 22.9688
Q14.5469 20.6094 14.5469 16.4531
Q14.5469 11.7656 17.375 9.39062
Q20.2188 7.03125 26.0312 7.03125
Q30.8594 7.03125 34.8594 8.90625
Q38.875 10.7969 42.2812 13.4219" id="Verdana-61"/>
      <path d="
M57.3281 50.7344
Q57.3281 45.9062 55.6406 41.7656
Q53.9531 37.6406 50.9219 34.625
Q47.1719 30.8594 42.0469 28.9688
Q36.9219 27.0938 29.1094 27.0938
L19.4375 27.0938
L19.4375 0
L9.76562 0
L9.76562 72.7031
L29.5 72.7031
Q36.0312 72.7031 40.5781 71.6094
Q45.125 70.5156 48.6406 68.1719
Q52.7812 65.375 55.0469 61.2188
Q57.3281 57.0781 57.3281 50.7344
M47.2656 50.4844
Q47.2656 54.25 45.9375 57.0312
Q44.625 59.8125 41.9375 61.5781
Q39.5938 63.0938 36.5938 63.75
Q33.5938 64.4062 29 64.4062
L19.4375 64.4062
L19.4375 35.3594
L27.5938 35.3594
Q33.4531 35.3594 37.1094 36.4062
Q40.7656 37.4531 43.0625 39.75
Q45.3594 42.0938 46.3125 44.6719
Q47.2656 47.2656 47.2656 50.4844" id="Verdana-50"/>
      <path d="
M18.3125 0
L9.125 0
L9.125 75.9844
L18.3125 75.9844
z
" id="Verdana-6c"/>
      <path d="
M58.5469 0
L46.4375 0
L24.5625 23.875
L18.6094 18.2188
L18.6094 0
L9.42188 0
L9.42188 75.9844
L18.6094 75.9844
L18.6094 27.25
L45.125 54.5469
L56.6875 54.5469
L31.3438 29.3438
z
" id="Verdana-6b"/>
      <path d="
M43.0625 44.5312
L42.5781 44.5312
Q40.5312 45.0156 38.5938 45.2344
Q36.6719 45.4531 34.0312 45.4531
Q29.7812 45.4531 25.8281 43.5781
Q21.875 41.7031 18.2188 38.7188
L18.2188 0
L9.03125 0
L9.03125 54.5469
L18.2188 54.5469
L18.2188 46.4844
Q23.6875 50.875 27.8594 52.7031
Q32.0312 54.5469 36.375 54.5469
Q38.7656 54.5469 39.8438 54.4219
Q40.9219 54.2969 43.0625 53.9531
z
" id="Verdana-72"/>
     </defs>
     <g transform="translate(42.345 270.583125)rotate(-90.0)scale(0.12 -0.12)">
      <use xlink:href="#Verdana-52"/>
      <use x="67.53125" xlink:href="#Verdana-61"/>
      <use x="127.58984375" xlink:href="#Verdana-6e"/>
      <use x="190.87109375" xlink:href="#Verdana-6b"/>
      <use x="250.05078125" xlink:href="#Verdana-20"/>
      <use x="285.20703125" xlink:href="#Verdana-30"/>
      <use x="348.78125" xlink:href="#Verdana-20"/>
      <use x="383.9375" xlink:href="#Verdana-50"/>
      <use x="444.240234375" xlink:href="#Verdana-72"/>
      <use x="486.916015625" xlink:href="#Verdana-6f"/>
      <use x="547.609375" xlink:href="#Verdana-62"/>
      <use x="609.9140625" xlink:href="#Verdana-61"/>
      <use x="669.97265625" xlink:href="#Verdana-62"/>
      <use x="732.27734375" xlink:href="#Verdana-69"/>
      <use x="759.71875" xlink:href="#Verdana-6c"/>
      <use x="787.16015625" xlink:href="#Verdana-69"/>
      <use x="814.6015625" xlink:href="#Verdana-74"/>
      <use x="853.505859375" xlink:href="#Verdana-79"/>
     </g>
    </g>
   </g>
   <g id="patch_3">
    <path d="
M518.4 388.8
L518.4 43.2" style="fill:none;stroke:#000000;"/>
   </g>
   <g id="patch_4">
    <path d="
M72 43.2
L518.4 43.2" style="fill:none;stroke:#000000;"/>
   </g>
   <g id="patch_5">
    <path d="
M72 388.8
L518.4 388.8" style="fill:none;stroke:#000000;"/>
   </g>
   <g id="patch_6">
    <path d="
M72 388.8
L72 43.2" style="fill:none;stroke:#000000;"/>
   </g>
   <g id="text_15">
    <!-- Shubert01 Rank 0 Probability -->
    <defs>
     <path d="
M62.5938 20.75
Q62.5938 16.5 60.6094 12.3438
Q58.6406 8.20312 55.0781 5.32812
Q51.1719 2.20312 45.9688 0.4375
Q40.7656 -1.3125 33.4531 -1.3125
Q25.5938 -1.3125 19.3125 0.140625
Q13.0312 1.60938 6.54688 4.5
L6.54688 16.6094
L7.23438 16.6094
Q12.75 12.0156 19.9688 9.51562
Q27.2031 7.03125 33.5469 7.03125
Q42.5312 7.03125 47.5312 10.3906
Q52.5469 13.7656 52.5469 19.3906
Q52.5469 24.2188 50.1719 26.5156
Q47.7969 28.8125 42.9688 30.0781
Q39.3125 31.0625 35.0312 31.6875
Q30.7656 32.3281 25.9844 33.2969
Q16.3125 35.3594 11.6406 40.3125
Q6.98438 45.2656 6.98438 53.2188
Q6.98438 62.3594 14.6875 68.1875
Q22.4062 74.0312 34.2812 74.0312
Q41.9375 74.0312 48.3281 72.5625
Q54.7344 71.0938 59.6719 68.9531
L59.6719 57.5156
L58.9844 57.5156
Q54.8281 61.0312 48.0625 63.3438
Q41.3125 65.6719 34.2344 65.6719
Q26.4688 65.6719 21.75 62.4531
Q17.0469 59.2344 17.0469 54.1562
Q17.0469 49.6094 19.3906 47.0156
Q21.7344 44.4375 27.6406 43.0625
Q30.7656 42.3906 36.5156 41.4062
Q42.2812 40.4375 46.2969 39.4062
Q54.3906 37.25 58.4844 32.9062
Q62.5938 28.5625 62.5938 20.75" id="Verdana-53"/>
     <path d="
M54.6406 0
L45.4531 0
L45.4531 31.0625
Q45.4531 34.8125 45.0156 38.1094
Q44.5781 41.4062 43.4062 43.2656
Q42.1875 45.3125 39.8906 46.3125
Q37.5938 47.3125 33.9375 47.3125
Q30.1719 47.3125 26.0625 45.4531
Q21.9688 43.6094 18.2188 40.7188
L18.2188 0
L9.03125 0
L9.03125 75.9844
L18.2188 75.9844
L18.2188 48.4844
Q22.5156 52.0469 27.0938 54.0469
Q31.6875 56.0625 36.5312 56.0625
Q45.3594 56.0625 50 50.7344
Q54.6406 45.4062 54.6406 35.4062
z
" id="Verdana-68"/>
    </defs>
    <g transform="translate(189.293625 38.2)scale(0.144 -0.144)">
     <use xlink:href="#Verdana-53"/>
     <use x="68.359375" xlink:href="#Verdana-68"/>
     <use x="131.640625" xlink:href="#Verdana-75"/>
     <use x="194.921875" xlink:href="#Verdana-62"/>
     <use x="257.2265625" xlink:href="#Verdana-65"/>
     <use x="316.796875" xlink:href="#Verdana-72"/>
     <use x="359.47265625" xlink:href="#Verdana-74"/>
     <use x="398.876953125" xlink:href="#Verdana-30"/>
     <use x="462.451171875" xlink:href="#Verdana-31"/>
     <use x="526.025390625" xlink:href="#Verdana-20"/>
     <use x="561.181640625" xlink:href="#Verdana-52"/>
     <use x="628.712890625" xlink:href="#Verdana-61"/>
     <use x="688.771484375" xlink:href="#Verdana-6e"/>
     <use x="752.052734375" xlink:href="#Verdana-6b"/>
     <use x="811.232421875" xlink:href="#Verdana-20"/>
     <use x="846.388671875" xlink:href="#Verdana-30"/>
     <use x="909.962890625" xlink:href="#Verdana-20"/>
     <use x="945.119140625" xlink:href="#Verdana-50"/>
     <use x="1005.421875" xlink:href="#Verdana-72"/>
     <use x="1048.09765625" xlink:href="#Verdana-6f"/>
     <use x="1108.791015625" xlink:href="#Verdana-62"/>
     <use x="1171.095703125" xlink:href="#Verdana-61"/>
     <use x="1231.154296875" xlink:href="#Verdana-62"/>
     <use x="1293.458984375" xlink:href="#Verdana-69"/>
     <use x="1320.900390625" xlink:href="#Verdana-6c"/>
     <use x="1348.341796875" xlink:href="#Verdana-69"/>
     <use x="1375.783203125" xlink:href="#Verdana-74"/>
     <use x="1414.6875" xlink:href="#Verdana-79"/>
    </g>
   </g>
   <g id="legend_1">
    <g id="patch_7">
     <path d="
M407.18 270.759
L511.2 270.759
L511.2 161.241
L407.18 161.241
L407.18 270.759
z
" style="fill:#ffffff;stroke:#000000;"/>
    </g>
    <g id="line2d_30">
     <path d="
M417.26 172.902
L437.42 172.902" style="fill:none;stroke:#0000ff;stroke-dasharray:6.000000,2.000000;stroke-dashoffset:0.0;"/>
    </g>
    <g id="line2d_31"/>
    <g id="text_16">
     <!-- AMPGO -->
     <defs>
      <path d="
M74.5156 0
L64.8438 0
L64.8438 62.6406
L44.625 20.0156
L38.875 20.0156
L18.7969 62.6406
L18.7969 0
L9.76562 0
L9.76562 72.7031
L22.9531 72.7031
L42.3281 32.2344
L61.0781 72.7031
L74.5156 72.7031
z
" id="Verdana-4d"/>
      <path d="
M67.0938 0
L56.7812 0
L49.6562 20.2656
L18.2188 20.2656
L11.0781 0
L1.26562 0
L27.7344 72.7031
L40.625 72.7031
z

M46.6875 28.5625
L33.9375 64.2656
L21.1406 28.5625
z
" id="Verdana-41"/>
      <path d="
M70.4062 5.375
Q64.4531 2.64062 57.3906 0.609375
Q50.3438 -1.42188 43.75 -1.42188
Q35.25 -1.42188 28.1719 0.921875
Q21.0938 3.26562 16.1094 7.95312
Q11.0781 12.7031 8.34375 19.7969
Q5.60938 26.9062 5.60938 36.4219
Q5.60938 53.8594 15.7969 63.9375
Q25.9844 74.0312 43.75 74.0312
Q49.9531 74.0312 56.4219 72.5312
Q62.8906 71.0469 70.3594 67.4844
L70.3594 56
L69.4844 56
Q67.9688 57.1719 65.0781 59.0781
Q62.2031 60.9844 59.4219 62.25
Q56.0625 63.7656 51.7812 64.7656
Q47.5156 65.7656 42.0938 65.7656
Q29.8906 65.7656 22.7812 57.9219
Q15.6719 50.0938 15.6719 36.7188
Q15.6719 22.6094 23.0938 14.7656
Q30.5156 6.9375 43.3125 6.9375
Q48 6.9375 52.6562 7.85938
Q57.3281 8.79688 60.8438 10.25
L60.8438 28.0781
L41.3594 28.0781
L41.3594 36.5781
L70.4062 36.5781
z
" id="Verdana-47"/>
     </defs>
     <g transform="translate(453.26025 177.942375)scale(0.144 -0.144)">
      <use xlink:href="#Verdana-41"/>
      <use x="68.359375" xlink:href="#Verdana-4d"/>
      <use x="152.63671875" xlink:href="#Verdana-50"/>
      <use x="212.939453125" xlink:href="#Verdana-47"/>
      <use x="290.478515625" xlink:href="#Verdana-4f"/>
     </g>
    </g>
    <g id="line2d_32">
     <path d="
M417.26 193.942
L437.42 193.942" style="fill:none;stroke:#008000;stroke-dasharray:1.000000,1.000000;stroke-dashoffset:0.0;"/>
    </g>
    <g id="line2d_33"/>
    <g id="text_17">
     <!-- Anneal -->
     <g transform="translate(453.26025 198.982125)scale(0.144 -0.144)">
      <use xlink:href="#Verdana-41"/>
      <use x="68.359375" xlink:href="#Verdana-6e"/>
      <use x="131.640625" xlink:href="#Verdana-6e"/>
      <use x="194.921875" xlink:href="#Verdana-65"/>
      <use x="254.4921875" xlink:href="#Verdana-61"/>
      <use x="314.55078125" xlink:href="#Verdana-6c"/>
     </g>
    </g>
    <g id="line2d_34">
     <path d="
M417.26 214.982
L437.42 214.982" style="fill:none;stroke:#ff0000;stroke-dasharray:3.000000,6.000000;stroke-dashoffset:0.0;"/>
    </g>
    <g id="line2d_35"/>
    <g id="text_18">
     <!-- BSA -->
     <defs>
      <path d="
M64.5938 22.3594
Q64.5938 16.9375 62.5469 12.7812
Q60.5 8.64062 57.0312 5.95312
Q52.9375 2.73438 48.0156 1.35938
Q43.1094 0 35.5469 0
L9.76562 0
L9.76562 72.7031
L31.2969 72.7031
Q39.2656 72.7031 43.2188 72.1094
Q47.1719 71.5312 50.7812 69.6719
Q54.7812 67.5781 56.5938 64.2812
Q58.4062 60.9844 58.4062 56.3906
Q58.4062 51.2188 55.7656 47.5781
Q53.125 43.9531 48.7344 41.75
L48.7344 41.3594
Q56.1094 39.8438 60.3438 34.8906
Q64.5938 29.9375 64.5938 22.3594
M48.3438 55.125
Q48.3438 57.7656 47.4531 59.5625
Q46.5781 61.375 44.625 62.5
Q42.3281 63.8125 39.0625 64.125
Q35.7969 64.4531 30.9531 64.4531
L19.4375 64.4531
L19.4375 43.4531
L31.9375 43.4531
Q36.4688 43.4531 39.1562 43.9219
Q41.8438 44.3906 44.1406 45.8438
Q46.4375 47.3125 47.3906 49.625
Q48.3438 51.9531 48.3438 55.125
M54.5469 21.9688
Q54.5469 26.375 53.2188 28.9531
Q51.9062 31.5469 48.4375 33.3438
Q46.0938 34.5781 42.75 34.9375
Q39.4062 35.2969 34.625 35.2969
L19.4375 35.2969
L19.4375 8.25
L32.2344 8.25
Q38.5781 8.25 42.625 8.90625
Q46.6875 9.57812 49.2656 11.3281
Q52 13.2344 53.2656 15.6719
Q54.5469 18.1094 54.5469 21.9688" id="Verdana-42"/>
     </defs>
     <g transform="translate(453.26025 220.021875)scale(0.144 -0.144)">
      <use xlink:href="#Verdana-42"/>
      <use x="68.5546875" xlink:href="#Verdana-53"/>
      <use x="135.9140625" xlink:href="#Verdana-41"/>
     </g>
    </g>
    <g id="line2d_36">
     <path d="
M417.26 236.022
L437.42 236.022" style="fill:none;stroke:#00bfbf;stroke-dasharray:5.000000,1.000000,2.000000,1.000000,5.000000,1.000000;stroke-dashoffset:0.0;"/>
    </g>
    <g id="line2d_37"/>
    <g id="text_19">
     <!-- Cuckoo -->
     <defs>
      <path d="
M65.9219 5.28125
Q63.2344 4.10938 61.0625 3.07812
Q58.8906 2.04688 55.375 0.921875
Q52.3906 0 48.8906 -0.65625
Q45.4062 -1.3125 41.2188 -1.3125
Q33.2969 -1.3125 26.8281 0.90625
Q20.3594 3.125 15.5781 7.85938
Q10.8906 12.5 8.25 19.6562
Q5.60938 26.8125 5.60938 36.2812
Q5.60938 45.2656 8.14062 52.3438
Q10.6875 59.4219 15.4844 64.3125
Q20.125 69.0469 26.6875 71.5312
Q33.25 74.0312 41.2656 74.0312
Q47.125 74.0312 52.9531 72.6094
Q58.7969 71.1875 65.9219 67.625
L65.9219 56.1562
L65.1875 56.1562
Q59.1875 61.1875 53.2656 63.4688
Q47.3594 65.7656 40.625 65.7656
Q35.1094 65.7656 30.6875 63.9844
Q26.2656 62.2031 22.7969 58.4531
Q19.4375 54.7812 17.5469 49.1875
Q15.6719 43.6094 15.6719 36.2812
Q15.6719 28.6094 17.75 23.0938
Q19.8281 17.5781 23.0938 14.1094
Q26.5156 10.5 31.0781 8.76562
Q35.6406 7.03125 40.7188 7.03125
Q47.7031 7.03125 53.7969 9.42188
Q59.9062 11.8125 65.2344 16.6094
L65.9219 16.6094
z
" id="Verdana-43"/>
     </defs>
     <g transform="translate(453.26025 241.061625)scale(0.144 -0.144)">
      <use xlink:href="#Verdana-43"/>
      <use x="69.82421875" xlink:href="#Verdana-75"/>
      <use x="133.10546875" xlink:href="#Verdana-63"/>
      <use x="185.205078125" xlink:href="#Verdana-6b"/>
      <use x="243.384765625" xlink:href="#Verdana-6f"/>
      <use x="304.078125" xlink:href="#Verdana-6f"/>
     </g>
    </g>
    <g id="line2d_38">
     <path d="
M417.26 257.061
L437.42 257.061" style="fill:none;stroke:#bf00bf;stroke-linecap:square;"/>
    </g>
    <g id="line2d_39"/>
    <g id="text_20">
     <!-- qABC -->
     <defs>
      <path d="
M53.2656 -20.125
L44.0938 -20.125
L44.0938 6.15625
Q39.8438 2.48438 35.6406 0.703125
Q31.4531 -1.07812 26.5625 -1.07812
Q16.8438 -1.07812 11.0625 6.42188
Q5.28125 13.9219 5.28125 27.0938
Q5.28125 34.125 7.29688 39.5156
Q9.32812 44.9219 12.6406 48.5781
Q15.875 52.1562 20.2188 54.1094
Q24.5625 56.0625 29.3906 56.0625
Q33.7969 56.0625 37.1875 55.0781
Q40.5781 54.1094 44.0938 52.2031
L44.6719 54.5469
L53.2656 54.5469
z

M44.0938 13.875
L44.0938 44.7344
Q40.2812 46.4375 37.3438 47.1094
Q34.4219 47.7969 31 47.7969
Q23.0469 47.7969 18.8906 42.4062
Q14.75 37.0156 14.75 27.5469
Q14.75 17.9688 18.0938 12.8125
Q21.4375 7.67188 28.6094 7.67188
Q32.625 7.67188 36.625 9.40625
Q40.625 11.1406 44.0938 13.875" id="Verdana-71"/>
     </defs>
     <g transform="translate(453.26025 262.101375)scale(0.144 -0.144)">
      <use xlink:href="#Verdana-71"/>
      <use x="62.3046875" xlink:href="#Verdana-41"/>
      <use x="130.6640625" xlink:href="#Verdana-42"/>
      <use x="199.21875" xlink:href="#Verdana-43"/>
     </g>
    </g>
   </g>
  </g>
 </g>
 <defs>
  <clipPath id="p7ff5b81e1d">
   <rect height="345.6" width="446.4" x="72.0" y="43.2"/>
  </clipPath>
 </defs>
</svg>
