<?xml version="1.0" encoding="utf-8" standalone="no"?>
<!DOCTYPE svg PUBLIC "-//W3C//DTD SVG 1.1//EN"
  "http://www.w3.org/Graphics/SVG/1.1/DTD/svg11.dtd">
<!-- Created with matplotlib (http://matplotlib.org/) -->
<svg height="432pt" version="1.1" viewBox="0 0 576 432" width="576pt" xmlns="http://www.w3.org/2000/svg" xmlns:xlink="http://www.w3.org/1999/xlink">
 <defs>
  <style type="text/css">
*{stroke-linecap:butt;stroke-linejoin:round;}
  </style>
 </defs>
 <g id="figure_1">
  <g id="patch_1">
   <path d="
M0 432
L576 432
L576 0
L0 0
z
" style="fill:#ffffff;"/>
  </g>
  <g id="axes_1">
   <g id="patch_2">
    <path d="
M72 388.8
L518.4 388.8
L518.4 43.2
L72 43.2
z
" style="fill:#ffffff;"/>
   </g>
   <g id="line2d_1">
    <path clip-path="url(#p7ff5b81e1d)" d="
M72 356.016
L80.7494 356.016
L80.928 349.466
L89.4989 349.466
L89.6774 348.394
L98.2483 348.394
L98.4269 344.501
L106.998 344.501
L107.176 342.389
L115.747 342.389
L115.926 340.745
L124.497 340.745
L124.675 339.975
L141.996 339.901
L142.174 339.711
L159.494 339.818
L159.673 339.944
L194.492 340.033
L194.76 340.081
L255.738 340.007
L256.006 339.955
L281.987 339.846
L282.254 339.779
L308.235 339.682
L308.592 339.652
L343.233 339.56
L343.679 339.531
L404.479 339.441
L404.836 339.409
L439.476 339.31
L439.744 339.252
L456.975 339.2
L457.243 339.14
L500.723 339.031
L501.258 339.009
L518.311 338.976
L518.311 338.976" style="fill:none;stroke:#0000ff;stroke-dasharray:6.000000,2.000000;stroke-dashoffset:0.0;"/>
   </g>
   <g id="line2d_2">
    <path clip-path="url(#p7ff5b81e1d)" d="
M72 358.247
L72.0893 358.46
L72.2678 358.63
L72.5357 358.866
L72.7142 359.087
L73.2499 359.45
L73.3392 359.391
L73.6963 359.681
L73.8749 359.581
L74.1427 360.02
L74.6784 359.776
L74.9462 360.118
L75.0355 360.104
L75.2141 360.221
L75.3034 360.223
L75.4819 360.317
L75.839 360.007
L76.0176 359.898
L76.2854 359.958
L76.7318 359.825
L76.9104 359.839
L77.2675 359.839
L77.4461 359.697
L77.6246 359.684
L77.7139 359.769
L78.1603 359.401
L78.696 359.567
L78.8746 359.366
L79.0531 359.129
L79.2317 359.204
L80.1245 358.508
L80.2138 358.574
L80.4816 358.232
L80.5709 358.266
L80.8387 358.034
L82.9814 356.566
L83.16 356.498
L83.4278 356.246
L83.785 356.315
L84.1421 356.313
L84.4099 356.048
L84.8563 355.686
L85.0349 355.438
L85.2134 355.439
L85.8384 355.119
L86.017 355.131
L86.3741 354.741
L86.6419 354.463
L86.999 354.145
L87.5347 353.833
L87.7133 353.772
L87.9811 353.392
L88.3382 353.207
L88.6061 352.897
L89.4096 352.529
L90.2131 351.889
L90.3024 351.929
L91.0166 351.156
L91.3738 350.939
L91.5523 350.658
L91.6416 350.665
L91.9094 350.432
L92.088 350.285
L92.2666 350.19
L93.1594 349.684
L93.5165 349.358
L94.1414 348.814
L94.32 348.727
L94.5878 348.607
L94.8557 348.436
L95.0342 348.291
L95.3021 348.272
L95.8378 347.702
L96.0163 347.682
L96.3734 347.383
L96.6413 347.283
L97.177 346.728
L98.3376 346.273
L98.6947 345.976
L98.9626 345.738
L99.5875 345.474
L99.8554 345.175
L100.302 345.039
L100.391 345.116
L100.659 344.861
L100.927 344.709
L101.284 344.218
L102.355 343.655
L102.802 343.293
L102.98 343.341
L103.248 343.094
L104.052 342.589
L104.23 342.462
L104.676 342.325
L105.48 341.947
L105.569 342.014
L106.016 341.563
L106.998 340.916
L107.087 340.906
L107.266 340.612
L107.355 340.656
L107.533 340.456
L108.158 340.159
L108.426 339.836
L109.14 339.297
L109.319 339.307
L109.498 339.187
L109.765 339.035
L110.033 338.882
L110.48 338.669
L110.748 338.499
L111.105 338.179
L112.176 337.24
L112.444 337.28
L112.801 336.912
L112.98 336.884
L113.337 336.615
L113.783 336.347
L113.962 336.303
L114.408 335.91
L114.854 335.576
L116.104 334.912
L116.283 334.797
L116.551 334.659
L117.354 334.347
L117.533 334.154
L117.622 334.219
L118.247 333.742
L118.426 333.759
L118.783 333.456
L118.961 333.421
L119.586 332.91
L119.943 332.797
L120.122 332.632
L120.39 332.579
L121.104 332.052
L121.283 331.991
L121.55 331.798
L121.729 331.739
L121.818 331.785
L122.354 331.432
L122.443 331.447
L122.622 331.34
L123.068 331.266
L123.247 331.014
L124.229 330.529
L124.497 330.532
L124.675 330.412
L124.764 330.395
L125.032 330.123
L125.211 330.103
L125.836 329.756
L126.193 329.629
L127.532 328.625
L127.621 328.658
L127.8 328.444
L128.336 328.037
L128.514 327.983
L128.871 327.808
L129.496 327.443
L129.675 327.386
L129.943 327.229
L131.103 326.698
L131.282 326.625
L131.46 326.568
L132.353 326.349
L132.532 326.216
L132.71 326.154
L133.157 325.794
L133.335 325.827
L133.871 325.718
L134.05 325.653
L134.228 325.558
L134.407 325.405
L134.853 324.819
L134.942 324.941
L135.21 324.723
L135.3 324.73
L135.746 324.204
L136.014 324.18
L136.103 324.232
L136.282 324.041
L136.46 323.969
L137.264 323.489
L138.246 322.618
L138.424 322.597
L138.692 322.324
L139.139 322.233
L139.406 322.125
L140.031 321.65
L140.21 321.69
L140.478 321.475
L141.46 320.923
L141.638 320.635
L141.906 320.724
L142.353 320.462
L142.62 320.103
L142.978 320.001
L143.424 319.772
L143.603 319.751
L144.228 319.11
L144.585 318.755
L144.942 318.683
L145.21 318.507
L145.477 318.378
L145.656 318.184
L145.745 318.251
L145.924 318.161
L146.102 318.221
L146.46 317.958
L147.531 317.349
L147.799 317.107
L148.156 316.781
L148.513 316.637
L150.031 315.995
L150.388 315.976
L150.566 315.817
L151.816 315.293
L152.084 315.188
L153.066 314.605
L153.156 314.643
L153.423 314.443
L153.78 314.409
L153.87 314.346
L154.138 314.467
L154.316 314.402
L154.495 314.484
L155.298 314.147
L155.477 314.211
L156.191 313.882
L156.37 313.887
L156.548 313.873
L157.709 313.741
L158.066 313.495
L158.244 313.566
L158.869 313.192
L159.316 313.057
L159.762 312.729
L160.209 312.371
L160.476 312.177
L160.744 312.257
L161.191 311.808
L161.726 311.494
L161.905 311.335
L161.994 311.387
L162.262 311.287
L162.798 311.155
L163.423 310.436
L163.601 310.4
L164.494 310.049
L164.673 310.041
L164.94 309.816
L165.119 309.778
L165.298 309.606
L165.833 309.495
L166.458 309.213
L166.994 309.028
L167.172 309.019
L167.351 308.96
L168.69 308.029
L168.869 307.959
L169.047 307.884
L169.226 307.901
L170.476 307.353
L170.744 307.25
L170.833 307.345
L171.101 306.906
L171.547 306.51
L171.904 306.578
L172.351 306.559
L172.708 306.653
L173.958 306.064
L174.226 305.886
L174.583 305.829
L174.761 305.769
L175.029 305.574
L175.118 305.592
L175.476 305.328
L176.19 305.119
L176.368 305.157
L176.636 305.025
L176.904 304.941
L177.975 304.696
L178.065 304.637
L178.154 304.737
L178.243 304.58
L178.511 304.725
L178.868 304.616
L179.047 304.658
L179.761 304.395
L180.743 304.286
L180.922 304.069
L181.1 304.109
L182.707 303.242
L182.886 303.183
L183.064 303.129
L183.689 302.934
L184.493 302.369
L185.028 302.295
L185.207 302.011
L185.296 302.113
L185.564 302.193
L185.743 302.21
L185.921 302.122
L186.189 302.161
L186.636 301.898
L186.814 301.932
L186.993 301.824
L187.796 301.599
L188.064 301.647
L188.332 301.449
L188.6 301.494
L188.957 301.469
L189.225 301.368
L189.403 301.268
L190.385 300.922
L190.564 300.922
L190.832 300.811
L190.921 300.879
L191.278 300.646
L191.457 300.665
L191.814 300.459
L191.992 300.528
L192.171 300.52
L192.528 300.491
L192.974 300.518
L193.153 300.427
L193.421 300.434
L193.689 300.295
L193.956 300.264
L194.135 300.218
L194.224 300.31
L194.492 300.201
L195.117 299.969
L195.474 299.722
L197.26 299.117
L197.528 299.161
L197.796 299.051
L197.974 298.989
L198.153 299.015
L198.688 298.73
L198.778 298.744
L199.224 298.399
L199.492 298.43
L199.581 298.231
L199.67 298.278
L199.76 298.235
L199.849 298.318
L199.938 298.244
L200.117 298.454
L200.295 298.375
L200.474 298.55
L201.277 298.187
L202.081 297.812
L202.26 297.916
L202.438 297.88
L202.527 297.911
L202.706 297.765
L202.974 297.828
L203.777 297.662
L204.045 297.454
L204.224 297.38
L204.492 297.188
L204.581 297.226
L204.938 296.923
L205.206 296.822
L205.384 296.797
L206.456 296.331
L206.724 296.319
L207.17 296.205
L207.259 296.235
L207.527 296.016
L207.706 295.946
L207.795 295.936
L208.063 295.628
L208.152 295.692
L208.241 295.603
L208.688 295.819
L209.313 295.859
L209.491 295.997
L209.848 295.962
L210.027 295.951
L210.295 295.812
L210.473 295.784
L210.741 295.742
L210.83 295.773
L211.009 295.66
L211.277 295.712
L211.991 295.685
L212.17 295.654
L212.437 295.68
L212.705 295.797
L212.884 295.697
L213.152 295.629
L213.42 295.491
L214.044 295.561
L214.223 295.529
L214.402 295.526
L214.669 295.447
L215.027 295.445
L215.116 295.188
L215.294 295.258
L215.741 295.235
L215.83 295.235
L216.098 295.033
L216.366 294.917
L218.866 294.348
L219.044 294.398
L219.223 294.344
L219.312 294.376
L219.491 294.193
L219.669 294.254
L219.758 294.07
L219.848 294.137
L220.74 293.809
L220.83 293.82
L221.008 293.712
L221.901 293.287
L222.08 293.34
L222.348 293.199
L222.437 293.386
L222.526 293.336
L222.705 293.09
L222.972 293.101
L223.151 293.111
L223.33 293.229
L223.597 292.915
L223.687 292.911
L223.865 293.023
L224.133 293.06
L224.58 292.782
L225.115 292.99
L225.383 292.761
L225.562 292.861
L225.74 292.666
L226.008 292.798
L226.544 292.761
L227.347 292.419
L227.794 292.593
L227.972 292.574
L228.686 292.659
L228.865 292.508
L229.222 292.394
L229.401 292.35
L229.49 292.353
L229.668 292.474
L229.758 292.467
L229.936 292.562
L230.293 292.467
L230.829 292.181
L231.008 292.321
L231.186 292.232
L231.276 292.261
L231.365 292.117
L231.454 292.172
L231.9 292.284
L232.168 292.113
L232.436 292.219
L232.525 292.048
L232.704 292.071
L232.972 291.958
L233.15 291.964
L233.329 291.897
L233.508 291.898
L233.686 291.989
L233.954 291.711
L234.311 291.922
L235.382 291.87
L235.561 291.97
L235.74 291.925
L235.829 291.952
L236.275 291.65
L236.364 291.709
L236.632 291.598
L236.811 291.607
L237.079 291.519
L237.347 291.412
L237.704 291.269
L237.972 291.262
L238.418 291.236
L238.686 291.054
L238.864 291.077
L239.043 291.079
L239.221 291.052
L239.489 291.015
L239.579 291.125
L240.561 290.404
L240.828 290.535
L241.007 290.485
L241.543 290.381
L242.078 290.642
L243.06 290.371
L243.239 290.272
L243.418 290.25
L243.775 290.063
L243.953 290.025
L244.132 289.747
L244.221 289.804
L244.489 289.541
L245.471 289.426
L245.56 289.336
L245.828 289.43
L246.007 289.387
L246.185 289.423
L246.453 289.262
L246.81 289.151
L247.078 288.982
L247.257 288.973
L247.435 288.931
L247.882 288.845
L248.417 288.956
L249.846 288.378
L250.203 288.378
L250.292 288.181
L250.381 288.222
L250.56 288.213
L250.739 288.171
L250.917 288.131
L251.274 288.319
L251.453 288.336
L251.542 288.346
L251.721 288.284
L252.078 288.469
L252.256 288.371
L252.435 288.438
L253.774 288.338
L254.22 288.16
L254.488 288.159
L254.935 288.086
L255.292 288.077
L255.828 288.237
L256.185 288.253
L256.274 288.359
L256.363 288.282
L256.452 288.363
L256.72 288.251
L257.077 288.394
L257.524 288.365
L259.042 288.049
L259.22 288.109
L259.309 288.022
L259.577 288.215
L259.756 288.235
L260.024 288.389
L260.292 288.422
L260.381 288.506
L260.47 288.435
L260.559 288.519
L260.738 288.441
L260.827 288.516
L261.006 288.343
L261.274 288.562
L261.631 288.472
L262.702 287.804
L262.881 287.802
L263.059 287.799
L263.148 287.812
L263.327 287.643
L264.577 287.739
L264.666 287.589
L264.756 287.66
L264.934 287.604
L265.47 287.392
L265.648 287.347
L266.184 287.141
L266.363 286.873
L266.541 286.972
L266.72 286.812
L266.988 287.097
L267.077 286.997
L267.255 286.859
L267.434 286.887
L267.523 286.773
L267.88 286.98
L268.059 287.04
L268.237 287.086
L268.505 287.048
L269.041 286.879
L269.22 286.918
L269.487 286.686
L269.844 286.671
L270.023 286.578
L270.202 286.493
L270.38 286.432
L271.094 286.205
L271.273 286.17
L271.541 286.335
L271.809 286.239
L271.987 286.306
L272.166 286.232
L272.434 286.135
L272.701 286.016
L272.88 286.004
L273.059 285.826
L274.13 285.667
L274.398 285.496
L275.291 285.199
L275.648 285.194
L275.916 285.11
L276.094 285.083
L276.183 284.949
L276.451 285.147
L277.255 284.854
L277.88 285.046
L278.505 284.824
L278.772 284.751
L278.951 284.781
L279.308 284.744
L279.487 284.65
L280.022 284.465
L280.201 284.507
L280.38 284.342
L280.469 284.345
L280.647 284.171
L281.719 284.35
L281.897 284.514
L282.076 284.444
L282.344 284.439
L282.612 284.432
L282.969 284.25
L283.861 284.121
L284.04 284.077
L284.486 284.017
L284.665 283.823
L284.844 283.814
L285.558 283.75
L285.826 283.602
L286.361 283.696
L286.54 283.616
L287.79 283.3
L287.968 283.413
L288.236 283.34
L288.415 283.466
L288.683 283.327
L288.772 283.352
L288.95 283.237
L289.218 283.432
L289.575 283.326
L289.754 283.473
L289.932 283.375
L290.2 283.443
L290.557 283.442
L290.915 283.275
L292.968 282.993
L293.057 283.029
L293.414 282.776
L294.129 282.576
L294.307 282.732
L294.396 282.641
L294.754 282.982
L295.646 282.987
L296.004 282.936
L296.45 282.934
L296.807 282.909
L296.986 283.072
L297.253 283.048
L297.7 283.109
L297.968 282.888
L298.146 282.882
L298.414 282.956
L298.503 282.995
L298.682 282.936
L299.218 283.015
L299.396 282.942
L299.843 283.055
L300.021 282.969
L300.2 283.014
L300.378 283.022
L300.557 283.036
L301.182 282.743
L301.36 282.803
L301.628 282.941
L301.807 282.896
L301.896 282.958
L302.164 282.793
L302.342 282.899
L302.61 282.912
L302.789 282.858
L302.967 282.774
L303.146 282.788
L303.503 282.686
L304.039 282.626
L304.307 282.958
L305.467 282.843
L305.646 282.87
L306.36 282.784
L306.449 282.631
L306.896 282.923
L307.164 282.922
L307.342 282.803
L307.878 282.959
L308.235 282.92
L308.681 282.84
L308.949 282.979
L309.038 282.92
L309.217 282.982
L309.663 283.125
L309.842 283.039
L310.02 283.032
L310.556 282.9
L311.003 282.971
L311.181 282.973
L311.806 283.059
L312.431 282.951
L313.145 282.832
L313.324 282.797
L313.413 282.902
L313.592 282.776
L313.949 282.918
L314.663 282.888
L314.842 282.961
L315.02 283.082
L315.199 282.926
L315.377 282.989
L315.556 283.109
L315.824 282.933
L316.002 283.008
L316.27 283.081
L317.074 283.334
L317.431 283.505
L317.609 283.496
L317.699 283.59
L317.966 283.452
L318.413 283.363
L318.591 283.164
L318.77 283.173
L318.859 283.147
L319.038 283.323
L319.306 283.229
L319.752 283.246
L319.841 283.28
L320.109 283.14
L321.002 283.155
L321.895 282.959
L322.52 283.037
L323.055 283.021
L323.502 283.044
L323.68 282.996
L323.859 282.949
L323.948 283.115
L324.037 283.061
L324.216 283.065
L324.395 282.958
L324.752 282.896
L324.93 282.738
L325.109 282.641
L325.555 282.465
L325.823 282.53
L326.002 282.417
L326.716 282.625
L327.162 282.587
L327.341 282.408
L327.519 282.406
L328.055 282.516
L328.591 282.366
L328.859 282.465
L329.126 282.434
L329.484 282.623
L329.662 282.619
L329.841 282.584
L330.108 282.628
L331.269 282.971
L331.448 283.052
L331.716 282.954
L331.894 282.905
L332.073 282.781
L332.251 282.849
L332.519 282.835
L332.698 282.834
L333.59 282.494
L333.858 282.474
L334.037 282.316
L336.715 282.553
L336.804 282.498
L337.072 282.681
L337.876 282.681
L338.054 282.725
L338.322 282.714
L338.501 282.738
L339.483 282.621
L339.661 282.708
L339.929 282.618
L341.001 282.47
L341.179 282.367
L341.626 282.472
L342.429 282.561
L342.697 282.837
L343.5 282.855
L343.679 282.702
L343.947 282.614
L344.125 282.616
L344.304 282.494
L344.661 282.724
L344.84 282.762
L345.108 282.727
L345.197 282.695
L345.286 282.467
L345.375 282.53
L345.732 282.477
L346.893 282.302
L346.982 282.397
L347.072 282.311
L347.34 282.416
L347.518 282.387
L347.697 282.372
L347.875 282.518
L348.947 282.402
L349.125 282.398
L349.304 282.53
L349.482 282.431
L351.089 282.279
L351.357 282.204
L351.714 282.175
L352.518 282.24
L352.696 282.173
L353.053 282.1
L353.321 282.008
L353.589 282.03
L354.303 281.887
L354.482 281.805
L354.75 281.879
L355.196 282.139
L355.553 281.947
L355.91 282.05
L357.16 281.968
L357.339 281.943
L358.41 281.883
L358.589 281.861
L359.482 282.001
L359.749 281.961
L360.196 282.046
L360.374 282.038
L361.178 281.872
L361.356 281.952
L361.535 281.941
L361.714 281.91
L361.892 282.025
L362.16 282.009
L362.339 281.98
L363.142 281.734
L363.678 281.75
L363.856 281.788
L363.946 281.737
L364.124 281.815
L364.303 281.81
L364.481 281.85
L364.838 281.954
L365.017 281.886
L365.285 282.053
L365.91 281.923
L366.445 281.959
L366.624 282.059
L366.892 281.945
L367.249 281.915
L367.428 281.938
L367.695 281.873
L368.41 281.802
L368.677 281.876
L368.945 281.767
L369.124 281.807
L369.481 281.558
L369.66 281.536
L369.927 281.456
L370.195 281.541
L370.374 281.476
L370.82 281.55
L370.909 281.635
L371.088 281.587
L371.356 281.464
L371.534 281.45
L371.713 281.411
L371.892 281.284
L372.516 281.394
L372.606 281.447
L372.784 281.368
L373.141 281.386
L374.659 281.351
L374.748 281.301
L375.106 281.55
L375.552 281.461
L375.731 281.403
L375.82 281.503
L375.998 281.394
L376.177 281.473
L376.445 281.436
L376.623 281.48
L376.713 281.375
L376.98 281.5
L377.516 281.272
L377.784 281.387
L377.963 281.327
L379.212 281.647
L379.659 281.792
L379.748 281.806
L379.927 281.745
L380.105 281.69
L380.641 281.778
L380.909 281.757
L381.177 281.755
L381.891 281.784
L381.98 281.663
L382.159 281.753
L382.605 281.422
L382.962 281.409
L383.141 281.313
L384.659 281.624
L384.837 281.607
L388.23 281.463
L388.498 281.522
L389.123 281.309
L389.39 281.355
L390.283 281.502
L390.462 281.501
L391.444 281.124
L391.622 281.159
L391.712 281.053
L391.89 281.119
L392.069 281.129
L392.158 281.219
L392.337 281.188
L392.604 281.29
L394.926 281.496
L395.104 281.507
L395.461 281.606
L395.908 281.353
L396.354 281.466
L397.604 281.315
L397.961 281.166
L398.318 281.155
L398.943 281.457
L399.568 281.315
L399.747 281.341
L400.015 281.462
L400.193 281.404
L400.55 281.458
L400.818 281.289
L401.265 281.562
L401.89 281.625
L401.979 281.798
L402.068 281.733
L402.782 281.539
L403.05 281.503
L404.747 281.701
L405.193 281.671
L405.55 281.737
L405.818 281.734
L405.996 281.774
L406.889 281.872
L407.068 281.792
L407.514 281.728
L407.604 281.867
L407.782 281.786
L408.05 281.96
L409.389 282.15
L410.014 282.152
L410.639 282.274
L410.818 282.158
L411.085 282.221
L413.05 282.348
L413.228 282.26
L413.496 282.297
L413.853 282.208
L414.567 282.231
L414.746 282.217
L415.014 282.209
L415.192 282.107
L415.371 282.069
L415.817 281.952
L416.174 282.094
L416.799 282.133
L416.978 282.21
L417.603 281.992
L417.781 282.046
L417.871 281.915
L418.139 282.041
L418.674 282.136
L418.853 282.19
L419.121 282.115
L419.478 282.164
L419.924 282.283
L420.103 282.367
L420.46 282.371
L420.638 282.354
L421.531 282.49
L422.781 282.522
L423.049 282.667
L423.317 282.588
L423.495 282.571
L423.674 282.665
L423.942 282.771
L424.299 282.929
L424.656 282.93
L426.263 282.91
L426.442 283.096
L426.62 283.149
L426.709 283.2
L427.067 283.022
L428.852 283.283
L429.209 283.375
L429.924 283.337
L430.281 283.454
L430.816 283.388
L431.441 283.689
L431.888 283.9
L432.602 283.861
L433.584 284.023
L433.852 283.813
L434.298 283.931
L434.477 283.863
L434.655 283.988
L434.923 284.088
L435.102 284.111
L435.37 283.968
L436.53 284.055
L436.709 284.106
L436.977 284.157
L437.066 284.171
L437.244 284
L437.602 283.926
L437.78 283.792
L438.048 284.001
L438.316 283.983
L438.494 283.924
L438.852 283.895
L439.119 283.964
L439.387 284.147
L442.066 283.905
L442.423 283.776
L442.958 283.689
L443.226 283.608
L443.673 283.738
L443.851 283.781
L444.208 283.798
L444.476 283.779
L444.833 283.838
L445.101 283.754
L445.369 283.866
L446.44 283.849
L446.708 283.837
L447.065 283.866
L447.333 283.97
L448.047 284.025
L448.226 284.048
L448.494 284.044
L449.208 284.247
L449.387 284.19
L450.19 284.341
L451.619 284.117
L454.743 284.242
L454.922 284.224
L455.368 284.195
L455.458 284.285
L455.636 284.184
L456.708 284.289
L456.886 284.178
L457.065 284.149
L457.243 284.21
L457.511 284.146
L459.207 284.122
L459.564 283.954
L460.636 284.195
L460.814 284.107
L461.35 284.312
L461.618 284.282
L461.886 284.326
L462.064 284.297
L462.332 284.322
L463.314 284.571
L463.493 284.571
L464.296 284.825
L464.564 284.75
L464.921 284.848
L465.1 284.841
L465.278 284.875
L465.457 284.844
L465.814 284.849
L465.903 284.843
L466.082 284.92
L466.35 284.91
L466.528 285.055
L467.064 284.931
L468.582 284.848
L468.76 284.624
L468.939 284.703
L470.278 284.908
L471.26 284.772
L471.617 284.692
L472.064 284.822
L472.421 284.821
L473.046 284.806
L473.403 284.683
L473.939 284.822
L474.117 284.766
L474.385 284.859
L474.653 284.913
L474.921 284.955
L475.546 285.085
L475.813 285.005
L476.349 285.068
L476.617 285.101
L476.796 285.148
L477.063 285.327
L477.42 285.246
L477.778 285.235
L478.135 285.274
L478.849 285.548
L479.385 285.26
L479.652 285.331
L479.92 285.442
L480.188 285.424
L480.724 285.722
L483.938 286.159
L484.384 286.224
L484.741 286.348
L484.92 286.354
L485.456 286.447
L485.634 286.457
L485.902 286.273
L486.348 286.347
L486.706 286.389
L486.884 286.376
L487.241 286.505
L488.759 286.429
L488.938 286.521
L489.384 286.422
L489.741 286.465
L489.92 286.408
L490.991 286.656
L491.705 286.739
L491.884 286.826
L493.669 287.131
L493.848 287.191
L494.027 287.122
L494.384 287.243
L494.919 287.185
L495.098 287.212
L495.276 287.195
L495.544 287.163
L495.812 287.231
L495.901 287.299
L496.08 287.257
L496.348 287.35
L497.508 287.447
L497.955 287.479
L498.133 287.465
L498.312 287.518
L498.491 287.454
L498.848 287.527
L499.116 287.542
L499.473 287.696
L499.919 287.622
L500.544 287.647
L501.348 287.668
L501.526 287.65
L501.615 287.691
L501.794 287.585
L502.151 287.57
L502.508 287.341
L503.133 287.198
L503.58 287.446
L504.294 287.331
L505.008 287.609
L505.097 287.574
L505.276 287.654
L505.544 287.646
L506.704 287.716
L507.151 287.693
L508.133 287.566
L508.311 287.55
L509.561 287.674
L509.74 287.712
L510.722 287.803
L510.9 287.913
L511.079 287.874
L511.436 288.069
L511.793 288.028
L512.775 287.877
L513.043 287.908
L513.222 287.95
L513.4 288.106
L513.847 288.219
L514.293 288.375
L514.472 288.347
L515.186 288.498
L515.364 288.453
L515.722 288.557
L516.168 288.605
L516.436 288.654
L516.704 288.704
L517.507 289.004
L517.775 289.026
L518.311 288.984
L518.311 288.984" style="fill:none;stroke:#008000;stroke-dasharray:1.000000,1.000000;stroke-dashoffset:0.0;"/>
   </g>
   <g id="line2d_3">
    <path clip-path="url(#p7ff5b81e1d)" d="
M72 357.328
L72.0893 361.85
L72.2678 365.582
L72.625 367.768
L72.9821 368.363
L73.0714 368.21
L73.3392 369.012
L73.4285 368.954
L73.6963 369.218
L73.8749 369.143
L74.1427 369.273
L74.4106 369.19
L74.9462 369.217
L75.0355 368.905
L75.1248 368.983
L75.4819 369.073
L75.839 368.967
L76.464 369.078
L76.6426 368.984
L76.7318 368.909
L76.9104 369.046
L77.8925 369.103
L78.071 369.144
L78.5174 368.937
L78.7853 368.97
L79.0531 368.929
L79.5888 369.075
L79.7674 369.047
L81.553 369.083
L81.7315 368.934
L82.8029 368.922
L83.0707 368.857
L83.6957 368.892
L84.9456 368.979
L85.7491 369.007
L86.017 368.997
L86.3741 369.097
L86.6419 369.103
L86.8205 368.975
L87.624 368.934
L88.7846 369.051
L89.3203 368.98
L89.4989 368.911
L91.2845 369.072
L91.463 368.872
L91.9987 368.954
L93.6058 368.915
L93.7843 368.893
L94.0522 368.941
L94.4986 368.908
L94.7664 368.778
L95.2128 368.786
L96.9984 368.714
L98.8733 368.71
L99.0518 368.729
L100.48 368.728
L101.462 368.764
L102.266 368.571
L102.623 368.56
L102.98 368.445
L103.605 368.443
L103.962 368.482
L104.141 368.392
L106.194 368.25
L106.551 368.183
L106.998 368.135
L108.337 367.913
L108.516 367.726
L108.783 367.735
L108.962 367.737
L109.765 367.759
L110.926 367.748
L111.819 367.688
L111.997 367.477
L113.604 367.422
L114.14 367.374
L114.765 367.443
L118.068 367.4
L118.693 367.356
L119.051 367.392
L119.676 367.42
L120.3 367.355
L120.479 367.274
L121.55 367.256
L121.729 367.148
L125.747 367.215
L126.014 367.118
L126.372 367.139
L126.639 367.132
L126.996 367.099
L127.711 367.04
L129.228 367.039
L129.943 367.017
L130.211 366.986
L131.46 366.882
L131.996 366.79
L132.71 366.649
L132.889 366.588
L134.496 366.498
L135.389 366.451
L135.657 366.367
L137.174 366.397
L137.442 366.38
L137.889 366.366
L138.335 366.381
L138.514 366.295
L138.603 366.314
L138.781 366.219
L139.764 366.232
L146.37 365.693
L146.727 365.486
L147.888 365.471
L148.156 365.394
L148.513 365.408
L149.495 365.492
L150.477 365.479
L151.816 365.482
L152.173 365.429
L154.048 365.382
L154.227 365.23
L154.495 365.208
L154.852 365.195
L155.12 365.13
L156.102 365.106
L156.459 365.037
L158.691 364.994
L161.369 364.783
L162.084 364.687
L162.441 364.646
L164.316 364.699
L165.744 364.536
L165.923 364.47
L166.726 364.408
L167.708 364.368
L168.601 364.364
L169.047 364.319
L169.672 364.255
L170.833 364.181
L171.458 364.107
L171.904 364.124
L172.261 364.16
L172.797 364.168
L172.976 364.048
L173.779 364.064
L174.851 363.973
L177.886 364.027
L178.6 364.044
L179.315 363.909
L180.832 363.891
L182.261 363.849
L183.511 363.868
L184.225 363.793
L184.85 363.8
L185.028 363.775
L187.796 363.592
L188.689 363.63
L189.939 363.553
L190.296 363.519
L191.903 363.374
L194.939 363.178
L195.564 363.192
L195.921 363.108
L205.295 362.524
L206.277 362.438
L206.545 362.303
L207.438 362.279
L208.598 362.266
L209.58 362.232
L209.938 362.16
L211.366 362.146
L211.723 362.166
L212.08 362.054
L212.795 362.083
L213.687 362.03
L215.83 361.976
L216.276 362.017
L216.812 361.99
L217.169 361.996
L218.241 362.008
L219.58 361.983
L219.848 362.008
L220.74 361.991
L221.008 361.88
L221.365 361.777
L222.08 361.686
L222.705 361.722
L224.49 361.654
L224.847 361.644
L227.347 361.56
L229.758 361.646
L231.097 361.567
L231.365 361.582
L233.597 361.436
L234.222 361.422
L234.847 361.382
L235.204 361.315
L235.918 361.334
L236.722 361.384
L236.989 361.316
L240.025 361.145
L240.739 361.111
L245.025 360.984
L247.435 360.98
L247.703 360.953
L248.685 360.875
L250.381 360.817
L251.631 360.77
L252.703 360.672
L253.149 360.597
L253.506 360.556
L257.345 360.441
L257.702 360.407
L259.399 360.47
L260.024 360.376
L261.988 360.298
L268.416 360.306
L269.041 360.326
L269.755 360.256
L270.648 360.34
L273.684 360.315
L274.13 360.293
L275.112 360.331
L276.094 360.279
L276.898 360.238
L277.255 360.205
L281.897 360.133
L282.79 360.036
L284.933 359.97
L285.468 359.888
L286.093 359.943
L286.272 359.947
L287.968 359.793
L290.111 359.685
L291.004 359.651
L293.504 359.639
L294.486 359.602
L294.754 359.561
L295.289 359.477
L295.736 359.465
L296.718 359.447
L298.236 359.302
L299.396 359.349
L300.289 359.313
L301.628 359.385
L302.967 359.448
L303.235 359.42
L304.842 359.355
L305.199 359.245
L309.217 359.153
L309.574 359.091
L312.074 359.058
L312.877 359.078
L314.038 359.021
L317.609 358.943
L318.234 358.957
L318.948 358.93
L320.109 358.904
L320.645 358.904
L320.913 358.907
L322.877 358.789
L323.502 358.747
L325.555 358.723
L325.912 358.7
L326.537 358.723
L332.162 358.51
L332.608 358.536
L333.59 358.55
L335.376 358.587
L336.09 358.651
L336.715 358.614
L337.251 358.543
L338.322 358.534
L338.59 358.563
L339.84 358.515
L340.465 358.524
L341.268 358.549
L343.054 358.499
L343.947 358.492
L356.982 358.192
L357.428 358.137
L358.321 358.112
L362.16 357.945
L362.517 357.901
L363.946 357.967
L364.124 357.936
L366.178 357.943
L367.517 357.83
L367.963 357.812
L371.445 357.857
L371.713 357.833
L372.606 357.829
L372.874 357.794
L380.73 357.571
L381.266 357.545
L381.623 357.591
L382.069 357.585
L383.409 357.556
L385.284 357.518
L388.051 357.614
L388.676 357.644
L389.033 357.612
L390.015 357.668
L400.729 357.464
L401.532 357.448
L408.318 357.3
L408.853 357.257
L410.103 357.288
L412.246 357.305
L413.05 357.318
L414.032 357.218
L419.835 357.014
L420.371 356.909
L421.799 356.902
L422.335 356.78
L423.049 356.714
L423.585 356.683
L425.46 356.707
L426.977 356.69
L428.138 356.612
L429.566 356.623
L429.924 356.588
L430.638 356.573
L431.62 356.476
L435.816 356.331
L443.851 356.012
L444.119 355.889
L444.744 355.87
L447.69 355.84
L447.958 355.802
L448.583 355.847
L449.744 355.847
L450.279 355.852
L451.172 355.819
L451.619 355.804
L451.797 355.707
L455.1 355.683
L455.458 355.636
L458.404 355.512
L458.94 355.462
L460.279 355.406
L460.904 355.373
L461.707 355.298
L478.135 355.162
L478.581 355.091
L480.099 355.048
L485.545 354.99
L486.348 355.008
L494.741 354.836
L495.276 354.866
L497.508 354.903
L497.776 354.887
L499.383 354.794
L499.651 354.719
L508.936 354.746
L510.008 354.722
L518.311 354.446
L518.311 354.446" style="fill:none;stroke:#ff0000;stroke-dasharray:3.000000,6.000000;stroke-dashoffset:0.0;"/>
   </g>
   <g id="line2d_4">
    <path clip-path="url(#p7ff5b81e1d)" d="
M72 355.871
L72.0893 362.489
L72.1786 364.438
L72.4464 366.936
L72.5357 366.979
L72.8035 367.73
L72.9821 368.084
L73.2499 368.901
L73.607 369.538
L73.6963 369.409
L73.9642 369.581
L74.232 369.801
L74.4106 369.963
L74.4998 369.953
L74.7677 370.259
L74.9462 370.369
L75.5712 370.693
L75.6605 370.652
L75.9283 370.935
L76.0176 371.006
L76.2854 370.483
L76.464 370.595
L76.7318 370.715
L76.9104 370.472
L77.2675 370.307
L77.9818 370.69
L78.1603 370.61
L78.3389 370.6
L79.0531 370.884
L79.2317 370.771
L79.4102 370.781
L79.4995 370.835
L79.6781 370.628
L80.2138 370.763
L80.3923 370.733
L80.5709 370.744
L80.8387 370.56
L81.1958 370.752
L82.8029 370.615
L82.9814 370.442
L84.767 370.575
L85.1242 370.662
L85.392 370.654
L85.5706 370.701
L85.7491 370.66
L85.8384 370.479
L85.9277 370.527
L86.017 370.542
L86.1955 370.24
L86.3741 370.202
L87.0883 370.083
L87.5347 370.068
L89.4096 370.339
L89.7667 370.103
L90.3024 370.033
L91.463 369.922
L91.6416 369.753
L91.8202 369.784
L91.9987 369.661
L92.2666 369.558
L92.6237 369.712
L93.1594 369.788
L93.3379 369.672
L94.1414 369.585
L95.0342 369.363
L96.1949 369.531
L98.0698 369.344
L98.3376 369.087
L98.9626 369.212
L99.1411 369.17
L99.6768 369.108
L99.9446 369.115
L100.212 369.056
L100.48 369.057
L101.105 369.06
L101.284 369.085
L101.552 368.724
L103.605 368.742
L103.784 368.652
L103.962 368.699
L104.141 368.577
L104.319 368.614
L104.498 368.412
L105.48 368.485
L105.659 368.45
L106.194 368.445
L107.444 368.367
L109.23 368.375
L109.855 368.341
L112.355 368.346
L112.533 368.182
L113.069 368.163
L113.247 368.103
L114.051 368.08
L114.319 368.179
L114.497 368.021
L114.765 368.137
L115.122 368.147
L117.533 368.143
L117.89 368.025
L118.336 368.148
L119.051 368.243
L119.318 368.262
L119.497 368.039
L121.729 368.025
L121.908 367.83
L123.782 367.723
L123.961 367.673
L124.14 367.513
L124.497 367.576
L128.425 367.668
L128.871 367.587
L129.139 367.629
L133.246 367.552
L133.871 367.4
L135.478 367.383
L137.799 367.284
L138.603 367.289
L138.871 366.925
L139.406 367.048
L139.585 366.874
L139.764 366.919
L139.942 366.789
L143.245 366.665
L144.674 366.615
L145.745 366.639
L145.924 366.448
L153.78 366.521
L153.959 366.334
L154.405 366.371
L154.852 366.345
L160.655 366.239
L161.101 366.214
L161.548 366.251
L163.066 366.147
L163.333 366.004
L163.512 365.833
L164.583 365.768
L164.673 365.781
L164.851 365.672
L166.28 365.669
L166.815 365.687
L166.994 365.659
L167.172 365.481
L168.065 365.539
L168.422 365.425
L170.119 365.451
L170.297 365.298
L170.654 365.157
L171.012 364.984
L171.279 364.941
L171.458 364.894
L171.726 364.925
L171.994 364.836
L178.332 364.938
L178.868 364.92
L179.136 364.878
L179.493 364.891
L179.672 364.815
L181.636 364.749
L181.904 364.599
L185.118 364.624
L185.296 364.227
L187.439 364.377
L188.332 364.351
L189.939 364.501
L191.903 364.402
L192.082 364.136
L192.26 364.001
L192.796 363.95
L192.974 363.955
L193.332 363.993
L195.117 363.983
L195.296 363.801
L196.01 363.817
L196.188 363.61
L196.367 363.535
L197.081 363.56
L200.385 363.511
L200.563 363.426
L202.974 363.561
L203.331 363.548
L203.688 363.532
L203.956 363.469
L207.348 363.539
L207.616 363.531
L208.688 363.609
L209.759 363.632
L210.741 363.584
L210.92 363.504
L212.259 363.504
L213.509 363.354
L213.866 363.234
L213.955 363.274
L214.134 363.182
L215.294 363.131
L227.347 363.055
L227.526 362.964
L227.883 362.984
L228.061 362.658
L228.329 362.635
L228.508 362.517
L229.401 362.566
L231.811 362.47
L232.347 362.416
L233.686 362.458
L233.865 362.354
L237.704 362.301
L237.882 362.186
L238.596 362.133
L238.954 361.948
L239.221 361.895
L240.561 361.856
L247.257 361.746
L247.703 361.719
L249.935 361.584
L250.471 361.52
L253.863 361.463
L254.042 361.395
L259.934 361.288
L260.024 361.271
L260.202 361.09
L260.916 361.124
L261.541 361.158
L263.684 361.083
L263.863 360.827
L264.22 360.841
L264.845 360.848
L267.434 360.798
L267.612 360.691
L270.38 360.618
L270.827 360.568
L271.005 360.498
L271.184 360.515
L271.362 360.387
L271.809 360.272
L272.434 360.292
L274.666 360.196
L275.023 360.183
L278.862 360.083
L279.487 360.088
L281.629 360.085
L281.808 359.96
L299.843 360.001
L300.021 359.695
L300.378 359.647
L306.271 359.692
L306.539 359.689
L306.806 359.738
L308.056 359.721
L309.931 359.62
L310.199 359.446
L310.824 359.375
L311.092 359.343
L312.163 359.361
L320.198 359.373
L320.377 359.176
L320.913 359.055
L321.27 359.015
L322.341 358.981
L332.251 358.907
L332.43 358.775
L333.59 358.781
L335.287 358.688
L335.822 358.539
L336.447 358.558
L339.126 358.586
L339.304 358.38
L339.661 358.274
L339.84 358.155
L342.251 358.049
L342.34 358.043
L342.518 357.92
L345.643 357.879
L346.09 357.852
L346.357 357.787
L346.804 357.763
L353.411 357.728
L353.589 357.516
L354.571 357.529
L360.999 357.422
L361.356 357.41
L362.874 357.374
L381.98 357.268
L382.605 357.279
L385.194 357.222
L385.373 357.14
L385.641 357.081
L386.266 357.037
L389.123 356.986
L389.39 356.922
L389.569 356.908
L389.748 356.643
L391.98 356.632
L392.158 356.546
L393.229 356.612
L396.622 356.504
L397.872 356.479
L398.943 356.417
L399.122 356.364
L399.658 356.301
L399.836 356.246
L413.496 356.033
L414.032 356.069
L414.3 355.999
L418.139 356.123
L420.192 356.092
L420.906 356.124
L421.174 356.11
L421.888 356.17
L424.388 356.107
L424.567 355.97
L425.192 355.938
L425.727 355.903
L426.263 355.923
L434.566 355.846
L434.834 355.77
L435.995 355.764
L437.066 355.729
L446.172 355.655
L446.53 355.475
L448.851 355.437
L449.119 355.378
L449.476 355.387
L452.511 355.288
L452.69 355.188
L453.226 355.165
L453.404 355.019
L453.761 354.993
L454.565 354.981
L456.797 354.951
L457.065 354.707
L461.082 354.607
L461.707 354.59
L463.314 354.585
L463.493 354.128
L464.475 354.101
L464.832 354.008
L471.082 353.929
L471.349 353.89
L472.421 353.896
L480.724 353.792
L481.438 353.723
L482.599 353.735
L482.777 353.606
L483.402 353.588
L485.545 353.508
L485.813 353.455
L487.598 353.419
L489.205 353.339
L489.473 353.303
L490.366 353.315
L492.152 353.316
L492.33 352.945
L493.044 352.88
L493.223 352.786
L495.634 352.703
L497.955 352.562
L500.276 352.492
L500.544 352.451
L502.508 352.354
L502.865 352.323
L503.758 352.241
L504.115 352.206
L506.794 352.269
L506.972 352.212
L508.49 352.194
L509.026 352.173
L510.722 352.089
L511.168 352.016
L517.775 351.996
L517.954 351.894
L518.311 351.93
L518.311 351.93" style="fill:none;stroke:#00bfbf;stroke-dasharray:5.000000,1.000000,2.000000,1.000000,5.000000,1.000000;stroke-dashoffset:0.0;"/>
   </g>
   <g id="line2d_5">
    <path clip-path="url(#p7ff5b81e1d)" d="
M72 355.874
L72.0893 361.934
L72.1786 363.912
L72.4464 366.547
L72.625 367.265
L72.8928 367.986
L73.4285 369.031
L73.6963 369.119
L74.232 368.968
L75.6605 368.746
L75.839 368.617
L76.5533 367.913
L76.9997 367.535
L77.2675 367.37
L79.0531 367.276
L79.5888 366.793
L79.7674 366.674
L80.1245 366.188
L80.4816 365.943
L80.8387 365.611
L82.7136 365.494
L82.9814 365.217
L83.5171 364.57
L84.6778 363.666
L85.5706 363.605
L85.9277 363.492
L86.2848 363.461
L86.6419 363.101
L87.5347 362.03
L88.249 361.554
L88.9632 361.593
L89.856 361.473
L90.0346 361.156
L90.481 360.807
L90.6595 360.444
L90.9274 360.193
L91.1059 360.001
L91.463 359.54
L91.8202 359.44
L93.4272 359.327
L93.7843 358.962
L93.9629 358.781
L94.5878 358.088
L95.3914 357.609
L96.9091 357.571
L97.8019 356.559
L98.2483 355.816
L98.6947 355.354
L100.48 355.34
L100.748 354.881
L100.927 354.746
L101.373 353.889
L101.909 353.392
L102.087 353.193
L102.355 352.901
L103.069 352.908
L104.052 352.903
L104.319 352.565
L104.587 352.219
L105.034 351.684
L105.301 351.408
L105.837 350.892
L107.176 350.87
L107.444 350.806
L107.623 350.818
L107.891 350.47
L108.694 349.518
L109.319 348.738
L109.498 348.688
L110.569 348.62
L111.194 348.61
L112.265 347.34
L112.622 346.939
L113.247 346.5
L114.944 346.291
L115.479 345.808
L115.836 345.371
L116.015 345.131
L116.283 344.94
L116.551 344.688
L116.997 344.666
L117.533 344.694
L117.801 344.59
L118.336 344.546
L120.3 342.667
L121.908 342.567
L122.89 341.43
L123.425 340.881
L123.782 340.551
L124.764 340.434
L125.479 340.473
L127.354 338.478
L127.621 338.477
L129.228 338.328
L130.032 337.605
L130.478 337.015
L130.746 336.763
L130.925 336.594
L131.728 336.615
L132.71 336.368
L132.978 336.164
L133.425 335.893
L133.692 335.532
L134.496 334.946
L134.942 334.865
L136.282 334.674
L138.156 332.785
L138.514 332.815
L138.96 332.785
L139.764 332.747
L141.638 330.73
L143.424 330.583
L143.87 330.087
L144.049 329.951
L144.852 329.018
L145.12 328.662
L145.567 328.665
L146.995 328.589
L147.263 328.299
L147.799 327.644
L148.067 327.373
L148.424 326.822
L148.87 326.587
L150.566 326.478
L152.263 324.217
L154.138 324.079
L154.495 323.5
L154.673 323.299
L154.941 322.899
L155.388 322.392
L156.012 321.996
L156.637 321.959
L157.62 321.942
L157.798 321.77
L159.048 320.271
L159.584 319.86
L160.744 319.839
L161.191 319.872
L161.548 319.438
L161.905 319.114
L163.066 317.957
L164.673 317.993
L164.762 317.98
L165.208 317.279
L165.655 316.61
L166.369 315.642
L166.458 315.546
L166.637 315.27
L167.351 315.292
L168.422 315.135
L169.583 313.763
L169.762 313.51
L170.029 313.159
L170.297 313.075
L171.904 312.996
L172.261 312.524
L172.529 312.027
L172.886 311.483
L173.779 310.377
L175.476 310.32
L175.565 310.259
L175.922 309.669
L176.547 308.807
L176.904 308.275
L176.993 308.259
L177.261 307.935
L179.047 307.904
L180.386 305.926
L181.011 305.246
L182.618 305.273
L183.6 303.795
L184.671 302.566
L186.278 302.413
L186.636 301.766
L186.993 301.17
L187.707 300.1
L187.975 299.669
L189.85 299.512
L190.207 298.787
L191.01 297.779
L191.367 297.256
L191.635 297.003
L192.796 296.983
L193.332 296.919
L193.867 296.219
L194.671 295.164
L195.296 294.528
L195.831 294.51
L196.903 294.49
L197.528 293.365
L197.974 292.574
L198.242 292.033
L198.688 291.395
L200.295 291.456
L200.563 291.349
L201.188 290.332
L201.367 290.095
L201.813 289.34
L202.438 288.812
L204.045 288.722
L204.492 288.064
L205.474 286.277
L205.652 286.105
L205.92 285.809
L206.366 285.845
L207.616 285.805
L207.973 285.227
L208.509 284.428
L209.223 283.332
L209.491 283.093
L211.188 283.008
L211.634 282.376
L211.991 281.699
L212.259 281.371
L212.705 280.856
L213.152 280.429
L213.598 280.412
L213.955 280.462
L214.759 280.461
L215.205 279.648
L216.634 277.149
L216.991 277.142
L218.33 277.139
L218.687 276.579
L218.955 276.123
L219.491 275.384
L219.848 274.947
L220.205 274.371
L220.919 274.304
L221.901 274.313
L222.169 273.855
L222.348 273.696
L222.972 272.604
L223.151 272.25
L223.776 271.008
L224.847 271.055
L225.472 270.969
L227.436 267.582
L229.044 267.626
L229.49 266.856
L229.758 266.434
L230.74 264.298
L230.918 264.192
L231.9 264.2
L232.615 264.106
L232.793 263.675
L233.061 263.037
L234.579 260.538
L236.275 260.47
L238.061 257.278
L239.757 257.33
L241.096 254.673
L241.543 253.787
L242.168 253.731
L243.328 253.665
L243.596 253.099
L244.31 252.044
L245.292 250.516
L246.9 250.511
L247.435 249.527
L248.417 247.645
L248.685 247.017
L250.56 246.915
L251.006 246.034
L251.542 245.041
L252.524 243.691
L254.042 243.61
L254.667 242.424
L254.935 241.943
L255.203 241.49
L255.917 240.509
L256.542 240.496
L257.613 240.457
L258.417 239.127
L258.506 239.075
L258.774 238.58
L259.22 237.742
L259.488 237.338
L261.184 237.393
L261.899 236.293
L263.059 233.934
L263.506 233.937
L264.22 233.925
L264.756 233.947
L266.184 231.232
L266.541 230.526
L268.327 230.507
L268.684 229.776
L269.844 227.892
L270.112 227.473
L270.559 227.492
L271.987 227.444
L272.344 226.807
L273.505 224.743
L273.773 224.404
L274.666 224.374
L275.023 224.309
L275.469 224.33
L276.719 221.993
L276.898 221.631
L277.344 220.823
L278.326 220.88
L279.13 220.709
L279.397 220.237
L279.844 219.326
L280.201 218.536
L280.826 217.478
L281.272 217.465
L281.629 217.404
L282.612 217.365
L282.969 216.618
L283.326 216.036
L284.308 214.307
L284.486 214.214
L285.201 214.203
L286.183 214.244
L288.058 210.499
L289.308 210.481
L289.754 210.501
L290.468 209.131
L291.004 208.213
L291.54 206.994
L292.164 206.989
L292.7 206.979
L293.325 206.99
L293.95 205.94
L294.218 205.442
L294.754 204.464
L295.289 203.77
L296.539 203.66
L296.986 203.48
L297.789 201.878
L298.236 200.974
L298.503 200.519
L298.682 200.176
L300.11 200.23
L300.557 200.127
L301.182 198.693
L301.271 198.583
L301.539 198.016
L301.717 197.745
L302.253 196.691
L303.949 196.697
L304.039 196.713
L304.396 196.075
L305.378 194.492
L305.735 194.04
L305.914 193.853
L307.699 193.845
L308.056 193.292
L308.413 192.649
L309.485 191.135
L311.181 191.012
L311.538 190.492
L311.985 189.809
L312.431 188.87
L312.788 188.104
L312.967 187.775
L314.038 187.785
L314.752 187.792
L315.288 186.813
L315.556 186.319
L316.181 185.186
L316.627 184.574
L317.52 184.573
L318.413 184.356
L319.484 182.584
L319.841 181.678
L320.288 181.183
L321.984 180.97
L322.073 180.897
L322.341 180.485
L322.698 180.001
L323.68 178.351
L325.466 178.332
L325.734 177.832
L326.359 176.89
L326.627 176.491
L327.252 175.365
L328.055 175.343
L328.234 175.341
L329.037 175.33
L329.662 174.39
L329.93 174.011
L330.823 172.292
L332.698 172.132
L333.055 171.56
L334.215 169.723
L334.394 169.446
L334.93 169.429
L335.644 169.495
L335.912 169.456
L336.269 169.309
L336.804 168.281
L337.072 167.953
L338.144 166.271
L339.126 166.173
L339.751 166.148
L340.286 165.236
L341.001 163.986
L341.626 163.133
L343.411 163.011
L345.286 160.472
L346.893 160.483
L347.429 159.759
L347.875 159.213
L348.143 158.734
L348.5 158.265
L348.768 157.889
L350.554 157.812
L350.911 157.288
L352.428 155.357
L353.589 155.394
L354.214 155.296
L354.571 154.807
L354.75 154.584
L355.285 153.668
L355.375 153.615
L355.821 152.858
L357.607 152.836
L358.5 151.42
L359.482 150.096
L360.821 150.028
L361.178 150.085
L362.339 148.085
L362.874 147.592
L363.053 147.409
L363.321 147.44
L363.856 147.469
L364.303 147.388
L365.017 147.277
L366.535 145.358
L367.606 145.377
L368.052 145.353
L368.32 145.33
L368.499 145.061
L368.588 145.077
L369.035 144.492
L369.392 144
L370.106 143.048
L370.82 143.045
L371.892 142.99
L373.945 140.797
L374.659 140.814
L375.463 140.876
L376.356 139.694
L376.445 139.639
L376.713 139.306
L377.338 138.585
L379.034 138.57
L379.302 138.326
L379.391 138.287
L379.927 137.476
L380.552 136.501
L380.73 136.389
L380.998 136.318
L382.248 136.329
L382.784 136.168
L383.944 135.052
L384.212 134.541
L384.48 134.32
L386.176 134.283
L386.444 133.932
L386.891 133.268
L387.248 132.701
L387.516 132.428
L387.783 131.925
L388.14 131.707
L389.837 131.626
L390.105 131.258
L390.283 131.108
L390.551 130.841
L390.73 130.703
L391.355 129.856
L391.622 129.578
L392.426 129.604
L393.765 129.373
L394.39 128.685
L394.479 128.642
L394.836 128.077
L395.015 127.971
L395.194 127.794
L396.533 127.806
L396.89 127.792
L397.515 127.02
L397.604 126.999
L397.872 126.675
L398.765 125.694
L399.925 125.661
L400.372 125.704
L400.461 125.7
L400.908 125.206
L401.622 124.593
L401.89 124.22
L402.068 124.103
L402.336 123.759
L404.122 123.615
L404.568 123.224
L404.836 122.823
L405.014 122.694
L405.461 122.248
L405.818 121.819
L407.693 121.665
L409.478 119.857
L411.085 119.831
L411.175 119.856
L411.621 119.359
L411.8 119.246
L411.978 119.106
L412.157 118.89
L412.425 118.723
L412.96 117.994
L413.675 118.036
L414.21 118.027
L414.746 118.03
L415.639 117.149
L416.174 116.429
L416.532 116.137
L417.692 116.107
L418.228 116.088
L418.406 116.027
L419.031 115.494
L419.924 114.801
L422.067 114.672
L422.513 114.096
L423.317 113.554
L423.585 113.129
L423.763 113.058
L425.549 113.041
L425.727 112.856
L425.906 112.733
L426.084 112.621
L427.513 112.036
L428.138 112.048
L429.209 111.915
L430.102 111.191
L430.816 110.384
L432.87 110.253
L433.316 109.878
L433.405 109.865
L433.763 109.328
L434.12 108.979
L434.388 108.687
L436.441 108.434
L436.709 108.187
L437.244 107.785
L437.602 107.392
L437.959 106.885
L439.923 106.852
L441.084 106
L441.441 105.467
L441.976 105.407
L442.78 105.441
L443.137 105.436
L443.316 105.429
L443.583 105.013
L444.565 104.24
L445.369 103.82
L447.065 103.645
L447.333 103.472
L447.601 103.286
L447.869 103.128
L447.958 103.188
L448.047 103.063
L448.226 103.145
L448.494 102.831
L448.672 102.663
L450.726 102.596
L451.797 102.12
L451.976 102.127
L452.333 101.938
L452.69 101.958
L453.136 101.955
L453.761 101.942
L454.118 101.822
L454.476 101.66
L454.833 101.399
L455.1 101.429
L455.279 101.256
L455.368 101.281
L455.636 101.051
L455.725 101.138
L455.904 101.038
L456.708 101.048
L457.779 100.95
L457.957 100.739
L458.047 100.783
L458.225 100.665
L458.672 100.582
L458.94 100.421
L459.029 100.524
L459.297 100.409
L459.654 100.325
L461.172 100.333
L461.35 100.263
L462.064 99.6834
L462.689 99.5024
L462.779 99.3906
L462.957 99.4533
L463.314 99.4022
L463.671 99.3994
L465.1 99.2183
L465.278 99.1259
L465.546 99.2061
L466.082 98.8712
L466.26 98.795
L466.618 98.6436
L467.778 98.6544
L468.135 98.6341
L468.492 98.6002
L468.76 98.4627
L469.296 98.3574
L469.564 98.0894
L469.742 98.1267
L470.01 97.9072
L470.278 97.9179
L470.635 97.9438
L471.974 97.9127
L472.51 97.3655
L472.689 97.4151
L472.867 97.2427
L473.135 97.2615
L473.403 97.1655
L473.849 96.9202
L474.117 96.9584
L474.474 96.9258
L475.635 96.8431
L475.813 96.727
L475.992 96.6116
L476.438 96.3886
L477.42 96.0915
L479.474 96.0586
L479.831 95.846
L480.099 95.6972
L480.367 95.5006
L480.813 95.1531
L482.599 95.1804
L482.867 95.1699
L483.313 95.0464
L483.492 95.0789
L484.206 94.715
L484.384 94.5394
L484.92 94.563
L487.688 94.4189
L487.956 94.1354
L489.116 94.1752
L489.473 94.1667
L489.83 94.0813
L490.098 93.9429
L490.366 93.9856
L491.17 93.8234
L491.437 93.5801
L491.795 93.591
L493.402 93.5171
L493.759 93.2489
L494.294 93.183
L494.473 93.1942
L494.652 93.117
L496.169 93.0161
L496.973 92.9598
L498.58 92.3339
L498.758 92.3782
L499.473 92.3834
L500.098 92.4521
L501.972 91.9057
L502.33 91.7502
L503.49 91.7439
L504.026 91.7438
L504.204 91.6709
L504.383 91.6268
L504.562 91.5959
L504.74 91.5726
L505.454 91.5446
L505.812 91.4101
L506.347 91.4211
L507.597 91.4371
L507.865 91.233
L508.49 91.1572
L508.758 91.0215
L509.026 91.035
L509.651 90.9341
L511.793 90.897
L511.972 90.9101
L512.24 90.8644
L512.508 90.6955
L512.686 90.7464
L512.954 90.5395
L515.097 90.3777
L515.543 90.1425
L515.9 90.035
L516.168 89.9329
L517.418 89.7715
L518.311 89.8015
L518.311 89.8015" style="fill:none;stroke:#bf00bf;stroke-linecap:square;"/>
   </g>
   <g id="matplotlib.axis_1">
    <g id="xtick_1">
     <g id="line2d_6">
      <defs>
       <path d="
M0 0
L0 -4" id="mc7db9fdffb" style="stroke:#000000;stroke-width:0.5;"/>
      </defs>
      <g>
       <use style="stroke:#000000;stroke-width:0.5;" x="72.0" xlink:href="#mc7db9fdffb" y="388.8"/>
      </g>
     </g>
     <g id="line2d_7">
      <defs>
       <path d="
M0 0
L0 4" id="m5a7d422ac3" style="stroke:#000000;stroke-width:0.5;"/>
      </defs>
      <g>
       <use style="stroke:#000000;stroke-width:0.5;" x="72.0" xlink:href="#m5a7d422ac3" y="43.2"/>
      </g>
     </g>
     <g id="text_1">
      <!-- 0 -->
      <defs>
       <path d="
M56.9844 36.375
Q56.9844 16.7969 50.8594 7.64062
Q44.7344 -1.51562 31.8438 -1.51562
Q18.75 -1.51562 12.7188 7.76562
Q6.6875 17.0469 6.6875 36.2812
Q6.6875 55.6719 12.7812 64.9219
Q18.8906 74.1719 31.8438 74.1719
Q44.9219 74.1719 50.9531 64.7656
Q56.9844 55.375 56.9844 36.375
M44.1406 14.2031
Q45.8438 18.1719 46.4531 23.5156
Q47.0781 28.8594 47.0781 36.375
Q47.0781 43.7969 46.4531 49.2656
Q45.8438 54.7344 44.0938 58.5469
Q42.3906 62.3125 39.4219 64.2031
Q36.4688 66.1094 31.8438 66.1094
Q27.25 66.1094 24.2344 64.2031
Q21.2344 62.3125 19.4844 58.4531
Q17.8281 54.8281 17.2188 49.0156
Q16.6094 43.2188 16.6094 36.2812
Q16.6094 28.6562 17.1406 23.5312
Q17.6719 18.4062 19.4375 14.3594
Q21.0469 10.5469 24 8.54688
Q26.9531 6.54688 31.8438 6.54688
Q36.4219 6.54688 39.4531 8.45312
Q42.4844 10.3594 44.1406 14.2031" id="Verdana-30"/>
      </defs>
      <g transform="translate(68.9821875 401.918125)scale(0.12 -0.12)">
       <use xlink:href="#Verdana-30"/>
      </g>
     </g>
    </g>
    <g id="xtick_2">
     <g id="line2d_8">
      <g>
       <use style="stroke:#000000;stroke-width:0.5;" x="161.28" xlink:href="#mc7db9fdffb" y="388.8"/>
      </g>
     </g>
     <g id="line2d_9">
      <g>
       <use style="stroke:#000000;stroke-width:0.5;" x="161.28" xlink:href="#m5a7d422ac3" y="43.2"/>
      </g>
     </g>
     <g id="text_2">
      <!-- 1000 -->
      <defs>
       <path d="
M52.9375 0
L13.5781 0
L13.5781 7.42188
L28.7188 7.42188
L28.7188 56.1562
L13.5781 56.1562
L13.5781 62.7969
Q16.6562 62.7969 20.1719 63.2969
Q23.6875 63.8125 25.4844 64.7969
Q27.7344 66.0156 29.0312 67.8906
Q30.3281 69.7812 30.5156 72.9531
L38.0938 72.9531
L38.0938 7.42188
L52.9375 7.42188
z
" id="Verdana-31"/>
      </defs>
      <g transform="translate(147.2315625 401.918125)scale(0.12 -0.12)">
       <use xlink:href="#Verdana-31"/>
       <use x="63.57421875" xlink:href="#Verdana-30"/>
       <use x="127.1484375" xlink:href="#Verdana-30"/>
       <use x="190.72265625" xlink:href="#Verdana-30"/>
      </g>
     </g>
    </g>
    <g id="xtick_3">
     <g id="line2d_10">
      <g>
       <use style="stroke:#000000;stroke-width:0.5;" x="250.56" xlink:href="#mc7db9fdffb" y="388.8"/>
      </g>
     </g>
     <g id="line2d_11">
      <g>
       <use style="stroke:#000000;stroke-width:0.5;" x="250.56" xlink:href="#m5a7d422ac3" y="43.2"/>
      </g>
     </g>
     <g id="text_3">
      <!-- 2000 -->
      <defs>
       <path d="
M57.0781 0
L7.85938 0
L7.85938 10.2031
Q12.9844 14.5938 18.1406 18.9844
Q23.2969 23.3906 27.7344 27.7344
Q37.1094 36.8125 40.5781 42.1562
Q44.0469 47.5156 44.0469 53.7188
Q44.0469 59.375 40.3125 62.5625
Q36.5781 65.7656 29.8906 65.7656
Q25.4375 65.7656 20.2656 64.2031
Q15.0938 62.6406 10.1562 59.4219
L9.67188 59.4219
L9.67188 69.6719
Q13.1406 71.3906 18.9219 72.7969
Q24.7031 74.2188 30.125 74.2188
Q41.3125 74.2188 47.6562 68.8125
Q54 63.4219 54 54.2031
Q54 50.0469 52.9531 46.4531
Q51.9062 42.875 49.8594 39.6562
Q47.9531 36.625 45.3906 33.6875
Q42.8281 30.7656 39.1562 27.2031
Q33.9375 22.0781 28.3594 17.2656
Q22.7969 12.4531 17.9688 8.34375
L57.0781 8.34375
z
" id="Verdana-32"/>
      </defs>
      <g transform="translate(236.1684375 401.918125)scale(0.12 -0.12)">
       <use xlink:href="#Verdana-32"/>
       <use x="63.57421875" xlink:href="#Verdana-30"/>
       <use x="127.1484375" xlink:href="#Verdana-30"/>
       <use x="190.72265625" xlink:href="#Verdana-30"/>
      </g>
     </g>
    </g>
    <g id="xtick_4">
     <g id="line2d_12">
      <g>
       <use style="stroke:#000000;stroke-width:0.5;" x="339.84" xlink:href="#mc7db9fdffb" y="388.8"/>
      </g>
     </g>
     <g id="line2d_13">
      <g>
       <use style="stroke:#000000;stroke-width:0.5;" x="339.84" xlink:href="#m5a7d422ac3" y="43.2"/>
      </g>
     </g>
     <g id="text_4">
      <!-- 3000 -->
      <defs>
       <path d="
M50.6875 35.0156
Q53.0312 32.9062 54.5469 29.7344
Q56.0625 26.5625 56.0625 21.5312
Q56.0625 16.5469 54.25 12.3906
Q52.4375 8.25 49.1719 5.17188
Q45.5156 1.76562 40.5469 0.125
Q35.5938 -1.51562 29.6875 -1.51562
Q23.6406 -1.51562 17.7812 -0.0625
Q11.9219 1.375 8.15625 3.07812
L8.15625 13.2812
L8.89062 13.2812
Q13.0312 10.5469 18.6406 8.73438
Q24.2656 6.9375 29.5 6.9375
Q32.5625 6.9375 36.0312 7.95312
Q39.5 8.98438 41.6562 10.9844
Q43.8906 13.1406 44.9844 15.7188
Q46.0938 18.3125 46.0938 22.2656
Q46.0938 26.1719 44.8438 28.7344
Q43.6094 31.2969 41.4062 32.7656
Q39.2031 34.2812 36.0781 34.8438
Q32.9531 35.4062 29.3438 35.4062
L24.9531 35.4062
L24.9531 43.5
L28.375 43.5
Q35.7969 43.5 40.2031 46.5938
Q44.625 49.7031 44.625 55.6719
Q44.625 58.2969 43.5 60.2656
Q42.3906 62.25 40.375 63.5312
Q38.2812 64.7969 35.8906 65.2812
Q33.5 65.7656 30.4688 65.7656
Q25.8281 65.7656 20.5938 64.1094
Q15.375 62.4531 10.75 59.4219
L10.25 59.4219
L10.25 69.625
Q13.7188 71.3438 19.5 72.7812
Q25.2969 74.2188 30.7188 74.2188
Q36.0312 74.2188 40.0781 73.2344
Q44.1406 72.2656 47.4062 70.125
Q50.9219 67.7812 52.7344 64.4531
Q54.5469 61.1406 54.5469 56.6875
Q54.5469 50.6406 50.2656 46.125
Q46 41.6094 40.1875 40.4375
L40.1875 39.75
Q42.5312 39.3594 45.5469 38.1094
Q48.5781 36.8594 50.6875 35.0156" id="Verdana-33"/>
      </defs>
      <g transform="translate(325.46625 401.918125)scale(0.12 -0.12)">
       <use xlink:href="#Verdana-33"/>
       <use x="63.57421875" xlink:href="#Verdana-30"/>
       <use x="127.1484375" xlink:href="#Verdana-30"/>
       <use x="190.72265625" xlink:href="#Verdana-30"/>
      </g>
     </g>
    </g>
    <g id="xtick_5">
     <g id="line2d_14">
      <g>
       <use style="stroke:#000000;stroke-width:0.5;" x="429.12" xlink:href="#mc7db9fdffb" y="388.8"/>
      </g>
     </g>
     <g id="line2d_15">
      <g>
       <use style="stroke:#000000;stroke-width:0.5;" x="429.12" xlink:href="#m5a7d422ac3" y="43.2"/>
      </g>
     </g>
     <g id="text_5">
      <!-- 4000 -->
      <defs>
       <path d="
M58.7344 20.4531
L47.9531 20.4531
L47.9531 0
L38.5781 0
L38.5781 20.4531
L3.76562 20.4531
L3.76562 31.6875
L38.9688 72.7031
L47.9531 72.7031
L47.9531 28.2656
L58.7344 28.2656
z

M38.5781 28.2656
L38.5781 61.0781
L10.4062 28.2656
z
" id="Verdana-34"/>
      </defs>
      <g transform="translate(414.4828125 401.918125)scale(0.12 -0.12)">
       <use xlink:href="#Verdana-34"/>
       <use x="63.57421875" xlink:href="#Verdana-30"/>
       <use x="127.1484375" xlink:href="#Verdana-30"/>
       <use x="190.72265625" xlink:href="#Verdana-30"/>
      </g>
     </g>
    </g>
    <g id="xtick_6">
     <g id="line2d_16">
      <g>
       <use style="stroke:#000000;stroke-width:0.5;" x="518.4" xlink:href="#mc7db9fdffb" y="388.8"/>
      </g>
     </g>
     <g id="line2d_17">
      <g>
       <use style="stroke:#000000;stroke-width:0.5;" x="518.4" xlink:href="#m5a7d422ac3" y="43.2"/>
      </g>
     </g>
     <g id="text_6">
      <!-- 5000 -->
      <defs>
       <path d="
M56.5 23.0938
Q56.5 18.0156 54.6406 13.375
Q52.7812 8.73438 49.5625 5.5625
Q46.0469 2.15625 41.1875 0.3125
Q36.3281 -1.51562 29.9375 -1.51562
Q23.9688 -1.51562 18.4531 -0.265625
Q12.9375 0.984375 9.125 2.73438
L9.125 13.0312
L9.8125 13.0312
Q13.8125 10.5 19.1875 8.71875
Q24.5625 6.9375 29.7344 6.9375
Q33.2031 6.9375 36.4531 7.90625
Q39.7031 8.89062 42.2344 11.3281
Q44.3906 13.4219 45.4844 16.3438
Q46.5781 19.2812 46.5781 23.1406
Q46.5781 26.9062 45.2812 29.4844
Q44 32.0781 41.7031 33.6406
Q39.1562 35.5 35.5156 36.25
Q31.8906 37.0156 27.3906 37.0156
Q23.0938 37.0156 19.1094 36.4219
Q15.1406 35.8438 12.25 35.25
L12.25 72.7031
L56 72.7031
L56 64.1562
L21.6875 64.1562
L21.6875 44.8281
Q23.7812 45.0156 25.9688 45.1094
Q28.1719 45.2188 29.7812 45.2188
Q35.6875 45.2188 40.125 44.2188
Q44.5781 43.2188 48.2969 40.6719
Q52.2031 37.9844 54.3438 33.7344
Q56.5 29.5 56.5 23.0938" id="Verdana-35"/>
      </defs>
      <g transform="translate(504.084375 401.918125)scale(0.12 -0.12)">
       <use xlink:href="#Verdana-35"/>
       <use x="63.57421875" xlink:href="#Verdana-30"/>
       <use x="127.1484375" xlink:href="#Verdana-30"/>
       <use x="190.72265625" xlink:href="#Verdana-30"/>
      </g>
     </g>
    </g>
    <g id="text_7">
     <!-- Objective function exectuions -->
     <defs>
      <path d="
M57.0312 27.6875
Q57.0312 20.8438 55.0938 15.375
Q53.1719 9.90625 49.9062 6.20312
Q46.4375 2.34375 42.2812 0.40625
Q38.1406 -1.51562 33.1562 -1.51562
Q28.5156 -1.51562 25.0469 -0.40625
Q21.5781 0.6875 18.2188 2.54688
L17.625 0
L9.03125 0
L9.03125 75.9844
L18.2188 75.9844
L18.2188 48.8281
Q22.0781 52 26.4219 54.0312
Q30.7656 56.0625 36.1875 56.0625
Q45.8438 56.0625 51.4375 48.6406
Q57.0312 41.2188 57.0312 27.6875
M47.5625 27.4375
Q47.5625 37.2031 44.3281 42.25
Q41.1094 47.3125 33.9375 47.3125
Q29.9375 47.3125 25.8281 45.5781
Q21.7344 43.8438 18.2188 41.1094
L18.2188 9.85938
Q22.125 8.10938 24.9219 7.42188
Q27.7344 6.73438 31.2969 6.73438
Q38.9219 6.73438 43.2344 11.7344
Q47.5625 16.75 47.5625 27.4375" id="Verdana-62"/>
      <path d="
M56.2031 54.5469
L34.125 0
L24.9062 0
L2.98438 54.5469
L12.9375 54.5469
L29.8281 11.1406
L46.5781 54.5469
z
" id="Verdana-76"/>
      <path d="
M56.25 0
L44.6719 0
L29.2031 20.9531
L13.625 0
L2.9375 0
L24.2188 27.2031
L3.125 54.5469
L14.7031 54.5469
L30.0781 33.9375
L45.5156 54.5469
L56.25 54.5469
L34.8125 27.6875
z
" id="Verdana-78"/>
      <path d="
M54.6875 26.3125
L14.5 26.3125
Q14.5 21.2969 16.0156 17.5469
Q17.5312 13.8125 20.1719 11.4219
Q22.7031 9.07812 26.1875 7.90625
Q29.6875 6.73438 33.8906 6.73438
Q39.4531 6.73438 45.0938 8.95312
Q50.7344 11.1875 53.125 13.3281
L53.6094 13.3281
L53.6094 3.32812
Q48.9688 1.375 44.1406 0.046875
Q39.3125 -1.26562 33.9844 -1.26562
Q20.4062 -1.26562 12.7812 6.07812
Q5.17188 13.4219 5.17188 26.9531
Q5.17188 40.3281 12.4688 48.1875
Q19.7812 56.0625 31.6875 56.0625
Q42.7188 56.0625 48.7031 49.6094
Q54.6875 43.1719 54.6875 31.2969
z

M45.75 33.3438
Q45.7031 40.5781 42.1094 44.5312
Q38.5312 48.4844 31.2031 48.4844
Q23.8281 48.4844 19.4531 44.1406
Q15.0938 39.7969 14.5 33.3438
z
" id="Verdana-65"/>
      <path d="
M49.3594 3.42188
Q44.7812 1.21875 40.6562 0
Q36.5312 -1.21875 31.8906 -1.21875
Q25.9844 -1.21875 21.0469 0.515625
Q16.1094 2.25 12.5938 5.76562
Q9.03125 9.28125 7.07812 14.6406
Q5.125 20.0156 5.125 27.2031
Q5.125 40.5781 12.4688 48.1875
Q19.8281 55.8125 31.8906 55.8125
Q36.5781 55.8125 41.0938 54.4844
Q45.6094 53.1719 49.3594 51.2656
L49.3594 41.0625
L48.875 41.0625
Q44.6719 44.3438 40.2031 46.0938
Q35.75 47.8594 31.5 47.8594
Q23.6875 47.8594 19.1719 42.6094
Q14.6562 37.3594 14.6562 27.2031
Q14.6562 17.3281 19.0625 12.0312
Q23.4844 6.73438 31.5 6.73438
Q34.2812 6.73438 37.1562 7.46875
Q40.0469 8.20312 42.3281 9.375
Q44.3438 10.4062 46.0938 11.5469
Q47.8594 12.7031 48.875 13.5312
L49.3594 13.5312
z
" id="Verdana-63"/>
      <path d="
M26.0312 63.6719
L15.6719 63.6719
L15.6719 73.1875
L26.0312 73.1875
z

M25.4375 -1.3125
Q25.4375 -10.8906 20.5469 -15.7656
Q15.6719 -20.6562 7.46875 -20.6562
Q5.51562 -20.6562 2.3125 -20.2656
Q-0.875 -19.875 -3.03125 -19.2812
L-3.03125 -10.5469
L-2.54688 -10.5469
Q-1.17188 -11.0781 1.14062 -11.7656
Q3.46875 -12.4531 5.67188 -12.4531
Q9.1875 -12.4531 11.3281 -11.4688
Q13.4844 -10.5 14.5469 -8.54688
Q15.625 -6.59375 15.9375 -3.82812
Q16.2656 -1.07812 16.2656 2.875
L16.2656 46.8281
L4.89062 46.8281
L4.89062 54.5469
L25.4375 54.5469
z
" id="Verdana-6a"/>
      <path d="
M18.8906 63.6719
L8.54688 63.6719
L8.54688 73.1875
L18.8906 73.1875
z

M18.3125 0
L9.125 0
L9.125 54.5469
L18.3125 54.5469
z
" id="Verdana-69"/>
      <path d="
M54.6406 0
L45.4531 0
L45.4531 31.0625
Q45.4531 34.8125 45.0156 38.1094
Q44.5781 41.4062 43.4062 43.2656
Q42.1875 45.3125 39.8906 46.3125
Q37.5938 47.3125 33.9375 47.3125
Q30.1719 47.3125 26.0625 45.4531
Q21.9688 43.6094 18.2188 40.7188
L18.2188 0
L9.03125 0
L9.03125 54.5469
L18.2188 54.5469
L18.2188 48.4844
Q22.5156 52.0469 27.0938 54.0469
Q31.6875 56.0625 36.5312 56.0625
Q45.3594 56.0625 50 50.7344
Q54.6406 45.4062 54.6406 35.4062
z
" id="Verdana-6e"/>
      <path d="
M48 15.7188
Q48 8.25 41.8125 3.46875
Q35.6406 -1.3125 24.9531 -1.3125
Q18.8906 -1.3125 13.8438 0.125
Q8.79688 1.5625 5.375 3.26562
L5.375 13.5781
L5.85938 13.5781
Q10.2031 10.2969 15.5156 8.375
Q20.8438 6.45312 25.7344 6.45312
Q31.7812 6.45312 35.2031 8.40625
Q38.625 10.3594 38.625 14.5469
Q38.625 17.7812 36.7656 19.4375
Q34.9062 21.0938 29.6406 22.2656
Q27.6875 22.7031 24.5312 23.2812
Q21.3906 23.875 18.7969 24.5625
Q11.625 26.4688 8.60938 30.1562
Q5.60938 33.8438 5.60938 39.2031
Q5.60938 42.5781 7 45.5469
Q8.40625 48.5312 11.2344 50.875
Q13.9688 53.1719 18.1875 54.5156
Q22.4062 55.8594 27.6406 55.8594
Q32.5156 55.8594 37.5156 54.6562
Q42.5312 53.4688 45.8438 51.7656
L45.8438 41.9375
L45.3594 41.9375
Q41.8438 44.5312 36.8125 46.3125
Q31.7812 48.0938 26.9531 48.0938
Q21.9219 48.0938 18.4531 46.1562
Q14.9844 44.2344 14.9844 40.4375
Q14.9844 37.0625 17.0938 35.3594
Q19.1406 33.6406 23.7344 32.5625
Q26.2656 31.9844 29.4062 31.3906
Q32.5625 30.8125 34.6719 30.3281
Q41.0625 28.8594 44.5312 25.2969
Q48 21.6875 48 15.7188" id="Verdana-73"/>
      <path d="
M38.375 67.0938
L37.8906 67.0938
Q36.375 67.5312 33.9375 67.9844
Q31.5 68.4531 29.6406 68.4531
Q23.7344 68.4531 21.0625 65.8438
Q18.4062 63.2344 18.4062 56.3906
L18.4062 54.5469
L34.9688 54.5469
L34.9688 46.8281
L18.7031 46.8281
L18.7031 0
L9.51562 0
L9.51562 46.8281
L3.32812 46.8281
L3.32812 54.5469
L9.51562 54.5469
L9.51562 56.3438
Q9.51562 66.0625 14.3438 71.2656
Q19.1875 76.4688 28.3281 76.4688
Q31.3906 76.4688 33.8594 76.1719
Q36.3281 75.875 38.375 75.4844
z
" id="Verdana-66"/>
      <path id="Verdana-20"/>
      <path d="
M63.9688 64.3594
Q68.4062 59.4688 70.7656 52.3906
Q73.1406 45.3125 73.1406 36.3281
Q73.1406 27.3438 70.7188 20.2344
Q68.3125 13.1406 63.9688 8.40625
Q59.4688 3.46875 53.3438 0.96875
Q47.2188 -1.51562 39.3594 -1.51562
Q31.6875 -1.51562 25.4062 1.01562
Q19.1406 3.5625 14.75 8.40625
Q10.3594 13.2344 7.98438 20.2656
Q5.60938 27.2969 5.60938 36.3281
Q5.60938 45.2188 7.95312 52.2656
Q10.2969 59.3281 14.7969 64.3594
Q19.0938 69.1406 25.4688 71.6719
Q31.8438 74.2188 39.3594 74.2188
Q47.1719 74.2188 53.3906 71.6562
Q59.625 69.0938 63.9688 64.3594
M63.0938 36.3281
Q63.0938 50.4844 56.7344 58.1719
Q50.3906 65.875 39.4062 65.875
Q28.3281 65.875 22 58.1719
Q15.6719 50.4844 15.6719 36.3281
Q15.6719 22.0156 22.1094 14.4219
Q28.5625 6.84375 39.4062 6.84375
Q50.25 6.84375 56.6719 14.4219
Q63.0938 22.0156 63.0938 36.3281" id="Verdana-4f"/>
      <path d="
M55.5156 27.25
Q55.5156 13.9219 48.6719 6.20312
Q41.8438 -1.51562 30.375 -1.51562
Q18.7969 -1.51562 11.9844 6.20312
Q5.17188 13.9219 5.17188 27.25
Q5.17188 40.5781 11.9844 48.3125
Q18.7969 56.0625 30.375 56.0625
Q41.8438 56.0625 48.6719 48.3125
Q55.5156 40.5781 55.5156 27.25
M46.0469 27.25
Q46.0469 37.8438 41.8906 42.9844
Q37.75 48.1406 30.375 48.1406
Q22.9062 48.1406 18.7812 42.9844
Q14.6562 37.8438 14.6562 27.25
Q14.6562 17 18.7969 11.6875
Q22.9531 6.39062 30.375 6.39062
Q37.7031 6.39062 41.875 11.6406
Q46.0469 16.8906 46.0469 27.25" id="Verdana-6f"/>
      <path d="
M37.3594 0.484375
Q34.7656 -0.203125 31.7031 -0.640625
Q28.6562 -1.07812 26.2656 -1.07812
Q17.9219 -1.07812 13.5781 3.40625
Q9.23438 7.90625 9.23438 17.8281
L9.23438 46.8281
L3.03125 46.8281
L3.03125 54.5469
L9.23438 54.5469
L9.23438 70.2188
L18.4062 70.2188
L18.4062 54.5469
L37.3594 54.5469
L37.3594 46.8281
L18.4062 46.8281
L18.4062 21.9688
Q18.4062 17.6719 18.5938 15.25
Q18.7969 12.8438 19.9688 10.75
Q21.0469 8.79688 22.9219 7.89062
Q24.8125 6.98438 28.6562 6.98438
Q30.9062 6.98438 33.3438 7.64062
Q35.7969 8.29688 36.8594 8.73438
L37.3594 8.73438
z
" id="Verdana-74"/>
      <path d="
M54.25 0
L45.0625 0
L45.0625 6.0625
Q40.4375 2.39062 36.1875 0.4375
Q31.9375 -1.51562 26.8125 -1.51562
Q18.2188 -1.51562 13.4219 3.73438
Q8.64062 8.98438 8.64062 19.1406
L8.64062 54.5469
L17.8281 54.5469
L17.8281 23.4844
Q17.8281 19.3438 18.2188 16.375
Q18.6094 13.4219 19.875 11.3281
Q21.1875 9.1875 23.2812 8.20312
Q25.3906 7.23438 29.3906 7.23438
Q32.9531 7.23438 37.1719 9.07812
Q41.4062 10.9375 45.0625 13.8125
L45.0625 54.5469
L54.25 54.5469
z
" id="Verdana-75"/>
     </defs>
     <g transform="translate(206.5078125 418.509375)scale(0.12 -0.12)">
      <use xlink:href="#Verdana-4f"/>
      <use x="78.7109375" xlink:href="#Verdana-62"/>
      <use x="141.015625" xlink:href="#Verdana-6a"/>
      <use x="175.439453125" xlink:href="#Verdana-65"/>
      <use x="235.009765625" xlink:href="#Verdana-63"/>
      <use x="287.109375" xlink:href="#Verdana-74"/>
      <use x="326.513671875" xlink:href="#Verdana-69"/>
      <use x="353.955078125" xlink:href="#Verdana-76"/>
      <use x="412.259765625" xlink:href="#Verdana-65"/>
      <use x="471.830078125" xlink:href="#Verdana-20"/>
      <use x="506.986328125" xlink:href="#Verdana-66"/>
      <use x="542.142578125" xlink:href="#Verdana-75"/>
      <use x="605.423828125" xlink:href="#Verdana-6e"/>
      <use x="668.705078125" xlink:href="#Verdana-63"/>
      <use x="720.8046875" xlink:href="#Verdana-74"/>
      <use x="760.208984375" xlink:href="#Verdana-69"/>
      <use x="787.650390625" xlink:href="#Verdana-6f"/>
      <use x="848.34375" xlink:href="#Verdana-6e"/>
      <use x="911.625" xlink:href="#Verdana-20"/>
      <use x="946.78125" xlink:href="#Verdana-65"/>
      <use x="1006.3515625" xlink:href="#Verdana-78"/>
      <use x="1064.40625" xlink:href="#Verdana-65"/>
      <use x="1123.9765625" xlink:href="#Verdana-63"/>
      <use x="1176.076171875" xlink:href="#Verdana-74"/>
      <use x="1215.48046875" xlink:href="#Verdana-75"/>
      <use x="1278.76171875" xlink:href="#Verdana-69"/>
      <use x="1306.203125" xlink:href="#Verdana-6f"/>
      <use x="1366.896484375" xlink:href="#Verdana-6e"/>
      <use x="1430.177734375" xlink:href="#Verdana-73"/>
     </g>
    </g>
   </g>
   <g id="matplotlib.axis_2">
    <g id="ytick_1">
     <g id="line2d_18">
      <defs>
       <path d="
M0 0
L4 0" id="md7965d1ba0" style="stroke:#000000;stroke-width:0.5;"/>
      </defs>
      <g>
       <use style="stroke:#000000;stroke-width:0.5;" x="72.0" xlink:href="#md7965d1ba0" y="388.8"/>
      </g>
     </g>
     <g id="line2d_19">
      <defs>
       <path d="
M0 0
L-4 0" id="md9a1c1a7cd" style="stroke:#000000;stroke-width:0.5;"/>
      </defs>
      <g>
       <use style="stroke:#000000;stroke-width:0.5;" x="518.4" xlink:href="#md9a1c1a7cd" y="388.8"/>
      </g>
     </g>
     <g id="text_8">
      <!-- 0 -->
      <g transform="translate(61.964375 392.1515625)scale(0.12 -0.12)">
       <use xlink:href="#Verdana-30"/>
      </g>
     </g>
    </g>
    <g id="ytick_2">
     <g id="line2d_20">
      <g>
       <use style="stroke:#000000;stroke-width:0.5;" x="72.0" xlink:href="#md7965d1ba0" y="331.2"/>
      </g>
     </g>
     <g id="line2d_21">
      <g>
       <use style="stroke:#000000;stroke-width:0.5;" x="518.4" xlink:href="#md9a1c1a7cd" y="331.2"/>
      </g>
     </g>
     <g id="text_9">
      <!-- 1 -->
      <g transform="translate(63.276875 334.5515625)scale(0.12 -0.12)">
       <use xlink:href="#Verdana-31"/>
      </g>
     </g>
    </g>
    <g id="ytick_3">
     <g id="line2d_22">
      <g>
       <use style="stroke:#000000;stroke-width:0.5;" x="72.0" xlink:href="#md7965d1ba0" y="273.6"/>
      </g>
     </g>
     <g id="line2d_23">
      <g>
       <use style="stroke:#000000;stroke-width:0.5;" x="518.4" xlink:href="#md9a1c1a7cd" y="273.6"/>
      </g>
     </g>
     <g id="text_10">
      <!-- 2 -->
      <g transform="translate(62.09375 276.9515625)scale(0.12 -0.12)">
       <use xlink:href="#Verdana-32"/>
      </g>
     </g>
    </g>
    <g id="ytick_4">
     <g id="line2d_24">
      <g>
       <use style="stroke:#000000;stroke-width:0.5;" x="72.0" xlink:href="#md7965d1ba0" y="216.0"/>
      </g>
     </g>
     <g id="line2d_25">
      <g>
       <use style="stroke:#000000;stroke-width:0.5;" x="518.4" xlink:href="#md9a1c1a7cd" y="216.0"/>
      </g>
     </g>
     <g id="text_11">
      <!-- 3 -->
      <g transform="translate(62.25125 219.3515625)scale(0.12 -0.12)">
       <use xlink:href="#Verdana-33"/>
      </g>
     </g>
    </g>
    <g id="ytick_5">
     <g id="line2d_26">
      <g>
       <use style="stroke:#000000;stroke-width:0.5;" x="72.0" xlink:href="#md7965d1ba0" y="158.4"/>
      </g>
     </g>
     <g id="line2d_27">
      <g>
       <use style="stroke:#000000;stroke-width:0.5;" x="518.4" xlink:href="#md9a1c1a7cd" y="158.4"/>
      </g>
     </g>
     <g id="text_12">
      <!-- 4 -->
      <g transform="translate(61.40375 161.7515625)scale(0.12 -0.12)">
       <use xlink:href="#Verdana-34"/>
      </g>
     </g>
    </g>
    <g id="ytick_6">
     <g id="line2d_28">
      <g>
       <use style="stroke:#000000;stroke-width:0.5;" x="72.0" xlink:href="#md7965d1ba0" y="100.8"/>
      </g>
     </g>
     <g id="line2d_29">
      <g>
       <use style="stroke:#000000;stroke-width:0.5;" x="518.4" xlink:href="#md9a1c1a7cd" y="100.8"/>
      </g>
     </g>
     <g id="text_13">
      <!-- 5 -->
      <g transform="translate(62.315 104.1515625)scale(0.12 -0.12)">
       <use xlink:href="#Verdana-35"/>
      </g>
     </g>
    </g>
    <g id="ytick_7">
     <g id="line2d_30">
      <g>
       <use style="stroke:#000000;stroke-width:0.5;" x="72.0" xlink:href="#md7965d1ba0" y="43.2"/>
      </g>
     </g>
     <g id="line2d_31">
      <g>
       <use style="stroke:#000000;stroke-width:0.5;" x="518.4" xlink:href="#md9a1c1a7cd" y="43.2"/>
      </g>
     </g>
     <g id="text_14">
      <!-- 6 -->
      <defs>
       <path d="
M58.1562 23.5781
Q58.1562 12.5 50.8594 5.48438
Q43.5625 -1.51562 32.9531 -1.51562
Q27.5938 -1.51562 23.1875 0.140625
Q18.7969 1.8125 15.4375 5.07812
Q11.2344 9.125 8.95312 15.8125
Q6.6875 22.5156 6.6875 31.9375
Q6.6875 41.6094 8.76562 49.0781
Q10.8438 56.5469 15.375 62.3594
Q19.6719 67.875 26.4531 70.9688
Q33.25 74.0781 42.2812 74.0781
Q45.1719 74.0781 47.125 73.8281
Q49.0781 73.5781 51.0781 72.9531
L51.0781 63.625
L50.5938 63.625
Q49.2188 64.3594 46.4531 65.0156
Q43.7031 65.6719 40.8281 65.6719
Q30.3281 65.6719 24.0781 59.1094
Q17.8281 52.5469 16.7969 41.3594
Q20.9062 43.8438 24.875 45.1406
Q28.8594 46.4375 34.0781 46.4375
Q38.7188 46.4375 42.25 45.5781
Q45.7969 44.7344 49.5156 42.1406
Q53.8125 39.1562 55.9844 34.6094
Q58.1562 30.0781 58.1562 23.5781
M48.25 23.1875
Q48.25 27.7344 46.9062 30.7031
Q45.5625 33.6875 42.4844 35.8906
Q40.2344 37.4531 37.5 37.9375
Q34.7656 38.4219 31.7812 38.4219
Q27.6406 38.4219 24.0781 37.4375
Q20.5156 36.4688 16.75 34.4219
Q16.6562 33.3438 16.5938 32.3438
Q16.5469 31.3438 16.5469 29.8281
Q16.5469 22.125 18.1406 17.6562
Q19.7344 13.1875 22.5156 10.5938
Q24.75 8.45312 27.3594 7.45312
Q29.9844 6.45312 33.0625 6.45312
Q40.1406 6.45312 44.1875 10.7656
Q48.25 15.0938 48.25 23.1875" id="Verdana-36"/>
      </defs>
      <g transform="translate(61.82375 46.5515625)scale(0.12 -0.12)">
       <use xlink:href="#Verdana-36"/>
      </g>
     </g>
    </g>
    <g id="text_15">
     <!-- Standard Deviation -->
     <defs>
      <path d="
M51.4219 0
L42.2812 0
L42.2812 5.8125
Q41.0625 4.98438 38.9844 3.48438
Q36.9219 2 34.9688 1.125
Q32.6719 0 29.6875 -0.75
Q26.7031 -1.51562 22.7031 -1.51562
Q15.3281 -1.51562 10.2031 3.35938
Q5.07812 8.25 5.07812 15.8281
Q5.07812 22.0156 7.73438 25.8438
Q10.4062 29.6875 15.3281 31.8906
Q20.3125 34.0781 27.2969 34.8594
Q34.2812 35.6406 42.2812 36.0312
L42.2812 37.4531
Q42.2812 40.5781 41.1875 42.625
Q40.0938 44.6719 38.0312 45.8438
Q36.0781 46.9688 33.3438 47.3594
Q30.6094 47.75 27.6406 47.75
Q24.0312 47.75 19.5781 46.7969
Q15.1406 45.8438 10.4062 44.0469
L9.90625 44.0469
L9.90625 53.375
Q12.5938 54.1094 17.6719 54.9844
Q22.75 55.8594 27.6875 55.8594
Q33.4531 55.8594 37.7188 54.9062
Q42 53.9531 45.125 51.6562
Q48.1875 49.4219 49.7969 45.8438
Q51.4219 42.2812 51.4219 37.0156
z

M42.2812 13.4219
L42.2812 28.6094
Q38.0938 28.375 32.3906 27.875
Q26.7031 27.3906 23.3906 26.4688
Q19.4375 25.3438 16.9844 22.9688
Q14.5469 20.6094 14.5469 16.4531
Q14.5469 11.7656 17.375 9.39062
Q20.2188 7.03125 26.0312 7.03125
Q30.8594 7.03125 34.8594 8.90625
Q38.875 10.7969 42.2812 13.4219" id="Verdana-61"/>
      <path d="
M71.1875 36.2812
Q71.1875 26.375 66.8594 18.3125
Q62.5469 10.25 55.375 5.8125
Q50.3906 2.73438 44.2656 1.35938
Q38.1406 0 28.125 0
L9.76562 0
L9.76562 72.7031
L27.9375 72.7031
Q38.5781 72.7031 44.8438 71.1562
Q51.125 69.625 55.4688 66.9375
Q62.8906 62.3125 67.0312 54.5938
Q71.1875 46.875 71.1875 36.2812
M61.0781 36.4219
Q61.0781 44.9688 58.0938 50.8281
Q55.125 56.6875 49.2188 60.0625
Q44.9219 62.5 40.0781 63.4531
Q35.25 64.4062 28.5156 64.4062
L19.4375 64.4062
L19.4375 8.29688
L28.5156 8.29688
Q35.5 8.29688 40.7031 9.32812
Q45.9062 10.3594 50.25 13.1406
Q55.6719 16.6094 58.375 22.2656
Q61.0781 27.9375 61.0781 36.4219" id="Verdana-44"/>
      <path d="
M43.0625 44.5312
L42.5781 44.5312
Q40.5312 45.0156 38.5938 45.2344
Q36.6719 45.4531 34.0312 45.4531
Q29.7812 45.4531 25.8281 43.5781
Q21.875 41.7031 18.2188 38.7188
L18.2188 0
L9.03125 0
L9.03125 54.5469
L18.2188 54.5469
L18.2188 46.4844
Q23.6875 50.875 27.8594 52.7031
Q32.0312 54.5469 36.375 54.5469
Q38.7656 54.5469 39.8438 54.4219
Q40.9219 54.2969 43.0625 53.9531
z
" id="Verdana-72"/>
      <path d="
M62.5938 20.75
Q62.5938 16.5 60.6094 12.3438
Q58.6406 8.20312 55.0781 5.32812
Q51.1719 2.20312 45.9688 0.4375
Q40.7656 -1.3125 33.4531 -1.3125
Q25.5938 -1.3125 19.3125 0.140625
Q13.0312 1.60938 6.54688 4.5
L6.54688 16.6094
L7.23438 16.6094
Q12.75 12.0156 19.9688 9.51562
Q27.2031 7.03125 33.5469 7.03125
Q42.5312 7.03125 47.5312 10.3906
Q52.5469 13.7656 52.5469 19.3906
Q52.5469 24.2188 50.1719 26.5156
Q47.7969 28.8125 42.9688 30.0781
Q39.3125 31.0625 35.0312 31.6875
Q30.7656 32.3281 25.9844 33.2969
Q16.3125 35.3594 11.6406 40.3125
Q6.98438 45.2656 6.98438 53.2188
Q6.98438 62.3594 14.6875 68.1875
Q22.4062 74.0312 34.2812 74.0312
Q41.9375 74.0312 48.3281 72.5625
Q54.7344 71.0938 59.6719 68.9531
L59.6719 57.5156
L58.9844 57.5156
Q54.8281 61.0312 48.0625 63.3438
Q41.3125 65.6719 34.2344 65.6719
Q26.4688 65.6719 21.75 62.4531
Q17.0469 59.2344 17.0469 54.1562
Q17.0469 49.6094 19.3906 47.0156
Q21.7344 44.4375 27.6406 43.0625
Q30.7656 42.3906 36.5156 41.4062
Q42.2812 40.4375 46.2969 39.4062
Q54.3906 37.25 58.4844 32.9062
Q62.5938 28.5625 62.5938 20.75" id="Verdana-53"/>
      <path d="
M53.2656 0
L44.0938 0
L44.0938 5.71875
Q40.1406 2.29688 35.8438 0.390625
Q31.5469 -1.51562 26.5156 -1.51562
Q16.75 -1.51562 11.0156 6
Q5.28125 13.5312 5.28125 26.8594
Q5.28125 33.7969 7.25 39.2031
Q9.23438 44.625 12.5938 48.4375
Q15.9219 52.1562 20.3281 54.1094
Q24.75 56.0625 29.5 56.0625
Q33.7969 56.0625 37.1094 55.1562
Q40.4375 54.25 44.0938 52.3438
L44.0938 75.9844
L53.2656 75.9844
z

M44.0938 13.4219
L44.0938 44.7344
Q40.375 46.3906 37.4375 47.0156
Q34.5156 47.6562 31.0625 47.6562
Q23.3438 47.6562 19.0469 42.2812
Q14.75 36.9219 14.75 27.0469
Q14.75 17.3281 18.0625 12.2812
Q21.3906 7.23438 28.7188 7.23438
Q32.625 7.23438 36.625 8.95312
Q40.625 10.6875 44.0938 13.4219" id="Verdana-64"/>
     </defs>
     <g transform="translate(53.98875 273.5465625)rotate(-90.0)scale(0.12 -0.12)">
      <use xlink:href="#Verdana-53"/>
      <use x="68.359375" xlink:href="#Verdana-74"/>
      <use x="107.763671875" xlink:href="#Verdana-61"/>
      <use x="167.822265625" xlink:href="#Verdana-6e"/>
      <use x="231.103515625" xlink:href="#Verdana-64"/>
      <use x="293.408203125" xlink:href="#Verdana-61"/>
      <use x="353.466796875" xlink:href="#Verdana-72"/>
      <use x="396.142578125" xlink:href="#Verdana-64"/>
      <use x="458.447265625" xlink:href="#Verdana-20"/>
      <use x="493.603515625" xlink:href="#Verdana-44"/>
      <use x="570.654296875" xlink:href="#Verdana-65"/>
      <use x="630.224609375" xlink:href="#Verdana-76"/>
      <use x="689.404296875" xlink:href="#Verdana-69"/>
      <use x="716.845703125" xlink:href="#Verdana-61"/>
      <use x="776.904296875" xlink:href="#Verdana-74"/>
      <use x="816.30859375" xlink:href="#Verdana-69"/>
      <use x="843.75" xlink:href="#Verdana-6f"/>
      <use x="904.443359375" xlink:href="#Verdana-6e"/>
     </g>
    </g>
   </g>
   <g id="patch_3">
    <path d="
M72 43.2
L518.4 43.2" style="fill:none;stroke:#000000;"/>
   </g>
   <g id="patch_4">
    <path d="
M72 388.8
L72 43.2" style="fill:none;stroke:#000000;"/>
   </g>
   <g id="patch_5">
    <path d="
M518.4 388.8
L518.4 43.2" style="fill:none;stroke:#000000;"/>
   </g>
   <g id="patch_6">
    <path d="
M72 388.8
L518.4 388.8" style="fill:none;stroke:#000000;"/>
   </g>
   <g id="text_16">
    <!-- SineEnvelope Standard Deviation -->
    <defs>
     <path d="
M18.3125 0
L9.125 0
L9.125 75.9844
L18.3125 75.9844
z
" id="Verdana-6c"/>
     <path d="
M57.6719 0
L9.76562 0
L9.76562 72.7031
L57.6719 72.7031
L57.6719 64.1094
L19.4375 64.1094
L19.4375 44.1875
L57.6719 44.1875
L57.6719 35.5938
L19.4375 35.5938
L19.4375 8.59375
L57.6719 8.59375
z
" id="Verdana-45"/>
     <path d="
M57.0312 27.9375
Q57.0312 21.2969 55.125 15.7969
Q53.2188 10.2969 49.75 6.5
Q46.5312 2.875 42.1562 0.890625
Q37.7969 -1.07812 32.9062 -1.07812
Q28.6562 -1.07812 25.2188 -0.140625
Q21.7812 0.78125 18.2188 2.73438
L18.2188 -20.125
L9.03125 -20.125
L9.03125 54.5469
L18.2188 54.5469
L18.2188 48.8281
Q21.875 51.9062 26.4375 53.9844
Q31 56.0625 36.1875 56.0625
Q46.0469 56.0625 51.5312 48.6094
Q57.0312 41.1562 57.0312 27.9375
M47.5625 27.6875
Q47.5625 37.5469 44.1875 42.4219
Q40.8281 47.3125 33.8438 47.3125
Q29.8906 47.3125 25.875 45.5938
Q21.875 43.8906 18.2188 41.1094
L18.2188 10.2031
Q22.125 8.45312 24.9219 7.8125
Q27.7344 7.17188 31.2969 7.17188
Q38.9688 7.17188 43.2656 12.3438
Q47.5625 17.5312 47.5625 27.6875" id="Verdana-70"/>
    </defs>
    <g transform="translate(175.22325 38.2)scale(0.144 -0.144)">
     <use xlink:href="#Verdana-53"/>
     <use x="68.359375" xlink:href="#Verdana-69"/>
     <use x="95.80078125" xlink:href="#Verdana-6e"/>
     <use x="159.08203125" xlink:href="#Verdana-65"/>
     <use x="218.65234375" xlink:href="#Verdana-45"/>
     <use x="281.884765625" xlink:href="#Verdana-6e"/>
     <use x="344.166015625" xlink:href="#Verdana-76"/>
     <use x="402.470703125" xlink:href="#Verdana-65"/>
     <use x="462.041015625" xlink:href="#Verdana-6c"/>
     <use x="489.482421875" xlink:href="#Verdana-6f"/>
     <use x="550.17578125" xlink:href="#Verdana-70"/>
     <use x="612.48046875" xlink:href="#Verdana-65"/>
     <use x="672.05078125" xlink:href="#Verdana-20"/>
     <use x="707.20703125" xlink:href="#Verdana-53"/>
     <use x="775.56640625" xlink:href="#Verdana-74"/>
     <use x="814.970703125" xlink:href="#Verdana-61"/>
     <use x="875.029296875" xlink:href="#Verdana-6e"/>
     <use x="938.310546875" xlink:href="#Verdana-64"/>
     <use x="1000.615234375" xlink:href="#Verdana-61"/>
     <use x="1060.673828125" xlink:href="#Verdana-72"/>
     <use x="1103.349609375" xlink:href="#Verdana-64"/>
     <use x="1165.654296875" xlink:href="#Verdana-20"/>
     <use x="1200.810546875" xlink:href="#Verdana-44"/>
     <use x="1277.861328125" xlink:href="#Verdana-65"/>
     <use x="1337.431640625" xlink:href="#Verdana-76"/>
     <use x="1396.611328125" xlink:href="#Verdana-69"/>
     <use x="1424.052734375" xlink:href="#Verdana-61"/>
     <use x="1484.111328125" xlink:href="#Verdana-74"/>
     <use x="1523.515625" xlink:href="#Verdana-69"/>
     <use x="1550.95703125" xlink:href="#Verdana-6f"/>
     <use x="1611.650390625" xlink:href="#Verdana-6e"/>
    </g>
   </g>
   <g id="legend_1">
    <g id="patch_7">
     <path d="
M79.2 159.919
L183.22 159.919
L183.22 50.4
L79.2 50.4
L79.2 159.919
z
" style="fill:#ffffff;stroke:#000000;"/>
    </g>
    <g id="line2d_32">
     <path d="
M89.28 62.0617
L109.44 62.0617" style="fill:none;stroke:#0000ff;stroke-dasharray:6.000000,2.000000;stroke-dashoffset:0.0;"/>
    </g>
    <g id="line2d_33"/>
    <g id="text_17">
     <!-- AMPGO -->
     <defs>
      <path d="
M74.5156 0
L64.8438 0
L64.8438 62.6406
L44.625 20.0156
L38.875 20.0156
L18.7969 62.6406
L18.7969 0
L9.76562 0
L9.76562 72.7031
L22.9531 72.7031
L42.3281 32.2344
L61.0781 72.7031
L74.5156 72.7031
z
" id="Verdana-4d"/>
      <path d="
M57.3281 50.7344
Q57.3281 45.9062 55.6406 41.7656
Q53.9531 37.6406 50.9219 34.625
Q47.1719 30.8594 42.0469 28.9688
Q36.9219 27.0938 29.1094 27.0938
L19.4375 27.0938
L19.4375 0
L9.76562 0
L9.76562 72.7031
L29.5 72.7031
Q36.0312 72.7031 40.5781 71.6094
Q45.125 70.5156 48.6406 68.1719
Q52.7812 65.375 55.0469 61.2188
Q57.3281 57.0781 57.3281 50.7344
M47.2656 50.4844
Q47.2656 54.25 45.9375 57.0312
Q44.625 59.8125 41.9375 61.5781
Q39.5938 63.0938 36.5938 63.75
Q33.5938 64.4062 29 64.4062
L19.4375 64.4062
L19.4375 35.3594
L27.5938 35.3594
Q33.4531 35.3594 37.1094 36.4062
Q40.7656 37.4531 43.0625 39.75
Q45.3594 42.0938 46.3125 44.6719
Q47.2656 47.2656 47.2656 50.4844" id="Verdana-50"/>
      <path d="
M70.4062 5.375
Q64.4531 2.64062 57.3906 0.609375
Q50.3438 -1.42188 43.75 -1.42188
Q35.25 -1.42188 28.1719 0.921875
Q21.0938 3.26562 16.1094 7.95312
Q11.0781 12.7031 8.34375 19.7969
Q5.60938 26.9062 5.60938 36.4219
Q5.60938 53.8594 15.7969 63.9375
Q25.9844 74.0312 43.75 74.0312
Q49.9531 74.0312 56.4219 72.5312
Q62.8906 71.0469 70.3594 67.4844
L70.3594 56
L69.4844 56
Q67.9688 57.1719 65.0781 59.0781
Q62.2031 60.9844 59.4219 62.25
Q56.0625 63.7656 51.7812 64.7656
Q47.5156 65.7656 42.0938 65.7656
Q29.8906 65.7656 22.7812 57.9219
Q15.6719 50.0938 15.6719 36.7188
Q15.6719 22.6094 23.0938 14.7656
Q30.5156 6.9375 43.3125 6.9375
Q48 6.9375 52.6562 7.85938
Q57.3281 8.79688 60.8438 10.25
L60.8438 28.0781
L41.3594 28.0781
L41.3594 36.5781
L70.4062 36.5781
z
" id="Verdana-47"/>
      <path d="
M67.0938 0
L56.7812 0
L49.6562 20.2656
L18.2188 20.2656
L11.0781 0
L1.26562 0
L27.7344 72.7031
L40.625 72.7031
z

M46.6875 28.5625
L33.9375 64.2656
L21.1406 28.5625
z
" id="Verdana-41"/>
     </defs>
     <g transform="translate(125.28 67.10175)scale(0.144 -0.144)">
      <use xlink:href="#Verdana-41"/>
      <use x="68.359375" xlink:href="#Verdana-4d"/>
      <use x="152.63671875" xlink:href="#Verdana-50"/>
      <use x="212.939453125" xlink:href="#Verdana-47"/>
      <use x="290.478515625" xlink:href="#Verdana-4f"/>
     </g>
    </g>
    <g id="line2d_34">
     <path d="
M89.28 83.1015
L109.44 83.1015" style="fill:none;stroke:#008000;stroke-dasharray:1.000000,1.000000;stroke-dashoffset:0.0;"/>
    </g>
    <g id="line2d_35"/>
    <g id="text_18">
     <!-- Anneal -->
     <g transform="translate(125.28 88.1415)scale(0.144 -0.144)">
      <use xlink:href="#Verdana-41"/>
      <use x="68.359375" xlink:href="#Verdana-6e"/>
      <use x="131.640625" xlink:href="#Verdana-6e"/>
      <use x="194.921875" xlink:href="#Verdana-65"/>
      <use x="254.4921875" xlink:href="#Verdana-61"/>
      <use x="314.55078125" xlink:href="#Verdana-6c"/>
     </g>
    </g>
    <g id="line2d_36">
     <path d="
M89.28 104.141
L109.44 104.141" style="fill:none;stroke:#ff0000;stroke-dasharray:3.000000,6.000000;stroke-dashoffset:0.0;"/>
    </g>
    <g id="line2d_37"/>
    <g id="text_19">
     <!-- BSA -->
     <defs>
      <path d="
M64.5938 22.3594
Q64.5938 16.9375 62.5469 12.7812
Q60.5 8.64062 57.0312 5.95312
Q52.9375 2.73438 48.0156 1.35938
Q43.1094 0 35.5469 0
L9.76562 0
L9.76562 72.7031
L31.2969 72.7031
Q39.2656 72.7031 43.2188 72.1094
Q47.1719 71.5312 50.7812 69.6719
Q54.7812 67.5781 56.5938 64.2812
Q58.4062 60.9844 58.4062 56.3906
Q58.4062 51.2188 55.7656 47.5781
Q53.125 43.9531 48.7344 41.75
L48.7344 41.3594
Q56.1094 39.8438 60.3438 34.8906
Q64.5938 29.9375 64.5938 22.3594
M48.3438 55.125
Q48.3438 57.7656 47.4531 59.5625
Q46.5781 61.375 44.625 62.5
Q42.3281 63.8125 39.0625 64.125
Q35.7969 64.4531 30.9531 64.4531
L19.4375 64.4531
L19.4375 43.4531
L31.9375 43.4531
Q36.4688 43.4531 39.1562 43.9219
Q41.8438 44.3906 44.1406 45.8438
Q46.4375 47.3125 47.3906 49.625
Q48.3438 51.9531 48.3438 55.125
M54.5469 21.9688
Q54.5469 26.375 53.2188 28.9531
Q51.9062 31.5469 48.4375 33.3438
Q46.0938 34.5781 42.75 34.9375
Q39.4062 35.2969 34.625 35.2969
L19.4375 35.2969
L19.4375 8.25
L32.2344 8.25
Q38.5781 8.25 42.625 8.90625
Q46.6875 9.57812 49.2656 11.3281
Q52 13.2344 53.2656 15.6719
Q54.5469 18.1094 54.5469 21.9688" id="Verdana-42"/>
     </defs>
     <g transform="translate(125.28 109.18125)scale(0.144 -0.144)">
      <use xlink:href="#Verdana-42"/>
      <use x="68.5546875" xlink:href="#Verdana-53"/>
      <use x="135.9140625" xlink:href="#Verdana-41"/>
     </g>
    </g>
    <g id="line2d_38">
     <path d="
M89.28 125.181
L109.44 125.181" style="fill:none;stroke:#00bfbf;stroke-dasharray:5.000000,1.000000,2.000000,1.000000,5.000000,1.000000;stroke-dashoffset:0.0;"/>
    </g>
    <g id="line2d_39"/>
    <g id="text_20">
     <!-- Cuckoo -->
     <defs>
      <path d="
M58.5469 0
L46.4375 0
L24.5625 23.875
L18.6094 18.2188
L18.6094 0
L9.42188 0
L9.42188 75.9844
L18.6094 75.9844
L18.6094 27.25
L45.125 54.5469
L56.6875 54.5469
L31.3438 29.3438
z
" id="Verdana-6b"/>
      <path d="
M65.9219 5.28125
Q63.2344 4.10938 61.0625 3.07812
Q58.8906 2.04688 55.375 0.921875
Q52.3906 0 48.8906 -0.65625
Q45.4062 -1.3125 41.2188 -1.3125
Q33.2969 -1.3125 26.8281 0.90625
Q20.3594 3.125 15.5781 7.85938
Q10.8906 12.5 8.25 19.6562
Q5.60938 26.8125 5.60938 36.2812
Q5.60938 45.2656 8.14062 52.3438
Q10.6875 59.4219 15.4844 64.3125
Q20.125 69.0469 26.6875 71.5312
Q33.25 74.0312 41.2656 74.0312
Q47.125 74.0312 52.9531 72.6094
Q58.7969 71.1875 65.9219 67.625
L65.9219 56.1562
L65.1875 56.1562
Q59.1875 61.1875 53.2656 63.4688
Q47.3594 65.7656 40.625 65.7656
Q35.1094 65.7656 30.6875 63.9844
Q26.2656 62.2031 22.7969 58.4531
Q19.4375 54.7812 17.5469 49.1875
Q15.6719 43.6094 15.6719 36.2812
Q15.6719 28.6094 17.75 23.0938
Q19.8281 17.5781 23.0938 14.1094
Q26.5156 10.5 31.0781 8.76562
Q35.6406 7.03125 40.7188 7.03125
Q47.7031 7.03125 53.7969 9.42188
Q59.9062 11.8125 65.2344 16.6094
L65.9219 16.6094
z
" id="Verdana-43"/>
     </defs>
     <g transform="translate(125.28 130.221)scale(0.144 -0.144)">
      <use xlink:href="#Verdana-43"/>
      <use x="69.82421875" xlink:href="#Verdana-75"/>
      <use x="133.10546875" xlink:href="#Verdana-63"/>
      <use x="185.205078125" xlink:href="#Verdana-6b"/>
      <use x="243.384765625" xlink:href="#Verdana-6f"/>
      <use x="304.078125" xlink:href="#Verdana-6f"/>
     </g>
    </g>
    <g id="line2d_40">
     <path d="
M89.28 146.221
L109.44 146.221" style="fill:none;stroke:#bf00bf;stroke-linecap:square;"/>
    </g>
    <g id="line2d_41"/>
    <g id="text_21">
     <!-- qABC -->
     <defs>
      <path d="
M53.2656 -20.125
L44.0938 -20.125
L44.0938 6.15625
Q39.8438 2.48438 35.6406 0.703125
Q31.4531 -1.07812 26.5625 -1.07812
Q16.8438 -1.07812 11.0625 6.42188
Q5.28125 13.9219 5.28125 27.0938
Q5.28125 34.125 7.29688 39.5156
Q9.32812 44.9219 12.6406 48.5781
Q15.875 52.1562 20.2188 54.1094
Q24.5625 56.0625 29.3906 56.0625
Q33.7969 56.0625 37.1875 55.0781
Q40.5781 54.1094 44.0938 52.2031
L44.6719 54.5469
L53.2656 54.5469
z

M44.0938 13.875
L44.0938 44.7344
Q40.2812 46.4375 37.3438 47.1094
Q34.4219 47.7969 31 47.7969
Q23.0469 47.7969 18.8906 42.4062
Q14.75 37.0156 14.75 27.5469
Q14.75 17.9688 18.0938 12.8125
Q21.4375 7.67188 28.6094 7.67188
Q32.625 7.67188 36.625 9.40625
Q40.625 11.1406 44.0938 13.875" id="Verdana-71"/>
     </defs>
     <g transform="translate(125.28 151.26075)scale(0.144 -0.144)">
      <use xlink:href="#Verdana-71"/>
      <use x="62.3046875" xlink:href="#Verdana-41"/>
      <use x="130.6640625" xlink:href="#Verdana-42"/>
      <use x="199.21875" xlink:href="#Verdana-43"/>
     </g>
    </g>
   </g>
  </g>
 </g>
 <defs>
  <clipPath id="p7ff5b81e1d">
   <rect height="345.6" width="446.4" x="72.0" y="43.2"/>
  </clipPath>
 </defs>
</svg>
