<?xml version="1.0" encoding="utf-8" standalone="no"?>
<!DOCTYPE svg PUBLIC "-//W3C//DTD SVG 1.1//EN"
  "http://www.w3.org/Graphics/SVG/1.1/DTD/svg11.dtd">
<!-- Created with matplotlib (http://matplotlib.org/) -->
<svg height="432pt" version="1.1" viewBox="0 0 576 432" width="576pt" xmlns="http://www.w3.org/2000/svg" xmlns:xlink="http://www.w3.org/1999/xlink">
 <defs>
  <style type="text/css">
*{stroke-linecap:butt;stroke-linejoin:round;}
  </style>
 </defs>
 <g id="figure_1">
  <g id="patch_1">
   <path d="
M0 432
L576 432
L576 0
L0 0
z
" style="fill:#ffffff;"/>
  </g>
  <g id="axes_1">
   <g id="patch_2">
    <path d="
M72 388.8
L518.4 388.8
L518.4 43.2
L72 43.2
z
" style="fill:#ffffff;"/>
   </g>
   <g id="line2d_1">
    <path clip-path="url(#p7ff5b81e1d)" d="
M72 85.6883
L80.7494 85.6883
L80.928 95.8141
L89.4989 95.8141
L89.6774 101.257
L98.2483 101.257
L98.4269 108.086
L106.998 108.086
L107.176 110.475
L115.747 110.475
L115.926 111.974
L124.497 111.974
L124.675 113.59
L133.246 113.59
L133.425 114.664
L141.996 114.664
L142.174 115.216
L150.745 115.216
L150.924 115.785
L159.494 115.785
L159.673 116.685
L176.993 116.748
L177.172 117.281
L185.743 117.281
L185.921 117.464
L194.492 117.464
L194.671 117.945
L203.242 117.945
L203.42 118.251
L211.991 118.251
L212.17 118.442
L229.49 118.526
L229.668 118.777
L238.239 118.777
L238.418 118.973
L264.488 119.062
L264.666 119.24
L281.987 119.323
L282.254 119.376
L299.485 119.452
L299.753 119.518
L343.233 119.624
L343.679 119.652
L378.23 119.738
L378.588 119.773
L413.228 119.874
L413.496 119.923
L439.476 120.008
L439.834 120.041
L456.975 120.109
L457.243 120.173
L465.725 120.173
L465.903 121.373
L474.474 121.373
L474.653 122.285
L483.224 122.285
L483.402 123.327
L491.973 123.327
L492.152 123.753
L500.723 123.753
L500.901 124.35
L509.472 124.35
L509.651 124.963
L518.221 124.963
L518.311 125.172
L518.311 125.172" style="fill:none;stroke:#0000ff;stroke-dasharray:6.000000,2.000000;stroke-dashoffset:0.0;"/>
   </g>
   <g id="line2d_2">
    <path clip-path="url(#p7ff5b81e1d)" d="
M72 81.8305
L72.8035 82.1249
L72.8928 82.2617
L73.1606 83.4149
L73.3392 83.4149
L73.5178 83.5466
L73.9642 83.5466
L74.232 84.4456
L74.4106 85.354
L74.857 85.354
L75.0355 85.5709
L75.2141 85.5709
L75.3926 86.498
L75.7498 86.498
L75.9283 88.3959
L76.0176 88.3959
L76.1962 90.5177
L76.9104 90.5625
L77.089 90.7221
L77.1782 90.7221
L77.2675 91.0683
L77.4461 94.0516
L78.071 94.0694
L78.1603 94.0694
L78.3389 94.7197
L78.6067 94.7576
L78.7853 95.112
L79.4102 95.1192
L79.5888 95.7535
L80.5709 95.8036
L80.7494 97.2072
L82.4458 97.3089
L82.535 97.3573
L82.7136 97.7676
L83.2493 97.7963
L83.4278 97.8935
L84.3206 97.9041
L84.4992 99.0905
L84.6778 99.0905
L84.8563 99.507
L84.9456 99.507
L85.1242 101.511
L85.3027 102.21
L86.017 102.21
L86.1955 102.358
L86.8205 102.407
L86.999 102.744
L87.8026 102.776
L87.9811 103.333
L88.7846 103.333
L88.9632 104.317
L91.0166 104.418
L91.1952 104.66
L91.3738 104.727
L91.5523 105.126
L91.6416 105.126
L91.8202 106.861
L92.088 106.861
L92.2666 107.809
L92.4451 107.809
L92.6237 108.036
L93.4272 108.036
L93.6058 109.859
L93.7843 109.97
L94.1414 109.97
L94.32 110.426
L94.4986 110.489
L94.6771 111.144
L95.0342 111.175
L95.3914 111.218
L95.5699 111.753
L95.927 111.753
L96.1056 112.014
L96.4627 112.077
L96.6413 112.248
L96.7306 112.248
L96.9091 115.755
L98.0698 115.826
L98.2483 115.971
L101.462 116.076
L101.641 119.233
L101.82 119.318
L102.177 119.318
L102.355 121.587
L102.712 121.587
L102.891 125.954
L103.962 125.999
L104.141 126.369
L107.266 126.48
L107.623 126.511
L108.873 126.556
L109.051 128.177
L111.015 128.199
L111.194 128.408
L112.087 128.408
L112.265 128.716
L112.712 128.744
L112.89 129.667
L113.337 129.667
L113.515 131.37
L113.783 131.37
L113.962 131.638
L115.926 131.672
L116.194 133.159
L116.551 133.159
L116.729 133.383
L116.997 133.383
L117.176 134.124
L118.426 134.164
L118.604 136.844
L118.693 136.844
L118.872 140.816
L120.658 140.816
L120.836 141.47
L121.193 141.47
L121.55 142.262
L123.068 142.262
L123.247 143.094
L123.961 143.094
L124.14 143.822
L124.943 143.838
L125.122 144.054
L125.479 144.054
L125.657 144.712
L129.139 144.714
L129.318 145.29
L129.675 145.304
L129.853 146.91
L130.032 147.011
L130.121 147.011
L130.3 148.217
L132.264 148.217
L132.443 148.549
L132.978 148.549
L133.157 150.097
L133.871 150.15
L134.05 150.786
L134.496 150.831
L134.675 151.254
L135.121 151.351
L135.3 152.212
L136.907 152.213
L137.085 152.966
L137.353 152.966
L137.532 154.871
L137.799 154.871
L137.978 160.989
L138.246 160.989
L138.424 161.39
L139.496 161.443
L139.674 163.282
L139.942 163.282
L140.121 164.041
L141.906 164.071
L142.085 164.203
L143.156 164.203
L143.335 166.106
L144.495 166.142
L144.674 166.223
L147.709 166.292
L147.888 166.578
L148.067 166.578
L148.245 166.831
L149.316 166.868
L149.495 167.222
L149.763 167.222
L149.941 170.889
L150.656 170.889
L150.834 171.813
L151.37 171.813
L151.548 172.091
L154.048 172.125
L154.227 173.532
L154.495 173.532
L154.673 173.728
L156.548 173.735
L156.727 173.848
L157.709 173.885
L157.887 174.309
L160.655 174.316
L160.834 175.88
L161.369 175.898
L161.548 179.352
L162.351 179.352
L162.53 179.972
L163.958 179.977
L164.137 180.309
L167.351 180.395
L167.53 180.988
L168.869 180.988
L169.047 181.701
L171.279 181.729
L171.458 182.263
L171.904 182.263
L172.083 182.507
L172.529 182.507
L172.708 183.685
L174.851 183.685
L175.029 183.837
L176.547 183.837
L176.725 184.531
L178.065 184.562
L178.243 185.298
L178.511 185.298
L178.69 185.741
L178.868 185.741
L179.047 186.6
L179.672 186.6
L179.85 187.11
L179.94 187.11
L180.118 187.785
L180.654 187.785
L180.832 188.276
L181.1 188.276
L181.279 189.88
L181.725 189.88
L181.904 190.116
L182.529 190.116
L182.707 191.848
L184.85 191.876
L185.028 194.291
L186.011 194.291
L186.189 194.792
L186.993 194.792
L187.171 194.931
L189.314 194.985
L189.492 196.804
L189.671 196.804
L189.85 198.27
L190.742 198.27
L190.921 198.568
L191.278 198.568
L191.457 198.692
L193.421 198.692
L193.599 198.864
L194.046 198.864
L194.224 200.15
L195.921 200.23
L196.099 200.569
L197.796 200.569
L197.974 202.271
L198.331 202.271
L198.51 203.588
L200.385 203.588
L200.563 204.012
L200.92 204.012
L201.099 205.697
L201.188 205.697
L201.367 209.843
L202.884 209.843
L203.063 210.35
L203.242 210.35
L203.42 210.473
L204.224 210.473
L204.402 212.109
L204.581 212.109
L204.759 212.228
L206.902 212.228
L207.081 212.616
L208.598 212.616
L208.777 213.019
L210.116 213.019
L210.295 213.611
L211.545 213.611
L211.723 214.611
L211.991 214.611
L212.17 214.783
L212.259 214.783
L212.437 216.316
L213.33 216.316
L213.509 217.301
L214.937 217.323
L215.116 217.416
L215.741 217.416
L215.83 217.554
L216.009 217.99
L217.169 218.011
L217.259 218.216
L217.437 219.269
L218.776 219.269
L218.955 221.29
L220.205 221.29
L220.383 222.899
L223.062 222.906
L223.24 223.313
L223.419 223.313
L223.597 223.446
L224.312 223.446
L224.49 229.97
L225.115 229.97
L225.294 230.811
L227.972 230.83
L228.151 232.862
L229.044 232.862
L229.222 233.604
L230.561 233.604
L230.74 237.152
L232.258 237.191
L232.436 237.497
L232.704 237.497
L232.883 241.035
L234.043 241.106
L234.311 241.155
L238.329 241.225
L238.507 241.674
L238.954 241.732
L239.132 241.988
L240.025 241.988
L240.204 242.19
L240.382 242.931
L240.561 245.491
L241.096 245.491
L241.543 247.451
L242.168 247.451
L242.346 248.354
L243.328 248.354
L243.596 249.305
L243.685 249.305
L243.864 249.445
L243.953 249.445
L244.132 254.618
L248.685 254.644
L248.864 254.873
L250.381 254.873
L250.56 259.02
L250.649 259.02
L250.828 263.897
L251.542 263.9
L251.721 268.845
L258.506 268.878
L258.684 269.44
L260.202 269.44
L260.381 270.436
L262.524 270.436
L262.702 271.201
L265.738 271.29
L265.916 271.499
L266.63 271.499
L266.809 272.421
L267.077 272.421
L267.255 274.476
L269.041 274.476
L269.22 274.836
L272.344 274.836
L272.523 275.307
L274.13 275.307
L274.308 277.532
L279.308 277.532
L279.487 278.262
L281.094 278.262
L281.272 278.428
L282.522 278.428
L282.701 278.757
L286.986 278.84
L287.165 279.25
L287.7 279.25
L287.879 282.607
L290.111 282.607
L290.29 282.76
L290.736 282.76
L290.915 284.72
L291.361 284.72
L291.54 285.285
L293.861 285.285
L294.039 287.246
L295.557 287.246
L295.736 287.407
L298.503 287.407
L298.682 287.729
L299.664 287.729
L299.843 288.728
L300.735 288.806
L300.914 289.406
L301.36 289.406
L301.539 290.319
L302.878 290.319
L303.057 290.769
L303.503 290.769
L303.682 291.901
L305.021 291.901
L305.199 292.108
L305.556 292.108
L305.735 293.01
L307.788 293.01
L307.967 293.852
L309.663 293.852
L309.842 294.313
L310.824 294.313
L311.003 295.665
L313.235 295.725
L313.413 297.178
L313.592 297.935
L314.127 297.935
L314.306 298.255
L315.913 298.255
L316.092 298.553
L319.663 298.553
L319.841 298.834
L321.18 298.854
L321.359 299.847
L324.841 299.885
L325.02 300.547
L325.823 300.547
L326.002 303.97
L327.252 303.97
L327.43 305.179
L328.501 305.179
L328.68 307.534
L335.019 307.632
L335.197 308.541
L336.447 308.541
L336.626 309.087
L338.769 309.087
L338.947 309.293
L342.251 309.337
L342.429 310.075
L345.197 310.075
L345.375 313.506
L347.429 313.557
L347.607 314.099
L350.286 314.099
L350.464 314.58
L350.821 314.58
L351 315.929
L351.893 315.929
L352.071 316.776
L353.589 316.776
L353.768 317.554
L355.196 317.554
L355.375 318.031
L355.732 318.031
L355.91 318.565
L356.892 318.565
L357.071 319.06
L357.428 319.06
L357.607 319.218
L357.875 319.218
L358.053 320.736
L359.035 320.736
L359.214 321.505
L360.374 321.505
L360.553 321.704
L360.821 321.704
L360.999 322.795
L364.749 322.795
L364.928 323.127
L365.106 323.127
L365.285 323.304
L365.999 323.304
L366.178 323.46
L369.213 323.46
L369.392 324.316
L370.642 324.316
L370.82 324.492
L371.713 324.492
L372.07 327.198
L373.499 327.207
L373.677 329.017
L373.766 329.017
L373.945 329.196
L374.748 329.196
L374.927 329.693
L375.641 329.693
L375.82 329.845
L376.623 329.845
L376.802 331.467
L378.766 331.467
L378.945 332.089
L381.534 332.089
L381.712 332.238
L383.23 332.238
L383.409 333.016
L383.587 333.016
L383.766 335.239
L385.551 335.239
L385.73 340.253
L394.569 340.276
L394.747 340.828
L399.122 340.895
L399.3 341.006
L401.8 341.01
L401.979 341.178
L403.05 341.178
L403.229 341.55
L403.586 341.55
L403.764 341.806
L404.479 341.806
L404.657 342.29
L405.461 342.29
L405.639 342.47
L407.157 342.47
L407.336 342.72
L409.746 342.72
L409.925 344.334
L411.353 344.334
L411.532 344.701
L411.71 344.701
L411.889 346.752
L412.782 346.752
L412.96 347.941
L416.353 347.941
L416.532 349.033
L417.781 349.033
L417.96 353.7
L425.37 353.774
L425.549 354.144
L426.442 354.144
L426.62 355.892
L427.959 355.892
L428.138 356.154
L428.495 356.154
L428.674 356.535
L429.477 356.535
L429.656 358.141
L433.941 358.243
L434.12 358.432
L436.084 358.432
L436.262 359.246
L436.62 359.246
L436.798 359.378
L441.619 359.378
L441.798 359.585
L443.494 359.585
L443.673 360.872
L444.833 360.872
L445.012 361.076
L445.548 361.076
L445.726 361.256
L446.887 361.256
L447.065 361.758
L450.547 361.833
L450.726 362.195
L451.708 362.195
L451.886 364.944
L453.404 364.944
L453.583 365.458
L454.743 365.458
L454.922 366.712
L461.796 366.734
L461.975 367.378
L465.011 367.378
L465.189 368.106
L466.975 368.106
L467.153 368.666
L468.582 368.666
L468.76 370.251
L469.564 370.251
L469.742 371.233
L470.992 371.233
L471.171 371.863
L472.332 371.863
L472.51 373.053
L480.099 373.053
L480.277 373.808
L489.205 373.855
L489.384 374.102
L492.062 374.102
L492.241 374.587
L500.187 374.591
L500.365 375.485
L502.062 375.485
L502.24 375.708
L503.312 375.708
L503.49 376.503
L505.276 376.503
L505.454 377.767
L507.419 377.767
L507.597 377.914
L508.044 377.914
L508.222 378.044
L512.15 378.131
L512.329 378.913
L513.132 378.913
L513.311 379.027
L515.811 379.027
L515.989 379.346
L518.311 379.351
L518.311 379.351" style="fill:none;stroke:#008000;stroke-dasharray:1.000000,1.000000;stroke-dashoffset:0.0;"/>
   </g>
   <g id="line2d_3">
    <path clip-path="url(#p7ff5b81e1d)" d="
M72 83.0881
L72.0893 83.6887
L72.1786 84.0404
L72.8035 84.0404
L72.9821 85.4238
L73.3392 85.4238
L73.5178 86.3929
L74.9462 86.3929
L75.1248 90.0557
L81.553 90.0557
L81.7315 91.2998
L82.0886 91.2998
L82.2672 93.2267
L91.2845 93.2372
L91.463 93.7668
L103.784 93.7668
L103.962 94.0357
L108.337 94.0357
L108.516 97.1722
L111.819 97.1722
L111.997 98.0179
L131.55 98.0506
L131.728 98.1723
L135.121 98.1723
L135.3 98.3157
L138.603 98.3157
L138.781 102.849
L172.797 102.888
L172.976 103.729
L187.082 103.813
L187.26 103.939
L192.439 103.939
L192.617 104.738
L199.313 104.738
L199.492 106.822
L201.099 106.822
L201.277 107.885
L220.74 107.894
L220.919 110.17
L224.312 110.17
L224.49 111.367
L231.454 111.367
L231.633 112.305
L236.811 112.305
L236.989 113.053
L238.596 113.053
L238.775 113.327
L243.953 113.327
L244.132 114.445
L292.164 114.445
L292.343 114.637
L297.521 114.637
L297.7 114.881
L304.664 114.881
L304.842 115.383
L306.449 115.383
L306.628 115.546
L322.52 115.546
L322.698 115.665
L326.091 115.665
L326.269 115.888
L329.662 115.888
L329.841 116.108
L394.747 116.159
L394.926 116.765
L401.622 116.765
L401.8 117.469
L408.764 117.572
L408.943 117.682
L409.032 117.682
L409.211 117.997
L412.335 117.997
L412.514 118.48
L417.692 118.48
L417.871 119.497
L440.905 119.587
L441.084 120.295
L444.476 120.295
L444.655 120.513
L451.619 120.513
L451.797 125.742
L503.401 125.764
L503.58 126.008
L518.311 126.008
L518.311 126.008" style="fill:none;stroke:#ff0000;stroke-dasharray:3.000000,6.000000;stroke-dashoffset:0.0;"/>
   </g>
   <g id="line2d_4">
    <path clip-path="url(#p7ff5b81e1d)" d="
M72 83.1736
L72.0893 83.1736
L72.2678 88.824
L76.1962 88.824
L76.3747 91.8979
L82.8029 91.8979
L82.9814 93.4577
L86.017 93.4577
L86.1955 93.6747
L98.0698 93.6747
L98.2483 94.0941
L101.284 94.0941
L101.462 94.6088
L103.605 94.6088
L103.784 95.326
L104.319 95.326
L104.498 96.4724
L119.318 96.4724
L119.497 98.9773
L138.603 98.9773
L138.781 100.077
L153.78 100.077
L153.959 101.825
L191.903 101.825
L192.082 106.074
L227.883 106.145
L228.061 110.565
L299.843 110.565
L300.021 118.847
L452.868 118.847
L453.047 119.357
L456.886 119.357
L457.065 120.74
L463.314 120.74
L463.493 127.406
L492.152 127.406
L492.33 128.114
L518.311 128.114
L518.311 128.114" style="fill:none;stroke:#00bfbf;stroke-dasharray:5.000000,1.000000,2.000000,1.000000,5.000000,1.000000;stroke-dashoffset:0.0;"/>
   </g>
   <g id="line2d_5">
    <path clip-path="url(#p7ff5b81e1d)" d="
M72 83.741
L72.2678 83.7742
L72.4464 86.1137
L75.5712 86.1137
L75.7498 86.4767
L75.839 86.4767
L76.0176 89.4232
L76.464 89.4232
L76.6426 89.875
L77.7139 89.8848
L79.4995 89.9496
L79.6781 90.3793
L80.3923 90.3793
L80.5709 92.4603
L82.6243 92.4603
L82.8029 97.1208
L83.16 97.1208
L83.3386 98.0866
L83.9635 98.1234
L84.1421 100.209
L84.4099 100.209
L84.5885 100.905
L86.2848 100.905
L86.4634 101.032
L89.856 101.125
L90.0346 101.816
L93.8736 101.816
L94.1414 102.044
L94.4093 102.044
L94.5878 102.495
L96.9984 102.495
L97.177 102.671
L97.4448 102.671
L97.6234 104.09
L97.8019 104.2
L100.48 104.203
L100.659 109.072
L102.355 109.079
L102.534 109.6
L105.034 109.6
L105.212 109.765
L105.659 109.765
L105.837 110.499
L112.712 110.596
L112.89 112.385
L115.033 112.464
L115.39 112.497
L116.283 112.552
L116.461 113.306
L118.783 113.365
L119.408 114.617
L122.175 114.647
L122.443 116.199
L128.068 116.2
L128.246 117.208
L129.675 117.294
L129.943 117.821
L130.032 117.821
L130.211 121.828
L133.514 121.938
L133.692 122.793
L134.139 122.793
L134.317 123.775
L136.996 123.775
L137.174 125.006
L137.353 125.006
L137.532 125.255
L140.567 125.255
L140.746 125.369
L141.192 125.369
L141.371 125.5
L143.781 125.5
L144.049 127.244
L144.674 127.244
L144.852 128.002
L145.031 128.002
L145.21 128.644
L146.995 128.644
L147.174 128.765
L147.531 128.765
L147.709 129.63
L147.888 129.63
L148.067 130.626
L148.602 130.626
L148.781 131.165
L150.656 131.208
L151.013 132.065
L151.191 132.065
L151.37 132.33
L151.638 132.33
L151.816 132.941
L155.566 133.016
L155.745 135.192
L155.923 135.192
L156.102 136.939
L157.709 136.939
L157.887 138.137
L158.066 138.879
L158.334 138.879
L158.512 139.48
L158.602 139.48
L158.78 139.957
L158.869 139.957
L159.048 141.213
L159.227 141.325
L161.459 141.325
L161.637 142.037
L162.084 142.037
L162.262 143.93
L162.708 143.93
L162.887 144.092
L163.066 144.686
L166.012 144.686
L166.19 144.917
L168.69 144.917
L168.869 145.349
L169.137 145.396
L169.494 145.396
L169.672 146.254
L173.244 146.254
L173.422 146.412
L175.654 146.505
L176.279 146.558
L176.636 146.606
L176.815 147.388
L183.957 147.473
L184.136 151.167
L186.725 151.167
L186.903 151.861
L187.082 151.861
L187.26 152.9
L187.618 152.9
L187.796 153.026
L189.76 153.026
L189.939 154.9
L190.832 154.9
L191.01 156.518
L191.457 156.627
L192.974 156.634
L193.778 156.646
L193.956 156.759
L194.671 156.759
L194.849 157.536
L196.903 157.536
L197.081 158.303
L197.617 158.303
L197.796 160.106
L198.42 160.106
L198.599 161.305
L200.742 161.305
L200.92 161.91
L201.01 161.91
L201.188 162.211
L201.902 162.211
L202.081 162.376
L204.045 162.376
L204.224 162.547
L205.563 162.547
L205.831 162.96
L210.116 163.026
L210.295 163.175
L211.812 163.18
L211.991 165.185
L212.17 165.216
L212.348 166.092
L212.705 166.092
L212.884 166.24
L215.116 166.24
L215.294 166.957
L215.473 169.609
L219.669 169.648
L220.026 169.937
L223.419 169.969
L223.597 170.357
L224.401 170.357
L224.58 170.47
L226.187 170.47
L226.365 173.643
L227.169 173.654
L227.347 174.451
L230.651 174.562
L230.829 174.775
L237.168 174.775
L237.347 175.329
L237.704 175.329
L237.882 176.358
L238.061 176.358
L238.239 177.185
L240.114 177.188
L240.293 179.542
L240.828 179.542
L241.007 180.999
L241.275 180.999
L241.453 181.389
L243.775 181.428
L243.953 183.221
L244.578 183.221
L244.668 183.493
L244.846 184.446
L246.9 184.446
L247.078 185.801
L248.06 185.811
L251.631 185.864
L251.81 186.44
L252.346 186.44
L252.524 186.862
L255.56 186.886
L255.738 187.028
L258.327 187.028
L258.506 188.104
L258.684 188.104
L258.863 188.712
L262.524 188.712
L262.702 189.454
L264.934 189.505
L265.113 189.587
L265.291 190.904
L265.738 191.002
L265.916 192.188
L266.273 192.188
L266.452 197.047
L268.327 197.047
L268.505 197.164
L269.398 197.226
L269.755 197.538
L269.934 197.538
L270.112 197.681
L273.416 197.736
L273.594 197.816
L275.558 197.816
L275.737 197.952
L279.13 197.952
L279.308 199.438
L280.022 199.454
L281.54 199.454
L281.719 203.045
L283.326 203.045
L283.504 204.727
L284.04 204.727
L284.219 207.542
L286.451 207.542
L286.718 208.102
L293.325 208.161
L293.504 209.764
L295.021 209.764
L295.2 210.535
L301.36 210.565
L301.539 210.943
L301.717 211.074
L302.164 211.074
L302.342 212.424
L305.11 212.424
L305.289 212.744
L307.699 212.756
L307.878 214.624
L308.324 215.888
L311.181 215.981
L311.36 219.3
L311.717 219.3
L311.985 219.773
L312.252 219.773
L312.431 220.056
L316.449 220.056
L316.627 220.516
L318.324 220.516
L318.502 221.074
L319.484 221.074
L319.663 223.271
L322.073 223.271
L322.252 224.093
L323.77 224.093
L323.948 224.502
L326.091 224.504
L326.269 225.159
L330.019 225.24
L330.198 226.647
L330.287 226.909
L330.466 227.652
L330.733 227.652
L330.912 228.294
L332.608 228.294
L332.787 229.289
L333.858 229.289
L334.037 229.893
L336.804 229.893
L336.983 230.092
L339.751 230.092
L339.929 230.345
L340.108 230.392
L340.286 230.711
L344.304 230.711
L344.483 232.384
L346.982 232.384
L347.161 232.899
L348.143 232.899
L348.322 233.682
L348.5 233.831
L350.643 233.834
L350.821 235.27
L350.911 235.27
L351.089 235.595
L354.66 235.626
L354.839 237.055
L357.071 237.055
L357.25 239.327
L357.607 239.327
L357.785 242.559
L358.857 242.559
L359.035 243.292
L362.696 243.347
L362.874 243.681
L365.017 243.684
L365.196 247.138
L365.463 247.19
L368.767 247.19
L368.945 247.514
L369.392 247.525
L369.838 248.993
L372.07 248.993
L372.249 249.115
L375.552 249.115
L375.731 249.656
L376.445 249.656
L376.623 250.12
L376.891 250.12
L377.07 250.505
L379.034 250.505
L379.212 251.742
L383.23 251.845
L383.409 254.81
L387.337 254.81
L387.516 256.829
L390.194 256.865
L390.372 257.222
L394.747 257.222
L395.104 259.312
L401.443 259.415
L401.622 259.843
L403.854 259.843
L404.032 261.183
L404.657 261.183
L404.836 262.198
L405.014 265.673
L405.639 265.673
L405.818 268.294
L415.192 268.294
L415.371 272.8
L415.817 272.8
L415.996 273.662
L419.388 273.662
L419.567 275.405
L426.799 275.405
L426.977 276.024
L430.548 276.047
L430.727 278.511
L434.12 278.511
L434.298 282.576
L436.887 282.576
L437.066 284.578
L440.369 284.578
L440.548 285.647
L454.118 285.722
L454.297 285.913
L460.993 285.913
L461.172 286.027
L461.529 286.027
L461.707 287.723
L462.868 287.723
L463.046 290.453
L465.189 290.453
L465.368 290.605
L468.76 290.693
L468.939 291.829
L475.903 291.862
L476.081 297.008
L479.206 297.008
L479.385 297.303
L487.241 297.303
L487.42 297.735
L493.58 297.735
L493.759 297.951
L493.937 297.951
L494.116 299.057
L502.062 299.059
L502.24 299.464
L504.294 299.464
L504.472 300.4
L505.097 300.4
L505.276 300.843
L508.401 300.845
L508.579 303.391
L508.758 303.803
L515.275 303.845
L515.454 304.243
L518.311 304.243
L518.311 304.243" style="fill:none;stroke:#bf00bf;stroke-linecap:square;"/>
   </g>
   <g id="matplotlib.axis_1">
    <g id="xtick_1">
     <g id="line2d_6">
      <defs>
       <path d="
M0 0
L0 -4" id="mc7db9fdffb" style="stroke:#000000;stroke-width:0.5;"/>
      </defs>
      <g>
       <use style="stroke:#000000;stroke-width:0.5;" x="72.0" xlink:href="#mc7db9fdffb" y="388.8"/>
      </g>
     </g>
     <g id="line2d_7">
      <defs>
       <path d="
M0 0
L0 4" id="m5a7d422ac3" style="stroke:#000000;stroke-width:0.5;"/>
      </defs>
      <g>
       <use style="stroke:#000000;stroke-width:0.5;" x="72.0" xlink:href="#m5a7d422ac3" y="43.2"/>
      </g>
     </g>
     <g id="text_1">
      <!-- 0 -->
      <defs>
       <path d="
M56.9844 36.375
Q56.9844 16.7969 50.8594 7.64062
Q44.7344 -1.51562 31.8438 -1.51562
Q18.75 -1.51562 12.7188 7.76562
Q6.6875 17.0469 6.6875 36.2812
Q6.6875 55.6719 12.7812 64.9219
Q18.8906 74.1719 31.8438 74.1719
Q44.9219 74.1719 50.9531 64.7656
Q56.9844 55.375 56.9844 36.375
M44.1406 14.2031
Q45.8438 18.1719 46.4531 23.5156
Q47.0781 28.8594 47.0781 36.375
Q47.0781 43.7969 46.4531 49.2656
Q45.8438 54.7344 44.0938 58.5469
Q42.3906 62.3125 39.4219 64.2031
Q36.4688 66.1094 31.8438 66.1094
Q27.25 66.1094 24.2344 64.2031
Q21.2344 62.3125 19.4844 58.4531
Q17.8281 54.8281 17.2188 49.0156
Q16.6094 43.2188 16.6094 36.2812
Q16.6094 28.6562 17.1406 23.5312
Q17.6719 18.4062 19.4375 14.3594
Q21.0469 10.5469 24 8.54688
Q26.9531 6.54688 31.8438 6.54688
Q36.4219 6.54688 39.4531 8.45312
Q42.4844 10.3594 44.1406 14.2031" id="Verdana-30"/>
      </defs>
      <g transform="translate(68.9821875 401.918125)scale(0.12 -0.12)">
       <use xlink:href="#Verdana-30"/>
      </g>
     </g>
    </g>
    <g id="xtick_2">
     <g id="line2d_8">
      <g>
       <use style="stroke:#000000;stroke-width:0.5;" x="161.28" xlink:href="#mc7db9fdffb" y="388.8"/>
      </g>
     </g>
     <g id="line2d_9">
      <g>
       <use style="stroke:#000000;stroke-width:0.5;" x="161.28" xlink:href="#m5a7d422ac3" y="43.2"/>
      </g>
     </g>
     <g id="text_2">
      <!-- 1000 -->
      <defs>
       <path d="
M52.9375 0
L13.5781 0
L13.5781 7.42188
L28.7188 7.42188
L28.7188 56.1562
L13.5781 56.1562
L13.5781 62.7969
Q16.6562 62.7969 20.1719 63.2969
Q23.6875 63.8125 25.4844 64.7969
Q27.7344 66.0156 29.0312 67.8906
Q30.3281 69.7812 30.5156 72.9531
L38.0938 72.9531
L38.0938 7.42188
L52.9375 7.42188
z
" id="Verdana-31"/>
      </defs>
      <g transform="translate(147.2315625 401.918125)scale(0.12 -0.12)">
       <use xlink:href="#Verdana-31"/>
       <use x="63.57421875" xlink:href="#Verdana-30"/>
       <use x="127.1484375" xlink:href="#Verdana-30"/>
       <use x="190.72265625" xlink:href="#Verdana-30"/>
      </g>
     </g>
    </g>
    <g id="xtick_3">
     <g id="line2d_10">
      <g>
       <use style="stroke:#000000;stroke-width:0.5;" x="250.56" xlink:href="#mc7db9fdffb" y="388.8"/>
      </g>
     </g>
     <g id="line2d_11">
      <g>
       <use style="stroke:#000000;stroke-width:0.5;" x="250.56" xlink:href="#m5a7d422ac3" y="43.2"/>
      </g>
     </g>
     <g id="text_3">
      <!-- 2000 -->
      <defs>
       <path d="
M57.0781 0
L7.85938 0
L7.85938 10.2031
Q12.9844 14.5938 18.1406 18.9844
Q23.2969 23.3906 27.7344 27.7344
Q37.1094 36.8125 40.5781 42.1562
Q44.0469 47.5156 44.0469 53.7188
Q44.0469 59.375 40.3125 62.5625
Q36.5781 65.7656 29.8906 65.7656
Q25.4375 65.7656 20.2656 64.2031
Q15.0938 62.6406 10.1562 59.4219
L9.67188 59.4219
L9.67188 69.6719
Q13.1406 71.3906 18.9219 72.7969
Q24.7031 74.2188 30.125 74.2188
Q41.3125 74.2188 47.6562 68.8125
Q54 63.4219 54 54.2031
Q54 50.0469 52.9531 46.4531
Q51.9062 42.875 49.8594 39.6562
Q47.9531 36.625 45.3906 33.6875
Q42.8281 30.7656 39.1562 27.2031
Q33.9375 22.0781 28.3594 17.2656
Q22.7969 12.4531 17.9688 8.34375
L57.0781 8.34375
z
" id="Verdana-32"/>
      </defs>
      <g transform="translate(236.1684375 401.918125)scale(0.12 -0.12)">
       <use xlink:href="#Verdana-32"/>
       <use x="63.57421875" xlink:href="#Verdana-30"/>
       <use x="127.1484375" xlink:href="#Verdana-30"/>
       <use x="190.72265625" xlink:href="#Verdana-30"/>
      </g>
     </g>
    </g>
    <g id="xtick_4">
     <g id="line2d_12">
      <g>
       <use style="stroke:#000000;stroke-width:0.5;" x="339.84" xlink:href="#mc7db9fdffb" y="388.8"/>
      </g>
     </g>
     <g id="line2d_13">
      <g>
       <use style="stroke:#000000;stroke-width:0.5;" x="339.84" xlink:href="#m5a7d422ac3" y="43.2"/>
      </g>
     </g>
     <g id="text_4">
      <!-- 3000 -->
      <defs>
       <path d="
M50.6875 35.0156
Q53.0312 32.9062 54.5469 29.7344
Q56.0625 26.5625 56.0625 21.5312
Q56.0625 16.5469 54.25 12.3906
Q52.4375 8.25 49.1719 5.17188
Q45.5156 1.76562 40.5469 0.125
Q35.5938 -1.51562 29.6875 -1.51562
Q23.6406 -1.51562 17.7812 -0.0625
Q11.9219 1.375 8.15625 3.07812
L8.15625 13.2812
L8.89062 13.2812
Q13.0312 10.5469 18.6406 8.73438
Q24.2656 6.9375 29.5 6.9375
Q32.5625 6.9375 36.0312 7.95312
Q39.5 8.98438 41.6562 10.9844
Q43.8906 13.1406 44.9844 15.7188
Q46.0938 18.3125 46.0938 22.2656
Q46.0938 26.1719 44.8438 28.7344
Q43.6094 31.2969 41.4062 32.7656
Q39.2031 34.2812 36.0781 34.8438
Q32.9531 35.4062 29.3438 35.4062
L24.9531 35.4062
L24.9531 43.5
L28.375 43.5
Q35.7969 43.5 40.2031 46.5938
Q44.625 49.7031 44.625 55.6719
Q44.625 58.2969 43.5 60.2656
Q42.3906 62.25 40.375 63.5312
Q38.2812 64.7969 35.8906 65.2812
Q33.5 65.7656 30.4688 65.7656
Q25.8281 65.7656 20.5938 64.1094
Q15.375 62.4531 10.75 59.4219
L10.25 59.4219
L10.25 69.625
Q13.7188 71.3438 19.5 72.7812
Q25.2969 74.2188 30.7188 74.2188
Q36.0312 74.2188 40.0781 73.2344
Q44.1406 72.2656 47.4062 70.125
Q50.9219 67.7812 52.7344 64.4531
Q54.5469 61.1406 54.5469 56.6875
Q54.5469 50.6406 50.2656 46.125
Q46 41.6094 40.1875 40.4375
L40.1875 39.75
Q42.5312 39.3594 45.5469 38.1094
Q48.5781 36.8594 50.6875 35.0156" id="Verdana-33"/>
      </defs>
      <g transform="translate(325.46625 401.918125)scale(0.12 -0.12)">
       <use xlink:href="#Verdana-33"/>
       <use x="63.57421875" xlink:href="#Verdana-30"/>
       <use x="127.1484375" xlink:href="#Verdana-30"/>
       <use x="190.72265625" xlink:href="#Verdana-30"/>
      </g>
     </g>
    </g>
    <g id="xtick_5">
     <g id="line2d_14">
      <g>
       <use style="stroke:#000000;stroke-width:0.5;" x="429.12" xlink:href="#mc7db9fdffb" y="388.8"/>
      </g>
     </g>
     <g id="line2d_15">
      <g>
       <use style="stroke:#000000;stroke-width:0.5;" x="429.12" xlink:href="#m5a7d422ac3" y="43.2"/>
      </g>
     </g>
     <g id="text_5">
      <!-- 4000 -->
      <defs>
       <path d="
M58.7344 20.4531
L47.9531 20.4531
L47.9531 0
L38.5781 0
L38.5781 20.4531
L3.76562 20.4531
L3.76562 31.6875
L38.9688 72.7031
L47.9531 72.7031
L47.9531 28.2656
L58.7344 28.2656
z

M38.5781 28.2656
L38.5781 61.0781
L10.4062 28.2656
z
" id="Verdana-34"/>
      </defs>
      <g transform="translate(414.4828125 401.918125)scale(0.12 -0.12)">
       <use xlink:href="#Verdana-34"/>
       <use x="63.57421875" xlink:href="#Verdana-30"/>
       <use x="127.1484375" xlink:href="#Verdana-30"/>
       <use x="190.72265625" xlink:href="#Verdana-30"/>
      </g>
     </g>
    </g>
    <g id="xtick_6">
     <g id="line2d_16">
      <g>
       <use style="stroke:#000000;stroke-width:0.5;" x="518.4" xlink:href="#mc7db9fdffb" y="388.8"/>
      </g>
     </g>
     <g id="line2d_17">
      <g>
       <use style="stroke:#000000;stroke-width:0.5;" x="518.4" xlink:href="#m5a7d422ac3" y="43.2"/>
      </g>
     </g>
     <g id="text_6">
      <!-- 5000 -->
      <defs>
       <path d="
M56.5 23.0938
Q56.5 18.0156 54.6406 13.375
Q52.7812 8.73438 49.5625 5.5625
Q46.0469 2.15625 41.1875 0.3125
Q36.3281 -1.51562 29.9375 -1.51562
Q23.9688 -1.51562 18.4531 -0.265625
Q12.9375 0.984375 9.125 2.73438
L9.125 13.0312
L9.8125 13.0312
Q13.8125 10.5 19.1875 8.71875
Q24.5625 6.9375 29.7344 6.9375
Q33.2031 6.9375 36.4531 7.90625
Q39.7031 8.89062 42.2344 11.3281
Q44.3906 13.4219 45.4844 16.3438
Q46.5781 19.2812 46.5781 23.1406
Q46.5781 26.9062 45.2812 29.4844
Q44 32.0781 41.7031 33.6406
Q39.1562 35.5 35.5156 36.25
Q31.8906 37.0156 27.3906 37.0156
Q23.0938 37.0156 19.1094 36.4219
Q15.1406 35.8438 12.25 35.25
L12.25 72.7031
L56 72.7031
L56 64.1562
L21.6875 64.1562
L21.6875 44.8281
Q23.7812 45.0156 25.9688 45.1094
Q28.1719 45.2188 29.7812 45.2188
Q35.6875 45.2188 40.125 44.2188
Q44.5781 43.2188 48.2969 40.6719
Q52.2031 37.9844 54.3438 33.7344
Q56.5 29.5 56.5 23.0938" id="Verdana-35"/>
      </defs>
      <g transform="translate(504.084375 401.918125)scale(0.12 -0.12)">
       <use xlink:href="#Verdana-35"/>
       <use x="63.57421875" xlink:href="#Verdana-30"/>
       <use x="127.1484375" xlink:href="#Verdana-30"/>
       <use x="190.72265625" xlink:href="#Verdana-30"/>
      </g>
     </g>
    </g>
    <g id="text_7">
     <!-- Objective function exectuions -->
     <defs>
      <path d="
M57.0312 27.6875
Q57.0312 20.8438 55.0938 15.375
Q53.1719 9.90625 49.9062 6.20312
Q46.4375 2.34375 42.2812 0.40625
Q38.1406 -1.51562 33.1562 -1.51562
Q28.5156 -1.51562 25.0469 -0.40625
Q21.5781 0.6875 18.2188 2.54688
L17.625 0
L9.03125 0
L9.03125 75.9844
L18.2188 75.9844
L18.2188 48.8281
Q22.0781 52 26.4219 54.0312
Q30.7656 56.0625 36.1875 56.0625
Q45.8438 56.0625 51.4375 48.6406
Q57.0312 41.2188 57.0312 27.6875
M47.5625 27.4375
Q47.5625 37.2031 44.3281 42.25
Q41.1094 47.3125 33.9375 47.3125
Q29.9375 47.3125 25.8281 45.5781
Q21.7344 43.8438 18.2188 41.1094
L18.2188 9.85938
Q22.125 8.10938 24.9219 7.42188
Q27.7344 6.73438 31.2969 6.73438
Q38.9219 6.73438 43.2344 11.7344
Q47.5625 16.75 47.5625 27.4375" id="Verdana-62"/>
      <path d="
M56.2031 54.5469
L34.125 0
L24.9062 0
L2.98438 54.5469
L12.9375 54.5469
L29.8281 11.1406
L46.5781 54.5469
z
" id="Verdana-76"/>
      <path d="
M56.25 0
L44.6719 0
L29.2031 20.9531
L13.625 0
L2.9375 0
L24.2188 27.2031
L3.125 54.5469
L14.7031 54.5469
L30.0781 33.9375
L45.5156 54.5469
L56.25 54.5469
L34.8125 27.6875
z
" id="Verdana-78"/>
      <path d="
M54.6875 26.3125
L14.5 26.3125
Q14.5 21.2969 16.0156 17.5469
Q17.5312 13.8125 20.1719 11.4219
Q22.7031 9.07812 26.1875 7.90625
Q29.6875 6.73438 33.8906 6.73438
Q39.4531 6.73438 45.0938 8.95312
Q50.7344 11.1875 53.125 13.3281
L53.6094 13.3281
L53.6094 3.32812
Q48.9688 1.375 44.1406 0.046875
Q39.3125 -1.26562 33.9844 -1.26562
Q20.4062 -1.26562 12.7812 6.07812
Q5.17188 13.4219 5.17188 26.9531
Q5.17188 40.3281 12.4688 48.1875
Q19.7812 56.0625 31.6875 56.0625
Q42.7188 56.0625 48.7031 49.6094
Q54.6875 43.1719 54.6875 31.2969
z

M45.75 33.3438
Q45.7031 40.5781 42.1094 44.5312
Q38.5312 48.4844 31.2031 48.4844
Q23.8281 48.4844 19.4531 44.1406
Q15.0938 39.7969 14.5 33.3438
z
" id="Verdana-65"/>
      <path d="
M49.3594 3.42188
Q44.7812 1.21875 40.6562 0
Q36.5312 -1.21875 31.8906 -1.21875
Q25.9844 -1.21875 21.0469 0.515625
Q16.1094 2.25 12.5938 5.76562
Q9.03125 9.28125 7.07812 14.6406
Q5.125 20.0156 5.125 27.2031
Q5.125 40.5781 12.4688 48.1875
Q19.8281 55.8125 31.8906 55.8125
Q36.5781 55.8125 41.0938 54.4844
Q45.6094 53.1719 49.3594 51.2656
L49.3594 41.0625
L48.875 41.0625
Q44.6719 44.3438 40.2031 46.0938
Q35.75 47.8594 31.5 47.8594
Q23.6875 47.8594 19.1719 42.6094
Q14.6562 37.3594 14.6562 27.2031
Q14.6562 17.3281 19.0625 12.0312
Q23.4844 6.73438 31.5 6.73438
Q34.2812 6.73438 37.1562 7.46875
Q40.0469 8.20312 42.3281 9.375
Q44.3438 10.4062 46.0938 11.5469
Q47.8594 12.7031 48.875 13.5312
L49.3594 13.5312
z
" id="Verdana-63"/>
      <path d="
M26.0312 63.6719
L15.6719 63.6719
L15.6719 73.1875
L26.0312 73.1875
z

M25.4375 -1.3125
Q25.4375 -10.8906 20.5469 -15.7656
Q15.6719 -20.6562 7.46875 -20.6562
Q5.51562 -20.6562 2.3125 -20.2656
Q-0.875 -19.875 -3.03125 -19.2812
L-3.03125 -10.5469
L-2.54688 -10.5469
Q-1.17188 -11.0781 1.14062 -11.7656
Q3.46875 -12.4531 5.67188 -12.4531
Q9.1875 -12.4531 11.3281 -11.4688
Q13.4844 -10.5 14.5469 -8.54688
Q15.625 -6.59375 15.9375 -3.82812
Q16.2656 -1.07812 16.2656 2.875
L16.2656 46.8281
L4.89062 46.8281
L4.89062 54.5469
L25.4375 54.5469
z
" id="Verdana-6a"/>
      <path d="
M18.8906 63.6719
L8.54688 63.6719
L8.54688 73.1875
L18.8906 73.1875
z

M18.3125 0
L9.125 0
L9.125 54.5469
L18.3125 54.5469
z
" id="Verdana-69"/>
      <path d="
M54.6406 0
L45.4531 0
L45.4531 31.0625
Q45.4531 34.8125 45.0156 38.1094
Q44.5781 41.4062 43.4062 43.2656
Q42.1875 45.3125 39.8906 46.3125
Q37.5938 47.3125 33.9375 47.3125
Q30.1719 47.3125 26.0625 45.4531
Q21.9688 43.6094 18.2188 40.7188
L18.2188 0
L9.03125 0
L9.03125 54.5469
L18.2188 54.5469
L18.2188 48.4844
Q22.5156 52.0469 27.0938 54.0469
Q31.6875 56.0625 36.5312 56.0625
Q45.3594 56.0625 50 50.7344
Q54.6406 45.4062 54.6406 35.4062
z
" id="Verdana-6e"/>
      <path d="
M48 15.7188
Q48 8.25 41.8125 3.46875
Q35.6406 -1.3125 24.9531 -1.3125
Q18.8906 -1.3125 13.8438 0.125
Q8.79688 1.5625 5.375 3.26562
L5.375 13.5781
L5.85938 13.5781
Q10.2031 10.2969 15.5156 8.375
Q20.8438 6.45312 25.7344 6.45312
Q31.7812 6.45312 35.2031 8.40625
Q38.625 10.3594 38.625 14.5469
Q38.625 17.7812 36.7656 19.4375
Q34.9062 21.0938 29.6406 22.2656
Q27.6875 22.7031 24.5312 23.2812
Q21.3906 23.875 18.7969 24.5625
Q11.625 26.4688 8.60938 30.1562
Q5.60938 33.8438 5.60938 39.2031
Q5.60938 42.5781 7 45.5469
Q8.40625 48.5312 11.2344 50.875
Q13.9688 53.1719 18.1875 54.5156
Q22.4062 55.8594 27.6406 55.8594
Q32.5156 55.8594 37.5156 54.6562
Q42.5312 53.4688 45.8438 51.7656
L45.8438 41.9375
L45.3594 41.9375
Q41.8438 44.5312 36.8125 46.3125
Q31.7812 48.0938 26.9531 48.0938
Q21.9219 48.0938 18.4531 46.1562
Q14.9844 44.2344 14.9844 40.4375
Q14.9844 37.0625 17.0938 35.3594
Q19.1406 33.6406 23.7344 32.5625
Q26.2656 31.9844 29.4062 31.3906
Q32.5625 30.8125 34.6719 30.3281
Q41.0625 28.8594 44.5312 25.2969
Q48 21.6875 48 15.7188" id="Verdana-73"/>
      <path d="
M38.375 67.0938
L37.8906 67.0938
Q36.375 67.5312 33.9375 67.9844
Q31.5 68.4531 29.6406 68.4531
Q23.7344 68.4531 21.0625 65.8438
Q18.4062 63.2344 18.4062 56.3906
L18.4062 54.5469
L34.9688 54.5469
L34.9688 46.8281
L18.7031 46.8281
L18.7031 0
L9.51562 0
L9.51562 46.8281
L3.32812 46.8281
L3.32812 54.5469
L9.51562 54.5469
L9.51562 56.3438
Q9.51562 66.0625 14.3438 71.2656
Q19.1875 76.4688 28.3281 76.4688
Q31.3906 76.4688 33.8594 76.1719
Q36.3281 75.875 38.375 75.4844
z
" id="Verdana-66"/>
      <path id="Verdana-20"/>
      <path d="
M63.9688 64.3594
Q68.4062 59.4688 70.7656 52.3906
Q73.1406 45.3125 73.1406 36.3281
Q73.1406 27.3438 70.7188 20.2344
Q68.3125 13.1406 63.9688 8.40625
Q59.4688 3.46875 53.3438 0.96875
Q47.2188 -1.51562 39.3594 -1.51562
Q31.6875 -1.51562 25.4062 1.01562
Q19.1406 3.5625 14.75 8.40625
Q10.3594 13.2344 7.98438 20.2656
Q5.60938 27.2969 5.60938 36.3281
Q5.60938 45.2188 7.95312 52.2656
Q10.2969 59.3281 14.7969 64.3594
Q19.0938 69.1406 25.4688 71.6719
Q31.8438 74.2188 39.3594 74.2188
Q47.1719 74.2188 53.3906 71.6562
Q59.625 69.0938 63.9688 64.3594
M63.0938 36.3281
Q63.0938 50.4844 56.7344 58.1719
Q50.3906 65.875 39.4062 65.875
Q28.3281 65.875 22 58.1719
Q15.6719 50.4844 15.6719 36.3281
Q15.6719 22.0156 22.1094 14.4219
Q28.5625 6.84375 39.4062 6.84375
Q50.25 6.84375 56.6719 14.4219
Q63.0938 22.0156 63.0938 36.3281" id="Verdana-4f"/>
      <path d="
M55.5156 27.25
Q55.5156 13.9219 48.6719 6.20312
Q41.8438 -1.51562 30.375 -1.51562
Q18.7969 -1.51562 11.9844 6.20312
Q5.17188 13.9219 5.17188 27.25
Q5.17188 40.5781 11.9844 48.3125
Q18.7969 56.0625 30.375 56.0625
Q41.8438 56.0625 48.6719 48.3125
Q55.5156 40.5781 55.5156 27.25
M46.0469 27.25
Q46.0469 37.8438 41.8906 42.9844
Q37.75 48.1406 30.375 48.1406
Q22.9062 48.1406 18.7812 42.9844
Q14.6562 37.8438 14.6562 27.25
Q14.6562 17 18.7969 11.6875
Q22.9531 6.39062 30.375 6.39062
Q37.7031 6.39062 41.875 11.6406
Q46.0469 16.8906 46.0469 27.25" id="Verdana-6f"/>
      <path d="
M37.3594 0.484375
Q34.7656 -0.203125 31.7031 -0.640625
Q28.6562 -1.07812 26.2656 -1.07812
Q17.9219 -1.07812 13.5781 3.40625
Q9.23438 7.90625 9.23438 17.8281
L9.23438 46.8281
L3.03125 46.8281
L3.03125 54.5469
L9.23438 54.5469
L9.23438 70.2188
L18.4062 70.2188
L18.4062 54.5469
L37.3594 54.5469
L37.3594 46.8281
L18.4062 46.8281
L18.4062 21.9688
Q18.4062 17.6719 18.5938 15.25
Q18.7969 12.8438 19.9688 10.75
Q21.0469 8.79688 22.9219 7.89062
Q24.8125 6.98438 28.6562 6.98438
Q30.9062 6.98438 33.3438 7.64062
Q35.7969 8.29688 36.8594 8.73438
L37.3594 8.73438
z
" id="Verdana-74"/>
      <path d="
M54.25 0
L45.0625 0
L45.0625 6.0625
Q40.4375 2.39062 36.1875 0.4375
Q31.9375 -1.51562 26.8125 -1.51562
Q18.2188 -1.51562 13.4219 3.73438
Q8.64062 8.98438 8.64062 19.1406
L8.64062 54.5469
L17.8281 54.5469
L17.8281 23.4844
Q17.8281 19.3438 18.2188 16.375
Q18.6094 13.4219 19.875 11.3281
Q21.1875 9.1875 23.2812 8.20312
Q25.3906 7.23438 29.3906 7.23438
Q32.9531 7.23438 37.1719 9.07812
Q41.4062 10.9375 45.0625 13.8125
L45.0625 54.5469
L54.25 54.5469
z
" id="Verdana-75"/>
     </defs>
     <g transform="translate(206.5078125 418.509375)scale(0.12 -0.12)">
      <use xlink:href="#Verdana-4f"/>
      <use x="78.7109375" xlink:href="#Verdana-62"/>
      <use x="141.015625" xlink:href="#Verdana-6a"/>
      <use x="175.439453125" xlink:href="#Verdana-65"/>
      <use x="235.009765625" xlink:href="#Verdana-63"/>
      <use x="287.109375" xlink:href="#Verdana-74"/>
      <use x="326.513671875" xlink:href="#Verdana-69"/>
      <use x="353.955078125" xlink:href="#Verdana-76"/>
      <use x="412.259765625" xlink:href="#Verdana-65"/>
      <use x="471.830078125" xlink:href="#Verdana-20"/>
      <use x="506.986328125" xlink:href="#Verdana-66"/>
      <use x="542.142578125" xlink:href="#Verdana-75"/>
      <use x="605.423828125" xlink:href="#Verdana-6e"/>
      <use x="668.705078125" xlink:href="#Verdana-63"/>
      <use x="720.8046875" xlink:href="#Verdana-74"/>
      <use x="760.208984375" xlink:href="#Verdana-69"/>
      <use x="787.650390625" xlink:href="#Verdana-6f"/>
      <use x="848.34375" xlink:href="#Verdana-6e"/>
      <use x="911.625" xlink:href="#Verdana-20"/>
      <use x="946.78125" xlink:href="#Verdana-65"/>
      <use x="1006.3515625" xlink:href="#Verdana-78"/>
      <use x="1064.40625" xlink:href="#Verdana-65"/>
      <use x="1123.9765625" xlink:href="#Verdana-63"/>
      <use x="1176.076171875" xlink:href="#Verdana-74"/>
      <use x="1215.48046875" xlink:href="#Verdana-75"/>
      <use x="1278.76171875" xlink:href="#Verdana-69"/>
      <use x="1306.203125" xlink:href="#Verdana-6f"/>
      <use x="1366.896484375" xlink:href="#Verdana-6e"/>
      <use x="1430.177734375" xlink:href="#Verdana-73"/>
     </g>
    </g>
   </g>
   <g id="matplotlib.axis_2">
    <g id="ytick_1">
     <g id="line2d_18">
      <defs>
       <path d="
M0 0
L4 0" id="md7965d1ba0" style="stroke:#000000;stroke-width:0.5;"/>
      </defs>
      <g>
       <use style="stroke:#000000;stroke-width:0.5;" x="72.0" xlink:href="#md7965d1ba0" y="388.8"/>
      </g>
     </g>
     <g id="line2d_19">
      <defs>
       <path d="
M0 0
L-4 0" id="md9a1c1a7cd" style="stroke:#000000;stroke-width:0.5;"/>
      </defs>
      <g>
       <use style="stroke:#000000;stroke-width:0.5;" x="518.4" xlink:href="#md9a1c1a7cd" y="388.8"/>
      </g>
     </g>
     <g id="text_8">
      <!-- 10 -->
      <g transform="translate(55.161875 392.1515625)scale(0.12 -0.12)">
       <use xlink:href="#Verdana-31"/>
       <use x="63.57421875" xlink:href="#Verdana-30"/>
      </g>
     </g>
    </g>
    <g id="ytick_2">
     <g id="line2d_20">
      <g>
       <use style="stroke:#000000;stroke-width:0.5;" x="72.0" xlink:href="#md7965d1ba0" y="345.6"/>
      </g>
     </g>
     <g id="line2d_21">
      <g>
       <use style="stroke:#000000;stroke-width:0.5;" x="518.4" xlink:href="#md9a1c1a7cd" y="345.6"/>
      </g>
     </g>
     <g id="text_9">
      <!-- 15 -->
      <g transform="translate(55.22 348.9515625)scale(0.12 -0.12)">
       <use xlink:href="#Verdana-31"/>
       <use x="63.57421875" xlink:href="#Verdana-35"/>
      </g>
     </g>
    </g>
    <g id="ytick_3">
     <g id="line2d_22">
      <g>
       <use style="stroke:#000000;stroke-width:0.5;" x="72.0" xlink:href="#md7965d1ba0" y="302.4"/>
      </g>
     </g>
     <g id="line2d_23">
      <g>
       <use style="stroke:#000000;stroke-width:0.5;" x="518.4" xlink:href="#md9a1c1a7cd" y="302.4"/>
      </g>
     </g>
     <g id="text_10">
      <!-- 20 -->
      <g transform="translate(54.475625 305.7515625)scale(0.12 -0.12)">
       <use xlink:href="#Verdana-32"/>
       <use x="63.57421875" xlink:href="#Verdana-30"/>
      </g>
     </g>
    </g>
    <g id="ytick_4">
     <g id="line2d_24">
      <g>
       <use style="stroke:#000000;stroke-width:0.5;" x="72.0" xlink:href="#md7965d1ba0" y="259.2"/>
      </g>
     </g>
     <g id="line2d_25">
      <g>
       <use style="stroke:#000000;stroke-width:0.5;" x="518.4" xlink:href="#md9a1c1a7cd" y="259.2"/>
      </g>
     </g>
     <g id="text_11">
      <!-- 25 -->
      <g transform="translate(54.53375 262.5515625)scale(0.12 -0.12)">
       <use xlink:href="#Verdana-32"/>
       <use x="63.57421875" xlink:href="#Verdana-35"/>
      </g>
     </g>
    </g>
    <g id="ytick_5">
     <g id="line2d_26">
      <g>
       <use style="stroke:#000000;stroke-width:0.5;" x="72.0" xlink:href="#md7965d1ba0" y="216.0"/>
      </g>
     </g>
     <g id="line2d_27">
      <g>
       <use style="stroke:#000000;stroke-width:0.5;" x="518.4" xlink:href="#md9a1c1a7cd" y="216.0"/>
      </g>
     </g>
     <g id="text_12">
      <!-- 30 -->
      <g transform="translate(54.51125 219.3515625)scale(0.12 -0.12)">
       <use xlink:href="#Verdana-33"/>
       <use x="63.57421875" xlink:href="#Verdana-30"/>
      </g>
     </g>
    </g>
    <g id="ytick_6">
     <g id="line2d_28">
      <g>
       <use style="stroke:#000000;stroke-width:0.5;" x="72.0" xlink:href="#md7965d1ba0" y="172.8"/>
      </g>
     </g>
     <g id="line2d_29">
      <g>
       <use style="stroke:#000000;stroke-width:0.5;" x="518.4" xlink:href="#md9a1c1a7cd" y="172.8"/>
      </g>
     </g>
     <g id="text_13">
      <!-- 35 -->
      <g transform="translate(54.569375 176.1515625)scale(0.12 -0.12)">
       <use xlink:href="#Verdana-33"/>
       <use x="63.57421875" xlink:href="#Verdana-35"/>
      </g>
     </g>
    </g>
    <g id="ytick_7">
     <g id="line2d_30">
      <g>
       <use style="stroke:#000000;stroke-width:0.5;" x="72.0" xlink:href="#md7965d1ba0" y="129.6"/>
      </g>
     </g>
     <g id="line2d_31">
      <g>
       <use style="stroke:#000000;stroke-width:0.5;" x="518.4" xlink:href="#md9a1c1a7cd" y="129.6"/>
      </g>
     </g>
     <g id="text_14">
      <!-- 40 -->
      <g transform="translate(53.984375 132.9515625)scale(0.12 -0.12)">
       <use xlink:href="#Verdana-34"/>
       <use x="63.57421875" xlink:href="#Verdana-30"/>
      </g>
     </g>
    </g>
    <g id="ytick_8">
     <g id="line2d_32">
      <g>
       <use style="stroke:#000000;stroke-width:0.5;" x="72.0" xlink:href="#md7965d1ba0" y="86.4"/>
      </g>
     </g>
     <g id="line2d_33">
      <g>
       <use style="stroke:#000000;stroke-width:0.5;" x="518.4" xlink:href="#md9a1c1a7cd" y="86.4"/>
      </g>
     </g>
     <g id="text_15">
      <!-- 45 -->
      <g transform="translate(54.0425 89.7515625)scale(0.12 -0.12)">
       <use xlink:href="#Verdana-34"/>
       <use x="63.57421875" xlink:href="#Verdana-35"/>
      </g>
     </g>
    </g>
    <g id="ytick_9">
     <g id="line2d_34">
      <g>
       <use style="stroke:#000000;stroke-width:0.5;" x="72.0" xlink:href="#md7965d1ba0" y="43.2"/>
      </g>
     </g>
     <g id="line2d_35">
      <g>
       <use style="stroke:#000000;stroke-width:0.5;" x="518.4" xlink:href="#md9a1c1a7cd" y="43.2"/>
      </g>
     </g>
     <g id="text_16">
      <!-- 50 -->
      <g transform="translate(54.6275 46.5515625)scale(0.12 -0.12)">
       <use xlink:href="#Verdana-35"/>
       <use x="63.57421875" xlink:href="#Verdana-30"/>
      </g>
     </g>
    </g>
    <g id="text_17">
     <!-- Absolute Min -->
     <defs>
      <path d="
M18.3125 0
L9.125 0
L9.125 75.9844
L18.3125 75.9844
z
" id="Verdana-6c"/>
      <path d="
M74.5156 0
L64.8438 0
L64.8438 62.6406
L44.625 20.0156
L38.875 20.0156
L18.7969 62.6406
L18.7969 0
L9.76562 0
L9.76562 72.7031
L22.9531 72.7031
L42.3281 32.2344
L61.0781 72.7031
L74.5156 72.7031
z
" id="Verdana-4d"/>
      <path d="
M67.0938 0
L56.7812 0
L49.6562 20.2656
L18.2188 20.2656
L11.0781 0
L1.26562 0
L27.7344 72.7031
L40.625 72.7031
z

M46.6875 28.5625
L33.9375 64.2656
L21.1406 28.5625
z
" id="Verdana-41"/>
     </defs>
     <g transform="translate(46.569375 254.0803125)rotate(-90.0)scale(0.12 -0.12)">
      <use xlink:href="#Verdana-41"/>
      <use x="68.359375" xlink:href="#Verdana-62"/>
      <use x="130.6640625" xlink:href="#Verdana-73"/>
      <use x="182.763671875" xlink:href="#Verdana-6f"/>
      <use x="243.45703125" xlink:href="#Verdana-6c"/>
      <use x="270.8984375" xlink:href="#Verdana-75"/>
      <use x="334.1796875" xlink:href="#Verdana-74"/>
      <use x="373.583984375" xlink:href="#Verdana-65"/>
      <use x="433.154296875" xlink:href="#Verdana-20"/>
      <use x="468.310546875" xlink:href="#Verdana-4d"/>
      <use x="552.587890625" xlink:href="#Verdana-69"/>
      <use x="580.029296875" xlink:href="#Verdana-6e"/>
     </g>
    </g>
   </g>
   <g id="patch_3">
    <path d="
M72 43.2
L518.4 43.2" style="fill:none;stroke:#000000;"/>
   </g>
   <g id="patch_4">
    <path d="
M72 388.8
L72 43.2" style="fill:none;stroke:#000000;"/>
   </g>
   <g id="patch_5">
    <path d="
M518.4 388.8
L518.4 43.2" style="fill:none;stroke:#000000;"/>
   </g>
   <g id="patch_6">
    <path d="
M72 388.8
L518.4 388.8" style="fill:none;stroke:#000000;"/>
   </g>
   <g id="text_18">
    <!-- SineEnvelope Absolute Min -->
    <defs>
     <path d="
M57.0312 27.9375
Q57.0312 21.2969 55.125 15.7969
Q53.2188 10.2969 49.75 6.5
Q46.5312 2.875 42.1562 0.890625
Q37.7969 -1.07812 32.9062 -1.07812
Q28.6562 -1.07812 25.2188 -0.140625
Q21.7812 0.78125 18.2188 2.73438
L18.2188 -20.125
L9.03125 -20.125
L9.03125 54.5469
L18.2188 54.5469
L18.2188 48.8281
Q21.875 51.9062 26.4375 53.9844
Q31 56.0625 36.1875 56.0625
Q46.0469 56.0625 51.5312 48.6094
Q57.0312 41.1562 57.0312 27.9375
M47.5625 27.6875
Q47.5625 37.5469 44.1875 42.4219
Q40.8281 47.3125 33.8438 47.3125
Q29.8906 47.3125 25.875 45.5938
Q21.875 43.8906 18.2188 41.1094
L18.2188 10.2031
Q22.125 8.45312 24.9219 7.8125
Q27.7344 7.17188 31.2969 7.17188
Q38.9688 7.17188 43.2656 12.3438
Q47.5625 17.5312 47.5625 27.6875" id="Verdana-70"/>
     <path d="
M57.6719 0
L9.76562 0
L9.76562 72.7031
L57.6719 72.7031
L57.6719 64.1094
L19.4375 64.1094
L19.4375 44.1875
L57.6719 44.1875
L57.6719 35.5938
L19.4375 35.5938
L19.4375 8.59375
L57.6719 8.59375
z
" id="Verdana-45"/>
     <path d="
M62.5938 20.75
Q62.5938 16.5 60.6094 12.3438
Q58.6406 8.20312 55.0781 5.32812
Q51.1719 2.20312 45.9688 0.4375
Q40.7656 -1.3125 33.4531 -1.3125
Q25.5938 -1.3125 19.3125 0.140625
Q13.0312 1.60938 6.54688 4.5
L6.54688 16.6094
L7.23438 16.6094
Q12.75 12.0156 19.9688 9.51562
Q27.2031 7.03125 33.5469 7.03125
Q42.5312 7.03125 47.5312 10.3906
Q52.5469 13.7656 52.5469 19.3906
Q52.5469 24.2188 50.1719 26.5156
Q47.7969 28.8125 42.9688 30.0781
Q39.3125 31.0625 35.0312 31.6875
Q30.7656 32.3281 25.9844 33.2969
Q16.3125 35.3594 11.6406 40.3125
Q6.98438 45.2656 6.98438 53.2188
Q6.98438 62.3594 14.6875 68.1875
Q22.4062 74.0312 34.2812 74.0312
Q41.9375 74.0312 48.3281 72.5625
Q54.7344 71.0938 59.6719 68.9531
L59.6719 57.5156
L58.9844 57.5156
Q54.8281 61.0312 48.0625 63.3438
Q41.3125 65.6719 34.2344 65.6719
Q26.4688 65.6719 21.75 62.4531
Q17.0469 59.2344 17.0469 54.1562
Q17.0469 49.6094 19.3906 47.0156
Q21.7344 44.4375 27.6406 43.0625
Q30.7656 42.3906 36.5156 41.4062
Q42.2812 40.4375 46.2969 39.4062
Q54.3906 37.25 58.4844 32.9062
Q62.5938 28.5625 62.5938 20.75" id="Verdana-53"/>
    </defs>
    <g transform="translate(198.58275 38.2)scale(0.144 -0.144)">
     <use xlink:href="#Verdana-53"/>
     <use x="68.359375" xlink:href="#Verdana-69"/>
     <use x="95.80078125" xlink:href="#Verdana-6e"/>
     <use x="159.08203125" xlink:href="#Verdana-65"/>
     <use x="218.65234375" xlink:href="#Verdana-45"/>
     <use x="281.884765625" xlink:href="#Verdana-6e"/>
     <use x="344.166015625" xlink:href="#Verdana-76"/>
     <use x="402.470703125" xlink:href="#Verdana-65"/>
     <use x="462.041015625" xlink:href="#Verdana-6c"/>
     <use x="489.482421875" xlink:href="#Verdana-6f"/>
     <use x="550.17578125" xlink:href="#Verdana-70"/>
     <use x="612.48046875" xlink:href="#Verdana-65"/>
     <use x="672.05078125" xlink:href="#Verdana-20"/>
     <use x="707.20703125" xlink:href="#Verdana-41"/>
     <use x="775.56640625" xlink:href="#Verdana-62"/>
     <use x="837.87109375" xlink:href="#Verdana-73"/>
     <use x="889.970703125" xlink:href="#Verdana-6f"/>
     <use x="950.6640625" xlink:href="#Verdana-6c"/>
     <use x="978.10546875" xlink:href="#Verdana-75"/>
     <use x="1041.38671875" xlink:href="#Verdana-74"/>
     <use x="1080.791015625" xlink:href="#Verdana-65"/>
     <use x="1140.361328125" xlink:href="#Verdana-20"/>
     <use x="1175.517578125" xlink:href="#Verdana-4d"/>
     <use x="1259.794921875" xlink:href="#Verdana-69"/>
     <use x="1287.236328125" xlink:href="#Verdana-6e"/>
    </g>
   </g>
   <g id="legend_1">
    <g id="patch_7">
     <path d="
M79.2 381.6
L183.22 381.6
L183.22 272.081
L79.2 272.081
L79.2 381.6
z
" style="fill:#ffffff;stroke:#000000;"/>
    </g>
    <g id="line2d_36">
     <path d="
M89.28 283.743
L109.44 283.743" style="fill:none;stroke:#0000ff;stroke-dasharray:6.000000,2.000000;stroke-dashoffset:0.0;"/>
    </g>
    <g id="line2d_37"/>
    <g id="text_19">
     <!-- AMPGO -->
     <defs>
      <path d="
M57.3281 50.7344
Q57.3281 45.9062 55.6406 41.7656
Q53.9531 37.6406 50.9219 34.625
Q47.1719 30.8594 42.0469 28.9688
Q36.9219 27.0938 29.1094 27.0938
L19.4375 27.0938
L19.4375 0
L9.76562 0
L9.76562 72.7031
L29.5 72.7031
Q36.0312 72.7031 40.5781 71.6094
Q45.125 70.5156 48.6406 68.1719
Q52.7812 65.375 55.0469 61.2188
Q57.3281 57.0781 57.3281 50.7344
M47.2656 50.4844
Q47.2656 54.25 45.9375 57.0312
Q44.625 59.8125 41.9375 61.5781
Q39.5938 63.0938 36.5938 63.75
Q33.5938 64.4062 29 64.4062
L19.4375 64.4062
L19.4375 35.3594
L27.5938 35.3594
Q33.4531 35.3594 37.1094 36.4062
Q40.7656 37.4531 43.0625 39.75
Q45.3594 42.0938 46.3125 44.6719
Q47.2656 47.2656 47.2656 50.4844" id="Verdana-50"/>
      <path d="
M70.4062 5.375
Q64.4531 2.64062 57.3906 0.609375
Q50.3438 -1.42188 43.75 -1.42188
Q35.25 -1.42188 28.1719 0.921875
Q21.0938 3.26562 16.1094 7.95312
Q11.0781 12.7031 8.34375 19.7969
Q5.60938 26.9062 5.60938 36.4219
Q5.60938 53.8594 15.7969 63.9375
Q25.9844 74.0312 43.75 74.0312
Q49.9531 74.0312 56.4219 72.5312
Q62.8906 71.0469 70.3594 67.4844
L70.3594 56
L69.4844 56
Q67.9688 57.1719 65.0781 59.0781
Q62.2031 60.9844 59.4219 62.25
Q56.0625 63.7656 51.7812 64.7656
Q47.5156 65.7656 42.0938 65.7656
Q29.8906 65.7656 22.7812 57.9219
Q15.6719 50.0938 15.6719 36.7188
Q15.6719 22.6094 23.0938 14.7656
Q30.5156 6.9375 43.3125 6.9375
Q48 6.9375 52.6562 7.85938
Q57.3281 8.79688 60.8438 10.25
L60.8438 28.0781
L41.3594 28.0781
L41.3594 36.5781
L70.4062 36.5781
z
" id="Verdana-47"/>
     </defs>
     <g transform="translate(125.28 288.783)scale(0.144 -0.144)">
      <use xlink:href="#Verdana-41"/>
      <use x="68.359375" xlink:href="#Verdana-4d"/>
      <use x="152.63671875" xlink:href="#Verdana-50"/>
      <use x="212.939453125" xlink:href="#Verdana-47"/>
      <use x="290.478515625" xlink:href="#Verdana-4f"/>
     </g>
    </g>
    <g id="line2d_38">
     <path d="
M89.28 304.783
L109.44 304.783" style="fill:none;stroke:#008000;stroke-dasharray:1.000000,1.000000;stroke-dashoffset:0.0;"/>
    </g>
    <g id="line2d_39"/>
    <g id="text_20">
     <!-- Anneal -->
     <defs>
      <path d="
M51.4219 0
L42.2812 0
L42.2812 5.8125
Q41.0625 4.98438 38.9844 3.48438
Q36.9219 2 34.9688 1.125
Q32.6719 0 29.6875 -0.75
Q26.7031 -1.51562 22.7031 -1.51562
Q15.3281 -1.51562 10.2031 3.35938
Q5.07812 8.25 5.07812 15.8281
Q5.07812 22.0156 7.73438 25.8438
Q10.4062 29.6875 15.3281 31.8906
Q20.3125 34.0781 27.2969 34.8594
Q34.2812 35.6406 42.2812 36.0312
L42.2812 37.4531
Q42.2812 40.5781 41.1875 42.625
Q40.0938 44.6719 38.0312 45.8438
Q36.0781 46.9688 33.3438 47.3594
Q30.6094 47.75 27.6406 47.75
Q24.0312 47.75 19.5781 46.7969
Q15.1406 45.8438 10.4062 44.0469
L9.90625 44.0469
L9.90625 53.375
Q12.5938 54.1094 17.6719 54.9844
Q22.75 55.8594 27.6875 55.8594
Q33.4531 55.8594 37.7188 54.9062
Q42 53.9531 45.125 51.6562
Q48.1875 49.4219 49.7969 45.8438
Q51.4219 42.2812 51.4219 37.0156
z

M42.2812 13.4219
L42.2812 28.6094
Q38.0938 28.375 32.3906 27.875
Q26.7031 27.3906 23.3906 26.4688
Q19.4375 25.3438 16.9844 22.9688
Q14.5469 20.6094 14.5469 16.4531
Q14.5469 11.7656 17.375 9.39062
Q20.2188 7.03125 26.0312 7.03125
Q30.8594 7.03125 34.8594 8.90625
Q38.875 10.7969 42.2812 13.4219" id="Verdana-61"/>
     </defs>
     <g transform="translate(125.28 309.82275)scale(0.144 -0.144)">
      <use xlink:href="#Verdana-41"/>
      <use x="68.359375" xlink:href="#Verdana-6e"/>
      <use x="131.640625" xlink:href="#Verdana-6e"/>
      <use x="194.921875" xlink:href="#Verdana-65"/>
      <use x="254.4921875" xlink:href="#Verdana-61"/>
      <use x="314.55078125" xlink:href="#Verdana-6c"/>
     </g>
    </g>
    <g id="line2d_40">
     <path d="
M89.28 325.822
L109.44 325.822" style="fill:none;stroke:#ff0000;stroke-dasharray:3.000000,6.000000;stroke-dashoffset:0.0;"/>
    </g>
    <g id="line2d_41"/>
    <g id="text_21">
     <!-- BSA -->
     <defs>
      <path d="
M64.5938 22.3594
Q64.5938 16.9375 62.5469 12.7812
Q60.5 8.64062 57.0312 5.95312
Q52.9375 2.73438 48.0156 1.35938
Q43.1094 0 35.5469 0
L9.76562 0
L9.76562 72.7031
L31.2969 72.7031
Q39.2656 72.7031 43.2188 72.1094
Q47.1719 71.5312 50.7812 69.6719
Q54.7812 67.5781 56.5938 64.2812
Q58.4062 60.9844 58.4062 56.3906
Q58.4062 51.2188 55.7656 47.5781
Q53.125 43.9531 48.7344 41.75
L48.7344 41.3594
Q56.1094 39.8438 60.3438 34.8906
Q64.5938 29.9375 64.5938 22.3594
M48.3438 55.125
Q48.3438 57.7656 47.4531 59.5625
Q46.5781 61.375 44.625 62.5
Q42.3281 63.8125 39.0625 64.125
Q35.7969 64.4531 30.9531 64.4531
L19.4375 64.4531
L19.4375 43.4531
L31.9375 43.4531
Q36.4688 43.4531 39.1562 43.9219
Q41.8438 44.3906 44.1406 45.8438
Q46.4375 47.3125 47.3906 49.625
Q48.3438 51.9531 48.3438 55.125
M54.5469 21.9688
Q54.5469 26.375 53.2188 28.9531
Q51.9062 31.5469 48.4375 33.3438
Q46.0938 34.5781 42.75 34.9375
Q39.4062 35.2969 34.625 35.2969
L19.4375 35.2969
L19.4375 8.25
L32.2344 8.25
Q38.5781 8.25 42.625 8.90625
Q46.6875 9.57812 49.2656 11.3281
Q52 13.2344 53.2656 15.6719
Q54.5469 18.1094 54.5469 21.9688" id="Verdana-42"/>
     </defs>
     <g transform="translate(125.28 330.8625)scale(0.144 -0.144)">
      <use xlink:href="#Verdana-42"/>
      <use x="68.5546875" xlink:href="#Verdana-53"/>
      <use x="135.9140625" xlink:href="#Verdana-41"/>
     </g>
    </g>
    <g id="line2d_42">
     <path d="
M89.28 346.862
L109.44 346.862" style="fill:none;stroke:#00bfbf;stroke-dasharray:5.000000,1.000000,2.000000,1.000000,5.000000,1.000000;stroke-dashoffset:0.0;"/>
    </g>
    <g id="line2d_43"/>
    <g id="text_22">
     <!-- Cuckoo -->
     <defs>
      <path d="
M58.5469 0
L46.4375 0
L24.5625 23.875
L18.6094 18.2188
L18.6094 0
L9.42188 0
L9.42188 75.9844
L18.6094 75.9844
L18.6094 27.25
L45.125 54.5469
L56.6875 54.5469
L31.3438 29.3438
z
" id="Verdana-6b"/>
      <path d="
M65.9219 5.28125
Q63.2344 4.10938 61.0625 3.07812
Q58.8906 2.04688 55.375 0.921875
Q52.3906 0 48.8906 -0.65625
Q45.4062 -1.3125 41.2188 -1.3125
Q33.2969 -1.3125 26.8281 0.90625
Q20.3594 3.125 15.5781 7.85938
Q10.8906 12.5 8.25 19.6562
Q5.60938 26.8125 5.60938 36.2812
Q5.60938 45.2656 8.14062 52.3438
Q10.6875 59.4219 15.4844 64.3125
Q20.125 69.0469 26.6875 71.5312
Q33.25 74.0312 41.2656 74.0312
Q47.125 74.0312 52.9531 72.6094
Q58.7969 71.1875 65.9219 67.625
L65.9219 56.1562
L65.1875 56.1562
Q59.1875 61.1875 53.2656 63.4688
Q47.3594 65.7656 40.625 65.7656
Q35.1094 65.7656 30.6875 63.9844
Q26.2656 62.2031 22.7969 58.4531
Q19.4375 54.7812 17.5469 49.1875
Q15.6719 43.6094 15.6719 36.2812
Q15.6719 28.6094 17.75 23.0938
Q19.8281 17.5781 23.0938 14.1094
Q26.5156 10.5 31.0781 8.76562
Q35.6406 7.03125 40.7188 7.03125
Q47.7031 7.03125 53.7969 9.42188
Q59.9062 11.8125 65.2344 16.6094
L65.9219 16.6094
z
" id="Verdana-43"/>
     </defs>
     <g transform="translate(125.28 351.90225)scale(0.144 -0.144)">
      <use xlink:href="#Verdana-43"/>
      <use x="69.82421875" xlink:href="#Verdana-75"/>
      <use x="133.10546875" xlink:href="#Verdana-63"/>
      <use x="185.205078125" xlink:href="#Verdana-6b"/>
      <use x="243.384765625" xlink:href="#Verdana-6f"/>
      <use x="304.078125" xlink:href="#Verdana-6f"/>
     </g>
    </g>
    <g id="line2d_44">
     <path d="
M89.28 367.902
L109.44 367.902" style="fill:none;stroke:#bf00bf;stroke-linecap:square;"/>
    </g>
    <g id="line2d_45"/>
    <g id="text_23">
     <!-- qABC -->
     <defs>
      <path d="
M53.2656 -20.125
L44.0938 -20.125
L44.0938 6.15625
Q39.8438 2.48438 35.6406 0.703125
Q31.4531 -1.07812 26.5625 -1.07812
Q16.8438 -1.07812 11.0625 6.42188
Q5.28125 13.9219 5.28125 27.0938
Q5.28125 34.125 7.29688 39.5156
Q9.32812 44.9219 12.6406 48.5781
Q15.875 52.1562 20.2188 54.1094
Q24.5625 56.0625 29.3906 56.0625
Q33.7969 56.0625 37.1875 55.0781
Q40.5781 54.1094 44.0938 52.2031
L44.6719 54.5469
L53.2656 54.5469
z

M44.0938 13.875
L44.0938 44.7344
Q40.2812 46.4375 37.3438 47.1094
Q34.4219 47.7969 31 47.7969
Q23.0469 47.7969 18.8906 42.4062
Q14.75 37.0156 14.75 27.5469
Q14.75 17.9688 18.0938 12.8125
Q21.4375 7.67188 28.6094 7.67188
Q32.625 7.67188 36.625 9.40625
Q40.625 11.1406 44.0938 13.875" id="Verdana-71"/>
     </defs>
     <g transform="translate(125.28 372.942)scale(0.144 -0.144)">
      <use xlink:href="#Verdana-71"/>
      <use x="62.3046875" xlink:href="#Verdana-41"/>
      <use x="130.6640625" xlink:href="#Verdana-42"/>
      <use x="199.21875" xlink:href="#Verdana-43"/>
     </g>
    </g>
   </g>
  </g>
 </g>
 <defs>
  <clipPath id="p7ff5b81e1d">
   <rect height="345.6" width="446.4" x="72.0" y="43.2"/>
  </clipPath>
 </defs>
</svg>
