<?xml version="1.0" encoding="utf-8" standalone="no"?>
<!DOCTYPE svg PUBLIC "-//W3C//DTD SVG 1.1//EN"
  "http://www.w3.org/Graphics/SVG/1.1/DTD/svg11.dtd">
<!-- Created with matplotlib (http://matplotlib.org/) -->
<svg height="432pt" version="1.1" viewBox="0 0 576 432" width="576pt" xmlns="http://www.w3.org/2000/svg" xmlns:xlink="http://www.w3.org/1999/xlink">
 <defs>
  <style type="text/css">
*{stroke-linecap:butt;stroke-linejoin:round;}
  </style>
 </defs>
 <g id="figure_1">
  <g id="patch_1">
   <path d="
M0 432
L576 432
L576 0
L0 0
z
" style="fill:#ffffff;"/>
  </g>
  <g id="axes_1">
   <g id="patch_2">
    <path d="
M72 388.8
L518.4 388.8
L518.4 43.2
L72 43.2
z
" style="fill:#ffffff;"/>
   </g>
   <g id="line2d_1">
    <path clip-path="url(#p7ff5b81e1d)" d="
M72 388.8
L73.4285 388.8
L73.607 388.321
L73.7856 388.321
L73.9642 387.841
L74.1427 387.841
L74.3213 379.693
L74.4998 379.693
L74.6784 360.519
L74.857 360.519
L75.0355 346.139
L75.2141 346.139
L75.3926 321.214
L75.5712 321.214
L75.7498 292.933
L75.9283 292.933
L76.1069 251.231
L76.2854 251.231
L76.464 214.802
L76.6426 214.802
L76.8211 167.827
L76.9997 167.827
L77.1782 147.216
L77.3568 147.216
L77.5354 131.398
L77.7139 131.398
L77.8925 120.852
L78.071 120.852
L78.2496 115.1
L78.4282 115.1
L78.6067 110.307
L78.7853 110.307
L78.9638 106.472
L79.1424 106.472
L79.321 104.075
L79.4995 104.075
L79.6781 101.679
L79.8566 101.679
L80.0352 99.2821
L80.2138 99.2821
L80.3923 97.8441
L80.5709 97.8441
L80.7494 95.9268
L80.928 95.9268
L81.1066 95.4474
L81.2851 95.4474
L81.4637 94.9681
L81.6422 94.9681
L81.8208 94.4888
L82.7136 94.4888
L82.8922 93.5301
L83.0707 93.5301
L83.2493 93.0508
L402.425 93.0508
L402.604 92.5714
L434.209 92.5714
L434.388 92.0921
L439.566 92.0921
L439.744 91.6128
L453.851 91.6128
L454.029 91.1334
L456.975 91.1334
L457.154 90.6541
L459.386 90.6541
L459.564 90.1748
L474.564 90.1748
L474.742 89.6954
L475.278 89.6954
L475.456 89.2161
L482.777 89.2161
L482.956 88.7368
L488.938 88.7368
L489.116 88.2574
L494.205 88.2574
L494.384 87.7781
L497.241 87.7781
L497.419 87.2988
L500.99 87.2988
L501.169 86.8194
L504.115 86.8194
L504.294 86.3401
L506.704 86.3401
L506.883 85.8607
L509.115 85.8607
L509.293 85.3814
L514.829 85.3814
L515.007 84.9021
L517.596 84.9021
L517.775 84.4227
L518.311 84.4227
L518.311 84.4227" style="fill:none;stroke:#0000ff;stroke-dasharray:6.000000,2.000000;stroke-dashoffset:0.0;"/>
   </g>
   <g id="line2d_2">
    <path clip-path="url(#p7ff5b81e1d)" d="
M72 388.8
L79.0531 388.8
L79.2317 388.11
L80.2138 388.11
L80.5709 386.041
L81.7315 386.041
L82.0886 383.971
L82.6243 383.971
L83.0707 381.212
L83.3386 381.212
L83.6064 379.832
L83.6957 379.832
L83.8742 379.143
L84.0528 379.143
L84.2314 377.763
L84.4992 377.763
L84.767 376.383
L84.9456 376.383
L85.1242 375.693
L85.2134 375.693
L85.392 374.314
L85.4813 374.314
L86.1062 370.175
L86.3741 370.175
L86.8205 367.416
L87.3562 367.416
L87.5347 366.036
L87.8026 366.036
L89.0525 357.068
L89.1418 357.068
L89.6774 352.24
L90.0346 348.101
L90.3917 346.031
L90.481 346.031
L90.7488 343.272
L90.9274 341.202
L91.1059 339.823
L91.463 337.753
L91.5523 337.753
L91.9094 333.614
L92.713 328.096
L92.8022 328.096
L93.0701 326.026
L93.2486 323.957
L93.3379 323.957
L93.5165 321.887
L93.6058 321.887
L93.7843 320.508
L93.9629 318.438
L94.1414 318.438
L94.945 312.92
L95.1235 312.92
L95.3021 310.85
L95.3914 310.16
L95.5699 308.091
L95.927 303.952
L96.0163 303.952
L96.2842 302.572
L96.3734 302.572
L96.6413 301.193
L96.9984 301.193
L97.2662 299.813
L97.3555 299.813
L97.5341 297.744
L97.8019 293.605
L98.159 289.466
L98.2483 289.466
L98.6947 286.017
L98.8733 283.257
L99.1411 280.498
L99.409 277.739
L100.034 272.91
L100.212 269.461
L100.659 265.322
L100.837 263.943
L100.927 263.253
L101.105 259.804
L101.284 259.804
L101.552 257.044
L101.641 257.044
L101.82 255.665
L102.355 252.216
L102.623 252.216
L102.802 251.526
L102.891 251.526
L103.069 250.836
L103.248 250.836
L103.516 249.456
L103.605 249.456
L103.873 248.077
L103.962 248.077
L104.141 245.317
L104.319 245.317
L104.587 241.868
L104.676 241.868
L104.855 239.799
L105.301 234.28
L105.748 234.28
L106.284 230.831
L106.462 230.831
L106.641 230.141
L106.73 230.141
L107.176 227.382
L107.266 227.382
L107.444 225.313
L107.623 223.933
L107.801 223.243
L107.891 223.243
L108.426 219.794
L108.694 219.794
L108.873 218.414
L109.051 217.725
L109.23 217.725
L109.408 217.035
L109.498 217.035
L109.587 216.345
L109.765 213.586
L110.123 213.586
L110.301 212.206
L110.39 212.206
L110.837 209.447
L111.105 209.447
L111.283 207.377
L111.372 207.377
L111.64 203.928
L111.73 203.928
L111.908 203.238
L111.997 203.238
L112.176 201.169
L112.444 201.169
L112.712 199.789
L113.069 199.789
L113.694 195.65
L113.783 195.65
L114.051 194.271
L114.14 194.271
L114.319 193.581
L114.587 193.581
L115.033 190.822
L115.122 190.822
L115.569 188.062
L115.658 188.062
L115.926 185.303
L116.461 181.854
L116.729 181.854
L116.908 179.784
L116.997 179.784
L117.265 178.405
L117.622 178.405
L118.247 174.266
L118.336 174.266
L118.693 172.196
L118.783 172.196
L118.961 171.507
L119.051 171.507
L119.318 170.127
L119.854 170.127
L120.568 165.298
L120.658 165.298
L120.836 164.608
L120.925 164.608
L121.283 162.539
L121.372 162.539
L121.55 160.469
L122.086 160.469
L122.265 159.78
L122.443 159.78
L122.622 158.4
L122.711 158.4
L123.157 155.641
L123.247 155.641
L123.425 154.951
L123.515 154.951
L123.872 152.881
L124.14 152.881
L124.318 152.192
L124.407 152.192
L124.586 151.502
L124.854 151.502
L125.032 150.812
L125.657 150.812
L125.925 149.432
L126.014 149.432
L126.729 144.604
L127.086 144.604
L127.443 142.534
L127.532 142.534
L127.711 141.844
L128.068 141.844
L128.246 140.465
L128.425 139.775
L129.05 139.775
L129.318 138.395
L129.407 138.395
L129.675 137.016
L129.853 137.016
L130.032 136.326
L130.211 136.326
L130.389 135.636
L131.996 135.636
L132.175 134.946
L132.978 134.946
L133.246 132.187
L133.96 132.187
L134.139 131.497
L135.21 131.497
L135.389 130.807
L135.657 130.807
L135.835 128.738
L136.103 127.358
L136.282 127.358
L136.549 125.978
L137.174 125.978
L137.353 125.289
L137.532 125.289
L137.71 123.909
L137.889 123.909
L138.067 123.219
L138.692 123.219
L138.871 122.529
L140.121 122.529
L140.299 121.84
L140.478 121.84
L140.656 121.15
L141.817 121.15
L141.996 120.46
L142.174 120.46
L142.353 119.77
L142.71 119.77
L142.888 118.39
L143.87 118.39
L144.049 117.701
L144.138 117.701
L144.317 117.011
L144.674 117.011
L144.852 116.321
L145.299 116.321
L145.477 115.631
L146.906 115.631
L147.084 114.941
L148.334 114.941
L148.513 114.251
L148.692 114.251
L148.87 113.562
L149.495 113.562
L149.763 112.182
L150.388 112.182
L150.566 111.492
L150.745 111.492
L150.924 110.802
L151.013 110.802
L151.191 110.113
L151.459 110.113
L151.638 109.423
L152.531 109.423
L152.709 108.733
L153.066 108.733
L153.334 107.353
L154.673 107.353
L154.852 106.663
L156.191 106.663
L156.37 105.974
L156.816 105.974
L156.995 105.284
L157.084 105.284
L157.262 104.594
L157.352 104.594
L157.53 103.904
L157.887 103.904
L158.066 102.525
L160.655 102.525
L160.834 101.835
L161.905 101.835
L162.084 101.145
L162.173 101.145
L162.351 100.455
L162.441 100.455
L162.708 99.0754
L163.066 99.0754
L163.244 98.3856
L163.423 98.3856
L163.601 97.6958
L164.673 97.6958
L164.851 96.3162
L165.119 96.3162
L165.298 95.6263
L165.387 95.6263
L165.565 94.9365
L165.833 94.9365
L166.012 94.2467
L166.28 94.2467
L166.458 93.5569
L166.994 93.5569
L167.172 92.8671
L167.797 92.8671
L167.976 92.1772
L168.869 92.1772
L169.137 90.7976
L173.065 90.7976
L173.244 90.1078
L173.333 90.1078
L173.511 89.418
L173.69 89.418
L173.868 88.7281
L175.922 88.7281
L176.1 88.0383
L177.35 88.0383
L177.529 87.3485
L178.422 87.3485
L178.6 86.6587
L179.672 86.6587
L179.85 85.9689
L180.118 85.9689
L180.297 85.279
L180.743 85.279
L181.011 83.8994
L181.1 83.8994
L181.279 83.2096
L182.35 83.2096
L182.529 82.5198
L183.779 82.5198
L183.957 81.8299
L186.636 81.8299
L187.082 79.0707
L187.796 79.0707
L187.975 78.3808
L188.153 78.3808
L188.332 77.691
L189.76 77.691
L189.939 77.0012
L191.01 77.0012
L191.189 76.3114
L192.082 76.3114
L192.26 75.6216
L194.224 75.6216
L194.403 74.9317
L198.153 74.9317
L198.331 74.2419
L199.313 74.2419
L199.492 73.5521
L200.652 73.5521
L200.92 72.1725
L203.152 72.1725
L203.331 71.4826
L203.688 71.4826
L203.867 70.7928
L205.295 70.7928
L205.474 70.103
L212.884 70.103
L213.062 69.4132
L214.937 69.4132
L215.116 68.7234
L215.83 68.7234
L216.009 68.0335
L216.276 68.0335
L216.455 67.3437
L217.616 67.3437
L217.794 65.9641
L221.098 65.9641
L221.276 65.2743
L221.365 65.2743
L221.544 64.5844
L222.437 64.5844
L222.615 63.8946
L224.58 63.8946
L224.758 63.2048
L228.419 63.2048
L228.597 62.515
L229.222 62.515
L229.401 61.8251
L231.097 61.8251
L231.276 61.1353
L231.454 61.1353
L231.633 60.4455
L232.704 60.4455
L232.883 59.7557
L233.061 59.7557
L233.24 59.0659
L234.579 59.0659
L234.757 58.376
L244.846 58.376
L245.025 57.6862
L245.114 57.6862
L245.292 56.9964
L248.328 56.9964
L248.507 56.3066
L249.399 56.3066
L249.578 55.6168
L250.739 55.6168
L250.917 54.9269
L256.006 54.9269
L256.185 54.2371
L259.756 54.2371
L259.934 53.5473
L262.881 53.5473
L263.059 52.8575
L263.506 52.8575
L263.684 52.1677
L265.827 52.1677
L266.005 51.4778
L270.737 51.4778
L270.916 50.788
L272.523 50.788
L272.701 50.0982
L275.201 50.0982
L275.38 49.4084
L276.54 49.4084
L276.719 48.7186
L277.523 48.7186
L277.701 48.0287
L304.574 48.0287
L304.753 47.3389
L317.074 47.3389
L317.252 46.6491
L318.591 46.6491
L318.77 45.9593
L319.306 45.9593
L319.484 45.2695
L325.823 45.2695
L326.002 44.5796
L369.124 44.5796
L369.302 43.8898
L369.749 43.8898
L369.927 43.2
L518.311 43.2
L518.311 43.2" style="fill:none;stroke:#008000;stroke-dasharray:1.000000,1.000000;stroke-dashoffset:0.0;"/>
   </g>
   <g id="line2d_3">
    <path clip-path="url(#p7ff5b81e1d)" d="
M72 388.11
L72.0893 388.8
L72.1786 388.8
L73.1606 388.8
L73.3392 388.11
L73.4285 388.11
L73.607 388.8
L98.784 388.8
L98.9626 388.11
L115.569 388.11
L115.747 387.42
L115.926 387.42
L116.104 386.731
L117.622 386.731
L117.801 386.041
L118.336 386.041
L118.515 385.351
L124.497 385.351
L124.675 384.661
L128.157 384.661
L128.425 383.281
L130.3 383.281
L130.478 382.592
L132.71 382.592
L132.889 381.902
L133.603 381.902
L133.782 381.212
L137.442 381.212
L137.621 380.522
L137.71 380.522
L137.889 379.832
L139.406 379.832
L139.585 379.143
L145.299 379.143
L145.567 377.763
L145.656 377.763
L145.835 377.073
L146.102 377.073
L146.281 376.383
L147.174 376.383
L147.352 375.693
L147.888 375.693
L148.156 374.314
L150.12 374.314
L150.299 373.624
L152.62 373.624
L152.798 372.934
L153.959 372.934
L154.138 371.554
L154.763 371.554
L154.941 370.865
L158.78 370.865
L158.959 370.175
L159.405 370.175
L159.584 368.795
L159.941 368.795
L160.119 368.105
L160.566 368.105
L160.744 367.416
L161.369 367.416
L161.548 366.726
L161.726 366.726
L161.994 365.346
L162.351 365.346
L162.53 364.656
L163.423 364.656
L163.601 363.966
L163.958 363.966
L164.137 363.277
L164.316 363.277
L164.494 362.587
L165.119 362.587
L165.298 361.897
L165.476 361.897
L165.655 361.207
L166.458 361.207
L166.637 359.828
L166.815 359.138
L168.065 359.138
L168.422 357.068
L170.208 357.068
L170.387 356.378
L170.744 356.378
L170.922 355.689
L171.101 355.689
L171.279 354.309
L171.726 354.309
L171.904 353.619
L171.994 353.619
L172.172 352.929
L172.261 352.929
L172.529 351.55
L172.708 351.55
L172.886 350.86
L173.154 350.86
L173.422 349.48
L174.493 349.48
L174.672 348.101
L175.118 348.101
L175.386 346.721
L175.565 346.721
L175.922 344.651
L176.279 344.651
L176.458 343.272
L176.636 343.272
L176.815 342.582
L177.35 342.582
L177.618 341.202
L177.797 341.202
L177.975 340.513
L178.957 340.513
L179.225 339.133
L179.94 339.133
L180.118 338.443
L180.207 338.443
L180.386 337.753
L180.475 337.753
L180.654 337.063
L181.279 337.063
L181.457 336.374
L181.547 336.374
L181.814 334.994
L181.904 334.994
L182.082 334.304
L182.529 334.304
L182.886 332.235
L183.064 332.235
L183.243 331.545
L183.957 331.545
L184.136 330.855
L184.225 330.855
L184.404 329.475
L184.582 329.475
L184.761 327.406
L184.939 327.406
L185.118 326.716
L185.296 326.716
L185.475 325.337
L185.564 325.337
L185.743 324.647
L186.1 324.647
L186.278 323.957
L186.368 323.957
L186.546 323.267
L186.993 323.267
L187.26 321.887
L187.439 321.887
L187.618 321.198
L188.51 321.198
L188.689 320.508
L189.314 320.508
L189.492 319.818
L189.582 319.818
L189.939 317.749
L190.028 317.749
L190.296 316.369
L190.653 316.369
L190.832 315.679
L191.189 315.679
L191.367 314.299
L191.635 314.299
L191.814 313.61
L191.903 313.61
L192.082 312.92
L193.064 312.92
L193.242 310.85
L193.689 310.85
L193.956 309.471
L194.046 309.471
L194.224 308.781
L194.671 308.781
L195.117 306.022
L195.385 306.022
L195.742 303.952
L196.188 303.952
L196.367 303.262
L196.456 303.262
L196.813 301.193
L196.903 301.193
L197.081 300.503
L197.26 300.503
L197.528 299.123
L197.885 299.123
L198.063 298.434
L198.42 298.434
L198.778 296.364
L199.135 296.364
L199.313 295.674
L199.76 295.674
L200.028 294.295
L200.117 294.295
L200.295 292.915
L200.563 291.535
L200.652 291.535
L200.831 290.156
L200.92 290.156
L201.277 285.327
L201.902 285.327
L202.081 284.637
L202.349 284.637
L202.527 283.947
L203.688 283.947
L204.224 280.498
L204.313 280.498
L204.492 279.808
L204.67 279.808
L204.849 279.119
L204.938 279.119
L205.206 277.739
L205.741 277.739
L206.009 276.359
L206.366 276.359
L206.545 275.669
L206.724 275.669
L206.902 274.98
L206.991 274.98
L207.17 274.29
L207.348 274.29
L207.616 272.91
L207.795 272.91
L207.973 270.841
L208.063 270.841
L208.241 270.151
L208.777 270.151
L208.956 269.461
L209.134 269.461
L209.313 268.771
L209.402 268.771
L209.58 268.081
L210.027 268.081
L210.205 267.392
L210.563 267.392
L210.83 264.632
L210.92 264.632
L211.277 262.563
L211.723 262.563
L211.902 261.183
L212.348 261.183
L212.616 259.804
L212.795 259.804
L213.062 258.424
L213.33 258.424
L213.509 255.665
L213.687 255.665
L214.044 253.595
L214.223 253.595
L214.402 252.905
L214.759 252.905
L214.937 252.216
L215.294 252.216
L215.562 250.836
L216.098 250.836
L216.455 248.766
L216.634 248.766
L216.991 246.697
L217.348 246.697
L217.616 245.317
L217.705 245.317
L217.884 243.248
L218.062 243.248
L218.419 241.178
L218.598 241.178
L218.776 240.489
L218.955 240.489
L219.223 239.109
L219.312 239.109
L219.491 237.04
L219.848 237.04
L220.026 236.35
L220.562 236.35
L220.74 235.66
L220.919 235.66
L221.098 234.97
L221.365 234.97
L221.544 234.28
L221.723 234.28
L221.901 233.59
L222.258 233.59
L222.437 232.901
L222.526 232.901
L222.705 232.211
L223.955 232.211
L224.133 231.521
L224.401 231.521
L224.669 230.141
L224.937 230.141
L225.204 227.382
L225.294 227.382
L225.472 226.692
L226.276 226.692
L226.544 223.933
L226.633 223.933
L226.901 222.553
L227.258 222.553
L227.526 221.174
L227.704 221.174
L227.883 220.484
L228.329 220.484
L228.508 219.794
L228.865 219.794
L229.133 218.414
L229.311 218.414
L229.49 217.725
L229.579 217.725
L230.383 212.206
L230.651 212.206
L231.008 210.137
L231.543 210.137
L231.722 209.447
L231.9 209.447
L232.079 208.067
L232.347 206.687
L232.704 206.687
L232.883 205.998
L233.061 205.998
L233.329 204.618
L233.686 204.618
L233.865 203.238
L234.757 203.238
L234.936 202.549
L235.115 202.549
L235.382 201.169
L235.65 201.169
L235.829 200.479
L236.186 200.479
L236.454 199.099
L236.632 199.099
L236.9 197.72
L238.329 197.72
L238.507 197.03
L238.775 197.03
L238.954 196.34
L240.114 196.34
L240.293 194.96
L240.739 194.96
L240.918 194.271
L241.096 194.271
L241.632 190.822
L241.721 190.822
L241.9 190.132
L242.346 190.132
L242.525 189.442
L242.614 189.442
L242.971 187.372
L243.15 187.372
L243.328 186.683
L243.418 186.683
L243.596 184.613
L244.043 184.613
L244.4 182.544
L244.578 182.544
L244.846 181.164
L244.935 181.164
L245.382 178.405
L246.096 178.405
L246.364 177.025
L247.882 177.025
L248.328 174.266
L248.507 174.266
L248.685 172.886
L248.953 172.886
L249.132 171.507
L249.31 171.507
L249.489 170.817
L249.578 170.817
L249.846 169.437
L251.096 169.437
L251.453 167.368
L251.542 167.368
L251.721 166.678
L251.988 166.678
L252.167 165.988
L253.417 165.988
L253.596 165.298
L253.685 165.298
L253.863 164.608
L254.488 164.608
L254.667 163.919
L255.113 163.919
L255.381 162.539
L255.47 162.539
L255.649 161.159
L256.363 161.159
L256.542 159.09
L258.149 159.09
L258.327 158.4
L258.774 158.4
L259.042 157.02
L259.488 157.02
L259.756 155.641
L260.559 155.641
L260.827 154.261
L261.184 154.261
L261.452 151.502
L261.631 151.502
L261.809 150.812
L261.988 150.812
L262.166 150.122
L263.148 150.122
L263.327 149.432
L263.595 149.432
L263.773 148.743
L264.22 148.743
L264.398 148.053
L264.666 148.053
L264.845 147.363
L265.291 147.363
L265.47 146.673
L266.63 146.673
L266.809 145.983
L267.166 145.983
L267.345 145.293
L267.97 145.293
L268.148 143.914
L268.237 143.914
L268.416 143.224
L268.505 143.224
L268.684 142.534
L268.952 142.534
L269.22 141.154
L269.309 141.154
L269.666 139.085
L271.005 139.085
L271.273 137.705
L271.719 137.705
L271.898 137.016
L272.791 137.016
L273.059 135.636
L273.684 135.636
L274.13 132.877
L274.666 132.877
L274.844 132.187
L275.112 132.187
L275.291 131.497
L275.38 131.497
L275.558 130.807
L276.273 130.807
L276.451 129.428
L278.505 129.428
L278.683 128.738
L278.951 128.738
L279.13 128.048
L280.201 128.048
L280.38 127.358
L282.612 127.358
L282.79 126.668
L283.683 126.668
L283.861 125.978
L284.129 125.978
L284.308 125.289
L286.54 125.289
L286.718 123.909
L286.986 123.909
L287.254 122.529
L287.522 122.529
L287.79 121.15
L289.575 121.15
L289.754 120.46
L291.897 120.46
L292.164 119.08
L292.611 119.08
L292.789 118.39
L293.504 118.39
L293.682 117.701
L295.646 117.701
L295.825 116.321
L296.628 116.321
L296.807 115.631
L297.253 115.631
L297.7 112.872
L297.789 112.872
L297.968 112.182
L299.485 112.182
L299.664 111.492
L301.45 111.492
L301.628 110.802
L302.967 110.802
L303.146 110.113
L303.86 110.113
L304.039 108.733
L304.217 108.733
L304.485 107.353
L305.021 107.353
L305.199 106.663
L305.467 106.663
L305.646 105.974
L305.735 105.974
L306.003 104.594
L306.092 104.594
L306.271 103.904
L306.36 103.904
L306.539 102.525
L306.806 102.525
L307.074 101.145
L309.485 101.145
L309.663 99.7653
L309.842 99.7653
L310.02 99.0754
L310.467 99.0754
L310.645 98.3856
L311.449 98.3856
L311.628 97.6958
L312.967 97.6958
L313.145 97.006
L313.413 97.006
L313.681 95.6263
L316.627 95.6263
L316.895 94.2467
L319.216 94.2467
L319.395 93.5569
L320.466 93.5569
L320.734 92.1772
L322.609 92.1772
L322.788 91.4874
L327.073 91.4874
L327.252 90.7976
L327.876 90.7976
L328.055 90.1078
L328.68 90.1078
L328.948 88.7281
L338.322 88.7281
L338.59 87.3485
L339.394 87.3485
L339.572 85.9689
L341.983 85.9689
L342.161 85.279
L342.251 85.279
L342.429 84.5892
L342.786 84.5892
L342.965 83.8994
L343.679 83.8994
L343.858 83.2096
L344.393 83.2096
L344.661 81.8299
L345.911 81.8299
L346.09 80.4503
L346.268 79.7605
L346.625 79.7605
L346.804 79.0707
L347.964 79.0707
L348.143 78.3808
L348.768 78.3808
L348.947 77.691
L351.536 77.691
L351.804 76.3114
L353.5 76.3114
L353.678 75.6216
L354.66 75.6216
L354.839 74.9317
L356.982 74.9317
L357.16 74.2419
L358.678 74.2419
L358.857 73.5521
L359.392 73.5521
L359.571 72.8623
L362.874 72.8623
L363.053 72.1725
L364.124 72.1725
L364.303 71.4826
L365.374 71.4826
L365.553 70.7928
L366.178 70.7928
L366.356 70.103
L366.445 70.103
L366.803 68.0335
L368.856 68.0335
L369.035 67.3437
L370.106 67.3437
L370.284 66.6539
L370.731 66.6539
L370.909 65.9641
L371.445 65.9641
L371.624 65.2743
L372.427 65.2743
L372.606 64.5844
L376.623 64.5844
L376.802 63.8946
L379.659 63.8946
L379.837 63.2048
L381.534 63.2048
L381.712 62.515
L381.98 62.515
L382.159 61.8251
L382.248 61.8251
L382.427 61.1353
L383.498 61.1353
L383.676 60.4455
L385.551 60.4455
L385.73 59.7557
L387.783 59.7557
L387.962 59.0659
L388.498 59.0659
L388.676 58.376
L390.462 58.376
L390.73 56.9964
L390.908 56.9964
L391.087 56.3066
L391.176 56.3066
L391.355 55.6168
L409.032 55.6168
L409.211 54.9269
L412.514 54.9269
L412.692 54.2371
L414.21 54.2371
L414.389 53.5473
L415.46 53.5473
L415.639 52.8575
L416.799 52.8575
L416.978 52.1677
L417.335 52.1677
L417.514 51.4778
L423.228 51.4778
L423.406 50.788
L426.888 50.788
L427.067 50.0982
L432.959 50.0982
L433.138 49.4084
L435.816 49.4084
L435.995 48.7186
L445.726 48.7186
L445.905 48.0287
L447.958 48.0287
L448.137 47.3389
L448.583 47.3389
L448.762 46.6491
L461.439 46.6491
L461.618 45.9593
L475.099 45.9593
L475.278 44.5796
L491.616 44.5796
L491.795 43.8898
L496.973 43.8898
L497.151 43.2
L518.311 43.2
L518.311 43.2" style="fill:none;stroke:#ff0000;stroke-dasharray:3.000000,6.000000;stroke-dashoffset:0.0;"/>
   </g>
   <g id="line2d_4">
    <path clip-path="url(#p7ff5b81e1d)" d="
M72 388.8
L120.747 388.8
L120.925 388.11
L130.211 388.11
L130.389 387.42
L137.442 387.42
L137.621 386.731
L143.424 386.731
L143.603 386.041
L144.942 386.041
L145.12 385.351
L152.888 385.351
L153.066 384.661
L155.923 384.661
L156.102 383.971
L157.173 383.971
L157.352 383.281
L157.977 383.281
L158.155 382.592
L159.673 382.592
L159.852 381.902
L161.459 381.902
L161.637 381.212
L161.816 381.212
L161.994 380.522
L162.084 380.522
L162.351 379.143
L164.316 379.143
L164.494 378.453
L164.94 378.453
L165.208 377.073
L165.923 377.073
L166.101 375.693
L167.262 375.693
L167.44 375.004
L171.012 375.004
L171.19 373.624
L171.458 373.624
L171.636 372.934
L171.815 372.934
L171.994 372.244
L172.44 372.244
L172.619 371.554
L175.029 371.554
L175.297 370.175
L175.386 370.175
L175.565 369.485
L176.815 369.485
L176.993 368.795
L177.083 368.795
L177.261 368.105
L178.422 368.105
L178.6 367.416
L179.225 367.416
L179.404 366.726
L179.94 366.726
L180.118 366.036
L180.386 366.036
L180.654 364.656
L181.011 364.656
L181.189 363.277
L181.547 363.277
L181.725 362.587
L181.904 362.587
L182.082 361.897
L182.172 361.897
L182.35 361.207
L183.064 361.207
L183.421 359.138
L183.779 359.138
L183.957 358.448
L184.404 358.448
L184.582 357.758
L185.296 357.758
L185.475 357.068
L186.368 357.068
L186.546 356.378
L186.636 356.378
L186.814 355.689
L187.082 355.689
L187.26 354.309
L187.796 354.309
L187.975 353.619
L189.85 353.619
L190.028 352.929
L190.742 352.929
L190.921 352.24
L191.367 352.24
L191.635 350.86
L191.724 350.86
L191.903 350.17
L191.992 350.17
L192.171 349.48
L192.349 349.48
L192.528 348.79
L193.064 348.79
L193.242 348.101
L193.332 348.101
L193.51 347.411
L193.599 347.411
L193.867 346.031
L194.671 346.031
L194.849 345.341
L195.831 345.341
L196.01 344.651
L196.635 344.651
L196.813 343.962
L196.992 343.962
L197.171 343.272
L197.617 343.272
L197.796 342.582
L197.974 342.582
L198.153 341.892
L198.51 341.892
L198.778 340.513
L198.956 340.513
L199.135 339.823
L199.224 339.823
L199.492 338.443
L199.849 338.443
L200.028 336.374
L200.206 336.374
L200.385 335.684
L200.92 335.684
L201.099 334.994
L201.188 334.994
L201.367 334.304
L202.349 334.304
L202.527 333.614
L202.617 333.614
L202.795 332.925
L202.884 332.925
L203.152 331.545
L203.331 331.545
L203.509 329.475
L203.956 329.475
L204.134 328.786
L204.402 328.786
L204.581 328.096
L205.741 328.096
L206.009 326.716
L206.545 326.716
L206.813 325.337
L207.706 325.337
L207.884 324.647
L207.973 324.647
L208.241 323.267
L208.509 323.267
L208.688 322.577
L209.759 322.577
L209.938 321.887
L210.473 321.887
L210.652 321.198
L210.83 321.198
L211.098 319.818
L211.188 319.818
L211.545 317.749
L211.634 317.749
L211.991 315.679
L212.259 315.679
L212.437 314.989
L212.705 314.989
L212.884 312.92
L212.973 312.92
L213.241 311.54
L213.598 311.54
L213.777 310.16
L214.134 310.16
L214.312 309.471
L214.491 309.471
L214.759 306.711
L214.937 306.022
L215.116 306.022
L215.294 305.332
L215.741 305.332
L216.009 303.952
L216.991 303.952
L217.169 303.262
L217.437 303.262
L217.794 301.193
L217.973 301.193
L218.687 296.364
L218.776 296.364
L218.955 295.674
L219.401 295.674
L219.58 294.295
L219.669 294.295
L219.937 292.915
L220.473 292.915
L220.83 290.846
L220.919 290.846
L221.187 289.466
L221.901 289.466
L222.08 288.776
L222.169 288.776
L222.348 288.086
L222.437 288.086
L222.615 286.017
L222.794 285.327
L222.883 285.327
L223.062 284.637
L223.33 284.637
L223.865 281.188
L223.955 281.188
L224.133 280.498
L224.49 280.498
L224.669 279.808
L224.937 279.808
L225.115 278.429
L225.651 278.429
L226.276 274.29
L226.365 274.29
L226.544 273.6
L227.079 273.6
L227.436 271.531
L227.526 271.531
L227.794 268.771
L227.883 268.771
L228.061 268.081
L228.419 268.081
L228.597 267.392
L228.776 267.392
L229.133 265.322
L229.222 265.322
L229.401 264.632
L229.49 264.632
L229.758 263.253
L229.847 263.253
L230.115 261.873
L230.918 261.873
L231.186 260.493
L231.276 260.493
L231.543 259.114
L231.722 259.114
L231.9 258.424
L231.99 258.424
L232.525 254.975
L232.972 254.975
L233.24 253.595
L233.329 253.595
L233.597 252.216
L233.686 252.216
L233.865 251.526
L234.043 251.526
L234.222 250.836
L234.4 250.836
L234.579 250.146
L235.65 250.146
L235.918 247.387
L236.9 247.387
L237.168 246.007
L237.257 246.007
L237.436 245.317
L237.793 245.317
L238.061 242.558
L238.329 242.558
L238.507 240.489
L238.954 240.489
L239.4 237.729
L239.489 237.729
L239.668 237.04
L239.936 237.04
L240.204 235.66
L240.293 235.66
L240.561 234.28
L240.828 234.28
L241.007 233.59
L241.096 233.59
L241.275 232.901
L242.168 232.901
L242.346 232.211
L242.614 232.211
L242.882 230.831
L243.239 230.831
L243.418 230.141
L243.775 230.141
L244.31 226.692
L245.292 226.692
L245.471 226.002
L245.56 226.002
L245.739 225.313
L246.185 225.313
L246.364 224.623
L246.453 224.623
L246.632 223.933
L246.989 223.933
L247.167 223.243
L247.257 223.243
L247.435 222.553
L247.882 222.553
L248.06 221.863
L248.149 221.863
L248.596 219.104
L248.953 219.104
L249.221 217.725
L250.024 217.725
L250.56 214.275
L250.739 214.275
L251.006 212.896
L251.096 212.896
L251.364 211.516
L251.542 211.516
L251.721 210.826
L252.971 210.826
L253.149 210.137
L254.042 210.137
L254.22 209.447
L254.845 209.447
L255.024 208.757
L255.203 208.757
L255.47 207.377
L255.56 207.377
L255.738 206.687
L255.828 206.687
L256.095 205.308
L256.363 205.308
L256.542 204.618
L256.899 204.618
L257.167 203.238
L257.345 203.238
L257.524 202.549
L257.702 202.549
L257.881 201.859
L258.417 201.859
L258.595 201.169
L258.863 201.169
L259.042 200.479
L259.488 200.479
L259.667 199.789
L259.845 199.789
L260.024 198.41
L260.113 198.41
L260.381 197.03
L260.47 197.03
L260.738 195.65
L260.827 195.65
L261.274 192.891
L261.452 192.891
L261.631 192.201
L261.809 192.201
L261.988 191.511
L262.881 191.511
L263.059 190.822
L263.148 190.822
L263.327 190.132
L263.595 190.132
L263.773 189.442
L264.041 189.442
L264.488 186.683
L264.934 186.683
L265.113 185.993
L265.202 185.993
L265.38 185.303
L265.47 185.303
L265.648 184.613
L266.273 184.613
L266.452 183.234
L266.809 183.234
L266.988 182.544
L267.255 182.544
L267.523 181.164
L267.791 181.164
L268.148 179.095
L268.237 179.095
L268.416 178.405
L268.505 178.405
L268.684 177.715
L268.773 177.715
L268.952 177.025
L269.22 177.025
L269.398 176.335
L269.666 176.335
L269.844 175.646
L270.291 175.646
L270.469 174.956
L270.648 174.956
L271.005 172.886
L271.452 172.886
L271.63 172.196
L271.719 172.196
L271.898 171.507
L271.987 171.507
L272.166 170.817
L272.701 170.817
L272.969 169.437
L273.148 169.437
L273.326 167.368
L274.398 167.368
L274.576 165.988
L275.023 163.229
L275.201 163.229
L275.38 162.539
L275.648 162.539
L276.094 159.78
L276.183 159.78
L276.362 159.09
L276.898 159.09
L277.076 158.4
L277.165 158.4
L277.433 157.02
L277.523 157.02
L277.701 156.331
L279.04 156.331
L279.219 155.641
L279.665 155.641
L279.844 154.951
L280.558 154.951
L280.737 153.571
L280.915 152.881
L281.897 152.881
L282.076 151.502
L282.254 151.502
L282.433 150.812
L282.701 150.812
L282.879 150.122
L283.147 150.122
L283.326 149.432
L284.219 149.432
L284.397 148.743
L284.576 148.743
L284.754 147.363
L284.844 147.363
L285.022 146.673
L285.826 146.673
L286.004 145.983
L286.272 145.983
L286.629 143.914
L286.897 143.914
L287.076 143.224
L287.254 143.224
L287.433 142.534
L288.95 142.534
L289.218 141.154
L289.932 141.154
L290.111 140.465
L290.379 140.465
L290.557 139.775
L290.825 139.775
L291.004 139.085
L291.45 139.085
L291.629 138.395
L291.718 138.395
L291.897 137.705
L291.986 137.705
L292.164 137.016
L292.789 137.016
L292.968 136.326
L293.236 136.326
L293.414 135.636
L293.682 135.636
L293.861 134.946
L294.843 134.946
L295.021 133.566
L295.2 133.566
L295.379 132.877
L296.271 132.877
L296.45 132.187
L296.718 132.187
L296.896 131.497
L298.146 131.497
L298.325 130.807
L298.95 130.807
L299.128 130.117
L299.218 130.117
L299.396 129.428
L300.289 129.428
L300.468 128.738
L300.735 128.738
L301.003 127.358
L301.628 127.358
L301.807 125.289
L302.075 125.289
L302.253 124.599
L303.057 124.599
L303.235 123.909
L304.485 123.909
L304.664 121.84
L304.932 121.84
L305.11 120.46
L305.199 120.46
L305.378 119.77
L307.342 119.77
L307.521 119.08
L308.503 119.08
L308.771 117.701
L309.306 117.701
L309.485 117.011
L310.11 117.011
L310.288 116.321
L311.806 116.321
L312.163 114.251
L315.02 114.251
L315.199 113.562
L315.467 113.562
L315.645 112.872
L316.092 112.872
L316.27 112.182
L316.538 112.182
L316.716 111.492
L317.252 111.492
L317.431 110.802
L318.591 110.802
L318.77 110.113
L318.948 110.113
L319.127 109.423
L321.359 109.423
L321.538 108.733
L322.43 108.733
L322.609 108.043
L323.323 108.043
L323.502 107.353
L326.805 107.353
L326.984 106.663
L330.823 106.663
L331.001 105.974
L331.448 105.974
L331.626 105.284
L332.073 105.284
L332.251 104.594
L333.055 104.594
L333.233 103.904
L333.501 103.904
L333.68 103.214
L333.858 103.214
L334.037 102.525
L337.072 102.525
L337.251 101.835
L337.965 101.835
L338.144 101.145
L338.412 101.145
L338.59 99.7653
L339.929 99.7653
L340.108 99.0754
L340.286 99.0754
L340.554 97.6958
L340.733 97.6958
L341.001 96.3162
L342.786 96.3162
L342.965 95.6263
L343.233 95.6263
L343.5 94.2467
L344.84 94.2467
L345.018 92.1772
L346.715 92.1772
L346.893 91.4874
L347.25 91.4874
L347.518 90.1078
L347.875 90.1078
L348.054 89.418
L351 89.418
L351.179 88.7281
L353.321 88.7281
L353.5 88.0383
L355.196 88.0383
L355.375 87.3485
L357.428 87.3485
L357.607 86.6587
L357.696 86.6587
L357.964 85.279
L358.053 85.279
L358.232 84.5892
L358.5 84.5892
L358.678 83.8994
L359.214 83.8994
L359.392 83.2096
L361.356 83.2096
L361.803 80.4503
L362.071 80.4503
L362.249 79.7605
L362.874 79.7605
L363.053 79.0707
L364.838 79.0707
L365.017 78.3808
L365.463 78.3808
L365.731 77.0012
L366.267 77.0012
L366.445 76.3114
L366.713 76.3114
L366.981 74.9317
L369.302 74.9317
L369.481 74.2419
L370.195 74.2419
L370.374 73.5521
L373.141 73.5521
L373.32 72.8623
L375.106 72.8623
L375.284 72.1725
L375.909 72.1725
L376.088 70.7928
L379.748 70.7928
L380.016 69.4132
L383.587 69.4132
L383.766 68.7234
L384.034 68.7234
L384.212 68.0335
L388.319 68.0335
L388.498 67.3437
L388.855 67.3437
L389.033 66.6539
L390.015 66.6539
L390.194 65.9641
L390.73 65.9641
L390.908 65.2743
L393.676 65.2743
L393.854 64.5844
L397.426 64.5844
L397.604 63.8946
L398.229 63.8946
L398.408 63.2048
L400.997 63.2048
L401.175 62.515
L401.532 62.515
L401.711 61.8251
L404.032 61.8251
L404.3 60.4455
L408.139 60.4455
L408.318 59.7557
L408.943 59.7557
L409.121 59.0659
L409.746 59.0659
L409.925 58.376
L411.621 58.376
L411.8 57.6862
L414.389 57.6862
L414.567 56.9964
L415.014 56.9964
L415.192 56.3066
L415.46 56.3066
L415.639 55.6168
L415.817 55.6168
L415.996 54.9269
L422.156 54.9269
L422.335 54.2371
L422.781 54.2371
L423.049 52.8575
L436.709 52.8575
L436.887 52.1677
L440.28 52.1677
L440.459 51.4778
L444.655 51.4778
L444.833 50.788
L448.494 50.788
L448.672 50.0982
L452.601 50.0982
L452.779 49.4084
L454.029 49.4084
L454.208 48.7186
L455.636 48.7186
L455.815 48.0287
L462.689 48.0287
L462.868 47.3389
L469.385 47.3389
L469.564 46.6491
L482.777 46.6491
L482.956 45.9593
L486.17 45.9593
L486.348 45.2695
L490.098 45.2695
L490.277 44.5796
L498.133 44.5796
L498.312 43.8898
L518.311 43.8898
L518.311 43.8898" style="fill:none;stroke:#00bfbf;stroke-dasharray:5.000000,1.000000,2.000000,1.000000,5.000000,1.000000;stroke-dashoffset:0.0;"/>
   </g>
   <g id="line2d_5">
    <path clip-path="url(#p7ff5b81e1d)" d="
M72 388.8
L72.0893 388.442
L72.1786 388.442
L73.1606 388.442
L73.3392 388.8
L80.0352 388.8
L80.2138 388.442
L80.3923 388.442
L80.5709 388.084
L83.4278 388.084
L83.6064 387.369
L83.785 387.011
L83.8742 387.011
L84.0528 386.653
L84.3206 386.653
L84.4992 386.296
L86.6419 386.296
L86.9098 385.58
L86.999 385.58
L87.1776 385.222
L87.8026 385.222
L88.1597 384.149
L90.3024 384.149
L90.5702 383.434
L91.0166 383.434
L91.1952 383.076
L93.4272 383.076
L93.6058 382.718
L93.8736 382.718
L94.0522 382.36
L94.1414 382.36
L94.32 382.002
L94.4093 382.002
L94.8557 380.571
L95.0342 380.571
L95.2128 380.214
L97.6234 380.214
L97.8912 379.498
L98.5162 379.498
L98.6947 379.14
L100.48 379.14
L100.659 378.783
L100.837 378.783
L101.016 378.425
L101.82 378.425
L101.998 378.067
L105.569 378.067
L105.748 377.352
L107.891 377.352
L108.069 376.994
L108.694 376.994
L108.962 376.278
L111.819 376.278
L111.997 375.92
L118.515 375.92
L118.693 375.563
L137.353 375.563
L137.532 375.205
L414.746 375.205
L414.924 374.847
L456.083 374.847
L456.261 374.489
L494.652 374.489
L494.83 374.132
L518.311 374.132
L518.311 374.132" style="fill:none;stroke:#bf00bf;stroke-linecap:square;"/>
   </g>
   <g id="matplotlib.axis_1">
    <g id="xtick_1">
     <g id="line2d_6">
      <defs>
       <path d="
M0 0
L0 -4" id="mc7db9fdffb" style="stroke:#000000;stroke-width:0.5;"/>
      </defs>
      <g>
       <use style="stroke:#000000;stroke-width:0.5;" x="72.0" xlink:href="#mc7db9fdffb" y="388.8"/>
      </g>
     </g>
     <g id="line2d_7">
      <defs>
       <path d="
M0 0
L0 4" id="m5a7d422ac3" style="stroke:#000000;stroke-width:0.5;"/>
      </defs>
      <g>
       <use style="stroke:#000000;stroke-width:0.5;" x="72.0" xlink:href="#m5a7d422ac3" y="43.2"/>
      </g>
     </g>
     <g id="text_1">
      <!-- 0 -->
      <defs>
       <path d="
M56.9844 36.375
Q56.9844 16.7969 50.8594 7.64062
Q44.7344 -1.51562 31.8438 -1.51562
Q18.75 -1.51562 12.7188 7.76562
Q6.6875 17.0469 6.6875 36.2812
Q6.6875 55.6719 12.7812 64.9219
Q18.8906 74.1719 31.8438 74.1719
Q44.9219 74.1719 50.9531 64.7656
Q56.9844 55.375 56.9844 36.375
M44.1406 14.2031
Q45.8438 18.1719 46.4531 23.5156
Q47.0781 28.8594 47.0781 36.375
Q47.0781 43.7969 46.4531 49.2656
Q45.8438 54.7344 44.0938 58.5469
Q42.3906 62.3125 39.4219 64.2031
Q36.4688 66.1094 31.8438 66.1094
Q27.25 66.1094 24.2344 64.2031
Q21.2344 62.3125 19.4844 58.4531
Q17.8281 54.8281 17.2188 49.0156
Q16.6094 43.2188 16.6094 36.2812
Q16.6094 28.6562 17.1406 23.5312
Q17.6719 18.4062 19.4375 14.3594
Q21.0469 10.5469 24 8.54688
Q26.9531 6.54688 31.8438 6.54688
Q36.4219 6.54688 39.4531 8.45312
Q42.4844 10.3594 44.1406 14.2031" id="Verdana-30"/>
      </defs>
      <g transform="translate(68.9821875 401.918125)scale(0.12 -0.12)">
       <use xlink:href="#Verdana-30"/>
      </g>
     </g>
    </g>
    <g id="xtick_2">
     <g id="line2d_8">
      <g>
       <use style="stroke:#000000;stroke-width:0.5;" x="161.28" xlink:href="#mc7db9fdffb" y="388.8"/>
      </g>
     </g>
     <g id="line2d_9">
      <g>
       <use style="stroke:#000000;stroke-width:0.5;" x="161.28" xlink:href="#m5a7d422ac3" y="43.2"/>
      </g>
     </g>
     <g id="text_2">
      <!-- 1000 -->
      <defs>
       <path d="
M52.9375 0
L13.5781 0
L13.5781 7.42188
L28.7188 7.42188
L28.7188 56.1562
L13.5781 56.1562
L13.5781 62.7969
Q16.6562 62.7969 20.1719 63.2969
Q23.6875 63.8125 25.4844 64.7969
Q27.7344 66.0156 29.0312 67.8906
Q30.3281 69.7812 30.5156 72.9531
L38.0938 72.9531
L38.0938 7.42188
L52.9375 7.42188
z
" id="Verdana-31"/>
      </defs>
      <g transform="translate(147.2315625 401.918125)scale(0.12 -0.12)">
       <use xlink:href="#Verdana-31"/>
       <use x="63.57421875" xlink:href="#Verdana-30"/>
       <use x="127.1484375" xlink:href="#Verdana-30"/>
       <use x="190.72265625" xlink:href="#Verdana-30"/>
      </g>
     </g>
    </g>
    <g id="xtick_3">
     <g id="line2d_10">
      <g>
       <use style="stroke:#000000;stroke-width:0.5;" x="250.56" xlink:href="#mc7db9fdffb" y="388.8"/>
      </g>
     </g>
     <g id="line2d_11">
      <g>
       <use style="stroke:#000000;stroke-width:0.5;" x="250.56" xlink:href="#m5a7d422ac3" y="43.2"/>
      </g>
     </g>
     <g id="text_3">
      <!-- 2000 -->
      <defs>
       <path d="
M57.0781 0
L7.85938 0
L7.85938 10.2031
Q12.9844 14.5938 18.1406 18.9844
Q23.2969 23.3906 27.7344 27.7344
Q37.1094 36.8125 40.5781 42.1562
Q44.0469 47.5156 44.0469 53.7188
Q44.0469 59.375 40.3125 62.5625
Q36.5781 65.7656 29.8906 65.7656
Q25.4375 65.7656 20.2656 64.2031
Q15.0938 62.6406 10.1562 59.4219
L9.67188 59.4219
L9.67188 69.6719
Q13.1406 71.3906 18.9219 72.7969
Q24.7031 74.2188 30.125 74.2188
Q41.3125 74.2188 47.6562 68.8125
Q54 63.4219 54 54.2031
Q54 50.0469 52.9531 46.4531
Q51.9062 42.875 49.8594 39.6562
Q47.9531 36.625 45.3906 33.6875
Q42.8281 30.7656 39.1562 27.2031
Q33.9375 22.0781 28.3594 17.2656
Q22.7969 12.4531 17.9688 8.34375
L57.0781 8.34375
z
" id="Verdana-32"/>
      </defs>
      <g transform="translate(236.1684375 401.918125)scale(0.12 -0.12)">
       <use xlink:href="#Verdana-32"/>
       <use x="63.57421875" xlink:href="#Verdana-30"/>
       <use x="127.1484375" xlink:href="#Verdana-30"/>
       <use x="190.72265625" xlink:href="#Verdana-30"/>
      </g>
     </g>
    </g>
    <g id="xtick_4">
     <g id="line2d_12">
      <g>
       <use style="stroke:#000000;stroke-width:0.5;" x="339.84" xlink:href="#mc7db9fdffb" y="388.8"/>
      </g>
     </g>
     <g id="line2d_13">
      <g>
       <use style="stroke:#000000;stroke-width:0.5;" x="339.84" xlink:href="#m5a7d422ac3" y="43.2"/>
      </g>
     </g>
     <g id="text_4">
      <!-- 3000 -->
      <defs>
       <path d="
M50.6875 35.0156
Q53.0312 32.9062 54.5469 29.7344
Q56.0625 26.5625 56.0625 21.5312
Q56.0625 16.5469 54.25 12.3906
Q52.4375 8.25 49.1719 5.17188
Q45.5156 1.76562 40.5469 0.125
Q35.5938 -1.51562 29.6875 -1.51562
Q23.6406 -1.51562 17.7812 -0.0625
Q11.9219 1.375 8.15625 3.07812
L8.15625 13.2812
L8.89062 13.2812
Q13.0312 10.5469 18.6406 8.73438
Q24.2656 6.9375 29.5 6.9375
Q32.5625 6.9375 36.0312 7.95312
Q39.5 8.98438 41.6562 10.9844
Q43.8906 13.1406 44.9844 15.7188
Q46.0938 18.3125 46.0938 22.2656
Q46.0938 26.1719 44.8438 28.7344
Q43.6094 31.2969 41.4062 32.7656
Q39.2031 34.2812 36.0781 34.8438
Q32.9531 35.4062 29.3438 35.4062
L24.9531 35.4062
L24.9531 43.5
L28.375 43.5
Q35.7969 43.5 40.2031 46.5938
Q44.625 49.7031 44.625 55.6719
Q44.625 58.2969 43.5 60.2656
Q42.3906 62.25 40.375 63.5312
Q38.2812 64.7969 35.8906 65.2812
Q33.5 65.7656 30.4688 65.7656
Q25.8281 65.7656 20.5938 64.1094
Q15.375 62.4531 10.75 59.4219
L10.25 59.4219
L10.25 69.625
Q13.7188 71.3438 19.5 72.7812
Q25.2969 74.2188 30.7188 74.2188
Q36.0312 74.2188 40.0781 73.2344
Q44.1406 72.2656 47.4062 70.125
Q50.9219 67.7812 52.7344 64.4531
Q54.5469 61.1406 54.5469 56.6875
Q54.5469 50.6406 50.2656 46.125
Q46 41.6094 40.1875 40.4375
L40.1875 39.75
Q42.5312 39.3594 45.5469 38.1094
Q48.5781 36.8594 50.6875 35.0156" id="Verdana-33"/>
      </defs>
      <g transform="translate(325.46625 401.918125)scale(0.12 -0.12)">
       <use xlink:href="#Verdana-33"/>
       <use x="63.57421875" xlink:href="#Verdana-30"/>
       <use x="127.1484375" xlink:href="#Verdana-30"/>
       <use x="190.72265625" xlink:href="#Verdana-30"/>
      </g>
     </g>
    </g>
    <g id="xtick_5">
     <g id="line2d_14">
      <g>
       <use style="stroke:#000000;stroke-width:0.5;" x="429.12" xlink:href="#mc7db9fdffb" y="388.8"/>
      </g>
     </g>
     <g id="line2d_15">
      <g>
       <use style="stroke:#000000;stroke-width:0.5;" x="429.12" xlink:href="#m5a7d422ac3" y="43.2"/>
      </g>
     </g>
     <g id="text_5">
      <!-- 4000 -->
      <defs>
       <path d="
M58.7344 20.4531
L47.9531 20.4531
L47.9531 0
L38.5781 0
L38.5781 20.4531
L3.76562 20.4531
L3.76562 31.6875
L38.9688 72.7031
L47.9531 72.7031
L47.9531 28.2656
L58.7344 28.2656
z

M38.5781 28.2656
L38.5781 61.0781
L10.4062 28.2656
z
" id="Verdana-34"/>
      </defs>
      <g transform="translate(414.4828125 401.918125)scale(0.12 -0.12)">
       <use xlink:href="#Verdana-34"/>
       <use x="63.57421875" xlink:href="#Verdana-30"/>
       <use x="127.1484375" xlink:href="#Verdana-30"/>
       <use x="190.72265625" xlink:href="#Verdana-30"/>
      </g>
     </g>
    </g>
    <g id="xtick_6">
     <g id="line2d_16">
      <g>
       <use style="stroke:#000000;stroke-width:0.5;" x="518.4" xlink:href="#mc7db9fdffb" y="388.8"/>
      </g>
     </g>
     <g id="line2d_17">
      <g>
       <use style="stroke:#000000;stroke-width:0.5;" x="518.4" xlink:href="#m5a7d422ac3" y="43.2"/>
      </g>
     </g>
     <g id="text_6">
      <!-- 5000 -->
      <defs>
       <path d="
M56.5 23.0938
Q56.5 18.0156 54.6406 13.375
Q52.7812 8.73438 49.5625 5.5625
Q46.0469 2.15625 41.1875 0.3125
Q36.3281 -1.51562 29.9375 -1.51562
Q23.9688 -1.51562 18.4531 -0.265625
Q12.9375 0.984375 9.125 2.73438
L9.125 13.0312
L9.8125 13.0312
Q13.8125 10.5 19.1875 8.71875
Q24.5625 6.9375 29.7344 6.9375
Q33.2031 6.9375 36.4531 7.90625
Q39.7031 8.89062 42.2344 11.3281
Q44.3906 13.4219 45.4844 16.3438
Q46.5781 19.2812 46.5781 23.1406
Q46.5781 26.9062 45.2812 29.4844
Q44 32.0781 41.7031 33.6406
Q39.1562 35.5 35.5156 36.25
Q31.8906 37.0156 27.3906 37.0156
Q23.0938 37.0156 19.1094 36.4219
Q15.1406 35.8438 12.25 35.25
L12.25 72.7031
L56 72.7031
L56 64.1562
L21.6875 64.1562
L21.6875 44.8281
Q23.7812 45.0156 25.9688 45.1094
Q28.1719 45.2188 29.7812 45.2188
Q35.6875 45.2188 40.125 44.2188
Q44.5781 43.2188 48.2969 40.6719
Q52.2031 37.9844 54.3438 33.7344
Q56.5 29.5 56.5 23.0938" id="Verdana-35"/>
      </defs>
      <g transform="translate(504.084375 401.918125)scale(0.12 -0.12)">
       <use xlink:href="#Verdana-35"/>
       <use x="63.57421875" xlink:href="#Verdana-30"/>
       <use x="127.1484375" xlink:href="#Verdana-30"/>
       <use x="190.72265625" xlink:href="#Verdana-30"/>
      </g>
     </g>
    </g>
    <g id="text_7">
     <!-- Objective function exectuions -->
     <defs>
      <path d="
M54.6406 0
L45.4531 0
L45.4531 31.0625
Q45.4531 34.8125 45.0156 38.1094
Q44.5781 41.4062 43.4062 43.2656
Q42.1875 45.3125 39.8906 46.3125
Q37.5938 47.3125 33.9375 47.3125
Q30.1719 47.3125 26.0625 45.4531
Q21.9688 43.6094 18.2188 40.7188
L18.2188 0
L9.03125 0
L9.03125 54.5469
L18.2188 54.5469
L18.2188 48.4844
Q22.5156 52.0469 27.0938 54.0469
Q31.6875 56.0625 36.5312 56.0625
Q45.3594 56.0625 50 50.7344
Q54.6406 45.4062 54.6406 35.4062
z
" id="Verdana-6e"/>
      <path d="
M18.8906 63.6719
L8.54688 63.6719
L8.54688 73.1875
L18.8906 73.1875
z

M18.3125 0
L9.125 0
L9.125 54.5469
L18.3125 54.5469
z
" id="Verdana-69"/>
      <path d="
M56.25 0
L44.6719 0
L29.2031 20.9531
L13.625 0
L2.9375 0
L24.2188 27.2031
L3.125 54.5469
L14.7031 54.5469
L30.0781 33.9375
L45.5156 54.5469
L56.25 54.5469
L34.8125 27.6875
z
" id="Verdana-78"/>
      <path d="
M57.0312 27.6875
Q57.0312 20.8438 55.0938 15.375
Q53.1719 9.90625 49.9062 6.20312
Q46.4375 2.34375 42.2812 0.40625
Q38.1406 -1.51562 33.1562 -1.51562
Q28.5156 -1.51562 25.0469 -0.40625
Q21.5781 0.6875 18.2188 2.54688
L17.625 0
L9.03125 0
L9.03125 75.9844
L18.2188 75.9844
L18.2188 48.8281
Q22.0781 52 26.4219 54.0312
Q30.7656 56.0625 36.1875 56.0625
Q45.8438 56.0625 51.4375 48.6406
Q57.0312 41.2188 57.0312 27.6875
M47.5625 27.4375
Q47.5625 37.2031 44.3281 42.25
Q41.1094 47.3125 33.9375 47.3125
Q29.9375 47.3125 25.8281 45.5781
Q21.7344 43.8438 18.2188 41.1094
L18.2188 9.85938
Q22.125 8.10938 24.9219 7.42188
Q27.7344 6.73438 31.2969 6.73438
Q38.9219 6.73438 43.2344 11.7344
Q47.5625 16.75 47.5625 27.4375" id="Verdana-62"/>
      <path d="
M37.3594 0.484375
Q34.7656 -0.203125 31.7031 -0.640625
Q28.6562 -1.07812 26.2656 -1.07812
Q17.9219 -1.07812 13.5781 3.40625
Q9.23438 7.90625 9.23438 17.8281
L9.23438 46.8281
L3.03125 46.8281
L3.03125 54.5469
L9.23438 54.5469
L9.23438 70.2188
L18.4062 70.2188
L18.4062 54.5469
L37.3594 54.5469
L37.3594 46.8281
L18.4062 46.8281
L18.4062 21.9688
Q18.4062 17.6719 18.5938 15.25
Q18.7969 12.8438 19.9688 10.75
Q21.0469 8.79688 22.9219 7.89062
Q24.8125 6.98438 28.6562 6.98438
Q30.9062 6.98438 33.3438 7.64062
Q35.7969 8.29688 36.8594 8.73438
L37.3594 8.73438
z
" id="Verdana-74"/>
      <path d="
M26.0312 63.6719
L15.6719 63.6719
L15.6719 73.1875
L26.0312 73.1875
z

M25.4375 -1.3125
Q25.4375 -10.8906 20.5469 -15.7656
Q15.6719 -20.6562 7.46875 -20.6562
Q5.51562 -20.6562 2.3125 -20.2656
Q-0.875 -19.875 -3.03125 -19.2812
L-3.03125 -10.5469
L-2.54688 -10.5469
Q-1.17188 -11.0781 1.14062 -11.7656
Q3.46875 -12.4531 5.67188 -12.4531
Q9.1875 -12.4531 11.3281 -11.4688
Q13.4844 -10.5 14.5469 -8.54688
Q15.625 -6.59375 15.9375 -3.82812
Q16.2656 -1.07812 16.2656 2.875
L16.2656 46.8281
L4.89062 46.8281
L4.89062 54.5469
L25.4375 54.5469
z
" id="Verdana-6a"/>
      <path d="
M49.3594 3.42188
Q44.7812 1.21875 40.6562 0
Q36.5312 -1.21875 31.8906 -1.21875
Q25.9844 -1.21875 21.0469 0.515625
Q16.1094 2.25 12.5938 5.76562
Q9.03125 9.28125 7.07812 14.6406
Q5.125 20.0156 5.125 27.2031
Q5.125 40.5781 12.4688 48.1875
Q19.8281 55.8125 31.8906 55.8125
Q36.5781 55.8125 41.0938 54.4844
Q45.6094 53.1719 49.3594 51.2656
L49.3594 41.0625
L48.875 41.0625
Q44.6719 44.3438 40.2031 46.0938
Q35.75 47.8594 31.5 47.8594
Q23.6875 47.8594 19.1719 42.6094
Q14.6562 37.3594 14.6562 27.2031
Q14.6562 17.3281 19.0625 12.0312
Q23.4844 6.73438 31.5 6.73438
Q34.2812 6.73438 37.1562 7.46875
Q40.0469 8.20312 42.3281 9.375
Q44.3438 10.4062 46.0938 11.5469
Q47.8594 12.7031 48.875 13.5312
L49.3594 13.5312
z
" id="Verdana-63"/>
      <path d="
M55.5156 27.25
Q55.5156 13.9219 48.6719 6.20312
Q41.8438 -1.51562 30.375 -1.51562
Q18.7969 -1.51562 11.9844 6.20312
Q5.17188 13.9219 5.17188 27.25
Q5.17188 40.5781 11.9844 48.3125
Q18.7969 56.0625 30.375 56.0625
Q41.8438 56.0625 48.6719 48.3125
Q55.5156 40.5781 55.5156 27.25
M46.0469 27.25
Q46.0469 37.8438 41.8906 42.9844
Q37.75 48.1406 30.375 48.1406
Q22.9062 48.1406 18.7812 42.9844
Q14.6562 37.8438 14.6562 27.25
Q14.6562 17 18.7969 11.6875
Q22.9531 6.39062 30.375 6.39062
Q37.7031 6.39062 41.875 11.6406
Q46.0469 16.8906 46.0469 27.25" id="Verdana-6f"/>
      <path d="
M56.2031 54.5469
L34.125 0
L24.9062 0
L2.98438 54.5469
L12.9375 54.5469
L29.8281 11.1406
L46.5781 54.5469
z
" id="Verdana-76"/>
      <path d="
M63.9688 64.3594
Q68.4062 59.4688 70.7656 52.3906
Q73.1406 45.3125 73.1406 36.3281
Q73.1406 27.3438 70.7188 20.2344
Q68.3125 13.1406 63.9688 8.40625
Q59.4688 3.46875 53.3438 0.96875
Q47.2188 -1.51562 39.3594 -1.51562
Q31.6875 -1.51562 25.4062 1.01562
Q19.1406 3.5625 14.75 8.40625
Q10.3594 13.2344 7.98438 20.2656
Q5.60938 27.2969 5.60938 36.3281
Q5.60938 45.2188 7.95312 52.2656
Q10.2969 59.3281 14.7969 64.3594
Q19.0938 69.1406 25.4688 71.6719
Q31.8438 74.2188 39.3594 74.2188
Q47.1719 74.2188 53.3906 71.6562
Q59.625 69.0938 63.9688 64.3594
M63.0938 36.3281
Q63.0938 50.4844 56.7344 58.1719
Q50.3906 65.875 39.4062 65.875
Q28.3281 65.875 22 58.1719
Q15.6719 50.4844 15.6719 36.3281
Q15.6719 22.0156 22.1094 14.4219
Q28.5625 6.84375 39.4062 6.84375
Q50.25 6.84375 56.6719 14.4219
Q63.0938 22.0156 63.0938 36.3281" id="Verdana-4f"/>
      <path d="
M38.375 67.0938
L37.8906 67.0938
Q36.375 67.5312 33.9375 67.9844
Q31.5 68.4531 29.6406 68.4531
Q23.7344 68.4531 21.0625 65.8438
Q18.4062 63.2344 18.4062 56.3906
L18.4062 54.5469
L34.9688 54.5469
L34.9688 46.8281
L18.7031 46.8281
L18.7031 0
L9.51562 0
L9.51562 46.8281
L3.32812 46.8281
L3.32812 54.5469
L9.51562 54.5469
L9.51562 56.3438
Q9.51562 66.0625 14.3438 71.2656
Q19.1875 76.4688 28.3281 76.4688
Q31.3906 76.4688 33.8594 76.1719
Q36.3281 75.875 38.375 75.4844
z
" id="Verdana-66"/>
      <path d="
M48 15.7188
Q48 8.25 41.8125 3.46875
Q35.6406 -1.3125 24.9531 -1.3125
Q18.8906 -1.3125 13.8438 0.125
Q8.79688 1.5625 5.375 3.26562
L5.375 13.5781
L5.85938 13.5781
Q10.2031 10.2969 15.5156 8.375
Q20.8438 6.45312 25.7344 6.45312
Q31.7812 6.45312 35.2031 8.40625
Q38.625 10.3594 38.625 14.5469
Q38.625 17.7812 36.7656 19.4375
Q34.9062 21.0938 29.6406 22.2656
Q27.6875 22.7031 24.5312 23.2812
Q21.3906 23.875 18.7969 24.5625
Q11.625 26.4688 8.60938 30.1562
Q5.60938 33.8438 5.60938 39.2031
Q5.60938 42.5781 7 45.5469
Q8.40625 48.5312 11.2344 50.875
Q13.9688 53.1719 18.1875 54.5156
Q22.4062 55.8594 27.6406 55.8594
Q32.5156 55.8594 37.5156 54.6562
Q42.5312 53.4688 45.8438 51.7656
L45.8438 41.9375
L45.3594 41.9375
Q41.8438 44.5312 36.8125 46.3125
Q31.7812 48.0938 26.9531 48.0938
Q21.9219 48.0938 18.4531 46.1562
Q14.9844 44.2344 14.9844 40.4375
Q14.9844 37.0625 17.0938 35.3594
Q19.1406 33.6406 23.7344 32.5625
Q26.2656 31.9844 29.4062 31.3906
Q32.5625 30.8125 34.6719 30.3281
Q41.0625 28.8594 44.5312 25.2969
Q48 21.6875 48 15.7188" id="Verdana-73"/>
      <path d="
M54.6875 26.3125
L14.5 26.3125
Q14.5 21.2969 16.0156 17.5469
Q17.5312 13.8125 20.1719 11.4219
Q22.7031 9.07812 26.1875 7.90625
Q29.6875 6.73438 33.8906 6.73438
Q39.4531 6.73438 45.0938 8.95312
Q50.7344 11.1875 53.125 13.3281
L53.6094 13.3281
L53.6094 3.32812
Q48.9688 1.375 44.1406 0.046875
Q39.3125 -1.26562 33.9844 -1.26562
Q20.4062 -1.26562 12.7812 6.07812
Q5.17188 13.4219 5.17188 26.9531
Q5.17188 40.3281 12.4688 48.1875
Q19.7812 56.0625 31.6875 56.0625
Q42.7188 56.0625 48.7031 49.6094
Q54.6875 43.1719 54.6875 31.2969
z

M45.75 33.3438
Q45.7031 40.5781 42.1094 44.5312
Q38.5312 48.4844 31.2031 48.4844
Q23.8281 48.4844 19.4531 44.1406
Q15.0938 39.7969 14.5 33.3438
z
" id="Verdana-65"/>
      <path d="
M54.25 0
L45.0625 0
L45.0625 6.0625
Q40.4375 2.39062 36.1875 0.4375
Q31.9375 -1.51562 26.8125 -1.51562
Q18.2188 -1.51562 13.4219 3.73438
Q8.64062 8.98438 8.64062 19.1406
L8.64062 54.5469
L17.8281 54.5469
L17.8281 23.4844
Q17.8281 19.3438 18.2188 16.375
Q18.6094 13.4219 19.875 11.3281
Q21.1875 9.1875 23.2812 8.20312
Q25.3906 7.23438 29.3906 7.23438
Q32.9531 7.23438 37.1719 9.07812
Q41.4062 10.9375 45.0625 13.8125
L45.0625 54.5469
L54.25 54.5469
z
" id="Verdana-75"/>
      <path id="Verdana-20"/>
     </defs>
     <g transform="translate(206.5078125 418.509375)scale(0.12 -0.12)">
      <use xlink:href="#Verdana-4f"/>
      <use x="78.7109375" xlink:href="#Verdana-62"/>
      <use x="141.015625" xlink:href="#Verdana-6a"/>
      <use x="175.439453125" xlink:href="#Verdana-65"/>
      <use x="235.009765625" xlink:href="#Verdana-63"/>
      <use x="287.109375" xlink:href="#Verdana-74"/>
      <use x="326.513671875" xlink:href="#Verdana-69"/>
      <use x="353.955078125" xlink:href="#Verdana-76"/>
      <use x="412.259765625" xlink:href="#Verdana-65"/>
      <use x="471.830078125" xlink:href="#Verdana-20"/>
      <use x="506.986328125" xlink:href="#Verdana-66"/>
      <use x="542.142578125" xlink:href="#Verdana-75"/>
      <use x="605.423828125" xlink:href="#Verdana-6e"/>
      <use x="668.705078125" xlink:href="#Verdana-63"/>
      <use x="720.8046875" xlink:href="#Verdana-74"/>
      <use x="760.208984375" xlink:href="#Verdana-69"/>
      <use x="787.650390625" xlink:href="#Verdana-6f"/>
      <use x="848.34375" xlink:href="#Verdana-6e"/>
      <use x="911.625" xlink:href="#Verdana-20"/>
      <use x="946.78125" xlink:href="#Verdana-65"/>
      <use x="1006.3515625" xlink:href="#Verdana-78"/>
      <use x="1064.40625" xlink:href="#Verdana-65"/>
      <use x="1123.9765625" xlink:href="#Verdana-63"/>
      <use x="1176.076171875" xlink:href="#Verdana-74"/>
      <use x="1215.48046875" xlink:href="#Verdana-75"/>
      <use x="1278.76171875" xlink:href="#Verdana-69"/>
      <use x="1306.203125" xlink:href="#Verdana-6f"/>
      <use x="1366.896484375" xlink:href="#Verdana-6e"/>
      <use x="1430.177734375" xlink:href="#Verdana-73"/>
     </g>
    </g>
   </g>
   <g id="matplotlib.axis_2">
    <g id="ytick_1">
     <g id="line2d_18">
      <defs>
       <path d="
M0 0
L4 0" id="md7965d1ba0" style="stroke:#000000;stroke-width:0.5;"/>
      </defs>
      <g>
       <use style="stroke:#000000;stroke-width:0.5;" x="72.0" xlink:href="#md7965d1ba0" y="388.8"/>
      </g>
     </g>
     <g id="line2d_19">
      <defs>
       <path d="
M0 0
L-4 0" id="md9a1c1a7cd" style="stroke:#000000;stroke-width:0.5;"/>
      </defs>
      <g>
       <use style="stroke:#000000;stroke-width:0.5;" x="518.4" xlink:href="#md9a1c1a7cd" y="388.8"/>
      </g>
     </g>
     <g id="text_8">
      <!-- 0.0 -->
      <defs>
       <path d="
M24.0312 0
L12.3594 0
L12.3594 13.9219
L24.0312 13.9219
z
" id="Verdana-2e"/>
      </defs>
      <g transform="translate(49.97 392.1515625)scale(0.12 -0.12)">
       <use xlink:href="#Verdana-30"/>
       <use x="63.57421875" xlink:href="#Verdana-2e"/>
       <use x="99.951171875" xlink:href="#Verdana-30"/>
      </g>
     </g>
    </g>
    <g id="ytick_2">
     <g id="line2d_20">
      <g>
       <use style="stroke:#000000;stroke-width:0.5;" x="72.0" xlink:href="#md7965d1ba0" y="319.68"/>
      </g>
     </g>
     <g id="line2d_21">
      <g>
       <use style="stroke:#000000;stroke-width:0.5;" x="518.4" xlink:href="#md9a1c1a7cd" y="319.68"/>
      </g>
     </g>
     <g id="text_9">
      <!-- 0.2 -->
      <g transform="translate(49.95875 323.0315625)scale(0.12 -0.12)">
       <use xlink:href="#Verdana-30"/>
       <use x="63.57421875" xlink:href="#Verdana-2e"/>
       <use x="99.951171875" xlink:href="#Verdana-32"/>
      </g>
     </g>
    </g>
    <g id="ytick_3">
     <g id="line2d_22">
      <g>
       <use style="stroke:#000000;stroke-width:0.5;" x="72.0" xlink:href="#md7965d1ba0" y="250.56"/>
      </g>
     </g>
     <g id="line2d_23">
      <g>
       <use style="stroke:#000000;stroke-width:0.5;" x="518.4" xlink:href="#md9a1c1a7cd" y="250.56"/>
      </g>
     </g>
     <g id="text_10">
      <!-- 0.4 -->
      <g transform="translate(49.76 253.9115625)scale(0.12 -0.12)">
       <use xlink:href="#Verdana-30"/>
       <use x="63.57421875" xlink:href="#Verdana-2e"/>
       <use x="99.951171875" xlink:href="#Verdana-34"/>
      </g>
     </g>
    </g>
    <g id="ytick_4">
     <g id="line2d_24">
      <g>
       <use style="stroke:#000000;stroke-width:0.5;" x="72.0" xlink:href="#md7965d1ba0" y="181.44"/>
      </g>
     </g>
     <g id="line2d_25">
      <g>
       <use style="stroke:#000000;stroke-width:0.5;" x="518.4" xlink:href="#md9a1c1a7cd" y="181.44"/>
      </g>
     </g>
     <g id="text_11">
      <!-- 0.6 -->
      <defs>
       <path d="
M58.1562 23.5781
Q58.1562 12.5 50.8594 5.48438
Q43.5625 -1.51562 32.9531 -1.51562
Q27.5938 -1.51562 23.1875 0.140625
Q18.7969 1.8125 15.4375 5.07812
Q11.2344 9.125 8.95312 15.8125
Q6.6875 22.5156 6.6875 31.9375
Q6.6875 41.6094 8.76562 49.0781
Q10.8438 56.5469 15.375 62.3594
Q19.6719 67.875 26.4531 70.9688
Q33.25 74.0781 42.2812 74.0781
Q45.1719 74.0781 47.125 73.8281
Q49.0781 73.5781 51.0781 72.9531
L51.0781 63.625
L50.5938 63.625
Q49.2188 64.3594 46.4531 65.0156
Q43.7031 65.6719 40.8281 65.6719
Q30.3281 65.6719 24.0781 59.1094
Q17.8281 52.5469 16.7969 41.3594
Q20.9062 43.8438 24.875 45.1406
Q28.8594 46.4375 34.0781 46.4375
Q38.7188 46.4375 42.25 45.5781
Q45.7969 44.7344 49.5156 42.1406
Q53.8125 39.1562 55.9844 34.6094
Q58.1562 30.0781 58.1562 23.5781
M48.25 23.1875
Q48.25 27.7344 46.9062 30.7031
Q45.5625 33.6875 42.4844 35.8906
Q40.2344 37.4531 37.5 37.9375
Q34.7656 38.4219 31.7812 38.4219
Q27.6406 38.4219 24.0781 37.4375
Q20.5156 36.4688 16.75 34.4219
Q16.6562 33.3438 16.5938 32.3438
Q16.5469 31.3438 16.5469 29.8281
Q16.5469 22.125 18.1406 17.6562
Q19.7344 13.1875 22.5156 10.5938
Q24.75 8.45312 27.3594 7.45312
Q29.9844 6.45312 33.0625 6.45312
Q40.1406 6.45312 44.1875 10.7656
Q48.25 15.0938 48.25 23.1875" id="Verdana-36"/>
      </defs>
      <g transform="translate(49.829375 184.7915625)scale(0.12 -0.12)">
       <use xlink:href="#Verdana-30"/>
       <use x="63.57421875" xlink:href="#Verdana-2e"/>
       <use x="99.951171875" xlink:href="#Verdana-36"/>
      </g>
     </g>
    </g>
    <g id="ytick_5">
     <g id="line2d_26">
      <g>
       <use style="stroke:#000000;stroke-width:0.5;" x="72.0" xlink:href="#md7965d1ba0" y="112.32"/>
      </g>
     </g>
     <g id="line2d_27">
      <g>
       <use style="stroke:#000000;stroke-width:0.5;" x="518.4" xlink:href="#md9a1c1a7cd" y="112.32"/>
      </g>
     </g>
     <g id="text_12">
      <!-- 0.8 -->
      <defs>
       <path d="
M57.625 20.2656
Q57.625 10.8438 50.2656 4.59375
Q42.9219 -1.65625 31.7812 -1.65625
Q19.9688 -1.65625 12.9531 4.4375
Q5.95312 10.5469 5.95312 20.0625
Q5.95312 26.125 9.46875 31.0312
Q12.9844 35.9375 19.3906 38.8125
L19.3906 39.1094
Q13.5312 42.2344 10.7188 45.9375
Q7.90625 49.6562 7.90625 55.2188
Q7.90625 63.4219 14.6406 68.8906
Q21.3906 74.3594 31.7812 74.3594
Q42.6719 74.3594 49.1719 69.1406
Q55.6719 63.9219 55.6719 55.8594
Q55.6719 50.9219 52.5938 46.1562
Q49.5156 41.4062 43.5625 38.7188
L43.5625 38.4219
Q50.3906 35.5 54 31.2031
Q57.625 26.9062 57.625 20.2656
M46.0469 55.7656
Q46.0469 60.9844 42.0156 64.0781
Q37.9844 67.1875 31.7344 67.1875
Q25.5938 67.1875 21.6562 64.25
Q17.7188 61.3281 17.7188 56.3438
Q17.7188 52.8281 19.7031 50.2656
Q21.6875 47.7031 25.6875 45.7031
Q27.4844 44.8281 30.875 43.4062
Q34.2812 42 37.5 41.0625
Q42.3281 44.2812 44.1875 47.75
Q46.0469 51.2188 46.0469 55.7656
M47.5625 19.3438
Q47.5625 23.8281 45.5781 26.5312
Q43.6094 29.25 37.8438 31.9844
Q35.5469 33.0625 32.8125 33.9844
Q30.0781 34.9062 25.5312 36.5781
Q21.1406 34.1875 18.4844 30.0781
Q15.8281 25.9844 15.8281 20.7969
Q15.8281 14.2031 20.3594 9.90625
Q24.9062 5.60938 31.8906 5.60938
Q39.0156 5.60938 43.2812 9.26562
Q47.5625 12.9375 47.5625 19.3438" id="Verdana-38"/>
      </defs>
      <g transform="translate(49.893125 115.6715625)scale(0.12 -0.12)">
       <use xlink:href="#Verdana-30"/>
       <use x="63.57421875" xlink:href="#Verdana-2e"/>
       <use x="99.951171875" xlink:href="#Verdana-38"/>
      </g>
     </g>
    </g>
    <g id="ytick_6">
     <g id="line2d_28">
      <g>
       <use style="stroke:#000000;stroke-width:0.5;" x="72.0" xlink:href="#md7965d1ba0" y="43.2"/>
      </g>
     </g>
     <g id="line2d_29">
      <g>
       <use style="stroke:#000000;stroke-width:0.5;" x="518.4" xlink:href="#md9a1c1a7cd" y="43.2"/>
      </g>
     </g>
     <g id="text_13">
      <!-- 1.0 -->
      <g transform="translate(50.796875 46.5515625)scale(0.12 -0.12)">
       <use xlink:href="#Verdana-31"/>
       <use x="63.57421875" xlink:href="#Verdana-2e"/>
       <use x="99.951171875" xlink:href="#Verdana-30"/>
      </g>
     </g>
    </g>
    <g id="text_14">
     <!-- Data Profile T-0.0000001 -->
     <defs>
      <path d="
M57.3281 50.7344
Q57.3281 45.9062 55.6406 41.7656
Q53.9531 37.6406 50.9219 34.625
Q47.1719 30.8594 42.0469 28.9688
Q36.9219 27.0938 29.1094 27.0938
L19.4375 27.0938
L19.4375 0
L9.76562 0
L9.76562 72.7031
L29.5 72.7031
Q36.0312 72.7031 40.5781 71.6094
Q45.125 70.5156 48.6406 68.1719
Q52.7812 65.375 55.0469 61.2188
Q57.3281 57.0781 57.3281 50.7344
M47.2656 50.4844
Q47.2656 54.25 45.9375 57.0312
Q44.625 59.8125 41.9375 61.5781
Q39.5938 63.0938 36.5938 63.75
Q33.5938 64.4062 29 64.4062
L19.4375 64.4062
L19.4375 35.3594
L27.5938 35.3594
Q33.4531 35.3594 37.1094 36.4062
Q40.7656 37.4531 43.0625 39.75
Q45.3594 42.0938 46.3125 44.6719
Q47.2656 47.2656 47.2656 50.4844" id="Verdana-50"/>
      <path d="
M37.9375 27.3906
L7.46875 27.3906
L7.46875 36.2344
L37.9375 36.2344
z
" id="Verdana-2d"/>
      <path d="
M18.3125 0
L9.125 0
L9.125 75.9844
L18.3125 75.9844
z
" id="Verdana-6c"/>
      <path d="
M43.0625 44.5312
L42.5781 44.5312
Q40.5312 45.0156 38.5938 45.2344
Q36.6719 45.4531 34.0312 45.4531
Q29.7812 45.4531 25.8281 43.5781
Q21.875 41.7031 18.2188 38.7188
L18.2188 0
L9.03125 0
L9.03125 54.5469
L18.2188 54.5469
L18.2188 46.4844
Q23.6875 50.875 27.8594 52.7031
Q32.0312 54.5469 36.375 54.5469
Q38.7656 54.5469 39.8438 54.4219
Q40.9219 54.2969 43.0625 53.9531
z
" id="Verdana-72"/>
      <path d="
M71.1875 36.2812
Q71.1875 26.375 66.8594 18.3125
Q62.5469 10.25 55.375 5.8125
Q50.3906 2.73438 44.2656 1.35938
Q38.1406 0 28.125 0
L9.76562 0
L9.76562 72.7031
L27.9375 72.7031
Q38.5781 72.7031 44.8438 71.1562
Q51.125 69.625 55.4688 66.9375
Q62.8906 62.3125 67.0312 54.5938
Q71.1875 46.875 71.1875 36.2812
M61.0781 36.4219
Q61.0781 44.9688 58.0938 50.8281
Q55.125 56.6875 49.2188 60.0625
Q44.9219 62.5 40.0781 63.4531
Q35.25 64.4062 28.5156 64.4062
L19.4375 64.4062
L19.4375 8.29688
L28.5156 8.29688
Q35.5 8.29688 40.7031 9.32812
Q45.9062 10.3594 50.25 13.1406
Q55.6719 16.6094 58.375 22.2656
Q61.0781 27.9375 61.0781 36.4219" id="Verdana-44"/>
      <path d="
M51.4219 0
L42.2812 0
L42.2812 5.8125
Q41.0625 4.98438 38.9844 3.48438
Q36.9219 2 34.9688 1.125
Q32.6719 0 29.6875 -0.75
Q26.7031 -1.51562 22.7031 -1.51562
Q15.3281 -1.51562 10.2031 3.35938
Q5.07812 8.25 5.07812 15.8281
Q5.07812 22.0156 7.73438 25.8438
Q10.4062 29.6875 15.3281 31.8906
Q20.3125 34.0781 27.2969 34.8594
Q34.2812 35.6406 42.2812 36.0312
L42.2812 37.4531
Q42.2812 40.5781 41.1875 42.625
Q40.0938 44.6719 38.0312 45.8438
Q36.0781 46.9688 33.3438 47.3594
Q30.6094 47.75 27.6406 47.75
Q24.0312 47.75 19.5781 46.7969
Q15.1406 45.8438 10.4062 44.0469
L9.90625 44.0469
L9.90625 53.375
Q12.5938 54.1094 17.6719 54.9844
Q22.75 55.8594 27.6875 55.8594
Q33.4531 55.8594 37.7188 54.9062
Q42 53.9531 45.125 51.6562
Q48.1875 49.4219 49.7969 45.8438
Q51.4219 42.2812 51.4219 37.0156
z

M42.2812 13.4219
L42.2812 28.6094
Q38.0938 28.375 32.3906 27.875
Q26.7031 27.3906 23.3906 26.4688
Q19.4375 25.3438 16.9844 22.9688
Q14.5469 20.6094 14.5469 16.4531
Q14.5469 11.7656 17.375 9.39062
Q20.2188 7.03125 26.0312 7.03125
Q30.8594 7.03125 34.8594 8.90625
Q38.875 10.7969 42.2812 13.4219" id="Verdana-61"/>
      <path d="
M61.625 64.1094
L35.6406 64.1094
L35.6406 0
L25.9844 0
L25.9844 64.1094
L0 64.1094
L0 72.7031
L61.625 72.7031
z
" id="Verdana-54"/>
     </defs>
     <g transform="translate(42.345 291.2503125)rotate(-90.0)scale(0.12 -0.12)">
      <use xlink:href="#Verdana-44"/>
      <use x="77.05078125" xlink:href="#Verdana-61"/>
      <use x="137.109375" xlink:href="#Verdana-74"/>
      <use x="176.513671875" xlink:href="#Verdana-61"/>
      <use x="236.572265625" xlink:href="#Verdana-20"/>
      <use x="271.728515625" xlink:href="#Verdana-50"/>
      <use x="332.03125" xlink:href="#Verdana-72"/>
      <use x="374.70703125" xlink:href="#Verdana-6f"/>
      <use x="435.400390625" xlink:href="#Verdana-66"/>
      <use x="470.556640625" xlink:href="#Verdana-69"/>
      <use x="497.998046875" xlink:href="#Verdana-6c"/>
      <use x="525.439453125" xlink:href="#Verdana-65"/>
      <use x="585.009765625" xlink:href="#Verdana-20"/>
      <use x="620.166015625" xlink:href="#Verdana-54"/>
      <use x="674.412109375" xlink:href="#Verdana-2d"/>
      <use x="719.822265625" xlink:href="#Verdana-30"/>
      <use x="783.396484375" xlink:href="#Verdana-2e"/>
      <use x="819.7734375" xlink:href="#Verdana-30"/>
      <use x="883.34765625" xlink:href="#Verdana-30"/>
      <use x="946.921875" xlink:href="#Verdana-30"/>
      <use x="1010.49609375" xlink:href="#Verdana-30"/>
      <use x="1074.0703125" xlink:href="#Verdana-30"/>
      <use x="1137.64453125" xlink:href="#Verdana-30"/>
      <use x="1201.21875" xlink:href="#Verdana-31"/>
     </g>
    </g>
   </g>
   <g id="patch_3">
    <path d="
M72 388.8
L518.4 388.8" style="fill:none;stroke:#000000;"/>
   </g>
   <g id="patch_4">
    <path d="
M518.4 388.8
L518.4 43.2" style="fill:none;stroke:#000000;"/>
   </g>
   <g id="patch_5">
    <path d="
M72 388.8
L72 43.2" style="fill:none;stroke:#000000;"/>
   </g>
   <g id="patch_6">
    <path d="
M72 43.2
L518.4 43.2" style="fill:none;stroke:#000000;"/>
   </g>
   <g id="text_15">
    <!-- SixHumpCamel Data Profile T-0.0000001 -->
    <defs>
     <path d="
M57.0312 27.9375
Q57.0312 21.2969 55.125 15.7969
Q53.2188 10.2969 49.75 6.5
Q46.5312 2.875 42.1562 0.890625
Q37.7969 -1.07812 32.9062 -1.07812
Q28.6562 -1.07812 25.2188 -0.140625
Q21.7812 0.78125 18.2188 2.73438
L18.2188 -20.125
L9.03125 -20.125
L9.03125 54.5469
L18.2188 54.5469
L18.2188 48.8281
Q21.875 51.9062 26.4375 53.9844
Q31 56.0625 36.1875 56.0625
Q46.0469 56.0625 51.5312 48.6094
Q57.0312 41.1562 57.0312 27.9375
M47.5625 27.6875
Q47.5625 37.5469 44.1875 42.4219
Q40.8281 47.3125 33.8438 47.3125
Q29.8906 47.3125 25.875 45.5938
Q21.875 43.8906 18.2188 41.1094
L18.2188 10.2031
Q22.125 8.45312 24.9219 7.8125
Q27.7344 7.17188 31.2969 7.17188
Q38.9688 7.17188 43.2656 12.3438
Q47.5625 17.5312 47.5625 27.6875" id="Verdana-70"/>
     <path d="
M62.5938 20.75
Q62.5938 16.5 60.6094 12.3438
Q58.6406 8.20312 55.0781 5.32812
Q51.1719 2.20312 45.9688 0.4375
Q40.7656 -1.3125 33.4531 -1.3125
Q25.5938 -1.3125 19.3125 0.140625
Q13.0312 1.60938 6.54688 4.5
L6.54688 16.6094
L7.23438 16.6094
Q12.75 12.0156 19.9688 9.51562
Q27.2031 7.03125 33.5469 7.03125
Q42.5312 7.03125 47.5312 10.3906
Q52.5469 13.7656 52.5469 19.3906
Q52.5469 24.2188 50.1719 26.5156
Q47.7969 28.8125 42.9688 30.0781
Q39.3125 31.0625 35.0312 31.6875
Q30.7656 32.3281 25.9844 33.2969
Q16.3125 35.3594 11.6406 40.3125
Q6.98438 45.2656 6.98438 53.2188
Q6.98438 62.3594 14.6875 68.1875
Q22.4062 74.0312 34.2812 74.0312
Q41.9375 74.0312 48.3281 72.5625
Q54.7344 71.0938 59.6719 68.9531
L59.6719 57.5156
L58.9844 57.5156
Q54.8281 61.0312 48.0625 63.3438
Q41.3125 65.6719 34.2344 65.6719
Q26.4688 65.6719 21.75 62.4531
Q17.0469 59.2344 17.0469 54.1562
Q17.0469 49.6094 19.3906 47.0156
Q21.7344 44.4375 27.6406 43.0625
Q30.7656 42.3906 36.5156 41.4062
Q42.2812 40.4375 46.2969 39.4062
Q54.3906 37.25 58.4844 32.9062
Q62.5938 28.5625 62.5938 20.75" id="Verdana-53"/>
     <path d="
M65.375 0
L55.7188 0
L55.7188 35.5938
L19.4375 35.5938
L19.4375 0
L9.76562 0
L9.76562 72.7031
L19.4375 72.7031
L19.4375 44.1875
L55.7188 44.1875
L55.7188 72.7031
L65.375 72.7031
z
" id="Verdana-48"/>
     <path d="
M88.625 0
L79.4375 0
L79.4375 31.0625
Q79.4375 34.5781 79.125 37.8438
Q78.8125 41.1094 77.7812 43.0625
Q76.6562 45.1719 74.5625 46.2344
Q72.4688 47.3125 68.5 47.3125
Q64.6562 47.3125 60.7969 45.375
Q56.9375 43.4531 53.0781 40.4844
Q53.2188 39.3594 53.3125 37.8594
Q53.4219 36.375 53.4219 34.9062
L53.4219 0
L44.2344 0
L44.2344 31.0625
Q44.2344 34.6719 43.9219 37.9062
Q43.6094 41.1562 42.5781 43.1094
Q41.4531 45.2188 39.3438 46.2656
Q37.25 47.3125 33.2969 47.3125
Q29.5469 47.3125 25.75 45.4531
Q21.9688 43.6094 18.2188 40.7188
L18.2188 0
L9.03125 0
L9.03125 54.5469
L18.2188 54.5469
L18.2188 48.4844
Q22.5156 52.0469 26.7812 54.0469
Q31.0625 56.0625 35.8906 56.0625
Q41.4531 56.0625 45.3281 53.7188
Q49.2188 51.375 51.125 47.2188
Q56.6875 51.9062 61.2812 53.9844
Q65.875 56.0625 71.0938 56.0625
Q80.0781 56.0625 84.3438 50.6094
Q88.625 45.1719 88.625 35.4062
z
" id="Verdana-6d"/>
     <path d="
M65.9219 5.28125
Q63.2344 4.10938 61.0625 3.07812
Q58.8906 2.04688 55.375 0.921875
Q52.3906 0 48.8906 -0.65625
Q45.4062 -1.3125 41.2188 -1.3125
Q33.2969 -1.3125 26.8281 0.90625
Q20.3594 3.125 15.5781 7.85938
Q10.8906 12.5 8.25 19.6562
Q5.60938 26.8125 5.60938 36.2812
Q5.60938 45.2656 8.14062 52.3438
Q10.6875 59.4219 15.4844 64.3125
Q20.125 69.0469 26.6875 71.5312
Q33.25 74.0312 41.2656 74.0312
Q47.125 74.0312 52.9531 72.6094
Q58.7969 71.1875 65.9219 67.625
L65.9219 56.1562
L65.1875 56.1562
Q59.1875 61.1875 53.2656 63.4688
Q47.3594 65.7656 40.625 65.7656
Q35.1094 65.7656 30.6875 63.9844
Q26.2656 62.2031 22.7969 58.4531
Q19.4375 54.7812 17.5469 49.1875
Q15.6719 43.6094 15.6719 36.2812
Q15.6719 28.6094 17.75 23.0938
Q19.8281 17.5781 23.0938 14.1094
Q26.5156 10.5 31.0781 8.76562
Q35.6406 7.03125 40.7188 7.03125
Q47.7031 7.03125 53.7969 9.42188
Q59.9062 11.8125 65.2344 16.6094
L65.9219 16.6094
z
" id="Verdana-43"/>
    </defs>
    <g transform="translate(147.133125 38.2)scale(0.144 -0.144)">
     <use xlink:href="#Verdana-53"/>
     <use x="68.359375" xlink:href="#Verdana-69"/>
     <use x="95.80078125" xlink:href="#Verdana-78"/>
     <use x="154.98046875" xlink:href="#Verdana-48"/>
     <use x="230.126953125" xlink:href="#Verdana-75"/>
     <use x="293.408203125" xlink:href="#Verdana-6d"/>
     <use x="390.673828125" xlink:href="#Verdana-70"/>
     <use x="452.978515625" xlink:href="#Verdana-43"/>
     <use x="522.802734375" xlink:href="#Verdana-61"/>
     <use x="582.861328125" xlink:href="#Verdana-6d"/>
     <use x="680.126953125" xlink:href="#Verdana-65"/>
     <use x="739.697265625" xlink:href="#Verdana-6c"/>
     <use x="767.138671875" xlink:href="#Verdana-20"/>
     <use x="802.294921875" xlink:href="#Verdana-44"/>
     <use x="879.345703125" xlink:href="#Verdana-61"/>
     <use x="939.404296875" xlink:href="#Verdana-74"/>
     <use x="978.80859375" xlink:href="#Verdana-61"/>
     <use x="1038.8671875" xlink:href="#Verdana-20"/>
     <use x="1074.0234375" xlink:href="#Verdana-50"/>
     <use x="1134.326171875" xlink:href="#Verdana-72"/>
     <use x="1177.001953125" xlink:href="#Verdana-6f"/>
     <use x="1237.6953125" xlink:href="#Verdana-66"/>
     <use x="1272.8515625" xlink:href="#Verdana-69"/>
     <use x="1300.29296875" xlink:href="#Verdana-6c"/>
     <use x="1327.734375" xlink:href="#Verdana-65"/>
     <use x="1387.3046875" xlink:href="#Verdana-20"/>
     <use x="1422.4609375" xlink:href="#Verdana-54"/>
     <use x="1476.70703125" xlink:href="#Verdana-2d"/>
     <use x="1522.1171875" xlink:href="#Verdana-30"/>
     <use x="1585.69140625" xlink:href="#Verdana-2e"/>
     <use x="1622.068359375" xlink:href="#Verdana-30"/>
     <use x="1685.642578125" xlink:href="#Verdana-30"/>
     <use x="1749.216796875" xlink:href="#Verdana-30"/>
     <use x="1812.791015625" xlink:href="#Verdana-30"/>
     <use x="1876.365234375" xlink:href="#Verdana-30"/>
     <use x="1939.939453125" xlink:href="#Verdana-30"/>
     <use x="2003.513671875" xlink:href="#Verdana-31"/>
    </g>
   </g>
   <g id="legend_1">
    <g id="patch_7">
     <path d="
M407.18 270.759
L511.2 270.759
L511.2 161.241
L407.18 161.241
L407.18 270.759
z
" style="fill:#ffffff;stroke:#000000;"/>
    </g>
    <g id="line2d_30">
     <path d="
M417.26 172.902
L437.42 172.902" style="fill:none;stroke:#0000ff;stroke-dasharray:6.000000,2.000000;stroke-dashoffset:0.0;"/>
    </g>
    <g id="line2d_31"/>
    <g id="text_16">
     <!-- AMPGO -->
     <defs>
      <path d="
M67.0938 0
L56.7812 0
L49.6562 20.2656
L18.2188 20.2656
L11.0781 0
L1.26562 0
L27.7344 72.7031
L40.625 72.7031
z

M46.6875 28.5625
L33.9375 64.2656
L21.1406 28.5625
z
" id="Verdana-41"/>
      <path d="
M74.5156 0
L64.8438 0
L64.8438 62.6406
L44.625 20.0156
L38.875 20.0156
L18.7969 62.6406
L18.7969 0
L9.76562 0
L9.76562 72.7031
L22.9531 72.7031
L42.3281 32.2344
L61.0781 72.7031
L74.5156 72.7031
z
" id="Verdana-4d"/>
      <path d="
M70.4062 5.375
Q64.4531 2.64062 57.3906 0.609375
Q50.3438 -1.42188 43.75 -1.42188
Q35.25 -1.42188 28.1719 0.921875
Q21.0938 3.26562 16.1094 7.95312
Q11.0781 12.7031 8.34375 19.7969
Q5.60938 26.9062 5.60938 36.4219
Q5.60938 53.8594 15.7969 63.9375
Q25.9844 74.0312 43.75 74.0312
Q49.9531 74.0312 56.4219 72.5312
Q62.8906 71.0469 70.3594 67.4844
L70.3594 56
L69.4844 56
Q67.9688 57.1719 65.0781 59.0781
Q62.2031 60.9844 59.4219 62.25
Q56.0625 63.7656 51.7812 64.7656
Q47.5156 65.7656 42.0938 65.7656
Q29.8906 65.7656 22.7812 57.9219
Q15.6719 50.0938 15.6719 36.7188
Q15.6719 22.6094 23.0938 14.7656
Q30.5156 6.9375 43.3125 6.9375
Q48 6.9375 52.6562 7.85938
Q57.3281 8.79688 60.8438 10.25
L60.8438 28.0781
L41.3594 28.0781
L41.3594 36.5781
L70.4062 36.5781
z
" id="Verdana-47"/>
     </defs>
     <g transform="translate(453.26025 177.942375)scale(0.144 -0.144)">
      <use xlink:href="#Verdana-41"/>
      <use x="68.359375" xlink:href="#Verdana-4d"/>
      <use x="152.63671875" xlink:href="#Verdana-50"/>
      <use x="212.939453125" xlink:href="#Verdana-47"/>
      <use x="290.478515625" xlink:href="#Verdana-4f"/>
     </g>
    </g>
    <g id="line2d_32">
     <path d="
M417.26 193.942
L437.42 193.942" style="fill:none;stroke:#008000;stroke-dasharray:1.000000,1.000000;stroke-dashoffset:0.0;"/>
    </g>
    <g id="line2d_33"/>
    <g id="text_17">
     <!-- Anneal -->
     <g transform="translate(453.26025 198.982125)scale(0.144 -0.144)">
      <use xlink:href="#Verdana-41"/>
      <use x="68.359375" xlink:href="#Verdana-6e"/>
      <use x="131.640625" xlink:href="#Verdana-6e"/>
      <use x="194.921875" xlink:href="#Verdana-65"/>
      <use x="254.4921875" xlink:href="#Verdana-61"/>
      <use x="314.55078125" xlink:href="#Verdana-6c"/>
     </g>
    </g>
    <g id="line2d_34">
     <path d="
M417.26 214.982
L437.42 214.982" style="fill:none;stroke:#ff0000;stroke-dasharray:3.000000,6.000000;stroke-dashoffset:0.0;"/>
    </g>
    <g id="line2d_35"/>
    <g id="text_18">
     <!-- BSA -->
     <defs>
      <path d="
M64.5938 22.3594
Q64.5938 16.9375 62.5469 12.7812
Q60.5 8.64062 57.0312 5.95312
Q52.9375 2.73438 48.0156 1.35938
Q43.1094 0 35.5469 0
L9.76562 0
L9.76562 72.7031
L31.2969 72.7031
Q39.2656 72.7031 43.2188 72.1094
Q47.1719 71.5312 50.7812 69.6719
Q54.7812 67.5781 56.5938 64.2812
Q58.4062 60.9844 58.4062 56.3906
Q58.4062 51.2188 55.7656 47.5781
Q53.125 43.9531 48.7344 41.75
L48.7344 41.3594
Q56.1094 39.8438 60.3438 34.8906
Q64.5938 29.9375 64.5938 22.3594
M48.3438 55.125
Q48.3438 57.7656 47.4531 59.5625
Q46.5781 61.375 44.625 62.5
Q42.3281 63.8125 39.0625 64.125
Q35.7969 64.4531 30.9531 64.4531
L19.4375 64.4531
L19.4375 43.4531
L31.9375 43.4531
Q36.4688 43.4531 39.1562 43.9219
Q41.8438 44.3906 44.1406 45.8438
Q46.4375 47.3125 47.3906 49.625
Q48.3438 51.9531 48.3438 55.125
M54.5469 21.9688
Q54.5469 26.375 53.2188 28.9531
Q51.9062 31.5469 48.4375 33.3438
Q46.0938 34.5781 42.75 34.9375
Q39.4062 35.2969 34.625 35.2969
L19.4375 35.2969
L19.4375 8.25
L32.2344 8.25
Q38.5781 8.25 42.625 8.90625
Q46.6875 9.57812 49.2656 11.3281
Q52 13.2344 53.2656 15.6719
Q54.5469 18.1094 54.5469 21.9688" id="Verdana-42"/>
     </defs>
     <g transform="translate(453.26025 220.021875)scale(0.144 -0.144)">
      <use xlink:href="#Verdana-42"/>
      <use x="68.5546875" xlink:href="#Verdana-53"/>
      <use x="135.9140625" xlink:href="#Verdana-41"/>
     </g>
    </g>
    <g id="line2d_36">
     <path d="
M417.26 236.022
L437.42 236.022" style="fill:none;stroke:#00bfbf;stroke-dasharray:5.000000,1.000000,2.000000,1.000000,5.000000,1.000000;stroke-dashoffset:0.0;"/>
    </g>
    <g id="line2d_37"/>
    <g id="text_19">
     <!-- Cuckoo -->
     <defs>
      <path d="
M58.5469 0
L46.4375 0
L24.5625 23.875
L18.6094 18.2188
L18.6094 0
L9.42188 0
L9.42188 75.9844
L18.6094 75.9844
L18.6094 27.25
L45.125 54.5469
L56.6875 54.5469
L31.3438 29.3438
z
" id="Verdana-6b"/>
     </defs>
     <g transform="translate(453.26025 241.061625)scale(0.144 -0.144)">
      <use xlink:href="#Verdana-43"/>
      <use x="69.82421875" xlink:href="#Verdana-75"/>
      <use x="133.10546875" xlink:href="#Verdana-63"/>
      <use x="185.205078125" xlink:href="#Verdana-6b"/>
      <use x="243.384765625" xlink:href="#Verdana-6f"/>
      <use x="304.078125" xlink:href="#Verdana-6f"/>
     </g>
    </g>
    <g id="line2d_38">
     <path d="
M417.26 257.061
L437.42 257.061" style="fill:none;stroke:#bf00bf;stroke-linecap:square;"/>
    </g>
    <g id="line2d_39"/>
    <g id="text_20">
     <!-- qABC -->
     <defs>
      <path d="
M53.2656 -20.125
L44.0938 -20.125
L44.0938 6.15625
Q39.8438 2.48438 35.6406 0.703125
Q31.4531 -1.07812 26.5625 -1.07812
Q16.8438 -1.07812 11.0625 6.42188
Q5.28125 13.9219 5.28125 27.0938
Q5.28125 34.125 7.29688 39.5156
Q9.32812 44.9219 12.6406 48.5781
Q15.875 52.1562 20.2188 54.1094
Q24.5625 56.0625 29.3906 56.0625
Q33.7969 56.0625 37.1875 55.0781
Q40.5781 54.1094 44.0938 52.2031
L44.6719 54.5469
L53.2656 54.5469
z

M44.0938 13.875
L44.0938 44.7344
Q40.2812 46.4375 37.3438 47.1094
Q34.4219 47.7969 31 47.7969
Q23.0469 47.7969 18.8906 42.4062
Q14.75 37.0156 14.75 27.5469
Q14.75 17.9688 18.0938 12.8125
Q21.4375 7.67188 28.6094 7.67188
Q32.625 7.67188 36.625 9.40625
Q40.625 11.1406 44.0938 13.875" id="Verdana-71"/>
     </defs>
     <g transform="translate(453.26025 262.101375)scale(0.144 -0.144)">
      <use xlink:href="#Verdana-71"/>
      <use x="62.3046875" xlink:href="#Verdana-41"/>
      <use x="130.6640625" xlink:href="#Verdana-42"/>
      <use x="199.21875" xlink:href="#Verdana-43"/>
     </g>
    </g>
   </g>
  </g>
 </g>
 <defs>
  <clipPath id="p7ff5b81e1d">
   <rect height="345.6" width="446.4" x="72.0" y="43.2"/>
  </clipPath>
 </defs>
</svg>
