<?xml version="1.0" encoding="utf-8" standalone="no"?>
<!DOCTYPE svg PUBLIC "-//W3C//DTD SVG 1.1//EN"
  "http://www.w3.org/Graphics/SVG/1.1/DTD/svg11.dtd">
<!-- Created with matplotlib (http://matplotlib.org/) -->
<svg height="432pt" version="1.1" viewBox="0 0 576 432" width="576pt" xmlns="http://www.w3.org/2000/svg" xmlns:xlink="http://www.w3.org/1999/xlink">
 <defs>
  <style type="text/css">
*{stroke-linecap:butt;stroke-linejoin:round;}
  </style>
 </defs>
 <g id="figure_1">
  <g id="patch_1">
   <path d="
M0 432
L576 432
L576 0
L0 0
z
" style="fill:#ffffff;"/>
  </g>
  <g id="axes_1">
   <g id="patch_2">
    <path d="
M72 388.8
L518.4 388.8
L518.4 43.2
L72 43.2
z
" style="fill:#ffffff;"/>
   </g>
   <g id="line2d_1">
    <path clip-path="url(#p7ff5b81e1d)" d="
M72 97.6801
L73.7856 97.6801
L73.9642 141.535
L74.6784 141.535
L74.857 138.706
L75.5712 138.706
L75.7498 135.824
L76.464 135.824
L76.6426 133.428
L77.3568 133.428
L77.5354 131.8
L78.2496 131.8
L78.4282 131.016
L79.1424 131.016
L79.321 130.026
L80.0352 130.026
L80.2138 129.448
L80.928 129.448
L81.1066 128.907
L81.8208 128.907
L81.9994 128.423
L83.6064 128.381
L83.785 128.157
L85.392 128.167
L85.5706 128
L86.2848 128
L86.4634 127.858
L87.1776 127.858
L87.3562 128.236
L89.856 128.234
L90.0346 128.121
L90.7488 128.121
L90.9274 127.599
L91.6416 127.599
L91.8202 127.483
L93.4272 127.411
L93.6058 126.846
L94.32 126.846
L94.4986 126.295
L95.2128 126.295
L95.3914 126.485
L96.9984 126.588
L97.177 126.789
L97.8912 126.789
L98.0698 126.485
L98.784 126.485
L98.9626 125.983
L99.6768 125.983
L99.8554 126.915
L100.57 126.915
L100.748 127.983
L101.462 127.983
L101.641 128.229
L103.248 128.252
L103.427 129.139
L104.141 129.139
L104.319 129.44
L105.034 129.44
L105.212 130.08
L105.926 130.08
L106.105 130.337
L107.712 130.332
L107.891 130.8
L108.605 130.8
L108.783 131.731
L110.39 131.76
L110.569 132.222
L111.283 132.222
L111.462 132.354
L112.176 132.354
L112.355 132.572
L113.069 132.572
L113.247 132.345
L113.962 132.345
L114.14 133.214
L114.854 133.214
L115.033 133.469
L115.747 133.469
L115.926 134.942
L116.64 134.942
L116.819 136.369
L117.533 136.369
L117.711 137.639
L118.426 137.639
L118.515 138.553
L118.604 138.535
L119.318 138.535
L119.497 139.263
L120.211 139.263
L120.39 139.902
L121.104 139.902
L121.193 140.904
L121.283 140.859
L121.997 140.859
L122.175 141.325
L122.89 141.325
L123.068 141.908
L123.782 141.908
L123.961 142.208
L124.675 142.208
L124.854 143.517
L125.568 143.517
L125.747 144.064
L126.461 144.064
L126.639 145.405
L127.354 145.405
L127.711 145.848
L128.246 145.848
L128.425 146.098
L129.139 146.098
L129.228 146.271
L129.407 146.174
L130.032 146.174
L130.211 146.343
L130.925 146.343
L131.103 146.566
L131.818 146.566
L131.996 147.117
L132.71 147.117
L132.889 147.585
L133.603 147.585
L133.692 148.726
L133.782 148.654
L134.496 148.654
L134.675 149.117
L135.389 149.117
L135.567 150.136
L136.282 150.136
L136.46 151.442
L137.264 151.465
L137.442 151.559
L138.067 151.559
L138.246 152.169
L139.049 152.177
L139.228 152.636
L139.853 152.636
L140.031 153.112
L140.835 153.109
L141.013 153.707
L143.424 153.689
L143.513 154.274
L143.603 154.232
L144.317 154.232
L144.406 154.595
L144.495 154.572
L145.299 154.568
L145.477 154.811
L146.102 154.811
L146.281 155.738
L147.084 155.708
L147.263 155.512
L147.888 155.512
L147.977 156.984
L148.067 156.948
L148.781 156.948
L148.959 157.482
L149.674 157.482
L149.852 158.012
L150.656 158.104
L150.834 158.406
L151.459 158.406
L151.727 159.009
L153.245 159.103
L153.334 159.718
L153.423 159.642
L154.048 159.659
L154.227 159.626
L154.405 159.966
L155.03 159.966
L155.388 160.978
L155.923 160.978
L156.28 161.452
L156.816 161.452
L156.905 161.337
L157.084 162.43
L158.602 162.537
L158.869 163.243
L160.387 163.225
L160.744 163.671
L161.369 163.748
L161.637 163.816
L163.066 163.917
L163.244 164.843
L163.958 164.843
L164.048 165.727
L164.137 165.584
L164.851 165.577
L165.03 165.704
L166.637 165.785
L166.905 166.149
L167.53 166.149
L167.619 165.997
L167.797 166.749
L168.422 166.749
L168.69 167.395
L169.404 167.429
L169.583 167.625
L170.297 167.688
L170.476 167.953
L171.101 167.95
L171.369 168.781
L172.083 168.855
L172.261 168.991
L173.779 169.041
L173.958 169.153
L174.315 169.124
L174.761 169.157
L174.94 169.312
L175.565 169.312
L175.654 169.182
L175.833 169.434
L176.458 169.434
L176.636 169.563
L177.35 169.563
L177.529 169.729
L178.332 169.758
L178.511 170.749
L179.225 170.838
L179.404 171.308
L180.118 171.328
L180.297 171.509
L181.011 171.499
L181.189 172.05
L183.6 172.095
L183.868 172.804
L184.671 172.88
L184.85 173.102
L185.475 173.065
L185.653 173.897
L186.368 173.871
L186.546 174.048
L187.171 174.045
L187.439 174.235
L188.064 174.232
L188.243 174.644
L188.957 174.623
L189.046 174.67
L189.225 174.974
L189.939 174.987
L190.117 175.281
L190.832 175.346
L191.01 175.781
L191.724 175.776
L191.814 176.307
L191.903 176.291
L192.528 176.291
L192.617 176.794
L192.707 178.676
L192.796 178.671
L194.314 178.739
L194.403 179.041
L194.581 178.783
L195.296 178.831
L195.385 179.132
L195.564 178.994
L196.099 178.994
L196.367 179.522
L196.813 179.546
L198.063 179.453
L198.242 179.376
L199.76 179.343
L199.849 179.053
L199.938 179.085
L200.117 179.23
L200.652 179.23
L200.742 179.003
L200.831 179.043
L201.545 179.167
L201.724 178.965
L202.438 178.957
L202.527 178.831
L202.706 179.066
L203.331 179.056
L203.509 179.32
L204.313 179.333
L204.492 179.557
L205.116 179.56
L205.295 179.901
L206.009 179.888
L206.099 180.107
L206.188 180.054
L208.688 180.112
L208.866 180.344
L209.58 180.322
L209.759 180.653
L210.473 180.642
L210.652 180.86
L211.366 180.892
L211.723 181.169
L212.259 181.169
L212.437 181.306
L212.795 181.338
L213.241 181.391
L213.42 181.529
L214.848 181.577
L215.294 182.053
L215.919 182.128
L216.187 182.19
L216.634 182.19
L216.812 182.343
L217.616 182.402
L217.794 182.612
L218.419 182.613
L218.598 182.873
L219.491 182.882
L219.669 183.102
L220.294 183.117
L220.383 183.447
L220.473 183.408
L220.651 183.505
L221.365 183.404
L221.901 183.383
L222.169 183.424
L222.437 183.495
L222.972 183.494
L223.151 183.774
L224.758 183.763
L224.937 183.88
L225.383 183.903
L226.633 183.936
L226.812 184.071
L228.329 184.141
L228.776 184.313
L229.311 184.407
L229.49 184.542
L230.204 184.575
L230.383 184.897
L231.811 184.962
L231.99 185.148
L232.168 185.651
L233.686 185.593
L233.865 185.43
L234.847 185.482
L235.025 185.754
L235.472 185.741
L235.65 185.515
L236.364 185.529
L236.543 185.477
L236.722 185.602
L239.043 185.59
L239.311 185.932
L239.757 185.958
L243.507 186.059
L243.864 186.228
L246.989 186.31
L247.078 186.357
L247.346 186.239
L249.846 186.29
L250.024 186.098
L253.417 186.138
L253.596 186.47
L255.292 186.451
L255.47 186.291
L256.095 186.345
L256.274 186.164
L256.452 186.302
L257.792 186.197
L257.97 186.115
L258.595 186.132
L261.452 186.129
L261.631 186.318
L264.22 186.248
L264.398 186.12
L265.202 186.194
L266.898 186.319
L267.077 186.543
L269.487 186.559
L269.666 186.765
L270.023 186.804
L274.041 186.813
L274.219 186.6
L274.933 186.602
L275.112 186.786
L275.826 186.801
L279.219 186.865
L279.665 186.745
L279.844 186.879
L280.29 186.879
L280.469 187.062
L281.808 187.131
L291.004 187.199
L291.182 187.298
L291.807 187.297
L291.986 187.187
L295.646 187.477
L295.914 187.52
L298.057 187.602
L298.236 187.799
L300.11 187.784
L300.378 187.865
L303.414 187.876
L303.592 187.744
L307.253 187.753
L309.217 187.781
L309.396 187.854
L313.235 187.751
L315.109 187.674
L315.288 187.802
L321.895 187.909
L322.52 187.913
L323.323 187.905
L323.502 187.786
L324.127 187.773
L324.305 187.958
L325.02 187.944
L325.912 188.108
L326.18 188.213
L328.055 188.244
L330.644 188.344
L331.001 188.382
L334.84 188.49
L335.197 188.523
L339.304 188.598
L339.483 188.741
L340.197 188.851
L342.876 188.859
L342.965 188.84
L343.143 188.968
L344.75 189.047
L344.929 189.175
L345.554 189.176
L345.732 189.644
L346.982 189.647
L347.161 189.81
L347.34 189.815
L347.607 189.744
L353.768 189.87
L354.036 189.931
L355.018 189.949
L357.964 190.051
L358.41 190.108
L361.624 190.19
L361.981 190.219
L371.624 190.297
L371.981 190.337
L373.499 190.445
L374.124 190.453
L374.391 190.385
L379.837 190.475
L380.195 190.511
L383.319 190.619
L389.48 191.065
L389.926 191.123
L393.229 191.226
L393.676 191.246
L394.301 191.239
L394.479 191.415
L395.819 191.512
L396.444 191.594
L397.872 191.689
L398.051 191.787
L400.818 191.889
L401.8 191.955
L403.14 192.05
L403.586 192.068
L404.032 192.047
L405.55 192.029
L408.139 192.116
L408.407 192.193
L413.05 192.277
L413.228 192.371
L416.174 192.469
L416.71 192.465
L419.388 192.535
L420.906 192.58
L421.174 192.614
L423.495 192.667
L423.763 192.74
L428.138 192.834
L428.852 192.881
L437.066 193.378
L440.28 193.409
L440.369 193.409
L440.548 193.829
L444.655 193.934
L444.833 194.022
L450.19 194.108
L450.547 194.147
L452.601 194.236
L454.743 194.335
L455.368 194.415
L458.761 194.503
L459.029 194.573
L459.743 194.598
L459.922 194.772
L463.314 194.875
L464.296 194.99
L470.1 195.053
L470.367 195.104
L472.689 195.179
L472.956 195.229
L474.921 195.254
L475.278 195.289
L476.706 195.372
L477.063 195.413
L479.117 195.503
L479.474 195.533
L486.884 195.623
L487.063 195.682
L487.956 195.681
L488.938 195.774
L489.563 195.832
L498.758 195.928
L499.026 195.971
L505.99 196.019
L506.169 196.089
L508.579 196.194
L509.026 196.324
L517.239 196.406
L517.507 196.45
L518.311 196.518
L518.311 196.518" style="fill:none;stroke:#0000ff;stroke-dasharray:6.000000,2.000000;stroke-dashoffset:0.0;"/>
   </g>
   <g id="line2d_2">
    <path clip-path="url(#p7ff5b81e1d)" d="
M72 102.936
L72.2678 109.684
L72.5357 118.867
L72.625 120.893
L72.8928 135.147
L72.9821 134.81
L73.1606 142.651
L73.2499 143.446
L74.3213 182.592
L74.5891 188.089
L74.857 195.735
L75.839 229.37
L76.1069 237.581
L76.3747 244.166
L76.6426 250.904
L76.8211 253.968
L77.1782 267.552
L77.4461 274.147
L77.5354 275.059
L78.2496 289.541
L78.3389 289.761
L78.6067 295.308
L78.9638 301.99
L79.1424 304.635
L79.4995 312.568
L80.3923 325.52
L80.928 330.619
L81.1958 335.066
L82.6243 349.44
L82.7136 349.585
L83.0707 352.165
L83.6064 354.902
L83.785 355.637
L83.9635 355.783
L84.1421 356.205
L84.4099 357.042
L84.4992 357.055
L84.6778 357.683
L84.8563 361.375
L84.9456 361.432
L85.1242 363.602
L85.2134 363.761
L85.4813 364.995
L85.6598 365.27
L85.7491 365.515
L86.1062 367.565
L86.2848 367.846
L86.4634 369.933
L86.6419 370.863
L86.9098 372.907
L87.0883 373.839
L87.7133 376.747
L87.8918 376.858
L88.1597 377.061
L88.3382 378.171
L88.5168 378.523
L88.7846 378.708
L88.9632 378.837
L89.1418 379.969
L89.4989 380.04
L89.6774 380.295
L90.3024 381.042
L90.481 381.672
L91.0166 382.142
L91.2845 382.473
L91.463 382.523
L91.6416 382.915
L91.8202 383.922
L92.5344 384.387
L92.713 384.584
L92.9808 384.631
L93.6058 385.35
L93.7843 385.57
L94.4986 385.711
L95.6592 386.2
L95.927 386.556
L96.1949 386.609
L97.7126 386.774
L97.9805 386.879
L99.0518 387.035
L99.2304 387.198
L99.4982 387.217
L99.6768 387.948
L101.105 388.074
L101.73 388.148
L103.516 388.348
L104.409 388.384
L108.873 388.527
L109.14 388.574
L135.567 388.77
L202.527 388.79
L518.311 388.8
L518.311 388.8" style="fill:none;stroke:#008000;stroke-dasharray:1.000000,1.000000;stroke-dashoffset:0.0;"/>
   </g>
   <g id="line2d_3">
    <path clip-path="url(#p7ff5b81e1d)" d="
M72 102.095
L72.2678 194.172
L72.625 236.342
L73.0714 256.82
L73.4285 265.303
L73.6963 270.02
L74.0534 269.216
L74.4106 269.96
L74.6784 268.558
L74.857 269.305
L74.9462 269.199
L75.1248 269.998
L75.2141 269.952
L75.4819 270.259
L75.5712 270.018
L75.6605 269.012
L75.7498 269.144
L75.9283 268.92
L76.1069 269.61
L76.2854 269.524
L76.3747 269.962
L76.464 269.703
L76.6426 268.678
L76.8211 268.322
L77.089 270.028
L77.2675 269.733
L77.5354 271.217
L77.6246 271.671
L77.8032 273.387
L77.9818 273.316
L78.071 273.622
L78.1603 273.576
L78.3389 273.062
L78.5174 273.645
L78.6067 273.179
L78.7853 273.847
L78.9638 273.43
L79.0531 273.858
L79.1424 273.672
L79.4995 274.468
L79.5888 274.519
L79.7674 273.974
L79.8566 274.242
L79.9459 274.115
L80.2138 275.106
L80.3923 276.218
L80.6602 275.535
L80.7494 275.952
L80.8387 275.822
L81.1958 277.877
L81.2851 277.69
L81.553 279.29
L81.8208 279.6
L81.9101 279.302
L82.0886 279.702
L82.2672 280.802
L82.6243 281.264
L82.9814 281.681
L83.2493 282.265
L83.3386 282.374
L83.4278 282.253
L83.5171 282.322
L83.8742 283.877
L83.9635 284.262
L84.0528 283.726
L84.1421 283.918
L84.3206 283.813
L84.4992 285.013
L84.5885 284.95
L84.8563 285.686
L84.9456 285.503
L85.1242 286.145
L85.3027 286.022
L85.4813 286.241
L86.1955 288.324
L86.2848 287.894
L86.3741 287.925
L86.4634 287.8
L86.5526 288.693
L86.6419 288.586
L86.8205 288.683
L86.999 288.984
L87.0883 288.91
L87.2669 289.118
L87.3562 289.419
L87.4454 289.304
L87.5347 289.394
L87.624 290.245
L87.7133 290.139
L88.1597 292.394
L88.3382 293.292
L88.4275 293.364
L88.5168 293.247
L88.6954 293.627
L88.8739 294.138
L89.0525 293.798
L89.1418 293.938
L89.231 294.737
L89.3203 294.7
L89.5882 295.433
L89.6774 295.421
L89.7667 295.287
L89.9453 295.73
L90.3917 297.164
L90.481 296.99
L91.0166 298.124
L91.1059 298.045
L91.3738 298.746
L91.7309 299.838
L91.9094 299.553
L92.3558 300.348
L92.4451 300.258
L92.6237 300.534
L92.713 300.51
L92.8022 300.312
L92.9808 301.379
L93.2486 301.541
L93.6058 302.504
L93.695 302.343
L93.9629 303.175
L94.0522 303.154
L94.1414 303.256
L94.2307 303.833
L94.32 303.733
L94.4093 303.797
L94.6771 304.28
L94.7664 304.163
L95.0342 304.887
L95.1235 304.807
L95.3021 304.446
L95.3914 304.387
L95.5699 304.521
L95.6592 304.338
L95.7485 304.657
L96.0163 306.157
L96.2842 306.541
L96.4627 306.183
L96.552 306.166
L96.6413 306.474
L96.7306 306.219
L96.8198 306.261
L97.4448 308.297
L97.7126 308.56
L97.8912 309.042
L97.9805 309.055
L98.0698 309.918
L98.159 309.882
L98.3376 309.961
L98.4269 310.415
L98.5162 310.393
L98.6947 310.507
L98.784 310.504
L98.9626 311.563
L99.0518 311.64
L99.1411 312.103
L99.2304 312.036
L99.3197 312.06
L99.5875 312.528
L99.6768 312.381
L101.105 315.554
L101.195 315.437
L101.641 316.253
L101.82 316.68
L101.909 316.59
L102.087 317.078
L102.355 317.658
L102.444 317.629
L103.159 319.26
L103.337 320.101
L103.516 320.351
L103.694 320.695
L103.962 320.865
L104.141 320.751
L104.23 320.834
L104.409 321.982
L104.676 321.876
L105.301 323.793
L105.391 323.884
L105.569 324.174
L105.748 324.219
L106.016 323.963
L106.105 323.961
L106.373 324.55
L106.462 324.532
L106.73 325.5
L106.819 325.644
L106.998 326.135
L107.533 326.6
L107.712 326.701
L108.158 328.036
L108.248 327.987
L108.605 328.452
L108.694 328.426
L108.873 328.771
L109.051 328.68
L109.23 329.041
L109.408 329.071
L109.498 329.381
L109.587 329.326
L109.765 329.396
L109.944 329.274
L110.033 329.525
L110.123 329.47
L110.48 330.098
L110.748 330.189
L111.015 330.869
L111.283 330.805
L111.551 331.472
L111.64 331.431
L111.819 331.507
L112.444 332.453
L112.533 332.448
L113.069 333.392
L113.247 333.542
L113.604 333.628
L113.872 334.175
L113.962 334.077
L114.051 334.053
L114.319 334.501
L114.408 334.576
L114.587 335.041
L114.765 335.007
L114.854 335.151
L115.122 336.447
L115.479 337.1
L115.658 337.301
L116.194 337.306
L116.372 337.638
L116.551 337.588
L116.819 338.677
L117.265 338.783
L117.354 338.769
L117.622 339.213
L117.89 339.31
L118.068 339.825
L118.247 340.078
L118.426 339.979
L118.783 340.506
L118.961 340.451
L119.051 340.474
L119.408 341.254
L120.033 341.305
L120.836 341.747
L121.015 342.326
L121.193 342.524
L121.372 342.48
L122.175 342.94
L122.354 343.785
L122.443 343.804
L122.622 344.026
L123.336 344.133
L123.693 344.407
L124.318 345.514
L124.497 345.606
L124.586 345.684
L124.764 345.654
L125.032 345.648
L125.3 346.017
L125.479 346.026
L125.568 346.207
L125.747 346.824
L126.104 347.022
L126.372 346.958
L127.264 347.923
L127.443 347.929
L127.889 348.268
L128.068 348.386
L128.336 348.354
L128.514 348.585
L128.693 348.705
L128.871 349.061
L129.139 349.155
L129.407 349.58
L130.121 349.75
L130.3 349.929
L131.103 350.251
L131.282 350.411
L131.46 350.461
L131.639 350.77
L132.085 351.237
L132.264 351.28
L132.353 351.3
L132.532 351.607
L132.71 351.649
L132.889 351.754
L133.068 351.761
L133.871 351.898
L134.228 352.074
L134.496 352.085
L134.675 352.134
L134.853 352.35
L135.389 352.286
L135.567 352.325
L135.657 352.621
L135.746 352.589
L136.192 352.814
L136.282 352.781
L136.46 353.239
L136.639 353.267
L136.907 353.295
L137.621 353.498
L138.424 354.008
L138.603 354.213
L138.692 354.183
L138.871 354.308
L138.96 354.275
L139.139 354.958
L139.317 354.967
L139.496 355.254
L140.031 355.401
L140.299 355.847
L140.567 356.057
L140.746 356.052
L140.924 356.363
L141.103 356.356
L141.281 356.635
L141.549 356.648
L141.817 357.211
L141.996 357.336
L142.174 357.758
L142.263 357.743
L142.531 357.979
L142.71 358.026
L142.888 358.284
L143.156 358.46
L143.335 358.467
L143.96 358.822
L144.138 358.803
L144.317 358.955
L144.585 359.088
L145.924 360.129
L146.102 360.692
L146.192 360.895
L146.281 360.855
L146.549 361.093
L146.727 361.26
L146.906 361.237
L147.084 361.516
L147.442 361.599
L147.531 362.061
L147.62 362.034
L147.709 362.032
L147.888 362.211
L148.245 362.301
L148.513 362.438
L148.959 362.632
L149.138 362.902
L149.316 362.899
L149.584 363.121
L150.031 363.101
L150.924 363.692
L151.102 363.897
L151.638 364.094
L152.263 364.135
L152.352 364.134
L152.531 364.342
L152.709 364.318
L152.888 364.552
L153.245 364.621
L153.334 364.696
L153.513 365.035
L153.691 365.083
L154.048 365.167
L154.227 365.299
L155.03 366.02
L155.209 366.38
L155.566 366.466
L156.37 366.694
L156.548 366.911
L156.816 366.959
L156.995 367.005
L157.173 367.421
L157.887 367.491
L158.066 367.694
L158.423 367.982
L158.869 368.023
L159.048 368.289
L159.227 368.462
L159.673 368.53
L159.852 368.589
L161.905 368.985
L162.173 369.07
L162.351 369.06
L162.619 369.343
L162.887 369.456
L163.155 369.538
L163.512 369.707
L163.78 369.792
L164.048 369.921
L164.405 370.056
L164.94 370.105
L166.19 370.782
L166.458 370.895
L166.548 370.897
L166.905 371.18
L167.172 371.217
L167.351 371.333
L168.155 371.417
L168.422 371.62
L168.869 371.658
L169.047 371.983
L169.94 372.162
L170.654 372.277
L170.833 372.4
L171.904 372.563
L172.261 372.614
L172.44 372.775
L172.619 372.768
L172.797 372.958
L173.511 372.984
L174.226 373.022
L177.975 373.344
L178.154 373.457
L179.315 373.584
L180.297 374.152
L186.457 375.009
L186.814 375.131
L187.439 375.221
L187.796 375.343
L188.243 375.437
L192.171 376.549
L195.206 377.008
L195.742 377.247
L196.724 377.447
L197.438 377.51
L204.849 378.659
L205.027 378.854
L205.474 379.155
L206.277 379.219
L206.456 379.379
L207.17 379.585
L207.884 379.631
L208.152 379.701
L208.688 379.777
L210.384 380.047
L210.652 380.205
L219.044 381.307
L219.58 381.397
L219.758 381.534
L220.651 381.66
L223.687 381.989
L225.472 382.098
L225.829 382.201
L227.347 382.298
L227.615 382.386
L229.936 382.544
L230.651 382.625
L235.829 383.365
L236.454 383.468
L240.025 383.721
L240.382 383.889
L241.721 383.961
L244.043 384.062
L244.31 384.125
L245.65 384.217
L248.239 384.555
L250.024 384.659
L250.56 384.684
L251.631 384.748
L251.899 384.887
L253.06 384.935
L254.042 385.046
L255.738 385.129
L255.917 385.135
L256.095 385.254
L258.238 385.349
L258.595 385.381
L261.541 385.472
L262.791 385.691
L269.666 386.187
L269.844 386.368
L272.701 386.475
L274.398 386.494
L278.594 386.641
L281.362 386.823
L284.129 386.891
L292.432 387.051
L293.236 387.083
L295.111 387.178
L295.825 387.23
L301.896 387.387
L303.057 387.414
L333.769 388.054
L371.088 388.388
L392.604 388.492
L423.228 388.608
L518.311 388.764
L518.311 388.764" style="fill:none;stroke:#ff0000;stroke-dasharray:3.000000,6.000000;stroke-dashoffset:0.0;"/>
   </g>
   <g id="line2d_4">
    <path clip-path="url(#p7ff5b81e1d)" d="
M72 97.8069
L72.0893 166.986
L72.1786 190.654
L72.5357 234.772
L72.8928 252.904
L73.4285 268.376
L73.5178 269.695
L73.6963 273.941
L74.0534 274.253
L74.232 274.56
L74.6784 274.836
L75.4819 275.026
L75.5712 275.469
L75.6605 275.19
L75.7498 274.417
L75.9283 274.858
L76.0176 274.568
L76.1962 275.237
L76.2854 274.742
L76.464 275.206
L76.5533 275.121
L76.6426 275.331
L76.7318 275.194
L76.8211 275.462
L76.9104 275.407
L76.9997 275.473
L77.2675 276.13
L77.4461 276.2
L77.9818 276.442
L78.1603 276.487
L78.3389 276.775
L78.6067 276.764
L78.7853 277.186
L78.9638 277.317
L79.0531 277.46
L79.1424 277.221
L79.321 277.815
L79.5888 278.023
L79.6781 278.446
L79.8566 278.191
L80.303 280.011
L80.3923 280.149
L80.4816 280.021
L80.5709 279.569
L80.928 280.766
L81.3744 281.118
L81.4637 280.924
L82.0886 281.113
L82.2672 281.292
L82.3565 281.155
L82.7136 281.733
L82.8029 281.895
L82.9814 282.776
L83.16 282.548
L83.2493 282.588
L83.5171 283.888
L83.6064 283.632
L83.785 284.193
L83.8742 284.835
L83.9635 284.618
L84.1421 285.474
L84.2314 285.359
L84.4992 286.277
L85.0349 286.479
L85.2134 286.733
L85.392 286.686
L85.8384 287.114
L86.017 287.336
L86.1062 287.376
L86.1955 287.608
L86.2848 287.518
L86.3741 287.905
L86.4634 287.801
L86.5526 287.634
L86.6419 287.833
L86.7312 287.723
L86.8205 288.006
L87.0883 289.616
L87.5347 292.003
L87.624 291.863
L87.8918 293.171
L88.0704 293.65
L88.3382 293.895
L88.6061 294.037
L88.8739 294.076
L89.0525 294.205
L89.231 294.296
L89.4096 294.466
L89.4989 294.618
L89.6774 294.529
L89.7667 294.573
L89.9453 295.182
L90.0346 294.974
L90.2131 295.59
L90.3024 295.538
L90.481 295.771
L90.7488 297.64
L91.0166 298.268
L91.1952 299.83
L91.2845 299.808
L91.8202 301.042
L92.088 301.17
L92.3558 301.217
L92.5344 301.421
L92.713 301.411
L92.8915 301.439
L93.1594 301.686
L93.3379 301.752
L93.695 303.221
L93.8736 303.963
L94.6771 307.807
L94.7664 307.553
L95.0342 308.346
L96.1056 308.861
L96.3734 309.221
L96.9091 309.429
L97.177 310.291
L97.2662 310.422
L97.5341 311.395
L97.8019 311.894
L97.9805 312.153
L98.0698 312.641
L98.159 312.587
L98.6054 313.786
L99.1411 313.817
L99.5875 313.909
L99.8554 314.156
L100.034 314.148
L100.302 314.345
L100.391 314.365
L100.659 314.754
L100.748 314.781
L100.927 315.945
L101.462 317.48
L101.552 317.549
L101.73 318.217
L101.909 318.943
L102.444 319.412
L102.802 319.535
L102.98 319.621
L103.159 319.871
L103.516 319.864
L103.694 319.913
L104.052 320.143
L104.23 320.276
L104.498 321.621
L104.766 322.547
L104.855 322.576
L105.391 324.259
L105.659 324.633
L105.837 325.119
L106.016 325.249
L106.194 325.342
L106.998 325.602
L107.266 325.965
L107.623 326.307
L107.801 326.246
L107.891 326.364
L107.98 326.274
L108.248 327.134
L108.337 327.61
L108.426 327.523
L108.516 327.738
L108.694 328.526
L108.873 328.691
L109.14 329.143
L109.498 329.788
L110.212 329.928
L110.39 330.057
L110.658 330.04
L111.194 330.196
L111.64 331.47
L111.997 332.32
L112.176 332.787
L112.265 332.653
L112.533 332.847
L112.801 333.086
L112.98 333.267
L113.872 333.612
L114.587 333.714
L114.944 333.955
L115.033 333.902
L115.301 334.856
L115.479 335.214
L115.569 335.177
L116.372 336.59
L116.461 336.635
L116.64 336.855
L117.444 337.039
L117.89 337.159
L118.158 337.276
L118.426 337.496
L118.604 338.269
L118.693 338.296
L118.961 339.502
L119.14 339.872
L119.408 340.913
L119.497 340.924
L119.765 341.584
L119.854 341.665
L120.033 341.635
L120.211 341.776
L121.55 342.164
L121.997 342.451
L122.265 343.249
L122.443 343.386
L122.89 343.941
L123.068 344.267
L123.247 344.327
L123.515 344.789
L123.782 345.006
L123.961 345.044
L124.229 345.147
L125.479 345.369
L125.925 346.382
L126.282 346.777
L126.461 347.066
L126.55 346.965
L127.086 347.781
L127.264 347.8
L128.425 348.133
L128.604 348.29
L129.228 348.45
L129.318 348.525
L129.675 349.274
L129.943 349.446
L130.121 349.448
L130.389 349.824
L130.568 350.012
L130.746 350.144
L130.925 350.3
L131.907 350.441
L132.532 350.578
L132.71 350.809
L133.425 352.029
L134.228 352.871
L136.192 353.282
L136.639 353.865
L136.728 353.891
L136.907 354.134
L137.264 354.232
L137.532 354.488
L137.621 354.467
L137.978 354.751
L138.603 354.875
L139.317 354.954
L139.496 355.09
L139.942 355.2
L140.388 355.613
L140.656 355.809
L140.835 356.062
L140.924 356.082
L141.103 356.377
L141.371 357.132
L141.638 357.407
L142.799 357.587
L142.978 357.692
L143.335 357.791
L143.513 357.95
L143.781 358.477
L144.138 358.755
L144.317 358.992
L144.763 359.195
L144.942 359.584
L145.299 359.772
L146.906 359.905
L147.174 360.083
L147.531 360.593
L148.245 361.189
L148.424 361.368
L149.049 361.684
L149.763 361.778
L150.031 361.839
L150.566 361.965
L150.834 362.234
L151.191 362.308
L151.459 362.834
L151.727 362.922
L152.263 363.419
L152.977 363.489
L153.156 363.575
L154.138 363.656
L154.316 363.809
L154.852 364.59
L155.12 364.669
L155.388 364.908
L155.655 365.217
L155.923 365.377
L157.798 365.5
L158.155 366.016
L158.959 366.547
L159.405 366.888
L161.191 367.034
L161.637 367.41
L161.905 367.58
L162.084 367.708
L162.441 367.816
L163.066 368.109
L164.94 368.361
L165.208 368.61
L165.476 368.959
L166.726 369.521
L168.512 369.842
L169.672 370.255
L169.762 370.23
L170.387 370.8
L172.083 371.074
L172.261 371.267
L172.529 371.365
L172.708 371.497
L172.886 371.517
L173.065 371.739
L175.208 372.149
L175.743 372.306
L176.368 372.652
L176.815 372.846
L178.154 373.124
L179.225 373.292
L179.582 373.644
L180.029 373.832
L180.832 374.325
L182.975 374.405
L183.6 374.682
L183.779 374.749
L184.314 375.014
L184.671 375.089
L186.189 375.164
L188.421 376.068
L190.475 376.281
L190.921 376.465
L192.26 376.677
L193.867 376.817
L194.314 376.951
L194.939 377.224
L195.206 377.347
L196.903 377.383
L197.171 377.492
L197.438 377.575
L197.974 377.866
L198.331 377.89
L198.599 377.966
L198.867 378.019
L200.742 378.12
L200.92 378.173
L201.188 378.387
L201.456 378.482
L202.081 378.593
L202.795 378.657
L203.331 378.684
L204.134 378.707
L204.759 379.061
L205.206 379.166
L205.831 379.421
L207.973 379.555
L209.491 379.844
L210.652 379.908
L213.062 380.664
L215.027 380.752
L215.652 380.878
L216.991 381.049
L219.758 381.363
L220.116 381.436
L221.99 381.553
L222.615 381.683
L224.669 381.988
L225.919 382.09
L226.633 382.245
L226.99 382.323
L228.686 382.425
L230.204 382.586
L230.74 382.69
L231.811 382.706
L233.15 382.848
L235.74 383.108
L236.989 383.239
L238.239 383.374
L239.757 383.43
L239.936 383.502
L241.275 383.62
L241.9 383.658
L244.043 383.771
L247.167 384.009
L247.971 384.157
L248.685 384.257
L251.185 384.393
L253.238 384.569
L254.756 384.69
L292.432 386.643
L294.218 386.749
L296.182 386.784
L300.021 386.889
L305.378 387.055
L310.199 387.197
L315.467 387.32
L317.252 387.364
L332.787 387.693
L409.925 388.456
L518.311 388.732
L518.311 388.732" style="fill:none;stroke:#00bfbf;stroke-dasharray:5.000000,1.000000,2.000000,1.000000,5.000000,1.000000;stroke-dashoffset:0.0;"/>
   </g>
   <g id="line2d_5">
    <path clip-path="url(#p7ff5b81e1d)" d="
M72 92.2484
L72.0893 156.386
L72.2678 205.985
L72.4464 220.767
L73.2499 261.929
L73.3392 262.539
L73.7856 271.826
L74.0534 272.483
L74.232 272.347
L74.3213 272.122
L74.4998 272.833
L74.5891 272.629
L74.7677 273.053
L74.9462 273.121
L75.0355 273.184
L75.1248 273
L75.4819 273.866
L75.839 268.802
L75.9283 269.399
L76.0176 270.994
L76.1962 269.927
L76.464 272.756
L76.5533 273.023
L76.7318 272.627
L76.8211 272.837
L76.9997 274.347
L77.8032 277.18
L78.071 277.246
L78.3389 278.396
L78.5174 278.383
L78.6067 278.247
L78.8746 278.642
L78.9638 278.644
L79.4995 282.896
L79.5888 282.858
L80.928 299.865
L81.1958 299.995
L81.553 300.588
L81.8208 301.079
L81.9101 300.994
L82.2672 301.018
L82.3565 301.141
L82.4458 301.516
L82.535 301.474
L82.6243 301.556
L82.8922 304.124
L83.0707 307.141
L83.3386 309.487
L83.8742 316.786
L84.4099 324.147
L84.4992 324.13
L84.9456 324.182
L85.8384 324.668
L86.017 325.016
L86.1955 325.006
L86.7312 329.528
L88.0704 342.923
L89.4989 343.105
L89.6774 343.248
L89.7667 343.255
L89.856 343.505
L90.7488 349.472
L90.9274 350.375
L91.1952 352.375
L91.6416 353.688
L91.9094 353.764
L92.1773 353.812
L92.2666 353.808
L92.4451 354.104
L92.8022 354.191
L93.1594 354.268
L93.2486 354.268
L93.3379 354.435
L93.695 358.065
L94.0522 358.605
L94.4093 360.265
L94.6771 360.948
L95.0342 361.951
L95.2128 363.008
L96.1949 363.053
L96.3734 363.586
L96.9091 363.618
L97.0877 363.901
L97.2662 365.495
L97.4448 365.845
L97.8019 366.752
L98.0698 367.75
L98.2483 368.148
L98.4269 368.294
L98.6947 368.542
L98.8733 368.685
L99.7661 368.732
L99.9446 370.218
L100.48 370.218
L101.105 371.31
L101.195 371.34
L101.373 371.737
L101.552 371.854
L101.909 372.118
L102.087 372.175
L102.266 372.561
L103.337 372.578
L103.516 373.099
L104.052 373.1
L104.23 376.317
L104.766 376.636
L105.034 377.477
L105.123 377.631
L105.301 378.762
L105.926 378.931
L106.998 378.938
L107.176 379.081
L107.98 379.172
L108.158 380.554
L108.337 381.015
L108.426 381.017
L108.605 382.951
L108.783 384.201
L109.051 384.226
L109.23 384.462
L109.944 384.536
L111.64 384.643
L111.819 384.65
L111.997 384.783
L112.355 384.837
L112.533 385.287
L113.426 385.349
L115.122 385.417
L115.212 385.579
L115.39 386.747
L115.658 386.863
L116.015 387.244
L118.872 387.373
L119.051 387.383
L119.229 387.577
L122.89 387.784
L123.604 387.861
L123.782 388.074
L126.907 388.188
L127.711 388.208
L133.425 388.312
L136.46 388.357
L161.101 388.631
L453.315 388.735
L518.311 388.735
L518.311 388.735" style="fill:none;stroke:#bf00bf;stroke-linecap:square;"/>
   </g>
   <g id="matplotlib.axis_1">
    <g id="xtick_1">
     <g id="line2d_6">
      <defs>
       <path d="
M0 0
L0 -4" id="mc7db9fdffb" style="stroke:#000000;stroke-width:0.5;"/>
      </defs>
      <g>
       <use style="stroke:#000000;stroke-width:0.5;" x="72.0" xlink:href="#mc7db9fdffb" y="388.8"/>
      </g>
     </g>
     <g id="line2d_7">
      <defs>
       <path d="
M0 0
L0 4" id="m5a7d422ac3" style="stroke:#000000;stroke-width:0.5;"/>
      </defs>
      <g>
       <use style="stroke:#000000;stroke-width:0.5;" x="72.0" xlink:href="#m5a7d422ac3" y="43.2"/>
      </g>
     </g>
     <g id="text_1">
      <!-- 0 -->
      <defs>
       <path d="
M56.9844 36.375
Q56.9844 16.7969 50.8594 7.64062
Q44.7344 -1.51562 31.8438 -1.51562
Q18.75 -1.51562 12.7188 7.76562
Q6.6875 17.0469 6.6875 36.2812
Q6.6875 55.6719 12.7812 64.9219
Q18.8906 74.1719 31.8438 74.1719
Q44.9219 74.1719 50.9531 64.7656
Q56.9844 55.375 56.9844 36.375
M44.1406 14.2031
Q45.8438 18.1719 46.4531 23.5156
Q47.0781 28.8594 47.0781 36.375
Q47.0781 43.7969 46.4531 49.2656
Q45.8438 54.7344 44.0938 58.5469
Q42.3906 62.3125 39.4219 64.2031
Q36.4688 66.1094 31.8438 66.1094
Q27.25 66.1094 24.2344 64.2031
Q21.2344 62.3125 19.4844 58.4531
Q17.8281 54.8281 17.2188 49.0156
Q16.6094 43.2188 16.6094 36.2812
Q16.6094 28.6562 17.1406 23.5312
Q17.6719 18.4062 19.4375 14.3594
Q21.0469 10.5469 24 8.54688
Q26.9531 6.54688 31.8438 6.54688
Q36.4219 6.54688 39.4531 8.45312
Q42.4844 10.3594 44.1406 14.2031" id="Verdana-30"/>
      </defs>
      <g transform="translate(68.9821875 401.918125)scale(0.12 -0.12)">
       <use xlink:href="#Verdana-30"/>
      </g>
     </g>
    </g>
    <g id="xtick_2">
     <g id="line2d_8">
      <g>
       <use style="stroke:#000000;stroke-width:0.5;" x="161.28" xlink:href="#mc7db9fdffb" y="388.8"/>
      </g>
     </g>
     <g id="line2d_9">
      <g>
       <use style="stroke:#000000;stroke-width:0.5;" x="161.28" xlink:href="#m5a7d422ac3" y="43.2"/>
      </g>
     </g>
     <g id="text_2">
      <!-- 1000 -->
      <defs>
       <path d="
M52.9375 0
L13.5781 0
L13.5781 7.42188
L28.7188 7.42188
L28.7188 56.1562
L13.5781 56.1562
L13.5781 62.7969
Q16.6562 62.7969 20.1719 63.2969
Q23.6875 63.8125 25.4844 64.7969
Q27.7344 66.0156 29.0312 67.8906
Q30.3281 69.7812 30.5156 72.9531
L38.0938 72.9531
L38.0938 7.42188
L52.9375 7.42188
z
" id="Verdana-31"/>
      </defs>
      <g transform="translate(147.2315625 401.918125)scale(0.12 -0.12)">
       <use xlink:href="#Verdana-31"/>
       <use x="63.57421875" xlink:href="#Verdana-30"/>
       <use x="127.1484375" xlink:href="#Verdana-30"/>
       <use x="190.72265625" xlink:href="#Verdana-30"/>
      </g>
     </g>
    </g>
    <g id="xtick_3">
     <g id="line2d_10">
      <g>
       <use style="stroke:#000000;stroke-width:0.5;" x="250.56" xlink:href="#mc7db9fdffb" y="388.8"/>
      </g>
     </g>
     <g id="line2d_11">
      <g>
       <use style="stroke:#000000;stroke-width:0.5;" x="250.56" xlink:href="#m5a7d422ac3" y="43.2"/>
      </g>
     </g>
     <g id="text_3">
      <!-- 2000 -->
      <defs>
       <path d="
M57.0781 0
L7.85938 0
L7.85938 10.2031
Q12.9844 14.5938 18.1406 18.9844
Q23.2969 23.3906 27.7344 27.7344
Q37.1094 36.8125 40.5781 42.1562
Q44.0469 47.5156 44.0469 53.7188
Q44.0469 59.375 40.3125 62.5625
Q36.5781 65.7656 29.8906 65.7656
Q25.4375 65.7656 20.2656 64.2031
Q15.0938 62.6406 10.1562 59.4219
L9.67188 59.4219
L9.67188 69.6719
Q13.1406 71.3906 18.9219 72.7969
Q24.7031 74.2188 30.125 74.2188
Q41.3125 74.2188 47.6562 68.8125
Q54 63.4219 54 54.2031
Q54 50.0469 52.9531 46.4531
Q51.9062 42.875 49.8594 39.6562
Q47.9531 36.625 45.3906 33.6875
Q42.8281 30.7656 39.1562 27.2031
Q33.9375 22.0781 28.3594 17.2656
Q22.7969 12.4531 17.9688 8.34375
L57.0781 8.34375
z
" id="Verdana-32"/>
      </defs>
      <g transform="translate(236.1684375 401.918125)scale(0.12 -0.12)">
       <use xlink:href="#Verdana-32"/>
       <use x="63.57421875" xlink:href="#Verdana-30"/>
       <use x="127.1484375" xlink:href="#Verdana-30"/>
       <use x="190.72265625" xlink:href="#Verdana-30"/>
      </g>
     </g>
    </g>
    <g id="xtick_4">
     <g id="line2d_12">
      <g>
       <use style="stroke:#000000;stroke-width:0.5;" x="339.84" xlink:href="#mc7db9fdffb" y="388.8"/>
      </g>
     </g>
     <g id="line2d_13">
      <g>
       <use style="stroke:#000000;stroke-width:0.5;" x="339.84" xlink:href="#m5a7d422ac3" y="43.2"/>
      </g>
     </g>
     <g id="text_4">
      <!-- 3000 -->
      <defs>
       <path d="
M50.6875 35.0156
Q53.0312 32.9062 54.5469 29.7344
Q56.0625 26.5625 56.0625 21.5312
Q56.0625 16.5469 54.25 12.3906
Q52.4375 8.25 49.1719 5.17188
Q45.5156 1.76562 40.5469 0.125
Q35.5938 -1.51562 29.6875 -1.51562
Q23.6406 -1.51562 17.7812 -0.0625
Q11.9219 1.375 8.15625 3.07812
L8.15625 13.2812
L8.89062 13.2812
Q13.0312 10.5469 18.6406 8.73438
Q24.2656 6.9375 29.5 6.9375
Q32.5625 6.9375 36.0312 7.95312
Q39.5 8.98438 41.6562 10.9844
Q43.8906 13.1406 44.9844 15.7188
Q46.0938 18.3125 46.0938 22.2656
Q46.0938 26.1719 44.8438 28.7344
Q43.6094 31.2969 41.4062 32.7656
Q39.2031 34.2812 36.0781 34.8438
Q32.9531 35.4062 29.3438 35.4062
L24.9531 35.4062
L24.9531 43.5
L28.375 43.5
Q35.7969 43.5 40.2031 46.5938
Q44.625 49.7031 44.625 55.6719
Q44.625 58.2969 43.5 60.2656
Q42.3906 62.25 40.375 63.5312
Q38.2812 64.7969 35.8906 65.2812
Q33.5 65.7656 30.4688 65.7656
Q25.8281 65.7656 20.5938 64.1094
Q15.375 62.4531 10.75 59.4219
L10.25 59.4219
L10.25 69.625
Q13.7188 71.3438 19.5 72.7812
Q25.2969 74.2188 30.7188 74.2188
Q36.0312 74.2188 40.0781 73.2344
Q44.1406 72.2656 47.4062 70.125
Q50.9219 67.7812 52.7344 64.4531
Q54.5469 61.1406 54.5469 56.6875
Q54.5469 50.6406 50.2656 46.125
Q46 41.6094 40.1875 40.4375
L40.1875 39.75
Q42.5312 39.3594 45.5469 38.1094
Q48.5781 36.8594 50.6875 35.0156" id="Verdana-33"/>
      </defs>
      <g transform="translate(325.46625 401.918125)scale(0.12 -0.12)">
       <use xlink:href="#Verdana-33"/>
       <use x="63.57421875" xlink:href="#Verdana-30"/>
       <use x="127.1484375" xlink:href="#Verdana-30"/>
       <use x="190.72265625" xlink:href="#Verdana-30"/>
      </g>
     </g>
    </g>
    <g id="xtick_5">
     <g id="line2d_14">
      <g>
       <use style="stroke:#000000;stroke-width:0.5;" x="429.12" xlink:href="#mc7db9fdffb" y="388.8"/>
      </g>
     </g>
     <g id="line2d_15">
      <g>
       <use style="stroke:#000000;stroke-width:0.5;" x="429.12" xlink:href="#m5a7d422ac3" y="43.2"/>
      </g>
     </g>
     <g id="text_5">
      <!-- 4000 -->
      <defs>
       <path d="
M58.7344 20.4531
L47.9531 20.4531
L47.9531 0
L38.5781 0
L38.5781 20.4531
L3.76562 20.4531
L3.76562 31.6875
L38.9688 72.7031
L47.9531 72.7031
L47.9531 28.2656
L58.7344 28.2656
z

M38.5781 28.2656
L38.5781 61.0781
L10.4062 28.2656
z
" id="Verdana-34"/>
      </defs>
      <g transform="translate(414.4828125 401.918125)scale(0.12 -0.12)">
       <use xlink:href="#Verdana-34"/>
       <use x="63.57421875" xlink:href="#Verdana-30"/>
       <use x="127.1484375" xlink:href="#Verdana-30"/>
       <use x="190.72265625" xlink:href="#Verdana-30"/>
      </g>
     </g>
    </g>
    <g id="xtick_6">
     <g id="line2d_16">
      <g>
       <use style="stroke:#000000;stroke-width:0.5;" x="518.4" xlink:href="#mc7db9fdffb" y="388.8"/>
      </g>
     </g>
     <g id="line2d_17">
      <g>
       <use style="stroke:#000000;stroke-width:0.5;" x="518.4" xlink:href="#m5a7d422ac3" y="43.2"/>
      </g>
     </g>
     <g id="text_6">
      <!-- 5000 -->
      <defs>
       <path d="
M56.5 23.0938
Q56.5 18.0156 54.6406 13.375
Q52.7812 8.73438 49.5625 5.5625
Q46.0469 2.15625 41.1875 0.3125
Q36.3281 -1.51562 29.9375 -1.51562
Q23.9688 -1.51562 18.4531 -0.265625
Q12.9375 0.984375 9.125 2.73438
L9.125 13.0312
L9.8125 13.0312
Q13.8125 10.5 19.1875 8.71875
Q24.5625 6.9375 29.7344 6.9375
Q33.2031 6.9375 36.4531 7.90625
Q39.7031 8.89062 42.2344 11.3281
Q44.3906 13.4219 45.4844 16.3438
Q46.5781 19.2812 46.5781 23.1406
Q46.5781 26.9062 45.2812 29.4844
Q44 32.0781 41.7031 33.6406
Q39.1562 35.5 35.5156 36.25
Q31.8906 37.0156 27.3906 37.0156
Q23.0938 37.0156 19.1094 36.4219
Q15.1406 35.8438 12.25 35.25
L12.25 72.7031
L56 72.7031
L56 64.1562
L21.6875 64.1562
L21.6875 44.8281
Q23.7812 45.0156 25.9688 45.1094
Q28.1719 45.2188 29.7812 45.2188
Q35.6875 45.2188 40.125 44.2188
Q44.5781 43.2188 48.2969 40.6719
Q52.2031 37.9844 54.3438 33.7344
Q56.5 29.5 56.5 23.0938" id="Verdana-35"/>
      </defs>
      <g transform="translate(504.084375 401.918125)scale(0.12 -0.12)">
       <use xlink:href="#Verdana-35"/>
       <use x="63.57421875" xlink:href="#Verdana-30"/>
       <use x="127.1484375" xlink:href="#Verdana-30"/>
       <use x="190.72265625" xlink:href="#Verdana-30"/>
      </g>
     </g>
    </g>
    <g id="text_7">
     <!-- Objective function exectuions -->
     <defs>
      <path d="
M57.0312 27.6875
Q57.0312 20.8438 55.0938 15.375
Q53.1719 9.90625 49.9062 6.20312
Q46.4375 2.34375 42.2812 0.40625
Q38.1406 -1.51562 33.1562 -1.51562
Q28.5156 -1.51562 25.0469 -0.40625
Q21.5781 0.6875 18.2188 2.54688
L17.625 0
L9.03125 0
L9.03125 75.9844
L18.2188 75.9844
L18.2188 48.8281
Q22.0781 52 26.4219 54.0312
Q30.7656 56.0625 36.1875 56.0625
Q45.8438 56.0625 51.4375 48.6406
Q57.0312 41.2188 57.0312 27.6875
M47.5625 27.4375
Q47.5625 37.2031 44.3281 42.25
Q41.1094 47.3125 33.9375 47.3125
Q29.9375 47.3125 25.8281 45.5781
Q21.7344 43.8438 18.2188 41.1094
L18.2188 9.85938
Q22.125 8.10938 24.9219 7.42188
Q27.7344 6.73438 31.2969 6.73438
Q38.9219 6.73438 43.2344 11.7344
Q47.5625 16.75 47.5625 27.4375" id="Verdana-62"/>
      <path d="
M56.2031 54.5469
L34.125 0
L24.9062 0
L2.98438 54.5469
L12.9375 54.5469
L29.8281 11.1406
L46.5781 54.5469
z
" id="Verdana-76"/>
      <path d="
M56.25 0
L44.6719 0
L29.2031 20.9531
L13.625 0
L2.9375 0
L24.2188 27.2031
L3.125 54.5469
L14.7031 54.5469
L30.0781 33.9375
L45.5156 54.5469
L56.25 54.5469
L34.8125 27.6875
z
" id="Verdana-78"/>
      <path d="
M54.6875 26.3125
L14.5 26.3125
Q14.5 21.2969 16.0156 17.5469
Q17.5312 13.8125 20.1719 11.4219
Q22.7031 9.07812 26.1875 7.90625
Q29.6875 6.73438 33.8906 6.73438
Q39.4531 6.73438 45.0938 8.95312
Q50.7344 11.1875 53.125 13.3281
L53.6094 13.3281
L53.6094 3.32812
Q48.9688 1.375 44.1406 0.046875
Q39.3125 -1.26562 33.9844 -1.26562
Q20.4062 -1.26562 12.7812 6.07812
Q5.17188 13.4219 5.17188 26.9531
Q5.17188 40.3281 12.4688 48.1875
Q19.7812 56.0625 31.6875 56.0625
Q42.7188 56.0625 48.7031 49.6094
Q54.6875 43.1719 54.6875 31.2969
z

M45.75 33.3438
Q45.7031 40.5781 42.1094 44.5312
Q38.5312 48.4844 31.2031 48.4844
Q23.8281 48.4844 19.4531 44.1406
Q15.0938 39.7969 14.5 33.3438
z
" id="Verdana-65"/>
      <path d="
M49.3594 3.42188
Q44.7812 1.21875 40.6562 0
Q36.5312 -1.21875 31.8906 -1.21875
Q25.9844 -1.21875 21.0469 0.515625
Q16.1094 2.25 12.5938 5.76562
Q9.03125 9.28125 7.07812 14.6406
Q5.125 20.0156 5.125 27.2031
Q5.125 40.5781 12.4688 48.1875
Q19.8281 55.8125 31.8906 55.8125
Q36.5781 55.8125 41.0938 54.4844
Q45.6094 53.1719 49.3594 51.2656
L49.3594 41.0625
L48.875 41.0625
Q44.6719 44.3438 40.2031 46.0938
Q35.75 47.8594 31.5 47.8594
Q23.6875 47.8594 19.1719 42.6094
Q14.6562 37.3594 14.6562 27.2031
Q14.6562 17.3281 19.0625 12.0312
Q23.4844 6.73438 31.5 6.73438
Q34.2812 6.73438 37.1562 7.46875
Q40.0469 8.20312 42.3281 9.375
Q44.3438 10.4062 46.0938 11.5469
Q47.8594 12.7031 48.875 13.5312
L49.3594 13.5312
z
" id="Verdana-63"/>
      <path d="
M26.0312 63.6719
L15.6719 63.6719
L15.6719 73.1875
L26.0312 73.1875
z

M25.4375 -1.3125
Q25.4375 -10.8906 20.5469 -15.7656
Q15.6719 -20.6562 7.46875 -20.6562
Q5.51562 -20.6562 2.3125 -20.2656
Q-0.875 -19.875 -3.03125 -19.2812
L-3.03125 -10.5469
L-2.54688 -10.5469
Q-1.17188 -11.0781 1.14062 -11.7656
Q3.46875 -12.4531 5.67188 -12.4531
Q9.1875 -12.4531 11.3281 -11.4688
Q13.4844 -10.5 14.5469 -8.54688
Q15.625 -6.59375 15.9375 -3.82812
Q16.2656 -1.07812 16.2656 2.875
L16.2656 46.8281
L4.89062 46.8281
L4.89062 54.5469
L25.4375 54.5469
z
" id="Verdana-6a"/>
      <path d="
M18.8906 63.6719
L8.54688 63.6719
L8.54688 73.1875
L18.8906 73.1875
z

M18.3125 0
L9.125 0
L9.125 54.5469
L18.3125 54.5469
z
" id="Verdana-69"/>
      <path d="
M54.6406 0
L45.4531 0
L45.4531 31.0625
Q45.4531 34.8125 45.0156 38.1094
Q44.5781 41.4062 43.4062 43.2656
Q42.1875 45.3125 39.8906 46.3125
Q37.5938 47.3125 33.9375 47.3125
Q30.1719 47.3125 26.0625 45.4531
Q21.9688 43.6094 18.2188 40.7188
L18.2188 0
L9.03125 0
L9.03125 54.5469
L18.2188 54.5469
L18.2188 48.4844
Q22.5156 52.0469 27.0938 54.0469
Q31.6875 56.0625 36.5312 56.0625
Q45.3594 56.0625 50 50.7344
Q54.6406 45.4062 54.6406 35.4062
z
" id="Verdana-6e"/>
      <path d="
M48 15.7188
Q48 8.25 41.8125 3.46875
Q35.6406 -1.3125 24.9531 -1.3125
Q18.8906 -1.3125 13.8438 0.125
Q8.79688 1.5625 5.375 3.26562
L5.375 13.5781
L5.85938 13.5781
Q10.2031 10.2969 15.5156 8.375
Q20.8438 6.45312 25.7344 6.45312
Q31.7812 6.45312 35.2031 8.40625
Q38.625 10.3594 38.625 14.5469
Q38.625 17.7812 36.7656 19.4375
Q34.9062 21.0938 29.6406 22.2656
Q27.6875 22.7031 24.5312 23.2812
Q21.3906 23.875 18.7969 24.5625
Q11.625 26.4688 8.60938 30.1562
Q5.60938 33.8438 5.60938 39.2031
Q5.60938 42.5781 7 45.5469
Q8.40625 48.5312 11.2344 50.875
Q13.9688 53.1719 18.1875 54.5156
Q22.4062 55.8594 27.6406 55.8594
Q32.5156 55.8594 37.5156 54.6562
Q42.5312 53.4688 45.8438 51.7656
L45.8438 41.9375
L45.3594 41.9375
Q41.8438 44.5312 36.8125 46.3125
Q31.7812 48.0938 26.9531 48.0938
Q21.9219 48.0938 18.4531 46.1562
Q14.9844 44.2344 14.9844 40.4375
Q14.9844 37.0625 17.0938 35.3594
Q19.1406 33.6406 23.7344 32.5625
Q26.2656 31.9844 29.4062 31.3906
Q32.5625 30.8125 34.6719 30.3281
Q41.0625 28.8594 44.5312 25.2969
Q48 21.6875 48 15.7188" id="Verdana-73"/>
      <path d="
M38.375 67.0938
L37.8906 67.0938
Q36.375 67.5312 33.9375 67.9844
Q31.5 68.4531 29.6406 68.4531
Q23.7344 68.4531 21.0625 65.8438
Q18.4062 63.2344 18.4062 56.3906
L18.4062 54.5469
L34.9688 54.5469
L34.9688 46.8281
L18.7031 46.8281
L18.7031 0
L9.51562 0
L9.51562 46.8281
L3.32812 46.8281
L3.32812 54.5469
L9.51562 54.5469
L9.51562 56.3438
Q9.51562 66.0625 14.3438 71.2656
Q19.1875 76.4688 28.3281 76.4688
Q31.3906 76.4688 33.8594 76.1719
Q36.3281 75.875 38.375 75.4844
z
" id="Verdana-66"/>
      <path id="Verdana-20"/>
      <path d="
M63.9688 64.3594
Q68.4062 59.4688 70.7656 52.3906
Q73.1406 45.3125 73.1406 36.3281
Q73.1406 27.3438 70.7188 20.2344
Q68.3125 13.1406 63.9688 8.40625
Q59.4688 3.46875 53.3438 0.96875
Q47.2188 -1.51562 39.3594 -1.51562
Q31.6875 -1.51562 25.4062 1.01562
Q19.1406 3.5625 14.75 8.40625
Q10.3594 13.2344 7.98438 20.2656
Q5.60938 27.2969 5.60938 36.3281
Q5.60938 45.2188 7.95312 52.2656
Q10.2969 59.3281 14.7969 64.3594
Q19.0938 69.1406 25.4688 71.6719
Q31.8438 74.2188 39.3594 74.2188
Q47.1719 74.2188 53.3906 71.6562
Q59.625 69.0938 63.9688 64.3594
M63.0938 36.3281
Q63.0938 50.4844 56.7344 58.1719
Q50.3906 65.875 39.4062 65.875
Q28.3281 65.875 22 58.1719
Q15.6719 50.4844 15.6719 36.3281
Q15.6719 22.0156 22.1094 14.4219
Q28.5625 6.84375 39.4062 6.84375
Q50.25 6.84375 56.6719 14.4219
Q63.0938 22.0156 63.0938 36.3281" id="Verdana-4f"/>
      <path d="
M55.5156 27.25
Q55.5156 13.9219 48.6719 6.20312
Q41.8438 -1.51562 30.375 -1.51562
Q18.7969 -1.51562 11.9844 6.20312
Q5.17188 13.9219 5.17188 27.25
Q5.17188 40.5781 11.9844 48.3125
Q18.7969 56.0625 30.375 56.0625
Q41.8438 56.0625 48.6719 48.3125
Q55.5156 40.5781 55.5156 27.25
M46.0469 27.25
Q46.0469 37.8438 41.8906 42.9844
Q37.75 48.1406 30.375 48.1406
Q22.9062 48.1406 18.7812 42.9844
Q14.6562 37.8438 14.6562 27.25
Q14.6562 17 18.7969 11.6875
Q22.9531 6.39062 30.375 6.39062
Q37.7031 6.39062 41.875 11.6406
Q46.0469 16.8906 46.0469 27.25" id="Verdana-6f"/>
      <path d="
M37.3594 0.484375
Q34.7656 -0.203125 31.7031 -0.640625
Q28.6562 -1.07812 26.2656 -1.07812
Q17.9219 -1.07812 13.5781 3.40625
Q9.23438 7.90625 9.23438 17.8281
L9.23438 46.8281
L3.03125 46.8281
L3.03125 54.5469
L9.23438 54.5469
L9.23438 70.2188
L18.4062 70.2188
L18.4062 54.5469
L37.3594 54.5469
L37.3594 46.8281
L18.4062 46.8281
L18.4062 21.9688
Q18.4062 17.6719 18.5938 15.25
Q18.7969 12.8438 19.9688 10.75
Q21.0469 8.79688 22.9219 7.89062
Q24.8125 6.98438 28.6562 6.98438
Q30.9062 6.98438 33.3438 7.64062
Q35.7969 8.29688 36.8594 8.73438
L37.3594 8.73438
z
" id="Verdana-74"/>
      <path d="
M54.25 0
L45.0625 0
L45.0625 6.0625
Q40.4375 2.39062 36.1875 0.4375
Q31.9375 -1.51562 26.8125 -1.51562
Q18.2188 -1.51562 13.4219 3.73438
Q8.64062 8.98438 8.64062 19.1406
L8.64062 54.5469
L17.8281 54.5469
L17.8281 23.4844
Q17.8281 19.3438 18.2188 16.375
Q18.6094 13.4219 19.875 11.3281
Q21.1875 9.1875 23.2812 8.20312
Q25.3906 7.23438 29.3906 7.23438
Q32.9531 7.23438 37.1719 9.07812
Q41.4062 10.9375 45.0625 13.8125
L45.0625 54.5469
L54.25 54.5469
z
" id="Verdana-75"/>
     </defs>
     <g transform="translate(206.5078125 418.509375)scale(0.12 -0.12)">
      <use xlink:href="#Verdana-4f"/>
      <use x="78.7109375" xlink:href="#Verdana-62"/>
      <use x="141.015625" xlink:href="#Verdana-6a"/>
      <use x="175.439453125" xlink:href="#Verdana-65"/>
      <use x="235.009765625" xlink:href="#Verdana-63"/>
      <use x="287.109375" xlink:href="#Verdana-74"/>
      <use x="326.513671875" xlink:href="#Verdana-69"/>
      <use x="353.955078125" xlink:href="#Verdana-76"/>
      <use x="412.259765625" xlink:href="#Verdana-65"/>
      <use x="471.830078125" xlink:href="#Verdana-20"/>
      <use x="506.986328125" xlink:href="#Verdana-66"/>
      <use x="542.142578125" xlink:href="#Verdana-75"/>
      <use x="605.423828125" xlink:href="#Verdana-6e"/>
      <use x="668.705078125" xlink:href="#Verdana-63"/>
      <use x="720.8046875" xlink:href="#Verdana-74"/>
      <use x="760.208984375" xlink:href="#Verdana-69"/>
      <use x="787.650390625" xlink:href="#Verdana-6f"/>
      <use x="848.34375" xlink:href="#Verdana-6e"/>
      <use x="911.625" xlink:href="#Verdana-20"/>
      <use x="946.78125" xlink:href="#Verdana-65"/>
      <use x="1006.3515625" xlink:href="#Verdana-78"/>
      <use x="1064.40625" xlink:href="#Verdana-65"/>
      <use x="1123.9765625" xlink:href="#Verdana-63"/>
      <use x="1176.076171875" xlink:href="#Verdana-74"/>
      <use x="1215.48046875" xlink:href="#Verdana-75"/>
      <use x="1278.76171875" xlink:href="#Verdana-69"/>
      <use x="1306.203125" xlink:href="#Verdana-6f"/>
      <use x="1366.896484375" xlink:href="#Verdana-6e"/>
      <use x="1430.177734375" xlink:href="#Verdana-73"/>
     </g>
    </g>
   </g>
   <g id="matplotlib.axis_2">
    <g id="ytick_1">
     <g id="line2d_18">
      <defs>
       <path d="
M0 0
L4 0" id="md7965d1ba0" style="stroke:#000000;stroke-width:0.5;"/>
      </defs>
      <g>
       <use style="stroke:#000000;stroke-width:0.5;" x="72.0" xlink:href="#md7965d1ba0" y="388.8"/>
      </g>
     </g>
     <g id="line2d_19">
      <defs>
       <path d="
M0 0
L-4 0" id="md9a1c1a7cd" style="stroke:#000000;stroke-width:0.5;"/>
      </defs>
      <g>
       <use style="stroke:#000000;stroke-width:0.5;" x="518.4" xlink:href="#md9a1c1a7cd" y="388.8"/>
      </g>
     </g>
     <g id="text_8">
      <!-- 0 -->
      <g transform="translate(61.964375 392.1515625)scale(0.12 -0.12)">
       <use xlink:href="#Verdana-30"/>
      </g>
     </g>
    </g>
    <g id="ytick_2">
     <g id="line2d_20">
      <g>
       <use style="stroke:#000000;stroke-width:0.5;" x="72.0" xlink:href="#md7965d1ba0" y="319.68"/>
      </g>
     </g>
     <g id="line2d_21">
      <g>
       <use style="stroke:#000000;stroke-width:0.5;" x="518.4" xlink:href="#md9a1c1a7cd" y="319.68"/>
      </g>
     </g>
     <g id="text_9">
      <!-- 50000 -->
      <g transform="translate(31.739375 323.0315625)scale(0.12 -0.12)">
       <use xlink:href="#Verdana-35"/>
       <use x="63.57421875" xlink:href="#Verdana-30"/>
       <use x="127.1484375" xlink:href="#Verdana-30"/>
       <use x="190.72265625" xlink:href="#Verdana-30"/>
       <use x="254.296875" xlink:href="#Verdana-30"/>
      </g>
     </g>
    </g>
    <g id="ytick_3">
     <g id="line2d_22">
      <g>
       <use style="stroke:#000000;stroke-width:0.5;" x="72.0" xlink:href="#md7965d1ba0" y="250.56"/>
      </g>
     </g>
     <g id="line2d_23">
      <g>
       <use style="stroke:#000000;stroke-width:0.5;" x="518.4" xlink:href="#md9a1c1a7cd" y="250.56"/>
      </g>
     </g>
     <g id="text_10">
      <!-- 100000 -->
      <g transform="translate(24.644375 253.9115625)scale(0.12 -0.12)">
       <use xlink:href="#Verdana-31"/>
       <use x="63.57421875" xlink:href="#Verdana-30"/>
       <use x="127.1484375" xlink:href="#Verdana-30"/>
       <use x="190.72265625" xlink:href="#Verdana-30"/>
       <use x="254.296875" xlink:href="#Verdana-30"/>
       <use x="317.87109375" xlink:href="#Verdana-30"/>
      </g>
     </g>
    </g>
    <g id="ytick_4">
     <g id="line2d_24">
      <g>
       <use style="stroke:#000000;stroke-width:0.5;" x="72.0" xlink:href="#md7965d1ba0" y="181.44"/>
      </g>
     </g>
     <g id="line2d_25">
      <g>
       <use style="stroke:#000000;stroke-width:0.5;" x="518.4" xlink:href="#md9a1c1a7cd" y="181.44"/>
      </g>
     </g>
     <g id="text_11">
      <!-- 150000 -->
      <g transform="translate(24.644375 184.7915625)scale(0.12 -0.12)">
       <use xlink:href="#Verdana-31"/>
       <use x="63.57421875" xlink:href="#Verdana-35"/>
       <use x="127.1484375" xlink:href="#Verdana-30"/>
       <use x="190.72265625" xlink:href="#Verdana-30"/>
       <use x="254.296875" xlink:href="#Verdana-30"/>
       <use x="317.87109375" xlink:href="#Verdana-30"/>
      </g>
     </g>
    </g>
    <g id="ytick_5">
     <g id="line2d_26">
      <g>
       <use style="stroke:#000000;stroke-width:0.5;" x="72.0" xlink:href="#md7965d1ba0" y="112.32"/>
      </g>
     </g>
     <g id="line2d_27">
      <g>
       <use style="stroke:#000000;stroke-width:0.5;" x="518.4" xlink:href="#md9a1c1a7cd" y="112.32"/>
      </g>
     </g>
     <g id="text_12">
      <!-- 200000 -->
      <g transform="translate(23.958125 115.6715625)scale(0.12 -0.12)">
       <use xlink:href="#Verdana-32"/>
       <use x="63.57421875" xlink:href="#Verdana-30"/>
       <use x="127.1484375" xlink:href="#Verdana-30"/>
       <use x="190.72265625" xlink:href="#Verdana-30"/>
       <use x="254.296875" xlink:href="#Verdana-30"/>
       <use x="317.87109375" xlink:href="#Verdana-30"/>
      </g>
     </g>
    </g>
    <g id="ytick_6">
     <g id="line2d_28">
      <g>
       <use style="stroke:#000000;stroke-width:0.5;" x="72.0" xlink:href="#md7965d1ba0" y="43.2"/>
      </g>
     </g>
     <g id="line2d_29">
      <g>
       <use style="stroke:#000000;stroke-width:0.5;" x="518.4" xlink:href="#md9a1c1a7cd" y="43.2"/>
      </g>
     </g>
     <g id="text_13">
      <!-- 250000 -->
      <g transform="translate(23.958125 46.5515625)scale(0.12 -0.12)">
       <use xlink:href="#Verdana-32"/>
       <use x="63.57421875" xlink:href="#Verdana-35"/>
       <use x="127.1484375" xlink:href="#Verdana-30"/>
       <use x="190.72265625" xlink:href="#Verdana-30"/>
       <use x="254.296875" xlink:href="#Verdana-30"/>
       <use x="317.87109375" xlink:href="#Verdana-30"/>
      </g>
     </g>
    </g>
    <g id="text_14">
     <!-- Standard Deviation -->
     <defs>
      <path d="
M51.4219 0
L42.2812 0
L42.2812 5.8125
Q41.0625 4.98438 38.9844 3.48438
Q36.9219 2 34.9688 1.125
Q32.6719 0 29.6875 -0.75
Q26.7031 -1.51562 22.7031 -1.51562
Q15.3281 -1.51562 10.2031 3.35938
Q5.07812 8.25 5.07812 15.8281
Q5.07812 22.0156 7.73438 25.8438
Q10.4062 29.6875 15.3281 31.8906
Q20.3125 34.0781 27.2969 34.8594
Q34.2812 35.6406 42.2812 36.0312
L42.2812 37.4531
Q42.2812 40.5781 41.1875 42.625
Q40.0938 44.6719 38.0312 45.8438
Q36.0781 46.9688 33.3438 47.3594
Q30.6094 47.75 27.6406 47.75
Q24.0312 47.75 19.5781 46.7969
Q15.1406 45.8438 10.4062 44.0469
L9.90625 44.0469
L9.90625 53.375
Q12.5938 54.1094 17.6719 54.9844
Q22.75 55.8594 27.6875 55.8594
Q33.4531 55.8594 37.7188 54.9062
Q42 53.9531 45.125 51.6562
Q48.1875 49.4219 49.7969 45.8438
Q51.4219 42.2812 51.4219 37.0156
z

M42.2812 13.4219
L42.2812 28.6094
Q38.0938 28.375 32.3906 27.875
Q26.7031 27.3906 23.3906 26.4688
Q19.4375 25.3438 16.9844 22.9688
Q14.5469 20.6094 14.5469 16.4531
Q14.5469 11.7656 17.375 9.39062
Q20.2188 7.03125 26.0312 7.03125
Q30.8594 7.03125 34.8594 8.90625
Q38.875 10.7969 42.2812 13.4219" id="Verdana-61"/>
      <path d="
M71.1875 36.2812
Q71.1875 26.375 66.8594 18.3125
Q62.5469 10.25 55.375 5.8125
Q50.3906 2.73438 44.2656 1.35938
Q38.1406 0 28.125 0
L9.76562 0
L9.76562 72.7031
L27.9375 72.7031
Q38.5781 72.7031 44.8438 71.1562
Q51.125 69.625 55.4688 66.9375
Q62.8906 62.3125 67.0312 54.5938
Q71.1875 46.875 71.1875 36.2812
M61.0781 36.4219
Q61.0781 44.9688 58.0938 50.8281
Q55.125 56.6875 49.2188 60.0625
Q44.9219 62.5 40.0781 63.4531
Q35.25 64.4062 28.5156 64.4062
L19.4375 64.4062
L19.4375 8.29688
L28.5156 8.29688
Q35.5 8.29688 40.7031 9.32812
Q45.9062 10.3594 50.25 13.1406
Q55.6719 16.6094 58.375 22.2656
Q61.0781 27.9375 61.0781 36.4219" id="Verdana-44"/>
      <path d="
M43.0625 44.5312
L42.5781 44.5312
Q40.5312 45.0156 38.5938 45.2344
Q36.6719 45.4531 34.0312 45.4531
Q29.7812 45.4531 25.8281 43.5781
Q21.875 41.7031 18.2188 38.7188
L18.2188 0
L9.03125 0
L9.03125 54.5469
L18.2188 54.5469
L18.2188 46.4844
Q23.6875 50.875 27.8594 52.7031
Q32.0312 54.5469 36.375 54.5469
Q38.7656 54.5469 39.8438 54.4219
Q40.9219 54.2969 43.0625 53.9531
z
" id="Verdana-72"/>
      <path d="
M62.5938 20.75
Q62.5938 16.5 60.6094 12.3438
Q58.6406 8.20312 55.0781 5.32812
Q51.1719 2.20312 45.9688 0.4375
Q40.7656 -1.3125 33.4531 -1.3125
Q25.5938 -1.3125 19.3125 0.140625
Q13.0312 1.60938 6.54688 4.5
L6.54688 16.6094
L7.23438 16.6094
Q12.75 12.0156 19.9688 9.51562
Q27.2031 7.03125 33.5469 7.03125
Q42.5312 7.03125 47.5312 10.3906
Q52.5469 13.7656 52.5469 19.3906
Q52.5469 24.2188 50.1719 26.5156
Q47.7969 28.8125 42.9688 30.0781
Q39.3125 31.0625 35.0312 31.6875
Q30.7656 32.3281 25.9844 33.2969
Q16.3125 35.3594 11.6406 40.3125
Q6.98438 45.2656 6.98438 53.2188
Q6.98438 62.3594 14.6875 68.1875
Q22.4062 74.0312 34.2812 74.0312
Q41.9375 74.0312 48.3281 72.5625
Q54.7344 71.0938 59.6719 68.9531
L59.6719 57.5156
L58.9844 57.5156
Q54.8281 61.0312 48.0625 63.3438
Q41.3125 65.6719 34.2344 65.6719
Q26.4688 65.6719 21.75 62.4531
Q17.0469 59.2344 17.0469 54.1562
Q17.0469 49.6094 19.3906 47.0156
Q21.7344 44.4375 27.6406 43.0625
Q30.7656 42.3906 36.5156 41.4062
Q42.2812 40.4375 46.2969 39.4062
Q54.3906 37.25 58.4844 32.9062
Q62.5938 28.5625 62.5938 20.75" id="Verdana-53"/>
      <path d="
M53.2656 0
L44.0938 0
L44.0938 5.71875
Q40.1406 2.29688 35.8438 0.390625
Q31.5469 -1.51562 26.5156 -1.51562
Q16.75 -1.51562 11.0156 6
Q5.28125 13.5312 5.28125 26.8594
Q5.28125 33.7969 7.25 39.2031
Q9.23438 44.625 12.5938 48.4375
Q15.9219 52.1562 20.3281 54.1094
Q24.75 56.0625 29.5 56.0625
Q33.7969 56.0625 37.1094 55.1562
Q40.4375 54.25 44.0938 52.3438
L44.0938 75.9844
L53.2656 75.9844
z

M44.0938 13.4219
L44.0938 44.7344
Q40.375 46.3906 37.4375 47.0156
Q34.5156 47.6562 31.0625 47.6562
Q23.3438 47.6562 19.0469 42.2812
Q14.75 36.9219 14.75 27.0469
Q14.75 17.3281 18.0625 12.2812
Q21.3906 7.23438 28.7188 7.23438
Q32.625 7.23438 36.625 8.95312
Q40.625 10.6875 44.0938 13.4219" id="Verdana-64"/>
     </defs>
     <g transform="translate(16.543125 273.5465625)rotate(-90.0)scale(0.12 -0.12)">
      <use xlink:href="#Verdana-53"/>
      <use x="68.359375" xlink:href="#Verdana-74"/>
      <use x="107.763671875" xlink:href="#Verdana-61"/>
      <use x="167.822265625" xlink:href="#Verdana-6e"/>
      <use x="231.103515625" xlink:href="#Verdana-64"/>
      <use x="293.408203125" xlink:href="#Verdana-61"/>
      <use x="353.466796875" xlink:href="#Verdana-72"/>
      <use x="396.142578125" xlink:href="#Verdana-64"/>
      <use x="458.447265625" xlink:href="#Verdana-20"/>
      <use x="493.603515625" xlink:href="#Verdana-44"/>
      <use x="570.654296875" xlink:href="#Verdana-65"/>
      <use x="630.224609375" xlink:href="#Verdana-76"/>
      <use x="689.404296875" xlink:href="#Verdana-69"/>
      <use x="716.845703125" xlink:href="#Verdana-61"/>
      <use x="776.904296875" xlink:href="#Verdana-74"/>
      <use x="816.30859375" xlink:href="#Verdana-69"/>
      <use x="843.75" xlink:href="#Verdana-6f"/>
      <use x="904.443359375" xlink:href="#Verdana-6e"/>
     </g>
    </g>
   </g>
   <g id="patch_3">
    <path d="
M72 43.2
L518.4 43.2" style="fill:none;stroke:#000000;"/>
   </g>
   <g id="patch_4">
    <path d="
M72 388.8
L72 43.2" style="fill:none;stroke:#000000;"/>
   </g>
   <g id="patch_5">
    <path d="
M518.4 388.8
L518.4 43.2" style="fill:none;stroke:#000000;"/>
   </g>
   <g id="patch_6">
    <path d="
M72 388.8
L518.4 388.8" style="fill:none;stroke:#000000;"/>
   </g>
   <g id="text_15">
    <!-- Trigonometric02 Standard Deviation -->
    <defs>
     <path d="
M88.625 0
L79.4375 0
L79.4375 31.0625
Q79.4375 34.5781 79.125 37.8438
Q78.8125 41.1094 77.7812 43.0625
Q76.6562 45.1719 74.5625 46.2344
Q72.4688 47.3125 68.5 47.3125
Q64.6562 47.3125 60.7969 45.375
Q56.9375 43.4531 53.0781 40.4844
Q53.2188 39.3594 53.3125 37.8594
Q53.4219 36.375 53.4219 34.9062
L53.4219 0
L44.2344 0
L44.2344 31.0625
Q44.2344 34.6719 43.9219 37.9062
Q43.6094 41.1562 42.5781 43.1094
Q41.4531 45.2188 39.3438 46.2656
Q37.25 47.3125 33.2969 47.3125
Q29.5469 47.3125 25.75 45.4531
Q21.9688 43.6094 18.2188 40.7188
L18.2188 0
L9.03125 0
L9.03125 54.5469
L18.2188 54.5469
L18.2188 48.4844
Q22.5156 52.0469 26.7812 54.0469
Q31.0625 56.0625 35.8906 56.0625
Q41.4531 56.0625 45.3281 53.7188
Q49.2188 51.375 51.125 47.2188
Q56.6875 51.9062 61.2812 53.9844
Q65.875 56.0625 71.0938 56.0625
Q80.0781 56.0625 84.3438 50.6094
Q88.625 45.1719 88.625 35.4062
z
" id="Verdana-6d"/>
     <path d="
M53.2656 6.20312
Q53.2656 -7.67188 46.9688 -14.1562
Q40.6719 -20.6562 27.5938 -20.6562
Q23.25 -20.6562 19.1094 -20.0469
Q14.9844 -19.4375 10.9844 -18.3125
L10.9844 -8.9375
L11.4688 -8.9375
Q13.7188 -9.8125 18.5938 -11.1094
Q23.4844 -12.4062 28.375 -12.4062
Q33.0625 -12.4062 36.125 -11.2812
Q39.2031 -10.1562 40.9219 -8.15625
Q42.625 -6.25 43.3594 -3.5625
Q44.0938 -0.875 44.0938 2.4375
L44.0938 7.42188
Q39.9375 4.10938 36.1562 2.46875
Q32.375 0.828125 26.5156 0.828125
Q16.75 0.828125 11.0156 7.875
Q5.28125 14.9375 5.28125 27.7812
Q5.28125 34.8125 7.25 39.9062
Q9.23438 45.0156 12.6406 48.7344
Q15.8281 52.2031 20.3594 54.125
Q24.9062 56.0625 29.3906 56.0625
Q34.125 56.0625 37.3281 55.1094
Q40.5312 54.1562 44.0938 52.2031
L44.6719 54.5469
L53.2656 54.5469
z

M44.0938 14.9844
L44.0938 44.7344
Q40.4375 46.3906 37.2812 47.0938
Q34.125 47.7969 31 47.7969
Q23.4375 47.7969 19.0938 42.7188
Q14.75 37.6406 14.75 27.9844
Q14.75 18.7969 17.9688 14.0625
Q21.1875 9.32812 28.6562 9.32812
Q32.6719 9.32812 36.6875 10.8594
Q40.7188 12.4062 44.0938 14.9844" id="Verdana-67"/>
     <path d="
M61.625 64.1094
L35.6406 64.1094
L35.6406 0
L25.9844 0
L25.9844 64.1094
L0 64.1094
L0 72.7031
L61.625 72.7031
z
" id="Verdana-54"/>
    </defs>
    <g transform="translate(164.964375 38.2)scale(0.144 -0.144)">
     <use xlink:href="#Verdana-54"/>
     <use x="51.87109375" xlink:href="#Verdana-72"/>
     <use x="94.546875" xlink:href="#Verdana-69"/>
     <use x="121.98828125" xlink:href="#Verdana-67"/>
     <use x="184.29296875" xlink:href="#Verdana-6f"/>
     <use x="244.986328125" xlink:href="#Verdana-6e"/>
     <use x="308.267578125" xlink:href="#Verdana-6f"/>
     <use x="368.9609375" xlink:href="#Verdana-6d"/>
     <use x="466.2265625" xlink:href="#Verdana-65"/>
     <use x="525.796875" xlink:href="#Verdana-74"/>
     <use x="565.201171875" xlink:href="#Verdana-72"/>
     <use x="607.876953125" xlink:href="#Verdana-69"/>
     <use x="635.318359375" xlink:href="#Verdana-63"/>
     <use x="687.41796875" xlink:href="#Verdana-30"/>
     <use x="750.9921875" xlink:href="#Verdana-32"/>
     <use x="814.56640625" xlink:href="#Verdana-20"/>
     <use x="849.72265625" xlink:href="#Verdana-53"/>
     <use x="918.08203125" xlink:href="#Verdana-74"/>
     <use x="957.486328125" xlink:href="#Verdana-61"/>
     <use x="1017.544921875" xlink:href="#Verdana-6e"/>
     <use x="1080.826171875" xlink:href="#Verdana-64"/>
     <use x="1143.130859375" xlink:href="#Verdana-61"/>
     <use x="1203.189453125" xlink:href="#Verdana-72"/>
     <use x="1245.865234375" xlink:href="#Verdana-64"/>
     <use x="1308.169921875" xlink:href="#Verdana-20"/>
     <use x="1343.326171875" xlink:href="#Verdana-44"/>
     <use x="1420.376953125" xlink:href="#Verdana-65"/>
     <use x="1479.947265625" xlink:href="#Verdana-76"/>
     <use x="1539.126953125" xlink:href="#Verdana-69"/>
     <use x="1566.568359375" xlink:href="#Verdana-61"/>
     <use x="1626.626953125" xlink:href="#Verdana-74"/>
     <use x="1666.03125" xlink:href="#Verdana-69"/>
     <use x="1693.47265625" xlink:href="#Verdana-6f"/>
     <use x="1754.166015625" xlink:href="#Verdana-6e"/>
    </g>
   </g>
   <g id="legend_1">
    <g id="patch_7">
     <path d="
M407.18 159.919
L511.2 159.919
L511.2 50.4
L407.18 50.4
L407.18 159.919
z
" style="fill:#ffffff;stroke:#000000;"/>
    </g>
    <g id="line2d_30">
     <path d="
M417.26 62.0617
L437.42 62.0617" style="fill:none;stroke:#0000ff;stroke-dasharray:6.000000,2.000000;stroke-dashoffset:0.0;"/>
    </g>
    <g id="line2d_31"/>
    <g id="text_16">
     <!-- AMPGO -->
     <defs>
      <path d="
M74.5156 0
L64.8438 0
L64.8438 62.6406
L44.625 20.0156
L38.875 20.0156
L18.7969 62.6406
L18.7969 0
L9.76562 0
L9.76562 72.7031
L22.9531 72.7031
L42.3281 32.2344
L61.0781 72.7031
L74.5156 72.7031
z
" id="Verdana-4d"/>
      <path d="
M57.3281 50.7344
Q57.3281 45.9062 55.6406 41.7656
Q53.9531 37.6406 50.9219 34.625
Q47.1719 30.8594 42.0469 28.9688
Q36.9219 27.0938 29.1094 27.0938
L19.4375 27.0938
L19.4375 0
L9.76562 0
L9.76562 72.7031
L29.5 72.7031
Q36.0312 72.7031 40.5781 71.6094
Q45.125 70.5156 48.6406 68.1719
Q52.7812 65.375 55.0469 61.2188
Q57.3281 57.0781 57.3281 50.7344
M47.2656 50.4844
Q47.2656 54.25 45.9375 57.0312
Q44.625 59.8125 41.9375 61.5781
Q39.5938 63.0938 36.5938 63.75
Q33.5938 64.4062 29 64.4062
L19.4375 64.4062
L19.4375 35.3594
L27.5938 35.3594
Q33.4531 35.3594 37.1094 36.4062
Q40.7656 37.4531 43.0625 39.75
Q45.3594 42.0938 46.3125 44.6719
Q47.2656 47.2656 47.2656 50.4844" id="Verdana-50"/>
      <path d="
M70.4062 5.375
Q64.4531 2.64062 57.3906 0.609375
Q50.3438 -1.42188 43.75 -1.42188
Q35.25 -1.42188 28.1719 0.921875
Q21.0938 3.26562 16.1094 7.95312
Q11.0781 12.7031 8.34375 19.7969
Q5.60938 26.9062 5.60938 36.4219
Q5.60938 53.8594 15.7969 63.9375
Q25.9844 74.0312 43.75 74.0312
Q49.9531 74.0312 56.4219 72.5312
Q62.8906 71.0469 70.3594 67.4844
L70.3594 56
L69.4844 56
Q67.9688 57.1719 65.0781 59.0781
Q62.2031 60.9844 59.4219 62.25
Q56.0625 63.7656 51.7812 64.7656
Q47.5156 65.7656 42.0938 65.7656
Q29.8906 65.7656 22.7812 57.9219
Q15.6719 50.0938 15.6719 36.7188
Q15.6719 22.6094 23.0938 14.7656
Q30.5156 6.9375 43.3125 6.9375
Q48 6.9375 52.6562 7.85938
Q57.3281 8.79688 60.8438 10.25
L60.8438 28.0781
L41.3594 28.0781
L41.3594 36.5781
L70.4062 36.5781
z
" id="Verdana-47"/>
      <path d="
M67.0938 0
L56.7812 0
L49.6562 20.2656
L18.2188 20.2656
L11.0781 0
L1.26562 0
L27.7344 72.7031
L40.625 72.7031
z

M46.6875 28.5625
L33.9375 64.2656
L21.1406 28.5625
z
" id="Verdana-41"/>
     </defs>
     <g transform="translate(453.26025 67.10175)scale(0.144 -0.144)">
      <use xlink:href="#Verdana-41"/>
      <use x="68.359375" xlink:href="#Verdana-4d"/>
      <use x="152.63671875" xlink:href="#Verdana-50"/>
      <use x="212.939453125" xlink:href="#Verdana-47"/>
      <use x="290.478515625" xlink:href="#Verdana-4f"/>
     </g>
    </g>
    <g id="line2d_32">
     <path d="
M417.26 83.1015
L437.42 83.1015" style="fill:none;stroke:#008000;stroke-dasharray:1.000000,1.000000;stroke-dashoffset:0.0;"/>
    </g>
    <g id="line2d_33"/>
    <g id="text_17">
     <!-- Anneal -->
     <defs>
      <path d="
M18.3125 0
L9.125 0
L9.125 75.9844
L18.3125 75.9844
z
" id="Verdana-6c"/>
     </defs>
     <g transform="translate(453.26025 88.1415)scale(0.144 -0.144)">
      <use xlink:href="#Verdana-41"/>
      <use x="68.359375" xlink:href="#Verdana-6e"/>
      <use x="131.640625" xlink:href="#Verdana-6e"/>
      <use x="194.921875" xlink:href="#Verdana-65"/>
      <use x="254.4921875" xlink:href="#Verdana-61"/>
      <use x="314.55078125" xlink:href="#Verdana-6c"/>
     </g>
    </g>
    <g id="line2d_34">
     <path d="
M417.26 104.141
L437.42 104.141" style="fill:none;stroke:#ff0000;stroke-dasharray:3.000000,6.000000;stroke-dashoffset:0.0;"/>
    </g>
    <g id="line2d_35"/>
    <g id="text_18">
     <!-- BSA -->
     <defs>
      <path d="
M64.5938 22.3594
Q64.5938 16.9375 62.5469 12.7812
Q60.5 8.64062 57.0312 5.95312
Q52.9375 2.73438 48.0156 1.35938
Q43.1094 0 35.5469 0
L9.76562 0
L9.76562 72.7031
L31.2969 72.7031
Q39.2656 72.7031 43.2188 72.1094
Q47.1719 71.5312 50.7812 69.6719
Q54.7812 67.5781 56.5938 64.2812
Q58.4062 60.9844 58.4062 56.3906
Q58.4062 51.2188 55.7656 47.5781
Q53.125 43.9531 48.7344 41.75
L48.7344 41.3594
Q56.1094 39.8438 60.3438 34.8906
Q64.5938 29.9375 64.5938 22.3594
M48.3438 55.125
Q48.3438 57.7656 47.4531 59.5625
Q46.5781 61.375 44.625 62.5
Q42.3281 63.8125 39.0625 64.125
Q35.7969 64.4531 30.9531 64.4531
L19.4375 64.4531
L19.4375 43.4531
L31.9375 43.4531
Q36.4688 43.4531 39.1562 43.9219
Q41.8438 44.3906 44.1406 45.8438
Q46.4375 47.3125 47.3906 49.625
Q48.3438 51.9531 48.3438 55.125
M54.5469 21.9688
Q54.5469 26.375 53.2188 28.9531
Q51.9062 31.5469 48.4375 33.3438
Q46.0938 34.5781 42.75 34.9375
Q39.4062 35.2969 34.625 35.2969
L19.4375 35.2969
L19.4375 8.25
L32.2344 8.25
Q38.5781 8.25 42.625 8.90625
Q46.6875 9.57812 49.2656 11.3281
Q52 13.2344 53.2656 15.6719
Q54.5469 18.1094 54.5469 21.9688" id="Verdana-42"/>
     </defs>
     <g transform="translate(453.26025 109.18125)scale(0.144 -0.144)">
      <use xlink:href="#Verdana-42"/>
      <use x="68.5546875" xlink:href="#Verdana-53"/>
      <use x="135.9140625" xlink:href="#Verdana-41"/>
     </g>
    </g>
    <g id="line2d_36">
     <path d="
M417.26 125.181
L437.42 125.181" style="fill:none;stroke:#00bfbf;stroke-dasharray:5.000000,1.000000,2.000000,1.000000,5.000000,1.000000;stroke-dashoffset:0.0;"/>
    </g>
    <g id="line2d_37"/>
    <g id="text_19">
     <!-- Cuckoo -->
     <defs>
      <path d="
M58.5469 0
L46.4375 0
L24.5625 23.875
L18.6094 18.2188
L18.6094 0
L9.42188 0
L9.42188 75.9844
L18.6094 75.9844
L18.6094 27.25
L45.125 54.5469
L56.6875 54.5469
L31.3438 29.3438
z
" id="Verdana-6b"/>
      <path d="
M65.9219 5.28125
Q63.2344 4.10938 61.0625 3.07812
Q58.8906 2.04688 55.375 0.921875
Q52.3906 0 48.8906 -0.65625
Q45.4062 -1.3125 41.2188 -1.3125
Q33.2969 -1.3125 26.8281 0.90625
Q20.3594 3.125 15.5781 7.85938
Q10.8906 12.5 8.25 19.6562
Q5.60938 26.8125 5.60938 36.2812
Q5.60938 45.2656 8.14062 52.3438
Q10.6875 59.4219 15.4844 64.3125
Q20.125 69.0469 26.6875 71.5312
Q33.25 74.0312 41.2656 74.0312
Q47.125 74.0312 52.9531 72.6094
Q58.7969 71.1875 65.9219 67.625
L65.9219 56.1562
L65.1875 56.1562
Q59.1875 61.1875 53.2656 63.4688
Q47.3594 65.7656 40.625 65.7656
Q35.1094 65.7656 30.6875 63.9844
Q26.2656 62.2031 22.7969 58.4531
Q19.4375 54.7812 17.5469 49.1875
Q15.6719 43.6094 15.6719 36.2812
Q15.6719 28.6094 17.75 23.0938
Q19.8281 17.5781 23.0938 14.1094
Q26.5156 10.5 31.0781 8.76562
Q35.6406 7.03125 40.7188 7.03125
Q47.7031 7.03125 53.7969 9.42188
Q59.9062 11.8125 65.2344 16.6094
L65.9219 16.6094
z
" id="Verdana-43"/>
     </defs>
     <g transform="translate(453.26025 130.221)scale(0.144 -0.144)">
      <use xlink:href="#Verdana-43"/>
      <use x="69.82421875" xlink:href="#Verdana-75"/>
      <use x="133.10546875" xlink:href="#Verdana-63"/>
      <use x="185.205078125" xlink:href="#Verdana-6b"/>
      <use x="243.384765625" xlink:href="#Verdana-6f"/>
      <use x="304.078125" xlink:href="#Verdana-6f"/>
     </g>
    </g>
    <g id="line2d_38">
     <path d="
M417.26 146.221
L437.42 146.221" style="fill:none;stroke:#bf00bf;stroke-linecap:square;"/>
    </g>
    <g id="line2d_39"/>
    <g id="text_20">
     <!-- qABC -->
     <defs>
      <path d="
M53.2656 -20.125
L44.0938 -20.125
L44.0938 6.15625
Q39.8438 2.48438 35.6406 0.703125
Q31.4531 -1.07812 26.5625 -1.07812
Q16.8438 -1.07812 11.0625 6.42188
Q5.28125 13.9219 5.28125 27.0938
Q5.28125 34.125 7.29688 39.5156
Q9.32812 44.9219 12.6406 48.5781
Q15.875 52.1562 20.2188 54.1094
Q24.5625 56.0625 29.3906 56.0625
Q33.7969 56.0625 37.1875 55.0781
Q40.5781 54.1094 44.0938 52.2031
L44.6719 54.5469
L53.2656 54.5469
z

M44.0938 13.875
L44.0938 44.7344
Q40.2812 46.4375 37.3438 47.1094
Q34.4219 47.7969 31 47.7969
Q23.0469 47.7969 18.8906 42.4062
Q14.75 37.0156 14.75 27.5469
Q14.75 17.9688 18.0938 12.8125
Q21.4375 7.67188 28.6094 7.67188
Q32.625 7.67188 36.625 9.40625
Q40.625 11.1406 44.0938 13.875" id="Verdana-71"/>
     </defs>
     <g transform="translate(453.26025 151.26075)scale(0.144 -0.144)">
      <use xlink:href="#Verdana-71"/>
      <use x="62.3046875" xlink:href="#Verdana-41"/>
      <use x="130.6640625" xlink:href="#Verdana-42"/>
      <use x="199.21875" xlink:href="#Verdana-43"/>
     </g>
    </g>
   </g>
  </g>
 </g>
 <defs>
  <clipPath id="p7ff5b81e1d">
   <rect height="345.6" width="446.4" x="72.0" y="43.2"/>
  </clipPath>
 </defs>
</svg>
