<?xml version="1.0" encoding="utf-8" standalone="no"?>
<!DOCTYPE svg PUBLIC "-//W3C//DTD SVG 1.1//EN"
  "http://www.w3.org/Graphics/SVG/1.1/DTD/svg11.dtd">
<!-- Created with matplotlib (http://matplotlib.org/) -->
<svg height="432pt" version="1.1" viewBox="0 0 576 432" width="576pt" xmlns="http://www.w3.org/2000/svg" xmlns:xlink="http://www.w3.org/1999/xlink">
 <defs>
  <style type="text/css">
*{stroke-linecap:butt;stroke-linejoin:round;}
  </style>
 </defs>
 <g id="figure_1">
  <g id="patch_1">
   <path d="
M0 432
L576 432
L576 0
L0 0
z
" style="fill:#ffffff;"/>
  </g>
  <g id="axes_1">
   <g id="patch_2">
    <path d="
M72 388.8
L518.4 388.8
L518.4 43.2
L72 43.2
z
" style="fill:#ffffff;"/>
   </g>
   <g id="line2d_1">
    <path clip-path="url(#p7ff5b81e1d)" d="
M72 388.8
L72.3571 388.8
L72.5357 323.957
L72.7142 323.957
L72.8928 317.059
L73.0714 317.059
L73.2499 303.262
L73.4285 303.262
L73.607 299.123
L73.7856 299.123
L73.9642 298.434
L74.1427 298.434
L74.3213 296.364
L74.4998 296.364
L74.6784 295.674
L74.857 295.674
L75.0355 292.915
L75.2141 292.915
L75.3926 288.776
L75.5712 288.776
L75.7498 280.498
L75.9283 280.498
L76.1069 270.151
L76.2854 270.151
L76.464 261.183
L76.6426 261.183
L76.8211 255.665
L76.9997 255.665
L77.1782 249.456
L77.3568 249.456
L77.5354 245.317
L77.7139 245.317
L77.8925 243.248
L78.071 243.248
L78.2496 242.558
L78.4282 242.558
L78.8746 239.799
L79.1424 239.799
L79.321 237.729
L79.5888 236.35
L79.6781 236.35
L79.8566 235.66
L79.9459 235.66
L80.303 231.521
L80.5709 231.521
L80.6602 230.831
L80.8387 228.072
L81.0173 228.072
L81.2851 223.243
L81.6422 221.174
L81.7315 221.174
L81.9101 220.484
L82.0886 220.484
L82.2672 215.655
L82.535 215.655
L82.7136 214.275
L82.8029 214.275
L82.8922 213.586
L83.0707 210.826
L83.16 210.826
L83.3386 206.687
L83.5171 206.687
L83.6957 203.928
L84.0528 203.928
L84.2314 202.549
L84.4099 201.859
L84.6778 201.859
L84.8563 200.479
L85.0349 200.479
L85.2134 197.03
L85.3027 197.03
L85.4813 194.96
L85.8384 190.822
L86.017 190.132
L86.1955 190.132
L86.3741 188.062
L86.5526 188.062
L86.7312 186.683
L86.9098 186.683
L87.0883 185.303
L87.5347 185.303
L88.0704 181.854
L88.249 181.854
L88.4275 180.474
L88.5168 180.474
L88.9632 177.715
L89.0525 177.715
L89.3203 176.335
L89.4096 176.335
L89.5882 174.266
L89.7667 174.266
L89.9453 172.886
L90.2131 171.507
L90.481 171.507
L90.7488 170.127
L90.8381 170.127
L91.0166 169.437
L91.1952 169.437
L91.463 168.057
L91.5523 168.057
L91.8202 166.678
L92.1773 166.678
L92.3558 165.988
L92.5344 163.229
L92.6237 163.229
L92.9808 161.159
L93.4272 161.159
L93.6058 160.469
L93.695 160.469
L93.9629 159.09
L94.0522 159.09
L94.5878 155.641
L94.7664 155.641
L95.0342 154.261
L95.2128 154.261
L95.4806 152.881
L95.5699 152.881
L95.6592 152.192
L95.8378 150.122
L96.0163 150.122
L96.2842 148.743
L96.3734 148.743
L96.9984 144.604
L97.4448 144.604
L97.5341 143.914
L97.7126 141.844
L98.159 141.844
L98.3376 140.465
L98.5162 140.465
L98.784 139.085
L98.8733 139.085
L99.0518 137.705
L99.409 135.636
L99.7661 135.636
L100.302 132.187
L100.391 132.187
L100.927 128.738
L101.105 128.738
L101.284 128.048
L101.462 128.048
L101.82 125.978
L101.909 125.978
L102.087 125.289
L102.177 125.289
L102.444 123.909
L102.534 123.909
L102.802 121.15
L103.069 119.77
L103.248 119.77
L103.873 115.631
L103.962 115.631
L104.141 113.562
L104.587 113.562
L104.944 111.492
L105.034 111.492
L105.301 108.733
L105.48 108.733
L105.659 108.043
L105.926 108.043
L106.551 103.904
L106.998 103.904
L107.176 103.214
L107.266 103.214
L107.444 101.835
L107.533 101.835
L107.98 99.0754
L108.069 99.0754
L108.248 98.3856
L108.337 98.3856
L108.516 97.006
L108.694 96.3162
L109.23 96.3162
L109.408 95.6263
L109.498 95.6263
L109.676 94.9365
L110.123 94.9365
L110.301 92.8671
L110.658 92.8671
L110.837 92.1772
L111.015 92.1772
L111.194 91.4874
L111.283 91.4874
L111.462 90.7976
L111.908 90.7976
L112.087 90.1078
L112.622 90.1078
L112.801 88.7281
L112.98 88.7281
L113.247 87.3485
L113.337 87.3485
L113.604 85.9689
L113.872 85.9689
L114.229 83.8994
L114.497 83.8994
L114.676 83.2096
L114.854 83.2096
L115.033 82.5198
L115.301 82.5198
L115.479 81.8299
L115.569 81.8299
L115.747 81.1401
L116.461 81.1401
L116.64 80.4503
L117.711 80.4503
L117.89 79.7605
L118.068 79.7605
L118.336 78.3808
L119.318 78.3808
L119.497 76.3114
L119.676 76.3114
L119.854 75.6216
L120.122 75.6216
L120.3 74.9317
L121.104 74.9317
L121.283 74.2419
L121.372 74.2419
L121.55 72.8623
L122.175 72.8623
L122.443 71.4826
L122.711 71.4826
L122.89 70.7928
L123.068 70.7928
L123.247 69.4132
L123.693 69.4132
L123.872 68.7234
L123.961 68.7234
L124.14 68.0335
L124.318 68.0335
L124.497 67.3437
L124.675 67.3437
L124.943 65.9641
L126.818 65.9641
L127.175 63.8946
L128.425 63.8946
L128.693 62.515
L129.586 62.515
L129.764 61.1353
L130.211 61.1353
L130.389 59.7557
L131.639 59.7557
L131.907 58.376
L131.996 58.376
L132.175 57.6862
L132.889 57.6862
L133.068 56.9964
L134.407 56.9964
L134.585 56.3066
L135.21 56.3066
L135.478 54.9269
L135.746 54.9269
L135.924 54.2371
L136.817 54.2371
L137.085 52.8575
L137.71 52.8575
L137.978 51.4778
L139.228 51.4778
L139.406 50.788
L140.746 50.788
L140.924 50.0982
L142.263 50.0982
L142.442 49.4084
L145.567 49.4084
L145.745 48.7186
L146.37 48.7186
L146.549 48.0287
L149.674 48.0287
L149.852 47.3389
L154.763 47.3389
L155.03 45.9593
L157.262 45.9593
L157.441 45.2695
L158.602 45.2695
L158.78 44.5796
L161.101 44.5796
L161.28 43.8898
L162.441 43.8898
L162.619 43.2
L518.311 43.2
L518.311 43.2" style="fill:none;stroke:#0000ff;stroke-dasharray:6.000000,2.000000;stroke-dashoffset:0.0;"/>
   </g>
   <g id="line2d_2">
    <path clip-path="url(#p7ff5b81e1d)" d="
M72 388.8
L72.0893 386.969
L72.2678 359.508
L72.7142 299.095
L73.3392 254.75
L73.8749 232.171
L74.857 209.796
L75.4819 201.253
L75.7498 200.032
L76.0176 196.167
L76.1962 194.947
L76.3747 193.523
L76.464 193.319
L76.6426 192.099
L76.7318 191.895
L77.1782 188.641
L77.2675 188.641
L77.5354 187.42
L77.8032 186.607
L78.2496 184.573
L78.5174 182.742
L78.7853 181.318
L79.1424 180.301
L79.4102 179.08
L79.9459 178.063
L80.0352 178.063
L80.2138 177.453
L80.3923 176.843
L80.4816 176.843
L80.7494 176.436
L80.928 176.436
L81.1066 176.233
L81.4637 176.233
L81.6422 176.029
L81.7315 176.029
L81.9101 175.826
L82.4458 175.826
L82.6243 175.216
L82.9814 175.216
L83.16 175.012
L83.785 175.012
L83.9635 174.402
L84.3206 173.792
L84.6778 173.792
L85.1242 172.978
L85.2134 172.978
L85.4813 172.571
L85.7491 172.571
L85.9277 172.368
L86.1955 172.368
L86.4634 171.961
L86.6419 171.961
L86.8205 171.351
L86.9098 171.351
L87.0883 171.147
L87.1776 171.147
L87.3562 170.944
L88.1597 170.944
L88.3382 170.74
L88.4275 170.74
L88.6061 170.537
L88.7846 170.537
L88.9632 170.13
L89.0525 170.13
L89.3203 169.723
L89.4096 169.723
L89.5882 169.52
L89.7667 169.52
L90.0346 169.113
L90.3024 169.113
L90.5702 168.706
L90.7488 168.706
L91.0166 168.299
L91.2845 168.299
L91.5523 167.893
L91.9094 167.893
L92.088 167.689
L92.5344 167.689
L92.8022 167.282
L94.5878 167.282
L94.8557 166.876
L95.2128 166.876
L95.4806 166.469
L96.6413 166.469
L96.8198 166.062
L96.9091 166.062
L97.0877 165.655
L97.2662 165.655
L97.5341 165.248
L98.6054 165.248
L98.784 165.045
L98.8733 165.045
L99.0518 164.841
L99.4982 164.841
L99.6768 164.638
L100.837 164.638
L101.016 164.435
L101.284 164.435
L101.462 164.231
L101.73 164.231
L101.909 164.028
L102.266 164.028
L102.444 163.824
L103.248 163.824
L103.427 163.418
L103.873 163.418
L104.052 163.214
L104.944 163.214
L105.123 163.011
L105.301 163.011
L105.48 162.807
L105.837 162.807
L106.016 162.604
L106.284 162.604
L106.462 162.4
L107.176 162.4
L107.355 162.197
L107.623 162.197
L107.891 161.79
L109.14 161.79
L109.319 161.587
L109.676 161.587
L109.855 161.383
L110.569 161.383
L110.748 161.18
L111.015 161.18
L111.194 160.977
L122.89 160.977
L123.068 160.773
L123.425 160.773
L123.604 160.57
L128.871 160.57
L129.05 160.366
L131.014 160.366
L131.193 160.163
L132.264 160.163
L132.443 159.96
L135.3 159.96
L135.478 159.756
L136.192 159.756
L136.371 159.553
L139.049 159.553
L139.228 159.349
L146.817 159.349
L147.084 158.942
L149.584 158.942
L149.763 158.739
L150.834 158.739
L151.013 158.536
L151.37 158.536
L151.548 158.332
L152.531 158.332
L152.709 158.129
L168.512 158.129
L168.69 157.925
L178.6 157.925
L178.779 157.722
L197.528 157.722
L197.706 157.519
L198.242 157.519
L198.42 157.315
L219.312 157.315
L219.491 157.112
L239.132 157.112
L239.311 156.908
L265.113 156.908
L265.291 156.705
L279.665 156.705
L279.844 156.501
L286.361 156.501
L286.54 156.298
L291.272 156.298
L291.45 156.095
L303.235 156.095
L303.414 155.891
L318.77 155.891
L318.948 155.688
L323.323 155.688
L323.502 155.484
L331.358 155.484
L331.537 155.281
L336.447 155.281
L336.715 154.874
L349.393 154.874
L349.572 154.671
L387.337 154.671
L387.516 154.467
L403.675 154.467
L403.854 154.264
L470.635 154.264
L470.814 154.061
L479.295 154.061
L479.474 153.857
L518.311 153.857
L518.311 153.857" style="fill:none;stroke:#008000;stroke-dasharray:1.000000,1.000000;stroke-dashoffset:0.0;"/>
   </g>
   <g id="line2d_3">
    <path clip-path="url(#p7ff5b81e1d)" d="
M72 388.8
L72.3571 388.8
L72.5357 387.42
L73.0714 387.42
L73.2499 386.731
L73.3392 386.731
L73.9642 381.212
L74.4106 368.105
L74.5891 362.587
L74.857 354.309
L75.4819 337.753
L76.2854 317.749
L77.089 290.846
L77.4461 282.568
L77.8032 263.253
L78.696 236.35
L78.7853 236.35
L78.9638 232.901
L79.0531 232.901
L79.321 226.002
L79.4995 221.863
L79.7674 212.206
L80.3923 195.65
L80.5709 193.581
L80.7494 190.132
L80.928 185.993
L81.1958 174.266
L81.3744 171.507
L81.6422 165.298
L82.535 143.224
L82.8029 136.326
L83.4278 123.909
L83.5171 123.909
L84.3206 110.113
L84.5885 104.594
L84.6778 104.594
L86.1062 94.2467
L86.1955 94.2467
L87.0883 88.0383
L87.1776 88.0383
L87.3562 87.3485
L87.4454 87.3485
L87.8026 85.279
L87.8918 85.279
L88.3382 81.1401
L88.9632 72.8623
L89.1418 72.1725
L89.4096 72.1725
L89.5882 71.4826
L89.6774 71.4826
L89.856 69.4132
L90.0346 67.3437
L90.1238 67.3437
L90.3917 65.9641
L90.6595 65.9641
L91.7309 58.376
L92.3558 58.376
L92.5344 57.6862
L92.713 57.6862
L92.8915 56.9964
L92.9808 56.9964
L93.1594 56.3066
L93.4272 56.3066
L93.6058 54.2371
L93.695 54.2371
L94.1414 51.4778
L94.8557 51.4778
L95.0342 50.788
L95.6592 50.788
L95.8378 50.0982
L97.177 50.0982
L97.4448 48.7186
L97.6234 48.7186
L97.8019 48.0287
L97.9805 48.0287
L98.159 47.3389
L98.9626 47.3389
L99.1411 46.6491
L99.8554 46.6491
L100.034 45.9593
L101.373 45.9593
L101.552 45.2695
L102.802 45.2695
L102.98 43.8898
L111.462 43.8898
L111.64 43.2
L518.311 43.2
L518.311 43.2" style="fill:none;stroke:#ff0000;stroke-dasharray:3.000000,6.000000;stroke-dashoffset:0.0;"/>
   </g>
   <g id="line2d_4">
    <path clip-path="url(#p7ff5b81e1d)" d="
M72 388.8
L72.0893 388.8
L72.1786 388.8
L72.3571 388.11
L72.8035 388.11
L72.9821 387.42
L73.3392 387.42
L73.607 386.041
L74.1427 386.041
L74.3213 385.351
L75.4819 385.351
L75.9283 370.865
L76.0176 369.485
L76.2854 358.448
L76.464 355.689
L76.7318 346.031
L76.8211 344.651
L77.089 336.374
L77.3568 331.545
L77.5354 331.545
L77.8032 330.165
L78.6067 330.165
L78.7853 329.475
L78.9638 329.475
L79.0531 328.786
L79.9459 284.637
L80.2138 274.98
L80.3923 261.873
L80.4816 261.873
L80.8387 252.216
L81.0173 252.216
L81.1958 251.526
L81.6422 251.526
L81.8208 250.146
L82.6243 250.146
L82.8029 241.868
L83.2493 222.553
L83.4278 217.725
L84.1421 188.752
L84.5885 179.095
L85.4813 179.095
L85.6598 177.715
L85.8384 177.025
L86.1955 177.025
L86.3741 172.196
L86.5526 160.469
L86.7312 160.469
L86.8205 159.78
L87.2669 145.293
L87.3562 144.604
L87.7133 134.256
L87.8918 130.807
L88.0704 129.428
L88.1597 129.428
L88.4275 128.048
L88.7846 128.048
L89.0525 126.668
L89.6774 126.668
L89.7667 125.978
L90.1238 114.941
L90.3024 112.872
L90.3917 112.872
L90.7488 106.663
L91.1952 101.145
L91.6416 98.3856
L93.3379 98.3856
L93.6058 94.2467
L94.5878 85.9689
L94.7664 82.5198
L94.8557 82.5198
L95.1235 81.1401
L96.4627 81.1401
L96.6413 80.4503
L96.9091 80.4503
L97.177 78.3808
L97.3555 76.3114
L97.5341 74.9317
L97.6234 74.9317
L97.8912 73.5521
L97.9805 73.5521
L98.159 72.8623
L98.2483 72.8623
L98.784 69.4132
L100.57 69.4132
L100.748 68.0335
L101.105 65.9641
L101.462 65.9641
L101.641 65.2743
L101.909 65.2743
L102.177 63.8946
L103.159 63.8946
L103.337 63.2048
L104.23 63.2048
L104.498 61.8251
L104.676 61.8251
L105.212 58.376
L105.391 58.376
L105.569 57.6862
L106.998 57.6862
L107.176 56.9964
L107.891 56.9964
L108.069 56.3066
L108.158 56.3066
L108.337 55.6168
L108.516 55.6168
L108.694 54.9269
L108.962 54.9269
L109.319 52.8575
L111.462 52.8575
L111.73 51.4778
L112.712 51.4778
L112.89 50.788
L114.944 50.788
L115.122 50.0982
L115.39 50.0982
L115.569 49.4084
L116.372 49.4084
L116.551 48.7186
L119.318 48.7186
L119.586 45.9593
L119.676 45.9593
L119.854 44.5796
L132.71 44.5796
L132.889 43.8898
L136.192 43.8898
L136.371 43.2
L518.311 43.2
L518.311 43.2" style="fill:none;stroke:#00bfbf;stroke-dasharray:5.000000,1.000000,2.000000,1.000000,5.000000,1.000000;stroke-dashoffset:0.0;"/>
   </g>
   <g id="line2d_5">
    <path clip-path="url(#p7ff5b81e1d)" d="
M72 388.692
L72.0893 388.692
L72.5357 387.716
L72.625 387.716
L73.0714 385.982
L73.2499 385.766
L73.4285 385.332
L73.6963 385.115
L73.7856 385.115
L73.8749 384.899
L74.0534 383.598
L74.4106 380.239
L74.5891 379.155
L74.9462 376.337
L75.4819 373.411
L76.464 331.579
L77.1782 310.989
L77.3568 307.846
L78.9638 298.526
L79.0531 298.417
L80.0352 278.26
L80.928 267.856
L81.1066 267.531
L81.3744 266.773
L81.8208 264.713
L82.2672 262.979
L82.6243 261.896
L82.9814 256.694
L83.2493 253.118
L84.4992 244.773
L84.5885 244.665
L84.9456 243.581
L85.3027 243.256
L85.392 243.256
L85.6598 242.822
L85.8384 242.497
L86.017 241.522
L86.1955 241.197
L87.1776 235.886
L87.2669 235.778
L88.249 232.418
L88.5168 232.093
L88.6954 231.66
L88.8739 231.335
L89.1418 230.359
L89.5882 229.709
L89.856 228.842
L90.481 226.35
L91.1059 224.832
L91.3738 223.857
L91.463 223.857
L92.088 222.557
L92.4451 222.231
L92.5344 222.231
L92.713 221.906
L93.1594 221.906
L94.2307 218.33
L94.32 218.222
L94.5878 217.463
L94.6771 217.355
L94.945 216.596
L95.0342 216.488
L95.2128 215.946
L95.3914 215.837
L95.5699 215.837
L95.7485 215.621
L95.8378 215.621
L96.0163 215.404
L96.3734 215.296
L97.5341 213.778
L97.8912 212.695
L98.0698 212.695
L98.3376 211.936
L98.6947 211.394
L98.8733 211.177
L99.409 210.636
L100.123 210.527
L100.748 209.66
L101.105 208.576
L101.462 208.143
L101.909 206.843
L102.087 206.517
L102.177 206.517
L102.534 205.759
L102.891 205.65
L103.873 204.567
L104.141 204.458
L104.498 203.375
L104.676 202.941
L105.123 202.508
L105.212 202.508
L106.016 200.665
L106.373 200.665
L106.551 200.449
L106.819 200.34
L106.998 200.232
L107.176 200.123
L107.444 199.907
L107.533 199.907
L107.801 199.473
L108.158 198.931
L108.337 198.715
L108.605 198.281
L108.873 197.522
L109.676 196.656
L110.301 196.547
L110.658 196.222
L110.926 196.114
L111.194 195.897
L111.462 195.789
L112.89 194.163
L113.158 194.055
L113.337 193.946
L113.872 193.838
L114.319 193.404
L114.676 193.296
L115.033 192.971
L115.479 192.862
L115.658 192.537
L115.836 192.429
L116.015 191.887
L116.372 191.779
L116.551 191.562
L117.086 191.02
L117.265 190.912
L117.444 190.803
L117.979 190.803
L118.158 190.587
L118.693 190.478
L119.14 190.045
L119.318 189.936
L119.497 189.828
L119.765 189.72
L120.033 189.178
L120.39 189.069
L120.568 188.961
L120.836 188.961
L121.193 188.311
L121.372 188.202
L121.64 187.986
L122.265 187.877
L122.532 187.552
L122.8 186.902
L122.979 186.794
L123.157 186.685
L123.425 186.577
L123.782 186.252
L124.229 186.143
L124.407 186.035
L125.389 185.927
L125.657 185.71
L125.925 185.602
L126.104 185.168
L126.193 185.168
L126.372 184.735
L126.639 184.626
L126.907 184.409
L126.996 184.409
L127.175 184.084
L128.157 183.976
L128.336 183.868
L129.05 183.759
L129.228 183.651
L129.586 183.542
L130.389 182.675
L131.193 182.567
L131.371 182.242
L132.71 182.134
L133.782 180.941
L134.585 180.833
L134.764 180.725
L135.657 180.616
L135.835 180.508
L137.085 180.4
L137.621 179.858
L138.156 179.749
L138.335 179.641
L139.317 179.533
L139.764 179.099
L140.299 178.991
L140.567 178.557
L140.924 178.232
L141.46 178.124
L141.638 177.799
L141.996 177.69
L142.174 177.474
L142.442 177.474
L142.62 177.257
L143.067 177.148
L143.335 176.932
L143.603 176.823
L143.781 176.715
L144.049 176.607
L144.763 175.848
L145.388 175.74
L145.835 175.306
L147.531 175.198
L147.709 174.981
L148.067 174.656
L148.156 174.656
L148.334 174.331
L148.692 174.331
L148.87 174.006
L149.495 174.006
L149.674 173.789
L150.566 173.681
L150.924 173.355
L151.459 173.247
L151.906 172.814
L152.441 172.705
L152.62 172.488
L152.798 172.38
L152.977 172.272
L154.138 172.163
L154.584 171.73
L154.673 171.73
L154.852 171.513
L155.477 170.863
L155.745 170.754
L156.012 170.321
L156.102 170.321
L156.28 170.104
L158.066 169.996
L158.512 169.562
L159.048 169.454
L159.316 169.237
L159.673 169.129
L159.852 168.912
L160.03 168.804
L160.566 168.695
L160.744 168.587
L161.994 168.479
L162.084 168.37
L162.262 167.937
L162.53 167.828
L162.976 167.395
L163.423 167.287
L163.78 166.961
L164.405 166.853
L164.583 166.636
L165.655 166.636
L165.833 166.42
L166.012 166.311
L166.458 166.203
L166.637 166.094
L167.976 165.986
L168.155 165.878
L169.047 165.769
L169.226 165.661
L169.583 165.553
L170.297 164.794
L170.833 164.686
L171.19 164.36
L171.904 164.252
L172.083 164.144
L172.619 164.035
L172.797 163.927
L173.333 163.819
L173.511 163.71
L173.779 163.602
L174.047 163.168
L175.118 163.06
L175.297 162.952
L176.1 162.843
L176.547 162.41
L178.154 162.301
L178.332 162.193
L179.225 162.085
L179.404 161.976
L179.582 161.868
L179.761 161.76
L180.297 161.651
L180.654 161.326
L181.457 161.218
L181.636 161.109
L183.243 161.001
L183.511 160.784
L184.225 160.676
L184.404 160.567
L185.386 160.459
L185.564 160.351
L186.546 160.242
L186.725 160.134
L187.528 160.026
L187.707 159.917
L187.885 159.809
L188.153 159.592
L188.868 159.484
L189.135 159.267
L190.385 159.159
L190.564 159.05
L190.832 158.942
L191.01 158.725
L191.189 158.725
L191.457 158.292
L192.26 158.183
L192.439 158.075
L193.242 157.967
L193.689 157.533
L194.671 157.425
L194.849 157.316
L198.153 157.208
L198.331 157.1
L198.51 156.991
L198.688 156.666
L200.028 156.558
L200.206 156.449
L201.813 156.341
L201.992 156.233
L202.349 156.124
L202.527 156.016
L203.242 155.907
L203.509 155.691
L203.956 155.582
L204.134 155.366
L204.313 155.257
L205.295 155.149
L205.831 154.607
L206.277 154.499
L206.456 154.39
L207.973 154.282
L208.152 154.173
L208.42 154.065
L208.598 153.957
L209.134 153.848
L209.313 153.74
L209.491 153.632
L209.67 153.523
L210.027 153.415
L210.205 153.198
L211.812 153.09
L211.991 152.981
L213.509 152.873
L213.687 152.656
L213.777 152.656
L213.955 152.44
L214.669 152.331
L215.027 152.006
L216.901 151.898
L217.08 151.573
L218.598 151.464
L218.776 151.356
L219.491 151.247
L219.669 151.139
L220.205 151.031
L220.383 150.922
L220.473 150.922
L220.651 150.706
L221.455 150.597
L221.901 150.164
L223.24 150.055
L223.419 149.947
L225.383 149.839
L225.562 149.73
L226.276 149.622
L226.454 149.513
L226.99 149.405
L227.258 148.863
L227.615 148.755
L227.794 148.646
L228.24 148.538
L228.508 148.321
L229.133 148.321
L229.311 147.996
L230.918 147.888
L231.365 147.454
L232.168 147.346
L232.436 147.129
L233.15 147.021
L233.329 146.913
L233.418 146.913
L233.597 146.696
L233.775 146.587
L234.757 146.479
L234.936 146.371
L235.382 146.262
L235.561 146.154
L236.097 146.046
L236.364 145.829
L237.614 145.72
L237.793 145.504
L238.507 145.395
L238.686 145.287
L239.221 145.179
L239.4 144.962
L240.471 144.853
L240.65 144.637
L240.918 144.528
L241.186 144.312
L241.543 144.203
L241.811 143.77
L242.078 143.77
L242.257 143.445
L244.043 143.336
L244.31 143.119
L245.114 143.011
L245.292 142.903
L245.65 142.794
L246.007 142.469
L246.364 142.361
L246.542 142.144
L246.989 141.711
L247.792 141.602
L247.971 141.494
L248.953 141.386
L249.221 141.169
L249.935 141.06
L250.292 140.735
L251.096 140.627
L251.274 140.519
L252.167 140.41
L252.346 140.302
L253.238 140.193
L253.506 139.977
L253.863 139.868
L254.042 139.76
L255.292 139.76
L255.47 139.543
L256.274 139.435
L256.452 139.326
L257.435 139.218
L257.702 139.001
L259.309 138.893
L259.667 138.568
L261.363 138.459
L261.541 138.351
L262.077 138.243
L262.256 138.134
L262.791 138.026
L262.97 137.918
L263.506 137.809
L263.684 137.701
L264.041 137.592
L264.309 137.376
L264.934 137.267
L265.202 137.051
L265.47 136.942
L265.648 136.834
L266.541 136.725
L266.72 136.617
L268.148 136.509
L268.327 136.4
L270.112 136.292
L270.291 136.184
L270.469 136.075
L270.737 135.859
L271.184 135.859
L271.362 135.533
L274.13 135.425
L274.398 135.208
L274.933 135.1
L275.112 134.992
L277.612 134.883
L277.79 134.775
L278.148 134.666
L278.326 134.558
L279.04 134.45
L279.219 134.341
L280.201 134.233
L280.558 133.908
L283.861 133.799
L284.129 133.583
L284.665 133.474
L284.844 133.258
L285.915 133.149
L286.093 133.041
L287.968 132.932
L288.147 132.824
L288.95 132.716
L289.129 132.607
L289.932 132.499
L290.557 131.849
L291.718 131.74
L291.897 131.632
L292.7 131.524
L292.879 131.415
L294.218 131.307
L294.396 131.198
L295.379 131.09
L295.646 130.873
L295.914 130.765
L296.093 130.548
L296.628 130.44
L296.807 130.332
L297.343 130.223
L297.611 130.006
L298.86 129.898
L299.039 129.79
L299.932 129.681
L300.289 129.356
L300.914 129.248
L301.092 129.139
L302.164 129.031
L302.342 128.923
L303.503 128.814
L303.682 128.706
L304.932 128.598
L305.11 128.489
L305.556 128.381
L305.735 128.164
L306.628 128.056
L306.806 127.947
L308.146 127.839
L308.324 127.731
L309.038 127.622
L309.217 127.514
L310.288 127.405
L310.556 127.189
L311.717 127.08
L311.895 126.972
L313.86 126.864
L314.038 126.755
L316.002 126.647
L316.181 126.43
L316.449 126.213
L317.341 126.105
L317.609 125.888
L318.145 125.888
L318.324 125.563
L318.681 125.455
L318.859 125.346
L320.645 125.238
L320.823 125.13
L321.538 125.021
L321.805 124.805
L322.966 124.696
L323.145 124.588
L325.02 124.479
L325.466 124.046
L328.144 123.938
L328.323 123.829
L331.626 123.721
L331.805 123.612
L333.144 123.504
L333.323 123.396
L333.948 123.287
L334.215 123.071
L335.644 122.962
L335.912 122.745
L336.537 122.637
L336.715 122.529
L338.858 122.42
L339.036 122.312
L339.661 122.204
L339.84 122.095
L341.09 121.987
L341.268 121.878
L342.518 121.77
L342.697 121.662
L343.143 121.553
L343.411 121.337
L345.197 121.228
L345.554 120.903
L348.768 120.795
L348.947 120.686
L349.393 120.578
L349.572 120.47
L351 120.361
L351.268 120.144
L351.625 120.036
L352.071 119.603
L352.518 119.494
L352.786 119.278
L353.411 119.169
L353.589 119.061
L353.857 118.952
L354.214 118.627
L356 118.519
L356.268 118.302
L356.892 118.302
L357.071 118.085
L360.999 117.977
L361.178 117.869
L361.624 117.869
L361.803 117.652
L361.981 117.544
L363.588 117.435
L363.767 117.327
L365.82 117.218
L365.999 117.11
L366.356 117.002
L366.535 116.893
L367.785 116.785
L367.963 116.677
L368.499 116.568
L368.767 116.351
L371.267 116.243
L371.445 116.135
L372.427 116.135
L372.606 115.918
L373.231 115.81
L373.409 115.701
L375.016 115.593
L375.284 115.376
L376.534 115.268
L376.713 115.159
L378.409 115.051
L378.588 114.943
L379.48 114.834
L379.659 114.726
L380.552 114.617
L380.73 114.509
L380.998 114.401
L381.177 114.292
L381.444 114.184
L381.623 114.076
L382.069 113.967
L382.248 113.859
L382.694 113.751
L382.873 113.642
L383.409 113.534
L383.587 113.425
L384.48 113.317
L384.659 113.209
L386.176 113.1
L386.444 112.884
L386.712 112.775
L387.069 112.45
L387.605 112.342
L387.783 112.233
L388.676 112.125
L388.944 111.908
L390.015 111.8
L390.194 111.691
L393.765 111.583
L393.944 111.475
L394.836 111.366
L395.015 111.258
L395.64 111.15
L395.908 110.933
L399.747 110.824
L399.925 110.716
L402.068 110.608
L402.247 110.499
L403.229 110.499
L403.407 110.283
L405.104 110.174
L405.282 110.066
L409.478 109.957
L409.657 109.741
L411.71 109.632
L411.889 109.524
L412.871 109.416
L413.05 109.307
L413.853 109.199
L414.032 109.09
L416.442 108.982
L416.71 108.765
L418.139 108.657
L418.317 108.549
L418.585 108.44
L418.942 108.115
L419.388 108.007
L419.567 107.898
L419.835 107.898
L420.013 107.682
L422.513 107.573
L422.692 107.465
L425.102 107.357
L425.281 107.248
L425.638 107.14
L425.995 106.815
L430.102 106.706
L430.281 106.598
L431.084 106.49
L431.263 106.381
L434.03 106.273
L434.209 106.164
L434.655 106.056
L434.834 105.839
L435.816 105.731
L435.995 105.623
L438.316 105.514
L438.494 105.406
L440.726 105.297
L440.905 105.189
L443.494 105.081
L443.673 104.972
L444.208 104.864
L444.476 104.647
L445.369 104.647
L445.548 104.43
L446.976 104.322
L447.155 104.214
L447.512 104.105
L447.69 103.997
L448.583 103.889
L448.762 103.78
L449.387 103.672
L449.654 103.455
L452.244 103.347
L452.422 103.238
L453.493 103.13
L453.761 102.913
L455.011 102.805
L455.19 102.697
L457.422 102.588
L457.6 102.371
L458.85 102.263
L459.029 101.938
L460.368 101.83
L460.547 101.721
L462.064 101.613
L462.243 101.504
L463.582 101.504
L463.761 101.288
L466.171 101.179
L466.439 100.963
L466.885 100.854
L467.064 100.746
L467.332 100.637
L467.51 100.529
L468.492 100.421
L468.671 100.312
L469.832 100.204
L470.01 100.096
L470.814 100.096
L470.992 99.8788
L473.314 99.7705
L473.492 99.6621
L476.528 99.5537
L476.706 99.4453
L477.778 99.337
L477.956 99.2286
L479.385 99.1202
L479.563 99.0119
L481.795 98.9035
L482.152 98.5784
L484.116 98.47
L484.474 98.1449
L486.706 98.0365
L486.973 97.8198
L487.598 97.7114
L487.777 97.603
L488.491 97.4946
L488.67 97.3863
L490.188 97.2779
L490.366 97.1695
L491.437 97.0611
L491.705 96.8444
L492.241 96.736
L492.42 96.6277
L495.366 96.5193
L495.544 96.4109
L499.026 96.3025
L499.205 96.1942
L500.723 96.0858
L500.901 95.9774
L503.758 95.869
L504.026 95.6523
L505.454 95.6523
L505.633 95.4356
L506.258 95.3272
L506.436 95.2188
L507.597 95.1104
L507.776 95.0021
L511.168 94.8937
L511.347 94.7853
L515.811 94.677
L516.079 94.4602
L517.329 94.3518
L517.507 94.2435
L518.043 94.1351
L518.221 94.0267
L518.311 94.0267
L518.311 94.0267" style="fill:none;stroke:#bf00bf;stroke-linecap:square;"/>
   </g>
   <g id="matplotlib.axis_1">
    <g id="xtick_1">
     <g id="line2d_6">
      <defs>
       <path d="
M0 0
L0 -4" id="mc7db9fdffb" style="stroke:#000000;stroke-width:0.5;"/>
      </defs>
      <g>
       <use style="stroke:#000000;stroke-width:0.5;" x="72.0" xlink:href="#mc7db9fdffb" y="388.8"/>
      </g>
     </g>
     <g id="line2d_7">
      <defs>
       <path d="
M0 0
L0 4" id="m5a7d422ac3" style="stroke:#000000;stroke-width:0.5;"/>
      </defs>
      <g>
       <use style="stroke:#000000;stroke-width:0.5;" x="72.0" xlink:href="#m5a7d422ac3" y="43.2"/>
      </g>
     </g>
     <g id="text_1">
      <!-- 0 -->
      <defs>
       <path d="
M56.9844 36.375
Q56.9844 16.7969 50.8594 7.64062
Q44.7344 -1.51562 31.8438 -1.51562
Q18.75 -1.51562 12.7188 7.76562
Q6.6875 17.0469 6.6875 36.2812
Q6.6875 55.6719 12.7812 64.9219
Q18.8906 74.1719 31.8438 74.1719
Q44.9219 74.1719 50.9531 64.7656
Q56.9844 55.375 56.9844 36.375
M44.1406 14.2031
Q45.8438 18.1719 46.4531 23.5156
Q47.0781 28.8594 47.0781 36.375
Q47.0781 43.7969 46.4531 49.2656
Q45.8438 54.7344 44.0938 58.5469
Q42.3906 62.3125 39.4219 64.2031
Q36.4688 66.1094 31.8438 66.1094
Q27.25 66.1094 24.2344 64.2031
Q21.2344 62.3125 19.4844 58.4531
Q17.8281 54.8281 17.2188 49.0156
Q16.6094 43.2188 16.6094 36.2812
Q16.6094 28.6562 17.1406 23.5312
Q17.6719 18.4062 19.4375 14.3594
Q21.0469 10.5469 24 8.54688
Q26.9531 6.54688 31.8438 6.54688
Q36.4219 6.54688 39.4531 8.45312
Q42.4844 10.3594 44.1406 14.2031" id="Verdana-30"/>
      </defs>
      <g transform="translate(68.9821875 401.918125)scale(0.12 -0.12)">
       <use xlink:href="#Verdana-30"/>
      </g>
     </g>
    </g>
    <g id="xtick_2">
     <g id="line2d_8">
      <g>
       <use style="stroke:#000000;stroke-width:0.5;" x="161.28" xlink:href="#mc7db9fdffb" y="388.8"/>
      </g>
     </g>
     <g id="line2d_9">
      <g>
       <use style="stroke:#000000;stroke-width:0.5;" x="161.28" xlink:href="#m5a7d422ac3" y="43.2"/>
      </g>
     </g>
     <g id="text_2">
      <!-- 1000 -->
      <defs>
       <path d="
M52.9375 0
L13.5781 0
L13.5781 7.42188
L28.7188 7.42188
L28.7188 56.1562
L13.5781 56.1562
L13.5781 62.7969
Q16.6562 62.7969 20.1719 63.2969
Q23.6875 63.8125 25.4844 64.7969
Q27.7344 66.0156 29.0312 67.8906
Q30.3281 69.7812 30.5156 72.9531
L38.0938 72.9531
L38.0938 7.42188
L52.9375 7.42188
z
" id="Verdana-31"/>
      </defs>
      <g transform="translate(147.2315625 401.918125)scale(0.12 -0.12)">
       <use xlink:href="#Verdana-31"/>
       <use x="63.57421875" xlink:href="#Verdana-30"/>
       <use x="127.1484375" xlink:href="#Verdana-30"/>
       <use x="190.72265625" xlink:href="#Verdana-30"/>
      </g>
     </g>
    </g>
    <g id="xtick_3">
     <g id="line2d_10">
      <g>
       <use style="stroke:#000000;stroke-width:0.5;" x="250.56" xlink:href="#mc7db9fdffb" y="388.8"/>
      </g>
     </g>
     <g id="line2d_11">
      <g>
       <use style="stroke:#000000;stroke-width:0.5;" x="250.56" xlink:href="#m5a7d422ac3" y="43.2"/>
      </g>
     </g>
     <g id="text_3">
      <!-- 2000 -->
      <defs>
       <path d="
M57.0781 0
L7.85938 0
L7.85938 10.2031
Q12.9844 14.5938 18.1406 18.9844
Q23.2969 23.3906 27.7344 27.7344
Q37.1094 36.8125 40.5781 42.1562
Q44.0469 47.5156 44.0469 53.7188
Q44.0469 59.375 40.3125 62.5625
Q36.5781 65.7656 29.8906 65.7656
Q25.4375 65.7656 20.2656 64.2031
Q15.0938 62.6406 10.1562 59.4219
L9.67188 59.4219
L9.67188 69.6719
Q13.1406 71.3906 18.9219 72.7969
Q24.7031 74.2188 30.125 74.2188
Q41.3125 74.2188 47.6562 68.8125
Q54 63.4219 54 54.2031
Q54 50.0469 52.9531 46.4531
Q51.9062 42.875 49.8594 39.6562
Q47.9531 36.625 45.3906 33.6875
Q42.8281 30.7656 39.1562 27.2031
Q33.9375 22.0781 28.3594 17.2656
Q22.7969 12.4531 17.9688 8.34375
L57.0781 8.34375
z
" id="Verdana-32"/>
      </defs>
      <g transform="translate(236.1684375 401.918125)scale(0.12 -0.12)">
       <use xlink:href="#Verdana-32"/>
       <use x="63.57421875" xlink:href="#Verdana-30"/>
       <use x="127.1484375" xlink:href="#Verdana-30"/>
       <use x="190.72265625" xlink:href="#Verdana-30"/>
      </g>
     </g>
    </g>
    <g id="xtick_4">
     <g id="line2d_12">
      <g>
       <use style="stroke:#000000;stroke-width:0.5;" x="339.84" xlink:href="#mc7db9fdffb" y="388.8"/>
      </g>
     </g>
     <g id="line2d_13">
      <g>
       <use style="stroke:#000000;stroke-width:0.5;" x="339.84" xlink:href="#m5a7d422ac3" y="43.2"/>
      </g>
     </g>
     <g id="text_4">
      <!-- 3000 -->
      <defs>
       <path d="
M50.6875 35.0156
Q53.0312 32.9062 54.5469 29.7344
Q56.0625 26.5625 56.0625 21.5312
Q56.0625 16.5469 54.25 12.3906
Q52.4375 8.25 49.1719 5.17188
Q45.5156 1.76562 40.5469 0.125
Q35.5938 -1.51562 29.6875 -1.51562
Q23.6406 -1.51562 17.7812 -0.0625
Q11.9219 1.375 8.15625 3.07812
L8.15625 13.2812
L8.89062 13.2812
Q13.0312 10.5469 18.6406 8.73438
Q24.2656 6.9375 29.5 6.9375
Q32.5625 6.9375 36.0312 7.95312
Q39.5 8.98438 41.6562 10.9844
Q43.8906 13.1406 44.9844 15.7188
Q46.0938 18.3125 46.0938 22.2656
Q46.0938 26.1719 44.8438 28.7344
Q43.6094 31.2969 41.4062 32.7656
Q39.2031 34.2812 36.0781 34.8438
Q32.9531 35.4062 29.3438 35.4062
L24.9531 35.4062
L24.9531 43.5
L28.375 43.5
Q35.7969 43.5 40.2031 46.5938
Q44.625 49.7031 44.625 55.6719
Q44.625 58.2969 43.5 60.2656
Q42.3906 62.25 40.375 63.5312
Q38.2812 64.7969 35.8906 65.2812
Q33.5 65.7656 30.4688 65.7656
Q25.8281 65.7656 20.5938 64.1094
Q15.375 62.4531 10.75 59.4219
L10.25 59.4219
L10.25 69.625
Q13.7188 71.3438 19.5 72.7812
Q25.2969 74.2188 30.7188 74.2188
Q36.0312 74.2188 40.0781 73.2344
Q44.1406 72.2656 47.4062 70.125
Q50.9219 67.7812 52.7344 64.4531
Q54.5469 61.1406 54.5469 56.6875
Q54.5469 50.6406 50.2656 46.125
Q46 41.6094 40.1875 40.4375
L40.1875 39.75
Q42.5312 39.3594 45.5469 38.1094
Q48.5781 36.8594 50.6875 35.0156" id="Verdana-33"/>
      </defs>
      <g transform="translate(325.46625 401.918125)scale(0.12 -0.12)">
       <use xlink:href="#Verdana-33"/>
       <use x="63.57421875" xlink:href="#Verdana-30"/>
       <use x="127.1484375" xlink:href="#Verdana-30"/>
       <use x="190.72265625" xlink:href="#Verdana-30"/>
      </g>
     </g>
    </g>
    <g id="xtick_5">
     <g id="line2d_14">
      <g>
       <use style="stroke:#000000;stroke-width:0.5;" x="429.12" xlink:href="#mc7db9fdffb" y="388.8"/>
      </g>
     </g>
     <g id="line2d_15">
      <g>
       <use style="stroke:#000000;stroke-width:0.5;" x="429.12" xlink:href="#m5a7d422ac3" y="43.2"/>
      </g>
     </g>
     <g id="text_5">
      <!-- 4000 -->
      <defs>
       <path d="
M58.7344 20.4531
L47.9531 20.4531
L47.9531 0
L38.5781 0
L38.5781 20.4531
L3.76562 20.4531
L3.76562 31.6875
L38.9688 72.7031
L47.9531 72.7031
L47.9531 28.2656
L58.7344 28.2656
z

M38.5781 28.2656
L38.5781 61.0781
L10.4062 28.2656
z
" id="Verdana-34"/>
      </defs>
      <g transform="translate(414.4828125 401.918125)scale(0.12 -0.12)">
       <use xlink:href="#Verdana-34"/>
       <use x="63.57421875" xlink:href="#Verdana-30"/>
       <use x="127.1484375" xlink:href="#Verdana-30"/>
       <use x="190.72265625" xlink:href="#Verdana-30"/>
      </g>
     </g>
    </g>
    <g id="xtick_6">
     <g id="line2d_16">
      <g>
       <use style="stroke:#000000;stroke-width:0.5;" x="518.4" xlink:href="#mc7db9fdffb" y="388.8"/>
      </g>
     </g>
     <g id="line2d_17">
      <g>
       <use style="stroke:#000000;stroke-width:0.5;" x="518.4" xlink:href="#m5a7d422ac3" y="43.2"/>
      </g>
     </g>
     <g id="text_6">
      <!-- 5000 -->
      <defs>
       <path d="
M56.5 23.0938
Q56.5 18.0156 54.6406 13.375
Q52.7812 8.73438 49.5625 5.5625
Q46.0469 2.15625 41.1875 0.3125
Q36.3281 -1.51562 29.9375 -1.51562
Q23.9688 -1.51562 18.4531 -0.265625
Q12.9375 0.984375 9.125 2.73438
L9.125 13.0312
L9.8125 13.0312
Q13.8125 10.5 19.1875 8.71875
Q24.5625 6.9375 29.7344 6.9375
Q33.2031 6.9375 36.4531 7.90625
Q39.7031 8.89062 42.2344 11.3281
Q44.3906 13.4219 45.4844 16.3438
Q46.5781 19.2812 46.5781 23.1406
Q46.5781 26.9062 45.2812 29.4844
Q44 32.0781 41.7031 33.6406
Q39.1562 35.5 35.5156 36.25
Q31.8906 37.0156 27.3906 37.0156
Q23.0938 37.0156 19.1094 36.4219
Q15.1406 35.8438 12.25 35.25
L12.25 72.7031
L56 72.7031
L56 64.1562
L21.6875 64.1562
L21.6875 44.8281
Q23.7812 45.0156 25.9688 45.1094
Q28.1719 45.2188 29.7812 45.2188
Q35.6875 45.2188 40.125 44.2188
Q44.5781 43.2188 48.2969 40.6719
Q52.2031 37.9844 54.3438 33.7344
Q56.5 29.5 56.5 23.0938" id="Verdana-35"/>
      </defs>
      <g transform="translate(504.084375 401.918125)scale(0.12 -0.12)">
       <use xlink:href="#Verdana-35"/>
       <use x="63.57421875" xlink:href="#Verdana-30"/>
       <use x="127.1484375" xlink:href="#Verdana-30"/>
       <use x="190.72265625" xlink:href="#Verdana-30"/>
      </g>
     </g>
    </g>
    <g id="text_7">
     <!-- Objective function exectuions -->
     <defs>
      <path d="
M63.9688 64.3594
Q68.4062 59.4688 70.7656 52.3906
Q73.1406 45.3125 73.1406 36.3281
Q73.1406 27.3438 70.7188 20.2344
Q68.3125 13.1406 63.9688 8.40625
Q59.4688 3.46875 53.3438 0.96875
Q47.2188 -1.51562 39.3594 -1.51562
Q31.6875 -1.51562 25.4062 1.01562
Q19.1406 3.5625 14.75 8.40625
Q10.3594 13.2344 7.98438 20.2656
Q5.60938 27.2969 5.60938 36.3281
Q5.60938 45.2188 7.95312 52.2656
Q10.2969 59.3281 14.7969 64.3594
Q19.0938 69.1406 25.4688 71.6719
Q31.8438 74.2188 39.3594 74.2188
Q47.1719 74.2188 53.3906 71.6562
Q59.625 69.0938 63.9688 64.3594
M63.0938 36.3281
Q63.0938 50.4844 56.7344 58.1719
Q50.3906 65.875 39.4062 65.875
Q28.3281 65.875 22 58.1719
Q15.6719 50.4844 15.6719 36.3281
Q15.6719 22.0156 22.1094 14.4219
Q28.5625 6.84375 39.4062 6.84375
Q50.25 6.84375 56.6719 14.4219
Q63.0938 22.0156 63.0938 36.3281" id="Verdana-4f"/>
      <path d="
M38.375 67.0938
L37.8906 67.0938
Q36.375 67.5312 33.9375 67.9844
Q31.5 68.4531 29.6406 68.4531
Q23.7344 68.4531 21.0625 65.8438
Q18.4062 63.2344 18.4062 56.3906
L18.4062 54.5469
L34.9688 54.5469
L34.9688 46.8281
L18.7031 46.8281
L18.7031 0
L9.51562 0
L9.51562 46.8281
L3.32812 46.8281
L3.32812 54.5469
L9.51562 54.5469
L9.51562 56.3438
Q9.51562 66.0625 14.3438 71.2656
Q19.1875 76.4688 28.3281 76.4688
Q31.3906 76.4688 33.8594 76.1719
Q36.3281 75.875 38.375 75.4844
z
" id="Verdana-66"/>
      <path d="
M56.25 0
L44.6719 0
L29.2031 20.9531
L13.625 0
L2.9375 0
L24.2188 27.2031
L3.125 54.5469
L14.7031 54.5469
L30.0781 33.9375
L45.5156 54.5469
L56.25 54.5469
L34.8125 27.6875
z
" id="Verdana-78"/>
      <path d="
M54.6406 0
L45.4531 0
L45.4531 31.0625
Q45.4531 34.8125 45.0156 38.1094
Q44.5781 41.4062 43.4062 43.2656
Q42.1875 45.3125 39.8906 46.3125
Q37.5938 47.3125 33.9375 47.3125
Q30.1719 47.3125 26.0625 45.4531
Q21.9688 43.6094 18.2188 40.7188
L18.2188 0
L9.03125 0
L9.03125 54.5469
L18.2188 54.5469
L18.2188 48.4844
Q22.5156 52.0469 27.0938 54.0469
Q31.6875 56.0625 36.5312 56.0625
Q45.3594 56.0625 50 50.7344
Q54.6406 45.4062 54.6406 35.4062
z
" id="Verdana-6e"/>
      <path d="
M18.8906 63.6719
L8.54688 63.6719
L8.54688 73.1875
L18.8906 73.1875
z

M18.3125 0
L9.125 0
L9.125 54.5469
L18.3125 54.5469
z
" id="Verdana-69"/>
      <path d="
M56.2031 54.5469
L34.125 0
L24.9062 0
L2.98438 54.5469
L12.9375 54.5469
L29.8281 11.1406
L46.5781 54.5469
z
" id="Verdana-76"/>
      <path d="
M37.3594 0.484375
Q34.7656 -0.203125 31.7031 -0.640625
Q28.6562 -1.07812 26.2656 -1.07812
Q17.9219 -1.07812 13.5781 3.40625
Q9.23438 7.90625 9.23438 17.8281
L9.23438 46.8281
L3.03125 46.8281
L3.03125 54.5469
L9.23438 54.5469
L9.23438 70.2188
L18.4062 70.2188
L18.4062 54.5469
L37.3594 54.5469
L37.3594 46.8281
L18.4062 46.8281
L18.4062 21.9688
Q18.4062 17.6719 18.5938 15.25
Q18.7969 12.8438 19.9688 10.75
Q21.0469 8.79688 22.9219 7.89062
Q24.8125 6.98438 28.6562 6.98438
Q30.9062 6.98438 33.3438 7.64062
Q35.7969 8.29688 36.8594 8.73438
L37.3594 8.73438
z
" id="Verdana-74"/>
      <path d="
M54.6875 26.3125
L14.5 26.3125
Q14.5 21.2969 16.0156 17.5469
Q17.5312 13.8125 20.1719 11.4219
Q22.7031 9.07812 26.1875 7.90625
Q29.6875 6.73438 33.8906 6.73438
Q39.4531 6.73438 45.0938 8.95312
Q50.7344 11.1875 53.125 13.3281
L53.6094 13.3281
L53.6094 3.32812
Q48.9688 1.375 44.1406 0.046875
Q39.3125 -1.26562 33.9844 -1.26562
Q20.4062 -1.26562 12.7812 6.07812
Q5.17188 13.4219 5.17188 26.9531
Q5.17188 40.3281 12.4688 48.1875
Q19.7812 56.0625 31.6875 56.0625
Q42.7188 56.0625 48.7031 49.6094
Q54.6875 43.1719 54.6875 31.2969
z

M45.75 33.3438
Q45.7031 40.5781 42.1094 44.5312
Q38.5312 48.4844 31.2031 48.4844
Q23.8281 48.4844 19.4531 44.1406
Q15.0938 39.7969 14.5 33.3438
z
" id="Verdana-65"/>
      <path d="
M26.0312 63.6719
L15.6719 63.6719
L15.6719 73.1875
L26.0312 73.1875
z

M25.4375 -1.3125
Q25.4375 -10.8906 20.5469 -15.7656
Q15.6719 -20.6562 7.46875 -20.6562
Q5.51562 -20.6562 2.3125 -20.2656
Q-0.875 -19.875 -3.03125 -19.2812
L-3.03125 -10.5469
L-2.54688 -10.5469
Q-1.17188 -11.0781 1.14062 -11.7656
Q3.46875 -12.4531 5.67188 -12.4531
Q9.1875 -12.4531 11.3281 -11.4688
Q13.4844 -10.5 14.5469 -8.54688
Q15.625 -6.59375 15.9375 -3.82812
Q16.2656 -1.07812 16.2656 2.875
L16.2656 46.8281
L4.89062 46.8281
L4.89062 54.5469
L25.4375 54.5469
z
" id="Verdana-6a"/>
      <path d="
M55.5156 27.25
Q55.5156 13.9219 48.6719 6.20312
Q41.8438 -1.51562 30.375 -1.51562
Q18.7969 -1.51562 11.9844 6.20312
Q5.17188 13.9219 5.17188 27.25
Q5.17188 40.5781 11.9844 48.3125
Q18.7969 56.0625 30.375 56.0625
Q41.8438 56.0625 48.6719 48.3125
Q55.5156 40.5781 55.5156 27.25
M46.0469 27.25
Q46.0469 37.8438 41.8906 42.9844
Q37.75 48.1406 30.375 48.1406
Q22.9062 48.1406 18.7812 42.9844
Q14.6562 37.8438 14.6562 27.25
Q14.6562 17 18.7969 11.6875
Q22.9531 6.39062 30.375 6.39062
Q37.7031 6.39062 41.875 11.6406
Q46.0469 16.8906 46.0469 27.25" id="Verdana-6f"/>
      <path d="
M49.3594 3.42188
Q44.7812 1.21875 40.6562 0
Q36.5312 -1.21875 31.8906 -1.21875
Q25.9844 -1.21875 21.0469 0.515625
Q16.1094 2.25 12.5938 5.76562
Q9.03125 9.28125 7.07812 14.6406
Q5.125 20.0156 5.125 27.2031
Q5.125 40.5781 12.4688 48.1875
Q19.8281 55.8125 31.8906 55.8125
Q36.5781 55.8125 41.0938 54.4844
Q45.6094 53.1719 49.3594 51.2656
L49.3594 41.0625
L48.875 41.0625
Q44.6719 44.3438 40.2031 46.0938
Q35.75 47.8594 31.5 47.8594
Q23.6875 47.8594 19.1719 42.6094
Q14.6562 37.3594 14.6562 27.2031
Q14.6562 17.3281 19.0625 12.0312
Q23.4844 6.73438 31.5 6.73438
Q34.2812 6.73438 37.1562 7.46875
Q40.0469 8.20312 42.3281 9.375
Q44.3438 10.4062 46.0938 11.5469
Q47.8594 12.7031 48.875 13.5312
L49.3594 13.5312
z
" id="Verdana-63"/>
      <path d="
M48 15.7188
Q48 8.25 41.8125 3.46875
Q35.6406 -1.3125 24.9531 -1.3125
Q18.8906 -1.3125 13.8438 0.125
Q8.79688 1.5625 5.375 3.26562
L5.375 13.5781
L5.85938 13.5781
Q10.2031 10.2969 15.5156 8.375
Q20.8438 6.45312 25.7344 6.45312
Q31.7812 6.45312 35.2031 8.40625
Q38.625 10.3594 38.625 14.5469
Q38.625 17.7812 36.7656 19.4375
Q34.9062 21.0938 29.6406 22.2656
Q27.6875 22.7031 24.5312 23.2812
Q21.3906 23.875 18.7969 24.5625
Q11.625 26.4688 8.60938 30.1562
Q5.60938 33.8438 5.60938 39.2031
Q5.60938 42.5781 7 45.5469
Q8.40625 48.5312 11.2344 50.875
Q13.9688 53.1719 18.1875 54.5156
Q22.4062 55.8594 27.6406 55.8594
Q32.5156 55.8594 37.5156 54.6562
Q42.5312 53.4688 45.8438 51.7656
L45.8438 41.9375
L45.3594 41.9375
Q41.8438 44.5312 36.8125 46.3125
Q31.7812 48.0938 26.9531 48.0938
Q21.9219 48.0938 18.4531 46.1562
Q14.9844 44.2344 14.9844 40.4375
Q14.9844 37.0625 17.0938 35.3594
Q19.1406 33.6406 23.7344 32.5625
Q26.2656 31.9844 29.4062 31.3906
Q32.5625 30.8125 34.6719 30.3281
Q41.0625 28.8594 44.5312 25.2969
Q48 21.6875 48 15.7188" id="Verdana-73"/>
      <path id="Verdana-20"/>
      <path d="
M57.0312 27.6875
Q57.0312 20.8438 55.0938 15.375
Q53.1719 9.90625 49.9062 6.20312
Q46.4375 2.34375 42.2812 0.40625
Q38.1406 -1.51562 33.1562 -1.51562
Q28.5156 -1.51562 25.0469 -0.40625
Q21.5781 0.6875 18.2188 2.54688
L17.625 0
L9.03125 0
L9.03125 75.9844
L18.2188 75.9844
L18.2188 48.8281
Q22.0781 52 26.4219 54.0312
Q30.7656 56.0625 36.1875 56.0625
Q45.8438 56.0625 51.4375 48.6406
Q57.0312 41.2188 57.0312 27.6875
M47.5625 27.4375
Q47.5625 37.2031 44.3281 42.25
Q41.1094 47.3125 33.9375 47.3125
Q29.9375 47.3125 25.8281 45.5781
Q21.7344 43.8438 18.2188 41.1094
L18.2188 9.85938
Q22.125 8.10938 24.9219 7.42188
Q27.7344 6.73438 31.2969 6.73438
Q38.9219 6.73438 43.2344 11.7344
Q47.5625 16.75 47.5625 27.4375" id="Verdana-62"/>
      <path d="
M54.25 0
L45.0625 0
L45.0625 6.0625
Q40.4375 2.39062 36.1875 0.4375
Q31.9375 -1.51562 26.8125 -1.51562
Q18.2188 -1.51562 13.4219 3.73438
Q8.64062 8.98438 8.64062 19.1406
L8.64062 54.5469
L17.8281 54.5469
L17.8281 23.4844
Q17.8281 19.3438 18.2188 16.375
Q18.6094 13.4219 19.875 11.3281
Q21.1875 9.1875 23.2812 8.20312
Q25.3906 7.23438 29.3906 7.23438
Q32.9531 7.23438 37.1719 9.07812
Q41.4062 10.9375 45.0625 13.8125
L45.0625 54.5469
L54.25 54.5469
z
" id="Verdana-75"/>
     </defs>
     <g transform="translate(206.5078125 418.509375)scale(0.12 -0.12)">
      <use xlink:href="#Verdana-4f"/>
      <use x="78.7109375" xlink:href="#Verdana-62"/>
      <use x="141.015625" xlink:href="#Verdana-6a"/>
      <use x="175.439453125" xlink:href="#Verdana-65"/>
      <use x="235.009765625" xlink:href="#Verdana-63"/>
      <use x="287.109375" xlink:href="#Verdana-74"/>
      <use x="326.513671875" xlink:href="#Verdana-69"/>
      <use x="353.955078125" xlink:href="#Verdana-76"/>
      <use x="412.259765625" xlink:href="#Verdana-65"/>
      <use x="471.830078125" xlink:href="#Verdana-20"/>
      <use x="506.986328125" xlink:href="#Verdana-66"/>
      <use x="542.142578125" xlink:href="#Verdana-75"/>
      <use x="605.423828125" xlink:href="#Verdana-6e"/>
      <use x="668.705078125" xlink:href="#Verdana-63"/>
      <use x="720.8046875" xlink:href="#Verdana-74"/>
      <use x="760.208984375" xlink:href="#Verdana-69"/>
      <use x="787.650390625" xlink:href="#Verdana-6f"/>
      <use x="848.34375" xlink:href="#Verdana-6e"/>
      <use x="911.625" xlink:href="#Verdana-20"/>
      <use x="946.78125" xlink:href="#Verdana-65"/>
      <use x="1006.3515625" xlink:href="#Verdana-78"/>
      <use x="1064.40625" xlink:href="#Verdana-65"/>
      <use x="1123.9765625" xlink:href="#Verdana-63"/>
      <use x="1176.076171875" xlink:href="#Verdana-74"/>
      <use x="1215.48046875" xlink:href="#Verdana-75"/>
      <use x="1278.76171875" xlink:href="#Verdana-69"/>
      <use x="1306.203125" xlink:href="#Verdana-6f"/>
      <use x="1366.896484375" xlink:href="#Verdana-6e"/>
      <use x="1430.177734375" xlink:href="#Verdana-73"/>
     </g>
    </g>
   </g>
   <g id="matplotlib.axis_2">
    <g id="ytick_1">
     <g id="line2d_18">
      <defs>
       <path d="
M0 0
L4 0" id="md7965d1ba0" style="stroke:#000000;stroke-width:0.5;"/>
      </defs>
      <g>
       <use style="stroke:#000000;stroke-width:0.5;" x="72.0" xlink:href="#md7965d1ba0" y="388.8"/>
      </g>
     </g>
     <g id="line2d_19">
      <defs>
       <path d="
M0 0
L-4 0" id="md9a1c1a7cd" style="stroke:#000000;stroke-width:0.5;"/>
      </defs>
      <g>
       <use style="stroke:#000000;stroke-width:0.5;" x="518.4" xlink:href="#md9a1c1a7cd" y="388.8"/>
      </g>
     </g>
     <g id="text_8">
      <!-- 0.0 -->
      <defs>
       <path d="
M24.0312 0
L12.3594 0
L12.3594 13.9219
L24.0312 13.9219
z
" id="Verdana-2e"/>
      </defs>
      <g transform="translate(49.97 392.1515625)scale(0.12 -0.12)">
       <use xlink:href="#Verdana-30"/>
       <use x="63.57421875" xlink:href="#Verdana-2e"/>
       <use x="99.951171875" xlink:href="#Verdana-30"/>
      </g>
     </g>
    </g>
    <g id="ytick_2">
     <g id="line2d_20">
      <g>
       <use style="stroke:#000000;stroke-width:0.5;" x="72.0" xlink:href="#md7965d1ba0" y="319.68"/>
      </g>
     </g>
     <g id="line2d_21">
      <g>
       <use style="stroke:#000000;stroke-width:0.5;" x="518.4" xlink:href="#md9a1c1a7cd" y="319.68"/>
      </g>
     </g>
     <g id="text_9">
      <!-- 0.2 -->
      <g transform="translate(49.95875 323.0315625)scale(0.12 -0.12)">
       <use xlink:href="#Verdana-30"/>
       <use x="63.57421875" xlink:href="#Verdana-2e"/>
       <use x="99.951171875" xlink:href="#Verdana-32"/>
      </g>
     </g>
    </g>
    <g id="ytick_3">
     <g id="line2d_22">
      <g>
       <use style="stroke:#000000;stroke-width:0.5;" x="72.0" xlink:href="#md7965d1ba0" y="250.56"/>
      </g>
     </g>
     <g id="line2d_23">
      <g>
       <use style="stroke:#000000;stroke-width:0.5;" x="518.4" xlink:href="#md9a1c1a7cd" y="250.56"/>
      </g>
     </g>
     <g id="text_10">
      <!-- 0.4 -->
      <g transform="translate(49.76 253.9115625)scale(0.12 -0.12)">
       <use xlink:href="#Verdana-30"/>
       <use x="63.57421875" xlink:href="#Verdana-2e"/>
       <use x="99.951171875" xlink:href="#Verdana-34"/>
      </g>
     </g>
    </g>
    <g id="ytick_4">
     <g id="line2d_24">
      <g>
       <use style="stroke:#000000;stroke-width:0.5;" x="72.0" xlink:href="#md7965d1ba0" y="181.44"/>
      </g>
     </g>
     <g id="line2d_25">
      <g>
       <use style="stroke:#000000;stroke-width:0.5;" x="518.4" xlink:href="#md9a1c1a7cd" y="181.44"/>
      </g>
     </g>
     <g id="text_11">
      <!-- 0.6 -->
      <defs>
       <path d="
M58.1562 23.5781
Q58.1562 12.5 50.8594 5.48438
Q43.5625 -1.51562 32.9531 -1.51562
Q27.5938 -1.51562 23.1875 0.140625
Q18.7969 1.8125 15.4375 5.07812
Q11.2344 9.125 8.95312 15.8125
Q6.6875 22.5156 6.6875 31.9375
Q6.6875 41.6094 8.76562 49.0781
Q10.8438 56.5469 15.375 62.3594
Q19.6719 67.875 26.4531 70.9688
Q33.25 74.0781 42.2812 74.0781
Q45.1719 74.0781 47.125 73.8281
Q49.0781 73.5781 51.0781 72.9531
L51.0781 63.625
L50.5938 63.625
Q49.2188 64.3594 46.4531 65.0156
Q43.7031 65.6719 40.8281 65.6719
Q30.3281 65.6719 24.0781 59.1094
Q17.8281 52.5469 16.7969 41.3594
Q20.9062 43.8438 24.875 45.1406
Q28.8594 46.4375 34.0781 46.4375
Q38.7188 46.4375 42.25 45.5781
Q45.7969 44.7344 49.5156 42.1406
Q53.8125 39.1562 55.9844 34.6094
Q58.1562 30.0781 58.1562 23.5781
M48.25 23.1875
Q48.25 27.7344 46.9062 30.7031
Q45.5625 33.6875 42.4844 35.8906
Q40.2344 37.4531 37.5 37.9375
Q34.7656 38.4219 31.7812 38.4219
Q27.6406 38.4219 24.0781 37.4375
Q20.5156 36.4688 16.75 34.4219
Q16.6562 33.3438 16.5938 32.3438
Q16.5469 31.3438 16.5469 29.8281
Q16.5469 22.125 18.1406 17.6562
Q19.7344 13.1875 22.5156 10.5938
Q24.75 8.45312 27.3594 7.45312
Q29.9844 6.45312 33.0625 6.45312
Q40.1406 6.45312 44.1875 10.7656
Q48.25 15.0938 48.25 23.1875" id="Verdana-36"/>
      </defs>
      <g transform="translate(49.829375 184.7915625)scale(0.12 -0.12)">
       <use xlink:href="#Verdana-30"/>
       <use x="63.57421875" xlink:href="#Verdana-2e"/>
       <use x="99.951171875" xlink:href="#Verdana-36"/>
      </g>
     </g>
    </g>
    <g id="ytick_5">
     <g id="line2d_26">
      <g>
       <use style="stroke:#000000;stroke-width:0.5;" x="72.0" xlink:href="#md7965d1ba0" y="112.32"/>
      </g>
     </g>
     <g id="line2d_27">
      <g>
       <use style="stroke:#000000;stroke-width:0.5;" x="518.4" xlink:href="#md9a1c1a7cd" y="112.32"/>
      </g>
     </g>
     <g id="text_12">
      <!-- 0.8 -->
      <defs>
       <path d="
M57.625 20.2656
Q57.625 10.8438 50.2656 4.59375
Q42.9219 -1.65625 31.7812 -1.65625
Q19.9688 -1.65625 12.9531 4.4375
Q5.95312 10.5469 5.95312 20.0625
Q5.95312 26.125 9.46875 31.0312
Q12.9844 35.9375 19.3906 38.8125
L19.3906 39.1094
Q13.5312 42.2344 10.7188 45.9375
Q7.90625 49.6562 7.90625 55.2188
Q7.90625 63.4219 14.6406 68.8906
Q21.3906 74.3594 31.7812 74.3594
Q42.6719 74.3594 49.1719 69.1406
Q55.6719 63.9219 55.6719 55.8594
Q55.6719 50.9219 52.5938 46.1562
Q49.5156 41.4062 43.5625 38.7188
L43.5625 38.4219
Q50.3906 35.5 54 31.2031
Q57.625 26.9062 57.625 20.2656
M46.0469 55.7656
Q46.0469 60.9844 42.0156 64.0781
Q37.9844 67.1875 31.7344 67.1875
Q25.5938 67.1875 21.6562 64.25
Q17.7188 61.3281 17.7188 56.3438
Q17.7188 52.8281 19.7031 50.2656
Q21.6875 47.7031 25.6875 45.7031
Q27.4844 44.8281 30.875 43.4062
Q34.2812 42 37.5 41.0625
Q42.3281 44.2812 44.1875 47.75
Q46.0469 51.2188 46.0469 55.7656
M47.5625 19.3438
Q47.5625 23.8281 45.5781 26.5312
Q43.6094 29.25 37.8438 31.9844
Q35.5469 33.0625 32.8125 33.9844
Q30.0781 34.9062 25.5312 36.5781
Q21.1406 34.1875 18.4844 30.0781
Q15.8281 25.9844 15.8281 20.7969
Q15.8281 14.2031 20.3594 9.90625
Q24.9062 5.60938 31.8906 5.60938
Q39.0156 5.60938 43.2812 9.26562
Q47.5625 12.9375 47.5625 19.3438" id="Verdana-38"/>
      </defs>
      <g transform="translate(49.893125 115.6715625)scale(0.12 -0.12)">
       <use xlink:href="#Verdana-30"/>
       <use x="63.57421875" xlink:href="#Verdana-2e"/>
       <use x="99.951171875" xlink:href="#Verdana-38"/>
      </g>
     </g>
    </g>
    <g id="ytick_6">
     <g id="line2d_28">
      <g>
       <use style="stroke:#000000;stroke-width:0.5;" x="72.0" xlink:href="#md7965d1ba0" y="43.2"/>
      </g>
     </g>
     <g id="line2d_29">
      <g>
       <use style="stroke:#000000;stroke-width:0.5;" x="518.4" xlink:href="#md9a1c1a7cd" y="43.2"/>
      </g>
     </g>
     <g id="text_13">
      <!-- 1.0 -->
      <g transform="translate(50.796875 46.5515625)scale(0.12 -0.12)">
       <use xlink:href="#Verdana-31"/>
       <use x="63.57421875" xlink:href="#Verdana-2e"/>
       <use x="99.951171875" xlink:href="#Verdana-30"/>
      </g>
     </g>
    </g>
    <g id="text_14">
     <!-- Data Profile T-0.1000000 -->
     <defs>
      <path d="
M18.3125 0
L9.125 0
L9.125 75.9844
L18.3125 75.9844
z
" id="Verdana-6c"/>
      <path d="
M57.3281 50.7344
Q57.3281 45.9062 55.6406 41.7656
Q53.9531 37.6406 50.9219 34.625
Q47.1719 30.8594 42.0469 28.9688
Q36.9219 27.0938 29.1094 27.0938
L19.4375 27.0938
L19.4375 0
L9.76562 0
L9.76562 72.7031
L29.5 72.7031
Q36.0312 72.7031 40.5781 71.6094
Q45.125 70.5156 48.6406 68.1719
Q52.7812 65.375 55.0469 61.2188
Q57.3281 57.0781 57.3281 50.7344
M47.2656 50.4844
Q47.2656 54.25 45.9375 57.0312
Q44.625 59.8125 41.9375 61.5781
Q39.5938 63.0938 36.5938 63.75
Q33.5938 64.4062 29 64.4062
L19.4375 64.4062
L19.4375 35.3594
L27.5938 35.3594
Q33.4531 35.3594 37.1094 36.4062
Q40.7656 37.4531 43.0625 39.75
Q45.3594 42.0938 46.3125 44.6719
Q47.2656 47.2656 47.2656 50.4844" id="Verdana-50"/>
      <path d="
M71.1875 36.2812
Q71.1875 26.375 66.8594 18.3125
Q62.5469 10.25 55.375 5.8125
Q50.3906 2.73438 44.2656 1.35938
Q38.1406 0 28.125 0
L9.76562 0
L9.76562 72.7031
L27.9375 72.7031
Q38.5781 72.7031 44.8438 71.1562
Q51.125 69.625 55.4688 66.9375
Q62.8906 62.3125 67.0312 54.5938
Q71.1875 46.875 71.1875 36.2812
M61.0781 36.4219
Q61.0781 44.9688 58.0938 50.8281
Q55.125 56.6875 49.2188 60.0625
Q44.9219 62.5 40.0781 63.4531
Q35.25 64.4062 28.5156 64.4062
L19.4375 64.4062
L19.4375 8.29688
L28.5156 8.29688
Q35.5 8.29688 40.7031 9.32812
Q45.9062 10.3594 50.25 13.1406
Q55.6719 16.6094 58.375 22.2656
Q61.0781 27.9375 61.0781 36.4219" id="Verdana-44"/>
      <path d="
M61.625 64.1094
L35.6406 64.1094
L35.6406 0
L25.9844 0
L25.9844 64.1094
L0 64.1094
L0 72.7031
L61.625 72.7031
z
" id="Verdana-54"/>
      <path d="
M37.9375 27.3906
L7.46875 27.3906
L7.46875 36.2344
L37.9375 36.2344
z
" id="Verdana-2d"/>
      <path d="
M51.4219 0
L42.2812 0
L42.2812 5.8125
Q41.0625 4.98438 38.9844 3.48438
Q36.9219 2 34.9688 1.125
Q32.6719 0 29.6875 -0.75
Q26.7031 -1.51562 22.7031 -1.51562
Q15.3281 -1.51562 10.2031 3.35938
Q5.07812 8.25 5.07812 15.8281
Q5.07812 22.0156 7.73438 25.8438
Q10.4062 29.6875 15.3281 31.8906
Q20.3125 34.0781 27.2969 34.8594
Q34.2812 35.6406 42.2812 36.0312
L42.2812 37.4531
Q42.2812 40.5781 41.1875 42.625
Q40.0938 44.6719 38.0312 45.8438
Q36.0781 46.9688 33.3438 47.3594
Q30.6094 47.75 27.6406 47.75
Q24.0312 47.75 19.5781 46.7969
Q15.1406 45.8438 10.4062 44.0469
L9.90625 44.0469
L9.90625 53.375
Q12.5938 54.1094 17.6719 54.9844
Q22.75 55.8594 27.6875 55.8594
Q33.4531 55.8594 37.7188 54.9062
Q42 53.9531 45.125 51.6562
Q48.1875 49.4219 49.7969 45.8438
Q51.4219 42.2812 51.4219 37.0156
z

M42.2812 13.4219
L42.2812 28.6094
Q38.0938 28.375 32.3906 27.875
Q26.7031 27.3906 23.3906 26.4688
Q19.4375 25.3438 16.9844 22.9688
Q14.5469 20.6094 14.5469 16.4531
Q14.5469 11.7656 17.375 9.39062
Q20.2188 7.03125 26.0312 7.03125
Q30.8594 7.03125 34.8594 8.90625
Q38.875 10.7969 42.2812 13.4219" id="Verdana-61"/>
      <path d="
M43.0625 44.5312
L42.5781 44.5312
Q40.5312 45.0156 38.5938 45.2344
Q36.6719 45.4531 34.0312 45.4531
Q29.7812 45.4531 25.8281 43.5781
Q21.875 41.7031 18.2188 38.7188
L18.2188 0
L9.03125 0
L9.03125 54.5469
L18.2188 54.5469
L18.2188 46.4844
Q23.6875 50.875 27.8594 52.7031
Q32.0312 54.5469 36.375 54.5469
Q38.7656 54.5469 39.8438 54.4219
Q40.9219 54.2969 43.0625 53.9531
z
" id="Verdana-72"/>
     </defs>
     <g transform="translate(42.345 291.493125)rotate(-90.0)scale(0.12 -0.12)">
      <use xlink:href="#Verdana-44"/>
      <use x="77.05078125" xlink:href="#Verdana-61"/>
      <use x="137.109375" xlink:href="#Verdana-74"/>
      <use x="176.513671875" xlink:href="#Verdana-61"/>
      <use x="236.572265625" xlink:href="#Verdana-20"/>
      <use x="271.728515625" xlink:href="#Verdana-50"/>
      <use x="332.03125" xlink:href="#Verdana-72"/>
      <use x="374.70703125" xlink:href="#Verdana-6f"/>
      <use x="435.400390625" xlink:href="#Verdana-66"/>
      <use x="470.556640625" xlink:href="#Verdana-69"/>
      <use x="497.998046875" xlink:href="#Verdana-6c"/>
      <use x="525.439453125" xlink:href="#Verdana-65"/>
      <use x="585.009765625" xlink:href="#Verdana-20"/>
      <use x="620.166015625" xlink:href="#Verdana-54"/>
      <use x="674.412109375" xlink:href="#Verdana-2d"/>
      <use x="719.822265625" xlink:href="#Verdana-30"/>
      <use x="783.396484375" xlink:href="#Verdana-2e"/>
      <use x="819.7734375" xlink:href="#Verdana-31"/>
      <use x="883.34765625" xlink:href="#Verdana-30"/>
      <use x="946.921875" xlink:href="#Verdana-30"/>
      <use x="1010.49609375" xlink:href="#Verdana-30"/>
      <use x="1074.0703125" xlink:href="#Verdana-30"/>
      <use x="1137.64453125" xlink:href="#Verdana-30"/>
      <use x="1201.21875" xlink:href="#Verdana-30"/>
     </g>
    </g>
   </g>
   <g id="patch_3">
    <path d="
M72 43.2
L518.4 43.2" style="fill:none;stroke:#000000;"/>
   </g>
   <g id="patch_4">
    <path d="
M72 388.8
L72 43.2" style="fill:none;stroke:#000000;"/>
   </g>
   <g id="patch_5">
    <path d="
M72 388.8
L518.4 388.8" style="fill:none;stroke:#000000;"/>
   </g>
   <g id="patch_6">
    <path d="
M518.4 388.8
L518.4 43.2" style="fill:none;stroke:#000000;"/>
   </g>
   <g id="text_15">
    <!-- UrsemWaves Data Profile T-0.1000000 -->
    <defs>
     <path d="
M94.3906 72.7031
L75.4844 0
L64.5938 0
L49.3125 60.3594
L34.375 0
L23.7344 0
L4.5 72.7031
L14.4062 72.7031
L29.6875 12.25
L44.7344 72.7031
L54.5469 72.7031
L69.7344 11.6719
L84.9062 72.7031
z
" id="Verdana-57"/>
     <path d="
M64.5 29.2031
Q64.5 21.2969 62.7656 15.4062
Q61.0312 9.51562 57.0781 5.60938
Q53.3281 1.90625 48.2969 0.1875
Q43.2656 -1.51562 36.5781 -1.51562
Q29.7344 -1.51562 24.6562 0.28125
Q19.5781 2.09375 16.1094 5.60938
Q12.1562 9.625 10.4219 15.2812
Q8.6875 20.9531 8.6875 29.2031
L8.6875 72.7031
L18.3594 72.7031
L18.3594 28.7188
Q18.3594 22.7969 19.1562 19.375
Q19.9688 15.9688 21.875 13.1875
Q24.0312 10.0156 27.7031 8.39062
Q31.3906 6.78125 36.5781 6.78125
Q41.7969 6.78125 45.4531 8.375
Q49.125 9.96875 51.3125 13.1875
Q53.2188 15.9688 54.0156 19.5469
Q54.8281 23.1406 54.8281 28.4688
L54.8281 72.7031
L64.5 72.7031
z
" id="Verdana-55"/>
     <path d="
M88.625 0
L79.4375 0
L79.4375 31.0625
Q79.4375 34.5781 79.125 37.8438
Q78.8125 41.1094 77.7812 43.0625
Q76.6562 45.1719 74.5625 46.2344
Q72.4688 47.3125 68.5 47.3125
Q64.6562 47.3125 60.7969 45.375
Q56.9375 43.4531 53.0781 40.4844
Q53.2188 39.3594 53.3125 37.8594
Q53.4219 36.375 53.4219 34.9062
L53.4219 0
L44.2344 0
L44.2344 31.0625
Q44.2344 34.6719 43.9219 37.9062
Q43.6094 41.1562 42.5781 43.1094
Q41.4531 45.2188 39.3438 46.2656
Q37.25 47.3125 33.2969 47.3125
Q29.5469 47.3125 25.75 45.4531
Q21.9688 43.6094 18.2188 40.7188
L18.2188 0
L9.03125 0
L9.03125 54.5469
L18.2188 54.5469
L18.2188 48.4844
Q22.5156 52.0469 26.7812 54.0469
Q31.0625 56.0625 35.8906 56.0625
Q41.4531 56.0625 45.3281 53.7188
Q49.2188 51.375 51.125 47.2188
Q56.6875 51.9062 61.2812 53.9844
Q65.875 56.0625 71.0938 56.0625
Q80.0781 56.0625 84.3438 50.6094
Q88.625 45.1719 88.625 35.4062
z
" id="Verdana-6d"/>
    </defs>
    <g transform="translate(155.41425 38.2)scale(0.144 -0.144)">
     <use xlink:href="#Verdana-55"/>
     <use x="73.193359375" xlink:href="#Verdana-72"/>
     <use x="115.869140625" xlink:href="#Verdana-73"/>
     <use x="167.96875" xlink:href="#Verdana-65"/>
     <use x="227.5390625" xlink:href="#Verdana-6d"/>
     <use x="324.8046875" xlink:href="#Verdana-57"/>
     <use x="418.806640625" xlink:href="#Verdana-61"/>
     <use x="478.115234375" xlink:href="#Verdana-76"/>
     <use x="536.419921875" xlink:href="#Verdana-65"/>
     <use x="595.990234375" xlink:href="#Verdana-73"/>
     <use x="648.08984375" xlink:href="#Verdana-20"/>
     <use x="683.24609375" xlink:href="#Verdana-44"/>
     <use x="760.296875" xlink:href="#Verdana-61"/>
     <use x="820.35546875" xlink:href="#Verdana-74"/>
     <use x="859.759765625" xlink:href="#Verdana-61"/>
     <use x="919.818359375" xlink:href="#Verdana-20"/>
     <use x="954.974609375" xlink:href="#Verdana-50"/>
     <use x="1015.27734375" xlink:href="#Verdana-72"/>
     <use x="1057.953125" xlink:href="#Verdana-6f"/>
     <use x="1118.646484375" xlink:href="#Verdana-66"/>
     <use x="1153.802734375" xlink:href="#Verdana-69"/>
     <use x="1181.244140625" xlink:href="#Verdana-6c"/>
     <use x="1208.685546875" xlink:href="#Verdana-65"/>
     <use x="1268.255859375" xlink:href="#Verdana-20"/>
     <use x="1303.412109375" xlink:href="#Verdana-54"/>
     <use x="1357.658203125" xlink:href="#Verdana-2d"/>
     <use x="1403.068359375" xlink:href="#Verdana-30"/>
     <use x="1466.642578125" xlink:href="#Verdana-2e"/>
     <use x="1503.01953125" xlink:href="#Verdana-31"/>
     <use x="1566.59375" xlink:href="#Verdana-30"/>
     <use x="1630.16796875" xlink:href="#Verdana-30"/>
     <use x="1693.7421875" xlink:href="#Verdana-30"/>
     <use x="1757.31640625" xlink:href="#Verdana-30"/>
     <use x="1820.890625" xlink:href="#Verdana-30"/>
     <use x="1884.46484375" xlink:href="#Verdana-30"/>
    </g>
   </g>
   <g id="legend_1">
    <g id="patch_7">
     <path d="
M407.18 381.6
L511.2 381.6
L511.2 272.081
L407.18 272.081
L407.18 381.6
z
" style="fill:#ffffff;stroke:#000000;"/>
    </g>
    <g id="line2d_30">
     <path d="
M417.26 283.743
L437.42 283.743" style="fill:none;stroke:#0000ff;stroke-dasharray:6.000000,2.000000;stroke-dashoffset:0.0;"/>
    </g>
    <g id="line2d_31"/>
    <g id="text_16">
     <!-- AMPGO -->
     <defs>
      <path d="
M74.5156 0
L64.8438 0
L64.8438 62.6406
L44.625 20.0156
L38.875 20.0156
L18.7969 62.6406
L18.7969 0
L9.76562 0
L9.76562 72.7031
L22.9531 72.7031
L42.3281 32.2344
L61.0781 72.7031
L74.5156 72.7031
z
" id="Verdana-4d"/>
      <path d="
M70.4062 5.375
Q64.4531 2.64062 57.3906 0.609375
Q50.3438 -1.42188 43.75 -1.42188
Q35.25 -1.42188 28.1719 0.921875
Q21.0938 3.26562 16.1094 7.95312
Q11.0781 12.7031 8.34375 19.7969
Q5.60938 26.9062 5.60938 36.4219
Q5.60938 53.8594 15.7969 63.9375
Q25.9844 74.0312 43.75 74.0312
Q49.9531 74.0312 56.4219 72.5312
Q62.8906 71.0469 70.3594 67.4844
L70.3594 56
L69.4844 56
Q67.9688 57.1719 65.0781 59.0781
Q62.2031 60.9844 59.4219 62.25
Q56.0625 63.7656 51.7812 64.7656
Q47.5156 65.7656 42.0938 65.7656
Q29.8906 65.7656 22.7812 57.9219
Q15.6719 50.0938 15.6719 36.7188
Q15.6719 22.6094 23.0938 14.7656
Q30.5156 6.9375 43.3125 6.9375
Q48 6.9375 52.6562 7.85938
Q57.3281 8.79688 60.8438 10.25
L60.8438 28.0781
L41.3594 28.0781
L41.3594 36.5781
L70.4062 36.5781
z
" id="Verdana-47"/>
      <path d="
M67.0938 0
L56.7812 0
L49.6562 20.2656
L18.2188 20.2656
L11.0781 0
L1.26562 0
L27.7344 72.7031
L40.625 72.7031
z

M46.6875 28.5625
L33.9375 64.2656
L21.1406 28.5625
z
" id="Verdana-41"/>
     </defs>
     <g transform="translate(453.26025 288.783)scale(0.144 -0.144)">
      <use xlink:href="#Verdana-41"/>
      <use x="68.359375" xlink:href="#Verdana-4d"/>
      <use x="152.63671875" xlink:href="#Verdana-50"/>
      <use x="212.939453125" xlink:href="#Verdana-47"/>
      <use x="290.478515625" xlink:href="#Verdana-4f"/>
     </g>
    </g>
    <g id="line2d_32">
     <path d="
M417.26 304.783
L437.42 304.783" style="fill:none;stroke:#008000;stroke-dasharray:1.000000,1.000000;stroke-dashoffset:0.0;"/>
    </g>
    <g id="line2d_33"/>
    <g id="text_17">
     <!-- Anneal -->
     <g transform="translate(453.26025 309.82275)scale(0.144 -0.144)">
      <use xlink:href="#Verdana-41"/>
      <use x="68.359375" xlink:href="#Verdana-6e"/>
      <use x="131.640625" xlink:href="#Verdana-6e"/>
      <use x="194.921875" xlink:href="#Verdana-65"/>
      <use x="254.4921875" xlink:href="#Verdana-61"/>
      <use x="314.55078125" xlink:href="#Verdana-6c"/>
     </g>
    </g>
    <g id="line2d_34">
     <path d="
M417.26 325.822
L437.42 325.822" style="fill:none;stroke:#ff0000;stroke-dasharray:3.000000,6.000000;stroke-dashoffset:0.0;"/>
    </g>
    <g id="line2d_35"/>
    <g id="text_18">
     <!-- BSA -->
     <defs>
      <path d="
M64.5938 22.3594
Q64.5938 16.9375 62.5469 12.7812
Q60.5 8.64062 57.0312 5.95312
Q52.9375 2.73438 48.0156 1.35938
Q43.1094 0 35.5469 0
L9.76562 0
L9.76562 72.7031
L31.2969 72.7031
Q39.2656 72.7031 43.2188 72.1094
Q47.1719 71.5312 50.7812 69.6719
Q54.7812 67.5781 56.5938 64.2812
Q58.4062 60.9844 58.4062 56.3906
Q58.4062 51.2188 55.7656 47.5781
Q53.125 43.9531 48.7344 41.75
L48.7344 41.3594
Q56.1094 39.8438 60.3438 34.8906
Q64.5938 29.9375 64.5938 22.3594
M48.3438 55.125
Q48.3438 57.7656 47.4531 59.5625
Q46.5781 61.375 44.625 62.5
Q42.3281 63.8125 39.0625 64.125
Q35.7969 64.4531 30.9531 64.4531
L19.4375 64.4531
L19.4375 43.4531
L31.9375 43.4531
Q36.4688 43.4531 39.1562 43.9219
Q41.8438 44.3906 44.1406 45.8438
Q46.4375 47.3125 47.3906 49.625
Q48.3438 51.9531 48.3438 55.125
M54.5469 21.9688
Q54.5469 26.375 53.2188 28.9531
Q51.9062 31.5469 48.4375 33.3438
Q46.0938 34.5781 42.75 34.9375
Q39.4062 35.2969 34.625 35.2969
L19.4375 35.2969
L19.4375 8.25
L32.2344 8.25
Q38.5781 8.25 42.625 8.90625
Q46.6875 9.57812 49.2656 11.3281
Q52 13.2344 53.2656 15.6719
Q54.5469 18.1094 54.5469 21.9688" id="Verdana-42"/>
      <path d="
M62.5938 20.75
Q62.5938 16.5 60.6094 12.3438
Q58.6406 8.20312 55.0781 5.32812
Q51.1719 2.20312 45.9688 0.4375
Q40.7656 -1.3125 33.4531 -1.3125
Q25.5938 -1.3125 19.3125 0.140625
Q13.0312 1.60938 6.54688 4.5
L6.54688 16.6094
L7.23438 16.6094
Q12.75 12.0156 19.9688 9.51562
Q27.2031 7.03125 33.5469 7.03125
Q42.5312 7.03125 47.5312 10.3906
Q52.5469 13.7656 52.5469 19.3906
Q52.5469 24.2188 50.1719 26.5156
Q47.7969 28.8125 42.9688 30.0781
Q39.3125 31.0625 35.0312 31.6875
Q30.7656 32.3281 25.9844 33.2969
Q16.3125 35.3594 11.6406 40.3125
Q6.98438 45.2656 6.98438 53.2188
Q6.98438 62.3594 14.6875 68.1875
Q22.4062 74.0312 34.2812 74.0312
Q41.9375 74.0312 48.3281 72.5625
Q54.7344 71.0938 59.6719 68.9531
L59.6719 57.5156
L58.9844 57.5156
Q54.8281 61.0312 48.0625 63.3438
Q41.3125 65.6719 34.2344 65.6719
Q26.4688 65.6719 21.75 62.4531
Q17.0469 59.2344 17.0469 54.1562
Q17.0469 49.6094 19.3906 47.0156
Q21.7344 44.4375 27.6406 43.0625
Q30.7656 42.3906 36.5156 41.4062
Q42.2812 40.4375 46.2969 39.4062
Q54.3906 37.25 58.4844 32.9062
Q62.5938 28.5625 62.5938 20.75" id="Verdana-53"/>
     </defs>
     <g transform="translate(453.26025 330.8625)scale(0.144 -0.144)">
      <use xlink:href="#Verdana-42"/>
      <use x="68.5546875" xlink:href="#Verdana-53"/>
      <use x="135.9140625" xlink:href="#Verdana-41"/>
     </g>
    </g>
    <g id="line2d_36">
     <path d="
M417.26 346.862
L437.42 346.862" style="fill:none;stroke:#00bfbf;stroke-dasharray:5.000000,1.000000,2.000000,1.000000,5.000000,1.000000;stroke-dashoffset:0.0;"/>
    </g>
    <g id="line2d_37"/>
    <g id="text_19">
     <!-- Cuckoo -->
     <defs>
      <path d="
M65.9219 5.28125
Q63.2344 4.10938 61.0625 3.07812
Q58.8906 2.04688 55.375 0.921875
Q52.3906 0 48.8906 -0.65625
Q45.4062 -1.3125 41.2188 -1.3125
Q33.2969 -1.3125 26.8281 0.90625
Q20.3594 3.125 15.5781 7.85938
Q10.8906 12.5 8.25 19.6562
Q5.60938 26.8125 5.60938 36.2812
Q5.60938 45.2656 8.14062 52.3438
Q10.6875 59.4219 15.4844 64.3125
Q20.125 69.0469 26.6875 71.5312
Q33.25 74.0312 41.2656 74.0312
Q47.125 74.0312 52.9531 72.6094
Q58.7969 71.1875 65.9219 67.625
L65.9219 56.1562
L65.1875 56.1562
Q59.1875 61.1875 53.2656 63.4688
Q47.3594 65.7656 40.625 65.7656
Q35.1094 65.7656 30.6875 63.9844
Q26.2656 62.2031 22.7969 58.4531
Q19.4375 54.7812 17.5469 49.1875
Q15.6719 43.6094 15.6719 36.2812
Q15.6719 28.6094 17.75 23.0938
Q19.8281 17.5781 23.0938 14.1094
Q26.5156 10.5 31.0781 8.76562
Q35.6406 7.03125 40.7188 7.03125
Q47.7031 7.03125 53.7969 9.42188
Q59.9062 11.8125 65.2344 16.6094
L65.9219 16.6094
z
" id="Verdana-43"/>
      <path d="
M58.5469 0
L46.4375 0
L24.5625 23.875
L18.6094 18.2188
L18.6094 0
L9.42188 0
L9.42188 75.9844
L18.6094 75.9844
L18.6094 27.25
L45.125 54.5469
L56.6875 54.5469
L31.3438 29.3438
z
" id="Verdana-6b"/>
     </defs>
     <g transform="translate(453.26025 351.90225)scale(0.144 -0.144)">
      <use xlink:href="#Verdana-43"/>
      <use x="69.82421875" xlink:href="#Verdana-75"/>
      <use x="133.10546875" xlink:href="#Verdana-63"/>
      <use x="185.205078125" xlink:href="#Verdana-6b"/>
      <use x="243.384765625" xlink:href="#Verdana-6f"/>
      <use x="304.078125" xlink:href="#Verdana-6f"/>
     </g>
    </g>
    <g id="line2d_38">
     <path d="
M417.26 367.902
L437.42 367.902" style="fill:none;stroke:#bf00bf;stroke-linecap:square;"/>
    </g>
    <g id="line2d_39"/>
    <g id="text_20">
     <!-- qABC -->
     <defs>
      <path d="
M53.2656 -20.125
L44.0938 -20.125
L44.0938 6.15625
Q39.8438 2.48438 35.6406 0.703125
Q31.4531 -1.07812 26.5625 -1.07812
Q16.8438 -1.07812 11.0625 6.42188
Q5.28125 13.9219 5.28125 27.0938
Q5.28125 34.125 7.29688 39.5156
Q9.32812 44.9219 12.6406 48.5781
Q15.875 52.1562 20.2188 54.1094
Q24.5625 56.0625 29.3906 56.0625
Q33.7969 56.0625 37.1875 55.0781
Q40.5781 54.1094 44.0938 52.2031
L44.6719 54.5469
L53.2656 54.5469
z

M44.0938 13.875
L44.0938 44.7344
Q40.2812 46.4375 37.3438 47.1094
Q34.4219 47.7969 31 47.7969
Q23.0469 47.7969 18.8906 42.4062
Q14.75 37.0156 14.75 27.5469
Q14.75 17.9688 18.0938 12.8125
Q21.4375 7.67188 28.6094 7.67188
Q32.625 7.67188 36.625 9.40625
Q40.625 11.1406 44.0938 13.875" id="Verdana-71"/>
     </defs>
     <g transform="translate(453.26025 372.942)scale(0.144 -0.144)">
      <use xlink:href="#Verdana-71"/>
      <use x="62.3046875" xlink:href="#Verdana-41"/>
      <use x="130.6640625" xlink:href="#Verdana-42"/>
      <use x="199.21875" xlink:href="#Verdana-43"/>
     </g>
    </g>
   </g>
  </g>
 </g>
 <defs>
  <clipPath id="p7ff5b81e1d">
   <rect height="345.6" width="446.4" x="72.0" y="43.2"/>
  </clipPath>
 </defs>
</svg>
