<?xml version="1.0" encoding="utf-8" standalone="no"?>
<!DOCTYPE svg PUBLIC "-//W3C//DTD SVG 1.1//EN"
  "http://www.w3.org/Graphics/SVG/1.1/DTD/svg11.dtd">
<!-- Created with matplotlib (http://matplotlib.org/) -->
<svg height="432pt" version="1.1" viewBox="0 0 576 432" width="576pt" xmlns="http://www.w3.org/2000/svg" xmlns:xlink="http://www.w3.org/1999/xlink">
 <defs>
  <style type="text/css">
*{stroke-linecap:butt;stroke-linejoin:round;}
  </style>
 </defs>
 <g id="figure_1">
  <g id="patch_1">
   <path d="
M0 432
L576 432
L576 0
L0 0
z
" style="fill:#ffffff;"/>
  </g>
  <g id="axes_1">
   <g id="patch_2">
    <path d="
M72 388.8
L518.4 388.8
L518.4 43.2
L72 43.2
z
" style="fill:#ffffff;"/>
   </g>
   <g id="line2d_1">
    <path clip-path="url(#p7ff5b81e1d)" d="
M72 388.8
L72.3571 388.8
L72.5357 323.957
L72.7142 323.957
L72.8928 317.749
L73.0714 317.749
L73.2499 303.262
L73.4285 303.262
L73.607 301.193
L74.4998 301.193
L74.6784 300.503
L74.857 300.503
L75.0355 298.434
L75.2141 298.434
L75.3926 295.674
L75.5712 295.674
L75.7498 288.776
L75.9283 288.776
L76.1069 279.119
L76.2854 279.119
L76.464 270.841
L76.6426 270.841
L76.8211 266.702
L76.9997 266.702
L77.1782 260.493
L77.3568 260.493
L77.5354 256.354
L77.7139 256.354
L77.8925 254.285
L78.071 254.285
L78.2496 253.595
L78.4282 253.595
L78.8746 250.836
L79.1424 250.836
L79.321 249.456
L79.5888 248.077
L79.6781 248.077
L79.8566 247.387
L79.9459 247.387
L80.303 242.558
L80.5709 242.558
L80.6602 241.868
L80.8387 239.799
L81.0173 239.799
L81.2851 234.97
L81.6422 232.901
L81.7315 232.901
L81.9101 232.211
L82.0886 232.211
L82.2672 227.382
L82.535 227.382
L82.7136 226.002
L82.8029 226.002
L82.8922 225.313
L83.0707 221.863
L83.16 221.863
L83.3386 217.725
L83.5171 217.725
L83.6957 214.965
L84.0528 214.965
L84.2314 213.586
L84.4099 212.896
L84.6778 212.896
L84.8563 211.516
L85.0349 211.516
L85.2134 208.067
L85.392 208.067
L85.8384 202.549
L86.017 201.859
L86.1955 201.859
L86.3741 199.789
L86.5526 199.789
L86.7312 198.41
L86.9098 198.41
L87.0883 197.03
L87.5347 197.03
L88.0704 193.581
L88.249 193.581
L88.4275 192.201
L88.5168 192.201
L88.9632 189.442
L89.0525 189.442
L89.3203 188.062
L89.4096 188.062
L89.6774 186.683
L89.7667 186.683
L89.9453 185.303
L90.2131 183.923
L90.481 183.923
L90.9274 181.164
L91.1952 181.164
L91.463 179.784
L91.5523 179.784
L91.9094 177.715
L92.1773 177.715
L92.3558 177.025
L92.5344 174.266
L92.6237 174.266
L93.0701 171.507
L93.4272 171.507
L93.6058 170.817
L93.695 170.817
L93.9629 169.437
L94.0522 169.437
L94.6771 165.298
L94.7664 165.298
L95.0342 163.919
L95.2128 163.919
L95.4806 162.539
L95.5699 162.539
L95.927 160.469
L96.0163 160.469
L96.2842 159.09
L96.3734 159.09
L96.9984 154.951
L97.0877 154.951
L97.2662 154.261
L97.4448 154.261
L97.8019 152.192
L97.8912 152.192
L98.0698 151.502
L98.159 151.502
L98.3376 150.122
L98.5162 150.122
L98.6947 148.053
L98.8733 148.053
L99.1411 146.673
L99.2304 146.673
L99.4982 145.293
L99.7661 145.293
L100.302 141.844
L100.391 141.844
L100.659 140.465
L100.748 140.465
L100.927 139.085
L101.105 139.085
L101.284 138.395
L101.462 138.395
L101.82 136.326
L101.909 136.326
L102.087 135.636
L102.177 135.636
L102.444 134.256
L102.534 134.256
L102.802 131.497
L103.069 130.117
L103.248 130.117
L104.319 122.529
L104.498 122.529
L104.944 119.77
L105.034 119.77
L105.301 117.011
L105.48 117.011
L105.659 116.321
L105.837 116.321
L106.551 111.492
L106.998 111.492
L107.176 110.802
L107.266 110.802
L107.444 109.423
L107.533 109.423
L107.891 107.353
L108.069 107.353
L108.248 106.663
L108.337 106.663
L108.516 105.284
L108.694 104.594
L109.23 104.594
L109.408 103.904
L109.498 103.904
L109.676 103.214
L109.944 103.214
L110.39 100.455
L110.658 100.455
L110.837 99.0754
L111.015 99.0754
L111.194 98.3856
L111.908 98.3856
L112.087 97.6958
L112.622 97.6958
L112.801 96.3162
L112.98 96.3162
L113.426 93.5569
L113.515 93.5569
L113.694 92.8671
L113.962 92.8671
L114.319 90.7976
L114.497 90.7976
L114.676 90.1078
L114.854 90.1078
L115.122 88.7281
L115.301 88.7281
L115.479 88.0383
L115.569 88.0383
L115.747 87.3485
L116.461 87.3485
L116.64 86.6587
L117.711 86.6587
L117.89 85.279
L118.068 85.279
L118.336 83.8994
L119.318 83.8994
L119.497 81.8299
L119.676 81.8299
L119.854 81.1401
L120.122 81.1401
L120.39 79.7605
L120.479 79.7605
L120.658 79.0707
L121.104 79.0707
L121.55 76.3114
L121.908 76.3114
L122.086 75.6216
L122.175 75.6216
L122.443 74.2419
L122.711 74.2419
L122.89 73.5521
L123.068 73.5521
L123.247 72.1725
L123.693 72.1725
L123.872 71.4826
L123.961 71.4826
L124.14 70.7928
L124.318 70.7928
L124.497 70.103
L124.675 70.103
L124.943 68.7234
L126.818 68.7234
L127.086 67.3437
L127.532 67.3437
L127.8 65.9641
L128.425 65.9641
L128.782 63.8946
L129.586 63.8946
L129.764 62.515
L130.211 62.515
L130.389 61.1353
L131.639 61.1353
L131.907 59.7557
L131.996 59.7557
L132.175 59.0659
L132.889 59.0659
L133.068 58.376
L134.407 58.376
L134.585 57.6862
L135.21 57.6862
L135.478 56.3066
L135.746 56.3066
L135.924 55.6168
L136.817 55.6168
L137.085 54.2371
L137.71 54.2371
L137.978 52.8575
L139.228 52.8575
L139.406 52.1677
L140.746 52.1677
L140.924 51.4778
L142.263 51.4778
L142.442 50.788
L145.567 50.788
L145.745 50.0982
L146.37 50.0982
L146.549 49.4084
L149.674 49.4084
L149.852 48.7186
L154.763 48.7186
L155.03 47.3389
L157.262 47.3389
L157.441 46.6491
L158.602 46.6491
L158.869 45.2695
L161.101 45.2695
L161.28 44.5796
L162.441 44.5796
L162.619 43.8898
L175.833 43.8898
L176.011 43.2
L518.311 43.2
L518.311 43.2" style="fill:none;stroke:#0000ff;stroke-dasharray:6.000000,2.000000;stroke-dashoffset:0.0;"/>
   </g>
   <g id="line2d_2">
    <path clip-path="url(#p7ff5b81e1d)" d="
M72 388.8
L72.0893 388.597
L72.2678 363.78
L72.7142 305.197
L73.4285 259.836
L73.8749 245.393
L74.0534 242.952
L74.3213 236.85
L75.4819 224.238
L75.6605 224.238
L75.7498 224.035
L76.1069 220.984
L76.2854 220.17
L76.6426 219.56
L76.7318 219.56
L76.9997 217.526
L77.089 217.526
L77.4461 216.305
L77.5354 216.305
L77.7139 216.102
L77.8925 216.102
L78.2496 215.085
L78.5174 213.661
L78.7853 212.847
L79.8566 210.61
L80.0352 210.61
L80.2138 209.999
L80.3923 209.592
L80.4816 209.592
L80.6602 209.389
L81.4637 209.389
L81.6422 209.186
L81.7315 209.186
L81.9101 208.982
L82.4458 208.982
L82.6243 208.372
L82.9814 208.372
L83.16 208.169
L83.785 208.169
L83.9635 207.762
L84.3206 207.152
L84.6778 207.152
L84.8563 206.948
L84.9456 206.948
L85.1242 206.541
L85.3027 206.541
L85.5706 206.134
L85.7491 206.134
L85.9277 205.931
L86.1955 205.931
L86.4634 205.524
L86.6419 205.524
L86.8205 204.914
L86.9098 204.914
L87.0883 204.711
L87.4454 204.711
L87.624 204.507
L88.4275 204.507
L88.6061 204.304
L88.7846 204.304
L88.9632 204.1
L89.0525 204.1
L89.3203 203.693
L89.4096 203.693
L89.5882 203.49
L89.7667 203.49
L90.0346 203.083
L90.3024 203.083
L90.5702 202.676
L90.7488 202.676
L91.0166 202.27
L91.2845 202.27
L91.5523 201.863
L91.9094 201.863
L92.088 201.659
L92.5344 201.659
L92.8022 201.253
L94.5878 201.253
L94.8557 200.846
L95.2128 200.846
L95.4806 200.439
L96.6413 200.439
L96.8198 200.032
L96.9091 200.032
L97.0877 199.625
L97.2662 199.625
L97.5341 199.218
L98.6054 199.218
L98.784 199.015
L98.8733 199.015
L99.0518 198.812
L99.4982 198.812
L99.6768 198.608
L100.837 198.608
L101.016 198.405
L101.284 198.405
L101.462 198.201
L101.73 198.201
L101.909 197.998
L102.266 197.998
L102.444 197.794
L103.248 197.794
L103.427 197.388
L103.873 197.388
L104.052 197.184
L104.944 197.184
L105.123 196.981
L105.301 196.981
L105.48 196.777
L105.837 196.777
L106.016 196.574
L107.176 196.574
L107.355 196.371
L107.623 196.371
L107.891 195.964
L109.14 195.964
L109.319 195.76
L109.676 195.76
L109.855 195.557
L110.569 195.557
L110.748 195.354
L111.015 195.354
L111.194 195.15
L122.89 195.15
L123.068 194.947
L123.425 194.947
L123.604 194.743
L128.871 194.743
L129.05 194.54
L131.014 194.54
L131.193 194.336
L132.264 194.336
L132.443 194.133
L135.3 194.133
L135.478 193.93
L136.192 193.93
L136.371 193.726
L139.049 193.726
L139.228 193.523
L146.817 193.523
L147.084 193.116
L149.584 193.116
L149.763 192.913
L150.834 192.913
L151.013 192.709
L151.37 192.709
L151.548 192.506
L152.531 192.506
L152.709 192.302
L168.512 192.302
L168.69 192.099
L178.6 192.099
L178.779 191.895
L197.528 191.895
L197.706 191.692
L198.242 191.692
L198.42 191.489
L219.312 191.489
L219.491 191.285
L239.132 191.285
L239.311 191.082
L265.113 191.082
L265.291 190.878
L279.665 190.878
L279.844 190.675
L286.361 190.675
L286.54 190.472
L291.272 190.472
L291.45 190.268
L318.77 190.268
L318.948 190.065
L323.502 190.065
L323.68 189.861
L331.358 189.861
L331.537 189.658
L336.447 189.658
L336.715 189.251
L349.393 189.251
L349.572 189.048
L387.337 189.048
L387.516 188.844
L403.675 188.844
L403.854 188.641
L470.635 188.641
L470.814 188.437
L479.295 188.437
L479.474 188.234
L518.311 188.234
L518.311 188.234" style="fill:none;stroke:#008000;stroke-dasharray:1.000000,1.000000;stroke-dashoffset:0.0;"/>
   </g>
   <g id="line2d_3">
    <path clip-path="url(#p7ff5b81e1d)" d="
M72 388.8
L73.6963 388.8
L73.9642 386.731
L74.4106 377.763
L74.4998 377.763
L74.857 369.485
L75.3926 359.138
L75.9283 349.48
L76.8211 319.128
L77.2675 310.85
L77.4461 307.401
L77.9818 283.257
L78.2496 276.359
L78.6067 270.151
L78.7853 266.702
L80.1245 235.66
L80.3923 225.313
L80.4816 225.313
L80.8387 218.414
L80.928 216.345
L81.1958 203.928
L81.3744 199.789
L81.553 193.581
L81.8208 188.062
L82.0886 183.923
L82.535 170.817
L82.8922 161.849
L82.9814 161.159
L83.4278 152.192
L83.6957 149.432
L84.1421 141.154
L84.4099 135.636
L84.5885 130.807
L84.6778 130.807
L85.0349 128.048
L85.3027 123.909
L86.017 119.08
L86.1955 119.08
L86.3741 117.701
L86.4634 117.701
L86.7312 114.941
L87.1776 109.423
L87.5347 107.353
L87.624 107.353
L87.9811 105.284
L88.0704 105.284
L88.249 102.525
L88.3382 101.835
L88.6061 97.006
L88.6954 97.006
L89.0525 92.1772
L89.3203 92.1772
L89.5882 90.7976
L89.7667 90.7976
L90.0346 85.9689
L90.3917 83.8994
L90.481 83.8994
L90.7488 79.7605
L90.9274 77.691
L91.1059 76.3114
L92.088 69.4132
L92.1773 69.4132
L92.4451 68.0335
L92.713 68.0335
L92.8915 67.3437
L92.9808 67.3437
L93.1594 66.6539
L93.3379 66.6539
L93.4272 65.9641
L93.6058 63.2048
L93.695 63.2048
L94.1414 60.4455
L94.4093 60.4455
L94.5878 59.7557
L94.8557 59.7557
L95.0342 59.0659
L95.2128 59.0659
L95.3914 58.376
L95.6592 58.376
L96.0163 56.3066
L97.177 56.3066
L97.4448 54.9269
L97.6234 54.9269
L97.8019 54.2371
L97.9805 54.2371
L98.159 53.5473
L98.2483 53.5473
L98.4269 52.8575
L98.9626 52.8575
L99.2304 51.4778
L99.8554 51.4778
L100.034 50.788
L101.73 50.788
L101.909 50.0982
L102.177 50.0982
L102.355 49.4084
L102.802 49.4084
L102.98 47.3389
L103.159 46.6491
L103.427 46.6491
L103.605 45.9593
L104.319 45.9593
L104.498 44.5796
L106.641 44.5796
L106.819 43.8898
L111.462 43.8898
L111.64 43.2
L518.311 43.2
L518.311 43.2" style="fill:none;stroke:#ff0000;stroke-dasharray:3.000000,6.000000;stroke-dashoffset:0.0;"/>
   </g>
   <g id="line2d_4">
    <path clip-path="url(#p7ff5b81e1d)" d="
M72 388.8
L75.4819 388.8
L75.7498 383.281
L76.1962 371.554
L76.3747 366.036
L76.464 364.656
L76.7318 356.378
L76.9104 350.17
L77.089 346.031
L77.4461 341.892
L78.6067 341.892
L78.7853 341.202
L79.0531 341.202
L79.5888 317.059
L79.9459 301.883
L80.2138 293.605
L80.4816 280.498
L81.0173 270.151
L81.1958 269.461
L82.6243 269.461
L82.7136 266.702
L82.9814 252.905
L83.4278 237.04
L83.6064 228.762
L83.785 224.623
L84.1421 204.618
L84.3206 200.479
L84.4992 197.03
L86.1955 197.03
L86.6419 179.784
L86.7312 179.784
L86.8205 179.095
L87.9811 145.293
L88.3382 145.293
L88.5168 144.604
L88.7846 144.604
L88.9632 143.914
L89.7667 143.914
L89.9453 137.705
L90.1238 133.566
L90.481 130.117
L91.1059 121.84
L91.1952 121.84
L91.3738 119.08
L91.6416 117.701
L91.9094 117.701
L92.088 117.011
L93.3379 117.011
L93.5165 112.182
L93.695 108.733
L93.8736 108.733
L94.0522 106.663
L94.8557 95.6263
L95.1235 94.2467
L96.9091 94.2467
L97.5341 85.9689
L97.6234 85.9689
L97.8912 83.2096
L97.9805 83.2096
L98.3376 81.1401
L98.5162 77.691
L98.6947 77.0012
L100.57 77.0012
L100.748 75.6216
L100.837 74.9317
L101.016 72.1725
L101.105 72.1725
L101.284 71.4826
L101.373 71.4826
L101.641 70.103
L101.909 70.103
L102.266 68.0335
L103.159 68.0335
L103.337 67.3437
L104.141 67.3437
L104.587 64.5844
L104.676 64.5844
L105.48 59.0659
L107.891 59.0659
L108.069 58.376
L108.158 58.376
L108.337 57.6862
L108.516 57.6862
L108.694 56.9964
L108.962 56.9964
L109.319 54.9269
L111.194 54.9269
L111.372 54.2371
L111.462 54.2371
L111.73 52.8575
L112.265 52.8575
L112.444 52.1677
L112.533 52.1677
L112.712 51.4778
L114.944 51.4778
L115.122 50.0982
L115.39 50.0982
L115.569 49.4084
L116.372 49.4084
L116.551 48.7186
L119.318 48.7186
L119.586 45.9593
L119.676 45.9593
L119.854 44.5796
L132.71 44.5796
L132.889 43.8898
L136.192 43.8898
L136.371 43.2
L518.311 43.2
L518.311 43.2" style="fill:none;stroke:#00bfbf;stroke-dasharray:5.000000,1.000000,2.000000,1.000000,5.000000,1.000000;stroke-dashoffset:0.0;"/>
   </g>
   <g id="line2d_5">
    <path clip-path="url(#p7ff5b81e1d)" d="
M72 388.692
L72.0893 388.8
L72.1786 388.8
L75.4819 388.8
L76.1069 367.884
L76.8211 346.535
L77.4461 335.047
L77.5354 335.047
L78.071 333.638
L78.4282 332.338
L79.0531 330.929
L79.4102 323.343
L79.9459 312.289
L80.5709 303.294
L80.6602 302.752
L80.8387 300.26
L81.3744 299.609
L81.6422 298.526
L81.9101 298.417
L82.0886 297.984
L82.2672 297.659
L82.535 296.9
L82.6243 296.792
L82.9814 292.782
L83.2493 289.422
L83.785 285.521
L84.0528 284.221
L84.2314 282.703
L84.3206 282.487
L84.4992 281.62
L85.0349 281.078
L85.4813 280.969
L86.1955 280.211
L87.2669 274.359
L88.0704 271.649
L88.249 271.541
L88.4275 271.541
L88.7846 270.782
L88.9632 270.674
L89.3203 270.349
L89.6774 270.349
L89.856 269.807
L90.2131 268.29
L90.8381 266.231
L91.1059 265.797
L91.3738 265.039
L92.2666 264.063
L92.6237 263.955
L92.8022 263.846
L93.2486 263.738
L93.4272 263.413
L93.7843 262.004
L93.8736 262.004
L94.5878 259.62
L94.7664 259.295
L94.945 258.861
L95.5699 258.211
L96.9984 258.211
L97.2662 257.127
L97.7126 255.719
L98.5162 254.852
L98.6054 254.852
L98.784 254.635
L98.9626 254.526
L99.1411 254.418
L100.302 254.31
L100.659 253.985
L100.837 253.985
L101.016 253.226
L101.195 253.118
L101.462 253.009
L101.73 252.359
L102.087 252.034
L102.266 251.925
L102.444 251.709
L102.623 251.6
L104.052 251.492
L104.141 251.384
L104.319 250.95
L104.409 250.733
L104.587 250.192
L104.676 250.192
L105.034 249.541
L105.212 249.433
L105.48 248.999
L105.569 248.999
L105.748 248.566
L106.194 248.132
L106.373 248.132
L106.551 247.916
L106.998 247.807
L107.266 247.591
L107.712 247.482
L108.069 246.724
L108.426 246.615
L109.408 245.315
L109.587 244.99
L109.765 244.881
L110.39 244.773
L110.569 244.665
L111.462 244.556
L112.087 243.798
L112.265 243.364
L112.444 243.256
L113.069 242.605
L113.247 242.497
L113.426 242.389
L113.783 242.28
L114.051 242.064
L114.854 241.955
L115.212 241.63
L115.39 241.522
L115.658 241.088
L116.283 240.438
L116.461 240.33
L116.729 240.113
L117.979 240.005
L118.158 239.896
L118.426 239.788
L118.693 239.571
L118.872 239.463
L119.051 239.246
L119.497 238.812
L119.765 238.704
L120.122 238.054
L120.3 237.945
L120.568 237.729
L121.015 237.62
L121.283 237.404
L121.461 237.295
L121.64 237.187
L122.265 237.187
L122.622 236.103
L122.8 235.778
L122.979 235.561
L123.425 235.453
L123.604 235.344
L125.925 235.236
L126.104 234.803
L126.461 234.478
L126.818 234.369
L126.996 234.261
L127.175 233.827
L129.139 233.719
L129.407 233.502
L129.764 233.394
L129.943 233.177
L130.121 233.069
L130.211 233.069
L130.478 232.635
L131.103 231.985
L131.371 231.877
L131.55 231.768
L132.978 231.66
L133.157 231.443
L133.335 231.335
L133.514 231.226
L133.871 230.576
L134.228 230.468
L134.675 230.034
L135.3 229.926
L135.478 229.817
L136.46 229.709
L136.639 229.492
L137.174 229.492
L137.353 229.167
L137.621 229.059
L137.799 228.951
L138.067 228.842
L138.424 228.517
L139.585 228.409
L139.942 228.084
L140.299 227.975
L140.388 227.867
L140.567 227.325
L140.656 227.325
L141.013 226.675
L141.192 226.566
L141.549 226.241
L141.728 226.133
L141.906 225.916
L142.888 225.808
L143.067 225.699
L143.87 225.591
L144.228 225.266
L144.406 224.724
L144.674 224.616
L144.852 224.507
L145.567 224.399
L145.745 224.29
L146.102 224.182
L146.281 224.074
L147.352 223.965
L147.531 223.749
L147.888 223.424
L147.977 223.424
L148.334 222.773
L148.602 222.557
L148.692 222.557
L148.959 222.015
L150.834 221.906
L151.013 221.798
L151.281 221.69
L151.548 221.473
L151.727 221.364
L151.906 221.148
L151.995 221.148
L152.173 220.931
L152.977 220.823
L153.156 220.606
L153.87 220.497
L154.138 220.281
L154.584 220.172
L154.763 220.064
L155.388 219.956
L155.655 219.739
L155.923 219.63
L156.459 219.089
L157.709 218.98
L157.887 218.872
L158.423 218.763
L158.869 218.33
L158.959 218.33
L159.227 217.897
L159.316 217.897
L159.584 217.355
L159.762 217.246
L159.941 217.138
L161.637 217.03
L161.816 216.921
L162.084 216.813
L162.351 216.596
L162.53 216.488
L162.708 216.163
L163.601 216.054
L163.869 215.837
L164.137 215.837
L164.316 215.621
L164.494 215.512
L165.298 215.404
L165.476 215.296
L165.655 215.296
L165.833 215.079
L166.101 214.862
L166.369 214.862
L166.548 214.645
L166.815 214.645
L166.994 214.32
L169.672 214.212
L169.851 213.778
L170.297 213.67
L170.565 213.453
L171.815 213.345
L171.994 213.237
L172.619 213.128
L172.976 212.803
L173.244 212.695
L173.958 211.936
L174.315 211.828
L174.493 211.719
L175.118 211.611
L175.297 211.503
L176.458 211.394
L176.993 210.852
L177.35 210.744
L177.529 210.31
L178.154 210.202
L178.332 210.094
L179.582 209.985
L179.761 209.877
L180.207 209.769
L180.386 209.66
L181.011 209.66
L181.368 209.01
L181.904 208.902
L182.082 208.793
L183.689 208.685
L183.868 208.576
L184.136 208.468
L185.028 207.493
L185.386 207.384
L185.564 207.276
L187.26 207.168
L187.439 206.843
L187.796 206.843
L187.975 206.626
L188.243 206.409
L188.421 206.301
L188.6 206.192
L188.957 206.084
L189.135 205.976
L190.117 205.867
L190.296 205.759
L190.832 205.65
L191.01 205.325
L191.189 205.325
L191.367 205.109
L192.26 205
L192.439 204.892
L192.796 204.783
L192.974 204.675
L193.332 204.567
L193.51 204.458
L193.689 204.35
L193.956 204.133
L194.403 204.025
L194.76 203.7
L194.939 203.591
L195.117 203.483
L195.653 203.375
L196.01 203.049
L197.706 202.941
L197.885 202.833
L199.313 202.724
L199.492 202.616
L200.474 202.508
L200.652 202.399
L201.724 202.291
L202.17 201.857
L202.349 201.749
L202.527 201.532
L203.063 201.424
L203.242 201.316
L205.295 201.316
L205.474 200.882
L206.099 200.232
L206.545 200.123
L206.991 199.69
L207.884 199.582
L208.063 199.473
L209.223 199.365
L209.491 198.931
L209.67 198.823
L210.205 198.281
L211.098 198.173
L211.277 198.064
L212.259 197.956
L212.437 197.739
L213.33 197.631
L213.687 197.306
L213.777 197.306
L213.955 196.872
L214.312 196.547
L215.741 196.439
L215.919 196.33
L216.812 196.222
L217.08 196.005
L217.259 196.005
L217.437 195.789
L218.598 195.68
L218.776 195.572
L219.223 195.463
L219.491 195.247
L219.848 195.138
L220.026 195.03
L220.473 194.922
L220.651 194.705
L220.83 194.705
L221.008 194.488
L221.901 194.38
L222.258 194.055
L223.24 193.946
L223.508 193.513
L223.687 193.404
L223.865 193.296
L224.044 193.188
L224.401 193.079
L224.758 192.754
L225.383 192.754
L225.562 192.537
L226.99 192.429
L227.169 192.104
L227.436 191.995
L227.794 191.67
L228.24 191.562
L228.508 191.345
L230.204 191.237
L231.097 190.262
L231.276 190.153
L231.633 189.828
L232.168 189.72
L232.525 189.395
L234.4 189.286
L234.757 188.961
L235.025 188.853
L235.204 188.744
L235.561 188.636
L235.74 188.419
L236.186 188.311
L236.454 188.094
L238.329 187.986
L238.507 187.877
L238.954 187.769
L239.4 187.335
L240.739 187.227
L240.918 186.902
L241.364 186.794
L241.632 186.36
L241.721 186.36
L241.989 185.927
L242.436 185.493
L242.971 185.385
L243.328 185.06
L244.4 184.951
L244.578 184.843
L245.292 184.735
L246.81 183.001
L248.953 182.892
L249.221 182.675
L249.578 182.675
L249.756 182.459
L250.024 182.35
L250.203 182.242
L250.917 182.134
L251.185 181.917
L252.703 181.808
L252.971 181.375
L253.149 181.267
L253.417 181.158
L253.596 180.725
L254.399 180.616
L254.578 180.508
L255.917 180.4
L256.095 180.291
L256.542 180.183
L256.899 179.858
L257.167 179.858
L257.345 179.641
L259.577 179.533
L259.845 179.316
L260.381 179.208
L260.738 178.882
L263.506 178.774
L263.773 178.557
L264.131 178.449
L264.488 178.124
L264.756 178.015
L265.113 177.69
L266.095 177.582
L266.273 177.474
L266.809 177.365
L267.077 177.148
L267.166 177.148
L267.434 176.715
L267.702 176.607
L267.88 176.498
L267.97 176.498
L268.237 175.956
L268.595 175.848
L268.773 175.631
L270.023 175.523
L270.291 175.306
L271.184 175.198
L271.809 174.548
L274.487 174.439
L274.666 174.331
L275.023 174.222
L275.201 174.114
L275.826 174.006
L276.005 173.897
L276.273 173.897
L276.451 173.681
L277.344 173.572
L277.523 173.464
L278.148 173.355
L278.326 173.03
L279.04 172.922
L279.308 172.705
L281.629 172.597
L281.808 172.488
L282.612 172.488
L282.79 172.272
L284.844 172.163
L285.379 171.621
L285.558 171.513
L285.736 171.405
L286.272 171.296
L286.451 171.188
L286.808 171.08
L286.986 170.971
L288.147 170.863
L288.325 170.754
L289.129 170.646
L289.308 170.429
L289.575 170.213
L290.111 170.104
L290.29 169.887
L291.361 169.779
L291.54 169.671
L292.611 169.562
L292.789 169.454
L293.236 169.346
L293.414 169.237
L293.593 169.129
L293.95 168.804
L294.932 168.695
L295.289 168.37
L295.736 168.262
L296.093 167.937
L296.628 167.937
L296.896 167.503
L297.075 167.395
L298.414 167.287
L298.593 167.07
L299.039 166.961
L299.307 166.745
L299.753 166.636
L300.378 165.986
L301.36 165.878
L301.539 165.769
L303.503 165.661
L303.682 165.444
L304.307 165.336
L304.485 165.227
L305.021 165.119
L305.289 164.902
L306.717 164.794
L307.164 164.36
L307.788 164.252
L307.967 164.144
L308.503 164.035
L308.681 163.927
L310.288 163.927
L310.467 163.602
L310.824 163.277
L311.36 163.168
L311.538 163.06
L311.628 163.06
L311.806 162.843
L313.681 162.735
L314.038 162.41
L315.109 162.301
L315.288 162.193
L317.163 162.085
L317.341 161.976
L317.52 161.868
L317.699 161.76
L317.966 161.651
L318.234 161.434
L318.77 161.326
L319.306 160.784
L320.645 160.676
L320.823 160.567
L321.538 160.459
L321.716 160.351
L322.163 160.242
L322.43 160.026
L322.698 159.917
L322.877 159.809
L322.966 159.809
L323.145 159.484
L325.198 159.375
L325.734 158.833
L326.091 158.725
L326.269 158.617
L328.144 158.508
L328.323 158.4
L328.948 158.292
L329.126 158.183
L332.519 158.075
L332.698 157.967
L333.055 157.858
L333.233 157.533
L333.501 157.425
L333.68 157.316
L335.644 157.316
L335.912 156.883
L337.162 156.774
L337.34 156.666
L339.483 156.558
L339.84 156.233
L341.358 156.124
L341.536 156.016
L342.876 155.907
L343.143 155.691
L343.59 155.582
L343.768 155.366
L344.215 155.257
L344.393 155.149
L345.197 155.04
L345.375 154.932
L346.536 154.824
L346.893 154.499
L347.429 154.39
L347.607 154.173
L347.786 154.065
L350.196 153.957
L350.375 153.848
L351 153.74
L351.268 153.523
L351.446 153.523
L351.625 153.198
L351.982 153.09
L352.161 152.981
L353.053 152.873
L353.232 152.765
L354.125 152.656
L354.482 152.331
L354.839 152.223
L355.018 152.114
L355.375 152.006
L355.553 151.898
L357.428 151.789
L358.41 150.706
L359.035 150.706
L359.214 150.489
L361.714 150.38
L361.892 150.164
L362.071 150.055
L362.249 149.947
L364.303 149.839
L364.481 149.73
L364.749 149.622
L365.017 149.405
L365.91 149.297
L366.088 149.188
L367.16 149.08
L367.338 148.972
L368.499 148.863
L368.677 148.755
L369.392 148.646
L369.57 148.538
L369.66 148.538
L369.838 148.213
L370.017 148.105
L371.177 147.996
L371.356 147.888
L371.892 147.779
L372.07 147.671
L372.338 147.563
L372.606 147.346
L373.32 147.238
L373.499 147.129
L375.373 147.021
L375.552 146.913
L376.266 146.913
L376.445 146.696
L379.302 146.587
L379.57 146.371
L379.837 146.262
L380.016 146.154
L380.284 146.154
L380.462 145.829
L382.337 145.72
L382.516 145.612
L383.052 145.504
L383.23 145.395
L383.766 145.287
L384.034 145.07
L385.016 144.962
L385.373 144.637
L386.533 144.528
L387.605 143.336
L388.23 143.228
L388.498 143.011
L390.908 142.903
L391.087 142.794
L392.337 142.686
L392.515 142.578
L393.051 142.469
L393.229 142.361
L394.212 142.252
L394.39 142.144
L395.819 142.036
L395.997 141.927
L397.068 141.819
L397.247 141.711
L397.604 141.711
L397.783 141.494
L398.586 141.386
L398.765 141.277
L400.015 141.169
L400.193 141.06
L400.283 141.06
L400.461 140.844
L401.086 140.735
L401.354 140.519
L402.247 140.41
L402.425 140.302
L404.836 140.193
L405.104 139.977
L405.729 139.868
L405.907 139.652
L408.228 139.543
L408.407 139.435
L409.478 139.326
L409.657 139.218
L411.443 139.218
L411.621 138.893
L411.8 138.785
L412.603 138.676
L412.782 138.568
L413.139 138.459
L413.317 138.243
L415.639 138.134
L416.71 136.942
L418.585 136.834
L418.764 136.725
L419.299 136.617
L419.567 136.4
L419.835 136.4
L420.013 136.184
L420.46 136.075
L420.728 135.859
L422.781 135.75
L423.049 135.533
L423.585 135.425
L423.763 135.208
L424.835 135.1
L425.013 134.992
L426.977 134.883
L427.156 134.775
L427.513 134.666
L427.692 134.558
L428.584 134.45
L428.763 134.341
L429.834 134.233
L430.013 134.125
L430.638 134.016
L430.906 133.799
L431.263 133.691
L431.531 133.474
L432.691 133.366
L432.87 133.258
L433.941 133.149
L434.209 132.932
L435.191 132.824
L435.37 132.716
L436.887 132.607
L437.155 132.391
L437.423 132.282
L437.602 132.065
L438.584 131.957
L438.762 131.849
L440.726 131.74
L440.905 131.524
L441.619 131.415
L441.887 131.198
L444.387 131.09
L444.565 130.982
L447.422 130.873
L447.869 130.44
L448.583 130.332
L448.851 130.115
L449.297 130.006
L449.476 129.898
L450.636 129.79
L450.815 129.681
L453.136 129.573
L453.315 129.465
L455.1 129.356
L455.279 129.248
L456.886 129.139
L457.065 129.031
L457.154 129.031
L457.332 128.814
L458.85 128.706
L459.029 128.381
L459.297 127.947
L459.564 127.731
L459.832 127.731
L460.011 127.514
L461.707 127.405
L461.886 127.189
L462.779 127.08
L463.136 126.755
L463.582 126.647
L463.761 126.538
L464.564 126.43
L464.743 126.322
L466.35 126.213
L466.618 125.997
L466.707 125.997
L466.885 125.671
L468.225 125.563
L468.403 125.455
L469.296 125.346
L469.475 125.238
L469.921 125.13
L470.189 124.913
L470.278 124.913
L470.457 124.588
L471.26 124.588
L471.439 124.371
L472.421 124.263
L472.599 124.154
L473.939 124.046
L474.117 123.938
L476.796 123.829
L477.063 123.612
L477.867 123.504
L478.045 123.396
L478.224 123.287
L478.403 123.179
L480.277 123.071
L480.456 122.962
L481.617 122.854
L481.795 122.745
L481.974 122.637
L482.152 122.529
L484.384 122.529
L484.563 122.312
L485.188 122.204
L485.366 122.095
L487.42 121.987
L487.598 121.878
L487.956 121.77
L488.134 121.662
L488.402 121.553
L488.58 121.228
L488.848 121.12
L489.027 120.903
L489.652 120.795
L489.83 120.686
L490.188 120.578
L490.366 120.47
L490.545 120.361
L490.812 120.144
L491.527 120.036
L491.795 119.819
L492.062 119.711
L492.241 119.603
L492.42 119.494
L492.687 119.278
L492.955 119.169
L493.134 119.061
L494.741 118.952
L495.009 118.736
L495.098 118.736
L495.276 118.519
L495.544 118.411
L495.723 118.302
L496.437 118.194
L496.616 118.085
L499.026 117.977
L499.205 117.869
L499.74 117.76
L499.919 117.652
L503.222 117.544
L503.401 117.435
L505.633 117.327
L505.812 117.218
L506.526 117.11
L506.704 116.893
L506.883 116.785
L507.686 116.677
L507.954 116.46
L510.365 116.351
L510.543 116.243
L511.168 116.135
L511.347 116.026
L513.579 115.918
L513.757 115.701
L516.525 115.593
L516.793 115.376
L517.061 115.376
L517.239 115.051
L518.311 114.943
L518.311 114.943" style="fill:none;stroke:#bf00bf;stroke-linecap:square;"/>
   </g>
   <g id="matplotlib.axis_1">
    <g id="xtick_1">
     <g id="line2d_6">
      <defs>
       <path d="
M0 0
L0 -4" id="mc7db9fdffb" style="stroke:#000000;stroke-width:0.5;"/>
      </defs>
      <g>
       <use style="stroke:#000000;stroke-width:0.5;" x="72.0" xlink:href="#mc7db9fdffb" y="388.8"/>
      </g>
     </g>
     <g id="line2d_7">
      <defs>
       <path d="
M0 0
L0 4" id="m5a7d422ac3" style="stroke:#000000;stroke-width:0.5;"/>
      </defs>
      <g>
       <use style="stroke:#000000;stroke-width:0.5;" x="72.0" xlink:href="#m5a7d422ac3" y="43.2"/>
      </g>
     </g>
     <g id="text_1">
      <!-- 0 -->
      <defs>
       <path d="
M56.9844 36.375
Q56.9844 16.7969 50.8594 7.64062
Q44.7344 -1.51562 31.8438 -1.51562
Q18.75 -1.51562 12.7188 7.76562
Q6.6875 17.0469 6.6875 36.2812
Q6.6875 55.6719 12.7812 64.9219
Q18.8906 74.1719 31.8438 74.1719
Q44.9219 74.1719 50.9531 64.7656
Q56.9844 55.375 56.9844 36.375
M44.1406 14.2031
Q45.8438 18.1719 46.4531 23.5156
Q47.0781 28.8594 47.0781 36.375
Q47.0781 43.7969 46.4531 49.2656
Q45.8438 54.7344 44.0938 58.5469
Q42.3906 62.3125 39.4219 64.2031
Q36.4688 66.1094 31.8438 66.1094
Q27.25 66.1094 24.2344 64.2031
Q21.2344 62.3125 19.4844 58.4531
Q17.8281 54.8281 17.2188 49.0156
Q16.6094 43.2188 16.6094 36.2812
Q16.6094 28.6562 17.1406 23.5312
Q17.6719 18.4062 19.4375 14.3594
Q21.0469 10.5469 24 8.54688
Q26.9531 6.54688 31.8438 6.54688
Q36.4219 6.54688 39.4531 8.45312
Q42.4844 10.3594 44.1406 14.2031" id="Verdana-30"/>
      </defs>
      <g transform="translate(68.9821875 401.918125)scale(0.12 -0.12)">
       <use xlink:href="#Verdana-30"/>
      </g>
     </g>
    </g>
    <g id="xtick_2">
     <g id="line2d_8">
      <g>
       <use style="stroke:#000000;stroke-width:0.5;" x="161.28" xlink:href="#mc7db9fdffb" y="388.8"/>
      </g>
     </g>
     <g id="line2d_9">
      <g>
       <use style="stroke:#000000;stroke-width:0.5;" x="161.28" xlink:href="#m5a7d422ac3" y="43.2"/>
      </g>
     </g>
     <g id="text_2">
      <!-- 1000 -->
      <defs>
       <path d="
M52.9375 0
L13.5781 0
L13.5781 7.42188
L28.7188 7.42188
L28.7188 56.1562
L13.5781 56.1562
L13.5781 62.7969
Q16.6562 62.7969 20.1719 63.2969
Q23.6875 63.8125 25.4844 64.7969
Q27.7344 66.0156 29.0312 67.8906
Q30.3281 69.7812 30.5156 72.9531
L38.0938 72.9531
L38.0938 7.42188
L52.9375 7.42188
z
" id="Verdana-31"/>
      </defs>
      <g transform="translate(147.2315625 401.918125)scale(0.12 -0.12)">
       <use xlink:href="#Verdana-31"/>
       <use x="63.57421875" xlink:href="#Verdana-30"/>
       <use x="127.1484375" xlink:href="#Verdana-30"/>
       <use x="190.72265625" xlink:href="#Verdana-30"/>
      </g>
     </g>
    </g>
    <g id="xtick_3">
     <g id="line2d_10">
      <g>
       <use style="stroke:#000000;stroke-width:0.5;" x="250.56" xlink:href="#mc7db9fdffb" y="388.8"/>
      </g>
     </g>
     <g id="line2d_11">
      <g>
       <use style="stroke:#000000;stroke-width:0.5;" x="250.56" xlink:href="#m5a7d422ac3" y="43.2"/>
      </g>
     </g>
     <g id="text_3">
      <!-- 2000 -->
      <defs>
       <path d="
M57.0781 0
L7.85938 0
L7.85938 10.2031
Q12.9844 14.5938 18.1406 18.9844
Q23.2969 23.3906 27.7344 27.7344
Q37.1094 36.8125 40.5781 42.1562
Q44.0469 47.5156 44.0469 53.7188
Q44.0469 59.375 40.3125 62.5625
Q36.5781 65.7656 29.8906 65.7656
Q25.4375 65.7656 20.2656 64.2031
Q15.0938 62.6406 10.1562 59.4219
L9.67188 59.4219
L9.67188 69.6719
Q13.1406 71.3906 18.9219 72.7969
Q24.7031 74.2188 30.125 74.2188
Q41.3125 74.2188 47.6562 68.8125
Q54 63.4219 54 54.2031
Q54 50.0469 52.9531 46.4531
Q51.9062 42.875 49.8594 39.6562
Q47.9531 36.625 45.3906 33.6875
Q42.8281 30.7656 39.1562 27.2031
Q33.9375 22.0781 28.3594 17.2656
Q22.7969 12.4531 17.9688 8.34375
L57.0781 8.34375
z
" id="Verdana-32"/>
      </defs>
      <g transform="translate(236.1684375 401.918125)scale(0.12 -0.12)">
       <use xlink:href="#Verdana-32"/>
       <use x="63.57421875" xlink:href="#Verdana-30"/>
       <use x="127.1484375" xlink:href="#Verdana-30"/>
       <use x="190.72265625" xlink:href="#Verdana-30"/>
      </g>
     </g>
    </g>
    <g id="xtick_4">
     <g id="line2d_12">
      <g>
       <use style="stroke:#000000;stroke-width:0.5;" x="339.84" xlink:href="#mc7db9fdffb" y="388.8"/>
      </g>
     </g>
     <g id="line2d_13">
      <g>
       <use style="stroke:#000000;stroke-width:0.5;" x="339.84" xlink:href="#m5a7d422ac3" y="43.2"/>
      </g>
     </g>
     <g id="text_4">
      <!-- 3000 -->
      <defs>
       <path d="
M50.6875 35.0156
Q53.0312 32.9062 54.5469 29.7344
Q56.0625 26.5625 56.0625 21.5312
Q56.0625 16.5469 54.25 12.3906
Q52.4375 8.25 49.1719 5.17188
Q45.5156 1.76562 40.5469 0.125
Q35.5938 -1.51562 29.6875 -1.51562
Q23.6406 -1.51562 17.7812 -0.0625
Q11.9219 1.375 8.15625 3.07812
L8.15625 13.2812
L8.89062 13.2812
Q13.0312 10.5469 18.6406 8.73438
Q24.2656 6.9375 29.5 6.9375
Q32.5625 6.9375 36.0312 7.95312
Q39.5 8.98438 41.6562 10.9844
Q43.8906 13.1406 44.9844 15.7188
Q46.0938 18.3125 46.0938 22.2656
Q46.0938 26.1719 44.8438 28.7344
Q43.6094 31.2969 41.4062 32.7656
Q39.2031 34.2812 36.0781 34.8438
Q32.9531 35.4062 29.3438 35.4062
L24.9531 35.4062
L24.9531 43.5
L28.375 43.5
Q35.7969 43.5 40.2031 46.5938
Q44.625 49.7031 44.625 55.6719
Q44.625 58.2969 43.5 60.2656
Q42.3906 62.25 40.375 63.5312
Q38.2812 64.7969 35.8906 65.2812
Q33.5 65.7656 30.4688 65.7656
Q25.8281 65.7656 20.5938 64.1094
Q15.375 62.4531 10.75 59.4219
L10.25 59.4219
L10.25 69.625
Q13.7188 71.3438 19.5 72.7812
Q25.2969 74.2188 30.7188 74.2188
Q36.0312 74.2188 40.0781 73.2344
Q44.1406 72.2656 47.4062 70.125
Q50.9219 67.7812 52.7344 64.4531
Q54.5469 61.1406 54.5469 56.6875
Q54.5469 50.6406 50.2656 46.125
Q46 41.6094 40.1875 40.4375
L40.1875 39.75
Q42.5312 39.3594 45.5469 38.1094
Q48.5781 36.8594 50.6875 35.0156" id="Verdana-33"/>
      </defs>
      <g transform="translate(325.46625 401.918125)scale(0.12 -0.12)">
       <use xlink:href="#Verdana-33"/>
       <use x="63.57421875" xlink:href="#Verdana-30"/>
       <use x="127.1484375" xlink:href="#Verdana-30"/>
       <use x="190.72265625" xlink:href="#Verdana-30"/>
      </g>
     </g>
    </g>
    <g id="xtick_5">
     <g id="line2d_14">
      <g>
       <use style="stroke:#000000;stroke-width:0.5;" x="429.12" xlink:href="#mc7db9fdffb" y="388.8"/>
      </g>
     </g>
     <g id="line2d_15">
      <g>
       <use style="stroke:#000000;stroke-width:0.5;" x="429.12" xlink:href="#m5a7d422ac3" y="43.2"/>
      </g>
     </g>
     <g id="text_5">
      <!-- 4000 -->
      <defs>
       <path d="
M58.7344 20.4531
L47.9531 20.4531
L47.9531 0
L38.5781 0
L38.5781 20.4531
L3.76562 20.4531
L3.76562 31.6875
L38.9688 72.7031
L47.9531 72.7031
L47.9531 28.2656
L58.7344 28.2656
z

M38.5781 28.2656
L38.5781 61.0781
L10.4062 28.2656
z
" id="Verdana-34"/>
      </defs>
      <g transform="translate(414.4828125 401.918125)scale(0.12 -0.12)">
       <use xlink:href="#Verdana-34"/>
       <use x="63.57421875" xlink:href="#Verdana-30"/>
       <use x="127.1484375" xlink:href="#Verdana-30"/>
       <use x="190.72265625" xlink:href="#Verdana-30"/>
      </g>
     </g>
    </g>
    <g id="xtick_6">
     <g id="line2d_16">
      <g>
       <use style="stroke:#000000;stroke-width:0.5;" x="518.4" xlink:href="#mc7db9fdffb" y="388.8"/>
      </g>
     </g>
     <g id="line2d_17">
      <g>
       <use style="stroke:#000000;stroke-width:0.5;" x="518.4" xlink:href="#m5a7d422ac3" y="43.2"/>
      </g>
     </g>
     <g id="text_6">
      <!-- 5000 -->
      <defs>
       <path d="
M56.5 23.0938
Q56.5 18.0156 54.6406 13.375
Q52.7812 8.73438 49.5625 5.5625
Q46.0469 2.15625 41.1875 0.3125
Q36.3281 -1.51562 29.9375 -1.51562
Q23.9688 -1.51562 18.4531 -0.265625
Q12.9375 0.984375 9.125 2.73438
L9.125 13.0312
L9.8125 13.0312
Q13.8125 10.5 19.1875 8.71875
Q24.5625 6.9375 29.7344 6.9375
Q33.2031 6.9375 36.4531 7.90625
Q39.7031 8.89062 42.2344 11.3281
Q44.3906 13.4219 45.4844 16.3438
Q46.5781 19.2812 46.5781 23.1406
Q46.5781 26.9062 45.2812 29.4844
Q44 32.0781 41.7031 33.6406
Q39.1562 35.5 35.5156 36.25
Q31.8906 37.0156 27.3906 37.0156
Q23.0938 37.0156 19.1094 36.4219
Q15.1406 35.8438 12.25 35.25
L12.25 72.7031
L56 72.7031
L56 64.1562
L21.6875 64.1562
L21.6875 44.8281
Q23.7812 45.0156 25.9688 45.1094
Q28.1719 45.2188 29.7812 45.2188
Q35.6875 45.2188 40.125 44.2188
Q44.5781 43.2188 48.2969 40.6719
Q52.2031 37.9844 54.3438 33.7344
Q56.5 29.5 56.5 23.0938" id="Verdana-35"/>
      </defs>
      <g transform="translate(504.084375 401.918125)scale(0.12 -0.12)">
       <use xlink:href="#Verdana-35"/>
       <use x="63.57421875" xlink:href="#Verdana-30"/>
       <use x="127.1484375" xlink:href="#Verdana-30"/>
       <use x="190.72265625" xlink:href="#Verdana-30"/>
      </g>
     </g>
    </g>
    <g id="text_7">
     <!-- Objective function exectuions -->
     <defs>
      <path d="
M37.3594 0.484375
Q34.7656 -0.203125 31.7031 -0.640625
Q28.6562 -1.07812 26.2656 -1.07812
Q17.9219 -1.07812 13.5781 3.40625
Q9.23438 7.90625 9.23438 17.8281
L9.23438 46.8281
L3.03125 46.8281
L3.03125 54.5469
L9.23438 54.5469
L9.23438 70.2188
L18.4062 70.2188
L18.4062 54.5469
L37.3594 54.5469
L37.3594 46.8281
L18.4062 46.8281
L18.4062 21.9688
Q18.4062 17.6719 18.5938 15.25
Q18.7969 12.8438 19.9688 10.75
Q21.0469 8.79688 22.9219 7.89062
Q24.8125 6.98438 28.6562 6.98438
Q30.9062 6.98438 33.3438 7.64062
Q35.7969 8.29688 36.8594 8.73438
L37.3594 8.73438
z
" id="Verdana-74"/>
      <path d="
M56.2031 54.5469
L34.125 0
L24.9062 0
L2.98438 54.5469
L12.9375 54.5469
L29.8281 11.1406
L46.5781 54.5469
z
" id="Verdana-76"/>
      <path d="
M26.0312 63.6719
L15.6719 63.6719
L15.6719 73.1875
L26.0312 73.1875
z

M25.4375 -1.3125
Q25.4375 -10.8906 20.5469 -15.7656
Q15.6719 -20.6562 7.46875 -20.6562
Q5.51562 -20.6562 2.3125 -20.2656
Q-0.875 -19.875 -3.03125 -19.2812
L-3.03125 -10.5469
L-2.54688 -10.5469
Q-1.17188 -11.0781 1.14062 -11.7656
Q3.46875 -12.4531 5.67188 -12.4531
Q9.1875 -12.4531 11.3281 -11.4688
Q13.4844 -10.5 14.5469 -8.54688
Q15.625 -6.59375 15.9375 -3.82812
Q16.2656 -1.07812 16.2656 2.875
L16.2656 46.8281
L4.89062 46.8281
L4.89062 54.5469
L25.4375 54.5469
z
" id="Verdana-6a"/>
      <path d="
M63.9688 64.3594
Q68.4062 59.4688 70.7656 52.3906
Q73.1406 45.3125 73.1406 36.3281
Q73.1406 27.3438 70.7188 20.2344
Q68.3125 13.1406 63.9688 8.40625
Q59.4688 3.46875 53.3438 0.96875
Q47.2188 -1.51562 39.3594 -1.51562
Q31.6875 -1.51562 25.4062 1.01562
Q19.1406 3.5625 14.75 8.40625
Q10.3594 13.2344 7.98438 20.2656
Q5.60938 27.2969 5.60938 36.3281
Q5.60938 45.2188 7.95312 52.2656
Q10.2969 59.3281 14.7969 64.3594
Q19.0938 69.1406 25.4688 71.6719
Q31.8438 74.2188 39.3594 74.2188
Q47.1719 74.2188 53.3906 71.6562
Q59.625 69.0938 63.9688 64.3594
M63.0938 36.3281
Q63.0938 50.4844 56.7344 58.1719
Q50.3906 65.875 39.4062 65.875
Q28.3281 65.875 22 58.1719
Q15.6719 50.4844 15.6719 36.3281
Q15.6719 22.0156 22.1094 14.4219
Q28.5625 6.84375 39.4062 6.84375
Q50.25 6.84375 56.6719 14.4219
Q63.0938 22.0156 63.0938 36.3281" id="Verdana-4f"/>
      <path d="
M54.25 0
L45.0625 0
L45.0625 6.0625
Q40.4375 2.39062 36.1875 0.4375
Q31.9375 -1.51562 26.8125 -1.51562
Q18.2188 -1.51562 13.4219 3.73438
Q8.64062 8.98438 8.64062 19.1406
L8.64062 54.5469
L17.8281 54.5469
L17.8281 23.4844
Q17.8281 19.3438 18.2188 16.375
Q18.6094 13.4219 19.875 11.3281
Q21.1875 9.1875 23.2812 8.20312
Q25.3906 7.23438 29.3906 7.23438
Q32.9531 7.23438 37.1719 9.07812
Q41.4062 10.9375 45.0625 13.8125
L45.0625 54.5469
L54.25 54.5469
z
" id="Verdana-75"/>
      <path d="
M48 15.7188
Q48 8.25 41.8125 3.46875
Q35.6406 -1.3125 24.9531 -1.3125
Q18.8906 -1.3125 13.8438 0.125
Q8.79688 1.5625 5.375 3.26562
L5.375 13.5781
L5.85938 13.5781
Q10.2031 10.2969 15.5156 8.375
Q20.8438 6.45312 25.7344 6.45312
Q31.7812 6.45312 35.2031 8.40625
Q38.625 10.3594 38.625 14.5469
Q38.625 17.7812 36.7656 19.4375
Q34.9062 21.0938 29.6406 22.2656
Q27.6875 22.7031 24.5312 23.2812
Q21.3906 23.875 18.7969 24.5625
Q11.625 26.4688 8.60938 30.1562
Q5.60938 33.8438 5.60938 39.2031
Q5.60938 42.5781 7 45.5469
Q8.40625 48.5312 11.2344 50.875
Q13.9688 53.1719 18.1875 54.5156
Q22.4062 55.8594 27.6406 55.8594
Q32.5156 55.8594 37.5156 54.6562
Q42.5312 53.4688 45.8438 51.7656
L45.8438 41.9375
L45.3594 41.9375
Q41.8438 44.5312 36.8125 46.3125
Q31.7812 48.0938 26.9531 48.0938
Q21.9219 48.0938 18.4531 46.1562
Q14.9844 44.2344 14.9844 40.4375
Q14.9844 37.0625 17.0938 35.3594
Q19.1406 33.6406 23.7344 32.5625
Q26.2656 31.9844 29.4062 31.3906
Q32.5625 30.8125 34.6719 30.3281
Q41.0625 28.8594 44.5312 25.2969
Q48 21.6875 48 15.7188" id="Verdana-73"/>
      <path d="
M56.25 0
L44.6719 0
L29.2031 20.9531
L13.625 0
L2.9375 0
L24.2188 27.2031
L3.125 54.5469
L14.7031 54.5469
L30.0781 33.9375
L45.5156 54.5469
L56.25 54.5469
L34.8125 27.6875
z
" id="Verdana-78"/>
      <path id="Verdana-20"/>
      <path d="
M38.375 67.0938
L37.8906 67.0938
Q36.375 67.5312 33.9375 67.9844
Q31.5 68.4531 29.6406 68.4531
Q23.7344 68.4531 21.0625 65.8438
Q18.4062 63.2344 18.4062 56.3906
L18.4062 54.5469
L34.9688 54.5469
L34.9688 46.8281
L18.7031 46.8281
L18.7031 0
L9.51562 0
L9.51562 46.8281
L3.32812 46.8281
L3.32812 54.5469
L9.51562 54.5469
L9.51562 56.3438
Q9.51562 66.0625 14.3438 71.2656
Q19.1875 76.4688 28.3281 76.4688
Q31.3906 76.4688 33.8594 76.1719
Q36.3281 75.875 38.375 75.4844
z
" id="Verdana-66"/>
      <path d="
M55.5156 27.25
Q55.5156 13.9219 48.6719 6.20312
Q41.8438 -1.51562 30.375 -1.51562
Q18.7969 -1.51562 11.9844 6.20312
Q5.17188 13.9219 5.17188 27.25
Q5.17188 40.5781 11.9844 48.3125
Q18.7969 56.0625 30.375 56.0625
Q41.8438 56.0625 48.6719 48.3125
Q55.5156 40.5781 55.5156 27.25
M46.0469 27.25
Q46.0469 37.8438 41.8906 42.9844
Q37.75 48.1406 30.375 48.1406
Q22.9062 48.1406 18.7812 42.9844
Q14.6562 37.8438 14.6562 27.25
Q14.6562 17 18.7969 11.6875
Q22.9531 6.39062 30.375 6.39062
Q37.7031 6.39062 41.875 11.6406
Q46.0469 16.8906 46.0469 27.25" id="Verdana-6f"/>
      <path d="
M57.0312 27.6875
Q57.0312 20.8438 55.0938 15.375
Q53.1719 9.90625 49.9062 6.20312
Q46.4375 2.34375 42.2812 0.40625
Q38.1406 -1.51562 33.1562 -1.51562
Q28.5156 -1.51562 25.0469 -0.40625
Q21.5781 0.6875 18.2188 2.54688
L17.625 0
L9.03125 0
L9.03125 75.9844
L18.2188 75.9844
L18.2188 48.8281
Q22.0781 52 26.4219 54.0312
Q30.7656 56.0625 36.1875 56.0625
Q45.8438 56.0625 51.4375 48.6406
Q57.0312 41.2188 57.0312 27.6875
M47.5625 27.4375
Q47.5625 37.2031 44.3281 42.25
Q41.1094 47.3125 33.9375 47.3125
Q29.9375 47.3125 25.8281 45.5781
Q21.7344 43.8438 18.2188 41.1094
L18.2188 9.85938
Q22.125 8.10938 24.9219 7.42188
Q27.7344 6.73438 31.2969 6.73438
Q38.9219 6.73438 43.2344 11.7344
Q47.5625 16.75 47.5625 27.4375" id="Verdana-62"/>
      <path d="
M49.3594 3.42188
Q44.7812 1.21875 40.6562 0
Q36.5312 -1.21875 31.8906 -1.21875
Q25.9844 -1.21875 21.0469 0.515625
Q16.1094 2.25 12.5938 5.76562
Q9.03125 9.28125 7.07812 14.6406
Q5.125 20.0156 5.125 27.2031
Q5.125 40.5781 12.4688 48.1875
Q19.8281 55.8125 31.8906 55.8125
Q36.5781 55.8125 41.0938 54.4844
Q45.6094 53.1719 49.3594 51.2656
L49.3594 41.0625
L48.875 41.0625
Q44.6719 44.3438 40.2031 46.0938
Q35.75 47.8594 31.5 47.8594
Q23.6875 47.8594 19.1719 42.6094
Q14.6562 37.3594 14.6562 27.2031
Q14.6562 17.3281 19.0625 12.0312
Q23.4844 6.73438 31.5 6.73438
Q34.2812 6.73438 37.1562 7.46875
Q40.0469 8.20312 42.3281 9.375
Q44.3438 10.4062 46.0938 11.5469
Q47.8594 12.7031 48.875 13.5312
L49.3594 13.5312
z
" id="Verdana-63"/>
      <path d="
M54.6406 0
L45.4531 0
L45.4531 31.0625
Q45.4531 34.8125 45.0156 38.1094
Q44.5781 41.4062 43.4062 43.2656
Q42.1875 45.3125 39.8906 46.3125
Q37.5938 47.3125 33.9375 47.3125
Q30.1719 47.3125 26.0625 45.4531
Q21.9688 43.6094 18.2188 40.7188
L18.2188 0
L9.03125 0
L9.03125 54.5469
L18.2188 54.5469
L18.2188 48.4844
Q22.5156 52.0469 27.0938 54.0469
Q31.6875 56.0625 36.5312 56.0625
Q45.3594 56.0625 50 50.7344
Q54.6406 45.4062 54.6406 35.4062
z
" id="Verdana-6e"/>
      <path d="
M54.6875 26.3125
L14.5 26.3125
Q14.5 21.2969 16.0156 17.5469
Q17.5312 13.8125 20.1719 11.4219
Q22.7031 9.07812 26.1875 7.90625
Q29.6875 6.73438 33.8906 6.73438
Q39.4531 6.73438 45.0938 8.95312
Q50.7344 11.1875 53.125 13.3281
L53.6094 13.3281
L53.6094 3.32812
Q48.9688 1.375 44.1406 0.046875
Q39.3125 -1.26562 33.9844 -1.26562
Q20.4062 -1.26562 12.7812 6.07812
Q5.17188 13.4219 5.17188 26.9531
Q5.17188 40.3281 12.4688 48.1875
Q19.7812 56.0625 31.6875 56.0625
Q42.7188 56.0625 48.7031 49.6094
Q54.6875 43.1719 54.6875 31.2969
z

M45.75 33.3438
Q45.7031 40.5781 42.1094 44.5312
Q38.5312 48.4844 31.2031 48.4844
Q23.8281 48.4844 19.4531 44.1406
Q15.0938 39.7969 14.5 33.3438
z
" id="Verdana-65"/>
      <path d="
M18.8906 63.6719
L8.54688 63.6719
L8.54688 73.1875
L18.8906 73.1875
z

M18.3125 0
L9.125 0
L9.125 54.5469
L18.3125 54.5469
z
" id="Verdana-69"/>
     </defs>
     <g transform="translate(206.5078125 418.509375)scale(0.12 -0.12)">
      <use xlink:href="#Verdana-4f"/>
      <use x="78.7109375" xlink:href="#Verdana-62"/>
      <use x="141.015625" xlink:href="#Verdana-6a"/>
      <use x="175.439453125" xlink:href="#Verdana-65"/>
      <use x="235.009765625" xlink:href="#Verdana-63"/>
      <use x="287.109375" xlink:href="#Verdana-74"/>
      <use x="326.513671875" xlink:href="#Verdana-69"/>
      <use x="353.955078125" xlink:href="#Verdana-76"/>
      <use x="412.259765625" xlink:href="#Verdana-65"/>
      <use x="471.830078125" xlink:href="#Verdana-20"/>
      <use x="506.986328125" xlink:href="#Verdana-66"/>
      <use x="542.142578125" xlink:href="#Verdana-75"/>
      <use x="605.423828125" xlink:href="#Verdana-6e"/>
      <use x="668.705078125" xlink:href="#Verdana-63"/>
      <use x="720.8046875" xlink:href="#Verdana-74"/>
      <use x="760.208984375" xlink:href="#Verdana-69"/>
      <use x="787.650390625" xlink:href="#Verdana-6f"/>
      <use x="848.34375" xlink:href="#Verdana-6e"/>
      <use x="911.625" xlink:href="#Verdana-20"/>
      <use x="946.78125" xlink:href="#Verdana-65"/>
      <use x="1006.3515625" xlink:href="#Verdana-78"/>
      <use x="1064.40625" xlink:href="#Verdana-65"/>
      <use x="1123.9765625" xlink:href="#Verdana-63"/>
      <use x="1176.076171875" xlink:href="#Verdana-74"/>
      <use x="1215.48046875" xlink:href="#Verdana-75"/>
      <use x="1278.76171875" xlink:href="#Verdana-69"/>
      <use x="1306.203125" xlink:href="#Verdana-6f"/>
      <use x="1366.896484375" xlink:href="#Verdana-6e"/>
      <use x="1430.177734375" xlink:href="#Verdana-73"/>
     </g>
    </g>
   </g>
   <g id="matplotlib.axis_2">
    <g id="ytick_1">
     <g id="line2d_18">
      <defs>
       <path d="
M0 0
L4 0" id="md7965d1ba0" style="stroke:#000000;stroke-width:0.5;"/>
      </defs>
      <g>
       <use style="stroke:#000000;stroke-width:0.5;" x="72.0" xlink:href="#md7965d1ba0" y="388.8"/>
      </g>
     </g>
     <g id="line2d_19">
      <defs>
       <path d="
M0 0
L-4 0" id="md9a1c1a7cd" style="stroke:#000000;stroke-width:0.5;"/>
      </defs>
      <g>
       <use style="stroke:#000000;stroke-width:0.5;" x="518.4" xlink:href="#md9a1c1a7cd" y="388.8"/>
      </g>
     </g>
     <g id="text_8">
      <!-- 0.0 -->
      <defs>
       <path d="
M24.0312 0
L12.3594 0
L12.3594 13.9219
L24.0312 13.9219
z
" id="Verdana-2e"/>
      </defs>
      <g transform="translate(49.97 392.1515625)scale(0.12 -0.12)">
       <use xlink:href="#Verdana-30"/>
       <use x="63.57421875" xlink:href="#Verdana-2e"/>
       <use x="99.951171875" xlink:href="#Verdana-30"/>
      </g>
     </g>
    </g>
    <g id="ytick_2">
     <g id="line2d_20">
      <g>
       <use style="stroke:#000000;stroke-width:0.5;" x="72.0" xlink:href="#md7965d1ba0" y="319.68"/>
      </g>
     </g>
     <g id="line2d_21">
      <g>
       <use style="stroke:#000000;stroke-width:0.5;" x="518.4" xlink:href="#md9a1c1a7cd" y="319.68"/>
      </g>
     </g>
     <g id="text_9">
      <!-- 0.2 -->
      <g transform="translate(49.95875 323.0315625)scale(0.12 -0.12)">
       <use xlink:href="#Verdana-30"/>
       <use x="63.57421875" xlink:href="#Verdana-2e"/>
       <use x="99.951171875" xlink:href="#Verdana-32"/>
      </g>
     </g>
    </g>
    <g id="ytick_3">
     <g id="line2d_22">
      <g>
       <use style="stroke:#000000;stroke-width:0.5;" x="72.0" xlink:href="#md7965d1ba0" y="250.56"/>
      </g>
     </g>
     <g id="line2d_23">
      <g>
       <use style="stroke:#000000;stroke-width:0.5;" x="518.4" xlink:href="#md9a1c1a7cd" y="250.56"/>
      </g>
     </g>
     <g id="text_10">
      <!-- 0.4 -->
      <g transform="translate(49.76 253.9115625)scale(0.12 -0.12)">
       <use xlink:href="#Verdana-30"/>
       <use x="63.57421875" xlink:href="#Verdana-2e"/>
       <use x="99.951171875" xlink:href="#Verdana-34"/>
      </g>
     </g>
    </g>
    <g id="ytick_4">
     <g id="line2d_24">
      <g>
       <use style="stroke:#000000;stroke-width:0.5;" x="72.0" xlink:href="#md7965d1ba0" y="181.44"/>
      </g>
     </g>
     <g id="line2d_25">
      <g>
       <use style="stroke:#000000;stroke-width:0.5;" x="518.4" xlink:href="#md9a1c1a7cd" y="181.44"/>
      </g>
     </g>
     <g id="text_11">
      <!-- 0.6 -->
      <defs>
       <path d="
M58.1562 23.5781
Q58.1562 12.5 50.8594 5.48438
Q43.5625 -1.51562 32.9531 -1.51562
Q27.5938 -1.51562 23.1875 0.140625
Q18.7969 1.8125 15.4375 5.07812
Q11.2344 9.125 8.95312 15.8125
Q6.6875 22.5156 6.6875 31.9375
Q6.6875 41.6094 8.76562 49.0781
Q10.8438 56.5469 15.375 62.3594
Q19.6719 67.875 26.4531 70.9688
Q33.25 74.0781 42.2812 74.0781
Q45.1719 74.0781 47.125 73.8281
Q49.0781 73.5781 51.0781 72.9531
L51.0781 63.625
L50.5938 63.625
Q49.2188 64.3594 46.4531 65.0156
Q43.7031 65.6719 40.8281 65.6719
Q30.3281 65.6719 24.0781 59.1094
Q17.8281 52.5469 16.7969 41.3594
Q20.9062 43.8438 24.875 45.1406
Q28.8594 46.4375 34.0781 46.4375
Q38.7188 46.4375 42.25 45.5781
Q45.7969 44.7344 49.5156 42.1406
Q53.8125 39.1562 55.9844 34.6094
Q58.1562 30.0781 58.1562 23.5781
M48.25 23.1875
Q48.25 27.7344 46.9062 30.7031
Q45.5625 33.6875 42.4844 35.8906
Q40.2344 37.4531 37.5 37.9375
Q34.7656 38.4219 31.7812 38.4219
Q27.6406 38.4219 24.0781 37.4375
Q20.5156 36.4688 16.75 34.4219
Q16.6562 33.3438 16.5938 32.3438
Q16.5469 31.3438 16.5469 29.8281
Q16.5469 22.125 18.1406 17.6562
Q19.7344 13.1875 22.5156 10.5938
Q24.75 8.45312 27.3594 7.45312
Q29.9844 6.45312 33.0625 6.45312
Q40.1406 6.45312 44.1875 10.7656
Q48.25 15.0938 48.25 23.1875" id="Verdana-36"/>
      </defs>
      <g transform="translate(49.829375 184.7915625)scale(0.12 -0.12)">
       <use xlink:href="#Verdana-30"/>
       <use x="63.57421875" xlink:href="#Verdana-2e"/>
       <use x="99.951171875" xlink:href="#Verdana-36"/>
      </g>
     </g>
    </g>
    <g id="ytick_5">
     <g id="line2d_26">
      <g>
       <use style="stroke:#000000;stroke-width:0.5;" x="72.0" xlink:href="#md7965d1ba0" y="112.32"/>
      </g>
     </g>
     <g id="line2d_27">
      <g>
       <use style="stroke:#000000;stroke-width:0.5;" x="518.4" xlink:href="#md9a1c1a7cd" y="112.32"/>
      </g>
     </g>
     <g id="text_12">
      <!-- 0.8 -->
      <defs>
       <path d="
M57.625 20.2656
Q57.625 10.8438 50.2656 4.59375
Q42.9219 -1.65625 31.7812 -1.65625
Q19.9688 -1.65625 12.9531 4.4375
Q5.95312 10.5469 5.95312 20.0625
Q5.95312 26.125 9.46875 31.0312
Q12.9844 35.9375 19.3906 38.8125
L19.3906 39.1094
Q13.5312 42.2344 10.7188 45.9375
Q7.90625 49.6562 7.90625 55.2188
Q7.90625 63.4219 14.6406 68.8906
Q21.3906 74.3594 31.7812 74.3594
Q42.6719 74.3594 49.1719 69.1406
Q55.6719 63.9219 55.6719 55.8594
Q55.6719 50.9219 52.5938 46.1562
Q49.5156 41.4062 43.5625 38.7188
L43.5625 38.4219
Q50.3906 35.5 54 31.2031
Q57.625 26.9062 57.625 20.2656
M46.0469 55.7656
Q46.0469 60.9844 42.0156 64.0781
Q37.9844 67.1875 31.7344 67.1875
Q25.5938 67.1875 21.6562 64.25
Q17.7188 61.3281 17.7188 56.3438
Q17.7188 52.8281 19.7031 50.2656
Q21.6875 47.7031 25.6875 45.7031
Q27.4844 44.8281 30.875 43.4062
Q34.2812 42 37.5 41.0625
Q42.3281 44.2812 44.1875 47.75
Q46.0469 51.2188 46.0469 55.7656
M47.5625 19.3438
Q47.5625 23.8281 45.5781 26.5312
Q43.6094 29.25 37.8438 31.9844
Q35.5469 33.0625 32.8125 33.9844
Q30.0781 34.9062 25.5312 36.5781
Q21.1406 34.1875 18.4844 30.0781
Q15.8281 25.9844 15.8281 20.7969
Q15.8281 14.2031 20.3594 9.90625
Q24.9062 5.60938 31.8906 5.60938
Q39.0156 5.60938 43.2812 9.26562
Q47.5625 12.9375 47.5625 19.3438" id="Verdana-38"/>
      </defs>
      <g transform="translate(49.893125 115.6715625)scale(0.12 -0.12)">
       <use xlink:href="#Verdana-30"/>
       <use x="63.57421875" xlink:href="#Verdana-2e"/>
       <use x="99.951171875" xlink:href="#Verdana-38"/>
      </g>
     </g>
    </g>
    <g id="ytick_6">
     <g id="line2d_28">
      <g>
       <use style="stroke:#000000;stroke-width:0.5;" x="72.0" xlink:href="#md7965d1ba0" y="43.2"/>
      </g>
     </g>
     <g id="line2d_29">
      <g>
       <use style="stroke:#000000;stroke-width:0.5;" x="518.4" xlink:href="#md9a1c1a7cd" y="43.2"/>
      </g>
     </g>
     <g id="text_13">
      <!-- 1.0 -->
      <g transform="translate(50.796875 46.5515625)scale(0.12 -0.12)">
       <use xlink:href="#Verdana-31"/>
       <use x="63.57421875" xlink:href="#Verdana-2e"/>
       <use x="99.951171875" xlink:href="#Verdana-30"/>
      </g>
     </g>
    </g>
    <g id="text_14">
     <!-- Data Profile T-0.0010000 -->
     <defs>
      <path d="
M43.0625 44.5312
L42.5781 44.5312
Q40.5312 45.0156 38.5938 45.2344
Q36.6719 45.4531 34.0312 45.4531
Q29.7812 45.4531 25.8281 43.5781
Q21.875 41.7031 18.2188 38.7188
L18.2188 0
L9.03125 0
L9.03125 54.5469
L18.2188 54.5469
L18.2188 46.4844
Q23.6875 50.875 27.8594 52.7031
Q32.0312 54.5469 36.375 54.5469
Q38.7656 54.5469 39.8438 54.4219
Q40.9219 54.2969 43.0625 53.9531
z
" id="Verdana-72"/>
      <path d="
M37.9375 27.3906
L7.46875 27.3906
L7.46875 36.2344
L37.9375 36.2344
z
" id="Verdana-2d"/>
      <path d="
M18.3125 0
L9.125 0
L9.125 75.9844
L18.3125 75.9844
z
" id="Verdana-6c"/>
      <path d="
M57.3281 50.7344
Q57.3281 45.9062 55.6406 41.7656
Q53.9531 37.6406 50.9219 34.625
Q47.1719 30.8594 42.0469 28.9688
Q36.9219 27.0938 29.1094 27.0938
L19.4375 27.0938
L19.4375 0
L9.76562 0
L9.76562 72.7031
L29.5 72.7031
Q36.0312 72.7031 40.5781 71.6094
Q45.125 70.5156 48.6406 68.1719
Q52.7812 65.375 55.0469 61.2188
Q57.3281 57.0781 57.3281 50.7344
M47.2656 50.4844
Q47.2656 54.25 45.9375 57.0312
Q44.625 59.8125 41.9375 61.5781
Q39.5938 63.0938 36.5938 63.75
Q33.5938 64.4062 29 64.4062
L19.4375 64.4062
L19.4375 35.3594
L27.5938 35.3594
Q33.4531 35.3594 37.1094 36.4062
Q40.7656 37.4531 43.0625 39.75
Q45.3594 42.0938 46.3125 44.6719
Q47.2656 47.2656 47.2656 50.4844" id="Verdana-50"/>
      <path d="
M61.625 64.1094
L35.6406 64.1094
L35.6406 0
L25.9844 0
L25.9844 64.1094
L0 64.1094
L0 72.7031
L61.625 72.7031
z
" id="Verdana-54"/>
      <path d="
M51.4219 0
L42.2812 0
L42.2812 5.8125
Q41.0625 4.98438 38.9844 3.48438
Q36.9219 2 34.9688 1.125
Q32.6719 0 29.6875 -0.75
Q26.7031 -1.51562 22.7031 -1.51562
Q15.3281 -1.51562 10.2031 3.35938
Q5.07812 8.25 5.07812 15.8281
Q5.07812 22.0156 7.73438 25.8438
Q10.4062 29.6875 15.3281 31.8906
Q20.3125 34.0781 27.2969 34.8594
Q34.2812 35.6406 42.2812 36.0312
L42.2812 37.4531
Q42.2812 40.5781 41.1875 42.625
Q40.0938 44.6719 38.0312 45.8438
Q36.0781 46.9688 33.3438 47.3594
Q30.6094 47.75 27.6406 47.75
Q24.0312 47.75 19.5781 46.7969
Q15.1406 45.8438 10.4062 44.0469
L9.90625 44.0469
L9.90625 53.375
Q12.5938 54.1094 17.6719 54.9844
Q22.75 55.8594 27.6875 55.8594
Q33.4531 55.8594 37.7188 54.9062
Q42 53.9531 45.125 51.6562
Q48.1875 49.4219 49.7969 45.8438
Q51.4219 42.2812 51.4219 37.0156
z

M42.2812 13.4219
L42.2812 28.6094
Q38.0938 28.375 32.3906 27.875
Q26.7031 27.3906 23.3906 26.4688
Q19.4375 25.3438 16.9844 22.9688
Q14.5469 20.6094 14.5469 16.4531
Q14.5469 11.7656 17.375 9.39062
Q20.2188 7.03125 26.0312 7.03125
Q30.8594 7.03125 34.8594 8.90625
Q38.875 10.7969 42.2812 13.4219" id="Verdana-61"/>
      <path d="
M71.1875 36.2812
Q71.1875 26.375 66.8594 18.3125
Q62.5469 10.25 55.375 5.8125
Q50.3906 2.73438 44.2656 1.35938
Q38.1406 0 28.125 0
L9.76562 0
L9.76562 72.7031
L27.9375 72.7031
Q38.5781 72.7031 44.8438 71.1562
Q51.125 69.625 55.4688 66.9375
Q62.8906 62.3125 67.0312 54.5938
Q71.1875 46.875 71.1875 36.2812
M61.0781 36.4219
Q61.0781 44.9688 58.0938 50.8281
Q55.125 56.6875 49.2188 60.0625
Q44.9219 62.5 40.0781 63.4531
Q35.25 64.4062 28.5156 64.4062
L19.4375 64.4062
L19.4375 8.29688
L28.5156 8.29688
Q35.5 8.29688 40.7031 9.32812
Q45.9062 10.3594 50.25 13.1406
Q55.6719 16.6094 58.375 22.2656
Q61.0781 27.9375 61.0781 36.4219" id="Verdana-44"/>
     </defs>
     <g transform="translate(42.345 291.493125)rotate(-90.0)scale(0.12 -0.12)">
      <use xlink:href="#Verdana-44"/>
      <use x="77.05078125" xlink:href="#Verdana-61"/>
      <use x="137.109375" xlink:href="#Verdana-74"/>
      <use x="176.513671875" xlink:href="#Verdana-61"/>
      <use x="236.572265625" xlink:href="#Verdana-20"/>
      <use x="271.728515625" xlink:href="#Verdana-50"/>
      <use x="332.03125" xlink:href="#Verdana-72"/>
      <use x="374.70703125" xlink:href="#Verdana-6f"/>
      <use x="435.400390625" xlink:href="#Verdana-66"/>
      <use x="470.556640625" xlink:href="#Verdana-69"/>
      <use x="497.998046875" xlink:href="#Verdana-6c"/>
      <use x="525.439453125" xlink:href="#Verdana-65"/>
      <use x="585.009765625" xlink:href="#Verdana-20"/>
      <use x="620.166015625" xlink:href="#Verdana-54"/>
      <use x="674.412109375" xlink:href="#Verdana-2d"/>
      <use x="719.822265625" xlink:href="#Verdana-30"/>
      <use x="783.396484375" xlink:href="#Verdana-2e"/>
      <use x="819.7734375" xlink:href="#Verdana-30"/>
      <use x="883.34765625" xlink:href="#Verdana-30"/>
      <use x="946.921875" xlink:href="#Verdana-31"/>
      <use x="1010.49609375" xlink:href="#Verdana-30"/>
      <use x="1074.0703125" xlink:href="#Verdana-30"/>
      <use x="1137.64453125" xlink:href="#Verdana-30"/>
      <use x="1201.21875" xlink:href="#Verdana-30"/>
     </g>
    </g>
   </g>
   <g id="patch_3">
    <path d="
M72 388.8
L518.4 388.8" style="fill:none;stroke:#000000;"/>
   </g>
   <g id="patch_4">
    <path d="
M518.4 388.8
L518.4 43.2" style="fill:none;stroke:#000000;"/>
   </g>
   <g id="patch_5">
    <path d="
M72 388.8
L72 43.2" style="fill:none;stroke:#000000;"/>
   </g>
   <g id="patch_6">
    <path d="
M72 43.2
L518.4 43.2" style="fill:none;stroke:#000000;"/>
   </g>
   <g id="text_15">
    <!-- UrsemWaves Data Profile T-0.0010000 -->
    <defs>
     <path d="
M64.5 29.2031
Q64.5 21.2969 62.7656 15.4062
Q61.0312 9.51562 57.0781 5.60938
Q53.3281 1.90625 48.2969 0.1875
Q43.2656 -1.51562 36.5781 -1.51562
Q29.7344 -1.51562 24.6562 0.28125
Q19.5781 2.09375 16.1094 5.60938
Q12.1562 9.625 10.4219 15.2812
Q8.6875 20.9531 8.6875 29.2031
L8.6875 72.7031
L18.3594 72.7031
L18.3594 28.7188
Q18.3594 22.7969 19.1562 19.375
Q19.9688 15.9688 21.875 13.1875
Q24.0312 10.0156 27.7031 8.39062
Q31.3906 6.78125 36.5781 6.78125
Q41.7969 6.78125 45.4531 8.375
Q49.125 9.96875 51.3125 13.1875
Q53.2188 15.9688 54.0156 19.5469
Q54.8281 23.1406 54.8281 28.4688
L54.8281 72.7031
L64.5 72.7031
z
" id="Verdana-55"/>
     <path d="
M94.3906 72.7031
L75.4844 0
L64.5938 0
L49.3125 60.3594
L34.375 0
L23.7344 0
L4.5 72.7031
L14.4062 72.7031
L29.6875 12.25
L44.7344 72.7031
L54.5469 72.7031
L69.7344 11.6719
L84.9062 72.7031
z
" id="Verdana-57"/>
     <path d="
M88.625 0
L79.4375 0
L79.4375 31.0625
Q79.4375 34.5781 79.125 37.8438
Q78.8125 41.1094 77.7812 43.0625
Q76.6562 45.1719 74.5625 46.2344
Q72.4688 47.3125 68.5 47.3125
Q64.6562 47.3125 60.7969 45.375
Q56.9375 43.4531 53.0781 40.4844
Q53.2188 39.3594 53.3125 37.8594
Q53.4219 36.375 53.4219 34.9062
L53.4219 0
L44.2344 0
L44.2344 31.0625
Q44.2344 34.6719 43.9219 37.9062
Q43.6094 41.1562 42.5781 43.1094
Q41.4531 45.2188 39.3438 46.2656
Q37.25 47.3125 33.2969 47.3125
Q29.5469 47.3125 25.75 45.4531
Q21.9688 43.6094 18.2188 40.7188
L18.2188 0
L9.03125 0
L9.03125 54.5469
L18.2188 54.5469
L18.2188 48.4844
Q22.5156 52.0469 26.7812 54.0469
Q31.0625 56.0625 35.8906 56.0625
Q41.4531 56.0625 45.3281 53.7188
Q49.2188 51.375 51.125 47.2188
Q56.6875 51.9062 61.2812 53.9844
Q65.875 56.0625 71.0938 56.0625
Q80.0781 56.0625 84.3438 50.6094
Q88.625 45.1719 88.625 35.4062
z
" id="Verdana-6d"/>
    </defs>
    <g transform="translate(155.41425 38.2)scale(0.144 -0.144)">
     <use xlink:href="#Verdana-55"/>
     <use x="73.193359375" xlink:href="#Verdana-72"/>
     <use x="115.869140625" xlink:href="#Verdana-73"/>
     <use x="167.96875" xlink:href="#Verdana-65"/>
     <use x="227.5390625" xlink:href="#Verdana-6d"/>
     <use x="324.8046875" xlink:href="#Verdana-57"/>
     <use x="418.806640625" xlink:href="#Verdana-61"/>
     <use x="478.115234375" xlink:href="#Verdana-76"/>
     <use x="536.419921875" xlink:href="#Verdana-65"/>
     <use x="595.990234375" xlink:href="#Verdana-73"/>
     <use x="648.08984375" xlink:href="#Verdana-20"/>
     <use x="683.24609375" xlink:href="#Verdana-44"/>
     <use x="760.296875" xlink:href="#Verdana-61"/>
     <use x="820.35546875" xlink:href="#Verdana-74"/>
     <use x="859.759765625" xlink:href="#Verdana-61"/>
     <use x="919.818359375" xlink:href="#Verdana-20"/>
     <use x="954.974609375" xlink:href="#Verdana-50"/>
     <use x="1015.27734375" xlink:href="#Verdana-72"/>
     <use x="1057.953125" xlink:href="#Verdana-6f"/>
     <use x="1118.646484375" xlink:href="#Verdana-66"/>
     <use x="1153.802734375" xlink:href="#Verdana-69"/>
     <use x="1181.244140625" xlink:href="#Verdana-6c"/>
     <use x="1208.685546875" xlink:href="#Verdana-65"/>
     <use x="1268.255859375" xlink:href="#Verdana-20"/>
     <use x="1303.412109375" xlink:href="#Verdana-54"/>
     <use x="1357.658203125" xlink:href="#Verdana-2d"/>
     <use x="1403.068359375" xlink:href="#Verdana-30"/>
     <use x="1466.642578125" xlink:href="#Verdana-2e"/>
     <use x="1503.01953125" xlink:href="#Verdana-30"/>
     <use x="1566.59375" xlink:href="#Verdana-30"/>
     <use x="1630.16796875" xlink:href="#Verdana-31"/>
     <use x="1693.7421875" xlink:href="#Verdana-30"/>
     <use x="1757.31640625" xlink:href="#Verdana-30"/>
     <use x="1820.890625" xlink:href="#Verdana-30"/>
     <use x="1884.46484375" xlink:href="#Verdana-30"/>
    </g>
   </g>
   <g id="legend_1">
    <g id="patch_7">
     <path d="
M407.18 381.6
L511.2 381.6
L511.2 272.081
L407.18 272.081
L407.18 381.6
z
" style="fill:#ffffff;stroke:#000000;"/>
    </g>
    <g id="line2d_30">
     <path d="
M417.26 283.743
L437.42 283.743" style="fill:none;stroke:#0000ff;stroke-dasharray:6.000000,2.000000;stroke-dashoffset:0.0;"/>
    </g>
    <g id="line2d_31"/>
    <g id="text_16">
     <!-- AMPGO -->
     <defs>
      <path d="
M67.0938 0
L56.7812 0
L49.6562 20.2656
L18.2188 20.2656
L11.0781 0
L1.26562 0
L27.7344 72.7031
L40.625 72.7031
z

M46.6875 28.5625
L33.9375 64.2656
L21.1406 28.5625
z
" id="Verdana-41"/>
      <path d="
M74.5156 0
L64.8438 0
L64.8438 62.6406
L44.625 20.0156
L38.875 20.0156
L18.7969 62.6406
L18.7969 0
L9.76562 0
L9.76562 72.7031
L22.9531 72.7031
L42.3281 32.2344
L61.0781 72.7031
L74.5156 72.7031
z
" id="Verdana-4d"/>
      <path d="
M70.4062 5.375
Q64.4531 2.64062 57.3906 0.609375
Q50.3438 -1.42188 43.75 -1.42188
Q35.25 -1.42188 28.1719 0.921875
Q21.0938 3.26562 16.1094 7.95312
Q11.0781 12.7031 8.34375 19.7969
Q5.60938 26.9062 5.60938 36.4219
Q5.60938 53.8594 15.7969 63.9375
Q25.9844 74.0312 43.75 74.0312
Q49.9531 74.0312 56.4219 72.5312
Q62.8906 71.0469 70.3594 67.4844
L70.3594 56
L69.4844 56
Q67.9688 57.1719 65.0781 59.0781
Q62.2031 60.9844 59.4219 62.25
Q56.0625 63.7656 51.7812 64.7656
Q47.5156 65.7656 42.0938 65.7656
Q29.8906 65.7656 22.7812 57.9219
Q15.6719 50.0938 15.6719 36.7188
Q15.6719 22.6094 23.0938 14.7656
Q30.5156 6.9375 43.3125 6.9375
Q48 6.9375 52.6562 7.85938
Q57.3281 8.79688 60.8438 10.25
L60.8438 28.0781
L41.3594 28.0781
L41.3594 36.5781
L70.4062 36.5781
z
" id="Verdana-47"/>
     </defs>
     <g transform="translate(453.26025 288.783)scale(0.144 -0.144)">
      <use xlink:href="#Verdana-41"/>
      <use x="68.359375" xlink:href="#Verdana-4d"/>
      <use x="152.63671875" xlink:href="#Verdana-50"/>
      <use x="212.939453125" xlink:href="#Verdana-47"/>
      <use x="290.478515625" xlink:href="#Verdana-4f"/>
     </g>
    </g>
    <g id="line2d_32">
     <path d="
M417.26 304.783
L437.42 304.783" style="fill:none;stroke:#008000;stroke-dasharray:1.000000,1.000000;stroke-dashoffset:0.0;"/>
    </g>
    <g id="line2d_33"/>
    <g id="text_17">
     <!-- Anneal -->
     <g transform="translate(453.26025 309.82275)scale(0.144 -0.144)">
      <use xlink:href="#Verdana-41"/>
      <use x="68.359375" xlink:href="#Verdana-6e"/>
      <use x="131.640625" xlink:href="#Verdana-6e"/>
      <use x="194.921875" xlink:href="#Verdana-65"/>
      <use x="254.4921875" xlink:href="#Verdana-61"/>
      <use x="314.55078125" xlink:href="#Verdana-6c"/>
     </g>
    </g>
    <g id="line2d_34">
     <path d="
M417.26 325.822
L437.42 325.822" style="fill:none;stroke:#ff0000;stroke-dasharray:3.000000,6.000000;stroke-dashoffset:0.0;"/>
    </g>
    <g id="line2d_35"/>
    <g id="text_18">
     <!-- BSA -->
     <defs>
      <path d="
M64.5938 22.3594
Q64.5938 16.9375 62.5469 12.7812
Q60.5 8.64062 57.0312 5.95312
Q52.9375 2.73438 48.0156 1.35938
Q43.1094 0 35.5469 0
L9.76562 0
L9.76562 72.7031
L31.2969 72.7031
Q39.2656 72.7031 43.2188 72.1094
Q47.1719 71.5312 50.7812 69.6719
Q54.7812 67.5781 56.5938 64.2812
Q58.4062 60.9844 58.4062 56.3906
Q58.4062 51.2188 55.7656 47.5781
Q53.125 43.9531 48.7344 41.75
L48.7344 41.3594
Q56.1094 39.8438 60.3438 34.8906
Q64.5938 29.9375 64.5938 22.3594
M48.3438 55.125
Q48.3438 57.7656 47.4531 59.5625
Q46.5781 61.375 44.625 62.5
Q42.3281 63.8125 39.0625 64.125
Q35.7969 64.4531 30.9531 64.4531
L19.4375 64.4531
L19.4375 43.4531
L31.9375 43.4531
Q36.4688 43.4531 39.1562 43.9219
Q41.8438 44.3906 44.1406 45.8438
Q46.4375 47.3125 47.3906 49.625
Q48.3438 51.9531 48.3438 55.125
M54.5469 21.9688
Q54.5469 26.375 53.2188 28.9531
Q51.9062 31.5469 48.4375 33.3438
Q46.0938 34.5781 42.75 34.9375
Q39.4062 35.2969 34.625 35.2969
L19.4375 35.2969
L19.4375 8.25
L32.2344 8.25
Q38.5781 8.25 42.625 8.90625
Q46.6875 9.57812 49.2656 11.3281
Q52 13.2344 53.2656 15.6719
Q54.5469 18.1094 54.5469 21.9688" id="Verdana-42"/>
      <path d="
M62.5938 20.75
Q62.5938 16.5 60.6094 12.3438
Q58.6406 8.20312 55.0781 5.32812
Q51.1719 2.20312 45.9688 0.4375
Q40.7656 -1.3125 33.4531 -1.3125
Q25.5938 -1.3125 19.3125 0.140625
Q13.0312 1.60938 6.54688 4.5
L6.54688 16.6094
L7.23438 16.6094
Q12.75 12.0156 19.9688 9.51562
Q27.2031 7.03125 33.5469 7.03125
Q42.5312 7.03125 47.5312 10.3906
Q52.5469 13.7656 52.5469 19.3906
Q52.5469 24.2188 50.1719 26.5156
Q47.7969 28.8125 42.9688 30.0781
Q39.3125 31.0625 35.0312 31.6875
Q30.7656 32.3281 25.9844 33.2969
Q16.3125 35.3594 11.6406 40.3125
Q6.98438 45.2656 6.98438 53.2188
Q6.98438 62.3594 14.6875 68.1875
Q22.4062 74.0312 34.2812 74.0312
Q41.9375 74.0312 48.3281 72.5625
Q54.7344 71.0938 59.6719 68.9531
L59.6719 57.5156
L58.9844 57.5156
Q54.8281 61.0312 48.0625 63.3438
Q41.3125 65.6719 34.2344 65.6719
Q26.4688 65.6719 21.75 62.4531
Q17.0469 59.2344 17.0469 54.1562
Q17.0469 49.6094 19.3906 47.0156
Q21.7344 44.4375 27.6406 43.0625
Q30.7656 42.3906 36.5156 41.4062
Q42.2812 40.4375 46.2969 39.4062
Q54.3906 37.25 58.4844 32.9062
Q62.5938 28.5625 62.5938 20.75" id="Verdana-53"/>
     </defs>
     <g transform="translate(453.26025 330.8625)scale(0.144 -0.144)">
      <use xlink:href="#Verdana-42"/>
      <use x="68.5546875" xlink:href="#Verdana-53"/>
      <use x="135.9140625" xlink:href="#Verdana-41"/>
     </g>
    </g>
    <g id="line2d_36">
     <path d="
M417.26 346.862
L437.42 346.862" style="fill:none;stroke:#00bfbf;stroke-dasharray:5.000000,1.000000,2.000000,1.000000,5.000000,1.000000;stroke-dashoffset:0.0;"/>
    </g>
    <g id="line2d_37"/>
    <g id="text_19">
     <!-- Cuckoo -->
     <defs>
      <path d="
M58.5469 0
L46.4375 0
L24.5625 23.875
L18.6094 18.2188
L18.6094 0
L9.42188 0
L9.42188 75.9844
L18.6094 75.9844
L18.6094 27.25
L45.125 54.5469
L56.6875 54.5469
L31.3438 29.3438
z
" id="Verdana-6b"/>
      <path d="
M65.9219 5.28125
Q63.2344 4.10938 61.0625 3.07812
Q58.8906 2.04688 55.375 0.921875
Q52.3906 0 48.8906 -0.65625
Q45.4062 -1.3125 41.2188 -1.3125
Q33.2969 -1.3125 26.8281 0.90625
Q20.3594 3.125 15.5781 7.85938
Q10.8906 12.5 8.25 19.6562
Q5.60938 26.8125 5.60938 36.2812
Q5.60938 45.2656 8.14062 52.3438
Q10.6875 59.4219 15.4844 64.3125
Q20.125 69.0469 26.6875 71.5312
Q33.25 74.0312 41.2656 74.0312
Q47.125 74.0312 52.9531 72.6094
Q58.7969 71.1875 65.9219 67.625
L65.9219 56.1562
L65.1875 56.1562
Q59.1875 61.1875 53.2656 63.4688
Q47.3594 65.7656 40.625 65.7656
Q35.1094 65.7656 30.6875 63.9844
Q26.2656 62.2031 22.7969 58.4531
Q19.4375 54.7812 17.5469 49.1875
Q15.6719 43.6094 15.6719 36.2812
Q15.6719 28.6094 17.75 23.0938
Q19.8281 17.5781 23.0938 14.1094
Q26.5156 10.5 31.0781 8.76562
Q35.6406 7.03125 40.7188 7.03125
Q47.7031 7.03125 53.7969 9.42188
Q59.9062 11.8125 65.2344 16.6094
L65.9219 16.6094
z
" id="Verdana-43"/>
     </defs>
     <g transform="translate(453.26025 351.90225)scale(0.144 -0.144)">
      <use xlink:href="#Verdana-43"/>
      <use x="69.82421875" xlink:href="#Verdana-75"/>
      <use x="133.10546875" xlink:href="#Verdana-63"/>
      <use x="185.205078125" xlink:href="#Verdana-6b"/>
      <use x="243.384765625" xlink:href="#Verdana-6f"/>
      <use x="304.078125" xlink:href="#Verdana-6f"/>
     </g>
    </g>
    <g id="line2d_38">
     <path d="
M417.26 367.902
L437.42 367.902" style="fill:none;stroke:#bf00bf;stroke-linecap:square;"/>
    </g>
    <g id="line2d_39"/>
    <g id="text_20">
     <!-- qABC -->
     <defs>
      <path d="
M53.2656 -20.125
L44.0938 -20.125
L44.0938 6.15625
Q39.8438 2.48438 35.6406 0.703125
Q31.4531 -1.07812 26.5625 -1.07812
Q16.8438 -1.07812 11.0625 6.42188
Q5.28125 13.9219 5.28125 27.0938
Q5.28125 34.125 7.29688 39.5156
Q9.32812 44.9219 12.6406 48.5781
Q15.875 52.1562 20.2188 54.1094
Q24.5625 56.0625 29.3906 56.0625
Q33.7969 56.0625 37.1875 55.0781
Q40.5781 54.1094 44.0938 52.2031
L44.6719 54.5469
L53.2656 54.5469
z

M44.0938 13.875
L44.0938 44.7344
Q40.2812 46.4375 37.3438 47.1094
Q34.4219 47.7969 31 47.7969
Q23.0469 47.7969 18.8906 42.4062
Q14.75 37.0156 14.75 27.5469
Q14.75 17.9688 18.0938 12.8125
Q21.4375 7.67188 28.6094 7.67188
Q32.625 7.67188 36.625 9.40625
Q40.625 11.1406 44.0938 13.875" id="Verdana-71"/>
     </defs>
     <g transform="translate(453.26025 372.942)scale(0.144 -0.144)">
      <use xlink:href="#Verdana-71"/>
      <use x="62.3046875" xlink:href="#Verdana-41"/>
      <use x="130.6640625" xlink:href="#Verdana-42"/>
      <use x="199.21875" xlink:href="#Verdana-43"/>
     </g>
    </g>
   </g>
  </g>
 </g>
 <defs>
  <clipPath id="p7ff5b81e1d">
   <rect height="345.6" width="446.4" x="72.0" y="43.2"/>
  </clipPath>
 </defs>
</svg>
