<?xml version="1.0" encoding="utf-8" standalone="no"?>
<!DOCTYPE svg PUBLIC "-//W3C//DTD SVG 1.1//EN"
  "http://www.w3.org/Graphics/SVG/1.1/DTD/svg11.dtd">
<!-- Created with matplotlib (http://matplotlib.org/) -->
<svg height="432pt" version="1.1" viewBox="0 0 576 432" width="576pt" xmlns="http://www.w3.org/2000/svg" xmlns:xlink="http://www.w3.org/1999/xlink">
 <defs>
  <style type="text/css">
*{stroke-linecap:butt;stroke-linejoin:round;}
  </style>
 </defs>
 <g id="figure_1">
  <g id="patch_1">
   <path d="
M0 432
L576 432
L576 0
L0 0
z
" style="fill:#ffffff;"/>
  </g>
  <g id="axes_1">
   <g id="patch_2">
    <path d="
M72 388.8
L518.4 388.8
L518.4 43.2
L72 43.2
z
" style="fill:#ffffff;"/>
   </g>
   <g id="line2d_1">
    <path clip-path="url(#p7ff5b81e1d)" d="
M72 52.9842
L76.464 52.9842
L76.6426 102.132
L80.928 102.132
L81.1066 113.925
L85.392 113.925
L85.5706 127.242
L89.856 127.242
L90.0346 139.117
L94.32 139.117
L94.4986 144.479
L98.784 144.479
L98.9626 150.36
L103.248 150.36
L103.427 161.86
L107.712 161.86
L107.891 169.225
L112.176 169.225
L112.355 172.898
L116.64 172.898
L116.819 173.891
L121.104 173.891
L121.283 174.953
L125.568 174.953
L125.747 176.319
L130.032 176.319
L130.211 176.537
L134.496 176.537
L134.675 176.682
L143.424 176.747
L143.603 176.853
L161.28 176.954
L161.905 176.972
L388.944 177.08
L389.212 177.126
L393.408 177.126
L393.587 177.242
L402.336 177.287
L402.515 177.38
L415.728 177.447
L415.996 177.504
L429.12 177.548
L429.299 177.671
L518.311 177.712
L518.311 177.712" style="fill:none;stroke:#0000ff;stroke-dasharray:6.000000,2.000000;stroke-dashoffset:0.0;"/>
   </g>
   <g id="line2d_2">
    <path clip-path="url(#p7ff5b81e1d)" d="
M72 52.8431
L72.0893 57.2418
L72.1786 57.3158
L72.2678 57.3833
L72.3571 57.9014
L72.5357 63.3033
L72.7142 63.3033
L72.8928 68.9337
L72.9821 68.9877
L73.1606 74.134
L73.2499 74.7438
L73.4285 76.9581
L73.6963 76.9581
L74.0534 84.3114
L74.232 84.5248
L74.4106 87.9692
L74.6784 87.9692
L74.857 88.1213
L75.0355 90.7183
L75.3926 90.7276
L75.7498 96.1622
L75.9283 96.3146
L76.3747 96.3732
L76.5533 99.5001
L76.7318 100.269
L76.9104 100.426
L76.9997 100.497
L77.1782 104.403
L77.5354 109.537
L77.6246 109.537
L77.8032 109.793
L77.8925 109.793
L78.071 111.956
L78.3389 111.956
L78.5174 113.862
L78.6067 113.862
L78.7853 114.402
L78.9638 114.402
L79.1424 114.555
L79.321 114.555
L79.4995 114.756
L79.6781 118.496
L80.5709 118.543
L80.7494 118.697
L81.1066 120.529
L81.3744 120.57
L81.553 122.002
L81.8208 122.002
L81.9994 122.228
L82.0886 122.228
L82.3565 124.003
L82.8029 124.003
L82.9814 124.751
L83.4278 124.751
L83.5171 124.965
L83.6957 129.284
L84.4992 129.332
L84.6778 129.721
L84.9456 135.329
L85.392 135.329
L85.5706 135.533
L86.017 135.551
L86.2848 136.733
L86.7312 136.733
L86.9098 136.881
L87.3562 136.881
L87.5347 137.889
L87.7133 137.889
L87.8918 138.992
L87.9811 138.992
L88.1597 139.569
L88.249 139.569
L88.4275 143.01
L88.7846 143.01
L89.3203 144.429
L90.3024 144.431
L90.481 144.61
L90.6595 144.61
L90.8381 146.483
L91.0166 146.703
L91.463 146.703
L91.6416 146.887
L91.7309 146.887
L91.9094 149.535
L93.2486 149.535
L93.4272 150.144
L93.7843 150.144
L93.9629 151.121
L94.5878 151.122
L94.7664 152.073
L95.4806 152.073
L95.6592 152.28
L96.552 152.28
L96.7306 152.504
L99.409 152.504
L99.5875 153.289
L99.6768 153.289
L99.8554 154.954
L100.837 155.056
L101.016 157.472
L101.462 157.472
L101.641 159.469
L102.087 159.494
L102.355 159.494
L102.534 159.773
L103.069 159.773
L103.248 164.108
L103.516 164.108
L103.694 166.024
L104.23 166.024
L104.409 166.478
L104.766 166.478
L104.944 169.248
L105.569 169.248
L105.748 169.468
L106.105 169.468
L106.284 172.156
L107.444 172.238
L107.623 173.361
L108.426 173.361
L108.605 173.635
L109.051 173.635
L109.23 177.308
L109.676 177.308
L109.855 179.942
L110.033 180.702
L110.301 180.702
L110.48 182.591
L110.926 182.591
L111.105 182.824
L112.087 182.914
L112.265 183.81
L114.944 183.898
L115.122 188.292
L115.301 189.247
L115.39 189.247
L115.569 191.415
L116.104 191.415
L116.551 196.977
L117.265 196.991
L117.444 198.361
L117.622 198.361
L117.801 200.705
L117.979 201.376
L118.783 201.376
L118.961 201.928
L120.658 201.928
L120.836 202.266
L121.104 202.266
L121.283 205.965
L121.818 205.965
L121.997 206.218
L122.265 206.218
L122.443 206.724
L122.532 206.724
L122.711 208.933
L122.979 208.933
L123.157 211.559
L124.586 211.662
L124.854 211.712
L125.032 211.712
L125.211 214.353
L125.3 214.353
L125.479 214.469
L126.104 214.469
L126.282 218.422
L126.55 218.422
L126.729 220.061
L126.996 220.061
L127.175 220.181
L128.157 220.181
L128.336 220.343
L128.514 220.343
L128.693 220.474
L129.139 220.474
L129.318 220.934
L129.675 220.934
L129.853 222.828
L130.389 222.828
L130.568 223.269
L130.657 223.269
L130.836 225.216
L131.907 225.298
L132.085 226.936
L132.353 226.936
L132.532 229.221
L133.425 229.221
L133.514 229.343
L133.692 230.771
L133.871 230.771
L134.05 231.927
L134.407 231.927
L134.585 232.67
L135.3 232.702
L135.478 233.381
L135.835 233.381
L136.014 234.107
L136.282 234.173
L136.46 235.135
L137.532 235.135
L137.71 236.24
L138.067 236.24
L138.246 237.549
L139.228 237.549
L139.406 239.544
L139.585 239.544
L139.764 240.724
L140.924 240.724
L141.103 241.835
L143.067 241.835
L143.245 242.649
L144.406 242.667
L144.585 245.282
L146.46 245.376
L146.638 246.404
L146.727 246.404
L146.906 247.047
L147.084 251.032
L149.138 251.116
L149.316 251.232
L150.031 251.232
L150.209 251.949
L152.084 251.949
L152.263 252.103
L154.495 252.103
L154.763 254.186
L155.834 254.186
L156.102 255.83
L156.459 255.83
L156.637 256.007
L157.709 256.007
L157.887 256.132
L158.78 256.18
L158.959 260.156
L160.209 260.21
L160.298 260.951
L160.476 262.95
L161.905 262.95
L162.084 263.127
L163.958 263.161
L164.137 263.7
L164.494 263.7
L164.673 266.739
L165.565 266.739
L165.744 267.083
L165.923 267.083
L166.101 267.323
L166.369 267.323
L166.548 271.968
L166.815 271.968
L166.994 272.772
L167.797 272.772
L167.976 273.88
L168.065 273.88
L168.244 274.683
L168.69 274.683
L168.869 275.439
L169.762 275.439
L170.029 275.837
L170.833 275.837
L171.012 276.284
L174.851 276.313
L175.029 276.902
L176.011 276.902
L176.19 277.182
L177.083 277.288
L177.261 279.766
L177.529 279.812
L181.1 279.916
L181.279 280.451
L181.457 280.451
L181.636 280.626
L183.6 280.637
L183.779 283.698
L186.457 283.698
L186.636 284.717
L186.993 284.717
L187.171 285.569
L188.064 285.644
L188.243 288.251
L188.778 288.251
L188.957 289.995
L189.85 289.995
L190.028 291.709
L190.653 291.709
L190.832 292.839
L192.439 292.874
L192.617 293.589
L192.885 293.589
L193.064 295.123
L194.581 295.218
L194.76 295.71
L196.278 295.71
L196.456 296.469
L197.26 296.469
L197.438 298.176
L197.885 298.176
L198.063 301.05
L198.956 301.05
L199.135 302.113
L200.742 302.113
L200.92 302.92
L202.974 302.92
L203.152 303.512
L204.67 303.546
L204.849 303.998
L206.009 303.998
L206.188 305.568
L208.598 305.568
L208.777 306.205
L210.384 306.205
L210.563 306.809
L210.92 306.809
L211.098 308.105
L211.723 308.105
L211.902 308.869
L213.687 308.869
L213.866 309.124
L214.491 309.124
L214.669 310.662
L215.205 310.662
L215.384 310.973
L216.366 310.973
L216.544 311.576
L217.705 311.576
L217.884 311.788
L218.866 311.788
L219.044 312.042
L219.491 312.042
L219.669 312.905
L219.937 312.905
L220.116 313.808
L224.133 313.852
L224.312 313.929
L225.651 313.929
L225.829 315.35
L226.454 315.35
L226.633 317.545
L229.222 317.586
L229.401 320.071
L234.936 320.158
L235.115 321.251
L236.097 321.251
L236.275 321.968
L243.418 322.002
L243.596 322.392
L245.203 322.392
L245.382 322.562
L249.399 322.562
L249.578 322.821
L251.899 322.821
L252.078 323.296
L253.328 323.318
L253.506 324.184
L253.596 324.184
L253.774 326.589
L254.042 326.589
L254.22 327.438
L256.363 327.438
L256.542 327.606
L256.81 327.606
L256.988 328.613
L258.417 328.613
L258.595 328.888
L258.863 328.888
L259.042 329.868
L260.292 329.868
L260.47 330.012
L262.613 330.012
L262.791 330.353
L264.041 330.353
L264.22 330.642
L265.648 330.642
L265.827 332.561
L267.434 332.6
L267.612 332.748
L270.648 332.847
L270.827 333.22
L271.809 333.22
L271.987 334.252
L273.416 334.252
L273.594 335.131
L278.862 335.156
L279.04 335.91
L280.29 335.91
L280.469 336.045
L281.897 336.045
L282.076 336.302
L282.79 336.302
L282.969 337.661
L285.29 337.661
L285.468 338.863
L286.183 338.863
L286.361 338.977
L291.986 339.012
L292.164 339.273
L292.432 339.273
L292.611 339.559
L293.057 339.559
L293.236 339.847
L294.218 339.847
L294.396 340.075
L299.307 340.102
L299.485 340.21
L300.914 340.236
L301.092 341.406
L304.932 341.471
L305.11 341.936
L312.967 342.024
L313.145 342.892
L320.645 343.003
L321.002 343.038
L321.091 343.038
L321.27 343.539
L323.68 343.539
L323.859 344.807
L324.93 344.807
L325.109 344.944
L325.823 344.944
L326.002 348.784
L326.716 348.784
L326.894 349.817
L328.055 349.817
L328.234 350.4
L332.073 350.408
L332.251 351.591
L336.715 351.599
L336.894 353.789
L339.394 353.789
L339.572 354.076
L340.019 354.076
L340.197 354.844
L345.286 354.939
L345.554 355.008
L346.893 355.008
L347.072 355.736
L349.125 355.736
L349.304 355.898
L349.75 355.927
L349.839 355.927
L350.018 356.049
L353.411 356.102
L353.589 356.372
L360.732 356.374
L360.91 356.97
L361.803 356.97
L361.981 357.535
L365.374 357.576
L365.553 358.056
L371.802 358.083
L371.981 358.556
L376.98 358.657
L377.159 358.986
L378.052 359.029
L378.23 359.313
L387.516 359.409
L387.783 359.454
L394.212 359.519
L394.39 361.305
L394.926 361.305
L395.104 361.831
L400.818 361.911
L400.997 362.108
L401.979 362.111
L402.157 362.447
L408.139 362.46
L408.318 363.063
L414.121 363.063
L414.3 363.186
L426.977 363.264
L427.245 363.311
L427.424 363.89
L437.602 363.912
L437.78 364.374
L449.833 364.445
L450.012 365.594
L470.635 365.696
L471.082 365.72
L478.224 365.731
L478.581 367.299
L483.313 367.3
L483.492 368.421
L490.812 368.428
L490.991 368.97
L491.973 368.97
L492.152 369.325
L505.097 369.34
L505.276 369.814
L514.561 369.819
L514.74 370.006
L515.454 370.006
L515.632 370.645
L518.311 370.645
L518.311 370.645" style="fill:none;stroke:#008000;stroke-dasharray:1.000000,1.000000;stroke-dashoffset:0.0;"/>
   </g>
   <g id="line2d_3">
    <path clip-path="url(#p7ff5b81e1d)" d="
M72 60.1366
L72.0893 77.6052
L72.1786 84.4099
L72.5357 96.0227
L72.625 96.0227
L72.8035 100.501
L72.9821 101.01
L73.1606 104.409
L73.4285 104.409
L73.607 107.609
L75.6605 107.609
L75.839 110.692
L77.2675 110.692
L77.5354 112.649
L79.0531 112.649
L79.2317 113.569
L79.321 113.569
L79.4995 116.139
L79.7674 116.139
L79.9459 117.873
L80.8387 117.891
L81.0173 118.049
L82.8029 118.049
L82.9814 121.84
L84.4099 121.84
L84.5885 124.208
L87.624 124.208
L87.8026 126.319
L89.3203 126.319
L89.4989 127.244
L89.856 127.244
L90.0346 127.381
L91.1952 127.381
L91.3738 127.758
L93.5165 127.758
L93.695 128.534
L93.8736 128.534
L94.0522 129.917
L98.6947 129.917
L98.8733 131.359
L100.659 131.359
L100.837 132.279
L101.284 132.279
L101.462 132.614
L103.427 132.614
L103.605 133.795
L103.962 133.795
L104.141 133.958
L111.372 133.958
L111.551 134.245
L111.73 134.245
L111.908 135.165
L113.515 135.165
L113.694 135.971
L114.408 135.971
L114.587 136.617
L114.676 136.617
L114.854 136.995
L116.372 136.995
L116.551 138.405
L119.051 138.405
L119.318 140.612
L120.836 140.612
L121.015 140.907
L122.175 140.907
L122.354 142.081
L134.407 142.145
L134.585 142.452
L136.371 142.452
L136.549 145.745
L139.942 145.745
L140.121 146.437
L143.245 146.437
L143.603 147.961
L153.78 148.056
L153.959 149.053
L159.762 149.053
L159.941 149.456
L162.976 149.456
L163.155 150.044
L166.637 150.044
L166.815 151.789
L170.297 151.789
L170.476 152.156
L170.654 152.315
L173.958 152.315
L174.136 152.884
L183.779 152.884
L183.957 154.407
L187.528 154.407
L187.707 155.043
L187.885 155.448
L188.064 155.735
L188.332 155.735
L188.51 156.63
L196.456 156.63
L196.635 158.049
L197.885 158.049
L198.063 158.548
L199.313 158.548
L199.492 158.992
L201.992 158.992
L202.17 160.198
L208.063 160.198
L208.241 161.121
L211.991 161.123
L212.17 162.081
L214.937 162.081
L215.116 162.957
L221.901 163.028
L222.08 164.259
L226.901 164.263
L227.079 164.544
L230.293 164.544
L230.472 165.013
L232.347 165.013
L232.525 165.591
L245.917 165.591
L246.096 166.251
L246.364 166.251
L246.542 167.528
L252.524 167.528
L252.703 168.459
L256.095 168.459
L256.274 169
L270.291 169
L270.469 169.209
L271.184 169.209
L271.541 171.824
L274.933 171.824
L275.112 172.677
L275.826 172.677
L276.005 172.844
L279.219 172.844
L279.397 173.277
L288.325 173.367
L288.504 173.486
L289.218 173.486
L289.397 174.039
L289.932 174.039
L290.111 174.493
L295.289 174.493
L295.468 175.487
L311.36 175.487
L311.538 177.493
L334.572 177.493
L334.751 178.392
L360.464 178.392
L360.642 179.333
L361.624 179.333
L361.803 183.193
L377.873 183.193
L378.052 184.97
L378.766 184.97
L378.945 185.556
L393.854 185.556
L394.033 187.086
L404.568 187.086
L404.747 188.446
L416.799 188.446
L416.978 188.591
L436.441 188.591
L436.62 192.357
L441.798 192.357
L441.976 194.027
L443.94 194.027
L444.119 194.877
L452.868 194.877
L453.047 195.793
L461.439 195.793
L461.618 196.571
L477.331 196.571
L477.51 196.892
L479.117 196.892
L479.295 197.086
L491.616 197.086
L491.795 197.368
L501.705 197.368
L501.883 199.682
L515.007 199.713
L515.186 199.996
L518.311 199.996
L518.311 199.996" style="fill:none;stroke:#ff0000;stroke-dasharray:3.000000,6.000000;stroke-dashoffset:0.0;"/>
   </g>
   <g id="line2d_4">
    <path clip-path="url(#p7ff5b81e1d)" d="
M72 49.2695
L72.0893 66.1552
L72.2678 80.8969
L72.4464 90.5983
L72.625 99.909
L72.8035 99.909
L73.0714 103.993
L73.3392 103.993
L73.5178 105.133
L74.232 105.133
L74.4106 107.326
L74.4998 107.326
L74.6784 111.518
L75.1248 111.518
L75.3034 111.946
L75.6605 111.946
L75.839 112.349
L77.8032 112.349
L77.9818 115.342
L78.2496 115.342
L78.4282 119.455
L80.303 119.455
L80.4816 121.592
L81.0173 121.592
L81.1958 122.566
L82.4458 122.566
L82.6243 124.526
L82.8029 125.39
L82.9814 125.39
L83.16 125.939
L84.4099 125.939
L84.5885 127.099
L86.1062 127.099
L86.2848 127.283
L87.2669 127.283
L87.4454 128.975
L94.945 129.012
L95.1235 131.397
L95.3021 132.282
L98.159 132.282
L98.3376 133.487
L100.837 133.487
L101.016 135.939
L103.337 135.939
L103.516 136.17
L106.016 136.264
L106.194 136.368
L106.641 136.368
L106.819 137.778
L110.301 137.864
L110.39 137.916
L110.569 138.267
L111.819 138.267
L111.997 138.684
L113.962 138.684
L114.14 139.942
L116.729 139.942
L116.908 140.434
L121.015 140.434
L121.193 140.938
L123.782 140.938
L123.961 142.131
L124.586 142.131
L124.764 144.056
L132.264 144.112
L132.443 144.489
L132.532 144.489
L132.71 145.218
L135.389 145.218
L135.567 147.054
L138.067 147.158
L138.246 147.296
L142.888 147.296
L143.067 147.965
L153.423 147.965
L153.602 150.552
L156.905 150.552
L157.084 151.042
L159.852 151.042
L160.03 151.603
L162.976 151.603
L163.155 153.041
L163.244 153.041
L163.423 153.269
L166.815 153.269
L166.994 154.412
L168.333 154.412
L168.512 155.04
L177.975 155.04
L178.154 155.734
L178.957 155.734
L179.136 155.906
L181.279 155.906
L181.457 156.311
L181.993 156.311
L182.172 156.496
L185.921 156.496
L186.1 156.818
L200.117 156.818
L200.295 159.637
L207.17 159.747
L207.348 160.359
L213.241 160.434
L213.42 161.53
L214.491 161.53
L214.669 162.597
L227.883 162.597
L228.061 163.787
L263.416 163.847
L263.595 165.69
L264.398 165.69
L264.577 165.856
L278.772 165.856
L278.951 166.242
L281.897 166.242
L282.076 166.952
L289.575 166.952
L289.754 167.383
L300.11 167.383
L300.289 169.103
L303.86 169.103
L304.039 169.425
L328.323 169.425
L328.501 169.851
L368.052 169.851
L368.231 170.512
L385.016 170.512
L385.194 172.841
L389.033 172.841
L389.212 175.734
L389.39 175.734
L389.569 176.079
L397.604 176.079
L397.783 176.695
L400.283 176.695
L400.461 177.169
L417.603 177.169
L417.781 177.744
L460.189 177.744
L460.368 178.085
L460.457 178.085
L460.636 178.399
L468.046 178.399
L468.225 180.924
L514.65 180.981
L514.829 181.638
L518.311 181.638
L518.311 181.638" style="fill:none;stroke:#00bfbf;stroke-dasharray:5.000000,1.000000,2.000000,1.000000,5.000000,1.000000;stroke-dashoffset:0.0;"/>
   </g>
   <g id="line2d_5">
    <path clip-path="url(#p7ff5b81e1d)" d="
M72 50.6872
L72.0893 71.6392
L72.1786 77.4942
L72.4464 94.7321
L72.5357 94.7321
L72.8035 101.693
L72.9821 102.089
L73.4285 102.089
L73.607 108.184
L75.4819 108.184
L75.6605 112.079
L75.839 112.079
L76.0176 113.119
L78.1603 113.228
L78.3389 115.482
L78.9638 115.482
L79.1424 116.858
L79.4995 116.858
L79.6781 117.791
L79.8566 118.292
L80.1245 118.292
L80.303 118.689
L82.8029 118.689
L82.9814 119.362
L83.2493 119.362
L83.4278 119.771
L84.3206 119.806
L84.4992 120.845
L86.6419 120.845
L86.8205 122.206
L86.999 122.989
L89.6774 122.989
L89.856 123.169
L90.3024 123.169
L90.481 123.425
L93.9629 123.425
L94.32 123.952
L101.998 123.952
L102.177 124.892
L114.944 124.892
L115.122 125.019
L115.301 125.019
L115.479 126.298
L118.426 126.298
L118.604 126.542
L119.14 126.542
L119.318 127.45
L121.818 127.45
L121.997 128.009
L127.175 128.013
L127.354 130.328
L130.657 130.328
L130.836 135.033
L144.942 135.033
L145.12 135.162
L150.388 135.225
L150.566 137.502
L153.959 137.502
L154.138 139.97
L155.566 139.97
L155.745 140.17
L157.53 140.17
L157.709 141.498
L168.244 141.518
L168.422 144.207
L169.851 144.207
L170.029 147.472
L175.386 147.472
L175.565 147.953
L177.172 147.953
L177.35 149.29
L178.957 149.29
L179.136 149.6
L200.385 149.662
L200.563 151.372
L205.295 151.372
L205.474 152.014
L211.098 152.014
L211.277 152.725
L214.669 152.762
L214.848 155.139
L220.026 155.139
L220.205 156.461
L239.668 156.465
L239.846 156.891
L248.507 156.891
L248.685 157.356
L250.381 157.356
L250.56 159.13
L264.666 159.13
L264.845 161.676
L269.934 161.676
L270.112 161.883
L280.558 161.883
L280.737 164.28
L284.04 164.28
L284.219 164.594
L287.7 164.594
L287.879 168.563
L289.665 168.563
L289.843 169.055
L290.022 169.055
L290.2 169.925
L293.861 169.925
L294.039 171.868
L296.896 171.868
L297.075 172.174
L300.646 172.174
L300.825 172.289
L319.841 172.32
L320.02 172.705
L322.073 172.705
L322.252 172.862
L334.215 172.871
L334.394 175.954
L336.09 175.954
L336.269 176.767
L340.286 176.767
L340.465 178.142
L346.804 178.146
L346.982 178.471
L347.429 178.471
L347.607 179.916
L348.322 179.916
L348.5 180.454
L351.179 180.495
L351.357 180.674
L357.517 180.674
L357.607 180.818
L357.785 183.243
L358.142 183.243
L358.321 190.389
L359.839 190.389
L360.017 191.377
L361.089 191.377
L361.267 194.271
L361.535 194.271
L361.714 194.651
L362.785 194.651
L362.964 194.936
L365.196 194.936
L365.374 196.816
L365.553 196.925
L366.267 196.925
L366.445 197.869
L367.338 197.869
L367.517 198.028
L368.588 198.028
L368.767 198.294
L382.873 198.321
L383.052 199.036
L385.194 199.036
L385.373 199.324
L386.533 199.324
L386.712 200.168
L386.891 200.168
L387.069 200.693
L393.676 200.694
L393.854 201.115
L394.122 201.115
L394.301 201.435
L395.908 201.435
L396.086 201.703
L401.265 201.703
L401.443 202.319
L403.05 202.319
L403.229 203.267
L406.621 203.267
L406.8 203.761
L422.96 203.761
L423.138 206.342
L447.869 206.342
L448.047 207.111
L451.351 207.111
L451.529 209.097
L455.011 209.097
L455.19 209.259
L461.975 209.259
L462.154 210.915
L486.884 210.916
L487.063 214.005
L504.74 214.027
L504.919 214.223
L506.615 214.223
L506.794 216.013
L518.311 216.013
L518.311 216.013" style="fill:none;stroke:#bf00bf;stroke-linecap:square;"/>
   </g>
   <g id="matplotlib.axis_1">
    <g id="xtick_1">
     <g id="line2d_6">
      <defs>
       <path d="
M0 0
L0 -4" id="mc7db9fdffb" style="stroke:#000000;stroke-width:0.5;"/>
      </defs>
      <g>
       <use style="stroke:#000000;stroke-width:0.5;" x="72.0" xlink:href="#mc7db9fdffb" y="388.8"/>
      </g>
     </g>
     <g id="line2d_7">
      <defs>
       <path d="
M0 0
L0 4" id="m5a7d422ac3" style="stroke:#000000;stroke-width:0.5;"/>
      </defs>
      <g>
       <use style="stroke:#000000;stroke-width:0.5;" x="72.0" xlink:href="#m5a7d422ac3" y="43.2"/>
      </g>
     </g>
     <g id="text_1">
      <!-- 0 -->
      <defs>
       <path d="
M56.9844 36.375
Q56.9844 16.7969 50.8594 7.64062
Q44.7344 -1.51562 31.8438 -1.51562
Q18.75 -1.51562 12.7188 7.76562
Q6.6875 17.0469 6.6875 36.2812
Q6.6875 55.6719 12.7812 64.9219
Q18.8906 74.1719 31.8438 74.1719
Q44.9219 74.1719 50.9531 64.7656
Q56.9844 55.375 56.9844 36.375
M44.1406 14.2031
Q45.8438 18.1719 46.4531 23.5156
Q47.0781 28.8594 47.0781 36.375
Q47.0781 43.7969 46.4531 49.2656
Q45.8438 54.7344 44.0938 58.5469
Q42.3906 62.3125 39.4219 64.2031
Q36.4688 66.1094 31.8438 66.1094
Q27.25 66.1094 24.2344 64.2031
Q21.2344 62.3125 19.4844 58.4531
Q17.8281 54.8281 17.2188 49.0156
Q16.6094 43.2188 16.6094 36.2812
Q16.6094 28.6562 17.1406 23.5312
Q17.6719 18.4062 19.4375 14.3594
Q21.0469 10.5469 24 8.54688
Q26.9531 6.54688 31.8438 6.54688
Q36.4219 6.54688 39.4531 8.45312
Q42.4844 10.3594 44.1406 14.2031" id="Verdana-30"/>
      </defs>
      <g transform="translate(68.9821875 401.918125)scale(0.12 -0.12)">
       <use xlink:href="#Verdana-30"/>
      </g>
     </g>
    </g>
    <g id="xtick_2">
     <g id="line2d_8">
      <g>
       <use style="stroke:#000000;stroke-width:0.5;" x="161.28" xlink:href="#mc7db9fdffb" y="388.8"/>
      </g>
     </g>
     <g id="line2d_9">
      <g>
       <use style="stroke:#000000;stroke-width:0.5;" x="161.28" xlink:href="#m5a7d422ac3" y="43.2"/>
      </g>
     </g>
     <g id="text_2">
      <!-- 1000 -->
      <defs>
       <path d="
M52.9375 0
L13.5781 0
L13.5781 7.42188
L28.7188 7.42188
L28.7188 56.1562
L13.5781 56.1562
L13.5781 62.7969
Q16.6562 62.7969 20.1719 63.2969
Q23.6875 63.8125 25.4844 64.7969
Q27.7344 66.0156 29.0312 67.8906
Q30.3281 69.7812 30.5156 72.9531
L38.0938 72.9531
L38.0938 7.42188
L52.9375 7.42188
z
" id="Verdana-31"/>
      </defs>
      <g transform="translate(147.2315625 401.918125)scale(0.12 -0.12)">
       <use xlink:href="#Verdana-31"/>
       <use x="63.57421875" xlink:href="#Verdana-30"/>
       <use x="127.1484375" xlink:href="#Verdana-30"/>
       <use x="190.72265625" xlink:href="#Verdana-30"/>
      </g>
     </g>
    </g>
    <g id="xtick_3">
     <g id="line2d_10">
      <g>
       <use style="stroke:#000000;stroke-width:0.5;" x="250.56" xlink:href="#mc7db9fdffb" y="388.8"/>
      </g>
     </g>
     <g id="line2d_11">
      <g>
       <use style="stroke:#000000;stroke-width:0.5;" x="250.56" xlink:href="#m5a7d422ac3" y="43.2"/>
      </g>
     </g>
     <g id="text_3">
      <!-- 2000 -->
      <defs>
       <path d="
M57.0781 0
L7.85938 0
L7.85938 10.2031
Q12.9844 14.5938 18.1406 18.9844
Q23.2969 23.3906 27.7344 27.7344
Q37.1094 36.8125 40.5781 42.1562
Q44.0469 47.5156 44.0469 53.7188
Q44.0469 59.375 40.3125 62.5625
Q36.5781 65.7656 29.8906 65.7656
Q25.4375 65.7656 20.2656 64.2031
Q15.0938 62.6406 10.1562 59.4219
L9.67188 59.4219
L9.67188 69.6719
Q13.1406 71.3906 18.9219 72.7969
Q24.7031 74.2188 30.125 74.2188
Q41.3125 74.2188 47.6562 68.8125
Q54 63.4219 54 54.2031
Q54 50.0469 52.9531 46.4531
Q51.9062 42.875 49.8594 39.6562
Q47.9531 36.625 45.3906 33.6875
Q42.8281 30.7656 39.1562 27.2031
Q33.9375 22.0781 28.3594 17.2656
Q22.7969 12.4531 17.9688 8.34375
L57.0781 8.34375
z
" id="Verdana-32"/>
      </defs>
      <g transform="translate(236.1684375 401.918125)scale(0.12 -0.12)">
       <use xlink:href="#Verdana-32"/>
       <use x="63.57421875" xlink:href="#Verdana-30"/>
       <use x="127.1484375" xlink:href="#Verdana-30"/>
       <use x="190.72265625" xlink:href="#Verdana-30"/>
      </g>
     </g>
    </g>
    <g id="xtick_4">
     <g id="line2d_12">
      <g>
       <use style="stroke:#000000;stroke-width:0.5;" x="339.84" xlink:href="#mc7db9fdffb" y="388.8"/>
      </g>
     </g>
     <g id="line2d_13">
      <g>
       <use style="stroke:#000000;stroke-width:0.5;" x="339.84" xlink:href="#m5a7d422ac3" y="43.2"/>
      </g>
     </g>
     <g id="text_4">
      <!-- 3000 -->
      <defs>
       <path d="
M50.6875 35.0156
Q53.0312 32.9062 54.5469 29.7344
Q56.0625 26.5625 56.0625 21.5312
Q56.0625 16.5469 54.25 12.3906
Q52.4375 8.25 49.1719 5.17188
Q45.5156 1.76562 40.5469 0.125
Q35.5938 -1.51562 29.6875 -1.51562
Q23.6406 -1.51562 17.7812 -0.0625
Q11.9219 1.375 8.15625 3.07812
L8.15625 13.2812
L8.89062 13.2812
Q13.0312 10.5469 18.6406 8.73438
Q24.2656 6.9375 29.5 6.9375
Q32.5625 6.9375 36.0312 7.95312
Q39.5 8.98438 41.6562 10.9844
Q43.8906 13.1406 44.9844 15.7188
Q46.0938 18.3125 46.0938 22.2656
Q46.0938 26.1719 44.8438 28.7344
Q43.6094 31.2969 41.4062 32.7656
Q39.2031 34.2812 36.0781 34.8438
Q32.9531 35.4062 29.3438 35.4062
L24.9531 35.4062
L24.9531 43.5
L28.375 43.5
Q35.7969 43.5 40.2031 46.5938
Q44.625 49.7031 44.625 55.6719
Q44.625 58.2969 43.5 60.2656
Q42.3906 62.25 40.375 63.5312
Q38.2812 64.7969 35.8906 65.2812
Q33.5 65.7656 30.4688 65.7656
Q25.8281 65.7656 20.5938 64.1094
Q15.375 62.4531 10.75 59.4219
L10.25 59.4219
L10.25 69.625
Q13.7188 71.3438 19.5 72.7812
Q25.2969 74.2188 30.7188 74.2188
Q36.0312 74.2188 40.0781 73.2344
Q44.1406 72.2656 47.4062 70.125
Q50.9219 67.7812 52.7344 64.4531
Q54.5469 61.1406 54.5469 56.6875
Q54.5469 50.6406 50.2656 46.125
Q46 41.6094 40.1875 40.4375
L40.1875 39.75
Q42.5312 39.3594 45.5469 38.1094
Q48.5781 36.8594 50.6875 35.0156" id="Verdana-33"/>
      </defs>
      <g transform="translate(325.46625 401.918125)scale(0.12 -0.12)">
       <use xlink:href="#Verdana-33"/>
       <use x="63.57421875" xlink:href="#Verdana-30"/>
       <use x="127.1484375" xlink:href="#Verdana-30"/>
       <use x="190.72265625" xlink:href="#Verdana-30"/>
      </g>
     </g>
    </g>
    <g id="xtick_5">
     <g id="line2d_14">
      <g>
       <use style="stroke:#000000;stroke-width:0.5;" x="429.12" xlink:href="#mc7db9fdffb" y="388.8"/>
      </g>
     </g>
     <g id="line2d_15">
      <g>
       <use style="stroke:#000000;stroke-width:0.5;" x="429.12" xlink:href="#m5a7d422ac3" y="43.2"/>
      </g>
     </g>
     <g id="text_5">
      <!-- 4000 -->
      <defs>
       <path d="
M58.7344 20.4531
L47.9531 20.4531
L47.9531 0
L38.5781 0
L38.5781 20.4531
L3.76562 20.4531
L3.76562 31.6875
L38.9688 72.7031
L47.9531 72.7031
L47.9531 28.2656
L58.7344 28.2656
z

M38.5781 28.2656
L38.5781 61.0781
L10.4062 28.2656
z
" id="Verdana-34"/>
      </defs>
      <g transform="translate(414.4828125 401.918125)scale(0.12 -0.12)">
       <use xlink:href="#Verdana-34"/>
       <use x="63.57421875" xlink:href="#Verdana-30"/>
       <use x="127.1484375" xlink:href="#Verdana-30"/>
       <use x="190.72265625" xlink:href="#Verdana-30"/>
      </g>
     </g>
    </g>
    <g id="xtick_6">
     <g id="line2d_16">
      <g>
       <use style="stroke:#000000;stroke-width:0.5;" x="518.4" xlink:href="#mc7db9fdffb" y="388.8"/>
      </g>
     </g>
     <g id="line2d_17">
      <g>
       <use style="stroke:#000000;stroke-width:0.5;" x="518.4" xlink:href="#m5a7d422ac3" y="43.2"/>
      </g>
     </g>
     <g id="text_6">
      <!-- 5000 -->
      <defs>
       <path d="
M56.5 23.0938
Q56.5 18.0156 54.6406 13.375
Q52.7812 8.73438 49.5625 5.5625
Q46.0469 2.15625 41.1875 0.3125
Q36.3281 -1.51562 29.9375 -1.51562
Q23.9688 -1.51562 18.4531 -0.265625
Q12.9375 0.984375 9.125 2.73438
L9.125 13.0312
L9.8125 13.0312
Q13.8125 10.5 19.1875 8.71875
Q24.5625 6.9375 29.7344 6.9375
Q33.2031 6.9375 36.4531 7.90625
Q39.7031 8.89062 42.2344 11.3281
Q44.3906 13.4219 45.4844 16.3438
Q46.5781 19.2812 46.5781 23.1406
Q46.5781 26.9062 45.2812 29.4844
Q44 32.0781 41.7031 33.6406
Q39.1562 35.5 35.5156 36.25
Q31.8906 37.0156 27.3906 37.0156
Q23.0938 37.0156 19.1094 36.4219
Q15.1406 35.8438 12.25 35.25
L12.25 72.7031
L56 72.7031
L56 64.1562
L21.6875 64.1562
L21.6875 44.8281
Q23.7812 45.0156 25.9688 45.1094
Q28.1719 45.2188 29.7812 45.2188
Q35.6875 45.2188 40.125 44.2188
Q44.5781 43.2188 48.2969 40.6719
Q52.2031 37.9844 54.3438 33.7344
Q56.5 29.5 56.5 23.0938" id="Verdana-35"/>
      </defs>
      <g transform="translate(504.084375 401.918125)scale(0.12 -0.12)">
       <use xlink:href="#Verdana-35"/>
       <use x="63.57421875" xlink:href="#Verdana-30"/>
       <use x="127.1484375" xlink:href="#Verdana-30"/>
       <use x="190.72265625" xlink:href="#Verdana-30"/>
      </g>
     </g>
    </g>
    <g id="text_7">
     <!-- Objective function exectuions -->
     <defs>
      <path d="
M57.0312 27.6875
Q57.0312 20.8438 55.0938 15.375
Q53.1719 9.90625 49.9062 6.20312
Q46.4375 2.34375 42.2812 0.40625
Q38.1406 -1.51562 33.1562 -1.51562
Q28.5156 -1.51562 25.0469 -0.40625
Q21.5781 0.6875 18.2188 2.54688
L17.625 0
L9.03125 0
L9.03125 75.9844
L18.2188 75.9844
L18.2188 48.8281
Q22.0781 52 26.4219 54.0312
Q30.7656 56.0625 36.1875 56.0625
Q45.8438 56.0625 51.4375 48.6406
Q57.0312 41.2188 57.0312 27.6875
M47.5625 27.4375
Q47.5625 37.2031 44.3281 42.25
Q41.1094 47.3125 33.9375 47.3125
Q29.9375 47.3125 25.8281 45.5781
Q21.7344 43.8438 18.2188 41.1094
L18.2188 9.85938
Q22.125 8.10938 24.9219 7.42188
Q27.7344 6.73438 31.2969 6.73438
Q38.9219 6.73438 43.2344 11.7344
Q47.5625 16.75 47.5625 27.4375" id="Verdana-62"/>
      <path d="
M56.2031 54.5469
L34.125 0
L24.9062 0
L2.98438 54.5469
L12.9375 54.5469
L29.8281 11.1406
L46.5781 54.5469
z
" id="Verdana-76"/>
      <path d="
M56.25 0
L44.6719 0
L29.2031 20.9531
L13.625 0
L2.9375 0
L24.2188 27.2031
L3.125 54.5469
L14.7031 54.5469
L30.0781 33.9375
L45.5156 54.5469
L56.25 54.5469
L34.8125 27.6875
z
" id="Verdana-78"/>
      <path d="
M54.6875 26.3125
L14.5 26.3125
Q14.5 21.2969 16.0156 17.5469
Q17.5312 13.8125 20.1719 11.4219
Q22.7031 9.07812 26.1875 7.90625
Q29.6875 6.73438 33.8906 6.73438
Q39.4531 6.73438 45.0938 8.95312
Q50.7344 11.1875 53.125 13.3281
L53.6094 13.3281
L53.6094 3.32812
Q48.9688 1.375 44.1406 0.046875
Q39.3125 -1.26562 33.9844 -1.26562
Q20.4062 -1.26562 12.7812 6.07812
Q5.17188 13.4219 5.17188 26.9531
Q5.17188 40.3281 12.4688 48.1875
Q19.7812 56.0625 31.6875 56.0625
Q42.7188 56.0625 48.7031 49.6094
Q54.6875 43.1719 54.6875 31.2969
z

M45.75 33.3438
Q45.7031 40.5781 42.1094 44.5312
Q38.5312 48.4844 31.2031 48.4844
Q23.8281 48.4844 19.4531 44.1406
Q15.0938 39.7969 14.5 33.3438
z
" id="Verdana-65"/>
      <path d="
M49.3594 3.42188
Q44.7812 1.21875 40.6562 0
Q36.5312 -1.21875 31.8906 -1.21875
Q25.9844 -1.21875 21.0469 0.515625
Q16.1094 2.25 12.5938 5.76562
Q9.03125 9.28125 7.07812 14.6406
Q5.125 20.0156 5.125 27.2031
Q5.125 40.5781 12.4688 48.1875
Q19.8281 55.8125 31.8906 55.8125
Q36.5781 55.8125 41.0938 54.4844
Q45.6094 53.1719 49.3594 51.2656
L49.3594 41.0625
L48.875 41.0625
Q44.6719 44.3438 40.2031 46.0938
Q35.75 47.8594 31.5 47.8594
Q23.6875 47.8594 19.1719 42.6094
Q14.6562 37.3594 14.6562 27.2031
Q14.6562 17.3281 19.0625 12.0312
Q23.4844 6.73438 31.5 6.73438
Q34.2812 6.73438 37.1562 7.46875
Q40.0469 8.20312 42.3281 9.375
Q44.3438 10.4062 46.0938 11.5469
Q47.8594 12.7031 48.875 13.5312
L49.3594 13.5312
z
" id="Verdana-63"/>
      <path d="
M26.0312 63.6719
L15.6719 63.6719
L15.6719 73.1875
L26.0312 73.1875
z

M25.4375 -1.3125
Q25.4375 -10.8906 20.5469 -15.7656
Q15.6719 -20.6562 7.46875 -20.6562
Q5.51562 -20.6562 2.3125 -20.2656
Q-0.875 -19.875 -3.03125 -19.2812
L-3.03125 -10.5469
L-2.54688 -10.5469
Q-1.17188 -11.0781 1.14062 -11.7656
Q3.46875 -12.4531 5.67188 -12.4531
Q9.1875 -12.4531 11.3281 -11.4688
Q13.4844 -10.5 14.5469 -8.54688
Q15.625 -6.59375 15.9375 -3.82812
Q16.2656 -1.07812 16.2656 2.875
L16.2656 46.8281
L4.89062 46.8281
L4.89062 54.5469
L25.4375 54.5469
z
" id="Verdana-6a"/>
      <path d="
M18.8906 63.6719
L8.54688 63.6719
L8.54688 73.1875
L18.8906 73.1875
z

M18.3125 0
L9.125 0
L9.125 54.5469
L18.3125 54.5469
z
" id="Verdana-69"/>
      <path d="
M54.6406 0
L45.4531 0
L45.4531 31.0625
Q45.4531 34.8125 45.0156 38.1094
Q44.5781 41.4062 43.4062 43.2656
Q42.1875 45.3125 39.8906 46.3125
Q37.5938 47.3125 33.9375 47.3125
Q30.1719 47.3125 26.0625 45.4531
Q21.9688 43.6094 18.2188 40.7188
L18.2188 0
L9.03125 0
L9.03125 54.5469
L18.2188 54.5469
L18.2188 48.4844
Q22.5156 52.0469 27.0938 54.0469
Q31.6875 56.0625 36.5312 56.0625
Q45.3594 56.0625 50 50.7344
Q54.6406 45.4062 54.6406 35.4062
z
" id="Verdana-6e"/>
      <path d="
M48 15.7188
Q48 8.25 41.8125 3.46875
Q35.6406 -1.3125 24.9531 -1.3125
Q18.8906 -1.3125 13.8438 0.125
Q8.79688 1.5625 5.375 3.26562
L5.375 13.5781
L5.85938 13.5781
Q10.2031 10.2969 15.5156 8.375
Q20.8438 6.45312 25.7344 6.45312
Q31.7812 6.45312 35.2031 8.40625
Q38.625 10.3594 38.625 14.5469
Q38.625 17.7812 36.7656 19.4375
Q34.9062 21.0938 29.6406 22.2656
Q27.6875 22.7031 24.5312 23.2812
Q21.3906 23.875 18.7969 24.5625
Q11.625 26.4688 8.60938 30.1562
Q5.60938 33.8438 5.60938 39.2031
Q5.60938 42.5781 7 45.5469
Q8.40625 48.5312 11.2344 50.875
Q13.9688 53.1719 18.1875 54.5156
Q22.4062 55.8594 27.6406 55.8594
Q32.5156 55.8594 37.5156 54.6562
Q42.5312 53.4688 45.8438 51.7656
L45.8438 41.9375
L45.3594 41.9375
Q41.8438 44.5312 36.8125 46.3125
Q31.7812 48.0938 26.9531 48.0938
Q21.9219 48.0938 18.4531 46.1562
Q14.9844 44.2344 14.9844 40.4375
Q14.9844 37.0625 17.0938 35.3594
Q19.1406 33.6406 23.7344 32.5625
Q26.2656 31.9844 29.4062 31.3906
Q32.5625 30.8125 34.6719 30.3281
Q41.0625 28.8594 44.5312 25.2969
Q48 21.6875 48 15.7188" id="Verdana-73"/>
      <path d="
M38.375 67.0938
L37.8906 67.0938
Q36.375 67.5312 33.9375 67.9844
Q31.5 68.4531 29.6406 68.4531
Q23.7344 68.4531 21.0625 65.8438
Q18.4062 63.2344 18.4062 56.3906
L18.4062 54.5469
L34.9688 54.5469
L34.9688 46.8281
L18.7031 46.8281
L18.7031 0
L9.51562 0
L9.51562 46.8281
L3.32812 46.8281
L3.32812 54.5469
L9.51562 54.5469
L9.51562 56.3438
Q9.51562 66.0625 14.3438 71.2656
Q19.1875 76.4688 28.3281 76.4688
Q31.3906 76.4688 33.8594 76.1719
Q36.3281 75.875 38.375 75.4844
z
" id="Verdana-66"/>
      <path id="Verdana-20"/>
      <path d="
M63.9688 64.3594
Q68.4062 59.4688 70.7656 52.3906
Q73.1406 45.3125 73.1406 36.3281
Q73.1406 27.3438 70.7188 20.2344
Q68.3125 13.1406 63.9688 8.40625
Q59.4688 3.46875 53.3438 0.96875
Q47.2188 -1.51562 39.3594 -1.51562
Q31.6875 -1.51562 25.4062 1.01562
Q19.1406 3.5625 14.75 8.40625
Q10.3594 13.2344 7.98438 20.2656
Q5.60938 27.2969 5.60938 36.3281
Q5.60938 45.2188 7.95312 52.2656
Q10.2969 59.3281 14.7969 64.3594
Q19.0938 69.1406 25.4688 71.6719
Q31.8438 74.2188 39.3594 74.2188
Q47.1719 74.2188 53.3906 71.6562
Q59.625 69.0938 63.9688 64.3594
M63.0938 36.3281
Q63.0938 50.4844 56.7344 58.1719
Q50.3906 65.875 39.4062 65.875
Q28.3281 65.875 22 58.1719
Q15.6719 50.4844 15.6719 36.3281
Q15.6719 22.0156 22.1094 14.4219
Q28.5625 6.84375 39.4062 6.84375
Q50.25 6.84375 56.6719 14.4219
Q63.0938 22.0156 63.0938 36.3281" id="Verdana-4f"/>
      <path d="
M55.5156 27.25
Q55.5156 13.9219 48.6719 6.20312
Q41.8438 -1.51562 30.375 -1.51562
Q18.7969 -1.51562 11.9844 6.20312
Q5.17188 13.9219 5.17188 27.25
Q5.17188 40.5781 11.9844 48.3125
Q18.7969 56.0625 30.375 56.0625
Q41.8438 56.0625 48.6719 48.3125
Q55.5156 40.5781 55.5156 27.25
M46.0469 27.25
Q46.0469 37.8438 41.8906 42.9844
Q37.75 48.1406 30.375 48.1406
Q22.9062 48.1406 18.7812 42.9844
Q14.6562 37.8438 14.6562 27.25
Q14.6562 17 18.7969 11.6875
Q22.9531 6.39062 30.375 6.39062
Q37.7031 6.39062 41.875 11.6406
Q46.0469 16.8906 46.0469 27.25" id="Verdana-6f"/>
      <path d="
M37.3594 0.484375
Q34.7656 -0.203125 31.7031 -0.640625
Q28.6562 -1.07812 26.2656 -1.07812
Q17.9219 -1.07812 13.5781 3.40625
Q9.23438 7.90625 9.23438 17.8281
L9.23438 46.8281
L3.03125 46.8281
L3.03125 54.5469
L9.23438 54.5469
L9.23438 70.2188
L18.4062 70.2188
L18.4062 54.5469
L37.3594 54.5469
L37.3594 46.8281
L18.4062 46.8281
L18.4062 21.9688
Q18.4062 17.6719 18.5938 15.25
Q18.7969 12.8438 19.9688 10.75
Q21.0469 8.79688 22.9219 7.89062
Q24.8125 6.98438 28.6562 6.98438
Q30.9062 6.98438 33.3438 7.64062
Q35.7969 8.29688 36.8594 8.73438
L37.3594 8.73438
z
" id="Verdana-74"/>
      <path d="
M54.25 0
L45.0625 0
L45.0625 6.0625
Q40.4375 2.39062 36.1875 0.4375
Q31.9375 -1.51562 26.8125 -1.51562
Q18.2188 -1.51562 13.4219 3.73438
Q8.64062 8.98438 8.64062 19.1406
L8.64062 54.5469
L17.8281 54.5469
L17.8281 23.4844
Q17.8281 19.3438 18.2188 16.375
Q18.6094 13.4219 19.875 11.3281
Q21.1875 9.1875 23.2812 8.20312
Q25.3906 7.23438 29.3906 7.23438
Q32.9531 7.23438 37.1719 9.07812
Q41.4062 10.9375 45.0625 13.8125
L45.0625 54.5469
L54.25 54.5469
z
" id="Verdana-75"/>
     </defs>
     <g transform="translate(206.5078125 418.509375)scale(0.12 -0.12)">
      <use xlink:href="#Verdana-4f"/>
      <use x="78.7109375" xlink:href="#Verdana-62"/>
      <use x="141.015625" xlink:href="#Verdana-6a"/>
      <use x="175.439453125" xlink:href="#Verdana-65"/>
      <use x="235.009765625" xlink:href="#Verdana-63"/>
      <use x="287.109375" xlink:href="#Verdana-74"/>
      <use x="326.513671875" xlink:href="#Verdana-69"/>
      <use x="353.955078125" xlink:href="#Verdana-76"/>
      <use x="412.259765625" xlink:href="#Verdana-65"/>
      <use x="471.830078125" xlink:href="#Verdana-20"/>
      <use x="506.986328125" xlink:href="#Verdana-66"/>
      <use x="542.142578125" xlink:href="#Verdana-75"/>
      <use x="605.423828125" xlink:href="#Verdana-6e"/>
      <use x="668.705078125" xlink:href="#Verdana-63"/>
      <use x="720.8046875" xlink:href="#Verdana-74"/>
      <use x="760.208984375" xlink:href="#Verdana-69"/>
      <use x="787.650390625" xlink:href="#Verdana-6f"/>
      <use x="848.34375" xlink:href="#Verdana-6e"/>
      <use x="911.625" xlink:href="#Verdana-20"/>
      <use x="946.78125" xlink:href="#Verdana-65"/>
      <use x="1006.3515625" xlink:href="#Verdana-78"/>
      <use x="1064.40625" xlink:href="#Verdana-65"/>
      <use x="1123.9765625" xlink:href="#Verdana-63"/>
      <use x="1176.076171875" xlink:href="#Verdana-74"/>
      <use x="1215.48046875" xlink:href="#Verdana-75"/>
      <use x="1278.76171875" xlink:href="#Verdana-69"/>
      <use x="1306.203125" xlink:href="#Verdana-6f"/>
      <use x="1366.896484375" xlink:href="#Verdana-6e"/>
      <use x="1430.177734375" xlink:href="#Verdana-73"/>
     </g>
    </g>
   </g>
   <g id="matplotlib.axis_2">
    <g id="ytick_1">
     <g id="line2d_18">
      <defs>
       <path d="
M0 0
L4 0" id="md7965d1ba0" style="stroke:#000000;stroke-width:0.5;"/>
      </defs>
      <g>
       <use style="stroke:#000000;stroke-width:0.5;" x="72.0" xlink:href="#md7965d1ba0" y="388.8"/>
      </g>
     </g>
     <g id="line2d_19">
      <defs>
       <path d="
M0 0
L-4 0" id="md9a1c1a7cd" style="stroke:#000000;stroke-width:0.5;"/>
      </defs>
      <g>
       <use style="stroke:#000000;stroke-width:0.5;" x="518.4" xlink:href="#md9a1c1a7cd" y="388.8"/>
      </g>
     </g>
     <g id="text_8">
      <!-- 0.0 -->
      <defs>
       <path d="
M24.0312 0
L12.3594 0
L12.3594 13.9219
L24.0312 13.9219
z
" id="Verdana-2e"/>
      </defs>
      <g transform="translate(49.97 392.1515625)scale(0.12 -0.12)">
       <use xlink:href="#Verdana-30"/>
       <use x="63.57421875" xlink:href="#Verdana-2e"/>
       <use x="99.951171875" xlink:href="#Verdana-30"/>
      </g>
     </g>
    </g>
    <g id="ytick_2">
     <g id="line2d_20">
      <g>
       <use style="stroke:#000000;stroke-width:0.5;" x="72.0" xlink:href="#md7965d1ba0" y="331.2"/>
      </g>
     </g>
     <g id="line2d_21">
      <g>
       <use style="stroke:#000000;stroke-width:0.5;" x="518.4" xlink:href="#md9a1c1a7cd" y="331.2"/>
      </g>
     </g>
     <g id="text_9">
      <!-- 0.2 -->
      <g transform="translate(49.95875 334.5515625)scale(0.12 -0.12)">
       <use xlink:href="#Verdana-30"/>
       <use x="63.57421875" xlink:href="#Verdana-2e"/>
       <use x="99.951171875" xlink:href="#Verdana-32"/>
      </g>
     </g>
    </g>
    <g id="ytick_3">
     <g id="line2d_22">
      <g>
       <use style="stroke:#000000;stroke-width:0.5;" x="72.0" xlink:href="#md7965d1ba0" y="273.6"/>
      </g>
     </g>
     <g id="line2d_23">
      <g>
       <use style="stroke:#000000;stroke-width:0.5;" x="518.4" xlink:href="#md9a1c1a7cd" y="273.6"/>
      </g>
     </g>
     <g id="text_10">
      <!-- 0.4 -->
      <g transform="translate(49.76 276.9515625)scale(0.12 -0.12)">
       <use xlink:href="#Verdana-30"/>
       <use x="63.57421875" xlink:href="#Verdana-2e"/>
       <use x="99.951171875" xlink:href="#Verdana-34"/>
      </g>
     </g>
    </g>
    <g id="ytick_4">
     <g id="line2d_24">
      <g>
       <use style="stroke:#000000;stroke-width:0.5;" x="72.0" xlink:href="#md7965d1ba0" y="216.0"/>
      </g>
     </g>
     <g id="line2d_25">
      <g>
       <use style="stroke:#000000;stroke-width:0.5;" x="518.4" xlink:href="#md9a1c1a7cd" y="216.0"/>
      </g>
     </g>
     <g id="text_11">
      <!-- 0.6 -->
      <defs>
       <path d="
M58.1562 23.5781
Q58.1562 12.5 50.8594 5.48438
Q43.5625 -1.51562 32.9531 -1.51562
Q27.5938 -1.51562 23.1875 0.140625
Q18.7969 1.8125 15.4375 5.07812
Q11.2344 9.125 8.95312 15.8125
Q6.6875 22.5156 6.6875 31.9375
Q6.6875 41.6094 8.76562 49.0781
Q10.8438 56.5469 15.375 62.3594
Q19.6719 67.875 26.4531 70.9688
Q33.25 74.0781 42.2812 74.0781
Q45.1719 74.0781 47.125 73.8281
Q49.0781 73.5781 51.0781 72.9531
L51.0781 63.625
L50.5938 63.625
Q49.2188 64.3594 46.4531 65.0156
Q43.7031 65.6719 40.8281 65.6719
Q30.3281 65.6719 24.0781 59.1094
Q17.8281 52.5469 16.7969 41.3594
Q20.9062 43.8438 24.875 45.1406
Q28.8594 46.4375 34.0781 46.4375
Q38.7188 46.4375 42.25 45.5781
Q45.7969 44.7344 49.5156 42.1406
Q53.8125 39.1562 55.9844 34.6094
Q58.1562 30.0781 58.1562 23.5781
M48.25 23.1875
Q48.25 27.7344 46.9062 30.7031
Q45.5625 33.6875 42.4844 35.8906
Q40.2344 37.4531 37.5 37.9375
Q34.7656 38.4219 31.7812 38.4219
Q27.6406 38.4219 24.0781 37.4375
Q20.5156 36.4688 16.75 34.4219
Q16.6562 33.3438 16.5938 32.3438
Q16.5469 31.3438 16.5469 29.8281
Q16.5469 22.125 18.1406 17.6562
Q19.7344 13.1875 22.5156 10.5938
Q24.75 8.45312 27.3594 7.45312
Q29.9844 6.45312 33.0625 6.45312
Q40.1406 6.45312 44.1875 10.7656
Q48.25 15.0938 48.25 23.1875" id="Verdana-36"/>
      </defs>
      <g transform="translate(49.829375 219.3515625)scale(0.12 -0.12)">
       <use xlink:href="#Verdana-30"/>
       <use x="63.57421875" xlink:href="#Verdana-2e"/>
       <use x="99.951171875" xlink:href="#Verdana-36"/>
      </g>
     </g>
    </g>
    <g id="ytick_5">
     <g id="line2d_26">
      <g>
       <use style="stroke:#000000;stroke-width:0.5;" x="72.0" xlink:href="#md7965d1ba0" y="158.4"/>
      </g>
     </g>
     <g id="line2d_27">
      <g>
       <use style="stroke:#000000;stroke-width:0.5;" x="518.4" xlink:href="#md9a1c1a7cd" y="158.4"/>
      </g>
     </g>
     <g id="text_12">
      <!-- 0.8 -->
      <defs>
       <path d="
M57.625 20.2656
Q57.625 10.8438 50.2656 4.59375
Q42.9219 -1.65625 31.7812 -1.65625
Q19.9688 -1.65625 12.9531 4.4375
Q5.95312 10.5469 5.95312 20.0625
Q5.95312 26.125 9.46875 31.0312
Q12.9844 35.9375 19.3906 38.8125
L19.3906 39.1094
Q13.5312 42.2344 10.7188 45.9375
Q7.90625 49.6562 7.90625 55.2188
Q7.90625 63.4219 14.6406 68.8906
Q21.3906 74.3594 31.7812 74.3594
Q42.6719 74.3594 49.1719 69.1406
Q55.6719 63.9219 55.6719 55.8594
Q55.6719 50.9219 52.5938 46.1562
Q49.5156 41.4062 43.5625 38.7188
L43.5625 38.4219
Q50.3906 35.5 54 31.2031
Q57.625 26.9062 57.625 20.2656
M46.0469 55.7656
Q46.0469 60.9844 42.0156 64.0781
Q37.9844 67.1875 31.7344 67.1875
Q25.5938 67.1875 21.6562 64.25
Q17.7188 61.3281 17.7188 56.3438
Q17.7188 52.8281 19.7031 50.2656
Q21.6875 47.7031 25.6875 45.7031
Q27.4844 44.8281 30.875 43.4062
Q34.2812 42 37.5 41.0625
Q42.3281 44.2812 44.1875 47.75
Q46.0469 51.2188 46.0469 55.7656
M47.5625 19.3438
Q47.5625 23.8281 45.5781 26.5312
Q43.6094 29.25 37.8438 31.9844
Q35.5469 33.0625 32.8125 33.9844
Q30.0781 34.9062 25.5312 36.5781
Q21.1406 34.1875 18.4844 30.0781
Q15.8281 25.9844 15.8281 20.7969
Q15.8281 14.2031 20.3594 9.90625
Q24.9062 5.60938 31.8906 5.60938
Q39.0156 5.60938 43.2812 9.26562
Q47.5625 12.9375 47.5625 19.3438" id="Verdana-38"/>
      </defs>
      <g transform="translate(49.893125 161.7515625)scale(0.12 -0.12)">
       <use xlink:href="#Verdana-30"/>
       <use x="63.57421875" xlink:href="#Verdana-2e"/>
       <use x="99.951171875" xlink:href="#Verdana-38"/>
      </g>
     </g>
    </g>
    <g id="ytick_6">
     <g id="line2d_28">
      <g>
       <use style="stroke:#000000;stroke-width:0.5;" x="72.0" xlink:href="#md7965d1ba0" y="100.8"/>
      </g>
     </g>
     <g id="line2d_29">
      <g>
       <use style="stroke:#000000;stroke-width:0.5;" x="518.4" xlink:href="#md9a1c1a7cd" y="100.8"/>
      </g>
     </g>
     <g id="text_13">
      <!-- 1.0 -->
      <g transform="translate(50.796875 104.1515625)scale(0.12 -0.12)">
       <use xlink:href="#Verdana-31"/>
       <use x="63.57421875" xlink:href="#Verdana-2e"/>
       <use x="99.951171875" xlink:href="#Verdana-30"/>
      </g>
     </g>
    </g>
    <g id="ytick_7">
     <g id="line2d_30">
      <g>
       <use style="stroke:#000000;stroke-width:0.5;" x="72.0" xlink:href="#md7965d1ba0" y="43.2"/>
      </g>
     </g>
     <g id="line2d_31">
      <g>
       <use style="stroke:#000000;stroke-width:0.5;" x="518.4" xlink:href="#md9a1c1a7cd" y="43.2"/>
      </g>
     </g>
     <g id="text_14">
      <!-- 1.2 -->
      <g transform="translate(50.785625 46.5515625)scale(0.12 -0.12)">
       <use xlink:href="#Verdana-31"/>
       <use x="63.57421875" xlink:href="#Verdana-2e"/>
       <use x="99.951171875" xlink:href="#Verdana-32"/>
      </g>
     </g>
    </g>
    <g id="text_15">
     <!-- Absolute Max -->
     <defs>
      <path d="
M18.3125 0
L9.125 0
L9.125 75.9844
L18.3125 75.9844
z
" id="Verdana-6c"/>
      <path d="
M74.5156 0
L64.8438 0
L64.8438 62.6406
L44.625 20.0156
L38.875 20.0156
L18.7969 62.6406
L18.7969 0
L9.76562 0
L9.76562 72.7031
L22.9531 72.7031
L42.3281 32.2344
L61.0781 72.7031
L74.5156 72.7031
z
" id="Verdana-4d"/>
      <path d="
M51.4219 0
L42.2812 0
L42.2812 5.8125
Q41.0625 4.98438 38.9844 3.48438
Q36.9219 2 34.9688 1.125
Q32.6719 0 29.6875 -0.75
Q26.7031 -1.51562 22.7031 -1.51562
Q15.3281 -1.51562 10.2031 3.35938
Q5.07812 8.25 5.07812 15.8281
Q5.07812 22.0156 7.73438 25.8438
Q10.4062 29.6875 15.3281 31.8906
Q20.3125 34.0781 27.2969 34.8594
Q34.2812 35.6406 42.2812 36.0312
L42.2812 37.4531
Q42.2812 40.5781 41.1875 42.625
Q40.0938 44.6719 38.0312 45.8438
Q36.0781 46.9688 33.3438 47.3594
Q30.6094 47.75 27.6406 47.75
Q24.0312 47.75 19.5781 46.7969
Q15.1406 45.8438 10.4062 44.0469
L9.90625 44.0469
L9.90625 53.375
Q12.5938 54.1094 17.6719 54.9844
Q22.75 55.8594 27.6875 55.8594
Q33.4531 55.8594 37.7188 54.9062
Q42 53.9531 45.125 51.6562
Q48.1875 49.4219 49.7969 45.8438
Q51.4219 42.2812 51.4219 37.0156
z

M42.2812 13.4219
L42.2812 28.6094
Q38.0938 28.375 32.3906 27.875
Q26.7031 27.3906 23.3906 26.4688
Q19.4375 25.3438 16.9844 22.9688
Q14.5469 20.6094 14.5469 16.4531
Q14.5469 11.7656 17.375 9.39062
Q20.2188 7.03125 26.0312 7.03125
Q30.8594 7.03125 34.8594 8.90625
Q38.875 10.7969 42.2812 13.4219" id="Verdana-61"/>
      <path d="
M67.0938 0
L56.7812 0
L49.6562 20.2656
L18.2188 20.2656
L11.0781 0
L1.26562 0
L27.7344 72.7031
L40.625 72.7031
z

M46.6875 28.5625
L33.9375 64.2656
L21.1406 28.5625
z
" id="Verdana-41"/>
     </defs>
     <g transform="translate(42.345 256.134375)rotate(-90.0)scale(0.12 -0.12)">
      <use xlink:href="#Verdana-41"/>
      <use x="68.359375" xlink:href="#Verdana-62"/>
      <use x="130.6640625" xlink:href="#Verdana-73"/>
      <use x="182.763671875" xlink:href="#Verdana-6f"/>
      <use x="243.45703125" xlink:href="#Verdana-6c"/>
      <use x="270.8984375" xlink:href="#Verdana-75"/>
      <use x="334.1796875" xlink:href="#Verdana-74"/>
      <use x="373.583984375" xlink:href="#Verdana-65"/>
      <use x="433.154296875" xlink:href="#Verdana-20"/>
      <use x="468.310546875" xlink:href="#Verdana-4d"/>
      <use x="552.587890625" xlink:href="#Verdana-61"/>
      <use x="612.646484375" xlink:href="#Verdana-78"/>
     </g>
    </g>
   </g>
   <g id="patch_3">
    <path d="
M72 43.2
L518.4 43.2" style="fill:none;stroke:#000000;"/>
   </g>
   <g id="patch_4">
    <path d="
M72 388.8
L72 43.2" style="fill:none;stroke:#000000;"/>
   </g>
   <g id="patch_5">
    <path d="
M518.4 388.8
L518.4 43.2" style="fill:none;stroke:#000000;"/>
   </g>
   <g id="patch_6">
    <path d="
M72 388.8
L518.4 388.8" style="fill:none;stroke:#000000;"/>
   </g>
   <g id="text_16">
    <!-- Wavy Absolute Max -->
    <defs>
     <path d="
M94.3906 72.7031
L75.4844 0
L64.5938 0
L49.3125 60.3594
L34.375 0
L23.7344 0
L4.5 72.7031
L14.4062 72.7031
L29.6875 12.25
L44.7344 72.7031
L54.5469 72.7031
L69.7344 11.6719
L84.9062 72.7031
z
" id="Verdana-57"/>
     <path d="
M56.2031 54.5469
L24.3594 -20.125
L14.5469 -20.125
L24.7031 2.64062
L2.98438 54.5469
L12.9375 54.5469
L29.6875 14.1094
L46.5781 54.5469
z
" id="Verdana-79"/>
    </defs>
    <g transform="translate(224.946 38.2)scale(0.144 -0.144)">
     <use xlink:href="#Verdana-57"/>
     <use x="94.001953125" xlink:href="#Verdana-61"/>
     <use x="153.310546875" xlink:href="#Verdana-76"/>
     <use x="212.490234375" xlink:href="#Verdana-79"/>
     <use x="271.669921875" xlink:href="#Verdana-20"/>
     <use x="306.826171875" xlink:href="#Verdana-41"/>
     <use x="375.185546875" xlink:href="#Verdana-62"/>
     <use x="437.490234375" xlink:href="#Verdana-73"/>
     <use x="489.58984375" xlink:href="#Verdana-6f"/>
     <use x="550.283203125" xlink:href="#Verdana-6c"/>
     <use x="577.724609375" xlink:href="#Verdana-75"/>
     <use x="641.005859375" xlink:href="#Verdana-74"/>
     <use x="680.41015625" xlink:href="#Verdana-65"/>
     <use x="739.98046875" xlink:href="#Verdana-20"/>
     <use x="775.13671875" xlink:href="#Verdana-4d"/>
     <use x="859.4140625" xlink:href="#Verdana-61"/>
     <use x="919.47265625" xlink:href="#Verdana-78"/>
    </g>
   </g>
   <g id="legend_1">
    <g id="patch_7">
     <path d="
M407.18 159.919
L511.2 159.919
L511.2 50.4
L407.18 50.4
L407.18 159.919
z
" style="fill:#ffffff;stroke:#000000;"/>
    </g>
    <g id="line2d_32">
     <path d="
M417.26 62.0617
L437.42 62.0617" style="fill:none;stroke:#0000ff;stroke-dasharray:6.000000,2.000000;stroke-dashoffset:0.0;"/>
    </g>
    <g id="line2d_33"/>
    <g id="text_17">
     <!-- AMPGO -->
     <defs>
      <path d="
M57.3281 50.7344
Q57.3281 45.9062 55.6406 41.7656
Q53.9531 37.6406 50.9219 34.625
Q47.1719 30.8594 42.0469 28.9688
Q36.9219 27.0938 29.1094 27.0938
L19.4375 27.0938
L19.4375 0
L9.76562 0
L9.76562 72.7031
L29.5 72.7031
Q36.0312 72.7031 40.5781 71.6094
Q45.125 70.5156 48.6406 68.1719
Q52.7812 65.375 55.0469 61.2188
Q57.3281 57.0781 57.3281 50.7344
M47.2656 50.4844
Q47.2656 54.25 45.9375 57.0312
Q44.625 59.8125 41.9375 61.5781
Q39.5938 63.0938 36.5938 63.75
Q33.5938 64.4062 29 64.4062
L19.4375 64.4062
L19.4375 35.3594
L27.5938 35.3594
Q33.4531 35.3594 37.1094 36.4062
Q40.7656 37.4531 43.0625 39.75
Q45.3594 42.0938 46.3125 44.6719
Q47.2656 47.2656 47.2656 50.4844" id="Verdana-50"/>
      <path d="
M70.4062 5.375
Q64.4531 2.64062 57.3906 0.609375
Q50.3438 -1.42188 43.75 -1.42188
Q35.25 -1.42188 28.1719 0.921875
Q21.0938 3.26562 16.1094 7.95312
Q11.0781 12.7031 8.34375 19.7969
Q5.60938 26.9062 5.60938 36.4219
Q5.60938 53.8594 15.7969 63.9375
Q25.9844 74.0312 43.75 74.0312
Q49.9531 74.0312 56.4219 72.5312
Q62.8906 71.0469 70.3594 67.4844
L70.3594 56
L69.4844 56
Q67.9688 57.1719 65.0781 59.0781
Q62.2031 60.9844 59.4219 62.25
Q56.0625 63.7656 51.7812 64.7656
Q47.5156 65.7656 42.0938 65.7656
Q29.8906 65.7656 22.7812 57.9219
Q15.6719 50.0938 15.6719 36.7188
Q15.6719 22.6094 23.0938 14.7656
Q30.5156 6.9375 43.3125 6.9375
Q48 6.9375 52.6562 7.85938
Q57.3281 8.79688 60.8438 10.25
L60.8438 28.0781
L41.3594 28.0781
L41.3594 36.5781
L70.4062 36.5781
z
" id="Verdana-47"/>
     </defs>
     <g transform="translate(453.26025 67.10175)scale(0.144 -0.144)">
      <use xlink:href="#Verdana-41"/>
      <use x="68.359375" xlink:href="#Verdana-4d"/>
      <use x="152.63671875" xlink:href="#Verdana-50"/>
      <use x="212.939453125" xlink:href="#Verdana-47"/>
      <use x="290.478515625" xlink:href="#Verdana-4f"/>
     </g>
    </g>
    <g id="line2d_34">
     <path d="
M417.26 83.1015
L437.42 83.1015" style="fill:none;stroke:#008000;stroke-dasharray:1.000000,1.000000;stroke-dashoffset:0.0;"/>
    </g>
    <g id="line2d_35"/>
    <g id="text_18">
     <!-- Anneal -->
     <g transform="translate(453.26025 88.1415)scale(0.144 -0.144)">
      <use xlink:href="#Verdana-41"/>
      <use x="68.359375" xlink:href="#Verdana-6e"/>
      <use x="131.640625" xlink:href="#Verdana-6e"/>
      <use x="194.921875" xlink:href="#Verdana-65"/>
      <use x="254.4921875" xlink:href="#Verdana-61"/>
      <use x="314.55078125" xlink:href="#Verdana-6c"/>
     </g>
    </g>
    <g id="line2d_36">
     <path d="
M417.26 104.141
L437.42 104.141" style="fill:none;stroke:#ff0000;stroke-dasharray:3.000000,6.000000;stroke-dashoffset:0.0;"/>
    </g>
    <g id="line2d_37"/>
    <g id="text_19">
     <!-- BSA -->
     <defs>
      <path d="
M64.5938 22.3594
Q64.5938 16.9375 62.5469 12.7812
Q60.5 8.64062 57.0312 5.95312
Q52.9375 2.73438 48.0156 1.35938
Q43.1094 0 35.5469 0
L9.76562 0
L9.76562 72.7031
L31.2969 72.7031
Q39.2656 72.7031 43.2188 72.1094
Q47.1719 71.5312 50.7812 69.6719
Q54.7812 67.5781 56.5938 64.2812
Q58.4062 60.9844 58.4062 56.3906
Q58.4062 51.2188 55.7656 47.5781
Q53.125 43.9531 48.7344 41.75
L48.7344 41.3594
Q56.1094 39.8438 60.3438 34.8906
Q64.5938 29.9375 64.5938 22.3594
M48.3438 55.125
Q48.3438 57.7656 47.4531 59.5625
Q46.5781 61.375 44.625 62.5
Q42.3281 63.8125 39.0625 64.125
Q35.7969 64.4531 30.9531 64.4531
L19.4375 64.4531
L19.4375 43.4531
L31.9375 43.4531
Q36.4688 43.4531 39.1562 43.9219
Q41.8438 44.3906 44.1406 45.8438
Q46.4375 47.3125 47.3906 49.625
Q48.3438 51.9531 48.3438 55.125
M54.5469 21.9688
Q54.5469 26.375 53.2188 28.9531
Q51.9062 31.5469 48.4375 33.3438
Q46.0938 34.5781 42.75 34.9375
Q39.4062 35.2969 34.625 35.2969
L19.4375 35.2969
L19.4375 8.25
L32.2344 8.25
Q38.5781 8.25 42.625 8.90625
Q46.6875 9.57812 49.2656 11.3281
Q52 13.2344 53.2656 15.6719
Q54.5469 18.1094 54.5469 21.9688" id="Verdana-42"/>
      <path d="
M62.5938 20.75
Q62.5938 16.5 60.6094 12.3438
Q58.6406 8.20312 55.0781 5.32812
Q51.1719 2.20312 45.9688 0.4375
Q40.7656 -1.3125 33.4531 -1.3125
Q25.5938 -1.3125 19.3125 0.140625
Q13.0312 1.60938 6.54688 4.5
L6.54688 16.6094
L7.23438 16.6094
Q12.75 12.0156 19.9688 9.51562
Q27.2031 7.03125 33.5469 7.03125
Q42.5312 7.03125 47.5312 10.3906
Q52.5469 13.7656 52.5469 19.3906
Q52.5469 24.2188 50.1719 26.5156
Q47.7969 28.8125 42.9688 30.0781
Q39.3125 31.0625 35.0312 31.6875
Q30.7656 32.3281 25.9844 33.2969
Q16.3125 35.3594 11.6406 40.3125
Q6.98438 45.2656 6.98438 53.2188
Q6.98438 62.3594 14.6875 68.1875
Q22.4062 74.0312 34.2812 74.0312
Q41.9375 74.0312 48.3281 72.5625
Q54.7344 71.0938 59.6719 68.9531
L59.6719 57.5156
L58.9844 57.5156
Q54.8281 61.0312 48.0625 63.3438
Q41.3125 65.6719 34.2344 65.6719
Q26.4688 65.6719 21.75 62.4531
Q17.0469 59.2344 17.0469 54.1562
Q17.0469 49.6094 19.3906 47.0156
Q21.7344 44.4375 27.6406 43.0625
Q30.7656 42.3906 36.5156 41.4062
Q42.2812 40.4375 46.2969 39.4062
Q54.3906 37.25 58.4844 32.9062
Q62.5938 28.5625 62.5938 20.75" id="Verdana-53"/>
     </defs>
     <g transform="translate(453.26025 109.18125)scale(0.144 -0.144)">
      <use xlink:href="#Verdana-42"/>
      <use x="68.5546875" xlink:href="#Verdana-53"/>
      <use x="135.9140625" xlink:href="#Verdana-41"/>
     </g>
    </g>
    <g id="line2d_38">
     <path d="
M417.26 125.181
L437.42 125.181" style="fill:none;stroke:#00bfbf;stroke-dasharray:5.000000,1.000000,2.000000,1.000000,5.000000,1.000000;stroke-dashoffset:0.0;"/>
    </g>
    <g id="line2d_39"/>
    <g id="text_20">
     <!-- Cuckoo -->
     <defs>
      <path d="
M58.5469 0
L46.4375 0
L24.5625 23.875
L18.6094 18.2188
L18.6094 0
L9.42188 0
L9.42188 75.9844
L18.6094 75.9844
L18.6094 27.25
L45.125 54.5469
L56.6875 54.5469
L31.3438 29.3438
z
" id="Verdana-6b"/>
      <path d="
M65.9219 5.28125
Q63.2344 4.10938 61.0625 3.07812
Q58.8906 2.04688 55.375 0.921875
Q52.3906 0 48.8906 -0.65625
Q45.4062 -1.3125 41.2188 -1.3125
Q33.2969 -1.3125 26.8281 0.90625
Q20.3594 3.125 15.5781 7.85938
Q10.8906 12.5 8.25 19.6562
Q5.60938 26.8125 5.60938 36.2812
Q5.60938 45.2656 8.14062 52.3438
Q10.6875 59.4219 15.4844 64.3125
Q20.125 69.0469 26.6875 71.5312
Q33.25 74.0312 41.2656 74.0312
Q47.125 74.0312 52.9531 72.6094
Q58.7969 71.1875 65.9219 67.625
L65.9219 56.1562
L65.1875 56.1562
Q59.1875 61.1875 53.2656 63.4688
Q47.3594 65.7656 40.625 65.7656
Q35.1094 65.7656 30.6875 63.9844
Q26.2656 62.2031 22.7969 58.4531
Q19.4375 54.7812 17.5469 49.1875
Q15.6719 43.6094 15.6719 36.2812
Q15.6719 28.6094 17.75 23.0938
Q19.8281 17.5781 23.0938 14.1094
Q26.5156 10.5 31.0781 8.76562
Q35.6406 7.03125 40.7188 7.03125
Q47.7031 7.03125 53.7969 9.42188
Q59.9062 11.8125 65.2344 16.6094
L65.9219 16.6094
z
" id="Verdana-43"/>
     </defs>
     <g transform="translate(453.26025 130.221)scale(0.144 -0.144)">
      <use xlink:href="#Verdana-43"/>
      <use x="69.82421875" xlink:href="#Verdana-75"/>
      <use x="133.10546875" xlink:href="#Verdana-63"/>
      <use x="185.205078125" xlink:href="#Verdana-6b"/>
      <use x="243.384765625" xlink:href="#Verdana-6f"/>
      <use x="304.078125" xlink:href="#Verdana-6f"/>
     </g>
    </g>
    <g id="line2d_40">
     <path d="
M417.26 146.221
L437.42 146.221" style="fill:none;stroke:#bf00bf;stroke-linecap:square;"/>
    </g>
    <g id="line2d_41"/>
    <g id="text_21">
     <!-- qABC -->
     <defs>
      <path d="
M53.2656 -20.125
L44.0938 -20.125
L44.0938 6.15625
Q39.8438 2.48438 35.6406 0.703125
Q31.4531 -1.07812 26.5625 -1.07812
Q16.8438 -1.07812 11.0625 6.42188
Q5.28125 13.9219 5.28125 27.0938
Q5.28125 34.125 7.29688 39.5156
Q9.32812 44.9219 12.6406 48.5781
Q15.875 52.1562 20.2188 54.1094
Q24.5625 56.0625 29.3906 56.0625
Q33.7969 56.0625 37.1875 55.0781
Q40.5781 54.1094 44.0938 52.2031
L44.6719 54.5469
L53.2656 54.5469
z

M44.0938 13.875
L44.0938 44.7344
Q40.2812 46.4375 37.3438 47.1094
Q34.4219 47.7969 31 47.7969
Q23.0469 47.7969 18.8906 42.4062
Q14.75 37.0156 14.75 27.5469
Q14.75 17.9688 18.0938 12.8125
Q21.4375 7.67188 28.6094 7.67188
Q32.625 7.67188 36.625 9.40625
Q40.625 11.1406 44.0938 13.875" id="Verdana-71"/>
     </defs>
     <g transform="translate(453.26025 151.26075)scale(0.144 -0.144)">
      <use xlink:href="#Verdana-71"/>
      <use x="62.3046875" xlink:href="#Verdana-41"/>
      <use x="130.6640625" xlink:href="#Verdana-42"/>
      <use x="199.21875" xlink:href="#Verdana-43"/>
     </g>
    </g>
   </g>
  </g>
 </g>
 <defs>
  <clipPath id="p7ff5b81e1d">
   <rect height="345.6" width="446.4" x="72.0" y="43.2"/>
  </clipPath>
 </defs>
</svg>
