<?xml version="1.0" encoding="utf-8" standalone="no"?>
<!DOCTYPE svg PUBLIC "-//W3C//DTD SVG 1.1//EN"
  "http://www.w3.org/Graphics/SVG/1.1/DTD/svg11.dtd">
<!-- Created with matplotlib (http://matplotlib.org/) -->
<svg height="432pt" version="1.1" viewBox="0 0 576 432" width="576pt" xmlns="http://www.w3.org/2000/svg" xmlns:xlink="http://www.w3.org/1999/xlink">
 <defs>
  <style type="text/css">
*{stroke-linecap:butt;stroke-linejoin:round;}
  </style>
 </defs>
 <g id="figure_1">
  <g id="patch_1">
   <path d="
M0 432
L576 432
L576 0
L0 0
z
" style="fill:#ffffff;"/>
  </g>
  <g id="axes_1">
   <g id="patch_2">
    <path d="
M72 388.8
L518.4 388.8
L518.4 43.2
L72 43.2
z
" style="fill:#ffffff;"/>
   </g>
   <g id="line2d_1">
    <path clip-path="url(#p7ff5b81e1d)" d="
M72 388.8
L73.0714 388.8
L73.2499 388.498
L75.9283 388.498
L76.1069 388.8
L77.3568 388.8
L77.5354 388.498
L78.5174 388.498
L78.696 388.8
L518.311 388.8
L518.311 388.8" style="fill:none;stroke:#0000ff;stroke-dasharray:6.000000,2.000000;stroke-dashoffset:0.0;"/>
   </g>
   <g id="line2d_2">
    <path clip-path="url(#p7ff5b81e1d)" d="
M72 388.8
L72.0893 388.8
L72.3571 387.42
L72.4464 387.42
L72.5357 386.731
L72.7142 387.42
L73.4285 387.42
L73.607 386.041
L73.6963 386.041
L73.8749 384.661
L73.9642 384.661
L74.232 383.281
L74.4106 383.281
L74.5891 381.902
L74.857 379.832
L74.9462 383.281
L75.2141 379.832
L75.3034 379.832
L75.9283 370.865
L76.1069 375.004
L76.1962 375.004
L76.2854 372.934
L76.3747 375.693
L76.5533 375.004
L76.7318 375.693
L77.1782 372.244
L77.6246 361.207
L77.8925 355.689
L77.9818 357.758
L78.3389 350.86
L78.5174 346.721
L78.6067 347.411
L78.696 351.55
L78.7853 350.86
L78.8746 352.24
L79.1424 340.513
L79.321 334.304
L79.4102 331.545
L79.4995 342.582
L79.5888 340.513
L80.0352 320.508
L80.1245 320.508
L81.1066 279.119
L81.3744 263.253
L81.553 257.734
L82.4458 226.692
L82.535 227.382
L82.6243 226.692
L83.6064 185.993
L83.6957 185.303
L83.8742 177.025
L83.9635 194.271
L84.3206 176.335
L84.4099 175.646
L84.4992 212.896
L84.5885 206.687
L84.767 198.41
L85.1242 183.923
L85.392 176.335
L85.7491 164.608
L85.9277 160.469
L86.1062 156.331
L86.3741 153.571
L86.5526 150.812
L86.8205 143.914
L88.4275 108.043
L88.5168 107.353
L88.7846 100.455
L88.8739 102.525
L89.4989 92.8671
L89.5882 94.2467
L90.1238 86.6587
L90.2131 86.6587
L90.481 83.2096
L90.5702 83.2096
L90.6595 85.9689
L90.8381 82.5198
L91.2845 79.7605
L91.3738 79.7605
L91.8202 74.2419
L92.5344 68.0335
L92.713 65.2743
L92.8022 66.6539
L93.5165 61.8251
L93.695 61.8251
L94.0522 59.7557
L94.32 59.7557
L94.8557 56.3066
L95.0342 56.3066
L95.3914 54.2371
L95.5699 54.2371
L95.7485 53.5473
L95.927 53.5473
L96.1056 52.8575
L96.1949 52.8575
L96.4627 51.4778
L97.5341 51.4778
L97.7126 50.788
L97.8019 50.788
L97.9805 50.0982
L98.6947 50.0982
L98.8733 49.4084
L99.9446 49.4084
L100.123 48.7186
L100.302 48.7186
L100.48 48.0287
L101.016 48.0287
L101.195 47.3389
L101.462 47.3389
L101.641 46.6491
L104.587 46.6491
L104.766 45.9593
L109.765 45.9593
L109.944 45.2695
L111.819 45.2695
L111.997 44.5796
L126.104 44.5796
L126.282 43.8898
L145.21 43.8898
L145.388 43.2
L518.311 43.2
L518.311 43.2" style="fill:none;stroke:#008000;stroke-dasharray:1.000000,1.000000;stroke-dashoffset:0.0;"/>
   </g>
   <g id="line2d_3">
    <path clip-path="url(#p7ff5b81e1d)" d="
M72 388.8
L72.3571 386.965
L72.5357 386.965
L72.8928 388.8
L100.57 388.8
L100.748 388.188
L107.801 388.188
L107.98 387.577
L109.319 387.577
L109.498 386.965
L110.48 386.965
L110.658 386.353
L114.676 386.353
L114.854 385.13
L116.908 385.13
L117.086 384.518
L119.854 384.518
L120.033 382.683
L121.104 382.683
L121.461 380.848
L121.997 380.848
L122.175 380.236
L124.497 380.236
L124.675 379.625
L125.836 379.625
L126.014 379.013
L127.711 379.013
L128.336 375.343
L129.496 375.343
L129.675 375.955
L130.836 375.955
L131.014 375.343
L131.371 375.343
L131.55 374.731
L131.728 374.731
L131.996 373.508
L132.264 373.508
L132.443 372.896
L132.889 372.896
L133.157 371.673
L133.514 371.673
L133.782 370.45
L133.871 370.45
L134.05 369.838
L134.407 369.838
L134.585 371.061
L134.764 371.061
L134.942 370.45
L135.032 370.45
L135.3 369.226
L135.389 369.226
L135.567 368.003
L135.746 368.003
L136.014 366.779
L136.282 366.779
L136.639 364.944
L137.085 364.944
L137.264 364.333
L137.621 364.333
L137.889 363.109
L139.496 363.109
L139.853 361.274
L140.388 361.274
L140.567 359.439
L140.656 359.439
L140.835 358.828
L140.924 358.828
L141.103 358.216
L141.817 358.216
L141.996 357.604
L142.888 357.604
L143.067 356.993
L143.156 356.993
L143.424 355.769
L144.138 355.769
L144.317 355.158
L144.852 355.158
L145.031 354.546
L145.21 354.546
L145.656 352.099
L145.924 352.099
L146.549 348.429
L146.638 348.429
L147.084 345.982
L147.174 345.982
L147.62 343.536
L148.245 343.536
L148.424 342.924
L148.602 342.924
L148.781 341.701
L149.316 341.701
L149.495 341.089
L149.763 341.089
L149.852 342.312
L150.12 339.865
L150.566 339.865
L150.924 338.03
L151.013 338.03
L151.727 333.749
L151.816 333.749
L151.995 332.525
L152.173 332.525
L152.441 331.302
L152.531 331.302
L152.709 329.467
L152.977 329.467
L153.423 327.02
L153.513 327.02
L153.959 324.573
L154.048 325.185
L154.227 324.573
L154.316 324.573
L154.495 323.962
L154.584 323.962
L154.941 322.127
L155.12 322.127
L155.388 320.903
L155.834 320.903
L156.012 319.68
L156.191 316.622
L156.727 316.622
L157.084 314.787
L157.352 314.787
L157.53 312.952
L157.62 312.952
L157.798 312.34
L157.977 312.34
L158.244 311.116
L158.423 311.116
L158.869 308.67
L159.048 308.67
L159.227 308.058
L159.673 308.058
L160.03 304.388
L160.209 304.388
L160.476 303.165
L160.655 303.165
L160.834 301.33
L161.012 299.495
L161.637 299.495
L161.905 298.271
L161.994 298.271
L162.262 297.048
L162.53 297.048
L163.155 293.378
L163.333 293.378
L163.423 292.766
L163.601 290.931
L163.78 290.931
L164.048 289.708
L164.226 289.708
L164.762 286.649
L164.851 286.649
L165.119 285.426
L165.208 285.426
L165.387 284.814
L165.476 284.814
L165.655 284.202
L166.012 284.202
L166.28 282.979
L166.726 282.979
L166.994 281.756
L167.172 281.756
L167.44 280.532
L167.53 280.532
L167.976 278.086
L168.155 278.086
L168.78 274.416
L168.958 274.416
L169.047 275.639
L169.583 272.581
L169.762 272.581
L170.029 271.357
L170.208 271.357
L170.476 268.91
L170.565 268.91
L170.744 267.687
L170.922 265.852
L171.012 265.852
L171.369 264.017
L171.547 264.017
L171.815 261.57
L172.261 259.124
L172.44 259.124
L172.619 258.512
L173.154 258.512
L173.422 253.618
L173.69 253.618
L174.226 250.56
L174.315 250.56
L174.583 249.337
L174.851 249.337
L175.029 248.725
L175.565 248.725
L175.743 247.502
L176.815 240.773
L176.904 240.773
L177.172 239.55
L177.35 239.55
L177.529 237.715
L177.708 236.491
L178.065 236.491
L178.511 234.045
L178.6 234.045
L178.957 230.375
L179.136 230.986
L179.761 226.704
L179.94 224.258
L180.118 223.646
L180.297 223.646
L181.1 218.753
L181.189 218.753
L181.368 218.141
L181.457 218.141
L181.725 216.918
L182.529 216.918
L182.707 215.082
L182.886 213.859
L183.243 213.859
L183.511 212.636
L183.689 212.636
L183.868 212.024
L183.957 212.024
L184.136 211.412
L184.404 211.412
L184.761 209.577
L184.85 209.577
L185.475 205.907
L185.832 205.907
L186.278 203.461
L186.725 203.461
L186.903 202.849
L187.439 202.849
L187.618 201.625
L187.707 201.625
L187.885 201.014
L187.975 201.014
L188.153 200.402
L188.243 200.402
L188.421 199.79
L188.51 199.79
L188.868 197.955
L189.046 197.955
L189.225 195.509
L189.403 195.509
L189.582 194.285
L189.76 193.674
L189.85 193.674
L190.475 190.004
L190.832 190.004
L191.1 188.78
L191.189 188.78
L191.367 187.557
L192.171 182.663
L192.439 182.663
L193.153 178.382
L193.242 178.382
L193.421 177.77
L193.51 177.77
L193.689 177.158
L193.778 177.158
L194.581 172.265
L194.939 172.265
L195.474 167.983
L195.653 166.76
L195.742 166.76
L196.099 164.925
L196.188 164.925
L196.546 163.09
L197.081 163.09
L197.438 161.255
L197.974 161.255
L198.153 160.031
L198.42 160.031
L198.867 157.584
L198.956 157.584
L199.135 156.973
L199.313 156.973
L199.492 155.749
L199.67 155.138
L199.76 155.138
L200.028 152.691
L200.117 152.691
L200.385 151.468
L200.563 151.468
L200.831 150.244
L201.01 150.244
L201.188 149.021
L201.456 149.021
L201.992 145.962
L202.26 145.962
L202.438 145.351
L202.527 145.351
L202.706 144.739
L202.974 144.739
L203.42 142.292
L203.599 142.292
L203.777 141.681
L203.956 141.681
L204.313 139.846
L204.402 139.846
L204.849 137.399
L205.206 137.399
L205.563 134.952
L205.741 133.117
L206.099 131.282
L206.188 131.282
L206.456 130.059
L206.545 130.059
L206.902 128.224
L206.991 128.224
L207.17 127.612
L207.348 127.612
L207.527 126.389
L208.241 126.389
L208.42 125.165
L208.509 125.165
L208.777 123.942
L209.58 123.942
L209.848 120.884
L209.938 120.884
L210.116 120.272
L210.83 120.272
L211.366 117.213
L211.545 117.825
L211.723 117.213
L212.17 117.213
L212.527 115.378
L213.152 115.378
L213.598 112.932
L213.687 112.932
L213.866 112.32
L214.223 112.32
L214.58 110.485
L214.848 110.485
L215.027 109.873
L215.205 109.873
L215.384 108.038
L215.473 108.038
L215.652 107.427
L215.741 107.427
L216.009 106.203
L216.455 106.203
L216.634 105.592
L218.151 105.592
L218.33 104.98
L218.687 104.98
L218.866 104.368
L218.955 104.368
L219.133 103.756
L219.401 103.756
L219.58 103.145
L219.848 103.145
L220.205 101.31
L220.383 101.31
L220.562 100.698
L221.008 100.698
L221.187 100.086
L221.276 100.086
L221.455 99.4747
L221.812 99.4747
L222.08 98.2513
L222.258 98.2513
L222.437 97.028
L222.705 97.028
L223.151 94.5812
L223.687 94.5812
L223.865 93.9696
L224.044 93.9696
L224.58 90.9112
L224.669 90.9112
L224.847 90.2995
L224.937 90.2995
L225.115 89.6878
L225.204 89.6878
L225.383 89.0761
L225.562 89.0761
L225.919 87.2411
L226.276 87.2411
L226.454 86.6294
L226.99 86.6294
L227.347 84.7943
L227.883 84.7943
L228.061 84.1827
L228.329 84.1827
L228.686 82.3476
L229.133 82.3476
L229.311 81.1242
L229.401 81.1242
L229.579 80.5126
L230.115 80.5126
L230.293 79.9009
L230.472 79.9009
L230.651 79.2892
L230.829 79.2892
L231.008 78.6775
L231.454 78.6775
L231.633 77.4542
L233.061 77.4542
L233.418 75.6191
L233.775 75.6191
L233.954 75.0074
L234.222 75.0074
L234.4 74.3958
L234.579 74.3958
L234.936 72.5607
L235.293 72.5607
L235.472 71.949
L235.561 71.949
L235.74 71.3373
L236.097 71.3373
L236.275 70.7257
L236.722 70.7257
L236.9 70.114
L238.775 70.114
L238.954 69.5023
L239.757 69.5023
L239.936 68.2789
L240.561 68.2789
L240.739 67.0556
L241.096 67.0556
L241.453 65.2205
L241.721 65.2205
L241.9 64.6088
L242.078 64.6088
L242.257 63.9972
L242.436 63.9972
L242.703 62.7738
L243.06 62.7738
L243.239 62.1621
L244.757 62.1621
L244.935 60.9388
L245.203 60.9388
L245.382 59.7154
L246.007 59.7154
L246.185 59.1037
L248.239 59.1037
L248.417 58.492
L249.399 58.492
L249.578 57.8804
L250.203 57.8804
L250.381 57.2687
L250.471 57.2687
L250.649 56.657
L250.828 56.657
L251.096 55.4336
L252.613 55.4336
L252.792 54.8219
L253.953 54.8219
L254.131 54.2103
L255.113 54.2103
L255.292 53.5986
L257.345 53.5986
L257.524 52.9869
L257.97 52.9869
L258.149 52.3752
L258.327 52.3752
L258.506 51.7635
L260.381 51.7635
L260.559 51.1519
L261.095 51.1519
L261.274 50.5402
L262.166 50.5402
L262.345 49.9285
L263.506 49.9285
L263.773 48.7051
L265.648 48.7051
L265.827 48.0935
L268.327 48.0935
L268.505 47.4818
L273.326 47.4818
L273.505 48.0935
L274.308 48.0935
L274.576 46.8701
L275.916 46.8701
L276.094 45.6467
L282.522 45.6467
L282.701 45.035
L283.594 45.035
L283.772 44.4234
L288.147 44.4234
L288.325 43.8117
L296.361 43.8117
L296.539 43.2
L518.311 43.2
L518.311 43.2" style="fill:none;stroke:#ff0000;stroke-dasharray:3.000000,6.000000;stroke-dashoffset:0.0;"/>
   </g>
   <g id="line2d_4">
    <path clip-path="url(#p7ff5b81e1d)" d="
M72 388.8
L72.2678 388.8
L72.5357 387.42
L72.7142 388.8
L118.872 388.8
L119.051 388.11
L126.996 388.11
L127.175 387.42
L129.496 387.42
L129.675 388.11
L143.96 388.11
L144.138 387.42
L144.495 387.42
L144.763 386.041
L151.191 386.041
L151.37 385.351
L154.227 385.351
L154.405 384.661
L166.28 384.661
L166.458 383.971
L171.994 383.971
L172.172 383.281
L176.815 383.281
L176.993 382.592
L177.44 382.592
L177.618 381.902
L179.85 381.902
L180.118 380.522
L186.189 380.522
L186.368 379.832
L196.01 379.832
L196.188 379.143
L197.438 379.143
L197.617 378.453
L200.652 378.453
L200.831 377.763
L204.849 377.763
L205.027 377.073
L205.295 377.073
L205.474 376.383
L207.973 376.383
L208.152 375.693
L208.42 375.693
L208.598 375.004
L209.313 375.004
L209.491 374.314
L212.795 374.314
L212.973 373.624
L214.848 373.624
L215.027 372.934
L215.83 372.934
L216.098 371.554
L218.33 371.554
L218.598 370.175
L218.687 370.175
L218.866 369.485
L219.848 369.485
L220.026 370.175
L222.348 370.175
L222.526 369.485
L222.615 369.485
L222.794 367.416
L225.74 367.416
L225.919 366.726
L226.544 366.726
L226.722 366.036
L229.222 366.036
L229.401 365.346
L231.008 365.346
L231.186 364.656
L231.454 364.656
L231.633 363.966
L233.061 363.966
L233.24 363.277
L233.686 363.277
L234.043 361.207
L234.132 361.207
L234.311 360.517
L234.936 360.517
L235.115 359.828
L237.079 359.828
L237.257 359.138
L237.347 359.138
L237.614 357.758
L237.704 357.758
L237.882 357.068
L238.329 357.068
L238.596 355.689
L239.936 355.689
L240.114 354.999
L240.382 354.999
L240.561 354.309
L240.828 354.309
L241.007 353.619
L241.096 353.619
L241.364 352.24
L241.632 352.24
L241.811 351.55
L243.864 351.55
L244.043 350.86
L244.31 350.86
L244.489 350.17
L244.846 350.17
L245.114 348.79
L246.542 348.79
L246.81 347.411
L246.9 347.411
L247.167 346.031
L247.614 346.031
L247.792 345.341
L248.596 345.341
L248.774 344.651
L250.649 344.651
L250.828 342.582
L251.006 342.582
L251.185 341.892
L251.81 341.892
L251.988 341.202
L252.167 341.202
L252.346 340.513
L252.703 340.513
L252.881 339.823
L254.31 339.823
L254.756 337.063
L254.935 337.063
L255.113 335.684
L255.649 335.684
L255.828 334.994
L257.613 334.994
L257.792 334.304
L257.97 334.304
L258.149 333.614
L258.238 333.614
L258.417 332.925
L258.774 332.925
L258.952 332.235
L259.309 332.235
L259.488 331.545
L260.024 331.545
L260.202 330.855
L260.292 330.855
L260.47 330.165
L261.006 330.165
L261.184 329.475
L261.72 329.475
L261.988 328.096
L262.256 328.096
L262.702 325.337
L262.881 325.337
L263.059 323.267
L265.202 323.267
L265.738 319.818
L265.827 319.818
L266.184 317.749
L267.166 317.749
L267.345 317.059
L269.13 317.059
L269.487 314.989
L269.577 314.989
L269.755 314.299
L269.844 314.299
L270.202 312.23
L271.005 312.23
L271.184 311.54
L271.898 311.54
L272.076 310.85
L272.255 310.85
L272.434 308.781
L273.416 308.781
L273.594 308.091
L274.487 308.091
L274.755 306.711
L276.005 306.711
L276.273 305.332
L276.719 305.332
L276.898 304.642
L277.165 304.642
L277.344 303.952
L277.612 303.952
L277.79 303.262
L278.237 303.262
L278.594 301.193
L279.308 301.193
L279.487 299.813
L279.933 299.813
L280.29 297.744
L280.38 297.744
L280.647 296.364
L280.826 296.364
L281.094 294.984
L282.879 294.984
L283.058 293.605
L283.236 292.915
L283.415 292.915
L283.594 292.225
L283.683 292.225
L283.861 290.156
L284.129 290.156
L284.397 288.776
L284.933 288.776
L285.111 288.086
L286.451 288.086
L286.718 286.707
L286.897 286.707
L287.165 285.327
L287.343 285.327
L287.522 284.637
L288.058 284.637
L288.236 283.257
L288.861 283.257
L289.04 282.568
L290.29 282.568
L290.468 280.498
L291.004 280.498
L291.361 278.429
L291.45 278.429
L291.718 277.049
L291.986 277.049
L292.164 276.359
L292.343 276.359
L292.522 274.98
L293.325 274.98
L293.504 274.29
L293.861 274.29
L294.396 270.841
L294.486 270.841
L295.021 267.392
L296.45 267.392
L296.807 265.322
L296.896 265.322
L297.253 263.253
L297.432 263.253
L297.7 261.873
L297.968 261.873
L298.503 258.424
L298.771 258.424
L298.95 257.734
L299.218 257.734
L299.396 257.044
L300.021 257.044
L300.2 256.354
L300.378 256.354
L300.557 255.665
L300.646 255.665
L300.825 254.975
L301.271 254.975
L301.45 254.285
L302.075 254.285
L302.253 253.595
L302.61 253.595
L302.789 252.905
L303.235 252.905
L303.414 252.216
L303.682 252.216
L303.949 250.836
L304.128 250.836
L304.664 247.387
L305.199 247.387
L305.378 246.697
L305.467 246.697
L305.735 245.317
L305.824 245.317
L306.003 244.628
L307.788 244.628
L307.967 243.248
L308.146 243.248
L308.324 242.558
L308.592 242.558
L308.86 241.178
L308.949 241.178
L309.217 239.799
L309.306 239.799
L309.485 238.419
L310.556 238.419
L310.735 237.729
L311.628 237.729
L311.806 235.66
L312.252 235.66
L312.52 232.901
L312.61 232.901
L312.877 231.521
L313.056 231.521
L313.324 230.141
L313.681 230.141
L313.86 229.451
L314.574 229.451
L314.842 228.072
L315.377 228.072
L315.556 227.382
L315.824 227.382
L316.002 226.002
L316.806 226.002
L316.984 225.313
L317.699 225.313
L317.877 224.623
L319.127 224.623
L319.306 223.933
L319.663 223.933
L319.931 222.553
L320.02 222.553
L320.198 221.863
L321.895 221.863
L322.163 220.484
L323.145 220.484
L323.591 217.725
L324.037 217.725
L324.216 217.035
L324.305 217.035
L324.484 216.345
L325.02 216.345
L325.198 215.655
L325.644 215.655
L325.912 214.275
L326.091 214.275
L326.448 212.206
L326.627 212.206
L326.805 211.516
L327.162 211.516
L327.341 210.826
L328.501 210.826
L328.68 210.137
L329.037 210.137
L329.216 209.447
L329.573 209.447
L329.751 207.377
L329.841 207.377
L330.108 205.998
L330.287 205.998
L330.555 204.618
L330.644 204.618
L330.823 203.928
L330.912 203.928
L331.091 203.238
L332.34 203.238
L332.519 202.549
L332.698 202.549
L332.876 201.859
L333.233 201.859
L333.412 199.099
L333.948 199.099
L334.215 197.72
L334.305 197.72
L334.483 197.03
L335.822 197.03
L336.001 195.65
L336.18 195.65
L336.358 194.96
L336.537 194.96
L336.804 193.581
L338.412 193.581
L338.679 192.201
L338.769 192.201
L338.947 191.511
L340.197 191.511
L340.376 190.822
L340.644 190.822
L340.911 189.442
L343.59 189.442
L343.768 188.752
L343.858 188.752
L344.036 186.683
L344.125 186.683
L344.393 185.303
L344.483 185.303
L344.661 184.613
L344.75 184.613
L345.108 182.544
L345.375 182.544
L345.554 181.854
L346.447 181.854
L346.625 181.164
L347.072 181.164
L347.25 180.474
L347.429 180.474
L347.964 177.025
L348.054 177.025
L348.232 175.646
L348.589 175.646
L348.768 174.956
L349.661 174.956
L349.929 173.576
L350.643 173.576
L350.821 172.196
L350.911 172.196
L351.089 170.817
L351.179 170.817
L351.446 169.437
L351.982 169.437
L352.339 167.368
L352.696 167.368
L352.964 165.988
L353.321 165.988
L353.5 165.298
L353.857 165.298
L354.036 164.608
L354.303 164.608
L354.482 163.919
L356.892 163.919
L357.071 162.539
L357.607 162.539
L357.785 161.849
L358.053 161.849
L358.232 161.159
L358.321 161.159
L358.5 160.469
L358.678 160.469
L358.857 159.78
L359.035 159.78
L359.392 157.71
L359.482 157.71
L359.66 157.02
L360.464 157.02
L360.642 156.331
L361.178 156.331
L361.356 154.261
L361.535 154.261
L361.714 153.571
L361.892 153.571
L362.071 151.502
L362.428 151.502
L362.785 149.432
L363.053 149.432
L363.231 148.743
L364.124 148.743
L364.303 148.053
L365.374 148.053
L365.642 146.673
L365.82 146.673
L366.088 145.293
L366.267 145.293
L366.445 144.604
L366.981 144.604
L367.16 143.224
L367.785 143.224
L367.963 142.534
L368.588 142.534
L368.767 141.844
L369.392 141.844
L369.57 141.154
L369.927 141.154
L370.106 140.465
L370.642 140.465
L370.82 139.775
L371.892 139.775
L372.07 139.085
L372.249 139.085
L372.427 138.395
L372.516 138.395
L372.695 137.705
L372.784 137.705
L372.963 137.016
L373.409 137.016
L373.588 136.326
L373.677 136.326
L373.856 135.636
L373.945 135.636
L374.124 134.946
L375.195 134.946
L375.463 133.566
L375.641 133.566
L375.909 132.187
L377.159 132.187
L377.338 131.497
L377.784 131.497
L377.963 130.807
L378.32 130.807
L378.588 129.428
L379.123 129.428
L379.302 128.048
L379.48 127.358
L379.57 127.358
L379.748 125.978
L379.837 125.978
L380.195 123.909
L380.462 123.909
L380.641 122.529
L380.73 122.529
L380.909 121.84
L381.712 121.84
L381.98 120.46
L382.694 120.46
L382.873 119.77
L383.052 119.77
L383.409 117.701
L383.676 117.701
L383.855 117.011
L384.301 117.011
L384.48 115.631
L384.569 115.631
L384.748 114.941
L385.462 114.941
L385.641 114.251
L386.891 114.251
L387.158 112.872
L387.873 112.872
L388.051 112.182
L388.319 112.182
L388.498 111.492
L389.39 111.492
L389.569 110.802
L389.837 110.802
L390.015 109.423
L390.283 109.423
L390.462 108.733
L391.355 108.733
L391.622 107.353
L392.069 107.353
L392.247 106.663
L393.854 106.663
L394.122 103.904
L394.301 102.525
L395.283 102.525
L395.461 101.835
L396.801 101.835
L396.979 101.145
L397.426 101.145
L397.604 100.455
L397.872 100.455
L398.051 99.7653
L398.676 99.7653
L398.854 99.0754
L400.461 99.0754
L400.818 97.006
L400.908 97.006
L401.086 96.3162
L401.265 96.3162
L401.532 94.9365
L401.8 94.9365
L401.979 94.2467
L404.032 94.2467
L404.211 93.5569
L404.568 93.5569
L404.747 92.8671
L405.282 92.8671
L405.461 92.1772
L406.086 92.1772
L406.264 92.8671
L406.889 92.8671
L407.068 91.4874
L407.157 91.4874
L407.425 90.1078
L408.139 90.1078
L408.407 88.7281
L408.764 88.7281
L408.943 88.0383
L410.907 88.0383
L411.085 87.3485
L411.532 87.3485
L411.71 86.6587
L412.871 86.6587
L413.05 85.9689
L413.139 85.9689
L413.317 85.279
L420.281 85.279
L420.46 84.5892
L421.442 84.5892
L421.62 83.8994
L422.424 83.8994
L422.603 83.2096
L422.781 83.2096
L422.96 82.5198
L424.388 82.5198
L424.567 81.8299
L424.656 81.8299
L424.835 81.1401
L424.924 81.1401
L425.102 80.4503
L425.46 80.4503
L425.638 79.7605
L427.781 79.7605
L427.959 79.0707
L428.763 79.0707
L428.941 78.3808
L429.209 78.3808
L429.388 77.691
L430.191 77.691
L430.37 77.0012
L430.548 77.0012
L430.727 76.3114
L432.423 76.3114
L432.602 75.6216
L432.78 75.6216
L432.959 74.9317
L434.12 74.9317
L434.298 74.2419
L435.995 74.2419
L436.352 72.1725
L437.869 72.1725
L438.137 70.7928
L438.941 70.7928
L439.209 69.4132
L440.816 69.4132
L440.994 68.7234
L442.869 68.7234
L443.048 68.0335
L443.494 68.0335
L443.673 67.3437
L445.28 67.3437
L445.458 66.6539
L445.726 66.6539
L445.905 65.9641
L447.333 65.9641
L447.512 65.2743
L448.404 65.2743
L448.672 63.8946
L449.922 63.8946
L450.101 63.2048
L451.44 63.2048
L451.619 62.515
L458.94 62.515
L459.118 61.8251
L461.618 61.8251
L461.886 60.4455
L465.368 60.4455
L465.546 59.7557
L465.993 59.7557
L466.171 59.0659
L468.492 59.0659
L468.671 58.376
L469.117 58.376
L469.385 56.9964
L469.832 56.9964
L470.01 56.3066
L470.724 56.3066
L470.903 55.6168
L473.939 55.6168
L474.117 54.9269
L482.331 54.9269
L482.599 53.5473
L495.009 53.5473
L495.187 52.8575
L495.544 52.8575
L495.723 52.1677
L500.901 52.1677
L501.08 51.4778
L503.669 51.4778
L503.847 50.788
L509.026 50.788
L509.204 50.0982
L518.311 50.0982
L518.311 50.0982" style="fill:none;stroke:#00bfbf;stroke-dasharray:5.000000,1.000000,2.000000,1.000000,5.000000,1.000000;stroke-dashoffset:0.0;"/>
   </g>
   <g id="line2d_5">
    <path clip-path="url(#p7ff5b81e1d)" d="
M72 388.501
L72.2678 387.304
L72.4464 387.304
L72.5357 387.005
L72.7142 388.202
L72.8928 388.8
L75.9283 388.8
L76.7318 386.107
L76.9997 383.115
L77.1782 382.217
L77.3568 382.816
L77.6246 382.816
L77.8925 381.619
L78.071 382.217
L78.3389 381.619
L78.6067 381.619
L78.7853 382.217
L78.9638 382.516
L79.0531 382.516
L79.321 381.918
L79.4102 381.918
L79.4995 381.619
L80.1245 372.642
L80.3923 367.256
L80.4816 366.059
L80.8387 356.185
L81.0173 355.886
L81.1066 355.886
L81.6422 354.39
L81.8208 354.39
L81.9101 354.09
L82.0886 354.988
L82.1779 354.988
L82.3565 354.689
L82.4458 354.689
L82.535 355.586
L82.6243 354.988
L83.16 343.318
L83.6957 324.767
L83.8742 319.979
L83.9635 329.554
L84.4099 316.688
L84.4992 336.436
L84.5885 336.137
L85.0349 336.137
L85.2134 335.838
L85.392 335.838
L85.5706 335.539
L85.7491 335.539
L86.1062 334.641
L86.1955 334.641
L86.5526 326.861
L86.9098 318.184
L87.9811 285.27
L88.3382 283.175
L88.6954 283.175
L88.7846 282.876
L88.9632 283.774
L89.4096 283.774
L89.4989 283.474
L89.6774 288.561
L89.7667 288.262
L90.0346 281.081
L90.5702 267.915
L90.6595 267.915
L90.8381 262.529
L91.5523 243.678
L91.9987 243.678
L92.2666 243.079
L92.5344 243.079
L92.713 242.78
L92.8915 252.355
L93.1594 252.355
L93.3379 252.056
L93.4272 249.662
L93.7843 233.504
L94.4093 217.047
L94.8557 207.771
L95.2128 201.189
L95.6592 201.189
L95.8378 200.889
L96.552 200.889
L96.7306 200.59
L96.8198 200.59
L96.9091 200.291
L97.0877 198.196
L97.6234 185.928
L98.159 172.763
L98.6054 163.786
L98.784 161.691
L98.9626 161.392
L99.0518 161.392
L99.2304 161.093
L99.3197 161.093
L99.4982 160.794
L100.034 160.794
L100.212 160.495
L100.391 160.495
L100.48 160.195
L101.016 147.628
L101.373 140.746
L102.355 126.084
L102.891 126.084
L103.069 125.785
L103.248 125.785
L103.427 127.879
L103.516 127.879
L103.784 127.281
L104.052 127.281
L104.23 124.588
L104.855 117.407
L105.123 113.816
L105.569 106.336
L105.659 105.737
L105.926 102.146
L106.462 102.146
L106.641 101.847
L107.355 101.847
L107.533 101.548
L107.623 101.548
L107.712 101.249
L108.873 90.1777
L108.962 89.8784
L109.23 88.0831
L109.319 88.0831
L109.498 86.8862
L109.765 86.2878
L109.944 86.2878
L110.212 85.6894
L110.658 85.6894
L110.837 88.6816
L111.194 88.6816
L111.462 87.4847
L111.551 87.1855
L111.73 85.6894
L111.908 85.0909
L111.997 85.0909
L112.444 81.201
L112.622 81.201
L113.069 80.0042
L114.676 80.0042
L115.033 79.1065
L115.122 79.1065
L115.301 77.6104
L116.372 70.7283
L116.461 70.7283
L116.64 70.4291
L116.819 72.5236
L117.622 72.5236
L117.801 72.2244
L118.068 72.2244
L118.247 71.9252
L118.515 71.9252
L118.872 71.0275
L118.961 71.0275
L119.229 69.5314
L119.318 69.5314
L119.497 69.2322
L119.765 69.2322
L120.122 68.3345
L121.908 68.3345
L122.175 67.7361
L122.354 67.7361
L122.532 67.1377
L122.711 66.8384
L123.247 66.8384
L123.604 65.9408
L123.872 65.9408
L124.05 65.6416
L124.675 65.6416
L124.854 65.3423
L125.568 65.3423
L126.014 64.1455
L126.193 64.1455
L126.639 62.9486
L126.729 62.9486
L127.175 61.7517
L129.318 61.7517
L129.496 61.4525
L129.675 62.3501
L132.889 62.3501
L133.246 61.4525
L133.514 61.4525
L133.692 61.1532
L134.05 61.1532
L134.228 60.854
L134.407 60.854
L134.585 61.4525
L136.371 61.4525
L136.549 61.1532
L136.817 61.1532
L136.996 60.854
L137.532 60.854
L137.799 60.2556
L140.031 60.2556
L140.21 59.9564
L141.371 59.9564
L141.549 59.6571
L143.781 59.6571
L144.049 59.0587
L149.763 59.0587
L149.941 59.3579
L178.957 59.3579
L179.136 59.6571
L210.116 59.6571
L210.295 59.9564
L211.366 59.9564
L211.545 60.5548
L242.614 60.5548
L242.793 60.854
L406.086 60.854
L406.264 61.1532
L518.311 61.1532
L518.311 61.1532" style="fill:none;stroke:#bf00bf;stroke-linecap:square;"/>
   </g>
   <g id="matplotlib.axis_1">
    <g id="xtick_1">
     <g id="line2d_6">
      <defs>
       <path d="
M0 0
L0 -4" id="mc7db9fdffb" style="stroke:#000000;stroke-width:0.5;"/>
      </defs>
      <g>
       <use style="stroke:#000000;stroke-width:0.5;" x="72.0" xlink:href="#mc7db9fdffb" y="388.8"/>
      </g>
     </g>
     <g id="line2d_7">
      <defs>
       <path d="
M0 0
L0 4" id="m5a7d422ac3" style="stroke:#000000;stroke-width:0.5;"/>
      </defs>
      <g>
       <use style="stroke:#000000;stroke-width:0.5;" x="72.0" xlink:href="#m5a7d422ac3" y="43.2"/>
      </g>
     </g>
     <g id="text_1">
      <!-- 0 -->
      <defs>
       <path d="
M56.9844 36.375
Q56.9844 16.7969 50.8594 7.64062
Q44.7344 -1.51562 31.8438 -1.51562
Q18.75 -1.51562 12.7188 7.76562
Q6.6875 17.0469 6.6875 36.2812
Q6.6875 55.6719 12.7812 64.9219
Q18.8906 74.1719 31.8438 74.1719
Q44.9219 74.1719 50.9531 64.7656
Q56.9844 55.375 56.9844 36.375
M44.1406 14.2031
Q45.8438 18.1719 46.4531 23.5156
Q47.0781 28.8594 47.0781 36.375
Q47.0781 43.7969 46.4531 49.2656
Q45.8438 54.7344 44.0938 58.5469
Q42.3906 62.3125 39.4219 64.2031
Q36.4688 66.1094 31.8438 66.1094
Q27.25 66.1094 24.2344 64.2031
Q21.2344 62.3125 19.4844 58.4531
Q17.8281 54.8281 17.2188 49.0156
Q16.6094 43.2188 16.6094 36.2812
Q16.6094 28.6562 17.1406 23.5312
Q17.6719 18.4062 19.4375 14.3594
Q21.0469 10.5469 24 8.54688
Q26.9531 6.54688 31.8438 6.54688
Q36.4219 6.54688 39.4531 8.45312
Q42.4844 10.3594 44.1406 14.2031" id="Verdana-30"/>
      </defs>
      <g transform="translate(68.9821875 401.918125)scale(0.12 -0.12)">
       <use xlink:href="#Verdana-30"/>
      </g>
     </g>
    </g>
    <g id="xtick_2">
     <g id="line2d_8">
      <g>
       <use style="stroke:#000000;stroke-width:0.5;" x="161.28" xlink:href="#mc7db9fdffb" y="388.8"/>
      </g>
     </g>
     <g id="line2d_9">
      <g>
       <use style="stroke:#000000;stroke-width:0.5;" x="161.28" xlink:href="#m5a7d422ac3" y="43.2"/>
      </g>
     </g>
     <g id="text_2">
      <!-- 1000 -->
      <defs>
       <path d="
M52.9375 0
L13.5781 0
L13.5781 7.42188
L28.7188 7.42188
L28.7188 56.1562
L13.5781 56.1562
L13.5781 62.7969
Q16.6562 62.7969 20.1719 63.2969
Q23.6875 63.8125 25.4844 64.7969
Q27.7344 66.0156 29.0312 67.8906
Q30.3281 69.7812 30.5156 72.9531
L38.0938 72.9531
L38.0938 7.42188
L52.9375 7.42188
z
" id="Verdana-31"/>
      </defs>
      <g transform="translate(147.2315625 401.918125)scale(0.12 -0.12)">
       <use xlink:href="#Verdana-31"/>
       <use x="63.57421875" xlink:href="#Verdana-30"/>
       <use x="127.1484375" xlink:href="#Verdana-30"/>
       <use x="190.72265625" xlink:href="#Verdana-30"/>
      </g>
     </g>
    </g>
    <g id="xtick_3">
     <g id="line2d_10">
      <g>
       <use style="stroke:#000000;stroke-width:0.5;" x="250.56" xlink:href="#mc7db9fdffb" y="388.8"/>
      </g>
     </g>
     <g id="line2d_11">
      <g>
       <use style="stroke:#000000;stroke-width:0.5;" x="250.56" xlink:href="#m5a7d422ac3" y="43.2"/>
      </g>
     </g>
     <g id="text_3">
      <!-- 2000 -->
      <defs>
       <path d="
M57.0781 0
L7.85938 0
L7.85938 10.2031
Q12.9844 14.5938 18.1406 18.9844
Q23.2969 23.3906 27.7344 27.7344
Q37.1094 36.8125 40.5781 42.1562
Q44.0469 47.5156 44.0469 53.7188
Q44.0469 59.375 40.3125 62.5625
Q36.5781 65.7656 29.8906 65.7656
Q25.4375 65.7656 20.2656 64.2031
Q15.0938 62.6406 10.1562 59.4219
L9.67188 59.4219
L9.67188 69.6719
Q13.1406 71.3906 18.9219 72.7969
Q24.7031 74.2188 30.125 74.2188
Q41.3125 74.2188 47.6562 68.8125
Q54 63.4219 54 54.2031
Q54 50.0469 52.9531 46.4531
Q51.9062 42.875 49.8594 39.6562
Q47.9531 36.625 45.3906 33.6875
Q42.8281 30.7656 39.1562 27.2031
Q33.9375 22.0781 28.3594 17.2656
Q22.7969 12.4531 17.9688 8.34375
L57.0781 8.34375
z
" id="Verdana-32"/>
      </defs>
      <g transform="translate(236.1684375 401.918125)scale(0.12 -0.12)">
       <use xlink:href="#Verdana-32"/>
       <use x="63.57421875" xlink:href="#Verdana-30"/>
       <use x="127.1484375" xlink:href="#Verdana-30"/>
       <use x="190.72265625" xlink:href="#Verdana-30"/>
      </g>
     </g>
    </g>
    <g id="xtick_4">
     <g id="line2d_12">
      <g>
       <use style="stroke:#000000;stroke-width:0.5;" x="339.84" xlink:href="#mc7db9fdffb" y="388.8"/>
      </g>
     </g>
     <g id="line2d_13">
      <g>
       <use style="stroke:#000000;stroke-width:0.5;" x="339.84" xlink:href="#m5a7d422ac3" y="43.2"/>
      </g>
     </g>
     <g id="text_4">
      <!-- 3000 -->
      <defs>
       <path d="
M50.6875 35.0156
Q53.0312 32.9062 54.5469 29.7344
Q56.0625 26.5625 56.0625 21.5312
Q56.0625 16.5469 54.25 12.3906
Q52.4375 8.25 49.1719 5.17188
Q45.5156 1.76562 40.5469 0.125
Q35.5938 -1.51562 29.6875 -1.51562
Q23.6406 -1.51562 17.7812 -0.0625
Q11.9219 1.375 8.15625 3.07812
L8.15625 13.2812
L8.89062 13.2812
Q13.0312 10.5469 18.6406 8.73438
Q24.2656 6.9375 29.5 6.9375
Q32.5625 6.9375 36.0312 7.95312
Q39.5 8.98438 41.6562 10.9844
Q43.8906 13.1406 44.9844 15.7188
Q46.0938 18.3125 46.0938 22.2656
Q46.0938 26.1719 44.8438 28.7344
Q43.6094 31.2969 41.4062 32.7656
Q39.2031 34.2812 36.0781 34.8438
Q32.9531 35.4062 29.3438 35.4062
L24.9531 35.4062
L24.9531 43.5
L28.375 43.5
Q35.7969 43.5 40.2031 46.5938
Q44.625 49.7031 44.625 55.6719
Q44.625 58.2969 43.5 60.2656
Q42.3906 62.25 40.375 63.5312
Q38.2812 64.7969 35.8906 65.2812
Q33.5 65.7656 30.4688 65.7656
Q25.8281 65.7656 20.5938 64.1094
Q15.375 62.4531 10.75 59.4219
L10.25 59.4219
L10.25 69.625
Q13.7188 71.3438 19.5 72.7812
Q25.2969 74.2188 30.7188 74.2188
Q36.0312 74.2188 40.0781 73.2344
Q44.1406 72.2656 47.4062 70.125
Q50.9219 67.7812 52.7344 64.4531
Q54.5469 61.1406 54.5469 56.6875
Q54.5469 50.6406 50.2656 46.125
Q46 41.6094 40.1875 40.4375
L40.1875 39.75
Q42.5312 39.3594 45.5469 38.1094
Q48.5781 36.8594 50.6875 35.0156" id="Verdana-33"/>
      </defs>
      <g transform="translate(325.46625 401.918125)scale(0.12 -0.12)">
       <use xlink:href="#Verdana-33"/>
       <use x="63.57421875" xlink:href="#Verdana-30"/>
       <use x="127.1484375" xlink:href="#Verdana-30"/>
       <use x="190.72265625" xlink:href="#Verdana-30"/>
      </g>
     </g>
    </g>
    <g id="xtick_5">
     <g id="line2d_14">
      <g>
       <use style="stroke:#000000;stroke-width:0.5;" x="429.12" xlink:href="#mc7db9fdffb" y="388.8"/>
      </g>
     </g>
     <g id="line2d_15">
      <g>
       <use style="stroke:#000000;stroke-width:0.5;" x="429.12" xlink:href="#m5a7d422ac3" y="43.2"/>
      </g>
     </g>
     <g id="text_5">
      <!-- 4000 -->
      <defs>
       <path d="
M58.7344 20.4531
L47.9531 20.4531
L47.9531 0
L38.5781 0
L38.5781 20.4531
L3.76562 20.4531
L3.76562 31.6875
L38.9688 72.7031
L47.9531 72.7031
L47.9531 28.2656
L58.7344 28.2656
z

M38.5781 28.2656
L38.5781 61.0781
L10.4062 28.2656
z
" id="Verdana-34"/>
      </defs>
      <g transform="translate(414.4828125 401.918125)scale(0.12 -0.12)">
       <use xlink:href="#Verdana-34"/>
       <use x="63.57421875" xlink:href="#Verdana-30"/>
       <use x="127.1484375" xlink:href="#Verdana-30"/>
       <use x="190.72265625" xlink:href="#Verdana-30"/>
      </g>
     </g>
    </g>
    <g id="xtick_6">
     <g id="line2d_16">
      <g>
       <use style="stroke:#000000;stroke-width:0.5;" x="518.4" xlink:href="#mc7db9fdffb" y="388.8"/>
      </g>
     </g>
     <g id="line2d_17">
      <g>
       <use style="stroke:#000000;stroke-width:0.5;" x="518.4" xlink:href="#m5a7d422ac3" y="43.2"/>
      </g>
     </g>
     <g id="text_6">
      <!-- 5000 -->
      <defs>
       <path d="
M56.5 23.0938
Q56.5 18.0156 54.6406 13.375
Q52.7812 8.73438 49.5625 5.5625
Q46.0469 2.15625 41.1875 0.3125
Q36.3281 -1.51562 29.9375 -1.51562
Q23.9688 -1.51562 18.4531 -0.265625
Q12.9375 0.984375 9.125 2.73438
L9.125 13.0312
L9.8125 13.0312
Q13.8125 10.5 19.1875 8.71875
Q24.5625 6.9375 29.7344 6.9375
Q33.2031 6.9375 36.4531 7.90625
Q39.7031 8.89062 42.2344 11.3281
Q44.3906 13.4219 45.4844 16.3438
Q46.5781 19.2812 46.5781 23.1406
Q46.5781 26.9062 45.2812 29.4844
Q44 32.0781 41.7031 33.6406
Q39.1562 35.5 35.5156 36.25
Q31.8906 37.0156 27.3906 37.0156
Q23.0938 37.0156 19.1094 36.4219
Q15.1406 35.8438 12.25 35.25
L12.25 72.7031
L56 72.7031
L56 64.1562
L21.6875 64.1562
L21.6875 44.8281
Q23.7812 45.0156 25.9688 45.1094
Q28.1719 45.2188 29.7812 45.2188
Q35.6875 45.2188 40.125 44.2188
Q44.5781 43.2188 48.2969 40.6719
Q52.2031 37.9844 54.3438 33.7344
Q56.5 29.5 56.5 23.0938" id="Verdana-35"/>
      </defs>
      <g transform="translate(504.084375 401.918125)scale(0.12 -0.12)">
       <use xlink:href="#Verdana-35"/>
       <use x="63.57421875" xlink:href="#Verdana-30"/>
       <use x="127.1484375" xlink:href="#Verdana-30"/>
       <use x="190.72265625" xlink:href="#Verdana-30"/>
      </g>
     </g>
    </g>
    <g id="text_7">
     <!-- Objective function exectuions -->
     <defs>
      <path d="
M63.9688 64.3594
Q68.4062 59.4688 70.7656 52.3906
Q73.1406 45.3125 73.1406 36.3281
Q73.1406 27.3438 70.7188 20.2344
Q68.3125 13.1406 63.9688 8.40625
Q59.4688 3.46875 53.3438 0.96875
Q47.2188 -1.51562 39.3594 -1.51562
Q31.6875 -1.51562 25.4062 1.01562
Q19.1406 3.5625 14.75 8.40625
Q10.3594 13.2344 7.98438 20.2656
Q5.60938 27.2969 5.60938 36.3281
Q5.60938 45.2188 7.95312 52.2656
Q10.2969 59.3281 14.7969 64.3594
Q19.0938 69.1406 25.4688 71.6719
Q31.8438 74.2188 39.3594 74.2188
Q47.1719 74.2188 53.3906 71.6562
Q59.625 69.0938 63.9688 64.3594
M63.0938 36.3281
Q63.0938 50.4844 56.7344 58.1719
Q50.3906 65.875 39.4062 65.875
Q28.3281 65.875 22 58.1719
Q15.6719 50.4844 15.6719 36.3281
Q15.6719 22.0156 22.1094 14.4219
Q28.5625 6.84375 39.4062 6.84375
Q50.25 6.84375 56.6719 14.4219
Q63.0938 22.0156 63.0938 36.3281" id="Verdana-4f"/>
      <path d="
M38.375 67.0938
L37.8906 67.0938
Q36.375 67.5312 33.9375 67.9844
Q31.5 68.4531 29.6406 68.4531
Q23.7344 68.4531 21.0625 65.8438
Q18.4062 63.2344 18.4062 56.3906
L18.4062 54.5469
L34.9688 54.5469
L34.9688 46.8281
L18.7031 46.8281
L18.7031 0
L9.51562 0
L9.51562 46.8281
L3.32812 46.8281
L3.32812 54.5469
L9.51562 54.5469
L9.51562 56.3438
Q9.51562 66.0625 14.3438 71.2656
Q19.1875 76.4688 28.3281 76.4688
Q31.3906 76.4688 33.8594 76.1719
Q36.3281 75.875 38.375 75.4844
z
" id="Verdana-66"/>
      <path d="
M56.25 0
L44.6719 0
L29.2031 20.9531
L13.625 0
L2.9375 0
L24.2188 27.2031
L3.125 54.5469
L14.7031 54.5469
L30.0781 33.9375
L45.5156 54.5469
L56.25 54.5469
L34.8125 27.6875
z
" id="Verdana-78"/>
      <path d="
M54.6406 0
L45.4531 0
L45.4531 31.0625
Q45.4531 34.8125 45.0156 38.1094
Q44.5781 41.4062 43.4062 43.2656
Q42.1875 45.3125 39.8906 46.3125
Q37.5938 47.3125 33.9375 47.3125
Q30.1719 47.3125 26.0625 45.4531
Q21.9688 43.6094 18.2188 40.7188
L18.2188 0
L9.03125 0
L9.03125 54.5469
L18.2188 54.5469
L18.2188 48.4844
Q22.5156 52.0469 27.0938 54.0469
Q31.6875 56.0625 36.5312 56.0625
Q45.3594 56.0625 50 50.7344
Q54.6406 45.4062 54.6406 35.4062
z
" id="Verdana-6e"/>
      <path d="
M18.8906 63.6719
L8.54688 63.6719
L8.54688 73.1875
L18.8906 73.1875
z

M18.3125 0
L9.125 0
L9.125 54.5469
L18.3125 54.5469
z
" id="Verdana-69"/>
      <path d="
M56.2031 54.5469
L34.125 0
L24.9062 0
L2.98438 54.5469
L12.9375 54.5469
L29.8281 11.1406
L46.5781 54.5469
z
" id="Verdana-76"/>
      <path d="
M37.3594 0.484375
Q34.7656 -0.203125 31.7031 -0.640625
Q28.6562 -1.07812 26.2656 -1.07812
Q17.9219 -1.07812 13.5781 3.40625
Q9.23438 7.90625 9.23438 17.8281
L9.23438 46.8281
L3.03125 46.8281
L3.03125 54.5469
L9.23438 54.5469
L9.23438 70.2188
L18.4062 70.2188
L18.4062 54.5469
L37.3594 54.5469
L37.3594 46.8281
L18.4062 46.8281
L18.4062 21.9688
Q18.4062 17.6719 18.5938 15.25
Q18.7969 12.8438 19.9688 10.75
Q21.0469 8.79688 22.9219 7.89062
Q24.8125 6.98438 28.6562 6.98438
Q30.9062 6.98438 33.3438 7.64062
Q35.7969 8.29688 36.8594 8.73438
L37.3594 8.73438
z
" id="Verdana-74"/>
      <path d="
M54.6875 26.3125
L14.5 26.3125
Q14.5 21.2969 16.0156 17.5469
Q17.5312 13.8125 20.1719 11.4219
Q22.7031 9.07812 26.1875 7.90625
Q29.6875 6.73438 33.8906 6.73438
Q39.4531 6.73438 45.0938 8.95312
Q50.7344 11.1875 53.125 13.3281
L53.6094 13.3281
L53.6094 3.32812
Q48.9688 1.375 44.1406 0.046875
Q39.3125 -1.26562 33.9844 -1.26562
Q20.4062 -1.26562 12.7812 6.07812
Q5.17188 13.4219 5.17188 26.9531
Q5.17188 40.3281 12.4688 48.1875
Q19.7812 56.0625 31.6875 56.0625
Q42.7188 56.0625 48.7031 49.6094
Q54.6875 43.1719 54.6875 31.2969
z

M45.75 33.3438
Q45.7031 40.5781 42.1094 44.5312
Q38.5312 48.4844 31.2031 48.4844
Q23.8281 48.4844 19.4531 44.1406
Q15.0938 39.7969 14.5 33.3438
z
" id="Verdana-65"/>
      <path d="
M26.0312 63.6719
L15.6719 63.6719
L15.6719 73.1875
L26.0312 73.1875
z

M25.4375 -1.3125
Q25.4375 -10.8906 20.5469 -15.7656
Q15.6719 -20.6562 7.46875 -20.6562
Q5.51562 -20.6562 2.3125 -20.2656
Q-0.875 -19.875 -3.03125 -19.2812
L-3.03125 -10.5469
L-2.54688 -10.5469
Q-1.17188 -11.0781 1.14062 -11.7656
Q3.46875 -12.4531 5.67188 -12.4531
Q9.1875 -12.4531 11.3281 -11.4688
Q13.4844 -10.5 14.5469 -8.54688
Q15.625 -6.59375 15.9375 -3.82812
Q16.2656 -1.07812 16.2656 2.875
L16.2656 46.8281
L4.89062 46.8281
L4.89062 54.5469
L25.4375 54.5469
z
" id="Verdana-6a"/>
      <path d="
M55.5156 27.25
Q55.5156 13.9219 48.6719 6.20312
Q41.8438 -1.51562 30.375 -1.51562
Q18.7969 -1.51562 11.9844 6.20312
Q5.17188 13.9219 5.17188 27.25
Q5.17188 40.5781 11.9844 48.3125
Q18.7969 56.0625 30.375 56.0625
Q41.8438 56.0625 48.6719 48.3125
Q55.5156 40.5781 55.5156 27.25
M46.0469 27.25
Q46.0469 37.8438 41.8906 42.9844
Q37.75 48.1406 30.375 48.1406
Q22.9062 48.1406 18.7812 42.9844
Q14.6562 37.8438 14.6562 27.25
Q14.6562 17 18.7969 11.6875
Q22.9531 6.39062 30.375 6.39062
Q37.7031 6.39062 41.875 11.6406
Q46.0469 16.8906 46.0469 27.25" id="Verdana-6f"/>
      <path d="
M49.3594 3.42188
Q44.7812 1.21875 40.6562 0
Q36.5312 -1.21875 31.8906 -1.21875
Q25.9844 -1.21875 21.0469 0.515625
Q16.1094 2.25 12.5938 5.76562
Q9.03125 9.28125 7.07812 14.6406
Q5.125 20.0156 5.125 27.2031
Q5.125 40.5781 12.4688 48.1875
Q19.8281 55.8125 31.8906 55.8125
Q36.5781 55.8125 41.0938 54.4844
Q45.6094 53.1719 49.3594 51.2656
L49.3594 41.0625
L48.875 41.0625
Q44.6719 44.3438 40.2031 46.0938
Q35.75 47.8594 31.5 47.8594
Q23.6875 47.8594 19.1719 42.6094
Q14.6562 37.3594 14.6562 27.2031
Q14.6562 17.3281 19.0625 12.0312
Q23.4844 6.73438 31.5 6.73438
Q34.2812 6.73438 37.1562 7.46875
Q40.0469 8.20312 42.3281 9.375
Q44.3438 10.4062 46.0938 11.5469
Q47.8594 12.7031 48.875 13.5312
L49.3594 13.5312
z
" id="Verdana-63"/>
      <path d="
M48 15.7188
Q48 8.25 41.8125 3.46875
Q35.6406 -1.3125 24.9531 -1.3125
Q18.8906 -1.3125 13.8438 0.125
Q8.79688 1.5625 5.375 3.26562
L5.375 13.5781
L5.85938 13.5781
Q10.2031 10.2969 15.5156 8.375
Q20.8438 6.45312 25.7344 6.45312
Q31.7812 6.45312 35.2031 8.40625
Q38.625 10.3594 38.625 14.5469
Q38.625 17.7812 36.7656 19.4375
Q34.9062 21.0938 29.6406 22.2656
Q27.6875 22.7031 24.5312 23.2812
Q21.3906 23.875 18.7969 24.5625
Q11.625 26.4688 8.60938 30.1562
Q5.60938 33.8438 5.60938 39.2031
Q5.60938 42.5781 7 45.5469
Q8.40625 48.5312 11.2344 50.875
Q13.9688 53.1719 18.1875 54.5156
Q22.4062 55.8594 27.6406 55.8594
Q32.5156 55.8594 37.5156 54.6562
Q42.5312 53.4688 45.8438 51.7656
L45.8438 41.9375
L45.3594 41.9375
Q41.8438 44.5312 36.8125 46.3125
Q31.7812 48.0938 26.9531 48.0938
Q21.9219 48.0938 18.4531 46.1562
Q14.9844 44.2344 14.9844 40.4375
Q14.9844 37.0625 17.0938 35.3594
Q19.1406 33.6406 23.7344 32.5625
Q26.2656 31.9844 29.4062 31.3906
Q32.5625 30.8125 34.6719 30.3281
Q41.0625 28.8594 44.5312 25.2969
Q48 21.6875 48 15.7188" id="Verdana-73"/>
      <path id="Verdana-20"/>
      <path d="
M57.0312 27.6875
Q57.0312 20.8438 55.0938 15.375
Q53.1719 9.90625 49.9062 6.20312
Q46.4375 2.34375 42.2812 0.40625
Q38.1406 -1.51562 33.1562 -1.51562
Q28.5156 -1.51562 25.0469 -0.40625
Q21.5781 0.6875 18.2188 2.54688
L17.625 0
L9.03125 0
L9.03125 75.9844
L18.2188 75.9844
L18.2188 48.8281
Q22.0781 52 26.4219 54.0312
Q30.7656 56.0625 36.1875 56.0625
Q45.8438 56.0625 51.4375 48.6406
Q57.0312 41.2188 57.0312 27.6875
M47.5625 27.4375
Q47.5625 37.2031 44.3281 42.25
Q41.1094 47.3125 33.9375 47.3125
Q29.9375 47.3125 25.8281 45.5781
Q21.7344 43.8438 18.2188 41.1094
L18.2188 9.85938
Q22.125 8.10938 24.9219 7.42188
Q27.7344 6.73438 31.2969 6.73438
Q38.9219 6.73438 43.2344 11.7344
Q47.5625 16.75 47.5625 27.4375" id="Verdana-62"/>
      <path d="
M54.25 0
L45.0625 0
L45.0625 6.0625
Q40.4375 2.39062 36.1875 0.4375
Q31.9375 -1.51562 26.8125 -1.51562
Q18.2188 -1.51562 13.4219 3.73438
Q8.64062 8.98438 8.64062 19.1406
L8.64062 54.5469
L17.8281 54.5469
L17.8281 23.4844
Q17.8281 19.3438 18.2188 16.375
Q18.6094 13.4219 19.875 11.3281
Q21.1875 9.1875 23.2812 8.20312
Q25.3906 7.23438 29.3906 7.23438
Q32.9531 7.23438 37.1719 9.07812
Q41.4062 10.9375 45.0625 13.8125
L45.0625 54.5469
L54.25 54.5469
z
" id="Verdana-75"/>
     </defs>
     <g transform="translate(206.5078125 418.509375)scale(0.12 -0.12)">
      <use xlink:href="#Verdana-4f"/>
      <use x="78.7109375" xlink:href="#Verdana-62"/>
      <use x="141.015625" xlink:href="#Verdana-6a"/>
      <use x="175.439453125" xlink:href="#Verdana-65"/>
      <use x="235.009765625" xlink:href="#Verdana-63"/>
      <use x="287.109375" xlink:href="#Verdana-74"/>
      <use x="326.513671875" xlink:href="#Verdana-69"/>
      <use x="353.955078125" xlink:href="#Verdana-76"/>
      <use x="412.259765625" xlink:href="#Verdana-65"/>
      <use x="471.830078125" xlink:href="#Verdana-20"/>
      <use x="506.986328125" xlink:href="#Verdana-66"/>
      <use x="542.142578125" xlink:href="#Verdana-75"/>
      <use x="605.423828125" xlink:href="#Verdana-6e"/>
      <use x="668.705078125" xlink:href="#Verdana-63"/>
      <use x="720.8046875" xlink:href="#Verdana-74"/>
      <use x="760.208984375" xlink:href="#Verdana-69"/>
      <use x="787.650390625" xlink:href="#Verdana-6f"/>
      <use x="848.34375" xlink:href="#Verdana-6e"/>
      <use x="911.625" xlink:href="#Verdana-20"/>
      <use x="946.78125" xlink:href="#Verdana-65"/>
      <use x="1006.3515625" xlink:href="#Verdana-78"/>
      <use x="1064.40625" xlink:href="#Verdana-65"/>
      <use x="1123.9765625" xlink:href="#Verdana-63"/>
      <use x="1176.076171875" xlink:href="#Verdana-74"/>
      <use x="1215.48046875" xlink:href="#Verdana-75"/>
      <use x="1278.76171875" xlink:href="#Verdana-69"/>
      <use x="1306.203125" xlink:href="#Verdana-6f"/>
      <use x="1366.896484375" xlink:href="#Verdana-6e"/>
      <use x="1430.177734375" xlink:href="#Verdana-73"/>
     </g>
    </g>
   </g>
   <g id="matplotlib.axis_2">
    <g id="ytick_1">
     <g id="line2d_18">
      <defs>
       <path d="
M0 0
L4 0" id="md7965d1ba0" style="stroke:#000000;stroke-width:0.5;"/>
      </defs>
      <g>
       <use style="stroke:#000000;stroke-width:0.5;" x="72.0" xlink:href="#md7965d1ba0" y="388.8"/>
      </g>
     </g>
     <g id="line2d_19">
      <defs>
       <path d="
M0 0
L-4 0" id="md9a1c1a7cd" style="stroke:#000000;stroke-width:0.5;"/>
      </defs>
      <g>
       <use style="stroke:#000000;stroke-width:0.5;" x="518.4" xlink:href="#md9a1c1a7cd" y="388.8"/>
      </g>
     </g>
     <g id="text_8">
      <!-- 0.0 -->
      <defs>
       <path d="
M24.0312 0
L12.3594 0
L12.3594 13.9219
L24.0312 13.9219
z
" id="Verdana-2e"/>
      </defs>
      <g transform="translate(49.97 392.1515625)scale(0.12 -0.12)">
       <use xlink:href="#Verdana-30"/>
       <use x="63.57421875" xlink:href="#Verdana-2e"/>
       <use x="99.951171875" xlink:href="#Verdana-30"/>
      </g>
     </g>
    </g>
    <g id="ytick_2">
     <g id="line2d_20">
      <g>
       <use style="stroke:#000000;stroke-width:0.5;" x="72.0" xlink:href="#md7965d1ba0" y="319.68"/>
      </g>
     </g>
     <g id="line2d_21">
      <g>
       <use style="stroke:#000000;stroke-width:0.5;" x="518.4" xlink:href="#md9a1c1a7cd" y="319.68"/>
      </g>
     </g>
     <g id="text_9">
      <!-- 0.2 -->
      <g transform="translate(49.95875 323.0315625)scale(0.12 -0.12)">
       <use xlink:href="#Verdana-30"/>
       <use x="63.57421875" xlink:href="#Verdana-2e"/>
       <use x="99.951171875" xlink:href="#Verdana-32"/>
      </g>
     </g>
    </g>
    <g id="ytick_3">
     <g id="line2d_22">
      <g>
       <use style="stroke:#000000;stroke-width:0.5;" x="72.0" xlink:href="#md7965d1ba0" y="250.56"/>
      </g>
     </g>
     <g id="line2d_23">
      <g>
       <use style="stroke:#000000;stroke-width:0.5;" x="518.4" xlink:href="#md9a1c1a7cd" y="250.56"/>
      </g>
     </g>
     <g id="text_10">
      <!-- 0.4 -->
      <g transform="translate(49.76 253.9115625)scale(0.12 -0.12)">
       <use xlink:href="#Verdana-30"/>
       <use x="63.57421875" xlink:href="#Verdana-2e"/>
       <use x="99.951171875" xlink:href="#Verdana-34"/>
      </g>
     </g>
    </g>
    <g id="ytick_4">
     <g id="line2d_24">
      <g>
       <use style="stroke:#000000;stroke-width:0.5;" x="72.0" xlink:href="#md7965d1ba0" y="181.44"/>
      </g>
     </g>
     <g id="line2d_25">
      <g>
       <use style="stroke:#000000;stroke-width:0.5;" x="518.4" xlink:href="#md9a1c1a7cd" y="181.44"/>
      </g>
     </g>
     <g id="text_11">
      <!-- 0.6 -->
      <defs>
       <path d="
M58.1562 23.5781
Q58.1562 12.5 50.8594 5.48438
Q43.5625 -1.51562 32.9531 -1.51562
Q27.5938 -1.51562 23.1875 0.140625
Q18.7969 1.8125 15.4375 5.07812
Q11.2344 9.125 8.95312 15.8125
Q6.6875 22.5156 6.6875 31.9375
Q6.6875 41.6094 8.76562 49.0781
Q10.8438 56.5469 15.375 62.3594
Q19.6719 67.875 26.4531 70.9688
Q33.25 74.0781 42.2812 74.0781
Q45.1719 74.0781 47.125 73.8281
Q49.0781 73.5781 51.0781 72.9531
L51.0781 63.625
L50.5938 63.625
Q49.2188 64.3594 46.4531 65.0156
Q43.7031 65.6719 40.8281 65.6719
Q30.3281 65.6719 24.0781 59.1094
Q17.8281 52.5469 16.7969 41.3594
Q20.9062 43.8438 24.875 45.1406
Q28.8594 46.4375 34.0781 46.4375
Q38.7188 46.4375 42.25 45.5781
Q45.7969 44.7344 49.5156 42.1406
Q53.8125 39.1562 55.9844 34.6094
Q58.1562 30.0781 58.1562 23.5781
M48.25 23.1875
Q48.25 27.7344 46.9062 30.7031
Q45.5625 33.6875 42.4844 35.8906
Q40.2344 37.4531 37.5 37.9375
Q34.7656 38.4219 31.7812 38.4219
Q27.6406 38.4219 24.0781 37.4375
Q20.5156 36.4688 16.75 34.4219
Q16.6562 33.3438 16.5938 32.3438
Q16.5469 31.3438 16.5469 29.8281
Q16.5469 22.125 18.1406 17.6562
Q19.7344 13.1875 22.5156 10.5938
Q24.75 8.45312 27.3594 7.45312
Q29.9844 6.45312 33.0625 6.45312
Q40.1406 6.45312 44.1875 10.7656
Q48.25 15.0938 48.25 23.1875" id="Verdana-36"/>
      </defs>
      <g transform="translate(49.829375 184.7915625)scale(0.12 -0.12)">
       <use xlink:href="#Verdana-30"/>
       <use x="63.57421875" xlink:href="#Verdana-2e"/>
       <use x="99.951171875" xlink:href="#Verdana-36"/>
      </g>
     </g>
    </g>
    <g id="ytick_5">
     <g id="line2d_26">
      <g>
       <use style="stroke:#000000;stroke-width:0.5;" x="72.0" xlink:href="#md7965d1ba0" y="112.32"/>
      </g>
     </g>
     <g id="line2d_27">
      <g>
       <use style="stroke:#000000;stroke-width:0.5;" x="518.4" xlink:href="#md9a1c1a7cd" y="112.32"/>
      </g>
     </g>
     <g id="text_12">
      <!-- 0.8 -->
      <defs>
       <path d="
M57.625 20.2656
Q57.625 10.8438 50.2656 4.59375
Q42.9219 -1.65625 31.7812 -1.65625
Q19.9688 -1.65625 12.9531 4.4375
Q5.95312 10.5469 5.95312 20.0625
Q5.95312 26.125 9.46875 31.0312
Q12.9844 35.9375 19.3906 38.8125
L19.3906 39.1094
Q13.5312 42.2344 10.7188 45.9375
Q7.90625 49.6562 7.90625 55.2188
Q7.90625 63.4219 14.6406 68.8906
Q21.3906 74.3594 31.7812 74.3594
Q42.6719 74.3594 49.1719 69.1406
Q55.6719 63.9219 55.6719 55.8594
Q55.6719 50.9219 52.5938 46.1562
Q49.5156 41.4062 43.5625 38.7188
L43.5625 38.4219
Q50.3906 35.5 54 31.2031
Q57.625 26.9062 57.625 20.2656
M46.0469 55.7656
Q46.0469 60.9844 42.0156 64.0781
Q37.9844 67.1875 31.7344 67.1875
Q25.5938 67.1875 21.6562 64.25
Q17.7188 61.3281 17.7188 56.3438
Q17.7188 52.8281 19.7031 50.2656
Q21.6875 47.7031 25.6875 45.7031
Q27.4844 44.8281 30.875 43.4062
Q34.2812 42 37.5 41.0625
Q42.3281 44.2812 44.1875 47.75
Q46.0469 51.2188 46.0469 55.7656
M47.5625 19.3438
Q47.5625 23.8281 45.5781 26.5312
Q43.6094 29.25 37.8438 31.9844
Q35.5469 33.0625 32.8125 33.9844
Q30.0781 34.9062 25.5312 36.5781
Q21.1406 34.1875 18.4844 30.0781
Q15.8281 25.9844 15.8281 20.7969
Q15.8281 14.2031 20.3594 9.90625
Q24.9062 5.60938 31.8906 5.60938
Q39.0156 5.60938 43.2812 9.26562
Q47.5625 12.9375 47.5625 19.3438" id="Verdana-38"/>
      </defs>
      <g transform="translate(49.893125 115.6715625)scale(0.12 -0.12)">
       <use xlink:href="#Verdana-30"/>
       <use x="63.57421875" xlink:href="#Verdana-2e"/>
       <use x="99.951171875" xlink:href="#Verdana-38"/>
      </g>
     </g>
    </g>
    <g id="ytick_6">
     <g id="line2d_28">
      <g>
       <use style="stroke:#000000;stroke-width:0.5;" x="72.0" xlink:href="#md7965d1ba0" y="43.2"/>
      </g>
     </g>
     <g id="line2d_29">
      <g>
       <use style="stroke:#000000;stroke-width:0.5;" x="518.4" xlink:href="#md9a1c1a7cd" y="43.2"/>
      </g>
     </g>
     <g id="text_13">
      <!-- 1.0 -->
      <g transform="translate(50.796875 46.5515625)scale(0.12 -0.12)">
       <use xlink:href="#Verdana-31"/>
       <use x="63.57421875" xlink:href="#Verdana-2e"/>
       <use x="99.951171875" xlink:href="#Verdana-30"/>
      </g>
     </g>
    </g>
    <g id="text_14">
     <!-- Data Profile T-0.1000000 -->
     <defs>
      <path d="
M18.3125 0
L9.125 0
L9.125 75.9844
L18.3125 75.9844
z
" id="Verdana-6c"/>
      <path d="
M57.3281 50.7344
Q57.3281 45.9062 55.6406 41.7656
Q53.9531 37.6406 50.9219 34.625
Q47.1719 30.8594 42.0469 28.9688
Q36.9219 27.0938 29.1094 27.0938
L19.4375 27.0938
L19.4375 0
L9.76562 0
L9.76562 72.7031
L29.5 72.7031
Q36.0312 72.7031 40.5781 71.6094
Q45.125 70.5156 48.6406 68.1719
Q52.7812 65.375 55.0469 61.2188
Q57.3281 57.0781 57.3281 50.7344
M47.2656 50.4844
Q47.2656 54.25 45.9375 57.0312
Q44.625 59.8125 41.9375 61.5781
Q39.5938 63.0938 36.5938 63.75
Q33.5938 64.4062 29 64.4062
L19.4375 64.4062
L19.4375 35.3594
L27.5938 35.3594
Q33.4531 35.3594 37.1094 36.4062
Q40.7656 37.4531 43.0625 39.75
Q45.3594 42.0938 46.3125 44.6719
Q47.2656 47.2656 47.2656 50.4844" id="Verdana-50"/>
      <path d="
M71.1875 36.2812
Q71.1875 26.375 66.8594 18.3125
Q62.5469 10.25 55.375 5.8125
Q50.3906 2.73438 44.2656 1.35938
Q38.1406 0 28.125 0
L9.76562 0
L9.76562 72.7031
L27.9375 72.7031
Q38.5781 72.7031 44.8438 71.1562
Q51.125 69.625 55.4688 66.9375
Q62.8906 62.3125 67.0312 54.5938
Q71.1875 46.875 71.1875 36.2812
M61.0781 36.4219
Q61.0781 44.9688 58.0938 50.8281
Q55.125 56.6875 49.2188 60.0625
Q44.9219 62.5 40.0781 63.4531
Q35.25 64.4062 28.5156 64.4062
L19.4375 64.4062
L19.4375 8.29688
L28.5156 8.29688
Q35.5 8.29688 40.7031 9.32812
Q45.9062 10.3594 50.25 13.1406
Q55.6719 16.6094 58.375 22.2656
Q61.0781 27.9375 61.0781 36.4219" id="Verdana-44"/>
      <path d="
M61.625 64.1094
L35.6406 64.1094
L35.6406 0
L25.9844 0
L25.9844 64.1094
L0 64.1094
L0 72.7031
L61.625 72.7031
z
" id="Verdana-54"/>
      <path d="
M37.9375 27.3906
L7.46875 27.3906
L7.46875 36.2344
L37.9375 36.2344
z
" id="Verdana-2d"/>
      <path d="
M51.4219 0
L42.2812 0
L42.2812 5.8125
Q41.0625 4.98438 38.9844 3.48438
Q36.9219 2 34.9688 1.125
Q32.6719 0 29.6875 -0.75
Q26.7031 -1.51562 22.7031 -1.51562
Q15.3281 -1.51562 10.2031 3.35938
Q5.07812 8.25 5.07812 15.8281
Q5.07812 22.0156 7.73438 25.8438
Q10.4062 29.6875 15.3281 31.8906
Q20.3125 34.0781 27.2969 34.8594
Q34.2812 35.6406 42.2812 36.0312
L42.2812 37.4531
Q42.2812 40.5781 41.1875 42.625
Q40.0938 44.6719 38.0312 45.8438
Q36.0781 46.9688 33.3438 47.3594
Q30.6094 47.75 27.6406 47.75
Q24.0312 47.75 19.5781 46.7969
Q15.1406 45.8438 10.4062 44.0469
L9.90625 44.0469
L9.90625 53.375
Q12.5938 54.1094 17.6719 54.9844
Q22.75 55.8594 27.6875 55.8594
Q33.4531 55.8594 37.7188 54.9062
Q42 53.9531 45.125 51.6562
Q48.1875 49.4219 49.7969 45.8438
Q51.4219 42.2812 51.4219 37.0156
z

M42.2812 13.4219
L42.2812 28.6094
Q38.0938 28.375 32.3906 27.875
Q26.7031 27.3906 23.3906 26.4688
Q19.4375 25.3438 16.9844 22.9688
Q14.5469 20.6094 14.5469 16.4531
Q14.5469 11.7656 17.375 9.39062
Q20.2188 7.03125 26.0312 7.03125
Q30.8594 7.03125 34.8594 8.90625
Q38.875 10.7969 42.2812 13.4219" id="Verdana-61"/>
      <path d="
M43.0625 44.5312
L42.5781 44.5312
Q40.5312 45.0156 38.5938 45.2344
Q36.6719 45.4531 34.0312 45.4531
Q29.7812 45.4531 25.8281 43.5781
Q21.875 41.7031 18.2188 38.7188
L18.2188 0
L9.03125 0
L9.03125 54.5469
L18.2188 54.5469
L18.2188 46.4844
Q23.6875 50.875 27.8594 52.7031
Q32.0312 54.5469 36.375 54.5469
Q38.7656 54.5469 39.8438 54.4219
Q40.9219 54.2969 43.0625 53.9531
z
" id="Verdana-72"/>
     </defs>
     <g transform="translate(42.345 291.493125)rotate(-90.0)scale(0.12 -0.12)">
      <use xlink:href="#Verdana-44"/>
      <use x="77.05078125" xlink:href="#Verdana-61"/>
      <use x="137.109375" xlink:href="#Verdana-74"/>
      <use x="176.513671875" xlink:href="#Verdana-61"/>
      <use x="236.572265625" xlink:href="#Verdana-20"/>
      <use x="271.728515625" xlink:href="#Verdana-50"/>
      <use x="332.03125" xlink:href="#Verdana-72"/>
      <use x="374.70703125" xlink:href="#Verdana-6f"/>
      <use x="435.400390625" xlink:href="#Verdana-66"/>
      <use x="470.556640625" xlink:href="#Verdana-69"/>
      <use x="497.998046875" xlink:href="#Verdana-6c"/>
      <use x="525.439453125" xlink:href="#Verdana-65"/>
      <use x="585.009765625" xlink:href="#Verdana-20"/>
      <use x="620.166015625" xlink:href="#Verdana-54"/>
      <use x="674.412109375" xlink:href="#Verdana-2d"/>
      <use x="719.822265625" xlink:href="#Verdana-30"/>
      <use x="783.396484375" xlink:href="#Verdana-2e"/>
      <use x="819.7734375" xlink:href="#Verdana-31"/>
      <use x="883.34765625" xlink:href="#Verdana-30"/>
      <use x="946.921875" xlink:href="#Verdana-30"/>
      <use x="1010.49609375" xlink:href="#Verdana-30"/>
      <use x="1074.0703125" xlink:href="#Verdana-30"/>
      <use x="1137.64453125" xlink:href="#Verdana-30"/>
      <use x="1201.21875" xlink:href="#Verdana-30"/>
     </g>
    </g>
   </g>
   <g id="patch_3">
    <path d="
M72 43.2
L518.4 43.2" style="fill:none;stroke:#000000;"/>
   </g>
   <g id="patch_4">
    <path d="
M72 388.8
L72 43.2" style="fill:none;stroke:#000000;"/>
   </g>
   <g id="patch_5">
    <path d="
M72 388.8
L518.4 388.8" style="fill:none;stroke:#000000;"/>
   </g>
   <g id="patch_6">
    <path d="
M518.4 388.8
L518.4 43.2" style="fill:none;stroke:#000000;"/>
   </g>
   <g id="text_15">
    <!-- Weierstrass Data Profile T-0.1000000 -->
    <defs>
     <path d="
M94.3906 72.7031
L75.4844 0
L64.5938 0
L49.3125 60.3594
L34.375 0
L23.7344 0
L4.5 72.7031
L14.4062 72.7031
L29.6875 12.25
L44.7344 72.7031
L54.5469 72.7031
L69.7344 11.6719
L84.9062 72.7031
z
" id="Verdana-57"/>
    </defs>
    <g transform="translate(160.3215 38.2)scale(0.144 -0.144)">
     <use xlink:href="#Verdana-57"/>
     <use x="94.001953125" xlink:href="#Verdana-65"/>
     <use x="153.572265625" xlink:href="#Verdana-69"/>
     <use x="181.013671875" xlink:href="#Verdana-65"/>
     <use x="240.583984375" xlink:href="#Verdana-72"/>
     <use x="283.259765625" xlink:href="#Verdana-73"/>
     <use x="335.359375" xlink:href="#Verdana-74"/>
     <use x="374.763671875" xlink:href="#Verdana-72"/>
     <use x="415.689453125" xlink:href="#Verdana-61"/>
     <use x="475.748046875" xlink:href="#Verdana-73"/>
     <use x="527.84765625" xlink:href="#Verdana-73"/>
     <use x="579.947265625" xlink:href="#Verdana-20"/>
     <use x="615.103515625" xlink:href="#Verdana-44"/>
     <use x="692.154296875" xlink:href="#Verdana-61"/>
     <use x="752.212890625" xlink:href="#Verdana-74"/>
     <use x="791.6171875" xlink:href="#Verdana-61"/>
     <use x="851.67578125" xlink:href="#Verdana-20"/>
     <use x="886.83203125" xlink:href="#Verdana-50"/>
     <use x="947.134765625" xlink:href="#Verdana-72"/>
     <use x="989.810546875" xlink:href="#Verdana-6f"/>
     <use x="1050.50390625" xlink:href="#Verdana-66"/>
     <use x="1085.66015625" xlink:href="#Verdana-69"/>
     <use x="1113.1015625" xlink:href="#Verdana-6c"/>
     <use x="1140.54296875" xlink:href="#Verdana-65"/>
     <use x="1200.11328125" xlink:href="#Verdana-20"/>
     <use x="1235.26953125" xlink:href="#Verdana-54"/>
     <use x="1289.515625" xlink:href="#Verdana-2d"/>
     <use x="1334.92578125" xlink:href="#Verdana-30"/>
     <use x="1398.5" xlink:href="#Verdana-2e"/>
     <use x="1434.876953125" xlink:href="#Verdana-31"/>
     <use x="1498.451171875" xlink:href="#Verdana-30"/>
     <use x="1562.025390625" xlink:href="#Verdana-30"/>
     <use x="1625.599609375" xlink:href="#Verdana-30"/>
     <use x="1689.173828125" xlink:href="#Verdana-30"/>
     <use x="1752.748046875" xlink:href="#Verdana-30"/>
     <use x="1816.322265625" xlink:href="#Verdana-30"/>
    </g>
   </g>
   <g id="legend_1">
    <g id="patch_7">
     <path d="
M407.18 381.6
L511.2 381.6
L511.2 272.081
L407.18 272.081
L407.18 381.6
z
" style="fill:#ffffff;stroke:#000000;"/>
    </g>
    <g id="line2d_30">
     <path d="
M417.26 283.743
L437.42 283.743" style="fill:none;stroke:#0000ff;stroke-dasharray:6.000000,2.000000;stroke-dashoffset:0.0;"/>
    </g>
    <g id="line2d_31"/>
    <g id="text_16">
     <!-- AMPGO -->
     <defs>
      <path d="
M74.5156 0
L64.8438 0
L64.8438 62.6406
L44.625 20.0156
L38.875 20.0156
L18.7969 62.6406
L18.7969 0
L9.76562 0
L9.76562 72.7031
L22.9531 72.7031
L42.3281 32.2344
L61.0781 72.7031
L74.5156 72.7031
z
" id="Verdana-4d"/>
      <path d="
M70.4062 5.375
Q64.4531 2.64062 57.3906 0.609375
Q50.3438 -1.42188 43.75 -1.42188
Q35.25 -1.42188 28.1719 0.921875
Q21.0938 3.26562 16.1094 7.95312
Q11.0781 12.7031 8.34375 19.7969
Q5.60938 26.9062 5.60938 36.4219
Q5.60938 53.8594 15.7969 63.9375
Q25.9844 74.0312 43.75 74.0312
Q49.9531 74.0312 56.4219 72.5312
Q62.8906 71.0469 70.3594 67.4844
L70.3594 56
L69.4844 56
Q67.9688 57.1719 65.0781 59.0781
Q62.2031 60.9844 59.4219 62.25
Q56.0625 63.7656 51.7812 64.7656
Q47.5156 65.7656 42.0938 65.7656
Q29.8906 65.7656 22.7812 57.9219
Q15.6719 50.0938 15.6719 36.7188
Q15.6719 22.6094 23.0938 14.7656
Q30.5156 6.9375 43.3125 6.9375
Q48 6.9375 52.6562 7.85938
Q57.3281 8.79688 60.8438 10.25
L60.8438 28.0781
L41.3594 28.0781
L41.3594 36.5781
L70.4062 36.5781
z
" id="Verdana-47"/>
      <path d="
M67.0938 0
L56.7812 0
L49.6562 20.2656
L18.2188 20.2656
L11.0781 0
L1.26562 0
L27.7344 72.7031
L40.625 72.7031
z

M46.6875 28.5625
L33.9375 64.2656
L21.1406 28.5625
z
" id="Verdana-41"/>
     </defs>
     <g transform="translate(453.26025 288.783)scale(0.144 -0.144)">
      <use xlink:href="#Verdana-41"/>
      <use x="68.359375" xlink:href="#Verdana-4d"/>
      <use x="152.63671875" xlink:href="#Verdana-50"/>
      <use x="212.939453125" xlink:href="#Verdana-47"/>
      <use x="290.478515625" xlink:href="#Verdana-4f"/>
     </g>
    </g>
    <g id="line2d_32">
     <path d="
M417.26 304.783
L437.42 304.783" style="fill:none;stroke:#008000;stroke-dasharray:1.000000,1.000000;stroke-dashoffset:0.0;"/>
    </g>
    <g id="line2d_33"/>
    <g id="text_17">
     <!-- Anneal -->
     <g transform="translate(453.26025 309.82275)scale(0.144 -0.144)">
      <use xlink:href="#Verdana-41"/>
      <use x="68.359375" xlink:href="#Verdana-6e"/>
      <use x="131.640625" xlink:href="#Verdana-6e"/>
      <use x="194.921875" xlink:href="#Verdana-65"/>
      <use x="254.4921875" xlink:href="#Verdana-61"/>
      <use x="314.55078125" xlink:href="#Verdana-6c"/>
     </g>
    </g>
    <g id="line2d_34">
     <path d="
M417.26 325.822
L437.42 325.822" style="fill:none;stroke:#ff0000;stroke-dasharray:3.000000,6.000000;stroke-dashoffset:0.0;"/>
    </g>
    <g id="line2d_35"/>
    <g id="text_18">
     <!-- BSA -->
     <defs>
      <path d="
M64.5938 22.3594
Q64.5938 16.9375 62.5469 12.7812
Q60.5 8.64062 57.0312 5.95312
Q52.9375 2.73438 48.0156 1.35938
Q43.1094 0 35.5469 0
L9.76562 0
L9.76562 72.7031
L31.2969 72.7031
Q39.2656 72.7031 43.2188 72.1094
Q47.1719 71.5312 50.7812 69.6719
Q54.7812 67.5781 56.5938 64.2812
Q58.4062 60.9844 58.4062 56.3906
Q58.4062 51.2188 55.7656 47.5781
Q53.125 43.9531 48.7344 41.75
L48.7344 41.3594
Q56.1094 39.8438 60.3438 34.8906
Q64.5938 29.9375 64.5938 22.3594
M48.3438 55.125
Q48.3438 57.7656 47.4531 59.5625
Q46.5781 61.375 44.625 62.5
Q42.3281 63.8125 39.0625 64.125
Q35.7969 64.4531 30.9531 64.4531
L19.4375 64.4531
L19.4375 43.4531
L31.9375 43.4531
Q36.4688 43.4531 39.1562 43.9219
Q41.8438 44.3906 44.1406 45.8438
Q46.4375 47.3125 47.3906 49.625
Q48.3438 51.9531 48.3438 55.125
M54.5469 21.9688
Q54.5469 26.375 53.2188 28.9531
Q51.9062 31.5469 48.4375 33.3438
Q46.0938 34.5781 42.75 34.9375
Q39.4062 35.2969 34.625 35.2969
L19.4375 35.2969
L19.4375 8.25
L32.2344 8.25
Q38.5781 8.25 42.625 8.90625
Q46.6875 9.57812 49.2656 11.3281
Q52 13.2344 53.2656 15.6719
Q54.5469 18.1094 54.5469 21.9688" id="Verdana-42"/>
      <path d="
M62.5938 20.75
Q62.5938 16.5 60.6094 12.3438
Q58.6406 8.20312 55.0781 5.32812
Q51.1719 2.20312 45.9688 0.4375
Q40.7656 -1.3125 33.4531 -1.3125
Q25.5938 -1.3125 19.3125 0.140625
Q13.0312 1.60938 6.54688 4.5
L6.54688 16.6094
L7.23438 16.6094
Q12.75 12.0156 19.9688 9.51562
Q27.2031 7.03125 33.5469 7.03125
Q42.5312 7.03125 47.5312 10.3906
Q52.5469 13.7656 52.5469 19.3906
Q52.5469 24.2188 50.1719 26.5156
Q47.7969 28.8125 42.9688 30.0781
Q39.3125 31.0625 35.0312 31.6875
Q30.7656 32.3281 25.9844 33.2969
Q16.3125 35.3594 11.6406 40.3125
Q6.98438 45.2656 6.98438 53.2188
Q6.98438 62.3594 14.6875 68.1875
Q22.4062 74.0312 34.2812 74.0312
Q41.9375 74.0312 48.3281 72.5625
Q54.7344 71.0938 59.6719 68.9531
L59.6719 57.5156
L58.9844 57.5156
Q54.8281 61.0312 48.0625 63.3438
Q41.3125 65.6719 34.2344 65.6719
Q26.4688 65.6719 21.75 62.4531
Q17.0469 59.2344 17.0469 54.1562
Q17.0469 49.6094 19.3906 47.0156
Q21.7344 44.4375 27.6406 43.0625
Q30.7656 42.3906 36.5156 41.4062
Q42.2812 40.4375 46.2969 39.4062
Q54.3906 37.25 58.4844 32.9062
Q62.5938 28.5625 62.5938 20.75" id="Verdana-53"/>
     </defs>
     <g transform="translate(453.26025 330.8625)scale(0.144 -0.144)">
      <use xlink:href="#Verdana-42"/>
      <use x="68.5546875" xlink:href="#Verdana-53"/>
      <use x="135.9140625" xlink:href="#Verdana-41"/>
     </g>
    </g>
    <g id="line2d_36">
     <path d="
M417.26 346.862
L437.42 346.862" style="fill:none;stroke:#00bfbf;stroke-dasharray:5.000000,1.000000,2.000000,1.000000,5.000000,1.000000;stroke-dashoffset:0.0;"/>
    </g>
    <g id="line2d_37"/>
    <g id="text_19">
     <!-- Cuckoo -->
     <defs>
      <path d="
M65.9219 5.28125
Q63.2344 4.10938 61.0625 3.07812
Q58.8906 2.04688 55.375 0.921875
Q52.3906 0 48.8906 -0.65625
Q45.4062 -1.3125 41.2188 -1.3125
Q33.2969 -1.3125 26.8281 0.90625
Q20.3594 3.125 15.5781 7.85938
Q10.8906 12.5 8.25 19.6562
Q5.60938 26.8125 5.60938 36.2812
Q5.60938 45.2656 8.14062 52.3438
Q10.6875 59.4219 15.4844 64.3125
Q20.125 69.0469 26.6875 71.5312
Q33.25 74.0312 41.2656 74.0312
Q47.125 74.0312 52.9531 72.6094
Q58.7969 71.1875 65.9219 67.625
L65.9219 56.1562
L65.1875 56.1562
Q59.1875 61.1875 53.2656 63.4688
Q47.3594 65.7656 40.625 65.7656
Q35.1094 65.7656 30.6875 63.9844
Q26.2656 62.2031 22.7969 58.4531
Q19.4375 54.7812 17.5469 49.1875
Q15.6719 43.6094 15.6719 36.2812
Q15.6719 28.6094 17.75 23.0938
Q19.8281 17.5781 23.0938 14.1094
Q26.5156 10.5 31.0781 8.76562
Q35.6406 7.03125 40.7188 7.03125
Q47.7031 7.03125 53.7969 9.42188
Q59.9062 11.8125 65.2344 16.6094
L65.9219 16.6094
z
" id="Verdana-43"/>
      <path d="
M58.5469 0
L46.4375 0
L24.5625 23.875
L18.6094 18.2188
L18.6094 0
L9.42188 0
L9.42188 75.9844
L18.6094 75.9844
L18.6094 27.25
L45.125 54.5469
L56.6875 54.5469
L31.3438 29.3438
z
" id="Verdana-6b"/>
     </defs>
     <g transform="translate(453.26025 351.90225)scale(0.144 -0.144)">
      <use xlink:href="#Verdana-43"/>
      <use x="69.82421875" xlink:href="#Verdana-75"/>
      <use x="133.10546875" xlink:href="#Verdana-63"/>
      <use x="185.205078125" xlink:href="#Verdana-6b"/>
      <use x="243.384765625" xlink:href="#Verdana-6f"/>
      <use x="304.078125" xlink:href="#Verdana-6f"/>
     </g>
    </g>
    <g id="line2d_38">
     <path d="
M417.26 367.902
L437.42 367.902" style="fill:none;stroke:#bf00bf;stroke-linecap:square;"/>
    </g>
    <g id="line2d_39"/>
    <g id="text_20">
     <!-- qABC -->
     <defs>
      <path d="
M53.2656 -20.125
L44.0938 -20.125
L44.0938 6.15625
Q39.8438 2.48438 35.6406 0.703125
Q31.4531 -1.07812 26.5625 -1.07812
Q16.8438 -1.07812 11.0625 6.42188
Q5.28125 13.9219 5.28125 27.0938
Q5.28125 34.125 7.29688 39.5156
Q9.32812 44.9219 12.6406 48.5781
Q15.875 52.1562 20.2188 54.1094
Q24.5625 56.0625 29.3906 56.0625
Q33.7969 56.0625 37.1875 55.0781
Q40.5781 54.1094 44.0938 52.2031
L44.6719 54.5469
L53.2656 54.5469
z

M44.0938 13.875
L44.0938 44.7344
Q40.2812 46.4375 37.3438 47.1094
Q34.4219 47.7969 31 47.7969
Q23.0469 47.7969 18.8906 42.4062
Q14.75 37.0156 14.75 27.5469
Q14.75 17.9688 18.0938 12.8125
Q21.4375 7.67188 28.6094 7.67188
Q32.625 7.67188 36.625 9.40625
Q40.625 11.1406 44.0938 13.875" id="Verdana-71"/>
     </defs>
     <g transform="translate(453.26025 372.942)scale(0.144 -0.144)">
      <use xlink:href="#Verdana-71"/>
      <use x="62.3046875" xlink:href="#Verdana-41"/>
      <use x="130.6640625" xlink:href="#Verdana-42"/>
      <use x="199.21875" xlink:href="#Verdana-43"/>
     </g>
    </g>
   </g>
  </g>
 </g>
 <defs>
  <clipPath id="p7ff5b81e1d">
   <rect height="345.6" width="446.4" x="72.0" y="43.2"/>
  </clipPath>
 </defs>
</svg>
