<?xml version="1.0" encoding="utf-8" standalone="no"?>
<!DOCTYPE svg PUBLIC "-//W3C//DTD SVG 1.1//EN"
  "http://www.w3.org/Graphics/SVG/1.1/DTD/svg11.dtd">
<!-- Created with matplotlib (http://matplotlib.org/) -->
<svg height="432pt" version="1.1" viewBox="0 0 576 432" width="576pt" xmlns="http://www.w3.org/2000/svg" xmlns:xlink="http://www.w3.org/1999/xlink">
 <defs>
  <style type="text/css">
*{stroke-linecap:butt;stroke-linejoin:round;}
  </style>
 </defs>
 <g id="figure_1">
  <g id="patch_1">
   <path d="
M0 432
L576 432
L576 0
L0 0
z
" style="fill:#ffffff;"/>
  </g>
  <g id="axes_1">
   <g id="patch_2">
    <path d="
M72 388.8
L518.4 388.8
L518.4 43.2
L72 43.2
z
" style="fill:#ffffff;"/>
   </g>
   <g id="line2d_1">
    <path clip-path="url(#p7ff5b81e1d)" d="
M72 321.881
L72.0893 347.268
L72.1786 358.107
L72.4464 372.65
L72.8035 379.611
L73.0714 382.284
L73.1606 371.2
L73.2499 372.565
L73.607 376.753
L73.6963 372.927
L73.7856 373.467
L74.1427 375.941
L74.232 374.325
L74.5891 376.825
L74.6784 377.366
L74.7677 375.905
L75.2141 378.404
L75.3034 377.455
L75.5712 379.392
L75.839 380.882
L76.3747 383.565
L76.8211 385.334
L77.3568 386.652
L77.4461 386.47
L78.4282 387.332
L78.6067 387.392
L79.0531 387.705
L79.8566 388.195
L80.3923 388.375
L81.6422 388.582
L82.8029 388.676
L84.5885 388.763
L89.4989 388.795
L188.153 388.8
L518.311 388.8
L518.311 388.8" style="fill:none;stroke:#0000ff;stroke-dasharray:6.000000,2.000000;stroke-dashoffset:0.0;"/>
   </g>
   <g id="line2d_2">
    <path clip-path="url(#p7ff5b81e1d)" d="
M72 317.784
L72.0893 336.255
L72.1786 344.753
L72.2678 349.231
L73.5178 290.377
L75.0355 184.893
L75.4819 159.758
L75.6605 157.667
L75.7498 158.07
L75.839 158.573
L75.9283 157.607
L76.0176 157.87
L76.2854 162.358
L76.3747 163.503
L76.5533 162.785
L76.6426 163.211
L76.7318 164.435
L76.9104 163.707
L76.9997 162.234
L77.089 163.253
L77.1782 162.953
L77.2675 163.701
L78.5174 121.948
L78.6067 120.37
L78.9638 109.075
L79.0531 107.044
L80.8387 135.263
L82.6243 100.554
L82.7136 101.123
L82.9814 103.789
L83.6957 113.217
L83.785 113.173
L84.0528 114.636
L84.3206 115.57
L84.4099 116.875
L85.0349 106.801
L85.392 103.13
L85.7491 98.7329
L85.8384 98.3415
L86.1955 94.5685
L86.4634 97.8579
L86.6419 98.5908
L86.7312 98.6819
L86.8205 99.2571
L86.999 101.466
L87.1776 101.662
L87.2669 101.963
L87.5347 103.838
L87.624 103.758
L87.8918 105.626
L87.9811 105.417
L88.0704 105.122
L89.6774 91.8966
L89.7667 91.4778
L89.856 91.7686
L89.9453 91.4757
L90.3917 93.3476
L90.481 93.6687
L90.6595 94.9293
L90.7488 94.4806
L90.9274 94.8789
L91.0166 94.7277
L91.1059 95.5813
L91.2845 94.8284
L91.5523 95.3946
L91.9094 92.5489
L91.9987 92.3679
L92.088 91.7771
L92.2666 90.097
L92.713 86.474
L93.1594 83.1853
L93.4272 82.5578
L93.7843 84.5115
L93.8736 84.5497
L94.2307 85.5117
L94.32 85.5581
L94.5878 87.3919
L94.7664 86.2931
L94.945 86.711
L95.0342 86.6545
L95.1235 86.7518
L95.2128 86.6508
L95.5699 84.3761
L95.927 82.5988
L96.4627 79.2641
L96.9091 77.3566
L96.9984 77.2499
L97.3555 77.6674
L97.4448 77.4308
L97.7126 78.0392
L98.0698 77.6939
L98.2483 78.13
L98.3376 78.1106
L98.6054 78.6085
L98.8733 77.8699
L99.1411 76.3924
L99.9446 74.23
L100.212 73.0397
L100.659 71.8453
L100.837 71.8495
L101.016 72.2524
L101.105 71.899
L101.73 74.1864
L101.82 74.1276
L101.998 73.8993
L102.177 74.3226
L104.052 68.4034
L104.23 68.7404
L104.319 68.5033
L104.587 69.3517
L104.855 67.9196
L105.123 68.9998
L105.212 68.9442
L105.48 69.3977
L105.569 69.4108
L105.748 69.7165
L105.837 69.7367
L106.194 68.9472
L106.373 68.1481
L106.641 67.5598
L106.73 67.5174
L106.819 67.6244
L106.998 67.3634
L107.444 66.5631
L107.533 66.2047
L107.623 66.2286
L107.712 66.4421
L107.891 66.1807
L108.158 66.7588
L108.426 66.286
L108.516 66.2464
L108.605 66.0122
L108.783 66.3413
L108.962 65.9246
L109.14 66.2167
L109.319 66.5008
L109.587 66.379
L109.676 66.2894
L110.301 64.304
L110.48 63.9439
L110.837 63.0953
L110.926 63.0857
L111.283 62.2018
L111.372 62.307
L111.462 62.234
L111.551 62.3959
L111.73 62.323
L111.819 62.3916
L112.176 61.9734
L112.355 62.0384
L112.533 62.1005
L112.89 61.5111
L112.98 61.6663
L113.158 61.5409
L113.515 60.7358
L113.694 60.5722
L114.051 59.9009
L114.229 59.7636
L114.765 59.2925
L114.944 59.4722
L115.122 59.3767
L115.658 58.8721
L115.747 58.8661
L116.015 58.5535
L116.194 59.0242
L116.372 58.756
L116.461 59.0307
L116.551 58.9603
L116.997 58.0747
L117.265 57.6708
L117.979 56.7959
L118.336 56.4347
L118.515 56.504
L118.783 56.3457
L118.961 56.3385
L119.229 56.2955
L119.318 56.4281
L119.408 56.2095
L119.497 55.6628
L119.586 55.7028
L119.676 55.7243
L119.943 55.5547
L120.211 55.6533
L121.283 54.2271
L121.55 53.9249
L122.086 53.4382
L122.265 53.5618
L122.622 53.5582
L122.8 53.7846
L123.068 53.6897
L123.247 53.9106
L123.425 53.8455
L123.693 53.7854
L123.961 53.4749
L124.854 53.15
L125.122 52.7433
L125.389 52.5754
L125.568 52.367
L125.657 52.355
L125.836 52.1221
L126.104 52.2535
L126.193 51.8836
L126.372 52.0604
L126.55 51.9404
L126.818 51.8167
L127.086 51.769
L127.264 51.809
L128.068 50.9955
L129.05 50.5757
L129.228 50.6593
L129.407 50.6718
L130.121 50.8277
L130.3 50.682
L130.389 50.7835
L130.568 50.7835
L130.746 50.8152
L130.836 50.9663
L131.996 50.12
L132.889 49.8387
L133.246 49.6805
L133.514 49.601
L133.692 49.4404
L134.585 49.8226
L135.032 49.5939
L136.192 49.0994
L136.371 49.2314
L138.781 48.3421
L139.139 48.2913
L139.853 48.0673
L140.121 48.0172
L141.192 47.9563
L143.067 47.4546
L143.335 47.3363
L143.513 47.3429
L143.87 47.4314
L144.763 47.4057
L144.942 47.5222
L146.102 47.2467
L146.281 46.6192
L146.727 46.5458
L147.62 46.4699
L147.888 46.5882
L148.692 46.4789
L149.852 46.2914
L150.745 46.111
L151.459 46.0166
L151.727 45.976
L151.995 46.0095
L153.245 45.8691
L153.959 45.7389
L154.852 45.6123
L155.388 45.4898
L157.262 45.2884
L158.691 45.1105
L159.227 45.0239
L162.887 44.7635
L163.066 44.8854
L164.226 44.7827
L168.601 44.3652
L168.958 44.3825
L169.762 44.3246
L171.904 44.1867
L174.315 44.0529
L197.26 43.3947
L212.705 43.3123
L212.884 43.5075
L222.972 43.4122
L242.525 43.302
L246.81 43.2813
L246.989 43.3882
L254.22 43.37
L254.399 43.8145
L274.666 43.6474
L285.915 43.6352
L286.093 43.8329
L300.646 43.8855
L300.825 44.0613
L314.217 44.1468
L314.574 44.1773
L318.324 44.2244
L318.502 44.3049
L322.52 44.3574
L322.698 44.4478
L323.412 44.4392
L323.591 44.5589
L328.769 44.6175
L328.948 44.7628
L334.483 44.7713
L334.662 44.9435
L336.18 44.8873
L337.429 44.9716
L338.144 45.0985
L339.661 45.0998
L343.322 45.0473
L344.393 45.0326
L344.661 45.1303
L345.375 45.162
L348.589 45.2157
L348.768 45.3036
L350.554 45.3171
L353.768 45.3806
L353.946 45.5027
L354.839 45.5735
L355.018 45.6235
L356.892 45.6846
L357.071 45.7969
L357.25 45.7786
L357.428 46.0789
L358.678 46.1949
L359.571 46.2889
L359.749 46.4269
L360.017 46.477
L361.178 46.5356
L361.356 46.6113
L361.535 46.6027
L361.714 46.9653
L362.249 46.9201
L364.035 47.4049
L364.303 47.3878
L364.571 47.4464
L365.91 47.4354
L366.178 47.5208
L367.517 47.4781
L368.142 47.4012
L368.32 47.4012
L368.41 47.6087
L368.499 47.5501
L368.767 47.8371
L370.017 47.9079
L370.195 48.0556
L370.552 48.0837
L370.731 48.2741
L371.177 48.1777
L371.981 48.2192
L372.159 48.6246
L372.784 48.605
L373.052 48.6477
L373.231 48.7515
L373.409 48.7711
L373.677 48.9774
L373.856 49.2777
L373.945 49.2668
L374.124 49.3986
L374.748 49.3937
L374.927 49.5
L375.373 49.4755
L375.641 49.5012
L376.802 49.4963
L377.963 49.9383
L378.32 49.8723
L378.498 50.1348
L381.355 50.1519
L381.534 50.2838
L382.516 50.3851
L382.784 50.4913
L383.141 50.4108
L383.409 50.4327
L383.587 50.5231
L384.034 50.7563
L384.212 51.0041
L384.48 50.9773
L384.926 51.0432
L385.105 51.241
L385.462 51.2581
L385.641 51.4009
L385.908 51.2849
L386.176 51.2923
L386.266 51.9552
L386.355 51.9394
L386.533 52.1249
L387.962 52.1042
L388.14 52.2837
L388.765 52.3423
L389.212 52.4912
L389.658 52.6109
L390.283 52.6878
L390.64 52.7989
L391.265 52.7488
L391.444 52.855
L391.533 52.855
L391.712 53.0077
L393.14 53.2518
L393.319 53.3361
L393.854 53.2958
L394.033 53.4362
L394.569 53.4081
L394.836 53.562
L395.015 53.5815
L395.372 54.2261
L396.265 54.2884
L396.444 54.336
L396.622 55.1064
L396.711 55.0783
L397.872 55.1247
L398.051 55.3518
L398.765 55.4117
L398.943 55.6229
L399.122 55.6241
L399.3 55.9354
L399.479 55.9806
L399.658 56.6289
L399.836 56.6545
L400.015 57.3053
L400.193 57.4897
L400.372 57.9451
L400.997 58.0342
L401.265 58.0733
L401.443 58.4859
L401.532 58.4798
L401.711 58.7631
L402.247 58.7887
L402.425 59.0305
L402.693 59.2087
L402.782 59.1989
L402.961 59.3137
L403.407 59.2649
L403.764 59.2624
L403.943 59.492
L404.3 59.4773
L404.479 59.7288
L405.372 59.763
L405.55 59.7703
L405.996 60.0939
L406.443 60.0866
L406.621 60.3124
L407.514 60.6225
L407.693 60.8423
L407.871 61.0193
L408.05 61.5102
L408.496 61.8899
L408.764 61.9118
L408.943 62.0095
L409.389 62.0718
L409.568 62.2085
L409.746 62.1621
L409.836 62.305
L410.014 62.189
L410.193 62.4136
L410.55 62.6896
L410.728 62.7494
L410.907 62.9313
L411.175 62.8617
L411.443 63.4087
L411.621 63.5662
L412.96 63.4807
L413.317 63.974
L413.764 63.9544
L413.942 64.4013
L414.121 64.4037
L414.3 64.7309
L414.746 64.6272
L415.103 64.8152
L415.192 65.2608
L415.282 65.2071
L416.264 65.422
L416.442 65.6894
L416.978 65.6576
L417.156 66.1728
L417.335 66.1814
L417.692 66.5159
L417.96 66.555
L418.139 66.7943
L418.674 66.9396
L419.031 67.1618
L419.121 67.1618
L419.388 67.7796
L419.656 67.6795
L419.835 68.2301
L419.924 68.1959
L420.281 68.9053
L420.728 68.9224
L420.906 69.169
L421.174 69.1922
L421.442 68.981
L421.531 69.0066
L421.62 69.1531
L421.71 69.097
L421.978 69.1287
L422.156 69.1409
L422.245 69.0054
L422.424 69.2203
L422.692 69.0994
L422.87 69.1543
L422.96 69.3143
L423.049 69.252
L423.406 69.2545
L423.585 69.4327
L423.674 69.44
L423.942 69.9113
L424.924 69.9736
L425.192 70.3692
L425.46 70.396
L425.727 71.3044
L426.799 71.4546
L427.067 71.9673
L427.692 72.6266
L428.316 72.7512
L428.495 73.2493
L428.852 73.4227
L429.12 73.9916
L429.477 74.0368
L429.656 74.4141
L429.834 74.6094
L430.281 74.1894
L430.459 74.5313
L430.638 74.4629
L430.995 74.6363
L431.352 75.1234
L431.709 75.0319
L432.334 76.2137
L432.423 76.171
L432.87 77.0305
L433.048 77.4188
L433.227 77.564
L433.405 77.7667
L433.584 77.6715
L433.941 77.724
L434.03 77.6336
L434.209 77.8778
L434.298 77.9682
L434.477 78.6104
L434.655 78.6299
L434.834 79.2123
L435.012 79.3185
L435.637 79.73
L435.727 79.6567
L436.084 79.8838
L436.352 80.0987
L436.53 80.4894
L436.62 80.5028
L436.887 80.8508
L437.066 80.8715
L437.155 80.9838
L437.244 80.8849
L437.423 81.6163
L437.512 81.5333
L437.691 81.7433
L438.048 82.6565
L438.137 82.6736
L438.316 83.096
L438.673 83.0948
L439.03 83.9141
L439.209 84.0947
L439.387 84.3988
L439.476 84.4
L439.655 84.5904
L440.101 84.7711
L440.191 84.765
L440.459 85.0922
L440.548 85.0922
L440.726 85.4512
L440.816 85.4573
L440.905 85.8541
L440.994 85.8272
L441.441 85.7552
L441.53 85.7003
L441.619 85.8199
L441.798 85.7699
L442.066 85.8285
L442.601 86.3974
L442.78 86.8528
L443.137 86.7905
L443.494 87.0518
L443.673 87.1068
L443.762 87.0726
L443.94 87.285
L444.03 87.2789
L444.298 87.694
L444.476 87.8112
L444.565 87.7636
L444.744 88.1018
L445.101 88.0505
L445.458 88.6622
L445.637 88.6927
L445.905 88.8002
L446.083 88.7526
L446.172 88.9589
L446.262 88.9015
L446.53 88.9955
L446.708 89.0724
L446.887 88.9418
L447.065 89.0956
L447.244 89.4949
L447.422 90.3569
L447.69 90.3556
L447.78 90.5302
L448.047 90.3825
L448.583 91.0735
L448.672 90.9575
L449.029 91.4325
L449.208 91.297
L449.387 91.3812
L449.744 91.6522
L449.922 91.6339
L450.012 91.5827
L450.19 91.8549
L450.279 91.7206
L450.369 91.7389
L450.726 92.7816
L450.815 92.734
L450.994 93.3286
L451.172 93.3457
L451.351 93.784
L451.619 93.9415
L451.797 93.9537
L451.976 94.1295
L452.333 94.348
L452.511 94.3969
L452.868 95
L453.047 95.055
L453.136 95.0769
L453.404 95.6178
L453.493 95.6178
L453.672 95.8009
L453.761 95.7179
L453.851 96.1049
L454.029 95.989
L454.118 95.9645
L454.386 96.2612
L454.565 96.8375
L454.654 96.9169
L454.833 97.4406
L455.1 97.3454
L455.458 97.5408
L455.725 98.0194
L455.993 97.9717
L456.083 97.9498
L456.44 98.6628
L456.618 98.697
L457.065 99.1353
L457.332 99.283
L457.511 99.5296
L457.6 99.4857
L457.779 99.67
L458.047 99.7409
L459.029 101.224
L459.386 101.239
L459.743 101.743
L460.1 101.677
L460.189 101.483
L460.279 101.997
L460.368 101.803
L460.636 102.523
L460.725 102.523
L461.082 102.918
L461.172 102.904
L461.261 102.722
L461.529 103.343
L461.618 103.2
L461.886 104.133
L461.975 104.345
L462.064 104.136
L462.243 104.274
L462.421 104.616
L462.779 104.67
L463.582 106.192
L463.671 106.273
L463.85 106.932
L464.386 107.013
L464.475 107.065
L464.653 107.481
L464.832 107.644
L465.011 107.455
L465.1 107.731
L465.189 107.65
L465.368 107.59
L465.457 107.635
L465.903 109.407
L466.528 109.553
L466.707 109.779
L466.885 109.785
L466.975 109.794
L467.153 110.036
L467.332 110.17
L467.6 110.568
L467.778 110.65
L468.314 110.701
L468.492 111.459
L469.207 113.187
L469.475 113.309
L469.564 113.291
L469.742 113.993
L469.832 113.896
L469.921 114.002
L470.278 115.151
L470.367 115.294
L470.546 115.218
L470.814 115.327
L470.903 115.811
L470.992 115.656
L471.26 116.422
L471.439 116.483
L471.528 116.541
L471.617 116.409
L471.974 116.989
L472.332 117.073
L472.599 117.239
L472.778 117.277
L472.956 118.206
L473.046 118.213
L473.224 118.321
L473.403 118.375
L473.581 118.922
L473.849 118.814
L473.939 118.724
L474.117 119.036
L474.385 119.431
L474.474 119.257
L474.564 119.449
L474.653 119.393
L474.831 119.365
L475.188 119.929
L475.367 120.302
L475.456 120.313
L475.635 120.81
L476.26 121.644
L476.974 121.81
L477.153 122.145
L477.242 122.152
L477.51 123.013
L477.599 123.02
L477.778 123.506
L478.045 123.722
L478.492 124.755
L478.581 124.751
L478.76 124.921
L478.938 125.65
L479.028 125.588
L479.295 126.275
L479.474 126.376
L479.563 126.414
L479.742 126.892
L479.831 126.928
L480.099 127.694
L480.188 127.607
L480.545 127.826
L480.724 128.207
L481.081 128.48
L481.26 128.776
L481.349 128.802
L481.438 128.597
L481.706 129.319
L481.884 129.119
L482.42 129.125
L482.599 129.473
L482.867 131.182
L483.045 131.195
L483.67 132.9
L483.759 132.73
L483.849 132.869
L484.116 133.885
L484.384 134.201
L484.563 134.898
L484.652 135.056
L484.92 134.914
L485.099 135.025
L485.188 135.057
L485.456 135.434
L485.545 135.384
L485.634 135.478
L485.902 136.118
L486.17 136.514
L486.259 136.67
L486.438 137.516
L486.616 137.47
L486.795 137.843
L486.973 138.29
L487.152 138.656
L487.331 138.742
L487.866 139.669
L488.134 139.804
L488.223 140.07
L488.313 140.015
L488.759 139.924
L489.384 140.731
L489.652 141.358
L489.741 141.286
L490.455 142.905
L490.634 142.887
L490.812 143.258
L490.902 143.254
L491.17 143.64
L491.259 143.649
L491.616 144.676
L491.705 144.709
L492.241 145.695
L492.509 145.798
L492.687 145.608
L493.223 146.495
L493.402 146.61
L493.669 146.458
L493.759 146.475
L493.937 147.246
L494.205 147.631
L494.473 148.282
L494.562 148.186
L494.83 148.598
L495.098 148.553
L495.455 149.552
L495.723 150.479
L495.812 150.458
L496.348 151.276
L496.705 151.56
L496.884 151.48
L497.33 152.372
L497.419 152.411
L497.598 152.651
L497.776 153.509
L497.866 153.605
L497.955 154.086
L498.044 153.851
L498.401 154.422
L498.669 154.509
L498.758 154.931
L498.848 154.825
L498.937 154.852
L499.116 155.084
L499.294 155.157
L499.562 155.666
L499.83 156.364
L500.098 156.429
L500.187 156.31
L500.365 156.906
L500.455 156.824
L500.99 158.402
L501.169 158.269
L501.437 158.901
L501.883 158.952
L501.972 159.051
L502.062 159.338
L502.151 159.296
L502.508 159.473
L503.044 160.721
L503.222 160.634
L503.312 160.614
L503.49 161.192
L503.58 161.206
L503.669 161.093
L503.847 161.103
L504.026 161.103
L504.74 162.491
L504.829 162.659
L505.008 163.09
L505.276 163.44
L505.365 163.468
L505.454 163.645
L505.544 163.6
L505.812 163.566
L506.079 164.072
L506.258 164.259
L506.436 165.022
L506.526 164.999
L506.615 165.055
L506.883 165.774
L507.061 165.707
L507.329 165.789
L507.508 166.113
L507.597 166.104
L507.686 165.938
L507.954 166.392
L508.044 166.396
L508.401 167.326
L508.49 167.27
L508.668 168.087
L508.758 168.089
L508.847 168.282
L508.936 168.214
L509.472 168.709
L509.651 168.811
L510.276 169.33
L510.454 169.368
L510.543 169.513
L510.722 169.411
L510.9 169.432
L511.079 169.734
L511.525 169.999
L512.24 172.25
L512.329 172.249
L512.508 172.45
L512.775 172.426
L513.311 173.348
L513.668 175.193
L514.65 176.266
L514.829 176.383
L515.007 177.188
L515.275 177.278
L515.454 177.782
L515.632 177.91
L515.811 177.969
L515.9 177.86
L515.989 178.299
L516.079 178.267
L516.257 178.584
L516.525 178.513
L516.704 178.898
L516.793 178.839
L516.972 178.974
L517.15 180.102
L517.239 180.19
L517.418 180.562
L517.686 180.342
L517.775 180.43
L518.132 181.262
L518.221 181.18
L518.311 181.257
L518.311 181.257" style="fill:none;stroke:#008000;stroke-dasharray:1.000000,1.000000;stroke-dashoffset:0.0;"/>
   </g>
   <g id="line2d_3">
    <path clip-path="url(#p7ff5b81e1d)" d="
M72 317.78
L72.0893 293.032
L72.1786 290.765
L72.2678 289.09
L72.3571 289.352
L72.4464 289.914
L72.625 287.185
L72.8035 289.476
L72.9821 287.982
L73.0714 287.645
L73.3392 298.41
L73.607 305.393
L73.8749 313.443
L74.0534 316.575
L74.4998 327.024
L75.4819 346.761
L75.839 358.218
L76.9104 376.345
L77.2675 380.243
L77.3568 380.469
L77.4461 380.398
L77.5354 380.421
L77.8925 381.316
L78.2496 382.53
L78.8746 384.621
L78.9638 384.614
L79.2317 385.369
L79.321 385.652
L79.4102 385.545
L80.4816 387.284
L81.0173 387.759
L81.4637 387.834
L81.8208 387.975
L81.9994 387.91
L82.7136 388.214
L82.8922 388.077
L83.6064 388.274
L87.4454 388.682
L91.1952 388.766
L98.9626 388.79
L212.705 388.796
L212.884 388.601
L225.472 388.662
L254.22 388.64
L254.399 388.196
L273.237 388.342
L285.915 388.368
L286.093 388.17
L300.646 388.115
L300.825 387.939
L314.217 387.854
L314.574 387.823
L318.324 387.776
L318.502 387.695
L322.52 387.643
L322.698 387.552
L323.412 387.561
L323.591 387.441
L328.769 387.383
L328.948 387.237
L334.483 387.229
L334.662 387.057
L336.18 387.113
L337.429 387.028
L338.144 386.901
L339.661 386.9
L343.322 386.953
L344.393 386.967
L344.661 386.87
L345.375 386.838
L348.589 386.784
L348.768 386.696
L350.554 386.683
L353.768 386.619
L353.946 386.497
L354.839 386.427
L355.018 386.376
L356.892 386.315
L357.071 386.203
L357.25 386.221
L357.428 385.921
L358.678 385.805
L359.571 385.711
L359.749 385.573
L360.017 385.523
L361.178 385.464
L361.356 385.389
L361.535 385.397
L361.714 385.035
L362.249 385.08
L364.035 384.595
L364.303 384.612
L364.571 384.554
L365.91 384.565
L366.178 384.479
L367.517 384.522
L368.142 384.599
L368.32 384.599
L368.41 384.391
L368.499 384.45
L368.767 384.163
L370.017 384.092
L370.195 383.944
L370.552 383.916
L370.731 383.726
L371.177 383.822
L371.981 383.781
L372.159 383.375
L372.784 383.395
L373.052 383.352
L373.231 383.248
L373.409 383.229
L373.677 383.023
L373.856 382.722
L373.945 382.733
L374.124 382.601
L374.748 382.606
L374.927 382.5
L375.373 382.524
L375.641 382.499
L376.802 382.504
L377.963 382.062
L378.32 382.128
L378.498 381.865
L381.355 381.848
L381.534 381.716
L382.516 381.615
L382.784 381.509
L383.141 381.589
L383.409 381.567
L383.587 381.477
L384.034 381.244
L384.212 380.996
L384.48 381.023
L384.926 380.957
L385.105 380.759
L385.462 380.742
L385.641 380.599
L385.908 380.715
L386.176 380.708
L386.266 380.045
L386.355 380.061
L386.533 379.875
L387.962 379.896
L388.14 379.716
L388.765 379.658
L389.212 379.509
L389.658 379.389
L390.283 379.312
L390.64 379.201
L391.265 379.251
L391.444 379.145
L391.533 379.145
L391.712 378.992
L393.14 378.748
L393.319 378.664
L393.854 378.704
L394.033 378.564
L394.569 378.592
L394.836 378.438
L395.015 378.419
L395.372 377.774
L396.265 377.712
L396.444 377.664
L396.622 376.894
L396.711 376.922
L397.872 376.875
L398.051 376.648
L398.765 376.588
L398.943 376.377
L399.122 376.376
L399.3 376.065
L399.479 376.019
L399.658 375.371
L399.836 375.345
L400.015 374.695
L400.193 374.51
L400.372 374.055
L400.997 373.966
L401.265 373.927
L401.443 373.514
L401.532 373.52
L401.711 373.237
L402.247 373.211
L402.425 372.97
L402.693 372.791
L402.782 372.801
L402.961 372.686
L403.407 372.735
L403.764 372.738
L403.943 372.508
L404.3 372.523
L404.479 372.271
L405.372 372.237
L405.55 372.23
L405.996 371.906
L406.443 371.913
L406.621 371.688
L407.514 371.377
L407.693 371.158
L407.871 370.981
L408.05 370.49
L408.496 370.11
L408.764 370.088
L408.943 369.99
L409.389 369.928
L409.568 369.791
L409.746 369.838
L409.836 369.695
L410.014 369.811
L410.193 369.586
L410.55 369.31
L410.728 369.251
L410.907 369.069
L411.175 369.138
L411.443 368.591
L411.621 368.434
L412.96 368.519
L413.317 368.026
L413.764 368.046
L413.942 367.599
L414.121 367.596
L414.3 367.269
L414.746 367.373
L415.103 367.185
L415.192 366.739
L415.282 366.793
L416.264 366.578
L416.442 366.311
L416.978 366.342
L417.156 365.827
L417.335 365.819
L417.692 365.484
L417.96 365.445
L418.139 365.206
L418.674 365.06
L419.031 364.838
L419.121 364.838
L419.388 364.22
L419.656 364.321
L419.835 363.77
L419.924 363.804
L420.281 363.095
L420.728 363.078
L420.906 362.831
L421.174 362.808
L421.442 363.019
L421.531 362.993
L421.62 362.847
L421.71 362.903
L421.978 362.871
L422.156 362.859
L422.245 362.995
L422.424 362.78
L422.692 362.901
L422.87 362.846
L422.96 362.686
L423.049 362.748
L423.406 362.746
L423.585 362.567
L423.674 362.56
L423.942 362.089
L424.924 362.026
L425.192 361.631
L425.46 361.604
L425.727 360.696
L426.799 360.545
L427.067 360.033
L427.692 359.373
L428.316 359.249
L428.495 358.751
L428.852 358.577
L429.12 358.008
L429.477 357.963
L429.656 357.586
L429.834 357.391
L430.281 357.811
L430.459 357.469
L430.638 357.537
L430.995 357.364
L431.352 356.877
L431.709 356.968
L432.334 355.786
L432.423 355.829
L432.87 354.97
L433.048 354.581
L433.227 354.436
L433.405 354.233
L433.584 354.329
L433.941 354.276
L434.03 354.366
L434.209 354.122
L434.298 354.032
L434.477 353.39
L434.655 353.37
L434.834 352.788
L435.012 352.681
L435.637 352.27
L435.727 352.343
L436.084 352.116
L436.352 351.901
L436.53 351.511
L436.62 351.497
L436.887 351.149
L437.066 351.128
L437.155 351.016
L437.244 351.115
L437.423 350.384
L437.512 350.467
L437.691 350.257
L438.048 349.343
L438.137 349.326
L438.316 348.904
L438.673 348.905
L439.03 348.086
L439.209 347.905
L439.387 347.601
L439.476 347.6
L439.655 347.41
L440.101 347.229
L440.191 347.235
L440.459 346.908
L440.548 346.908
L440.726 346.549
L440.816 346.543
L440.905 346.146
L440.994 346.173
L441.441 346.245
L441.53 346.3
L441.619 346.18
L441.798 346.23
L442.066 346.172
L442.601 345.603
L442.78 345.147
L443.137 345.209
L443.494 344.948
L443.673 344.893
L443.762 344.927
L443.94 344.715
L444.03 344.721
L444.298 344.306
L444.476 344.189
L444.565 344.236
L444.744 343.898
L445.101 343.949
L445.458 343.338
L445.637 343.307
L445.905 343.2
L446.083 343.247
L446.172 343.041
L446.262 343.098
L446.53 343.004
L446.708 342.928
L446.887 343.058
L447.065 342.904
L447.244 342.505
L447.422 341.643
L447.69 341.644
L447.78 341.47
L448.047 341.618
L448.583 340.926
L448.672 341.042
L449.029 340.568
L449.208 340.703
L449.387 340.619
L449.744 340.348
L449.922 340.366
L450.012 340.417
L450.19 340.145
L450.279 340.279
L450.369 340.261
L450.726 339.218
L450.815 339.266
L450.994 338.671
L451.172 338.654
L451.351 338.216
L451.619 338.059
L451.797 338.046
L451.976 337.871
L452.333 337.652
L452.511 337.603
L452.868 337
L453.047 336.945
L453.136 336.923
L453.404 336.382
L453.493 336.382
L453.672 336.199
L453.761 336.282
L453.851 335.895
L454.029 336.011
L454.118 336.035
L454.386 335.739
L454.565 335.162
L454.654 335.083
L454.833 334.559
L455.1 334.655
L455.458 334.459
L455.725 333.981
L455.993 334.028
L456.083 334.05
L456.44 333.337
L456.618 333.303
L457.065 332.865
L457.332 332.717
L457.511 332.47
L457.6 332.514
L457.779 332.33
L458.047 332.259
L459.029 330.776
L459.386 330.761
L459.743 330.257
L460.1 330.323
L460.189 330.517
L460.279 330.003
L460.368 330.197
L460.636 329.477
L460.725 329.477
L461.082 329.082
L461.172 329.096
L461.261 329.278
L461.529 328.657
L461.618 328.8
L461.886 327.867
L461.975 327.655
L462.064 327.864
L462.243 327.726
L462.421 327.384
L462.779 327.33
L463.582 325.808
L463.671 325.727
L463.85 325.068
L464.386 324.987
L464.475 324.935
L464.653 324.519
L464.832 324.356
L465.011 324.545
L465.1 324.269
L465.189 324.35
L465.368 324.41
L465.457 324.365
L465.903 322.593
L466.528 322.447
L466.707 322.221
L466.885 322.215
L466.975 322.206
L467.153 321.964
L467.332 321.83
L467.6 321.432
L467.778 321.35
L468.314 321.299
L468.492 320.541
L469.207 318.813
L469.475 318.691
L469.564 318.709
L469.742 318.007
L469.832 318.104
L469.921 317.998
L470.278 316.849
L470.367 316.706
L470.546 316.782
L470.814 316.673
L470.903 316.189
L470.992 316.344
L471.26 315.578
L471.439 315.517
L471.528 315.459
L471.617 315.591
L471.974 315.011
L472.332 314.927
L472.599 314.761
L472.778 314.723
L472.956 313.794
L473.046 313.787
L473.224 313.679
L473.403 313.625
L473.581 313.078
L473.849 313.186
L473.939 313.276
L474.117 312.964
L474.385 312.569
L474.474 312.743
L474.564 312.551
L474.653 312.607
L474.831 312.635
L475.188 312.071
L475.367 311.698
L475.456 311.687
L475.635 311.19
L476.26 310.356
L476.974 310.19
L477.153 309.855
L477.242 309.848
L477.51 308.987
L477.599 308.98
L477.778 308.494
L478.045 308.278
L478.492 307.245
L478.581 307.249
L478.76 307.079
L478.938 306.35
L479.028 306.412
L479.295 305.725
L479.474 305.624
L479.563 305.586
L479.742 305.108
L479.831 305.072
L480.099 304.306
L480.188 304.393
L480.545 304.174
L480.724 303.793
L481.081 303.52
L481.26 303.224
L481.349 303.198
L481.438 303.403
L481.706 302.681
L481.884 302.881
L482.42 302.875
L482.599 302.527
L482.867 300.818
L483.045 300.805
L483.67 299.1
L483.759 299.27
L483.849 299.131
L484.116 298.115
L484.384 297.799
L484.563 297.102
L484.652 296.944
L484.92 297.086
L485.099 296.975
L485.188 296.943
L485.456 296.566
L485.545 296.616
L485.634 296.522
L485.902 295.882
L486.17 295.486
L486.259 295.33
L486.438 294.484
L486.616 294.53
L486.795 294.157
L486.973 293.71
L487.152 293.344
L487.331 293.258
L487.866 292.331
L488.134 292.196
L488.223 291.93
L488.313 291.985
L488.759 292.076
L489.384 291.269
L489.652 290.642
L489.741 290.714
L490.455 289.095
L490.634 289.113
L490.812 288.742
L490.902 288.746
L491.17 288.36
L491.259 288.351
L491.616 287.324
L491.705 287.291
L492.241 286.305
L492.509 286.202
L492.687 286.392
L493.223 285.505
L493.402 285.39
L493.669 285.542
L493.759 285.525
L493.937 284.754
L494.205 284.369
L494.473 283.718
L494.562 283.814
L494.83 283.402
L495.098 283.447
L495.455 282.448
L495.723 281.521
L495.812 281.542
L496.348 280.724
L496.705 280.44
L496.884 280.52
L497.33 279.628
L497.419 279.589
L497.598 279.349
L497.776 278.491
L497.866 278.395
L497.955 277.914
L498.044 278.149
L498.401 277.578
L498.669 277.491
L498.758 277.069
L498.848 277.175
L498.937 277.148
L499.116 276.916
L499.294 276.843
L499.562 276.334
L499.83 275.636
L500.098 275.571
L500.187 275.69
L500.365 275.094
L500.455 275.176
L500.99 273.598
L501.169 273.731
L501.437 273.099
L501.883 273.048
L501.972 272.949
L502.062 272.662
L502.151 272.704
L502.508 272.527
L503.044 271.279
L503.222 271.366
L503.312 271.386
L503.49 270.808
L503.58 270.794
L503.669 270.907
L503.847 270.897
L504.026 270.897
L504.74 269.509
L504.829 269.341
L505.008 268.91
L505.276 268.56
L505.365 268.532
L505.454 268.355
L505.544 268.4
L505.812 268.434
L506.079 267.928
L506.258 267.741
L506.436 266.978
L506.526 267.001
L506.615 266.945
L506.883 266.226
L507.061 266.293
L507.329 266.211
L507.508 265.887
L507.597 265.896
L507.686 266.062
L507.954 265.608
L508.044 265.604
L508.401 264.674
L508.49 264.73
L508.668 263.913
L508.758 263.911
L508.847 263.718
L508.936 263.786
L509.472 263.291
L509.651 263.189
L510.276 262.67
L510.454 262.632
L510.543 262.487
L510.722 262.589
L510.9 262.568
L511.079 262.266
L511.525 262.001
L512.24 259.75
L512.329 259.751
L512.508 259.55
L512.775 259.574
L513.311 258.652
L513.668 256.807
L514.65 255.734
L514.829 255.617
L515.007 254.812
L515.275 254.722
L515.454 254.218
L515.632 254.09
L515.811 254.031
L515.9 254.14
L515.989 253.701
L516.079 253.733
L516.257 253.416
L516.525 253.487
L516.704 253.102
L516.793 253.161
L516.972 253.026
L517.15 251.898
L517.239 251.81
L517.418 251.438
L517.686 251.658
L517.775 251.57
L518.132 250.738
L518.221 250.82
L518.311 250.743
L518.311 250.743" style="fill:none;stroke:#ff0000;stroke-dasharray:3.000000,6.000000;stroke-dashoffset:0.0;"/>
   </g>
   <g id="line2d_4">
    <path clip-path="url(#p7ff5b81e1d)" d="
M72 318.366
L72.2678 299.331
L72.3571 299.471
L72.4464 297.946
L72.5357 301.51
L72.625 300.93
L72.8035 304.333
L72.8928 304.119
L73.0714 307.772
L73.1606 313.482
L73.2499 312.98
L73.4285 315.583
L73.607 316.964
L73.6963 316.927
L75.0355 354.208
L76.0176 369.886
L76.464 374.46
L77.1782 381.708
L77.4461 382.964
L78.1603 385.098
L79.2317 387.322
L79.321 387.018
L79.4102 387.093
L79.9459 387.806
L80.0352 387.619
L80.4816 387.92
L80.6602 387.93
L81.4637 388.238
L82.7136 388.516
L83.8742 388.626
L104.676 388.799
L246.632 388.8
L518.311 388.8
L518.311 388.8" style="fill:none;stroke:#00bfbf;stroke-dasharray:5.000000,1.000000,2.000000,1.000000,5.000000,1.000000;stroke-dashoffset:0.0;"/>
   </g>
   <g id="line2d_5">
    <path clip-path="url(#p7ff5b81e1d)" d="
M72 322.589
L72.2678 295.557
L72.3571 294.73
L72.4464 295.822
L72.5357 295.622
L72.8035 297.27
L72.8928 301.115
L72.9821 300.683
L73.8749 319.674
L74.232 327.582
L74.7677 340.408
L75.4819 351.425
L76.8211 295.703
L77.2675 285.612
L78.5174 319.603
L78.696 323.764
L79.0531 331.851
L80.0352 312.212
L80.303 308.157
L80.8387 298.944
L81.9101 321.798
L82.1779 326.39
L82.6243 332.519
L82.9814 329.242
L83.6957 319.558
L83.785 319.56
L84.3206 316.97
L84.4099 315.647
L85.0349 325.614
L85.392 329.253
L85.7491 333.592
L85.8384 333.977
L86.1955 337.723
L86.4634 334.406
L86.6419 333.66
L86.7312 333.555
L86.8205 332.974
L86.999 330.751
L87.1776 330.533
L87.3562 329.519
L87.4454 329.186
L87.5347 328.327
L87.624 328.398
L87.8918 326.522
L87.9811 326.724
L88.0704 327.017
L89.6774 340.214
L89.7667 340.633
L89.856 340.336
L89.9453 340.619
L90.3917 338.728
L90.481 338.405
L90.6595 337.141
L90.7488 337.585
L90.9274 337.181
L91.0166 337.327
L91.1059 336.469
L91.2845 337.215
L91.5523 336.642
L91.9094 339.489
L91.9987 339.67
L92.088 340.26
L92.2666 341.938
L92.713 345.561
L93.1594 348.846
L93.4272 349.473
L93.7843 347.52
L93.8736 347.481
L94.2307 346.52
L94.32 346.471
L94.5878 344.634
L94.7664 345.73
L94.945 345.311
L95.0342 345.366
L95.1235 345.268
L95.2128 345.369
L95.5699 347.643
L95.927 349.42
L96.4627 352.755
L96.9091 354.663
L96.9984 354.768
L97.3555 354.349
L97.4448 354.586
L97.7126 353.976
L98.0698 354.321
L98.2483 353.884
L98.3376 353.903
L98.6054 353.404
L98.8733 354.143
L99.1411 355.621
L99.9446 357.784
L100.212 358.974
L100.659 360.182
L100.837 360.175
L101.016 359.771
L101.105 360.123
L101.73 357.831
L101.82 357.889
L101.998 358.117
L102.177 357.693
L104.052 363.611
L104.23 363.273
L104.319 363.511
L104.587 362.661
L104.855 364.091
L105.123 363.01
L105.212 363.066
L105.48 362.612
L105.569 362.599
L105.748 362.291
L105.837 362.271
L106.194 363.061
L106.373 363.86
L106.641 364.448
L106.73 364.491
L106.819 364.384
L106.998 364.645
L107.444 365.445
L107.533 365.803
L107.623 365.779
L107.712 365.566
L107.891 365.827
L108.158 365.248
L108.426 365.721
L108.516 365.76
L108.605 365.994
L108.783 365.665
L108.962 366.081
L109.14 365.789
L109.319 365.505
L109.587 365.627
L109.676 365.716
L110.301 367.701
L110.48 368.061
L110.837 368.91
L110.926 368.92
L111.283 369.804
L111.372 369.699
L111.462 369.771
L111.551 369.61
L111.73 369.682
L111.819 369.613
L112.176 370.03
L112.355 369.965
L112.533 369.903
L112.89 370.492
L112.98 370.337
L113.158 370.463
L113.515 371.268
L113.694 371.431
L114.051 372.103
L114.229 372.24
L114.765 372.713
L114.944 372.533
L115.122 372.629
L115.658 373.133
L115.747 373.138
L116.015 373.451
L116.194 372.98
L116.372 373.248
L116.461 372.974
L116.551 373.044
L116.997 373.93
L117.265 374.333
L117.979 375.208
L118.336 375.57
L118.515 375.5
L118.783 375.658
L118.961 375.666
L119.229 375.709
L119.318 375.576
L119.408 375.794
L119.497 376.341
L119.586 376.301
L119.676 376.279
L119.943 376.449
L120.211 376.35
L121.283 377.777
L121.55 378.079
L122.086 378.566
L122.265 378.443
L122.622 378.446
L122.8 378.22
L123.068 378.315
L123.247 378.094
L123.425 378.159
L123.693 378.219
L123.961 378.529
L124.854 378.854
L125.122 379.261
L125.389 379.429
L125.568 379.637
L125.657 379.649
L125.836 379.882
L126.104 379.75
L126.193 380.118
L126.372 379.942
L126.55 380.062
L126.818 380.185
L127.086 380.233
L127.264 380.193
L128.068 381.007
L129.05 381.427
L129.228 381.343
L129.407 381.331
L130.121 381.175
L130.3 381.32
L130.389 381.219
L130.568 381.219
L130.746 381.187
L130.836 381.036
L131.996 381.883
L132.889 382.165
L133.246 382.323
L133.514 382.402
L133.692 382.563
L134.585 382.182
L135.032 382.411
L136.192 382.905
L136.371 382.774
L138.781 383.663
L139.139 383.714
L139.853 383.938
L140.121 383.988
L141.192 384.049
L143.067 384.552
L143.335 384.67
L143.513 384.664
L143.87 384.575
L144.763 384.601
L144.942 384.485
L146.102 384.758
L146.281 385.381
L146.727 385.454
L147.62 385.53
L147.888 385.412
L148.692 385.521
L149.852 385.709
L150.745 385.889
L151.459 385.983
L151.727 386.024
L151.995 385.991
L153.245 386.131
L153.959 386.261
L154.852 386.388
L155.388 386.51
L157.262 386.715
L158.691 386.892
L159.227 386.978
L162.887 387.239
L163.066 387.116
L164.226 387.217
L168.601 387.635
L168.958 387.617
L169.762 387.675
L171.904 387.813
L174.315 387.947
L197.26 388.605
L238.329 388.769
L518.311 388.8
L518.311 388.8" style="fill:none;stroke:#bf00bf;stroke-linecap:square;"/>
   </g>
   <g id="matplotlib.axis_1">
    <g id="xtick_1">
     <g id="line2d_6">
      <defs>
       <path d="
M0 0
L0 -4" id="mc7db9fdffb" style="stroke:#000000;stroke-width:0.5;"/>
      </defs>
      <g>
       <use style="stroke:#000000;stroke-width:0.5;" x="72.0" xlink:href="#mc7db9fdffb" y="388.8"/>
      </g>
     </g>
     <g id="line2d_7">
      <defs>
       <path d="
M0 0
L0 4" id="m5a7d422ac3" style="stroke:#000000;stroke-width:0.5;"/>
      </defs>
      <g>
       <use style="stroke:#000000;stroke-width:0.5;" x="72.0" xlink:href="#m5a7d422ac3" y="43.2"/>
      </g>
     </g>
     <g id="text_1">
      <!-- 0 -->
      <defs>
       <path d="
M56.9844 36.375
Q56.9844 16.7969 50.8594 7.64062
Q44.7344 -1.51562 31.8438 -1.51562
Q18.75 -1.51562 12.7188 7.76562
Q6.6875 17.0469 6.6875 36.2812
Q6.6875 55.6719 12.7812 64.9219
Q18.8906 74.1719 31.8438 74.1719
Q44.9219 74.1719 50.9531 64.7656
Q56.9844 55.375 56.9844 36.375
M44.1406 14.2031
Q45.8438 18.1719 46.4531 23.5156
Q47.0781 28.8594 47.0781 36.375
Q47.0781 43.7969 46.4531 49.2656
Q45.8438 54.7344 44.0938 58.5469
Q42.3906 62.3125 39.4219 64.2031
Q36.4688 66.1094 31.8438 66.1094
Q27.25 66.1094 24.2344 64.2031
Q21.2344 62.3125 19.4844 58.4531
Q17.8281 54.8281 17.2188 49.0156
Q16.6094 43.2188 16.6094 36.2812
Q16.6094 28.6562 17.1406 23.5312
Q17.6719 18.4062 19.4375 14.3594
Q21.0469 10.5469 24 8.54688
Q26.9531 6.54688 31.8438 6.54688
Q36.4219 6.54688 39.4531 8.45312
Q42.4844 10.3594 44.1406 14.2031" id="Verdana-30"/>
      </defs>
      <g transform="translate(68.9821875 401.918125)scale(0.12 -0.12)">
       <use xlink:href="#Verdana-30"/>
      </g>
     </g>
    </g>
    <g id="xtick_2">
     <g id="line2d_8">
      <g>
       <use style="stroke:#000000;stroke-width:0.5;" x="161.28" xlink:href="#mc7db9fdffb" y="388.8"/>
      </g>
     </g>
     <g id="line2d_9">
      <g>
       <use style="stroke:#000000;stroke-width:0.5;" x="161.28" xlink:href="#m5a7d422ac3" y="43.2"/>
      </g>
     </g>
     <g id="text_2">
      <!-- 1000 -->
      <defs>
       <path d="
M52.9375 0
L13.5781 0
L13.5781 7.42188
L28.7188 7.42188
L28.7188 56.1562
L13.5781 56.1562
L13.5781 62.7969
Q16.6562 62.7969 20.1719 63.2969
Q23.6875 63.8125 25.4844 64.7969
Q27.7344 66.0156 29.0312 67.8906
Q30.3281 69.7812 30.5156 72.9531
L38.0938 72.9531
L38.0938 7.42188
L52.9375 7.42188
z
" id="Verdana-31"/>
      </defs>
      <g transform="translate(147.2315625 401.918125)scale(0.12 -0.12)">
       <use xlink:href="#Verdana-31"/>
       <use x="63.57421875" xlink:href="#Verdana-30"/>
       <use x="127.1484375" xlink:href="#Verdana-30"/>
       <use x="190.72265625" xlink:href="#Verdana-30"/>
      </g>
     </g>
    </g>
    <g id="xtick_3">
     <g id="line2d_10">
      <g>
       <use style="stroke:#000000;stroke-width:0.5;" x="250.56" xlink:href="#mc7db9fdffb" y="388.8"/>
      </g>
     </g>
     <g id="line2d_11">
      <g>
       <use style="stroke:#000000;stroke-width:0.5;" x="250.56" xlink:href="#m5a7d422ac3" y="43.2"/>
      </g>
     </g>
     <g id="text_3">
      <!-- 2000 -->
      <defs>
       <path d="
M57.0781 0
L7.85938 0
L7.85938 10.2031
Q12.9844 14.5938 18.1406 18.9844
Q23.2969 23.3906 27.7344 27.7344
Q37.1094 36.8125 40.5781 42.1562
Q44.0469 47.5156 44.0469 53.7188
Q44.0469 59.375 40.3125 62.5625
Q36.5781 65.7656 29.8906 65.7656
Q25.4375 65.7656 20.2656 64.2031
Q15.0938 62.6406 10.1562 59.4219
L9.67188 59.4219
L9.67188 69.6719
Q13.1406 71.3906 18.9219 72.7969
Q24.7031 74.2188 30.125 74.2188
Q41.3125 74.2188 47.6562 68.8125
Q54 63.4219 54 54.2031
Q54 50.0469 52.9531 46.4531
Q51.9062 42.875 49.8594 39.6562
Q47.9531 36.625 45.3906 33.6875
Q42.8281 30.7656 39.1562 27.2031
Q33.9375 22.0781 28.3594 17.2656
Q22.7969 12.4531 17.9688 8.34375
L57.0781 8.34375
z
" id="Verdana-32"/>
      </defs>
      <g transform="translate(236.1684375 401.918125)scale(0.12 -0.12)">
       <use xlink:href="#Verdana-32"/>
       <use x="63.57421875" xlink:href="#Verdana-30"/>
       <use x="127.1484375" xlink:href="#Verdana-30"/>
       <use x="190.72265625" xlink:href="#Verdana-30"/>
      </g>
     </g>
    </g>
    <g id="xtick_4">
     <g id="line2d_12">
      <g>
       <use style="stroke:#000000;stroke-width:0.5;" x="339.84" xlink:href="#mc7db9fdffb" y="388.8"/>
      </g>
     </g>
     <g id="line2d_13">
      <g>
       <use style="stroke:#000000;stroke-width:0.5;" x="339.84" xlink:href="#m5a7d422ac3" y="43.2"/>
      </g>
     </g>
     <g id="text_4">
      <!-- 3000 -->
      <defs>
       <path d="
M50.6875 35.0156
Q53.0312 32.9062 54.5469 29.7344
Q56.0625 26.5625 56.0625 21.5312
Q56.0625 16.5469 54.25 12.3906
Q52.4375 8.25 49.1719 5.17188
Q45.5156 1.76562 40.5469 0.125
Q35.5938 -1.51562 29.6875 -1.51562
Q23.6406 -1.51562 17.7812 -0.0625
Q11.9219 1.375 8.15625 3.07812
L8.15625 13.2812
L8.89062 13.2812
Q13.0312 10.5469 18.6406 8.73438
Q24.2656 6.9375 29.5 6.9375
Q32.5625 6.9375 36.0312 7.95312
Q39.5 8.98438 41.6562 10.9844
Q43.8906 13.1406 44.9844 15.7188
Q46.0938 18.3125 46.0938 22.2656
Q46.0938 26.1719 44.8438 28.7344
Q43.6094 31.2969 41.4062 32.7656
Q39.2031 34.2812 36.0781 34.8438
Q32.9531 35.4062 29.3438 35.4062
L24.9531 35.4062
L24.9531 43.5
L28.375 43.5
Q35.7969 43.5 40.2031 46.5938
Q44.625 49.7031 44.625 55.6719
Q44.625 58.2969 43.5 60.2656
Q42.3906 62.25 40.375 63.5312
Q38.2812 64.7969 35.8906 65.2812
Q33.5 65.7656 30.4688 65.7656
Q25.8281 65.7656 20.5938 64.1094
Q15.375 62.4531 10.75 59.4219
L10.25 59.4219
L10.25 69.625
Q13.7188 71.3438 19.5 72.7812
Q25.2969 74.2188 30.7188 74.2188
Q36.0312 74.2188 40.0781 73.2344
Q44.1406 72.2656 47.4062 70.125
Q50.9219 67.7812 52.7344 64.4531
Q54.5469 61.1406 54.5469 56.6875
Q54.5469 50.6406 50.2656 46.125
Q46 41.6094 40.1875 40.4375
L40.1875 39.75
Q42.5312 39.3594 45.5469 38.1094
Q48.5781 36.8594 50.6875 35.0156" id="Verdana-33"/>
      </defs>
      <g transform="translate(325.46625 401.918125)scale(0.12 -0.12)">
       <use xlink:href="#Verdana-33"/>
       <use x="63.57421875" xlink:href="#Verdana-30"/>
       <use x="127.1484375" xlink:href="#Verdana-30"/>
       <use x="190.72265625" xlink:href="#Verdana-30"/>
      </g>
     </g>
    </g>
    <g id="xtick_5">
     <g id="line2d_14">
      <g>
       <use style="stroke:#000000;stroke-width:0.5;" x="429.12" xlink:href="#mc7db9fdffb" y="388.8"/>
      </g>
     </g>
     <g id="line2d_15">
      <g>
       <use style="stroke:#000000;stroke-width:0.5;" x="429.12" xlink:href="#m5a7d422ac3" y="43.2"/>
      </g>
     </g>
     <g id="text_5">
      <!-- 4000 -->
      <defs>
       <path d="
M58.7344 20.4531
L47.9531 20.4531
L47.9531 0
L38.5781 0
L38.5781 20.4531
L3.76562 20.4531
L3.76562 31.6875
L38.9688 72.7031
L47.9531 72.7031
L47.9531 28.2656
L58.7344 28.2656
z

M38.5781 28.2656
L38.5781 61.0781
L10.4062 28.2656
z
" id="Verdana-34"/>
      </defs>
      <g transform="translate(414.4828125 401.918125)scale(0.12 -0.12)">
       <use xlink:href="#Verdana-34"/>
       <use x="63.57421875" xlink:href="#Verdana-30"/>
       <use x="127.1484375" xlink:href="#Verdana-30"/>
       <use x="190.72265625" xlink:href="#Verdana-30"/>
      </g>
     </g>
    </g>
    <g id="xtick_6">
     <g id="line2d_16">
      <g>
       <use style="stroke:#000000;stroke-width:0.5;" x="518.4" xlink:href="#mc7db9fdffb" y="388.8"/>
      </g>
     </g>
     <g id="line2d_17">
      <g>
       <use style="stroke:#000000;stroke-width:0.5;" x="518.4" xlink:href="#m5a7d422ac3" y="43.2"/>
      </g>
     </g>
     <g id="text_6">
      <!-- 5000 -->
      <defs>
       <path d="
M56.5 23.0938
Q56.5 18.0156 54.6406 13.375
Q52.7812 8.73438 49.5625 5.5625
Q46.0469 2.15625 41.1875 0.3125
Q36.3281 -1.51562 29.9375 -1.51562
Q23.9688 -1.51562 18.4531 -0.265625
Q12.9375 0.984375 9.125 2.73438
L9.125 13.0312
L9.8125 13.0312
Q13.8125 10.5 19.1875 8.71875
Q24.5625 6.9375 29.7344 6.9375
Q33.2031 6.9375 36.4531 7.90625
Q39.7031 8.89062 42.2344 11.3281
Q44.3906 13.4219 45.4844 16.3438
Q46.5781 19.2812 46.5781 23.1406
Q46.5781 26.9062 45.2812 29.4844
Q44 32.0781 41.7031 33.6406
Q39.1562 35.5 35.5156 36.25
Q31.8906 37.0156 27.3906 37.0156
Q23.0938 37.0156 19.1094 36.4219
Q15.1406 35.8438 12.25 35.25
L12.25 72.7031
L56 72.7031
L56 64.1562
L21.6875 64.1562
L21.6875 44.8281
Q23.7812 45.0156 25.9688 45.1094
Q28.1719 45.2188 29.7812 45.2188
Q35.6875 45.2188 40.125 44.2188
Q44.5781 43.2188 48.2969 40.6719
Q52.2031 37.9844 54.3438 33.7344
Q56.5 29.5 56.5 23.0938" id="Verdana-35"/>
      </defs>
      <g transform="translate(504.084375 401.918125)scale(0.12 -0.12)">
       <use xlink:href="#Verdana-35"/>
       <use x="63.57421875" xlink:href="#Verdana-30"/>
       <use x="127.1484375" xlink:href="#Verdana-30"/>
       <use x="190.72265625" xlink:href="#Verdana-30"/>
      </g>
     </g>
    </g>
    <g id="text_7">
     <!-- Objective function exectuions -->
     <defs>
      <path d="
M63.9688 64.3594
Q68.4062 59.4688 70.7656 52.3906
Q73.1406 45.3125 73.1406 36.3281
Q73.1406 27.3438 70.7188 20.2344
Q68.3125 13.1406 63.9688 8.40625
Q59.4688 3.46875 53.3438 0.96875
Q47.2188 -1.51562 39.3594 -1.51562
Q31.6875 -1.51562 25.4062 1.01562
Q19.1406 3.5625 14.75 8.40625
Q10.3594 13.2344 7.98438 20.2656
Q5.60938 27.2969 5.60938 36.3281
Q5.60938 45.2188 7.95312 52.2656
Q10.2969 59.3281 14.7969 64.3594
Q19.0938 69.1406 25.4688 71.6719
Q31.8438 74.2188 39.3594 74.2188
Q47.1719 74.2188 53.3906 71.6562
Q59.625 69.0938 63.9688 64.3594
M63.0938 36.3281
Q63.0938 50.4844 56.7344 58.1719
Q50.3906 65.875 39.4062 65.875
Q28.3281 65.875 22 58.1719
Q15.6719 50.4844 15.6719 36.3281
Q15.6719 22.0156 22.1094 14.4219
Q28.5625 6.84375 39.4062 6.84375
Q50.25 6.84375 56.6719 14.4219
Q63.0938 22.0156 63.0938 36.3281" id="Verdana-4f"/>
      <path d="
M38.375 67.0938
L37.8906 67.0938
Q36.375 67.5312 33.9375 67.9844
Q31.5 68.4531 29.6406 68.4531
Q23.7344 68.4531 21.0625 65.8438
Q18.4062 63.2344 18.4062 56.3906
L18.4062 54.5469
L34.9688 54.5469
L34.9688 46.8281
L18.7031 46.8281
L18.7031 0
L9.51562 0
L9.51562 46.8281
L3.32812 46.8281
L3.32812 54.5469
L9.51562 54.5469
L9.51562 56.3438
Q9.51562 66.0625 14.3438 71.2656
Q19.1875 76.4688 28.3281 76.4688
Q31.3906 76.4688 33.8594 76.1719
Q36.3281 75.875 38.375 75.4844
z
" id="Verdana-66"/>
      <path d="
M57.0312 27.6875
Q57.0312 20.8438 55.0938 15.375
Q53.1719 9.90625 49.9062 6.20312
Q46.4375 2.34375 42.2812 0.40625
Q38.1406 -1.51562 33.1562 -1.51562
Q28.5156 -1.51562 25.0469 -0.40625
Q21.5781 0.6875 18.2188 2.54688
L17.625 0
L9.03125 0
L9.03125 75.9844
L18.2188 75.9844
L18.2188 48.8281
Q22.0781 52 26.4219 54.0312
Q30.7656 56.0625 36.1875 56.0625
Q45.8438 56.0625 51.4375 48.6406
Q57.0312 41.2188 57.0312 27.6875
M47.5625 27.4375
Q47.5625 37.2031 44.3281 42.25
Q41.1094 47.3125 33.9375 47.3125
Q29.9375 47.3125 25.8281 45.5781
Q21.7344 43.8438 18.2188 41.1094
L18.2188 9.85938
Q22.125 8.10938 24.9219 7.42188
Q27.7344 6.73438 31.2969 6.73438
Q38.9219 6.73438 43.2344 11.7344
Q47.5625 16.75 47.5625 27.4375" id="Verdana-62"/>
      <path id="Verdana-20"/>
      <path d="
M18.8906 63.6719
L8.54688 63.6719
L8.54688 73.1875
L18.8906 73.1875
z

M18.3125 0
L9.125 0
L9.125 54.5469
L18.3125 54.5469
z
" id="Verdana-69"/>
      <path d="
M26.0312 63.6719
L15.6719 63.6719
L15.6719 73.1875
L26.0312 73.1875
z

M25.4375 -1.3125
Q25.4375 -10.8906 20.5469 -15.7656
Q15.6719 -20.6562 7.46875 -20.6562
Q5.51562 -20.6562 2.3125 -20.2656
Q-0.875 -19.875 -3.03125 -19.2812
L-3.03125 -10.5469
L-2.54688 -10.5469
Q-1.17188 -11.0781 1.14062 -11.7656
Q3.46875 -12.4531 5.67188 -12.4531
Q9.1875 -12.4531 11.3281 -11.4688
Q13.4844 -10.5 14.5469 -8.54688
Q15.625 -6.59375 15.9375 -3.82812
Q16.2656 -1.07812 16.2656 2.875
L16.2656 46.8281
L4.89062 46.8281
L4.89062 54.5469
L25.4375 54.5469
z
" id="Verdana-6a"/>
      <path d="
M48 15.7188
Q48 8.25 41.8125 3.46875
Q35.6406 -1.3125 24.9531 -1.3125
Q18.8906 -1.3125 13.8438 0.125
Q8.79688 1.5625 5.375 3.26562
L5.375 13.5781
L5.85938 13.5781
Q10.2031 10.2969 15.5156 8.375
Q20.8438 6.45312 25.7344 6.45312
Q31.7812 6.45312 35.2031 8.40625
Q38.625 10.3594 38.625 14.5469
Q38.625 17.7812 36.7656 19.4375
Q34.9062 21.0938 29.6406 22.2656
Q27.6875 22.7031 24.5312 23.2812
Q21.3906 23.875 18.7969 24.5625
Q11.625 26.4688 8.60938 30.1562
Q5.60938 33.8438 5.60938 39.2031
Q5.60938 42.5781 7 45.5469
Q8.40625 48.5312 11.2344 50.875
Q13.9688 53.1719 18.1875 54.5156
Q22.4062 55.8594 27.6406 55.8594
Q32.5156 55.8594 37.5156 54.6562
Q42.5312 53.4688 45.8438 51.7656
L45.8438 41.9375
L45.3594 41.9375
Q41.8438 44.5312 36.8125 46.3125
Q31.7812 48.0938 26.9531 48.0938
Q21.9219 48.0938 18.4531 46.1562
Q14.9844 44.2344 14.9844 40.4375
Q14.9844 37.0625 17.0938 35.3594
Q19.1406 33.6406 23.7344 32.5625
Q26.2656 31.9844 29.4062 31.3906
Q32.5625 30.8125 34.6719 30.3281
Q41.0625 28.8594 44.5312 25.2969
Q48 21.6875 48 15.7188" id="Verdana-73"/>
      <path d="
M55.5156 27.25
Q55.5156 13.9219 48.6719 6.20312
Q41.8438 -1.51562 30.375 -1.51562
Q18.7969 -1.51562 11.9844 6.20312
Q5.17188 13.9219 5.17188 27.25
Q5.17188 40.5781 11.9844 48.3125
Q18.7969 56.0625 30.375 56.0625
Q41.8438 56.0625 48.6719 48.3125
Q55.5156 40.5781 55.5156 27.25
M46.0469 27.25
Q46.0469 37.8438 41.8906 42.9844
Q37.75 48.1406 30.375 48.1406
Q22.9062 48.1406 18.7812 42.9844
Q14.6562 37.8438 14.6562 27.25
Q14.6562 17 18.7969 11.6875
Q22.9531 6.39062 30.375 6.39062
Q37.7031 6.39062 41.875 11.6406
Q46.0469 16.8906 46.0469 27.25" id="Verdana-6f"/>
      <path d="
M54.6875 26.3125
L14.5 26.3125
Q14.5 21.2969 16.0156 17.5469
Q17.5312 13.8125 20.1719 11.4219
Q22.7031 9.07812 26.1875 7.90625
Q29.6875 6.73438 33.8906 6.73438
Q39.4531 6.73438 45.0938 8.95312
Q50.7344 11.1875 53.125 13.3281
L53.6094 13.3281
L53.6094 3.32812
Q48.9688 1.375 44.1406 0.046875
Q39.3125 -1.26562 33.9844 -1.26562
Q20.4062 -1.26562 12.7812 6.07812
Q5.17188 13.4219 5.17188 26.9531
Q5.17188 40.3281 12.4688 48.1875
Q19.7812 56.0625 31.6875 56.0625
Q42.7188 56.0625 48.7031 49.6094
Q54.6875 43.1719 54.6875 31.2969
z

M45.75 33.3438
Q45.7031 40.5781 42.1094 44.5312
Q38.5312 48.4844 31.2031 48.4844
Q23.8281 48.4844 19.4531 44.1406
Q15.0938 39.7969 14.5 33.3438
z
" id="Verdana-65"/>
      <path d="
M54.25 0
L45.0625 0
L45.0625 6.0625
Q40.4375 2.39062 36.1875 0.4375
Q31.9375 -1.51562 26.8125 -1.51562
Q18.2188 -1.51562 13.4219 3.73438
Q8.64062 8.98438 8.64062 19.1406
L8.64062 54.5469
L17.8281 54.5469
L17.8281 23.4844
Q17.8281 19.3438 18.2188 16.375
Q18.6094 13.4219 19.875 11.3281
Q21.1875 9.1875 23.2812 8.20312
Q25.3906 7.23438 29.3906 7.23438
Q32.9531 7.23438 37.1719 9.07812
Q41.4062 10.9375 45.0625 13.8125
L45.0625 54.5469
L54.25 54.5469
z
" id="Verdana-75"/>
      <path d="
M49.3594 3.42188
Q44.7812 1.21875 40.6562 0
Q36.5312 -1.21875 31.8906 -1.21875
Q25.9844 -1.21875 21.0469 0.515625
Q16.1094 2.25 12.5938 5.76562
Q9.03125 9.28125 7.07812 14.6406
Q5.125 20.0156 5.125 27.2031
Q5.125 40.5781 12.4688 48.1875
Q19.8281 55.8125 31.8906 55.8125
Q36.5781 55.8125 41.0938 54.4844
Q45.6094 53.1719 49.3594 51.2656
L49.3594 41.0625
L48.875 41.0625
Q44.6719 44.3438 40.2031 46.0938
Q35.75 47.8594 31.5 47.8594
Q23.6875 47.8594 19.1719 42.6094
Q14.6562 37.3594 14.6562 27.2031
Q14.6562 17.3281 19.0625 12.0312
Q23.4844 6.73438 31.5 6.73438
Q34.2812 6.73438 37.1562 7.46875
Q40.0469 8.20312 42.3281 9.375
Q44.3438 10.4062 46.0938 11.5469
Q47.8594 12.7031 48.875 13.5312
L49.3594 13.5312
z
" id="Verdana-63"/>
      <path d="
M54.6406 0
L45.4531 0
L45.4531 31.0625
Q45.4531 34.8125 45.0156 38.1094
Q44.5781 41.4062 43.4062 43.2656
Q42.1875 45.3125 39.8906 46.3125
Q37.5938 47.3125 33.9375 47.3125
Q30.1719 47.3125 26.0625 45.4531
Q21.9688 43.6094 18.2188 40.7188
L18.2188 0
L9.03125 0
L9.03125 54.5469
L18.2188 54.5469
L18.2188 48.4844
Q22.5156 52.0469 27.0938 54.0469
Q31.6875 56.0625 36.5312 56.0625
Q45.3594 56.0625 50 50.7344
Q54.6406 45.4062 54.6406 35.4062
z
" id="Verdana-6e"/>
      <path d="
M37.3594 0.484375
Q34.7656 -0.203125 31.7031 -0.640625
Q28.6562 -1.07812 26.2656 -1.07812
Q17.9219 -1.07812 13.5781 3.40625
Q9.23438 7.90625 9.23438 17.8281
L9.23438 46.8281
L3.03125 46.8281
L3.03125 54.5469
L9.23438 54.5469
L9.23438 70.2188
L18.4062 70.2188
L18.4062 54.5469
L37.3594 54.5469
L37.3594 46.8281
L18.4062 46.8281
L18.4062 21.9688
Q18.4062 17.6719 18.5938 15.25
Q18.7969 12.8438 19.9688 10.75
Q21.0469 8.79688 22.9219 7.89062
Q24.8125 6.98438 28.6562 6.98438
Q30.9062 6.98438 33.3438 7.64062
Q35.7969 8.29688 36.8594 8.73438
L37.3594 8.73438
z
" id="Verdana-74"/>
      <path d="
M56.2031 54.5469
L34.125 0
L24.9062 0
L2.98438 54.5469
L12.9375 54.5469
L29.8281 11.1406
L46.5781 54.5469
z
" id="Verdana-76"/>
      <path d="
M56.25 0
L44.6719 0
L29.2031 20.9531
L13.625 0
L2.9375 0
L24.2188 27.2031
L3.125 54.5469
L14.7031 54.5469
L30.0781 33.9375
L45.5156 54.5469
L56.25 54.5469
L34.8125 27.6875
z
" id="Verdana-78"/>
     </defs>
     <g transform="translate(206.5078125 418.509375)scale(0.12 -0.12)">
      <use xlink:href="#Verdana-4f"/>
      <use x="78.7109375" xlink:href="#Verdana-62"/>
      <use x="141.015625" xlink:href="#Verdana-6a"/>
      <use x="175.439453125" xlink:href="#Verdana-65"/>
      <use x="235.009765625" xlink:href="#Verdana-63"/>
      <use x="287.109375" xlink:href="#Verdana-74"/>
      <use x="326.513671875" xlink:href="#Verdana-69"/>
      <use x="353.955078125" xlink:href="#Verdana-76"/>
      <use x="412.259765625" xlink:href="#Verdana-65"/>
      <use x="471.830078125" xlink:href="#Verdana-20"/>
      <use x="506.986328125" xlink:href="#Verdana-66"/>
      <use x="542.142578125" xlink:href="#Verdana-75"/>
      <use x="605.423828125" xlink:href="#Verdana-6e"/>
      <use x="668.705078125" xlink:href="#Verdana-63"/>
      <use x="720.8046875" xlink:href="#Verdana-74"/>
      <use x="760.208984375" xlink:href="#Verdana-69"/>
      <use x="787.650390625" xlink:href="#Verdana-6f"/>
      <use x="848.34375" xlink:href="#Verdana-6e"/>
      <use x="911.625" xlink:href="#Verdana-20"/>
      <use x="946.78125" xlink:href="#Verdana-65"/>
      <use x="1006.3515625" xlink:href="#Verdana-78"/>
      <use x="1064.40625" xlink:href="#Verdana-65"/>
      <use x="1123.9765625" xlink:href="#Verdana-63"/>
      <use x="1176.076171875" xlink:href="#Verdana-74"/>
      <use x="1215.48046875" xlink:href="#Verdana-75"/>
      <use x="1278.76171875" xlink:href="#Verdana-69"/>
      <use x="1306.203125" xlink:href="#Verdana-6f"/>
      <use x="1366.896484375" xlink:href="#Verdana-6e"/>
      <use x="1430.177734375" xlink:href="#Verdana-73"/>
     </g>
    </g>
   </g>
   <g id="matplotlib.axis_2">
    <g id="ytick_1">
     <g id="line2d_18">
      <defs>
       <path d="
M0 0
L4 0" id="md7965d1ba0" style="stroke:#000000;stroke-width:0.5;"/>
      </defs>
      <g>
       <use style="stroke:#000000;stroke-width:0.5;" x="72.0" xlink:href="#md7965d1ba0" y="388.8"/>
      </g>
     </g>
     <g id="line2d_19">
      <defs>
       <path d="
M0 0
L-4 0" id="md9a1c1a7cd" style="stroke:#000000;stroke-width:0.5;"/>
      </defs>
      <g>
       <use style="stroke:#000000;stroke-width:0.5;" x="518.4" xlink:href="#md9a1c1a7cd" y="388.8"/>
      </g>
     </g>
     <g id="text_8">
      <!-- 0.0 -->
      <defs>
       <path d="
M24.0312 0
L12.3594 0
L12.3594 13.9219
L24.0312 13.9219
z
" id="Verdana-2e"/>
      </defs>
      <g transform="translate(49.97 392.1515625)scale(0.12 -0.12)">
       <use xlink:href="#Verdana-30"/>
       <use x="63.57421875" xlink:href="#Verdana-2e"/>
       <use x="99.951171875" xlink:href="#Verdana-30"/>
      </g>
     </g>
    </g>
    <g id="ytick_2">
     <g id="line2d_20">
      <g>
       <use style="stroke:#000000;stroke-width:0.5;" x="72.0" xlink:href="#md7965d1ba0" y="319.68"/>
      </g>
     </g>
     <g id="line2d_21">
      <g>
       <use style="stroke:#000000;stroke-width:0.5;" x="518.4" xlink:href="#md9a1c1a7cd" y="319.68"/>
      </g>
     </g>
     <g id="text_9">
      <!-- 0.2 -->
      <g transform="translate(49.95875 323.0315625)scale(0.12 -0.12)">
       <use xlink:href="#Verdana-30"/>
       <use x="63.57421875" xlink:href="#Verdana-2e"/>
       <use x="99.951171875" xlink:href="#Verdana-32"/>
      </g>
     </g>
    </g>
    <g id="ytick_3">
     <g id="line2d_22">
      <g>
       <use style="stroke:#000000;stroke-width:0.5;" x="72.0" xlink:href="#md7965d1ba0" y="250.56"/>
      </g>
     </g>
     <g id="line2d_23">
      <g>
       <use style="stroke:#000000;stroke-width:0.5;" x="518.4" xlink:href="#md9a1c1a7cd" y="250.56"/>
      </g>
     </g>
     <g id="text_10">
      <!-- 0.4 -->
      <g transform="translate(49.76 253.9115625)scale(0.12 -0.12)">
       <use xlink:href="#Verdana-30"/>
       <use x="63.57421875" xlink:href="#Verdana-2e"/>
       <use x="99.951171875" xlink:href="#Verdana-34"/>
      </g>
     </g>
    </g>
    <g id="ytick_4">
     <g id="line2d_24">
      <g>
       <use style="stroke:#000000;stroke-width:0.5;" x="72.0" xlink:href="#md7965d1ba0" y="181.44"/>
      </g>
     </g>
     <g id="line2d_25">
      <g>
       <use style="stroke:#000000;stroke-width:0.5;" x="518.4" xlink:href="#md9a1c1a7cd" y="181.44"/>
      </g>
     </g>
     <g id="text_11">
      <!-- 0.6 -->
      <defs>
       <path d="
M58.1562 23.5781
Q58.1562 12.5 50.8594 5.48438
Q43.5625 -1.51562 32.9531 -1.51562
Q27.5938 -1.51562 23.1875 0.140625
Q18.7969 1.8125 15.4375 5.07812
Q11.2344 9.125 8.95312 15.8125
Q6.6875 22.5156 6.6875 31.9375
Q6.6875 41.6094 8.76562 49.0781
Q10.8438 56.5469 15.375 62.3594
Q19.6719 67.875 26.4531 70.9688
Q33.25 74.0781 42.2812 74.0781
Q45.1719 74.0781 47.125 73.8281
Q49.0781 73.5781 51.0781 72.9531
L51.0781 63.625
L50.5938 63.625
Q49.2188 64.3594 46.4531 65.0156
Q43.7031 65.6719 40.8281 65.6719
Q30.3281 65.6719 24.0781 59.1094
Q17.8281 52.5469 16.7969 41.3594
Q20.9062 43.8438 24.875 45.1406
Q28.8594 46.4375 34.0781 46.4375
Q38.7188 46.4375 42.25 45.5781
Q45.7969 44.7344 49.5156 42.1406
Q53.8125 39.1562 55.9844 34.6094
Q58.1562 30.0781 58.1562 23.5781
M48.25 23.1875
Q48.25 27.7344 46.9062 30.7031
Q45.5625 33.6875 42.4844 35.8906
Q40.2344 37.4531 37.5 37.9375
Q34.7656 38.4219 31.7812 38.4219
Q27.6406 38.4219 24.0781 37.4375
Q20.5156 36.4688 16.75 34.4219
Q16.6562 33.3438 16.5938 32.3438
Q16.5469 31.3438 16.5469 29.8281
Q16.5469 22.125 18.1406 17.6562
Q19.7344 13.1875 22.5156 10.5938
Q24.75 8.45312 27.3594 7.45312
Q29.9844 6.45312 33.0625 6.45312
Q40.1406 6.45312 44.1875 10.7656
Q48.25 15.0938 48.25 23.1875" id="Verdana-36"/>
      </defs>
      <g transform="translate(49.829375 184.7915625)scale(0.12 -0.12)">
       <use xlink:href="#Verdana-30"/>
       <use x="63.57421875" xlink:href="#Verdana-2e"/>
       <use x="99.951171875" xlink:href="#Verdana-36"/>
      </g>
     </g>
    </g>
    <g id="ytick_5">
     <g id="line2d_26">
      <g>
       <use style="stroke:#000000;stroke-width:0.5;" x="72.0" xlink:href="#md7965d1ba0" y="112.32"/>
      </g>
     </g>
     <g id="line2d_27">
      <g>
       <use style="stroke:#000000;stroke-width:0.5;" x="518.4" xlink:href="#md9a1c1a7cd" y="112.32"/>
      </g>
     </g>
     <g id="text_12">
      <!-- 0.8 -->
      <defs>
       <path d="
M57.625 20.2656
Q57.625 10.8438 50.2656 4.59375
Q42.9219 -1.65625 31.7812 -1.65625
Q19.9688 -1.65625 12.9531 4.4375
Q5.95312 10.5469 5.95312 20.0625
Q5.95312 26.125 9.46875 31.0312
Q12.9844 35.9375 19.3906 38.8125
L19.3906 39.1094
Q13.5312 42.2344 10.7188 45.9375
Q7.90625 49.6562 7.90625 55.2188
Q7.90625 63.4219 14.6406 68.8906
Q21.3906 74.3594 31.7812 74.3594
Q42.6719 74.3594 49.1719 69.1406
Q55.6719 63.9219 55.6719 55.8594
Q55.6719 50.9219 52.5938 46.1562
Q49.5156 41.4062 43.5625 38.7188
L43.5625 38.4219
Q50.3906 35.5 54 31.2031
Q57.625 26.9062 57.625 20.2656
M46.0469 55.7656
Q46.0469 60.9844 42.0156 64.0781
Q37.9844 67.1875 31.7344 67.1875
Q25.5938 67.1875 21.6562 64.25
Q17.7188 61.3281 17.7188 56.3438
Q17.7188 52.8281 19.7031 50.2656
Q21.6875 47.7031 25.6875 45.7031
Q27.4844 44.8281 30.875 43.4062
Q34.2812 42 37.5 41.0625
Q42.3281 44.2812 44.1875 47.75
Q46.0469 51.2188 46.0469 55.7656
M47.5625 19.3438
Q47.5625 23.8281 45.5781 26.5312
Q43.6094 29.25 37.8438 31.9844
Q35.5469 33.0625 32.8125 33.9844
Q30.0781 34.9062 25.5312 36.5781
Q21.1406 34.1875 18.4844 30.0781
Q15.8281 25.9844 15.8281 20.7969
Q15.8281 14.2031 20.3594 9.90625
Q24.9062 5.60938 31.8906 5.60938
Q39.0156 5.60938 43.2812 9.26562
Q47.5625 12.9375 47.5625 19.3438" id="Verdana-38"/>
      </defs>
      <g transform="translate(49.893125 115.6715625)scale(0.12 -0.12)">
       <use xlink:href="#Verdana-30"/>
       <use x="63.57421875" xlink:href="#Verdana-2e"/>
       <use x="99.951171875" xlink:href="#Verdana-38"/>
      </g>
     </g>
    </g>
    <g id="ytick_6">
     <g id="line2d_28">
      <g>
       <use style="stroke:#000000;stroke-width:0.5;" x="72.0" xlink:href="#md7965d1ba0" y="43.2"/>
      </g>
     </g>
     <g id="line2d_29">
      <g>
       <use style="stroke:#000000;stroke-width:0.5;" x="518.4" xlink:href="#md9a1c1a7cd" y="43.2"/>
      </g>
     </g>
     <g id="text_13">
      <!-- 1.0 -->
      <g transform="translate(50.796875 46.5515625)scale(0.12 -0.12)">
       <use xlink:href="#Verdana-31"/>
       <use x="63.57421875" xlink:href="#Verdana-2e"/>
       <use x="99.951171875" xlink:href="#Verdana-30"/>
      </g>
     </g>
    </g>
    <g id="text_14">
     <!-- Rank 0 Probability -->
     <defs>
      <path d="
M56.2031 54.5469
L24.3594 -20.125
L14.5469 -20.125
L24.7031 2.64062
L2.98438 54.5469
L12.9375 54.5469
L29.6875 14.1094
L46.5781 54.5469
z
" id="Verdana-79"/>
      <path d="
M69.9219 0
L57.375 0
L33.0625 28.9062
L19.4375 28.9062
L19.4375 0
L9.76562 0
L9.76562 72.7031
L30.125 72.7031
Q36.7188 72.7031 41.1094 71.8438
Q45.5156 71 49.0312 68.7969
Q52.9844 66.3125 55.2031 62.5156
Q57.4219 58.7344 57.4219 52.9375
Q57.4219 45.0625 53.4688 39.7656
Q49.5156 34.4688 42.5781 31.7812
z

M47.3125 52.25
Q47.3125 55.375 46.2188 57.7812
Q45.125 60.2031 42.5781 61.8594
Q40.4844 63.2812 37.5938 63.8438
Q34.7188 64.4062 30.8125 64.4062
L19.4375 64.4062
L19.4375 36.9688
L29.2031 36.9688
Q33.7969 36.9688 37.2031 37.7656
Q40.625 38.5781 43.0156 40.7656
Q45.2188 42.8281 46.2656 45.4844
Q47.3125 48.1406 47.3125 52.25" id="Verdana-52"/>
      <path d="
M51.4219 0
L42.2812 0
L42.2812 5.8125
Q41.0625 4.98438 38.9844 3.48438
Q36.9219 2 34.9688 1.125
Q32.6719 0 29.6875 -0.75
Q26.7031 -1.51562 22.7031 -1.51562
Q15.3281 -1.51562 10.2031 3.35938
Q5.07812 8.25 5.07812 15.8281
Q5.07812 22.0156 7.73438 25.8438
Q10.4062 29.6875 15.3281 31.8906
Q20.3125 34.0781 27.2969 34.8594
Q34.2812 35.6406 42.2812 36.0312
L42.2812 37.4531
Q42.2812 40.5781 41.1875 42.625
Q40.0938 44.6719 38.0312 45.8438
Q36.0781 46.9688 33.3438 47.3594
Q30.6094 47.75 27.6406 47.75
Q24.0312 47.75 19.5781 46.7969
Q15.1406 45.8438 10.4062 44.0469
L9.90625 44.0469
L9.90625 53.375
Q12.5938 54.1094 17.6719 54.9844
Q22.75 55.8594 27.6875 55.8594
Q33.4531 55.8594 37.7188 54.9062
Q42 53.9531 45.125 51.6562
Q48.1875 49.4219 49.7969 45.8438
Q51.4219 42.2812 51.4219 37.0156
z

M42.2812 13.4219
L42.2812 28.6094
Q38.0938 28.375 32.3906 27.875
Q26.7031 27.3906 23.3906 26.4688
Q19.4375 25.3438 16.9844 22.9688
Q14.5469 20.6094 14.5469 16.4531
Q14.5469 11.7656 17.375 9.39062
Q20.2188 7.03125 26.0312 7.03125
Q30.8594 7.03125 34.8594 8.90625
Q38.875 10.7969 42.2812 13.4219" id="Verdana-61"/>
      <path d="
M57.3281 50.7344
Q57.3281 45.9062 55.6406 41.7656
Q53.9531 37.6406 50.9219 34.625
Q47.1719 30.8594 42.0469 28.9688
Q36.9219 27.0938 29.1094 27.0938
L19.4375 27.0938
L19.4375 0
L9.76562 0
L9.76562 72.7031
L29.5 72.7031
Q36.0312 72.7031 40.5781 71.6094
Q45.125 70.5156 48.6406 68.1719
Q52.7812 65.375 55.0469 61.2188
Q57.3281 57.0781 57.3281 50.7344
M47.2656 50.4844
Q47.2656 54.25 45.9375 57.0312
Q44.625 59.8125 41.9375 61.5781
Q39.5938 63.0938 36.5938 63.75
Q33.5938 64.4062 29 64.4062
L19.4375 64.4062
L19.4375 35.3594
L27.5938 35.3594
Q33.4531 35.3594 37.1094 36.4062
Q40.7656 37.4531 43.0625 39.75
Q45.3594 42.0938 46.3125 44.6719
Q47.2656 47.2656 47.2656 50.4844" id="Verdana-50"/>
      <path d="
M18.3125 0
L9.125 0
L9.125 75.9844
L18.3125 75.9844
z
" id="Verdana-6c"/>
      <path d="
M58.5469 0
L46.4375 0
L24.5625 23.875
L18.6094 18.2188
L18.6094 0
L9.42188 0
L9.42188 75.9844
L18.6094 75.9844
L18.6094 27.25
L45.125 54.5469
L56.6875 54.5469
L31.3438 29.3438
z
" id="Verdana-6b"/>
      <path d="
M43.0625 44.5312
L42.5781 44.5312
Q40.5312 45.0156 38.5938 45.2344
Q36.6719 45.4531 34.0312 45.4531
Q29.7812 45.4531 25.8281 43.5781
Q21.875 41.7031 18.2188 38.7188
L18.2188 0
L9.03125 0
L9.03125 54.5469
L18.2188 54.5469
L18.2188 46.4844
Q23.6875 50.875 27.8594 52.7031
Q32.0312 54.5469 36.375 54.5469
Q38.7656 54.5469 39.8438 54.4219
Q40.9219 54.2969 43.0625 53.9531
z
" id="Verdana-72"/>
     </defs>
     <g transform="translate(42.345 270.583125)rotate(-90.0)scale(0.12 -0.12)">
      <use xlink:href="#Verdana-52"/>
      <use x="67.53125" xlink:href="#Verdana-61"/>
      <use x="127.58984375" xlink:href="#Verdana-6e"/>
      <use x="190.87109375" xlink:href="#Verdana-6b"/>
      <use x="250.05078125" xlink:href="#Verdana-20"/>
      <use x="285.20703125" xlink:href="#Verdana-30"/>
      <use x="348.78125" xlink:href="#Verdana-20"/>
      <use x="383.9375" xlink:href="#Verdana-50"/>
      <use x="444.240234375" xlink:href="#Verdana-72"/>
      <use x="486.916015625" xlink:href="#Verdana-6f"/>
      <use x="547.609375" xlink:href="#Verdana-62"/>
      <use x="609.9140625" xlink:href="#Verdana-61"/>
      <use x="669.97265625" xlink:href="#Verdana-62"/>
      <use x="732.27734375" xlink:href="#Verdana-69"/>
      <use x="759.71875" xlink:href="#Verdana-6c"/>
      <use x="787.16015625" xlink:href="#Verdana-69"/>
      <use x="814.6015625" xlink:href="#Verdana-74"/>
      <use x="853.505859375" xlink:href="#Verdana-79"/>
     </g>
    </g>
   </g>
   <g id="patch_3">
    <path d="
M518.4 388.8
L518.4 43.2" style="fill:none;stroke:#000000;"/>
   </g>
   <g id="patch_4">
    <path d="
M72 43.2
L518.4 43.2" style="fill:none;stroke:#000000;"/>
   </g>
   <g id="patch_5">
    <path d="
M72 388.8
L518.4 388.8" style="fill:none;stroke:#000000;"/>
   </g>
   <g id="patch_6">
    <path d="
M72 388.8
L72 43.2" style="fill:none;stroke:#000000;"/>
   </g>
   <g id="text_15">
    <!-- Weierstrass Rank 0 Probability -->
    <defs>
     <path d="
M94.3906 72.7031
L75.4844 0
L64.5938 0
L49.3125 60.3594
L34.375 0
L23.7344 0
L4.5 72.7031
L14.4062 72.7031
L29.6875 12.25
L44.7344 72.7031
L54.5469 72.7031
L69.7344 11.6719
L84.9062 72.7031
z
" id="Verdana-57"/>
    </defs>
    <g transform="translate(185.4135 38.2)scale(0.144 -0.144)">
     <use xlink:href="#Verdana-57"/>
     <use x="94.001953125" xlink:href="#Verdana-65"/>
     <use x="153.572265625" xlink:href="#Verdana-69"/>
     <use x="181.013671875" xlink:href="#Verdana-65"/>
     <use x="240.583984375" xlink:href="#Verdana-72"/>
     <use x="283.259765625" xlink:href="#Verdana-73"/>
     <use x="335.359375" xlink:href="#Verdana-74"/>
     <use x="374.763671875" xlink:href="#Verdana-72"/>
     <use x="415.689453125" xlink:href="#Verdana-61"/>
     <use x="475.748046875" xlink:href="#Verdana-73"/>
     <use x="527.84765625" xlink:href="#Verdana-73"/>
     <use x="579.947265625" xlink:href="#Verdana-20"/>
     <use x="615.103515625" xlink:href="#Verdana-52"/>
     <use x="682.634765625" xlink:href="#Verdana-61"/>
     <use x="742.693359375" xlink:href="#Verdana-6e"/>
     <use x="805.974609375" xlink:href="#Verdana-6b"/>
     <use x="865.154296875" xlink:href="#Verdana-20"/>
     <use x="900.310546875" xlink:href="#Verdana-30"/>
     <use x="963.884765625" xlink:href="#Verdana-20"/>
     <use x="999.041015625" xlink:href="#Verdana-50"/>
     <use x="1059.34375" xlink:href="#Verdana-72"/>
     <use x="1102.01953125" xlink:href="#Verdana-6f"/>
     <use x="1162.712890625" xlink:href="#Verdana-62"/>
     <use x="1225.017578125" xlink:href="#Verdana-61"/>
     <use x="1285.076171875" xlink:href="#Verdana-62"/>
     <use x="1347.380859375" xlink:href="#Verdana-69"/>
     <use x="1374.822265625" xlink:href="#Verdana-6c"/>
     <use x="1402.263671875" xlink:href="#Verdana-69"/>
     <use x="1429.705078125" xlink:href="#Verdana-74"/>
     <use x="1468.609375" xlink:href="#Verdana-79"/>
    </g>
   </g>
   <g id="legend_1">
    <g id="patch_7">
     <path d="
M243.19 381.6
L347.21 381.6
L347.21 272.081
L243.19 272.081
L243.19 381.6
z
" style="fill:#ffffff;stroke:#000000;"/>
    </g>
    <g id="line2d_30">
     <path d="
M253.27 283.743
L273.43 283.743" style="fill:none;stroke:#0000ff;stroke-dasharray:6.000000,2.000000;stroke-dashoffset:0.0;"/>
    </g>
    <g id="line2d_31"/>
    <g id="text_16">
     <!-- AMPGO -->
     <defs>
      <path d="
M74.5156 0
L64.8438 0
L64.8438 62.6406
L44.625 20.0156
L38.875 20.0156
L18.7969 62.6406
L18.7969 0
L9.76562 0
L9.76562 72.7031
L22.9531 72.7031
L42.3281 32.2344
L61.0781 72.7031
L74.5156 72.7031
z
" id="Verdana-4d"/>
      <path d="
M67.0938 0
L56.7812 0
L49.6562 20.2656
L18.2188 20.2656
L11.0781 0
L1.26562 0
L27.7344 72.7031
L40.625 72.7031
z

M46.6875 28.5625
L33.9375 64.2656
L21.1406 28.5625
z
" id="Verdana-41"/>
      <path d="
M70.4062 5.375
Q64.4531 2.64062 57.3906 0.609375
Q50.3438 -1.42188 43.75 -1.42188
Q35.25 -1.42188 28.1719 0.921875
Q21.0938 3.26562 16.1094 7.95312
Q11.0781 12.7031 8.34375 19.7969
Q5.60938 26.9062 5.60938 36.4219
Q5.60938 53.8594 15.7969 63.9375
Q25.9844 74.0312 43.75 74.0312
Q49.9531 74.0312 56.4219 72.5312
Q62.8906 71.0469 70.3594 67.4844
L70.3594 56
L69.4844 56
Q67.9688 57.1719 65.0781 59.0781
Q62.2031 60.9844 59.4219 62.25
Q56.0625 63.7656 51.7812 64.7656
Q47.5156 65.7656 42.0938 65.7656
Q29.8906 65.7656 22.7812 57.9219
Q15.6719 50.0938 15.6719 36.7188
Q15.6719 22.6094 23.0938 14.7656
Q30.5156 6.9375 43.3125 6.9375
Q48 6.9375 52.6562 7.85938
Q57.3281 8.79688 60.8438 10.25
L60.8438 28.0781
L41.3594 28.0781
L41.3594 36.5781
L70.4062 36.5781
z
" id="Verdana-47"/>
     </defs>
     <g transform="translate(289.270125 288.783)scale(0.144 -0.144)">
      <use xlink:href="#Verdana-41"/>
      <use x="68.359375" xlink:href="#Verdana-4d"/>
      <use x="152.63671875" xlink:href="#Verdana-50"/>
      <use x="212.939453125" xlink:href="#Verdana-47"/>
      <use x="290.478515625" xlink:href="#Verdana-4f"/>
     </g>
    </g>
    <g id="line2d_32">
     <path d="
M253.27 304.783
L273.43 304.783" style="fill:none;stroke:#008000;stroke-dasharray:1.000000,1.000000;stroke-dashoffset:0.0;"/>
    </g>
    <g id="line2d_33"/>
    <g id="text_17">
     <!-- Anneal -->
     <g transform="translate(289.270125 309.82275)scale(0.144 -0.144)">
      <use xlink:href="#Verdana-41"/>
      <use x="68.359375" xlink:href="#Verdana-6e"/>
      <use x="131.640625" xlink:href="#Verdana-6e"/>
      <use x="194.921875" xlink:href="#Verdana-65"/>
      <use x="254.4921875" xlink:href="#Verdana-61"/>
      <use x="314.55078125" xlink:href="#Verdana-6c"/>
     </g>
    </g>
    <g id="line2d_34">
     <path d="
M253.27 325.822
L273.43 325.822" style="fill:none;stroke:#ff0000;stroke-dasharray:3.000000,6.000000;stroke-dashoffset:0.0;"/>
    </g>
    <g id="line2d_35"/>
    <g id="text_18">
     <!-- BSA -->
     <defs>
      <path d="
M62.5938 20.75
Q62.5938 16.5 60.6094 12.3438
Q58.6406 8.20312 55.0781 5.32812
Q51.1719 2.20312 45.9688 0.4375
Q40.7656 -1.3125 33.4531 -1.3125
Q25.5938 -1.3125 19.3125 0.140625
Q13.0312 1.60938 6.54688 4.5
L6.54688 16.6094
L7.23438 16.6094
Q12.75 12.0156 19.9688 9.51562
Q27.2031 7.03125 33.5469 7.03125
Q42.5312 7.03125 47.5312 10.3906
Q52.5469 13.7656 52.5469 19.3906
Q52.5469 24.2188 50.1719 26.5156
Q47.7969 28.8125 42.9688 30.0781
Q39.3125 31.0625 35.0312 31.6875
Q30.7656 32.3281 25.9844 33.2969
Q16.3125 35.3594 11.6406 40.3125
Q6.98438 45.2656 6.98438 53.2188
Q6.98438 62.3594 14.6875 68.1875
Q22.4062 74.0312 34.2812 74.0312
Q41.9375 74.0312 48.3281 72.5625
Q54.7344 71.0938 59.6719 68.9531
L59.6719 57.5156
L58.9844 57.5156
Q54.8281 61.0312 48.0625 63.3438
Q41.3125 65.6719 34.2344 65.6719
Q26.4688 65.6719 21.75 62.4531
Q17.0469 59.2344 17.0469 54.1562
Q17.0469 49.6094 19.3906 47.0156
Q21.7344 44.4375 27.6406 43.0625
Q30.7656 42.3906 36.5156 41.4062
Q42.2812 40.4375 46.2969 39.4062
Q54.3906 37.25 58.4844 32.9062
Q62.5938 28.5625 62.5938 20.75" id="Verdana-53"/>
      <path d="
M64.5938 22.3594
Q64.5938 16.9375 62.5469 12.7812
Q60.5 8.64062 57.0312 5.95312
Q52.9375 2.73438 48.0156 1.35938
Q43.1094 0 35.5469 0
L9.76562 0
L9.76562 72.7031
L31.2969 72.7031
Q39.2656 72.7031 43.2188 72.1094
Q47.1719 71.5312 50.7812 69.6719
Q54.7812 67.5781 56.5938 64.2812
Q58.4062 60.9844 58.4062 56.3906
Q58.4062 51.2188 55.7656 47.5781
Q53.125 43.9531 48.7344 41.75
L48.7344 41.3594
Q56.1094 39.8438 60.3438 34.8906
Q64.5938 29.9375 64.5938 22.3594
M48.3438 55.125
Q48.3438 57.7656 47.4531 59.5625
Q46.5781 61.375 44.625 62.5
Q42.3281 63.8125 39.0625 64.125
Q35.7969 64.4531 30.9531 64.4531
L19.4375 64.4531
L19.4375 43.4531
L31.9375 43.4531
Q36.4688 43.4531 39.1562 43.9219
Q41.8438 44.3906 44.1406 45.8438
Q46.4375 47.3125 47.3906 49.625
Q48.3438 51.9531 48.3438 55.125
M54.5469 21.9688
Q54.5469 26.375 53.2188 28.9531
Q51.9062 31.5469 48.4375 33.3438
Q46.0938 34.5781 42.75 34.9375
Q39.4062 35.2969 34.625 35.2969
L19.4375 35.2969
L19.4375 8.25
L32.2344 8.25
Q38.5781 8.25 42.625 8.90625
Q46.6875 9.57812 49.2656 11.3281
Q52 13.2344 53.2656 15.6719
Q54.5469 18.1094 54.5469 21.9688" id="Verdana-42"/>
     </defs>
     <g transform="translate(289.270125 330.8625)scale(0.144 -0.144)">
      <use xlink:href="#Verdana-42"/>
      <use x="68.5546875" xlink:href="#Verdana-53"/>
      <use x="135.9140625" xlink:href="#Verdana-41"/>
     </g>
    </g>
    <g id="line2d_36">
     <path d="
M253.27 346.862
L273.43 346.862" style="fill:none;stroke:#00bfbf;stroke-dasharray:5.000000,1.000000,2.000000,1.000000,5.000000,1.000000;stroke-dashoffset:0.0;"/>
    </g>
    <g id="line2d_37"/>
    <g id="text_19">
     <!-- Cuckoo -->
     <defs>
      <path d="
M65.9219 5.28125
Q63.2344 4.10938 61.0625 3.07812
Q58.8906 2.04688 55.375 0.921875
Q52.3906 0 48.8906 -0.65625
Q45.4062 -1.3125 41.2188 -1.3125
Q33.2969 -1.3125 26.8281 0.90625
Q20.3594 3.125 15.5781 7.85938
Q10.8906 12.5 8.25 19.6562
Q5.60938 26.8125 5.60938 36.2812
Q5.60938 45.2656 8.14062 52.3438
Q10.6875 59.4219 15.4844 64.3125
Q20.125 69.0469 26.6875 71.5312
Q33.25 74.0312 41.2656 74.0312
Q47.125 74.0312 52.9531 72.6094
Q58.7969 71.1875 65.9219 67.625
L65.9219 56.1562
L65.1875 56.1562
Q59.1875 61.1875 53.2656 63.4688
Q47.3594 65.7656 40.625 65.7656
Q35.1094 65.7656 30.6875 63.9844
Q26.2656 62.2031 22.7969 58.4531
Q19.4375 54.7812 17.5469 49.1875
Q15.6719 43.6094 15.6719 36.2812
Q15.6719 28.6094 17.75 23.0938
Q19.8281 17.5781 23.0938 14.1094
Q26.5156 10.5 31.0781 8.76562
Q35.6406 7.03125 40.7188 7.03125
Q47.7031 7.03125 53.7969 9.42188
Q59.9062 11.8125 65.2344 16.6094
L65.9219 16.6094
z
" id="Verdana-43"/>
     </defs>
     <g transform="translate(289.270125 351.90225)scale(0.144 -0.144)">
      <use xlink:href="#Verdana-43"/>
      <use x="69.82421875" xlink:href="#Verdana-75"/>
      <use x="133.10546875" xlink:href="#Verdana-63"/>
      <use x="185.205078125" xlink:href="#Verdana-6b"/>
      <use x="243.384765625" xlink:href="#Verdana-6f"/>
      <use x="304.078125" xlink:href="#Verdana-6f"/>
     </g>
    </g>
    <g id="line2d_38">
     <path d="
M253.27 367.902
L273.43 367.902" style="fill:none;stroke:#bf00bf;stroke-linecap:square;"/>
    </g>
    <g id="line2d_39"/>
    <g id="text_20">
     <!-- qABC -->
     <defs>
      <path d="
M53.2656 -20.125
L44.0938 -20.125
L44.0938 6.15625
Q39.8438 2.48438 35.6406 0.703125
Q31.4531 -1.07812 26.5625 -1.07812
Q16.8438 -1.07812 11.0625 6.42188
Q5.28125 13.9219 5.28125 27.0938
Q5.28125 34.125 7.29688 39.5156
Q9.32812 44.9219 12.6406 48.5781
Q15.875 52.1562 20.2188 54.1094
Q24.5625 56.0625 29.3906 56.0625
Q33.7969 56.0625 37.1875 55.0781
Q40.5781 54.1094 44.0938 52.2031
L44.6719 54.5469
L53.2656 54.5469
z

M44.0938 13.875
L44.0938 44.7344
Q40.2812 46.4375 37.3438 47.1094
Q34.4219 47.7969 31 47.7969
Q23.0469 47.7969 18.8906 42.4062
Q14.75 37.0156 14.75 27.5469
Q14.75 17.9688 18.0938 12.8125
Q21.4375 7.67188 28.6094 7.67188
Q32.625 7.67188 36.625 9.40625
Q40.625 11.1406 44.0938 13.875" id="Verdana-71"/>
     </defs>
     <g transform="translate(289.270125 372.942)scale(0.144 -0.144)">
      <use xlink:href="#Verdana-71"/>
      <use x="62.3046875" xlink:href="#Verdana-41"/>
      <use x="130.6640625" xlink:href="#Verdana-42"/>
      <use x="199.21875" xlink:href="#Verdana-43"/>
     </g>
    </g>
   </g>
  </g>
 </g>
 <defs>
  <clipPath id="p7ff5b81e1d">
   <rect height="345.6" width="446.4" x="72.0" y="43.2"/>
  </clipPath>
 </defs>
</svg>
